mtllib Npc_70050.mtl
o Npc_70050
v -0.09547 0.08280 1.00805 0.000 0.443 0.000
v -0.09547 0.08280 1.04254 0.000 0.424 0.000
v -0.15410 0.18000 1.00584 0.000 0.443 0.000
v -0.15410 0.18000 1.04033 0.000 0.412 0.000
v 0.00000 0.05470 1.04468 0.000 0.424 0.000
v 0.00000 0.05470 1.01020 0.000 0.443 0.000
v 0.09443 0.09180 1.05032 0.000 0.412 0.000
v 0.09443 0.09180 1.01583 0.000 0.443 0.000
v 0.13983 0.18000 1.05370 0.000 0.400 0.000
v 0.13983 0.18000 1.01921 0.000 0.443 0.000
v -0.09547 0.27720 1.04254 0.000 0.424 0.000
v -0.09547 0.27720 1.00805 0.000 0.443 0.000
v 0.09443 0.26820 1.01583 0.000 0.443 0.000
v 0.09443 0.26820 1.05032 0.000 0.412 0.000
v 0.00000 0.30530 1.01020 0.000 0.443 0.000
v 0.00000 0.30530 1.04468 0.000 0.424 0.000
v -0.10015 0.12915 0.09047 0.000 0.361 0.000
v -0.13129 0.18000 0.09047 0.000 0.353 0.000
v -0.11340 0.18000 0.04162 0.000 0.431 0.000
v -0.07705 0.11603 0.04162 0.000 0.431 0.000
v -0.09619 0.13109 0.13259 0.000 0.443 0.000
v -0.05561 0.09990 0.09047 0.000 0.400 0.000
v -0.13129 0.18000 0.14400 0.000 0.455 0.000
v 0.03780 0.08460 0.04162 0.000 0.463 0.000
v -0.10015 0.23085 0.09047 0.000 0.361 0.000
v -0.07705 0.24397 0.04162 0.000 0.431 0.000
v -0.09619 0.22891 0.13259 0.000 0.443 0.000
v -0.05561 0.26010 0.09047 0.000 0.400 0.000
v 0.03780 0.27540 0.04162 0.000 0.463 0.000
v 0.10800 0.08820 0.00000 0.000 0.925 0.000
v 0.10800 0.27180 0.00000 0.000 0.925 0.000
v 0.29031 0.08464 0.00000 0.000 0.925 0.000
v 0.29031 0.27536 0.00000 0.000 0.925 0.000
v 0.36110 0.11740 0.00000 0.000 0.925 0.000
v 0.36110 0.24260 0.00000 0.000 0.925 0.000
v 0.38880 0.18000 0.00000 0.000 0.925 0.000
v -0.11340 0.18000 0.00000 0.000 0.949 0.000
v -0.07705 0.24397 0.00000 0.000 0.949 0.000
v -0.07705 0.11603 0.00000 0.000 0.949 0.000
v 0.03780 0.09000 0.00000 0.000 0.949 0.000
v 0.03780 0.27000 0.00000 0.000 0.949 0.000
v 0.03780 0.08460 0.04162 0.000 0.976 0.000
v 0.03780 0.27540 0.04162 0.000 0.976 0.000
v 0.03780 0.08460 0.04162 0.000 0.976 0.000
v 0.03780 0.27540 0.04162 0.000 0.976 0.000
v 0.10800 0.08820 0.00000 0.000 0.925 0.000
v 0.10800 0.27180 0.00000 0.000 0.925 0.000
v -0.00251 0.07934 0.06872 0.000 0.443 0.000
v 0.02747 0.06214 0.10114 0.000 0.349 0.000
v -0.01549 0.08213 0.09997 0.000 0.424 0.000
v -0.00255 0.08293 0.13136 0.000 0.361 0.000
v 0.02873 0.08127 0.14450 0.000 0.329 0.000
v 0.06002 0.07810 0.13169 0.000 0.361 0.000
v 0.07300 0.07531 0.10042 0.000 0.424 0.000
v 0.06006 0.07452 0.06903 0.000 0.443 0.000
v 0.02878 0.07619 0.05591 0.000 0.443 0.000
v -0.17612 0.18000 0.65383 0.000 0.000 0.843
v -0.11192 0.08910 0.62521 0.000 0.000 0.843
v -0.09567 0.07985 0.77290 0.000 0.000 0.886
v -0.15752 0.18000 0.76158 0.000 0.000 0.886
v -0.01038 0.06646 0.75467 0.000 0.000 0.886
v -0.02156 0.08433 0.59166 0.000 0.000 0.824
v 0.06806 0.10217 0.73795 0.000 0.000 0.867
v -0.08289 0.11255 0.45043 0.000 0.000 0.843
v -0.00584 0.02995 0.84661 0.000 0.000 0.867
v 0.11668 0.07371 0.85752 0.000 0.000 0.824
v -0.00131 0.02756 0.92072 0.000 0.000 0.843
v 0.12283 0.07371 0.93352 0.000 0.000 0.780
v 0.16525 0.18000 0.85784 0.000 0.000 0.780
v 0.17216 0.18000 0.93469 0.000 0.000 0.749
v 0.11023 0.18000 0.72851 0.000 0.000 0.867
v 0.05427 0.12442 0.57042 0.000 0.000 0.780
v 0.09443 0.09180 1.01583 0.000 0.000 0.886
v 0.13983 0.18000 1.01921 0.000 0.000 0.886
v 0.00000 0.05470 1.01020 0.000 0.000 0.894
v -0.11695 0.06917 0.90297 0.000 0.000 0.843
v -0.09547 0.08280 1.00805 0.000 0.000 0.894
v -0.15410 0.18000 1.00584 0.000 0.000 0.894
v -0.18101 0.18000 0.88751 0.000 0.000 0.867
v 0.08745 0.18000 0.56272 0.000 0.000 0.741
v 0.05588 0.13118 0.37647 0.000 0.000 0.804
v 0.08119 0.18000 0.37647 0.000 0.000 0.761
v 0.07058 0.13109 0.28354 0.000 0.000 0.824
v 0.09701 0.18000 0.28982 0.000 0.000 0.804
v 0.10430 0.12092 0.20664 0.000 0.000 0.780
v -0.00719 0.09731 0.26874 0.000 0.000 0.843
v 0.00532 0.08820 0.16265 0.000 0.000 0.804
v -0.08897 0.09662 0.17559 0.000 0.000 0.824
v -0.07504 0.12001 0.26050 0.000 0.000 0.867
v 0.14400 0.18000 0.22489 0.000 0.000 0.761
v -0.01461 0.09792 0.37647 0.000 0.000 0.824
v 0.14400 0.12004 0.16265 0.000 0.000 0.780
v 0.14400 0.08014 0.09655 0.000 0.000 0.824
v 0.02073 0.07285 0.08102 0.000 0.000 0.741
v -0.05561 0.09990 0.09047 0.000 0.000 0.804
v -0.09619 0.13109 0.13259 0.000 0.000 0.886
v -0.14049 0.18000 0.18373 0.000 0.000 0.804
v -0.13129 0.18000 0.14400 0.000 0.000 0.906
v 0.24754 0.13502 0.16265 0.000 0.000 0.780
v 0.24754 0.18000 0.21497 0.000 0.000 0.698
v 0.27607 0.18000 0.18787 0.000 0.000 0.843
v -0.12286 0.18000 0.45043 0.000 0.000 0.843
v -0.11003 0.18000 0.25738 0.000 0.000 0.867
v -0.02409 0.09756 0.04162 0.000 0.000 0.929
v 0.02912 0.08537 0.02513 0.000 0.000 0.929
v 0.09250 0.08278 0.04180 0.000 0.000 0.929
v -0.07504 0.23999 0.26050 0.000 0.000 0.867
v -0.08289 0.24745 0.45043 0.000 0.000 0.843
v -0.11192 0.27090 0.62521 0.000 0.000 0.843
v -0.09567 0.28015 0.77290 0.000 0.000 0.886
v -0.01038 0.29354 0.75467 0.000 0.000 0.886
v -0.02156 0.27567 0.59166 0.000 0.000 0.824
v 0.06806 0.25783 0.73795 0.000 0.000 0.867
v -0.00584 0.33005 0.84661 0.000 0.000 0.867
v 0.11668 0.28629 0.85752 0.000 0.000 0.824
v -0.00131 0.33244 0.92072 0.000 0.000 0.843
v 0.12283 0.28629 0.93352 0.000 0.000 0.780
v 0.05427 0.23558 0.57042 0.000 0.000 0.780
v 0.09443 0.26820 1.01583 0.000 0.000 0.886
v 0.00000 0.30530 1.01020 0.000 0.000 0.894
v -0.11695 0.29083 0.90297 0.000 0.000 0.843
v -0.09547 0.27720 1.00805 0.000 0.000 0.894
v 0.05588 0.22882 0.37647 0.000 0.000 0.804
v 0.07058 0.22891 0.28354 0.000 0.000 0.824
v 0.10430 0.23908 0.20664 0.000 0.000 0.780
v -0.00719 0.26269 0.26874 0.000 0.000 0.843
v 0.00532 0.27180 0.16265 0.000 0.000 0.804
v -0.08897 0.26338 0.17559 0.000 0.000 0.824
v -0.01461 0.26208 0.37647 0.000 0.000 0.824
v 0.14400 0.23996 0.16265 0.000 0.000 0.780
v 0.14400 0.27986 0.09655 0.000 0.000 0.824
v 0.02073 0.28715 0.08102 0.000 0.000 0.741
v -0.05561 0.26010 0.09047 0.000 0.000 0.804
v -0.09619 0.22891 0.13259 0.000 0.000 0.886
v 0.24754 0.22498 0.16265 0.000 0.000 0.780
v -0.02409 0.26244 0.04162 0.000 0.000 0.929
v 0.02912 0.27463 0.02513 0.000 0.000 0.929
v 0.09250 0.27722 0.04180 0.000 0.000 0.929
v 0.19597 0.18000 0.20376 0.000 0.000 0.718
v -0.18801 0.18000 1.12968 0.000 0.000 0.824
v -0.17781 0.18000 1.08133 0.000 0.000 0.867
v -0.12400 0.07033 1.12329 0.000 0.000 0.843
v -0.09547 0.08280 1.04254 0.000 0.000 0.929
v 0.00000 0.05470 1.04468 0.000 0.000 0.906
v 0.00000 0.02846 1.11982 0.000 0.000 0.843
v 0.09443 0.09180 1.05032 0.000 0.000 0.886
v 0.12655 0.06921 1.13117 0.000 0.000 0.780
v 0.17039 0.18000 1.08790 0.000 0.000 0.780
v 0.13983 0.18000 1.05370 0.000 0.000 0.886
v 0.17882 0.18000 1.14282 0.000 0.000 0.741
v -0.15410 0.18000 1.04033 0.000 0.000 0.929
v -0.12400 0.28967 1.12329 0.000 0.000 0.843
v 0.09443 0.26820 1.05032 0.000 0.000 0.886
v 0.12655 0.29079 1.13117 0.000 0.000 0.780
v -0.09547 0.27720 1.04254 0.000 0.000 0.929
v 0.00000 0.30530 1.04468 0.000 0.000 0.906
v 0.00000 0.33154 1.11982 0.000 0.000 0.843
v 0.17882 0.18000 1.14282 0.000 0.000 0.741
v 0.00000 0.18000 1.09418 0.000 0.000 0.969
v 0.12655 0.06921 1.13117 0.000 0.000 0.780
v 0.00000 0.02846 1.11982 0.000 0.000 0.843
v -0.12400 0.07033 1.12329 0.000 0.000 0.843
v -0.18801 0.18000 1.12968 0.000 0.000 0.824
v 0.12655 0.29079 1.13117 0.000 0.000 0.780
v -0.12400 0.28967 1.12329 0.000 0.000 0.843
v 0.00000 0.33154 1.11982 0.000 0.000 0.843
v -0.00251 0.28066 0.06872 0.000 0.443 0.000
v -0.01549 0.27787 0.09997 0.000 0.424 0.000
v 0.02747 0.29786 0.10114 0.000 0.349 0.000
v -0.00255 0.27707 0.13136 0.000 0.361 0.000
v 0.02873 0.27873 0.14450 0.000 0.329 0.000
v 0.06002 0.28190 0.13169 0.000 0.361 0.000
v 0.07300 0.28469 0.10042 0.000 0.424 0.000
v 0.06006 0.28548 0.06903 0.000 0.443 0.000
v 0.02878 0.28381 0.05591 0.000 0.443 0.000
v 0.10800 0.08820 0.00000 0.000 0.929 0.000
v 0.29031 0.08464 0.00000 0.000 0.906 0.000
v 0.29031 0.08464 0.04162 0.000 0.843 0.000
v 0.36110 0.11740 0.00000 0.000 0.906 0.000
v 0.03780 0.08460 0.04162 0.000 0.886 0.000
v 0.36110 0.11740 0.04162 0.000 0.824 0.000
v 0.38880 0.18000 0.04162 0.000 0.824 0.000
v 0.38880 0.18000 0.00000 0.000 0.906 0.000
v 0.36110 0.24260 0.00000 0.000 0.906 0.000
v 0.36110 0.24260 0.04162 0.000 0.824 0.000
v 0.29031 0.27536 0.04162 0.000 0.843 0.000
v 0.29031 0.27536 0.00000 0.000 0.906 0.000
v 0.10800 0.27180 0.00000 0.000 0.929 0.000
v 0.03780 0.27540 0.04162 0.000 0.886 0.000
v -0.07705 0.11603 0.00000 0.000 0.929 0.000
v 0.03780 0.09000 0.00000 0.000 0.929 0.000
v -0.07705 0.11603 0.04162 0.000 0.867 0.000
v -0.11340 0.18000 0.00000 0.000 0.929 0.000
v -0.11340 0.18000 0.04162 0.000 0.867 0.000
v -0.07705 0.24397 0.04162 0.000 0.867 0.000
v -0.07705 0.24397 0.00000 0.000 0.929 0.000
v 0.03780 0.27000 0.00000 0.000 0.929 0.000
v 0.29031 0.08464 0.04162 0.000 0.443 0.000
v 0.36110 0.11740 0.04162 0.000 0.424 0.000
v 0.29031 0.10694 0.11691 0.000 0.361 0.000
v 0.14400 0.08014 0.09655 0.000 0.412 0.000
v 0.37931 0.18000 0.12836 0.000 0.353 0.000
v 0.32855 0.18000 0.17030 0.000 0.341 0.000
v 0.03780 0.08460 0.04162 0.000 0.463 0.000
v 0.24754 0.13502 0.16265 0.000 0.392 0.000
v 0.25243 0.18000 0.17703 0.000 0.400 0.000
v 0.38880 0.18000 0.04162 0.000 0.424 0.000
v 0.29031 0.25306 0.11691 0.000 0.361 0.000
v 0.36110 0.24260 0.04162 0.000 0.424 0.000
v 0.29031 0.27536 0.04162 0.000 0.443 0.000
v 0.14400 0.27986 0.09655 0.000 0.412 0.000
v 0.24754 0.22498 0.16265 0.000 0.392 0.000
v 0.03780 0.27540 0.04162 0.000 0.463 0.000
v 0.27607 0.18000 0.18787 0.000 0.000 0.918
v 0.24754 0.13502 0.16265 0.000 0.000 0.812
v 0.24754 0.22498 0.16265 0.000 0.000 0.812
v -0.09547 -0.08280 1.00805 0.000 0.443 0.000
v -0.15410 -0.18000 1.00584 0.000 0.443 0.000
v -0.09547 -0.08280 1.04254 0.000 0.424 0.000
v -0.15410 -0.18000 1.04033 0.000 0.412 0.000
v 0.00000 -0.05470 1.04468 0.000 0.424 0.000
v 0.00000 -0.05470 1.01020 0.000 0.443 0.000
v 0.09443 -0.09180 1.05032 0.000 0.412 0.000
v 0.09443 -0.09180 1.01583 0.000 0.443 0.000
v 0.13983 -0.18000 1.05370 0.000 0.400 0.000
v 0.13983 -0.18000 1.01921 0.000 0.443 0.000
v -0.09547 -0.27720 1.04254 0.000 0.424 0.000
v -0.09547 -0.27720 1.00805 0.000 0.443 0.000
v 0.09443 -0.26820 1.01583 0.000 0.443 0.000
v 0.09443 -0.26820 1.05032 0.000 0.412 0.000
v 0.00000 -0.30530 1.01020 0.000 0.443 0.000
v 0.00000 -0.30530 1.04468 0.000 0.424 0.000
v -0.10015 -0.12915 0.09047 0.000 0.361 0.000
v -0.11340 -0.18000 0.04162 0.000 0.431 0.000
v -0.13129 -0.18000 0.09047 0.000 0.353 0.000
v -0.07705 -0.11603 0.04162 0.000 0.431 0.000
v -0.09619 -0.13109 0.13259 0.000 0.443 0.000
v -0.05561 -0.09990 0.09047 0.000 0.400 0.000
v -0.13129 -0.18000 0.14400 0.000 0.455 0.000
v 0.03780 -0.08460 0.04162 0.000 0.463 0.000
v -0.10015 -0.23085 0.09047 0.000 0.361 0.000
v -0.07705 -0.24397 0.04162 0.000 0.431 0.000
v -0.09619 -0.22891 0.13259 0.000 0.443 0.000
v -0.05561 -0.26010 0.09047 0.000 0.400 0.000
v 0.03780 -0.27540 0.04162 0.000 0.463 0.000
v 0.10800 -0.08820 0.00000 0.000 0.925 0.000
v 0.29031 -0.08464 0.00000 0.000 0.925 0.000
v 0.10800 -0.27180 0.00000 0.000 0.925 0.000
v 0.29031 -0.27536 0.00000 0.000 0.925 0.000
v 0.36110 -0.11740 0.00000 0.000 0.925 0.000
v 0.36110 -0.24260 0.00000 0.000 0.925 0.000
v 0.38880 -0.18000 0.00000 0.000 0.925 0.000
v -0.11340 -0.18000 0.00000 0.000 0.949 0.000
v -0.07705 -0.11603 0.00000 0.000 0.949 0.000
v -0.07705 -0.24397 0.00000 0.000 0.949 0.000
v 0.03780 -0.09000 0.00000 0.000 0.949 0.000
v 0.03780 -0.27000 0.00000 0.000 0.949 0.000
v 0.03780 -0.08460 0.04162 0.000 0.976 0.000
v 0.03780 -0.27540 0.04162 0.000 0.976 0.000
v 0.03780 -0.08460 0.04162 0.000 0.976 0.000
v 0.10800 -0.08820 0.00000 0.000 0.925 0.000
v 0.03780 -0.27540 0.04162 0.000 0.976 0.000
v 0.10800 -0.27180 0.00000 0.000 0.925 0.000
v -0.00251 -0.07934 0.06872 0.000 0.443 0.000
v -0.01549 -0.08213 0.09997 0.000 0.424 0.000
v 0.02747 -0.06214 0.10114 0.000 0.349 0.000
v -0.00255 -0.08293 0.13136 0.000 0.361 0.000
v 0.02873 -0.08127 0.14450 0.000 0.329 0.000
v 0.06002 -0.07810 0.13169 0.000 0.361 0.000
v 0.07300 -0.07531 0.10042 0.000 0.424 0.000
v 0.06006 -0.07452 0.06903 0.000 0.443 0.000
v 0.02878 -0.07619 0.05591 0.000 0.443 0.000
v -0.17612 -0.18000 0.65383 0.000 0.000 0.843
v -0.09567 -0.07985 0.77290 0.000 0.000 0.886
v -0.11192 -0.08910 0.62521 0.000 0.000 0.843
v -0.15752 -0.18000 0.76158 0.000 0.000 0.886
v -0.01038 -0.06646 0.75467 0.000 0.000 0.886
v -0.02156 -0.08433 0.59166 0.000 0.000 0.824
v 0.06806 -0.10217 0.73795 0.000 0.000 0.867
v -0.08289 -0.11255 0.45043 0.000 0.000 0.843
v -0.00584 -0.02995 0.84661 0.000 0.000 0.867
v 0.11668 -0.07371 0.85752 0.000 0.000 0.824
v -0.00131 -0.02756 0.92072 0.000 0.000 0.843
v 0.12283 -0.07371 0.93352 0.000 0.000 0.780
v 0.16525 -0.18000 0.85784 0.000 0.000 0.780
v 0.17216 -0.18000 0.93469 0.000 0.000 0.749
v 0.11023 -0.18000 0.72851 0.000 0.000 0.867
v 0.05427 -0.12442 0.57042 0.000 0.000 0.780
v 0.09443 -0.09180 1.01583 0.000 0.000 0.886
v 0.13983 -0.18000 1.01921 0.000 0.000 0.886
v 0.00000 -0.05470 1.01020 0.000 0.000 0.894
v -0.11695 -0.06917 0.90297 0.000 0.000 0.843
v -0.09547 -0.08280 1.00805 0.000 0.000 0.894
v -0.15410 -0.18000 1.00584 0.000 0.000 0.894
v -0.18101 -0.18000 0.88751 0.000 0.000 0.867
v 0.08745 -0.18000 0.56272 0.000 0.000 0.741
v 0.05588 -0.13118 0.37647 0.000 0.000 0.804
v 0.08119 -0.18000 0.37647 0.000 0.000 0.761
v 0.07058 -0.13109 0.28354 0.000 0.000 0.824
v 0.09701 -0.18000 0.28982 0.000 0.000 0.804
v 0.10430 -0.12092 0.20664 0.000 0.000 0.780
v -0.00719 -0.09731 0.26874 0.000 0.000 0.843
v 0.00532 -0.08820 0.16265 0.000 0.000 0.804
v -0.08897 -0.09662 0.17559 0.000 0.000 0.824
v -0.07504 -0.12001 0.26050 0.000 0.000 0.867
v 0.14400 -0.18000 0.22489 0.000 0.000 0.761
v -0.01461 -0.09792 0.37647 0.000 0.000 0.824
v 0.14400 -0.12004 0.16265 0.000 0.000 0.780
v 0.14400 -0.08014 0.09655 0.000 0.000 0.824
v 0.02073 -0.07285 0.08102 0.000 0.000 0.741
v -0.05561 -0.09990 0.09047 0.000 0.000 0.804
v -0.09619 -0.13109 0.13259 0.000 0.000 0.886
v -0.14049 -0.18000 0.18373 0.000 0.000 0.804
v -0.13129 -0.18000 0.14400 0.000 0.000 0.906
v 0.24754 -0.13502 0.16265 0.000 0.000 0.780
v 0.24754 -0.18000 0.21497 0.000 0.000 0.698
v 0.27607 -0.18000 0.18787 0.000 0.000 0.843
v -0.12286 -0.18000 0.45043 0.000 0.000 0.843
v -0.11003 -0.18000 0.25738 0.000 0.000 0.867
v -0.02409 -0.09756 0.04162 0.000 0.000 0.929
v 0.02912 -0.08537 0.02513 0.000 0.000 0.929
v -0.07504 -0.23999 0.26050 0.000 0.000 0.867
v -0.08289 -0.24745 0.45043 0.000 0.000 0.843
v -0.11192 -0.27090 0.62521 0.000 0.000 0.843
v -0.09567 -0.28015 0.77290 0.000 0.000 0.886
v -0.01038 -0.29354 0.75467 0.000 0.000 0.886
v -0.02156 -0.27567 0.59166 0.000 0.000 0.824
v 0.06806 -0.25783 0.73795 0.000 0.000 0.867
v -0.00584 -0.33005 0.84661 0.000 0.000 0.867
v 0.11668 -0.28629 0.85752 0.000 0.000 0.824
v -0.00131 -0.33244 0.92072 0.000 0.000 0.843
v 0.12283 -0.28629 0.93352 0.000 0.000 0.780
v 0.05427 -0.23558 0.57042 0.000 0.000 0.780
v 0.09443 -0.26820 1.01583 0.000 0.000 0.886
v 0.00000 -0.30530 1.01020 0.000 0.000 0.894
v -0.11695 -0.29083 0.90297 0.000 0.000 0.843
v -0.09547 -0.27720 1.00805 0.000 0.000 0.894
v 0.05588 -0.22882 0.37647 0.000 0.000 0.804
v 0.07058 -0.22891 0.28354 0.000 0.000 0.824
v 0.10430 -0.23908 0.20664 0.000 0.000 0.780
v -0.00719 -0.26269 0.26874 0.000 0.000 0.843
v 0.00532 -0.27180 0.16265 0.000 0.000 0.804
v -0.08897 -0.26338 0.17559 0.000 0.000 0.824
v -0.01461 -0.26208 0.37647 0.000 0.000 0.824
v 0.14400 -0.23996 0.16265 0.000 0.000 0.780
v 0.14400 -0.27986 0.09655 0.000 0.000 0.824
v 0.02073 -0.28715 0.08102 0.000 0.000 0.741
v -0.05561 -0.26010 0.09047 0.000 0.000 0.804
v -0.09619 -0.22891 0.13259 0.000 0.000 0.886
v 0.24754 -0.22498 0.16265 0.000 0.000 0.780
v -0.02409 -0.26244 0.04162 0.000 0.000 0.929
v 0.02912 -0.27463 0.02513 0.000 0.000 0.929
v 0.09250 -0.27722 0.04180 0.000 0.000 0.929
v 0.19597 -0.18000 0.20376 0.000 0.000 0.718
v -0.18801 -0.18000 1.12968 0.000 0.000 0.824
v -0.12400 -0.07033 1.12329 0.000 0.000 0.843
v -0.17781 -0.18000 1.08133 0.000 0.000 0.867
v -0.09547 -0.08280 1.04254 0.000 0.000 0.929
v 0.00000 -0.05470 1.04468 0.000 0.000 0.906
v 0.00000 -0.02846 1.11982 0.000 0.000 0.843
v 0.09443 -0.09180 1.05032 0.000 0.000 0.886
v 0.12655 -0.06921 1.13117 0.000 0.000 0.780
v 0.17039 -0.18000 1.08790 0.000 0.000 0.780
v 0.13983 -0.18000 1.05370 0.000 0.000 0.886
v 0.17882 -0.18000 1.14282 0.000 0.000 0.741
v -0.15410 -0.18000 1.04033 0.000 0.000 0.929
v -0.12400 -0.28967 1.12329 0.000 0.000 0.843
v 0.09443 -0.26820 1.05032 0.000 0.000 0.886
v 0.12655 -0.29079 1.13117 0.000 0.000 0.780
v -0.09547 -0.27720 1.04254 0.000 0.000 0.929
v 0.00000 -0.30530 1.04468 0.000 0.000 0.906
v 0.00000 -0.33154 1.11982 0.000 0.000 0.843
v 0.09250 -0.08278 0.04180 0.000 0.000 0.929
v 0.17882 -0.18000 1.14282 0.000 0.000 0.741
v 0.12655 -0.06921 1.13117 0.000 0.000 0.780
v 0.00000 -0.18000 1.09418 0.000 0.000 0.969
v 0.00000 -0.02846 1.11982 0.000 0.000 0.843
v -0.12400 -0.07033 1.12329 0.000 0.000 0.843
v -0.18801 -0.18000 1.12968 0.000 0.000 0.824
v 0.12655 -0.29079 1.13117 0.000 0.000 0.780
v -0.12400 -0.28967 1.12329 0.000 0.000 0.843
v 0.00000 -0.33154 1.11982 0.000 0.000 0.843
v -0.00251 -0.28066 0.06872 0.000 0.443 0.000
v 0.02747 -0.29786 0.10114 0.000 0.349 0.000
v -0.01549 -0.27787 0.09997 0.000 0.424 0.000
v -0.00255 -0.27707 0.13136 0.000 0.361 0.000
v 0.02873 -0.27873 0.14450 0.000 0.329 0.000
v 0.06002 -0.28190 0.13169 0.000 0.361 0.000
v 0.07300 -0.28469 0.10042 0.000 0.424 0.000
v 0.06006 -0.28548 0.06903 0.000 0.443 0.000
v 0.02878 -0.28381 0.05591 0.000 0.443 0.000
v 0.10800 -0.08820 0.00000 0.000 0.929 0.000
v 0.29031 -0.08464 0.04162 0.000 0.843 0.000
v 0.29031 -0.08464 0.00000 0.000 0.906 0.000
v 0.36110 -0.11740 0.00000 0.000 0.906 0.000
v 0.03780 -0.08460 0.04162 0.000 0.886 0.000
v 0.36110 -0.11740 0.04162 0.000 0.824 0.000
v 0.38880 -0.18000 0.04162 0.000 0.824 0.000
v 0.38880 -0.18000 0.00000 0.000 0.906 0.000
v 0.36110 -0.24260 0.00000 0.000 0.906 0.000
v 0.36110 -0.24260 0.04162 0.000 0.824 0.000
v 0.29031 -0.27536 0.04162 0.000 0.843 0.000
v 0.29031 -0.27536 0.00000 0.000 0.906 0.000
v 0.10800 -0.27180 0.00000 0.000 0.929 0.000
v 0.03780 -0.27540 0.04162 0.000 0.886 0.000
v -0.07705 -0.11603 0.00000 0.000 0.929 0.000
v 0.03780 -0.09000 0.00000 0.000 0.929 0.000
v -0.07705 -0.11603 0.04162 0.000 0.867 0.000
v -0.11340 -0.18000 0.00000 0.000 0.929 0.000
v -0.11340 -0.18000 0.04162 0.000 0.867 0.000
v -0.07705 -0.24397 0.04162 0.000 0.867 0.000
v -0.07705 -0.24397 0.00000 0.000 0.929 0.000
v 0.03780 -0.27000 0.00000 0.000 0.929 0.000
v 0.29031 -0.08464 0.04162 0.000 0.443 0.000
v 0.29031 -0.10694 0.11691 0.000 0.361 0.000
v 0.36110 -0.11740 0.04162 0.000 0.424 0.000
v 0.14400 -0.08014 0.09655 0.000 0.412 0.000
v 0.37931 -0.18000 0.12836 0.000 0.353 0.000
v 0.32855 -0.18000 0.17030 0.000 0.341 0.000
v 0.03780 -0.08460 0.04162 0.000 0.463 0.000
v 0.24754 -0.13502 0.16265 0.000 0.392 0.000
v 0.25243 -0.18000 0.17703 0.000 0.400 0.000
v 0.38880 -0.18000 0.04162 0.000 0.424 0.000
v 0.29031 -0.25306 0.11691 0.000 0.361 0.000
v 0.36110 -0.24260 0.04162 0.000 0.424 0.000
v 0.29031 -0.27536 0.04162 0.000 0.443 0.000
v 0.14400 -0.27986 0.09655 0.000 0.412 0.000
v 0.24754 -0.22498 0.16265 0.000 0.392 0.000
v 0.03780 -0.27540 0.04162 0.000 0.463 0.000
v 0.27607 -0.18000 0.18787 0.000 0.000 0.918
v 0.24754 -0.22498 0.16265 0.000 0.000 0.812
v 0.24754 -0.13502 0.16265 0.000 0.000 0.812
v 0.10754 0.05614 1.22231 0.000 0.000 0.886
v 0.14131 0.15804 1.30500 0.000 0.000 0.729
v 0.10754 0.05614 1.30500 0.000 0.000 0.773
v 0.14131 0.15804 1.22231 0.000 0.000 0.886
v 0.09439 0.27401 1.30500 0.000 0.000 0.761
v 0.09439 0.27401 1.22231 0.000 0.000 0.886
v 0.00000 0.01706 1.22231 0.000 0.000 0.886
v 0.00000 0.01706 1.30500 0.000 0.000 0.824
v -0.10655 0.04219 1.22231 0.000 0.000 0.910
v -0.10655 0.04219 1.30500 0.000 0.000 0.824
v -0.03696 0.32429 1.30500 0.000 0.000 0.792
v -0.03696 0.32429 1.22231 0.000 0.000 0.886
v -0.14954 0.23648 1.30500 0.000 0.000 0.816
v -0.14954 0.23648 1.22231 0.000 0.000 0.910
v -0.16831 0.11452 1.30500 0.000 0.000 0.824
v -0.16831 0.11452 1.22231 0.000 0.000 0.910
v 0.09444 0.30478 1.32278 0.000 0.227 0.000
v 0.07999 0.38221 1.13639 0.000 0.224 0.000
v 0.07999 0.43133 1.32278 0.000 0.196 0.000
v 0.07999 0.41258 1.44259 0.000 0.188 0.000
v 0.07006 0.36247 1.47690 0.000 0.212 0.000
v 0.07999 0.31718 1.13639 0.000 0.227 0.000
v -0.10733 0.41258 1.44259 0.000 0.188 0.000
v -0.09740 0.36247 1.47690 0.000 0.212 0.000
v -0.01367 0.44638 1.45109 0.000 0.173 0.000
v 0.07006 0.36247 1.47690 0.000 0.212 0.000
v 0.07999 0.41258 1.44259 0.000 0.188 0.000
v -0.01367 0.46512 1.32278 0.000 0.180 0.000
v -0.10733 0.43133 1.32278 0.000 0.196 0.000
v -0.01367 0.42572 1.13639 0.000 0.212 0.000
v -0.10733 0.38221 1.13639 0.000 0.224 0.000
v -0.01367 0.38221 1.11137 0.000 0.224 0.000
v -0.10733 0.31718 1.13639 0.000 0.227 0.000
v 0.07999 0.38221 1.13639 0.000 0.224 0.000
v 0.07999 0.31718 1.13639 0.000 0.227 0.000
v 0.07999 0.43133 1.32278 0.000 0.196 0.000
v -0.12178 0.30478 1.32278 0.000 0.227 0.000
v -0.10733 0.41258 1.44259 0.000 0.188 0.000
v -0.10733 0.43133 1.32278 0.000 0.196 0.000
v -0.10733 0.38221 1.13639 0.000 0.224 0.000
v -0.10733 0.31718 1.13639 0.000 0.227 0.000
v -0.09740 0.36247 1.47690 0.000 0.212 0.000
v -0.10733 0.31718 1.13639 0.000 0.227 0.000
v 0.07999 0.31718 1.13639 0.000 0.227 0.000
v -0.12178 0.30478 1.32278 0.000 0.227 0.000
v 0.09444 0.30478 1.32278 0.000 0.227 0.000
v -0.09740 0.36247 1.47690 0.000 0.212 0.000
v 0.07006 0.36247 1.47690 0.000 0.212 0.000
v 0.10754 -0.05614 1.22231 0.000 0.000 0.886
v 0.10754 -0.05614 1.30500 0.000 0.000 0.773
v 0.14131 -0.15804 1.30500 0.000 0.000 0.729
v 0.14131 -0.15804 1.22231 0.000 0.000 0.886
v 0.09439 -0.27401 1.30500 0.000 0.000 0.761
v 0.09439 -0.27401 1.22231 0.000 0.000 0.886
v 0.00000 -0.01706 1.22231 0.000 0.000 0.886
v 0.00000 -0.01706 1.30500 0.000 0.000 0.824
v -0.10655 -0.04219 1.22231 0.000 0.000 0.910
v -0.10655 -0.04219 1.30500 0.000 0.000 0.824
v -0.03696 -0.32429 1.30500 0.000 0.000 0.792
v -0.03696 -0.32429 1.22231 0.000 0.000 0.886
v -0.14954 -0.23648 1.30500 0.000 0.000 0.816
v -0.14954 -0.23648 1.22231 0.000 0.000 0.910
v -0.16831 -0.11452 1.30500 0.000 0.000 0.824
v -0.16831 -0.11452 1.22231 0.000 0.000 0.910
v 0.09444 -0.30478 1.32278 0.000 0.227 0.000
v 0.07999 -0.43133 1.32278 0.000 0.196 0.000
v 0.07999 -0.38221 1.13639 0.000 0.224 0.000
v 0.07999 -0.41258 1.44259 0.000 0.188 0.000
v 0.07006 -0.36247 1.47690 0.000 0.212 0.000
v 0.07999 -0.31718 1.13639 0.000 0.227 0.000
v -0.10733 -0.41258 1.44259 0.000 0.188 0.000
v -0.01367 -0.44638 1.45109 0.000 0.173 0.000
v -0.09740 -0.36247 1.47690 0.000 0.212 0.000
v 0.07006 -0.36247 1.47690 0.000 0.212 0.000
v 0.07999 -0.41258 1.44259 0.000 0.188 0.000
v -0.01367 -0.46512 1.32278 0.000 0.180 0.000
v -0.10733 -0.43133 1.32278 0.000 0.196 0.000
v -0.01367 -0.42572 1.13639 0.000 0.212 0.000
v -0.10733 -0.38221 1.13639 0.000 0.224 0.000
v -0.01367 -0.38221 1.11137 0.000 0.224 0.000
v -0.10733 -0.31718 1.13639 0.000 0.227 0.000
v 0.07999 -0.38221 1.13639 0.000 0.224 0.000
v 0.07999 -0.31718 1.13639 0.000 0.227 0.000
v 0.07999 -0.43133 1.32278 0.000 0.196 0.000
v -0.12178 -0.30478 1.32278 0.000 0.227 0.000
v -0.10733 -0.43133 1.32278 0.000 0.196 0.000
v -0.10733 -0.41258 1.44259 0.000 0.188 0.000
v -0.10733 -0.38221 1.13639 0.000 0.224 0.000
v -0.10733 -0.31718 1.13639 0.000 0.227 0.000
v -0.09740 -0.36247 1.47690 0.000 0.212 0.000
v -0.10733 -0.31718 1.13639 0.000 0.227 0.000
v -0.12178 -0.30478 1.32278 0.000 0.227 0.000
v 0.07999 -0.31718 1.13639 0.000 0.227 0.000
v 0.09444 -0.30478 1.32278 0.000 0.227 0.000
v -0.09740 -0.36247 1.47690 0.000 0.212 0.000
v 0.07006 -0.36247 1.47690 0.000 0.212 0.000
v 0.06208 0.02322 1.41496 0.000 0.000 0.443
v 0.09973 0.05614 1.30500 0.000 0.000 0.427
v 0.10736 0.04050 1.48054 0.000 0.000 0.447
v 0.13707 0.08100 1.60830 0.000 0.000 0.455
v 0.13500 0.15804 1.30500 0.000 0.000 0.400
v 0.08828 0.09713 1.04807 0.000 0.000 0.455
v 0.00000 0.06228 1.04807 0.000 0.000 0.463
v 0.00000 0.02464 1.30500 0.000 0.000 0.439
v 0.13094 0.18000 1.04807 0.000 0.000 0.431
v 0.08828 0.26287 1.04807 0.000 0.000 0.443
v 0.09000 0.26287 1.30500 0.000 0.000 0.412
v 0.14773 0.00000 1.59347 0.000 0.000 0.455
v -0.00043 0.29772 1.04807 0.000 0.000 0.455
v -0.03600 0.31500 1.30500 0.000 0.000 0.431
v 0.00000 0.27900 1.56960 0.000 0.000 0.459
v -0.10980 0.24840 1.45620 0.000 0.000 0.455
v -0.14400 0.23400 1.30500 0.000 0.000 0.435
v -0.18360 0.15840 1.38060 0.000 0.000 0.459
v -0.16200 0.11700 1.30500 0.000 0.000 0.447
v -0.14521 0.18000 1.04807 0.000 0.000 0.455
v -0.09012 0.08869 1.04807 0.000 0.000 0.463
v -0.09012 0.27131 1.04807 0.000 0.000 0.455
v -0.18900 0.15840 1.41840 0.000 0.000 0.463
v -0.10655 0.03600 1.36620 0.000 0.000 0.455
v -0.10655 0.04318 1.30500 0.000 0.000 0.447
v -0.19620 0.00000 1.41752 0.000 0.000 0.459
v 0.00000 0.06228 1.04807 0.000 0.000 0.463
v -0.11340 0.24660 1.50120 0.000 0.000 0.459
v -0.11340 0.23940 1.62540 0.000 0.000 0.459
v -0.21600 0.00000 1.47692 0.000 0.000 0.459
v -0.20106 0.15840 1.48140 0.000 0.000 0.463
v -0.22500 0.00000 1.59347 0.000 0.000 0.459
v -0.20106 0.15840 1.60200 0.000 0.000 0.463
v -0.10655 0.00000 1.37493 0.000 0.000 0.447
v 0.00000 0.01928 1.38060 0.000 0.000 0.443
v 0.00000 0.02464 1.30500 0.000 0.000 0.439
v 0.00000 0.00000 1.38542 0.000 0.000 0.443
v -0.20106 -0.15840 1.48140 0.000 0.000 0.463
v -0.20106 -0.15840 1.60200 0.000 0.000 0.463
v -0.18900 -0.15840 1.41840 0.000 0.000 0.463
v -0.10655 -0.03600 1.36620 0.000 0.000 0.455
v -0.18360 -0.15840 1.38060 0.000 0.000 0.459
v -0.10980 -0.24840 1.45620 0.000 0.000 0.455
v -0.14400 -0.23400 1.30500 0.000 0.000 0.435
v -0.16200 -0.11700 1.30500 0.000 0.000 0.447
v -0.10655 -0.04318 1.30500 0.000 0.000 0.447
v -0.14521 -0.18000 1.04807 0.000 0.000 0.455
v -0.09012 -0.08869 1.04807 0.000 0.000 0.463
v -0.09012 -0.27131 1.04807 0.000 0.000 0.455
v -0.03600 -0.31500 1.30500 0.000 0.000 0.431
v 0.00000 -0.27900 1.56960 0.000 0.000 0.459
v 0.00000 -0.06228 1.04807 0.000 0.000 0.463
v 0.09000 -0.26287 1.30500 0.000 0.000 0.412
v -0.00043 -0.29772 1.04807 0.000 0.000 0.455
v 0.08828 -0.26287 1.04807 0.000 0.000 0.443
v 0.13500 -0.15804 1.30500 0.000 0.000 0.400
v 0.13094 -0.18000 1.04807 0.000 0.000 0.431
v 0.08828 -0.09713 1.04807 0.000 0.000 0.455
v 0.09973 -0.05614 1.30500 0.000 0.000 0.427
v 0.13707 -0.08100 1.60830 0.000 0.000 0.455
v 0.10736 -0.04050 1.48054 0.000 0.000 0.447
v 0.06208 -0.02322 1.41496 0.000 0.000 0.443
v 0.00000 -0.06228 1.04807 0.000 0.000 0.463
v 0.00000 -0.02464 1.30500 0.000 0.000 0.439
v 0.11402 0.00000 1.48147 0.000 0.000 0.447
v 0.06208 0.00000 1.41010 0.000 0.000 0.443
v 0.00000 0.01928 1.38060 0.000 0.000 0.443
v 0.00000 0.00000 1.38542 0.000 0.000 0.443
v 0.00000 -0.01928 1.38060 0.000 0.000 0.443
v 0.10890 -0.20084 1.63672 0.000 0.000 0.455
v -0.11340 -0.23940 1.62540 0.000 0.000 0.459
v -0.11340 -0.24660 1.50120 0.000 0.000 0.459
v 0.10890 0.20084 1.63672 0.000 0.000 0.455
v 0.00000 -0.01928 1.38060 0.000 0.000 0.443
v 0.00000 -0.02464 1.30500 0.000 0.000 0.439
v 0.00000 0.22860 1.80000 0.906 0.000 0.000
v -0.09540 0.20340 1.80000 0.906 0.000 0.000
v 0.00012 0.00000 1.90175 1.000 0.000 0.000
v 0.10080 0.19620 1.80000 0.906 0.000 0.000
v -0.15840 0.11700 1.80000 0.906 0.000 0.000
v -0.17460 0.00000 1.80000 0.906 0.000 0.000
v 0.14947 0.14805 1.80011 0.918 0.000 0.000
v -0.15840 -0.11700 1.80000 0.906 0.000 0.000
v -0.09540 -0.20340 1.80000 0.906 0.000 0.000
v 0.00000 -0.22860 1.80000 0.906 0.000 0.000
v 0.10080 -0.19620 1.80000 0.906 0.000 0.000
v 0.14947 -0.14805 1.80011 0.918 0.000 0.000
v 0.17280 0.00000 1.80011 0.408 0.408 0.000
v 0.14947 0.14805 1.80011 0.420 0.420 0.000
v 0.00012 0.00000 1.90175 0.502 0.502 0.000
v 0.22001 0.05326 1.60353 0.369 0.369 0.000
v 0.17484 0.15340 1.67443 0.376 0.376 0.000
v 0.21003 0.16808 1.33384 0.000 0.424 0.000
v 0.23767 0.05117 1.27903 0.000 0.424 0.000
v 0.13707 0.08100 1.60830 0.447 0.447 0.000
v 0.10890 0.20084 1.63672 0.455 0.455 0.000
v 0.14773 0.00000 1.59347 0.455 0.455 0.000
v 0.22001 -0.05326 1.60353 0.369 0.369 0.000
v 0.23767 -0.05117 1.27903 0.000 0.424 0.000
v 0.14947 -0.14805 1.80011 0.420 0.420 0.000
v 0.14947 -0.14805 1.80011 0.420 0.420 0.000
v 0.17484 -0.15340 1.67443 0.376 0.376 0.000
v 0.21003 -0.16808 1.33384 0.000 0.424 0.000
v 0.13707 -0.08100 1.60830 0.455 0.455 0.000
v 0.10890 -0.20084 1.63672 0.455 0.455 0.000
v 0.00000 0.36720 1.33652 0.886 0.000 0.000
v 0.00000 0.29448 1.58639 0.824 0.000 0.000
v 0.12060 0.28980 1.33920 0.867 0.000 0.000
v -0.17649 0.29119 1.32307 0.886 0.000 0.000
v -0.13809 0.28116 1.62990 0.824 0.000 0.000
v -0.00000 0.26388 1.75919 0.824 0.000 0.000
v 0.11937 0.24514 1.66558 0.804 0.000 0.000
v 0.10080 0.19620 1.80000 0.906 0.000 0.000
v 0.00000 0.22860 1.80000 0.906 0.000 0.000
v -0.11386 0.23621 1.75919 0.824 0.000 0.000
v -0.09540 0.20340 1.80000 0.906 0.000 0.000
v 0.21003 0.16808 1.33384 0.843 0.000 0.000
v 0.17484 0.15340 1.67443 0.773 0.000 0.000
v 0.14947 0.14805 1.80011 0.918 0.000 0.000
v 0.00000 0.27900 1.56960 0.918 0.000 0.000
v -0.11340 0.23940 1.62540 0.918 0.000 0.000
v 0.10890 0.20084 1.63672 0.906 0.000 0.000
v -0.20106 0.15840 1.60200 0.929 0.000 0.000
v -0.28596 0.15840 1.31081 0.886 0.000 0.000
v -0.22500 0.00000 1.59347 0.918 0.000 0.000
v -0.31717 0.00000 1.30624 0.867 0.000 0.000
v -0.26859 0.00000 1.59300 0.804 0.000 0.000
v -0.23366 0.15804 1.60798 0.824 0.000 0.000
v -0.18969 0.14751 1.75919 0.824 0.000 0.000
v -0.21294 0.00000 1.75919 0.780 0.000 0.000
v -0.15840 0.11700 1.80000 0.906 0.000 0.000
v -0.17460 0.00000 1.80000 0.906 0.000 0.000
v -0.28596 -0.15840 1.31081 0.886 0.000 0.000
v -0.20106 -0.15840 1.60200 0.929 0.000 0.000
v -0.17649 -0.29119 1.32307 0.886 0.000 0.000
v -0.11340 -0.23940 1.62540 0.918 0.000 0.000
v 0.00000 -0.27900 1.56960 0.918 0.000 0.000
v 0.00000 -0.36720 1.33652 0.886 0.000 0.000
v 0.00000 -0.29448 1.58639 0.824 0.000 0.000
v 0.12060 -0.28980 1.33920 0.867 0.000 0.000
v -0.13809 -0.28116 1.62990 0.824 0.000 0.000
v -0.00000 -0.26388 1.75919 0.824 0.000 0.000
v 0.11937 -0.24514 1.66558 0.804 0.000 0.000
v 0.10080 -0.19620 1.80000 0.906 0.000 0.000
v 0.00000 -0.22860 1.80000 0.906 0.000 0.000
v -0.11386 -0.23621 1.75919 0.824 0.000 0.000
v -0.09540 -0.20340 1.80000 0.906 0.000 0.000
v 0.21003 -0.16808 1.33384 0.843 0.000 0.000
v 0.17484 -0.15340 1.67443 0.773 0.000 0.000
v 0.14947 -0.14805 1.80011 0.918 0.000 0.000
v 0.10890 -0.20084 1.63672 0.906 0.000 0.000
v -0.18969 -0.14751 1.75919 0.824 0.000 0.000
v -0.23366 -0.15804 1.60798 0.824 0.000 0.000
v -0.15840 -0.11700 1.80000 0.906 0.000 0.000
vt 0.81641 0.09766
vt 0.81641 0.18359
vt 0.64453 0.09766
vt 0.64453 0.18359
vt 0.99609 0.18359
vt 0.99609 0.09766
vt 0.81641 0.18359
vt 0.81641 0.09766
vt 0.64453 0.18359
vt 0.64453 0.09766
vt 0.81641 0.18359
vt 0.81641 0.09766
vt 0.81641 0.09766
vt 0.81641 0.18359
vt 0.99609 0.09766
vt 0.99609 0.18359
vt 0.07422 0.14453
vt 0.07422 0.22266
vt 0.00391 0.22266
vt 0.00391 0.11328
vt 0.12891 0.14453
vt 0.07422 0.07422
vt 0.14453 0.22266
vt 0.00391 0.00391
vt 0.07422 0.14453
vt 0.00391 0.11328
vt 0.12891 0.14453
vt 0.07422 0.07422
vt 0.00391 0.00391
vt 0.62891 0.99609
vt 0.73828 0.99609
vt 0.62891 0.90234
vt 0.73828 0.90234
vt 0.62891 0.87109
vt 0.73828 0.87109
vt 0.68359 0.85547
vt 0.68359 0.85547
vt 0.73828 0.87891
vt 0.62891 0.87891
vt 0.62891 0.95703
vt 0.73828 0.95703
vt 0.62891 0.90234
vt 0.73828 0.90234
vt 0.62891 0.85547
vt 0.73828 0.85547
vt 0.62891 0.93359
vt 0.73828 0.93359
vt 0.97266 0.06641
vt 0.91016 0.00391
vt 0.91016 0.08984
vt 0.84766 0.06641
vt 0.82422 0.00391
vt 0.84766 0.06641
vt 0.91016 0.08984
vt 0.97266 0.06641
vt 0.99609 0.00391
vt 0.64453 0.54297
vt 0.55078 0.52734
vt 0.55078 0.65234
vt 0.64453 0.65234
vt 0.48047 0.63672
vt 0.48047 0.51172
vt 0.40234 0.63672
vt 0.54297 0.37891
vt 0.48047 0.70703
vt 0.40234 0.70703
vt 0.48047 0.76172
vt 0.40234 0.76172
vt 0.34766 0.70703
vt 0.34766 0.76172
vt 0.34766 0.63672
vt 0.40234 0.49609
vt 0.40234 0.84766
vt 0.34766 0.84766
vt 0.48047 0.84766
vt 0.55078 0.75391
vt 0.55078 0.84766
vt 0.64453 0.84766
vt 0.64453 0.73047
vt 0.34766 0.48047
vt 0.40234 0.31641
vt 0.34766 0.31641
vt 0.40234 0.22266
vt 0.34766 0.22266
vt 0.38672 0.16016
vt 0.48047 0.22266
vt 0.48047 0.12109
vt 0.55078 0.15234
vt 0.54297 0.22266
vt 0.32422 0.17578
vt 0.48047 0.31641
vt 0.35547 0.11328
vt 0.37109 0.04297
vt 0.48047 0.04297
vt 0.55078 0.06641
vt 0.58984 0.11328
vt 0.62891 0.16797
vt 0.63672 0.13672
vt 0.26953 0.08203
vt 0.24609 0.14453
vt 0.23047 0.11328
vt 0.60547 0.37891
vt 0.60547 0.22266
vt 0.52734 0.01953
vt 0.48047 0.00391
vt 0.41797 0.00391
vt 0.54297 0.22266
vt 0.54297 0.37891
vt 0.55078 0.52734
vt 0.55078 0.65234
vt 0.48047 0.63672
vt 0.48047 0.51172
vt 0.40234 0.63672
vt 0.48047 0.70703
vt 0.40234 0.70703
vt 0.48047 0.76172
vt 0.40234 0.76172
vt 0.40234 0.49609
vt 0.40234 0.84766
vt 0.48047 0.84766
vt 0.55078 0.75391
vt 0.55078 0.84766
vt 0.40234 0.31641
vt 0.40234 0.22266
vt 0.38672 0.16016
vt 0.48047 0.22266
vt 0.48047 0.12109
vt 0.55078 0.15234
vt 0.48047 0.31641
vt 0.35547 0.11328
vt 0.37109 0.04297
vt 0.48047 0.04297
vt 0.55078 0.06641
vt 0.58984 0.11328
vt 0.26953 0.08203
vt 0.52734 0.01953
vt 0.48047 0.00391
vt 0.41797 0.00391
vt 0.29297 0.15234
vt 0.75391 0.99609
vt 0.75391 0.94141
vt 0.87109 0.99609
vt 0.87109 0.88672
vt 0.99609 0.88672
vt 0.99609 0.99609
vt 0.87109 0.88672
vt 0.87109 0.99609
vt 0.75391 0.94141
vt 0.75391 0.88672
vt 0.75391 0.99609
vt 0.75391 0.88672
vt 0.87109 0.99609
vt 0.87109 0.88672
vt 0.87109 0.99609
vt 0.87109 0.88672
vt 0.99609 0.88672
vt 0.99609 0.99609
vt 0.65234 0.41016
vt 0.65234 0.69922
vt 0.65234 0.41016
vt 0.65234 0.41016
vt 0.65234 0.41016
vt 0.65234 0.41016
vt 0.65234 0.41016
vt 0.65234 0.41016
vt 0.65234 0.41016
vt 0.97266 0.06641
vt 0.91016 0.08984
vt 0.91016 0.00391
vt 0.84766 0.06641
vt 0.82422 0.00391
vt 0.84766 0.06641
vt 0.91016 0.08984
vt 0.97266 0.06641
vt 0.99609 0.00391
vt 0.93359 0.09766
vt 0.80078 0.09766
vt 0.80078 0.17578
vt 0.71484 0.09766
vt 0.99609 0.17578
vt 0.71484 0.17578
vt 0.64453 0.17578
vt 0.64453 0.09766
vt 0.71484 0.09766
vt 0.71484 0.17578
vt 0.80078 0.17578
vt 0.80078 0.09766
vt 0.93359 0.09766
vt 0.99609 0.17578
vt 0.81641 0.09766
vt 0.99609 0.09766
vt 0.81641 0.17578
vt 0.64453 0.09766
vt 0.64453 0.17578
vt 0.81641 0.17578
vt 0.81641 0.09766
vt 0.99609 0.09766
vt 0.18359 0.00391
vt 0.12891 0.00391
vt 0.18359 0.06641
vt 0.28516 0.05078
vt 0.08203 0.06641
vt 0.12891 0.11328
vt 0.37891 0.00391
vt 0.21484 0.11328
vt 0.19141 0.14453
vt 0.08203 0.00391
vt 0.18359 0.06641
vt 0.12891 0.00391
vt 0.18359 0.00391
vt 0.28516 0.05078
vt 0.21484 0.11328
vt 0.37891 0.00391
vt 0.23047 0.14453
vt 0.15234 0.22266
vt 0.30859 0.22266
vt 0.81641 0.09766
vt 0.64453 0.09766
vt 0.81641 0.18359
vt 0.64453 0.18359
vt 0.99609 0.18359
vt 0.99609 0.09766
vt 0.81641 0.18359
vt 0.81641 0.09766
vt 0.64453 0.18359
vt 0.64453 0.09766
vt 0.81641 0.18359
vt 0.81641 0.09766
vt 0.81641 0.09766
vt 0.81641 0.18359
vt 0.99609 0.09766
vt 0.99609 0.18359
vt 0.07422 0.14453
vt 0.00391 0.22266
vt 0.07422 0.22266
vt 0.00391 0.11328
vt 0.12891 0.14453
vt 0.07422 0.07422
vt 0.14453 0.22266
vt 0.00391 0.00391
vt 0.07422 0.14453
vt 0.00391 0.11328
vt 0.12891 0.14453
vt 0.07422 0.07422
vt 0.00391 0.00391
vt 0.62891 0.99609
vt 0.62891 0.90234
vt 0.73828 0.99609
vt 0.73828 0.90234
vt 0.62891 0.87109
vt 0.73828 0.87109
vt 0.68359 0.85547
vt 0.68359 0.85547
vt 0.62891 0.87891
vt 0.73828 0.87891
vt 0.62891 0.95703
vt 0.73828 0.95703
vt 0.62891 0.90234
vt 0.73828 0.90234
vt 0.62891 0.85547
vt 0.62891 0.93359
vt 0.73828 0.85547
vt 0.73828 0.93359
vt 0.97266 0.06641
vt 0.91016 0.08984
vt 0.91016 0.00391
vt 0.84766 0.06641
vt 0.82422 0.00391
vt 0.84766 0.06641
vt 0.91016 0.08984
vt 0.97266 0.06641
vt 0.99609 0.00391
vt 0.64453 0.54297
vt 0.55078 0.65234
vt 0.55078 0.52734
vt 0.64453 0.65234
vt 0.48047 0.63672
vt 0.48047 0.51172
vt 0.40234 0.63672
vt 0.54297 0.37891
vt 0.48047 0.70703
vt 0.40234 0.70703
vt 0.48047 0.76172
vt 0.40234 0.76172
vt 0.34766 0.70703
vt 0.34766 0.76172
vt 0.34766 0.63672
vt 0.40234 0.49609
vt 0.40234 0.84766
vt 0.34766 0.84766
vt 0.48047 0.84766
vt 0.55078 0.75391
vt 0.55078 0.84766
vt 0.64453 0.84766
vt 0.64453 0.73047
vt 0.34766 0.48047
vt 0.40234 0.31641
vt 0.34766 0.31641
vt 0.40234 0.22266
vt 0.34766 0.22266
vt 0.38672 0.16016
vt 0.48047 0.22266
vt 0.48047 0.12109
vt 0.55078 0.15234
vt 0.54297 0.22266
vt 0.32422 0.17578
vt 0.48047 0.31641
vt 0.35547 0.11328
vt 0.37109 0.04297
vt 0.48047 0.04297
vt 0.55078 0.06641
vt 0.58984 0.11328
vt 0.62891 0.16797
vt 0.63672 0.13672
vt 0.26953 0.08203
vt 0.24609 0.14453
vt 0.23047 0.11328
vt 0.60547 0.37891
vt 0.60547 0.22266
vt 0.52734 0.01953
vt 0.48047 0.00391
vt 0.54297 0.22266
vt 0.54297 0.37891
vt 0.55078 0.52734
vt 0.55078 0.65234
vt 0.48047 0.63672
vt 0.48047 0.51172
vt 0.40234 0.63672
vt 0.48047 0.70703
vt 0.40234 0.70703
vt 0.48047 0.76172
vt 0.40234 0.76172
vt 0.40234 0.49609
vt 0.40234 0.84766
vt 0.48047 0.84766
vt 0.55078 0.75391
vt 0.55078 0.84766
vt 0.40234 0.31641
vt 0.40234 0.22266
vt 0.38672 0.16016
vt 0.48047 0.22266
vt 0.48047 0.12109
vt 0.55078 0.15234
vt 0.48047 0.31641
vt 0.35547 0.11328
vt 0.37109 0.04297
vt 0.48047 0.04297
vt 0.55078 0.06641
vt 0.58984 0.11328
vt 0.26953 0.08203
vt 0.52734 0.01953
vt 0.48047 0.00391
vt 0.41797 0.00391
vt 0.29297 0.15234
vt 0.75391 0.99609
vt 0.87109 0.99609
vt 0.75391 0.94141
vt 0.87109 0.88672
vt 0.99609 0.88672
vt 0.99609 0.99609
vt 0.87109 0.88672
vt 0.87109 0.99609
vt 0.75391 0.94141
vt 0.75391 0.88672
vt 0.75391 0.99609
vt 0.75391 0.88672
vt 0.87109 0.99609
vt 0.87109 0.88672
vt 0.87109 0.99609
vt 0.87109 0.88672
vt 0.99609 0.88672
vt 0.99609 0.99609
vt 0.41797 0.00391
vt 0.65234 0.41016
vt 0.65234 0.41016
vt 0.65234 0.69922
vt 0.65234 0.41016
vt 0.65234 0.41016
vt 0.65234 0.41016
vt 0.65234 0.41016
vt 0.65234 0.41016
vt 0.65234 0.41016
vt 0.97266 0.06641
vt 0.91016 0.00391
vt 0.91016 0.08984
vt 0.84766 0.06641
vt 0.82422 0.00391
vt 0.84766 0.06641
vt 0.91016 0.08984
vt 0.97266 0.06641
vt 0.99609 0.00391
vt 0.93359 0.09766
vt 0.80078 0.17578
vt 0.80078 0.09766
vt 0.71484 0.09766
vt 0.99609 0.17578
vt 0.71484 0.17578
vt 0.64453 0.17578
vt 0.64453 0.09766
vt 0.71484 0.09766
vt 0.71484 0.17578
vt 0.80078 0.17578
vt 0.80078 0.09766
vt 0.93359 0.09766
vt 0.99609 0.17578
vt 0.81641 0.09766
vt 0.99609 0.09766
vt 0.81641 0.17578
vt 0.64453 0.09766
vt 0.64453 0.17578
vt 0.81641 0.17578
vt 0.81641 0.09766
vt 0.99609 0.09766
vt 0.18359 0.00391
vt 0.18359 0.06641
vt 0.12891 0.00391
vt 0.28516 0.05078
vt 0.08203 0.06641
vt 0.12891 0.11328
vt 0.37891 0.00391
vt 0.21484 0.11328
vt 0.19141 0.14453
vt 0.08203 0.00391
vt 0.18359 0.06641
vt 0.12891 0.00391
vt 0.18359 0.00391
vt 0.28516 0.05078
vt 0.21484 0.11328
vt 0.37891 0.00391
vt 0.23047 0.14453
vt 0.30859 0.22266
vt 0.15234 0.22266
vt 0.78516 0.09766
vt 0.64453 0.18359
vt 0.78516 0.18359
vt 0.64453 0.09766
vt 0.78516 0.18359
vt 0.78516 0.09766
vt 0.99609 0.09766
vt 0.99609 0.18359
vt 0.87109 0.09766
vt 0.87109 0.18359
vt 0.99609 0.18359
vt 0.99609 0.09766
vt 0.64453 0.18359
vt 0.64453 0.09766
vt 0.73047 0.18359
vt 0.73047 0.09766
vt 0.67578 0.00391
vt 0.81641 0.06641
vt 0.67578 0.08984
vt 0.57422 0.07422
vt 0.55859 0.03516
vt 0.81641 0.01953
vt 0.69141 0.40234
vt 0.62891 0.40234
vt 0.69141 0.29297
vt 0.62891 0.19141
vt 0.69141 0.19141
vt 0.78516 0.29297
vt 0.78516 0.40234
vt 0.92578 0.29297
vt 0.93359 0.40234
vt 0.95703 0.29297
vt 0.99609 0.40234
vt 0.93359 0.19141
vt 0.99609 0.19141
vt 0.78516 0.19141
vt 0.67578 0.00391
vt 0.57422 0.07422
vt 0.67578 0.08984
vt 0.81641 0.06641
vt 0.81641 0.01953
vt 0.55859 0.03516
vt 0.62109 0.99609
vt 0.62109 0.85547
vt 0.48047 0.99609
vt 0.48047 0.85547
vt 0.34766 0.99609
vt 0.34766 0.85547
vt 0.78516 0.09766
vt 0.78516 0.18359
vt 0.64453 0.18359
vt 0.64453 0.09766
vt 0.78516 0.18359
vt 0.78516 0.09766
vt 0.99609 0.09766
vt 0.99609 0.18359
vt 0.87109 0.09766
vt 0.87109 0.18359
vt 0.99609 0.18359
vt 0.99609 0.09766
vt 0.64453 0.18359
vt 0.64453 0.09766
vt 0.73047 0.18359
vt 0.73047 0.09766
vt 0.67578 0.00391
vt 0.67578 0.08984
vt 0.81641 0.06641
vt 0.57422 0.07422
vt 0.55859 0.03516
vt 0.81641 0.01953
vt 0.69141 0.40234
vt 0.69141 0.29297
vt 0.62891 0.40234
vt 0.62891 0.19141
vt 0.69141 0.19141
vt 0.78516 0.29297
vt 0.78516 0.40234
vt 0.92578 0.29297
vt 0.93359 0.40234
vt 0.95703 0.29297
vt 0.99609 0.40234
vt 0.93359 0.19141
vt 0.99609 0.19141
vt 0.78516 0.19141
vt 0.67578 0.00391
vt 0.67578 0.08984
vt 0.57422 0.07422
vt 0.81641 0.06641
vt 0.81641 0.01953
vt 0.55859 0.03516
vt 0.62109 0.99609
vt 0.48047 0.99609
vt 0.62109 0.85547
vt 0.48047 0.85547
vt 0.34766 0.99609
vt 0.34766 0.85547
vt 0.77734 0.83984
vt 0.87109 0.82422
vt 0.73828 0.81641
vt 0.65234 0.77734
vt 0.87109 0.76172
vt 0.99609 0.82422
vt 0.99609 0.87891
vt 0.87109 0.87891
vt 0.99609 0.76172
vt 0.99609 0.71484
vt 0.87109 0.71484
vt 0.65234 0.83984
vt 0.99609 0.65234
vt 0.87109 0.64453
vt 0.73047 0.64453
vt 0.78516 0.59766
vt 0.87109 0.56641
vt 0.82422 0.53516
vt 0.87109 0.51172
vt 0.99609 0.53516
vt 0.99609 0.46484
vt 0.99609 0.60547
vt 0.79297 0.53516
vt 0.82422 0.46484
vt 0.87109 0.46484
vt 0.79297 0.46484
vt 0.99609 0.41016
vt 0.76172 0.59766
vt 0.71484 0.59766
vt 0.76172 0.46484
vt 0.76172 0.53516
vt 0.71484 0.46484
vt 0.71484 0.53516
vt 0.80859 0.44141
vt 0.82422 0.41016
vt 0.87109 0.41016
vt 0.80859 0.41016
vt 0.76172 0.53516
vt 0.71484 0.53516
vt 0.79297 0.53516
vt 0.82422 0.46484
vt 0.82422 0.53516
vt 0.78516 0.59766
vt 0.87109 0.56641
vt 0.87109 0.51172
vt 0.87109 0.46484
vt 0.99609 0.53516
vt 0.99609 0.46484
vt 0.99609 0.60547
vt 0.87109 0.64453
vt 0.73047 0.64453
vt 0.99609 0.41016
vt 0.87109 0.71484
vt 0.99609 0.65234
vt 0.99609 0.71484
vt 0.87109 0.76172
vt 0.99609 0.76172
vt 0.99609 0.82422
vt 0.87109 0.82422
vt 0.65234 0.77734
vt 0.73828 0.81641
vt 0.77734 0.83984
vt 0.99609 0.87891
vt 0.87109 0.87891
vt 0.73047 0.83984
vt 0.76953 0.85547
vt 0.80859 0.87891
vt 0.78516 0.87891
vt 0.80859 0.87891
vt 0.65234 0.71484
vt 0.71484 0.59766
vt 0.76172 0.59766
vt 0.65234 0.71484
vt 0.82422 0.41016
vt 0.87109 0.41016
vt 0.33984 0.23047
vt 0.33984 0.23047
vt 0.33984 0.64453
vt 0.33984 0.23047
vt 0.33984 0.23047
vt 0.33984 0.23047
vt 0.33984 0.23047
vt 0.33984 0.23047
vt 0.33984 0.23047
vt 0.33984 0.23047
vt 0.33984 0.23047
vt 0.33984 0.23047
vt 0.16797 0.64453
vt 0.00391 0.64453
vt 0.16797 0.40234
vt 0.11328 0.44922
vt 0.00391 0.51953
vt 0.00391 0.23047
vt 0.09766 0.23047
vt 0.11328 0.41797
vt 0.00391 0.45703
vt 0.16797 0.40234
vt 0.22266 0.44922
vt 0.23828 0.23047
vt 0.00391 0.64453
vt 0.33203 0.64453
vt 0.33203 0.51953
vt 0.33203 0.23047
vt 0.22266 0.41797
vt 0.33203 0.45703
vt 0.33984 0.87891
vt 0.19141 0.87891
vt 0.33984 0.75391
vt 0.33984 0.99609
vt 0.15234 0.99609
vt 0.04297 0.87891
vt 0.12891 0.75391
vt 0.00391 0.75391
vt 0.00391 0.87891
vt 0.04297 0.99609
vt 0.00391 0.99609
vt 0.33984 0.65234
vt 0.12109 0.65234
vt 0.00391 0.65234
vt 0.19141 0.87891
vt 0.15234 0.99609
vt 0.12891 0.75391
vt 0.16797 0.87109
vt 0.33984 0.87109
vt 0.16797 0.73828
vt 0.33984 0.73828
vt 0.16797 0.73828
vt 0.16797 0.87109
vt 0.04297 0.87109
vt 0.04297 0.73828
vt 0.00391 0.86328
vt 0.00391 0.73828
vt 0.33984 0.87109
vt 0.16797 0.87109
vt 0.33984 0.99609
vt 0.15234 0.99609
vt 0.19141 0.87891
vt 0.33984 0.87891
vt 0.19141 0.87891
vt 0.33984 0.75391
vt 0.15234 0.99609
vt 0.04297 0.87891
vt 0.12891 0.75391
vt 0.00391 0.75391
vt 0.00391 0.87891
vt 0.04297 0.99609
vt 0.00391 0.99609
vt 0.33984 0.65234
vt 0.12109 0.65234
vt 0.00391 0.65234
vt 0.12891 0.75391
vt 0.04297 0.87109
vt 0.16797 0.87109
vt 0.00391 0.86328
usemtl m0
f 1/1 2/2 3/3
f 2/2 4/4 3/3
f 5/5 2/2 1/1
f 6/6 5/5 1/1
f 5/5 6/6 7/7
f 6/6 8/8 7/7
f 9/9 7/7 8/8
f 10/10 9/9 8/8
f 11/11 3/3 4/4
f 12/12 3/3 11/11
f 10/10 13/13 9/9
f 9/9 13/13 14/14
f 15/15 14/14 13/13
f 16/16 14/14 15/15
f 15/15 12/12 16/16
f 16/16 12/12 11/11
f 17/17 18/18 19/19
f 19/19 20/20 17/17
f 17/17 21/21 18/18
f 22/22 21/21 17/17
f 20/20 22/22 17/17
f 21/21 23/23 18/18
f 24/24 22/22 20/20
f 25/25 19/19 18/18
f 19/19 25/25 26/26
f 25/25 18/18 27/27
f 27/27 18/18 23/23
f 28/28 25/25 27/27
f 26/26 25/25 28/28
f 29/29 26/26 28/28
f 30/30 31/31 32/32
f 32/32 31/31 33/33
f 32/32 33/33 34/34
f 34/34 33/33 35/35
f 34/34 35/35 36/36
f 37/37 38/38 39/39
f 39/39 38/38 40/40
f 40/40 38/38 41/41
f 40/40 41/41 42/42
f 42/42 41/41 43/43
f 44/44 45/45 46/46
f 46/46 45/45 47/47
f 48/48 49/49 50/50
f 50/50 49/49 51/51
f 51/51 49/49 52/52
f 52/52 49/49 53/53
f 53/53 49/49 54/54
f 54/54 49/49 55/55
f 55/55 49/49 56/56
f 56/56 49/49 48/48
f 57/57 58/58 59/59
f 60/60 57/57 59/59
f 58/58 61/61 59/59
f 58/58 62/62 61/61
f 63/63 61/61 62/62
f 58/58 64/64 62/62
f 65/65 61/61 63/63
f 59/59 61/61 65/65
f 63/63 66/66 65/65
f 67/67 65/65 66/66
f 66/66 68/68 67/67
f 66/66 69/69 68/68
f 69/69 70/70 68/68
f 66/66 63/63 71/71
f 71/71 69/69 66/66
f 71/71 63/63 72/72
f 63/63 62/62 72/72
f 68/68 70/70 73/73
f 70/70 74/74 73/73
f 73/73 75/75 68/68
f 75/75 67/67 68/68
f 76/76 65/65 67/67
f 65/65 76/76 59/59
f 67/67 75/75 77/77
f 67/67 77/77 76/76
f 76/76 77/77 78/78
f 78/78 79/79 76/76
f 79/79 59/59 76/76
f 60/60 59/59 79/79
f 72/72 80/80 71/71
f 81/81 80/80 72/72
f 81/81 82/82 80/80
f 83/83 82/82 81/81
f 83/83 84/84 82/82
f 85/85 84/84 83/83
f 86/86 85/85 83/83
f 86/86 87/87 85/85
f 88/88 87/87 86/86
f 86/86 89/89 88/88
f 84/84 85/85 90/90
f 91/91 89/89 86/86
f 91/91 86/86 83/83
f 91/91 83/83 81/81
f 87/87 92/92 85/85
f 90/90 85/85 92/92
f 92/92 87/87 93/93
f 87/87 94/94 93/93
f 94/94 87/87 95/95
f 87/87 88/88 95/95
f 96/96 95/95 88/88
f 96/96 88/88 97/97
f 97/97 98/98 96/96
f 93/93 99/99 92/92
f 100/100 92/92 99/99
f 99/99 101/101 100/100
f 64/64 89/89 91/91
f 102/102 89/89 64/64
f 102/102 103/103 89/89
f 102/102 64/64 58/58
f 57/57 102/102 58/58
f 64/64 91/91 62/62
f 94/94 95/95 104/104
f 104/104 105/105 94/94
f 105/105 106/106 94/94
f 88/88 103/103 97/97
f 89/89 103/103 88/88
f 94/94 106/106 93/93
f 102/102 107/107 103/103
f 102/102 108/108 107/107
f 57/57 109/109 102/102
f 102/102 109/109 108/108
f 57/57 110/110 109/109
f 60/60 110/110 57/57
f 109/109 110/110 111/111
f 109/109 111/111 112/112
f 109/109 112/112 108/108
f 113/113 112/112 111/111
f 114/114 113/113 111/111
f 110/110 114/114 111/111
f 113/113 114/114 115/115
f 116/116 115/115 114/114
f 115/115 116/116 117/117
f 115/115 117/117 69/69
f 69/69 117/117 70/70
f 115/115 71/71 113/113
f 71/71 115/115 69/69
f 71/71 118/118 113/113
f 113/113 118/118 112/112
f 117/117 119/119 70/70
f 70/70 119/119 74/74
f 119/119 117/117 120/120
f 120/120 117/117 116/116
f 114/114 110/110 121/121
f 121/121 116/116 114/114
f 116/116 122/122 120/120
f 116/116 121/121 122/122
f 121/121 78/78 122/122
f 78/78 121/121 79/79
f 79/79 121/121 110/110
f 60/60 79/79 110/110
f 118/118 71/71 80/80
f 123/123 118/118 80/80
f 123/123 80/80 82/82
f 124/124 123/123 82/82
f 124/124 82/82 84/84
f 125/125 124/124 84/84
f 126/126 124/124 125/125
f 126/126 125/125 127/127
f 128/128 126/126 127/127
f 126/126 128/128 107/107
f 84/84 90/90 125/125
f 129/129 126/126 107/107
f 129/129 124/124 126/126
f 129/129 123/123 124/124
f 127/127 125/125 130/130
f 90/90 130/130 125/125
f 130/130 131/131 127/127
f 127/127 131/131 132/132
f 132/132 133/133 127/127
f 127/127 133/133 128/128
f 134/134 128/128 133/133
f 134/134 97/97 128/128
f 97/97 134/134 98/98
f 131/131 130/130 135/135
f 100/100 135/135 130/130
f 135/135 100/100 101/101
f 108/108 129/129 107/107
f 108/108 112/112 129/129
f 132/132 136/136 133/133
f 136/136 132/132 137/137
f 137/137 132/132 138/138
f 132/132 131/131 138/138
f 112/112 118/118 129/129
f 129/129 118/118 123/123
f 100/100 139/139 92/92
f 139/139 90/90 92/92
f 100/100 130/130 139/139
f 139/139 130/130 90/90
f 140/140 141/141 142/142
f 143/143 142/142 141/141
f 142/142 143/143 144/144
f 142/142 144/144 145/145
f 145/145 144/144 146/146
f 146/146 147/147 145/145
f 148/148 147/147 146/146
f 149/149 148/148 146/146
f 147/147 148/148 150/150
f 143/143 141/141 151/151
f 140/140 152/152 141/141
f 149/149 153/153 148/148
f 154/154 150/150 148/148
f 148/148 153/153 154/154
f 155/155 141/141 152/152
f 155/155 151/151 141/141
f 152/152 156/156 155/155
f 152/152 157/157 156/156
f 157/157 153/153 156/156
f 153/153 157/157 154/154
f 62/62 91/91 72/72
f 91/91 81/81 72/72
f 158/158 159/159 160/160
f 160/160 159/159 161/161
f 161/161 159/159 162/162
f 162/162 159/159 163/163
f 158/158 164/164 159/159
f 165/165 163/163 159/159
f 166/166 165/165 159/159
f 164/164 166/166 159/159
f 167/167 168/168 169/169
f 168/168 170/170 169/169
f 170/170 171/171 169/169
f 171/171 172/172 169/169
f 172/172 173/173 169/169
f 173/173 174/174 169/169
f 174/174 175/175 169/169
f 175/175 167/167 169/169
f 128/128 97/97 103/103
f 107/107 128/128 103/103
f 176/176 177/177 178/178
f 177/177 179/179 178/178
f 178/178 180/180 176/176
f 178/178 179/179 181/181
f 181/181 179/179 182/182
f 179/179 183/183 182/182
f 184/184 182/182 183/183
f 185/185 182/182 184/184
f 186/186 185/185 184/184
f 187/187 186/186 184/184
f 188/188 186/186 187/187
f 186/186 188/188 189/189
f 190/190 191/191 180/180
f 192/192 190/190 180/180
f 192/192 193/193 190/190
f 194/194 193/193 192/192
f 194/194 195/195 193/193
f 195/195 189/189 196/196
f 195/195 196/196 193/193
f 196/196 189/189 197/197
f 198/198 199/199 200/200
f 201/201 198/198 200/200
f 202/202 200/200 199/199
f 200/200 202/202 203/203
f 204/204 198/198 201/201
f 203/203 205/205 200/200
f 205/205 201/201 200/200
f 203/203 206/206 205/205
f 199/199 207/207 202/202
f 208/208 203/203 202/202
f 202/202 209/209 208/208
f 209/209 202/202 207/207
f 210/210 208/208 209/209
f 211/211 208/208 210/210
f 203/203 212/212 206/206
f 203/203 208/208 212/212
f 212/212 208/208 211/211
f 213/213 211/211 210/210
f 214/214 215/215 216/216
f 217/217 218/218 219/219
f 219/219 218/218 220/220
f 221/221 217/217 219/219
f 222/222 217/217 221/221
f 221/221 223/223 222/222
f 222/222 223/223 224/224
f 225/225 224/224 223/223
f 226/226 224/224 225/225
f 227/227 220/220 218/218
f 228/228 227/227 218/218
f 226/226 225/225 229/229
f 225/225 230/230 229/229
f 231/231 229/229 230/230
f 232/232 231/231 230/230
f 231/231 232/232 228/228
f 232/232 227/227 228/228
f 233/233 234/234 235/235
f 234/234 233/233 236/236
f 233/233 235/235 237/237
f 238/238 233/233 237/237
f 236/236 233/233 238/238
f 237/237 235/235 239/239
f 240/240 236/236 238/238
f 241/241 235/235 234/234
f 234/234 242/242 241/241
f 241/241 243/243 235/235
f 243/243 239/239 235/235
f 244/244 243/243 241/241
f 242/242 244/244 241/241
f 245/245 244/244 242/242
f 246/246 247/247 248/248
f 247/247 249/249 248/248
f 247/247 250/250 249/249
f 250/250 251/251 249/249
f 250/250 252/252 251/251
f 253/253 254/254 255/255
f 254/254 256/256 255/255
f 256/256 257/257 255/255
f 256/256 258/258 257/257
f 258/258 259/259 257/257
f 260/260 261/261 262/262
f 261/261 263/263 262/262
f 264/264 265/265 266/266
f 265/265 267/267 266/266
f 267/267 268/268 266/266
f 268/268 269/269 266/266
f 269/269 270/270 266/266
f 270/270 271/271 266/266
f 271/271 272/272 266/266
f 272/272 264/264 266/266
f 273/273 274/274 275/275
f 276/276 274/274 273/273
f 275/275 274/274 277/277
f 275/275 277/277 278/278
f 279/279 278/278 277/277
f 275/275 278/278 280/280
f 281/281 279/279 277/277
f 274/274 281/281 277/277
f 279/279 281/281 282/282
f 283/283 282/282 281/281
f 282/282 283/283 284/284
f 282/282 284/284 285/285
f 285/285 284/284 286/286
f 282/282 287/287 279/279
f 287/287 282/282 285/285
f 287/287 288/288 279/279
f 279/279 288/288 278/278
f 284/284 289/289 286/286
f 286/286 289/289 290/290
f 289/289 284/284 291/291
f 291/291 284/284 283/283
f 292/292 283/283 281/281
f 281/281 274/274 292/292
f 283/283 293/293 291/291
f 283/283 292/292 293/293
f 292/292 294/294 293/293
f 294/294 292/292 295/295
f 295/295 292/292 274/274
f 276/276 295/295 274/274
f 288/288 287/287 296/296
f 297/297 288/288 296/296
f 297/297 296/296 298/298
f 299/299 297/297 298/298
f 299/299 298/298 300/300
f 301/301 299/299 300/300
f 302/302 299/299 301/301
f 302/302 301/301 303/303
f 304/304 302/302 303/303
f 302/302 304/304 305/305
f 300/300 306/306 301/301
f 307/307 302/302 305/305
f 307/307 299/299 302/302
f 307/307 297/297 299/299
f 303/303 301/301 308/308
f 306/306 308/308 301/301
f 308/308 309/309 303/303
f 303/303 309/309 310/310
f 310/310 311/311 303/303
f 303/303 311/311 304/304
f 312/312 304/304 311/311
f 312/312 313/313 304/304
f 313/313 312/312 314/314
f 309/309 308/308 315/315
f 316/316 315/315 308/308
f 315/315 316/316 317/317
f 280/280 307/307 305/305
f 318/318 280/280 305/305
f 318/318 305/305 319/319
f 318/318 275/275 280/280
f 273/273 275/275 318/318
f 280/280 278/278 307/307
f 310/310 320/320 311/311
f 320/320 310/310 321/321
f 304/304 313/313 319/319
f 305/305 304/304 319/319
f 278/278 288/288 307/307
f 307/307 288/288 297/297
f 318/318 319/319 322/322
f 318/318 322/322 323/323
f 273/273 318/318 324/324
f 318/318 323/323 324/324
f 273/273 324/324 325/325
f 276/276 273/273 325/325
f 324/324 326/326 325/325
f 324/324 327/327 326/326
f 324/324 323/323 327/327
f 328/328 326/326 327/327
f 329/329 326/326 328/328
f 325/325 326/326 329/329
f 328/328 330/330 329/329
f 331/331 329/329 330/330
f 330/330 332/332 331/331
f 330/330 285/285 332/332
f 285/285 286/286 332/332
f 330/330 328/328 287/287
f 287/287 285/285 330/330
f 287/287 328/328 333/333
f 328/328 327/327 333/333
f 332/332 286/286 334/334
f 286/286 290/290 334/334
f 334/334 335/335 332/332
f 335/335 331/331 332/332
f 329/329 336/336 325/325
f 336/336 329/329 331/331
f 331/331 335/335 337/337
f 331/331 337/337 336/336
f 336/336 337/337 294/294
f 294/294 295/295 336/336
f 295/295 325/325 336/336
f 276/276 325/325 295/295
f 333/333 296/296 287/287
f 338/338 296/296 333/333
f 338/338 298/298 296/296
f 339/339 298/298 338/338
f 339/339 300/300 298/298
f 340/340 300/300 339/339
f 341/341 340/340 339/339
f 341/341 342/342 340/340
f 343/343 342/342 341/341
f 341/341 322/322 343/343
f 300/300 340/340 306/306
f 344/344 322/322 341/341
f 344/344 341/341 339/339
f 344/344 339/339 338/338
f 342/342 345/345 340/340
f 306/306 340/340 345/345
f 345/345 342/342 346/346
f 342/342 347/347 346/346
f 347/347 342/342 348/348
f 342/342 343/343 348/348
f 349/349 348/348 343/343
f 349/349 343/343 313/313
f 313/313 314/314 349/349
f 346/346 350/350 345/345
f 316/316 345/345 350/350
f 350/350 317/317 316/316
f 323/323 322/322 344/344
f 323/323 344/344 327/327
f 347/347 348/348 351/351
f 351/351 352/352 347/347
f 352/352 353/353 347/347
f 347/347 353/353 346/346
f 327/327 344/344 333/333
f 316/316 354/354 345/345
f 316/316 308/308 354/354
f 354/354 308/308 306/306
f 354/354 306/306 345/345
f 343/343 319/319 313/313
f 322/322 319/319 343/343
f 344/344 338/338 333/333
f 355/355 356/356 357/357
f 358/358 357/357 356/356
f 356/356 359/359 358/358
f 356/356 360/360 359/359
f 360/360 361/361 359/359
f 361/361 360/360 362/362
f 363/363 361/361 362/362
f 364/364 361/361 363/363
f 362/362 365/365 363/363
f 358/358 366/366 357/357
f 355/355 357/357 367/367
f 364/364 363/363 368/368
f 369/369 363/363 365/365
f 363/363 369/369 368/368
f 370/370 367/367 357/357
f 370/370 357/357 366/366
f 367/367 370/370 371/371
f 367/367 371/371 372/372
f 372/372 371/371 368/368
f 368/368 369/369 372/372
f 321/321 310/310 373/373
f 310/310 309/309 373/373
f 374/374 375/375 376/376
f 375/375 377/377 376/376
f 377/377 378/378 376/376
f 378/378 379/379 376/376
f 374/374 376/376 380/380
f 381/381 376/376 379/379
f 382/382 376/376 381/381
f 380/380 376/376 382/382
f 383/383 384/384 385/385
f 385/385 384/384 386/386
f 386/386 384/384 387/387
f 387/387 384/384 388/388
f 388/388 384/384 389/389
f 389/389 384/384 390/390
f 390/390 384/384 391/391
f 391/391 384/384 383/383
f 392/392 393/393 394/394
f 394/394 393/393 395/395
f 393/393 392/392 396/396
f 393/393 397/397 395/395
f 397/397 398/398 395/395
f 395/395 398/398 399/399
f 400/400 399/399 398/398
f 401/401 400/400 398/398
f 402/402 400/400 401/401
f 403/403 400/400 402/402
f 404/404 403/403 402/402
f 402/402 405/405 404/404
f 406/406 396/396 407/407
f 408/408 396/396 406/406
f 408/408 406/406 409/409
f 410/410 408/408 409/409
f 410/410 409/409 411/411
f 411/411 412/412 405/405
f 411/411 409/409 412/412
f 412/412 413/413 405/405
f 414/414 415/415 416/416
f 417/417 415/415 414/414
f 418/418 416/416 415/415
f 415/415 419/419 418/418
f 420/420 417/417 414/414
f 419/419 415/415 421/421
f 421/421 415/415 417/417
f 419/419 421/421 422/422
f 416/416 418/418 423/423
f 424/424 418/418 419/419
f 418/418 424/424 425/425
f 425/425 423/423 418/418
f 426/426 425/425 424/424
f 427/427 426/426 424/424
f 419/419 422/422 428/428
f 419/419 428/428 424/424
f 428/428 427/427 424/424
f 429/429 426/426 427/427
f 430/430 431/431 432/432
f 433/433 434/434 435/435
f 434/434 433/433 436/436
f 436/436 437/437 434/434
f 437/437 436/436 438/438
f 435/435 439/439 433/433
f 439/439 435/435 440/440
f 440/440 441/441 439/439
f 441/441 440/440 442/442
f 438/438 443/443 437/437
f 443/443 438/438 444/444
f 444/444 445/445 443/443
f 445/445 444/444 446/446
f 446/446 447/447 445/445
f 447/447 446/446 448/448
f 442/442 448/448 441/441
f 448/448 442/442 447/447
f 449/449 450/450 451/451
f 452/452 449/449 451/451
f 449/449 452/452 453/453
f 450/450 449/449 454/454
f 455/455 456/456 457/457
f 458/458 457/457 456/456
f 457/457 458/458 459/459
f 457/457 460/460 455/455
f 461/461 455/455 460/460
f 462/462 461/461 460/460
f 463/463 461/461 462/462
f 462/462 464/464 463/463
f 463/463 464/464 465/465
f 466/466 464/464 462/462
f 467/467 464/464 466/466
f 465/465 464/464 467/467
f 459/459 468/468 457/457
f 457/457 468/468 460/460
f 462/462 460/460 468/468
f 468/468 466/466 462/462
f 469/469 470/470 471/471
f 472/472 469/469 471/471
f 469/469 472/472 473/473
f 470/470 469/469 474/474
f 475/475 476/476 477/477
f 477/477 476/476 478/478
f 478/478 479/479 477/477
f 480/480 479/479 478/478
f 481/481 482/482 483/483
f 483/483 484/484 481/481
f 484/484 483/483 485/485
f 485/485 486/486 484/484
f 482/482 481/481 487/487
f 487/487 488/488 482/482
f 488/488 487/487 489/489
f 489/489 490/490 488/488
f 486/486 485/485 491/491
f 491/491 492/492 486/486
f 492/492 491/491 493/493
f 493/493 494/494 492/492
f 494/494 493/493 495/495
f 495/495 496/496 494/494
f 490/490 489/489 496/496
f 496/496 495/495 490/490
f 497/497 498/498 499/499
f 500/500 498/498 497/497
f 497/497 501/501 500/500
f 499/499 502/502 497/497
f 503/503 504/504 505/505
f 506/506 505/505 504/504
f 504/504 507/507 506/506
f 504/504 503/503 508/508
f 509/509 508/508 503/503
f 510/510 508/508 509/509
f 511/511 510/510 509/509
f 510/510 511/511 512/512
f 511/511 513/513 512/512
f 514/514 510/510 512/512
f 515/515 514/514 512/512
f 513/513 515/515 512/512
f 507/507 504/504 516/516
f 504/504 508/508 516/516
f 510/510 516/516 508/508
f 516/516 510/510 514/514
f 517/517 518/518 519/519
f 520/520 518/518 517/517
f 517/517 521/521 520/520
f 519/519 522/522 517/517
f 523/523 524/524 525/525
f 524/524 526/526 525/525
f 526/526 524/524 527/527
f 528/528 526/526 527/527
f 529/529 530/530 531/531
f 530/530 532/532 531/531
f 532/532 530/530 533/533
f 534/534 533/533 530/530
f 530/530 535/535 534/534
f 535/535 530/530 536/536
f 529/529 536/536 530/530
f 533/533 534/534 537/537
f 538/538 533/533 537/537
f 533/533 538/538 539/539
f 532/532 540/540 531/531
f 539/539 538/538 541/541
f 542/542 539/539 541/541
f 543/543 539/539 542/542
f 543/543 542/542 544/544
f 544/544 542/542 545/545
f 546/546 544/544 545/545
f 546/546 545/545 547/547
f 545/545 548/548 547/547
f 547/547 548/548 549/549
f 548/548 545/545 550/550
f 550/550 542/542 541/541
f 542/542 550/550 545/545
f 551/551 544/544 546/546
f 552/552 551/551 546/546
f 552/552 546/546 547/547
f 547/547 553/553 552/552
f 553/553 547/547 549/549
f 554/554 551/551 552/552
f 553/553 549/549 555/555
f 543/543 544/544 556/556
f 556/556 544/544 551/551
f 543/543 556/556 557/557
f 558/558 551/551 554/554
f 558/558 559/559 551/551
f 559/559 556/556 551/551
f 560/560 559/559 558/558
f 560/560 561/561 559/559
f 561/561 557/557 556/556
f 561/561 556/556 559/559
f 554/554 552/552 562/562
f 563/563 562/562 552/552
f 553/553 563/563 552/552
f 564/564 563/563 553/553
f 555/555 564/564 553/553
f 562/562 563/563 565/565
f 560/560 558/558 566/566
f 560/560 566/566 567/567
f 558/558 554/554 568/568
f 558/558 568/568 566/566
f 554/554 569/569 568/568
f 554/554 562/562 569/569
f 569/569 570/570 568/568
f 568/568 570/570 571/571
f 570/570 572/572 571/571
f 570/570 573/573 572/572
f 569/569 573/573 570/570
f 573/573 569/569 574/574
f 572/572 573/573 575/575
f 573/573 576/576 575/575
f 574/574 576/576 573/573
f 575/575 577/577 572/572
f 571/571 572/572 578/578
f 578/578 572/572 577/577
f 579/579 571/571 578/578
f 574/574 580/580 576/576
f 579/579 578/578 581/581
f 577/577 582/582 578/578
f 578/578 582/582 581/581
f 581/581 582/582 583/583
f 584/584 581/581 583/583
f 583/583 585/585 584/584
f 584/584 585/585 586/586
f 586/586 587/587 584/584
f 588/588 584/584 587/587
f 587/587 589/589 588/588
f 590/590 589/589 587/587
f 587/587 586/586 591/591
f 591/591 592/592 587/587
f 590/590 587/587 592/592
f 588/588 589/589 540/540
f 589/589 593/593 540/540
f 589/589 590/590 593/593
f 531/531 540/540 593/593
f 531/531 593/593 529/529
f 529/529 593/593 594/594
f 590/590 594/594 593/593
f 529/529 594/594 595/595
f 596/596 595/595 594/594
f 536/536 529/529 595/595
f 590/590 597/597 594/594
f 596/596 594/594 597/597
f 592/592 597/597 590/590
f 584/584 588/588 598/598
f 581/581 584/584 598/598
f 579/579 581/581 598/598
f 579/579 599/599 600/600
f 579/579 600/600 571/571
f 600/600 568/568 571/571
f 566/566 568/568 600/600
f 567/567 600/600 599/599
f 567/567 566/566 600/600
f 539/539 601/601 533/533
f 533/533 601/601 532/532
f 543/543 601/601 539/539
f 602/602 569/569 562/562
f 574/574 569/569 602/602
f 603/603 574/574 602/602
f 562/562 565/565 602/602
f 580/580 574/574 603/603
f 604/604 605/605 606/606
f 607/607 604/604 606/606
f 605/605 608/608 606/606
f 608/608 609/609 606/606
f 610/610 607/607 606/606
f 611/611 606/606 609/609
f 612/612 606/606 611/611
f 613/613 606/606 612/612
f 614/614 606/606 613/613
f 615/615 606/606 614/614
f 616/616 617/617 618/618
f 616/616 619/619 617/617
f 620/620 617/617 619/619
f 621/621 620/620 619/619
f 621/621 619/619 622/622
f 621/621 622/622 623/623
f 621/621 623/623 624/624
f 623/623 622/622 625/625
f 622/622 619/619 626/626
f 626/626 619/619 616/616
f 627/627 622/622 626/626
f 625/625 622/622 627/627
f 616/616 618/618 628/628
f 616/616 629/629 626/626
f 630/630 626/626 629/629
f 631/631 626/626 630/630
f 631/631 627/627 626/626
f 631/631 632/632 627/627
f 632/632 625/625 627/627
f 631/631 633/633 632/632
f 634/634 635/635 636/636
f 637/637 635/635 634/634
f 638/638 635/635 637/637
f 638/638 639/639 635/635
f 639/639 640/640 635/635
f 635/635 640/640 636/636
f 640/640 639/639 641/641
f 641/641 639/639 642/642
f 643/643 639/639 638/638
f 643/643 642/642 639/639
f 642/642 643/643 644/644
f 640/640 645/645 636/636
f 645/645 640/640 646/646
f 641/641 646/646 640/640
f 647/647 646/646 641/641
f 634/634 636/636 648/648
f 637/637 634/634 648/648
f 649/649 637/637 648/648
f 636/636 645/645 650/650
f 648/648 636/636 650/650
f 651/651 637/637 649/649
f 652/652 637/637 651/651
f 653/653 652/652 651/651
f 654/654 652/652 653/653
f 654/654 655/655 652/652
f 655/655 656/656 652/652
f 655/655 657/657 656/656
f 643/643 657/657 644/644
f 658/658 657/657 655/655
f 638/638 657/657 643/643
f 657/657 638/638 656/656
f 652/652 656/656 637/637
f 656/656 638/638 637/637
f 658/658 659/659 657/657
f 660/660 659/659 658/658
f 644/644 657/657 659/659
f 654/654 653/653 661/661
f 654/654 661/661 655/655
f 653/653 662/662 661/661
f 661/661 662/662 663/663
f 662/662 664/664 663/663
f 664/664 665/665 663/663
f 663/663 665/665 666/666
f 663/663 666/666 667/667
f 666/666 668/668 667/667
f 666/666 665/665 668/668
f 669/669 663/663 667/667
f 669/669 667/667 670/670
f 670/670 667/667 671/671
f 667/667 668/668 671/671
f 671/671 672/672 670/670
f 672/672 673/673 670/670
f 674/674 669/669 670/670
f 674/674 670/670 673/673
f 673/673 675/675 674/674
f 671/671 668/668 676/676
f 676/676 677/677 671/671
f 672/672 671/671 677/677
f 678/678 672/672 677/677
f 668/668 679/679 676/676
f 665/665 679/679 668/668
f 669/669 674/674 680/680
f 674/674 675/675 680/680
f 680/680 681/681 669/669
f 655/655 681/681 680/680
f 655/655 661/661 681/681
f 658/658 655/655 680/680
f 661/661 663/663 681/681
f 681/681 663/663 669/669
f 658/658 680/680 682/682
f 675/675 682/682 680/680
f 660/660 658/658 682/682
