mtllib Npc_60008.mtl
o Npc_60008
v 0.15372 -0.08424 2.64492 0.000 0.000 0.000
v 0.15408 -0.08226 2.64438 0.000 0.000 0.000
v 0.15498 -0.08226 2.64780 0.000 0.000 0.000
v 0.15390 -0.08226 2.64348 0.000 0.000 0.000
v 0.15336 -0.08478 2.64420 0.000 0.000 0.000
v 0.15480 -0.08028 2.64456 0.000 0.000 0.000
v 0.15462 -0.07974 2.64384 0.000 0.000 0.000
v 0.15390 -0.08622 2.64816 0.000 0.000 0.000
v 0.15354 -0.08586 2.64618 0.000 0.000 0.000
v 0.15372 -0.08712 2.64816 0.000 0.000 0.000
v 0.15336 -0.08658 2.64600 0.000 0.000 0.000
v 0.15462 -0.08568 2.64996 0.000 0.000 0.000
v 0.15444 -0.08658 2.65032 0.000 0.000 0.000
v 0.15354 -0.08586 2.64618 0.000 0.000 0.000
v 0.15372 -0.08424 2.64492 0.000 0.000 0.000
v 0.15336 -0.08478 2.64420 0.000 0.000 0.000
v 0.15336 -0.08658 2.64600 0.000 0.000 0.000
v 0.15588 -0.08226 2.65122 0.000 0.000 0.000
v 0.15534 -0.08424 2.65104 0.000 0.000 0.000
v 0.15588 -0.08226 2.65122 0.000 0.000 0.000
v 0.15624 -0.08226 2.65212 0.000 0.000 0.000
v 0.15534 -0.08460 2.65176 0.000 0.000 0.000
v 0.15642 -0.08028 2.65068 0.000 0.000 0.000
v 0.15678 -0.07974 2.65140 0.000 0.000 0.000
v 0.15534 -0.08424 2.65104 0.000 0.000 0.000
v 0.15462 -0.08568 2.64996 0.000 0.000 0.000
v 0.15534 -0.08460 2.65176 0.000 0.000 0.000
v 0.15444 -0.08658 2.65032 0.000 0.000 0.000
v 0.15552 -0.07884 2.64564 0.000 0.000 0.000
v 0.15606 -0.07830 2.64744 0.000 0.000 0.000
v 0.15642 -0.07740 2.64744 0.000 0.000 0.000
v 0.15552 -0.07794 2.64528 0.000 0.000 0.000
v 0.15642 -0.07866 2.64942 0.000 0.000 0.000
v 0.15678 -0.07794 2.64978 0.000 0.000 0.000
v 0.15480 -0.08028 2.64456 0.000 0.000 0.000
v 0.15552 -0.07884 2.64564 0.000 0.000 0.000
v 0.15462 -0.07974 2.64384 0.000 0.000 0.000
v 0.15552 -0.07794 2.64528 0.000 0.000 0.000
v 0.15642 -0.07866 2.64942 0.000 0.000 0.000
v 0.15642 -0.08028 2.65068 0.000 0.000 0.000
v 0.15678 -0.07974 2.65140 0.000 0.000 0.000
v 0.15678 -0.07794 2.64978 0.000 0.000 0.000
v -0.01026 -0.12690 2.62278 1.000 0.000 0.000
v 0.01638 -0.20160 2.64150 0.937 0.000 0.000
v 0.03024 -0.16146 2.64546 1.000 0.000 0.000
v 0.01206 -0.21258 2.61828 0.937 0.000 0.000
v 0.01278 -0.20826 2.59218 0.937 0.000 0.000
v 0.01746 -0.19098 2.55600 0.957 0.000 0.000
v 0.02448 -0.16308 2.53152 0.969 0.000 0.000
v 0.03888 -0.12294 2.53044 1.000 0.000 0.000
v 0.01206 -0.21258 2.61828 0.937 0.000 0.000
v 0.03024 -0.16146 2.64546 1.000 0.000 0.000
v 0.01638 -0.20160 2.64150 0.937 0.000 0.000
v 0.01278 -0.20826 2.59218 0.937 0.000 0.000
v 0.01746 -0.19098 2.55600 0.957 0.000 0.000
v 0.02448 -0.16308 2.53152 0.969 0.000 0.000
v 0.03888 -0.12294 2.53044 1.000 0.000 0.000
v 0.15696 -0.09900 2.67048 0.643 0.000 0.000
v 0.14706 -0.10908 2.67066 1.000 0.000 0.000
v 0.14418 -0.11358 2.65860 0.678 0.000 0.000
v 0.15354 -0.09324 2.68056 1.000 0.000 0.000
v 0.16488 -0.07596 2.67318 0.612 0.000 0.000
v 0.15858 -0.07776 2.68362 1.000 0.000 0.000
v 0.16272 -0.06156 2.68128 1.000 0.000 0.000
v 0.16614 -0.05616 2.66904 0.612 0.000 0.000
v 0.16560 -0.04914 2.67318 1.000 0.000 0.000
v 0.16416 -0.04482 2.65698 0.678 0.000 0.000
v 0.14994 -0.10368 2.65986 0.655 0.000 0.000
v 0.14616 -0.10962 2.66004 1.000 0.000 0.000
v 0.14616 -0.10476 2.65086 0.678 0.000 0.000
v 0.15696 -0.09900 2.67048 0.643 0.000 0.000
v 0.14706 -0.10908 2.67066 1.000 0.000 0.000
v 0.10296 -0.14310 2.65770 1.000 0.000 0.000
v 0.09828 -0.15210 2.72304 1.000 0.000 0.000
v 0.02844 -0.16614 2.65770 1.000 0.000 0.000
v 0.14562 -0.12708 2.69532 0.965 0.000 0.000
v 0.15624 -0.12654 2.72214 0.937 0.000 0.000
v 0.14094 -0.12186 2.65374 1.000 0.000 0.000
v 0.10728 -0.14832 2.61792 0.976 0.000 0.000
v 0.10872 -0.14544 2.58012 0.976 0.000 0.000
v 0.14508 -0.12636 2.57778 0.953 0.000 0.000
v 0.14490 -0.12258 2.54628 0.953 0.000 0.000
v 0.14382 -0.12654 2.61270 0.941 0.000 0.000
v 0.16488 -0.10044 2.57436 0.925 0.000 0.000
v 0.16398 -0.10188 2.61054 0.902 0.000 0.000
v 0.16146 -0.09756 2.54574 0.945 0.000 0.000
v 0.17136 -0.06606 2.57148 0.929 0.000 0.000
v 0.16866 -0.06804 2.54736 0.949 0.000 0.000
v 0.17280 -0.04680 2.55528 0.961 0.000 0.000
v 0.17442 -0.04032 2.57094 0.941 0.000 0.000
v 0.17028 -0.05382 2.53476 0.973 0.000 0.000
v 0.15912 -0.06894 2.51748 0.941 0.000 0.000
v 0.15984 -0.06138 2.51478 1.000 0.000 0.000
v 0.16254 -0.05940 2.48778 0.961 0.000 0.000
v 0.14526 -0.09990 2.50812 0.976 0.000 0.000
v 0.14562 -0.07830 2.47428 0.984 0.000 0.000
v 0.16614 -0.03852 2.45718 0.937 0.000 0.000
v 0.14904 -0.04266 2.45088 1.000 0.000 0.000
v 0.15804 0.00000 2.44602 1.000 0.000 0.000
v 0.17064 -0.06480 2.60982 0.937 0.000 0.000
v 0.17406 -0.03816 2.59020 0.949 0.000 0.000
v 0.16614 -0.04752 2.50182 0.976 0.000 0.000
v 0.17316 -0.03006 2.47662 0.945 0.000 0.000
v 0.17226 -0.02394 2.49336 0.969 0.000 0.000
v 0.17190 0.00000 2.45358 0.941 0.000 0.000
v 0.17712 0.00000 2.49120 0.965 0.000 0.000
v 0.17892 0.00000 2.47302 0.925 0.000 0.000
v 0.17532 -0.02538 2.60946 0.957 0.000 0.000
v 0.16704 -0.03060 2.64996 1.000 0.000 0.000
v 0.18216 -0.01440 2.64996 0.965 0.000 0.000
v 0.19026 -0.01620 2.61504 0.953 0.000 0.000
v 0.18846 0.00000 2.64996 0.945 0.000 0.000
v 0.19782 0.00000 2.61774 0.922 0.000 0.000
v 0.19368 -0.01962 2.68740 0.925 0.000 0.000
v 0.19584 0.00000 2.68740 0.914 0.000 0.000
v 0.16974 -0.03600 2.67750 1.000 0.000 0.000
v 0.15534 -0.07686 2.65896 1.000 0.000 0.000
v 0.18810 -0.05220 2.69748 0.933 0.000 0.000
v 0.19368 0.00000 2.72394 0.941 0.000 0.000
v 0.18144 -0.07380 2.74248 0.925 0.000 0.000
v 0.17532 -0.08820 2.70234 0.933 0.000 0.000
v 0.16848 -0.07290 2.77488 0.937 0.000 0.000
v 0.18522 0.00000 2.77488 0.922 0.000 0.000
v 0.15966 -0.07614 2.69280 1.000 0.000 0.000
v 0.15444 -0.07560 2.63502 0.961 0.000 0.000
v 0.13518 -0.12438 2.77236 0.957 0.000 0.000
v 0.09900 -0.14688 2.77020 1.000 0.000 0.000
v 0.01962 -0.16434 2.77164 1.000 0.000 0.000
v 0.09738 -0.12042 2.82222 1.000 0.000 0.000
v 0.17118 0.00000 2.81718 0.941 0.000 0.000
v 0.15912 -0.07236 2.81178 0.976 0.000 0.000
v 0.12762 -0.07164 2.84220 1.000 0.000 0.000
v 0.12726 -0.12348 2.79468 0.988 0.000 0.000
v 0.13770 0.00000 2.84922 0.961 0.000 0.000
v 0.00252 -0.17352 2.72340 1.000 0.000 0.000
v -0.02070 -0.17262 2.65770 1.000 0.000 0.000
v 0.03888 -0.11988 2.51964 1.000 0.000 0.000
v -0.06768 -0.11520 2.53890 1.000 0.000 0.000
v -0.01818 -0.06750 2.46348 1.000 0.000 0.000
v 0.04860 -0.07650 2.46726 1.000 0.000 0.000
v 0.03240 -0.04464 2.45196 0.976 0.000 0.000
v 0.05994 0.00000 2.44602 0.969 0.000 0.000
v 0.11718 -0.09180 2.47032 1.000 0.000 0.000
v 0.11034 -0.12096 2.50794 0.996 0.000 0.000
v 0.14562 -0.07830 2.47428 0.984 0.000 0.000
v 0.14904 -0.04266 2.45088 1.000 0.000 0.000
v 0.14526 -0.09990 2.50812 0.976 0.000 0.000
v -0.06516 -0.05202 2.46348 0.945 0.000 0.000
v -0.01800 0.00000 2.45484 0.996 0.000 0.000
v -0.09594 0.00000 2.46348 1.000 0.000 0.000
v -0.11466 -0.07542 2.53890 1.000 0.000 0.000
v -0.14688 0.00000 2.53890 1.000 0.000 0.000
v 0.03240 -0.04464 2.45196 0.976 0.000 0.000
v 0.05994 0.00000 2.44602 0.969 0.000 0.000
v -0.11466 0.07542 2.53890 1.000 0.000 0.000
v -0.06516 0.05202 2.46348 0.945 0.000 0.000
v -0.01818 0.06750 2.46348 1.000 0.000 0.000
v -0.06768 0.11520 2.53890 1.000 0.000 0.000
v 0.03888 0.11988 2.51964 1.000 0.000 0.000
v 0.04860 0.07650 2.46726 1.000 0.000 0.000
v 0.03240 0.04464 2.45196 0.976 0.000 0.000
v 0.12258 0.04752 2.45106 1.000 0.000 0.000
v 0.11718 0.09180 2.47032 1.000 0.000 0.000
v 0.11034 0.12096 2.50794 0.996 0.000 0.000
v 0.14562 0.07830 2.47428 0.984 0.000 0.000
v 0.14904 0.04266 2.45088 1.000 0.000 0.000
v 0.14526 0.09990 2.50812 0.976 0.000 0.000
v -0.02070 0.17262 2.65770 1.000 0.000 0.000
v 0.02844 0.16614 2.65770 1.000 0.000 0.000
v 0.10818 0.13950 2.54646 0.988 0.000 0.000
v 0.00252 0.17352 2.72340 1.000 0.000 0.000
v 0.09828 0.15210 2.72304 1.000 0.000 0.000
v 0.10296 0.14310 2.65770 1.000 0.000 0.000
v 0.14562 0.12708 2.69532 0.965 0.000 0.000
v 0.15624 0.12654 2.72214 0.937 0.000 0.000
v 0.14094 0.12186 2.65374 1.000 0.000 0.000
v 0.10728 0.14832 2.61792 0.976 0.000 0.000
v 0.10872 0.14544 2.58012 0.976 0.000 0.000
v 0.14508 0.12636 2.57778 0.953 0.000 0.000
v 0.14490 0.12258 2.54628 0.953 0.000 0.000
v 0.14382 0.12654 2.61270 0.941 0.000 0.000
v 0.16488 0.10044 2.57436 0.925 0.000 0.000
v 0.16398 0.10188 2.61054 0.902 0.000 0.000
v 0.16146 0.09756 2.54574 0.945 0.000 0.000
v 0.17136 0.06606 2.57148 0.929 0.000 0.000
v 0.16866 0.06804 2.54736 0.949 0.000 0.000
v 0.17280 0.04680 2.55528 0.961 0.000 0.000
v 0.17442 0.04032 2.57094 0.941 0.000 0.000
v 0.17028 0.05382 2.53476 0.973 0.000 0.000
v 0.15912 0.06894 2.51748 0.941 0.000 0.000
v 0.15984 0.06138 2.51478 1.000 0.000 0.000
v 0.16254 0.05940 2.48778 0.961 0.000 0.000
v 0.14526 0.09990 2.50812 0.976 0.000 0.000
v 0.14562 0.07830 2.47428 0.984 0.000 0.000
v 0.16614 0.03852 2.45718 0.937 0.000 0.000
v 0.14904 0.04266 2.45088 1.000 0.000 0.000
v 0.17064 0.06480 2.60982 0.937 0.000 0.000
v 0.17406 0.03816 2.59020 0.949 0.000 0.000
v 0.16614 0.04752 2.50182 0.976 0.000 0.000
v 0.17316 0.03006 2.47662 0.945 0.000 0.000
v 0.17226 0.02394 2.49336 0.969 0.000 0.000
v 0.17532 0.02538 2.60946 0.957 0.000 0.000
v 0.16704 0.03060 2.64996 1.000 0.000 0.000
v 0.18216 0.01440 2.64996 0.965 0.000 0.000
v 0.19026 0.01620 2.61504 0.953 0.000 0.000
v 0.19368 0.01962 2.68740 0.925 0.000 0.000
v 0.16974 0.03600 2.67750 1.000 0.000 0.000
v 0.15534 0.07686 2.65896 1.000 0.000 0.000
v 0.18810 0.05220 2.69748 0.933 0.000 0.000
v 0.18144 0.07380 2.74248 0.925 0.000 0.000
v 0.17532 0.08820 2.70234 0.933 0.000 0.000
v 0.16848 0.07290 2.77488 0.937 0.000 0.000
v 0.15966 0.07614 2.69280 1.000 0.000 0.000
v 0.15444 0.07560 2.63502 0.961 0.000 0.000
v 0.13518 0.12438 2.77236 0.957 0.000 0.000
v 0.09900 0.14688 2.77020 1.000 0.000 0.000
v 0.01962 0.16434 2.77164 1.000 0.000 0.000
v 0.09738 0.12042 2.82222 1.000 0.000 0.000
v 0.15912 0.07236 2.81178 0.976 0.000 0.000
v 0.12762 0.07164 2.84220 1.000 0.000 0.000
v 0.12726 0.12348 2.79468 0.988 0.000 0.000
v 0.06318 0.12042 2.84490 1.000 0.000 0.000
v 0.01980 0.12042 2.85768 1.000 0.000 0.000
v 0.08442 0.00000 2.88216 1.000 0.000 0.000
v 0.07686 -0.07200 2.86866 1.000 0.000 0.000
v 0.06318 -0.12042 2.84490 1.000 0.000 0.000
v 0.01980 -0.12042 2.85768 1.000 0.000 0.000
v 0.01980 -0.07200 2.88216 1.000 0.000 0.000
v 0.01980 0.00000 2.89584 1.000 0.000 0.000
v 0.07686 0.07200 2.86866 1.000 0.000 0.000
v 0.01980 0.07200 2.88216 1.000 0.000 0.000
v 0.17514 0.00000 2.51928 1.000 0.000 0.000
v 0.18774 0.00000 2.52234 0.984 0.000 0.000
v 0.18720 -0.00990 2.52180 0.984 0.000 0.000
v 0.19458 0.00000 2.53602 0.929 0.000 0.000
v 0.19152 -0.01314 2.53566 0.937 0.000 0.000
v 0.18684 0.00000 2.55438 0.973 0.000 0.000
v 0.18288 -0.01710 2.55222 0.973 0.000 0.000
v 0.17838 -0.03834 2.54520 0.973 0.000 0.000
v 0.18576 -0.03042 2.53134 0.949 0.000 0.000
v 0.17028 -0.05382 2.53476 0.973 0.000 0.000
v 0.17622 -0.04554 2.52504 0.961 0.000 0.000
v 0.15984 -0.06138 2.51478 1.000 0.000 0.000
v 0.18306 -0.02574 2.52072 0.984 0.000 0.000
v 0.17118 -0.02448 2.51820 1.000 0.000 0.000
v 0.18018 0.00000 2.51784 1.000 0.000 0.000
v 0.17568 -0.02376 2.51604 1.000 0.000 0.000
v 0.18594 0.00000 2.50398 0.925 0.000 0.000
v 0.18018 -0.02268 2.50506 0.941 0.000 0.000
v 0.17226 -0.02394 2.49336 0.969 0.000 0.000
v 0.17712 0.00000 2.49120 0.965 0.000 0.000
v 0.16614 -0.04752 2.50182 0.976 0.000 0.000
v 0.17082 -0.04482 2.50920 0.953 0.000 0.000
v 0.17586 -0.04338 2.51946 0.984 0.000 0.000
v 0.15984 -0.06138 2.51478 1.000 0.000 0.000
v 0.16938 -0.04410 2.51586 1.000 0.000 0.000
v 0.16650 -0.04086 2.51766 1.000 0.000 0.000
v 0.15984 -0.06138 2.51478 1.000 0.000 0.000
v 0.17586 -0.04338 2.51946 0.984 0.000 0.000
v 0.16650 -0.04086 2.51766 1.000 0.000 0.000
v 0.15984 -0.06138 2.51478 1.000 0.000 0.000
v 0.17226 0.02394 2.49336 0.969 0.000 0.000
v 0.18018 0.02268 2.50506 0.941 0.000 0.000
v 0.17568 0.02376 2.51604 1.000 0.000 0.000
v 0.16614 0.04752 2.50182 0.976 0.000 0.000
v 0.17118 0.02448 2.51820 1.000 0.000 0.000
v 0.18306 0.02574 2.52072 0.984 0.000 0.000
v 0.17082 0.04482 2.50920 0.953 0.000 0.000
v 0.16938 0.04410 2.51586 1.000 0.000 0.000
v 0.16650 0.04086 2.51766 1.000 0.000 0.000
v 0.15984 0.06138 2.51478 1.000 0.000 0.000
v 0.17586 0.04338 2.51946 0.984 0.000 0.000
v 0.16650 0.04086 2.51766 1.000 0.000 0.000
v 0.15984 0.06138 2.51478 1.000 0.000 0.000
v 0.18720 0.00990 2.52180 0.984 0.000 0.000
v 0.19152 0.01314 2.53566 0.937 0.000 0.000
v 0.18288 0.01710 2.55222 0.973 0.000 0.000
v 0.17838 0.03834 2.54520 0.973 0.000 0.000
v 0.18576 0.03042 2.53134 0.949 0.000 0.000
v 0.17028 0.05382 2.53476 0.973 0.000 0.000
v 0.17622 0.04554 2.52504 0.961 0.000 0.000
v 0.15984 0.06138 2.51478 1.000 0.000 0.000
v 0.17586 0.04338 2.51946 0.984 0.000 0.000
v 0.15984 0.06138 2.51478 1.000 0.000 0.000
v 0.12492 0.00000 2.44620 1.000 0.000 0.000
v 0.15804 0.00000 2.44602 1.000 0.000 0.000
v 0.12258 -0.04752 2.45106 1.000 0.000 0.000
v 0.18090 -0.02196 2.56194 0.980 0.000 0.000
v 0.17838 -0.03834 2.54520 0.973 0.000 0.000
v 0.18288 -0.01710 2.55222 0.973 0.000 0.000
v 0.18684 0.00000 2.55438 0.973 0.000 0.000
v 0.18090 0.02196 2.56194 0.980 0.000 0.000
v 0.18288 0.01710 2.55222 0.973 0.000 0.000
v 0.17838 0.03834 2.54520 0.973 0.000 0.000
v 0.19044 -0.03402 2.56860 0.882 0.000 0.000
v 0.18396 -0.03240 2.59056 0.933 0.000 0.000
v 0.20160 -0.02304 2.59290 0.906 0.000 0.000
v 0.19044 -0.03402 2.56860 0.882 0.000 0.000
v 0.20448 -0.02286 2.56590 0.910 0.000 0.000
v 0.21816 0.00000 2.59506 0.851 0.000 0.000
v 0.20160 0.02304 2.59290 0.906 0.000 0.000
v 0.18396 0.03240 2.59056 0.933 0.000 0.000
v 0.19044 0.03402 2.56860 0.882 0.000 0.000
v 0.19044 0.03402 2.56860 0.882 0.000 0.000
v 0.20448 0.02286 2.56590 0.910 0.000 0.000
v 0.22194 0.00000 2.57940 0.796 0.000 0.000
v 0.21492 0.00000 2.56266 0.867 0.000 0.000
v 0.18684 0.00000 2.55438 0.973 0.000 0.000
v 0.21492 0.00000 2.56266 0.867 0.000 0.000
v 0.20448 -0.02286 2.56590 0.910 0.000 0.000
v 0.20448 0.02286 2.56590 0.910 0.000 0.000
v 0.18090 -0.02196 2.56194 0.980 0.000 0.000
v 0.18090 0.02196 2.56194 0.980 0.000 0.000
v 0.19044 0.03402 2.56860 0.882 0.000 0.000
v 0.17442 0.04032 2.57094 0.941 0.000 0.000
v 0.19044 -0.03402 2.56860 0.882 0.000 0.000
v 0.17442 -0.04032 2.57094 0.941 0.000 0.000
v 0.10818 -0.13950 2.54646 0.988 0.000 0.000
v 0.03024 0.16146 2.64546 1.000 0.000 0.000
v 0.01638 0.20160 2.64150 0.937 0.000 0.000
v -0.01026 0.12690 2.62278 1.000 0.000 0.000
v 0.01206 0.21258 2.61828 0.937 0.000 0.000
v 0.01278 0.20826 2.59218 0.937 0.000 0.000
v 0.01746 0.19098 2.55600 0.957 0.000 0.000
v 0.02448 0.16308 2.53152 0.969 0.000 0.000
v 0.03888 0.12294 2.53044 1.000 0.000 0.000
v 0.01638 0.20160 2.64150 0.937 0.000 0.000
v 0.03024 0.16146 2.64546 1.000 0.000 0.000
v 0.01206 0.21258 2.61828 0.937 0.000 0.000
v 0.01278 0.20826 2.59218 0.937 0.000 0.000
v 0.01746 0.19098 2.55600 0.957 0.000 0.000
v 0.02448 0.16308 2.53152 0.969 0.000 0.000
v 0.03888 0.12294 2.53044 1.000 0.000 0.000
v 0.03240 0.04464 2.45196 0.976 0.000 0.000
v 0.14418 0.11358 2.65860 0.678 0.000 0.000
v 0.14706 0.10908 2.67066 1.000 0.000 0.000
v 0.15696 0.09900 2.67048 0.643 0.000 0.000
v 0.15354 0.09324 2.68056 1.000 0.000 0.000
v 0.16488 0.07596 2.67318 0.612 0.000 0.000
v 0.15858 0.07776 2.68362 1.000 0.000 0.000
v 0.16272 0.06156 2.68128 1.000 0.000 0.000
v 0.16614 0.05616 2.66904 0.612 0.000 0.000
v 0.16560 0.04914 2.67318 1.000 0.000 0.000
v 0.16416 0.04482 2.65698 0.678 0.000 0.000
v 0.14616 0.10476 2.65086 0.678 0.000 0.000
v 0.14616 0.10962 2.66004 1.000 0.000 0.000
v 0.14994 0.10368 2.65986 0.655 0.000 0.000
v 0.15696 0.09900 2.67048 0.643 0.000 0.000
v 0.14706 0.10908 2.67066 1.000 0.000 0.000
v 0.15984 -0.07596 2.67426 0.000 0.000 0.000
v 0.15642 -0.08676 2.67066 0.000 0.000 0.000
v 0.15948 -0.07596 2.65770 0.000 0.000 0.000
v 0.15480 -0.08946 2.65770 0.000 0.000 0.000
v 0.16236 -0.06606 2.67066 0.000 0.000 0.000
v 0.16218 -0.06210 2.65752 0.000 0.000 0.000
v 0.15804 -0.06750 2.64420 0.220 0.000 0.000
v 0.15462 -0.07614 2.64078 0.306 0.000 0.000
v 0.15246 -0.08640 2.64456 0.220 0.000 0.000
v 0.15480 -0.08946 2.65770 0.000 0.000 0.000
v 0.14634 -0.10566 2.65356 0.106 0.000 0.000
v 0.14886 -0.09522 2.64276 0.231 0.000 0.000
v 0.14706 -0.10908 2.67066 1.000 0.000 0.000
v 0.15642 -0.08676 2.67066 0.000 0.000 0.000
v 0.15246 -0.08640 2.64456 0.220 0.000 0.000
v 0.15462 -0.07614 2.64078 0.306 0.000 0.000
v 0.15858 -0.07776 2.68362 1.000 0.000 0.000
v 0.15984 -0.07596 2.67426 0.000 0.000 0.000
v 0.16218 -0.06210 2.65752 0.000 0.000 0.000
v 0.16560 -0.04914 2.67318 1.000 0.000 0.000
v 0.16236 -0.06606 2.67066 0.000 0.000 0.000
v 0.16308 -0.04896 2.65752 0.106 0.000 0.000
v 0.16002 -0.05652 2.64240 0.231 0.000 0.000
v 0.15804 -0.06750 2.64420 0.220 0.000 0.000
v 0.15462 -0.07614 2.64078 0.306 0.000 0.000
v 0.15858 -0.07776 2.68362 1.000 0.000 0.000
v 0.15984 -0.07596 2.67426 0.000 0.000 0.000
v 0.15948 0.07596 2.65770 0.000 0.000 0.000
v 0.15642 0.08676 2.67066 0.000 0.000 0.000
v 0.15984 0.07596 2.67426 0.000 0.000 0.000
v 0.15480 0.08946 2.65770 0.000 0.000 0.000
v 0.16236 0.06606 2.67066 0.000 0.000 0.000
v 0.16218 0.06210 2.65752 0.000 0.000 0.000
v 0.15804 0.06750 2.64420 0.220 0.000 0.000
v 0.15462 0.07614 2.64078 0.306 0.000 0.000
v 0.15246 0.08640 2.64456 0.220 0.000 0.000
v 0.14886 0.09522 2.64276 0.231 0.000 0.000
v 0.14634 0.10566 2.65356 0.106 0.000 0.000
v 0.15480 0.08946 2.65770 0.000 0.000 0.000
v 0.14706 0.10908 2.67066 1.000 0.000 0.000
v 0.15642 0.08676 2.67066 0.000 0.000 0.000
v 0.15246 0.08640 2.64456 0.220 0.000 0.000
v 0.15462 0.07614 2.64078 0.306 0.000 0.000
v 0.15858 0.07776 2.68362 1.000 0.000 0.000
v 0.15984 0.07596 2.67426 0.000 0.000 0.000
v 0.16236 0.06606 2.67066 0.000 0.000 0.000
v 0.16560 0.04914 2.67318 1.000 0.000 0.000
v 0.16218 0.06210 2.65752 0.000 0.000 0.000
v 0.16308 0.04896 2.65752 0.106 0.000 0.000
v 0.16002 0.05652 2.64240 0.231 0.000 0.000
v 0.15804 0.06750 2.64420 0.220 0.000 0.000
v 0.15462 0.07614 2.64078 0.306 0.000 0.000
v 0.15858 0.07776 2.68362 1.000 0.000 0.000
v 0.15984 0.07596 2.67426 0.000 0.000 0.000
v 0.15894 0.06930 2.64780 0.000 0.000 0.000
v 0.15804 0.06930 2.64438 0.000 0.000 0.000
v 0.15768 0.07128 2.64492 0.000 0.000 0.000
v 0.15768 0.06930 2.64348 0.000 0.000 0.000
v 0.15732 0.07182 2.64420 0.000 0.000 0.000
v 0.15858 0.06732 2.64456 0.000 0.000 0.000
v 0.15840 0.06678 2.64384 0.000 0.000 0.000
v 0.15750 0.07272 2.64618 0.000 0.000 0.000
v 0.15786 0.07326 2.64816 0.000 0.000 0.000
v 0.15768 0.07416 2.64816 0.000 0.000 0.000
v 0.15732 0.07362 2.64600 0.000 0.000 0.000
v 0.15858 0.07272 2.64996 0.000 0.000 0.000
v 0.15840 0.07344 2.65032 0.000 0.000 0.000
v 0.15768 0.07128 2.64492 0.000 0.000 0.000
v 0.15750 0.07272 2.64618 0.000 0.000 0.000
v 0.15732 0.07182 2.64420 0.000 0.000 0.000
v 0.15732 0.07362 2.64600 0.000 0.000 0.000
v 0.15930 0.07110 2.65104 0.000 0.000 0.000
v 0.15984 0.06912 2.65122 0.000 0.000 0.000
v 0.16020 0.06714 2.65068 0.000 0.000 0.000
v 0.16002 0.06912 2.65212 0.000 0.000 0.000
v 0.15984 0.06912 2.65122 0.000 0.000 0.000
v 0.15930 0.07164 2.65176 0.000 0.000 0.000
v 0.16056 0.06660 2.65140 0.000 0.000 0.000
v 0.15858 0.07272 2.64996 0.000 0.000 0.000
v 0.15930 0.07110 2.65104 0.000 0.000 0.000
v 0.15930 0.07164 2.65176 0.000 0.000 0.000
v 0.15840 0.07344 2.65032 0.000 0.000 0.000
v 0.15984 0.06516 2.64744 0.000 0.000 0.000
v 0.15930 0.06570 2.64564 0.000 0.000 0.000
v 0.16002 0.06426 2.64744 0.000 0.000 0.000
v 0.15930 0.06498 2.64528 0.000 0.000 0.000
v 0.16020 0.06570 2.64942 0.000 0.000 0.000
v 0.16056 0.06480 2.64978 0.000 0.000 0.000
v 0.15930 0.06570 2.64564 0.000 0.000 0.000
v 0.15858 0.06732 2.64456 0.000 0.000 0.000
v 0.15840 0.06678 2.64384 0.000 0.000 0.000
v 0.15930 0.06498 2.64528 0.000 0.000 0.000
v 0.16020 0.06714 2.65068 0.000 0.000 0.000
v 0.16020 0.06570 2.64942 0.000 0.000 0.000
v 0.16056 0.06660 2.65140 0.000 0.000 0.000
v 0.16056 0.06480 2.64978 0.000 0.000 0.000
v 0.18882 -0.05508 2.70648 0.000 0.000 0.867
v 0.19116 -0.03492 2.71998 0.000 0.000 0.757
v 0.18612 -0.06210 2.72268 0.000 0.000 0.725
v 0.17658 -0.08838 2.70180 0.000 0.000 0.867
v 0.17496 -0.09198 2.72178 0.000 0.000 0.725
v 0.16254 -0.11430 2.71638 0.000 0.000 0.761
v 0.14598 -0.12798 2.69316 0.000 0.000 0.859
v 0.18612 0.06210 2.72268 0.000 0.000 0.725
v 0.19116 0.03492 2.71998 0.000 0.000 0.757
v 0.18882 0.05508 2.70648 0.000 0.000 0.867
v 0.17658 0.08838 2.70180 0.000 0.000 0.867
v 0.17496 0.09198 2.72178 0.000 0.000 0.725
v 0.16254 0.11430 2.71638 0.000 0.000 0.761
v 0.14598 0.12798 2.69316 0.000 0.000 0.859
vt 0.67639 0.72621
vt 0.71267 0.72615
vt 0.69590 0.62901
vt 0.71980 0.77312
vt 0.66595 0.77314
vt 0.67639 0.72621
vt 0.66595 0.77314
vt 0.67639 0.72621
vt 0.71267 0.72615
vt 0.66595 0.77314
vt 0.71980 0.77312
vt 0.71267 0.72615
vt 0.71980 0.77312
vt 0.67639 0.72621
vt 0.71267 0.72615
vt 0.71980 0.77312
vt 0.66595 0.77314
vt 0.71267 0.72615
vt 0.67639 0.72621
vt 0.67639 0.72621
vt 0.71980 0.77312
vt 0.66595 0.77314
vt 0.67639 0.72621
vt 0.66595 0.77314
vt 0.71267 0.72615
vt 0.67639 0.72621
vt 0.71980 0.77312
vt 0.66595 0.77314
vt 0.71267 0.72615
vt 0.67639 0.72621
vt 0.66595 0.77314
vt 0.71980 0.77312
vt 0.71267 0.72615
vt 0.71980 0.77312
vt 0.71267 0.72615
vt 0.67639 0.72621
vt 0.71980 0.77312
vt 0.66595 0.77314
vt 0.67639 0.72621
vt 0.71267 0.72615
vt 0.71980 0.77312
vt 0.66595 0.77314
vt 0.84799 0.86801
vt 0.75020 0.93185
vt 0.77785 0.99844
vt 0.75020 0.87267
vt 0.75020 0.81317
vt 0.75020 0.73623
vt 0.75020 0.64610
vt 0.80408 0.64648
vt 0.85622 0.93332
vt 0.99093 0.99463
vt 0.85622 0.99463
vt 0.85622 0.89865
vt 0.85622 0.81599
vt 0.85622 0.71417
vt 0.99093 0.66356
vt 0.68930 0.46050
vt 0.67664 0.58509
vt 0.66168 0.53046
vt 0.70860 0.58534
vt 0.72330 0.46063
vt 0.72817 0.58535
vt 0.70860 0.58534
vt 0.70963 0.46047
vt 0.69236 0.58526
vt 0.66168 0.53046
vt 0.69975 0.46048
vt 0.70719 0.56519
vt 0.72371 0.53336
vt 0.66724 0.46035
vt 0.66760 0.58521
vt 0.46500 0.54663
vt 0.47000 0.69913
vt 0.57656 0.54835
vt 0.36656 0.60371
vt 0.35056 0.68909
vt 0.36656 0.52550
vt 0.46000 0.44589
vt 0.45800 0.35549
vt 0.36656 0.34797
vt 0.36656 0.27650
vt 0.36656 0.42975
vt 0.28593 0.33812
vt 0.28707 0.42688
vt 0.28485 0.27509
vt 0.18612 0.34425
vt 0.18396 0.28867
vt 0.13215 0.29374
vt 0.09414 0.34808
vt 0.16060 0.24891
vt 0.17852 0.19292
vt 0.16044 0.19323
vt 0.18155 0.13756
vt 0.28395 0.18941
vt 0.25242 0.11454
vt 0.11288 0.06467
vt 0.14143 0.02433
vt 0.01060 0.01650
vt 0.18674 0.42060
vt 0.08532 0.38297
vt 0.11894 0.15629
vt 0.08646 0.10751
vt 0.06400 0.14748
vt 0.01060 0.06379
vt 0.01060 0.14737
vt 0.01060 0.10765
vt 0.06950 0.41786
vt 0.07617 0.51693
vt 0.04508 0.51593
vt 0.03389 0.43947
vt 0.01060 0.51552
vt 0.01060 0.43990
vt 0.06091 0.60434
vt 0.01060 0.60433
vt 0.10004 0.57696
vt 0.21248 0.52861
vt 0.13544 0.62838
vt 0.01060 0.68980
vt 0.18255 0.73300
vt 0.25224 0.63038
vt 0.17019 0.81319
vt 0.01060 0.81319
vt 0.25343 0.59924
vt 0.21968 0.49963
vt 0.34765 0.79225
vt 0.45032 0.76722
vt 0.50909 0.82009
vt 0.36165 0.94378
vt 0.01060 0.89824
vt 0.16951 0.89519
vt 0.16867 0.99485
vt 0.35140 0.86133
vt 0.00584 0.99407
vt 0.59546 0.70807
vt 0.62207 0.54765
vt 0.55023 0.24656
vt 0.65700 0.29205
vt 0.61193 0.11500
vt 0.52903 0.11500
vt 0.55502 0.08210
vt 0.51332 0.03650
vt 0.43900 0.11500
vt 0.44600 0.20912
vt 0.36656 0.11500
vt 0.36656 0.06358
vt 0.36656 0.18941
vt 0.65710 0.11500
vt 0.61180 0.03663
vt 0.69025 0.11500
vt 0.67350 0.29205
vt 0.69000 0.29205
vt 0.55502 0.08210
vt 0.51332 0.03650
vt 0.67350 0.29205
vt 0.65710 0.11500
vt 0.61193 0.11500
vt 0.65700 0.29205
vt 0.55023 0.24656
vt 0.52903 0.11500
vt 0.55502 0.08210
vt 0.43687 0.08163
vt 0.43900 0.11500
vt 0.44600 0.20912
vt 0.36656 0.11500
vt 0.36656 0.06358
vt 0.36656 0.18941
vt 0.62207 0.54765
vt 0.57656 0.54835
vt 0.45219 0.28468
vt 0.59546 0.70807
vt 0.47000 0.69913
vt 0.46500 0.54663
vt 0.36656 0.60371
vt 0.35056 0.68909
vt 0.36656 0.52550
vt 0.46000 0.44589
vt 0.45800 0.35549
vt 0.36656 0.34797
vt 0.36656 0.27650
vt 0.36656 0.42975
vt 0.28593 0.33812
vt 0.28707 0.42688
vt 0.28485 0.27509
vt 0.18612 0.34425
vt 0.18396 0.28867
vt 0.13215 0.29374
vt 0.09414 0.34808
vt 0.16060 0.24891
vt 0.17852 0.19292
vt 0.16044 0.19323
vt 0.18155 0.13756
vt 0.28395 0.18941
vt 0.25242 0.11454
vt 0.11288 0.06467
vt 0.14143 0.02433
vt 0.18674 0.42060
vt 0.08532 0.38297
vt 0.11894 0.15629
vt 0.08646 0.10751
vt 0.06400 0.14748
vt 0.06950 0.41786
vt 0.07617 0.51693
vt 0.04508 0.51593
vt 0.03389 0.43947
vt 0.06091 0.60434
vt 0.10004 0.57696
vt 0.21248 0.52861
vt 0.13544 0.62838
vt 0.18255 0.73300
vt 0.25224 0.63038
vt 0.17019 0.81319
vt 0.25343 0.59924
vt 0.21968 0.49963
vt 0.34765 0.79225
vt 0.45032 0.76722
vt 0.50909 0.82009
vt 0.36165 0.94378
vt 0.16951 0.89519
vt 0.16867 0.99485
vt 0.35140 0.86133
vt 0.35662 0.92440
vt 0.35301 0.91012
vt 0.00518 0.98238
vt 0.16914 0.97888
vt 0.35662 0.92440
vt 0.35301 0.91012
vt 0.16914 0.96755
vt 0.00518 0.96755
vt 0.16914 0.97888
vt 0.16914 0.96755
vt 0.73649 0.09934
vt 0.73649 0.11653
vt 0.77937 0.11653
vt 0.73649 0.15854
vt 0.79513 0.15854
vt 0.73649 0.21392
vt 0.81283 0.21392
vt 0.89626 0.21392
vt 0.88029 0.15854
vt 0.93738 0.21392
vt 0.93646 0.15854
vt 0.97859 0.21392
vt 0.86286 0.11653
vt 0.84761 0.09934
vt 0.73649 0.07682
vt 0.85279 0.07365
vt 0.73649 0.04682
vt 0.83291 0.04682
vt 0.83564 0.01000
vt 0.73649 0.01000
vt 0.92810 0.01000
vt 0.92624 0.04682
vt 0.93632 0.12942
vt 0.97859 0.15854
vt 0.93023 0.06906
vt 0.92602 0.08788
vt 0.97981 0.04682
vt 0.93510 0.11653
vt 0.92725 0.10602
vt 0.97896 0.11653
vt 0.83564 0.01000
vt 0.83291 0.04682
vt 0.85279 0.07365
vt 0.92810 0.01000
vt 0.84761 0.09934
vt 0.86286 0.11653
vt 0.92624 0.04682
vt 0.93023 0.06906
vt 0.92602 0.08788
vt 0.97981 0.04682
vt 0.93510 0.11653
vt 0.92725 0.10602
vt 0.97896 0.11653
vt 0.77937 0.11653
vt 0.79513 0.15854
vt 0.81283 0.21392
vt 0.89626 0.21392
vt 0.88029 0.15854
vt 0.93738 0.21392
vt 0.93646 0.15854
vt 0.97859 0.21392
vt 0.93632 0.12942
vt 0.97859 0.15854
vt 0.43400 0.03650
vt 0.36656 0.03650
vt 0.43687 0.08163
vt 0.06734 0.29680
vt 0.11000 0.26735
vt 0.06727 0.26735
vt 0.04000 0.26735
vt 0.06734 0.29680
vt 0.06727 0.26735
vt 0.11000 0.26735
vt 0.07347 0.34818
vt 0.07347 0.34818
vt 0.04127 0.39705
vt 0.06097 0.34795
vt 0.04130 0.34813
vt 0.00995 0.40300
vt 0.04127 0.39705
vt 0.07347 0.34818
vt 0.07347 0.34818
vt 0.06097 0.34795
vt 0.04130 0.34813
vt 0.01027 0.36831
vt 0.01060 0.34828
vt 0.00645 0.17780
vt 0.00645 0.22928
vt 0.04341 0.21713
vt 0.04341 0.21713
vt 0.04370 0.17580
vt 0.04370 0.17580
vt 0.05625 0.20595
vt 0.06832 0.17780
vt 0.05625 0.20595
vt 0.06832 0.17780
vt 0.45219 0.28468
vt 0.77785 0.99844
vt 0.75020 0.93185
vt 0.84799 0.86801
vt 0.75020 0.87267
vt 0.75020 0.81317
vt 0.75020 0.73623
vt 0.75020 0.64610
vt 0.80408 0.64648
vt 0.85622 0.99463
vt 0.99093 0.99463
vt 0.85622 0.93332
vt 0.85622 0.89865
vt 0.85622 0.81599
vt 0.85622 0.71417
vt 0.99093 0.66356
vt 0.55502 0.08210
vt 0.66168 0.53046
vt 0.67664 0.58509
vt 0.68930 0.46050
vt 0.70860 0.58534
vt 0.72330 0.46063
vt 0.72817 0.58535
vt 0.70860 0.58534
vt 0.70963 0.46047
vt 0.69236 0.58526
vt 0.66168 0.53046
vt 0.72371 0.53336
vt 0.70719 0.56519
vt 0.69975 0.46048
vt 0.66724 0.46035
vt 0.66760 0.58521
vt 0.74500 0.62373
vt 0.96141 0.56041
vt 0.74500 0.43429
vt 0.98600 0.43429
vt 0.96141 0.56041
vt 0.98600 0.43429
vt 0.89760 0.25137
vt 0.74500 0.24079
vt 0.89760 0.25137
vt 0.66347 0.88243
vt 0.71731 0.88093
vt 0.69033 0.78475
vt 0.72393 0.99067
vt 0.66340 0.98942
vt 0.66409 0.78492
vt 0.65949 0.78259
vt 0.68418 0.99441
vt 0.66366 0.99416
vt 0.60154 0.88329
vt 0.55864 0.98809
vt 0.60154 0.98742
vt 0.56069 0.88038
vt 0.57524 0.78516
vt 0.60146 0.78589
vt 0.60539 0.78259
vt 0.58260 0.99500
vt 0.60150 0.99500
vt 0.74500 0.43429
vt 0.96141 0.56041
vt 0.74500 0.62373
vt 0.98600 0.43429
vt 0.96141 0.56041
vt 0.98600 0.43429
vt 0.89760 0.25137
vt 0.74500 0.24079
vt 0.89760 0.25137
vt 0.69033 0.78475
vt 0.71731 0.88093
vt 0.66347 0.88243
vt 0.72393 0.99067
vt 0.66340 0.98942
vt 0.66409 0.78492
vt 0.65949 0.78259
vt 0.68418 0.99441
vt 0.66366 0.99416
vt 0.60154 0.98742
vt 0.55864 0.98809
vt 0.60154 0.88329
vt 0.56069 0.88038
vt 0.57524 0.78516
vt 0.60146 0.78589
vt 0.60539 0.78259
vt 0.58260 0.99500
vt 0.60150 0.99500
vt 0.69590 0.62901
vt 0.71267 0.72615
vt 0.67639 0.72621
vt 0.71980 0.77312
vt 0.66595 0.77314
vt 0.67639 0.72621
vt 0.66595 0.77314
vt 0.71267 0.72615
vt 0.67639 0.72621
vt 0.66595 0.77314
vt 0.71980 0.77312
vt 0.71267 0.72615
vt 0.71980 0.77312
vt 0.71267 0.72615
vt 0.67639 0.72621
vt 0.71980 0.77312
vt 0.66595 0.77314
vt 0.67639 0.72621
vt 0.71267 0.72615
vt 0.67639 0.72621
vt 0.71980 0.77312
vt 0.67639 0.72621
vt 0.66595 0.77314
vt 0.66595 0.77314
vt 0.67639 0.72621
vt 0.71267 0.72615
vt 0.71980 0.77312
vt 0.66595 0.77314
vt 0.67639 0.72621
vt 0.71267 0.72615
vt 0.66595 0.77314
vt 0.71980 0.77312
vt 0.71267 0.72615
vt 0.71980 0.77312
vt 0.67639 0.72621
vt 0.71267 0.72615
vt 0.71980 0.77312
vt 0.66595 0.77314
vt 0.71267 0.72615
vt 0.67639 0.72621
vt 0.71980 0.77312
vt 0.66595 0.77314
vt 0.48649 0.54185
vt 0.42069 0.57588
vt 0.40569 0.48535
vt 0.48649 0.34662
vt 0.40569 0.39481
vt 0.40609 0.13841
vt 0.48649 0.08114
vt 0.40569 0.48535
vt 0.42069 0.57588
vt 0.48649 0.54185
vt 0.48649 0.34662
vt 0.40569 0.39481
vt 0.40609 0.13841
vt 0.48649 0.08114
usemtl m0
f 1/1 2/2 3/3
f 1/1 4/4 2/2
f 5/5 4/4 1/1
f 3/3 2/2 6/6
f 2/2 4/4 6/6
f 6/6 4/4 7/7
f 8/8 9/9 3/3
f 10/10 9/9 8/8
f 10/10 11/11 9/9
f 3/3 12/12 8/8
f 8/8 12/12 10/10
f 12/12 13/13 10/10
f 14/14 15/15 3/3
f 14/14 16/16 15/15
f 17/17 16/16 14/14
f 3/3 18/18 19/19
f 20/20 21/21 19/19
f 19/19 21/21 22/22
f 23/23 21/21 18/18
f 23/23 18/18 3/3
f 24/24 21/21 23/23
f 3/3 25/25 26/26
f 25/25 27/27 26/26
f 26/26 27/27 28/28
f 3/3 29/29 30/30
f 30/30 29/29 31/31
f 29/29 32/32 31/31
f 30/30 33/33 3/3
f 31/31 33/33 30/30
f 31/31 34/34 33/33
f 3/3 35/35 36/36
f 35/35 37/37 36/36
f 36/36 37/37 38/38
f 39/39 40/40 3/3
f 39/39 41/41 40/40
f 42/42 41/41 39/39
f 43/43 44/44 45/45
f 43/43 46/46 44/44
f 47/47 46/46 43/43
f 48/48 47/47 43/43
f 49/49 48/48 43/43
f 50/50 49/49 43/43
f 51/51 52/52 53/53
f 54/54 52/52 51/51
f 55/55 52/52 54/54
f 56/56 52/52 55/55
f 57/57 52/52 56/56
f 58/58 59/59 60/60
f 59/59 58/58 61/61
f 58/58 62/62 61/61
f 61/61 62/62 63/63
f 62/62 64/64 63/63
f 65/65 64/64 62/62
f 64/64 65/65 66/66
f 67/67 66/66 65/65
f 68/68 69/69 70/70
f 71/71 69/69 68/68
f 71/71 72/72 69/69
f 73/73 74/74 75/75
f 73/73 76/76 74/74
f 76/76 77/77 74/74
f 78/78 76/76 73/73
f 79/79 73/73 75/75
f 79/79 75/75 80/80
f 81/81 79/79 80/80
f 82/82 81/81 80/80
f 81/81 83/83 79/79
f 83/83 73/73 79/79
f 83/83 78/78 73/73
f 84/84 83/83 81/81
f 84/84 85/85 83/83
f 85/85 78/78 83/83
f 86/86 81/81 82/82
f 86/86 84/84 81/81
f 84/84 87/87 85/85
f 88/88 87/87 84/84
f 86/86 88/88 84/84
f 88/88 89/89 87/87
f 89/89 90/90 87/87
f 91/91 89/89 88/88
f 92/92 91/91 88/88
f 92/92 88/88 86/86
f 93/93 91/91 92/92
f 94/94 93/93 92/92
f 95/95 92/92 86/86
f 95/95 94/94 92/92
f 95/95 86/86 82/82
f 96/96 94/94 95/95
f 96/96 97/97 94/94
f 96/96 98/98 97/97
f 97/97 98/98 99/99
f 87/87 100/100 85/85
f 87/87 90/90 100/100
f 100/100 90/90 101/101
f 93/93 94/94 102/102
f 94/94 103/103 102/102
f 94/94 97/97 103/103
f 103/103 104/104 102/102
f 103/103 97/97 105/105
f 97/97 99/99 105/105
f 103/103 106/106 104/104
f 103/103 107/107 106/106
f 103/103 105/105 107/107
f 100/100 101/101 108/108
f 109/109 100/100 108/108
f 108/108 110/110 109/109
f 108/108 111/111 110/110
f 110/110 111/111 112/112
f 111/111 113/113 112/112
f 114/114 109/109 110/110
f 112/112 114/114 110/110
f 112/112 115/115 114/114
f 116/116 109/109 114/114
f 117/117 109/109 116/116
f 118/118 116/116 114/114
f 115/115 119/119 114/114
f 114/114 119/119 118/118
f 118/118 119/119 120/120
f 120/120 121/121 118/118
f 120/120 77/77 121/121
f 120/120 122/122 77/77
f 76/76 121/121 77/77
f 119/119 123/123 120/120
f 120/120 123/123 122/122
f 116/116 124/124 117/117
f 121/121 124/124 118/118
f 124/124 121/121 76/76
f 118/118 124/124 116/116
f 76/76 78/78 124/124
f 124/124 78/78 117/117
f 117/117 78/78 125/125
f 125/125 109/109 117/117
f 100/100 109/109 125/125
f 125/125 85/85 100/100
f 125/125 78/78 85/85
f 77/77 122/122 126/126
f 126/126 127/127 77/77
f 74/74 77/77 127/127
f 127/127 128/128 74/74
f 129/129 128/128 127/127
f 122/122 123/123 130/130
f 126/126 122/122 131/131
f 122/122 130/130 131/131
f 131/131 130/130 132/132
f 133/133 131/131 132/132
f 129/129 127/127 133/133
f 133/133 127/127 126/126
f 133/133 132/132 129/129
f 126/126 131/131 133/133
f 132/132 130/130 134/134
f 74/74 128/128 135/135
f 75/75 74/74 135/135
f 75/75 135/135 136/136
f 136/136 137/137 75/75
f 136/136 138/138 137/137
f 137/137 138/138 139/139
f 137/137 139/139 140/140
f 140/140 139/139 141/141
f 141/141 142/142 140/140
f 143/143 137/137 140/140
f 144/144 137/137 143/143
f 143/143 145/145 144/144
f 146/146 145/145 143/143
f 145/145 147/147 144/144
f 139/139 138/138 148/148
f 148/148 149/149 139/139
f 148/148 150/150 149/149
f 151/151 150/150 148/148
f 151/151 148/148 138/138
f 151/151 152/152 150/150
f 139/139 149/149 153/153
f 153/153 149/149 154/154
f 150/150 152/152 155/155
f 156/156 150/150 155/155
f 149/149 150/150 156/156
f 157/157 149/149 156/156
f 156/156 158/158 157/157
f 158/158 156/156 155/155
f 157/157 158/158 159/159
f 160/160 157/157 159/159
f 161/161 157/157 160/160
f 160/160 142/142 161/161
f 142/142 160/160 162/162
f 160/160 159/159 163/163
f 162/162 160/160 163/163
f 163/163 159/159 164/164
f 164/164 165/165 163/163
f 163/163 165/165 166/166
f 163/163 166/166 162/162
f 164/164 167/167 165/165
f 159/159 158/158 168/168
f 169/169 159/159 168/168
f 159/159 169/169 170/170
f 164/164 159/159 170/170
f 167/167 164/164 170/170
f 168/168 171/171 169/169
f 171/171 172/172 169/169
f 169/169 172/172 173/173
f 172/172 174/174 173/173
f 172/172 175/175 174/174
f 173/173 174/174 176/176
f 169/169 173/173 177/177
f 178/178 169/169 177/177
f 170/170 169/169 178/178
f 178/178 177/177 179/179
f 178/178 179/179 180/180
f 178/178 180/180 170/170
f 167/167 170/170 180/180
f 177/177 181/181 179/179
f 177/177 173/173 181/181
f 173/173 176/176 181/181
f 179/179 181/181 182/182
f 181/181 183/183 182/182
f 181/181 176/176 183/183
f 180/180 179/179 184/184
f 179/179 182/182 184/184
f 183/183 185/185 182/182
f 182/182 185/185 186/186
f 182/182 186/186 184/184
f 185/185 187/187 186/186
f 185/185 188/188 187/187
f 186/186 187/187 189/189
f 186/186 189/189 190/190
f 184/184 186/186 190/190
f 190/190 189/189 191/191
f 190/190 191/191 192/192
f 184/184 190/190 193/193
f 190/190 192/192 193/193
f 180/180 184/184 193/193
f 193/193 192/192 194/194
f 192/192 195/195 194/194
f 195/195 196/196 194/194
f 99/99 196/196 195/195
f 183/183 197/197 185/185
f 197/197 188/188 185/185
f 198/198 188/188 197/197
f 199/199 192/192 191/191
f 199/199 200/200 192/192
f 200/200 195/195 192/192
f 199/199 201/201 200/200
f 105/105 195/195 200/200
f 99/99 195/195 105/105
f 201/201 106/106 200/200
f 106/106 107/107 200/200
f 105/105 200/200 107/107
f 202/202 198/198 197/197
f 202/202 197/197 203/203
f 203/203 204/204 202/202
f 204/204 205/205 202/202
f 112/112 205/205 204/204
f 112/112 113/113 205/205
f 204/204 203/203 206/206
f 204/204 206/206 112/112
f 206/206 115/115 112/112
f 206/206 203/203 207/207
f 207/207 203/203 208/208
f 206/206 207/207 209/209
f 206/206 119/119 115/115
f 209/209 119/119 206/206
f 210/210 119/119 209/209
f 209/209 211/211 210/210
f 211/211 175/175 210/210
f 175/175 212/212 210/210
f 175/175 211/211 174/174
f 210/210 123/123 119/119
f 212/212 123/123 210/210
f 208/208 213/213 207/207
f 209/209 213/213 211/211
f 174/174 211/211 213/213
f 207/207 213/213 209/209
f 213/213 176/176 174/174
f 208/208 176/176 213/213
f 214/214 176/176 208/208
f 208/208 203/203 214/214
f 214/214 203/203 197/197
f 197/197 183/183 214/214
f 183/183 176/176 214/214
f 215/215 212/212 175/175
f 175/175 216/216 215/215
f 216/216 175/175 172/172
f 172/172 217/217 216/216
f 216/216 217/217 218/218
f 130/130 123/123 212/212
f 219/219 212/212 215/215
f 219/219 130/130 212/212
f 220/220 130/130 219/219
f 220/220 219/219 221/221
f 221/221 216/216 218/218
f 215/215 216/216 221/221
f 218/218 220/220 221/221
f 221/221 219/219 215/215
f 134/134 130/130 220/220
f 171/171 217/217 172/172
f 218/218 217/217 222/222
f 218/218 222/222 220/220
f 222/222 217/217 223/223
f 224/224 134/134 220/220
f 132/132 134/134 224/224
f 225/225 132/132 224/224
f 226/226 132/132 225/225
f 132/132 226/226 129/129
f 226/226 128/128 129/129
f 227/227 128/128 226/226
f 228/228 226/226 225/225
f 227/227 226/226 228/228
f 228/228 225/225 224/224
f 228/228 224/224 229/229
f 230/230 220/220 222/222
f 224/224 220/220 230/230
f 230/230 222/222 231/231
f 231/231 222/222 223/223
f 229/229 224/224 231/231
f 224/224 230/230 231/231
f 232/232 233/233 234/234
f 233/233 235/235 234/234
f 234/234 235/235 236/236
f 236/236 235/235 237/237
f 236/236 237/237 238/238
f 238/238 239/239 236/236
f 236/236 240/240 234/234
f 236/236 239/239 240/240
f 241/241 240/240 239/239
f 241/241 242/242 240/240
f 241/241 243/243 242/242
f 234/234 240/240 244/244
f 242/242 244/244 240/240
f 244/244 232/232 234/234
f 245/245 232/232 244/244
f 245/245 246/246 232/232
f 247/247 246/246 245/245
f 248/248 246/246 247/247
f 249/249 248/248 247/247
f 250/250 248/248 249/249
f 250/250 251/251 248/248
f 250/250 249/249 252/252
f 253/253 252/252 249/249
f 247/247 253/253 249/249
f 242/242 254/254 244/244
f 254/254 242/242 255/255
f 256/256 253/253 247/247
f 245/245 256/256 247/247
f 257/257 256/256 245/245
f 256/256 257/257 258/258
f 253/253 256/256 258/258
f 258/258 252/252 253/253
f 259/259 245/245 244/244
f 259/259 260/260 245/245
f 260/260 259/259 261/261
f 248/248 251/251 262/262
f 263/263 248/248 262/262
f 264/264 248/248 263/263
f 264/264 246/246 248/248
f 265/265 263/263 262/262
f 266/266 246/246 264/264
f 232/232 246/246 266/266
f 267/267 232/232 266/266
f 263/263 265/265 268/268
f 263/263 268/268 264/264
f 264/264 268/268 269/269
f 264/264 269/269 266/266
f 266/266 269/269 270/270
f 271/271 270/270 269/269
f 271/271 269/269 268/268
f 268/268 265/265 271/271
f 267/267 266/266 272/272
f 266/266 273/273 272/272
f 274/274 272/272 273/273
f 275/275 232/232 267/267
f 275/275 233/233 232/232
f 275/275 235/235 233/233
f 276/276 235/235 275/275
f 237/237 235/235 276/276
f 277/277 237/237 276/276
f 276/276 278/278 277/277
f 275/275 279/279 276/276
f 279/279 278/278 276/276
f 267/267 279/279 275/275
f 278/278 279/279 280/280
f 279/279 281/281 280/280
f 281/281 282/282 280/280
f 279/279 267/267 281/281
f 267/267 283/283 281/281
f 284/284 281/281 283/283
f 285/285 286/286 146/146
f 166/166 286/286 285/285
f 285/285 146/146 287/287
f 287/287 146/146 143/143
f 143/143 140/140 287/287
f 162/162 166/166 285/285
f 287/287 140/140 142/142
f 142/142 162/162 285/285
f 287/287 142/142 285/285
f 288/288 89/89 289/289
f 288/288 289/289 290/290
f 290/290 291/291 288/288
f 289/289 89/89 91/91
f 89/89 288/288 90/90
f 292/292 291/291 293/293
f 293/293 294/294 292/292
f 294/294 187/187 292/292
f 189/189 187/187 294/294
f 188/188 292/292 187/187
f 295/295 101/101 90/90
f 295/295 296/296 101/101
f 101/101 296/296 108/108
f 297/297 108/108 296/296
f 297/297 111/111 108/108
f 298/298 297/297 296/296
f 298/298 299/299 297/297
f 297/297 113/113 111/111
f 300/300 113/113 297/297
f 301/301 113/113 300/300
f 205/205 113/113 301/301
f 202/202 205/205 301/301
f 202/202 301/301 302/302
f 202/202 302/302 198/198
f 198/198 302/302 303/303
f 198/198 303/303 188/188
f 301/301 304/304 302/302
f 301/301 305/305 304/304
f 300/300 297/297 306/306
f 305/305 301/301 306/306
f 306/306 297/297 299/299
f 306/306 301/301 300/300
f 307/307 305/305 306/306
f 306/306 299/299 307/307
f 308/308 309/309 310/310
f 311/311 309/309 308/308
f 308/308 310/310 312/312
f 311/311 308/308 313/313
f 311/311 313/313 314/314
f 314/314 313/313 315/315
f 316/316 312/312 310/310
f 317/317 312/312 316/316
f 80/80 75/75 318/318
f 318/318 82/82 80/80
f 318/318 75/75 137/137
f 318/318 137/137 144/144
f 318/318 144/144 147/147
f 318/318 147/147 82/82
f 319/319 320/320 321/321
f 320/320 322/322 321/321
f 321/321 322/322 323/323
f 321/321 323/323 324/324
f 321/321 324/324 325/325
f 321/321 325/325 326/326
f 327/327 328/328 329/329
f 329/329 328/328 330/330
f 330/330 328/328 331/331
f 331/331 328/328 332/332
f 332/332 328/328 333/333
f 334/334 149/149 157/157
f 154/154 149/149 334/334
f 335/335 336/336 337/337
f 338/338 337/337 336/336
f 338/338 339/339 337/337
f 340/340 339/339 338/338
f 340/340 341/341 339/339
f 339/339 341/341 342/342
f 343/343 342/342 341/341
f 342/342 343/343 344/344
f 345/345 346/346 347/347
f 347/347 346/346 348/348
f 346/346 349/349 348/348
f 350/350 351/351 352/352
f 351/351 353/353 352/352
f 354/354 350/350 352/352
f 354/354 352/352 355/355
f 355/355 352/352 356/356
f 356/356 352/352 357/357
f 352/352 358/358 357/357
f 358/358 352/352 353/353
f 359/359 360/360 361/361
f 359/359 362/362 360/360
f 363/363 362/362 359/359
f 359/359 361/361 364/364
f 361/361 365/365 364/364
f 366/366 362/362 363/363
f 367/367 366/366 363/363
f 368/368 369/369 370/370
f 369/369 368/368 371/371
f 371/371 368/368 372/372
f 372/372 368/368 373/373
f 374/374 372/372 373/373
f 370/370 369/369 375/375
f 376/376 370/370 375/375
f 377/377 378/378 379/379
f 377/377 380/380 378/378
f 377/377 379/379 381/381
f 382/382 377/377 381/381
f 383/383 377/377 382/382
f 384/384 377/377 383/383
f 384/384 385/385 377/377
f 380/380 377/377 385/385
f 386/386 387/387 388/388
f 387/387 389/389 388/388
f 388/388 389/389 390/390
f 391/391 386/386 388/388
f 391/391 392/392 386/386
f 390/390 389/389 393/393
f 390/390 393/393 394/394
f 395/395 396/396 397/397
f 398/398 397/397 396/396
f 399/399 397/397 398/398
f 400/400 397/397 399/399
f 400/400 399/399 401/401
f 402/402 396/396 395/395
f 402/402 395/395 403/403
f 404/404 405/405 406/406
f 405/405 407/407 406/406
f 406/406 407/407 408/408
f 409/409 405/405 404/404
f 409/409 407/407 405/405
f 410/410 407/407 409/409
f 404/404 411/411 412/412
f 412/412 411/411 413/413
f 411/411 414/414 413/413
f 412/412 415/415 404/404
f 413/413 415/415 412/412
f 413/413 416/416 415/415
f 404/404 417/417 418/418
f 417/417 419/419 418/418
f 418/418 419/419 420/420
f 421/421 422/422 404/404
f 404/404 422/422 423/423
f 422/422 424/424 423/423
f 421/421 424/424 425/425
f 426/426 424/424 421/421
f 423/423 424/424 427/427
f 428/428 429/429 404/404
f 428/428 430/430 429/429
f 431/431 430/430 428/428
f 432/432 433/433 404/404
f 434/434 433/433 432/432
f 434/434 435/435 433/433
f 404/404 436/436 432/432
f 432/432 436/436 434/434
f 436/436 437/437 434/434
f 438/438 439/439 404/404
f 438/438 440/440 439/439
f 441/441 440/440 438/438
f 404/404 442/442 443/443
f 442/442 444/444 443/443
f 443/443 444/444 445/445
usemtl m1
f 446/446 447/447 448/448
f 446/446 448/448 449/449
f 450/450 449/449 448/448
f 450/450 451/451 449/449
f 449/449 451/451 452/452
f 453/453 454/454 455/455
f 456/456 453/453 455/455
f 453/453 456/456 457/457
f 456/456 458/458 457/457
f 459/459 458/458 456/456
