mtllib Npc_60078.mtl
o Npc_60078
v 0.17280 -0.06300 2.78100 0.639 0.000 0.000
v 0.18000 -0.07200 2.72340 0.686 0.000 0.000
v 0.18540 0.00000 2.78100 0.639 0.000 0.000
v 0.19080 0.00000 2.72340 0.678 0.000 0.000
v 0.15480 -0.12420 2.72340 0.694 0.000 0.000
v 0.14400 -0.11700 2.78100 0.647 0.000 0.000
v 0.11700 -0.14940 2.72340 0.718 0.000 0.000
v 0.09900 -0.14580 2.78100 0.671 0.000 0.000
v 0.02160 -0.17100 2.72340 0.729 0.000 0.000
v 0.01800 -0.16020 2.78100 0.694 0.000 0.000
v -0.06300 -0.15840 2.78100 0.710 0.000 0.000
v 0.01800 -0.12600 2.84400 0.671 0.000 0.000
v -0.06300 -0.12600 2.83860 0.694 0.000 0.000
v -0.06300 -0.16560 2.72340 0.729 0.000 0.000
v 0.11340 -0.11340 2.82240 0.639 0.000 0.000
v 0.13680 -0.06300 2.83680 0.627 0.000 0.000
v 0.06660 -0.12420 2.83680 0.659 0.000 0.000
v -0.12960 -0.12600 2.78100 0.702 0.000 0.000
v 0.01800 -0.07200 2.87820 0.655 0.000 0.000
v -0.06300 -0.07200 2.86920 0.682 0.000 0.000
v 0.07740 -0.07200 2.86560 0.639 0.000 0.000
v 0.08100 0.00000 2.88000 0.635 0.000 0.000
v 0.15120 0.00000 2.84220 0.624 0.000 0.000
v 0.01800 0.00000 2.88900 0.655 0.000 0.000
v 0.02700 -0.16740 2.65500 0.749 0.000 0.000
v -0.06300 -0.16200 2.65500 0.765 0.000 0.000
v 0.00000 -0.10800 2.53800 0.875 0.000 0.000
v -0.06300 -0.10800 2.53800 0.847 0.000 0.000
v -0.01800 -0.07200 2.46600 0.875 0.000 0.000
v -0.06300 -0.05400 2.46600 0.875 0.000 0.000
v -0.11700 -0.06840 2.53800 0.835 0.000 0.000
v -0.11700 -0.10800 2.59200 0.808 0.000 0.000
v -0.15840 -0.05760 2.59200 0.812 0.000 0.000
v -0.13500 0.00000 2.53800 0.835 0.000 0.000
v -0.17100 0.00000 2.59200 0.816 0.000 0.000
v -0.09900 0.00000 2.46600 0.875 0.000 0.000
v 0.04500 -0.06840 2.48400 0.863 0.000 0.000
v 0.03600 -0.04500 2.45700 0.875 0.000 0.000
v -0.12960 -0.12960 2.65500 0.769 0.000 0.000
v -0.13500 -0.13500 2.72340 0.725 0.000 0.000
v -0.18000 -0.07200 2.65500 0.769 0.000 0.000
v -0.18000 -0.08100 2.72340 0.722 0.000 0.000
v -0.19800 0.00000 2.72340 0.722 0.000 0.000
v -0.19440 0.00000 2.65500 0.773 0.000 0.000
v -0.17100 -0.07200 2.78100 0.686 0.000 0.000
v -0.18720 0.00000 2.78100 0.678 0.000 0.000
v -0.16200 0.00000 2.82600 0.671 0.000 0.000
v -0.13500 -0.07200 2.83500 0.678 0.000 0.000
v -0.12600 0.00000 2.86200 0.671 0.000 0.000
v -0.06300 0.00000 2.88360 0.675 0.000 0.000
v -0.18000 0.07200 2.65500 0.769 0.000 0.000
v -0.18000 0.08100 2.72340 0.722 0.000 0.000
v 0.01800 0.07200 2.87820 0.655 0.000 0.000
v 0.07740 0.07200 2.86560 0.639 0.000 0.000
v 0.13680 0.06300 2.83680 0.627 0.000 0.000
v 0.06660 0.12420 2.83680 0.659 0.000 0.000
v 0.01800 0.12600 2.84400 0.671 0.000 0.000
v 0.01800 0.16020 2.78100 0.694 0.000 0.000
v -0.06300 0.15840 2.78100 0.710 0.000 0.000
v -0.06300 0.12600 2.83860 0.694 0.000 0.000
v 0.02160 0.17100 2.72340 0.729 0.000 0.000
v 0.09900 0.14580 2.78100 0.671 0.000 0.000
v 0.11700 0.14940 2.72340 0.718 0.000 0.000
v 0.14400 0.11700 2.78100 0.647 0.000 0.000
v 0.15480 0.12420 2.72340 0.694 0.000 0.000
v 0.17280 0.06300 2.78100 0.639 0.000 0.000
v 0.18000 0.07200 2.72340 0.686 0.000 0.000
v -0.06300 0.16560 2.72340 0.729 0.000 0.000
v 0.11340 0.11340 2.82240 0.639 0.000 0.000
v 0.02700 0.16740 2.65500 0.749 0.000 0.000
v -0.06300 0.16200 2.65500 0.765 0.000 0.000
v 0.00000 0.10800 2.53800 0.875 0.000 0.000
v -0.06300 0.10800 2.53800 0.847 0.000 0.000
v -0.01800 0.07200 2.46600 0.875 0.000 0.000
v -0.06300 0.05400 2.46600 0.875 0.000 0.000
v -0.11700 0.06840 2.53800 0.835 0.000 0.000
v -0.11700 0.10800 2.59200 0.808 0.000 0.000
v -0.15840 0.05760 2.59200 0.812 0.000 0.000
v 0.04500 0.06840 2.48400 0.863 0.000 0.000
v 0.03600 0.04500 2.45700 0.875 0.000 0.000
v -0.12960 0.12960 2.65500 0.769 0.000 0.000
v -0.13500 0.13500 2.72340 0.725 0.000 0.000
v -0.12960 0.12600 2.78100 0.702 0.000 0.000
v -0.17100 0.07200 2.78100 0.686 0.000 0.000
v -0.13500 0.07200 2.83500 0.678 0.000 0.000
v -0.06300 0.07200 2.86920 0.682 0.000 0.000
v 0.06300 0.00000 2.44800 0.875 0.000 0.000
v 0.10080 -0.04320 2.45700 0.827 0.000 0.000
v 0.08100 -0.09900 2.49120 0.776 0.000 0.000
v 0.04860 -0.12240 2.51460 0.796 0.000 0.000
v 0.03600 -0.14400 2.55600 0.776 0.000 0.000
v 0.11520 0.00000 2.44260 0.824 0.000 0.000
v 0.15300 -0.02700 2.44260 0.780 0.000 0.000
v 0.12240 -0.05760 2.46240 0.773 0.000 0.000
v 0.15660 0.00000 2.43900 0.780 0.000 0.000
v 0.10080 0.04320 2.45700 0.827 0.000 0.000
v 0.08100 0.09900 2.49120 0.776 0.000 0.000
v 0.04860 0.12240 2.51460 0.796 0.000 0.000
v 0.03600 0.14400 2.55600 0.776 0.000 0.000
v 0.15300 0.02700 2.44260 0.780 0.000 0.000
v 0.12240 0.05760 2.46240 0.773 0.000 0.000
v 0.18900 -0.02160 2.54340 0.722 0.000 0.000
v 0.19260 0.00000 2.53620 0.769 0.000 0.000
v 0.20880 0.00000 2.54340 0.761 0.000 0.000
v 0.22320 0.00000 2.55960 0.667 0.000 0.000
v 0.18900 0.02160 2.54340 0.722 0.000 0.000
v 0.02700 -0.16740 2.65500 0.749 0.000 0.000
v 0.07200 -0.15840 2.65500 0.745 0.000 0.000
v 0.02160 -0.17100 2.72340 0.729 0.000 0.000
v 0.07920 -0.14940 2.58120 0.761 0.000 0.000
v 0.03600 -0.14400 2.55600 0.776 0.000 0.000
v 0.10620 -0.12600 2.53440 0.773 0.000 0.000
v 0.11700 -0.14040 2.58300 0.729 0.000 0.000
v 0.11880 -0.13860 2.61900 0.725 0.000 0.000
v 0.14580 -0.12420 2.58300 0.710 0.000 0.000
v 0.14040 -0.12600 2.61900 0.745 0.000 0.000
v 0.12060 -0.14400 2.65500 0.733 0.000 0.000
v 0.15660 -0.10260 2.59740 0.682 0.000 0.000
v 0.16560 -0.09360 2.57400 0.686 0.000 0.000
v 0.15120 -0.07740 2.63340 1.000 0.000 0.000
v 0.16920 -0.04680 2.59920 0.702 0.000 0.000
v 0.17100 -0.02520 2.62260 0.714 0.000 0.000
v 0.17460 -0.04500 2.66040 0.714 0.000 0.000
v 0.14940 -0.12240 2.65500 0.745 0.000 0.000
v 0.18000 -0.07200 2.72340 0.686 0.000 0.000
v 0.15480 -0.12420 2.72340 0.694 0.000 0.000
v 0.16380 -0.08820 2.54160 0.733 0.000 0.000
v 0.14400 -0.11340 2.54160 0.745 0.000 0.000
v 0.14760 -0.08640 2.50920 0.761 0.000 0.000
v 0.12600 -0.09720 2.50200 0.769 0.000 0.000
v 0.08100 -0.09900 2.49120 0.776 0.000 0.000
v 0.14580 -0.06300 2.47320 0.757 0.000 0.000
v 0.16560 -0.02700 2.45160 0.741 0.000 0.000
v 0.16560 -0.04680 2.49120 0.753 0.000 0.000
v 0.15300 -0.02700 2.44260 0.780 0.000 0.000
v 0.12240 -0.05760 2.46240 0.773 0.000 0.000
v 0.16200 -0.06480 2.51280 0.820 0.000 0.000
v 0.16020 -0.07380 2.52180 0.776 0.000 0.000
v 0.17640 -0.05040 2.53800 0.714 0.000 0.000
v 0.18360 -0.02700 2.51100 0.725 0.000 0.000
v 0.17460 -0.02880 2.50560 0.855 0.000 0.000
v 0.17820 0.00000 2.50380 0.847 0.000 0.000
v 0.17820 -0.02880 2.49660 0.737 0.000 0.000
v 0.18180 0.00000 2.49480 0.722 0.000 0.000
v 0.19080 0.00000 2.51100 0.714 0.000 0.000
v 0.18900 -0.02160 2.54340 0.722 0.000 0.000
v 0.19260 0.00000 2.53620 0.769 0.000 0.000
v 0.17100 0.00000 2.48040 0.776 0.000 0.000
v 0.16740 0.00000 2.44620 0.725 0.000 0.000
v 0.15660 0.00000 2.43900 0.780 0.000 0.000
v 0.17640 -0.04680 2.57400 0.678 0.000 0.000
v 0.18540 -0.02520 2.58120 0.686 0.000 0.000
v 0.22320 0.00000 2.55960 0.667 0.000 0.000
v 0.20160 0.00000 2.59020 0.635 0.000 0.000
v 0.18180 0.00000 2.62440 0.667 0.000 0.000
v 0.18360 0.00000 2.66040 0.706 0.000 0.000
v 0.19080 0.00000 2.72340 0.678 0.000 0.000
v 0.17460 0.04500 2.66040 0.714 0.000 0.000
v 0.17100 0.02520 2.62260 0.714 0.000 0.000
v 0.15120 0.07740 2.63340 1.000 0.000 0.000
v 0.16920 0.04680 2.59920 0.702 0.000 0.000
v 0.15660 0.10260 2.59740 0.682 0.000 0.000
v 0.14040 0.12600 2.61900 0.745 0.000 0.000
v 0.14580 0.12420 2.58300 0.710 0.000 0.000
v 0.16560 0.09360 2.57400 0.686 0.000 0.000
v 0.14940 0.12240 2.65500 0.745 0.000 0.000
v 0.18000 0.07200 2.72340 0.686 0.000 0.000
v 0.15480 0.12420 2.72340 0.694 0.000 0.000
v 0.11880 0.13860 2.61900 0.725 0.000 0.000
v 0.12060 0.14400 2.65500 0.733 0.000 0.000
v 0.11700 0.14040 2.58300 0.729 0.000 0.000
v 0.16380 0.08820 2.54160 0.733 0.000 0.000
v 0.14400 0.11340 2.54160 0.745 0.000 0.000
v 0.14760 0.08640 2.50920 0.761 0.000 0.000
v 0.12600 0.09720 2.50200 0.769 0.000 0.000
v 0.10620 0.12600 2.53440 0.773 0.000 0.000
v 0.08100 0.09900 2.49120 0.776 0.000 0.000
v 0.07920 0.14940 2.58120 0.761 0.000 0.000
v 0.03600 0.14400 2.55600 0.776 0.000 0.000
v 0.02700 0.16740 2.65500 0.749 0.000 0.000
v 0.07200 0.15840 2.65500 0.745 0.000 0.000
v 0.02160 0.17100 2.72340 0.729 0.000 0.000
v 0.14580 0.06300 2.47320 0.757 0.000 0.000
v 0.16560 0.02700 2.45160 0.741 0.000 0.000
v 0.16560 0.04680 2.49120 0.753 0.000 0.000
v 0.15300 0.02700 2.44260 0.780 0.000 0.000
v 0.12240 0.05760 2.46240 0.773 0.000 0.000
v 0.16200 0.06480 2.51280 0.820 0.000 0.000
v 0.16020 0.07380 2.52180 0.776 0.000 0.000
v 0.17640 0.05040 2.53800 0.714 0.000 0.000
v 0.18360 0.02700 2.51100 0.725 0.000 0.000
v 0.17460 0.02880 2.50560 0.855 0.000 0.000
v 0.17820 0.02880 2.49660 0.737 0.000 0.000
v 0.18900 0.02160 2.54340 0.722 0.000 0.000
v 0.17640 0.04680 2.57400 0.678 0.000 0.000
v 0.18540 0.02520 2.58120 0.686 0.000 0.000
v 0.11700 -0.14940 2.72340 0.718 0.000 0.000
v 0.04860 -0.12240 2.51460 0.796 0.000 0.000
v 0.11700 0.14940 2.72340 0.718 0.000 0.000
v 0.04860 0.12240 2.51460 0.796 0.000 0.000
v 0.15660 -0.11160 2.57760 0.000 0.000 0.706
v 0.16560 -0.09360 2.57580 0.000 0.000 0.686
v 0.15480 -0.11160 2.59200 0.000 0.000 0.690
v 0.16380 -0.09360 2.58660 0.000 0.000 0.686
v 0.14400 -0.12600 2.60280 0.000 0.000 0.729
v 0.14580 -0.12600 2.58300 0.000 0.000 0.714
v 0.13500 -0.13320 2.59740 0.000 0.000 0.722
v 0.13140 -0.13140 2.61900 0.000 0.000 0.737
v 0.17280 -0.06480 2.57400 0.000 0.000 0.682
v 0.17100 -0.06480 2.57940 0.000 0.000 0.686
v 0.17460 -0.05580 2.57400 0.000 0.000 0.682
v 0.17640 -0.04860 2.56320 0.000 0.000 0.686
v 0.16380 -0.09540 2.56140 0.000 0.000 0.714
v 0.16200 -0.09180 2.54160 0.000 0.000 0.733
v 0.16560 -0.09000 2.55780 0.000 0.000 0.710
v 0.15840 -0.09720 2.54160 0.000 0.000 0.737
v 0.15840 -0.08460 2.52360 0.000 0.000 0.757
v 0.15480 -0.08820 2.52180 0.000 0.000 0.753
v 0.15480 -0.07200 2.50200 0.000 0.000 0.757
v 0.14580 -0.12240 2.56500 0.000 0.000 0.725
v 0.14220 -0.11700 2.54160 0.000 0.000 0.745
v 0.16200 -0.10080 2.55960 0.000 0.000 0.718
v 0.15480 -0.10080 2.54160 0.000 0.000 0.737
v 0.14580 -0.12240 2.57220 0.000 0.000 0.718
v 0.16560 -0.09180 2.56500 0.000 0.000 0.698
v 0.16920 -0.08100 2.55600 0.000 0.000 0.710
v 0.17100 -0.07560 2.55960 0.000 0.000 0.698
v 0.17460 -0.06300 2.55060 0.000 0.000 0.706
v 0.13680 -0.12960 2.57760 0.000 0.000 0.722
v 0.13320 -0.13140 2.57400 0.000 0.000 0.725
v 0.12240 -0.13860 2.59200 0.000 0.000 0.725
v 0.15120 -0.08820 2.51460 0.000 0.000 0.757
v 0.13680 -0.10260 2.51640 0.000 0.000 0.761
v 0.14040 -0.09180 2.50560 0.000 0.000 0.765
v 0.15300 -0.07020 2.49300 0.000 0.000 0.757
v 0.15300 -0.11340 2.65140 0.000 0.000 0.000
v 0.15120 -0.10800 2.63160 0.000 0.000 0.000
v 0.16020 -0.09360 2.65320 0.000 0.000 0.000
v 0.14580 -0.12420 2.63520 0.000 0.000 0.000
v 0.14580 -0.11880 2.62080 0.000 0.000 0.000
v 0.15300 -0.10440 2.61900 0.000 0.000 0.000
v 0.15120 -0.10800 2.61000 0.000 0.000 0.000
v 0.15660 -0.09360 2.60820 0.000 0.000 0.000
v 0.16020 0.09360 2.65320 0.000 0.000 0.000
v 0.15120 0.10800 2.63160 0.000 0.000 0.000
v 0.15300 0.11340 2.65140 0.000 0.000 0.000
v 0.14580 0.12420 2.63520 0.000 0.000 0.000
v 0.14580 0.11880 2.62080 0.000 0.000 0.000
v 0.15300 0.10440 2.61900 0.000 0.000 0.000
v 0.15120 0.10800 2.61000 0.000 0.000 0.000
v 0.15660 0.09360 2.60820 0.000 0.000 0.000
v 0.15120 -0.10800 2.63160 0.000 0.890 0.000
v 0.15300 -0.10440 2.61900 0.000 0.733 0.000
v 0.15840 -0.07740 2.63340 0.000 1.000 0.000
v 0.15660 -0.09360 2.60820 0.000 0.675 0.000
v 0.16020 -0.07920 2.60640 0.000 0.639 0.000
v 0.16200 -0.06660 2.61000 0.000 0.706 0.000
v 0.16380 -0.05760 2.61900 0.000 0.780 0.000
v 0.16380 -0.05400 2.63160 0.000 0.906 0.000
v 0.16560 -0.05760 2.64240 0.000 0.922 0.000
v 0.16560 -0.06660 2.65140 0.000 0.922 0.000
v 0.16380 -0.07920 2.65500 0.000 0.922 0.000
v 0.15480 -0.10440 2.64240 0.000 0.922 0.000
v 0.16020 -0.09360 2.65320 0.000 0.906 0.000
v 0.15840 0.07740 2.63340 0.000 1.000 0.000
v 0.15300 0.10440 2.61900 0.000 0.733 0.000
v 0.15120 0.10800 2.63160 0.000 0.890 0.000
v 0.15660 0.09360 2.60820 0.000 0.675 0.000
v 0.16020 0.07920 2.60640 0.000 0.639 0.000
v 0.16200 0.06660 2.61000 0.000 0.706 0.000
v 0.16380 0.05760 2.61900 0.000 0.780 0.000
v 0.16380 0.05400 2.63160 0.000 0.906 0.000
v 0.16560 0.05760 2.64240 0.000 0.922 0.000
v 0.16560 0.06660 2.65140 0.000 0.922 0.000
v 0.16380 0.07920 2.65500 0.000 0.922 0.000
v 0.15480 0.10440 2.64240 0.000 0.922 0.000
v 0.16020 0.09360 2.65320 0.000 0.906 0.000
v 0.15120 -0.10800 2.63160 0.000 1.000 0.000
v 0.15300 -0.10440 2.61900 0.000 1.000 0.000
v 0.16020 -0.07740 2.63340 0.000 1.000 0.000
v 0.15660 -0.09360 2.60820 0.000 1.000 0.000
v 0.16020 -0.07920 2.60640 0.000 1.000 0.000
v 0.16200 -0.06660 2.61000 0.000 1.000 0.000
v 0.16380 -0.05760 2.61900 0.000 1.000 0.000
v 0.16380 -0.05400 2.63160 0.000 1.000 0.000
v 0.16560 -0.05760 2.64240 0.000 1.000 0.000
v 0.16560 -0.06660 2.65140 0.000 1.000 0.000
v 0.16380 -0.07920 2.65500 0.000 1.000 0.000
v 0.16020 -0.09360 2.65320 0.000 1.000 0.000
v 0.15480 -0.10440 2.64240 0.000 1.000 0.000
v 0.16020 0.07740 2.63340 0.000 1.000 0.000
v 0.15300 0.10440 2.61900 0.000 1.000 0.000
v 0.15120 0.10800 2.63160 0.000 1.000 0.000
v 0.15660 0.09360 2.60820 0.000 1.000 0.000
v 0.16020 0.07920 2.60640 0.000 1.000 0.000
v 0.16200 0.06660 2.61000 0.000 1.000 0.000
v 0.16380 0.05760 2.61900 0.000 1.000 0.000
v 0.16380 0.05400 2.63160 0.000 1.000 0.000
v 0.16560 0.05760 2.64240 0.000 1.000 0.000
v 0.16560 0.06660 2.65140 0.000 1.000 0.000
v 0.16380 0.07920 2.65500 0.000 1.000 0.000
v 0.16020 0.09360 2.65320 0.000 1.000 0.000
v 0.15480 0.10440 2.64240 0.000 1.000 0.000
v 0.13680 -0.13320 2.64600 0.000 0.000 0.886
v 0.14580 -0.12420 2.64060 0.000 0.000 0.933
v 0.14760 -0.12420 2.64600 0.000 0.000 0.957
v 0.14580 -0.12420 2.63520 0.000 0.000 0.910
v 0.15480 -0.10980 2.64780 0.000 0.000 0.867
v 0.13680 -0.13320 2.63160 0.000 0.000 0.933
v 0.15480 -0.11160 2.65680 0.000 0.000 0.957
v 0.14040 -0.12600 2.61900 0.000 0.000 0.933
v 0.15120 -0.10800 2.61000 0.000 0.000 0.945
v 0.14580 -0.11880 2.62080 0.000 0.000 0.933
v 0.16560 -0.06660 2.64960 0.000 0.000 0.855
v 0.16740 -0.05040 2.64060 0.000 0.000 0.910
v 0.16920 -0.06300 2.65680 0.000 0.000 0.945
v 0.16920 -0.04680 2.64420 0.000 0.000 0.957
v 0.17100 -0.03600 2.62980 0.000 0.000 0.906
v 0.16200 -0.08820 2.65140 0.000 0.000 0.839
v 0.16200 -0.08820 2.66040 0.000 0.000 0.929
v 0.15480 -0.11160 2.65680 0.000 0.000 0.957
v 0.15480 -0.10980 2.64780 0.000 0.000 0.867
v 0.13680 -0.13320 2.63160 0.000 0.000 0.933
v 0.14040 -0.12600 2.61900 0.000 0.000 0.933
v 0.14580 -0.12420 2.63520 0.000 0.000 0.910
v 0.14580 -0.11880 2.62080 0.000 0.000 0.933
v 0.14760 0.12420 2.64600 0.000 0.000 0.957
v 0.14580 0.12420 2.64060 0.000 0.000 0.933
v 0.13680 0.13320 2.64600 0.000 0.000 0.886
v 0.15480 0.10980 2.64780 0.000 0.000 0.867
v 0.14580 0.12420 2.63520 0.000 0.000 0.910
v 0.13680 0.13320 2.63160 0.000 0.000 0.933
v 0.15480 0.11160 2.65680 0.000 0.000 0.957
v 0.14580 0.11880 2.62080 0.000 0.000 0.933
v 0.15120 0.10800 2.61000 0.000 0.000 0.945
v 0.14040 0.12600 2.61900 0.000 0.000 0.933
v 0.16920 0.06300 2.65680 0.000 0.000 0.945
v 0.16740 0.05040 2.64060 0.000 0.000 0.910
v 0.16560 0.06660 2.64960 0.000 0.000 0.855
v 0.16920 0.04680 2.64420 0.000 0.000 0.957
v 0.17100 0.03600 2.62980 0.000 0.000 0.906
v 0.16200 0.08820 2.65140 0.000 0.000 0.839
v 0.16200 0.08820 2.66040 0.000 0.000 0.929
v 0.15480 0.11160 2.65680 0.000 0.000 0.957
v 0.15480 0.10980 2.64780 0.000 0.000 0.867
v 0.14580 0.12420 2.63520 0.000 0.000 0.910
v 0.14040 0.12600 2.61900 0.000 0.000 0.933
v 0.13680 0.13320 2.63160 0.000 0.000 0.933
v 0.14580 0.11880 2.62080 0.000 0.000 0.933
v 0.16380 -0.05760 2.61900 0.000 0.000 0.000
v 0.16380 -0.05220 2.61540 0.000 0.000 0.000
v 0.16560 -0.04320 2.62800 0.000 0.000 0.000
v 0.16200 -0.06660 2.61000 0.000 0.000 0.000
v 0.16380 -0.05400 2.63160 0.000 0.000 0.000
v 0.16740 -0.04680 2.64060 0.000 0.000 0.000
v 0.16560 -0.06660 2.65140 0.000 0.000 0.000
v 0.16560 0.04320 2.62800 0.000 0.000 0.000
v 0.16380 0.05220 2.61540 0.000 0.000 0.000
v 0.16380 0.05760 2.61900 0.000 0.000 0.000
v 0.16200 0.06660 2.61000 0.000 0.000 0.000
v 0.16380 0.05400 2.63160 0.000 0.000 0.000
v 0.16740 0.04680 2.64060 0.000 0.000 0.000
v 0.16560 0.06660 2.65140 0.000 0.000 0.000
v 0.15480 -0.11520 2.67120 0.729 0.000 0.000
v 0.14760 -0.12960 2.65500 0.741 0.000 0.000
v 0.15840 -0.10800 2.66400 0.733 0.000 0.000
v 0.16560 -0.09180 2.67840 0.725 0.000 0.000
v 0.16920 -0.07380 2.66760 0.718 0.000 0.000
v 0.17100 -0.06840 2.67480 0.718 0.000 0.000
v 0.17460 -0.04680 2.66040 0.718 0.000 0.000
v 0.15840 0.10800 2.66400 0.733 0.000 0.000
v 0.14760 0.12960 2.65500 0.741 0.000 0.000
v 0.15480 0.11520 2.67120 0.729 0.000 0.000
v 0.16560 0.09180 2.67840 0.725 0.000 0.000
v 0.16920 0.07380 2.66760 0.718 0.000 0.000
v 0.17100 0.06840 2.67480 0.718 0.000 0.000
v 0.17460 0.04680 2.66040 0.718 0.000 0.000
v 0.15840 -0.11340 2.69640 0.000 0.000 1.000
v 0.14400 -0.13860 2.68020 0.000 0.000 1.000
v 0.16200 -0.10800 2.68920 0.000 0.000 1.000
v 0.17460 -0.08100 2.70000 0.000 0.000 1.000
v 0.17640 -0.07380 2.69100 0.000 0.000 1.000
v 0.18000 -0.04860 2.68740 0.000 0.000 1.000
v 0.18180 -0.03600 2.67480 0.000 0.000 1.000
v 0.16200 0.10800 2.68920 0.000 0.000 1.000
v 0.14400 0.13860 2.68020 0.000 0.000 1.000
v 0.15840 0.11340 2.69640 0.000 0.000 1.000
v 0.17460 0.08100 2.70000 0.000 0.000 1.000
v 0.17640 0.07380 2.69100 0.000 0.000 1.000
v 0.18000 0.04860 2.68740 0.000 0.000 1.000
v 0.18180 0.03600 2.67480 0.000 0.000 1.000
v 0.15300 -0.11160 2.62800 0.000 0.251 0.000
v 0.15120 -0.11160 2.61540 0.000 0.251 0.000
v 0.15840 -0.09900 2.62080 0.000 0.251 0.000
v 0.16200 -0.09000 2.62800 0.000 0.251 0.000
v 0.16020 -0.09000 2.61540 0.000 0.251 0.000
v 0.15840 0.09900 2.62080 0.000 0.251 0.000
v 0.15120 0.11160 2.61540 0.000 0.251 0.000
v 0.15300 0.11160 2.62800 0.000 0.251 0.000
v 0.16200 0.09000 2.62800 0.000 0.251 0.000
v 0.16020 0.09000 2.61540 0.000 0.251 0.000
vt 0.10156 0.99219
vt 0.30469 0.99219
vt 0.10156 0.99219
vt 0.27344 0.99219
vt 0.33594 0.99219
vt 0.14844 0.99219
vt 0.39844 0.99219
vt 0.24219 0.99219
vt 0.44531 0.99219
vt 0.33594 0.99219
vt 0.38281 0.99219
vt 0.24219 0.99219
vt 0.33594 0.99219
vt 0.44531 0.99219
vt 0.11719 0.99219
vt 0.03906 0.99219
vt 0.19531 0.99219
vt 0.35156 0.99219
vt 0.17969 0.99219
vt 0.28906 0.99219
vt 0.10156 0.99219
vt 0.08594 0.99219
vt 0.00781 0.99219
vt 0.17969 0.99219
vt 0.50781 0.99219
vt 0.55469 0.99219
vt 0.99219 0.99219
vt 0.86719 0.99219
vt 0.99219 0.99219
vt 0.99219 0.99219
vt 0.80469 0.99219
vt 0.69531 0.99219
vt 0.71094 0.99219
vt 0.80469 0.99219
vt 0.72656 0.99219
vt 0.99219 0.99219
vt 0.92969 0.99219
vt 0.99219 0.99219
vt 0.57031 0.99219
vt 0.42969 0.99219
vt 0.57031 0.99219
vt 0.41406 0.99219
vt 0.41406 0.99219
vt 0.58594 0.99219
vt 0.30469 0.99219
vt 0.27344 0.99219
vt 0.24219 0.99219
vt 0.27344 0.99219
vt 0.24219 0.99219
vt 0.25781 0.99219
vt 0.57031 0.99219
vt 0.41406 0.99219
vt 0.17969 0.99219
vt 0.10156 0.99219
vt 0.03906 0.99219
vt 0.19531 0.99219
vt 0.24219 0.99219
vt 0.33594 0.99219
vt 0.38281 0.99219
vt 0.33594 0.99219
vt 0.44531 0.99219
vt 0.24219 0.99219
vt 0.39844 0.99219
vt 0.14844 0.99219
vt 0.33594 0.99219
vt 0.10156 0.99219
vt 0.30469 0.99219
vt 0.44531 0.99219
vt 0.11719 0.99219
vt 0.50781 0.99219
vt 0.55469 0.99219
vt 0.99219 0.99219
vt 0.86719 0.99219
vt 0.99219 0.99219
vt 0.99219 0.99219
vt 0.80469 0.99219
vt 0.69531 0.99219
vt 0.71094 0.99219
vt 0.92969 0.99219
vt 0.99219 0.99219
vt 0.57031 0.99219
vt 0.42969 0.99219
vt 0.35156 0.99219
vt 0.30469 0.99219
vt 0.27344 0.99219
vt 0.28906 0.99219
vt 0.99219 0.99219
vt 0.77344 0.99219
vt 0.60156 0.99219
vt 0.66406 0.99219
vt 0.60156 0.99219
vt 0.75781 0.99219
vt 0.61719 0.99219
vt 0.58594 0.99219
vt 0.61719 0.99219
vt 0.77344 0.99219
vt 0.60156 0.99219
vt 0.66406 0.99219
vt 0.60156 0.99219
vt 0.61719 0.99219
vt 0.58594 0.99219
vt 0.69531 0.22656
vt 0.69531 0.00781
vt 0.50781 0.00781
vt 0.33594 0.00781
vt 0.69531 0.22656
vt 0.78906 0.75781
vt 0.63281 0.75781
vt 0.78906 0.96094
vt 0.61719 0.49219
vt 0.72656 0.41406
vt 0.47656 0.32031
vt 0.49219 0.49219
vt 0.49219 0.63281
vt 0.39844 0.49219
vt 0.39844 0.63281
vt 0.47656 0.75781
vt 0.30469 0.55469
vt 0.27344 0.46094
vt 0.25781 0.66406
vt 0.16406 0.55469
vt 0.10156 0.63281
vt 0.14844 0.77344
vt 0.36719 0.75781
vt 0.21094 0.96094
vt 0.35156 0.96094
vt 0.27344 0.35156
vt 0.36719 0.35156
vt 0.28906 0.22656
vt 0.36719 0.19531
vt 0.50781 0.14844
vt 0.22656 0.10156
vt 0.08594 0.05469
vt 0.14844 0.17969
vt 0.10156 0.00781
vt 0.27344 0.05469
vt 0.21094 0.24219
vt 0.24219 0.28906
vt 0.16406 0.36719
vt 0.08594 0.28906
vt 0.08594 0.24219
vt 0.00781 0.24219
vt 0.08594 0.19531
vt 0.00781 0.19531
vt 0.00781 0.28906
vt 0.08594 0.38281
vt 0.00781 0.36719
vt 0.00781 0.14844
vt 0.00781 0.05469
vt 0.00781 0.00781
vt 0.14844 0.47656
vt 0.08594 0.49219
vt 0.00781 0.38281
vt 0.00781 0.50781
vt 0.00781 0.64844
vt 0.00781 0.77344
vt 0.00781 0.96094
vt 0.14844 0.77344
vt 0.10156 0.63281
vt 0.25781 0.66406
vt 0.16406 0.55469
vt 0.30469 0.55469
vt 0.39844 0.63281
vt 0.39844 0.49219
vt 0.27344 0.46094
vt 0.36719 0.75781
vt 0.21094 0.96094
vt 0.35156 0.96094
vt 0.49219 0.63281
vt 0.47656 0.75781
vt 0.49219 0.49219
vt 0.27344 0.35156
vt 0.36719 0.35156
vt 0.28906 0.22656
vt 0.36719 0.19531
vt 0.47656 0.32031
vt 0.50781 0.14844
vt 0.61719 0.49219
vt 0.72656 0.41406
vt 0.78906 0.75781
vt 0.63281 0.75781
vt 0.78906 0.96094
vt 0.22656 0.10156
vt 0.08594 0.05469
vt 0.14844 0.17969
vt 0.10156 0.00781
vt 0.27344 0.05469
vt 0.21094 0.24219
vt 0.24219 0.28906
vt 0.16406 0.36719
vt 0.08594 0.28906
vt 0.08594 0.24219
vt 0.08594 0.19531
vt 0.08594 0.38281
vt 0.14844 0.47656
vt 0.08594 0.49219
vt 0.49219 0.96094
vt 0.66406 0.25781
vt 0.49219 0.96094
vt 0.66406 0.25781
vt 0.34356 0.47156
vt 0.27306 0.46856
vt 0.33956 0.53044
vt 0.27556 0.50881
vt 0.39944 0.56969
vt 0.40344 0.49319
vt 0.44169 0.54506
vt 0.43669 0.63444
vt 0.19631 0.47056
vt 0.19931 0.48619
vt 0.17156 0.47406
vt 0.15494 0.44331
vt 0.28706 0.41769
vt 0.28506 0.35156
vt 0.27144 0.40806
vt 0.30469 0.35156
vt 0.26544 0.28706
vt 0.28306 0.27544
vt 0.23819 0.20894
vt 0.39018 0.43351
vt 0.37793 0.35333
vt 0.30681 0.41173
vt 0.32022 0.35124
vt 0.39194 0.45554
vt 0.27200 0.43100
vt 0.24300 0.40800
vt 0.22600 0.42400
vt 0.19200 0.39900
vt 0.42642 0.47450
vt 0.43560 0.45940
vt 0.47783 0.52596
vt 0.28954 0.24870
vt 0.35571 0.25417
vt 0.31874 0.21230
vt 0.23202 0.17714
vt 0.80469 0.58594
vt 0.99219 0.30469
vt 0.99219 0.58594
vt 0.80469 0.36719
vt 0.80469 0.27344
vt 0.99219 0.17969
vt 0.80469 0.16406
vt 0.99219 0.00781
vt 0.99219 0.58594
vt 0.99219 0.30469
vt 0.80469 0.58594
vt 0.80469 0.36719
vt 0.80469 0.27344
vt 0.99219 0.17969
vt 0.80469 0.16406
vt 0.99219 0.00781
vt 0.99219 0.97656
vt 0.99219 0.97656
vt 0.00781 0.97656
vt 0.99219 0.97656
vt 0.99219 0.97656
vt 0.99219 0.97656
vt 0.99219 0.97656
vt 0.99219 0.97656
vt 0.99219 0.97656
vt 0.99219 0.97656
vt 0.99219 0.97656
vt 0.99219 0.97656
vt 0.99219 0.97656
vt 0.00781 0.97656
vt 0.99219 0.97656
vt 0.99219 0.97656
vt 0.99219 0.97656
vt 0.99219 0.97656
vt 0.99219 0.97656
vt 0.99219 0.97656
vt 0.99219 0.97656
vt 0.99219 0.97656
vt 0.99219 0.97656
vt 0.99219 0.97656
vt 0.99219 0.97656
vt 0.99219 0.97656
vt 0.00781 0.97656
vt 0.00781 0.97656
vt 0.00781 0.97656
vt 0.00781 0.97656
vt 0.00781 0.97656
vt 0.00781 0.97656
vt 0.00781 0.97656
vt 0.00781 0.97656
vt 0.00781 0.97656
vt 0.00781 0.97656
vt 0.00781 0.97656
vt 0.00781 0.97656
vt 0.00781 0.97656
vt 0.00781 0.97656
vt 0.00781 0.97656
vt 0.00781 0.97656
vt 0.00781 0.97656
vt 0.00781 0.97656
vt 0.00781 0.97656
vt 0.00781 0.97656
vt 0.00781 0.97656
vt 0.00781 0.97656
vt 0.00781 0.97656
vt 0.00781 0.97656
vt 0.00781 0.97656
vt 0.00781 0.97656
vt 0.80469 0.60156
vt 0.94531 0.86719
vt 0.80469 0.78906
vt 0.99219 0.96094
vt 0.99219 0.60156
vt 0.80469 0.96094
vt 0.80469 0.60156
vt 0.80469 0.60156
vt 0.99219 0.96094
vt 0.99219 0.60156
vt 0.99219 0.96094
vt 0.99219 0.60156
vt 0.80469 0.96094
vt 0.80469 0.60156
vt 0.99219 0.96094
vt 0.99219 0.60156
vt 0.80469 0.60156
vt 0.80469 0.96094
vt 0.99219 0.96094
vt 0.80469 0.60156
vt 0.80469 0.96094
vt 0.99219 0.60156
vt 0.99219 0.96094
vt 0.80469 0.78906
vt 0.94531 0.86719
vt 0.80469 0.60156
vt 0.99219 0.60156
vt 0.99219 0.96094
vt 0.80469 0.96094
vt 0.80469 0.60156
vt 0.99219 0.60156
vt 0.99219 0.96094
vt 0.80469 0.60156
vt 0.80469 0.96094
vt 0.99219 0.60156
vt 0.99219 0.96094
vt 0.80469 0.60156
vt 0.99219 0.96094
vt 0.99219 0.60156
vt 0.80469 0.60156
vt 0.80469 0.96094
vt 0.99219 0.96094
vt 0.99219 0.60156
vt 0.80469 0.96094
vt 0.80469 0.60156
vt 0.99219 0.96094
vt 0.99219 0.21094
vt 0.80469 0.16406
vt 0.80469 0.39844
vt 0.99219 0.00781
vt 0.99219 0.38281
vt 0.80469 0.58594
vt 0.99219 0.58594
vt 0.80469 0.39844
vt 0.80469 0.16406
vt 0.99219 0.21094
vt 0.99219 0.00781
vt 0.99219 0.38281
vt 0.80469 0.58594
vt 0.99219 0.58594
vt 0.99219 0.99219
vt 0.99219 0.99219
vt 0.99219 0.99219
vt 0.99219 0.99219
vt 0.99219 0.99219
vt 0.99219 0.99219
vt 0.99219 0.99219
vt 0.99219 0.99219
vt 0.99219 0.99219
vt 0.99219 0.99219
vt 0.99219 0.99219
vt 0.99219 0.99219
vt 0.99219 0.99219
vt 0.99219 0.99219
vt 0.11719 0.47656
vt 0.00781 0.10156
vt 0.22656 0.47656
vt 0.39844 0.82031
vt 0.52344 0.80469
vt 0.77344 0.99219
vt 0.99219 0.99219
vt 0.22656 0.47656
vt 0.00781 0.10156
vt 0.11719 0.47656
vt 0.39844 0.82031
vt 0.52344 0.80469
vt 0.77344 0.99219
vt 0.99219 0.99219
vt 0.92969 0.00781
vt 0.71094 0.22656
vt 0.71094 0.00781
vt 0.71094 0.22656
vt 0.92969 0.00781
vt 0.71094 0.00781
vt 0.71094 0.22656
vt 0.92969 0.00781
vt 0.71094 0.22656
vt 0.92969 0.00781
usemtl m0
f 1/1 2/2 3/3
f 2/2 4/4 3/3
f 5/5 2/2 1/1
f 6/6 5/5 1/1
f 7/7 5/5 6/6
f 8/8 7/7 6/6
f 9/9 7/7 8/8
f 10/10 9/9 8/8
f 11/11 9/9 10/10
f 11/11 10/10 12/12
f 13/13 11/11 12/12
f 14/14 9/9 11/11
f 8/8 6/6 15/15
f 15/15 6/6 16/16
f 6/6 1/1 16/16
f 17/17 8/8 15/15
f 10/10 8/8 17/17
f 12/12 10/10 17/17
f 18/18 11/11 13/13
f 19/19 13/13 12/12
f 12/12 17/17 19/19
f 20/20 13/13 19/19
f 19/19 17/17 21/21
f 17/17 15/15 21/21
f 21/21 15/15 16/16
f 21/21 16/16 22/22
f 19/19 21/21 22/22
f 22/22 16/16 23/23
f 24/24 19/19 22/22
f 14/14 25/25 9/9
f 26/26 25/25 14/14
f 26/26 27/27 25/25
f 28/28 27/27 26/26
f 28/28 29/29 27/27
f 30/30 29/29 28/28
f 31/31 30/30 28/28
f 31/31 28/28 32/32
f 32/32 28/28 26/26
f 33/33 31/31 32/32
f 34/34 31/31 33/33
f 35/35 34/34 33/33
f 36/36 30/30 31/31
f 34/34 36/36 31/31
f 27/27 29/29 37/37
f 29/29 38/38 37/37
f 39/39 32/32 26/26
f 39/39 26/26 40/40
f 41/41 39/39 40/40
f 41/41 32/32 39/39
f 33/33 32/32 41/41
f 35/35 33/33 41/41
f 40/40 26/26 14/14
f 40/40 14/14 11/11
f 18/18 40/40 11/11
f 42/42 40/40 18/18
f 42/42 41/41 40/40
f 43/43 41/41 42/42
f 44/44 41/41 43/43
f 44/44 35/35 41/41
f 45/45 42/42 18/18
f 43/43 42/42 46/46
f 46/46 42/42 45/45
f 46/46 45/45 47/47
f 47/47 45/45 48/48
f 45/45 18/18 48/48
f 49/49 47/47 48/48
f 49/49 48/48 20/20
f 50/50 49/49 20/20
f 50/50 20/20 19/19
f 50/50 19/19 24/24
f 20/20 48/48 13/13
f 48/48 18/18 13/13
f 43/43 51/51 44/44
f 52/52 51/51 43/43
f 46/46 52/52 43/43
f 24/24 53/53 50/50
f 22/22 53/53 24/24
f 22/22 54/54 53/53
f 22/22 55/55 54/54
f 23/23 55/55 22/22
f 54/54 56/56 53/53
f 53/53 56/56 57/57
f 56/56 58/58 57/57
f 57/57 58/58 59/59
f 57/57 59/59 60/60
f 57/57 60/60 53/53
f 58/58 61/61 59/59
f 62/62 61/61 58/58
f 56/56 62/62 58/58
f 62/62 63/63 61/61
f 64/64 63/63 62/62
f 64/64 65/65 63/63
f 66/66 65/65 64/64
f 55/55 66/66 64/64
f 23/23 66/66 55/55
f 66/66 67/67 65/65
f 3/3 67/67 66/66
f 23/23 3/3 66/66
f 1/1 3/3 23/23
f 16/16 1/1 23/23
f 3/3 4/4 67/67
f 59/59 61/61 68/68
f 69/69 64/64 62/62
f 55/55 64/64 69/69
f 69/69 62/62 56/56
f 61/61 70/70 68/68
f 68/68 70/70 71/71
f 70/70 72/72 71/71
f 71/71 72/72 73/73
f 72/72 74/74 73/73
f 73/73 74/74 75/75
f 73/73 75/75 76/76
f 77/77 73/73 76/76
f 71/71 73/73 77/77
f 77/77 76/76 78/78
f 78/78 76/76 34/34
f 78/78 34/34 35/35
f 76/76 75/75 36/36
f 76/76 36/36 34/34
f 79/79 74/74 72/72
f 79/79 80/80 74/74
f 71/71 77/77 81/81
f 82/82 71/71 81/81
f 82/82 81/81 51/51
f 81/81 77/77 51/51
f 51/51 77/77 78/78
f 51/51 78/78 35/35
f 68/68 71/71 82/82
f 59/59 68/68 82/82
f 59/59 82/82 83/83
f 60/60 59/59 83/83
f 83/83 82/82 52/52
f 82/82 51/51 52/52
f 83/83 52/52 84/84
f 51/51 35/35 44/44
f 84/84 52/52 46/46
f 47/47 84/84 46/46
f 85/85 84/84 47/47
f 85/85 83/83 84/84
f 60/60 83/83 85/85
f 85/85 47/47 49/49
f 86/86 85/85 49/49
f 60/60 85/85 86/86
f 53/53 60/60 86/86
f 53/53 86/86 50/50
f 86/86 49/49 50/50
f 38/38 87/87 37/37
f 37/37 87/87 88/88
f 37/37 88/88 89/89
f 90/90 37/37 89/89
f 27/27 37/37 90/90
f 27/27 90/90 91/91
f 25/25 27/27 91/91
f 87/87 92/92 88/88
f 92/92 93/93 88/88
f 88/88 93/93 94/94
f 89/89 88/88 94/94
f 92/92 95/95 93/93
f 96/96 92/92 87/87
f 96/96 87/87 79/79
f 79/79 87/87 80/80
f 97/97 96/96 79/79
f 97/97 79/79 98/98
f 98/98 79/79 72/72
f 99/99 98/98 72/72
f 99/99 72/72 70/70
f 100/100 95/95 92/92
f 96/96 100/100 92/92
f 101/101 100/100 96/96
f 101/101 96/96 97/97
f 102/102 103/103 104/104
f 102/102 104/104 105/105
f 104/104 103/103 106/106
f 105/105 104/104 106/106
f 107/107 108/108 109/109
f 107/107 110/110 108/108
f 107/107 111/111 110/110
f 111/111 112/112 110/110
f 110/110 112/112 113/113
f 108/108 110/110 114/114
f 114/114 110/110 113/113
f 113/113 115/115 114/114
f 114/114 115/115 116/116
f 114/114 116/116 117/117
f 108/108 114/114 117/117
f 116/116 115/115 118/118
f 115/115 119/119 118/118
f 116/116 118/118 120/120
f 120/120 118/118 121/121
f 118/118 119/119 121/121
f 120/120 121/121 122/122
f 120/120 122/122 123/123
f 124/124 120/120 123/123
f 117/117 116/116 124/124
f 124/124 116/116 120/120
f 125/125 124/124 123/123
f 126/126 124/124 125/125
f 117/117 124/124 126/126
f 115/115 127/127 119/119
f 128/128 127/127 115/115
f 113/113 128/128 115/115
f 128/128 129/129 127/127
f 128/128 130/130 129/129
f 112/112 130/130 128/128
f 112/112 131/131 130/130
f 130/130 132/132 129/129
f 131/131 132/132 130/130
f 132/132 133/133 129/129
f 129/129 133/133 134/134
f 132/132 135/135 133/133
f 136/136 135/135 132/132
f 131/131 136/136 132/132
f 129/129 134/134 137/137
f 127/127 129/129 138/138
f 138/138 129/129 137/137
f 127/127 138/138 139/139
f 137/137 140/140 138/138
f 138/138 140/140 139/139
f 137/137 141/141 140/140
f 141/141 142/142 140/140
f 141/141 143/143 142/142
f 137/137 134/134 143/143
f 137/137 143/143 141/141
f 143/143 144/144 142/142
f 140/140 142/142 145/145
f 140/140 145/145 146/146
f 139/139 140/140 146/146
f 146/146 145/145 147/147
f 143/143 148/148 144/144
f 134/134 148/148 143/143
f 134/134 133/133 148/148
f 133/133 149/149 148/148
f 135/135 150/150 149/149
f 133/133 135/135 149/149
f 151/151 139/139 146/146
f 119/119 139/139 151/151
f 151/151 146/146 152/152
f 121/121 151/151 152/152
f 119/119 151/151 121/121
f 152/152 146/146 153/153
f 152/152 153/153 154/154
f 121/121 152/152 122/122
f 122/122 152/152 154/154
f 122/122 154/154 155/155
f 123/123 122/122 155/155
f 123/123 155/155 156/156
f 123/123 156/156 125/125
f 125/125 156/156 157/157
f 156/156 155/155 158/158
f 155/155 159/159 158/158
f 155/155 154/154 159/159
f 158/158 159/159 160/160
f 159/159 161/161 160/160
f 161/161 162/162 160/160
f 160/160 162/162 163/163
f 162/162 164/164 163/163
f 162/162 165/165 164/164
f 161/161 165/165 162/162
f 158/158 160/160 166/166
f 160/160 163/163 166/166
f 158/158 166/166 167/167
f 157/157 156/156 167/167
f 167/167 156/156 158/158
f 167/167 166/166 168/168
f 163/163 164/164 169/169
f 170/170 163/163 169/169
f 168/168 166/166 170/170
f 166/166 163/163 170/170
f 169/169 164/164 171/171
f 165/165 172/172 164/164
f 164/164 172/172 173/173
f 164/164 173/173 171/171
f 172/172 174/174 173/173
f 174/174 175/175 173/173
f 173/173 175/175 176/176
f 173/173 176/176 171/171
f 175/175 177/177 176/176
f 171/171 176/176 178/178
f 171/171 178/178 169/169
f 178/178 176/176 179/179
f 178/178 179/179 180/180
f 169/169 178/178 181/181
f 181/181 178/178 180/180
f 170/170 169/169 181/181
f 182/182 181/181 180/180
f 174/174 183/183 175/175
f 175/175 183/183 177/177
f 174/174 184/184 183/183
f 185/185 184/184 174/174
f 184/184 186/186 183/183
f 183/183 186/186 187/187
f 183/183 187/187 177/177
f 188/188 185/185 174/174
f 188/188 174/174 189/189
f 189/189 174/174 172/172
f 190/190 189/189 172/172
f 189/189 191/191 188/188
f 190/190 191/191 189/189
f 191/191 192/192 188/188
f 191/191 142/142 192/192
f 142/142 193/193 192/192
f 193/193 185/185 188/188
f 192/192 193/193 188/188
f 142/142 144/144 193/193
f 145/145 142/142 191/191
f 194/194 145/145 191/191
f 194/194 191/191 190/190
f 147/147 145/145 194/194
f 144/144 148/148 193/193
f 193/193 148/148 185/185
f 165/165 190/190 172/172
f 195/195 190/190 165/165
f 194/194 190/190 195/195
f 196/196 194/194 195/195
f 196/196 195/195 161/161
f 161/161 195/195 165/165
f 153/153 194/194 196/196
f 154/154 153/153 196/196
f 159/159 196/196 161/161
f 154/154 196/196 159/159
f 148/148 149/149 184/184
f 149/149 186/186 184/184
f 149/149 150/150 186/186
f 148/148 184/184 185/185
f 197/197 117/117 126/126
f 108/108 117/117 197/197
f 109/109 108/108 197/197
f 111/111 198/198 112/112
f 198/198 131/131 112/112
f 113/113 112/112 128/128
f 127/127 139/139 119/119
f 54/54 69/69 56/56
f 55/55 69/69 54/54
f 168/168 170/170 199/199
f 199/199 170/170 181/181
f 199/199 181/181 182/182
f 176/176 200/200 179/179
f 176/176 177/177 200/200
f 201/201 202/202 203/203
f 203/203 202/202 204/204
f 205/205 201/201 203/203
f 206/206 201/201 205/205
f 207/207 206/206 205/205
f 208/208 207/207 205/205
f 202/202 209/209 204/204
f 204/204 209/209 210/210
f 209/209 211/211 210/210
f 209/209 212/212 211/211
f 213/213 214/214 215/215
f 216/216 214/214 213/213
f 216/216 217/217 214/214
f 216/216 218/218 217/217
f 218/218 219/219 217/217
f 220/220 221/221 222/222
f 221/221 223/223 222/222
f 220/220 222/222 224/224
f 224/224 222/222 225/225
f 222/222 226/226 225/225
f 225/225 226/226 227/227
f 226/226 228/228 227/227
f 229/229 220/220 224/224
f 230/230 220/220 229/229
f 231/231 230/230 229/229
f 221/221 232/232 223/223
f 233/233 232/232 221/221
f 233/233 234/234 232/232
f 234/234 235/235 232/232
f 236/236 237/237 238/238
f 239/239 237/237 236/236
f 239/239 240/240 237/237
f 240/240 241/241 237/237
f 240/240 242/242 241/241
f 242/242 243/243 241/241
f 244/244 245/245 246/246
f 246/246 245/245 247/247
f 245/245 248/248 247/247
f 245/245 249/249 248/248
f 249/249 250/250 248/248
f 249/249 251/251 250/250
f 252/252 253/253 254/254
f 253/253 255/255 254/254
f 255/255 256/256 254/254
f 254/254 256/256 257/257
f 254/254 257/257 258/258
f 254/254 258/258 259/259
f 254/254 259/259 260/260
f 261/261 254/254 260/260
f 262/262 254/254 261/261
f 252/252 254/254 263/263
f 264/264 254/254 262/262
f 263/263 254/254 264/264
f 265/265 266/266 267/267
f 265/265 268/268 266/266
f 265/265 269/269 268/268
f 270/270 269/269 265/265
f 271/271 270/270 265/265
f 272/272 271/271 265/265
f 273/273 272/272 265/265
f 273/273 265/265 274/274
f 274/274 265/265 275/275
f 276/276 265/265 267/267
f 275/275 265/265 277/277
f 277/277 265/265 276/276
f 278/278 279/279 280/280
f 279/279 281/281 280/280
f 281/281 282/282 280/280
f 280/280 282/282 283/283
f 280/280 283/283 284/284
f 280/280 284/284 285/285
f 280/280 285/285 286/286
f 287/287 280/280 286/286
f 288/288 280/280 287/287
f 289/289 280/280 288/288
f 278/278 280/280 290/290
f 290/290 280/280 289/289
f 291/291 292/292 293/293
f 291/291 294/294 292/292
f 291/291 295/295 294/294
f 296/296 295/295 291/291
f 297/297 296/296 291/291
f 298/298 297/297 291/291
f 299/299 298/298 291/291
f 299/299 291/291 300/300
f 300/300 291/291 301/301
f 301/301 291/291 302/302
f 303/303 291/291 293/293
f 302/302 291/291 303/303
f 304/304 305/305 306/306
f 306/306 307/307 308/308
f 306/306 309/309 307/307
f 310/310 306/306 308/308
f 311/311 312/312 313/313
f 314/314 315/315 316/316
f 316/316 315/315 317/317
f 315/315 318/318 317/317
f 319/319 314/314 316/316
f 320/320 319/319 316/316
f 321/321 319/319 320/320
f 321/321 322/322 319/319
f 323/323 324/324 325/325
f 325/325 324/324 326/326
f 327/327 328/328 329/329
f 330/330 331/331 327/327
f 331/331 332/332 327/327
f 330/330 327/327 333/333
f 334/334 335/335 336/336
f 337/337 338/338 339/339
f 340/340 338/338 337/337
f 340/340 341/341 338/338
f 337/337 339/339 342/342
f 337/337 342/342 343/343
f 343/343 342/342 344/344
f 342/342 345/345 344/344
f 346/346 347/347 348/348
f 349/349 347/347 346/346
f 350/350 351/351 352/352
f 350/350 353/353 351/351
f 354/354 350/350 352/352
f 354/354 352/352 355/355
f 356/356 354/354 355/355
f 357/357 358/358 359/359
f 358/358 360/360 359/359
f 357/357 359/359 361/361
f 362/362 357/357 361/361
f 362/362 361/361 363/363
f 364/364 365/365 366/366
f 364/364 366/366 367/367
f 367/367 366/366 368/368
f 369/369 367/367 368/368
f 368/368 370/370 369/369
f 371/371 372/372 373/373
f 374/374 371/371 373/373
f 375/375 371/371 374/374
f 375/375 374/374 376/376
f 376/376 377/377 375/375
usemtl m1
f 378/378 379/379 380/380
f 378/378 380/380 381/381
f 381/381 380/380 382/382
f 382/382 383/383 381/381
f 382/382 384/384 383/383
f 385/385 386/386 387/387
f 388/388 385/385 387/387
f 389/389 385/385 388/388
f 388/388 390/390 389/389
f 390/390 391/391 389/389
usemtl m2
f 392/392 393/393 394/394
f 392/392 394/394 395/395
f 393/393 396/396 394/394
f 394/394 396/396 395/395
f 397/397 398/398 399/399
f 400/400 397/397 399/399
f 397/397 401/401 398/398
f 400/400 401/401 397/397
