mtllib Npc_80005.mtl
o Npc_80005
v -0.30285 0.00000 2.16446 0.000 0.749 0.000
v -0.29682 0.00000 2.02685 0.000 0.749 0.000
v -0.28697 -0.13689 2.02952 0.000 0.749 0.000
v -0.28708 -0.11189 2.16441 0.000 0.749 0.000
v -0.20509 -0.24523 2.03218 0.000 0.749 0.000
v -0.19936 -0.22419 2.16434 0.000 0.749 0.000
v -0.08845 -0.30620 2.04215 0.000 0.749 0.000
v -0.16862 -0.29581 1.87495 0.000 0.749 0.000
v -0.27796 -0.16708 1.87495 0.000 0.749 0.000
v -0.28590 0.00000 1.87495 0.000 0.749 0.000
v -0.27000 0.00000 1.71000 0.000 0.749 0.000
v -0.25200 -0.19800 1.71000 0.000 0.749 0.000
v -0.27561 -0.09967 2.28834 0.000 0.749 0.000
v -0.22755 -0.17321 2.30193 0.000 0.749 0.000
v -0.24022 -0.10390 2.41452 0.000 0.749 0.000
v -0.26954 0.00000 2.39652 0.000 0.749 0.000
v -0.29456 0.00000 2.28618 0.000 0.749 0.000
v -0.24750 0.00000 2.52000 0.000 0.749 0.000
v -0.16343 -0.19890 2.43212 0.000 0.749 0.000
v -0.22037 -0.09000 2.52000 0.000 0.749 0.000
v -0.14625 -0.15588 2.52000 0.000 0.749 0.000
v -0.04500 -0.18000 2.52000 0.000 0.749 0.000
v -0.04574 -0.19775 2.46229 0.000 0.749 0.000
v 0.05625 -0.15588 2.52000 0.000 0.749 0.000
v 0.06649 -0.18052 2.42912 0.000 0.749 0.000
v -0.27796 0.16708 1.87495 0.000 0.749 0.000
v -0.25200 0.19800 1.71000 0.000 0.749 0.000
v -0.16200 0.32400 1.71000 0.000 0.749 0.000
v -0.16862 0.29581 1.87495 0.000 0.749 0.000
v -0.20509 0.24523 2.03218 0.000 0.749 0.000
v -0.08845 0.30620 2.04215 0.000 0.749 0.000
v -0.19936 0.22419 2.16434 0.000 0.749 0.000
v -0.28708 0.11189 2.16441 0.000 0.749 0.000
v -0.28697 0.13689 2.02952 0.000 0.749 0.000
v -0.27561 0.09967 2.28834 0.000 0.749 0.000
v -0.22755 0.17321 2.30193 0.000 0.749 0.000
v -0.24022 0.10390 2.41452 0.000 0.749 0.000
v -0.16343 0.19890 2.43212 0.000 0.749 0.000
v -0.22037 0.09000 2.52000 0.000 0.749 0.000
v -0.14625 0.15588 2.52000 0.000 0.749 0.000
v -0.04500 0.18000 2.52000 0.000 0.749 0.000
v -0.04574 0.19775 2.46229 0.000 0.749 0.000
v 0.05625 0.15588 2.52000 0.000 0.749 0.000
v 0.06649 0.18052 2.42912 0.000 0.749 0.000
v 0.03332 -0.33687 2.45365 0.000 0.749 0.000
v 0.08731 -0.36821 2.40143 0.000 0.749 0.000
v 0.07636 -0.27045 2.38423 0.000 0.749 0.000
v 0.12159 -0.27652 2.31280 0.000 0.749 0.000
v 0.08902 -0.37339 2.28226 0.000 0.749 0.000
v 0.11275 -0.29873 2.21083 0.000 0.749 0.000
v 0.00000 -0.27981 2.43225 0.000 0.749 0.000
v -0.03332 -0.33687 2.45365 0.000 0.749 0.000
v -0.10575 -0.27261 2.38495 0.000 0.749 0.000
v -0.09442 -0.36821 2.40143 0.000 0.749 0.000
v -0.14678 -0.27585 2.26987 0.000 0.749 0.000
v -0.13938 -0.37339 2.28226 0.000 0.749 0.000
v -0.12514 -0.48827 2.29198 0.000 0.749 0.000
v -0.08706 -0.47446 2.37640 0.000 0.749 0.000
v -0.04025 -0.41441 2.43842 0.000 0.749 0.000
v -0.03332 -0.33687 2.45365 0.000 0.749 0.000
v -0.00000 -0.45765 2.40921 0.000 0.749 0.000
v 0.04035 -0.41441 2.43842 0.000 0.749 0.000
v 0.03332 -0.33687 2.45365 0.000 0.749 0.000
v 0.08871 -0.47149 2.38507 0.000 0.749 0.000
v 0.13440 -0.48827 2.29198 0.000 0.749 0.000
v -0.12356 -0.69095 2.29500 0.000 0.749 0.000
v -0.05518 -0.66739 2.40201 0.000 0.749 0.000
v 0.05518 -0.64597 2.40201 0.000 0.749 0.000
v 0.12356 -0.62991 2.29500 0.000 0.749 0.000
v 0.04859 -0.76500 2.36698 0.000 0.749 0.000
v 0.09441 -0.72565 2.29487 0.000 0.749 0.000
v -0.05518 -0.66739 2.40201 0.000 0.749 0.000
v -0.05547 -0.76500 2.36714 0.000 0.749 0.000
v 0.04859 -0.76500 2.36698 0.000 0.749 0.000
v 0.05518 -0.64597 2.40201 0.000 0.749 0.000
v -0.10821 -0.76500 2.29487 0.000 0.749 0.000
v -0.13938 -0.37339 2.28226 0.000 0.000 0.000
v -0.14678 -0.27585 2.26987 0.000 0.000 0.000
v -0.08554 -0.31025 2.15611 0.000 0.000 0.000
v -0.07290 -0.38783 2.18203 0.000 0.000 0.000
v -0.09450 -0.47129 2.20599 0.000 0.000 0.000
v -0.12514 -0.48827 2.29198 0.000 0.000 0.000
v -0.12356 -0.69095 2.29500 0.000 0.000 0.000
v -0.05518 -0.66739 2.18799 0.000 0.000 0.000
v -0.05547 -0.76500 2.20747 0.000 0.000 0.000
v -0.10821 -0.76500 2.29487 0.000 0.000 0.000
v -0.08554 -0.31025 2.15611 0.749 0.000 0.000
v -0.14678 -0.27585 2.26987 0.749 0.000 0.000
v -0.19936 -0.22419 2.16434 0.749 0.000 0.000
v -0.22755 -0.17321 2.30193 0.749 0.000 0.000
v -0.10575 -0.27261 2.38495 0.749 0.000 0.000
v -0.16343 -0.19890 2.43212 0.749 0.000 0.000
v 0.00000 -0.27981 2.43225 0.749 0.000 0.000
v -0.04574 -0.19775 2.46229 0.749 0.000 0.000
v 0.06649 -0.18052 2.42912 0.749 0.000 0.000
v 0.07636 -0.27045 2.38423 0.749 0.000 0.000
v -0.08845 -0.30620 2.04215 0.749 0.000 0.000
v 0.29762 0.00000 2.13277 0.000 0.000 0.000
v 0.24089 0.00000 2.29826 0.000 0.000 0.000
v 0.18658 -0.15095 2.33665 0.000 0.000 0.000
v 0.23316 -0.22594 2.11307 0.000 0.000 0.000
v 0.21301 -0.19370 2.04782 0.000 0.000 0.000
v 0.25697 0.00000 2.06147 0.000 0.000 0.000
v 0.26154 -0.19854 1.87857 0.000 0.000 0.000
v 0.30939 0.00000 1.87774 0.000 0.000 0.000
v 0.31500 0.00000 1.71000 0.000 0.000 0.000
v 0.27000 -0.18000 1.71000 0.000 0.000 0.000
v 0.18499 0.00000 2.33280 0.000 0.000 0.000
v 0.13814 -0.08055 2.35260 0.000 0.000 0.000
v 0.15750 0.00000 2.52000 0.000 0.000 0.000
v 0.13037 -0.09000 2.52000 0.000 0.000 0.000
v 0.18658 0.15095 2.33665 0.000 0.000 0.000
v 0.13814 0.08055 2.35260 0.000 0.000 0.000
v 0.23316 0.22594 2.11307 0.000 0.000 0.000
v 0.26154 0.19854 1.87857 0.000 0.000 0.000
v 0.27000 0.18000 1.71000 0.000 0.000 0.000
v 0.21301 0.19370 2.04782 0.000 0.000 0.000
v 0.13037 0.09000 2.52000 0.000 0.000 0.000
v 0.06649 0.18052 2.42912 0.000 0.000 0.000
v 0.13814 0.08055 2.35260 0.000 0.000 0.000
v 0.13037 0.09000 2.52000 0.000 0.000 0.000
v 0.05625 0.15588 2.52000 0.000 0.000 0.000
v -0.08845 -0.30620 2.04215 0.000 0.749 0.000
v -0.16862 -0.29581 1.87495 0.000 0.749 0.000
v -0.00000 -0.34546 1.87495 0.000 0.749 0.000
v 0.07753 -0.31775 2.03774 0.000 0.749 0.000
v 0.14990 -0.32141 1.87495 0.000 0.749 0.000
v 0.21301 -0.19370 2.04782 0.000 0.749 0.000
v 0.26154 -0.19854 1.87857 0.000 0.749 0.000
v 0.16200 -0.32400 1.71000 0.000 0.749 0.000
v 0.27000 -0.18000 1.71000 0.000 0.749 0.000
v -0.16200 -0.32400 1.71000 0.000 0.749 0.000
v 0.00000 -0.36000 1.71000 0.000 0.749 0.000
v 0.11275 -0.29873 2.21083 0.000 0.000 0.000
v 0.08902 -0.37339 2.28226 0.000 0.000 0.000
v 0.04809 -0.39370 2.18920 0.000 0.000 0.000
v 0.02537 -0.31775 2.14969 0.000 0.000 0.000
v 0.09450 -0.47129 2.20599 0.000 0.000 0.000
v 0.13440 -0.48827 2.29198 0.000 0.000 0.000
v 0.12356 -0.62991 2.29500 0.000 0.000 0.000
v 0.05518 -0.64597 2.18799 0.000 0.000 0.000
v 0.04859 -0.76500 2.20747 0.000 0.000 0.000
v 0.09441 -0.72565 2.29487 0.000 0.000 0.000
v 0.13814 -0.08055 2.35260 0.000 0.000 0.000
v 0.06649 -0.18052 2.42912 0.000 0.000 0.000
v 0.05625 -0.15588 2.52000 0.000 0.000 0.000
v 0.13037 -0.09000 2.52000 0.000 0.000 0.000
v 0.12159 -0.27652 2.31280 0.749 0.000 0.000
v 0.11275 -0.29873 2.21083 0.749 0.000 0.000
v 0.23316 -0.22594 2.11307 0.749 0.000 0.000
v 0.18658 -0.15095 2.33665 0.749 0.000 0.000
v 0.07636 -0.27045 2.38423 0.749 0.000 0.000
v 0.15268 -0.29551 2.08537 0.749 0.000 0.000
v 0.06649 -0.18052 2.42912 0.749 0.000 0.000
v 0.07753 -0.31775 2.03774 0.749 0.000 0.000
v 0.21301 -0.19370 2.04782 0.749 0.000 0.000
v 0.15268 -0.29551 2.08537 0.749 0.000 0.000
v 0.02537 -0.31775 2.14969 0.749 0.000 0.000
v 0.11275 -0.29873 2.21083 0.749 0.000 0.000
v 0.02537 -0.31775 2.14969 0.749 0.000 0.000
v -0.08554 -0.31025 2.15611 0.749 0.000 0.000
v -0.08845 -0.30620 2.04215 0.749 0.000 0.000
v 0.23316 -0.22594 2.11307 0.749 0.000 0.000
v 0.21301 -0.19370 2.04782 0.749 0.000 0.000
v -0.07290 -0.38783 2.18203 0.000 0.000 0.000
v -0.08554 -0.31025 2.15611 0.000 0.000 0.000
v 0.02537 -0.31775 2.14969 0.000 0.000 0.000
v 0.04809 -0.39370 2.18920 0.000 0.000 0.000
v -0.00000 -0.45448 2.17690 0.000 0.000 0.000
v -0.09450 -0.47129 2.20599 0.000 0.000 0.000
v 0.09450 -0.47129 2.20599 0.000 0.000 0.000
v -0.05518 -0.66739 2.18799 0.000 0.000 0.000
v 0.05518 -0.64597 2.18799 0.000 0.000 0.000
v 0.04859 -0.76500 2.20747 0.000 0.000 0.000
v -0.05547 -0.76500 2.20747 0.000 0.000 0.000
v 0.03332 0.33687 2.45365 0.000 0.749 0.000
v 0.07636 0.27045 2.38423 0.000 0.749 0.000
v 0.08731 0.36821 2.40143 0.000 0.749 0.000
v 0.12159 0.27652 2.31280 0.000 0.749 0.000
v 0.08902 0.37339 2.28226 0.000 0.749 0.000
v 0.11275 0.29873 2.21083 0.000 0.749 0.000
v 0.00000 0.27981 2.43225 0.000 0.749 0.000
v -0.03332 0.33687 2.45365 0.000 0.749 0.000
v -0.10575 0.27261 2.38495 0.000 0.749 0.000
v -0.09442 0.36821 2.40143 0.000 0.749 0.000
v -0.14678 0.27585 2.26987 0.000 0.749 0.000
v -0.13938 0.37339 2.28226 0.000 0.749 0.000
v -0.12514 0.48827 2.29198 0.000 0.749 0.000
v -0.08706 0.47446 2.37640 0.000 0.749 0.000
v -0.04025 0.41441 2.43842 0.000 0.749 0.000
v -0.03332 0.33687 2.45365 0.000 0.749 0.000
v -0.00000 0.45765 2.40921 0.000 0.749 0.000
v 0.04035 0.41441 2.43842 0.000 0.749 0.000
v 0.03332 0.33687 2.45365 0.000 0.749 0.000
v 0.08871 0.47149 2.38507 0.000 0.749 0.000
v 0.13440 0.48827 2.29198 0.000 0.749 0.000
v -0.12356 0.69095 2.29500 0.000 0.749 0.000
v -0.05519 0.66739 2.40201 0.000 0.749 0.000
v 0.05518 0.64597 2.40201 0.000 0.749 0.000
v 0.12356 0.62991 2.29500 0.000 0.749 0.000
v 0.04859 0.76500 2.36698 0.000 0.749 0.000
v 0.09441 0.72565 2.29487 0.000 0.749 0.000
v -0.05519 0.66739 2.40201 0.000 0.749 0.000
v -0.05547 0.76500 2.36714 0.000 0.749 0.000
v 0.04859 0.76500 2.36698 0.000 0.749 0.000
v 0.05518 0.64597 2.40201 0.000 0.749 0.000
v -0.10821 0.76500 2.29487 0.000 0.749 0.000
v -0.13938 0.37339 2.28226 0.000 0.000 0.000
v -0.08554 0.31025 2.15611 0.000 0.000 0.000
v -0.14678 0.27585 2.26987 0.000 0.000 0.000
v -0.07290 0.38783 2.18203 0.000 0.000 0.000
v -0.09450 0.47129 2.20599 0.000 0.000 0.000
v -0.12514 0.48827 2.29198 0.000 0.000 0.000
v -0.12356 0.69095 2.29500 0.000 0.000 0.000
v -0.05519 0.66739 2.18799 0.000 0.000 0.000
v -0.05547 0.76500 2.20747 0.000 0.000 0.000
v -0.10821 0.76500 2.29487 0.000 0.000 0.000
v -0.08554 0.31025 2.15611 0.749 0.000 0.000
v -0.19936 0.22419 2.16434 0.749 0.000 0.000
v -0.14678 0.27585 2.26987 0.749 0.000 0.000
v -0.22755 0.17321 2.30193 0.749 0.000 0.000
v -0.10575 0.27261 2.38495 0.749 0.000 0.000
v -0.16343 0.19890 2.43212 0.749 0.000 0.000
v 0.00000 0.27981 2.43225 0.749 0.000 0.000
v -0.04574 0.19775 2.46229 0.749 0.000 0.000
v 0.06649 0.18052 2.42912 0.749 0.000 0.000
v 0.07636 0.27045 2.38423 0.749 0.000 0.000
v -0.08845 0.30620 2.04215 0.749 0.000 0.000
v -0.08845 0.30620 2.04215 0.000 0.749 0.000
v -0.00000 0.34546 1.87495 0.000 0.749 0.000
v -0.16862 0.29581 1.87495 0.000 0.749 0.000
v 0.07753 0.31775 2.03774 0.000 0.749 0.000
v 0.14990 0.32141 1.87495 0.000 0.749 0.000
v 0.21301 0.19370 2.04782 0.000 0.749 0.000
v 0.26154 0.19854 1.87857 0.000 0.749 0.000
v 0.16200 0.32400 1.71000 0.000 0.749 0.000
v 0.27000 0.18000 1.71000 0.000 0.749 0.000
v 0.00000 0.36000 1.71000 0.000 0.749 0.000
v 0.11275 0.29873 2.21083 0.000 0.000 0.000
v 0.04809 0.39370 2.18920 0.000 0.000 0.000
v 0.08902 0.37339 2.28226 0.000 0.000 0.000
v 0.02537 0.31775 2.14969 0.000 0.000 0.000
v 0.09450 0.47129 2.20599 0.000 0.000 0.000
v 0.13440 0.48827 2.29198 0.000 0.000 0.000
v 0.12356 0.62991 2.29500 0.000 0.000 0.000
v 0.05518 0.64597 2.18799 0.000 0.000 0.000
v 0.04859 0.76500 2.20747 0.000 0.000 0.000
v 0.09441 0.72565 2.29487 0.000 0.000 0.000
v 0.12159 0.27652 2.31280 0.749 0.000 0.000
v 0.23316 0.22594 2.11307 0.749 0.000 0.000
v 0.11275 0.29873 2.21083 0.749 0.000 0.000
v 0.18658 0.15095 2.33665 0.749 0.000 0.000
v 0.07636 0.27045 2.38423 0.749 0.000 0.000
v 0.15268 0.29551 2.08537 0.749 0.000 0.000
v 0.06649 0.18052 2.42912 0.749 0.000 0.000
v 0.07753 0.31775 2.03774 0.749 0.000 0.000
v 0.15268 0.29551 2.08537 0.749 0.000 0.000
v 0.21301 0.19370 2.04782 0.749 0.000 0.000
v 0.02537 0.31775 2.14969 0.749 0.000 0.000
v 0.11275 0.29873 2.21083 0.749 0.000 0.000
v -0.08554 0.31025 2.15611 0.749 0.000 0.000
v 0.02537 0.31775 2.14969 0.749 0.000 0.000
v -0.08845 0.30620 2.04215 0.749 0.000 0.000
v 0.23316 0.22594 2.11307 0.749 0.000 0.000
v 0.21301 0.19370 2.04782 0.749 0.000 0.000
v -0.07290 0.38783 2.18203 0.000 0.000 0.000
v 0.02537 0.31775 2.14969 0.000 0.000 0.000
v -0.08554 0.31025 2.15611 0.000 0.000 0.000
v 0.04809 0.39370 2.18920 0.000 0.000 0.000
v -0.00000 0.45448 2.17690 0.000 0.000 0.000
v -0.09450 0.47129 2.20599 0.000 0.000 0.000
v 0.09450 0.47129 2.20599 0.000 0.000 0.000
v -0.05519 0.66739 2.18799 0.000 0.000 0.000
v 0.05518 0.64597 2.18799 0.000 0.000 0.000
v 0.04859 0.76500 2.20747 0.000 0.000 0.000
v -0.05547 0.76500 2.20747 0.000 0.000 0.000
v -0.05547 -0.76500 2.20747 0.000 0.000 0.000
v -0.09076 -0.87889 2.20844 0.000 0.000 0.000
v -0.13542 -0.84791 2.29500 0.000 0.000 0.000
v -0.10821 -0.76500 2.29487 0.000 0.000 0.000
v -0.05547 -0.76500 2.20747 0.000 0.000 0.000
v 0.04859 -0.76500 2.20747 0.000 0.000 0.000
v 0.00462 -0.89005 2.17258 0.000 0.000 0.000
v -0.09076 -0.87889 2.20844 0.000 0.000 0.000
v 0.09763 -0.89915 2.20844 0.000 0.000 0.000
v 0.13616 -0.89946 2.29500 0.000 0.749 0.000
v 0.09390 -0.80363 2.29493 0.000 0.749 0.000
v 0.04859 -0.76500 2.36698 0.000 0.749 0.000
v 0.09763 -0.89915 2.38156 0.000 0.749 0.000
v -0.05547 -0.76500 2.36714 0.000 0.749 0.000
v -0.10821 -0.76500 2.29487 0.000 0.749 0.000
v -0.13542 -0.84791 2.29500 0.000 0.749 0.000
v -0.09076 -0.87889 2.38156 0.000 0.749 0.000
v 0.00462 -0.89005 2.41742 0.000 0.749 0.000
v 0.04859 -0.76500 2.36698 0.000 0.749 0.000
v 0.09763 -0.89915 2.38156 0.000 0.749 0.000
v 0.09390 -0.80363 2.29493 0.749 0.000 0.000
v 0.09441 -0.72565 2.29487 0.749 0.000 0.000
v 0.04859 -0.76500 2.36698 0.749 0.000 0.000
v 0.04859 -0.76500 2.20747 0.749 0.000 0.000
v 0.13616 -0.89946 2.29500 0.000 0.000 0.000
v 0.09763 -0.89915 2.20844 0.000 0.000 0.000
v 0.04859 -0.76500 2.20747 0.000 0.000 0.000
v 0.09390 -0.80363 2.29493 0.000 0.000 0.000
v -0.11507 -1.57655 2.18349 0.000 0.000 0.749
v -0.09271 -1.55196 2.12371 0.000 0.000 0.749
v -0.10541 -1.60495 2.19533 0.000 0.000 0.749
v -0.10541 -1.60495 2.19533 0.000 0.000 0.749
v -0.09271 -1.55196 2.12371 0.000 0.000 0.749
v -0.08158 -1.58508 2.18914 0.000 0.000 0.749
v 0.16948 -1.49395 2.20426 0.000 0.000 0.749
v 0.15489 -1.55857 2.19595 0.000 0.000 0.749
v 0.16624 -1.47767 2.18475 0.000 0.000 0.749
v 0.14624 -1.49897 2.18196 0.000 0.000 0.749
v -0.00000 -1.64059 2.20594 0.000 0.000 0.749
v -0.00000 -1.62351 2.12704 0.000 0.000 0.749
v 0.01994 -1.62743 2.19823 0.000 0.000 0.749
v -0.02123 -1.62090 2.19749 0.000 0.000 0.749
v 0.10471 -1.64936 2.20586 0.000 0.000 0.749
v 0.10146 -1.64434 2.12062 0.000 0.000 0.749
v 0.11811 -1.62943 2.19346 0.000 0.000 0.749
v 0.08255 -1.63607 2.19206 0.000 0.000 0.749
v -0.00000 -1.26000 2.22077 0.000 0.749 0.000
v 0.09682 -1.26000 2.24438 0.000 0.749 0.000
v 0.10467 -1.30613 2.22930 0.000 0.749 0.000
v 0.10924 -1.26000 2.31610 0.000 0.749 0.000
v 0.15672 -1.40204 2.23164 0.000 0.749 0.000
v 0.13530 -1.39232 2.27695 0.000 0.749 0.000
v 0.12209 -1.40983 2.31134 0.000 0.749 0.000
v 0.05491 -1.32129 2.20255 0.000 0.749 0.000
v 0.13922 -1.36620 2.19755 0.000 0.749 0.000
v 0.09583 -1.38847 2.19211 0.000 0.749 0.000
v 0.13369 -1.46936 2.17264 0.000 0.749 0.000
v 0.16783 -1.45512 2.18239 0.000 0.749 0.000
v 0.15906 -1.52730 2.19249 0.000 0.749 0.000
v 0.17896 -1.46131 2.21533 0.000 0.749 0.000
v 0.15672 -1.40204 2.23164 0.000 0.749 0.000
v 0.07608 -1.38987 2.36102 0.000 0.749 0.000
v 0.13194 -1.49391 2.32700 0.000 0.749 0.000
v 0.09358 -1.52012 2.35584 0.000 0.749 0.000
v 0.05122 -1.26000 2.36923 0.000 0.749 0.000
v 0.10122 -1.61114 2.30609 0.000 0.749 0.000
v 0.12909 -1.57840 2.28735 0.000 0.749 0.000
v 0.13438 -1.61343 2.22966 0.000 0.749 0.000
v 0.10594 -1.64965 2.23303 0.000 0.749 0.000
v 0.10219 -1.64455 2.15746 0.000 0.749 0.000
v 0.13369 -1.46936 2.17264 0.000 0.000 0.000
v 0.15906 -1.52730 2.19249 0.000 0.000 0.000
v 0.12337 -1.48324 2.20527 0.000 0.000 0.000
v 0.14916 -1.48156 2.22907 0.000 0.000 0.000
v 0.17896 -1.46131 2.21533 0.000 0.000 0.000
v 0.09835 -1.43190 2.21893 0.000 0.000 0.000
v 0.09583 -1.38847 2.19211 0.000 0.000 0.000
v 0.12900 -1.42283 2.24717 0.000 0.000 0.000
v 0.17896 -1.46131 2.21533 0.000 0.000 0.000
v 0.15672 -1.40204 2.23164 0.000 0.000 0.000
v 0.13530 -1.39232 2.27695 0.000 0.000 0.000
v 0.09715 -1.42994 2.27768 0.000 0.000 0.000
v 0.12209 -1.40983 2.31134 0.000 0.000 0.000
v 0.09835 -1.43190 2.21893 0.000 0.000 0.000
v 0.04358 -1.41350 2.27448 0.000 0.000 0.000
v 0.00000 -1.36978 2.25394 0.000 0.000 0.000
v 0.02346 -1.49504 2.29174 0.000 0.000 0.000
v -0.02128 -1.49521 2.29342 0.000 0.000 0.000
v -0.02432 -1.56393 2.25670 0.000 0.000 0.000
v -0.04697 -1.51249 2.34439 0.000 0.000 0.000
v 0.02375 -1.56244 2.26120 0.000 0.000 0.000
v 0.04312 -1.50988 2.34459 0.000 0.000 0.000
v 0.03638 -1.59124 2.29154 0.000 0.000 0.000
v 0.03815 -1.62441 2.23546 0.000 0.000 0.000
v -0.00000 -1.62763 2.15741 0.000 0.000 0.000
v -0.03647 -1.61460 2.22856 0.000 0.000 0.000
v -0.03808 -1.58845 2.28636 0.000 0.000 0.000
v -0.03647 -1.61460 2.22856 0.000 0.000 0.000
v -0.06732 -1.34890 2.25360 0.000 0.000 0.000
v -0.07036 -1.49585 2.29495 0.000 0.000 0.000
v -0.00000 -1.26000 2.22077 0.000 0.000 0.000
v -0.11395 -1.48621 2.28965 0.000 0.000 0.000
v -0.11180 -1.34127 2.27880 0.000 0.000 0.000
v -0.12765 -1.48383 2.31496 0.000 0.000 0.000
v -0.09682 -1.26000 2.24438 0.000 0.000 0.000
v -0.10924 -1.26000 2.31610 0.000 0.000 0.000
v -0.09682 -1.26000 2.24438 0.000 0.000 0.000
v -0.06732 -1.34890 2.25360 0.000 0.000 0.000
v -0.04697 -1.51249 2.34439 0.000 0.000 0.000
v -0.06628 -1.58706 2.28985 0.000 0.000 0.000
v -0.07036 -1.49585 2.29495 0.000 0.000 0.000
v -0.08047 -1.55855 2.25770 0.000 0.000 0.000
v -0.07060 -1.60004 2.22674 0.000 0.000 0.000
v -0.11395 -1.48621 2.28965 0.000 0.000 0.000
v -0.11675 -1.55488 2.25801 0.000 0.000 0.000
v -0.12765 -1.48383 2.31496 0.000 0.000 0.000
v -0.13842 -1.56969 2.28969 0.000 0.000 0.000
v -0.13688 -1.58895 2.22853 0.000 0.000 0.000
v -0.09606 -1.56652 2.14704 0.000 0.000 0.000
v -0.02128 -1.49521 2.29342 0.000 0.000 0.000
v 0.10864 -1.48982 2.29518 0.000 0.000 0.000
v 0.06403 -1.49238 2.29237 0.000 0.000 0.000
v 0.06795 -1.55108 2.27272 0.000 0.000 0.000
v 0.10854 -1.54827 2.27021 0.000 0.000 0.000
v 0.11672 -1.58557 2.21288 0.000 0.000 0.000
v 0.12909 -1.57840 2.28735 0.000 0.000 0.000
v 0.13438 -1.61343 2.22966 0.000 0.000 0.000
v 0.10219 -1.64455 2.15746 0.000 0.000 0.000
v 0.07824 -1.58810 2.21182 0.000 0.000 0.000
v 0.06397 -1.62637 2.22779 0.000 0.000 0.000
v 0.06286 -1.59833 2.29597 0.000 0.000 0.000
v 0.04312 -1.50988 2.34459 0.000 0.000 0.000
v 0.06286 -1.59833 2.29597 0.000 0.000 0.000
v 0.12209 -1.40983 2.31134 0.000 0.000 0.000
v 0.13194 -1.49391 2.32700 0.000 0.000 0.000
v 0.06403 -1.49238 2.29237 0.000 0.000 0.000
v -0.04697 -1.51249 2.34439 0.000 0.749 0.000
v -0.00119 -1.51857 2.36603 0.000 0.749 0.000
v 0.00000 -1.37986 2.36939 0.000 0.749 0.000
v -0.07280 -1.36154 2.36003 0.000 0.749 0.000
v -0.09669 -1.51263 2.35377 0.000 0.749 0.000
v -0.05122 -1.26000 2.36923 0.000 0.749 0.000
v 0.05122 -1.26000 2.36923 0.000 0.749 0.000
v -0.11218 -1.34710 2.32461 0.000 0.749 0.000
v -0.12765 -1.48383 2.31496 0.000 0.749 0.000
v -0.10924 -1.26000 2.31610 0.000 0.749 0.000
v -0.11180 -1.34127 2.27880 0.000 0.749 0.000
v -0.13842 -1.56969 2.28969 0.000 0.749 0.000
v -0.10787 -1.60364 2.29923 0.000 0.749 0.000
v -0.13688 -1.58895 2.22853 0.000 0.749 0.000
v -0.10973 -1.62301 2.22239 0.000 0.749 0.000
v -0.09606 -1.56652 2.14704 0.000 0.749 0.000
v -0.04697 -1.51249 2.34439 0.000 0.749 0.000
v -0.00000 -1.61116 2.30186 0.000 0.749 0.000
v -0.03808 -1.58845 2.28636 0.000 0.749 0.000
v -0.00000 -1.64522 2.22683 0.000 0.749 0.000
v -0.03647 -1.61460 2.22856 0.000 0.749 0.000
v -0.00000 -1.62763 2.15741 0.000 0.749 0.000
v 0.04312 -1.50988 2.34459 0.000 0.749 0.000
v 0.06286 -1.59833 2.29597 0.000 0.749 0.000
v 0.10122 -1.61114 2.30609 0.000 0.749 0.000
v 0.10594 -1.64965 2.23303 0.000 0.749 0.000
v 0.09358 -1.52012 2.35584 0.000 0.749 0.000
v 0.07608 -1.38987 2.36102 0.000 0.749 0.000
v 0.04312 -1.50988 2.34459 0.000 0.749 0.000
v 0.00000 -1.37986 2.36939 0.000 0.749 0.000
v 0.05122 -1.26000 2.36923 0.000 0.749 0.000
v -0.00119 -1.51857 2.36603 0.000 0.749 0.000
v 0.06397 -1.62637 2.22779 0.000 0.749 0.000
v 0.10594 -1.64965 2.23303 0.000 0.749 0.000
v 0.10219 -1.64455 2.15746 0.000 0.749 0.000
v 0.03815 -1.62441 2.23546 0.000 0.749 0.000
v 0.03638 -1.59124 2.29154 0.000 0.749 0.000
v -0.00000 -1.61116 2.30186 0.000 0.749 0.000
v 0.04312 -1.50988 2.34459 0.000 0.749 0.000
v -0.00119 -1.51857 2.36603 0.000 0.749 0.000
v -0.00000 -1.64522 2.22683 0.000 0.749 0.000
v -0.00000 -1.62763 2.15741 0.000 0.749 0.000
v -0.10973 -1.62301 2.22239 0.000 0.749 0.000
v -0.07060 -1.60004 2.22674 0.000 0.749 0.000
v -0.06628 -1.58706 2.28985 0.000 0.749 0.000
v -0.09606 -1.56652 2.14704 0.000 0.749 0.000
v -0.10787 -1.60364 2.29923 0.000 0.749 0.000
v -0.09669 -1.51263 2.35377 0.000 0.749 0.000
v 0.05491 -1.32129 2.20255 0.000 0.000 0.000
v -0.00000 -1.26000 2.22077 0.000 0.000 0.000
v -0.00000 -1.26000 2.22077 0.000 0.000 0.749
v -0.05991 -1.14032 2.20300 0.000 0.000 0.749
v 0.05991 -1.14032 2.20300 0.000 0.000 0.749
v 0.00462 -0.89005 2.17258 0.000 0.000 0.749
v 0.09763 -0.89915 2.20844 0.000 0.000 0.749
v -0.09076 -0.87889 2.20844 0.000 0.000 0.749
v -0.09682 -1.26000 2.24438 0.000 0.000 0.749
v -0.11983 -1.14032 2.29500 0.000 0.000 0.749
v -0.12160 -1.03336 2.29500 0.000 0.000 0.749
v -0.05991 -1.14032 2.38700 0.000 0.000 0.749
v -0.10924 -1.26000 2.31610 0.000 0.000 0.749
v -0.10213 -1.00080 2.32470 0.000 0.000 0.749
v -0.09076 -0.87889 2.38156 0.000 0.000 0.749
v 0.00462 -0.89005 2.41742 0.000 0.000 0.749
v -0.12750 -0.90967 2.33773 0.000 0.000 0.749
v -0.13542 -0.84791 2.29500 0.000 0.000 0.749
v -0.15518 -0.92999 2.29500 0.000 0.000 0.749
v -0.05122 -1.26000 2.36923 0.000 0.000 0.749
v 0.05991 -1.14032 2.38700 0.000 0.000 0.749
v 0.09763 -0.89915 2.38156 0.000 0.000 0.749
v 0.05122 -1.26000 2.36923 0.000 0.000 0.749
v -0.09682 -1.26000 2.24438 0.000 0.000 0.749
v -0.10250 -1.00080 2.26530 0.000 0.000 0.749
v -0.09076 -0.87889 2.20844 0.000 0.000 0.749
v -0.12750 -0.90967 2.25227 0.000 0.000 0.749
v -0.12750 -0.90967 2.33773 0.000 0.000 0.749
v -0.24211 -0.71219 2.29500 0.000 0.000 0.749
v -0.20815 -0.85466 2.29500 0.000 0.000 0.749
v -0.15518 -0.92999 2.29500 0.000 0.000 0.749
v -0.12750 -0.90967 2.25227 0.000 0.000 0.749
v 0.11983 -1.14032 2.29500 0.000 0.000 0.749
v 0.13616 -0.89946 2.29500 0.000 0.000 0.749
v 0.09763 -0.89915 2.38156 0.000 0.000 0.749
v 0.05991 -1.14032 2.38700 0.000 0.000 0.749
v 0.09763 -0.89915 2.20844 0.000 0.000 0.749
v 0.05991 -1.14032 2.20300 0.000 0.000 0.749
v 0.09682 -1.26000 2.24438 0.000 0.000 0.749
v -0.00000 -1.26000 2.22077 0.000 0.000 0.749
v 0.10924 -1.26000 2.31610 0.000 0.000 0.749
v 0.05122 -1.26000 2.36923 0.000 0.000 0.749
v -0.05547 0.76500 2.20747 0.000 0.000 0.000
v -0.13542 0.84791 2.29500 0.000 0.000 0.000
v -0.09076 0.87889 2.20844 0.000 0.000 0.000
v -0.10821 0.76500 2.29487 0.000 0.000 0.000
v -0.05547 0.76500 2.20747 0.000 0.000 0.000
v 0.00462 0.89005 2.17258 0.000 0.000 0.000
v 0.04859 0.76500 2.20747 0.000 0.000 0.000
v -0.09076 0.87889 2.20844 0.000 0.000 0.000
v 0.09763 0.89915 2.20844 0.000 0.000 0.000
v 0.13616 0.89946 2.29500 0.000 0.749 0.000
v 0.04859 0.76500 2.36698 0.000 0.749 0.000
v 0.09390 0.80363 2.29493 0.000 0.749 0.000
v 0.09763 0.89915 2.38156 0.000 0.749 0.000
v -0.05547 0.76500 2.36714 0.000 0.749 0.000
v -0.13542 0.84791 2.29500 0.000 0.749 0.000
v -0.10821 0.76500 2.29487 0.000 0.749 0.000
v -0.09076 0.87889 2.38156 0.000 0.749 0.000
v 0.00462 0.89005 2.41742 0.000 0.749 0.000
v 0.04859 0.76500 2.36698 0.000 0.749 0.000
v 0.09763 0.89915 2.38156 0.000 0.749 0.000
v 0.09390 0.80363 2.29493 0.749 0.000 0.000
v 0.04859 0.76500 2.36698 0.749 0.000 0.000
v 0.09441 0.72565 2.29487 0.749 0.000 0.000
v 0.04859 0.76500 2.20747 0.749 0.000 0.000
v 0.13616 0.89946 2.29500 0.000 0.000 0.000
v 0.04859 0.76500 2.20747 0.000 0.000 0.000
v 0.09763 0.89915 2.20844 0.000 0.000 0.000
v 0.09390 0.80363 2.29493 0.000 0.000 0.000
v -0.11507 1.57655 2.18349 0.000 0.000 0.749
v -0.10541 1.60495 2.19533 0.000 0.000 0.749
v -0.09271 1.55196 2.12371 0.000 0.000 0.749
v -0.10541 1.60495 2.19533 0.000 0.000 0.749
v -0.08158 1.58508 2.18914 0.000 0.000 0.749
v -0.09271 1.55196 2.12371 0.000 0.000 0.749
v 0.16948 1.49395 2.20426 0.000 0.000 0.749
v 0.16624 1.47767 2.18475 0.000 0.000 0.749
v 0.15489 1.55857 2.19595 0.000 0.000 0.749
v 0.14624 1.49897 2.18196 0.000 0.000 0.749
v -0.00000 1.64059 2.20594 0.000 0.000 0.749
v 0.01994 1.62743 2.19823 0.000 0.000 0.749
v -0.00000 1.62351 2.12704 0.000 0.000 0.749
v -0.02123 1.62090 2.19749 0.000 0.000 0.749
v 0.10471 1.64936 2.20586 0.000 0.000 0.749
v 0.11811 1.62943 2.19346 0.000 0.000 0.749
v 0.10146 1.64434 2.12062 0.000 0.000 0.749
v 0.08254 1.63607 2.19206 0.000 0.000 0.749
v 0.10467 1.30613 2.22930 0.000 0.749 0.000
v 0.09682 1.26000 2.24438 0.000 0.749 0.000
v -0.00000 1.26000 2.22077 0.000 0.749 0.000
v 0.10924 1.26000 2.31610 0.000 0.749 0.000
v 0.15672 1.40204 2.23164 0.000 0.749 0.000
v 0.13530 1.39232 2.27695 0.000 0.749 0.000
v 0.12209 1.40983 2.31134 0.000 0.749 0.000
v 0.05491 1.32129 2.20255 0.000 0.749 0.000
v 0.13922 1.36620 2.19755 0.000 0.749 0.000
v 0.09583 1.38847 2.19211 0.000 0.749 0.000
v 0.13369 1.46936 2.17264 0.000 0.749 0.000
v 0.16783 1.45512 2.18239 0.000 0.749 0.000
v 0.15906 1.52730 2.19249 0.000 0.749 0.000
v 0.17896 1.46131 2.21533 0.000 0.749 0.000
v 0.15672 1.40204 2.23164 0.000 0.749 0.000
v 0.07608 1.38987 2.36102 0.000 0.749 0.000
v 0.13194 1.49391 2.32700 0.000 0.749 0.000
v 0.09358 1.52012 2.35584 0.000 0.749 0.000
v 0.05122 1.26000 2.36923 0.000 0.749 0.000
v 0.10122 1.61114 2.30609 0.000 0.749 0.000
v 0.12909 1.57840 2.28735 0.000 0.749 0.000
v 0.13438 1.61343 2.22966 0.000 0.749 0.000
v 0.10594 1.64965 2.23303 0.000 0.749 0.000
v 0.10219 1.64455 2.15746 0.000 0.749 0.000
v 0.13369 1.46936 2.17264 0.000 0.000 0.000
v 0.12337 1.48324 2.20527 0.000 0.000 0.000
v 0.15906 1.52730 2.19249 0.000 0.000 0.000
v 0.14916 1.48156 2.22907 0.000 0.000 0.000
v 0.17896 1.46131 2.21533 0.000 0.000 0.000
v 0.09835 1.43190 2.21893 0.000 0.000 0.000
v 0.09583 1.38847 2.19211 0.000 0.000 0.000
v 0.12900 1.42283 2.24717 0.000 0.000 0.000
v 0.17896 1.46131 2.21533 0.000 0.000 0.000
v 0.15672 1.40204 2.23164 0.000 0.000 0.000
v 0.13530 1.39232 2.27695 0.000 0.000 0.000
v 0.09715 1.42994 2.27768 0.000 0.000 0.000
v 0.12209 1.40983 2.31134 0.000 0.000 0.000
v 0.09835 1.43190 2.21893 0.000 0.000 0.000
v 0.04358 1.41350 2.27448 0.000 0.000 0.000
v -0.00000 1.36978 2.25394 0.000 0.000 0.000
v 0.02346 1.49504 2.29174 0.000 0.000 0.000
v -0.02128 1.49521 2.29342 0.000 0.000 0.000
v -0.02432 1.56393 2.25670 0.000 0.000 0.000
v -0.04697 1.51249 2.34439 0.000 0.000 0.000
v 0.02375 1.56244 2.26120 0.000 0.000 0.000
v 0.04312 1.50988 2.34459 0.000 0.000 0.000
v 0.03638 1.59124 2.29154 0.000 0.000 0.000
v 0.03815 1.62441 2.23546 0.000 0.000 0.000
v -0.00000 1.62763 2.15741 0.000 0.000 0.000
v -0.03647 1.61460 2.22856 0.000 0.000 0.000
v -0.03808 1.58845 2.28636 0.000 0.000 0.000
v -0.03647 1.61460 2.22856 0.000 0.000 0.000
v -0.06732 1.34890 2.25360 0.000 0.000 0.000
v -0.07036 1.49585 2.29495 0.000 0.000 0.000
v -0.00000 1.26000 2.22077 0.000 0.000 0.000
v -0.11395 1.48621 2.28965 0.000 0.000 0.000
v -0.11180 1.34127 2.27880 0.000 0.000 0.000
v -0.12765 1.48383 2.31496 0.000 0.000 0.000
v -0.09682 1.26000 2.24438 0.000 0.000 0.000
v -0.10924 1.26000 2.31610 0.000 0.000 0.000
v -0.09682 1.26000 2.24438 0.000 0.000 0.000
v -0.06732 1.34890 2.25360 0.000 0.000 0.000
v -0.04697 1.51249 2.34439 0.000 0.000 0.000
v -0.07036 1.49585 2.29495 0.000 0.000 0.000
v -0.06628 1.58706 2.28985 0.000 0.000 0.000
v -0.08047 1.55855 2.25770 0.000 0.000 0.000
v -0.07060 1.60004 2.22674 0.000 0.000 0.000
v -0.11395 1.48621 2.28965 0.000 0.000 0.000
v -0.11675 1.55488 2.25801 0.000 0.000 0.000
v -0.12765 1.48383 2.31496 0.000 0.000 0.000
v -0.13842 1.56969 2.28969 0.000 0.000 0.000
v -0.13688 1.58895 2.22853 0.000 0.000 0.000
v -0.09606 1.56652 2.14704 0.000 0.000 0.000
v -0.02128 1.49521 2.29342 0.000 0.000 0.000
v 0.06403 1.49238 2.29237 0.000 0.000 0.000
v 0.10864 1.48982 2.29518 0.000 0.000 0.000
v 0.06795 1.55108 2.27272 0.000 0.000 0.000
v 0.10854 1.54827 2.27021 0.000 0.000 0.000
v 0.11672 1.58557 2.21288 0.000 0.000 0.000
v 0.12909 1.57840 2.28735 0.000 0.000 0.000
v 0.13438 1.61343 2.22966 0.000 0.000 0.000
v 0.10219 1.64455 2.15746 0.000 0.000 0.000
v 0.07824 1.58810 2.21182 0.000 0.000 0.000
v 0.06397 1.62637 2.22779 0.000 0.000 0.000
v 0.06285 1.59833 2.29597 0.000 0.000 0.000
v 0.04312 1.50988 2.34459 0.000 0.000 0.000
v 0.06285 1.59833 2.29597 0.000 0.000 0.000
v 0.12209 1.40983 2.31134 0.000 0.000 0.000
v 0.13194 1.49391 2.32700 0.000 0.000 0.000
v 0.06403 1.49238 2.29237 0.000 0.000 0.000
v -0.04697 1.51249 2.34439 0.000 0.749 0.000
v -0.00000 1.37986 2.36939 0.000 0.749 0.000
v -0.00119 1.51857 2.36603 0.000 0.749 0.000
v -0.07280 1.36154 2.36003 0.000 0.749 0.000
v -0.09669 1.51263 2.35377 0.000 0.749 0.000
v -0.05122 1.26000 2.36923 0.000 0.749 0.000
v 0.05122 1.26000 2.36923 0.000 0.749 0.000
v -0.11218 1.34710 2.32461 0.000 0.749 0.000
v -0.12765 1.48383 2.31496 0.000 0.749 0.000
v -0.10924 1.26000 2.31610 0.000 0.749 0.000
v -0.11180 1.34127 2.27880 0.000 0.749 0.000
v -0.13842 1.56969 2.28969 0.000 0.749 0.000
v -0.10787 1.60364 2.29923 0.000 0.749 0.000
v -0.13688 1.58895 2.22853 0.000 0.749 0.000
v -0.10973 1.62301 2.22239 0.000 0.749 0.000
v -0.09606 1.56652 2.14704 0.000 0.749 0.000
v -0.00000 1.61116 2.30186 0.000 0.749 0.000
v -0.04697 1.51249 2.34439 0.000 0.749 0.000
v -0.03808 1.58845 2.28636 0.000 0.749 0.000
v -0.00000 1.64522 2.22683 0.000 0.749 0.000
v -0.03647 1.61460 2.22856 0.000 0.749 0.000
v -0.00000 1.62763 2.15741 0.000 0.749 0.000
v 0.04312 1.50988 2.34459 0.000 0.749 0.000
v 0.10122 1.61114 2.30609 0.000 0.749 0.000
v 0.06285 1.59833 2.29597 0.000 0.749 0.000
v 0.10594 1.64965 2.23303 0.000 0.749 0.000
v 0.09358 1.52012 2.35584 0.000 0.749 0.000
v 0.04312 1.50988 2.34459 0.000 0.749 0.000
v 0.07608 1.38987 2.36102 0.000 0.749 0.000
v -0.00000 1.37986 2.36939 0.000 0.749 0.000
v 0.05122 1.26000 2.36923 0.000 0.749 0.000
v -0.00119 1.51857 2.36603 0.000 0.749 0.000
v 0.10594 1.64965 2.23303 0.000 0.749 0.000
v 0.06397 1.62637 2.22779 0.000 0.749 0.000
v 0.10219 1.64455 2.15746 0.000 0.749 0.000
v 0.03815 1.62441 2.23546 0.000 0.749 0.000
v -0.00000 1.61116 2.30186 0.000 0.749 0.000
v 0.03638 1.59124 2.29154 0.000 0.749 0.000
v 0.04312 1.50988 2.34459 0.000 0.749 0.000
v -0.00119 1.51857 2.36603 0.000 0.749 0.000
v -0.00000 1.64522 2.22683 0.000 0.749 0.000
v -0.00000 1.62763 2.15741 0.000 0.749 0.000
v -0.10973 1.62301 2.22239 0.000 0.749 0.000
v -0.06628 1.58706 2.28985 0.000 0.749 0.000
v -0.07060 1.60004 2.22674 0.000 0.749 0.000
v -0.09606 1.56652 2.14704 0.000 0.749 0.000
v -0.10787 1.60364 2.29923 0.000 0.749 0.000
v -0.09669 1.51263 2.35377 0.000 0.749 0.000
v 0.05491 1.32129 2.20255 0.000 0.000 0.000
v -0.00000 1.26000 2.22077 0.000 0.000 0.000
v -0.00000 1.26000 2.22077 0.000 0.000 0.749
v 0.05991 1.14032 2.20300 0.000 0.000 0.749
v -0.05991 1.14032 2.20300 0.000 0.000 0.749
v 0.00462 0.89005 2.17258 0.000 0.000 0.749
v 0.09763 0.89915 2.20844 0.000 0.000 0.749
v -0.09076 0.87889 2.20844 0.000 0.000 0.749
v -0.09682 1.26000 2.24438 0.000 0.000 0.749
v -0.11983 1.14032 2.29500 0.000 0.000 0.749
v -0.12160 1.03336 2.29500 0.000 0.000 0.749
v -0.05991 1.14032 2.38700 0.000 0.000 0.749
v -0.10924 1.26000 2.31610 0.000 0.000 0.749
v -0.10213 1.00080 2.32470 0.000 0.000 0.749
v -0.12750 0.90967 2.25227 0.000 0.000 0.749
v -0.15518 0.92999 2.29500 0.000 0.000 0.749
v -0.09076 0.87889 2.38156 0.000 0.000 0.749
v 0.00462 0.89005 2.41742 0.000 0.000 0.749
v -0.13542 0.84791 2.29500 0.000 0.000 0.749
v -0.05122 1.26000 2.36923 0.000 0.000 0.749
v 0.05991 1.14032 2.38700 0.000 0.000 0.749
v 0.09763 0.89915 2.38156 0.000 0.000 0.749
v 0.05122 1.26000 2.36923 0.000 0.000 0.749
v -0.09682 1.26000 2.24438 0.000 0.000 0.749
v -0.10250 1.00080 2.26530 0.000 0.000 0.749
v -0.12750 0.90967 2.33773 0.000 0.000 0.749
v -0.09076 0.87889 2.20844 0.000 0.000 0.749
v -0.12750 0.90967 2.25227 0.000 0.000 0.749
v -0.24211 0.71219 2.29500 0.000 0.000 0.749
v -0.20815 0.85466 2.29500 0.000 0.000 0.749
v -0.15518 0.92999 2.29500 0.000 0.000 0.749
v -0.12750 0.90967 2.33773 0.000 0.000 0.749
v 0.11983 1.14032 2.29500 0.000 0.000 0.749
v 0.09763 0.89915 2.38156 0.000 0.000 0.749
v 0.13616 0.89946 2.29500 0.000 0.000 0.749
v 0.05991 1.14032 2.38700 0.000 0.000 0.749
v 0.09763 0.89915 2.20844 0.000 0.000 0.749
v 0.05991 1.14032 2.20300 0.000 0.000 0.749
v 0.09682 1.26000 2.24438 0.000 0.000 0.749
v -0.00000 1.26000 2.22077 0.000 0.000 0.749
v 0.10924 1.26000 2.31610 0.000 0.000 0.749
v 0.05122 1.26000 2.36923 0.000 0.000 0.749
v -0.12160 -1.03336 2.29500 0.000 0.000 0.749
v -0.10213 -1.00080 2.32470 0.000 0.000 0.749
v -0.25419 -0.89582 2.29500 0.000 0.000 0.749
v -0.15518 -0.92999 2.29500 0.000 0.000 0.749
v -0.10250 -1.00080 2.26530 0.000 0.000 0.749
v -0.15518 0.92999 2.29500 0.000 0.000 0.749
v -0.10213 1.00080 2.32470 0.000 0.000 0.749
v -0.25419 0.89582 2.29500 0.000 0.000 0.749
v -0.12160 1.03336 2.29500 0.000 0.000 0.749
v -0.10250 1.00080 2.26530 0.000 0.000 0.749
vt 0.48538 0.33751
vt 0.52041 0.33751
vt 0.52200 0.34707
vt 0.48591 0.35025
vt 0.52360 0.35662
vt 0.48644 0.36299
vt 0.52678 0.37573
vt 0.54005 0.37573
vt 0.53846 0.36618
vt 0.53687 0.33751
vt 0.55332 0.33751
vt 0.55332 0.37573
vt 0.47158 0.34919
vt 0.47689 0.36087
vt 0.44716 0.35131
vt 0.44716 0.33751
vt 0.46627 0.33751
vt 0.43602 0.33751
vt 0.46733 0.35875
vt 0.43668 0.34587
vt 0.43734 0.35423
vt 0.43801 0.35914
vt 0.44716 0.35822
vt 0.43867 0.36405
vt 0.44716 0.36512
vt 0.53846 0.36618
vt 0.55332 0.37573
vt 0.71847 0.83304
vt 0.54005 0.37573
vt 0.52360 0.35662
vt 0.52678 0.37573
vt 0.48644 0.36299
vt 0.48591 0.35025
vt 0.52200 0.34707
vt 0.47158 0.34919
vt 0.47689 0.36087
vt 0.44716 0.35131
vt 0.46733 0.35875
vt 0.43668 0.34587
vt 0.43734 0.35423
vt 0.43801 0.35914
vt 0.44716 0.35822
vt 0.43867 0.36405
vt 0.44716 0.36512
vt 0.44929 0.40970
vt 0.94440 0.49850
vt 0.95661 0.47727
vt 0.94599 0.47727
vt 0.93537 0.49850
vt 0.93537 0.47727
vt 0.45141 0.38847
vt 0.45380 0.40970
vt 0.45672 0.38847
vt 0.45831 0.40970
vt 0.46733 0.38847
vt 0.46733 0.40970
vt 0.46733 0.43253
vt 0.40768 0.56812
vt 0.83202 0.43395
vt 0.52324 0.55183
vt 0.77556 0.51152
vt 0.86449 0.50501
vt 0.95342 0.49850
vt 0.77820 0.65038
vt 0.93537 0.51495
vt 0.46733 0.45535
vt 0.72229 0.53107
vt 0.61200 0.80225
vt 0.59289 0.80013
vt 0.61200 0.83516
vt 0.59077 0.83516
vt 0.46202 0.45004
vt 0.46043 0.47765
vt 0.45353 0.47765
vt 0.45672 0.44473
vt 0.46733 0.47765
vt 0.46733 0.40970
vt 0.46733 0.38847
vt 0.48750 0.38847
vt 0.48432 0.40970
vt 0.48219 0.43253
vt 0.46733 0.43253
vt 0.46733 0.45535
vt 0.48007 0.45535
vt 0.48326 0.47765
vt 0.46733 0.47765
vt 0.48750 0.38847
vt 0.46733 0.38847
vt 0.48644 0.36299
vt 0.47689 0.36087
vt 0.45672 0.38847
vt 0.46733 0.35875
vt 0.45141 0.38847
vt 0.44716 0.35822
vt 0.44716 0.36512
vt 0.44610 0.38847
vt 0.52678 0.37573
vt 0.53297 0.62177
vt 0.55527 0.62177
vt 0.93750 0.45073
vt 0.90883 0.46453
vt 0.88973 0.46134
vt 0.52076 0.62177
vt 0.86955 0.45869
vt 0.50855 0.62177
vt 0.48414 0.62177
vt 0.84939 0.45603
vt 0.57756 0.62177
vt 0.95024 0.44330
vt 0.59614 0.62177
vt 0.95979 0.44436
vt 0.93750 0.45073
vt 0.95024 0.44330
vt 0.90883 0.46453
vt 0.86955 0.45869
vt 0.84939 0.45603
vt 0.88973 0.46134
vt 0.95979 0.44436
vt 0.38751 0.45327
vt 0.39282 0.47557
vt 0.38326 0.47451
vt 0.37902 0.45327
vt 0.73281 0.80650
vt 0.72962 0.81977
vt 0.72007 0.81804
vt 0.71051 0.79960
vt 0.71051 0.81632
vt 0.68822 0.79270
vt 0.69140 0.81287
vt 0.71051 0.83304
vt 0.69459 0.83304
vt 0.71847 0.83304
vt 0.71449 0.83304
vt 0.93537 0.47727
vt 0.93537 0.49850
vt 0.91839 0.49850
vt 0.91520 0.47727
vt 0.92051 0.51442
vt 0.93537 0.51495
vt 0.93537 0.53141
vt 0.92264 0.53035
vt 0.91945 0.56644
vt 0.93537 0.56644
vt 0.39282 0.47557
vt 0.38751 0.45327
vt 0.37902 0.45327
vt 0.38326 0.47451
vt 0.94599 0.47727
vt 0.93537 0.47727
vt 0.97678 0.96603
vt 0.93750 0.45073
vt 0.95661 0.47727
vt 0.98739 0.96284
vt 0.38751 0.45327
vt 0.71051 0.79960
vt 0.68822 0.79270
vt 0.91202 0.47090
vt 0.99801 0.95966
vt 0.98952 0.93949
vt 0.71263 0.76722
vt 0.73811 0.76722
vt 0.73281 0.80650
vt 0.90883 0.46453
vt 0.88973 0.46134
vt 0.25303 0.73940
vt 0.24985 0.76063
vt 0.22437 0.76063
vt 0.22543 0.73940
vt 0.23817 0.72002
vt 0.24879 0.71657
vt 0.22756 0.72347
vt 0.24454 0.69375
vt 0.22968 0.70755
vt 0.22862 0.67145
vt 0.24560 0.67145
vt 0.44929 0.40970
vt 0.95661 0.47727
vt 0.94440 0.49850
vt 0.94599 0.47727
vt 0.93537 0.49850
vt 0.93537 0.47727
vt 0.45141 0.38847
vt 0.45380 0.40970
vt 0.45672 0.38847
vt 0.45831 0.40970
vt 0.46733 0.38847
vt 0.46733 0.40970
vt 0.46733 0.43253
vt 0.40768 0.56812
vt 0.83202 0.43395
vt 0.52324 0.55183
vt 0.77556 0.51152
vt 0.86449 0.50501
vt 0.95342 0.49850
vt 0.77820 0.65038
vt 0.93537 0.51495
vt 0.46733 0.45535
vt 0.72229 0.53107
vt 0.61200 0.80225
vt 0.59289 0.80013
vt 0.61200 0.83516
vt 0.59077 0.83516
vt 0.46202 0.45004
vt 0.46043 0.47765
vt 0.45353 0.47765
vt 0.45672 0.44473
vt 0.46733 0.47765
vt 0.46733 0.40970
vt 0.48750 0.38847
vt 0.46733 0.38847
vt 0.48432 0.40970
vt 0.48219 0.43253
vt 0.46733 0.43253
vt 0.46733 0.45535
vt 0.48007 0.45535
vt 0.48326 0.47765
vt 0.46733 0.47765
vt 0.48750 0.38847
vt 0.48644 0.36299
vt 0.46733 0.38847
vt 0.47689 0.36087
vt 0.45672 0.38847
vt 0.46733 0.35875
vt 0.45141 0.38847
vt 0.44716 0.35822
vt 0.44716 0.36512
vt 0.44610 0.38847
vt 0.52678 0.37573
vt 0.73281 0.80650
vt 0.72007 0.81804
vt 0.72962 0.81977
vt 0.71051 0.79960
vt 0.71051 0.81632
vt 0.68822 0.79270
vt 0.69140 0.81287
vt 0.71051 0.83304
vt 0.69459 0.83304
vt 0.71449 0.83304
vt 0.93537 0.47727
vt 0.91839 0.49850
vt 0.93537 0.49850
vt 0.91520 0.47727
vt 0.92051 0.51442
vt 0.93537 0.51495
vt 0.93537 0.53141
vt 0.92264 0.53035
vt 0.91945 0.56644
vt 0.93537 0.56644
vt 0.94599 0.47727
vt 0.97678 0.96603
vt 0.93537 0.47727
vt 0.93750 0.45073
vt 0.95661 0.47727
vt 0.98739 0.96284
vt 0.38751 0.45327
vt 0.71051 0.79960
vt 0.91202 0.47090
vt 0.68822 0.79270
vt 0.99801 0.95966
vt 0.98952 0.93949
vt 0.73811 0.76722
vt 0.71263 0.76722
vt 0.73281 0.80650
vt 0.90883 0.46453
vt 0.88973 0.46134
vt 0.25303 0.73940
vt 0.22437 0.76063
vt 0.24985 0.76063
vt 0.22543 0.73940
vt 0.23817 0.72002
vt 0.24879 0.71657
vt 0.22756 0.72347
vt 0.24454 0.69375
vt 0.22968 0.70755
vt 0.22862 0.67145
vt 0.24560 0.67145
vt 0.83671 0.77651
vt 0.83884 0.80411
vt 0.81867 0.80411
vt 0.82079 0.77651
vt 0.69051 0.89372
vt 0.67353 0.89372
vt 0.68149 0.86612
vt 0.69263 0.86612
vt 0.67034 0.86612
vt 0.86625 0.80411
vt 0.86519 0.79031
vt 0.87793 0.77651
vt 0.88218 0.80411
vt 0.81389 0.77651
vt 0.82079 0.77651
vt 0.81867 0.80411
vt 0.81071 0.80411
vt 0.80673 0.80411
vt 0.80699 0.77651
vt 0.80274 0.80411
vt 0.86519 0.79031
vt 0.86413 0.77651
vt 0.87793 0.77651
vt 0.84821 0.77651
vt 0.86625 0.80411
vt 0.84608 0.80411
vt 0.84821 0.77651
vt 0.86519 0.79031
vt 0.64932 0.94268
vt 0.64592 0.96009
vt 0.65802 0.93716
vt 0.63978 0.96009
vt 0.62768 0.93716
vt 0.63108 0.95457
vt 0.61010 0.94374
vt 0.60671 0.95521
vt 0.60671 0.93716
vt 0.60352 0.94374
vt 0.83829 0.96513
vt 0.84126 0.93965
vt 0.83298 0.95940
vt 0.83298 0.95940
vt 0.85143 0.96428
vt 0.85228 0.93859
vt 0.84739 0.95558
vt 0.84824 0.95558
vt 0.16446 0.76462
vt 0.17348 0.76462
vt 0.16918 0.77651
vt 0.18250 0.76462
vt 0.17104 0.80305
vt 0.17412 0.79891
vt 0.17720 0.79477
vt 0.16106 0.77969
vt 0.16488 0.78840
vt 0.15766 0.79477
vt 0.16127 0.80305
vt 0.16488 0.79986
vt 0.16488 0.81133
vt 0.59516 0.94820
vt 0.59123 0.94501
vt 0.19492 0.79477
vt 0.16775 0.81366
vt 0.18887 0.81600
vt 0.20098 0.77354
vt 0.17985 0.82948
vt 0.16302 0.82311
vt 0.15830 0.83256
vt 0.17083 0.84296
vt 0.14641 0.84381
vt 0.08048 0.66827
vt 0.07921 0.65999
vt 0.08197 0.66667
vt 0.08271 0.66588
vt 0.08346 0.66508
vt 0.08770 0.67018
vt 0.08176 0.67655
vt 0.59208 0.94406
vt 0.59516 0.94820
vt 0.59123 0.94501
vt 0.58815 0.94087
vt 0.23646 0.77926
vt 0.58507 0.93673
vt 0.59293 0.94310
vt 0.09322 0.66805
vt 0.11387 0.68605
vt 0.11796 0.66222
vt 0.12656 0.66254
vt 0.12465 0.64406
vt 0.38164 0.80666
vt 0.11955 0.64406
vt 0.62939 0.84276
vt 0.36937 0.74341
vt 0.10936 0.64406
vt 0.11998 0.62941
vt 0.12974 0.64406
vt 0.38833 0.79010
vt 0.39502 0.77354
vt 0.14439 0.69247
vt 0.13261 0.66471
vt 0.65973 0.83851
vt 0.13866 0.66689
vt 0.02524 0.76706
vt 0.04446 0.75740
vt 0.13802 0.71370
vt 0.01006 0.78479
vt 0.00199 0.76865
vt 0.02322 0.76302
vt 0.12243 0.74466
vt 0.06497 0.80725
vt 0.00804 0.89458
vt 0.01664 0.86984
vt 0.00751 0.86984
vt 0.01409 0.89383
vt 0.02121 0.86984
vt 0.02620 0.89235
vt 0.02598 0.88109
vt 0.02577 0.86984
vt 0.01792 0.85264
vt 0.11734 0.75846
vt 0.09874 0.66593
vt 0.10936 0.66190
vt 0.10217 0.65134
vt 0.09731 0.65234
vt 0.09588 0.63876
vt 0.36552 0.91880
vt 0.08707 0.63876
vt 0.09407 0.62750
vt 0.10028 0.63876
vt 0.10469 0.63876
vt 0.10702 0.65033
vt 0.46457 0.93205
vt 0.46786 0.91093
vt 0.37969 0.89046
vt 0.37024 0.90935
vt 0.62111 0.85826
vt 0.12243 0.74466
vt 0.39184 0.81961
vt 0.36657 0.82661
vt 0.03793 0.78601
vt 0.06187 0.77905
vt 0.01399 0.79296
vt 0.34130 0.83362
vt 0.02726 0.77109
vt 0.04446 0.75740
vt 0.01006 0.78479
vt 0.02524 0.76706
vt 0.05263 0.74615
vt 0.06855 0.75740
vt 0.06080 0.73489
vt 0.07524 0.73574
vt 0.06526 0.71769
vt 0.38164 0.80666
vt 0.39969 0.80262
vt 0.38833 0.79010
vt 0.40755 0.78564
vt 0.39502 0.77354
vt 0.40967 0.76462
vt 0.46457 0.93205
vt 0.46786 0.91093
vt 0.31104 0.82056
vt 0.30817 0.83405
vt 0.31391 0.80708
vt 0.32346 0.78585
vt 0.32240 0.80878
vt 0.33354 0.78988
vt 0.33301 0.76462
vt 0.33408 0.81515
vt 0.47943 0.90530
vt 0.48984 0.91953
vt 0.49069 0.89511
vt 0.63894 0.88416
vt 0.63416 0.86346
vt 0.64361 0.85614
vt 0.62939 0.84276
vt 0.63576 0.83915
vt 0.65147 0.87312
vt 0.65359 0.89414
vt 0.13942 0.78309
vt 0.12498 0.78394
vt 0.12371 0.76430
vt 0.12944 0.80114
vt 0.13273 0.76143
vt 0.12604 0.73978
vt 0.09025 0.69162
vt 0.09874 0.70670
vt 0.65973 0.83851
vt 0.67618 0.85232
vt 0.66503 0.85232
vt 0.68149 0.86612
vt 0.67034 0.86612
vt 0.69263 0.86612
vt 0.69901 0.84552
vt 0.81814 0.81844
vt 0.81840 0.81128
vt 0.81007 0.82041
vt 0.81761 0.83277
vt 0.81648 0.80948
vt 0.81071 0.80411
vt 0.80673 0.80411
vt 0.81455 0.80769
vt 0.81867 0.80411
vt 0.81853 0.80769
vt 0.80943 0.83670
vt 0.80200 0.82237
vt 0.80274 0.80411
vt 0.80126 0.84063
vt 0.83374 0.82470
vt 0.82351 0.80948
vt 0.83884 0.80411
vt 0.82862 0.80769
vt 0.81071 0.80411
vt 0.81840 0.81128
vt 0.81827 0.81486
vt 0.81814 0.81844
vt 0.83884 0.80411
vt 0.86572 0.81791
vt 0.86625 0.80411
vt 0.88218 0.80411
vt 0.88292 0.82237
vt 0.84608 0.80411
vt 0.84661 0.81791
vt 0.85617 0.83171
vt 0.84715 0.83171
vt 0.86519 0.83171
vt 0.88366 0.84063
vt 0.83671 0.77651
vt 0.81867 0.80411
vt 0.83884 0.80411
vt 0.82079 0.77651
vt 0.69051 0.89372
vt 0.68149 0.86612
vt 0.67353 0.89372
vt 0.69263 0.86612
vt 0.67034 0.86612
vt 0.86625 0.80411
vt 0.87793 0.77651
vt 0.86519 0.79031
vt 0.88218 0.80411
vt 0.81389 0.77651
vt 0.81867 0.80411
vt 0.82079 0.77651
vt 0.81071 0.80411
vt 0.80673 0.80411
vt 0.80699 0.77651
vt 0.80274 0.80411
vt 0.86519 0.79031
vt 0.87793 0.77651
vt 0.86413 0.77651
vt 0.84821 0.77651
vt 0.86625 0.80411
vt 0.84821 0.77651
vt 0.84608 0.80411
vt 0.86519 0.79031
vt 0.64932 0.94268
vt 0.65802 0.93716
vt 0.64592 0.96009
vt 0.63978 0.96009
vt 0.63108 0.95457
vt 0.62768 0.93716
vt 0.61010 0.94374
vt 0.60671 0.93716
vt 0.60671 0.95521
vt 0.60352 0.94374
vt 0.83829 0.96513
vt 0.83298 0.95940
vt 0.84126 0.93965
vt 0.83298 0.95940
vt 0.85143 0.96428
vt 0.84739 0.95558
vt 0.85228 0.93859
vt 0.84824 0.95558
vt 0.16918 0.77651
vt 0.17348 0.76462
vt 0.16446 0.76462
vt 0.18250 0.76462
vt 0.17104 0.80305
vt 0.17412 0.79891
vt 0.17720 0.79477
vt 0.16106 0.77969
vt 0.16488 0.78840
vt 0.15766 0.79477
vt 0.16127 0.80305
vt 0.16488 0.79986
vt 0.16488 0.81133
vt 0.59516 0.94820
vt 0.59123 0.94501
vt 0.19492 0.79477
vt 0.16775 0.81366
vt 0.18887 0.81600
vt 0.20098 0.77354
vt 0.17985 0.82948
vt 0.16302 0.82311
vt 0.15830 0.83256
vt 0.17083 0.84296
vt 0.14641 0.84381
vt 0.08048 0.66827
vt 0.08197 0.66667
vt 0.07921 0.65999
vt 0.08271 0.66588
vt 0.08346 0.66508
vt 0.08770 0.67018
vt 0.08176 0.67655
vt 0.59208 0.94406
vt 0.59516 0.94820
vt 0.59123 0.94501
vt 0.58815 0.94087
vt 0.23646 0.77926
vt 0.58507 0.93673
vt 0.59293 0.94310
vt 0.09322 0.66805
vt 0.11387 0.68605
vt 0.11796 0.66222
vt 0.12656 0.66254
vt 0.12465 0.64406
vt 0.38164 0.80666
vt 0.11955 0.64406
vt 0.62939 0.84276
vt 0.36937 0.74341
vt 0.10936 0.64406
vt 0.11998 0.62941
vt 0.12974 0.64406
vt 0.38833 0.79010
vt 0.39502 0.77354
vt 0.14439 0.69247
vt 0.13261 0.66471
vt 0.65973 0.83851
vt 0.13866 0.66689
vt 0.02524 0.76706
vt 0.04446 0.75740
vt 0.13802 0.71370
vt 0.01006 0.78479
vt 0.00199 0.76865
vt 0.02322 0.76302
vt 0.12243 0.74466
vt 0.00804 0.89458
vt 0.06497 0.80725
vt 0.01664 0.86984
vt 0.00751 0.86984
vt 0.01409 0.89383
vt 0.02121 0.86984
vt 0.02620 0.89235
vt 0.02598 0.88109
vt 0.02577 0.86984
vt 0.01792 0.85264
vt 0.11734 0.75846
vt 0.10936 0.66190
vt 0.09874 0.66593
vt 0.10217 0.65134
vt 0.09731 0.65234
vt 0.09588 0.63876
vt 0.36552 0.91880
vt 0.08707 0.63876
vt 0.09407 0.62750
vt 0.10028 0.63876
vt 0.10469 0.63876
vt 0.10702 0.65033
vt 0.46457 0.93205
vt 0.46786 0.91093
vt 0.37969 0.89046
vt 0.37024 0.90935
vt 0.62111 0.85826
vt 0.12243 0.74466
vt 0.36657 0.82661
vt 0.39184 0.81961
vt 0.03793 0.78601
vt 0.06187 0.77905
vt 0.01399 0.79296
vt 0.34130 0.83362
vt 0.02726 0.77109
vt 0.04446 0.75740
vt 0.01006 0.78479
vt 0.02524 0.76706
vt 0.05263 0.74615
vt 0.06855 0.75740
vt 0.06080 0.73489
vt 0.07524 0.73574
vt 0.06526 0.71769
vt 0.39969 0.80262
vt 0.38164 0.80666
vt 0.38833 0.79010
vt 0.40755 0.78564
vt 0.39502 0.77354
vt 0.40967 0.76462
vt 0.46457 0.93205
vt 0.31104 0.82056
vt 0.46786 0.91093
vt 0.30817 0.83405
vt 0.31391 0.80708
vt 0.32240 0.80878
vt 0.32346 0.78585
vt 0.33354 0.78988
vt 0.33301 0.76462
vt 0.33408 0.81515
vt 0.48984 0.91953
vt 0.47943 0.90530
vt 0.49069 0.89511
vt 0.63894 0.88416
vt 0.64361 0.85614
vt 0.63416 0.86346
vt 0.62939 0.84276
vt 0.63576 0.83915
vt 0.65147 0.87312
vt 0.65359 0.89414
vt 0.13942 0.78309
vt 0.12371 0.76430
vt 0.12498 0.78394
vt 0.12944 0.80114
vt 0.13273 0.76143
vt 0.12604 0.73978
vt 0.09025 0.69162
vt 0.09874 0.70670
vt 0.65973 0.83851
vt 0.66503 0.85232
vt 0.67618 0.85232
vt 0.68149 0.86612
vt 0.67034 0.86612
vt 0.69263 0.86612
vt 0.69901 0.84552
vt 0.81814 0.81844
vt 0.81840 0.81128
vt 0.81007 0.82041
vt 0.81761 0.83277
vt 0.81648 0.80948
vt 0.81455 0.80769
vt 0.81853 0.80769
vt 0.81071 0.80411
vt 0.80673 0.80411
vt 0.81867 0.80411
vt 0.80943 0.83670
vt 0.80200 0.82237
vt 0.80274 0.80411
vt 0.80126 0.84063
vt 0.83374 0.82470
vt 0.82351 0.80948
vt 0.82862 0.80769
vt 0.83884 0.80411
vt 0.81071 0.80411
vt 0.81840 0.81128
vt 0.81827 0.81486
vt 0.81814 0.81844
vt 0.83884 0.80411
vt 0.86572 0.81791
vt 0.88218 0.80411
vt 0.86625 0.80411
vt 0.88292 0.82237
vt 0.84608 0.80411
vt 0.84661 0.81791
vt 0.85617 0.83171
vt 0.84715 0.83171
vt 0.86519 0.83171
vt 0.88366 0.84063
vt 0.81814 0.81844
vt 0.81071 0.80411
vt 0.81840 0.81128
vt 0.81867 0.80411
vt 0.83884 0.80411
vt 0.81867 0.80411
vt 0.81071 0.80411
vt 0.81840 0.81128
vt 0.81814 0.81844
vt 0.83884 0.80411
usemtl m0
f 1/1 2/2 3/3
f 3/3 4/4 1/1
f 3/3 5/5 4/4
f 5/5 6/6 4/4
f 6/6 5/5 7/7
f 8/8 7/7 5/5
f 9/9 5/5 3/3
f 9/9 3/3 2/2
f 2/2 10/10 9/9
f 9/9 10/10 11/11
f 11/11 12/12 9/9
f 13/13 4/4 6/6
f 6/6 14/14 13/13
f 13/13 14/14 15/15
f 13/13 15/15 16/16
f 16/16 17/17 13/13
f 4/4 13/13 17/17
f 18/18 16/16 15/15
f 15/15 14/14 19/19
f 15/15 20/20 18/18
f 19/19 20/20 15/15
f 19/19 21/21 20/20
f 22/22 21/21 19/19
f 19/19 23/23 22/22
f 23/23 24/24 22/22
f 23/23 25/25 24/24
f 11/11 10/10 26/26
f 26/26 27/27 11/11
f 28/28 27/27 26/26
f 26/26 29/29 28/28
f 29/29 26/26 30/30
f 29/29 30/30 31/31
f 32/32 31/31 30/30
f 32/32 30/30 33/33
f 33/33 30/30 34/34
f 34/34 30/30 26/26
f 1/1 33/33 34/34
f 34/34 2/2 1/1
f 2/2 34/34 26/26
f 26/26 10/10 2/2
f 32/32 33/33 35/35
f 35/35 36/36 32/32
f 37/37 36/36 35/35
f 16/16 37/37 35/35
f 35/35 17/17 16/16
f 17/17 35/35 33/33
f 33/33 1/1 17/17
f 17/17 1/1 4/4
f 18/18 37/37 16/16
f 37/37 38/38 36/36
f 37/37 18/18 39/39
f 38/38 37/37 39/39
f 38/38 39/39 40/40
f 38/38 40/40 41/41
f 41/41 42/42 38/38
f 41/41 43/43 42/42
f 42/42 43/43 44/44
f 45/45 46/46 47/47
f 48/48 47/47 46/46
f 46/46 49/49 48/48
f 49/49 50/50 48/48
f 47/47 51/51 45/45
f 51/51 52/52 45/45
f 52/52 51/51 53/53
f 53/53 54/54 52/52
f 54/54 53/53 55/55
f 55/55 56/56 54/54
f 54/54 56/56 57/57
f 57/57 58/58 54/54
f 54/54 58/58 59/59
f 59/59 60/60 54/54
f 58/58 61/61 59/59
f 61/61 62/62 59/59
f 60/60 59/59 63/63
f 59/59 62/62 63/63
f 46/46 63/63 62/62
f 61/61 64/64 62/62
f 62/62 64/64 46/46
f 49/49 46/46 64/64
f 64/64 65/65 49/49
f 58/58 57/57 66/66
f 66/66 67/67 58/58
f 61/61 58/58 67/67
f 67/67 68/68 61/61
f 61/61 68/68 64/64
f 69/69 65/65 64/64
f 64/64 68/68 69/69
f 69/69 68/68 70/70
f 70/70 71/71 69/69
f 72/72 66/66 73/73
f 73/73 74/74 72/72
f 74/74 75/75 72/72
f 76/76 73/73 66/66
f 77/77 78/78 79/79
f 79/79 80/80 77/77
f 77/77 80/80 81/81
f 81/81 82/82 77/77
f 81/81 83/83 82/82
f 84/84 83/83 81/81
f 83/83 84/84 85/85
f 86/86 83/83 85/85
f 87/87 88/88 89/89
f 89/89 88/88 90/90
f 90/90 88/88 91/91
f 91/91 92/92 90/90
f 92/92 91/91 93/93
f 93/93 94/94 92/92
f 93/93 95/95 94/94
f 95/95 93/93 96/96
f 89/89 97/97 87/87
f 98/98 99/99 100/100
f 100/100 101/101 98/98
f 98/98 101/101 102/102
f 102/102 103/103 98/98
f 103/103 102/102 104/104
f 104/104 105/105 103/103
f 106/106 105/105 104/104
f 104/104 107/107 106/106
f 100/100 99/99 108/108
f 108/108 109/109 100/100
f 109/109 108/108 110/110
f 109/109 110/110 111/111
f 98/98 112/112 99/99
f 112/112 108/108 99/99
f 108/108 112/112 113/113
f 113/113 110/110 108/108
f 112/112 98/98 114/114
f 106/106 115/115 105/105
f 103/103 105/105 115/115
f 115/115 106/106 116/116
f 115/115 117/117 103/103
f 98/98 117/117 114/114
f 117/117 98/98 103/103
f 113/113 118/118 110/110
f 112/112 119/119 120/120
f 119/119 121/121 120/120
f 122/122 121/121 119/119
f 123/123 124/124 125/125
f 125/125 126/126 123/123
f 125/125 127/127 126/126
f 128/128 126/126 127/127
f 127/127 129/129 128/128
f 127/127 130/130 129/129
f 130/130 131/131 129/129
f 125/125 124/124 132/132
f 132/132 133/133 125/125
f 133/133 127/127 125/125
f 127/127 133/133 130/130
f 132/132 124/124 9/9
f 9/9 12/12 132/132
f 5/5 9/9 124/124
f 134/134 135/135 136/136
f 136/136 137/137 134/134
f 138/138 136/136 135/135
f 135/135 139/139 138/138
f 139/139 140/140 138/138
f 140/140 141/141 138/138
f 142/142 141/141 140/140
f 140/140 143/143 142/142
f 100/100 144/144 145/145
f 146/146 145/145 144/144
f 144/144 147/147 146/146
f 148/148 149/149 150/150
f 150/150 151/151 148/148
f 151/151 152/152 148/148
f 149/149 153/153 150/150
f 154/154 152/152 151/151
f 155/155 156/156 157/157
f 158/158 155/155 157/157
f 157/157 159/159 158/158
f 155/155 160/160 161/161
f 161/161 162/162 155/155
f 163/163 157/157 164/164
f 165/165 166/166 167/167
f 167/167 168/168 165/165
f 169/169 165/165 168/168
f 170/170 165/165 169/169
f 168/168 171/171 169/169
f 172/172 170/170 169/169
f 169/169 173/173 172/172
f 171/171 173/173 169/169
f 172/172 173/173 174/174
f 174/174 175/175 172/172
f 176/176 177/177 178/178
f 179/179 178/178 177/177
f 178/178 179/179 180/180
f 180/180 179/179 181/181
f 177/177 176/176 182/182
f 182/182 176/176 183/183
f 183/183 184/184 182/182
f 184/184 183/183 185/185
f 185/185 186/186 184/184
f 186/186 185/185 187/187
f 185/185 188/188 187/187
f 188/188 185/185 189/189
f 185/185 190/190 189/189
f 190/190 185/185 191/191
f 189/189 190/190 192/192
f 192/192 190/190 193/193
f 178/178 193/193 194/194
f 191/191 194/194 190/190
f 190/190 194/194 193/193
f 192/192 193/193 195/195
f 193/193 178/178 195/195
f 180/180 195/195 178/178
f 195/195 180/180 196/196
f 189/189 197/197 188/188
f 197/197 189/189 198/198
f 192/192 198/198 189/189
f 198/198 192/192 199/199
f 192/192 195/195 199/199
f 200/200 195/195 196/196
f 195/195 200/200 199/199
f 200/200 201/201 199/199
f 201/201 200/200 202/202
f 203/203 204/204 197/197
f 204/204 203/203 205/205
f 205/205 203/203 206/206
f 207/207 197/197 204/204
f 208/208 209/209 210/210
f 209/209 208/208 211/211
f 208/208 212/212 211/211
f 212/212 208/208 213/213
f 212/212 213/213 214/214
f 215/215 212/212 214/214
f 214/214 216/216 215/215
f 217/217 216/216 214/214
f 218/218 219/219 220/220
f 219/219 221/221 220/220
f 221/221 222/222 220/220
f 222/222 221/221 223/223
f 223/223 224/224 222/222
f 224/224 223/223 225/225
f 224/224 225/225 226/226
f 226/226 227/227 224/224
f 219/219 218/218 228/228
f 229/229 230/230 231/231
f 230/230 229/229 232/232
f 230/230 232/232 233/233
f 234/234 233/233 232/232
f 233/233 234/234 235/235
f 233/233 235/235 236/236
f 236/236 235/235 237/237
f 28/28 231/231 230/230
f 230/230 238/238 28/28
f 238/238 230/230 233/233
f 233/233 236/236 238/238
f 239/239 240/240 241/241
f 240/240 239/239 242/242
f 243/243 241/241 240/240
f 241/241 243/243 244/244
f 244/244 243/243 245/245
f 245/245 243/243 246/246
f 247/247 245/245 246/246
f 245/245 247/247 248/248
f 249/249 250/250 251/251
f 250/250 249/249 252/252
f 252/252 249/249 253/253
f 251/251 250/250 254/254
f 255/255 252/252 253/253
f 256/256 257/257 258/258
f 259/259 257/257 256/256
f 257/257 259/259 260/260
f 261/261 262/262 256/256
f 256/256 263/263 261/261
f 264/264 265/265 257/257
f 266/266 267/267 268/268
f 267/267 266/266 269/269
f 270/270 269/269 266/266
f 271/271 270/270 266/266
f 269/269 270/270 272/272
f 273/273 270/270 271/271
f 270/270 273/273 274/274
f 272/272 270/270 274/274
f 273/273 275/275 274/274
f 275/275 273/273 276/276
f 277/277 278/278 279/279
f 279/279 280/280 277/277
f 281/281 282/282 283/283
f 283/283 284/284 281/281
f 283/283 282/282 285/285
f 286/286 287/287 288/288
f 288/288 289/289 286/286
f 290/290 291/291 292/292
f 292/292 293/293 290/290
f 290/290 293/293 294/294
f 294/294 295/295 290/290
f 296/296 295/295 294/294
f 297/297 298/298 299/299
f 300/300 298/298 297/297
f 301/301 302/302 303/303
f 303/303 304/304 301/301
f 305/305 306/306 307/307
f 308/308 309/309 310/310
f 311/311 312/312 313/313
f 313/313 312/312 314/314
f 315/315 316/316 317/317
f 318/318 316/316 315/315
f 319/319 320/320 321/321
f 322/322 320/320 319/319
f 323/323 324/324 325/325
f 325/325 324/324 326/326
f 325/325 326/326 327/327
f 327/327 326/326 328/328
f 326/326 329/329 328/328
f 325/325 330/330 323/323
f 325/325 331/331 330/330
f 327/327 331/331 325/325
f 332/332 330/330 331/331
f 333/333 332/332 331/331
f 331/331 334/334 333/333
f 334/334 335/335 333/333
f 336/336 334/334 331/331
f 336/336 335/335 334/334
f 331/331 337/337 336/336
f 338/338 329/329 326/326
f 339/339 329/329 338/338
f 338/338 340/340 339/339
f 326/326 341/341 338/338
f 339/339 340/340 342/342
f 342/342 343/343 339/339
f 344/344 343/343 342/342
f 342/342 345/345 344/344
f 344/344 345/345 346/346
f 347/347 348/348 349/349
f 348/348 350/350 349/349
f 351/351 350/350 348/348
f 347/347 349/349 352/352
f 352/352 349/349 350/350
f 352/352 353/353 347/347
f 354/354 352/352 350/350
f 350/350 355/355 354/354
f 356/356 354/354 355/355
f 354/354 356/356 357/357
f 358/358 354/354 357/357
f 357/357 359/359 358/358
f 360/360 354/354 358/358
f 358/358 361/361 360/360
f 352/352 361/361 362/362
f 362/362 353/353 352/352
f 358/358 363/363 362/362
f 362/362 363/363 364/364
f 365/365 364/364 363/363
f 366/366 364/364 365/365
f 363/363 367/367 365/365
f 367/367 363/363 368/368
f 368/368 369/369 367/367
f 369/369 370/370 367/367
f 371/371 365/365 367/367
f 367/367 370/370 371/371
f 372/372 365/365 371/371
f 365/365 373/373 366/366
f 365/365 374/374 373/373
f 364/364 375/375 362/362
f 364/364 376/376 375/375
f 377/377 362/362 375/375
f 376/376 378/378 375/375
f 379/379 375/375 378/378
f 378/378 380/380 379/379
f 375/375 381/381 377/377
f 382/382 383/383 379/379
f 383/383 384/384 379/379
f 385/385 386/386 387/387
f 388/388 387/387 386/386
f 386/386 389/389 388/388
f 388/388 390/390 387/387
f 390/390 388/388 391/391
f 392/392 390/390 391/391
f 391/391 393/393 392/392
f 391/391 394/394 393/393
f 394/394 391/391 395/395
f 395/395 391/391 388/388
f 395/395 388/388 389/389
f 387/387 396/396 385/385
f 358/358 397/397 398/398
f 398/398 397/397 399/399
f 399/399 397/397 400/400
f 401/401 399/399 400/400
f 401/401 400/400 402/402
f 402/402 403/403 401/401
f 404/404 401/401 403/403
f 404/404 405/405 401/401
f 399/399 401/401 405/405
f 406/406 405/405 404/404
f 399/399 405/405 406/406
f 406/406 407/407 399/399
f 408/408 398/398 399/399
f 399/399 409/409 408/408
f 397/397 358/358 410/410
f 400/400 397/397 411/411
f 411/411 402/402 400/400
f 410/410 411/411 397/397
f 358/358 398/398 363/363
f 363/363 412/412 368/368
f 413/413 414/414 415/415
f 413/413 415/415 416/416
f 416/416 417/417 413/413
f 415/415 418/418 416/416
f 415/415 419/419 418/418
f 420/420 416/416 418/418
f 420/420 417/417 416/416
f 421/421 417/417 420/420
f 418/418 422/422 420/420
f 423/423 420/420 422/422
f 423/423 421/421 420/420
f 417/417 421/421 424/424
f 424/424 425/425 417/417
f 424/424 426/426 425/425
f 426/426 427/427 425/425
f 427/427 426/426 428/428
f 414/414 429/429 430/430
f 430/430 429/429 431/431
f 432/432 430/430 431/431
f 431/431 433/433 432/432
f 432/432 433/433 434/434
f 435/435 436/436 437/437
f 436/436 438/438 437/437
f 437/437 439/439 435/435
f 439/439 440/440 441/441
f 442/442 441/441 440/440
f 440/440 443/443 442/442
f 442/442 444/444 441/441
f 436/436 445/445 446/446
f 446/446 445/445 447/447
f 448/448 449/449 450/450
f 450/450 449/449 451/451
f 451/451 452/452 450/450
f 450/450 453/453 448/448
f 448/448 453/453 454/454
f 455/455 456/456 457/457
f 456/456 455/455 458/458
f 457/457 459/459 455/455
f 457/457 413/413 459/459
f 413/413 460/460 459/459
f 353/353 362/362 461/461
f 362/362 462/462 461/461
f 463/463 464/464 465/465
f 466/466 465/465 464/464
f 465/465 466/466 467/467
f 464/464 468/468 466/466
f 463/463 469/469 464/464
f 464/464 469/469 470/470
f 464/464 470/470 471/471
f 471/471 470/470 472/472
f 470/470 473/473 472/472
f 472/472 474/474 471/471
f 474/474 472/472 475/475
f 476/476 475/475 472/472
f 475/475 477/477 474/474
f 475/475 478/478 477/477
f 477/477 479/479 474/474
f 473/473 480/480 472/472
f 472/472 480/480 481/481
f 472/472 481/481 476/476
f 481/481 482/482 476/476
f 480/480 483/483 481/481
f 484/484 473/473 470/470
f 471/471 485/485 464/464
f 486/486 464/464 485/485
f 485/485 487/487 486/486
f 479/479 487/487 485/485
f 478/478 486/486 487/487
f 488/488 478/478 489/489
f 488/488 489/489 490/490
f 491/491 488/488 490/490
f 491/491 490/490 492/492
f 490/490 489/489 492/492
f 489/489 478/478 492/492
f 493/493 494/494 495/495
f 495/495 496/496 493/493
f 497/497 494/494 493/493
f 493/493 498/498 497/497
f 493/493 499/499 498/498
f 499/499 500/500 498/498
f 493/493 501/501 499/499
f 496/496 501/501 493/493
f 496/496 502/502 501/501
f 503/503 504/504 505/505
f 504/504 503/503 506/506
f 507/507 508/508 509/509
f 508/508 507/507 510/510
f 508/508 511/511 509/509
f 512/512 513/513 514/514
f 513/513 512/512 515/515
f 516/516 517/517 518/518
f 517/517 516/516 519/519
f 516/516 520/520 519/519
f 520/520 516/516 521/521
f 522/522 520/520 521/521
f 523/523 524/524 525/525
f 526/526 523/523 525/525
f 527/527 528/528 529/529
f 528/528 527/527 530/530
f 531/531 532/532 533/533
f 534/534 535/535 536/536
f 537/537 538/538 539/539
f 538/538 540/540 539/539
f 541/541 542/542 543/543
f 544/544 541/541 543/543
f 545/545 546/546 547/547
f 548/548 545/545 547/547
f 549/549 550/550 551/551
f 552/552 550/550 549/549
f 553/553 552/552 549/549
f 552/552 553/553 554/554
f 555/555 552/552 554/554
f 551/551 556/556 549/549
f 556/556 557/557 549/549
f 549/549 557/557 553/553
f 558/558 557/557 556/556
f 559/559 557/557 558/558
f 557/557 559/559 560/560
f 560/560 559/559 561/561
f 562/562 557/557 560/560
f 562/562 560/560 561/561
f 557/557 562/562 563/563
f 564/564 552/552 555/555
f 565/565 564/564 555/555
f 564/564 565/565 566/566
f 552/552 564/564 567/567
f 565/565 568/568 566/566
f 568/568 565/565 569/569
f 570/570 568/568 569/569
f 568/568 570/570 571/571
f 570/570 572/572 571/571
f 573/573 574/574 575/575
f 575/575 574/574 576/576
f 577/577 575/575 576/576
f 573/573 578/578 574/574
f 578/578 576/576 574/574
f 578/578 573/573 579/579
f 580/580 576/576 578/578
f 576/576 580/580 581/581
f 582/582 581/581 580/580
f 583/583 582/582 580/580
f 583/583 580/580 584/584
f 584/584 585/585 583/583
f 586/586 584/584 580/580
f 584/584 586/586 587/587
f 588/588 587/587 578/578
f 578/578 579/579 588/588
f 588/588 589/589 584/584
f 588/588 590/590 589/589
f 591/591 589/589 590/590
f 592/592 591/591 590/590
f 589/589 591/591 593/593
f 593/593 594/594 589/589
f 594/594 593/593 595/595
f 595/595 593/593 596/596
f 597/597 593/593 591/591
f 593/593 597/597 596/596
f 598/598 597/597 591/591
f 591/591 592/592 599/599
f 591/591 599/599 600/600
f 590/590 588/588 601/601
f 590/590 601/601 602/602
f 603/603 601/601 588/588
f 602/602 601/601 604/604
f 605/605 604/604 601/601
f 604/604 605/605 606/606
f 601/601 603/603 607/607
f 608/608 605/605 609/609
f 609/609 605/605 610/610
f 611/611 612/612 613/613
f 614/614 613/613 612/612
f 613/613 614/614 615/615
f 614/614 612/612 616/616
f 616/616 617/617 614/614
f 618/618 617/617 616/616
f 617/617 618/618 619/619
f 617/617 619/619 620/620
f 620/620 621/621 617/617
f 621/621 614/614 617/617
f 621/621 615/615 614/614
f 612/612 611/611 622/622
f 584/584 623/623 624/624
f 623/623 625/625 624/624
f 625/625 626/626 624/624
f 627/627 626/626 625/625
f 628/628 626/626 627/627
f 627/627 629/629 628/628
f 630/630 629/629 627/627
f 630/630 627/627 631/631
f 625/625 631/631 627/627
f 632/632 630/630 631/631
f 625/625 632/632 631/631
f 632/632 625/625 633/633
f 634/634 625/625 623/623
f 625/625 634/634 635/635
f 636/636 584/584 624/624
f 626/626 637/637 624/624
f 637/637 626/626 628/628
f 624/624 637/637 636/636
f 589/589 623/623 584/584
f 589/589 594/594 638/638
f 639/639 640/640 641/641
f 639/639 642/642 640/640
f 642/642 639/639 643/643
f 640/640 642/642 644/644
f 640/640 644/644 645/645
f 644/644 642/642 646/646
f 646/646 642/642 643/643
f 647/647 646/646 643/643
f 646/646 648/648 644/644
f 649/649 648/648 646/646
f 649/649 646/646 647/647
f 643/643 650/650 647/647
f 650/650 643/643 651/651
f 650/650 651/651 652/652
f 652/652 651/651 653/653
f 653/653 654/654 652/652
f 641/641 655/655 656/656
f 655/655 657/657 656/656
f 658/658 657/657 655/655
f 657/657 658/658 659/659
f 658/658 660/660 659/659
f 661/661 662/662 663/663
f 663/663 662/662 664/664
f 662/662 661/661 665/665
f 665/665 666/666 667/667
f 668/668 667/667 666/666
f 667/667 668/668 669/669
f 668/668 666/666 670/670
f 663/663 671/671 672/672
f 671/671 673/673 672/672
f 674/674 675/675 676/676
f 675/675 677/677 676/676
f 677/677 675/675 678/678
f 675/675 674/674 679/679
f 674/674 680/680 679/679
f 681/681 682/682 683/683
f 683/683 684/684 681/681
f 682/682 681/681 685/685
f 682/682 685/685 639/639
f 639/639 685/685 686/686
f 579/579 687/687 588/588
f 588/588 687/687 688/688
f 689/689 690/690 691/691
f 692/692 691/691 690/690
f 690/690 693/693 692/692
f 691/691 692/692 694/694
f 689/689 691/691 695/695
f 691/691 696/696 695/695
f 697/697 696/696 691/691
f 698/698 696/696 697/697
f 696/696 698/698 699/699
f 697/697 700/700 698/698
f 701/701 698/698 700/700
f 700/700 702/702 701/701
f 703/703 698/698 701/701
f 704/704 698/698 703/703
f 705/705 703/703 701/701
f 699/699 698/698 706/706
f 698/698 707/707 706/706
f 698/698 704/704 707/707
f 707/707 704/704 708/708
f 706/706 707/707 709/709
f 710/710 696/696 699/699
f 691/691 711/711 697/697
f 712/712 711/711 691/691
f 712/712 702/702 711/711
f 713/713 712/712 691/691
f 713/713 705/705 712/712
f 705/705 714/714 715/715
f 715/715 714/714 716/716
f 714/714 717/717 716/716
f 717/717 718/718 716/716
f 718/718 715/715 716/716
f 718/718 705/705 715/715
f 719/719 720/720 721/721
f 720/720 719/719 722/722
f 723/723 719/719 721/721
f 719/719 723/723 724/724
f 719/719 724/724 725/725
f 725/725 724/724 726/726
f 719/719 725/725 727/727
f 722/722 719/719 727/727
f 722/722 727/727 728/728
f 729/729 730/730 731/731
f 730/730 732/732 731/731
f 729/729 731/731 733/733
f 731/731 732/732 733/733
f 734/734 735/735 736/736
f 735/735 737/737 736/736
f 737/737 738/738 736/736
f 738/738 734/734 736/736
