mtllib Npc_69000.mtl
o Npc_69000
v 0.00900 -0.18900 2.66760 0.698 0.000 0.000
v 0.02700 -0.16740 2.65500 0.773 0.000 0.000
v 0.00000 -0.15300 2.65500 0.875 0.000 0.000
v -0.00900 -0.20340 2.64600 0.667 0.000 0.000
v -0.00900 -0.13500 2.61900 0.875 0.000 0.000
v -0.01080 -0.19980 2.60100 0.741 0.000 0.000
v 0.00900 -0.17100 2.55420 0.780 0.000 0.000
v 0.00900 -0.11700 2.58300 0.875 0.000 0.000
v 0.02520 -0.15300 2.54880 0.792 0.000 0.000
v 0.03600 -0.14400 2.55600 0.788 0.000 0.000
v 0.01260 -0.16740 2.60820 0.875 0.000 0.000
v 0.02520 -0.15300 2.54880 0.792 0.000 0.000
v 0.03600 -0.14400 2.55600 0.788 0.000 0.000
v 0.00900 -0.17100 2.55420 0.780 0.000 0.000
v -0.01080 -0.19980 2.60100 0.741 0.000 0.000
v -0.00900 -0.20340 2.64600 0.667 0.000 0.000
v 0.02700 -0.16740 2.65500 0.773 0.000 0.000
v 0.00900 -0.18900 2.66760 0.698 0.000 0.000
v 0.00000 0.15300 2.65500 0.800 0.000 0.000
v 0.02700 0.16740 2.65500 0.773 0.000 0.000
v 0.00900 0.18900 2.66760 0.698 0.000 0.000
v -0.00900 0.20340 2.64600 0.667 0.000 0.000
v -0.00900 0.13500 2.61900 0.835 0.000 0.000
v -0.01080 0.19980 2.60100 0.741 0.000 0.000
v 0.00900 0.17100 2.55420 0.780 0.000 0.000
v 0.00900 0.11700 2.58300 0.816 0.000 0.000
v 0.02520 0.15300 2.54880 0.792 0.000 0.000
v 0.03600 0.14400 2.55600 0.788 0.000 0.000
v 0.03600 0.14400 2.55600 0.788 0.000 0.000
v 0.02520 0.15300 2.54880 0.792 0.000 0.000
v 0.01260 0.16740 2.60820 0.875 0.000 0.000
v 0.00900 0.17100 2.55420 0.780 0.000 0.000
v -0.01080 0.19980 2.60100 0.741 0.000 0.000
v -0.00900 0.20340 2.64600 0.667 0.000 0.000
v 0.02700 0.16740 2.65500 0.773 0.000 0.000
v 0.00900 0.18900 2.66760 0.698 0.000 0.000
vt 0.30469 0.02344
vt 0.51562 0.01562
vt 0.42188 0.20312
vt 0.11719 0.11719
vt 0.35938 0.45312
vt 0.02344 0.36719
vt 0.02344 0.77344
vt 0.35938 0.76562
vt 0.08594 0.92969
vt 0.17188 0.98438
vt 0.71094 0.52344
vt 0.85938 0.01562
vt 0.70312 0.01562
vt 0.98438 0.14062
vt 0.98438 0.64062
vt 0.79688 0.98438
vt 0.39062 0.79688
vt 0.54688 0.98438
vt 0.42188 0.20312
vt 0.51562 0.01562
vt 0.30469 0.02344
vt 0.11719 0.11719
vt 0.35938 0.45312
vt 0.02344 0.36719
vt 0.02344 0.77344
vt 0.35938 0.76562
vt 0.08594 0.92969
vt 0.17188 0.98438
vt 0.70312 0.01562
vt 0.85938 0.01562
vt 0.71094 0.52344
vt 0.98438 0.14062
vt 0.98438 0.64062
vt 0.79688 0.98438
vt 0.39062 0.79688
vt 0.54688 0.98438
usemtl m0
f 1/1 2/2 3/3
f 3/3 4/4 1/1
f 3/3 5/5 4/4
f 5/5 6/6 4/4
f 5/5 7/7 6/6
f 8/8 7/7 5/5
f 8/8 9/9 7/7
f 10/10 9/9 8/8
f 11/11 12/12 13/13
f 14/14 12/12 11/11
f 15/15 14/14 11/11
f 16/16 15/15 11/11
f 11/11 13/13 17/17
f 16/16 11/11 18/18
f 18/18 11/11 17/17
f 19/19 20/20 21/21
f 21/21 22/22 19/19
f 22/22 23/23 19/19
f 22/22 24/24 23/23
f 24/24 25/25 23/23
f 23/23 25/25 26/26
f 25/25 27/27 26/26
f 26/26 27/27 28/28
f 29/29 30/30 31/31
f 31/31 30/30 32/32
f 31/31 32/32 33/33
f 31/31 33/33 34/34
f 35/35 29/29 31/31
f 36/36 31/31 34/34
f 35/35 31/31 36/36
