mtllib Npc_67004.mtl
o Npc_67004
v -0.35100 -0.65700 1.46340 0.000 0.000 0.984
v -0.38700 -0.81900 1.17540 0.000 0.000 1.000
v -0.34200 -0.63000 1.35360 0.000 0.000 1.000
v -0.38700 -0.70200 1.22400 0.000 0.000 1.000
v -0.38340 -0.59400 1.29600 0.000 0.000 1.000
v -0.37800 -0.52200 1.40940 0.000 0.000 1.000
v -0.22140 -0.46800 2.03040 0.000 0.000 1.000
v -0.25200 -0.35100 2.04660 0.000 0.000 1.000
v -0.40500 -0.31500 1.39500 0.000 0.000 1.000
v -0.33300 0.00000 2.08260 0.000 0.000 1.000
v -0.40500 0.00000 1.38060 0.000 0.000 1.000
v -0.42300 -0.22500 0.96840 0.000 0.000 1.000
v -0.31500 0.00000 0.74700 0.000 0.000 1.000
v -0.14760 -0.17460 2.38680 0.000 0.000 1.000
v -0.16200 0.00000 2.39580 0.000 0.000 1.000
v -0.46800 -0.39600 1.15200 0.000 0.000 1.000
v -0.40500 -0.50040 1.16820 0.000 0.000 1.000
v -0.43200 -0.42300 0.91260 0.000 0.000 1.000
v -0.14400 -0.32400 2.37600 0.000 0.000 1.000
v -0.39600 -0.25200 0.81720 0.000 0.000 1.000
v -0.08100 -0.25200 2.53800 0.000 0.000 1.000
v -0.03420 -0.05400 2.47500 0.000 0.000 1.000
v -0.03420 0.00000 2.47500 0.000 0.000 1.000
v 0.00000 -0.10800 2.53800 0.000 0.000 1.000
v 0.00000 -0.19800 2.67300 0.000 0.000 1.000
v 0.03600 0.00000 2.55600 0.000 0.000 1.000
v 0.06300 -0.16380 2.70900 0.000 0.000 1.000
v -0.03420 0.05400 2.47500 0.000 0.000 1.000
v -0.14760 0.17460 2.38680 0.000 0.000 1.000
v -0.25200 0.35100 2.04660 0.000 0.000 1.000
v -0.40500 0.31500 1.39500 0.000 0.000 1.000
v -0.42300 0.22500 0.96840 0.000 0.000 1.000
v -0.37800 0.52200 1.40940 0.000 0.000 1.000
v -0.46800 0.39600 1.15200 0.000 0.000 1.000
v -0.40500 0.50040 1.16820 0.000 0.000 1.000
v -0.43200 0.42300 0.91260 0.000 0.000 1.000
v -0.14400 0.32400 2.37600 0.000 0.000 1.000
v -0.22140 0.46800 2.03040 0.000 0.000 1.000
v -0.34200 0.63000 1.35360 0.000 0.000 1.000
v -0.38340 0.59400 1.29600 0.000 0.000 1.000
v -0.38700 0.70200 1.22400 0.000 0.000 1.000
v -0.38700 0.81900 1.17540 0.000 0.000 1.000
v -0.35100 0.65700 1.46340 0.000 0.000 0.984
v -0.39600 0.25200 0.81720 0.000 0.000 1.000
v -0.08100 0.25200 2.53800 0.000 0.000 1.000
v 0.00000 0.10800 2.53800 0.000 0.000 1.000
v 0.00000 0.19800 2.67300 0.000 0.000 1.000
v 0.06300 0.16380 2.70900 0.000 0.000 1.000
v 0.02520 -0.17460 2.74320 0.000 0.000 1.000
v 0.02700 -0.17640 2.71800 0.000 0.000 1.000
v 0.05940 -0.16380 2.73780 0.000 0.000 1.000
v 0.00000 -0.19800 2.67300 0.000 0.000 1.000
v -0.03600 -0.18180 2.76300 0.000 0.000 1.000
v 0.00000 -0.16200 2.80800 0.000 0.000 0.831
v 0.06480 -0.15120 2.79180 0.000 0.000 0.820
v 0.08280 -0.15120 2.77200 0.000 0.000 1.000
v 0.05220 -0.12600 2.84760 0.000 0.000 0.961
v 0.00000 -0.12600 2.86200 0.000 0.000 1.000
v 0.10620 -0.12240 2.82420 0.000 0.000 0.961
v 0.12060 -0.12960 2.79900 0.000 0.000 1.000
v 0.07560 -0.07740 2.87280 0.000 0.000 1.000
v 0.13680 -0.07200 2.84220 0.000 0.000 0.980
v 0.15840 -0.09000 2.80620 0.000 0.000 1.000
v 0.14580 -0.04680 2.84580 0.000 0.000 1.000
v 0.16560 -0.05040 2.81880 0.000 0.000 1.000
v 0.09000 0.00000 2.88900 0.000 0.000 1.000
v 0.14940 0.00000 2.85120 0.000 0.000 1.000
v 0.17460 0.00000 2.82060 0.000 0.000 1.000
v 0.00000 -0.07200 2.89440 0.000 0.000 1.000
v 0.00000 0.00000 2.90700 0.000 0.000 1.000
v -0.05400 -0.05400 2.89440 0.000 0.000 1.000
v -0.08100 0.00000 2.89440 0.000 0.000 1.000
v -0.11700 -0.08100 2.86200 0.000 0.000 1.000
v -0.06300 -0.11700 2.86200 0.000 0.000 1.000
v -0.14400 0.00000 2.86200 0.000 0.000 1.000
v -0.09000 -0.15300 2.80800 0.000 0.000 0.847
v -0.16200 -0.09900 2.80800 0.000 0.000 0.871
v -0.15300 -0.14400 2.72340 0.000 0.000 1.000
v -0.19800 -0.08100 2.72340 0.000 0.000 1.000
v -0.18900 0.00000 2.80800 0.000 0.000 0.867
v -0.21600 0.00000 2.72340 0.000 0.000 1.000
v -0.08100 -0.18900 2.70900 0.000 0.000 1.000
v -0.24300 -0.10800 2.59200 0.000 0.000 1.000
v -0.18000 -0.20700 2.57400 0.000 0.000 1.000
v -0.08100 -0.25200 2.53800 0.000 0.000 1.000
v -0.26280 0.00000 2.59740 0.000 0.000 1.000
v -0.14400 -0.32400 2.37600 0.000 0.000 1.000
v -0.25200 -0.25200 2.41740 0.000 0.000 1.000
v -0.33300 -0.39600 2.08260 0.000 0.000 1.000
v -0.41580 -0.30600 2.12400 0.000 0.000 1.000
v -0.32400 -0.14400 2.44800 0.000 0.000 1.000
v -0.50400 -0.17100 2.16000 0.000 0.000 1.000
v -0.34200 0.00000 2.45340 0.000 0.000 1.000
v -0.52200 0.00000 2.16000 0.000 0.000 1.000
v -0.22140 -0.46800 2.03040 0.000 0.000 1.000
v -0.54000 -0.35640 1.78380 0.000 0.000 0.824
v -0.63000 -0.19620 1.79820 0.000 0.000 0.824
v -0.58500 -0.34200 1.43640 0.000 0.000 0.996
v -0.64800 -0.19800 1.42200 0.000 0.000 1.000
v -0.72000 0.00000 1.48500 0.000 0.000 0.965
v -0.66600 0.00000 1.80180 0.000 0.000 0.824
v -0.72000 0.00000 1.12500 0.000 0.000 0.984
v -0.63000 0.00000 1.24380 0.000 0.000 1.000
v -0.53100 -0.30600 1.20240 0.000 0.000 1.000
v -0.49500 -0.46800 1.43640 0.000 0.000 0.992
v -0.46800 -0.39600 1.15200 0.000 0.000 1.000
v -0.39600 -0.25200 0.81720 0.000 0.000 1.000
v -0.42300 -0.22500 0.96840 0.000 0.000 1.000
v -0.43200 -0.42300 0.91260 0.000 0.000 1.000
v -0.40500 -0.50040 1.16820 0.000 0.000 1.000
v -0.37800 -0.52200 1.40940 0.000 0.000 1.000
v -0.44100 -0.46080 1.77120 0.000 0.000 0.824
v -0.59400 -0.16560 1.22400 0.000 0.000 1.000
v -0.63000 0.00000 1.24380 0.000 0.000 1.000
v -0.54000 0.00000 1.03140 0.000 0.000 1.000
v -0.50400 -0.12600 1.00800 0.000 0.000 1.000
v -0.31500 0.00000 0.74700 0.000 0.000 1.000
v -0.50400 0.12600 1.00800 0.000 0.000 1.000
v -0.42300 0.22500 0.96840 0.000 0.000 1.000
v -0.59400 0.16560 1.22400 0.000 0.000 1.000
v -0.64800 0.19800 1.42200 0.000 0.000 1.000
v -0.53100 0.30600 1.20240 0.000 0.000 1.000
v -0.39600 0.25200 0.81720 0.000 0.000 1.000
v -0.46800 0.39600 1.15200 0.000 0.000 1.000
v -0.49500 0.46800 1.43640 0.000 0.000 0.992
v -0.43200 0.42300 0.91260 0.000 0.000 1.000
v -0.40500 0.50040 1.16820 0.000 0.000 1.000
v -0.37800 0.52200 1.40940 0.000 0.000 1.000
v -0.44100 0.46080 1.77120 0.000 0.000 0.824
v -0.58500 0.34200 1.43640 0.000 0.000 0.996
v -0.63000 0.19620 1.79820 0.000 0.000 0.824
v -0.54000 0.35640 1.78380 0.000 0.000 0.824
v -0.50400 0.17100 2.16000 0.000 0.000 1.000
v -0.41580 0.30600 2.12400 0.000 0.000 1.000
v -0.32400 0.14400 2.44800 0.000 0.000 1.000
v -0.25200 0.25200 2.41740 0.000 0.000 1.000
v -0.33300 0.39600 2.08260 0.000 0.000 1.000
v -0.14400 0.32400 2.37600 0.000 0.000 1.000
v -0.18000 0.20700 2.57400 0.000 0.000 1.000
v -0.08100 0.25200 2.53800 0.000 0.000 1.000
v -0.08100 0.18900 2.70900 0.000 0.000 1.000
v -0.15300 0.14400 2.72340 0.000 0.000 1.000
v -0.09000 0.15300 2.80800 0.000 0.000 0.847
v -0.16200 0.09900 2.80800 0.000 0.000 0.871
v -0.19800 0.08100 2.72340 0.000 0.000 1.000
v -0.24300 0.10800 2.59200 0.000 0.000 1.000
v 0.00000 0.19800 2.67300 0.000 0.000 1.000
v -0.03600 0.18180 2.76300 0.000 0.000 1.000
v 0.00000 0.16200 2.80800 0.000 0.000 0.831
v 0.02520 0.17460 2.74320 0.000 0.000 1.000
v 0.06480 0.15120 2.79180 0.000 0.000 0.820
v 0.08280 0.15120 2.77200 0.000 0.000 1.000
v 0.05220 0.12600 2.84760 0.000 0.000 0.961
v 0.00000 0.12600 2.86200 0.000 0.000 1.000
v 0.10620 0.12240 2.82420 0.000 0.000 0.961
v 0.12060 0.12960 2.79900 0.000 0.000 1.000
v 0.07560 0.07740 2.87280 0.000 0.000 1.000
v 0.13680 0.07200 2.84220 0.000 0.000 0.980
v 0.15840 0.09000 2.80620 0.000 0.000 1.000
v 0.14580 0.04680 2.84580 0.000 0.000 1.000
v 0.16560 0.05040 2.81880 0.000 0.000 1.000
v 0.00000 0.07200 2.89440 0.000 0.000 1.000
v -0.05400 0.05400 2.89440 0.000 0.000 1.000
v -0.11700 0.08100 2.86200 0.000 0.000 1.000
v -0.06300 0.11700 2.86200 0.000 0.000 1.000
v 0.06300 -0.16380 2.70900 0.000 0.000 1.000
v -0.42300 -0.63900 1.39500 0.000 0.000 1.000
v -0.38700 -0.81900 1.17540 0.000 0.000 1.000
v -0.35100 -0.65700 1.46340 0.000 0.000 0.984
v -0.38700 -0.70200 1.22400 0.000 0.000 1.000
v -0.38340 -0.59400 1.29600 0.000 0.000 1.000
v -0.44100 -0.46080 1.77120 0.000 0.000 0.824
v -0.36900 -0.52200 1.76760 0.000 0.000 0.945
v -0.44100 -0.46080 1.77120 0.000 0.000 0.824
v 0.05940 0.16380 2.73780 0.000 0.000 1.000
v 0.02700 0.17640 2.71800 0.000 0.000 1.000
v 0.06300 0.16380 2.70900 0.000 0.000 1.000
v -0.22140 0.46800 2.03040 0.000 0.000 1.000
v -0.36900 0.52200 1.76760 0.000 0.000 0.945
v -0.44100 0.46080 1.77120 0.000 0.000 0.824
v -0.42300 0.63900 1.39500 0.000 0.000 1.000
v -0.35100 0.65700 1.46340 0.000 0.000 0.984
v -0.38700 0.81900 1.17540 0.000 0.000 1.000
v -0.38700 0.70200 1.22400 0.000 0.000 1.000
v -0.38340 0.59400 1.29600 0.000 0.000 1.000
v -0.44100 0.46080 1.77120 0.000 0.000 0.824
vt 0.99219 0.42969
vt 0.85156 0.91406
vt 0.85156 0.47656
vt 0.77344 0.72656
vt 0.71094 0.55469
vt 0.71094 0.38281
vt 0.99219 0.00781
vt 0.69531 0.00781
vt 0.41406 0.36719
vt 0.00781 0.00781
vt 0.00781 0.32031
vt 0.28906 0.80469
vt 0.00781 0.99219
vt 0.46094 0.39844
vt 0.00781 0.39844
vt 0.49219 0.63281
vt 0.66406 0.63281
vt 0.57031 0.80469
vt 0.99219 0.39844
vt 0.39844 0.92969
vt 0.99219 0.16406
vt 0.14844 0.24219
vt 0.00781 0.25781
vt 0.42969 0.19531
vt 0.99219 0.00781
vt 0.07031 0.00781
vt 0.99219 0.21094
vt 0.14844 0.24219
vt 0.46094 0.39844
vt 0.69531 0.00781
vt 0.41406 0.36719
vt 0.28906 0.80469
vt 0.71094 0.38281
vt 0.49219 0.63281
vt 0.66406 0.63281
vt 0.57031 0.80469
vt 0.99219 0.39844
vt 0.99219 0.00781
vt 0.85156 0.47656
vt 0.71094 0.55469
vt 0.77344 0.72656
vt 0.85156 0.91406
vt 0.99219 0.42969
vt 0.39844 0.92969
vt 0.99219 0.16406
vt 0.42969 0.19531
vt 0.99219 0.00781
vt 0.99219 0.21094
vt 0.13281 0.50781
vt 0.07031 0.58594
vt 0.13281 0.21094
vt 0.00781 0.38281
vt 0.27344 0.58594
vt 0.39844 0.39844
vt 0.41406 0.28906
vt 0.33594 0.22656
vt 0.60156 0.27344
vt 0.60156 0.36719
vt 0.60156 0.14844
vt 0.52344 0.07031
vt 0.72656 0.24219
vt 0.72656 0.11719
vt 0.66406 0.02344
vt 0.82031 0.11719
vt 0.82031 0.00781
vt 0.94531 0.22656
vt 0.94531 0.11719
vt 0.94531 0.00781
vt 0.75781 0.36719
vt 0.94531 0.35156
vt 0.80469 0.44531
vt 0.94531 0.47656
vt 0.72656 0.58594
vt 0.63281 0.44531
vt 0.94531 0.58594
vt 0.49219 0.58594
vt 0.66406 0.44531
vt 0.52344 0.30469
vt 0.71094 0.22656
vt 0.94531 0.42969
vt 0.94531 0.22656
vt 0.25781 0.39844
vt 0.66406 0.00781
vt 0.35156 0.00781
vt 0.00781 0.00781
vt 0.94531 0.00781
vt 0.00781 0.21094
vt 0.36719 0.21094
vt 0.28906 0.47656
vt 0.52344 0.47656
vt 0.66406 0.21094
vt 0.75781 0.47656
vt 0.99219 0.21094
vt 0.99219 0.47656
vt 0.00781 0.47656
vt 0.49219 0.38281
vt 0.74219 0.38281
vt 0.50781 0.28906
vt 0.72656 0.25781
vt 0.99219 0.28906
vt 0.99219 0.36719
vt 0.92969 0.57031
vt 0.99219 0.28906
vt 0.47656 0.19531
vt 0.27344 0.28906
vt 0.25781 0.19531
vt 0.35156 0.00781
vt 0.47656 0.03906
vt 0.07031 0.00781
vt 0.03906 0.16406
vt 0.00781 0.30469
vt 0.27344 0.39844
vt 0.72656 0.19531
vt 0.99219 0.19531
vt 0.91406 0.08594
vt 0.69531 0.10156
vt 0.69531 0.00781
vt 0.69531 0.10156
vt 0.47656 0.03906
vt 0.72656 0.19531
vt 0.72656 0.25781
vt 0.47656 0.19531
vt 0.35156 0.00781
vt 0.25781 0.19531
vt 0.27344 0.28906
vt 0.07031 0.00781
vt 0.03906 0.16406
vt 0.00781 0.30469
vt 0.27344 0.39844
vt 0.50781 0.28906
vt 0.74219 0.38281
vt 0.49219 0.38281
vt 0.75781 0.47656
vt 0.52344 0.47656
vt 0.66406 0.21094
vt 0.36719 0.21094
vt 0.28906 0.47656
vt 0.00781 0.21094
vt 0.35156 0.00781
vt 0.00781 0.00781
vt 0.25781 0.39844
vt 0.52344 0.30469
vt 0.49219 0.58594
vt 0.66406 0.44531
vt 0.71094 0.22656
vt 0.66406 0.00781
vt 0.00781 0.38281
vt 0.27344 0.58594
vt 0.39844 0.39844
vt 0.13281 0.50781
vt 0.41406 0.28906
vt 0.33594 0.22656
vt 0.60156 0.27344
vt 0.60156 0.36719
vt 0.60156 0.14844
vt 0.52344 0.07031
vt 0.72656 0.24219
vt 0.72656 0.11719
vt 0.66406 0.02344
vt 0.82031 0.11719
vt 0.82031 0.00781
vt 0.75781 0.36719
vt 0.80469 0.44531
vt 0.72656 0.58594
vt 0.63281 0.44531
vt 0.00781 0.66406
vt 0.13281 0.14844
vt 0.10156 0.00781
vt 0.00781 0.21094
vt 0.03906 0.08594
vt 0.00781 0.16406
vt 0.22656 0.47656
vt 0.19531 0.32031
vt 0.36719 0.35156
vt 0.13281 0.21094
vt 0.07031 0.58594
vt 0.00781 0.66406
vt 0.00781 0.47656
vt 0.19531 0.32031
vt 0.36719 0.35156
vt 0.13281 0.14844
vt 0.00781 0.21094
vt 0.10156 0.00781
vt 0.03906 0.08594
vt 0.00781 0.16406
vt 0.22656 0.47656
usemtl m0
f 1/1 2/2 3/3
f 3/3 2/2 4/4
f 3/3 4/4 5/5
f 3/3 5/5 6/6
f 1/1 3/3 7/7
f 7/7 3/3 8/8
f 8/8 3/3 6/6
f 6/6 9/9 8/8
f 8/8 9/9 10/10
f 9/9 11/11 10/10
f 9/9 12/12 11/11
f 12/12 13/13 11/11
f 14/14 8/8 10/10
f 14/14 10/10 15/15
f 6/6 16/16 9/9
f 6/6 17/17 16/16
f 17/17 18/18 16/16
f 19/19 8/8 14/14
f 19/19 7/7 8/8
f 16/16 20/20 9/9
f 9/9 20/20 12/12
f 21/21 19/19 14/14
f 22/22 14/14 15/15
f 21/21 14/14 22/22
f 22/22 15/15 23/23
f 21/21 22/22 24/24
f 21/21 24/24 25/25
f 24/24 22/22 26/26
f 22/22 23/23 26/26
f 25/25 24/24 26/26
f 25/25 26/26 27/27
f 23/23 15/15 28/28
f 26/26 23/23 28/28
f 15/15 29/29 28/28
f 15/15 10/10 29/29
f 10/10 30/30 29/29
f 10/10 31/31 30/30
f 10/10 11/11 31/31
f 11/11 32/32 31/31
f 11/11 13/13 32/32
f 30/30 31/31 33/33
f 31/31 34/34 33/33
f 34/34 35/35 33/33
f 34/34 36/36 35/35
f 29/29 30/30 37/37
f 30/30 38/38 37/37
f 30/30 39/39 38/38
f 33/33 39/39 30/30
f 33/33 40/40 39/39
f 40/40 41/41 39/39
f 41/41 42/42 39/39
f 39/39 42/42 43/43
f 38/38 39/39 43/43
f 31/31 44/44 34/34
f 32/32 44/44 31/31
f 29/29 37/37 45/45
f 28/28 29/29 45/45
f 46/46 28/28 45/45
f 47/47 46/46 45/45
f 26/26 28/28 46/46
f 26/26 46/46 47/47
f 48/48 26/26 47/47
f 49/49 50/50 51/51
f 49/49 52/52 50/50
f 53/53 52/52 49/49
f 53/53 49/49 54/54
f 54/54 49/49 55/55
f 55/55 49/49 56/56
f 54/54 55/55 57/57
f 58/58 54/54 57/57
f 57/57 55/55 59/59
f 59/59 55/55 60/60
f 57/57 59/59 61/61
f 58/58 57/57 61/61
f 61/61 59/59 62/62
f 59/59 63/63 62/62
f 61/61 62/62 64/64
f 62/62 65/65 64/64
f 61/61 64/64 66/66
f 66/66 64/64 67/67
f 64/64 68/68 67/67
f 69/69 61/61 66/66
f 69/69 58/58 61/61
f 69/69 66/66 70/70
f 71/71 69/69 70/70
f 72/72 71/71 70/70
f 72/72 73/73 71/71
f 73/73 74/74 71/71
f 71/71 74/74 69/69
f 75/75 73/73 72/72
f 73/73 76/76 74/74
f 74/74 58/58 69/69
f 74/74 76/76 58/58
f 76/76 54/54 58/58
f 76/76 53/53 54/54
f 75/75 77/77 73/73
f 77/77 76/76 73/73
f 77/77 78/78 76/76
f 79/79 78/78 77/77
f 80/80 79/79 77/77
f 80/80 77/77 75/75
f 81/81 79/79 80/80
f 78/78 82/82 76/76
f 76/76 82/82 53/53
f 82/82 52/52 53/53
f 79/79 83/83 78/78
f 81/81 83/83 79/79
f 83/83 84/84 78/78
f 78/78 84/84 82/82
f 84/84 85/85 82/82
f 82/82 85/85 52/52
f 81/81 86/86 83/83
f 87/87 85/85 84/84
f 87/87 84/84 88/88
f 88/88 89/89 87/87
f 90/90 89/89 88/88
f 91/91 90/90 88/88
f 91/91 88/88 84/84
f 83/83 91/91 84/84
f 86/86 91/91 83/83
f 92/92 90/90 91/91
f 93/93 92/92 91/91
f 93/93 91/91 86/86
f 94/94 92/92 93/93
f 89/89 95/95 87/87
f 92/92 96/96 90/90
f 97/97 96/96 92/92
f 97/97 98/98 96/96
f 97/97 99/99 98/98
f 100/100 99/99 97/97
f 101/101 100/100 97/97
f 101/101 97/97 92/92
f 94/94 101/101 92/92
f 100/100 102/102 99/99
f 99/99 102/102 103/103
f 99/99 104/104 98/98
f 98/98 104/104 105/105
f 98/98 105/105 96/96
f 104/104 106/106 105/105
f 104/104 107/107 106/106
f 108/108 107/107 104/104
f 106/106 109/109 105/105
f 105/105 109/109 110/110
f 105/105 110/110 111/111
f 105/105 111/111 112/112
f 96/96 105/105 112/112
f 113/113 104/104 99/99
f 114/114 113/113 99/99
f 114/114 115/115 113/113
f 96/96 112/112 90/90
f 90/90 112/112 89/89
f 115/115 116/116 113/113
f 115/115 117/117 116/116
f 116/116 117/117 108/108
f 113/113 116/116 104/104
f 116/116 108/108 104/104
f 118/118 117/117 115/115
f 119/119 117/117 118/118
f 120/120 115/115 114/114
f 120/120 118/118 115/115
f 121/121 120/120 114/114
f 121/121 122/122 120/120
f 122/122 118/118 120/120
f 122/122 119/119 118/118
f 122/122 123/123 119/119
f 124/124 123/123 122/122
f 125/125 124/124 122/122
f 125/125 126/126 124/124
f 127/127 126/126 125/125
f 128/128 127/127 125/125
f 129/129 128/128 125/125
f 130/130 122/122 121/121
f 125/125 122/122 130/130
f 130/130 121/121 131/131
f 132/132 130/130 131/131
f 132/132 125/125 130/130
f 129/129 125/125 132/132
f 131/131 121/121 100/100
f 131/131 100/100 101/101
f 121/121 102/102 100/100
f 103/103 102/102 121/121
f 133/133 132/132 131/131
f 133/133 131/131 101/101
f 134/134 132/132 133/133
f 134/134 129/129 132/132
f 135/135 134/134 133/133
f 136/136 134/134 135/135
f 135/135 133/133 93/93
f 93/93 133/133 94/94
f 133/133 101/101 94/94
f 136/136 137/137 134/134
f 137/137 129/129 134/134
f 138/138 137/137 136/136
f 136/136 139/139 138/138
f 139/139 136/136 135/135
f 139/139 140/140 138/138
f 141/141 140/140 139/139
f 141/141 139/139 142/142
f 143/143 141/141 142/142
f 143/143 142/142 144/144
f 144/144 142/142 145/145
f 144/144 145/145 80/80
f 80/80 145/145 81/81
f 142/142 139/139 146/146
f 142/142 146/146 145/145
f 145/145 146/146 81/81
f 139/139 135/135 146/146
f 147/147 140/140 141/141
f 148/148 147/147 141/141
f 148/148 141/141 143/143
f 149/149 148/148 143/143
f 149/149 150/150 148/148
f 150/150 147/147 148/148
f 151/151 150/150 149/149
f 152/152 150/150 151/151
f 153/153 151/151 149/149
f 153/153 149/149 154/154
f 154/154 149/149 143/143
f 155/155 151/151 153/153
f 156/156 151/151 155/155
f 157/157 155/155 153/153
f 157/157 153/153 154/154
f 158/158 155/155 157/157
f 158/158 159/159 155/155
f 160/160 158/158 157/157
f 160/160 161/161 158/158
f 66/66 160/160 157/157
f 67/67 160/160 66/66
f 67/67 68/68 160/160
f 66/66 157/157 162/162
f 157/157 154/154 162/162
f 70/70 66/66 162/162
f 70/70 162/162 163/163
f 70/70 163/163 72/72
f 163/163 164/164 72/72
f 163/163 165/165 164/164
f 162/162 165/165 163/163
f 72/72 164/164 75/75
f 165/165 143/143 164/164
f 162/162 154/154 165/165
f 154/154 143/143 165/165
f 164/164 144/144 75/75
f 164/164 143/143 144/144
f 75/75 144/144 80/80
f 50/50 52/52 166/166
f 167/167 168/168 169/169
f 170/170 168/168 167/167
f 171/171 170/170 167/167
f 111/111 171/171 167/167
f 111/111 167/167 172/172
f 173/173 167/167 169/169
f 174/174 167/167 173/173
f 174/174 173/173 89/89
f 89/89 173/173 95/95
f 173/173 169/169 95/95
f 175/175 176/176 150/150
f 176/176 147/147 150/150
f 177/177 147/147 176/176
f 146/146 86/86 81/81
f 146/146 135/135 86/86
f 86/86 135/135 93/93
f 138/138 178/178 137/137
f 178/178 179/179 137/137
f 137/137 179/179 180/180
f 179/179 181/181 180/180
f 182/182 181/181 179/179
f 178/178 182/182 179/179
f 182/182 183/183 181/181
f 181/181 183/183 184/184
f 181/181 184/184 185/185
f 181/181 185/185 128/128
f 186/186 181/181 128/128
