mtllib B_0159_3b.mtl
g B_0159_3b
v 1.34099996 0 2.32199979
v 1.30285764 0 4.17623377
v 1.34099972 2.10904193 2.32199979
v 1.30285931 2.10904193 4.17623377
v 0.838799775 2.10904193 3.47039986
v 1.34099996 -2.10904193 2.32199979
v 1.30285931 -2.10904193 4.17623377
v 0.838800073 -2.10904193 3.47039986
v 1.92854905 -2.44439983 2.82959986
v 1.92854905 -2.44439983 3.64499974
v 1.92854905 0 2.82959986
v 1.92854905 0 3.64499974
v 1.92854905 2.44439983 2.82959986
v 1.92854905 2.44439983 3.64499974
v 0.838799775 2.10904193 2.59590578
v 0.838800073 -2.10904193 2.59590578
v 4.78753614 -2.10904193 2.32199979
v 4.43239641 -2.10904193 4.17623377
v 4.72436237 0 4.17623377
v 5.01632738 2.10904193 4.17623377
v 4.53775549 2.10904193 2.32199979
v 4.26241159 0 2.32199979
v 4.52113056 -2.44439983 2.82959986
v 5.0734849 -2.44439983 3.64499974
v 5.247015 -0.108449996 3.64499974
v 5.39195108 0.320957989 3.64499974
v 5.38518572 2.44439983 3.64499974
v 4.95052814 2.44439983 2.82959986
v 4.31232166 0 2.82401991
v 5.08071852 -1.94693398 3.64499974
v 5.75033379 -1.14886796 3.64499974
v 5.06757975 1.15441203 3.64499974
v 1.30285931 -2.10904193 4.17623377
v 4.43239641 -2.10904193 4.17623377
v 4.78753614 -2.10904193 2.32199979
v 1.34099996 -2.10904193 2.32199979
v 1.30285931 2.10904193 4.17623377
v 5.01632738 2.10904193 4.17623377
v 4.53775549 2.10904193 2.32199979
v 1.34099972 2.10904193 2.32199979
v 1.92854905 -2.44439983 2.82959986
v 1.92854905 -2.44439983 3.64499974
v 1.92854905 2.44439983 2.82959986
v 1.92854905 2.44439983 3.64499974
v 1.92854905 -2.44439983 2.82959986
v 4.52113056 -2.44439983 2.82959986
v 1.92854905 0 2.82959986
v 5.0734849 -2.44439983 3.64499974
v 1.92854905 -2.44439983 3.64499974
v 1.92854905 0 3.64499974
v 1.92854905 2.44439983 2.82959986
v 4.95052814 2.44439983 2.82959986
v 1.92854905 2.44439983 3.64499974
v 5.38518572 2.44439983 3.64499974
v 5.01632738 2.10904193 4.17623377
v 4.53775549 2.10904193 2.32199979
v 4.72436237 0 4.17623377
v 4.53775549 2.10904193 2.32199979
v 4.26241159 0 2.32199979
v 4.72436237 0 4.17623377
v 4.72436237 0 4.17623377
v 4.26241159 0 2.32199979
v 4.43239641 -2.10904193 4.17623377
v 4.78753614 -2.10904193 2.32199979
v 5.38518572 2.44439983 3.64499974
v 4.95052814 2.44439983 2.82959986
v 5.06757975 1.15441203 3.64499974
v 4.95052814 2.44439983 2.82959986
v 4.31232166 0 2.82401991
v 5.06757975 1.15441203 3.64499974
v 5.06757975 1.15441203 3.64499974
v 4.31232166 0 2.82401991
v 5.39195108 0.320957989 3.64499974
v 5.39195108 0.320957989 3.64499974
v 4.31232166 0 2.82401991
v 5.247015 -0.108449996 3.64499974
v 4.31232166 0 2.82401991
v 4.52113056 -2.44439983 2.82959986
v 5.247015 -0.108449996 3.64499974
v 4.52113056 -2.44439983 2.82959986
v 5.75033379 -1.14886796 3.64499974
v 5.75033379 -1.14886796 3.64499974
v 4.52113056 -2.44439983 2.82959986
v 5.08071852 -1.94693398 3.64499974
v 5.08071852 -1.94693398 3.64499974
v 4.52113056 -2.44439983 2.82959986
v 5.0734849 -2.44439983 3.64499974
vt 0.939453006 0.521484017
vt 0.939453006 0.521484017
vt 0.998046994 0.521484017
vt 0.998046994 0.521484017
vt 0.763671994 0.365233988
vt 0.998046994 0.521484017
vt 0.998046994 0.521484017
vt 0.763671994 0.365233988
vt 0.724609017 0.970703006
vt 0.724609017 0.998046994
vt 0.626953006 0.970703006
vt 0.626953006 0.998046994
vt 0.724609017 0.970703006
vt 0.724609017 0.998046994
vt 0.763671994 0.318358988
vt 0.763671994 0.318358988
vt 0.998046994 0.666015983
vt 0.998046994 0.693359017
vt 0.939453006 0.705078006
vt 0.998046994 0.716796994
vt 0.998046994 0.658203006
vt 0.939453006 0.662109017
vt 0.841796994 0.970703006
vt 0.857421994 0.998046994
vt 0.943359017 0.716796994
vt 0.947265983 0.708984017
vt 0.869140983 0.998046994
vt 0.853515983 0.970703006
vt 0.955078006 0.662109017
vt 0.986328006 0.693359017
vt 0.955078006 0.724609017
vt 0.966796994 0.693359017
vt 0.763671994 0.400391012
vt 0.880859017 0.400391012
vt 0.873046994 0.318358988
vt 0.787109017 0.318358988
vt 0.763671994 0.400391012
vt 0.900390983 0.400391012
vt 0.865234017 0.318358988
vt 0.787109017 0.318358988
vt 0.720703006 0.970703006
vt 0.720703006 0.998046994
vt 0.720703006 0.970703006
vt 0.720703006 0.998046994
vt 0.998046994 0.521484017
vt 0.998046994 0.669921994
vt 0.939453006 0.521484017
vt 0.998046994 0.693359017
vt 0.998046994 0.521484017
vt 0.939453006 0.521484017
vt 0.998046994 0.521484017
vt 0.998046994 0.689453006
vt 0.998046994 0.521484017
vt 0.998046994 0.708984017
vt 0.958984017 0.126953006
vt 0.958984017 0.0449220017
vt 0.998046994 0.126953006
vt 0.998046994 0.0449220017
vt 0.958984017 0.0449220017
vt 0.958984017 0.126953006
vt 0.958984017 0.0449220017
vt 0.958984017 0.126953006
vt 0.994140983 0.0449220017
vt 0.994140983 0.126953006
vt 0.958984017 0.0527339987
vt 0.998046994 0.0527339987
vt 0.958984017 0.126953006
vt 0.998046994 0.0449220017
vt 0.998046994 0.130859002
vt 0.958984017 0.0878909975
vt 0.958984017 0.0449220017
vt 0.974609017 0.126953006
vt 0.998046994 0.0449220017
vt 0.958984017 0.126953006
vt 0.986328006 0.0449220017
vt 0.998046994 0.126953006
vt 0.998046994 0.126953006
vt 0.958984017 0.0449220017
vt 0.958984017 0.126953006
vt 0.958984017 0.0878909975
vt 0.998046994 0.0449220017
vt 0.958984017 0.126953006
vt 0.994140983 0.0878909975
vt 0.958984017 0.0449220017
vt 0.958984017 0.0488279983
vt 0.994140983 0.103515998
vt 0.994140983 0.0527339987
g B_0159_3b_0
usemtl n_B_0159_01
f 6/6/6 22/22/22 17/17/17
f 6/6/6 1/1/1 22/22/22
f 2/2/2 18/18/18 19/19/19
f 2/2/2 7/7/7 18/18/18
f 8/8/8 34/34/34 33/33/33
f 34/34/34 36/36/36 35/35/35
f 34/34/34 8/8/8 36/36/36
f 22/22/22 3/3/3 21/21/21
f 22/22/22 1/1/1 3/3/3
f 19/19/19 4/4/4 2/2/2
f 19/19/19 20/20/20 4/4/4
f 38/38/38 5/5/5 37/37/37
f 39/39/39 5/5/5 38/38/38
f 39/39/39 40/40/40 5/5/5
f 24/24/24 9/9/9 23/23/23
f 10/10/10 9/9/9 24/24/24
f 28/28/28 13/13/13 27/27/27
f 13/13/13 14/14/14 27/27/27
f 41/41/41 12/12/12 11/11/11
f 42/42/42 12/12/12 41/41/41
f 12/12/12 43/43/43 11/11/11
f 12/12/12 44/44/44 43/43/43
f 29/29/29 46/46/46 45/45/45
f 29/29/29 45/45/45 47/47/47
f 25/25/25 30/30/30 31/31/31
f 30/30/30 49/49/49 48/48/48
f 30/30/30 25/25/25 49/49/49
f 49/49/49 25/25/25 50/50/50
f 52/52/52 29/29/29 51/51/51
f 51/51/51 29/29/29 47/47/47
f 32/32/32 53/53/53 26/26/26
f 32/32/32 54/54/54 53/53/53
f 26/26/26 50/50/50 25/25/25
f 26/26/26 53/53/53 50/50/50
f 8/8/8 16/16/16 36/36/36
f 15/15/15 5/5/5 40/40/40
f 57/57/57 56/56/56 55/55/55
f 60/60/60 59/59/59 58/58/58
f 63/63/63 62/62/62 61/61/61
f 64/64/64 62/62/62 63/63/63
f 67/67/67 66/66/66 65/65/65
f 70/70/70 69/69/69 68/68/68
f 73/73/73 72/72/72 71/71/71
f 76/76/76 75/75/75 74/74/74
f 79/79/79 78/78/78 77/77/77
f 81/81/81 80/80/80 76/76/76
f 84/84/84 83/83/83 82/82/82
f 87/87/87 86/86/86 85/85/85
