mtllib M_1001.mtl
g M_1001
v -0.224999994 -0.719999969 0.899999976
v -0.224999994 -0.648000002 0.737999976
v -0.224999994 -0.359999985 0.899999976
v -0.224999994 -0.431999981 0.737999976
v -0.224999994 -0.431999981 1.06199992
v -0.224999994 -0.648000002 1.06199992
v -0 -0.179999992 1.61999989
v -0 -0.179999992 1.39499998
v -0.13499999 0.0449999981 1.52999997
v -0.179999992 -0.539999962 1.52999997
v 0.13499999 0.0449999981 1.52999997
v 0.179999992 -0.539999962 1.52999997
v -0.269999981 -0.179999992 1.52999997
v 0.359999985 -0.179999992 1.61999989
v -0 -0.179999992 1.03499997
v -0.13499999 -0.179999992 0.899999976
v -0 -0.179999992 0.809999943
v -0.0899999961 -0.359999985 0.899999976
v 0.0899999961 -0.359999985 0.899999976
v -0.0899999961 -0.0449999981 0.899999976
v 0.0899999961 -0.0449999981 0.899999976
v 0.13499999 -0.179999992 0.899999976
v -0 -0.179999992 0.944999933
v -0 -0.179999992 0.719999969
v -0 0.0449999981 0.854999959
v -0.359999985 -0.404999971 0.854999959
v 0.224999994 -0.0449999981 0.854999959
v -0 -0.539999962 0.854999959
v 0.359999985 -0.404999971 0.854999959
v -0.224999994 -0.0449999981 0.854999959
v -0 -0.179999992 0.449999988
v -0 -0.359999985 0.224999994
v -0 -0.179999992 0
v -0.224999994 -0.314999998 0.224999994
v -0 -0.0449999981 0.224999994
v 0.13499999 -0.0899999961 0.224999994
v 0.224999994 -0.314999998 0.224999994
v -0.13499999 -0.0899999961 0.224999994
v -0 -1.07999992 -0.359999985
v -0 0 -0.359999985
v 0.413999975 -0.998999953 -0.359999985
v 0.764999986 -0.764999986 -0.359999985
v 0.998999953 -0.413999975 -0.359999985
v 1.07999992 0 -0.359999985
v 0.998999953 0.413999975 -0.359999985
v 0.764999986 0.764999986 -0.359999985
v 0.413999975 0.998999953 -0.359999985
v -0 1.07999992 -0.359999985
v -0.413999975 0.998999953 -0.359999985
v -0.764999986 0.764999986 -0.359999985
v -0.998999953 0.413999975 -0.359999985
v -1.07999992 0 -0.359999985
v -0.998999953 -0.413999975 -0.359999985
v -0.764999986 -0.764999986 -0.359999985
v -0.413999975 -0.998999953 -0.359999985
v -0.359999985 -1.3499999 -0.539999962
v -0.359999985 -1.3499999 -0.899999976
v -0.359999985 -1.4849999 -0.566999972
v -0.359999985 -1.60199988 -0.648000002
v -0.359999985 -1.68299997 -0.764999986
v -0.359999985 -1.21499991 -0.566999972
v -0.359999985 -1.09799993 -0.648000002
v -0.359999985 -1.01699996 -0.764999986
v -0.359999985 -1.70999992 -0.899999976
v -0.359999985 -1.68299997 -1.03499997
v -0.359999985 -1.60199988 -1.15199995
v -0.359999985 -1.4849999 -1.23299992
v -0.359999985 -1.3499999 -1.25999999
v -0.359999985 -1.21499991 -1.23299992
v -0.359999985 -1.09799993 -1.15199995
v -0.359999985 -1.01699996 -1.03499997
v -0.359999985 -0.98999995 -0.899999976
v -0.359999985 1.4849999 -0.566999972
v -0.359999985 1.3499999 -0.899999976
v -0.359999985 1.3499999 -0.539999962
v -0.359999985 1.60199988 -0.648000002
v -0.359999985 1.68299997 -0.764999986
v -0.359999985 1.21499991 -0.566999972
v -0.359999985 1.09799993 -0.648000002
v -0.359999985 1.01699996 -0.764999986
v -0.359999985 1.70999992 -0.899999976
v -0.359999985 1.68299997 -1.03499997
v -0.359999985 1.60199988 -1.15199995
v -0.359999985 1.4849999 -1.23299992
v -0.359999985 1.3499999 -1.25999999
v -0.359999985 1.21499991 -1.23299992
v -0.359999985 1.09799993 -1.15199995
v -0.359999985 1.01699996 -1.03499997
v -0.359999985 0.98999995 -0.899999976
v -0.13499999 -0.0449999981 1.52999997
v -0 0.179999992 1.39499998
v -0 0.179999992 1.61999989
v -0.179999992 0.539999962 1.52999997
v 0.13499999 -0.0449999981 1.52999997
v 0.179999992 0.539999962 1.52999997
v -0.269999981 0.179999992 1.52999997
v 0.359999985 0.179999992 1.61999989
v -0 0.179999992 1.03499997
v -0.13499999 0.179999992 0.899999976
v -0 0.179999992 0.809999943
v -0.0899999961 0.359999985 0.899999976
v 0.0899999961 0.359999985 0.899999976
v -0.0899999961 0.0449999981 0.899999976
v 0.0899999961 0.0449999981 0.899999976
v 0.13499999 0.179999992 0.899999976
v -0 -0.0449999981 0.854999959
v -0 0.179999992 0.719999969
v -0 0.179999992 0.944999933
v -0.359999985 0.404999971 0.854999959
v 0.224999994 0.0449999981 0.854999959
v -0 0.539999962 0.854999959
v 0.359999985 0.404999971 0.854999959
v -0.224999994 0.0449999981 0.854999959
v -0 0.179999992 0.449999988
v -0 0.359999985 0.224999994
v -0 0.179999992 0
v -0.224999994 0.314999998 0.224999994
v -0 0.0449999981 0.224999994
v 0.13499999 0.0899999961 0.224999994
v 0.224999994 0.314999998 0.224999994
v -0.13499999 0.0899999961 0.224999994
v -0.224999994 0.359999985 0.899999976
v -0.224999994 0.648000002 0.737999976
v -0.224999994 0.719999969 0.899999976
v -0.224999994 0.431999981 0.737999976
v -0.224999994 0.431999981 1.06199992
v -0.224999994 0.648000002 1.06199992
v -0 -0.162 2.33999991
v -0 -0.107999995 2.29499984
v -0 -0.251999974 2.29499984
v -0 -0.162 2.25
v 0.0449999981 -0.162 2.29499984
v -0.0449999981 -0.162 2.29499984
v -0 0.0449999981 1.55699992
v -0 0 1.51199996
v -0 0 1.76399994
v -0 -0.0449999981 1.55699992
v 0.0449999981 0 1.55699992
v -0.0449999981 0 1.55699992
v -0 0 2.03399992
v -0 0 1.78199995
v -0 -0.0449999981 1.8269999
v -0 0.0449999981 1.8269999
v 0.0449999981 0 1.8269999
v -0.0449999981 0 1.8269999
v -0 0 2.71799994
v -0 0 2.41199994
v -0 -0.0449999981 2.45699978
v -0 0.0449999981 2.45699978
v 0.0449999981 0 2.45699978
v -0.0449999981 0 2.45699978
v -0.449999988 -1.4849999 -0.899999976
v -0.449999988 -1.3499999 -0.899999976
v -0.449999988 -1.3499999 -1.79999995
v -0.449999988 -1.21499991 -0.899999976
v -0.449999988 -1.3499999 0
v -0.449999988 -1.3499999 -0.764999986
v -0.449999988 -2.25 -0.899999976
v -0.449999988 -1.3499999 -1.03499997
v -0.449999988 -0.449999988 -0.899999976
v -0.449999988 1.3499999 -1.79999995
v -0.449999988 1.3499999 -0.899999976
v -0.449999988 1.4849999 -0.899999976
v -0.449999988 1.21499991 -0.899999976
v -0.449999988 1.3499999 0
v -0.449999988 2.25 -0.899999976
v -0.449999988 1.3499999 -0.764999986
v -0.449999988 1.3499999 -1.03499997
v -0.449999988 0.449999988 -0.899999976
v -0 -0.674999952 2.29499984
v -0.098999992 -0.575999975 2.1329999
v -0 -0.512999952 2.29499984
v 0.098999992 -0.575999975 2.45699978
v -0 -1.0079999 2.29499984
v 0.116999999 -1.11599994 2.48399997
v -0 -1.28699994 2.29499984
v -0.116999999 -1.11599994 2.10599995
v -0 -0.674999952 2.29499984
v -0.179999992 -0.575999975 2.29499984
v -0 -0.512999952 2.29499984
v 0.269999981 -0.539999962 2.29499984
v -0.224999994 -1.11599994 2.29499984
v -0 -1.0079999 2.29499984
v -0 -1.28699994 2.29499984
v 0.224999994 -1.11599994 2.29499984
v -0 -0.674999952 2.29499984
v -0 -0.512999952 2.29499984
v -0.098999992 -0.575999975 2.45699978
v 0.098999992 -0.575999975 2.1329999
v -0 -1.0079999 2.29499984
v -0.116999999 -1.11599994 2.48399997
v -0 -1.28699994 2.29499984
v 0.116999999 -1.11599994 2.10599995
v -0 0.512999952 2.29499984
v -0.098999992 0.575999975 2.1329999
v -0 0.674999952 2.29499984
v 0.098999992 0.575999975 2.45699978
v -0 1.0079999 2.29499984
v 0.116999999 1.11599994 2.48399997
v -0 1.28699994 2.29499984
v -0.116999999 1.11599994 2.10599995
v -0 0.512999952 2.29499984
v -0.179999992 0.575999975 2.29499984
v -0 0.674999952 2.29499984
v 0.269999981 0.539999962 2.29499984
v -0.224999994 1.11599994 2.29499984
v -0 1.0079999 2.29499984
v -0 1.28699994 2.29499984
v 0.224999994 1.11599994 2.29499984
v -0.098999992 0.575999975 2.45699978
v -0 0.512999952 2.29499984
v -0 0.674999952 2.29499984
v 0.098999992 0.575999975 2.1329999
v -0 1.0079999 2.29499984
v -0.116999999 1.11599994 2.48399997
v -0 1.28699994 2.29499984
v 0.116999999 1.11599994 2.10599995
v -0 -0.648000002 2.42999983
v -0 -0.584999979 2.29499984
v -0 -0.719999969 2.29499984
v -0 -0.648000002 2.15999985
v -0 -0.269999981 2.41199994
v -0 -0.287999988 2.29499984
v -0 -0.179999992 2.29499984
v -0 -0.269999981 2.17799997
v -0.116999999 -0.648000002 2.36699986
v -0 -0.584999979 2.29499984
v -0 -0.719999969 2.29499984
v 0.116999999 -0.648000002 2.23199987
v -0 -0.287999988 2.29499984
v -0.107999995 -0.269999981 2.3579998
v -0 -0.179999992 2.29499984
v 0.107999995 -0.269999981 2.23199987
v -0 -0.719999969 2.29499984
v -0 -0.584999979 2.29499984
v 0.116999999 -0.648000002 2.36699986
v -0.116999999 -0.648000002 2.23199987
v -0 -0.287999988 2.29499984
v 0.107999995 -0.269999981 2.3579998
v -0 -0.179999992 2.29499984
v -0.107999995 -0.269999981 2.23199987
v -0 0.719999969 2.29499984
v -0 0.584999979 2.29499984
v -0 0.648000002 2.42999983
v -0 0.648000002 2.15999985
v -0 0.269999981 2.41199994
v -0 0.287999988 2.29499984
v -0 0.179999992 2.29499984
v -0 0.269999981 2.17799997
v -0 0.719999969 2.29499984
v -0 0.584999979 2.29499984
v -0.116999999 0.648000002 2.36699986
v 0.116999999 0.648000002 2.23199987
v -0 0.287999988 2.29499984
v -0.107999995 0.269999981 2.3579998
v -0 0.179999992 2.29499984
v 0.107999995 0.269999981 2.23199987
v 0.116999999 0.648000002 2.36699986
v -0 0.584999979 2.29499984
v -0 0.719999969 2.29499984
v -0.116999999 0.648000002 2.23199987
v -0 0.287999988 2.29499984
v 0.107999995 0.269999981 2.3579998
v -0 0.179999992 2.29499984
v -0.107999995 0.269999981 2.23199987
v -0.224999994 -0.269999981 2.20499992
v -0.224999994 0.179999992 1.97099996
v -0.224999994 0.269999981 2.20499992
v -0.224999994 -0.179999992 1.97099996
v -0.224999994 -0.179999992 2.43899989
v -0.224999994 0.179999992 2.43899989
v -0 0.251999974 2.29499984
v -0 0.107999995 2.29499984
v -0 0.162 2.33999991
v -0 0.162 2.25
v 0.0449999981 0.162 2.29499984
v -0.0449999981 0.162 2.29499984
v -0 0.0449999981 2.09699988
v -0 0 2.05199981
v -0 0 2.39399981
v -0 -0.0449999981 2.09699988
v 0.0449999981 0 2.09699988
v -0.0449999981 0 2.09699988
v -0.242999986 -0.242999986 2.63699985
v -0.242999986 -0.224999994 2.39399981
v -0.242999986 -0.13499999 2.41199994
v -0.242999986 -0.152999997 2.65499997
v -0.242999986 -0.098999992 2.06999993
v -0.242999986 0 2.09699988
v -0.233999997 0.162 2.24099994
v -0.233999997 0.260999978 2.10599995
v -0.233999997 0.269999981 2.32199979
v -0.233999997 0.143999994 2.079
v -0.233999997 0.143999994 2.50199986
v -0.233999997 0.0359999985 2.44799995
v -0.242999986 0.0810000002 2.42999983
v -0.242999986 0.125999987 2.23199987
v -0.242999986 0.170999989 2.42999983
v -0.242999986 0.0269999988 2.24099994
v -0.242999986 0.098999992 2.59200001
v -0.242999986 0.188999996 2.59200001
v -0.233999997 -0.197999984 2.38499999
v -0.233999997 -0.242999986 2.15100002
v -0.233999997 -0.107999995 2.17799997
v -0.233999997 -0.0719999969 2.34899998
v -0.233999997 -0.13499999 1.9799999
v -0.233999997 -0.0179999992 2.00699997
v -0.233999997 -0.0629999936 2.46599984
v -0.233999997 -0.0629999936 2.14199996
v -0.233999997 0.0719999969 2.16899991
v -0.233999997 0.0629999936 2.46599984
v -0.233999997 0.0449999981 2.01599979
v -0.233999997 -0.0810000002 2.03399992
v -0.215999991 -0.152999997 2.20499992
v -0.215999991 0.107999995 2.06999993
v -0.215999991 0.152999997 2.20499992
v -0.215999991 -0.107999995 2.06999993
v -0.215999991 -0.107999995 2.33999991
v -0.215999991 0.107999995 2.33999991
v -0.170999989 -0.098999992 2.71799994
v -0.170999989 -0.143999994 2.56499982
v -0.170999989 0.143999994 2.56499982
v -0.170999989 0.098999992 2.71799994
v -0.170999989 0.098999992 2.43899989
v -0.170999989 -0.098999992 2.43899989
v -0.188999996 -0.162 2.80799985
v -0.188999996 -0.179999992 2.53799987
v -0.188999996 -0.0539999977 2.57399988
v -0.188999996 -0.0719999969 2.78999996
v -0.188999996 -0.0179999992 2.42999983
v -0.188999996 -0.0899999961 2.39399981
v -0.179999992 -0.13499999 2.76299977
v -0.179999992 -0.197999984 2.56499982
v -0.179999992 0.197999984 2.56499982
v -0.179999992 0.13499999 2.76299977
v -0.179999992 0.13499999 2.39399981
v -0.179999992 -0.13499999 2.39399981
v -0.188999996 0.0719999969 2.64599991
v -0.188999996 0.197999984 2.63699985
v -0.188999996 0.107999995 2.89799976
v -0.188999996 0.0359999985 2.86199999
v -0.188999996 0.0719999969 2.50199986
v -0.188999996 0.152999997 2.4749999
v -0.197999984 0.152999997 2.59200001
v -0.197999984 0.188999996 2.53799987
v -0.197999984 0.269999981 2.69099998
v -0.197999984 0.224999994 2.69099998
v -0.197999984 0.0269999988 2.42999983
v -0.197999984 0.0449999981 2.38499999
v -0.197999984 0 2.96999979
v -0.197999984 -0.0899999961 2.65499997
v -0.197999984 -0.0269999988 2.6639998
v -0.197999984 0.0359999985 2.93399978
v -0.197999984 -0.0269999988 2.52899981
v -0.197999984 -0.0719999969 2.51099992
v -0.143999994 -0.242999986 2.1329999
v -0.143999994 -0.251999974 1.96199989
v -0.143999994 -0.125999987 1.99799991
v -0.143999994 -0.143999994 2.15999985
v -0.143999994 -0.152999997 1.8269999
v -0.143999994 -0.0539999977 1.85399997
v -0.179999992 -0.179999992 1.61999989
v -0.179999992 0.116999999 1.45799994
v -0.179999992 0.179999992 1.61999989
v -0.179999992 -0.116999999 1.45799994
v -0.179999992 -0.116999999 1.78199995
v -0.179999992 0.116999999 1.78199995
v -0.13499999 -0.116999999 2.09699988
v -0.13499999 -0.179999992 1.93499994
v -0.13499999 0.179999992 1.93499994
v -0.13499999 0.116999999 2.09699988
v -0.13499999 0.116999999 1.77299988
v -0.13499999 -0.116999999 1.77299988
v -0.143999994 0.116999999 1.98899996
v -0.143999994 0.242999986 1.95299995
v -0.143999994 0.215999991 2.14199996
v -0.143999994 0.107999995 2.15100002
v -0.143999994 0.170999989 1.72799993
v -0.143999994 0.0719999969 1.75499988
v 0.170999989 -0.359999985 1.04399991
v -0.00899999961 -0.386999995 0.890999973
v 0.00899999961 -0.458999991 0.98999995
v 0.13499999 -0.278999984 0.96299994
v 0.224999994 -0.233999997 1.16099989
v 0.188999996 -0.143999994 1.07999992
v 0.107999995 -0.00899999961 1.24199998
v 0.125999987 -0.0899999961 1.3319999
v -0.0810000002 -0.0449999981 1.42199993
v -0.0899999961 0.0359999985 1.31399989
v -0.215999991 -0.107999995 1.18799996
v -0.0539999977 -0.0179999992 1.03499997
v -0.0810000002 0.0359999985 1.13399994
v -0.170999989 -0.143999994 1.08899999
v -0.188999996 -0.324000001 1.18799996
v -0.233999997 -0.278999984 1.30499995
v -0.125999987 -0.521999955 1.49399996
v -0.0719999969 -0.566999972 1.38599992
v 0.233999997 -0.773999989 1.61099994
v 0.188999996 -0.728999972 1.72799993
v 0.00899999961 0.458999991 0.98999995
v -0.00899999961 0.386999995 0.890999973
v 0.170999989 0.359999985 1.04399991
v 0.13499999 0.278999984 0.96299994
v 0.224999994 0.233999997 1.16099989
v 0.188999996 0.143999994 1.07999992
v 0.107999995 0.00899999961 1.24199998
v 0.125999987 0.0899999961 1.3319999
v -0.0810000002 0.0449999981 1.42199993
v -0.0899999961 -0.0359999985 1.31399989
v -0.0810000002 -0.0359999985 1.13399994
v -0.0539999977 0.0179999992 1.03499997
v -0.215999991 0.107999995 1.18799996
v -0.170999989 0.143999994 1.08899999
v -0.188999996 0.324000001 1.18799996
v -0.233999997 0.278999984 1.30499995
v -0.125999987 0.521999955 1.49399996
v -0.0719999969 0.566999972 1.38599992
v 0.233999997 0.773999989 1.61099994
v 0.188999996 0.728999972 1.72799993
v -0.125999987 -0.224999994 0.350999981
v -0.0899999961 -0.278999984 0.215999991
v -0.107999995 -0.386999995 0.548999965
v -0.0629999936 -0.404999971 0.395999968
v -0.0629999936 -0.0449999981 0.188999996
v -0.0269999988 -0.116999999 0.0810000002
v 0.0629999936 -0.431999981 0.575999975
v 0.0359999985 -0.413999975 0.710999966
v 0.215999991 -0.368999988 0.809999943
v 0.233999997 -0.377999991 0.665999949
v -0.162 -0.377999991 1.11599994
v -0.13499999 -0.395999968 1.0079999
v 0.00899999961 -0.548999965 1.25099993
v 0.0629999936 -0.557999969 1.13399994
v -0.170999989 -0.179999992 1.03499997
v -0.125999987 -0.215999991 0.926999986
v -0.0449999981 -0.0359999985 0.98999995
v 0.00899999961 -0.0719999969 0.881999969
v 0.314999998 -0.629999995 1.35899997
v 0.350999981 -0.602999985 1.22399998
v -0.107999995 0.386999995 0.548999965
v -0.0899999961 0.278999984 0.215999991
v -0.125999987 0.224999994 0.350999981
v -0.0629999936 0.404999971 0.395999968
v -0.0629999936 0.0449999981 0.188999996
v -0.0269999988 0.116999999 0.0810000002
v 0.0629999936 0.431999981 0.575999975
v 0.0359999985 0.413999975 0.710999966
v 0.215999991 0.368999988 0.809999943
v 0.233999997 0.377999991 0.665999949
v 0.00899999961 0.548999965 1.25099993
v -0.13499999 0.395999968 1.0079999
v -0.162 0.377999991 1.11599994
v 0.0629999936 0.557999969 1.13399994
v -0.170999989 0.179999992 1.03499997
v -0.125999987 0.215999991 0.926999986
v -0.0449999981 0.0359999985 0.98999995
v 0.00899999961 0.0719999969 0.881999969
v 0.314999998 0.629999995 1.35899997
v 0.350999981 0.602999985 1.22399998
v 0.195299998 -0.599219978 2.15081978
v 0.268919975 -0.718019962 2.12615991
v -0.0145799993 -0.728100002 2.10023999
v 0.046799995 -0.861479998 2.08188009
v -0.162900001 -0.859319985 2.16125989
v -0.104219995 -0.98082 2.13965988
v -0.267839998 -0.959399939 2.29895997
v -0.203579992 -1.09529996 2.29283977
v 0.372599989 -0.512459993 2.29409981
v 0.446759969 -0.612720013 2.2867198
v -0.0145799993 0.728100002 2.10023999
v 0.268919975 0.718019962 2.12615991
v 0.195299998 0.599219978 2.15081978
v 0.046799995 0.861479998 2.08188009
v -0.162900001 0.859319985 2.16125989
v -0.104219995 0.98082 2.13965988
v -0.267839998 0.959399939 2.29895997
v -0.203579992 1.09529996 2.29283977
v 0.372599989 0.512459993 2.29409981
v 0.446759969 0.612720013 2.2867198
v -0.0752399936 -1.16585994 2.24945998
v -0.165059999 -1.08539999 2.25395989
v -0.0282600001 -1.08594 2.43107986
v -0.1197 -1.01160002 2.41001987
v 0.0912600011 -0.895859957 2.53007984
v -0.00827999972 -0.812699974 2.51351976
v 0.21419999 -0.678240001 2.51027989
v 0.118620001 -0.595799923 2.50182009
v 0.209519997 -0.411119998 2.32505989
v 0.313379973 -0.502199948 2.32884002
v -0.0282600001 1.08594 2.43107986
v -0.165059999 1.08539999 2.25395989
v -0.0752399936 1.16585994 2.24945998
v -0.1197 1.01160002 2.41001987
v 0.0912600011 0.895859957 2.53007984
v -0.00827999972 0.812699974 2.51351976
v 0.21419999 0.678240001 2.51027989
v 0.118620001 0.595799923 2.50182009
v 0.209519997 0.411119998 2.32505989
v 0.313379973 0.502199948 2.32884002
v -0.0449999981 -0.332999974 2.37599993
v -0.0899999961 -0.233999997 2.25899982
v -0.125999987 -0.242999986 2.28600001
v 0.00899999961 -0.314999998 2.33099985
v 0.0179999992 -0.467999995 2.41199994
v 0.0719999969 -0.440999985 2.34899998
v 0.0899999961 -0.593999982 2.29499984
v 0.0359999985 -0.620999992 2.34899998
v -0 -0.737999976 2.25
v 0.0539999977 -0.710999966 2.19599986
v -0.125999987 0.242999986 2.28600001
v -0.0899999961 0.233999997 2.25899982
v -0.0449999981 0.332999974 2.37599993
v 0.00899999961 0.314999998 2.33099985
v 0.0179999992 0.467999995 2.41199994
v 0.0719999969 0.440999985 2.34899998
v 0.0899999961 0.593999982 2.29499984
v 0.0359999985 0.620999992 2.34899998
v -0 0.737999976 2.25
v 0.0539999977 0.710999966 2.19599986
v -0.0449999981 -0.278999984 2.25
v 0.0179999992 -0.324000001 2.16899991
v -0.107999995 -0.431999981 2.25899982
v -0.0449999981 -0.467999995 2.1869998
v 0.0719999969 -0.162 2.25899982
v 0.098999992 -0.206999987 2.20499992
v -0.0449999981 -0.620999992 2.25
v -0.0899999961 -0.584999979 2.31299996
v 0.0179999992 -0.710999966 2.33099985
v -0.00899999961 -0.683999956 2.37599993
v -0.107999995 0.431999981 2.25899982
v 0.0179999992 0.324000001 2.16899991
v -0.0449999981 0.278999984 2.25
v -0.0449999981 0.467999995 2.1869998
v 0.0719999969 0.162 2.25899982
v 0.098999992 0.206999987 2.20499992
v -0.0449999981 0.620999992 2.25
v -0.0899999961 0.584999979 2.31299996
v 0.0179999992 0.710999966 2.33099985
v -0.00899999961 0.683999956 2.37599993
v -0.359999985 -1.07999992 2.20499992
v -0.359999985 0 2.20499992
v -0.359999985 -0.998999953 2.61899996
v -0.359999985 -0.764999986 2.96999979
v -0.359999985 -0.413999975 3.20399976
v -0.359999985 0 3.28499985
v -0.359999985 0.413999975 3.20399976
v -0.359999985 0.764999986 2.96999979
v -0.359999985 0.998999953 2.61899996
v -0.359999985 1.07999992 2.20499992
v -0.359999985 0.998999953 1.79099989
v -0.359999985 0.764999986 1.43999994
v -0.359999985 0.413999975 1.20599997
v -0.359999985 0 1.125
v -0.359999985 -0.413999975 1.20599997
v -0.359999985 -0.764999986 1.43999994
v -0.359999985 -0.998999953 1.79099989
vt 0.144530997 0.457031012
vt 0.324218988 0.457031012
vt 0.144530997 0.777343988
vt 0.324218988 0.777343988
vt 0.00390599994 0.777343988
vt 0.00390599994 0.457031012
vt 0.00390599994 0.238280997
vt 0.136719003 0.207030997
vt 0.00390599994 0.0195310004
vt 0.00390599994 0.0195310004
vt 0.00390599994 0.0195310004
vt 0.00390599994 0.0195310004
vt 0.00390599994 0.0195310004
vt 0.00390599994 0.0195310004
vt 0.347656012 0.144530997
vt 0.394531012 0.0195310004
vt 0.472656012 0.113280997
vt 0.394531012 0.0195310004
vt 0.394531012 0.0195310004
vt 0.394531012 0.0195310004
vt 0.394531012 0.0195310004
vt 0.394531012 0.0195310004
vt 0.0429689996 0.386718988
vt 0.160155997 0.355468988
vt 0.0429689996 0.214844003
vt 0.0429689996 0.214844003
vt 0.0429689996 0.214844003
vt 0.0429689996 0.214844003
vt 0.0429689996 0.214844003
vt 0.0429689996 0.214844003
vt 0.292968988 0.316406012
vt 0.378906012 0.191405997
vt 0.519531012 0.261718988
vt 0.378906012 0.191405997
vt 0.378906012 0.191405997
vt 0.378906012 0.191405997
vt 0.378906012 0.191405997
vt 0.378906012 0.191405997
vt 0.00390599994 0.0117189996
vt 0.00390599994 0.0117189996
vt 0.00390599994 0.0117189996
vt 0.00390599994 0.0117189996
vt 0.00390599994 0.0117189996
vt 0.00390599994 0.0117189996
vt 0.00390599994 0.0117189996
vt 0.00390599994 0.0117189996
vt 0.00390599994 0.0117189996
vt 0.00390599994 0.0117189996
vt 0.00390599994 0.0117189996
vt 0.00390599994 0.0117189996
vt 0.00390599994 0.0117189996
vt 0.00390599994 0.0117189996
vt 0.00390599994 0.0117189996
vt 0.00390599994 0.0117189996
vt 0.00390599994 0.0117189996
vt 0.00390599994 0.0117189996
vt 0.00390599994 0.0117189996
vt 0.00390599994 0.0117189996
vt 0.00390599994 0.0117189996
vt 0.00390599994 0.0117189996
vt 0.00390599994 0.0117189996
vt 0.00390599994 0.0117189996
vt 0.00390599994 0.0117189996
vt 0.00390599994 0.0117189996
vt 0.00390599994 0.0117189996
vt 0.00390599994 0.0117189996
vt 0.00390599994 0.0117189996
vt 0.00390599994 0.0117189996
vt 0.00390599994 0.0117189996
vt 0.00390599994 0.0117189996
vt 0.00390599994 0.0117189996
vt 0.00390599994 0.0117189996
vt 0.00390599994 0.0117189996
vt 0.00390599994 0.0117189996
vt 0.00390599994 0.0117189996
vt 0.00390599994 0.0117189996
vt 0.00390599994 0.0117189996
vt 0.00390599994 0.0117189996
vt 0.00390599994 0.0117189996
vt 0.00390599994 0.0117189996
vt 0.00390599994 0.0117189996
vt 0.00390599994 0.0117189996
vt 0.00390599994 0.0117189996
vt 0.00390599994 0.0117189996
vt 0.00390599994 0.0117189996
vt 0.00390599994 0.0117189996
vt 0.00390599994 0.0117189996
vt 0.00390599994 0.0117189996
vt 0.00390599994 0.0117189996
vt 0.00390599994 0.0195310004
vt 0.136719003 0.207030997
vt 0.00390599994 0.238280997
vt 0.00390599994 0.0195310004
vt 0.00390599994 0.0195310004
vt 0.00390599994 0.0195310004
vt 0.00390599994 0.0195310004
vt 0.00390599994 0.0195310004
vt 0.347656012 0.144530997
vt 0.394531012 0.0195310004
vt 0.472656012 0.113280997
vt 0.394531012 0.0195310004
vt 0.394531012 0.0195310004
vt 0.394531012 0.0195310004
vt 0.394531012 0.0195310004
vt 0.394531012 0.0195310004
vt 0.0429689996 0.214844003
vt 0.160155997 0.355468988
vt 0.0429689996 0.386718988
vt 0.0429689996 0.214844003
vt 0.0429689996 0.214844003
vt 0.0429689996 0.214844003
vt 0.0429689996 0.214844003
vt 0.0429689996 0.214844003
vt 0.292968988 0.316406012
vt 0.378906012 0.191405997
vt 0.519531012 0.261718988
vt 0.378906012 0.191405997
vt 0.378906012 0.191405997
vt 0.378906012 0.191405997
vt 0.378906012 0.191405997
vt 0.378906012 0.191405997
vt 0.144530997 0.777343988
vt 0.324218988 0.457031012
vt 0.144530997 0.457031012
vt 0.324218988 0.777343988
vt 0.00390599994 0.777343988
vt 0.00390599994 0.457031012
vt 0.988281012 0.324218988
vt 0.988281012 0.324218988
vt 0.988281012 0.324218988
vt 0.988281012 0.324218988
vt 0.988281012 0.324218988
vt 0.988281012 0.324218988
vt 0.988281012 0.324218988
vt 0.988281012 0.324218988
vt 0.988281012 0.324218988
vt 0.988281012 0.324218988
vt 0.988281012 0.324218988
vt 0.988281012 0.324218988
vt 0.988281012 0.324218988
vt 0.988281012 0.324218988
vt 0.988281012 0.324218988
vt 0.988281012 0.324218988
vt 0.988281012 0.324218988
vt 0.988281012 0.324218988
vt 0.988281012 0.324218988
vt 0.988281012 0.324218988
vt 0.988281012 0.324218988
vt 0.988281012 0.324218988
vt 0.988281012 0.324218988
vt 0.988281012 0.324218988
vt 0.00390599994 0.00390599994
vt 0.00390599994 0.00390599994
vt 0.00390599994 0.00390599994
vt 0.00390599994 0.00390599994
vt 0.00390599994 0.00390599994
vt 0.00390599994 0.00390599994
vt 0.00390599994 0.00390599994
vt 0.00390599994 0.00390599994
vt 0.00390599994 0.00390599994
vt 0.00390599994 0.00390599994
vt 0.00390599994 0.00390599994
vt 0.00390599994 0.00390599994
vt 0.00390599994 0.00390599994
vt 0.00390599994 0.00390599994
vt 0.00390599994 0.00390599994
vt 0.00390599994 0.00390599994
vt 0.00390599994 0.00390599994
vt 0.00390599994 0.00390599994
vt 0.128905997 0.355468988
vt 0.00390599994 0.386718988
vt 0.0976559967 0.449218988
vt 0.00390599994 0.386718988
vt 0.207030997 0.152344003
vt 0.0976559967 0.0195310004
vt 0.253906012 0.0195310004
vt 0.0976559967 0.0195310004
vt 0.527343988 0.355468988
vt 0.402343988 0.386718988
vt 0.496093988 0.449218988
vt 0.402343988 0.386718988
vt 0.496093988 0.0195310004
vt 0.605468988 0.152344003
vt 0.652343988 0.0195310004
vt 0.496093988 0.0195310004
vt 0.324218988 0.355468988
vt 0.292968988 0.449218988
vt 0.199219003 0.386718988
vt 0.199219003 0.386718988
vt 0.402343988 0.152344003
vt 0.292968988 0.0195310004
vt 0.449218988 0.0195310004
vt 0.292968988 0.0195310004
vt 0.0976559967 0.449218988
vt 0.00390599994 0.386718988
vt 0.128905997 0.355468988
vt 0.00390599994 0.386718988
vt 0.207030997 0.152344003
vt 0.0976559967 0.0195310004
vt 0.253906012 0.0195310004
vt 0.0976559967 0.0195310004
vt 0.496093988 0.449218988
vt 0.402343988 0.386718988
vt 0.527343988 0.355468988
vt 0.402343988 0.386718988
vt 0.496093988 0.0195310004
vt 0.605468988 0.152344003
vt 0.652343988 0.0195310004
vt 0.496093988 0.0195310004
vt 0.199219003 0.386718988
vt 0.292968988 0.449218988
vt 0.324218988 0.355468988
vt 0.199219003 0.386718988
vt 0.402343988 0.152344003
vt 0.292968988 0.0195310004
vt 0.449218988 0.0195310004
vt 0.292968988 0.0195310004
vt 0.511718988 0.449218988
vt 0.519531012 0.300781012
vt 0.652343988 0.339843988
vt 0.511718988 0.449218988
vt 0.261718988 0.363281012
vt 0.300781012 0.238280997
vt 0.238280997 0.214844003
vt 0.261718988 0.363281012
vt 0.277343988 0.449218988
vt 0.285156012 0.300781012
vt 0.417968988 0.339843988
vt 0.277343988 0.449218988
vt 0.0664059967 0.238280997
vt 0.0273439996 0.363281012
vt 0.00390599994 0.214844003
vt 0.0273439996 0.363281012
vt 0.535156012 0.339843988
vt 0.402343988 0.300781012
vt 0.394531012 0.449218988
vt 0.394531012 0.449218988
vt 0.183594003 0.238280997
vt 0.144530997 0.363281012
vt 0.121094003 0.214844003
vt 0.144530997 0.363281012
vt 0.652343988 0.339843988
vt 0.519531012 0.300781012
vt 0.511718988 0.449218988
vt 0.511718988 0.449218988
vt 0.261718988 0.363281012
vt 0.300781012 0.238280997
vt 0.238280997 0.214844003
vt 0.261718988 0.363281012
vt 0.417968988 0.339843988
vt 0.285156012 0.300781012
vt 0.277343988 0.449218988
vt 0.277343988 0.449218988
vt 0.0664059967 0.238280997
vt 0.0273439996 0.363281012
vt 0.00390599994 0.214844003
vt 0.0273439996 0.363281012
vt 0.394531012 0.449218988
vt 0.402343988 0.300781012
vt 0.535156012 0.339843988
vt 0.394531012 0.449218988
vt 0.183594003 0.238280997
vt 0.144530997 0.363281012
vt 0.121094003 0.214844003
vt 0.144530997 0.363281012
vt 0.246094003 0.777343988
vt 0.425781012 0.457031012
vt 0.246094003 0.457031012
vt 0.425781012 0.777343988
vt 0.105469003 0.777343988
vt 0.105469003 0.457031012
vt 0.136719003 0.324218988
vt 0.136719003 0.324218988
vt 0.136719003 0.324218988
vt 0.136719003 0.324218988
vt 0.136719003 0.324218988
vt 0.136719003 0.324218988
vt 0.0195310004 0.324218988
vt 0.0195310004 0.324218988
vt 0.0195310004 0.324218988
vt 0.0195310004 0.324218988
vt 0.0195310004 0.324218988
vt 0.0195310004 0.324218988
vt 0.136719003 0.996093988
vt 0.300781012 0.996093988
vt 0.300781012 0.894531012
vt 0.136719003 0.894531012
vt 0.457031012 0.996093988
vt 0.457031012 0.894531012
vt 0.433593988 0.886718988
vt 0.589843988 0.785156012
vt 0.433593988 0.785156012
vt 0.589843988 0.886718988
vt 0.269531012 0.785156012
vt 0.269531012 0.886718988
vt 0.167969003 0.894531012
vt 0.324218988 0.996093988
vt 0.167969003 0.996093988
vt 0.324218988 0.894531012
vt 0.00390599994 0.894531012
vt 0.00390599994 0.996093988
vt 0.214844003 0.886718988
vt 0.378906012 0.886718988
vt 0.378906012 0.785156012
vt 0.214844003 0.785156012
vt 0.535156012 0.886718988
vt 0.535156012 0.785156012
vt 0.167969003 0.886718988
vt 0.332031012 0.886718988
vt 0.332031012 0.785156012
vt 0.167969003 0.785156012
vt 0.488281012 0.785156012
vt 0.488281012 0.886718988
vt 0.449218988 0.777343988
vt 0.628906012 0.457031012
vt 0.449218988 0.457031012
vt 0.628906012 0.777343988
vt 0.308593988 0.777343988
vt 0.308593988 0.457031012
vt 0.214844003 0.777343988
vt 0.355468988 0.777343988
vt 0.355468988 0.457031012
vt 0.214844003 0.457031012
vt 0.535156012 0.457031012
vt 0.535156012 0.777343988
vt 0.0664059967 0.785156012
vt 0.207030997 0.785156012
vt 0.207030997 0.886718988
vt 0.0664059967 0.886718988
vt 0.386718988 0.886718988
vt 0.386718988 0.785156012
vt 0.121094003 0.457031012
vt 0.261718988 0.457031012
vt 0.261718988 0.777343988
vt 0.121094003 0.777343988
vt 0.441406012 0.777343988
vt 0.441406012 0.457031012
vt 0.261718988 0.886718988
vt 0.261718988 0.785156012
vt 0.121094003 0.785156012
vt 0.121094003 0.886718988
vt 0.441406012 0.886718988
vt 0.441406012 0.785156012
vt 0.152344003 0.996093988
vt 0.152344003 0.894531012
vt 0.0117189996 0.894531012
vt 0.0117189996 0.996093988
vt 0.332031012 0.996093988
vt 0.332031012 0.894531012
vt 0.160155997 0.894531012
vt 0.300781012 0.894531012
vt 0.300781012 0.996093988
vt 0.160155997 0.996093988
vt 0.480468988 0.996093988
vt 0.480468988 0.894531012
vt 0.00390599994 0.785156012
vt 0.144530997 0.785156012
vt 0.144530997 0.886718988
vt 0.00390599994 0.886718988
vt 0.324218988 0.785156012
vt 0.324218988 0.886718988
vt 0.144530997 0.777343988
vt 0.324218988 0.457031012
vt 0.144530997 0.457031012
vt 0.324218988 0.777343988
vt 0.00390599994 0.777343988
vt 0.00390599994 0.457031012
vt 0.00390599994 0.457031012
vt 0.144530997 0.457031012
vt 0.144530997 0.777343988
vt 0.00390599994 0.777343988
vt 0.324218988 0.777343988
vt 0.324218988 0.457031012
vt 0.239530995 0.886718988
vt 0.239530995 0.785156012
vt 0.0989060029 0.785156012
vt 0.0989060029 0.886718988
vt 0.419218987 0.785156012
vt 0.419218987 0.886718988
vt 0.410156012 0.886718988
vt 0.542968988 0.785156012
vt 0.542968988 0.886718988
vt 0.410156012 0.785156012
vt 0.300781012 0.886718988
vt 0.300781012 0.785156012
vt 0.191405997 0.785156012
vt 0.191405997 0.886718988
vt 0.0273439996 0.886718988
vt 0.0273439996 0.785156012
vt 0.519531012 0.886718988
vt 0.652343988 0.785156012
vt 0.652343988 0.886718988
vt 0.519531012 0.785156012
vt 0.410156012 0.785156012
vt 0.410156012 0.886718988
vt 0.300781012 0.886718988
vt 0.300781012 0.785156012
vt 0.136719003 0.785156012
vt 0.136719003 0.886718988
vt 0.542968988 0.886718988
vt 0.542968988 0.785156012
vt 0.410156012 0.886718988
vt 0.410156012 0.785156012
vt 0.300781012 0.886718988
vt 0.300781012 0.785156012
vt 0.191405997 0.785156012
vt 0.191405997 0.886718988
vt 0.0273439996 0.886718988
vt 0.0273439996 0.785156012
vt 0.652343988 0.886718988
vt 0.652343988 0.785156012
vt 0.519531012 0.886718988
vt 0.519531012 0.785156012
vt 0.410156012 0.785156012
vt 0.410156012 0.886718988
vt 0.300781012 0.886718988
vt 0.300781012 0.785156012
vt 0.136719003 0.785156012
vt 0.136719003 0.886718988
vt 0.347656012 0.785156012
vt 0.347656012 0.886718988
vt 0.277343988 0.785156012
vt 0.277343988 0.886718988
vt 0.519531012 0.785156012
vt 0.519531012 0.886718988
vt 0.207030997 0.886718988
vt 0.207030997 0.785156012
vt 0.0820309967 0.785156012
vt 0.0820309967 0.886718988
vt 0.269531012 0.785156012
vt 0.269531012 0.886718988
vt 0.339843988 0.785156012
vt 0.339843988 0.886718988
vt 0.199219003 0.785156012
vt 0.199219003 0.886718988
vt 0.0273439996 0.785156012
vt 0.0273439996 0.886718988
vt 0.464843988 0.785156012
vt 0.464843988 0.886718988
vt 0.277343988 0.785156012
vt 0.347656012 0.886718988
vt 0.347656012 0.785156012
vt 0.277343988 0.886718988
vt 0.519531012 0.785156012
vt 0.519531012 0.886718988
vt 0.207030997 0.886718988
vt 0.207030997 0.785156012
vt 0.0820309967 0.785156012
vt 0.0820309967 0.886718988
vt 0.339843988 0.785156012
vt 0.269531012 0.886718988
vt 0.269531012 0.785156012
vt 0.339843988 0.886718988
vt 0.199219003 0.785156012
vt 0.199219003 0.886718988
vt 0.0273439996 0.785156012
vt 0.0273439996 0.886718988
vt 0.464843988 0.785156012
vt 0.464843988 0.886718988
vt 0.347656012 0.785156012
vt 0.347656012 0.886718988
vt 0.417968988 0.785156012
vt 0.417968988 0.886718988
vt 0.488281012 0.785156012
vt 0.488281012 0.886718988
vt 0.613281012 0.785156012
vt 0.613281012 0.886718988
vt 0.175780997 0.785156012
vt 0.175780997 0.886718988
vt 0.417968988 0.785156012
vt 0.347656012 0.886718988
vt 0.347656012 0.785156012
vt 0.417968988 0.886718988
vt 0.488281012 0.785156012
vt 0.488281012 0.886718988
vt 0.613281012 0.785156012
vt 0.613281012 0.886718988
vt 0.175780997 0.785156012
vt 0.175780997 0.886718988
vt 0.605468988 0.886718988
vt 0.605468988 0.785156012
vt 0.472656012 0.886718988
vt 0.472656012 0.785156012
vt 0.363281012 0.886718988
vt 0.363281012 0.785156012
vt 0.253906012 0.886718988
vt 0.253906012 0.785156012
vt 0.0898440033 0.785156012
vt 0.0898440033 0.886718988
vt 0.472656012 0.886718988
vt 0.605468988 0.785156012
vt 0.605468988 0.886718988
vt 0.472656012 0.785156012
vt 0.363281012 0.886718988
vt 0.363281012 0.785156012
vt 0.253906012 0.886718988
vt 0.253906012 0.785156012
vt 0.0898440033 0.785156012
vt 0.0898440033 0.886718988
vt 0.253906012 0.996093988
vt 0.0898440033 0.894531012
vt 0.0898440033 0.996093988
vt 0.253906012 0.894531012
vt 0.363281012 0.996093988
vt 0.363281012 0.894531012
vt 0.472656012 0.894531012
vt 0.472656012 0.996093988
vt 0.605468988 0.996093988
vt 0.605468988 0.894531012
vt 0.0898440033 0.996093988
vt 0.0898440033 0.894531012
vt 0.253906012 0.996093988
vt 0.253906012 0.894531012
vt 0.363281012 0.996093988
vt 0.363281012 0.894531012
vt 0.472656012 0.894531012
vt 0.472656012 0.996093988
vt 0.605468988 0.996093988
vt 0.605468988 0.894531012
vt 0.347656012 0.894531012
vt 0.347656012 0.996093988
vt 0.417968988 0.894531012
vt 0.417968988 0.996093988
vt 0.175780997 0.894531012
vt 0.175780997 0.996093988
vt 0.488281012 0.996093988
vt 0.488281012 0.894531012
vt 0.613281012 0.996093988
vt 0.613281012 0.894531012
vt 0.417968988 0.894531012
vt 0.347656012 0.996093988
vt 0.347656012 0.894531012
vt 0.417968988 0.996093988
vt 0.175780997 0.894531012
vt 0.175780997 0.996093988
vt 0.488281012 0.996093988
vt 0.488281012 0.894531012
vt 0.613281012 0.996093988
vt 0.613281012 0.894531012
vt 0.00390599994 0.0117189996
vt 0.00390599994 0.0117189996
vt 0.00390599994 0.0117189996
vt 0.00390599994 0.0117189996
vt 0.00390599994 0.0117189996
vt 0.00390599994 0.0117189996
vt 0.00390599994 0.0117189996
vt 0.00390599994 0.0117189996
vt 0.00390599994 0.0117189996
vt 0.00390599994 0.0117189996
vt 0.00390599994 0.0117189996
vt 0.00390599994 0.0117189996
vt 0.00390599994 0.0117189996
vt 0.00390599994 0.0117189996
vt 0.00390599994 0.0117189996
vt 0.00390599994 0.0117189996
vt 0.00390599994 0.0117189996
g M_1001_0
usemtl a_M_1001_01
f 3/3/3 2/2/2 1/1/1
f 3/3/3 4/4/4 2/2/2
f 5/5/5 3/3/3 1/1/1
f 6/6/6 5/5/5 1/1/1
f 9/9/9 8/8/8 7/7/7
f 7/7/7 8/8/8 10/10/10
f 11/11/11 8/8/8 7/7/7
f 7/7/7 8/8/8 12/12/12
f 13/13/13 8/8/8 7/7/7
f 7/7/7 8/8/8 14/14/14
f 13/13/13 15/15/15 8/8/8
f 8/8/8 15/15/15 14/14/14
f 8/8/8 15/15/15 12/12/12
f 8/8/8 15/15/15 10/10/10
f 11/11/11 15/15/15 8/8/8
f 9/9/9 15/15/15 8/8/8
f 13/13/13 16/16/16 15/15/15
f 16/16/16 17/17/17 15/15/15
f 15/15/15 17/17/17 18/18/18
f 15/15/15 18/18/18 10/10/10
f 15/15/15 17/17/17 19/19/19
f 15/15/15 19/19/19 12/12/12
f 20/20/20 17/17/17 15/15/15
f 9/9/9 20/20/20 15/15/15
f 21/21/21 17/17/17 15/15/15
f 11/11/11 21/21/21 15/15/15
f 15/15/15 17/17/17 22/22/22
f 15/15/15 22/22/22 14/14/14
f 25/25/25 24/24/24 23/23/23
f 23/23/23 24/24/24 26/26/26
f 27/27/27 24/24/24 23/23/23
f 23/23/23 24/24/24 28/28/28
f 29/29/29 24/24/24 23/23/23
f 23/23/23 24/24/24 30/30/30
f 24/24/24 31/31/31 28/28/28
f 25/25/25 31/31/31 24/24/24
f 24/24/24 31/31/31 26/26/26
f 29/29/29 31/31/31 24/24/24
f 27/27/27 31/31/31 24/24/24
f 24/24/24 31/31/31 30/30/30
f 31/31/31 32/32/32 28/28/28
f 31/31/31 33/33/33 32/32/32
f 31/31/31 33/33/33 34/34/34
f 31/31/31 34/34/34 26/26/26
f 35/35/35 33/33/33 31/31/31
f 25/25/25 35/35/35 31/31/31
f 36/36/36 33/33/33 31/31/31
f 27/27/27 36/36/36 31/31/31
f 37/37/37 33/33/33 31/31/31
f 29/29/29 37/37/37 31/31/31
f 31/31/31 33/33/33 38/38/38
f 31/31/31 38/38/38 30/30/30
f 41/41/41 40/40/40 39/39/39
f 42/42/42 40/40/40 41/41/41
f 43/43/43 40/40/40 42/42/42
f 44/44/44 40/40/40 43/43/43
f 45/45/45 40/40/40 44/44/44
f 46/46/46 40/40/40 45/45/45
f 47/47/47 40/40/40 46/46/46
f 48/48/48 40/40/40 47/47/47
f 48/48/48 49/49/49 40/40/40
f 49/49/49 50/50/50 40/40/40
f 50/50/50 51/51/51 40/40/40
f 51/51/51 52/52/52 40/40/40
f 40/40/40 52/52/52 53/53/53
f 40/40/40 53/53/53 54/54/54
f 40/40/40 54/54/54 55/55/55
f 40/40/40 55/55/55 39/39/39
f 58/58/58 57/57/57 56/56/56
f 59/59/59 57/57/57 58/58/58
f 60/60/60 57/57/57 59/59/59
f 56/56/56 57/57/57 61/61/61
f 61/61/61 57/57/57 62/62/62
f 62/62/62 57/57/57 63/63/63
f 64/64/64 57/57/57 60/60/60
f 64/64/64 65/65/65 57/57/57
f 65/65/65 66/66/66 57/57/57
f 66/66/66 67/67/67 57/57/57
f 67/67/67 68/68/68 57/57/57
f 57/57/57 68/68/68 69/69/69
f 57/57/57 69/69/69 70/70/70
f 57/57/57 70/70/70 71/71/71
f 57/57/57 71/71/71 72/72/72
f 63/63/63 57/57/57 72/72/72
f 75/75/75 74/74/74 73/73/73
f 73/73/73 74/74/74 76/76/76
f 76/76/76 74/74/74 77/77/77
f 78/78/78 74/74/74 75/75/75
f 79/79/79 74/74/74 78/78/78
f 80/80/80 74/74/74 79/79/79
f 77/77/77 74/74/74 81/81/81
f 74/74/74 82/82/82 81/81/81
f 74/74/74 83/83/83 82/82/82
f 74/74/74 84/84/84 83/83/83
f 74/74/74 85/85/85 84/84/84
f 86/86/86 85/85/85 74/74/74
f 87/87/87 86/86/86 74/74/74
f 88/88/88 87/87/87 74/74/74
f 89/89/89 88/88/88 74/74/74
f 89/89/89 74/74/74 80/80/80
f 92/92/92 91/91/91 90/90/90
f 93/93/93 91/91/91 92/92/92
f 92/92/92 91/91/91 94/94/94
f 95/95/95 91/91/91 92/92/92
f 92/92/92 91/91/91 96/96/96
f 97/97/97 91/91/91 92/92/92
f 91/91/91 98/98/98 96/96/96
f 97/97/97 98/98/98 91/91/91
f 95/95/95 98/98/98 91/91/91
f 93/93/93 98/98/98 91/91/91
f 91/91/91 98/98/98 94/94/94
f 91/91/91 98/98/98 90/90/90
f 98/98/98 99/99/99 96/96/96
f 98/98/98 100/100/100 99/99/99
f 101/101/101 100/100/100 98/98/98
f 93/93/93 101/101/101 98/98/98
f 102/102/102 100/100/100 98/98/98
f 95/95/95 102/102/102 98/98/98
f 98/98/98 100/100/100 103/103/103
f 98/98/98 103/103/103 90/90/90
f 98/98/98 100/100/100 104/104/104
f 98/98/98 104/104/104 94/94/94
f 105/105/105 100/100/100 98/98/98
f 97/97/97 105/105/105 98/98/98
f 108/108/108 107/107/107 106/106/106
f 109/109/109 107/107/107 108/108/108
f 108/108/108 107/107/107 110/110/110
f 111/111/111 107/107/107 108/108/108
f 108/108/108 107/107/107 112/112/112
f 113/113/113 107/107/107 108/108/108
f 111/111/111 114/114/114 107/107/107
f 107/107/107 114/114/114 106/106/106
f 109/109/109 114/114/114 107/107/107
f 107/107/107 114/114/114 112/112/112
f 107/107/107 114/114/114 110/110/110
f 113/113/113 114/114/114 107/107/107
f 111/111/111 115/115/115 114/114/114
f 115/115/115 116/116/116 114/114/114
f 117/117/117 116/116/116 114/114/114
f 109/109/109 117/117/117 114/114/114
f 114/114/114 116/116/116 118/118/118
f 114/114/114 118/118/118 106/106/106
f 114/114/114 116/116/116 119/119/119
f 114/114/114 119/119/119 110/110/110
f 114/114/114 116/116/116 120/120/120
f 114/114/114 120/120/120 112/112/112
f 121/121/121 116/116/116 114/114/114
f 113/113/113 121/121/121 114/114/114
f 124/124/124 123/123/123 122/122/122
f 123/123/123 125/125/125 122/122/122
f 124/124/124 122/122/122 126/126/126
f 124/124/124 126/126/126 127/127/127
f 130/130/130 129/129/129 128/128/128
f 130/130/130 129/129/129 128/128/128
f 130/130/130 131/131/131 129/129/129
f 130/130/130 131/131/131 129/129/129
f 132/132/132 129/129/129 130/130/130
f 132/132/132 129/129/129 130/130/130
f 130/130/130 129/129/129 133/133/133
f 130/130/130 129/129/129 133/133/133
f 136/136/136 135/135/135 134/134/134
f 136/136/136 135/135/135 134/134/134
f 136/136/136 137/137/137 135/135/135
f 136/136/136 137/137/137 135/135/135
f 138/138/138 135/135/135 136/136/136
f 138/138/138 135/135/135 136/136/136
f 136/136/136 135/135/135 139/139/139
f 136/136/136 135/135/135 139/139/139
f 142/142/142 141/141/141 140/140/140
f 142/142/142 141/141/141 140/140/140
f 141/141/141 143/143/143 140/140/140
f 141/141/141 143/143/143 140/140/140
f 140/140/140 141/141/141 144/144/144
f 140/140/140 141/141/141 144/144/144
f 145/145/145 141/141/141 140/140/140
f 145/145/145 141/141/141 140/140/140
f 148/148/148 147/147/147 146/146/146
f 148/148/148 147/147/147 146/146/146
f 147/147/147 149/149/149 146/146/146
f 147/147/147 149/149/149 146/146/146
f 146/146/146 147/147/147 150/150/150
f 146/146/146 147/147/147 150/150/150
f 151/151/151 147/147/147 146/146/146
f 151/151/151 147/147/147 146/146/146
f 154/154/154 153/153/153 152/152/152
f 154/154/154 155/155/155 153/153/153
f 153/153/153 155/155/155 156/156/156
f 152/152/152 153/153/153 156/156/156
f 158/158/158 153/153/153 157/157/157
f 158/158/158 159/159/159 153/153/153
f 153/153/153 159/159/159 160/160/160
f 157/157/157 153/153/153 160/160/160
f 163/163/163 162/162/162 161/161/161
f 162/162/162 164/164/164 161/161/161
f 165/165/165 164/164/164 162/162/162
f 165/165/165 162/162/162 163/163/163
f 167/167/167 162/162/162 166/166/166
f 162/162/162 168/168/168 166/166/166
f 169/169/169 168/168/168 162/162/162
f 169/169/169 162/162/162 167/167/167
f 172/172/172 171/171/171 170/170/170
f 173/173/173 172/172/172 170/170/170
f 173/173/173 170/170/170 174/174/174
f 170/170/170 171/171/171 174/174/174
f 173/173/173 174/174/174 175/175/175
f 175/175/175 174/174/174 176/176/176
f 174/174/174 177/177/177 176/176/176
f 171/171/171 177/177/177 174/174/174
f 180/180/180 179/179/179 178/178/178
f 181/181/181 180/180/180 178/178/178
f 179/179/179 182/182/182 178/178/178
f 178/178/178 182/182/182 183/183/183
f 183/183/183 182/182/182 184/184/184
f 185/185/185 183/183/183 184/184/184
f 185/185/185 178/178/178 183/183/183
f 181/181/181 178/178/178 185/185/185
f 188/188/188 187/187/187 186/186/186
f 187/187/187 189/189/189 186/186/186
f 188/188/188 186/186/186 190/190/190
f 186/186/186 189/189/189 190/190/190
f 188/188/188 190/190/190 191/191/191
f 191/191/191 190/190/190 192/192/192
f 190/190/190 193/193/193 192/192/192
f 189/189/189 193/193/193 190/190/190
f 196/196/196 195/195/195 194/194/194
f 196/196/196 194/194/194 197/197/197
f 198/198/198 196/196/196 197/197/197
f 198/198/198 195/195/195 196/196/196
f 199/199/199 198/198/198 197/197/197
f 200/200/200 198/198/198 199/199/199
f 200/200/200 201/201/201 198/198/198
f 198/198/198 201/201/201 195/195/195
f 204/204/204 203/203/203 202/202/202
f 204/204/204 202/202/202 205/205/205
f 204/204/204 206/206/206 203/203/203
f 207/207/207 206/206/206 204/204/204
f 208/208/208 206/206/206 207/207/207
f 208/208/208 207/207/207 209/209/209
f 207/207/207 204/204/204 209/209/209
f 209/209/209 204/204/204 205/205/205
f 212/212/212 211/211/211 210/210/210
f 212/212/212 213/213/213 211/211/211
f 214/214/214 212/212/212 210/210/210
f 214/214/214 213/213/213 212/212/212
f 215/215/215 214/214/214 210/210/210
f 216/216/216 214/214/214 215/215/215
f 216/216/216 217/217/217 214/214/214
f 214/214/214 217/217/217 213/213/213
f 220/220/220 219/219/219 218/218/218
f 220/220/220 221/221/221 219/219/219
f 218/218/218 219/219/219 222/222/222
f 219/219/219 223/223/223 222/222/222
f 223/223/223 224/224/224 222/222/222
f 223/223/223 225/225/225 224/224/224
f 221/221/221 225/225/225 219/219/219
f 219/219/219 225/225/225 223/223/223
f 228/228/228 227/227/227 226/226/226
f 228/228/228 229/229/229 227/227/227
f 227/227/227 230/230/230 226/226/226
f 227/227/227 229/229/229 230/230/230
f 226/226/226 230/230/230 231/231/231
f 230/230/230 232/232/232 231/231/231
f 230/230/230 233/233/233 232/232/232
f 229/229/229 233/233/233 230/230/230
f 236/236/236 235/235/235 234/234/234
f 235/235/235 237/237/237 234/234/234
f 236/236/236 238/238/238 235/235/235
f 238/238/238 237/237/237 235/235/235
f 239/239/239 238/238/238 236/236/236
f 239/239/239 240/240/240 238/238/238
f 240/240/240 241/241/241 238/238/238
f 238/238/238 241/241/241 237/237/237
f 244/244/244 243/243/243 242/242/242
f 243/243/243 245/245/245 242/242/242
f 246/246/246 243/243/243 244/244/244
f 246/246/246 247/247/247 243/243/243
f 246/246/246 248/248/248 247/247/247
f 248/248/248 249/249/249 247/247/247
f 243/243/243 249/249/249 245/245/245
f 247/247/247 249/249/249 243/243/243
f 252/252/252 251/251/251 250/250/250
f 251/251/251 253/253/253 250/250/250
f 252/252/252 254/254/254 251/251/251
f 254/254/254 253/253/253 251/251/251
f 255/255/255 254/254/254 252/252/252
f 255/255/255 256/256/256 254/254/254
f 256/256/256 257/257/257 254/254/254
f 254/254/254 257/257/257 253/253/253
f 260/260/260 259/259/259 258/258/258
f 260/260/260 261/261/261 259/259/259
f 259/259/259 262/262/262 258/258/258
f 259/259/259 261/261/261 262/262/262
f 258/258/258 262/262/262 263/263/263
f 262/262/262 264/264/264 263/263/263
f 262/262/262 265/265/265 264/264/264
f 261/261/261 265/265/265 262/262/262
f 268/268/268 267/267/267 266/266/266
f 267/267/267 269/269/269 266/266/266
f 268/268/268 266/266/266 270/270/270
f 271/271/271 268/268/268 270/270/270
f 274/274/274 273/273/273 272/272/272
f 274/274/274 273/273/273 272/272/272
f 273/273/273 275/275/275 272/272/272
f 273/273/273 275/275/275 272/272/272
f 272/272/272 273/273/273 276/276/276
f 272/272/272 273/273/273 276/276/276
f 277/277/277 273/273/273 272/272/272
f 277/277/277 273/273/273 272/272/272
f 280/280/280 279/279/279 278/278/278
f 280/280/280 279/279/279 278/278/278
f 280/280/280 281/281/281 279/279/279
f 280/280/280 281/281/281 279/279/279
f 282/282/282 279/279/279 280/280/280
f 282/282/282 279/279/279 280/280/280
f 280/280/280 279/279/279 283/283/283
f 280/280/280 279/279/279 283/283/283
f 286/286/286 285/285/285 284/284/284
f 287/287/287 286/286/286 284/284/284
f 286/286/286 288/288/288 285/285/285
f 289/289/289 288/288/288 286/286/286
f 292/292/292 291/291/291 290/290/290
f 291/291/291 293/293/293 290/290/290
f 292/292/292 290/290/290 294/294/294
f 294/294/294 290/290/290 295/295/295
f 298/298/298 297/297/297 296/296/296
f 296/296/296 297/297/297 299/299/299
f 298/298/298 296/296/296 300/300/300
f 301/301/301 298/298/298 300/300/300
f 304/304/304 303/303/303 302/302/302
f 305/305/305 304/304/304 302/302/302
f 304/304/304 306/306/306 303/303/303
f 307/307/307 306/306/306 304/304/304
f 310/310/310 309/309/309 308/308/308
f 311/311/311 310/310/310 308/308/308
f 310/310/310 312/312/312 309/309/309
f 309/309/309 312/312/312 313/313/313
f 316/316/316 315/315/315 314/314/314
f 315/315/315 317/317/317 314/314/314
f 316/316/316 314/314/314 318/318/318
f 319/319/319 316/316/316 318/318/318
f 322/322/322 321/321/321 320/320/320
f 323/323/323 322/322/322 320/320/320
f 322/322/322 324/324/324 321/321/321
f 324/324/324 325/325/325 321/321/321
f 328/328/328 327/327/327 326/326/326
f 329/329/329 328/328/328 326/326/326
f 328/328/328 330/330/330 327/327/327
f 330/330/330 331/331/331 327/327/327
f 334/334/334 333/333/333 332/332/332
f 335/335/335 334/334/334 332/332/332
f 334/334/334 336/336/336 333/333/333
f 336/336/336 337/337/337 333/333/333
f 340/340/340 339/339/339 338/338/338
f 340/340/340 338/338/338 341/341/341
f 339/339/339 342/342/342 338/338/338
f 339/339/339 343/343/343 342/342/342
f 346/346/346 345/345/345 344/344/344
f 346/346/346 344/344/344 347/347/347
f 345/345/345 348/348/348 344/344/344
f 345/345/345 349/349/349 348/348/348
f 352/352/352 351/351/351 350/350/350
f 353/353/353 352/352/352 350/350/350
f 352/352/352 354/354/354 351/351/351
f 354/354/354 355/355/355 351/351/351
f 358/358/358 357/357/357 356/356/356
f 359/359/359 358/358/358 356/356/356
f 358/358/358 360/360/360 357/357/357
f 361/361/361 360/360/360 358/358/358
f 364/364/364 363/363/363 362/362/362
f 363/363/363 365/365/365 362/362/362
f 364/364/364 362/362/362 366/366/366
f 367/367/367 364/364/364 366/366/366
f 370/370/370 369/369/369 368/368/368
f 371/371/371 370/370/370 368/368/368
f 370/370/370 372/372/372 369/369/369
f 372/372/372 373/373/373 369/369/369
f 376/376/376 375/375/375 374/374/374
f 376/376/376 374/374/374 377/377/377
f 375/375/375 378/378/378 374/374/374
f 374/374/374 378/378/378 379/379/379
f 382/382/382 381/381/381 380/380/380
f 380/380/380 381/381/381 383/383/383
f 380/380/380 383/383/383 384/384/384
f 384/384/384 383/383/383 385/385/385
f 384/384/384 385/385/385 386/386/386
f 387/387/387 384/384/384 386/386/386
f 387/387/387 388/388/388 386/386/386
f 386/386/386 388/388/388 389/389/389
f 392/392/392 391/391/391 390/390/390
f 390/390/390 391/391/391 393/393/393
f 390/390/390 393/393/393 394/394/394
f 395/395/395 390/390/390 394/394/394
f 395/395/395 394/394/394 396/396/396
f 396/396/396 394/394/394 397/397/397
f 396/396/396 398/398/398 397/397/397
f 399/399/399 398/398/398 396/396/396
f 402/402/402 401/401/401 400/400/400
f 403/403/403 401/401/401 402/402/402
f 404/404/404 403/403/403 402/402/402
f 405/405/405 403/403/403 404/404/404
f 406/406/406 405/405/405 404/404/404
f 406/406/406 404/404/404 407/407/407
f 406/406/406 408/408/408 407/407/407
f 409/409/409 408/408/408 406/406/406
f 412/412/412 411/411/411 410/410/410
f 413/413/413 411/411/411 412/412/412
f 414/414/414 413/413/413 412/412/412
f 414/414/414 412/412/412 415/415/415
f 416/416/416 414/414/414 415/415/415
f 417/417/417 414/414/414 416/416/416
f 417/417/417 418/418/418 416/416/416
f 416/416/416 418/418/418 419/419/419
f 422/422/422 421/421/421 420/420/420
f 423/423/423 421/421/421 422/422/422
f 424/424/424 421/421/421 420/420/420
f 425/425/425 421/421/421 424/424/424
f 426/426/426 423/423/423 422/422/422
f 426/426/426 422/422/422 427/427/427
f 428/428/428 426/426/426 427/427/427
f 429/429/429 426/426/426 428/428/428
f 432/432/432 431/431/431 430/430/430
f 433/433/433 431/431/431 432/432/432
f 430/430/430 431/431/431 434/434/434
f 431/431/431 435/435/435 434/434/434
f 436/436/436 435/435/435 434/434/434
f 437/437/437 435/435/435 436/436/436
f 438/438/438 433/433/433 432/432/432
f 439/439/439 433/433/433 438/438/438
f 442/442/442 441/441/441 440/440/440
f 440/440/440 441/441/441 443/443/443
f 442/442/442 441/441/441 444/444/444
f 444/444/444 441/441/441 445/445/445
f 440/440/440 443/443/443 446/446/446
f 447/447/447 440/440/440 446/446/446
f 447/447/447 446/446/446 448/448/448
f 448/448/448 446/446/446 449/449/449
f 452/452/452 451/451/451 450/450/450
f 450/450/450 451/451/451 453/453/453
f 454/454/454 451/451/451 452/452/452
f 454/454/454 455/455/455 451/451/451
f 454/454/454 455/455/455 456/456/456
f 456/456/456 455/455/455 457/457/457
f 450/450/450 453/453/453 458/458/458
f 458/458/458 453/453/453 459/459/459
f 462/462/462 461/461/461 460/460/460
f 463/463/463 461/461/461 462/462/462
f 464/464/464 463/463/463 462/462/462
f 465/465/465 463/463/463 464/464/464
f 466/466/466 465/465/465 464/464/464
f 467/467/467 465/465/465 466/466/466
f 468/468/468 461/461/461 460/460/460
f 469/469/469 461/461/461 468/468/468
f 472/472/472 471/471/471 470/470/470
f 470/470/470 471/471/471 473/473/473
f 470/470/470 473/473/473 474/474/474
f 474/474/474 473/473/473 475/475/475
f 474/474/474 475/475/475 476/476/476
f 476/476/476 475/475/475 477/477/477
f 472/472/472 471/471/471 478/478/478
f 478/478/478 471/471/471 479/479/479
f 482/482/482 481/481/481 480/480/480
f 483/483/483 481/481/481 482/482/482
f 484/484/484 483/483/483 482/482/482
f 485/485/485 483/483/483 484/484/484
f 486/486/486 485/485/485 484/484/484
f 487/487/487 485/485/485 486/486/486
f 487/487/487 488/488/488 486/486/486
f 486/486/486 488/488/488 489/489/489
f 492/492/492 491/491/491 490/490/490
f 490/490/490 491/491/491 493/493/493
f 490/490/490 493/493/493 494/494/494
f 494/494/494 493/493/493 495/495/495
f 494/494/494 495/495/495 496/496/496
f 496/496/496 495/495/495 497/497/497
f 496/496/496 498/498/498 497/497/497
f 499/499/499 498/498/498 496/496/496
f 502/502/502 501/501/501 500/500/500
f 500/500/500 501/501/501 503/503/503
f 504/504/504 503/503/503 500/500/500
f 505/505/505 503/503/503 504/504/504
f 504/504/504 506/506/506 505/505/505
f 507/507/507 506/506/506 504/504/504
f 507/507/507 508/508/508 506/506/506
f 508/508/508 509/509/509 506/506/506
f 512/512/512 511/511/511 510/510/510
f 513/513/513 511/511/511 512/512/512
f 512/512/512 513/513/513 514/514/514
f 514/514/514 513/513/513 515/515/515
f 515/515/515 516/516/516 514/514/514
f 514/514/514 516/516/516 517/517/517
f 516/516/516 518/518/518 517/517/517
f 516/516/516 519/519/519 518/518/518
f 522/522/522 521/521/521 520/520/520
f 523/523/523 521/521/521 522/522/522
f 524/524/524 521/521/521 520/520/520
f 525/525/525 521/521/521 524/524/524
f 526/526/526 523/523/523 522/522/522
f 527/527/527 526/526/526 522/522/522
f 528/528/528 526/526/526 527/527/527
f 528/528/528 527/527/527 529/529/529
f 532/532/532 531/531/531 530/530/530
f 530/530/530 531/531/531 533/533/533
f 532/532/532 531/531/531 534/534/534
f 534/534/534 531/531/531 535/535/535
f 530/530/530 533/533/533 536/536/536
f 537/537/537 530/530/530 536/536/536
f 537/537/537 536/536/536 538/538/538
f 539/539/539 537/537/537 538/538/538
f 542/542/542 541/541/541 540/540/540
f 543/543/543 541/541/541 542/542/542
f 544/544/544 541/541/541 543/543/543
f 545/545/545 541/541/541 544/544/544
f 546/546/546 541/541/541 545/545/545
f 547/547/547 541/541/541 546/546/546
f 548/548/548 541/541/541 547/547/547
f 549/549/549 541/541/541 548/548/548
f 549/549/549 550/550/550 541/541/541
f 550/550/550 551/551/551 541/541/541
f 551/551/551 552/552/552 541/541/541
f 552/552/552 553/553/553 541/541/541
f 541/541/541 553/553/553 554/554/554
f 541/541/541 554/554/554 555/555/555
f 541/541/541 555/555/555 556/556/556
f 541/541/541 556/556/556 540/540/540
