mtllib M_0020.mtl
g M_0020
v -0.683999956 -0.431999981 1.70999992
v -0.845999956 -0.395999968 1.22399998
v -0.899999976 0 1.3319999
v -0.737999976 0 1.85399997
v -0.413999975 -0.746999979 1.38599992
v -0.571500003 -0.638999999 1.12949991
v -0.503999949 -0.629999995 0.845999956
v -0.251999974 -0.683999956 0.791999936
v -0.728999972 -0.638999999 1.07099998
v -0.233999997 -0.476999968 2.23199987
v -0.251999974 0 2.41199994
v -0.521999955 -0.854999959 0.683999956
v -0.737999976 -0.539999962 0.854999959
v -0.899999976 -0.755999982 0.683999956
v -0.98999995 -0.386999995 1.07999992
v -1.25999999 -0.422999978 0.971999943
v -1.04399991 0 1.13399994
v -1.3499999 0 1.04399991
v -0.269999981 -0.926999986 0.521999955
v -0.152999997 -0.674999952 1.278
v -0 -0.638999999 0.881999969
v 0.0633599982 -0.811619997 1.25603998
v 0.178559989 -0.777059913 1.00259995
v 0.155519992 -0.869219959 1.50047994
v 0.0359999985 -0.746999979 1.67399991
v 0.431999981 -0.530999959 2.56499982
v 0.431999981 0 2.73599982
v 0.413999975 -0.818999946 1.85399997
v 0.420479983 -0.903779924 1.61316001
v -0.107999995 -0.881999969 1.87199998
v 0.662399948 -0.903779924 1.50047994
v 0.773999989 -0.818999946 1.70099998
v 1.05299997 -0.575999975 2.421
v 1.15199995 0 2.59200001
v 0.971999943 -0.818999946 1.25999999
v 0.754559934 -0.869219959 1.25603998
v 0.818999946 -0.692999959 0.863999963
v 1.15199995 -0.917999983 0.881999969
v 0.899999976 -0.800999939 0.683999956
v 1.04399991 -0.395999968 0.557999969
v 0.413999975 -0.620999992 0.737999976
v 0.673919976 -0.800099969 1.01411998
v 0.458999991 -0.683999956 0.566999972
v 0.162 -0.629999995 0.629999995
v 0.420479983 -0.777059913 0.910439968
v 0.0899999961 -0.710999966 0.467999995
v 0.648000002 -0.324000001 0.467999995
v 0.719999969 0 0.458999991
v 0.827999949 0 0.377999991
v 0.602999985 -0.521999955 0.359999985
v 1.15199995 0 0.521999955
v 1.49399996 -0.476999968 0.899999976
v 1.63799989 0 0.953999937
v 1.60199988 -0.557999969 1.56599998
v 1.74599993 0 1.67399991
v 1.43099999 -0.566999972 2.03399992
v 1.54799998 0 2.16899991
v 0.863999963 -1.07999992 1.97099996
v 0.755999982 -0.971999943 2.09699988
v 0.890999973 -1.11599994 2.15100002
v 0.908999979 -0.953999937 2.079
v 1.14300001 -1.24199998 1.83599997
v 1.1789999 -1.23299992 2.00699997
v 1.23299992 -1.13399994 1.89899993
v 1.34099996 -1.3499999 1.96199989
v 1.13399994 -1.07099998 1.72799993
v 1.30499995 -1.0079999 1.56599998
v 0.413999975 -0.998999953 2.10599995
v 0.233999997 -0.881999969 2.14199996
v 0.305999994 -0.96299994 2.25899982
v 0.566999972 -1.10699999 2.39399981
v 0.683999956 -1.10699999 2.25899982
v 0.413999975 -0.845999956 2.25
v 0.674999952 -0.998999953 2.36699986
v 0.701999962 -1.19699991 2.51999998
v 1.24199998 -1.06199992 1.3499999
v 1.44899988 -1.15199995 1.34099996
v 1.37699997 -1.15199995 1.22399998
v 1.34099996 -0.917999983 1.41299999
v 1.45799994 -1.06199992 1.23299992
v 1.52099991 -1.278 1.25999999
v 1.25099993 -0.899999976 1.03499997
v 1.3499999 -0.953999937 0.755999982
v 1.22399998 -0.953999937 0.719999969
v 1.23299992 -0.809999943 0.890999973
v 1.25999999 -0.863999963 0.710999966
v 1.42199993 -0.971999943 0.674999952
v 1.42199993 -0.971999943 0.674999952
v 1.23299992 -0.809999943 0.890999973
v -1.14300001 -0.233999997 0.548999965
v -1.3319999 0 0.440999985
v -1.23299992 0 0.648000002
v -1.11599994 -0.296999991 0.476999968
v -1.43099999 0 0.314999998
v -1.36799991 -0.269999981 0.215999991
v -1.41299999 -0.107999995 0.206999987
v -1.46699989 0 0.206999987
v -1.09799993 -0.494999975 0.242999986
v -1.28699994 -0.341999978 0.116999999
v -0.944999933 -0.530999959 0.107999995
v -0.953999937 -0.602999985 0.332999974
v -1.44899988 -0.0719999969 0.116999999
v -1.41299999 -0.170999989 0.116999999
v -1.07099998 -0.287999988 0.584999979
v -0.701999962 -0.233999997 0.953999937
v -1.05299997 -0.341999978 0.521999955
v -0.863999963 0 1.05299997
v -0.764999986 -0.692999959 0.422999978
v -0.428579986 -0.377999991 0.737999976
v -0.602999985 -0.584999979 0.296999991
v -0.366659999 -0.593999982 0.440999985
v -0.225539982 -0.521999955 0.269999981
v -0.0565200001 -0.251999974 0.611999989
v 0.0410399996 -0.458999991 0.350999981
v 0.432539999 0 0.404999971
v 0.158759981 -0.324000001 0.0359999985
v 0.698399961 -0.215999991 0.0269999988
v 0.929159939 0 0.0179999992
v 0.698399961 0.215999991 0.0269999988
v 0.158759981 0.324000001 0.0359999985
v 0.0410399996 0.458999991 0.350999981
v -0.0565200001 0.251999974 0.611999989
v -0.225539982 0.521999955 0.269999981
v -0.428579986 0.377999991 0.737999976
v -0.366659999 0.593999982 0.440999985
v -0.602999985 0.584999979 0.296999991
v -0.764999986 0.692999959 0.422999978
v -0.701999962 0.233999997 0.953999937
v -1.05299997 0.341999978 0.521999955
v -1.07099998 0.287999988 0.584999979
v -1.14300001 0.233999997 0.548999965
v -1.11599994 0.296999991 0.476999968
v -1.36799991 0.269999981 0.215999991
v -1.41299999 0.107999995 0.206999987
v -1.09799993 0.494999975 0.242999986
v -1.28699994 0.341999978 0.116999999
v -0.944999933 0.530999959 0.107999995
v -0.953999937 0.602999985 0.332999974
v -1.44899988 0.0719999969 0.116999999
v -1.41299999 0.170999989 0.116999999
v -0.944999933 -0.530999959 0.107999995
v -0.998999953 -0.260999978 0.0539999977
v -1.28699994 -0.341999978 0.116999999
v -1.3319999 -0.215999991 0.0719999969
v -1.01699996 0 0.0269999988
v -0.620999992 0 0.0359999985
v -0.620999992 -0.332999974 0.0629999936
v -0.176219985 0 -0.0269999988
v -0.176219985 -0.305999994 0
v -1.43099999 0 0.0810000002
v -1.44899988 -0.0719999969 0.116999999
v -1.41299999 -0.170999989 0.116999999
v 0.158759981 -0.324000001 0.0359999985
v 0.698399961 -0.215999991 0.0269999988
v 0.929159939 0 0.0179999992
v -0.253619999 -0.458999991 0.0359999985
v -0.764999986 -0.548999965 0.0449999981
v -0.602999985 -0.557999969 0.107999995
v -0.402660012 -0.530999959 0.0269999988
v -0.998999953 0.260999978 0.0539999977
v -0.620999992 0.332999974 0.0629999936
v -0.176219985 0.305999994 0
v 0.698399961 0.215999991 0.0269999988
v 0.158759981 0.324000001 0.0359999985
v -0.253619999 0.458999991 0.0359999985
v -0.764999986 0.548999965 0.0449999981
v -0.602999985 0.557999969 0.107999995
v -0.944999933 0.530999959 0.107999995
v -1.28699994 0.341999978 0.116999999
v -1.3319999 0.215999991 0.0719999969
v -1.44899988 0.0719999969 0.116999999
v -1.41299999 0.170999989 0.116999999
v -0.402660012 0.530999959 0.0269999988
v -1.54799998 -0.422999978 0.782999992
v -1.05299997 -0.341999978 0.521999955
v -1.53899992 -0.476999968 0.710999966
v -1.07099998 -0.287999988 0.584999979
v -1.14300001 -0.233999997 0.548999965
v -1.61099994 -0.377999991 0.737999976
v -1.11599994 -0.296999991 0.476999968
v -1.60199988 -0.431999981 0.665999949
v -1.75499988 -0.494999975 1.03499997
v -1.67399991 -0.539999962 1.0259999
v -1.70099998 -0.593999982 0.98999995
v -1.77299988 -0.548999965 0.96299994
v -1.64699996 -0.638999999 1.39499998
v -1.71899998 -0.593999982 1.39499998
v -1.75499988 -0.648000002 1.34099996
v -1.68299997 -0.692999959 1.34099996
v -1.88099992 -0.719999969 1.59299994
v -1.83599997 -0.791999936 1.61999989
v -1.88999987 -0.809999943 1.5029999
v -1.85399997 -0.827999949 1.53899992
v -1.98899996 -0.890999973 1.54799998
v -2.03399992 -0.863999963 1.61099994
v -2.01599979 -0.818999946 1.55699992
v -1.97099996 -0.827999949 1.51199996
v -1.44899988 -0.0719999969 0.116999999
v -1.51199996 0 0.098999992
v -1.46699989 0 0.206999987
v -1.43099999 0 0.0810000002
v -1.44899988 0.0719999969 0.116999999
v -1.41299999 -0.107999995 0.206999987
v -1.47599995 -0.143999994 0.107999995
v -1.41299999 -0.170999989 0.116999999
v -1.44899988 -0.0719999969 0.116999999
v -1.51199996 -0.332999974 0.0719999969
v -1.3319999 -0.215999991 0.0719999969
v -1.36799991 -0.269999981 0.215999991
v -1.28699994 -0.341999978 0.116999999
v -1.47599995 0.143999994 0.107999995
v -1.41299999 0.107999995 0.206999987
v -1.41299999 0.170999989 0.116999999
v -1.44899988 0.0719999969 0.116999999
v -1.3319999 0.215999991 0.0719999969
v -1.51199996 0.332999974 0.0719999969
v -1.36799991 0.269999981 0.215999991
v -1.28699994 0.341999978 0.116999999
v -0.944999933 -0.530999959 0.107999995
v -0.445499986 -1.21499991 0.00899999961
v -0.764999986 -0.548999965 0.0449999981
v -0.500399947 -1.24559987 0.0854999945
v -0.953999937 -0.602999985 0.332999974
v -0.296999991 -1.32299995 0.0539999977
v -0.371699989 -1.1897999 0.131400004
v -0.296999991 -1.32299995 0.0539999977
v -0.296999991 -1.23299992 0.00899999961
v -0.602999985 -0.584999979 0.296999991
v -0.764999986 -0.692999959 0.422999978
v -0.602999985 -0.557999969 0.107999995
v -0.764999986 -0.548999965 0.0449999981
v 0.0957599953 -1.32299995 0.13499999
v -0.602999985 -0.557999969 0.107999995
v 0.162 -1.21499991 0.233999997
v 0.170999989 -1.41299999 0.197999984
v 0.292319983 -1.25999999 0.116999999
v -0.225539982 -0.521999955 0.269999981
v -0.366659999 -0.593999982 0.440999985
v -0.253619999 -0.458999991 0.0359999985
v 0.152999997 -1.21499991 0.0359999985
v 0.170999989 -1.41299999 0.197999984
v -0.402660012 -0.530999959 0.0269999988
v 0.158759981 -0.324000001 0.0359999985
v 0.907199979 -1.20581996 0.00899999961
v 0.944999933 -1.14497995 0.0539999977
v -0.176219985 -0.305999994 0
v -0.253619999 -0.458999991 0.0359999985
v 0.816299915 -1.2218399 0.0539999977
v -0.225539982 -0.521999955 0.269999981
v 0.940679908 -1.25711989 0.143999994
v 0.844200015 -1.11581993 0.162
v 0.940679908 -1.25711989 0.143999994
v 0.0410399996 -0.458999991 0.350999981
v -2.28600001 -1.06199992 1.37699997
v -2.59200001 -1.09799993 1.28699994
v -2.41199994 -1.04399991 1.51199996
v -2.32739997 -0.907199979 1.38059986
v -2.21399999 -0.953999937 1.58399987
v -2.14199996 -0.863999963 1.44899988
v -2.09699988 -0.782999992 1.51199996
v -2.10599995 -0.953999937 1.44899988
v -2.01599979 -0.971999943 1.49399996
v -2.49336004 -1.01141989 1.25747991
v -2.6639998 -1.11599994 1.01699996
v -2.46582007 -1.09277999 1.23371994
v -1.9799999 -0.836999953 1.58399987
v -2.20499992 -0.953999937 1.70099998
v -2.21399999 -0.953999937 1.58399987
v -2.01599979 -0.971999943 1.49399996
v -2.03399992 -0.845999956 1.31399989
v -1.92599988 -0.782999992 1.26899993
v -1.9799999 -0.836999953 1.58399987
v -2.09699988 -0.782999992 1.51199996
v -2.32739997 -0.907199979 1.38059986
v -2.16899991 -0.890999973 1.16999996
v -2.421 -1.0079999 1.14300001
v -2.28600001 -1.06199992 1.37699997
v -2.46582007 -1.09277999 1.23371994
v -2.6639998 -1.11599994 1.01699996
v -2.49336004 -1.01141989 1.25747991
v -1.24199998 -0.386999995 0.863999963
v -0.341999978 0 0.665999949
v -1.296 0 0.917999983
v -0.93599999 -0.755999982 0.557999969
v -0.557999969 -0.854999959 0.557999969
v -0.899999976 -0.755999982 0.683999956
v -0.521999955 -0.854999959 0.683999956
v -0.251999974 -0.908999979 0.395999968
v 0.0719999969 -0.692999959 0.395999968
v 0.575999975 -0.548999965 0.278999984
v 0.638999999 0 0.287999988
v -0.269999981 -0.926999986 0.521999955
v -1.25999999 -0.422999978 0.971999943
v -1.3499999 0 1.04399991
v 0.0899999961 -0.710999966 0.467999995
v 0.575999975 -0.548999965 0.278999984
v 0.602999985 -0.521999955 0.359999985
v 0.827999949 0 0.377999991
v -1.24199998 0.386999995 0.863999963
v -1.25999999 0.422999978 0.971999943
v -0.93599999 0.755999982 0.557999969
v -0.557999969 0.854999959 0.557999969
v -0.899999976 0.755999982 0.683999956
v -0.521999955 0.854999959 0.683999956
v -0.251999974 0.908999979 0.395999968
v 0.0719999969 0.692999959 0.395999968
v 0.575999975 0.548999965 0.278999984
v -0.269999981 0.926999986 0.521999955
v 0.0899999961 0.710999966 0.467999995
v 0.575999975 0.548999965 0.278999984
v 0.602999985 0.521999955 0.359999985
v 0.420479983 -0.840419948 1.26179993
v 0.420479983 -0.777059913 0.910439968
v 0.178559989 -0.777059913 1.00259995
v 0.673919976 -0.800099969 1.01411998
v 0.0633599982 -0.811619997 1.25603998
v 0.155519992 -0.869219959 1.50047994
v 0.420479983 -0.903779924 1.61316001
v 0.662399948 -0.903779924 1.50047994
v 0.754559934 -0.869219959 1.25603998
v 5.29199982 -0.215999991 -1.61099994
v 5.39999962 0.224999994 -1.71899998
v 5.39999962 0 -0.96299994
v 5.5079999 -0.215999991 -1.61099994
v 5.39999962 0.197999984 -3.41999984
v 5.32799959 -0.116999999 -3.41999984
v 5.39999962 0 -4.31999969
v 5.47199965 -0.116999999 -3.41999984
v 5.5079999 -0.215999991 -1.61099994
v 5.29199982 -0.215999991 -1.61099994
v 5.32799959 -0.116999999 -3.41999984
v 5.47199965 -0.116999999 -3.41999984
v 5.39999962 0 -4.31999969
v 7.22699976 -0.107999995 -1.60199988
v 6.74999952 0 -1.60199988
v 7.0199995 0 -1.26899993
v 7.19999981 0 -4.23000002
v 7.22699976 0.107999995 -1.60199988
v 5.8499999 -1.39499998 -3.06899977
v 5.94899988 -1.22399998 -3.41099977
v 5.87699986 -1.37699997 -2.3579998
v 6.04799986 -1.25999999 -4.22099972
v 6.05699968 -1.35899997 -3.41099977
v 4.33799982 -0.96299994 -2.51999998
v 4.5539999 -0.530999959 -3.84299994
v 4.29299974 -0.728999972 -2.727
v 4.21199989 -0.908999979 -1.68299997
v 4.46399975 -0.737999976 -2.70899987
v 9.06299973 -0.116999999 -2.91599989
v 8.90999985 0 -2.91599989
v 9 0 -1.63799989
v 9 0 -4.23000002
v 9.06299973 0.116999999 -2.91599989
v 10.6829996 -1.46699989 -3.36599994
v 10.6829996 -1.70099998 -3.41099977
v 10.7999992 -1.85399997 -2.14199996
v 10.5389996 -1.59299994 -3.36599994
v 10.4399996 -1.31399989 -4.65299988
v 7.8029995 -1.08899999 -2.70899987
v 7.64999962 -0.971999943 -2.70899987
v 7.60499954 -1.10699999 -1.43999994
v 7.87499952 -0.836999953 -4.00499964
v 7.8029995 -0.854999959 -2.68199992
v 7.33499956 1.93499994 -1.81799996
v 7.36199951 1.47599995 -3.51899981
v 7.30799961 1.36799991 -2.87099981
v 7.22699976 0.899999976 -4.76099968
v 7.17299986 1.3319999 -3.4829998
v 6.14699984 1.42199993 -2.73599982
v 6.11999989 1.13399994 -3.43799996
v 5.94899988 1.13399994 -3.41099977
v 6.02999973 1.28699994 -3.4829998
v 5.82299995 0.899999976 -4.74300003
v 10.7459993 1.31399989 -2.02499986
v 10.6829996 1.07999992 -3.28499985
v 10.5749998 0.98999995 -3.2579999
v 10.3499994 0.917999983 -4.5539999
v 10.467 1.14300001 -3.26699996
v 10.6829996 1.07999992 -3.28499985
v -0.845999956 0.395999968 1.22399998
v -0.683999956 0.431999981 1.70999992
v -0.413999975 0.746999979 1.38599992
v -0.571500003 0.638999999 1.12949991
v -0.503999949 0.629999995 0.845999956
v -0.251999974 0.683999956 0.791999936
v -0.728999972 0.638999999 1.07099998
v -0.233999997 0.476999968 2.23199987
v -0.521999955 0.854999959 0.683999956
v -0.737999976 0.539999962 0.854999959
v -0.899999976 0.755999982 0.683999956
v -0.98999995 0.386999995 1.07999992
v -1.25999999 0.422999978 0.971999943
v -0.269999981 0.926999986 0.521999955
v -0.152999997 0.674999952 1.278
v -0 0.638999999 0.881999969
v 0.0633599982 0.811619997 1.25603998
v 0.178559989 0.777059913 1.00259995
v 0.155519992 0.869219959 1.50047994
v 0.0359999985 0.746999979 1.67399991
v 0.431999981 0.530999959 2.56499982
v 0.413999975 0.818999946 1.85399997
v 0.420479983 0.903779924 1.61316001
v -0.107999995 0.881999969 1.87199998
v 0.662399948 0.903779924 1.50047994
v 0.773999989 0.818999946 1.70099998
v 1.05299997 0.575999975 2.421
v 0.971999943 0.818999946 1.25999999
v 0.754559934 0.869219959 1.25603998
v 0.818999946 0.692999959 0.863999963
v 1.15199995 0.917999983 0.881999969
v 0.899999976 0.800999939 0.683999956
v 1.04399991 0.395999968 0.557999969
v 0.413999975 0.620999992 0.737999976
v 0.673919976 0.800099969 1.01411998
v 0.458999991 0.683999956 0.566999972
v 0.162 0.629999995 0.629999995
v 0.420479983 0.777059913 0.910439968
v 0.0899999961 0.710999966 0.467999995
v 0.648000002 0.324000001 0.467999995
v 0.602999985 0.521999955 0.359999985
v 1.49399996 0.476999968 0.899999976
v 1.60199988 0.557999969 1.56599998
v 1.43099999 0.566999972 2.03399992
v 0.863999963 1.07999992 1.97099996
v 0.755999982 0.971999943 2.09699988
v 0.890999973 1.11599994 2.15100002
v 0.908999979 0.953999937 2.079
v 1.14300001 1.24199998 1.83599997
v 1.1789999 1.23299992 2.00699997
v 1.23299992 1.13399994 1.89899993
v 1.34099996 1.3499999 1.96199989
v 1.13399994 1.07099998 1.72799993
v 1.30499995 1.0079999 1.56599998
v 0.413999975 0.998999953 2.10599995
v 0.233999997 0.881999969 2.14199996
v 0.305999994 0.96299994 2.25899982
v 0.566999972 1.10699999 2.39399981
v 0.683999956 1.10699999 2.25899982
v 0.413999975 0.845999956 2.25
v 0.674999952 0.998999953 2.36699986
v 0.701999962 1.19699991 2.51999998
v 1.24199998 1.06199992 1.3499999
v 1.44899988 1.15199995 1.34099996
v 1.37699997 1.15199995 1.22399998
v 1.34099996 0.917999983 1.41299999
v 1.45799994 1.06199992 1.23299992
v 1.52099991 1.278 1.25999999
v 1.25099993 0.899999976 1.03499997
v 1.3499999 0.953999937 0.755999982
v 1.22399998 0.953999937 0.719999969
v 1.23299992 0.809999943 0.890999973
v 1.25999999 0.863999963 0.710999966
v 1.42199993 0.971999943 0.674999952
v 1.42199993 0.971999943 0.674999952
v 1.23299992 0.809999943 0.890999973
v -1.53899992 0.476999968 0.710999966
v -1.05299997 0.341999978 0.521999955
v -1.54799998 0.422999978 0.782999992
v -1.07099998 0.287999988 0.584999979
v -1.14300001 0.233999997 0.548999965
v -1.61099994 0.377999991 0.737999976
v -1.11599994 0.296999991 0.476999968
v -1.60199988 0.431999981 0.665999949
v -1.75499988 0.494999975 1.03499997
v -1.67399991 0.539999962 1.0259999
v -1.70099998 0.593999982 0.98999995
v -1.77299988 0.548999965 0.96299994
v -1.64699996 0.638999999 1.39499998
v -1.71899998 0.593999982 1.39499998
v -1.75499988 0.648000002 1.34099996
v -1.68299997 0.692999959 1.34099996
v -1.88099992 0.719999969 1.59299994
v -1.83599997 0.791999936 1.61999989
v -1.88999987 0.809999943 1.5029999
v -1.85399997 0.827999949 1.53899992
v -1.98899996 0.890999973 1.54799998
v -2.03399992 0.863999963 1.61099994
v -2.01599979 0.818999946 1.55699992
v -1.97099996 0.827999949 1.51199996
v -0.764999986 0.548999965 0.0449999981
v -0.445499986 1.21499991 0.00899999961
v -0.944999933 0.530999959 0.107999995
v -0.500399947 1.24559987 0.0854999945
v -0.953999937 0.602999985 0.332999974
v -0.296999991 1.32299995 0.0539999977
v -0.371699989 1.1897999 0.131400004
v -0.296999991 1.32299995 0.0539999977
v -0.296999991 1.23299992 0.00899999961
v -0.602999985 0.584999979 0.296999991
v -0.764999986 0.692999959 0.422999978
v -0.602999985 0.557999969 0.107999995
v -0.764999986 0.548999965 0.0449999981
v -0.602999985 0.557999969 0.107999995
v 0.0957599953 1.32299995 0.13499999
v 0.162 1.21499991 0.233999997
v 0.170999989 1.41299999 0.197999984
v 0.292319983 1.25999999 0.116999999
v -0.225539982 0.521999955 0.269999981
v -0.366659999 0.593999982 0.440999985
v -0.253619999 0.458999991 0.0359999985
v 0.152999997 1.21499991 0.0359999985
v 0.170999989 1.41299999 0.197999984
v -0.402660012 0.530999959 0.0269999988
v 0.944999933 1.14497995 0.0539999977
v 0.907199979 1.20581996 0.00899999961
v 0.158759981 0.324000001 0.0359999985
v -0.176219985 0.305999994 0
v -0.253619999 0.458999991 0.0359999985
v 0.816299915 1.2218399 0.0539999977
v -0.225539982 0.521999955 0.269999981
v 0.940679908 1.25711989 0.143999994
v 0.844200015 1.11581993 0.162
v 0.940679908 1.25711989 0.143999994
v 0.0410399996 0.458999991 0.350999981
v -2.41199994 1.04399991 1.51199996
v -2.59200001 1.09799993 1.28699994
v -2.28600001 1.06199992 1.37699997
v -2.32739997 0.907199979 1.38059986
v -2.21399999 0.953999937 1.58399987
v -2.14199996 0.863999963 1.44899988
v -2.09699988 0.782999992 1.51199996
v -2.10599995 0.953999937 1.44899988
v -2.01599979 0.971999943 1.49399996
v -2.49336004 1.01141989 1.25747991
v -2.6639998 1.11599994 1.01699996
v -2.46582007 1.09277999 1.23371994
v -2.20499992 0.953999937 1.70099998
v -1.9799999 0.836999953 1.58399987
v -2.21399999 0.953999937 1.58399987
v -2.03399992 0.845999956 1.31399989
v -2.01599979 0.971999943 1.49399996
v -1.92599988 0.782999992 1.26899993
v -1.9799999 0.836999953 1.58399987
v -2.09699988 0.782999992 1.51199996
v -2.32739997 0.907199979 1.38059986
v -2.16899991 0.890999973 1.16999996
v -2.421 1.0079999 1.14300001
v -2.28600001 1.06199992 1.37699997
v -2.46582007 1.09277999 1.23371994
v -2.6639998 1.11599994 1.01699996
v -2.49336004 1.01141989 1.25747991
v 0.178559989 0.777059913 1.00259995
v 0.420479983 0.777059913 0.910439968
v 0.420479983 0.840419948 1.26179993
v 0.673919976 0.800099969 1.01411998
v 0.0633599982 0.811619997 1.25603998
v 0.155519992 0.869219959 1.50047994
v 0.420479983 0.903779924 1.61316001
v 0.662399948 0.903779924 1.50047994
v 0.754559934 0.869219959 1.25603998
v 1.125 -1.125 -1.39499998
v -0 0 -1.39499998
v 1.59299994 0 -1.39499998
v -0 -1.58399987 -1.39499998
v -1.11599994 -1.125 -1.39499998
v -1.57499993 0 -1.39499998
v 1.125 1.125 -1.39499998
v -0 1.58399987 -1.39499998
v -1.11599994 1.125 -1.39499998
v -3.75299978 -2.54699993 -4.45499992
v -6.29999971 -3.5999999 -4.45499992
v -6.29999971 -1.79999995 -3.69899988
v -5.03099966 -1.26899993 -3.69899988
v -2.69999981 0 -4.45499992
v -4.5 0 -3.69899988
v -7.56899977 -1.26899993 -3.69899988
v -8.84699917 -2.54699993 -4.45499992
v -8.09999943 0 -3.69899988
v -9.89999962 0 -4.45499992
v -6.29999971 0 -3.14099979
v -5.03099966 1.26899993 -3.69899988
v -3.75299978 2.54699993 -4.45499992
v -6.29999971 1.79999995 -3.69899988
v -6.29999971 3.5999999 -4.45499992
v -8.84699917 2.54699993 -4.45499992
v -7.56899977 1.26899993 -3.69899988
v -2.421 -1.04579997 1.51919997
v -2.60099983 -1.10159993 1.28699994
v -2.33819985 -0.898199975 1.38779986
v -2.28600001 -1.06739998 1.38419998
v -2.23019981 -0.964799941 1.59479988
v -2.11679983 -0.968399942 1.45439994
v -2.15639997 -0.869399965 1.45979989
v -2.50001979 -1.00529993 1.26251996
v -2.67299986 -1.11959994 1.00979996
v -2.46869969 -1.09727991 1.23588002
v 0.597059965 -0.710999966 -2.16899991
v -1.02329993 -1.15199995 -2.77199984
v -1.02329993 -0.710999966 -2.16899991
v -1.02329993 0 -1.94399989
v 0.597059965 -1.15199995 -3.51899981
v -1.02329993 -1.15199995 -3.51899981
v -1.02329993 -0.710999966 -4.12199974
v 0.597059965 0 -4.35599995
v -1.02329993 0 -4.35599995
v -1.02329993 0.710999966 -4.12199974
v -1.02329993 1.15199995 -3.51899981
v 0.597059965 1.15199995 -3.51899981
v -1.02329993 1.15199995 -2.77199984
v -1.02329993 0.710999966 -2.16899991
v 0.597059965 0.710999966 -2.16899991
v 0.597059965 -1.15199995 -2.77199984
v -1.02329993 -1.15199995 -2.77199984
v 0.597059965 -0.710999966 -2.16899991
v 0.597059965 -1.15199995 -3.51899981
v 0.597059965 -0.710999966 -4.12199974
v -1.02329993 -0.710999966 -4.12199974
v 0.597059965 0 -4.35599995
v 0.597059965 0 -1.94399989
v -1.02329993 0 -1.94399989
v 0.597059965 0.710999966 -2.16899991
v -1.02329993 1.15199995 -2.77199984
v 0.597059965 1.15199995 -2.77199984
v 0.597059965 1.15199995 -3.51899981
v -1.02329993 0.710999966 -4.12199974
v 0.597059965 0.710999966 -4.12199974
v 0.295379996 -0.946619987 1.0936799
v 0.419759989 -0.801539958 0.941759944
v 0.202139989 -0.801539958 1.02473998
v 0.233279988 -0.967499971 1.22849989
v 0.419759989 -1.02960002 1.22849989
v 0.419759989 -0.946619987 1.04183996
v 0.544319987 -0.967499971 1.0936799
v 0.648000002 -0.822239995 1.03517997
v 0.720539927 -0.884519935 1.25279987
v 0.596159935 -0.998459995 1.22849989
v 0.0984599888 -0.832679927 1.25279987
v 0.181439996 -0.884519935 1.47275996
v 0.533879995 -1.01933992 1.36691999
v 0.63755995 -0.915659964 1.47275996
v 0.295379996 -0.998459995 1.36691999
v 0.533879995 -1.01933992 1.36691999
v 0.419759989 -1.02960002 1.22849989
v 0.419759989 -1.01933992 1.42901993
v 0.295379996 -0.998459995 1.36691999
v 0.63755995 -0.915659964 1.47275996
v 0.419759989 -0.915659964 1.5742799
v 0.181439996 -0.884519935 1.47275996
v 0.421019971 -0.934019923 1.53755987
v 0.544679999 -0.993599951 1.40040004
v 0.420299977 -1.01520002 1.42559993
v 0.29519999 -0.971999943 1.39877987
v 0.419220001 -1.0079999 1.27421999
v -1.72511983 -0.578700006 1.40003991
v -1.76238 -0.4833 1.0400399
v -1.64033985 -0.631799936 1.40003991
v -1.88711989 -0.710460007 1.59659982
v -1.83095992 -0.800459981 1.63025987
v -1.85345995 -0.845279932 1.52909982
v -1.68263996 -0.695339978 1.33631992
v -1.69649994 -0.603899956 0.985139966
v -1.66355991 -0.538019955 1.02905989
v -1.42470002 -0.272699982 0.210599989
v -1.52873993 0 0.201240003
v -1.25189996 0 0.653940022
v -1.16783988 -0.215279996 0.561779976
v -1.15271997 -0.326519966 0.467099994
v -1.12643993 -0.510479987 0.235979989
v -1.06955993 -0.292499989 0.618119955
v -0.729539931 -0.241559997 0.985499978
v -0.895499945 0 1.08953989
v -1.06307995 -0.369899958 0.528479993
v -0.764639974 -0.698759973 0.436859995
v -0.96299994 -0.622259974 0.342539996
v -1.15271997 -0.326519966 0.467099994
v -1.42470002 0.272699982 0.210599989
v -1.16783988 0.215279996 0.561779976
v -1.15271997 0.326519966 0.467099994
v -1.12643993 0.510479987 0.235979989
v -0.729539931 0.241559997 0.985499978
v -1.06955993 0.292499989 0.618119955
v -1.06307995 0.369899958 0.528479993
v -0.764639974 0.698759973 0.436859995
v -0.96299994 0.622259974 0.342539996
v -1.15271997 0.326519966 0.467099994
v -0.574739993 -0.628559947 0.302939981
v -0.357659996 -1.18745995 0.160199985
v -0.764639974 -0.698759973 0.436859995
v -0.96299994 -0.622259974 0.342539996
v -0.438659996 -1.19646001 0.142199993
v -0.264059991 -1.32245994 0.0827999935
v -0.294660002 -1.21446002 0.102599993
v 0.154799998 -1.20185983 0.287099987
v 0.13499999 -1.28105986 0.222299993
v -0.36431998 -0.594899952 0.455939978
v -0.210599989 -0.533699989 0.288899988
v 0.167400002 -1.39985991 0.216899991
v 0.226799995 -1.25585985 0.251099974
v 0.842399955 -1.11563993 0.177300006
v 0.824399948 -1.17864001 0.159299999
v 0.0547199957 -0.471059978 0.35243997
v 0.181979984 -0.341999978 0.0701999962
v 0.93599999 -1.23803997 0.171899989
v 0.905399919 -1.11563993 0.132299989
v 0.68975997 0 0.256499976
v 0.549359977 -0.154799998 0.212399989
v 0.477539986 0 0.458999991
v 0.939960003 0 0.0413999967
v 0.549359977 0.154799998 0.212399989
v -1.54799998 -0.422999978 0.782999992
v -1.06307995 -0.369899958 0.528479993
v -1.53899992 -0.476999968 0.710999966
v -1.06955993 -0.292499989 0.618119955
v -1.16783988 -0.215279996 0.561779976
v -1.61099994 -0.377999991 0.737999976
v -1.15271997 -0.326519966 0.467099994
v -1.60199988 -0.431999981 0.665999949
v -2.33819985 0.898199975 1.38779986
v -2.60099983 1.10159993 1.28699994
v -2.421 1.04579997 1.51919997
v -2.28600001 1.06739998 1.38419998
v -2.23019981 0.964799941 1.59479988
v -2.11679983 0.968399942 1.45439994
v -2.15639997 0.869399965 1.45979989
v -2.50001979 1.00529993 1.26251996
v -2.67299986 1.11959994 1.00979996
v -2.46869969 1.09727991 1.23588002
v 0.202139989 0.801539958 1.02473998
v 0.419759989 0.801539958 0.941759944
v 0.295379996 0.946619987 1.0936799
v 0.233279988 0.967499971 1.22849989
v 0.419759989 1.02960002 1.22849989
v 0.419759989 0.946619987 1.04183996
v 0.544319987 0.967499971 1.0936799
v 0.648000002 0.822239995 1.03517997
v 0.720539927 0.884519935 1.25279987
v 0.596159935 0.998459995 1.22849989
v 0.0984599888 0.832679927 1.25279987
v 0.181439996 0.884519935 1.47275996
v 0.533879995 1.01933992 1.36691999
v 0.63755995 0.915659964 1.47275996
v 0.295379996 0.998459995 1.36691999
v 0.419759989 1.01933992 1.42901993
v 0.419759989 1.02960002 1.22849989
v 0.533879995 1.01933992 1.36691999
v 0.295379996 0.998459995 1.36691999
v 0.63755995 0.915659964 1.47275996
v 0.419759989 0.915659964 1.5742799
v 0.181439996 0.884519935 1.47275996
v 0.420299977 1.01520002 1.42559993
v 0.544679999 0.993599951 1.40040004
v 0.421019971 0.934019923 1.53755987
v 0.29519999 0.971999943 1.39877987
v 0.419220001 1.0079999 1.27421999
v -1.64033985 0.631799936 1.40003991
v -1.76238 0.4833 1.0400399
v -1.72511983 0.578700006 1.40003991
v -1.88711989 0.710460007 1.59659982
v -1.83095992 0.800459981 1.63025987
v -1.85345995 0.845279932 1.52909982
v -1.68263996 0.695339978 1.33631992
v -1.69649994 0.603899956 0.985139966
v -1.66355991 0.538019955 1.02905989
v -0.764639974 0.698759973 0.436859995
v -0.357659996 1.18745995 0.160199985
v -0.574739993 0.628559947 0.302939981
v -0.96299994 0.622259974 0.342539996
v -0.438659996 1.19646001 0.142199993
v -0.264059991 1.32245994 0.0827999935
v -0.294660002 1.21446002 0.102599993
v 0.13499999 1.28105986 0.222299993
v 0.154799998 1.20185983 0.287099987
v -0.36431998 0.594899952 0.455939978
v -0.210599989 0.533699989 0.288899988
v 0.167400002 1.39985991 0.216899991
v 0.226799995 1.25585985 0.251099974
v 0.824399948 1.17864001 0.159299999
v 0.842399955 1.11563993 0.177300006
v 0.0547199957 0.471059978 0.35243997
v 0.181979984 0.341999978 0.0701999962
v 0.93599999 1.23803997 0.171899989
v 0.905399919 1.11563993 0.132299989
v -1.53899992 0.476999968 0.710999966
v -1.06307995 0.369899958 0.528479993
v -1.54799998 0.422999978 0.782999992
v -1.06955993 0.292499989 0.618119955
v -1.16783988 0.215279996 0.561779976
v -1.61099994 0.377999991 0.737999976
v -1.15271997 0.326519966 0.467099994
v -1.60199988 0.431999981 0.665999949
vt 0.121094003 0.464843988
vt 0.121094003 0.339843988
vt 0.00390599994 0.339843988
vt 0.00390599994 0.472656012
vt 0.277343988 0.457031012
vt 0.238280997 0.355468988
vt 0.277343988 0.277343988
vt 0.347656012 0.324218988
vt 0.199219003 0.308593988
vt 0.121094003 0.644531012
vt 0.00390599994 0.636718988
vt 0.277343988 0.167969003
vt 0.207030997 0.261718988
vt 0.207030997 0.167969003
vt 0.121094003 0.261718988
vt 0.121094003 0.167969003
vt 0.00390599994 0.261718988
vt 0.00390599994 0.167969003
vt 0.378906012 0.167969003
vt 0.347656012 0.464843988
vt 0.410156012 0.386718988
vt 0.402343988 0.527343988
vt 0.464843988 0.527343988
vt 0.402343988 0.636718988
vt 0.347656012 0.628906012
vt 0.113280997 0.816406012
vt 0.00390599994 0.808593988
vt 0.347656012 0.785156012
vt 0.402343988 0.761718988
vt 0.277343988 0.636718988
vt 0.402343988 0.886718988
vt 0.347656012 0.933593988
vt 0.121094003 0.972656012
vt 0.00390599994 0.972656012
vt 0.347656012 0.699218988
vt 0.402343988 0.730468988
vt 0.347656012 0.464843988
vt 0.277343988 0.488281012
vt 0.277343988 0.386718988
vt 0.121094003 0.363281012
vt 0.511718988 0.386718988
vt 0.402343988 0.527343988
vt 0.386718988 0.292968988
vt 0.472656012 0.285156012
vt 0.511718988 0.527343988
vt 0.472656012 0.167969003
vt 0.167969003 0.246094003
vt 0.0664059967 0.230469003
vt 0.0820309967 0.167969003
vt 0.207030997 0.167969003
vt 0.00390599994 0.355468988
vt 0.121094003 0.503906012
vt 0.00390599994 0.503906012
vt 0.121094003 0.683593988
vt 0.00390599994 0.691406012
vt 0.121094003 0.816406012
vt 0.00390599994 0.808593988
vt 0.277343988 0.949218988
vt 0.246094003 0.902343988
vt 0.253906012 0.933593988
vt 0.238280997 0.941406012
vt 0.238280997 0.839843988
vt 0.207030997 0.839843988
vt 0.183594003 0.839843988
vt 0.175780997 0.792968988
vt 0.277343988 0.824218988
vt 0.253906012 0.738281012
vt 0.277343988 0.808593988
vt 0.246094003 0.753906012
vt 0.246094003 0.808593988
vt 0.246094003 0.917968988
vt 0.269531012 0.917968988
vt 0.222655997 0.808593988
vt 0.222655997 0.917968988
vt 0.230469003 0.996093988
vt 0.277343988 0.691406012
vt 0.207030997 0.925781012
vt 0.238280997 0.902343988
vt 0.199219003 0.707031012
vt 0.199219003 0.878906012
vt 0.175780997 0.980468988
vt 0.246094003 0.558593988
vt 0.175780997 0.746093988
vt 0.292968988 0.644531012
vt 0.207030997 0.550781012
vt 0.183594003 0.652343988
vt 0.128905997 0.863281012
vt 0.167969003 0.808593988
vt 0.246094003 0.550781012
vt 0.910156012 0.277343988
vt 0.996093988 0.230469003
vt 0.996093988 0.285156012
vt 0.886718988 0.269531012
vt 0.996093988 0.199219003
vt 0.894531012 0.191405997
vt 0.941406012 0.160155997
vt 0.996093988 0.152344003
vt 0.816406012 0.222655997
vt 0.855468988 0.160155997
vt 0.738281012 0.207030997
vt 0.777343988 0.253906012
vt 0.949218988 0.136719003
vt 0.910156012 0.144530997
vt 0.894531012 0.300781012
vt 0.933593988 0.457031012
vt 0.871093988 0.285156012
vt 0.996093988 0.457031012
vt 0.761718988 0.308593988
vt 0.847656012 0.457031012
vt 0.738281012 0.425781012
vt 0.761718988 0.472656012
vt 0.738281012 0.519531012
vt 0.847656012 0.542968988
vt 0.769531012 0.566406012
vt 0.847656012 0.636718988
vt 0.738281012 0.613281012
vt 0.792968988 0.738281012
vt 0.847656012 0.785156012
vt 0.792968988 0.738281012
vt 0.738281012 0.613281012
vt 0.769531012 0.566406012
vt 0.847656012 0.542968988
vt 0.738281012 0.519531012
vt 0.847656012 0.457031012
vt 0.761718988 0.472656012
vt 0.738281012 0.425781012
vt 0.761718988 0.308593988
vt 0.933593988 0.457031012
vt 0.871093988 0.285156012
vt 0.894531012 0.300781012
vt 0.910156012 0.277343988
vt 0.886718988 0.269531012
vt 0.894531012 0.191405997
vt 0.941406012 0.160155997
vt 0.816406012 0.222655997
vt 0.855468988 0.160155997
vt 0.738281012 0.207030997
vt 0.777343988 0.253906012
vt 0.949218988 0.136719003
vt 0.910156012 0.144530997
vt 0.824218988 0.160155997
vt 0.847656012 0.0820309967
vt 0.933593988 0.105469003
vt 0.949218988 0.0742190033
vt 0.847656012 0.00390599994
vt 0.738281012 0.00390599994
vt 0.738281012 0.105469003
vt 0.605468988 0.00390599994
vt 0.605468988 0.0976559967
vt 0.980468988 0.00390599994
vt 0.996093988 0.0195310004
vt 0.988281012 0.0820309967
vt 0.503906012 0.0976559967
vt 0.394531012 0.0585939996
vt 0.347656012 0.00390599994
vt 0.628906012 0.136719003
vt 0.785156012 0.167969003
vt 0.738281012 0.167969003
vt 0.675781012 0.160155997
vt 0.847656012 0.0820309967
vt 0.738281012 0.105469003
vt 0.605468988 0.0976559967
vt 0.394531012 0.0585939996
vt 0.503906012 0.0976559967
vt 0.628906012 0.136719003
vt 0.785156012 0.167969003
vt 0.738281012 0.167969003
vt 0.824218988 0.160155997
vt 0.933593988 0.105469003
vt 0.949218988 0.0742190033
vt 0.996093988 0.0195310004
vt 0.988281012 0.0820309967
vt 0.675781012 0.160155997
vt 0.488281012 0.660156012
vt 0.410156012 0.886718988
vt 0.410156012 0.660156012
vt 0.488281012 0.886718988
vt 0.410156012 0.886718988
vt 0.410156012 0.660156012
vt 0.449218988 0.863281012
vt 0.449218988 0.660156012
vt 0.410156012 0.535156012
vt 0.488281012 0.535156012
vt 0.410156012 0.535156012
vt 0.449218988 0.535156012
vt 0.488281012 0.675781012
vt 0.410156012 0.675781012
vt 0.449218988 0.675781012
vt 0.410156012 0.675781012
vt 0.410156012 0.792968988
vt 0.488281012 0.792968988
vt 0.449218988 0.792968988
vt 0.410156012 0.792968988
vt 0.410156012 0.886718988
vt 0.488281012 0.886718988
vt 0.410156012 0.886718988
vt 0.449218988 0.886718988
vt 0.410156012 0.894531012
vt 0.457031012 0.996093988
vt 0.488281012 0.894531012
vt 0.488281012 0.894531012
vt 0.410156012 0.894531012
vt 0.488281012 0.894531012
vt 0.457031012 0.996093988
vt 0.410156012 0.894531012
vt 0.488281012 0.894531012
vt 0.457031012 0.996093988
vt 0.488281012 0.894531012
vt 0.488281012 0.894531012
vt 0.410156012 0.894531012
vt 0.457031012 0.996093988
vt 0.488281012 0.894531012
vt 0.410156012 0.894531012
vt 0.488281012 0.894531012
vt 0.488281012 0.894531012
vt 0.457031012 0.996093988
vt 0.488281012 0.894531012
vt 0.410156012 0.894531012
vt 0.652343988 0.183594003
vt 0.730468988 0.386718988
vt 0.730468988 0.191405997
vt 0.660156012 0.402343988
vt 0.582031012 0.160155997
vt 0.730468988 0.527343988
vt 0.550781012 0.410156012
vt 0.660156012 0.519531012
vt 0.660156012 0.464843988
vt 0.597656012 0.160155997
vt 0.480468988 0.160155997
vt 0.652343988 0.222655997
vt 0.730468988 0.199219003
vt 0.660156012 0.449218988
vt 0.660156012 0.199219003
vt 0.558593988 0.339843988
vt 0.628906012 0.503906012
vt 0.636718988 0.433593988
vt 0.597656012 0.160155997
vt 0.488281012 0.160155997
vt 0.660156012 0.199219003
vt 0.730468988 0.347656012
vt 0.730468988 0.542968988
vt 0.730468988 0.230469003
vt 0.605468988 0.261718988
vt 0.730468988 0.425781012
vt 0.652343988 0.425781012
vt 0.730468988 0.175780997
vt 0.652343988 0.207030997
vt 0.652343988 0.425781012
vt 0.621093988 0.175780997
vt 0.691406012 0.527343988
vt 0.527343988 0.308593988
vt 0.628906012 0.503906012
vt 0.488281012 0.160155997
vt 0.917968988 0.894531012
vt 0.886718988 0.824218988
vt 0.855468988 0.894531012
vt 0.917968988 0.894531012
vt 0.871093988 0.949218988
vt 0.917968988 0.949218988
vt 0.917968988 0.972656012
vt 0.917968988 0.949218988
vt 0.917968988 0.972656012
vt 0.917968988 0.839843988
vt 0.917968988 0.769531012
vt 0.917968988 0.839843988
vt 0.917968988 0.996093988
vt 0.996093988 0.972656012
vt 0.972656012 0.949218988
vt 0.917968988 0.972656012
vt 0.972656012 0.949218988
vt 0.996093988 0.972656012
vt 0.917968988 0.996093988
vt 0.917968988 0.972656012
vt 0.917968988 0.894531012
vt 0.988281012 0.894531012
vt 0.957031012 0.839843988
vt 0.917968988 0.894531012
vt 0.917968988 0.839843988
vt 0.917968988 0.769531012
vt 0.917968988 0.839843988
vt 0.121094003 0.121094003
vt 0.230469003 0.00390599994
vt 0.00390599994 0.121094003
vt 0.207030997 0.121094003
vt 0.277343988 0.121094003
vt 0.207030997 0.167969003
vt 0.277343988 0.167969003
vt 0.378906012 0.121094003
vt 0.472656012 0.121094003
vt 0.277343988 0.121094003
vt 0.0820309967 0.121094003
vt 0.378906012 0.167969003
vt 0.121094003 0.167969003
vt 0.00390599994 0.167969003
vt 0.472656012 0.167969003
vt 0.121094003 0.121094003
vt 0.207030997 0.167969003
vt 0.0820309967 0.167969003
vt 0.121094003 0.121094003
vt 0.121094003 0.167969003
vt 0.207030997 0.121094003
vt 0.277343988 0.121094003
vt 0.207030997 0.167969003
vt 0.277343988 0.167969003
vt 0.378906012 0.121094003
vt 0.472656012 0.121094003
vt 0.277343988 0.121094003
vt 0.378906012 0.167969003
vt 0.472656012 0.167969003
vt 0.121094003 0.121094003
vt 0.207030997 0.167969003
vt 0.613281012 0.613281012
vt 0.496093988 0.613281012
vt 0.519531012 0.542968988
vt 0.519531012 0.542968988
vt 0.597656012 0.503906012
vt 0.683593988 0.542968988
vt 0.730468988 0.613281012
vt 0.683593988 0.542968988
vt 0.597656012 0.503906012
vt 0.0820309967 0.902343988
vt 0.0820309967 0.839843988
vt 0.00390599994 0.871093988
vt 0.0820309967 0.902343988
vt 0.269531012 0.839843988
vt 0.269531012 0.902343988
vt 0.347656012 0.902343988
vt 0.269531012 0.902343988
vt 0.0664059967 0.886718988
vt 0.0664059967 0.855468988
vt 0.253906012 0.863281012
vt 0.253906012 0.878906012
vt 0.347656012 0.871093988
vt 0.0351560004 0.894531012
vt 0.0351560004 0.824218988
vt 0.00390599994 0.871093988
vt 0.324218988 0.894531012
vt 0.0351560004 0.824218988
vt 0.128905997 0.816406012
vt 0.199219003 0.902343988
vt 0.00390599994 0.902343988
vt 0.339843988 0.902343988
vt 0.199219003 0.902343988
vt 0.160155997 0.902343988
vt 0.355468988 0.902343988
vt 0.160155997 0.816406012
vt 0.00390599994 0.902343988
vt 0.160155997 0.816406012
vt 0.167969003 0.886718988
vt 0.167969003 0.808593988
vt 0.00390599994 0.878906012
vt 0.339843988 0.902343988
vt 0.167969003 0.816406012
vt 0.167969003 0.816406012
vt 0.167969003 0.886718988
vt 0.0117189996 0.878906012
vt 0.167969003 0.824218988
vt 0.324218988 0.894531012
vt 0.152344003 0.894531012
vt 0.152344003 0.839843988
vt 0.00390599994 0.886718988
vt 0.332031012 0.894531012
vt 0.152344003 0.839843988
vt 0.00390599994 0.878906012
vt 0.207030997 0.902343988
vt 0.128905997 0.824218988
vt 0.355468988 0.902343988
vt 0.214844003 0.824218988
vt 0.00390599994 0.878906012
vt 0.128905997 0.832031012
vt 0.128905997 0.902343988
vt 0.128905997 0.832031012
vt 0.347656012 0.902343988
vt 0.00390599994 0.894531012
vt 0.167969003 0.886718988
vt 0.167969003 0.824218988
vt 0.339843988 0.902343988
vt 0.167969003 0.816406012
vt 0.175780997 0.894531012
vt 0.121094003 0.339843988
vt 0.121094003 0.464843988
vt 0.277343988 0.457031012
vt 0.238280997 0.355468988
vt 0.277343988 0.277343988
vt 0.347656012 0.324218988
vt 0.199219003 0.308593988
vt 0.121094003 0.644531012
vt 0.277343988 0.167969003
vt 0.207030997 0.261718988
vt 0.207030997 0.167969003
vt 0.121094003 0.261718988
vt 0.121094003 0.167969003
vt 0.378906012 0.167969003
vt 0.347656012 0.464843988
vt 0.410156012 0.386718988
vt 0.402343988 0.527343988
vt 0.464843988 0.527343988
vt 0.402343988 0.636718988
vt 0.347656012 0.628906012
vt 0.113280997 0.816406012
vt 0.347656012 0.785156012
vt 0.402343988 0.761718988
vt 0.277343988 0.636718988
vt 0.402343988 0.886718988
vt 0.347656012 0.933593988
vt 0.121094003 0.972656012
vt 0.347656012 0.699218988
vt 0.402343988 0.730468988
vt 0.347656012 0.464843988
vt 0.277343988 0.488281012
vt 0.277343988 0.386718988
vt 0.121094003 0.363281012
vt 0.511718988 0.386718988
vt 0.402343988 0.527343988
vt 0.386718988 0.292968988
vt 0.472656012 0.285156012
vt 0.511718988 0.527343988
vt 0.472656012 0.167969003
vt 0.167969003 0.246094003
vt 0.207030997 0.167969003
vt 0.121094003 0.503906012
vt 0.121094003 0.683593988
vt 0.121094003 0.816406012
vt 0.277343988 0.949218988
vt 0.246094003 0.902343988
vt 0.253906012 0.933593988
vt 0.238280997 0.941406012
vt 0.238280997 0.839843988
vt 0.207030997 0.839843988
vt 0.183594003 0.839843988
vt 0.175780997 0.792968988
vt 0.277343988 0.824218988
vt 0.253906012 0.738281012
vt 0.277343988 0.808593988
vt 0.246094003 0.753906012
vt 0.246094003 0.808593988
vt 0.246094003 0.917968988
vt 0.269531012 0.917968988
vt 0.222655997 0.808593988
vt 0.222655997 0.917968988
vt 0.230469003 0.996093988
vt 0.277343988 0.691406012
vt 0.207030997 0.925781012
vt 0.238280997 0.902343988
vt 0.199219003 0.707031012
vt 0.199219003 0.878906012
vt 0.175780997 0.980468988
vt 0.246094003 0.558593988
vt 0.175780997 0.746093988
vt 0.292968988 0.644531012
vt 0.207030997 0.550781012
vt 0.183594003 0.652343988
vt 0.128905997 0.863281012
vt 0.167969003 0.808593988
vt 0.246094003 0.550781012
vt 0.410156012 0.660156012
vt 0.410156012 0.886718988
vt 0.488281012 0.660156012
vt 0.488281012 0.886718988
vt 0.410156012 0.886718988
vt 0.410156012 0.660156012
vt 0.449218988 0.863281012
vt 0.449218988 0.660156012
vt 0.410156012 0.535156012
vt 0.488281012 0.535156012
vt 0.410156012 0.535156012
vt 0.449218988 0.535156012
vt 0.488281012 0.675781012
vt 0.410156012 0.675781012
vt 0.449218988 0.675781012
vt 0.410156012 0.675781012
vt 0.410156012 0.792968988
vt 0.488281012 0.792968988
vt 0.449218988 0.792968988
vt 0.410156012 0.792968988
vt 0.410156012 0.886718988
vt 0.488281012 0.886718988
vt 0.410156012 0.886718988
vt 0.449218988 0.886718988
vt 0.730468988 0.191405997
vt 0.730468988 0.386718988
vt 0.652343988 0.183594003
vt 0.660156012 0.402343988
vt 0.582031012 0.160155997
vt 0.730468988 0.527343988
vt 0.550781012 0.410156012
vt 0.660156012 0.519531012
vt 0.660156012 0.464843988
vt 0.597656012 0.160155997
vt 0.480468988 0.160155997
vt 0.652343988 0.222655997
vt 0.730468988 0.199219003
vt 0.660156012 0.199219003
vt 0.660156012 0.449218988
vt 0.558593988 0.339843988
vt 0.628906012 0.503906012
vt 0.636718988 0.433593988
vt 0.597656012 0.160155997
vt 0.488281012 0.160155997
vt 0.660156012 0.199219003
vt 0.730468988 0.347656012
vt 0.730468988 0.542968988
vt 0.730468988 0.230469003
vt 0.652343988 0.425781012
vt 0.730468988 0.425781012
vt 0.605468988 0.261718988
vt 0.730468988 0.175780997
vt 0.652343988 0.207030997
vt 0.652343988 0.425781012
vt 0.621093988 0.175780997
vt 0.691406012 0.527343988
vt 0.527343988 0.308593988
vt 0.628906012 0.503906012
vt 0.488281012 0.160155997
vt 0.855468988 0.894531012
vt 0.886718988 0.824218988
vt 0.917968988 0.894531012
vt 0.917968988 0.894531012
vt 0.871093988 0.949218988
vt 0.917968988 0.949218988
vt 0.917968988 0.972656012
vt 0.917968988 0.949218988
vt 0.917968988 0.972656012
vt 0.917968988 0.839843988
vt 0.917968988 0.769531012
vt 0.917968988 0.839843988
vt 0.996093988 0.972656012
vt 0.917968988 0.996093988
vt 0.972656012 0.949218988
vt 0.972656012 0.949218988
vt 0.917968988 0.972656012
vt 0.996093988 0.972656012
vt 0.917968988 0.996093988
vt 0.917968988 0.972656012
vt 0.917968988 0.894531012
vt 0.988281012 0.894531012
vt 0.957031012 0.839843988
vt 0.917968988 0.894531012
vt 0.917968988 0.839843988
vt 0.917968988 0.769531012
vt 0.917968988 0.839843988
vt 0.519531012 0.542968988
vt 0.496093988 0.613281012
vt 0.613281012 0.613281012
vt 0.519531012 0.542968988
vt 0.597656012 0.503906012
vt 0.683593988 0.542968988
vt 0.730468988 0.613281012
vt 0.683593988 0.542968988
vt 0.597656012 0.503906012
vt 0.902343988 0.714843988
vt 0.902343988 0.714843988
vt 0.902343988 0.714843988
vt 0.902343988 0.714843988
vt 0.902343988 0.714843988
vt 0.902343988 0.714843988
vt 0.902343988 0.714843988
vt 0.902343988 0.714843988
vt 0.902343988 0.714843988
vt 0.871093988 0.996093988
vt 0.644531012 0.996093988
vt 0.691406012 0.832031012
vt 0.808593988 0.832031012
vt 0.644531012 0.996093988
vt 0.691406012 0.832031012
vt 0.808593988 0.832031012
vt 0.871093988 0.996093988
vt 0.691406012 0.832031012
vt 0.644531012 0.996093988
vt 0.753906012 0.691406012
vt 0.808593988 0.832031012
vt 0.871093988 0.996093988
vt 0.691406012 0.832031012
vt 0.644531012 0.996093988
vt 0.871093988 0.996093988
vt 0.808593988 0.832031012
vt 0.871093988 0.738281012
vt 0.871093988 0.738281012
vt 0.871093988 0.738281012
vt 0.871093988 0.738281012
vt 0.871093988 0.738281012
vt 0.871093988 0.738281012
vt 0.871093988 0.738281012
vt 0.871093988 0.738281012
vt 0.871093988 0.738281012
vt 0.871093988 0.738281012
vt 0.878906012 0.707031012
vt 0.972656012 0.464843988
vt 0.855468988 0.464843988
vt 0.972656012 0.464843988
vt 0.878906012 0.707031012
vt 0.855468988 0.464843988
vt 0.972656012 0.464843988
vt 0.878906012 0.707031012
vt 0.855468988 0.464843988
vt 0.972656012 0.464843988
vt 0.855468988 0.464843988
vt 0.878906012 0.707031012
vt 0.972656012 0.464843988
vt 0.855468988 0.464843988
vt 0.878906012 0.707031012
vt 0.855468988 0.464843988
vt 0.855468988 0.707031012
vt 0.996093988 0.464843988
vt 0.996093988 0.464843988
vt 0.855468988 0.464843988
vt 0.855468988 0.707031012
vt 0.996093988 0.464843988
vt 0.855468988 0.464843988
vt 0.855468988 0.707031012
vt 0.996093988 0.464843988
vt 0.855468988 0.707031012
vt 0.855468988 0.464843988
vt 0.996093988 0.464843988
vt 0.855468988 0.707031012
vt 0.855468988 0.464843988
vt 0.542968988 0.144530997
vt 0.613281012 0.144530997
vt 0.613281012 0.144530997
vt 0.542968988 0.144530997
vt 0.480468988 0.144530997
vt 0.542968988 0.144530997
vt 0.542968988 0.144530997
vt 0.613281012 0.144530997
vt 0.613281012 0.144530997
vt 0.542968988 0.144530997
vt 0.613281012 0.144530997
vt 0.613281012 0.144530997
vt 0.511718988 0.144530997
vt 0.613281012 0.144530997
vt 0.511718988 0.144530997
vt 0.511718988 0.136719003
vt 0.480468988 0.136719003
vt 0.480468988 0.136719003
vt 0.511718988 0.136719003
vt 0.613281012 0.136719003
vt 0.613281012 0.136719003
vt 0.613281012 0.136719003
vt 0.878906012 0.714843988
vt 0.996093988 0.824218988
vt 0.996093988 0.714843988
vt 0.996093988 0.824218988
vt 0.878906012 0.714843988
vt 0.628906012 0.988281012
vt 0.636718988 0.628906012
vt 0.503906012 0.996093988
vt 0.636718988 0.628906012
vt 0.496093988 0.628906012
vt 0.636718988 0.628906012
vt 0.628906012 0.988281012
vt 0.636718988 0.628906012
vt 0.496093988 0.628906012
vt 0.566406012 0.902343988
vt 0.503906012 0.949218988
vt 0.503906012 0.691406012
vt 0.550781012 0.683593988
vt 0.589843988 0.667968988
vt 0.652343988 0.824218988
vt 0.566406012 0.730468988
vt 0.574218988 0.996093988
vt 0.503906012 0.996093988
vt 0.597656012 0.691406012
vt 0.699218988 0.753906012
vt 0.667968988 0.660156012
vt 0.589843988 0.636718988
vt 0.566406012 0.902343988
vt 0.550781012 0.683593988
vt 0.589843988 0.667968988
vt 0.652343988 0.824218988
vt 0.574218988 0.996093988
vt 0.566406012 0.730468988
vt 0.597656012 0.691406012
vt 0.699218988 0.753906012
vt 0.667968988 0.660156012
vt 0.589843988 0.636718988
vt 0.714843988 0.628906012
vt 0.542968988 0.917968988
vt 0.621093988 0.644531012
vt 0.589843988 0.628906012
vt 0.503906012 0.957031012
vt 0.566406012 0.996093988
vt 0.636718988 0.949218988
vt 0.542968988 0.917968988
vt 0.636718988 0.949218988
vt 0.589843988 0.628906012
vt 0.496093988 0.628906012
vt 0.566406012 0.996093988
vt 0.503906012 0.957031012
vt 0.542968988 0.917968988
vt 0.503906012 0.957031012
vt 0.589843988 0.628906012
vt 0.714843988 0.628906012
vt 0.566406012 0.996093988
vt 0.636718988 0.949218988
vt 0.503906012 0.832031012
vt 0.652343988 0.816406012
vt 0.496093988 0.628906012
vt 0.519531012 0.996093988
vt 0.652343988 0.816406012
vt 0.628906012 0.996093988
vt 0.496093988 0.628906012
vt 0.496093988 0.996093988
vt 0.636718988 0.628906012
vt 0.496093988 0.628906012
vt 0.496093988 0.996093988
vt 0.636718988 0.628906012
vt 0.628906012 0.996093988
vt 0.871093988 0.738281012
vt 0.871093988 0.738281012
vt 0.871093988 0.738281012
vt 0.871093988 0.738281012
vt 0.871093988 0.738281012
vt 0.871093988 0.738281012
vt 0.871093988 0.738281012
vt 0.871093988 0.738281012
vt 0.871093988 0.738281012
vt 0.871093988 0.738281012
vt 0.613281012 0.144530997
vt 0.613281012 0.144530997
vt 0.542968988 0.144530997
vt 0.542968988 0.144530997
vt 0.480468988 0.144530997
vt 0.542968988 0.144530997
vt 0.542968988 0.144530997
vt 0.613281012 0.144530997
vt 0.613281012 0.144530997
vt 0.542968988 0.144530997
vt 0.613281012 0.144530997
vt 0.613281012 0.144530997
vt 0.511718988 0.144530997
vt 0.613281012 0.144530997
vt 0.511718988 0.144530997
vt 0.480468988 0.136719003
vt 0.480468988 0.136719003
vt 0.511718988 0.136719003
vt 0.511718988 0.136719003
vt 0.613281012 0.136719003
vt 0.613281012 0.136719003
vt 0.613281012 0.136719003
vt 0.996093988 0.714843988
vt 0.996093988 0.824218988
vt 0.878906012 0.714843988
vt 0.996093988 0.824218988
vt 0.878906012 0.714843988
vt 0.503906012 0.996093988
vt 0.636718988 0.628906012
vt 0.628906012 0.988281012
vt 0.636718988 0.628906012
vt 0.496093988 0.628906012
vt 0.636718988 0.628906012
vt 0.628906012 0.988281012
vt 0.636718988 0.628906012
vt 0.496093988 0.628906012
vt 0.621093988 0.644531012
vt 0.542968988 0.917968988
vt 0.714843988 0.628906012
vt 0.589843988 0.628906012
vt 0.503906012 0.957031012
vt 0.566406012 0.996093988
vt 0.636718988 0.949218988
vt 0.636718988 0.949218988
vt 0.542968988 0.917968988
vt 0.589843988 0.628906012
vt 0.496093988 0.628906012
vt 0.566406012 0.996093988
vt 0.503906012 0.957031012
vt 0.503906012 0.957031012
vt 0.542968988 0.917968988
vt 0.589843988 0.628906012
vt 0.714843988 0.628906012
vt 0.566406012 0.996093988
vt 0.636718988 0.949218988
vt 0.496093988 0.996093988
vt 0.496093988 0.628906012
vt 0.628906012 0.996093988
vt 0.636718988 0.628906012
vt 0.496093988 0.628906012
vt 0.496093988 0.996093988
vt 0.636718988 0.628906012
vt 0.628906012 0.996093988
g M_0020_0
usemtl n_M_0020_05
f 3/3/3 2/2/2 1/1/1
f 4/4/4 3/3/3 1/1/1
f 1/1/1 2/2/2 5/5/5
f 5/5/5 2/2/2 6/6/6
f 6/6/6 7/7/7 5/5/5
f 7/7/7 8/8/8 5/5/5
f 9/9/9 7/7/7 6/6/6
f 2/2/2 9/9/9 6/6/6
f 4/4/4 1/1/1 10/10/10
f 11/11/11 4/4/4 10/10/10
f 7/7/7 12/12/12 8/8/8
f 13/13/13 12/12/12 7/7/7
f 2/2/2 13/13/13 9/9/9
f 13/13/13 7/7/7 9/9/9
f 13/13/13 14/14/14 12/12/12
f 15/15/15 14/14/14 13/13/13
f 15/15/15 13/13/13 2/2/2
f 16/16/16 14/14/14 15/15/15
f 17/17/17 16/16/16 15/15/15
f 17/17/17 15/15/15 2/2/2
f 3/3/3 17/17/17 2/2/2
f 18/18/18 16/16/16 17/17/17
f 12/12/12 19/19/19 8/8/8
f 5/5/5 8/8/8 20/20/20
f 20/20/20 8/8/8 21/21/21
f 20/20/20 21/21/21 22/22/22
f 22/22/22 21/21/21 23/23/23
f 20/20/20 22/22/22 24/24/24
f 25/25/25 20/20/20 24/24/24
f 11/11/11 10/10/10 26/26/26
f 27/27/27 11/11/11 26/26/26
f 25/25/25 24/24/24 28/28/28
f 28/28/28 24/24/24 29/29/29
f 5/5/5 20/20/20 25/25/25
f 30/30/30 5/5/5 25/25/25
f 30/30/30 25/25/25 28/28/28
f 1/1/1 5/5/5 30/30/30
f 10/10/10 1/1/1 30/30/30
f 29/29/29 31/31/31 28/28/28
f 28/28/28 31/31/31 32/32/32
f 26/26/26 33/33/33 27/27/27
f 27/27/27 33/33/33 34/34/34
f 31/31/31 35/35/35 32/32/32
f 31/31/31 36/36/36 35/35/35
f 36/36/36 37/37/37 35/35/35
f 35/35/35 37/37/37 38/38/38
f 37/37/37 39/39/39 38/38/38
f 39/39/39 40/40/40 38/38/38
f 41/41/41 39/39/39 37/37/37
f 42/42/42 37/37/37 36/36/36
f 41/41/41 43/43/43 39/39/39
f 44/44/44 43/43/43 41/41/41
f 21/21/21 44/44/44 41/41/41
f 8/8/8 44/44/44 21/21/21
f 21/21/21 41/41/41 45/45/45
f 45/45/45 41/41/41 37/37/37
f 45/45/45 37/37/37 42/42/42
f 23/23/23 21/21/21 45/45/45
f 8/8/8 46/46/46 44/44/44
f 19/19/19 46/46/46 8/8/8
f 39/39/39 47/47/47 40/40/40
f 43/43/43 47/47/47 39/39/39
f 44/44/44 47/47/47 43/43/43
f 47/47/47 48/48/48 40/40/40
f 47/47/47 49/49/49 48/48/48
f 47/47/47 50/50/50 49/49/49
f 46/46/46 50/50/50 44/44/44
f 44/44/44 50/50/50 47/47/47
f 40/40/40 48/48/48 51/51/51
f 40/40/40 51/51/51 52/52/52
f 52/52/52 51/51/51 53/53/53
f 54/54/54 52/52/52 53/53/53
f 54/54/54 53/53/53 55/55/55
f 56/56/56 54/54/54 55/55/55
f 56/56/56 55/55/55 57/57/57
f 33/33/33 56/56/56 57/57/57
f 33/33/33 57/57/57 34/34/34
f 33/33/33 58/58/58 56/56/56
f 59/59/59 58/58/58 33/33/33
f 59/59/59 58/58/58 60/60/60
f 60/60/60 61/61/61 59/59/59
f 58/58/58 62/62/62 60/60/60
f 60/60/60 63/63/63 61/61/61
f 60/60/60 62/62/62 63/63/63
f 63/63/63 64/64/64 61/61/61
f 64/64/64 62/62/62 58/58/58
f 61/61/61 64/64/64 58/58/58
f 63/63/63 62/62/62 65/65/65
f 65/65/65 62/62/62 64/64/64
f 65/65/65 64/64/64 63/63/63
f 58/58/58 66/66/66 56/56/56
f 66/66/66 67/67/67 56/56/56
f 56/56/56 67/67/67 54/54/54
f 58/58/58 32/32/32 66/66/66
f 32/32/32 35/35/35 66/66/66
f 26/26/26 59/59/59 33/33/33
f 68/68/68 32/32/32 58/58/58
f 68/68/68 59/59/59 26/26/26
f 68/68/68 58/58/58 59/59/59
f 28/28/28 32/32/32 68/68/68
f 30/30/30 28/28/28 68/68/68
f 69/69/69 68/68/68 26/26/26
f 69/69/69 30/30/30 68/68/68
f 69/69/69 68/68/68 70/70/70
f 70/70/70 68/68/68 71/71/71
f 71/71/71 68/68/68 72/72/72
f 71/71/71 73/73/73 70/70/70
f 73/73/73 69/69/69 70/70/70
f 72/72/72 68/68/68 73/73/73
f 74/74/74 73/73/73 71/71/71
f 72/72/72 73/73/73 74/74/74
f 71/71/71 72/72/72 75/75/75
f 75/75/75 72/72/72 74/74/74
f 75/75/75 74/74/74 71/71/71
f 10/10/10 69/69/69 26/26/26
f 10/10/10 30/30/30 69/69/69
f 66/66/66 35/35/35 76/76/76
f 35/35/35 38/38/38 76/76/76
f 66/66/66 76/76/76 67/67/67
f 76/76/76 77/77/77 67/67/67
f 76/76/76 78/78/78 77/77/77
f 67/67/67 77/77/77 79/79/79
f 79/79/79 78/78/78 76/76/76
f 77/77/77 80/80/80 79/79/79
f 80/80/80 78/78/78 79/79/79
f 77/77/77 78/78/78 81/81/81
f 81/81/81 80/80/80 77/77/77
f 81/81/81 78/78/78 80/80/80
f 67/67/67 76/76/76 54/54/54
f 76/76/76 82/82/82 54/54/54
f 76/76/76 38/38/38 82/82/82
f 38/38/38 83/83/83 82/82/82
f 38/38/38 84/84/84 83/83/83
f 82/82/82 83/83/83 85/85/85
f 83/83/83 86/86/86 85/85/85
f 84/84/84 87/87/87 83/83/83
f 86/86/86 87/87/87 84/84/84
f 83/83/83 88/88/88 86/86/86
f 89/89/89 86/86/86 84/84/84
f 89/89/89 84/84/84 38/38/38
f 82/82/82 52/52/52 54/54/54
f 82/82/82 38/38/38 52/52/52
f 38/38/38 40/40/40 52/52/52
f 92/92/92 91/91/91 90/90/90
f 90/90/90 91/91/91 93/93/93
f 91/91/91 94/94/94 93/93/93
f 94/94/94 95/95/95 93/93/93
f 94/94/94 96/96/96 95/95/95
f 94/94/94 97/97/97 96/96/96
f 93/93/93 95/95/95 98/98/98
f 95/95/95 99/99/99 98/98/98
f 99/99/99 100/100/100 98/98/98
f 98/98/98 100/100/100 101/101/101
f 97/97/97 102/102/102 96/96/96
f 96/96/96 103/103/103 95/95/95
f 92/92/92 90/90/90 104/104/104
f 92/92/92 104/104/104 105/105/105
f 104/104/104 106/106/106 105/105/105
f 106/106/106 98/98/98 101/101/101
f 93/93/93 98/98/98 106/106/106
f 107/107/107 92/92/92 105/105/105
f 106/106/106 108/108/108 105/105/105
f 106/106/106 101/101/101 108/108/108
f 105/105/105 108/108/108 109/109/109
f 108/108/108 110/110/110 109/109/109
f 109/109/109 110/110/110 111/111/111
f 111/111/111 112/112/112 109/109/109
f 109/109/109 112/112/112 113/113/113
f 113/113/113 112/112/112 114/114/114
f 113/113/113 114/114/114 115/115/115
f 114/114/114 116/116/116 115/115/115
f 116/116/116 117/117/117 115/115/115
f 117/117/117 118/118/118 115/115/115
f 115/115/115 118/118/118 119/119/119
f 115/115/115 119/119/119 120/120/120
f 115/115/115 120/120/120 121/121/121
f 115/115/115 121/121/121 122/122/122
f 121/121/121 123/123/123 122/122/122
f 122/122/122 123/123/123 124/124/124
f 124/124/124 123/123/123 125/125/125
f 125/125/125 126/126/126 124/124/124
f 124/124/124 126/126/126 127/127/127
f 124/124/124 127/127/127 128/128/128
f 128/128/128 127/127/127 129/129/129
f 128/128/128 129/129/129 130/130/130
f 128/128/128 130/130/130 92/92/92
f 128/128/128 92/92/92 107/107/107
f 130/130/130 131/131/131 92/92/92
f 131/131/131 91/91/91 92/92/92
f 132/132/132 91/91/91 131/131/131
f 132/132/132 94/94/94 91/91/91
f 132/132/132 133/133/133 94/94/94
f 133/133/133 134/134/134 94/94/94
f 134/134/134 97/97/97 94/94/94
f 135/135/135 133/133/133 132/132/132
f 129/129/129 135/135/135 132/132/132
f 135/135/135 136/136/136 133/133/133
f 135/135/135 137/137/137 136/136/136
f 138/138/138 137/137/137 135/135/135
f 138/138/138 135/135/135 129/129/129
f 134/134/134 139/139/139 97/97/97
f 133/133/133 140/140/140 134/134/134
f 127/127/127 138/138/138 129/129/129
f 143/143/143 142/142/142 141/141/141
f 144/144/144 142/142/142 143/143/143
f 144/144/144 145/145/145 142/142/142
f 142/142/142 145/145/145 146/146/146
f 142/142/142 146/146/146 147/147/147
f 146/146/146 148/148/148 147/147/147
f 147/147/147 148/148/148 149/149/149
f 150/150/150 145/145/145 144/144/144
f 150/150/150 144/144/144 151/151/151
f 151/151/151 144/144/144 152/152/152
f 149/149/149 148/148/148 153/153/153
f 153/153/153 148/148/148 154/154/154
f 154/154/154 148/148/148 155/155/155
f 147/147/147 149/149/149 156/156/156
f 142/142/142 157/157/157 141/141/141
f 147/147/147 157/157/157 142/142/142
f 158/158/158 157/157/157 147/147/147
f 156/156/156 159/159/159 147/147/147
f 147/147/147 159/159/159 158/158/158
f 146/146/146 145/145/145 160/160/160
f 161/161/161 146/146/146 160/160/160
f 161/161/161 148/148/148 146/146/146
f 162/162/162 148/148/148 161/161/161
f 155/155/155 148/148/148 163/163/163
f 163/163/163 148/148/148 164/164/164
f 164/164/164 148/148/148 162/162/162
f 165/165/165 162/162/162 161/161/161
f 160/160/160 166/166/166 161/161/161
f 161/161/161 166/166/166 167/167/167
f 168/168/168 166/166/166 160/160/160
f 168/168/168 160/160/160 169/169/169
f 169/169/169 160/160/160 170/170/170
f 160/160/160 145/145/145 170/170/170
f 170/170/170 145/145/145 150/150/150
f 171/171/171 170/170/170 150/150/150
f 172/172/172 170/170/170 171/171/171
f 161/161/161 173/173/173 165/165/165
f 167/167/167 173/173/173 161/161/161
f 176/176/176 175/175/175 174/174/174
f 174/174/174 175/175/175 177/177/177
f 177/177/177 178/178/178 174/174/174
f 174/174/174 178/178/178 179/179/179
f 178/178/178 180/180/180 179/179/179
f 176/176/176 180/180/180 175/175/175
f 179/179/179 180/180/180 181/181/181
f 181/181/181 180/180/180 176/176/176
f 174/174/174 179/179/179 182/182/182
f 183/183/183 174/174/174 182/182/182
f 184/184/184 176/176/176 174/174/174
f 184/184/184 174/174/174 183/183/183
f 184/184/184 181/181/181 176/176/176
f 185/185/185 181/181/181 184/184/184
f 179/179/179 181/181/181 185/185/185
f 182/182/182 179/179/179 185/185/185
f 186/186/186 184/184/184 183/183/183
f 186/186/186 183/183/183 182/182/182
f 186/186/186 182/182/182 187/187/187
f 188/188/188 185/185/185 184/184/184
f 187/187/187 182/182/182 188/188/188
f 182/182/182 185/185/185 188/188/188
f 188/188/188 184/184/184 189/189/189
f 189/189/189 184/184/184 186/186/186
f 186/186/186 187/187/187 190/190/190
f 187/187/187 188/188/188 190/190/190
f 191/191/191 186/186/186 190/190/190
f 192/192/192 188/188/188 189/189/189
f 190/190/190 188/188/188 192/192/192
f 192/192/192 189/189/189 193/193/193
f 193/193/193 186/186/186 191/191/191
f 193/193/193 189/189/189 186/186/186
f 194/194/194 192/192/192 193/193/193
f 194/194/194 193/193/193 191/191/191
f 191/191/191 190/190/190 195/195/195
f 195/195/195 194/194/194 191/191/191
f 190/190/190 196/196/196 195/195/195
f 197/197/197 192/192/192 194/194/194
f 190/190/190 197/197/197 196/196/196
f 190/190/190 192/192/192 197/197/197
f 200/200/200 199/199/199 198/198/198
f 199/199/199 201/201/201 198/198/198
f 202/202/202 199/199/199 200/200/200
f 202/202/202 201/201/201 199/199/199
f 198/198/198 204/204/204 203/203/203
f 203/203/203 204/204/204 205/205/205
f 205/205/205 204/204/204 206/206/206
f 208/208/208 207/207/207 205/205/205
f 205/205/205 207/207/207 209/209/209
f 209/209/209 207/207/207 210/210/210
f 210/210/210 207/207/207 208/208/208
f 212/212/212 211/211/211 202/202/202
f 213/213/213 211/211/211 212/212/212
f 214/214/214 211/211/211 213/213/213
f 213/213/213 216/216/216 215/215/215
f 217/217/217 216/216/216 213/213/213
f 218/218/218 216/216/216 217/217/217
f 215/215/215 216/216/216 218/218/218
f 221/221/221 220/220/220 219/219/219
f 219/219/219 220/220/220 222/222/222
f 219/219/219 222/222/222 223/223/223
f 222/222/222 220/220/220 224/224/224
f 223/223/223 222/222/222 225/225/225
f 222/222/222 226/226/226 225/225/225
f 226/226/226 227/227/227 225/225/225
f 224/224/224 220/220/220 227/227/227
f 225/225/225 227/227/227 228/228/228
f 229/229/229 225/225/225 228/228/228
f 223/223/223 225/225/225 229/229/229
f 228/228/228 227/227/227 230/230/230
f 230/230/230 227/227/227 231/231/231
f 227/227/227 220/220/220 231/231/231
f 228/228/228 233/233/233 232/232/232
f 228/228/228 232/232/232 234/234/234
f 234/234/234 232/232/232 235/235/235
f 235/235/235 236/236/236 234/234/234
f 234/234/234 236/236/236 237/237/237
f 238/238/238 234/234/234 237/237/237
f 228/228/228 234/234/234 238/238/238
f 236/236/236 239/239/239 237/237/237
f 240/240/240 239/239/239 236/236/236
f 233/233/233 240/240/240 232/232/232
f 241/241/241 240/240/240 236/236/236
f 232/232/232 240/240/240 241/241/241
f 240/240/240 242/242/242 239/239/239
f 233/233/233 242/242/242 240/240/240
f 245/245/245 244/244/244 243/243/243
f 244/244/244 246/246/246 243/243/243
f 247/247/247 246/246/246 244/244/244
f 247/247/247 244/244/244 248/248/248
f 249/249/249 247/247/247 248/248/248
f 250/250/250 244/244/244 245/245/245
f 248/248/248 244/244/244 250/250/250
f 249/249/249 248/248/248 251/251/251
f 245/245/245 243/243/243 251/251/251
f 252/252/252 245/245/245 251/251/251
f 251/251/251 248/248/248 252/252/252
f 249/249/249 251/251/251 253/253/253
f 251/251/251 243/243/243 253/253/253
f 256/256/256 255/255/255 254/254/254
f 257/257/257 255/255/255 256/256/256
f 258/258/258 257/257/257 256/256/256
f 256/256/256 254/254/254 258/258/258
f 259/259/259 257/257/257 258/258/258
f 260/260/260 259/259/259 258/258/258
f 258/258/258 254/254/254 261/261/261
f 258/258/258 261/261/261 262/262/262
f 257/257/257 263/263/263 255/255/255
f 263/263/263 264/264/264 255/255/255
f 255/255/255 265/265/265 254/254/254
f 255/255/255 264/264/264 265/265/265
f 267/267/267 262/262/262 266/266/266
f 266/266/266 260/260/260 267/267/267
f 268/268/268 262/262/262 267/267/267
f 267/267/267 260/260/260 268/268/268
f 261/261/261 270/270/270 269/269/269
f 270/270/270 271/271/271 269/269/269
f 269/269/269 271/271/271 272/272/272
f 273/273/273 270/270/270 259/259/259
f 273/273/273 271/271/271 270/270/270
f 272/272/272 271/271/271 273/273/273
f 259/259/259 270/270/270 274/274/274
f 270/270/270 275/275/275 274/274/274
f 275/275/275 276/276/276 274/274/274
f 277/277/277 276/276/276 275/275/275
f 277/277/277 275/275/275 270/270/270
f 277/277/277 270/270/270 261/261/261
f 278/278/278 276/276/276 277/277/277
f 278/278/278 279/279/279 276/276/276
f 274/274/274 276/276/276 280/280/280
f 276/276/276 279/279/279 280/280/280
f 283/283/283 282/282/282 281/281/281
f 282/282/282 284/284/284 281/281/281
f 285/285/285 284/284/284 282/282/282
f 286/286/286 284/284/284 285/285/285
f 286/286/286 285/285/285 287/287/287
f 282/282/282 288/288/288 285/285/285
f 289/289/289 288/288/288 282/282/282
f 282/282/282 290/290/290 289/289/289
f 291/291/291 290/290/290 282/282/282
f 285/285/285 292/292/292 287/287/287
f 285/285/285 288/288/288 292/292/292
f 293/293/293 284/284/284 286/286/286
f 281/281/281 284/284/284 293/293/293
f 283/283/283 281/281/281 294/294/294
f 294/294/294 281/281/281 293/293/293
f 292/292/292 288/288/288 295/295/295
f 295/295/295 288/288/288 289/289/289
f 289/289/289 296/296/296 295/295/295
f 295/295/295 296/296/296 297/297/297
f 298/298/298 296/296/296 291/291/291
f 297/297/297 296/296/296 298/298/298
f 294/294/294 299/299/299 283/283/283
f 300/300/300 299/299/299 294/294/294
f 300/300/300 301/301/301 299/299/299
f 299/299/299 301/301/301 282/282/282
f 299/299/299 282/282/282 283/283/283
f 282/282/282 301/301/301 302/302/302
f 302/302/302 301/301/301 303/303/303
f 303/303/303 301/301/301 300/300/300
f 304/304/304 302/302/302 303/303/303
f 302/302/302 305/305/305 282/282/282
f 282/282/282 305/305/305 306/306/306
f 306/306/306 307/307/307 282/282/282
f 282/282/282 307/307/307 291/291/291
f 304/304/304 308/308/308 302/302/302
f 308/308/308 305/305/305 302/302/302
f 309/309/309 305/305/305 308/308/308
f 306/306/306 305/305/305 309/309/309
f 309/309/309 310/310/310 306/306/306
f 291/291/291 310/310/310 298/298/298
f 311/311/311 310/310/310 309/309/309
f 298/298/298 310/310/310 311/311/311
f 314/314/314 313/313/313 312/312/312
f 312/312/312 313/313/313 315/315/315
f 316/316/316 314/314/314 312/312/312
f 317/317/317 316/316/316 312/312/312
f 317/317/317 312/312/312 318/318/318
f 318/318/318 312/312/312 319/319/319
f 312/312/312 320/320/320 319/319/319
f 312/312/312 315/315/315 320/320/320
f 323/323/323 322/322/322 321/321/321
f 324/324/324 322/322/322 323/323/323
f 324/324/324 325/325/325 322/322/322
f 322/322/322 325/325/325 321/321/321
f 325/325/325 326/326/326 321/321/321
f 325/325/325 327/327/327 326/326/326
f 328/328/328 327/327/327 325/325/325
f 328/328/328 325/325/325 324/324/324
f 323/323/323 330/330/330 329/329/329
f 330/330/330 331/331/331 329/329/329
f 329/329/329 331/331/331 332/332/332
f 331/331/331 333/333/333 332/332/332
f 336/336/336 335/335/335 334/334/334
f 335/335/335 337/337/337 334/334/334
f 334/334/334 338/338/338 336/336/336
f 334/334/334 337/337/337 338/338/338
f 341/341/341 340/340/340 339/339/339
f 340/340/340 342/342/342 339/339/339
f 339/339/339 343/343/343 341/341/341
f 339/339/339 342/342/342 343/343/343
f 346/346/346 345/345/345 344/344/344
f 347/347/347 346/346/346 344/344/344
f 344/344/344 348/348/348 347/347/347
f 344/344/344 345/345/345 348/348/348
f 351/351/351 350/350/350 349/349/349
f 350/350/350 352/352/352 349/349/349
f 349/349/349 353/353/353 351/351/351
f 349/349/349 352/352/352 353/353/353
f 356/356/356 355/355/355 354/354/354
f 357/357/357 355/355/355 356/356/356
f 357/357/357 358/358/358 355/355/355
f 355/355/355 358/358/358 354/354/354
f 361/361/361 360/360/360 359/359/359
f 360/360/360 362/362/362 359/359/359
f 359/359/359 362/362/362 363/363/363
f 361/361/361 359/359/359 363/363/363
f 366/366/366 365/365/365 364/364/364
f 366/366/366 367/367/367 365/365/365
f 364/364/364 365/365/365 368/368/368
f 365/365/365 367/367/367 368/368/368
f 371/371/371 370/370/370 369/369/369
f 369/369/369 372/372/372 371/371/371
f 371/371/371 373/373/373 370/370/370
f 372/372/372 373/373/373 371/371/371
f 376/376/376 375/375/375 374/374/374
f 376/376/376 377/377/377 375/375/375
f 374/374/374 379/379/379 378/378/378
f 379/379/379 377/377/377 378/378/378
f 381/381/381 380/380/380 3/3/3
f 381/381/381 3/3/3 4/4/4
f 382/382/382 380/380/380 381/381/381
f 383/383/383 380/380/380 382/382/382
f 382/382/382 384/384/384 383/383/383
f 382/382/382 385/385/385 384/384/384
f 383/383/383 384/384/384 386/386/386
f 383/383/383 386/386/386 380/380/380
f 387/387/387 381/381/381 4/4/4
f 387/387/387 4/4/4 11/11/11
f 385/385/385 388/388/388 384/384/384
f 384/384/384 388/388/388 389/389/389
f 386/386/386 389/389/389 380/380/380
f 386/386/386 384/384/384 389/389/389
f 388/388/388 390/390/390 389/389/389
f 389/389/389 390/390/390 391/391/391
f 380/380/380 389/389/389 391/391/391
f 391/391/391 390/390/390 392/392/392
f 391/391/391 392/392/392 17/17/17
f 380/380/380 391/391/391 17/17/17
f 17/17/17 392/392/392 18/18/18
f 385/385/385 393/393/393 388/388/388
f 394/394/394 385/385/385 382/382/382
f 395/395/395 385/385/385 394/394/394
f 396/396/396 395/395/395 394/394/394
f 397/397/397 395/395/395 396/396/396
f 398/398/398 396/396/396 394/394/394
f 398/398/398 394/394/394 399/399/399
f 400/400/400 387/387/387 11/11/11
f 400/400/400 11/11/11 27/27/27
f 401/401/401 398/398/398 399/399/399
f 402/402/402 398/398/398 401/401/401
f 399/399/399 394/394/394 382/382/382
f 399/399/399 382/382/382 403/403/403
f 401/401/401 399/399/399 403/403/403
f 403/403/403 382/382/382 381/381/381
f 403/403/403 381/381/381 387/387/387
f 401/401/401 404/404/404 402/402/402
f 405/405/405 404/404/404 401/401/401
f 27/27/27 406/406/406 400/400/400
f 34/34/34 406/406/406 27/27/27
f 405/405/405 407/407/407 404/404/404
f 407/407/407 408/408/408 404/404/404
f 407/407/407 409/409/409 408/408/408
f 410/410/410 409/409/409 407/407/407
f 410/410/410 411/411/411 409/409/409
f 410/410/410 412/412/412 411/411/411
f 409/409/409 411/411/411 413/413/413
f 408/408/408 409/409/409 414/414/414
f 411/411/411 415/415/415 413/413/413
f 413/413/413 415/415/415 416/416/416
f 413/413/413 416/416/416 395/395/395
f 395/395/395 416/416/416 385/385/385
f 417/417/417 413/413/413 395/395/395
f 409/409/409 413/413/413 417/417/417
f 414/414/414 409/409/409 417/417/417
f 417/417/417 395/395/395 397/397/397
f 416/416/416 418/418/418 385/385/385
f 385/385/385 418/418/418 393/393/393
f 412/412/412 419/419/419 411/411/411
f 411/411/411 419/419/419 415/415/415
f 415/415/415 419/419/419 416/416/416
f 412/412/412 48/48/48 419/419/419
f 48/48/48 49/49/49 419/419/419
f 49/49/49 420/420/420 419/419/419
f 416/416/416 420/420/420 418/418/418
f 419/419/419 420/420/420 416/416/416
f 51/51/51 48/48/48 412/412/412
f 421/421/421 51/51/51 412/412/412
f 53/53/53 51/51/51 421/421/421
f 53/53/53 421/421/421 422/422/422
f 55/55/55 53/53/53 422/422/422
f 55/55/55 422/422/422 423/423/423
f 57/57/57 55/55/55 423/423/423
f 57/57/57 423/423/423 406/406/406
f 34/34/34 57/57/57 406/406/406
f 423/423/423 424/424/424 406/406/406
f 406/406/406 424/424/424 425/425/425
f 426/426/426 424/424/424 425/425/425
f 425/425/425 427/427/427 426/426/426
f 426/426/426 428/428/428 424/424/424
f 427/427/427 429/429/429 426/426/426
f 429/429/429 428/428/428 426/426/426
f 427/427/427 430/430/430 429/429/429
f 424/424/424 428/428/428 430/430/430
f 424/424/424 430/430/430 427/427/427
f 431/431/431 428/428/428 429/429/429
f 430/430/430 428/428/428 431/431/431
f 429/429/429 430/430/430 431/431/431
f 423/423/423 432/432/432 424/424/424
f 423/423/423 433/433/433 432/432/432
f 422/422/422 433/433/433 423/423/423
f 432/432/432 405/405/405 424/424/424
f 432/432/432 407/407/407 405/405/405
f 406/406/406 425/425/425 400/400/400
f 424/424/424 405/405/405 434/434/434
f 400/400/400 425/425/425 434/434/434
f 425/425/425 424/424/424 434/434/434
f 434/434/434 405/405/405 401/401/401
f 434/434/434 401/401/401 403/403/403
f 400/400/400 434/434/434 435/435/435
f 434/434/434 403/403/403 435/435/435
f 436/436/436 434/434/434 435/435/435
f 437/437/437 434/434/434 436/436/436
f 438/438/438 434/434/434 437/437/437
f 436/436/436 439/439/439 437/437/437
f 436/436/436 435/435/435 439/439/439
f 439/439/439 434/434/434 438/438/438
f 437/437/437 439/439/439 440/440/440
f 440/440/440 439/439/439 438/438/438
f 441/441/441 438/438/438 437/437/437
f 440/440/440 438/438/438 441/441/441
f 437/437/437 440/440/440 441/441/441
f 400/400/400 435/435/435 387/387/387
f 435/435/435 403/403/403 387/387/387
f 442/442/442 407/407/407 432/432/432
f 433/433/433 443/443/443 442/442/442
f 443/443/443 444/444/444 442/442/442
f 445/445/445 443/443/443 433/433/433
f 442/442/442 444/444/444 445/445/445
f 445/445/445 446/446/446 443/443/443
f 445/445/445 444/444/444 446/446/446
f 447/447/447 444/444/444 443/443/443
f 443/443/443 446/446/446 447/447/447
f 446/446/446 444/444/444 447/447/447
f 422/422/422 442/442/442 433/433/433
f 433/433/433 442/442/442 432/432/432
f 422/422/422 448/448/448 442/442/442
f 422/422/422 421/421/421 448/448/448
f 421/421/421 410/410/410 448/448/448
f 448/448/448 410/410/410 442/442/442
f 442/442/442 410/410/410 407/407/407
f 448/448/448 449/449/449 410/410/410
f 449/449/449 450/450/450 410/410/410
f 451/451/451 449/449/449 448/448/448
f 451/451/451 452/452/452 449/449/449
f 449/449/449 453/453/453 450/450/450
f 450/450/450 453/453/453 452/452/452
f 452/452/452 454/454/454 449/449/449
f 450/450/450 452/452/452 455/455/455
f 410/410/410 450/450/450 455/455/455
f 421/421/421 412/412/412 410/410/410
f 380/380/380 17/17/17 3/3/3
f 458/458/458 457/457/457 456/456/456
f 459/459/459 457/457/457 458/458/458
f 458/458/458 460/460/460 459/459/459
f 461/461/461 460/460/460 458/458/458
f 461/461/461 462/462/462 460/460/460
f 457/457/457 462/462/462 456/456/456
f 463/463/463 462/462/462 461/461/461
f 456/456/456 462/462/462 463/463/463
f 464/464/464 461/461/461 458/458/458
f 464/464/464 458/458/458 465/465/465
f 458/458/458 456/456/456 466/466/466
f 465/465/465 458/458/458 466/466/466
f 456/456/456 463/463/463 466/466/466
f 466/466/466 463/463/463 467/467/467
f 467/467/467 463/463/463 461/461/461
f 467/467/467 461/461/461 464/464/464
f 465/465/465 466/466/466 468/468/468
f 464/464/464 465/465/465 468/468/468
f 469/469/469 464/464/464 468/468/468
f 466/466/466 467/467/467 470/470/470
f 470/470/470 464/464/464 469/469/469
f 470/470/470 467/467/467 464/464/464
f 471/471/471 466/466/466 470/470/470
f 468/468/468 466/466/466 471/471/471
f 472/472/472 469/469/469 468/468/468
f 472/472/472 470/470/470 469/469/469
f 472/472/472 468/468/468 473/473/473
f 471/471/471 470/470/470 474/474/474
f 474/474/474 470/470/470 472/472/472
f 475/475/475 471/471/471 474/474/474
f 473/473/473 468/468/468 475/475/475
f 468/468/468 471/471/471 475/475/475
f 475/475/475 474/474/474 476/476/476
f 473/473/473 475/475/475 476/476/476
f 477/477/477 472/472/472 473/473/473
f 473/473/473 476/476/476 477/477/477
f 477/477/477 478/478/478 472/472/472
f 476/476/476 474/474/474 479/479/479
f 478/478/478 479/479/479 472/472/472
f 479/479/479 474/474/474 472/472/472
f 482/482/482 481/481/481 480/480/480
f 483/483/483 481/481/481 482/482/482
f 484/484/484 483/483/483 482/482/482
f 485/485/485 481/481/481 483/483/483
f 486/486/486 483/483/483 484/484/484
f 486/486/486 487/487/487 483/483/483
f 486/486/486 488/488/488 487/487/487
f 488/488/488 481/481/481 485/485/485
f 489/489/489 488/488/488 486/486/486
f 489/489/489 486/486/486 490/490/490
f 490/490/490 486/486/486 484/484/484
f 491/491/491 488/488/488 489/489/489
f 492/492/492 488/488/488 491/491/491
f 492/492/492 481/481/481 488/488/488
f 494/494/494 493/493/493 489/489/489
f 495/495/495 494/494/494 489/489/489
f 496/496/496 494/494/494 495/495/495
f 495/495/495 497/497/497 496/496/496
f 498/498/498 497/497/497 495/495/495
f 498/498/498 495/495/495 499/499/499
f 499/499/499 495/495/495 489/489/489
f 498/498/498 500/500/500 497/497/497
f 497/497/497 500/500/500 501/501/501
f 494/494/494 501/501/501 493/493/493
f 497/497/497 501/501/501 502/502/502
f 502/502/502 501/501/501 494/494/494
f 500/500/500 503/503/503 501/501/501
f 501/501/501 503/503/503 493/493/493
f 506/506/506 505/505/505 504/504/504
f 506/506/506 507/507/507 505/505/505
f 505/505/505 507/507/507 508/508/508
f 509/509/509 505/505/505 508/508/508
f 509/509/509 508/508/508 510/510/510
f 504/504/504 505/505/505 511/511/511
f 511/511/511 505/505/505 509/509/509
f 512/512/512 509/509/509 510/510/510
f 512/512/512 506/506/506 504/504/504
f 512/512/512 504/504/504 513/513/513
f 513/513/513 509/509/509 512/512/512
f 514/514/514 512/512/512 510/510/510
f 514/514/514 506/506/506 512/512/512
f 517/517/517 516/516/516 515/515/515
f 515/515/515 516/516/516 518/518/518
f 515/515/515 518/518/518 519/519/519
f 519/519/519 517/517/517 515/515/515
f 519/519/519 518/518/518 520/520/520
f 519/519/519 520/520/520 521/521/521
f 522/522/522 517/517/517 519/519/519
f 523/523/523 522/522/522 519/519/519
f 516/516/516 524/524/524 518/518/518
f 516/516/516 525/525/525 524/524/524
f 517/517/517 526/526/526 516/516/516
f 526/526/526 525/525/525 516/516/516
f 528/528/528 523/523/523 527/527/527
f 527/527/527 521/521/521 528/528/528
f 527/527/527 523/523/523 529/529/529
f 529/529/529 521/521/521 527/527/527
f 531/531/531 530/530/530 522/522/522
f 531/531/531 532/532/532 530/530/530
f 533/533/533 532/532/532 531/531/531
f 520/520/520 530/530/530 534/534/534
f 530/530/530 532/532/532 534/534/534
f 534/534/534 532/532/532 533/533/533
f 535/535/535 530/530/530 520/520/520
f 535/535/535 536/536/536 530/530/530
f 535/535/535 537/537/537 536/536/536
f 536/536/536 537/537/537 538/538/538
f 530/530/530 536/536/536 538/538/538
f 522/522/522 530/530/530 538/538/538
f 538/538/538 537/537/537 539/539/539
f 537/537/537 540/540/540 539/539/539
f 541/541/541 537/537/537 535/535/535
f 541/541/541 540/540/540 537/537/537
f 544/544/544 543/543/543 542/542/542
f 545/545/545 543/543/543 544/544/544
f 544/544/544 542/542/542 546/546/546
f 544/544/544 546/546/546 547/547/547
f 548/548/548 544/544/544 547/547/547
f 549/549/549 544/544/544 548/548/548
f 549/549/549 550/550/550 544/544/544
f 550/550/550 545/545/545 544/544/544
f 553/553/553 552/552/552 551/551/551
f 551/551/551 552/552/552 554/554/554
f 552/552/552 555/555/555 554/554/554
f 552/552/552 556/556/556 555/555/555
f 557/557/557 552/552/552 553/553/553
f 558/558/558 552/552/552 557/557/557
f 558/558/558 559/559/559 552/552/552
f 559/559/559 556/556/556 552/552/552
g M_0020_1
usemtl a_M_0020_05
f 562/562/562 561/561/561 560/560/560
f 562/562/562 560/560/560 563/563/563
f 563/563/563 560/560/560 564/564/564
f 563/563/563 564/564/564 565/565/565
f 566/566/566 561/561/561 562/562/562
f 566/566/566 567/567/567 561/561/561
f 568/568/568 567/567/567 566/566/566
f 568/568/568 569/569/569 567/567/567
f 570/570/570 562/562/562 563/563/563
f 570/570/570 563/563/563 565/565/565
f 570/570/570 568/568/568 566/566/566
f 570/570/570 566/566/566 562/562/562
f 565/565/565 564/564/564 571/571/571
f 565/565/565 571/571/571 570/570/570
f 564/564/564 572/572/572 571/571/571
f 571/571/571 572/572/572 573/573/573
f 571/571/571 573/573/573 570/570/570
f 572/572/572 574/574/574 573/573/573
f 575/575/575 569/569/569 568/568/568
f 576/576/576 575/575/575 568/568/568
f 574/574/574 575/575/575 576/576/576
f 573/573/573 574/574/574 576/576/576
f 576/576/576 568/568/568 570/570/570
f 573/573/573 576/576/576 570/570/570
f 579/579/579 578/578/578 577/577/577
f 577/577/577 578/578/578 580/580/580
f 577/577/577 580/580/580 581/581/581
f 581/581/581 579/579/579 577/577/577
f 581/581/581 580/580/580 582/582/582
f 583/583/583 579/579/579 581/581/581
f 579/579/579 584/584/584 578/578/578
f 584/584/584 585/585/585 578/578/578
f 578/578/578 586/586/586 580/580/580
f 578/578/578 585/585/585 586/586/586
f 589/589/589 588/588/588 587/587/587
f 590/590/590 589/589/589 587/587/587
f 588/588/588 592/592/592 591/591/591
f 592/592/592 593/593/593 591/591/591
f 593/593/593 595/595/595 594/594/594
f 594/594/594 595/595/595 596/596/596
f 598/598/598 596/596/596 597/597/597
f 598/598/598 597/597/597 599/599/599
f 601/601/601 599/599/599 600/600/600
f 601/601/601 600/600/600 590/590/590
f 604/604/604 603/603/603 602/602/602
f 603/603/603 605/605/605 602/602/602
f 605/605/605 607/607/607 606/606/606
f 607/607/607 608/608/608 606/606/606
f 610/610/610 604/604/604 609/609/609
f 609/609/609 611/611/611 610/610/610
f 613/613/613 612/612/612 611/611/611
f 613/613/613 614/614/614 612/612/612
f 616/616/616 615/615/615 614/614/614
f 616/616/616 608/608/608 615/615/615
f 619/619/619 618/618/618 617/617/617
f 620/620/620 619/619/619 617/617/617
f 620/620/620 617/617/617 621/621/621
f 617/617/617 622/622/622 621/621/621
f 617/617/617 618/618/618 622/622/622
f 621/621/621 622/622/622 623/623/623
f 622/622/622 618/618/618 623/623/623
f 623/623/623 618/618/618 624/624/624
f 623/623/623 624/624/624 625/625/625
f 626/626/626 623/623/623 625/625/625
f 621/621/621 623/623/623 626/626/626
f 627/627/627 619/619/619 620/620/620
f 627/627/627 620/620/620 628/628/628
f 629/629/629 621/621/621 626/626/626
f 629/629/629 626/626/626 630/630/630
f 630/630/630 626/626/626 625/625/625
f 631/631/631 620/620/620 621/621/621
f 628/628/628 620/620/620 631/631/631
f 634/634/634 633/633/633 632/632/632
f 635/635/635 633/633/633 634/634/634
f 634/634/634 632/632/632 636/636/636
f 637/637/637 634/634/634 636/636/636
f 638/638/638 634/634/634 637/637/637
f 638/638/638 635/635/635 634/634/634
f 641/641/641 640/640/640 639/639/639
f 639/639/639 642/642/642 641/641/641
f 642/642/642 643/643/643 641/641/641
f 641/641/641 643/643/643 640/640/640
f 646/646/646 645/645/645 644/644/644
f 646/646/646 644/644/644 647/647/647
f 648/648/648 646/646/646 647/647/647
f 649/649/649 646/646/646 648/648/648
f 649/649/649 650/650/650 646/646/646
f 650/650/650 651/651/651 646/646/646
f 646/646/646 651/651/651 652/652/652
f 646/646/646 652/652/652 645/645/645
f 655/655/655 654/654/654 653/653/653
f 655/655/655 653/653/653 656/656/656
f 656/656/656 653/653/653 657/657/657
f 657/657/657 653/653/653 658/658/658
f 655/655/655 656/656/656 659/659/659
f 659/659/659 660/660/660 655/655/655
f 660/660/660 661/661/661 655/655/655
f 662/662/662 660/660/660 659/659/659
f 663/663/663 660/660/660 662/662/662
f 662/662/662 664/664/664 663/663/663
f 665/665/665 658/658/658 664/664/664
f 665/665/665 664/664/664 662/662/662
f 666/666/666 654/654/654 655/655/655
f 667/667/667 666/666/666 655/655/655
f 668/668/668 666/666/666 667/667/667
f 669/669/669 666/666/666 668/668/668
f 655/655/655 661/661/661 670/670/670
f 671/671/671 667/667/667 655/655/655
f 671/671/671 670/670/670 672/672/672
f 672/672/672 670/670/670 673/673/673
f 673/673/673 674/674/674 672/672/672
f 674/674/674 669/669/669 675/675/675
f 672/672/672 674/674/674 675/675/675
f 655/655/655 670/670/670 671/671/671
f 678/678/678 677/677/677 676/676/676
f 679/679/679 677/677/677 678/678/678
f 679/679/679 680/680/680 677/677/677
f 680/680/680 681/681/681 677/677/677
f 677/677/677 682/682/682 676/676/676
f 677/677/677 681/681/681 682/682/682
f 676/676/676 684/684/684 683/683/683
f 676/676/676 683/683/683 685/685/685
f 685/685/685 683/683/683 686/686/686
f 684/684/684 687/687/687 683/683/683
f 683/683/683 688/688/688 686/686/686
f 683/683/683 687/687/687 688/688/688
f 686/686/686 690/690/690 689/689/689
f 686/686/686 689/689/689 691/691/691
f 689/689/689 692/692/692 691/691/691
f 689/689/689 690/690/690 693/693/693
f 694/694/694 692/692/692 689/689/689
f 693/693/693 694/694/694 689/689/689
f 697/697/697 696/696/696 695/695/695
f 696/696/696 698/698/698 695/695/695
f 695/695/695 699/699/699 697/697/697
f 695/695/695 698/698/698 699/699/699
f 702/702/702 701/701/701 700/700/700
f 700/700/700 701/701/701 703/703/703
f 703/703/703 704/704/704 700/700/700
f 700/700/700 704/704/704 705/705/705
f 704/704/704 706/706/706 705/705/705
f 702/702/702 706/706/706 701/701/701
f 705/705/705 706/706/706 707/707/707
f 707/707/707 706/706/706 702/702/702
f 710/710/710 709/709/709 708/708/708
f 711/711/711 709/709/709 710/710/710
f 712/712/712 711/711/711 710/710/710
f 710/710/710 708/708/708 712/712/712
f 713/713/713 711/711/711 712/712/712
f 712/712/712 708/708/708 714/714/714
f 709/709/709 715/715/715 708/708/708
f 709/709/709 716/716/716 715/715/715
f 711/711/711 717/717/717 709/709/709
f 717/717/717 716/716/716 709/709/709
f 720/720/720 719/719/719 718/718/718
f 720/720/720 718/718/718 721/721/721
f 722/722/722 720/720/720 721/721/721
f 722/722/722 723/723/723 720/720/720
f 723/723/723 719/719/719 720/720/720
f 724/724/724 723/723/723 722/722/722
f 724/724/724 719/719/719 723/723/723
f 725/725/725 719/719/719 724/724/724
f 726/726/726 725/725/725 724/724/724
f 726/726/726 724/724/724 727/727/727
f 727/727/727 724/724/724 722/722/722
f 721/721/721 718/718/718 728/728/728
f 729/729/729 721/721/721 728/728/728
f 727/727/727 722/722/722 730/730/730
f 731/731/731 727/727/727 730/730/730
f 726/726/726 727/727/727 731/731/731
f 722/722/722 721/721/721 732/732/732
f 732/732/732 721/721/721 729/729/729
f 735/735/735 734/734/734 733/733/733
f 733/733/733 734/734/734 736/736/736
f 737/737/737 735/735/735 733/733/733
f 737/737/737 733/733/733 738/738/738
f 738/738/738 733/733/733 739/739/739
f 733/733/733 736/736/736 739/739/739
f 742/742/742 741/741/741 740/740/740
f 740/740/740 743/743/743 742/742/742
f 740/740/740 744/744/744 743/743/743
f 741/741/741 744/744/744 740/740/740
f 747/747/747 746/746/746 745/745/745
f 748/748/748 747/747/747 745/745/745
f 748/748/748 745/745/745 749/749/749
f 749/749/749 745/745/745 750/750/750
f 745/745/745 751/751/751 750/750/750
f 745/745/745 752/752/752 751/751/751
f 753/753/753 752/752/752 745/745/745
f 746/746/746 753/753/753 745/745/745
f 756/756/756 755/755/755 754/754/754
f 754/754/754 755/755/755 757/757/757
f 755/755/755 758/758/758 757/757/757
f 755/755/755 759/759/759 758/758/758
f 756/756/756 760/760/760 755/755/755
f 760/760/760 759/759/759 755/755/755
f 762/762/762 761/761/761 756/756/756
f 763/763/763 762/762/762 756/756/756
f 764/764/764 762/762/762 763/763/763
f 762/762/762 765/765/765 761/761/761
f 764/764/764 766/766/766 762/762/762
f 766/766/766 765/765/765 762/762/762
f 768/768/768 767/767/767 764/764/764
f 769/769/769 768/768/768 764/764/764
f 769/769/769 770/770/770 768/768/768
f 771/771/771 767/767/767 768/768/768
f 768/768/768 770/770/770 772/772/772
f 768/768/768 772/772/772 771/771/771
f 775/775/775 774/774/774 773/773/773
f 776/776/776 774/774/774 775/775/775
f 775/775/775 777/777/777 776/776/776
f 778/778/778 777/777/777 775/775/775
f 778/778/778 779/779/779 777/777/777
f 774/774/774 779/779/779 773/773/773
f 780/780/780 779/779/779 778/778/778
f 773/773/773 779/779/779 780/780/780
