mtllib acce663.mtl
o acce663
v -0.16614 0.03114 1.69326 0.000 0.000 0.000
v -0.17046 0.03114 1.72890 0.000 0.000 0.000
v -0.11070 0.00000 1.71828 0.000 0.000 0.000
v -0.16380 0.00000 1.67544 0.000 0.000 0.000
v -0.16614 -0.03114 1.69326 0.000 0.000 0.000
v -0.17262 0.00000 1.74690 0.000 0.000 0.000
v -0.17046 -0.03114 1.72890 0.000 0.000 0.000
v -0.31482 0.00000 1.71828 0.000 0.000 0.000
v -0.31104 -0.03114 1.70118 0.000 0.000 0.000
v -0.31104 0.03114 1.70118 0.000 0.000 0.000
v -0.30366 -0.03114 1.66716 0.000 0.000 0.000
v -0.30366 0.03114 1.66716 0.000 0.000 0.000
v -0.29988 0.00000 1.65024 0.000 0.000 0.000
v -0.51498 -0.29736 0.75672 0.000 0.000 0.000
v -0.51570 -0.31986 0.79380 0.000 0.000 0.000
v -0.53100 -0.28728 0.79632 0.000 0.000 0.000
v -0.48564 -0.32400 0.77436 0.000 0.000 0.000
v -0.51642 -0.25902 0.77940 0.000 0.000 0.000
v -0.47106 -0.29574 0.75744 0.000 0.000 0.000
v -0.48636 -0.26334 0.75996 0.000 0.000 0.000
v -0.43992 -0.30114 0.84132 0.000 0.000 0.000
v -0.47178 -0.29772 0.85770 0.000 0.000 0.000
v -0.48780 -0.26550 0.85932 0.000 0.000 0.000
v -0.47196 -0.23670 0.84438 0.000 0.000 0.000
v -0.44010 -0.24030 0.82800 0.000 0.000 0.000
v -0.42408 -0.27252 0.82638 0.000 0.000 0.000
v -0.47178 -0.29772 0.85770 0.000 0.000 0.000
v -0.44910 -0.29070 0.91566 0.000 0.000 0.000
v -0.41382 -0.29016 0.90864 0.000 0.000 0.000
v -0.46692 -0.25992 0.92052 0.000 0.000 0.000
v -0.48780 -0.26550 0.85932 0.000 0.000 0.000
v -0.44964 -0.22842 0.91854 0.000 0.000 0.000
v -0.47196 -0.23670 0.84438 0.000 0.000 0.000
v -0.41418 -0.22788 0.91152 0.000 0.000 0.000
v -0.44010 -0.24030 0.82800 0.000 0.000 0.000
v -0.39636 -0.25866 0.90666 0.000 0.000 0.000
v -0.42408 -0.27252 0.82638 0.000 0.000 0.000
v -0.51930 -0.30618 1.19952 0.000 0.000 0.000
v -0.50346 -0.33318 1.21626 0.000 0.000 0.000
v -0.51858 -0.21744 1.34190 0.000 0.000 0.000
v -0.50130 -0.24390 1.35900 0.000 0.000 0.000
v -0.46908 -0.33516 1.22184 0.000 0.000 0.000
v -0.50148 -0.10332 1.47330 0.000 0.000 0.000
v -0.48024 -0.12870 1.48698 0.000 0.000 0.000
v -0.46440 -0.03564 1.57158 0.000 0.000 0.000
v -0.48870 -0.07992 1.44936 0.000 0.000 0.000
v -0.45558 -0.00792 1.55034 0.000 0.000 0.000
v -0.44136 -0.06282 1.57626 0.000 0.000 0.000
v -0.44640 -0.13050 1.47672 0.000 0.000 0.000
v -0.46584 -0.24804 1.35468 0.000 0.000 0.000
v -0.45054 -0.30996 1.21086 0.000 0.000 0.000
v -0.40950 -0.06246 1.55970 0.000 0.000 0.000
v -0.43380 -0.10710 1.45296 0.000 0.000 0.000
v -0.44766 -0.22554 1.33326 0.000 0.000 0.000
v -0.46638 -0.28278 1.19412 0.000 0.000 0.000
v -0.50040 -0.19494 1.32048 0.000 0.000 0.000
v -0.45504 -0.08172 1.43928 0.000 0.000 0.000
v -0.40050 -0.03474 1.53846 0.000 0.000 0.000
v -0.46494 -0.19908 1.31616 0.000 0.000 0.000
v -0.50076 -0.28098 1.18854 0.000 0.000 0.000
v -0.42354 -0.00756 1.53378 0.000 0.000 0.000
v -0.34164 0.03114 1.68678 0.000 0.000 0.000
v -0.32454 0.03114 1.65924 0.000 0.000 0.000
v -0.46440 -0.03564 1.57158 0.000 0.000 0.000
v -0.42354 -0.00756 1.53378 0.000 0.000 0.000
v -0.31590 0.00000 1.64538 0.000 0.000 0.000
v -0.40050 -0.03474 1.53846 0.000 0.000 0.000
v -0.32454 -0.03114 1.65924 0.000 0.000 0.000
v -0.40950 -0.06246 1.55970 0.000 0.000 0.000
v -0.34164 -0.03114 1.68678 0.000 0.000 0.000
v -0.35028 0.00000 1.70064 0.000 0.000 0.000
v -0.46440 -0.03564 1.57158 0.000 0.000 0.000
v -0.40086 -0.27918 0.98406 0.000 0.000 0.000
v -0.41562 -0.30528 0.96516 0.000 0.000 0.000
v -0.39636 -0.25866 0.90666 0.000 0.000 0.000
v -0.41382 -0.29016 0.90864 0.000 0.000 0.000
v -0.44946 -0.30330 0.95742 0.000 0.000 0.000
v -0.44910 -0.29070 0.91566 0.000 0.000 0.000
v -0.46872 -0.27522 0.96858 0.000 0.000 0.000
v -0.46692 -0.25992 0.92052 0.000 0.000 0.000
v -0.45414 -0.24912 0.98748 0.000 0.000 0.000
v -0.41418 -0.22788 0.91152 0.000 0.000 0.000
v -0.42012 -0.25110 0.99522 0.000 0.000 0.000
v -0.44964 -0.22842 0.91854 0.000 0.000 0.000
v -0.41562 -0.30528 0.96516 0.000 0.000 0.000
v -0.40086 -0.27918 0.98406 0.000 0.000 0.000
v -0.41742 -0.31662 1.04742 0.000 0.000 0.000
v -0.43416 -0.28530 1.05264 0.000 0.000 0.000
v -0.42012 -0.25110 0.99522 0.000 0.000 0.000
v -0.43560 -0.34470 1.03374 0.000 0.000 0.000
v -0.44946 -0.30330 0.95742 0.000 0.000 0.000
v -0.47034 -0.34110 1.02528 0.000 0.000 0.000
v -0.46872 -0.27522 0.96858 0.000 0.000 0.000
v -0.48708 -0.30978 1.03050 0.000 0.000 0.000
v -0.45414 -0.24912 0.98748 0.000 0.000 0.000
v -0.46908 -0.28170 1.04418 0.000 0.000 0.000
v -0.48672 -0.29484 1.11114 0.000 0.000 0.000
v -0.50562 -0.32166 1.11132 0.000 0.000 0.000
v -0.45216 -0.29808 1.11780 0.000 0.000 0.000
v -0.43650 -0.32832 1.12464 0.000 0.000 0.000
v -0.41742 -0.31662 1.04742 0.000 0.000 0.000
v -0.45540 -0.35514 1.12500 0.000 0.000 0.000
v -0.43560 -0.34470 1.03374 0.000 0.000 0.000
v -0.48996 -0.35190 1.11834 0.000 0.000 0.000
v -0.47034 -0.34110 1.02528 0.000 0.000 0.000
v -0.50562 -0.32166 1.11132 0.000 0.000 0.000
v -0.48996 -0.35190 1.11834 0.000 0.000 0.000
v -0.51930 -0.30618 1.19952 0.000 0.000 0.000
v -0.50346 -0.33318 1.21626 0.000 0.000 0.000
v -0.45540 -0.35514 1.12500 0.000 0.000 0.000
v -0.46908 -0.33516 1.22184 0.000 0.000 0.000
v -0.45054 -0.30996 1.21086 0.000 0.000 0.000
v -0.45216 -0.29808 1.11780 0.000 0.000 0.000
v -0.50076 -0.28098 1.18854 0.000 0.000 0.000
v -0.48672 -0.29484 1.11114 0.000 0.000 0.000
v -0.46638 -0.28278 1.19412 0.000 0.000 0.000
v -0.32238 -0.01962 1.69380 0.000 0.000 0.000
v -0.31554 -0.09144 1.68030 0.000 0.000 0.000
v -0.36180 -0.01962 1.69974 0.000 0.000 0.000
v -0.30330 -0.01962 1.72890 0.000 0.000 0.000
v -0.39600 -0.10242 1.68282 0.000 0.000 0.000
v -0.41058 -0.15678 1.67544 0.000 0.000 0.000
v -0.33264 -0.14598 1.71432 0.000 0.000 0.000
v -0.34956 -0.09144 1.74852 0.000 0.000 0.000
v -0.25470 -0.15678 1.75320 0.000 0.000 0.000
v -0.34272 -0.01962 1.73484 0.000 0.000 0.000
v -0.26928 -0.10242 1.74600 0.000 0.000 0.000
v -0.36180 0.01962 1.69974 0.000 0.000 0.000
v -0.31554 0.09144 1.68030 0.000 0.000 0.000
v -0.32238 0.01962 1.69380 0.000 0.000 0.000
v -0.30330 0.01962 1.72890 0.000 0.000 0.000
v -0.39600 0.10242 1.68282 0.000 0.000 0.000
v -0.41058 0.15678 1.67544 0.000 0.000 0.000
v -0.33264 0.14598 1.71432 0.000 0.000 0.000
v -0.34956 0.09144 1.74852 0.000 0.000 0.000
v -0.25470 0.15678 1.75320 0.000 0.000 0.000
v -0.34272 0.01962 1.73484 0.000 0.000 0.000
v -0.26928 0.10242 1.74600 0.000 0.000 0.000
v -0.34272 -0.01962 1.73484 0.000 0.000 0.000
v -0.30330 -0.01962 1.72890 0.000 0.000 0.000
v -0.34272 0.01962 1.73484 0.000 0.000 0.000
v -0.36180 -0.01962 1.69974 0.000 0.000 0.000
v -0.30330 0.01962 1.72890 0.000 0.000 0.000
v -0.32238 0.01962 1.69380 0.000 0.000 0.000
v -0.36180 0.01962 1.69974 0.000 0.000 0.000
v -0.32238 -0.01962 1.69380 0.000 0.000 0.000
v -0.29358 -0.06480 1.68678 0.000 0.000 0.000
v -0.31104 -0.03114 1.70118 0.000 0.000 0.000
v -0.34164 -0.03114 1.68678 0.000 0.000 0.000
v -0.30222 -0.14508 1.55970 0.000 0.000 0.000
v -0.37548 -0.08460 1.52568 0.000 0.000 0.000
v -0.34164 0.03114 1.68678 0.000 0.000 0.000
v -0.35028 0.00000 1.70064 0.000 0.000 0.000
v -0.31104 0.03114 1.70118 0.000 0.000 0.000
v -0.32454 0.03114 1.65924 0.000 0.000 0.000
v -0.31482 0.00000 1.71828 0.000 0.000 0.000
v -0.30366 0.03114 1.66716 0.000 0.000 0.000
v -0.29988 0.00000 1.65024 0.000 0.000 0.000
v -0.31104 -0.03114 1.70118 0.000 0.000 0.000
v -0.34164 -0.03114 1.68678 0.000 0.000 0.000
v -0.32454 -0.03114 1.65924 0.000 0.000 0.000
v -0.31590 0.00000 1.64538 0.000 0.000 0.000
v -0.30366 -0.03114 1.66716 0.000 0.000 0.000
v -0.29358 0.06480 1.68678 0.000 0.000 0.000
v -0.30222 0.14508 1.55970 0.000 0.000 0.000
v -0.34164 0.03114 1.68678 0.000 0.000 0.000
v -0.37548 0.08460 1.52568 0.000 0.000 0.000
v -0.31104 0.03114 1.70118 0.000 0.000 0.000
vt 0.06176 0.87500
vt 0.05766 0.93700
vt 0.00528 0.90033
vt 0.05881 0.82050
vt 0.06176 0.87500
vt 0.05562 0.99400
vt 0.05766 0.93700
vt 0.27989 0.99400
vt 0.27924 0.93700
vt 0.27924 0.93700
vt 0.27794 0.87500
vt 0.27794 0.87500
vt 0.27229 0.82050
vt 0.84530 0.71935
vt 0.80100 0.75000
vt 0.80177 0.80700
vt 0.80008 0.68800
vt 0.80100 0.75000
vt 0.79994 0.63350
vt 0.80008 0.68800
vt 0.68789 0.68800
vt 0.69134 0.75000
vt 0.69115 0.80700
vt 0.69134 0.75000
vt 0.68789 0.68800
vt 0.68425 0.63350
vt 0.67134 0.75000
vt 0.55072 0.75000
vt 0.54400 0.68800
vt 0.54781 0.80700
vt 0.67615 0.80700
vt 0.53572 0.75000
vt 0.68634 0.75000
vt 0.52900 0.68800
vt 0.69289 0.68800
vt 0.52937 0.63350
vt 0.68925 0.63350
vt 0.99175 0.99400
vt 0.99022 0.93700
vt 0.78904 0.99400
vt 0.79040 0.93700
vt 0.99174 0.87500
vt 0.62274 0.99400
vt 0.62247 0.93700
vt 0.46673 0.99400
vt 0.62247 0.93700
vt 0.46860 0.93700
vt 0.46860 0.93700
vt 0.62066 0.87500
vt 0.79156 0.87500
vt 0.98979 0.82050
vt 0.46673 0.87500
vt 0.61913 0.82050
vt 0.79136 0.82050
vt 0.99174 0.87500
vt 0.79040 0.93700
vt 0.62066 0.87500
vt 0.46798 0.82050
vt 0.79156 0.87500
vt 0.99022 0.93700
vt 0.46673 0.87500
vt 0.26524 0.93700
vt 0.27994 0.87500
vt 0.46873 0.99400
vt 0.46473 0.87500
vt 0.29729 0.82050
vt 0.45598 0.82050
vt 0.29394 0.87500
vt 0.45673 0.87500
vt 0.27924 0.93700
vt 0.26489 0.99400
vt 0.47873 0.99400
vt 0.41243 0.63350
vt 0.44281 0.68800
vt 0.57437 0.63350
vt 0.55400 0.68800
vt 0.45497 0.75000
vt 0.53572 0.75000
vt 0.45175 0.80700
vt 0.53781 0.80700
vt 0.44997 0.75000
vt 0.56900 0.68800
vt 0.43781 0.68800
vt 0.55072 0.75000
vt 0.43781 0.68800
vt 0.43243 0.63350
vt 0.31923 0.63350
vt 0.31707 0.68800
vt 0.43281 0.68800
vt 0.30707 0.68800
vt 0.43997 0.75000
vt 0.30646 0.75000
vt 0.43175 0.80700
vt 0.30801 0.80700
vt 0.43497 0.75000
vt 0.31646 0.75000
vt 0.17376 0.75000
vt 0.15838 0.80700
vt 0.17468 0.68600
vt 0.16321 0.63350
vt 0.32423 0.63350
vt 0.15468 0.68800
vt 0.33107 0.68800
vt 0.15576 0.75000
vt 0.33246 0.75000
vt 0.16438 0.80700
vt 0.16576 0.75000
vt 0.00775 0.80700
vt 0.00922 0.75000
vt 0.16668 0.68800
vt 0.00874 0.68800
vt 0.02179 0.63350
vt 0.16068 0.68800
vt 0.01922 0.75000
vt 0.16376 0.75000
vt 0.03074 0.68800
vt 0.19490 0.14600
vt 0.41400 0.14600
vt 0.19490 0.00700
vt 0.19490 0.30191
vt 0.41400 0.00700
vt 0.55500 0.00700
vt 0.55500 0.14600
vt 0.41400 0.14600
vt 0.55500 0.30400
vt 0.19490 0.14600
vt 0.41400 0.30400
vt 0.19485 0.30400
vt 0.41400 0.16500
vt 0.19485 0.16500
vt 0.19485 0.00909
vt 0.41400 0.30400
vt 0.55500 0.30400
vt 0.55500 0.16500
vt 0.41400 0.16500
vt 0.55500 0.00700
vt 0.19485 0.16500
vt 0.41400 0.00700
vt 0.18050 0.24890
vt 0.18050 0.30400
vt 0.13300 0.24890
vt 0.18050 0.19500
vt 0.13300 0.30400
vt 0.13300 0.24890
vt 0.13300 0.19500
vt 0.18050 0.24890
vt 0.11700 0.25948
vt 0.00700 0.30400
vt 0.00700 0.26008
vt 0.11700 0.00700
vt 0.00700 0.00700
vt 0.18050 0.12481
vt 0.18050 0.18000
vt 0.13300 0.12470
vt 0.18050 0.06272
vt 0.13300 0.18000
vt 0.13300 0.06238
vt 0.13300 0.00700
vt 0.13300 0.12470
vt 0.18050 0.12481
vt 0.18050 0.06272
vt 0.18050 0.00700
vt 0.13300 0.06238
vt 0.11700 0.25948
vt 0.11700 0.00700
vt 0.00700 0.26008
vt 0.00700 0.00700
vt 0.00700 0.30400
usemtl m0
f 1/1 2/2 3/3
f 1/1 3/3 4/4
f 5/5 4/4 3/3
f 3/3 2/2 6/6
f 7/7 3/3 6/6
f 5/5 3/3 7/7
f 8/8 7/7 6/6
f 2/2 8/8 6/6
f 8/8 9/9 7/7
f 10/10 8/8 2/2
f 9/9 11/11 7/7
f 7/7 11/11 5/5
f 11/11 4/4 5/5
f 12/12 10/10 2/2
f 12/12 2/2 1/1
f 4/4 12/12 1/1
f 11/11 13/13 4/4
f 13/13 12/12 4/4
f 14/14 15/15 16/16
f 17/17 15/15 14/14
f 14/14 16/16 18/18
f 17/17 14/14 19/19
f 19/19 14/14 20/20
f 14/14 18/18 20/20
f 19/19 21/21 17/17
f 21/21 22/22 17/17
f 17/17 22/22 15/15
f 22/22 23/23 15/15
f 15/15 23/23 16/16
f 23/23 24/24 16/16
f 16/16 24/24 18/18
f 24/24 25/25 18/18
f 18/18 25/25 20/20
f 25/25 26/26 20/20
f 26/26 21/21 19/19
f 20/20 26/26 19/19
f 27/27 21/21 28/28
f 28/28 21/21 29/29
f 30/30 27/27 28/28
f 31/31 27/27 30/30
f 32/32 31/31 30/30
f 33/33 31/31 32/32
f 34/34 33/33 32/32
f 35/35 33/33 34/34
f 36/36 35/35 34/34
f 37/37 35/35 36/36
f 29/29 37/37 36/36
f 21/21 37/37 29/29
f 38/38 39/39 40/40
f 40/40 39/39 41/41
f 39/39 42/42 41/41
f 41/41 43/43 40/40
f 44/44 43/43 41/41
f 43/43 44/44 45/45
f 43/43 46/46 40/40
f 46/46 43/43 47/47
f 47/47 43/43 45/45
f 45/45 44/44 48/48
f 44/44 49/49 48/48
f 49/49 44/44 50/50
f 50/50 44/44 41/41
f 41/41 42/42 50/50
f 42/42 51/51 50/50
f 48/48 49/49 52/52
f 49/49 53/53 52/52
f 53/53 49/49 54/54
f 54/54 49/49 50/50
f 50/50 51/51 54/54
f 51/51 55/55 54/54
f 40/40 46/46 56/56
f 46/46 57/57 56/56
f 53/53 57/57 58/58
f 52/52 53/53 58/58
f 57/57 53/53 59/59
f 56/56 57/57 59/59
f 59/59 53/53 54/54
f 54/54 55/55 59/59
f 55/55 60/60 59/59
f 59/59 60/60 56/56
f 60/60 38/38 56/56
f 57/57 46/46 61/61
f 58/58 57/57 61/61
f 61/61 46/46 47/47
f 56/56 38/38 40/40
f 62/62 63/63 47/47
f 64/64 62/62 47/47
f 47/47 63/63 65/65
f 63/63 66/66 65/65
f 65/65 66/66 67/67
f 66/66 68/68 67/67
f 67/67 68/68 69/69
f 68/68 70/70 69/69
f 69/69 70/70 48/48
f 70/70 71/71 48/48
f 71/71 62/62 64/64
f 48/48 71/71 72/72
f 73/73 74/74 75/75
f 75/75 74/74 76/76
f 74/74 77/77 76/76
f 76/76 77/77 78/78
f 77/77 79/79 78/78
f 78/78 79/79 80/80
f 79/79 81/81 80/80
f 82/82 73/73 75/75
f 83/83 73/73 82/82
f 81/81 83/83 84/84
f 84/84 83/83 82/82
f 80/80 81/81 84/84
f 85/85 86/86 87/87
f 86/86 88/88 87/87
f 86/86 89/89 88/88
f 85/85 87/87 90/90
f 91/91 85/85 90/90
f 91/91 90/90 92/92
f 93/93 91/91 92/92
f 93/93 92/92 94/94
f 95/95 93/93 94/94
f 89/89 95/95 96/96
f 95/95 94/94 96/96
f 89/89 96/96 88/88
f 94/94 97/97 96/96
f 98/98 97/97 94/94
f 97/97 99/99 96/96
f 96/96 99/99 88/88
f 99/99 100/100 88/88
f 88/88 100/100 101/101
f 100/100 102/102 101/101
f 101/101 102/102 103/103
f 102/102 104/104 103/103
f 103/103 104/104 105/105
f 104/104 106/106 105/105
f 105/105 106/106 94/94
f 106/106 107/107 108/108
f 108/108 107/107 109/109
f 107/107 110/110 109/109
f 110/110 100/100 111/111
f 109/109 110/110 111/111
f 111/111 100/100 112/112
f 100/100 113/113 112/112
f 114/114 106/106 108/108
f 115/115 106/106 114/114
f 113/113 115/115 116/116
f 116/116 115/115 114/114
f 112/112 113/113 116/116
f 117/117 118/118 119/119
f 118/118 117/117 120/120
f 121/121 119/119 118/118
f 121/121 118/118 122/122
f 122/122 118/118 123/123
f 122/122 123/123 124/124
f 122/122 124/124 121/121
f 121/121 124/124 119/119
f 125/125 124/124 123/123
f 125/125 123/123 118/118
f 126/126 124/124 120/120
f 124/124 126/126 119/119
f 125/125 118/118 127/127
f 127/127 118/118 120/120
f 127/127 124/124 125/125
f 127/127 120/120 124/124
f 128/128 129/129 130/130
f 131/131 130/130 129/129
f 132/132 129/129 128/128
f 132/132 133/133 129/129
f 134/134 129/129 133/133
f 135/135 134/134 133/133
f 135/135 133/133 132/132
f 135/135 132/132 128/128
f 134/134 135/135 136/136
f 129/129 134/134 136/136
f 131/131 135/135 137/137
f 128/128 137/137 135/135
f 129/129 136/136 138/138
f 138/138 136/136 135/135
f 129/129 138/138 131/131
f 135/135 131/131 138/138
f 139/139 140/140 141/141
f 142/142 139/139 141/141
f 141/141 140/140 143/143
f 144/144 143/143 140/140
f 145/145 144/144 142/142
f 142/142 141/141 145/145
f 144/144 140/140 146/146
f 142/142 144/144 146/146
f 147/147 148/148 149/149
f 147/147 149/149 150/150
f 150/150 149/149 151/151
f 152/152 153/153 154/154
f 155/155 152/152 154/154
f 154/154 153/153 156/156
f 155/155 154/154 157/157
f 158/158 155/155 157/157
f 153/153 159/159 156/156
f 153/153 160/160 159/159
f 160/160 161/161 159/159
f 161/161 162/162 158/158
f 158/158 162/162 155/155
f 159/159 161/161 163/163
f 161/161 158/158 163/163
f 164/164 165/165 166/166
f 167/167 166/166 165/165
f 164/164 166/166 168/168
