mtllib acce575.mtl
o acce575
v -0.88290 -0.55296 2.64960 0.000 0.000 0.000
v -0.83304 -0.56016 2.48076 0.000 0.000 0.000
v -0.84996 -0.48294 2.94336 0.000 0.000 0.000
v -0.91404 -0.52254 3.00456 0.000 0.000 0.000
v -0.85068 -0.44712 2.78100 0.000 0.000 0.000
v -0.88056 -0.47682 2.62350 0.000 0.000 0.000
v -0.89136 -0.39978 2.74662 0.000 0.000 0.000
v -0.85464 -0.66456 2.32704 0.000 0.000 0.000
v -0.85248 -0.58824 2.30094 0.000 0.000 0.000
v -0.78966 -0.64296 2.20122 0.000 0.000 0.000
v -0.77850 -0.72504 2.20158 0.000 0.000 0.000
v -0.84384 -0.76086 2.20356 0.000 0.000 0.000
v -0.77580 -0.60570 2.17026 0.000 0.000 0.000
v -0.83916 -0.56268 2.14992 0.000 0.000 0.000
v -0.96642 -0.48294 2.93310 0.000 0.000 0.000
v -0.90270 -0.56016 2.47464 0.000 0.000 0.000
v -0.93744 -0.44712 2.77326 0.000 0.000 0.000
v -0.90792 -0.72504 2.19024 0.000 0.000 0.000
v -0.90522 -0.60570 2.15892 0.000 0.000 0.000
v -0.89676 -0.64296 2.19186 0.000 0.000 0.000
v -0.33426 -0.85320 1.95156 0.000 0.000 0.000
v -0.33678 -0.82530 1.94490 0.000 0.000 0.000
v -0.84600 -0.64890 2.13390 0.000 0.000 0.000
v -0.83934 -0.62226 2.12292 0.000 0.000 0.000
v -0.35010 -0.82962 1.92294 0.000 0.000 0.000
v -0.84546 -0.63072 2.09736 0.000 0.000 0.000
v -0.35370 -0.85428 1.92996 0.000 0.000 0.000
v -0.85752 -0.65358 2.10708 0.000 0.000 0.000
v -0.16074 -0.87984 2.24802 0.000 0.000 0.000
v -0.15768 -0.91080 2.19546 0.000 0.000 0.000
v -0.18666 -0.93906 2.21040 0.000 0.000 0.000
v -0.17550 -0.92160 2.12148 0.000 0.000 0.000
v -0.21348 -0.95850 2.14110 0.000 0.000 0.000
v -0.18972 -0.90810 2.26296 0.000 0.000 0.000
v -0.20736 -0.85050 2.27538 0.000 0.000 0.000
v -0.18666 -0.93906 2.21040 0.000 0.000 0.000
v -0.23364 -0.89604 2.13876 0.000 0.000 0.000
v -0.20898 -0.88308 2.21058 0.000 0.000 0.000
v -0.18972 -0.90810 2.26296 0.000 0.000 0.000
v -0.20736 -0.85050 2.27538 0.000 0.000 0.000
v -0.23364 -0.89604 2.13876 0.000 0.000 0.000
v -0.15768 -0.91080 2.19546 0.000 0.000 0.000
v -0.20898 -0.88308 2.21058 0.000 0.000 0.000
v -0.17550 -0.92160 2.12148 0.000 0.000 0.000
v -0.16074 -0.87984 2.24802 0.000 0.000 0.000
v -0.20736 -0.85050 2.27538 0.000 0.000 0.000
v -0.15642 -1.07496 1.94220 0.000 0.000 0.000
v -0.05418 -1.06290 1.90350 0.000 0.000 0.000
v -0.16056 -1.05066 1.92042 0.000 0.000 0.000
v -0.07272 -1.04400 1.88190 0.000 0.000 0.000
v -0.05796 -0.94356 1.88658 0.000 0.000 0.000
v -0.05418 -1.06290 1.90350 0.000 0.000 0.000
v -0.07020 -1.04598 1.93230 0.000 0.000 0.000
v -0.06390 -0.95238 1.92312 0.000 0.000 0.000
v -0.07272 -1.04400 1.88190 0.000 0.000 0.000
v -0.05418 -1.06290 1.90350 0.000 0.000 0.000
v -0.05796 -0.94356 1.88658 0.000 0.000 0.000
v -0.08442 -0.96030 1.86858 0.000 0.000 0.000
v -0.07020 -1.04598 1.93230 0.000 0.000 0.000
v -0.05418 -1.06290 1.90350 0.000 0.000 0.000
v -0.15642 -1.07496 1.94220 0.000 0.000 0.000
v -0.14184 -1.05462 1.96524 0.000 0.000 0.000
v -0.12978 -0.88632 1.91988 0.000 0.000 0.000
v -0.05796 -0.94356 1.88658 0.000 0.000 0.000
v -0.06390 -0.95238 1.92312 0.000 0.000 0.000
v -0.12978 -0.88632 1.91988 0.000 0.000 0.000
v -0.08442 -0.96030 1.86858 0.000 0.000 0.000
v -0.05796 -0.94356 1.88658 0.000 0.000 0.000
v -0.06390 -0.95238 1.92312 0.000 0.000 0.000
v -0.07020 -1.04598 1.93230 0.000 0.000 0.000
v -0.08442 -0.96030 1.86858 0.000 0.000 0.000
v -0.07272 -1.04400 1.88190 0.000 0.000 0.000
v -0.16056 -1.05066 1.92042 0.000 0.000 0.000
v -0.07272 -1.04400 1.88190 0.000 0.000 0.000
v -0.07020 -1.04598 1.93230 0.000 0.000 0.000
v -0.14184 -1.05462 1.96524 0.000 0.000 0.000
v -0.06390 -0.95238 1.92312 0.000 0.000 0.000
v -0.08442 -0.96030 1.86858 0.000 0.000 0.000
v -0.12978 -0.88632 1.91988 0.000 0.000 0.000
v -0.14184 -1.05462 1.96524 0.000 0.000 0.000
v -0.15642 -1.07496 1.94220 0.000 0.000 0.000
v -0.16056 -1.05066 1.92042 0.000 0.000 0.000
v -0.17550 -0.92160 2.12148 0.000 0.000 0.000
v -0.19728 -0.93096 2.01690 0.000 0.000 0.000
v -0.25614 -0.98820 2.04732 0.000 0.000 0.000
v -0.21348 -0.95850 2.14110 0.000 0.000 0.000
v -0.28872 -0.97272 1.97136 0.000 0.000 0.000
v -0.24966 -0.93456 1.95102 0.000 0.000 0.000
v -0.31680 -0.90234 1.96614 0.000 0.000 0.000
v -0.29394 -0.87750 2.05686 0.000 0.000 0.000
v -0.23364 -0.89604 2.13876 0.000 0.000 0.000
v -0.31680 -0.90234 1.96614 0.000 0.000 0.000
v -0.24966 -0.93456 1.95102 0.000 0.000 0.000
v -0.19728 -0.93096 2.01690 0.000 0.000 0.000
v -0.29394 -0.87750 2.05686 0.000 0.000 0.000
v -0.23364 -0.89604 2.13876 0.000 0.000 0.000
v -0.17550 -0.92160 2.12148 0.000 0.000 0.000
v -0.28872 -0.97272 1.97136 0.000 0.000 0.000
v -0.24966 -0.93456 1.95102 0.000 0.000 0.000
v -0.31680 -0.90234 1.96614 0.000 0.000 0.000
v 0.05076 -1.02762 2.18520 0.000 0.000 0.000
v 0.02844 -1.02924 2.14524 0.000 0.000 0.000
v -0.08460 -1.05822 2.18934 0.000 0.000 0.000
v -0.08082 -1.05030 2.14776 0.000 0.000 0.000
v 0.04086 -0.89658 2.09286 0.000 0.000 0.000
v 0.05076 -1.02762 2.18520 0.000 0.000 0.000
v 0.01944 -0.99576 2.19366 0.000 0.000 0.000
v 0.01512 -0.89226 2.13480 0.000 0.000 0.000
v 0.04086 -0.89658 2.09286 0.000 0.000 0.000
v 0.02844 -1.02924 2.14524 0.000 0.000 0.000
v 0.05076 -1.02762 2.18520 0.000 0.000 0.000
v 0.02286 -0.93402 2.07126 0.000 0.000 0.000
v 0.01944 -0.99576 2.19366 0.000 0.000 0.000
v 0.05076 -1.02762 2.18520 0.000 0.000 0.000
v -0.08460 -1.05822 2.18934 0.000 0.000 0.000
v -0.08262 -1.01556 2.20050 0.000 0.000 0.000
v -0.07020 -0.84204 2.06460 0.000 0.000 0.000
v 0.04086 -0.89658 2.09286 0.000 0.000 0.000
v 0.01512 -0.89226 2.13480 0.000 0.000 0.000
v -0.07020 -0.84204 2.06460 0.000 0.000 0.000
v 0.02286 -0.93402 2.07126 0.000 0.000 0.000
v 0.04086 -0.89658 2.09286 0.000 0.000 0.000
v 0.01944 -0.99576 2.19366 0.000 0.000 0.000
v 0.02286 -0.93402 2.07126 0.000 0.000 0.000
v 0.01512 -0.89226 2.13480 0.000 0.000 0.000
v 0.02844 -1.02924 2.14524 0.000 0.000 0.000
v -0.08082 -1.05030 2.14776 0.000 0.000 0.000
v 0.02844 -1.02924 2.14524 0.000 0.000 0.000
v 0.01944 -0.99576 2.19366 0.000 0.000 0.000
v -0.08262 -1.01556 2.20050 0.000 0.000 0.000
v 0.01512 -0.89226 2.13480 0.000 0.000 0.000
v 0.02286 -0.93402 2.07126 0.000 0.000 0.000
v -0.07020 -0.84204 2.06460 0.000 0.000 0.000
v -0.08460 -1.05822 2.18934 0.000 0.000 0.000
v -0.08082 -1.05030 2.14776 0.000 0.000 0.000
v -0.08262 -1.01556 2.20050 0.000 0.000 0.000
v 0.04608 -1.07604 2.07864 0.000 0.000 0.000
v 0.01944 -1.06200 2.04030 0.000 0.000 0.000
v -0.10008 -1.08666 2.10492 0.000 0.000 0.000
v -0.10080 -1.07100 2.06532 0.000 0.000 0.000
v 0.03636 -0.93042 2.01996 0.000 0.000 0.000
v 0.04608 -1.07604 2.07864 0.000 0.000 0.000
v 0.02412 -1.03842 2.10726 0.000 0.000 0.000
v 0.01710 -0.93114 2.06550 0.000 0.000 0.000
v 0.03636 -0.93042 2.01996 0.000 0.000 0.000
v 0.01944 -1.06200 2.04030 0.000 0.000 0.000
v 0.04608 -1.07604 2.07864 0.000 0.000 0.000
v 0.01206 -0.96282 1.99620 0.000 0.000 0.000
v -0.09414 -1.04688 2.12346 0.000 0.000 0.000
v 0.02412 -1.03842 2.10726 0.000 0.000 0.000
v -0.10008 -1.08666 2.10492 0.000 0.000 0.000
v 0.04608 -1.07604 2.07864 0.000 0.000 0.000
v -0.07236 -0.86490 2.01726 0.000 0.000 0.000
v 0.03636 -0.93042 2.01996 0.000 0.000 0.000
v 0.01710 -0.93114 2.06550 0.000 0.000 0.000
v -0.07236 -0.86490 2.01726 0.000 0.000 0.000
v 0.01206 -0.96282 1.99620 0.000 0.000 0.000
v 0.03636 -0.93042 2.01996 0.000 0.000 0.000
v 0.01710 -0.93114 2.06550 0.000 0.000 0.000
v 0.01944 -1.06200 2.04030 0.000 0.000 0.000
v 0.01206 -0.96282 1.99620 0.000 0.000 0.000
v 0.02412 -1.03842 2.10726 0.000 0.000 0.000
v -0.10080 -1.07100 2.06532 0.000 0.000 0.000
v 0.01944 -1.06200 2.04030 0.000 0.000 0.000
v 0.02412 -1.03842 2.10726 0.000 0.000 0.000
v -0.09414 -1.04688 2.12346 0.000 0.000 0.000
v 0.01710 -0.93114 2.06550 0.000 0.000 0.000
v 0.01206 -0.96282 1.99620 0.000 0.000 0.000
v -0.07236 -0.86490 2.01726 0.000 0.000 0.000
v -0.10008 -1.08666 2.10492 0.000 0.000 0.000
v -0.10080 -1.07100 2.06532 0.000 0.000 0.000
v -0.09414 -1.04688 2.12346 0.000 0.000 0.000
v -0.13140 -1.09836 2.02104 0.000 0.000 0.000
v 0.00486 -1.08162 1.98684 0.000 0.000 0.000
v -0.02646 -1.06434 1.95948 0.000 0.000 0.000
v -0.13518 -1.07334 1.98684 0.000 0.000 0.000
v -0.00576 -0.92916 1.94094 0.000 0.000 0.000
v 0.00486 -1.08162 1.98684 0.000 0.000 0.000
v -0.01602 -1.04778 2.01438 0.000 0.000 0.000
v -0.01944 -0.93474 1.98810 0.000 0.000 0.000
v -0.02646 -1.06434 1.95948 0.000 0.000 0.000
v 0.00486 -1.08162 1.98684 0.000 0.000 0.000
v -0.00576 -0.92916 1.94094 0.000 0.000 0.000
v -0.03510 -0.95670 1.91664 0.000 0.000 0.000
v -0.01602 -1.04778 2.01438 0.000 0.000 0.000
v 0.00486 -1.08162 1.98684 0.000 0.000 0.000
v -0.13140 -1.09836 2.02104 0.000 0.000 0.000
v -0.11862 -1.06524 2.04732 0.000 0.000 0.000
v -0.10890 -0.85770 1.96038 0.000 0.000 0.000
v -0.00576 -0.92916 1.94094 0.000 0.000 0.000
v -0.01944 -0.93474 1.98810 0.000 0.000 0.000
v -0.10890 -0.85770 1.96038 0.000 0.000 0.000
v -0.03510 -0.95670 1.91664 0.000 0.000 0.000
v -0.00576 -0.92916 1.94094 0.000 0.000 0.000
v -0.01944 -0.93474 1.98810 0.000 0.000 0.000
v -0.02646 -1.06434 1.95948 0.000 0.000 0.000
v -0.03510 -0.95670 1.91664 0.000 0.000 0.000
v -0.01602 -1.04778 2.01438 0.000 0.000 0.000
v -0.11862 -1.06524 2.04732 0.000 0.000 0.000
v -0.02646 -1.06434 1.95948 0.000 0.000 0.000
v -0.01602 -1.04778 2.01438 0.000 0.000 0.000
v -0.13518 -1.07334 1.98684 0.000 0.000 0.000
v -0.01944 -0.93474 1.98810 0.000 0.000 0.000
v -0.03510 -0.95670 1.91664 0.000 0.000 0.000
v -0.10890 -0.85770 1.96038 0.000 0.000 0.000
v -0.13140 -1.09836 2.02104 0.000 0.000 0.000
v -0.13518 -1.07334 1.98684 0.000 0.000 0.000
v -0.11862 -1.06524 2.04732 0.000 0.000 0.000
v -0.31230 -0.90306 2.02410 0.000 0.000 0.000
v -0.31590 -0.86094 2.01114 0.000 0.000 0.000
v -0.58536 -0.78642 2.10636 0.000 0.000 0.000
v -0.57888 -0.76014 2.09520 0.000 0.000 0.000
v -0.80478 -0.70218 2.19114 0.000 0.000 0.000
v -0.82440 -0.65448 2.18646 0.000 0.000 0.000
v -0.58968 -0.76626 2.07180 0.000 0.000 0.000
v -0.85158 -0.65826 2.15820 0.000 0.000 0.000
v -0.33246 -0.86976 1.98162 0.000 0.000 0.000
v -0.34020 -0.90288 1.98990 0.000 0.000 0.000
v -0.59670 -0.79074 2.07972 0.000 0.000 0.000
v -0.84906 -0.69696 2.16468 0.000 0.000 0.000
v -0.25668 -0.95508 1.89882 0.000 0.000 0.000
v -0.19440 -1.08234 1.86336 0.000 0.000 0.000
v -0.26100 -0.97326 1.94004 0.000 0.000 0.000
v -0.30798 -0.93582 1.92006 0.000 0.000 0.000
v -0.29592 -0.99324 1.91916 0.000 0.000 0.000
v -0.28008 -0.99234 1.86732 0.000 0.000 0.000
v -0.19440 -1.08234 1.86336 0.000 0.000 0.000
v -0.30798 -0.93582 1.92006 0.000 0.000 0.000
v -0.84996 0.48294 2.94336 0.000 0.000 0.000
v -0.83304 0.56016 2.48076 0.000 0.000 0.000
v -0.88290 0.55296 2.64960 0.000 0.000 0.000
v -0.91404 0.52254 3.00456 0.000 0.000 0.000
v -0.85068 0.44712 2.78100 0.000 0.000 0.000
v -0.88056 0.47682 2.62350 0.000 0.000 0.000
v -0.89136 0.39978 2.74662 0.000 0.000 0.000
v -0.85464 0.66456 2.32704 0.000 0.000 0.000
v -0.85248 0.58824 2.30094 0.000 0.000 0.000
v -0.78966 0.64296 2.20122 0.000 0.000 0.000
v -0.77850 0.72504 2.20158 0.000 0.000 0.000
v -0.84384 0.76086 2.20356 0.000 0.000 0.000
v -0.77580 0.60570 2.17026 0.000 0.000 0.000
v -0.83916 0.56268 2.14992 0.000 0.000 0.000
v -0.96642 0.48294 2.93310 0.000 0.000 0.000
v -0.90270 0.56016 2.47464 0.000 0.000 0.000
v -0.93744 0.44712 2.77326 0.000 0.000 0.000
v -0.90792 0.72504 2.19024 0.000 0.000 0.000
v -0.90522 0.60570 2.15892 0.000 0.000 0.000
v -0.89676 0.64296 2.19186 0.000 0.000 0.000
v -0.84600 0.64890 2.13390 0.000 0.000 0.000
v -0.33678 0.82530 1.94490 0.000 0.000 0.000
v -0.33426 0.85320 1.95156 0.000 0.000 0.000
v -0.83934 0.62226 2.12292 0.000 0.000 0.000
v -0.35010 0.82962 1.92294 0.000 0.000 0.000
v -0.84546 0.63072 2.09736 0.000 0.000 0.000
v -0.35370 0.85428 1.92996 0.000 0.000 0.000
v -0.85752 0.65358 2.10708 0.000 0.000 0.000
v -0.18666 0.93906 2.21040 0.000 0.000 0.000
v -0.15768 0.91080 2.19546 0.000 0.000 0.000
v -0.16074 0.87984 2.24802 0.000 0.000 0.000
v -0.17550 0.92160 2.12148 0.000 0.000 0.000
v -0.21348 0.95850 2.14110 0.000 0.000 0.000
v -0.18972 0.90810 2.26296 0.000 0.000 0.000
v -0.20736 0.85050 2.27538 0.000 0.000 0.000
v -0.23364 0.89604 2.13876 0.000 0.000 0.000
v -0.18666 0.93906 2.21040 0.000 0.000 0.000
v -0.20898 0.88308 2.21058 0.000 0.000 0.000
v -0.18972 0.90810 2.26296 0.000 0.000 0.000
v -0.20736 0.85050 2.27538 0.000 0.000 0.000
v -0.20898 0.88308 2.21058 0.000 0.000 0.000
v -0.15768 0.91080 2.19546 0.000 0.000 0.000
v -0.23364 0.89604 2.13876 0.000 0.000 0.000
v -0.17550 0.92160 2.12148 0.000 0.000 0.000
v -0.16074 0.87984 2.24802 0.000 0.000 0.000
v -0.20736 0.85050 2.27538 0.000 0.000 0.000
v -0.16056 1.05066 1.92042 0.000 0.000 0.000
v -0.05418 1.06290 1.90350 0.000 0.000 0.000
v -0.15642 1.07496 1.94220 0.000 0.000 0.000
v -0.07272 1.04400 1.88190 0.000 0.000 0.000
v -0.07020 1.04598 1.93230 0.000 0.000 0.000
v -0.05418 1.06290 1.90350 0.000 0.000 0.000
v -0.05796 0.94356 1.88658 0.000 0.000 0.000
v -0.06390 0.95238 1.92312 0.000 0.000 0.000
v -0.05796 0.94356 1.88658 0.000 0.000 0.000
v -0.05418 1.06290 1.90350 0.000 0.000 0.000
v -0.07272 1.04400 1.88190 0.000 0.000 0.000
v -0.08442 0.96030 1.86858 0.000 0.000 0.000
v -0.15642 1.07496 1.94220 0.000 0.000 0.000
v -0.05418 1.06290 1.90350 0.000 0.000 0.000
v -0.07020 1.04598 1.93230 0.000 0.000 0.000
v -0.14184 1.05462 1.96524 0.000 0.000 0.000
v -0.06390 0.95238 1.92312 0.000 0.000 0.000
v -0.05796 0.94356 1.88658 0.000 0.000 0.000
v -0.12978 0.88632 1.91988 0.000 0.000 0.000
v -0.05796 0.94356 1.88658 0.000 0.000 0.000
v -0.08442 0.96030 1.86858 0.000 0.000 0.000
v -0.12978 0.88632 1.91988 0.000 0.000 0.000
v -0.08442 0.96030 1.86858 0.000 0.000 0.000
v -0.07020 1.04598 1.93230 0.000 0.000 0.000
v -0.06390 0.95238 1.92312 0.000 0.000 0.000
v -0.07272 1.04400 1.88190 0.000 0.000 0.000
v -0.07020 1.04598 1.93230 0.000 0.000 0.000
v -0.07272 1.04400 1.88190 0.000 0.000 0.000
v -0.16056 1.05066 1.92042 0.000 0.000 0.000
v -0.14184 1.05462 1.96524 0.000 0.000 0.000
v -0.12978 0.88632 1.91988 0.000 0.000 0.000
v -0.08442 0.96030 1.86858 0.000 0.000 0.000
v -0.06390 0.95238 1.92312 0.000 0.000 0.000
v -0.16056 1.05066 1.92042 0.000 0.000 0.000
v -0.15642 1.07496 1.94220 0.000 0.000 0.000
v -0.14184 1.05462 1.96524 0.000 0.000 0.000
v -0.25614 0.98820 2.04732 0.000 0.000 0.000
v -0.19728 0.93096 2.01690 0.000 0.000 0.000
v -0.17550 0.92160 2.12148 0.000 0.000 0.000
v -0.21348 0.95850 2.14110 0.000 0.000 0.000
v -0.28872 0.97272 1.97136 0.000 0.000 0.000
v -0.24966 0.93456 1.95102 0.000 0.000 0.000
v -0.31680 0.90234 1.96614 0.000 0.000 0.000
v -0.29394 0.87750 2.05686 0.000 0.000 0.000
v -0.23364 0.89604 2.13876 0.000 0.000 0.000
v -0.19728 0.93096 2.01690 0.000 0.000 0.000
v -0.24966 0.93456 1.95102 0.000 0.000 0.000
v -0.31680 0.90234 1.96614 0.000 0.000 0.000
v -0.29394 0.87750 2.05686 0.000 0.000 0.000
v -0.23364 0.89604 2.13876 0.000 0.000 0.000
v -0.17550 0.92160 2.12148 0.000 0.000 0.000
v -0.31680 0.90234 1.96614 0.000 0.000 0.000
v -0.24966 0.93456 1.95102 0.000 0.000 0.000
v -0.28872 0.97272 1.97136 0.000 0.000 0.000
v -0.08460 1.05822 2.18934 0.000 0.000 0.000
v 0.02844 1.02924 2.14524 0.000 0.000 0.000
v 0.05076 1.02762 2.18520 0.000 0.000 0.000
v -0.08082 1.05030 2.14776 0.000 0.000 0.000
v 0.01944 0.99576 2.19366 0.000 0.000 0.000
v 0.05076 1.02762 2.18520 0.000 0.000 0.000
v 0.04086 0.89658 2.09286 0.000 0.000 0.000
v 0.01512 0.89226 2.13480 0.000 0.000 0.000
v 0.05076 1.02762 2.18520 0.000 0.000 0.000
v 0.02844 1.02924 2.14524 0.000 0.000 0.000
v 0.04086 0.89658 2.09286 0.000 0.000 0.000
v 0.02286 0.93402 2.07126 0.000 0.000 0.000
v -0.08460 1.05822 2.18934 0.000 0.000 0.000
v 0.05076 1.02762 2.18520 0.000 0.000 0.000
v 0.01944 0.99576 2.19366 0.000 0.000 0.000
v -0.08262 1.01556 2.20050 0.000 0.000 0.000
v 0.01512 0.89226 2.13480 0.000 0.000 0.000
v 0.04086 0.89658 2.09286 0.000 0.000 0.000
v -0.07020 0.84204 2.06460 0.000 0.000 0.000
v 0.04086 0.89658 2.09286 0.000 0.000 0.000
v 0.02286 0.93402 2.07126 0.000 0.000 0.000
v -0.07020 0.84204 2.06460 0.000 0.000 0.000
v 0.01512 0.89226 2.13480 0.000 0.000 0.000
v 0.02286 0.93402 2.07126 0.000 0.000 0.000
v 0.01944 0.99576 2.19366 0.000 0.000 0.000
v 0.02844 1.02924 2.14524 0.000 0.000 0.000
v 0.01944 0.99576 2.19366 0.000 0.000 0.000
v 0.02844 1.02924 2.14524 0.000 0.000 0.000
v -0.08082 1.05030 2.14776 0.000 0.000 0.000
v -0.08262 1.01556 2.20050 0.000 0.000 0.000
v -0.07020 0.84204 2.06460 0.000 0.000 0.000
v 0.02286 0.93402 2.07126 0.000 0.000 0.000
v 0.01512 0.89226 2.13480 0.000 0.000 0.000
v -0.08262 1.01556 2.20050 0.000 0.000 0.000
v -0.08082 1.05030 2.14776 0.000 0.000 0.000
v -0.08460 1.05822 2.18934 0.000 0.000 0.000
v -0.10008 1.08666 2.10492 0.000 0.000 0.000
v 0.01944 1.06200 2.04030 0.000 0.000 0.000
v 0.04608 1.07604 2.07864 0.000 0.000 0.000
v -0.10080 1.07100 2.06532 0.000 0.000 0.000
v 0.02412 1.03842 2.10726 0.000 0.000 0.000
v 0.04608 1.07604 2.07864 0.000 0.000 0.000
v 0.03636 0.93042 2.01996 0.000 0.000 0.000
v 0.01710 0.93114 2.06550 0.000 0.000 0.000
v 0.04608 1.07604 2.07864 0.000 0.000 0.000
v 0.01944 1.06200 2.04030 0.000 0.000 0.000
v 0.03636 0.93042 2.01996 0.000 0.000 0.000
v 0.01206 0.96282 1.99620 0.000 0.000 0.000
v -0.10008 1.08666 2.10492 0.000 0.000 0.000
v 0.02412 1.03842 2.10726 0.000 0.000 0.000
v -0.09414 1.04688 2.12346 0.000 0.000 0.000
v 0.04608 1.07604 2.07864 0.000 0.000 0.000
v 0.01710 0.93114 2.06550 0.000 0.000 0.000
v 0.03636 0.93042 2.01996 0.000 0.000 0.000
v -0.07236 0.86490 2.01726 0.000 0.000 0.000
v 0.03636 0.93042 2.01996 0.000 0.000 0.000
v 0.01206 0.96282 1.99620 0.000 0.000 0.000
v -0.07236 0.86490 2.01726 0.000 0.000 0.000
v 0.01206 0.96282 1.99620 0.000 0.000 0.000
v 0.01944 1.06200 2.04030 0.000 0.000 0.000
v 0.01710 0.93114 2.06550 0.000 0.000 0.000
v 0.02412 1.03842 2.10726 0.000 0.000 0.000
v 0.02412 1.03842 2.10726 0.000 0.000 0.000
v 0.01944 1.06200 2.04030 0.000 0.000 0.000
v -0.10080 1.07100 2.06532 0.000 0.000 0.000
v -0.09414 1.04688 2.12346 0.000 0.000 0.000
v -0.07236 0.86490 2.01726 0.000 0.000 0.000
v 0.01206 0.96282 1.99620 0.000 0.000 0.000
v 0.01710 0.93114 2.06550 0.000 0.000 0.000
v -0.09414 1.04688 2.12346 0.000 0.000 0.000
v -0.10080 1.07100 2.06532 0.000 0.000 0.000
v -0.10008 1.08666 2.10492 0.000 0.000 0.000
v -0.02646 1.06434 1.95948 0.000 0.000 0.000
v 0.00486 1.08162 1.98684 0.000 0.000 0.000
v -0.13140 1.09836 2.02104 0.000 0.000 0.000
v -0.13518 1.07334 1.98684 0.000 0.000 0.000
v -0.01602 1.04778 2.01438 0.000 0.000 0.000
v 0.00486 1.08162 1.98684 0.000 0.000 0.000
v -0.00576 0.92916 1.94094 0.000 0.000 0.000
v -0.01944 0.93474 1.98810 0.000 0.000 0.000
v -0.00576 0.92916 1.94094 0.000 0.000 0.000
v 0.00486 1.08162 1.98684 0.000 0.000 0.000
v -0.02646 1.06434 1.95948 0.000 0.000 0.000
v -0.03510 0.95670 1.91664 0.000 0.000 0.000
v -0.13140 1.09836 2.02104 0.000 0.000 0.000
v 0.00486 1.08162 1.98684 0.000 0.000 0.000
v -0.01602 1.04778 2.01438 0.000 0.000 0.000
v -0.11862 1.06524 2.04732 0.000 0.000 0.000
v -0.01944 0.93474 1.98810 0.000 0.000 0.000
v -0.00576 0.92916 1.94094 0.000 0.000 0.000
v -0.10890 0.85770 1.96038 0.000 0.000 0.000
v -0.00576 0.92916 1.94094 0.000 0.000 0.000
v -0.03510 0.95670 1.91664 0.000 0.000 0.000
v -0.10890 0.85770 1.96038 0.000 0.000 0.000
v -0.03510 0.95670 1.91664 0.000 0.000 0.000
v -0.02646 1.06434 1.95948 0.000 0.000 0.000
v -0.01944 0.93474 1.98810 0.000 0.000 0.000
v -0.01602 1.04778 2.01438 0.000 0.000 0.000
v -0.01602 1.04778 2.01438 0.000 0.000 0.000
v -0.02646 1.06434 1.95948 0.000 0.000 0.000
v -0.11862 1.06524 2.04732 0.000 0.000 0.000
v -0.13518 1.07334 1.98684 0.000 0.000 0.000
v -0.10890 0.85770 1.96038 0.000 0.000 0.000
v -0.03510 0.95670 1.91664 0.000 0.000 0.000
v -0.01944 0.93474 1.98810 0.000 0.000 0.000
v -0.11862 1.06524 2.04732 0.000 0.000 0.000
v -0.13518 1.07334 1.98684 0.000 0.000 0.000
v -0.13140 1.09836 2.02104 0.000 0.000 0.000
v -0.58536 0.78642 2.10636 0.000 0.000 0.000
v -0.31590 0.86094 2.01114 0.000 0.000 0.000
v -0.31230 0.90306 2.02410 0.000 0.000 0.000
v -0.57888 0.76014 2.09520 0.000 0.000 0.000
v -0.80478 0.70218 2.19114 0.000 0.000 0.000
v -0.82440 0.65448 2.18646 0.000 0.000 0.000
v -0.58968 0.76626 2.07180 0.000 0.000 0.000
v -0.85158 0.65826 2.15820 0.000 0.000 0.000
v -0.33246 0.86976 1.98162 0.000 0.000 0.000
v -0.34020 0.90288 1.98990 0.000 0.000 0.000
v -0.59670 0.79074 2.07972 0.000 0.000 0.000
v -0.84906 0.69696 2.16468 0.000 0.000 0.000
v -0.26100 0.97326 1.94004 0.000 0.000 0.000
v -0.19440 1.08234 1.86336 0.000 0.000 0.000
v -0.25668 0.95508 1.89882 0.000 0.000 0.000
v -0.30798 0.93582 1.92006 0.000 0.000 0.000
v -0.29592 0.99324 1.91916 0.000 0.000 0.000
v -0.19440 1.08234 1.86336 0.000 0.000 0.000
v -0.28008 0.99234 1.86732 0.000 0.000 0.000
v -0.30798 0.93582 1.92006 0.000 0.000 0.000
v -0.60750 -0.14346 3.26088 0.000 0.000 0.000
v -0.47142 -0.10638 3.19068 0.000 0.000 0.000
v -0.45090 -0.10638 3.28356 0.000 0.000 0.000
v -0.57114 -0.13500 3.34026 0.000 0.000 0.000
v -0.59382 -0.14760 3.42882 0.000 0.000 0.000
v -0.40104 0.00000 3.24054 0.000 0.000 0.000
v -0.42372 0.00000 3.14748 0.000 0.000 0.000
v -0.47142 0.10638 3.19068 0.000 0.000 0.000
v -0.45090 0.10638 3.28356 0.000 0.000 0.000
v -0.60750 0.14346 3.26088 0.000 0.000 0.000
v -0.57114 0.13500 3.34026 0.000 0.000 0.000
v -0.59382 0.14760 3.42882 0.000 0.000 0.000
v -0.46224 -0.11790 3.41748 0.000 0.000 0.000
v -0.38070 -0.06804 3.36528 0.000 0.000 0.000
v -0.37620 -0.08838 3.41964 0.000 0.000 0.000
v -0.45324 -0.09522 3.34710 0.000 0.000 0.000
v -0.34902 0.00000 3.36078 0.000 0.000 0.000
v -0.35118 -0.04302 3.44682 0.000 0.000 0.000
v -0.33300 -0.02952 3.50352 0.000 0.000 0.000
v -0.35568 0.00000 3.46050 0.000 0.000 0.000
v -0.32166 0.00000 3.53754 0.000 0.000 0.000
v -0.34434 0.00000 3.43098 0.000 0.000 0.000
v -0.34776 -0.04536 3.53538 0.000 0.000 0.000
v -0.33984 0.00000 3.54888 0.000 0.000 0.000
v -0.34434 -0.04770 3.56940 0.000 0.000 0.000
v -0.38178 -0.11502 3.50586 0.000 0.000 0.000
v -0.43956 -0.17910 3.46950 0.000 0.000 0.000
v -0.43164 -0.16326 3.54204 0.000 0.000 0.000
v -0.49626 -0.13608 3.38346 0.000 0.000 0.000
v -0.52362 -0.21312 3.54672 0.000 0.000 0.000
v -0.41292 -0.16326 3.59208 0.000 0.000 0.000
v -0.52362 -0.22680 3.48768 0.000 0.000 0.000
v -0.58248 -0.22230 3.48768 0.000 0.000 0.000
v -0.63468 -0.23130 3.59208 0.000 0.000 0.000
v -0.60300 -0.19044 3.45816 0.000 0.000 0.000
v -0.72090 -0.15426 3.47634 0.000 0.000 0.000
v -0.78894 -0.18144 3.58290 0.000 0.000 0.000
v -0.86598 -0.09702 3.50136 0.000 0.000 0.000
v -0.90234 -0.09972 3.60342 0.000 0.000 0.000
v -0.89010 0.00000 3.49110 0.000 0.000 0.000
v -0.77976 -0.20412 3.67362 0.000 0.000 0.000
v -0.62100 -0.20862 3.73266 0.000 0.000 0.000
v -0.92268 0.00000 3.60558 0.000 0.000 0.000
v -0.81162 0.00000 3.42414 0.000 0.000 0.000
v -0.79560 -0.09522 3.44232 0.000 0.000 0.000
v -0.87966 -0.10998 3.71448 0.000 0.000 0.000
v -0.89766 0.00000 3.72348 0.000 0.000 0.000
v -0.82062 -0.12024 3.79620 0.000 0.000 0.000
v -0.74808 -0.18144 3.77352 0.000 0.000 0.000
v -0.59382 -0.12708 3.83688 0.000 0.000 0.000
v -0.46692 -0.12708 3.78252 0.000 0.000 0.000
v -0.57564 0.00000 3.86406 0.000 0.000 0.000
v -0.72756 0.00000 3.86406 0.000 0.000 0.000
v -0.72990 -0.12708 3.83238 0.000 0.000 0.000
v -0.83880 0.00000 3.80970 0.000 0.000 0.000
v -0.43290 0.00000 3.79620 0.000 0.000 0.000
v -0.35568 0.00000 3.68046 0.000 0.000 0.000
v -0.39888 -0.13842 3.68280 0.000 0.000 0.000
v -0.37620 -0.13032 3.59874 0.000 0.000 0.000
v -0.35118 -0.08172 3.57156 0.000 0.000 0.000
v -0.33768 0.00000 3.56472 0.000 0.000 0.000
v -0.50310 -0.20412 3.69630 0.000 0.000 0.000
v -0.82062 0.12024 3.79620 0.000 0.000 0.000
v -0.46692 0.12708 3.78252 0.000 0.000 0.000
v -0.39888 0.13842 3.68280 0.000 0.000 0.000
v -0.59382 0.12708 3.83688 0.000 0.000 0.000
v -0.62100 0.20862 3.73266 0.000 0.000 0.000
v -0.74808 0.18144 3.77352 0.000 0.000 0.000
v -0.77976 0.20412 3.67362 0.000 0.000 0.000
v -0.63468 0.23130 3.59208 0.000 0.000 0.000
v -0.72990 0.12708 3.83238 0.000 0.000 0.000
v -0.78894 0.18144 3.58290 0.000 0.000 0.000
v -0.90234 0.09972 3.60342 0.000 0.000 0.000
v -0.86598 0.09702 3.50136 0.000 0.000 0.000
v -0.72090 0.15426 3.47634 0.000 0.000 0.000
v -0.79560 0.09522 3.44232 0.000 0.000 0.000
v -0.87966 0.10998 3.71448 0.000 0.000 0.000
v -0.60300 0.19044 3.45816 0.000 0.000 0.000
v -0.58248 0.22230 3.48768 0.000 0.000 0.000
v -0.52362 0.22680 3.48768 0.000 0.000 0.000
v -0.49626 0.13608 3.38346 0.000 0.000 0.000
v -0.52362 0.21312 3.54672 0.000 0.000 0.000
v -0.43956 0.17910 3.46950 0.000 0.000 0.000
v -0.46224 0.11790 3.41748 0.000 0.000 0.000
v -0.43164 0.16326 3.54204 0.000 0.000 0.000
v -0.38178 0.11502 3.50586 0.000 0.000 0.000
v -0.37620 0.08838 3.41964 0.000 0.000 0.000
v -0.38070 0.06804 3.36528 0.000 0.000 0.000
v -0.45324 0.09522 3.34710 0.000 0.000 0.000
v -0.41292 0.16326 3.59208 0.000 0.000 0.000
v -0.35118 0.04302 3.44682 0.000 0.000 0.000
v -0.33300 0.02952 3.50352 0.000 0.000 0.000
v -0.34776 0.04536 3.53538 0.000 0.000 0.000
v -0.34434 0.04770 3.56940 0.000 0.000 0.000
v -0.35118 0.08172 3.57156 0.000 0.000 0.000
v -0.37620 0.13032 3.59874 0.000 0.000 0.000
v -0.50310 0.20412 3.69630 0.000 0.000 0.000
v -0.37620 -0.13032 3.59874 0.000 0.000 0.000
v -0.39366 -0.10062 3.55806 0.000 0.000 0.000
v -0.35118 -0.08172 3.57156 0.000 0.000 0.000
v -0.34434 -0.04770 3.56940 0.000 0.000 0.000
v -0.41292 -0.16326 3.59208 0.000 0.000 0.000
v -0.43164 -0.16326 3.54204 0.000 0.000 0.000
v -0.38178 -0.11502 3.50586 0.000 0.000 0.000
v -0.34776 -0.04536 3.53538 0.000 0.000 0.000
v -0.91350 0.00000 3.10338 0.000 0.000 0.000
v -0.94266 0.00000 2.95524 0.000 0.000 0.000
v -0.95436 -0.06354 3.03264 0.000 0.000 0.000
v -0.95436 0.06354 3.03264 0.000 0.000 0.000
v -1.02708 0.00000 3.00402 0.000 0.000 0.000
v -0.90162 -0.28026 2.33856 0.000 0.000 0.000
v -0.62226 -0.14508 2.17242 0.000 0.000 0.000
v -0.89172 -0.31842 2.37258 0.000 0.000 0.000
v -1.06740 -0.12078 2.44890 0.000 0.000 0.000
v -1.07478 -0.12474 2.50218 0.000 0.000 0.000
v -1.08702 -0.05166 2.43918 0.000 0.000 0.000
v -1.07784 -0.07074 2.41596 0.000 0.000 0.000
v -1.09476 -0.05274 2.35620 0.000 0.000 0.000
v -0.89172 -0.31842 2.37258 0.000 0.000 0.000
v -0.87156 -0.27468 2.37204 0.000 0.000 0.000
v -1.02654 -0.11394 2.47860 0.000 0.000 0.000
v -1.07478 -0.12474 2.50218 0.000 0.000 0.000
v -1.08702 -0.05166 2.43918 0.000 0.000 0.000
v -1.05948 -0.05742 2.42532 0.000 0.000 0.000
v -1.09476 -0.05274 2.35620 0.000 0.000 0.000
v -0.85212 -0.35370 2.78730 0.000 0.000 0.000
v -0.40590 -0.14994 2.55510 0.000 0.000 0.000
v -0.83394 -0.41382 2.85858 0.000 0.000 0.000
v -1.01754 -0.11142 2.91996 0.000 0.000 0.000
v -1.02726 -0.10674 2.99142 0.000 0.000 0.000
v -1.04382 -0.02178 2.89422 0.000 0.000 0.000
v -1.03140 -0.05130 2.86722 0.000 0.000 0.000
v -1.05408 -0.03852 2.78460 0.000 0.000 0.000
v -0.83394 -0.41382 2.85858 0.000 0.000 0.000
v -0.79722 -0.33498 2.84652 0.000 0.000 0.000
v -1.02726 -0.10674 2.99142 0.000 0.000 0.000
v -0.96300 -0.09684 2.95830 0.000 0.000 0.000
v -1.04382 -0.02178 2.89422 0.000 0.000 0.000
v -1.00710 -0.03186 2.87694 0.000 0.000 0.000
v -1.05408 -0.03852 2.78460 0.000 0.000 0.000
v -0.90162 -0.30276 2.53944 0.000 0.000 0.000
v -0.53748 -0.13194 2.32884 0.000 0.000 0.000
v -0.88830 -0.35352 2.58480 0.000 0.000 0.000
v -1.06344 -0.12222 2.66148 0.000 0.000 0.000
v -1.07190 -0.12672 2.72286 0.000 0.000 0.000
v -1.08612 -0.04266 2.65032 0.000 0.000 0.000
v -1.07532 -0.06462 2.62386 0.000 0.000 0.000
v -1.09494 -0.04392 2.55492 0.000 0.000 0.000
v -0.88830 -0.35352 2.58480 0.000 0.000 0.000
v -0.86148 -0.29520 2.58426 0.000 0.000 0.000
v -1.01646 -0.11430 2.69586 0.000 0.000 0.000
v -1.07190 -0.12672 2.72286 0.000 0.000 0.000
v -1.08612 -0.04266 2.65032 0.000 0.000 0.000
v -1.05444 -0.04914 2.63448 0.000 0.000 0.000
v -1.09494 -0.04392 2.55492 0.000 0.000 0.000
v -1.09062 0.00000 2.27268 0.000 0.000 0.000
v -1.02924 0.00000 2.14686 0.000 0.000 0.000
v -1.08162 -0.05436 2.18682 0.000 0.000 0.000
v -1.08162 0.05436 2.18682 0.000 0.000 0.000
v -1.12446 0.00000 2.13678 0.000 0.000 0.000
v -1.09566 0.00000 2.40786 0.000 0.000 0.000
v -1.05354 0.00000 2.30400 0.000 0.000 0.000
v -1.09314 -0.04356 2.33892 0.000 0.000 0.000
v -1.09314 0.04356 2.33892 0.000 0.000 0.000
v -1.13022 0.00000 2.30130 0.000 0.000 0.000
v -1.09332 0.00000 2.54844 0.000 0.000 0.000
v -1.05678 0.00000 2.44260 0.000 0.000 0.000
v -1.09458 -0.04356 2.47950 0.000 0.000 0.000
v -1.09458 0.04356 2.47950 0.000 0.000 0.000
v -1.13346 0.00000 2.44386 0.000 0.000 0.000
v -1.08090 0.00000 2.69316 0.000 0.000 0.000
v -1.05174 0.00000 2.58498 0.000 0.000 0.000
v -1.08684 -0.04356 2.62440 0.000 0.000 0.000
v -1.08684 0.04356 2.62440 0.000 0.000 0.000
v -1.12824 0.00000 2.59164 0.000 0.000 0.000
v -1.04202 0.00000 2.83806 0.000 0.000 0.000
v -1.02708 0.00000 2.74608 0.000 0.000 0.000
v -1.05588 -0.04356 2.78676 0.000 0.000 0.000
v -1.05588 0.04356 2.78676 0.000 0.000 0.000
v -1.10106 0.00000 2.76588 0.000 0.000 0.000
v -0.35118 0.08172 3.57156 0.000 0.000 0.000
v -0.39366 0.10062 3.55806 0.000 0.000 0.000
v -0.37620 0.13032 3.59874 0.000 0.000 0.000
v -0.34434 0.04770 3.56940 0.000 0.000 0.000
v -0.41292 0.16326 3.59208 0.000 0.000 0.000
v -0.43164 0.16326 3.54204 0.000 0.000 0.000
v -0.38178 0.11502 3.50586 0.000 0.000 0.000
v -0.34776 0.04536 3.53538 0.000 0.000 0.000
v -0.89172 0.31842 2.37258 0.000 0.000 0.000
v -0.62226 0.14508 2.17242 0.000 0.000 0.000
v -0.90162 0.28026 2.33856 0.000 0.000 0.000
v -1.06740 0.12078 2.44890 0.000 0.000 0.000
v -1.07478 0.12474 2.50218 0.000 0.000 0.000
v -1.08702 0.05166 2.43918 0.000 0.000 0.000
v -1.07784 0.07074 2.41596 0.000 0.000 0.000
v -1.09476 0.05274 2.35620 0.000 0.000 0.000
v -0.87156 0.27468 2.37204 0.000 0.000 0.000
v -0.89172 0.31842 2.37258 0.000 0.000 0.000
v -1.02654 0.11394 2.47860 0.000 0.000 0.000
v -1.07478 0.12474 2.50218 0.000 0.000 0.000
v -1.08702 0.05166 2.43918 0.000 0.000 0.000
v -1.05948 0.05742 2.42532 0.000 0.000 0.000
v -1.09476 0.05274 2.35620 0.000 0.000 0.000
v -0.83394 0.41382 2.85858 0.000 0.000 0.000
v -0.40590 0.14994 2.55510 0.000 0.000 0.000
v -0.85212 0.35370 2.78730 0.000 0.000 0.000
v -1.01754 0.11142 2.91996 0.000 0.000 0.000
v -1.02726 0.10674 2.99142 0.000 0.000 0.000
v -1.04382 0.02178 2.89422 0.000 0.000 0.000
v -1.03140 0.05130 2.86722 0.000 0.000 0.000
v -1.05408 0.03852 2.78460 0.000 0.000 0.000
v -0.79722 0.33498 2.84652 0.000 0.000 0.000
v -0.83394 0.41382 2.85858 0.000 0.000 0.000
v -1.02726 0.10674 2.99142 0.000 0.000 0.000
v -0.96300 0.09684 2.95830 0.000 0.000 0.000
v -1.04382 0.02178 2.89422 0.000 0.000 0.000
v -1.00710 0.03186 2.87694 0.000 0.000 0.000
v -1.05408 0.03852 2.78460 0.000 0.000 0.000
v -0.88830 0.35352 2.58480 0.000 0.000 0.000
v -0.53748 0.13194 2.32884 0.000 0.000 0.000
v -0.90162 0.30276 2.53944 0.000 0.000 0.000
v -1.06344 0.12222 2.66148 0.000 0.000 0.000
v -1.07190 0.12672 2.72286 0.000 0.000 0.000
v -1.08612 0.04266 2.65032 0.000 0.000 0.000
v -1.07532 0.06462 2.62386 0.000 0.000 0.000
v -1.09494 0.04392 2.55492 0.000 0.000 0.000
v -0.86148 0.29520 2.58426 0.000 0.000 0.000
v -0.88830 0.35352 2.58480 0.000 0.000 0.000
v -1.01646 0.11430 2.69586 0.000 0.000 0.000
v -1.07190 0.12672 2.72286 0.000 0.000 0.000
v -1.08612 0.04266 2.65032 0.000 0.000 0.000
v -1.05444 0.04914 2.63448 0.000 0.000 0.000
v -1.09494 0.04392 2.55492 0.000 0.000 0.000
v 0.02340 -1.15488 2.23830 0.000 0.000 0.000
v 0.18792 -0.99450 2.15316 0.000 0.000 0.000
v 0.03978 -1.14984 2.27916 0.000 0.000 0.000
v 0.20412 -0.98946 2.19420 0.000 0.000 0.000
v 0.20412 -0.98946 2.19420 0.000 0.000 0.000
v 0.18792 -0.99450 2.15316 0.000 0.000 0.000
v -0.07776 -0.68616 2.22066 0.000 0.000 0.000
v -0.06156 -0.68112 2.26152 0.000 0.000 0.000
v -0.24228 -0.84654 2.30562 0.000 0.000 0.000
v 0.02340 -1.15488 2.23830 0.000 0.000 0.000
v -0.22590 -0.84150 2.34666 0.000 0.000 0.000
v 0.03978 -1.14984 2.27916 0.000 0.000 0.000
v -0.06156 -0.68112 2.26152 0.000 0.000 0.000
v -0.07776 -0.68616 2.22066 0.000 0.000 0.000
v -0.24228 -0.84654 2.30562 0.000 0.000 0.000
v -0.22590 -0.84150 2.34666 0.000 0.000 0.000
v -0.30510 -0.94176 1.57608 0.000 0.000 0.000
v -0.23256 -1.02600 1.55772 0.000 0.000 0.000
v -0.26802 -1.06056 1.57608 0.000 0.000 0.000
v -0.34056 -0.97632 1.59444 0.000 0.000 0.000
v 0.03978 1.14984 2.27916 0.000 0.000 0.000
v 0.18792 0.99450 2.15316 0.000 0.000 0.000
v 0.02340 1.15488 2.23830 0.000 0.000 0.000
v 0.20412 0.98946 2.19420 0.000 0.000 0.000
v -0.07776 0.68616 2.22066 0.000 0.000 0.000
v 0.18792 0.99450 2.15316 0.000 0.000 0.000
v 0.20412 0.98946 2.19420 0.000 0.000 0.000
v -0.06156 0.68112 2.26152 0.000 0.000 0.000
v -0.22590 0.84150 2.34666 0.000 0.000 0.000
v 0.02340 1.15488 2.23830 0.000 0.000 0.000
v -0.24228 0.84654 2.30562 0.000 0.000 0.000
v 0.03978 1.14984 2.27916 0.000 0.000 0.000
v -0.24228 0.84654 2.30562 0.000 0.000 0.000
v -0.07776 0.68616 2.22066 0.000 0.000 0.000
v -0.06156 0.68112 2.26152 0.000 0.000 0.000
v -0.22590 0.84150 2.34666 0.000 0.000 0.000
v -0.26802 1.06056 1.57608 0.000 0.000 0.000
v -0.23256 1.02600 1.55772 0.000 0.000 0.000
v -0.30510 0.94176 1.57608 0.000 0.000 0.000
v -0.34056 0.97632 1.59444 0.000 0.000 0.000
v -0.91404 -0.52254 3.00456 0.000 0.000 0.000
v -0.84996 -0.48294 2.94336 0.000 0.000 0.000
v -0.96642 -0.48294 2.93310 0.000 0.000 0.000
v -0.85068 -0.44712 2.78100 0.000 0.000 0.000
v -0.93744 -0.44712 2.77326 0.000 0.000 0.000
v -0.89136 -0.39978 2.74662 0.000 0.000 0.000
v -0.90792 -0.72504 2.19024 0.000 0.000 0.000
v -0.77850 -0.72504 2.20158 0.000 0.000 0.000
v -0.84384 -0.76086 2.20356 0.000 0.000 0.000
v -0.89676 -0.64296 2.19186 0.000 0.000 0.000
v -0.78966 -0.64296 2.20122 0.000 0.000 0.000
v -0.90522 -0.60570 2.15892 0.000 0.000 0.000
v -0.77580 -0.60570 2.17026 0.000 0.000 0.000
v -0.83916 -0.56268 2.14992 0.000 0.000 0.000
v -0.35370 -0.85428 1.92996 0.000 0.000 0.000
v -0.33678 -0.82530 1.94490 0.000 0.000 0.000
v -0.33426 -0.85320 1.95156 0.000 0.000 0.000
v -0.35010 -0.82962 1.92294 0.000 0.000 0.000
v -0.84600 -0.64890 2.13390 0.000 0.000 0.000
v -0.83934 -0.62226 2.12292 0.000 0.000 0.000
v -0.85752 -0.65358 2.10708 0.000 0.000 0.000
v -0.84546 -0.63072 2.09736 0.000 0.000 0.000
v -0.34020 -0.90288 1.98990 0.000 0.000 0.000
v -0.31590 -0.86094 2.01114 0.000 0.000 0.000
v -0.31230 -0.90306 2.02410 0.000 0.000 0.000
v -0.33246 -0.86976 1.98162 0.000 0.000 0.000
v -0.80478 -0.70218 2.19114 0.000 0.000 0.000
v -0.82440 -0.65448 2.18646 0.000 0.000 0.000
v -0.84906 -0.69696 2.16468 0.000 0.000 0.000
v -0.85158 -0.65826 2.15820 0.000 0.000 0.000
v -0.96642 0.48294 2.93310 0.000 0.000 0.000
v -0.84996 0.48294 2.94336 0.000 0.000 0.000
v -0.91404 0.52254 3.00456 0.000 0.000 0.000
v -0.85068 0.44712 2.78100 0.000 0.000 0.000
v -0.93744 0.44712 2.77326 0.000 0.000 0.000
v -0.89136 0.39978 2.74662 0.000 0.000 0.000
v -0.84384 0.76086 2.20356 0.000 0.000 0.000
v -0.77850 0.72504 2.20158 0.000 0.000 0.000
v -0.90792 0.72504 2.19024 0.000 0.000 0.000
v -0.89676 0.64296 2.19186 0.000 0.000 0.000
v -0.78966 0.64296 2.20122 0.000 0.000 0.000
v -0.90522 0.60570 2.15892 0.000 0.000 0.000
v -0.77580 0.60570 2.17026 0.000 0.000 0.000
v -0.83916 0.56268 2.14992 0.000 0.000 0.000
v -0.33426 0.85320 1.95156 0.000 0.000 0.000
v -0.33678 0.82530 1.94490 0.000 0.000 0.000
v -0.35370 0.85428 1.92996 0.000 0.000 0.000
v -0.35010 0.82962 1.92294 0.000 0.000 0.000
v -0.85752 0.65358 2.10708 0.000 0.000 0.000
v -0.83934 0.62226 2.12292 0.000 0.000 0.000
v -0.84600 0.64890 2.13390 0.000 0.000 0.000
v -0.84546 0.63072 2.09736 0.000 0.000 0.000
v -0.31230 0.90306 2.02410 0.000 0.000 0.000
v -0.31590 0.86094 2.01114 0.000 0.000 0.000
v -0.34020 0.90288 1.98990 0.000 0.000 0.000
v -0.33246 0.86976 1.98162 0.000 0.000 0.000
v -0.84906 0.69696 2.16468 0.000 0.000 0.000
v -0.82440 0.65448 2.18646 0.000 0.000 0.000
v -0.80478 0.70218 2.19114 0.000 0.000 0.000
v -0.85158 0.65826 2.15820 0.000 0.000 0.000
v -0.44622 -0.24732 3.82860 0.000 0.000 0.000
v -0.51462 -0.15282 3.70872 0.000 0.000 0.000
v -0.42354 -0.29034 3.78810 0.000 0.000 0.000
v -0.50292 -0.17280 3.62394 0.000 0.000 0.000
v -0.30294 -0.37188 4.11228 0.000 0.000 0.000
v -0.42354 -0.15282 3.65616 0.000 0.000 0.000
v -0.37656 -0.25650 3.79386 0.000 0.000 0.000
v -0.43542 -0.13302 3.74094 0.000 0.000 0.000
v -0.39924 -0.21348 3.83418 0.000 0.000 0.000
v -0.30294 -0.37188 4.11228 0.000 0.000 0.000
v -0.42354 0.29034 3.78810 0.000 0.000 0.000
v -0.51462 0.15282 3.70872 0.000 0.000 0.000
v -0.44622 0.24732 3.82860 0.000 0.000 0.000
v -0.50292 0.17280 3.62394 0.000 0.000 0.000
v -0.30294 0.37188 4.11228 0.000 0.000 0.000
v -0.42354 0.15282 3.65616 0.000 0.000 0.000
v -0.37656 0.25650 3.79386 0.000 0.000 0.000
v -0.43542 0.13302 3.74094 0.000 0.000 0.000
v -0.39924 0.21348 3.83418 0.000 0.000 0.000
v -0.30294 0.37188 4.11228 0.000 0.000 0.000
v -0.94266 0.00000 2.95524 0.000 0.000 0.000
v -1.02006 0.00000 2.91870 0.000 0.000 0.000
v -0.95436 -0.06354 3.03264 0.000 0.000 0.000
v -0.95436 0.06354 3.03264 0.000 0.000 0.000
v -1.02708 0.00000 3.00402 0.000 0.000 0.000
v -1.02654 -0.11394 2.47860 0.000 0.000 0.000
v -0.90162 -0.28026 2.33856 0.000 0.000 0.000
v -1.06740 -0.12078 2.44890 0.000 0.000 0.000
v -0.87156 -0.27468 2.37204 0.000 0.000 0.000
v -0.62226 -0.14508 2.17242 0.000 0.000 0.000
v -1.07784 -0.07074 2.41596 0.000 0.000 0.000
v -1.05948 -0.05742 2.42532 0.000 0.000 0.000
v -1.09476 -0.05274 2.35620 0.000 0.000 0.000
v -0.96300 -0.09684 2.95830 0.000 0.000 0.000
v -0.85212 -0.35370 2.78730 0.000 0.000 0.000
v -1.01754 -0.11142 2.91996 0.000 0.000 0.000
v -0.79722 -0.33498 2.84652 0.000 0.000 0.000
v -0.40590 -0.14994 2.55510 0.000 0.000 0.000
v -1.03140 -0.05130 2.86722 0.000 0.000 0.000
v -1.00710 -0.03186 2.87694 0.000 0.000 0.000
v -1.05408 -0.03852 2.78460 0.000 0.000 0.000
v -1.01646 -0.11430 2.69586 0.000 0.000 0.000
v -0.90162 -0.30276 2.53944 0.000 0.000 0.000
v -1.06344 -0.12222 2.66148 0.000 0.000 0.000
v -0.86148 -0.29520 2.58426 0.000 0.000 0.000
v -0.53748 -0.13194 2.32884 0.000 0.000 0.000
v -1.07532 -0.06462 2.62386 0.000 0.000 0.000
v -1.05444 -0.04914 2.63448 0.000 0.000 0.000
v -1.09494 -0.04392 2.55492 0.000 0.000 0.000
v -1.02924 0.00000 2.14686 0.000 0.000 0.000
v -1.04418 0.00000 1.83060 0.000 0.000 0.000
v -1.08162 -0.05436 2.18682 0.000 0.000 0.000
v -1.08162 0.05436 2.18682 0.000 0.000 0.000
v -1.12446 0.00000 2.13678 0.000 0.000 0.000
v -1.05354 0.00000 2.30400 0.000 0.000 0.000
v -1.09026 0.00000 2.25270 0.000 0.000 0.000
v -1.09314 -0.04356 2.33892 0.000 0.000 0.000
v -1.09314 0.04356 2.33892 0.000 0.000 0.000
v -1.13022 0.00000 2.30130 0.000 0.000 0.000
v -1.05678 0.00000 2.44260 0.000 0.000 0.000
v -1.09602 0.00000 2.39328 0.000 0.000 0.000
v -1.09458 -0.04356 2.47950 0.000 0.000 0.000
v -1.09458 0.04356 2.47950 0.000 0.000 0.000
v -1.13346 0.00000 2.44386 0.000 0.000 0.000
v -1.05174 0.00000 2.58498 0.000 0.000 0.000
v -1.09440 0.00000 2.53854 0.000 0.000 0.000
v -1.08684 -0.04356 2.62440 0.000 0.000 0.000
v -1.08684 0.04356 2.62440 0.000 0.000 0.000
v -1.12824 0.00000 2.59164 0.000 0.000 0.000
v -1.02708 0.00000 2.74608 0.000 0.000 0.000
v -1.08216 0.00000 2.68812 0.000 0.000 0.000
v -1.05588 -0.04356 2.78676 0.000 0.000 0.000
v -1.05588 0.04356 2.78676 0.000 0.000 0.000
v -1.10106 0.00000 2.76588 0.000 0.000 0.000
v -1.06740 0.12078 2.44890 0.000 0.000 0.000
v -0.90162 0.28026 2.33856 0.000 0.000 0.000
v -1.02654 0.11394 2.47860 0.000 0.000 0.000
v -0.87156 0.27468 2.37204 0.000 0.000 0.000
v -0.62226 0.14508 2.17242 0.000 0.000 0.000
v -1.07784 0.07074 2.41596 0.000 0.000 0.000
v -1.05948 0.05742 2.42532 0.000 0.000 0.000
v -1.09476 0.05274 2.35620 0.000 0.000 0.000
v -1.01754 0.11142 2.91996 0.000 0.000 0.000
v -0.85212 0.35370 2.78730 0.000 0.000 0.000
v -0.96300 0.09684 2.95830 0.000 0.000 0.000
v -0.79722 0.33498 2.84652 0.000 0.000 0.000
v -0.40590 0.14994 2.55510 0.000 0.000 0.000
v -1.03140 0.05130 2.86722 0.000 0.000 0.000
v -1.00710 0.03186 2.87694 0.000 0.000 0.000
v -1.05408 0.03852 2.78460 0.000 0.000 0.000
v -1.06344 0.12222 2.66148 0.000 0.000 0.000
v -0.90162 0.30276 2.53944 0.000 0.000 0.000
v -1.01646 0.11430 2.69586 0.000 0.000 0.000
v -0.86148 0.29520 2.58426 0.000 0.000 0.000
v -0.53748 0.13194 2.32884 0.000 0.000 0.000
v -1.07532 0.06462 2.62386 0.000 0.000 0.000
v -1.05444 0.04914 2.63448 0.000 0.000 0.000
v -1.09494 0.04392 2.55492 0.000 0.000 0.000
v -0.34056 -0.97632 1.59444 0.000 0.000 0.000
v -0.26802 -1.06056 1.57608 0.000 0.000 0.000
v -0.00630 -0.97920 2.23524 0.000 0.000 0.000
v -0.07884 -0.89496 2.25360 0.000 0.000 0.000
v -0.26802 -1.06056 1.57608 0.000 0.000 0.000
v -0.23256 -1.02600 1.55772 0.000 0.000 0.000
v -0.00630 -0.97920 2.23524 0.000 0.000 0.000
v 0.02916 -0.94464 2.21688 0.000 0.000 0.000
v -0.30510 -0.94176 1.57608 0.000 0.000 0.000
v -0.04338 -0.86040 2.23524 0.000 0.000 0.000
v -0.04338 -0.86040 2.23524 0.000 0.000 0.000
v -0.30510 -0.94176 1.57608 0.000 0.000 0.000
v -0.34056 -0.97632 1.59444 0.000 0.000 0.000
v -0.07884 -0.89496 2.25360 0.000 0.000 0.000
v 0.82566 -0.66582 4.35798 0.000 0.000 0.000
v 0.81144 -0.71298 4.24134 0.000 0.000 0.000
v 0.73872 -0.62874 4.25970 0.000 0.000 0.000
v 0.80802 -0.60732 4.43430 0.000 0.000 0.000
v -0.04950 -0.87408 2.27376 0.000 0.000 0.000
v 0.02304 -0.95832 2.25540 0.000 0.000 0.000
v 0.03978 -1.14984 2.27916 0.000 0.000 0.000
v 0.20412 -0.98946 2.19420 0.000 0.000 0.000
v -0.22590 -0.84150 2.34666 0.000 0.000 0.000
v -0.06156 -0.68112 2.26152 0.000 0.000 0.000
v -0.07776 -0.68616 2.22066 0.000 0.000 0.000
v 0.18792 -0.99450 2.15316 0.000 0.000 0.000
v -0.24228 -0.84654 2.30562 0.000 0.000 0.000
v 0.02340 -1.15488 2.23830 0.000 0.000 0.000
v -0.00630 0.97920 2.23524 0.000 0.000 0.000
v -0.26802 1.06056 1.57608 0.000 0.000 0.000
v -0.34056 0.97632 1.59444 0.000 0.000 0.000
v -0.07884 0.89496 2.25360 0.000 0.000 0.000
v -0.00630 0.97920 2.23524 0.000 0.000 0.000
v -0.23256 1.02600 1.55772 0.000 0.000 0.000
v -0.26802 1.06056 1.57608 0.000 0.000 0.000
v 0.02916 0.94464 2.21688 0.000 0.000 0.000
v -0.30510 0.94176 1.57608 0.000 0.000 0.000
v -0.04338 0.86040 2.23524 0.000 0.000 0.000
v -0.34056 0.97632 1.59444 0.000 0.000 0.000
v -0.30510 0.94176 1.57608 0.000 0.000 0.000
v -0.04338 0.86040 2.23524 0.000 0.000 0.000
v -0.07884 0.89496 2.25360 0.000 0.000 0.000
v 0.73872 0.62874 4.25970 0.000 0.000 0.000
v 0.81144 0.71298 4.24134 0.000 0.000 0.000
v 0.82566 0.66582 4.35798 0.000 0.000 0.000
v 0.80802 0.60732 4.43430 0.000 0.000 0.000
v -0.04950 0.87408 2.27376 0.000 0.000 0.000
v 0.02304 0.95832 2.25540 0.000 0.000 0.000
v -0.22590 0.84150 2.34666 0.000 0.000 0.000
v 0.20412 0.98946 2.19420 0.000 0.000 0.000
v 0.03978 1.14984 2.27916 0.000 0.000 0.000
v -0.06156 0.68112 2.26152 0.000 0.000 0.000
v -0.24228 0.84654 2.30562 0.000 0.000 0.000
v 0.18792 0.99450 2.15316 0.000 0.000 0.000
v -0.07776 0.68616 2.22066 0.000 0.000 0.000
v 0.02340 1.15488 2.23830 0.000 0.000 0.000
v -0.43974 -0.70704 1.60956 0.000 0.000 0.000
v -0.36270 -1.24146 1.48482 0.000 0.000 0.000
v -0.49248 -0.78948 2.05416 0.000 0.000 0.000
v -0.08874 -1.28592 1.99926 0.000 0.000 0.000
v 0.11844 -1.21050 2.68758 0.000 0.000 0.000
v 0.10872 -0.88920 2.66274 0.000 0.000 0.000
v 0.01944 -0.70632 2.95884 0.000 0.000 0.000
v -0.13410 -0.74412 2.36106 0.000 0.000 0.000
v 0.45234 -1.18458 2.99664 0.000 0.000 0.000
v 0.21600 -1.14714 2.56248 0.000 0.000 0.000
v 0.45000 -1.16172 3.53142 0.000 0.000 0.000
v 0.11250 -0.68868 3.48804 0.000 0.000 0.000
v 0.32508 -0.80892 3.80934 0.000 0.000 0.000
v 0.29538 -0.72918 3.41820 0.000 0.000 0.000
v 0.69246 -1.08216 3.63582 0.000 0.000 0.000
v 0.33696 -1.02528 3.14748 0.000 0.000 0.000
v 0.90396 -1.27566 4.06566 0.000 0.000 0.000
v 0.55098 -0.93420 4.12632 0.000 0.000 0.000
v 0.78822 -0.58212 4.23900 0.000 0.000 0.000
v 0.59202 -0.65700 3.77352 0.000 0.000 0.000
v 0.98154 -0.92070 4.32792 0.000 0.000 0.000
v 0.72018 -0.89586 3.78216 0.000 0.000 0.000
v 1.04526 -0.92394 4.71870 0.000 0.000 0.000
v 0.85176 -0.58536 4.62978 0.000 0.000 0.000
v 0.46368 -0.63000 3.24486 0.000 0.000 0.000
v 0.29052 -0.78606 2.91492 0.000 0.000 0.000
v 0.56304 -0.95994 3.55158 0.000 0.000 0.000
v 0.38826 -1.01376 2.94624 0.000 0.000 0.000
v 0.75960 -0.95094 4.00194 0.000 0.000 0.000
v 0.65178 -0.66078 3.79224 0.000 0.000 0.000
v 0.07794 -0.66024 2.03958 0.000 0.000 0.000
v -0.13968 -0.73404 1.76868 0.000 0.000 0.000
v 0.18792 -1.19502 1.94058 0.000 0.000 0.000
v -0.10188 -1.15218 1.71324 0.000 0.000 0.000
v 0.35136 -1.20942 2.36844 0.000 0.000 0.000
v 0.24138 -0.67482 2.46744 0.000 0.000 0.000
v -0.08874 1.28592 1.99926 0.000 0.000 0.000
v -0.36270 1.24146 1.48482 0.000 0.000 0.000
v -0.49248 0.78948 2.05416 0.000 0.000 0.000
v 0.11844 1.21050 2.68758 0.000 0.000 0.000
v 0.10872 0.88920 2.66274 0.000 0.000 0.000
v -0.43974 0.70704 1.60956 0.000 0.000 0.000
v 0.45234 1.18458 2.99664 0.000 0.000 0.000
v -0.13410 0.74412 2.36106 0.000 0.000 0.000
v 0.01944 0.70632 2.95884 0.000 0.000 0.000
v 0.21600 1.14714 2.56248 0.000 0.000 0.000
v 0.45000 1.16172 3.53142 0.000 0.000 0.000
v 0.11250 0.68868 3.48804 0.000 0.000 0.000
v 0.69246 1.08216 3.63582 0.000 0.000 0.000
v 0.29538 0.72918 3.41820 0.000 0.000 0.000
v 0.32508 0.80892 3.80934 0.000 0.000 0.000
v 0.33696 1.02528 3.14748 0.000 0.000 0.000
v 0.90396 1.27566 4.06566 0.000 0.000 0.000
v 0.55098 0.93420 4.12632 0.000 0.000 0.000
v 0.98154 0.92070 4.32792 0.000 0.000 0.000
v 0.59202 0.65700 3.77352 0.000 0.000 0.000
v 0.78822 0.58212 4.23900 0.000 0.000 0.000
v 0.72018 0.89586 3.78216 0.000 0.000 0.000
v 1.04526 0.92394 4.71870 0.000 0.000 0.000
v 0.85176 0.58536 4.62978 0.000 0.000 0.000
v 0.56304 0.95994 3.55158 0.000 0.000 0.000
v 0.29052 0.78606 2.91492 0.000 0.000 0.000
v 0.46368 0.63000 3.24486 0.000 0.000 0.000
v 0.38826 1.01376 2.94624 0.000 0.000 0.000
v 0.75960 0.95094 4.00194 0.000 0.000 0.000
v 0.65178 0.66078 3.79224 0.000 0.000 0.000
v 0.18792 1.19502 1.94058 0.000 0.000 0.000
v -0.13968 0.73404 1.76868 0.000 0.000 0.000
v 0.07794 0.66024 2.03958 0.000 0.000 0.000
v -0.10188 1.15218 1.71324 0.000 0.000 0.000
v 0.35136 1.20942 2.36844 0.000 0.000 0.000
v 0.24138 0.67482 2.46744 0.000 0.000 0.000
v -0.27018 -0.10206 3.86640 0.000 0.000 0.000
v -0.31158 -0.00900 3.58740 0.000 0.000 0.000
v -0.38322 -0.30618 3.80970 0.000 0.000 0.000
v -0.42552 -0.17010 3.45816 0.000 0.000 0.000
v -0.13194 -0.10206 4.18392 0.000 0.000 0.000
v -0.25830 -0.35154 4.22928 0.000 0.000 0.000
v -0.86058 -0.20304 3.24612 0.000 0.000 0.000
v -0.47052 -0.11466 3.18150 0.000 0.000 0.000
v -0.68922 -0.29826 3.51972 0.000 0.000 0.000
v -0.28728 -0.10944 3.35718 0.000 0.000 0.000
v -0.60300 -0.44082 3.85506 0.000 0.000 0.000
v -0.23094 -0.12960 3.71448 0.000 0.000 0.000
v -0.38322 0.30618 3.80970 0.000 0.000 0.000
v -0.31158 0.00900 3.58740 0.000 0.000 0.000
v -0.27018 0.10206 3.86640 0.000 0.000 0.000
v -0.42552 0.17010 3.45816 0.000 0.000 0.000
v -0.13194 0.10206 4.18392 0.000 0.000 0.000
v -0.25830 0.35154 4.22928 0.000 0.000 0.000
v -0.68922 0.29826 3.51972 0.000 0.000 0.000
v -0.47052 0.11466 3.18150 0.000 0.000 0.000
v -0.86058 0.20304 3.24612 0.000 0.000 0.000
v -0.28728 0.10944 3.35718 0.000 0.000 0.000
v -0.60300 0.44082 3.85506 0.000 0.000 0.000
v -0.23094 0.12960 3.71448 0.000 0.000 0.000
vt 0.99219 0.55469
vt 0.91406 0.46094
vt 0.96094 0.74219
vt 0.99219 0.74219
vt 0.91406 0.74219
vt 0.85156 0.55469
vt 0.85156 0.74219
vt 0.99219 0.35156
vt 0.85156 0.35156
vt 0.91406 0.24219
vt 0.96094 0.24219
vt 0.99219 0.24219
vt 0.88281 0.24219
vt 0.85156 0.24219
vt 0.96094 0.74219
vt 0.91406 0.46094
vt 0.91406 0.74219
vt 0.96094 0.24219
vt 0.88281 0.24219
vt 0.91406 0.24219
vt 0.99219 0.24219
vt 0.91406 0.24219
vt 0.99219 0.74219
vt 0.91406 0.74219
vt 0.85156 0.24219
vt 0.85156 0.74219
vt 0.91406 0.24219
vt 0.91406 0.74219
vt 0.80469 0.36719
vt 0.80469 0.32031
vt 0.83594 0.32031
vt 0.78906 0.24219
vt 0.83594 0.24219
vt 0.83594 0.36719
vt 0.82031 0.42969
vt 0.83594 0.33594
vt 0.75781 0.24219
vt 0.75781 0.33594
vt 0.83594 0.42969
vt 0.77344 0.42969
vt 0.74219 0.24219
vt 0.80469 0.33594
vt 0.74219 0.33594
vt 0.80469 0.24219
vt 0.80469 0.42969
vt 0.74219 0.42969
vt 0.77344 0.24219
vt 0.77344 0.42969
vt 0.83594 0.24219
vt 0.83594 0.42969
vt 0.74219 0.42969
vt 0.74219 0.24219
vt 0.80469 0.24219
vt 0.80469 0.42969
vt 0.83594 0.24219
vt 0.77344 0.24219
vt 0.77344 0.42969
vt 0.83594 0.42969
vt 0.80469 0.42969
vt 0.74219 0.42969
vt 0.74219 0.24219
vt 0.80469 0.24219
vt 0.77344 0.41406
vt 0.74219 0.24219
vt 0.80469 0.24219
vt 0.80469 0.41406
vt 0.77344 0.24219
vt 0.83594 0.24219
vt 0.83594 0.42969
vt 0.83594 0.24219
vt 0.78906 0.42969
vt 0.78906 0.24219
vt 0.78906 0.24219
vt 0.78906 0.42969
vt 0.83594 0.42969
vt 0.83594 0.24219
vt 0.83594 0.24219
vt 0.78906 0.24219
vt 0.82031 0.42969
vt 0.86719 0.42969
vt 0.88281 0.38281
vt 0.86719 0.36719
vt 0.78906 0.42969
vt 0.78906 0.33594
vt 0.83594 0.33594
vt 0.83594 0.42969
vt 0.83594 0.24219
vt 0.78906 0.24219
vt 0.77344 0.24219
vt 0.77344 0.33594
vt 0.77344 0.42969
vt 0.74219 0.24219
vt 0.80469 0.24219
vt 0.80469 0.33594
vt 0.74219 0.33594
vt 0.74219 0.42969
vt 0.82031 0.42969
vt 0.83594 0.28906
vt 0.78906 0.28906
vt 0.82031 0.25781
vt 0.77344 0.42969
vt 0.83594 0.42969
vt 0.77344 0.24219
vt 0.83594 0.24219
vt 0.74219 0.42969
vt 0.74219 0.24219
vt 0.80469 0.24219
vt 0.80469 0.42969
vt 0.77344 0.42969
vt 0.83594 0.24219
vt 0.77344 0.24219
vt 0.83594 0.42969
vt 0.80469 0.42969
vt 0.74219 0.42969
vt 0.74219 0.24219
vt 0.80469 0.24219
vt 0.77344 0.41406
vt 0.74219 0.24219
vt 0.80469 0.24219
vt 0.80469 0.41406
vt 0.77344 0.24219
vt 0.83594 0.24219
vt 0.83594 0.24219
vt 0.78906 0.42969
vt 0.83594 0.42969
vt 0.78906 0.24219
vt 0.78906 0.24219
vt 0.78906 0.42969
vt 0.83594 0.42969
vt 0.83594 0.24219
vt 0.83594 0.24219
vt 0.78906 0.24219
vt 0.82031 0.42969
vt 0.88281 0.38281
vt 0.86719 0.36719
vt 0.86719 0.42969
vt 0.77344 0.42969
vt 0.83594 0.42969
vt 0.77344 0.24219
vt 0.83594 0.24219
vt 0.74219 0.42969
vt 0.74219 0.24219
vt 0.80469 0.24219
vt 0.80469 0.42969
vt 0.77344 0.42969
vt 0.83594 0.24219
vt 0.77344 0.24219
vt 0.83594 0.42969
vt 0.80469 0.24219
vt 0.80469 0.42969
vt 0.74219 0.24219
vt 0.74219 0.42969
vt 0.77344 0.41406
vt 0.74219 0.24219
vt 0.80469 0.24219
vt 0.80469 0.41406
vt 0.77344 0.24219
vt 0.83594 0.24219
vt 0.83594 0.42969
vt 0.78906 0.24219
vt 0.78906 0.42969
vt 0.83594 0.24219
vt 0.78906 0.24219
vt 0.78906 0.42969
vt 0.83594 0.42969
vt 0.83594 0.24219
vt 0.83594 0.24219
vt 0.78906 0.24219
vt 0.82031 0.42969
vt 0.88281 0.38281
vt 0.86719 0.36719
vt 0.86719 0.42969
vt 0.77344 0.24219
vt 0.77344 0.42969
vt 0.83594 0.42969
vt 0.83594 0.24219
vt 0.74219 0.42969
vt 0.74219 0.24219
vt 0.80469 0.24219
vt 0.80469 0.42969
vt 0.83594 0.24219
vt 0.77344 0.24219
vt 0.77344 0.42969
vt 0.83594 0.42969
vt 0.80469 0.42969
vt 0.74219 0.42969
vt 0.74219 0.24219
vt 0.80469 0.24219
vt 0.77344 0.41406
vt 0.74219 0.24219
vt 0.80469 0.24219
vt 0.80469 0.41406
vt 0.77344 0.24219
vt 0.83594 0.24219
vt 0.83594 0.42969
vt 0.78906 0.24219
vt 0.78906 0.42969
vt 0.83594 0.24219
vt 0.83594 0.24219
vt 0.78906 0.42969
vt 0.83594 0.42969
vt 0.78906 0.24219
vt 0.83594 0.24219
vt 0.78906 0.24219
vt 0.82031 0.42969
vt 0.88281 0.38281
vt 0.86719 0.36719
vt 0.86719 0.42969
vt 0.99219 0.24219
vt 0.91406 0.24219
vt 0.99219 0.49219
vt 0.92969 0.49219
vt 0.99219 0.74219
vt 0.91406 0.74219
vt 0.85156 0.49219
vt 0.85156 0.74219
vt 0.85156 0.24219
vt 0.91406 0.24219
vt 0.92969 0.49219
vt 0.91406 0.74219
vt 0.92969 0.57031
vt 0.96094 0.39844
vt 0.99219 0.57031
vt 0.96094 0.63281
vt 0.92969 0.57031
vt 0.86719 0.57031
vt 0.88281 0.39844
vt 0.89844 0.63281
vt 0.96094 0.74219
vt 0.91406 0.46094
vt 0.99219 0.55469
vt 0.99219 0.74219
vt 0.91406 0.74219
vt 0.85156 0.55469
vt 0.85156 0.74219
vt 0.99219 0.35156
vt 0.85156 0.35156
vt 0.91406 0.24219
vt 0.96094 0.24219
vt 0.99219 0.24219
vt 0.88281 0.24219
vt 0.85156 0.24219
vt 0.96094 0.74219
vt 0.91406 0.46094
vt 0.91406 0.74219
vt 0.96094 0.24219
vt 0.88281 0.24219
vt 0.91406 0.24219
vt 0.99219 0.74219
vt 0.91406 0.24219
vt 0.99219 0.24219
vt 0.91406 0.74219
vt 0.85156 0.24219
vt 0.85156 0.74219
vt 0.91406 0.24219
vt 0.91406 0.74219
vt 0.83594 0.32031
vt 0.80469 0.32031
vt 0.80469 0.36719
vt 0.78906 0.24219
vt 0.83594 0.24219
vt 0.83594 0.36719
vt 0.82031 0.42969
vt 0.75781 0.24219
vt 0.83594 0.33594
vt 0.75781 0.33594
vt 0.83594 0.42969
vt 0.77344 0.42969
vt 0.74219 0.33594
vt 0.80469 0.33594
vt 0.74219 0.24219
vt 0.80469 0.24219
vt 0.80469 0.42969
vt 0.74219 0.42969
vt 0.83594 0.24219
vt 0.77344 0.42969
vt 0.77344 0.24219
vt 0.83594 0.42969
vt 0.80469 0.24219
vt 0.74219 0.24219
vt 0.74219 0.42969
vt 0.80469 0.42969
vt 0.77344 0.42969
vt 0.77344 0.24219
vt 0.83594 0.24219
vt 0.83594 0.42969
vt 0.74219 0.24219
vt 0.74219 0.42969
vt 0.80469 0.42969
vt 0.80469 0.24219
vt 0.80469 0.24219
vt 0.74219 0.24219
vt 0.77344 0.41406
vt 0.83594 0.24219
vt 0.77344 0.24219
vt 0.80469 0.41406
vt 0.78906 0.42969
vt 0.83594 0.24219
vt 0.83594 0.42969
vt 0.78906 0.24219
vt 0.83594 0.42969
vt 0.78906 0.42969
vt 0.78906 0.24219
vt 0.83594 0.24219
vt 0.82031 0.42969
vt 0.78906 0.24219
vt 0.83594 0.24219
vt 0.86719 0.36719
vt 0.88281 0.38281
vt 0.86719 0.42969
vt 0.83594 0.33594
vt 0.78906 0.33594
vt 0.78906 0.42969
vt 0.83594 0.42969
vt 0.83594 0.24219
vt 0.78906 0.24219
vt 0.77344 0.24219
vt 0.77344 0.33594
vt 0.77344 0.42969
vt 0.80469 0.33594
vt 0.80469 0.24219
vt 0.74219 0.24219
vt 0.74219 0.33594
vt 0.74219 0.42969
vt 0.82031 0.42969
vt 0.82031 0.25781
vt 0.78906 0.28906
vt 0.83594 0.28906
vt 0.77344 0.24219
vt 0.83594 0.42969
vt 0.77344 0.42969
vt 0.83594 0.24219
vt 0.80469 0.24219
vt 0.74219 0.24219
vt 0.74219 0.42969
vt 0.80469 0.42969
vt 0.77344 0.24219
vt 0.83594 0.24219
vt 0.77344 0.42969
vt 0.83594 0.42969
vt 0.74219 0.24219
vt 0.74219 0.42969
vt 0.80469 0.42969
vt 0.80469 0.24219
vt 0.80469 0.24219
vt 0.74219 0.24219
vt 0.77344 0.41406
vt 0.83594 0.24219
vt 0.77344 0.24219
vt 0.80469 0.41406
vt 0.83594 0.42969
vt 0.78906 0.42969
vt 0.83594 0.24219
vt 0.78906 0.24219
vt 0.83594 0.42969
vt 0.78906 0.42969
vt 0.78906 0.24219
vt 0.83594 0.24219
vt 0.82031 0.42969
vt 0.78906 0.24219
vt 0.83594 0.24219
vt 0.86719 0.42969
vt 0.86719 0.36719
vt 0.88281 0.38281
vt 0.77344 0.24219
vt 0.83594 0.42969
vt 0.77344 0.42969
vt 0.83594 0.24219
vt 0.80469 0.24219
vt 0.74219 0.24219
vt 0.74219 0.42969
vt 0.80469 0.42969
vt 0.77344 0.24219
vt 0.83594 0.24219
vt 0.77344 0.42969
vt 0.83594 0.42969
vt 0.74219 0.24219
vt 0.80469 0.42969
vt 0.80469 0.24219
vt 0.74219 0.42969
vt 0.80469 0.24219
vt 0.74219 0.24219
vt 0.77344 0.41406
vt 0.83594 0.24219
vt 0.77344 0.24219
vt 0.80469 0.41406
vt 0.78906 0.42969
vt 0.78906 0.24219
vt 0.83594 0.42969
vt 0.83594 0.24219
vt 0.83594 0.42969
vt 0.78906 0.42969
vt 0.78906 0.24219
vt 0.83594 0.24219
vt 0.82031 0.42969
vt 0.78906 0.24219
vt 0.83594 0.24219
vt 0.86719 0.42969
vt 0.86719 0.36719
vt 0.88281 0.38281
vt 0.83594 0.42969
vt 0.77344 0.42969
vt 0.77344 0.24219
vt 0.83594 0.24219
vt 0.80469 0.24219
vt 0.74219 0.24219
vt 0.74219 0.42969
vt 0.80469 0.42969
vt 0.77344 0.42969
vt 0.77344 0.24219
vt 0.83594 0.24219
vt 0.83594 0.42969
vt 0.74219 0.24219
vt 0.74219 0.42969
vt 0.80469 0.42969
vt 0.80469 0.24219
vt 0.80469 0.24219
vt 0.74219 0.24219
vt 0.77344 0.41406
vt 0.83594 0.24219
vt 0.77344 0.24219
vt 0.80469 0.41406
vt 0.78906 0.42969
vt 0.78906 0.24219
vt 0.83594 0.42969
vt 0.83594 0.24219
vt 0.83594 0.42969
vt 0.78906 0.42969
vt 0.83594 0.24219
vt 0.78906 0.24219
vt 0.82031 0.42969
vt 0.78906 0.24219
vt 0.83594 0.24219
vt 0.86719 0.42969
vt 0.86719 0.36719
vt 0.88281 0.38281
vt 0.99219 0.49219
vt 0.91406 0.24219
vt 0.99219 0.24219
vt 0.92969 0.49219
vt 0.99219 0.74219
vt 0.91406 0.74219
vt 0.85156 0.49219
vt 0.85156 0.74219
vt 0.85156 0.24219
vt 0.91406 0.24219
vt 0.92969 0.49219
vt 0.91406 0.74219
vt 0.99219 0.57031
vt 0.96094 0.39844
vt 0.92969 0.57031
vt 0.96094 0.63281
vt 0.92969 0.57031
vt 0.88281 0.39844
vt 0.86719 0.57031
vt 0.89844 0.63281
vt 0.83594 0.80469
vt 0.83594 0.58594
vt 0.74219 0.58594
vt 0.74219 0.75781
vt 0.66406 0.80469
vt 0.74219 0.44531
vt 0.83594 0.44531
vt 0.83594 0.58594
vt 0.74219 0.58594
vt 0.83594 0.80469
vt 0.74219 0.75781
vt 0.66406 0.80469
vt 0.24219 0.19531
vt 0.10156 0.10156
vt 0.13281 0.19531
vt 0.19531 0.10156
vt 0.00781 0.10156
vt 0.07031 0.24219
vt 0.05469 0.32031
vt 0.00781 0.25781
vt 0.00781 0.36719
vt 0.00781 0.21094
vt 0.07031 0.36719
vt 0.00781 0.39844
vt 0.07031 0.42969
vt 0.16406 0.32031
vt 0.25781 0.27344
vt 0.25781 0.38281
vt 0.28906 0.13281
vt 0.38281 0.38281
vt 0.24219 0.46094
vt 0.38281 0.30469
vt 0.42969 0.27344
vt 0.49219 0.42969
vt 0.46094 0.27344
vt 0.55469 0.32031
vt 0.58594 0.41406
vt 0.64844 0.36719
vt 0.66406 0.42969
vt 0.71094 0.35156
vt 0.58594 0.49219
vt 0.49219 0.58594
vt 0.72656 0.42969
vt 0.69531 0.32031
vt 0.63281 0.32031
vt 0.64844 0.50781
vt 0.72656 0.52344
vt 0.63281 0.58594
vt 0.57031 0.60156
vt 0.47656 0.71094
vt 0.21094 0.75781
vt 0.35156 0.80469
vt 0.55469 0.72656
vt 0.55469 0.66406
vt 0.64844 0.66406
vt 0.00781 0.77344
vt 0.00781 0.58594
vt 0.21094 0.60156
vt 0.19531 0.46094
vt 0.11719 0.42969
vt 0.00781 0.42969
vt 0.36719 0.60156
vt 0.63281 0.58594
vt 0.21094 0.75781
vt 0.21094 0.60156
vt 0.47656 0.71094
vt 0.49219 0.58594
vt 0.57031 0.60156
vt 0.58594 0.49219
vt 0.49219 0.42969
vt 0.55469 0.66406
vt 0.58594 0.41406
vt 0.66406 0.42969
vt 0.64844 0.36719
vt 0.55469 0.32031
vt 0.63281 0.32031
vt 0.64844 0.50781
vt 0.46094 0.27344
vt 0.42969 0.27344
vt 0.38281 0.30469
vt 0.28906 0.13281
vt 0.38281 0.38281
vt 0.25781 0.27344
vt 0.24219 0.19531
vt 0.25781 0.38281
vt 0.16406 0.32031
vt 0.13281 0.19531
vt 0.10156 0.10156
vt 0.19531 0.10156
vt 0.24219 0.46094
vt 0.07031 0.24219
vt 0.05469 0.32031
vt 0.07031 0.36719
vt 0.07031 0.42969
vt 0.11719 0.42969
vt 0.19531 0.46094
vt 0.36719 0.60156
vt 0.47656 0.19531
vt 0.42969 0.14844
vt 0.41406 0.16406
vt 0.36719 0.16406
vt 0.50781 0.19531
vt 0.52344 0.13281
vt 0.46094 0.08594
vt 0.36719 0.11719
vt 0.92969 0.64844
vt 0.91406 0.74219
vt 0.99219 0.74219
vt 0.99219 0.74219
vt 0.91406 0.74219
vt 0.99219 0.24219
vt 0.94531 0.52344
vt 0.91406 0.24219
vt 0.99219 0.46094
vt 0.91406 0.46094
vt 0.91406 0.60156
vt 0.99219 0.60156
vt 0.99219 0.74219
vt 0.99219 0.24219
vt 0.91406 0.24219
vt 0.91406 0.46094
vt 0.99219 0.46094
vt 0.99219 0.60156
vt 0.91406 0.60156
vt 0.94531 0.74219
vt 0.99219 0.24219
vt 0.94531 0.52344
vt 0.91406 0.24219
vt 0.99219 0.46094
vt 0.91406 0.46094
vt 0.91406 0.60156
vt 0.99219 0.60156
vt 0.91406 0.74219
vt 0.99219 0.24219
vt 0.91406 0.24219
vt 0.99219 0.46094
vt 0.91406 0.46094
vt 0.99219 0.60156
vt 0.91406 0.60156
vt 0.94531 0.74219
vt 0.99219 0.24219
vt 0.94531 0.52344
vt 0.91406 0.24219
vt 0.99219 0.46094
vt 0.91406 0.46094
vt 0.91406 0.60156
vt 0.99219 0.60156
vt 0.99219 0.74219
vt 0.99219 0.24219
vt 0.91406 0.24219
vt 0.91406 0.46094
vt 0.99219 0.46094
vt 0.99219 0.60156
vt 0.91406 0.60156
vt 0.94531 0.74219
vt 0.92969 0.64844
vt 0.91406 0.74219
vt 0.99219 0.74219
vt 0.99219 0.74219
vt 0.91406 0.74219
vt 0.92969 0.64844
vt 0.91406 0.74219
vt 0.99219 0.74219
vt 0.99219 0.74219
vt 0.91406 0.74219
vt 0.92969 0.64844
vt 0.91406 0.74219
vt 0.99219 0.74219
vt 0.99219 0.74219
vt 0.91406 0.74219
vt 0.92969 0.64844
vt 0.91406 0.74219
vt 0.99219 0.74219
vt 0.99219 0.74219
vt 0.91406 0.74219
vt 0.92969 0.64844
vt 0.91406 0.74219
vt 0.99219 0.74219
vt 0.99219 0.74219
vt 0.91406 0.74219
vt 0.41406 0.16406
vt 0.42969 0.14844
vt 0.47656 0.19531
vt 0.36719 0.16406
vt 0.50781 0.19531
vt 0.52344 0.13281
vt 0.46094 0.08594
vt 0.36719 0.11719
vt 0.91406 0.24219
vt 0.94531 0.52344
vt 0.99219 0.24219
vt 0.99219 0.46094
vt 0.91406 0.46094
vt 0.91406 0.60156
vt 0.99219 0.60156
vt 0.99219 0.74219
vt 0.91406 0.24219
vt 0.99219 0.24219
vt 0.91406 0.46094
vt 0.99219 0.46094
vt 0.99219 0.60156
vt 0.91406 0.60156
vt 0.94531 0.74219
vt 0.91406 0.24219
vt 0.94531 0.52344
vt 0.99219 0.24219
vt 0.99219 0.46094
vt 0.91406 0.46094
vt 0.91406 0.60156
vt 0.99219 0.60156
vt 0.91406 0.74219
vt 0.91406 0.24219
vt 0.99219 0.24219
vt 0.99219 0.46094
vt 0.91406 0.46094
vt 0.99219 0.60156
vt 0.91406 0.60156
vt 0.94531 0.74219
vt 0.91406 0.24219
vt 0.94531 0.52344
vt 0.99219 0.24219
vt 0.99219 0.46094
vt 0.91406 0.46094
vt 0.91406 0.60156
vt 0.99219 0.60156
vt 0.99219 0.74219
vt 0.91406 0.24219
vt 0.99219 0.24219
vt 0.91406 0.46094
vt 0.99219 0.46094
vt 0.99219 0.60156
vt 0.91406 0.60156
vt 0.94531 0.74219
vt 0.58594 0.27344
vt 0.67969 0.27344
vt 0.58594 0.24219
vt 0.67969 0.24219
vt 0.72656 0.27344
vt 0.72656 0.24219
vt 0.53906 0.24219
vt 0.53906 0.27344
vt 0.53906 0.24219
vt 0.72656 0.24219
vt 0.53906 0.27344
vt 0.72656 0.27344
vt 0.67969 0.24219
vt 0.67969 0.27344
vt 0.58594 0.27344
vt 0.58594 0.24219
vt 0.53906 0.24219
vt 0.72656 0.24219
vt 0.72656 0.27344
vt 0.53906 0.27344
vt 0.58594 0.24219
vt 0.67969 0.27344
vt 0.58594 0.27344
vt 0.67969 0.24219
vt 0.53906 0.24219
vt 0.72656 0.24219
vt 0.72656 0.27344
vt 0.53906 0.27344
vt 0.53906 0.27344
vt 0.72656 0.24219
vt 0.53906 0.24219
vt 0.72656 0.27344
vt 0.58594 0.27344
vt 0.67969 0.27344
vt 0.67969 0.24219
vt 0.58594 0.24219
vt 0.72656 0.27344
vt 0.72656 0.24219
vt 0.53906 0.24219
vt 0.53906 0.27344
vt 0.88281 0.53906
vt 0.85156 0.50781
vt 0.91406 0.50781
vt 0.86719 0.44531
vt 0.91406 0.44531
vt 0.88281 0.42969
vt 0.89844 0.36719
vt 0.89844 0.46094
vt 0.85156 0.41406
vt 0.94531 0.36719
vt 0.94531 0.46094
vt 0.89844 0.36719
vt 0.89844 0.46094
vt 0.85156 0.41406
vt 0.89844 0.42969
vt 0.86719 0.42969
vt 0.88281 0.44531
vt 0.88281 0.41406
vt 0.86719 0.44531
vt 0.85156 0.41406
vt 0.89844 0.41406
vt 0.86719 0.39844
vt 0.89844 0.42969
vt 0.85156 0.42969
vt 0.88281 0.44531
vt 0.88281 0.39844
vt 0.89844 0.41406
vt 0.88281 0.39844
vt 0.88281 0.44531
vt 0.85156 0.41406
vt 0.91406 0.50781
vt 0.85156 0.50781
vt 0.88281 0.53906
vt 0.86719 0.44531
vt 0.91406 0.44531
vt 0.88281 0.42969
vt 0.85156 0.41406
vt 0.89844 0.46094
vt 0.89844 0.36719
vt 0.94531 0.36719
vt 0.94531 0.46094
vt 0.89844 0.36719
vt 0.89844 0.46094
vt 0.85156 0.41406
vt 0.88281 0.44531
vt 0.86719 0.42969
vt 0.89844 0.42969
vt 0.88281 0.41406
vt 0.89844 0.41406
vt 0.85156 0.41406
vt 0.86719 0.44531
vt 0.86719 0.39844
vt 0.88281 0.44531
vt 0.85156 0.42969
vt 0.89844 0.42969
vt 0.88281 0.39844
vt 0.88281 0.44531
vt 0.88281 0.39844
vt 0.89844 0.41406
vt 0.85156 0.41406
vt 0.91406 0.50781
vt 0.91406 0.36719
vt 0.85156 0.50781
vt 0.85156 0.36719
vt 0.88281 0.74219
vt 0.91406 0.36719
vt 0.91406 0.50781
vt 0.99219 0.36719
vt 0.99219 0.50781
vt 0.96094 0.74219
vt 0.85156 0.50781
vt 0.91406 0.36719
vt 0.91406 0.50781
vt 0.85156 0.36719
vt 0.88281 0.74219
vt 0.91406 0.36719
vt 0.91406 0.50781
vt 0.99219 0.36719
vt 0.99219 0.50781
vt 0.96094 0.74219
vt 0.85156 0.44531
vt 0.92969 0.44531
vt 0.85156 0.35156
vt 0.85156 0.35156
vt 0.85156 0.44531
vt 0.85156 0.46094
vt 0.92969 0.24219
vt 0.91406 0.46094
vt 0.85156 0.24219
vt 0.88281 0.52344
vt 0.92969 0.58594
vt 0.85156 0.58594
vt 0.88281 0.74219
vt 0.85156 0.46094
vt 0.92969 0.24219
vt 0.91406 0.46094
vt 0.85156 0.24219
vt 0.88281 0.52344
vt 0.92969 0.58594
vt 0.85156 0.58594
vt 0.88281 0.74219
vt 0.85156 0.46094
vt 0.92969 0.24219
vt 0.91406 0.46094
vt 0.85156 0.24219
vt 0.88281 0.52344
vt 0.92969 0.58594
vt 0.85156 0.58594
vt 0.88281 0.74219
vt 0.85156 0.44531
vt 0.92969 0.44531
vt 0.85156 0.35156
vt 0.85156 0.35156
vt 0.85156 0.44531
vt 0.85156 0.44531
vt 0.92969 0.44531
vt 0.85156 0.35156
vt 0.85156 0.35156
vt 0.85156 0.44531
vt 0.85156 0.44531
vt 0.92969 0.44531
vt 0.85156 0.35156
vt 0.85156 0.35156
vt 0.85156 0.44531
vt 0.85156 0.44531
vt 0.92969 0.44531
vt 0.85156 0.35156
vt 0.85156 0.35156
vt 0.85156 0.44531
vt 0.85156 0.44531
vt 0.92969 0.44531
vt 0.85156 0.35156
vt 0.85156 0.35156
vt 0.85156 0.44531
vt 0.91406 0.46094
vt 0.92969 0.24219
vt 0.85156 0.46094
vt 0.85156 0.24219
vt 0.88281 0.52344
vt 0.92969 0.58594
vt 0.85156 0.58594
vt 0.88281 0.74219
vt 0.91406 0.46094
vt 0.92969 0.24219
vt 0.85156 0.46094
vt 0.85156 0.24219
vt 0.88281 0.52344
vt 0.92969 0.58594
vt 0.85156 0.58594
vt 0.88281 0.74219
vt 0.91406 0.46094
vt 0.92969 0.24219
vt 0.85156 0.46094
vt 0.85156 0.24219
vt 0.88281 0.52344
vt 0.92969 0.58594
vt 0.85156 0.58594
vt 0.88281 0.74219
vt 0.53906 0.08594
vt 0.53906 0.16406
vt 0.99219 0.16406
vt 0.99219 0.08594
vt 0.53906 0.22656
vt 0.53906 0.16406
vt 0.99219 0.22656
vt 0.99219 0.16406
vt 0.53906 0.08594
vt 0.99219 0.08594
vt 0.99219 0.16406
vt 0.53906 0.16406
vt 0.53906 0.22656
vt 0.99219 0.22656
vt 0.00781 0.00781
vt 0.07031 0.00781
vt 0.07031 0.07031
vt 0.00781 0.07031
vt 0.99219 0.07031
vt 0.99219 0.00781
vt 0.99219 0.75781
vt 0.85156 0.75781
vt 0.99219 0.99219
vt 0.85156 0.99219
vt 0.85156 0.99219
vt 0.85156 0.75781
vt 0.99219 0.99219
vt 0.99219 0.75781
vt 0.99219 0.16406
vt 0.53906 0.16406
vt 0.53906 0.08594
vt 0.99219 0.08594
vt 0.99219 0.22656
vt 0.53906 0.16406
vt 0.53906 0.22656
vt 0.99219 0.16406
vt 0.53906 0.08594
vt 0.99219 0.08594
vt 0.53906 0.22656
vt 0.53906 0.16406
vt 0.99219 0.16406
vt 0.99219 0.22656
vt 0.07031 0.07031
vt 0.07031 0.00781
vt 0.00781 0.00781
vt 0.00781 0.07031
vt 0.99219 0.07031
vt 0.99219 0.00781
vt 0.99219 0.99219
vt 0.85156 0.75781
vt 0.99219 0.75781
vt 0.85156 0.99219
vt 0.99219 0.99219
vt 0.85156 0.75781
vt 0.85156 0.99219
vt 0.99219 0.75781
vt 0.30469 0.99219
vt 0.30469 0.82031
vt 0.19531 0.99219
vt 0.19531 0.82031
vt 0.10156 0.82031
vt 0.10156 0.99219
vt 0.13281 0.82031
vt 0.21094 0.82031
vt 0.13281 0.99219
vt 0.21094 0.99219
vt 0.00781 0.99219
vt 0.00781 0.82031
vt 0.16406 0.99219
vt 0.24219 0.99219
vt 0.16406 0.82031
vt 0.24219 0.82031
vt 0.03906 0.82031
vt 0.03906 0.99219
vt 0.27344 0.99219
vt 0.35156 0.99219
vt 0.27344 0.82031
vt 0.35156 0.82031
vt 0.14844 0.82031
vt 0.14844 0.99219
vt 0.14844 0.82031
vt 0.22656 0.82031
vt 0.14844 0.99219
vt 0.22656 0.99219
vt 0.02344 0.99219
vt 0.02344 0.82031
vt 0.19531 0.82031
vt 0.27344 0.82031
vt 0.19531 0.99219
vt 0.27344 0.99219
vt 0.07031 0.99219
vt 0.07031 0.82031
vt 0.19531 0.82031
vt 0.30469 0.82031
vt 0.19531 0.99219
vt 0.10156 0.82031
vt 0.10156 0.99219
vt 0.30469 0.99219
vt 0.13281 0.99219
vt 0.21094 0.82031
vt 0.13281 0.82031
vt 0.21094 0.99219
vt 0.00781 0.99219
vt 0.00781 0.82031
vt 0.16406 0.82031
vt 0.24219 0.99219
vt 0.16406 0.99219
vt 0.24219 0.82031
vt 0.03906 0.82031
vt 0.03906 0.99219
vt 0.27344 0.82031
vt 0.35156 0.99219
vt 0.27344 0.99219
vt 0.35156 0.82031
vt 0.14844 0.82031
vt 0.14844 0.99219
vt 0.14844 0.99219
vt 0.22656 0.82031
vt 0.14844 0.82031
vt 0.22656 0.99219
vt 0.02344 0.99219
vt 0.02344 0.82031
vt 0.19531 0.99219
vt 0.27344 0.82031
vt 0.19531 0.82031
vt 0.27344 0.99219
vt 0.07031 0.99219
vt 0.07031 0.82031
vt 0.25781 0.82031
vt 0.36719 0.82031
vt 0.25781 0.99219
vt 0.36719 0.99219
vt 0.14844 0.82031
vt 0.14844 0.99219
vt 0.22656 0.82031
vt 0.22656 0.99219
vt 0.11719 0.82031
vt 0.11719 0.99219
vt 0.00781 0.82031
vt 0.00781 0.99219
vt 0.25781 0.99219
vt 0.36719 0.82031
vt 0.25781 0.82031
vt 0.36719 0.99219
vt 0.14844 0.82031
vt 0.14844 0.99219
vt 0.11719 0.82031
vt 0.22656 0.99219
vt 0.22656 0.82031
vt 0.11719 0.99219
vt 0.00781 0.82031
vt 0.00781 0.99219
usemtl m0
f 1/1 2/2 3/3
f 4/4 1/1 3/3
f 2/2 5/5 3/3
f 2/2 6/6 5/5
f 6/6 7/7 5/5
f 8/8 2/2 1/1
f 9/9 6/6 2/2
f 8/8 10/10 2/2
f 10/10 9/9 2/2
f 11/11 10/10 8/8
f 11/11 8/8 12/12
f 10/10 13/13 9/9
f 13/13 14/14 9/9
f 15/15 1/1 4/4
f 15/15 16/16 1/1
f 1/1 16/16 8/8
f 16/16 6/6 9/9
f 15/15 17/17 16/16
f 17/17 6/6 16/16
f 17/17 7/7 6/6
f 12/12 8/8 18/18
f 9/9 14/14 19/19
f 8/8 20/20 18/18
f 16/16 20/20 8/8
f 9/9 19/19 20/20
f 16/16 9/9 20/20
f 21/21 22/22 23/23
f 22/22 24/24 23/23
f 22/22 25/25 24/24
f 25/25 26/26 24/24
f 23/23 27/27 21/21
f 23/23 28/28 27/27
f 28/28 25/25 27/27
f 28/28 26/26 25/25
f 29/29 30/30 31/31
f 30/30 32/32 31/31
f 31/31 32/32 33/33
f 29/29 31/31 34/34
f 35/35 29/29 34/34
f 36/36 33/33 37/37
f 38/38 36/36 37/37
f 39/39 36/36 38/38
f 39/39 38/38 40/40
f 41/41 42/42 43/43
f 41/41 44/44 42/42
f 43/43 42/42 45/45
f 46/46 43/43 45/45
f 47/47 48/48 49/49
f 49/49 48/48 50/50
f 51/51 52/52 53/53
f 51/51 53/53 54/54
f 55/55 56/56 57/57
f 58/58 55/55 57/57
f 59/59 60/60 61/61
f 62/62 59/59 61/61
f 63/63 64/64 65/65
f 66/66 67/67 68/68
f 69/69 70/70 71/71
f 70/70 72/72 71/71
f 73/73 74/74 75/75
f 73/73 75/75 76/76
f 77/77 78/78 79/79
f 80/80 81/81 82/82
f 83/83 84/84 85/85
f 83/83 85/85 86/86
f 84/84 87/87 85/85
f 84/84 88/88 87/87
f 85/85 87/87 89/89
f 90/90 85/85 89/89
f 86/86 85/85 91/91
f 91/91 85/85 90/90
f 92/92 93/93 94/94
f 92/92 94/94 95/95
f 95/95 94/94 96/96
f 96/96 94/94 97/97
f 98/98 99/99 100/100
f 101/101 102/102 103/103
f 103/103 102/102 104/104
f 105/105 106/106 107/107
f 105/105 107/107 108/108
f 109/109 110/110 111/111
f 112/112 110/110 109/109
f 113/113 114/114 115/115
f 113/113 115/115 116/116
f 117/117 118/118 119/119
f 120/120 121/121 122/122
f 123/123 124/124 125/125
f 123/123 126/126 124/124
f 127/127 128/128 129/129
f 130/130 127/127 129/129
f 131/131 132/132 133/133
f 134/134 135/135 136/136
f 137/137 138/138 139/139
f 139/139 138/138 140/140
f 141/141 142/142 143/143
f 141/141 143/143 144/144
f 145/145 146/146 147/147
f 148/148 146/146 145/145
f 149/149 150/150 151/151
f 150/150 152/152 151/151
f 153/153 154/154 155/155
f 156/156 157/157 158/158
f 159/159 160/160 161/161
f 162/162 160/160 159/159
f 163/163 164/164 165/165
f 166/166 163/163 165/165
f 167/167 168/168 169/169
f 170/170 171/171 172/172
f 173/173 174/174 175/175
f 173/173 175/175 176/176
f 177/177 178/178 179/179
f 177/177 179/179 180/180
f 181/181 182/182 183/183
f 184/184 181/181 183/183
f 185/185 186/186 187/187
f 188/188 185/185 187/187
f 189/189 190/190 191/191
f 192/192 193/193 194/194
f 195/195 196/196 197/197
f 198/198 196/196 195/195
f 199/199 200/200 201/201
f 202/202 200/200 199/199
f 203/203 204/204 205/205
f 206/206 207/207 208/208
f 209/209 210/210 211/211
f 210/210 212/212 211/211
f 211/211 212/212 213/213
f 212/212 214/214 213/213
f 212/212 215/215 214/214
f 215/215 216/216 214/214
f 210/210 217/217 212/212
f 217/217 215/215 212/212
f 211/211 218/218 209/209
f 211/211 219/219 218/218
f 213/213 219/219 211/211
f 219/219 217/217 218/218
f 219/219 215/215 217/217
f 213/213 220/220 219/219
f 220/220 216/216 215/215
f 220/220 215/215 219/219
f 221/221 222/222 223/223
f 224/224 221/221 223/223
f 223/223 222/222 225/225
f 223/223 225/225 224/224
f 226/226 227/227 221/221
f 225/225 227/227 226/226
f 228/228 226/226 221/221
f 225/225 226/226 228/228
f 229/229 230/230 231/231
f 229/229 231/231 232/232
f 229/229 233/233 230/230
f 233/233 234/234 230/230
f 233/233 235/235 234/234
f 231/231 230/230 236/236
f 230/230 234/234 237/237
f 230/230 238/238 236/236
f 230/230 237/237 238/238
f 236/236 238/238 239/239
f 240/240 236/236 239/239
f 237/237 241/241 238/238
f 237/237 242/242 241/241
f 232/232 231/231 243/243
f 231/231 244/244 243/243
f 236/236 244/244 231/231
f 237/237 234/234 244/244
f 244/244 245/245 243/243
f 244/244 234/234 245/245
f 234/234 235/235 245/245
f 246/246 236/236 240/240
f 247/247 242/242 237/237
f 246/246 248/248 236/236
f 236/236 248/248 244/244
f 248/248 247/247 237/237
f 248/248 237/237 244/244
f 249/249 250/250 251/251
f 249/249 252/252 250/250
f 252/252 253/253 250/250
f 252/252 254/254 253/253
f 251/251 255/255 249/249
f 255/255 256/256 249/249
f 255/255 253/253 256/256
f 253/253 254/254 256/256
f 257/257 258/258 259/259
f 257/257 260/260 258/258
f 261/261 260/260 257/257
f 262/262 257/257 259/259
f 262/262 259/259 263/263
f 264/264 261/261 265/265
f 264/264 265/265 266/266
f 266/266 265/265 267/267
f 268/268 266/266 267/267
f 269/269 270/270 271/271
f 270/270 272/272 271/271
f 273/273 270/270 269/269
f 273/273 269/269 274/274
f 275/275 276/276 277/277
f 278/278 276/276 275/275
f 279/279 280/280 281/281
f 282/282 279/279 281/281
f 283/283 284/284 285/285
f 283/283 285/285 286/286
f 287/287 288/288 289/289
f 287/287 289/289 290/290
f 291/291 292/292 293/293
f 294/294 295/295 296/296
f 297/297 298/298 299/299
f 297/297 300/300 298/298
f 301/301 302/302 303/303
f 304/304 301/301 303/303
f 305/305 306/306 307/307
f 308/308 309/309 310/310
f 311/311 312/312 313/313
f 314/314 311/311 313/313
f 311/311 315/315 312/312
f 315/315 316/316 312/312
f 317/317 315/315 311/311
f 317/317 311/311 318/318
f 319/319 311/311 314/314
f 318/318 311/311 319/319
f 320/320 321/321 322/322
f 323/323 320/320 322/322
f 324/324 320/320 323/323
f 325/325 320/320 324/324
f 326/326 327/327 328/328
f 329/329 330/330 331/331
f 332/332 330/330 329/329
f 333/333 334/334 335/335
f 336/336 333/333 335/335
f 337/337 338/338 339/339
f 339/339 338/338 340/340
f 341/341 342/342 343/343
f 344/344 341/341 343/343
f 345/345 346/346 347/347
f 348/348 349/349 350/350
f 351/351 352/352 353/353
f 352/352 354/354 353/353
f 355/355 356/356 357/357
f 355/355 357/357 358/358
f 359/359 360/360 361/361
f 362/362 363/363 364/364
f 365/365 366/366 367/367
f 368/368 366/366 365/365
f 369/369 370/370 371/371
f 372/372 369/369 371/371
f 373/373 374/374 375/375
f 375/375 374/374 376/376
f 377/377 378/378 379/379
f 377/377 380/380 378/378
f 381/381 382/382 383/383
f 384/384 385/385 386/386
f 387/387 388/388 389/389
f 389/389 388/388 390/390
f 391/391 392/392 393/393
f 391/391 393/393 394/394
f 395/395 396/396 397/397
f 398/398 399/399 400/400
f 401/401 402/402 403/403
f 404/404 401/401 403/403
f 405/405 406/406 407/407
f 408/408 405/405 407/407
f 409/409 410/410 411/411
f 409/409 411/411 412/412
f 413/413 414/414 415/415
f 413/413 415/415 416/416
f 417/417 418/418 419/419
f 420/420 421/421 422/422
f 423/423 424/424 425/425
f 425/425 424/424 426/426
f 427/427 428/428 429/429
f 429/429 428/428 430/430
f 431/431 432/432 433/433
f 434/434 435/435 436/436
f 437/437 438/438 439/439
f 437/437 440/440 438/438
f 441/441 440/440 437/437
f 441/441 442/442 440/440
f 442/442 443/443 440/440
f 442/442 444/444 443/443
f 440/440 445/445 438/438
f 440/440 443/443 445/445
f 439/439 446/446 437/437
f 446/446 447/447 437/437
f 437/437 447/447 441/441
f 446/446 445/445 447/447
f 445/445 443/443 447/447
f 447/447 448/448 441/441
f 443/443 444/444 448/448
f 447/447 443/443 448/448
f 449/449 450/450 451/451
f 449/449 451/451 452/452
f 453/453 450/450 449/449
f 452/452 453/453 449/449
f 451/451 454/454 455/455
f 455/455 454/454 453/453
f 451/451 455/455 456/456
f 456/456 455/455 453/453
f 457/457 458/458 459/459
f 460/460 457/457 459/459
f 461/461 457/457 460/460
f 459/459 458/458 462/462
f 458/458 463/463 462/462
f 462/462 463/463 464/464
f 462/462 464/464 465/465
f 465/465 464/464 466/466
f 465/465 466/466 467/467
f 467/467 466/466 468/468
f 469/469 470/470 471/471
f 469/469 472/472 470/470
f 470/470 473/473 471/471
f 471/471 473/473 474/474
f 475/475 471/471 474/474
f 475/475 474/474 476/476
f 475/475 476/476 477/477
f 474/474 478/478 476/476
f 474/474 473/473 478/478
f 479/479 475/475 477/477
f 480/480 479/479 477/477
f 481/481 479/479 480/480
f 482/482 475/475 479/479
f 482/482 471/471 475/475
f 483/483 471/471 482/482
f 483/483 469/469 471/471
f 484/484 483/483 482/482
f 483/483 485/485 469/469
f 486/486 483/483 484/484
f 486/486 484/484 487/487
f 488/488 483/483 486/486
f 488/488 485/485 483/483
f 489/489 485/485 488/488
f 490/490 489/489 488/488
f 490/490 488/488 486/486
f 490/490 491/491 489/489
f 492/492 491/491 490/490
f 493/493 492/492 490/490
f 494/494 492/492 493/493
f 495/495 494/494 493/493
f 495/495 496/496 494/494
f 497/497 493/493 490/490
f 495/495 493/493 497/497
f 497/497 490/490 498/498
f 499/499 496/496 495/495
f 496/496 500/500 494/494
f 494/494 500/500 501/501
f 494/494 501/501 492/492
f 502/502 495/495 497/497
f 499/499 495/495 502/502
f 503/503 499/499 502/502
f 503/503 502/502 504/504
f 502/502 497/497 504/504
f 504/504 497/497 505/505
f 505/505 497/497 498/498
f 505/505 498/498 506/506
f 506/506 498/498 507/507
f 506/506 507/507 508/508
f 509/509 506/506 508/508
f 509/509 504/504 510/510
f 509/509 510/510 506/506
f 504/504 505/505 510/510
f 510/510 505/505 506/506
f 511/511 504/504 509/509
f 511/511 503/503 504/504
f 508/508 507/507 512/512
f 507/507 513/513 512/512
f 514/514 513/513 507/507
f 514/514 515/515 513/513
f 515/515 516/516 513/513
f 516/516 481/481 513/513
f 481/481 517/517 513/513
f 518/518 514/514 507/507
f 498/498 518/518 507/507
f 518/518 487/487 514/514
f 514/514 487/487 515/515
f 518/518 486/486 487/487
f 498/498 490/490 518/518
f 490/490 486/486 518/518
f 481/481 480/480 517/517
f 509/509 519/519 511/511
f 512/512 513/513 520/520
f 520/520 513/513 521/521
f 512/512 520/520 508/508
f 508/508 520/520 522/522
f 520/520 523/523 522/522
f 522/522 523/523 524/524
f 524/524 525/525 519/519
f 523/523 525/525 524/524
f 523/523 526/526 525/525
f 508/508 522/522 509/509
f 527/527 519/519 509/509
f 522/522 527/527 509/509
f 527/527 524/524 519/519
f 522/522 524/524 527/527
f 526/526 528/528 525/525
f 525/525 528/528 529/529
f 528/528 530/530 529/529
f 530/530 496/496 529/529
f 528/528 531/531 530/530
f 526/526 531/531 528/528
f 529/529 496/496 499/499
f 530/530 500/500 496/496
f 532/532 500/500 530/530
f 531/531 532/532 530/530
f 525/525 529/529 533/533
f 533/533 529/529 499/499
f 533/533 499/499 503/503
f 519/519 533/533 503/503
f 519/519 525/525 533/533
f 519/519 503/503 511/511
f 526/526 534/534 531/531
f 535/535 534/534 526/526
f 536/536 535/535 526/526
f 536/536 537/537 535/535
f 538/538 536/536 526/526
f 538/538 539/539 536/536
f 539/539 537/537 536/536
f 540/540 537/537 539/539
f 541/541 539/539 538/538
f 542/542 539/539 541/541
f 542/542 543/543 539/539
f 543/543 540/540 539/539
f 543/543 544/544 540/540
f 544/544 545/545 540/540
f 546/546 541/541 538/538
f 543/543 473/473 544/544
f 547/547 473/473 543/543
f 547/547 543/543 548/548
f 548/548 543/543 542/542
f 476/476 547/547 548/548
f 477/477 476/476 548/548
f 476/476 478/478 547/547
f 478/478 473/473 547/547
f 477/477 548/548 549/549
f 549/549 548/548 542/542
f 477/477 549/549 480/480
f 480/480 549/549 550/550
f 517/517 480/480 550/550
f 513/513 517/517 550/550
f 513/513 550/550 551/551
f 513/513 551/551 552/552
f 513/513 552/552 521/521
f 552/552 546/546 521/521
f 521/521 546/546 553/553
f 520/520 521/521 553/553
f 520/520 553/553 523/523
f 553/553 526/526 523/523
f 553/553 538/538 526/526
f 546/546 538/538 553/553
f 554/554 555/555 556/556
f 556/556 555/555 557/557
f 558/558 555/555 554/554
f 558/558 559/559 555/555
f 559/559 560/560 555/555
f 555/555 560/560 561/561
f 555/555 561/561 557/557
f 562/562 563/563 564/564
f 565/565 563/563 562/562
f 564/564 566/566 562/562
f 562/562 566/566 565/565
f 567/567 568/568 569/569
f 570/570 567/567 569/569
f 570/570 569/569 571/571
f 571/571 572/572 570/570
f 572/572 573/573 570/570
f 572/572 574/574 573/573
f 575/575 568/568 576/576
f 575/575 576/576 577/577
f 578/578 575/575 577/577
f 577/577 579/579 578/578
f 577/577 580/580 579/579
f 580/580 581/581 579/579
f 582/582 583/583 584/584
f 585/585 582/582 584/584
f 585/585 584/584 586/586
f 586/586 587/587 585/585
f 587/587 588/588 585/585
f 588/588 589/589 587/587
f 590/590 583/583 591/591
f 590/590 591/591 592/592
f 592/592 591/591 593/593
f 593/593 594/594 592/592
f 593/593 595/595 594/594
f 595/595 596/596 594/594
f 597/597 598/598 599/599
f 600/600 597/597 599/599
f 600/600 599/599 601/601
f 601/601 602/602 600/600
f 602/602 603/603 600/600
f 602/602 604/604 603/603
f 605/605 598/598 606/606
f 605/605 606/606 607/607
f 608/608 605/605 607/607
f 607/607 609/609 608/608
f 607/607 610/610 609/609
f 610/610 611/611 609/609
f 612/612 613/613 614/614
f 615/615 613/613 612/612
f 614/614 616/616 612/612
f 612/612 616/616 615/615
f 617/617 618/618 619/619
f 620/620 618/618 617/617
f 619/619 621/621 617/617
f 617/617 621/621 620/620
f 622/622 623/623 624/624
f 625/625 623/623 622/622
f 624/624 626/626 622/622
f 622/622 626/626 625/625
f 627/627 628/628 629/629
f 630/630 628/628 627/627
f 629/629 631/631 627/627
f 627/627 631/631 630/630
f 632/632 633/633 634/634
f 635/635 633/633 632/632
f 634/634 636/636 632/632
f 632/632 636/636 635/635
f 637/637 638/638 639/639
f 640/640 638/638 637/637
f 639/639 638/638 641/641
f 638/638 642/642 641/641
f 638/638 643/643 642/642
f 644/644 643/643 638/638
f 640/640 644/644 638/638
f 645/645 646/646 647/647
f 645/645 647/647 648/648
f 649/649 645/645 648/648
f 648/648 650/650 649/649
f 648/648 651/651 650/650
f 651/651 652/652 650/650
f 653/653 646/646 654/654
f 655/655 653/653 654/654
f 655/655 654/654 656/656
f 656/656 657/657 655/655
f 657/657 658/658 655/655
f 657/657 659/659 658/658
f 660/660 661/661 662/662
f 660/660 662/662 663/663
f 664/664 660/660 663/663
f 663/663 665/665 664/664
f 663/663 666/666 665/665
f 665/665 667/667 666/666
f 668/668 661/661 669/669
f 670/670 668/668 669/669
f 671/671 668/668 670/670
f 670/670 672/672 671/671
f 672/672 673/673 671/671
f 672/672 674/674 673/673
f 675/675 676/676 677/677
f 675/675 677/677 678/678
f 679/679 675/675 678/678
f 678/678 680/680 679/679
f 678/678 681/681 680/680
f 681/681 682/682 680/680
f 683/683 676/676 684/684
f 685/685 683/683 684/684
f 685/685 684/684 686/686
f 686/686 687/687 685/685
f 687/687 688/688 685/685
f 687/687 689/689 688/688
f 690/690 691/691 692/692
f 692/692 691/691 693/693
f 694/694 695/695 696/696
f 697/697 694/694 696/696
f 698/698 699/699 700/700
f 700/700 699/699 701/701
f 702/702 703/703 704/704
f 702/702 704/704 705/705
f 706/706 707/707 708/708
f 706/706 708/708 709/709
f 710/710 711/711 712/712
f 713/713 711/711 710/710
f 714/714 715/715 716/716
f 714/714 716/716 717/717
f 718/718 719/719 720/720
f 721/721 719/719 718/718
f 722/722 723/723 724/724
f 725/725 722/722 724/724
f 726/726 727/727 728/728
f 729/729 726/726 728/728
f 730/730 731/731 732/732
f 731/731 733/733 732/732
f 732/732 733/733 734/734
f 733/733 735/735 734/734
f 736/736 737/737 738/738
f 736/736 739/739 737/737
f 739/739 740/740 737/737
f 739/739 741/741 740/740
f 741/741 742/742 740/740
f 741/741 743/743 742/742
f 744/744 745/745 746/746
f 744/744 747/747 745/745
f 748/748 749/749 750/750
f 749/749 751/751 750/750
f 752/752 753/753 754/754
f 752/752 755/755 753/753
f 756/756 757/757 758/758
f 757/757 759/759 758/758
f 760/760 761/761 762/762
f 760/760 763/763 761/761
f 764/764 763/763 760/760
f 764/764 765/765 763/763
f 766/766 767/767 768/768
f 767/767 769/769 768/768
f 767/767 770/770 769/769
f 770/770 771/771 769/769
f 770/770 772/772 771/771
f 772/772 773/773 771/771
f 774/774 775/775 776/776
f 775/775 777/777 776/776
f 778/778 779/779 780/780
f 778/778 781/781 779/779
f 782/782 783/783 784/784
f 783/783 785/785 784/784
f 786/786 787/787 788/788
f 786/786 789/789 787/787
f 790/790 791/791 792/792
f 791/791 793/793 792/792
f 790/790 792/792 794/794
f 792/792 793/793 795/795
f 792/792 795/795 796/796
f 794/794 792/792 796/796
f 797/797 791/791 790/790
f 796/796 795/795 797/797
f 798/798 797/797 790/790
f 796/796 797/797 798/798
f 798/798 790/790 799/799
f 799/799 796/796 798/798
f 800/800 801/801 802/802
f 800/800 803/803 801/801
f 804/804 800/800 802/802
f 805/805 803/803 800/800
f 806/806 805/805 800/800
f 806/806 800/800 804/804
f 802/802 801/801 807/807
f 807/807 805/805 806/806
f 802/802 807/807 808/808
f 808/808 807/807 806/806
f 809/809 802/802 808/808
f 808/808 806/806 809/809
f 810/810 811/811 812/812
f 813/813 811/811 810/810
f 812/812 811/811 814/814
f 814/814 811/811 813/813
f 815/815 816/816 817/817
f 818/818 816/816 815/815
f 818/818 819/819 816/816
f 817/817 820/820 815/815
f 815/815 820/820 821/821
f 820/820 822/822 821/821
f 823/823 824/824 825/825
f 826/826 824/824 823/823
f 826/826 827/827 824/824
f 825/825 828/828 823/823
f 823/823 828/828 829/829
f 828/828 830/830 829/829
f 831/831 832/832 833/833
f 834/834 832/832 831/831
f 834/834 835/835 832/832
f 833/833 836/836 831/831
f 831/831 836/836 837/837
f 836/836 838/838 837/837
f 839/839 840/840 841/841
f 842/842 840/840 839/839
f 841/841 840/840 843/843
f 843/843 840/840 842/842
f 844/844 845/845 846/846
f 847/847 845/845 844/844
f 846/846 845/845 848/848
f 848/848 845/845 847/847
f 849/849 850/850 851/851
f 852/852 850/850 849/849
f 851/851 850/850 853/853
f 853/853 850/850 852/852
f 854/854 855/855 856/856
f 857/857 855/855 854/854
f 856/856 855/855 858/858
f 858/858 855/855 857/857
f 859/859 860/860 861/861
f 862/862 860/860 859/859
f 861/861 860/860 863/863
f 863/863 860/860 862/862
f 864/864 865/865 866/866
f 866/866 865/865 867/867
f 865/865 868/868 867/867
f 866/866 869/869 864/864
f 870/870 869/869 866/866
f 870/870 871/871 869/869
f 872/872 873/873 874/874
f 874/874 873/873 875/875
f 873/873 876/876 875/875
f 874/874 877/877 872/872
f 878/878 877/877 874/874
f 878/878 879/879 877/877
f 880/880 881/881 882/882
f 882/882 881/881 883/883
f 881/881 884/884 883/883
f 882/882 885/885 880/880
f 886/886 885/885 882/882
f 886/886 887/887 885/885
f 888/888 889/889 890/890
f 891/891 888/888 890/890
f 892/892 893/893 894/894
f 894/894 893/893 895/895
f 895/895 893/893 896/896
f 895/895 896/896 897/897
f 898/898 899/899 900/900
f 898/898 900/900 901/901
f 902/902 903/903 904/904
f 902/902 904/904 905/905
f 903/903 906/906 904/904
f 903/903 907/907 906/906
f 908/908 909/909 910/910
f 910/910 909/909 911/911
f 912/912 913/913 914/914
f 914/914 913/913 915/915
f 916/916 917/917 918/918
f 916/916 918/918 919/919
f 920/920 921/921 922/922
f 923/923 921/921 920/920
f 924/924 921/921 923/923
f 925/925 924/924 923/923
f 926/926 927/927 928/928
f 929/929 926/926 928/928
f 930/930 931/931 932/932
f 933/933 930/930 932/932
f 930/930 934/934 931/931
f 934/934 935/935 931/931
f 936/936 937/937 938/938
f 939/939 937/937 936/936
f 940/940 941/941 942/942
f 943/943 941/941 940/940
usemtl m1
f 944/944 945/945 946/946
f 946/946 945/945 947/947
f 948/948 946/946 947/947
f 949/949 946/946 948/948
f 950/950 951/951 952/952
f 952/952 951/951 953/953
f 954/954 950/950 952/952
f 955/955 950/950 954/954
f 956/956 957/957 958/958
f 958/958 957/957 959/959
f 960/960 956/956 958/958
f 961/961 956/956 960/960
f 962/962 963/963 964/964
f 964/964 963/963 965/965
f 966/966 962/962 964/964
f 967/967 962/962 966/966
f 968/968 969/969 970/970
f 970/970 969/969 971/971
f 972/972 968/968 970/970
f 973/973 968/968 972/972
f 974/974 975/975 976/976
f 976/976 975/975 977/977
f 978/978 974/974 976/976
f 979/979 974/974 978/978
f 980/980 981/981 982/982
f 980/980 982/982 983/983
f 983/983 982/982 984/984
f 982/982 981/981 985/985
f 986/986 987/987 988/988
f 989/989 987/987 986/986
f 986/986 988/988 990/990
f 990/990 988/988 991/991
f 992/992 993/993 994/994
f 995/995 993/993 992/992
f 992/992 994/994 996/996
f 996/996 994/994 997/997
f 998/998 999/999 1000/1000
f 1001/1001 999/999 998/998
f 998/998 1000/1000 1002/1002
f 1002/1002 1000/1000 1003/1003
f 1004/1004 1005/1005 1006/1006
f 1007/1007 1005/1005 1004/1004
f 1004/1004 1006/1006 1008/1008
f 1008/1008 1006/1006 1009/1009
f 1010/1010 1011/1011 1012/1012
f 1013/1013 1011/1011 1010/1010
f 1010/1010 1012/1012 1014/1014
f 1014/1014 1012/1012 1015/1015
f 1016/1016 1017/1017 1018/1018
f 1017/1017 1019/1019 1018/1018
f 1016/1016 1018/1018 1020/1020
f 1020/1020 1018/1018 1021/1021
f 1022/1022 1023/1023 1024/1024
f 1024/1024 1023/1023 1025/1025
f 1024/1024 1025/1025 1026/1026
f 1026/1026 1025/1025 1027/1027
f 1028/1028 1029/1029 1030/1030
f 1028/1028 1031/1031 1029/1029
f 1032/1032 1028/1028 1030/1030
f 1033/1033 1028/1028 1032/1032
f 1034/1034 1035/1035 1036/1036
f 1037/1037 1035/1035 1034/1034
f 1038/1038 1037/1037 1034/1034
f 1039/1039 1037/1037 1038/1038
