mtllib acce704.mtl
o acce704
v -0.83016 -1.04634 2.25774 0.000 0.000 0.000
v -0.79434 -0.97974 2.19708 0.000 0.000 0.000
v -0.77598 -0.95634 2.31768 0.000 0.000 0.000
v -0.79596 -0.98190 2.18538 0.000 0.000 0.000
v -0.75096 -0.90126 2.15334 0.000 0.000 0.000
v -0.70506 -0.83052 2.28006 0.000 0.000 0.000
v -0.76086 -0.91566 2.10870 0.000 0.000 0.000
v -0.81612 -1.00494 2.01834 0.000 0.000 0.000
v -0.83934 -1.05156 2.10510 0.000 0.000 0.000
v -0.64656 -0.72432 2.21490 0.000 0.000 0.000
v -0.73080 -0.85950 2.05182 0.000 0.000 0.000
v -0.80442 -0.98460 2.01690 0.000 0.000 0.000
v -0.87948 -1.11312 1.99062 0.000 0.000 0.000
v -0.85446 -1.06308 1.89540 0.000 0.000 0.000
v -0.89280 -1.12878 1.88208 0.000 0.000 0.000
v -0.88452 -1.10610 1.76472 0.000 0.000 0.000
v -0.77184 -0.92214 1.93284 0.000 0.000 0.000
v -0.83772 -1.03338 1.88586 0.000 0.000 0.000
v -0.80442 -0.96894 1.79478 0.000 0.000 0.000
v -0.84618 -1.03986 1.77228 0.000 0.000 0.000
v -0.81774 -0.98226 1.65312 0.000 0.000 0.000
v -0.83862 -1.01790 1.64340 0.000 0.000 0.000
v -0.80928 -0.95724 1.50264 0.000 0.000 0.000
v -0.58626 -0.66042 2.79954 0.000 0.000 0.000
v -0.60606 -0.68760 2.69316 0.000 0.000 0.000
v -0.53910 -0.57762 2.78352 0.000 0.000 0.000
v -0.57636 -0.63756 2.71692 0.000 0.000 0.000
v -0.53658 -0.56628 2.68434 0.000 0.000 0.000
v -0.46548 -0.43920 2.63232 0.000 0.000 0.000
v -0.49032 -0.47988 2.59758 0.000 0.000 0.000
v -0.44244 -0.39096 2.51676 0.000 0.000 0.000
v -0.46872 -0.43614 2.50488 0.000 0.000 0.000
v -0.44568 -0.39186 2.44710 0.000 0.000 0.000
v -0.47142 -0.43524 2.42802 0.000 0.000 0.000
v -0.45720 -0.40914 2.40804 0.000 0.000 0.000
v -0.48942 -0.46494 2.40570 0.000 0.000 0.000
v -0.49104 -0.46494 2.36358 0.000 0.000 0.000
v -0.50022 -0.48294 2.39418 0.000 0.000 0.000
v -0.51678 -0.51174 2.39508 0.000 0.000 0.000
v -0.51174 -0.49734 2.31354 0.000 0.000 0.000
v -0.50022 -0.47736 2.31642 0.000 0.000 0.000
v -0.49356 -0.46116 2.24784 0.000 0.000 0.000
v -0.49446 -0.47988 2.49462 0.000 0.000 0.000
v -0.47538 -0.44766 2.50542 0.000 0.000 0.000
v -0.51678 -0.52398 2.57130 0.000 0.000 0.000
v -0.50346 -0.50274 2.59596 0.000 0.000 0.000
v -0.55980 -0.60120 2.60928 0.000 0.000 0.000
v -0.55152 -0.59058 2.66220 0.000 0.000 0.000
v -0.59778 -0.66690 2.60478 0.000 0.000 0.000
v -0.61434 -0.70092 2.68074 0.000 0.000 0.000
v -0.61434 -0.69768 2.63448 0.000 0.000 0.000
v -0.66564 -0.79254 2.71782 0.000 0.000 0.000
v -0.63738 -0.73368 2.57400 0.000 0.000 0.000
v -0.68202 -0.80964 2.55132 0.000 0.000 0.000
v -0.89622 -1.14912 2.08962 0.000 0.000 0.000
v -0.91962 -1.17936 1.94238 0.000 0.000 0.000
v -0.88956 -1.13040 1.98936 0.000 0.000 0.000
v -0.86454 -1.09260 2.07036 0.000 0.000 0.000
v -0.86778 -1.10628 2.18106 0.000 0.000 0.000
v -0.83268 -1.04202 2.13480 0.000 0.000 0.000
v -0.63090 -0.71226 2.43036 0.000 0.000 0.000
v -0.66384 -0.76572 2.37600 0.000 0.000 0.000
v -0.58950 -0.63864 2.40372 0.000 0.000 0.000
v -0.56466 -0.60372 2.52216 0.000 0.000 0.000
v -0.52092 -0.52488 2.48274 0.000 0.000 0.000
v -0.51678 -0.52398 2.57130 0.000 0.000 0.000
v -0.49446 -0.47988 2.49462 0.000 0.000 0.000
v -0.49158 -0.47142 2.44584 0.000 0.000 0.000
v -0.53658 -0.54612 2.39562 0.000 0.000 0.000
v -0.59454 -0.64476 2.36844 0.000 0.000 0.000
v -0.55980 -0.60120 2.60928 0.000 0.000 0.000
v -0.59778 -0.66690 2.60478 0.000 0.000 0.000
v -0.61434 -0.69156 2.54502 0.000 0.000 0.000
v -0.63090 -0.71334 2.44782 0.000 0.000 0.000
v -0.67878 -0.79470 2.41884 0.000 0.000 0.000
v -0.72918 -0.88128 2.40696 0.000 0.000 0.000
v -0.63738 -0.73368 2.57400 0.000 0.000 0.000
v -0.68868 -0.81558 2.47248 0.000 0.000 0.000
v -0.70362 -0.84528 2.52846 0.000 0.000 0.000
v -0.74988 -0.92016 2.44782 0.000 0.000 0.000
v -0.80028 -1.00800 2.45178 0.000 0.000 0.000
v -0.68382 -0.79344 2.27970 0.000 0.000 0.000
v -0.72342 -0.85608 2.18826 0.000 0.000 0.000
v -0.63738 -0.71154 2.25648 0.000 0.000 0.000
v -0.64242 -0.72702 2.35404 0.000 0.000 0.000
v -0.62424 -0.69228 2.30994 0.000 0.000 0.000
v -0.62172 -0.68904 2.32614 0.000 0.000 0.000
v -0.58446 -0.62946 2.39562 0.000 0.000 0.000
v -0.67968 -0.79164 2.35530 0.000 0.000 0.000
v -0.68382 -0.79560 2.30868 0.000 0.000 0.000
v -0.53496 -0.54216 2.37996 0.000 0.000 0.000
v -0.63576 -0.70326 2.17872 0.000 0.000 0.000
v -0.74322 -0.89982 2.32164 0.000 0.000 0.000
v -0.77958 -0.95742 2.24208 0.000 0.000 0.000
v -0.69858 -0.82710 2.39058 0.000 0.000 0.000
v -0.64656 -0.73908 2.42424 0.000 0.000 0.000
v -0.74988 -0.91602 2.39004 0.000 0.000 0.000
v -0.74574 -0.90576 2.34576 0.000 0.000 0.000
v -0.86724 -1.11366 2.30094 0.000 0.000 0.000
v -0.78714 -0.98244 2.41452 0.000 0.000 0.000
v -0.70020 -0.83448 2.45376 0.000 0.000 0.000
v -0.55638 -0.61398 2.87244 0.000 0.000 0.000
v -0.53658 -0.57618 2.82564 0.000 0.000 0.000
v -0.52344 -0.55638 2.87064 0.000 0.000 0.000
v -0.52668 -0.56466 2.90772 0.000 0.000 0.000
v -0.49698 -0.51390 2.91996 0.000 0.000 0.000
v -0.83556 -0.82404 1.78470 0.000 0.000 0.000
v -0.85806 -0.85734 1.67076 0.000 0.000 0.000
v -0.81000 -0.77112 1.68318 0.000 0.000 0.000
v -0.81036 -0.77022 1.65618 0.000 0.000 0.000
v -0.76392 -0.68832 1.69380 0.000 0.000 0.000
v -0.77004 -0.70848 1.83276 0.000 0.000 0.000
v -0.76194 -0.68130 1.63728 0.000 0.000 0.000
v -0.78678 -0.68022 1.50552 0.000 0.000 0.000
v -0.82260 -0.76680 1.54872 0.000 0.000 0.000
v -0.71172 -0.60354 1.84230 0.000 0.000 0.000
v -0.71892 -0.60228 1.62360 0.000 0.000 0.000
v -0.77778 -0.66474 1.51704 0.000 0.000 0.000
v -0.83250 -0.73872 1.41516 0.000 0.000 0.000
v -0.78498 -0.64944 1.36656 0.000 0.000 0.000
v -0.82476 -0.68094 1.31508 0.000 0.000 0.000
v -0.79758 -0.58806 1.21410 0.000 0.000 0.000
v -0.83088 -0.78156 1.54710 0.000 0.000 0.000
v -0.86256 -0.83664 1.51056 0.000 0.000 0.000
v -0.83160 -0.75510 1.40292 0.000 0.000 0.000
v -0.72810 -0.57258 1.48536 0.000 0.000 0.000
v -0.77760 -0.61830 1.37736 0.000 0.000 0.000
v -0.72522 -0.52074 1.34118 0.000 0.000 0.000
v -0.77094 -0.54756 1.27908 0.000 0.000 0.000
v -0.72288 -0.43398 1.21536 0.000 0.000 0.000
v -0.75258 -0.44478 1.18566 0.000 0.000 0.000
v -0.71766 -0.30582 1.10664 0.000 0.000 0.000
v -0.84708 -0.75996 1.33344 0.000 0.000 0.000
v -0.74466 -0.67050 1.96056 0.000 0.000 0.000
v -0.75258 -0.67878 1.86372 0.000 0.000 0.000
v -0.71154 -0.60624 1.88892 0.000 0.000 0.000
v -0.75420 -0.67464 1.75518 0.000 0.000 0.000
v -0.71802 -0.62136 1.94328 0.000 0.000 0.000
v -0.72108 -0.62784 1.95822 0.000 0.000 0.000
v -0.71298 -0.61812 2.03400 0.000 0.000 0.000
v -0.77472 -0.72198 1.91142 0.000 0.000 0.000
v -0.76122 -0.69606 1.88622 0.000 0.000 0.000
v -0.67356 -0.54972 2.08170 0.000 0.000 0.000
v -0.68598 -0.55728 1.84896 0.000 0.000 0.000
v -0.80892 -0.77922 1.84068 0.000 0.000 0.000
v -0.81396 -0.78174 1.73772 0.000 0.000 0.000
v -0.79812 -0.76410 1.90818 0.000 0.000 0.000
v -0.76590 -0.71136 1.99764 0.000 0.000 0.000
v -0.83574 -0.83016 1.87434 0.000 0.000 0.000
v -0.82098 -0.80154 1.84608 0.000 0.000 0.000
v -0.89604 -0.92862 1.70928 0.000 0.000 0.000
v -0.86904 -0.89010 1.87218 0.000 0.000 0.000
v -0.81594 -0.80028 1.96614 0.000 0.000 0.000
v -0.83520 -0.85338 2.24856 0.000 0.000 0.000
v -0.81954 -0.81972 2.17152 0.000 0.000 0.000
v -0.79110 -0.77400 2.25702 0.000 0.000 0.000
v -0.80388 -0.79344 2.20122 0.000 0.000 0.000
v -0.77166 -0.73620 2.21508 0.000 0.000 0.000
v -0.70956 -0.62604 2.25522 0.000 0.000 0.000
v -0.71496 -0.63342 2.21742 0.000 0.000 0.000
v -0.65376 -0.52398 2.23920 0.000 0.000 0.000
v -0.66402 -0.54036 2.20392 0.000 0.000 0.000
v -0.62514 -0.46998 2.20266 0.000 0.000 0.000
v -0.63864 -0.49194 2.16288 0.000 0.000 0.000
v -0.62442 -0.46584 2.16072 0.000 0.000 0.000
v -0.64800 -0.50724 2.14056 0.000 0.000 0.000
v -0.63738 -0.48618 2.11194 0.000 0.000 0.000
v -0.64926 -0.50814 2.11734 0.000 0.000 0.000
v -0.66294 -0.53154 2.09826 0.000 0.000 0.000
v -0.63252 -0.47430 2.06442 0.000 0.000 0.000
v -0.62766 -0.46638 2.08026 0.000 0.000 0.000
v -0.60102 -0.41688 2.05668 0.000 0.000 0.000
v -0.68184 -0.57060 2.17584 0.000 0.000 0.000
v -0.67410 -0.55836 2.19780 0.000 0.000 0.000
v -0.72378 -0.64746 2.18412 0.000 0.000 0.000
v -0.72270 -0.64710 2.20806 0.000 0.000 0.000
v -0.76716 -0.72396 2.15568 0.000 0.000 0.000
v -0.77832 -0.74646 2.19042 0.000 0.000 0.000
v -0.78552 -0.75600 2.13264 0.000 0.000 0.000
v -0.81846 -0.81720 2.16036 0.000 0.000 0.000
v -0.80856 -0.79776 2.13588 0.000 0.000 0.000
v -0.86904 -0.90774 2.14308 0.000 0.000 0.000
v -0.83016 -0.83052 2.03922 0.000 0.000 0.000
v -0.76752 -0.71136 1.94742 0.000 0.000 0.000
v -0.71676 -0.62514 2.04030 0.000 0.000 0.000
v -0.73962 -0.67104 2.10546 0.000 0.000 0.000
v -0.69210 -0.58644 2.13192 0.000 0.000 0.000
v -0.72378 -0.64746 2.18412 0.000 0.000 0.000
v -0.68184 -0.57060 2.17584 0.000 0.000 0.000
v -0.65844 -0.52704 2.15334 0.000 0.000 0.000
v -0.68040 -0.56178 2.07522 0.000 0.000 0.000
v -0.71208 -0.61452 2.00592 0.000 0.000 0.000
v -0.76716 -0.72396 2.15568 0.000 0.000 0.000
v -0.78552 -0.75600 2.13264 0.000 0.000 0.000
v -0.77976 -0.74232 2.08368 0.000 0.000 0.000
v -0.77328 -0.72468 1.99278 0.000 0.000 0.000
v -0.82440 -0.81180 1.90710 0.000 0.000 0.000
v -0.83016 -0.83052 2.03922 0.000 0.000 0.000
v -0.80370 -0.78084 2.01006 0.000 0.000 0.000
v -0.84708 -0.85392 1.92402 0.000 0.000 0.000
v -0.89064 -0.92970 1.87722 0.000 0.000 0.000
v -0.82710 -0.84276 2.31462 0.000 0.000 0.000
v -0.80694 -0.80496 2.29284 0.000 0.000 0.000
v -0.80244 -0.80064 2.34792 0.000 0.000 0.000
v -0.67014 -0.71190 1.92618 0.000 0.000 0.000
v -0.70380 -0.74556 1.84374 0.000 0.000 0.000
v -0.63882 -0.68058 1.86840 0.000 0.000 0.000
v -0.64548 -0.68724 1.79622 0.000 0.000 0.000
v -0.68634 -0.72810 1.75176 0.000 0.000 0.000
v -0.73746 -0.77922 1.76130 0.000 0.000 0.000
v -0.76878 -0.81072 1.81908 0.000 0.000 0.000
v -0.72126 -0.76302 1.93572 0.000 0.000 0.000
v -0.76212 -0.80388 1.89144 0.000 0.000 0.000
v -0.60948 -0.72216 2.61522 0.000 0.000 0.000
v -0.64512 -0.75780 2.52774 0.000 0.000 0.000
v -0.57618 -0.68886 2.55384 0.000 0.000 0.000
v -0.58338 -0.69606 2.47734 0.000 0.000 0.000
v -0.62676 -0.73944 2.43036 0.000 0.000 0.000
v -0.68094 -0.79362 2.44044 0.000 0.000 0.000
v -0.71406 -0.82674 2.50164 0.000 0.000 0.000
v -0.66366 -0.77634 2.62530 0.000 0.000 0.000
v -0.70704 -0.81972 2.57832 0.000 0.000 0.000
v -0.64368 -0.75636 2.52000 0.000 0.000 0.000
v -0.56250 -0.67518 2.55906 0.000 0.000 0.000
v -0.64674 -0.75924 2.53566 0.000 0.000 0.000
v -0.72792 -0.84060 2.49642 0.000 0.000 0.000
v -0.65070 -0.76338 2.52576 0.000 0.000 0.000
v -0.62298 -0.73566 2.41074 0.000 0.000 0.000
v -0.63972 -0.75240 2.52990 0.000 0.000 0.000
v -0.66744 -0.77994 2.64474 0.000 0.000 0.000
v -0.64944 -0.76212 2.51748 0.000 0.000 0.000
v -0.53604 -0.64872 2.43864 0.000 0.000 0.000
v -0.64098 -0.75366 2.53800 0.000 0.000 0.000
v -0.75438 -0.86688 2.61684 0.000 0.000 0.000
v -0.65250 -0.76518 2.53368 0.000 0.000 0.000
v -0.70812 -0.82080 2.37348 0.000 0.000 0.000
v -0.63792 -0.75060 2.52180 0.000 0.000 0.000
v -0.58212 -0.69480 2.68200 0.000 0.000 0.000
v -0.47826 -0.54486 2.26782 0.000 0.000 0.000
v -0.49410 -0.57240 2.21274 0.000 0.000 0.000
v -0.46350 -0.51930 2.22930 0.000 0.000 0.000
v -0.46656 -0.52470 2.18106 0.000 0.000 0.000
v -0.48582 -0.55818 2.15136 0.000 0.000 0.000
v -0.50994 -0.59994 2.15784 0.000 0.000 0.000
v -0.52470 -0.62550 2.19636 0.000 0.000 0.000
v -0.50238 -0.58662 2.27412 0.000 0.000 0.000
v -0.52164 -0.62010 2.24460 0.000 0.000 0.000
v -0.49338 -0.57114 2.20788 0.000 0.000 0.000
v -0.45720 -0.50868 2.23254 0.000 0.000 0.000
v -0.49482 -0.57348 2.21778 0.000 0.000 0.000
v -0.53100 -0.63612 2.19312 0.000 0.000 0.000
v -0.49662 -0.57654 2.21148 0.000 0.000 0.000
v -0.48420 -0.55530 2.13912 0.000 0.000 0.000
v -0.49158 -0.56808 2.21418 0.000 0.000 0.000
v -0.50400 -0.58950 2.28636 0.000 0.000 0.000
v -0.49590 -0.57564 2.20626 0.000 0.000 0.000
v -0.44550 -0.48834 2.15676 0.000 0.000 0.000
v -0.49230 -0.56916 2.21922 0.000 0.000 0.000
v -0.54270 -0.65646 2.26890 0.000 0.000 0.000
v -0.49734 -0.57798 2.21652 0.000 0.000 0.000
v -0.52218 -0.62100 2.11572 0.000 0.000 0.000
v -0.49086 -0.56682 2.20914 0.000 0.000 0.000
v -0.46602 -0.52380 2.30994 0.000 0.000 0.000
v -0.73656 -0.83808 2.15370 0.000 0.000 0.000
v -0.73656 -0.86328 2.11014 0.000 0.000 0.000
v -0.73656 -0.81468 2.12328 0.000 0.000 0.000
v -0.73656 -0.81972 2.08512 0.000 0.000 0.000
v -0.73656 -0.85014 2.06172 0.000 0.000 0.000
v -0.73656 -0.88830 2.06676 0.000 0.000 0.000
v -0.73656 -0.91170 2.09718 0.000 0.000 0.000
v -0.73656 -0.87624 2.15874 0.000 0.000 0.000
v -0.73656 -0.90666 2.13534 0.000 0.000 0.000
v -0.73656 -0.86220 2.10636 0.000 0.000 0.000
v -0.73656 -0.80496 2.12580 0.000 0.000 0.000
v -0.73656 -0.86418 2.11410 0.000 0.000 0.000
v -0.73656 -0.92142 2.09466 0.000 0.000 0.000
v -0.73656 -0.86706 2.10924 0.000 0.000 0.000
v -0.73656 -0.84762 2.05200 0.000 0.000 0.000
v -0.73656 -0.85932 2.11122 0.000 0.000 0.000
v -0.73656 -0.87876 2.16846 0.000 0.000 0.000
v -0.73656 -0.86616 2.10510 0.000 0.000 0.000
v -0.73656 -0.78642 2.06586 0.000 0.000 0.000
v -0.73656 -0.86022 2.11536 0.000 0.000 0.000
v -0.73656 -0.93996 2.15460 0.000 0.000 0.000
v -0.73656 -0.86832 2.11320 0.000 0.000 0.000
v -0.73656 -0.90756 2.03346 0.000 0.000 0.000
v -0.73656 -0.85806 2.10726 0.000 0.000 0.000
v -0.73656 -0.81882 2.18700 0.000 0.000 0.000
v -0.77598 -0.93078 1.94670 0.000 0.000 0.000
v -0.79362 -0.94860 1.90314 0.000 0.000 0.000
v -0.75942 -0.91422 1.91628 0.000 0.000 0.000
v -0.76284 -0.91782 1.87812 0.000 0.000 0.000
v -0.78444 -0.93942 1.85472 0.000 0.000 0.000
v -0.81144 -0.96624 1.85976 0.000 0.000 0.000
v -0.82800 -0.98280 1.89018 0.000 0.000 0.000
v -0.80280 -0.95778 1.95174 0.000 0.000 0.000
v -0.82440 -0.97938 1.92834 0.000 0.000 0.000
v -0.79290 -0.94788 1.89936 0.000 0.000 0.000
v -0.75258 -0.90738 1.91880 0.000 0.000 0.000
v -0.79434 -0.94932 1.90710 0.000 0.000 0.000
v -0.83484 -0.98964 1.88766 0.000 0.000 0.000
v -0.79650 -0.95130 1.90224 0.000 0.000 0.000
v -0.78264 -0.93744 1.84500 0.000 0.000 0.000
v -0.79092 -0.94590 1.90422 0.000 0.000 0.000
v -0.80478 -0.95958 1.96146 0.000 0.000 0.000
v -0.79578 -0.95058 1.89810 0.000 0.000 0.000
v -0.73944 -0.89424 1.85886 0.000 0.000 0.000
v -0.79164 -0.94644 1.90836 0.000 0.000 0.000
v -0.84798 -1.00278 1.94760 0.000 0.000 0.000
v -0.79722 -0.95220 1.90620 0.000 0.000 0.000
v -0.82494 -0.97992 1.82646 0.000 0.000 0.000
v -0.79002 -0.94500 1.90026 0.000 0.000 0.000
v -0.76230 -0.91728 1.98000 0.000 0.000 0.000
v -0.70488 -0.60606 2.67930 0.000 0.000 0.000
v -0.71136 -0.63018 2.63574 0.000 0.000 0.000
v -0.69894 -0.58338 2.64888 0.000 0.000 0.000
v -0.70020 -0.58824 2.61072 0.000 0.000 0.000
v -0.70812 -0.61776 2.58732 0.000 0.000 0.000
v -0.71802 -0.65448 2.59236 0.000 0.000 0.000
v -0.72396 -0.67716 2.62278 0.000 0.000 0.000
v -0.71478 -0.64278 2.68434 0.000 0.000 0.000
v -0.72270 -0.67230 2.66094 0.000 0.000 0.000
v -0.71118 -0.62928 2.63196 0.000 0.000 0.000
v -0.69642 -0.57402 2.65140 0.000 0.000 0.000
v -0.71172 -0.63126 2.63970 0.000 0.000 0.000
v -0.72648 -0.68652 2.62026 0.000 0.000 0.000
v -0.71244 -0.63396 2.63484 0.000 0.000 0.000
v -0.70740 -0.61524 2.57760 0.000 0.000 0.000
v -0.71046 -0.62640 2.63682 0.000 0.000 0.000
v -0.71550 -0.64530 2.69406 0.000 0.000 0.000
v -0.71226 -0.63306 2.63070 0.000 0.000 0.000
v -0.69156 -0.55602 2.59146 0.000 0.000 0.000
v -0.71064 -0.62730 2.64096 0.000 0.000 0.000
v -0.73134 -0.70434 2.68020 0.000 0.000 0.000
v -0.71280 -0.63522 2.63880 0.000 0.000 0.000
v -0.72288 -0.67302 2.55906 0.000 0.000 0.000
v -0.71010 -0.62532 2.63286 0.000 0.000 0.000
v -0.70002 -0.58734 2.71260 0.000 0.000 0.000
v -0.73170 -0.49212 1.27368 0.000 0.000 0.000
v -0.73170 -0.53388 1.24560 0.000 0.000 0.000
v -0.73170 -0.48456 1.23606 0.000 0.000 0.000
v -0.73170 -0.50580 1.20402 0.000 0.000 0.000
v -0.73170 -0.54342 1.19628 0.000 0.000 0.000
v -0.73170 -0.57546 1.21752 0.000 0.000 0.000
v -0.73170 -0.58320 1.25532 0.000 0.000 0.000
v -0.73170 -0.52416 1.29492 0.000 0.000 0.000
v -0.73170 -0.56196 1.28736 0.000 0.000 0.000
v -0.73170 -0.53460 1.24164 0.000 0.000 0.000
v -0.73170 -0.47466 1.23408 0.000 0.000 0.000
v -0.73170 -0.53298 1.24956 0.000 0.000 0.000
v -0.73170 -0.59292 1.25712 0.000 0.000 0.000
v -0.73170 -0.53784 1.24650 0.000 0.000 0.000
v -0.73170 -0.54522 1.18656 0.000 0.000 0.000
v -0.73170 -0.52992 1.24488 0.000 0.000 0.000
v -0.73170 -0.52236 1.30482 0.000 0.000 0.000
v -0.73170 -0.53874 1.24236 0.000 0.000 0.000
v -0.73170 -0.48420 1.17216 0.000 0.000 0.000
v -0.73170 -0.52884 1.24902 0.000 0.000 0.000
v -0.73170 -0.58338 1.31922 0.000 0.000 0.000
v -0.73170 -0.53712 1.25064 0.000 0.000 0.000
v -0.73170 -0.60732 1.19610 0.000 0.000 0.000
v -0.73170 -0.53046 1.24074 0.000 0.000 0.000
v -0.73170 -0.46026 1.29528 0.000 0.000 0.000
v -0.70236 -0.74430 1.83636 0.000 0.000 0.000
v -0.62568 -0.66762 1.87344 0.000 0.000 0.000
v -0.70524 -0.74700 1.85112 0.000 0.000 0.000
v -0.78174 -0.82368 1.81422 0.000 0.000 0.000
v -0.70902 -0.75078 1.84176 0.000 0.000 0.000
v -0.68292 -0.72468 1.73340 0.000 0.000 0.000
v -0.69858 -0.74034 1.84572 0.000 0.000 0.000
v -0.72468 -0.76644 1.95408 0.000 0.000 0.000
v -0.70776 -0.74952 1.83402 0.000 0.000 0.000
v -0.60084 -0.64278 1.75986 0.000 0.000 0.000
v -0.69984 -0.74160 1.85346 0.000 0.000 0.000
v -0.80658 -0.84852 1.92780 0.000 0.000 0.000
v -0.71064 -0.75240 1.84932 0.000 0.000 0.000
v -0.76320 -0.80496 1.69830 0.000 0.000 0.000
v -0.69696 -0.73872 1.83816 0.000 0.000 0.000
v -0.64440 -0.68616 1.98936 0.000 0.000 0.000
v -0.89280 -0.92358 1.85004 0.000 0.000 0.000
v -0.90306 -0.96228 1.78074 0.000 0.000 0.000
v -0.88308 -0.88758 1.80144 0.000 0.000 0.000
v -0.88524 -0.89532 1.74078 0.000 0.000 0.000
v -0.89784 -0.94230 1.70352 0.000 0.000 0.000
v -0.91350 -1.00098 1.71144 0.000 0.000 0.000
v -0.92322 -1.03698 1.76004 0.000 0.000 0.000
v -0.90846 -0.98226 1.85814 0.000 0.000 0.000
v -0.92106 -1.02924 1.82088 0.000 0.000 0.000
v -0.90270 -0.96066 1.77462 0.000 0.000 0.000
v -0.87912 -0.87264 1.80558 0.000 0.000 0.000
v -0.90360 -0.96390 1.78704 0.000 0.000 0.000
v -0.92718 -1.05192 1.75590 0.000 0.000 0.000
v -0.90468 -0.96822 1.77912 0.000 0.000 0.000
v -0.89676 -0.93834 1.68804 0.000 0.000 0.000
v -0.90162 -0.95634 1.78254 0.000 0.000 0.000
v -0.90954 -0.98622 1.87344 0.000 0.000 0.000
v -0.90432 -0.96678 1.77264 0.000 0.000 0.000
v -0.87156 -0.84420 1.71018 0.000 0.000 0.000
v -0.90198 -0.95778 1.78902 0.000 0.000 0.000
v -0.93474 -1.08036 1.85130 0.000 0.000 0.000
v -0.90522 -0.97020 1.78542 0.000 0.000 0.000
v -0.92142 -1.03050 1.65852 0.000 0.000 0.000
v -0.90108 -0.95436 1.77606 0.000 0.000 0.000
v -0.88488 -0.89406 1.90314 0.000 0.000 0.000
v -0.71802 -0.92178 1.96794 0.000 0.000 0.000
v -0.71802 -0.89802 1.96794 0.000 0.000 0.000
v -0.71802 -0.89802 1.99170 0.000 0.000 0.000
v -0.71802 -0.89802 1.94436 0.000 0.000 0.000
v -0.71802 -0.87426 1.96794 0.000 0.000 0.000
v -0.57006 -0.67446 2.21454 0.000 0.000 0.000
v -0.57006 -0.64710 2.21454 0.000 0.000 0.000
v -0.57006 -0.64710 2.24208 0.000 0.000 0.000
v -0.57006 -0.64710 2.18718 0.000 0.000 0.000
v -0.57006 -0.61956 2.21454 0.000 0.000 0.000
v -0.87372 -0.67788 1.47114 0.000 0.000 0.000
v -0.86004 -0.66438 1.47114 0.000 0.000 0.000
v -0.86004 -0.66438 1.49040 0.000 0.000 0.000
v -0.86004 -0.66438 1.45206 0.000 0.000 0.000
v -0.84654 -0.65088 1.47114 0.000 0.000 0.000
v -0.81000 -0.64854 1.43874 0.000 0.000 0.000
v -0.81000 -0.61632 1.43874 0.000 0.000 0.000
v -0.81000 -0.61632 1.47114 0.000 0.000 0.000
v -0.81000 -0.61632 1.40652 0.000 0.000 0.000
v -0.81000 -0.58392 1.43874 0.000 0.000 0.000
v -0.71982 -0.85140 2.04894 0.000 0.000 0.000
v -0.71028 -0.83484 2.04894 0.000 0.000 0.000
v -0.71028 -0.83484 2.06820 0.000 0.000 0.000
v -0.71028 -0.83484 2.02986 0.000 0.000 0.000
v -0.70074 -0.81828 2.04894 0.000 0.000 0.000
v -0.66492 -0.83646 1.97154 0.000 0.000 0.000
v -0.66492 -0.80424 1.97154 0.000 0.000 0.000
v -0.66492 -0.80424 2.00394 0.000 0.000 0.000
v -0.66492 -0.80424 1.93932 0.000 0.000 0.000
v -0.66492 -0.77184 1.97154 0.000 0.000 0.000
v -0.63882 0.68058 1.86840 0.000 0.000 0.000
v -0.70380 0.74556 1.84374 0.000 0.000 0.000
v -0.67014 0.71190 1.92618 0.000 0.000 0.000
v -0.64548 0.68724 1.79622 0.000 0.000 0.000
v -0.68634 0.72810 1.75176 0.000 0.000 0.000
v -0.73746 0.77922 1.76130 0.000 0.000 0.000
v -0.76878 0.81072 1.81908 0.000 0.000 0.000
v -0.72126 0.76302 1.93572 0.000 0.000 0.000
v -0.76212 0.80388 1.89144 0.000 0.000 0.000
v -0.57618 0.68886 2.55384 0.000 0.000 0.000
v -0.64512 0.75780 2.52774 0.000 0.000 0.000
v -0.60948 0.72216 2.61522 0.000 0.000 0.000
v -0.58338 0.69606 2.47734 0.000 0.000 0.000
v -0.62676 0.73944 2.43036 0.000 0.000 0.000
v -0.68094 0.79362 2.44044 0.000 0.000 0.000
v -0.71406 0.82674 2.50164 0.000 0.000 0.000
v -0.66366 0.77634 2.62530 0.000 0.000 0.000
v -0.70704 0.81972 2.57832 0.000 0.000 0.000
v -0.64674 0.75924 2.53566 0.000 0.000 0.000
v -0.56250 0.67518 2.55906 0.000 0.000 0.000
v -0.64368 0.75636 2.52000 0.000 0.000 0.000
v -0.72792 0.84060 2.49642 0.000 0.000 0.000
v -0.63972 0.75240 2.52990 0.000 0.000 0.000
v -0.62298 0.73566 2.41074 0.000 0.000 0.000
v -0.65070 0.76338 2.52576 0.000 0.000 0.000
v -0.66744 0.77994 2.64474 0.000 0.000 0.000
v -0.64098 0.75366 2.53800 0.000 0.000 0.000
v -0.53604 0.64872 2.43864 0.000 0.000 0.000
v -0.64944 0.76212 2.51748 0.000 0.000 0.000
v -0.75438 0.86688 2.61684 0.000 0.000 0.000
v -0.63792 0.75060 2.52180 0.000 0.000 0.000
v -0.70812 0.82080 2.37348 0.000 0.000 0.000
v -0.65250 0.76518 2.53368 0.000 0.000 0.000
v -0.58212 0.69480 2.68200 0.000 0.000 0.000
v -0.46350 0.51930 2.22930 0.000 0.000 0.000
v -0.49410 0.57240 2.21274 0.000 0.000 0.000
v -0.47826 0.54486 2.26782 0.000 0.000 0.000
v -0.46656 0.52470 2.18106 0.000 0.000 0.000
v -0.48582 0.55818 2.15136 0.000 0.000 0.000
v -0.50994 0.59994 2.15784 0.000 0.000 0.000
v -0.52470 0.62550 2.19636 0.000 0.000 0.000
v -0.50238 0.58662 2.27412 0.000 0.000 0.000
v -0.52164 0.62010 2.24460 0.000 0.000 0.000
v -0.49482 0.57348 2.21778 0.000 0.000 0.000
v -0.45720 0.50868 2.23254 0.000 0.000 0.000
v -0.49338 0.57114 2.20788 0.000 0.000 0.000
v -0.53100 0.63612 2.19312 0.000 0.000 0.000
v -0.49158 0.56808 2.21418 0.000 0.000 0.000
v -0.48420 0.55530 2.13912 0.000 0.000 0.000
v -0.49662 0.57654 2.21148 0.000 0.000 0.000
v -0.50400 0.58950 2.28636 0.000 0.000 0.000
v -0.49230 0.56916 2.21922 0.000 0.000 0.000
v -0.44550 0.48834 2.15676 0.000 0.000 0.000
v -0.49590 0.57564 2.20626 0.000 0.000 0.000
v -0.54270 0.65646 2.26890 0.000 0.000 0.000
v -0.49086 0.56682 2.20914 0.000 0.000 0.000
v -0.52218 0.62100 2.11572 0.000 0.000 0.000
v -0.49734 0.57798 2.21652 0.000 0.000 0.000
v -0.46602 0.52380 2.30994 0.000 0.000 0.000
v -0.73656 0.81468 2.12328 0.000 0.000 0.000
v -0.73656 0.86328 2.11014 0.000 0.000 0.000
v -0.73656 0.83808 2.15370 0.000 0.000 0.000
v -0.73656 0.81972 2.08512 0.000 0.000 0.000
v -0.73656 0.85014 2.06172 0.000 0.000 0.000
v -0.73656 0.88830 2.06676 0.000 0.000 0.000
v -0.73656 0.91170 2.09718 0.000 0.000 0.000
v -0.73656 0.87624 2.15874 0.000 0.000 0.000
v -0.73656 0.90666 2.13534 0.000 0.000 0.000
v -0.73656 0.86418 2.11410 0.000 0.000 0.000
v -0.73656 0.80496 2.12580 0.000 0.000 0.000
v -0.73656 0.86220 2.10636 0.000 0.000 0.000
v -0.73656 0.92142 2.09466 0.000 0.000 0.000
v -0.73656 0.85932 2.11122 0.000 0.000 0.000
v -0.73656 0.84762 2.05200 0.000 0.000 0.000
v -0.73656 0.86706 2.10924 0.000 0.000 0.000
v -0.73656 0.87876 2.16846 0.000 0.000 0.000
v -0.73656 0.86022 2.11536 0.000 0.000 0.000
v -0.73656 0.78642 2.06586 0.000 0.000 0.000
v -0.73656 0.86616 2.10510 0.000 0.000 0.000
v -0.73656 0.93996 2.15460 0.000 0.000 0.000
v -0.73656 0.85806 2.10726 0.000 0.000 0.000
v -0.73656 0.90756 2.03346 0.000 0.000 0.000
v -0.73656 0.86832 2.11320 0.000 0.000 0.000
v -0.73656 0.81882 2.18700 0.000 0.000 0.000
v -0.75942 0.91422 1.91628 0.000 0.000 0.000
v -0.79362 0.94860 1.90314 0.000 0.000 0.000
v -0.77598 0.93078 1.94670 0.000 0.000 0.000
v -0.76284 0.91782 1.87812 0.000 0.000 0.000
v -0.78444 0.93942 1.85472 0.000 0.000 0.000
v -0.81144 0.96624 1.85976 0.000 0.000 0.000
v -0.82800 0.98280 1.89018 0.000 0.000 0.000
v -0.80280 0.95778 1.95174 0.000 0.000 0.000
v -0.82440 0.97938 1.92834 0.000 0.000 0.000
v -0.79434 0.94932 1.90710 0.000 0.000 0.000
v -0.75258 0.90738 1.91880 0.000 0.000 0.000
v -0.79290 0.94788 1.89936 0.000 0.000 0.000
v -0.83484 0.98964 1.88766 0.000 0.000 0.000
v -0.79092 0.94590 1.90422 0.000 0.000 0.000
v -0.78264 0.93744 1.84500 0.000 0.000 0.000
v -0.79650 0.95130 1.90224 0.000 0.000 0.000
v -0.80478 0.95958 1.96146 0.000 0.000 0.000
v -0.79164 0.94644 1.90836 0.000 0.000 0.000
v -0.73944 0.89424 1.85886 0.000 0.000 0.000
v -0.79578 0.95058 1.89810 0.000 0.000 0.000
v -0.84798 1.00278 1.94760 0.000 0.000 0.000
v -0.79002 0.94500 1.90026 0.000 0.000 0.000
v -0.82494 0.97992 1.82646 0.000 0.000 0.000
v -0.79722 0.95220 1.90620 0.000 0.000 0.000
v -0.76230 0.91728 1.98000 0.000 0.000 0.000
v -0.69894 0.58338 2.64888 0.000 0.000 0.000
v -0.71136 0.63018 2.63574 0.000 0.000 0.000
v -0.70488 0.60606 2.67930 0.000 0.000 0.000
v -0.70020 0.58824 2.61072 0.000 0.000 0.000
v -0.70812 0.61776 2.58732 0.000 0.000 0.000
v -0.71802 0.65448 2.59236 0.000 0.000 0.000
v -0.72396 0.67716 2.62278 0.000 0.000 0.000
v -0.71478 0.64278 2.68434 0.000 0.000 0.000
v -0.72270 0.67230 2.66094 0.000 0.000 0.000
v -0.71172 0.63126 2.63970 0.000 0.000 0.000
v -0.69642 0.57402 2.65140 0.000 0.000 0.000
v -0.71118 0.62928 2.63196 0.000 0.000 0.000
v -0.72648 0.68652 2.62026 0.000 0.000 0.000
v -0.71046 0.62640 2.63682 0.000 0.000 0.000
v -0.70740 0.61524 2.57760 0.000 0.000 0.000
v -0.71244 0.63396 2.63484 0.000 0.000 0.000
v -0.71550 0.64530 2.69406 0.000 0.000 0.000
v -0.71064 0.62730 2.64096 0.000 0.000 0.000
v -0.69156 0.55602 2.59146 0.000 0.000 0.000
v -0.71226 0.63306 2.63070 0.000 0.000 0.000
v -0.73134 0.70434 2.68020 0.000 0.000 0.000
v -0.71010 0.62532 2.63286 0.000 0.000 0.000
v -0.72288 0.67302 2.55906 0.000 0.000 0.000
v -0.71280 0.63522 2.63880 0.000 0.000 0.000
v -0.70002 0.58734 2.71260 0.000 0.000 0.000
v -0.73170 0.48456 1.23606 0.000 0.000 0.000
v -0.73170 0.53388 1.24560 0.000 0.000 0.000
v -0.73170 0.49212 1.27368 0.000 0.000 0.000
v -0.73170 0.50580 1.20402 0.000 0.000 0.000
v -0.73170 0.54342 1.19628 0.000 0.000 0.000
v -0.73170 0.57546 1.21752 0.000 0.000 0.000
v -0.73170 0.58320 1.25532 0.000 0.000 0.000
v -0.73170 0.52416 1.29492 0.000 0.000 0.000
v -0.73170 0.56196 1.28736 0.000 0.000 0.000
v -0.73170 0.53298 1.24956 0.000 0.000 0.000
v -0.73170 0.47466 1.23408 0.000 0.000 0.000
v -0.73170 0.53460 1.24164 0.000 0.000 0.000
v -0.73170 0.59292 1.25712 0.000 0.000 0.000
v -0.73170 0.52992 1.24488 0.000 0.000 0.000
v -0.73170 0.54522 1.18656 0.000 0.000 0.000
v -0.73170 0.53784 1.24650 0.000 0.000 0.000
v -0.73170 0.52236 1.30482 0.000 0.000 0.000
v -0.73170 0.52884 1.24902 0.000 0.000 0.000
v -0.73170 0.48420 1.17216 0.000 0.000 0.000
v -0.73170 0.53874 1.24236 0.000 0.000 0.000
v -0.73170 0.58338 1.31922 0.000 0.000 0.000
v -0.73170 0.53046 1.24074 0.000 0.000 0.000
v -0.73170 0.60732 1.19610 0.000 0.000 0.000
v -0.73170 0.53712 1.25064 0.000 0.000 0.000
v -0.73170 0.46026 1.29528 0.000 0.000 0.000
v -0.70524 0.74700 1.85112 0.000 0.000 0.000
v -0.62568 0.66762 1.87344 0.000 0.000 0.000
v -0.70236 0.74430 1.83636 0.000 0.000 0.000
v -0.78174 0.82368 1.81422 0.000 0.000 0.000
v -0.69858 0.74034 1.84572 0.000 0.000 0.000
v -0.68292 0.72468 1.73340 0.000 0.000 0.000
v -0.70902 0.75078 1.84176 0.000 0.000 0.000
v -0.72468 0.76644 1.95408 0.000 0.000 0.000
v -0.69984 0.74160 1.85346 0.000 0.000 0.000
v -0.60084 0.64278 1.75986 0.000 0.000 0.000
v -0.70776 0.74952 1.83402 0.000 0.000 0.000
v -0.80658 0.84852 1.92780 0.000 0.000 0.000
v -0.69696 0.73872 1.83816 0.000 0.000 0.000
v -0.76320 0.80496 1.69830 0.000 0.000 0.000
v -0.71064 0.75240 1.84932 0.000 0.000 0.000
v -0.64440 0.68616 1.98936 0.000 0.000 0.000
v -0.88308 0.88758 1.80144 0.000 0.000 0.000
v -0.90306 0.96228 1.78074 0.000 0.000 0.000
v -0.89280 0.92358 1.85004 0.000 0.000 0.000
v -0.88524 0.89532 1.74078 0.000 0.000 0.000
v -0.89784 0.94230 1.70352 0.000 0.000 0.000
v -0.91350 1.00098 1.71144 0.000 0.000 0.000
v -0.92322 1.03698 1.76004 0.000 0.000 0.000
v -0.90846 0.98226 1.85814 0.000 0.000 0.000
v -0.92106 1.02924 1.82088 0.000 0.000 0.000
v -0.90360 0.96390 1.78704 0.000 0.000 0.000
v -0.87912 0.87264 1.80558 0.000 0.000 0.000
v -0.90270 0.96066 1.77462 0.000 0.000 0.000
v -0.92718 1.05192 1.75590 0.000 0.000 0.000
v -0.90162 0.95634 1.78254 0.000 0.000 0.000
v -0.89676 0.93834 1.68804 0.000 0.000 0.000
v -0.90468 0.96822 1.77912 0.000 0.000 0.000
v -0.90954 0.98622 1.87344 0.000 0.000 0.000
v -0.90198 0.95778 1.78902 0.000 0.000 0.000
v -0.87156 0.84420 1.71018 0.000 0.000 0.000
v -0.90432 0.96678 1.77264 0.000 0.000 0.000
v -0.93474 1.08036 1.85130 0.000 0.000 0.000
v -0.90108 0.95436 1.77606 0.000 0.000 0.000
v -0.92142 1.03050 1.65852 0.000 0.000 0.000
v -0.90522 0.97020 1.78542 0.000 0.000 0.000
v -0.88488 0.89406 1.90314 0.000 0.000 0.000
v -0.71802 0.89802 1.99170 0.000 0.000 0.000
v -0.71802 0.89802 1.96794 0.000 0.000 0.000
v -0.71802 0.92178 1.96794 0.000 0.000 0.000
v -0.71802 0.89802 1.94436 0.000 0.000 0.000
v -0.71802 0.87426 1.96794 0.000 0.000 0.000
v -0.57006 0.64710 2.24208 0.000 0.000 0.000
v -0.57006 0.64710 2.21454 0.000 0.000 0.000
v -0.57006 0.67446 2.21454 0.000 0.000 0.000
v -0.57006 0.64710 2.18718 0.000 0.000 0.000
v -0.57006 0.61956 2.21454 0.000 0.000 0.000
v -0.86004 0.66438 1.49040 0.000 0.000 0.000
v -0.86004 0.66438 1.47114 0.000 0.000 0.000
v -0.87372 0.67788 1.47114 0.000 0.000 0.000
v -0.86004 0.66438 1.45206 0.000 0.000 0.000
v -0.84654 0.65088 1.47114 0.000 0.000 0.000
v -0.81000 0.61632 1.47114 0.000 0.000 0.000
v -0.81000 0.61632 1.43874 0.000 0.000 0.000
v -0.81000 0.64854 1.43874 0.000 0.000 0.000
v -0.81000 0.61632 1.40652 0.000 0.000 0.000
v -0.81000 0.58392 1.43874 0.000 0.000 0.000
v -0.71028 0.83484 2.06820 0.000 0.000 0.000
v -0.71028 0.83484 2.04894 0.000 0.000 0.000
v -0.71982 0.85140 2.04894 0.000 0.000 0.000
v -0.71028 0.83484 2.02986 0.000 0.000 0.000
v -0.70074 0.81828 2.04894 0.000 0.000 0.000
v -0.66492 0.80424 2.00394 0.000 0.000 0.000
v -0.66492 0.80424 1.97154 0.000 0.000 0.000
v -0.66492 0.83646 1.97154 0.000 0.000 0.000
v -0.66492 0.80424 1.93932 0.000 0.000 0.000
v -0.66492 0.77184 1.97154 0.000 0.000 0.000
v -0.54180 -0.10800 2.21886 0.000 0.000 0.000
v -0.54180 -0.10800 2.03940 0.000 0.000 0.000
v -0.54180 -0.03924 2.20518 0.000 0.000 0.000
v -0.54180 -0.28746 2.03940 0.000 0.000 0.000
v -0.54180 -0.27378 2.10816 0.000 0.000 0.000
v -0.54180 -0.10800 2.03940 0.000 0.000 0.000
v -0.54180 -0.23490 2.16630 0.000 0.000 0.000
v -0.54180 0.01890 2.16630 0.000 0.000 0.000
v -0.54180 -0.10800 2.03940 0.000 0.000 0.000
v -0.54180 -0.17676 2.20518 0.000 0.000 0.000
v -0.54180 0.05778 2.10816 0.000 0.000 0.000
v -0.54180 -0.10800 2.03940 0.000 0.000 0.000
v -0.54180 -0.10800 2.21886 0.000 0.000 0.000
v -0.54180 0.07146 2.03940 0.000 0.000 0.000
v -0.54180 -0.27378 1.97064 0.000 0.000 0.000
v -0.54180 -0.28746 2.03940 0.000 0.000 0.000
v -0.54180 -0.23490 1.91250 0.000 0.000 0.000
v -0.54180 -0.17676 1.87362 0.000 0.000 0.000
v -0.54180 -0.10800 1.85994 0.000 0.000 0.000
v -0.54180 -0.03924 1.87362 0.000 0.000 0.000
v -0.54180 -0.10800 1.85994 0.000 0.000 0.000
v -0.54180 0.01890 1.91250 0.000 0.000 0.000
v -0.54180 0.05778 1.97064 0.000 0.000 0.000
v -0.54180 0.07146 2.03940 0.000 0.000 0.000
v -0.57780 0.12600 2.45124 0.000 0.000 0.000
v -0.57780 0.12600 2.25180 0.000 0.000 0.000
v -0.57780 0.20232 2.43612 0.000 0.000 0.000
v -0.57780 -0.07344 2.25180 0.000 0.000 0.000
v -0.57780 -0.05832 2.32812 0.000 0.000 0.000
v -0.57780 0.12600 2.25180 0.000 0.000 0.000
v -0.57780 -0.01494 2.39274 0.000 0.000 0.000
v -0.57780 0.26694 2.39274 0.000 0.000 0.000
v -0.57780 0.12600 2.25180 0.000 0.000 0.000
v -0.57780 0.04968 2.43612 0.000 0.000 0.000
v -0.57780 0.31032 2.32812 0.000 0.000 0.000
v -0.57780 0.12600 2.25180 0.000 0.000 0.000
v -0.57780 0.12600 2.45124 0.000 0.000 0.000
v -0.57780 0.32544 2.25180 0.000 0.000 0.000
v -0.57780 -0.05832 2.17548 0.000 0.000 0.000
v -0.57780 -0.07344 2.25180 0.000 0.000 0.000
v -0.57780 -0.01494 2.11086 0.000 0.000 0.000
v -0.57780 0.04968 2.06748 0.000 0.000 0.000
v -0.57780 0.12600 2.05236 0.000 0.000 0.000
v -0.57780 0.20232 2.06748 0.000 0.000 0.000
v -0.57780 0.12600 2.05236 0.000 0.000 0.000
v -0.57780 0.26694 2.11086 0.000 0.000 0.000
v -0.57780 0.31032 2.17548 0.000 0.000 0.000
v -0.57780 0.32544 2.25180 0.000 0.000 0.000
v -0.57780 -0.13554 1.96614 0.000 0.000 0.000
v -0.57780 -0.02880 1.85940 0.000 0.000 0.000
v -0.57780 -0.08658 1.99872 0.000 0.000 0.000
v -0.57780 -0.13554 1.75266 0.000 0.000 0.000
v -0.57780 -0.16812 1.80162 0.000 0.000 0.000
v -0.57780 -0.02880 1.85940 0.000 0.000 0.000
v -0.57780 -0.17964 1.85940 0.000 0.000 0.000
v -0.57780 -0.02880 2.01024 0.000 0.000 0.000
v -0.57780 -0.02880 1.85940 0.000 0.000 0.000
v -0.57780 -0.16812 1.91718 0.000 0.000 0.000
v -0.57780 0.02898 1.99872 0.000 0.000 0.000
v -0.57780 -0.02880 1.85940 0.000 0.000 0.000
v -0.57780 -0.13554 1.96614 0.000 0.000 0.000
v -0.57780 0.07794 1.96614 0.000 0.000 0.000
v -0.57780 -0.08658 1.72008 0.000 0.000 0.000
v -0.57780 -0.13554 1.75266 0.000 0.000 0.000
v -0.57780 -0.02880 1.70856 0.000 0.000 0.000
v -0.57780 0.02898 1.72008 0.000 0.000 0.000
v -0.57780 0.07794 1.75266 0.000 0.000 0.000
v -0.57780 0.11052 1.80162 0.000 0.000 0.000
v -0.57780 0.07794 1.75266 0.000 0.000 0.000
v -0.57780 0.12204 1.85940 0.000 0.000 0.000
v -0.57780 0.11052 1.91718 0.000 0.000 0.000
v -0.57780 0.07794 1.96614 0.000 0.000 0.000
v -0.48600 -0.01800 2.76300 0.000 0.000 0.000
v -0.48600 -0.01800 2.50740 0.000 0.000 0.000
v -0.48600 0.07992 2.74356 0.000 0.000 0.000
v -0.48600 -0.27360 2.50740 0.000 0.000 0.000
v -0.48600 -0.25416 2.60532 0.000 0.000 0.000
v -0.48600 -0.01800 2.50740 0.000 0.000 0.000
v -0.48600 -0.19872 2.68812 0.000 0.000 0.000
v -0.48600 0.16272 2.68812 0.000 0.000 0.000
v -0.48600 -0.01800 2.50740 0.000 0.000 0.000
v -0.48600 -0.11592 2.74356 0.000 0.000 0.000
v -0.48600 0.21816 2.60532 0.000 0.000 0.000
v -0.48600 -0.01800 2.50740 0.000 0.000 0.000
v -0.48600 -0.01800 2.76300 0.000 0.000 0.000
v -0.48600 0.23760 2.50740 0.000 0.000 0.000
v -0.48600 -0.25416 2.40948 0.000 0.000 0.000
v -0.48600 -0.27360 2.50740 0.000 0.000 0.000
v -0.48600 -0.19872 2.32668 0.000 0.000 0.000
v -0.48600 -0.11592 2.27124 0.000 0.000 0.000
v -0.48600 -0.01800 2.25180 0.000 0.000 0.000
v -0.48600 0.07992 2.27124 0.000 0.000 0.000
v -0.48600 -0.01800 2.25180 0.000 0.000 0.000
v -0.48600 0.16272 2.32668 0.000 0.000 0.000
v -0.48600 0.21816 2.40948 0.000 0.000 0.000
v -0.48600 0.23760 2.50740 0.000 0.000 0.000
v -0.45900 0.03204 2.24622 0.000 0.000 0.000
v -0.45900 0.08640 2.11500 0.000 0.000 0.000
v -0.45900 0.08640 2.25702 0.000 0.000 0.000
v -0.45900 -0.01404 2.21544 0.000 0.000 0.000
v -0.45900 0.08640 2.11500 0.000 0.000 0.000
v -0.45900 -0.04482 2.16936 0.000 0.000 0.000
v -0.45900 0.08640 2.11500 0.000 0.000 0.000
v -0.45900 -0.05562 2.11500 0.000 0.000 0.000
v -0.45900 0.08640 2.11500 0.000 0.000 0.000
v -0.45900 0.08640 2.25702 0.000 0.000 0.000
v -0.45900 0.14076 2.24622 0.000 0.000 0.000
v -0.45900 0.18684 2.21544 0.000 0.000 0.000
v -0.45900 0.21762 2.16936 0.000 0.000 0.000
v -0.45900 0.22842 2.11500 0.000 0.000 0.000
v -0.45900 0.08640 1.97298 0.000 0.000 0.000
v -0.45900 0.03204 1.98378 0.000 0.000 0.000
v -0.45900 -0.01404 2.01456 0.000 0.000 0.000
v -0.45900 -0.04482 2.06064 0.000 0.000 0.000
v -0.45900 -0.05562 2.11500 0.000 0.000 0.000
v -0.45900 0.14076 1.98378 0.000 0.000 0.000
v -0.45900 0.08640 1.97298 0.000 0.000 0.000
v -0.45900 0.18684 2.01456 0.000 0.000 0.000
v -0.45900 0.21762 2.06064 0.000 0.000 0.000
v -0.45900 0.22842 2.11500 0.000 0.000 0.000
v -0.51480 -0.27252 2.30832 0.000 0.000 0.000
v -0.51480 -0.19620 2.23200 0.000 0.000 0.000
v -0.51480 -0.19620 2.34000 0.000 0.000 0.000
v -0.51480 -0.30420 2.23200 0.000 0.000 0.000
v -0.51480 -0.19620 2.23200 0.000 0.000 0.000
v -0.51480 -0.19620 2.34000 0.000 0.000 0.000
v -0.51480 -0.11988 2.30832 0.000 0.000 0.000
v -0.51480 -0.08820 2.23200 0.000 0.000 0.000
v -0.51480 -0.19620 2.12400 0.000 0.000 0.000
v -0.51480 -0.27252 2.15568 0.000 0.000 0.000
v -0.51480 -0.30420 2.23200 0.000 0.000 0.000
v -0.51480 -0.11988 2.15568 0.000 0.000 0.000
v -0.51480 -0.19620 2.12400 0.000 0.000 0.000
v -0.51480 -0.08820 2.23200 0.000 0.000 0.000
v -0.77598 0.95634 2.31768 0.000 0.000 0.000
v -0.79434 0.97974 2.19708 0.000 0.000 0.000
v -0.83016 1.04634 2.25774 0.000 0.000 0.000
v -0.79596 0.98190 2.18538 0.000 0.000 0.000
v -0.75096 0.90126 2.15334 0.000 0.000 0.000
v -0.70506 0.83052 2.28006 0.000 0.000 0.000
v -0.76086 0.91566 2.10870 0.000 0.000 0.000
v -0.81612 1.00494 2.01834 0.000 0.000 0.000
v -0.83934 1.05156 2.10510 0.000 0.000 0.000
v -0.64656 0.72432 2.21490 0.000 0.000 0.000
v -0.73080 0.85950 2.05182 0.000 0.000 0.000
v -0.80442 0.98460 2.01690 0.000 0.000 0.000
v -0.87948 1.11312 1.99062 0.000 0.000 0.000
v -0.85446 1.06308 1.89540 0.000 0.000 0.000
v -0.89280 1.12878 1.88208 0.000 0.000 0.000
v -0.88452 1.10610 1.76472 0.000 0.000 0.000
v -0.77184 0.92214 1.93284 0.000 0.000 0.000
v -0.83772 1.03338 1.88586 0.000 0.000 0.000
v -0.80442 0.96894 1.79478 0.000 0.000 0.000
v -0.84618 1.03986 1.77228 0.000 0.000 0.000
v -0.81774 0.98226 1.65312 0.000 0.000 0.000
v -0.83862 1.01790 1.64340 0.000 0.000 0.000
v -0.80928 0.95724 1.50264 0.000 0.000 0.000
v -0.53910 0.57762 2.78352 0.000 0.000 0.000
v -0.60606 0.68760 2.69316 0.000 0.000 0.000
v -0.58626 0.66042 2.79954 0.000 0.000 0.000
v -0.57636 0.63756 2.71692 0.000 0.000 0.000
v -0.53658 0.56628 2.68434 0.000 0.000 0.000
v -0.46548 0.43920 2.63232 0.000 0.000 0.000
v -0.49032 0.47988 2.59758 0.000 0.000 0.000
v -0.44244 0.39096 2.51676 0.000 0.000 0.000
v -0.46872 0.43614 2.50488 0.000 0.000 0.000
v -0.44568 0.39186 2.44710 0.000 0.000 0.000
v -0.47142 0.43524 2.42802 0.000 0.000 0.000
v -0.45720 0.40914 2.40804 0.000 0.000 0.000
v -0.48942 0.46494 2.40570 0.000 0.000 0.000
v -0.49104 0.46494 2.36358 0.000 0.000 0.000
v -0.50022 0.48294 2.39418 0.000 0.000 0.000
v -0.51678 0.51174 2.39508 0.000 0.000 0.000
v -0.51174 0.49734 2.31354 0.000 0.000 0.000
v -0.50022 0.47736 2.31642 0.000 0.000 0.000
v -0.49356 0.46116 2.24784 0.000 0.000 0.000
v -0.49446 0.47988 2.49462 0.000 0.000 0.000
v -0.47538 0.44766 2.50542 0.000 0.000 0.000
v -0.51678 0.52398 2.57130 0.000 0.000 0.000
v -0.50346 0.50274 2.59596 0.000 0.000 0.000
v -0.55980 0.60120 2.60928 0.000 0.000 0.000
v -0.55152 0.59058 2.66220 0.000 0.000 0.000
v -0.59778 0.66690 2.60478 0.000 0.000 0.000
v -0.61434 0.70092 2.68074 0.000 0.000 0.000
v -0.61434 0.69768 2.63448 0.000 0.000 0.000
v -0.66564 0.79254 2.71782 0.000 0.000 0.000
v -0.63738 0.73368 2.57400 0.000 0.000 0.000
v -0.68202 0.80964 2.55132 0.000 0.000 0.000
v -0.88956 1.13040 1.98936 0.000 0.000 0.000
v -0.91962 1.17936 1.94238 0.000 0.000 0.000
v -0.89622 1.14912 2.08962 0.000 0.000 0.000
v -0.86454 1.09260 2.07036 0.000 0.000 0.000
v -0.86778 1.10628 2.18106 0.000 0.000 0.000
v -0.83268 1.04202 2.13480 0.000 0.000 0.000
v -0.58950 0.63864 2.40372 0.000 0.000 0.000
v -0.66384 0.76572 2.37600 0.000 0.000 0.000
v -0.63090 0.71226 2.43036 0.000 0.000 0.000
v -0.56466 0.60372 2.52216 0.000 0.000 0.000
v -0.52092 0.52488 2.48274 0.000 0.000 0.000
v -0.51678 0.52398 2.57130 0.000 0.000 0.000
v -0.49446 0.47988 2.49462 0.000 0.000 0.000
v -0.49158 0.47142 2.44584 0.000 0.000 0.000
v -0.53658 0.54612 2.39562 0.000 0.000 0.000
v -0.59454 0.64476 2.36844 0.000 0.000 0.000
v -0.55980 0.60120 2.60928 0.000 0.000 0.000
v -0.59778 0.66690 2.60478 0.000 0.000 0.000
v -0.61434 0.69156 2.54502 0.000 0.000 0.000
v -0.63090 0.71334 2.44782 0.000 0.000 0.000
v -0.67878 0.79470 2.41884 0.000 0.000 0.000
v -0.72918 0.88128 2.40696 0.000 0.000 0.000
v -0.63738 0.73368 2.57400 0.000 0.000 0.000
v -0.68868 0.81558 2.47248 0.000 0.000 0.000
v -0.70362 0.84528 2.52846 0.000 0.000 0.000
v -0.74988 0.92016 2.44782 0.000 0.000 0.000
v -0.80028 1.00800 2.45178 0.000 0.000 0.000
v -0.63738 0.71154 2.25648 0.000 0.000 0.000
v -0.72342 0.85608 2.18826 0.000 0.000 0.000
v -0.68382 0.79344 2.27970 0.000 0.000 0.000
v -0.64242 0.72702 2.35404 0.000 0.000 0.000
v -0.62424 0.69228 2.30994 0.000 0.000 0.000
v -0.62172 0.68904 2.32614 0.000 0.000 0.000
v -0.58446 0.62946 2.39562 0.000 0.000 0.000
v -0.67968 0.79164 2.35530 0.000 0.000 0.000
v -0.68382 0.79560 2.30868 0.000 0.000 0.000
v -0.53496 0.54216 2.37996 0.000 0.000 0.000
v -0.63576 0.70326 2.17872 0.000 0.000 0.000
v -0.74322 0.89982 2.32164 0.000 0.000 0.000
v -0.77958 0.95742 2.24208 0.000 0.000 0.000
v -0.69858 0.82710 2.39058 0.000 0.000 0.000
v -0.64656 0.73908 2.42424 0.000 0.000 0.000
v -0.74988 0.91602 2.39004 0.000 0.000 0.000
v -0.74574 0.90576 2.34576 0.000 0.000 0.000
v -0.86724 1.11366 2.30094 0.000 0.000 0.000
v -0.78714 0.98244 2.41452 0.000 0.000 0.000
v -0.70020 0.83448 2.45376 0.000 0.000 0.000
v -0.52344 0.55638 2.87064 0.000 0.000 0.000
v -0.53658 0.57618 2.82564 0.000 0.000 0.000
v -0.55638 0.61398 2.87244 0.000 0.000 0.000
v -0.52668 0.56466 2.90772 0.000 0.000 0.000
v -0.49698 0.51390 2.91996 0.000 0.000 0.000
v -0.81000 0.77112 1.68318 0.000 0.000 0.000
v -0.85806 0.85734 1.67076 0.000 0.000 0.000
v -0.83556 0.82404 1.78470 0.000 0.000 0.000
v -0.81036 0.77022 1.65618 0.000 0.000 0.000
v -0.76392 0.68832 1.69380 0.000 0.000 0.000
v -0.77004 0.70848 1.83276 0.000 0.000 0.000
v -0.76194 0.68130 1.63728 0.000 0.000 0.000
v -0.78678 0.68022 1.50552 0.000 0.000 0.000
v -0.82260 0.76680 1.54872 0.000 0.000 0.000
v -0.71172 0.60354 1.84230 0.000 0.000 0.000
v -0.71892 0.60228 1.62360 0.000 0.000 0.000
v -0.77778 0.66474 1.51704 0.000 0.000 0.000
v -0.83250 0.73872 1.41516 0.000 0.000 0.000
v -0.78498 0.64944 1.36656 0.000 0.000 0.000
v -0.82476 0.68094 1.31508 0.000 0.000 0.000
v -0.79758 0.58806 1.21410 0.000 0.000 0.000
v -0.83088 0.78156 1.54710 0.000 0.000 0.000
v -0.86256 0.83664 1.51056 0.000 0.000 0.000
v -0.83160 0.75510 1.40292 0.000 0.000 0.000
v -0.72810 0.57258 1.48536 0.000 0.000 0.000
v -0.77760 0.61830 1.37736 0.000 0.000 0.000
v -0.72522 0.52074 1.34118 0.000 0.000 0.000
v -0.77094 0.54756 1.27908 0.000 0.000 0.000
v -0.72288 0.43398 1.21536 0.000 0.000 0.000
v -0.75258 0.44478 1.18566 0.000 0.000 0.000
v -0.71766 0.30582 1.10664 0.000 0.000 0.000
v -0.84708 0.75996 1.33344 0.000 0.000 0.000
v -0.71154 0.60624 1.88892 0.000 0.000 0.000
v -0.75258 0.67878 1.86372 0.000 0.000 0.000
v -0.74466 0.67050 1.96056 0.000 0.000 0.000
v -0.75420 0.67464 1.75518 0.000 0.000 0.000
v -0.71802 0.62136 1.94328 0.000 0.000 0.000
v -0.72108 0.62784 1.95822 0.000 0.000 0.000
v -0.71298 0.61812 2.03400 0.000 0.000 0.000
v -0.77472 0.72198 1.91142 0.000 0.000 0.000
v -0.76122 0.69606 1.88622 0.000 0.000 0.000
v -0.67356 0.54972 2.08170 0.000 0.000 0.000
v -0.68598 0.55728 1.84896 0.000 0.000 0.000
v -0.80892 0.77922 1.84068 0.000 0.000 0.000
v -0.81396 0.78174 1.73772 0.000 0.000 0.000
v -0.79812 0.76410 1.90818 0.000 0.000 0.000
v -0.76590 0.71136 1.99764 0.000 0.000 0.000
v -0.83574 0.83016 1.87434 0.000 0.000 0.000
v -0.82098 0.80154 1.84608 0.000 0.000 0.000
v -0.89604 0.92862 1.70928 0.000 0.000 0.000
v -0.86904 0.89010 1.87218 0.000 0.000 0.000
v -0.81594 0.80028 1.96614 0.000 0.000 0.000
v -0.79110 0.77400 2.25702 0.000 0.000 0.000
v -0.81954 0.81972 2.17152 0.000 0.000 0.000
v -0.83520 0.85338 2.24856 0.000 0.000 0.000
v -0.80388 0.79344 2.20122 0.000 0.000 0.000
v -0.77166 0.73620 2.21508 0.000 0.000 0.000
v -0.70956 0.62604 2.25522 0.000 0.000 0.000
v -0.71496 0.63342 2.21742 0.000 0.000 0.000
v -0.65376 0.52398 2.23920 0.000 0.000 0.000
v -0.66402 0.54036 2.20392 0.000 0.000 0.000
v -0.62514 0.46998 2.20266 0.000 0.000 0.000
v -0.63864 0.49194 2.16288 0.000 0.000 0.000
v -0.62442 0.46584 2.16072 0.000 0.000 0.000
v -0.64800 0.50724 2.14056 0.000 0.000 0.000
v -0.63738 0.48618 2.11194 0.000 0.000 0.000
v -0.64926 0.50814 2.11734 0.000 0.000 0.000
v -0.66294 0.53154 2.09826 0.000 0.000 0.000
v -0.63252 0.47430 2.06442 0.000 0.000 0.000
v -0.62766 0.46638 2.08026 0.000 0.000 0.000
v -0.60102 0.41688 2.05668 0.000 0.000 0.000
v -0.68184 0.57060 2.17584 0.000 0.000 0.000
v -0.67410 0.55836 2.19780 0.000 0.000 0.000
v -0.72378 0.64746 2.18412 0.000 0.000 0.000
v -0.72270 0.64710 2.20806 0.000 0.000 0.000
v -0.76716 0.72396 2.15568 0.000 0.000 0.000
v -0.77832 0.74646 2.19042 0.000 0.000 0.000
v -0.78552 0.75600 2.13264 0.000 0.000 0.000
v -0.81846 0.81720 2.16036 0.000 0.000 0.000
v -0.80856 0.79776 2.13588 0.000 0.000 0.000
v -0.86904 0.90774 2.14308 0.000 0.000 0.000
v -0.83016 0.83052 2.03922 0.000 0.000 0.000
v -0.73962 0.67104 2.10546 0.000 0.000 0.000
v -0.71676 0.62514 2.04030 0.000 0.000 0.000
v -0.76752 0.71136 1.94742 0.000 0.000 0.000
v -0.69210 0.58644 2.13192 0.000 0.000 0.000
v -0.72378 0.64746 2.18412 0.000 0.000 0.000
v -0.68184 0.57060 2.17584 0.000 0.000 0.000
v -0.65844 0.52704 2.15334 0.000 0.000 0.000
v -0.68040 0.56178 2.07522 0.000 0.000 0.000
v -0.71208 0.61452 2.00592 0.000 0.000 0.000
v -0.76716 0.72396 2.15568 0.000 0.000 0.000
v -0.78552 0.75600 2.13264 0.000 0.000 0.000
v -0.77976 0.74232 2.08368 0.000 0.000 0.000
v -0.77328 0.72468 1.99278 0.000 0.000 0.000
v -0.82440 0.81180 1.90710 0.000 0.000 0.000
v -0.83016 0.83052 2.03922 0.000 0.000 0.000
v -0.80370 0.78084 2.01006 0.000 0.000 0.000
v -0.84708 0.85392 1.92402 0.000 0.000 0.000
v -0.89064 0.92970 1.87722 0.000 0.000 0.000
v -0.80244 0.80064 2.34792 0.000 0.000 0.000
v -0.80694 0.80496 2.29284 0.000 0.000 0.000
v -0.82710 0.84276 2.31462 0.000 0.000 0.000
v -0.80370 -0.82476 1.59930 0.000 0.000 0.000
v -0.80370 -0.84996 1.55574 0.000 0.000 0.000
v -0.80370 -0.80136 1.56888 0.000 0.000 0.000
v -0.80370 -0.80640 1.53072 0.000 0.000 0.000
v -0.80370 -0.83700 1.50732 0.000 0.000 0.000
v -0.80370 -0.87498 1.51236 0.000 0.000 0.000
v -0.80370 -0.89838 1.54278 0.000 0.000 0.000
v -0.80370 -0.86292 1.60434 0.000 0.000 0.000
v -0.80370 -0.89334 1.58094 0.000 0.000 0.000
v -0.80370 -0.84888 1.55196 0.000 0.000 0.000
v -0.80370 -0.79164 1.57140 0.000 0.000 0.000
v -0.80370 -0.85104 1.55970 0.000 0.000 0.000
v -0.80370 -0.90810 1.54026 0.000 0.000 0.000
v -0.80370 -0.85374 1.55484 0.000 0.000 0.000
v -0.80370 -0.83430 1.49760 0.000 0.000 0.000
v -0.80370 -0.84600 1.55682 0.000 0.000 0.000
v -0.80370 -0.86544 1.61406 0.000 0.000 0.000
v -0.80370 -0.85284 1.55070 0.000 0.000 0.000
v -0.80370 -0.77310 1.51146 0.000 0.000 0.000
v -0.80370 -0.84690 1.56096 0.000 0.000 0.000
v -0.80370 -0.92664 1.60020 0.000 0.000 0.000
v -0.80370 -0.85500 1.55880 0.000 0.000 0.000
v -0.80370 -0.89424 1.47906 0.000 0.000 0.000
v -0.80370 -0.84474 1.55286 0.000 0.000 0.000
v -0.80370 -0.80568 1.63260 0.000 0.000 0.000
v -0.80370 0.80136 1.56888 0.000 0.000 0.000
v -0.80370 0.84996 1.55574 0.000 0.000 0.000
v -0.80370 0.82476 1.59930 0.000 0.000 0.000
v -0.80370 0.80640 1.53072 0.000 0.000 0.000
v -0.80370 0.83700 1.50732 0.000 0.000 0.000
v -0.80370 0.87498 1.51236 0.000 0.000 0.000
v -0.80370 0.89838 1.54278 0.000 0.000 0.000
v -0.80370 0.86292 1.60434 0.000 0.000 0.000
v -0.80370 0.89334 1.58094 0.000 0.000 0.000
v -0.80370 0.85104 1.55970 0.000 0.000 0.000
v -0.80370 0.79164 1.57140 0.000 0.000 0.000
v -0.80370 0.84888 1.55196 0.000 0.000 0.000
v -0.80370 0.90810 1.54026 0.000 0.000 0.000
v -0.80370 0.84600 1.55682 0.000 0.000 0.000
v -0.80370 0.83430 1.49760 0.000 0.000 0.000
v -0.80370 0.85374 1.55484 0.000 0.000 0.000
v -0.80370 0.86544 1.61406 0.000 0.000 0.000
v -0.80370 0.84690 1.56096 0.000 0.000 0.000
v -0.80370 0.77310 1.51146 0.000 0.000 0.000
v -0.80370 0.85284 1.55070 0.000 0.000 0.000
v -0.80370 0.92664 1.60020 0.000 0.000 0.000
v -0.80370 0.84474 1.55286 0.000 0.000 0.000
v -0.80370 0.89424 1.47906 0.000 0.000 0.000
v -0.80370 0.85500 1.55880 0.000 0.000 0.000
v -0.80370 0.80568 1.63260 0.000 0.000 0.000
vt 0.24219 0.36719
vt 0.16406 0.25781
vt 0.00781 0.33594
vt 0.17969 0.25781
vt 0.17969 0.14844
vt 0.00781 0.14844
vt 0.21094 0.13281
vt 0.36719 0.13281
vt 0.30469 0.24219
vt 0.00781 0.05469
vt 0.32031 0.02344
vt 0.36719 0.11719
vt 0.47656 0.24219
vt 0.52344 0.16406
vt 0.60156 0.22656
vt 0.67969 0.17969
vt 0.47656 0.02344
vt 0.52344 0.11719
vt 0.57031 0.02344
vt 0.58594 0.11719
vt 0.78906 0.03906
vt 0.80469 0.07031
vt 0.99219 0.03906
vt 0.91406 0.33594
vt 0.92969 0.27344
vt 0.88281 0.32031
vt 0.91406 0.28906
vt 0.88281 0.27344
vt 0.83594 0.24219
vt 0.85156 0.22656
vt 0.82031 0.19531
vt 0.83594 0.19531
vt 0.82031 0.16406
vt 0.83594 0.14844
vt 0.82031 0.14844
vt 0.85156 0.14844
vt 0.85156 0.13281
vt 0.85156 0.14844
vt 0.86719 0.14844
vt 0.86719 0.10156
vt 0.85156 0.10156
vt 0.85156 0.07031
vt 0.85156 0.17969
vt 0.83594 0.19531
vt 0.86719 0.22656
vt 0.86719 0.22656
vt 0.89844 0.24219
vt 0.89844 0.25781
vt 0.92969 0.24219
vt 0.94531 0.27344
vt 0.94531 0.25781
vt 0.97656 0.28906
vt 0.96094 0.22656
vt 0.99219 0.22656
vt 0.52344 0.36719
vt 0.74219 0.32031
vt 0.64844 0.30469
vt 0.50781 0.27344
vt 0.39844 0.36719
vt 0.35156 0.25781
vt 0.61719 0.19531
vt 0.77344 0.17969
vt 0.50781 0.10156
vt 0.17969 0.22656
vt 0.11719 0.10156
vt 0.00781 0.22656
vt 0.00781 0.07031
vt 0.00781 0.00781
vt 0.32031 0.00781
vt 0.58594 0.05469
vt 0.00781 0.33594
vt 0.13281 0.39844
vt 0.28906 0.33594
vt 0.53906 0.22656
vt 0.66406 0.25781
vt 0.78906 0.32031
vt 0.30469 0.39844
vt 0.63281 0.33594
vt 0.52344 0.39844
vt 0.78906 0.36719
vt 0.91406 0.39844
vt 0.44531 0.13281
vt 0.67969 0.10156
vt 0.32031 0.07031
vt 0.21094 0.14844
vt 0.21094 0.07031
vt 0.19531 0.08594
vt 0.00781 0.11719
vt 0.19531 0.19531
vt 0.41406 0.14844
vt 0.00781 0.00781
vt 0.55469 0.00781
vt 0.42969 0.22656
vt 0.64844 0.19531
vt 0.16406 0.25781
vt 0.00781 0.22656
vt 0.19531 0.32031
vt 0.41406 0.27344
vt 0.74219 0.36719
vt 0.35156 0.39844
vt 0.02344 0.33594
vt 0.89844 0.35156
vt 0.88281 0.33594
vt 0.88281 0.35156
vt 0.88281 0.36719
vt 0.85156 0.36719
vt 0.00781 0.33594
vt 0.24219 0.36719
vt 0.16406 0.25781
vt 0.17969 0.25781
vt 0.17969 0.14844
vt 0.00781 0.14844
vt 0.21094 0.13281
vt 0.36719 0.13281
vt 0.30469 0.24219
vt 0.00781 0.05469
vt 0.32031 0.02344
vt 0.36719 0.11719
vt 0.47656 0.24219
vt 0.52344 0.16406
vt 0.60156 0.22656
vt 0.67969 0.17969
vt 0.35156 0.25781
vt 0.39844 0.36719
vt 0.64844 0.30469
vt 0.47656 0.02344
vt 0.52344 0.11719
vt 0.57031 0.02344
vt 0.58594 0.11719
vt 0.78906 0.03906
vt 0.80469 0.07031
vt 0.99219 0.03906
vt 0.74219 0.32031
vt 0.21094 0.14844
vt 0.44531 0.13281
vt 0.32031 0.07031
vt 0.67969 0.10156
vt 0.21094 0.07031
vt 0.19531 0.08594
vt 0.00781 0.11719
vt 0.19531 0.19531
vt 0.41406 0.14844
vt 0.00781 0.00781
vt 0.55469 0.00781
vt 0.42969 0.22656
vt 0.64844 0.19531
vt 0.16406 0.25781
vt 0.00781 0.22656
vt 0.19531 0.32031
vt 0.41406 0.27344
vt 0.74219 0.36719
vt 0.35156 0.39844
vt 0.02344 0.33594
vt 0.91406 0.33594
vt 0.92969 0.27344
vt 0.88281 0.32031
vt 0.91406 0.28906
vt 0.88281 0.27344
vt 0.83594 0.24219
vt 0.85156 0.22656
vt 0.82031 0.19531
vt 0.83594 0.19531
vt 0.82031 0.16406
vt 0.83594 0.14844
vt 0.82031 0.14844
vt 0.85156 0.14844
vt 0.85156 0.13281
vt 0.85156 0.14844
vt 0.86719 0.14844
vt 0.86719 0.10156
vt 0.85156 0.10156
vt 0.85156 0.07031
vt 0.85156 0.17969
vt 0.83594 0.19531
vt 0.86719 0.22656
vt 0.86719 0.22656
vt 0.89844 0.24219
vt 0.89844 0.25781
vt 0.92969 0.24219
vt 0.94531 0.27344
vt 0.94531 0.25781
vt 0.97656 0.28906
vt 0.99219 0.22656
vt 0.77344 0.17969
vt 0.50781 0.10156
vt 0.17969 0.22656
vt 0.11719 0.10156
vt 0.00781 0.22656
vt 0.00781 0.07031
vt 0.00781 0.00781
vt 0.32031 0.00781
vt 0.58594 0.05469
vt 0.00781 0.33594
vt 0.13281 0.39844
vt 0.28906 0.33594
vt 0.66406 0.25781
vt 0.78906 0.32031
vt 0.52344 0.39844
vt 0.63281 0.33594
vt 0.78906 0.36719
vt 0.91406 0.39844
vt 0.89844 0.35156
vt 0.88281 0.33594
vt 0.85156 0.36719
vt 0.07031 0.69531
vt 0.07031 0.41406
vt 0.07031 0.69531
vt 0.07031 0.69531
vt 0.07031 0.69531
vt 0.07031 0.69531
vt 0.07031 0.69531
vt 0.07031 0.69531
vt 0.07031 0.69531
vt 0.14844 0.69531
vt 0.14844 0.41406
vt 0.14844 0.69531
vt 0.14844 0.69531
vt 0.14844 0.69531
vt 0.14844 0.69531
vt 0.14844 0.69531
vt 0.14844 0.69531
vt 0.14844 0.69531
vt 0.14844 0.41406
vt 0.14844 0.69531
vt 0.14844 0.41406
vt 0.14844 0.69531
vt 0.14844 0.41406
vt 0.14844 0.69531
vt 0.14844 0.41406
vt 0.14844 0.69531
vt 0.14844 0.41406
vt 0.14844 0.69531
vt 0.14844 0.41406
vt 0.14844 0.69531
vt 0.14844 0.41406
vt 0.14844 0.69531
vt 0.14844 0.41406
vt 0.14844 0.69531
vt 0.02344 0.69531
vt 0.02344 0.41406
vt 0.02344 0.69531
vt 0.02344 0.69531
vt 0.02344 0.69531
vt 0.02344 0.69531
vt 0.02344 0.69531
vt 0.02344 0.69531
vt 0.02344 0.69531
vt 0.02344 0.41406
vt 0.02344 0.69531
vt 0.02344 0.41406
vt 0.02344 0.69531
vt 0.02344 0.41406
vt 0.02344 0.69531
vt 0.02344 0.41406
vt 0.02344 0.69531
vt 0.02344 0.41406
vt 0.02344 0.69531
vt 0.02344 0.41406
vt 0.02344 0.69531
vt 0.02344 0.41406
vt 0.02344 0.69531
vt 0.02344 0.41406
vt 0.02344 0.69531
vt 0.08594 0.69531
vt 0.08594 0.41406
vt 0.08594 0.69531
vt 0.08594 0.69531
vt 0.08594 0.69531
vt 0.08594 0.69531
vt 0.08594 0.69531
vt 0.08594 0.69531
vt 0.08594 0.69531
vt 0.08594 0.41406
vt 0.08594 0.69531
vt 0.08594 0.41406
vt 0.08594 0.69531
vt 0.08594 0.41406
vt 0.08594 0.69531
vt 0.08594 0.41406
vt 0.08594 0.69531
vt 0.08594 0.41406
vt 0.08594 0.69531
vt 0.08594 0.41406
vt 0.08594 0.69531
vt 0.08594 0.41406
vt 0.08594 0.69531
vt 0.08594 0.41406
vt 0.08594 0.69531
vt 0.21094 0.69531
vt 0.21094 0.41406
vt 0.21094 0.69531
vt 0.21094 0.69531
vt 0.21094 0.69531
vt 0.21094 0.69531
vt 0.21094 0.69531
vt 0.21094 0.69531
vt 0.21094 0.69531
vt 0.21094 0.41406
vt 0.21094 0.69531
vt 0.21094 0.41406
vt 0.21094 0.69531
vt 0.21094 0.41406
vt 0.21094 0.69531
vt 0.21094 0.41406
vt 0.21094 0.69531
vt 0.21094 0.41406
vt 0.21094 0.69531
vt 0.21094 0.41406
vt 0.21094 0.69531
vt 0.21094 0.41406
vt 0.21094 0.69531
vt 0.21094 0.41406
vt 0.21094 0.69531
vt 0.19531 0.69531
vt 0.19531 0.41406
vt 0.19531 0.69531
vt 0.19531 0.69531
vt 0.19531 0.69531
vt 0.19531 0.69531
vt 0.19531 0.69531
vt 0.19531 0.69531
vt 0.19531 0.69531
vt 0.19531 0.41406
vt 0.19531 0.69531
vt 0.19531 0.41406
vt 0.19531 0.69531
vt 0.19531 0.41406
vt 0.19531 0.69531
vt 0.19531 0.41406
vt 0.19531 0.69531
vt 0.19531 0.41406
vt 0.19531 0.69531
vt 0.19531 0.41406
vt 0.19531 0.69531
vt 0.19531 0.41406
vt 0.19531 0.69531
vt 0.19531 0.41406
vt 0.19531 0.69531
vt 0.03906 0.69531
vt 0.03906 0.41406
vt 0.03906 0.69531
vt 0.03906 0.69531
vt 0.03906 0.69531
vt 0.03906 0.69531
vt 0.03906 0.69531
vt 0.03906 0.69531
vt 0.03906 0.69531
vt 0.03906 0.41406
vt 0.03906 0.69531
vt 0.03906 0.41406
vt 0.03906 0.69531
vt 0.03906 0.41406
vt 0.03906 0.69531
vt 0.03906 0.41406
vt 0.03906 0.69531
vt 0.03906 0.41406
vt 0.03906 0.69531
vt 0.03906 0.41406
vt 0.03906 0.69531
vt 0.03906 0.41406
vt 0.03906 0.69531
vt 0.03906 0.41406
vt 0.03906 0.69531
vt 0.07031 0.41406
vt 0.07031 0.69531
vt 0.07031 0.41406
vt 0.07031 0.69531
vt 0.07031 0.41406
vt 0.07031 0.69531
vt 0.07031 0.41406
vt 0.07031 0.69531
vt 0.07031 0.41406
vt 0.07031 0.69531
vt 0.07031 0.41406
vt 0.07031 0.69531
vt 0.07031 0.41406
vt 0.07031 0.69531
vt 0.07031 0.41406
vt 0.07031 0.69531
vt 0.17969 0.69531
vt 0.17969 0.41406
vt 0.17969 0.69531
vt 0.17969 0.69531
vt 0.17969 0.69531
vt 0.17969 0.69531
vt 0.17969 0.69531
vt 0.17969 0.69531
vt 0.17969 0.69531
vt 0.17969 0.41406
vt 0.17969 0.69531
vt 0.17969 0.41406
vt 0.17969 0.69531
vt 0.17969 0.41406
vt 0.17969 0.69531
vt 0.17969 0.41406
vt 0.17969 0.69531
vt 0.17969 0.41406
vt 0.17969 0.69531
vt 0.17969 0.41406
vt 0.17969 0.69531
vt 0.17969 0.41406
vt 0.17969 0.69531
vt 0.17969 0.41406
vt 0.17969 0.69531
vt 0.00781 0.69531
vt 0.00781 0.41406
vt 0.00781 0.69531
vt 0.00781 0.69531
vt 0.00781 0.69531
vt 0.11719 0.69531
vt 0.11719 0.41406
vt 0.11719 0.69531
vt 0.11719 0.69531
vt 0.11719 0.69531
vt 0.16406 0.69531
vt 0.16406 0.41406
vt 0.16406 0.69531
vt 0.16406 0.69531
vt 0.16406 0.69531
vt 0.10156 0.69531
vt 0.10156 0.41406
vt 0.10156 0.69531
vt 0.10156 0.69531
vt 0.10156 0.69531
vt 0.13281 0.69531
vt 0.13281 0.41406
vt 0.13281 0.69531
vt 0.13281 0.69531
vt 0.13281 0.69531
vt 0.05469 0.69531
vt 0.05469 0.41406
vt 0.05469 0.69531
vt 0.05469 0.69531
vt 0.05469 0.69531
vt 0.07031 0.69531
vt 0.07031 0.41406
vt 0.07031 0.69531
vt 0.07031 0.69531
vt 0.07031 0.69531
vt 0.07031 0.69531
vt 0.07031 0.69531
vt 0.07031 0.69531
vt 0.07031 0.69531
vt 0.14844 0.69531
vt 0.14844 0.41406
vt 0.14844 0.69531
vt 0.14844 0.69531
vt 0.14844 0.69531
vt 0.14844 0.69531
vt 0.14844 0.69531
vt 0.14844 0.69531
vt 0.14844 0.69531
vt 0.14844 0.41406
vt 0.14844 0.69531
vt 0.14844 0.41406
vt 0.14844 0.69531
vt 0.14844 0.41406
vt 0.14844 0.69531
vt 0.14844 0.41406
vt 0.14844 0.69531
vt 0.14844 0.41406
vt 0.14844 0.69531
vt 0.14844 0.41406
vt 0.14844 0.69531
vt 0.14844 0.41406
vt 0.14844 0.69531
vt 0.14844 0.41406
vt 0.14844 0.69531
vt 0.02344 0.69531
vt 0.02344 0.41406
vt 0.02344 0.69531
vt 0.02344 0.69531
vt 0.02344 0.69531
vt 0.02344 0.69531
vt 0.02344 0.69531
vt 0.02344 0.69531
vt 0.02344 0.69531
vt 0.02344 0.41406
vt 0.02344 0.69531
vt 0.02344 0.41406
vt 0.02344 0.69531
vt 0.02344 0.41406
vt 0.02344 0.69531
vt 0.02344 0.41406
vt 0.02344 0.69531
vt 0.02344 0.41406
vt 0.02344 0.69531
vt 0.02344 0.41406
vt 0.02344 0.69531
vt 0.02344 0.41406
vt 0.02344 0.69531
vt 0.02344 0.41406
vt 0.02344 0.69531
vt 0.08594 0.69531
vt 0.08594 0.41406
vt 0.08594 0.69531
vt 0.08594 0.69531
vt 0.08594 0.69531
vt 0.08594 0.69531
vt 0.08594 0.69531
vt 0.08594 0.69531
vt 0.08594 0.69531
vt 0.08594 0.41406
vt 0.08594 0.69531
vt 0.08594 0.41406
vt 0.08594 0.69531
vt 0.08594 0.41406
vt 0.08594 0.69531
vt 0.08594 0.41406
vt 0.08594 0.69531
vt 0.08594 0.41406
vt 0.08594 0.69531
vt 0.08594 0.41406
vt 0.08594 0.69531
vt 0.08594 0.41406
vt 0.08594 0.69531
vt 0.08594 0.41406
vt 0.08594 0.69531
vt 0.21094 0.69531
vt 0.21094 0.41406
vt 0.21094 0.69531
vt 0.21094 0.69531
vt 0.21094 0.69531
vt 0.21094 0.69531
vt 0.21094 0.69531
vt 0.21094 0.69531
vt 0.21094 0.69531
vt 0.21094 0.41406
vt 0.21094 0.69531
vt 0.21094 0.41406
vt 0.21094 0.69531
vt 0.21094 0.41406
vt 0.21094 0.69531
vt 0.21094 0.41406
vt 0.21094 0.69531
vt 0.21094 0.41406
vt 0.21094 0.69531
vt 0.21094 0.41406
vt 0.21094 0.69531
vt 0.21094 0.41406
vt 0.21094 0.69531
vt 0.21094 0.41406
vt 0.21094 0.69531
vt 0.19531 0.69531
vt 0.19531 0.41406
vt 0.19531 0.69531
vt 0.19531 0.69531
vt 0.19531 0.69531
vt 0.19531 0.69531
vt 0.19531 0.69531
vt 0.19531 0.69531
vt 0.19531 0.69531
vt 0.19531 0.41406
vt 0.19531 0.69531
vt 0.19531 0.41406
vt 0.19531 0.69531
vt 0.19531 0.41406
vt 0.19531 0.69531
vt 0.19531 0.41406
vt 0.19531 0.69531
vt 0.19531 0.41406
vt 0.19531 0.69531
vt 0.19531 0.41406
vt 0.19531 0.69531
vt 0.19531 0.41406
vt 0.19531 0.69531
vt 0.19531 0.41406
vt 0.19531 0.69531
vt 0.03906 0.69531
vt 0.03906 0.41406
vt 0.03906 0.69531
vt 0.03906 0.69531
vt 0.03906 0.69531
vt 0.03906 0.69531
vt 0.03906 0.69531
vt 0.03906 0.69531
vt 0.03906 0.69531
vt 0.03906 0.41406
vt 0.03906 0.69531
vt 0.03906 0.41406
vt 0.03906 0.69531
vt 0.03906 0.41406
vt 0.03906 0.69531
vt 0.03906 0.41406
vt 0.03906 0.69531
vt 0.03906 0.41406
vt 0.03906 0.69531
vt 0.03906 0.41406
vt 0.03906 0.69531
vt 0.03906 0.41406
vt 0.03906 0.69531
vt 0.03906 0.41406
vt 0.03906 0.69531
vt 0.07031 0.41406
vt 0.07031 0.69531
vt 0.07031 0.41406
vt 0.07031 0.69531
vt 0.07031 0.41406
vt 0.07031 0.69531
vt 0.07031 0.41406
vt 0.07031 0.69531
vt 0.07031 0.41406
vt 0.07031 0.69531
vt 0.07031 0.41406
vt 0.07031 0.69531
vt 0.07031 0.41406
vt 0.07031 0.69531
vt 0.07031 0.41406
vt 0.07031 0.69531
vt 0.17969 0.69531
vt 0.17969 0.41406
vt 0.17969 0.69531
vt 0.17969 0.69531
vt 0.17969 0.69531
vt 0.17969 0.69531
vt 0.17969 0.69531
vt 0.17969 0.69531
vt 0.17969 0.69531
vt 0.17969 0.41406
vt 0.17969 0.69531
vt 0.17969 0.41406
vt 0.17969 0.69531
vt 0.17969 0.41406
vt 0.17969 0.69531
vt 0.17969 0.41406
vt 0.17969 0.69531
vt 0.17969 0.41406
vt 0.17969 0.69531
vt 0.17969 0.41406
vt 0.17969 0.69531
vt 0.17969 0.41406
vt 0.17969 0.69531
vt 0.17969 0.41406
vt 0.17969 0.69531
vt 0.00781 0.69531
vt 0.00781 0.41406
vt 0.00781 0.69531
vt 0.00781 0.69531
vt 0.00781 0.69531
vt 0.11719 0.69531
vt 0.11719 0.41406
vt 0.11719 0.69531
vt 0.11719 0.69531
vt 0.11719 0.69531
vt 0.16406 0.69531
vt 0.16406 0.41406
vt 0.16406 0.69531
vt 0.16406 0.69531
vt 0.16406 0.69531
vt 0.10156 0.69531
vt 0.10156 0.41406
vt 0.10156 0.69531
vt 0.10156 0.69531
vt 0.10156 0.69531
vt 0.13281 0.69531
vt 0.13281 0.41406
vt 0.13281 0.69531
vt 0.13281 0.69531
vt 0.13281 0.69531
vt 0.05469 0.69531
vt 0.05469 0.41406
vt 0.05469 0.69531
vt 0.05469 0.69531
vt 0.05469 0.69531
vt 0.00781 0.99219
vt 0.05469 0.71094
vt 0.11719 0.99219
vt 0.00781 0.99219
vt 0.11719 0.99219
vt 0.16406 0.71094
vt 0.22656 0.99219
vt 0.22656 0.99219
vt 0.27344 0.71094
vt 0.33594 0.99219
vt 0.33594 0.99219
vt 0.38281 0.71094
vt 0.44531 0.99219
vt 0.44531 0.99219
vt 0.33594 0.99219
vt 0.44531 0.99219
vt 0.22656 0.99219
vt 0.11719 0.99219
vt 0.00781 0.99219
vt 0.33594 0.99219
vt 0.44531 0.99219
vt 0.22656 0.99219
vt 0.11719 0.99219
vt 0.00781 0.99219
vt 0.44531 0.99219
vt 0.38281 0.71094
vt 0.33594 0.99219
vt 0.44531 0.99219
vt 0.33594 0.99219
vt 0.27344 0.71094
vt 0.22656 0.99219
vt 0.22656 0.99219
vt 0.16406 0.71094
vt 0.11719 0.99219
vt 0.11719 0.99219
vt 0.05469 0.71094
vt 0.00781 0.99219
vt 0.00781 0.99219
vt 0.11719 0.99219
vt 0.00781 0.99219
vt 0.22656 0.99219
vt 0.33594 0.99219
vt 0.44531 0.99219
vt 0.11719 0.99219
vt 0.00781 0.99219
vt 0.22656 0.99219
vt 0.33594 0.99219
vt 0.44531 0.99219
vt 0.72656 0.50781
vt 0.69531 0.71094
vt 0.66406 0.50781
vt 0.72656 0.50781
vt 0.66406 0.50781
vt 0.63281 0.71094
vt 0.60156 0.50781
vt 0.60156 0.50781
vt 0.57031 0.71094
vt 0.53906 0.50781
vt 0.53906 0.50781
vt 0.50781 0.71094
vt 0.47656 0.50781
vt 0.47656 0.50781
vt 0.53906 0.50781
vt 0.47656 0.50781
vt 0.60156 0.50781
vt 0.66406 0.50781
vt 0.72656 0.50781
vt 0.53906 0.50781
vt 0.47656 0.50781
vt 0.60156 0.50781
vt 0.66406 0.50781
vt 0.72656 0.50781
vt 0.72656 0.50781
vt 0.69531 0.71094
vt 0.66406 0.50781
vt 0.72656 0.50781
vt 0.66406 0.50781
vt 0.63281 0.71094
vt 0.60156 0.50781
vt 0.60156 0.50781
vt 0.57031 0.71094
vt 0.53906 0.50781
vt 0.53906 0.50781
vt 0.50781 0.71094
vt 0.47656 0.50781
vt 0.47656 0.50781
vt 0.53906 0.50781
vt 0.47656 0.50781
vt 0.60156 0.50781
vt 0.66406 0.50781
vt 0.72656 0.50781
vt 0.53906 0.50781
vt 0.47656 0.50781
vt 0.60156 0.50781
vt 0.66406 0.50781
vt 0.72656 0.50781
vt 0.83594 0.49219
vt 0.85156 0.41406
vt 0.86719 0.49219
vt 0.80469 0.49219
vt 0.82031 0.41406
vt 0.77344 0.49219
vt 0.78906 0.41406
vt 0.74219 0.49219
vt 0.75781 0.41406
vt 0.74219 0.49219
vt 0.77344 0.49219
vt 0.80469 0.49219
vt 0.83594 0.49219
vt 0.86719 0.49219
vt 0.74219 0.49219
vt 0.77344 0.49219
vt 0.80469 0.49219
vt 0.83594 0.49219
vt 0.86719 0.49219
vt 0.83594 0.49219
vt 0.86719 0.49219
vt 0.80469 0.49219
vt 0.77344 0.49219
vt 0.74219 0.49219
vt 0.80469 0.49219
vt 0.83594 0.41406
vt 0.86719 0.49219
vt 0.74219 0.49219
vt 0.77344 0.41406
vt 0.74219 0.49219
vt 0.80469 0.49219
vt 0.86719 0.49219
vt 0.74219 0.49219
vt 0.80469 0.49219
vt 0.86719 0.49219
vt 0.80469 0.49219
vt 0.86719 0.49219
vt 0.74219 0.49219
vt 0.00781 0.33594
vt 0.16406 0.25781
vt 0.24219 0.36719
vt 0.17969 0.25781
vt 0.17969 0.14844
vt 0.00781 0.14844
vt 0.21094 0.13281
vt 0.36719 0.13281
vt 0.30469 0.24219
vt 0.00781 0.05469
vt 0.32031 0.02344
vt 0.36719 0.11719
vt 0.47656 0.24219
vt 0.52344 0.16406
vt 0.60156 0.22656
vt 0.67969 0.17969
vt 0.47656 0.02344
vt 0.52344 0.11719
vt 0.57031 0.02344
vt 0.58594 0.11719
vt 0.78906 0.03906
vt 0.80469 0.07031
vt 0.99219 0.03906
vt 0.88281 0.32031
vt 0.92969 0.27344
vt 0.91406 0.33594
vt 0.91406 0.28906
vt 0.88281 0.27344
vt 0.83594 0.24219
vt 0.85156 0.22656
vt 0.82031 0.19531
vt 0.83594 0.19531
vt 0.82031 0.16406
vt 0.83594 0.14844
vt 0.82031 0.14844
vt 0.85156 0.14844
vt 0.85156 0.13281
vt 0.85156 0.14844
vt 0.86719 0.14844
vt 0.86719 0.10156
vt 0.85156 0.10156
vt 0.85156 0.07031
vt 0.85156 0.17969
vt 0.83594 0.19531
vt 0.86719 0.22656
vt 0.86719 0.22656
vt 0.89844 0.24219
vt 0.89844 0.25781
vt 0.92969 0.24219
vt 0.94531 0.27344
vt 0.94531 0.25781
vt 0.97656 0.28906
vt 0.96094 0.22656
vt 0.99219 0.22656
vt 0.64844 0.30469
vt 0.74219 0.32031
vt 0.52344 0.36719
vt 0.50781 0.27344
vt 0.39844 0.36719
vt 0.35156 0.25781
vt 0.50781 0.10156
vt 0.77344 0.17969
vt 0.61719 0.19531
vt 0.17969 0.22656
vt 0.11719 0.10156
vt 0.00781 0.22656
vt 0.00781 0.07031
vt 0.00781 0.00781
vt 0.32031 0.00781
vt 0.58594 0.05469
vt 0.00781 0.33594
vt 0.13281 0.39844
vt 0.28906 0.33594
vt 0.53906 0.22656
vt 0.66406 0.25781
vt 0.78906 0.32031
vt 0.30469 0.39844
vt 0.63281 0.33594
vt 0.52344 0.39844
vt 0.78906 0.36719
vt 0.91406 0.39844
vt 0.32031 0.07031
vt 0.67969 0.10156
vt 0.44531 0.13281
vt 0.21094 0.14844
vt 0.21094 0.07031
vt 0.19531 0.08594
vt 0.00781 0.11719
vt 0.19531 0.19531
vt 0.41406 0.14844
vt 0.00781 0.00781
vt 0.55469 0.00781
vt 0.42969 0.22656
vt 0.64844 0.19531
vt 0.16406 0.25781
vt 0.00781 0.22656
vt 0.19531 0.32031
vt 0.41406 0.27344
vt 0.74219 0.36719
vt 0.35156 0.39844
vt 0.02344 0.33594
vt 0.88281 0.35156
vt 0.88281 0.33594
vt 0.89844 0.35156
vt 0.88281 0.36719
vt 0.85156 0.36719
vt 0.16406 0.25781
vt 0.24219 0.36719
vt 0.00781 0.33594
vt 0.17969 0.25781
vt 0.17969 0.14844
vt 0.00781 0.14844
vt 0.21094 0.13281
vt 0.36719 0.13281
vt 0.30469 0.24219
vt 0.00781 0.05469
vt 0.32031 0.02344
vt 0.36719 0.11719
vt 0.47656 0.24219
vt 0.52344 0.16406
vt 0.60156 0.22656
vt 0.67969 0.17969
vt 0.35156 0.25781
vt 0.39844 0.36719
vt 0.64844 0.30469
vt 0.47656 0.02344
vt 0.52344 0.11719
vt 0.57031 0.02344
vt 0.58594 0.11719
vt 0.78906 0.03906
vt 0.80469 0.07031
vt 0.99219 0.03906
vt 0.74219 0.32031
vt 0.32031 0.07031
vt 0.44531 0.13281
vt 0.21094 0.14844
vt 0.67969 0.10156
vt 0.21094 0.07031
vt 0.19531 0.08594
vt 0.00781 0.11719
vt 0.19531 0.19531
vt 0.41406 0.14844
vt 0.00781 0.00781
vt 0.55469 0.00781
vt 0.42969 0.22656
vt 0.64844 0.19531
vt 0.16406 0.25781
vt 0.00781 0.22656
vt 0.19531 0.32031
vt 0.41406 0.27344
vt 0.74219 0.36719
vt 0.35156 0.39844
vt 0.02344 0.33594
vt 0.88281 0.32031
vt 0.92969 0.27344
vt 0.91406 0.33594
vt 0.91406 0.28906
vt 0.88281 0.27344
vt 0.83594 0.24219
vt 0.85156 0.22656
vt 0.82031 0.19531
vt 0.83594 0.19531
vt 0.82031 0.16406
vt 0.83594 0.14844
vt 0.82031 0.14844
vt 0.85156 0.14844
vt 0.85156 0.13281
vt 0.85156 0.14844
vt 0.86719 0.14844
vt 0.86719 0.10156
vt 0.85156 0.10156
vt 0.85156 0.07031
vt 0.85156 0.17969
vt 0.83594 0.19531
vt 0.86719 0.22656
vt 0.86719 0.22656
vt 0.89844 0.24219
vt 0.89844 0.25781
vt 0.92969 0.24219
vt 0.94531 0.27344
vt 0.94531 0.25781
vt 0.97656 0.28906
vt 0.99219 0.22656
vt 0.17969 0.22656
vt 0.50781 0.10156
vt 0.77344 0.17969
vt 0.11719 0.10156
vt 0.00781 0.22656
vt 0.00781 0.07031
vt 0.00781 0.00781
vt 0.32031 0.00781
vt 0.58594 0.05469
vt 0.00781 0.33594
vt 0.13281 0.39844
vt 0.28906 0.33594
vt 0.66406 0.25781
vt 0.78906 0.32031
vt 0.52344 0.39844
vt 0.63281 0.33594
vt 0.78906 0.36719
vt 0.91406 0.39844
vt 0.85156 0.36719
vt 0.88281 0.33594
vt 0.89844 0.35156
vt 0.03906 0.69531
vt 0.03906 0.41406
vt 0.03906 0.69531
vt 0.03906 0.69531
vt 0.03906 0.69531
vt 0.03906 0.69531
vt 0.03906 0.69531
vt 0.03906 0.69531
vt 0.03906 0.69531
vt 0.03906 0.41406
vt 0.03906 0.69531
vt 0.03906 0.41406
vt 0.03906 0.69531
vt 0.03906 0.41406
vt 0.03906 0.69531
vt 0.03906 0.41406
vt 0.03906 0.69531
vt 0.03906 0.41406
vt 0.03906 0.69531
vt 0.03906 0.41406
vt 0.03906 0.69531
vt 0.03906 0.41406
vt 0.03906 0.69531
vt 0.03906 0.41406
vt 0.03906 0.69531
vt 0.03906 0.69531
vt 0.03906 0.41406
vt 0.03906 0.69531
vt 0.03906 0.69531
vt 0.03906 0.69531
vt 0.03906 0.69531
vt 0.03906 0.69531
vt 0.03906 0.69531
vt 0.03906 0.69531
vt 0.03906 0.41406
vt 0.03906 0.69531
vt 0.03906 0.41406
vt 0.03906 0.69531
vt 0.03906 0.41406
vt 0.03906 0.69531
vt 0.03906 0.41406
vt 0.03906 0.69531
vt 0.03906 0.41406
vt 0.03906 0.69531
vt 0.03906 0.41406
vt 0.03906 0.69531
vt 0.03906 0.41406
vt 0.03906 0.69531
vt 0.03906 0.41406
vt 0.03906 0.69531
usemtl m0
f 1/1 2/2 3/3
f 1/1 4/4 2/2
f 4/4 5/5 2/2
f 2/2 5/5 6/6
f 4/4 7/7 5/5
f 4/4 8/8 7/7
f 9/9 8/8 4/4
f 5/5 7/7 10/10
f 7/7 11/11 10/10
f 7/7 12/12 11/11
f 9/9 13/13 8/8
f 13/13 14/14 8/8
f 13/13 15/15 14/14
f 15/15 16/16 14/14
f 12/12 17/17 11/11
f 12/12 18/18 17/17
f 18/18 19/19 17/17
f 18/18 20/20 19/19
f 20/20 21/21 19/19
f 20/20 22/22 21/21
f 22/22 23/23 21/21
f 24/24 25/25 26/26
f 26/26 25/25 27/27
f 27/27 28/28 26/26
f 28/28 29/29 26/26
f 28/28 30/30 29/29
f 30/30 31/31 29/29
f 30/30 32/32 31/31
f 32/32 33/33 31/31
f 32/32 34/34 33/33
f 34/34 35/35 33/33
f 36/36 35/35 34/34
f 36/36 37/37 35/35
f 38/38 37/37 36/36
f 39/39 37/37 38/38
f 39/39 40/40 37/37
f 37/37 40/40 41/41
f 40/40 42/42 41/41
f 43/43 36/36 34/34
f 43/43 34/34 44/44
f 45/45 43/43 44/44
f 45/45 44/44 46/46
f 47/47 45/45 46/46
f 47/47 46/46 48/48
f 49/49 47/47 48/48
f 50/50 49/49 48/48
f 51/51 49/49 50/50
f 52/52 51/51 50/50
f 51/51 53/53 49/49
f 51/51 54/54 53/53
f 55/55 56/56 57/57
f 55/55 57/57 58/58
f 55/55 58/58 59/59
f 59/59 58/58 60/60
f 59/59 60/60 1/1
f 1/1 60/60 4/4
f 61/61 62/62 63/63
f 61/61 63/63 64/64
f 64/64 63/63 65/65
f 64/64 65/65 66/66
f 66/66 65/65 67/67
f 65/65 68/68 67/67
f 65/65 69/69 68/68
f 65/65 70/70 69/69
f 71/71 64/64 66/66
f 72/72 64/64 71/71
f 73/73 64/64 72/72
f 73/73 74/74 64/64
f 73/73 75/75 74/74
f 73/73 76/76 75/75
f 77/77 73/73 72/72
f 77/77 78/78 73/73
f 79/79 78/78 77/77
f 79/79 80/80 78/78
f 81/81 80/80 79/79
f 82/82 83/83 84/84
f 82/82 84/84 85/85
f 85/85 84/84 86/86
f 85/85 86/86 87/87
f 85/85 87/87 88/88
f 89/89 85/85 88/88
f 89/89 90/90 85/85
f 87/87 86/86 91/91
f 92/92 91/91 86/86
f 93/93 90/90 89/89
f 93/93 94/94 90/90
f 95/95 93/93 89/89
f 95/95 89/89 96/96
f 97/97 95/95 96/96
f 97/97 98/98 95/95
f 97/97 99/99 98/98
f 100/100 99/99 97/97
f 100/100 97/97 101/101
f 102/102 103/103 104/104
f 102/102 104/104 105/105
f 105/105 104/104 106/106
f 102/102 24/24 103/103
f 24/24 26/26 103/103
f 107/107 108/108 109/109
f 109/109 108/108 110/110
f 109/109 110/110 111/111
f 112/112 109/109 111/111
f 111/111 110/110 113/113
f 110/110 114/114 113/113
f 115/115 114/114 110/110
f 111/111 113/113 116/116
f 116/116 113/113 117/117
f 113/113 118/118 117/117
f 115/115 119/119 114/114
f 119/119 120/120 114/114
f 119/119 121/121 120/120
f 121/121 122/122 120/120
f 108/108 123/123 110/110
f 108/108 124/124 123/123
f 125/125 123/123 124/124
f 117/117 118/118 126/126
f 118/118 127/127 126/126
f 126/126 127/127 128/128
f 127/127 129/129 128/128
f 129/129 130/130 128/128
f 129/129 131/131 130/130
f 131/131 132/132 130/130
f 125/125 124/124 133/133
f 134/134 135/135 136/136
f 135/135 137/137 136/136
f 134/134 136/136 138/138
f 139/139 134/134 138/138
f 140/140 134/134 139/139
f 140/140 141/141 134/134
f 141/141 142/142 134/134
f 139/139 138/138 143/143
f 144/144 143/143 138/138
f 141/141 145/145 142/142
f 145/145 146/146 142/142
f 147/147 145/145 141/141
f 148/148 147/147 141/141
f 148/148 149/149 147/147
f 149/149 150/150 147/147
f 149/149 151/151 150/150
f 152/152 151/151 149/149
f 153/153 152/152 149/149
f 154/154 155/155 156/156
f 156/156 155/155 157/157
f 156/156 157/157 158/158
f 156/156 158/158 159/159
f 159/159 158/158 160/160
f 159/159 160/160 161/161
f 161/161 160/160 162/162
f 161/161 162/162 163/163
f 162/162 164/164 163/163
f 163/163 164/164 165/165
f 164/164 166/166 165/165
f 166/166 167/167 165/165
f 166/166 168/168 167/167
f 168/168 169/169 167/167
f 169/169 170/170 167/167
f 167/167 170/170 171/171
f 171/171 170/170 172/172
f 173/173 166/166 164/164
f 174/174 173/173 164/164
f 174/174 175/175 173/173
f 176/176 175/175 174/174
f 176/176 177/177 175/175
f 178/178 177/177 176/176
f 178/178 179/179 177/177
f 180/180 179/179 178/178
f 180/180 181/181 179/179
f 180/180 182/182 181/181
f 181/181 183/183 179/179
f 184/184 185/185 186/186
f 186/186 185/185 187/187
f 188/188 186/186 187/187
f 188/188 187/187 189/189
f 189/189 187/187 190/190
f 187/187 191/191 190/190
f 187/187 192/192 191/191
f 193/193 186/186 188/188
f 193/193 194/194 186/186
f 194/194 195/195 186/186
f 186/186 195/195 196/196
f 195/195 197/197 196/196
f 194/194 198/198 195/195
f 198/198 199/199 195/195
f 198/198 200/200 199/199
f 198/198 201/201 200/200
f 202/202 203/203 204/204
f 202/202 154/154 203/203
f 203/203 154/154 156/156
f 205/205 206/206 207/207
f 207/207 206/206 208/208
f 206/206 209/209 208/208
f 206/206 210/210 209/209
f 211/211 210/210 206/206
f 212/212 206/206 205/205
f 213/213 206/206 212/212
f 213/213 211/211 206/206
f 214/214 215/215 216/216
f 216/216 215/215 217/217
f 215/215 218/218 217/217
f 215/215 219/219 218/218
f 220/220 219/219 215/215
f 221/221 215/215 214/214
f 222/222 215/215 221/221
f 222/222 220/220 215/215
f 223/223 224/224 225/225
f 225/225 226/226 223/223
f 227/227 228/228 229/229
f 229/229 230/230 227/227
f 231/231 232/232 233/233
f 233/233 234/234 231/231
f 235/235 236/236 237/237
f 237/237 238/238 235/235
f 239/239 240/240 241/241
f 241/241 240/240 242/242
f 240/240 243/243 242/242
f 240/240 244/244 243/243
f 245/245 244/244 240/240
f 246/246 240/240 239/239
f 247/247 240/240 246/246
f 247/247 245/245 240/240
f 248/248 249/249 250/250
f 250/250 251/251 248/248
f 252/252 253/253 254/254
f 254/254 255/255 252/252
f 256/256 257/257 258/258
f 258/258 259/259 256/256
f 260/260 261/261 262/262
f 262/262 263/263 260/260
f 264/264 265/265 266/266
f 266/266 265/265 267/267
f 265/265 268/268 267/267
f 265/265 269/269 268/268
f 270/270 269/269 265/265
f 271/271 265/265 264/264
f 272/272 265/265 271/271
f 272/272 270/270 265/265
f 273/273 274/274 275/275
f 275/275 276/276 273/273
f 277/277 278/278 279/279
f 279/279 280/280 277/277
f 281/281 282/282 283/283
f 283/283 284/284 281/281
f 285/285 286/286 287/287
f 287/287 288/288 285/285
f 289/289 290/290 291/291
f 291/291 290/290 292/292
f 290/290 293/293 292/292
f 290/290 294/294 293/293
f 295/295 294/294 290/290
f 296/296 290/290 289/289
f 297/297 290/290 296/296
f 297/297 295/295 290/290
f 298/298 299/299 300/300
f 300/300 301/301 298/298
f 302/302 303/303 304/304
f 304/304 305/305 302/302
f 306/306 307/307 308/308
f 308/308 309/309 306/306
f 310/310 311/311 312/312
f 312/312 313/313 310/310
f 314/314 315/315 316/316
f 316/316 315/315 317/317
f 315/315 318/318 317/317
f 315/315 319/319 318/318
f 320/320 319/319 315/315
f 321/321 315/315 314/314
f 322/322 315/315 321/321
f 322/322 320/320 315/315
f 323/323 324/324 325/325
f 325/325 326/326 323/323
f 327/327 328/328 329/329
f 329/329 330/330 327/327
f 331/331 332/332 333/333
f 333/333 334/334 331/331
f 335/335 336/336 337/337
f 337/337 338/338 335/335
f 339/339 340/340 341/341
f 341/341 340/340 342/342
f 340/340 343/343 342/342
f 340/340 344/344 343/343
f 345/345 344/344 340/340
f 346/346 340/340 339/339
f 347/347 340/340 346/346
f 347/347 345/345 340/340
f 348/348 349/349 350/350
f 350/350 351/351 348/348
f 352/352 353/353 354/354
f 354/354 355/355 352/352
f 356/356 357/357 358/358
f 358/358 359/359 356/356
f 360/360 361/361 362/362
f 362/362 363/363 360/360
f 364/364 365/365 366/366
f 366/366 367/367 364/364
f 368/368 369/369 370/370
f 370/370 371/371 368/368
f 372/372 373/373 374/374
f 374/374 375/375 372/372
f 376/376 377/377 378/378
f 378/378 379/379 376/376
f 380/380 381/381 382/382
f 382/382 381/381 383/383
f 381/381 384/384 383/383
f 381/381 385/385 384/384
f 386/386 385/385 381/381
f 387/387 381/381 380/380
f 388/388 381/381 387/387
f 388/388 386/386 381/381
f 389/389 390/390 391/391
f 391/391 392/392 389/389
f 393/393 394/394 395/395
f 395/395 396/396 393/393
f 397/397 398/398 399/399
f 399/399 400/400 397/397
f 401/401 402/402 403/403
f 403/403 404/404 401/401
f 405/405 406/406 407/407
f 408/408 406/406 405/405
f 409/409 406/406 408/408
f 407/407 406/406 409/409
f 410/410 411/411 412/412
f 413/413 411/411 410/410
f 414/414 411/411 413/413
f 412/412 411/411 414/414
f 415/415 416/416 417/417
f 418/418 416/416 415/415
f 419/419 416/416 418/418
f 417/417 416/416 419/419
f 420/420 421/421 422/422
f 423/423 421/421 420/420
f 424/424 421/421 423/423
f 422/422 421/421 424/424
f 425/425 426/426 427/427
f 428/428 426/426 425/425
f 429/429 426/426 428/428
f 427/427 426/426 429/429
f 430/430 431/431 432/432
f 433/433 431/431 430/430
f 434/434 431/431 433/433
f 432/432 431/431 434/434
f 435/435 436/436 437/437
f 438/438 436/436 435/435
f 438/438 439/439 436/436
f 439/439 440/440 436/436
f 436/436 440/440 441/441
f 437/437 436/436 442/442
f 442/442 436/436 443/443
f 436/436 441/441 443/443
f 444/444 445/445 446/446
f 447/447 445/445 444/444
f 447/447 448/448 445/445
f 448/448 449/449 445/445
f 445/445 449/449 450/450
f 446/446 445/445 451/451
f 451/451 445/445 452/452
f 445/445 450/450 452/452
f 453/453 454/454 455/455
f 455/455 456/456 453/453
f 457/457 458/458 459/459
f 459/459 460/460 457/457
f 461/461 462/462 463/463
f 463/463 464/464 461/461
f 465/465 466/466 467/467
f 467/467 468/468 465/465
f 469/469 470/470 471/471
f 472/472 470/470 469/469
f 472/472 473/473 470/470
f 473/473 474/474 470/470
f 470/470 474/474 475/475
f 471/471 470/470 476/476
f 476/476 470/470 477/477
f 470/470 475/475 477/477
f 478/478 479/479 480/480
f 480/480 481/481 478/478
f 482/482 483/483 484/484
f 484/484 485/485 482/482
f 486/486 487/487 488/488
f 488/488 489/489 486/486
f 490/490 491/491 492/492
f 492/492 493/493 490/490
f 494/494 495/495 496/496
f 497/497 495/495 494/494
f 497/497 498/498 495/495
f 498/498 499/499 495/495
f 495/495 499/499 500/500
f 496/496 495/495 501/501
f 501/501 495/495 502/502
f 495/495 500/500 502/502
f 503/503 504/504 505/505
f 505/505 506/506 503/503
f 507/507 508/508 509/509
f 509/509 510/510 507/507
f 511/511 512/512 513/513
f 513/513 514/514 511/511
f 515/515 516/516 517/517
f 517/517 518/518 515/515
f 519/519 520/520 521/521
f 522/522 520/520 519/519
f 522/522 523/523 520/520
f 523/523 524/524 520/520
f 520/520 524/524 525/525
f 521/521 520/520 526/526
f 526/526 520/520 527/527
f 520/520 525/525 527/527
f 528/528 529/529 530/530
f 530/530 531/531 528/528
f 532/532 533/533 534/534
f 534/534 535/535 532/532
f 536/536 537/537 538/538
f 538/538 539/539 536/536
f 540/540 541/541 542/542
f 542/542 543/543 540/540
f 544/544 545/545 546/546
f 547/547 545/545 544/544
f 547/547 548/548 545/545
f 548/548 549/549 545/545
f 545/545 549/549 550/550
f 546/546 545/545 551/551
f 551/551 545/545 552/552
f 545/545 550/550 552/552
f 553/553 554/554 555/555
f 555/555 556/556 553/553
f 557/557 558/558 559/559
f 559/559 560/560 557/557
f 561/561 562/562 563/563
f 563/563 564/564 561/561
f 565/565 566/566 567/567
f 567/567 568/568 565/565
f 569/569 570/570 571/571
f 572/572 570/570 569/569
f 572/572 573/573 570/570
f 573/573 574/574 570/570
f 570/570 574/574 575/575
f 571/571 570/570 576/576
f 576/576 570/570 577/577
f 570/570 575/575 577/577
f 578/578 579/579 580/580
f 580/580 581/581 578/578
f 582/582 583/583 584/584
f 584/584 585/585 582/582
f 586/586 587/587 588/588
f 588/588 589/589 586/586
f 590/590 591/591 592/592
f 592/592 593/593 590/590
f 594/594 595/595 596/596
f 596/596 597/597 594/594
f 598/598 599/599 600/600
f 600/600 601/601 598/598
f 602/602 603/603 604/604
f 604/604 605/605 602/602
f 606/606 607/607 608/608
f 608/608 609/609 606/606
f 610/610 611/611 612/612
f 613/613 611/611 610/610
f 613/613 614/614 611/611
f 614/614 615/615 611/611
f 611/611 615/615 616/616
f 612/612 611/611 617/617
f 617/617 611/611 618/618
f 611/611 616/616 618/618
f 619/619 620/620 621/621
f 621/621 622/622 619/619
f 623/623 624/624 625/625
f 625/625 626/626 623/623
f 627/627 628/628 629/629
f 629/629 630/630 627/627
f 631/631 632/632 633/633
f 633/633 634/634 631/631
f 635/635 636/636 637/637
f 637/637 636/636 638/638
f 638/638 636/636 639/639
f 639/639 636/636 635/635
f 640/640 641/641 642/642
f 642/642 641/641 643/643
f 643/643 641/641 644/644
f 644/644 641/641 640/640
f 645/645 646/646 647/647
f 647/647 646/646 648/648
f 648/648 646/646 649/649
f 649/649 646/646 645/645
f 650/650 651/651 652/652
f 652/652 651/651 653/653
f 653/653 651/651 654/654
f 654/654 651/651 650/650
f 655/655 656/656 657/657
f 657/657 656/656 658/658
f 658/658 656/656 659/659
f 659/659 656/656 655/655
f 660/660 661/661 662/662
f 662/662 661/661 663/663
f 663/663 661/661 664/664
f 664/664 661/661 660/660
f 665/665 666/666 667/667
f 668/668 666/666 669/669
f 669/669 670/670 671/671
f 667/667 670/670 672/672
f 671/671 673/673 674/674
f 672/672 673/673 675/675
f 674/674 676/676 677/677
f 675/675 676/676 678/678
f 679/679 676/676 680/680
f 681/681 673/673 679/679
f 682/682 670/670 681/681
f 683/683 666/666 682/682
f 684/684 676/676 685/685
f 686/686 673/673 684/684
f 687/687 670/670 686/686
f 688/688 666/666 687/687
f 689/689 690/690 691/691
f 692/692 690/690 693/693
f 693/693 694/694 695/695
f 691/691 694/694 696/696
f 695/695 697/697 698/698
f 696/696 697/697 699/699
f 698/698 700/700 701/701
f 699/699 700/700 702/702
f 703/703 700/700 704/704
f 705/705 697/697 703/703
f 706/706 694/694 705/705
f 707/707 690/690 706/706
f 708/708 700/700 709/709
f 710/710 697/697 708/708
f 711/711 694/694 710/710
f 712/712 690/690 711/711
f 713/713 714/714 715/715
f 716/716 714/714 717/717
f 717/717 718/718 719/719
f 715/715 718/718 720/720
f 719/719 721/721 722/722
f 720/720 721/721 723/723
f 722/722 724/724 725/725
f 723/723 724/724 726/726
f 727/727 724/724 728/728
f 729/729 721/721 727/727
f 730/730 718/718 729/729
f 731/731 714/714 730/730
f 732/732 724/724 733/733
f 734/734 721/721 732/732
f 735/735 718/718 734/734
f 736/736 714/714 735/735
f 737/737 738/738 739/739
f 740/740 738/738 741/741
f 741/741 742/742 743/743
f 739/739 742/742 744/744
f 743/743 745/745 746/746
f 744/744 745/745 747/747
f 746/746 748/748 749/749
f 747/747 748/748 750/750
f 751/751 748/748 752/752
f 753/753 745/745 751/751
f 754/754 742/742 753/753
f 755/755 738/738 754/754
f 756/756 748/748 757/757
f 758/758 745/745 756/756
f 759/759 742/742 758/758
f 760/760 738/738 759/759
f 761/761 762/762 763/763
f 764/764 765/765 761/761
f 766/766 767/767 764/764
f 768/768 769/769 766/766
f 770/770 769/769 771/771
f 771/771 767/767 772/772
f 772/772 765/765 773/773
f 773/773 762/762 774/774
f 775/775 769/769 776/776
f 776/776 767/767 777/777
f 777/777 765/765 778/778
f 778/778 762/762 779/779
f 780/780 762/762 781/781
f 782/782 765/765 780/780
f 783/783 767/767 782/782
f 784/784 769/769 783/783
f 785/785 786/786 787/787
f 788/788 789/789 785/785
f 790/790 789/789 791/791
f 791/791 786/786 792/792
f 793/793 789/789 794/794
f 794/794 786/786 795/795
f 796/796 786/786 797/797
f 798/798 789/789 796/796
f 799/799 800/800 801/801
f 800/800 802/802 801/801
f 800/800 803/803 802/802
f 804/804 803/803 800/800
f 803/803 805/805 802/802
f 805/805 806/806 802/802
f 802/802 806/806 807/807
f 808/808 805/805 803/803
f 808/808 809/809 805/805
f 809/809 810/810 805/805
f 806/806 811/811 807/807
f 806/806 812/812 811/811
f 812/812 813/813 811/811
f 812/812 814/814 813/813
f 809/809 815/815 810/810
f 815/815 816/816 810/810
f 815/815 817/817 816/816
f 817/817 818/818 816/816
f 817/817 819/819 818/818
f 819/819 820/820 818/818
f 819/819 821/821 820/820
f 822/822 823/823 824/824
f 825/825 823/823 822/822
f 822/822 826/826 825/825
f 822/822 827/827 826/826
f 827/827 828/828 826/826
f 827/827 829/829 828/828
f 829/829 830/830 828/828
f 829/829 831/831 830/830
f 831/831 832/832 830/830
f 831/831 833/833 832/832
f 832/832 833/833 834/834
f 833/833 835/835 834/834
f 834/834 835/835 836/836
f 836/836 835/835 837/837
f 835/835 838/838 837/837
f 839/839 838/838 835/835
f 839/839 840/840 838/838
f 832/832 834/834 841/841
f 842/842 832/832 841/841
f 842/842 841/841 843/843
f 844/844 842/842 843/843
f 844/844 843/843 845/845
f 846/846 844/844 845/845
f 846/846 845/845 847/847
f 846/846 847/847 848/848
f 848/848 847/847 849/849
f 848/848 849/849 850/850
f 847/847 851/851 849/849
f 851/851 852/852 849/849
f 853/853 854/854 855/855
f 856/856 853/853 855/855
f 857/857 856/856 855/855
f 858/858 856/856 857/857
f 801/801 858/858 857/857
f 802/802 858/858 801/801
f 859/859 860/860 861/861
f 862/862 859/859 861/861
f 863/863 859/859 862/862
f 864/864 863/863 862/862
f 865/865 863/863 864/864
f 865/865 866/866 863/863
f 866/866 867/867 863/863
f 867/867 868/868 863/863
f 864/864 862/862 869/869
f 869/869 862/862 870/870
f 870/870 862/862 871/871
f 862/862 872/872 871/871
f 872/872 873/873 871/871
f 873/873 874/874 871/871
f 870/870 871/871 875/875
f 871/871 876/876 875/875
f 875/875 876/876 877/877
f 876/876 878/878 877/877
f 877/877 878/878 879/879
f 880/880 881/881 882/882
f 883/883 880/880 882/882
f 884/884 880/880 883/883
f 885/885 884/884 883/883
f 886/886 885/885 883/883
f 886/886 883/883 887/887
f 883/883 888/888 887/887
f 889/889 884/884 885/885
f 884/884 889/889 890/890
f 887/887 888/888 891/891
f 888/888 892/892 891/891
f 887/887 891/891 893/893
f 894/894 887/887 893/893
f 894/894 893/893 895/895
f 893/893 896/896 895/895
f 896/896 897/897 895/895
f 895/895 897/897 898/898
f 899/899 895/895 898/898
f 900/900 901/901 902/902
f 903/903 900/900 902/902
f 904/904 900/900 903/903
f 901/901 824/824 902/902
f 901/901 822/822 824/824
f 905/905 906/906 907/907
f 908/908 906/906 905/905
f 909/909 908/908 905/905
f 909/909 905/905 910/910
f 911/911 908/908 909/909
f 911/911 912/912 908/908
f 908/908 912/912 913/913
f 914/914 911/911 909/909
f 915/915 911/911 914/914
f 915/915 916/916 911/911
f 912/912 917/917 913/913
f 912/912 918/918 917/917
f 918/918 919/919 917/917
f 918/918 920/920 919/919
f 908/908 921/921 906/906
f 921/921 922/922 906/906
f 922/922 921/921 923/923
f 924/924 916/916 915/915
f 924/924 925/925 916/916
f 926/926 925/925 924/924
f 926/926 927/927 925/925
f 926/926 928/928 927/927
f 928/928 929/929 927/927
f 928/928 930/930 929/929
f 931/931 922/922 923/923
f 932/932 933/933 934/934
f 932/932 935/935 933/933
f 936/936 932/932 934/934
f 936/936 934/934 937/937
f 937/937 934/934 938/938
f 934/934 939/939 938/938
f 934/934 940/940 939/939
f 941/941 936/936 937/937
f 936/936 941/941 942/942
f 940/940 943/943 939/939
f 940/940 944/944 943/943
f 939/939 943/943 945/945
f 939/939 945/945 946/946
f 945/945 947/947 946/946
f 945/945 948/948 947/947
f 948/948 949/949 947/947
f 947/947 949/949 950/950
f 947/947 950/950 951/951
f 952/952 953/953 954/954
f 955/955 953/953 952/952
f 956/956 955/955 952/952
f 957/957 956/956 952/952
f 958/958 956/956 957/957
f 959/959 958/958 957/957
f 960/960 958/958 959/959
f 961/961 960/960 959/959
f 961/961 962/962 960/960
f 963/963 962/962 961/961
f 963/963 964/964 962/962
f 963/963 965/965 964/964
f 965/965 966/966 964/964
f 965/965 967/967 966/966
f 965/965 968/968 967/967
f 969/969 968/968 965/965
f 970/970 968/968 969/969
f 962/962 964/964 971/971
f 962/962 971/971 972/972
f 971/971 973/973 972/972
f 972/972 973/973 974/974
f 973/973 975/975 974/974
f 974/974 975/975 976/976
f 975/975 977/977 976/976
f 976/976 977/977 978/978
f 977/977 979/979 978/978
f 979/979 980/980 978/978
f 977/977 981/981 979/979
f 982/982 983/983 984/984
f 985/985 983/983 982/982
f 985/985 982/982 986/986
f 987/987 985/985 986/986
f 988/988 985/985 987/987
f 988/988 989/989 985/985
f 989/989 990/990 985/985
f 986/986 982/982 991/991
f 982/982 992/992 991/991
f 982/982 993/993 992/992
f 994/994 993/993 982/982
f 994/994 995/995 993/993
f 993/993 996/996 992/992
f 993/993 997/997 996/996
f 997/997 998/998 996/996
f 998/998 999/999 996/996
f 1000/1000 1001/1001 1002/1002
f 1001/1001 954/954 1002/1002
f 952/952 954/954 1001/1001
f 1003/1003 1004/1004 1005/1005
f 1005/1005 1004/1004 1006/1006
f 1004/1004 1007/1007 1006/1006
f 1004/1004 1008/1008 1007/1007
f 1009/1009 1008/1008 1004/1004
f 1010/1010 1004/1004 1003/1003
f 1011/1011 1004/1004 1010/1010
f 1011/1011 1009/1009 1004/1004
f 1012/1012 1013/1013 1014/1014
f 1014/1014 1015/1015 1012/1012
f 1016/1016 1017/1017 1018/1018
f 1018/1018 1019/1019 1016/1016
f 1020/1020 1021/1021 1022/1022
f 1022/1022 1023/1023 1020/1020
f 1024/1024 1025/1025 1026/1026
f 1026/1026 1027/1027 1024/1024
f 1028/1028 1029/1029 1030/1030
f 1031/1031 1029/1029 1028/1028
f 1031/1031 1032/1032 1029/1029
f 1032/1032 1033/1033 1029/1029
f 1029/1029 1033/1033 1034/1034
f 1030/1030 1029/1029 1035/1035
f 1035/1035 1029/1029 1036/1036
f 1029/1029 1034/1034 1036/1036
f 1037/1037 1038/1038 1039/1039
f 1039/1039 1040/1040 1037/1037
f 1041/1041 1042/1042 1043/1043
f 1043/1043 1044/1044 1041/1041
f 1045/1045 1046/1046 1047/1047
f 1047/1047 1048/1048 1045/1045
f 1049/1049 1050/1050 1051/1051
f 1051/1051 1052/1052 1049/1049
