mtllib acce1704.mtl
o acce1704
v -1.16131 -1.08646 2.18360 0.000 0.000 0.000
v -1.18759 -0.95933 2.02741 0.000 0.000 0.000
v -1.21387 -0.83218 1.87123 0.000 0.000 0.000
v -1.17547 -1.17868 2.11090 0.000 0.000 0.000
v -1.20175 -1.05154 1.95471 0.000 0.000 0.000
v -1.22803 -0.92439 1.79854 0.000 0.000 0.000
v -0.86240 0.32929 2.87879 0.000 0.000 0.000
v -0.80329 0.22894 2.85260 0.000 0.000 0.000
v -0.79457 0.20655 2.81624 0.000 0.000 0.000
v -0.81288 0.21060 2.70905 0.000 0.000 0.000
v -0.84044 0.24710 2.67745 0.000 0.000 0.000
v -0.84508 0.24471 2.63565 0.000 0.000 0.000
v -0.87572 0.28636 2.60507 0.000 0.000 0.000
v -0.90277 0.33451 2.62658 0.000 0.000 0.000
v -0.90628 0.35752 2.70086 0.000 0.000 0.000
v -0.87889 0.33188 2.77780 0.000 0.000 0.000
v -0.88283 0.34454 2.80490 0.000 0.000 0.000
v -0.79693 0.24754 2.97500 0.000 0.000 0.000
v -0.82841 0.35433 3.16814 0.000 0.000 0.000
v -0.90943 0.36581 2.69023 0.000 0.000 0.000
v -0.92428 0.36792 2.60264 0.000 0.000 0.000
v -0.72286 0.18533 3.14618 0.000 0.000 0.000
v -0.80386 0.19681 2.66827 0.000 0.000 0.000
v -0.81871 0.19892 2.58068 0.000 0.000 0.000
v -0.85666 0.28132 2.67925 0.000 0.000 0.000
v -1.15020 0.68855 2.65477 0.000 0.000 0.000
v -0.74700 0.14380 2.93659 0.000 0.000 0.000
v -1.13130 0.68288 2.93452 0.000 0.000 0.000
v -0.72900 0.03737 3.25732 0.000 0.000 0.000
v -0.78219 0.08870 2.39193 0.000 0.000 0.000
v -1.16010 0.44651 2.18180 0.000 0.000 0.000
v -0.94604 -0.20966 2.30411 0.000 0.000 0.000
v -1.17256 -0.08860 2.07684 0.000 0.000 0.000
v -1.05613 -0.45990 2.32789 0.000 0.000 0.000
v -1.26587 -0.46046 2.17073 0.000 0.000 0.000
v -1.14867 -0.69118 2.32186 0.000 0.000 0.000
v -1.32183 -0.68042 2.19305 0.000 0.000 0.000
v -1.21590 -0.90711 2.21233 0.000 0.000 0.000
v -1.35540 -0.80732 2.15366 0.000 0.000 0.000
v -1.18890 -0.67475 1.85135 0.000 0.000 0.000
v -1.30680 -0.44746 1.62871 0.000 0.000 0.000
v -1.18260 -0.69491 1.93574 0.000 0.000 0.000
v -1.30500 -0.47306 1.74541 0.000 0.000 0.000
v -1.22429 -0.95557 1.91682 0.000 0.000 0.000
v -1.30950 -0.47785 1.61777 0.000 0.000 0.000
v -1.33702 -0.88844 1.87209 0.000 0.000 0.000
v -1.23115 -0.94943 1.96929 0.000 0.000 0.000
v -1.24020 -0.85369 1.68763 0.000 0.000 0.000
v -1.33380 -0.74732 1.65470 0.000 0.000 0.000
v -1.26000 -1.02641 1.72060 0.000 0.000 0.000
v -1.34820 -0.94914 1.66658 0.000 0.000 0.000
v -1.20872 -0.79846 1.90467 0.000 0.000 0.000
v -1.32748 -0.72304 1.79129 0.000 0.000 0.000
v -1.33510 -0.88655 1.85607 0.000 0.000 0.000
v -1.22537 -0.86157 1.75246 0.000 0.000 0.000
v -1.25010 -0.88110 1.67593 0.000 0.000 0.000
v -1.34010 -0.76005 1.62787 0.000 0.000 0.000
v -1.32883 -0.78473 1.72330 0.000 0.000 0.000
v -1.34100 -0.79789 1.61843 0.000 0.000 0.000
v -1.25640 -0.98062 1.71509 0.000 0.000 0.000
v -1.26000 -1.02760 1.69749 0.000 0.000 0.000
v -1.15380 -0.64033 1.30871 0.000 0.000 0.000
v -1.33290 -0.90464 1.59035 0.000 0.000 0.000
v -1.23840 -0.93128 1.57608 0.000 0.000 0.000
v -1.19970 -0.79826 1.43660 0.000 0.000 0.000
v -1.25640 -0.78133 1.45427 0.000 0.000 0.000
v -1.20060 -0.86092 2.26107 0.000 0.000 0.000
v -1.35000 -0.78687 2.17186 0.000 0.000 0.000
v -0.77850 0.15412 2.67966 0.000 0.000 0.000
v -1.17630 0.60034 2.34376 0.000 0.000 0.000
v -0.84479 -0.03523 2.27619 0.000 0.000 0.000
v -1.13911 0.19067 2.08526 0.000 0.000 0.000
v -0.68580 0.11984 2.04372 0.000 0.000 0.000
v -0.65970 0.20617 1.90724 0.000 0.000 0.000
v -0.68130 0.15356 1.87056 0.000 0.000 0.000
v -0.72360 0.03179 2.00957 0.000 0.000 0.000
v -0.63810 0.37138 1.68451 0.000 0.000 0.000
v -0.64980 0.30494 1.65416 0.000 0.000 0.000
v -0.65880 0.24269 1.77028 0.000 0.000 0.000
v -0.63720 0.44737 1.57847 0.000 0.000 0.000
v -0.64890 0.31567 1.60997 0.000 0.000 0.000
v -0.64080 0.53534 1.50212 0.000 0.000 0.000
v -0.67230 0.26147 1.44005 0.000 0.000 0.000
v -0.70920 0.08674 2.15203 0.000 0.000 0.000
v -0.78750 -0.03641 2.14096 0.000 0.000 0.000
v -0.73890 0.08975 2.26535 0.000 0.000 0.000
v -0.81000 -0.03751 2.18911 0.000 0.000 0.000
v -0.64080 0.46310 1.49216 0.000 0.000 0.000
v -0.64890 0.45083 1.44299 0.000 0.000 0.000
v -0.63720 0.43272 1.52824 0.000 0.000 0.000
v -0.66960 0.49064 1.34599 0.000 0.000 0.000
v -0.68400 0.34137 1.36564 0.000 0.000 0.000
v -0.67950 0.41206 1.34001 0.000 0.000 0.000
v -0.68670 0.28424 1.39653 0.000 0.000 0.000
v -0.67500 0.30553 1.41062 0.000 0.000 0.000
v -0.65340 0.31664 1.48873 0.000 0.000 0.000
v -0.67500 0.36047 1.37977 0.000 0.000 0.000
v -0.65340 0.35451 1.48151 0.000 0.000 0.000
v -0.66960 0.43121 1.37077 0.000 0.000 0.000
v -0.65340 0.39584 1.47065 0.000 0.000 0.000
v -0.66960 0.46238 1.34872 0.000 0.000 0.000
v -0.67860 0.38126 1.35571 0.000 0.000 0.000
v -0.68310 0.32020 1.37959 0.000 0.000 0.000
v -0.68400 0.27040 1.41532 0.000 0.000 0.000
v -0.65970 0.35570 1.43064 0.000 0.000 0.000
v -0.66420 0.40124 1.40533 0.000 0.000 0.000
v -0.65970 0.30886 1.45001 0.000 0.000 0.000
v -0.65970 0.34524 1.42357 0.000 0.000 0.000
v -0.65970 0.27463 1.48363 0.000 0.000 0.000
v -0.66510 0.29911 1.44342 0.000 0.000 0.000
v -0.64890 0.30668 1.55848 0.000 0.000 0.000
v -0.65970 0.41224 1.41712 0.000 0.000 0.000
v -0.64080 0.50141 1.49395 0.000 0.000 0.000
v -1.16010 0.31779 2.10991 0.000 0.000 0.000
v -1.28677 0.82854 1.77322 0.000 0.000 0.000
v -1.18818 0.76572 1.78945 0.000 0.000 0.000
v -1.22040 0.69691 1.94726 0.000 0.000 0.000
v -1.28430 0.65983 1.92625 0.000 0.000 0.000
v -1.17180 0.47565 2.13017 0.000 0.000 0.000
v -1.19970 0.38344 2.06548 0.000 0.000 0.000
v -0.96750 0.43688 3.07888 0.000 0.000 0.000
v -1.25654 0.86810 1.72019 0.000 0.000 0.000
v -1.15648 0.77713 1.71077 0.000 0.000 0.000
v -1.18186 0.87509 1.55772 0.000 0.000 0.000
v -1.17733 0.86081 1.50295 0.000 0.000 0.000
v -1.15182 0.85147 1.48621 0.000 0.000 0.000
v -1.12568 0.83484 1.47742 0.000 0.000 0.000
v -1.13852 0.85232 1.54483 0.000 0.000 0.000
v -1.22688 0.90218 1.56431 0.000 0.000 0.000
v -1.22947 0.89086 1.51942 0.000 0.000 0.000
v -1.20859 0.88337 1.49346 0.000 0.000 0.000
v -1.18364 0.87023 1.48666 0.000 0.000 0.000
v -1.18913 0.88351 1.54854 0.000 0.000 0.000
v -1.26223 0.89872 1.58456 0.000 0.000 0.000
v -1.27521 0.89690 1.53247 0.000 0.000 0.000
v -1.25698 0.89761 1.51472 0.000 0.000 0.000
v -1.23811 0.89318 1.50174 0.000 0.000 0.000
v -1.23412 0.90270 1.55410 0.000 0.000 0.000
v -1.19129 0.87665 1.60897 0.000 0.000 0.000
v -1.22197 0.89764 1.60745 0.000 0.000 0.000
v -1.11348 0.81110 1.58609 0.000 0.000 0.000
v -1.13551 0.84751 1.55552 0.000 0.000 0.000
v -1.12790 0.83597 1.50658 0.000 0.000 0.000
v -1.10754 0.82033 1.48864 0.000 0.000 0.000
v -1.09822 0.79745 1.48541 0.000 0.000 0.000
v -1.24126 0.88441 1.67191 0.000 0.000 0.000
v -1.15834 0.84960 1.60639 0.000 0.000 0.000
v -1.14219 0.80104 1.66633 0.000 0.000 0.000
v -1.10927 0.78316 1.63566 0.000 0.000 0.000
v -1.08632 0.75285 1.64119 0.000 0.000 0.000
v -1.07050 0.72272 1.65010 0.000 0.000 0.000
v -0.82118 0.09414 2.48373 0.000 0.000 0.000
v -0.87736 -0.02857 2.33737 0.000 0.000 0.000
v -1.14347 0.44215 2.18552 0.000 0.000 0.000
v -1.09757 0.78678 3.00303 0.000 0.000 0.000
v -1.09375 0.59990 2.55564 0.000 0.000 0.000
v -1.09305 0.56567 2.47365 0.000 0.000 0.000
v -0.98377 0.63484 3.06747 0.000 0.000 0.000
v -0.97996 0.44797 2.62008 0.000 0.000 0.000
v -0.97925 0.41373 2.53809 0.000 0.000 0.000
v -1.03685 0.52394 2.58786 0.000 0.000 0.000
v -1.18080 -0.84748 2.51258 0.000 0.000 0.000
v -1.18080 -0.81808 2.34590 0.000 0.000 0.000
v -1.18080 -0.78871 2.17922 0.000 0.000 0.000
v -1.20134 -0.96219 2.49235 0.000 0.000 0.000
v -1.20134 -0.93280 2.32567 0.000 0.000 0.000
v -1.20134 -0.90340 2.15899 0.000 0.000 0.000
v -1.31027 -0.43978 2.05666 0.000 0.000 0.000
v -1.29406 -0.47605 1.91381 0.000 0.000 0.000
v -1.27784 -0.51232 1.77098 0.000 0.000 0.000
v -1.23210 -0.55217 2.09407 0.000 0.000 0.000
v -1.21588 -0.58844 1.95124 0.000 0.000 0.000
v -1.19966 -0.62471 1.80839 0.000 0.000 0.000
v -1.10237 0.64323 2.74874 0.000 0.000 0.000
v -1.02962 0.55478 2.78237 0.000 0.000 0.000
v -1.00913 0.52196 2.76226 0.000 0.000 0.000
v -0.99707 0.47923 2.66290 0.000 0.000 0.000
v -1.01783 0.49381 2.61346 0.000 0.000 0.000
v -1.01039 0.47408 2.57697 0.000 0.000 0.000
v -1.03484 0.49307 2.52551 0.000 0.000 0.000
v -1.07100 0.53937 2.51746 0.000 0.000 0.000
v -1.09715 0.58885 2.57157 0.000 0.000 0.000
v -1.09015 0.60203 2.65585 0.000 0.000 0.000
v -1.10263 0.62336 2.67314 0.000 0.000 0.000
v -1.05937 0.62145 2.88256 0.000 0.000 0.000
v -1.14867 -0.69118 2.32186 0.000 0.000 0.000
v -1.32183 -0.68042 2.19305 0.000 0.000 0.000
v -0.78219 0.08870 2.39193 0.000 0.000 0.000
v -0.84479 -0.03523 2.27619 0.000 0.000 0.000
v -1.16010 0.44651 2.18180 0.000 0.000 0.000
v -1.16010 0.31779 2.10991 0.000 0.000 0.000
vt 0.00781 0.85156
vt 0.24219 0.85156
vt 0.49219 0.85156
vt 0.00781 0.99219
vt 0.24219 0.99219
vt 0.49219 0.99219
vt 0.72656 0.56903
vt 0.82031 0.52216
vt 0.82031 0.49091
vt 0.82031 0.42841
vt 0.82031 0.39716
vt 0.82031 0.33466
vt 0.77344 0.33466
vt 0.72656 0.33466
vt 0.72656 0.39716
vt 0.72656 0.44403
vt 0.72656 0.50653
vt 0.82031 0.56903
vt 0.00781 0.85156
vt 0.33490 0.85156
vt 0.39844 0.85156
vt 0.00781 0.99219
vt 0.33490 0.99219
vt 0.39844 0.99219
vt 0.33490 0.92188
vt 0.00781 0.71094
vt 0.35156 0.71094
vt 0.00781 0.83594
vt 0.35156 0.83594
vt 0.35156 0.46094
vt 0.83594 0.83594
vt 0.35156 0.28906
vt 0.00781 0.28906
vt 0.35156 0.13281
vt 0.00781 0.13281
vt 0.35156 0.00781
vt 0.00781 0.00781
vt 0.71094 0.74219
vt 0.36719 0.74219
vt 0.71094 0.57031
vt 0.36719 0.57031
vt 0.71094 0.61719
vt 0.36719 0.61719
vt 0.71094 0.44531
vt 0.36719 0.55469
vt 0.36719 0.44531
vt 0.71094 0.46094
vt 0.71094 0.32031
vt 0.36719 0.32031
vt 0.71094 0.24219
vt 0.36719 0.24219
vt 0.71094 0.50781
vt 0.36719 0.50781
vt 0.36719 0.41406
vt 0.71094 0.35156
vt 0.71094 0.30469
vt 0.36719 0.30469
vt 0.36719 0.35156
vt 0.36719 0.28906
vt 0.71094 0.25781
vt 0.71094 0.24219
vt 0.53906 0.00781
vt 0.36719 0.17969
vt 0.71094 0.17969
vt 0.71094 0.10156
vt 0.36719 0.10156
vt 0.71094 0.77344
vt 0.36719 0.77344
vt 0.35156 0.55469
vt 0.00781 0.55469
vt 0.35156 0.35156
vt 0.00781 0.35156
vt 0.83594 0.63281
vt 0.83594 0.50781
vt 0.99219 0.50781
vt 0.99219 0.63281
vt 0.83594 0.32031
vt 0.99219 0.32031
vt 0.99219 0.41406
vt 0.83594 0.24219
vt 0.99219 0.24219
vt 0.72656 0.24219
vt 0.99219 0.00781
vt 0.83594 0.69531
vt 0.99219 0.74219
vt 0.83594 0.77344
vt 0.99219 0.77344
vt 0.72656 0.17969
vt 0.80469 0.05469
vt 0.80469 0.17969
vt 0.80469 0.00781
vt 0.89844 0.00781
vt 0.85156 0.00781
vt 0.94531 0.00781
vt 0.94531 0.00781
vt 0.94531 0.11719
vt 0.89844 0.00781
vt 0.89844 0.11719
vt 0.85156 0.00781
vt 0.85156 0.11719
vt 0.83594 0.00781
vt 0.86719 0.00781
vt 0.91406 0.00781
vt 0.96094 0.00781
vt 0.89844 0.05469
vt 0.85156 0.05469
vt 0.94531 0.05469
vt 0.89844 0.05469
vt 0.99219 0.05469
vt 0.94531 0.05469
vt 0.99219 0.17969
vt 0.85156 0.05469
vt 0.72656 0.21094
vt 0.99219 0.83594
vt 0.99219 0.27344
vt 0.83594 0.30469
vt 0.83594 0.46094
vt 0.99219 0.49219
vt 0.83594 0.74219
vt 0.99219 0.78906
vt 0.19531 0.83594
vt 0.99219 0.24219
vt 0.83594 0.24219
vt 0.89844 0.05469
vt 0.89844 0.00781
vt 0.86719 0.00781
vt 0.85156 0.00781
vt 0.85156 0.05469
vt 0.94531 0.05469
vt 0.94531 0.00781
vt 0.91406 0.00781
vt 0.89844 0.00781
vt 0.89844 0.05469
vt 0.99219 0.05469
vt 0.99219 0.00781
vt 0.96094 0.00781
vt 0.94531 0.00781
vt 0.94531 0.05469
vt 0.89844 0.11719
vt 0.94531 0.11719
vt 0.80469 0.05469
vt 0.85156 0.05469
vt 0.85156 0.00781
vt 0.83594 0.00781
vt 0.80469 0.00781
vt 0.99219 0.16406
vt 0.85156 0.11719
vt 0.80469 0.17969
vt 0.72656 0.17969
vt 0.72656 0.21094
vt 0.72656 0.24219
vt 0.32031 0.46094
vt 0.32031 0.35156
vt 0.05469 0.46094
vt 0.00781 0.85156
vt 0.33490 0.85156
vt 0.39844 0.85156
vt 0.00781 0.99219
vt 0.33490 0.99219
vt 0.39844 0.99219
vt 0.33490 0.92188
vt 0.10156 0.85156
vt 0.28906 0.85156
vt 0.49219 0.85156
vt 0.10156 0.99219
vt 0.28906 0.99219
vt 0.49219 0.99219
vt 0.05469 0.85156
vt 0.19531 0.85156
vt 0.35156 0.85156
vt 0.05469 0.99219
vt 0.19531 0.99219
vt 0.35156 0.99219
vt 0.72656 0.83594
vt 0.82031 0.78906
vt 0.82031 0.75781
vt 0.82031 0.69531
vt 0.82031 0.66406
vt 0.82031 0.60156
vt 0.77344 0.60156
vt 0.72656 0.60156
vt 0.72656 0.66406
vt 0.72656 0.71094
vt 0.72656 0.77344
vt 0.82031 0.83594
vt 0.71094 0.83594
vt 0.36719 0.83594
vt 0.83594 0.83594
vt 0.99219 0.83594
vt 0.00781 0.46094
vt 0.00781 0.35156
usemtl m0
f 4/4 5/5 1/1
f 5/5 2/2 1/1
f 2/2 5/5 3/3
f 5/5 6/6 3/3
f 23/23 25/25 22/22
f 21/21 25/25 24/24
f 21/21 20/20 25/25
f 23/23 24/24 25/25
f 25/25 20/20 19/19
f 25/25 19/19 22/22
f 159/159 161/161 158/158
f 157/157 161/161 160/160
f 157/157 156/156 161/161
f 159/159 160/160 161/161
f 161/161 155/155 158/158
f 161/161 156/156 155/155
f 165/165 166/166 162/162
f 166/166 163/163 162/162
f 163/163 166/166 164/164
f 166/166 167/167 164/164
f 171/171 172/172 168/168
f 172/172 169/169 168/168
f 169/169 172/172 170/170
f 172/172 173/173 170/170
usemtl m1
f 13/13 14/14 15/15
f 11/11 12/12 13/13
f 10/10 11/11 16/16
f 16/16 11/11 15/15
f 15/15 11/11 13/13
f 18/18 8/8 7/7
f 9/9 17/17 8/8
f 8/8 17/17 7/7
f 17/17 9/9 16/16
f 9/9 10/10 16/16
f 29/29 27/27 121/121
f 27/27 26/26 121/121
f 26/26 28/28 121/121
f 69/69 30/30 152/152
f 71/71 32/32 153/153
f 33/33 32/32 35/35
f 32/32 34/34 35/35
f 34/34 36/36 35/35
f 36/36 37/37 35/35
f 186/186 67/67 187/187
f 67/67 68/68 187/187
f 42/42 40/40 43/43
f 40/40 41/41 43/43
f 38/38 42/42 39/39
f 42/42 43/43 39/39
f 53/53 52/52 46/46
f 52/52 47/47 46/46
f 44/44 55/55 54/54
f 55/55 58/58 54/54
f 57/57 56/56 59/59
f 59/59 56/56 51/51
f 50/50 51/51 60/60
f 56/56 60/60 51/51
f 52/52 53/53 40/40
f 41/41 40/40 45/45
f 40/40 53/53 45/45
f 49/49 48/48 57/57
f 48/48 56/56 57/57
f 55/55 48/48 58/58
f 48/48 49/49 58/58
f 50/50 61/61 51/51
f 61/61 64/64 51/51
f 51/51 64/64 63/63
f 65/65 62/62 66/66
f 63/63 64/64 66/66
f 64/64 65/65 66/66
f 67/67 38/38 68/68
f 38/38 39/39 68/68
f 27/27 69/69 26/26
f 69/69 70/70 26/26
f 152/152 30/30 153/153
f 30/30 71/71 153/153
f 76/76 73/73 75/75
f 73/73 74/74 75/75
f 77/77 78/78 74/74
f 78/78 79/79 74/74
f 75/75 74/74 79/79
f 78/78 77/77 81/81
f 77/77 80/80 81/81
f 105/105 106/106 97/97
f 93/93 102/102 106/106
f 97/97 106/106 102/102
f 73/73 76/76 84/84
f 76/76 85/85 84/84
f 86/86 84/84 87/87
f 84/84 85/85 87/87
f 107/107 108/108 95/95
f 92/92 103/103 108/108
f 95/95 108/108 103/103
f 109/109 110/110 83/83
f 94/94 104/104 110/110
f 83/83 110/110 104/104
f 110/110 109/109 96/96
f 82/82 113/113 80/80
f 106/106 105/105 100/100
f 105/105 98/98 100/100
f 109/109 111/111 96/96
f 113/113 88/88 80/80
f 88/88 90/90 80/80
f 108/108 107/107 98/98
f 107/107 96/96 98/98
f 91/91 101/101 89/89
f 101/101 99/99 89/89
f 99/99 112/112 89/89
f 112/112 100/100 89/89
f 89/89 100/100 90/90
f 81/81 80/80 111/111
f 80/80 90/90 111/111
f 111/111 90/90 96/96
f 96/96 90/90 98/98
f 98/98 90/90 100/100
f 114/114 120/120 31/31
f 31/31 120/120 119/119
f 120/120 118/118 119/119
f 119/119 118/118 117/117
f 188/188 86/86 189/189
f 86/86 87/87 189/189
f 115/115 122/122 116/116
f 122/122 123/123 116/116
f 127/127 128/128 126/126
f 124/124 125/125 128/128
f 128/128 125/125 126/126
f 129/129 130/130 133/133
f 132/132 133/133 131/131
f 133/133 130/130 131/131
f 134/134 135/135 138/138
f 137/137 138/138 136/136
f 138/138 135/135 136/136
f 133/133 139/139 129/129
f 139/139 140/140 129/129
f 141/141 142/142 145/145
f 145/145 142/142 144/144
f 144/144 142/142 143/143
f 138/138 140/140 134/134
f 140/140 146/146 134/134
f 128/128 147/147 124/124
f 147/147 139/139 124/124
f 148/148 147/147 141/141
f 147/147 142/142 141/141
f 151/151 123/123 150/150
f 123/123 148/148 150/150
f 150/150 148/148 149/149
f 122/122 146/146 123/123
f 123/123 146/146 148/148
f 148/148 146/146 147/147
f 147/147 146/146 139/139
f 139/139 146/146 140/140
f 153/153 72/72 152/152
f 72/72 154/154 152/152
f 32/32 33/33 153/153
f 33/33 72/72 153/153
f 69/69 152/152 70/70
f 152/152 154/154 70/70
f 154/154 190/190 70/70
f 72/72 191/191 154/154
f 191/191 190/190 154/154
f 115/115 116/116 117/117
f 118/118 115/115 117/117
f 47/47 44/44 46/46
f 44/44 54/54 46/46
f 180/180 181/181 182/182
f 178/178 179/179 180/180
f 177/177 178/178 183/183
f 183/183 178/178 182/182
f 182/182 178/178 180/180
f 185/185 175/175 174/174
f 176/176 184/184 175/175
f 175/175 184/184 174/174
f 184/184 176/176 183/183
f 176/176 177/177 183/183
