mtllib acce9007.mtl
o acce9007
v 0.06300 -0.19620 2.65500 0.000 0.000 0.000
v 0.08244 -0.20592 2.65392 0.000 0.000 0.000
v 0.03780 -0.19260 2.68560 0.000 0.000 0.000
v 0.02700 -0.19080 2.71260 0.000 0.000 0.000
v 0.03780 -0.19440 2.62440 0.000 0.000 0.000
v 0.02520 -0.19260 2.59740 0.000 0.000 0.000
v 0.05400 -0.19440 2.70000 0.000 0.000 0.000
v 0.07920 -0.19800 2.67660 0.000 0.000 0.000
v 0.10620 -0.18540 2.70180 0.000 0.000 0.000
v 0.13140 -0.17280 2.71440 0.000 0.000 0.000
v 0.05220 -0.19620 2.61000 0.000 0.000 0.000
v 0.07920 -0.19800 2.63700 0.000 0.000 0.000
v 0.10440 -0.18360 2.61180 0.000 0.000 0.000
v 0.12960 -0.17100 2.59920 0.000 0.000 0.000
v 0.11880 -0.17640 2.62620 0.000 0.000 0.000
v 0.09720 -0.18900 2.65680 0.000 0.000 0.000
v 0.11880 -0.17820 2.68740 0.000 0.000 0.000
v 0.05796 -0.19890 2.67444 0.000 0.000 0.000
v 0.06696 -0.20142 2.66634 0.000 0.000 0.000
v 0.06066 -0.20088 2.67696 0.000 0.000 0.000
v 0.05058 -0.19710 2.68380 0.000 0.000 0.000
v 0.07308 -0.20376 2.66400 0.000 0.000 0.000
v 0.04788 -0.19710 2.69064 0.000 0.000 0.000
v 0.07110 -0.20178 2.67048 0.000 0.000 0.000
v 0.06354 -0.19944 2.67984 0.000 0.000 0.000
v 0.05454 -0.19746 2.68776 0.000 0.000 0.000
v 0.05580 -0.19962 2.63268 0.000 0.000 0.000
v 0.05832 -0.20160 2.63034 0.000 0.000 0.000
v 0.06498 -0.20196 2.64060 0.000 0.000 0.000
v 0.04806 -0.19782 2.62350 0.000 0.000 0.000
v 0.07110 -0.20430 2.64312 0.000 0.000 0.000
v 0.04518 -0.19800 2.61702 0.000 0.000 0.000
v 0.06894 -0.20250 2.63664 0.000 0.000 0.000
v 0.06102 -0.20016 2.62746 0.000 0.000 0.000
v 0.05202 -0.19836 2.61954 0.000 0.000 0.000
v 0.10044 -0.19242 2.68200 0.000 0.000 0.000
v 0.09432 -0.19746 2.67246 0.000 0.000 0.000
v 0.10368 -0.19350 2.67948 0.000 0.000 0.000
v 0.10818 -0.18774 2.69010 0.000 0.000 0.000
v 0.09288 -0.20016 2.66634 0.000 0.000 0.000
v 0.11412 -0.18522 2.69316 0.000 0.000 0.000
v 0.09738 -0.19584 2.66922 0.000 0.000 0.000
v 0.10458 -0.19008 2.67732 0.000 0.000 0.000
v 0.11124 -0.18594 2.68668 0.000 0.000 0.000
v 0.09198 -0.19782 2.63844 0.000 0.000 0.000
v 0.09900 -0.19206 2.62944 0.000 0.000 0.000
v 0.10170 -0.19278 2.63196 0.000 0.000 0.000
v 0.10728 -0.18630 2.62170 0.000 0.000 0.000
v 0.09018 -0.20088 2.64456 0.000 0.000 0.000
v 0.11340 -0.18342 2.61900 0.000 0.000 0.000
v 0.09504 -0.19638 2.64222 0.000 0.000 0.000
v 0.10314 -0.19026 2.63430 0.000 0.000 0.000
v 0.11034 -0.18504 2.62548 0.000 0.000 0.000
v 0.03168 0.19098 2.67210 0.000 0.000 0.000
v 0.00108 0.19206 2.66760 0.000 0.000 0.000
v 0.03312 0.18576 2.75004 0.000 0.000 0.000
v 0.02808 0.17406 2.63520 0.000 0.000 0.000
v 0.01800 0.17982 2.75040 0.000 0.000 0.000
v 0.03060 0.15930 2.80836 0.000 0.000 0.000
v 0.00288 0.17946 2.62710 0.000 0.000 0.000
v 0.00000 0.16812 2.80980 0.000 0.000 0.000
v 0.00000 0.18522 2.75490 0.000 0.000 0.000
v 0.00000 0.14220 2.85084 0.000 0.000 0.000
v 0.03150 0.12510 2.85354 0.000 0.000 0.000
v 0.00000 0.10044 2.88558 0.000 0.000 0.000
v 0.03186 0.09954 2.88504 0.000 0.000 0.000
v 0.00000 0.04806 2.90430 0.000 0.000 0.000
v 0.03060 0.00000 2.90700 0.000 0.000 0.000
v 0.00000 0.00000 2.90790 0.000 0.000 0.000
v 0.00000 -0.04806 2.90430 0.000 0.000 0.000
v 0.03186 -0.09954 2.88504 0.000 0.000 0.000
v 0.00000 -0.10044 2.88558 0.000 0.000 0.000
v 0.03150 -0.12510 2.85354 0.000 0.000 0.000
v 0.00000 -0.14220 2.85084 0.000 0.000 0.000
v 0.03060 -0.15930 2.80836 0.000 0.000 0.000
v 0.00000 -0.16812 2.80980 0.000 0.000 0.000
v 0.02970 -0.17010 2.75040 0.000 0.000 0.000
v 0.00000 -0.18522 2.75490 0.000 0.000 0.000
v 0.02808 -0.17406 2.63520 0.000 0.000 0.000
v 0.00288 -0.17946 2.62710 0.000 0.000 0.000
v -0.00810 0.19476 2.66760 0.000 0.000 0.000
v -0.12276 -0.18270 2.66760 0.000 0.000 0.000
v -0.14868 -0.20430 2.47446 0.000 0.000 0.000
v -0.06516 -0.21294 2.66598 0.000 0.000 0.000
v -0.10260 -0.20628 2.46258 0.000 0.000 0.000
v -0.22536 -0.23850 2.17728 0.000 0.000 0.000
v -0.15966 -0.23814 2.19114 0.000 0.000 0.000
v -0.26208 -0.25434 2.07234 0.000 0.000 0.000
v -0.19674 -0.25362 2.07900 0.000 0.000 0.000
v -0.25218 -0.26442 1.97028 0.000 0.000 0.000
v -0.30186 -0.25668 1.97262 0.000 0.000 0.000
v -0.34146 -0.23778 1.85760 0.000 0.000 0.000
v -0.30960 -0.25380 1.84860 0.000 0.000 0.000
v -0.37008 -0.21204 1.76238 0.000 0.000 0.000
v -0.35280 -0.22662 1.75410 0.000 0.000 0.000
v -0.41796 -0.15570 1.61856 0.000 0.000 0.000
v -0.40032 -0.15768 1.60956 0.000 0.000 0.000
v -0.42048 -0.10422 1.53450 0.000 0.000 0.000
v -0.43362 -0.10566 1.54386 0.000 0.000 0.000
v -0.43398 -0.02250 1.50336 0.000 0.000 0.000
v -0.41976 -0.02376 1.49652 0.000 0.000 0.000
v -0.42246 0.05706 1.48896 0.000 0.000 0.000
v -0.06318 -0.17964 2.45124 0.000 0.000 0.000
v 0.00288 -0.17946 2.62710 0.000 0.000 0.000
v -0.00720 -0.19476 2.67030 0.000 0.000 0.000
v -0.10422 -0.17262 2.76210 0.000 0.000 0.000
v -0.05328 -0.19836 2.75850 0.000 0.000 0.000
v -0.04392 -0.17226 2.80980 0.000 0.000 0.000
v -0.09198 -0.14760 2.80980 0.000 0.000 0.000
v -0.07938 -0.12402 2.85084 0.000 0.000 0.000
v -0.03852 -0.14454 2.85084 0.000 0.000 0.000
v -0.03240 -0.10152 2.88234 0.000 0.000 0.000
v -0.06444 -0.08622 2.88234 0.000 0.000 0.000
v -0.02790 -0.04914 2.90214 0.000 0.000 0.000
v -0.48258 0.02556 1.46610 0.000 0.000 0.000
v -0.44118 0.02178 1.37016 0.000 0.000 0.000
v -0.44766 -0.01332 1.50156 0.000 0.000 0.000
v -0.49878 0.00324 1.51524 0.000 0.000 0.000
v -0.46260 -0.06858 1.61298 0.000 0.000 0.000
v -0.52290 -0.04068 1.62810 0.000 0.000 0.000
v -0.50742 -0.11322 1.77696 0.000 0.000 0.000
v -0.44082 -0.15012 1.74600 0.000 0.000 0.000
v -0.36882 -0.21348 1.92258 0.000 0.000 0.000
v -0.44442 -0.15174 1.94580 0.000 0.000 0.000
v -0.25992 -0.22302 2.17224 0.000 0.000 0.000
v -0.33462 -0.14148 2.15298 0.000 0.000 0.000
v -0.23112 -0.11340 2.48184 0.000 0.000 0.000
v -0.14868 -0.20430 2.47446 0.000 0.000 0.000
v -0.17748 -0.14454 2.66814 0.000 0.000 0.000
v -0.22086 -0.09198 2.66778 0.000 0.000 0.000
v -0.12276 -0.18270 2.66760 0.000 0.000 0.000
v -0.10422 -0.17262 2.76210 0.000 0.000 0.000
v -0.15480 -0.13194 2.76210 0.000 0.000 0.000
v -0.20520 -0.07776 2.76300 0.000 0.000 0.000
v -0.14094 -0.12096 2.80980 0.000 0.000 0.000
v -0.17820 -0.06822 2.80980 0.000 0.000 0.000
v -0.09198 -0.14760 2.80980 0.000 0.000 0.000
v -0.12366 -0.10008 2.85084 0.000 0.000 0.000
v -0.15030 -0.05580 2.85084 0.000 0.000 0.000
v -0.08928 -0.07416 2.88234 0.000 0.000 0.000
v -0.11430 -0.03420 2.88234 0.000 0.000 0.000
v -0.07938 -0.12402 2.85084 0.000 0.000 0.000
v -0.06444 -0.08622 2.88234 0.000 0.000 0.000
v -0.02790 -0.04914 2.90214 0.000 0.000 0.000
v -0.05778 0.00000 2.90214 0.000 0.000 0.000
v 0.00000 0.00000 2.90790 0.000 0.000 0.000
v -0.22086 -0.09198 2.66778 0.000 0.000 0.000
v -0.25128 0.00000 2.47896 0.000 0.000 0.000
v -0.23112 -0.11340 2.48184 0.000 0.000 0.000
v -0.23778 0.00000 2.67084 0.000 0.000 0.000
v -0.36846 -0.03708 2.14740 0.000 0.000 0.000
v -0.33462 -0.14148 2.15298 0.000 0.000 0.000
v -0.44442 -0.15174 1.94580 0.000 0.000 0.000
v -0.45090 -0.05634 1.96074 0.000 0.000 0.000
v -0.50742 -0.11322 1.77696 0.000 0.000 0.000
v -0.22482 0.00000 2.76210 0.000 0.000 0.000
v -0.20520 -0.07776 2.76300 0.000 0.000 0.000
v -0.19962 0.00000 2.80980 0.000 0.000 0.000
v -0.17820 -0.06822 2.80980 0.000 0.000 0.000
v -0.17082 0.00000 2.85084 0.000 0.000 0.000
v -0.15030 -0.05580 2.85084 0.000 0.000 0.000
v -0.13662 0.00000 2.88234 0.000 0.000 0.000
v -0.11430 -0.03420 2.88234 0.000 0.000 0.000
v -0.05778 0.00000 2.90214 0.000 0.000 0.000
v -0.51768 -0.02070 1.80828 0.000 0.000 0.000
v -0.53982 0.02484 1.66626 0.000 0.000 0.000
v -0.52290 -0.04068 1.62810 0.000 0.000 0.000
v -0.52686 0.05166 1.54404 0.000 0.000 0.000
v -0.49878 0.00324 1.51524 0.000 0.000 0.000
v -0.48258 0.02556 1.46610 0.000 0.000 0.000
v -0.49464 0.06030 1.46106 0.000 0.000 0.000
v -0.44118 0.02178 1.37016 0.000 0.000 0.000
v -0.45126 0.13176 1.71126 0.000 0.000 0.000
v -0.50994 0.09900 1.69506 0.000 0.000 0.000
v -0.48978 0.06984 1.83132 0.000 0.000 0.000
v -0.44658 0.14850 1.62558 0.000 0.000 0.000
v -0.40986 0.11142 1.82718 0.000 0.000 0.000
v -0.35604 0.11790 1.97082 0.000 0.000 0.000
v -0.43038 0.06606 1.97244 0.000 0.000 0.000
v -0.27792 0.14004 2.13624 0.000 0.000 0.000
v -0.34722 0.07092 2.13858 0.000 0.000 0.000
v -0.23112 0.11340 2.48184 0.000 0.000 0.000
v -0.17748 0.17550 2.47446 0.000 0.000 0.000
v -0.17748 0.14454 2.66814 0.000 0.000 0.000
v -0.22086 0.09198 2.66778 0.000 0.000 0.000
v -0.12276 0.18270 2.66760 0.000 0.000 0.000
v -0.10422 0.17262 2.76210 0.000 0.000 0.000
v -0.15480 0.13194 2.76210 0.000 0.000 0.000
v -0.20520 0.07776 2.76300 0.000 0.000 0.000
v -0.14094 0.12096 2.80980 0.000 0.000 0.000
v -0.17820 0.06822 2.80980 0.000 0.000 0.000
v -0.09198 0.14760 2.80980 0.000 0.000 0.000
v -0.12366 0.10008 2.85084 0.000 0.000 0.000
v -0.15030 0.05580 2.85084 0.000 0.000 0.000
v -0.08928 0.07416 2.88234 0.000 0.000 0.000
v -0.11430 0.03420 2.88234 0.000 0.000 0.000
v -0.07938 0.12402 2.85084 0.000 0.000 0.000
v -0.06444 0.08622 2.88234 0.000 0.000 0.000
v -0.02790 0.04914 2.90214 0.000 0.000 0.000
v -0.05778 0.00000 2.90214 0.000 0.000 0.000
v 0.00000 0.00000 2.90790 0.000 0.000 0.000
v -0.23112 0.11340 2.48184 0.000 0.000 0.000
v -0.25128 0.00000 2.47896 0.000 0.000 0.000
v -0.22086 0.09198 2.66778 0.000 0.000 0.000
v -0.23778 0.00000 2.67084 0.000 0.000 0.000
v -0.36846 -0.03708 2.14740 0.000 0.000 0.000
v -0.34722 0.07092 2.13858 0.000 0.000 0.000
v -0.43038 0.06606 1.97244 0.000 0.000 0.000
v -0.45090 -0.05634 1.96074 0.000 0.000 0.000
v -0.48978 0.06984 1.83132 0.000 0.000 0.000
v -0.22482 0.00000 2.76210 0.000 0.000 0.000
v -0.20520 0.07776 2.76300 0.000 0.000 0.000
v -0.19962 0.00000 2.80980 0.000 0.000 0.000
v -0.17820 0.06822 2.80980 0.000 0.000 0.000
v -0.17082 0.00000 2.85084 0.000 0.000 0.000
v -0.15030 0.05580 2.85084 0.000 0.000 0.000
v -0.13662 0.00000 2.88234 0.000 0.000 0.000
v -0.11430 0.03420 2.88234 0.000 0.000 0.000
v -0.05778 0.00000 2.90214 0.000 0.000 0.000
v -0.51768 -0.02070 1.80828 0.000 0.000 0.000
v -0.53982 0.02484 1.66626 0.000 0.000 0.000
v -0.50994 0.09900 1.69506 0.000 0.000 0.000
v -0.52686 0.05166 1.54404 0.000 0.000 0.000
v -0.48888 0.11502 1.58274 0.000 0.000 0.000
v -0.49464 0.06030 1.46106 0.000 0.000 0.000
v -0.43758 0.11142 1.46556 0.000 0.000 0.000
v -0.44118 0.02178 1.37016 0.000 0.000 0.000
v -0.49464 0.06030 1.46106 0.000 0.000 0.000
v -0.48888 0.11502 1.58274 0.000 0.000 0.000
v -0.44118 0.14904 1.52946 0.000 0.000 0.000
v -0.43830 -0.00018 1.33596 0.000 0.000 0.000
v -0.43434 0.02070 1.32534 0.000 0.000 0.000
v -0.42858 0.03564 1.35702 0.000 0.000 0.000
v -0.42570 0.03780 1.33398 0.000 0.000 0.000
v -0.43704 0.05346 1.34784 0.000 0.000 0.000
v -0.44406 0.05940 1.38276 0.000 0.000 0.000
v -0.45720 0.03258 1.35378 0.000 0.000 0.000
v -0.44964 0.03618 1.33092 0.000 0.000 0.000
v -0.43956 0.04932 1.39950 0.000 0.000 0.000
v -0.44406 0.05940 1.38276 0.000 0.000 0.000
v -0.45828 0.03528 1.39032 0.000 0.000 0.000
v -0.45720 0.03258 1.35378 0.000 0.000 0.000
v -0.44136 0.01332 1.38384 0.000 0.000 0.000
v -0.43830 -0.00018 1.33596 0.000 0.000 0.000
v -0.42858 0.03564 1.35702 0.000 0.000 0.000
v -0.42912 0.03672 1.39014 0.000 0.000 0.000
v -0.43956 0.04932 1.39950 0.000 0.000 0.000
v -0.44226 0.03114 1.39014 0.000 0.000 0.000
v -0.45828 0.03528 1.39032 0.000 0.000 0.000
v -0.44136 0.01332 1.38384 0.000 0.000 0.000
v -0.42912 0.03672 1.39014 0.000 0.000 0.000
v -0.43776 0.03780 1.33434 0.000 0.000 0.000
v -0.43434 0.02070 1.32534 0.000 0.000 0.000
v -0.42570 0.03780 1.33398 0.000 0.000 0.000
v -0.43704 0.05346 1.34784 0.000 0.000 0.000
v -0.44964 0.03618 1.33092 0.000 0.000 0.000
v -0.47610 0.08856 1.11042 0.000 0.000 0.000
v -0.42444 -0.00504 1.07208 0.000 0.000 0.000
v -0.47178 0.08046 1.11798 0.000 0.000 0.000
v -0.49950 0.09342 1.18440 0.000 0.000 0.000
v -0.51498 0.11520 1.18296 0.000 0.000 0.000
v -0.48528 0.08622 1.28952 0.000 0.000 0.000
v -0.47628 0.06318 1.26756 0.000 0.000 0.000
v -0.43470 0.03042 1.33524 0.000 0.000 0.000
v -0.43308 0.04932 1.34766 0.000 0.000 0.000
v -0.42930 -0.00342 1.07928 0.000 0.000 0.000
v -0.39384 -0.10782 1.04454 0.000 0.000 0.000
v -0.43218 -0.05706 1.10448 0.000 0.000 0.000
v -0.46350 -0.00918 1.19088 0.000 0.000 0.000
v -0.47898 0.06408 1.16262 0.000 0.000 0.000
v -0.46548 0.06858 1.26486 0.000 0.000 0.000
v -0.45648 0.01278 1.26234 0.000 0.000 0.000
v -0.43470 0.02394 1.33380 0.000 0.000 0.000
v -0.43848 0.04446 1.34334 0.000 0.000 0.000
v -0.47214 0.11034 1.92438 0.000 0.000 0.000
v -0.54000 0.05148 1.85616 0.000 0.000 0.000
v -0.51588 0.08028 1.95048 0.000 0.000 0.000
v -0.50202 0.07524 1.82718 0.000 0.000 0.000
v -0.43038 0.15102 2.00088 0.000 0.000 0.000
v -0.47916 0.10728 2.04156 0.000 0.000 0.000
v -0.42138 0.14004 2.15568 0.000 0.000 0.000
v -0.36522 0.21042 2.10654 0.000 0.000 0.000
v -0.29232 0.23616 2.22192 0.000 0.000 0.000
v -0.34110 0.16704 2.27052 0.000 0.000 0.000
v -0.17748 0.17550 2.47446 0.000 0.000 0.000
v -0.55728 0.02322 1.74654 0.000 0.000 0.000
v -0.52326 0.06516 1.73394 0.000 0.000 0.000
v -0.53802 0.06048 1.64322 0.000 0.000 0.000
v -0.55134 0.02178 1.65096 0.000 0.000 0.000
v -0.53658 0.03816 1.55934 0.000 0.000 0.000
v -0.52884 0.06030 1.55862 0.000 0.000 0.000
v -0.51246 0.07020 1.49490 0.000 0.000 0.000
v -0.12060 0.20268 2.46618 0.000 0.000 0.000
v -0.06516 0.21294 2.66598 0.000 0.000 0.000
v -0.12276 0.18270 2.66760 0.000 0.000 0.000
v -0.10422 0.17262 2.76210 0.000 0.000 0.000
v -0.05328 0.19836 2.75850 0.000 0.000 0.000
v -0.04392 0.17226 2.80980 0.000 0.000 0.000
v -0.09198 0.14760 2.80980 0.000 0.000 0.000
v -0.07938 0.12402 2.85084 0.000 0.000 0.000
v -0.03852 0.14454 2.85084 0.000 0.000 0.000
v -0.03240 0.10152 2.88234 0.000 0.000 0.000
v -0.06444 0.08622 2.88234 0.000 0.000 0.000
v -0.02790 0.04914 2.90214 0.000 0.000 0.000
v -0.00810 0.19476 2.66760 0.000 0.000 0.000
v 0.00288 0.17946 2.62710 0.000 0.000 0.000
v -0.06516 0.21294 2.66598 0.000 0.000 0.000
v -0.12060 0.20268 2.46618 0.000 0.000 0.000
v -0.06318 0.17964 2.45124 0.000 0.000 0.000
v -0.29232 0.23616 2.22192 0.000 0.000 0.000
v -0.12240 -0.09000 2.61900 0.000 0.000 0.000
v -0.20160 0.00000 2.48400 0.000 0.000 0.000
v -0.15120 0.00000 2.61900 0.000 0.000 0.000
v -0.13446 -0.09846 2.47014 0.000 0.000 0.000
v -0.06318 -0.17964 2.45124 0.000 0.000 0.000
v 0.00288 -0.17946 2.62710 0.000 0.000 0.000
v -0.23706 -0.04068 2.12778 0.000 0.000 0.000
v -0.25992 -0.22302 2.17224 0.000 0.000 0.000
v -0.14868 -0.20430 2.47446 0.000 0.000 0.000
v -0.29556 -0.03204 1.92708 0.000 0.000 0.000
v -0.36882 -0.21348 1.92258 0.000 0.000 0.000
v -0.35460 -0.00522 1.76346 0.000 0.000 0.000
v -0.44082 -0.15012 1.74600 0.000 0.000 0.000
v -0.38916 0.03996 1.64070 0.000 0.000 0.000
v -0.46260 -0.06858 1.61298 0.000 0.000 0.000
v -0.41292 0.00612 1.51938 0.000 0.000 0.000
v -0.40680 0.06516 1.52100 0.000 0.000 0.000
v -0.44118 0.02178 1.37016 0.000 0.000 0.000
v -0.44766 -0.01332 1.50156 0.000 0.000 0.000
v -0.15120 0.00000 2.61900 0.000 0.000 0.000
v -0.20160 0.00000 2.48400 0.000 0.000 0.000
v -0.12240 0.09000 2.61900 0.000 0.000 0.000
v -0.13446 0.09846 2.47014 0.000 0.000 0.000
v -0.06318 0.17964 2.45124 0.000 0.000 0.000
v 0.00288 0.17946 2.62710 0.000 0.000 0.000
v -0.23706 -0.04068 2.12778 0.000 0.000 0.000
v -0.27792 0.14004 2.13624 0.000 0.000 0.000
v -0.17748 0.17550 2.47446 0.000 0.000 0.000
v -0.29556 -0.03204 1.92708 0.000 0.000 0.000
v -0.35604 0.11790 1.97082 0.000 0.000 0.000
v -0.35460 -0.00522 1.76346 0.000 0.000 0.000
v -0.40986 0.11142 1.82718 0.000 0.000 0.000
v -0.38916 0.03996 1.64070 0.000 0.000 0.000
v -0.45126 0.13176 1.71126 0.000 0.000 0.000
v -0.41400 0.12564 1.58796 0.000 0.000 0.000
v -0.40680 0.06516 1.52100 0.000 0.000 0.000
v -0.44658 0.14850 1.62558 0.000 0.000 0.000
v -0.44118 0.14904 1.52946 0.000 0.000 0.000
v -0.43758 0.11142 1.46556 0.000 0.000 0.000
v -0.44118 0.02178 1.37016 0.000 0.000 0.000
v 0.01440 0.18036 2.77560 0.000 0.000 0.000
v 0.00702 0.17694 2.77488 0.000 0.000 0.000
v 0.01260 0.17028 2.79918 0.000 0.000 0.000
v 0.02070 0.17046 2.78136 0.000 0.000 0.000
v 0.02034 0.17604 2.76246 0.000 0.000 0.000
v 0.01242 0.18126 2.75454 0.000 0.000 0.000
v 0.02538 0.16524 2.79810 0.000 0.000 0.000
v 0.02070 0.17046 2.78136 0.000 0.000 0.000
v 0.01728 0.16812 2.81520 0.000 0.000 0.000
v 0.02232 0.15804 2.81790 0.000 0.000 0.000
v 0.01260 0.17028 2.79918 0.000 0.000 0.000
v 0.01062 0.15354 2.83392 0.000 0.000 0.000
v 0.01062 0.16380 2.81520 0.000 0.000 0.000
v 0.00720 0.17658 2.79414 0.000 0.000 0.000
v 0.00126 0.17982 2.77236 0.000 0.000 0.000
v -0.00054 0.17640 2.78676 0.000 0.000 0.000
v 0.00126 0.16812 2.80944 0.000 0.000 0.000
v 0.00702 0.17694 2.77488 0.000 0.000 0.000
v 0.01062 0.16380 2.81520 0.000 0.000 0.000
v 0.01260 0.17028 2.79918 0.000 0.000 0.000
v 0.02358 0.14760 2.83374 0.000 0.000 0.000
v 0.02232 0.15804 2.81790 0.000 0.000 0.000
v 0.01602 0.14958 2.84544 0.000 0.000 0.000
v 0.01944 0.13176 2.85354 0.000 0.000 0.000
v 0.01062 0.15354 2.83392 0.000 0.000 0.000
v 0.01134 0.12096 2.86668 0.000 0.000 0.000
v 0.00810 0.13896 2.85516 0.000 0.000 0.000
v 0.00522 0.15912 2.83770 0.000 0.000 0.000
v 0.00126 0.16812 2.80944 0.000 0.000 0.000
v -0.00270 0.15750 2.82978 0.000 0.000 0.000
v 0.00000 0.14238 2.85138 0.000 0.000 0.000
v 0.01062 0.16380 2.81520 0.000 0.000 0.000
v 0.00810 0.13896 2.85516 0.000 0.000 0.000
v 0.01062 0.15354 2.83392 0.000 0.000 0.000
v 0.02160 0.11754 2.86614 0.000 0.000 0.000
v 0.01944 0.13176 2.85354 0.000 0.000 0.000
v 0.01764 0.11610 2.88000 0.000 0.000 0.000
v 0.01836 0.10152 2.88558 0.000 0.000 0.000
v 0.01134 0.12096 2.86668 0.000 0.000 0.000
v 0.01170 0.09540 2.89026 0.000 0.000 0.000
v 0.00900 0.11016 2.87622 0.000 0.000 0.000
v 0.00378 0.13338 2.86560 0.000 0.000 0.000
v 0.00000 0.14238 2.85138 0.000 0.000 0.000
v -0.00216 0.13428 2.85858 0.000 0.000 0.000
v 0.00144 0.11646 2.87316 0.000 0.000 0.000
v 0.00810 0.13896 2.85516 0.000 0.000 0.000
v 0.00900 0.11016 2.87622 0.000 0.000 0.000
v 0.01134 0.12096 2.86668 0.000 0.000 0.000
v 0.02394 0.08568 2.89170 0.000 0.000 0.000
v 0.01836 0.10152 2.88558 0.000 0.000 0.000
v 0.01728 0.07992 2.90232 0.000 0.000 0.000
v 0.02142 0.05940 2.89782 0.000 0.000 0.000
v 0.01170 0.09540 2.89026 0.000 0.000 0.000
v 0.01314 0.05094 2.90268 0.000 0.000 0.000
v 0.00954 0.07290 2.89728 0.000 0.000 0.000
v 0.00486 0.10296 2.89062 0.000 0.000 0.000
v 0.00144 0.11646 2.87316 0.000 0.000 0.000
v -0.00198 0.10062 2.88558 0.000 0.000 0.000
v 0.00126 0.08784 2.89026 0.000 0.000 0.000
v 0.00900 0.11016 2.87622 0.000 0.000 0.000
v 0.00954 0.07290 2.89728 0.000 0.000 0.000
v 0.01170 0.09540 2.89026 0.000 0.000 0.000
v 0.02376 0.03906 2.90070 0.000 0.000 0.000
v 0.02142 0.05940 2.89782 0.000 0.000 0.000
v 0.01944 0.03708 2.91132 0.000 0.000 0.000
v 0.02052 0.01926 2.90556 0.000 0.000 0.000
v 0.01314 0.05094 2.90268 0.000 0.000 0.000
v 0.01152 0.01062 2.90880 0.000 0.000 0.000
v 0.01026 0.03456 2.90574 0.000 0.000 0.000
v 0.00288 0.06264 2.90736 0.000 0.000 0.000
v 0.00126 0.08784 2.89026 0.000 0.000 0.000
v -0.00108 0.06624 2.89800 0.000 0.000 0.000
v 0.00144 0.04446 2.90466 0.000 0.000 0.000
v 0.00954 0.07290 2.89728 0.000 0.000 0.000
v 0.01026 0.03456 2.90574 0.000 0.000 0.000
v 0.01314 0.05094 2.90268 0.000 0.000 0.000
v 0.02196 0.00324 2.90754 0.000 0.000 0.000
v 0.02052 0.01926 2.90556 0.000 0.000 0.000
v 0.01710 0.00414 2.91456 0.000 0.000 0.000
v 0.02106 -0.02034 2.90556 0.000 0.000 0.000
v 0.01152 0.01062 2.90880 0.000 0.000 0.000
v 0.01260 -0.03060 2.90610 0.000 0.000 0.000
v 0.01098 -0.00720 2.90898 0.000 0.000 0.000
v 0.00486 0.01926 2.91492 0.000 0.000 0.000
v 0.00144 0.04446 2.90466 0.000 0.000 0.000
v -0.00036 0.02466 2.90646 0.000 0.000 0.000
v 0.00180 0.00144 2.90862 0.000 0.000 0.000
v 0.01026 0.03456 2.90574 0.000 0.000 0.000
v 0.01098 -0.00720 2.90898 0.000 0.000 0.000
v 0.01152 0.01062 2.90880 0.000 0.000 0.000
v 0.01746 -0.04644 2.91114 0.000 0.000 0.000
v 0.02358 -0.03942 2.90178 0.000 0.000 0.000
v 0.02106 -0.02034 2.90556 0.000 0.000 0.000
v 0.02178 -0.06192 2.89602 0.000 0.000 0.000
v 0.01260 -0.03060 2.90610 0.000 0.000 0.000
v 0.01422 -0.06966 2.89638 0.000 0.000 0.000
v 0.01026 -0.04968 2.90214 0.000 0.000 0.000
v 0.00180 0.00144 2.90862 0.000 0.000 0.000
v 0.00090 -0.01314 2.90700 0.000 0.000 0.000
v 0.00648 -0.02592 2.91546 0.000 0.000 0.000
v 0.00306 -0.03510 2.90610 0.000 0.000 0.000
v 0.01098 -0.00720 2.90898 0.000 0.000 0.000
v 0.01026 -0.04968 2.90214 0.000 0.000 0.000
v 0.01260 -0.03060 2.90610 0.000 0.000 0.000
v 0.01872 -0.08946 2.89926 0.000 0.000 0.000
v 0.02736 -0.07704 2.89278 0.000 0.000 0.000
v 0.02178 -0.06192 2.89602 0.000 0.000 0.000
v 0.02412 -0.10098 2.88576 0.000 0.000 0.000
v 0.01422 -0.06966 2.89638 0.000 0.000 0.000
v 0.01476 -0.10476 2.88414 0.000 0.000 0.000
v 0.01314 -0.08784 2.89098 0.000 0.000 0.000
v 0.00306 -0.03510 2.90610 0.000 0.000 0.000
v -0.00018 -0.04806 2.90448 0.000 0.000 0.000
v 0.00684 -0.06444 2.90862 0.000 0.000 0.000
v 0.00306 -0.07794 2.89350 0.000 0.000 0.000
v 0.01026 -0.04968 2.90214 0.000 0.000 0.000
v 0.01314 -0.08784 2.89098 0.000 0.000 0.000
v 0.01422 -0.06966 2.89638 0.000 0.000 0.000
v 0.02106 -0.12114 2.87604 0.000 0.000 0.000
v 0.02952 -0.11322 2.87154 0.000 0.000 0.000
v 0.02412 -0.10098 2.88576 0.000 0.000 0.000
v 0.02646 -0.12690 2.85552 0.000 0.000 0.000
v 0.01476 -0.10476 2.88414 0.000 0.000 0.000
v 0.01656 -0.13410 2.85300 0.000 0.000 0.000
v 0.01206 -0.12294 2.86956 0.000 0.000 0.000
v 0.00306 -0.07794 2.89350 0.000 0.000 0.000
v -0.00054 -0.10044 2.88558 0.000 0.000 0.000
v 0.00666 -0.10656 2.89026 0.000 0.000 0.000
v 0.00360 -0.11592 2.87172 0.000 0.000 0.000
v 0.01314 -0.08784 2.89098 0.000 0.000 0.000
v 0.01206 -0.12294 2.86956 0.000 0.000 0.000
v 0.01476 -0.10476 2.88414 0.000 0.000 0.000
v 0.02034 -0.14346 2.84346 0.000 0.000 0.000
v 0.02736 -0.13788 2.84094 0.000 0.000 0.000
v 0.02646 -0.12690 2.85552 0.000 0.000 0.000
v 0.02466 -0.15138 2.82420 0.000 0.000 0.000
v 0.01656 -0.13410 2.85300 0.000 0.000 0.000
v 0.01494 -0.15894 2.81862 0.000 0.000 0.000
v 0.01386 -0.14634 2.83752 0.000 0.000 0.000
v 0.00360 -0.11592 2.87172 0.000 0.000 0.000
v 0.00090 -0.12690 2.86434 0.000 0.000 0.000
v 0.00882 -0.13518 2.86506 0.000 0.000 0.000
v 0.00216 -0.14094 2.85210 0.000 0.000 0.000
v 0.01206 -0.12294 2.86956 0.000 0.000 0.000
v 0.01386 -0.14634 2.83752 0.000 0.000 0.000
v 0.01656 -0.13410 2.85300 0.000 0.000 0.000
v 0.02466 -0.15138 2.82420 0.000 0.000 0.000
v 0.02250 -0.16992 2.80890 0.000 0.000 0.000
v 0.02772 -0.16074 2.80926 0.000 0.000 0.000
v 0.02556 -0.16578 2.79252 0.000 0.000 0.000
v 0.01494 -0.15894 2.81862 0.000 0.000 0.000
v 0.01332 -0.17730 2.77902 0.000 0.000 0.000
v 0.01008 -0.17226 2.79864 0.000 0.000 0.000
v 0.00180 -0.15354 2.83338 0.000 0.000 0.000
v 0.00954 -0.15948 2.82816 0.000 0.000 0.000
v 0.00216 -0.14094 2.85210 0.000 0.000 0.000
v 0.00144 -0.16830 2.80962 0.000 0.000 0.000
v 0.01386 -0.14634 2.83752 0.000 0.000 0.000
v 0.01008 -0.17226 2.79864 0.000 0.000 0.000
v 0.01494 -0.15894 2.81862 0.000 0.000 0.000
v 0.02556 -0.16578 2.79252 0.000 0.000 0.000
v 0.02070 -0.18198 2.77506 0.000 0.000 0.000
v 0.02412 -0.16848 2.77794 0.000 0.000 0.000
v 0.01926 -0.17514 2.75796 0.000 0.000 0.000
v 0.01332 -0.17730 2.77902 0.000 0.000 0.000
v 0.01116 -0.18306 2.73996 0.000 0.000 0.000
v 0.00990 -0.18144 2.76066 0.000 0.000 0.000
v 0.00144 -0.16830 2.80962 0.000 0.000 0.000
v 0.00036 -0.17424 2.79072 0.000 0.000 0.000
v 0.00864 -0.18180 2.79234 0.000 0.000 0.000
v 0.00072 -0.18090 2.76930 0.000 0.000 0.000
v 0.01008 -0.17226 2.79864 0.000 0.000 0.000
v 0.00990 -0.18144 2.76066 0.000 0.000 0.000
v 0.01332 -0.17730 2.77902 0.000 0.000 0.000
v 0.01926 -0.17514 2.75796 0.000 0.000 0.000
v 0.01692 -0.18504 2.73006 0.000 0.000 0.000
v 0.02034 -0.17622 2.73708 0.000 0.000 0.000
v 0.01602 -0.17928 2.71044 0.000 0.000 0.000
v 0.01116 -0.18306 2.73996 0.000 0.000 0.000
v 0.00954 -0.18828 2.69694 0.000 0.000 0.000
v 0.00774 -0.18648 2.71962 0.000 0.000 0.000
v 0.00054 -0.18558 2.75400 0.000 0.000 0.000
v 0.00684 -0.19026 2.74878 0.000 0.000 0.000
v 0.00072 -0.18090 2.76930 0.000 0.000 0.000
v -0.00162 -0.18774 2.72898 0.000 0.000 0.000
v 0.00990 -0.18144 2.76066 0.000 0.000 0.000
v 0.00774 -0.18648 2.71962 0.000 0.000 0.000
v 0.01116 -0.18306 2.73996 0.000 0.000 0.000
v 0.01602 -0.17928 2.71044 0.000 0.000 0.000
v 0.01710 -0.18864 2.68344 0.000 0.000 0.000
v 0.01836 -0.17892 2.69118 0.000 0.000 0.000
v 0.01710 -0.17856 2.67192 0.000 0.000 0.000
v 0.00954 -0.18828 2.69694 0.000 0.000 0.000
v 0.01170 -0.18738 2.65608 0.000 0.000 0.000
v 0.00756 -0.19026 2.67516 0.000 0.000 0.000
v -0.00324 -0.18936 2.71116 0.000 0.000 0.000
v 0.00360 -0.19440 2.70828 0.000 0.000 0.000
v -0.00162 -0.18774 2.72898 0.000 0.000 0.000
v -0.00468 -0.19188 2.69190 0.000 0.000 0.000
v 0.00774 -0.18648 2.71962 0.000 0.000 0.000
v 0.00756 -0.19026 2.67516 0.000 0.000 0.000
v 0.00954 -0.18828 2.69694 0.000 0.000 0.000
v 0.01710 -0.17856 2.67192 0.000 0.000 0.000
v 0.01872 -0.18900 2.65032 0.000 0.000 0.000
v 0.02088 -0.17730 2.65914 0.000 0.000 0.000
v 0.01656 -0.17856 2.64078 0.000 0.000 0.000
v 0.01170 -0.18738 2.65608 0.000 0.000 0.000
v 0.00432 -0.18324 2.62620 0.000 0.000 0.000
v 0.00360 -0.18144 2.63664 0.000 0.000 0.000
v -0.00576 -0.19440 2.67264 0.000 0.000 0.000
v 0.00630 -0.19512 2.66670 0.000 0.000 0.000
v -0.00468 -0.19188 2.69190 0.000 0.000 0.000
v -0.00144 -0.18756 2.64870 0.000 0.000 0.000
v 0.00756 -0.19026 2.67516 0.000 0.000 0.000
v 0.00360 -0.18144 2.63664 0.000 0.000 0.000
v 0.01170 -0.18738 2.65608 0.000 0.000 0.000
v -0.08820 -0.14130 2.59740 0.000 0.000 0.000
v -0.03870 -0.12060 2.52756 0.000 0.000 0.000
v -0.01620 -0.15984 2.59740 0.000 0.000 0.000
v -0.01890 -0.11160 2.49156 0.000 0.000 0.000
v -0.05580 -0.07902 2.46366 0.000 0.000 0.000
v 0.00288 -0.17946 2.62710 0.000 0.000 0.000
v -0.10800 0.00000 2.46366 0.000 0.000 0.000
v -0.10080 -0.02700 2.43540 0.000 0.000 0.000
v -0.09360 -0.04770 2.46366 0.000 0.000 0.000
v -0.18342 0.00000 2.59740 0.000 0.000 0.000
v -0.15840 -0.08262 2.59740 0.000 0.000 0.000
v -0.09360 0.04770 2.46366 0.000 0.000 0.000
v -0.10080 0.02700 2.43540 0.000 0.000 0.000
v -0.15840 0.08262 2.59740 0.000 0.000 0.000
v -0.09360 -0.04770 2.46366 0.000 0.000 0.000
v -0.07920 -0.06444 2.44080 0.000 0.000 0.000
v -0.05580 -0.07902 2.46366 0.000 0.000 0.000
v -0.08820 -0.14130 2.59740 0.000 0.000 0.000
v -0.15840 -0.08262 2.59740 0.000 0.000 0.000
v -0.01620 0.15984 2.59740 0.000 0.000 0.000
v -0.03870 0.12060 2.52756 0.000 0.000 0.000
v -0.08820 0.14130 2.59740 0.000 0.000 0.000
v -0.01890 0.11160 2.49156 0.000 0.000 0.000
v -0.05580 0.07902 2.46366 0.000 0.000 0.000
v 0.00288 0.17946 2.62710 0.000 0.000 0.000
v -0.05580 0.07902 2.46366 0.000 0.000 0.000
v -0.07920 0.06444 2.44080 0.000 0.000 0.000
v -0.09360 0.04770 2.46366 0.000 0.000 0.000
v -0.08820 0.14130 2.59740 0.000 0.000 0.000
v -0.15840 0.08262 2.59740 0.000 0.000 0.000
v -0.33030 -0.19260 2.40192 0.000 0.000 0.000
v -0.34398 -0.17874 2.26872 0.000 0.000 0.000
v -0.32112 -0.18918 2.40012 0.000 0.000 0.000
v -0.28962 -0.18540 2.53008 0.000 0.000 0.000
v -0.29880 -0.18162 2.52918 0.000 0.000 0.000
v -0.20358 -0.13428 2.77362 0.000 0.000 0.000
v -0.19566 -0.13734 2.77560 0.000 0.000 0.000
v -0.17118 -0.11844 2.81754 0.000 0.000 0.000
v -0.16362 -0.12132 2.81880 0.000 0.000 0.000
v -0.12366 -0.10008 2.85084 0.000 0.000 0.000
v -0.13014 -0.09072 2.85138 0.000 0.000 0.000
v -0.08928 -0.07416 2.88234 0.000 0.000 0.000
v -0.33390 -0.17550 2.26764 0.000 0.000 0.000
v -0.32688 -0.15066 2.18196 0.000 0.000 0.000
v -0.33894 -0.15336 2.18268 0.000 0.000 0.000
v -0.32130 -0.12690 2.10492 0.000 0.000 0.000
v -0.33264 -0.12996 2.10438 0.000 0.000 0.000
v -0.31338 -0.09594 2.02194 0.000 0.000 0.000
v 0.02808 -0.17406 2.63520 0.000 0.000 0.000
v 0.04266 -0.18090 2.54502 0.000 0.000 0.000
v 0.03168 -0.19098 2.67210 0.000 0.000 0.000
v 0.02970 -0.17010 2.75040 0.000 0.000 0.000
v 0.03312 -0.18576 2.75004 0.000 0.000 0.000
v 0.03420 -0.17262 2.80872 0.000 0.000 0.000
v 0.03060 -0.15930 2.80836 0.000 0.000 0.000
v 0.03492 -0.13986 2.85390 0.000 0.000 0.000
v 0.03150 -0.12510 2.85354 0.000 0.000 0.000
v 0.03186 -0.09954 2.88504 0.000 0.000 0.000
v 0.03420 0.17262 2.80872 0.000 0.000 0.000
v 0.03312 0.18576 2.75004 0.000 0.000 0.000
v 0.03060 0.15930 2.80836 0.000 0.000 0.000
v 0.03492 0.13986 2.85390 0.000 0.000 0.000
v 0.03150 0.12510 2.85354 0.000 0.000 0.000
v 0.03186 0.09954 2.88504 0.000 0.000 0.000
v 0.03168 0.19098 2.67210 0.000 0.000 0.000
v 0.04266 0.18090 2.54502 0.000 0.000 0.000
v 0.02808 0.17406 2.63520 0.000 0.000 0.000
v 0.07398 -0.14094 2.85516 0.000 0.000 0.000
v 0.08172 -0.16902 2.80998 0.000 0.000 0.000
v 0.13050 -0.12834 2.85984 0.000 0.000 0.000
v 0.06912 -0.12582 2.87514 0.000 0.000 0.000
v 0.14850 -0.14778 2.81286 0.000 0.000 0.000
v 0.08262 -0.19026 2.74860 0.000 0.000 0.000
v 0.12222 -0.17838 2.74734 0.000 0.000 0.000
v 0.15696 -0.15498 2.74860 0.000 0.000 0.000
v 0.11304 -0.10584 2.88414 0.000 0.000 0.000
v 0.09108 -0.08154 2.90034 0.000 0.000 0.000
v 0.06066 -0.09234 2.89386 0.000 0.000 0.000
v 0.03060 0.00000 2.90700 0.000 0.000 0.000
v 0.03186 -0.09954 2.88504 0.000 0.000 0.000
v 0.12276 -0.17586 2.68362 0.000 0.000 0.000
v 0.07938 -0.19926 2.67534 0.000 0.000 0.000
v 0.09126 -0.18846 2.55186 0.000 0.000 0.000
v 0.04266 -0.18090 2.54502 0.000 0.000 0.000
v 0.07110 -0.15984 2.45070 0.000 0.000 0.000
v 0.11628 -0.16632 2.46456 0.000 0.000 0.000
v 0.13644 -0.14850 2.56752 0.000 0.000 0.000
v 0.15732 -0.14490 2.38518 0.000 0.000 0.000
v 0.17262 -0.11196 2.40714 0.000 0.000 0.000
v 0.15066 -0.13158 2.48292 0.000 0.000 0.000
v 0.19710 -0.09612 2.35836 0.000 0.000 0.000
v 0.18864 -0.12114 2.34270 0.000 0.000 0.000
v 0.17226 -0.10998 2.33172 0.000 0.000 0.000
v 0.23490 -0.07650 2.29734 0.000 0.000 0.000
v 0.13428 -0.13536 2.36286 0.000 0.000 0.000
v 0.11952 -0.12798 2.35890 0.000 0.000 0.000
v 0.16038 -0.10260 2.31408 0.000 0.000 0.000
v 0.03168 -0.19098 2.67210 0.000 0.000 0.000
v 0.03312 -0.18576 2.75004 0.000 0.000 0.000
v 0.03420 -0.17262 2.80872 0.000 0.000 0.000
v 0.03492 -0.13986 2.85390 0.000 0.000 0.000
v 0.18864 0.12114 2.34270 0.000 0.000 0.000
v 0.23490 0.07650 2.29734 0.000 0.000 0.000
v 0.17226 0.10998 2.33172 0.000 0.000 0.000
v 0.15732 0.14490 2.38518 0.000 0.000 0.000
v 0.13428 0.13536 2.36286 0.000 0.000 0.000
v 0.11628 0.16632 2.46456 0.000 0.000 0.000
v 0.07110 0.15984 2.45070 0.000 0.000 0.000
v 0.17262 0.11196 2.40714 0.000 0.000 0.000
v 0.15066 0.13158 2.48292 0.000 0.000 0.000
v 0.19710 0.09612 2.35836 0.000 0.000 0.000
v 0.09126 0.18846 2.55186 0.000 0.000 0.000
v 0.13644 0.14850 2.56752 0.000 0.000 0.000
v 0.04266 0.18090 2.54502 0.000 0.000 0.000
v 0.07938 0.19926 2.67534 0.000 0.000 0.000
v 0.12276 0.17586 2.68362 0.000 0.000 0.000
v 0.12222 0.17838 2.74734 0.000 0.000 0.000
v 0.08262 0.19026 2.74860 0.000 0.000 0.000
v 0.15048 0.14922 2.81286 0.000 0.000 0.000
v 0.08172 0.16902 2.80998 0.000 0.000 0.000
v 0.15696 0.15480 2.74860 0.000 0.000 0.000
v 0.13968 0.12384 2.85984 0.000 0.000 0.000
v 0.07398 0.14094 2.85516 0.000 0.000 0.000
v 0.06912 0.12582 2.87514 0.000 0.000 0.000
v 0.12618 0.10494 2.87892 0.000 0.000 0.000
v 0.10008 0.07326 2.90214 0.000 0.000 0.000
v 0.06066 0.09234 2.89386 0.000 0.000 0.000
v 0.03060 0.00000 2.90700 0.000 0.000 0.000
v 0.15624 0.14760 2.68740 0.000 0.000 0.000
v 0.03186 0.09954 2.88504 0.000 0.000 0.000
v 0.03420 0.17262 2.80872 0.000 0.000 0.000
v 0.03312 0.18576 2.75004 0.000 0.000 0.000
v 0.03168 0.19098 2.67210 0.000 0.000 0.000
v 0.03492 0.13986 2.85390 0.000 0.000 0.000
v 0.07938 -0.19926 2.67534 0.000 0.000 0.000
v 0.13590 -0.14400 2.67516 0.000 0.000 0.000
v 0.08262 -0.19026 2.74860 0.000 0.000 0.000
v 0.07740 -0.18684 2.60514 0.000 0.000 0.000
v 0.14040 -0.14400 2.73780 0.000 0.000 0.000
v 0.08172 -0.16902 2.80998 0.000 0.000 0.000
v 0.12690 -0.14220 2.59200 0.000 0.000 0.000
v 0.12240 -0.13680 2.53980 0.000 0.000 0.000
v 0.08280 -0.17910 2.53800 0.000 0.000 0.000
v 0.12600 -0.13248 2.48562 0.000 0.000 0.000
v 0.09540 -0.15984 2.45880 0.000 0.000 0.000
v 0.13320 -0.12582 2.42334 0.000 0.000 0.000
v 0.11754 -0.15210 2.41632 0.000 0.000 0.000
v 0.14580 -0.11340 2.36286 0.000 0.000 0.000
v 0.13680 -0.13050 2.79882 0.000 0.000 0.000
v 0.12420 -0.10314 2.84760 0.000 0.000 0.000
v 0.07380 -0.13896 2.85336 0.000 0.000 0.000
v 0.08262 0.19026 2.74860 0.000 0.000 0.000
v 0.13590 0.14400 2.67516 0.000 0.000 0.000
v 0.07938 0.19926 2.67534 0.000 0.000 0.000
v 0.07740 0.18684 2.60514 0.000 0.000 0.000
v 0.14040 0.14400 2.73780 0.000 0.000 0.000
v 0.08172 0.16902 2.80998 0.000 0.000 0.000
v 0.12690 0.14220 2.59200 0.000 0.000 0.000
v 0.12240 0.13680 2.53980 0.000 0.000 0.000
v 0.08280 0.17910 2.53800 0.000 0.000 0.000
v 0.12600 0.13248 2.48562 0.000 0.000 0.000
v 0.09540 0.15984 2.45880 0.000 0.000 0.000
v 0.13320 0.12582 2.42334 0.000 0.000 0.000
v 0.11754 0.15210 2.41632 0.000 0.000 0.000
v 0.14580 0.11340 2.36286 0.000 0.000 0.000
v 0.13680 0.13050 2.79882 0.000 0.000 0.000
v 0.12420 0.10314 2.84760 0.000 0.000 0.000
v 0.07380 0.13896 2.85336 0.000 0.000 0.000
v -0.02790 -0.04914 2.90214 0.000 0.000 0.000
v -0.03240 -0.10152 2.88234 0.000 0.000 0.000
v 0.00000 -0.10044 2.88558 0.000 0.000 0.000
v 0.00000 -0.04806 2.90430 0.000 0.000 0.000
v 0.00000 0.00000 2.90790 0.000 0.000 0.000
v -0.03852 -0.14454 2.85084 0.000 0.000 0.000
v 0.00000 -0.14220 2.85084 0.000 0.000 0.000
v -0.04392 -0.17226 2.80980 0.000 0.000 0.000
v 0.00000 -0.16812 2.80980 0.000 0.000 0.000
v -0.05328 -0.19836 2.75850 0.000 0.000 0.000
v 0.00000 -0.18522 2.75490 0.000 0.000 0.000
v -0.00720 -0.19476 2.67030 0.000 0.000 0.000
v -0.06516 -0.21294 2.66598 0.000 0.000 0.000
v -0.01116 -0.21456 2.48886 0.000 0.000 0.000
v -0.00018 -0.20142 2.49858 0.000 0.000 0.000
v 0.00288 -0.17946 2.62710 0.000 0.000 0.000
v 0.03654 -0.20196 2.40570 0.000 0.000 0.000
v -0.02754 -0.19872 2.47698 0.000 0.000 0.000
v 0.03186 -0.22140 2.40372 0.000 0.000 0.000
v 0.07686 -0.19062 2.34810 0.000 0.000 0.000
v 0.07722 -0.20178 2.34432 0.000 0.000 0.000
v 0.02106 -0.20700 2.39346 0.000 0.000 0.000
v 0.07272 -0.19584 2.33784 0.000 0.000 0.000
v 0.09468 -0.19188 2.31498 0.000 0.000 0.000
v 0.10206 -0.18522 2.31930 0.000 0.000 0.000
v 0.11754 -0.17514 2.29788 0.000 0.000 0.000
v 0.11124 -0.17784 2.29806 0.000 0.000 0.000
v 0.12384 -0.16452 2.28420 0.000 0.000 0.000
v -0.00018 0.20142 2.49858 0.000 0.000 0.000
v 0.03654 0.20196 2.40570 0.000 0.000 0.000
v -0.01116 0.21456 2.48886 0.000 0.000 0.000
v 0.03186 0.22140 2.40372 0.000 0.000 0.000
v 0.07686 0.19062 2.34810 0.000 0.000 0.000
v 0.07722 0.20178 2.34432 0.000 0.000 0.000
v 0.02106 0.20700 2.39346 0.000 0.000 0.000
v -0.02754 0.19872 2.47698 0.000 0.000 0.000
v 0.07272 0.19584 2.33784 0.000 0.000 0.000
v 0.09468 0.19188 2.31498 0.000 0.000 0.000
v 0.10206 0.18522 2.31930 0.000 0.000 0.000
v 0.11754 0.17514 2.29788 0.000 0.000 0.000
v 0.11124 0.17784 2.29806 0.000 0.000 0.000
v 0.12384 0.16452 2.28420 0.000 0.000 0.000
v -0.00810 0.19476 2.66760 0.000 0.000 0.000
v 0.00288 0.17946 2.62710 0.000 0.000 0.000
v -0.06516 0.21294 2.66598 0.000 0.000 0.000
v -0.05328 0.19836 2.75850 0.000 0.000 0.000
v 0.00000 0.18522 2.75490 0.000 0.000 0.000
v 0.00000 0.16812 2.80980 0.000 0.000 0.000
v -0.04392 0.17226 2.80980 0.000 0.000 0.000
v 0.00000 0.14220 2.85084 0.000 0.000 0.000
v -0.03852 0.14454 2.85084 0.000 0.000 0.000
v 0.00000 0.10044 2.88558 0.000 0.000 0.000
v -0.03240 0.10152 2.88234 0.000 0.000 0.000
v -0.02790 0.04914 2.90214 0.000 0.000 0.000
v 0.00000 0.04806 2.90430 0.000 0.000 0.000
v 0.00000 0.00000 2.90790 0.000 0.000 0.000
v 0.16038 0.10260 2.31408 0.000 0.000 0.000
v 0.11952 0.12798 2.35890 0.000 0.000 0.000
v 0.15444 -0.15210 2.69100 0.000 0.000 0.000
v 0.16938 0.12312 2.69154 0.000 0.000 0.000
v 0.15714 0.13734 2.68956 0.000 0.000 0.000
v 0.15696 0.15480 2.74860 0.000 0.000 0.000
v 0.15750 0.10890 2.63880 0.000 0.000 0.000
v 0.17100 0.12798 2.74860 0.000 0.000 0.000
v 0.15048 0.14922 2.81286 0.000 0.000 0.000
v 0.19134 0.09900 2.74860 0.000 0.000 0.000
v 0.19008 0.09144 2.81556 0.000 0.000 0.000
v 0.13968 0.12384 2.85984 0.000 0.000 0.000
v 0.17442 0.07272 2.86164 0.000 0.000 0.000
v 0.12618 0.10494 2.87892 0.000 0.000 0.000
v 0.12870 0.05040 2.89368 0.000 0.000 0.000
v 0.10008 0.07326 2.90214 0.000 0.000 0.000
v 0.03060 0.00000 2.90700 0.000 0.000 0.000
v 0.18720 0.09540 2.69280 0.000 0.000 0.000
v 0.17154 0.11880 2.69190 0.000 0.000 0.000
v 0.16092 0.10602 2.64384 0.000 0.000 0.000
v 0.17748 0.08280 2.64384 0.000 0.000 0.000
v 0.20772 -0.04734 2.68956 0.000 0.000 0.000
v 0.19404 -0.05472 2.66976 0.000 0.000 0.000
v 0.20088 -0.04482 2.67336 0.000 0.000 0.000
v 0.18846 -0.04050 2.66076 0.000 0.000 0.000
v 0.19800 -0.06426 2.68722 0.000 0.000 0.000
v 0.21204 -0.05256 2.72070 0.000 0.000 0.000
v 0.20106 -0.07452 2.71800 0.000 0.000 0.000
v 0.20016 -0.08136 2.75490 0.000 0.000 0.000
v 0.21042 -0.05436 2.74860 0.000 0.000 0.000
v 0.20394 -0.05562 2.81412 0.000 0.000 0.000
v 0.18990 -0.07902 2.81304 0.000 0.000 0.000
v 0.17460 -0.06678 2.85606 0.000 0.000 0.000
v 0.18594 -0.05220 2.85606 0.000 0.000 0.000
v 0.14274 -0.04104 2.88198 0.000 0.000 0.000
v 0.20304 -0.03978 2.66922 0.000 0.000 0.000
v 0.19638 -0.03150 2.64834 0.000 0.000 0.000
v 0.20250 0.02304 2.64852 0.000 0.000 0.000
v 0.22050 0.02970 2.69280 0.000 0.000 0.000
v 0.21006 -0.04446 2.69262 0.000 0.000 0.000
v 0.22428 0.03366 2.74842 0.000 0.000 0.000
v 0.21042 -0.05436 2.74860 0.000 0.000 0.000
v 0.21510 0.02592 2.81628 0.000 0.000 0.000
v 0.19908 -0.05562 2.81412 0.000 0.000 0.000
v 0.18594 -0.05220 2.85606 0.000 0.000 0.000
v 0.19134 0.01800 2.86002 0.000 0.000 0.000
v 0.15174 0.00540 2.89152 0.000 0.000 0.000
v 0.14274 -0.04104 2.88198 0.000 0.000 0.000
v 0.10062 0.00000 2.90430 0.000 0.000 0.000
v 0.03060 0.00000 2.90700 0.000 0.000 0.000
v 0.21366 0.06030 2.74860 0.000 0.000 0.000
v 0.19656 0.05940 2.69280 0.000 0.000 0.000
v 0.19134 0.09900 2.74860 0.000 0.000 0.000
v 0.19008 0.09144 2.81556 0.000 0.000 0.000
v 0.20754 0.05436 2.81592 0.000 0.000 0.000
v 0.17442 0.07272 2.86164 0.000 0.000 0.000
v 0.18666 0.04122 2.86074 0.000 0.000 0.000
v 0.21510 0.02592 2.81628 0.000 0.000 0.000
v 0.22428 0.03366 2.74842 0.000 0.000 0.000
v 0.22050 0.02970 2.69280 0.000 0.000 0.000
v 0.19782 0.04986 2.69280 0.000 0.000 0.000
v 0.18720 0.09000 2.69280 0.000 0.000 0.000
v 0.18666 0.05796 2.65068 0.000 0.000 0.000
v 0.17748 0.07200 2.64780 0.000 0.000 0.000
v 0.19026 0.04032 2.65428 0.000 0.000 0.000
v 0.19890 0.02916 2.65032 0.000 0.000 0.000
v 0.14562 0.02286 2.89332 0.000 0.000 0.000
v 0.12870 0.05040 2.89368 0.000 0.000 0.000
v 0.19134 0.01800 2.86002 0.000 0.000 0.000
v 0.10062 0.00000 2.90430 0.000 0.000 0.000
v 0.03060 0.00000 2.90700 0.000 0.000 0.000
v 0.15174 0.00540 2.89152 0.000 0.000 0.000
v 0.17802 -0.12600 2.69280 0.000 0.000 0.000
v 0.17100 -0.12546 2.65320 0.000 0.000 0.000
v 0.19530 -0.11214 2.69280 0.000 0.000 0.000
v 0.18036 -0.11394 2.66040 0.000 0.000 0.000
v 0.18936 -0.10116 2.69280 0.000 0.000 0.000
v 0.19476 -0.09324 2.74860 0.000 0.000 0.000
v 0.19782 -0.11484 2.74860 0.000 0.000 0.000
v 0.19386 -0.10746 2.81340 0.000 0.000 0.000
v 0.17910 -0.13140 2.74860 0.000 0.000 0.000
v 0.14850 -0.14778 2.81286 0.000 0.000 0.000
v 0.15696 -0.15498 2.74860 0.000 0.000 0.000
v 0.13050 -0.12834 2.85984 0.000 0.000 0.000
v 0.17118 -0.09306 2.85984 0.000 0.000 0.000
v 0.11304 -0.10584 2.88414 0.000 0.000 0.000
v 0.12222 -0.06156 2.89782 0.000 0.000 0.000
v 0.09108 -0.08154 2.90034 0.000 0.000 0.000
v 0.03060 0.00000 2.90700 0.000 0.000 0.000
v 0.14274 -0.04104 2.88198 0.000 0.000 0.000
v 0.17460 -0.06678 2.85606 0.000 0.000 0.000
v 0.19278 -0.08082 2.80494 0.000 0.000 0.000
v 0.15444 -0.15210 2.69100 0.000 0.000 0.000
v 0.17496 -0.12798 2.69280 0.000 0.000 0.000
v 0.14490 -0.14184 2.63970 0.000 0.000 0.000
v 0.16830 -0.12978 2.65140 0.000 0.000 0.000
v 0.09774 0.20880 2.75616 0.000 0.000 0.000
v 0.07308 0.22086 2.72196 0.000 0.000 0.000
v 0.07200 0.24768 2.73510 0.000 0.000 0.000
v 0.09360 0.23688 2.76498 0.000 0.000 0.000
v 0.09288 0.22860 2.80260 0.000 0.000 0.000
v 0.09684 0.19944 2.79900 0.000 0.000 0.000
v 0.05760 0.19368 2.73096 0.000 0.000 0.000
v 0.07596 0.18468 2.75634 0.000 0.000 0.000
v 0.02448 0.18198 2.77164 0.000 0.000 0.000
v 0.07524 0.17802 2.78838 0.000 0.000 0.000
v 0.07506 0.25704 2.75130 0.000 0.000 0.000
v 0.07812 0.26316 2.77578 0.000 0.000 0.000
v 0.08784 0.24552 2.79288 0.000 0.000 0.000
v 0.03690 0.25668 2.72412 0.000 0.000 0.000
v 0.03204 0.23130 2.70954 0.000 0.000 0.000
v 0.02682 0.20142 2.72178 0.000 0.000 0.000
v 0.06102 0.26226 2.73978 0.000 0.000 0.000
v 0.04122 0.27684 2.74536 0.000 0.000 0.000
v -0.00954 0.23580 2.72394 0.000 0.000 0.000
v 0.00144 0.26046 2.73672 0.000 0.000 0.000
v -0.03528 0.23292 2.75940 0.000 0.000 0.000
v -0.02106 0.25776 2.76786 0.000 0.000 0.000
v -0.02160 0.24930 2.80548 0.000 0.000 0.000
v -0.03564 0.22356 2.80224 0.000 0.000 0.000
v -0.01080 0.21132 2.83608 0.000 0.000 0.000
v 0.00036 0.23850 2.83518 0.000 0.000 0.000
v 0.03492 0.22968 2.84580 0.000 0.000 0.000
v 0.02988 0.20106 2.84814 0.000 0.000 0.000
v 0.02538 0.17928 2.82492 0.000 0.000 0.000
v -0.00486 0.18702 2.81592 0.000 0.000 0.000
v -0.00414 0.20484 2.73240 0.000 0.000 0.000
v -0.02322 0.20268 2.75886 0.000 0.000 0.000
v -0.02358 0.19584 2.79072 0.000 0.000 0.000
v 0.00288 0.27018 2.75310 0.000 0.000 0.000
v 0.00324 0.27666 2.77758 0.000 0.000 0.000
v -0.01134 0.26352 2.79522 0.000 0.000 0.000
v -0.00504 0.25794 2.81484 0.000 0.000 0.000
v 0.01908 0.26262 2.82726 0.000 0.000 0.000
v 0.02934 0.24624 2.83914 0.000 0.000 0.000
v 0.07092 0.19656 2.83410 0.000 0.000 0.000
v 0.07002 0.22590 2.83356 0.000 0.000 0.000
v 0.05598 0.17586 2.81448 0.000 0.000 0.000
v 0.08082 0.24246 2.81268 0.000 0.000 0.000
v 0.06066 0.25506 2.82636 0.000 0.000 0.000
v 0.04572 0.24318 2.83878 0.000 0.000 0.000
v 0.01710 0.27018 2.74086 0.000 0.000 0.000
v 0.00036 0.23850 2.83518 0.000 0.000 0.000
v 0.04140 0.26838 2.79018 0.000 0.000 0.000
v 0.03492 0.22968 2.84580 0.000 0.000 0.000
v -0.02160 0.24930 2.80548 0.000 0.000 0.000
v -0.02106 0.25776 2.76786 0.000 0.000 0.000
v 0.04140 0.26838 2.79018 0.000 0.000 0.000
v 0.07200 0.24768 2.73510 0.000 0.000 0.000
v 0.09360 0.23688 2.76498 0.000 0.000 0.000
v 0.09288 0.22860 2.80260 0.000 0.000 0.000
v 0.07002 0.22590 2.83356 0.000 0.000 0.000
v 0.03492 0.22968 2.84580 0.000 0.000 0.000
v 0.04140 0.26838 2.79018 0.000 0.000 0.000
v 0.03690 0.25668 2.72412 0.000 0.000 0.000
v 0.07200 0.24768 2.73510 0.000 0.000 0.000
v 0.00144 0.26046 2.73672 0.000 0.000 0.000
v -0.02106 0.25776 2.76786 0.000 0.000 0.000
v 0.04140 0.26838 2.79018 0.000 0.000 0.000
v 0.09360 0.23688 2.76498 0.000 0.000 0.000
v 0.05580 0.26406 2.76318 0.000 0.000 0.000
v 0.05400 0.26244 2.78172 0.000 0.000 0.000
v 0.06768 0.25470 2.79486 0.000 0.000 0.000
v 0.07002 0.22590 2.83356 0.000 0.000 0.000
v 0.04842 0.25902 2.80098 0.000 0.000 0.000
v 0.03978 0.25434 2.81898 0.000 0.000 0.000
v 0.03690 0.25668 2.72412 0.000 0.000 0.000
v 0.03942 0.26712 2.77110 0.000 0.000 0.000
v 0.02160 0.26910 2.76840 0.000 0.000 0.000
v 0.03276 0.26154 2.80206 0.000 0.000 0.000
v 0.00036 0.23850 2.83518 0.000 0.000 0.000
v 0.01296 0.26280 2.80350 0.000 0.000 0.000
v 0.02160 0.26910 2.76840 0.000 0.000 0.000
v -0.02106 0.25776 2.76786 0.000 0.000 0.000
v 0.02592 0.26676 2.78370 0.000 0.000 0.000
v 0.01296 0.26280 2.80350 0.000 0.000 0.000
v 0.09360 0.23688 2.76498 0.000 0.000 0.000
v 0.07200 0.24768 2.73510 0.000 0.000 0.000
v 0.05580 0.26406 2.76318 0.000 0.000 0.000
v 0.03690 0.25668 2.72412 0.000 0.000 0.000
v 0.02160 0.26910 2.76840 0.000 0.000 0.000
v 0.00144 0.26046 2.73672 0.000 0.000 0.000
v -0.02106 0.25776 2.76786 0.000 0.000 0.000
v 0.01296 0.26280 2.80350 0.000 0.000 0.000
v -0.02160 0.24930 2.80548 0.000 0.000 0.000
v 0.00036 0.23850 2.83518 0.000 0.000 0.000
v 0.03492 0.22968 2.84580 0.000 0.000 0.000
v 0.03978 0.25434 2.81898 0.000 0.000 0.000
v 0.07002 0.22590 2.83356 0.000 0.000 0.000
v 0.09288 0.22860 2.80260 0.000 0.000 0.000
v 0.06768 0.25470 2.79486 0.000 0.000 0.000
v 0.02142 0.20934 2.72142 0.000 0.000 0.000
v 0.02106 0.21618 2.70864 0.000 0.000 0.000
v 0.01602 0.20304 2.72268 0.000 0.000 0.000
v 0.01530 0.20970 2.71008 0.000 0.000 0.000
v 0.01566 0.20718 2.70360 0.000 0.000 0.000
v 0.02538 0.20088 2.72250 0.000 0.000 0.000
v 0.02610 0.20826 2.70972 0.000 0.000 0.000
v 0.02592 0.20790 2.70090 0.000 0.000 0.000
v 0.02088 0.21600 2.70126 0.000 0.000 0.000
v 0.01566 0.20718 2.70360 0.000 0.000 0.000
v 0.02088 0.21600 2.70126 0.000 0.000 0.000
v 0.02124 0.20736 2.70198 0.000 0.000 0.000
v 0.02592 0.20790 2.70090 0.000 0.000 0.000
v 0.02160 0.20322 2.72394 0.000 0.000 0.000
v 0.02142 0.20934 2.72142 0.000 0.000 0.000
v 0.01602 0.20304 2.72268 0.000 0.000 0.000
v 0.02538 0.20088 2.72250 0.000 0.000 0.000
v 0.01566 0.20880 2.71224 0.000 0.000 0.000
v -0.01836 0.23220 2.68722 0.000 0.000 0.000
v 0.01620 0.20322 2.72250 0.000 0.000 0.000
v -0.02790 0.23220 2.69568 0.000 0.000 0.000
v -0.03438 0.25200 2.66814 0.000 0.000 0.000
v -0.05040 0.26028 2.66796 0.000 0.000 0.000
v -0.02988 0.25542 2.64762 0.000 0.000 0.000
v -0.04662 0.25812 2.64006 0.000 0.000 0.000
v -0.01980 0.23994 2.62494 0.000 0.000 0.000
v -0.01530 0.24732 2.64618 0.000 0.000 0.000
v -0.00306 0.23076 2.66868 0.000 0.000 0.000
v -0.00018 0.21978 2.65968 0.000 0.000 0.000
v 0.01602 0.20790 2.71116 0.000 0.000 0.000
v 0.01620 0.20448 2.72088 0.000 0.000 0.000
v 0.01674 0.20790 2.70396 0.000 0.000 0.000
v 0.01872 0.23814 2.63376 0.000 0.000 0.000
v 0.01350 0.20664 2.70504 0.000 0.000 0.000
v 0.01152 0.24300 2.63268 0.000 0.000 0.000
v 0.01584 0.27972 2.53368 0.000 0.000 0.000
v 0.00990 0.28494 2.53620 0.000 0.000 0.000
v -0.00396 0.31626 2.41038 0.000 0.000 0.000
v 0.00684 0.31086 2.41182 0.000 0.000 0.000
v -0.02430 0.31734 2.32416 0.000 0.000 0.000
v -0.03186 0.32292 2.32794 0.000 0.000 0.000
v -0.05796 0.31806 2.26188 0.000 0.000 0.000
v -0.06750 0.32472 2.26026 0.000 0.000 0.000
v 0.02520 0.20142 2.72106 0.000 0.000 0.000
v 0.06102 0.20610 2.68650 0.000 0.000 0.000
v 0.02574 0.20808 2.71080 0.000 0.000 0.000
v 0.06822 0.19926 2.69262 0.000 0.000 0.000
v 0.07956 0.20808 2.66490 0.000 0.000 0.000
v 0.09450 0.19998 2.66832 0.000 0.000 0.000
v 0.08028 0.20898 2.64006 0.000 0.000 0.000
v 0.09162 0.19872 2.63520 0.000 0.000 0.000
v 0.06642 0.21546 2.64510 0.000 0.000 0.000
v 0.06444 0.20124 2.62566 0.000 0.000 0.000
v 0.04392 0.21870 2.66850 0.000 0.000 0.000
v 0.03780 0.20844 2.66112 0.000 0.000 0.000
v 0.02538 0.20790 2.70648 0.000 0.000 0.000
v 0.02520 0.20448 2.71620 0.000 0.000 0.000
v 0.02628 0.21024 2.70324 0.000 0.000 0.000
v 0.03852 0.22266 2.63700 0.000 0.000 0.000
v 0.02952 0.21006 2.70432 0.000 0.000 0.000
v 0.03132 0.22122 2.63034 0.000 0.000 0.000
v 0.03798 0.26046 2.52198 0.000 0.000 0.000
v 0.03114 0.25380 2.52018 0.000 0.000 0.000
v -0.01980 0.30744 2.39400 0.000 0.000 0.000
v -0.00882 0.31104 2.39490 0.000 0.000 0.000
v -0.07128 0.35838 2.33766 0.000 0.000 0.000
v -0.07758 0.35208 2.33946 0.000 0.000 0.000
v -0.13608 0.39528 2.30616 0.000 0.000 0.000
v -0.15156 0.38844 2.30292 0.000 0.000 0.000
vt 0.13143 0.56935
vt 0.01132 0.57323
vt 0.13143 0.98980
vt 0.01132 0.99014
vt 0.13143 0.98980
vt 0.01132 0.99014
vt 0.13143 0.98980
vt 0.13143 0.56935
vt 0.13143 0.98980
vt 0.01132 0.99014
vt 0.13143 0.98980
vt 0.13143 0.56935
vt 0.13143 0.98980
vt 0.01132 0.99014
vt 0.13143 0.98980
vt 0.13143 0.56935
vt 0.13143 0.98980
vt 0.18568 0.57172
vt 0.17062 0.57376
vt 0.15442 0.97518
vt 0.17062 0.57376
vt 0.15031 0.57449
vt 0.15031 0.57449
vt 0.17062 0.57376
vt 0.18568 0.57172
vt 0.17062 0.57376
vt 0.18568 0.57172
vt 0.15442 0.97518
vt 0.17062 0.57376
vt 0.17062 0.57376
vt 0.15031 0.57449
vt 0.15031 0.57449
vt 0.17062 0.57376
vt 0.18568 0.57172
vt 0.17062 0.57376
vt 0.18568 0.57172
vt 0.17062 0.57376
vt 0.15442 0.97518
vt 0.17062 0.57376
vt 0.15031 0.57449
vt 0.15031 0.57449
vt 0.17062 0.57376
vt 0.18568 0.57172
vt 0.17062 0.57376
vt 0.17062 0.57376
vt 0.18568 0.57172
vt 0.15442 0.97518
vt 0.17062 0.57376
vt 0.15031 0.57449
vt 0.15031 0.57449
vt 0.17062 0.57376
vt 0.18568 0.57172
vt 0.17062 0.57376
vt 0.87776 0.69822
vt 0.87776 0.78541
vt 0.73028 0.69822
vt 0.98152 0.69822
vt 0.73028 0.77696
vt 0.61003 0.69822
vt 0.98152 0.81186
vt 0.61003 0.81186
vt 0.73028 0.81186
vt 0.50508 0.81186
vt 0.50508 0.69822
vt 0.39814 0.81186
vt 0.39814 0.69822
vt 0.31626 0.81186
vt 0.20718 0.69822
vt 0.20718 0.81186
vt 0.29494 0.81186
vt 0.39814 0.69822
vt 0.39814 0.81186
vt 0.50508 0.69822
vt 0.50508 0.81186
vt 0.61003 0.69822
vt 0.61003 0.81186
vt 0.73028 0.69822
vt 0.73028 0.81186
vt 0.98152 0.69822
vt 0.98152 0.81186
vt 0.87776 0.81186
vt 0.79799 0.01403
vt 0.69102 0.02777
vt 0.81109 0.18749
vt 0.69286 0.23421
vt 0.54746 0.03827
vt 0.53276 0.25929
vt 0.45207 0.04134
vt 0.46392 0.24898
vt 0.39408 0.23645
vt 0.39324 0.03903
vt 0.32489 0.04471
vt 0.32187 0.22390
vt 0.27179 0.04021
vt 0.26629 0.21365
vt 0.17785 0.04041
vt 0.17447 0.19735
vt 0.12177 0.18918
vt 0.12497 0.03685
vt 0.07095 0.04315
vt 0.04672 0.16423
vt 0.02339 0.05561
vt 0.69524 0.29167
vt 0.80471 0.28727
vt 0.83825 0.24283
vt 0.85325 0.02179
vt 0.85783 0.18276
vt 0.89367 0.17615
vt 0.89267 0.04197
vt 0.93083 0.05974
vt 0.92541 0.15331
vt 0.95550 0.12963
vt 0.95420 0.07802
vt 0.98560 0.09678
vt 0.07430 0.25780
vt 0.01558 0.14555
vt 0.09593 0.09894
vt 0.10618 0.25351
vt 0.17447 0.08224
vt 0.17560 0.26678
vt 0.26773 0.26617
vt 0.27254 0.06369
vt 0.39704 0.03413
vt 0.39594 0.27248
vt 0.53641 0.04042
vt 0.53282 0.28490
vt 0.70229 0.28490
vt 0.70308 0.01964
vt 0.80375 0.14655
vt 0.80131 0.25760
vt 0.80734 0.03819
vt 0.85919 0.04114
vt 0.85522 0.14715
vt 0.85324 0.26843
vt 0.88192 0.15011
vt 0.88235 0.25573
vt 0.88836 0.06126
vt 0.90734 0.16022
vt 0.90976 0.24386
vt 0.93509 0.15675
vt 0.93785 0.23318
vt 0.91431 0.08123
vt 0.94032 0.11522
vt 0.97002 0.12406
vt 0.97431 0.21732
vt 0.99823 0.15740
vt 0.80846 0.05371
vt 0.69611 0.25181
vt 0.70218 0.02068
vt 0.80379 0.25013
vt 0.49714 0.25776
vt 0.50499 0.01963
vt 0.40284 0.02602
vt 0.38788 0.26454
vt 0.29588 0.02835
vt 0.85537 0.24961
vt 0.86323 0.08279
vt 0.88567 0.24418
vt 0.89429 0.09579
vt 0.91400 0.23779
vt 0.92260 0.11528
vt 0.94036 0.22778
vt 0.95036 0.14703
vt 0.98655 0.18936
vt 0.29305 0.27162
vt 0.17960 0.27192
vt 0.19752 0.04277
vt 0.11085 0.25654
vt 0.12061 0.04489
vt 0.08484 0.05293
vt 0.06551 0.22395
vt 0.00669 0.11013
vt 0.23171 0.25405
vt 0.22854 0.05753
vt 0.30624 0.04390
vt 0.18332 0.25783
vt 0.30826 0.26300
vt 0.39682 0.26891
vt 0.39434 0.03293
vt 0.50689 0.28095
vt 0.49309 0.02028
vt 0.69681 0.05738
vt 0.70543 0.24932
vt 0.80567 0.14394
vt 0.80178 0.06013
vt 0.81062 0.22567
vt 0.86176 0.21849
vt 0.85646 0.13861
vt 0.85292 0.04698
vt 0.88277 0.13384
vt 0.88182 0.05384
vt 0.89030 0.20049
vt 0.90774 0.12378
vt 0.90903 0.06023
vt 0.93517 0.12378
vt 0.93690 0.06566
vt 0.91565 0.18291
vt 0.94088 0.15472
vt 0.97008 0.14524
vt 0.97311 0.07424
vt 0.99749 0.11735
vt 0.69495 0.29312
vt 0.68402 0.05166
vt 0.80291 0.28114
vt 0.80704 0.08317
vt 0.46667 0.02832
vt 0.47082 0.26215
vt 0.35672 0.27032
vt 0.34072 0.01186
vt 0.23380 0.27892
vt 0.86352 0.09581
vt 0.86277 0.26586
vt 0.89631 0.11151
vt 0.89657 0.26314
vt 0.92668 0.12897
vt 0.92800 0.25478
vt 0.95453 0.15019
vt 0.95980 0.23480
vt 0.99200 0.20000
vt 0.23392 0.03765
vt 0.14109 0.04278
vt 0.14755 0.25626
vt 0.06376 0.04778
vt 0.07660 0.25340
vt 0.00886 0.05935
vt 0.09146 0.22638
vt 0.01844 0.09341
vt 0.08056 0.06123
vt 0.14502 0.05299
vt 0.13491 0.24353
vt 0.99121 0.59176
vt 0.74559 0.58742
vt 0.98362 0.78431
vt 0.74258 0.78955
vt 0.75022 0.97860
vt 0.98463 0.97109
vt 0.98362 0.78431
vt 0.74258 0.78955
vt 0.96176 0.97585
vt 0.76662 0.98127
vt 0.97883 0.78426
vt 0.75444 0.78070
vt 0.98521 0.57553
vt 0.75269 0.58305
vt 0.75444 0.78070
vt 0.97883 0.78426
vt 0.96717 0.94634
vt 0.94001 0.76606
vt 0.93221 0.80414
vt 0.93471 0.59578
vt 0.92776 0.81764
vt 0.88867 0.77658
vt 0.90144 0.60575
vt 0.88557 0.77624
vt 0.91318 0.95071
vt 0.87244 0.75267
vt 0.88376 0.89556
vt 0.67684 0.96675
vt 0.68799 0.89966
vt 0.69941 0.81453
vt 0.90672 0.80114
vt 0.89823 0.71725
vt 0.69809 0.74505
vt 0.71863 0.58444
vt 0.86971 0.58295
vt 0.88376 0.89556
vt 0.67684 0.96675
vt 0.68799 0.89966
vt 0.69941 0.81453
vt 0.90672 0.80114
vt 0.89823 0.71725
vt 0.69809 0.74505
vt 0.71863 0.58444
vt 0.86971 0.58295
vt 0.33171 0.24983
vt 0.26717 0.03155
vt 0.33049 0.02058
vt 0.25105 0.24173
vt 0.40645 0.26177
vt 0.41084 0.01961
vt 0.51489 0.01229
vt 0.51111 0.28005
vt 0.61975 0.28982
vt 0.62647 0.01877
vt 0.74053 0.02215
vt 0.17722 0.04902
vt 0.17710 0.23248
vt 0.10405 0.21779
vt 0.09827 0.07296
vt 0.04556 0.08737
vt 0.04903 0.20263
vt 0.00842 0.15229
vt 0.74287 0.28692
vt 0.81353 0.28743
vt 0.81277 0.02748
vt 0.87051 0.04453
vt 0.86962 0.29044
vt 0.90415 0.26989
vt 0.90358 0.03807
vt 0.93286 0.03760
vt 0.93328 0.23404
vt 0.96405 0.17163
vt 0.96349 0.01891
vt 0.99538 0.08590
vt 0.97600 0.22400
vt 0.82685 0.28671
vt 0.82374 0.15567
vt 0.73311 0.15315
vt 0.73542 0.27926
vt 0.06400 0.24000
vt 0.79915 0.98629
vt 0.71878 0.93963
vt 0.71741 0.98629
vt 0.82167 0.93963
vt 0.91177 0.93963
vt 0.92133 0.98629
vt 0.72111 0.83017
vt 0.89703 0.82973
vt 0.98676 0.92212
vt 0.71748 0.76529
vt 0.87858 0.76419
vt 0.70570 0.69764
vt 0.85733 0.69969
vt 0.70792 0.65634
vt 0.82926 0.65547
vt 0.77161 0.61443
vt 0.71503 0.61865
vt 0.71399 0.56546
vt 0.80865 0.61060
vt 0.96816 0.98629
vt 0.97010 0.93963
vt 0.83818 0.98629
vt 0.82128 0.93963
vt 0.67656 0.93963
vt 0.65803 0.98629
vt 0.97338 0.83017
vt 0.74339 0.82914
vt 0.55058 0.92174
vt 0.96826 0.76529
vt 0.74087 0.76316
vt 0.95166 0.69764
vt 0.77035 0.69808
vt 0.95478 0.65634
vt 0.78806 0.66123
vt 0.87639 0.62414
vt 0.96481 0.61865
vt 0.81374 0.62795
vt 0.83630 0.60364
vt 0.89268 0.58610
vt 0.96334 0.56546
vt 0.76941 0.78094
vt 0.66417 0.69655
vt 0.82451 0.61708
vt 0.88386 0.70920
vt 0.88281 0.81367
vt 0.69163 0.85776
vt 0.85309 0.79398
vt 0.79716 0.84869
vt 0.73271 0.76803
vt 0.85389 0.71444
vt 0.65044 0.82582
vt 0.79066 0.64375
vt 0.62082 0.70280
vt 0.80919 0.75293
vt 0.86939 0.84557
vt 0.92191 0.78208
vt 0.92283 0.69029
vt 0.75186 0.82076
vt 0.88362 0.60975
vt 0.72438 0.67901
vt 0.72705 0.78702
vt 0.67380 0.84288
vt 0.61256 0.76082
vt 0.72786 0.70595
vt 0.53426 0.81988
vt 0.66776 0.63404
vt 0.50617 0.69458
vt 0.72973 0.76464
vt 0.79418 0.84530
vt 0.85012 0.79059
vt 0.85091 0.71105
vt 0.66868 0.82307
vt 0.80889 0.64100
vt 0.63906 0.70006
vt 0.72367 0.78440
vt 0.65373 0.83713
vt 0.57275 0.75813
vt 0.72444 0.70704
vt 0.46983 0.81363
vt 0.64502 0.63775
vt 0.43237 0.69374
vt 0.58789 0.76174
vt 0.64533 0.85049
vt 0.69544 0.78966
vt 0.69632 0.70171
vt 0.53320 0.82674
vt 0.65891 0.62455
vt 0.50699 0.69093
vt 0.66991 0.78469
vt 0.60061 0.84721
vt 0.52086 0.73180
vt 0.67083 0.69354
vt 0.41869 0.82059
vt 0.59236 0.61237
vt 0.38185 0.67955
vt 0.53569 0.75893
vt 0.61363 0.85447
vt 0.68125 0.78975
vt 0.68219 0.69557
vt 0.46189 0.82807
vt 0.63137 0.61261
vt 0.42605 0.68240
vt 0.54132 0.77244
vt 0.49084 0.83014
vt 0.43330 0.70391
vt 0.54216 0.68889
vt 0.35866 0.80679
vt 0.48529 0.61493
vt 0.33215 0.67773
vt 0.43327 0.70538
vt 0.49278 0.83654
vt 0.54501 0.77540
vt 0.54589 0.68692
vt 0.37584 0.81252
vt 0.50686 0.60924
vt 0.34846 0.67586
vt 0.48496 0.78063
vt 0.43636 0.84330
vt 0.38075 0.75210
vt 0.48587 0.69015
vt 0.30933 0.81851
vt 0.43129 0.61027
vt 0.28400 0.67884
vt 0.38146 0.75135
vt 0.43830 0.84002
vt 0.48791 0.77922
vt 0.48880 0.69133
vt 0.32731 0.81631
vt 0.45177 0.61423
vt 0.30138 0.68061
vt 0.42113 0.72876
vt 0.30383 0.77355
vt 0.35681 0.83979
vt 0.30474 0.68241
vt 0.49932 0.82304
vt 0.36744 0.60553
vt 0.53059 0.68407
vt 0.33768 0.84608
vt 0.28302 0.77764
vt 0.40379 0.75492
vt 0.28396 0.68346
vt 0.46348 0.82812
vt 0.32745 0.60337
vt 0.49575 0.68452
vt 0.51114 0.70628
vt 0.37681 0.76743
vt 0.43759 0.82852
vt 0.37765 0.68388
vt 0.60060 0.81415
vt 0.44922 0.61384
vt 0.63606 0.68697
vt 0.44820 0.83519
vt 0.39723 0.77090
vt 0.51030 0.70772
vt 0.39811 0.68242
vt 0.56555 0.81829
vt 0.43868 0.60717
vt 0.59565 0.68338
vt 0.56381 0.75767
vt 0.41463 0.77849
vt 0.48236 0.84470
vt 0.41554 0.68801
vt 0.66397 0.82929
vt 0.49525 0.61221
vt 0.70344 0.69159
vt 0.48547 0.84146
vt 0.42143 0.77719
vt 0.56253 0.75686
vt 0.42231 0.68931
vt 0.63246 0.82559
vt 0.47295 0.61488
vt 0.66983 0.69182
vt 0.42113 0.72876
vt 0.30383 0.77355
vt 0.35681 0.83979
vt 0.30474 0.68241
vt 0.49932 0.82304
vt 0.36744 0.60553
vt 0.53059 0.68407
vt 0.33768 0.84608
vt 0.28302 0.77764
vt 0.40379 0.75492
vt 0.28396 0.68346
vt 0.46348 0.82812
vt 0.32745 0.60337
vt 0.49575 0.68452
vt 0.43869 0.82855
vt 0.51107 0.70628
vt 0.37891 0.76750
vt 0.37975 0.68395
vt 0.59905 0.81410
vt 0.45017 0.61387
vt 0.63396 0.68691
vt 0.37452 0.77021
vt 0.51344 0.70782
vt 0.43736 0.83486
vt 0.37540 0.68173
vt 0.58165 0.81878
vt 0.42513 0.60676
vt 0.61836 0.68407
vt 0.50445 0.84538
vt 0.56185 0.75761
vt 0.45713 0.77978
vt 0.45804 0.68930
vt 0.63190 0.82832
vt 0.51419 0.61279
vt 0.66000 0.69027
vt 0.50257 0.84198
vt 0.45421 0.77819
vt 0.56116 0.75681
vt 0.45509 0.69030
vt 0.61397 0.82503
vt 0.49363 0.61550
vt 0.64261 0.69099
vt 0.35681 0.83979
vt 0.42113 0.72876
vt 0.30383 0.77355
vt 0.30474 0.68241
vt 0.49932 0.82304
vt 0.36744 0.60553
vt 0.53059 0.68407
vt 0.28302 0.77764
vt 0.40379 0.75492
vt 0.33768 0.84608
vt 0.28396 0.68346
vt 0.46348 0.82812
vt 0.32745 0.60337
vt 0.49575 0.68452
vt 0.45027 0.82891
vt 0.51030 0.70625
vt 0.40097 0.76817
vt 0.40181 0.68462
vt 0.58283 0.81361
vt 0.46013 0.61417
vt 0.61191 0.68624
vt 0.39723 0.77090
vt 0.51030 0.70772
vt 0.44820 0.83519
vt 0.39811 0.68242
vt 0.56555 0.81829
vt 0.43868 0.60717
vt 0.59565 0.68338
vt 0.50445 0.84538
vt 0.56185 0.75761
vt 0.45713 0.77978
vt 0.45804 0.68930
vt 0.63190 0.82832
vt 0.51419 0.61279
vt 0.66000 0.69027
vt 0.45421 0.77819
vt 0.56116 0.75681
vt 0.50257 0.84198
vt 0.45509 0.69030
vt 0.61397 0.82503
vt 0.49363 0.61550
vt 0.64261 0.69099
vt 0.96321 0.81358
vt 0.86647 0.72382
vt 0.77985 0.81358
vt 0.77808 0.65083
vt 0.96272 0.64471
vt 0.77808 0.65083
vt 0.94469 0.64614
vt 0.85205 0.62138
vt 0.76820 0.64614
vt 0.97064 0.81328
vt 0.73186 0.81328
vt 0.76820 0.64614
vt 0.85205 0.62138
vt 0.73186 0.81328
vt 0.94419 0.64048
vt 0.88926 0.61483
vt 0.83771 0.64048
vt 0.81489 0.81358
vt 0.97082 0.81358
vt 0.77985 0.81358
vt 0.86647 0.72382
vt 0.96321 0.81358
vt 0.77808 0.65083
vt 0.96272 0.64471
vt 0.77808 0.65083
vt 0.83771 0.64048
vt 0.88926 0.61483
vt 0.94419 0.64048
vt 0.81489 0.81358
vt 0.97082 0.81358
vt 0.61537 0.76569
vt 0.61537 0.71189
vt 0.53543 0.76471
vt 0.53543 0.81159
vt 0.61537 0.80927
vt 0.61537 0.92623
vt 0.53543 0.92743
vt 0.61537 0.94342
vt 0.53543 0.94509
vt 0.53543 0.95825
vt 0.61537 0.95723
vt 0.53543 0.97522
vt 0.53543 0.71209
vt 0.53543 0.67970
vt 0.61537 0.68083
vt 0.53543 0.64878
vt 0.61537 0.64902
vt 0.53543 0.61466
vt 0.98800 0.67704
vt 0.98089 0.57148
vt 0.90184 0.68051
vt 0.98140 0.76665
vt 0.89752 0.77010
vt 0.90063 0.83470
vt 0.98094 0.82998
vt 0.90039 0.89863
vt 0.98078 0.89289
vt 0.94902 0.94428
vt 0.90063 0.83470
vt 0.89752 0.77010
vt 0.98094 0.82998
vt 0.90039 0.89863
vt 0.98078 0.89289
vt 0.94902 0.94428
vt 0.90184 0.68051
vt 0.98089 0.57148
vt 0.98800 0.67704
vt 0.52675 0.90086
vt 0.52764 0.87293
vt 0.39854 0.88063
vt 0.52810 0.91433
vt 0.37324 0.84833
vt 0.54183 0.84152
vt 0.45115 0.82529
vt 0.35942 0.81108
vt 0.42440 0.90399
vt 0.46122 0.92751
vt 0.53220 0.93542
vt 0.57242 0.99303
vt 0.59952 0.94375
vt 0.44862 0.79141
vt 0.55740 0.80588
vt 0.57439 0.74359
vt 0.68315 0.76439
vt 0.67408 0.70926
vt 0.56886 0.69334
vt 0.38571 0.70944
vt 0.55186 0.64353
vt 0.40733 0.61916
vt 0.40153 0.66605
vt 0.41782 0.59046
vt 0.53714 0.61130
vt 0.58457 0.61519
vt 0.51831 0.56541
vt 0.62166 0.64988
vt 0.65865 0.65729
vt 0.64671 0.62059
vt 0.66311 0.82247
vt 0.65031 0.86271
vt 0.63345 0.89225
vt 0.61178 0.91833
vt 0.50795 0.61858
vt 0.43998 0.57213
vt 0.55674 0.61905
vt 0.53822 0.65136
vt 0.61048 0.65275
vt 0.54740 0.70108
vt 0.68825 0.71983
vt 0.43931 0.64251
vt 0.42385 0.68360
vt 0.43556 0.61146
vt 0.58224 0.75276
vt 0.39359 0.73428
vt 0.69948 0.76432
vt 0.58488 0.81854
vt 0.46701 0.80634
vt 0.45737 0.83867
vt 0.55436 0.85283
vt 0.35796 0.86123
vt 0.52753 0.88316
vt 0.35895 0.82646
vt 0.35538 0.88993
vt 0.51683 0.90990
vt 0.51333 0.92269
vt 0.37001 0.90744
vt 0.40752 0.94031
vt 0.50843 0.94246
vt 0.52104 0.99568
vt 0.36291 0.79367
vt 0.58190 0.95007
vt 0.64046 0.90007
vt 0.66965 0.87149
vt 0.69860 0.83282
vt 0.60678 0.92548
vt 0.89244 0.85191
vt 0.67781 0.84312
vt 0.88073 0.90590
vt 0.90751 0.79060
vt 0.66107 0.89417
vt 0.88073 0.94862
vt 0.69994 0.79207
vt 0.71116 0.72185
vt 0.88293 0.71891
vt 0.73177 0.66888
vt 0.85329 0.65480
vt 0.75806 0.61737
vt 0.83259 0.61403
vt 0.80622 0.56734
vt 0.67446 0.94389
vt 0.68581 0.98357
vt 0.87329 0.98821
vt 0.88073 0.90590
vt 0.67781 0.84312
vt 0.89244 0.85191
vt 0.90751 0.79060
vt 0.66107 0.89417
vt 0.88073 0.94862
vt 0.69994 0.79207
vt 0.71116 0.72185
vt 0.88293 0.71891
vt 0.73177 0.66888
vt 0.85329 0.65480
vt 0.75806 0.61737
vt 0.83259 0.61403
vt 0.80622 0.56734
vt 0.67446 0.94389
vt 0.68581 0.98357
vt 0.87329 0.98821
vt 0.95124 0.07572
vt 0.91850 0.07055
vt 0.91749 0.17919
vt 0.94984 0.16976
vt 0.97805 0.14414
vt 0.88728 0.05465
vt 0.88607 0.18360
vt 0.85773 0.04413
vt 0.85812 0.19176
vt 0.82293 0.01111
vt 0.82507 0.19564
vt 0.71191 0.21379
vt 0.70909 0.01497
vt 0.49518 0.14154
vt 0.49652 0.20778
vt 0.68000 0.28000
vt 0.39148 0.19348
vt 0.49497 0.05454
vt 0.39209 0.12743
vt 0.28604 0.15641
vt 0.28730 0.11638
vt 0.38591 0.06156
vt 0.28414 0.08482
vt 0.24839 0.10367
vt 0.24569 0.13925
vt 0.21102 0.13391
vt 0.21504 0.11416
vt 0.17464 0.12946
vt 0.50267 0.22125
vt 0.39406 0.19880
vt 0.50324 0.11638
vt 0.39352 0.11531
vt 0.31686 0.16725
vt 0.31605 0.11909
vt 0.39002 0.05945
vt 0.50103 0.04151
vt 0.31732 0.08359
vt 0.27068 0.09353
vt 0.26624 0.15700
vt 0.21239 0.13794
vt 0.21972 0.11671
vt 0.17507 0.13242
vt 0.70774 0.24203
vt 0.70891 0.28738
vt 0.68745 0.02839
vt 0.81783 0.02606
vt 0.82169 0.23320
vt 0.86010 0.21183
vt 0.85850 0.04706
vt 0.88910 0.20375
vt 0.88932 0.05951
vt 0.92174 0.20170
vt 0.92199 0.08022
vt 0.95618 0.09794
vt 0.95536 0.20344
vt 0.98896 0.17484
vt 0.62026 0.61992
vt 0.65065 0.65769
vt 0.36136 0.78032
vt 0.65519 0.70673
vt 0.74777 0.70673
vt 0.74733 0.75449
vt 0.74648 0.63798
vt 0.64819 0.75449
vt 0.74498 0.80466
vt 0.55204 0.75449
vt 0.53983 0.80466
vt 0.73554 0.86543
vt 0.54974 0.86543
vt 0.72087 0.88698
vt 0.58936 0.92373
vt 0.70658 0.92375
vt 0.66480 0.98931
vt 0.56206 0.70673
vt 0.64992 0.70673
vt 0.65675 0.63798
vt 0.56795 0.63798
vt 0.68953 0.70673
vt 0.62214 0.66094
vt 0.67755 0.66614
vt 0.62214 0.63798
vt 0.62214 0.70673
vt 0.70038 0.73844
vt 0.62214 0.73278
vt 0.62214 0.75449
vt 0.70597 0.75449
vt 0.70746 0.80466
vt 0.62214 0.80466
vt 0.62214 0.86543
vt 0.68779 0.86543
vt 0.62214 0.92367
vt 0.65699 0.72753
vt 0.64967 0.63798
vt 0.43489 0.63798
vt 0.43089 0.70673
vt 0.66432 0.70673
vt 0.43991 0.75449
vt 0.66083 0.75449
vt 0.44439 0.80466
vt 0.65514 0.80466
vt 0.63835 0.86543
vt 0.46270 0.86543
vt 0.48674 0.92368
vt 0.63200 0.92368
vt 0.52800 0.98140
vt 0.58400 0.98931
vt 0.59541 0.75449
vt 0.57912 0.70673
vt 0.43245 0.75449
vt 0.43354 0.80466
vt 0.62411 0.80466
vt 0.46319 0.86543
vt 0.59793 0.86543
vt 0.76381 0.80466
vt 0.77467 0.75449
vt 0.77467 0.70673
vt 0.61171 0.70673
vt 0.43245 0.70673
vt 0.54109 0.63798
vt 0.43245 0.63798
vt 0.62801 0.63798
vt 0.77467 0.63798
vt 0.60475 0.92372
vt 0.50565 0.92373
vt 0.72764 0.86543
vt 0.62529 0.98628
vt 0.56188 0.98998
vt 0.68148 0.92371
vt 0.47732 0.70673
vt 0.46216 0.63798
vt 0.38279 0.70673
vt 0.40173 0.63798
vt 0.32935 0.70673
vt 0.30911 0.75449
vt 0.39540 0.75449
vt 0.40331 0.80466
vt 0.50512 0.75449
vt 0.66155 0.80466
vt 0.65306 0.75449
vt 0.64994 0.86543
vt 0.41925 0.86543
vt 0.62007 0.88534
vt 0.44182 0.92366
vt 0.58600 0.92368
vt 0.44000 0.98378
vt 0.30603 0.92364
vt 0.28926 0.86543
vt 0.28642 0.80466
vt 0.64905 0.70673
vt 0.51210 0.70673
vt 0.63994 0.63798
vt 0.52978 0.63798
vt 0.13281 0.43406
vt 0.35156 0.44531
vt 0.35156 0.55469
vt 0.13281 0.45056
vt 0.35156 0.55469
vt 0.35156 0.44531
vt 0.35156 0.30469
vt 0.13281 0.37244
vt 0.13281 0.30469
vt 0.35156 0.30469
vt 0.24219 0.55469
vt 0.13281 0.55469
vt 0.24219 0.55469
vt 0.13281 0.45056
vt 0.13281 0.43406
vt 0.13281 0.37244
vt 0.24219 0.55469
vt 0.13281 0.55469
vt 0.35156 0.44531
vt 0.35156 0.55469
vt 0.13281 0.43406
vt 0.13281 0.45056
vt 0.35156 0.55469
vt 0.35156 0.44531
vt 0.13281 0.43406
vt 0.13281 0.45056
vt 0.35156 0.55469
vt 0.35156 0.44531
vt 0.35156 0.30469
vt 0.13281 0.37244
vt 0.35156 0.30469
vt 0.13281 0.37244
vt 0.35156 0.30469
vt 0.24219 0.55469
vt 0.13281 0.55469
vt 0.24219 0.55469
vt 0.24219 0.55469
vt 0.13281 0.55469
vt 0.24219 0.55469
vt 0.13281 0.43406
vt 0.13281 0.45056
vt 0.13281 0.37244
vt 0.24219 0.55469
vt 0.13281 0.55469
vt 0.24219 0.55469
vt 0.24219 0.55469
vt 0.50115 0.47013
vt 0.39957 0.54462
vt 0.49792 0.55421
vt 0.46312 0.40188
vt 0.39967 0.39074
vt 0.36719 0.44531
vt 0.36719 0.55469
vt 0.46094 0.52344
vt 0.60156 0.42969
vt 0.52344 0.38281
vt 0.36719 0.33594
vt 0.36789 0.34113
vt 0.56000 0.46400
vt 0.55600 0.34400
vt 0.52800 0.54220
vt 0.36789 0.34113
vt 0.36840 0.54672
vt 0.18741 0.37138
vt 0.35745 0.55462
vt 0.18336 0.55418
vt 0.35745 0.55462
vt 0.18741 0.37138
vt 0.18336 0.55418
vt 0.35745 0.55462
vt 0.18741 0.37138
vt 0.18336 0.55418
vt 0.35745 0.55462
vt 0.18336 0.55418
vt 0.18741 0.37138
vt 0.35745 0.55462
vt 0.35208 0.55279
vt 0.13783 0.37321
vt 0.13273 0.55236
vt 0.35208 0.55279
vt 0.35200 0.55200
vt 0.28000 0.34400
vt 0.12881 0.55544
vt 0.35200 0.55200
vt 0.12881 0.55544
vt 0.28000 0.34400
vt 0.35200 0.55200
vt 0.12881 0.55544
vt 0.28000 0.34400
vt 0.35200 0.55200
vt 0.28000 0.34400
vt 0.12881 0.55544
vt 0.35200 0.55200
vt 0.28000 0.34400
vt 0.12881 0.55544
vt 0.00400 0.30179
vt 0.06609 0.30179
vt 0.00400 0.43621
vt 0.06609 0.43621
vt 0.11931 0.43621
vt 0.00400 0.43621
vt 0.06609 0.43621
vt 0.11931 0.43621
vt 0.11931 0.30179
vt 0.12450 0.55657
vt 0.12450 0.55657
vt 0.05644 0.55657
vt 0.12450 0.55657
vt 0.12450 0.55657
vt 0.00783 0.55657
vt 0.12450 0.55657
vt 0.12450 0.55657
vt 0.11975 0.30105
vt 0.11975 0.55470
vt 0.00850 0.30105
vt 0.00850 0.55470
vt 0.11975 0.41202
vt 0.00850 0.44373
vt 0.11975 0.30105
vt 0.00850 0.30105
vt 0.00850 0.41202
vt 0.11975 0.41202
vt 0.11975 0.55470
vt 0.00850 0.55470
vt 0.00850 0.30105
vt 0.11975 0.30105
vt 0.00850 0.55470
vt 0.00850 0.42558
vt 0.11975 0.55470
vt 0.11975 0.43822
vt 0.00850 0.30476
vt 0.11975 0.30476
vt 0.11975 0.36305
vt 0.00850 0.36305
vt 0.00850 0.44790
vt 0.11975 0.44514
vt 0.00850 0.30773
vt 0.11975 0.30773
vt 0.00850 0.30105
vt 0.11975 0.55470
vt 0.11975 0.30105
vt 0.00850 0.55470
vt 0.11975 0.41202
vt 0.00850 0.44373
vt 0.11975 0.30105
vt 0.00850 0.30105
vt 0.11975 0.41202
vt 0.00850 0.41202
vt 0.11975 0.55470
vt 0.00850 0.55470
vt 0.00850 0.30105
vt 0.11975 0.30105
vt 0.11975 0.55470
vt 0.00850 0.42558
vt 0.00850 0.55470
vt 0.11975 0.43822
vt 0.00850 0.30476
vt 0.11975 0.30476
vt 0.11975 0.36305
vt 0.00850 0.36305
vt 0.00850 0.44790
vt 0.11975 0.44514
vt 0.00850 0.30773
vt 0.11975 0.30773
usemtl m0
f 1/1 2/2 3/3
f 3/3 2/2 4/4
f 1/1 5/5 2/2
f 5/5 6/6 2/2
f 4/4 2/2 7/7
f 7/7 2/2 8/8
f 8/8 2/2 9/9
f 9/9 2/2 10/10
f 2/2 6/6 11/11
f 2/2 11/11 12/12
f 12/12 13/13 2/2
f 13/13 14/14 2/2
f 2/2 14/14 15/15
f 2/2 15/15 16/16
f 17/17 2/2 16/16
f 10/10 2/2 17/17
f 18/18 19/19 20/20
f 21/21 18/18 20/20
f 19/19 22/22 20/20
f 21/21 20/20 23/23
f 20/20 22/22 24/24
f 20/20 24/24 25/25
f 26/26 20/20 25/25
f 23/23 20/20 26/26
f 27/27 28/28 29/29
f 27/27 30/30 28/28
f 29/29 28/28 31/31
f 30/30 32/32 28/28
f 31/31 28/28 33/33
f 28/28 34/34 33/33
f 28/28 35/35 34/34
f 28/28 32/32 35/35
f 36/36 37/37 38/38
f 36/36 38/38 39/39
f 37/37 40/40 38/38
f 39/39 38/38 41/41
f 38/38 40/40 42/42
f 38/38 42/42 43/43
f 38/38 43/43 44/44
f 41/41 38/38 44/44
f 45/45 46/46 47/47
f 46/46 48/48 47/47
f 45/45 47/47 49/49
f 48/48 50/50 47/47
f 49/49 47/47 51/51
f 51/51 47/47 52/52
f 47/47 53/53 52/52
f 47/47 50/50 53/53
f 54/54 55/55 56/56
f 54/54 57/57 55/55
f 56/56 55/55 58/58
f 59/59 56/56 58/58
f 57/57 60/60 55/55
f 59/59 58/58 61/61
f 61/61 58/58 62/62
f 58/58 55/55 62/62
f 63/63 59/59 61/61
f 64/64 59/59 63/63
f 64/64 63/63 65/65
f 66/66 64/64 65/65
f 67/67 66/66 65/65
f 68/68 66/66 67/67
f 68/68 67/67 69/69
f 69/69 70/70 68/68
f 70/70 71/71 68/68
f 72/72 71/71 70/70
f 72/72 73/73 71/71
f 72/72 74/74 73/73
f 74/74 75/75 73/73
f 76/76 75/75 74/74
f 76/76 77/77 75/75
f 78/78 77/77 76/76
f 78/78 79/79 77/77
f 78/78 80/80 79/79
f 55/55 60/60 81/81
f 55/55 81/81 62/62
f 82/82 83/83 84/84
f 83/83 85/85 84/84
f 83/83 86/86 85/85
f 85/85 86/86 87/87
f 86/86 88/88 87/87
f 87/87 88/88 89/89
f 88/88 90/90 89/89
f 91/91 90/90 88/88
f 91/91 92/92 90/90
f 92/92 93/93 90/90
f 92/92 94/94 93/93
f 94/94 95/95 93/93
f 94/94 96/96 95/95
f 96/96 97/97 95/95
f 96/96 98/98 97/97
f 99/99 98/98 96/96
f 99/99 100/100 98/98
f 100/100 101/101 98/98
f 100/100 102/102 101/101
f 85/85 87/87 103/103
f 85/85 103/103 104/104
f 84/84 85/85 104/104
f 105/105 104/104 84/84
f 106/106 84/84 107/107
f 82/82 84/84 106/106
f 106/106 107/107 108/108
f 109/109 106/106 108/108
f 109/109 108/108 110/110
f 110/110 108/108 111/111
f 110/110 111/111 112/112
f 113/113 110/110 112/112
f 113/113 112/112 114/114
f 115/115 116/116 117/117
f 118/118 115/115 117/117
f 118/118 117/117 119/119
f 120/120 118/118 119/119
f 120/120 119/119 121/121
f 121/121 119/119 122/122
f 121/121 122/122 123/123
f 124/124 121/121 123/123
f 124/124 123/123 125/125
f 126/126 124/124 125/125
f 127/127 126/126 125/125
f 127/127 125/125 128/128
f 127/127 128/128 129/129
f 130/130 127/127 129/129
f 129/129 128/128 131/131
f 129/129 131/131 132/132
f 133/133 129/129 132/132
f 134/134 129/129 133/133
f 134/134 130/130 129/129
f 135/135 133/133 132/132
f 134/134 133/133 135/135
f 136/136 134/134 135/135
f 135/135 132/132 137/137
f 136/136 135/135 138/138
f 135/135 137/137 138/138
f 139/139 136/136 138/138
f 139/139 138/138 140/140
f 141/141 139/139 140/140
f 138/138 137/137 142/142
f 138/138 142/142 140/140
f 140/140 142/142 143/143
f 140/140 143/143 144/144
f 145/145 140/140 144/144
f 141/141 140/140 145/145
f 145/145 144/144 146/146
f 147/147 148/148 149/149
f 150/150 148/148 147/147
f 148/148 151/151 149/149
f 149/149 151/151 152/152
f 151/151 153/153 152/152
f 154/154 153/153 151/151
f 154/154 155/155 153/153
f 150/150 147/147 156/156
f 156/156 147/147 157/157
f 158/158 156/156 157/157
f 158/158 157/157 159/159
f 158/158 159/159 160/160
f 160/160 159/159 161/161
f 160/160 161/161 162/162
f 162/162 161/161 163/163
f 162/162 163/163 164/164
f 165/165 155/155 154/154
f 165/165 166/166 155/155
f 166/166 167/167 155/155
f 166/166 168/168 167/167
f 168/168 169/169 167/167
f 168/168 170/170 169/169
f 168/168 171/171 170/170
f 171/171 172/172 170/170
f 173/173 174/174 175/175
f 173/173 176/176 174/174
f 177/177 173/173 175/175
f 178/178 177/177 175/175
f 178/178 175/175 179/179
f 180/180 178/178 179/179
f 180/180 179/179 181/181
f 182/182 180/180 181/181
f 183/183 180/180 182/182
f 184/184 183/183 182/182
f 184/184 182/182 185/185
f 186/186 183/183 184/184
f 187/187 186/186 184/184
f 187/187 184/184 188/188
f 188/188 184/184 189/189
f 184/184 185/185 189/189
f 187/187 188/188 190/190
f 190/190 188/188 189/189
f 190/190 189/189 191/191
f 192/192 187/187 190/190
f 193/193 190/190 191/191
f 193/193 192/192 190/190
f 193/193 191/191 194/194
f 195/195 193/193 194/194
f 195/195 194/194 196/196
f 197/197 192/192 193/193
f 195/195 197/197 193/193
f 198/198 197/197 195/195
f 199/199 198/198 195/195
f 199/199 195/195 200/200
f 200/200 195/195 196/196
f 201/201 199/199 200/200
f 202/202 203/203 204/204
f 204/204 203/203 205/205
f 202/202 206/206 203/203
f 202/202 207/207 206/206
f 207/207 208/208 206/206
f 208/208 209/209 206/206
f 208/208 210/210 209/209
f 211/211 204/204 205/205
f 212/212 204/204 211/211
f 212/212 211/211 213/213
f 214/214 212/212 213/213
f 215/215 214/214 213/213
f 216/216 214/214 215/215
f 217/217 216/216 215/215
f 218/218 216/216 217/217
f 219/219 218/218 217/217
f 210/210 220/220 209/209
f 210/210 221/221 220/220
f 222/222 221/221 210/210
f 222/222 223/223 221/221
f 224/224 223/223 222/222
f 224/224 225/225 223/223
f 226/226 227/227 228/228
f 226/226 228/228 229/229
f 230/230 226/226 229/229
f 176/176 230/230 229/229
f 176/176 229/229 174/174
f 231/231 232/232 233/233
f 233/233 232/232 234/234
f 233/233 234/234 235/235
f 233/233 235/235 236/236
f 237/237 232/232 231/231
f 236/236 235/235 237/237
f 238/238 232/232 237/237
f 235/235 238/238 237/237
f 239/239 240/240 241/241
f 240/240 242/242 241/241
f 241/241 242/242 243/243
f 242/242 244/244 243/243
f 243/243 244/244 245/245
f 239/239 245/245 240/240
f 246/246 245/245 239/239
f 243/243 245/245 246/246
f 247/247 248/248 249/249
f 248/248 250/250 249/249
f 251/251 248/248 247/247
f 251/251 250/250 248/248
f 252/252 253/253 254/254
f 252/252 254/254 255/255
f 256/256 253/253 252/252
f 255/255 256/256 252/252
f 257/257 258/258 259/259
f 260/260 257/257 259/259
f 261/261 257/257 260/260
f 262/262 261/261 260/260
f 262/262 260/260 263/263
f 262/262 263/263 264/264
f 265/265 262/262 264/264
f 266/266 267/267 268/268
f 269/269 266/266 268/268
f 270/270 266/266 269/269
f 271/271 270/270 269/269
f 271/271 269/269 272/272
f 271/271 272/272 273/273
f 274/274 271/271 273/273
f 275/275 276/276 277/277
f 275/275 278/278 276/276
f 279/279 275/275 277/277
f 279/279 277/277 280/280
f 281/281 279/279 280/280
f 282/282 279/279 281/281
f 283/283 282/282 281/281
f 283/283 281/281 284/284
f 285/285 283/283 284/284
f 278/278 286/286 276/276
f 278/278 287/287 286/286
f 287/287 288/288 286/286
f 286/286 288/288 289/289
f 288/288 290/290 289/289
f 288/288 291/291 290/290
f 291/291 292/292 290/290
f 293/293 283/283 285/285
f 294/294 293/293 285/285
f 294/294 285/285 295/295
f 296/296 294/294 295/295
f 297/297 294/294 296/296
f 298/298 297/297 296/296
f 298/298 296/296 299/299
f 300/300 298/298 299/299
f 301/301 298/298 300/300
f 302/302 301/301 300/300
f 302/302 300/300 303/303
f 304/304 302/302 303/303
f 305/305 306/306 307/307
f 306/306 308/308 307/307
f 306/306 309/309 308/308
f 309/309 310/310 308/308
f 311/311 312/312 313/313
f 311/311 314/314 312/312
f 311/311 315/315 314/314
f 316/316 315/315 311/311
f 314/314 317/317 312/312
f 315/315 317/317 314/314
f 318/318 317/317 315/315
f 319/319 318/318 315/315
f 318/318 320/320 317/317
f 318/318 321/321 320/320
f 321/321 322/322 320/320
f 321/321 323/323 322/322
f 323/323 324/324 322/322
f 323/323 325/325 324/324
f 325/325 326/326 324/324
f 324/324 326/326 327/327
f 326/326 328/328 327/327
f 329/329 328/328 326/326
f 325/325 329/329 326/326
f 330/330 331/331 332/332
f 331/331 333/333 332/332
f 333/333 334/334 332/332
f 332/332 334/334 335/335
f 333/333 336/336 334/334
f 331/331 336/336 333/333
f 334/334 336/336 337/337
f 334/334 337/337 338/338
f 336/336 339/339 337/337
f 337/337 339/339 340/340
f 339/339 341/341 340/340
f 340/340 341/341 342/342
f 341/341 343/343 342/342
f 342/342 343/343 344/344
f 343/343 345/345 344/344
f 343/343 346/346 345/345
f 344/344 345/345 347/347
f 345/345 348/348 347/347
f 345/345 349/349 348/348
f 346/346 349/349 345/345
f 346/346 350/350 349/349
f 351/351 352/352 353/353
f 354/354 351/351 353/353
f 354/354 355/355 351/351
f 351/351 356/356 352/352
f 355/355 356/356 351/351
f 357/357 358/358 359/359
f 360/360 357/357 359/359
f 359/359 358/358 361/361
f 360/360 359/359 362/362
f 359/359 363/363 362/362
f 359/359 361/361 363/363
f 364/364 365/365 366/366
f 364/364 366/366 367/367
f 368/368 365/365 364/364
f 369/369 364/364 367/367
f 370/370 364/364 369/369
f 370/370 368/368 364/364
f 371/371 372/372 373/373
f 374/374 371/371 373/373
f 373/373 372/372 375/375
f 374/374 373/373 376/376
f 376/376 373/373 377/377
f 373/373 375/375 377/377
f 378/378 379/379 380/380
f 378/378 380/380 381/381
f 382/382 379/379 378/378
f 383/383 378/378 381/381
f 383/383 384/384 378/378
f 384/384 382/382 378/378
f 385/385 386/386 387/387
f 388/388 385/385 387/387
f 387/387 386/386 389/389
f 388/388 387/387 390/390
f 387/387 391/391 390/390
f 387/387 389/389 391/391
f 392/392 393/393 394/394
f 392/392 394/394 395/395
f 396/396 393/393 392/392
f 397/397 392/392 395/395
f 398/398 392/392 397/397
f 398/398 396/396 392/392
f 399/399 400/400 401/401
f 402/402 399/399 401/401
f 401/401 400/400 403/403
f 404/404 402/402 401/401
f 401/401 405/405 404/404
f 401/401 403/403 405/405
f 406/406 407/407 408/408
f 406/406 408/408 409/409
f 410/410 407/407 406/406
f 406/406 409/409 411/411
f 411/411 412/412 406/406
f 412/412 410/410 406/406
f 413/413 414/414 415/415
f 416/416 413/413 415/415
f 415/415 414/414 417/417
f 418/418 416/416 415/415
f 415/415 419/419 418/418
f 415/415 417/417 419/419
f 420/420 421/421 422/422
f 420/420 422/422 423/423
f 424/424 421/421 420/420
f 420/420 423/423 425/425
f 425/425 426/426 420/420
f 426/426 424/424 420/420
f 427/427 428/428 429/429
f 429/429 430/430 427/427
f 429/429 428/428 431/431
f 432/432 430/430 429/429
f 433/433 432/432 429/429
f 429/429 431/431 433/433
f 434/434 435/435 436/436
f 434/434 436/436 437/437
f 438/438 435/435 434/434
f 434/434 437/437 439/439
f 439/439 440/440 434/434
f 440/440 438/438 434/434
f 441/441 442/442 443/443
f 441/441 444/444 442/442
f 441/441 443/443 445/445
f 446/446 444/444 441/441
f 447/447 446/446 441/441
f 445/445 447/447 441/441
f 448/448 449/449 450/450
f 449/449 451/451 450/450
f 452/452 448/448 450/450
f 451/451 453/453 450/450
f 450/450 453/453 454/454
f 450/450 454/454 452/452
f 455/455 456/456 457/457
f 455/455 458/458 456/456
f 455/455 457/457 459/459
f 455/455 460/460 458/458
f 461/461 460/460 455/455
f 459/459 461/461 455/455
f 462/462 463/463 464/464
f 463/463 465/465 464/464
f 464/464 466/466 462/462
f 465/465 467/467 464/464
f 464/464 467/467 468/468
f 464/464 468/468 466/466
f 469/469 470/470 471/471
f 469/469 472/472 470/470
f 473/473 469/469 471/471
f 469/469 474/474 472/472
f 475/475 474/474 469/469
f 473/473 475/475 469/469
f 476/476 477/477 478/478
f 477/477 479/479 478/478
f 476/476 478/478 480/480
f 479/479 481/481 478/478
f 478/478 481/481 482/482
f 478/478 482/482 480/480
f 483/483 484/484 485/485
f 483/483 486/486 484/484
f 487/487 483/483 485/485
f 483/483 488/488 486/486
f 489/489 488/488 483/483
f 487/487 489/489 483/483
f 490/490 491/491 492/492
f 491/491 493/493 492/492
f 490/490 492/492 494/494
f 493/493 495/495 492/492
f 492/492 495/495 496/496
f 492/492 496/496 494/494
f 497/497 498/498 499/499
f 498/498 500/500 499/499
f 501/501 498/498 497/497
f 498/498 502/502 500/500
f 503/503 502/502 498/498
f 501/501 503/503 498/498
f 504/504 505/505 506/506
f 504/504 507/507 505/505
f 506/506 505/505 508/508
f 507/507 509/509 505/505
f 505/505 509/509 510/510
f 505/505 510/510 508/508
f 511/511 512/512 513/513
f 512/512 514/514 513/513
f 515/515 512/512 511/511
f 512/512 516/516 514/514
f 517/517 516/516 512/512
f 515/515 517/517 512/512
f 518/518 519/519 520/520
f 519/519 521/521 520/520
f 518/518 520/520 522/522
f 521/521 523/523 520/520
f 520/520 523/523 524/524
f 520/520 524/524 522/522
f 525/525 526/526 527/527
f 526/526 528/528 527/527
f 529/529 526/526 525/525
f 526/526 530/530 528/528
f 531/531 530/530 526/526
f 529/529 531/531 526/526
f 532/532 533/533 534/534
f 532/532 535/535 533/533
f 534/534 533/533 536/536
f 535/535 537/537 533/533
f 533/533 537/537 538/538
f 533/533 538/538 536/536
f 539/539 540/540 541/541
f 540/540 542/542 541/541
f 543/543 540/540 539/539
f 540/540 544/544 542/542
f 545/545 544/544 540/540
f 543/543 545/545 540/540
f 546/546 547/547 548/548
f 546/546 549/549 547/547
f 548/548 547/547 550/550
f 549/549 551/551 547/547
f 547/547 551/551 552/552
f 547/547 552/552 550/550
f 553/553 554/554 555/555
f 554/554 556/556 555/555
f 557/557 554/554 553/553
f 554/554 558/558 556/556
f 559/559 558/558 554/554
f 557/557 559/559 554/554
f 560/560 561/561 562/562
f 560/560 563/563 561/561
f 562/562 561/561 564/564
f 563/563 565/565 561/561
f 561/561 565/565 566/566
f 561/561 566/566 564/564
f 567/567 568/568 569/569
f 568/568 570/570 569/569
f 567/567 571/571 568/568
f 567/567 569/569 572/572
f 573/573 574/574 575/575
f 573/573 575/575 576/576
f 576/576 575/575 577/577
f 576/576 578/578 573/573
f 578/578 579/579 573/573
f 580/580 578/578 576/576
f 581/581 582/582 583/583
f 581/581 583/583 584/584
f 585/585 581/581 584/584
f 586/586 587/587 588/588
f 586/586 589/589 587/587
f 587/587 590/590 588/588
f 591/591 586/586 588/588
f 592/592 593/593 594/594
f 595/595 592/592 594/594
f 595/595 594/594 596/596
f 597/597 598/598 599/599
f 597/597 599/599 600/600
f 601/601 597/597 600/600
f 602/602 601/601 600/600
f 602/602 600/600 603/603
f 604/604 602/602 603/603
f 604/604 603/603 605/605
f 606/606 604/604 605/605
f 607/607 604/604 606/606
f 607/607 606/606 608/608
f 598/598 609/609 599/599
f 598/598 610/610 609/609
f 611/611 610/610 598/598
f 611/611 612/612 610/610
f 611/611 613/613 612/612
f 613/613 614/614 612/612
f 615/615 616/616 617/617
f 618/618 615/615 617/617
f 618/618 617/617 619/619
f 618/618 619/619 620/620
f 621/621 618/618 620/620
f 622/622 621/621 620/620
f 623/623 621/621 622/622
f 624/624 623/623 622/622
f 625/625 626/626 627/627
f 625/625 627/627 628/628
f 628/628 627/627 629/629
f 628/628 629/629 630/630
f 631/631 632/632 633/633
f 634/634 635/635 636/636
f 637/637 634/634 636/636
f 636/636 635/635 638/638
f 635/635 639/639 638/638
f 639/639 640/640 638/638
f 638/638 640/640 641/641
f 637/637 636/636 642/642
f 643/643 637/637 642/642
f 644/644 637/637 643/643
f 645/645 644/644 643/643
f 645/645 646/646 644/644
f 646/646 637/637 644/644
f 640/640 647/647 641/641
f 639/639 648/648 640/640
f 640/640 648/648 647/647
f 648/648 649/649 647/647
f 648/648 650/650 649/649
f 650/650 651/651 649/649
f 649/649 651/651 652/652
f 649/649 652/652 653/653
f 647/647 649/649 653/653
f 651/651 654/654 652/652
f 652/652 654/654 655/655
f 652/652 655/655 656/656
f 653/653 652/652 656/656
f 654/654 657/657 655/655
f 654/654 658/658 657/657
f 654/654 659/659 658/658
f 659/659 660/660 658/658
f 658/658 660/660 657/657
f 661/661 659/659 654/654
f 651/651 661/661 654/654
f 651/651 662/662 661/661
f 662/662 663/663 661/661
f 664/664 650/650 648/648
f 665/665 664/664 648/648
f 665/665 648/648 639/639
f 665/665 639/639 666/666
f 666/666 639/639 635/635
f 634/634 666/666 635/635
f 667/667 666/666 634/634
f 637/637 667/667 634/634
f 646/646 667/667 637/637
f 668/668 669/669 670/670
f 668/668 670/670 671/671
f 671/671 670/670 672/672
f 671/671 672/672 673/673
f 673/673 672/672 674/674
f 675/675 671/671 673/673
f 676/676 675/675 673/673
f 675/675 677/677 671/671
f 677/677 668/668 671/671
f 677/677 669/669 668/668
f 673/673 674/674 678/678
f 679/679 673/673 678/678
f 676/676 673/673 679/679
f 678/678 674/674 680/680
f 678/678 680/680 681/681
f 682/682 678/678 681/681
f 679/679 678/678 682/682
f 682/682 681/681 683/683
f 683/683 681/681 684/684
f 685/685 683/683 684/684
f 685/685 684/684 686/686
f 687/687 683/683 685/685
f 685/685 686/686 688/688
f 688/688 686/686 689/689
f 688/688 689/689 690/690
f 691/691 688/688 690/690
f 691/691 690/690 692/692
f 692/692 690/690 693/693
f 692/692 693/693 694/694
f 695/695 682/682 683/683
f 687/687 695/695 683/683
f 695/695 679/679 682/682
f 693/693 696/696 694/694
f 693/693 690/690 696/696
f 686/686 684/684 697/697
f 686/686 697/697 689/689
f 697/697 684/684 698/698
f 684/684 681/681 698/698
f 681/681 699/699 698/698
f 681/681 680/680 699/699
f 689/689 697/697 700/700
f 690/690 700/700 696/696
f 689/689 700/700 690/690
f 701/701 702/702 703/703
f 701/701 704/704 702/702
f 703/703 702/702 705/705
f 703/703 705/705 706/706
f 704/704 707/707 702/702
f 704/704 708/708 707/707
f 704/704 709/709 708/708
f 709/709 710/710 708/708
f 709/709 711/711 710/710
f 711/711 712/712 710/710
f 711/711 713/713 712/712
f 713/713 714/714 712/712
f 706/706 705/705 715/715
f 706/706 715/715 716/716
f 717/717 706/706 716/716
f 718/718 719/719 720/720
f 719/719 721/721 720/720
f 722/722 719/719 718/718
f 723/723 722/722 718/718
f 719/719 724/724 721/721
f 724/724 725/725 721/721
f 725/725 726/726 721/721
f 725/725 727/727 726/726
f 727/727 728/728 726/726
f 727/727 729/729 728/728
f 729/729 730/730 728/728
f 729/729 731/731 730/730
f 732/732 722/722 723/723
f 733/733 732/732 723/723
f 733/733 723/723 734/734
f 735/735 736/736 737/737
f 735/735 737/737 738/738
f 739/739 735/735 738/738
f 736/736 740/740 737/737
f 740/740 741/741 737/737
f 740/740 742/742 741/741
f 742/742 743/743 741/741
f 742/742 744/744 743/743
f 744/744 745/745 743/743
f 744/744 746/746 745/745
f 744/744 747/747 746/746
f 747/747 748/748 746/746
f 746/746 748/748 749/749
f 746/746 749/749 750/750
f 746/746 750/750 745/745
f 748/748 751/751 749/749
f 747/747 752/752 748/748
f 748/748 753/753 751/751
f 752/752 753/753 748/748
f 753/753 754/754 751/751
f 753/753 755/755 754/754
f 752/752 756/756 753/753
f 756/756 755/755 753/753
f 756/756 757/757 755/755
f 757/757 758/758 755/755
f 755/755 758/758 759/759
f 755/755 759/759 754/754
f 758/758 760/760 759/759
f 761/761 760/760 758/758
f 761/761 762/762 760/760
f 763/763 764/764 765/765
f 764/764 766/766 765/765
f 764/764 767/767 766/766
f 767/767 768/768 766/766
f 766/766 768/768 769/769
f 766/766 769/769 770/770
f 765/765 766/766 770/770
f 768/768 771/771 769/769
f 768/768 772/772 771/771
f 773/773 772/772 768/768
f 767/767 773/773 768/768
f 773/773 774/774 772/772
f 772/772 774/774 775/775
f 774/774 776/776 775/775
f 763/763 765/765 777/777
f 778/778 763/763 777/777
f 777/777 765/765 779/779
f 765/765 770/770 779/779
f 777/777 779/779 780/780
f 781/781 777/777 780/780
f 782/782 781/781 780/780
f 782/782 780/780 783/783
f 784/784 782/782 783/783
f 784/784 783/783 785/785
f 786/786 784/784 785/785
f 786/786 785/785 787/787
f 786/786 787/787 788/788
f 789/789 786/786 788/788
f 789/789 788/788 790/790
f 672/672 791/791 792/792
f 672/672 792/792 674/674
f 641/641 647/647 793/793
f 647/647 653/653 793/793
f 794/794 795/795 796/796
f 794/794 797/797 795/795
f 798/798 794/794 796/796
f 799/799 798/798 796/796
f 799/799 800/800 798/798
f 801/801 800/800 799/799
f 801/801 799/799 802/802
f 803/803 801/801 802/802
f 803/803 802/802 804/804
f 805/805 803/803 804/804
f 805/805 804/804 806/806
f 807/807 805/805 806/806
f 800/800 808/808 798/798
f 808/808 809/809 798/798
f 808/808 810/810 809/809
f 808/808 811/811 810/810
f 812/812 813/813 814/814
f 813/813 815/815 814/814
f 816/816 813/813 812/812
f 817/817 816/816 812/812
f 818/818 816/816 817/817
f 819/819 818/818 817/817
f 819/819 817/817 820/820
f 819/819 820/820 821/821
f 822/822 819/819 821/821
f 823/823 822/822 821/821
f 823/823 821/821 824/824
f 825/825 823/823 824/824
f 826/826 827/827 828/828
f 826/826 828/828 829/829
f 830/830 826/826 829/829
f 831/831 830/830 829/829
f 832/832 830/830 831/831
f 832/832 831/831 833/833
f 834/834 832/832 833/833
f 835/835 834/834 833/833
f 835/835 833/833 836/836
f 837/837 835/835 836/836
f 838/838 835/835 837/837
f 839/839 838/838 837/837
f 840/840 838/838 839/839
f 841/841 842/842 843/843
f 844/844 841/841 843/843
f 845/845 841/841 844/844
f 845/845 844/844 846/846
f 847/847 845/845 846/846
f 848/848 845/845 847/847
f 848/848 841/841 845/845
f 848/848 849/849 841/841
f 849/849 850/850 841/841
f 841/841 850/850 851/851
f 843/843 842/842 852/852
f 842/842 853/853 852/852
f 853/853 854/854 852/852
f 850/850 855/855 851/851
f 850/850 856/856 855/855
f 857/857 847/847 846/846
f 857/857 846/846 858/858
f 859/859 848/848 847/847
f 857/857 859/859 847/847
f 860/860 857/857 858/858
f 860/860 858/858 861/861
f 860/860 862/862 857/857
f 862/862 859/859 857/857
f 863/863 864/864 865/865
f 865/865 864/864 866/866
f 865/865 866/866 867/867
f 868/868 865/865 867/867
f 863/863 865/865 869/869
f 869/869 865/865 868/868
f 870/870 869/869 868/868
f 871/871 869/869 870/870
f 871/871 863/863 869/869
f 872/872 871/871 870/870
f 873/873 871/871 872/872
f 874/874 872/872 870/870
f 874/874 870/870 875/875
f 874/874 875/875 876/876
f 876/876 875/875 877/877
f 878/878 876/876 877/877
f 878/878 877/877 879/879
f 877/877 875/875 880/880
f 877/877 880/880 879/879
f 875/875 881/881 880/880
f 875/875 870/870 881/881
f 870/870 868/868 882/882
f 870/870 882/882 881/881
f 873/873 883/883 871/871
f 871/871 883/883 884/884
f 883/883 885/885 884/884
f 884/884 885/885 886/886
f 887/887 888/888 889/889
f 887/887 889/889 890/890
f 891/891 887/887 890/890
f 892/892 887/887 891/891
f 893/893 888/888 887/887
f 894/894 893/893 887/887
f 895/895 893/893 894/894
f 895/895 894/894 896/896
f 894/894 887/887 896/896
f 896/896 887/887 892/892
f 890/890 889/889 897/897
f 890/890 897/897 898/898
f 891/891 890/890 899/899
f 899/899 890/890 898/898
f 889/889 888/888 900/900
f 888/888 901/901 900/900
f 895/895 902/902 893/893
f 902/902 901/901 888/888
f 893/893 902/902 888/888
f 889/889 900/900 903/903
f 903/903 900/900 904/904
f 900/900 901/901 905/905
f 905/905 901/901 902/902
f 900/900 905/905 906/906
f 906/906 905/905 907/907
f 908/908 906/906 907/907
f 908/908 907/907 909/909
f 909/909 907/907 910/910
f 909/909 910/910 911/911
f 912/912 909/909 911/911
f 913/913 912/912 911/911
f 913/913 911/911 914/914
f 911/911 915/915 914/914
f 911/911 916/916 915/915
f 916/916 895/895 915/915
f 907/907 905/905 917/917
f 918/918 917/917 895/895
f 907/907 917/917 918/918
f 919/919 918/918 895/895
f 907/907 918/918 919/919
f 910/910 907/907 919/919
f 910/910 919/919 911/911
f 911/911 919/919 916/916
f 919/919 895/895 916/916
f 920/920 906/906 908/908
f 921/921 920/920 908/908
f 922/922 908/908 909/909
f 921/921 908/908 922/922
f 923/923 909/909 912/912
f 924/924 923/923 912/912
f 925/925 912/912 913/913
f 925/925 924/924 912/912
f 917/917 902/902 895/895
f 905/905 902/902 917/917
f 914/914 926/926 913/913
f 926/926 927/927 913/913
f 926/926 891/891 927/927
f 926/926 892/892 891/891
f 926/926 896/896 892/892
f 928/928 896/896 926/926
f 915/915 928/928 926/926
f 914/914 915/915 926/926
f 915/915 895/895 928/928
f 928/928 895/895 896/896
f 927/927 891/891 929/929
f 927/927 929/929 930/930
f 913/913 927/927 931/931
f 927/927 930/930 931/931
f 932/932 900/900 906/906
f 904/904 900/900 932/932
f 933/933 934/934 935/935
f 936/936 934/934 933/933
f 936/936 937/937 934/934
f 938/938 939/939 940/940
f 938/938 940/940 941/941
f 942/942 938/938 941/941
f 943/943 938/938 942/942
f 944/944 945/945 946/946
f 947/947 945/945 944/944
f 948/948 947/947 949/949
f 950/950 951/951 952/952
f 953/953 950/950 952/952
f 954/954 953/953 955/955
f 954/954 955/955 956/956
f 951/951 957/957 958/958
f 958/958 957/957 959/959
f 956/956 960/960 961/961
f 961/961 960/960 962/962
f 963/963 964/964 965/965
f 965/965 964/964 966/966
f 967/967 968/968 969/969
f 968/968 970/970 969/969
f 971/971 970/970 972/972
f 971/971 972/972 973/973
f 974/974 973/973 975/975
f 976/976 974/974 975/975
f 977/977 978/978 976/976
f 979/979 978/978 977/977
f 980/980 981/981 979/979
f 980/980 967/967 981/981
f 982/982 983/983 984/984
f 984/984 983/983 985/985
f 983/983 986/986 985/985
f 987/987 983/983 982/982
f 988/988 983/983 987/987
f 988/988 989/989 983/983
f 983/983 989/989 990/990
f 983/983 990/990 986/986
f 991/991 992/992 993/993
f 992/992 994/994 993/993
f 995/995 996/996 997/997
f 998/998 996/996 995/995
f 999/999 1000/1000 1001/1001
f 1001/1001 1000/1000 1002/1002
f 1000/1000 1003/1003 1002/1002
f 1003/1003 1004/1004 1002/1002
f 1003/1003 1005/1005 1004/1004
f 1005/1005 1006/1006 1004/1004
f 1005/1005 1007/1007 1006/1006
f 1008/1008 1007/1007 1005/1005
f 1009/1009 1007/1007 1008/1008
f 1010/1010 1007/1007 1009/1009
f 1011/1011 1010/1010 1009/1009
f 1011/1011 1009/1009 1012/1012
f 1013/1013 1014/1014 1015/1015
f 1014/1014 1016/1016 1015/1015
f 1014/1014 1017/1017 1016/1016
f 1016/1016 1017/1017 1018/1018
f 1017/1017 1019/1019 1018/1018
f 1020/1020 1019/1019 1017/1017
f 1020/1020 1021/1021 1019/1019
f 1019/1019 1021/1021 1022/1022
f 1021/1021 1023/1023 1022/1022
f 1023/1023 1024/1024 1022/1022
f 1025/1025 1026/1026 1027/1027
f 1028/1028 1026/1026 1025/1025
f 1028/1028 1029/1029 1026/1026
f 1030/1030 1029/1029 1028/1028
f 1030/1030 1031/1031 1029/1029
f 1030/1030 1032/1032 1031/1031
f 1031/1031 1032/1032 1033/1033
f 1032/1032 1034/1034 1033/1033
f 1033/1033 1034/1034 1035/1035
f 1035/1035 1034/1034 1036/1036
f 1035/1035 1036/1036 1037/1037
f 1038/1038 1035/1035 1037/1037
f 1039/1039 1040/1040 1041/1041
f 1039/1039 1042/1042 1040/1040
f 1042/1042 1043/1043 1040/1040
f 1042/1042 1044/1044 1043/1043
f 1044/1044 1045/1045 1043/1043
f 1043/1043 1045/1045 1046/1046
f 1045/1045 1047/1047 1046/1046
f 1048/1048 1047/1047 1045/1045
f 1048/1048 1049/1049 1047/1047
f 1048/1048 1050/1050 1049/1049
