mtllib acce1544.mtl
o acce1544
v 0.33750 -0.53775 2.59830 0.000 0.000 0.000
v 0.33667 -0.53804 2.61909 0.000 0.000 0.000
v 0.33073 -0.52691 2.61909 0.000 0.000 0.000
v 0.33298 -0.52898 2.60730 0.000 0.000 0.000
v 0.19836 -0.54682 2.42878 0.000 0.000 0.000
v 0.18724 -0.53863 2.43851 0.000 0.000 0.000
v 0.19580 -0.52817 2.42649 0.000 0.000 0.000
v 0.18252 -0.52567 2.43851 0.000 0.000 0.000
v 0.18578 -0.51226 2.42878 0.000 0.000 0.000
v 0.19480 -0.52853 2.44301 0.000 0.000 0.000
v 0.19579 -0.54286 2.44532 0.000 0.000 0.000
v 0.18664 -0.54864 2.44080 0.000 0.000 0.000
v 0.18635 -0.51694 2.44532 0.000 0.000 0.000
v 0.17563 -0.51840 2.44080 0.000 0.000 0.000
v 0.23974 -0.44982 2.63957 0.000 0.000 0.000
v 0.25654 -0.47918 2.68783 0.000 0.000 0.000
v 0.30019 -0.49329 2.65622 0.000 0.000 0.000
v 0.25711 -0.44717 2.58901 0.000 0.000 0.000
v 0.31631 -0.49898 2.60969 0.000 0.000 0.000
v 0.26507 -0.45895 2.64762 0.000 0.000 0.000
v 0.21667 -0.45700 2.65106 0.000 0.000 0.000
v 0.22885 -0.47702 2.68783 0.000 0.000 0.000
v 0.21784 -0.44680 2.60739 0.000 0.000 0.000
v 0.24653 -0.51215 2.70851 0.000 0.000 0.000
v 0.31122 -0.49840 2.58097 0.000 0.000 0.000
v 0.23315 -0.44854 2.57522 0.000 0.000 0.000
v 0.25810 -0.45659 2.55913 0.000 0.000 0.000
v 0.27576 -0.46483 2.57292 0.000 0.000 0.000
v 0.28283 -0.45736 2.60050 0.000 0.000 0.000
v 0.28285 -0.51116 2.69703 0.000 0.000 0.000
v 0.17779 -0.47470 2.78674 0.000 0.000 0.000
v 0.15570 -0.46775 2.76359 0.000 0.000 0.000
v 0.15417 -0.45686 2.73924 0.000 0.000 0.000
v 0.11518 -0.54774 2.69242 0.000 0.000 0.000
v 0.08042 -0.52616 2.60280 0.000 0.000 0.000
v 0.08780 -0.55649 2.65567 0.000 0.000 0.000
v 0.06160 -0.58192 2.55224 0.000 0.000 0.000
v 0.06160 -0.58192 2.60050 0.000 0.000 0.000
v 0.07826 -0.52693 2.54995 0.000 0.000 0.000
v 0.08417 -0.55658 2.50398 0.000 0.000 0.000
v 0.06867 -0.60136 2.49478 0.000 0.000 0.000
v 0.05414 -0.60176 2.51960 0.000 0.000 0.000
v 0.04707 -0.60921 2.50398 0.000 0.000 0.000
v 0.09733 -0.58603 2.48560 0.000 0.000 0.000
v 0.13268 -0.45106 2.81279 0.000 0.000 0.000
v 0.14312 -0.48022 2.81707 0.000 0.000 0.000
v 0.12188 -0.46894 2.75044 0.000 0.000 0.000
v 0.12645 -0.50836 2.76844 0.000 0.000 0.000
v 0.15386 -0.55323 2.72000 0.000 0.000 0.000
v 0.11831 -0.50258 2.66256 0.000 0.000 0.000
v 0.11232 -0.48274 2.60050 0.000 0.000 0.000
v 0.14598 -0.47783 2.50168 0.000 0.000 0.000
v 0.12125 -0.47705 2.54304 0.000 0.000 0.000
v 0.10831 -0.50866 2.50398 0.000 0.000 0.000
v 0.15948 -0.54140 2.45146 0.000 0.000 0.000
v 0.13401 -0.52621 2.47414 0.000 0.000 0.000
v 0.14544 -0.56608 2.46746 0.000 0.000 0.000
v 0.14999 -0.43319 2.80427 0.000 0.000 0.000
v 0.15574 -0.44771 2.83468 0.000 0.000 0.000
v 0.15435 -0.41485 2.83648 0.000 0.000 0.000
v 0.17849 -0.43634 2.87957 0.000 0.000 0.000
v 0.15937 -0.46440 2.81527 0.000 0.000 0.000
v 0.19679 -0.46645 2.82721 0.000 0.000 0.000
v 0.17264 -0.48071 2.82706 0.000 0.000 0.000
v 0.13986 -0.43099 2.73667 0.000 0.000 0.000
v 0.16983 -0.46629 2.72651 0.000 0.000 0.000
v 0.15928 -0.48433 2.76314 0.000 0.000 0.000
v 0.21161 -0.48703 2.77267 0.000 0.000 0.000
v 0.19555 -0.48319 2.76844 0.000 0.000 0.000
v 0.18652 -0.47183 2.75648 0.000 0.000 0.000
v 0.17093 -0.51633 2.77902 0.000 0.000 0.000
v 0.20432 -0.53730 2.72461 0.000 0.000 0.000
v 0.16326 -0.47155 2.66485 0.000 0.000 0.000
v 0.19546 -0.47939 2.68783 0.000 0.000 0.000
v 0.16268 -0.50355 2.69932 0.000 0.000 0.000
v 0.21706 -0.49842 2.70851 0.000 0.000 0.000
v 0.18761 -0.45779 2.65336 0.000 0.000 0.000
v 0.15226 -0.45479 2.60100 0.000 0.000 0.000
v 0.19310 -0.44600 2.61428 0.000 0.000 0.000
v 0.14933 -0.46683 2.64186 0.000 0.000 0.000
v 0.15759 -0.45052 2.57080 0.000 0.000 0.000
v 0.20252 -0.44503 2.58442 0.000 0.000 0.000
v 0.15777 -0.45643 2.53156 0.000 0.000 0.000
v 0.19390 -0.44816 2.54304 0.000 0.000 0.000
v 0.19802 -0.46624 2.50168 0.000 0.000 0.000
v 0.18862 -0.53080 2.43621 0.000 0.000 0.000
v 0.16067 -0.52385 2.45000 0.000 0.000 0.000
v 0.17836 -0.49295 2.47410 0.000 0.000 0.000
v 0.23888 -0.51494 2.46701 0.000 0.000 0.000
v 0.19595 -0.56480 2.46017 0.000 0.000 0.000
v 0.17167 -0.55408 2.45000 0.000 0.000 0.000
v 0.30787 -0.49594 2.55913 0.000 0.000 0.000
v 0.22667 -0.45090 2.53615 0.000 0.000 0.000
v 0.26978 -0.47191 2.52581 0.000 0.000 0.000
v 0.24338 -0.47662 2.49939 0.000 0.000 0.000
v 0.30523 -0.50548 2.52007 0.000 0.000 0.000
v 0.27774 -0.51059 2.48330 0.000 0.000 0.000
v 0.18380 -0.53255 2.43652 0.000 0.000 0.000
v 0.27596 -0.47210 2.54304 0.000 0.000 0.000
v 0.26971 -0.56241 2.71771 0.000 0.000 0.000
v 0.29993 -0.55141 2.69932 0.000 0.000 0.000
v 0.32477 -0.54238 2.65795 0.000 0.000 0.000
v 0.33449 -0.53883 2.58212 0.000 0.000 0.000
v 0.33638 -0.53815 2.61200 0.000 0.000 0.000
v 0.11855 -0.61744 2.70162 0.000 0.000 0.000
v 0.17253 -0.59778 2.72920 0.000 0.000 0.000
v 0.08615 -0.62923 2.65567 0.000 0.000 0.000
v 0.07103 -0.63473 2.60050 0.000 0.000 0.000
v 0.06671 -0.63630 2.55224 0.000 0.000 0.000
v 0.04297 -0.64494 2.50398 0.000 0.000 0.000
v 0.10991 -0.62059 2.48099 0.000 0.000 0.000
v 0.15683 -0.60350 2.46996 0.000 0.000 0.000
v 0.22651 -0.57814 2.72920 0.000 0.000 0.000
v 0.33233 -0.53962 2.56374 0.000 0.000 0.000
v 0.20381 -0.58640 2.46017 0.000 0.000 0.000
v 0.25268 -0.56862 2.45826 0.000 0.000 0.000
v 0.32585 -0.54198 2.51777 0.000 0.000 0.000
v 0.29347 -0.55377 2.47871 0.000 0.000 0.000
v 0.20570 -0.58815 2.72000 0.000 0.000 0.000
v 0.20414 -0.58383 2.72000 0.000 0.000 0.000
v 0.20493 -0.58599 2.72461 0.000 0.000 0.000
v 0.36603 -0.60606 2.55910 0.000 0.000 0.000
v 0.33926 -0.55039 2.61909 0.000 0.000 0.000
v 0.33966 -0.54736 2.60730 0.000 0.000 0.000
v 0.22507 -0.62024 2.42878 0.000 0.000 0.000
v 0.22181 -0.63365 2.43851 0.000 0.000 0.000
v 0.23510 -0.63616 2.42649 0.000 0.000 0.000
v 0.22653 -0.64661 2.43851 0.000 0.000 0.000
v 0.23765 -0.65479 2.42878 0.000 0.000 0.000
v 0.38151 -0.61618 2.56027 0.000 0.000 0.000
v 0.37744 -0.61715 2.57380 0.000 0.000 0.000
v 0.36286 -0.61009 2.57503 0.000 0.000 0.000
v 0.37942 -0.61733 2.54630 0.000 0.000 0.000
v 0.36517 -0.61029 2.54293 0.000 0.000 0.000
v 0.23411 -0.63652 2.44301 0.000 0.000 0.000
v 0.22565 -0.62492 2.44532 0.000 0.000 0.000
v 0.21494 -0.62638 2.44080 0.000 0.000 0.000
v 0.23508 -0.65084 2.44532 0.000 0.000 0.000
v 0.22594 -0.65660 2.44080 0.000 0.000 0.000
v 0.31912 -0.66794 2.63957 0.000 0.000 0.000
v 0.31313 -0.63466 2.68783 0.000 0.000 0.000
v 0.33750 -0.59578 2.65622 0.000 0.000 0.000
v 0.33413 -0.65880 2.58901 0.000 0.000 0.000
v 0.34619 -0.58104 2.60969 0.000 0.000 0.000
v 0.33266 -0.64467 2.64762 0.000 0.000 0.000
v 0.29684 -0.67727 2.65106 0.000 0.000 0.000
v 0.29329 -0.65410 2.68783 0.000 0.000 0.000
v 0.30431 -0.68434 2.60739 0.000 0.000 0.000
v 0.28426 -0.61582 2.70851 0.000 0.000 0.000
v 0.34265 -0.58478 2.58097 0.000 0.000 0.000
v 0.31489 -0.67315 2.57522 0.000 0.000 0.000
v 0.32884 -0.65095 2.55913 0.000 0.000 0.000
v 0.33707 -0.63328 2.57292 0.000 0.000 0.000
v 0.34729 -0.63445 2.60050 0.000 0.000 0.000
v 0.31271 -0.59323 2.69703 0.000 0.000 0.000
v 0.25567 -0.68870 2.78674 0.000 0.000 0.000
v 0.24322 -0.70823 2.76359 0.000 0.000 0.000
v 0.24905 -0.71753 2.73924 0.000 0.000 0.000
v 0.16078 -0.67298 2.69242 0.000 0.000 0.000
v 0.14801 -0.71186 2.60280 0.000 0.000 0.000
v 0.13417 -0.68389 2.65567 0.000 0.000 0.000
v 0.09774 -0.68125 2.55224 0.000 0.000 0.000
v 0.09774 -0.68125 2.60050 0.000 0.000 0.000
v 0.14585 -0.71266 2.54995 0.000 0.000 0.000
v 0.13133 -0.68616 2.50398 0.000 0.000 0.000
v 0.09067 -0.66182 2.49478 0.000 0.000 0.000
v 0.07929 -0.67086 2.51960 0.000 0.000 0.000
v 0.06908 -0.66967 2.50398 0.000 0.000 0.000
v 0.12247 -0.65513 2.48560 0.000 0.000 0.000
v 0.23632 -0.73579 2.81279 0.000 0.000 0.000
v 0.22556 -0.70675 2.81707 0.000 0.000 0.000
v 0.21656 -0.72904 2.75044 0.000 0.000 0.000
v 0.19472 -0.69592 2.76844 0.000 0.000 0.000
v 0.18688 -0.64393 2.72000 0.000 0.000 0.000
v 0.19220 -0.70558 2.66256 0.000 0.000 0.000
v 0.20036 -0.72461 2.60050 0.000 0.000 0.000
v 0.22930 -0.70673 2.50168 0.000 0.000 0.000
v 0.21085 -0.72324 2.54304 0.000 0.000 0.000
v 0.18061 -0.70735 2.50398 0.000 0.000 0.000
v 0.19877 -0.64937 2.45146 0.000 0.000 0.000
v 0.18902 -0.67738 2.47414 0.000 0.000 0.000
v 0.17215 -0.63950 2.46746 0.000 0.000 0.000
v 0.26107 -0.73836 2.80427 0.000 0.000 0.000
v 0.25612 -0.72355 2.83468 0.000 0.000 0.000
v 0.27619 -0.74961 2.83648 0.000 0.000 0.000
v 0.28087 -0.71762 2.87957 0.000 0.000 0.000
v 0.24818 -0.70843 2.81527 0.000 0.000 0.000
v 0.27554 -0.68279 2.82721 0.000 0.000 0.000
v 0.24786 -0.68740 2.82706 0.000 0.000 0.000
v 0.25472 -0.74657 2.73667 0.000 0.000 0.000
v 0.25499 -0.70025 2.72651 0.000 0.000 0.000
v 0.23531 -0.69323 2.76314 0.000 0.000 0.000
v 0.27367 -0.65752 2.77267 0.000 0.000 0.000
v 0.26383 -0.67077 2.76844 0.000 0.000 0.000
v 0.26422 -0.68528 2.75648 0.000 0.000 0.000
v 0.22367 -0.66123 2.77902 0.000 0.000 0.000
v 0.23576 -0.62368 2.72461 0.000 0.000 0.000
v 0.24658 -0.70045 2.66485 0.000 0.000 0.000
v 0.26620 -0.67374 2.68783 0.000 0.000 0.000
v 0.22556 -0.67631 2.69932 0.000 0.000 0.000
v 0.27052 -0.64528 2.70851 0.000 0.000 0.000
v 0.27407 -0.69534 2.65336 0.000 0.000 0.000
v 0.24892 -0.72036 2.60100 0.000 0.000 0.000
v 0.28586 -0.70083 2.61428 0.000 0.000 0.000
v 0.23893 -0.71302 2.64186 0.000 0.000 0.000
v 0.37422 -0.60494 2.55967 0.000 0.000 0.000
v 0.25574 -0.72020 2.57080 0.000 0.000 0.000
v 0.29371 -0.69554 2.58442 0.000 0.000 0.000
v 0.25209 -0.71557 2.53156 0.000 0.000 0.000
v 0.28507 -0.69867 2.54304 0.000 0.000 0.000
v 0.27662 -0.68218 2.50168 0.000 0.000 0.000
v 0.22792 -0.63877 2.43621 0.000 0.000 0.000
v 0.21098 -0.66206 2.45000 0.000 0.000 0.000
v 0.24439 -0.67435 2.47410 0.000 0.000 0.000
v 0.27661 -0.61861 2.46701 0.000 0.000 0.000
v 0.21166 -0.60800 2.46017 0.000 0.000 0.000
v 0.19996 -0.63182 2.45000 0.000 0.000 0.000
v 0.34168 -0.58880 2.55913 0.000 0.000 0.000
v 0.30843 -0.67550 2.53615 0.000 0.000 0.000
v 0.32794 -0.63171 2.52581 0.000 0.000 0.000
v 0.30469 -0.64507 2.49939 0.000 0.000 0.000
v 0.33352 -0.58322 2.52007 0.000 0.000 0.000
v 0.30919 -0.59697 2.48330 0.000 0.000 0.000
v 0.22309 -0.64053 2.43652 0.000 0.000 0.000
v 0.33255 -0.62759 2.54304 0.000 0.000 0.000
v 0.33961 -0.59348 2.65489 0.000 0.000 0.000
v 0.33849 -0.57508 2.64206 0.000 0.000 0.000
v 0.34043 -0.59319 2.65070 0.000 0.000 0.000
v 0.33473 -0.56209 2.64116 0.000 0.000 0.000
v 0.33014 -0.63959 2.65610 0.000 0.000 0.000
v 0.32821 -0.63895 2.66029 0.000 0.000 0.000
v 0.34211 -0.58970 2.63884 0.000 0.000 0.000
v 0.34263 -0.58855 2.63464 0.000 0.000 0.000
v 0.34285 -0.63414 2.62134 0.000 0.000 0.000
v 0.34160 -0.63560 2.62534 0.000 0.000 0.000
v 0.30328 -0.49369 2.65489 0.000 0.000 0.000
v 0.31426 -0.50850 2.64206 0.000 0.000 0.000
v 0.30411 -0.49338 2.65070 0.000 0.000 0.000
v 0.31972 -0.52088 2.64116 0.000 0.000 0.000
v 0.26640 -0.46445 2.65610 0.000 0.000 0.000
v 0.26534 -0.46620 2.66029 0.000 0.000 0.000
v 0.30764 -0.49498 2.63884 0.000 0.000 0.000
v 0.30877 -0.49552 2.63464 0.000 0.000 0.000
v 0.27963 -0.46046 2.62134 0.000 0.000 0.000
v 0.27774 -0.46015 2.62534 0.000 0.000 0.000
v 0.36286 -0.65124 2.55654 0.000 0.000 0.000
v 0.36423 -0.63758 2.57611 0.000 0.000 0.000
v 0.34189 -0.62777 2.53643 0.000 0.000 0.000
v 0.35044 -0.64510 2.53778 0.000 0.000 0.000
v 0.35582 -0.62019 2.57958 0.000 0.000 0.000
v 0.34542 -0.61873 2.55780 0.000 0.000 0.000
v 0.30546 -0.67945 2.55645 0.000 0.000 0.000
v 0.32110 -0.64640 2.53514 0.000 0.000 0.000
v 0.33829 -0.64145 2.58086 0.000 0.000 0.000
v 0.32818 -0.64246 2.55778 0.000 0.000 0.000
v 0.33363 -0.67302 2.55649 0.000 0.000 0.000
v 0.15340 -0.40498 2.78424 0.000 0.000 0.000
v 0.28181 -0.75778 2.78424 0.000 0.000 0.000
v 0.26069 -0.74813 2.76916 0.000 0.000 0.000
v 0.14342 -0.42595 2.76916 0.000 0.000 0.000
v 0.28397 -0.43450 2.55654 0.000 0.000 0.000
v 0.29380 -0.44408 2.57611 0.000 0.000 0.000
v 0.31705 -0.45124 2.57380 0.000 0.000 0.000
v 0.32080 -0.44937 2.56027 0.000 0.000 0.000
v 0.31207 -0.46438 2.54293 0.000 0.000 0.000
v 0.28300 -0.46595 2.53643 0.000 0.000 0.000
v 0.27841 -0.44719 2.53778 0.000 0.000 0.000
v 0.31846 -0.44984 2.54630 0.000 0.000 0.000
v 0.29855 -0.46280 2.57958 0.000 0.000 0.000
v 0.31043 -0.46602 2.57503 0.000 0.000 0.000
v 0.32243 -0.46265 2.55967 0.000 0.000 0.000
v 0.31545 -0.46708 2.55910 0.000 0.000 0.000
v 0.29149 -0.47061 2.55780 0.000 0.000 0.000
v 0.24757 -0.43661 2.55649 0.000 0.000 0.000
v 0.22187 -0.44978 2.55645 0.000 0.000 0.000
v 0.25510 -0.46505 2.53514 0.000 0.000 0.000
v 0.27144 -0.45778 2.58086 0.000 0.000 0.000
v 0.26305 -0.46352 2.55778 0.000 0.000 0.000
v 0.31664 -0.50083 2.62476 0.000 0.000 0.000
v 0.31406 -0.48778 2.59717 0.000 0.000 0.000
v 0.27952 -0.44622 2.58912 0.000 0.000 0.000
v 0.28229 -0.45853 2.61670 0.000 0.000 0.000
v 0.34801 -0.58705 2.62476 0.000 0.000 0.000
v 0.34704 -0.57839 2.59717 0.000 0.000 0.000
v 0.34731 -0.63243 2.58912 0.000 0.000 0.000
v 0.34889 -0.64152 2.61670 0.000 0.000 0.000
v 0.41438 -0.53879 2.52225 0.000 0.000 0.000
v 0.41438 -0.53879 2.55375 0.000 0.000 0.000
v 0.40504 -0.51316 2.56950 0.000 0.000 0.000
v 0.40504 -0.51316 2.50650 0.000 0.000 0.000
v 0.40504 -0.51316 2.53800 0.000 0.000 0.000
v 0.39571 -0.48753 2.52225 0.000 0.000 0.000
v 0.39571 -0.48753 2.55375 0.000 0.000 0.000
v 0.39069 -0.54742 2.52225 0.000 0.000 0.000
v 0.39069 -0.54742 2.55375 0.000 0.000 0.000
v 0.38137 -0.52178 2.56950 0.000 0.000 0.000
v 0.38137 -0.52178 2.50650 0.000 0.000 0.000
v 0.37202 -0.49615 2.52225 0.000 0.000 0.000
v 0.37202 -0.49615 2.55375 0.000 0.000 0.000
v 0.37201 -0.52519 2.50394 0.000 0.000 0.000
v 0.39724 -0.59452 2.50394 0.000 0.000 0.000
v 0.37201 -0.52519 2.57204 0.000 0.000 0.000
v 0.39724 -0.59452 2.57204 0.000 0.000 0.000
v 0.33658 -0.53807 2.57204 0.000 0.000 0.000
v 0.36184 -0.60741 2.57204 0.000 0.000 0.000
v 0.33658 -0.53807 2.50394 0.000 0.000 0.000
v 0.36184 -0.60741 2.50394 0.000 0.000 0.000
v 0.38216 -0.52150 2.57054 0.000 0.000 0.000
v 0.39353 -0.55278 2.57054 0.000 0.000 0.000
v 0.38216 -0.52150 2.58824 0.000 0.000 0.000
v 0.39076 -0.54517 2.58824 0.000 0.000 0.000
v 0.33743 -0.53777 2.58824 0.000 0.000 0.000
v 0.34605 -0.56144 2.58824 0.000 0.000 0.000
v 0.33743 -0.53777 2.57054 0.000 0.000 0.000
v 0.34882 -0.56905 2.57054 0.000 0.000 0.000
v 0.36569 -0.56291 2.57054 0.000 0.000 0.000
v 0.35429 -0.53163 2.50574 0.000 0.000 0.000
v 0.38216 -0.52150 2.50574 0.000 0.000 0.000
v 0.36569 -0.56291 2.50574 0.000 0.000 0.000
v 0.39353 -0.55278 2.50574 0.000 0.000 0.000
v 0.37010 -0.52589 2.58764 0.000 0.000 0.000
v 0.36342 -0.52832 2.60444 0.000 0.000 0.000
v 0.37829 -0.54841 2.58764 0.000 0.000 0.000
v 0.36931 -0.54450 2.60444 0.000 0.000 0.000
v 0.34693 -0.53431 2.60444 0.000 0.000 0.000
v 0.35284 -0.55051 2.60444 0.000 0.000 0.000
v 0.34155 -0.53627 2.58764 0.000 0.000 0.000
v 0.34974 -0.55879 2.58764 0.000 0.000 0.000
v 0.34677 -0.45585 2.50394 0.000 0.000 0.000
v 0.34677 -0.45585 2.57204 0.000 0.000 0.000
v 0.31135 -0.46874 2.57204 0.000 0.000 0.000
v 0.31135 -0.46874 2.50394 0.000 0.000 0.000
v 0.37076 -0.49021 2.57054 0.000 0.000 0.000
v 0.37354 -0.49783 2.58824 0.000 0.000 0.000
v 0.32882 -0.51410 2.58824 0.000 0.000 0.000
v 0.32605 -0.50648 2.57054 0.000 0.000 0.000
v 0.34292 -0.50035 2.57054 0.000 0.000 0.000
v 0.34292 -0.50035 2.50574 0.000 0.000 0.000
v 0.37076 -0.49021 2.50574 0.000 0.000 0.000
v 0.36189 -0.50335 2.58764 0.000 0.000 0.000
v 0.35752 -0.51212 2.60444 0.000 0.000 0.000
v 0.34103 -0.51811 2.60444 0.000 0.000 0.000
v 0.33334 -0.51374 2.58764 0.000 0.000 0.000
v 0.17563 -0.51840 2.44080 0.000 0.000 0.000
v 0.18252 -0.52567 2.43851 0.000 0.000 0.000
v 0.18724 -0.53863 2.43851 0.000 0.000 0.000
v 0.27774 -0.51059 2.48330 0.000 0.000 0.000
v 0.19579 -0.54286 2.44532 0.000 0.000 0.000
v 0.19480 -0.52853 2.44301 0.000 0.000 0.000
v 0.22885 -0.47702 2.68783 0.000 0.000 0.000
v 0.24653 -0.51215 2.70851 0.000 0.000 0.000
v 0.26978 -0.47191 2.52581 0.000 0.000 0.000
v 0.25810 -0.45659 2.55913 0.000 0.000 0.000
v 0.23315 -0.44854 2.57522 0.000 0.000 0.000
v 0.25810 -0.45659 2.55913 0.000 0.000 0.000
v 0.33449 -0.53883 2.58212 0.000 0.000 0.000
v 0.31122 -0.49840 2.58097 0.000 0.000 0.000
v 0.18635 -0.51694 2.44532 0.000 0.000 0.000
v 0.21784 -0.44680 2.60739 0.000 0.000 0.000
v 0.17563 -0.51840 2.44080 0.000 0.000 0.000
v 0.18664 -0.54864 2.44080 0.000 0.000 0.000
v 0.19595 -0.56480 2.46017 0.000 0.000 0.000
v 0.20381 -0.58640 2.46017 0.000 0.000 0.000
v 0.17167 -0.55408 2.45000 0.000 0.000 0.000
v 0.21667 -0.45700 2.65106 0.000 0.000 0.000
v 0.26971 -0.56241 2.71771 0.000 0.000 0.000
v 0.27576 -0.46483 2.57292 0.000 0.000 0.000
v 0.21706 -0.49842 2.70851 0.000 0.000 0.000
v 0.19546 -0.47939 2.68783 0.000 0.000 0.000
v 0.16326 -0.47155 2.66485 0.000 0.000 0.000
v 0.21706 -0.49842 2.70851 0.000 0.000 0.000
v 0.19546 -0.47939 2.68783 0.000 0.000 0.000
v 0.11831 -0.50258 2.66256 0.000 0.000 0.000
v 0.11518 -0.54774 2.69242 0.000 0.000 0.000
v 0.16326 -0.47155 2.66485 0.000 0.000 0.000
v 0.14933 -0.46683 2.64186 0.000 0.000 0.000
v 0.13986 -0.43099 2.73667 0.000 0.000 0.000
v 0.15574 -0.44771 2.83468 0.000 0.000 0.000
v 0.14999 -0.43319 2.80427 0.000 0.000 0.000
v 0.15435 -0.41485 2.83648 0.000 0.000 0.000
v 0.14933 -0.46683 2.64186 0.000 0.000 0.000
v 0.20432 -0.53730 2.72461 0.000 0.000 0.000
v 0.21706 -0.49842 2.70851 0.000 0.000 0.000
v 0.19555 -0.48319 2.76844 0.000 0.000 0.000
v 0.15386 -0.55323 2.72000 0.000 0.000 0.000
v 0.19679 -0.46645 2.82721 0.000 0.000 0.000
v 0.21161 -0.48703 2.77267 0.000 0.000 0.000
v 0.17849 -0.43634 2.87957 0.000 0.000 0.000
v 0.18664 -0.54864 2.44080 0.000 0.000 0.000
v 0.17167 -0.55408 2.45000 0.000 0.000 0.000
v 0.15948 -0.54140 2.45146 0.000 0.000 0.000
v 0.17563 -0.51840 2.44080 0.000 0.000 0.000
v 0.18862 -0.53080 2.43621 0.000 0.000 0.000
v 0.27576 -0.46483 2.57292 0.000 0.000 0.000
v 0.27596 -0.47210 2.54304 0.000 0.000 0.000
v 0.25810 -0.45659 2.55913 0.000 0.000 0.000
v 0.16067 -0.52385 2.45000 0.000 0.000 0.000
v 0.29347 -0.55377 2.47871 0.000 0.000 0.000
v 0.22594 -0.65660 2.44080 0.000 0.000 0.000
v 0.22653 -0.64661 2.43851 0.000 0.000 0.000
v 0.22181 -0.63365 2.43851 0.000 0.000 0.000
v 0.30919 -0.59697 2.48330 0.000 0.000 0.000
v 0.22565 -0.62492 2.44532 0.000 0.000 0.000
v 0.23411 -0.63652 2.44301 0.000 0.000 0.000
v 0.29329 -0.65410 2.68783 0.000 0.000 0.000
v 0.28426 -0.61582 2.70851 0.000 0.000 0.000
v 0.32794 -0.63171 2.52581 0.000 0.000 0.000
v 0.32884 -0.65095 2.55913 0.000 0.000 0.000
v 0.31489 -0.67315 2.57522 0.000 0.000 0.000
v 0.32884 -0.65095 2.55913 0.000 0.000 0.000
v 0.34265 -0.58478 2.58097 0.000 0.000 0.000
v 0.23508 -0.65084 2.44532 0.000 0.000 0.000
v 0.30431 -0.68434 2.60739 0.000 0.000 0.000
v 0.22594 -0.65660 2.44080 0.000 0.000 0.000
v 0.21494 -0.62638 2.44080 0.000 0.000 0.000
v 0.21166 -0.60800 2.46017 0.000 0.000 0.000
v 0.19996 -0.63182 2.45000 0.000 0.000 0.000
v 0.29684 -0.67727 2.65106 0.000 0.000 0.000
v 0.33707 -0.63328 2.57292 0.000 0.000 0.000
v 0.27052 -0.64528 2.70851 0.000 0.000 0.000
v 0.26620 -0.67374 2.68783 0.000 0.000 0.000
v 0.24658 -0.70045 2.66485 0.000 0.000 0.000
v 0.27052 -0.64528 2.70851 0.000 0.000 0.000
v 0.26620 -0.67374 2.68783 0.000 0.000 0.000
v 0.16078 -0.67298 2.69242 0.000 0.000 0.000
v 0.19220 -0.70558 2.66256 0.000 0.000 0.000
v 0.24658 -0.70045 2.66485 0.000 0.000 0.000
v 0.23893 -0.71302 2.64186 0.000 0.000 0.000
v 0.25472 -0.74657 2.73667 0.000 0.000 0.000
v 0.25612 -0.72355 2.83468 0.000 0.000 0.000
v 0.27619 -0.74961 2.83648 0.000 0.000 0.000
v 0.26107 -0.73836 2.80427 0.000 0.000 0.000
v 0.23893 -0.71302 2.64186 0.000 0.000 0.000
v 0.23576 -0.62368 2.72461 0.000 0.000 0.000
v 0.27052 -0.64528 2.70851 0.000 0.000 0.000
v 0.26383 -0.67077 2.76844 0.000 0.000 0.000
v 0.18688 -0.64393 2.72000 0.000 0.000 0.000
v 0.27554 -0.68279 2.82721 0.000 0.000 0.000
v 0.27367 -0.65752 2.77267 0.000 0.000 0.000
v 0.28087 -0.71762 2.87957 0.000 0.000 0.000
v 0.19877 -0.64937 2.45146 0.000 0.000 0.000
v 0.19996 -0.63182 2.45000 0.000 0.000 0.000
v 0.21494 -0.62638 2.44080 0.000 0.000 0.000
v 0.22594 -0.65660 2.44080 0.000 0.000 0.000
v 0.22792 -0.63877 2.43621 0.000 0.000 0.000
v 0.33707 -0.63328 2.57292 0.000 0.000 0.000
v 0.32884 -0.65095 2.55913 0.000 0.000 0.000
v 0.33255 -0.62759 2.54304 0.000 0.000 0.000
v 0.21098 -0.66206 2.45000 0.000 0.000 0.000
v 0.36517 -0.61029 2.54293 0.000 0.000 0.000
v 0.34189 -0.62777 2.53643 0.000 0.000 0.000
v 0.33473 -0.56209 2.64116 0.000 0.000 0.000
v 0.33849 -0.57508 2.64206 0.000 0.000 0.000
v 0.31972 -0.52088 2.64116 0.000 0.000 0.000
v 0.31426 -0.50850 2.64206 0.000 0.000 0.000
v 0.31489 -0.67315 2.57522 0.000 0.000 0.000
v 0.30843 -0.67550 2.53615 0.000 0.000 0.000
v 0.32110 -0.64640 2.53514 0.000 0.000 0.000
v 0.31207 -0.46438 2.54293 0.000 0.000 0.000
v 0.28300 -0.46595 2.53643 0.000 0.000 0.000
v 0.23315 -0.44854 2.57522 0.000 0.000 0.000
v 0.22667 -0.45090 2.53615 0.000 0.000 0.000
v 0.25510 -0.46505 2.53514 0.000 0.000 0.000
v 0.41438 -0.53879 2.55375 0.000 0.000 0.000
v 0.41438 -0.53879 2.52225 0.000 0.000 0.000
v 0.40504 -0.51316 2.56950 0.000 0.000 0.000
v 0.40504 -0.51316 2.50650 0.000 0.000 0.000
v 0.39571 -0.48753 2.52225 0.000 0.000 0.000
v 0.39571 -0.48753 2.55375 0.000 0.000 0.000
v 0.37201 -0.52519 2.57204 0.000 0.000 0.000
v 0.39724 -0.59452 2.57204 0.000 0.000 0.000
v 0.33658 -0.53807 2.57204 0.000 0.000 0.000
v 0.36184 -0.60741 2.57204 0.000 0.000 0.000
v 0.33658 -0.53807 2.50394 0.000 0.000 0.000
v 0.37201 -0.52519 2.50394 0.000 0.000 0.000
v 0.36184 -0.60741 2.50394 0.000 0.000 0.000
v 0.39724 -0.59452 2.50394 0.000 0.000 0.000
v 0.36184 -0.60741 2.50394 0.000 0.000 0.000
v 0.39724 -0.59452 2.50394 0.000 0.000 0.000
v 0.36184 -0.60741 2.57204 0.000 0.000 0.000
v 0.39724 -0.59452 2.57204 0.000 0.000 0.000
v 0.38216 -0.52150 2.58824 0.000 0.000 0.000
v 0.39076 -0.54517 2.58824 0.000 0.000 0.000
v 0.33743 -0.53777 2.58824 0.000 0.000 0.000
v 0.34605 -0.56144 2.58824 0.000 0.000 0.000
v 0.34882 -0.56905 2.57054 0.000 0.000 0.000
v 0.34605 -0.56144 2.58824 0.000 0.000 0.000
v 0.39076 -0.54517 2.58824 0.000 0.000 0.000
v 0.39353 -0.55278 2.57054 0.000 0.000 0.000
v 0.36569 -0.56291 2.57054 0.000 0.000 0.000
v 0.36569 -0.56291 2.50574 0.000 0.000 0.000
v 0.39353 -0.55278 2.57054 0.000 0.000 0.000
v 0.39353 -0.55278 2.50574 0.000 0.000 0.000
v 0.39353 -0.55278 2.57054 0.000 0.000 0.000
v 0.39353 -0.55278 2.50574 0.000 0.000 0.000
v 0.38216 -0.52150 2.57054 0.000 0.000 0.000
v 0.38216 -0.52150 2.50574 0.000 0.000 0.000
v 0.36342 -0.52832 2.60444 0.000 0.000 0.000
v 0.36931 -0.54450 2.60444 0.000 0.000 0.000
v 0.34693 -0.53431 2.60444 0.000 0.000 0.000
v 0.35284 -0.55051 2.60444 0.000 0.000 0.000
v 0.37829 -0.54841 2.58764 0.000 0.000 0.000
v 0.36931 -0.54450 2.60444 0.000 0.000 0.000
v 0.34974 -0.55879 2.58764 0.000 0.000 0.000
v 0.35284 -0.55051 2.60444 0.000 0.000 0.000
v 0.34677 -0.45585 2.57204 0.000 0.000 0.000
v 0.31135 -0.46874 2.57204 0.000 0.000 0.000
v 0.31135 -0.46874 2.50394 0.000 0.000 0.000
v 0.34677 -0.45585 2.50394 0.000 0.000 0.000
v 0.31135 -0.46874 2.50394 0.000 0.000 0.000
v 0.31135 -0.46874 2.57204 0.000 0.000 0.000
v 0.34677 -0.45585 2.50394 0.000 0.000 0.000
v 0.34677 -0.45585 2.57204 0.000 0.000 0.000
v 0.37354 -0.49783 2.58824 0.000 0.000 0.000
v 0.32882 -0.51410 2.58824 0.000 0.000 0.000
v 0.37076 -0.49021 2.57054 0.000 0.000 0.000
v 0.37354 -0.49783 2.58824 0.000 0.000 0.000
v 0.32882 -0.51410 2.58824 0.000 0.000 0.000
v 0.32605 -0.50648 2.57054 0.000 0.000 0.000
v 0.34292 -0.50035 2.57054 0.000 0.000 0.000
v 0.37076 -0.49021 2.57054 0.000 0.000 0.000
v 0.34292 -0.50035 2.50574 0.000 0.000 0.000
v 0.37076 -0.49021 2.50574 0.000 0.000 0.000
v 0.37076 -0.49021 2.57054 0.000 0.000 0.000
v 0.37076 -0.49021 2.50574 0.000 0.000 0.000
v 0.35752 -0.51212 2.60444 0.000 0.000 0.000
v 0.34103 -0.51811 2.60444 0.000 0.000 0.000
v 0.36189 -0.50335 2.58764 0.000 0.000 0.000
v 0.33334 -0.51374 2.58764 0.000 0.000 0.000
v 0.35752 -0.51212 2.60444 0.000 0.000 0.000
v 0.34103 -0.51811 2.60444 0.000 0.000 0.000
vt 0.53906 0.00781
vt 0.44531 0.07031
vt 0.44531 0.00781
vt 0.49219 0.00781
vt 0.00781 0.13281
vt 0.05469 0.17969
vt 0.00781 0.13281
vt 0.05469 0.17969
vt 0.00781 0.13281
vt 0.00781 0.21094
vt 0.00781 0.21094
vt 0.05469 0.17969
vt 0.00781 0.21094
vt 0.07031 0.13281
vt 0.86719 0.19531
vt 0.78906 0.13281
vt 0.86719 0.08594
vt 0.96094 0.19531
vt 0.94531 0.07031
vt 0.86719 0.16406
vt 0.83594 0.22656
vt 0.78906 0.17969
vt 0.89844 0.25781
vt 0.74219 0.11719
vt 0.99219 0.08594
vt 0.96094 0.24219
vt 0.99219 0.21094
vt 0.99219 0.16406
vt 0.94531 0.14844
vt 0.78906 0.07031
vt 0.00781 0.10156
vt 0.00781 0.05469
vt 0.02344 0.00781
vt 0.60156 0.49219
vt 0.60156 0.35156
vt 0.63281 0.42969
vt 0.67969 0.28906
vt 0.67969 0.35156
vt 0.60156 0.28906
vt 0.61719 0.21094
vt 0.67969 0.17969
vt 0.69531 0.24219
vt 0.67969 0.21094
vt 0.63281 0.16406
vt 0.17969 0.57031
vt 0.21094 0.58594
vt 0.24219 0.49219
vt 0.28906 0.53906
vt 0.58594 0.53906
vt 0.55469 0.44531
vt 0.53906 0.36719
vt 0.47656 0.22656
vt 0.50781 0.28906
vt 0.53906 0.22656
vt 0.50781 0.10156
vt 0.53906 0.16406
vt 0.58594 0.11719
vt 0.13281 0.55469
vt 0.13281 0.60156
vt 0.10156 0.60156
vt 0.11719 0.67969
vt 0.05469 0.49219
vt 0.22656 0.67969
vt 0.22656 0.63281
vt 0.16406 0.44531
vt 0.05469 0.02344
vt 0.08594 0.42969
vt 0.32031 0.67969
vt 0.05469 0.11719
vt 0.05469 0.10156
vt 0.30469 0.58594
vt 0.52344 0.58594
vt 0.49219 0.46094
vt 0.47656 0.50781
vt 0.13281 0.35156
vt 0.47656 0.55469
vt 0.44531 0.44531
vt 0.46094 0.38281
vt 0.41406 0.39844
vt 0.49219 0.42969
vt 0.46094 0.32031
vt 0.39844 0.35156
vt 0.46094 0.27344
vt 0.41406 0.28906
vt 0.41406 0.22656
vt 0.42969 0.10156
vt 0.49219 0.11719
vt 0.46094 0.17969
vt 0.36719 0.14844
vt 0.39844 0.05469
vt 0.42969 0.05469
vt 0.22656 0.14844
vt 0.36719 0.27344
vt 0.17969 0.10156
vt 0.35156 0.21094
vt 0.16406 0.14844
vt 0.30469 0.17969
vt 0.53906 0.52344
vt 0.21094 0.08594
vt 0.71094 0.00781
vt 0.78906 0.00781
vt 0.86719 0.00781
vt 0.99219 0.00781
vt 0.94531 0.00781
vt 0.69531 0.53906
vt 0.61719 0.60156
vt 0.74219 0.44531
vt 0.75781 0.35156
vt 0.75781 0.28906
vt 0.75781 0.19531
vt 0.67969 0.11719
vt 0.63281 0.07031
vt 0.53906 0.64844
vt 0.22656 0.22656
vt 0.36719 0.02344
vt 0.32031 0.07031
vt 0.16406 0.21094
vt 0.08594 0.21094
vt 0.46094 0.35156
vt 0.46094 0.35156
vt 0.46094 0.35156
vt 0.96094 0.46094
vt 0.44531 0.00781
vt 0.49219 0.00781
vt 0.00781 0.13281
vt 0.05469 0.17969
vt 0.00781 0.13281
vt 0.05469 0.17969
vt 0.00781 0.13281
vt 0.96094 0.60156
vt 0.96094 0.55469
vt 0.96094 0.50781
vt 0.96094 0.63281
vt 0.96094 0.67969
vt 0.00781 0.21094
vt 0.00781 0.21094
vt 0.05469 0.17969
vt 0.00781 0.21094
vt 0.07031 0.13281
vt 0.86719 0.19531
vt 0.78906 0.13281
vt 0.86719 0.08594
vt 0.96094 0.19531
vt 0.94531 0.07031
vt 0.86719 0.16406
vt 0.83594 0.22656
vt 0.78906 0.17969
vt 0.89844 0.25781
vt 0.74219 0.11719
vt 0.99219 0.08594
vt 0.96094 0.24219
vt 0.99219 0.21094
vt 0.99219 0.16406
vt 0.94531 0.14844
vt 0.78906 0.07031
vt 0.00781 0.10156
vt 0.00781 0.05469
vt 0.02344 0.00781
vt 0.60156 0.49219
vt 0.60156 0.35156
vt 0.63281 0.42969
vt 0.67969 0.28906
vt 0.67969 0.35156
vt 0.60156 0.28906
vt 0.61719 0.21094
vt 0.67969 0.17969
vt 0.69531 0.24219
vt 0.67969 0.21094
vt 0.63281 0.16406
vt 0.17969 0.57031
vt 0.21094 0.58594
vt 0.24219 0.49219
vt 0.28906 0.53906
vt 0.58594 0.53906
vt 0.55469 0.44531
vt 0.53906 0.36719
vt 0.47656 0.22656
vt 0.50781 0.28906
vt 0.53906 0.22656
vt 0.50781 0.10156
vt 0.53906 0.16406
vt 0.58594 0.11719
vt 0.13281 0.55469
vt 0.13281 0.60156
vt 0.10156 0.60156
vt 0.11719 0.67969
vt 0.05469 0.49219
vt 0.22656 0.67969
vt 0.22656 0.63281
vt 0.16406 0.44531
vt 0.05469 0.02344
vt 0.08594 0.42969
vt 0.32031 0.67969
vt 0.05469 0.11719
vt 0.05469 0.10156
vt 0.30469 0.58594
vt 0.52344 0.58594
vt 0.49219 0.46094
vt 0.47656 0.50781
vt 0.13281 0.35156
vt 0.47656 0.55469
vt 0.44531 0.44531
vt 0.46094 0.38281
vt 0.41406 0.39844
vt 0.49219 0.42969
vt 0.99219 0.60156
vt 0.46094 0.32031
vt 0.39844 0.35156
vt 0.46094 0.27344
vt 0.41406 0.28906
vt 0.41406 0.22656
vt 0.42969 0.10156
vt 0.49219 0.11719
vt 0.46094 0.17969
vt 0.36719 0.14844
vt 0.39844 0.05469
vt 0.42969 0.05469
vt 0.22656 0.14844
vt 0.36719 0.27344
vt 0.17969 0.10156
vt 0.35156 0.21094
vt 0.16406 0.14844
vt 0.30469 0.17969
vt 0.53906 0.52344
vt 0.21094 0.08594
vt 0.44531 0.07031
vt 0.49219 0.00781
vt 0.53906 0.00781
vt 0.44531 0.00781
vt 0.49219 0.00781
vt 0.44531 0.00781
vt 0.44531 0.07031
vt 0.53906 0.00781
vt 0.49219 0.00781
vt 0.44531 0.00781
vt 0.44531 0.07031
vt 0.49219 0.00781
vt 0.53906 0.00781
vt 0.44531 0.00781
vt 0.49219 0.00781
vt 0.44531 0.00781
vt 0.44531 0.07031
vt 0.53906 0.00781
vt 0.49219 0.00781
vt 0.44531 0.00781
vt 0.86719 0.60156
vt 0.86719 0.55469
vt 0.86719 0.67969
vt 0.86719 0.63281
vt 0.86719 0.50781
vt 0.86719 0.46094
vt 0.69531 0.58594
vt 0.75781 0.67969
vt 0.80469 0.50781
vt 0.77344 0.46094
vt 0.77344 0.58594
vt 0.14844 0.57031
vt 0.14844 0.57031
vt 0.16406 0.49219
vt 0.16406 0.49219
vt 0.86719 0.60156
vt 0.86719 0.55469
vt 0.96094 0.55469
vt 0.96094 0.60156
vt 0.96094 0.67969
vt 0.86719 0.67969
vt 0.86719 0.63281
vt 0.96094 0.63281
vt 0.86719 0.50781
vt 0.96094 0.50781
vt 0.99219 0.60156
vt 0.96094 0.46094
vt 0.86719 0.46094
vt 0.77344 0.58594
vt 0.69531 0.58594
vt 0.75781 0.67969
vt 0.80469 0.50781
vt 0.77344 0.46094
vt 0.85156 0.78906
vt 0.85156 0.69531
vt 0.99219 0.69531
vt 0.99219 0.78906
vt 0.85156 0.78906
vt 0.85156 0.69531
vt 0.99219 0.69531
vt 0.99219 0.78906
vt 0.67969 0.74219
vt 0.58594 0.74219
vt 0.50781 0.74219
vt 0.75781 0.74219
vt 0.63281 0.61719
vt 0.67969 0.74219
vt 0.58594 0.74219
vt 0.57031 0.85156
vt 0.46094 0.85156
vt 0.36719 0.85156
vt 0.64844 0.85156
vt 0.57031 0.85156
vt 0.46094 0.85156
vt 0.11719 0.69531
vt 0.35156 0.69531
vt 0.11719 0.89844
vt 0.35156 0.89844
vt 0.61719 0.99219
vt 0.85156 0.99219
vt 0.11719 0.69531
vt 0.35156 0.69531
vt 0.00781 0.71094
vt 0.00781 0.61719
vt 0.07031 0.71094
vt 0.07031 0.61719
vt 0.33594 0.99219
vt 0.33594 0.91406
vt 0.00781 0.71094
vt 0.00781 0.61719
vt 0.10156 0.92969
vt 0.66406 0.85156
vt 0.66406 0.75781
vt 0.77344 0.85156
vt 0.77344 0.75781
vt 0.77344 0.69531
vt 0.77344 0.74219
vt 0.83594 0.69531
vt 0.83594 0.74219
vt 0.85156 0.85156
vt 0.85156 0.80469
vt 0.77344 0.69531
vt 0.83594 0.69531
vt 0.35156 0.69531
vt 0.35156 0.89844
vt 0.85156 0.99219
vt 0.35156 0.69531
vt 0.00781 0.61719
vt 0.07031 0.61719
vt 0.33594 0.91406
vt 0.00781 0.61719
vt 0.10156 0.92969
vt 0.77344 0.85156
vt 0.77344 0.75781
vt 0.83594 0.69531
vt 0.83594 0.74219
vt 0.85156 0.80469
vt 0.83594 0.69531
vt 0.05469 0.17969
vt 0.07031 0.13281
vt 0.07031 0.13281
vt 0.10156 0.16406
vt 0.41406 0.08594
vt 0.41406 0.11719
vt 0.42969 0.53906
vt 0.44531 0.60156
vt 0.30469 0.24219
vt 0.32031 0.30469
vt 0.35156 0.33594
vt 0.24219 0.05469
vt 0.25781 0.22656
vt 0.25781 0.14844
vt 0.42969 0.13281
vt 0.36719 0.39844
vt 0.44531 0.11719
vt 0.42969 0.08594
vt 0.53906 0.05469
vt 0.57031 0.00781
vt 0.52344 0.08594
vt 0.39844 0.47656
vt 0.47656 0.67969
vt 0.25781 0.08594
vt 0.11719 0.11719
vt 0.16406 0.07031
vt 0.21094 0.00781
vt 0.05469 0.30469
vt 0.13281 0.28906
vt 0.32031 0.38281
vt 0.36719 0.46094
vt 0.21094 0.32031
vt 0.24219 0.30469
vt 0.19531 0.47656
vt 0.07031 0.55469
vt 0.11719 0.53906
vt 0.07031 0.58594
vt 0.27344 0.32031
vt 0.36719 0.61719
vt 0.41406 0.67969
vt 0.03906 0.39844
vt 0.36719 0.53906
vt 0.00781 0.49219
vt 0.00781 0.39844
vt 0.00781 0.58594
vt 0.49219 0.52344
vt 0.49219 0.47656
vt 0.53906 0.46094
vt 0.57031 0.52344
vt 0.53906 0.55469
vt 0.33594 0.30469
vt 0.33594 0.27344
vt 0.36719 0.30469
vt 0.57031 0.47656
vt 0.27344 0.11719
vt 0.05469 0.17969
vt 0.07031 0.13281
vt 0.07031 0.13281
vt 0.10156 0.16406
vt 0.41406 0.08594
vt 0.41406 0.11719
vt 0.42969 0.53906
vt 0.44531 0.60156
vt 0.30469 0.24219
vt 0.32031 0.30469
vt 0.35156 0.33594
vt 0.24219 0.05469
vt 0.25781 0.14844
vt 0.42969 0.13281
vt 0.36719 0.39844
vt 0.44531 0.11719
vt 0.42969 0.08594
vt 0.53906 0.05469
vt 0.52344 0.08594
vt 0.39844 0.47656
vt 0.25781 0.08594
vt 0.11719 0.11719
vt 0.16406 0.07031
vt 0.21094 0.00781
vt 0.05469 0.30469
vt 0.13281 0.28906
vt 0.36719 0.46094
vt 0.32031 0.38281
vt 0.21094 0.32031
vt 0.24219 0.30469
vt 0.19531 0.47656
vt 0.07031 0.55469
vt 0.07031 0.58594
vt 0.11719 0.53906
vt 0.27344 0.32031
vt 0.36719 0.61719
vt 0.41406 0.67969
vt 0.03906 0.39844
vt 0.36719 0.53906
vt 0.00781 0.49219
vt 0.00781 0.39844
vt 0.00781 0.58594
vt 0.53906 0.46094
vt 0.49219 0.47656
vt 0.49219 0.52344
vt 0.57031 0.52344
vt 0.53906 0.55469
vt 0.33594 0.30469
vt 0.36719 0.30469
vt 0.33594 0.27344
vt 0.57031 0.47656
vt 0.96094 0.41406
vt 0.86719 0.41406
vt 0.49219 0.00781
vt 0.44531 0.00781
vt 0.49219 0.00781
vt 0.44531 0.00781
vt 0.72656 0.55469
vt 0.71094 0.63281
vt 0.77344 0.41406
vt 0.96094 0.41406
vt 0.86719 0.41406
vt 0.72656 0.55469
vt 0.71094 0.63281
vt 0.77344 0.41406
vt 0.46094 0.75781
vt 0.57031 0.75781
vt 0.36719 0.75781
vt 0.64844 0.75781
vt 0.57031 0.75781
vt 0.46094 0.75781
vt 0.61719 0.86719
vt 0.85156 0.86719
vt 0.11719 0.89844
vt 0.35156 0.89844
vt 0.36719 0.99219
vt 0.36719 0.86719
vt 0.60156 0.99219
vt 0.60156 0.86719
vt 0.99219 0.39844
vt 0.99219 0.27344
vt 0.78906 0.39844
vt 0.78906 0.27344
vt 0.17969 0.99219
vt 0.17969 0.91406
vt 0.07031 0.71094
vt 0.07031 0.61719
vt 0.16406 0.92969
vt 0.16406 0.99219
vt 0.00781 0.99219
vt 0.00781 0.92969
vt 0.10156 0.91406
vt 0.10156 0.72656
vt 0.00781 0.91406
vt 0.00781 0.72656
vt 0.99219 0.99219
vt 0.99219 0.80469
vt 0.88281 0.99219
vt 0.88281 0.80469
vt 0.78906 0.85156
vt 0.78906 0.80469
vt 0.77344 0.74219
vt 0.83594 0.74219
vt 0.36719 0.69531
vt 0.36719 0.74219
vt 0.44531 0.69531
vt 0.44531 0.74219
vt 0.85156 0.86719
vt 0.35156 0.89844
vt 0.60156 0.99219
vt 0.60156 0.86719
vt 0.99219 0.39844
vt 0.78906 0.39844
vt 0.99219 0.27344
vt 0.78906 0.27344
vt 0.17969 0.91406
vt 0.07031 0.61719
vt 0.00781 0.92969
vt 0.00781 0.99219
vt 0.16406 0.99219
vt 0.16406 0.92969
vt 0.10156 0.91406
vt 0.00781 0.91406
vt 0.10156 0.72656
vt 0.00781 0.72656
vt 0.99219 0.99219
vt 0.99219 0.80469
vt 0.78906 0.80469
vt 0.83594 0.74219
vt 0.36719 0.69531
vt 0.44531 0.69531
vt 0.36719 0.74219
vt 0.44531 0.74219
usemtl m0
f 2/2 1/1 4/4
f 2/2 4/4 3/3
f 14/14 9/9 8/8
f 8/8 9/9 13/13
f 13/13 9/9 344/344
f 345/345 7/7 6/6
f 346/346 5/5 12/12
f 11/11 5/5 6/6
f 12/12 5/5 11/11
f 6/6 7/7 10/10
f 10/10 7/7 8/8
f 15/15 23/23 21/21
f 15/15 21/21 22/22
f 19/19 25/25 29/29
f 18/18 27/27 26/26
f 104/104 103/103 19/19
f 103/103 25/25 19/19
f 104/104 19/19 102/102
f 19/19 17/17 102/102
f 16/16 22/22 24/24
f 100/100 101/101 30/30
f 27/27 18/18 29/29
f 25/25 28/28 29/29
f 19/19 29/29 17/17
f 17/17 29/29 20/20
f 100/100 30/30 24/24
f 30/30 16/16 24/24
f 101/101 102/102 30/30
f 30/30 102/102 17/17
f 30/30 17/17 16/16
f 17/17 20/20 16/16
f 16/16 15/15 22/22
f 20/20 15/15 16/16
f 18/18 15/15 20/20
f 29/29 18/18 20/20
f 18/18 26/26 23/23
f 15/15 18/18 23/23
f 39/39 54/54 40/40
f 93/93 85/85 84/84
f 116/116 89/89 97/97
f 96/96 347/347 94/94
f 38/38 109/109 108/108
f 348/348 349/349 89/89
f 82/82 93/93 84/84
f 76/76 350/350 74/74
f 80/80 78/78 51/51
f 34/34 36/36 105/105
f 38/38 37/37 109/109
f 351/351 350/350 76/76
f 72/72 351/351 76/76
f 352/352 97/97 95/95
f 44/44 57/57 112/112
f 56/56 57/57 44/44
f 42/42 110/110 109/109
f 41/41 111/111 110/110
f 42/42 41/41 110/110
f 50/50 36/36 34/34
f 44/44 112/112 111/111
f 44/44 111/111 41/41
f 352/352 95/95 93/93
f 93/93 95/95 85/85
f 114/114 117/117 92/92
f 353/353 352/352 93/93
f 353/353 93/93 354/354
f 97/97 89/89 95/95
f 99/99 94/94 355/355
f 72/72 49/49 106/106
f 113/113 72/72 106/106
f 81/81 78/78 82/82
f 78/78 79/79 82/82
f 81/81 51/51 78/78
f 49/49 105/105 106/106
f 49/49 34/34 105/105
f 84/84 85/85 83/83
f 83/83 85/85 52/52
f 114/114 92/92 356/356
f 356/356 92/92 357/357
f 35/35 38/38 36/36
f 89/89 358/358 88/88
f 40/40 56/56 44/44
f 35/35 39/39 38/38
f 38/38 39/39 37/37
f 359/359 354/354 82/82
f 359/359 82/82 79/79
f 354/354 93/93 82/82
f 51/51 39/39 35/35
f 358/358 360/360 87/87
f 91/91 361/361 348/348
f 116/116 90/90 89/89
f 116/116 115/115 90/90
f 92/92 96/96 94/94
f 92/92 117/117 96/96
f 107/107 38/38 108/108
f 36/36 38/38 107/107
f 57/57 362/362 112/112
f 362/362 363/363 112/112
f 90/90 348/348 89/89
f 88/88 87/87 56/56
f 358/358 87/87 88/88
f 56/56 55/55 57/57
f 87/87 55/55 56/56
f 57/57 364/364 362/362
f 90/90 91/91 348/348
f 57/57 55/55 364/364
f 84/84 83/83 81/81
f 54/54 56/56 40/40
f 53/53 54/54 39/39
f 51/51 53/53 39/39
f 85/85 88/88 52/52
f 53/53 52/52 54/54
f 83/83 52/52 53/53
f 43/43 41/41 42/42
f 80/80 51/51 50/50
f 36/36 50/50 35/35
f 365/365 359/359 79/79
f 365/365 79/79 77/77
f 77/77 79/79 78/78
f 77/77 80/80 73/73
f 350/350 77/77 74/74
f 350/350 365/365 77/77
f 366/366 351/351 72/72
f 113/113 366/366 72/72
f 88/88 56/56 52/52
f 52/52 56/56 54/54
f 85/85 95/95 88/88
f 74/74 77/77 73/73
f 117/117 118/118 347/347
f 117/117 347/347 96/96
f 92/92 94/94 99/99
f 349/349 86/86 358/358
f 358/358 86/86 360/360
f 361/361 86/86 348/348
f 348/348 86/86 349/349
f 89/89 349/349 358/358
f 92/92 99/99 367/367
f 357/357 92/92 367/367
f 69/69 70/70 31/31
f 70/70 66/66 32/32
f 69/69 368/368 70/70
f 70/70 369/369 66/66
f 368/368 369/369 70/70
f 369/369 370/370 66/66
f 66/66 370/370 33/33
f 371/371 372/372 75/75
f 61/61 64/64 63/63
f 47/47 373/373 374/374
f 47/47 374/374 48/48
f 375/375 376/376 65/65
f 75/75 375/375 65/65
f 61/61 46/46 64/64
f 58/58 45/45 60/60
f 45/45 47/47 48/48
f 59/59 46/46 61/61
f 45/45 48/48 46/46
f 58/58 377/377 47/47
f 58/58 47/47 45/45
f 378/378 379/379 380/380
f 378/378 62/62 379/379
f 377/377 381/381 373/373
f 377/377 373/373 47/47
f 382/382 383/383 68/68
f 71/71 382/382 68/68
f 384/384 75/75 67/67
f 67/67 75/75 65/65
f 46/46 71/71 64/64
f 48/48 71/71 46/46
f 71/71 385/385 382/382
f 48/48 374/374 385/385
f 48/48 385/385 71/71
f 379/379 67/67 65/65
f 62/62 67/67 379/379
f 386/386 384/384 67/67
f 386/386 387/387 384/384
f 386/386 67/67 62/62
f 71/71 68/68 63/63
f 64/64 71/71 63/63
f 60/60 45/45 59/59
f 45/45 46/46 59/59
f 386/386 62/62 388/388
f 388/388 62/62 378/378
f 371/371 75/75 384/384
f 387/387 371/371 384/384
f 372/372 375/375 75/75
f 389/389 390/390 98/98
f 390/390 391/391 98/98
f 392/392 393/393 98/98
f 40/40 41/41 43/43
f 40/40 44/44 41/41
f 40/40 43/43 42/42
f 42/42 109/109 37/37
f 39/39 40/40 37/37
f 37/37 40/40 42/42
f 394/394 395/395 396/396
f 27/27 29/29 28/28
f 120/120 121/121 119/119
f 391/391 397/397 98/98
f 397/397 392/392 98/98
f 98/98 393/393 389/389
f 36/36 107/107 105/105
f 95/95 89/89 88/88
f 398/398 116/116 97/97
f 77/77 78/78 80/80
f 50/50 51/51 35/35
f 2/2 124/124 1/1
f 2/2 123/123 124/124
f 139/139 128/128 129/129
f 128/128 138/138 129/129
f 138/138 399/399 129/129
f 400/400 126/126 127/127
f 401/401 137/137 125/125
f 136/136 126/126 125/125
f 137/137 136/136 125/125
f 126/126 135/135 127/127
f 135/135 128/128 127/127
f 140/140 146/146 148/148
f 140/140 147/147 146/146
f 144/144 154/154 150/150
f 143/143 151/151 152/152
f 104/104 144/144 103/103
f 144/144 150/150 103/103
f 142/142 144/144 102/102
f 144/144 104/104 102/102
f 141/141 149/149 147/147
f 100/100 155/155 101/101
f 152/152 154/154 143/143
f 150/150 154/154 153/153
f 144/144 142/142 154/154
f 142/142 145/145 154/154
f 100/100 149/149 155/155
f 155/155 149/149 141/141
f 101/101 155/155 102/102
f 155/155 142/142 102/102
f 155/155 141/141 142/142
f 142/142 141/141 145/145
f 141/141 147/147 140/140
f 145/145 141/141 140/140
f 143/143 145/145 140/140
f 154/154 145/145 143/143
f 143/143 148/148 151/151
f 140/140 148/148 143/143
f 164/164 165/165 179/179
f 219/219 210/210 211/211
f 116/116 223/223 215/215
f 222/222 220/220 402/402
f 163/163 108/108 109/109
f 403/403 215/215 404/404
f 208/208 210/210 219/219
f 201/201 199/199 405/405
f 205/205 176/176 203/203
f 159/159 105/105 161/161
f 163/163 109/109 162/162
f 406/406 201/201 405/405
f 197/197 201/201 406/406
f 407/407 221/221 223/223
f 169/169 112/112 182/182
f 181/181 169/169 182/182
f 167/167 109/109 110/110
f 166/166 110/110 111/111
f 167/167 110/110 166/166
f 175/175 159/159 161/161
f 169/169 111/111 112/112
f 169/169 166/166 111/111
f 407/407 219/219 221/221
f 219/219 211/211 221/221
f 114/114 218/218 117/117
f 408/408 219/219 407/407
f 408/408 409/409 219/219
f 223/223 221/221 215/215
f 225/225 410/410 220/220
f 197/197 106/106 174/174
f 113/113 106/106 197/197
f 208/208 207/207 210/210
f 209/209 207/207 178/178
f 174/174 106/106 105/105
f 174/174 105/105 159/159
f 210/210 209/209 211/211
f 209/209 177/177 211/211
f 114/114 356/356 218/218
f 356/356 411/411 218/218
f 160/160 161/161 163/163
f 215/215 214/214 412/412
f 165/165 169/169 181/181
f 160/160 163/163 164/164
f 163/163 162/162 164/164
f 413/413 208/208 409/409
f 413/413 204/204 208/208
f 409/409 208/208 219/219
f 176/176 160/160 164/164
f 412/412 213/213 414/414
f 217/217 403/403 415/415
f 116/116 215/215 216/216
f 116/116 216/216 115/115
f 218/218 220/220 222/222
f 218/218 222/222 117/117
f 107/107 108/108 163/163
f 161/161 107/107 163/163
f 182/182 112/112 416/416
f 416/416 112/112 363/363
f 216/216 215/215 403/403
f 214/214 181/181 213/213
f 412/412 214/214 213/213
f 181/181 182/182 180/180
f 213/213 181/181 180/180
f 182/182 416/416 417/417
f 216/216 403/403 217/217
f 182/182 417/417 180/180
f 210/210 207/207 209/209
f 179/179 165/165 181/181
f 178/178 164/164 179/179
f 176/176 164/164 178/178
f 211/211 177/177 214/214
f 178/178 179/179 177/177
f 209/209 178/178 177/177
f 168/168 167/167 166/166
f 205/205 175/175 176/176
f 161/161 160/160 175/175
f 418/418 204/204 413/413
f 418/418 202/202 204/204
f 202/202 203/203 204/204
f 202/202 198/198 205/205
f 405/405 199/199 202/202
f 405/405 202/202 418/418
f 366/366 197/197 406/406
f 113/113 197/197 366/366
f 214/214 177/177 181/181
f 177/177 179/179 181/181
f 211/211 214/214 221/221
f 199/199 198/198 202/202
f 117/117 402/402 118/118
f 117/117 222/222 402/402
f 218/218 225/225 220/220
f 404/404 412/412 212/212
f 412/412 414/414 212/212
f 415/415 403/403 212/212
f 403/403 404/404 212/212
f 215/215 412/412 404/404
f 218/218 419/419 225/225
f 411/411 419/419 218/218
f 194/194 156/156 195/195
f 195/195 157/157 191/191
f 194/194 195/195 420/420
f 195/195 191/191 421/421
f 420/420 195/195 421/421
f 421/421 191/191 422/422
f 191/191 158/158 422/422
f 246/246 130/130 247/247
f 130/130 131/131 247/247
f 248/248 134/134 249/249
f 134/134 133/133 249/249
f 130/130 246/246 133/133
f 246/246 249/249 133/133
f 247/247 131/131 250/250
f 131/131 132/132 250/250
f 206/206 133/133 134/134
f 130/130 133/133 206/206
f 131/131 206/206 132/132
f 131/131 130/130 206/206
f 423/423 200/200 424/424
f 186/186 188/188 189/189
f 172/172 425/425 426/426
f 172/172 173/173 425/425
f 427/427 190/190 428/428
f 200/200 190/190 427/427
f 186/186 189/189 171/171
f 183/183 185/185 170/170
f 170/170 173/173 172/172
f 184/184 186/186 171/171
f 170/170 171/171 173/173
f 183/183 172/172 429/429
f 183/183 170/170 172/172
f 430/430 431/431 432/432
f 430/430 432/432 187/187
f 429/429 426/426 433/433
f 429/429 172/172 426/426
f 434/434 193/193 435/435
f 196/196 193/193 434/434
f 436/436 192/192 200/200
f 192/192 190/190 200/200
f 171/171 189/189 196/196
f 173/173 171/171 196/196
f 196/196 434/434 437/437
f 173/173 437/437 425/425
f 173/173 196/196 437/437
f 432/432 190/190 192/192
f 187/187 432/432 192/192
f 438/438 192/192 436/436
f 438/438 436/436 439/439
f 438/438 187/187 192/192
f 196/196 188/188 193/193
f 189/189 188/188 196/196
f 185/185 184/184 170/170
f 170/170 184/184 171/171
f 438/438 440/440 187/187
f 440/440 430/430 187/187
f 423/423 436/436 200/200
f 439/439 436/436 423/423
f 424/424 200/200 427/427
f 441/441 442/442 224/224
f 442/442 443/443 224/224
f 444/444 224/224 445/445
f 165/165 168/168 166/166
f 165/165 166/166 169/169
f 165/165 167/167 168/168
f 167/167 162/162 109/109
f 164/164 162/162 165/165
f 162/162 167/167 165/165
f 446/446 447/447 448/448
f 152/152 153/153 154/154
f 119/119 121/121 120/120
f 444/444 449/449 224/224
f 449/449 441/441 224/224
f 224/224 443/443 445/445
f 161/161 105/105 107/107
f 221/221 214/214 215/215
f 398/398 223/223 116/116
f 206/206 122/122 132/132
f 206/206 450/450 122/122
f 202/202 205/205 203/203
f 175/175 160/160 176/176
f 250/250 132/132 251/251
f 132/132 122/122 251/251
f 451/451 251/251 450/450
f 251/251 122/122 450/450
f 226/226 228/228 227/227
f 226/226 227/227 229/229
f 226/226 230/230 228/228
f 226/226 231/231 230/230
f 232/232 233/233 452/452
f 232/232 452/452 453/453
f 232/232 234/234 233/233
f 232/232 235/235 234/234
f 236/236 237/237 238/238
f 236/236 239/239 237/237
f 236/236 238/238 240/240
f 236/236 240/240 241/241
f 242/242 454/454 243/243
f 242/242 455/455 454/454
f 242/242 243/243 244/244
f 242/242 244/244 245/245
f 456/456 252/252 256/256
f 248/248 249/249 253/253
f 249/249 457/457 253/253
f 246/246 256/256 249/249
f 256/256 457/457 249/249
f 250/250 254/254 247/247
f 254/254 456/456 247/247
f 250/250 251/251 254/254
f 251/251 255/255 254/254
f 251/251 451/451 255/255
f 451/451 458/458 255/255
f 81/81 83/83 53/53
f 84/84 81/81 82/82
f 207/207 176/176 178/178
f 207/207 208/208 203/203
f 208/208 204/204 203/203
f 81/81 53/53 51/51
f 207/207 203/203 176/176
f 257/257 379/379 260/260
f 379/379 65/65 260/260
f 190/190 432/432 259/259
f 432/432 258/258 259/259
f 261/261 262/262 264/264
f 262/262 263/263 264/264
f 268/268 265/265 267/267
f 265/265 266/266 267/267
f 267/267 261/261 268/268
f 261/261 264/264 268/268
f 270/270 263/263 269/269
f 263/263 262/262 269/269
f 271/271 265/265 268/268
f 264/264 271/271 268/268
f 263/263 270/270 271/271
f 263/263 271/271 264/264
f 271/271 270/270 272/272
f 271/271 272/272 459/459
f 269/269 273/273 270/270
f 273/273 272/272 270/270
f 460/460 459/459 273/273
f 459/459 272/272 273/273
f 274/274 275/275 461/461
f 462/462 267/267 276/276
f 267/267 266/266 276/276
f 261/261 267/267 274/274
f 267/267 462/462 274/274
f 269/269 262/262 277/277
f 262/262 461/461 277/277
f 278/278 273/273 277/277
f 273/273 269/269 277/277
f 463/463 460/460 278/278
f 460/460 273/273 278/278
f 246/246 247/247 256/256
f 247/247 456/456 256/256
f 461/461 262/262 274/274
f 262/262 261/261 274/274
f 256/256 252/252 457/457
f 462/462 275/275 274/274
f 287/287 291/291 288/288
f 288/288 291/291 289/289
f 290/290 291/291 287/287
f 292/292 293/293 291/291
f 293/293 289/289 291/291
f 290/290 292/292 291/291
f 464/464 295/295 465/465
f 295/295 294/294 465/465
f 466/466 296/296 464/464
f 296/296 295/295 464/464
f 465/465 294/294 467/467
f 294/294 297/297 467/467
f 468/468 298/298 469/469
f 298/298 299/299 469/469
f 469/469 299/299 466/466
f 299/299 296/296 466/466
f 467/467 297/297 468/468
f 297/297 298/298 468/468
f 300/300 302/302 301/301
f 302/302 303/303 301/301
f 470/470 304/304 471/471
f 304/304 305/305 471/471
f 472/472 306/306 473/473
f 306/306 307/307 473/473
f 474/474 475/475 476/476
f 475/475 477/477 476/476
f 478/478 479/479 480/480
f 479/479 481/481 480/480
f 309/309 308/308 311/311
f 308/308 310/310 311/311
f 482/482 312/312 483/483
f 312/312 313/313 483/483
f 484/484 314/314 485/485
f 314/314 315/315 485/485
f 317/317 318/318 319/319
f 318/318 320/320 319/319
f 486/486 316/316 487/487
f 487/487 316/316 488/488
f 316/316 489/489 488/488
f 490/490 491/491 492/492
f 491/491 493/493 492/492
f 494/494 495/495 496/496
f 495/495 497/497 496/496
f 323/323 321/321 324/324
f 321/321 322/322 324/324
f 498/498 325/325 499/499
f 325/325 326/326 499/499
f 500/500 327/327 501/501
f 327/327 328/328 501/501
f 502/502 503/503 504/504
f 503/503 505/505 504/504
f 300/300 329/329 302/302
f 329/329 330/330 302/302
f 470/470 506/506 304/304
f 506/506 331/331 304/304
f 472/472 507/507 306/306
f 507/507 332/332 306/306
f 474/474 508/508 475/475
f 508/508 509/509 475/475
f 510/510 511/511 512/512
f 511/511 513/513 512/512
f 310/310 308/308 334/334
f 308/308 333/333 334/334
f 482/482 514/514 312/312
f 514/514 335/335 312/312
f 484/484 515/515 314/314
f 515/515 336/336 314/314
f 317/317 338/338 318/318
f 338/338 339/339 318/318
f 516/516 337/337 517/517
f 517/517 337/337 518/518
f 337/337 519/519 518/518
f 520/520 521/521 522/522
f 521/521 523/523 522/522
f 524/524 496/496 525/525
f 496/496 497/497 525/525
f 322/322 321/321 341/341
f 321/321 340/340 341/341
f 498/498 526/526 325/325
f 526/526 342/342 325/325
f 500/500 527/527 327/327
f 527/527 343/343 327/327
f 528/528 529/529 530/530
f 529/529 531/531 530/530
usemtl m1
f 279/279 280/280 282/282
f 280/280 281/281 282/282
f 283/283 286/286 284/284
f 284/284 286/286 285/285
