mtllib acce506.mtl
o acce506
v -0.09810 0.40194 1.68444 0.000 0.000 0.000
v -0.05202 0.38970 1.60182 0.000 0.000 0.000
v -0.06084 0.35730 1.60182 0.000 0.000 0.000
v -0.10692 0.36972 1.68444 0.000 0.000 0.000
v 0.53460 0.22248 0.77760 0.000 0.000 0.000
v 0.50184 0.23130 0.75708 0.000 0.000 0.000
v 0.49824 0.21744 0.75708 0.000 0.000 0.000
v 0.53082 0.20880 0.77760 0.000 0.000 0.000
v 0.54558 0.21960 0.74880 0.000 0.000 0.000
v 0.51246 0.21366 0.73134 0.000 0.000 0.000
v 0.51624 0.22734 0.73134 0.000 0.000 0.000
v 0.54198 0.20574 0.74880 0.000 0.000 0.000
v 0.49176 0.25074 0.75384 0.000 0.000 0.000
v 0.46638 0.23346 0.74214 0.000 0.000 0.000
v 0.50526 0.22302 0.76536 0.000 0.000 0.000
v 0.47988 0.20574 0.75384 0.000 0.000 0.000
v 0.02880 0.34272 1.42218 0.000 0.000 0.000
v -0.00252 0.36702 1.43136 0.000 0.000 0.000
v 0.03276 0.35766 1.42218 0.000 0.000 0.000
v -0.00648 0.35208 1.43136 0.000 0.000 0.000
v -0.02664 0.35748 1.41714 0.000 0.000 0.000
v -0.02268 0.37242 1.41714 0.000 0.000 0.000
v 0.00324 0.36558 1.47528 0.000 0.000 0.000
v -0.00738 0.36828 1.44918 0.000 0.000 0.000
v -0.00090 0.35064 1.47528 0.000 0.000 0.000
v -0.01134 0.35352 1.44918 0.000 0.000 0.000
v -0.02358 0.37260 1.43856 0.000 0.000 0.000
v -0.02754 0.35784 1.43856 0.000 0.000 0.000
v -0.02268 0.37242 1.41714 0.000 0.000 0.000
v -0.02664 0.35748 1.41714 0.000 0.000 0.000
v -0.17514 0.36846 1.82538 0.000 0.000 0.000
v 0.08748 0.37188 1.38726 0.000 0.000 0.000
v 0.06912 0.30294 1.38726 0.000 0.000 0.000
v -0.15678 0.43722 1.82538 0.000 0.000 0.000
v 0.13716 0.35856 1.29852 0.000 0.000 0.000
v 0.11862 0.28962 1.29852 0.000 0.000 0.000
v 0.13968 0.34380 1.28754 0.000 0.000 0.000
v 0.12834 0.30132 1.28754 0.000 0.000 0.000
v 0.18054 0.33282 1.21428 0.000 0.000 0.000
v 0.16920 0.29034 1.21428 0.000 0.000 0.000
v -0.17046 0.41436 1.83978 0.000 0.000 0.000
v -0.16182 0.41202 1.82430 0.000 0.000 0.000
v -0.16686 0.39276 1.82430 0.000 0.000 0.000
v -0.17568 0.39510 1.83978 0.000 0.000 0.000
v -0.04500 0.39366 1.62612 0.000 0.000 0.000
v -0.07452 0.37836 1.57860 0.000 0.000 0.000
v -0.05670 0.35028 1.62612 0.000 0.000 0.000
v -0.06876 0.40014 1.57860 0.000 0.000 0.000
v -0.08046 0.35658 1.57860 0.000 0.000 0.000
v -0.05040 0.34866 1.43118 0.000 0.000 0.000
v 0.00216 0.33444 1.33704 0.000 0.000 0.000
v -0.03870 0.39204 1.43118 0.000 0.000 0.000
v 0.01386 0.37800 1.33704 0.000 0.000 0.000
v -0.03384 0.39078 1.44774 0.000 0.000 0.000
v -0.04554 0.34722 1.44774 0.000 0.000 0.000
v -0.00594 0.38322 1.46430 0.000 0.000 0.000
v -0.01764 0.33984 1.46430 0.000 0.000 0.000
v 0.01332 0.37818 1.45296 0.000 0.000 0.000
v 0.00162 0.33462 1.45296 0.000 0.000 0.000
v 0.06210 0.36504 1.36584 0.000 0.000 0.000
v 0.05040 0.32166 1.36584 0.000 0.000 0.000
v -0.06282 0.39852 1.44918 0.000 0.000 0.000
v 0.00324 0.38088 1.33074 0.000 0.000 0.000
v -0.06858 0.37674 1.44918 0.000 0.000 0.000
v -0.00828 0.33732 1.33074 0.000 0.000 0.000
v -0.07434 0.35496 1.44918 0.000 0.000 0.000
v 0.53082 0.20880 0.77760 0.000 0.000 0.000
v 0.54198 0.20574 0.74880 0.000 0.000 0.000
v 0.54558 0.21960 0.74880 0.000 0.000 0.000
v 0.53460 0.22248 0.77760 0.000 0.000 0.000
v 0.17298 0.32634 1.32642 0.000 0.000 0.000
v 0.18000 0.34704 1.32408 0.000 0.000 0.000
v 0.13050 0.36036 1.41300 0.000 0.000 0.000
v 0.12474 0.33930 1.41300 0.000 0.000 0.000
v 0.20286 0.32670 1.32534 0.000 0.000 0.000
v 0.19854 0.31950 1.32930 0.000 0.000 0.000
v 0.23796 0.29466 1.25208 0.000 0.000 0.000
v 0.24372 0.31590 1.25208 0.000 0.000 0.000
v 0.14148 0.32040 1.42506 0.000 0.000 0.000
v 0.14508 0.33390 1.42506 0.000 0.000 0.000
v 0.14688 0.35586 1.43208 0.000 0.000 0.000
v -0.10278 0.38592 1.86318 0.000 0.000 0.000
v -0.11196 0.35154 1.86318 0.000 0.000 0.000
v 0.13230 0.28602 1.42506 0.000 0.000 0.000
v -0.09342 0.42030 1.86318 0.000 0.000 0.000
v 0.18180 0.27270 1.33632 0.000 0.000 0.000
v 0.19152 0.28440 1.32534 0.000 0.000 0.000
v 0.23238 0.27342 1.25208 0.000 0.000 0.000
v 0.14688 0.35586 1.43208 0.000 0.000 0.000
v 0.12474 0.33930 1.41300 0.000 0.000 0.000
v 0.13050 0.36036 1.41300 0.000 0.000 0.000
v 0.14508 0.33390 1.42506 0.000 0.000 0.000
v 0.13392 0.32256 1.49976 0.000 0.000 0.000
v 0.14760 0.31878 1.47546 0.000 0.000 0.000
v 0.14436 0.33426 1.48770 0.000 0.000 0.000
v 0.13716 0.30708 1.48770 0.000 0.000 0.000
v -0.11466 0.37872 1.87632 0.000 0.000 0.000
v -0.10602 0.37638 1.86066 0.000 0.000 0.000
v -0.10080 0.39564 1.86066 0.000 0.000 0.000
v -0.10944 0.39798 1.87632 0.000 0.000 0.000
v 0.18270 0.28134 1.21284 0.000 0.000 0.000
v 0.33912 0.23940 0.93222 0.000 0.000 0.000
v 0.19674 0.33390 1.21284 0.000 0.000 0.000
v 0.35316 0.29196 0.93222 0.000 0.000 0.000
v 0.35316 0.26370 0.91962 0.000 0.000 0.000
v 0.10188 0.33102 1.39536 0.000 0.000 0.000
v -0.13554 0.28674 1.26954 0.000 0.000 0.000
v 0.03888 0.24012 1.37376 0.000 0.000 0.000
v -0.05958 0.22176 1.32174 0.000 0.000 0.000
v -0.14472 0.39708 1.24794 0.000 0.000 0.000
v -0.08154 0.48816 1.26954 0.000 0.000 0.000
v 0.09270 0.44136 1.37376 0.000 0.000 0.000
v 0.01674 0.50652 1.32174 0.000 0.000 0.000
v 0.07452 0.23058 1.30968 0.000 0.000 0.000
v -0.09972 0.27720 1.20546 0.000 0.000 0.000
v 0.13770 0.32148 1.33128 0.000 0.000 0.000
v -0.02376 0.21222 1.25766 0.000 0.000 0.000
v -0.10890 0.38754 1.18386 0.000 0.000 0.000
v -0.04590 0.47862 1.20546 0.000 0.000 0.000
v 0.12852 0.43182 1.30968 0.000 0.000 0.000
v 0.05256 0.49698 1.25766 0.000 0.000 0.000
v 0.01782 0.32868 1.24776 0.000 0.000 0.000
v 0.00288 0.33804 1.23804 0.000 0.000 0.000
v 0.03978 0.36990 1.25388 0.000 0.000 0.000
v 0.02484 0.37926 1.24416 0.000 0.000 0.000
v -0.05958 0.40050 1.86210 0.000 0.000 0.000
v -0.09252 0.40932 1.85292 0.000 0.000 0.000
v -0.10548 0.36054 1.85292 0.000 0.000 0.000
v -0.07254 0.35172 1.86210 0.000 0.000 0.000
v 0.00306 0.38376 1.74996 0.000 0.000 0.000
v -0.01008 0.33498 1.74996 0.000 0.000 0.000
v -0.03258 0.34092 1.72188 0.000 0.000 0.000
v -0.01944 0.38970 1.72188 0.000 0.000 0.000
v -0.50202 0.45234 2.19384 0.000 0.000 0.000
v -0.62388 0.52560 2.07756 0.000 0.000 0.000
v -0.62064 0.48420 2.08962 0.000 0.000 0.000
v -0.47556 0.48582 2.20770 0.000 0.000 0.000
v -0.48186 0.52794 2.19384 0.000 0.000 0.000
v -0.60030 0.55980 2.08962 0.000 0.000 0.000
v 0.57654 0.20394 0.63756 0.000 0.000 0.000
v 0.53766 0.21438 0.61434 0.000 0.000 0.000
v 0.56304 0.23166 0.62586 0.000 0.000 0.000
v 0.55116 0.18666 0.62586 0.000 0.000 0.000
v 0.29142 0.27072 1.02078 0.000 0.000 0.000
v 0.29826 0.27846 1.01268 0.000 0.000 0.000
v 0.32544 0.27126 1.02888 0.000 0.000 0.000
v 0.31842 0.26352 1.03698 0.000 0.000 0.000
v 0.28926 0.28080 1.02870 0.000 0.000 0.000
v 0.31644 0.27360 1.04490 0.000 0.000 0.000
v 0.29610 0.28854 1.02078 0.000 0.000 0.000
v 0.32328 0.28134 1.03698 0.000 0.000 0.000
v 0.22608 0.29790 1.25316 0.000 0.000 0.000
v 0.48330 0.21150 0.75060 0.000 0.000 0.000
v 0.50166 0.22392 0.75906 0.000 0.000 0.000
v 0.20772 0.28530 1.24488 0.000 0.000 0.000
v 0.19800 0.30528 1.23642 0.000 0.000 0.000
v 0.47358 0.23148 0.74232 0.000 0.000 0.000
v 0.49194 0.24390 0.75060 0.000 0.000 0.000
v 0.21636 0.31788 1.24488 0.000 0.000 0.000
v -0.10692 0.36972 1.68444 0.000 0.000 0.000
v -0.06084 0.35730 1.60182 0.000 0.000 0.000
v -0.09252 0.36594 1.69308 0.000 0.000 0.000
v -0.04644 0.35352 1.61046 0.000 0.000 0.000
v 0.18738 0.32868 1.22076 0.000 0.000 0.000
v 0.18918 0.28710 1.19898 0.000 0.000 0.000
v 0.17712 0.29034 1.22076 0.000 0.000 0.000
v 0.19962 0.32544 1.19898 0.000 0.000 0.000
v 0.24264 0.27270 1.23084 0.000 0.000 0.000
v 0.23058 0.27612 1.25280 0.000 0.000 0.000
v 0.25290 0.31122 1.23084 0.000 0.000 0.000
v 0.24084 0.31446 1.25280 0.000 0.000 0.000
v 0.24264 0.27270 1.23084 0.000 0.000 0.000
v 0.18918 0.28710 1.19898 0.000 0.000 0.000
v 0.19962 0.32544 1.19898 0.000 0.000 0.000
v 0.25290 0.31122 1.23084 0.000 0.000 0.000
v 0.25290 0.31122 1.23084 0.000 0.000 0.000
v 0.19962 0.32544 1.19898 0.000 0.000 0.000
v 0.18738 0.32868 1.22076 0.000 0.000 0.000
v 0.24084 0.31446 1.25280 0.000 0.000 0.000
v 0.49824 0.21744 0.75708 0.000 0.000 0.000
v 0.51246 0.21366 0.73134 0.000 0.000 0.000
v 0.54198 0.20574 0.74880 0.000 0.000 0.000
v 0.53082 0.20880 0.77760 0.000 0.000 0.000
v 0.50526 0.22302 0.76536 0.000 0.000 0.000
v 0.55116 0.18666 0.62586 0.000 0.000 0.000
v 0.57654 0.20394 0.63756 0.000 0.000 0.000
v 0.47988 0.20574 0.75384 0.000 0.000 0.000
v 0.46638 0.23346 0.74214 0.000 0.000 0.000
v 0.53766 0.21438 0.61434 0.000 0.000 0.000
v 0.56304 0.23166 0.62586 0.000 0.000 0.000
v 0.49176 0.25074 0.75384 0.000 0.000 0.000
v -0.02754 0.35784 1.43856 0.000 0.000 0.000
v -0.02664 0.35748 1.41714 0.000 0.000 0.000
v -0.00648 0.35208 1.43136 0.000 0.000 0.000
v -0.01134 0.35352 1.44918 0.000 0.000 0.000
v -0.00090 0.35064 1.47528 0.000 0.000 0.000
v 0.02880 0.34272 1.42218 0.000 0.000 0.000
v -0.10548 0.36054 1.85292 0.000 0.000 0.000
v -0.03258 0.34092 1.72188 0.000 0.000 0.000
v -0.01008 0.33498 1.74996 0.000 0.000 0.000
v -0.07254 0.35172 1.86210 0.000 0.000 0.000
v 0.14688 0.35586 1.43208 0.000 0.000 0.000
v -0.15678 0.43722 1.82538 0.000 0.000 0.000
v -0.09342 0.42030 1.86318 0.000 0.000 0.000
v 0.08748 0.37188 1.38726 0.000 0.000 0.000
v 0.13050 0.36036 1.41300 0.000 0.000 0.000
v 0.18000 0.34704 1.32408 0.000 0.000 0.000
v 0.13716 0.35856 1.29852 0.000 0.000 0.000
v 0.13968 0.34380 1.28754 0.000 0.000 0.000
v 0.20286 0.32670 1.32534 0.000 0.000 0.000
v 0.18054 0.33282 1.21428 0.000 0.000 0.000
v 0.24372 0.31590 1.25208 0.000 0.000 0.000
v -0.17514 0.36846 1.82538 0.000 0.000 0.000
v 0.06912 0.30294 1.38726 0.000 0.000 0.000
v 0.13230 0.28602 1.42506 0.000 0.000 0.000
v -0.11196 0.35154 1.86318 0.000 0.000 0.000
v 0.18180 0.27270 1.33632 0.000 0.000 0.000
v 0.11862 0.28962 1.29852 0.000 0.000 0.000
v 0.12834 0.30132 1.28754 0.000 0.000 0.000
v 0.19152 0.28440 1.32534 0.000 0.000 0.000
v 0.23238 0.27342 1.25208 0.000 0.000 0.000
v 0.16920 0.29034 1.21428 0.000 0.000 0.000
v 0.14508 0.33390 1.42506 0.000 0.000 0.000
v 0.17298 0.32634 1.32642 0.000 0.000 0.000
v 0.12474 0.33930 1.41300 0.000 0.000 0.000
v 0.19854 0.31950 1.32930 0.000 0.000 0.000
v 0.03888 0.24012 1.37376 0.000 0.000 0.000
v 0.07452 0.23058 1.30968 0.000 0.000 0.000
v 0.13770 0.32148 1.33128 0.000 0.000 0.000
v 0.10188 0.33102 1.39536 0.000 0.000 0.000
v -0.05958 0.22176 1.32174 0.000 0.000 0.000
v -0.02376 0.21222 1.25766 0.000 0.000 0.000
v -0.13554 0.28674 1.26954 0.000 0.000 0.000
v -0.09972 0.27720 1.20546 0.000 0.000 0.000
v 0.09270 0.44136 1.37376 0.000 0.000 0.000
v 0.12852 0.43182 1.30968 0.000 0.000 0.000
v 0.01674 0.50652 1.32174 0.000 0.000 0.000
v 0.05256 0.49698 1.25766 0.000 0.000 0.000
v -0.08154 0.48816 1.26954 0.000 0.000 0.000
v -0.04590 0.47862 1.20546 0.000 0.000 0.000
v -0.14472 0.39708 1.24794 0.000 0.000 0.000
v -0.10890 0.38754 1.18386 0.000 0.000 0.000
v -0.00252 0.36702 1.43136 0.000 0.000 0.000
v -0.02268 0.37242 1.41714 0.000 0.000 0.000
v -0.02358 0.37260 1.43856 0.000 0.000 0.000
v -0.00738 0.36828 1.44918 0.000 0.000 0.000
v 0.00324 0.36558 1.47528 0.000 0.000 0.000
v 0.03276 0.35766 1.42218 0.000 0.000 0.000
v -0.08388 0.39816 1.69308 0.000 0.000 0.000
v -0.05202 0.38970 1.60182 0.000 0.000 0.000
v -0.09810 0.40194 1.68444 0.000 0.000 0.000
v -0.03780 0.38592 1.61046 0.000 0.000 0.000
v 0.00306 0.38376 1.74996 0.000 0.000 0.000
v -0.01944 0.38970 1.72188 0.000 0.000 0.000
v -0.09252 0.40932 1.85292 0.000 0.000 0.000
v -0.05958 0.40050 1.86210 0.000 0.000 0.000
v 0.54558 0.21960 0.74880 0.000 0.000 0.000
v 0.51624 0.22734 0.73134 0.000 0.000 0.000
v 0.50184 0.23130 0.75708 0.000 0.000 0.000
v 0.53460 0.22248 0.77760 0.000 0.000 0.000
v 0.13392 0.32256 1.49976 0.000 0.000 0.000
v 0.10692 0.32976 1.48356 0.000 0.000 0.000
v 0.13716 0.30708 1.48770 0.000 0.000 0.000
v 0.10998 0.31446 1.47150 0.000 0.000 0.000
v 0.14760 0.31878 1.47546 0.000 0.000 0.000
v 0.12042 0.32616 1.45926 0.000 0.000 0.000
v 0.14436 0.33426 1.48770 0.000 0.000 0.000
v 0.11736 0.34146 1.47150 0.000 0.000 0.000
v 0.01116 0.33048 1.25946 0.000 0.000 0.000
v -0.00360 0.33984 1.24974 0.000 0.000 0.000
v 0.01782 0.32868 1.24776 0.000 0.000 0.000
v 0.00288 0.33804 1.23804 0.000 0.000 0.000
v 0.02484 0.37926 1.24416 0.000 0.000 0.000
v 0.00288 0.33804 1.23804 0.000 0.000 0.000
v -0.00360 0.33984 1.24974 0.000 0.000 0.000
v 0.01836 0.38106 1.25586 0.000 0.000 0.000
v 0.03330 0.37170 1.26558 0.000 0.000 0.000
v 0.02484 0.37926 1.24416 0.000 0.000 0.000
v 0.01836 0.38106 1.25586 0.000 0.000 0.000
v 0.03978 0.36990 1.25388 0.000 0.000 0.000
v 0.01116 0.33048 1.25946 0.000 0.000 0.000
v 0.01782 0.32868 1.24776 0.000 0.000 0.000
v 0.03978 0.36990 1.25388 0.000 0.000 0.000
v 0.03330 0.37170 1.26558 0.000 0.000 0.000
v -0.17568 0.39510 1.83978 0.000 0.000 0.000
v -0.16686 0.39276 1.82430 0.000 0.000 0.000
v -0.11466 0.37872 1.87632 0.000 0.000 0.000
v -0.10602 0.37638 1.86066 0.000 0.000 0.000
v -0.10944 0.39798 1.87632 0.000 0.000 0.000
v -0.16182 0.41202 1.82430 0.000 0.000 0.000
v -0.17046 0.41436 1.83978 0.000 0.000 0.000
v -0.10080 0.39564 1.86066 0.000 0.000 0.000
v 0.19674 0.33390 1.21284 0.000 0.000 0.000
v 0.13248 0.32292 1.17864 0.000 0.000 0.000
v 0.18270 0.28134 1.21284 0.000 0.000 0.000
v 0.14850 0.34668 1.18404 0.000 0.000 0.000
v 0.13446 0.29412 1.18404 0.000 0.000 0.000
v 0.00162 0.33462 1.45296 0.000 0.000 0.000
v 0.05040 0.32166 1.36584 0.000 0.000 0.000
v 0.07902 0.31392 1.38294 0.000 0.000 0.000
v -0.05670 0.35028 1.62612 0.000 0.000 0.000
v -0.05400 0.34956 1.55286 0.000 0.000 0.000
v -0.08046 0.35658 1.57860 0.000 0.000 0.000
v -0.03960 0.34578 1.51992 0.000 0.000 0.000
v -0.01764 0.33984 1.46430 0.000 0.000 0.000
v -0.04446 0.34704 1.47114 0.000 0.000 0.000
v -0.04554 0.34722 1.44774 0.000 0.000 0.000
v -0.07434 0.35496 1.44918 0.000 0.000 0.000
v -0.05040 0.34866 1.43118 0.000 0.000 0.000
v -0.00828 0.33732 1.33074 0.000 0.000 0.000
v 0.00216 0.33444 1.33704 0.000 0.000 0.000
v 0.09054 0.35748 1.38294 0.000 0.000 0.000
v 0.06210 0.36504 1.36584 0.000 0.000 0.000
v 0.01332 0.37818 1.45296 0.000 0.000 0.000
v -0.04500 0.39366 1.62612 0.000 0.000 0.000
v -0.04230 0.39294 1.55286 0.000 0.000 0.000
v -0.06876 0.40014 1.57860 0.000 0.000 0.000
v -0.02790 0.38916 1.51992 0.000 0.000 0.000
v -0.00594 0.38322 1.46430 0.000 0.000 0.000
v -0.03294 0.39042 1.47114 0.000 0.000 0.000
v -0.03384 0.39078 1.44774 0.000 0.000 0.000
v -0.06282 0.39852 1.44918 0.000 0.000 0.000
v -0.03870 0.39204 1.43118 0.000 0.000 0.000
v 0.00324 0.38088 1.33074 0.000 0.000 0.000
v 0.01386 0.37800 1.33704 0.000 0.000 0.000
v 0.18270 0.28134 1.21284 0.000 0.000 0.000
v 0.13446 0.29412 1.18404 0.000 0.000 0.000
v 0.21024 0.27396 1.11294 0.000 0.000 0.000
v 0.13248 0.32292 1.17864 0.000 0.000 0.000
v 0.20826 0.30258 1.10754 0.000 0.000 0.000
v 0.21924 0.29970 1.06614 0.000 0.000 0.000
v 0.22338 0.27036 1.06038 0.000 0.000 0.000
v 0.19890 0.27684 1.03950 0.000 0.000 0.000
v 0.27126 0.25758 0.93528 0.000 0.000 0.000
v 0.23472 0.26730 0.93222 0.000 0.000 0.000
v 0.19980 0.30474 1.05048 0.000 0.000 0.000
v 0.24264 0.29340 0.91602 0.000 0.000 0.000
v 0.28512 0.28206 0.92268 0.000 0.000 0.000
v 0.31500 0.24588 0.91782 0.000 0.000 0.000
v 0.33912 0.23940 0.93222 0.000 0.000 0.000
v 0.32904 0.27018 0.90522 0.000 0.000 0.000
v 0.35316 0.26370 0.91962 0.000 0.000 0.000
v 0.09198 0.30546 1.06920 0.000 0.000 0.000
v 0.11214 0.30024 0.97938 0.000 0.000 0.000
v 0.04644 0.31770 1.05030 0.000 0.000 0.000
v 0.03942 0.31968 1.02330 0.000 0.000 0.000
v 0.09036 0.30600 0.98136 0.000 0.000 0.000
v 0.06678 0.31230 0.97416 0.000 0.000 0.000
v 0.07398 0.31032 0.97020 0.000 0.000 0.000
v 0.09450 0.33300 1.08108 0.000 0.000 0.000
v 0.21006 0.30204 0.94230 0.000 0.000 0.000
v 0.04644 0.34596 1.06272 0.000 0.000 0.000
v 0.35316 0.29196 0.93222 0.000 0.000 0.000
v 0.32904 0.29844 0.91782 0.000 0.000 0.000
v 0.28530 0.31014 0.93528 0.000 0.000 0.000
v 0.24876 0.31986 0.93222 0.000 0.000 0.000
v 0.21960 0.32778 0.95202 0.000 0.000 0.000
v 0.21294 0.32940 1.03950 0.000 0.000 0.000
v 0.23742 0.32292 1.06038 0.000 0.000 0.000
v 0.22428 0.32652 1.11294 0.000 0.000 0.000
v 0.14850 0.34668 1.18404 0.000 0.000 0.000
v 0.19674 0.33390 1.21284 0.000 0.000 0.000
v 0.10620 0.35820 1.06920 0.000 0.000 0.000
v 0.12618 0.35280 0.97938 0.000 0.000 0.000
v 0.06048 0.37044 1.05030 0.000 0.000 0.000
v 0.05346 0.37224 1.02330 0.000 0.000 0.000
v 0.10440 0.35856 0.98136 0.000 0.000 0.000
v 0.08082 0.36486 0.97416 0.000 0.000 0.000
v 0.08820 0.36288 0.97020 0.000 0.000 0.000
v 0.14148 0.34866 0.96264 0.000 0.000 0.000
v 0.16506 0.34236 0.96732 0.000 0.000 0.000
v 0.19134 0.33534 0.95598 0.000 0.000 0.000
v 0.15858 0.31590 0.95526 0.000 0.000 0.000
v 0.18432 0.30906 0.94140 0.000 0.000 0.000
v 0.17730 0.28278 0.95598 0.000 0.000 0.000
v 0.20556 0.27522 0.95202 0.000 0.000 0.000
v 0.15084 0.28980 0.96732 0.000 0.000 0.000
v 0.12744 0.29610 0.96264 0.000 0.000 0.000
v 0.13320 0.32274 0.95040 0.000 0.000 0.000
v 0.11718 0.32706 0.96480 0.000 0.000 0.000
v 0.09540 0.33282 0.96624 0.000 0.000 0.000
v 0.07884 0.33732 0.95418 0.000 0.000 0.000
v 0.07002 0.33966 0.95940 0.000 0.000 0.000
v -0.08802 0.35874 1.68210 0.000 0.000 0.000
v -0.12042 0.39060 1.65726 0.000 0.000 0.000
v -0.07596 0.37872 1.67130 0.000 0.000 0.000
v -0.12474 0.36846 1.67256 0.000 0.000 0.000
v -0.17478 0.40518 1.68282 0.000 0.000 0.000
v -0.17370 0.38160 1.69542 0.000 0.000 0.000
v -0.23724 0.42192 1.76598 0.000 0.000 0.000
v -0.23346 0.39762 1.77390 0.000 0.000 0.000
v -0.30294 0.43956 1.83690 0.000 0.000 0.000
v -0.29556 0.41418 1.84914 0.000 0.000 0.000
v -0.49590 0.49122 1.96686 0.000 0.000 0.000
v -0.49140 0.45486 1.97910 0.000 0.000 0.000
v -0.62388 0.52560 2.07756 0.000 0.000 0.000
v -0.62064 0.48420 2.08962 0.000 0.000 0.000
v -0.50202 0.45234 2.19384 0.000 0.000 0.000
v -0.13482 0.37116 1.76634 0.000 0.000 0.000
v -0.20286 0.38934 1.80882 0.000 0.000 0.000
v -0.14814 0.39816 1.80054 0.000 0.000 0.000
v -0.18054 0.40680 1.82286 0.000 0.000 0.000
v -0.23868 0.39906 1.86228 0.000 0.000 0.000
v -0.21636 0.41634 1.87614 0.000 0.000 0.000
v -0.25956 0.40464 1.92870 0.000 0.000 0.000
v -0.47556 0.48582 2.20770 0.000 0.000 0.000
v -0.23742 0.42192 1.94274 0.000 0.000 0.000
v -0.19116 0.43290 1.80882 0.000 0.000 0.000
v -0.12330 0.41472 1.76634 0.000 0.000 0.000
v -0.24786 0.44820 1.92870 0.000 0.000 0.000
v -0.48186 0.52794 2.19384 0.000 0.000 0.000
v -0.22698 0.44244 1.86228 0.000 0.000 0.000
v -0.22176 0.44118 1.77390 0.000 0.000 0.000
v -0.16200 0.42516 1.69542 0.000 0.000 0.000
v -0.11304 0.41202 1.67256 0.000 0.000 0.000
v -0.07632 0.40212 1.68210 0.000 0.000 0.000
v -0.28386 0.45774 1.84914 0.000 0.000 0.000
v -0.47376 0.52056 1.97910 0.000 0.000 0.000
v -0.60030 0.55980 2.08962 0.000 0.000 0.000
v -0.09504 0.38376 1.56852 0.000 0.000 0.000
v -0.09774 0.36126 1.55574 0.000 0.000 0.000
v -0.08046 0.35658 1.57860 0.000 0.000 0.000
v -0.07452 0.37836 1.57860 0.000 0.000 0.000
v -0.19962 0.41184 1.58688 0.000 0.000 0.000
v -0.19854 0.38826 1.57446 0.000 0.000 0.000
v -0.21996 0.39402 1.55538 0.000 0.000 0.000
v -0.22626 0.41904 1.56276 0.000 0.000 0.000
v -0.22680 0.41922 1.49166 0.000 0.000 0.000
v -0.21906 0.39384 1.49976 0.000 0.000 0.000
v -0.21258 0.39204 1.48086 0.000 0.000 0.000
v -0.21186 0.41508 1.46124 0.000 0.000 0.000
v -0.19008 0.40932 1.47618 0.000 0.000 0.000
v -0.19278 0.38682 1.48860 0.000 0.000 0.000
v -0.15300 0.39942 1.46718 0.000 0.000 0.000
v -0.15894 0.37764 1.48176 0.000 0.000 0.000
v -0.12960 0.39312 1.47924 0.000 0.000 0.000
v -0.13536 0.37134 1.49364 0.000 0.000 0.000
v -0.07434 0.35496 1.44918 0.000 0.000 0.000
v -0.06858 0.37674 1.44918 0.000 0.000 0.000
v -0.04446 0.34704 1.47114 0.000 0.000 0.000
v -0.03960 0.34578 1.51992 0.000 0.000 0.000
v -0.05400 0.34956 1.55286 0.000 0.000 0.000
v -0.06642 0.35298 1.55358 0.000 0.000 0.000
v -0.06282 0.39852 1.44918 0.000 0.000 0.000
v -0.12384 0.41490 1.49364 0.000 0.000 0.000
v -0.14724 0.42120 1.48176 0.000 0.000 0.000
v -0.18108 0.43020 1.48860 0.000 0.000 0.000
v -0.03294 0.39042 1.47114 0.000 0.000 0.000
v -0.02790 0.38916 1.51992 0.000 0.000 0.000
v -0.04230 0.39294 1.55286 0.000 0.000 0.000
v -0.18684 0.43182 1.57446 0.000 0.000 0.000
v -0.20844 0.43758 1.55538 0.000 0.000 0.000
v -0.08604 0.40482 1.55574 0.000 0.000 0.000
v -0.06876 0.40014 1.57860 0.000 0.000 0.000
v -0.20754 0.43722 1.49976 0.000 0.000 0.000
v -0.20088 0.43560 1.48086 0.000 0.000 0.000
v -0.05490 0.39636 1.55358 0.000 0.000 0.000
v 0.04644 0.31770 1.05030 0.000 0.000 0.000
v 0.03744 0.34830 1.01790 0.000 0.000 0.000
v 0.03942 0.31968 1.02330 0.000 0.000 0.000
v 0.04644 0.34596 1.06272 0.000 0.000 0.000
v 0.06678 0.31230 0.97416 0.000 0.000 0.000
v 0.07002 0.33966 0.95940 0.000 0.000 0.000
v 0.06048 0.37044 1.05030 0.000 0.000 0.000
v 0.05346 0.37224 1.02330 0.000 0.000 0.000
v 0.08082 0.36486 0.97416 0.000 0.000 0.000
v 0.01494 0.40572 1.24812 0.000 0.000 0.000
v -0.02610 0.32904 1.23678 0.000 0.000 0.000
v 0.04176 0.38880 1.26576 0.000 0.000 0.000
v -0.00954 0.31860 1.24758 0.000 0.000 0.000
v -0.04572 0.26766 1.23498 0.000 0.000 0.000
v 0.04176 0.38880 1.26576 0.000 0.000 0.000
v 0.01512 0.30294 1.26378 0.000 0.000 0.000
v 0.05616 0.37980 1.27512 0.000 0.000 0.000
v -0.00954 0.31860 1.24758 0.000 0.000 0.000
v 0.07596 0.44118 1.27692 0.000 0.000 0.000
v 0.07596 0.44118 1.27692 0.000 0.000 0.000
v 0.04950 0.38664 1.25172 0.000 0.000 0.000
v 0.04176 0.38880 1.26576 0.000 0.000 0.000
v 0.08370 0.43902 1.26288 0.000 0.000 0.000
v -0.00954 0.31860 1.24758 0.000 0.000 0.000
v -0.04572 0.26766 1.23498 0.000 0.000 0.000
v -0.00180 0.31644 1.23354 0.000 0.000 0.000
v -0.03798 0.26550 1.22094 0.000 0.000 0.000
v -0.16380 0.37890 1.76778 0.000 0.000 0.000
v -0.16848 0.37656 1.75338 0.000 0.000 0.000
v -0.15498 0.37656 1.76076 0.000 0.000 0.000
v -0.17478 0.38196 1.76634 0.000 0.000 0.000
v -0.18144 0.38376 1.75716 0.000 0.000 0.000
v -0.18000 0.38340 1.74582 0.000 0.000 0.000
v -0.15354 0.37620 1.74942 0.000 0.000 0.000
v -0.16038 0.37800 1.74042 0.000 0.000 0.000
v -0.17136 0.38106 1.73880 0.000 0.000 0.000
v -0.14346 0.42012 1.76076 0.000 0.000 0.000
v -0.15498 0.42696 1.75338 0.000 0.000 0.000
v -0.15210 0.42246 1.76778 0.000 0.000 0.000
v -0.16308 0.42534 1.76634 0.000 0.000 0.000
v -0.16992 0.42714 1.75716 0.000 0.000 0.000
v -0.16848 0.42678 1.74582 0.000 0.000 0.000
v -0.14202 0.41976 1.74942 0.000 0.000 0.000
v -0.14868 0.42156 1.74042 0.000 0.000 0.000
v -0.15966 0.42444 1.73880 0.000 0.000 0.000
v -0.09342 0.42030 1.86318 0.000 0.000 0.000
v -0.15678 0.43722 1.82538 0.000 0.000 0.000
v -0.10278 0.38592 1.86318 0.000 0.000 0.000
v -0.17514 0.36846 1.82538 0.000 0.000 0.000
v -0.11196 0.35154 1.86318 0.000 0.000 0.000
v 0.23238 0.27342 1.25208 0.000 0.000 0.000
v 0.16920 0.29034 1.21428 0.000 0.000 0.000
v 0.23796 0.29466 1.25208 0.000 0.000 0.000
v 0.18054 0.33282 1.21428 0.000 0.000 0.000
v 0.24372 0.31590 1.25208 0.000 0.000 0.000
v -0.10944 0.39798 1.87632 0.000 0.000 0.000
v -0.17046 0.41436 1.83978 0.000 0.000 0.000
v -0.17568 0.39510 1.83978 0.000 0.000 0.000
v -0.11466 0.37872 1.87632 0.000 0.000 0.000
v -0.35604 0.40680 2.18520 0.000 0.000 0.000
v -0.44550 0.44100 2.12958 0.000 0.000 0.000
v -0.36000 0.39492 2.18520 0.000 0.000 0.000
v -0.45720 0.44100 2.14020 0.000 0.000 0.000
v -0.57510 0.47340 2.02698 0.000 0.000 0.000
v -0.58680 0.47340 2.03760 0.000 0.000 0.000
v -0.57510 0.51120 2.02680 0.000 0.000 0.000
v -0.58680 0.51408 2.03760 0.000 0.000 0.000
v -0.56484 0.55026 2.04354 0.000 0.000 0.000
v -0.55440 0.54900 2.03220 0.000 0.000 0.000
v -0.43524 0.51786 2.14614 0.000 0.000 0.000
v -0.42480 0.51660 2.13480 0.000 0.000 0.000
v -0.34686 0.44676 2.18556 0.000 0.000 0.000
v -0.34326 0.45864 2.18556 0.000 0.000 0.000
v -0.07200 0.23220 2.38500 0.000 0.000 0.000
v -0.27000 0.39132 2.25000 0.000 0.000 0.000
v -0.28800 0.32040 2.25000 0.000 0.000 0.000
v -0.08730 0.16650 2.40120 0.000 0.000 0.000
v -0.00450 0.14760 2.41560 0.000 0.000 0.000
v 0.00000 0.21420 2.40120 0.000 0.000 0.000
v -0.34362 0.46026 2.18520 0.000 0.000 0.000
v -0.36000 0.39420 2.18520 0.000 0.000 0.000
v -0.00450 0.14760 2.41560 0.000 0.000 0.000
v 0.05706 0.14400 2.39760 0.000 0.000 0.000
v 0.00000 0.21420 2.40120 0.000 0.000 0.000
v 0.05940 0.21240 2.37600 0.000 0.000 0.000
v 0.10260 0.21600 2.31300 0.000 0.000 0.000
v 0.12582 0.14832 2.31120 0.000 0.000 0.000
v 0.16416 0.15300 2.22840 0.000 0.000 0.000
v 0.14760 0.22158 2.22840 0.000 0.000 0.000
v 0.22050 0.17244 2.05200 0.000 0.000 0.000
v 0.20988 0.24246 2.05200 0.000 0.000 0.000
v 0.20988 0.24246 2.05200 0.000 0.000 0.000
v 0.28440 0.20844 1.65600 0.000 0.000 0.000
v 0.27000 0.28206 1.65600 0.000 0.000 0.000
v 0.22050 0.17244 2.05200 0.000 0.000 0.000
v 0.27900 0.23130 1.44180 0.000 0.000 0.000
v 0.27000 0.30006 1.44900 0.000 0.000 0.000
v 0.27900 0.23130 1.44270 0.000 0.000 0.000
v 0.24300 0.30276 1.23750 0.000 0.000 0.000
v 0.27630 0.24516 1.44450 0.000 0.000 0.000
v 0.24120 0.29070 1.23570 0.000 0.000 0.000
v 0.27180 0.28620 1.44720 0.000 0.000 0.000
v 0.24300 0.31266 1.24200 0.000 0.000 0.000
v 0.27000 0.30006 1.44900 0.000 0.000 0.000
v 0.24120 0.30060 1.24020 0.000 0.000 0.000
v 0.27810 0.25344 1.48608 0.000 0.000 0.000
v 0.27774 0.26298 1.47654 0.000 0.000 0.000
v 0.27666 0.26280 1.48986 0.000 0.000 0.000
v 0.27846 0.24948 1.47672 0.000 0.000 0.000
v 0.27720 0.25326 1.46718 0.000 0.000 0.000
v 0.27540 0.26244 1.46322 0.000 0.000 0.000
v 0.27396 0.27180 1.46718 0.000 0.000 0.000
v 0.27378 0.27576 1.47654 0.000 0.000 0.000
v 0.27486 0.27198 1.48590 0.000 0.000 0.000
v 0.27666 0.26280 1.48986 0.000 0.000 0.000
v 0.27108 0.26172 1.47690 0.000 0.000 0.000
v 0.27810 0.25344 1.48608 0.000 0.000 0.000
v 0.27846 0.24948 1.47672 0.000 0.000 0.000
v 0.27720 0.25326 1.46718 0.000 0.000 0.000
v 0.27540 0.26244 1.46322 0.000 0.000 0.000
v 0.27396 0.27180 1.46718 0.000 0.000 0.000
v 0.27378 0.27576 1.47654 0.000 0.000 0.000
v 0.27486 0.27198 1.48590 0.000 0.000 0.000
v -0.32004 0.40680 2.21580 0.000 0.000 0.000
v -0.33210 0.40698 2.21004 0.000 0.000 0.000
v -0.32400 0.39744 2.21508 0.000 0.000 0.000
v -0.33228 0.39348 2.21058 0.000 0.000 0.000
v -0.33984 0.39726 2.20500 0.000 0.000 0.000
v -0.34236 0.40644 2.20140 0.000 0.000 0.000
v -0.33840 0.41580 2.20212 0.000 0.000 0.000
v -0.33012 0.41976 2.20662 0.000 0.000 0.000
v -0.32256 0.41598 2.21220 0.000 0.000 0.000
v -0.32400 0.39744 2.21508 0.000 0.000 0.000
v -0.32850 0.40572 2.20428 0.000 0.000 0.000
v -0.32004 0.40680 2.21580 0.000 0.000 0.000
v -0.33228 0.39348 2.21058 0.000 0.000 0.000
v -0.33984 0.39726 2.20500 0.000 0.000 0.000
v -0.34236 0.40644 2.20140 0.000 0.000 0.000
v -0.33840 0.41580 2.20212 0.000 0.000 0.000
v -0.33012 0.41976 2.20662 0.000 0.000 0.000
v -0.32256 0.41598 2.21220 0.000 0.000 0.000
vt 0.66406 0.99219
vt 0.49219 0.99219
vt 0.49219 0.88281
vt 0.66406 0.88281
vt 0.13281 0.97656
vt 0.13281 0.89844
vt 0.16406 0.89844
vt 0.16406 0.97656
vt 0.13281 0.97656
vt 0.16406 0.89844
vt 0.13281 0.89844
vt 0.16406 0.97656
vt 0.13281 0.96094
vt 0.13281 0.91406
vt 0.17969 0.96094
vt 0.17969 0.91406
vt 0.71094 0.88281
vt 0.58594 0.99219
vt 0.71094 0.99219
vt 0.58594 0.88281
vt 0.47656 0.88281
vt 0.47656 0.99219
vt 0.36719 0.99219
vt 0.25781 0.99219
vt 0.36719 0.88281
vt 0.25781 0.88281
vt 0.17969 0.99219
vt 0.17969 0.88281
vt 0.13281 0.99219
vt 0.13281 0.88281
vt 0.99219 0.88281
vt 0.36719 0.99219
vt 0.36719 0.88281
vt 0.99219 0.99219
vt 0.24219 0.99219
vt 0.24219 0.88281
vt 0.22656 0.97656
vt 0.22656 0.89844
vt 0.13281 0.97656
vt 0.13281 0.89844
vt 0.88281 0.99219
vt 0.88281 0.88281
vt 0.99219 0.88281
vt 0.99219 0.99219
vt 0.60156 0.99219
vt 0.67969 0.88281
vt 0.74219 0.99219
vt 0.60156 0.88281
vt 0.74219 0.88281
vt 0.33594 0.99219
vt 0.13281 0.99219
vt 0.33594 0.88281
vt 0.13281 0.88281
vt 0.36719 0.88281
vt 0.36719 0.99219
vt 0.47656 0.88281
vt 0.47656 0.99219
vt 0.52344 0.88281
vt 0.52344 0.99219
vt 0.71094 0.88281
vt 0.71094 0.99219
vt 0.41406 0.99219
vt 0.13281 0.99219
vt 0.41406 0.94531
vt 0.13281 0.88281
vt 0.41406 0.88281
vt 0.82031 0.86719
vt 0.82031 0.80469
vt 0.78906 0.80469
vt 0.78906 0.86719
vt 0.25781 0.83594
vt 0.24219 0.86719
vt 0.38281 0.86719
vt 0.36719 0.83594
vt 0.22656 0.85156
vt 0.24219 0.83594
vt 0.13281 0.82031
vt 0.13281 0.85156
vt 0.36719 0.82031
vt 0.36719 0.83594
vt 0.38281 0.86719
vt 0.99219 0.82031
vt 0.99219 0.75781
vt 0.36719 0.75781
vt 0.99219 0.86719
vt 0.24219 0.75781
vt 0.22656 0.77344
vt 0.13281 0.77344
vt 0.74219 0.86719
vt 0.77344 0.83594
vt 0.74219 0.83594
vt 0.77344 0.86719
vt 0.94531 0.86719
vt 0.91406 0.83594
vt 0.91406 0.86719
vt 0.94531 0.83594
vt 0.99219 0.86719
vt 0.99219 0.75781
vt 0.88281 0.75781
vt 0.88281 0.86719
vt 0.69531 0.67969
vt 0.94531 0.67969
vt 0.69531 0.60156
vt 0.94531 0.60156
vt 0.96094 0.63281
vt 0.66406 0.19531
vt 0.94531 0.32031
vt 0.71094 0.32031
vt 0.82031 0.36719
vt 0.99219 0.19531
vt 0.94531 0.32031
vt 0.71094 0.32031
vt 0.82031 0.36719
vt 0.71094 0.32031
vt 0.94531 0.32031
vt 0.66406 0.19531
vt 0.82031 0.36719
vt 0.99219 0.19531
vt 0.94531 0.32031
vt 0.71094 0.32031
vt 0.82031 0.36719
vt 0.74219 0.21094
vt 0.77344 0.21094
vt 0.74219 0.32031
vt 0.77344 0.32031
vt 0.60156 0.33594
vt 0.63281 0.33594
vt 0.63281 0.27344
vt 0.60156 0.27344
vt 0.49219 0.33594
vt 0.49219 0.27344
vt 0.46094 0.27344
vt 0.46094 0.33594
vt 0.19531 0.19531
vt 0.00781 0.22656
vt 0.00781 0.19531
vt 0.19531 0.22656
vt 0.19531 0.19531
vt 0.00781 0.19531
vt 0.22656 0.13281
vt 0.27344 0.08594
vt 0.27344 0.13281
vt 0.27344 0.13281
vt 0.11719 0.80469
vt 0.11719 0.88281
vt 0.05469 0.88281
vt 0.05469 0.80469
vt 0.11719 0.88281
vt 0.05469 0.88281
vt 0.11719 0.80469
vt 0.05469 0.80469
vt 0.99219 0.00781
vt 0.00781 0.05469
vt 0.00781 0.00781
vt 0.99219 0.05469
vt 0.99219 0.00781
vt 0.00781 0.00781
vt 0.00781 0.05469
vt 0.99219 0.05469
vt 0.72656 0.17969
vt 0.99219 0.17969
vt 0.72656 0.10156
vt 0.99219 0.10156
vt 0.35156 0.25781
vt 0.41406 0.19531
vt 0.41406 0.25781
vt 0.35156 0.19531
vt 0.64844 0.19531
vt 0.64844 0.25781
vt 0.57031 0.19531
vt 0.57031 0.25781
vt 0.32031 0.25781
vt 0.32031 0.19531
vt 0.33594 0.19531
vt 0.33594 0.25781
vt 0.64844 0.19531
vt 0.41406 0.19531
vt 0.41406 0.25781
vt 0.64844 0.25781
vt 0.11719 0.77344
vt 0.07031 0.77344
vt 0.07031 0.83594
vt 0.11719 0.83594
vt 0.32031 0.74219
vt 0.13281 0.71094
vt 0.13281 0.74219
vt 0.32031 0.71094
vt 0.32031 0.74219
vt 0.13281 0.74219
vt 0.13281 0.71094
vt 0.32031 0.71094
vt 0.42969 0.17969
vt 0.42969 0.08594
vt 0.38281 0.08594
vt 0.36719 0.17969
vt 0.33594 0.17969
vt 0.33594 0.08594
vt 0.66406 0.27344
vt 0.42969 0.27344
vt 0.44531 0.33594
vt 0.64844 0.33594
vt 0.28906 0.17969
vt 0.99219 0.07031
vt 0.99219 0.17969
vt 0.27344 0.07031
vt 0.27344 0.14844
vt 0.10156 0.14844
vt 0.10156 0.07031
vt 0.08594 0.07031
vt 0.08594 0.17969
vt 0.00781 0.07031
vt 0.00781 0.17969
vt 0.99219 0.07031
vt 0.27344 0.07031
vt 0.27344 0.17969
vt 0.99219 0.17969
vt 0.10156 0.17969
vt 0.10156 0.07031
vt 0.08594 0.07031
vt 0.08594 0.17969
vt 0.00781 0.17969
vt 0.00781 0.07031
vt 0.27344 0.17969
vt 0.10156 0.14844
vt 0.27344 0.14844
vt 0.08594 0.17969
vt 0.11719 0.85156
vt 0.00781 0.85156
vt 0.00781 0.99219
vt 0.11719 0.99219
vt 0.11719 0.72656
vt 0.00781 0.72656
vt 0.11719 0.58594
vt 0.00781 0.58594
vt 0.11719 0.85156
vt 0.00781 0.85156
vt 0.11719 0.72656
vt 0.00781 0.72656
vt 0.11719 0.58594
vt 0.00781 0.58594
vt 0.11719 0.71094
vt 0.00781 0.71094
vt 0.38281 0.08594
vt 0.42969 0.08594
vt 0.42969 0.17969
vt 0.36719 0.17969
vt 0.33594 0.17969
vt 0.33594 0.08594
vt 0.72656 0.10156
vt 0.99219 0.17969
vt 0.72656 0.17969
vt 0.99219 0.10156
vt 0.44531 0.33594
vt 0.42969 0.27344
vt 0.66406 0.27344
vt 0.64844 0.33594
vt 0.07031 0.83594
vt 0.07031 0.77344
vt 0.11719 0.77344
vt 0.11719 0.83594
vt 0.11719 0.88281
vt 0.05469 0.88281
vt 0.11719 0.80469
vt 0.05469 0.80469
vt 0.11719 0.88281
vt 0.05469 0.88281
vt 0.11719 0.80469
vt 0.05469 0.80469
vt 0.83594 0.11719
vt 0.89844 0.11719
vt 0.83594 0.17969
vt 0.89844 0.17969
vt 0.72656 0.17969
vt 0.99219 0.17969
vt 0.99219 0.10156
vt 0.72656 0.10156
vt 0.83594 0.13281
vt 0.89844 0.19531
vt 0.89844 0.13281
vt 0.83594 0.19531
vt 0.99219 0.10156
vt 0.99219 0.17969
vt 0.72656 0.17969
vt 0.72656 0.10156
vt 0.99219 0.17969
vt 0.99219 0.10156
vt 0.72656 0.17969
vt 0.72656 0.10156
vt 0.72656 0.17969
vt 0.99219 0.10156
vt 0.99219 0.17969
vt 0.72656 0.10156
vt 0.24219 0.19531
vt 0.30469 0.21094
vt 0.24219 0.24219
vt 0.30469 0.19531
vt 0.30469 0.24219
vt 0.67969 0.47656
vt 0.49219 0.47656
vt 0.49219 0.53906
vt 0.99219 0.53906
vt 0.88281 0.47656
vt 0.94531 0.46094
vt 0.82031 0.47656
vt 0.71094 0.46094
vt 0.74219 0.41406
vt 0.71094 0.39844
vt 0.74219 0.35156
vt 0.67969 0.36719
vt 0.49219 0.35156
vt 0.49219 0.36719
vt 0.49219 0.53906
vt 0.49219 0.47656
vt 0.67969 0.47656
vt 0.99219 0.53906
vt 0.88281 0.47656
vt 0.94531 0.46094
vt 0.82031 0.47656
vt 0.71094 0.46094
vt 0.74219 0.41406
vt 0.71094 0.39844
vt 0.74219 0.35156
vt 0.67969 0.36719
vt 0.49219 0.35156
vt 0.49219 0.36719
vt 0.47656 0.53906
vt 0.47656 0.46094
vt 0.33594 0.50781
vt 0.47656 0.44531
vt 0.35156 0.46094
vt 0.30469 0.47656
vt 0.27344 0.49219
vt 0.27344 0.44531
vt 0.03906 0.46094
vt 0.03906 0.41406
vt 0.30469 0.44531
vt 0.00781 0.41406
vt 0.00781 0.46094
vt 0.03906 0.50781
vt 0.03906 0.53906
vt 0.00781 0.49219
vt 0.00781 0.53906
vt 0.27344 0.35156
vt 0.03906 0.28906
vt 0.27344 0.28906
vt 0.21094 0.25781
vt 0.03906 0.28906
vt 0.03906 0.25781
vt 0.03906 0.27344
vt 0.30469 0.35156
vt 0.00781 0.39844
vt 0.30469 0.27344
vt 0.03906 0.53906
vt 0.03906 0.50781
vt 0.03906 0.46094
vt 0.03906 0.41406
vt 0.03906 0.39844
vt 0.27344 0.44531
vt 0.27344 0.49219
vt 0.33594 0.50781
vt 0.47656 0.46094
vt 0.47656 0.53906
vt 0.27344 0.35156
vt 0.03906 0.28906
vt 0.27344 0.28906
vt 0.21094 0.25781
vt 0.03906 0.28906
vt 0.03906 0.25781
vt 0.03906 0.27344
vt 0.03906 0.32031
vt 0.03906 0.35156
vt 0.03906 0.36719
vt 0.00781 0.35156
vt 0.00781 0.36719
vt 0.03906 0.36719
vt 0.03906 0.39844
vt 0.03906 0.35156
vt 0.03906 0.32031
vt 0.00781 0.32031
vt 0.00781 0.28906
vt 0.00781 0.27344
vt 0.00781 0.25781
vt 0.00781 0.22656
vt 0.16406 0.69531
vt 0.16406 0.60156
vt 0.14844 0.69531
vt 0.19531 0.61719
vt 0.22656 0.55469
vt 0.24219 0.60156
vt 0.36719 0.55469
vt 0.36719 0.60156
vt 0.49219 0.55469
vt 0.49219 0.60156
vt 0.77344 0.55469
vt 0.77344 0.60156
vt 0.99219 0.55469
vt 0.99219 0.60156
vt 0.99219 0.71094
vt 0.27344 0.69531
vt 0.36719 0.64844
vt 0.32031 0.69531
vt 0.36719 0.67969
vt 0.46094 0.67969
vt 0.46094 0.69531
vt 0.53906 0.71094
vt 0.99219 0.74219
vt 0.53906 0.74219
vt 0.36719 0.64844
vt 0.27344 0.69531
vt 0.53906 0.71094
vt 0.99219 0.71094
vt 0.46094 0.67969
vt 0.36719 0.60156
vt 0.24219 0.60156
vt 0.19531 0.61719
vt 0.16406 0.69531
vt 0.49219 0.60156
vt 0.77344 0.60156
vt 0.99219 0.60156
vt 0.30469 0.44531
vt 0.24219 0.44531
vt 0.24219 0.50781
vt 0.30469 0.50781
vt 0.30469 0.22656
vt 0.24219 0.30469
vt 0.24219 0.25781
vt 0.24219 0.22656
vt 0.10156 0.22656
vt 0.10156 0.25781
vt 0.07031 0.25781
vt 0.00781 0.22656
vt 0.00781 0.28906
vt 0.05469 0.28906
vt 0.00781 0.32031
vt 0.07031 0.35156
vt 0.00781 0.36719
vt 0.08594 0.38281
vt 0.03906 0.50781
vt 0.00781 0.50781
vt 0.08594 0.50781
vt 0.14844 0.50781
vt 0.19531 0.50781
vt 0.19531 0.49219
vt 0.03906 0.50781
vt 0.08594 0.38281
vt 0.07031 0.35156
vt 0.05469 0.28906
vt 0.08594 0.50781
vt 0.14844 0.50781
vt 0.19531 0.50781
vt 0.24219 0.30469
vt 0.24219 0.25781
vt 0.24219 0.44531
vt 0.24219 0.50781
vt 0.10156 0.25781
vt 0.07031 0.25781
vt 0.19531 0.49219
vt 0.30469 0.27344
vt 0.21094 0.25781
vt 0.21094 0.22656
vt 0.27344 0.28906
vt 0.00781 0.22656
vt 0.03906 0.25781
vt 0.30469 0.27344
vt 0.21094 0.22656
vt 0.00781 0.22656
vt 0.67969 0.38281
vt 0.49219 0.38281
vt 0.67969 0.46094
vt 0.49219 0.42969
vt 0.36719 0.38281
vt 0.49219 0.42969
vt 0.67969 0.38281
vt 0.49219 0.38281
vt 0.67969 0.46094
vt 0.36719 0.38281
vt 0.11719 0.99219
vt 0.05469 0.85156
vt 0.11719 0.85156
vt 0.05469 0.99219
vt 0.11719 0.99219
vt 0.11719 0.85156
vt 0.05469 0.99219
vt 0.05469 0.85156
vt 0.86719 0.42969
vt 0.91406 0.36719
vt 0.83594 0.42969
vt 0.91406 0.42969
vt 0.94531 0.42969
vt 0.99219 0.42969
vt 0.86719 0.42969
vt 0.91406 0.42969
vt 0.94531 0.42969
vt 0.83594 0.42969
vt 0.91406 0.36719
vt 0.86719 0.42969
vt 0.91406 0.42969
vt 0.94531 0.42969
vt 0.99219 0.42969
vt 0.86719 0.42969
vt 0.91406 0.42969
vt 0.94531 0.42969
vt 0.44531 0.99219
vt 0.44531 0.88281
vt 0.49219 0.99219
vt 0.55469 0.88281
vt 0.55469 0.99219
vt 0.21094 0.99219
vt 0.21094 0.88281
vt 0.17969 0.99219
vt 0.13281 0.88281
vt 0.13281 0.99219
vt 0.63281 0.99219
vt 0.63281 0.88281
vt 0.66406 0.88281
vt 0.66406 0.99219
vt 0.52322 0.19354
vt 0.32230 0.19354
vt 0.52322 0.26261
vt 0.32230 0.26261
vt 0.34030 0.19354
vt 0.34030 0.26261
vt 0.35230 0.19354
vt 0.35230 0.26261
vt 0.34030 0.26261
vt 0.34030 0.19354
vt 0.32230 0.26261
vt 0.32230 0.19354
vt 0.52322 0.26261
vt 0.52322 0.19354
vt 0.44414 0.26199
vt 0.65091 0.26172
vt 0.65200 0.19000
vt 0.43661 0.19499
vt 0.36642 0.19499
vt 0.36642 0.26199
vt 0.32230 0.26261
vt 0.32230 0.19354
vt 0.36624 0.26147
vt 0.40814 0.26161
vt 0.36624 0.19405
vt 0.40814 0.19405
vt 0.46053 0.19419
vt 0.46053 0.26162
vt 0.52813 0.26162
vt 0.52813 0.19413
vt 0.65091 0.26172
vt 0.65091 0.19424
vt 0.64761 0.19424
vt 0.43432 0.26172
vt 0.44106 0.19434
vt 0.64761 0.26172
vt 0.32148 0.26172
vt 0.32148 0.19434
vt 0.52322 0.26261
vt 0.32230 0.19354
vt 0.52322 0.19354
vt 0.32230 0.26261
vt 0.52322 0.26261
vt 0.32230 0.19354
vt 0.52322 0.19354
vt 0.32230 0.26261
vt 0.09400 0.74747
vt 0.09400 0.80780
vt 0.06655 0.74747
vt 0.12145 0.74747
vt 0.09400 0.74747
vt 0.06655 0.74747
vt 0.09400 0.74747
vt 0.12145 0.74747
vt 0.09400 0.74747
vt 0.89238 0.90483
vt 0.97816 0.91913
vt 0.89238 0.91913
vt 0.89238 0.91913
vt 0.89238 0.93342
vt 0.89238 0.94772
vt 0.89238 0.93342
vt 0.89238 0.91913
vt 0.89238 0.91913
vt 0.06655 0.74747
vt 0.09400 0.80780
vt 0.09400 0.74747
vt 0.12145 0.74747
vt 0.09400 0.74747
vt 0.06655 0.74747
vt 0.09400 0.74747
vt 0.12145 0.74747
vt 0.09400 0.74747
vt 0.89238 0.91913
vt 0.97816 0.91913
vt 0.89238 0.90483
vt 0.89238 0.91913
vt 0.89238 0.93342
vt 0.89238 0.94772
vt 0.89238 0.93342
vt 0.89238 0.91913
vt 0.89238 0.91913
usemtl m0
f 1/1 2/2 3/3
f 1/1 3/3 4/4
f 5/5 6/6 7/7
f 5/5 7/7 8/8
f 9/9 10/10 11/11
f 12/12 10/10 9/9
f 13/13 14/14 15/15
f 15/15 14/14 16/16
f 17/17 18/18 19/19
f 17/17 20/20 18/18
f 20/20 21/21 18/18
f 21/21 22/22 18/18
f 23/23 24/24 25/25
f 25/25 24/24 26/26
f 24/24 27/27 26/26
f 26/26 27/27 28/28
f 27/27 29/29 28/28
f 28/28 29/29 30/30
f 31/31 32/32 33/33
f 34/34 32/32 31/31
f 32/32 35/35 33/33
f 33/33 35/35 36/36
f 35/35 37/37 36/36
f 36/36 37/37 38/38
f 37/37 39/39 38/38
f 38/38 39/39 40/40
f 41/41 42/42 43/43
f 41/41 43/43 44/44
f 45/45 46/46 47/47
f 48/48 46/46 45/45
f 47/47 46/46 49/49
f 50/50 51/51 52/52
f 52/52 51/51 53/53
f 54/54 50/50 52/52
f 55/55 50/50 54/54
f 56/56 55/55 54/54
f 57/57 55/55 56/56
f 58/58 57/57 56/56
f 59/59 57/57 58/58
f 58/58 60/60 59/59
f 59/59 60/60 61/61
f 62/62 63/63 64/64
f 64/64 63/63 65/65
f 64/64 65/65 66/66
f 67/67 68/68 69/69
f 67/67 69/69 70/70
f 71/71 72/72 73/73
f 74/74 71/71 73/73
f 75/75 72/72 71/71
f 75/75 71/71 76/76
f 76/76 77/77 75/75
f 75/75 77/77 78/78
f 79/79 77/77 76/76
f 79/79 76/76 80/80
f 81/81 79/79 80/80
f 82/82 79/79 81/81
f 83/83 79/79 82/82
f 84/84 79/79 83/83
f 82/82 81/81 85/85
f 84/84 86/86 79/79
f 79/79 86/86 87/87
f 87/87 77/77 79/79
f 88/88 77/77 87/87
f 89/89 90/90 91/91
f 92/92 90/90 89/89
f 93/93 94/94 95/95
f 96/96 94/94 93/93
f 97/97 98/98 99/99
f 97/97 99/99 100/100
f 101/101 102/102 103/103
f 103/103 102/102 104/104
f 102/102 105/105 104/104
f 106/106 107/107 108/108
f 108/108 107/107 109/109
f 106/106 110/110 107/107
f 111/111 110/110 106/106
f 112/112 111/111 106/106
f 113/113 111/111 112/112
f 114/114 115/115 116/116
f 117/117 115/115 114/114
f 115/115 118/118 116/116
f 116/116 118/118 119/119
f 116/116 119/119 120/120
f 120/120 119/119 121/121
f 122/122 123/123 124/124
f 124/124 123/123 125/125
f 126/126 127/127 128/128
f 126/126 128/128 129/129
f 129/129 130/130 126/126
f 129/129 131/131 130/130
f 131/131 132/132 130/130
f 130/130 132/132 133/133
f 134/134 135/135 136/136
f 137/137 135/135 134/134
f 138/138 135/135 137/137
f 139/139 135/135 138/138
f 140/140 141/141 142/142
f 143/143 141/141 140/140
f 144/144 145/145 146/146
f 147/147 144/144 146/146
f 148/148 144/144 147/147
f 149/149 148/148 147/147
f 146/146 145/145 150/150
f 146/146 150/150 151/151
f 151/151 150/150 148/148
f 151/151 148/148 149/149
f 152/152 153/153 154/154
f 155/155 153/153 152/152
f 155/155 156/156 153/153
f 156/156 157/157 153/153
f 154/154 158/158 152/152
f 158/158 157/157 156/156
f 152/152 158/158 159/159
f 158/158 156/156 159/159
f 160/160 161/161 162/162
f 162/162 161/161 163/163
f 164/164 165/165 166/166
f 164/164 167/167 165/165
f 166/166 165/165 168/168
f 169/169 166/166 168/168
f 169/169 168/168 170/170
f 169/169 170/170 171/171
f 172/172 173/173 174/174
f 172/172 174/174 175/175
f 176/176 177/177 178/178
f 176/176 178/178 179/179
f 180/180 181/181 182/182
f 183/183 180/180 182/182
f 184/184 185/185 186/186
f 187/187 185/185 184/184
f 187/187 188/188 185/185
f 188/188 189/189 185/185
f 186/186 190/190 184/184
f 190/190 189/189 188/188
f 184/184 190/190 191/191
f 190/190 188/188 191/191
f 192/192 193/193 194/194
f 195/195 192/192 194/194
f 195/195 194/194 196/196
f 196/196 194/194 197/197
f 198/198 199/199 200/200
f 201/201 198/198 200/200
f 202/202 203/203 204/204
f 202/202 205/205 203/203
f 206/206 205/205 202/202
f 207/207 205/205 206/206
f 207/207 208/208 205/205
f 207/207 209/209 208/208
f 210/210 209/209 207/207
f 210/210 211/211 209/209
f 212/212 211/211 210/210
f 213/213 214/214 215/215
f 216/216 213/213 215/215
f 215/215 214/214 217/217
f 214/214 218/218 217/217
f 218/218 219/219 217/217
f 217/217 219/219 220/220
f 220/220 219/219 221/221
f 219/219 222/222 221/221
f 223/223 224/224 225/225
f 226/226 224/224 223/223
f 227/227 228/228 229/229
f 230/230 227/227 229/229
f 227/227 231/231 228/228
f 231/231 232/232 228/228
f 231/231 233/233 232/232
f 233/233 234/234 232/232
f 229/229 235/235 230/230
f 229/229 236/236 235/235
f 236/236 237/237 235/235
f 236/236 238/238 237/237
f 238/238 239/239 237/237
f 238/238 240/240 239/239
f 240/240 241/241 239/239
f 233/233 241/241 234/234
f 240/240 242/242 241/241
f 241/241 242/242 234/234
f 243/243 244/244 245/245
f 243/243 245/245 246/246
f 247/247 243/243 246/246
f 248/248 243/243 247/247
f 249/249 250/250 251/251
f 252/252 250/250 249/249
f 253/253 254/254 255/255
f 253/253 255/255 256/256
f 257/257 258/258 259/259
f 257/257 259/259 260/260
f 261/261 262/262 263/263
f 262/262 264/264 263/263
f 263/263 264/264 265/265
f 264/264 266/266 265/265
f 267/267 262/262 261/261
f 267/267 268/268 262/262
f 265/265 268/268 267/267
f 265/265 266/266 268/268
f 269/269 270/270 271/271
f 270/270 272/272 271/271
f 273/273 274/274 275/275
f 273/273 275/275 276/276
f 277/277 278/278 279/279
f 280/280 278/278 277/277
f 281/281 282/282 283/283
f 284/284 281/281 283/283
f 285/285 286/286 287/287
f 287/287 286/286 288/288
f 289/289 290/290 291/291
f 292/292 290/290 289/289
f 293/293 294/294 295/295
f 296/296 294/294 293/293
f 295/295 294/294 297/297
f 298/298 299/299 300/300
f 301/301 298/298 300/300
f 302/302 298/298 301/301
f 301/301 303/303 302/302
f 302/302 304/304 298/298
f 304/304 305/305 298/298
f 304/304 306/306 305/305
f 306/306 307/307 305/305
f 306/306 308/308 307/307
f 307/307 308/308 309/309
f 308/308 310/310 309/309
f 309/309 310/310 311/311
f 312/312 313/313 314/314
f 312/312 314/314 315/315
f 315/315 314/314 316/316
f 316/316 317/317 315/315
f 314/314 318/318 316/316
f 314/314 319/319 318/318
f 319/319 320/320 318/318
f 319/319 321/321 320/320
f 321/321 322/322 320/320
f 323/323 322/322 321/321
f 323/323 324/324 322/322
f 325/325 324/324 323/323
f 326/326 327/327 328/328
f 327/327 329/329 328/328
f 328/328 329/329 330/330
f 330/330 331/331 328/328
f 328/328 331/331 332/332
f 331/331 333/333 332/332
f 332/332 333/333 334/334
f 333/333 335/335 334/334
f 336/336 333/333 331/331
f 335/335 337/337 334/334
f 334/334 337/337 338/338
f 334/334 338/338 339/339
f 332/332 334/334 339/339
f 340/340 332/332 339/339
f 328/328 332/332 340/340
f 326/326 328/328 340/340
f 339/339 341/341 340/340
f 339/339 338/338 341/341
f 340/340 341/341 342/342
f 336/336 343/343 333/333
f 343/343 344/344 333/333
f 343/343 345/345 344/344
f 345/345 346/346 344/344
f 344/344 346/346 347/347
f 346/346 348/348 347/347
f 347/347 348/348 349/349
f 350/350 343/343 336/336
f 335/335 351/351 337/337
f 352/352 345/345 343/343
f 350/350 352/352 343/343
f 342/342 341/341 353/353
f 353/353 341/341 354/354
f 341/341 338/338 354/354
f 354/354 338/338 355/355
f 338/338 337/337 355/355
f 355/355 337/337 356/356
f 337/337 351/351 356/356
f 356/356 351/351 357/357
f 356/356 357/357 358/358
f 355/355 356/356 358/358
f 355/355 358/358 359/359
f 354/354 355/355 359/359
f 354/354 359/359 353/353
f 359/359 358/358 331/331
f 359/359 331/331 360/360
f 353/353 359/359 360/360
f 360/360 331/331 330/330
f 330/330 329/329 360/360
f 360/360 329/329 361/361
f 360/360 361/361 362/362
f 353/353 360/360 362/362
f 331/331 358/358 336/336
f 358/358 363/363 336/336
f 358/358 364/364 363/363
f 364/364 365/365 363/363
f 364/364 366/366 365/365
f 367/367 366/366 364/364
f 367/367 368/368 366/366
f 369/369 368/368 367/367
f 370/370 364/364 358/358
f 371/371 370/370 358/358
f 372/372 371/371 358/358
f 336/336 363/363 350/350
f 372/372 373/373 371/371
f 374/374 373/373 372/372
f 375/375 373/373 374/374
f 375/375 374/374 376/376
f 333/333 375/375 376/376
f 376/376 374/374 351/351
f 376/376 351/351 335/335
f 333/333 376/376 335/335
f 377/377 373/373 375/375
f 333/333 377/377 375/375
f 333/333 378/378 377/377
f 333/333 344/344 378/378
f 377/377 379/379 373/373
f 378/378 379/379 377/377
f 373/373 379/379 371/371
f 371/371 379/379 370/370
f 351/351 374/374 357/357
f 357/357 374/374 372/372
f 357/357 372/372 358/358
f 378/378 380/380 379/379
f 344/344 380/380 378/378
f 379/379 380/380 370/370
f 370/370 380/380 364/364
f 380/380 367/367 364/364
f 380/380 381/381 367/367
f 381/381 369/369 367/367
f 381/381 382/382 369/369
f 382/382 383/383 369/369
f 369/369 383/383 368/368
f 349/349 383/383 382/382
f 349/349 382/382 381/381
f 348/348 383/383 349/349
f 347/347 349/349 381/381
f 347/347 381/381 380/380
f 344/344 347/347 380/380
f 384/384 385/385 386/386
f 387/387 385/385 384/384
f 387/387 388/388 385/385
f 389/389 388/388 387/387
f 389/389 390/390 388/388
f 391/391 390/390 389/389
f 391/391 392/392 390/390
f 393/393 392/392 391/391
f 393/393 394/394 392/392
f 395/395 394/394 393/393
f 395/395 396/396 394/394
f 397/397 396/396 395/395
f 398/398 397/397 395/395
f 399/399 387/387 384/384
f 399/399 389/389 387/387
f 399/399 391/391 389/389
f 400/400 391/391 399/399
f 401/401 400/400 399/399
f 402/402 400/400 401/401
f 402/402 403/403 400/400
f 403/403 391/391 400/400
f 403/403 393/393 391/391
f 404/404 403/403 402/402
f 405/405 403/403 404/404
f 405/405 393/393 403/403
f 398/398 395/395 405/405
f 405/405 395/395 393/393
f 406/406 398/398 405/405
f 407/407 406/406 405/405
f 407/407 405/405 404/404
f 401/401 408/408 402/402
f 409/409 408/408 401/401
f 410/410 406/406 407/407
f 404/404 410/410 407/407
f 410/410 411/411 406/406
f 404/404 412/412 410/410
f 402/402 412/412 404/404
f 408/408 412/412 402/402
f 409/409 413/413 408/408
f 408/408 413/413 412/412
f 414/414 413/413 409/409
f 414/414 390/390 413/413
f 388/388 390/390 414/414
f 415/415 388/388 414/414
f 415/415 414/414 409/409
f 385/385 388/388 415/415
f 416/416 385/385 415/415
f 416/416 415/415 409/409
f 386/386 385/385 416/416
f 390/390 392/392 413/413
f 413/413 392/392 417/417
f 413/413 417/417 412/412
f 412/412 417/417 410/410
f 392/392 394/394 417/417
f 417/417 394/394 418/418
f 410/410 418/418 411/411
f 417/417 418/418 410/410
f 394/394 396/396 418/418
f 418/418 396/396 419/419
f 418/418 419/419 411/411
f 420/420 421/421 422/422
f 423/423 420/420 422/422
f 420/420 424/424 421/421
f 424/424 425/425 421/421
f 424/424 426/426 425/425
f 424/424 427/427 426/426
f 427/427 428/428 426/426
f 426/426 428/428 429/429
f 429/429 428/428 430/430
f 428/428 431/431 430/430
f 430/430 431/431 432/432
f 433/433 430/430 432/432
f 429/429 430/430 433/433
f 426/426 429/429 433/433
f 426/426 433/433 425/425
f 433/433 432/432 434/434
f 435/435 433/433 434/434
f 425/425 433/433 435/435
f 435/435 434/434 436/436
f 437/437 435/435 436/436
f 425/425 435/435 437/437
f 437/437 436/436 438/438
f 438/438 436/436 439/439
f 440/440 437/437 438/438
f 441/441 437/437 440/440
f 442/442 437/437 441/441
f 443/443 437/437 442/442
f 422/422 443/443 442/442
f 422/422 421/421 443/443
f 421/421 437/437 443/443
f 421/421 425/425 437/437
f 439/439 436/436 444/444
f 444/444 436/436 445/445
f 436/436 446/446 445/445
f 436/436 434/434 446/446
f 434/434 447/447 446/446
f 444/444 445/445 448/448
f 448/448 445/445 449/449
f 449/449 445/445 450/450
f 446/446 447/447 451/451
f 445/445 446/446 451/451
f 451/451 447/447 452/452
f 451/451 452/452 424/424
f 453/453 451/451 424/424
f 445/445 451/451 453/453
f 453/453 424/424 420/420
f 454/454 453/453 420/420
f 454/454 420/420 423/423
f 452/452 427/427 424/424
f 452/452 428/428 427/427
f 455/455 428/428 452/452
f 447/447 455/455 452/452
f 456/456 428/428 455/455
f 447/447 456/456 455/455
f 432/432 456/456 447/447
f 434/434 432/432 447/447
f 432/432 431/431 456/456
f 456/456 431/431 428/428
f 450/450 457/457 454/454
f 457/457 453/453 454/454
f 457/457 445/445 453/453
f 450/450 445/445 457/457
f 458/458 459/459 460/460
f 461/461 459/459 458/458
f 460/460 459/459 462/462
f 459/459 463/463 462/462
f 464/464 459/459 461/461
f 465/465 459/459 464/464
f 466/466 463/463 459/459
f 466/466 459/459 465/465
f 363/363 365/365 352/352
f 363/363 352/352 350/350
f 467/467 468/468 469/469
f 469/469 468/468 470/470
f 468/468 471/471 470/470
f 472/472 473/473 474/474
f 472/472 475/475 473/473
f 476/476 472/472 474/474
f 477/477 478/478 479/479
f 480/480 478/478 477/477
f 481/481 482/482 483/483
f 482/482 484/484 483/483
f 485/485 486/486 487/487
f 488/488 486/486 485/485
f 488/488 489/489 486/486
f 489/489 490/490 486/486
f 487/487 486/486 491/491
f 486/486 492/492 491/491
f 486/486 490/490 493/493
f 486/486 493/493 492/492
f 494/494 495/495 496/496
f 496/496 495/495 497/497
f 495/495 498/498 497/497
f 495/495 499/499 498/498
f 500/500 495/495 494/494
f 500/500 501/501 495/495
f 502/502 499/499 495/495
f 501/501 502/502 495/495
f 503/503 504/504 505/505
f 505/505 504/504 506/506
f 505/505 506/506 507/507
f 508/508 509/509 510/510
f 510/510 509/509 511/511
f 510/510 511/511 512/512
f 513/513 514/514 515/515
f 513/513 515/515 516/516
f 517/517 518/518 519/519
f 519/519 518/518 520/520
f 518/518 521/521 520/520
f 520/520 521/521 522/522
f 521/521 523/523 522/522
f 522/522 523/523 524/524
f 525/525 523/523 524/524
f 526/526 523/523 525/525
f 527/527 526/526 525/525
f 528/528 526/526 527/527
f 529/529 528/528 527/527
f 530/530 528/528 529/529
f 531/531 532/532 533/533
f 531/531 533/533 534/534
f 535/535 531/531 534/534
f 536/536 531/531 535/535
f 532/532 537/537 533/533
f 533/533 537/537 538/538
f 539/539 540/540 541/541
f 540/540 542/542 541/541
f 540/540 543/543 542/542
f 540/540 544/544 543/543
f 544/544 545/545 543/543
f 543/543 545/545 546/546
f 545/545 547/547 546/546
f 546/546 547/547 548/548
f 549/549 550/550 551/551
f 552/552 550/550 549/549
f 550/550 553/553 551/551
f 551/551 553/553 554/554
f 555/555 556/556 557/557
f 555/555 558/558 556/556
f 559/559 560/560 561/561
f 559/559 562/562 560/560
f 563/563 564/564 565/565
f 566/566 564/564 563/563
f 566/566 567/567 564/564
f 567/567 568/568 564/564
f 564/564 568/568 569/569
f 564/564 569/569 570/570
f 571/571 564/564 570/570
f 565/565 564/564 571/571
f 572/572 573/573 574/574
f 573/573 575/575 574/574
f 573/573 576/576 575/575
f 573/573 577/577 576/576
f 578/578 577/577 573/573
f 579/579 578/578 573/573
f 580/580 579/579 573/573
f 580/580 573/573 572/572
f 581/581 582/582 583/583
f 583/583 582/582 584/584
f 582/582 585/585 584/584
f 582/582 586/586 585/585
f 587/587 586/586 582/582
f 588/588 587/587 582/582
f 589/589 588/588 582/582
f 589/589 582/582 581/581
f 590/590 591/591 592/592
f 593/593 591/591 590/590
f 594/594 591/591 593/593
f 594/594 595/595 591/591
f 591/591 595/595 596/596
f 591/591 596/596 597/597
f 598/598 591/591 597/597
f 592/592 591/591 598/598
