mtllib acce825.mtl
o acce825
v -0.19962 0.00000 2.80980 0.000 0.000 0.843
v -0.18792 -0.09216 2.76210 0.000 0.000 0.894
v -0.17460 -0.08442 2.80980 0.000 0.000 0.812
v -0.21402 0.00000 2.76210 0.000 0.000 0.894
v -0.17082 0.00000 2.85084 0.000 0.000 0.898
v -0.15030 -0.07020 2.85084 0.000 0.000 0.898
v -0.12870 0.00000 2.88234 0.000 0.000 0.988
v -0.11430 -0.04860 2.88234 0.000 0.000 0.988
v -0.05778 0.00000 2.90214 0.000 0.000 1.000
v -0.18792 0.09216 2.76210 0.000 0.000 0.894
v -0.17460 0.08442 2.80980 0.000 0.000 0.812
v -0.22662 0.11340 2.63520 0.000 0.000 0.937
v -0.15030 0.07020 2.85084 0.000 0.000 0.898
v -0.11430 0.04860 2.88234 0.000 0.000 0.988
v -0.22662 -0.11340 2.63520 0.000 0.000 0.937
v -0.25272 0.00000 2.64060 0.000 0.000 0.922
v -0.32166 -0.17082 2.41326 0.000 0.000 0.988
v -0.35334 0.00000 2.41164 0.000 0.000 0.988
v -0.32166 0.17082 2.41326 0.000 0.000 0.988
v -0.40896 0.00000 2.30490 0.000 0.000 1.000
v -0.49374 -0.14310 2.11680 0.000 0.000 0.996
v -0.44298 -0.29376 2.03760 0.000 0.000 1.000
v -0.48798 -0.01422 1.99494 0.000 0.000 1.000
v -0.62892 -0.30978 1.72908 0.000 0.000 0.969
v -0.39312 0.00000 2.12598 0.000 0.000 1.000
v -0.48798 0.01422 1.99494 0.000 0.000 1.000
v -0.49374 0.14310 2.11680 0.000 0.000 0.996
v -0.44298 0.29376 2.03760 0.000 0.000 1.000
v -0.62892 0.30978 1.72908 0.000 0.000 0.969
v -0.51516 -0.44532 1.64070 0.000 0.000 1.000
v -0.66960 -0.39294 1.43676 0.000 0.000 0.973
v -0.53208 -0.44226 1.41588 0.000 0.000 1.000
v -0.67698 -0.36126 1.26936 0.000 0.000 1.000
v -0.55530 -0.38250 1.23390 0.000 0.000 1.000
v -0.65574 -0.29052 1.15704 0.000 0.000 1.000
v -0.57456 -0.28836 1.14624 0.000 0.000 1.000
v -0.63162 -0.21078 1.11654 0.000 0.000 1.000
v -0.59886 -0.07902 1.12104 0.000 0.000 0.929
v -0.63702 -0.18756 1.21032 0.000 0.000 1.000
v -0.63162 -0.21078 1.11654 0.000 0.000 1.000
v -0.59886 -0.07902 1.12104 0.000 0.000 0.929
v -0.64224 -0.25434 1.34982 0.000 0.000 1.000
v -0.66960 -0.39294 1.43676 0.000 0.000 0.973
v -0.62892 -0.30978 1.72908 0.000 0.000 0.969
v -0.63036 -0.24300 1.48248 0.000 0.000 1.000
v -0.58662 -0.14382 1.68480 0.000 0.000 1.000
v -0.61128 -0.18738 1.49058 0.000 0.000 1.000
v -0.61686 -0.17946 1.38384 0.000 0.000 1.000
v -0.61596 -0.19404 1.36674 0.000 0.000 1.000
v -0.58626 -0.11988 1.31256 0.000 0.000 1.000
v -0.51516 0.44532 1.64070 0.000 0.000 1.000
v -0.66960 0.39294 1.43676 0.000 0.000 0.973
v -0.62892 0.30978 1.72908 0.000 0.000 0.969
v -0.53208 0.44226 1.41588 0.000 0.000 1.000
v -0.67698 0.36126 1.26936 0.000 0.000 1.000
v -0.55530 0.38250 1.23390 0.000 0.000 1.000
v -0.65574 0.29052 1.15704 0.000 0.000 1.000
v -0.57456 0.28836 1.14624 0.000 0.000 1.000
v -0.63162 0.21078 1.11654 0.000 0.000 1.000
v -0.59886 0.07902 1.12104 0.000 0.000 0.929
v -0.63702 0.18756 1.21032 0.000 0.000 1.000
v -0.63162 0.21078 1.11654 0.000 0.000 1.000
v -0.59886 0.07902 1.12104 0.000 0.000 0.929
v -0.64224 0.25434 1.34982 0.000 0.000 1.000
v -0.66960 0.39294 1.43676 0.000 0.000 0.973
v -0.63036 0.24300 1.48248 0.000 0.000 1.000
v -0.58662 0.14382 1.68480 0.000 0.000 1.000
v -0.61128 0.18738 1.49058 0.000 0.000 1.000
v -0.61686 0.17946 1.38384 0.000 0.000 1.000
v -0.61596 0.19404 1.36674 0.000 0.000 1.000
v -0.58626 0.11988 1.31256 0.000 0.000 1.000
v -0.17460 -0.08442 2.80980 0.000 0.000 0.812
v -0.10566 -0.15984 2.76210 0.000 0.000 0.863
v -0.09432 -0.14634 2.80980 0.000 0.000 0.749
v -0.18792 -0.09216 2.76210 0.000 0.000 0.894
v -0.15048 -0.19062 2.62170 0.000 0.000 0.969
v -0.22662 -0.11340 2.63520 0.000 0.000 0.937
v -0.32166 -0.17082 2.41326 0.000 0.000 0.988
v -0.15030 -0.07020 2.85084 0.000 0.000 0.898
v -0.07992 -0.12366 2.85084 0.000 0.000 0.871
v -0.11430 -0.04860 2.88234 0.000 0.000 0.988
v -0.05940 -0.09072 2.88234 0.000 0.000 0.945
v -0.02790 -0.04284 2.90214 0.000 0.000 0.965
v -0.05778 0.00000 2.90214 0.000 0.000 1.000
v 0.00000 0.00000 2.90790 0.000 0.000 0.965
v -0.02790 0.04284 2.90214 0.000 0.000 0.965
v -0.11430 0.04860 2.88234 0.000 0.000 0.988
v -0.05940 0.09072 2.88234 0.000 0.000 0.945
v -0.07992 0.12366 2.85084 0.000 0.000 0.871
v -0.15030 0.07020 2.85084 0.000 0.000 0.898
v -0.09432 0.14634 2.80980 0.000 0.000 0.749
v -0.17460 0.08442 2.80980 0.000 0.000 0.812
v -0.10566 0.15984 2.76210 0.000 0.000 0.863
v -0.18792 0.09216 2.76210 0.000 0.000 0.894
v -0.15048 0.19062 2.62170 0.000 0.000 0.969
v -0.22662 0.11340 2.63520 0.000 0.000 0.937
v -0.32166 0.17082 2.41326 0.000 0.000 0.988
v -0.22428 0.25866 2.40678 0.000 0.000 0.988
v -0.37296 0.44424 2.07720 0.000 0.000 0.984
v -0.44298 0.29376 2.03760 0.000 0.000 1.000
v -0.27558 0.49842 2.08800 0.000 0.000 1.000
v -0.42876 0.60192 1.85706 0.000 0.000 0.965
v -0.26946 0.66816 1.85526 0.000 0.000 1.000
v -0.47862 0.70290 1.66086 0.000 0.000 0.953
v -0.26550 0.72774 1.69992 0.000 0.000 1.000
v -0.28134 0.76968 1.49328 0.000 0.000 1.000
v -0.52290 0.74556 1.43640 0.000 0.000 0.961
v -0.33768 0.75582 1.31238 0.000 0.000 0.980
v -0.29340 0.75294 1.29474 0.000 0.000 0.965
v -0.54018 0.72432 1.20726 0.000 0.000 0.980
v -0.50922 0.58446 1.04760 0.000 0.000 0.980
v -0.31266 0.70218 1.20726 0.000 0.000 1.000
v -0.27882 0.70380 1.19754 0.000 0.000 1.000
v -0.23958 0.60066 1.09548 0.000 0.000 0.965
v -0.39564 0.57060 1.09152 0.000 0.000 0.965
v -0.46224 0.41760 0.99684 0.000 0.000 0.957
v -0.40770 0.42264 1.03518 0.000 0.000 0.945
v -0.41310 0.26136 1.02888 0.000 0.000 0.929
v -0.22428 -0.25866 2.40678 0.000 0.000 0.988
v -0.37296 -0.44424 2.07720 0.000 0.000 0.984
v -0.44298 -0.29376 2.03760 0.000 0.000 1.000
v -0.27558 -0.49842 2.08800 0.000 0.000 1.000
v -0.42876 -0.60192 1.85706 0.000 0.000 0.965
v -0.26946 -0.66816 1.85526 0.000 0.000 1.000
v -0.47862 -0.70290 1.66086 0.000 0.000 0.953
v -0.26550 -0.72774 1.69992 0.000 0.000 1.000
v -0.28134 -0.76968 1.49328 0.000 0.000 1.000
v -0.52290 -0.74556 1.43640 0.000 0.000 0.961
v -0.33768 -0.75582 1.31238 0.000 0.000 0.980
v -0.29340 -0.75294 1.29474 0.000 0.000 0.965
v -0.54018 -0.72432 1.20726 0.000 0.000 0.980
v -0.50922 -0.58446 1.04760 0.000 0.000 0.980
v -0.31266 -0.70218 1.20726 0.000 0.000 1.000
v -0.27882 -0.70380 1.19754 0.000 0.000 1.000
v -0.23958 -0.60066 1.09548 0.000 0.000 0.965
v -0.39564 -0.57060 1.09152 0.000 0.000 0.965
v -0.46224 -0.41760 0.99684 0.000 0.000 0.957
v -0.40770 -0.42264 1.03518 0.000 0.000 0.945
v -0.41310 -0.26136 1.02888 0.000 0.000 0.929
v -0.51516 -0.44532 1.64070 0.000 0.000 1.000
v -0.47862 -0.70290 1.66086 0.000 0.000 0.953
v -0.52290 -0.74556 1.43640 0.000 0.000 0.961
v -0.54486 -0.48276 1.43208 0.000 0.000 1.000
v -0.54018 -0.72432 1.20726 0.000 0.000 0.980
v -0.55494 -0.49554 1.23228 0.000 0.000 0.992
v -0.50922 -0.58446 1.04760 0.000 0.000 0.980
v -0.48474 -0.37638 1.06164 0.000 0.000 0.965
v -0.46224 -0.41760 0.99684 0.000 0.000 0.957
v -0.41310 -0.26136 1.02888 0.000 0.000 0.929
v -0.55638 -0.46782 1.26864 0.000 0.000 1.000
v -0.54666 -0.44316 1.16820 0.000 0.000 0.996
v -0.54828 -0.42606 1.19106 0.000 0.000 1.000
v -0.52866 -0.35298 1.13472 0.000 0.000 1.000
v -0.42876 -0.60192 1.85706 0.000 0.000 0.965
v -0.47862 0.70290 1.66086 0.000 0.000 0.953
v -0.51516 0.44532 1.64070 0.000 0.000 1.000
v -0.52290 0.74556 1.43640 0.000 0.000 0.961
v -0.54486 0.48276 1.43208 0.000 0.000 1.000
v -0.54018 0.72432 1.20726 0.000 0.000 0.980
v -0.55494 0.49554 1.23228 0.000 0.000 0.992
v -0.50922 0.58446 1.04760 0.000 0.000 0.980
v -0.48474 0.37638 1.06164 0.000 0.000 0.965
v -0.46224 0.41760 0.99684 0.000 0.000 0.957
v -0.41310 0.26136 1.02888 0.000 0.000 0.929
v -0.55638 0.46782 1.26864 0.000 0.000 1.000
v -0.54666 0.44316 1.16820 0.000 0.000 0.996
v -0.54828 0.42606 1.19106 0.000 0.000 1.000
v -0.52866 0.35298 1.13472 0.000 0.000 1.000
v -0.42876 0.60192 1.85706 0.000 0.000 0.965
v -0.12744 -0.83646 1.16136 0.000 0.000 0.996
v -0.13608 -0.79254 1.18710 0.000 0.000 1.000
v -0.01458 -0.68778 1.10286 0.000 0.000 0.965
v -0.07974 -0.82116 1.18080 0.000 0.000 1.000
v -0.12060 -0.89136 1.31346 0.000 0.000 0.929
v -0.19314 -0.90558 1.30644 0.000 0.000 0.918
v -0.20016 -0.83520 1.30788 0.000 0.000 0.965
v -0.14328 -0.89244 1.49328 0.000 0.000 0.992
v -0.22140 -0.89442 1.48806 0.000 0.000 0.957
v -0.22446 -0.82962 1.68066 0.000 0.000 0.949
v -0.26550 -0.72774 1.69992 0.000 0.000 1.000
v -0.24174 -0.81594 1.49004 0.000 0.000 1.000
v -0.26946 -0.66816 1.85526 0.000 0.000 1.000
v -0.22644 -0.73512 1.85040 0.000 0.000 0.984
v -0.14310 -0.82764 1.65204 0.000 0.000 0.976
v -0.27558 -0.49842 2.08800 0.000 0.000 1.000
v -0.10782 -0.48528 2.09808 0.000 0.000 1.000
v -0.13644 -0.67680 1.85094 0.000 0.000 1.000
v -0.06516 -0.30456 2.36772 0.000 0.000 1.000
v -0.22428 -0.25866 2.40678 0.000 0.000 0.988
v -0.15048 -0.19062 2.62170 0.000 0.000 0.969
v -0.05796 -0.25632 2.46420 0.000 0.000 1.000
v -0.07254 -0.21780 2.61162 0.000 0.000 0.957
v -0.02520 -0.22842 2.60820 0.000 0.000 0.984
v -0.10566 -0.15984 2.76210 0.000 0.000 0.863
v 0.00270 -0.19242 2.76210 0.000 0.000 0.851
v 0.00000 -0.17064 2.80980 0.000 0.000 0.749
v -0.09432 -0.14634 2.80980 0.000 0.000 0.749
v 0.00000 -0.14310 2.85084 0.000 0.000 0.855
v -0.07992 -0.12366 2.85084 0.000 0.000 0.871
v 0.00000 -0.10260 2.88234 0.000 0.000 0.925
v -0.05940 -0.09072 2.88234 0.000 0.000 0.945
v -0.02790 -0.04284 2.90214 0.000 0.000 0.965
v 0.02430 -0.04284 2.90214 0.000 0.000 0.925
v 0.00000 0.00000 2.90790 0.000 0.000 0.965
v 0.04554 0.00000 2.90880 0.000 0.000 0.945
v 0.02430 0.04284 2.90214 0.000 0.000 0.925
v -0.02790 0.04284 2.90214 0.000 0.000 0.965
v 0.00000 0.10260 2.88234 0.000 0.000 0.925
v -0.05940 0.09072 2.88234 0.000 0.000 0.945
v -0.07992 0.12366 2.85084 0.000 0.000 0.871
v 0.00000 0.14310 2.85084 0.000 0.000 0.855
v -0.09432 0.14634 2.80980 0.000 0.000 0.749
v 0.00000 0.17064 2.80980 0.000 0.000 0.749
v -0.10566 0.15984 2.76210 0.000 0.000 0.863
v 0.00270 0.19242 2.76210 0.000 0.000 0.851
v -0.07254 0.21780 2.61162 0.000 0.000 0.957
v -0.15048 0.19062 2.62170 0.000 0.000 0.969
v -0.05796 0.25632 2.46420 0.000 0.000 1.000
v -0.02520 0.22842 2.60820 0.000 0.000 0.984
v -0.06516 0.30456 2.36772 0.000 0.000 1.000
v -0.22428 0.25866 2.40678 0.000 0.000 0.988
v -0.27558 0.49842 2.08800 0.000 0.000 1.000
v -0.10782 0.48528 2.09808 0.000 0.000 1.000
v -0.22644 0.73512 1.85040 0.000 0.000 0.984
v -0.13644 0.67680 1.85094 0.000 0.000 1.000
v -0.26946 0.66816 1.85526 0.000 0.000 1.000
v -0.22446 0.82962 1.68066 0.000 0.000 0.949
v -0.14310 0.82764 1.65204 0.000 0.000 0.976
v -0.26550 0.72774 1.69992 0.000 0.000 1.000
v -0.22140 0.89442 1.48806 0.000 0.000 0.957
v -0.14328 0.89244 1.49328 0.000 0.000 0.992
v -0.19314 0.90558 1.30644 0.000 0.000 0.918
v -0.24174 0.81594 1.49004 0.000 0.000 1.000
v -0.12060 0.89136 1.31346 0.000 0.000 0.929
v -0.20016 0.83520 1.30788 0.000 0.000 0.965
v -0.12744 0.83646 1.16136 0.000 0.000 0.996
v -0.07974 0.82116 1.18080 0.000 0.000 1.000
v -0.01458 0.68778 1.10286 0.000 0.000 0.965
v -0.13608 0.79254 1.18710 0.000 0.000 1.000
v -0.08352 -0.26136 2.50254 0.000 0.000 0.973
v -0.10764 -0.24390 2.48976 0.000 0.000 0.984
v -0.07254 -0.21780 2.61162 0.000 0.000 0.957
v -0.12186 -0.31716 2.41326 0.000 0.000 0.969
v -0.02520 -0.22842 2.60820 0.000 0.000 0.984
v -0.13968 -0.30240 2.40102 0.000 0.000 0.973
v -0.19710 -0.36666 2.35656 0.000 0.000 0.969
v -0.21474 -0.35730 2.33982 0.000 0.000 0.969
v -0.21384 -0.38970 2.28690 0.000 0.000 0.988
v -0.22482 -0.37782 2.28294 0.000 0.000 0.984
v -0.19836 -0.38052 2.21166 0.000 0.000 1.000
v -0.20916 -0.36864 2.22408 0.000 0.000 1.000
v -0.07254 0.21780 2.61162 0.000 0.000 0.957
v -0.10764 0.24390 2.48976 0.000 0.000 0.984
v -0.08352 0.26136 2.50254 0.000 0.000 0.973
v -0.12186 0.31716 2.41326 0.000 0.000 0.969
v -0.02520 0.22842 2.60820 0.000 0.000 0.984
v -0.13968 0.30240 2.40102 0.000 0.000 0.973
v -0.19710 0.36666 2.35656 0.000 0.000 0.969
v -0.21474 0.35730 2.33982 0.000 0.000 0.969
v -0.21384 0.38970 2.28690 0.000 0.000 0.988
v -0.22482 0.37782 2.28294 0.000 0.000 0.984
v -0.19836 0.38052 2.21166 0.000 0.000 1.000
v -0.20916 0.36864 2.22408 0.000 0.000 1.000
v 0.00270 -0.19242 2.76210 0.000 0.000 0.851
v -0.00720 -0.20880 2.68740 0.000 0.000 0.929
v 0.07074 -0.16812 2.69154 0.000 0.000 0.996
v 0.00954 -0.16632 2.60514 0.000 0.000 1.000
v -0.02520 -0.22842 2.60820 0.000 0.000 0.984
v -0.05796 -0.25632 2.46420 0.000 0.000 1.000
v -0.04518 -0.22986 2.44800 0.000 0.000 1.000
v -0.06516 -0.30456 2.36772 0.000 0.000 1.000
v 0.07074 0.16812 2.69154 0.000 0.000 0.996
v -0.00720 0.20880 2.68740 0.000 0.000 0.929
v 0.00270 0.19242 2.76210 0.000 0.000 0.851
v 0.00954 0.16632 2.60514 0.000 0.000 1.000
v -0.02520 0.22842 2.60820 0.000 0.000 0.984
v -0.05796 0.25632 2.46420 0.000 0.000 1.000
v -0.04518 0.22986 2.44800 0.000 0.000 1.000
v -0.06516 0.30456 2.36772 0.000 0.000 1.000
v -0.22176 -0.60786 1.86048 0.000 0.000 1.000
v -0.10782 -0.48528 2.09808 0.000 0.000 1.000
v -0.13644 -0.67680 1.85094 0.000 0.000 1.000
v -0.26550 -0.72774 1.69992 0.000 0.000 1.000
v -0.14310 -0.82764 1.65204 0.000 0.000 0.976
v -0.14328 -0.89244 1.49328 0.000 0.000 0.992
v -0.24174 -0.81594 1.49004 0.000 0.000 1.000
v -0.20016 -0.83520 1.30788 0.000 0.000 0.965
v -0.12060 -0.89136 1.31346 0.000 0.000 0.929
v -0.07974 -0.82116 1.18080 0.000 0.000 1.000
v -0.13608 -0.79254 1.18710 0.000 0.000 1.000
v -0.01458 -0.68778 1.10286 0.000 0.000 0.965
v -0.13644 0.67680 1.85094 0.000 0.000 1.000
v -0.10782 0.48528 2.09808 0.000 0.000 1.000
v -0.22176 0.60786 1.86048 0.000 0.000 1.000
v -0.26550 0.72774 1.69992 0.000 0.000 1.000
v -0.14310 0.82764 1.65204 0.000 0.000 0.976
v -0.14328 0.89244 1.49328 0.000 0.000 0.992
v -0.24174 0.81594 1.49004 0.000 0.000 1.000
v -0.20016 0.83520 1.30788 0.000 0.000 0.965
v -0.12060 0.89136 1.31346 0.000 0.000 0.929
v -0.07974 0.82116 1.18080 0.000 0.000 1.000
v -0.13608 0.79254 1.18710 0.000 0.000 1.000
v -0.01458 0.68778 1.10286 0.000 0.000 0.965
v -0.05886 -0.11322 2.37276 0.000 0.000 1.000
v -0.24912 -0.17748 2.02788 0.000 0.000 1.000
v -0.18360 0.00000 2.31840 0.000 0.000 1.000
v -0.11016 0.00000 2.49480 0.000 0.000 1.000
v -0.02286 -0.09540 2.50434 0.000 0.000 1.000
v -0.39312 0.00000 2.12598 0.000 0.000 1.000
v -0.33264 -0.25272 1.81062 0.000 0.000 1.000
v -0.05886 0.11322 2.37276 0.000 0.000 1.000
v -0.24912 0.17748 2.02788 0.000 0.000 1.000
v -0.02286 0.09540 2.50434 0.000 0.000 1.000
v -0.48798 -0.01422 1.99494 0.000 0.000 1.000
v -0.43866 -0.23112 1.65600 0.000 0.000 1.000
v -0.58662 -0.14382 1.68480 0.000 0.000 1.000
v -0.46224 -0.34632 1.60920 0.000 0.000 1.000
v -0.54468 -0.27576 1.43280 0.000 0.000 1.000
v -0.53208 -0.44226 1.41588 0.000 0.000 1.000
v -0.58050 -0.25434 1.28952 0.000 0.000 1.000
v -0.33264 0.25272 1.81062 0.000 0.000 1.000
v -0.48798 0.01422 1.99494 0.000 0.000 1.000
v -0.43866 0.23112 1.65600 0.000 0.000 1.000
v -0.58662 0.14382 1.68480 0.000 0.000 1.000
v -0.46224 0.34632 1.60920 0.000 0.000 1.000
v -0.54468 0.27576 1.43280 0.000 0.000 1.000
v -0.53208 0.44226 1.41588 0.000 0.000 1.000
v -0.55530 -0.38250 1.23390 0.000 0.000 1.000
v -0.60102 -0.21582 1.17090 0.000 0.000 1.000
v -0.57456 -0.28836 1.14624 0.000 0.000 1.000
v -0.59886 -0.07902 1.12104 0.000 0.000 0.929
v -0.58050 0.25434 1.28952 0.000 0.000 1.000
v -0.55530 0.38250 1.23390 0.000 0.000 1.000
v -0.60102 0.21582 1.17090 0.000 0.000 1.000
v -0.57456 0.28836 1.14624 0.000 0.000 1.000
v -0.59886 0.07902 1.12104 0.000 0.000 0.929
v -0.51516 0.44532 1.64070 0.000 0.000 1.000
v -0.33264 0.25272 1.81062 0.000 0.000 1.000
v -0.53208 0.44226 1.41588 0.000 0.000 1.000
v -0.59886 -0.07902 1.12104 0.000 0.000 0.929
v -0.63702 -0.18756 1.21032 0.000 0.000 1.000
v -0.60102 -0.21582 1.17090 0.000 0.000 1.000
v -0.58050 -0.25434 1.28952 0.000 0.000 1.000
v -0.64224 -0.25434 1.34982 0.000 0.000 1.000
v -0.54468 -0.27576 1.43280 0.000 0.000 1.000
v -0.63036 -0.24300 1.48248 0.000 0.000 1.000
v -0.58662 -0.14382 1.68480 0.000 0.000 1.000
v -0.60102 0.21582 1.17090 0.000 0.000 1.000
v -0.63702 0.18756 1.21032 0.000 0.000 1.000
v -0.59886 0.07902 1.12104 0.000 0.000 0.929
v -0.58050 0.25434 1.28952 0.000 0.000 1.000
v -0.64224 0.25434 1.34982 0.000 0.000 1.000
v -0.54468 0.27576 1.43280 0.000 0.000 1.000
v -0.63036 0.24300 1.48248 0.000 0.000 1.000
v -0.58662 0.14382 1.68480 0.000 0.000 1.000
v -0.51516 -0.44532 1.64070 0.000 0.000 1.000
v -0.53208 -0.44226 1.41588 0.000 0.000 1.000
v -0.33264 -0.25272 1.81062 0.000 0.000 1.000
v -0.42426 -0.39654 1.09890 0.000 0.000 0.957
v -0.39564 -0.57060 1.09152 0.000 0.000 0.965
v -0.40770 -0.42264 1.03518 0.000 0.000 0.945
v -0.41310 -0.26136 1.02888 0.000 0.000 0.929
v -0.42354 -0.50760 1.24956 0.000 0.000 1.000
v -0.33768 -0.75582 1.31238 0.000 0.000 0.980
v -0.38088 -0.50832 1.47474 0.000 0.000 0.988
v -0.28134 -0.76968 1.49328 0.000 0.000 1.000
v -0.22176 -0.60786 1.86048 0.000 0.000 1.000
v -0.26550 -0.72774 1.69992 0.000 0.000 1.000
v -0.33264 -0.25272 1.81062 0.000 0.000 1.000
v -0.10782 -0.48528 2.09808 0.000 0.000 1.000
v -0.24912 -0.17748 2.02788 0.000 0.000 1.000
v -0.05886 -0.11322 2.37276 0.000 0.000 1.000
v -0.06516 -0.30456 2.36772 0.000 0.000 1.000
v -0.04518 -0.22986 2.44800 0.000 0.000 1.000
v -0.02286 -0.09540 2.50434 0.000 0.000 1.000
v 0.00954 -0.16632 2.60514 0.000 0.000 1.000
v -0.51516 -0.44532 1.64070 0.000 0.000 1.000
v -0.38088 -0.50832 1.47474 0.000 0.000 0.988
v -0.54486 -0.48276 1.43208 0.000 0.000 1.000
v -0.42354 -0.50760 1.24956 0.000 0.000 1.000
v -0.55494 -0.49554 1.23228 0.000 0.000 0.992
v -0.42426 -0.39654 1.09890 0.000 0.000 0.957
v -0.48474 -0.37638 1.06164 0.000 0.000 0.965
v -0.41310 -0.26136 1.02888 0.000 0.000 0.929
v -0.40770 0.42264 1.03518 0.000 0.000 0.945
v -0.39564 0.57060 1.09152 0.000 0.000 0.965
v -0.42426 0.39654 1.09890 0.000 0.000 0.957
v -0.41310 0.26136 1.02888 0.000 0.000 0.929
v -0.42354 0.50760 1.24956 0.000 0.000 1.000
v -0.33768 0.75582 1.31238 0.000 0.000 0.980
v -0.38088 0.50832 1.47474 0.000 0.000 0.988
v -0.28134 0.76968 1.49328 0.000 0.000 1.000
v -0.22176 0.60786 1.86048 0.000 0.000 1.000
v -0.26550 0.72774 1.69992 0.000 0.000 1.000
v -0.33264 0.25272 1.81062 0.000 0.000 1.000
v -0.10782 0.48528 2.09808 0.000 0.000 1.000
v -0.24912 0.17748 2.02788 0.000 0.000 1.000
v -0.05886 0.11322 2.37276 0.000 0.000 1.000
v -0.06516 0.30456 2.36772 0.000 0.000 1.000
v -0.04518 0.22986 2.44800 0.000 0.000 1.000
v -0.02286 0.09540 2.50434 0.000 0.000 1.000
v 0.00954 0.16632 2.60514 0.000 0.000 1.000
v -0.38088 0.50832 1.47474 0.000 0.000 0.988
v -0.51516 0.44532 1.64070 0.000 0.000 1.000
v -0.54486 0.48276 1.43208 0.000 0.000 1.000
v -0.42354 0.50760 1.24956 0.000 0.000 1.000
v -0.55494 0.49554 1.23228 0.000 0.000 0.992
v -0.42426 0.39654 1.09890 0.000 0.000 0.957
v -0.48474 0.37638 1.06164 0.000 0.000 0.965
v -0.41310 0.26136 1.02888 0.000 0.000 0.929
v 0.17046 -0.12492 2.67822 0.000 0.000 0.933
v 0.16200 -0.12708 2.64546 0.000 0.000 0.914
v 0.19170 -0.09180 2.69208 0.000 0.000 0.918
v 0.19026 -0.11862 2.74176 0.000 0.000 0.820
v 0.20286 -0.07236 2.72844 0.000 0.000 0.878
v 0.20160 -0.04734 2.78280 0.000 0.000 0.859
v 0.18846 -0.10188 2.79486 0.000 0.000 0.753
v 0.18756 -0.03168 2.83356 0.000 0.000 0.871
v 0.17370 -0.08262 2.84130 0.000 0.000 0.824
v 0.16542 -0.01818 2.87064 0.000 0.000 0.894
v 0.14724 -0.05868 2.87460 0.000 0.000 0.867
v 0.10764 -0.00630 2.89998 0.000 0.000 0.937
v 0.09918 -0.03168 2.90160 0.000 0.000 0.914
v 0.04554 0.00000 2.90880 0.000 0.000 0.945
v 0.15084 -0.13698 2.80278 0.000 0.000 0.753
v 0.17370 -0.08262 2.84130 0.000 0.000 0.824
v 0.13446 -0.11160 2.84616 0.000 0.000 0.808
v 0.09504 -0.13122 2.84706 0.000 0.000 0.831
v 0.10368 -0.15102 2.80782 0.000 0.000 0.753
v 0.14724 -0.05868 2.87460 0.000 0.000 0.867
v 0.11376 -0.08334 2.87838 0.000 0.000 0.875
v 0.09918 -0.03168 2.90160 0.000 0.000 0.914
v 0.07812 -0.08910 2.88126 0.000 0.000 0.894
v 0.06210 -0.04500 2.90160 0.000 0.000 0.922
v 0.04554 0.00000 2.90880 0.000 0.000 0.945
v 0.10890 -0.16866 2.74734 0.000 0.000 0.851
v 0.15840 -0.15084 2.74842 0.000 0.000 0.831
v 0.14832 -0.15732 2.67696 0.000 0.000 0.886
v 0.10746 -0.16632 2.66598 0.000 0.000 0.929
v 0.19026 -0.11862 2.74176 0.000 0.000 0.820
v 0.17046 -0.12492 2.67822 0.000 0.000 0.933
v 0.18846 -0.10188 2.79486 0.000 0.000 0.753
v 0.13068 -0.15732 2.57508 0.000 0.000 0.882
v 0.10044 -0.15300 2.56968 0.000 0.000 0.984
v 0.12906 -0.15552 2.50506 0.000 0.000 0.910
v 0.10170 -0.13410 2.49606 0.000 0.000 1.000
v 0.13734 -0.14436 2.46150 0.000 0.000 0.894
v 0.11376 -0.12186 2.45862 0.000 0.000 1.000
v 0.15444 -0.12114 2.43306 0.000 0.000 0.890
v 0.14004 -0.10098 2.43270 0.000 0.000 0.996
v 0.16740 -0.08460 2.42622 0.000 0.000 0.902
v 0.13068 -0.15732 2.57508 0.000 0.000 0.882
v 0.14850 -0.12960 2.58048 0.000 0.000 0.996
v 0.14562 -0.12366 2.52072 0.000 0.000 0.996
v 0.13734 -0.14436 2.46150 0.000 0.000 0.894
v 0.15012 -0.11178 2.47806 0.000 0.000 1.000
v 0.15444 -0.12114 2.43306 0.000 0.000 0.890
v 0.15606 -0.09972 2.44764 0.000 0.000 1.000
v 0.16740 -0.08460 2.42622 0.000 0.000 0.902
v 0.08046 0.03690 2.90124 0.000 0.000 0.945
v 0.11016 0.09054 2.87928 0.000 0.000 0.890
v 0.06210 0.04500 2.90160 0.000 0.000 0.937
v 0.04554 0.00000 2.90880 0.000 0.000 0.945
v 0.07812 0.08910 2.88126 0.000 0.000 0.894
v 0.09504 0.13122 2.84706 0.000 0.000 0.831
v 0.13158 0.12420 2.84616 0.000 0.000 0.847
v 0.10368 0.15102 2.80782 0.000 0.000 0.753
v 0.14472 0.14454 2.80008 0.000 0.000 0.753
v 0.10890 0.16866 2.74734 0.000 0.000 0.867
v 0.15030 0.15678 2.74572 0.000 0.000 0.878
v 0.14634 0.16164 2.67336 0.000 0.000 0.906
v 0.10746 0.16632 2.66598 0.000 0.000 0.929
v 0.13068 0.15732 2.57508 0.000 0.000 0.945
v 0.10044 0.15300 2.56968 0.000 0.000 0.984
v 0.12906 0.15552 2.50506 0.000 0.000 0.910
v 0.10170 0.13410 2.49606 0.000 0.000 1.000
v 0.13734 0.14436 2.46150 0.000 0.000 0.894
v 0.11376 0.12186 2.45862 0.000 0.000 1.000
v 0.15444 0.12114 2.43306 0.000 0.000 0.890
v 0.14004 0.10098 2.43270 0.000 0.000 0.996
v 0.16740 0.08460 2.42622 0.000 0.000 0.902
v 0.17766 0.12294 2.79522 0.000 0.000 0.753
v 0.15030 0.15678 2.74572 0.000 0.000 0.878
v 0.17748 0.13338 2.74014 0.000 0.000 0.878
v 0.14634 0.16164 2.67336 0.000 0.000 0.906
v 0.16794 0.13644 2.67732 0.000 0.000 0.988
v 0.13068 0.15732 2.57508 0.000 0.000 0.945
v 0.15696 0.13086 2.62818 0.000 0.000 1.000
v 0.14850 0.12960 2.58048 0.000 0.000 0.996
v 0.12906 0.15552 2.50506 0.000 0.000 0.910
v 0.14562 0.12366 2.52072 0.000 0.000 0.996
v 0.13734 0.14436 2.46150 0.000 0.000 0.894
v 0.15012 0.11178 2.47806 0.000 0.000 1.000
v 0.15444 0.12114 2.43306 0.000 0.000 0.890
v 0.15606 0.09972 2.44764 0.000 0.000 1.000
v 0.16740 0.08460 2.42622 0.000 0.000 0.902
v 0.16308 0.10278 2.84220 0.000 0.000 0.855
v 0.13158 0.12420 2.84616 0.000 0.000 0.847
v 0.13500 0.07812 2.87694 0.000 0.000 0.906
v 0.11016 0.09054 2.87928 0.000 0.000 0.890
v 0.08046 0.03690 2.90124 0.000 0.000 0.945
v 0.16542 -0.01818 2.87064 0.000 0.000 0.894
v 0.18756 -0.03168 2.83356 0.000 0.000 0.871
v 0.19998 -0.00252 2.83230 0.000 0.000 0.839
v 0.20160 -0.04734 2.78280 0.000 0.000 0.859
v 0.21690 -0.00774 2.78244 0.000 0.000 0.796
v 0.20286 -0.07236 2.72844 0.000 0.000 0.878
v 0.21924 -0.02250 2.73816 0.000 0.000 0.835
v 0.21474 -0.04248 2.70288 0.000 0.000 0.867
v 0.19980 -0.07938 2.67858 0.000 0.000 0.902
v 0.19170 -0.09180 2.69208 0.000 0.000 0.918
v 0.17136 -0.11664 2.66040 0.000 0.000 0.933
v 0.20754 0.02358 2.78226 0.000 0.000 0.871
v 0.15948 0.02628 2.87208 0.000 0.000 0.914
v 0.10764 -0.00630 2.89998 0.000 0.000 0.937
v 0.19062 0.02682 2.83104 0.000 0.000 0.886
v 0.21096 0.00918 2.73168 0.000 0.000 0.890
v 0.21924 -0.02250 2.73816 0.000 0.000 0.835
v 0.20664 -0.00486 2.70018 0.000 0.000 0.902
v 0.21474 -0.04248 2.70288 0.000 0.000 0.867
v 0.20250 -0.02808 2.68056 0.000 0.000 0.933
v 0.19980 -0.07938 2.67858 0.000 0.000 0.902
v 0.19026 -0.06678 2.66598 0.000 0.000 0.941
v 0.17136 -0.11664 2.66040 0.000 0.000 0.933
v 0.10278 0.01548 2.89854 0.000 0.000 0.945
v 0.04554 0.00000 2.90880 0.000 0.000 0.945
v 0.20286 -0.00846 2.66760 0.000 0.000 0.941
v 0.21366 0.00684 2.66130 0.000 0.000 0.851
v 0.20826 -0.00036 2.69766 0.000 0.000 0.910
v 0.22428 0.02448 2.69514 0.000 0.000 0.812
v 0.22842 0.04086 2.73906 0.000 0.000 0.792
v 0.21096 0.00918 2.73168 0.000 0.000 0.890
v 0.20754 0.02358 2.78226 0.000 0.000 0.871
v 0.22356 0.05382 2.78226 0.000 0.000 0.773
v 0.20358 0.05670 2.84004 0.000 0.000 0.816
v 0.19062 0.02682 2.83104 0.000 0.000 0.886
v 0.16776 0.05094 2.88324 0.000 0.000 0.871
v 0.15948 0.02628 2.87208 0.000 0.000 0.914
v 0.10458 0.03096 2.90736 0.000 0.000 0.922
v 0.10278 0.01548 2.89854 0.000 0.000 0.945
v 0.04554 0.00000 2.90880 0.000 0.000 0.945
v 0.19656 -0.01980 2.64186 0.000 0.000 0.906
v 0.20160 -0.01278 2.63682 0.000 0.000 0.875
v 0.18774 -0.03600 2.61990 0.000 0.000 0.902
v 0.18774 0.08514 2.82762 0.000 0.000 0.816
v 0.16776 0.05094 2.88324 0.000 0.000 0.871
v 0.19764 0.08100 2.78118 0.000 0.000 0.753
v 0.14112 0.06588 2.87586 0.000 0.000 0.914
v 0.10458 0.03096 2.90736 0.000 0.000 0.922
v 0.08046 0.03690 2.90124 0.000 0.000 0.945
v 0.04554 0.00000 2.90880 0.000 0.000 0.945
v 0.20304 0.07002 2.72916 0.000 0.000 0.871
v 0.22842 0.04086 2.73906 0.000 0.000 0.792
v 0.20358 0.04932 2.68578 0.000 0.000 0.910
v 0.22428 0.02448 2.69514 0.000 0.000 0.812
v 0.21366 0.00684 2.66130 0.000 0.000 0.851
v 0.19980 0.01836 2.64978 0.000 0.000 0.902
v 0.19494 -0.00702 2.63106 0.000 0.000 0.929
v 0.20160 -0.01278 2.63682 0.000 0.000 0.875
v 0.18774 -0.03600 2.61990 0.000 0.000 0.902
v 0.04356 0.10134 2.88936 0.000 0.000 0.878
v 0.04194 0.04896 2.90880 0.000 0.000 0.925
v 0.07812 0.08910 2.88126 0.000 0.000 0.894
v 0.09504 0.13122 2.84706 0.000 0.000 0.831
v 0.04536 0.14526 2.85228 0.000 0.000 0.804
v 0.07920 0.17064 2.81052 0.000 0.000 0.753
v 0.05040 0.17316 2.81214 0.000 0.000 0.773
v 0.10368 0.15102 2.80782 0.000 0.000 0.753
v 0.10890 0.16866 2.74734 0.000 0.000 0.867
v 0.08406 0.18630 2.74752 0.000 0.000 0.839
v 0.08460 0.18450 2.66220 0.000 0.000 0.933
v 0.05382 0.18954 2.74788 0.000 0.000 0.816
v 0.05742 0.18378 2.65824 0.000 0.000 0.957
v 0.08640 0.16632 2.50704 0.000 0.000 0.945
v 0.10746 0.16632 2.66598 0.000 0.000 0.929
v 0.10044 0.15300 2.56968 0.000 0.000 0.984
v 0.10224 0.13680 2.51838 0.000 0.000 1.000
v 0.09414 0.15768 2.46744 0.000 0.000 0.941
v 0.10368 0.12978 2.49444 0.000 0.000 1.000
v 0.10386 0.13230 2.44458 0.000 0.000 0.937
v 0.06678 0.15804 2.52054 0.000 0.000 1.000
v 0.07200 0.14364 2.48958 0.000 0.000 1.000
v 0.08334 0.12546 2.46960 0.000 0.000 1.000
v 0.11970 0.09090 2.43864 0.000 0.000 0.922
v 0.10818 0.11538 2.46852 0.000 0.000 1.000
v 0.10386 -0.13230 2.44458 0.000 0.000 0.937
v 0.08334 -0.12546 2.46960 0.000 0.000 1.000
v 0.11970 -0.09090 2.43864 0.000 0.000 0.922
v 0.10818 -0.11538 2.46852 0.000 0.000 1.000
v 0.10368 -0.12978 2.49444 0.000 0.000 1.000
v 0.09414 -0.15768 2.46744 0.000 0.000 0.941
v 0.07200 -0.14364 2.48958 0.000 0.000 1.000
v 0.06678 -0.15804 2.52054 0.000 0.000 1.000
v 0.10224 -0.13680 2.51838 0.000 0.000 1.000
v 0.08640 -0.16632 2.50704 0.000 0.000 0.945
v 0.10044 -0.15300 2.56968 0.000 0.000 0.984
v 0.10746 -0.16632 2.66598 0.000 0.000 0.929
v 0.08460 -0.18450 2.66220 0.000 0.000 0.933
v 0.05742 -0.18378 2.65824 0.000 0.000 0.957
v 0.05382 -0.18954 2.74788 0.000 0.000 0.851
v 0.08406 -0.18630 2.74752 0.000 0.000 0.851
v 0.10890 -0.16866 2.74734 0.000 0.000 0.851
v 0.07920 -0.17064 2.81052 0.000 0.000 0.753
v 0.10368 -0.15102 2.80782 0.000 0.000 0.753
v 0.09504 -0.13122 2.84706 0.000 0.000 0.831
v 0.04536 -0.14526 2.85228 0.000 0.000 0.804
v 0.05040 -0.17316 2.81214 0.000 0.000 0.773
v 0.04356 -0.10134 2.88936 0.000 0.000 0.878
v 0.07812 -0.08910 2.88126 0.000 0.000 0.894
v 0.04194 -0.04896 2.90880 0.000 0.000 0.925
v 0.06210 -0.04500 2.90160 0.000 0.000 0.922
v 0.04554 0.00000 2.90880 0.000 0.000 0.945
v 0.06210 0.04500 2.90160 0.000 0.000 0.937
v 0.02430 -0.04284 2.90214 0.000 0.000 0.925
v 0.00000 -0.10260 2.88234 0.000 0.000 0.925
v 0.04194 -0.04896 2.90880 0.000 0.000 0.925
v 0.04356 -0.10134 2.88936 0.000 0.000 0.878
v 0.04554 0.00000 2.90880 0.000 0.000 0.945
v 0.00000 -0.14310 2.85084 0.000 0.000 0.855
v 0.04536 -0.14526 2.85228 0.000 0.000 0.804
v 0.05040 -0.17316 2.81214 0.000 0.000 0.773
v 0.00000 -0.17064 2.80980 0.000 0.000 0.749
v 0.00270 -0.19242 2.76210 0.000 0.000 0.851
v 0.05382 -0.18954 2.74788 0.000 0.000 0.851
v 0.01080 -0.19980 2.68740 0.000 0.000 0.945
v 0.05742 -0.18378 2.65824 0.000 0.000 0.957
v 0.01638 -0.18630 2.62926 0.000 0.000 1.000
v 0.05328 -0.17460 2.51388 0.000 0.000 0.961
v 0.06678 -0.15804 2.52054 0.000 0.000 1.000
v 0.06336 -0.16290 2.47464 0.000 0.000 0.949
v 0.03456 -0.14508 2.51838 0.000 0.000 1.000
v 0.07200 -0.14364 2.48958 0.000 0.000 1.000
v 0.07452 -0.13770 2.45070 0.000 0.000 0.925
v 0.04644 -0.12654 2.48652 0.000 0.000 1.000
v 0.07992 -0.12168 2.46834 0.000 0.000 1.000
v 0.09036 -0.09000 2.44692 0.000 0.000 0.882
v 0.06714 -0.10584 2.45862 0.000 0.000 0.969
v 0.04194 0.04896 2.90880 0.000 0.000 0.925
v 0.00000 0.10260 2.88234 0.000 0.000 0.925
v 0.02430 0.04284 2.90214 0.000 0.000 0.925
v 0.04356 0.10134 2.88936 0.000 0.000 0.878
v 0.00000 0.14310 2.85084 0.000 0.000 0.855
v 0.04536 0.14526 2.85228 0.000 0.000 0.804
v 0.05040 0.17316 2.81214 0.000 0.000 0.773
v 0.00000 0.17064 2.80980 0.000 0.000 0.749
v 0.00270 0.19242 2.76210 0.000 0.000 0.851
v 0.05382 0.18954 2.74788 0.000 0.000 0.816
v 0.01080 0.19980 2.68740 0.000 0.000 0.945
v 0.05742 0.18378 2.65824 0.000 0.000 0.957
v 0.01638 0.18630 2.62926 0.000 0.000 1.000
v 0.05328 0.17460 2.51388 0.000 0.000 0.961
v 0.06678 0.15804 2.52054 0.000 0.000 1.000
v 0.06336 0.16290 2.47464 0.000 0.000 0.949
v 0.03456 0.14508 2.51838 0.000 0.000 1.000
v 0.07200 0.14364 2.48958 0.000 0.000 1.000
v 0.07452 0.13770 2.45070 0.000 0.000 0.925
v 0.04644 0.12654 2.48652 0.000 0.000 1.000
v 0.07992 0.12168 2.46834 0.000 0.000 1.000
v 0.09036 0.09000 2.44692 0.000 0.000 0.882
v 0.06714 0.10584 2.45862 0.000 0.000 0.969
v 0.15948 0.02628 2.87208 0.000 0.000 0.914
v 0.13500 0.07812 2.87694 0.000 0.000 0.906
v 0.08046 0.03690 2.90124 0.000 0.000 0.945
v 0.18774 0.08514 2.82762 0.000 0.000 0.816
v 0.17442 0.05022 2.82240 0.000 0.000 0.937
v 0.20214 0.10062 2.78514 0.000 0.000 0.753
v 0.16308 0.10278 2.84220 0.000 0.000 0.855
v 0.17676 0.06948 2.78226 0.000 0.000 0.961
v 0.20142 0.11844 2.72844 0.000 0.000 0.859
v 0.17766 0.12294 2.79522 0.000 0.000 0.753
v 0.17748 0.13338 2.74014 0.000 0.000 0.878
v 0.17730 0.09396 2.73096 0.000 0.000 0.918
v 0.18648 0.12852 2.67516 0.000 0.000 0.925
v 0.16812 0.11556 2.67660 0.000 0.000 0.961
v 0.15696 0.13086 2.62818 0.000 0.000 1.000
v 0.16794 0.13644 2.67732 0.000 0.000 0.988
v 0.21096 0.00918 2.73168 0.000 0.000 0.890
v 0.19674 -0.01080 2.68632 0.000 0.000 0.871
v 0.20826 -0.00036 2.69766 0.000 0.000 0.910
v 0.20286 -0.00846 2.66760 0.000 0.000 0.941
v 0.18972 -0.02232 2.66220 0.000 0.000 0.910
v 0.19386 -0.02070 2.65410 0.000 0.000 0.910
v 0.18306 -0.03636 2.64816 0.000 0.000 0.882
v 0.20718 0.06084 2.70036 0.000 0.000 0.871
v 0.20106 0.05580 2.67696 0.000 0.000 0.863
v 0.19818 0.08010 2.69496 0.000 0.000 0.902
v 0.19260 0.06966 2.67102 0.000 0.000 0.949
v 0.18900 0.04932 2.65662 0.000 0.000 0.882
v 0.18234 0.05454 2.65086 0.000 0.000 0.949
v 0.17514 0.04302 2.64384 0.000 0.000 0.894
v 0.20034 0.08838 2.72898 0.000 0.000 0.831
v 0.20952 0.06570 2.73726 0.000 0.000 0.812
v 0.19944 0.09090 2.78568 0.000 0.000 0.753
v 0.20736 0.07362 2.78226 0.000 0.000 0.773
v 0.18774 0.08514 2.82762 0.000 0.000 0.816
v -0.21726 -0.53712 2.15118 0.000 0.000 0.996
v -0.15444 -0.38988 2.19852 0.000 0.000 1.000
v -0.16056 -0.42750 2.22264 0.000 0.000 0.988
v -0.10926 -0.30636 2.33424 0.000 0.000 0.988
v -0.00720 -0.20880 2.68740 0.000 0.000 0.929
v -0.00720 0.20880 2.68740 0.000 0.000 0.929
v 0.02070 -0.16668 2.47896 0.000 0.000 1.000
v -0.00180 -0.14670 2.51136 0.000 0.000 1.000
v 0.03384 -0.19152 2.49174 0.000 0.000 1.000
v -0.00882 -0.14832 2.57994 0.000 0.000 1.000
v -0.03006 -0.21042 2.60406 0.000 0.000 0.925
v -0.03024 -0.22950 2.57724 0.000 0.000 0.961
v -0.03798 -0.23544 2.54106 0.000 0.000 0.996
v -0.00972 -0.21618 2.50434 0.000 0.000 1.000
v -0.00396 -0.19152 2.47068 0.000 0.000 1.000
v -0.08460 -0.21042 2.56680 0.000 0.000 0.984
v 0.06894 -0.16380 2.41740 0.000 0.000 1.000
v 0.09522 -0.14364 2.41686 0.000 0.000 1.000
v 0.08640 -0.15480 2.44602 0.000 0.000 0.965
v 0.04464 -0.20142 2.43234 0.000 0.000 1.000
v 0.01800 -0.22014 2.46384 0.000 0.000 1.000
v 0.06300 -0.17730 2.47788 0.000 0.000 0.965
v 0.03384 -0.19152 2.49174 0.000 0.000 1.000
v -0.00972 -0.21618 2.50434 0.000 0.000 1.000
v 0.02070 -0.16668 2.47896 0.000 0.000 1.000
v 0.03564 -0.13734 2.45988 0.000 0.000 1.000
v 0.08316 -0.12366 2.41002 0.000 0.000 1.000
v 0.05778 -0.12258 2.43324 0.000 0.000 1.000
v 0.00756 -0.16596 2.41794 0.000 0.000 1.000
v -0.00396 -0.19152 2.47068 0.000 0.000 1.000
v 0.06426 -0.14364 2.39814 0.000 0.000 1.000
v 0.12726 -0.13338 2.40210 0.000 0.000 0.969
v 0.14922 -0.11880 2.37186 0.000 0.000 0.969
v 0.12078 -0.07956 2.35530 0.000 0.000 1.000
v 0.10566 -0.15804 2.34720 0.000 0.000 1.000
v 0.14598 -0.08694 2.32740 0.000 0.000 1.000
v 0.15390 -0.10278 2.32992 0.000 0.000 1.000
v 0.14004 -0.11754 2.32488 0.000 0.000 1.000
v 0.09918 -0.09450 2.38392 0.000 0.000 1.000
v 0.07848 -0.17226 2.38050 0.000 0.000 1.000
v 0.06894 -0.16380 2.41740 0.000 0.000 1.000
v 0.09522 -0.14364 2.41686 0.000 0.000 1.000
v 0.08316 -0.12366 2.41002 0.000 0.000 1.000
v 0.07290 -0.12618 2.34288 0.000 0.000 1.000
v 0.06426 -0.14364 2.39814 0.000 0.000 1.000
v 0.12636 -0.10278 2.31498 0.000 0.000 1.000
v 0.20286 -0.09198 2.29914 0.000 0.000 0.969
v 0.22122 -0.08388 2.25216 0.000 0.000 0.969
v 0.19062 -0.05040 2.25036 0.000 0.000 1.000
v 0.18828 -0.11934 2.24712 0.000 0.000 1.000
v 0.21582 -0.06822 2.21634 0.000 0.000 1.000
v 0.22644 -0.10836 2.19492 0.000 0.000 1.000
v 0.20826 -0.10584 2.21760 0.000 0.000 1.000
v 0.16722 -0.05724 2.29104 0.000 0.000 1.000
v 0.16236 -0.12672 2.28816 0.000 0.000 1.000
v 0.14634 -0.11610 2.31498 0.000 0.000 1.000
v 0.15912 -0.10026 2.31930 0.000 0.000 1.000
v 0.15012 -0.08478 2.31714 0.000 0.000 1.000
v 0.14580 -0.08784 2.24586 0.000 0.000 1.000
v 0.13158 -0.10026 2.30454 0.000 0.000 1.000
v -0.16056 0.42750 2.22264 0.000 0.000 0.988
v -0.15444 0.38988 2.19852 0.000 0.000 1.000
v -0.21726 0.53712 2.15118 0.000 0.000 0.996
v -0.10926 0.30636 2.33424 0.000 0.000 0.988
v -0.01494 -0.13482 2.60604 1.000 0.000 0.000
v 0.03888 -0.12708 2.52324 1.000 0.000 0.000
v 0.01566 -0.16434 2.52900 0.945 0.000 0.000
v -0.00306 -0.20016 2.55690 0.937 0.000 0.000
v -0.02502 -0.25344 2.59380 0.925 0.000 0.000
v 0.00954 -0.20412 2.60208 0.949 0.000 0.000
v -0.04590 -0.34398 2.63592 0.898 0.000 0.000
v -0.04050 -0.34164 2.64312 0.906 0.000 0.000
v 0.03888 -0.12708 2.52324 1.000 0.000 0.000
v 0.02934 -0.17334 2.63304 1.000 0.000 0.000
v -0.00576 -0.24372 2.64096 0.941 0.000 0.000
v -0.04050 -0.34164 2.64312 0.906 0.000 0.000
v -0.00576 -0.24372 2.64096 0.941 0.000 0.000
v 0.02934 -0.17334 2.63304 1.000 0.000 0.000
v -0.01494 0.13482 2.60604 1.000 0.000 0.000
v 0.02934 0.17334 2.63304 1.000 0.000 0.000
v -0.00576 0.24372 2.64096 0.980 0.000 0.000
v -0.04050 0.34164 2.64312 0.965 0.000 0.000
v -0.04590 0.34398 2.63592 0.918 0.000 0.000
v -0.02502 0.25344 2.59380 0.925 0.000 0.000
v -0.00306 0.20016 2.55690 0.937 0.000 0.000
v 0.01566 0.16434 2.52900 0.945 0.000 0.000
v 0.03888 0.12708 2.52324 1.000 0.000 0.000
v 0.00954 0.20412 2.60208 0.969 0.000 0.000
v 0.03888 0.12708 2.52324 1.000 0.000 0.000
v 0.02934 0.17334 2.63304 1.000 0.000 0.000
v -0.00576 0.24372 2.64096 0.980 0.000 0.000
v -0.04050 0.34164 2.64312 0.965 0.000 0.000
v 0.14634 -0.11610 2.31498 0.000 0.000 1.000
v 0.15912 -0.10026 2.31930 0.000 0.000 1.000
v 0.15390 -0.10278 2.32992 0.000 0.000 1.000
v 0.14598 -0.08694 2.32740 0.000 0.000 1.000
v 0.15012 -0.08478 2.31714 0.000 0.000 1.000
v 0.14004 -0.11754 2.32488 0.000 0.000 1.000
v 0.13158 -0.10026 2.30454 0.000 0.000 1.000
v 0.12636 -0.10278 2.31498 0.000 0.000 1.000
v 0.00900 -0.20268 2.81664 0.000 0.000 0.000
v 0.04194 -0.16128 2.76066 0.000 0.000 0.000
v 0.01224 -0.22752 2.76264 0.000 0.000 0.000
v 0.05724 -0.16524 2.83338 0.000 0.000 0.000
v 0.05670 -0.22158 2.71908 0.000 0.000 0.000
v 0.10944 -0.16506 2.79756 0.000 0.000 0.000
v 0.10566 -0.19260 2.74500 0.000 0.000 0.000
v -0.00900 -0.23094 2.77632 0.000 0.000 0.000
v -0.00648 -0.24354 2.75796 0.000 0.000 0.000
v 0.01224 -0.22752 2.76264 0.000 0.000 0.000
v 0.00900 -0.20268 2.81664 0.000 0.000 0.000
v -0.01530 -0.23832 2.78802 0.000 0.000 0.000
v -0.01872 -0.22680 2.81430 0.000 0.000 0.000
v -0.01242 -0.21474 2.82114 0.000 0.000 0.000
v 0.00180 -0.19836 2.83356 0.000 0.000 0.000
v 0.05724 -0.16524 2.83338 0.000 0.000 0.000
v -0.00774 -0.21132 2.83500 0.000 0.000 0.000
v 0.00738 -0.19818 2.84706 0.000 0.000 0.000
v 0.03492 -0.17460 2.85732 0.000 0.000 0.000
v 0.02358 -0.18306 2.86200 0.000 0.000 0.000
v 0.05922 -0.16380 2.84652 0.000 0.000 0.000
v 0.05274 -0.17064 2.85912 0.000 0.000 0.000
v -0.00126 -0.25218 2.74680 0.000 0.000 0.000
v 0.01944 -0.25146 2.72826 0.000 0.000 0.000
v 0.02790 -0.23940 2.72430 0.000 0.000 0.000
v 0.05670 -0.22158 2.71908 0.000 0.000 0.000
v 0.04932 -0.24174 2.70846 0.000 0.000 0.000
v 0.06192 -0.24480 2.70126 0.000 0.000 0.000
v 0.03636 -0.24912 2.71692 0.000 0.000 0.000
v 0.07110 -0.23382 2.70342 0.000 0.000 0.000
v 0.08964 -0.21672 2.71188 0.000 0.000 0.000
v 0.10566 -0.19260 2.74500 0.000 0.000 0.000
v 0.10584 -0.22050 2.70918 0.000 0.000 0.000
v 0.12726 -0.19350 2.73258 0.000 0.000 0.000
v 0.12708 -0.18018 2.75058 0.000 0.000 0.000
v 0.10944 -0.16506 2.79756 0.000 0.000 0.000
v 0.13806 -0.18180 2.75706 0.000 0.000 0.000
v 0.13536 -0.15930 2.79396 0.000 0.000 0.000
v 0.11574 -0.15570 2.81196 0.000 0.000 0.000
v 0.14436 -0.16488 2.78496 0.000 0.000 0.000
v 0.13122 -0.15912 2.80926 0.000 0.000 0.000
v 0.08460 -0.15606 2.84760 0.000 0.000 0.000
v 0.11754 -0.15696 2.82618 0.000 0.000 0.000
v 0.09954 -0.15480 2.84742 0.000 0.000 0.000
v 0.07218 -0.16398 2.85444 0.000 0.000 0.000
v 0.12726 -0.20592 2.71836 0.000 0.000 0.000
v 0.13500 -0.19098 2.74140 0.000 0.000 0.000
v 0.07092 -0.22320 2.79162 0.000 0.000 0.000
v -0.01062 -0.24552 2.76894 0.000 0.000 0.000
v 0.08748 -0.23040 2.70630 0.000 0.000 0.000
v 0.00918 -0.23328 2.70144 0.000 0.000 0.000
v -0.02286 -0.26262 2.68128 0.000 0.000 0.000
v -0.04788 -0.23796 2.71926 0.000 0.000 0.000
v 0.01584 -0.24678 2.70954 0.000 0.000 0.000
v -0.00486 -0.22968 2.73798 0.000 0.000 0.000
v 0.04068 -0.20646 2.74140 0.000 0.000 0.000
v 0.05238 -0.22032 2.72448 0.000 0.000 0.000
v -0.01152 -0.21600 2.72988 0.000 0.000 0.000
v 0.10494 -0.17424 2.70486 0.000 0.000 0.000
v 0.09072 -0.20394 2.68398 0.000 0.000 0.000
v 0.06678 -0.19710 2.73582 0.000 0.000 0.000
v 0.06066 -0.21726 2.72268 0.000 0.000 0.000
v 0.09720 -0.21762 2.69190 0.000 0.000 0.000
v 0.11160 -0.18774 2.71296 0.000 0.000 0.000
v 0.13986 -0.17028 2.67894 0.000 0.000 0.000
v 0.12366 -0.20988 2.64978 0.000 0.000 0.000
v 0.01224 0.22752 2.76264 0.000 0.000 0.000
v 0.04194 0.16128 2.76066 0.000 0.000 0.000
v 0.00900 0.20268 2.81664 0.000 0.000 0.000
v 0.05724 0.16524 2.83338 0.000 0.000 0.000
v 0.05670 0.22158 2.71908 0.000 0.000 0.000
v 0.10944 0.16506 2.79756 0.000 0.000 0.000
v 0.10566 0.19260 2.74500 0.000 0.000 0.000
v 0.01224 0.22752 2.76264 0.000 0.000 0.000
v -0.00648 0.24354 2.75796 0.000 0.000 0.000
v -0.00900 0.23094 2.77632 0.000 0.000 0.000
v 0.00900 0.20268 2.81664 0.000 0.000 0.000
v -0.01530 0.23832 2.78802 0.000 0.000 0.000
v -0.01872 0.22680 2.81430 0.000 0.000 0.000
v -0.01242 0.21474 2.82114 0.000 0.000 0.000
v 0.00180 0.19836 2.83356 0.000 0.000 0.000
v 0.05724 0.16524 2.83338 0.000 0.000 0.000
v -0.00774 0.21132 2.83500 0.000 0.000 0.000
v 0.00738 0.19818 2.84706 0.000 0.000 0.000
v 0.03492 0.17460 2.85732 0.000 0.000 0.000
v 0.02358 0.18306 2.86200 0.000 0.000 0.000
v 0.05922 0.16380 2.84652 0.000 0.000 0.000
v 0.05274 0.17064 2.85912 0.000 0.000 0.000
v -0.00126 0.25218 2.74680 0.000 0.000 0.000
v 0.01944 0.25146 2.72826 0.000 0.000 0.000
v -0.01062 0.24552 2.76894 0.000 0.000 0.000
v 0.08460 0.15606 2.84760 0.000 0.000 0.000
v 0.07218 0.16398 2.85444 0.000 0.000 0.000
v 0.11574 0.15570 2.81196 0.000 0.000 0.000
v 0.10944 0.16506 2.79756 0.000 0.000 0.000
v 0.13536 0.15930 2.79396 0.000 0.000 0.000
v 0.13806 0.18180 2.75706 0.000 0.000 0.000
v 0.14436 0.16488 2.78496 0.000 0.000 0.000
v 0.12708 0.18018 2.75058 0.000 0.000 0.000
v 0.10566 0.19260 2.74500 0.000 0.000 0.000
v 0.12726 0.19350 2.73258 0.000 0.000 0.000
v 0.13122 0.15912 2.80926 0.000 0.000 0.000
v 0.11754 0.15696 2.82618 0.000 0.000 0.000
v 0.09954 0.15480 2.84742 0.000 0.000 0.000
v 0.10584 0.22050 2.70918 0.000 0.000 0.000
v 0.08964 0.21672 2.71188 0.000 0.000 0.000
v 0.05670 0.22158 2.71908 0.000 0.000 0.000
v 0.07110 0.23382 2.70342 0.000 0.000 0.000
v 0.06192 0.24480 2.70126 0.000 0.000 0.000
v 0.04932 0.24174 2.70846 0.000 0.000 0.000
v 0.02790 0.23940 2.72430 0.000 0.000 0.000
v 0.03636 0.24912 2.71692 0.000 0.000 0.000
v 0.12726 0.20592 2.71836 0.000 0.000 0.000
v 0.08748 0.23040 2.70630 0.000 0.000 0.000
v 0.07092 0.22320 2.79162 0.000 0.000 0.000
v 0.13500 0.19098 2.74140 0.000 0.000 0.000
v -0.04788 0.23796 2.71926 0.000 0.000 0.000
v -0.02286 0.26262 2.68128 0.000 0.000 0.000
v 0.00918 0.23328 2.70144 0.000 0.000 0.000
v 0.01584 0.24678 2.70954 0.000 0.000 0.000
v -0.00486 0.22968 2.73798 0.000 0.000 0.000
v 0.04068 0.20646 2.74140 0.000 0.000 0.000
v 0.05238 0.22032 2.72448 0.000 0.000 0.000
v -0.01152 0.21600 2.72988 0.000 0.000 0.000
v 0.06678 0.19710 2.73582 0.000 0.000 0.000
v 0.09072 0.20394 2.68398 0.000 0.000 0.000
v 0.10494 0.17424 2.70486 0.000 0.000 0.000
v 0.06066 0.21726 2.72268 0.000 0.000 0.000
v 0.09720 0.21762 2.69190 0.000 0.000 0.000
v 0.11160 0.18774 2.71296 0.000 0.000 0.000
v 0.13986 0.17028 2.67894 0.000 0.000 0.000
v 0.12366 0.20988 2.64978 0.000 0.000 0.000
v -0.01134 -0.25218 2.66958 0.000 0.000 0.000
v 0.03582 -0.26658 2.66508 0.000 0.000 0.000
v 0.04608 -0.16974 2.76678 0.000 0.000 0.000
v 0.06102 -0.26982 2.66094 0.000 0.000 0.000
v 0.07830 -0.25308 2.65554 0.000 0.000 0.000
v 0.10350 -0.21528 2.64402 0.000 0.000 0.000
v 0.04608 -0.27954 2.65140 0.000 0.000 0.000
v 0.06462 -0.29106 2.64114 0.000 0.000 0.000
v 0.07416 -0.27054 2.64510 0.000 0.000 0.000
v 0.10368 -0.22806 2.63196 0.000 0.000 0.000
v 0.08910 -0.25272 2.63826 0.000 0.000 0.000
v -0.00774 -0.26388 2.65680 0.000 0.000 0.000
v 0.02124 -0.27450 2.65338 0.000 0.000 0.000
v 0.10206 -0.24786 2.62116 0.000 0.000 0.000
v 0.00216 -0.27990 2.64366 0.000 0.000 0.000
v -0.04734 -0.21978 2.66778 0.000 0.000 0.000
v -0.05094 -0.23328 2.65860 0.000 0.000 0.000
v -0.02790 -0.25488 2.65788 0.000 0.000 0.000
v -0.05112 -0.25362 2.64906 0.000 0.000 0.000
v 0.11448 -0.18018 2.62152 0.000 0.000 0.000
v 0.10656 -0.17028 2.63340 0.000 0.000 0.000
v 0.11214 -0.20988 2.62638 0.000 0.000 0.000
v 0.12420 -0.19728 2.60982 0.000 0.000 0.000
v 0.04608 0.16974 2.76678 0.000 0.000 0.000
v 0.03582 0.26658 2.66508 0.000 0.000 0.000
v -0.01134 0.25218 2.66958 0.000 0.000 0.000
v 0.06102 0.26982 2.66094 0.000 0.000 0.000
v 0.07830 0.25308 2.65554 0.000 0.000 0.000
v 0.10350 0.21528 2.64402 0.000 0.000 0.000
v 0.10656 0.17028 2.63340 0.000 0.000 0.000
v 0.04608 0.27954 2.65140 0.000 0.000 0.000
v 0.06462 0.29106 2.64114 0.000 0.000 0.000
v 0.07416 0.27054 2.64510 0.000 0.000 0.000
v 0.10368 0.22806 2.63196 0.000 0.000 0.000
v 0.08910 0.25272 2.63826 0.000 0.000 0.000
v -0.00774 0.26388 2.65680 0.000 0.000 0.000
v 0.02124 0.27450 2.65338 0.000 0.000 0.000
v 0.11448 0.18018 2.62152 0.000 0.000 0.000
v 0.11214 0.20988 2.62638 0.000 0.000 0.000
v 0.12420 0.19728 2.60982 0.000 0.000 0.000
v 0.10206 0.24786 2.62116 0.000 0.000 0.000
v 0.00216 0.27990 2.64366 0.000 0.000 0.000
v -0.02790 0.25488 2.65788 0.000 0.000 0.000
v -0.05112 0.25362 2.64906 0.000 0.000 0.000
v -0.05094 0.23328 2.65860 0.000 0.000 0.000
v -0.04734 0.21978 2.66778 0.000 0.000 0.000
vt 0.75737 0.69531
vt 0.58258 0.53906
vt 0.57709 0.69531
vt 0.77187 0.52344
vt 0.73245 0.80469
vt 0.57621 0.80469
vt 0.69551 0.89844
vt 0.57533 0.89844
vt 0.63024 0.94531
vt 0.58258 0.53906
vt 0.57709 0.69531
vt 0.58773 0.42538
vt 0.57621 0.80469
vt 0.57533 0.89844
vt 0.58773 0.42538
vt 0.80876 0.42788
vt 0.57079 0.27423
vt 0.85426 0.27423
vt 0.57079 0.27423
vt 0.89562 0.25441
vt 0.68788 0.10600
vt 0.47114 0.10600
vt 0.91262 0.10100
vt 0.70504 0.51516
vt 0.97094 0.19649
vt 0.91262 0.10100
vt 0.68788 0.10600
vt 0.47114 0.10600
vt 0.67504 0.51516
vt 0.48846 0.51399
vt 0.68555 0.41000
vt 0.49895 0.41000
vt 0.65825 0.32926
vt 0.53849 0.32926
vt 0.64631 0.25757
vt 0.58053 0.20452
vt 0.63338 0.12072
vt 0.62181 0.01501
vt 0.83911 0.18072
vt 0.67338 0.12072
vt 0.78681 0.01501
vt 0.88887 0.44425
vt 0.65555 0.41000
vt 0.67504 0.51516
vt 0.88596 0.41000
vt 0.92800 0.51633
vt 0.93428 0.41000
vt 0.92782 0.34136
vt 0.90851 0.33920
vt 0.92220 0.24624
vt 0.48846 0.51399
vt 0.68555 0.41000
vt 0.70504 0.51516
vt 0.49895 0.41000
vt 0.65825 0.32926
vt 0.53849 0.32926
vt 0.64631 0.25757
vt 0.58053 0.20452
vt 0.63338 0.12072
vt 0.62181 0.01501
vt 0.83911 0.18072
vt 0.67338 0.12072
vt 0.78681 0.01501
vt 0.88887 0.44425
vt 0.65555 0.41000
vt 0.88596 0.41000
vt 0.92800 0.51633
vt 0.93428 0.41000
vt 0.92782 0.34136
vt 0.90851 0.33920
vt 0.92220 0.24624
vt 0.75981 0.69531
vt 0.54406 0.52344
vt 0.54906 0.69531
vt 0.76281 0.52344
vt 0.55406 0.32031
vt 0.76781 0.41406
vt 0.77350 0.25781
vt 0.74661 0.80469
vt 0.56583 0.80469
vt 0.71677 0.89844
vt 0.57755 0.89844
vt 0.59119 0.94531
vt 0.69228 0.94531
vt 0.62578 0.99219
vt 0.59119 0.94531
vt 0.71677 0.89844
vt 0.57755 0.89844
vt 0.56583 0.80469
vt 0.74661 0.80469
vt 0.54906 0.69531
vt 0.75981 0.69531
vt 0.54406 0.52344
vt 0.76281 0.52344
vt 0.55406 0.32031
vt 0.76781 0.41406
vt 0.77350 0.25781
vt 0.58010 0.25781
vt 0.66559 0.03898
vt 0.82846 0.03898
vt 0.54718 0.03898
vt 0.67231 0.24691
vt 0.50832 0.24691
vt 0.68434 0.43560
vt 0.48009 0.43560
vt 0.46809 0.30243
vt 0.68395 0.30822
vt 0.48601 0.20485
vt 0.46409 0.20485
vt 0.67210 0.20485
vt 0.64131 0.12296
vt 0.47779 0.15048
vt 0.45909 0.15048
vt 0.46448 0.10065
vt 0.53095 0.12465
vt 0.62452 0.07128
vt 0.55568 0.07213
vt 0.57572 0.00515
vt 0.58010 0.25781
vt 0.66559 0.03898
vt 0.82846 0.03898
vt 0.54718 0.03898
vt 0.67231 0.24691
vt 0.50832 0.24691
vt 0.68434 0.43560
vt 0.48009 0.43560
vt 0.46809 0.30243
vt 0.68395 0.30822
vt 0.48601 0.20485
vt 0.46409 0.20485
vt 0.67210 0.20485
vt 0.64131 0.12296
vt 0.47779 0.15048
vt 0.45909 0.15048
vt 0.46448 0.10065
vt 0.53095 0.12465
vt 0.62452 0.07128
vt 0.55568 0.07213
vt 0.57572 0.00515
vt 0.88369 0.43560
vt 0.64934 0.43560
vt 0.65294 0.30822
vt 0.87026 0.30519
vt 0.65910 0.20485
vt 0.85166 0.20485
vt 0.70231 0.12296
vt 0.82007 0.07044
vt 0.73783 0.07128
vt 0.78044 0.00515
vt 0.87182 0.20485
vt 0.85690 0.11788
vt 0.86698 0.11788
vt 0.85354 0.06705
vt 0.64231 0.24691
vt 0.64934 0.43560
vt 0.88369 0.43560
vt 0.65294 0.30822
vt 0.87026 0.30519
vt 0.65910 0.20485
vt 0.85166 0.20485
vt 0.70231 0.12296
vt 0.82007 0.07044
vt 0.73783 0.07128
vt 0.78044 0.00515
vt 0.87182 0.20485
vt 0.85690 0.11788
vt 0.86698 0.11788
vt 0.85354 0.06705
vt 0.64231 0.24691
vt 0.59031 0.10212
vt 0.54906 0.10212
vt 0.59594 0.01360
vt 0.63156 0.10212
vt 0.65281 0.18945
vt 0.58094 0.18945
vt 0.51906 0.18945
vt 0.68344 0.30416
vt 0.59375 0.30685
vt 0.59656 0.48000
vt 0.49406 0.48000
vt 0.52906 0.30955
vt 0.50949 0.28531
vt 0.58647 0.28531
vt 0.70406 0.48000
vt 0.48875 0.10344
vt 0.68844 0.10344
vt 0.70344 0.28531
vt 0.72281 0.22500
vt 0.46781 0.22500
vt 0.48469 0.38281
vt 0.73406 0.30531
vt 0.66656 0.39844
vt 0.78156 0.41406
vt 0.49767 0.56531
vt 0.78183 0.56531
vt 0.75531 0.69531
vt 0.51469 0.69531
vt 0.73474 0.82233
vt 0.52786 0.82233
vt 0.70469 0.88453
vt 0.54119 0.88453
vt 0.57131 0.92695
vt 0.69000 0.92666
vt 0.56419 0.96936
vt 0.64569 0.99102
vt 0.69000 0.92666
vt 0.57131 0.92695
vt 0.70469 0.88453
vt 0.54119 0.88453
vt 0.52786 0.82233
vt 0.73474 0.82233
vt 0.51469 0.69531
vt 0.75531 0.69531
vt 0.49767 0.56531
vt 0.78183 0.56531
vt 0.66656 0.39844
vt 0.48469 0.38281
vt 0.73406 0.30531
vt 0.78156 0.41406
vt 0.72281 0.22500
vt 0.46781 0.22500
vt 0.48875 0.10344
vt 0.68844 0.10344
vt 0.58647 0.28531
vt 0.70344 0.28531
vt 0.50949 0.28531
vt 0.59656 0.48000
vt 0.70406 0.48000
vt 0.49406 0.48000
vt 0.59375 0.30685
vt 0.68344 0.30416
vt 0.58094 0.18945
vt 0.52906 0.30955
vt 0.65281 0.18945
vt 0.51906 0.18945
vt 0.59031 0.10212
vt 0.63156 0.10212
vt 0.59594 0.01360
vt 0.54906 0.10212
vt 0.75310 0.53019
vt 0.67182 0.53019
vt 0.66787 0.42898
vt 0.76857 0.65466
vt 0.77810 0.42898
vt 0.68887 0.65466
vt 0.76117 0.76496
vt 0.69501 0.76496
vt 0.75581 0.84489
vt 0.69826 0.84489
vt 0.74581 0.93450
vt 0.68826 0.93450
vt 0.66787 0.42898
vt 0.67182 0.53019
vt 0.75310 0.53019
vt 0.76857 0.65466
vt 0.77810 0.42898
vt 0.68887 0.65466
vt 0.76117 0.76496
vt 0.69501 0.76496
vt 0.75581 0.84489
vt 0.69826 0.84489
vt 0.74581 0.93450
vt 0.68826 0.93450
vt 0.51581 0.57031
vt 0.52456 0.46094
vt 0.31769 0.46094
vt 0.42331 0.36719
vt 0.54331 0.36719
vt 0.52206 0.21094
vt 0.44394 0.22656
vt 0.47519 0.03906
vt 0.31769 0.46094
vt 0.52456 0.46094
vt 0.51581 0.57031
vt 0.42331 0.36719
vt 0.54331 0.36719
vt 0.52206 0.21094
vt 0.44394 0.22656
vt 0.47519 0.03906
vt 0.60913 0.26252
vt 0.50304 0.18399
vt 0.43109 0.27628
vt 0.66676 0.37154
vt 0.39834 0.36247
vt 0.38882 0.42120
vt 0.65536 0.42120
vt 0.61736 0.46960
vt 0.40569 0.46960
vt 0.43160 0.54440
vt 0.58314 0.54440
vt 0.50304 0.60600
vt 0.43109 0.27628
vt 0.50304 0.18399
vt 0.60913 0.26252
vt 0.66676 0.37154
vt 0.39834 0.36247
vt 0.38882 0.42120
vt 0.65536 0.42120
vt 0.61736 0.46960
vt 0.40569 0.46960
vt 0.43160 0.54440
vt 0.58314 0.54440
vt 0.50304 0.60600
vt 0.32522 0.07925
vt 0.40979 0.18839
vt 0.13993 0.08772
vt 0.09137 0.01281
vt 0.25527 0.01281
vt 0.01364 0.13383
vt 0.44898 0.27628
vt 0.32522 0.07925
vt 0.40979 0.18839
vt 0.25527 0.01281
vt 0.00364 0.17952
vt 0.36157 0.37252
vt 0.01552 0.37278
vt 0.46946 0.37244
vt 0.31183 0.46960
vt 0.52736 0.46960
vt 0.33033 0.54440
vt 0.44898 0.27628
vt 0.00364 0.17952
vt 0.36157 0.37252
vt 0.01552 0.37278
vt 0.46946 0.37244
vt 0.31183 0.46960
vt 0.52736 0.46960
vt 0.52736 0.54440
vt 0.40176 0.60600
vt 0.52736 0.60600
vt 0.52736 0.67778
vt 0.33033 0.54440
vt 0.52736 0.54440
vt 0.40176 0.60600
vt 0.52736 0.60600
vt 0.52736 0.67778
vt 0.29237 0.37237
vt 0.45566 0.26627
vt 0.47737 0.45960
vt 0.00813 0.67778
vt 0.00813 0.60600
vt 0.12896 0.60600
vt 0.19770 0.54440
vt 0.00813 0.50563
vt 0.26284 0.46960
vt 0.00813 0.46960
vt 0.01552 0.37278
vt 0.12396 0.60600
vt 0.00813 0.60600
vt 0.00813 0.67778
vt 0.17269 0.54440
vt 0.00813 0.50563
vt 0.26284 0.46960
vt 0.00813 0.46960
vt 0.01552 0.37278
vt 0.29237 0.37237
vt 0.47737 0.45960
vt 0.45566 0.26627
vt 0.32158 0.60600
vt 0.19961 0.60600
vt 0.21089 0.64120
vt 0.23546 0.67778
vt 0.34014 0.51923
vt 0.10664 0.46960
vt 0.39952 0.43775
vt 0.08406 0.39480
vt 0.16409 0.26252
vt 0.05412 0.31567
vt 0.57969 0.27628
vt 0.19074 0.18399
vt 0.58069 0.18399
vt 0.50400 0.07485
vt 0.29402 0.08332
vt 0.34020 0.04693
vt 0.46582 0.00781
vt 0.31042 0.00781
vt 0.67561 0.39877
vt 0.39307 0.43775
vt 0.65067 0.46960
vt 0.39219 0.52363
vt 0.63477 0.53859
vt 0.45363 0.61040
vt 0.59042 0.61040
vt 0.50145 0.68217
vt 0.21089 0.64120
vt 0.19961 0.60600
vt 0.32158 0.60600
vt 0.23546 0.67778
vt 0.34014 0.51923
vt 0.10664 0.46960
vt 0.39952 0.43775
vt 0.08406 0.39480
vt 0.16409 0.26252
vt 0.05412 0.31567
vt 0.57969 0.27628
vt 0.19074 0.18399
vt 0.58069 0.18399
vt 0.50400 0.07485
vt 0.29402 0.08332
vt 0.34020 0.04693
vt 0.46582 0.00781
vt 0.31042 0.00781
vt 0.39307 0.43775
vt 0.67561 0.39877
vt 0.65067 0.46960
vt 0.39219 0.52363
vt 0.63477 0.53859
vt 0.45363 0.61040
vt 0.59042 0.61040
vt 0.50145 0.68217
vt 0.59481 0.36500
vt 0.55099 0.30500
vt 0.51192 0.36500
vt 0.63582 0.53500
vt 0.50236 0.53500
vt 0.49277 0.65000
vt 0.64582 0.65000
vt 0.49039 0.76000
vt 0.63623 0.76000
vt 0.49008 0.85000
vt 0.60582 0.85000
vt 0.51315 0.93000
vt 0.58521 0.93000
vt 0.53033 0.99000
vt 0.62475 0.65000
vt 0.49850 0.76000
vt 0.62475 0.76000
vt 0.74700 0.76000
vt 0.75878 0.65000
vt 0.51650 0.85000
vt 0.62697 0.85000
vt 0.57488 0.93000
vt 0.72322 0.85000
vt 0.68861 0.93000
vt 0.65391 0.99000
vt 0.76678 0.53500
vt 0.61475 0.53500
vt 0.62475 0.36500
vt 0.73478 0.36500
vt 0.50450 0.53500
vt 0.53076 0.36500
vt 0.49850 0.65000
vt 0.64664 0.26000
vt 0.72910 0.26000
vt 0.64404 0.18000
vt 0.73369 0.18000
vt 0.63914 0.12500
vt 0.73564 0.12500
vt 0.65811 0.07000
vt 0.73012 0.07000
vt 0.71108 0.00500
vt 0.63264 0.26000
vt 0.54713 0.26000
vt 0.54717 0.18000
vt 0.63414 0.12500
vt 0.55024 0.12500
vt 0.61011 0.07000
vt 0.55807 0.07000
vt 0.57050 0.00500
vt 0.76413 0.93000
vt 0.75293 0.85000
vt 0.83188 0.93000
vt 0.80826 0.99000
vt 0.84978 0.85000
vt 0.85307 0.76000
vt 0.74001 0.76000
vt 0.85286 0.65000
vt 0.72726 0.65000
vt 0.85070 0.53500
vt 0.72651 0.53500
vt 0.72786 0.44500
vt 0.84159 0.44500
vt 0.75054 0.26000
vt 0.83957 0.26000
vt 0.75075 0.18000
vt 0.83957 0.18000
vt 0.72907 0.12500
vt 0.81803 0.12500
vt 0.74101 0.07000
vt 0.79573 0.07000
vt 0.77558 0.00500
vt 0.63000 0.65000
vt 0.72151 0.53500
vt 0.63000 0.53500
vt 0.70686 0.44500
vt 0.63000 0.44500
vt 0.70875 0.26000
vt 0.63000 0.28500
vt 0.63000 0.26000
vt 0.70903 0.18000
vt 0.63000 0.18000
vt 0.69984 0.12500
vt 0.63000 0.12500
vt 0.68285 0.07000
vt 0.63000 0.07000
vt 0.63000 0.00500
vt 0.63000 0.76000
vt 0.71801 0.76000
vt 0.63000 0.85000
vt 0.68987 0.85000
vt 0.63000 0.93000
vt 0.77007 0.85000
vt 0.81601 0.76000
vt 0.70022 0.76000
vt 0.84054 0.65000
vt 0.69476 0.65000
vt 0.86860 0.53500
vt 0.70029 0.53500
vt 0.70279 0.44500
vt 0.76471 0.36500
vt 0.83266 0.36500
vt 0.80600 0.30500
vt 0.57000 0.65000
vt 0.57000 0.85000
vt 0.68460 0.93000
vt 0.57000 0.76000
vt 0.57000 0.53500
vt 0.69429 0.53500
vt 0.57000 0.44500
vt 0.69679 0.44500
vt 0.57000 0.36500
vt 0.69271 0.36500
vt 0.57000 0.30500
vt 0.57000 0.30500
vt 0.57000 0.93000
vt 0.57000 0.99000
vt 0.73472 0.21258
vt 0.66661 0.22766
vt 0.74075 0.33905
vt 0.64472 0.33421
vt 0.63086 0.44381
vt 0.73697 0.44514
vt 0.73932 0.54295
vt 0.63185 0.55242
vt 0.62694 0.71473
vt 0.73649 0.70554
vt 0.62777 0.77957
vt 0.72432 0.77735
vt 0.62915 0.87420
vt 0.69377 0.87260
vt 0.67491 0.97643
vt 0.72720 0.11039
vt 0.68195 0.11793
vt 0.71469 0.00949
vt 0.51259 0.63219
vt 0.62277 0.77957
vt 0.50838 0.54429
vt 0.52349 0.78188
vt 0.62415 0.87420
vt 0.55436 0.87301
vt 0.62991 0.97143
vt 0.50661 0.47010
vt 0.63686 0.44381
vt 0.52361 0.37097
vt 0.62972 0.33421
vt 0.62873 0.22766
vt 0.56640 0.24951
vt 0.59302 0.12290
vt 0.63200 0.11057
vt 0.62127 0.01443
vt 0.77785 0.81897
vt 0.75725 0.88059
vt 0.68035 0.81897
vt 0.64973 0.74196
vt 0.79307 0.74196
vt 0.73000 0.61567
vt 0.79868 0.61567
vt 0.64722 0.61567
vt 0.65522 0.49670
vt 0.73000 0.49871
vt 0.73000 0.35704
vt 0.79968 0.50072
vt 0.79968 0.35704
vt 0.73000 0.19295
vt 0.66054 0.35704
vt 0.67668 0.26745
vt 0.67151 0.19832
vt 0.73000 0.12419
vt 0.68463 0.13091
vt 0.73000 0.06127
vt 0.80676 0.18757
vt 0.81609 0.11451
vt 0.80142 0.05708
vt 0.72936 0.00815
vt 0.70175 0.06546
vt 0.73000 0.06127
vt 0.80142 0.05708
vt 0.72936 0.00815
vt 0.70175 0.06546
vt 0.68463 0.13091
vt 0.73000 0.12419
vt 0.81609 0.11451
vt 0.80676 0.18757
vt 0.67151 0.19832
vt 0.73000 0.19295
vt 0.67668 0.26745
vt 0.66054 0.35704
vt 0.73000 0.35704
vt 0.79968 0.35704
vt 0.79968 0.50072
vt 0.73000 0.49871
vt 0.65522 0.49670
vt 0.73000 0.61567
vt 0.64722 0.61753
vt 0.64973 0.74196
vt 0.79307 0.74196
vt 0.79868 0.61567
vt 0.77785 0.81897
vt 0.68035 0.81897
vt 0.75725 0.88059
vt 0.69931 0.88059
vt 0.72088 0.94600
vt 0.69931 0.88059
vt 0.83056 0.94943
vt 0.89619 0.88289
vt 0.75705 0.94943
vt 0.73725 0.88289
vt 0.78768 0.99295
vt 0.89662 0.79971
vt 0.73307 0.79971
vt 0.72368 0.73317
vt 0.90545 0.73317
vt 0.91645 0.60009
vt 0.72868 0.60009
vt 0.90745 0.51506
vt 0.74368 0.42827
vt 0.90438 0.46717
vt 0.80400 0.23443
vt 0.72876 0.23814
vt 0.80400 0.16136
vt 0.91593 0.23073
vt 0.73497 0.17028
vt 0.80400 0.08895
vt 0.90945 0.15444
vt 0.75757 0.09441
vt 0.80400 0.01308
vt 0.86836 0.05681
vt 0.75705 0.94943
vt 0.89619 0.88289
vt 0.83056 0.94943
vt 0.73725 0.88289
vt 0.89662 0.79971
vt 0.73307 0.79971
vt 0.72368 0.73317
vt 0.90545 0.73317
vt 0.91645 0.60009
vt 0.72868 0.60009
vt 0.90745 0.51506
vt 0.74368 0.42827
vt 0.90438 0.46717
vt 0.80400 0.23443
vt 0.72876 0.23814
vt 0.80400 0.16136
vt 0.91593 0.23073
vt 0.73497 0.17028
vt 0.80400 0.08895
vt 0.90945 0.15444
vt 0.75757 0.09441
vt 0.80400 0.01308
vt 0.86836 0.05681
vt 0.76257 0.85755
vt 0.60146 0.87733
vt 0.62727 0.97020
vt 0.67400 0.72682
vt 0.76806 0.72039
vt 0.67400 0.59326
vt 0.59976 0.77325
vt 0.77361 0.57679
vt 0.67400 0.44025
vt 0.59830 0.60974
vt 0.60888 0.44462
vt 0.75537 0.43589
vt 0.67400 0.25547
vt 0.72684 0.25431
vt 0.67400 0.11731
vt 0.62612 0.25662
vt 0.57500 0.04654
vt 0.57500 0.29366
vt 0.60480 0.20650
vt 0.62355 0.34329
vt 0.57500 0.42176
vt 0.61045 0.45982
vt 0.57500 0.53965
vt 0.71800 0.50076
vt 0.71800 0.37964
vt 0.62742 0.49076
vt 0.64206 0.37168
vt 0.71800 0.25740
vt 0.67390 0.22778
vt 0.71800 0.08459
vt 0.61877 0.62606
vt 0.71800 0.63532
vt 0.62731 0.74404
vt 0.71300 0.75374
vt 0.64898 0.82624
vt 0.53870 0.48979
vt 0.46822 0.37321
vt 0.53870 0.37152
vt 0.53870 0.27622
vt 0.78156 0.49219
vt 0.78156 0.49219
vt 0.22180 0.62227
vt 0.11218 0.67311
vt 0.25391 0.68953
vt 0.00603 0.84404
vt 0.13787 0.99391
vt 0.24194 0.95552
vt 0.31374 0.87523
vt 0.30723 0.75679
vt 0.25391 0.68953
vt 0.13787 0.99391
vt 0.37000 0.20867
vt 0.31500 0.12051
vt 0.25603 0.27682
vt 0.40000 0.32689
vt 0.40000 0.43177
vt 0.24805 0.40148
vt 0.27665 0.46356
vt 0.36000 0.52196
vt 0.14186 0.42359
vt 0.10186 0.33146
vt 0.27588 0.16246
vt 0.14000 0.22651
vt 0.25204 0.33915
vt 0.27665 0.46356
vt 0.31500 0.12051
vt 0.23170 0.77477
vt 0.26028 0.63845
vt 0.15306 0.58305
vt 0.40349 0.69563
vt 0.24645 0.44063
vt 0.29998 0.49144
vt 0.35028 0.51711
vt 0.09786 0.71333
vt 0.35625 0.83490
vt 0.24006 0.93210
vt 0.14965 0.90309
vt 0.08795 0.88018
vt 0.24599 0.70661
vt 0.14965 0.90309
vt 0.29998 0.49144
vt 0.80135 0.86867
vt 0.81247 0.70066
vt 0.70051 0.65022
vt 0.94962 0.72218
vt 0.72844 0.55905
vt 0.83312 0.53543
vt 0.88896 0.60794
vt 0.67981 0.79520
vt 0.94015 0.86894
vt 0.88803 0.94034
vt 0.81260 0.93713
vt 0.73730 0.91046
vt 0.80691 0.78466
vt 0.81260 0.93713
vt 0.53870 0.37152
vt 0.46822 0.37321
vt 0.53870 0.48979
vt 0.53870 0.27622
vt 0.20000 0.64023
vt 0.20000 0.55200
vt 0.15389 0.58336
vt 0.15389 0.61361
vt 0.15389 0.64386
vt 0.12895 0.61030
vt 0.16152 0.65943
vt 0.16914 0.67500
vt 0.10600 0.55200
vt 0.10600 0.67500
vt 0.12213 0.67500
vt 0.13827 0.67500
vt 0.18457 0.67500
vt 0.20000 0.67500
vt 0.20000 0.64023
vt 0.20000 0.67500
vt 0.18457 0.67500
vt 0.16914 0.67500
vt 0.16152 0.65943
vt 0.15389 0.64386
vt 0.15389 0.61361
vt 0.15389 0.58336
vt 0.20000 0.55200
vt 0.12895 0.61030
vt 0.10600 0.55200
vt 0.10600 0.67500
vt 0.12213 0.67500
vt 0.13827 0.67500
vt 0.99200 0.00600
vt 0.83350 0.00600
vt 0.83350 0.08600
vt 0.69400 0.08600
vt 0.69400 0.00600
vt 0.99200 0.08600
vt 0.83350 0.00600
vt 0.83350 0.08600
vt 0.83241 0.69248
vt 0.67236 0.99250
vt 0.53003 0.71326
vt 0.99437 0.99250
vt 0.34532 0.99250
vt 0.83241 0.69248
vt 0.53003 0.71326
vt 0.45240 0.42079
vt 0.43339 0.28022
vt 0.30440 0.36535
vt 0.32651 0.68704
vt 0.52205 0.46019
vt 0.54420 0.63060
vt 0.49626 0.68934
vt 0.36521 0.77942
vt 0.00734 0.85933
vt 0.45746 0.76558
vt 0.36773 0.85563
vt 0.16405 0.97143
vt 0.25015 0.97372
vt 0.00734 0.93921
vt 0.07085 0.99068
vt 0.43429 0.19505
vt 0.29407 0.11262
vt 0.20357 0.13523
vt 0.00734 0.16885
vt 0.07890 0.05030
vt 0.00734 0.00752
vt 0.18068 0.06257
vt 0.07890 0.05030
vt 0.20357 0.13523
vt 0.30440 0.36535
vt 0.29407 0.11262
vt 0.43339 0.28022
vt 0.45240 0.42079
vt 0.32651 0.68704
vt 0.52205 0.46019
vt 0.49626 0.68934
vt 0.36521 0.77942
vt 0.54420 0.63060
vt 0.45746 0.76558
vt 0.16405 0.97143
vt 0.36773 0.85563
vt 0.25015 0.97372
vt 0.07085 0.99068
vt 0.43429 0.19505
vt 0.48440 0.34763
vt 0.00734 0.51676
vt 0.48440 0.34763
vt 0.18068 0.06257
vt 0.89800 0.66400
vt 0.89800 0.50800
vt 0.99200 0.50800
vt 0.89800 0.66400
vt 0.99200 0.66400
vt 0.99200 0.79550
vt 0.89800 0.79550
vt 0.99200 0.66400
vt 0.99200 0.66400
vt 0.89800 0.66400
vt 0.99200 0.79550
vt 0.89800 0.79550
vt 0.89800 0.66400
vt 0.99200 0.66400
vt 0.99200 0.50800
vt 0.89800 0.50800
vt 0.53003 0.71326
vt 0.67236 0.99250
vt 0.83241 0.69248
vt 0.99437 0.99250
vt 0.34532 0.99250
vt 0.83241 0.69248
vt 0.53003 0.71326
vt 0.30440 0.36535
vt 0.43339 0.28022
vt 0.45240 0.42079
vt 0.32651 0.68704
vt 0.52205 0.46019
vt 0.54420 0.63060
vt 0.49626 0.68934
vt 0.36521 0.77942
vt 0.00734 0.85933
vt 0.45746 0.76558
vt 0.36773 0.85563
vt 0.16405 0.97143
vt 0.25015 0.97372
vt 0.00734 0.93921
vt 0.07085 0.99068
vt 0.43429 0.19505
vt 0.29407 0.11262
vt 0.48440 0.34763
vt 0.16405 0.97143
vt 0.07085 0.99068
vt 0.36521 0.77942
vt 0.32651 0.68704
vt 0.49626 0.68934
vt 0.52205 0.46019
vt 0.54420 0.63060
vt 0.45240 0.42079
vt 0.30440 0.36535
vt 0.43339 0.28022
vt 0.45746 0.76558
vt 0.36773 0.85563
vt 0.25015 0.97372
vt 0.29407 0.11262
vt 0.20357 0.13523
vt 0.00734 0.16885
vt 0.07890 0.05030
vt 0.00734 0.00752
vt 0.07890 0.05030
vt 0.20357 0.13523
vt 0.18068 0.06257
vt 0.43429 0.19505
vt 0.18068 0.06257
vt 0.00734 0.51676
vt 0.48440 0.34763
vt 0.99200 0.50800
vt 0.89800 0.50800
vt 0.89800 0.66400
vt 0.89800 0.66400
vt 0.99200 0.66400
vt 0.99200 0.79550
vt 0.89800 0.79550
vt 0.99200 0.66400
vt 0.99200 0.79550
vt 0.89800 0.66400
vt 0.99200 0.66400
vt 0.89800 0.79550
vt 0.89800 0.66400
vt 0.99200 0.66400
vt 0.99200 0.50800
vt 0.89800 0.50800
vt 0.80749 0.24149
vt 0.61057 0.24116
vt 0.62363 0.70005
vt 0.50804 0.24224
vt 0.61057 0.24116
vt 0.80749 0.24149
vt 0.57351 0.16227
vt 0.50804 0.10286
vt 0.57351 0.16227
vt 0.77364 0.17012
vt 0.65415 0.17090
vt 0.77364 0.17012
vt 0.65415 0.17090
vt 0.71523 0.10260
vt 0.71523 0.10260
vt 0.99685 0.24205
vt 0.95813 0.16707
vt 0.85712 0.16860
vt 0.91320 0.10269
vt 0.95813 0.16707
vt 0.99685 0.24205
vt 0.85712 0.16860
vt 0.91320 0.10269
vt 0.62363 0.70005
vt 0.61057 0.24116
vt 0.80749 0.24149
vt 0.50804 0.24224
vt 0.61057 0.24116
vt 0.80749 0.24149
vt 0.99685 0.24205
vt 0.57351 0.16227
vt 0.50804 0.10286
vt 0.57351 0.16227
vt 0.77364 0.17012
vt 0.65415 0.17090
vt 0.77364 0.17012
vt 0.65415 0.17090
vt 0.95813 0.16707
vt 0.85712 0.16860
vt 0.91320 0.10269
vt 0.71523 0.10260
vt 0.71523 0.10260
vt 0.85712 0.16860
vt 0.91320 0.10269
vt 0.95813 0.16707
vt 0.99685 0.24205
usemtl m0
f 1/1 2/2 3/3
f 4/4 2/2 1/1
f 1/1 3/3 5/5
f 5/5 3/3 6/6
f 5/5 6/6 7/7
f 7/7 6/6 8/8
f 7/7 8/8 9/9
f 1/1 10/10 4/4
f 11/11 10/10 1/1
f 5/5 11/11 1/1
f 10/10 12/12 4/4
f 7/7 13/13 5/5
f 13/13 11/11 5/5
f 9/9 14/14 7/7
f 14/14 13/13 7/7
f 4/4 15/15 2/2
f 16/16 15/15 4/4
f 4/4 12/12 16/16
f 16/16 17/17 15/15
f 16/16 18/18 17/17
f 19/19 18/18 16/16
f 19/19 16/16 12/12
f 18/18 20/20 17/17
f 19/19 20/20 18/18
f 21/21 17/17 20/20
f 22/22 17/17 21/21
f 21/21 20/20 23/23
f 24/24 22/22 21/21
f 23/23 20/20 25/25
f 25/25 20/20 26/26
f 26/26 20/20 27/27
f 20/20 19/19 27/27
f 27/27 19/19 28/28
f 27/27 29/29 26/26
f 22/22 24/24 30/30
f 24/24 31/31 30/30
f 32/32 30/30 31/31
f 32/32 31/31 33/33
f 32/32 33/33 34/34
f 33/33 35/35 34/34
f 34/34 35/35 36/36
f 35/35 37/37 36/36
f 36/36 37/37 38/38
f 35/35 33/33 39/39
f 40/40 35/35 39/39
f 40/40 39/39 41/41
f 39/39 33/33 42/42
f 33/33 43/43 42/42
f 42/42 43/43 44/44
f 42/42 44/44 45/45
f 45/45 44/44 46/46
f 45/45 46/46 47/47
f 46/46 44/44 23/23
f 48/48 45/45 47/47
f 48/48 49/49 45/45
f 49/49 48/48 50/50
f 23/23 44/44 21/21
f 51/51 52/52 53/53
f 52/52 51/51 54/54
f 51/51 53/53 28/28
f 55/55 52/52 54/54
f 56/56 55/55 54/54
f 56/56 57/57 55/55
f 58/58 57/57 56/56
f 58/58 59/59 57/57
f 60/60 59/59 58/58
f 61/61 55/55 57/57
f 61/61 57/57 62/62
f 63/63 61/61 62/62
f 64/64 55/55 61/61
f 64/64 65/65 55/55
f 29/29 65/65 64/64
f 29/29 64/64 66/66
f 67/67 29/29 66/66
f 68/68 67/67 66/66
f 68/68 66/66 69/69
f 66/66 70/70 69/69
f 71/71 69/69 70/70
f 26/26 29/29 67/67
f 72/72 73/73 74/74
f 72/72 75/75 73/73
f 76/76 73/73 75/75
f 76/76 75/75 77/77
f 77/77 78/78 76/76
f 72/72 74/74 79/79
f 79/79 74/74 80/80
f 79/79 80/80 81/81
f 81/81 80/80 82/82
f 81/81 82/82 83/83
f 84/84 81/81 83/83
f 84/84 83/83 85/85
f 85/85 86/86 84/84
f 86/86 87/87 84/84
f 86/86 88/88 87/87
f 88/88 89/89 87/87
f 87/87 89/89 90/90
f 89/89 91/91 90/90
f 90/90 91/91 92/92
f 91/91 93/93 92/92
f 93/93 94/94 92/92
f 94/94 93/93 95/95
f 94/94 95/95 96/96
f 95/95 97/97 96/96
f 98/98 97/97 95/95
f 99/99 97/97 98/98
f 100/100 97/97 99/99
f 99/99 98/98 101/101
f 101/101 102/102 99/99
f 103/103 102/102 101/101
f 102/102 103/103 104/104
f 104/104 103/103 105/105
f 105/105 106/106 104/104
f 106/106 107/107 104/104
f 108/108 107/107 106/106
f 109/109 108/108 106/106
f 110/110 107/107 108/108
f 111/111 110/110 108/108
f 109/109 112/112 108/108
f 109/109 113/113 112/112
f 113/113 114/114 112/112
f 111/111 108/108 115/115
f 115/115 116/116 111/111
f 117/117 116/116 115/115
f 116/116 117/117 118/118
f 119/119 78/78 120/120
f 120/120 78/78 121/121
f 122/122 119/119 120/120
f 120/120 123/123 122/122
f 122/122 123/123 124/124
f 125/125 124/124 123/123
f 126/126 124/124 125/125
f 125/125 127/127 126/126
f 125/125 128/128 127/127
f 127/127 128/128 129/129
f 127/127 129/129 130/130
f 129/129 128/128 131/131
f 129/129 131/131 132/132
f 129/129 133/133 130/130
f 133/133 134/134 130/130
f 133/133 135/135 134/134
f 129/129 132/132 136/136
f 132/132 137/137 136/136
f 136/136 137/137 138/138
f 139/139 138/138 137/137
f 121/121 140/140 141/141
f 142/142 141/141 140/140
f 142/142 140/140 143/143
f 144/144 142/142 143/143
f 144/144 143/143 145/145
f 146/146 144/144 145/145
f 146/146 145/145 147/147
f 148/148 146/146 147/147
f 149/149 148/148 147/147
f 150/150 145/145 143/143
f 151/151 145/145 150/150
f 151/151 150/150 152/152
f 151/151 152/152 153/153
f 121/121 141/141 154/154
f 121/121 154/154 120/120
f 155/155 156/156 100/100
f 156/156 155/155 157/157
f 156/156 157/157 158/158
f 158/158 157/157 159/159
f 160/160 158/158 159/159
f 160/160 159/159 161/161
f 160/160 161/161 162/162
f 162/162 161/161 163/163
f 162/162 163/163 164/164
f 158/158 160/160 165/165
f 165/165 160/160 166/166
f 167/167 165/165 166/166
f 168/168 167/167 166/166
f 155/155 100/100 169/169
f 169/169 100/100 99/99
f 170/170 171/171 172/172
f 170/170 172/172 173/173
f 174/174 170/170 173/173
f 175/175 170/170 174/174
f 170/170 175/175 176/176
f 170/170 176/176 171/171
f 177/177 175/175 174/174
f 178/178 175/175 177/177
f 179/179 178/178 177/177
f 178/178 179/179 180/180
f 175/175 178/178 181/181
f 178/178 180/180 181/181
f 175/175 181/181 176/176
f 179/179 182/182 180/180
f 179/179 183/183 182/182
f 183/183 179/179 184/184
f 179/179 177/177 184/184
f 183/183 185/185 182/182
f 183/183 186/186 185/185
f 186/186 183/183 187/187
f 183/183 184/184 187/187
f 186/186 188/188 185/185
f 188/188 189/189 185/185
f 190/190 189/189 188/188
f 190/190 188/188 191/191
f 190/190 191/191 192/192
f 192/192 191/191 193/193
f 192/192 194/194 190/190
f 195/195 194/194 192/192
f 194/194 195/195 196/196
f 197/197 194/194 196/196
f 197/197 196/196 198/198
f 199/199 197/197 198/198
f 199/199 198/198 200/200
f 201/201 199/199 200/200
f 201/201 200/200 202/202
f 202/202 200/200 203/203
f 202/202 203/203 204/204
f 203/203 205/205 204/204
f 204/204 205/205 206/206
f 204/204 206/206 207/207
f 206/206 208/208 207/207
f 207/207 208/208 209/209
f 208/208 210/210 209/209
f 208/208 211/211 210/210
f 211/211 212/212 210/210
f 211/211 213/213 212/212
f 213/213 214/214 212/212
f 213/213 215/215 214/214
f 216/216 214/214 215/215
f 217/217 214/214 216/216
f 216/216 218/218 217/217
f 219/219 218/218 216/216
f 220/220 217/217 218/218
f 220/220 221/221 217/217
f 222/222 221/221 220/220
f 222/222 220/220 223/223
f 222/222 223/223 224/224
f 225/225 224/224 223/223
f 226/226 222/222 224/224
f 226/226 224/224 227/227
f 228/228 227/227 224/224
f 225/225 228/228 224/224
f 229/229 226/226 227/227
f 229/229 227/227 230/230
f 231/231 230/230 227/227
f 228/228 231/231 227/227
f 231/231 232/232 230/230
f 233/233 230/230 232/232
f 233/233 229/229 230/230
f 234/234 232/232 231/231
f 235/235 233/233 232/232
f 235/235 232/232 236/236
f 234/234 236/236 232/232
f 237/237 236/236 234/234
f 237/237 238/238 236/236
f 238/238 239/239 236/236
f 235/235 236/236 239/239
f 240/240 241/241 242/242
f 243/243 241/241 240/240
f 244/244 240/240 242/242
f 245/245 241/241 243/243
f 246/246 245/245 243/243
f 247/247 245/245 246/246
f 246/246 248/248 247/247
f 247/247 248/248 249/249
f 250/250 249/249 248/248
f 251/251 249/249 250/250
f 252/252 253/253 254/254
f 254/254 253/253 255/255
f 252/252 254/254 256/256
f 255/255 253/253 257/257
f 255/255 257/257 258/258
f 258/258 257/257 259/259
f 259/259 260/260 258/258
f 261/261 260/260 259/259
f 260/260 261/261 262/262
f 262/262 261/261 263/263
f 264/264 265/265 266/266
f 267/267 266/266 265/265
f 267/267 265/265 268/268
f 268/268 269/269 267/267
f 269/269 270/270 267/267
f 269/269 271/271 270/270
f 272/272 273/273 274/274
f 273/273 272/272 275/275
f 273/273 275/275 276/276
f 275/275 277/277 276/276
f 275/275 278/278 277/277
f 278/278 279/279 277/277
f 280/280 281/281 282/282
f 282/282 283/283 280/280
f 282/282 284/284 283/283
f 285/285 283/283 284/284
f 286/286 283/283 285/285
f 286/286 285/285 287/287
f 287/287 285/285 288/288
f 289/289 287/287 288/288
f 290/290 287/287 289/289
f 289/289 291/291 290/290
f 292/292 293/293 294/294
f 295/295 292/292 294/294
f 295/295 296/296 292/292
f 296/296 295/295 297/297
f 297/297 295/295 298/298
f 299/299 297/297 298/298
f 300/300 297/297 299/299
f 300/300 299/299 301/301
f 301/301 299/299 302/302
f 302/302 303/303 301/301
f 304/304 305/305 306/306
f 304/304 306/306 307/307
f 308/308 304/304 307/307
f 306/306 305/305 309/309
f 305/305 310/310 309/309
f 307/307 306/306 311/311
f 306/306 312/312 311/311
f 309/309 312/312 306/306
f 307/307 311/311 313/313
f 309/309 310/310 314/314
f 314/314 310/310 315/315
f 314/314 315/315 316/316
f 317/317 315/315 310/310
f 317/317 318/318 315/315
f 317/317 319/319 318/318
f 318/318 319/319 320/320
f 309/309 321/321 312/312
f 322/322 321/321 309/309
f 323/323 321/321 322/322
f 324/324 323/323 322/322
f 325/325 321/321 323/323
f 326/326 325/325 323/323
f 326/326 327/327 325/325
f 320/320 319/319 328/328
f 329/329 320/320 328/328
f 329/329 328/328 330/330
f 331/331 329/329 330/330
f 332/332 327/327 326/326
f 333/333 327/327 332/332
f 333/333 332/332 334/334
f 335/335 333/333 334/334
f 335/335 334/334 336/336
f 325/325 337/337 338/338
f 339/339 337/337 325/325
f 340/340 341/341 342/342
f 341/341 343/343 342/342
f 344/344 343/343 341/341
f 345/345 343/343 344/344
f 346/346 345/345 344/344
f 347/347 345/345 346/346
f 315/315 345/345 347/347
f 348/348 349/349 350/350
f 348/348 351/351 349/349
f 349/349 351/351 352/352
f 352/352 351/351 353/353
f 352/352 353/353 354/354
f 354/354 353/353 355/355
f 355/355 353/353 323/323
f 356/356 357/357 317/317
f 317/317 358/358 356/356
f 359/359 360/360 361/361
f 359/359 361/361 362/362
f 359/359 363/363 360/360
f 360/360 363/363 364/364
f 364/364 363/363 365/365
f 365/365 366/366 364/364
f 366/366 365/365 367/367
f 366/366 367/367 368/368
f 367/367 365/365 369/369
f 369/369 370/370 367/367
f 371/371 370/370 369/369
f 370/370 371/371 372/372
f 370/370 372/372 373/373
f 373/373 372/372 374/374
f 374/374 372/372 375/375
f 376/376 374/374 375/375
f 377/377 369/369 378/378
f 378/378 379/379 377/377
f 378/378 380/380 379/379
f 379/379 380/380 381/381
f 381/381 380/380 382/382
f 381/381 382/382 383/383
f 382/382 384/384 383/383
f 385/385 386/386 387/387
f 388/388 385/385 387/387
f 386/386 389/389 387/387
f 390/390 389/389 386/386
f 391/391 389/389 390/390
f 392/392 391/391 390/390
f 393/393 391/391 392/392
f 394/394 393/393 392/392
f 395/395 391/391 393/393
f 393/393 396/396 395/395
f 395/395 396/396 397/397
f 398/398 397/397 396/396
f 399/399 398/398 396/396
f 400/400 398/398 399/399
f 401/401 398/398 400/400
f 401/401 400/400 402/402
f 403/403 395/395 404/404
f 405/405 403/403 404/404
f 405/405 406/406 403/403
f 406/406 405/405 407/407
f 408/408 406/406 407/407
f 408/408 407/407 409/409
f 409/409 410/410 408/408
f 411/411 412/412 413/413
f 413/413 414/414 411/411
f 415/415 414/414 413/413
f 416/416 414/414 415/415
f 416/416 417/417 414/414
f 416/416 418/418 417/417
f 417/417 418/418 419/419
f 419/419 418/418 420/420
f 421/421 419/419 420/420
f 421/421 420/420 422/422
f 423/423 421/421 422/422
f 423/423 422/422 424/424
f 425/425 426/426 427/427
f 428/428 425/425 427/427
f 428/428 429/429 425/425
f 427/427 426/426 430/430
f 431/431 427/427 430/430
f 431/431 428/428 427/427
f 430/430 432/432 431/431
f 433/433 431/431 432/432
f 433/433 428/428 431/431
f 434/434 433/433 432/432
f 432/432 435/435 434/434
f 429/429 436/436 425/425
f 436/436 437/437 425/425
f 438/438 437/437 436/436
f 436/436 439/439 438/438
f 438/438 440/440 437/437
f 441/441 440/440 438/438
f 437/437 440/440 442/442
f 425/425 437/437 442/442
f 425/425 442/442 426/426
f 438/438 439/439 443/443
f 443/443 439/439 444/444
f 445/445 443/443 444/444
f 445/445 444/444 446/446
f 447/447 445/445 446/446
f 447/447 446/446 448/448
f 449/449 447/447 448/448
f 449/449 448/448 450/450
f 449/449 450/450 451/451
f 452/452 441/441 438/438
f 453/453 441/441 452/452
f 452/452 445/445 453/453
f 453/453 445/445 454/454
f 445/445 455/455 454/454
f 454/454 455/455 456/456
f 455/455 457/457 456/456
f 456/456 457/457 458/458
f 457/457 459/459 458/458
f 460/460 461/461 462/462
f 462/462 463/463 460/460
f 462/462 461/461 464/464
f 461/461 465/465 464/464
f 466/466 465/465 461/461
f 466/466 467/467 465/465
f 466/466 468/468 467/467
f 468/468 469/469 467/467
f 468/468 470/470 469/469
f 469/469 470/470 471/471
f 471/471 472/472 469/469
f 471/471 473/473 472/472
f 472/472 473/473 474/474
f 473/473 475/475 474/474
f 474/474 475/475 476/476
f 475/475 477/477 476/476
f 476/476 477/477 478/478
f 477/477 479/479 478/478
f 478/478 479/479 480/480
f 479/479 481/481 480/480
f 482/482 483/483 468/468
f 482/482 484/484 483/483
f 483/483 484/484 485/485
f 485/485 484/484 486/486
f 487/487 485/485 486/486
f 488/488 487/487 486/486
f 489/489 487/487 488/488
f 490/490 487/487 489/489
f 490/490 489/489 491/491
f 492/492 490/490 491/491
f 492/492 491/491 493/493
f 494/494 492/492 493/493
f 494/494 493/493 495/495
f 494/494 495/495 496/496
f 468/468 497/497 482/482
f 498/498 497/497 468/468
f 499/499 497/497 498/498
f 499/499 498/498 500/500
f 501/501 499/499 500/500
f 502/502 503/503 504/504
f 505/505 504/504 503/503
f 506/506 504/504 505/505
f 505/505 507/507 506/506
f 506/506 507/507 508/508
f 509/509 508/508 507/507
f 510/510 509/509 507/507
f 510/510 507/507 511/511
f 512/512 510/510 511/511
f 504/504 506/506 513/513
f 502/502 504/504 514/514
f 502/502 514/514 515/515
f 514/514 504/504 516/516
f 504/504 513/513 516/516
f 506/506 517/517 513/513
f 506/506 518/518 517/517
f 518/518 519/519 517/517
f 518/518 520/520 519/519
f 519/519 520/520 521/521
f 520/520 522/522 521/521
f 521/521 522/522 523/523
f 524/524 523/523 522/522
f 515/515 514/514 525/525
f 515/515 525/525 526/526
f 527/527 528/528 529/529
f 530/530 529/529 528/528
f 530/530 531/531 529/529
f 529/529 531/531 532/532
f 532/532 531/531 533/533
f 533/533 531/531 534/534
f 533/533 534/534 535/535
f 536/536 533/533 535/535
f 536/536 535/535 537/537
f 538/538 536/536 537/537
f 538/538 537/537 539/539
f 540/540 538/538 539/539
f 540/540 539/539 541/541
f 542/542 528/528 527/527
f 542/542 543/543 528/528
f 543/543 542/542 544/544
f 535/535 534/534 545/545
f 546/546 535/535 545/545
f 545/545 534/534 547/547
f 546/546 545/545 548/548
f 549/549 546/546 548/548
f 549/549 548/548 550/550
f 551/551 549/549 550/550
f 534/534 552/552 547/547
f 553/553 552/552 534/534
f 552/552 553/553 554/554
f 555/555 554/554 553/553
f 556/556 554/554 555/555
f 557/557 554/554 556/556
f 556/556 558/558 557/557
f 558/558 556/556 559/559
f 558/558 559/559 560/560
f 561/561 562/562 563/563
f 564/564 561/561 563/563
f 564/564 565/565 561/561
f 566/566 565/565 564/564
f 566/566 567/567 565/565
f 566/566 564/564 568/568
f 569/569 566/566 568/568
f 570/570 566/566 569/569
f 571/571 570/570 569/569
f 570/570 571/571 572/572
f 572/572 571/571 573/573
f 573/573 571/571 574/574
f 571/571 569/569 575/575
f 575/575 574/574 571/571
f 576/576 574/574 575/575
f 574/574 576/576 577/577
f 577/577 578/578 574/574
f 579/579 578/578 577/577
f 578/578 579/579 580/580
f 578/578 581/581 574/574
f 573/573 574/574 581/581
f 578/578 582/582 581/581
f 582/582 578/578 583/583
f 583/583 578/578 580/580
f 580/580 584/584 583/583
f 580/580 585/585 584/584
f 580/580 579/579 585/585
f 586/586 587/587 588/588
f 586/586 588/588 589/589
f 590/590 586/586 589/589
f 590/590 591/591 586/586
f 591/591 587/587 586/586
f 591/591 592/592 587/587
f 592/592 591/591 593/593
f 591/591 590/590 594/594
f 591/591 594/594 595/595
f 593/593 591/591 595/595
f 596/596 595/595 594/594
f 597/597 595/595 596/596
f 598/598 595/595 597/597
f 595/595 598/598 599/599
f 595/595 599/599 593/593
f 598/598 600/600 599/599
f 598/598 601/601 600/600
f 601/601 598/598 602/602
f 602/602 598/598 597/597
f 603/603 601/601 602/602
f 603/603 602/602 604/604
f 605/605 603/603 604/604
f 606/606 603/603 605/605
f 606/606 607/607 603/603
f 606/606 605/605 608/608
f 608/608 605/605 609/609
f 609/609 610/610 608/608
f 611/611 610/610 609/609
f 610/610 611/611 612/612
f 612/612 613/613 562/562
f 563/563 562/562 613/613
f 614/614 615/615 616/616
f 616/616 615/615 617/617
f 618/618 614/614 616/616
f 619/619 617/617 615/615
f 619/619 620/620 617/617
f 619/619 621/621 620/620
f 622/622 621/621 619/619
f 622/622 623/623 621/621
f 623/623 624/624 621/621
f 624/624 623/623 625/625
f 626/626 624/624 625/625
f 626/626 625/625 627/627
f 628/628 626/626 627/627
f 626/626 628/628 629/629
f 628/628 630/630 629/629
f 630/630 628/628 631/631
f 628/628 627/627 631/631
f 629/629 630/630 632/632
f 630/630 633/633 632/632
f 633/633 630/630 634/634
f 630/630 631/631 634/634
f 632/632 633/633 635/635
f 636/636 635/635 633/633
f 636/636 633/633 637/637
f 633/633 634/634 637/637
f 638/638 639/639 640/640
f 641/641 639/639 638/638
f 638/638 640/640 618/618
f 641/641 642/642 639/639
f 641/641 643/643 642/642
f 643/643 644/644 642/642
f 642/642 644/644 645/645
f 644/644 646/646 645/645
f 644/644 647/647 646/646
f 648/648 646/646 647/647
f 648/648 647/647 649/649
f 648/648 649/649 650/650
f 650/650 649/649 651/651
f 652/652 651/651 649/649
f 653/653 651/651 652/652
f 651/651 653/653 654/654
f 650/650 651/651 654/654
f 653/653 652/652 655/655
f 656/656 653/653 655/655
f 653/653 656/656 657/657
f 654/654 653/653 657/657
f 656/656 655/655 658/658
f 659/659 656/656 658/658
f 659/659 660/660 656/656
f 657/657 656/656 660/660
f 661/661 662/662 663/663
f 662/662 661/661 664/664
f 665/665 664/664 661/661
f 665/665 666/666 664/664
f 667/667 664/664 666/666
f 662/662 664/664 667/667
f 668/668 666/666 665/665
f 668/668 669/669 666/666
f 670/670 666/666 669/669
f 670/670 667/667 666/666
f 671/671 670/670 669/669
f 672/672 669/669 668/668
f 672/672 673/673 669/669
f 673/673 671/671 669/669
f 674/674 673/673 672/672
f 674/674 675/675 673/673
f 673/673 675/675 676/676
f 676/676 671/671 673/673
f 677/677 678/678 679/679
f 678/678 680/680 679/679
f 678/678 681/681 680/680
f 681/681 682/682 680/680
f 682/682 681/681 683/683
f 684/684 685/685 686/686
f 685/685 687/687 686/686
f 685/685 688/688 687/687
f 688/688 689/689 687/687
f 689/689 688/688 690/690
f 684/684 686/686 691/691
f 692/692 684/684 691/691
f 693/693 692/692 691/691
f 693/693 694/694 692/692
f 695/695 694/694 693/693
f 76/76 78/78 119/119
f 696/696 697/697 698/698
f 697/697 699/699 698/698
f 195/195 192/192 700/700
f 700/700 192/192 193/193
f 216/216 215/215 701/701
f 216/216 701/701 219/219
f 27/27 28/28 53/53
f 702/702 703/703 704/704
f 704/704 703/703 705/705
f 704/704 705/705 706/706
f 704/704 706/706 707/707
f 704/704 707/707 708/708
f 704/704 708/708 709/709
f 710/710 703/703 702/702
f 709/709 708/708 710/710
f 711/711 710/710 708/708
f 710/710 711/711 703/703
f 703/703 711/711 705/705
f 712/712 713/713 714/714
f 712/712 714/714 715/715
f 715/715 714/714 716/716
f 716/716 714/714 717/717
f 717/717 718/718 716/716
f 716/716 718/718 719/719
f 718/718 717/717 720/720
f 717/717 714/714 721/721
f 720/720 717/717 721/721
f 722/722 714/714 713/713
f 723/723 714/714 722/722
f 721/721 714/714 723/723
f 715/715 716/716 724/724
f 720/720 721/721 724/724
f 724/724 721/721 723/723
f 715/715 724/724 712/712
f 724/724 723/723 722/722
f 724/724 716/716 725/725
f 720/720 724/724 725/725
f 725/725 716/716 719/719
f 712/712 724/724 726/726
f 724/724 722/722 726/726
f 727/727 728/728 729/729
f 728/728 727/727 730/730
f 728/728 731/731 729/729
f 728/728 732/732 731/731
f 732/732 728/728 733/733
f 733/733 728/728 730/730
f 727/727 729/729 734/734
f 730/730 727/727 735/735
f 727/727 736/736 735/735
f 727/727 737/737 736/736
f 737/737 727/727 738/738
f 738/738 727/727 734/734
f 734/734 729/729 739/739
f 733/733 730/730 739/739
f 735/735 736/736 739/739
f 739/739 729/729 731/731
f 734/734 739/739 738/738
f 735/735 739/739 730/730
f 740/740 739/739 736/736
f 738/738 739/739 740/740
f 733/733 739/739 741/741
f 739/739 731/731 741/741
f 742/742 743/743 744/744
f 743/743 742/742 745/745
f 743/743 746/746 744/744
f 743/743 747/747 746/746
f 747/747 743/743 748/748
f 748/748 743/743 745/745
f 742/742 744/744 749/749
f 745/745 742/742 750/750
f 742/742 751/751 750/750
f 752/752 751/751 742/742
f 753/753 752/752 742/742
f 753/753 742/742 749/749
f 749/749 744/744 754/754
f 748/748 745/745 754/754
f 754/754 745/745 750/750
f 754/754 744/744 746/746
f 749/749 754/754 753/753
f 754/754 750/750 751/751
f 748/748 754/754 747/747
f 754/754 746/746 747/747
f 753/753 754/754 755/755
f 754/754 751/751 755/755
f 756/756 757/757 758/758
f 756/756 759/759 757/757
usemtl m1
f 760/760 761/761 762/762
f 763/763 760/760 762/762
f 764/764 760/760 763/763
f 763/763 762/762 765/765
f 764/764 763/763 765/765
f 766/766 760/760 764/764
f 764/764 765/765 766/766
f 767/767 760/760 766/766
f 765/765 762/762 768/768
f 765/765 768/768 769/769
f 770/770 765/765 769/769
f 771/771 765/765 770/770
f 766/766 765/765 771/771
f 772/772 760/760 767/767
f 772/772 773/773 760/760
f 774/774 775/775 776/776
f 777/777 774/774 776/776
f 778/778 774/774 777/777
f 779/779 774/774 778/778
f 780/780 774/774 779/779
f 781/781 774/774 780/780
f 781/781 782/782 774/774
f 783/783 781/781 780/780
f 783/783 780/780 779/779
f 778/778 783/783 779/779
f 784/784 781/781 783/783
f 785/785 784/784 783/783
f 785/785 783/783 786/786
f 786/786 783/783 787/787
f 787/787 783/783 778/778
usemtl m2
f 788/788 789/789 790/790
f 789/789 791/791 790/790
f 789/789 792/792 791/791
f 788/788 790/790 793/793
f 791/791 792/792 794/794
f 795/795 794/794 788/788
f 795/795 791/791 794/794
f 793/793 795/795 788/788
f 796/796 797/797 798/798
f 799/799 797/797 796/796
f 797/797 800/800 798/798
f 801/801 797/797 799/799
f 801/801 802/802 797/797
f 802/802 800/800 797/797
f 803/803 804/804 805/805
f 803/803 805/805 806/806
f 807/807 803/803 806/806
f 808/808 807/807 806/806
f 809/809 808/808 806/806
f 809/809 806/806 810/810
f 810/810 806/806 811/811
f 812/812 809/809 810/810
f 810/810 811/811 813/813
f 813/813 811/811 814/814
f 815/815 813/813 814/814
f 814/814 811/811 816/816
f 814/814 816/816 817/817
f 804/804 818/818 805/805
f 818/818 819/819 805/805
f 819/819 820/820 805/805
f 820/820 821/821 805/805
f 820/820 822/822 821/821
f 822/822 823/823 821/821
f 824/824 822/822 820/820
f 821/821 823/823 825/825
f 821/821 825/825 826/826
f 821/821 826/826 827/827
f 826/826 828/828 827/827
f 827/827 828/828 829/829
f 827/827 829/829 830/830
f 831/831 827/827 830/830
f 831/831 830/830 832/832
f 831/831 832/832 833/833
f 831/831 833/833 834/834
f 811/811 831/831 834/834
f 833/833 832/832 835/835
f 834/834 833/833 836/836
f 811/811 834/834 837/837
f 837/837 834/834 838/838
f 837/837 838/838 839/839
f 816/816 811/811 837/837
f 840/840 816/816 837/837
f 829/829 828/828 841/841
f 830/830 829/829 842/842
f 811/811 843/843 831/831
f 806/806 843/843 811/811
f 806/806 805/805 843/843
f 805/805 821/821 843/843
f 843/843 821/821 827/827
f 843/843 827/827 831/831
f 844/844 804/804 803/803
f 826/826 825/825 845/845
f 846/846 847/847 848/848
f 848/848 847/847 849/849
f 848/848 849/849 850/850
f 850/850 849/849 851/851
f 851/851 849/849 852/852
f 852/852 846/846 851/851
f 851/851 846/846 853/853
f 853/853 846/846 848/848
f 854/854 855/855 856/856
f 856/856 855/855 857/857
f 857/857 858/858 856/856
f 856/856 858/858 859/859
f 858/858 860/860 859/859
f 854/854 860/860 855/855
f 860/860 861/861 855/855
f 858/858 861/861 860/860
f 862/862 863/863 864/864
f 864/864 863/863 865/865
f 862/862 866/866 863/863
f 865/865 863/863 867/867
f 863/863 868/868 867/867
f 863/863 866/866 868/868
f 869/869 870/870 871/871
f 872/872 869/869 871/871
f 872/872 871/871 873/873
f 872/872 873/873 874/874
f 872/872 874/874 875/875
f 876/876 872/872 875/875
f 877/877 872/872 876/876
f 876/876 875/875 878/878
f 879/879 877/877 876/876
f 880/880 877/877 879/879
f 880/880 879/879 881/881
f 882/882 877/877 880/880
f 883/883 882/882 880/880
f 869/869 884/884 870/870
f 869/869 885/885 884/884
f 871/871 870/870 886/886
f 887/887 877/877 882/882
f 887/887 882/882 888/888
f 887/887 889/889 877/877
f 889/889 890/890 877/877
f 889/889 891/891 890/890
f 891/891 892/892 890/890
f 893/893 892/892 891/891
f 892/892 894/894 890/890
f 894/894 895/895 890/890
f 894/894 896/896 895/895
f 897/897 891/891 889/889
f 898/898 889/889 887/887
f 899/899 898/898 887/887
f 896/896 900/900 895/895
f 895/895 900/900 901/901
f 895/895 901/901 902/902
f 901/901 903/903 902/902
f 903/903 904/904 902/902
f 902/902 904/904 905/905
f 902/902 905/905 906/906
f 869/869 902/902 906/906
f 869/869 906/906 885/885
f 906/906 905/905 907/907
f 908/908 900/900 896/896
f 909/909 903/903 901/901
f 910/910 902/902 869/869
f 910/910 869/869 872/872
f 877/877 910/910 872/872
f 890/890 910/910 877/877
f 890/890 895/895 910/910
f 895/895 902/902 910/910
f 911/911 896/896 894/894
f 912/912 913/913 914/914
f 915/915 913/913 912/912
f 916/916 915/915 912/912
f 917/917 915/915 916/916
f 918/918 915/915 917/917
f 917/917 914/914 918/918
f 919/919 914/914 917/917
f 912/912 914/914 919/919
f 920/920 921/921 922/922
f 923/923 921/921 920/920
f 920/920 924/924 923/923
f 925/925 924/924 920/920
f 925/925 926/926 924/924
f 921/921 926/926 922/922
f 921/921 927/927 926/926
f 926/926 927/927 924/924
f 928/928 929/929 930/930
f 929/929 931/931 930/930
f 931/931 932/932 930/930
f 932/932 933/933 930/930
f 929/929 934/934 931/931
f 934/934 935/935 931/931
f 931/931 935/935 936/936
f 931/931 936/936 932/932
f 932/932 937/937 933/933
f 938/938 937/937 932/932
f 928/928 939/939 929/929
f 939/939 940/940 929/929
f 938/938 941/941 937/937
f 939/939 942/942 940/940
f 943/943 928/928 930/930
f 943/943 944/944 928/928
f 944/944 945/945 928/928
f 944/944 946/946 945/945
f 933/933 947/947 948/948
f 949/949 950/950 947/947
f 949/949 947/947 933/933
f 933/933 948/948 930/930
f 951/951 952/952 953/953
f 951/951 954/954 952/952
f 951/951 955/955 954/954
f 951/951 956/956 955/955
f 951/951 957/957 956/956
f 954/954 958/958 952/952
f 954/954 959/959 958/958
f 960/960 959/959 954/954
f 955/955 960/960 954/954
f 956/956 961/961 955/955
f 955/955 961/961 962/962
f 952/952 963/963 953/953
f 952/952 964/964 963/963
f 957/957 965/965 956/956
f 956/956 965/965 966/966
f 965/965 967/967 966/966
f 961/961 968/968 962/962
f 964/964 969/969 963/963
f 970/970 971/971 972/972
f 953/953 970/970 972/972
f 953/953 972/972 973/973
f 951/951 953/953 973/973
