mtllib acce1674.mtl
o acce1674
v -0.40500 -0.58680 2.35962 0.000 0.000 0.000
v -0.40500 -0.58680 2.67840 0.000 0.000 0.000
v -0.40500 -0.41292 2.35962 0.000 0.000 0.000
v -0.40500 -0.44190 2.67840 0.000 0.000 0.000
v -0.40500 -0.49986 2.67840 0.000 0.000 0.000
v -0.40500 -0.55782 2.35962 0.000 0.000 0.000
v -0.40500 -0.55782 2.67840 0.000 0.000 0.000
v -0.40500 -0.64476 2.67840 0.000 0.000 0.000
v -0.40500 -0.70272 2.67840 0.000 0.000 0.000
v -0.40500 -0.73170 2.35962 0.000 0.000 0.000
v -0.40500 -0.73170 2.38860 0.000 0.000 0.000
v -0.40500 -0.70272 2.38860 0.000 0.000 0.000
v -0.40500 -0.67374 2.38860 0.000 0.000 0.000
v -0.40500 -0.58680 2.38860 0.000 0.000 0.000
v -0.40500 -0.55782 2.38860 0.000 0.000 0.000
v -0.40500 -0.47088 2.38860 0.000 0.000 0.000
v -0.40500 -0.44190 2.38860 0.000 0.000 0.000
v -0.40500 -0.41292 2.38860 0.000 0.000 0.000
v -0.40500 -0.73170 2.41758 0.000 0.000 0.000
v -0.40500 -0.70272 2.41758 0.000 0.000 0.000
v -0.40500 -0.44190 2.41758 0.000 0.000 0.000
v -0.40500 -0.41292 2.41758 0.000 0.000 0.000
v -0.40500 -0.67374 2.44656 0.000 0.000 0.000
v -0.40500 -0.64476 2.44656 0.000 0.000 0.000
v -0.40500 -0.49986 2.44656 0.000 0.000 0.000
v -0.40500 -0.47088 2.44656 0.000 0.000 0.000
v -0.40500 -0.78966 2.47554 0.000 0.000 0.000
v -0.40500 -0.73170 2.47554 0.000 0.000 0.000
v -0.40500 -0.64476 2.47554 0.000 0.000 0.000
v -0.40500 -0.49986 2.47554 0.000 0.000 0.000
v -0.40500 -0.41292 2.47554 0.000 0.000 0.000
v -0.40500 -0.35496 2.47554 0.000 0.000 0.000
v -0.40500 -0.78966 2.50452 0.000 0.000 0.000
v -0.40500 -0.76068 2.50452 0.000 0.000 0.000
v -0.40500 -0.64476 2.50452 0.000 0.000 0.000
v -0.40500 -0.49986 2.50452 0.000 0.000 0.000
v -0.40500 -0.38394 2.50452 0.000 0.000 0.000
v -0.40500 -0.35496 2.50452 0.000 0.000 0.000
v -0.40500 -0.76068 2.53350 0.000 0.000 0.000
v -0.40500 -0.73170 2.53350 0.000 0.000 0.000
v -0.40500 -0.67374 2.53350 0.000 0.000 0.000
v -0.40500 -0.64476 2.53350 0.000 0.000 0.000
v -0.40500 -0.49986 2.53350 0.000 0.000 0.000
v -0.40500 -0.47088 2.53350 0.000 0.000 0.000
v -0.40500 -0.41292 2.53350 0.000 0.000 0.000
v -0.40500 -0.38394 2.53350 0.000 0.000 0.000
v -0.40500 -0.67374 2.56248 0.000 0.000 0.000
v -0.40500 -0.64476 2.56248 0.000 0.000 0.000
v -0.40500 -0.49986 2.56248 0.000 0.000 0.000
v -0.40500 -0.47088 2.56248 0.000 0.000 0.000
v -0.40500 -0.87660 2.59146 0.000 0.000 0.000
v -0.40500 -0.78966 2.59146 0.000 0.000 0.000
v -0.40500 -0.73170 2.59146 0.000 0.000 0.000
v -0.40500 -0.58680 2.59146 0.000 0.000 0.000
v -0.40500 -0.55782 2.59146 0.000 0.000 0.000
v -0.40500 -0.41292 2.59146 0.000 0.000 0.000
v -0.40500 -0.35496 2.59146 0.000 0.000 0.000
v -0.40500 -0.29700 2.59146 0.000 0.000 0.000
v -0.40500 -0.87660 2.62044 0.000 0.000 0.000
v -0.40500 -0.78966 2.62044 0.000 0.000 0.000
v -0.40500 -0.73170 2.62044 0.000 0.000 0.000
v -0.40500 -0.67374 2.62044 0.000 0.000 0.000
v -0.40500 -0.64476 2.62044 0.000 0.000 0.000
v -0.40500 -0.61578 2.62044 0.000 0.000 0.000
v -0.40500 -0.58680 2.62044 0.000 0.000 0.000
v -0.40500 -0.55782 2.62044 0.000 0.000 0.000
v -0.40500 -0.52884 2.62044 0.000 0.000 0.000
v -0.40500 -0.49986 2.62044 0.000 0.000 0.000
v -0.40500 -0.47088 2.62044 0.000 0.000 0.000
v -0.40500 -0.41292 2.62044 0.000 0.000 0.000
v -0.40500 -0.35496 2.62044 0.000 0.000 0.000
v -0.40500 -0.29700 2.62044 0.000 0.000 0.000
v -0.40500 -0.78966 2.64942 0.000 0.000 0.000
v -0.40500 -0.70272 2.64942 0.000 0.000 0.000
v -0.40500 -0.61578 2.64942 0.000 0.000 0.000
v -0.40500 -0.58680 2.64942 0.000 0.000 0.000
v -0.40500 -0.55782 2.64942 0.000 0.000 0.000
v -0.40500 -0.52884 2.64942 0.000 0.000 0.000
v -0.40500 -0.44190 2.64942 0.000 0.000 0.000
v -0.40500 -0.35496 2.64942 0.000 0.000 0.000
v -0.40500 -0.64476 2.70738 0.000 0.000 0.000
v -0.40500 -0.58680 2.70738 0.000 0.000 0.000
v -0.40500 -0.55782 2.70738 0.000 0.000 0.000
v -0.40500 -0.49986 2.70738 0.000 0.000 0.000
v -0.40500 -0.58680 2.73636 0.000 0.000 0.000
v -0.40500 -0.55782 2.73636 0.000 0.000 0.000
v -0.45000 -0.58680 2.35962 0.000 0.000 0.000
v -0.45000 -0.41292 2.35962 0.000 0.000 0.000
v -0.45000 -0.44190 2.67840 0.000 0.000 0.000
v -0.45000 -0.49986 2.67840 0.000 0.000 0.000
v -0.45000 -0.55782 2.35962 0.000 0.000 0.000
v -0.45000 -0.64476 2.67840 0.000 0.000 0.000
v -0.45000 -0.70272 2.67840 0.000 0.000 0.000
v -0.45000 -0.73170 2.35962 0.000 0.000 0.000
v -0.45000 -0.73170 2.38860 0.000 0.000 0.000
v -0.45000 -0.70272 2.38860 0.000 0.000 0.000
v -0.45000 -0.58680 2.38860 0.000 0.000 0.000
v -0.45000 -0.55782 2.38860 0.000 0.000 0.000
v -0.45000 -0.44190 2.38860 0.000 0.000 0.000
v -0.45000 -0.41292 2.38860 0.000 0.000 0.000
v -0.45000 -0.73170 2.41758 0.000 0.000 0.000
v -0.45000 -0.70272 2.41758 0.000 0.000 0.000
v -0.45000 -0.44190 2.41758 0.000 0.000 0.000
v -0.45000 -0.41292 2.41758 0.000 0.000 0.000
v -0.45000 -0.78966 2.47554 0.000 0.000 0.000
v -0.45000 -0.73170 2.47554 0.000 0.000 0.000
v -0.45000 -0.41292 2.47554 0.000 0.000 0.000
v -0.45000 -0.35496 2.47554 0.000 0.000 0.000
v -0.45000 -0.78966 2.50452 0.000 0.000 0.000
v -0.45000 -0.76068 2.50452 0.000 0.000 0.000
v -0.45000 -0.38394 2.50452 0.000 0.000 0.000
v -0.45000 -0.35496 2.50452 0.000 0.000 0.000
v -0.45000 -0.76068 2.53350 0.000 0.000 0.000
v -0.45000 -0.73170 2.53350 0.000 0.000 0.000
v -0.45000 -0.41292 2.53350 0.000 0.000 0.000
v -0.45000 -0.38394 2.53350 0.000 0.000 0.000
v -0.45000 -0.87660 2.59146 0.000 0.000 0.000
v -0.45000 -0.78966 2.59146 0.000 0.000 0.000
v -0.45000 -0.73170 2.59146 0.000 0.000 0.000
v -0.45000 -0.41292 2.59146 0.000 0.000 0.000
v -0.45000 -0.35496 2.59146 0.000 0.000 0.000
v -0.45000 -0.29700 2.59146 0.000 0.000 0.000
v -0.45000 -0.87660 2.62044 0.000 0.000 0.000
v -0.45000 -0.78966 2.62044 0.000 0.000 0.000
v -0.45000 -0.35496 2.62044 0.000 0.000 0.000
v -0.45000 -0.29700 2.62044 0.000 0.000 0.000
v -0.45000 -0.78966 2.64942 0.000 0.000 0.000
v -0.45000 -0.70272 2.64942 0.000 0.000 0.000
v -0.45000 -0.44190 2.64942 0.000 0.000 0.000
v -0.45000 -0.35496 2.64942 0.000 0.000 0.000
v -0.45000 -0.64476 2.70738 0.000 0.000 0.000
v -0.45000 -0.58680 2.70738 0.000 0.000 0.000
v -0.45000 -0.55782 2.70738 0.000 0.000 0.000
v -0.45000 -0.49986 2.70738 0.000 0.000 0.000
v -0.45000 -0.58680 2.73636 0.000 0.000 0.000
v -0.45000 -0.55782 2.73636 0.000 0.000 0.000
v -0.45000 -0.41292 2.62044 0.000 0.000 0.000
v -0.45000 -0.73170 2.62044 0.000 0.000 0.000
v -0.40500 0.53190 2.35962 0.000 0.000 0.000
v -0.40500 0.53190 2.67840 0.000 0.000 0.000
v -0.40500 0.70578 2.35962 0.000 0.000 0.000
v -0.40500 0.67680 2.67840 0.000 0.000 0.000
v -0.40500 0.61884 2.67840 0.000 0.000 0.000
v -0.40500 0.56088 2.35962 0.000 0.000 0.000
v -0.40500 0.56088 2.67840 0.000 0.000 0.000
v -0.40500 0.47394 2.67840 0.000 0.000 0.000
v -0.40500 0.41598 2.67840 0.000 0.000 0.000
v -0.40500 0.38700 2.35962 0.000 0.000 0.000
v -0.40500 0.38700 2.38860 0.000 0.000 0.000
v -0.40500 0.41598 2.38860 0.000 0.000 0.000
v -0.40500 0.44496 2.38860 0.000 0.000 0.000
v -0.40500 0.53190 2.38860 0.000 0.000 0.000
v -0.40500 0.56088 2.38860 0.000 0.000 0.000
v -0.40500 0.64782 2.38860 0.000 0.000 0.000
v -0.40500 0.67680 2.38860 0.000 0.000 0.000
v -0.40500 0.70578 2.38860 0.000 0.000 0.000
v -0.40500 0.38700 2.41758 0.000 0.000 0.000
v -0.40500 0.41598 2.41758 0.000 0.000 0.000
v -0.40500 0.67680 2.41758 0.000 0.000 0.000
v -0.40500 0.70578 2.41758 0.000 0.000 0.000
v -0.40500 0.44496 2.44656 0.000 0.000 0.000
v -0.40500 0.47394 2.44656 0.000 0.000 0.000
v -0.40500 0.61884 2.44656 0.000 0.000 0.000
v -0.40500 0.64782 2.44656 0.000 0.000 0.000
v -0.40500 0.32904 2.47554 0.000 0.000 0.000
v -0.40500 0.38700 2.47554 0.000 0.000 0.000
v -0.40500 0.47394 2.47554 0.000 0.000 0.000
v -0.40500 0.61884 2.47554 0.000 0.000 0.000
v -0.40500 0.70578 2.47554 0.000 0.000 0.000
v -0.40500 0.76374 2.47554 0.000 0.000 0.000
v -0.40500 0.32904 2.50452 0.000 0.000 0.000
v -0.40500 0.35802 2.50452 0.000 0.000 0.000
v -0.40500 0.47394 2.50452 0.000 0.000 0.000
v -0.40500 0.61884 2.50452 0.000 0.000 0.000
v -0.40500 0.73476 2.50452 0.000 0.000 0.000
v -0.40500 0.76374 2.50452 0.000 0.000 0.000
v -0.40500 0.35802 2.53350 0.000 0.000 0.000
v -0.40500 0.38700 2.53350 0.000 0.000 0.000
v -0.40500 0.44496 2.53350 0.000 0.000 0.000
v -0.40500 0.47394 2.53350 0.000 0.000 0.000
v -0.40500 0.61884 2.53350 0.000 0.000 0.000
v -0.40500 0.64782 2.53350 0.000 0.000 0.000
v -0.40500 0.70578 2.53350 0.000 0.000 0.000
v -0.40500 0.73476 2.53350 0.000 0.000 0.000
v -0.40500 0.44496 2.56248 0.000 0.000 0.000
v -0.40500 0.47394 2.56248 0.000 0.000 0.000
v -0.40500 0.61884 2.56248 0.000 0.000 0.000
v -0.40500 0.64782 2.56248 0.000 0.000 0.000
v -0.40500 0.24210 2.59146 0.000 0.000 0.000
v -0.40500 0.32904 2.59146 0.000 0.000 0.000
v -0.40500 0.38700 2.59146 0.000 0.000 0.000
v -0.40500 0.53190 2.59146 0.000 0.000 0.000
v -0.40500 0.56088 2.59146 0.000 0.000 0.000
v -0.40500 0.70578 2.59146 0.000 0.000 0.000
v -0.40500 0.76374 2.59146 0.000 0.000 0.000
v -0.40500 0.82170 2.59146 0.000 0.000 0.000
v -0.40500 0.24210 2.62044 0.000 0.000 0.000
v -0.40500 0.32904 2.62044 0.000 0.000 0.000
v -0.40500 0.38700 2.62044 0.000 0.000 0.000
v -0.40500 0.44496 2.62044 0.000 0.000 0.000
v -0.40500 0.47394 2.62044 0.000 0.000 0.000
v -0.40500 0.50292 2.62044 0.000 0.000 0.000
v -0.40500 0.53190 2.62044 0.000 0.000 0.000
v -0.40500 0.56088 2.62044 0.000 0.000 0.000
v -0.40500 0.58986 2.62044 0.000 0.000 0.000
v -0.40500 0.61884 2.62044 0.000 0.000 0.000
v -0.40500 0.64782 2.62044 0.000 0.000 0.000
v -0.40500 0.70578 2.62044 0.000 0.000 0.000
v -0.40500 0.76374 2.62044 0.000 0.000 0.000
v -0.40500 0.82170 2.62044 0.000 0.000 0.000
v -0.40500 0.32904 2.64942 0.000 0.000 0.000
v -0.40500 0.41598 2.64942 0.000 0.000 0.000
v -0.40500 0.50292 2.64942 0.000 0.000 0.000
v -0.40500 0.53190 2.64942 0.000 0.000 0.000
v -0.40500 0.56088 2.64942 0.000 0.000 0.000
v -0.40500 0.58986 2.64942 0.000 0.000 0.000
v -0.40500 0.67680 2.64942 0.000 0.000 0.000
v -0.40500 0.76374 2.64942 0.000 0.000 0.000
v -0.40500 0.47394 2.70738 0.000 0.000 0.000
v -0.40500 0.53190 2.70738 0.000 0.000 0.000
v -0.40500 0.56088 2.70738 0.000 0.000 0.000
v -0.40500 0.61884 2.70738 0.000 0.000 0.000
v -0.40500 0.53190 2.73636 0.000 0.000 0.000
v -0.40500 0.56088 2.73636 0.000 0.000 0.000
v -0.45000 0.53190 2.35962 0.000 0.000 0.000
v -0.45000 0.70578 2.35962 0.000 0.000 0.000
v -0.45000 0.67680 2.67840 0.000 0.000 0.000
v -0.45000 0.61884 2.67840 0.000 0.000 0.000
v -0.45000 0.56088 2.35962 0.000 0.000 0.000
v -0.45000 0.47394 2.67840 0.000 0.000 0.000
v -0.45000 0.41598 2.67840 0.000 0.000 0.000
v -0.45000 0.38700 2.35962 0.000 0.000 0.000
v -0.45000 0.38700 2.38860 0.000 0.000 0.000
v -0.45000 0.41598 2.38860 0.000 0.000 0.000
v -0.45000 0.53190 2.38860 0.000 0.000 0.000
v -0.45000 0.56088 2.38860 0.000 0.000 0.000
v -0.45000 0.67680 2.38860 0.000 0.000 0.000
v -0.45000 0.70578 2.38860 0.000 0.000 0.000
v -0.45000 0.38700 2.41758 0.000 0.000 0.000
v -0.45000 0.41598 2.41758 0.000 0.000 0.000
v -0.45000 0.67680 2.41758 0.000 0.000 0.000
v -0.45000 0.70578 2.41758 0.000 0.000 0.000
v -0.45000 0.32904 2.47554 0.000 0.000 0.000
v -0.45000 0.38700 2.47554 0.000 0.000 0.000
v -0.45000 0.70578 2.47554 0.000 0.000 0.000
v -0.45000 0.76374 2.47554 0.000 0.000 0.000
v -0.45000 0.32904 2.50452 0.000 0.000 0.000
v -0.45000 0.35802 2.50452 0.000 0.000 0.000
v -0.45000 0.73476 2.50452 0.000 0.000 0.000
v -0.45000 0.76374 2.50452 0.000 0.000 0.000
v -0.45000 0.35802 2.53350 0.000 0.000 0.000
v -0.45000 0.38700 2.53350 0.000 0.000 0.000
v -0.45000 0.70578 2.53350 0.000 0.000 0.000
v -0.45000 0.73476 2.53350 0.000 0.000 0.000
v -0.45000 0.24210 2.59146 0.000 0.000 0.000
v -0.45000 0.32904 2.59146 0.000 0.000 0.000
v -0.45000 0.38700 2.59146 0.000 0.000 0.000
v -0.45000 0.70578 2.59146 0.000 0.000 0.000
v -0.45000 0.76374 2.59146 0.000 0.000 0.000
v -0.45000 0.82170 2.59146 0.000 0.000 0.000
v -0.45000 0.24210 2.62044 0.000 0.000 0.000
v -0.45000 0.32904 2.62044 0.000 0.000 0.000
v -0.45000 0.76374 2.62044 0.000 0.000 0.000
v -0.45000 0.82170 2.62044 0.000 0.000 0.000
v -0.45000 0.32904 2.64942 0.000 0.000 0.000
v -0.45000 0.41598 2.64942 0.000 0.000 0.000
v -0.45000 0.67680 2.64942 0.000 0.000 0.000
v -0.45000 0.76374 2.64942 0.000 0.000 0.000
v -0.45000 0.47394 2.70738 0.000 0.000 0.000
v -0.45000 0.53190 2.70738 0.000 0.000 0.000
v -0.45000 0.56088 2.70738 0.000 0.000 0.000
v -0.45000 0.61884 2.70738 0.000 0.000 0.000
v -0.45000 0.53190 2.73636 0.000 0.000 0.000
v -0.45000 0.56088 2.73636 0.000 0.000 0.000
v -0.45000 0.70578 2.62044 0.000 0.000 0.000
v -0.45000 0.38700 2.62044 0.000 0.000 0.000
v -0.40500 -0.55782 2.38860 0.000 0.000 0.000
v -0.40500 -0.47088 2.38860 0.000 0.000 0.000
v -0.40500 -0.47088 2.44656 0.000 0.000 0.000
v -0.40500 -0.49986 2.44656 0.000 0.000 0.000
v -0.40500 -0.49986 2.47554 0.000 0.000 0.000
v -0.40500 -0.64476 2.44656 0.000 0.000 0.000
v -0.40500 -0.64476 2.47554 0.000 0.000 0.000
v -0.40500 -0.67374 2.44656 0.000 0.000 0.000
v -0.40500 -0.58680 2.38860 0.000 0.000 0.000
v -0.40500 -0.67374 2.38860 0.000 0.000 0.000
v -0.40500 -0.47088 2.53350 0.000 0.000 0.000
v -0.40500 -0.47088 2.56248 0.000 0.000 0.000
v -0.40500 -0.49986 2.56248 0.000 0.000 0.000
v -0.40500 -0.64476 2.56248 0.000 0.000 0.000
v -0.40500 -0.64476 2.53350 0.000 0.000 0.000
v -0.40500 -0.67374 2.53350 0.000 0.000 0.000
v -0.40500 -0.64476 2.50452 0.000 0.000 0.000
v -0.40500 -0.49986 2.53350 0.000 0.000 0.000
v -0.40500 -0.49986 2.50452 0.000 0.000 0.000
v -0.40500 -0.67374 2.56248 0.000 0.000 0.000
v -0.40500 -0.78966 2.62044 0.000 0.000 0.000
v -0.40500 -0.78966 2.59146 0.000 0.000 0.000
v -0.40500 -0.73170 2.62044 0.000 0.000 0.000
v -0.40500 -0.73170 2.59146 0.000 0.000 0.000
v -0.40500 -0.52884 2.64942 0.000 0.000 0.000
v -0.40500 -0.55782 2.64942 0.000 0.000 0.000
v -0.40500 -0.52884 2.62044 0.000 0.000 0.000
v -0.40500 -0.55782 2.62044 0.000 0.000 0.000
v -0.40500 -0.55782 2.59146 0.000 0.000 0.000
v -0.40500 -0.58680 2.59146 0.000 0.000 0.000
v -0.40500 -0.58680 2.62044 0.000 0.000 0.000
v -0.40500 -0.61578 2.62044 0.000 0.000 0.000
v -0.40500 -0.61578 2.64942 0.000 0.000 0.000
v -0.40500 -0.58680 2.64942 0.000 0.000 0.000
v -0.40500 -0.55782 2.67840 0.000 0.000 0.000
v -0.40500 -0.58680 2.67840 0.000 0.000 0.000
v -0.40500 -0.41292 2.62044 0.000 0.000 0.000
v -0.40500 -0.41292 2.59146 0.000 0.000 0.000
v -0.40500 -0.35496 2.62044 0.000 0.000 0.000
v -0.40500 -0.35496 2.59146 0.000 0.000 0.000
v -0.40500 -0.47088 2.62044 0.000 0.000 0.000
v -0.40500 -0.49986 2.62044 0.000 0.000 0.000
v -0.40500 -0.47088 2.56248 0.000 0.000 0.000
v -0.40500 -0.49986 2.56248 0.000 0.000 0.000
v -0.40500 -0.64476 2.56248 0.000 0.000 0.000
v -0.40500 -0.64476 2.62044 0.000 0.000 0.000
v -0.40500 -0.67374 2.56248 0.000 0.000 0.000
v -0.40500 -0.67374 2.62044 0.000 0.000 0.000
v -0.40500 -0.55782 2.38860 0.000 0.000 0.000
v -0.40500 -0.58680 2.38860 0.000 0.000 0.000
v -0.40500 -0.55782 2.70738 0.000 0.000 0.000
v -0.40500 -0.49986 2.70738 0.000 0.000 0.000
v -0.45000 -0.49986 2.70738 0.000 0.000 0.000
v -0.40500 -0.49986 2.70738 0.000 0.000 0.000
v -0.40500 -0.49986 2.67840 0.000 0.000 0.000
v -0.45000 -0.49986 2.67840 0.000 0.000 0.000
v -0.40500 -0.49986 2.67840 0.000 0.000 0.000
v -0.40500 -0.44190 2.67840 0.000 0.000 0.000
v -0.45000 -0.44190 2.67840 0.000 0.000 0.000
v -0.40500 -0.44190 2.67840 0.000 0.000 0.000
v -0.40500 -0.44190 2.64942 0.000 0.000 0.000
v -0.45000 -0.44190 2.64942 0.000 0.000 0.000
v -0.40500 -0.44190 2.64942 0.000 0.000 0.000
v -0.40500 -0.35496 2.64942 0.000 0.000 0.000
v -0.45000 -0.35496 2.64942 0.000 0.000 0.000
v -0.40500 -0.35496 2.64942 0.000 0.000 0.000
v -0.40500 -0.35496 2.62044 0.000 0.000 0.000
v -0.40500 -0.41292 2.59146 0.000 0.000 0.000
v -0.40500 -0.41292 2.53350 0.000 0.000 0.000
v -0.45000 -0.41292 2.53350 0.000 0.000 0.000
v -0.40500 -0.41292 2.53350 0.000 0.000 0.000
v -0.40500 -0.38394 2.53350 0.000 0.000 0.000
v -0.45000 -0.38394 2.53350 0.000 0.000 0.000
v -0.40500 -0.38394 2.53350 0.000 0.000 0.000
v -0.40500 -0.38394 2.50452 0.000 0.000 0.000
v -0.45000 -0.38394 2.50452 0.000 0.000 0.000
v -0.40500 -0.38394 2.50452 0.000 0.000 0.000
v -0.40500 -0.35496 2.50452 0.000 0.000 0.000
v -0.45000 -0.35496 2.50452 0.000 0.000 0.000
v -0.40500 -0.35496 2.50452 0.000 0.000 0.000
v -0.40500 -0.35496 2.47554 0.000 0.000 0.000
v -0.45000 -0.35496 2.47554 0.000 0.000 0.000
v -0.40500 -0.35496 2.47554 0.000 0.000 0.000
v -0.40500 -0.41292 2.47554 0.000 0.000 0.000
v -0.45000 -0.41292 2.47554 0.000 0.000 0.000
v -0.40500 -0.41292 2.47554 0.000 0.000 0.000
v -0.40500 -0.41292 2.41758 0.000 0.000 0.000
v -0.45000 -0.41292 2.41758 0.000 0.000 0.000
v -0.40500 -0.41292 2.41758 0.000 0.000 0.000
v -0.40500 -0.44190 2.41758 0.000 0.000 0.000
v -0.45000 -0.44190 2.41758 0.000 0.000 0.000
v -0.40500 -0.44190 2.41758 0.000 0.000 0.000
v -0.40500 -0.44190 2.38860 0.000 0.000 0.000
v -0.45000 -0.44190 2.38860 0.000 0.000 0.000
v -0.40500 -0.44190 2.38860 0.000 0.000 0.000
v -0.40500 -0.41292 2.38860 0.000 0.000 0.000
v -0.45000 -0.41292 2.38860 0.000 0.000 0.000
v -0.40500 -0.41292 2.38860 0.000 0.000 0.000
v -0.40500 -0.41292 2.35962 0.000 0.000 0.000
v -0.45000 -0.41292 2.35962 0.000 0.000 0.000
v -0.40500 -0.41292 2.35962 0.000 0.000 0.000
v -0.40500 -0.55782 2.35962 0.000 0.000 0.000
v -0.45000 -0.55782 2.35962 0.000 0.000 0.000
v -0.40500 -0.55782 2.35962 0.000 0.000 0.000
v -0.45000 -0.55782 2.38860 0.000 0.000 0.000
v -0.40500 -0.55782 2.38860 0.000 0.000 0.000
v -0.45000 -0.58680 2.38860 0.000 0.000 0.000
v -0.40500 -0.58680 2.38860 0.000 0.000 0.000
v -0.40500 -0.58680 2.35962 0.000 0.000 0.000
v -0.45000 -0.58680 2.35962 0.000 0.000 0.000
v -0.40500 -0.58680 2.35962 0.000 0.000 0.000
v -0.40500 -0.73170 2.35962 0.000 0.000 0.000
v -0.45000 -0.73170 2.35962 0.000 0.000 0.000
v -0.40500 -0.73170 2.35962 0.000 0.000 0.000
v -0.40500 -0.73170 2.38860 0.000 0.000 0.000
v -0.45000 -0.73170 2.38860 0.000 0.000 0.000
v -0.40500 -0.73170 2.38860 0.000 0.000 0.000
v -0.40500 -0.70272 2.38860 0.000 0.000 0.000
v -0.45000 -0.70272 2.38860 0.000 0.000 0.000
v -0.40500 -0.70272 2.38860 0.000 0.000 0.000
v -0.40500 -0.70272 2.41758 0.000 0.000 0.000
v -0.45000 -0.70272 2.41758 0.000 0.000 0.000
v -0.40500 -0.70272 2.41758 0.000 0.000 0.000
v -0.40500 -0.73170 2.41758 0.000 0.000 0.000
v -0.45000 -0.73170 2.41758 0.000 0.000 0.000
v -0.40500 -0.73170 2.41758 0.000 0.000 0.000
v -0.40500 -0.73170 2.47554 0.000 0.000 0.000
v -0.45000 -0.73170 2.47554 0.000 0.000 0.000
v -0.40500 -0.73170 2.47554 0.000 0.000 0.000
v -0.40500 -0.78966 2.47554 0.000 0.000 0.000
v -0.45000 -0.78966 2.47554 0.000 0.000 0.000
v -0.40500 -0.78966 2.47554 0.000 0.000 0.000
v -0.40500 -0.78966 2.50452 0.000 0.000 0.000
v -0.45000 -0.78966 2.50452 0.000 0.000 0.000
v -0.40500 -0.78966 2.50452 0.000 0.000 0.000
v -0.40500 -0.76068 2.50452 0.000 0.000 0.000
v -0.45000 -0.76068 2.50452 0.000 0.000 0.000
v -0.40500 -0.76068 2.50452 0.000 0.000 0.000
v -0.40500 -0.76068 2.53350 0.000 0.000 0.000
v -0.45000 -0.76068 2.53350 0.000 0.000 0.000
v -0.40500 -0.76068 2.53350 0.000 0.000 0.000
v -0.40500 -0.73170 2.53350 0.000 0.000 0.000
v -0.45000 -0.73170 2.53350 0.000 0.000 0.000
v -0.40500 -0.73170 2.53350 0.000 0.000 0.000
v -0.40500 -0.73170 2.59146 0.000 0.000 0.000
v -0.45000 -0.78966 2.62044 0.000 0.000 0.000
v -0.40500 -0.78966 2.62044 0.000 0.000 0.000
v -0.40500 -0.78966 2.64942 0.000 0.000 0.000
v -0.45000 -0.78966 2.64942 0.000 0.000 0.000
v -0.40500 -0.78966 2.64942 0.000 0.000 0.000
v -0.40500 -0.70272 2.64942 0.000 0.000 0.000
v -0.45000 -0.70272 2.64942 0.000 0.000 0.000
v -0.40500 -0.70272 2.64942 0.000 0.000 0.000
v -0.40500 -0.70272 2.67840 0.000 0.000 0.000
v -0.45000 -0.70272 2.67840 0.000 0.000 0.000
v -0.40500 -0.70272 2.67840 0.000 0.000 0.000
v -0.40500 -0.64476 2.67840 0.000 0.000 0.000
v -0.45000 -0.64476 2.67840 0.000 0.000 0.000
v -0.40500 -0.64476 2.67840 0.000 0.000 0.000
v -0.40500 -0.64476 2.70738 0.000 0.000 0.000
v -0.45000 -0.64476 2.70738 0.000 0.000 0.000
v -0.40500 -0.64476 2.70738 0.000 0.000 0.000
v -0.40500 -0.58680 2.70738 0.000 0.000 0.000
v -0.45000 -0.58680 2.70738 0.000 0.000 0.000
v -0.40500 -0.58680 2.70738 0.000 0.000 0.000
v -0.40500 -0.58680 2.73636 0.000 0.000 0.000
v -0.45000 -0.58680 2.73636 0.000 0.000 0.000
v -0.40500 -0.58680 2.73636 0.000 0.000 0.000
v -0.40500 -0.55782 2.73636 0.000 0.000 0.000
v -0.45000 -0.55782 2.73636 0.000 0.000 0.000
v -0.40500 -0.55782 2.73636 0.000 0.000 0.000
v -0.45000 -0.55782 2.70738 0.000 0.000 0.000
v -0.40500 -0.55782 2.70738 0.000 0.000 0.000
v -0.45000 -0.87660 2.62044 0.000 0.000 0.000
v -0.40500 -0.87660 2.62044 0.000 0.000 0.000
v -0.45000 -0.78966 2.62044 0.000 0.000 0.000
v -0.40500 -0.78966 2.62044 0.000 0.000 0.000
v -0.45000 -0.78966 2.59146 0.000 0.000 0.000
v -0.40500 -0.78966 2.59146 0.000 0.000 0.000
v -0.45000 -0.87660 2.59146 0.000 0.000 0.000
v -0.40500 -0.87660 2.59146 0.000 0.000 0.000
v -0.45000 -0.87660 2.59146 0.000 0.000 0.000
v -0.40500 -0.87660 2.59146 0.000 0.000 0.000
v -0.45000 -0.87660 2.62044 0.000 0.000 0.000
v -0.40500 -0.87660 2.62044 0.000 0.000 0.000
v -0.45000 -0.73170 2.59146 0.000 0.000 0.000
v -0.40500 -0.73170 2.59146 0.000 0.000 0.000
v -0.45000 -0.78966 2.59146 0.000 0.000 0.000
v -0.40500 -0.78966 2.59146 0.000 0.000 0.000
v -0.40500 -0.35496 2.59146 0.000 0.000 0.000
v -0.45000 -0.41292 2.59146 0.000 0.000 0.000
v -0.40500 -0.41292 2.59146 0.000 0.000 0.000
v -0.45000 -0.35496 2.62044 0.000 0.000 0.000
v -0.40500 -0.35496 2.62044 0.000 0.000 0.000
v -0.40500 -0.29700 2.62044 0.000 0.000 0.000
v -0.45000 -0.29700 2.62044 0.000 0.000 0.000
v -0.40500 -0.29700 2.62044 0.000 0.000 0.000
v -0.40500 -0.29700 2.59146 0.000 0.000 0.000
v -0.45000 -0.29700 2.59146 0.000 0.000 0.000
v -0.40500 -0.29700 2.59146 0.000 0.000 0.000
v -0.45000 -0.35496 2.59146 0.000 0.000 0.000
v -0.40500 -0.35496 2.59146 0.000 0.000 0.000
v -0.45000 -0.35496 2.62044 0.000 0.000 0.000
v -0.45000 -0.35496 2.64942 0.000 0.000 0.000
v -0.45000 -0.44190 2.64942 0.000 0.000 0.000
v -0.45000 -0.44190 2.67840 0.000 0.000 0.000
v -0.45000 -0.49986 2.67840 0.000 0.000 0.000
v -0.45000 -0.49986 2.70738 0.000 0.000 0.000
v -0.45000 -0.55782 2.70738 0.000 0.000 0.000
v -0.45000 -0.55782 2.73636 0.000 0.000 0.000
v -0.45000 -0.58680 2.73636 0.000 0.000 0.000
v -0.45000 -0.58680 2.70738 0.000 0.000 0.000
v -0.45000 -0.64476 2.70738 0.000 0.000 0.000
v -0.45000 -0.64476 2.67840 0.000 0.000 0.000
v -0.45000 -0.70272 2.67840 0.000 0.000 0.000
v -0.45000 -0.70272 2.64942 0.000 0.000 0.000
v -0.45000 -0.78966 2.64942 0.000 0.000 0.000
v -0.45000 -0.29700 2.62044 0.000 0.000 0.000
v -0.45000 -0.35496 2.59146 0.000 0.000 0.000
v -0.45000 -0.29700 2.59146 0.000 0.000 0.000
v -0.45000 -0.41292 2.59146 0.000 0.000 0.000
v -0.45000 -0.73170 2.59146 0.000 0.000 0.000
v -0.45000 -0.41292 2.53350 0.000 0.000 0.000
v -0.45000 -0.73170 2.53350 0.000 0.000 0.000
v -0.45000 -0.76068 2.53350 0.000 0.000 0.000
v -0.45000 -0.76068 2.50452 0.000 0.000 0.000
v -0.45000 -0.78966 2.50452 0.000 0.000 0.000
v -0.45000 -0.78966 2.47554 0.000 0.000 0.000
v -0.45000 -0.73170 2.47554 0.000 0.000 0.000
v -0.45000 -0.73170 2.41758 0.000 0.000 0.000
v -0.45000 -0.70272 2.41758 0.000 0.000 0.000
v -0.45000 -0.73170 2.38860 0.000 0.000 0.000
v -0.45000 -0.70272 2.38860 0.000 0.000 0.000
v -0.45000 -0.73170 2.35962 0.000 0.000 0.000
v -0.45000 -0.58680 2.35962 0.000 0.000 0.000
v -0.45000 -0.58680 2.38860 0.000 0.000 0.000
v -0.45000 -0.55782 2.38860 0.000 0.000 0.000
v -0.45000 -0.55782 2.35962 0.000 0.000 0.000
v -0.45000 -0.41292 2.35962 0.000 0.000 0.000
v -0.45000 -0.41292 2.38860 0.000 0.000 0.000
v -0.45000 -0.44190 2.38860 0.000 0.000 0.000
v -0.45000 -0.44190 2.41758 0.000 0.000 0.000
v -0.45000 -0.41292 2.41758 0.000 0.000 0.000
v -0.45000 -0.41292 2.47554 0.000 0.000 0.000
v -0.45000 -0.35496 2.47554 0.000 0.000 0.000
v -0.45000 -0.35496 2.50452 0.000 0.000 0.000
v -0.45000 -0.38394 2.50452 0.000 0.000 0.000
v -0.45000 -0.38394 2.53350 0.000 0.000 0.000
v -0.45000 -0.78966 2.62044 0.000 0.000 0.000
v -0.45000 -0.73170 2.62044 0.000 0.000 0.000
v -0.45000 -0.78966 2.59146 0.000 0.000 0.000
v -0.45000 -0.73170 2.59146 0.000 0.000 0.000
v -0.45000 -0.41292 2.62044 0.000 0.000 0.000
v -0.45000 -0.35496 2.62044 0.000 0.000 0.000
v -0.45000 -0.41292 2.59146 0.000 0.000 0.000
v -0.45000 -0.35496 2.59146 0.000 0.000 0.000
v -0.40500 0.56088 2.38860 0.000 0.000 0.000
v -0.40500 0.64782 2.38860 0.000 0.000 0.000
v -0.40500 0.64782 2.44656 0.000 0.000 0.000
v -0.40500 0.61884 2.44656 0.000 0.000 0.000
v -0.40500 0.61884 2.47554 0.000 0.000 0.000
v -0.40500 0.47394 2.44656 0.000 0.000 0.000
v -0.40500 0.47394 2.47554 0.000 0.000 0.000
v -0.40500 0.44496 2.44656 0.000 0.000 0.000
v -0.40500 0.53190 2.38860 0.000 0.000 0.000
v -0.40500 0.44496 2.38860 0.000 0.000 0.000
v -0.40500 0.64782 2.53350 0.000 0.000 0.000
v -0.40500 0.64782 2.56248 0.000 0.000 0.000
v -0.40500 0.61884 2.56248 0.000 0.000 0.000
v -0.40500 0.47394 2.56248 0.000 0.000 0.000
v -0.40500 0.47394 2.53350 0.000 0.000 0.000
v -0.40500 0.44496 2.53350 0.000 0.000 0.000
v -0.40500 0.47394 2.50452 0.000 0.000 0.000
v -0.40500 0.61884 2.53350 0.000 0.000 0.000
v -0.40500 0.61884 2.50452 0.000 0.000 0.000
v -0.40500 0.44496 2.56248 0.000 0.000 0.000
v -0.40500 0.32904 2.62044 0.000 0.000 0.000
v -0.40500 0.32904 2.59146 0.000 0.000 0.000
v -0.40500 0.38700 2.62044 0.000 0.000 0.000
v -0.40500 0.38700 2.59146 0.000 0.000 0.000
v -0.40500 0.58986 2.64942 0.000 0.000 0.000
v -0.40500 0.56088 2.64942 0.000 0.000 0.000
v -0.40500 0.58986 2.62044 0.000 0.000 0.000
v -0.40500 0.56088 2.62044 0.000 0.000 0.000
v -0.40500 0.56088 2.59146 0.000 0.000 0.000
v -0.40500 0.53190 2.59146 0.000 0.000 0.000
v -0.40500 0.53190 2.62044 0.000 0.000 0.000
v -0.40500 0.50292 2.62044 0.000 0.000 0.000
v -0.40500 0.50292 2.64942 0.000 0.000 0.000
v -0.40500 0.53190 2.64942 0.000 0.000 0.000
v -0.40500 0.56088 2.67840 0.000 0.000 0.000
v -0.40500 0.53190 2.67840 0.000 0.000 0.000
v -0.40500 0.70578 2.62044 0.000 0.000 0.000
v -0.40500 0.70578 2.59146 0.000 0.000 0.000
v -0.40500 0.76374 2.62044 0.000 0.000 0.000
v -0.40500 0.76374 2.59146 0.000 0.000 0.000
v -0.40500 0.64782 2.62044 0.000 0.000 0.000
v -0.40500 0.61884 2.62044 0.000 0.000 0.000
v -0.40500 0.64782 2.56248 0.000 0.000 0.000
v -0.40500 0.61884 2.56248 0.000 0.000 0.000
v -0.40500 0.47394 2.56248 0.000 0.000 0.000
v -0.40500 0.47394 2.62044 0.000 0.000 0.000
v -0.40500 0.44496 2.56248 0.000 0.000 0.000
v -0.40500 0.44496 2.62044 0.000 0.000 0.000
v -0.40500 0.56088 2.38860 0.000 0.000 0.000
v -0.40500 0.53190 2.38860 0.000 0.000 0.000
v -0.40500 0.56088 2.70738 0.000 0.000 0.000
v -0.40500 0.61884 2.70738 0.000 0.000 0.000
v -0.45000 0.61884 2.70738 0.000 0.000 0.000
v -0.40500 0.61884 2.70738 0.000 0.000 0.000
v -0.40500 0.61884 2.67840 0.000 0.000 0.000
v -0.45000 0.61884 2.67840 0.000 0.000 0.000
v -0.40500 0.61884 2.67840 0.000 0.000 0.000
v -0.40500 0.67680 2.67840 0.000 0.000 0.000
v -0.45000 0.67680 2.67840 0.000 0.000 0.000
v -0.40500 0.67680 2.67840 0.000 0.000 0.000
v -0.40500 0.67680 2.64942 0.000 0.000 0.000
v -0.45000 0.67680 2.64942 0.000 0.000 0.000
v -0.40500 0.67680 2.64942 0.000 0.000 0.000
v -0.40500 0.76374 2.64942 0.000 0.000 0.000
v -0.45000 0.76374 2.64942 0.000 0.000 0.000
v -0.40500 0.76374 2.64942 0.000 0.000 0.000
v -0.40500 0.76374 2.62044 0.000 0.000 0.000
v -0.40500 0.70578 2.59146 0.000 0.000 0.000
v -0.40500 0.70578 2.53350 0.000 0.000 0.000
v -0.45000 0.70578 2.53350 0.000 0.000 0.000
v -0.40500 0.70578 2.53350 0.000 0.000 0.000
v -0.40500 0.73476 2.53350 0.000 0.000 0.000
v -0.45000 0.73476 2.53350 0.000 0.000 0.000
v -0.40500 0.73476 2.53350 0.000 0.000 0.000
v -0.40500 0.73476 2.50452 0.000 0.000 0.000
v -0.45000 0.73476 2.50452 0.000 0.000 0.000
v -0.40500 0.73476 2.50452 0.000 0.000 0.000
v -0.40500 0.76374 2.50452 0.000 0.000 0.000
v -0.45000 0.76374 2.50452 0.000 0.000 0.000
v -0.40500 0.76374 2.50452 0.000 0.000 0.000
v -0.40500 0.76374 2.47554 0.000 0.000 0.000
v -0.45000 0.76374 2.47554 0.000 0.000 0.000
v -0.40500 0.76374 2.47554 0.000 0.000 0.000
v -0.40500 0.70578 2.47554 0.000 0.000 0.000
v -0.45000 0.70578 2.47554 0.000 0.000 0.000
v -0.40500 0.70578 2.47554 0.000 0.000 0.000
v -0.40500 0.70578 2.41758 0.000 0.000 0.000
v -0.45000 0.70578 2.41758 0.000 0.000 0.000
v -0.40500 0.70578 2.41758 0.000 0.000 0.000
v -0.40500 0.67680 2.41758 0.000 0.000 0.000
v -0.45000 0.67680 2.41758 0.000 0.000 0.000
v -0.40500 0.67680 2.41758 0.000 0.000 0.000
v -0.40500 0.67680 2.38860 0.000 0.000 0.000
v -0.45000 0.67680 2.38860 0.000 0.000 0.000
v -0.40500 0.67680 2.38860 0.000 0.000 0.000
v -0.40500 0.70578 2.38860 0.000 0.000 0.000
v -0.45000 0.70578 2.38860 0.000 0.000 0.000
v -0.40500 0.70578 2.38860 0.000 0.000 0.000
v -0.40500 0.70578 2.35962 0.000 0.000 0.000
v -0.45000 0.70578 2.35962 0.000 0.000 0.000
v -0.40500 0.70578 2.35962 0.000 0.000 0.000
v -0.40500 0.56088 2.35962 0.000 0.000 0.000
v -0.45000 0.56088 2.35962 0.000 0.000 0.000
v -0.40500 0.56088 2.35962 0.000 0.000 0.000
v -0.45000 0.56088 2.38860 0.000 0.000 0.000
v -0.40500 0.56088 2.38860 0.000 0.000 0.000
v -0.45000 0.53190 2.38860 0.000 0.000 0.000
v -0.40500 0.53190 2.38860 0.000 0.000 0.000
v -0.40500 0.53190 2.35962 0.000 0.000 0.000
v -0.45000 0.53190 2.35962 0.000 0.000 0.000
v -0.40500 0.53190 2.35962 0.000 0.000 0.000
v -0.40500 0.38700 2.35962 0.000 0.000 0.000
v -0.45000 0.38700 2.35962 0.000 0.000 0.000
v -0.40500 0.38700 2.35962 0.000 0.000 0.000
v -0.40500 0.38700 2.38860 0.000 0.000 0.000
v -0.45000 0.38700 2.38860 0.000 0.000 0.000
v -0.40500 0.38700 2.38860 0.000 0.000 0.000
v -0.40500 0.41598 2.38860 0.000 0.000 0.000
v -0.45000 0.41598 2.38860 0.000 0.000 0.000
v -0.40500 0.41598 2.38860 0.000 0.000 0.000
v -0.40500 0.41598 2.41758 0.000 0.000 0.000
v -0.45000 0.41598 2.41758 0.000 0.000 0.000
v -0.40500 0.41598 2.41758 0.000 0.000 0.000
v -0.40500 0.38700 2.41758 0.000 0.000 0.000
v -0.45000 0.38700 2.41758 0.000 0.000 0.000
v -0.40500 0.38700 2.41758 0.000 0.000 0.000
v -0.40500 0.38700 2.47554 0.000 0.000 0.000
v -0.45000 0.38700 2.47554 0.000 0.000 0.000
v -0.40500 0.38700 2.47554 0.000 0.000 0.000
v -0.40500 0.32904 2.47554 0.000 0.000 0.000
v -0.45000 0.32904 2.47554 0.000 0.000 0.000
v -0.40500 0.32904 2.47554 0.000 0.000 0.000
v -0.40500 0.32904 2.50452 0.000 0.000 0.000
v -0.45000 0.32904 2.50452 0.000 0.000 0.000
v -0.40500 0.32904 2.50452 0.000 0.000 0.000
v -0.40500 0.35802 2.50452 0.000 0.000 0.000
v -0.45000 0.35802 2.50452 0.000 0.000 0.000
v -0.40500 0.35802 2.50452 0.000 0.000 0.000
v -0.40500 0.35802 2.53350 0.000 0.000 0.000
v -0.45000 0.35802 2.53350 0.000 0.000 0.000
v -0.40500 0.35802 2.53350 0.000 0.000 0.000
v -0.40500 0.38700 2.53350 0.000 0.000 0.000
v -0.45000 0.38700 2.53350 0.000 0.000 0.000
v -0.40500 0.38700 2.53350 0.000 0.000 0.000
v -0.40500 0.38700 2.59146 0.000 0.000 0.000
v -0.45000 0.32904 2.62044 0.000 0.000 0.000
v -0.40500 0.32904 2.62044 0.000 0.000 0.000
v -0.40500 0.32904 2.64942 0.000 0.000 0.000
v -0.45000 0.32904 2.64942 0.000 0.000 0.000
v -0.40500 0.32904 2.64942 0.000 0.000 0.000
v -0.40500 0.41598 2.64942 0.000 0.000 0.000
v -0.45000 0.41598 2.64942 0.000 0.000 0.000
v -0.40500 0.41598 2.64942 0.000 0.000 0.000
v -0.40500 0.41598 2.67840 0.000 0.000 0.000
v -0.45000 0.41598 2.67840 0.000 0.000 0.000
v -0.40500 0.41598 2.67840 0.000 0.000 0.000
v -0.40500 0.47394 2.67840 0.000 0.000 0.000
v -0.45000 0.47394 2.67840 0.000 0.000 0.000
v -0.40500 0.47394 2.67840 0.000 0.000 0.000
v -0.40500 0.47394 2.70738 0.000 0.000 0.000
v -0.45000 0.47394 2.70738 0.000 0.000 0.000
v -0.40500 0.47394 2.70738 0.000 0.000 0.000
v -0.40500 0.53190 2.70738 0.000 0.000 0.000
v -0.45000 0.53190 2.70738 0.000 0.000 0.000
v -0.40500 0.53190 2.70738 0.000 0.000 0.000
v -0.40500 0.53190 2.73636 0.000 0.000 0.000
v -0.45000 0.53190 2.73636 0.000 0.000 0.000
v -0.40500 0.53190 2.73636 0.000 0.000 0.000
v -0.40500 0.56088 2.73636 0.000 0.000 0.000
v -0.45000 0.56088 2.73636 0.000 0.000 0.000
v -0.40500 0.56088 2.73636 0.000 0.000 0.000
v -0.45000 0.56088 2.70738 0.000 0.000 0.000
v -0.40500 0.56088 2.70738 0.000 0.000 0.000
v -0.45000 0.24210 2.62044 0.000 0.000 0.000
v -0.40500 0.24210 2.62044 0.000 0.000 0.000
v -0.45000 0.32904 2.62044 0.000 0.000 0.000
v -0.40500 0.32904 2.62044 0.000 0.000 0.000
v -0.45000 0.32904 2.59146 0.000 0.000 0.000
v -0.40500 0.32904 2.59146 0.000 0.000 0.000
v -0.45000 0.24210 2.59146 0.000 0.000 0.000
v -0.40500 0.24210 2.59146 0.000 0.000 0.000
v -0.45000 0.24210 2.59146 0.000 0.000 0.000
v -0.40500 0.24210 2.59146 0.000 0.000 0.000
v -0.45000 0.24210 2.62044 0.000 0.000 0.000
v -0.40500 0.24210 2.62044 0.000 0.000 0.000
v -0.45000 0.38700 2.59146 0.000 0.000 0.000
v -0.40500 0.38700 2.59146 0.000 0.000 0.000
v -0.45000 0.32904 2.59146 0.000 0.000 0.000
v -0.40500 0.32904 2.59146 0.000 0.000 0.000
v -0.40500 0.76374 2.59146 0.000 0.000 0.000
v -0.45000 0.70578 2.59146 0.000 0.000 0.000
v -0.40500 0.70578 2.59146 0.000 0.000 0.000
v -0.45000 0.76374 2.62044 0.000 0.000 0.000
v -0.40500 0.76374 2.62044 0.000 0.000 0.000
v -0.40500 0.82170 2.62044 0.000 0.000 0.000
v -0.45000 0.82170 2.62044 0.000 0.000 0.000
v -0.40500 0.82170 2.62044 0.000 0.000 0.000
v -0.40500 0.82170 2.59146 0.000 0.000 0.000
v -0.45000 0.82170 2.59146 0.000 0.000 0.000
v -0.40500 0.82170 2.59146 0.000 0.000 0.000
v -0.45000 0.76374 2.59146 0.000 0.000 0.000
v -0.40500 0.76374 2.59146 0.000 0.000 0.000
v -0.45000 0.76374 2.62044 0.000 0.000 0.000
v -0.45000 0.76374 2.64942 0.000 0.000 0.000
v -0.45000 0.67680 2.64942 0.000 0.000 0.000
v -0.45000 0.67680 2.67840 0.000 0.000 0.000
v -0.45000 0.61884 2.67840 0.000 0.000 0.000
v -0.45000 0.61884 2.70738 0.000 0.000 0.000
v -0.45000 0.56088 2.70738 0.000 0.000 0.000
v -0.45000 0.56088 2.73636 0.000 0.000 0.000
v -0.45000 0.53190 2.73636 0.000 0.000 0.000
v -0.45000 0.53190 2.70738 0.000 0.000 0.000
v -0.45000 0.47394 2.70738 0.000 0.000 0.000
v -0.45000 0.47394 2.67840 0.000 0.000 0.000
v -0.45000 0.41598 2.67840 0.000 0.000 0.000
v -0.45000 0.41598 2.64942 0.000 0.000 0.000
v -0.45000 0.32904 2.64942 0.000 0.000 0.000
v -0.45000 0.82170 2.62044 0.000 0.000 0.000
v -0.45000 0.76374 2.59146 0.000 0.000 0.000
v -0.45000 0.82170 2.59146 0.000 0.000 0.000
v -0.45000 0.70578 2.59146 0.000 0.000 0.000
v -0.45000 0.38700 2.59146 0.000 0.000 0.000
v -0.45000 0.70578 2.53350 0.000 0.000 0.000
v -0.45000 0.38700 2.53350 0.000 0.000 0.000
v -0.45000 0.35802 2.53350 0.000 0.000 0.000
v -0.45000 0.35802 2.50452 0.000 0.000 0.000
v -0.45000 0.32904 2.50452 0.000 0.000 0.000
v -0.45000 0.32904 2.47554 0.000 0.000 0.000
v -0.45000 0.38700 2.47554 0.000 0.000 0.000
v -0.45000 0.38700 2.41758 0.000 0.000 0.000
v -0.45000 0.41598 2.41758 0.000 0.000 0.000
v -0.45000 0.38700 2.38860 0.000 0.000 0.000
v -0.45000 0.41598 2.38860 0.000 0.000 0.000
v -0.45000 0.38700 2.35962 0.000 0.000 0.000
v -0.45000 0.53190 2.35962 0.000 0.000 0.000
v -0.45000 0.53190 2.38860 0.000 0.000 0.000
v -0.45000 0.56088 2.38860 0.000 0.000 0.000
v -0.45000 0.56088 2.35962 0.000 0.000 0.000
v -0.45000 0.70578 2.35962 0.000 0.000 0.000
v -0.45000 0.70578 2.38860 0.000 0.000 0.000
v -0.45000 0.67680 2.38860 0.000 0.000 0.000
v -0.45000 0.67680 2.41758 0.000 0.000 0.000
v -0.45000 0.70578 2.41758 0.000 0.000 0.000
v -0.45000 0.70578 2.47554 0.000 0.000 0.000
v -0.45000 0.76374 2.47554 0.000 0.000 0.000
v -0.45000 0.76374 2.50452 0.000 0.000 0.000
v -0.45000 0.73476 2.50452 0.000 0.000 0.000
v -0.45000 0.73476 2.53350 0.000 0.000 0.000
v -0.45000 0.32904 2.62044 0.000 0.000 0.000
v -0.45000 0.38700 2.62044 0.000 0.000 0.000
v -0.45000 0.32904 2.59146 0.000 0.000 0.000
v -0.45000 0.38700 2.59146 0.000 0.000 0.000
v -0.45000 0.70578 2.62044 0.000 0.000 0.000
v -0.45000 0.76374 2.62044 0.000 0.000 0.000
v -0.45000 0.70578 2.59146 0.000 0.000 0.000
v -0.45000 0.76374 2.59146 0.000 0.000 0.000
vt 0.32031 0.58594
vt 0.32031 0.92969
vt 0.13281 0.58594
vt 0.16406 0.92969
vt 0.22656 0.92969
vt 0.28906 0.58594
vt 0.28906 0.92969
vt 0.38281 0.92969
vt 0.44531 0.92969
vt 0.47656 0.58594
vt 0.47656 0.61719
vt 0.44531 0.61719
vt 0.78906 0.00781
vt 0.69531 0.00781
vt 0.66406 0.00781
vt 0.57031 0.00781
vt 0.16406 0.61719
vt 0.13281 0.61719
vt 0.47656 0.64844
vt 0.44531 0.64844
vt 0.16406 0.64844
vt 0.13281 0.64844
vt 0.78906 0.07031
vt 0.75781 0.07031
vt 0.60156 0.07031
vt 0.57031 0.07031
vt 0.53906 0.71094
vt 0.47656 0.71094
vt 0.75781 0.10156
vt 0.60156 0.10156
vt 0.13281 0.71094
vt 0.07031 0.71094
vt 0.53906 0.74219
vt 0.50781 0.74219
vt 0.75781 0.13281
vt 0.60156 0.13281
vt 0.10156 0.74219
vt 0.07031 0.74219
vt 0.50781 0.77344
vt 0.47656 0.77344
vt 0.78906 0.16406
vt 0.75781 0.16406
vt 0.60156 0.16406
vt 0.57031 0.16406
vt 0.13281 0.77344
vt 0.10156 0.77344
vt 0.78906 0.19531
vt 0.75781 0.19531
vt 0.60156 0.19531
vt 0.57031 0.19531
vt 0.63281 0.83594
vt 0.53906 0.83594
vt 0.47656 0.83594
vt 0.32031 0.83594
vt 0.28906 0.83594
vt 0.13281 0.83594
vt 0.07031 0.03906
vt 0.00781 0.83594
vt 0.63281 0.86719
vt 0.53906 0.86719
vt 0.47656 0.86719
vt 0.41406 0.86719
vt 0.38281 0.86719
vt 0.35156 0.86719
vt 0.32031 0.86719
vt 0.28906 0.86719
vt 0.25781 0.86719
vt 0.22656 0.86719
vt 0.19531 0.86719
vt 0.13281 0.86719
vt 0.07031 0.86719
vt 0.00781 0.86719
vt 0.53906 0.89844
vt 0.44531 0.89844
vt 0.35156 0.89844
vt 0.32031 0.89844
vt 0.28906 0.89844
vt 0.25781 0.89844
vt 0.16406 0.89844
vt 0.07031 0.89844
vt 0.38281 0.96094
vt 0.32031 0.96094
vt 0.28906 0.96094
vt 0.22656 0.96094
vt 0.32031 0.99219
vt 0.28906 0.99219
vt 0.99219 0.30469
vt 0.99219 0.25781
vt 0.99219 0.58594
vt 0.99219 0.38281
vt 0.99219 0.99219
vt 0.99219 0.69531
vt 0.99219 0.30469
vt 0.99219 0.80469
vt 0.99219 0.28906
vt 0.99219 0.64844
vt 0.99219 0.53906
vt 0.99219 0.57031
vt 0.99219 0.39844
vt 0.99219 0.58594
vt 0.99219 0.71094
vt 0.99219 0.47656
vt 0.99219 0.78906
vt 0.99219 0.30469
vt 0.99219 0.71094
vt 0.99219 0.38281
vt 0.99219 0.78906
vt 0.99219 0.25781
vt 0.99219 0.28906
vt 0.99219 0.64844
vt 0.99219 0.38281
vt 0.99219 0.58594
vt 0.99219 0.30469
vt 0.99219 0.64844
vt 0.99219 0.39844
vt 0.99219 0.58594
vt 0.63281 0.41406
vt 0.53906 0.41406
vt 0.99219 0.47656
vt 0.99219 0.47656
vt 0.99219 0.16406
vt 0.99219 0.25781
vt 0.63281 0.44531
vt 0.53906 0.44531
vt 0.99219 0.38281
vt 0.99219 0.58594
vt 0.99219 0.30469
vt 0.99219 0.69531
vt 0.99219 0.38281
vt 0.99219 0.58594
vt 0.99219 0.30469
vt 0.99219 0.69531
vt 0.99219 0.69531
vt 0.99219 0.58594
vt 0.99219 0.30469
vt 0.99219 0.52344
vt 0.13281 0.44531
vt 0.47656 0.44531
vt 0.32031 0.58594
vt 0.32031 0.92969
vt 0.13281 0.58594
vt 0.16406 0.92969
vt 0.22656 0.92969
vt 0.28906 0.58594
vt 0.28906 0.92969
vt 0.38281 0.92969
vt 0.44531 0.92969
vt 0.47656 0.58594
vt 0.47656 0.61719
vt 0.44531 0.61719
vt 0.78906 0.00781
vt 0.69531 0.00781
vt 0.66406 0.00781
vt 0.57031 0.00781
vt 0.16406 0.61719
vt 0.13281 0.61719
vt 0.47656 0.64844
vt 0.44531 0.64844
vt 0.16406 0.64844
vt 0.13281 0.64844
vt 0.78906 0.07031
vt 0.75781 0.07031
vt 0.60156 0.07031
vt 0.57031 0.07031
vt 0.53906 0.71094
vt 0.47656 0.71094
vt 0.75781 0.10156
vt 0.60156 0.10156
vt 0.13281 0.71094
vt 0.07031 0.71094
vt 0.53906 0.74219
vt 0.50781 0.74219
vt 0.75781 0.13281
vt 0.60156 0.13281
vt 0.10156 0.74219
vt 0.07031 0.74219
vt 0.50781 0.77344
vt 0.47656 0.77344
vt 0.78906 0.16406
vt 0.75781 0.16406
vt 0.60156 0.16406
vt 0.57031 0.16406
vt 0.13281 0.77344
vt 0.10156 0.77344
vt 0.78906 0.19531
vt 0.75781 0.19531
vt 0.60156 0.19531
vt 0.57031 0.19531
vt 0.63281 0.83594
vt 0.53906 0.83594
vt 0.47656 0.83594
vt 0.32031 0.83594
vt 0.28906 0.83594
vt 0.13281 0.83594
vt 0.07031 0.03906
vt 0.00781 0.83594
vt 0.63281 0.86719
vt 0.53906 0.86719
vt 0.47656 0.86719
vt 0.41406 0.86719
vt 0.38281 0.86719
vt 0.35156 0.86719
vt 0.32031 0.86719
vt 0.28906 0.86719
vt 0.25781 0.86719
vt 0.22656 0.86719
vt 0.19531 0.86719
vt 0.13281 0.86719
vt 0.07031 0.86719
vt 0.00781 0.86719
vt 0.53906 0.89844
vt 0.44531 0.89844
vt 0.35156 0.89844
vt 0.32031 0.89844
vt 0.28906 0.89844
vt 0.25781 0.89844
vt 0.16406 0.89844
vt 0.07031 0.89844
vt 0.38281 0.96094
vt 0.32031 0.96094
vt 0.28906 0.96094
vt 0.22656 0.96094
vt 0.32031 0.99219
vt 0.28906 0.99219
vt 0.99219 0.30469
vt 0.99219 0.25781
vt 0.99219 0.58594
vt 0.99219 0.38281
vt 0.99219 0.99219
vt 0.99219 0.69531
vt 0.99219 0.30469
vt 0.99219 0.80469
vt 0.99219 0.28906
vt 0.99219 0.64844
vt 0.99219 0.53906
vt 0.99219 0.57031
vt 0.99219 0.39844
vt 0.99219 0.58594
vt 0.99219 0.71094
vt 0.99219 0.47656
vt 0.99219 0.78906
vt 0.99219 0.30469
vt 0.99219 0.71094
vt 0.99219 0.38281
vt 0.99219 0.78906
vt 0.99219 0.25781
vt 0.99219 0.28906
vt 0.99219 0.64844
vt 0.99219 0.38281
vt 0.99219 0.58594
vt 0.99219 0.30469
vt 0.99219 0.64844
vt 0.99219 0.39844
vt 0.99219 0.58594
vt 0.63281 0.41406
vt 0.53906 0.41406
vt 0.99219 0.47656
vt 0.99219 0.47656
vt 0.99219 0.16406
vt 0.99219 0.25781
vt 0.63281 0.44531
vt 0.53906 0.44531
vt 0.99219 0.38281
vt 0.99219 0.58594
vt 0.99219 0.30469
vt 0.99219 0.69531
vt 0.99219 0.38281
vt 0.99219 0.58594
vt 0.99219 0.30469
vt 0.99219 0.69531
vt 0.99219 0.69531
vt 0.99219 0.58594
vt 0.99219 0.30469
vt 0.99219 0.52344
vt 0.13281 0.44531
vt 0.47656 0.44531
vt 0.28906 0.61719
vt 0.19531 0.61719
vt 0.19531 0.67969
vt 0.22656 0.67969
vt 0.22656 0.71094
vt 0.38281 0.67969
vt 0.38281 0.71094
vt 0.41406 0.67969
vt 0.32031 0.61719
vt 0.41406 0.61719
vt 0.19531 0.77344
vt 0.19531 0.80469
vt 0.22656 0.80469
vt 0.38281 0.80469
vt 0.38281 0.77344
vt 0.41406 0.77344
vt 0.38281 0.74219
vt 0.22656 0.77344
vt 0.22656 0.74219
vt 0.41406 0.80469
vt 0.53906 0.07031
vt 0.53906 0.03906
vt 0.47656 0.07031
vt 0.47656 0.03906
vt 0.25781 0.10156
vt 0.28906 0.10156
vt 0.25781 0.07031
vt 0.28906 0.07031
vt 0.28906 0.03906
vt 0.32031 0.03906
vt 0.32031 0.07031
vt 0.35156 0.07031
vt 0.35156 0.10156
vt 0.32031 0.10156
vt 0.28906 0.13281
vt 0.32031 0.13281
vt 0.13281 0.07031
vt 0.13281 0.03906
vt 0.07031 0.07031
vt 0.07031 0.83594
vt 0.19531 0.07031
vt 0.22656 0.07031
vt 0.19531 0.00781
vt 0.22656 0.00781
vt 0.38281 0.00781
vt 0.38281 0.07031
vt 0.41406 0.00781
vt 0.41406 0.07031
vt 0.92969 0.57031
vt 0.92969 0.53906
vt 0.92969 0.69531
vt 0.92969 0.58594
vt 0.99219 0.30469
vt 0.92969 0.30469
vt 0.92969 0.38281
vt 0.99219 0.69531
vt 0.92969 0.69531
vt 0.92969 0.58594
vt 0.99219 0.30469
vt 0.92969 0.30469
vt 0.92969 0.38281
vt 0.99219 0.69531
vt 0.92969 0.69531
vt 0.92969 0.58594
vt 0.99219 0.30469
vt 0.92969 0.30469
vt 0.92969 0.38281
vt 0.92969 0.47656
vt 0.92969 0.39844
vt 0.99219 0.64844
vt 0.92969 0.64844
vt 0.92969 0.58594
vt 0.99219 0.30469
vt 0.92969 0.30469
vt 0.92969 0.38281
vt 0.99219 0.64844
vt 0.92969 0.64844
vt 0.92969 0.58594
vt 0.99219 0.28906
vt 0.92969 0.28906
vt 0.92969 0.25781
vt 0.99219 0.71094
vt 0.92969 0.71094
vt 0.92969 0.78906
vt 0.99219 0.38281
vt 0.92969 0.38281
vt 0.92969 0.30469
vt 0.99219 0.71094
vt 0.92969 0.71094
vt 0.92969 0.78906
vt 0.99219 0.47656
vt 0.92969 0.47656
vt 0.92969 0.39844
vt 0.99219 0.64844
vt 0.92969 0.64844
vt 0.92969 0.58594
vt 0.99219 0.28906
vt 0.92969 0.28906
vt 0.92969 0.25781
vt 0.99219 0.80469
vt 0.92969 0.80469
vt 0.92969 0.99219
vt 0.99219 0.30469
vt 0.92969 0.30469
vt 0.99219 0.38281
vt 0.92969 0.38281
vt 0.99219 0.38281
vt 0.92969 0.38281
vt 0.92969 0.30469
vt 0.99219 0.99219
vt 0.92969 0.99219
vt 0.92969 0.80469
vt 0.99219 0.25781
vt 0.92969 0.25781
vt 0.92969 0.28906
vt 0.99219 0.58594
vt 0.92969 0.58594
vt 0.92969 0.64844
vt 0.99219 0.39844
vt 0.92969 0.39844
vt 0.92969 0.47656
vt 0.99219 0.78906
vt 0.92969 0.78906
vt 0.92969 0.71094
vt 0.99219 0.30469
vt 0.92969 0.30469
vt 0.92969 0.38281
vt 0.99219 0.78906
vt 0.92969 0.78906
vt 0.92969 0.71094
vt 0.99219 0.25781
vt 0.92969 0.25781
vt 0.92969 0.28906
vt 0.99219 0.58594
vt 0.92969 0.58594
vt 0.92969 0.64844
vt 0.99219 0.38281
vt 0.92969 0.38281
vt 0.92969 0.30469
vt 0.99219 0.58594
vt 0.92969 0.58594
vt 0.92969 0.64844
vt 0.99219 0.39844
vt 0.92969 0.39844
vt 0.92969 0.47656
vt 0.99219 0.38281
vt 0.92969 0.38281
vt 0.92969 0.30469
vt 0.99219 0.58594
vt 0.92969 0.58594
vt 0.92969 0.69531
vt 0.99219 0.38281
vt 0.92969 0.38281
vt 0.92969 0.30469
vt 0.99219 0.58594
vt 0.92969 0.58594
vt 0.92969 0.69531
vt 0.99219 0.38281
vt 0.92969 0.38281
vt 0.92969 0.30469
vt 0.99219 0.58594
vt 0.92969 0.58594
vt 0.92969 0.69531
vt 0.99219 0.38281
vt 0.92969 0.38281
vt 0.92969 0.30469
vt 0.99219 0.49219
vt 0.92969 0.49219
vt 0.92969 0.52344
vt 0.99219 0.30469
vt 0.92969 0.30469
vt 0.99219 0.38281
vt 0.92969 0.38281
vt 0.99219 0.58594
vt 0.92969 0.58594
vt 0.99219 0.69531
vt 0.92969 0.69531
vt 0.99219 0.91406
vt 0.92969 0.91406
vt 0.99219 0.80469
vt 0.92969 0.80469
vt 0.99219 0.25781
vt 0.92969 0.25781
vt 0.99219 0.28906
vt 0.92969 0.28906
vt 0.99219 0.24219
vt 0.92969 0.24219
vt 0.99219 0.16406
vt 0.92969 0.16406
vt 0.92969 0.16406
vt 0.99219 0.24219
vt 0.92969 0.24219
vt 0.99219 0.69531
vt 0.92969 0.69531
vt 0.92969 0.58594
vt 0.99219 0.28906
vt 0.92969 0.28906
vt 0.92969 0.25781
vt 0.99219 0.80469
vt 0.92969 0.80469
vt 0.99219 0.88281
vt 0.92969 0.88281
vt 0.07031 0.44531
vt 0.07031 0.47656
vt 0.16406 0.47656
vt 0.16406 0.50781
vt 0.22656 0.50781
vt 0.22656 0.53906
vt 0.28906 0.53906
vt 0.28906 0.57031
vt 0.32031 0.57031
vt 0.32031 0.53906
vt 0.38281 0.53906
vt 0.38281 0.50781
vt 0.44531 0.50781
vt 0.44531 0.47656
vt 0.53906 0.47656
vt 0.00781 0.44531
vt 0.07031 0.41406
vt 0.00781 0.41406
vt 0.13281 0.41406
vt 0.47656 0.41406
vt 0.13281 0.35156
vt 0.47656 0.35156
vt 0.50781 0.35156
vt 0.50781 0.32031
vt 0.53906 0.32031
vt 0.53906 0.28906
vt 0.47656 0.28906
vt 0.47656 0.22656
vt 0.44531 0.22656
vt 0.47656 0.19531
vt 0.44531 0.19531
vt 0.47656 0.16406
vt 0.32031 0.16406
vt 0.32031 0.19531
vt 0.28906 0.19531
vt 0.28906 0.16406
vt 0.13281 0.16406
vt 0.13281 0.19531
vt 0.16406 0.19531
vt 0.16406 0.22656
vt 0.13281 0.22656
vt 0.13281 0.28906
vt 0.07031 0.28906
vt 0.07031 0.32031
vt 0.10156 0.32031
vt 0.10156 0.35156
vt 0.53906 0.07031
vt 0.47656 0.07031
vt 0.53906 0.03906
vt 0.47656 0.03906
vt 0.13281 0.07031
vt 0.07031 0.07031
vt 0.13281 0.03906
vt 0.07031 0.03906
vt 0.28906 0.61719
vt 0.19531 0.61719
vt 0.19531 0.67969
vt 0.22656 0.67969
vt 0.22656 0.71094
vt 0.38281 0.67969
vt 0.38281 0.71094
vt 0.41406 0.67969
vt 0.32031 0.61719
vt 0.41406 0.61719
vt 0.19531 0.77344
vt 0.19531 0.80469
vt 0.22656 0.80469
vt 0.38281 0.80469
vt 0.38281 0.77344
vt 0.41406 0.77344
vt 0.38281 0.74219
vt 0.22656 0.77344
vt 0.22656 0.74219
vt 0.41406 0.80469
vt 0.53906 0.07031
vt 0.53906 0.03906
vt 0.47656 0.07031
vt 0.47656 0.03906
vt 0.25781 0.10156
vt 0.28906 0.10156
vt 0.25781 0.07031
vt 0.28906 0.07031
vt 0.28906 0.03906
vt 0.32031 0.03906
vt 0.32031 0.07031
vt 0.35156 0.07031
vt 0.35156 0.10156
vt 0.32031 0.10156
vt 0.28906 0.13281
vt 0.32031 0.13281
vt 0.13281 0.07031
vt 0.13281 0.03906
vt 0.07031 0.07031
vt 0.07031 0.83594
vt 0.19531 0.07031
vt 0.22656 0.07031
vt 0.19531 0.00781
vt 0.22656 0.00781
vt 0.38281 0.00781
vt 0.38281 0.07031
vt 0.41406 0.00781
vt 0.41406 0.07031
vt 0.92969 0.57031
vt 0.92969 0.53906
vt 0.92969 0.69531
vt 0.92969 0.58594
vt 0.99219 0.30469
vt 0.92969 0.30469
vt 0.92969 0.38281
vt 0.99219 0.69531
vt 0.92969 0.69531
vt 0.92969 0.58594
vt 0.99219 0.30469
vt 0.92969 0.30469
vt 0.92969 0.38281
vt 0.99219 0.69531
vt 0.92969 0.69531
vt 0.92969 0.58594
vt 0.99219 0.30469
vt 0.92969 0.30469
vt 0.92969 0.38281
vt 0.92969 0.47656
vt 0.92969 0.39844
vt 0.99219 0.64844
vt 0.92969 0.64844
vt 0.92969 0.58594
vt 0.99219 0.30469
vt 0.92969 0.30469
vt 0.92969 0.38281
vt 0.99219 0.64844
vt 0.92969 0.64844
vt 0.92969 0.58594
vt 0.99219 0.28906
vt 0.92969 0.28906
vt 0.92969 0.25781
vt 0.99219 0.71094
vt 0.92969 0.71094
vt 0.92969 0.78906
vt 0.99219 0.38281
vt 0.92969 0.38281
vt 0.92969 0.30469
vt 0.99219 0.71094
vt 0.92969 0.71094
vt 0.92969 0.78906
vt 0.99219 0.47656
vt 0.92969 0.47656
vt 0.92969 0.39844
vt 0.99219 0.64844
vt 0.92969 0.64844
vt 0.92969 0.58594
vt 0.99219 0.28906
vt 0.92969 0.28906
vt 0.92969 0.25781
vt 0.99219 0.80469
vt 0.92969 0.80469
vt 0.92969 0.99219
vt 0.99219 0.30469
vt 0.92969 0.30469
vt 0.99219 0.38281
vt 0.92969 0.38281
vt 0.99219 0.38281
vt 0.92969 0.38281
vt 0.92969 0.30469
vt 0.99219 0.99219
vt 0.92969 0.99219
vt 0.92969 0.80469
vt 0.99219 0.25781
vt 0.92969 0.25781
vt 0.92969 0.28906
vt 0.99219 0.58594
vt 0.92969 0.58594
vt 0.92969 0.64844
vt 0.99219 0.39844
vt 0.92969 0.39844
vt 0.92969 0.47656
vt 0.99219 0.78906
vt 0.92969 0.78906
vt 0.92969 0.71094
vt 0.99219 0.30469
vt 0.92969 0.30469
vt 0.92969 0.38281
vt 0.99219 0.78906
vt 0.92969 0.78906
vt 0.92969 0.71094
vt 0.99219 0.25781
vt 0.92969 0.25781
vt 0.92969 0.28906
vt 0.99219 0.58594
vt 0.92969 0.58594
vt 0.92969 0.64844
vt 0.99219 0.38281
vt 0.92969 0.38281
vt 0.92969 0.30469
vt 0.99219 0.58594
vt 0.92969 0.58594
vt 0.92969 0.64844
vt 0.99219 0.39844
vt 0.92969 0.39844
vt 0.92969 0.47656
vt 0.99219 0.38281
vt 0.92969 0.38281
vt 0.92969 0.30469
vt 0.99219 0.58594
vt 0.92969 0.58594
vt 0.92969 0.69531
vt 0.99219 0.38281
vt 0.92969 0.38281
vt 0.92969 0.30469
vt 0.99219 0.58594
vt 0.92969 0.58594
vt 0.92969 0.69531
vt 0.99219 0.38281
vt 0.92969 0.38281
vt 0.92969 0.30469
vt 0.99219 0.58594
vt 0.92969 0.58594
vt 0.92969 0.69531
vt 0.99219 0.38281
vt 0.92969 0.38281
vt 0.92969 0.30469
vt 0.99219 0.49219
vt 0.92969 0.49219
vt 0.92969 0.52344
vt 0.99219 0.30469
vt 0.92969 0.30469
vt 0.99219 0.38281
vt 0.92969 0.38281
vt 0.99219 0.58594
vt 0.92969 0.58594
vt 0.99219 0.69531
vt 0.92969 0.69531
vt 0.99219 0.91406
vt 0.92969 0.91406
vt 0.99219 0.80469
vt 0.92969 0.80469
vt 0.99219 0.25781
vt 0.92969 0.25781
vt 0.99219 0.28906
vt 0.92969 0.28906
vt 0.99219 0.24219
vt 0.92969 0.24219
vt 0.99219 0.16406
vt 0.92969 0.16406
vt 0.92969 0.16406
vt 0.99219 0.24219
vt 0.92969 0.24219
vt 0.99219 0.69531
vt 0.92969 0.69531
vt 0.92969 0.58594
vt 0.99219 0.28906
vt 0.92969 0.28906
vt 0.92969 0.25781
vt 0.99219 0.80469
vt 0.92969 0.80469
vt 0.99219 0.88281
vt 0.92969 0.88281
vt 0.07031 0.44531
vt 0.07031 0.47656
vt 0.16406 0.47656
vt 0.16406 0.50781
vt 0.22656 0.50781
vt 0.22656 0.53906
vt 0.28906 0.53906
vt 0.28906 0.57031
vt 0.32031 0.57031
vt 0.32031 0.53906
vt 0.38281 0.53906
vt 0.38281 0.50781
vt 0.44531 0.50781
vt 0.44531 0.47656
vt 0.53906 0.47656
vt 0.00781 0.44531
vt 0.07031 0.41406
vt 0.00781 0.41406
vt 0.13281 0.41406
vt 0.47656 0.41406
vt 0.13281 0.35156
vt 0.47656 0.35156
vt 0.50781 0.35156
vt 0.50781 0.32031
vt 0.53906 0.32031
vt 0.53906 0.28906
vt 0.47656 0.28906
vt 0.47656 0.22656
vt 0.44531 0.22656
vt 0.47656 0.19531
vt 0.44531 0.19531
vt 0.47656 0.16406
vt 0.32031 0.16406
vt 0.32031 0.19531
vt 0.28906 0.19531
vt 0.28906 0.16406
vt 0.13281 0.16406
vt 0.13281 0.19531
vt 0.16406 0.19531
vt 0.16406 0.22656
vt 0.13281 0.22656
vt 0.13281 0.28906
vt 0.07031 0.28906
vt 0.07031 0.32031
vt 0.10156 0.32031
vt 0.10156 0.35156
vt 0.53906 0.07031
vt 0.47656 0.07031
vt 0.53906 0.03906
vt 0.47656 0.03906
vt 0.13281 0.07031
vt 0.07031 0.07031
vt 0.13281 0.03906
vt 0.07031 0.03906
usemtl m0
f 26/26 25/25 16/16
f 16/16 25/25 15/15
f 13/13 14/14 23/23
f 23/23 14/14 24/24
f 29/29 24/24 30/30
f 24/24 14/14 30/30
f 14/14 15/15 30/30
f 25/25 30/30 15/15
f 50/50 49/49 44/44
f 44/44 49/49 43/43
f 49/49 48/48 43/43
f 36/36 43/43 35/35
f 35/35 43/43 42/42
f 43/43 48/48 42/42
f 42/42 48/48 41/41
f 41/41 48/48 47/47
f 84/84 83/83 5/5
f 4/4 5/5 79/79
f 80/80 79/79 71/71
f 71/71 79/79 70/70
f 46/46 45/45 37/37
f 38/38 37/37 32/32
f 32/32 37/37 31/31
f 37/37 45/45 31/31
f 22/22 31/31 21/21
f 18/18 17/17 3/3
f 3/3 17/17 6/6
f 277/277 6/6 278/278
f 6/6 17/17 278/278
f 17/17 21/21 278/278
f 278/278 21/21 279/279
f 21/21 31/31 279/279
f 280/280 279/279 281/281
f 282/282 283/283 284/284
f 285/285 286/286 1/1
f 1/1 286/286 10/10
f 11/11 10/10 12/12
f 10/10 286/286 12/12
f 286/286 284/284 12/12
f 12/12 284/284 20/20
f 19/19 20/20 28/28
f 20/20 284/284 28/28
f 27/27 28/28 33/33
f 33/33 28/28 34/34
f 39/39 34/34 40/40
f 34/34 28/28 40/40
f 60/60 61/61 73/73
f 73/73 61/61 74/74
f 9/9 74/74 8/8
f 81/81 8/8 82/82
f 85/85 82/82 86/86
f 86/86 82/82 83/83
f 279/279 31/31 281/281
f 31/31 45/45 281/281
f 284/284 283/283 28/28
f 28/28 283/283 40/40
f 45/45 56/56 281/281
f 40/40 283/283 53/53
f 70/70 79/79 56/56
f 56/56 287/287 281/281
f 287/287 56/56 288/288
f 288/288 56/56 69/69
f 56/56 79/79 69/69
f 79/79 5/5 69/69
f 69/69 5/5 68/68
f 289/289 55/55 290/290
f 55/55 54/54 290/290
f 289/289 68/68 55/55
f 290/290 54/54 63/63
f 66/66 55/55 67/67
f 55/55 68/68 67/67
f 68/68 5/5 67/67
f 67/67 5/5 78/78
f 5/5 83/83 78/78
f 77/77 78/78 7/7
f 78/78 83/83 7/7
f 83/83 82/82 7/7
f 7/7 82/82 2/2
f 82/82 8/8 2/2
f 2/2 8/8 76/76
f 76/76 8/8 75/75
f 65/65 64/64 54/54
f 54/54 64/64 63/63
f 64/64 75/75 63/63
f 75/75 8/8 63/63
f 8/8 74/74 63/63
f 63/63 74/74 62/62
f 291/291 292/292 293/293
f 294/294 295/295 287/287
f 287/287 295/295 281/281
f 295/295 293/293 281/281
f 281/281 293/293 283/283
f 74/74 61/61 62/62
f 62/62 61/61 296/296
f 61/61 53/53 296/296
f 296/296 53/53 292/292
f 53/53 283/283 292/292
f 292/292 283/283 293/293
f 59/59 51/51 60/60
f 51/51 52/52 60/60
f 297/297 298/298 299/299
f 298/298 300/300 299/299
f 301/301 302/302 303/303
f 303/303 302/302 304/304
f 305/305 304/304 306/306
f 306/306 304/304 307/307
f 304/304 302/302 307/307
f 308/308 307/307 309/309
f 309/309 307/307 310/310
f 307/307 302/302 310/310
f 302/302 311/311 310/310
f 310/310 311/311 312/312
f 313/313 314/314 315/315
f 314/314 57/57 315/315
f 71/71 316/316 72/72
f 316/316 58/58 72/72
f 317/317 318/318 319/319
f 318/318 320/320 319/319
f 321/321 322/322 323/323
f 322/322 324/324 323/323
f 118/118 117/117 124/124
f 117/117 123/123 124/124
f 98/98 325/325 97/97
f 325/325 326/326 97/97
f 133/133 327/327 134/134
f 327/327 328/328 134/134
f 329/329 330/330 90/90
f 330/330 331/331 90/90
f 332/332 333/333 89/89
f 333/333 334/334 89/89
f 335/335 336/336 129/129
f 336/336 337/337 129/129
f 338/338 339/339 130/130
f 339/339 340/340 130/130
f 341/341 342/342 125/125
f 342/342 343/343 125/125
f 120/120 344/344 115/115
f 344/344 345/345 115/115
f 346/346 347/347 116/116
f 347/347 348/348 116/116
f 349/349 350/350 111/111
f 350/350 351/351 111/111
f 352/352 353/353 112/112
f 353/353 354/354 112/112
f 355/355 356/356 108/108
f 356/356 357/357 108/108
f 358/358 359/359 107/107
f 359/359 360/360 107/107
f 361/361 362/362 104/104
f 362/362 363/363 104/104
f 364/364 365/365 103/103
f 365/365 366/366 103/103
f 367/367 368/368 99/99
f 368/368 369/369 99/99
f 370/370 371/371 100/100
f 371/371 372/372 100/100
f 373/373 374/374 88/88
f 374/374 375/375 88/88
f 376/376 377/377 91/91
f 377/377 378/378 91/91
f 379/379 380/380 381/381
f 380/380 382/382 381/381
f 383/383 384/384 87/87
f 384/384 385/385 87/87
f 386/386 387/387 94/94
f 387/387 388/388 94/94
f 389/389 390/390 95/95
f 390/390 391/391 95/95
f 392/392 393/393 96/96
f 393/393 394/394 96/96
f 395/395 396/396 102/102
f 396/396 397/397 102/102
f 398/398 399/399 101/101
f 399/399 400/400 101/101
f 401/401 402/402 106/106
f 402/402 403/403 106/106
f 404/404 405/405 105/105
f 405/405 406/406 105/105
f 407/407 408/408 109/109
f 408/408 409/409 109/109
f 410/410 411/411 110/110
f 411/411 412/412 110/110
f 413/413 414/414 113/113
f 414/414 415/415 113/113
f 416/416 417/417 114/114
f 417/417 418/418 114/114
f 419/419 420/420 119/119
f 420/420 421/421 119/119
f 422/422 423/423 127/127
f 423/423 424/424 127/127
f 425/425 426/426 128/128
f 426/426 427/427 128/128
f 428/428 429/429 93/93
f 429/429 430/430 93/93
f 431/431 432/432 92/92
f 432/432 433/433 92/92
f 434/434 435/435 131/131
f 435/435 436/436 131/131
f 437/437 438/438 132/132
f 438/438 439/439 132/132
f 440/440 441/441 135/135
f 441/441 442/442 135/135
f 443/443 444/444 136/136
f 444/444 445/445 136/136
f 446/446 447/447 448/448
f 447/447 449/449 448/448
f 450/450 451/451 452/452
f 451/451 453/453 452/452
f 454/454 455/455 456/456
f 455/455 457/457 456/456
f 458/458 459/459 460/460
f 459/459 461/461 460/460
f 462/462 463/463 464/464
f 463/463 465/465 464/464
f 121/121 466/466 467/467
f 466/466 468/468 467/467
f 469/469 470/470 126/126
f 470/470 471/471 126/126
f 472/472 473/473 122/122
f 473/473 474/474 122/122
f 475/475 476/476 477/477
f 476/476 478/478 477/477
f 479/479 137/137 480/480
f 480/480 137/137 481/481
f 137/137 138/138 481/481
f 482/482 481/481 483/483
f 481/481 138/138 483/483
f 484/484 483/483 485/485
f 483/483 138/138 485/485
f 486/486 485/485 487/487
f 487/487 485/485 488/488
f 485/485 138/138 488/488
f 489/489 488/488 490/490
f 488/488 138/138 490/490
f 491/491 490/490 492/492
f 490/490 138/138 492/492
f 492/492 138/138 493/493
f 493/493 138/138 124/124
f 479/479 494/494 495/495
f 494/494 496/496 495/495
f 137/137 497/497 138/138
f 138/138 497/497 498/498
f 497/497 499/499 498/498
f 498/498 499/499 500/500
f 501/501 500/500 502/502
f 503/503 502/502 504/504
f 504/504 502/502 505/505
f 502/502 500/500 505/505
f 500/500 499/499 505/505
f 506/506 505/505 507/507
f 505/505 499/499 507/507
f 508/508 509/509 510/510
f 510/510 509/509 511/511
f 511/511 509/509 512/512
f 509/509 507/507 512/512
f 507/507 499/499 512/512
f 512/512 499/499 513/513
f 514/514 513/513 515/515
f 516/516 515/515 517/517
f 515/515 513/513 517/517
f 517/517 513/513 518/518
f 513/513 499/499 518/518
f 519/519 518/518 520/520
f 518/518 499/499 520/520
f 521/521 520/520 522/522
f 522/522 520/520 523/523
f 520/520 499/499 523/523
f 523/523 499/499 524/524
f 525/525 526/526 527/527
f 526/526 528/528 527/527
f 529/529 530/530 531/531
f 530/530 532/532 531/531
f 164/164 163/163 154/154
f 154/154 163/163 153/153
f 151/151 152/152 161/161
f 161/161 152/152 162/162
f 167/167 162/162 168/168
f 162/162 152/152 168/168
f 152/152 153/153 168/168
f 163/163 168/168 153/153
f 188/188 187/187 182/182
f 182/182 187/187 181/181
f 187/187 186/186 181/181
f 174/174 181/181 173/173
f 173/173 181/181 180/180
f 181/181 186/186 180/180
f 180/180 186/186 179/179
f 179/179 186/186 185/185
f 222/222 221/221 143/143
f 142/142 143/143 217/217
f 218/218 217/217 209/209
f 209/209 217/217 208/208
f 184/184 183/183 175/175
f 176/176 175/175 170/170
f 170/170 175/175 169/169
f 175/175 183/183 169/169
f 160/160 169/169 159/159
f 156/156 155/155 141/141
f 141/141 155/155 144/144
f 533/533 144/144 534/534
f 144/144 155/155 534/534
f 155/155 159/159 534/534
f 534/534 159/159 535/535
f 159/159 169/169 535/535
f 536/536 535/535 537/537
f 538/538 539/539 540/540
f 541/541 542/542 139/139
f 139/139 542/542 148/148
f 149/149 148/148 150/150
f 148/148 542/542 150/150
f 542/542 540/540 150/150
f 150/150 540/540 158/158
f 157/157 158/158 166/166
f 158/158 540/540 166/166
f 165/165 166/166 171/171
f 171/171 166/166 172/172
f 177/177 172/172 178/178
f 172/172 166/166 178/178
f 198/198 199/199 211/211
f 211/211 199/199 212/212
f 147/147 212/212 146/146
f 219/219 146/146 220/220
f 223/223 220/220 224/224
f 224/224 220/220 221/221
f 535/535 169/169 537/537
f 169/169 183/183 537/537
f 540/540 539/539 166/166
f 166/166 539/539 178/178
f 183/183 194/194 537/537
f 178/178 539/539 191/191
f 208/208 217/217 194/194
f 194/194 543/543 537/537
f 543/543 194/194 544/544
f 544/544 194/194 207/207
f 194/194 217/217 207/207
f 217/217 143/143 207/207
f 207/207 143/143 206/206
f 545/545 193/193 546/546
f 193/193 192/192 546/546
f 545/545 206/206 193/193
f 546/546 192/192 201/201
f 204/204 193/193 205/205
f 193/193 206/206 205/205
f 206/206 143/143 205/205
f 205/205 143/143 216/216
f 143/143 221/221 216/216
f 215/215 216/216 145/145
f 216/216 221/221 145/145
f 221/221 220/220 145/145
f 145/145 220/220 140/140
f 220/220 146/146 140/140
f 140/140 146/146 214/214
f 214/214 146/146 213/213
f 203/203 202/202 192/192
f 192/192 202/202 201/201
f 202/202 213/213 201/201
f 213/213 146/146 201/201
f 146/146 212/212 201/201
f 201/201 212/212 200/200
f 547/547 548/548 549/549
f 550/550 551/551 543/543
f 543/543 551/551 537/537
f 551/551 549/549 537/537
f 537/537 549/549 539/539
f 212/212 199/199 200/200
f 200/200 199/199 552/552
f 199/199 191/191 552/552
f 552/552 191/191 548/548
f 191/191 539/539 548/548
f 548/548 539/539 549/549
f 197/197 189/189 198/198
f 189/189 190/190 198/198
f 553/553 554/554 555/555
f 554/554 556/556 555/555
f 557/557 558/558 559/559
f 559/559 558/558 560/560
f 561/561 560/560 562/562
f 562/562 560/560 563/563
f 560/560 558/558 563/563
f 564/564 563/563 565/565
f 565/565 563/563 566/566
f 563/563 558/558 566/566
f 558/558 567/567 566/566
f 566/566 567/567 568/568
f 569/569 570/570 571/571
f 570/570 195/195 571/571
f 209/209 572/572 210/210
f 572/572 196/196 210/210
f 573/573 574/574 575/575
f 574/574 576/576 575/575
f 577/577 578/578 579/579
f 578/578 580/580 579/579
f 256/256 255/255 262/262
f 255/255 261/261 262/262
f 236/236 581/581 235/235
f 581/581 582/582 235/235
f 271/271 583/583 272/272
f 583/583 584/584 272/272
f 585/585 586/586 228/228
f 586/586 587/587 228/228
f 588/588 589/589 227/227
f 589/589 590/590 227/227
f 591/591 592/592 267/267
f 592/592 593/593 267/267
f 594/594 595/595 268/268
f 595/595 596/596 268/268
f 597/597 598/598 263/263
f 598/598 599/599 263/263
f 258/258 600/600 253/253
f 600/600 601/601 253/253
f 602/602 603/603 254/254
f 603/603 604/604 254/254
f 605/605 606/606 249/249
f 606/606 607/607 249/249
f 608/608 609/609 250/250
f 609/609 610/610 250/250
f 611/611 612/612 246/246
f 612/612 613/613 246/246
f 614/614 615/615 245/245
f 615/615 616/616 245/245
f 617/617 618/618 242/242
f 618/618 619/619 242/242
f 620/620 621/621 241/241
f 621/621 622/622 241/241
f 623/623 624/624 237/237
f 624/624 625/625 237/237
f 626/626 627/627 238/238
f 627/627 628/628 238/238
f 629/629 630/630 226/226
f 630/630 631/631 226/226
f 632/632 633/633 229/229
f 633/633 634/634 229/229
f 635/635 636/636 637/637
f 636/636 638/638 637/637
f 639/639 640/640 225/225
f 640/640 641/641 225/225
f 642/642 643/643 232/232
f 643/643 644/644 232/232
f 645/645 646/646 233/233
f 646/646 647/647 233/233
f 648/648 649/649 234/234
f 649/649 650/650 234/234
f 651/651 652/652 240/240
f 652/652 653/653 240/240
f 654/654 655/655 239/239
f 655/655 656/656 239/239
f 657/657 658/658 244/244
f 658/658 659/659 244/244
f 660/660 661/661 243/243
f 661/661 662/662 243/243
f 663/663 664/664 247/247
f 664/664 665/665 247/247
f 666/666 667/667 248/248
f 667/667 668/668 248/248
f 669/669 670/670 251/251
f 670/670 671/671 251/251
f 672/672 673/673 252/252
f 673/673 674/674 252/252
f 675/675 676/676 257/257
f 676/676 677/677 257/257
f 678/678 679/679 265/265
f 679/679 680/680 265/265
f 681/681 682/682 266/266
f 682/682 683/683 266/266
f 684/684 685/685 231/231
f 685/685 686/686 231/231
f 687/687 688/688 230/230
f 688/688 689/689 230/230
f 690/690 691/691 269/269
f 691/691 692/692 269/269
f 693/693 694/694 270/270
f 694/694 695/695 270/270
f 696/696 697/697 273/273
f 697/697 698/698 273/273
f 699/699 700/700 274/274
f 700/700 701/701 274/274
f 702/702 703/703 704/704
f 703/703 705/705 704/704
f 706/706 707/707 708/708
f 707/707 709/709 708/708
f 710/710 711/711 712/712
f 711/711 713/713 712/712
f 714/714 715/715 716/716
f 715/715 717/717 716/716
f 718/718 719/719 720/720
f 719/719 721/721 720/720
f 259/259 722/722 723/723
f 722/722 724/724 723/723
f 725/725 726/726 264/264
f 726/726 727/727 264/264
f 728/728 729/729 260/260
f 729/729 730/730 260/260
f 731/731 732/732 733/733
f 732/732 734/734 733/733
f 735/735 275/275 736/736
f 736/736 275/275 737/737
f 275/275 276/276 737/737
f 738/738 737/737 739/739
f 737/737 276/276 739/739
f 740/740 739/739 741/741
f 739/739 276/276 741/741
f 742/742 741/741 743/743
f 743/743 741/741 744/744
f 741/741 276/276 744/744
f 745/745 744/744 746/746
f 744/744 276/276 746/746
f 747/747 746/746 748/748
f 746/746 276/276 748/748
f 748/748 276/276 749/749
f 749/749 276/276 262/262
f 735/735 750/750 751/751
f 750/750 752/752 751/751
f 275/275 753/753 276/276
f 276/276 753/753 754/754
f 753/753 755/755 754/754
f 754/754 755/755 756/756
f 757/757 756/756 758/758
f 759/759 758/758 760/760
f 760/760 758/758 761/761
f 758/758 756/756 761/761
f 756/756 755/755 761/761
f 762/762 761/761 763/763
f 761/761 755/755 763/763
f 764/764 765/765 766/766
f 766/766 765/765 767/767
f 767/767 765/765 768/768
f 765/765 763/763 768/768
f 763/763 755/755 768/768
f 768/768 755/755 769/769
f 770/770 769/769 771/771
f 772/772 771/771 773/773
f 771/771 769/769 773/773
f 773/773 769/769 774/774
f 769/769 755/755 774/774
f 775/775 774/774 776/776
f 774/774 755/755 776/776
f 777/777 776/776 778/778
f 778/778 776/776 779/779
f 776/776 755/755 779/779
f 779/779 755/755 780/780
f 781/781 782/782 783/783
f 782/782 784/784 783/783
f 785/785 786/786 787/787
f 786/786 788/788 787/787
