mtllib acce1033.mtl
o acce1033
v 0.07513 0.09808 2.88841 0.000 0.000 1.000
v 0.05899 0.10132 2.88050 0.000 0.000 1.000
v 0.06138 0.05594 2.90066 0.000 0.000 1.000
v 0.05038 0.05533 2.89577 0.000 0.000 1.000
v 0.04554 0.00000 2.90572 0.000 0.000 1.000
v 0.06637 0.13664 2.86328 0.000 0.000 0.949
v 0.08856 0.13691 2.86528 0.000 0.000 0.949
v 0.10140 0.17231 2.82613 0.000 0.000 0.761
v 0.07589 0.16994 2.82290 0.000 0.000 0.761
v 0.11721 0.19991 2.75119 0.000 0.000 0.769
v 0.09227 0.19818 2.74579 0.000 0.000 0.769
v 0.10719 0.20905 2.67514 0.000 0.000 0.890
v 0.12819 0.21053 2.67667 0.000 0.000 0.890
v 0.13038 0.20704 2.62359 0.000 0.000 0.965
v 0.11805 0.20448 2.62355 0.000 0.000 0.965
v 0.12591 0.18526 2.59294 0.000 0.000 0.965
v 0.08040 -0.03202 2.89746 0.000 0.000 1.000
v 0.08860 -0.02468 2.90171 0.000 0.000 1.000
v 0.11417 -0.06512 2.88418 0.000 0.000 1.000
v 0.12145 -0.05141 2.89105 0.000 0.000 1.000
v 0.13906 -0.10289 2.86214 0.000 0.000 0.941
v 0.15492 -0.08735 2.86389 0.000 0.000 0.941
v 0.16758 -0.12091 2.82629 0.000 0.000 0.820
v 0.14789 -0.13730 2.82400 0.000 0.000 0.820
v 0.17103 -0.14308 2.77760 0.000 0.000 0.769
v 0.14964 -0.15912 2.77259 0.000 0.000 0.769
v 0.16588 -0.16090 2.70536 0.000 0.000 0.769
v 0.14729 -0.17332 2.69894 0.000 0.000 0.769
v 0.15184 -0.16934 2.65192 0.000 0.000 0.890
v 0.14080 -0.17536 2.64922 0.000 0.000 0.890
v 0.13616 -0.16830 2.62159 0.000 0.000 0.965
v 0.06532 0.13745 2.86180 0.000 0.000 0.949
v 0.09468 0.12024 2.86686 0.000 0.000 0.969
v 0.07123 0.17102 2.82240 0.000 0.000 0.925
v 0.10612 0.14670 2.82240 0.000 0.000 0.925
v 0.02718 0.17172 2.80980 0.000 0.000 0.929
v 0.03758 0.13660 2.85228 0.000 0.000 0.949
v 0.09904 0.18270 2.76570 0.000 0.000 0.788
v 0.10760 0.16072 2.76300 0.000 0.000 0.914
v 0.06002 0.19442 2.76840 0.000 0.000 0.918
v 0.01908 0.18378 2.76840 0.000 0.000 0.922
v 0.09516 0.19271 2.69910 0.000 0.000 0.812
v 0.10031 0.17177 2.69820 0.000 0.000 0.988
v 0.05954 0.20396 2.70000 0.000 0.000 0.961
v 0.05105 0.10260 2.88158 0.000 0.000 0.988
v 0.09293 0.19152 2.63844 0.000 0.000 0.875
v 0.09494 0.16745 2.64384 0.000 0.000 0.988
v 0.06045 0.19980 2.63304 0.000 0.000 0.961
v 0.09332 0.18374 2.58817 0.000 0.000 0.925
v 0.09301 0.16054 2.59717 0.000 0.000 0.988
v 0.06317 0.19260 2.58385 0.000 0.000 0.988
v 0.09645 0.16519 2.52913 0.000 0.000 0.925
v 0.09225 0.14283 2.54246 0.000 0.000 0.988
v 0.10296 0.13561 2.47801 0.000 0.000 0.925
v 0.10064 0.12249 2.48458 0.000 0.000 0.988
v 0.11259 0.09378 2.45011 0.000 0.000 0.925
v 0.09034 0.13831 2.47142 0.000 0.000 0.988
v 0.07455 0.17039 2.51577 0.000 0.000 0.988
v 0.05630 0.15383 2.52202 0.000 0.000 0.988
v 0.08239 0.12335 2.46947 0.000 0.000 0.988
v 0.03827 0.17507 2.57972 0.000 0.000 0.988
v 0.02525 0.18058 2.63070 0.000 0.000 0.961
v 0.01836 0.18851 2.70000 0.000 0.000 0.961
v 0.06033 0.07470 2.89044 0.000 0.000 0.988
v 0.06532 -0.13745 2.86180 0.000 0.000 0.949
v 0.07123 -0.17219 2.82240 0.000 0.000 0.925
v 0.09468 -0.12024 2.86686 0.000 0.000 0.969
v 0.10612 -0.14670 2.82240 0.000 0.000 0.929
v 0.02718 -0.17172 2.80980 0.000 0.000 0.929
v 0.03716 -0.13518 2.85228 0.000 0.000 0.949
v 0.09904 -0.18270 2.76570 0.000 0.000 0.788
v 0.10760 -0.16294 2.76300 0.000 0.000 0.914
v 0.06002 -0.19442 2.76840 0.000 0.000 0.918
v 0.01908 -0.18378 2.76840 0.000 0.000 0.922
v 0.09516 -0.19271 2.69910 0.000 0.000 0.812
v 0.10031 -0.16074 2.69820 0.000 0.000 0.988
v 0.05954 -0.20396 2.70000 0.000 0.000 0.961
v 0.06598 -0.08345 2.88972 0.000 0.000 0.988
v 0.04952 -0.09778 2.88234 0.000 0.000 0.988
v 0.09293 -0.19152 2.63844 0.000 0.000 0.875
v 0.09494 -0.15341 2.64384 0.000 0.000 0.988
v 0.06045 -0.19980 2.63304 0.000 0.000 0.961
v 0.09332 -0.18374 2.58817 0.000 0.000 0.925
v 0.09301 -0.15026 2.59717 0.000 0.000 0.988
v 0.06317 -0.19260 2.58385 0.000 0.000 0.988
v 0.09645 -0.16519 2.52913 0.000 0.000 0.925
v 0.09225 -0.14283 2.54246 0.000 0.000 0.988
v 0.10296 -0.13561 2.47801 0.000 0.000 0.925
v 0.10064 -0.12249 2.48458 0.000 0.000 0.988
v 0.11259 -0.09378 2.45011 0.000 0.000 0.925
v 0.09034 -0.13831 2.47142 0.000 0.000 0.988
v 0.07455 -0.17039 2.51577 0.000 0.000 0.988
v 0.05630 -0.15383 2.52202 0.000 0.000 0.988
v 0.08239 -0.12335 2.46947 0.000 0.000 0.988
v 0.03827 -0.17507 2.57972 0.000 0.000 0.988
v 0.02525 -0.18058 2.63070 0.000 0.000 0.961
v 0.01836 -0.18851 2.70000 0.000 0.000 0.961
v 0.17820 -0.08154 2.82240 0.000 0.000 0.843
v 0.17559 -0.10539 2.82240 0.000 0.000 0.843
v 0.18619 -0.12157 2.76746 0.000 0.000 0.749
v 0.16902 -0.09018 2.77506 0.000 0.000 0.914
v 0.18273 -0.13010 2.73449 0.000 0.000 0.749
v 0.17001 -0.10834 2.74007 0.000 0.000 0.914
v 0.16655 -0.11657 2.70306 0.000 0.000 0.988
v 0.17722 -0.13394 2.70144 0.000 0.000 0.773
v 0.16362 -0.11612 2.67500 0.000 0.000 0.988
v 0.17066 -0.12737 2.67095 0.000 0.000 0.914
v 0.16162 -0.10935 2.64245 0.000 0.000 0.914
v 0.14760 -0.07128 2.85840 0.000 0.000 0.949
v 0.13680 -0.10645 2.86200 0.000 0.000 0.949
v 0.10657 -0.05940 2.88720 0.000 0.000 0.988
v 0.15707 -0.12708 2.82240 0.000 0.000 0.843
v 0.08852 -0.07520 2.88540 0.000 0.000 0.988
v 0.06725 -0.05573 2.89134 0.000 0.000 0.988
v 0.18619 -0.12157 2.76746 0.000 0.000 0.749
v 0.15514 -0.13585 2.75989 0.000 0.000 0.914
v 0.18273 -0.13010 2.73449 0.000 0.000 0.749
v 0.15267 -0.13860 2.72853 0.000 0.000 0.914
v 0.17722 -0.13394 2.70144 0.000 0.000 0.773
v 0.15262 -0.13768 2.69984 0.000 0.000 0.988
v 0.15435 -0.12865 2.66692 0.000 0.000 0.988
v 0.17066 -0.12737 2.67095 0.000 0.000 0.914
v 0.16162 -0.10935 2.64245 0.000 0.000 0.914
v 0.11647 -0.13369 2.52173 0.000 0.000 0.988
v 0.13513 -0.12116 2.50790 0.000 0.000 0.933
v 0.11970 -0.13639 2.52094 0.000 0.000 0.933
v 0.10247 -0.14645 2.54632 0.000 0.000 0.988
v 0.11002 -0.15367 2.54840 0.000 0.000 0.933
v 0.09443 -0.16261 2.59070 0.000 0.000 0.988
v 0.10872 -0.16846 2.58989 0.000 0.000 0.933
v 0.09465 -0.17120 2.65291 0.000 0.000 0.988
v 0.11443 -0.17536 2.65030 0.000 0.000 0.863
v 0.11833 -0.17671 2.69591 0.000 0.000 0.773
v 0.09788 -0.17240 2.69820 0.000 0.000 0.988
v 0.13986 -0.16821 2.69361 0.000 0.000 0.773
v 0.13530 -0.16668 2.64965 0.000 0.000 0.914
v 0.10872 -0.16846 2.58989 0.000 0.000 0.933
v 0.12409 -0.16150 2.58910 0.000 0.000 0.988
v 0.11002 -0.15367 2.54840 0.000 0.000 0.933
v 0.12122 -0.14981 2.55200 0.000 0.000 0.988
v 0.12577 -0.13559 2.52383 0.000 0.000 0.988
v 0.11970 -0.13639 2.52094 0.000 0.000 0.933
v 0.13513 -0.12116 2.50790 0.000 0.000 0.933
v 0.10760 -0.16294 2.76300 0.000 0.000 0.914
v 0.14566 -0.16223 2.76043 0.000 0.000 0.749
v 0.10612 -0.14670 2.82240 0.000 0.000 0.929
v 0.14304 -0.14386 2.82240 0.000 0.000 0.843
v 0.09468 -0.12024 2.86686 0.000 0.000 0.969
v 0.13680 -0.10645 2.86200 0.000 0.000 0.949
v 0.06598 -0.08345 2.88972 0.000 0.000 0.988
v 0.08852 -0.07520 2.88540 0.000 0.000 0.988
v 0.15707 -0.12708 2.82240 0.000 0.000 0.843
v 0.14566 -0.16223 2.76043 0.000 0.000 0.749
v 0.16633 -0.10692 2.75785 0.000 0.000 0.914
v 0.16148 -0.11772 2.72473 0.000 0.000 0.984
v 0.13986 -0.16821 2.69361 0.000 0.000 0.773
v 0.15383 -0.12602 2.68904 0.000 0.000 0.988
v 0.13530 -0.16668 2.64965 0.000 0.000 0.914
v 0.14549 -0.13014 2.64818 0.000 0.000 0.988
v 0.13463 -0.15824 2.60462 0.000 0.000 0.984
v 0.14060 -0.13181 2.60338 0.000 0.000 0.988
v 0.14207 -0.14296 2.57143 0.000 0.000 0.984
v 0.14633 -0.12523 2.57578 0.000 0.000 0.988
v 0.15599 -0.12254 2.55679 0.000 0.000 0.984
v 0.15507 -0.11581 2.56059 0.000 0.000 0.988
v 0.16626 -0.10015 2.54873 0.000 0.000 0.984
v 0.14838 -0.12152 2.55515 0.000 0.000 0.988
v 0.16626 -0.10015 2.54873 0.000 0.000 0.984
v 0.15599 -0.12254 2.55679 0.000 0.000 0.984
v 0.14207 -0.14296 2.57143 0.000 0.000 0.984
v 0.12686 -0.13835 2.56707 0.000 0.000 0.988
v 0.13463 -0.15824 2.60462 0.000 0.000 0.984
v 0.10487 -0.15257 2.60586 0.000 0.000 0.988
v 0.09709 -0.16218 2.65291 0.000 0.000 0.914
v 0.13530 -0.16668 2.64965 0.000 0.000 0.914
v 0.19432 -0.03010 2.67545 0.000 0.000 0.988
v 0.19962 -0.04338 2.67239 0.000 0.000 0.914
v 0.18748 -0.03064 2.64055 0.000 0.000 0.988
v 0.19166 -0.04145 2.64069 0.000 0.000 0.914
v 0.17435 -0.04111 2.60588 0.000 0.000 0.984
v 0.20287 -0.05175 2.71004 0.000 0.000 0.773
v 0.19327 -0.03609 2.71265 0.000 0.000 0.773
v 0.19002 -0.04457 2.74986 0.000 0.000 0.914
v 0.19761 -0.06489 2.74770 0.000 0.000 0.749
v 0.17820 -0.08154 2.82240 0.000 0.000 0.843
v 0.16902 -0.09018 2.77506 0.000 0.000 0.914
v 0.17809 -0.07897 2.74554 0.000 0.000 0.914
v 0.18291 -0.05675 2.70743 0.000 0.000 0.988
v 0.19962 -0.04338 2.67239 0.000 0.000 0.914
v 0.18294 -0.04601 2.66933 0.000 0.000 0.988
v 0.19166 -0.04145 2.64069 0.000 0.000 0.914
v 0.18099 -0.04162 2.64083 0.000 0.000 0.988
v 0.17435 -0.04111 2.60588 0.000 0.000 0.984
v 0.21875 -0.00639 2.63520 0.000 0.000 0.843
v 0.20105 -0.01861 2.60051 0.000 0.000 0.914
v 0.20705 0.00832 2.61893 0.000 0.000 0.988
v 0.19584 -0.00961 2.59439 0.000 0.000 0.988
v 0.21555 0.02020 2.67199 0.000 0.000 0.988
v 0.22445 -0.00356 2.66940 0.000 0.000 0.843
v 0.21641 0.01656 2.71386 0.000 0.000 0.988
v 0.22608 -0.00945 2.70360 0.000 0.000 0.749
v 0.21299 0.00731 2.76840 0.000 0.000 0.914
v 0.22140 -0.02491 2.75904 0.000 0.000 0.749
v 0.19669 -0.03118 2.69334 0.000 0.000 0.988
v 0.19002 -0.04457 2.74986 0.000 0.000 0.914
v 0.19193 -0.01408 2.82240 0.000 0.000 0.988
v 0.19584 -0.05436 2.82240 0.000 0.000 0.831
v 0.17820 -0.08154 2.82240 0.000 0.000 0.843
v 0.14760 -0.07128 2.85840 0.000 0.000 0.949
v 0.15750 -0.02808 2.85840 0.000 0.000 0.949
v 0.11481 -0.03042 2.88720 0.000 0.000 0.988
v 0.10657 -0.05940 2.88720 0.000 0.000 0.988
v 0.19780 -0.02421 2.66683 0.000 0.000 0.988
v 0.19605 -0.02311 2.64029 0.000 0.000 0.988
v 0.18911 -0.02750 2.60683 0.000 0.000 0.988
v 0.08040 -0.03202 2.89746 0.000 0.000 0.988
v 0.18850 -0.03247 2.58671 0.000 0.000 0.984
v 0.18290 -0.03602 2.59085 0.000 0.000 0.988
v 0.17351 -0.05220 2.57684 0.000 0.000 0.984
v 0.17906 -0.03899 2.57881 0.000 0.000 0.984
v 0.21143 0.10548 2.71501 0.000 0.000 0.749
v 0.18383 0.13219 2.71521 0.000 0.000 0.773
v 0.20560 0.10159 2.76840 0.000 0.000 0.749
v 0.17744 0.12847 2.76840 0.000 0.000 0.800
v 0.21301 0.10127 2.66904 0.000 0.000 0.843
v 0.18724 0.12506 2.66765 0.000 0.000 0.914
v 0.18909 0.10971 2.62003 0.000 0.000 0.984
v 0.21031 0.08892 2.62627 0.000 0.000 0.843
v 0.18724 0.08309 2.57647 0.000 0.000 0.984
v 0.20583 0.06984 2.59094 0.000 0.000 0.914
v 0.20249 0.04594 2.56194 0.000 0.000 0.914
v 0.18877 0.04799 2.55769 0.000 0.000 0.988
v 0.19467 0.01784 2.54839 0.000 0.000 0.914
v 0.16760 0.11572 2.82240 0.000 0.000 0.843
v 0.18983 0.08712 2.82240 0.000 0.000 0.831
v 0.16431 0.07173 2.85840 0.000 0.000 0.949
v 0.13896 0.09540 2.85840 0.000 0.000 0.949
v 0.10175 0.06356 2.88270 0.000 0.000 0.988
v 0.12120 0.02052 2.88450 0.000 0.000 0.988
v 0.16236 0.03744 2.85840 0.000 0.000 0.949
v 0.07861 0.02556 2.89516 0.000 0.000 0.988
v 0.18852 0.05094 2.82240 0.000 0.000 0.988
v 0.20498 0.06714 2.76840 0.000 0.000 0.914
v 0.20560 0.10159 2.76840 0.000 0.000 0.749
v 0.21143 0.10548 2.71501 0.000 0.000 0.749
v 0.20875 0.07506 2.71481 0.000 0.000 0.988
v 0.21301 0.10127 2.66904 0.000 0.000 0.843
v 0.20819 0.07222 2.67041 0.000 0.000 0.988
v 0.20599 0.06437 2.63254 0.000 0.000 0.988
v 0.21031 0.08892 2.62627 0.000 0.000 0.843
v 0.20230 0.04925 2.60080 0.000 0.000 0.988
v 0.20583 0.06984 2.59094 0.000 0.000 0.914
v 0.20249 0.04594 2.56194 0.000 0.000 0.914
v 0.20014 0.04181 2.57989 0.000 0.000 0.988
v 0.19777 0.03330 2.56433 0.000 0.000 0.988
v 0.19467 0.01784 2.54839 0.000 0.000 0.914
v 0.19818 -0.01609 2.56639 0.000 0.000 0.984
v 0.19917 0.00734 2.56831 0.000 0.000 0.988
v 0.20749 0.00085 2.57756 0.000 0.000 0.984
v 0.21462 0.01102 2.59258 0.000 0.000 0.914
v 0.19933 0.03020 2.58030 0.000 0.000 0.988
v 0.22496 0.03213 2.62922 0.000 0.000 0.843
v 0.20230 0.04925 2.60080 0.000 0.000 0.988
v 0.20599 0.06437 2.63254 0.000 0.000 0.988
v 0.23095 0.04163 2.67070 0.000 0.000 0.843
v 0.20819 0.07222 2.67041 0.000 0.000 0.988
v 0.20875 0.07506 2.71481 0.000 0.000 0.988
v 0.23217 0.04199 2.71530 0.000 0.000 0.749
v 0.20498 0.06714 2.76840 0.000 0.000 0.914
v 0.22674 0.03346 2.76840 0.000 0.000 0.749
v 0.18852 0.05094 2.82240 0.000 0.000 0.988
v 0.20674 0.01618 2.82240 0.000 0.000 0.831
v 0.16236 0.03744 2.85840 0.000 0.000 0.949
v 0.17442 -0.00297 2.85840 0.000 0.000 0.949
v 0.12120 0.02052 2.88450 0.000 0.000 0.988
v 0.13086 -0.00086 2.88585 0.000 0.000 0.988
v 0.11481 -0.03042 2.88720 0.000 0.000 0.988
v 0.15750 -0.02808 2.85840 0.000 0.000 0.949
v 0.05705 -0.00085 2.90288 0.000 0.000 0.988
v 0.19193 -0.01408 2.82240 0.000 0.000 0.988
v 0.21299 0.00731 2.76840 0.000 0.000 0.914
v 0.21641 0.01656 2.71386 0.000 0.000 0.988
v 0.21555 0.02020 2.67199 0.000 0.000 0.988
v 0.22496 0.03213 2.62922 0.000 0.000 0.843
v 0.20705 0.00832 2.61893 0.000 0.000 0.988
v 0.21462 0.01102 2.59258 0.000 0.000 0.914
v 0.19896 -0.00317 2.59461 0.000 0.000 0.988
v 0.20420 -0.00238 2.58404 0.000 0.000 0.984
v 0.19177 -0.01687 2.58332 0.000 0.000 0.988
v 0.15051 0.14623 2.70670 0.000 0.000 0.988
v 0.17027 0.14452 2.71094 0.000 0.000 0.796
v 0.15372 0.14164 2.65576 0.000 0.000 0.988
v 0.17358 0.13867 2.66170 0.000 0.000 0.863
v 0.15603 0.13207 2.60860 0.000 0.000 0.988
v 0.17566 0.12512 2.61430 0.000 0.000 0.933
v 0.16168 0.11268 2.56532 0.000 0.000 0.988
v 0.17714 0.09328 2.56594 0.000 0.000 0.933
v 0.17183 0.08230 2.53814 0.000 0.000 0.988
v 0.17903 0.07562 2.54641 0.000 0.000 0.933
v 0.18274 0.05209 2.52949 0.000 0.000 0.984
v 0.14523 0.14418 2.76570 0.000 0.000 0.914
v 0.17744 0.12847 2.76840 0.000 0.000 0.800
v 0.18383 0.13219 2.71521 0.000 0.000 0.773
v 0.17358 0.13867 2.66170 0.000 0.000 0.863
v 0.18724 0.12506 2.66765 0.000 0.000 0.914
v 0.17566 0.12512 2.61430 0.000 0.000 0.933
v 0.18909 0.10971 2.62003 0.000 0.000 0.984
v 0.17714 0.09328 2.56594 0.000 0.000 0.933
v 0.18724 0.08309 2.57647 0.000 0.000 0.984
v 0.18096 0.07562 2.55031 0.000 0.000 0.933
v 0.18684 0.07004 2.56005 0.000 0.000 0.984
v 0.18782 0.04820 2.53726 0.000 0.000 0.984
v 0.13788 0.12969 2.82240 0.000 0.000 0.843
v 0.16760 0.11572 2.82240 0.000 0.000 0.843
v 0.09468 0.12024 2.86686 0.000 0.000 0.969
v 0.13896 0.09540 2.85840 0.000 0.000 0.949
v 0.10612 0.14670 2.82240 0.000 0.000 0.925
v 0.10175 0.06356 2.88270 0.000 0.000 0.988
v 0.06033 0.07470 2.89044 0.000 0.000 0.988
v 0.06077 0.04410 2.89584 0.000 0.000 0.988
v 0.13028 0.16162 2.76435 0.000 0.000 0.749
v 0.14523 0.14418 2.76570 0.000 0.000 0.914
v 0.14293 0.16079 2.70457 0.000 0.000 0.773
v 0.12805 0.16879 2.70245 0.000 0.000 0.914
v 0.14839 0.15914 2.65277 0.000 0.000 0.835
v 0.12819 0.16738 2.64980 0.000 0.000 0.988
v 0.13072 0.15986 2.60289 0.000 0.000 0.988
v 0.14916 0.15053 2.60573 0.000 0.000 0.906
v 0.15168 0.13667 2.55638 0.000 0.000 0.906
v 0.13653 0.14373 2.55431 0.000 0.000 0.988
v 0.14517 0.12274 2.51469 0.000 0.000 0.988
v 0.15556 0.11768 2.51586 0.000 0.000 0.906
v 0.15981 0.09632 2.48650 0.000 0.000 0.906
v 0.15481 0.09725 2.48418 0.000 0.000 0.988
v 0.16131 0.08037 2.47736 0.000 0.000 0.906
v 0.11242 0.17435 2.64681 0.000 0.000 0.894
v 0.11273 0.16713 2.60003 0.000 0.000 0.925
v 0.11727 0.15766 2.55380 0.000 0.000 0.925
v 0.13285 0.14778 2.55523 0.000 0.000 0.988
v 0.12312 0.14530 2.51381 0.000 0.000 0.925
v 0.13548 0.13505 2.51453 0.000 0.000 0.988
v 0.12871 0.12546 2.47500 0.000 0.000 0.925
v 0.13744 0.11549 2.47534 0.000 0.000 0.988
v 0.13527 0.10913 2.45443 0.000 0.000 0.925
v 0.14059 0.09907 2.45461 0.000 0.000 0.988
v 0.14373 0.08030 2.43965 0.000 0.000 0.925
v 0.11504 0.17721 2.70032 0.000 0.000 0.773
v 0.10760 0.16294 2.76300 0.000 0.000 0.914
v 0.10031 0.17177 2.69820 0.000 0.000 0.988
v 0.09494 0.16745 2.64384 0.000 0.000 0.988
v 0.11242 0.17435 2.64681 0.000 0.000 0.894
v 0.09301 0.16054 2.59717 0.000 0.000 0.988
v 0.11273 0.16713 2.60003 0.000 0.000 0.925
v 0.11727 0.15766 2.55380 0.000 0.000 0.925
v 0.09997 0.14632 2.55236 0.000 0.000 0.988
v 0.12312 0.14530 2.51381 0.000 0.000 0.925
v 0.10903 0.13430 2.51311 0.000 0.000 0.988
v 0.12871 0.12546 2.47500 0.000 0.000 0.925
v 0.12116 0.11421 2.47464 0.000 0.000 0.988
v 0.13527 0.10913 2.45443 0.000 0.000 0.925
v 0.13245 0.09797 2.45425 0.000 0.000 0.988
v 0.14373 0.08030 2.43965 0.000 0.000 0.925
v 0.15372 0.14164 2.65576 0.000 0.000 0.988
v 0.14839 0.15914 2.65277 0.000 0.000 0.835
v 0.15051 0.14623 2.70670 0.000 0.000 0.988
v 0.15603 0.13207 2.60860 0.000 0.000 0.988
v 0.14916 0.15053 2.60573 0.000 0.000 0.906
v 0.15168 0.13667 2.55638 0.000 0.000 0.906
v 0.15811 0.11781 2.55908 0.000 0.000 0.988
v 0.15976 0.10624 2.51737 0.000 0.000 0.988
v 0.15556 0.11768 2.51586 0.000 0.000 0.906
v 0.15981 0.09632 2.48650 0.000 0.000 0.906
v 0.16180 0.09142 2.48915 0.000 0.000 0.988
v 0.16131 0.08037 2.47736 0.000 0.000 0.906
v -0.28922 0.51174 1.84707 0.000 0.000 1.000
v -0.28309 0.54722 1.70188 0.000 0.000 1.000
v -0.14310 0.53782 1.82462 0.000 0.000 1.000
v -0.15021 0.56563 1.69882 0.000 0.000 1.000
v -0.25511 0.53707 1.58438 0.000 0.000 1.000
v -0.14654 0.55082 1.58458 0.000 0.000 1.000
v -0.18767 0.47907 1.48226 0.000 0.000 1.000
v -0.12266 0.50080 1.48309 0.000 0.000 1.000
v -0.13644 0.49586 1.94720 0.000 0.000 1.000
v -0.12400 0.33462 2.13692 0.000 0.000 1.000
v -0.10782 0.38356 2.15064 0.000 0.000 1.000
v -0.06516 0.29880 2.36772 0.000 0.000 1.000
v -0.07438 0.39751 1.41662 0.000 0.000 0.988
v -0.02286 0.09540 2.50434 0.000 0.000 1.000
v -0.11016 0.00000 2.49480 0.000 0.000 1.000
v -0.05886 0.11322 2.37276 0.000 0.000 1.000
v -0.18360 0.00000 2.31840 0.000 0.000 1.000
v -0.32033 0.00000 2.07306 0.000 0.000 1.000
v -0.26964 0.13421 2.13026 0.000 0.000 1.000
v -0.53977 0.00000 1.69459 0.000 0.000 1.000
v -0.53834 0.13219 1.68959 0.000 0.000 1.000
v -0.56338 0.00621 1.54928 0.000 0.000 1.000
v -0.61561 0.12393 1.59732 0.000 0.000 1.000
v -0.60610 0.09522 1.51373 0.000 0.000 1.000
v -0.58809 0.05567 1.45809 0.000 0.000 1.000
v -0.56840 0.00434 1.41809 0.000 0.000 0.988
v -0.05886 -0.11322 2.37276 0.000 0.000 1.000
v -0.02286 -0.09540 2.50434 0.000 0.000 1.000
v -0.26964 -0.13421 2.13026 0.000 0.000 1.000
v -0.53834 -0.13219 1.68959 0.000 0.000 1.000
v -0.56338 -0.00621 1.54928 0.000 0.000 1.000
v -0.61561 -0.12393 1.59732 0.000 0.000 1.000
v -0.60610 -0.09522 1.51373 0.000 0.000 1.000
v -0.58809 -0.05567 1.45809 0.000 0.000 1.000
v -0.56840 -0.00434 1.41809 0.000 0.000 0.988
v -0.20409 0.23776 2.09822 0.000 0.000 1.000
v -0.05886 0.11322 2.37276 0.000 0.000 1.000
v -0.26964 0.13421 2.13026 0.000 0.000 1.000
v -0.48102 0.18574 1.69195 0.000 0.000 1.000
v -0.45898 0.25097 1.68907 0.000 0.000 1.000
v -0.51164 0.16385 1.58877 0.000 0.000 1.000
v -0.56396 0.22999 1.54562 0.000 0.000 1.000
v -0.54324 0.15662 1.47143 0.000 0.000 1.000
v -0.53198 0.12897 1.50178 0.000 0.000 1.000
v -0.52387 0.07637 1.42927 0.000 0.000 0.988
v -0.48650 0.34596 1.69040 0.000 0.000 1.000
v -0.45898 0.25097 1.68907 0.000 0.000 1.000
v -0.49305 0.27209 1.55171 0.000 0.000 1.000
v -0.55887 0.34096 1.55777 0.000 0.000 1.000
v -0.56396 0.22999 1.54562 0.000 0.000 1.000
v -0.52835 0.26237 1.46471 0.000 0.000 0.988
v -0.49846 0.18963 1.40774 0.000 0.000 0.988
v -0.46498 0.09002 1.37027 0.000 0.000 0.988
v -0.53206 0.17215 1.45539 0.000 0.000 1.000
v -0.53198 0.12897 1.50178 0.000 0.000 1.000
v -0.59429 0.11061 1.50734 0.000 0.000 0.988
v -0.52387 0.07637 1.42927 0.000 0.000 0.988
v -0.61561 0.12393 1.59732 0.000 0.000 1.000
v -0.51164 0.16385 1.58877 0.000 0.000 1.000
v -0.53834 0.13219 1.68959 0.000 0.000 1.000
v -0.48102 0.18574 1.69195 0.000 0.000 1.000
v -0.26964 0.13421 2.13026 0.000 0.000 1.000
v -0.38921 0.21256 1.39208 0.000 0.000 0.988
v -0.40875 0.29221 1.48392 0.000 0.000 1.000
v -0.50659 0.30384 1.46075 0.000 0.000 0.988
v -0.55887 0.34096 1.55777 0.000 0.000 1.000
v -0.48650 0.34596 1.69040 0.000 0.000 1.000
v -0.37237 0.36832 1.67933 0.000 0.000 1.000
v -0.20409 0.23776 2.09822 0.000 0.000 1.000
v -0.27140 0.38475 1.83546 0.000 0.000 1.000
v -0.40248 0.52065 1.61528 0.000 0.000 1.000
v -0.12400 0.33462 2.13692 0.000 0.000 1.000
v -0.40970 0.44208 1.48601 0.000 0.000 1.000
v -0.40415 0.34177 1.43215 0.000 0.000 0.988
v -0.05886 0.11322 2.37276 0.000 0.000 1.000
v -0.06516 0.29880 2.36772 0.000 0.000 1.000
v -0.04050 0.21096 2.43441 0.000 0.000 1.000
v -0.04823 0.25632 2.46420 0.000 0.000 0.988
v 0.00954 0.16632 2.60514 0.000 0.000 1.000
v -0.02520 0.22946 2.60820 0.000 0.000 0.988
v -0.00720 0.22012 2.68740 0.000 0.000 0.961
v 0.07074 0.15898 2.69154 0.000 0.000 0.961
v 0.00270 0.20185 2.76210 0.000 0.000 0.922
v -0.02286 0.09540 2.50434 0.000 0.000 1.000
v -0.28922 0.51174 1.84707 0.000 0.000 1.000
v -0.27140 0.38475 1.83546 0.000 0.000 1.000
v -0.29111 0.44545 1.68826 0.000 0.000 1.000
v -0.30685 0.53185 1.72678 0.000 0.000 1.000
v -0.31522 0.51833 1.62076 0.000 0.000 1.000
v -0.30856 0.47864 1.52455 0.000 0.000 1.000
v -0.29789 0.43101 1.53603 0.000 0.000 1.000
v -0.28790 0.39532 1.44711 0.000 0.000 0.988
v -0.40248 0.52065 1.61528 0.000 0.000 1.000
v -0.37161 0.47732 1.51781 0.000 0.000 0.988
v -0.29789 0.43101 1.53603 0.000 0.000 1.000
v -0.28790 0.39532 1.44711 0.000 0.000 0.988
v -0.28922 -0.51174 1.84707 0.000 0.000 1.000
v -0.14310 -0.53782 1.82462 0.000 0.000 1.000
v -0.28309 -0.54722 1.70188 0.000 0.000 1.000
v -0.15021 -0.56563 1.69882 0.000 0.000 1.000
v -0.25511 -0.53707 1.58438 0.000 0.000 1.000
v -0.14654 -0.55082 1.58458 0.000 0.000 1.000
v -0.18767 -0.47907 1.48226 0.000 0.000 1.000
v -0.12266 -0.50080 1.48309 0.000 0.000 1.000
v -0.13644 -0.49586 1.94720 0.000 0.000 1.000
v -0.12400 -0.33462 2.13692 0.000 0.000 1.000
v -0.10782 -0.38356 2.15064 0.000 0.000 1.000
v -0.06516 -0.29880 2.36772 0.000 0.000 1.000
v -0.07438 -0.39751 1.41662 0.000 0.000 0.988
v -0.20409 -0.23776 2.09822 0.000 0.000 1.000
v -0.26964 -0.13421 2.13026 0.000 0.000 1.000
v -0.05886 -0.11322 2.37276 0.000 0.000 1.000
v -0.48102 -0.18574 1.69195 0.000 0.000 1.000
v -0.45898 -0.25097 1.68907 0.000 0.000 1.000
v -0.51164 -0.16385 1.58877 0.000 0.000 1.000
v -0.56396 -0.22999 1.54562 0.000 0.000 1.000
v -0.54324 -0.15662 1.47143 0.000 0.000 1.000
v -0.53198 -0.12897 1.50178 0.000 0.000 1.000
v -0.52387 -0.07637 1.42927 0.000 0.000 0.949
v -0.48650 -0.34596 1.69040 0.000 0.000 1.000
v -0.45898 -0.25097 1.68907 0.000 0.000 1.000
v -0.49305 -0.27209 1.55171 0.000 0.000 1.000
v -0.55887 -0.34096 1.55777 0.000 0.000 1.000
v -0.56396 -0.22999 1.54562 0.000 0.000 1.000
v -0.53206 -0.17215 1.45539 0.000 0.000 1.000
v -0.46498 -0.09002 1.37027 0.000 0.000 0.988
v -0.52835 -0.26237 1.46471 0.000 0.000 0.988
v -0.49846 -0.18963 1.40774 0.000 0.000 0.988
v -0.53198 -0.12897 1.50178 0.000 0.000 1.000
v -0.52387 -0.07637 1.42927 0.000 0.000 0.949
v -0.59429 -0.11061 1.50734 0.000 0.000 0.988
v -0.61561 -0.12393 1.59732 0.000 0.000 1.000
v -0.51164 -0.16385 1.58877 0.000 0.000 1.000
v -0.53834 -0.13219 1.68959 0.000 0.000 1.000
v -0.48102 -0.18574 1.69195 0.000 0.000 1.000
v -0.26964 -0.13421 2.13026 0.000 0.000 1.000
v -0.38921 -0.21256 1.39208 0.000 0.000 0.922
v -0.50659 -0.30384 1.46075 0.000 0.000 0.988
v -0.40875 -0.29221 1.48392 0.000 0.000 1.000
v -0.55887 -0.34096 1.55777 0.000 0.000 1.000
v -0.48650 -0.34596 1.69040 0.000 0.000 1.000
v -0.37237 -0.36832 1.67933 0.000 0.000 1.000
v -0.20409 -0.23776 2.09822 0.000 0.000 1.000
v -0.27140 -0.38475 1.83546 0.000 0.000 1.000
v -0.40248 -0.52065 1.61528 0.000 0.000 1.000
v -0.12400 -0.33462 2.13692 0.000 0.000 1.000
v -0.40970 -0.44208 1.48601 0.000 0.000 1.000
v -0.40415 -0.34177 1.43215 0.000 0.000 0.988
v -0.05886 -0.11322 2.37276 0.000 0.000 1.000
v -0.06516 -0.29880 2.36772 0.000 0.000 1.000
v -0.04050 -0.21096 2.43441 0.000 0.000 1.000
v -0.04823 -0.25632 2.46420 0.000 0.000 0.988
v 0.00954 -0.16632 2.60514 0.000 0.000 1.000
v -0.02520 -0.22946 2.60820 0.000 0.000 0.988
v -0.00720 -0.22012 2.68740 0.000 0.000 0.961
v 0.07074 -0.15898 2.69154 0.000 0.000 0.961
v 0.00270 -0.20185 2.76210 0.000 0.000 0.922
v -0.02286 -0.09540 2.50434 0.000 0.000 1.000
v -0.28922 -0.51174 1.84707 0.000 0.000 1.000
v -0.27140 -0.38475 1.83546 0.000 0.000 1.000
v -0.29111 -0.44545 1.68826 0.000 0.000 1.000
v -0.30685 -0.53185 1.72678 0.000 0.000 1.000
v -0.31522 -0.51833 1.62076 0.000 0.000 1.000
v -0.30856 -0.47864 1.52455 0.000 0.000 1.000
v -0.29789 -0.43101 1.53603 0.000 0.000 1.000
v -0.28790 -0.39532 1.44711 0.000 0.000 0.988
v -0.40248 -0.52065 1.61528 0.000 0.000 1.000
v -0.37161 -0.47732 1.51781 0.000 0.000 0.988
v -0.29789 -0.43101 1.53603 0.000 0.000 1.000
v -0.28790 -0.39532 1.44711 0.000 0.000 0.988
v -0.19962 0.00000 2.80980 0.000 0.000 0.929
v -0.17460 0.08442 2.80980 0.000 0.000 0.929
v -0.18792 0.09216 2.76210 0.000 0.000 0.843
v -0.21402 0.00000 2.76210 0.000 0.000 0.843
v -0.17082 0.00000 2.85084 0.000 0.000 0.976
v -0.15030 0.07020 2.85084 0.000 0.000 0.976
v -0.12870 0.00000 2.88234 0.000 0.000 0.988
v -0.11430 0.04860 2.88234 0.000 0.000 0.988
v -0.05778 0.00000 2.90214 0.000 0.000 0.988
v -0.18792 -0.09216 2.76210 0.000 0.000 0.843
v -0.17460 -0.08442 2.80980 0.000 0.000 0.929
v -0.15030 -0.07020 2.85084 0.000 0.000 0.976
v -0.11430 -0.04860 2.88234 0.000 0.000 0.988
v -0.22662 0.11340 2.63520 0.000 0.000 0.988
v -0.25272 0.00000 2.64060 0.000 0.000 0.988
v -0.31816 0.17082 2.41326 0.000 0.000 1.000
v -0.34984 0.00000 2.41164 0.000 0.000 1.000
v -0.40980 0.00000 2.30490 0.000 0.000 0.988
v -0.45699 0.13421 2.16686 0.000 0.000 0.988
v -0.42985 0.25978 2.09822 0.000 0.000 0.988
v -0.53715 0.00000 2.07306 0.000 0.000 0.976
v -0.58585 0.18115 1.87211 0.000 0.000 0.906
v -0.53733 0.28053 1.81764 0.000 0.000 0.922
v -0.62291 0.22381 1.69195 0.000 0.000 0.820
v -0.57186 0.27086 1.67794 0.000 0.000 0.875
v -0.62964 0.21890 1.58877 0.000 0.000 0.914
v -0.56396 0.22999 1.54562 0.000 0.000 1.000
v -0.61028 0.18247 1.51128 0.000 0.000 0.945
v -0.58831 0.14432 1.46417 0.000 0.000 0.945
v -0.54568 0.15662 1.47143 0.000 0.000 1.000
v -0.52387 0.07637 1.42927 0.000 0.000 0.949
v -0.59429 0.11061 1.50734 0.000 0.000 0.988
v -0.63980 0.00000 1.84480 0.000 0.000 0.831
v -0.61442 0.13219 1.68959 0.000 0.000 0.882
v -0.66830 0.00000 1.69459 0.000 0.000 0.788
v -0.66573 0.00356 1.60772 0.000 0.000 0.882
v -0.61561 0.12393 1.59732 0.000 0.000 1.000
v -0.60610 0.09522 1.51373 0.000 0.000 1.000
v -0.64458 0.00621 1.53205 0.000 0.000 0.914
v -0.58809 0.05567 1.45809 0.000 0.000 1.000
v -0.56840 0.00434 1.41809 0.000 0.000 0.988
v -0.61561 0.12393 1.59732 0.000 0.000 1.000
v -0.61442 -0.13219 1.68959 0.000 0.000 0.882
v -0.66573 -0.00356 1.60772 0.000 0.000 0.882
v -0.61561 -0.12393 1.59732 0.000 0.000 1.000
v -0.60610 -0.09522 1.51373 0.000 0.000 1.000
v -0.64458 -0.00621 1.53205 0.000 0.000 0.914
v -0.58809 -0.05567 1.45809 0.000 0.000 1.000
v -0.56840 -0.00434 1.41809 0.000 0.000 0.988
v -0.58585 -0.18115 1.87211 0.000 0.000 0.906
v -0.62291 -0.22381 1.69195 0.000 0.000 0.820
v -0.53733 -0.28053 1.81764 0.000 0.000 0.922
v -0.42985 -0.25978 2.09822 0.000 0.000 0.988
v -0.57186 -0.27086 1.67794 0.000 0.000 0.875
v -0.62964 -0.21890 1.58877 0.000 0.000 0.914
v -0.56396 -0.22999 1.54562 0.000 0.000 1.000
v -0.61028 -0.18247 1.51128 0.000 0.000 0.945
v -0.58831 -0.14432 1.46417 0.000 0.000 0.945
v -0.54568 -0.15662 1.47143 0.000 0.000 1.000
v -0.52387 -0.07637 1.42927 0.000 0.000 0.988
v -0.59429 -0.11061 1.50734 0.000 0.000 0.988
v -0.61561 -0.12393 1.59732 0.000 0.000 1.000
v -0.45699 -0.13421 2.16686 0.000 0.000 0.988
v -0.31816 -0.17082 2.41326 0.000 0.000 1.000
v -0.22662 -0.11340 2.63520 0.000 0.000 0.988
v -0.17460 0.08442 2.80980 0.000 0.000 0.929
v -0.09432 0.14634 2.80980 0.000 0.000 0.929
v -0.10566 0.15984 2.76210 0.000 0.000 0.863
v -0.18792 0.09216 2.76210 0.000 0.000 0.843
v -0.15030 0.07020 2.85084 0.000 0.000 0.976
v -0.07992 0.12366 2.85084 0.000 0.000 0.976
v -0.11430 0.04860 2.88234 0.000 0.000 0.988
v -0.05940 0.09072 2.88234 0.000 0.000 0.988
v -0.02790 0.04284 2.90214 0.000 0.000 0.988
v -0.05778 0.00000 2.90214 0.000 0.000 0.988
v 0.00000 0.00000 2.90790 0.000 0.000 0.988
v -0.02790 -0.04284 2.90214 0.000 0.000 0.988
v -0.11430 -0.04860 2.88234 0.000 0.000 0.988
v -0.05940 -0.09072 2.88234 0.000 0.000 0.988
v -0.07992 -0.12366 2.85084 0.000 0.000 0.976
v -0.15030 -0.07020 2.85084 0.000 0.000 0.976
v -0.09432 -0.14634 2.80980 0.000 0.000 0.929
v -0.17460 -0.08442 2.80980 0.000 0.000 0.929
v -0.10566 -0.15984 2.76210 0.000 0.000 0.863
v -0.18792 -0.09216 2.76210 0.000 0.000 0.843
v -0.15048 -0.19062 2.62170 0.000 0.000 0.988
v -0.22662 -0.11340 2.63520 0.000 0.000 0.988
v -0.31816 -0.17082 2.41326 0.000 0.000 1.000
v -0.23443 -0.25866 2.40678 0.000 0.000 1.000
v -0.34948 -0.36518 2.13255 0.000 0.000 0.988
v -0.42985 -0.25978 2.09822 0.000 0.000 0.988
v -0.53197 -0.37431 1.82385 0.000 0.000 0.965
v -0.47170 -0.48852 1.83006 0.000 0.000 0.894
v -0.51204 -0.51235 1.69173 0.000 0.000 0.800
v -0.57415 -0.37735 1.69040 0.000 0.000 0.894
v -0.51950 -0.49520 1.55050 0.000 0.000 0.894
v -0.55887 -0.34096 1.55777 0.000 0.000 1.000
v -0.56396 -0.22999 1.54562 0.000 0.000 1.000
v -0.57186 -0.27086 1.67794 0.000 0.000 0.875
v -0.53733 -0.28053 1.81764 0.000 0.000 0.922
v -0.49791 -0.42757 1.45211 0.000 0.000 0.914
v -0.50659 -0.30384 1.46075 0.000 0.000 0.988
v -0.44557 -0.31345 1.40639 0.000 0.000 0.922
v -0.38921 -0.21256 1.39208 0.000 0.000 0.988
v -0.53206 -0.17215 1.45539 0.000 0.000 1.000
v -0.52835 -0.26237 1.46471 0.000 0.000 0.988
v -0.49846 -0.18963 1.40774 0.000 0.000 0.988
v -0.46498 -0.09002 1.37027 0.000 0.000 0.988
v -0.10566 0.15984 2.76210 0.000 0.000 0.863
v 0.00000 0.17845 2.80980 0.000 0.000 0.929
v 0.00270 0.20185 2.76210 0.000 0.000 0.910
v -0.09432 0.14634 2.80980 0.000 0.000 0.929
v 0.00000 0.14765 2.85084 0.000 0.000 0.976
v -0.07992 0.12366 2.85084 0.000 0.000 0.976
v -0.05940 0.09072 2.88234 0.000 0.000 0.988
v 0.00000 0.10651 2.88234 0.000 0.000 0.988
v -0.02790 0.04284 2.90214 0.000 0.000 0.988
v 0.02430 0.05846 2.90214 0.000 0.000 0.988
v 0.00000 0.00000 2.90790 0.000 0.000 0.988
v 0.04554 0.00000 2.90572 0.000 0.000 1.000
v 0.02430 -0.05846 2.90214 0.000 0.000 0.988
v -0.02790 -0.04284 2.90214 0.000 0.000 0.988
v 0.00000 -0.10651 2.88234 0.000 0.000 0.988
v -0.05940 -0.09072 2.88234 0.000 0.000 0.988
v 0.00000 -0.14765 2.85084 0.000 0.000 0.976
v -0.07992 -0.12366 2.85084 0.000 0.000 0.976
v -0.09432 -0.14634 2.80980 0.000 0.000 0.929
v 0.00000 -0.17845 2.80980 0.000 0.000 0.929
v -0.10566 -0.15984 2.76210 0.000 0.000 0.863
v 0.00270 -0.20185 2.76210 0.000 0.000 0.910
v -0.00720 -0.22012 2.68740 0.000 0.000 0.961
v -0.07254 -0.21780 2.61162 0.000 0.000 0.988
v -0.15048 -0.19062 2.62170 0.000 0.000 0.988
v -0.04823 -0.25632 2.46420 0.000 0.000 0.988
v -0.02520 -0.22946 2.60820 0.000 0.000 0.988
v -0.06516 -0.29880 2.36772 0.000 0.000 1.000
v -0.23443 -0.25866 2.40678 0.000 0.000 1.000
v -0.24941 -0.40784 2.14191 0.000 0.000 0.988
v -0.10782 -0.38356 2.15064 0.000 0.000 1.000
v -0.20979 -0.53102 1.95755 0.000 0.000 0.914
v -0.13644 -0.49586 1.94720 0.000 0.000 1.000
v -0.28320 -0.48978 1.94987 0.000 0.000 0.988
v -0.21734 -0.57998 1.84226 0.000 0.000 0.875
v -0.28922 -0.51174 1.84707 0.000 0.000 1.000
v -0.28309 -0.54722 1.70188 0.000 0.000 1.000
v -0.21612 -0.60750 1.69468 0.000 0.000 0.820
v -0.20783 -0.59116 1.57817 0.000 0.000 0.875
v -0.25511 -0.53707 1.58438 0.000 0.000 1.000
v -0.15498 -0.50490 1.46421 0.000 0.000 0.984
v -0.18767 -0.47907 1.48226 0.000 0.000 1.000
v -0.07438 -0.39751 1.41662 0.000 0.000 0.988
v -0.14310 -0.53782 1.82462 0.000 0.000 1.000
v -0.15021 -0.56563 1.69882 0.000 0.000 1.000
v -0.20783 -0.59116 1.57817 0.000 0.000 0.875
v -0.14654 -0.55082 1.58458 0.000 0.000 1.000
v -0.12266 -0.50080 1.48309 0.000 0.000 1.000
v -0.15498 -0.50490 1.46421 0.000 0.000 0.984
v -0.07438 -0.39751 1.41662 0.000 0.000 0.988
v 0.00000 0.17845 2.80980 0.000 0.000 0.929
v 0.04950 0.16578 2.80980 0.000 0.000 0.929
v 0.00270 0.20185 2.76210 0.000 0.000 0.910
v 0.00000 0.14765 2.85084 0.000 0.000 0.976
v 0.08262 0.12402 2.85084 0.000 0.000 0.933
v 0.00000 0.10651 2.88234 0.000 0.000 0.988
v 0.06371 0.09342 2.88234 0.000 0.000 0.988
v 0.02430 0.05846 2.90214 0.000 0.000 0.988
v 0.05580 0.17964 2.76120 0.000 0.000 0.929
v -0.00720 0.22012 2.68740 0.000 0.000 0.961
v 0.03125 0.21442 2.60726 0.000 0.000 0.988
v -0.02520 0.22946 2.60820 0.000 0.000 0.988
v -0.01232 0.26219 2.46593 0.000 0.000 0.988
v -0.05010 0.26987 2.47342 0.000 0.000 1.000
v -0.05155 0.30298 2.39110 0.000 0.000 1.000
v -0.08779 0.30485 2.40145 0.000 0.000 1.000
v -0.13046 0.35014 2.30702 0.000 0.000 0.988
v -0.14577 0.34461 2.32171 0.000 0.000 1.000
v -0.22523 0.39074 2.25214 0.000 0.000 0.988
v 0.10781 0.05040 2.88234 0.000 0.000 0.988
v 0.04554 0.00000 2.90572 0.000 0.000 1.000
v 0.12839 0.00000 2.88234 0.000 0.000 0.988
v 0.02430 0.05846 2.90214 0.000 0.000 0.988
v 0.06371 0.09342 2.88234 0.000 0.000 0.988
v 0.08262 0.12402 2.85084 0.000 0.000 0.933
v 0.13320 0.07470 2.85084 0.000 0.000 0.949
v 0.13320 0.07470 2.85084 0.000 0.000 0.949
v 0.15912 0.00000 2.85084 0.000 0.000 0.949
v 0.11630 -0.05040 2.88234 0.000 0.000 0.988
v 0.02430 -0.05846 2.90214 0.000 0.000 0.988
v 0.07640 -0.09342 2.88234 0.000 0.000 0.988
v 0.08262 -0.12402 2.85084 0.000 0.000 0.933
v 0.13320 -0.07470 2.85084 0.000 0.000 0.949
v 0.13320 -0.07470 2.85084 0.000 0.000 0.949
v 0.00000 -0.17845 2.80980 0.000 0.000 0.929
v 0.00270 -0.20185 2.76210 0.000 0.000 0.910
v 0.04950 -0.16578 2.80980 0.000 0.000 0.929
v 0.00000 -0.14765 2.85084 0.000 0.000 0.976
v 0.08262 -0.12402 2.85084 0.000 0.000 0.933
v 0.00000 -0.10651 2.88234 0.000 0.000 0.988
v 0.07640 -0.09342 2.88234 0.000 0.000 0.988
v 0.02430 -0.05846 2.90214 0.000 0.000 0.988
v 0.05580 -0.17964 2.76120 0.000 0.000 0.929
v -0.00720 -0.22012 2.68740 0.000 0.000 0.961
v 0.03125 -0.21442 2.60726 0.000 0.000 0.988
v -0.02520 -0.22946 2.60820 0.000 0.000 0.988
v -0.01232 -0.26219 2.46593 0.000 0.000 0.988
v -0.05010 -0.26987 2.47342 0.000 0.000 1.000
v -0.05155 -0.30298 2.39110 0.000 0.000 1.000
v -0.08779 -0.30485 2.40145 0.000 0.000 1.000
v -0.13046 -0.35014 2.30702 0.000 0.000 0.988
v -0.14577 -0.34461 2.32171 0.000 0.000 1.000
v -0.22523 -0.39074 2.25214 0.000 0.000 0.988
v -0.37161 0.47732 1.51781 0.000 0.000 0.988
v -0.30856 0.47864 1.52455 0.000 0.000 1.000
v -0.28790 0.39532 1.44711 0.000 0.000 0.988
v -0.31522 0.51833 1.62076 0.000 0.000 1.000
v -0.40248 0.52065 1.61528 0.000 0.000 1.000
v -0.30685 0.53185 1.72678 0.000 0.000 0.945
v -0.51204 0.51235 1.69173 0.000 0.000 0.800
v -0.28922 0.51174 1.84707 0.000 0.000 1.000
v -0.47170 0.48852 1.83006 0.000 0.000 0.894
v -0.28320 0.48978 1.94987 0.000 0.000 0.988
v -0.24941 0.40784 2.14191 0.000 0.000 0.988
v -0.34948 0.36518 2.13255 0.000 0.000 0.988
v -0.51950 0.49520 1.55050 0.000 0.000 0.894
v -0.40970 0.44208 1.48601 0.000 0.000 1.000
v -0.49791 0.42757 1.45211 0.000 0.000 0.914
v -0.44557 0.31345 1.40639 0.000 0.000 0.922
v -0.40415 0.34177 1.43215 0.000 0.000 0.988
v -0.38921 0.21256 1.39208 0.000 0.000 0.922
v -0.23443 0.25866 2.40678 0.000 0.000 1.000
v -0.15498 0.50490 1.46421 0.000 0.000 0.984
v -0.07438 0.39751 1.41662 0.000 0.000 0.988
v -0.18767 0.47907 1.48226 0.000 0.000 1.000
v -0.25511 0.53707 1.58438 0.000 0.000 1.000
v -0.20783 0.59116 1.57817 0.000 0.000 0.875
v -0.28309 0.54722 1.70188 0.000 0.000 1.000
v -0.21612 0.60750 1.69468 0.000 0.000 0.820
v -0.21734 0.57998 1.84226 0.000 0.000 0.875
v -0.28922 0.51174 1.84707 0.000 0.000 1.000
v -0.28320 0.48978 1.94987 0.000 0.000 0.988
v -0.20979 0.53102 1.95755 0.000 0.000 0.914
v -0.24941 0.40784 2.14191 0.000 0.000 0.988
v -0.10782 0.38356 2.15064 0.000 0.000 1.000
v -0.13644 0.49586 1.94720 0.000 0.000 1.000
v -0.06516 0.29880 2.36772 0.000 0.000 1.000
v -0.23443 0.25866 2.40678 0.000 0.000 1.000
v -0.15048 0.19062 2.62170 0.000 0.000 0.988
v -0.04823 0.25632 2.46420 0.000 0.000 0.988
v -0.07254 0.21780 2.61162 0.000 0.000 0.988
v -0.02520 0.22946 2.60820 0.000 0.000 0.988
v -0.00720 0.22012 2.68740 0.000 0.000 0.961
v -0.14310 0.53782 1.82462 0.000 0.000 1.000
v -0.15021 0.56563 1.69882 0.000 0.000 1.000
v -0.20783 0.59116 1.57817 0.000 0.000 0.875
v -0.14654 0.55082 1.58458 0.000 0.000 1.000
v -0.12266 0.50080 1.48309 0.000 0.000 1.000
v -0.15498 0.50490 1.46421 0.000 0.000 0.984
v -0.07438 0.39751 1.41662 0.000 0.000 0.988
v -0.07144 0.26136 2.50254 0.000 0.000 0.988
v -0.11242 0.24390 2.48976 0.000 0.000 0.988
v -0.07254 0.21780 2.61162 0.000 0.000 0.988
v -0.11897 0.30429 2.41504 0.000 0.000 1.000
v -0.02520 0.22946 2.60820 0.000 0.000 0.988
v -0.15259 0.28953 2.40280 0.000 0.000 1.000
v -0.15800 0.34456 2.35834 0.000 0.000 0.988
v -0.18812 0.33520 2.34160 0.000 0.000 0.988
v -0.18850 0.39060 2.31853 0.000 0.000 0.988
v -0.21036 0.37726 2.30517 0.000 0.000 0.988
v -0.21689 0.41188 2.29201 0.000 0.000 0.988
v -0.19929 0.43565 2.30175 0.000 0.000 0.988
v -0.20994 0.45832 2.29012 0.000 0.000 0.988
v -0.19923 0.46278 2.29826 0.000 0.000 0.988
v -0.19059 0.49783 2.30227 0.000 0.000 0.988
v -0.22392 0.40720 2.28458 0.000 0.000 0.988
v -0.23302 0.44309 2.26917 0.000 0.000 0.988
v -0.21078 0.48184 2.07410 0.000 0.000 0.949
v -0.16056 0.38950 2.19379 0.000 0.000 1.000
v -0.15444 0.37037 2.17625 0.000 0.000 1.000
v -0.10926 0.30060 2.33424 0.000 0.000 1.000
v -0.15048 0.19062 2.62170 0.000 0.000 0.988
v -0.22662 0.11340 2.63520 0.000 0.000 0.988
v -0.31816 0.17082 2.41326 0.000 0.000 1.000
v -0.23443 0.25866 2.40678 0.000 0.000 1.000
v -0.34948 0.36518 2.13255 0.000 0.000 0.988
v -0.42985 0.25978 2.09822 0.000 0.000 0.988
v -0.53197 0.37431 1.82385 0.000 0.000 0.965
v -0.47170 0.48852 1.83006 0.000 0.000 0.894
v -0.51204 0.51235 1.69173 0.000 0.000 0.800
v -0.57415 0.37735 1.69040 0.000 0.000 0.894
v -0.51950 0.49520 1.55050 0.000 0.000 0.894
v -0.55887 0.34096 1.55777 0.000 0.000 1.000
v -0.56396 0.22999 1.54562 0.000 0.000 1.000
v -0.57186 0.27086 1.67794 0.000 0.000 0.875
v -0.53733 0.28053 1.81764 0.000 0.000 0.922
v -0.49791 0.42757 1.45211 0.000 0.000 0.914
v -0.50659 0.30384 1.46075 0.000 0.000 0.988
v -0.44557 0.31345 1.40639 0.000 0.000 0.922
v -0.38921 0.21256 1.39208 0.000 0.000 0.922
v -0.53206 0.17215 1.45539 0.000 0.000 1.000
v -0.52835 0.26237 1.46471 0.000 0.000 0.988
v -0.49846 0.18963 1.40774 0.000 0.000 0.988
v -0.46498 0.09002 1.37027 0.000 0.000 0.988
v -0.37161 -0.47732 1.51781 0.000 0.000 0.988
v -0.28790 -0.39532 1.44711 0.000 0.000 0.988
v -0.30856 -0.47864 1.52455 0.000 0.000 1.000
v -0.31522 -0.51833 1.62076 0.000 0.000 1.000
v -0.40248 -0.52065 1.61528 0.000 0.000 1.000
v -0.30685 -0.53185 1.72678 0.000 0.000 0.945
v -0.51204 -0.51235 1.69173 0.000 0.000 0.800
v -0.28922 -0.51174 1.84707 0.000 0.000 1.000
v -0.47170 -0.48852 1.83006 0.000 0.000 0.894
v -0.28320 -0.48978 1.94987 0.000 0.000 0.988
v -0.24941 -0.40784 2.14191 0.000 0.000 0.988
v -0.34948 -0.36518 2.13255 0.000 0.000 0.988
v -0.51950 -0.49520 1.55050 0.000 0.000 0.894
v -0.40970 -0.44208 1.48601 0.000 0.000 1.000
v -0.49791 -0.42757 1.45211 0.000 0.000 0.914
v -0.44557 -0.31345 1.40639 0.000 0.000 0.922
v -0.40415 -0.34177 1.43215 0.000 0.000 0.988
v -0.38921 -0.21256 1.39208 0.000 0.000 0.988
v -0.23443 -0.25866 2.40678 0.000 0.000 1.000
v -0.07144 -0.26136 2.50254 0.000 0.000 0.988
v -0.07254 -0.21780 2.61162 0.000 0.000 0.988
v -0.11242 -0.24390 2.48976 0.000 0.000 0.988
v -0.11897 -0.30429 2.41504 0.000 0.000 1.000
v -0.02520 -0.22946 2.60820 0.000 0.000 0.988
v -0.15259 -0.28953 2.40280 0.000 0.000 1.000
v -0.15800 -0.34456 2.35834 0.000 0.000 0.988
v -0.18812 -0.33520 2.34160 0.000 0.000 0.988
v -0.18850 -0.39060 2.31853 0.000 0.000 0.988
v -0.21036 -0.37726 2.30517 0.000 0.000 0.988
v -0.21689 -0.41188 2.29201 0.000 0.000 0.988
v -0.19929 -0.43565 2.30175 0.000 0.000 0.988
v -0.20994 -0.45832 2.29012 0.000 0.000 0.988
v -0.19923 -0.46278 2.29826 0.000 0.000 0.988
v -0.19059 -0.49783 2.30227 0.000 0.000 0.988
v -0.22392 -0.40720 2.28458 0.000 0.000 0.988
v -0.23302 -0.44309 2.26917 0.000 0.000 0.988
v -0.21078 -0.48184 2.07410 0.000 0.000 0.949
v -0.15444 -0.37037 2.17625 0.000 0.000 1.000
v -0.16056 -0.38950 2.19379 0.000 0.000 1.000
v -0.10926 -0.30060 2.33424 0.000 0.000 1.000
v -0.01232 0.26219 2.46593 0.000 0.000 0.988
v 0.03125 0.21442 2.60726 0.000 0.000 0.988
v 0.01361 0.24394 2.45842 0.000 0.000 0.988
v -0.05155 0.30298 2.39110 0.000 0.000 1.000
v -0.03732 0.28152 2.38075 0.000 0.000 1.000
v -0.11904 0.33682 2.29664 0.000 0.000 1.000
v -0.13046 0.35014 2.30702 0.000 0.000 0.988
v -0.22523 0.39074 2.25214 0.000 0.000 0.988
v 0.07549 0.18608 2.39197 0.000 0.000 0.988
v 0.04162 0.20603 2.38621 0.000 0.000 1.000
v 0.04870 0.20794 2.45860 0.000 0.000 0.988
v 0.01361 0.24394 2.45842 0.000 0.000 0.988
v 0.12056 0.13882 2.34545 0.000 0.000 0.988
v 0.09796 0.15053 2.33811 0.000 0.000 1.000
v 0.16565 0.07204 2.32097 0.000 0.000 0.988
v 0.04490 0.18200 2.60820 0.000 0.000 0.988
v 0.06231 0.15752 2.45876 0.000 0.000 1.000
v 0.07549 0.18608 2.39197 0.000 0.000 0.988
v 0.09423 0.14420 2.39773 0.000 0.000 1.000
v 0.12056 0.13882 2.34545 0.000 0.000 0.988
v 0.12756 0.11794 2.35280 0.000 0.000 1.000
v 0.16565 0.07204 2.32097 0.000 0.000 0.988
v 0.03125 0.21442 2.60726 0.000 0.000 0.988
v 0.04490 0.18200 2.60820 0.000 0.000 0.988
v 0.04870 0.20794 2.45860 0.000 0.000 0.988
v 0.01361 0.24394 2.45842 0.000 0.000 0.988
v 0.05580 0.17964 2.76120 0.000 0.000 0.929
v -0.00000 0.25655 2.34976 0.000 0.000 1.000
v -0.03441 0.28091 2.36234 0.000 0.000 1.000
v -0.06431 0.33644 2.18515 0.000 0.000 1.000
v -0.01985 0.30521 2.18221 0.000 0.000 0.988
v -0.01746 0.31964 2.09052 0.000 0.000 0.988
v -0.06991 0.35323 2.08917 0.000 0.000 1.000
v 0.00867 0.31894 1.97006 0.000 0.000 0.988
v -0.04918 0.34915 1.98023 0.000 0.000 1.000
v 0.01009 0.32101 1.87412 0.000 0.000 1.000
v 0.05033 0.30137 1.88057 0.000 0.000 0.988
v 0.08917 0.25070 1.82290 0.000 0.000 1.000
v -0.01985 0.30521 2.18221 0.000 0.000 0.988
v -0.00000 0.25655 2.34976 0.000 0.000 1.000
v -0.00368 0.22995 2.17930 0.000 0.000 1.000
v 0.01053 0.22018 2.34378 0.000 0.000 1.000
v 0.00389 0.22754 2.09187 0.000 0.000 1.000
v -0.01746 0.31964 2.09052 0.000 0.000 0.988
v 0.00867 0.30586 2.00740 0.000 0.000 0.988
v 0.02900 0.21629 2.01706 0.000 0.000 1.000
v 0.05033 0.24894 1.94443 0.000 0.000 0.988
v 0.07100 0.19998 1.95062 0.000 0.000 1.000
v 0.11535 0.17465 1.90708 0.000 0.000 1.000
v 0.04870 0.20794 2.45860 0.000 0.000 0.988
v -0.02520 0.22946 2.60820 0.000 0.000 0.988
v 0.01361 0.24394 2.45842 0.000 0.000 0.988
v -0.07479 0.24611 2.36772 0.000 0.000 1.000
v -0.03732 0.28152 2.38075 0.000 0.000 1.000
v -0.03441 0.28091 2.36234 0.000 0.000 1.000
v -0.05749 0.37325 2.17147 0.000 0.000 1.000
v -0.10983 0.35703 2.16634 0.000 0.000 1.000
v -0.05549 0.42863 2.04869 0.000 0.000 1.000
v -0.11209 0.41164 2.04019 0.000 0.000 0.988
v -0.09165 0.43684 1.93010 0.000 0.000 0.988
v -0.03960 0.45106 1.93437 0.000 0.000 1.000
v -0.03558 0.42077 1.82225 0.000 0.000 0.988
v -0.01037 0.41945 1.83348 0.000 0.000 1.000
v 0.07440 0.33701 1.77093 0.000 0.000 0.988
v -0.10983 0.35703 2.16634 0.000 0.000 1.000
v -0.13908 0.29012 2.16887 0.000 0.000 1.000
v -0.14456 0.34319 2.03204 0.000 0.000 1.000
v -0.11209 0.41164 2.04019 0.000 0.000 0.988
v -0.12064 0.37229 1.91948 0.000 0.000 1.000
v -0.09165 0.43684 1.93010 0.000 0.000 0.984
v -0.04854 0.42077 1.82225 0.000 0.000 0.984
v -0.06511 0.37019 1.81386 0.000 0.000 1.000
v 0.04244 0.33701 1.77093 0.000 0.000 0.988
v -0.01232 -0.26219 2.46593 0.000 0.000 0.988
v 0.01361 -0.24394 2.45842 0.000 0.000 0.988
v 0.03125 -0.21442 2.60726 0.000 0.000 0.988
v -0.05155 -0.30298 2.39110 0.000 0.000 1.000
v -0.03732 -0.28152 2.38075 0.000 0.000 1.000
v -0.11904 -0.33682 2.29664 0.000 0.000 1.000
v -0.13046 -0.35014 2.30702 0.000 0.000 0.988
v -0.22523 -0.39074 2.25214 0.000 0.000 0.988
v 0.07549 -0.18608 2.39197 0.000 0.000 0.988
v 0.04870 -0.20794 2.45860 0.000 0.000 0.988
v 0.04162 -0.20603 2.38621 0.000 0.000 1.000
v 0.01361 -0.24394 2.45842 0.000 0.000 0.988
v 0.12056 -0.13882 2.34545 0.000 0.000 0.988
v 0.09796 -0.15053 2.33811 0.000 0.000 1.000
v 0.16565 -0.07204 2.32097 0.000 0.000 0.988
v 0.04490 -0.18200 2.60820 0.000 0.000 0.988
v 0.06231 -0.15752 2.45876 0.000 0.000 1.000
v 0.07549 -0.18608 2.39197 0.000 0.000 0.988
v 0.09423 -0.14420 2.39773 0.000 0.000 1.000
v 0.12056 -0.13882 2.34545 0.000 0.000 0.988
v 0.12756 -0.11794 2.35280 0.000 0.000 1.000
v 0.16565 -0.07204 2.32097 0.000 0.000 0.988
v 0.03125 -0.21442 2.60726 0.000 0.000 0.988
v 0.04870 -0.20794 2.45860 0.000 0.000 0.988
v 0.04490 -0.18200 2.60820 0.000 0.000 0.988
v 0.01361 -0.24394 2.45842 0.000 0.000 0.988
v 0.05580 -0.17964 2.76120 0.000 0.000 0.929
v -0.00000 -0.25655 2.34976 0.000 0.000 1.000
v -0.03441 -0.28091 2.36234 0.000 0.000 1.000
v -0.06431 -0.33644 2.18515 0.000 0.000 1.000
v -0.01985 -0.30521 2.18221 0.000 0.000 0.988
v -0.01746 -0.31964 2.09052 0.000 0.000 0.988
v -0.06991 -0.35323 2.08917 0.000 0.000 1.000
v 0.00867 -0.31894 1.97006 0.000 0.000 0.988
v -0.04918 -0.34915 1.98023 0.000 0.000 1.000
v 0.01009 -0.32101 1.87412 0.000 0.000 1.000
v 0.05033 -0.30137 1.88057 0.000 0.000 0.988
v 0.08917 -0.25070 1.82290 0.000 0.000 1.000
v -0.01985 -0.30521 2.18221 0.000 0.000 0.988
v -0.00368 -0.22995 2.17930 0.000 0.000 1.000
v -0.00000 -0.25655 2.34976 0.000 0.000 1.000
v 0.01053 -0.22018 2.34378 0.000 0.000 1.000
v 0.00389 -0.22754 2.09187 0.000 0.000 1.000
v -0.01746 -0.31964 2.09052 0.000 0.000 0.988
v 0.00867 -0.30586 2.00740 0.000 0.000 0.988
v 0.02900 -0.21629 2.01706 0.000 0.000 1.000
v 0.05033 -0.24894 1.94443 0.000 0.000 0.988
v 0.07100 -0.19998 1.95062 0.000 0.000 1.000
v 0.11535 -0.17465 1.90708 0.000 0.000 1.000
v 0.04870 -0.20794 2.45860 0.000 0.000 0.988
v -0.02520 -0.22946 2.60820 0.000 0.000 0.988
v -0.07479 -0.24611 2.36772 0.000 0.000 1.000
v 0.01361 -0.24394 2.45842 0.000 0.000 0.988
v -0.03732 -0.28152 2.38075 0.000 0.000 1.000
v -0.03441 -0.28091 2.36234 0.000 0.000 1.000
v -0.05749 -0.37325 2.17147 0.000 0.000 1.000
v -0.10983 -0.35703 2.16634 0.000 0.000 1.000
v -0.05549 -0.42863 2.04869 0.000 0.000 1.000
v -0.11209 -0.41164 2.04019 0.000 0.000 0.988
v -0.09165 -0.43684 1.93010 0.000 0.000 0.984
v -0.03960 -0.45106 1.93437 0.000 0.000 1.000
v -0.04854 -0.42077 1.82225 0.000 0.000 0.984
v -0.01037 -0.41945 1.83348 0.000 0.000 1.000
v 0.04244 -0.33701 1.77093 0.000 0.000 0.988
v -0.10983 -0.35703 2.16634 0.000 0.000 1.000
v -0.13908 -0.29012 2.16887 0.000 0.000 1.000
v -0.14456 -0.34319 2.03204 0.000 0.000 1.000
v -0.11209 -0.41164 2.04019 0.000 0.000 0.988
v -0.12064 -0.37229 1.91948 0.000 0.000 1.000
v -0.09165 -0.43684 1.93010 0.000 0.000 0.984
v -0.04854 -0.42077 1.82225 0.000 0.000 0.984
v -0.06511 -0.37019 1.81386 0.000 0.000 1.000
v 0.04244 -0.33701 1.77093 0.000 0.000 0.988
vt 0.64761 0.89165
vt 0.72132 0.89668
vt 0.65628 0.94626
vt 0.69808 0.95699
vt 0.66691 0.99652
vt 0.73275 0.83322
vt 0.64761 0.82565
vt 0.64761 0.71534
vt 0.74234 0.71639
vt 0.64761 0.59087
vt 0.74234 0.57867
vt 0.73345 0.33761
vt 0.64761 0.32966
vt 0.66376 0.18638
vt 0.71410 0.17260
vt 0.69070 0.01190
vt 0.69808 0.95699
vt 0.65628 0.94626
vt 0.72132 0.89668
vt 0.64761 0.89165
vt 0.73275 0.83322
vt 0.64761 0.82565
vt 0.64761 0.71534
vt 0.74234 0.71639
vt 0.64761 0.59087
vt 0.74234 0.57867
vt 0.64761 0.32966
vt 0.73345 0.33761
vt 0.66376 0.18638
vt 0.71410 0.17260
vt 0.69070 0.01190
vt 0.83178 0.82330
vt 0.93087 0.83012
vt 0.84542 0.69642
vt 0.95278 0.69689
vt 0.70869 0.69581
vt 0.74838 0.81796
vt 0.92218 0.55986
vt 0.98760 0.55986
vt 0.81600 0.55986
vt 0.68340 0.55936
vt 0.91958 0.44239
vt 0.98146 0.44239
vt 0.81600 0.44239
vt 0.79347 0.93259
vt 0.91093 0.32983
vt 0.98502 0.32983
vt 0.81600 0.32983
vt 0.90479 0.24143
vt 0.97887 0.24143
vt 0.81600 0.24143
vt 0.89007 0.14406
vt 0.95221 0.14406
vt 0.87331 0.06649
vt 0.92483 0.06649
vt 0.86119 0.00662
vt 0.81600 0.06649
vt 0.81600 0.14406
vt 0.72743 0.14406
vt 0.76216 0.06649
vt 0.70964 0.24143
vt 0.67889 0.32983
vt 0.67362 0.44239
vt 0.84647 0.99357
vt 0.79578 0.82330
vt 0.80942 0.69642
vt 0.89487 0.83012
vt 0.91678 0.69689
vt 0.67849 0.69581
vt 0.71238 0.81796
vt 0.88618 0.55986
vt 0.95160 0.55986
vt 0.78000 0.55986
vt 0.64740 0.55936
vt 0.88358 0.44239
vt 0.97421 0.44239
vt 0.78000 0.44239
vt 0.80383 0.91883
vt 0.75747 0.89324
vt 0.87494 0.32983
vt 0.97777 0.32983
vt 0.78000 0.32983
vt 0.86880 0.24143
vt 0.96570 0.24143
vt 0.78000 0.24143
vt 0.85407 0.14406
vt 0.92467 0.14406
vt 0.83731 0.06649
vt 0.88884 0.06649
vt 0.82519 0.00662
vt 0.78000 0.06649
vt 0.78000 0.14406
vt 0.69143 0.14406
vt 0.72616 0.06649
vt 0.66773 0.24143
vt 0.63866 0.32983
vt 0.63762 0.44239
vt 0.81916 0.69345
vt 0.74571 0.69357
vt 0.73752 0.43333
vt 0.83323 0.45308
vt 0.75000 0.32205
vt 0.81857 0.34666
vt 0.81857 0.22712
vt 0.75000 0.21875
vt 0.81857 0.14188
vt 0.75398 0.12807
vt 0.81857 0.01150
vt 0.79416 0.80577
vt 0.67226 0.81069
vt 0.77405 0.93285
vt 0.63501 0.69369
vt 0.70335 0.95184
vt 0.73862 0.99842
vt 0.74848 0.43333
vt 0.63501 0.41359
vt 0.74848 0.32205
vt 0.64474 0.30583
vt 0.74848 0.21875
vt 0.66418 0.21542
vt 0.68919 0.11425
vt 0.74848 0.12807
vt 0.74848 0.01150
vt 0.48517 0.03610
vt 0.48517 0.00588
vt 0.51459 0.03610
vt 0.48517 0.08156
vt 0.52772 0.08156
vt 0.48475 0.14379
vt 0.53593 0.14379
vt 0.48475 0.22975
vt 0.54496 0.22975
vt 0.54496 0.29296
vt 0.48475 0.29296
vt 0.61658 0.29296
vt 0.61794 0.22975
vt 0.55665 0.14379
vt 0.61794 0.14379
vt 0.56621 0.08156
vt 0.61794 0.08156
vt 0.61794 0.03610
vt 0.58109 0.03610
vt 0.61794 0.00588
vt 0.48475 0.42962
vt 0.61658 0.42169
vt 0.49030 0.69332
vt 0.61658 0.69329
vt 0.51387 0.81686
vt 0.67226 0.81392
vt 0.49562 0.92883
vt 0.58092 0.92415
vt 0.69129 0.69325
vt 0.63026 0.42169
vt 0.80633 0.44551
vt 0.80752 0.36843
vt 0.66406 0.29296
vt 0.80752 0.29296
vt 0.67855 0.22975
vt 0.80752 0.22975
vt 0.70183 0.14379
vt 0.80752 0.14379
vt 0.73006 0.08613
vt 0.80752 0.08613
vt 0.76554 0.04982
vt 0.80752 0.04982
vt 0.80752 0.01961
vt 0.72480 0.04982
vt 0.72480 0.01961
vt 0.68908 0.04982
vt 0.66216 0.08613
vt 0.72480 0.08613
vt 0.62050 0.14379
vt 0.72480 0.14379
vt 0.72480 0.22975
vt 0.59598 0.22975
vt 0.99053 0.20797
vt 0.92630 0.19981
vt 0.99053 0.10677
vt 0.93783 0.10001
vt 0.98601 0.00558
vt 0.91284 0.30423
vt 0.99053 0.31240
vt 0.99053 0.42360
vt 0.91284 0.41445
vt 0.99053 0.69455
vt 0.84251 0.49429
vt 0.84251 0.40407
vt 0.84251 0.29606
vt 0.90322 0.19981
vt 0.84251 0.19165
vt 0.88111 0.10001
vt 0.84251 0.09326
vt 0.84789 0.00558
vt 0.57292 0.18428
vt 0.57292 0.09211
vt 0.64429 0.14455
vt 0.63003 0.08055
vt 0.66450 0.27540
vt 0.57292 0.27138
vt 0.66487 0.37384
vt 0.57292 0.35390
vt 0.67610 0.50703
vt 0.57292 0.48318
vt 0.44956 0.33303
vt 0.46562 0.46260
vt 0.67651 0.69486
vt 0.57292 0.69486
vt 0.47579 0.69486
vt 0.59557 0.81078
vt 0.70176 0.81078
vt 0.77929 0.93660
vt 0.71134 0.93660
vt 0.45408 0.26515
vt 0.47379 0.19547
vt 0.49594 0.10644
vt 0.82544 0.99468
vt 0.54008 0.05167
vt 0.50732 0.06029
vt 0.50970 0.01342
vt 0.56655 0.02579
vt 0.24387 0.40659
vt 0.34919 0.40659
vt 0.23849 0.53706
vt 0.34919 0.53706
vt 0.24819 0.28877
vt 0.34919 0.28877
vt 0.35200 0.18814
vt 0.26243 0.20244
vt 0.35200 0.08059
vt 0.27345 0.11164
vt 0.30255 0.04353
vt 0.35200 0.03692
vt 0.35041 0.00278
vt 0.34919 0.69624
vt 0.25303 0.69624
vt 0.25955 0.81991
vt 0.34919 0.81991
vt 0.33638 0.92124
vt 0.20229 0.92124
vt 0.14439 0.81991
vt 0.26848 0.99303
vt 0.14439 0.69624
vt 0.14439 0.53706
vt 0.25459 0.53706
vt 0.24789 0.40659
vt 0.14439 0.40659
vt 0.24254 0.28877
vt 0.14439 0.28877
vt 0.14439 0.21197
vt 0.23828 0.20244
vt 0.14439 0.12959
vt 0.22757 0.11164
vt 0.19705 0.04353
vt 0.14484 0.08292
vt 0.14484 0.05015
vt 0.14484 0.00278
vt 0.74310 0.00262
vt 0.74310 0.04189
vt 0.70492 0.06273
vt 0.67068 0.09918
vt 0.74310 0.07643
vt 0.65791 0.20124
vt 0.74310 0.12959
vt 0.74310 0.21197
vt 0.64970 0.30397
vt 0.74310 0.30397
vt 0.74310 0.40659
vt 0.64970 0.40659
vt 0.74310 0.53706
vt 0.64970 0.53706
vt 0.74310 0.69624
vt 0.64970 0.69624
vt 0.74310 0.81791
vt 0.63374 0.81791
vt 0.74310 0.89788
vt 0.68643 0.89788
vt 0.59591 0.92410
vt 0.56754 0.81791
vt 0.73411 0.99303
vt 0.56754 0.69624
vt 0.56754 0.53706
vt 0.56754 0.40659
vt 0.56754 0.30397
vt 0.64970 0.20124
vt 0.56754 0.17443
vt 0.63439 0.09918
vt 0.56754 0.09087
vt 0.62047 0.06314
vt 0.56754 0.02686
vt 0.41330 0.40835
vt 0.34977 0.40822
vt 0.41330 0.32440
vt 0.34977 0.32435
vt 0.41330 0.22833
vt 0.34977 0.22830
vt 0.41311 0.15252
vt 0.35647 0.13179
vt 0.41311 0.07400
vt 0.37561 0.07535
vt 0.41311 0.00654
vt 0.41330 0.54516
vt 0.28994 0.53419
vt 0.28994 0.40809
vt 0.34977 0.31054
vt 0.28994 0.31048
vt 0.34977 0.21804
vt 0.28994 0.21095
vt 0.34977 0.11005
vt 0.28994 0.11001
vt 0.32956 0.06122
vt 0.28994 0.06121
vt 0.28994 0.00258
vt 0.39680 0.69647
vt 0.28994 0.69646
vt 0.50953 0.82368
vt 0.32823 0.82030
vt 0.51161 0.69648
vt 0.39139 0.91310
vt 0.52705 0.92461
vt 0.45663 0.99738
vt 0.46606 0.55065
vt 0.39680 0.54516
vt 0.43947 0.46766
vt 0.49283 0.46771
vt 0.42451 0.40128
vt 0.49283 0.40130
vt 0.49283 0.32522
vt 0.43058 0.32521
vt 0.43847 0.22113
vt 0.49283 0.22114
vt 0.49283 0.13726
vt 0.45242 0.13726
vt 0.46456 0.05428
vt 0.49283 0.05428
vt 0.49004 0.00820
vt 0.55984 0.40132
vt 0.56751 0.32523
vt 0.56431 0.25129
vt 0.49283 0.25128
vt 0.56112 0.19065
vt 0.49283 0.19065
vt 0.55152 0.13067
vt 0.49283 0.13066
vt 0.54193 0.08686
vt 0.49283 0.08686
vt 0.49693 0.00228
vt 0.55089 0.46775
vt 0.53918 0.54976
vt 0.58891 0.46779
vt 0.60188 0.40134
vt 0.53874 0.40132
vt 0.60188 0.32524
vt 0.53874 0.32523
vt 0.52851 0.25129
vt 0.60188 0.25130
vt 0.52851 0.19065
vt 0.60188 0.19065
vt 0.54257 0.13067
vt 0.60188 0.13067
vt 0.55408 0.08686
vt 0.60188 0.08686
vt 0.60105 0.00228
vt 0.39680 0.40125
vt 0.44440 0.40128
vt 0.39680 0.46762
vt 0.39680 0.32520
vt 0.44557 0.32521
vt 0.44557 0.22113
vt 0.39680 0.22112
vt 0.39680 0.13725
vt 0.43361 0.13726
vt 0.42189 0.05428
vt 0.39680 0.05428
vt 0.40078 0.00820
vt 0.12745 0.19577
vt 0.13137 0.13080
vt 0.33178 0.19577
vt 0.31663 0.12875
vt 0.15053 0.08502
vt 0.30661 0.08502
vt 0.17859 0.05173
vt 0.27821 0.05173
vt 0.33116 0.12156
vt 0.24882 0.05224
vt 0.33079 0.05224
vt 0.31150 0.04046
vt 0.22476 0.01360
vt 0.37095 0.00787
vt 0.16455 0.00787
vt 0.37095 0.00787
vt 0.13718 0.00787
vt 0.12453 0.13394
vt 0.36949 0.13526
vt 0.13014 0.16264
vt 0.37049 0.16264
vt 0.15229 0.21653
vt 0.37049 0.23180
vt 0.34002 0.24754
vt 0.30800 0.25798
vt 0.24863 0.26961
vt 0.37095 0.00787
vt 0.37095 0.00787
vt 0.36949 0.13526
vt 0.37049 0.16264
vt 0.15229 0.21653
vt 0.37049 0.23180
vt 0.34002 0.24754
vt 0.30800 0.25798
vt 0.24863 0.26961
vt 0.65168 0.05871
vt 0.53918 0.00787
vt 0.43633 0.05871
vt 0.53831 0.41000
vt 0.65168 0.41000
vt 0.50435 0.32926
vt 0.65168 0.32926
vt 0.59747 0.20452
vt 0.53285 0.12072
vt 0.54507 0.01501
vt 0.47242 0.30670
vt 0.65168 0.30519
vt 0.51606 0.16136
vt 0.36225 0.20485
vt 0.65168 0.11788
vt 0.40372 0.11788
vt 0.43815 0.06816
vt 0.50292 0.00426
vt 0.60745 0.06816
vt 0.44603 0.12072
vt 0.32364 0.18072
vt 0.32652 0.01501
vt 0.32186 0.32801
vt 0.51940 0.32926
vt 0.39582 0.41000
vt 0.53570 0.41000
vt 0.43372 0.05871
vt 0.54976 0.31238
vt 0.54976 0.27408
vt 0.65700 0.27408
vt 0.70157 0.23109
vt 0.65618 0.18362
vt 0.54976 0.18362
vt 0.65618 0.04829
vt 0.48397 0.11673
vt 0.39713 0.18087
vt 0.42641 0.04829
vt 0.42796 0.23109
vt 0.49134 0.27408
vt 0.71956 0.00510
vt 0.43316 0.00510
vt 0.55216 0.00510
vt 0.47117 0.00510
vt 0.56729 0.00510
vt 0.46069 0.00510
vt 0.46069 0.00510
vt 0.59437 0.00510
vt 0.46069 0.00510
vt 0.71956 0.00510
vt 0.35096 0.11673
vt 0.52680 0.11673
vt 0.43925 0.18362
vt 0.29398 0.18362
vt 0.29398 0.20485
vt 0.29600 0.23109
vt 0.37695 0.23109
vt 0.30525 0.27408
vt 0.57603 0.20485
vt 0.57535 0.23109
vt 0.48807 0.23109
vt 0.57629 0.27408
vt 0.12745 0.19577
vt 0.33178 0.19577
vt 0.13137 0.13080
vt 0.31663 0.12875
vt 0.15053 0.08502
vt 0.30661 0.08502
vt 0.17859 0.05173
vt 0.27821 0.05173
vt 0.33116 0.12156
vt 0.24882 0.05224
vt 0.33079 0.05224
vt 0.31150 0.04046
vt 0.22476 0.01360
vt 0.65168 0.05871
vt 0.43633 0.05871
vt 0.53918 0.00787
vt 0.53831 0.41000
vt 0.65168 0.41000
vt 0.50435 0.32926
vt 0.65168 0.32926
vt 0.59747 0.20452
vt 0.53285 0.12072
vt 0.54507 0.01501
vt 0.47242 0.30670
vt 0.65168 0.30519
vt 0.51606 0.16136
vt 0.36225 0.20485
vt 0.65168 0.11788
vt 0.60745 0.06816
vt 0.50292 0.00426
vt 0.40372 0.11788
vt 0.43815 0.06816
vt 0.44603 0.12072
vt 0.32652 0.01501
vt 0.32364 0.18072
vt 0.32186 0.32801
vt 0.51940 0.32926
vt 0.39582 0.41000
vt 0.53570 0.41000
vt 0.43372 0.05871
vt 0.54976 0.31238
vt 0.65700 0.27408
vt 0.54976 0.27408
vt 0.70157 0.23109
vt 0.65618 0.18362
vt 0.54976 0.18362
vt 0.65618 0.04829
vt 0.48397 0.11673
vt 0.39713 0.18087
vt 0.42641 0.04829
vt 0.42796 0.23109
vt 0.49134 0.27408
vt 0.71956 0.00510
vt 0.43316 0.00510
vt 0.55216 0.00510
vt 0.47117 0.00510
vt 0.56729 0.00510
vt 0.46069 0.00510
vt 0.46069 0.00510
vt 0.59437 0.00510
vt 0.46069 0.00510
vt 0.71956 0.00510
vt 0.35096 0.11673
vt 0.52680 0.11673
vt 0.43925 0.18362
vt 0.29398 0.18362
vt 0.29398 0.20485
vt 0.29600 0.23109
vt 0.37695 0.23109
vt 0.30525 0.27408
vt 0.57603 0.20485
vt 0.57535 0.23109
vt 0.48807 0.23109
vt 0.57629 0.27408
vt 0.75737 0.69531
vt 0.57709 0.69531
vt 0.58258 0.53906
vt 0.77187 0.52344
vt 0.73245 0.80469
vt 0.57621 0.80469
vt 0.69551 0.89844
vt 0.57533 0.89844
vt 0.63024 0.94531
vt 0.58258 0.53906
vt 0.57709 0.69531
vt 0.57621 0.80469
vt 0.57533 0.89844
vt 0.58773 0.42538
vt 0.80876 0.42788
vt 0.57079 0.27423
vt 0.85426 0.27423
vt 0.89562 0.25441
vt 0.69537 0.10600
vt 0.47114 0.10600
vt 0.91262 0.10100
vt 0.66401 0.51516
vt 0.47194 0.51399
vt 0.58524 0.41000
vt 0.46352 0.41000
vt 0.58524 0.32926
vt 0.45818 0.32926
vt 0.58524 0.25757
vt 0.58663 0.12072
vt 0.50164 0.20452
vt 0.58663 0.01501
vt 0.67235 0.18072
vt 0.92800 0.51633
vt 0.73327 0.41000
vt 0.93428 0.41000
vt 0.92180 0.37568
vt 0.72635 0.39230
vt 0.73717 0.37460
vt 0.88420 0.34136
vt 0.75671 0.33920
vt 0.79004 0.24624
vt 0.71895 0.32801
vt 0.73327 0.41000
vt 0.92180 0.37568
vt 0.72635 0.39230
vt 0.73717 0.37460
vt 0.88420 0.34136
vt 0.75671 0.33920
vt 0.79004 0.24624
vt 0.66401 0.51516
vt 0.58524 0.41000
vt 0.47194 0.51399
vt 0.47114 0.10600
vt 0.46352 0.41000
vt 0.58524 0.32926
vt 0.45818 0.32926
vt 0.58524 0.25757
vt 0.58663 0.12072
vt 0.50164 0.20452
vt 0.58663 0.01501
vt 0.67235 0.18072
vt 0.71895 0.32801
vt 0.69537 0.10600
vt 0.57079 0.27423
vt 0.58773 0.42538
vt 0.75981 0.69531
vt 0.54906 0.69531
vt 0.54406 0.52344
vt 0.76281 0.52344
vt 0.74661 0.80469
vt 0.56583 0.80469
vt 0.71677 0.89844
vt 0.57755 0.89844
vt 0.59119 0.94531
vt 0.69228 0.94531
vt 0.62578 0.99219
vt 0.59119 0.94531
vt 0.71677 0.89844
vt 0.57755 0.89844
vt 0.56583 0.80469
vt 0.74661 0.80469
vt 0.54906 0.69531
vt 0.75981 0.69531
vt 0.54406 0.52344
vt 0.76281 0.52344
vt 0.54299 0.32031
vt 0.76781 0.41406
vt 0.77350 0.25781
vt 0.54299 0.25781
vt 0.54299 0.03898
vt 0.80415 0.03898
vt 0.75437 0.43560
vt 0.54299 0.43560
vt 0.54299 0.30822
vt 0.78287 0.30670
vt 0.54299 0.20485
vt 0.80204 0.20485
vt 0.92632 0.11788
vt 0.93102 0.30519
vt 0.88369 0.43560
vt 0.57978 0.12296
vt 0.74513 0.07044
vt 0.61732 0.07128
vt 0.67512 0.00515
vt 0.91495 0.06816
vt 0.81761 0.11788
vt 0.83072 0.06816
vt 0.86509 0.00426
vt 0.49767 0.56531
vt 0.75531 0.69531
vt 0.78183 0.56531
vt 0.51469 0.69531
vt 0.73474 0.82233
vt 0.52786 0.82233
vt 0.54119 0.88453
vt 0.70469 0.88453
vt 0.57131 0.92695
vt 0.69000 0.92666
vt 0.56419 0.96936
vt 0.64569 0.99102
vt 0.69000 0.92666
vt 0.57131 0.92695
vt 0.70469 0.88453
vt 0.54119 0.88453
vt 0.73474 0.82233
vt 0.52786 0.82233
vt 0.51469 0.69531
vt 0.75531 0.69531
vt 0.49767 0.56531
vt 0.78183 0.56531
vt 0.78156 0.49219
vt 0.66656 0.39844
vt 0.48469 0.38281
vt 0.80596 0.30531
vt 0.78156 0.41406
vt 0.79370 0.22500
vt 0.46781 0.22500
vt 0.54605 0.10344
vt 0.77755 0.10344
vt 0.68597 0.28531
vt 0.82192 0.28531
vt 0.54605 0.28531
vt 0.69306 0.48000
vt 0.54605 0.48000
vt 0.55134 0.30955
vt 0.69306 0.30685
vt 0.68717 0.18945
vt 0.57273 0.18945
vt 0.65149 0.10212
vt 0.56324 0.10212
vt 0.57101 0.01360
vt 0.82255 0.48000
vt 0.82243 0.30416
vt 0.69913 0.18945
vt 0.82243 0.18945
vt 0.82243 0.10212
vt 0.74875 0.10212
vt 0.82243 0.01360
vt 0.65600 0.69200
vt 0.77800 0.69200
vt 0.65600 0.57000
vt 0.66100 0.81000
vt 0.88500 0.81000
vt 0.67706 0.90000
vt 0.85779 0.90000
vt 0.77981 0.95000
vt 0.78300 0.57000
vt 0.65075 0.42988
vt 0.78346 0.31896
vt 0.64783 0.29605
vt 0.74267 0.06459
vt 0.64714 0.06459
vt 0.74267 0.38997
vt 0.64714 0.38997
vt 0.71009 0.53209
vt 0.64714 0.53209
vt 0.65622 0.70341
vt 0.27180 0.89370
vt 0.17953 0.94220
vt 0.09380 0.89370
vt 0.37000 0.94220
vt 0.45030 0.89370
vt 0.46815 0.80640
vt 0.31395 0.80640
vt 0.25395 0.80640
vt 0.06405 0.80640
vt 0.27180 0.89370
vt 0.37000 0.94220
vt 0.45030 0.89370
vt 0.46815 0.80640
vt 0.31395 0.80640
vt 0.25395 0.80640
vt 0.65600 0.69200
vt 0.65600 0.57000
vt 0.77800 0.69200
vt 0.66100 0.81000
vt 0.88500 0.81000
vt 0.67706 0.90000
vt 0.85779 0.90000
vt 0.77981 0.95000
vt 0.78300 0.57000
vt 0.65075 0.42988
vt 0.78346 0.31896
vt 0.64783 0.29605
vt 0.74267 0.06459
vt 0.64714 0.06459
vt 0.74267 0.38997
vt 0.64714 0.38997
vt 0.71009 0.53209
vt 0.64714 0.53209
vt 0.65622 0.70341
vt 0.63346 0.15048
vt 0.54190 0.15048
vt 0.54190 0.10065
vt 0.54190 0.20485
vt 0.66263 0.20485
vt 0.54190 0.30243
vt 0.83528 0.30822
vt 0.54605 0.43560
vt 0.80766 0.43560
vt 0.54605 0.24691
vt 0.54605 0.03898
vt 0.70478 0.03898
vt 0.82170 0.20485
vt 0.66678 0.12465
vt 0.80514 0.12296
vt 0.75925 0.07128
vt 0.68256 0.07213
vt 0.71611 0.00515
vt 0.58010 0.25781
vt 0.65149 0.10212
vt 0.57101 0.01360
vt 0.56324 0.10212
vt 0.57273 0.18945
vt 0.68717 0.18945
vt 0.55134 0.30955
vt 0.69306 0.30685
vt 0.69306 0.48000
vt 0.54605 0.48000
vt 0.54605 0.28531
vt 0.68597 0.28531
vt 0.54605 0.10344
vt 0.77755 0.10344
vt 0.82192 0.28531
vt 0.79370 0.22500
vt 0.46781 0.22500
vt 0.48469 0.38281
vt 0.80596 0.30531
vt 0.66656 0.39844
vt 0.78156 0.41406
vt 0.78156 0.49219
vt 0.82255 0.48000
vt 0.82243 0.30416
vt 0.69913 0.18945
vt 0.82243 0.18945
vt 0.82243 0.10212
vt 0.74875 0.10212
vt 0.82243 0.01360
vt 0.76789 0.53019
vt 0.67182 0.53019
vt 0.66787 0.42898
vt 0.76857 0.65466
vt 0.77810 0.42898
vt 0.68887 0.65466
vt 0.76906 0.76496
vt 0.69501 0.76496
vt 0.76864 0.84489
vt 0.69626 0.84489
vt 0.69479 0.88970
vt 0.76610 0.88970
vt 0.70667 0.91210
vt 0.76427 0.91210
vt 0.74050 0.93450
vt 0.65936 0.88970
vt 0.65901 0.93450
vt 0.53870 0.48979
vt 0.53870 0.37152
vt 0.46822 0.37321
vt 0.53870 0.27622
vt 0.54299 0.32031
vt 0.76781 0.41406
vt 0.77350 0.25781
vt 0.54299 0.25781
vt 0.54299 0.03898
vt 0.80415 0.03898
vt 0.75437 0.43560
vt 0.54299 0.43560
vt 0.54299 0.30822
vt 0.78287 0.30670
vt 0.54299 0.20485
vt 0.80204 0.20485
vt 0.92632 0.11788
vt 0.93102 0.30519
vt 0.88369 0.43560
vt 0.57978 0.12296
vt 0.74513 0.07044
vt 0.61732 0.07128
vt 0.67512 0.00515
vt 0.91495 0.06816
vt 0.81761 0.11788
vt 0.83072 0.06816
vt 0.86509 0.00426
vt 0.63346 0.15048
vt 0.54190 0.10065
vt 0.54190 0.15048
vt 0.54190 0.20485
vt 0.66263 0.20485
vt 0.54190 0.30243
vt 0.83528 0.30822
vt 0.54605 0.43560
vt 0.80766 0.43560
vt 0.54605 0.24691
vt 0.54605 0.03898
vt 0.70478 0.03898
vt 0.82170 0.20485
vt 0.66678 0.12465
vt 0.80514 0.12296
vt 0.75925 0.07128
vt 0.68256 0.07213
vt 0.71611 0.00515
vt 0.58010 0.25781
vt 0.76789 0.53019
vt 0.66787 0.42898
vt 0.67182 0.53019
vt 0.76857 0.65466
vt 0.77810 0.42898
vt 0.68887 0.65466
vt 0.76906 0.76496
vt 0.69501 0.76496
vt 0.76864 0.84489
vt 0.69626 0.84489
vt 0.69479 0.88970
vt 0.76610 0.88970
vt 0.70667 0.91210
vt 0.76427 0.91210
vt 0.74050 0.93450
vt 0.65936 0.88970
vt 0.65901 0.93450
vt 0.53870 0.48979
vt 0.46822 0.37321
vt 0.53870 0.37152
vt 0.53870 0.27622
vt 0.70544 0.06459
vt 0.73072 0.31896
vt 0.78346 0.06459
vt 0.70544 0.38997
vt 0.78346 0.38997
vt 0.78346 0.53209
vt 0.73337 0.53209
vt 0.78346 0.70341
vt 0.52770 0.29939
vt 0.45785 0.29939
vt 0.54111 0.07899
vt 0.45785 0.07899
vt 0.50921 0.41309
vt 0.45785 0.41309
vt 0.45785 0.51165
vt 0.53882 0.22742
vt 0.61942 0.07899
vt 0.53408 0.29939
vt 0.61880 0.29939
vt 0.55997 0.41309
vt 0.61880 0.41309
vt 0.61880 0.51165
vt 0.63402 0.41695
vt 0.71499 0.42607
vt 0.71728 0.32525
vt 0.63402 0.32525
vt 0.63355 0.51703
vt 0.71572 0.23135
vt 0.62921 0.23135
vt 0.60606 0.31746
vt 0.71572 0.31746
vt 0.71572 0.36054
vt 0.58904 0.36054
vt 0.71572 0.43077
vt 0.58391 0.43077
vt 0.62366 0.47140
vt 0.71572 0.47140
vt 0.71572 0.51887
vt 0.59785 0.23522
vt 0.65906 0.13762
vt 0.74523 0.23522
vt 0.74523 0.13762
vt 0.74523 0.32706
vt 0.56515 0.32641
vt 0.57491 0.40359
vt 0.74523 0.40359
vt 0.64871 0.49423
vt 0.74523 0.49423
vt 0.74523 0.56963
vt 0.74523 0.09891
vt 0.49184 0.04654
vt 0.62569 0.09296
vt 0.42958 0.12249
vt 0.57499 0.12249
vt 0.64964 0.12249
vt 0.64964 0.22711
vt 0.53566 0.22711
vt 0.64964 0.31718
vt 0.53036 0.31640
vt 0.54122 0.43984
vt 0.64964 0.43984
vt 0.57468 0.53906
vt 0.64964 0.53906
vt 0.64964 0.61331
vt 0.58169 0.22711
vt 0.42958 0.22711
vt 0.42958 0.31562
vt 0.59420 0.31640
vt 0.42958 0.43984
vt 0.58428 0.43984
vt 0.55092 0.53906
vt 0.42958 0.53906
vt 0.43585 0.61331
vt 0.70544 0.06459
vt 0.78346 0.06459
vt 0.73072 0.31896
vt 0.70544 0.38997
vt 0.78346 0.38997
vt 0.78346 0.53209
vt 0.73337 0.53209
vt 0.78346 0.70341
vt 0.52770 0.29939
vt 0.54111 0.07899
vt 0.45785 0.29939
vt 0.45785 0.07899
vt 0.50921 0.41309
vt 0.45785 0.41309
vt 0.45785 0.51165
vt 0.53882 0.22742
vt 0.61942 0.07899
vt 0.53408 0.29939
vt 0.61880 0.29939
vt 0.55997 0.41309
vt 0.61880 0.41309
vt 0.61880 0.51165
vt 0.63402 0.41695
vt 0.71728 0.32525
vt 0.71499 0.42607
vt 0.63402 0.32525
vt 0.63355 0.51703
vt 0.71572 0.23135
vt 0.62921 0.23135
vt 0.60606 0.31746
vt 0.71572 0.31746
vt 0.71572 0.36054
vt 0.58904 0.36054
vt 0.71572 0.43077
vt 0.58391 0.43077
vt 0.62366 0.47140
vt 0.71572 0.47140
vt 0.71572 0.51887
vt 0.59785 0.23522
vt 0.74523 0.23522
vt 0.65906 0.13762
vt 0.74523 0.13762
vt 0.74523 0.32706
vt 0.56515 0.32641
vt 0.57491 0.40359
vt 0.74523 0.40359
vt 0.64871 0.49423
vt 0.74523 0.49423
vt 0.74523 0.56963
vt 0.74523 0.09891
vt 0.49184 0.04654
vt 0.42958 0.12249
vt 0.62569 0.09296
vt 0.57499 0.12249
vt 0.64964 0.12249
vt 0.64964 0.22711
vt 0.53566 0.22711
vt 0.64964 0.31718
vt 0.53036 0.31640
vt 0.54122 0.43984
vt 0.64964 0.43984
vt 0.57468 0.53906
vt 0.64964 0.53906
vt 0.64964 0.61331
vt 0.58169 0.22711
vt 0.42958 0.22711
vt 0.42958 0.31562
vt 0.59420 0.31640
vt 0.42958 0.43984
vt 0.58428 0.43984
vt 0.55092 0.53906
vt 0.42958 0.53906
vt 0.43585 0.61331
usemtl m0
f 1/1 2/2 3/3
f 2/2 4/4 3/3
f 5/5 3/3 4/4
f 2/2 6/6 1/1
f 6/6 7/7 1/1
f 8/8 7/7 6/6
f 9/9 8/8 6/6
f 10/10 8/8 9/9
f 11/11 10/10 9/9
f 10/10 11/11 12/12
f 13/13 10/10 12/12
f 14/14 13/13 12/12
f 15/15 14/14 12/12
f 15/15 16/16 14/14
f 5/5 17/17 18/18
f 19/19 18/18 17/17
f 20/20 18/18 19/19
f 19/19 20/20 21/21
f 21/21 20/20 22/22
f 23/23 21/21 22/22
f 24/24 21/21 23/23
f 25/25 24/24 23/23
f 26/26 24/24 25/25
f 25/25 27/27 26/26
f 27/27 28/28 26/26
f 29/29 28/28 27/27
f 30/30 28/28 29/29
f 30/30 29/29 31/31
f 32/32 33/33 34/34
f 34/34 33/33 35/35
f 34/34 36/36 32/32
f 32/32 36/36 37/37
f 38/38 34/34 35/35
f 39/39 38/38 35/35
f 40/40 34/34 38/38
f 34/34 40/40 36/36
f 40/40 41/41 36/36
f 39/39 42/42 38/38
f 43/43 42/42 39/39
f 42/42 44/44 38/38
f 44/44 40/40 38/38
f 40/40 44/44 41/41
f 33/33 32/32 45/45
f 32/32 37/37 45/45
f 42/42 43/43 46/46
f 43/43 47/47 46/46
f 46/46 48/48 42/42
f 42/42 48/48 44/44
f 46/46 47/47 49/49
f 47/47 50/50 49/49
f 48/48 46/46 51/51
f 46/46 49/49 51/51
f 49/49 50/50 52/52
f 50/50 53/53 52/52
f 52/52 53/53 54/54
f 53/53 55/55 54/54
f 56/56 54/54 55/55
f 57/57 54/54 56/56
f 54/54 57/57 52/52
f 52/52 57/57 58/58
f 52/52 58/58 49/49
f 58/58 51/51 49/49
f 58/58 57/57 59/59
f 59/59 57/57 60/60
f 57/57 56/56 60/60
f 51/51 58/58 61/61
f 58/58 59/59 61/61
f 48/48 51/51 62/62
f 62/62 51/51 61/61
f 63/63 48/48 62/62
f 44/44 48/48 63/63
f 41/41 44/44 63/63
f 64/64 33/33 45/45
f 65/65 66/66 67/67
f 66/66 68/68 67/67
f 66/66 65/65 69/69
f 65/65 70/70 69/69
f 71/71 68/68 66/66
f 72/72 68/68 71/71
f 73/73 71/71 66/66
f 66/66 69/69 73/73
f 73/73 69/69 74/74
f 72/72 71/71 75/75
f 76/76 72/72 75/75
f 75/75 71/71 77/77
f 77/77 71/71 73/73
f 73/73 74/74 77/77
f 67/67 78/78 65/65
f 78/78 79/79 65/65
f 65/65 79/79 70/70
f 75/75 80/80 76/76
f 75/75 77/77 80/80
f 76/76 80/80 81/81
f 77/77 82/82 80/80
f 80/80 83/83 81/81
f 81/81 83/83 84/84
f 82/82 85/85 80/80
f 80/80 85/85 83/83
f 83/83 86/86 84/84
f 84/84 86/86 87/87
f 86/86 88/88 87/87
f 87/87 88/88 89/89
f 90/90 89/89 88/88
f 91/91 90/90 88/88
f 91/91 88/88 86/86
f 92/92 91/91 86/86
f 86/86 83/83 92/92
f 92/92 83/83 85/85
f 92/92 93/93 91/91
f 93/93 94/94 91/91
f 91/91 94/94 90/90
f 85/85 95/95 92/92
f 92/92 95/95 93/93
f 95/95 85/85 96/96
f 96/96 85/85 82/82
f 97/97 96/96 82/82
f 77/77 97/97 82/82
f 74/74 97/97 77/77
f 98/98 99/99 100/100
f 98/98 100/100 101/101
f 102/102 101/101 100/100
f 102/102 103/103 101/101
f 103/103 102/102 104/104
f 104/104 102/102 105/105
f 106/106 104/104 105/105
f 107/107 106/106 105/105
f 106/106 107/107 108/108
f 99/99 98/98 109/109
f 110/110 99/99 109/109
f 109/109 111/111 110/110
f 99/99 110/110 112/112
f 111/111 113/113 110/110
f 111/111 114/114 113/113
f 115/115 99/99 112/112
f 112/112 116/116 115/115
f 116/116 117/117 115/115
f 118/118 117/117 116/116
f 117/117 118/118 119/119
f 118/118 120/120 119/119
f 120/120 121/121 119/119
f 121/121 122/122 119/119
f 121/121 123/123 122/122
f 124/124 125/125 126/126
f 124/124 126/126 127/127
f 127/127 126/126 128/128
f 127/127 128/128 129/129
f 129/129 128/128 130/130
f 129/129 130/130 131/131
f 131/131 130/130 132/132
f 131/131 132/132 133/133
f 134/134 131/131 133/133
f 135/135 133/133 132/132
f 136/136 135/135 132/132
f 132/132 137/137 136/136
f 136/136 137/137 138/138
f 139/139 138/138 137/137
f 140/140 138/138 139/139
f 139/139 141/141 140/140
f 142/142 141/141 139/139
f 142/142 143/143 141/141
f 134/134 133/133 144/144
f 144/144 133/133 145/145
f 145/145 133/133 135/135
f 144/144 145/145 146/146
f 146/146 145/145 147/147
f 146/146 147/147 148/148
f 147/147 149/149 148/148
f 150/150 148/148 149/149
f 151/151 150/150 149/149
f 152/152 149/149 147/147
f 147/147 153/153 152/152
f 152/152 153/153 154/154
f 154/154 153/153 155/155
f 153/153 156/156 155/155
f 155/155 156/156 157/157
f 156/156 158/158 157/157
f 157/157 158/158 159/159
f 158/158 160/160 159/159
f 159/159 160/160 161/161
f 160/160 162/162 161/161
f 161/161 162/162 163/163
f 164/164 163/163 162/162
f 163/163 164/164 165/165
f 166/166 165/165 164/164
f 167/167 168/168 169/169
f 167/167 169/169 170/170
f 171/171 167/167 170/170
f 171/171 170/170 172/172
f 173/173 171/171 172/172
f 173/173 172/172 174/174
f 172/172 175/175 174/174
f 176/176 177/177 178/178
f 178/178 177/177 179/179
f 178/178 179/179 180/180
f 177/177 176/176 181/181
f 176/176 182/182 181/181
f 181/181 182/182 183/183
f 184/184 181/181 183/183
f 183/183 185/185 184/184
f 186/186 184/184 185/185
f 187/187 184/184 186/186
f 181/181 184/184 187/187
f 188/188 181/181 187/187
f 189/189 181/181 188/188
f 190/190 189/189 188/188
f 189/189 190/190 191/191
f 190/190 192/192 191/191
f 193/193 191/191 192/192
f 194/194 195/195 196/196
f 196/196 195/195 197/197
f 196/196 198/198 194/194
f 199/199 194/194 198/198
f 200/200 199/199 198/198
f 201/201 199/199 200/200
f 201/201 200/200 202/202
f 201/201 202/202 203/203
f 204/204 201/201 203/203
f 205/205 204/204 203/203
f 203/203 202/202 206/206
f 207/207 203/203 206/206
f 207/207 208/208 203/203
f 208/208 205/205 203/203
f 209/209 208/208 207/207
f 209/209 207/207 210/210
f 207/207 206/206 210/210
f 210/210 211/211 209/209
f 211/211 212/212 209/209
f 204/204 213/213 201/201
f 201/201 213/213 199/199
f 194/194 199/199 213/213
f 214/214 194/194 213/213
f 214/214 215/215 194/194
f 216/216 212/212 211/211
f 194/194 215/215 195/195
f 195/195 215/215 217/217
f 215/215 218/218 217/217
f 219/219 217/217 218/218
f 220/220 197/197 195/195
f 221/221 222/222 223/223
f 222/222 224/224 223/223
f 221/221 225/225 222/222
f 222/222 225/225 226/226
f 225/225 227/227 226/226
f 228/228 227/227 225/225
f 227/227 228/228 229/229
f 228/228 230/230 229/229
f 230/230 231/231 229/229
f 231/231 232/232 229/229
f 232/232 231/231 233/233
f 234/234 223/223 224/224
f 235/235 223/223 234/234
f 235/235 234/234 236/236
f 237/237 236/236 234/234
f 236/236 237/237 238/238
f 239/239 236/236 238/238
f 239/239 240/240 236/236
f 238/238 241/241 239/239
f 242/242 235/235 236/236
f 240/240 242/242 236/236
f 242/242 243/243 235/235
f 235/235 243/243 244/244
f 245/245 244/244 243/243
f 246/246 245/245 243/243
f 247/247 245/245 246/246
f 248/248 247/247 246/246
f 248/248 249/249 247/247
f 250/250 247/247 249/249
f 249/249 251/251 250/250
f 252/252 250/250 251/251
f 251/251 253/253 252/252
f 251/251 254/254 253/253
f 254/254 255/255 253/253
f 256/256 253/253 255/255
f 257/257 258/258 259/259
f 258/258 260/260 259/259
f 261/261 260/260 258/258
f 260/260 261/261 262/262
f 261/261 263/263 262/262
f 263/263 264/264 262/262
f 264/264 265/265 262/262
f 264/264 266/266 265/265
f 265/265 266/266 267/267
f 268/268 265/265 267/267
f 268/268 267/267 269/269
f 268/268 269/269 270/270
f 270/270 269/269 271/271
f 270/270 271/271 272/272
f 272/272 271/271 273/273
f 272/272 273/273 274/274
f 275/275 274/274 273/273
f 275/275 276/276 274/274
f 277/277 274/274 276/276
f 277/277 278/278 274/274
f 275/275 279/279 276/276
f 279/279 277/277 276/276
f 272/272 280/280 270/270
f 274/274 280/280 272/272
f 274/274 278/278 280/280
f 280/280 281/281 270/270
f 270/270 281/281 268/268
f 281/281 282/282 268/268
f 268/268 282/282 265/265
f 282/282 283/283 265/265
f 265/265 283/283 284/284
f 283/283 285/285 284/284
f 284/284 285/285 286/286
f 286/286 285/285 287/287
f 288/288 286/286 287/287
f 289/289 288/288 287/287
f 290/290 291/291 292/292
f 291/291 293/293 292/292
f 292/292 293/293 294/294
f 293/293 295/295 294/294
f 294/294 295/295 296/296
f 295/295 297/297 296/296
f 296/296 297/297 298/298
f 299/299 298/298 297/297
f 300/300 298/298 299/299
f 290/290 301/301 291/291
f 301/301 302/302 291/291
f 291/291 302/302 303/303
f 291/291 303/303 304/304
f 304/304 303/303 305/305
f 304/304 305/305 306/306
f 307/307 306/306 305/305
f 308/308 306/306 307/307
f 309/309 308/308 307/307
f 308/308 309/309 310/310
f 309/309 311/311 310/310
f 312/312 310/310 311/311
f 313/313 302/302 301/301
f 314/314 302/302 313/313
f 313/313 315/315 314/314
f 314/314 315/315 316/316
f 315/315 313/313 317/317
f 318/318 316/316 315/315
f 319/319 318/318 315/315
f 319/319 320/320 318/318
f 313/313 321/321 317/317
f 322/322 321/321 313/313
f 323/323 321/321 322/322
f 324/324 321/321 323/323
f 323/323 325/325 324/324
f 325/325 326/326 324/324
f 326/326 325/325 327/327
f 325/325 328/328 327/327
f 328/328 329/329 327/327
f 327/327 329/329 330/330
f 330/330 329/329 331/331
f 329/329 332/332 331/331
f 332/332 333/333 331/331
f 333/333 334/334 331/331
f 334/334 333/333 335/335
f 327/327 336/336 326/326
f 337/337 336/336 327/327
f 338/338 337/337 327/327
f 339/339 338/338 327/327
f 340/340 338/338 339/339
f 341/341 340/340 339/339
f 340/340 341/341 342/342
f 343/343 342/342 341/341
f 343/343 344/344 342/342
f 343/343 345/345 344/344
f 346/346 344/344 345/345
f 336/336 347/347 326/326
f 326/326 347/347 324/324
f 321/321 324/324 347/347
f 348/348 321/321 347/347
f 349/349 348/348 347/347
f 349/349 347/347 350/350
f 350/350 347/347 351/351
f 350/350 351/351 352/352
f 351/351 353/353 352/352
f 353/353 354/354 352/352
f 352/352 354/354 355/355
f 354/354 356/356 355/355
f 355/355 356/356 357/357
f 356/356 358/358 357/357
f 357/357 358/358 359/359
f 358/358 360/360 359/359
f 360/360 361/361 359/359
f 361/361 360/360 362/362
f 321/321 348/348 317/317
f 363/363 364/364 365/365
f 365/365 364/364 323/323
f 366/366 364/364 363/363
f 367/367 364/364 366/366
f 367/367 366/366 368/368
f 368/368 366/366 369/369
f 370/370 368/368 369/369
f 371/371 368/368 370/370
f 370/370 372/372 371/371
f 370/370 373/373 372/372
f 374/374 372/372 373/373
f 365/365 323/323 322/322
f 375/375 376/376 377/377
f 377/377 376/376 378/378
f 376/376 379/379 378/378
f 378/378 379/379 380/380
f 379/379 381/381 380/380
f 380/380 381/381 382/382
f 377/377 383/383 375/375
f 375/375 383/383 384/384
f 384/384 383/383 385/385
f 385/385 386/386 384/384
f 387/387 382/382 381/381
f 388/388 389/389 390/390
f 390/390 389/389 391/391
f 392/392 390/390 391/391
f 393/393 390/390 392/392
f 393/393 392/392 394/394
f 395/395 393/393 394/394
f 394/394 396/396 395/395
f 396/396 397/397 395/395
f 398/398 397/397 396/396
f 398/398 396/396 399/399
f 399/399 396/396 400/400
f 401/401 391/391 389/389
f 392/392 391/391 401/401
f 402/402 401/401 389/389
f 403/403 392/392 401/401
f 394/394 392/392 403/403
f 404/404 394/394 403/403
f 394/394 404/404 405/405
f 405/405 404/404 406/406
f 407/407 405/405 406/406
f 407/407 408/408 405/405
f 408/408 409/409 405/405
f 410/410 411/411 412/412
f 413/413 414/414 410/410
f 414/414 413/413 415/415
f 414/414 415/415 416/416
f 416/416 415/415 417/417
f 417/417 415/415 418/418
f 417/417 418/418 419/419
f 420/420 410/410 421/421
f 422/422 420/420 421/421
f 423/423 420/420 422/422
f 421/421 424/424 422/422
f 423/423 422/422 425/425
f 426/426 425/425 422/422
f 427/427 426/426 422/422
f 424/424 428/428 422/422
f 428/428 427/427 422/422
f 429/429 430/430 431/431
f 430/430 429/429 432/432
f 429/429 433/433 432/432
f 434/434 432/432 433/433
f 435/435 434/434 433/433
f 434/434 435/435 436/436
f 436/436 435/435 410/410
f 437/437 438/438 439/439
f 438/438 440/440 439/439
f 440/440 438/438 441/441
f 441/441 438/438 442/442
f 441/441 442/442 443/443
f 443/443 442/442 444/444
f 442/442 445/445 444/444
f 444/444 446/446 443/443
f 447/447 445/445 442/442
f 438/438 447/447 442/442
f 437/437 448/448 438/438
f 448/448 447/447 438/438
f 446/446 449/449 443/443
f 450/450 449/449 446/446
f 450/450 451/451 449/449
f 452/452 451/451 450/450
f 452/452 453/453 451/451
f 453/453 449/449 451/451
f 454/454 453/453 452/452
f 453/453 454/454 455/455
f 453/453 455/455 456/456
f 457/457 456/456 455/455
f 458/458 449/449 453/453
f 459/459 446/446 460/460
f 461/461 459/459 460/460
f 461/461 462/462 459/459
f 461/461 463/463 462/462
f 463/463 461/461 464/464
f 464/464 461/461 465/465
f 466/466 464/464 465/465
f 461/461 460/460 467/467
f 467/467 468/468 461/461
f 461/461 468/468 469/469
f 468/468 470/470 469/469
f 471/471 472/472 473/473
f 472/472 474/474 473/473
f 473/473 474/474 475/475
f 474/474 476/476 475/475
f 475/475 476/476 477/477
f 476/476 478/478 477/477
f 472/472 471/471 479/479
f 471/471 480/480 479/479
f 480/480 481/481 479/479
f 481/481 480/480 482/482
f 483/483 477/477 478/478
f 484/484 485/485 486/486
f 487/487 484/484 488/488
f 488/488 489/489 487/487
f 488/488 490/490 489/489
f 490/490 491/491 489/489
f 491/491 492/492 489/489
f 491/491 493/493 492/492
f 494/494 495/495 484/484
f 496/496 495/495 494/494
f 497/497 496/496 494/494
f 495/495 496/496 498/498
f 498/498 496/496 499/499
f 496/496 500/500 499/499
f 497/497 501/501 496/496
f 500/500 496/496 502/502
f 496/496 501/501 502/502
f 503/503 504/504 505/505
f 505/505 506/506 503/503
f 506/506 507/507 503/503
f 507/507 506/506 508/508
f 509/509 507/507 508/508
f 508/508 510/510 509/509
f 510/510 484/484 509/509
f 511/511 512/512 513/513
f 513/513 512/512 514/514
f 514/514 515/515 513/513
f 515/515 516/516 513/513
f 515/515 517/517 516/516
f 517/517 518/518 516/516
f 516/516 518/518 519/519
f 518/518 517/517 520/520
f 521/521 516/516 519/519
f 516/516 521/521 513/513
f 511/511 513/513 522/522
f 521/521 522/522 513/513
f 520/520 517/517 523/523
f 524/524 520/520 523/523
f 524/524 523/523 525/525
f 526/526 524/524 525/525
f 526/526 525/525 527/527
f 527/527 525/525 523/523
f 528/528 526/526 527/527
f 527/527 529/529 528/528
f 527/527 530/530 529/529
f 531/531 529/529 530/530
f 532/532 527/527 523/523
f 533/533 534/534 520/520
f 535/535 534/534 533/533
f 535/535 533/533 536/536
f 535/535 536/536 537/537
f 537/537 538/538 535/535
f 538/538 539/539 535/535
f 540/540 539/539 538/538
f 535/535 541/541 534/534
f 541/541 535/535 542/542
f 535/535 543/543 542/542
f 542/542 543/543 544/544
f 545/545 546/546 547/547
f 548/548 545/545 547/547
f 545/545 549/549 546/546
f 549/549 550/550 546/546
f 549/549 551/551 550/550
f 551/551 552/552 550/550
f 551/551 553/553 552/552
f 548/548 554/554 545/545
f 545/545 554/554 555/555
f 545/545 555/555 549/549
f 549/549 556/556 551/551
f 549/549 555/555 556/556
f 551/551 557/557 553/553
f 551/551 556/556 557/557
f 548/548 547/547 558/558
f 559/559 548/548 558/558
f 559/559 558/558 560/560
f 559/559 560/560 561/561
f 561/561 560/560 562/562
f 563/563 562/562 560/560
f 564/564 563/563 560/560
f 563/563 565/565 562/562
f 566/566 563/563 564/564
f 565/565 563/563 566/566
f 566/566 564/564 567/567
f 566/566 567/567 568/568
f 569/569 568/568 567/567
f 569/569 570/570 568/568
f 569/569 571/571 570/570
f 570/570 571/571 572/572
f 571/571 573/573 572/572
f 574/574 573/573 571/571
f 574/574 575/575 573/573
f 573/573 575/575 576/576
f 573/573 576/576 572/572
f 577/577 565/565 566/566
f 566/566 568/568 578/578
f 570/570 578/578 568/568
f 578/578 577/577 566/566
f 578/578 579/579 577/577
f 579/579 578/578 580/580
f 578/578 581/581 580/580
f 580/580 581/581 582/582
f 580/580 582/582 583/583
f 582/582 584/584 583/583
f 584/584 585/585 583/583
f 586/586 578/578 570/570
f 570/570 572/572 586/586
f 586/586 572/572 576/576
f 587/587 577/577 579/579
f 579/579 588/588 587/587
f 587/587 588/588 589/589
f 588/588 590/590 589/589
f 588/588 591/591 590/590
f 590/590 591/591 592/592
f 592/592 591/591 593/593
f 594/594 587/587 595/595
f 594/594 595/595 596/596
f 594/594 596/596 597/597
f 598/598 596/596 595/595
f 598/598 595/595 599/599
f 599/599 595/595 587/587
f 598/598 599/599 600/600
f 599/599 601/601 600/600
f 600/600 601/601 602/602
f 603/603 600/600 602/602
f 603/603 602/602 604/604
f 602/602 605/605 604/604
f 602/602 601/601 605/605
f 599/599 606/606 601/601
f 606/606 605/605 601/601
f 606/606 599/599 587/587
f 587/587 594/594 577/577
f 577/577 594/594 565/565
f 594/594 597/597 607/607
f 597/597 608/608 607/607
f 607/607 562/562 565/565
f 607/607 608/608 562/562
f 561/561 562/562 608/608
f 559/559 561/561 608/608
f 559/559 608/608 609/609
f 559/559 609/609 548/548
f 548/548 609/609 554/554
f 565/565 594/594 607/607
f 610/610 611/611 612/612
f 610/610 612/612 613/613
f 610/610 614/614 611/611
f 614/614 615/615 611/611
f 614/614 616/616 615/615
f 616/616 617/617 615/615
f 616/616 618/618 617/617
f 619/619 618/618 616/616
f 619/619 620/620 618/618
f 619/619 621/621 620/620
f 619/619 622/622 621/621
f 622/622 623/623 621/621
f 622/622 624/624 623/623
f 625/625 624/624 622/622
f 625/625 626/626 624/624
f 627/627 626/626 625/625
f 627/627 628/628 626/626
f 627/627 629/629 628/628
f 630/630 628/628 629/629
f 630/630 629/629 631/631
f 631/631 632/632 630/630
f 630/630 632/632 633/633
f 633/633 632/632 634/634
f 634/634 632/632 635/635
f 634/634 635/635 636/636
f 637/637 634/634 636/636
f 636/636 638/638 637/637
f 639/639 638/638 636/636
f 639/639 640/640 638/638
f 641/641 640/640 639/639
f 641/641 639/639 642/642
f 639/639 643/643 642/642
f 643/643 639/639 644/644
f 644/644 639/639 636/636
f 635/635 644/644 636/636
f 640/640 641/641 645/645
f 641/641 646/646 645/645
f 647/647 645/645 646/646
f 648/648 647/647 646/646
f 642/642 649/649 641/641
f 649/649 650/650 641/641
f 649/649 651/651 650/650
f 652/652 651/651 649/649
f 653/653 654/654 655/655
f 656/656 654/654 653/653
f 656/656 657/657 654/654
f 658/658 657/657 656/656
f 659/659 657/657 658/658
f 660/660 657/657 659/659
f 659/659 661/661 660/660
f 661/661 662/662 660/660
f 661/661 663/663 662/662
f 662/662 663/663 664/664
f 665/665 664/664 663/663
f 666/666 665/665 663/663
f 666/666 667/667 665/665
f 668/668 667/667 666/666
f 667/667 668/668 669/669
f 668/668 670/670 669/669
f 670/670 671/671 669/669
f 671/671 672/672 669/669
f 671/671 673/673 672/672
f 673/673 674/674 672/672
f 675/675 674/674 673/673
f 676/676 675/675 673/673
f 676/676 673/673 677/677
f 677/677 678/678 676/676
f 676/676 678/678 679/679
f 675/675 676/676 679/679
f 677/677 680/680 678/678
f 677/677 681/681 680/680
f 680/680 681/681 682/682
f 683/683 680/680 682/682
f 684/684 683/683 682/682
f 683/683 684/684 685/685
f 684/684 682/682 686/686
f 687/687 684/684 686/686
f 685/685 684/684 687/687
f 687/687 686/686 688/688
f 688/688 689/689 687/687
f 689/689 690/690 687/687
f 691/691 690/690 689/689
f 691/691 689/689 692/692
f 693/693 691/691 692/692
f 693/693 692/692 694/694
f 693/693 694/694 695/695
f 696/696 685/685 687/687
f 696/696 687/687 697/697
f 687/687 690/690 697/697
f 690/690 698/698 697/697
f 698/698 699/699 697/697
f 700/700 699/699 698/698
f 701/701 700/700 698/698
f 701/701 702/702 700/700
f 703/703 704/704 705/705
f 703/703 706/706 704/704
f 706/706 707/707 704/704
f 706/706 708/708 707/707
f 708/708 709/709 707/707
f 708/708 710/710 709/709
f 705/705 704/704 711/711
f 705/705 711/711 712/712
f 712/712 711/711 713/713
f 714/714 712/712 713/713
f 714/714 713/713 715/715
f 714/714 715/715 716/716
f 715/715 717/717 716/716
f 718/718 716/716 717/717
f 717/717 719/719 718/718
f 718/718 719/719 720/720
f 721/721 720/720 719/719
f 722/722 723/723 724/724
f 725/725 723/723 722/722
f 726/726 725/725 722/722
f 726/726 722/722 727/727
f 722/722 724/724 728/728
f 727/727 722/722 729/729
f 728/728 724/724 730/730
f 731/731 724/724 723/723
f 732/732 731/731 723/723
f 733/733 731/731 732/732
f 733/733 734/734 731/731
f 731/731 735/735 724/724
f 735/735 730/730 724/724
f 734/734 736/736 731/731
f 737/737 738/738 739/739
f 737/737 739/739 740/740
f 740/740 739/739 741/741
f 740/740 741/741 742/742
f 742/742 741/741 743/743
f 742/742 743/743 744/744
f 738/738 745/745 739/739
f 738/738 746/746 745/745
f 746/746 747/747 745/745
f 748/748 747/747 746/746
f 748/748 749/749 747/747
f 748/748 750/750 749/749
f 749/749 750/750 751/751
f 752/752 751/751 750/750
f 751/751 752/752 753/753
f 752/752 754/754 753/753
f 755/755 753/753 754/754
f 756/756 757/757 758/758
f 757/757 756/756 759/759
f 759/759 756/756 760/760
f 761/761 759/759 760/760
f 761/761 760/760 762/762
f 762/762 763/763 761/761
f 764/764 763/763 762/762
f 763/763 764/764 765/765
f 765/765 764/764 766/766
f 766/766 764/764 767/767
f 760/760 768/768 762/762
f 769/769 768/768 760/760
f 770/770 768/768 769/769
f 769/769 771/771 770/770
f 772/772 771/771 769/769
f 773/773 771/771 772/772
f 766/766 767/767 774/774
f 775/775 776/776 777/777
f 775/775 777/777 778/778
f 775/775 778/778 779/779
f 779/779 778/778 780/780
f 779/779 780/780 781/781
f 780/780 782/782 781/781
f 783/783 782/782 780/780
f 782/782 783/783 784/784
f 782/782 784/784 785/785
f 785/785 784/784 786/786
f 785/785 786/786 787/787
f 787/787 788/788 785/785
f 788/788 782/782 785/785
f 787/787 786/786 789/789
f 789/789 786/786 790/790
f 791/791 789/789 790/790
f 791/791 792/792 789/789
f 791/791 793/793 792/792
f 793/793 794/794 792/792
f 793/793 791/791 653/653
f 793/793 653/653 795/795
f 795/795 794/794 793/793
f 795/795 653/653 655/655
f 796/796 782/782 788/788
f 796/796 797/797 782/782
f 782/782 797/797 781/781
f 781/781 797/797 798/798
f 798/798 797/797 799/799
f 800/800 798/798 799/799
f 801/801 798/798 800/800
f 801/801 800/800 802/802
f 803/803 804/804 805/805
f 806/806 804/804 803/803
f 807/807 803/803 805/805
f 808/808 804/804 806/806
f 809/809 808/808 806/806
f 810/810 808/808 809/809
f 809/809 811/811 810/810
f 810/810 811/811 812/812
f 811/811 813/813 812/812
f 814/814 813/813 811/811
f 813/813 814/814 815/815
f 815/815 814/814 816/816
f 817/817 815/815 816/816
f 812/812 813/813 818/818
f 818/818 813/813 819/819
f 820/820 821/821 822/822
f 822/822 821/821 823/823
f 824/824 613/613 612/612
f 824/824 825/825 613/613
f 825/825 824/824 826/826
f 824/824 827/827 826/826
f 827/827 828/828 826/826
f 828/828 829/829 826/826
f 828/828 830/830 829/829
f 831/831 830/830 828/828
f 830/830 831/831 832/832
f 833/833 830/830 832/832
f 833/833 832/832 834/834
f 835/835 833/833 834/834
f 835/835 836/836 833/833
f 833/833 836/836 837/837
f 837/837 838/838 833/833
f 838/838 830/830 833/833
f 829/829 830/830 838/838
f 834/834 839/839 835/835
f 835/835 839/839 840/840
f 841/841 840/840 839/839
f 842/842 840/840 841/841
f 836/836 835/835 843/843
f 843/843 835/835 844/844
f 843/843 844/844 845/845
f 846/846 843/843 845/845
f 847/847 848/848 849/849
f 849/849 850/850 847/847
f 850/850 851/851 847/847
f 852/852 851/851 850/850
f 852/852 853/853 851/851
f 853/853 852/852 854/854
f 855/855 853/853 854/854
f 854/854 856/856 855/855
f 856/856 857/857 855/855
f 857/857 858/858 855/855
f 851/851 853/853 859/859
f 860/860 851/851 859/859
f 861/861 860/860 859/859
f 860/860 861/861 862/862
f 863/863 860/860 862/862
f 864/864 863/863 862/862
f 857/857 865/865 858/858
f 866/866 867/867 868/868
f 869/869 866/866 868/868
f 870/870 867/867 866/866
f 871/871 869/869 868/868
f 872/872 869/869 871/871
f 873/873 872/872 871/871
f 872/872 873/873 874/874
f 873/873 875/875 874/874
f 874/874 875/875 876/876
f 877/877 874/874 876/876
f 876/876 878/878 877/877
f 878/878 879/879 877/877
f 880/880 879/879 878/878
f 875/875 881/881 876/876
f 881/881 882/882 876/876
f 883/883 884/884 885/885
f 884/884 886/886 885/885
f 887/887 888/888 889/889
f 887/887 889/889 890/890
f 890/890 889/889 891/891
f 891/891 892/892 890/890
f 890/890 892/892 893/893
f 892/892 894/894 893/893
f 895/895 896/896 897/897
f 896/896 898/898 897/897
f 895/895 899/899 896/896
f 900/900 896/896 899/899
f 900/900 899/899 901/901
f 902/902 903/903 897/897
f 904/904 897/897 903/903
f 905/905 904/904 903/903
f 905/905 906/906 904/904
f 907/907 906/906 905/905
f 906/906 907/907 908/908
f 909/909 910/910 911/911
f 911/911 912/912 909/909
f 909/909 913/913 910/910
f 914/914 912/912 911/911
f 914/914 915/915 912/912
f 916/916 915/915 914/914
f 917/917 916/916 914/914
f 918/918 916/916 917/917
f 919/919 916/916 918/918
f 918/918 920/920 919/919
f 921/921 919/919 920/920
f 921/921 920/920 922/922
f 923/923 922/922 920/920
f 922/922 923/923 924/924
f 925/925 926/926 927/927
f 927/927 926/926 928/928
f 927/927 929/929 925/925
f 925/925 929/929 930/930
f 929/929 931/931 930/930
f 932/932 931/931 929/929
f 932/932 933/933 931/931
f 934/934 933/933 932/932
f 933/933 934/934 935/935
f 928/928 926/926 936/936
f 937/937 938/938 939/939
f 939/939 938/938 940/940
f 938/938 941/941 940/940
f 941/941 942/942 940/940
f 942/942 943/943 940/940
f 942/942 944/944 943/943
f 945/945 943/943 944/944
f 945/945 944/944 946/946
f 944/944 947/947 946/946
f 946/946 947/947 948/948
f 947/947 949/949 948/948
f 949/949 950/950 948/948
f 939/939 940/940 951/951
f 952/952 939/939 951/951
f 952/952 951/951 953/953
f 953/953 951/951 954/954
f 955/955 953/953 954/954
f 956/956 955/955 954/954
f 955/955 956/956 957/957
f 958/958 955/955 957/957
f 958/958 957/957 959/959
f 960/960 961/961 962/962
f 960/960 963/963 961/961
f 963/963 964/964 961/961
f 964/964 963/963 965/965
f 963/963 966/966 965/965
f 965/965 966/966 967/967
f 968/968 969/969 970/970
f 970/970 969/969 971/971
f 968/968 970/970 972/972
f 973/973 972/972 970/970
f 973/973 974/974 972/972
f 975/975 969/969 976/976
f 977/977 976/976 969/969
f 978/978 976/976 977/977
f 978/978 977/977 979/979
f 980/980 978/978 979/979
f 979/979 981/981 980/980
f 982/982 983/983 984/984
f 983/983 982/982 985/985
f 982/982 984/984 986/986
f 987/987 983/983 985/985
f 987/987 985/985 988/988
f 989/989 987/987 988/988
f 990/990 987/987 989/989
f 991/991 990/990 989/989
f 992/992 991/991 989/989
f 991/991 992/992 993/993
f 994/994 993/993 992/992
f 994/994 995/995 993/993
f 996/996 993/993 995/995
f 995/995 997/997 996/996
f 998/998 999/999 1000/1000
f 999/999 1001/1001 1000/1000
f 999/999 998/998 1002/1002
f 998/998 1003/1003 1002/1002
f 1002/1002 1003/1003 1004/1004
f 1005/1005 1002/1002 1004/1004
f 1005/1005 1004/1004 1006/1006
f 1007/1007 1005/1005 1006/1006
f 1006/1006 1008/1008 1007/1007
f 1001/1001 1009/1009 1000/1000
f 1010/1010 1011/1011 1012/1012
f 1011/1011 1013/1013 1012/1012
f 1012/1012 1013/1013 1014/1014
f 1014/1014 1013/1013 1015/1015
f 1015/1015 1013/1013 1016/1016
f 1015/1015 1016/1016 1017/1017
f 1018/1018 1017/1017 1016/1016
f 1018/1018 1019/1019 1017/1017
f 1017/1017 1019/1019 1020/1020
f 1019/1019 1021/1021 1020/1020
f 1020/1020 1021/1021 1022/1022
f 1022/1022 1021/1021 1023/1023
f 1011/1011 1024/1024 1013/1013
f 1025/1025 1024/1024 1011/1011
f 1025/1025 1026/1026 1024/1024
f 1026/1026 1027/1027 1024/1024
f 1028/1028 1027/1027 1026/1026
f 1029/1029 1027/1027 1028/1028
f 1028/1028 1030/1030 1029/1029
f 1031/1031 1030/1030 1028/1028
f 1031/1031 1032/1032 1030/1030
