mtllib acce435.mtl
o acce435
v -0.15840 -0.08262 2.59740 0.000 0.000 1.000
v -0.09450 -0.12168 2.47500 0.000 0.000 1.000
v -0.08820 -0.14130 2.59740 0.000 0.000 1.000
v -0.18900 -0.09360 2.40624 0.000 0.000 1.000
v -0.20862 -0.24390 2.07108 0.000 0.000 1.000
v -0.26748 -0.18486 2.06658 0.000 0.000 1.000
v -0.29016 -0.18090 1.98558 0.000 0.000 1.000
v -0.24048 -0.22014 1.98810 0.000 0.000 1.000
v -0.29466 -0.17640 1.92060 0.000 0.000 1.000
v -0.06318 -0.17964 2.45124 0.000 0.000 1.000
v 0.02088 -0.18846 2.67120 0.000 0.000 1.000
v -0.08820 0.14130 2.59740 0.000 0.000 1.000
v -0.09450 0.12168 2.47500 0.000 0.000 1.000
v -0.15840 0.08262 2.59740 0.000 0.000 1.000
v -0.18900 0.09360 2.40624 0.000 0.000 1.000
v -0.20862 0.24390 2.07108 0.000 0.000 1.000
v -0.26748 0.18486 2.06658 0.000 0.000 1.000
v -0.29016 0.18090 1.98558 0.000 0.000 1.000
v -0.24048 0.22014 1.98810 0.000 0.000 1.000
v -0.29466 0.17640 1.92060 0.000 0.000 1.000
v -0.06318 0.17964 2.45124 0.000 0.000 1.000
v 0.02088 0.18846 2.67120 0.000 0.000 1.000
v -0.38592 -0.07902 1.93716 0.000 0.000 1.000
v -0.35982 -0.08784 1.85940 0.000 0.000 1.000
v -0.34128 -0.11412 1.93086 0.000 0.000 1.000
v -0.35694 -0.07722 2.06514 0.000 0.000 1.000
v -0.32742 -0.13500 2.06532 0.000 0.000 1.000
v -0.26748 -0.18486 2.06658 0.000 0.000 1.000
v -0.18900 -0.09360 2.40624 0.000 0.000 1.000
v -0.32742 -0.13500 2.06532 0.000 0.000 1.000
v -0.30906 -0.16344 1.96758 0.000 0.000 1.000
v -0.26748 -0.18486 2.06658 0.000 0.000 1.000
v -0.33480 -0.13086 1.94904 0.000 0.000 1.000
v -0.34452 -0.12420 1.89774 0.000 0.000 1.000
v -0.34128 0.11412 1.93086 0.000 0.000 1.000
v -0.35982 0.08784 1.85940 0.000 0.000 1.000
v -0.38592 0.07902 1.93716 0.000 0.000 1.000
v -0.35694 0.07722 2.06514 0.000 0.000 1.000
v -0.32742 0.13500 2.06532 0.000 0.000 1.000
v -0.26748 0.18486 2.06658 0.000 0.000 1.000
v -0.18900 0.09360 2.40624 0.000 0.000 1.000
v -0.30906 0.16344 1.96758 0.000 0.000 1.000
v -0.33480 0.13086 1.94904 0.000 0.000 1.000
v -0.34452 0.12420 1.89774 0.000 0.000 1.000
v -0.18342 0.00000 2.59740 0.000 0.000 1.000
v -0.21240 0.00000 2.45304 0.000 0.000 1.000
v -0.15840 -0.08262 2.59740 0.000 0.000 1.000
v -0.18900 -0.09360 2.40624 0.000 0.000 1.000
v -0.23814 0.00000 2.35800 0.000 0.000 1.000
v -0.35694 -0.07722 2.06514 0.000 0.000 1.000
v -0.36540 0.00000 2.06190 0.000 0.000 1.000
v -0.39096 0.00000 1.94238 0.000 0.000 1.000
v -0.38412 -0.06822 1.95444 0.000 0.000 1.000
v -0.38232 -0.01008 1.87902 0.000 0.000 1.000
v -0.37278 -0.05022 1.87938 0.000 0.000 1.000
v -0.35676 -0.02106 1.82484 0.000 0.000 1.000
v -0.15840 0.08262 2.59740 0.000 0.000 1.000
v -0.35694 0.07722 2.06514 0.000 0.000 1.000
v -0.38412 0.06822 1.95444 0.000 0.000 1.000
v -0.38232 0.01008 1.87902 0.000 0.000 1.000
v -0.37278 0.05022 1.87938 0.000 0.000 1.000
v -0.35676 0.02106 1.82484 0.000 0.000 1.000
v -0.18900 0.09360 2.40624 0.000 0.000 1.000
v -0.12258 -0.08910 2.61882 0.000 0.000 1.000
v -0.12258 0.08928 2.61882 0.000 0.000 1.000
v -0.21960 0.00000 2.58840 0.000 0.000 1.000
v -0.23526 -0.13446 2.48094 0.000 0.000 1.000
v -0.39636 -0.08046 2.19654 0.000 0.000 1.000
v -0.35064 -0.15678 2.19654 0.000 0.000 1.000
v -0.46458 -0.09522 2.02464 0.000 0.000 1.000
v -0.43398 -0.14850 2.04768 0.000 0.000 1.000
v -0.52578 -0.18234 1.91106 0.000 0.000 1.000
v -0.51534 -0.11412 1.89900 0.000 0.000 1.000
v -0.50256 -0.01674 1.99008 0.000 0.000 1.000
v -0.56124 -0.05166 1.88622 0.000 0.000 1.000
v -0.55422 -0.12024 1.82862 0.000 0.000 1.000
v -0.58950 -0.06786 1.82970 0.000 0.000 1.000
v -0.58410 -0.12366 1.77372 0.000 0.000 1.000
v -0.61146 -0.08154 1.77228 0.000 0.000 1.000
v -0.62982 -0.10080 1.68156 0.000 0.000 1.000
v -0.56610 -0.18054 1.84734 0.000 0.000 1.000
v -0.42498 0.00000 2.20716 0.000 0.000 1.000
v -0.60570 -0.16506 1.79334 0.000 0.000 1.000
v -0.62154 -0.14760 1.74996 0.000 0.000 1.000
v -0.39636 0.08046 2.19654 0.000 0.000 1.000
v -0.23526 0.13446 2.48094 0.000 0.000 1.000
v -0.12258 0.08910 2.61882 0.000 0.000 1.000
v -0.35064 0.15678 2.19654 0.000 0.000 1.000
v -0.46458 0.09522 2.02464 0.000 0.000 1.000
v -0.43398 0.14850 2.04768 0.000 0.000 1.000
v -0.52578 0.18234 1.91106 0.000 0.000 1.000
v -0.51534 0.11412 1.89900 0.000 0.000 1.000
v -0.50256 0.01674 1.99008 0.000 0.000 1.000
v -0.56124 0.05166 1.88622 0.000 0.000 1.000
v -0.55422 0.12024 1.82862 0.000 0.000 1.000
v -0.58950 0.06786 1.82970 0.000 0.000 1.000
v -0.58410 0.12366 1.77372 0.000 0.000 1.000
v -0.61146 0.08154 1.77228 0.000 0.000 1.000
v -0.62982 0.10080 1.68156 0.000 0.000 1.000
v -0.56610 0.18054 1.84734 0.000 0.000 1.000
v -0.60570 0.16506 1.79334 0.000 0.000 1.000
v -0.62154 0.14760 1.74996 0.000 0.000 1.000
v -0.65826 -0.15786 1.82718 0.000 0.000 1.000
v -0.65448 -0.18702 1.74960 0.000 0.000 1.000
v -0.63882 -0.22518 1.75050 0.000 0.000 1.000
v -0.63360 -0.22428 1.70586 0.000 0.000 1.000
v -0.62208 -0.23454 1.81782 0.000 0.000 1.000
v -0.59562 -0.23778 1.88604 0.000 0.000 0.992
v -0.63486 -0.14598 1.90422 0.000 0.000 0.988
v -0.52344 -0.23292 1.95516 0.000 0.000 0.886
v -0.59940 -0.12708 1.96884 0.000 0.000 0.878
v -0.52074 -0.13896 2.03760 0.000 0.000 0.804
v -0.46224 -0.20898 2.03580 0.000 0.000 0.804
v -0.37242 -0.15120 2.22030 0.000 0.000 0.969
v -0.42498 0.00000 2.20716 0.000 0.000 0.941
v -0.52074 -0.13896 2.03760 0.000 0.000 0.804
v -0.53712 0.00000 2.02788 0.000 0.000 0.804
v -0.62874 0.00000 1.94922 0.000 0.000 0.867
v -0.59940 -0.12708 1.96884 0.000 0.000 0.878
v -0.62730 -0.12150 1.90674 0.000 0.000 0.988
v -0.64980 0.00000 1.88406 0.000 0.000 0.941
v -0.64350 -0.11052 1.84950 0.000 0.000 0.992
v -0.25092 -0.12420 2.51064 0.000 0.000 1.000
v -0.27468 0.00000 2.51676 0.000 0.000 1.000
v -0.18612 -0.09216 2.76210 0.000 0.000 1.000
v -0.21402 0.00000 2.76210 0.000 0.000 1.000
v -0.65664 -0.09252 1.77588 0.000 0.000 1.000
v -0.66294 0.00000 1.78272 0.000 0.000 1.000
v -0.65898 0.00000 1.71810 0.000 0.000 1.000
v -0.65448 -0.07722 1.70658 0.000 0.000 1.000
v -0.64962 -0.04914 1.63926 0.000 0.000 1.000
v -0.66942 0.00000 1.65492 0.000 0.000 1.000
v -0.67428 0.00000 1.56582 0.000 0.000 1.000
v -0.19962 0.00000 2.80980 0.000 0.000 1.000
v -0.37242 -0.15120 2.22030 0.000 0.000 0.969
v -0.31770 -0.25074 2.14362 0.000 0.000 0.976
v -0.27540 -0.23040 2.23848 0.000 0.000 0.969
v -0.18828 -0.20430 2.48886 0.000 0.000 1.000
v -0.25092 -0.12420 2.51064 0.000 0.000 1.000
v -0.15930 -0.13356 2.73870 0.000 0.000 1.000
v -0.18612 -0.09216 2.76210 0.000 0.000 1.000
v -0.11790 -0.16758 2.71638 0.000 0.000 1.000
v -0.58986 -0.27990 1.79442 0.000 0.000 1.000
v -0.58842 -0.30528 1.78092 0.000 0.000 1.000
v -0.56268 -0.27972 1.83258 0.000 0.000 1.000
v -0.57384 -0.31014 1.81782 0.000 0.000 1.000
v -0.60858 -0.28044 1.71684 0.000 0.000 1.000
v -0.54216 -0.27180 1.88820 0.000 0.000 0.894
v -0.54324 -0.31284 1.85454 0.000 0.000 0.898
v -0.48546 -0.30672 1.92960 0.000 0.000 0.898
v -0.51624 -0.25380 1.95660 0.000 0.000 0.886
v -0.46224 -0.20898 2.03580 0.000 0.000 0.804
v -0.43128 -0.28998 1.98054 0.000 0.000 0.898
v -0.38160 -0.27180 2.03202 0.000 0.000 0.808
v -0.31770 -0.25074 2.14362 0.000 0.000 0.976
v -0.37242 -0.15120 2.22030 0.000 0.000 0.969
v -0.48546 -0.30672 1.92960 0.000 0.000 0.898
v -0.38628 -0.31824 1.91376 0.000 0.000 1.000
v -0.43128 -0.28998 1.98054 0.000 0.000 0.898
v -0.46242 -0.34416 1.85886 0.000 0.000 0.961
v -0.29286 -0.27900 2.00088 0.000 0.000 0.980
v -0.38160 -0.27180 2.03202 0.000 0.000 0.808
v -0.31770 -0.25074 2.14362 0.000 0.000 0.976
v -0.21942 -0.25668 2.15226 0.000 0.000 1.000
v -0.15912 -0.21852 2.23326 0.000 0.000 1.000
v -0.27540 -0.23040 2.23848 0.000 0.000 0.969
v -0.12780 -0.21888 2.46438 0.000 0.000 1.000
v -0.18828 -0.20430 2.48886 0.000 0.000 1.000
v -0.54324 -0.31284 1.85454 0.000 0.000 0.898
v -0.51066 -0.33246 1.82844 0.000 0.000 0.961
v -0.54234 -0.32958 1.78668 0.000 0.000 1.000
v -0.57384 -0.31014 1.81782 0.000 0.000 1.000
v -0.58842 -0.30528 1.78092 0.000 0.000 1.000
v -0.56772 -0.31680 1.75608 0.000 0.000 1.000
v -0.60858 -0.28044 1.71684 0.000 0.000 1.000
v -0.53442 -0.33552 1.79172 0.000 0.000 1.000
v -0.54468 -0.33048 1.75734 0.000 0.000 1.000
v -0.52200 -0.33642 1.77822 0.000 0.000 1.000
v -0.51066 -0.33246 1.82844 0.000 0.000 0.961
v -0.49554 -0.34164 1.81710 0.000 0.000 0.961
v -0.46242 -0.34416 1.85886 0.000 0.000 0.961
v -0.63882 0.22518 1.75050 0.000 0.000 1.000
v -0.65448 0.18702 1.74960 0.000 0.000 1.000
v -0.65826 0.15786 1.82718 0.000 0.000 1.000
v -0.63360 0.22428 1.70586 0.000 0.000 1.000
v -0.62208 0.23454 1.81782 0.000 0.000 1.000
v -0.59562 0.23778 1.88604 0.000 0.000 0.992
v -0.63486 0.14598 1.90422 0.000 0.000 0.988
v -0.52344 0.23292 1.95516 0.000 0.000 0.886
v -0.59940 0.12708 1.96884 0.000 0.000 0.878
v -0.52074 0.13896 2.03760 0.000 0.000 0.804
v -0.46224 0.20898 2.03580 0.000 0.000 0.804
v -0.37242 0.15120 2.22030 0.000 0.000 0.969
v -0.52074 0.13896 2.03760 0.000 0.000 0.804
v -0.42498 0.00000 2.20716 0.000 0.000 0.941
v -0.53712 0.00000 2.02788 0.000 0.000 0.804
v -0.62874 0.00000 1.94922 0.000 0.000 0.867
v -0.59940 0.12708 1.96884 0.000 0.000 0.878
v -0.62730 0.12150 1.90674 0.000 0.000 0.988
v -0.64980 0.00000 1.88406 0.000 0.000 0.941
v -0.64350 0.11052 1.84950 0.000 0.000 0.992
v -0.25092 0.12420 2.51064 0.000 0.000 1.000
v -0.27468 0.00000 2.51676 0.000 0.000 1.000
v -0.18612 0.09216 2.76210 0.000 0.000 1.000
v -0.21402 0.00000 2.76210 0.000 0.000 1.000
v -0.65664 0.09252 1.77588 0.000 0.000 1.000
v -0.66294 0.00000 1.78272 0.000 0.000 1.000
v -0.65898 0.00000 1.71810 0.000 0.000 1.000
v -0.65448 0.07722 1.70658 0.000 0.000 1.000
v -0.64962 0.04914 1.63926 0.000 0.000 1.000
v -0.66942 0.00000 1.65492 0.000 0.000 1.000
v -0.67428 0.00000 1.56582 0.000 0.000 1.000
v -0.19962 0.00000 2.80980 0.000 0.000 1.000
v -0.27540 0.23040 2.23848 0.000 0.000 0.969
v -0.31770 0.25074 2.14362 0.000 0.000 0.976
v -0.37242 0.15120 2.22030 0.000 0.000 0.969
v -0.18828 0.20430 2.48886 0.000 0.000 1.000
v -0.25092 0.12420 2.51064 0.000 0.000 1.000
v -0.15930 0.13356 2.73870 0.000 0.000 1.000
v -0.18612 0.09216 2.76210 0.000 0.000 1.000
v -0.11790 0.16758 2.71638 0.000 0.000 1.000
v -0.31770 0.25074 2.14362 0.000 0.000 0.976
v -0.46224 0.20898 2.03580 0.000 0.000 0.804
v -0.38160 0.27180 2.03202 0.000 0.000 0.808
v -0.43128 0.28998 1.98054 0.000 0.000 0.898
v -0.48546 0.30672 1.92960 0.000 0.000 0.898
v -0.51624 0.25380 1.95660 0.000 0.000 0.886
v -0.54216 0.27180 1.88820 0.000 0.000 0.894
v -0.54324 0.31284 1.85454 0.000 0.000 0.898
v -0.57384 0.31014 1.81782 0.000 0.000 1.000
v -0.56268 0.27972 1.83258 0.000 0.000 1.000
v -0.58842 0.30528 1.78092 0.000 0.000 1.000
v -0.58986 0.27990 1.79442 0.000 0.000 1.000
v -0.60858 0.28044 1.71684 0.000 0.000 1.000
v -0.43128 0.28998 1.98054 0.000 0.000 0.898
v -0.38628 0.31824 1.91376 0.000 0.000 1.000
v -0.48546 0.30672 1.92960 0.000 0.000 0.898
v -0.46242 0.34416 1.85886 0.000 0.000 0.961
v -0.29286 0.27900 2.00088 0.000 0.000 0.980
v -0.38160 0.27180 2.03202 0.000 0.000 0.808
v -0.31770 0.25074 2.14362 0.000 0.000 0.976
v -0.21942 0.25668 2.15226 0.000 0.000 1.000
v -0.15912 0.21852 2.23326 0.000 0.000 1.000
v -0.27540 0.23040 2.23848 0.000 0.000 0.969
v -0.12780 0.21888 2.46438 0.000 0.000 1.000
v -0.18828 0.20430 2.48886 0.000 0.000 1.000
v -0.54324 0.31284 1.85454 0.000 0.000 0.898
v -0.51066 0.33246 1.82844 0.000 0.000 0.961
v -0.54234 0.32958 1.78668 0.000 0.000 1.000
v -0.57384 0.31014 1.81782 0.000 0.000 1.000
v -0.58842 0.30528 1.78092 0.000 0.000 1.000
v -0.56772 0.31680 1.75608 0.000 0.000 1.000
v -0.60858 0.28044 1.71684 0.000 0.000 1.000
v -0.52200 0.33642 1.77822 0.000 0.000 1.000
v -0.54468 0.33048 1.75734 0.000 0.000 1.000
v -0.53442 0.33552 1.79172 0.000 0.000 1.000
v -0.51066 0.33246 1.82844 0.000 0.000 0.961
v -0.49554 0.34164 1.81710 0.000 0.000 0.961
v -0.46242 0.34416 1.85886 0.000 0.000 0.961
v -0.18144 -0.06408 2.84670 0.000 0.000 1.000
v -0.16092 -0.01530 2.83374 0.000 0.000 1.000
v -0.19800 -0.00198 2.83644 0.000 0.000 1.000
v -0.14994 -0.06624 2.87226 0.000 0.000 1.000
v -0.15120 -0.10746 2.91150 0.000 0.000 0.843
v -0.21690 -0.11394 2.89116 0.000 0.000 1.000
v -0.19440 -0.12078 3.00006 0.000 0.000 0.843
v -0.25902 -0.13014 2.94534 0.000 0.000 1.000
v -0.23400 -0.09576 3.04452 0.000 0.000 0.839
v -0.30852 -0.09702 2.97090 0.000 0.000 0.949
v -0.26838 -0.04878 3.05802 0.000 0.000 0.839
v -0.30798 0.01908 3.05226 0.000 0.000 0.839
v -0.34686 -0.03762 2.97018 0.000 0.000 0.929
v -0.36810 0.03636 2.92716 0.000 0.000 1.000
v -0.32130 0.09036 2.99682 0.000 0.000 0.839
v -0.30942 0.12384 2.93850 0.000 0.000 0.839
v -0.32868 0.05940 2.86434 0.000 0.000 1.000
v -0.27882 0.12960 2.87442 0.000 0.000 0.843
v -0.26658 0.04500 2.83050 0.000 0.000 1.000
v -0.23616 0.10008 2.82528 0.000 0.000 0.843
v -0.22662 0.02952 2.81718 0.000 0.000 1.000
v -0.20268 0.06084 2.81898 0.000 0.000 1.000
v -0.14076 -0.03096 2.89332 0.000 0.000 1.000
v -0.19800 -0.00198 2.83644 0.000 0.000 1.000
v -0.18144 -0.06408 2.84670 0.000 0.000 1.000
v -0.18234 0.00738 2.85732 0.000 0.000 1.000
v -0.12852 -0.06444 2.93292 0.000 0.000 1.000
v -0.21690 -0.11394 2.89116 0.000 0.000 1.000
v -0.15408 -0.06408 3.00582 0.000 0.000 1.000
v -0.25902 -0.13014 2.94534 0.000 0.000 1.000
v -0.30852 -0.09702 2.97090 0.000 0.000 0.949
v -0.18396 -0.01908 3.04254 0.000 0.000 1.000
v -0.34686 -0.03762 2.97018 0.000 0.000 0.929
v -0.22050 0.04140 3.04290 0.000 0.000 0.929
v -0.17406 0.06210 2.84688 0.000 0.000 1.000
v -0.22662 0.02952 2.81718 0.000 0.000 1.000
v -0.19116 0.08802 2.87100 0.000 0.000 1.000
v -0.26658 0.04500 2.83050 0.000 0.000 1.000
v -0.22356 0.12546 2.92500 0.000 0.000 1.000
v -0.32868 0.05940 2.86434 0.000 0.000 1.000
v -0.36810 0.03636 2.92716 0.000 0.000 1.000
v -0.24354 0.11430 2.99880 0.000 0.000 1.000
v -0.18234 0.00738 2.85732 0.000 0.000 1.000
v -0.16092 -0.01530 2.83374 0.000 0.000 1.000
v -0.14076 -0.03096 2.89332 0.000 0.000 1.000
v -0.17406 0.06210 2.84688 0.000 0.000 1.000
v -0.20268 0.06084 2.81898 0.000 0.000 1.000
v -0.23616 0.10008 2.82528 0.000 0.000 0.843
v -0.19116 0.08802 2.87100 0.000 0.000 1.000
v -0.27882 0.12960 2.87442 0.000 0.000 0.843
v -0.22356 0.12546 2.92500 0.000 0.000 1.000
v -0.30942 0.12384 2.93850 0.000 0.000 0.839
v -0.24354 0.11430 2.99880 0.000 0.000 1.000
v -0.32130 0.09036 2.99682 0.000 0.000 0.839
v -0.30798 0.01908 3.05226 0.000 0.000 0.839
v -0.22050 0.04140 3.04290 0.000 0.000 0.929
v -0.18396 -0.01908 3.04254 0.000 0.000 1.000
v -0.26838 -0.04878 3.05802 0.000 0.000 0.839
v -0.23400 -0.09576 3.04452 0.000 0.000 0.839
v -0.15408 -0.06408 3.00582 0.000 0.000 1.000
v -0.19440 -0.12078 3.00006 0.000 0.000 0.843
v -0.12852 -0.06444 2.93292 0.000 0.000 1.000
v -0.15120 -0.10746 2.91150 0.000 0.000 0.843
v -0.14994 -0.06624 2.87226 0.000 0.000 1.000
v -0.14076 -0.03096 2.89332 0.000 0.000 1.000
v 0.19314 -0.06930 2.71080 0.000 0.000 0.914
v 0.18720 -0.06624 2.64960 0.000 0.000 0.937
v 0.20754 -0.05220 2.70468 0.000 0.000 0.855
v 0.18954 -0.07254 2.75724 0.000 0.000 0.886
v 0.21024 -0.03600 2.74464 0.000 0.000 0.808
v 0.20124 -0.02160 2.79882 0.000 0.000 0.769
v 0.18126 -0.06120 2.79882 0.000 0.000 0.847
v 0.17514 -0.00720 2.85480 0.000 0.000 0.824
v 0.15876 -0.04644 2.85120 0.000 0.000 0.886
v 0.13050 0.00900 2.89170 0.000 0.000 0.925
v 0.12240 -0.02592 2.88468 0.000 0.000 0.937
v 0.06984 -0.00612 2.90376 0.000 0.000 0.988
v 0.21978 0.00180 2.73240 0.000 0.000 0.839
v 0.20754 -0.05220 2.70468 0.000 0.000 0.855
v 0.22212 -0.01836 2.68848 0.000 0.000 0.890
v 0.19908 -0.05724 2.66688 0.000 0.000 0.969
v 0.21402 -0.03276 2.65554 0.000 0.000 0.965
v 0.20430 0.02142 2.79882 0.000 0.000 0.749
v 0.19746 0.03780 2.71800 0.000 0.000 0.914
v 0.22212 -0.01836 2.68848 0.000 0.000 0.890
v 0.20340 0.01800 2.67480 0.000 0.000 0.969
v 0.19494 -0.00504 2.64492 0.000 0.000 0.980
v 0.21402 -0.03276 2.65554 0.000 0.000 0.965
v 0.18000 0.06444 2.79882 0.000 0.000 0.827
v 0.15840 0.06408 2.84724 0.000 0.000 0.898
v 0.17424 0.03114 2.85246 0.000 0.000 0.851
v 0.12924 0.03582 2.88594 0.000 0.000 0.910
v 0.11682 0.05238 2.88054 0.000 0.000 0.945
v 0.06354 0.02466 2.90430 0.000 0.000 0.973
v 0.18522 -0.03636 2.61558 0.000 0.000 1.000
v 0.19476 -0.05112 2.62242 0.000 0.000 1.000
v 0.16632 -0.06876 2.59704 0.000 0.000 1.000
v 0.17424 0.03114 2.85246 0.000 0.000 0.851
v 0.12924 0.03582 2.88594 0.000 0.000 0.910
v 0.06354 0.02466 2.90430 0.000 0.000 0.973
v 0.03060 0.00000 2.90754 0.000 0.000 0.980
v 0.18000 0.06444 2.79882 0.000 0.000 0.827
v 0.19746 0.03780 2.71800 0.000 0.000 0.914
v 0.18036 0.08280 2.75400 0.000 0.000 0.914
v 0.18738 0.06120 2.70720 0.000 0.000 0.941
v 0.20340 0.01800 2.67480 0.000 0.000 0.969
v 0.19314 0.03942 2.66832 0.000 0.000 0.988
v 0.20286 0.00270 2.64906 0.000 0.000 0.988
v 0.19638 0.01314 2.64078 0.000 0.000 1.000
v 0.20034 -0.02484 2.61324 0.000 0.000 1.000
v 0.15984 0.11700 2.66940 0.000 0.000 0.957
v 0.14544 0.13734 2.63088 0.000 0.000 0.973
v 0.15372 0.13662 2.67444 0.000 0.000 0.922
v 0.17118 0.10080 2.71080 0.000 0.000 0.914
v 0.16668 0.13050 2.72430 0.000 0.000 0.863
v 0.18036 0.08280 2.75400 0.000 0.000 0.914
v 0.17028 0.11322 2.79882 0.000 0.000 0.769
v 0.14040 0.14400 2.73780 0.000 0.000 0.871
v 0.13590 0.14400 2.67516 0.000 0.000 0.945
v 0.15372 0.13662 2.67444 0.000 0.000 0.922
v 0.13680 0.13050 2.79882 0.000 0.000 0.827
v 0.18000 0.06444 2.79882 0.000 0.000 0.827
v 0.15588 0.08838 2.84490 0.000 0.000 0.855
v 0.12420 0.10314 2.84760 0.000 0.000 0.882
v 0.11682 0.05238 2.88054 0.000 0.000 0.945
v 0.13140 0.14220 2.61990 0.000 0.000 0.992
v 0.13140 0.14220 2.61990 0.000 0.000 0.992
v 0.15840 0.06408 2.84724 0.000 0.000 0.898
v 0.11682 0.05238 2.88054 0.000 0.000 0.945
v 0.09792 0.06372 2.88414 0.000 0.000 0.933
v 0.06354 0.02466 2.90430 0.000 0.000 0.973
v 0.02088 -0.18846 2.67120 0.000 0.000 1.000
v 0.02250 -0.18450 2.61594 0.000 0.000 1.000
v 0.07614 -0.19962 2.68596 0.000 0.000 0.894
v 0.07200 -0.19764 2.60334 0.000 0.000 0.953
v 0.02430 -0.18450 2.74320 0.000 0.000 0.894
v 0.07920 -0.19386 2.74230 0.000 0.000 0.820
v 0.02880 -0.17370 2.80836 0.000 0.000 0.933
v 0.07920 -0.17586 2.80476 0.000 0.000 0.769
v 0.03150 -0.13950 2.85354 0.000 0.000 0.933
v 0.07380 -0.13896 2.85336 0.000 0.000 0.855
v 0.02862 -0.17730 2.54160 0.000 0.000 1.000
v 0.07740 -0.18990 2.53620 0.000 0.000 0.973
v 0.06120 -0.16290 2.44800 0.000 0.000 1.000
v 0.09000 -0.17064 2.45700 0.000 0.000 1.000
v 0.07920 -0.14184 2.40480 0.000 0.000 1.000
v 0.10260 -0.15210 2.40660 0.000 0.000 1.000
v 0.12600 -0.11340 2.35080 0.000 0.000 1.000
v 0.03186 -0.09954 2.88504 0.000 0.000 0.933
v 0.06570 -0.09630 2.88576 0.000 0.000 0.894
v 0.03132 -0.04266 2.90340 0.000 0.000 0.933
v 0.04770 -0.03672 2.90430 0.000 0.000 0.933
v 0.03060 0.00000 2.90754 0.000 0.000 0.980
v 0.04320 -0.15570 2.44800 0.000 0.000 1.000
v 0.06480 -0.13590 2.38680 0.000 0.000 1.000
v 0.04770 0.03672 2.90430 0.000 0.000 0.933
v 0.03132 0.04266 2.90340 0.000 0.000 0.933
v 0.06570 0.09630 2.88576 0.000 0.000 0.894
v 0.03186 0.09954 2.88504 0.000 0.000 0.933
v 0.07380 0.13896 2.85336 0.000 0.000 0.855
v 0.03150 0.13950 2.85354 0.000 0.000 0.933
v 0.07920 0.17586 2.80476 0.000 0.000 0.769
v 0.02880 0.17370 2.80836 0.000 0.000 0.933
v 0.07920 0.19386 2.74230 0.000 0.000 0.820
v 0.02430 0.18450 2.74320 0.000 0.000 0.894
v 0.07614 0.19962 2.68596 0.000 0.000 0.894
v 0.02088 0.18846 2.67120 0.000 0.000 1.000
v 0.02250 0.18450 2.61594 0.000 0.000 1.000
v 0.07200 0.19764 2.60334 0.000 0.000 0.953
v 0.02862 0.17730 2.54160 0.000 0.000 1.000
v 0.07740 0.18990 2.53620 0.000 0.000 0.973
v 0.06120 0.16290 2.44800 0.000 0.000 1.000
v 0.09000 0.17064 2.45700 0.000 0.000 1.000
v 0.07920 0.14184 2.40480 0.000 0.000 1.000
v 0.10260 0.15210 2.40660 0.000 0.000 1.000
v 0.12600 0.11340 2.35080 0.000 0.000 1.000
v 0.04320 0.15570 2.44800 0.000 0.000 1.000
v 0.06480 0.13590 2.38680 0.000 0.000 1.000
v 0.07614 -0.19962 2.68596 0.000 0.000 0.894
v 0.13590 -0.14400 2.67516 0.000 0.000 0.945
v 0.07920 -0.19386 2.74230 0.000 0.000 0.820
v 0.07200 -0.19764 2.60334 0.000 0.000 0.953
v 0.14040 -0.14400 2.73780 0.000 0.000 0.871
v 0.07920 -0.17586 2.80476 0.000 0.000 0.769
v 0.12690 -0.14220 2.59200 0.000 0.000 0.973
v 0.12240 -0.13680 2.53980 0.000 0.000 1.000
v 0.07740 -0.18990 2.53620 0.000 0.000 0.973
v 0.11700 -0.13248 2.47482 0.000 0.000 1.000
v 0.09000 -0.17064 2.45700 0.000 0.000 1.000
v 0.11880 -0.12582 2.41218 0.000 0.000 1.000
v 0.10260 -0.15210 2.40660 0.000 0.000 1.000
v 0.12600 -0.11340 2.35080 0.000 0.000 1.000
v 0.13680 -0.13050 2.79882 0.000 0.000 0.827
v 0.13590 -0.14400 2.67516 0.000 0.000 0.945
v 0.12690 -0.14220 2.59200 0.000 0.000 0.973
v 0.14040 -0.13590 2.61180 0.000 0.000 1.000
v 0.13482 -0.13374 2.57292 0.000 0.000 1.000
v 0.14994 -0.12204 2.55510 0.000 0.000 1.000
v 0.18720 -0.06336 2.62944 0.000 0.000 1.000
v 0.19476 -0.05112 2.62242 0.000 0.000 1.000
v 0.16632 -0.06876 2.59704 0.000 0.000 1.000
v 0.07920 0.19386 2.74230 0.000 0.000 0.820
v 0.13590 0.14400 2.67516 0.000 0.000 0.945
v 0.07614 0.19962 2.68596 0.000 0.000 0.894
v 0.07200 0.19764 2.60334 0.000 0.000 0.953
v 0.14040 0.14400 2.73780 0.000 0.000 0.871
v 0.07920 0.17586 2.80476 0.000 0.000 0.769
v 0.13680 0.13050 2.79882 0.000 0.000 0.827
v 0.12420 0.10314 2.84760 0.000 0.000 0.882
v 0.12690 0.14220 2.59200 0.000 0.000 0.992
v 0.12240 0.13680 2.53980 0.000 0.000 1.000
v 0.07740 0.18990 2.53620 0.000 0.000 0.973
v 0.11700 0.13248 2.47482 0.000 0.000 1.000
v 0.09000 0.17064 2.45700 0.000 0.000 1.000
v 0.11880 0.12582 2.41218 0.000 0.000 1.000
v 0.10260 0.15210 2.40660 0.000 0.000 1.000
v 0.12600 0.11340 2.35080 0.000 0.000 1.000
v 0.07380 0.13896 2.85336 0.000 0.000 0.855
v 0.09792 0.06372 2.88414 0.000 0.000 0.933
v 0.06570 0.09630 2.88576 0.000 0.000 0.894
v 0.06354 0.02466 2.90430 0.000 0.000 0.973
v 0.04770 0.03672 2.90430 0.000 0.000 0.933
v 0.03060 0.00000 2.90754 0.000 0.000 0.980
v 0.14040 0.13590 2.61180 0.000 0.000 1.000
v 0.12690 0.14220 2.59200 0.000 0.000 0.992
v 0.13590 0.14400 2.67516 0.000 0.000 0.945
v 0.13482 0.13374 2.57292 0.000 0.000 1.000
v 0.14994 0.12204 2.55510 0.000 0.000 1.000
v -0.15912 -0.21852 2.23326 0.000 0.000 1.000
v -0.28638 -0.34254 1.99764 0.000 0.000 0.910
v -0.21942 -0.25668 2.15226 0.000 0.000 1.000
v -0.21708 -0.26784 2.20932 0.000 0.000 0.941
v -0.12780 -0.21888 2.46438 0.000 0.000 1.000
v -0.06318 -0.17964 2.45124 0.000 0.000 1.000
v 0.02088 -0.18846 2.67120 0.000 0.000 1.000
v -0.05436 -0.19314 2.69514 0.000 0.000 1.000
v -0.18828 -0.20430 2.48886 0.000 0.000 1.000
v -0.21708 -0.26784 2.20932 0.000 0.000 0.941
v -0.12780 -0.21888 2.46438 0.000 0.000 1.000
v -0.27324 -0.25956 2.16810 0.000 0.000 0.976
v -0.05436 -0.19314 2.69514 0.000 0.000 1.000
v -0.11790 -0.16758 2.71638 0.000 0.000 1.000
v -0.28638 -0.34254 1.99764 0.000 0.000 0.910
v -0.33264 -0.33948 1.96056 0.000 0.000 0.945
v -0.30150 -0.37476 1.93842 0.000 0.000 1.000
v -0.32706 -0.38934 1.89162 0.000 0.000 1.000
v -0.35694 -0.36108 1.89594 0.000 0.000 0.945
v -0.35784 -0.38232 1.84806 0.000 0.000 1.000
v -0.39888 -0.35946 1.82610 0.000 0.000 1.000
v -0.38862 -0.38232 1.80756 0.000 0.000 1.000
v -0.40428 -0.38466 1.78272 0.000 0.000 1.000
v -0.40536 -0.36396 1.78938 0.000 0.000 1.000
v -0.42174 -0.38880 1.75590 0.000 0.000 1.000
v -0.27324 -0.25956 2.16810 0.000 0.000 0.976
v -0.34074 -0.32508 1.92078 0.000 0.000 1.000
v -0.33264 -0.33948 1.96056 0.000 0.000 0.945
v -0.35694 -0.36108 1.89594 0.000 0.000 0.945
v -0.36036 -0.33966 1.88946 0.000 0.000 0.945
v -0.39888 -0.35946 1.82610 0.000 0.000 1.000
v -0.21942 0.25668 2.15226 0.000 0.000 1.000
v -0.28638 0.34254 1.99764 0.000 0.000 0.910
v -0.15912 0.21852 2.23326 0.000 0.000 1.000
v -0.21708 0.26784 2.20932 0.000 0.000 0.941
v -0.12780 0.21888 2.46438 0.000 0.000 1.000
v -0.06318 0.17964 2.45124 0.000 0.000 1.000
v 0.02088 0.18846 2.67120 0.000 0.000 1.000
v -0.05436 0.19314 2.69514 0.000 0.000 1.000
v -0.12780 0.21888 2.46438 0.000 0.000 1.000
v -0.21708 0.26784 2.20932 0.000 0.000 0.941
v -0.18828 0.20430 2.48886 0.000 0.000 1.000
v -0.27324 0.25956 2.16810 0.000 0.000 0.976
v -0.05436 0.19314 2.69514 0.000 0.000 1.000
v -0.11790 0.16758 2.71638 0.000 0.000 1.000
v -0.28638 0.34254 1.99764 0.000 0.000 0.910
v -0.33264 0.33948 1.96056 0.000 0.000 0.945
v -0.30150 0.37476 1.93842 0.000 0.000 1.000
v -0.32706 0.38934 1.89162 0.000 0.000 1.000
v -0.35694 0.36108 1.89594 0.000 0.000 0.945
v -0.35784 0.38232 1.84806 0.000 0.000 1.000
v -0.39888 0.35946 1.82610 0.000 0.000 1.000
v -0.38862 0.38232 1.80756 0.000 0.000 1.000
v -0.40428 0.38466 1.78272 0.000 0.000 1.000
v -0.40536 0.36396 1.78938 0.000 0.000 1.000
v -0.42174 0.38880 1.75590 0.000 0.000 1.000
v -0.33264 0.33948 1.96056 0.000 0.000 0.945
v -0.34074 0.32508 1.92078 0.000 0.000 1.000
v -0.27324 0.25956 2.16810 0.000 0.000 0.976
v -0.35694 0.36108 1.89594 0.000 0.000 0.945
v -0.36036 0.33966 1.88946 0.000 0.000 0.945
v -0.39888 0.35946 1.82610 0.000 0.000 1.000
v 0.03132 0.04266 2.90340 0.000 0.000 0.933
v 0.03186 0.09954 2.88504 0.000 0.000 0.933
v 0.00000 0.05616 2.90430 0.000 0.000 0.941
v 0.00000 0.09774 2.88954 0.000 0.000 0.929
v 0.03150 0.13950 2.85354 0.000 0.000 0.933
v 0.00000 0.13860 2.86092 0.000 0.000 0.922
v -0.05634 0.05580 2.89962 0.000 0.000 0.980
v -0.05634 0.09450 2.88720 0.000 0.000 0.976
v -0.05688 0.13320 2.86416 0.000 0.000 0.937
v -0.09540 0.05310 2.89260 0.000 0.000 0.996
v -0.09576 0.08604 2.88360 0.000 0.000 0.996
v -0.09900 0.11952 2.86524 0.000 0.000 0.937
v -0.12276 0.04140 2.88360 0.000 0.000 0.996
v -0.12618 0.09504 2.86110 0.000 0.000 0.918
v -0.15714 0.02880 2.87262 0.000 0.000 1.000
v -0.16200 0.04806 2.85354 0.000 0.000 0.957
v -0.18216 0.00000 2.84958 0.000 0.129 0.871
v 0.03060 0.00000 2.90754 0.000 0.000 0.980
v 0.03132 0.04266 2.90340 0.000 0.000 0.933
v 0.00000 0.00000 2.91060 0.000 0.000 0.933
v 0.00000 0.05616 2.90430 0.000 0.000 0.941
v -0.05670 0.00000 2.90520 0.000 0.000 0.980
v -0.05634 0.05580 2.89962 0.000 0.000 0.980
v -0.09540 0.00000 2.89890 0.000 0.000 0.996
v -0.09540 0.05310 2.89260 0.000 0.000 0.996
v -0.12186 0.00000 2.89134 0.000 0.000 1.000
v -0.12276 0.04140 2.88360 0.000 0.000 0.996
v -0.15606 0.00000 2.87874 0.000 0.000 1.000
v -0.15714 0.02880 2.87262 0.000 0.000 1.000
v -0.18216 0.00000 2.84958 0.000 0.129 0.871
v 0.00000 0.17226 2.81430 0.000 0.000 0.827
v 0.02430 0.18450 2.74320 0.000 0.000 0.894
v 0.00000 0.18702 2.74590 0.000 0.000 0.843
v 0.02880 0.17370 2.80836 0.000 0.000 0.933
v -0.03294 0.18720 2.75058 0.000 0.000 0.851
v -0.05670 0.16578 2.82150 0.000 0.000 0.831
v -0.06372 0.18054 2.75778 0.000 0.000 0.859
v -0.09468 0.17118 2.76624 0.000 0.000 0.859
v -0.11088 0.14364 2.82708 0.000 0.000 0.835
v -0.12438 0.15588 2.77416 0.000 0.000 0.859
v -0.14814 0.13950 2.78334 0.000 0.000 0.875
v -0.15696 0.11196 2.83140 0.000 0.000 0.859
v -0.16794 0.11538 2.79234 0.000 0.000 0.894
v -0.18720 0.08478 2.80314 0.000 0.000 0.910
v -0.17568 0.05904 2.83770 0.000 0.000 0.914
v -0.19638 0.04392 2.82096 0.000 0.000 0.922
v -0.18216 0.00000 2.84958 0.000 0.129 0.871
v -0.15930 0.13356 2.73870 0.000 0.000 1.000
v -0.16794 0.11538 2.79234 0.000 0.000 0.894
v -0.18720 0.08478 2.80314 0.000 0.000 0.910
v -0.12438 0.15588 2.77416 0.000 0.000 0.859
v -0.11790 0.16758 2.71638 0.000 0.000 1.000
v -0.09468 0.17118 2.76624 0.000 0.000 0.859
v -0.05436 0.19314 2.69514 0.000 0.000 1.000
v -0.06372 0.18054 2.75778 0.000 0.000 0.859
v -0.03294 0.18720 2.75058 0.000 0.000 0.851
v 0.00000 0.19476 2.67930 0.000 0.000 1.000
v 0.00000 0.18702 2.74590 0.000 0.000 0.843
v 0.02088 0.18846 2.67120 0.000 0.000 1.000
v 0.02430 0.18450 2.74320 0.000 0.000 0.894
v -0.18612 0.09216 2.76210 0.000 0.000 1.000
v -0.19962 0.00000 2.80980 0.000 0.000 1.000
v -0.19638 0.04392 2.82096 0.000 0.000 0.922
v -0.19620 0.00000 2.82654 0.000 0.067 0.933
v -0.18216 0.00000 2.84958 0.000 0.129 0.871
v 0.00000 0.13860 2.86092 0.000 0.000 0.922
v 0.02880 0.17370 2.80836 0.000 0.000 0.933
v 0.00000 0.17226 2.81430 0.000 0.000 0.827
v 0.03150 0.13950 2.85354 0.000 0.000 0.933
v -0.05688 0.13320 2.86416 0.000 0.000 0.937
v -0.05670 0.16578 2.82150 0.000 0.000 0.831
v -0.09900 0.11952 2.86524 0.000 0.000 0.937
v -0.11088 0.14364 2.82708 0.000 0.000 0.835
v -0.12618 0.09504 2.86110 0.000 0.000 0.918
v -0.15696 0.11196 2.83140 0.000 0.000 0.859
v -0.16200 0.04806 2.85354 0.000 0.000 0.957
v -0.17568 0.05904 2.83770 0.000 0.000 0.914
v -0.18216 0.00000 2.84958 0.000 0.129 0.871
v -0.05436 0.19314 2.69514 0.000 0.000 1.000
v 0.02088 0.18846 2.67120 0.000 0.000 1.000
v 0.00000 0.19476 2.67930 0.000 0.000 1.000
v -0.15606 0.00000 2.87874 0.000 0.000 1.000
v -0.18216 0.00000 2.84958 0.000 0.129 0.871
v -0.15714 -0.02880 2.87262 0.000 0.000 1.000
v -0.12276 -0.04140 2.88360 0.000 0.000 0.996
v -0.12186 0.00000 2.89134 0.000 0.000 1.000
v -0.09540 -0.05310 2.89260 0.000 0.000 0.996
v -0.09540 0.00000 2.89890 0.000 0.000 0.996
v -0.05634 -0.05580 2.89962 0.000 0.000 0.980
v -0.05670 0.00000 2.90520 0.000 0.000 0.980
v 0.00000 -0.05616 2.90430 0.000 0.000 0.941
v 0.00000 0.00000 2.91060 0.000 0.000 0.933
v 0.03132 -0.04266 2.90340 0.000 0.000 0.933
v 0.03060 0.00000 2.90754 0.000 0.000 0.980
v -0.18216 0.00000 2.84958 0.000 0.129 0.871
v -0.19638 -0.04392 2.82096 0.000 0.000 0.922
v -0.17568 -0.05904 2.83770 0.000 0.000 0.914
v -0.18720 -0.08478 2.80314 0.000 0.000 0.910
v -0.15696 -0.11196 2.83140 0.000 0.000 0.859
v -0.16794 -0.11538 2.79234 0.000 0.000 0.894
v -0.14814 -0.13950 2.78334 0.000 0.000 0.875
v -0.11088 -0.14364 2.82708 0.000 0.000 0.835
v -0.12438 -0.15588 2.77416 0.000 0.000 0.859
v -0.09468 -0.17118 2.76624 0.000 0.000 0.859
v -0.05670 -0.16578 2.82150 0.000 0.000 0.831
v -0.06372 -0.18054 2.75778 0.000 0.000 0.859
v -0.03294 -0.18720 2.75058 0.000 0.000 0.851
v 0.00000 -0.17226 2.81430 0.000 0.000 0.827
v 0.00000 -0.18702 2.74590 0.000 0.000 0.843
v 0.02430 -0.18450 2.74320 0.000 0.000 0.894
v 0.02880 -0.17370 2.80836 0.000 0.000 0.933
v -0.16794 -0.11538 2.79234 0.000 0.000 0.894
v -0.15930 -0.13356 2.73870 0.000 0.000 1.000
v -0.18720 -0.08478 2.80314 0.000 0.000 0.910
v -0.12438 -0.15588 2.77416 0.000 0.000 0.859
v -0.11790 -0.16758 2.71638 0.000 0.000 1.000
v -0.09468 -0.17118 2.76624 0.000 0.000 0.859
v -0.05436 -0.19314 2.69514 0.000 0.000 1.000
v -0.06372 -0.18054 2.75778 0.000 0.000 0.859
v -0.03294 -0.18720 2.75058 0.000 0.000 0.851
v 0.00000 -0.19476 2.67930 0.000 0.000 1.000
v 0.00000 -0.18702 2.74590 0.000 0.000 0.843
v 0.02088 -0.18846 2.67120 0.000 0.000 1.000
v 0.02430 -0.18450 2.74320 0.000 0.000 0.894
v -0.18612 -0.09216 2.76210 0.000 0.000 1.000
v -0.19962 0.00000 2.80980 0.000 0.000 1.000
v -0.19638 -0.04392 2.82096 0.000 0.000 0.922
v -0.19620 0.00000 2.82654 0.000 0.067 0.933
v -0.18216 0.00000 2.84958 0.000 0.129 0.871
v -0.15714 -0.02880 2.87262 0.000 0.000 1.000
v -0.18216 0.00000 2.84958 0.000 0.129 0.871
v -0.16200 -0.04806 2.85354 0.000 0.000 0.957
v -0.12618 -0.09504 2.86110 0.000 0.000 0.918
v -0.12276 -0.04140 2.88360 0.000 0.000 0.996
v -0.09576 -0.08604 2.88360 0.000 0.000 0.996
v -0.09540 -0.05310 2.89260 0.000 0.000 0.996
v -0.09900 -0.11952 2.86524 0.000 0.000 0.937
v -0.05688 -0.13320 2.86416 0.000 0.000 0.937
v -0.05634 -0.09450 2.88720 0.000 0.000 0.976
v 0.00000 -0.13860 2.86092 0.000 0.000 0.922
v -0.05634 -0.05580 2.89962 0.000 0.000 0.980
v 0.00000 -0.09774 2.88954 0.000 0.000 0.929
v 0.00000 -0.05616 2.90430 0.000 0.000 0.941
v 0.03186 -0.09954 2.88504 0.000 0.000 0.933
v 0.03132 -0.04266 2.90340 0.000 0.000 0.933
v 0.03150 -0.13950 2.85354 0.000 0.000 0.933
v -0.17568 -0.05904 2.83770 0.000 0.000 0.914
v -0.15696 -0.11196 2.83140 0.000 0.000 0.859
v -0.16200 -0.04806 2.85354 0.000 0.000 0.957
v -0.18216 0.00000 2.84958 0.000 0.129 0.871
v -0.12618 -0.09504 2.86110 0.000 0.000 0.918
v -0.11088 -0.14364 2.82708 0.000 0.000 0.835
v -0.09900 -0.11952 2.86524 0.000 0.000 0.937
v -0.05670 -0.16578 2.82150 0.000 0.000 0.831
v -0.05688 -0.13320 2.86416 0.000 0.000 0.937
v 0.00000 -0.17226 2.81430 0.000 0.000 0.827
v 0.00000 -0.13860 2.86092 0.000 0.000 0.922
v 0.02880 -0.17370 2.80836 0.000 0.000 0.933
v 0.03150 -0.13950 2.85354 0.000 0.000 0.933
v 0.00000 -0.19476 2.67930 0.000 0.000 1.000
v 0.02088 -0.18846 2.67120 0.000 0.000 1.000
v -0.05436 -0.19314 2.69514 0.000 0.000 1.000
v 0.10854 -0.21780 2.67246 0.000 0.000 0.894
v 0.15102 -0.17442 2.65752 0.000 0.000 0.945
v 0.09846 -0.20700 2.71800 0.000 0.000 0.820
v 0.11556 -0.23202 2.63124 0.000 0.000 0.953
v 0.15876 -0.13662 2.73420 0.000 0.000 0.871
v 0.07920 -0.17586 2.80476 0.000 0.000 0.769
v 0.15480 -0.11880 2.79702 0.000 0.000 0.827
v 0.13860 -0.09774 2.84940 0.000 0.000 0.882
v 0.13680 -0.22050 2.59830 0.000 0.000 0.973
v 0.12240 -0.25740 2.57058 0.000 0.000 1.000
v 0.07380 -0.13896 2.85336 0.000 0.000 0.855
v 0.09792 -0.06372 2.88414 0.000 0.000 0.933
v 0.06570 -0.09630 2.88576 0.000 0.000 0.894
v 0.06354 -0.02466 2.90430 0.000 0.000 0.973
v 0.04770 -0.03672 2.90430 0.000 0.000 0.933
v 0.03060 0.00000 2.90754 0.000 0.000 0.980
v 0.17442 -0.12708 2.69532 0.000 0.000 0.922
v 0.16218 -0.13158 2.67480 0.000 0.000 0.973
v 0.17514 -0.10728 2.69082 0.000 0.000 0.957
v 0.18072 -0.11034 2.73204 0.000 0.000 0.863
v 0.18468 -0.08460 2.72250 0.000 0.000 0.914
v 0.18954 -0.07254 2.75724 0.000 0.000 0.886
v 0.17496 -0.09792 2.79522 0.000 0.000 0.769
v 0.18126 -0.06120 2.79882 0.000 0.000 0.847
v 0.15768 -0.08118 2.84850 0.000 0.000 0.855
v 0.15480 -0.11880 2.79702 0.000 0.000 0.827
v 0.15876 -0.13662 2.73420 0.000 0.000 0.871
v 0.18072 -0.11034 2.73204 0.000 0.000 0.863
v 0.15840 -0.14688 2.69694 0.000 0.000 0.945
v 0.17442 -0.12708 2.69532 0.000 0.000 0.922
v 0.13860 -0.09774 2.84940 0.000 0.000 0.882
v 0.15876 -0.04644 2.85120 0.000 0.000 0.886
v 0.09792 -0.06372 2.88414 0.000 0.000 0.933
v 0.15138 -0.16488 2.65752 0.000 0.000 0.973
v 0.11736 -0.05022 2.88792 0.000 0.000 0.922
v 0.12240 -0.02592 2.88468 0.000 0.000 0.937
v 0.06984 -0.00612 2.90376 0.000 0.000 0.988
v 0.06354 -0.02466 2.90430 0.000 0.000 0.973
v 0.03060 0.00000 2.90754 0.000 0.000 0.980
v 0.15138 -0.16488 2.65752 0.000 0.000 0.973
v -0.15318 0.02916 2.89026 0.000 0.000 0.000
v -0.16362 0.04770 2.88864 0.000 0.000 0.000
v -0.16542 0.03762 2.92266 0.000 0.000 0.000
v -0.17730 0.06084 2.89836 0.000 0.000 0.000
v -0.18900 0.06354 2.91618 0.000 0.000 0.000
v -0.19422 0.05472 2.93490 0.000 0.000 0.000
v -0.19098 0.03780 2.94750 0.000 0.000 0.000
v -0.15750 0.01494 2.85894 0.000 0.000 0.000
v -0.17568 0.04698 2.85606 0.000 0.000 0.000
v -0.19926 0.06984 2.87316 0.000 0.000 0.000
v -0.21960 0.07452 2.90376 0.000 0.000 0.000
v -0.22860 0.05922 2.93634 0.000 0.000 0.000
v -0.17730 -0.00162 2.83716 0.000 0.000 0.000
v -0.19818 0.03564 2.83374 0.000 0.000 0.000
v -0.22554 0.06192 2.85354 0.000 0.000 0.000
v -0.24894 0.06732 2.88900 0.000 0.000 0.000
v -0.25938 0.04968 2.92644 0.000 0.000 0.000
v -0.25308 0.01566 2.95164 0.000 0.000 0.000
v -0.22302 0.02988 2.95812 0.000 0.000 0.000
v -0.15210 -0.01440 2.88090 0.000 0.000 0.000
v -0.14994 0.01224 2.90286 0.000 0.000 0.000
v -0.15516 0.00342 2.92158 0.000 0.000 0.000
v -0.16686 0.00612 2.93940 0.000 0.000 0.000
v -0.18054 0.01926 2.94930 0.000 0.000 0.000
v -0.16110 -0.02970 2.91330 0.000 0.000 0.000
v -0.18126 -0.02520 2.94408 0.000 0.000 0.000
v -0.20502 -0.00234 2.96118 0.000 0.000 0.000
v -0.18144 -0.05310 2.89998 0.000 0.000 0.000
v -0.17100 -0.03546 2.86236 0.000 0.000 0.000
v -0.20484 -0.04770 2.93544 0.000 0.000 0.000
v -0.23220 -0.02142 2.95506 0.000 0.000 0.000
v -0.20178 -0.04500 2.85264 0.000 0.000 0.000
v -0.20736 -0.01566 2.83068 0.000 0.000 0.000
v -0.22536 0.01656 2.82780 0.000 0.000 0.000
v -0.24984 -0.00504 2.83968 0.000 0.000 0.000
v -0.23940 -0.02358 2.84130 0.000 0.000 0.000
v -0.26496 -0.02340 2.86614 0.000 0.000 0.000
v -0.26352 0.00810 2.84958 0.000 0.000 0.000
v -0.27522 0.01080 2.86722 0.000 0.000 0.000
v -0.28044 0.00198 2.88594 0.000 0.000 0.000
v -0.27720 -0.01494 2.89854 0.000 0.000 0.000
v -0.24912 0.03924 2.84490 0.000 0.000 0.000
v -0.26928 0.04392 2.87550 0.000 0.000 0.000
v -0.27846 0.02862 2.90808 0.000 0.000 0.000
v -0.27288 -0.00072 2.92986 0.000 0.000 0.000
v -0.23616 -0.04050 2.85390 0.000 0.000 0.000
v -0.24138 -0.04932 2.87280 0.000 0.000 0.000
v -0.21096 -0.06030 2.88504 0.000 0.000 0.000
v -0.25308 -0.04680 2.89044 0.000 0.000 0.000
v -0.26676 -0.03366 2.90034 0.000 0.000 0.000
v -0.23112 -0.05562 2.91582 0.000 0.000 0.000
v -0.25470 -0.03294 2.93292 0.000 0.000 0.000
v -0.13536 -0.02718 2.90844 0.000 0.000 0.000
v -0.12708 -0.01746 2.90448 0.000 0.000 0.000
v -0.13806 -0.01872 2.91168 0.000 0.000 0.000
v -0.12996 -0.03006 2.90124 0.000 0.000 0.000
v -0.12510 -0.02592 2.89440 0.000 0.000 0.000
v -0.12366 -0.01692 2.89170 0.000 0.000 0.000
v -0.15048 -0.01962 2.90916 0.000 0.000 0.000
v -0.14634 -0.03150 2.90466 0.000 0.000 0.000
v -0.13878 -0.03582 2.89440 0.000 0.000 0.000
v -0.13194 -0.02970 2.88450 0.000 0.000 0.000
v -0.12996 -0.01710 2.88072 0.000 0.000 0.000
v -0.13680 -0.00972 2.90898 0.000 0.000 0.000
v -0.13194 -0.00540 2.90214 0.000 0.000 0.000
v -0.12654 -0.00846 2.89494 0.000 0.000 0.000
v -0.14850 -0.00684 2.90538 0.000 0.000 0.000
v -0.14166 -0.00090 2.89548 0.000 0.000 0.000
v -0.13392 -0.00504 2.88522 0.000 0.000 0.000
v -0.15390 -0.02826 2.89494 0.000 0.000 0.000
v -0.15678 -0.01980 2.89818 0.000 0.000 0.000
v -0.15336 -0.01908 2.88540 0.000 0.000 0.000
v -0.14850 -0.03114 2.88774 0.000 0.000 0.000
v -0.14364 -0.02700 2.88090 0.000 0.000 0.000
v -0.14220 -0.01800 2.87820 0.000 0.000 0.000
v -0.15534 -0.01080 2.89548 0.000 0.000 0.000
v -0.15048 -0.00648 2.88864 0.000 0.000 0.000
v -0.14508 -0.00954 2.88144 0.000 0.000 0.000
v -0.16398 0.07542 2.87658 0.000 0.000 0.000
v -0.15390 0.07398 2.86740 0.000 0.000 0.000
v -0.16668 0.07848 2.86794 0.000 0.000 0.000
v -0.16398 0.07686 2.85876 0.000 0.000 0.000
v -0.15714 0.07128 2.85462 0.000 0.000 0.000
v -0.15030 0.06516 2.85768 0.000 0.000 0.000
v -0.17442 0.06858 2.87964 0.000 0.000 0.000
v -0.17838 0.07290 2.86740 0.000 0.000 0.000
v -0.17442 0.07056 2.85444 0.000 0.000 0.000
v -0.16488 0.06282 2.84868 0.000 0.000 0.000
v -0.15516 0.05418 2.85318 0.000 0.000 0.000
v -0.15714 0.06930 2.87982 0.000 0.000 0.000
v -0.15030 0.06372 2.87550 0.000 0.000 0.000
v -0.14760 0.06210 2.86650 0.000 0.000 0.000
v -0.16470 0.05994 2.88432 0.000 0.000 0.000
v -0.15516 0.05220 2.87838 0.000 0.000 0.000
v -0.15120 0.04986 2.86542 0.000 0.000 0.000
v -0.18198 0.06066 2.86632 0.000 0.000 0.000
v -0.17910 0.05760 2.87514 0.000 0.000 0.000
v -0.17550 0.04878 2.86542 0.000 0.000 0.000
v -0.17928 0.05904 2.85732 0.000 0.000 0.000
v -0.17244 0.05364 2.85318 0.000 0.000 0.000
v -0.16560 0.04752 2.85624 0.000 0.000 0.000
v -0.17244 0.05148 2.87838 0.000 0.000 0.000
v -0.16560 0.04590 2.87406 0.000 0.000 0.000
v -0.16272 0.04428 2.86506 0.000 0.000 0.000
v -0.08820 -0.14130 2.59740 0.000 0.000 1.000
v -0.03870 -0.12060 2.52756 0.000 0.000 1.000
v -0.01620 -0.15984 2.59740 0.000 0.000 1.000
v -0.01890 -0.11160 2.49156 0.000 0.000 1.000
v -0.05580 -0.07902 2.46366 0.000 0.000 1.000
v 0.02088 -0.18846 2.67120 0.000 0.000 0.973
v -0.10800 0.00000 2.46366 0.000 0.000 1.000
v -0.10080 -0.02700 2.43540 0.000 0.000 1.000
v -0.09360 -0.04770 2.46366 0.000 0.000 1.000
v -0.18342 0.00000 2.59740 0.000 0.000 1.000
v -0.15840 -0.08262 2.59740 0.000 0.000 1.000
v -0.09360 0.04770 2.46366 0.000 0.000 1.000
v -0.10080 0.02700 2.43540 0.000 0.000 1.000
v -0.15840 0.08262 2.59740 0.000 0.000 1.000
v -0.09360 -0.04770 2.46366 0.000 0.000 1.000
v -0.07920 -0.06444 2.44080 0.000 0.000 1.000
v -0.05580 -0.07902 2.46366 0.000 0.000 1.000
v -0.08820 -0.14130 2.59740 0.000 0.000 1.000
v -0.15840 -0.08262 2.59740 0.000 0.000 1.000
v -0.01620 0.15984 2.59740 0.000 0.000 1.000
v -0.03870 0.12060 2.52756 0.000 0.000 1.000
v -0.08820 0.14130 2.59740 0.000 0.000 1.000
v -0.01890 0.11160 2.49156 0.000 0.000 1.000
v -0.05580 0.07902 2.46366 0.000 0.000 1.000
v 0.02088 0.18846 2.67120 0.000 0.000 0.973
v -0.05580 0.07902 2.46366 0.000 0.000 1.000
v -0.07920 0.06444 2.44080 0.000 0.000 1.000
v -0.09360 0.04770 2.46366 0.000 0.000 1.000
v -0.08820 0.14130 2.59740 0.000 0.000 1.000
v -0.15840 0.08262 2.59740 0.000 0.000 1.000
v -0.43578 -0.22428 1.91250 0.000 0.000 1.000
v -0.50958 -0.22788 1.86336 0.000 0.000 1.000
v -0.51372 -0.17910 1.92060 0.000 0.000 1.000
v -0.43398 -0.14850 2.04768 0.000 0.000 1.000
v -0.36558 -0.20340 2.02626 0.000 0.000 1.000
v -0.56232 -0.21078 1.87776 0.000 0.000 1.000
v -0.55188 -0.23580 1.81872 0.000 0.000 1.000
v -0.58680 -0.23022 1.82484 0.000 0.000 1.000
v -0.59724 -0.24768 1.74834 0.000 0.000 1.000
v -0.40050 -0.29070 1.90782 0.000 0.000 1.000
v -0.49212 -0.28422 1.85076 0.000 0.000 1.000
v -0.29286 -0.27900 2.00088 0.000 0.000 1.000
v -0.21942 -0.25668 2.15226 0.000 0.000 1.000
v -0.30168 -0.21888 2.18358 0.000 0.000 1.000
v -0.53946 -0.27414 1.81440 0.000 0.000 1.000
v -0.35064 -0.15678 2.19654 0.000 0.000 1.000
v -0.23526 -0.13446 2.48094 0.000 0.000 1.000
v -0.15912 -0.21852 2.23326 0.000 0.000 1.000
v -0.06318 -0.17964 2.45124 0.000 0.000 1.000
v -0.12258 -0.08928 2.61882 0.000 0.000 1.000
v 0.02088 -0.18846 2.67120 0.000 0.000 0.973
v -0.51372 0.17910 1.92060 0.000 0.000 1.000
v -0.50958 0.22788 1.86336 0.000 0.000 1.000
v -0.43578 0.22428 1.91250 0.000 0.000 1.000
v -0.43398 0.14850 2.04768 0.000 0.000 1.000
v -0.36558 0.20340 2.02626 0.000 0.000 1.000
v -0.56232 0.21078 1.87776 0.000 0.000 1.000
v -0.55188 0.23580 1.81872 0.000 0.000 1.000
v -0.58680 0.23022 1.82484 0.000 0.000 1.000
v -0.59724 0.24768 1.74834 0.000 0.000 1.000
v -0.40050 0.29070 1.90782 0.000 0.000 1.000
v -0.49212 0.28422 1.85076 0.000 0.000 1.000
v -0.29286 0.27900 2.00088 0.000 0.000 1.000
v -0.21942 0.25668 2.15226 0.000 0.000 1.000
v -0.30168 0.21888 2.18358 0.000 0.000 1.000
v -0.53946 0.27414 1.81440 0.000 0.000 1.000
v -0.35064 0.15678 2.19654 0.000 0.000 1.000
v -0.23526 0.13446 2.48094 0.000 0.000 1.000
v -0.15912 0.21852 2.23326 0.000 0.000 1.000
v -0.06318 0.17964 2.45124 0.000 0.000 1.000
v -0.12258 0.08928 2.61882 0.000 0.000 1.000
v 0.02088 0.18846 2.67120 0.000 0.000 0.973
v -0.22770 -0.02430 2.71008 0.000 0.000 1.000
v -0.28692 0.06570 2.66958 0.000 0.000 0.949
v -0.23130 0.03528 2.74176 0.000 0.000 1.000
v -0.20304 -0.04032 2.78406 0.000 0.000 1.000
v -0.29160 0.01260 2.63952 0.000 0.000 0.898
v -0.33966 0.06192 2.61720 0.000 0.000 0.933
v -0.32940 0.10476 2.64024 0.000 0.000 1.000
v -0.36324 0.09630 2.62260 0.000 0.000 0.929
v -0.38232 0.13122 2.64348 0.000 0.000 0.839
v -0.19872 -0.00270 2.81466 0.000 0.000 1.000
v -0.20700 -0.01638 2.83680 0.000 0.000 1.000
v -0.19656 0.01350 2.85066 0.000 0.000 1.000
v -0.19656 0.01350 2.85066 0.000 0.000 1.000
v -0.19872 -0.00270 2.81466 0.000 0.000 1.000
v -0.21546 0.02394 2.81970 0.000 0.000 1.000
v -0.23130 0.03528 2.74176 0.000 0.000 1.000
v -0.22410 -0.01026 2.81448 0.000 0.000 1.000
v -0.24894 0.04518 2.77992 0.000 0.000 1.000
v -0.30852 0.12366 2.74896 0.000 0.000 1.000
v -0.29160 0.10062 2.69586 0.000 0.000 1.000
v -0.25920 0.00918 2.76048 0.000 0.000 1.000
v -0.33084 0.06462 2.71098 0.000 0.000 1.000
v -0.35766 0.18630 2.76984 0.000 0.000 0.875
v -0.29160 0.10062 2.69586 0.000 0.000 1.000
v -0.35748 0.11790 2.64708 0.000 0.000 1.000
v -0.33894 0.13230 2.67462 0.000 0.000 0.945
v -0.31140 0.05796 2.65752 0.000 0.000 1.000
v -0.24606 0.00306 2.71674 0.000 0.000 1.000
v -0.23130 0.03528 2.74176 0.000 0.000 1.000
v -0.33084 0.06462 2.71098 0.000 0.000 1.000
v -0.36414 0.11412 2.68740 0.000 0.000 0.945
v -0.25920 0.00918 2.76048 0.000 0.000 1.000
v -0.38232 0.15012 2.68380 0.000 0.000 0.894
v -0.37962 0.15588 2.66094 0.000 0.000 0.902
v -0.40392 0.19836 2.69190 0.000 0.000 0.859
v -0.36900 0.16470 2.68218 0.000 0.000 0.882
v -0.31698 0.04032 2.68596 0.000 0.000 0.949
v -0.29160 0.01260 2.63952 0.000 0.000 0.898
v -0.22770 -0.02430 2.71008 0.000 0.000 1.000
v -0.25920 0.00918 2.76048 0.000 0.000 1.000
v -0.33966 0.06192 2.61720 0.000 0.000 0.933
v -0.36072 0.08226 2.65914 0.000 0.000 1.000
v -0.20304 -0.04032 2.78406 0.000 0.000 1.000
v -0.36324 0.09630 2.62260 0.000 0.000 0.929
v -0.38232 0.13122 2.64348 0.000 0.000 0.839
v -0.22410 -0.01026 2.81448 0.000 0.000 1.000
v -0.20700 -0.01638 2.83680 0.000 0.000 1.000
v -0.19656 0.01350 2.85066 0.000 0.000 1.000
v -0.29160 0.10062 2.69586 0.000 0.000 1.000
v -0.33894 0.13230 2.67462 0.000 0.000 0.945
v -0.34776 0.16164 2.74212 0.000 0.000 1.000
v -0.37314 0.18306 2.74554 0.000 0.000 0.933
v -0.30852 0.12366 2.74896 0.000 0.000 1.000
v -0.37800 0.17370 2.69892 0.000 0.000 0.910
v -0.41418 0.23706 2.75796 0.000 0.000 0.875
v -0.37314 0.18306 2.74554 0.000 0.000 0.933
v -0.36414 0.11412 2.68740 0.000 0.000 0.945
v -0.34776 0.16164 2.74212 0.000 0.000 1.000
v -0.33084 0.06462 2.71098 0.000 0.000 1.000
v -0.30852 0.12366 2.74896 0.000 0.000 1.000
v -0.38970 0.16416 2.70504 0.000 0.000 0.914
v -0.41418 0.23706 2.75796 0.000 0.000 0.875
v -0.38232 0.15012 2.68380 0.000 0.000 0.894
v -0.36900 0.16470 2.68218 0.000 0.000 0.882
v -0.40392 0.19836 2.69190 0.000 0.000 0.859
v -0.33894 0.13230 2.67462 0.000 0.000 0.945
v -0.36414 0.11412 2.68740 0.000 0.000 0.945
v -0.41418 0.23706 2.75796 0.000 0.000 0.875
v -0.37800 0.17370 2.69892 0.000 0.000 0.910
v -0.38970 0.16416 2.70504 0.000 0.000 0.914
v -0.33894 0.13230 2.67462 0.000 0.000 0.945
v -0.36414 0.11412 2.68740 0.000 0.000 0.945
vt 0.31275 0.95056
vt 0.44599 0.84601
vt 0.45046 0.95690
vt 0.31842 0.80009
vt 0.52461 0.60835
vt 0.32151 0.62298
vt 0.32333 0.56886
vt 0.47165 0.56204
vt 0.32884 0.52325
vt 0.58171 0.83210
vt 0.58081 0.97265
vt 0.32150 0.96301
vt 0.31891 0.85971
vt 0.45932 0.96679
vt 0.45257 0.81318
vt 0.24997 0.62766
vt 0.45449 0.61814
vt 0.46616 0.56327
vt 0.28832 0.57041
vt 0.46309 0.52055
vt 0.22078 0.83234
vt 0.22099 0.97129
vt 0.48204 0.51229
vt 0.39535 0.46600
vt 0.38353 0.54114
vt 0.51374 0.62557
vt 0.41627 0.62464
vt 0.32030 0.66445
vt 0.43097 0.84635
vt 0.42492 0.54993
vt 0.35201 0.49501
vt 0.32442 0.55822
vt 0.41223 0.48077
vt 0.41897 0.44957
vt 0.46621 0.55958
vt 0.51743 0.48471
vt 0.56472 0.55732
vt 0.58442 0.64355
vt 0.50106 0.64755
vt 0.39050 0.65791
vt 0.50167 0.87077
vt 0.43901 0.49295
vt 0.48324 0.48011
vt 0.48506 0.45052
vt 0.44106 0.97297
vt 0.44106 0.88265
vt 0.58329 0.97297
vt 0.60223 0.85326
vt 0.44106 0.82309
vt 0.57413 0.63976
vt 0.44106 0.63774
vt 0.44106 0.56298
vt 0.55857 0.57053
vt 0.45856 0.52331
vt 0.52747 0.52348
vt 0.47730 0.48938
vt 0.29884 0.97297
vt 0.30799 0.63976
vt 0.32356 0.57053
vt 0.42357 0.52331
vt 0.35466 0.52348
vt 0.40482 0.48938
vt 0.27990 0.85326
vt 0.48300 0.98123
vt 0.56105 0.94217
vt 0.41965 0.94519
vt 0.56105 0.94217
vt 0.47987 0.65627
vt 0.57574 0.65848
vt 0.48996 0.58396
vt 0.58856 0.58516
vt 0.57353 0.54597
vt 0.48564 0.54599
vt 0.39738 0.57110
vt 0.40355 0.53742
vt 0.49931 0.51284
vt 0.42098 0.51124
vt 0.50180 0.49426
vt 0.44713 0.48772
vt 0.48261 0.45131
vt 0.57072 0.51530
vt 0.38768 0.62060
vt 0.55898 0.49678
vt 0.53953 0.47840
vt 0.47987 0.65627
vt 0.56105 0.94217
vt 0.48300 0.98123
vt 0.57574 0.65848
vt 0.48996 0.58396
vt 0.58856 0.58516
vt 0.57353 0.54597
vt 0.48564 0.54599
vt 0.39738 0.57110
vt 0.40355 0.53742
vt 0.49931 0.51284
vt 0.42098 0.51124
vt 0.50180 0.49426
vt 0.44713 0.48772
vt 0.48261 0.45131
vt 0.57072 0.51530
vt 0.55898 0.49678
vt 0.53953 0.47840
vt 0.76380 0.56062
vt 0.72837 0.52326
vt 0.66649 0.51420
vt 0.65965 0.48886
vt 0.66608 0.54491
vt 0.65850 0.57520
vt 0.77184 0.59669
vt 0.65084 0.61764
vt 0.78049 0.63055
vt 0.74249 0.66775
vt 0.65212 0.66209
vt 0.71036 0.76706
vt 0.88342 0.74998
vt 0.73816 0.66764
vt 0.89455 0.66150
vt 0.89276 0.61102
vt 0.76017 0.62363
vt 0.76917 0.59484
vt 0.89534 0.58230
vt 0.78231 0.56969
vt 0.74005 0.89894
vt 0.88209 0.89459
vt 0.78269 0.96267
vt 0.88068 0.94866
vt 0.80249 0.53790
vt 0.89745 0.53947
vt 0.89804 0.51228
vt 0.81898 0.50843
vt 0.84860 0.47965
vt 0.90270 0.48536
vt 0.90539 0.44779
vt 0.88228 0.98965
vt 0.82712 0.77291
vt 0.73185 0.75225
vt 0.72789 0.79125
vt 0.71557 0.87560
vt 0.82444 0.87594
vt 0.75797 0.97769
vt 0.82708 0.97349
vt 0.71589 0.98253
vt 0.80534 0.53269
vt 0.76455 0.53153
vt 0.81087 0.55101
vt 0.76326 0.54921
vt 0.78400 0.49881
vt 0.81916 0.57138
vt 0.75873 0.56889
vt 0.75323 0.60307
vt 0.81997 0.60493
vt 0.82863 0.71067
vt 0.74599 0.69561
vt 0.73511 0.71886
vt 0.73185 0.75911
vt 0.82712 0.77646
vt 0.74273 0.63609
vt 0.63872 0.74170
vt 0.74035 0.75528
vt 0.65981 0.61350
vt 0.62410 0.79666
vt 0.73408 0.79428
vt 0.72767 0.84378
vt 0.61120 0.85156
vt 0.61597 0.90033
vt 0.72841 0.88417
vt 0.63200 0.97842
vt 0.71687 0.97755
vt 0.74423 0.58897
vt 0.66976 0.58579
vt 0.68161 0.56154
vt 0.74886 0.56534
vt 0.74344 0.54573
vt 0.69553 0.54129
vt 0.73537 0.51995
vt 0.66258 0.55878
vt 0.64886 0.53627
vt 0.63672 0.55919
vt 0.65101 0.58788
vt 0.63599 0.58747
vt 0.63942 0.62223
vt 0.94158 0.51420
vt 0.87970 0.52326
vt 0.84426 0.56062
vt 0.94842 0.48886
vt 0.94199 0.54491
vt 0.94957 0.57520
vt 0.83623 0.59669
vt 0.95723 0.61764
vt 0.82758 0.63055
vt 0.86558 0.66775
vt 0.95595 0.66209
vt 0.89771 0.76706
vt 0.86991 0.66764
vt 0.72465 0.74998
vt 0.71352 0.66150
vt 0.71531 0.61102
vt 0.84790 0.62363
vt 0.83890 0.59484
vt 0.71273 0.58230
vt 0.82576 0.56969
vt 0.86802 0.89894
vt 0.72598 0.89459
vt 0.82538 0.96267
vt 0.72739 0.94866
vt 0.80558 0.53790
vt 0.71062 0.53947
vt 0.71003 0.51228
vt 0.78909 0.50843
vt 0.75947 0.47965
vt 0.70537 0.48536
vt 0.70268 0.44779
vt 0.72579 0.98965
vt 0.88018 0.79125
vt 0.87622 0.75225
vt 0.78095 0.77291
vt 0.89250 0.87560
vt 0.78363 0.87594
vt 0.85010 0.97769
vt 0.78099 0.97349
vt 0.89218 0.98253
vt 0.87622 0.75806
vt 0.77944 0.71403
vt 0.87296 0.72148
vt 0.86208 0.70034
vt 0.85484 0.61621
vt 0.78810 0.61791
vt 0.78891 0.58741
vt 0.84934 0.58515
vt 0.84481 0.56725
vt 0.79720 0.56889
vt 0.84352 0.55118
vt 0.80273 0.55223
vt 0.82407 0.52144
vt 0.86772 0.75528
vt 0.96935 0.74170
vt 0.86534 0.63609
vt 0.94826 0.61350
vt 0.98397 0.79666
vt 0.87399 0.79428
vt 0.88040 0.84378
vt 0.99687 0.85156
vt 0.99210 0.90033
vt 0.87966 0.88417
vt 0.97607 0.97842
vt 0.89120 0.97755
vt 0.86384 0.58897
vt 0.93831 0.58579
vt 0.92646 0.56154
vt 0.85921 0.56534
vt 0.86463 0.54573
vt 0.91254 0.54129
vt 0.87270 0.51995
vt 0.97135 0.55919
vt 0.95921 0.53627
vt 0.94549 0.55878
vt 0.95706 0.58788
vt 0.97208 0.58747
vt 0.96865 0.62223
vt 0.83203 0.93766
vt 0.62109 0.99234
vt 0.83984 0.99234
vt 0.62109 0.93766
vt 0.62109 0.86734
vt 0.83203 0.86734
vt 0.62109 0.82828
vt 0.83203 0.83609
vt 0.62109 0.81266
vt 0.83203 0.79703
vt 0.62109 0.79703
vt 0.62109 0.71891
vt 0.83203 0.72672
vt 0.83203 0.79703
vt 0.62109 0.79703
vt 0.62109 0.81266
vt 0.83203 0.83609
vt 0.62109 0.82828
vt 0.83203 0.86734
vt 0.62109 0.86734
vt 0.83203 0.93766
vt 0.62109 0.93766
vt 0.29011 0.55562
vt 0.39519 0.51125
vt 0.40924 0.55500
vt 0.30208 0.51173
vt 0.27056 0.60203
vt 0.43110 0.60113
vt 0.25183 0.64125
vt 0.45193 0.64008
vt 0.46716 0.69932
vt 0.23998 0.70069
vt 0.47065 0.74866
vt 0.23935 0.75008
vt 0.29011 0.55562
vt 0.40924 0.55500
vt 0.27056 0.60203
vt 0.43110 0.60113
vt 0.25183 0.64125
vt 0.45193 0.64008
vt 0.46716 0.69932
vt 0.23998 0.70069
vt 0.70703 0.99234
vt 0.91797 0.99234
vt 0.70703 0.93766
vt 0.70703 0.93766
vt 0.91797 0.93766
vt 0.91797 0.86734
vt 0.70703 0.86734
vt 0.91797 0.82828
vt 0.70703 0.83609
vt 0.91797 0.81266
vt 0.70703 0.79703
vt 0.91797 0.79703
vt 0.91797 0.71891
vt 0.70703 0.71891
vt 0.70703 0.79703
vt 0.91797 0.79703
vt 0.91797 0.81266
vt 0.70703 0.83609
vt 0.91797 0.82828
vt 0.70703 0.86734
vt 0.91797 0.86734
vt 0.91797 0.93766
vt 0.69922 0.93766
vt 0.82816 0.17858
vt 0.78021 0.13069
vt 0.74596 0.17385
vt 0.85411 0.23592
vt 0.72394 0.23365
vt 0.72454 0.27966
vt 0.85391 0.27129
vt 0.72669 0.32708
vt 0.85184 0.31587
vt 0.70990 0.36231
vt 0.82783 0.35468
vt 0.79391 0.40441
vt 0.57630 0.23122
vt 0.72067 0.17385
vt 0.59594 0.16808
vt 0.69686 0.10405
vt 0.61759 0.10077
vt 0.58391 0.28877
vt 0.44602 0.22741
vt 0.58156 0.16808
vt 0.45141 0.16498
vt 0.45826 0.09793
vt 0.58841 0.10077
vt 0.44328 0.29787
vt 0.45826 0.33623
vt 0.56786 0.33205
vt 0.55416 0.36918
vt 0.48566 0.37181
vt 0.51306 0.41213
vt 0.47881 0.04795
vt 0.56786 0.05099
vt 0.52676 0.01065
vt 0.59936 0.33336
vt 0.60211 0.36918
vt 0.63636 0.41213
vt 0.74596 0.43493
vt 0.69527 0.26961
vt 0.69527 0.20005
vt 0.60485 0.23424
vt 0.60485 0.20121
vt 0.69527 0.14741
vt 0.60485 0.14487
vt 0.69527 0.10712
vt 0.60485 0.10347
vt 0.69527 0.07208
vt 0.69595 0.08383
vt 0.67129 0.03084
vt 0.59731 0.08124
vt 0.70828 0.14163
vt 0.56032 0.14486
vt 0.69595 0.19875
vt 0.54799 0.24367
vt 0.44879 0.15533
vt 0.47401 0.07873
vt 0.56032 0.08124
vt 0.44006 0.23596
vt 0.71607 0.26538
vt 0.56723 0.31097
vt 0.44935 0.30770
vt 0.56032 0.37064
vt 0.64663 0.00595
vt 0.53566 0.00595
vt 0.66579 0.32474
vt 0.59317 0.37064
vt 0.47401 0.36985
vt 0.50484 0.41196
vt 0.57449 0.24030
vt 0.57449 0.18820
vt 0.38280 0.23436
vt 0.39730 0.18464
vt 0.56805 0.28409
vt 0.37152 0.27814
vt 0.56564 0.31517
vt 0.38522 0.31280
vt 0.54912 0.34508
vt 0.39770 0.34490
vt 0.57322 0.13197
vt 0.39852 0.12840
vt 0.50446 0.07017
vt 0.40137 0.07611
vt 0.48112 0.04165
vt 0.39736 0.04284
vt 0.44456 0.00599
vt 0.53117 0.36918
vt 0.41563 0.36941
vt 0.50341 0.40315
vt 0.44423 0.40551
vt 0.47237 0.42888
vt 0.56889 0.07017
vt 0.53267 0.02976
vt 0.44423 0.40551
vt 0.50341 0.40315
vt 0.41563 0.36941
vt 0.53117 0.36918
vt 0.39770 0.34490
vt 0.54912 0.34508
vt 0.38522 0.31280
vt 0.56564 0.31517
vt 0.37152 0.27814
vt 0.56805 0.28409
vt 0.38280 0.23436
vt 0.57449 0.24030
vt 0.57449 0.18820
vt 0.39730 0.18464
vt 0.57322 0.13197
vt 0.39852 0.12840
vt 0.50446 0.07017
vt 0.40137 0.07611
vt 0.48112 0.04165
vt 0.39736 0.04284
vt 0.44456 0.00599
vt 0.56889 0.07017
vt 0.53267 0.02976
vt 0.68795 0.23642
vt 0.46629 0.22946
vt 0.67629 0.27912
vt 0.70295 0.18792
vt 0.44962 0.26985
vt 0.67629 0.31292
vt 0.49629 0.18908
vt 0.50746 0.13354
vt 0.67848 0.13121
vt 0.52798 0.09164
vt 0.64897 0.08050
vt 0.55416 0.05089
vt 0.62836 0.04825
vt 0.60211 0.01132
vt 0.46296 0.30917
vt 0.50746 0.23889
vt 0.52798 0.19699
vt 0.49378 0.19815
vt 0.51155 0.18440
vt 0.48694 0.16556
vt 0.69452 0.05430
vt 0.65379 0.05099
vt 0.69263 0.01065
vt 0.67629 0.27912
vt 0.46629 0.22946
vt 0.68795 0.23642
vt 0.70295 0.18792
vt 0.44962 0.26985
vt 0.67629 0.31292
vt 0.46296 0.30917
vt 0.48222 0.34056
vt 0.49629 0.18908
vt 0.50746 0.13354
vt 0.67848 0.13121
vt 0.52798 0.09164
vt 0.64897 0.08050
vt 0.55416 0.05089
vt 0.62836 0.04825
vt 0.60211 0.01132
vt 0.66889 0.34423
vt 0.49717 0.36954
vt 0.64931 0.36595
vt 0.53992 0.40218
vt 0.60830 0.40223
vt 0.58156 0.42706
vt 0.49378 0.19815
vt 0.52798 0.19699
vt 0.50746 0.23889
vt 0.51155 0.18440
vt 0.48694 0.16556
vt 0.63284 0.76697
vt 0.70000 0.44500
vt 0.66108 0.45677
vt 0.74829 0.76799
vt 0.76157 0.90225
vt 0.63545 0.90457
vt 0.62767 0.99985
vt 0.75904 0.99288
vt 0.93094 0.90819
vt 0.77502 0.82340
vt 0.78009 0.93620
vt 0.89233 0.76465
vt 0.77508 0.99304
vt 0.94043 0.98948
vt 0.74330 0.67369
vt 0.88372 0.64182
vt 0.74101 0.63901
vt 0.75055 0.60796
vt 0.87387 0.60201
vt 0.77104 0.57774
vt 0.87702 0.55538
vt 0.81540 0.54868
vt 0.83342 0.53178
vt 0.88165 0.53434
vt 0.84172 0.51357
vt 0.92738 0.84784
vt 0.92062 0.63589
vt 0.83622 0.67008
vt 0.83784 0.61165
vt 0.90141 0.60584
vt 0.90518 0.54440
vt 0.66108 0.45677
vt 0.70000 0.44500
vt 0.63284 0.76697
vt 0.74829 0.76799
vt 0.76157 0.90225
vt 0.63545 0.90457
vt 0.62767 0.99985
vt 0.75904 0.99288
vt 0.78009 0.93620
vt 0.77502 0.82340
vt 0.93094 0.90819
vt 0.89233 0.76465
vt 0.77508 0.99304
vt 0.94043 0.98948
vt 0.74330 0.67369
vt 0.88372 0.64182
vt 0.74101 0.63901
vt 0.75055 0.60796
vt 0.87387 0.60201
vt 0.77104 0.57774
vt 0.87702 0.55538
vt 0.81540 0.54868
vt 0.83342 0.53178
vt 0.88165 0.53434
vt 0.84172 0.51357
vt 0.83622 0.67008
vt 0.92062 0.63589
vt 0.92738 0.84784
vt 0.83784 0.61165
vt 0.90141 0.60584
vt 0.90518 0.54440
vt 0.87131 0.36677
vt 0.80686 0.36737
vt 0.86797 0.29736
vt 0.79998 0.29802
vt 0.74119 0.36481
vt 0.72017 0.29860
vt 0.86810 0.22880
vt 0.79302 0.22905
vt 0.72029 0.22947
vt 0.86766 0.15816
vt 0.78714 0.15835
vt 0.71941 0.15888
vt 0.83902 0.10204
vt 0.74664 0.10240
vt 0.81250 0.06013
vt 0.76657 0.06000
vt 0.79054 0.01631
vt 0.96814 0.40163
vt 0.82685 0.39624
vt 0.96814 0.34218
vt 0.82687 0.34218
vt 0.96733 0.27477
vt 0.82590 0.27539
vt 0.96328 0.19830
vt 0.82567 0.19915
vt 0.94952 0.12581
vt 0.83360 0.12893
vt 0.92929 0.07425
vt 0.85462 0.07432
vt 0.88235 0.01894
vt 0.80732 0.35054
vt 0.71487 0.42565
vt 0.70337 0.35382
vt 0.80345 0.42823
vt 0.70214 0.31598
vt 0.80711 0.27307
vt 0.70100 0.28085
vt 0.70666 0.24844
vt 0.79934 0.19540
vt 0.70178 0.19382
vt 0.71255 0.17691
vt 0.78380 0.11686
vt 0.70776 0.11935
vt 0.71547 0.10079
vt 0.76824 0.06450
vt 0.71816 0.06377
vt 0.74268 0.01806
vt 0.57480 0.16892
vt 0.71278 0.13780
vt 0.71001 0.10079
vt 0.71232 0.21602
vt 0.57638 0.21285
vt 0.71349 0.24844
vt 0.57895 0.28459
vt 0.71261 0.28775
vt 0.71308 0.31517
vt 0.59636 0.34846
vt 0.71360 0.34470
vt 0.61378 0.41233
vt 0.71011 0.41205
vt 0.60131 0.13070
vt 0.61572 0.10991
vt 0.70813 0.07311
vt 0.63990 0.08386
vt 0.70779 0.01626
vt 0.66726 0.33678
vt 0.77285 0.40601
vt 0.77742 0.33630
vt 0.67186 0.40443
vt 0.66265 0.26238
vt 0.78131 0.26117
vt 0.66383 0.18950
vt 0.78202 0.18782
vt 0.66646 0.11933
vt 0.77995 0.11827
vt 0.67954 0.06339
vt 0.76696 0.06303
vt 0.71642 0.01750
vt 0.60399 0.37604
vt 0.58296 0.42119
vt 0.57929 0.37856
vt 0.60630 0.07425
vt 0.65324 0.01894
vt 0.68097 0.07432
vt 0.70200 0.12893
vt 0.58607 0.12581
vt 0.70993 0.19915
vt 0.57231 0.19830
vt 0.70969 0.27539
vt 0.56827 0.27477
vt 0.70872 0.34218
vt 0.56746 0.34218
vt 0.70874 0.39624
vt 0.56746 0.40163
vt 0.82025 0.01806
vt 0.84476 0.06377
vt 0.79469 0.06450
vt 0.84746 0.10079
vt 0.77912 0.11686
vt 0.85517 0.11935
vt 0.85038 0.17691
vt 0.76359 0.19540
vt 0.86115 0.19382
vt 0.85627 0.24844
vt 0.75582 0.27307
vt 0.86193 0.28085
vt 0.86079 0.31598
vt 0.75561 0.35054
vt 0.85956 0.35382
vt 0.84806 0.42565
vt 0.75948 0.42823
vt 0.85015 0.13780
vt 0.98813 0.16892
vt 0.85292 0.10079
vt 0.85061 0.21602
vt 0.98655 0.21285
vt 0.84944 0.24844
vt 0.98398 0.28459
vt 0.85032 0.28775
vt 0.84984 0.31517
vt 0.96656 0.34846
vt 0.84933 0.34470
vt 0.94915 0.41233
vt 0.85282 0.41205
vt 0.96162 0.13070
vt 0.94720 0.10991
vt 0.85480 0.07311
vt 0.92302 0.08386
vt 0.85514 0.01626
vt 0.72309 0.06013
vt 0.74505 0.01631
vt 0.76902 0.06000
vt 0.78895 0.10240
vt 0.69658 0.10204
vt 0.74845 0.15835
vt 0.66793 0.15816
vt 0.81618 0.15888
vt 0.81530 0.22947
vt 0.74257 0.22905
vt 0.81542 0.29860
vt 0.66749 0.22880
vt 0.73561 0.29802
vt 0.66763 0.29736
vt 0.72873 0.36737
vt 0.66428 0.36677
vt 0.79440 0.36481
vt 0.79597 0.06303
vt 0.78298 0.11827
vt 0.88338 0.06339
vt 0.84651 0.01750
vt 0.89646 0.11933
vt 0.78090 0.18782
vt 0.89910 0.18950
vt 0.78162 0.26117
vt 0.90028 0.26238
vt 0.78551 0.33630
vt 0.89567 0.33678
vt 0.79007 0.40601
vt 0.89107 0.40443
vt 0.99364 0.37856
vt 0.98997 0.42119
vt 0.96894 0.37604
vt 0.73369 0.18988
vt 0.55640 0.18798
vt 0.75717 0.22103
vt 0.72575 0.16070
vt 0.50788 0.24354
vt 0.78170 0.28300
vt 0.51153 0.28677
vt 0.53394 0.32519
vt 0.64292 0.14180
vt 0.72997 0.11696
vt 0.75254 0.32302
vt 0.59178 0.36480
vt 0.71910 0.35802
vt 0.61962 0.40112
vt 0.67555 0.39979
vt 0.66289 0.42643
vt 0.61527 0.08136
vt 0.69061 0.03541
vt 0.69747 0.08811
vt 0.58786 0.13841
vt 0.71117 0.13458
vt 0.71792 0.19323
vt 0.59091 0.22632
vt 0.71471 0.24276
vt 0.60095 0.28506
vt 0.47881 0.22086
vt 0.46895 0.14906
vt 0.58088 0.13841
vt 0.48923 0.07973
vt 0.56020 0.08136
vt 0.49936 0.28340
vt 0.71323 0.30521
vt 0.53634 0.33918
vt 0.53992 0.01097
vt 0.62266 0.33753
vt 0.71171 0.33855
vt 0.68431 0.39651
vt 0.60896 0.39779
vt 0.61581 0.43362
vt 0.65636 0.01097
vt 0.35113 0.18478
vt 0.29896 0.18849
vt 0.35139 0.24576
vt 0.24074 0.22097
vt 0.24135 0.25927
vt 0.28901 0.28579
vt 0.35162 0.29278
vt 0.35076 0.09062
vt 0.21240 0.11481
vt 0.12958 0.19975
vt 0.13878 0.27273
vt 0.23433 0.33637
vt 0.35041 0.01834
vt 0.14504 0.06034
vt 0.01742 0.16090
vt 0.01522 0.28957
vt 0.14681 0.39078
vt 0.35197 0.43166
vt 0.35178 0.34412
vt 0.21240 0.11481
vt 0.29896 0.18849
vt 0.24074 0.22097
vt 0.24135 0.25927
vt 0.28901 0.28579
vt 0.12958 0.19975
vt 0.13878 0.27273
vt 0.23433 0.33637
vt 0.01742 0.16090
vt 0.14504 0.06034
vt 0.01522 0.28957
vt 0.14681 0.39078
vt 0.21240 0.11481
vt 0.35076 0.09062
vt 0.21240 0.11481
vt 0.29896 0.18849
vt 0.35113 0.18478
vt 0.35139 0.24576
vt 0.24074 0.22097
vt 0.24135 0.25927
vt 0.28901 0.28579
vt 0.35162 0.29278
vt 0.12958 0.19975
vt 0.13878 0.27273
vt 0.23433 0.33637
vt 0.35178 0.34412
vt 0.29896 0.18849
vt 0.24074 0.22097
vt 0.12958 0.19975
vt 0.24135 0.25927
vt 0.28901 0.28579
vt 0.13878 0.27273
vt 0.23433 0.33637
vt 0.03985 0.58384
vt 0.00243 0.54546
vt 0.00270 0.59728
vt 0.05551 0.54656
vt 0.04006 0.50874
vt 0.00215 0.49202
vt 0.00300 0.65338
vt 0.08023 0.61887
vt 0.10879 0.54222
vt 0.07545 0.46885
vt 0.00189 0.44063
vt 0.03985 0.58384
vt 0.05551 0.54656
vt 0.04006 0.50874
vt 0.08023 0.61887
vt 0.10879 0.54222
vt 0.07545 0.46885
vt 0.03985 0.58384
vt 0.00270 0.59728
vt 0.00243 0.54546
vt 0.05551 0.54656
vt 0.04006 0.50874
vt 0.00215 0.49202
vt 0.03985 0.58384
vt 0.05551 0.54656
vt 0.04006 0.50874
vt 0.00270 0.59728
vt 0.00243 0.54546
vt 0.03985 0.58384
vt 0.05551 0.54656
vt 0.04006 0.50874
vt 0.00215 0.49202
vt 0.00300 0.65338
vt 0.08023 0.61887
vt 0.10879 0.54222
vt 0.07545 0.46885
vt 0.00189 0.44063
vt 0.03985 0.58384
vt 0.05551 0.54656
vt 0.04006 0.50874
vt 0.08023 0.61887
vt 0.10879 0.54222
vt 0.07545 0.46885
vt 0.03985 0.58384
vt 0.00270 0.59728
vt 0.00243 0.54546
vt 0.05551 0.54656
vt 0.04006 0.50874
vt 0.00215 0.49202
vt 0.03985 0.58384
vt 0.05551 0.54656
vt 0.04006 0.50874
vt 0.58321 0.94158
vt 0.48647 0.85182
vt 0.39985 0.94158
vt 0.39808 0.77883
vt 0.58272 0.77271
vt 0.39808 0.77883
vt 0.56469 0.77414
vt 0.47205 0.74938
vt 0.38820 0.77414
vt 0.59064 0.94128
vt 0.35186 0.94128
vt 0.38820 0.77414
vt 0.47205 0.74938
vt 0.35186 0.94128
vt 0.56419 0.76848
vt 0.50926 0.74283
vt 0.45771 0.76848
vt 0.43490 0.94158
vt 0.59082 0.94158
vt 0.39985 0.94158
vt 0.48647 0.85182
vt 0.58321 0.94158
vt 0.39808 0.77883
vt 0.58272 0.77271
vt 0.39808 0.77883
vt 0.45771 0.76848
vt 0.50926 0.74283
vt 0.56419 0.76848
vt 0.43490 0.94158
vt 0.59082 0.94158
vt 0.46500 0.56210
vt 0.45313 0.52957
vt 0.38993 0.55528
vt 0.38144 0.60609
vt 0.49206 0.61210
vt 0.40038 0.52214
vt 0.44455 0.50733
vt 0.41631 0.50192
vt 0.44576 0.47642
vt 0.56436 0.55775
vt 0.51114 0.52373
vt 0.58751 0.60906
vt 0.59300 0.66975
vt 0.49592 0.67093
vt 0.48140 0.50567
vt 0.38723 0.68092
vt 0.37745 0.95486
vt 0.57047 0.70693
vt 0.56906 0.95625
vt 0.37454 0.99480
vt 0.57328 0.99493
vt 0.38993 0.55528
vt 0.45313 0.52957
vt 0.46500 0.56210
vt 0.38144 0.60609
vt 0.49206 0.61210
vt 0.40038 0.52214
vt 0.44455 0.50733
vt 0.41631 0.50192
vt 0.44576 0.47642
vt 0.56436 0.55775
vt 0.51114 0.52373
vt 0.58751 0.60906
vt 0.59300 0.66975
vt 0.49592 0.67093
vt 0.48140 0.50567
vt 0.38723 0.68092
vt 0.37745 0.95486
vt 0.57047 0.70693
vt 0.56906 0.95625
vt 0.37454 0.99480
vt 0.57328 0.99493
vt 0.60826 0.18046
vt 0.79191 0.28164
vt 0.81210 0.17113
vt 0.63551 0.10637
vt 0.60392 0.27347
vt 0.60306 0.33569
vt 0.77411 0.33826
vt 0.61611 0.37433
vt 0.64102 0.42677
vt 0.73667 0.08454
vt 0.65046 0.06167
vt 0.67878 0.02807
vt 0.77798 0.00252
vt 0.70457 0.02511
vt 0.77703 0.04206
vt 0.67698 0.10499
vt 0.86342 0.03577
vt 0.78390 0.10502
vt 0.77395 0.22061
vt 0.59843 0.22239
vt 0.88990 0.09693
vt 0.93992 0.22525
vt 0.79323 0.29821
vt 0.62581 0.16395
vt 0.48576 0.27727
vt 0.62581 0.25666
vt 0.48576 0.20221
vt 0.48576 0.10215
vt 0.62581 0.01973
vt 0.62581 0.16395
vt 0.62581 0.25666
vt 0.62581 0.01973
vt 0.61120 0.33102
vt 0.48562 0.34157
vt 0.52839 0.36998
vt 0.61120 0.33102
vt 0.38467 0.27843
vt 0.56942 0.27347
vt 0.57377 0.18046
vt 0.37358 0.17919
vt 0.55132 0.33569
vt 0.40236 0.35974
vt 0.53417 0.09794
vt 0.52988 0.37111
vt 0.46281 0.41711
vt 0.42313 0.09274
vt 0.49360 0.05686
vt 0.44102 0.02035
vt 0.94308 0.32972
vt 0.96345 0.25630
vt 0.76989 0.22552
vt 0.76675 0.18426
vt 0.77147 0.29414
vt 0.89616 0.19033
vt 0.76830 0.10280
vt 0.76675 0.26726
vt 0.57197 0.33373
vt 0.76989 0.30852
vt 0.58930 0.40883
vt 0.77147 0.37715
vt 0.63733 0.27177
vt 0.76830 0.18580
vt 0.93678 0.11007
vt 0.91542 0.12330
vt 0.92943 0.15469
vt 0.88261 0.04975
vt 0.94689 0.04863
vt 0.92198 0.04620
vt 0.91281 0.08466
vt 0.94385 0.09306
vt 0.90190 0.13046
vt 0.96121 0.13027
usemtl m0
f 1/1 2/2 3/3
f 1/1 4/4 2/2
f 4/4 5/5 2/2
f 4/4 6/6 5/5
f 6/6 7/7 5/5
f 5/5 7/7 8/8
f 7/7 9/9 8/8
f 2/2 5/5 10/10
f 2/2 10/10 11/11
f 3/3 2/2 11/11
f 12/12 13/13 14/14
f 13/13 15/15 14/14
f 13/13 16/16 15/15
f 16/16 17/17 15/15
f 16/16 18/18 17/17
f 19/19 18/18 16/16
f 19/19 20/20 18/18
f 21/21 16/16 13/13
f 22/22 13/13 12/12
f 22/22 21/21 13/13
f 23/23 24/24 25/25
f 23/23 25/25 26/26
f 26/26 25/25 27/27
f 27/27 25/25 28/28
f 29/29 27/27 28/28
f 29/29 26/26 27/27
f 30/30 31/31 32/32
f 30/30 33/33 31/31
f 33/33 34/34 31/31
f 35/35 36/36 37/37
f 38/38 35/35 37/37
f 39/39 35/35 38/38
f 40/40 35/35 39/39
f 40/40 39/39 41/41
f 39/39 38/38 41/41
f 40/40 42/42 39/39
f 42/42 43/43 39/39
f 42/42 44/44 43/43
f 45/45 46/46 47/47
f 46/46 48/48 47/47
f 46/46 49/49 48/48
f 49/49 50/50 48/48
f 49/49 51/51 50/50
f 51/51 52/52 50/50
f 50/50 52/52 53/53
f 52/52 54/54 53/53
f 53/53 54/54 55/55
f 54/54 56/56 55/55
f 57/57 46/46 45/45
f 58/58 51/51 49/49
f 58/58 52/52 51/51
f 59/59 52/52 58/58
f 59/59 60/60 52/52
f 61/61 60/60 59/59
f 61/61 62/62 60/60
f 63/63 58/58 49/49
f 63/63 49/49 46/46
f 57/57 63/63 46/46
f 64/64 65/65 66/66
f 64/64 67/67 66/66
f 67/67 68/68 66/66
f 67/67 69/69 68/68
f 69/69 70/70 68/68
f 71/71 70/70 69/69
f 71/71 72/72 70/70
f 72/72 73/73 70/70
f 70/70 73/73 74/74
f 70/70 74/74 68/68
f 73/73 75/75 74/74
f 73/73 76/76 75/75
f 72/72 76/76 73/73
f 75/75 76/76 77/77
f 76/76 78/78 77/77
f 78/78 79/79 77/77
f 78/78 80/80 79/79
f 81/81 76/76 72/72
f 66/66 68/68 82/82
f 68/68 74/74 82/82
f 81/81 83/83 76/76
f 83/83 78/78 76/76
f 84/84 80/80 78/78
f 83/83 84/84 78/78
f 82/82 85/85 66/66
f 66/66 85/85 86/86
f 66/66 86/86 87/87
f 85/85 88/88 86/86
f 85/85 89/89 88/88
f 88/88 89/89 90/90
f 89/89 91/91 90/90
f 89/89 92/92 91/91
f 93/93 92/92 89/89
f 82/82 93/93 85/85
f 85/85 93/93 89/89
f 93/93 94/94 92/92
f 94/94 95/95 92/92
f 92/92 95/95 91/91
f 96/96 95/95 94/94
f 96/96 97/97 95/95
f 96/96 98/98 97/97
f 98/98 99/99 97/97
f 91/91 95/95 100/100
f 95/95 101/101 100/100
f 95/95 97/97 101/101
f 97/97 99/99 102/102
f 97/97 102/102 101/101
f 103/103 104/104 105/105
f 104/104 106/106 105/105
f 103/103 105/105 107/107
f 103/103 107/107 108/108
f 109/109 103/103 108/108
f 109/109 108/108 110/110
f 111/111 109/109 110/110
f 111/111 110/110 112/112
f 112/112 110/110 113/113
f 112/112 113/113 114/114
f 115/115 116/116 114/114
f 115/115 117/117 116/116
f 117/117 118/118 116/116
f 116/116 118/118 119/119
f 118/118 120/120 119/119
f 118/118 121/121 120/120
f 121/121 122/122 120/120
f 123/123 115/115 114/114
f 124/124 115/115 123/123
f 124/124 123/123 125/125
f 126/126 124/124 125/125
f 121/121 127/127 122/122
f 128/128 127/127 121/121
f 128/128 129/129 127/127
f 129/129 130/130 127/127
f 129/129 131/131 130/130
f 132/132 131/131 129/129
f 132/132 133/133 131/131
f 126/126 125/125 134/134
f 135/135 136/136 137/137
f 138/138 135/135 137/137
f 139/139 135/135 138/138
f 139/139 138/138 140/140
f 141/141 139/139 140/140
f 140/140 138/138 142/142
f 143/143 144/144 145/145
f 145/145 144/144 146/146
f 143/143 147/147 144/144
f 145/145 146/146 148/148
f 148/148 146/146 149/149
f 148/148 149/149 150/150
f 151/151 148/148 150/150
f 151/151 150/150 152/152
f 152/152 150/150 153/153
f 152/152 153/153 154/154
f 152/152 154/154 155/155
f 156/156 152/152 155/155
f 157/157 158/158 159/159
f 157/157 160/160 158/158
f 159/159 158/158 161/161
f 162/162 159/159 161/161
f 162/162 161/161 163/163
f 163/163 161/161 164/164
f 165/165 163/163 164/164
f 166/166 163/163 165/165
f 166/166 165/165 167/167
f 168/168 166/166 167/167
f 157/157 169/169 160/160
f 169/169 170/170 160/160
f 169/169 171/171 170/170
f 172/172 171/171 169/169
f 172/172 173/173 171/171
f 173/173 174/174 171/171
f 173/173 175/175 174/174
f 176/176 177/177 178/178
f 176/176 178/178 179/179
f 179/179 178/178 180/180
f 179/179 180/180 181/181
f 182/182 183/183 184/184
f 182/182 185/185 183/183
f 186/186 182/182 184/184
f 187/187 186/186 184/184
f 187/187 184/184 188/188
f 189/189 187/187 188/188
f 189/189 188/188 190/190
f 191/191 189/189 190/190
f 192/192 189/189 191/191
f 193/193 192/192 191/191
f 193/193 194/194 195/195
f 194/194 196/196 195/195
f 194/194 197/197 196/196
f 198/198 197/197 194/194
f 198/198 199/199 197/197
f 199/199 200/200 197/197
f 199/199 201/201 200/200
f 193/193 195/195 202/202
f 202/202 195/195 203/203
f 204/204 202/202 203/203
f 204/204 203/203 205/205
f 201/201 206/206 200/200
f 200/200 206/206 207/207
f 206/206 208/208 207/207
f 206/206 209/209 208/208
f 209/209 210/210 208/208
f 208/208 210/210 211/211
f 210/210 212/212 211/211
f 213/213 204/204 205/205
f 214/214 215/215 216/216
f 214/214 216/216 217/217
f 217/217 216/216 218/218
f 219/219 217/217 218/218
f 219/219 218/218 220/220
f 221/221 217/217 219/219
f 222/222 223/223 216/216
f 222/222 224/224 223/223
f 224/224 225/225 223/223
f 225/225 226/226 223/223
f 223/223 226/226 227/227
f 226/226 228/228 227/227
f 226/226 229/229 228/228
f 229/229 230/230 228/228
f 228/228 230/230 231/231
f 230/230 232/232 231/231
f 231/231 232/232 233/233
f 232/232 234/234 233/233
f 235/235 236/236 237/237
f 236/236 238/238 237/237
f 239/239 236/236 235/235
f 239/239 235/235 240/240
f 241/241 239/239 240/240
f 242/242 239/239 241/241
f 242/242 241/241 243/243
f 243/243 241/241 244/244
f 245/245 243/243 244/244
f 245/245 244/244 246/246
f 238/238 247/247 237/237
f 238/238 248/248 247/247
f 248/248 249/249 247/247
f 247/247 249/249 250/250
f 249/249 251/251 250/250
f 249/249 252/252 251/251
f 252/252 253/253 251/251
f 254/254 255/255 256/256
f 257/257 254/254 256/256
f 258/258 254/254 257/257
f 259/259 258/258 257/257
f 260/260 261/261 262/262
f 263/263 261/261 260/260
f 263/263 260/260 264/264
f 264/264 260/260 265/265
f 264/264 265/265 266/266
f 266/266 265/265 267/267
f 266/266 267/267 268/268
f 268/268 267/267 269/269
f 268/268 269/269 270/270
f 270/270 269/269 271/271
f 269/269 272/272 271/271
f 272/272 273/273 271/271
f 271/271 273/273 274/274
f 274/274 273/273 275/275
f 273/273 276/276 275/275
f 275/275 276/276 277/277
f 276/276 278/278 277/277
f 278/278 279/279 277/277
f 278/278 280/280 279/279
f 279/279 280/280 281/281
f 281/281 280/280 261/261
f 261/261 280/280 262/262
f 282/282 283/283 284/284
f 285/285 283/283 282/282
f 282/282 284/284 286/286
f 286/286 284/284 287/287
f 286/286 287/287 288/288
f 288/288 287/287 289/289
f 288/288 289/289 290/290
f 288/288 290/290 291/291
f 290/290 292/292 291/291
f 291/291 292/292 293/293
f 294/294 283/283 285/285
f 294/294 295/295 283/283
f 296/296 295/295 294/294
f 297/297 295/295 296/296
f 298/298 297/297 296/296
f 299/299 297/297 298/298
f 300/300 299/299 298/298
f 300/300 298/298 301/301
f 293/293 292/292 301/301
f 292/292 300/300 301/301
f 302/302 303/303 304/304
f 305/305 303/303 302/302
f 305/305 306/306 303/303
f 307/307 306/306 305/305
f 308/308 307/307 305/305
f 309/309 307/307 308/308
f 309/309 308/308 310/310
f 311/311 309/309 310/310
f 311/311 310/310 312/312
f 313/313 311/311 312/312
f 314/314 313/313 312/312
f 314/314 312/312 315/315
f 315/315 316/316 314/314
f 314/314 316/316 317/317
f 317/317 316/316 318/318
f 316/316 319/319 318/318
f 319/319 320/320 318/318
f 319/319 321/321 320/320
f 321/321 322/322 320/320
f 321/321 304/304 322/322
f 304/304 323/323 322/322
f 324/324 303/303 323/323
f 325/325 326/326 327/327
f 325/325 327/327 328/328
f 328/328 327/327 329/329
f 328/328 329/329 330/330
f 331/331 328/328 330/330
f 331/331 330/330 332/332
f 333/333 331/331 332/332
f 334/334 333/333 332/332
f 335/335 333/333 334/334
f 336/336 335/335 334/334
f 329/329 337/337 330/330
f 329/329 338/338 337/337
f 338/338 339/339 337/337
f 338/338 340/340 339/339
f 340/340 341/341 339/339
f 330/330 337/337 342/342
f 330/330 342/342 332/332
f 337/337 343/343 342/342
f 337/337 344/344 343/343
f 344/344 345/345 343/343
f 344/344 346/346 345/345
f 347/347 346/346 344/344
f 342/342 343/343 348/348
f 342/342 348/348 349/349
f 350/350 342/342 349/349
f 350/350 349/349 351/351
f 351/351 349/349 352/352
f 351/351 352/352 353/353
f 347/347 354/354 346/346
f 355/355 354/354 347/347
f 355/355 356/356 354/354
f 332/332 342/342 357/357
f 332/332 357/357 334/334
f 334/334 357/357 358/358
f 334/334 358/358 359/359
f 336/336 334/334 359/359
f 360/360 336/336 359/359
f 361/361 362/362 363/363
f 362/362 364/364 363/363
f 362/362 365/365 364/364
f 365/365 366/366 364/364
f 365/365 367/367 366/366
f 367/367 368/368 366/366
f 367/367 369/369 368/368
f 370/370 371/371 372/372
f 373/373 370/370 372/372
f 373/373 372/372 374/374
f 375/375 373/373 374/374
f 375/375 374/374 376/376
f 376/376 374/374 377/377
f 374/374 378/378 377/377
f 374/374 379/379 378/378
f 376/376 377/377 380/380
f 381/381 375/375 376/376
f 382/382 376/376 380/380
f 381/381 376/376 382/382
f 382/382 380/380 383/383
f 384/384 382/382 383/383
f 371/371 385/385 372/372
f 379/379 386/386 378/378
f 387/387 381/381 382/382
f 387/387 382/382 388/388
f 384/384 383/383 389/389
f 390/390 384/384 389/389
f 391/391 392/392 393/393
f 392/392 394/394 393/393
f 395/395 391/391 393/393
f 395/395 393/393 396/396
f 395/395 396/396 397/397
f 397/397 396/396 398/398
f 397/397 398/398 399/399
f 399/399 398/398 400/400
f 392/392 401/401 394/394
f 401/401 402/402 394/394
f 401/401 403/403 402/402
f 402/402 403/403 404/404
f 403/403 405/405 404/404
f 404/404 405/405 406/406
f 405/405 407/407 406/406
f 399/399 400/400 408/408
f 408/408 400/400 409/409
f 410/410 408/408 409/409
f 410/410 409/409 411/411
f 412/412 410/410 411/411
f 413/413 403/403 401/401
f 413/413 414/414 403/403
f 415/415 416/416 412/412
f 415/415 417/417 416/416
f 417/417 418/418 416/416
f 417/417 419/419 418/418
f 418/418 419/419 420/420
f 419/419 421/421 420/420
f 420/420 421/421 422/422
f 421/421 423/423 422/422
f 422/422 423/423 424/424
f 423/423 425/425 424/424
f 425/425 426/426 424/424
f 425/425 427/427 426/426
f 425/425 428/428 427/427
f 428/428 429/429 427/427
f 428/428 430/430 429/429
f 430/430 431/431 429/429
f 432/432 431/431 430/430
f 432/432 433/433 431/431
f 434/434 433/433 432/432
f 434/434 435/435 433/433
f 429/429 431/431 436/436
f 431/431 437/437 436/436
f 438/438 439/439 440/440
f 438/438 441/441 439/439
f 440/440 439/439 442/442
f 440/440 442/442 443/443
f 441/441 444/444 439/439
f 441/441 445/445 444/444
f 441/441 446/446 445/445
f 446/446 447/447 445/445
f 446/446 448/448 447/447
f 448/448 449/449 447/447
f 448/448 450/450 449/449
f 450/450 451/451 449/449
f 443/443 442/442 452/452
f 453/453 454/454 455/455
f 454/454 456/456 455/455
f 456/456 457/457 455/455
f 458/458 459/459 341/341
f 340/340 458/458 341/341
f 458/458 460/460 459/459
f 461/461 462/462 463/463
f 462/462 464/464 463/463
f 465/465 462/462 461/461
f 466/466 465/465 461/461
f 467/467 465/465 466/466
f 468/468 467/467 466/466
f 462/462 469/469 464/464
f 469/469 470/470 464/464
f 470/470 471/471 464/464
f 470/470 472/472 471/471
f 472/472 473/473 471/471
f 472/472 474/474 473/473
f 474/474 475/475 473/473
f 474/474 476/476 475/475
f 468/468 466/466 477/477
f 478/478 468/468 477/477
f 478/478 477/477 479/479
f 480/480 478/478 479/479
f 480/480 479/479 481/481
f 480/480 481/481 482/482
f 483/483 484/484 485/485
f 483/483 486/486 484/484
f 483/483 487/487 486/486
f 488/488 489/489 490/490
f 491/491 489/489 488/488
f 492/492 491/491 488/488
f 492/492 488/488 493/493
f 492/492 493/493 494/494
f 495/495 492/492 494/494
f 496/496 497/497 498/498
f 496/496 499/499 497/497
f 496/496 498/498 500/500
f 501/501 496/496 500/500
f 499/499 502/502 497/497
f 499/499 503/503 502/502
f 503/503 504/504 502/502
f 503/503 505/505 504/504
f 506/506 505/505 503/503
f 506/506 507/507 505/505
f 506/506 508/508 507/507
f 508/508 509/509 507/507
f 508/508 510/510 509/509
f 511/511 510/510 508/508
f 511/511 512/512 510/510
f 513/513 514/514 515/515
f 514/514 516/516 515/515
f 514/514 517/517 516/516
f 517/517 518/518 516/516
f 519/519 520/520 521/521
f 521/521 520/520 522/522
f 521/521 522/522 523/523
f 524/524 521/521 523/523
f 525/525 524/524 523/523
f 525/525 523/523 526/526
f 527/527 528/528 529/529
f 528/528 530/530 529/529
f 531/531 527/527 529/529
f 531/531 529/529 532/532
f 528/528 533/533 530/530
f 533/533 534/534 530/530
f 533/533 535/535 534/534
f 535/535 536/536 534/534
f 534/534 536/536 537/537
f 536/536 538/538 537/537
f 538/538 539/539 537/537
f 538/538 540/540 539/539
f 540/540 541/541 539/539
f 539/539 541/541 542/542
f 541/541 543/543 542/542
f 544/544 545/545 546/546
f 544/544 547/547 545/545
f 547/547 548/548 545/545
f 547/547 549/549 548/548
f 550/550 551/551 552/552
f 552/552 551/551 553/553
f 551/551 554/554 553/553
f 553/553 554/554 555/555
f 552/552 553/553 556/556
f 553/553 557/557 556/556
f 553/553 555/555 557/557
f 557/557 555/555 558/558
f 556/556 557/557 559/559
f 557/557 560/560 559/559
f 557/557 558/558 560/560
f 560/560 558/558 561/561
f 560/560 562/562 559/559
f 560/560 563/563 562/562
f 561/561 563/563 560/560
f 562/562 563/563 564/564
f 563/563 565/565 564/564
f 565/565 566/566 564/564
f 567/567 568/568 569/569
f 569/569 568/568 570/570
f 569/569 570/570 571/571
f 570/570 572/572 571/571
f 572/572 573/573 571/571
f 572/572 574/574 573/573
f 574/574 575/575 573/573
f 574/574 576/576 575/575
f 576/576 577/577 575/575
f 576/576 578/578 577/577
f 578/578 579/579 577/577
f 580/580 581/581 582/582
f 583/583 581/581 580/580
f 580/580 582/582 584/584
f 580/580 584/584 585/585
f 585/585 584/584 586/586
f 585/585 586/586 587/587
f 585/585 587/587 588/588
f 588/588 587/587 589/589
f 588/588 589/589 590/590
f 588/588 590/590 591/591
f 591/591 590/590 592/592
f 591/591 592/592 593/593
f 591/591 593/593 594/594
f 594/594 593/593 595/595
f 594/594 595/595 596/596
f 590/590 597/597 598/598
f 598/598 597/597 599/599
f 600/600 597/597 590/590
f 600/600 601/601 597/597
f 602/602 601/601 600/600
f 602/602 603/603 601/601
f 604/604 603/603 602/602
f 605/605 603/603 604/604
f 605/605 606/606 603/603
f 607/607 606/606 605/605
f 607/607 608/608 606/606
f 609/609 608/608 607/607
f 599/599 597/597 610/610
f 599/599 610/610 611/611
f 612/612 599/599 611/611
f 612/612 611/611 613/613
f 614/614 612/612 613/613
f 615/615 616/616 617/617
f 618/618 616/616 615/615
f 615/615 617/617 619/619
f 619/619 617/617 620/620
f 619/619 620/620 621/621
f 621/621 620/620 622/622
f 621/621 622/622 623/623
f 623/623 622/622 624/624
f 623/623 624/624 625/625
f 625/625 624/624 626/626
f 625/625 626/626 627/627
f 628/628 629/629 630/630
f 631/631 632/632 633/633
f 631/631 633/633 634/634
f 635/635 631/631 634/634
f 635/635 634/634 636/636
f 637/637 635/635 636/636
f 637/637 636/636 638/638
f 639/639 637/637 638/638
f 639/639 638/638 640/640
f 639/639 640/640 641/641
f 640/640 642/642 641/641
f 641/641 642/642 643/643
f 644/644 645/645 646/646
f 645/645 647/647 646/646
f 646/646 647/647 648/648
f 647/647 649/649 648/648
f 649/649 650/650 648/648
f 648/648 650/650 651/651
f 650/650 652/652 651/651
f 652/652 653/653 651/651
f 651/651 653/653 654/654
f 653/653 655/655 654/654
f 655/655 656/656 654/654
f 654/654 656/656 657/657
f 656/656 658/658 657/657
f 658/658 659/659 657/657
f 657/657 659/659 660/660
f 661/661 662/662 650/650
f 663/663 662/662 661/661
f 650/650 662/662 664/664
f 662/662 665/665 664/664
f 664/664 665/665 666/666
f 665/665 667/667 666/666
f 666/666 667/667 668/668
f 668/668 667/667 669/669
f 667/667 670/670 669/669
f 669/669 670/670 671/671
f 670/670 672/672 671/671
f 671/671 672/672 673/673
f 674/674 662/662 663/663
f 675/675 674/674 663/663
f 675/675 663/663 676/676
f 677/677 675/675 676/676
f 677/677 676/676 678/678
f 679/679 680/680 681/681
f 679/679 681/681 682/682
f 679/679 682/682 683/683
f 683/683 682/682 684/684
f 685/685 683/683 684/684
f 684/684 682/682 686/686
f 686/686 687/687 684/684
f 685/685 684/684 688/688
f 684/684 687/687 688/688
f 687/687 689/689 688/688
f 685/685 688/688 690/690
f 690/690 688/688 691/691
f 688/688 689/689 691/691
f 690/690 691/691 692/692
f 691/691 693/693 692/692
f 692/692 693/693 694/694
f 691/691 695/695 693/693
f 689/689 695/695 691/691
f 696/696 697/697 698/698
f 699/699 696/696 698/698
f 698/698 697/697 700/700
f 697/697 701/701 700/700
f 700/700 701/701 702/702
f 701/701 703/703 702/702
f 702/702 703/703 704/704
f 703/703 705/705 704/704
f 704/704 705/705 706/706
f 705/705 707/707 706/706
f 706/706 707/707 708/708
f 709/709 710/710 711/711
f 712/712 713/713 714/714
f 712/712 715/715 713/713
f 714/714 713/713 716/716
f 717/717 714/714 716/716
f 717/717 716/716 718/718
f 717/717 718/718 719/719
f 715/715 720/720 713/713
f 715/715 721/721 720/720
f 722/722 717/717 719/719
f 722/722 719/719 723/723
f 724/724 722/722 723/723
f 724/724 723/723 725/725
f 726/726 724/724 725/725
f 727/727 726/726 725/725
f 728/728 729/729 730/730
f 728/728 730/730 731/731
f 731/731 730/730 732/732
f 731/731 732/732 733/733
f 734/734 731/731 733/733
f 734/734 733/733 735/735
f 736/736 734/734 735/735
f 737/737 734/734 736/736
f 737/737 738/738 734/734
f 738/738 739/739 734/734
f 738/738 740/740 739/739
f 740/740 741/741 739/739
f 742/742 737/737 736/736
f 736/736 735/735 743/743
f 742/742 736/736 744/744
f 740/740 745/745 741/741
f 744/744 736/736 746/746
f 746/746 736/736 743/743
f 746/746 743/743 747/747
f 746/746 747/747 748/748
f 748/748 744/744 746/746
f 749/749 744/744 748/748
f 749/749 748/748 750/750
f 728/728 751/751 729/729
f 752/752 753/753 754/754
f 754/754 753/753 755/755
f 754/754 755/755 756/756
f 754/754 756/756 757/757
f 758/758 754/754 757/757
f 752/752 759/759 753/753
f 759/759 760/760 753/753
f 753/753 760/760 755/755
f 755/755 760/760 761/761
f 755/755 761/761 756/756
f 756/756 761/761 762/762
f 756/756 762/762 757/757
f 757/757 762/762 763/763
f 758/758 757/757 763/763
f 759/759 764/764 760/760
f 764/764 765/765 760/760
f 760/760 765/765 766/766
f 760/760 766/766 761/761
f 761/761 766/766 767/767
f 762/762 761/761 767/767
f 762/762 767/767 763/763
f 763/763 767/767 768/768
f 763/763 768/768 769/769
f 770/770 763/763 769/769
f 758/758 763/763 770/770
f 771/771 764/764 759/759
f 771/771 759/759 772/772
f 772/772 759/759 752/752
f 772/772 752/752 754/754
f 773/773 772/772 754/754
f 773/773 771/771 772/772
f 774/774 773/773 754/754
f 774/774 754/754 775/775
f 775/775 754/754 758/758
f 776/776 771/771 773/773
f 774/774 776/776 773/773
f 777/777 776/776 774/774
f 777/777 774/774 775/775
f 778/778 777/777 775/775
f 770/770 769/769 778/778
f 778/778 758/758 770/770
f 775/775 758/758 778/778
f 779/779 771/771 776/776
f 779/779 780/780 771/771
f 780/780 764/764 771/771
f 781/781 779/779 776/776
f 781/781 776/776 777/777
f 778/778 781/781 777/777
f 782/782 781/781 778/778
f 778/778 769/769 782/782
f 783/783 764/764 780/780
f 779/779 783/783 780/780
f 783/783 784/784 764/764
f 784/784 785/785 764/764
f 786/786 785/785 784/784
f 786/786 784/784 787/787
f 788/788 786/786 787/787
f 789/789 786/786 788/788
f 789/789 785/785 786/786
f 790/790 789/789 788/788
f 790/790 788/788 791/791
f 791/791 788/788 792/792
f 793/793 785/785 789/789
f 790/790 793/793 789/789
f 794/794 793/793 790/790
f 794/794 790/790 791/791
f 795/795 794/794 791/791
f 795/795 791/791 792/792
f 766/766 785/785 793/793
f 765/765 785/785 766/766
f 764/764 785/785 765/765
f 766/766 793/793 767/767
f 767/767 793/793 794/794
f 767/767 794/794 795/795
f 768/768 767/767 795/795
f 768/768 795/795 769/769
f 769/769 795/795 796/796
f 795/795 792/792 796/796
f 788/788 787/787 797/797
f 788/788 797/797 798/798
f 797/797 783/783 798/798
f 797/797 784/784 783/783
f 787/787 784/784 797/797
f 798/798 783/783 799/799
f 800/800 798/798 799/799
f 800/800 788/788 798/798
f 801/801 788/788 800/800
f 792/792 788/788 801/801
f 800/800 799/799 802/802
f 801/801 800/800 802/802
f 803/803 801/801 802/802
f 769/769 796/796 803/803
f 796/796 792/792 803/803
f 803/803 792/792 801/801
f 799/799 783/783 779/779
f 781/781 799/799 779/779
f 802/802 799/799 781/781
f 803/803 802/802 781/781
f 782/782 803/803 781/781
f 769/769 803/803 782/782
f 804/804 805/805 806/806
f 804/804 807/807 805/805
f 807/807 808/808 805/805
f 808/808 809/809 805/805
f 810/810 804/804 806/806
f 810/810 811/811 804/804
f 804/804 812/812 807/807
f 811/811 812/812 804/804
f 812/812 808/808 807/807
f 812/812 813/813 808/808
f 808/808 814/814 809/809
f 813/813 814/814 808/808
f 806/806 805/805 815/815
f 806/806 815/815 810/810
f 805/805 816/816 815/815
f 805/805 817/817 816/816
f 805/805 809/809 817/817
f 809/809 814/814 817/817
f 815/815 818/818 810/810
f 816/816 819/819 815/815
f 815/815 819/819 818/818
f 816/816 817/817 819/819
f 817/817 820/820 819/819
f 817/817 814/814 820/820
f 810/810 821/821 811/811
f 821/821 812/812 811/811
f 822/822 821/821 810/810
f 822/822 823/823 821/821
f 821/821 823/823 824/824
f 821/821 824/824 812/812
f 823/823 825/825 824/824
f 812/812 825/825 813/813
f 824/824 825/825 812/812
f 825/825 814/814 813/813
f 823/823 826/826 825/825
f 825/825 826/826 814/814
f 827/827 823/823 822/822
f 818/818 819/819 827/827
f 828/828 823/823 827/827
f 819/819 828/828 827/827
f 828/828 829/829 823/823
f 829/829 826/826 823/823
f 820/820 829/829 819/819
f 819/819 829/829 828/828
f 814/814 826/826 829/829
f 820/820 814/814 829/829
f 810/810 827/827 822/822
f 818/818 827/827 810/810
f 830/830 831/831 832/832
f 831/831 833/833 832/832
f 831/831 834/834 833/833
f 835/835 834/834 831/831
f 830/830 832/832 836/836
f 832/832 837/837 836/836
f 833/833 838/838 832/832
f 832/832 838/838 837/837
f 834/834 838/838 833/833
f 834/834 839/839 838/838
f 835/835 840/840 834/834
f 840/840 839/839 834/834
f 841/841 831/831 830/830
f 841/841 830/830 836/836
f 842/842 831/831 841/841
f 842/842 843/843 831/831
f 843/843 835/835 831/831
f 843/843 840/840 835/835
f 841/841 836/836 844/844
f 845/845 842/842 841/841
f 844/844 845/845 841/841
f 845/845 843/843 842/842
f 845/845 846/846 843/843
f 846/846 840/840 843/843
f 837/837 847/847 836/836
f 837/837 838/838 847/847
f 836/836 847/847 848/848
f 847/847 849/849 848/848
f 847/847 850/850 849/849
f 847/847 838/838 850/850
f 850/850 851/851 849/849
f 838/838 839/839 851/851
f 838/838 851/851 850/850
f 851/851 839/839 840/840
f 849/849 851/851 852/852
f 852/852 851/851 840/840
f 848/848 849/849 853/853
f 844/844 853/853 845/845
f 853/853 849/849 854/854
f 853/853 854/854 845/845
f 849/849 855/855 854/854
f 849/849 852/852 855/855
f 845/845 855/855 846/846
f 854/854 855/855 845/845
f 852/852 840/840 855/855
f 855/855 840/840 846/846
f 836/836 848/848 853/853
f 836/836 853/853 844/844
f 856/856 857/857 858/858
f 857/857 859/859 858/858
f 856/856 860/860 857/857
f 856/856 858/858 861/861
f 862/862 863/863 864/864
f 862/862 864/864 865/865
f 865/865 864/864 866/866
f 865/865 867/867 862/862
f 867/867 868/868 862/862
f 869/869 867/867 865/865
f 870/870 871/871 872/872
f 870/870 872/872 873/873
f 874/874 870/870 873/873
f 875/875 876/876 877/877
f 875/875 878/878 876/876
f 876/876 879/879 877/877
f 880/880 875/875 877/877
f 881/881 882/882 883/883
f 884/884 881/881 883/883
f 884/884 883/883 885/885
f 886/886 887/887 888/888
f 889/889 886/886 888/888
f 890/890 886/886 889/889
f 888/888 887/887 891/891
f 887/887 892/892 891/891
f 891/891 892/892 893/893
f 892/892 894/894 893/893
f 895/895 887/887 886/886
f 895/895 896/896 887/887
f 895/895 886/886 897/897
f 897/897 886/886 890/890
f 898/898 897/897 890/890
f 898/898 890/890 899/899
f 900/900 894/894 892/892
f 896/896 900/900 887/887
f 887/887 900/900 892/892
f 901/901 890/890 889/889
f 899/899 890/890 901/901
f 902/902 899/899 901/901
f 903/903 898/898 899/899
f 903/903 899/899 902/902
f 904/904 903/903 902/902
f 905/905 904/904 902/902
f 906/906 904/904 905/905
f 907/907 908/908 909/909
f 907/907 909/909 910/910
f 910/910 909/909 911/911
f 912/912 908/908 907/907
f 912/912 913/913 908/908
f 914/914 913/913 912/912
f 914/914 915/915 913/913
f 909/909 908/908 916/916
f 908/908 917/917 916/916
f 918/918 909/909 916/916
f 911/911 909/909 918/918
f 911/911 918/918 919/919
f 920/920 911/911 919/919
f 913/913 915/915 921/921
f 913/913 921/921 908/908
f 908/908 921/921 917/917
f 910/910 911/911 922/922
f 922/922 911/911 920/920
f 922/922 920/920 923/923
f 920/920 919/919 924/924
f 923/923 920/920 924/924
f 923/923 924/924 925/925
f 923/923 925/925 926/926
f 926/926 925/925 927/927
f 928/928 929/929 930/930
f 931/931 928/928 930/930
f 928/928 932/932 929/929
f 932/932 933/933 929/929
f 929/929 933/933 934/934
f 934/934 933/933 935/935
f 934/934 935/935 936/936
f 931/931 930/930 937/937
f 938/938 931/931 937/937
f 938/938 937/937 939/939
f 940/940 941/941 942/942
f 941/941 943/943 942/942
f 942/942 944/944 940/940
f 942/942 945/945 944/944
f 942/942 943/943 945/945
f 945/945 943/943 946/946
f 943/943 947/947 946/946
f 945/945 948/948 944/944
f 945/945 946/946 948/948
f 946/946 949/949 948/948
f 946/946 947/947 950/950
f 950/950 949/949 946/946
f 951/951 952/952 953/953
f 954/954 952/952 951/951
f 955/955 954/954 951/951
f 955/955 951/951 956/956
f 957/957 954/954 955/955
f 957/957 952/952 954/954
f 958/958 952/952 957/957
f 959/959 957/957 955/955
f 960/960 952/952 958/958
f 961/961 952/952 960/960
f 953/953 952/952 961/961
f 962/962 961/961 960/960
f 963/963 961/961 962/962
f 953/953 961/961 963/963
f 964/964 965/965 966/966
f 967/967 964/964 966/966
f 964/964 968/968 965/965
f 969/969 968/968 964/964
f 967/967 966/966 970/970
f 971/971 968/968 969/969
f 972/972 971/971 969/969
f 973/973 967/967 970/970
f 973/973 970/970 974/974
f 975/975 973/973 974/974
f 976/976 977/977 978/978
f 978/978 977/977 979/979
f 980/980 976/976 978/978
f 979/979 977/977 981/981
f 979/979 981/981 982/982
f 983/983 984/984 985/985
f 985/985 984/984 986/986
f 985/985 986/986 987/987
f 988/988 984/984 983/983
f 989/989 988/988 983/983
f 990/990 991/991 992/992
f 990/990 993/993 991/991
f 994/994 993/993 990/990
f 995/995 996/996 997/997
f 996/996 998/998 997/997
f 997/997 998/998 999/999
