mtllib acce615.mtl
o acce615
v 0.06192 -0.08442 2.93130 0.000 0.000 0.000
v 0.09990 -0.07956 2.89026 0.000 0.000 0.000
v 0.08352 -0.07200 2.87730 0.000 0.000 0.000
v 0.04176 -0.08892 2.86110 0.000 0.000 0.000
v 0.01458 -0.07254 2.89728 0.000 0.000 0.000
v 0.00522 -0.07812 2.91708 0.000 0.000 0.000
v 0.05346 -0.14904 2.90232 0.000 0.000 0.000
v 0.00846 -0.12078 2.87964 0.000 0.000 0.000
v 0.08586 -0.12708 2.85786 0.000 0.000 0.000
v 0.09738 -0.13014 2.86884 0.000 0.000 0.000
v 0.00432 -0.12834 2.89854 0.000 0.000 0.000
v 0.06192 -0.12384 2.93148 0.000 0.000 0.000
v 0.10386 -0.10620 2.88090 0.000 0.000 0.000
v 0.09990 -0.07956 2.89026 0.000 0.000 0.000
v 0.08352 -0.07200 2.87730 0.000 0.000 0.000
v 0.06192 -0.08442 2.93130 0.000 0.000 0.000
v 0.04176 -0.08892 2.86110 0.000 0.000 0.000
v 0.09738 -0.13014 2.86884 0.000 0.000 0.000
v 0.08586 -0.12708 2.85786 0.000 0.000 0.000
v 0.05346 -0.14904 2.90232 0.000 0.000 0.000
v 0.00522 -0.07812 2.91708 0.000 0.000 0.000
v -0.00018 -0.10476 2.91024 0.000 0.000 0.000
v 0.01458 -0.07254 2.89728 0.000 0.000 0.000
v 0.04176 -0.08892 2.86110 0.000 0.000 0.000
v 0.00432 -0.12834 2.89854 0.000 0.000 0.000
v 0.00846 -0.12078 2.87964 0.000 0.000 0.000
v 0.17820 -0.51210 2.90736 0.000 0.000 0.000
v 0.15246 -0.44910 2.87262 0.000 0.000 0.000
v 0.12438 -0.44946 2.92212 0.000 0.000 0.000
v 0.07920 -0.38304 2.94642 0.000 0.000 0.000
v 0.16038 -0.39294 2.84616 0.000 0.000 0.000
v 0.14616 -0.25200 2.83446 0.000 0.000 0.000
v 0.06552 -0.31932 2.96370 0.000 0.000 0.000
v 0.04770 -0.23688 2.97972 0.000 0.000 0.000
v 0.12780 -0.20574 2.84940 0.000 0.000 0.000
v 0.02826 -0.16380 2.95956 0.000 0.000 0.000
v 0.05346 -0.14904 2.90232 0.000 0.000 0.000
v 0.09738 -0.13014 2.86884 0.000 0.000 0.000
v 0.00432 -0.12834 2.89854 0.000 0.000 0.000
v 0.06534 -0.07164 2.95020 0.000 0.000 0.000
v 0.12042 -0.00900 3.00906 0.000 0.000 0.000
v 0.04644 -0.15840 2.99430 0.000 0.000 0.000
v 0.10278 -0.01620 3.06684 0.000 0.000 0.000
v 0.04716 -0.14796 3.07314 0.000 0.000 0.000
v 0.03024 -0.14058 2.94606 0.000 0.000 0.000
v 0.00522 -0.07812 2.91708 0.000 0.000 0.000
v 0.12492 -0.01530 2.94678 0.000 0.000 0.000
v 0.11250 -0.04212 2.90790 0.000 0.000 0.000
v 0.05832 -0.08244 2.92140 0.000 0.000 0.000
v 0.09990 -0.07956 2.89026 0.000 0.000 0.000
v 0.08550 -0.02250 3.11382 0.000 0.000 0.000
v 0.01386 -0.12006 3.12552 0.000 0.000 0.000
v 0.02574 -0.02610 3.18366 0.000 0.000 0.000
v -0.00108 -0.08172 3.18186 0.000 0.000 0.000
v -0.03186 -0.02160 3.24756 0.000 0.000 0.000
v 0.10116 -0.05022 3.00294 0.000 0.000 0.000
v 0.10098 -0.04968 2.99538 0.000 0.000 0.000
v 0.10404 -0.04482 2.99286 0.000 0.000 0.000
v 0.10296 -0.04392 2.99898 0.000 0.000 0.000
v 0.10530 -0.03690 3.00060 0.000 0.000 0.000
v 0.10422 -0.03888 2.99376 0.000 0.000 0.000
v 0.10548 -0.03384 2.98836 0.000 0.000 0.000
v 0.10314 -0.04104 2.98746 0.000 0.000 0.000
v 0.09918 -0.05418 2.98980 0.000 0.000 0.000
v 0.10134 -0.04752 2.98836 0.000 0.000 0.000
v 0.10152 -0.04500 2.98116 0.000 0.000 0.000
v 0.05850 -0.11448 2.97396 0.000 0.000 0.000
v 0.05616 -0.11286 2.96676 0.000 0.000 0.000
v 0.05904 -0.10800 2.96388 0.000 0.000 0.000
v 0.05976 -0.10782 2.97018 0.000 0.000 0.000
v 0.06336 -0.10152 2.97162 0.000 0.000 0.000
v 0.06012 -0.10242 2.96532 0.000 0.000 0.000
v 0.06030 -0.09684 2.96028 0.000 0.000 0.000
v 0.05706 -0.10350 2.95956 0.000 0.000 0.000
v 0.05220 -0.11646 2.96154 0.000 0.000 0.000
v 0.05454 -0.10980 2.96028 0.000 0.000 0.000
v 0.05310 -0.10656 2.95380 0.000 0.000 0.000
v 0.07470 -0.09324 3.06360 0.000 0.000 0.000
v 0.07560 -0.09306 3.05694 0.000 0.000 0.000
v 0.07866 -0.08892 3.05496 0.000 0.000 0.000
v 0.07668 -0.08784 3.06000 0.000 0.000 0.000
v 0.07848 -0.08172 3.06144 0.000 0.000 0.000
v 0.07866 -0.08370 3.05550 0.000 0.000 0.000
v 0.08046 -0.07956 3.05064 0.000 0.000 0.000
v 0.07866 -0.08586 3.04992 0.000 0.000 0.000
v 0.07488 -0.09738 3.05208 0.000 0.000 0.000
v 0.07686 -0.09144 3.05082 0.000 0.000 0.000
v 0.07812 -0.08982 3.04452 0.000 0.000 0.000
v 0.05256 -0.14526 3.04632 0.000 0.000 0.000
v 0.05274 -0.14472 3.03786 0.000 0.000 0.000
v 0.05688 -0.13986 3.03516 0.000 0.000 0.000
v 0.05526 -0.13860 3.04182 0.000 0.000 0.000
v 0.05832 -0.13122 3.04362 0.000 0.000 0.000
v 0.05742 -0.13338 3.03606 0.000 0.000 0.000
v 0.05958 -0.12798 3.03012 0.000 0.000 0.000
v 0.05652 -0.13572 3.02922 0.000 0.000 0.000
v 0.05076 -0.14976 3.03174 0.000 0.000 0.000
v 0.05364 -0.14256 3.03012 0.000 0.000 0.000
v 0.05472 -0.14022 3.02220 0.000 0.000 0.000
v 0.08928 -0.03150 3.09042 0.000 0.000 0.000
v 0.09108 -0.03204 3.08394 0.000 0.000 0.000
v 0.09504 -0.02844 3.08232 0.000 0.000 0.000
v 0.09252 -0.02682 3.08700 0.000 0.000 0.000
v 0.09486 -0.02070 3.08826 0.000 0.000 0.000
v 0.09558 -0.02322 3.08250 0.000 0.000 0.000
v 0.09864 -0.01980 3.07782 0.000 0.000 0.000
v 0.09612 -0.02592 3.07728 0.000 0.000 0.000
v 0.09054 -0.03654 3.07926 0.000 0.000 0.000
v 0.09342 -0.03114 3.07800 0.000 0.000 0.000
v 0.09594 -0.03006 3.07206 0.000 0.000 0.000
v 0.03150 -0.09954 3.12390 0.000 0.000 0.000
v 0.03528 -0.10062 3.11850 0.000 0.000 0.000
v 0.03978 -0.09756 3.11796 0.000 0.000 0.000
v 0.03618 -0.09540 3.12156 0.000 0.000 0.000
v 0.03852 -0.08946 3.12318 0.000 0.000 0.000
v 0.04086 -0.09252 3.11814 0.000 0.000 0.000
v 0.04572 -0.08964 3.11454 0.000 0.000 0.000
v 0.04284 -0.09558 3.11346 0.000 0.000 0.000
v 0.03582 -0.10548 3.11418 0.000 0.000 0.000
v 0.03942 -0.10044 3.11364 0.000 0.000 0.000
v 0.04392 -0.10008 3.10878 0.000 0.000 0.000
v 0.04302 -0.04626 3.15090 0.000 0.000 0.000
v 0.04698 -0.04752 3.14568 0.000 0.000 0.000
v 0.05130 -0.04392 3.14496 0.000 0.000 0.000
v 0.04734 -0.04176 3.14820 0.000 0.000 0.000
v 0.04914 -0.03564 3.14928 0.000 0.000 0.000
v 0.05184 -0.03888 3.14460 0.000 0.000 0.000
v 0.05634 -0.03582 3.14100 0.000 0.000 0.000
v 0.05418 -0.04212 3.14028 0.000 0.000 0.000
v 0.04824 -0.05274 3.14190 0.000 0.000 0.000
v 0.05130 -0.04734 3.14100 0.000 0.000 0.000
v 0.05580 -0.04698 3.13614 0.000 0.000 0.000
v -0.00036 -0.06318 3.19338 0.000 0.000 0.000
v 0.00360 -0.06444 3.18816 0.000 0.000 0.000
v 0.00810 -0.06102 3.18744 0.000 0.000 0.000
v 0.00432 -0.05886 3.19086 0.000 0.000 0.000
v 0.00630 -0.05274 3.19212 0.000 0.000 0.000
v 0.00882 -0.05598 3.18744 0.000 0.000 0.000
v 0.01350 -0.05292 3.18384 0.000 0.000 0.000
v 0.01098 -0.05922 3.18294 0.000 0.000 0.000
v 0.00450 -0.06948 3.18402 0.000 0.000 0.000
v 0.00792 -0.06426 3.18330 0.000 0.000 0.000
v 0.01242 -0.06390 3.17844 0.000 0.000 0.000
v 0.08496 -0.25380 2.93058 0.000 0.000 0.000
v 0.08388 -0.24642 2.93220 0.000 0.000 0.000
v 0.08154 -0.24516 2.93796 0.000 0.000 0.000
v 0.08064 -0.25110 2.93634 0.000 0.000 0.000
v 0.07632 -0.25416 2.94156 0.000 0.000 0.000
v 0.07704 -0.24696 2.94102 0.000 0.000 0.000
v 0.07326 -0.24264 2.94606 0.000 0.000 0.000
v 0.07776 -0.24030 2.94030 0.000 0.000 0.000
v 0.08640 -0.23994 2.92932 0.000 0.000 0.000
v 0.08190 -0.23994 2.93508 0.000 0.000 0.000
v 0.07992 -0.23346 2.93814 0.000 0.000 0.000
v 0.11736 -0.21240 2.86758 0.000 0.000 0.000
v 0.11502 -0.20520 2.86830 0.000 0.000 0.000
v 0.11304 -0.20358 2.87406 0.000 0.000 0.000
v 0.11322 -0.20988 2.87334 0.000 0.000 0.000
v 0.11016 -0.21294 2.87946 0.000 0.000 0.000
v 0.10908 -0.20592 2.87802 0.000 0.000 0.000
v 0.10512 -0.20178 2.88270 0.000 0.000 0.000
v 0.10836 -0.19944 2.87640 0.000 0.000 0.000
v 0.11556 -0.19890 2.86452 0.000 0.000 0.000
v 0.11178 -0.19908 2.87046 0.000 0.000 0.000
v 0.10854 -0.19260 2.87298 0.000 0.000 0.000
v 0.12366 -0.28170 2.87388 0.000 0.000 0.000
v 0.12258 -0.27432 2.87550 0.000 0.000 0.000
v 0.12024 -0.27306 2.88126 0.000 0.000 0.000
v 0.11934 -0.27900 2.87964 0.000 0.000 0.000
v 0.11502 -0.28206 2.88486 0.000 0.000 0.000
v 0.11574 -0.27486 2.88432 0.000 0.000 0.000
v 0.11196 -0.27054 2.88936 0.000 0.000 0.000
v 0.11646 -0.26820 2.88360 0.000 0.000 0.000
v 0.12510 -0.26784 2.87262 0.000 0.000 0.000
v 0.12060 -0.26784 2.87838 0.000 0.000 0.000
v 0.11862 -0.26136 2.88144 0.000 0.000 0.000
v 0.06606 -0.18126 2.91978 0.000 0.000 0.000
v 0.06228 -0.17460 2.91942 0.000 0.000 0.000
v 0.05976 -0.17244 2.92482 0.000 0.000 0.000
v 0.06120 -0.17856 2.92500 0.000 0.000 0.000
v 0.05868 -0.18108 2.93166 0.000 0.000 0.000
v 0.05634 -0.17478 2.92914 0.000 0.000 0.000
v 0.05148 -0.17082 2.93310 0.000 0.000 0.000
v 0.05454 -0.16902 2.92644 0.000 0.000 0.000
v 0.06174 -0.16902 2.91456 0.000 0.000 0.000
v 0.05796 -0.16884 2.92050 0.000 0.000 0.000
v 0.05346 -0.16290 2.92194 0.000 0.000 0.000
v 0.09342 -0.32238 2.92482 0.000 0.000 0.000
v 0.09198 -0.31500 2.92626 0.000 0.000 0.000
v 0.09000 -0.31374 2.93220 0.000 0.000 0.000
v 0.08928 -0.31986 2.93076 0.000 0.000 0.000
v 0.08550 -0.32274 2.93634 0.000 0.000 0.000
v 0.08568 -0.31572 2.93562 0.000 0.000 0.000
v 0.08190 -0.31140 2.94048 0.000 0.000 0.000
v 0.08586 -0.30906 2.93454 0.000 0.000 0.000
v 0.09396 -0.30852 2.92320 0.000 0.000 0.000
v 0.08982 -0.30870 2.92896 0.000 0.000 0.000
v 0.08730 -0.30204 2.93202 0.000 0.000 0.000
v 0.13644 -0.34974 2.87082 0.000 0.000 0.000
v 0.13464 -0.34236 2.87190 0.000 0.000 0.000
v 0.13248 -0.34092 2.87766 0.000 0.000 0.000
v 0.13212 -0.34704 2.87658 0.000 0.000 0.000
v 0.12870 -0.35010 2.88234 0.000 0.000 0.000
v 0.12834 -0.34308 2.88126 0.000 0.000 0.000
v 0.12420 -0.33876 2.88612 0.000 0.000 0.000
v 0.12816 -0.33642 2.88000 0.000 0.000 0.000
v 0.13590 -0.33588 2.86848 0.000 0.000 0.000
v 0.13194 -0.33606 2.87424 0.000 0.000 0.000
v 0.12906 -0.32958 2.87694 0.000 0.000 0.000
v 0.10152 -0.39474 2.92464 0.000 0.000 0.000
v 0.09990 -0.38754 2.92590 0.000 0.000 0.000
v 0.09738 -0.38610 2.93148 0.000 0.000 0.000
v 0.09702 -0.39222 2.93022 0.000 0.000 0.000
v 0.09306 -0.39528 2.93562 0.000 0.000 0.000
v 0.09288 -0.38826 2.93472 0.000 0.000 0.000
v 0.08874 -0.38412 2.93940 0.000 0.000 0.000
v 0.09306 -0.38160 2.93364 0.000 0.000 0.000
v 0.10170 -0.38106 2.92266 0.000 0.000 0.000
v 0.09720 -0.38106 2.92842 0.000 0.000 0.000
v 0.09432 -0.37458 2.93094 0.000 0.000 0.000
v 0.14724 -0.42174 2.87262 0.000 0.000 0.000
v 0.14544 -0.41436 2.87370 0.000 0.000 0.000
v 0.14328 -0.41292 2.87946 0.000 0.000 0.000
v 0.14292 -0.41904 2.87838 0.000 0.000 0.000
v 0.13950 -0.42210 2.88414 0.000 0.000 0.000
v 0.13914 -0.41508 2.88306 0.000 0.000 0.000
v 0.13500 -0.41076 2.88792 0.000 0.000 0.000
v 0.13896 -0.40842 2.88180 0.000 0.000 0.000
v 0.14670 -0.40788 2.87028 0.000 0.000 0.000
v 0.14274 -0.40806 2.87604 0.000 0.000 0.000
v 0.13986 -0.40158 2.87874 0.000 0.000 0.000
v 0.05166 0.09990 2.90988 0.000 0.000 0.000
v 0.05634 0.00000 2.92752 0.000 0.000 0.000
v 0.10530 0.00000 2.90160 0.000 0.000 0.000
v 0.09864 0.09828 2.88180 0.000 0.000 0.000
v 0.07740 0.17964 2.81736 0.000 0.000 0.000
v 0.03204 0.18504 2.83626 0.000 0.000 0.000
v 0.00990 0.00000 2.93760 0.000 0.000 0.000
v 0.00594 0.09828 2.92068 0.000 0.000 0.000
v -0.01170 0.18000 2.84454 0.000 0.000 0.000
v 0.04338 0.00000 2.87874 0.000 0.000 0.000
v 0.03870 0.08532 2.86146 0.000 0.000 0.000
v 0.02448 0.15390 2.80818 0.000 0.000 0.000
v 0.04338 0.00000 2.87874 0.000 0.000 0.000
v 0.03870 0.08532 2.86146 0.000 0.000 0.000
v 0.02448 0.15390 2.80818 0.000 0.000 0.000
v 0.10440 -0.05418 2.89566 0.000 0.000 0.000
v 0.05022 -0.10548 2.90448 0.000 0.000 0.000
v 0.08892 -0.10152 2.88648 0.000 0.000 0.000
v 0.03870 -0.08532 2.86146 0.000 0.000 0.000
v 0.00648 -0.05436 2.92302 0.000 0.000 0.000
v 0.01818 -0.10152 2.90664 0.000 0.000 0.000
v 0.03870 -0.08532 2.86146 0.000 0.000 0.000
v 0.00810 0.17460 2.74716 0.000 0.000 0.000
v 0.00810 0.17460 2.74716 0.000 0.000 0.000
v 0.04932 0.21276 2.73618 0.000 0.000 0.000
v 0.00810 0.21978 2.74716 0.000 0.000 0.000
v -0.03168 0.21276 2.75796 0.000 0.000 0.000
v 0.03312 0.21636 2.68884 0.000 0.000 0.000
v -0.01548 0.21780 2.65950 0.000 0.000 0.000
v -0.00486 0.22374 2.69874 0.000 0.000 0.000
v 0.01980 0.21330 2.65050 0.000 0.000 0.000
v -0.02232 0.19026 2.58462 0.000 0.000 0.000
v 0.04932 0.21276 2.73618 0.000 0.000 0.000
v 0.00810 0.21978 2.74716 0.000 0.000 0.000
v -0.00558 0.19116 2.58732 0.000 0.000 0.000
v -0.03816 0.21636 2.70954 0.000 0.000 0.000
v -0.03168 0.21276 2.75796 0.000 0.000 0.000
v -0.04248 0.21330 2.66904 0.000 0.000 0.000
v -0.04176 0.19116 2.60604 0.000 0.000 0.000
v -0.01548 0.18252 2.65950 0.000 0.000 0.000
v -0.00558 0.19116 2.58732 0.000 0.000 0.000
v -0.02250 0.16110 2.58066 0.000 0.000 0.000
v -0.00774 0.18540 2.57238 0.000 0.000 0.000
v -0.02286 0.18360 2.55996 0.000 0.000 0.000
v -0.01548 0.18252 2.65950 0.000 0.000 0.000
v -0.02250 0.16110 2.58066 0.000 0.000 0.000
v -0.03762 0.18540 2.58300 0.000 0.000 0.000
v -0.02286 0.18360 2.55996 0.000 0.000 0.000
v 0.00810 0.17460 2.74716 0.000 0.000 0.000
v -0.02232 0.19026 2.58462 0.000 0.000 0.000
v -0.00558 0.19116 2.58732 0.000 0.000 0.000
v -0.02286 0.18360 2.55996 0.000 0.000 0.000
v -0.02232 0.19026 2.58462 0.000 0.000 0.000
v -0.04176 0.19116 2.60604 0.000 0.000 0.000
v 0.00810 0.17460 2.74716 0.000 0.000 0.000
v 0.07740 -0.17964 2.81736 0.000 0.000 0.000
v 0.03204 -0.18504 2.83626 0.000 0.000 0.000
v 0.00810 -0.21978 2.74716 0.000 0.000 0.000
v 0.04932 -0.21276 2.73618 0.000 0.000 0.000
v 0.00810 -0.17460 2.74716 0.000 0.000 0.000
v -0.01170 -0.18000 2.84454 0.000 0.000 0.000
v -0.03168 -0.21276 2.75796 0.000 0.000 0.000
v 0.02448 -0.15390 2.80818 0.000 0.000 0.000
v 0.00810 -0.17460 2.74716 0.000 0.000 0.000
v 0.02448 -0.15390 2.80818 0.000 0.000 0.000
v -0.00486 -0.22374 2.69874 0.000 0.000 0.000
v -0.01548 -0.21780 2.65950 0.000 0.000 0.000
v 0.03312 -0.21636 2.68884 0.000 0.000 0.000
v 0.01980 -0.21330 2.65050 0.000 0.000 0.000
v -0.02232 -0.19026 2.58462 0.000 0.000 0.000
v 0.04932 -0.21276 2.73618 0.000 0.000 0.000
v 0.00810 -0.21978 2.74716 0.000 0.000 0.000
v -0.00558 -0.19116 2.58732 0.000 0.000 0.000
v -0.03168 -0.21276 2.75796 0.000 0.000 0.000
v -0.04248 -0.21330 2.66904 0.000 0.000 0.000
v -0.03816 -0.21636 2.70954 0.000 0.000 0.000
v -0.04176 -0.19116 2.60604 0.000 0.000 0.000
v -0.01548 -0.18252 2.65950 0.000 0.000 0.000
v -0.00558 -0.19116 2.58732 0.000 0.000 0.000
v -0.02250 -0.16110 2.58066 0.000 0.000 0.000
v -0.00774 -0.18540 2.57238 0.000 0.000 0.000
v -0.02286 -0.18360 2.55996 0.000 0.000 0.000
v 0.00810 -0.17460 2.74716 0.000 0.000 0.000
v -0.01548 -0.18252 2.65950 0.000 0.000 0.000
v -0.02250 -0.16110 2.58066 0.000 0.000 0.000
v -0.03762 -0.18540 2.58300 0.000 0.000 0.000
v -0.02286 -0.18360 2.55996 0.000 0.000 0.000
v 0.00810 -0.17460 2.74716 0.000 0.000 0.000
v -0.00558 -0.19116 2.58732 0.000 0.000 0.000
v -0.02232 -0.19026 2.58462 0.000 0.000 0.000
v -0.02286 -0.18360 2.55996 0.000 0.000 0.000
v -0.02232 -0.19026 2.58462 0.000 0.000 0.000
v -0.04176 -0.19116 2.60604 0.000 0.000 0.000
v 0.05022 -0.10548 2.90448 0.000 0.000 0.000
v 0.03204 -0.18504 2.83626 0.000 0.000 0.000
v 0.09018 -0.14418 2.85480 0.000 0.000 0.000
v 0.08892 -0.10152 2.88648 0.000 0.000 0.000
v 0.07740 -0.17964 2.81736 0.000 0.000 0.000
v 0.02448 -0.15390 2.80818 0.000 0.000 0.000
v -0.00288 -0.14454 2.88288 0.000 0.000 0.000
v 0.01818 -0.10152 2.90664 0.000 0.000 0.000
v 0.03870 -0.08532 2.86146 0.000 0.000 0.000
v -0.01170 -0.18000 2.84454 0.000 0.000 0.000
v 0.03870 -0.08532 2.86146 0.000 0.000 0.000
v 0.02448 -0.15390 2.80818 0.000 0.000 0.000
v 0.00072 0.16794 2.85498 0.000 0.000 0.000
v 0.00468 0.17244 2.85066 0.000 0.000 0.000
v 0.00162 0.17748 2.84850 0.000 0.000 0.000
v -0.00234 0.17316 2.85048 0.000 0.000 0.000
v -0.00918 0.17532 2.84886 0.000 0.000 0.000
v -0.00360 0.17838 2.84580 0.000 0.000 0.000
v -0.00468 0.18378 2.84094 0.000 0.000 0.000
v 0.00198 0.18090 2.84310 0.000 0.000 0.000
v 0.01188 0.17352 2.84922 0.000 0.000 0.000
v 0.00684 0.17748 2.84598 0.000 0.000 0.000
v 0.00918 0.18270 2.84112 0.000 0.000 0.000
v 0.02574 0.11844 2.90034 0.000 0.000 0.000
v 0.02952 0.12258 2.89530 0.000 0.000 0.000
v 0.02664 0.12780 2.89368 0.000 0.000 0.000
v 0.02250 0.12384 2.89620 0.000 0.000 0.000
v 0.01584 0.12654 2.89548 0.000 0.000 0.000
v 0.02124 0.12906 2.89170 0.000 0.000 0.000
v 0.01980 0.13464 2.88684 0.000 0.000 0.000
v 0.02646 0.13122 2.88810 0.000 0.000 0.000
v 0.03654 0.12312 2.89278 0.000 0.000 0.000
v 0.03150 0.12744 2.89026 0.000 0.000 0.000
v 0.03348 0.13230 2.88504 0.000 0.000 0.000
v 0.06462 0.13968 2.86614 0.000 0.000 0.000
v 0.06822 0.14310 2.86056 0.000 0.000 0.000
v 0.06624 0.14868 2.85912 0.000 0.000 0.000
v 0.06192 0.14544 2.86236 0.000 0.000 0.000
v 0.05580 0.14958 2.86272 0.000 0.000 0.000
v 0.06102 0.15102 2.85804 0.000 0.000 0.000
v 0.06012 0.15660 2.85336 0.000 0.000 0.000
v 0.06606 0.15210 2.85354 0.000 0.000 0.000
v 0.07470 0.14220 2.85696 0.000 0.000 0.000
v 0.07038 0.14742 2.85516 0.000 0.000 0.000
v 0.07236 0.15192 2.84958 0.000 0.000 0.000
v 0.04230 0.04446 2.92356 0.000 0.000 0.000
v 0.04770 0.04932 2.92122 0.000 0.000 0.000
v 0.04644 0.05508 2.92230 0.000 0.000 0.000
v 0.04122 0.05184 2.92266 0.000 0.000 0.000
v 0.03564 0.05634 2.92356 0.000 0.000 0.000
v 0.04194 0.05868 2.92122 0.000 0.000 0.000
v 0.04284 0.06570 2.91978 0.000 0.000 0.000
v 0.04806 0.06048 2.91924 0.000 0.000 0.000
v 0.05472 0.04878 2.91924 0.000 0.000 0.000
v 0.05148 0.05490 2.91924 0.000 0.000 0.000
v 0.05544 0.06066 2.91708 0.000 0.000 0.000
v 0.09738 0.06444 2.89206 0.000 0.000 0.000
v 0.10152 0.06984 2.88720 0.000 0.000 0.000
v 0.10098 0.07632 2.88630 0.000 0.000 0.000
v 0.09558 0.07236 2.89152 0.000 0.000 0.000
v 0.09000 0.07704 2.89476 0.000 0.000 0.000
v 0.09522 0.07974 2.88972 0.000 0.000 0.000
v 0.09486 0.08748 2.88774 0.000 0.000 0.000
v 0.10026 0.08208 2.88486 0.000 0.000 0.000
v 0.01566 -0.04374 2.92536 0.000 0.000 0.000
v 0.02142 -0.03888 2.92518 0.000 0.000 0.000
v 0.02070 -0.03384 2.92842 0.000 0.000 0.000
v 0.01512 -0.03654 2.92716 0.000 0.000 0.000
v 0.00972 -0.03222 2.92932 0.000 0.000 0.000
v 0.01638 -0.02970 2.92842 0.000 0.000 0.000
v 0.01782 -0.02286 2.92986 0.000 0.000 0.000
v 0.02286 -0.02790 2.92752 0.000 0.000 0.000
v 0.02880 -0.03924 2.92356 0.000 0.000 0.000
v 0.02574 -0.03330 2.92554 0.000 0.000 0.000
v 0.03024 -0.02736 2.92608 0.000 0.000 0.000
v 0.06822 -0.02070 2.91870 0.000 0.000 0.000
v 0.07380 -0.01620 2.91636 0.000 0.000 0.000
v 0.07380 -0.01062 2.91906 0.000 0.000 0.000
v 0.06822 -0.01332 2.91960 0.000 0.000 0.000
v 0.06372 -0.00846 2.92266 0.000 0.000 0.000
v 0.06984 -0.00648 2.91960 0.000 0.000 0.000
v 0.07146 0.00054 2.91960 0.000 0.000 0.000
v 0.07578 -0.00486 2.91690 0.000 0.000 0.000
v 0.08046 -0.01692 2.91294 0.000 0.000 0.000
v 0.07812 -0.01062 2.91492 0.000 0.000 0.000
v 0.08244 -0.00486 2.91330 0.000 0.000 0.000
v 0.07938 -0.07452 2.90070 0.000 0.000 0.000
v 0.08568 -0.07056 2.89908 0.000 0.000 0.000
v 0.08604 -0.06516 2.90214 0.000 0.000 0.000
v 0.08010 -0.06732 2.90214 0.000 0.000 0.000
v 0.07596 -0.06210 2.90520 0.000 0.000 0.000
v 0.08262 -0.06066 2.90286 0.000 0.000 0.000
v 0.08514 -0.05400 2.90340 0.000 0.000 0.000
v 0.08874 -0.05958 2.90052 0.000 0.000 0.000
v 0.09234 -0.07182 2.89620 0.000 0.000 0.000
v 0.09072 -0.06552 2.89836 0.000 0.000 0.000
v 0.09576 -0.06030 2.89764 0.000 0.000 0.000
v 0.04446 -0.19944 2.79180 0.000 0.000 0.000
v 0.04734 -0.19584 2.79594 0.000 0.000 0.000
v 0.04374 -0.19476 2.80260 0.000 0.000 0.000
v 0.04050 -0.19746 2.79630 0.000 0.000 0.000
v 0.03384 -0.19980 2.79432 0.000 0.000 0.000
v 0.03906 -0.19980 2.78946 0.000 0.000 0.000
v 0.03780 -0.20232 2.78244 0.000 0.000 0.000
v 0.04428 -0.19980 2.78532 0.000 0.000 0.000
v 0.05418 -0.19476 2.79342 0.000 0.000 0.000
v 0.04932 -0.19728 2.78910 0.000 0.000 0.000
v 0.05112 -0.19890 2.78190 0.000 0.000 0.000
v -0.01458 -0.21456 2.76156 0.000 0.000 0.000
v -0.01098 -0.21150 2.76570 0.000 0.000 0.000
v -0.01476 -0.20880 2.77182 0.000 0.000 0.000
v -0.01818 -0.21114 2.76534 0.000 0.000 0.000
v -0.02502 -0.21150 2.76282 0.000 0.000 0.000
v -0.01962 -0.21366 2.75868 0.000 0.000 0.000
v -0.02106 -0.21618 2.75184 0.000 0.000 0.000
v -0.01422 -0.21546 2.75508 0.000 0.000 0.000
v -0.00396 -0.21276 2.76390 0.000 0.000 0.000
v -0.00918 -0.21420 2.75922 0.000 0.000 0.000
v -0.00720 -0.21690 2.75256 0.000 0.000 0.000
v -0.02610 -0.22158 2.69712 0.000 0.000 0.000
v -0.02214 -0.22068 2.70180 0.000 0.000 0.000
v -0.02520 -0.21996 2.70882 0.000 0.000 0.000
v -0.02898 -0.21924 2.70216 0.000 0.000 0.000
v -0.03600 -0.21780 2.70018 0.000 0.000 0.000
v -0.03114 -0.21888 2.69514 0.000 0.000 0.000
v -0.03312 -0.21870 2.68794 0.000 0.000 0.000
v -0.02610 -0.21996 2.69064 0.000 0.000 0.000
v -0.01530 -0.22230 2.69910 0.000 0.000 0.000
v -0.02088 -0.22122 2.69460 0.000 0.000 0.000
v -0.01962 -0.22158 2.68722 0.000 0.000 0.000
v 0.02088 -0.22050 2.71764 0.000 0.000 0.000
v 0.02394 -0.21816 2.72250 0.000 0.000 0.000
v 0.02106 -0.21888 2.72952 0.000 0.000 0.000
v 0.01728 -0.21960 2.72286 0.000 0.000 0.000
v 0.01026 -0.22068 2.72070 0.000 0.000 0.000
v 0.01530 -0.21978 2.71584 0.000 0.000 0.000
v 0.01350 -0.22014 2.70846 0.000 0.000 0.000
v 0.02034 -0.21906 2.71134 0.000 0.000 0.000
v 0.03114 -0.21726 2.71998 0.000 0.000 0.000
v 0.02574 -0.21816 2.71548 0.000 0.000 0.000
v 0.02700 -0.21780 2.70792 0.000 0.000 0.000
v -0.04230 -0.20304 2.63916 0.000 0.000 0.000
v -0.03888 -0.20556 2.64276 0.000 0.000 0.000
v -0.04230 -0.20646 2.64978 0.000 0.000 0.000
v -0.03204 -0.20664 2.63970 0.000 0.000 0.000
v -0.03690 -0.20376 2.63664 0.000 0.000 0.000
v -0.03582 -0.20178 2.62872 0.000 0.000 0.000
v -0.04212 -0.20070 2.63268 0.000 0.000 0.000
v 0.00450 -0.21780 2.65644 0.000 0.000 0.000
v 0.00774 -0.21636 2.66130 0.000 0.000 0.000
v 0.00486 -0.21798 2.66814 0.000 0.000 0.000
v 0.00108 -0.21744 2.66166 0.000 0.000 0.000
v -0.00612 -0.21816 2.65968 0.000 0.000 0.000
v -0.00108 -0.21672 2.65464 0.000 0.000 0.000
v -0.00324 -0.21582 2.64744 0.000 0.000 0.000
v 0.00378 -0.21528 2.65032 0.000 0.000 0.000
v 0.01494 -0.21510 2.65878 0.000 0.000 0.000
v 0.00936 -0.21528 2.65428 0.000 0.000 0.000
v 0.01044 -0.21384 2.64708 0.000 0.000 0.000
v -0.01512 -0.19674 2.59596 0.000 0.000 0.000
v -0.01170 -0.19692 2.60136 0.000 0.000 0.000
v -0.01530 -0.19926 2.60766 0.000 0.000 0.000
v -0.01872 -0.19710 2.60118 0.000 0.000 0.000
v -0.02574 -0.19656 2.59884 0.000 0.000 0.000
v -0.02052 -0.19476 2.59452 0.000 0.000 0.000
v -0.02214 -0.19224 2.58768 0.000 0.000 0.000
v -0.01512 -0.19314 2.59074 0.000 0.000 0.000
v -0.00468 -0.19584 2.59920 0.000 0.000 0.000
v -0.00990 -0.19440 2.59470 0.000 0.000 0.000
v -0.00828 -0.19188 2.58786 0.000 0.000 0.000
v 0.00900 -0.18090 2.84814 0.000 0.000 0.000
v 0.01188 -0.17604 2.85066 0.000 0.000 0.000
v 0.00756 -0.17172 2.85516 0.000 0.000 0.000
v 0.00486 -0.17676 2.85030 0.000 0.000 0.000
v -0.00198 -0.17910 2.84850 0.000 0.000 0.000
v 0.00378 -0.18180 2.84526 0.000 0.000 0.000
v 0.00306 -0.18702 2.84004 0.000 0.000 0.000
v 0.00954 -0.18414 2.84256 0.000 0.000 0.000
v 0.01908 -0.17676 2.84922 0.000 0.000 0.000
v 0.01440 -0.18054 2.84562 0.000 0.000 0.000
v 0.01674 -0.18540 2.84058 0.000 0.000 0.000
v 0.05904 -0.15930 2.85588 0.000 0.000 0.000
v 0.06138 -0.15390 2.85750 0.000 0.000 0.000
v 0.05724 -0.14994 2.86236 0.000 0.000 0.000
v 0.05454 -0.15552 2.85822 0.000 0.000 0.000
v 0.04806 -0.15876 2.85732 0.000 0.000 0.000
v 0.05364 -0.16092 2.85372 0.000 0.000 0.000
v 0.05292 -0.16668 2.84904 0.000 0.000 0.000
v 0.05940 -0.16290 2.85048 0.000 0.000 0.000
v 0.06858 -0.15408 2.85534 0.000 0.000 0.000
v 0.06390 -0.15858 2.85282 0.000 0.000 0.000
v 0.06642 -0.16362 2.84778 0.000 0.000 0.000
v 0.04104 0.18612 2.82780 0.000 0.000 0.000
v 0.04464 0.18720 2.82114 0.000 0.000 0.000
v 0.04176 0.19080 2.81700 0.000 0.000 0.000
v 0.03780 0.18882 2.82150 0.000 0.000 0.000
v 0.03114 0.19116 2.81952 0.000 0.000 0.000
v 0.03636 0.19116 2.81466 0.000 0.000 0.000
v 0.03510 0.19368 2.80764 0.000 0.000 0.000
v 0.04158 0.19116 2.81052 0.000 0.000 0.000
v 0.05148 0.18612 2.81862 0.000 0.000 0.000
v 0.04662 0.18864 2.81430 0.000 0.000 0.000
v 0.04842 0.19026 2.80710 0.000 0.000 0.000
v 0.01188 0.20790 2.78316 0.000 0.000 0.000
v 0.01584 0.20970 2.77686 0.000 0.000 0.000
v 0.01260 0.21294 2.77254 0.000 0.000 0.000
v 0.00882 0.21006 2.77668 0.000 0.000 0.000
v 0.00180 0.21114 2.77416 0.000 0.000 0.000
v 0.00738 0.21222 2.76984 0.000 0.000 0.000
v 0.00630 0.21456 2.76282 0.000 0.000 0.000
v 0.01296 0.21330 2.76606 0.000 0.000 0.000
v 0.01998 0.21366 2.76336 0.000 0.000 0.000
v 0.02304 0.20988 2.77506 0.000 0.000 0.000
v 0.01800 0.21168 2.77020 0.000 0.000 0.000
v -0.01638 0.22140 2.71440 0.000 0.000 0.000
v -0.01332 0.22212 2.70738 0.000 0.000 0.000
v -0.01728 0.22302 2.70270 0.000 0.000 0.000
v -0.02016 0.22068 2.70774 0.000 0.000 0.000
v -0.02718 0.21924 2.70576 0.000 0.000 0.000
v -0.02232 0.22032 2.70072 0.000 0.000 0.000
v -0.02430 0.21996 2.69352 0.000 0.000 0.000
v -0.01728 0.22140 2.69622 0.000 0.000 0.000
v -0.00648 0.22356 2.70468 0.000 0.000 0.000
v -0.01206 0.22248 2.70018 0.000 0.000 0.000
v -0.01080 0.22284 2.69280 0.000 0.000 0.000
v 0.04698 0.21474 2.74374 0.000 0.000 0.000
v 0.04968 0.21330 2.73672 0.000 0.000 0.000
v 0.04806 0.21564 2.73150 0.000 0.000 0.000
v 0.04338 0.21528 2.73708 0.000 0.000 0.000
v 0.03636 0.21726 2.73492 0.000 0.000 0.000
v 0.04122 0.21546 2.73006 0.000 0.000 0.000
v 0.03924 0.21546 2.72268 0.000 0.000 0.000
v 0.04608 0.21366 2.72556 0.000 0.000 0.000
v -0.04212 0.20646 2.64906 0.000 0.000 0.000
v -0.03870 0.20520 2.64258 0.000 0.000 0.000
v -0.04194 0.20286 2.63862 0.000 0.000 0.000
v -0.03204 0.20664 2.63952 0.000 0.000 0.000
v -0.03690 0.20340 2.63574 0.000 0.000 0.000
v -0.03528 0.20160 2.62854 0.000 0.000 0.000
v -0.04194 0.20070 2.63214 0.000 0.000 0.000
v 0.01368 0.21942 2.67372 0.000 0.000 0.000
v 0.01656 0.21762 2.66688 0.000 0.000 0.000
v 0.01332 0.21924 2.66202 0.000 0.000 0.000
v 0.00990 0.21888 2.66724 0.000 0.000 0.000
v 0.00270 0.21960 2.66526 0.000 0.000 0.000
v 0.00774 0.21816 2.66022 0.000 0.000 0.000
v 0.00558 0.21726 2.65302 0.000 0.000 0.000
v 0.01260 0.21672 2.65590 0.000 0.000 0.000
v 0.02376 0.21654 2.66436 0.000 0.000 0.000
v 0.01818 0.21654 2.65986 0.000 0.000 0.000
v 0.01926 0.21528 2.65266 0.000 0.000 0.000
v -0.01530 0.19926 2.60766 0.000 0.000 0.000
v -0.01170 0.19692 2.60136 0.000 0.000 0.000
v -0.01512 0.19674 2.59596 0.000 0.000 0.000
v -0.01872 0.19710 2.60118 0.000 0.000 0.000
v -0.02574 0.19656 2.59884 0.000 0.000 0.000
v -0.02052 0.19476 2.59452 0.000 0.000 0.000
v -0.02214 0.19224 2.58768 0.000 0.000 0.000
v -0.01512 0.19314 2.59074 0.000 0.000 0.000
v -0.00468 0.19584 2.59920 0.000 0.000 0.000
v -0.00990 0.19440 2.59470 0.000 0.000 0.000
v -0.00828 0.19188 2.58786 0.000 0.000 0.000
v -0.02394 0.20034 2.79198 0.000 0.000 0.000
v -0.01962 0.20376 2.78388 0.000 0.000 0.000
v -0.02502 0.20250 2.78658 0.000 0.000 0.000
v -0.02106 0.20070 2.79072 0.000 0.000 0.000
v -0.01566 0.19998 2.79522 0.000 0.000 0.000
v -0.02232 0.19818 2.79720 0.000 0.000 0.000
vt 0.81276 0.12668
vt 0.75849 0.12668
vt 0.75820 0.09846
vt 0.81276 0.05661
vt 0.86646 0.09846
vt 0.86730 0.12668
vt 0.81276 0.12668
vt 0.86646 0.09846
vt 0.75820 0.09846
vt 0.75849 0.12668
vt 0.86730 0.12668
vt 0.49790 0.60979
vt 0.49790 0.68234
vt 0.64590 0.58198
vt 0.64415 0.61492
vt 0.64590 0.51499
vt 0.49790 0.75247
vt 0.33789 0.76526
vt 0.33965 0.79820
vt 0.33789 0.69827
vt 0.64590 0.44813
vt 0.49790 0.54235
vt 0.64415 0.41462
vt 0.49790 0.47688
vt 0.33789 0.63140
vt 0.33965 0.59790
vt 0.11173 0.99947
vt 0.05202 0.86109
vt 0.26285 0.95212
vt 0.30135 0.83946
vt 0.03448 0.75615
vt 0.00684 0.57001
vt 0.32261 0.75752
vt 0.31691 0.65159
vt 0.01980 0.50305
vt 0.30754 0.55208
vt 0.16055 0.41424
vt 0.10059 0.41424
vt 0.21778 0.41424
vt 0.16879 0.50555
vt 0.31030 0.57352
vt 0.00932 0.62248
vt 0.28136 0.66733
vt 0.02110 0.75656
vt 0.02286 0.55234
vt 0.08773 0.42451
vt 0.32332 0.51970
vt 0.29103 0.46148
vt 0.16845 0.41735
vt 0.24491 0.41876
vt 0.25539 0.75069
vt 0.03711 0.85021
vt 0.19876 0.87107
vt 0.08631 0.91562
vt 0.15801 0.98674
vt 0.87306 0.41406
vt 0.99119 0.41406
vt 0.87316 0.48143
vt 0.99119 0.41406
vt 0.70906 0.41406
vt 0.82719 0.41406
vt 0.70906 0.41406
vt 0.99119 0.41406
vt 0.87306 0.41406
vt 0.99119 0.41406
vt 0.87306 0.41406
vt 0.87306 0.41406
vt 0.99119 0.41406
vt 0.87316 0.48143
vt 0.99119 0.41406
vt 0.87306 0.41406
vt 0.99119 0.41406
vt 0.87306 0.41406
vt 0.99119 0.41406
vt 0.69106 0.41406
vt 0.99119 0.41406
vt 0.69106 0.41406
vt 0.87306 0.41406
vt 0.99119 0.41406
vt 0.87316 0.48143
vt 0.99119 0.41406
vt 0.87306 0.41406
vt 0.99119 0.41406
vt 0.87306 0.41406
vt 0.99119 0.41406
vt 0.87306 0.41406
vt 0.99119 0.41406
vt 0.87306 0.41406
vt 0.90039 0.42606
vt 0.97586 0.42606
vt 0.66435 0.49743
vt 0.99219 0.43006
vt 0.66406 0.43006
vt 0.99219 0.43006
vt 0.66406 0.43006
vt 0.99219 0.43006
vt 0.90039 0.42606
vt 0.99219 0.43006
vt 0.66406 0.43006
vt 0.66406 0.43006
vt 0.99219 0.43006
vt 0.66435 0.49743
vt 0.99219 0.43006
vt 0.66406 0.43006
vt 0.99219 0.43006
vt 0.66406 0.43006
vt 0.99219 0.43006
vt 0.66406 0.43006
vt 0.99219 0.43006
vt 0.66406 0.43006
vt 0.93606 0.43006
vt 0.99219 0.43006
vt 0.66435 0.49743
vt 0.99219 0.43006
vt 0.66406 0.43006
vt 0.99219 0.43006
vt 0.66406 0.43006
vt 0.99219 0.43006
vt 0.93606 0.43006
vt 0.99219 0.43006
vt 0.66406 0.43006
vt 0.66406 0.43006
vt 0.99219 0.43006
vt 0.66435 0.49743
vt 0.99219 0.43006
vt 0.93206 0.43006
vt 0.99219 0.43006
vt 0.93206 0.43006
vt 0.99219 0.43006
vt 0.66406 0.43006
vt 0.99219 0.43006
vt 0.66406 0.43006
vt 0.66406 0.43006
vt 0.99219 0.43006
vt 0.66435 0.49743
vt 0.99219 0.43006
vt 0.66406 0.43006
vt 0.99219 0.43006
vt 0.66406 0.43006
vt 0.99219 0.43006
vt 0.66406 0.43006
vt 0.99219 0.43006
vt 0.66406 0.43006
vt 0.90238 0.41406
vt 0.99387 0.41406
vt 0.90246 0.48143
vt 0.99387 0.41406
vt 0.71438 0.41406
vt 0.85787 0.41406
vt 0.71438 0.41406
vt 0.85787 0.41406
vt 0.90238 0.41406
vt 0.99387 0.41406
vt 0.71438 0.41406
vt 0.66406 0.43006
vt 0.99219 0.43006
vt 0.66435 0.49743
vt 0.99219 0.43006
vt 0.66406 0.43006
vt 0.99219 0.43006
vt 0.66406 0.43006
vt 0.99219 0.43006
vt 0.66406 0.43006
vt 0.99219 0.43006
vt 0.66406 0.43006
vt 0.66406 0.43006
vt 0.99219 0.43006
vt 0.66435 0.49743
vt 0.99219 0.43006
vt 0.94006 0.43006
vt 0.99219 0.43006
vt 0.94006 0.43006
vt 0.99219 0.43006
vt 0.66406 0.43006
vt 0.99219 0.43006
vt 0.94006 0.43006
vt 0.90238 0.41406
vt 0.99387 0.41406
vt 0.90246 0.48143
vt 0.99387 0.41406
vt 0.74638 0.41406
vt 0.83787 0.41406
vt 0.74638 0.41406
vt 0.83787 0.41406
vt 0.90238 0.41406
vt 0.99387 0.41406
vt 0.90238 0.41406
vt 0.90238 0.41406
vt 0.99387 0.41406
vt 0.90246 0.48143
vt 0.99387 0.41406
vt 0.74638 0.41406
vt 0.81387 0.41406
vt 0.74638 0.41406
vt 0.81387 0.41406
vt 0.90238 0.41406
vt 0.99387 0.41406
vt 0.74638 0.41406
vt 0.66406 0.43006
vt 0.99219 0.43006
vt 0.66435 0.49743
vt 0.99219 0.43006
vt 0.90806 0.43006
vt 0.99219 0.43006
vt 0.96806 0.43006
vt 0.99219 0.43006
vt 0.66406 0.43006
vt 0.99219 0.43006
vt 0.90806 0.43006
vt 0.83206 0.43006
vt 0.99219 0.43006
vt 0.66435 0.49743
vt 0.99219 0.43006
vt 0.87606 0.43006
vt 0.99219 0.43006
vt 0.87606 0.43006
vt 0.99219 0.43006
vt 0.66406 0.43006
vt 0.99219 0.43006
vt 0.66406 0.43006
vt 0.84806 0.43006
vt 0.99219 0.43006
vt 0.66435 0.49743
vt 0.99219 0.43006
vt 0.66406 0.43006
vt 0.99219 0.43006
vt 0.66406 0.43006
vt 0.99219 0.43006
vt 0.84806 0.43006
vt 0.99219 0.43006
vt 0.66406 0.43006
vt 0.39102 0.19977
vt 0.24611 0.19977
vt 0.19811 0.35183
vt 0.34302 0.35183
vt 0.49782 0.35183
vt 0.54582 0.19977
vt 0.29411 0.07817
vt 0.43902 0.07817
vt 0.59382 0.07817
vt 0.19811 0.40210
vt 0.34302 0.40210
vt 0.49782 0.40210
vt 0.29411 0.00580
vt 0.43902 0.00580
vt 0.59382 0.00580
vt 0.09146 0.35183
vt 0.06167 0.19977
vt 0.01367 0.35183
vt 0.01367 0.40210
vt 0.20535 0.07817
vt 0.10967 0.07817
vt 0.10967 0.00580
vt 0.71890 0.00580
vt 0.62290 0.40210
vt 0.62290 0.35183
vt 0.67090 0.19977
vt 0.71890 0.07817
vt 0.69008 0.35183
vt 0.78776 0.19977
vt 0.73808 0.19977
vt 0.73976 0.35183
vt 0.91965 0.19977
vt 0.62290 0.35183
vt 0.67090 0.19977
vt 0.83565 0.35183
vt 0.78608 0.07817
vt 0.71890 0.07817
vt 0.83576 0.07817
vt 0.93165 0.07817
vt 0.73976 0.40210
vt 0.83565 0.35183
vt 0.83565 0.40210
vt 0.89666 0.35183
vt 0.89666 0.40210
vt 0.83576 0.00580
vt 0.93165 0.00580
vt 0.99266 0.07817
vt 0.99266 0.00580
vt 0.71890 0.00580
vt 0.91965 0.19977
vt 0.83565 0.35183
vt 0.94466 0.19977
vt 0.91965 0.19977
vt 0.93165 0.07817
vt 0.62290 0.40210
vt 0.44023 0.32649
vt 0.33221 0.20333
vt 0.49444 0.20333
vt 0.58132 0.32649
vt 0.61084 0.40097
vt 0.25232 0.07971
vt 0.41088 0.07971
vt 0.47931 0.40097
vt 0.33388 0.00580
vt 0.20170 0.00580
vt 0.57923 0.20333
vt 0.64432 0.20333
vt 0.67925 0.32649
vt 0.74870 0.32649
vt 0.78601 0.20333
vt 0.58132 0.32649
vt 0.49444 0.20333
vt 0.86970 0.32649
vt 0.41088 0.07971
vt 0.57785 0.07971
vt 0.49560 0.07971
vt 0.70274 0.07971
vt 0.78746 0.40097
vt 0.86970 0.32649
vt 0.93657 0.40097
vt 0.89847 0.32649
vt 0.98235 0.40097
vt 0.61084 0.40097
vt 0.51289 0.00580
vt 0.66243 0.00580
vt 0.76164 0.07971
vt 0.70891 0.00580
vt 0.33388 0.00580
vt 0.86970 0.32649
vt 0.78601 0.20333
vt 0.83071 0.20333
vt 0.78601 0.20333
vt 0.70274 0.07971
vt 0.14099 0.20333
vt 0.33221 0.20333
vt 0.34514 0.32649
vt 0.23129 0.32649
vt 0.44023 0.32649
vt 0.47931 0.40097
vt 0.15830 0.07971
vt 0.06901 0.07971
vt 0.01793 0.00580
vt 0.25232 0.07971
vt 0.29962 0.40097
vt 0.20170 0.00580
vt 0.92429 0.41406
vt 0.99596 0.41406
vt 0.92436 0.48143
vt 0.99596 0.41406
vt 0.92429 0.41406
vt 0.99596 0.41406
vt 0.92429 0.41406
vt 0.99596 0.41406
vt 0.92429 0.41406
vt 0.99596 0.41406
vt 0.92429 0.41406
vt 0.92180 0.41406
vt 0.99845 0.41406
vt 0.92187 0.48143
vt 0.99845 0.41406
vt 0.92180 0.41406
vt 0.99845 0.41406
vt 0.92180 0.41406
vt 0.99845 0.41406
vt 0.92180 0.41406
vt 0.99845 0.41406
vt 0.92180 0.41406
vt 0.66406 0.43006
vt 0.99219 0.43006
vt 0.66435 0.49743
vt 0.99219 0.43006
vt 0.66406 0.43006
vt 0.99219 0.43006
vt 0.66406 0.43006
vt 0.99219 0.43006
vt 0.66406 0.43006
vt 0.99219 0.43006
vt 0.66406 0.43006
vt 0.92180 0.41406
vt 0.99845 0.41406
vt 0.92187 0.48143
vt 0.99845 0.41406
vt 0.92180 0.41406
vt 0.99845 0.41406
vt 0.92180 0.41406
vt 0.99845 0.41406
vt 0.92180 0.41406
vt 0.99845 0.41406
vt 0.92180 0.41406
vt 0.66406 0.43006
vt 0.99219 0.43006
vt 0.66435 0.49743
vt 0.99219 0.43006
vt 0.66406 0.43006
vt 0.99219 0.43006
vt 0.66406 0.43006
vt 0.99219 0.43006
vt 0.92180 0.41406
vt 0.99845 0.41406
vt 0.92187 0.48143
vt 0.99845 0.41406
vt 0.92180 0.41406
vt 0.99845 0.41406
vt 0.92180 0.41406
vt 0.99845 0.41406
vt 0.92180 0.41406
vt 0.99845 0.41406
vt 0.92180 0.41406
vt 0.66406 0.43006
vt 0.99219 0.43006
vt 0.66435 0.49743
vt 0.99219 0.43006
vt 0.66406 0.43006
vt 0.99219 0.43006
vt 0.66406 0.43006
vt 0.99219 0.43006
vt 0.66406 0.43006
vt 0.99219 0.43006
vt 0.66406 0.43006
vt 0.66406 0.43006
vt 0.99219 0.43006
vt 0.66435 0.49743
vt 0.99219 0.43006
vt 0.66406 0.43006
vt 0.99219 0.43006
vt 0.66406 0.43006
vt 0.99219 0.43006
vt 0.66406 0.43006
vt 0.99219 0.43006
vt 0.66406 0.43006
vt 0.66435 0.49743
vt 0.99219 0.43006
vt 0.66406 0.43006
vt 0.99219 0.43006
vt 0.66406 0.43006
vt 0.99219 0.43006
vt 0.66406 0.43006
vt 0.99219 0.43006
vt 0.92006 0.43006
vt 0.99219 0.43006
vt 0.92006 0.43006
vt 0.92436 0.48143
vt 0.99596 0.41406
vt 0.92429 0.41406
vt 0.99596 0.41406
vt 0.78029 0.41406
vt 0.99596 0.41406
vt 0.74429 0.41406
vt 0.99596 0.41406
vt 0.92429 0.41406
vt 0.99596 0.41406
vt 0.92429 0.41406
vt 0.92436 0.48143
vt 0.99596 0.41406
vt 0.92429 0.41406
vt 0.99596 0.41406
vt 0.76029 0.41406
vt 0.99596 0.41406
vt 0.76029 0.41406
vt 0.99596 0.41406
vt 0.92429 0.41406
vt 0.99596 0.41406
vt 0.92429 0.41406
vt 0.66435 0.49743
vt 0.99219 0.43006
vt 0.66406 0.43006
vt 0.99219 0.43006
vt 0.66406 0.43006
vt 0.99219 0.43006
vt 0.66406 0.43006
vt 0.99219 0.43006
vt 0.92006 0.43006
vt 0.99219 0.43006
vt 0.92006 0.43006
vt 0.92436 0.48143
vt 0.99596 0.41406
vt 0.76029 0.41406
vt 0.92429 0.41406
vt 0.99596 0.41406
vt 0.92429 0.41406
vt 0.99596 0.41406
vt 0.66435 0.49743
vt 0.99219 0.43006
vt 0.66406 0.43006
vt 0.99219 0.43006
vt 0.66406 0.43006
vt 0.99219 0.43006
vt 0.66406 0.43006
vt 0.99219 0.43006
vt 0.92006 0.43006
vt 0.99219 0.43006
vt 0.92006 0.43006
vt 0.66435 0.49743
vt 0.99219 0.43006
vt 0.66406 0.43006
vt 0.99219 0.43006
vt 0.66406 0.43006
vt 0.99219 0.43006
vt 0.66406 0.43006
vt 0.99219 0.43006
vt 0.92006 0.43006
vt 0.99219 0.43006
vt 0.92006 0.43006
vt 0.92436 0.48143
vt 0.99596 0.41406
vt 0.92429 0.41406
vt 0.99596 0.41406
vt 0.78029 0.41406
vt 0.99596 0.41406
vt 0.92429 0.41406
vt 0.99596 0.41406
vt 0.92429 0.41406
vt 0.99596 0.41406
vt 0.92429 0.41406
vt 0.66435 0.49743
vt 0.99219 0.43006
vt 0.66406 0.43006
vt 0.99219 0.43006
vt 0.66406 0.43006
vt 0.99219 0.43006
vt 0.66406 0.43006
vt 0.99219 0.43006
vt 0.92006 0.43006
vt 0.99219 0.43006
vt 0.92006 0.43006
vt 0.66406 0.43006
vt 0.99219 0.43006
vt 0.66435 0.49743
vt 0.99219 0.43006
vt 0.66406 0.43006
vt 0.99219 0.43006
vt 0.66406 0.43006
vt 0.99219 0.43006
vt 0.66406 0.43006
vt 0.99219 0.43006
vt 0.66406 0.43006
vt 0.92429 0.41406
vt 0.99596 0.41406
vt 0.92436 0.48143
vt 0.99596 0.41406
vt 0.92429 0.41406
vt 0.99596 0.41406
vt 0.92429 0.41406
vt 0.99596 0.41406
vt 0.92429 0.41406
vt 0.92429 0.41406
vt 0.99596 0.41406
vt 0.92429 0.41406
vt 0.99596 0.41406
vt 0.92436 0.48143
vt 0.99596 0.41406
vt 0.92429 0.41406
vt 0.99596 0.41406
vt 0.92429 0.41406
vt 0.99596 0.41406
vt 0.92429 0.41406
vt 0.99596 0.41406
vt 0.92429 0.41406
vt 0.66406 0.43006
vt 0.99219 0.43006
vt 0.66435 0.49743
vt 0.99219 0.43006
vt 0.66406 0.43006
vt 0.99219 0.43006
vt 0.66406 0.43006
vt 0.99219 0.43006
vt 0.92429 0.41406
vt 0.99596 0.41406
vt 0.92436 0.48143
vt 0.92429 0.41406
vt 0.99596 0.41406
vt 0.92429 0.41406
vt 0.99596 0.41406
vt 0.66406 0.43006
vt 0.99219 0.43006
vt 0.66435 0.49743
vt 0.99219 0.43006
vt 0.66406 0.43006
vt 0.99219 0.43006
vt 0.66406 0.43006
vt 0.99219 0.43006
vt 0.66406 0.43006
vt 0.99219 0.43006
vt 0.66406 0.43006
vt 0.66406 0.43006
vt 0.99219 0.43006
vt 0.66435 0.49743
vt 0.99219 0.43006
vt 0.66406 0.43006
vt 0.99219 0.43006
vt 0.66406 0.43006
vt 0.99219 0.43006
vt 0.66406 0.43006
vt 0.99219 0.43006
vt 0.66406 0.43006
vt 0.92436 0.48143
vt 0.92429 0.41406
vt 0.99596 0.41406
vt 0.99596 0.41406
vt 0.92429 0.41406
vt 0.99596 0.41406
usemtl m0
f 1/1 2/2 3/3
f 4/4 1/1 3/3
f 4/4 5/5 1/1
f 6/6 1/1 5/5
f 7/7 8/8 4/4
f 9/9 7/7 4/4
f 9/9 10/10 7/7
f 8/8 7/7 11/11
f 12/12 13/13 14/14
f 15/15 14/14 13/13
f 16/16 12/12 14/14
f 17/17 15/15 13/13
f 18/18 13/13 12/12
f 13/13 18/18 19/19
f 13/13 19/19 17/17
f 18/18 12/12 20/20
f 16/16 21/21 12/12
f 12/12 21/21 22/22
f 23/23 22/22 21/21
f 24/24 22/22 23/23
f 22/22 25/25 12/12
f 12/12 25/25 20/20
f 25/25 22/22 26/26
f 26/26 22/22 24/24
f 27/27 28/28 29/29
f 29/29 28/28 30/30
f 31/31 30/30 28/28
f 32/32 30/30 31/31
f 33/33 30/30 32/32
f 34/34 33/33 32/32
f 35/35 34/34 32/32
f 34/34 35/35 36/36
f 35/35 37/37 36/36
f 35/35 38/38 37/37
f 36/36 37/37 39/39
f 40/40 41/41 42/42
f 41/41 43/43 42/42
f 42/42 43/43 44/44
f 45/45 40/40 42/42
f 45/45 46/46 40/40
f 47/47 41/41 40/40
f 48/48 47/47 40/40
f 40/40 46/46 49/49
f 40/40 49/49 50/50
f 40/40 50/50 48/48
f 44/44 43/43 51/51
f 44/44 51/51 52/52
f 52/52 51/51 53/53
f 52/52 53/53 54/54
f 55/55 54/54 53/53
f 56/56 57/57 58/58
f 59/59 56/56 58/58
f 60/60 59/59 58/58
f 60/60 58/58 61/61
f 61/61 58/58 62/62
f 58/58 63/63 62/62
f 57/57 64/64 58/58
f 58/58 64/64 65/65
f 58/58 66/66 63/63
f 65/65 66/66 58/58
f 67/67 68/68 69/69
f 70/70 67/67 69/69
f 71/71 70/70 69/69
f 71/71 69/69 72/72
f 72/72 69/69 73/73
f 69/69 74/74 73/73
f 68/68 75/75 69/69
f 69/69 75/75 76/76
f 69/69 77/77 74/74
f 76/76 77/77 69/69
f 78/78 79/79 80/80
f 81/81 78/78 80/80
f 82/82 81/81 80/80
f 82/82 80/80 83/83
f 83/83 80/80 84/84
f 80/80 85/85 84/84
f 79/79 86/86 80/80
f 80/80 86/86 87/87
f 80/80 88/88 85/85
f 87/87 88/88 80/80
f 89/89 90/90 91/91
f 92/92 89/89 91/91
f 93/93 92/92 91/91
f 93/93 91/91 94/94
f 94/94 91/91 95/95
f 91/91 96/96 95/95
f 90/90 97/97 91/91
f 91/91 97/97 98/98
f 91/91 99/99 96/96
f 98/98 99/99 91/91
f 100/100 101/101 102/102
f 103/103 100/100 102/102
f 104/104 103/103 102/102
f 104/104 102/102 105/105
f 105/105 102/102 106/106
f 102/102 107/107 106/106
f 101/101 108/108 102/102
f 102/102 108/108 109/109
f 102/102 110/110 107/107
f 109/109 110/110 102/102
f 111/111 112/112 113/113
f 114/114 111/111 113/113
f 115/115 114/114 113/113
f 115/115 113/113 116/116
f 116/116 113/113 117/117
f 113/113 118/118 117/117
f 112/112 119/119 113/113
f 113/113 119/119 120/120
f 113/113 121/121 118/118
f 120/120 121/121 113/113
f 122/122 123/123 124/124
f 125/125 122/122 124/124
f 126/126 125/125 124/124
f 126/126 124/124 127/127
f 127/127 124/124 128/128
f 124/124 129/129 128/128
f 123/123 130/130 124/124
f 124/124 130/130 131/131
f 124/124 132/132 129/129
f 131/131 132/132 124/124
f 133/133 134/134 135/135
f 136/136 133/133 135/135
f 137/137 136/136 135/135
f 137/137 135/135 138/138
f 138/138 135/135 139/139
f 135/135 140/140 139/139
f 134/134 141/141 135/135
f 135/135 141/141 142/142
f 135/135 143/143 140/140
f 142/142 143/143 135/135
f 144/144 145/145 146/146
f 147/147 144/144 146/146
f 148/148 147/147 146/146
f 148/148 146/146 149/149
f 149/149 146/146 150/150
f 146/146 151/151 150/150
f 145/145 152/152 146/146
f 146/146 152/152 153/153
f 146/146 154/154 151/151
f 153/153 154/154 146/146
f 155/155 156/156 157/157
f 158/158 155/155 157/157
f 159/159 158/158 157/157
f 159/159 157/157 160/160
f 160/160 157/157 161/161
f 157/157 162/162 161/161
f 156/156 163/163 157/157
f 157/157 163/163 164/164
f 157/157 165/165 162/162
f 164/164 165/165 157/157
f 166/166 167/167 168/168
f 169/169 166/166 168/168
f 170/170 169/169 168/168
f 170/170 168/168 171/171
f 171/171 168/168 172/172
f 168/168 173/173 172/172
f 167/167 174/174 168/168
f 168/168 174/174 175/175
f 168/168 176/176 173/173
f 175/175 176/176 168/168
f 177/177 178/178 179/179
f 180/180 177/177 179/179
f 181/181 180/180 179/179
f 181/181 179/179 182/182
f 182/182 179/179 183/183
f 179/179 184/184 183/183
f 178/178 185/185 179/179
f 179/179 185/185 186/186
f 179/179 187/187 184/184
f 186/186 187/187 179/179
f 188/188 189/189 190/190
f 191/191 188/188 190/190
f 192/192 191/191 190/190
f 192/192 190/190 193/193
f 193/193 190/190 194/194
f 190/190 195/195 194/194
f 189/189 196/196 190/190
f 190/190 196/196 197/197
f 190/190 198/198 195/195
f 197/197 198/198 190/190
f 199/199 200/200 201/201
f 202/202 199/199 201/201
f 203/203 202/202 201/201
f 203/203 201/201 204/204
f 204/204 201/201 205/205
f 201/201 206/206 205/205
f 200/200 207/207 201/201
f 201/201 207/207 208/208
f 201/201 209/209 206/206
f 208/208 209/209 201/201
f 210/210 211/211 212/212
f 213/213 210/210 212/212
f 214/214 213/213 212/212
f 214/214 212/212 215/215
f 215/215 212/212 216/216
f 212/212 217/217 216/216
f 211/211 218/218 212/212
f 212/212 218/218 219/219
f 212/212 220/220 217/217
f 219/219 220/220 212/212
f 221/221 222/222 223/223
f 224/224 221/221 223/223
f 225/225 224/224 223/223
f 225/225 223/223 226/226
f 226/226 223/223 227/227
f 223/223 228/228 227/227
f 222/222 229/229 223/223
f 223/223 229/229 230/230
f 223/223 231/231 228/228
f 230/230 231/231 223/223
f 232/232 233/233 234/234
f 232/232 234/234 235/235
f 236/236 232/232 235/235
f 237/237 232/232 236/236
f 238/238 233/233 232/232
f 239/239 238/238 232/232
f 240/240 232/232 237/237
f 239/239 232/232 240/240
f 234/234 241/241 235/235
f 241/241 242/242 235/235
f 235/235 242/242 236/236
f 242/242 243/243 236/236
f 238/238 239/239 244/244
f 239/239 245/245 244/244
f 239/239 240/240 245/245
f 240/240 246/246 245/245
f 247/247 241/241 234/234
f 234/234 233/233 247/247
f 247/247 233/233 248/248
f 247/247 248/248 249/249
f 249/249 250/250 247/247
f 250/250 241/241 247/247
f 238/238 244/244 251/251
f 251/251 252/252 248/248
f 253/253 252/252 251/251
f 244/244 253/253 251/251
f 251/251 233/233 238/238
f 248/248 233/233 251/251
f 240/240 254/254 246/246
f 243/243 255/255 236/236
f 236/236 255/255 256/256
f 256/256 257/257 236/236
f 257/257 237/237 236/236
f 240/240 237/237 257/257
f 240/240 257/257 258/258
f 258/258 254/254 240/240
f 259/259 260/260 261/261
f 262/262 260/260 259/259
f 263/263 260/260 262/262
f 259/259 261/261 264/264
f 261/261 265/265 264/264
f 266/266 263/263 262/262
f 261/261 260/260 267/267
f 268/268 265/265 261/261
f 268/268 261/261 267/267
f 269/269 260/260 263/263
f 267/267 260/260 269/269
f 269/269 263/263 270/270
f 259/259 271/271 262/262
f 262/262 271/271 272/272
f 273/273 272/272 271/271
f 273/273 274/274 272/272
f 273/273 275/275 274/274
f 269/269 276/276 267/267
f 270/270 276/276 269/269
f 276/276 270/270 277/277
f 270/270 278/278 277/277
f 278/278 279/279 277/277
f 276/276 280/280 267/267
f 267/267 280/280 268/268
f 281/281 282/282 274/274
f 283/283 281/281 274/274
f 278/278 284/284 283/283
f 278/278 285/285 284/284
f 259/259 286/286 271/271
f 264/264 286/286 259/259
f 287/287 288/288 289/289
f 287/287 289/289 290/290
f 290/290 291/291 287/287
f 289/289 288/288 292/292
f 293/293 289/289 292/292
f 287/287 291/291 294/294
f 292/292 295/295 293/293
f 296/296 295/295 292/292
f 297/297 298/298 299/299
f 299/299 298/298 300/300
f 300/300 298/298 301/301
f 302/302 297/297 299/299
f 302/302 303/303 297/297
f 300/300 301/301 304/304
f 297/297 303/303 305/305
f 301/301 298/298 306/306
f 298/298 297/297 306/306
f 307/307 297/297 305/305
f 306/306 297/297 307/307
f 308/308 301/301 306/306
f 300/300 309/309 299/299
f 310/310 309/309 300/300
f 309/309 310/310 311/311
f 310/310 312/312 311/311
f 312/312 313/313 311/311
f 309/309 314/314 299/299
f 299/299 314/314 302/302
f 307/307 315/315 306/306
f 306/306 315/315 308/308
f 316/316 308/308 315/315
f 316/316 317/317 308/308
f 316/316 318/318 317/317
f 305/305 319/319 307/307
f 307/307 319/319 315/315
f 312/312 320/320 321/321
f 312/312 321/321 322/322
f 322/322 323/323 317/317
f 323/323 324/324 317/317
f 325/325 326/326 327/327
f 328/328 325/325 327/327
f 327/327 326/326 329/329
f 329/329 330/330 327/327
f 331/331 326/326 325/325
f 325/325 332/332 331/331
f 331/331 332/332 333/333
f 334/334 326/326 331/331
f 327/327 335/335 328/328
f 327/327 330/330 335/335
f 331/331 333/333 336/336
f 331/331 336/336 334/334
f 337/337 338/338 339/339
f 340/340 337/337 339/339
f 341/341 340/340 339/339
f 341/341 339/339 342/342
f 342/342 339/339 343/343
f 339/339 344/344 343/343
f 338/338 345/345 339/339
f 339/339 345/345 346/346
f 339/339 347/347 344/344
f 346/346 347/347 339/339
f 348/348 349/349 350/350
f 351/351 348/348 350/350
f 352/352 351/351 350/350
f 352/352 350/350 353/353
f 353/353 350/350 354/354
f 350/350 355/355 354/354
f 349/349 356/356 350/350
f 350/350 356/356 357/357
f 350/350 358/358 355/355
f 357/357 358/358 350/350
f 359/359 360/360 361/361
f 362/362 359/359 361/361
f 363/363 362/362 361/361
f 363/363 361/361 364/364
f 364/364 361/361 365/365
f 361/361 366/366 365/365
f 360/360 367/367 361/361
f 361/361 367/367 368/368
f 361/361 369/369 366/366
f 368/368 369/369 361/361
f 370/370 371/371 372/372
f 373/373 370/370 372/372
f 374/374 373/373 372/372
f 374/374 372/372 375/375
f 375/375 372/372 376/376
f 372/372 377/377 376/376
f 371/371 378/378 372/372
f 372/372 378/378 379/379
f 372/372 380/380 377/377
f 379/379 380/380 372/372
f 381/381 382/382 383/383
f 384/384 381/381 383/383
f 385/385 384/384 383/383
f 385/385 383/383 386/386
f 386/386 383/383 387/387
f 383/383 388/388 387/387
f 389/389 390/390 391/391
f 392/392 389/389 391/391
f 393/393 392/392 391/391
f 393/393 391/391 394/394
f 394/394 391/391 395/395
f 391/391 396/396 395/395
f 390/390 397/397 391/391
f 391/391 397/397 398/398
f 391/391 399/399 396/396
f 398/398 399/399 391/391
f 400/400 401/401 402/402
f 403/403 400/400 402/402
f 404/404 403/403 402/402
f 404/404 402/402 405/405
f 405/405 402/402 406/406
f 402/402 407/407 406/406
f 401/401 408/408 402/402
f 402/402 408/408 409/409
f 402/402 410/410 407/407
f 409/409 410/410 402/402
f 411/411 412/412 413/413
f 414/414 411/411 413/413
f 415/415 414/414 413/413
f 415/415 413/413 416/416
f 416/416 413/413 417/417
f 413/413 418/418 417/417
f 412/412 419/419 413/413
f 413/413 419/419 420/420
f 413/413 421/421 418/418
f 420/420 421/421 413/413
f 422/422 423/423 424/424
f 422/422 424/424 425/425
f 422/422 425/425 426/426
f 427/427 422/422 426/426
f 428/428 422/422 427/427
f 428/428 429/429 422/422
f 422/422 430/430 423/423
f 431/431 430/430 422/422
f 429/429 432/432 422/422
f 422/422 432/432 431/431
f 433/433 434/434 435/435
f 433/433 435/435 436/436
f 433/433 436/436 437/437
f 438/438 433/433 437/437
f 439/439 433/433 438/438
f 439/439 440/440 433/433
f 433/433 441/441 434/434
f 442/442 441/441 433/433
f 440/440 443/443 433/433
f 433/433 443/443 442/442
f 444/444 445/445 446/446
f 444/444 446/446 447/447
f 444/444 447/447 448/448
f 449/449 444/444 448/448
f 450/450 444/444 449/449
f 450/450 451/451 444/444
f 444/444 452/452 445/445
f 453/453 452/452 444/444
f 451/451 454/454 444/444
f 444/444 454/454 453/453
f 455/455 456/456 457/457
f 455/455 457/457 458/458
f 455/455 458/458 459/459
f 460/460 455/455 459/459
f 461/461 455/455 460/460
f 461/461 462/462 455/455
f 455/455 463/463 456/456
f 464/464 463/463 455/455
f 462/462 465/465 455/455
f 455/455 465/465 464/464
f 466/466 467/467 468/468
f 466/466 469/469 467/467
f 470/470 469/469 466/466
f 466/466 471/471 470/470
f 472/472 471/471 466/466
f 473/473 474/474 475/475
f 473/473 475/475 476/476
f 473/473 476/476 477/477
f 478/478 473/473 477/477
f 479/479 473/473 478/478
f 479/479 480/480 473/473
f 473/473 481/481 474/474
f 482/482 481/481 473/473
f 480/480 483/483 473/473
f 473/473 483/483 482/482
f 484/484 485/485 486/486
f 484/484 486/486 487/487
f 484/484 487/487 488/488
f 489/489 484/484 488/488
f 490/490 484/484 489/489
f 490/490 491/491 484/484
f 484/484 492/492 485/485
f 493/493 492/492 484/484
f 491/491 494/494 484/484
f 484/484 494/494 493/493
f 495/495 496/496 497/497
f 495/495 497/497 498/498
f 495/495 498/498 499/499
f 500/500 495/495 499/499
f 501/501 495/495 500/500
f 501/501 502/502 495/495
f 495/495 503/503 496/496
f 504/504 503/503 495/495
f 502/502 505/505 495/495
f 495/495 505/505 504/504
f 506/506 507/507 508/508
f 506/506 508/508 509/509
f 506/506 509/509 510/510
f 511/511 506/506 510/510
f 512/512 506/506 511/511
f 512/512 513/513 506/506
f 506/506 514/514 507/507
f 515/515 514/514 506/506
f 513/513 516/516 506/506
f 506/506 516/516 515/515
f 517/517 518/518 519/519
f 520/520 517/517 519/519
f 521/521 520/520 519/519
f 521/521 519/519 522/522
f 522/522 519/519 523/523
f 519/519 524/524 523/523
f 518/518 525/525 519/519
f 519/519 525/525 526/526
f 519/519 527/527 524/524
f 526/526 527/527 519/519
f 528/528 529/529 530/530
f 531/531 528/528 530/530
f 532/532 531/531 530/530
f 532/532 530/530 533/533
f 533/533 530/530 534/534
f 530/530 535/535 534/534
f 530/530 536/536 535/535
f 529/529 537/537 530/530
f 530/530 537/537 538/538
f 538/538 536/536 530/530
f 539/539 540/540 541/541
f 542/542 539/539 541/541
f 543/543 542/542 541/541
f 543/543 541/541 544/544
f 544/544 541/541 545/545
f 541/541 546/546 545/545
f 540/540 547/547 541/541
f 541/541 547/547 548/548
f 541/541 549/549 546/546
f 548/548 549/549 541/541
f 550/550 551/551 552/552
f 553/553 550/550 552/552
f 554/554 553/553 552/552
f 554/554 552/552 555/555
f 555/555 552/552 556/556
f 552/552 557/557 556/556
f 558/558 559/559 560/560
f 559/559 561/561 560/560
f 560/560 561/561 562/562
f 562/562 563/563 560/560
f 560/560 563/563 564/564
f 565/565 566/566 567/567
f 568/568 565/565 567/567
f 569/569 568/568 567/567
f 569/569 567/567 570/570
f 570/570 567/567 571/571
f 567/567 572/572 571/571
f 566/566 573/573 567/567
f 567/567 573/573 574/574
f 567/567 575/575 572/572
f 574/574 575/575 567/567
f 576/576 577/577 578/578
f 579/579 576/576 578/578
f 580/580 579/579 578/578
f 580/580 578/578 581/581
f 581/581 578/578 582/582
f 578/578 583/583 582/582
f 577/577 584/584 578/578
f 578/578 584/584 585/585
f 578/578 586/586 583/583
f 585/585 586/586 578/578
f 587/587 588/588 589/589
f 590/590 588/588 587/587
f 587/587 591/591 590/590
f 592/592 591/591 587/587
