mtllib acce889.mtl
o acce889
v 0.17008 -0.16713 2.79682 0.000 0.000 0.000
v 0.18382 -0.18664 2.82722 0.000 0.000 0.000
v 0.15583 -0.20288 2.80561 0.000 0.000 0.000
v 0.15552 -0.20628 2.84494 0.000 0.000 0.000
v 0.16951 -0.17278 2.86043 0.000 0.000 0.000
v 0.17858 -0.14843 2.83072 0.000 0.000 0.000
v 0.17008 -0.16713 2.79682 0.000 0.000 0.000
v 0.15583 -0.20288 2.80561 0.000 0.000 0.000
v 0.17966 -0.18871 2.78411 0.000 0.000 0.000
v 0.16648 -0.22181 2.79279 0.000 0.000 0.000
v 0.16659 -0.22333 2.81907 0.000 0.000 0.000
v 0.15552 -0.20628 2.84494 0.000 0.000 0.000
v 0.17008 -0.16713 2.79682 0.000 0.000 0.000
v 0.19735 -0.15077 2.79403 0.000 0.000 0.000
v 0.17858 -0.14843 2.83072 0.000 0.000 0.000
v 0.20502 -0.13874 2.82924 0.000 0.000 0.000
v 0.20452 -0.14585 2.84929 0.000 0.000 0.000
v 0.16951 -0.17278 2.86043 0.000 0.000 0.000
v 0.18954 -0.17894 2.86762 0.000 0.000 0.000
v 0.18320 -0.20408 2.87073 0.000 0.000 0.000
v 0.15552 -0.20628 2.84494 0.000 0.000 0.000
v 0.16646 -0.21875 2.85215 0.000 0.000 0.000
v 0.16951 -0.17278 2.86043 0.000 0.000 0.000
v 0.12937 -0.19233 2.80813 0.000 0.000 0.000
v 0.15026 -0.20655 2.79644 0.000 0.000 0.000
v 0.14294 -0.15831 2.80073 0.000 0.000 0.000
v 0.16780 -0.16259 2.78687 0.000 0.000 0.000
v 0.17773 -0.13829 2.83043 0.000 0.000 0.000
v 0.15062 -0.13948 2.83444 0.000 0.000 0.000
v 0.16826 -0.21222 2.77924 0.000 0.000 0.000
v 0.18119 -0.17912 2.76138 0.000 0.000 0.000
v 0.20178 -0.13133 2.80661 0.000 0.000 0.000
v 0.19827 -0.13808 2.77790 0.000 0.000 0.000
v 0.13023 -0.16708 2.83403 0.000 0.000 0.000
v 0.13181 -0.19678 2.84656 0.000 0.000 0.000
v 0.15341 -0.21229 2.84607 0.000 0.000 0.000
v 0.12937 -0.19233 2.80813 0.000 0.000 0.000
v 0.15026 -0.20655 2.79644 0.000 0.000 0.000
v 0.17066 -0.17100 2.86519 0.000 0.000 0.000
v 0.14517 -0.16481 2.86135 0.000 0.000 0.000
v 0.15854 -0.23504 2.80102 0.000 0.000 0.000
v 0.15899 -0.24745 2.84996 0.000 0.000 0.000
v 0.17831 -0.20207 2.88427 0.000 0.000 0.000
v 0.13023 -0.16708 2.83403 0.000 0.000 0.000
v 0.14517 -0.16481 2.86135 0.000 0.000 0.000
v 0.15062 -0.13948 2.83444 0.000 0.000 0.000
v 0.17066 -0.17100 2.86519 0.000 0.000 0.000
v 0.17773 -0.13829 2.83043 0.000 0.000 0.000
v 0.20628 -0.14306 2.87658 0.000 0.000 0.000
v 0.19332 -0.17757 2.88171 0.000 0.000 0.000
v 0.21368 -0.12208 2.83414 0.000 0.000 0.000
v 0.13023 -0.16708 2.83403 0.000 0.000 0.000
v 0.15341 -0.21229 2.84607 0.000 0.000 0.000
v 0.16925 -0.22019 2.89793 0.000 0.000 0.000
v 0.15300 -0.25465 2.87294 0.000 0.000 0.000
v 0.17066 -0.17100 2.86519 0.000 0.000 0.000
v 0.18488 -0.18524 2.90495 0.000 0.000 0.000
v 0.14915 -0.24833 2.83345 0.000 0.000 0.000
v 0.18252 -0.14720 2.87534 0.000 0.000 0.000
v 0.17773 -0.13829 2.83043 0.000 0.000 0.000
v 0.17066 -0.17100 2.86519 0.000 0.000 0.000
v 0.20637 -0.12672 2.88378 0.000 0.000 0.000
v 0.19427 -0.16297 2.89073 0.000 0.000 0.000
v 0.17773 -0.13829 2.83043 0.000 0.000 0.000
v 0.21281 -0.10240 2.82519 0.000 0.000 0.000
v 0.19969 -0.12119 2.77808 0.000 0.000 0.000
v 0.16780 -0.16259 2.78687 0.000 0.000 0.000
v 0.17836 -0.15284 2.74923 0.000 0.000 0.000
v 0.15026 -0.20655 2.79644 0.000 0.000 0.000
v 0.16670 -0.20524 2.74558 0.000 0.000 0.000
v 0.15026 -0.20655 2.79644 0.000 0.000 0.000
v 0.15511 -0.25015 2.77297 0.000 0.000 0.000
v 0.16780 -0.16259 2.78687 0.000 0.000 0.000
v 0.17721 -0.16702 2.75204 0.000 0.000 0.000
v 0.14161 -0.26269 2.82708 0.000 0.000 0.000
v 0.15341 -0.21229 2.84607 0.000 0.000 0.000
v 0.15291 -0.24145 2.86679 0.000 0.000 0.000
v 0.16780 -0.16259 2.78687 0.000 0.000 0.000
v 0.15026 -0.20655 2.79644 0.000 0.000 0.000
v 0.16529 -0.17732 2.82658 0.000 0.000 0.000
v 0.15341 -0.21229 2.84607 0.000 0.000 0.000
v 0.17066 -0.17100 2.86519 0.000 0.000 0.000
v 0.17773 -0.13829 2.83043 0.000 0.000 0.000
v -0.10424 -0.61801 2.84958 0.000 0.000 0.000
v -0.06574 -0.50782 2.83185 0.000 0.000 0.000
v -0.05908 -0.51098 2.81657 0.000 0.000 0.000
v -0.03764 -0.44132 2.83378 0.000 0.000 0.000
v -0.03413 -0.44545 2.80438 0.000 0.000 0.000
v -0.01015 -0.37451 2.81232 0.000 0.000 0.000
v -0.01433 -0.37726 2.83725 0.000 0.000 0.000
v 0.02444 -0.30625 2.81668 0.000 0.000 0.000
v 0.01228 -0.31140 2.84630 0.000 0.000 0.000
v 0.04271 -0.24340 2.81878 0.000 0.000 0.000
v 0.03314 -0.25045 2.84648 0.000 0.000 0.000
v 0.06514 -0.20407 2.81599 0.000 0.000 0.000
v 0.06322 -0.19989 2.84045 0.000 0.000 0.000
v 0.11594 -0.16295 2.81853 0.000 0.000 0.000
v 0.07501 -0.20885 2.80510 0.000 0.000 0.000
v 0.06563 -0.25844 2.79135 0.000 0.000 0.000
v 0.04408 -0.31869 2.79157 0.000 0.000 0.000
v 0.00466 -0.38653 2.79754 0.000 0.000 0.000
v -0.00682 -0.39139 2.86715 0.000 0.000 0.000
v -0.03037 -0.46010 2.85196 0.000 0.000 0.000
v -0.06129 -0.51473 2.84818 0.000 0.000 0.000
v 0.04673 -0.27797 2.89994 0.000 0.000 0.000
v 0.02898 -0.35131 2.89087 0.000 0.000 0.000
v 0.06995 -0.22955 2.88668 0.000 0.000 0.000
v -0.04003 -0.52033 2.82870 0.000 0.000 0.000
v -0.04286 -0.51867 2.81205 0.000 0.000 0.000
v -0.00869 -0.46541 2.83527 0.000 0.000 0.000
v 0.00079 -0.46561 2.80454 0.000 0.000 0.000
v 0.04658 -0.40806 2.81144 0.000 0.000 0.000
v 0.03893 -0.40023 2.84126 0.000 0.000 0.000
v 0.10247 -0.35775 2.82560 0.000 0.000 0.000
v 0.08114 -0.34942 2.85604 0.000 0.000 0.000
v 0.12793 -0.29304 2.83160 0.000 0.000 0.000
v 0.10057 -0.28732 2.86501 0.000 0.000 0.000
v 0.12402 -0.22730 2.83147 0.000 0.000 0.000
v 0.11113 -0.22228 2.84834 0.000 0.000 0.000
v 0.10908 -0.22478 2.80890 0.000 0.000 0.000
v 0.10325 -0.28112 2.80838 0.000 0.000 0.000
v 0.07774 -0.34355 2.80368 0.000 0.000 0.000
v 0.02723 -0.40156 2.79767 0.000 0.000 0.000
v -0.05908 -0.51098 2.81657 0.000 0.000 0.000
v -0.06212 -0.51826 2.79914 0.000 0.000 0.000
v -0.10424 -0.61801 2.84958 0.000 0.000 0.000
v -0.03413 -0.44545 2.80438 0.000 0.000 0.000
v -0.03245 -0.45216 2.76061 0.000 0.000 0.000
v -0.00182 -0.37708 2.77612 0.000 0.000 0.000
v 0.00976 -0.37827 2.73247 0.000 0.000 0.000
v 0.04603 -0.30582 2.76138 0.000 0.000 0.000
v 0.06554 -0.30915 2.71892 0.000 0.000 0.000
v 0.08240 -0.23933 2.71872 0.000 0.000 0.000
v 0.06448 -0.23414 2.76127 0.000 0.000 0.000
v 0.08327 -0.19040 2.76131 0.000 0.000 0.000
v 0.07650 -0.19456 2.78989 0.000 0.000 0.000
v 0.11594 -0.16295 2.81853 0.000 0.000 0.000
v 0.00466 -0.38653 2.79754 0.000 0.000 0.000
v 0.04408 -0.31869 2.79157 0.000 0.000 0.000
v 0.06563 -0.25844 2.79135 0.000 0.000 0.000
v 0.07501 -0.20885 2.80510 0.000 0.000 0.000
v 0.14072 -0.21681 2.72948 0.000 0.000 0.000
v 0.12078 -0.27578 2.69339 0.000 0.000 0.000
v 0.10100 -0.33775 2.69392 0.000 0.000 0.000
v 0.03956 -0.41263 2.71436 0.000 0.000 0.000
v -0.01937 -0.47851 2.74511 0.000 0.000 0.000
v -0.05427 -0.53064 2.77843 0.000 0.000 0.000
v 0.14647 -0.23382 2.77510 0.000 0.000 0.000
v 0.13302 -0.22963 2.80256 0.000 0.000 0.000
v 0.14022 -0.29511 2.79148 0.000 0.000 0.000
v 0.14247 -0.29761 2.75033 0.000 0.000 0.000
v 0.11563 -0.35689 2.78771 0.000 0.000 0.000
v 0.11986 -0.35930 2.74721 0.000 0.000 0.000
v 0.06316 -0.42025 2.75695 0.000 0.000 0.000
v 0.05022 -0.41339 2.79391 0.000 0.000 0.000
v 0.01046 -0.47525 2.78091 0.000 0.000 0.000
v 0.00079 -0.46561 2.80454 0.000 0.000 0.000
v -0.04316 -0.52697 2.79796 0.000 0.000 0.000
v -0.04286 -0.51867 2.81205 0.000 0.000 0.000
v 0.02723 -0.40156 2.79767 0.000 0.000 0.000
v 0.07774 -0.34355 2.80368 0.000 0.000 0.000
v 0.10325 -0.28112 2.80838 0.000 0.000 0.000
v 0.10908 -0.22478 2.80890 0.000 0.000 0.000
v 0.17375 -0.03652 3.30790 0.000 0.000 0.000
v 0.16774 -0.07603 3.20515 0.000 0.000 0.000
v 0.16515 -0.09018 3.20935 0.000 0.000 0.000
v 0.17154 -0.08419 3.13555 0.000 0.000 0.000
v 0.15775 -0.11401 3.14233 0.000 0.000 0.000
v 0.16191 -0.11344 3.07168 0.000 0.000 0.000
v 0.16522 -0.08514 3.06693 0.000 0.000 0.000
v 0.13563 -0.10969 3.00544 0.000 0.000 0.000
v 0.14945 -0.07564 2.99912 0.000 0.000 0.000
v 0.12211 -0.11342 2.93589 0.000 0.000 0.000
v 0.14783 -0.08136 2.92860 0.000 0.000 0.000
v 0.11538 -0.13880 2.87977 0.000 0.000 0.000
v 0.14513 -0.10796 2.87048 0.000 0.000 0.000
v 0.11810 -0.16655 2.82492 0.000 0.000 0.000
v 0.11583 -0.16180 2.88617 0.000 0.000 0.000
v 0.12517 -0.15721 2.94786 0.000 0.000 0.000
v 0.13131 -0.14224 3.00967 0.000 0.000 0.000
v 0.16108 -0.13475 3.07697 0.000 0.000 0.000
v 0.20610 -0.06782 3.06382 0.000 0.000 0.000
v 0.20052 -0.07047 3.13047 0.000 0.000 0.000
v 0.18902 -0.05992 3.20027 0.000 0.000 0.000
v 0.18468 -0.05351 2.92172 0.000 0.000 0.000
v 0.19759 -0.05323 2.99700 0.000 0.000 0.000
v 0.17152 -0.09974 2.86571 0.000 0.000 0.000
v 0.19323 -0.07895 3.20135 0.000 0.000 0.000
v 0.18027 -0.08944 3.20508 0.000 0.000 0.000
v 0.21029 -0.09664 3.13150 0.000 0.000 0.000
v 0.19174 -0.11945 3.13967 0.000 0.000 0.000
v 0.19903 -0.13972 3.07071 0.000 0.000 0.000
v 0.21829 -0.11423 3.06216 0.000 0.000 0.000
v 0.19850 -0.15664 3.00420 0.000 0.000 0.000
v 0.21645 -0.11736 2.99338 0.000 0.000 0.000
v 0.18652 -0.17129 2.93405 0.000 0.000 0.000
v 0.20900 -0.12161 2.92325 0.000 0.000 0.000
v 0.15971 -0.16594 2.87631 0.000 0.000 0.000
v 0.17176 -0.13466 2.86695 0.000 0.000 0.000
v 0.13495 -0.17284 2.88518 0.000 0.000 0.000
v 0.14366 -0.16929 2.94917 0.000 0.000 0.000
v 0.15914 -0.16184 3.01482 0.000 0.000 0.000
v 0.17266 -0.13705 3.07534 0.000 0.000 0.000
v 0.16515 -0.09018 3.20935 0.000 0.000 0.000
v 0.15876 -0.10381 3.22081 0.000 0.000 0.000
v 0.17375 -0.03652 3.30790 0.000 0.000 0.000
v 0.15775 -0.11401 3.14233 0.000 0.000 0.000
v 0.14956 -0.13513 3.15299 0.000 0.000 0.000
v 0.13279 -0.13639 3.08128 0.000 0.000 0.000
v 0.11668 -0.16814 3.09528 0.000 0.000 0.000
v 0.09733 -0.15755 3.01165 0.000 0.000 0.000
v 0.07954 -0.19631 3.02103 0.000 0.000 0.000
v 0.06349 -0.20799 2.95517 0.000 0.000 0.000
v 0.07981 -0.16573 2.94959 0.000 0.000 0.000
v 0.07720 -0.19813 2.89289 0.000 0.000 0.000
v 0.09416 -0.17273 2.88765 0.000 0.000 0.000
v 0.11810 -0.16655 2.82492 0.000 0.000 0.000
v 0.16108 -0.13475 3.07697 0.000 0.000 0.000
v 0.13131 -0.14224 3.00967 0.000 0.000 0.000
v 0.12517 -0.15721 2.94786 0.000 0.000 0.000
v 0.11583 -0.16180 2.88617 0.000 0.000 0.000
v 0.08253 -0.21706 2.89735 0.000 0.000 0.000
v 0.07735 -0.24224 2.96446 0.000 0.000 0.000
v 0.09005 -0.23231 3.03241 0.000 0.000 0.000
v 0.12533 -0.20038 3.10604 0.000 0.000 0.000
v 0.14904 -0.16825 3.16654 0.000 0.000 0.000
v 0.16294 -0.11831 3.23179 0.000 0.000 0.000
v 0.14269 -0.22338 2.88799 0.000 0.000 0.000
v 0.14888 -0.19368 2.88232 0.000 0.000 0.000
v 0.14929 -0.20927 2.94151 0.000 0.000 0.000
v 0.13057 -0.23171 2.95342 0.000 0.000 0.000
v 0.15455 -0.18792 3.01316 0.000 0.000 0.000
v 0.13909 -0.21839 3.01691 0.000 0.000 0.000
v 0.16061 -0.19253 3.09299 0.000 0.000 0.000
v 0.16866 -0.15593 3.07847 0.000 0.000 0.000
v 0.17942 -0.14411 3.15063 0.000 0.000 0.000
v 0.19174 -0.11945 3.13967 0.000 0.000 0.000
v 0.17852 -0.10469 3.21453 0.000 0.000 0.000
v 0.18027 -0.08944 3.20508 0.000 0.000 0.000
v 0.17266 -0.13705 3.07534 0.000 0.000 0.000
v 0.15914 -0.16184 3.01482 0.000 0.000 0.000
v 0.14366 -0.16929 2.94917 0.000 0.000 0.000
v 0.13495 -0.17284 2.88518 0.000 0.000 0.000
v 0.06863 -0.19823 2.75153 0.000 0.000 0.000
v 0.10125 -0.19823 2.73298 0.000 0.000 0.000
v 0.09666 -0.18252 2.80337 0.000 0.000 0.000
v 0.13415 -0.18252 2.78203 0.000 0.000 0.000
v 0.12226 -0.14477 2.85566 0.000 0.000 0.000
v 0.16605 -0.14477 2.83073 0.000 0.000 0.000
v 0.14089 -0.07835 2.88839 0.000 0.000 0.000
v 0.18468 -0.07835 2.86344 0.000 0.000 0.000
v 0.14702 0.00000 2.89917 0.000 0.000 0.000
v 0.19082 0.00000 2.87424 0.000 0.000 0.000
v 0.04646 -0.19327 2.69262 0.000 0.000 0.000
v 0.06453 -0.19327 2.68234 0.000 0.000 0.000
v 0.02592 -0.16688 2.63554 0.000 0.000 0.000
v 0.14702 0.00000 2.89917 0.000 0.000 0.000
v 0.19082 0.00000 2.87424 0.000 0.000 0.000
v 0.14089 0.07835 2.88839 0.000 0.000 0.000
v 0.18468 0.07835 2.86344 0.000 0.000 0.000
v 0.12226 0.14477 2.85566 0.000 0.000 0.000
v 0.16605 0.14477 2.83073 0.000 0.000 0.000
v 0.09666 0.18252 2.80337 0.000 0.000 0.000
v 0.13415 0.18252 2.78203 0.000 0.000 0.000
v 0.10125 0.19823 2.73296 0.000 0.000 0.000
v 0.06863 0.19823 2.75153 0.000 0.000 0.000
v 0.04646 0.19327 2.69262 0.000 0.000 0.000
v 0.06453 0.19327 2.68234 0.000 0.000 0.000
v 0.02592 0.16688 2.63554 0.000 0.000 0.000
v 0.02592 -0.16688 2.63554 0.000 0.000 0.000
v 0.05549 -0.15991 2.68749 0.000 0.000 0.000
v 0.06453 -0.19327 2.68234 0.000 0.000 0.000
v 0.07812 -0.15674 2.73028 0.000 0.000 0.000
v 0.10125 -0.19823 2.73298 0.000 0.000 0.000
v 0.10062 -0.14450 2.76809 0.000 0.000 0.000
v 0.13415 -0.18252 2.78203 0.000 0.000 0.000
v 0.12452 -0.11597 2.81358 0.000 0.000 0.000
v 0.16605 -0.14477 2.83073 0.000 0.000 0.000
v 0.18468 -0.07835 2.86344 0.000 0.000 0.000
v 0.13468 -0.06086 2.83738 0.000 0.000 0.000
v 0.15908 0.00000 2.83934 0.000 0.000 0.000
v 0.19082 0.00000 2.87424 0.000 0.000 0.000
v 0.18468 0.07835 2.86344 0.000 0.000 0.000
v 0.13468 0.06086 2.83738 0.000 0.000 0.000
v 0.12452 0.11597 2.81358 0.000 0.000 0.000
v 0.16605 0.14477 2.83073 0.000 0.000 0.000
v 0.13415 0.18252 2.78203 0.000 0.000 0.000
v 0.10062 0.14450 2.76809 0.000 0.000 0.000
v 0.10125 0.19823 2.73296 0.000 0.000 0.000
v 0.07812 0.15674 2.73028 0.000 0.000 0.000
v 0.06453 0.19327 2.68234 0.000 0.000 0.000
v 0.05549 0.15991 2.68749 0.000 0.000 0.000
v 0.02592 0.16688 2.63554 0.000 0.000 0.000
v 0.04646 0.19327 2.69262 0.000 0.000 0.000
v 0.02592 0.16688 2.63554 0.000 0.000 0.000
v 0.06863 0.19823 2.75153 0.000 0.000 0.000
v 0.09666 0.18252 2.80337 0.000 0.000 0.000
v 0.12226 0.14477 2.85566 0.000 0.000 0.000
v 0.14089 0.07835 2.88839 0.000 0.000 0.000
v 0.14702 0.00000 2.89917 0.000 0.000 0.000
v 0.14089 -0.07835 2.88839 0.000 0.000 0.000
v 0.12226 -0.14477 2.85566 0.000 0.000 0.000
v 0.09666 -0.18252 2.80337 0.000 0.000 0.000
v 0.06863 -0.19823 2.75153 0.000 0.000 0.000
v 0.04646 -0.19327 2.69262 0.000 0.000 0.000
v 0.02592 -0.16688 2.63554 0.000 0.000 0.000
vt 0.22356 0.98240
vt 0.22699 0.75977
vt 0.02010 0.83349
vt 0.09885 0.59396
vt 0.35098 0.59484
vt 0.42806 0.83491
vt 0.76109 0.67473
vt 0.63273 0.72811
vt 0.77027 0.87454
vt 0.62677 0.98308
vt 0.50467 0.87667
vt 0.51425 0.66874
vt 0.51612 0.72062
vt 0.50406 0.88263
vt 0.63965 0.73642
vt 0.63095 0.97925
vt 0.77554 0.87272
vt 0.74874 0.69846
vt 0.49879 0.87401
vt 0.63052 0.97114
vt 0.75053 0.71501
vt 0.78139 0.87120
vt 0.50831 0.73836
vt 0.56280 0.61879
vt 0.50384 0.71406
vt 0.64794 0.67815
vt 0.65311 0.76474
vt 0.78600 0.70861
vt 0.71739 0.59655
vt 0.48568 0.83645
vt 0.58289 0.97746
vt 0.82031 0.83673
vt 0.76268 0.95846
vt 0.64277 0.57755
vt 0.63580 0.65505
vt 0.64261 0.77212
vt 0.70620 0.59099
vt 0.76995 0.68230
vt 0.50816 0.68137
vt 0.56081 0.60450
vt 0.81702 0.85876
vt 0.69317 0.99294
vt 0.48809 0.87085
vt 0.62898 0.56695
vt 0.72553 0.63759
vt 0.55658 0.63771
vt 0.76587 0.76208
vt 0.51473 0.72213
vt 0.66346 0.97132
vt 0.78497 0.90334
vt 0.49569 0.90647
vt 0.64922 0.57446
vt 0.68966 0.70378
vt 0.64618 0.97874
vt 0.77782 0.93651
vt 0.56781 0.70745
vt 0.52888 0.95684
vt 0.80356 0.75216
vt 0.45923 0.75870
vt 0.55412 0.57602
vt 0.72103 0.66910
vt 0.79178 0.87843
vt 0.79094 0.71090
vt 0.64985 0.66667
vt 0.65351 0.98478
vt 0.51815 0.93798
vt 0.56676 0.67716
vt 0.45451 0.79242
vt 0.54556 0.57719
vt 0.77828 0.92142
vt 0.62182 0.65713
vt 0.65061 0.98044
vt 0.73821 0.68182
vt 0.81441 0.79895
vt 0.50405 0.92736
vt 0.54720 0.68556
vt 0.47470 0.76692
vt 0.01481 0.82561
vt 0.09043 0.57595
vt 0.23206 0.76867
vt 0.35601 0.58082
vt 0.43040 0.83198
vt 0.22437 0.99020
vt 0.99604 0.00898
vt 0.77827 0.09023
vt 0.77872 0.00898
vt 0.66346 0.11619
vt 0.66346 0.00898
vt 0.53480 0.04621
vt 0.53480 0.15817
vt 0.40018 0.05204
vt 0.40102 0.16996
vt 0.26917 0.05750
vt 0.26845 0.18094
vt 0.14721 0.05004
vt 0.13264 0.11912
vt 0.01276 0.00898
vt 0.14905 0.00898
vt 0.27001 0.00898
vt 0.39920 0.00898
vt 0.53480 0.00898
vt 0.53480 0.28181
vt 0.66346 0.24746
vt 0.77763 0.16822
vt 0.26756 0.28430
vt 0.40201 0.29273
vt 0.11322 0.19816
vt 0.77827 0.09023
vt 0.77872 0.00898
vt 0.66346 0.11619
vt 0.66346 0.00898
vt 0.53480 0.04621
vt 0.53480 0.15817
vt 0.40018 0.05204
vt 0.40102 0.16996
vt 0.26917 0.05750
vt 0.26845 0.18094
vt 0.14721 0.05004
vt 0.13264 0.11912
vt 0.14905 0.00898
vt 0.27001 0.00898
vt 0.39920 0.00898
vt 0.53480 0.00898
vt 0.23009 0.55318
vt 0.23062 0.47193
vt 0.01842 0.55318
vt 0.34535 0.55318
vt 0.34535 0.44598
vt 0.47400 0.51595
vt 0.47400 0.40399
vt 0.60855 0.51013
vt 0.60778 0.39188
vt 0.74037 0.41221
vt 0.73972 0.50334
vt 0.86969 0.45035
vt 0.86122 0.51212
vt 0.99604 0.55318
vt 0.47400 0.55318
vt 0.60960 0.55318
vt 0.73880 0.55318
vt 0.85976 0.55318
vt 0.89078 0.35886
vt 0.75337 0.29762
vt 0.60680 0.29760
vt 0.47400 0.31020
vt 0.34535 0.34574
vt 0.23117 0.39395
vt 0.86969 0.45035
vt 0.86122 0.51212
vt 0.73972 0.50334
vt 0.74037 0.41221
vt 0.60855 0.51013
vt 0.60778 0.39188
vt 0.47400 0.40399
vt 0.47400 0.51595
vt 0.34535 0.44598
vt 0.34535 0.55318
vt 0.23062 0.47193
vt 0.23009 0.55318
vt 0.47400 0.55318
vt 0.60960 0.55318
vt 0.73880 0.55318
vt 0.85976 0.55318
vt 0.01276 0.55318
vt 0.23053 0.47193
vt 0.23009 0.55318
vt 0.34535 0.44598
vt 0.34535 0.55318
vt 0.47400 0.51595
vt 0.47400 0.40399
vt 0.60863 0.51013
vt 0.60779 0.39220
vt 0.73964 0.50334
vt 0.74035 0.41373
vt 0.86160 0.51212
vt 0.86969 0.45035
vt 0.99604 0.55318
vt 0.85976 0.55318
vt 0.73880 0.55318
vt 0.60960 0.55318
vt 0.47400 0.55318
vt 0.47400 0.31020
vt 0.34535 0.34574
vt 0.23117 0.39395
vt 0.75337 0.29762
vt 0.60680 0.29760
vt 0.89078 0.35886
vt 0.23053 0.47193
vt 0.23009 0.55318
vt 0.34535 0.44598
vt 0.34535 0.55318
vt 0.47400 0.51595
vt 0.47400 0.40399
vt 0.60863 0.51013
vt 0.60779 0.39220
vt 0.73964 0.50334
vt 0.74035 0.41373
vt 0.86160 0.51212
vt 0.86969 0.45035
vt 0.85976 0.55318
vt 0.73880 0.55318
vt 0.60960 0.55318
vt 0.47400 0.55318
vt 0.77872 0.00898
vt 0.77819 0.09023
vt 0.99039 0.00898
vt 0.66346 0.00898
vt 0.66346 0.11619
vt 0.53480 0.04621
vt 0.53480 0.15817
vt 0.40026 0.05204
vt 0.40102 0.17028
vt 0.26844 0.18246
vt 0.26909 0.05750
vt 0.13264 0.11912
vt 0.14759 0.05004
vt 0.01276 0.00898
vt 0.53480 0.00898
vt 0.39920 0.00898
vt 0.27001 0.00898
vt 0.14905 0.00898
vt 0.11322 0.19816
vt 0.26756 0.28430
vt 0.40201 0.29273
vt 0.53480 0.28181
vt 0.66346 0.24746
vt 0.77763 0.16822
vt 0.13264 0.11912
vt 0.14759 0.05004
vt 0.26909 0.05750
vt 0.26844 0.18246
vt 0.40026 0.05204
vt 0.40102 0.17028
vt 0.53480 0.15817
vt 0.53480 0.04621
vt 0.66346 0.11619
vt 0.66346 0.00898
vt 0.77819 0.09023
vt 0.77872 0.00898
vt 0.53480 0.00898
vt 0.39920 0.00898
vt 0.27001 0.00898
vt 0.14905 0.00898
vt 0.85183 0.69130
vt 0.99586 0.69130
vt 0.85183 0.76703
vt 0.99586 0.76703
vt 0.85183 0.82937
vt 0.99586 0.82937
vt 0.85183 0.91074
vt 0.99586 0.91074
vt 0.85183 0.99138
vt 0.99586 0.99138
vt 0.85183 0.61432
vt 0.99586 0.61432
vt 0.92384 0.58000
vt 0.85183 0.99036
vt 0.99586 0.99036
vt 0.85183 0.90972
vt 0.99586 0.90972
vt 0.85183 0.82937
vt 0.99586 0.82937
vt 0.85183 0.76694
vt 0.99586 0.76694
vt 0.99586 0.69129
vt 0.85183 0.69129
vt 0.85183 0.61331
vt 0.99586 0.61331
vt 0.92384 0.57898
vt 0.99167 0.56699
vt 0.99167 0.62156
vt 0.84919 0.62156
vt 0.99167 0.66436
vt 0.84919 0.66436
vt 0.99167 0.72062
vt 0.84919 0.72062
vt 0.99167 0.76629
vt 0.84919 0.76629
vt 0.84919 0.80519
vt 0.99167 0.80519
vt 0.99167 0.84300
vt 0.84919 0.84300
vt 0.84919 0.80519
vt 0.99167 0.80519
vt 0.99167 0.76629
vt 0.84919 0.76629
vt 0.84919 0.72062
vt 0.99167 0.72062
vt 0.84919 0.66436
vt 0.99167 0.66436
vt 0.84919 0.62156
vt 0.99167 0.62156
vt 0.99167 0.56561
vt 0.84919 0.62156
vt 0.99167 0.56439
vt 0.84919 0.66436
vt 0.84919 0.72062
vt 0.84919 0.76629
vt 0.84919 0.80519
vt 0.84919 0.84300
vt 0.84919 0.80519
vt 0.84919 0.76629
vt 0.84919 0.72062
vt 0.84919 0.66436
vt 0.84919 0.62156
vt 0.99167 0.56576
usemtl m0
f 1/1 2/2 3/3
f 3/3 2/2 4/4
f 4/4 2/2 5/5
f 5/5 2/2 6/6
f 6/6 2/2 1/1
f 7/7 8/8 9/9
f 9/9 8/8 10/10
f 8/8 11/11 10/10
f 12/12 11/11 8/8
f 13/13 14/14 15/15
f 15/15 14/14 16/16
f 17/17 15/15 16/16
f 18/18 15/15 17/17
f 19/19 20/20 21/21
f 21/21 20/20 22/22
f 21/21 23/23 19/19
f 24/24 25/25 26/26
f 26/26 25/25 27/27
f 28/28 26/26 27/27
f 29/29 26/26 28/28
f 25/25 30/30 27/27
f 27/27 30/30 31/31
f 28/28 27/27 32/32
f 32/32 27/27 33/33
f 33/33 27/27 31/31
f 34/34 26/26 29/29
f 34/34 24/24 26/26
f 35/35 36/36 37/37
f 37/37 36/36 38/38
f 35/35 39/39 36/36
f 40/40 39/39 35/35
f 38/38 36/36 41/41
f 41/41 36/36 42/42
f 39/39 43/43 36/36
f 36/36 43/43 42/42
f 44/44 35/35 37/37
f 44/44 40/40 35/35
f 45/45 46/46 47/47
f 47/47 46/46 48/48
f 47/47 48/48 49/49
f 47/47 49/49 50/50
f 49/49 48/48 51/51
f 52/52 46/46 45/45
f 53/53 54/54 55/55
f 53/53 56/56 54/54
f 54/54 56/56 57/57
f 58/58 53/53 55/55
f 57/57 56/56 59/59
f 59/59 56/56 60/60
f 61/61 62/62 63/63
f 61/61 64/64 62/62
f 62/62 64/64 65/65
f 64/64 66/66 65/65
f 64/64 67/67 66/66
f 66/66 67/67 68/68
f 68/68 67/67 69/69
f 70/70 71/71 72/72
f 73/73 71/71 70/70
f 73/73 70/70 74/74
f 71/71 75/75 72/72
f 71/71 76/76 75/75
f 75/75 76/76 77/77
f 78/78 79/79 80/80
f 79/79 81/81 80/80
f 81/81 82/82 80/80
f 82/82 83/83 80/80
f 83/83 78/78 80/80
f 84/84 85/85 86/86
f 85/85 87/87 86/86
f 87/87 88/88 86/86
f 88/88 87/87 89/89
f 87/87 90/90 89/89
f 89/89 90/90 91/91
f 90/90 92/92 91/91
f 91/91 92/92 93/93
f 92/92 94/94 93/93
f 93/93 94/94 95/95
f 94/94 96/96 95/95
f 97/97 95/95 96/96
f 97/97 98/98 95/95
f 93/93 95/95 99/99
f 95/95 98/98 99/99
f 91/91 93/93 99/99
f 100/100 91/91 99/99
f 89/89 91/91 100/100
f 101/101 89/89 100/100
f 88/88 89/89 101/101
f 102/102 90/90 87/87
f 103/103 102/102 87/87
f 103/103 87/87 85/85
f 104/104 103/103 85/85
f 104/104 85/85 84/84
f 105/105 94/94 92/92
f 96/96 94/94 105/105
f 106/106 105/105 92/92
f 102/102 106/106 90/90
f 106/106 92/92 90/90
f 107/107 96/96 105/105
f 97/97 96/96 107/107
f 104/104 84/84 108/108
f 103/103 104/104 108/108
f 84/84 109/109 108/108
f 108/108 109/109 110/110
f 110/110 103/103 108/108
f 102/102 103/103 110/110
f 109/109 111/111 110/110
f 110/110 111/111 112/112
f 113/113 110/110 112/112
f 113/113 112/112 114/114
f 115/115 113/113 114/114
f 115/115 106/106 113/113
f 105/105 106/106 115/115
f 115/115 114/114 116/116
f 117/117 115/115 116/116
f 117/117 116/116 118/118
f 119/119 117/117 118/118
f 97/97 119/119 118/118
f 97/97 107/107 119/119
f 97/97 118/118 120/120
f 116/116 121/121 118/118
f 121/121 120/120 118/118
f 116/116 114/114 121/121
f 114/114 122/122 121/121
f 114/114 112/112 122/122
f 112/112 123/123 122/122
f 111/111 123/123 112/112
f 113/113 102/102 110/110
f 106/106 102/102 113/113
f 117/117 105/105 115/115
f 105/105 117/117 119/119
f 107/107 105/105 119/119
f 124/124 125/125 126/126
f 124/124 127/127 125/125
f 127/127 128/128 125/125
f 127/127 129/129 128/128
f 129/129 130/130 128/128
f 129/129 131/131 130/130
f 131/131 132/132 130/130
f 132/132 131/131 133/133
f 131/131 134/134 133/133
f 133/133 134/134 135/135
f 134/134 136/136 135/135
f 137/137 135/135 136/136
f 138/138 129/129 127/127
f 138/138 139/139 129/129
f 139/139 131/131 129/129
f 139/139 140/140 131/131
f 140/140 134/134 131/131
f 136/136 134/134 140/140
f 141/141 136/136 140/140
f 137/137 136/136 141/141
f 137/137 142/142 135/135
f 133/133 135/135 142/142
f 143/143 133/133 142/142
f 132/132 133/133 143/143
f 144/144 132/132 143/143
f 130/130 132/132 144/144
f 145/145 130/130 144/144
f 128/128 130/130 145/145
f 146/146 128/128 145/145
f 125/125 128/128 146/146
f 147/147 125/125 146/146
f 126/126 125/125 147/147
f 137/137 148/148 142/142
f 137/137 149/149 148/148
f 149/149 150/150 148/148
f 150/150 151/151 148/148
f 148/148 151/151 142/142
f 151/151 143/143 142/142
f 150/150 152/152 151/151
f 152/152 153/153 151/151
f 151/151 153/153 143/143
f 153/153 144/144 143/143
f 154/154 153/153 152/152
f 153/153 154/154 144/144
f 154/154 145/145 144/144
f 155/155 154/154 152/152
f 156/156 154/154 155/155
f 154/154 156/156 145/145
f 156/156 146/146 145/145
f 157/157 156/156 155/155
f 156/156 157/157 158/158
f 156/156 158/158 146/146
f 158/158 147/147 146/146
f 126/126 147/147 158/158
f 159/159 126/126 158/158
f 157/157 159/159 158/158
f 160/160 157/157 155/155
f 152/152 161/161 155/155
f 161/161 160/160 155/155
f 150/150 162/162 152/152
f 162/162 161/161 152/152
f 162/162 150/150 149/149
f 163/163 162/162 149/149
f 137/137 163/163 149/149
f 164/164 165/165 166/166
f 165/165 167/167 166/166
f 167/167 168/168 166/166
f 168/168 167/167 169/169
f 167/167 170/170 169/169
f 169/169 170/170 171/171
f 170/170 172/172 171/171
f 171/171 172/172 173/173
f 172/172 174/174 173/173
f 173/173 174/174 175/175
f 174/174 176/176 175/175
f 177/177 175/175 176/176
f 177/177 178/178 175/175
f 173/173 175/175 178/178
f 179/179 173/173 178/178
f 171/171 173/173 179/179
f 180/180 171/171 179/179
f 169/169 171/171 180/180
f 181/181 169/169 180/180
f 168/168 169/169 181/181
f 182/182 170/170 167/167
f 183/183 182/182 167/167
f 183/183 167/167 165/165
f 184/184 183/183 165/165
f 184/184 165/165 164/164
f 185/185 174/174 172/172
f 186/186 185/185 172/172
f 182/182 186/186 170/170
f 186/186 172/172 170/170
f 177/177 176/176 187/187
f 185/185 187/187 174/174
f 187/187 176/176 174/174
f 184/184 164/164 188/188
f 183/183 184/184 188/188
f 164/164 189/189 188/188
f 188/188 189/189 190/190
f 190/190 183/183 188/188
f 182/182 183/183 190/190
f 189/189 191/191 190/190
f 190/190 191/191 192/192
f 193/193 190/190 192/192
f 193/193 192/192 194/194
f 195/195 193/193 194/194
f 195/195 186/186 193/193
f 185/185 186/186 195/195
f 195/195 194/194 196/196
f 197/197 195/195 196/196
f 197/197 196/196 198/198
f 199/199 197/197 198/198
f 199/199 187/187 197/197
f 177/177 199/199 198/198
f 177/177 187/187 199/199
f 177/177 198/198 200/200
f 198/198 196/196 200/200
f 196/196 201/201 200/200
f 196/196 194/194 201/201
f 194/194 202/202 201/201
f 194/194 192/192 202/202
f 192/192 203/203 202/202
f 191/191 203/203 192/192
f 193/193 182/182 190/190
f 186/186 182/182 193/193
f 197/197 185/185 195/195
f 187/187 185/185 197/197
f 204/204 205/205 206/206
f 204/204 207/207 205/205
f 207/207 208/208 205/205
f 207/207 209/209 208/208
f 209/209 210/210 208/208
f 209/209 211/211 210/210
f 211/211 212/212 210/210
f 212/212 211/211 213/213
f 211/211 214/214 213/213
f 213/213 214/214 215/215
f 214/214 216/216 215/215
f 217/217 215/215 216/216
f 218/218 209/209 207/207
f 218/218 219/219 209/209
f 219/219 211/211 209/209
f 219/219 220/220 211/211
f 220/220 214/214 211/211
f 216/216 214/214 220/220
f 221/221 216/216 220/220
f 217/217 216/216 221/221
f 217/217 222/222 215/215
f 213/213 215/215 222/222
f 223/223 213/213 222/222
f 212/212 213/213 223/223
f 224/224 212/212 223/223
f 210/210 212/212 224/224
f 225/225 210/210 224/224
f 208/208 210/210 225/225
f 226/226 208/208 225/225
f 205/205 208/208 226/226
f 227/227 205/205 226/226
f 206/206 205/205 227/227
f 217/217 228/228 222/222
f 217/217 229/229 228/228
f 229/229 230/230 228/228
f 230/230 231/231 228/228
f 228/228 231/231 222/222
f 231/231 223/223 222/222
f 230/230 232/232 231/231
f 232/232 233/233 231/231
f 231/231 233/233 223/223
f 233/233 224/224 223/223
f 234/234 233/233 232/232
f 233/233 234/234 224/224
f 234/234 225/225 224/224
f 226/226 225/225 234/234
f 235/235 234/234 232/232
f 236/236 234/234 235/235
f 236/236 226/226 234/234
f 227/227 226/226 236/236
f 237/237 236/236 235/235
f 236/236 237/237 238/238
f 238/238 227/227 236/236
f 206/206 227/227 238/238
f 239/239 206/206 238/238
f 237/237 239/239 238/238
f 240/240 237/237 235/235
f 232/232 241/241 235/235
f 241/241 240/240 235/235
f 230/230 242/242 232/232
f 242/242 241/241 232/232
f 242/242 230/230 229/229
f 243/243 242/242 229/229
f 217/217 243/243 229/229
f 244/244 245/245 246/246
f 245/245 247/247 246/246
f 246/246 247/247 248/248
f 247/247 249/249 248/248
f 248/248 249/249 250/250
f 249/249 251/251 250/250
f 250/250 251/251 252/252
f 251/251 253/253 252/252
f 244/244 254/254 245/245
f 254/254 255/255 245/245
f 256/256 255/255 254/254
f 257/257 258/258 259/259
f 258/258 260/260 259/259
f 259/259 260/260 261/261
f 260/260 262/262 261/261
f 261/261 262/262 263/263
f 262/262 264/264 263/263
f 263/263 264/264 265/265
f 266/266 263/263 265/265
f 266/266 265/265 267/267
f 265/265 268/268 267/267
f 267/267 268/268 269/269
f 270/270 271/271 272/272
f 272/272 271/271 273/273
f 274/274 272/272 273/273
f 274/274 273/273 275/275
f 276/276 274/274 275/275
f 276/276 275/275 277/277
f 278/278 276/276 277/277
f 278/278 277/277 279/279
f 277/277 280/280 279/279
f 279/279 280/280 281/281
f 282/282 279/279 281/281
f 282/282 281/281 283/283
f 281/281 284/284 283/283
f 283/283 284/284 285/285
f 286/286 283/283 285/285
f 286/286 285/285 287/287
f 285/285 288/288 287/287
f 287/287 288/288 289/289
f 288/288 290/290 289/289
f 289/289 290/290 291/291
f 290/290 292/292 291/291
f 291/291 292/292 293/293
f 294/294 292/292 290/290
f 295/295 292/292 294/294
f 296/296 294/294 290/290
f 296/296 290/290 288/288
f 297/297 296/296 288/288
f 297/297 288/288 285/285
f 298/298 297/297 285/285
f 298/298 285/285 299/299
f 285/285 284/284 299/299
f 299/299 284/284 281/281
f 300/300 299/299 281/281
f 300/300 281/281 301/301
f 281/281 280/280 301/301
f 301/301 280/280 277/277
f 302/302 301/301 277/277
f 302/302 277/277 303/303
f 277/277 275/275 303/303
f 303/303 275/275 304/304
f 275/275 273/273 304/304
f 304/304 273/273 305/305
f 273/273 271/271 305/305
f 305/305 271/271 306/306
