mtllib acce208.mtl
o acce208
v 0.19260 -0.23400 2.22120 0.000 0.000 0.000
v 0.18360 -0.23760 2.21220 0.000 0.000 0.000
v 0.18900 -0.23220 2.21040 0.000 0.000 0.000
v 0.18180 -0.23940 2.21760 0.000 0.000 0.000
v 0.19080 -0.22500 2.21400 0.000 0.000 0.000
v 0.19260 -0.22320 2.22120 0.000 0.000 0.000
v 0.18360 -0.23940 2.22480 0.000 0.000 0.000
v 0.18360 -0.23400 2.23020 0.000 0.000 0.000
v 0.18900 -0.22500 2.22840 0.000 0.000 0.000
v 0.15300 -0.13500 2.25900 0.000 0.000 0.000
v 0.14760 -0.15300 2.22660 0.000 0.000 0.000
v 0.16020 -0.12960 2.24100 0.000 0.000 0.000
v 0.16560 -0.12060 2.22480 0.000 0.000 0.000
v 0.16020 -0.12960 2.24100 0.000 0.000 0.000
v 0.18360 -0.09360 2.26080 0.000 0.000 0.000
v 0.19080 -0.09000 2.21760 0.000 0.000 0.000
v 0.19080 -0.07380 2.23560 0.000 0.000 0.000
v 0.18900 -0.06300 2.25360 0.000 0.000 0.000
v 0.18720 -0.07920 2.26800 0.000 0.000 0.000
v 0.17460 -0.08820 2.28240 0.000 0.000 0.000
v 0.16380 -0.11340 2.28600 0.000 0.000 0.000
v 0.15300 -0.13500 2.25900 0.000 0.000 0.000
v 0.15300 -0.15300 2.26260 0.000 0.000 0.000
v 0.15120 -0.17280 2.26080 0.000 0.000 0.000
v 0.16560 -0.12060 2.22480 0.000 0.000 0.000
v 0.17100 -0.13500 2.21220 0.000 0.000 0.000
v 0.17460 -0.15300 2.20140 0.000 0.000 0.000
v 0.17100 -0.13500 2.21220 0.000 0.000 0.000
v 0.21240 -0.11700 2.19600 0.000 0.000 0.000
v 0.20700 -0.15840 2.17620 0.000 0.000 0.000
v 0.22140 -0.13320 2.17260 0.000 0.000 0.000
v 0.21600 -0.10980 2.16360 0.000 0.000 0.000
v 0.21240 -0.09720 2.18340 0.000 0.000 0.000
v 0.21060 -0.09000 2.19960 0.000 0.000 0.000
v 0.19080 -0.09000 2.21760 0.000 0.000 0.000
v 0.20700 -0.15840 2.17620 0.000 0.000 0.000
v 0.21600 -0.19800 2.19600 0.000 0.000 0.000
v 0.22140 -0.18720 2.17080 0.000 0.000 0.000
v 0.21780 -0.20880 2.17440 0.000 0.000 0.000
v 0.20700 -0.23220 2.17800 0.000 0.000 0.000
v 0.21240 -0.23220 2.20680 0.000 0.000 0.000
v 0.18720 -0.22140 2.22840 0.000 0.000 0.000
v 0.16560 -0.18720 2.22300 0.000 0.000 0.000
v 0.16920 -0.16920 2.21220 0.000 0.000 0.000
v 0.16920 -0.16920 2.21220 0.000 0.000 0.000
v 0.17460 -0.15300 2.20140 0.000 0.000 0.000
v 0.16560 -0.18720 2.22300 0.000 0.000 0.000
v 0.15840 -0.18000 2.24280 0.000 0.000 0.000
v 0.15120 -0.17280 2.26080 0.000 0.000 0.000
v 0.19080 -0.21780 2.27340 0.000 0.000 0.000
v 0.15840 -0.18000 2.24280 0.000 0.000 0.000
v 0.16740 -0.18180 2.29860 0.000 0.000 0.000
v 0.18360 -0.21600 2.30580 0.000 0.000 0.000
v 0.16740 -0.23400 2.28780 0.000 0.000 0.000
v 0.19080 -0.23220 2.26980 0.000 0.000 0.000
v 0.18900 -0.23400 2.25180 0.000 0.000 0.000
v 0.18720 -0.22140 2.22840 0.000 0.000 0.000
v 0.16740 -0.18180 2.29860 0.000 0.000 0.000
v 0.17280 -0.14400 2.30940 0.000 0.000 0.000
v 0.16200 -0.17460 2.31840 0.000 0.000 0.000
v 0.16560 -0.15480 2.32380 0.000 0.000 0.000
v 0.15120 -0.13500 2.32560 0.000 0.000 0.000
v 0.17640 -0.11880 2.31480 0.000 0.000 0.000
v 0.16380 -0.11340 2.28600 0.000 0.000 0.000
v 0.15300 -0.15300 2.26260 0.000 0.000 0.000
v 0.16920 -0.12780 2.24640 0.000 0.000 0.000
v 0.15120 -0.15300 2.22840 0.000 0.000 0.000
v 0.17460 -0.13140 2.23020 0.000 0.000 0.000
v 0.17820 -0.13320 2.21400 0.000 0.000 0.000
v 0.17460 -0.13140 2.23020 0.000 0.000 0.000
v 0.21060 -0.09900 2.23380 0.000 0.000 0.000
v 0.20520 -0.11880 2.19780 0.000 0.000 0.000
v 0.22140 -0.09900 2.20680 0.000 0.000 0.000
v 0.20520 -0.07740 2.19960 0.000 0.000 0.000
v 0.20520 -0.07920 2.23380 0.000 0.000 0.000
v 0.19440 -0.08640 2.24460 0.000 0.000 0.000
v 0.18360 -0.10080 2.25720 0.000 0.000 0.000
v 0.16920 -0.12780 2.24640 0.000 0.000 0.000
v 0.16380 -0.13860 2.25720 0.000 0.000 0.000
v 0.16020 -0.15300 2.26440 0.000 0.000 0.000
v 0.21780 -0.12060 2.24100 0.000 0.000 0.000
v 0.21420 -0.13320 2.21580 0.000 0.000 0.000
v 0.22500 -0.11880 2.22300 0.000 0.000 0.000
v 0.21420 -0.11340 2.22300 0.000 0.000 0.000
v 0.21600 -0.10980 2.23560 0.000 0.000 0.000
v 0.20880 -0.11520 2.24460 0.000 0.000 0.000
v 0.19980 -0.12060 2.25540 0.000 0.000 0.000
v 0.16380 -0.13860 2.25720 0.000 0.000 0.000
v 0.18900 -0.11520 2.29320 0.000 0.000 0.000
v 0.18360 -0.10080 2.25720 0.000 0.000 0.000
v 0.19440 -0.09720 2.27700 0.000 0.000 0.000
v 0.17280 -0.08460 2.28780 0.000 0.000 0.000
v 0.17640 -0.10980 2.30760 0.000 0.000 0.000
v 0.17280 -0.12240 2.30760 0.000 0.000 0.000
v 0.16740 -0.14580 2.29680 0.000 0.000 0.000
v 0.16020 -0.15300 2.26440 0.000 0.000 0.000
v 0.20340 -0.13140 2.27880 0.000 0.000 0.000
v 0.19980 -0.12060 2.25540 0.000 0.000 0.000
v 0.20880 -0.12060 2.26800 0.000 0.000 0.000
v 0.19440 -0.12060 2.27520 0.000 0.000 0.000
v 0.19620 -0.12780 2.28960 0.000 0.000 0.000
v 0.19260 -0.13680 2.28780 0.000 0.000 0.000
v 0.18900 -0.15120 2.28060 0.000 0.000 0.000
v 0.18900 -0.18900 2.29860 0.000 0.000 0.000
v 0.16380 -0.16920 2.25540 0.000 0.000 0.000
v 0.16740 -0.14580 2.29680 0.000 0.000 0.000
v 0.18360 -0.16380 2.31300 0.000 0.000 0.000
v 0.16560 -0.18540 2.30940 0.000 0.000 0.000
v 0.17460 -0.20340 2.32200 0.000 0.000 0.000
v 0.18000 -0.21240 2.29140 0.000 0.000 0.000
v 0.18180 -0.20880 2.26260 0.000 0.000 0.000
v 0.16740 -0.18180 2.24280 0.000 0.000 0.000
v 0.20340 -0.17820 2.28240 0.000 0.000 0.000
v 0.18900 -0.15120 2.28060 0.000 0.000 0.000
v 0.19980 -0.16200 2.29320 0.000 0.000 0.000
v 0.18900 -0.17640 2.29140 0.000 0.000 0.000
v 0.19620 -0.18540 2.29140 0.000 0.000 0.000
v 0.19620 -0.19080 2.28240 0.000 0.000 0.000
v 0.19980 -0.19080 2.25900 0.000 0.000 0.000
v 0.17460 -0.17640 2.22840 0.000 0.000 0.000
v 0.21420 -0.21240 2.23200 0.000 0.000 0.000
v 0.18180 -0.20880 2.26260 0.000 0.000 0.000
v 0.20880 -0.22500 2.25720 0.000 0.000 0.000
v 0.19620 -0.24480 2.23920 0.000 0.000 0.000
v 0.21240 -0.23040 2.22120 0.000 0.000 0.000
v 0.21240 -0.21600 2.20680 0.000 0.000 0.000
v 0.20700 -0.18900 2.19780 0.000 0.000 0.000
v 0.18000 -0.16920 2.21220 0.000 0.000 0.000
v 0.21600 -0.18360 2.24460 0.000 0.000 0.000
v 0.19980 -0.19080 2.25900 0.000 0.000 0.000
v 0.21600 -0.19800 2.25540 0.000 0.000 0.000
v 0.21960 -0.20340 2.25000 0.000 0.000 0.000
v 0.21600 -0.19800 2.23560 0.000 0.000 0.000
v 0.21600 -0.18900 2.22660 0.000 0.000 0.000
v 0.21420 -0.17820 2.21940 0.000 0.000 0.000
v 0.18000 -0.15300 2.21220 0.000 0.000 0.000
v 0.22860 -0.15300 2.19600 0.000 0.000 0.000
v 0.20700 -0.18900 2.19780 0.000 0.000 0.000
v 0.23220 -0.17820 2.18520 0.000 0.000 0.000
v 0.22320 -0.17100 2.16000 0.000 0.000 0.000
v 0.23220 -0.14580 2.17260 0.000 0.000 0.000
v 0.22140 -0.12780 2.18160 0.000 0.000 0.000
v 0.20520 -0.11880 2.19780 0.000 0.000 0.000
v 0.23040 -0.15480 2.21580 0.000 0.000 0.000
v 0.21420 -0.17820 2.21940 0.000 0.000 0.000
v 0.23220 -0.17280 2.20860 0.000 0.000 0.000
v 0.22500 -0.16560 2.19960 0.000 0.000 0.000
v 0.23040 -0.15300 2.20500 0.000 0.000 0.000
v 0.22320 -0.14220 2.21220 0.000 0.000 0.000
v 0.21420 -0.13320 2.21580 0.000 0.000 0.000
v 0.18000 -0.15300 2.21220 0.000 0.000 0.000
v 0.17820 -0.13320 2.21400 0.000 0.000 0.000
v 0.18000 -0.16920 2.21220 0.000 0.000 0.000
v 0.17460 -0.17640 2.22840 0.000 0.000 0.000
v 0.16740 -0.18180 2.24280 0.000 0.000 0.000
v 0.16380 -0.16920 2.25540 0.000 0.000 0.000
v 0.23040 -0.13500 2.19240 0.000 0.000 0.000
v 0.22140 -0.12960 2.18340 0.000 0.000 0.000
v 0.22320 -0.12240 2.21040 0.000 0.000 0.000
v 0.22500 -0.15300 2.20680 0.000 0.000 0.000
v 0.22500 -0.11520 2.19960 0.000 0.000 0.000
v 0.21780 -0.10620 2.21400 0.000 0.000 0.000
v 0.18000 -0.15300 2.21220 0.000 0.000 0.000
v 0.17820 -0.13320 2.21400 0.000 0.000 0.000
v 0.20700 -0.11340 2.22660 0.000 0.000 0.000
v 0.17460 -0.13140 2.23020 0.000 0.000 0.000
v 0.22500 -0.15300 2.20680 0.000 0.000 0.000
v 0.22140 -0.17820 2.20680 0.000 0.000 0.000
v 0.22320 -0.16920 2.19780 0.000 0.000 0.000
v 0.22320 -0.17820 2.19780 0.000 0.000 0.000
v 0.21780 -0.19800 2.20140 0.000 0.000 0.000
v 0.22500 -0.19800 2.21760 0.000 0.000 0.000
v 0.20340 -0.19620 2.22480 0.000 0.000 0.000
v 0.17460 -0.17640 2.22840 0.000 0.000 0.000
v 0.18000 -0.16920 2.21220 0.000 0.000 0.000
v 0.20340 -0.19620 2.22480 0.000 0.000 0.000
v 0.19440 -0.19620 2.26080 0.000 0.000 0.000
v 0.20340 -0.20700 2.24280 0.000 0.000 0.000
v 0.20160 -0.21240 2.26260 0.000 0.000 0.000
v 0.18900 -0.20520 2.28060 0.000 0.000 0.000
v 0.18720 -0.19080 2.28420 0.000 0.000 0.000
v 0.18360 -0.17640 2.27700 0.000 0.000 0.000
v 0.16380 -0.16920 2.25540 0.000 0.000 0.000
v 0.16740 -0.18180 2.24280 0.000 0.000 0.000
v 0.18360 -0.17640 2.27700 0.000 0.000 0.000
v 0.18540 -0.14940 2.28960 0.000 0.000 0.000
v 0.18360 -0.16560 2.29680 0.000 0.000 0.000
v 0.18540 -0.13860 2.30760 0.000 0.000 0.000
v 0.18360 -0.12960 2.29320 0.000 0.000 0.000
v 0.18540 -0.12600 2.28780 0.000 0.000 0.000
v 0.18540 -0.11880 2.27160 0.000 0.000 0.000
v 0.16380 -0.13860 2.25720 0.000 0.000 0.000
v 0.16020 -0.15300 2.26440 0.000 0.000 0.000
v 0.18540 -0.11880 2.27160 0.000 0.000 0.000
v 0.20340 -0.10260 2.25360 0.000 0.000 0.000
v 0.19440 -0.10260 2.26620 0.000 0.000 0.000
v 0.20340 -0.09360 2.25900 0.000 0.000 0.000
v 0.20880 -0.09180 2.23920 0.000 0.000 0.000
v 0.21420 -0.09900 2.23740 0.000 0.000 0.000
v 0.20700 -0.11340 2.22660 0.000 0.000 0.000
v 0.16920 -0.12780 2.24640 0.000 0.000 0.000
v 0.21420 -0.17100 2.23560 0.000 0.000 0.000
v 0.17640 -0.17460 2.23920 0.000 0.000 0.000
v 0.21960 -0.18720 2.24820 0.000 0.000 0.000
v 0.18180 -0.16740 2.22660 0.000 0.000 0.000
v 0.20340 -0.17820 2.25720 0.000 0.000 0.000
v 0.17100 -0.16560 2.25720 0.000 0.000 0.000
v 0.18360 -0.15480 2.21940 0.000 0.000 0.000
v 0.22860 -0.16020 2.22300 0.000 0.000 0.000
v 0.21420 -0.14580 2.22840 0.000 0.000 0.000
v 0.18180 -0.13500 2.22840 0.000 0.000 0.000
v 0.20160 -0.15300 2.27340 0.000 0.000 0.000
v 0.17100 -0.13680 2.25360 0.000 0.000 0.000
v 0.20340 -0.12960 2.27340 0.000 0.000 0.000
v 0.20880 -0.12960 2.25360 0.000 0.000 0.000
v 0.20520 -0.16380 2.27880 0.000 0.000 0.000
v 0.17100 -0.16560 2.25720 0.000 0.000 0.000
v 0.19980 -0.18000 2.27520 0.000 0.000 0.000
v 0.20340 -0.17820 2.25720 0.000 0.000 0.000
v 0.18180 -0.13500 2.22840 0.000 0.000 0.000
v 0.21780 -0.12600 2.24460 0.000 0.000 0.000
v 0.21780 -0.12780 2.22660 0.000 0.000 0.000
v 0.21420 -0.14580 2.22840 0.000 0.000 0.000
v 0.17100 -0.13680 2.25360 0.000 0.000 0.000
v 0.17100 -0.16560 2.25720 0.000 0.000 0.000
v 0.20880 -0.15300 2.25000 0.000 0.000 0.000
v 0.17640 -0.17460 2.23920 0.000 0.000 0.000
v 0.18180 -0.16740 2.22660 0.000 0.000 0.000
v 0.18180 -0.13500 2.22840 0.000 0.000 0.000
v 0.18360 -0.15480 2.21940 0.000 0.000 0.000
v 0.17820 -0.23220 2.03580 0.000 0.000 0.000
v 0.18540 -0.24120 2.03580 0.000 0.000 0.000
v 0.18540 -0.23220 2.03760 0.000 0.000 0.000
v 0.19260 -0.23220 2.03580 0.000 0.000 0.000
v 0.20160 -0.23220 1.99980 0.000 0.000 0.000
v 0.18540 -0.25020 1.99980 0.000 0.000 0.000
v 0.16920 -0.23220 1.99980 0.000 0.000 0.000
v 0.18540 -0.25380 1.95840 0.000 0.000 0.000
v 0.16920 -0.23220 1.95840 0.000 0.000 0.000
v 0.20340 -0.23220 1.96020 0.000 0.000 0.000
v 0.17640 -0.24300 1.95300 0.000 0.000 0.000
v 0.19620 -0.24480 1.95300 0.000 0.000 0.000
v 0.20340 -0.23940 1.94940 0.000 0.000 0.000
v 0.18900 -0.25200 1.94580 0.000 0.000 0.000
v 0.18180 -0.25020 1.94760 0.000 0.000 0.000
v 0.17100 -0.23940 1.94940 0.000 0.000 0.000
v 0.18540 -0.22320 2.03580 0.000 0.000 0.000
v 0.18540 -0.21420 1.99980 0.000 0.000 0.000
v 0.18720 -0.21240 1.96020 0.000 0.000 0.000
v 0.17820 -0.21960 1.95300 0.000 0.000 0.000
v 0.19620 -0.21960 1.95300 0.000 0.000 0.000
v 0.20340 -0.22680 1.94940 0.000 0.000 0.000
v 0.19080 -0.21240 1.94760 0.000 0.000 0.000
v 0.18180 -0.21600 1.94760 0.000 0.000 0.000
v 0.17280 -0.22320 1.94940 0.000 0.000 0.000
v 0.16920 -0.23220 1.95840 0.000 0.000 0.000
v 0.18540 -0.23220 1.95300 0.000 0.000 0.000
v 0.18540 -0.25380 1.95840 0.000 0.000 0.000
v 0.20340 -0.23220 1.96020 0.000 0.000 0.000
v 0.18720 -0.21240 1.96020 0.000 0.000 0.000
v 0.17640 -0.23220 2.04840 0.000 0.000 0.000
v 0.18540 -0.24120 2.04840 0.000 0.000 0.000
v 0.18540 -0.23220 2.05020 0.000 0.000 0.000
v 0.19440 -0.23220 2.04840 0.000 0.000 0.000
v 0.19080 -0.23220 2.03940 0.000 0.000 0.000
v 0.18540 -0.23940 2.03940 0.000 0.000 0.000
v 0.17820 -0.23220 2.03940 0.000 0.000 0.000
v 0.18540 -0.22320 2.04840 0.000 0.000 0.000
v 0.18540 -0.22680 2.03940 0.000 0.000 0.000
v 0.18540 -0.23220 2.03220 0.000 0.000 0.000
v 0.18900 -0.23220 2.14020 0.000 0.000 0.000
v 0.18540 -0.23400 2.14020 0.000 0.000 0.000
v 0.18540 -0.23400 2.21220 0.000 0.000 0.000
v 0.18540 -0.23400 2.04840 0.000 0.000 0.000
v 0.18900 -0.23220 2.04840 0.000 0.000 0.000
v 0.18900 -0.23220 2.21220 0.000 0.000 0.000
v 0.18540 -0.23040 2.04840 0.000 0.000 0.000
v 0.18540 -0.23040 2.14020 0.000 0.000 0.000
v 0.18540 -0.23040 2.21220 0.000 0.000 0.000
v 0.18360 -0.23220 2.14020 0.000 0.000 0.000
v 0.18360 -0.23220 2.04840 0.000 0.000 0.000
v 0.18360 -0.23220 2.21220 0.000 0.000 0.000
v 0.19260 -0.24120 2.20140 0.000 0.000 0.000
v 0.18360 -0.24300 2.19420 0.000 0.000 0.000
v 0.18900 -0.23940 2.19060 0.000 0.000 0.000
v 0.18180 -0.24480 2.19780 0.000 0.000 0.000
v 0.19080 -0.23220 2.19420 0.000 0.000 0.000
v 0.19260 -0.23040 2.20140 0.000 0.000 0.000
v 0.18360 -0.24480 2.20500 0.000 0.000 0.000
v 0.18360 -0.24120 2.20860 0.000 0.000 0.000
v 0.18900 -0.23220 2.20860 0.000 0.000 0.000
v 0.19620 -0.24480 2.17980 0.000 0.000 0.000
v 0.18720 -0.24660 2.17260 0.000 0.000 0.000
v 0.19260 -0.24300 2.16900 0.000 0.000 0.000
v 0.18540 -0.24840 2.17620 0.000 0.000 0.000
v 0.19440 -0.23580 2.17260 0.000 0.000 0.000
v 0.19620 -0.23400 2.17980 0.000 0.000 0.000
v 0.18720 -0.24840 2.18340 0.000 0.000 0.000
v 0.18720 -0.24480 2.18700 0.000 0.000 0.000
v 0.19260 -0.23580 2.18700 0.000 0.000 0.000
v 0.19800 -0.24660 2.16000 0.000 0.000 0.000
v 0.19080 -0.24840 2.15280 0.000 0.000 0.000
v 0.19620 -0.24480 2.14920 0.000 0.000 0.000
v 0.19080 -0.25020 2.15640 0.000 0.000 0.000
v 0.19800 -0.23760 2.15460 0.000 0.000 0.000
v 0.19980 -0.23580 2.16000 0.000 0.000 0.000
v 0.19080 -0.25020 2.16360 0.000 0.000 0.000
v 0.19080 -0.24660 2.16720 0.000 0.000 0.000
v 0.19620 -0.23760 2.16720 0.000 0.000 0.000
v 0.20340 -0.23940 2.14020 0.000 0.000 0.000
v 0.19800 -0.24120 2.13300 0.000 0.000 0.000
v 0.20160 -0.23760 2.13120 0.000 0.000 0.000
v 0.19620 -0.24300 2.13660 0.000 0.000 0.000
v 0.20340 -0.23040 2.13480 0.000 0.000 0.000
v 0.20340 -0.22860 2.14020 0.000 0.000 0.000
v 0.19620 -0.24300 2.14380 0.000 0.000 0.000
v 0.19620 -0.23940 2.14740 0.000 0.000 0.000
v 0.20160 -0.23040 2.14740 0.000 0.000 0.000
v 0.21060 -0.22680 2.12580 0.000 0.000 0.000
v 0.20520 -0.22860 2.11860 0.000 0.000 0.000
v 0.20880 -0.22500 2.11680 0.000 0.000 0.000
v 0.20340 -0.23040 2.12220 0.000 0.000 0.000
v 0.21060 -0.21780 2.12040 0.000 0.000 0.000
v 0.21060 -0.21600 2.12580 0.000 0.000 0.000
v 0.20340 -0.23040 2.12940 0.000 0.000 0.000
v 0.20340 -0.22680 2.13300 0.000 0.000 0.000
v 0.20880 -0.21780 2.13300 0.000 0.000 0.000
v 0.21780 -0.21240 2.11140 0.000 0.000 0.000
v 0.21240 -0.21420 2.10420 0.000 0.000 0.000
v 0.21600 -0.21060 2.10240 0.000 0.000 0.000
v 0.21060 -0.21600 2.10780 0.000 0.000 0.000
v 0.21780 -0.20340 2.10600 0.000 0.000 0.000
v 0.21780 -0.20160 2.11140 0.000 0.000 0.000
v 0.21060 -0.21600 2.11500 0.000 0.000 0.000
v 0.21060 -0.21240 2.11860 0.000 0.000 0.000
v 0.21600 -0.20340 2.11860 0.000 0.000 0.000
v 0.22608 -0.19080 2.10402 0.000 0.000 0.000
v 0.22176 -0.19440 2.09682 0.000 0.000 0.000
v 0.22356 -0.18954 2.09520 0.000 0.000 0.000
v 0.22104 -0.19692 2.10024 0.000 0.000 0.000
v 0.22248 -0.18252 2.09898 0.000 0.000 0.000
v 0.22176 -0.18108 2.10456 0.000 0.000 0.000
v 0.22104 -0.19728 2.10744 0.000 0.000 0.000
v 0.21978 -0.19404 2.11122 0.000 0.000 0.000
v 0.22104 -0.18360 2.11158 0.000 0.000 0.000
v 0.23040 -0.17100 2.11140 0.000 0.000 0.000
v 0.22500 -0.17280 2.10420 0.000 0.000 0.000
v 0.22860 -0.16920 2.10240 0.000 0.000 0.000
v 0.22320 -0.17460 2.10780 0.000 0.000 0.000
v 0.23040 -0.16200 2.10600 0.000 0.000 0.000
v 0.23220 -0.16020 2.11140 0.000 0.000 0.000
v 0.22320 -0.17460 2.11500 0.000 0.000 0.000
v 0.22320 -0.17100 2.11860 0.000 0.000 0.000
v 0.22860 -0.16200 2.11860 0.000 0.000 0.000
v 0.22860 -0.15480 2.12760 0.000 0.000 0.000
v 0.22320 -0.15300 2.11860 0.000 0.000 0.000
v 0.22680 -0.14760 2.12040 0.000 0.000 0.000
v 0.22140 -0.15660 2.12040 0.000 0.000 0.000
v 0.22680 -0.14580 2.12760 0.000 0.000 0.000
v 0.22680 -0.14760 2.13300 0.000 0.000 0.000
v 0.22140 -0.16020 2.12580 0.000 0.000 0.000
v 0.21960 -0.16020 2.13120 0.000 0.000 0.000
v 0.22320 -0.15300 2.13660 0.000 0.000 0.000
v 0.22320 -0.14760 2.14740 0.000 0.000 0.000
v 0.21960 -0.14220 2.14020 0.000 0.000 0.000
v 0.22140 -0.13860 2.14380 0.000 0.000 0.000
v 0.21780 -0.14580 2.13840 0.000 0.000 0.000
v 0.22140 -0.13860 2.15100 0.000 0.000 0.000
v 0.21960 -0.14400 2.15460 0.000 0.000 0.000
v 0.21780 -0.15120 2.14200 0.000 0.000 0.000
v 0.21600 -0.15300 2.14740 0.000 0.000 0.000
v 0.21600 -0.14940 2.15460 0.000 0.000 0.000
v 0.22140 -0.15120 2.17080 0.000 0.000 0.000
v 0.21240 -0.15480 2.16360 0.000 0.000 0.000
v 0.21600 -0.15120 2.16000 0.000 0.000 0.000
v 0.21060 -0.15660 2.16900 0.000 0.000 0.000
v 0.21960 -0.14220 2.16180 0.000 0.000 0.000
v 0.21960 -0.13860 2.16900 0.000 0.000 0.000
v 0.21240 -0.15480 2.17620 0.000 0.000 0.000
v 0.21240 -0.14940 2.17980 0.000 0.000 0.000
v 0.21600 -0.14040 2.17620 0.000 0.000 0.000
v 0.19620 -0.22500 2.11860 0.000 0.000 0.000
v 0.19440 -0.23580 2.10960 0.000 0.000 0.000
v 0.20160 -0.23040 2.11140 0.000 0.000 0.000
v 0.19800 -0.23760 2.10600 0.000 0.000 0.000
v 0.19260 -0.24840 2.09880 0.000 0.000 0.000
v 0.19800 -0.24660 2.09700 0.000 0.000 0.000
v 0.19980 -0.24300 2.08440 0.000 0.000 0.000
v 0.19620 -0.24300 2.08260 0.000 0.000 0.000
v 0.20160 -0.24120 2.07720 0.000 0.000 0.000
v 0.19800 -0.24120 2.07000 0.000 0.000 0.000
v 0.20160 -0.22140 2.10420 0.000 0.000 0.000
v 0.20520 -0.22680 2.10240 0.000 0.000 0.000
v 0.20880 -0.22140 2.08980 0.000 0.000 0.000
v 0.20880 -0.22500 2.08980 0.000 0.000 0.000
v 0.20160 -0.23220 2.07900 0.000 0.000 0.000
v 0.20520 -0.23400 2.08080 0.000 0.000 0.000
v 0.19800 -0.24660 2.09700 0.000 0.000 0.000
v 0.19980 -0.24300 2.08440 0.000 0.000 0.000
v 0.21060 -0.23940 2.09520 0.000 0.000 0.000
v 0.19800 -0.23760 2.10600 0.000 0.000 0.000
v 0.20160 -0.24120 2.07720 0.000 0.000 0.000
v 0.20160 -0.23040 2.11140 0.000 0.000 0.000
v 0.20520 -0.23400 2.08080 0.000 0.000 0.000
v 0.20880 -0.22500 2.08980 0.000 0.000 0.000
v 0.20520 -0.22680 2.10240 0.000 0.000 0.000
v 0.19440 -0.23580 2.10960 0.000 0.000 0.000
v 0.19080 -0.23040 2.09340 0.000 0.000 0.000
v 0.19620 -0.22500 2.11860 0.000 0.000 0.000
v 0.19260 -0.24840 2.09880 0.000 0.000 0.000
v 0.19620 -0.24300 2.08260 0.000 0.000 0.000
v 0.19800 -0.24120 2.07000 0.000 0.000 0.000
v 0.20160 -0.22140 2.10420 0.000 0.000 0.000
v 0.20880 -0.22140 2.08980 0.000 0.000 0.000
v 0.20160 -0.23220 2.07900 0.000 0.000 0.000
v 0.22320 -0.14040 2.14560 0.000 0.000 0.000
v 0.22320 -0.13860 2.12940 0.000 0.000 0.000
v 0.22860 -0.13680 2.13840 0.000 0.000 0.000
v 0.22860 -0.13680 2.12760 0.000 0.000 0.000
v 0.22860 -0.13680 2.11320 0.000 0.000 0.000
v 0.23220 -0.13320 2.11680 0.000 0.000 0.000
v 0.23220 -0.12060 2.11140 0.000 0.000 0.000
v 0.22860 -0.12060 2.11140 0.000 0.000 0.000
v 0.23400 -0.11160 2.11140 0.000 0.000 0.000
v 0.23040 -0.10800 2.10600 0.000 0.000 0.000
v 0.22680 -0.12600 2.14020 0.000 0.000 0.000
v 0.23040 -0.12600 2.13840 0.000 0.000 0.000
v 0.23220 -0.11160 2.13660 0.000 0.000 0.000
v 0.23580 -0.11520 2.13300 0.000 0.000 0.000
v 0.23040 -0.10980 2.12040 0.000 0.000 0.000
v 0.23400 -0.11340 2.12040 0.000 0.000 0.000
v 0.23220 -0.13320 2.11680 0.000 0.000 0.000
v 0.23220 -0.12060 2.11140 0.000 0.000 0.000
v 0.24120 -0.12600 2.12580 0.000 0.000 0.000
v 0.22860 -0.13680 2.12760 0.000 0.000 0.000
v 0.23400 -0.11160 2.11140 0.000 0.000 0.000
v 0.22860 -0.13680 2.13840 0.000 0.000 0.000
v 0.23400 -0.11340 2.12040 0.000 0.000 0.000
v 0.23580 -0.11520 2.13300 0.000 0.000 0.000
v 0.23040 -0.12600 2.13840 0.000 0.000 0.000
v 0.22320 -0.13860 2.12940 0.000 0.000 0.000
v 0.21960 -0.12240 2.12580 0.000 0.000 0.000
v 0.22320 -0.14040 2.14560 0.000 0.000 0.000
v 0.22860 -0.13680 2.11320 0.000 0.000 0.000
v 0.22860 -0.12060 2.11140 0.000 0.000 0.000
v 0.23040 -0.10800 2.10600 0.000 0.000 0.000
v 0.22680 -0.12600 2.14020 0.000 0.000 0.000
v 0.23220 -0.11160 2.13660 0.000 0.000 0.000
v 0.23040 -0.10980 2.12040 0.000 0.000 0.000
v 0.23148 -0.18738 2.08404 0.000 0.000 0.000
v 0.23328 -0.18504 2.06784 0.000 0.000 0.000
v 0.23076 -0.18162 2.07468 0.000 0.000 0.000
v 0.23004 -0.17784 2.08620 0.000 0.000 0.000
v 0.22824 -0.18324 2.09250 0.000 0.000 0.000
v 0.22662 -0.18810 2.09394 0.000 0.000 0.000
v 0.23670 -0.17550 2.07018 0.000 0.000 0.000
v 0.23274 -0.17136 2.07792 0.000 0.000 0.000
v 0.23346 -0.16686 2.07468 0.000 0.000 0.000
v 0.23220 -0.18252 2.06172 0.000 0.000 0.000
v 0.23544 -0.16920 2.06172 0.000 0.000 0.000
v 0.23526 -0.16506 2.06640 0.000 0.000 0.000
v 0.23472 -0.16416 2.07126 0.000 0.000 0.000
v 0.22950 -0.18918 2.07342 0.000 0.000 0.000
v 0.22662 -0.19242 2.09088 0.000 0.000 0.000
v 0.22680 -0.19602 2.08332 0.000 0.000 0.000
v 0.23310 -0.19530 2.06694 0.000 0.000 0.000
v 0.22752 -0.19998 2.07324 0.000 0.000 0.000
v 0.22698 -0.20322 2.06874 0.000 0.000 0.000
v 0.22734 -0.20502 2.06442 0.000 0.000 0.000
v 0.22860 -0.20286 2.06010 0.000 0.000 0.000
v 0.23022 -0.19782 2.05704 0.000 0.000 0.000
v 0.23184 -0.18486 2.06118 0.000 0.000 0.000
v 0.23292 -0.17370 2.05308 0.000 0.000 0.000
v 0.23292 -0.18198 2.05020 0.000 0.000 0.000
v 0.23382 -0.17298 2.05236 0.000 0.000 0.000
v 0.23184 -0.18018 2.05524 0.000 0.000 0.000
v 0.23328 -0.18396 2.06136 0.000 0.000 0.000
v 0.23220 -0.18252 2.06172 0.000 0.000 0.000
v 0.23094 -0.18486 2.05434 0.000 0.000 0.000
v 0.22986 -0.19026 2.05038 0.000 0.000 0.000
v 0.23058 -0.19116 2.04948 0.000 0.000 0.000
v 0.23184 -0.18486 2.06118 0.000 0.000 0.000
v 0.23328 -0.18504 2.06784 0.000 0.000 0.000
v 0.23004 -0.17784 2.08620 0.000 0.000 0.000
v 0.22698 -0.17676 2.07774 0.000 0.000 0.000
v 0.22590 -0.17406 2.08746 0.000 0.000 0.000
v 0.23076 -0.18162 2.07468 0.000 0.000 0.000
v 0.22392 -0.18072 2.09592 0.000 0.000 0.000
v 0.22824 -0.18324 2.09250 0.000 0.000 0.000
v 0.22194 -0.18774 2.09718 0.000 0.000 0.000
v 0.22662 -0.18810 2.09394 0.000 0.000 0.000
v 0.23274 -0.17136 2.07792 0.000 0.000 0.000
v 0.22752 -0.16938 2.08134 0.000 0.000 0.000
v 0.22968 -0.16110 2.07720 0.000 0.000 0.000
v 0.23346 -0.16686 2.07468 0.000 0.000 0.000
v 0.23472 -0.16416 2.07126 0.000 0.000 0.000
v 0.23112 -0.15786 2.07126 0.000 0.000 0.000
v 0.23166 -0.15876 2.06568 0.000 0.000 0.000
v 0.23526 -0.16506 2.06640 0.000 0.000 0.000
v 0.23148 -0.16380 2.05776 0.000 0.000 0.000
v 0.23544 -0.16920 2.06172 0.000 0.000 0.000
v 0.23220 -0.18252 2.06172 0.000 0.000 0.000
v 0.22896 -0.17856 2.05884 0.000 0.000 0.000
v 0.22662 -0.19242 2.09088 0.000 0.000 0.000
v 0.22158 -0.19440 2.09358 0.000 0.000 0.000
v 0.22680 -0.19602 2.08332 0.000 0.000 0.000
v 0.22158 -0.19836 2.08350 0.000 0.000 0.000
v 0.22410 -0.19332 2.07504 0.000 0.000 0.000
v 0.22950 -0.18918 2.07342 0.000 0.000 0.000
v 0.22752 -0.19998 2.07324 0.000 0.000 0.000
v 0.22176 -0.20106 2.07612 0.000 0.000 0.000
v 0.22140 -0.20790 2.06946 0.000 0.000 0.000
v 0.22698 -0.20322 2.06874 0.000 0.000 0.000
v 0.22734 -0.20502 2.06442 0.000 0.000 0.000
v 0.22194 -0.20934 2.06298 0.000 0.000 0.000
v 0.22302 -0.20718 2.05776 0.000 0.000 0.000
v 0.22860 -0.20286 2.06010 0.000 0.000 0.000
v 0.22500 -0.20016 2.05182 0.000 0.000 0.000
v 0.23022 -0.19782 2.05704 0.000 0.000 0.000
v 0.23184 -0.18486 2.06118 0.000 0.000 0.000
v 0.22752 -0.18648 2.05740 0.000 0.000 0.000
v 0.22698 -0.17676 2.07774 0.000 0.000 0.000
v 0.21726 -0.18252 2.07018 0.000 0.000 0.000
v 0.22590 -0.17406 2.08746 0.000 0.000 0.000
v 0.22392 -0.18072 2.09592 0.000 0.000 0.000
v 0.22752 -0.16938 2.08134 0.000 0.000 0.000
v 0.22968 -0.16110 2.07720 0.000 0.000 0.000
v 0.21726 -0.18252 2.07018 0.000 0.000 0.000
v 0.22194 -0.18774 2.09718 0.000 0.000 0.000
v 0.23112 -0.15786 2.07126 0.000 0.000 0.000
v 0.23166 -0.15876 2.06568 0.000 0.000 0.000
v 0.22158 -0.19440 2.09358 0.000 0.000 0.000
v 0.22158 -0.19836 2.08350 0.000 0.000 0.000
v 0.22410 -0.19332 2.07504 0.000 0.000 0.000
v 0.22176 -0.20106 2.07612 0.000 0.000 0.000
v 0.22140 -0.20790 2.06946 0.000 0.000 0.000
v 0.22194 -0.20934 2.06298 0.000 0.000 0.000
v 0.22302 -0.20718 2.05776 0.000 0.000 0.000
v 0.23148 -0.16380 2.05776 0.000 0.000 0.000
v 0.21726 -0.18252 2.07018 0.000 0.000 0.000
v 0.22896 -0.17856 2.05884 0.000 0.000 0.000
v 0.22500 -0.20016 2.05182 0.000 0.000 0.000
v 0.22752 -0.18648 2.05740 0.000 0.000 0.000
v 0.23220 -0.18252 2.06172 0.000 0.000 0.000
v 0.23184 -0.18018 2.05524 0.000 0.000 0.000
v 0.22968 -0.17838 2.05614 0.000 0.000 0.000
v 0.23292 -0.17370 2.05308 0.000 0.000 0.000
v 0.23202 -0.16956 2.05380 0.000 0.000 0.000
v 0.23382 -0.17298 2.05236 0.000 0.000 0.000
v 0.23220 -0.16866 2.05236 0.000 0.000 0.000
v 0.23004 -0.18126 2.04858 0.000 0.000 0.000
v 0.23292 -0.18198 2.05020 0.000 0.000 0.000
v 0.23058 -0.19116 2.04948 0.000 0.000 0.000
v 0.22770 -0.19440 2.04804 0.000 0.000 0.000
v 0.22770 -0.19386 2.04966 0.000 0.000 0.000
v 0.22986 -0.19026 2.05038 0.000 0.000 0.000
v 0.22842 -0.18594 2.05488 0.000 0.000 0.000
v 0.23094 -0.18486 2.05434 0.000 0.000 0.000
v 0.23184 -0.18486 2.06118 0.000 0.000 0.000
v 0.23004 -0.18126 2.04858 0.000 0.000 0.000
v 0.21726 -0.18252 2.07018 0.000 0.000 0.000
v 0.23220 -0.16866 2.05236 0.000 0.000 0.000
v 0.23202 -0.16956 2.05380 0.000 0.000 0.000
v 0.22968 -0.17838 2.05614 0.000 0.000 0.000
v 0.22896 -0.17856 2.05884 0.000 0.000 0.000
v 0.22770 -0.19386 2.04966 0.000 0.000 0.000
v 0.22770 -0.19440 2.04804 0.000 0.000 0.000
v 0.22842 -0.18594 2.05488 0.000 0.000 0.000
v 0.22752 -0.18648 2.05740 0.000 0.000 0.000
v 0.25146 -0.15120 2.22336 0.000 0.000 0.000
v 0.33894 -0.27738 2.12166 0.000 0.000 0.000
v 0.34470 -0.15048 2.08026 0.000 0.000 0.000
v 0.27126 -0.32760 2.23794 0.000 0.000 0.000
v 0.18684 -0.28422 2.35638 0.000 0.000 0.000
v 0.14130 -0.15192 2.39256 0.000 0.000 0.000
v 0.30870 -0.02394 2.10312 0.000 0.000 0.000
v 0.22932 0.02520 2.21220 0.000 0.000 0.000
v 0.15534 -0.01926 2.33712 0.000 0.000 0.000
v 0.21780 -0.16830 2.04318 0.000 0.000 0.000
v 0.10260 -0.17586 2.12868 0.000 0.000 0.000
v 0.06012 -0.17028 2.27448 0.000 0.000 0.000
v 0.42984 -0.13302 2.18160 0.000 0.000 0.000
v 0.39798 -0.12654 2.32146 0.000 0.000 0.000
v 0.28188 -0.13320 2.41920 0.000 0.000 0.000
v 0.20808 -0.27252 2.20248 0.000 0.000 0.000
v 0.22698 -0.23526 2.22336 0.000 0.000 0.000
v 0.22518 -0.23652 2.22678 0.000 0.000 0.000
v 0.24372 -0.19998 2.24874 0.000 0.000 0.000
v 0.19908 -0.29304 2.18700 0.000 0.000 0.000
v 0.25452 -0.17838 2.26062 0.000 0.000 0.000
v 0.20988 -0.27144 2.19888 0.000 0.000 0.000
v 0.24552 -0.19872 2.24514 0.000 0.000 0.000
v 0.22842 -0.23472 2.22084 0.000 0.000 0.000
v 0.22590 -0.23832 2.22264 0.000 0.000 0.000
v 0.24552 -0.22158 2.18232 0.000 0.000 0.000
v 0.20646 -0.25434 2.26206 0.000 0.000 0.000
v 0.25794 -0.21042 2.16216 0.000 0.000 0.000
v 0.19656 -0.26028 2.28618 0.000 0.000 0.000
v 0.24714 -0.21708 2.18574 0.000 0.000 0.000
v 0.20808 -0.24966 2.26530 0.000 0.000 0.000
v 0.22770 -0.23310 2.22498 0.000 0.000 0.000
v 0.22464 -0.23814 2.22408 0.000 0.000 0.000
v 0.22662 -0.25146 2.17926 0.000 0.000 0.000
v 0.22698 -0.23526 2.22336 0.000 0.000 0.000
v 0.22464 -0.22284 2.26926 0.000 0.000 0.000
v 0.22914 -0.25938 2.15370 0.000 0.000 0.000
v 0.22446 -0.21204 2.29392 0.000 0.000 0.000
v 0.22896 -0.24858 2.17836 0.000 0.000 0.000
v 0.22716 -0.21924 2.26746 0.000 0.000 0.000
v 0.22896 -0.23328 2.22354 0.000 0.000 0.000
v 0.20034 -0.27216 2.23758 0.000 0.000 0.000
v 0.22716 -0.23454 2.22714 0.000 0.000 0.000
v 0.25272 -0.19746 2.21418 0.000 0.000 0.000
v 0.18522 -0.29430 2.24190 0.000 0.000 0.000
v 0.26838 -0.17694 2.20572 0.000 0.000 0.000
v 0.20088 -0.27396 2.23344 0.000 0.000 0.000
v 0.25344 -0.19926 2.21004 0.000 0.000 0.000
v 0.22644 -0.23688 2.22048 0.000 0.000 0.000
v 0.25272 -0.13068 2.17458 0.000 0.000 0.000
v 0.23400 -0.09378 2.16756 0.000 0.000 0.000
v 0.23292 -0.09360 2.17116 0.000 0.000 0.000
v 0.21438 -0.05670 2.16522 0.000 0.000 0.000
v 0.26460 -0.15210 2.17512 0.000 0.000 0.000
v 0.20358 -0.03528 2.16108 0.000 0.000 0.000
v 0.25380 -0.13068 2.17098 0.000 0.000 0.000
v 0.21546 -0.05670 2.16162 0.000 0.000 0.000
v 0.23508 -0.09378 2.16504 0.000 0.000 0.000
v 0.23544 -0.09594 2.16882 0.000 0.000 0.000
v 0.24588 -0.09540 2.12688 0.000 0.000 0.000
v 0.22518 -0.09648 2.20950 0.000 0.000 0.000
v 0.25056 -0.09216 2.10402 0.000 0.000 0.000
v 0.21726 -0.09396 2.23218 0.000 0.000 0.000
v 0.24300 -0.09090 2.12670 0.000 0.000 0.000
v 0.22230 -0.09198 2.20932 0.000 0.000 0.000
v 0.23256 -0.09144 2.16738 0.000 0.000 0.000
v 0.23436 -0.09594 2.16990 0.000 0.000 0.000
v 0.25524 -0.12096 2.14326 0.000 0.000 0.000
v 0.23400 -0.09378 2.16756 0.000 0.000 0.000
v 0.21312 -0.06858 2.19546 0.000 0.000 0.000
v 0.26802 -0.13464 2.12796 0.000 0.000 0.000
v 0.19998 -0.05274 2.20824 0.000 0.000 0.000
v 0.25488 -0.11880 2.14074 0.000 0.000 0.000
v 0.21276 -0.06642 2.19186 0.000 0.000 0.000
v 0.23364 -0.09144 2.16630 0.000 0.000 0.000
v 0.23922 -0.11916 2.20176 0.000 0.000 0.000
v 0.23274 -0.09144 2.16990 0.000 0.000 0.000
v 0.22626 -0.06606 2.13678 0.000 0.000 0.000
v 0.24408 -0.13572 2.21904 0.000 0.000 0.000
v 0.22392 -0.05166 2.11716 0.000 0.000 0.000
v 0.24174 -0.12132 2.19942 0.000 0.000 0.000
v 0.22878 -0.06822 2.13444 0.000 0.000 0.000
v 0.23544 -0.09594 2.16630 0.000 0.000 0.000
v 0.17298 -0.13158 2.33226 0.000 0.000 0.000
v 0.17748 -0.09990 2.32776 0.000 0.000 0.000
v 0.17604 -0.09954 2.33028 0.000 0.000 0.000
v 0.18018 -0.06786 2.32668 0.000 0.000 0.000
v 0.17190 -0.15030 2.33244 0.000 0.000 0.000
v 0.18270 -0.04968 2.32398 0.000 0.000 0.000
v 0.17442 -0.13194 2.32974 0.000 0.000 0.000
v 0.18162 -0.06840 2.32416 0.000 0.000 0.000
v 0.17874 -0.10044 2.32632 0.000 0.000 0.000
v 0.17730 -0.10188 2.32866 0.000 0.000 0.000
v 0.19332 -0.10584 2.30022 0.000 0.000 0.000
v 0.16128 -0.09792 2.35656 0.000 0.000 0.000
v 0.20268 -0.10584 2.28474 0.000 0.000 0.000
v 0.15228 -0.09306 2.37186 0.000 0.000 0.000
v 0.19332 -0.10188 2.30004 0.000 0.000 0.000
v 0.16128 -0.09396 2.35638 0.000 0.000 0.000
v 0.17748 -0.09792 2.32776 0.000 0.000 0.000
v 0.17622 -0.10152 2.32938 0.000 0.000 0.000
v 0.18540 -0.12636 2.31084 0.000 0.000 0.000
v 0.17748 -0.09990 2.32776 0.000 0.000 0.000
v 0.16794 -0.07506 2.34720 0.000 0.000 0.000
v 0.19170 -0.14040 2.30076 0.000 0.000 0.000
v 0.16290 -0.05940 2.35584 0.000 0.000 0.000
v 0.18666 -0.12474 2.30922 0.000 0.000 0.000
v 0.16938 -0.07344 2.34468 0.000 0.000 0.000
v 0.17838 -0.09828 2.32704 0.000 0.000 0.000
v 0.16308 -0.11844 2.35098 0.000 0.000 0.000
v 0.17694 -0.09792 2.32956 0.000 0.000 0.000
v 0.19026 -0.07884 2.30706 0.000 0.000 0.000
v 0.15570 -0.13122 2.36250 0.000 0.000 0.000
v 0.19890 -0.06876 2.29392 0.000 0.000 0.000
v 0.16434 -0.12096 2.34936 0.000 0.000 0.000
v 0.19152 -0.08136 2.30562 0.000 0.000 0.000
v 0.17766 -0.10206 2.32704 0.000 0.000 0.000
vt 0.24219 0.83594
vt 0.14844 0.71094
vt 0.24219 0.67969
vt 0.10156 0.83594
vt 0.33594 0.69531
vt 0.36719 0.83594
vt 0.14844 0.71094
vt 0.24219 0.67969
vt 0.33594 0.69531
vt 0.22656 0.44531
vt 0.30469 0.50781
vt 0.22656 0.50781
vt 0.22656 0.44531
vt 0.22656 0.50781
vt 0.10156 0.50781
vt 0.11719 0.41406
vt 0.03906 0.42969
vt 0.00781 0.50781
vt 0.00781 0.44531
vt 0.05469 0.41406
vt 0.13281 0.41406
vt 0.22656 0.44531
vt 0.22656 0.50781
vt 0.22656 0.44531
vt 0.22656 0.44531
vt 0.22656 0.50781
vt 0.22656 0.44531
vt 0.22656 0.50781
vt 0.10156 0.50781
vt 0.11719 0.41406
vt 0.03906 0.42969
vt 0.00781 0.50781
vt 0.00781 0.44531
vt 0.05469 0.41406
vt 0.13281 0.41406
vt 0.13281 0.41406
vt 0.10156 0.50781
vt 0.05469 0.41406
vt 0.00781 0.44531
vt 0.00781 0.50781
vt 0.03906 0.42969
vt 0.11719 0.41406
vt 0.22656 0.44531
vt 0.22656 0.50781
vt 0.22656 0.50781
vt 0.22656 0.44531
vt 0.22656 0.44531
vt 0.22656 0.50781
vt 0.22656 0.44531
vt 0.10156 0.50781
vt 0.22656 0.50781
vt 0.11719 0.41406
vt 0.03906 0.42969
vt 0.00781 0.50781
vt 0.00781 0.44531
vt 0.05469 0.41406
vt 0.13281 0.41406
vt 0.13281 0.41406
vt 0.10156 0.50781
vt 0.05469 0.41406
vt 0.00781 0.44531
vt 0.00781 0.50781
vt 0.03906 0.42969
vt 0.11719 0.41406
vt 0.22656 0.50781
vt 0.22656 0.44531
vt 0.30469 0.50781
vt 0.22656 0.50781
vt 0.22656 0.44531
vt 0.22656 0.50781
vt 0.10156 0.50781
vt 0.11719 0.41406
vt 0.03906 0.42969
vt 0.00781 0.50781
vt 0.00781 0.44531
vt 0.05469 0.41406
vt 0.13281 0.41406
vt 0.22656 0.44531
vt 0.22656 0.50781
vt 0.22656 0.44531
vt 0.10156 0.50781
vt 0.11719 0.41406
vt 0.03906 0.42969
vt 0.00781 0.50781
vt 0.00781 0.44531
vt 0.05469 0.41406
vt 0.13281 0.41406
vt 0.22656 0.50781
vt 0.10156 0.50781
vt 0.11719 0.41406
vt 0.03906 0.42969
vt 0.00781 0.50781
vt 0.00781 0.44531
vt 0.05469 0.41406
vt 0.13281 0.41406
vt 0.22656 0.44531
vt 0.10156 0.50781
vt 0.11719 0.41406
vt 0.03906 0.42969
vt 0.00781 0.50781
vt 0.00781 0.44531
vt 0.05469 0.41406
vt 0.13281 0.41406
vt 0.10156 0.50781
vt 0.22656 0.50781
vt 0.11719 0.41406
vt 0.03906 0.42969
vt 0.00781 0.50781
vt 0.00781 0.44531
vt 0.05469 0.41406
vt 0.13281 0.41406
vt 0.22656 0.44531
vt 0.10156 0.50781
vt 0.11719 0.41406
vt 0.03906 0.42969
vt 0.00781 0.50781
vt 0.00781 0.44531
vt 0.05469 0.41406
vt 0.13281 0.41406
vt 0.22656 0.50781
vt 0.10156 0.50781
vt 0.11719 0.41406
vt 0.03906 0.42969
vt 0.00781 0.50781
vt 0.00781 0.44531
vt 0.05469 0.41406
vt 0.13281 0.41406
vt 0.22656 0.44531
vt 0.10156 0.50781
vt 0.11719 0.41406
vt 0.03906 0.42969
vt 0.00781 0.50781
vt 0.00781 0.44531
vt 0.05469 0.41406
vt 0.13281 0.41406
vt 0.22656 0.50781
vt 0.10156 0.50781
vt 0.11719 0.41406
vt 0.03906 0.42969
vt 0.00781 0.50781
vt 0.00781 0.44531
vt 0.05469 0.41406
vt 0.13281 0.41406
vt 0.10156 0.50781
vt 0.11719 0.41406
vt 0.03906 0.42969
vt 0.00781 0.50781
vt 0.00781 0.44531
vt 0.05469 0.41406
vt 0.13281 0.41406
vt 0.22656 0.50781
vt 0.22656 0.44531
vt 0.22656 0.44531
vt 0.22656 0.50781
vt 0.22656 0.44531
vt 0.22656 0.50781
vt 0.03906 0.42969
vt 0.00781 0.50781
vt 0.10156 0.50781
vt 0.11719 0.41406
vt 0.00781 0.44531
vt 0.05469 0.41406
vt 0.22656 0.44531
vt 0.22656 0.50781
vt 0.13281 0.41406
vt 0.22656 0.44531
vt 0.13281 0.41406
vt 0.10156 0.50781
vt 0.05469 0.41406
vt 0.00781 0.44531
vt 0.00781 0.50781
vt 0.03906 0.42969
vt 0.11719 0.41406
vt 0.22656 0.44531
vt 0.22656 0.50781
vt 0.13281 0.41406
vt 0.10156 0.50781
vt 0.05469 0.41406
vt 0.00781 0.44531
vt 0.00781 0.50781
vt 0.03906 0.42969
vt 0.11719 0.41406
vt 0.22656 0.44531
vt 0.22656 0.50781
vt 0.13281 0.41406
vt 0.10156 0.50781
vt 0.05469 0.41406
vt 0.00781 0.44531
vt 0.00781 0.50781
vt 0.03906 0.42969
vt 0.11719 0.41406
vt 0.22656 0.44531
vt 0.22656 0.50781
vt 0.13281 0.41406
vt 0.10156 0.50781
vt 0.05469 0.41406
vt 0.00781 0.44531
vt 0.00781 0.50781
vt 0.03906 0.42969
vt 0.11719 0.41406
vt 0.22656 0.50781
vt 0.00781 0.39844
vt 0.17969 0.50781
vt 0.00781 0.50781
vt 0.16406 0.42969
vt 0.00781 0.39844
vt 0.16406 0.42969
vt 0.17969 0.50781
vt 0.00781 0.50781
vt 0.00781 0.39844
vt 0.16406 0.42969
vt 0.00781 0.39844
vt 0.17969 0.50781
vt 0.00781 0.50781
vt 0.00781 0.39844
vt 0.00781 0.50781
vt 0.17969 0.50781
vt 0.00781 0.39844
vt 0.16406 0.42969
vt 0.17969 0.50781
vt 0.00781 0.50781
vt 0.00781 0.39844
vt 0.16406 0.42969
vt 0.33594 0.36719
vt 0.17969 0.36719
vt 0.33594 0.49219
vt 0.33594 0.36719
vt 0.17969 0.36719
vt 0.17969 0.36719
vt 0.33594 0.36719
vt 0.03906 0.52344
vt 0.03906 0.66406
vt 0.00781 0.60156
vt 0.03906 0.52344
vt 0.27344 0.52344
vt 0.27344 0.66406
vt 0.27344 0.52344
vt 0.52344 0.66406
vt 0.52344 0.52344
vt 0.52344 0.52344
vt 0.57031 0.60156
vt 0.57031 0.60156
vt 0.60156 0.53906
vt 0.60156 0.64844
vt 0.60156 0.64844
vt 0.60156 0.53906
vt 0.03906 0.66406
vt 0.27344 0.66406
vt 0.52344 0.66406
vt 0.57031 0.60156
vt 0.57031 0.60156
vt 0.60156 0.53906
vt 0.60156 0.64844
vt 0.60156 0.64844
vt 0.60156 0.53906
vt 0.58594 0.64844
vt 0.42969 0.52344
vt 0.60156 0.64844
vt 0.58594 0.64844
vt 0.60156 0.64844
vt 0.03906 0.52344
vt 0.03906 0.66406
vt 0.00781 0.60156
vt 0.03906 0.52344
vt 0.27344 0.52344
vt 0.27344 0.66406
vt 0.27344 0.52344
vt 0.03906 0.66406
vt 0.27344 0.66406
vt 0.27344 0.66406
vt 0.27344 0.52344
vt 0.27344 0.66406
vt 0.03906 0.66406
vt 0.52344 0.66406
vt 0.52344 0.52344
vt 0.03906 0.52344
vt 0.52344 0.66406
vt 0.27344 0.66406
vt 0.03906 0.66406
vt 0.27344 0.52344
vt 0.52344 0.52344
vt 0.03906 0.52344
vt 0.24219 0.83594
vt 0.14844 0.71094
vt 0.24219 0.67969
vt 0.10156 0.83594
vt 0.33594 0.69531
vt 0.36719 0.83594
vt 0.14844 0.71094
vt 0.24219 0.67969
vt 0.33594 0.69531
vt 0.24219 0.83594
vt 0.14844 0.71094
vt 0.24219 0.67969
vt 0.10156 0.83594
vt 0.33594 0.69531
vt 0.36719 0.83594
vt 0.14844 0.71094
vt 0.24219 0.67969
vt 0.33594 0.69531
vt 0.24219 0.83594
vt 0.14844 0.71094
vt 0.24219 0.67969
vt 0.10156 0.83594
vt 0.33594 0.69531
vt 0.36719 0.83594
vt 0.14844 0.71094
vt 0.24219 0.67969
vt 0.33594 0.69531
vt 0.24219 0.83594
vt 0.14844 0.71094
vt 0.24219 0.67969
vt 0.10156 0.83594
vt 0.33594 0.69531
vt 0.36719 0.83594
vt 0.14844 0.71094
vt 0.24219 0.67969
vt 0.33594 0.69531
vt 0.24219 0.83594
vt 0.14844 0.71094
vt 0.24219 0.67969
vt 0.10156 0.83594
vt 0.33594 0.69531
vt 0.36719 0.83594
vt 0.14844 0.71094
vt 0.24219 0.67969
vt 0.33594 0.69531
vt 0.24219 0.83594
vt 0.14844 0.71094
vt 0.24219 0.67969
vt 0.10156 0.83594
vt 0.33594 0.69531
vt 0.36719 0.83594
vt 0.14844 0.71094
vt 0.24219 0.67969
vt 0.33594 0.69531
vt 0.24219 0.83594
vt 0.14844 0.71094
vt 0.24219 0.67969
vt 0.10156 0.83594
vt 0.33594 0.69531
vt 0.36719 0.83594
vt 0.14844 0.71094
vt 0.24219 0.67969
vt 0.33594 0.69531
vt 0.24219 0.83594
vt 0.14844 0.71094
vt 0.24219 0.67969
vt 0.10156 0.83594
vt 0.33594 0.69531
vt 0.36719 0.83594
vt 0.14844 0.71094
vt 0.24219 0.67969
vt 0.33594 0.69531
vt 0.24219 0.83594
vt 0.14844 0.71094
vt 0.24219 0.67969
vt 0.10156 0.83594
vt 0.33594 0.69531
vt 0.36719 0.83594
vt 0.14844 0.71094
vt 0.24219 0.67969
vt 0.33594 0.69531
vt 0.24219 0.83594
vt 0.14844 0.71094
vt 0.24219 0.67969
vt 0.10156 0.83594
vt 0.33594 0.69531
vt 0.36719 0.83594
vt 0.14844 0.71094
vt 0.24219 0.67969
vt 0.33594 0.69531
vt 0.24219 0.83594
vt 0.14844 0.71094
vt 0.24219 0.67969
vt 0.10156 0.83594
vt 0.33594 0.69531
vt 0.36719 0.83594
vt 0.14844 0.71094
vt 0.24219 0.67969
vt 0.33594 0.69531
vt 0.00781 0.85156
vt 0.36719 0.85156
vt 0.00781 0.99219
vt 0.36719 0.99219
vt 0.00781 0.85156
vt 0.00781 0.99219
vt 0.36719 0.99219
vt 0.36719 0.85156
vt 0.00781 0.99219
vt 0.00781 0.85156
vt 0.36719 0.85156
vt 0.36719 0.99219
vt 0.00781 0.85156
vt 0.00781 0.99219
vt 0.36719 0.85156
vt 0.36719 0.99219
vt 0.38281 0.85156
vt 0.46094 0.77344
vt 0.55469 0.85156
vt 0.38281 0.99219
vt 0.55469 0.69531
vt 0.55469 0.99219
vt 0.46094 0.77344
vt 0.38281 0.85156
vt 0.38281 0.99219
vt 0.36719 0.97656
vt 0.02344 0.97656
vt 0.36719 0.97656
vt 0.36719 0.97656
vt 0.36719 0.97656
vt 0.36719 0.97656
vt 0.36719 0.97656
vt 0.36719 0.97656
vt 0.36719 0.97656
vt 0.00781 0.85156
vt 0.36719 0.85156
vt 0.00781 0.99219
vt 0.36719 0.99219
vt 0.00781 0.85156
vt 0.00781 0.99219
vt 0.36719 0.99219
vt 0.36719 0.85156
vt 0.00781 0.99219
vt 0.00781 0.85156
vt 0.36719 0.85156
vt 0.36719 0.99219
vt 0.00781 0.85156
vt 0.00781 0.99219
vt 0.36719 0.85156
vt 0.36719 0.99219
vt 0.38281 0.85156
vt 0.46094 0.77344
vt 0.55469 0.85156
vt 0.38281 0.99219
vt 0.55469 0.69531
vt 0.55469 0.99219
vt 0.46094 0.77344
vt 0.38281 0.85156
vt 0.38281 0.99219
vt 0.36719 0.97656
vt 0.02344 0.97656
vt 0.36719 0.97656
vt 0.36719 0.97656
vt 0.36719 0.97656
vt 0.36719 0.97656
vt 0.36719 0.97656
vt 0.36719 0.97656
vt 0.36719 0.97656
vt 0.55469 0.83594
vt 0.55469 0.74219
vt 0.50781 0.75781
vt 0.39844 0.85156
vt 0.49219 0.96094
vt 0.55469 0.96094
vt 0.55469 0.83594
vt 0.39844 0.85156
vt 0.49219 0.96094
vt 0.50781 0.75781
vt 0.39844 0.85156
vt 0.49219 0.96094
vt 0.55469 0.96094
vt 0.50781 0.75781
vt 0.49219 0.96094
vt 0.39844 0.85156
vt 0.55469 0.83594
vt 0.39844 0.85156
vt 0.49219 0.96094
vt 0.55469 0.96094
vt 0.49219 0.96094
vt 0.39844 0.85156
vt 0.50781 0.75781
vt 0.55469 0.71094
vt 0.40006 0.69531
vt 0.55469 0.69531
vt 0.42969 0.72656
vt 0.40006 0.74219
vt 0.42969 0.75781
vt 0.42969 0.72656
vt 0.55469 0.71094
vt 0.55469 0.69531
vt 0.42969 0.75781
vt 0.39844 0.75781
vt 0.24219 0.85156
vt 0.33594 0.99219
vt 0.21094 0.99219
vt 0.33594 0.85156
vt 0.08594 0.99219
vt 0.08594 0.85156
vt 0.00781 0.99219
vt 0.00781 0.85156
vt 0.24219 0.85156
vt 0.21094 0.99219
vt 0.08594 0.99219
vt 0.08594 0.85156
vt 0.00781 0.85156
vt 0.00781 0.99219
vt 0.08594 0.99219
vt 0.08594 0.85156
vt 0.21094 0.99219
vt 0.24219 0.85156
vt 0.33594 0.85156
vt 0.33594 0.99219
vt 0.08594 0.85156
vt 0.08594 0.99219
vt 0.24219 0.85156
vt 0.21094 0.99219
vt 0.33594 0.99219
vt 0.33594 0.85156
vt 0.24219 0.85156
vt 0.21094 0.99219
vt 0.08594 0.99219
vt 0.08594 0.85156
vt 0.00781 0.85156
vt 0.00781 0.99219
vt 0.08594 0.99219
vt 0.08594 0.85156
vt 0.21094 0.99219
vt 0.24219 0.85156
vt 0.33594 0.85156
vt 0.33594 0.99219
vt 0.36719 0.85156
vt 0.05469 0.85156
vt 0.36719 0.85156
vt 0.36719 0.85156
vt 0.36719 0.85156
vt 0.36719 0.85156
vt 0.05469 0.85156
vt 0.36719 0.85156
vt 0.36719 0.85156
vt 0.36719 0.85156
vt 0.36719 0.85156
vt 0.36719 0.85156
vt 0.36719 0.85156
vt 0.36719 0.85156
vt 0.36719 0.85156
vt 0.36719 0.85156
vt 0.36719 0.85156
vt 0.36719 0.85156
vt 0.05469 0.85156
vt 0.36719 0.85156
vt 0.36719 0.85156
vt 0.36719 0.85156
vt 0.36719 0.99219
vt 0.32031 0.99219
vt 0.32031 0.85156
vt 0.21094 0.99219
vt 0.21094 0.85156
vt 0.19531 0.99219
vt 0.19531 0.85156
vt 0.00781 0.85156
vt 0.00781 0.99219
vt 0.19531 0.99219
vt 0.19531 0.85156
vt 0.21094 0.85156
vt 0.21094 0.99219
vt 0.32031 0.85156
vt 0.32031 0.99219
vt 0.36719 0.99219
vt 0.36719 0.85156
vt 0.05469 0.85156
vt 0.17969 0.85156
vt 0.14844 0.85156
vt 0.11719 0.85156
vt 0.02344 0.85156
vt 0.14844 0.85156
vt 0.17969 0.85156
vt 0.11719 0.85156
vt 0.02344 0.85156
vt 0.00781 0.19531
vt 0.00781 0.19531
vt 0.00781 0.19531
vt 0.00781 0.19531
vt 0.00781 0.19531
vt 0.00781 0.19531
vt 0.00781 0.19531
vt 0.00781 0.19531
vt 0.00781 0.19531
vt 0.00781 0.19531
vt 0.00781 0.19531
vt 0.00781 0.19531
vt 0.00781 0.19531
vt 0.00781 0.19531
vt 0.00781 0.19531
vt 0.00781 0.17969
vt 0.00781 0.10156
vt 0.00781 0.17969
vt 0.00781 0.17969
vt 0.00781 0.17969
vt 0.00781 0.17969
vt 0.00781 0.17969
vt 0.00781 0.17969
vt 0.00781 0.17969
vt 0.00781 0.17969
vt 0.00781 0.17969
vt 0.00781 0.17969
vt 0.00781 0.17969
vt 0.00781 0.17969
vt 0.00781 0.17969
vt 0.00781 0.17969
vt 0.00781 0.17969
vt 0.00781 0.08594
vt 0.00781 0.08594
vt 0.00781 0.00781
vt 0.00781 0.08594
vt 0.00781 0.08594
vt 0.00781 0.08594
vt 0.00781 0.08594
vt 0.00781 0.08594
vt 0.00781 0.08594
vt 0.00781 0.08594
vt 0.00781 0.08594
vt 0.00781 0.08594
vt 0.00781 0.08594
vt 0.00781 0.08594
vt 0.00781 0.08594
vt 0.00781 0.08594
vt 0.00781 0.08594
vt 0.00781 0.17969
vt 0.00781 0.10156
vt 0.00781 0.17969
vt 0.00781 0.17969
vt 0.00781 0.17969
vt 0.00781 0.17969
vt 0.00781 0.17969
vt 0.00781 0.17969
vt 0.00781 0.17969
vt 0.00781 0.17969
vt 0.00781 0.17969
vt 0.00781 0.17969
vt 0.00781 0.17969
vt 0.00781 0.17969
vt 0.00781 0.17969
vt 0.00781 0.17969
vt 0.00781 0.17969
vt 0.00781 0.08594
vt 0.00781 0.08594
vt 0.00781 0.00781
vt 0.00781 0.08594
vt 0.00781 0.08594
vt 0.00781 0.08594
vt 0.00781 0.08594
vt 0.00781 0.08594
vt 0.00781 0.08594
vt 0.00781 0.08594
vt 0.00781 0.08594
vt 0.00781 0.08594
vt 0.00781 0.08594
vt 0.00781 0.08594
vt 0.00781 0.08594
vt 0.00781 0.08594
vt 0.00781 0.08594
vt 0.00781 0.17969
vt 0.00781 0.10156
vt 0.00781 0.17969
vt 0.00781 0.17969
vt 0.00781 0.17969
vt 0.00781 0.17969
vt 0.00781 0.17969
vt 0.00781 0.17969
vt 0.00781 0.17969
vt 0.00781 0.17969
vt 0.00781 0.17969
vt 0.00781 0.17969
vt 0.00781 0.17969
vt 0.00781 0.17969
vt 0.00781 0.17969
vt 0.00781 0.17969
vt 0.00781 0.17969
vt 0.00781 0.08594
vt 0.00781 0.08594
vt 0.00781 0.00781
vt 0.00781 0.08594
vt 0.00781 0.08594
vt 0.00781 0.08594
vt 0.00781 0.08594
vt 0.00781 0.08594
vt 0.00781 0.08594
vt 0.00781 0.08594
vt 0.00781 0.08594
vt 0.00781 0.08594
vt 0.00781 0.08594
vt 0.00781 0.08594
vt 0.00781 0.08594
vt 0.00781 0.08594
vt 0.00781 0.08594
usemtl m0
f 1/1 2/2 3/3
f 1/1 4/4 2/2
f 1/1 3/3 5/5
f 6/6 1/1 5/5
f 7/7 4/4 1/1
f 8/8 7/7 1/1
f 9/9 8/8 1/1
f 9/9 1/1 6/6
f 10/10 11/11 12/12
f 12/12 11/11 13/13
f 14/14 13/13 15/15
f 15/15 13/13 16/16
f 15/15 16/16 17/17
f 17/17 18/18 15/15
f 15/15 18/18 19/19
f 19/19 20/20 15/15
f 20/20 21/21 15/15
f 21/21 22/22 15/15
f 15/15 22/22 14/14
f 23/23 11/11 22/22
f 24/24 11/11 23/23
f 25/25 11/11 26/26
f 26/26 11/11 27/27
f 28/28 27/27 29/29
f 29/29 27/27 30/30
f 29/29 30/30 31/31
f 31/31 32/32 29/29
f 29/29 32/32 33/33
f 33/33 34/34 29/29
f 34/34 35/35 29/29
f 35/35 13/13 29/29
f 29/29 13/13 28/28
f 36/36 27/27 37/37
f 38/38 36/36 37/37
f 39/39 38/38 37/37
f 37/37 40/40 39/39
f 41/41 40/40 37/37
f 37/37 42/42 41/41
f 37/37 43/43 42/42
f 44/44 43/43 37/37
f 37/37 27/27 44/44
f 45/45 11/11 43/43
f 46/46 11/11 45/45
f 47/47 11/11 48/48
f 48/48 11/11 49/49
f 50/50 51/51 49/49
f 50/50 43/43 51/51
f 50/50 49/49 52/52
f 50/50 52/52 53/53
f 53/53 54/54 50/50
f 50/50 54/54 55/55
f 55/55 56/56 50/50
f 56/56 57/57 50/50
f 57/57 43/43 50/50
f 58/58 49/49 59/59
f 60/60 58/58 59/59
f 61/61 60/60 59/59
f 59/59 62/62 61/61
f 63/63 62/62 59/59
f 59/59 64/64 63/63
f 59/59 22/22 64/64
f 65/65 22/22 59/59
f 59/59 49/49 65/65
f 66/66 67/67 68/68
f 68/68 67/67 69/69
f 70/70 69/69 71/71
f 71/71 69/69 72/72
f 71/71 72/72 73/73
f 73/73 74/74 71/71
f 71/71 74/74 75/75
f 75/75 76/76 71/71
f 76/76 77/77 71/71
f 77/77 78/78 71/71
f 71/71 78/78 70/70
f 79/79 67/67 78/78
f 80/80 67/67 79/79
f 70/70 69/69 81/81
f 81/81 78/78 70/70
f 81/81 69/69 82/82
f 81/81 82/82 83/83
f 83/83 84/84 81/81
f 81/81 84/84 85/85
f 85/85 86/86 81/81
f 86/86 87/87 81/81
f 87/87 78/78 81/81
f 88/88 78/78 89/89
f 89/89 78/78 90/90
f 89/89 90/90 91/91
f 91/91 92/92 89/89
f 89/89 92/92 93/93
f 93/93 94/94 89/89
f 94/94 95/95 89/89
f 95/95 96/96 89/89
f 89/89 96/96 88/88
f 97/97 96/96 88/88
f 88/88 78/78 97/97
f 97/97 78/78 98/98
f 97/97 98/98 99/99
f 99/99 100/100 97/97
f 97/97 100/100 101/101
f 101/101 102/102 97/97
f 102/102 103/103 97/97
f 103/103 96/96 97/97
f 104/104 105/105 96/96
f 104/104 96/96 106/106
f 104/104 106/106 107/107
f 107/107 108/108 104/104
f 104/104 108/108 109/109
f 109/109 110/110 104/104
f 110/110 111/111 104/104
f 111/111 112/112 104/104
f 104/104 112/112 105/105
f 113/113 112/112 105/105
f 114/114 113/113 105/105
f 113/113 114/114 115/115
f 115/115 116/116 113/113
f 113/113 116/116 117/117
f 117/117 118/118 113/113
f 118/118 119/119 113/113
f 119/119 112/112 113/113
f 114/114 105/105 96/96
f 120/120 112/112 121/121
f 121/121 112/112 122/122
f 121/121 122/122 123/123
f 123/123 124/124 121/121
f 121/121 124/124 125/125
f 125/125 126/126 121/121
f 126/126 127/127 121/121
f 127/127 128/128 121/121
f 121/121 128/128 120/120
f 129/129 128/128 120/120
f 120/120 112/112 129/129
f 129/129 112/112 130/130
f 129/129 130/130 131/131
f 131/131 132/132 129/129
f 129/129 132/132 133/133
f 133/133 134/134 129/129
f 134/134 135/135 129/129
f 135/135 128/128 129/129
f 136/136 128/128 137/137
f 137/137 128/128 138/138
f 137/137 138/138 139/139
f 139/139 140/140 137/137
f 137/137 140/140 141/141
f 141/141 142/142 137/137
f 142/142 143/143 137/137
f 143/143 69/69 137/137
f 137/137 69/69 136/136
f 144/144 69/69 136/136
f 136/136 128/128 144/144
f 144/144 128/128 145/145
f 144/144 145/145 146/146
f 146/146 147/147 144/144
f 144/144 147/147 148/148
f 148/148 149/149 144/144
f 149/149 150/150 144/144
f 150/150 69/69 144/144
f 151/151 67/67 128/128
f 152/152 67/67 151/151
f 153/153 67/67 154/154
f 154/154 67/67 112/112
f 155/155 67/67 156/156
f 156/156 67/67 96/96
f 157/157 158/158 159/159
f 159/159 160/160 157/157
f 159/159 158/158 161/161
f 161/161 162/162 159/159
f 159/159 163/163 160/160
f 164/164 163/163 159/159
f 162/162 165/165 159/159
f 165/165 166/166 159/159
f 159/159 166/166 164/164
f 167/167 163/163 168/168
f 169/169 167/167 168/168
f 170/170 169/169 168/168
f 168/168 171/171 170/170
f 172/172 171/171 168/168
f 168/168 173/173 172/172
f 168/168 174/174 173/173
f 175/175 174/174 168/168
f 168/168 163/163 175/175
f 176/176 174/174 177/177
f 178/178 176/176 177/177
f 179/179 178/178 177/177
f 177/177 180/180 179/179
f 181/181 180/180 177/177
f 177/177 182/182 181/181
f 177/177 183/183 182/182
f 184/184 183/183 177/177
f 177/177 174/174 184/184
f 185/185 183/183 186/186
f 187/187 185/185 186/186
f 188/188 187/187 186/186
f 186/186 189/189 188/188
f 190/190 189/189 186/186
f 186/186 191/191 190/190
f 186/186 192/192 191/191
f 186/186 193/193 192/192
f 186/186 183/183 193/193
f 194/194 192/192 195/195
f 196/196 194/194 195/195
f 197/197 196/196 195/195
f 195/195 198/198 197/197
f 199/199 198/198 195/195
f 195/195 200/200 199/199
f 195/195 166/166 200/200
f 201/201 166/166 195/195
f 195/195 192/192 201/201
f 202/202 203/203 204/204
f 205/205 203/203 202/202
f 204/204 203/203 206/206
f 206/206 203/203 207/207
f 202/202 208/208 205/205
f 209/209 208/208 202/202
f 210/210 208/208 209/209
f 211/211 208/208 210/210
f 212/212 207/207 213/213
f 214/214 212/212 213/213
f 213/213 215/215 214/214
f 213/213 211/211 215/215
f 216/216 217/217 212/212
f 218/218 217/217 216/216
f 219/219 217/217 218/218
f 215/215 220/220 221/221
f 221/221 220/220 222/222
f 222/222 220/220 223/223
f 224/224 225/225 226/226
f 225/225 227/227 226/226
f 226/226 227/227 228/228
f 226/226 229/229 224/224
f 226/226 230/230 229/229
f 228/228 230/230 226/226
f 231/231 232/232 233/233
f 232/232 234/234 233/233
f 232/232 235/235 234/234
f 236/236 235/235 232/232
f 237/237 236/236 232/232
f 231/231 237/237 232/232
f 237/237 238/238 236/236
f 236/236 238/238 235/235
f 239/239 238/238 237/237
f 238/238 240/240 235/235
f 241/241 238/238 239/239
f 242/242 240/240 238/238
f 242/242 243/243 240/240
f 244/244 242/242 238/238
f 241/241 245/245 238/238
f 246/246 241/241 239/239
f 233/233 247/247 231/231
f 233/233 234/234 247/247
f 234/234 235/235 247/247
f 247/247 237/237 231/231
f 247/247 248/248 237/237
f 247/247 235/235 248/248
f 237/237 249/249 239/239
f 248/248 249/249 237/237
f 235/235 240/240 249/249
f 235/235 249/249 248/248
f 239/239 249/249 250/250
f 249/249 240/240 251/251
f 240/240 252/252 251/251
f 249/249 251/251 253/253
f 249/249 254/254 250/250
f 239/239 250/250 255/255
f 256/256 257/257 258/258
f 257/257 259/259 258/258
f 260/260 257/257 256/256
f 260/260 259/259 257/257
f 261/261 262/262 263/263
f 262/262 264/264 263/263
f 262/262 265/265 264/264
f 266/266 265/265 262/262
f 267/267 266/266 262/262
f 267/267 262/262 261/261
f 263/263 268/268 261/261
f 263/263 264/264 268/268
f 264/264 265/265 268/268
f 261/261 268/268 267/267
f 268/268 269/269 267/267
f 268/268 265/265 269/269
f 269/269 270/270 267/267
f 265/265 270/270 269/269
f 267/267 270/270 266/266
f 266/266 270/270 265/265
f 271/271 272/272 273/273
f 271/271 274/274 272/272
f 275/275 274/274 271/271
f 276/276 271/271 273/273
f 271/271 277/277 275/275
f 278/278 277/277 271/271
f 279/279 278/278 271/271
f 279/279 271/271 276/276
f 273/273 272/272 280/280
f 272/272 274/274 280/280
f 280/280 278/278 279/279
f 280/280 277/277 278/278
f 280/280 274/274 281/281
f 281/281 277/277 280/280
f 273/273 280/280 282/282
f 282/282 280/280 279/279
f 283/283 284/284 285/285
f 283/283 286/286 284/284
f 283/283 285/285 287/287
f 288/288 283/283 287/287
f 289/289 286/286 283/283
f 290/290 289/289 283/283
f 291/291 290/290 283/283
f 291/291 283/283 288/288
f 292/292 293/293 294/294
f 292/292 295/295 293/293
f 292/292 294/294 296/296
f 297/297 292/292 296/296
f 298/298 295/295 292/292
f 299/299 298/298 292/292
f 300/300 299/299 292/292
f 300/300 292/292 297/297
f 301/301 302/302 303/303
f 301/301 304/304 302/302
f 301/301 303/303 305/305
f 306/306 301/301 305/305
f 307/307 304/304 301/301
f 308/308 307/307 301/301
f 309/309 308/308 301/301
f 309/309 301/301 306/306
f 310/310 311/311 312/312
f 310/310 313/313 311/311
f 310/310 312/312 314/314
f 315/315 310/310 314/314
f 316/316 313/313 310/310
f 317/317 316/316 310/310
f 318/318 317/317 310/310
f 318/318 310/310 315/315
f 319/319 320/320 321/321
f 319/319 322/322 320/320
f 319/319 321/321 323/323
f 324/324 319/319 323/323
f 325/325 322/322 319/319
f 326/326 325/325 319/319
f 327/327 326/326 319/319
f 327/327 319/319 324/324
f 328/328 329/329 330/330
f 328/328 331/331 329/329
f 328/328 330/330 332/332
f 333/333 328/328 332/332
f 334/334 331/331 328/328
f 335/335 334/334 328/328
f 336/336 335/335 328/328
f 336/336 328/328 333/333
f 337/337 338/338 339/339
f 337/337 340/340 338/338
f 337/337 339/339 341/341
f 342/342 337/337 341/341
f 343/343 340/340 337/337
f 344/344 343/343 337/337
f 345/345 344/344 337/337
f 345/345 337/337 342/342
f 346/346 347/347 348/348
f 346/346 349/349 347/347
f 346/346 348/348 350/350
f 351/351 346/346 350/350
f 352/352 349/349 346/346
f 353/353 352/352 346/346
f 354/354 353/353 346/346
f 354/354 346/346 351/351
f 355/355 356/356 357/357
f 355/355 358/358 356/356
f 355/355 357/357 359/359
f 360/360 355/355 359/359
f 361/361 358/358 355/355
f 362/362 361/361 355/355
f 363/363 362/362 355/355
f 363/363 355/355 360/360
f 364/364 365/365 366/366
f 364/364 367/367 365/365
f 364/364 366/366 368/368
f 369/369 364/364 368/368
f 370/370 367/367 364/364
f 371/371 370/370 364/364
f 372/372 371/371 364/364
f 372/372 364/364 369/369
f 373/373 374/374 375/375
f 373/373 376/376 374/374
f 373/373 375/375 377/377
f 378/378 373/373 377/377
f 379/379 376/376 373/373
f 380/380 379/379 373/373
f 381/381 380/380 373/373
f 381/381 373/373 378/378
f 382/382 383/383 384/384
f 384/384 383/383 385/385
f 383/383 386/386 385/385
f 385/385 386/386 387/387
f 386/386 388/388 387/387
f 386/386 389/389 388/388
f 389/389 390/390 388/388
f 389/389 391/391 390/390
f 384/384 392/392 382/382
f 393/393 392/392 384/384
f 393/393 394/394 392/392
f 395/395 394/394 393/393
f 390/390 391/391 396/396
f 397/397 396/396 394/394
f 397/397 390/390 396/396
f 395/395 397/397 394/394
f 398/398 399/399 400/400
f 401/401 398/398 400/400
f 399/399 402/402 400/400
f 401/401 400/400 403/403
f 400/400 402/402 404/404
f 400/400 404/404 405/405
f 400/400 405/405 406/406
f 403/403 400/400 406/406
f 407/407 408/408 409/409
f 410/410 408/408 407/407
f 410/410 411/411 408/408
f 411/411 412/412 408/408
f 409/409 408/408 413/413
f 413/413 408/408 414/414
f 408/408 412/412 415/415
f 408/408 415/415 414/414
f 416/416 417/417 418/418
f 418/418 417/417 419/419
f 417/417 420/420 419/419
f 419/419 420/420 421/421
f 420/420 422/422 421/421
f 420/420 423/423 422/422
f 423/423 424/424 422/422
f 423/423 425/425 424/424
f 418/418 426/426 416/416
f 427/427 426/426 418/418
f 427/427 428/428 426/426
f 429/429 428/428 427/427
f 424/424 425/425 430/430
f 431/431 430/430 428/428
f 431/431 424/424 430/430
f 429/429 431/431 428/428
f 432/432 433/433 434/434
f 435/435 432/432 434/434
f 433/433 436/436 434/434
f 435/435 434/434 437/437
f 434/434 436/436 438/438
f 434/434 438/438 439/439
f 434/434 439/439 440/440
f 437/437 434/434 440/440
f 441/441 442/442 443/443
f 444/444 442/442 441/441
f 444/444 445/445 442/442
f 445/445 446/446 442/442
f 443/443 442/442 447/447
f 447/447 442/442 448/448
f 442/442 446/446 449/449
f 442/442 449/449 448/448
f 450/450 451/451 452/452
f 450/450 452/452 453/453
f 454/454 450/450 453/453
f 455/455 450/450 454/454
f 452/452 451/451 456/456
f 452/452 456/456 457/457
f 457/457 456/456 458/458
f 451/451 459/459 456/456
f 459/459 460/460 456/456
f 456/456 460/460 461/461
f 456/456 462/462 458/458
f 456/456 461/461 462/462
f 463/463 451/451 450/450
f 464/464 450/450 455/455
f 465/465 450/450 464/464
f 465/465 463/463 450/450
f 466/466 451/451 463/463
f 467/467 466/466 463/463
f 468/468 466/466 467/467
f 468/468 469/469 466/466
f 469/469 470/470 466/466
f 470/470 471/471 466/466
f 466/466 471/471 472/472
f 466/466 472/472 451/451
f 473/473 474/474 475/475
f 476/476 474/474 473/473
f 477/477 474/474 476/476
f 477/477 476/476 478/478
f 479/479 474/474 477/477
f 480/480 474/474 479/479
f 481/481 474/474 480/480
f 482/482 479/479 477/477
f 483/483 477/477 478/478
f 482/482 477/477 483/483
f 484/484 485/485 486/486
f 484/484 487/487 485/485
f 488/488 484/484 486/486
f 489/489 484/484 488/488
f 490/490 489/489 488/488
f 491/491 489/489 490/490
f 485/485 487/487 492/492
f 485/485 492/492 493/493
f 492/492 494/494 493/493
f 492/492 495/495 494/494
f 495/495 496/496 494/494
f 496/496 497/497 494/494
f 496/496 498/498 497/497
f 499/499 498/498 496/496
f 499/499 500/500 498/498
f 501/501 500/500 499/499
f 502/502 500/500 501/501
f 503/503 500/500 502/502
f 490/490 504/504 491/491
f 505/505 504/504 490/490
f 505/505 506/506 504/504
f 507/507 506/506 505/505
f 507/507 508/508 506/506
f 508/508 509/509 506/506
f 510/510 509/509 508/508
f 511/511 510/510 508/508
f 511/511 512/512 510/510
f 512/512 513/513 510/510
f 512/512 514/514 513/513
f 512/512 515/515 514/514
f 515/515 516/516 514/514
f 514/514 516/516 517/517
f 516/516 518/518 517/517
f 517/517 518/518 519/519
f 519/519 518/518 520/520
f 520/520 518/518 521/521
f 522/522 523/523 524/524
f 524/524 523/523 525/525
f 526/526 523/523 522/522
f 527/527 523/523 526/526
f 525/525 528/528 529/529
f 527/527 530/530 528/528
f 530/530 531/531 528/528
f 529/529 528/528 532/532
f 532/532 523/523 533/533
f 533/533 523/523 534/534
f 534/534 523/523 535/535
f 535/535 523/523 536/536
f 528/528 537/537 536/536
f 528/528 538/538 537/537
f 531/531 539/539 540/540
f 528/528 539/539 541/541
f 540/540 542/542 538/538
f 543/543 542/542 528/528
f 544/544 545/545 541/541
f 541/541 545/545 546/546
f 545/545 547/547 546/546
f 547/547 548/548 546/546
f 547/547 549/549 548/548
f 549/549 550/550 548/548
f 549/549 551/551 550/550
f 552/552 551/551 549/549
f 553/553 551/551 552/552
f 554/554 551/551 553/553
f 555/555 554/554 553/553
f 555/555 553/553 556/556
f 557/557 555/555 556/556
f 557/557 558/558 543/543
f 557/557 556/556 558/558
f 543/543 558/558 559/559
f 541/541 560/560 561/561
f 561/561 560/560 543/543
f 562/562 560/560 563/563
f 563/563 560/560 564/564
f 564/564 560/560 565/565
f 566/566 560/560 567/567
f 568/568 560/560 566/566
f 569/569 560/560 568/568
usemtl m1
f 570/570 571/571 572/572
f 573/573 571/571 570/570
f 574/574 573/573 570/570
f 575/575 574/574 570/570
f 572/572 576/576 570/570
f 570/570 576/576 577/577
f 570/570 577/577 578/578
f 570/570 578/578 575/575
f 570/570 579/579 572/572
f 580/580 579/579 570/570
f 581/581 580/580 570/570
f 575/575 581/581 570/570
f 572/572 582/582 570/570
f 570/570 582/582 583/583
f 570/570 583/583 584/584
f 570/570 584/584 575/575
f 585/585 586/586 587/587
f 587/587 586/586 588/588
f 589/589 586/586 585/585
f 588/588 586/586 590/590
f 589/589 591/591 586/586
f 586/586 592/592 590/590
f 591/591 593/593 586/586
f 586/586 593/593 592/592
f 594/594 595/595 586/586
f 594/594 586/586 596/596
f 595/595 597/597 586/586
f 596/596 586/586 598/598
f 586/586 597/597 599/599
f 598/598 586/586 600/600
f 586/586 599/599 601/601
f 600/600 586/586 601/601
f 602/602 603/603 604/604
f 602/602 604/604 605/605
f 603/603 606/606 604/604
f 605/605 604/604 607/607
f 604/604 606/606 608/608
f 607/607 604/604 609/609
f 604/604 608/608 610/610
f 604/604 610/610 609/609
f 611/611 604/604 612/612
f 604/604 613/613 612/612
f 614/614 604/604 611/611
f 604/604 615/615 613/613
f 616/616 604/604 614/614
f 617/617 615/615 604/604
f 616/616 618/618 604/604
f 618/618 617/617 604/604
f 619/619 620/620 621/621
f 621/621 620/620 622/622
f 623/623 620/620 619/619
f 622/622 620/620 624/624
f 623/623 625/625 620/620
f 620/620 626/626 624/624
f 625/625 627/627 620/620
f 620/620 627/627 626/626
f 628/628 629/629 620/620
f 628/628 620/620 630/630
f 629/629 631/631 620/620
f 630/630 620/620 632/632
f 620/620 631/631 633/633
f 632/632 620/620 634/634
f 620/620 633/633 635/635
f 634/634 620/620 635/635
f 636/636 637/637 638/638
f 636/636 638/638 639/639
f 637/637 640/640 638/638
f 639/639 638/638 641/641
f 638/638 640/640 642/642
f 641/641 638/638 643/643
f 638/638 642/642 644/644
f 638/638 644/644 643/643
f 645/645 638/638 646/646
f 638/638 647/647 646/646
f 648/648 638/638 645/645
f 638/638 649/649 647/647
f 650/650 638/638 648/648
f 651/651 649/649 638/638
f 650/650 652/652 638/638
f 652/652 651/651 638/638
f 653/653 654/654 655/655
f 655/655 654/654 656/656
f 657/657 654/654 653/653
f 656/656 654/654 658/658
f 657/657 659/659 654/654
f 654/654 660/660 658/658
f 659/659 661/661 654/654
f 654/654 661/661 660/660
f 662/662 663/663 654/654
f 662/662 654/654 664/664
f 663/663 665/665 654/654
f 664/664 654/654 666/666
f 654/654 665/665 667/667
f 666/666 654/654 668/668
f 654/654 667/667 669/669
f 668/668 654/654 669/669
f 670/670 671/671 672/672
f 670/670 672/672 673/673
f 671/671 674/674 672/672
f 673/673 672/672 675/675
f 672/672 674/674 676/676
f 675/675 672/672 677/677
f 672/672 676/676 678/678
f 672/672 678/678 677/677
f 679/679 672/672 680/680
f 672/672 681/681 680/680
f 682/682 672/672 679/679
f 672/672 683/683 681/681
f 684/684 672/672 682/682
f 685/685 683/683 672/672
f 684/684 686/686 672/672
f 686/686 685/685 672/672
