mtllib acce422.mtl
o acce422
v -0.00846 -0.17892 2.89494 0.000 0.000 0.000
v -0.00882 -0.20124 2.84904 0.000 0.000 0.000
v -0.00018 -0.21132 2.85372 0.000 0.000 0.000
v 0.00054 -0.19062 2.90034 0.000 0.000 0.000
v -0.01170 -0.22374 2.80314 0.000 0.000 0.000
v -0.00252 -0.23526 2.80854 0.000 0.000 0.000
v -0.00630 -0.18936 2.84328 0.000 0.000 0.000
v -0.00612 -0.16542 2.88828 0.000 0.000 0.000
v -0.00918 -0.21024 2.79648 0.000 0.000 0.000
v 0.04554 -0.16092 2.87694 0.000 0.000 0.000
v 0.04500 -0.18234 2.83806 0.000 0.000 0.000
v 0.09882 -0.16434 2.84724 0.000 0.000 0.000
v 0.09810 -0.17298 2.82960 0.000 0.000 0.000
v 0.05400 -0.17946 2.88558 0.000 0.000 0.000
v 0.05166 -0.19692 2.84490 0.000 0.000 0.000
v 0.09882 -0.16434 2.84724 0.000 0.000 0.000
v 0.09810 -0.17298 2.82960 0.000 0.000 0.000
v 0.04266 -0.19980 2.79720 0.000 0.000 0.000
v 0.09756 -0.18162 2.81178 0.000 0.000 0.000
v 0.09756 -0.18162 2.81178 0.000 0.000 0.000
v 0.05112 -0.21816 2.80584 0.000 0.000 0.000
v 0.14418 -0.14652 2.81700 0.000 0.000 0.000
v 0.14472 -0.12510 2.85606 0.000 0.000 0.000
v 0.18648 -0.11988 2.80260 0.000 0.000 0.000
v 0.18774 -0.09558 2.84742 0.000 0.000 0.000
v 0.20016 -0.10368 2.85102 0.000 0.000 0.000
v 0.19764 -0.12672 2.80566 0.000 0.000 0.000
v 0.19944 -0.13932 2.81160 0.000 0.000 0.000
v 0.20286 -0.11772 2.85768 0.000 0.000 0.000
v 0.19692 -0.14850 2.75922 0.000 0.000 0.000
v 0.19962 -0.16236 2.76588 0.000 0.000 0.000
v 0.18450 -0.14022 2.75580 0.000 0.000 0.000
v 0.15318 -0.14364 2.86470 0.000 0.000 0.000
v 0.15084 -0.16110 2.82384 0.000 0.000 0.000
v 0.14202 -0.16398 2.77632 0.000 0.000 0.000
v 0.15048 -0.18252 2.78496 0.000 0.000 0.000
v 0.05670 -0.21060 2.82744 0.000 0.000 0.000
v 0.05562 -0.22914 2.80620 0.000 0.000 0.000
v 0.07218 -0.21564 2.80188 0.000 0.000 0.000
v 0.07200 -0.19170 2.83572 0.000 0.000 0.000
v 0.09918 -0.17388 2.83284 0.000 0.000 0.000
v 0.10422 -0.19188 2.80602 0.000 0.000 0.000
v 0.10026 -0.21060 2.79144 0.000 0.000 0.000
v 0.07956 -0.22896 2.78640 0.000 0.000 0.000
v 0.10530 -0.15804 2.88936 0.000 0.000 0.000
v 0.12222 -0.16092 2.85156 0.000 0.000 0.000
v 0.13158 -0.15480 2.87460 0.000 0.000 0.000
v 0.12276 -0.15282 2.90124 0.000 0.000 0.000
v 0.08172 -0.17550 2.86020 0.000 0.000 0.000
v 0.07956 -0.17352 2.88558 0.000 0.000 0.000
v 0.09414 -0.16308 2.90736 0.000 0.000 0.000
v 0.05058 -0.19584 2.86290 0.000 0.000 0.000
v 0.08712 -0.16956 2.86254 0.000 0.000 0.000
v 0.06480 -0.17604 2.88072 0.000 0.000 0.000
v 0.04374 -0.19422 2.88360 0.000 0.000 0.000
v 0.07578 -0.19674 2.82996 0.000 0.000 0.000
v 0.05688 -0.21240 2.83824 0.000 0.000 0.000
v 0.03924 -0.21420 2.86020 0.000 0.000 0.000
v 0.13158 -0.19134 2.78712 0.000 0.000 0.000
v 0.15300 -0.19116 2.78316 0.000 0.000 0.000
v 0.14922 -0.17622 2.80674 0.000 0.000 0.000
v 0.12996 -0.17046 2.82312 0.000 0.000 0.000
v 0.09612 -0.19278 2.80656 0.000 0.000 0.000
v 0.10494 -0.20574 2.78766 0.000 0.000 0.000
v 0.12870 -0.20736 2.77272 0.000 0.000 0.000
v 0.11556 -0.15930 2.85660 0.000 0.000 0.000
v 0.15750 -0.15714 2.84040 0.000 0.000 0.000
v 0.14184 -0.14832 2.86452 0.000 0.000 0.000
v 0.16884 -0.14922 2.85732 0.000 0.000 0.000
v 0.12852 -0.17766 2.81880 0.000 0.000 0.000
v 0.15444 -0.17712 2.81772 0.000 0.000 0.000
v 0.17568 -0.16506 2.83140 0.000 0.000 0.000
v 0.05400 -0.17946 2.88558 0.000 0.000 0.000
v 0.09882 -0.16434 2.84724 0.000 0.000 0.000
v 0.04554 -0.16092 2.87694 0.000 0.000 0.000
v -0.00846 -0.17892 2.89494 0.000 0.000 0.000
v 0.00054 -0.19062 2.90034 0.000 0.000 0.000
v -0.00612 -0.16542 2.88828 0.000 0.000 0.000
v 0.14472 -0.12510 2.85606 0.000 0.000 0.000
v 0.15318 -0.14364 2.86470 0.000 0.000 0.000
v 0.20016 -0.10368 2.85102 0.000 0.000 0.000
v 0.20286 -0.11772 2.85768 0.000 0.000 0.000
v 0.18774 -0.09558 2.84742 0.000 0.000 0.000
v 0.05112 -0.21816 2.80584 0.000 0.000 0.000
v 0.04266 -0.19980 2.79720 0.000 0.000 0.000
v 0.09756 -0.18162 2.81178 0.000 0.000 0.000
v -0.01170 -0.22374 2.80314 0.000 0.000 0.000
v -0.00252 -0.23526 2.80854 0.000 0.000 0.000
v -0.00918 -0.21024 2.79648 0.000 0.000 0.000
v 0.14202 -0.16398 2.77632 0.000 0.000 0.000
v 0.15048 -0.18252 2.78496 0.000 0.000 0.000
v 0.19692 -0.14850 2.75922 0.000 0.000 0.000
v 0.19962 -0.16236 2.76588 0.000 0.000 0.000
v 0.18450 -0.14022 2.75580 0.000 0.000 0.000
v 0.05526 -0.21294 2.78640 0.000 0.000 0.000
v 0.08262 -0.20556 2.77272 0.000 0.000 0.000
v 0.08820 -0.18468 2.81430 0.000 0.000 0.000
v 0.06678 -0.18990 2.82672 0.000 0.000 0.000
v 0.04464 -0.19350 2.83824 0.000 0.000 0.000
v 0.02736 -0.21870 2.79900 0.000 0.000 0.000
v 0.03870 -0.24300 2.72646 0.000 0.000 0.000
v 0.00522 -0.24840 2.73924 0.000 0.000 0.000
v -0.02142 -0.27378 2.66400 0.000 0.000 0.000
v 0.01170 -0.27738 2.63466 0.000 0.000 0.000
v -0.02664 -0.28026 2.64690 0.000 0.000 0.000
v 0.07038 -0.23328 2.71242 0.000 0.000 0.000
v 0.05256 -0.26478 2.63916 0.000 0.000 0.000
v 0.04878 -0.27126 2.62044 0.000 0.000 0.000
v 0.10674 -0.17802 2.81052 0.000 0.000 0.000
v 0.10872 -0.19620 2.76732 0.000 0.000 0.000
v 0.13716 -0.18342 2.76912 0.000 0.000 0.000
v 0.12942 -0.16722 2.81340 0.000 0.000 0.000
v 0.15138 -0.15498 2.81574 0.000 0.000 0.000
v 0.16506 -0.16902 2.77002 0.000 0.000 0.000
v 0.14598 -0.20430 2.70396 0.000 0.000 0.000
v 0.17730 -0.18630 2.70306 0.000 0.000 0.000
v 0.18468 -0.19944 2.62062 0.000 0.000 0.000
v 0.15300 -0.22644 2.60478 0.000 0.000 0.000
v 0.18612 -0.20358 2.60208 0.000 0.000 0.000
v 0.11808 -0.24120 2.62530 0.000 0.000 0.000
v 0.11826 -0.24624 2.60586 0.000 0.000 0.000
v 0.11268 -0.21798 2.70360 0.000 0.000 0.000
v 0.04716 -0.21654 2.80710 0.000 0.000 0.000
v 0.04572 -0.21240 2.79630 0.000 0.000 0.000
v 0.04140 -0.22284 2.79918 0.000 0.000 0.000
v 0.05058 -0.22212 2.79180 0.000 0.000 0.000
v 0.05202 -0.22626 2.80278 0.000 0.000 0.000
v 0.05634 -0.21582 2.79990 0.000 0.000 0.000
v 0.09504 -0.21294 2.74698 0.000 0.000 0.000
v 0.09810 -0.22338 2.74284 0.000 0.000 0.000
v 0.09072 -0.22248 2.75184 0.000 0.000 0.000
v 0.10152 -0.22662 2.75346 0.000 0.000 0.000
v 0.09846 -0.21618 2.75778 0.000 0.000 0.000
v 0.10584 -0.21708 2.74860 0.000 0.000 0.000
v 0.08154 -0.21690 2.75184 0.000 0.000 0.000
v 0.08244 -0.22788 2.74842 0.000 0.000 0.000
v 0.07740 -0.22554 2.75850 0.000 0.000 0.000
v 0.09198 -0.22212 2.75166 0.000 0.000 0.000
v 0.08784 -0.23058 2.75832 0.000 0.000 0.000
v 0.08694 -0.21960 2.76192 0.000 0.000 0.000
v 0.06894 -0.21888 2.75976 0.000 0.000 0.000
v 0.06804 -0.23040 2.75742 0.000 0.000 0.000
v 0.06570 -0.22644 2.76822 0.000 0.000 0.000
v 0.07866 -0.22518 2.75796 0.000 0.000 0.000
v 0.07524 -0.23274 2.76624 0.000 0.000 0.000
v 0.07614 -0.22122 2.76876 0.000 0.000 0.000
v 0.05814 -0.21888 2.77038 0.000 0.000 0.000
v 0.05580 -0.23022 2.76966 0.000 0.000 0.000
v 0.05616 -0.22518 2.78010 0.000 0.000 0.000
v 0.06660 -0.22644 2.76732 0.000 0.000 0.000
v 0.06462 -0.23256 2.77686 0.000 0.000 0.000
v 0.06696 -0.22122 2.77776 0.000 0.000 0.000
v 0.05040 -0.21654 2.78298 0.000 0.000 0.000
v 0.04680 -0.22770 2.78388 0.000 0.000 0.000
v 0.04986 -0.22176 2.79342 0.000 0.000 0.000
v 0.05706 -0.22518 2.77902 0.000 0.000 0.000
v 0.05670 -0.23040 2.78946 0.000 0.000 0.000
v 0.06030 -0.21924 2.78856 0.000 0.000 0.000
v 0.08496 -0.24354 2.73024 0.000 0.000 0.000
v 0.11268 -0.27126 2.67966 0.000 0.000 0.000
v 0.10620 -0.24588 2.73204 0.000 0.000 0.000
v 0.08154 -0.26766 2.67696 0.000 0.000 0.000
v 0.07362 -0.24786 2.67066 0.000 0.000 0.000
v 0.07974 -0.23040 2.72610 0.000 0.000 0.000
v 0.09666 -0.23166 2.66706 0.000 0.000 0.000
v 0.09558 -0.21942 2.72358 0.000 0.000 0.000
v 0.08532 -0.22626 2.73762 0.000 0.000 0.000
v 0.09612 -0.21888 2.73600 0.000 0.000 0.000
v 0.09792 -0.22248 2.74428 0.000 0.000 0.000
v 0.08874 -0.23490 2.74032 0.000 0.000 0.000
v 0.10314 -0.23616 2.74158 0.000 0.000 0.000
v 0.09792 -0.22248 2.74428 0.000 0.000 0.000
v 0.08874 -0.23490 2.74032 0.000 0.000 0.000
v 0.08532 -0.22626 2.73762 0.000 0.000 0.000
v 0.09792 -0.22248 2.74428 0.000 0.000 0.000
v 0.12006 -0.23004 2.72808 0.000 0.000 0.000
v 0.11466 -0.21690 2.72394 0.000 0.000 0.000
v 0.12492 -0.22806 2.66742 0.000 0.000 0.000
v 0.13302 -0.24786 2.67372 0.000 0.000 0.000
v 0.10908 -0.21708 2.73618 0.000 0.000 0.000
v 0.11268 -0.22572 2.73888 0.000 0.000 0.000
v 0.11268 -0.22572 2.73888 0.000 0.000 0.000
v 0.10908 -0.21708 2.73618 0.000 0.000 0.000
v 0.15768 -0.18108 2.77470 0.000 0.000 0.000
v 0.14724 -0.17586 2.77488 0.000 0.000 0.000
v 0.15264 -0.17856 2.78478 0.000 0.000 0.000
v 0.14814 -0.18702 2.77128 0.000 0.000 0.000
v 0.15354 -0.18972 2.78136 0.000 0.000 0.000
v 0.14310 -0.18450 2.78154 0.000 0.000 0.000
v 0.11934 -0.21042 2.74968 0.000 0.000 0.000
v 0.11376 -0.21672 2.74176 0.000 0.000 0.000
v 0.10872 -0.20700 2.74608 0.000 0.000 0.000
v 0.10458 -0.21762 2.74896 0.000 0.000 0.000
v 0.11520 -0.22086 2.75256 0.000 0.000 0.000
v 0.11016 -0.21114 2.75688 0.000 0.000 0.000
v 0.13176 -0.20250 2.75418 0.000 0.000 0.000
v 0.12852 -0.20844 2.74464 0.000 0.000 0.000
v 0.12186 -0.19980 2.74860 0.000 0.000 0.000
v 0.11826 -0.21096 2.74968 0.000 0.000 0.000
v 0.12816 -0.21366 2.75526 0.000 0.000 0.000
v 0.12132 -0.20502 2.75922 0.000 0.000 0.000
v 0.14184 -0.19422 2.76210 0.000 0.000 0.000
v 0.14148 -0.19944 2.75148 0.000 0.000 0.000
v 0.13302 -0.19188 2.75472 0.000 0.000 0.000
v 0.13068 -0.20322 2.75382 0.000 0.000 0.000
v 0.13950 -0.20556 2.76120 0.000 0.000 0.000
v 0.13104 -0.19818 2.76426 0.000 0.000 0.000
v 0.14886 -0.18594 2.77254 0.000 0.000 0.000
v 0.15138 -0.18990 2.76192 0.000 0.000 0.000
v 0.14166 -0.18360 2.76372 0.000 0.000 0.000
v 0.14076 -0.19512 2.76138 0.000 0.000 0.000
v 0.14796 -0.19746 2.77020 0.000 0.000 0.000
v 0.13842 -0.19116 2.77200 0.000 0.000 0.000
v 0.13608 -0.23220 2.62386 0.000 0.000 0.000
v 0.15354 -0.22392 2.61774 0.000 0.000 0.000
v 0.14526 -0.22554 2.62890 0.000 0.000 0.000
v 0.12942 -0.23832 2.61576 0.000 0.000 0.000
v 0.15300 -0.22644 2.60478 0.000 0.000 0.000
v 0.11826 -0.24624 2.60586 0.000 0.000 0.000
v 0.11808 -0.24120 2.62530 0.000 0.000 0.000
v 0.17640 -0.20880 2.61270 0.000 0.000 0.000
v 0.18612 -0.20358 2.60208 0.000 0.000 0.000
v 0.18468 -0.19944 2.62062 0.000 0.000 0.000
v 0.16866 -0.21222 2.62206 0.000 0.000 0.000
v 0.15858 -0.21798 2.62782 0.000 0.000 0.000
v 0.02520 -0.26892 2.65410 0.000 0.000 0.000
v 0.01440 -0.27396 2.64708 0.000 0.000 0.000
v 0.03402 -0.26892 2.64528 0.000 0.000 0.000
v 0.03942 -0.27072 2.63484 0.000 0.000 0.000
v 0.01170 -0.27738 2.63466 0.000 0.000 0.000
v 0.04878 -0.27126 2.62044 0.000 0.000 0.000
v 0.05256 -0.26478 2.63916 0.000 0.000 0.000
v -0.01278 -0.27702 2.65248 0.000 0.000 0.000
v -0.02664 -0.28026 2.64690 0.000 0.000 0.000
v -0.02142 -0.27378 2.66400 0.000 0.000 0.000
v -0.00198 -0.27378 2.65788 0.000 0.000 0.000
v 0.01080 -0.27126 2.65896 0.000 0.000 0.000
v 0.08154 -0.26766 2.67696 0.000 0.000 0.000
v 0.09666 -0.23166 2.66706 0.000 0.000 0.000
v 0.11268 -0.27126 2.67966 0.000 0.000 0.000
v 0.07362 -0.24786 2.67066 0.000 0.000 0.000
v 0.13302 -0.24786 2.67372 0.000 0.000 0.000
v 0.12492 -0.22806 2.66742 0.000 0.000 0.000
vt 0.99219 0.49219
vt 0.78906 0.49219
vt 0.78906 0.55469
vt 0.99219 0.55469
vt 0.99219 0.49219
vt 0.99219 0.55469
vt 0.78906 0.42969
vt 0.99219 0.42969
vt 0.99219 0.42969
vt 0.99219 0.19531
vt 0.78906 0.19531
vt 0.99219 0.00781
vt 0.89844 0.00781
vt 0.99219 0.80469
vt 0.78906 0.80469
vt 0.99219 0.99219
vt 0.88281 0.99219
vt 0.99219 0.19531
vt 0.99219 0.00781
vt 0.99219 0.99219
vt 0.99219 0.80469
vt 0.78906 0.19531
vt 0.99219 0.19531
vt 0.78906 0.42969
vt 0.99219 0.42969
vt 0.99219 0.49219
vt 0.78906 0.49219
vt 0.78906 0.55469
vt 0.99219 0.55469
vt 0.99219 0.49219
vt 0.99219 0.55469
vt 0.99219 0.42969
vt 0.99219 0.80469
vt 0.78906 0.80469
vt 0.99219 0.19531
vt 0.99219 0.80469
vt 0.00781 0.86719
vt 0.00781 0.99219
vt 0.19531 0.99219
vt 0.00781 0.69531
vt 0.19531 0.69531
vt 0.39844 0.69531
vt 0.39844 0.86719
vt 0.39844 0.99219
vt 0.19531 0.99219
vt 0.39844 0.69531
vt 0.39844 0.86719
vt 0.39844 0.99219
vt 0.00781 0.69531
vt 0.00781 0.86719
vt 0.00781 0.99219
vt 0.19531 0.99219
vt 0.00781 0.69531
vt 0.00781 0.86719
vt 0.00781 0.99219
vt 0.39844 0.69531
vt 0.39844 0.86719
vt 0.39844 0.99219
vt 0.19531 0.99219
vt 0.00781 0.99219
vt 0.00781 0.86719
vt 0.00781 0.69531
vt 0.39844 0.69531
vt 0.39844 0.86719
vt 0.39844 0.99219
vt 0.39844 0.69531
vt 0.19531 0.99219
vt 0.39844 0.86719
vt 0.39844 0.99219
vt 0.00781 0.69531
vt 0.00781 0.86719
vt 0.00781 0.99219
vt 0.10156 0.41406
vt 0.03906 0.17969
vt 0.00781 0.41406
vt 0.05469 0.67969
vt 0.10156 0.67969
vt 0.00781 0.67969
vt 0.00781 0.41406
vt 0.10156 0.41406
vt 0.05469 0.67969
vt 0.10156 0.67969
vt 0.00781 0.67969
vt 0.10156 0.41406
vt 0.00781 0.41406
vt 0.03906 0.17969
vt 0.05469 0.67969
vt 0.10156 0.67969
vt 0.00781 0.67969
vt 0.00781 0.41406
vt 0.10156 0.41406
vt 0.05469 0.67969
vt 0.10156 0.67969
vt 0.00781 0.67969
vt 0.57031 0.77344
vt 0.77344 0.77344
vt 0.77344 0.99219
vt 0.57031 0.99219
vt 0.77344 0.99219
vt 0.77344 0.77344
vt 0.57031 0.46094
vt 0.77344 0.46094
vt 0.77344 0.10156
vt 0.57031 0.00781
vt 0.77344 0.00781
vt 0.77344 0.46094
vt 0.77344 0.10156
vt 0.77344 0.00781
vt 0.77344 0.99219
vt 0.77344 0.77344
vt 0.57031 0.77344
vt 0.57031 0.99219
vt 0.77344 0.99219
vt 0.77344 0.77344
vt 0.57031 0.46094
vt 0.77344 0.46094
vt 0.77344 0.10156
vt 0.57031 0.00781
vt 0.77344 0.00781
vt 0.77344 0.10156
vt 0.77344 0.00781
vt 0.77344 0.46094
vt 0.52344 0.99219
vt 0.41406 0.99219
vt 0.41406 0.88281
vt 0.52344 0.99219
vt 0.41406 0.99219
vt 0.41406 0.88281
vt 0.41406 0.99219
vt 0.41406 0.88281
vt 0.52344 0.99219
vt 0.41406 0.99219
vt 0.41406 0.88281
vt 0.52344 0.99219
vt 0.41406 0.99219
vt 0.41406 0.88281
vt 0.52344 0.99219
vt 0.52344 0.99219
vt 0.41406 0.99219
vt 0.41406 0.88281
vt 0.41406 0.99219
vt 0.41406 0.88281
vt 0.52344 0.99219
vt 0.52344 0.99219
vt 0.41406 0.99219
vt 0.41406 0.88281
vt 0.41406 0.99219
vt 0.41406 0.88281
vt 0.52344 0.99219
vt 0.52344 0.99219
vt 0.41406 0.99219
vt 0.41406 0.88281
vt 0.41406 0.99219
vt 0.41406 0.88281
vt 0.52344 0.99219
vt 0.52344 0.99219
vt 0.41406 0.99219
vt 0.41406 0.88281
vt 0.25781 0.33594
vt 0.07031 0.00781
vt 0.10156 0.33594
vt 0.27344 0.00781
vt 0.36719 0.00781
vt 0.36719 0.33594
vt 0.55469 0.00781
vt 0.52344 0.33594
vt 0.36719 0.39844
vt 0.49219 0.39844
vt 0.41406 0.49219
vt 0.24219 0.39844
vt 0.14844 0.39844
vt 0.21094 0.49219
vt 0.25781 0.39844
vt 0.35156 0.39844
vt 0.30469 0.49219
vt 0.25781 0.33594
vt 0.36719 0.33594
vt 0.36719 0.00781
vt 0.27344 0.00781
vt 0.36719 0.39844
vt 0.24219 0.39844
vt 0.25781 0.39844
vt 0.35156 0.39844
vt 0.41406 0.88281
vt 0.41406 0.99219
vt 0.52344 0.99219
vt 0.52344 0.99219
vt 0.41406 0.99219
vt 0.41406 0.88281
vt 0.52344 0.99219
vt 0.41406 0.88281
vt 0.41406 0.99219
vt 0.52344 0.99219
vt 0.41406 0.99219
vt 0.41406 0.88281
vt 0.52344 0.99219
vt 0.41406 0.88281
vt 0.41406 0.99219
vt 0.52344 0.99219
vt 0.41406 0.99219
vt 0.41406 0.88281
vt 0.52344 0.99219
vt 0.41406 0.88281
vt 0.41406 0.99219
vt 0.52344 0.99219
vt 0.41406 0.99219
vt 0.41406 0.88281
vt 0.52344 0.99219
vt 0.41406 0.88281
vt 0.41406 0.99219
vt 0.52344 0.99219
vt 0.41406 0.99219
vt 0.41406 0.88281
vt 0.39844 0.67969
vt 0.39844 0.52344
vt 0.35156 0.66406
vt 0.44531 0.67969
vt 0.55469 0.46094
vt 0.55469 0.77344
vt 0.44531 0.77344
vt 0.44531 0.67969
vt 0.55469 0.77344
vt 0.44531 0.77344
vt 0.39844 0.67969
vt 0.35156 0.66406
vt 0.35156 0.66406
vt 0.39844 0.52344
vt 0.39844 0.67969
vt 0.44531 0.67969
vt 0.55469 0.46094
vt 0.55469 0.77344
vt 0.44531 0.77344
vt 0.44531 0.67969
vt 0.55469 0.77344
vt 0.44531 0.77344
vt 0.39844 0.67969
vt 0.35156 0.66406
vt 0.28906 0.67969
vt 0.11719 0.52344
vt 0.36719 0.52344
vt 0.16406 0.67969
vt 0.28906 0.67969
vt 0.16406 0.67969
usemtl m0
f 1/1 2/2 3/3
f 1/1 3/3 4/4
f 2/2 5/5 3/3
f 3/3 5/5 6/6
f 1/1 7/7 2/2
f 7/7 5/5 2/2
f 8/8 7/7 1/1
f 7/7 9/9 5/5
f 10/10 7/7 8/8
f 11/11 7/7 10/10
f 12/12 11/11 10/10
f 12/12 13/13 11/11
f 4/4 3/3 14/14
f 14/14 3/3 15/15
f 14/14 15/15 16/16
f 15/15 17/17 16/16
f 11/11 18/18 7/7
f 18/18 9/9 7/7
f 13/13 19/19 11/11
f 19/19 18/18 11/11
f 15/15 20/20 17/17
f 15/15 21/21 20/20
f 3/3 6/6 21/21
f 3/3 21/21 15/15
f 22/22 13/13 12/12
f 22/22 19/19 13/13
f 23/23 22/22 12/12
f 23/23 24/24 22/22
f 25/25 24/24 23/23
f 26/26 24/24 25/25
f 27/27 24/24 26/26
f 28/28 27/27 26/26
f 29/29 28/28 26/26
f 28/28 30/30 27/27
f 27/27 30/30 24/24
f 31/31 30/30 28/28
f 30/30 32/32 24/24
f 33/33 28/28 29/29
f 34/34 28/28 33/33
f 16/16 34/34 33/33
f 16/16 17/17 34/34
f 24/24 35/35 22/22
f 24/24 32/32 35/35
f 22/22 35/35 19/19
f 17/17 20/20 34/34
f 20/20 36/36 34/34
f 36/36 31/31 28/28
f 34/34 36/36 28/28
f 37/37 38/38 39/39
f 37/37 39/39 40/40
f 40/40 39/39 41/41
f 41/41 39/39 42/42
f 39/39 43/43 42/42
f 39/39 44/44 43/43
f 45/45 41/41 46/46
f 45/45 46/46 47/47
f 45/45 47/47 48/48
f 49/49 41/41 45/45
f 50/50 49/49 45/45
f 51/51 50/50 45/45
f 52/52 41/41 53/53
f 54/54 52/52 53/53
f 55/55 52/52 54/54
f 52/52 56/56 41/41
f 57/57 56/56 52/52
f 58/58 57/57 52/52
f 59/59 60/60 61/61
f 62/62 59/59 61/61
f 41/41 59/59 62/62
f 63/63 59/59 41/41
f 63/63 64/64 59/59
f 64/64 65/65 59/59
f 66/66 41/41 67/67
f 66/66 67/67 68/68
f 68/68 67/67 69/69
f 41/41 70/70 67/67
f 67/67 70/70 71/71
f 67/67 71/71 72/72
f 73/73 74/74 75/75
f 73/73 75/75 76/76
f 77/77 73/73 76/76
f 76/76 75/75 78/78
f 79/79 74/74 80/80
f 81/81 79/79 80/80
f 81/81 80/80 82/82
f 83/83 79/79 81/81
f 84/84 85/85 86/86
f 84/84 87/87 85/85
f 88/88 87/87 84/84
f 87/87 89/89 85/85
f 86/86 90/90 91/91
f 90/90 92/92 91/91
f 91/91 92/92 93/93
f 90/90 94/94 92/92
f 95/95 96/96 97/97
f 98/98 95/95 97/97
f 99/99 95/95 98/98
f 100/100 95/95 99/99
f 100/100 101/101 95/95
f 95/95 101/101 96/96
f 102/102 101/101 100/100
f 102/102 103/103 101/101
f 103/103 104/104 101/101
f 105/105 104/104 103/103
f 101/101 106/106 96/96
f 101/101 104/104 107/107
f 101/101 107/107 106/106
f 104/104 108/108 107/107
f 109/109 110/110 111/111
f 109/109 111/111 112/112
f 112/112 111/111 113/113
f 113/113 111/111 114/114
f 111/111 115/115 114/114
f 110/110 115/115 111/111
f 114/114 115/115 116/116
f 115/115 117/117 116/116
f 115/115 118/118 117/117
f 117/117 118/118 119/119
f 120/120 118/118 115/115
f 120/120 121/121 118/118
f 122/122 120/120 115/115
f 110/110 122/122 115/115
f 123/123 124/124 125/125
f 124/124 126/126 125/125
f 125/125 126/126 127/127
f 123/123 125/125 127/127
f 128/128 124/124 123/123
f 128/128 126/126 124/124
f 127/127 126/126 128/128
f 127/127 128/128 123/123
f 129/129 130/130 131/131
f 131/131 130/130 132/132
f 133/133 129/129 131/131
f 133/133 131/131 132/132
f 134/134 130/130 129/129
f 132/132 130/130 134/134
f 134/134 129/129 133/133
f 132/132 134/134 133/133
f 135/135 136/136 137/137
f 138/138 136/136 135/135
f 139/139 136/136 138/138
f 137/137 136/136 139/139
f 140/140 135/135 137/137
f 138/138 135/135 140/140
f 139/139 138/138 140/140
f 140/140 137/137 139/139
f 141/141 142/142 143/143
f 144/144 142/142 141/141
f 145/145 142/142 144/144
f 143/143 142/142 145/145
f 146/146 141/141 143/143
f 146/146 144/144 141/141
f 145/145 144/144 146/146
f 143/143 145/145 146/146
f 147/147 148/148 149/149
f 147/147 150/150 148/148
f 148/148 150/150 151/151
f 149/149 148/148 151/151
f 152/152 147/147 149/149
f 152/152 150/150 147/147
f 151/151 150/150 152/152
f 149/149 151/151 152/152
f 153/153 154/154 155/155
f 153/153 156/156 154/154
f 154/154 156/156 157/157
f 155/155 154/154 157/157
f 158/158 153/153 155/155
f 158/158 156/156 153/153
f 157/157 156/156 158/158
f 155/155 157/157 158/158
f 159/159 160/160 161/161
f 159/159 162/162 160/160
f 159/159 163/163 162/162
f 164/164 163/163 159/159
f 165/165 163/163 164/164
f 166/166 165/165 164/164
f 166/166 164/164 167/167
f 168/168 166/166 167/167
f 168/168 167/167 169/169
f 170/170 159/159 161/161
f 170/170 161/161 171/171
f 172/172 170/170 171/171
f 173/173 164/164 159/159
f 174/174 164/164 173/173
f 175/175 174/174 173/173
f 161/161 160/160 176/176
f 177/177 165/165 166/166
f 176/176 178/178 177/177
f 178/178 165/165 177/177
f 179/179 178/178 176/176
f 176/176 160/160 179/179
f 180/180 168/168 169/169
f 177/177 166/166 180/180
f 180/180 166/166 168/168
f 172/172 171/171 181/181
f 181/181 161/161 176/176
f 171/171 161/161 181/181
f 176/176 177/177 182/182
f 182/182 183/183 175/175
f 182/182 177/177 183/183
f 184/184 185/185 186/186
f 184/184 187/187 185/185
f 188/188 187/187 184/184
f 188/188 184/184 186/186
f 186/186 185/185 189/189
f 185/185 187/187 189/189
f 189/189 187/187 188/188
f 186/186 189/189 188/188
f 190/190 191/191 192/192
f 192/192 191/191 193/193
f 193/193 191/191 194/194
f 194/194 191/191 190/190
f 190/190 192/192 195/195
f 195/195 192/192 193/193
f 195/195 193/193 194/194
f 194/194 190/190 195/195
f 196/196 197/197 198/198
f 198/198 197/197 199/199
f 199/199 197/197 200/200
f 200/200 197/197 196/196
f 196/196 198/198 201/201
f 198/198 199/199 201/201
f 201/201 199/199 200/200
f 201/201 200/200 196/196
f 202/202 203/203 204/204
f 203/203 205/205 204/204
f 206/206 205/205 203/203
f 206/206 203/203 202/202
f 202/202 204/204 207/207
f 204/204 205/205 207/207
f 207/207 205/205 206/206
f 207/207 206/206 202/202
f 208/208 209/209 210/210
f 209/209 211/211 210/210
f 212/212 211/211 209/209
f 212/212 209/209 208/208
f 208/208 210/210 213/213
f 210/210 211/211 213/213
f 213/213 211/211 212/212
f 213/213 212/212 208/208
f 214/214 215/215 216/216
f 214/214 217/217 215/215
f 217/217 218/218 215/215
f 217/217 219/219 218/218
f 220/220 219/219 217/217
f 215/215 218/218 221/221
f 221/221 218/218 222/222
f 221/221 222/222 223/223
f 224/224 215/215 221/221
f 225/225 215/215 224/224
f 226/226 227/227 228/228
f 227/227 229/229 228/228
f 227/227 230/230 229/229
f 230/230 231/231 229/229
f 229/229 231/231 232/232
f 233/233 230/230 227/227
f 234/234 230/230 233/233
f 235/235 234/234 233/233
f 233/233 227/227 236/236
f 236/236 227/227 237/237
f 238/238 239/239 240/240
f 238/238 241/241 239/239
f 240/240 239/239 242/242
f 242/242 239/239 243/243
