mtllib acce167.mtl
o acce167
v -0.20340 -0.44460 2.89620 0.000 0.000 0.000
v -0.16560 -0.37440 2.83320 0.000 0.000 0.000
v -0.09360 -0.33660 2.86020 0.000 0.000 0.000
v -0.12600 -0.31860 2.80080 0.000 0.000 0.000
v -0.05940 -0.29520 2.78640 0.000 0.000 0.000
v 0.10620 -0.24120 2.78640 0.000 0.000 0.000
v -0.18180 -0.44820 2.96820 0.000 0.000 0.000
v -0.08640 -0.40140 2.96280 0.000 0.000 0.000
v -0.19260 -0.54360 3.05820 0.000 0.000 0.000
v -0.15480 -0.37980 2.91420 0.000 0.000 0.000
v -0.08820 -0.32400 2.87460 0.000 0.000 0.000
v 0.10800 -0.23940 2.78640 0.000 0.000 0.000
v 0.09000 -0.25020 2.79180 0.000 0.000 0.000
v -0.07380 -0.29340 2.75040 0.000 0.000 0.000
v 0.09180 -0.24480 2.77380 0.000 0.000 0.000
v -0.04140 -0.26460 2.71260 0.000 0.000 0.000
v -0.06840 -0.27180 2.71080 0.000 0.000 0.000
v -0.11160 -0.28980 2.71440 0.000 0.000 0.000
v -0.16920 -0.32400 2.73600 0.000 0.000 0.000
v 0.05040 -0.28620 2.80800 0.000 0.000 0.000
v 0.06660 -0.28800 2.80800 0.000 0.000 0.000
v 0.06300 -0.28620 2.81700 0.000 0.000 0.000
v 0.05760 -0.28800 2.80260 0.000 0.000 0.000
v 0.04500 -0.28080 2.79000 0.000 0.000 0.000
v 0.05400 -0.28260 2.79000 0.000 0.000 0.000
v 0.05940 -0.27720 2.78280 0.000 0.000 0.000
v 0.05400 -0.27180 2.77920 0.000 0.000 0.000
v 0.06840 -0.27360 2.78100 0.000 0.000 0.000
v 0.06840 -0.26460 2.77380 0.000 0.000 0.000
v 0.07920 -0.28080 2.81340 0.000 0.000 0.000
v 0.07560 -0.28260 2.80620 0.000 0.000 0.000
v 0.08640 -0.27000 2.80080 0.000 0.000 0.000
v 0.08100 -0.27720 2.79720 0.000 0.000 0.000
v 0.08100 -0.26460 2.78640 0.000 0.000 0.000
v 0.07740 -0.27360 2.78640 0.000 0.000 0.000
v 0.07200 -0.23940 2.72520 0.000 0.000 0.000
v 0.07560 -0.24120 2.71980 0.000 0.000 0.000
v 0.07380 -0.25380 2.74320 0.000 0.000 0.000
v 0.06840 -0.25020 2.74500 0.000 0.000 0.000
v 0.06840 -0.25740 2.76120 0.000 0.000 0.000
v 0.07200 -0.26100 2.75940 0.000 0.000 0.000
v 0.06840 -0.27360 2.78100 0.000 0.000 0.000
v 0.06660 -0.26640 2.77560 0.000 0.000 0.000
v 0.03420 -0.27360 2.75400 0.000 0.000 0.000
v 0.03420 -0.27000 2.75040 0.000 0.000 0.000
v 0.06660 -0.26100 2.76480 0.000 0.000 0.000
v 0.06840 -0.25740 2.76120 0.000 0.000 0.000
v 0.04860 -0.25020 2.73240 0.000 0.000 0.000
v 0.07380 -0.24120 2.73060 0.000 0.000 0.000
v 0.07380 -0.25020 2.73780 0.000 0.000 0.000
v 0.05220 -0.25920 2.73960 0.000 0.000 0.000
v 0.02700 -0.26640 2.74680 0.000 0.000 0.000
v 0.03420 -0.27000 2.75040 0.000 0.000 0.000
v 0.02520 -0.28260 2.76840 0.000 0.000 0.000
v 0.01980 -0.27900 2.76840 0.000 0.000 0.000
v 0.02520 -0.28440 2.77020 0.000 0.000 0.000
v 0.01440 -0.28080 2.77020 0.000 0.000 0.000
v 0.03060 -0.28080 2.77020 0.000 0.000 0.000
v 0.03420 -0.27720 2.77560 0.000 0.000 0.000
v 0.09540 -0.23940 2.74320 0.000 0.000 0.000
v 0.09360 -0.24840 2.74860 0.000 0.000 0.000
v 0.11520 -0.24480 2.76660 0.000 0.000 0.000
v 0.10800 -0.25200 2.76840 0.000 0.000 0.000
v 0.11340 -0.26100 2.78820 0.000 0.000 0.000
v 0.11700 -0.25560 2.79180 0.000 0.000 0.000
v 0.11340 -0.26280 2.79180 0.000 0.000 0.000
v 0.12060 -0.25560 2.79540 0.000 0.000 0.000
v 0.10800 -0.26280 2.78820 0.000 0.000 0.000
v 0.10080 -0.26100 2.79000 0.000 0.000 0.000
v 0.02160 -0.28800 2.78820 0.000 0.000 0.000
v 0.02520 -0.28440 2.77020 0.000 0.000 0.000
v 0.03420 -0.27720 2.77560 0.000 0.000 0.000
v 0.01440 -0.28080 2.77020 0.000 0.000 0.000
v 0.02520 -0.28440 2.77020 0.000 0.000 0.000
v 0.02160 -0.28800 2.78820 0.000 0.000 0.000
v 0.07380 -0.25380 2.74320 0.000 0.000 0.000
v 0.07560 -0.24120 2.71980 0.000 0.000 0.000
v 0.07560 -0.23940 2.72700 0.000 0.000 0.000
v 0.07380 -0.24840 2.74680 0.000 0.000 0.000
v 0.07200 -0.25740 2.76120 0.000 0.000 0.000
v 0.07200 -0.26100 2.75940 0.000 0.000 0.000
v 0.06840 -0.27360 2.78100 0.000 0.000 0.000
v 0.07020 -0.26460 2.77740 0.000 0.000 0.000
v 0.10800 -0.25560 2.77200 0.000 0.000 0.000
v 0.07200 -0.25920 2.76660 0.000 0.000 0.000
v 0.10800 -0.25200 2.76840 0.000 0.000 0.000
v 0.07200 -0.25740 2.76120 0.000 0.000 0.000
v 0.10980 -0.26640 2.80800 0.000 0.000 0.000
v 0.10080 -0.26100 2.79000 0.000 0.000 0.000
v 0.11340 -0.26280 2.79180 0.000 0.000 0.000
v 0.10980 -0.26640 2.80800 0.000 0.000 0.000
v 0.11340 -0.26280 2.79180 0.000 0.000 0.000
v 0.12060 -0.25560 2.79540 0.000 0.000 0.000
v 0.05940 -0.29340 2.84580 0.000 0.000 0.000
v 0.05940 -0.23760 2.79000 0.000 0.000 0.000
v 0.01440 -0.29340 2.81340 0.000 0.000 0.000
v -0.00180 -0.27360 2.76120 0.000 0.000 0.000
v 0.02520 -0.24480 2.72160 0.000 0.000 0.000
v 0.07380 -0.22500 2.71260 0.000 0.000 0.000
v 0.10800 -0.27180 2.83500 0.000 0.000 0.000
v 0.13320 -0.24120 2.79360 0.000 0.000 0.000
v 0.11700 -0.22320 2.74320 0.000 0.000 0.000
v 0.03420 -0.25020 2.72700 0.000 0.000 0.000
v 0.07380 -0.23220 2.71800 0.000 0.000 0.000
v 0.06840 -0.26280 2.77560 0.000 0.000 0.000
v 0.10980 -0.23220 2.74500 0.000 0.000 0.000
v 0.00720 -0.27720 2.76120 0.000 0.000 0.000
v 0.12780 -0.24840 2.79000 0.000 0.000 0.000
v 0.02700 -0.28980 2.80260 0.000 0.000 0.000
v 0.10080 -0.27180 2.82060 0.000 0.000 0.000
v 0.06120 -0.29160 2.83320 0.000 0.000 0.000
v 0.03420 -0.25020 2.72700 0.000 0.000 0.000
v 0.07380 -0.22500 2.71260 0.000 0.000 0.000
v 0.07380 -0.23220 2.71800 0.000 0.000 0.000
v 0.02520 -0.24480 2.72160 0.000 0.000 0.000
v 0.10980 -0.23220 2.74500 0.000 0.000 0.000
v 0.11700 -0.22320 2.74320 0.000 0.000 0.000
v 0.00720 -0.27720 2.76120 0.000 0.000 0.000
v -0.00180 -0.27360 2.76120 0.000 0.000 0.000
v 0.12780 -0.24840 2.79000 0.000 0.000 0.000
v 0.13320 -0.24120 2.79360 0.000 0.000 0.000
v 0.01440 -0.29340 2.81340 0.000 0.000 0.000
v 0.02700 -0.28980 2.80260 0.000 0.000 0.000
v 0.10800 -0.27180 2.83500 0.000 0.000 0.000
v 0.10080 -0.27180 2.82060 0.000 0.000 0.000
v 0.06120 -0.29160 2.83320 0.000 0.000 0.000
v 0.05940 -0.29340 2.84580 0.000 0.000 0.000
v -0.03420 -0.24120 2.90340 0.000 0.000 0.000
v -0.00900 -0.27900 2.80980 0.000 0.000 0.000
v 0.12960 -0.26640 2.85660 0.000 0.000 0.000
v 0.09360 -0.19620 2.95380 0.000 0.000 0.000
v 0.18540 -0.12960 2.98980 0.000 0.000 0.000
v 0.25740 -0.16920 2.90340 0.000 0.000 0.000
v 0.24480 -0.14940 2.86020 0.000 0.000 0.000
v 0.11160 -0.23400 2.82780 0.000 0.000 0.000
v -0.00720 -0.27180 2.79360 0.000 0.000 0.000
v 0.31860 0.00000 2.91960 0.000 0.000 0.000
v 0.28260 0.00000 2.98260 0.000 0.000 0.000
v 0.09360 -0.20160 2.82240 0.000 0.000 0.000
v 0.19980 -0.13140 2.85300 0.000 0.000 0.000
v 0.01260 -0.10620 2.99160 0.000 0.000 0.000
v -0.05400 -0.11520 2.95920 0.000 0.000 0.000
v -0.06660 0.00000 2.98260 0.000 0.000 0.000
v 0.05400 -0.05760 3.00960 0.000 0.000 0.000
v 0.07380 0.00000 3.02040 0.000 0.000 0.000
v 0.21960 0.00000 3.00600 0.000 0.000 0.000
v 0.24480 0.00000 2.86380 0.000 0.000 0.000
v 0.27900 0.00000 2.86740 0.000 0.000 0.000
v 0.30420 0.00000 2.88720 0.000 0.000 0.000
v -0.00360 -0.25920 2.78280 0.000 0.000 0.000
v -0.00360 -0.24300 2.78100 0.000 0.000 0.000
v -0.10800 -0.09540 2.93400 0.000 0.000 0.000
v -0.13140 -0.19620 2.87100 0.000 0.000 0.000
v -0.15120 -0.25380 2.76480 0.000 0.000 0.000
v -0.22500 -0.12960 2.84220 0.000 0.000 0.000
v -0.25200 -0.16920 2.74500 0.000 0.000 0.000
v -0.23940 -0.15660 2.71800 0.000 0.000 0.000
v -0.12420 -0.25020 2.74860 0.000 0.000 0.000
v -0.28080 0.00000 2.71260 0.000 0.000 0.000
v -0.29880 0.00000 2.73240 0.000 0.000 0.000
v -0.26820 0.00000 2.82960 0.000 0.000 0.000
v -0.25560 0.00000 2.70900 0.000 0.000 0.000
v -0.10440 -0.20160 2.75400 0.000 0.000 0.000
v -0.20160 -0.13140 2.72880 0.000 0.000 0.000
v -0.14400 -0.05580 2.92320 0.000 0.000 0.000
v -0.16560 0.00000 2.91600 0.000 0.000 0.000
v -0.24480 0.00000 2.71620 0.000 0.000 0.000
v -0.25200 0.16920 2.74500 0.000 0.000 0.000
v -0.23940 0.15660 2.71800 0.000 0.000 0.000
v -0.15120 0.25380 2.76480 0.000 0.000 0.000
v -0.12420 0.25020 2.74860 0.000 0.000 0.000
v -0.00900 0.28620 2.80980 0.000 0.000 0.000
v -0.00720 0.27180 2.79360 0.000 0.000 0.000
v -0.22500 0.12960 2.84220 0.000 0.000 0.000
v -0.13140 0.19620 2.87100 0.000 0.000 0.000
v -0.03420 0.24120 2.90340 0.000 0.000 0.000
v 0.12960 0.26640 2.85660 0.000 0.000 0.000
v 0.11160 0.23400 2.82780 0.000 0.000 0.000
v 0.24480 0.14940 2.86020 0.000 0.000 0.000
v 0.25740 0.16920 2.90340 0.000 0.000 0.000
v 0.18540 0.12960 2.98980 0.000 0.000 0.000
v 0.09360 0.19620 2.95380 0.000 0.000 0.000
v 0.01260 0.10620 2.99160 0.000 0.000 0.000
v 0.09360 0.20160 2.82240 0.000 0.000 0.000
v 0.19980 0.13140 2.85300 0.000 0.000 0.000
v -0.00360 0.24300 2.78100 0.000 0.000 0.000
v -0.00360 0.25920 2.78280 0.000 0.000 0.000
v -0.10440 0.20160 2.75400 0.000 0.000 0.000
v -0.20160 0.13140 2.72880 0.000 0.000 0.000
v -0.05400 0.11520 2.95920 0.000 0.000 0.000
v -0.10800 0.09540 2.93400 0.000 0.000 0.000
v -0.14400 0.05580 2.92320 0.000 0.000 0.000
v 0.05400 0.05760 3.00960 0.000 0.000 0.000
v 0.10620 -0.19980 2.75040 0.000 0.000 0.000
v 0.00720 -0.24120 2.72700 0.000 0.000 0.000
v 0.00360 0.00000 2.75580 0.000 0.000 0.000
v 0.21960 -0.12960 2.77380 0.000 0.000 0.000
v 0.26280 0.00000 2.78460 0.000 0.000 0.000
v -0.09360 -0.19980 2.70000 0.000 0.000 0.000
v -0.18900 -0.12960 2.67480 0.000 0.000 0.000
v -0.23220 0.00000 2.66220 0.000 0.000 0.000
v 0.21960 0.12960 2.77380 0.000 0.000 0.000
v 0.10620 0.19980 2.75040 0.000 0.000 0.000
v 0.00720 0.24120 2.72700 0.000 0.000 0.000
v -0.09360 0.19980 2.70000 0.000 0.000 0.000
v -0.18900 0.12960 2.67480 0.000 0.000 0.000
v -0.00360 -0.24300 2.78100 0.000 0.000 0.000
v 0.00720 -0.24120 2.72700 0.000 0.000 0.000
v 0.10620 -0.19980 2.75040 0.000 0.000 0.000
v 0.09360 -0.20160 2.82240 0.000 0.000 0.000
v 0.21960 -0.12960 2.77380 0.000 0.000 0.000
v 0.19980 -0.13140 2.85300 0.000 0.000 0.000
v 0.26280 0.00000 2.78460 0.000 0.000 0.000
v 0.24480 0.00000 2.86380 0.000 0.000 0.000
v -0.09360 -0.19980 2.70000 0.000 0.000 0.000
v -0.10440 -0.20160 2.75400 0.000 0.000 0.000
v -0.18900 -0.12960 2.67480 0.000 0.000 0.000
v -0.20160 -0.13140 2.72880 0.000 0.000 0.000
v -0.23220 0.00000 2.66220 0.000 0.000 0.000
v -0.24480 0.00000 2.71620 0.000 0.000 0.000
v 0.19980 0.13140 2.85300 0.000 0.000 0.000
v 0.21960 0.12960 2.77380 0.000 0.000 0.000
v 0.09360 0.20160 2.82240 0.000 0.000 0.000
v 0.10620 0.19980 2.75040 0.000 0.000 0.000
v -0.00360 0.24300 2.78100 0.000 0.000 0.000
v 0.00720 0.24120 2.72700 0.000 0.000 0.000
v -0.09360 0.19980 2.70000 0.000 0.000 0.000
v -0.10440 0.20160 2.75400 0.000 0.000 0.000
v -0.20160 0.13140 2.72880 0.000 0.000 0.000
v -0.18900 0.12960 2.67480 0.000 0.000 0.000
vt 0.63281 0.83594
vt 0.50781 0.71094
vt 0.50781 0.83594
vt 0.32031 0.71094
vt 0.22656 0.71094
vt 0.00781 0.83594
vt 0.50781 0.71094
vt 0.50781 0.83594
vt 0.63281 0.83594
vt 0.32031 0.71094
vt 0.22656 0.71094
vt 0.00781 0.83594
vt 0.03906 0.83594
vt 0.47656 0.83594
vt 0.00781 0.71094
vt 0.24219 0.71094
vt 0.32031 0.71094
vt 0.44531 0.71094
vt 0.63281 0.83594
vt 0.42969 0.85156
vt 0.21094 0.99219
vt 0.21094 0.85156
vt 0.42969 0.99219
vt 0.21094 0.85156
vt 0.21094 0.99219
vt 0.42969 0.99219
vt 0.42969 0.85156
vt 0.21094 0.99219
vt 0.21094 0.85156
vt 0.42969 0.85156
vt 0.42969 0.99219
vt 0.21094 0.85156
vt 0.21094 0.99219
vt 0.42969 0.85156
vt 0.42969 0.99219
vt 0.21094 0.86719
vt 0.21094 0.99219
vt 0.35156 0.99219
vt 0.35156 0.86719
vt 0.21094 0.86719
vt 0.21094 0.99219
vt 0.41406 0.99219
vt 0.38281 0.86719
vt 0.63281 0.96094
vt 0.63281 0.85156
vt 0.21094 0.96094
vt 0.21094 0.85156
vt 0.22656 0.50781
vt 0.00781 0.50781
vt 0.00781 0.58594
vt 0.22656 0.58594
vt 0.02344 0.50781
vt 0.02344 0.58594
vt 0.24219 0.53906
vt 0.24219 0.50781
vt 0.25744 0.53906
vt 0.25744 0.50781
vt 0.24219 0.58594
vt 0.25744 0.58594
vt 0.22656 0.50781
vt 0.22656 0.58594
vt 0.02344 0.50781
vt 0.02344 0.58594
vt 0.24219 0.53906
vt 0.24219 0.50781
vt 0.25744 0.53906
vt 0.25744 0.50781
vt 0.24219 0.58594
vt 0.25744 0.58594
vt 0.21094 0.97656
vt 0.21094 0.88281
vt 0.52344 0.88281
vt 0.02344 0.57031
vt 0.24219 0.55469
vt 0.24219 0.58594
vt 0.08594 0.53906
vt 0.13281 0.53906
vt 0.13281 0.49219
vt 0.08594 0.49219
vt 0.13281 0.49219
vt 0.13281 0.53906
vt 0.19531 0.53906
vt 0.21094 0.49219
vt 0.63281 0.96094
vt 0.21094 0.96094
vt 0.63281 0.85156
vt 0.21094 0.85156
vt 0.21094 0.97656
vt 0.52344 0.88281
vt 0.21094 0.88281
vt 0.24219 0.58594
vt 0.24219 0.55469
vt 0.02344 0.57031
vt 0.55469 0.85156
vt 0.39844 0.85156
vt 0.57031 0.85156
vt 0.55469 0.85156
vt 0.57031 0.85156
vt 0.55469 0.85156
vt 0.57031 0.85156
vt 0.55469 0.85156
vt 0.57031 0.85156
vt 0.99219 0.78906
vt 0.99219 0.97619
vt 0.82031 0.97619
vt 0.99219 0.78906
vt 0.82031 0.78906
vt 0.82031 0.78906
vt 0.64844 0.78906
vt 0.64844 0.78906
vt 0.64844 0.97619
vt 0.63281 0.85156
vt 0.21094 0.99219
vt 0.21094 0.85156
vt 0.63281 0.99219
vt 0.63281 0.85156
vt 0.63281 0.99219
vt 0.21094 0.85156
vt 0.21094 0.99219
vt 0.21094 0.85156
vt 0.21094 0.99219
vt 0.63281 0.99219
vt 0.63281 0.85156
vt 0.63281 0.99219
vt 0.63281 0.85156
vt 0.21094 0.85156
vt 0.21094 0.99219
vt 0.30469 0.50781
vt 0.17969 0.32031
vt 0.41406 0.32031
vt 0.53906 0.50781
vt 0.77344 0.50781
vt 0.74219 0.32031
vt 0.74219 0.17969
vt 0.41406 0.14844
vt 0.08594 0.11719
vt 0.99219 0.32031
vt 0.99219 0.42969
vt 0.38281 0.00781
vt 0.74219 0.00781
vt 0.69531 0.64844
vt 0.57031 0.64844
vt 0.99219 0.75781
vt 0.88281 0.64844
vt 0.99219 0.64844
vt 0.99219 0.50781
vt 0.99219 0.00781
vt 0.99219 0.08594
vt 0.99219 0.14844
vt 0.05469 0.07031
vt 0.08594 0.00781
vt 0.69531 0.64844
vt 0.53906 0.50781
vt 0.41406 0.32031
vt 0.77344 0.50781
vt 0.74219 0.32031
vt 0.74219 0.17969
vt 0.41406 0.14844
vt 0.99219 0.14844
vt 0.99219 0.32031
vt 0.99219 0.50781
vt 0.99219 0.08594
vt 0.38281 0.00781
vt 0.74219 0.00781
vt 0.88281 0.64844
vt 0.99219 0.64844
vt 0.99219 0.00781
vt 0.74219 0.32031
vt 0.74219 0.17969
vt 0.41406 0.32031
vt 0.41406 0.14844
vt 0.17969 0.32031
vt 0.08594 0.11719
vt 0.77344 0.50781
vt 0.53906 0.50781
vt 0.30469 0.50781
vt 0.41406 0.32031
vt 0.41406 0.14844
vt 0.74219 0.17969
vt 0.74219 0.32031
vt 0.77344 0.50781
vt 0.53906 0.50781
vt 0.69531 0.64844
vt 0.38281 0.00781
vt 0.74219 0.00781
vt 0.08594 0.00781
vt 0.05469 0.07031
vt 0.38281 0.00781
vt 0.74219 0.00781
vt 0.57031 0.64844
vt 0.69531 0.64844
vt 0.88281 0.64844
vt 0.88281 0.64844
vt 0.33594 0.61719
vt 0.33594 0.61719
vt 0.19531 0.61719
vt 0.33594 0.61719
vt 0.33594 0.61719
vt 0.33594 0.61719
vt 0.33594 0.61719
vt 0.33594 0.61719
vt 0.33594 0.61719
vt 0.33594 0.61719
vt 0.33594 0.61719
vt 0.33594 0.61719
vt 0.33594 0.61719
vt 0.35156 0.69531
vt 0.35156 0.60156
vt 0.24219 0.60156
vt 0.24219 0.69531
vt 0.11719 0.60156
vt 0.11719 0.69531
vt 0.00781 0.60156
vt 0.00781 0.69531
vt 0.24219 0.60156
vt 0.24219 0.69531
vt 0.11719 0.60156
vt 0.11719 0.69531
vt 0.00781 0.60156
vt 0.00781 0.69531
vt 0.11719 0.69531
vt 0.11719 0.60156
vt 0.24219 0.69531
vt 0.24219 0.60156
vt 0.35156 0.69531
vt 0.35156 0.60156
vt 0.24219 0.60156
vt 0.24219 0.69531
vt 0.11719 0.69531
vt 0.11719 0.60156
usemtl m0
f 1/1 2/2 3/3
f 2/2 4/4 3/3
f 4/4 5/5 3/3
f 5/5 6/6 3/3
f 7/7 8/8 9/9
f 7/7 10/10 8/8
f 10/10 11/11 8/8
f 11/11 12/12 8/8
f 13/13 14/14 15/15
f 14/14 16/16 15/15
f 14/14 17/17 16/16
f 18/18 17/17 14/14
f 19/19 18/18 14/14
f 20/20 21/21 22/22
f 20/20 23/23 21/21
f 20/20 24/24 23/23
f 24/24 25/25 23/23
f 24/24 26/26 25/25
f 24/24 27/27 26/26
f 26/26 27/27 28/28
f 27/27 29/29 28/28
f 22/22 21/21 30/30
f 21/21 31/31 30/30
f 31/31 32/32 30/30
f 31/31 33/33 32/32
f 28/28 29/29 34/34
f 35/35 34/34 32/32
f 35/35 28/28 34/34
f 33/33 35/35 32/32
f 36/36 37/37 38/38
f 39/39 36/36 38/38
f 39/39 38/38 40/40
f 40/40 38/38 41/41
f 40/40 41/41 42/42
f 43/43 40/40 42/42
f 44/44 45/45 46/46
f 46/46 45/45 47/47
f 48/48 49/49 50/50
f 51/51 48/48 50/50
f 52/52 48/48 51/51
f 52/52 51/51 53/53
f 54/54 52/52 53/53
f 55/55 52/52 54/54
f 55/55 54/54 56/56
f 57/57 55/55 56/56
f 56/56 54/54 58/58
f 54/54 53/53 58/58
f 56/56 58/58 59/59
f 50/50 49/49 60/60
f 61/61 50/50 60/60
f 61/61 60/60 62/62
f 63/63 61/61 62/62
f 63/63 62/62 64/64
f 64/64 62/62 65/65
f 66/66 64/64 65/65
f 66/66 65/65 67/67
f 68/68 64/64 66/66
f 68/68 63/63 64/64
f 69/69 68/68 66/66
f 70/70 71/71 72/72
f 73/73 74/74 75/75
f 76/76 77/77 78/78
f 76/76 78/78 79/79
f 80/80 76/76 79/79
f 81/81 76/76 80/80
f 82/82 81/81 80/80
f 82/82 80/80 83/83
f 84/84 85/85 86/86
f 85/85 87/87 86/86
f 88/88 89/89 90/90
f 91/91 92/92 93/93
f 94/94 95/95 96/96
f 95/95 97/97 96/96
f 95/95 98/98 97/97
f 95/95 99/99 98/98
f 100/100 95/95 94/94
f 101/101 95/95 100/100
f 102/102 99/99 95/95
f 101/101 102/102 95/95
f 103/103 104/104 105/105
f 105/105 104/104 106/106
f 107/107 103/103 105/105
f 105/105 106/106 108/108
f 109/109 107/107 105/105
f 110/110 105/105 108/108
f 109/109 105/105 111/111
f 111/111 105/105 110/110
f 112/112 113/113 114/114
f 115/115 113/113 112/112
f 114/114 113/113 116/116
f 116/116 113/113 117/117
f 118/118 115/115 112/112
f 119/119 115/115 118/118
f 116/116 117/117 120/120
f 120/120 117/117 121/121
f 119/119 118/118 122/122
f 122/122 118/118 123/123
f 124/124 120/120 121/121
f 125/125 120/120 124/124
f 122/122 123/123 126/126
f 126/126 125/125 124/124
f 127/127 122/122 126/126
f 127/127 126/126 124/124
f 128/128 129/129 130/130
f 128/128 130/130 131/131
f 131/131 130/130 132/132
f 132/132 130/130 133/133
f 133/133 130/130 134/134
f 130/130 135/135 134/134
f 130/130 136/136 135/135
f 129/129 136/136 130/130
f 133/133 134/134 137/137
f 132/132 133/133 138/138
f 138/138 133/133 137/137
f 135/135 139/139 134/134
f 134/134 139/139 140/140
f 141/141 131/131 132/132
f 141/141 128/128 131/131
f 142/142 128/128 141/141
f 143/143 142/142 141/141
f 144/144 143/143 141/141
f 141/141 132/132 144/144
f 144/144 132/132 145/145
f 145/145 143/143 144/144
f 145/145 132/132 146/146
f 132/132 138/138 146/146
f 134/134 140/140 147/147
f 148/148 134/134 147/147
f 149/149 134/134 148/148
f 137/137 134/134 149/149
f 136/136 150/150 135/135
f 150/150 151/151 135/135
f 135/135 151/151 139/139
f 143/143 152/152 142/142
f 152/152 153/153 142/142
f 142/142 153/153 128/128
f 153/153 154/154 128/128
f 155/155 154/154 153/153
f 152/152 155/155 153/153
f 155/155 156/156 154/154
f 156/156 157/157 154/154
f 154/154 157/157 158/158
f 150/150 158/158 151/151
f 154/154 158/158 129/129
f 128/128 154/154 129/129
f 129/129 158/158 136/136
f 136/136 158/158 150/150
f 156/156 159/159 157/157
f 160/160 159/159 156/156
f 161/161 160/160 156/156
f 161/161 156/156 155/155
f 159/159 162/162 157/157
f 158/158 157/157 163/163
f 163/163 157/157 164/164
f 165/165 155/155 152/152
f 143/143 165/165 152/152
f 166/166 161/161 155/155
f 166/166 155/155 165/165
f 143/143 166/166 165/165
f 157/157 167/167 164/164
f 157/157 162/162 167/167
f 151/151 158/158 163/163
f 168/168 159/159 160/160
f 168/168 160/160 161/161
f 169/169 159/159 168/168
f 169/169 162/162 159/159
f 167/167 162/162 169/169
f 170/170 169/169 168/168
f 171/171 169/169 170/170
f 172/172 171/171 170/170
f 173/173 171/171 172/172
f 170/170 168/168 174/174
f 175/175 170/170 174/174
f 176/176 170/170 175/175
f 172/172 170/170 176/176
f 177/177 172/172 176/176
f 177/177 173/173 172/172
f 178/178 173/173 177/177
f 179/179 178/178 177/177
f 179/179 177/177 180/180
f 137/137 179/179 180/180
f 180/180 177/177 181/181
f 181/181 177/177 182/182
f 182/182 177/177 176/176
f 182/182 176/176 183/183
f 181/181 182/182 183/183
f 138/138 180/180 181/181
f 137/137 180/180 138/138
f 179/179 184/184 178/178
f 185/185 184/184 179/179
f 147/147 185/185 179/179
f 147/147 179/179 148/148
f 148/148 179/179 149/149
f 149/149 179/179 137/137
f 184/184 186/186 178/178
f 178/178 186/186 187/187
f 178/178 187/187 173/173
f 187/187 171/171 173/173
f 186/186 171/171 187/187
f 188/188 171/171 186/186
f 188/188 169/169 171/171
f 189/189 169/169 188/188
f 189/189 167/167 169/169
f 183/183 190/190 143/143
f 190/190 191/191 143/143
f 190/190 175/175 191/191
f 176/176 175/175 190/190
f 191/191 192/192 143/143
f 191/191 174/174 192/192
f 175/175 174/174 191/191
f 192/192 174/174 166/166
f 192/192 166/166 143/143
f 174/174 161/161 166/166
f 174/174 168/168 161/161
f 183/183 176/176 190/190
f 183/183 143/143 193/193
f 193/193 143/143 145/145
f 145/145 181/181 193/193
f 193/193 181/181 183/183
f 146/146 181/181 145/145
f 146/146 138/138 181/181
f 194/194 195/195 196/196
f 197/197 194/194 196/196
f 197/197 196/196 198/198
f 195/195 199/199 196/196
f 199/199 200/200 196/196
f 200/200 201/201 196/196
f 198/198 196/196 202/202
f 196/196 203/203 202/202
f 196/196 204/204 203/203
f 196/196 205/205 204/204
f 196/196 206/206 205/205
f 196/196 201/201 206/206
f 207/207 208/208 209/209
f 207/207 209/209 210/210
f 210/210 209/209 211/211
f 210/210 211/211 212/212
f 212/212 211/211 213/213
f 212/212 213/213 214/214
f 207/207 215/215 208/208
f 216/216 215/215 207/207
f 216/216 217/217 215/215
f 218/218 217/217 216/216
f 218/218 219/219 217/217
f 220/220 219/219 218/218
f 214/214 213/213 221/221
f 213/213 222/222 221/221
f 221/221 222/222 223/223
f 222/222 224/224 223/223
f 223/223 224/224 225/225
f 224/224 226/226 225/225
f 226/226 227/227 225/225
f 225/225 227/227 228/228
f 229/229 219/219 220/220
f 230/230 219/219 229/229
f 227/227 230/230 228/228
f 228/228 230/230 229/229
