mtllib acce571.mtl
o acce571
v 0.09648 0.76662 2.68326 0.000 0.000 0.000
v 0.11646 0.81540 2.73384 0.000 0.000 0.000
v 0.08424 0.76320 2.73528 0.000 0.000 0.000
v 0.15084 0.81540 2.59020 0.000 0.000 0.000
v 0.13104 0.77562 2.59110 0.000 0.000 0.000
v 0.01494 0.74952 2.81700 0.000 0.000 0.000
v 0.05346 0.81540 2.80836 0.000 0.000 0.000
v -0.02664 0.81540 2.83788 0.000 0.000 0.000
v -0.06336 0.76014 2.84976 0.000 0.000 0.000
v -0.05796 0.73152 2.83482 0.000 0.000 0.000
v -0.13014 0.74718 2.83950 0.000 0.000 0.000
v -0.14526 0.81540 2.84220 0.000 0.000 0.000
v -0.01800 0.70884 2.79936 0.000 0.000 0.000
v -0.20214 0.81540 2.81196 0.000 0.000 0.000
v -0.17442 0.72036 2.72070 0.000 0.000 0.000
v -0.19548 0.81540 2.74932 0.000 0.000 0.000
v -0.10224 0.70416 2.80728 0.000 0.000 0.000
v -0.10278 0.68184 2.74230 0.000 0.000 0.000
v -0.05994 0.68022 2.77434 0.000 0.000 0.000
v -0.06336 0.66780 2.67858 0.000 0.000 0.000
v -0.00504 0.68076 2.76192 0.000 0.000 0.000
v 0.03528 0.70308 2.75202 0.000 0.000 0.000
v 0.01350 0.67554 2.68542 0.000 0.000 0.000
v 0.06786 0.72882 2.63790 0.000 0.000 0.000
v 0.06336 0.73404 2.68488 0.000 0.000 0.000
v 0.08928 0.74160 2.59632 0.000 0.000 0.000
v 0.03762 0.71064 2.70846 0.000 0.000 0.000
v 0.06066 0.73494 2.75292 0.000 0.000 0.000
v 0.06786 0.72882 2.63790 0.000 0.000 0.000
v -0.03114 0.81540 2.70360 0.000 0.000 0.000
v 0.06678 0.77202 2.64978 0.000 0.000 0.000
v -0.06336 0.66780 2.67858 0.000 0.000 0.000
v -0.17442 0.72036 2.72070 0.000 0.000 0.000
v -0.19548 0.81540 2.74932 0.000 0.000 0.000
v -0.17442 0.91044 2.72070 0.000 0.000 0.000
v -0.06336 0.96300 2.67858 0.000 0.000 0.000
v 0.06786 0.90198 2.63790 0.000 0.000 0.000
v 0.06678 0.85878 2.64978 0.000 0.000 0.000
v 0.06570 0.81540 2.66166 0.000 0.000 0.000
v 0.09648 0.76662 2.68326 0.000 0.000 0.000
v 0.08424 0.76320 2.73528 0.000 0.000 0.000
v 0.05274 0.74484 2.71350 0.000 0.000 0.000
v 0.06066 0.73494 2.75292 0.000 0.000 0.000
v 0.06336 0.73404 2.68488 0.000 0.000 0.000
v 0.03762 0.71064 2.70846 0.000 0.000 0.000
v 0.03528 0.70308 2.75202 0.000 0.000 0.000
v 0.08424 0.86760 2.73528 0.000 0.000 0.000
v 0.09648 0.86418 2.68326 0.000 0.000 0.000
v 0.13104 0.85518 2.59110 0.000 0.000 0.000
v 0.01494 0.88128 2.81700 0.000 0.000 0.000
v -0.06336 0.87066 2.84976 0.000 0.000 0.000
v -0.05796 0.89928 2.83482 0.000 0.000 0.000
v -0.13014 0.88362 2.83950 0.000 0.000 0.000
v -0.01800 0.92196 2.79936 0.000 0.000 0.000
v -0.17442 0.91044 2.72070 0.000 0.000 0.000
v -0.10224 0.92664 2.80728 0.000 0.000 0.000
v -0.10278 0.94896 2.74230 0.000 0.000 0.000
v -0.06336 0.96300 2.67858 0.000 0.000 0.000
v -0.00504 0.95004 2.76192 0.000 0.000 0.000
v -0.05994 0.95058 2.77434 0.000 0.000 0.000
v 0.01350 0.95526 2.68542 0.000 0.000 0.000
v 0.03528 0.92772 2.75202 0.000 0.000 0.000
v 0.06786 0.90198 2.63790 0.000 0.000 0.000
v 0.06336 0.89676 2.68488 0.000 0.000 0.000
v 0.08928 0.88920 2.59632 0.000 0.000 0.000
v 0.03762 0.92016 2.70846 0.000 0.000 0.000
v 0.06066 0.89586 2.75292 0.000 0.000 0.000
v 0.05274 0.88596 2.71350 0.000 0.000 0.000
v 0.08424 0.86760 2.73528 0.000 0.000 0.000
v 0.09648 0.86418 2.68326 0.000 0.000 0.000
v 0.06066 0.89586 2.75292 0.000 0.000 0.000
v 0.06336 0.89676 2.68488 0.000 0.000 0.000
v 0.03762 0.92016 2.70846 0.000 0.000 0.000
v 0.03528 0.92772 2.75202 0.000 0.000 0.000
v 0.13104 0.77562 2.59110 0.000 0.000 0.000
v 0.06570 0.81540 2.66166 0.000 0.000 0.000
v 0.15084 0.81540 2.59020 0.000 0.000 0.000
v 0.13104 0.85518 2.59110 0.000 0.000 0.000
v 0.06678 0.77202 2.64978 0.000 0.000 0.000
v 0.08928 0.74160 2.59632 0.000 0.000 0.000
v 0.06678 0.85878 2.64978 0.000 0.000 0.000
v 0.08928 0.88920 2.59632 0.000 0.000 0.000
v 0.06786 0.90198 2.63790 0.000 0.000 0.000
v 0.06786 0.72882 2.63790 0.000 0.000 0.000
v -0.05796 0.73152 2.83482 0.000 0.000 0.000
v -0.10224 0.70416 2.80728 0.000 0.000 0.000
v -0.06696 0.70452 2.85894 0.000 0.000 0.000
v -0.09864 0.67356 2.83734 0.000 0.000 0.000
v -0.06390 0.64296 2.81790 0.000 0.000 0.000
v -0.05994 0.68022 2.77434 0.000 0.000 0.000
v -0.01800 0.70884 2.79936 0.000 0.000 0.000
v -0.02970 0.67320 2.84148 0.000 0.000 0.000
v -0.06696 0.70452 2.85894 0.000 0.000 0.000
v -0.09864 0.67356 2.83734 0.000 0.000 0.000
v -0.06534 0.67104 2.84166 0.000 0.000 0.000
v -0.06390 0.64296 2.81790 0.000 0.000 0.000
v -0.02970 0.67320 2.84148 0.000 0.000 0.000
v -0.06696 0.93690 2.86146 0.000 0.000 0.000
v -0.10224 0.92664 2.80728 0.000 0.000 0.000
v -0.05796 0.89928 2.83482 0.000 0.000 0.000
v -0.09864 0.97074 2.84436 0.000 0.000 0.000
v -0.07272 0.94788 2.90754 0.000 0.000 0.000
v -0.09864 0.97128 2.90718 0.000 0.000 0.000
v -0.09684 0.95058 2.95650 0.000 0.000 0.000
v -0.08100 0.93888 2.95290 0.000 0.000 0.000
v -0.08730 0.91818 2.98620 0.000 0.000 0.000
v -0.06390 1.00368 2.82942 0.000 0.000 0.000
v -0.05994 0.95058 2.77434 0.000 0.000 0.000
v -0.07308 0.99684 2.91276 0.000 0.000 0.000
v -0.09684 0.95058 2.95650 0.000 0.000 0.000
v -0.08316 0.96066 2.96658 0.000 0.000 0.000
v -0.01800 0.92196 2.79936 0.000 0.000 0.000
v -0.02970 0.97038 2.84850 0.000 0.000 0.000
v -0.04752 0.97074 2.91420 0.000 0.000 0.000
v -0.06696 0.95040 2.96064 0.000 0.000 0.000
v 0.09648 -0.86418 2.58606 0.000 0.000 0.000
v 0.11646 -0.81540 2.63664 0.000 0.000 0.000
v 0.08424 -0.86760 2.63808 0.000 0.000 0.000
v 0.15084 -0.81540 2.49300 0.000 0.000 0.000
v 0.13104 -0.85518 2.49390 0.000 0.000 0.000
v 0.01494 -0.88128 2.71980 0.000 0.000 0.000
v 0.05346 -0.81540 2.71116 0.000 0.000 0.000
v -0.02664 -0.81540 2.74068 0.000 0.000 0.000
v -0.06336 -0.87066 2.75256 0.000 0.000 0.000
v -0.05796 -0.89928 2.73762 0.000 0.000 0.000
v -0.13014 -0.88362 2.74230 0.000 0.000 0.000
v -0.14526 -0.81540 2.74500 0.000 0.000 0.000
v -0.01800 -0.92196 2.70216 0.000 0.000 0.000
v -0.20214 -0.81540 2.71476 0.000 0.000 0.000
v -0.17442 -0.91044 2.62350 0.000 0.000 0.000
v -0.19548 -0.81540 2.65212 0.000 0.000 0.000
v -0.10224 -0.92664 2.71008 0.000 0.000 0.000
v -0.10278 -0.94896 2.64510 0.000 0.000 0.000
v -0.05994 -0.95058 2.67714 0.000 0.000 0.000
v -0.06336 -0.96300 2.58138 0.000 0.000 0.000
v -0.00504 -0.95004 2.66472 0.000 0.000 0.000
v 0.03528 -0.92772 2.65482 0.000 0.000 0.000
v 0.01350 -0.95526 2.58822 0.000 0.000 0.000
v 0.06786 -0.90198 2.54070 0.000 0.000 0.000
v 0.06336 -0.89676 2.58768 0.000 0.000 0.000
v 0.08928 -0.88920 2.49912 0.000 0.000 0.000
v 0.03762 -0.92016 2.61126 0.000 0.000 0.000
v 0.06066 -0.89586 2.65572 0.000 0.000 0.000
v 0.06786 -0.90198 2.54070 0.000 0.000 0.000
v -0.03114 -0.81540 2.60640 0.000 0.000 0.000
v 0.06678 -0.85878 2.55258 0.000 0.000 0.000
v -0.06336 -0.96300 2.58138 0.000 0.000 0.000
v -0.17442 -0.91044 2.62350 0.000 0.000 0.000
v -0.19548 -0.81540 2.65212 0.000 0.000 0.000
v -0.17442 -0.72036 2.62350 0.000 0.000 0.000
v -0.06336 -0.66780 2.58138 0.000 0.000 0.000
v 0.06786 -0.72882 2.54070 0.000 0.000 0.000
v 0.06678 -0.77202 2.55258 0.000 0.000 0.000
v 0.06570 -0.81540 2.56446 0.000 0.000 0.000
v 0.09648 -0.86418 2.58606 0.000 0.000 0.000
v 0.08424 -0.86760 2.63808 0.000 0.000 0.000
v 0.05274 -0.88596 2.61630 0.000 0.000 0.000
v 0.06066 -0.89586 2.65572 0.000 0.000 0.000
v 0.06336 -0.89676 2.58768 0.000 0.000 0.000
v 0.03762 -0.92016 2.61126 0.000 0.000 0.000
v 0.03528 -0.92772 2.65482 0.000 0.000 0.000
v 0.08424 -0.76320 2.63808 0.000 0.000 0.000
v 0.09648 -0.76662 2.58606 0.000 0.000 0.000
v 0.13104 -0.77562 2.49390 0.000 0.000 0.000
v 0.01494 -0.74952 2.71980 0.000 0.000 0.000
v -0.06336 -0.76014 2.75256 0.000 0.000 0.000
v -0.05796 -0.73152 2.73762 0.000 0.000 0.000
v -0.13014 -0.74718 2.74230 0.000 0.000 0.000
v -0.01800 -0.70884 2.70216 0.000 0.000 0.000
v -0.17442 -0.72036 2.62350 0.000 0.000 0.000
v -0.10224 -0.70416 2.71008 0.000 0.000 0.000
v -0.10278 -0.68184 2.64510 0.000 0.000 0.000
v -0.06336 -0.66780 2.58138 0.000 0.000 0.000
v -0.00504 -0.68076 2.66472 0.000 0.000 0.000
v -0.05994 -0.68022 2.67714 0.000 0.000 0.000
v 0.01350 -0.67554 2.58822 0.000 0.000 0.000
v 0.03528 -0.70308 2.65482 0.000 0.000 0.000
v 0.06786 -0.72882 2.54070 0.000 0.000 0.000
v 0.06336 -0.73404 2.58768 0.000 0.000 0.000
v 0.08928 -0.74160 2.49912 0.000 0.000 0.000
v 0.03762 -0.71064 2.61126 0.000 0.000 0.000
v 0.06066 -0.73494 2.65572 0.000 0.000 0.000
v 0.05274 -0.74484 2.61630 0.000 0.000 0.000
v 0.08424 -0.76320 2.63808 0.000 0.000 0.000
v 0.09648 -0.76662 2.58606 0.000 0.000 0.000
v 0.06066 -0.73494 2.65572 0.000 0.000 0.000
v 0.06336 -0.73404 2.58768 0.000 0.000 0.000
v 0.03762 -0.71064 2.61126 0.000 0.000 0.000
v 0.03528 -0.70308 2.65482 0.000 0.000 0.000
v 0.13104 -0.85518 2.49390 0.000 0.000 0.000
v 0.06570 -0.81540 2.56446 0.000 0.000 0.000
v 0.15084 -0.81540 2.49300 0.000 0.000 0.000
v 0.13104 -0.77562 2.49390 0.000 0.000 0.000
v 0.06678 -0.85878 2.55258 0.000 0.000 0.000
v 0.08928 -0.88920 2.49912 0.000 0.000 0.000
v 0.06678 -0.77202 2.55258 0.000 0.000 0.000
v 0.08928 -0.74160 2.49912 0.000 0.000 0.000
v 0.06786 -0.72882 2.54070 0.000 0.000 0.000
v 0.06786 -0.90198 2.54070 0.000 0.000 0.000
v -0.05796 -0.89928 2.73762 0.000 0.000 0.000
v -0.10224 -0.92664 2.71008 0.000 0.000 0.000
v -0.06696 -0.92628 2.76174 0.000 0.000 0.000
v -0.09864 -0.95724 2.74014 0.000 0.000 0.000
v -0.06390 -0.98784 2.72070 0.000 0.000 0.000
v -0.05994 -0.95058 2.67714 0.000 0.000 0.000
v -0.01800 -0.92196 2.70216 0.000 0.000 0.000
v -0.02970 -0.95760 2.74428 0.000 0.000 0.000
v -0.06696 -0.92628 2.76174 0.000 0.000 0.000
v -0.09864 -0.95724 2.74014 0.000 0.000 0.000
v -0.06534 -0.95976 2.74446 0.000 0.000 0.000
v -0.06390 -0.98784 2.72070 0.000 0.000 0.000
v -0.02970 -0.95760 2.74428 0.000 0.000 0.000
v -0.06696 -0.69390 2.76426 0.000 0.000 0.000
v -0.10224 -0.70416 2.71008 0.000 0.000 0.000
v -0.05796 -0.73152 2.73762 0.000 0.000 0.000
v -0.09864 -0.66006 2.74716 0.000 0.000 0.000
v -0.07272 -0.68292 2.81034 0.000 0.000 0.000
v -0.09864 -0.65952 2.80998 0.000 0.000 0.000
v -0.09684 -0.68022 2.85930 0.000 0.000 0.000
v -0.08100 -0.69192 2.85570 0.000 0.000 0.000
v -0.08730 -0.71262 2.88900 0.000 0.000 0.000
v -0.06390 -0.62712 2.73222 0.000 0.000 0.000
v -0.05994 -0.68022 2.67714 0.000 0.000 0.000
v -0.07308 -0.63396 2.81556 0.000 0.000 0.000
v -0.09684 -0.68022 2.85930 0.000 0.000 0.000
v -0.08316 -0.67014 2.86938 0.000 0.000 0.000
v -0.01800 -0.70884 2.70216 0.000 0.000 0.000
v -0.02970 -0.66042 2.75130 0.000 0.000 0.000
v -0.04752 -0.66006 2.81700 0.000 0.000 0.000
v -0.06696 -0.68040 2.86344 0.000 0.000 0.000
v 0.06282 0.73044 2.68920 0.000 0.000 0.000
v 0.06192 0.74844 2.71116 0.000 0.000 0.000
v 0.05130 0.72342 2.71512 0.000 0.000 0.000
v 0.07938 0.74898 2.68794 0.000 0.000 0.000
v 0.05760 0.73566 2.73708 0.000 0.000 0.000
v 0.08640 0.76158 2.70792 0.000 0.000 0.000
v 0.07488 0.75474 2.73402 0.000 0.000 0.000
v 0.05130 0.90738 2.71512 0.000 0.000 0.000
v 0.06192 0.88236 2.71116 0.000 0.000 0.000
v 0.06282 0.90036 2.68920 0.000 0.000 0.000
v 0.07938 0.88182 2.68794 0.000 0.000 0.000
v 0.05760 0.89514 2.73708 0.000 0.000 0.000
v 0.08640 0.86922 2.70792 0.000 0.000 0.000
v 0.07488 0.87606 2.73402 0.000 0.000 0.000
v 0.06282 -0.90036 2.59200 0.000 0.000 0.000
v 0.06192 -0.88236 2.61396 0.000 0.000 0.000
v 0.05130 -0.90738 2.61792 0.000 0.000 0.000
v 0.07938 -0.88182 2.59074 0.000 0.000 0.000
v 0.05760 -0.89514 2.63988 0.000 0.000 0.000
v 0.08640 -0.86922 2.61072 0.000 0.000 0.000
v 0.07488 -0.87606 2.63682 0.000 0.000 0.000
v 0.05130 -0.72342 2.61792 0.000 0.000 0.000
v 0.06192 -0.74844 2.61396 0.000 0.000 0.000
v 0.06282 -0.73044 2.59200 0.000 0.000 0.000
v 0.07938 -0.74898 2.59074 0.000 0.000 0.000
v 0.05760 -0.73566 2.63988 0.000 0.000 0.000
v 0.08640 -0.76158 2.61072 0.000 0.000 0.000
v 0.07488 -0.75474 2.63682 0.000 0.000 0.000
v -0.14076 0.94482 2.75562 0.000 0.000 0.000
v -0.05544 0.81162 2.71548 0.000 0.000 0.000
v -0.12852 0.99036 2.69766 0.000 0.000 0.000
v -0.16686 0.93384 2.80962 0.000 0.000 0.000
v -0.16092 0.88992 2.83482 0.000 0.000 0.000
v -0.17964 0.81162 2.93076 1.000 0.000 0.000
v -0.06624 0.94464 2.62656 0.000 0.000 0.000
v -0.00954 0.91782 2.55024 0.000 0.000 0.000
v 0.04608 0.81162 2.53980 0.000 0.000 0.000
v -0.20736 0.87282 2.92932 0.000 0.000 0.000
v -0.16020 0.97902 2.76174 0.000 0.000 0.000
v -0.16650 0.96138 2.78676 0.000 0.000 0.000
v -0.19566 0.99342 2.81142 0.000 0.000 0.000
v -0.24984 0.84204 3.02778 1.000 0.000 0.000
v -0.25938 0.88056 3.01302 1.000 0.000 0.000
v -0.30960 0.84852 3.12588 1.000 0.000 0.000
v -0.19386 0.92016 2.86758 0.000 0.000 0.000
v -0.20646 0.95220 2.86326 1.000 0.000 0.000
v -0.22572 0.94104 2.90592 1.000 0.000 0.000
v -0.23526 0.91116 2.94660 1.000 0.000 0.000
v 0.05238 0.71226 2.60082 0.000 0.000 0.000
v 0.02700 0.67860 2.68038 0.000 0.000 0.000
v -0.01710 0.64890 2.76192 0.000 0.000 0.000
v -0.04212 0.68940 2.79126 0.000 0.000 0.000
v -0.04302 0.64440 2.82924 0.000 0.000 0.000
v -0.07812 0.64116 2.87910 0.000 0.000 0.000
v -0.06372 0.70344 2.81718 0.000 0.000 0.000
v -0.08136 0.68940 2.85912 1.000 0.000 0.000
v -0.13140 0.76770 2.88270 0.000 0.000 0.000
v -0.12402 0.71568 2.91186 1.000 0.000 0.000
v -0.10800 0.67104 2.92014 1.000 0.000 0.000
v -0.13518 0.68220 2.95830 1.000 0.000 0.000
v -0.20592 0.74268 3.03192 1.000 0.000 0.000
v -0.21330 0.77040 3.01338 1.000 0.000 0.000
v -0.25128 0.75348 3.08700 1.000 0.000 0.000
v -0.16560 0.71208 2.98674 1.000 0.000 0.000
v -0.04824 0.94392 2.80908 0.000 0.000 0.000
v -0.05814 0.81162 2.71404 0.000 0.000 0.000
v -0.00342 0.98910 2.76984 0.000 0.000 0.000
v -0.08208 0.93294 2.85858 0.000 0.000 0.000
v -0.10764 0.88938 2.86560 0.000 0.000 0.000
v -0.18234 0.81162 2.92914 1.000 0.000 0.000
v 0.02628 0.94374 2.68002 0.000 0.000 0.000
v 0.06354 0.91710 2.59254 0.000 0.000 0.000
v 0.04338 0.81162 2.53818 0.000 0.000 0.000
v -0.16632 0.87228 2.95290 1.000 0.000 0.000
v -0.04320 0.97776 2.82924 1.000 0.000 0.000
v -0.06210 0.96030 2.84706 0.000 0.000 0.000
v -0.06840 0.99216 2.88486 1.000 0.000 0.000
v -0.23094 0.84186 3.03876 1.000 0.000 0.000
v -0.21276 0.88020 3.04002 1.000 0.000 0.000
v -0.28584 0.87372 3.13956 1.000 0.000 0.000
v -0.11898 0.91944 2.91078 0.000 0.000 0.000
v -0.10854 0.95130 2.91978 1.000 0.000 0.000
v -0.13590 0.94014 2.95776 1.000 0.000 0.000
v -0.16686 0.91044 2.98602 1.000 0.000 0.000
v -0.02034 0.71586 2.55888 0.000 0.000 0.000
v -0.07092 0.67968 2.62386 0.000 0.000 0.000
v -0.13392 0.65664 2.69460 0.000 0.000 0.000
v -0.13212 0.69030 2.73924 0.000 0.000 0.000
v -0.16542 0.64548 2.75868 0.000 0.000 0.000
v -0.20106 0.64728 2.80818 1.000 0.000 0.000
v -0.14364 0.70434 2.77092 0.000 0.000 0.000
v -0.17136 0.69030 2.80710 1.000 0.000 0.000
v -0.16560 0.76806 2.86308 0.000 0.000 0.000
v -0.19530 0.71640 2.87064 0.000 0.000 0.000
v -0.21114 0.67212 2.86056 1.000 0.000 0.000
v -0.23040 0.68310 2.90322 1.000 0.000 0.000
v -0.25794 0.74322 3.00204 1.000 0.000 0.000
v -0.24678 0.78156 3.01500 1.000 0.000 0.000
v -0.28260 0.77202 3.06900 1.000 0.000 0.000
v -0.23940 0.71298 2.94408 1.000 0.000 0.000
v -0.12852 -0.99036 2.60046 0.000 0.000 0.000
v -0.05544 -0.81162 2.61828 0.000 0.000 0.000
v -0.14076 -0.94482 2.65842 0.000 0.000 0.000
v -0.16686 -0.93384 2.71242 0.000 0.000 0.000
v -0.16092 -0.88992 2.73762 0.000 0.000 0.000
v -0.17964 -0.81162 2.83356 0.000 0.000 0.000
v -0.06624 -0.94464 2.52936 0.000 0.000 0.000
v -0.00954 -0.91782 2.45304 0.000 0.000 0.000
v 0.04608 -0.81162 2.44260 0.000 0.000 0.000
v -0.20736 -0.87282 2.83212 0.000 0.000 0.000
v -0.16020 -0.97902 2.66454 0.000 0.000 0.000
v -0.16650 -0.96138 2.68956 0.000 0.000 0.000
v -0.19566 -0.99342 2.71422 0.000 0.000 0.000
v -0.24984 -0.84204 2.93058 1.000 0.000 0.000
v -0.25938 -0.88056 2.91582 1.000 0.000 0.000
v -0.30960 -0.84852 3.02868 1.000 0.000 0.000
v -0.19386 -0.92016 2.77038 0.000 0.000 0.000
v -0.20646 -0.95220 2.76606 0.000 0.000 0.000
v -0.22572 -0.94104 2.80872 1.000 0.000 0.000
v -0.23526 -0.91116 2.84940 0.000 0.000 0.000
v 0.05238 -0.71226 2.50362 0.000 0.000 0.000
v 0.02700 -0.67860 2.58318 0.000 0.000 0.000
v -0.01710 -0.64890 2.66472 0.000 0.000 0.000
v -0.04212 -0.68940 2.69406 0.000 0.000 0.000
v -0.04302 -0.64440 2.73204 0.000 0.000 0.000
v -0.07812 -0.64116 2.78190 0.000 0.000 0.000
v -0.06372 -0.70344 2.71998 0.000 0.000 0.000
v -0.08136 -0.68940 2.76192 0.000 0.000 0.000
v -0.13140 -0.76770 2.78550 0.000 0.000 0.000
v -0.12402 -0.71568 2.81466 0.000 0.000 0.000
v -0.10800 -0.67104 2.82294 0.000 0.000 0.000
v -0.13518 -0.68220 2.86110 1.000 0.000 0.000
v -0.20592 -0.74268 2.93472 1.000 0.000 0.000
v -0.21330 -0.77040 2.91618 1.000 0.000 0.000
v -0.25128 -0.75348 2.98980 1.000 0.000 0.000
v -0.16560 -0.71208 2.88954 0.000 0.000 0.000
v -0.00342 -0.98910 2.67264 0.000 0.000 0.000
v -0.05814 -0.81162 2.61684 0.000 0.000 0.000
v -0.04824 -0.94392 2.71188 0.000 0.000 0.000
v -0.08208 -0.93294 2.76138 0.000 0.000 0.000
v -0.10764 -0.88938 2.76840 0.000 0.000 0.000
v -0.18234 -0.81162 2.83194 0.000 0.000 0.000
v 0.02628 -0.94374 2.58282 0.000 0.000 0.000
v 0.06354 -0.91710 2.49534 0.000 0.000 0.000
v 0.04338 -0.81162 2.44098 0.000 0.000 0.000
v -0.16632 -0.87228 2.85570 0.000 0.000 0.000
v -0.04320 -0.97776 2.73204 0.000 0.000 0.000
v -0.06210 -0.96030 2.74986 0.000 0.000 0.000
v -0.06840 -0.99216 2.78766 1.000 0.000 0.000
v -0.23094 -0.84186 2.94156 1.000 0.000 0.000
v -0.21276 -0.88020 2.94282 1.000 0.000 0.000
v -0.28584 -0.87372 3.04236 1.000 0.000 0.000
v -0.11898 -0.91944 2.81358 0.000 0.000 0.000
v -0.10854 -0.95130 2.82258 0.000 0.000 0.000
v -0.13590 -0.94014 2.86056 0.000 0.000 0.000
v -0.16686 -0.91044 2.88882 1.000 0.000 0.000
v -0.02034 -0.71586 2.46168 0.000 0.000 0.000
v -0.07092 -0.67968 2.52666 0.000 0.000 0.000
v -0.13392 -0.65664 2.59740 0.000 0.000 0.000
v -0.13212 -0.69030 2.64204 0.000 0.000 0.000
v -0.16542 -0.64548 2.66148 0.000 0.000 0.000
v -0.20106 -0.64728 2.71098 0.000 0.000 0.000
v -0.14364 -0.70434 2.67372 0.000 0.000 0.000
v -0.17136 -0.69030 2.70990 0.000 0.000 0.000
v -0.16560 -0.76806 2.76588 0.000 0.000 0.000
v -0.19530 -0.71640 2.77344 0.000 0.000 0.000
v -0.21114 -0.67212 2.76336 0.000 0.000 0.000
v -0.23040 -0.68310 2.80602 0.000 0.000 0.000
v -0.25794 -0.74322 2.90484 0.000 0.000 0.000
v -0.24678 -0.78156 2.91780 1.000 0.000 0.000
v -0.28260 -0.77202 2.97180 1.000 0.000 0.000
v -0.23940 -0.71298 2.84688 1.000 0.000 0.000
v -0.01998 0.97074 2.50110 0.000 0.000 0.000
v -0.09144 1.02654 2.60442 0.000 0.000 0.000
v -0.06624 0.94464 2.62656 0.000 0.000 0.000
v -0.00954 0.91782 2.55024 0.000 0.000 0.000
v 0.07650 0.81162 2.48706 0.000 0.000 0.000
v 0.04608 0.81162 2.53980 0.000 0.000 0.000
v 0.09432 0.71262 2.53620 0.000 0.000 0.000
v 0.05238 0.71226 2.60082 0.000 0.000 0.000
v 0.08820 0.62172 2.61486 0.000 0.000 0.000
v 0.02700 0.67860 2.68038 0.000 0.000 0.000
v -0.23184 0.98280 2.87730 1.000 0.000 0.000
v -0.25614 0.97830 2.93922 1.000 0.000 0.000
v -0.22572 0.94104 2.90592 1.000 0.000 0.000
v -0.23526 0.91116 2.94660 1.000 0.000 0.000
v -0.26100 0.92592 2.97918 1.000 0.000 0.000
v -0.25938 0.88056 3.01302 1.000 0.000 0.000
v -0.27468 0.90306 3.02130 1.000 0.000 0.000
v -0.20736 0.87282 2.92932 0.000 0.000 0.000
v -0.16092 0.88992 2.83482 0.000 0.000 0.000
v -0.19386 0.92016 2.86758 0.000 0.000 0.000
v -0.20646 0.95220 2.86326 1.000 0.000 0.000
v -0.35046 0.88650 3.16620 1.000 0.000 0.000
v -0.30960 0.84852 3.12588 1.000 0.000 0.000
v -0.32472 0.92160 3.09564 1.000 0.000 0.000
v -0.25938 0.88056 3.01302 1.000 0.000 0.000
v -0.27468 0.90306 3.02130 1.000 0.000 0.000
v -0.39852 0.88668 3.24936 1.000 0.000 0.000
v -0.17874 1.02852 2.75400 1.000 0.000 0.000
v -0.19566 0.99342 2.81142 0.000 0.000 0.000
v -0.16020 0.97902 2.76174 0.000 0.000 0.000
v -0.13662 1.01466 2.69208 0.000 0.000 0.000
v -0.12852 0.99036 2.69766 0.000 0.000 0.000
v -0.21096 1.05858 2.78532 1.000 0.000 0.000
v -0.21762 1.00170 2.84292 1.000 0.000 0.000
v -0.26118 1.03644 2.89008 1.000 0.000 0.000
v -0.20286 0.97254 2.83536 1.000 0.000 0.000
v -0.16650 0.96138 2.78676 0.000 0.000 0.000
v -0.16686 0.93384 2.80962 0.000 0.000 0.000
v -0.14076 0.94482 2.75562 0.000 0.000 0.000
v -0.20646 0.96660 2.85192 1.000 0.000 0.000
v -0.20646 0.95220 2.86326 1.000 0.000 0.000
v -0.23184 0.98280 2.87730 1.000 0.000 0.000
v -0.09144 1.02654 2.60442 0.000 0.000 0.000
v -0.06624 0.94464 2.62656 0.000 0.000 0.000
v -0.24660 1.00926 2.88702 1.000 0.000 0.000
v -0.29178 1.04832 2.93364 1.000 0.000 0.000
v -0.34074 0.83070 3.19428 1.000 0.000 0.000
v -0.17964 0.81162 2.93076 1.000 0.000 0.000
v -0.24984 0.84204 3.02778 1.000 0.000 0.000
v -0.30960 0.84852 3.12588 1.000 0.000 0.000
v -0.39852 0.88668 3.24936 1.000 0.000 0.000
v -0.39708 0.86814 3.26142 1.000 0.000 0.000
v -0.44766 0.90864 3.31632 1.000 0.000 0.000
v -0.26100 0.79020 3.07404 1.000 0.000 0.000
v -0.21330 0.77040 3.01338 1.000 0.000 0.000
v -0.25128 0.75348 3.08700 1.000 0.000 0.000
v -0.29196 0.72936 3.16062 1.000 0.000 0.000
v -0.27198 0.70326 3.15126 1.000 0.000 0.000
v -0.30834 0.67338 3.18132 1.000 0.000 0.000
v -0.10800 0.67104 2.92014 1.000 0.000 0.000
v -0.13518 0.68220 2.95830 1.000 0.000 0.000
v -0.12618 0.63270 2.98260 1.000 0.000 0.000
v -0.10530 0.63882 2.94138 1.000 0.000 0.000
v -0.16164 0.66906 3.01464 1.000 0.000 0.000
v -0.16560 0.71208 2.98674 1.000 0.000 0.000
v -0.15444 0.63450 3.03012 1.000 0.000 0.000
v -0.17442 0.65538 3.04776 1.000 0.000 0.000
v -0.17766 0.62658 3.07656 1.000 0.000 0.000
v -0.19944 0.71406 3.04398 1.000 0.000 0.000
v -0.20592 0.74268 3.03192 1.000 0.000 0.000
v -0.13140 0.76770 2.88270 0.000 0.000 0.000
v -0.12402 0.71568 2.91186 1.000 0.000 0.000
v -0.20592 0.74268 3.03192 1.000 0.000 0.000
v -0.25128 0.75348 3.08700 1.000 0.000 0.000
v -0.25092 0.71802 3.11220 1.000 0.000 0.000
v -0.27198 0.70326 3.15126 1.000 0.000 0.000
v -0.19944 0.71406 3.04398 1.000 0.000 0.000
v 0.02700 0.67860 2.68038 0.000 0.000 0.000
v -0.01710 0.64890 2.76192 0.000 0.000 0.000
v 0.03960 0.59022 2.72988 0.000 0.000 0.000
v 0.08820 0.62172 2.61486 0.000 0.000 0.000
v -0.00522 0.61488 2.78748 0.000 0.000 0.000
v -0.04302 0.64440 2.82924 0.000 0.000 0.000
v -0.03042 0.60426 2.83968 1.000 0.000 0.000
v -0.07812 0.64116 2.87910 0.000 0.000 0.000
v -0.03780 0.57564 2.87550 1.000 0.000 0.000
v -0.06228 0.57222 2.92086 1.000 0.000 0.000
v -0.07794 0.60750 2.91960 1.000 0.000 0.000
v -0.08856 0.59004 2.95200 1.000 0.000 0.000
v -0.08784 0.65520 2.89800 1.000 0.000 0.000
v -0.12240 0.61254 2.99232 1.000 0.000 0.000
v -0.10386 0.58680 2.98098 1.000 0.000 0.000
v -0.08136 0.68940 2.85912 1.000 0.000 0.000
v -0.09810 0.65664 2.91456 1.000 0.000 0.000
v -0.10800 0.67104 2.92014 1.000 0.000 0.000
v -0.10530 0.63882 2.94138 1.000 0.000 0.000
v -0.04212 0.68940 2.79126 0.000 0.000 0.000
v -0.06372 0.70344 2.81718 0.000 0.000 0.000
v 0.09414 0.97812 2.56698 0.000 0.000 0.000
v 0.05940 1.02492 2.69154 0.000 0.000 0.000
v 0.02628 0.94374 2.68002 0.000 0.000 0.000
v 0.06354 0.91710 2.59254 0.000 0.000 0.000
v 0.07380 0.81162 2.48544 0.000 0.000 0.000
v 0.04338 0.81162 2.53818 0.000 0.000 0.000
v 0.02088 0.71334 2.49372 0.000 0.000 0.000
v -0.02034 0.71586 2.55888 0.000 0.000 0.000
v -0.04968 0.62496 2.53530 0.000 0.000 0.000
v -0.07092 0.67968 2.62386 0.000 0.000 0.000
v -0.11142 0.98352 2.94678 1.000 0.000 0.000
v -0.14094 0.97326 3.00564 1.000 0.000 0.000
v -0.13590 0.94014 2.95776 1.000 0.000 0.000
v -0.16686 0.91044 2.98602 1.000 0.000 0.000
v -0.18198 0.92502 3.02472 1.000 0.000 0.000
v -0.21276 0.88020 3.04002 1.000 0.000 0.000
v -0.21204 0.90234 3.05748 1.000 0.000 0.000
v -0.16632 0.87228 2.95290 1.000 0.000 0.000
v -0.10764 0.88938 2.86560 0.000 0.000 0.000
v -0.11898 0.91944 2.91078 0.000 0.000 0.000
v -0.10854 0.95130 2.91978 1.000 0.000 0.000
v -0.29970 0.91152 3.19536 1.000 0.000 0.000
v -0.28584 0.87372 3.13956 1.000 0.000 0.000
v -0.23994 0.91260 3.12354 1.000 0.000 0.000
v -0.21276 0.88020 3.04002 1.000 0.000 0.000
v -0.21204 0.90234 3.05748 1.000 0.000 0.000
v -0.33120 0.91890 3.25026 1.000 0.000 0.000
v -0.02646 1.02690 2.84184 1.000 0.000 0.000
v -0.06840 0.99216 2.88486 1.000 0.000 0.000
v -0.04320 0.97776 2.82924 1.000 0.000 0.000
v 0.00576 1.01322 2.77434 0.000 0.000 0.000
v -0.00342 0.98910 2.76984 0.000 0.000 0.000
v -0.03708 1.05678 2.88558 1.000 0.000 0.000
v -0.08442 1.00044 2.91978 1.000 0.000 0.000
v -0.10314 1.03482 2.98134 1.000 0.000 0.000
v -0.08982 0.97344 2.90070 1.000 0.000 0.000
v -0.06210 0.96030 2.84706 0.000 0.000 0.000
v -0.08208 0.93294 2.85858 0.000 0.000 0.000
v -0.04824 0.94392 2.80908 0.000 0.000 0.000
v -0.09846 0.96552 2.91438 1.000 0.000 0.000
v -0.10854 0.95130 2.91978 1.000 0.000 0.000
v -0.11142 0.98352 2.94678 1.000 0.000 0.000
v 0.05940 1.02492 2.69154 0.000 0.000 0.000
v 0.02628 0.94374 2.68002 0.000 0.000 0.000
v -0.10800 1.00800 2.96712 1.000 0.000 0.000
v -0.12528 1.04652 3.02976 1.000 0.000 0.000
v -0.32256 0.85608 3.18798 1.000 0.000 0.000
v -0.18234 0.81162 2.92914 1.000 0.000 0.000
v -0.23094 0.84186 3.03876 1.000 0.000 0.000
v -0.28584 0.87372 3.13956 1.000 0.000 0.000
v -0.33120 0.91890 3.25026 1.000 0.000 0.000
v -0.34290 0.90054 3.25476 1.000 0.000 0.000
v -0.35532 0.91530 3.31056 1.000 0.000 0.000
v -0.26586 0.80856 3.07116 1.000 0.000 0.000
v -0.24678 0.78156 3.01500 1.000 0.000 0.000
v -0.28260 0.77202 3.06900 1.000 0.000 0.000
v -0.33444 0.76806 3.15558 1.000 0.000 0.000
v -0.34236 0.73728 3.14298 1.000 0.000 0.000
v -0.36864 0.77742 3.22272 1.000 0.000 0.000
v -0.21114 0.67212 2.86056 1.000 0.000 0.000
v -0.23040 0.68310 2.90322 1.000 0.000 0.000
v -0.25686 0.63414 2.90736 1.000 0.000 0.000
v -0.23148 0.64008 2.86848 1.000 0.000 0.000
v -0.26622 0.67014 2.95416 1.000 0.000 0.000
v -0.23940 0.71298 2.94408 1.000 0.000 0.000
v -0.28386 0.63576 2.95542 1.000 0.000 0.000
v -0.28872 0.65664 2.98170 1.000 0.000 0.000
v -0.31266 0.62802 2.99880 1.000 0.000 0.000
v -0.27198 0.71478 3.00204 1.000 0.000 0.000
v -0.25794 0.74322 3.00204 1.000 0.000 0.000
v -0.16560 0.76806 2.86308 0.000 0.000 0.000
v -0.19530 0.71640 2.87064 0.000 0.000 0.000
v -0.25794 0.74322 3.00204 1.000 0.000 0.000
v -0.28260 0.77202 3.06900 1.000 0.000 0.000
v -0.31032 0.74052 3.09042 1.000 0.000 0.000
v -0.34236 0.73728 3.14298 1.000 0.000 0.000
v -0.27198 0.71478 3.00204 1.000 0.000 0.000
v -0.07092 0.67968 2.62386 0.000 0.000 0.000
v -0.13392 0.65664 2.69460 0.000 0.000 0.000
v -0.12150 0.59184 2.63700 0.000 0.000 0.000
v -0.04968 0.62496 2.53530 0.000 0.000 0.000
v -0.14850 0.61632 2.70468 0.000 0.000 0.000
v -0.16542 0.64548 2.75868 0.000 0.000 0.000
v -0.18126 0.60570 2.75256 0.000 0.000 0.000
v -0.20106 0.64728 2.80818 1.000 0.000 0.000
v -0.20916 0.57744 2.77650 0.000 0.000 0.000
v -0.23616 0.57402 2.82060 0.000 0.000 0.000
v -0.22662 0.60894 2.83374 1.000 0.000 0.000
v -0.24966 0.59166 2.85894 1.000 0.000 0.000
v -0.20232 0.65628 2.83194 1.000 0.000 0.000
v -0.26748 0.61398 2.90862 1.000 0.000 0.000
v -0.26730 0.58842 2.88666 1.000 0.000 0.000
v -0.17136 0.69030 2.80710 1.000 0.000 0.000
v -0.21150 0.65772 2.84904 1.000 0.000 0.000
v -0.21114 0.67212 2.86056 1.000 0.000 0.000
v -0.23148 0.64008 2.86848 1.000 0.000 0.000
v -0.13212 0.69030 2.73924 0.000 0.000 0.000
v -0.14364 0.70434 2.77092 0.000 0.000 0.000
v -0.06624 -0.94464 2.52936 0.000 0.000 0.000
v -0.09144 -1.02654 2.50722 0.000 0.000 0.000
v -0.01998 -0.97074 2.40390 0.000 0.000 0.000
v -0.00954 -0.91782 2.45304 0.000 0.000 0.000
v 0.07650 -0.81162 2.38986 0.000 0.000 0.000
v 0.04608 -0.81162 2.44260 0.000 0.000 0.000
v 0.09432 -0.71262 2.43900 0.000 0.000 0.000
v 0.05238 -0.71226 2.50362 0.000 0.000 0.000
v 0.08820 -0.62172 2.51766 0.000 0.000 0.000
v 0.02700 -0.67860 2.58318 0.000 0.000 0.000
v -0.22572 -0.94104 2.80872 1.000 0.000 0.000
v -0.25614 -0.97830 2.84202 1.000 0.000 0.000
v -0.23184 -0.98280 2.78010 1.000 0.000 0.000
v -0.23526 -0.91116 2.84940 0.000 0.000 0.000
v -0.26100 -0.92592 2.88198 1.000 0.000 0.000
v -0.25938 -0.88056 2.91582 1.000 0.000 0.000
v -0.27468 -0.90306 2.92410 1.000 0.000 0.000
v -0.20736 -0.87282 2.83212 0.000 0.000 0.000
v -0.16092 -0.88992 2.73762 0.000 0.000 0.000
v -0.19386 -0.92016 2.77038 0.000 0.000 0.000
v -0.20646 -0.95220 2.76606 0.000 0.000 0.000
v -0.32472 -0.92160 2.99844 1.000 0.000 0.000
v -0.30960 -0.84852 3.02868 1.000 0.000 0.000
v -0.35046 -0.88650 3.06900 1.000 0.000 0.000
v -0.25938 -0.88056 2.91582 1.000 0.000 0.000
v -0.27468 -0.90306 2.92410 1.000 0.000 0.000
v -0.39852 -0.88668 3.15216 1.000 0.000 0.000
v -0.16020 -0.97902 2.66454 0.000 0.000 0.000
v -0.19566 -0.99342 2.71422 0.000 0.000 0.000
v -0.17874 -1.02852 2.65680 0.000 0.000 0.000
v -0.13662 -1.01466 2.59488 0.000 0.000 0.000
v -0.12852 -0.99036 2.60046 0.000 0.000 0.000
v -0.21096 -1.05858 2.68812 0.000 0.000 0.000
v -0.21762 -1.00170 2.74572 0.000 0.000 0.000
v -0.26118 -1.03644 2.79288 1.000 0.000 0.000
v -0.20286 -0.97254 2.73816 0.000 0.000 0.000
v -0.16650 -0.96138 2.68956 0.000 0.000 0.000
v -0.16686 -0.93384 2.71242 0.000 0.000 0.000
v -0.14076 -0.94482 2.65842 0.000 0.000 0.000
v -0.20646 -0.96660 2.75472 1.000 0.000 0.000
v -0.20646 -0.95220 2.76606 0.000 0.000 0.000
v -0.23184 -0.98280 2.78010 1.000 0.000 0.000
v -0.09144 -1.02654 2.50722 0.000 0.000 0.000
v -0.06624 -0.94464 2.52936 0.000 0.000 0.000
v -0.24660 -1.00926 2.78982 1.000 0.000 0.000
v -0.29178 -1.04832 2.83644 1.000 0.000 0.000
v -0.24984 -0.84204 2.93058 1.000 0.000 0.000
v -0.17964 -0.81162 2.83356 0.000 0.000 0.000
v -0.34074 -0.83070 3.09708 1.000 0.000 0.000
v -0.30960 -0.84852 3.02868 1.000 0.000 0.000
v -0.39852 -0.88668 3.15216 1.000 0.000 0.000
v -0.39708 -0.86814 3.16422 1.000 0.000 0.000
v -0.44766 -0.90864 3.21912 1.000 0.000 0.000
v -0.21330 -0.77040 2.91618 1.000 0.000 0.000
v -0.26100 -0.79020 2.97684 1.000 0.000 0.000
v -0.25128 -0.75348 2.98980 1.000 0.000 0.000
v -0.29196 -0.72936 3.06342 1.000 0.000 0.000
v -0.27198 -0.70326 3.05406 1.000 0.000 0.000
v -0.30834 -0.67338 3.08412 1.000 0.000 0.000
v -0.12618 -0.63270 2.88540 1.000 0.000 0.000
v -0.13518 -0.68220 2.86110 1.000 0.000 0.000
v -0.10800 -0.67104 2.82294 0.000 0.000 0.000
v -0.10530 -0.63882 2.84418 1.000 0.000 0.000
v -0.16164 -0.66906 2.91744 1.000 0.000 0.000
v -0.16560 -0.71208 2.88954 0.000 0.000 0.000
v -0.15444 -0.63450 2.93292 1.000 0.000 0.000
v -0.17442 -0.65538 2.95056 1.000 0.000 0.000
v -0.17766 -0.62658 2.97936 1.000 0.000 0.000
v -0.19944 -0.71406 2.94678 1.000 0.000 0.000
v -0.20592 -0.74268 2.93472 1.000 0.000 0.000
v -0.13140 -0.76770 2.78550 0.000 0.000 0.000
v -0.12402 -0.71568 2.81466 0.000 0.000 0.000
v -0.25092 -0.71802 3.01500 1.000 0.000 0.000
v -0.25128 -0.75348 2.98980 1.000 0.000 0.000
v -0.20592 -0.74268 2.93472 1.000 0.000 0.000
v -0.27198 -0.70326 3.05406 1.000 0.000 0.000
v -0.19944 -0.71406 2.94678 1.000 0.000 0.000
v 0.03960 -0.59022 2.63268 0.000 0.000 0.000
v -0.01710 -0.64890 2.66472 0.000 0.000 0.000
v 0.02700 -0.67860 2.58318 0.000 0.000 0.000
v 0.08820 -0.62172 2.51766 0.000 0.000 0.000
v -0.00522 -0.61488 2.69028 0.000 0.000 0.000
v -0.04302 -0.64440 2.73204 0.000 0.000 0.000
v -0.03042 -0.60426 2.74248 1.000 0.000 0.000
v -0.07812 -0.64116 2.78190 0.000 0.000 0.000
v -0.03780 -0.57564 2.77830 1.000 0.000 0.000
v -0.06228 -0.57222 2.82366 1.000 0.000 0.000
v -0.07794 -0.60750 2.82240 1.000 0.000 0.000
v -0.08856 -0.59004 2.85480 1.000 0.000 0.000
v -0.08784 -0.65520 2.80080 1.000 0.000 0.000
v -0.12240 -0.61254 2.89512 1.000 0.000 0.000
v -0.10386 -0.58680 2.88378 1.000 0.000 0.000
v -0.08136 -0.68940 2.76192 0.000 0.000 0.000
v -0.09810 -0.65664 2.81736 1.000 0.000 0.000
v -0.10800 -0.67104 2.82294 0.000 0.000 0.000
v -0.10530 -0.63882 2.84418 1.000 0.000 0.000
v -0.04212 -0.68940 2.69406 0.000 0.000 0.000
v -0.06372 -0.70344 2.71998 0.000 0.000 0.000
v 0.02628 -0.94374 2.58282 0.000 0.000 0.000
v 0.05940 -1.02492 2.59434 0.000 0.000 0.000
v 0.09414 -0.97812 2.46978 0.000 0.000 0.000
v 0.06354 -0.91710 2.49534 0.000 0.000 0.000
v 0.07380 -0.81162 2.38824 0.000 0.000 0.000
v 0.04338 -0.81162 2.44098 0.000 0.000 0.000
v 0.02088 -0.71334 2.39652 0.000 0.000 0.000
v -0.02034 -0.71586 2.46168 0.000 0.000 0.000
v -0.04968 -0.62496 2.43810 0.000 0.000 0.000
v -0.07092 -0.67968 2.52666 0.000 0.000 0.000
v -0.13590 -0.94014 2.86056 0.000 0.000 0.000
v -0.14094 -0.97326 2.90844 1.000 0.000 0.000
v -0.11142 -0.98352 2.84958 1.000 0.000 0.000
v -0.16686 -0.91044 2.88882 1.000 0.000 0.000
v -0.18198 -0.92502 2.92752 1.000 0.000 0.000
v -0.21276 -0.88020 2.94282 1.000 0.000 0.000
v -0.21204 -0.90234 2.96028 1.000 0.000 0.000
v -0.16632 -0.87228 2.85570 0.000 0.000 0.000
v -0.10764 -0.88938 2.76840 0.000 0.000 0.000
v -0.11898 -0.91944 2.81358 0.000 0.000 0.000
v -0.10854 -0.95130 2.82258 0.000 0.000 0.000
v -0.23994 -0.91260 3.02634 1.000 0.000 0.000
v -0.28584 -0.87372 3.04236 1.000 0.000 0.000
v -0.29970 -0.91152 3.09816 1.000 0.000 0.000
v -0.21276 -0.88020 2.94282 1.000 0.000 0.000
v -0.21204 -0.90234 2.96028 1.000 0.000 0.000
v -0.33120 -0.91890 3.15306 1.000 0.000 0.000
v -0.04320 -0.97776 2.73204 0.000 0.000 0.000
v -0.06840 -0.99216 2.78766 1.000 0.000 0.000
v -0.02646 -1.02690 2.74464 1.000 0.000 0.000
v 0.00576 -1.01322 2.67714 0.000 0.000 0.000
v -0.00342 -0.98910 2.67264 0.000 0.000 0.000
v -0.03708 -1.05678 2.78838 1.000 0.000 0.000
v -0.08442 -1.00044 2.82258 1.000 0.000 0.000
v -0.10314 -1.03482 2.88414 1.000 0.000 0.000
v -0.08982 -0.97344 2.80350 1.000 0.000 0.000
v -0.06210 -0.96030 2.74986 0.000 0.000 0.000
v -0.08208 -0.93294 2.76138 0.000 0.000 0.000
v -0.04824 -0.94392 2.71188 0.000 0.000 0.000
v -0.09846 -0.96552 2.81718 1.000 0.000 0.000
v -0.10854 -0.95130 2.82258 0.000 0.000 0.000
v -0.11142 -0.98352 2.84958 1.000 0.000 0.000
v 0.05940 -1.02492 2.59434 0.000 0.000 0.000
v 0.02628 -0.94374 2.58282 0.000 0.000 0.000
v -0.10800 -1.00800 2.86992 1.000 0.000 0.000
v -0.12528 -1.04652 2.93256 1.000 0.000 0.000
v -0.23094 -0.84186 2.94156 1.000 0.000 0.000
v -0.18234 -0.81162 2.83194 0.000 0.000 0.000
v -0.32256 -0.85608 3.09078 1.000 0.000 0.000
v -0.28584 -0.87372 3.04236 1.000 0.000 0.000
v -0.33120 -0.91890 3.15306 1.000 0.000 0.000
v -0.34290 -0.90054 3.15756 1.000 0.000 0.000
v -0.35532 -0.91530 3.21336 1.000 0.000 0.000
v -0.24678 -0.78156 2.91780 1.000 0.000 0.000
v -0.26586 -0.80856 2.97396 1.000 0.000 0.000
v -0.28260 -0.77202 2.97180 1.000 0.000 0.000
v -0.33444 -0.76806 3.05838 1.000 0.000 0.000
v -0.34236 -0.73728 3.04578 1.000 0.000 0.000
v -0.36864 -0.77742 3.12552 1.000 0.000 0.000
v -0.25686 -0.63414 2.81016 1.000 0.000 0.000
v -0.23040 -0.68310 2.80602 0.000 0.000 0.000
v -0.21114 -0.67212 2.76336 0.000 0.000 0.000
v -0.23148 -0.64008 2.77128 1.000 0.000 0.000
v -0.26622 -0.67014 2.85696 1.000 0.000 0.000
v -0.23940 -0.71298 2.84688 1.000 0.000 0.000
v -0.28386 -0.63576 2.85822 1.000 0.000 0.000
v -0.28872 -0.65664 2.88450 1.000 0.000 0.000
v -0.31266 -0.62802 2.90160 1.000 0.000 0.000
v -0.27198 -0.71478 2.90484 1.000 0.000 0.000
v -0.25794 -0.74322 2.90484 0.000 0.000 0.000
v -0.16560 -0.76806 2.76588 0.000 0.000 0.000
v -0.19530 -0.71640 2.77344 0.000 0.000 0.000
v -0.31032 -0.74052 2.99322 1.000 0.000 0.000
v -0.28260 -0.77202 2.97180 1.000 0.000 0.000
v -0.25794 -0.74322 2.90484 0.000 0.000 0.000
v -0.34236 -0.73728 3.04578 1.000 0.000 0.000
v -0.27198 -0.71478 2.90484 1.000 0.000 0.000
v -0.12150 -0.59184 2.53980 0.000 0.000 0.000
v -0.13392 -0.65664 2.59740 0.000 0.000 0.000
v -0.07092 -0.67968 2.52666 0.000 0.000 0.000
v -0.04968 -0.62496 2.43810 0.000 0.000 0.000
v -0.14850 -0.61632 2.60748 0.000 0.000 0.000
v -0.16542 -0.64548 2.66148 0.000 0.000 0.000
v -0.18126 -0.60570 2.65536 0.000 0.000 0.000
v -0.20106 -0.64728 2.71098 0.000 0.000 0.000
v -0.20916 -0.57744 2.67930 0.000 0.000 0.000
v -0.23616 -0.57402 2.72340 0.000 0.000 0.000
v -0.22662 -0.60894 2.73654 0.000 0.000 0.000
v -0.24966 -0.59166 2.76174 1.000 0.000 0.000
v -0.20232 -0.65628 2.73474 0.000 0.000 0.000
v -0.26748 -0.61398 2.81142 1.000 0.000 0.000
v -0.26730 -0.58842 2.78946 1.000 0.000 0.000
v -0.17136 -0.69030 2.70990 0.000 0.000 0.000
v -0.21150 -0.65772 2.75184 1.000 0.000 0.000
v -0.21114 -0.67212 2.76336 0.000 0.000 0.000
v -0.23148 -0.64008 2.77128 1.000 0.000 0.000
v -0.13212 -0.69030 2.64204 0.000 0.000 0.000
v -0.14364 -0.70434 2.67372 0.000 0.000 0.000
vt 0.80500 0.83600
vt 0.71803 0.99270
vt 0.69641 0.83600
vt 0.99247 0.99270
vt 0.99247 0.85523
vt 0.49031 0.82751
vt 0.53608 0.99270
vt 0.37540 0.99270
vt 0.33527 0.85901
vt 0.38758 0.76452
vt 0.30859 0.67460
vt 0.21100 0.92460
vt 0.52224 0.70310
vt 0.21100 0.63771
vt 0.58722 0.41822
vt 0.21100 0.48322
vt 0.46022 0.62460
vt 0.69575 0.50460
vt 0.61703 0.57198
vt 0.88256 0.50010
vt 0.63194 0.63311
vt 0.64684 0.70924
vt 0.80446 0.59501
vt 0.88345 0.71110
vt 0.80500 0.75471
vt 0.99247 0.71110
vt 0.75137 0.69042
vt 0.65413 0.78992
vt 0.99250 0.41400
vt 0.89853 0.52364
vt 0.94552 0.41400
vt 0.99250 0.57170
vt 0.99250 0.69550
vt 0.89853 0.69550
vt 0.99250 0.69550
vt 0.99250 0.57170
vt 0.99250 0.41400
vt 0.94552 0.41400
vt 0.89853 0.41400
vt 0.07060 0.91450
vt 0.07060 0.99260
vt 0.00820 0.95351
vt 0.00820 0.99260
vt 0.00820 0.91450
vt 0.07060 0.91450
vt 0.07060 0.99260
vt 0.69641 0.83600
vt 0.80500 0.83600
vt 0.99247 0.85523
vt 0.49031 0.82751
vt 0.33527 0.85901
vt 0.38758 0.76452
vt 0.30859 0.67460
vt 0.52224 0.70310
vt 0.58722 0.41822
vt 0.46022 0.62460
vt 0.69575 0.50460
vt 0.88256 0.50010
vt 0.63194 0.63311
vt 0.61703 0.57198
vt 0.80446 0.59501
vt 0.64684 0.70924
vt 0.88345 0.71110
vt 0.80500 0.75471
vt 0.99247 0.71110
vt 0.75137 0.69042
vt 0.65413 0.78992
vt 0.00820 0.95351
vt 0.07060 0.99260
vt 0.07060 0.91450
vt 0.00820 0.99260
vt 0.00820 0.91450
vt 0.07060 0.91450
vt 0.07060 0.99260
vt 0.79045 0.75700
vt 0.71095 0.82060
vt 0.79045 0.82060
vt 0.79045 0.75700
vt 0.71095 0.75700
vt 0.79045 0.82060
vt 0.71095 0.75700
vt 0.79045 0.82060
vt 0.71095 0.82060
vt 0.71095 0.82060
vt 0.09631 0.41400
vt 0.00800 0.41400
vt 0.09631 0.61580
vt 0.00800 0.59480
vt 0.09904 0.59101
vt 0.09904 0.41400
vt 0.19540 0.41400
vt 0.19540 0.60580
vt 0.88300 0.41400
vt 0.80340 0.41400
vt 0.88300 0.47864
vt 0.88300 0.41400
vt 0.80340 0.41400
vt 0.09631 0.61580
vt 0.00800 0.41400
vt 0.09631 0.41400
vt 0.00800 0.59480
vt 0.10331 0.75200
vt 0.00800 0.74300
vt 0.04300 0.87359
vt 0.11546 0.88116
vt 0.19540 0.99464
vt 0.09904 0.59101
vt 0.09904 0.41400
vt 0.11101 0.74800
vt 0.04654 0.87359
vt 0.12998 0.88348
vt 0.19540 0.41400
vt 0.19540 0.60580
vt 0.19540 0.75800
vt 0.19540 0.87859
vt 0.80500 0.83600
vt 0.71803 0.99270
vt 0.69641 0.83600
vt 0.99247 0.99270
vt 0.99247 0.85523
vt 0.49031 0.82751
vt 0.53608 0.99270
vt 0.37540 0.99270
vt 0.33527 0.85901
vt 0.38758 0.76452
vt 0.30859 0.67460
vt 0.21100 0.92460
vt 0.52224 0.70310
vt 0.21100 0.63771
vt 0.58722 0.41822
vt 0.21100 0.48322
vt 0.46022 0.62460
vt 0.69575 0.50460
vt 0.61703 0.57198
vt 0.88256 0.50010
vt 0.63194 0.63311
vt 0.64684 0.70924
vt 0.80446 0.59501
vt 0.88345 0.71110
vt 0.80500 0.75471
vt 0.99247 0.71110
vt 0.75137 0.69042
vt 0.65413 0.78992
vt 0.99250 0.41400
vt 0.89853 0.52364
vt 0.94552 0.41400
vt 0.99250 0.57170
vt 0.99250 0.69550
vt 0.89853 0.69550
vt 0.99250 0.69550
vt 0.99250 0.57170
vt 0.99250 0.41400
vt 0.94552 0.41400
vt 0.89853 0.41400
vt 0.07060 0.91450
vt 0.07060 0.99260
vt 0.00820 0.95351
vt 0.00820 0.99260
vt 0.00820 0.91450
vt 0.07060 0.91450
vt 0.07060 0.99260
vt 0.69641 0.83600
vt 0.80500 0.83600
vt 0.99247 0.85523
vt 0.49031 0.82751
vt 0.33527 0.85901
vt 0.38758 0.76452
vt 0.30859 0.67460
vt 0.52224 0.70310
vt 0.58722 0.41822
vt 0.46022 0.62460
vt 0.69575 0.50460
vt 0.88256 0.50010
vt 0.63194 0.63311
vt 0.61703 0.57198
vt 0.80446 0.59501
vt 0.64684 0.70924
vt 0.88345 0.71110
vt 0.80500 0.75471
vt 0.99247 0.71110
vt 0.75137 0.69042
vt 0.65413 0.78992
vt 0.00820 0.95351
vt 0.07060 0.99260
vt 0.07060 0.91450
vt 0.00820 0.99260
vt 0.00820 0.91450
vt 0.07060 0.91450
vt 0.07060 0.99260
vt 0.79045 0.75700
vt 0.71095 0.82060
vt 0.79045 0.82060
vt 0.79045 0.75700
vt 0.71095 0.75700
vt 0.79045 0.82060
vt 0.71095 0.75700
vt 0.79045 0.82060
vt 0.71095 0.82060
vt 0.71095 0.82060
vt 0.09631 0.41400
vt 0.00800 0.41400
vt 0.09631 0.61580
vt 0.00800 0.59480
vt 0.09904 0.59101
vt 0.09904 0.41400
vt 0.19540 0.41400
vt 0.19540 0.60580
vt 0.88300 0.41400
vt 0.80340 0.41400
vt 0.88300 0.47864
vt 0.88300 0.41400
vt 0.80340 0.41400
vt 0.09631 0.61580
vt 0.00800 0.41400
vt 0.09631 0.41400
vt 0.00800 0.59480
vt 0.10331 0.75200
vt 0.00800 0.74300
vt 0.04300 0.87359
vt 0.11546 0.88116
vt 0.19540 0.99464
vt 0.09904 0.59101
vt 0.09904 0.41400
vt 0.11101 0.74800
vt 0.04654 0.87359
vt 0.12998 0.88348
vt 0.19540 0.41400
vt 0.19540 0.60580
vt 0.19540 0.75800
vt 0.19540 0.87859
vt 0.49204 0.41450
vt 0.21187 0.41450
vt 0.49204 0.41450
vt 0.49204 0.41450
vt 0.49204 0.41450
vt 0.49204 0.41450
vt 0.49204 0.41450
vt 0.49204 0.41450
vt 0.21187 0.41450
vt 0.49204 0.41450
vt 0.49204 0.41450
vt 0.49204 0.41450
vt 0.49204 0.41450
vt 0.49204 0.41450
vt 0.49204 0.41450
vt 0.21187 0.41450
vt 0.49204 0.41450
vt 0.49204 0.41450
vt 0.49204 0.41450
vt 0.49204 0.41450
vt 0.49204 0.41450
vt 0.49204 0.41450
vt 0.21187 0.41450
vt 0.49204 0.41450
vt 0.49204 0.41450
vt 0.49204 0.41450
vt 0.49204 0.41450
vt 0.49204 0.41450
vt 0.31919 0.36500
vt 0.49733 0.36500
vt 0.28297 0.36500
vt 0.31887 0.36500
vt 0.21619 0.36500
vt 0.34467 0.36500
vt 0.28297 0.36500
vt 0.28297 0.36500
vt 0.28297 0.36500
vt 0.21671 0.36500
vt 0.27054 0.36500
vt 0.24654 0.36500
vt 0.09480 0.36500
vt 0.24832 0.36500
vt 0.16367 0.36500
vt 0.11179 0.36500
vt 0.26298 0.36500
vt 0.29410 0.36500
vt 0.17438 0.36500
vt 0.17934 0.36500
vt 0.28297 0.36500
vt 0.28297 0.36500
vt 0.28297 0.36500
vt 0.31919 0.36500
vt 0.27054 0.36500
vt 0.09480 0.36500
vt 0.31903 0.36500
vt 0.31887 0.36500
vt 0.21619 0.36500
vt 0.26298 0.36500
vt 0.29410 0.36500
vt 0.17438 0.36500
vt 0.16367 0.36500
vt 0.24832 0.36500
vt 0.11179 0.36500
vt 0.17934 0.36500
vt 0.31919 0.36500
vt 0.49733 0.36500
vt 0.28297 0.36500
vt 0.31887 0.36500
vt 0.21619 0.36500
vt 0.34467 0.36500
vt 0.28297 0.36500
vt 0.28297 0.36500
vt 0.28297 0.36500
vt 0.21671 0.36500
vt 0.27054 0.36500
vt 0.24654 0.36500
vt 0.09480 0.36500
vt 0.24832 0.36500
vt 0.16367 0.36500
vt 0.11179 0.36500
vt 0.26298 0.36500
vt 0.29410 0.36500
vt 0.17438 0.36500
vt 0.17934 0.36500
vt 0.28297 0.36500
vt 0.28297 0.36500
vt 0.28297 0.36500
vt 0.31919 0.36500
vt 0.27054 0.36500
vt 0.09480 0.36500
vt 0.31903 0.36500
vt 0.31887 0.36500
vt 0.21619 0.36500
vt 0.26298 0.36500
vt 0.29410 0.36500
vt 0.17438 0.36500
vt 0.16367 0.36500
vt 0.24832 0.36500
vt 0.11179 0.36500
vt 0.17934 0.36500
vt 0.28297 0.36500
vt 0.49733 0.36500
vt 0.31919 0.36500
vt 0.31887 0.36500
vt 0.21619 0.36500
vt 0.34467 0.36500
vt 0.28297 0.36500
vt 0.28297 0.36500
vt 0.28297 0.36500
vt 0.21671 0.36500
vt 0.27054 0.36500
vt 0.24654 0.36500
vt 0.09480 0.36500
vt 0.24832 0.36500
vt 0.16367 0.36500
vt 0.11179 0.36500
vt 0.26298 0.36500
vt 0.29410 0.36500
vt 0.17438 0.36500
vt 0.17934 0.36500
vt 0.28297 0.36500
vt 0.28297 0.36500
vt 0.28297 0.36500
vt 0.31919 0.36500
vt 0.27054 0.36500
vt 0.09480 0.36500
vt 0.31903 0.36500
vt 0.31887 0.36500
vt 0.21619 0.36500
vt 0.26298 0.36500
vt 0.29410 0.36500
vt 0.17438 0.36500
vt 0.16367 0.36500
vt 0.24832 0.36500
vt 0.11179 0.36500
vt 0.17934 0.36500
vt 0.28297 0.36500
vt 0.49733 0.36500
vt 0.31919 0.36500
vt 0.31887 0.36500
vt 0.21619 0.36500
vt 0.34467 0.36500
vt 0.28297 0.36500
vt 0.28297 0.36500
vt 0.28297 0.36500
vt 0.21671 0.36500
vt 0.27054 0.36500
vt 0.24654 0.36500
vt 0.09480 0.36500
vt 0.24832 0.36500
vt 0.16367 0.36500
vt 0.11179 0.36500
vt 0.26298 0.36500
vt 0.29410 0.36500
vt 0.17438 0.36500
vt 0.17934 0.36500
vt 0.28297 0.36500
vt 0.28297 0.36500
vt 0.28297 0.36500
vt 0.31919 0.36500
vt 0.27054 0.36500
vt 0.09480 0.36500
vt 0.31903 0.36500
vt 0.31887 0.36500
vt 0.21619 0.36500
vt 0.26298 0.36500
vt 0.29410 0.36500
vt 0.17438 0.36500
vt 0.16367 0.36500
vt 0.24832 0.36500
vt 0.11179 0.36500
vt 0.17934 0.36500
vt 0.19499 0.35250
vt 0.00800 0.35250
vt 0.00800 0.00800
vt 0.16208 0.00800
vt 0.49500 0.35250
vt 0.49500 0.00800
vt 0.29353 0.35250
vt 0.16208 0.00800
vt 0.00800 0.35250
vt 0.00800 0.00800
vt 0.49500 0.25660
vt 0.38989 0.32086
vt 0.35930 0.17895
vt 0.18996 0.17211
vt 0.13525 0.31745
vt 0.00800 0.00800
vt 0.00800 0.30455
vt 0.18189 0.00800
vt 0.41791 0.00800
vt 0.39401 0.12884
vt 0.49500 0.00800
vt 0.18640 0.19654
vt 0.28161 0.00800
vt 0.41116 0.32610
vt 0.49500 0.00800
vt 0.49500 0.30455
vt 0.00800 0.00800
vt 0.28848 0.16539
vt 0.17870 0.13944
vt 0.22268 0.00802
vt 0.35960 0.20601
vt 0.34981 0.00802
vt 0.27531 0.20366
vt 0.13748 0.17633
vt 0.12220 0.29040
vt 0.07391 0.20506
vt 0.16957 0.07444
vt 0.10027 0.00800
vt 0.21021 0.00800
vt 0.04102 0.20346
vt 0.00800 0.00800
vt 0.00800 0.25660
vt 0.49500 0.35250
vt 0.49500 0.00800
vt 0.09039 0.22355
vt 0.09577 0.34879
vt 0.19818 0.33917
vt 0.49500 0.00800
vt 0.37688 0.00800
vt 0.26447 0.00800
vt 0.10690 0.00800
vt 0.10337 0.28493
vt 0.00800 0.00800
vt 0.30682 0.31988
vt 0.37688 0.00800
vt 0.26447 0.00800
vt 0.10337 0.28493
vt 0.10690 0.00800
vt 0.00800 0.00800
vt 0.49500 0.00800
vt 0.35930 0.17895
vt 0.38989 0.21811
vt 0.49500 0.25660
vt 0.25937 0.24364
vt 0.18996 0.17211
vt 0.35726 0.27586
vt 0.29200 0.28863
vt 0.32463 0.33362
vt 0.00800 0.30455
vt 0.00800 0.00800
vt 0.41791 0.00800
vt 0.39401 0.12884
vt 0.49500 0.00800
vt 0.28161 0.00800
vt 0.18640 0.19654
vt 0.00800 0.00800
vt 0.49500 0.30455
vt 0.49500 0.00800
vt 0.34981 0.00802
vt 0.40835 0.31028
vt 0.49500 0.35250
vt 0.35960 0.26081
vt 0.22268 0.00802
vt 0.29348 0.22019
vt 0.17870 0.13944
vt 0.27531 0.20366
vt 0.23607 0.24925
vt 0.13748 0.17633
vt 0.15355 0.24588
vt 0.07391 0.20506
vt 0.09577 0.34879
vt 0.12220 0.29040
vt 0.10027 0.00800
vt 0.04102 0.20346
vt 0.00800 0.00800
vt 0.00800 0.25660
vt 0.21021 0.00800
vt 0.15524 0.00800
vt 0.19499 0.35250
vt 0.00800 0.35250
vt 0.00800 0.00800
vt 0.16208 0.00800
vt 0.49500 0.35250
vt 0.49500 0.00800
vt 0.29353 0.35250
vt 0.16208 0.00800
vt 0.00800 0.35250
vt 0.00800 0.00800
vt 0.49500 0.25660
vt 0.38989 0.32086
vt 0.35930 0.17895
vt 0.18996 0.17211
vt 0.13525 0.31745
vt 0.00800 0.00800
vt 0.00800 0.30455
vt 0.18189 0.00800
vt 0.41791 0.00800
vt 0.39401 0.12884
vt 0.49500 0.00800
vt 0.18640 0.19654
vt 0.28161 0.00800
vt 0.41116 0.32610
vt 0.49500 0.00800
vt 0.49500 0.30455
vt 0.00800 0.00800
vt 0.28848 0.16539
vt 0.17870 0.13944
vt 0.22268 0.00802
vt 0.35960 0.20601
vt 0.34981 0.00802
vt 0.27531 0.20366
vt 0.13748 0.17633
vt 0.12220 0.29040
vt 0.07391 0.20506
vt 0.16957 0.07444
vt 0.10027 0.00800
vt 0.21021 0.00800
vt 0.04102 0.20346
vt 0.00800 0.00800
vt 0.00800 0.25660
vt 0.49500 0.35250
vt 0.49500 0.00800
vt 0.09039 0.22355
vt 0.09577 0.34879
vt 0.19818 0.33917
vt 0.49500 0.00800
vt 0.37688 0.00800
vt 0.26447 0.00800
vt 0.10690 0.00800
vt 0.10337 0.28493
vt 0.00800 0.00800
vt 0.30682 0.31988
vt 0.37688 0.00800
vt 0.26447 0.00800
vt 0.10337 0.28493
vt 0.10690 0.00800
vt 0.00800 0.00800
vt 0.49500 0.00800
vt 0.35930 0.17895
vt 0.38989 0.21811
vt 0.49500 0.25660
vt 0.25937 0.24364
vt 0.18996 0.17211
vt 0.35726 0.27586
vt 0.29200 0.28863
vt 0.32463 0.33362
vt 0.00800 0.30455
vt 0.00800 0.00800
vt 0.41791 0.00800
vt 0.39401 0.12884
vt 0.49500 0.00800
vt 0.28161 0.00800
vt 0.18640 0.19654
vt 0.00800 0.00800
vt 0.49500 0.30455
vt 0.49500 0.00800
vt 0.34981 0.00802
vt 0.40835 0.31028
vt 0.49500 0.35250
vt 0.35960 0.26081
vt 0.22268 0.00802
vt 0.29348 0.22019
vt 0.17870 0.13944
vt 0.27531 0.20366
vt 0.23607 0.24925
vt 0.13748 0.17633
vt 0.15355 0.24588
vt 0.07391 0.20506
vt 0.09577 0.34879
vt 0.12220 0.29040
vt 0.10027 0.00800
vt 0.04102 0.20346
vt 0.00800 0.00800
vt 0.00800 0.25660
vt 0.21021 0.00800
vt 0.15524 0.00800
vt 0.00800 0.00800
vt 0.00800 0.35250
vt 0.19499 0.35250
vt 0.16208 0.00800
vt 0.49500 0.35250
vt 0.49500 0.00800
vt 0.29353 0.35250
vt 0.16208 0.00800
vt 0.00800 0.35250
vt 0.00800 0.00800
vt 0.35930 0.17895
vt 0.38989 0.32086
vt 0.49500 0.25660
vt 0.18996 0.17211
vt 0.13525 0.31745
vt 0.00800 0.00800
vt 0.00800 0.30455
vt 0.18189 0.00800
vt 0.41791 0.00800
vt 0.39401 0.12884
vt 0.49500 0.00800
vt 0.41116 0.32610
vt 0.28161 0.00800
vt 0.18640 0.19654
vt 0.49500 0.00800
vt 0.49500 0.30455
vt 0.00800 0.00800
vt 0.22268 0.00802
vt 0.17870 0.13944
vt 0.28848 0.16539
vt 0.35960 0.20601
vt 0.34981 0.00802
vt 0.27531 0.20366
vt 0.13748 0.17633
vt 0.12220 0.29040
vt 0.07391 0.20506
vt 0.16957 0.07444
vt 0.10027 0.00800
vt 0.21021 0.00800
vt 0.04102 0.20346
vt 0.00800 0.00800
vt 0.00800 0.25660
vt 0.49500 0.35250
vt 0.49500 0.00800
vt 0.09039 0.22355
vt 0.09577 0.34879
vt 0.37688 0.00800
vt 0.49500 0.00800
vt 0.19818 0.33917
vt 0.26447 0.00800
vt 0.10690 0.00800
vt 0.10337 0.28493
vt 0.00800 0.00800
vt 0.37688 0.00800
vt 0.30682 0.31988
vt 0.26447 0.00800
vt 0.10337 0.28493
vt 0.10690 0.00800
vt 0.00800 0.00800
vt 0.38989 0.21811
vt 0.35930 0.17895
vt 0.49500 0.00800
vt 0.49500 0.25660
vt 0.25937 0.24364
vt 0.18996 0.17211
vt 0.35726 0.27586
vt 0.29200 0.28863
vt 0.32463 0.33362
vt 0.00800 0.30455
vt 0.00800 0.00800
vt 0.41791 0.00800
vt 0.39401 0.12884
vt 0.18640 0.19654
vt 0.28161 0.00800
vt 0.49500 0.00800
vt 0.00800 0.00800
vt 0.49500 0.30455
vt 0.40835 0.31028
vt 0.34981 0.00802
vt 0.49500 0.00800
vt 0.49500 0.35250
vt 0.35960 0.26081
vt 0.22268 0.00802
vt 0.29348 0.22019
vt 0.17870 0.13944
vt 0.27531 0.20366
vt 0.23607 0.24925
vt 0.13748 0.17633
vt 0.15355 0.24588
vt 0.07391 0.20506
vt 0.09577 0.34879
vt 0.12220 0.29040
vt 0.10027 0.00800
vt 0.04102 0.20346
vt 0.00800 0.00800
vt 0.00800 0.25660
vt 0.21021 0.00800
vt 0.15524 0.00800
vt 0.00800 0.00800
vt 0.00800 0.35250
vt 0.19499 0.35250
vt 0.16208 0.00800
vt 0.49500 0.35250
vt 0.49500 0.00800
vt 0.29353 0.35250
vt 0.16208 0.00800
vt 0.00800 0.35250
vt 0.00800 0.00800
vt 0.35930 0.17895
vt 0.38989 0.32086
vt 0.49500 0.25660
vt 0.18996 0.17211
vt 0.13525 0.31745
vt 0.00800 0.00800
vt 0.00800 0.30455
vt 0.18189 0.00800
vt 0.41791 0.00800
vt 0.39401 0.12884
vt 0.49500 0.00800
vt 0.41116 0.32610
vt 0.28161 0.00800
vt 0.18640 0.19654
vt 0.49500 0.00800
vt 0.49500 0.30455
vt 0.00800 0.00800
vt 0.22268 0.00802
vt 0.17870 0.13944
vt 0.28848 0.16539
vt 0.35960 0.20601
vt 0.34981 0.00802
vt 0.27531 0.20366
vt 0.13748 0.17633
vt 0.12220 0.29040
vt 0.07391 0.20506
vt 0.16957 0.07444
vt 0.10027 0.00800
vt 0.21021 0.00800
vt 0.04102 0.20346
vt 0.00800 0.00800
vt 0.00800 0.25660
vt 0.49500 0.35250
vt 0.49500 0.00800
vt 0.09039 0.22355
vt 0.09577 0.34879
vt 0.37688 0.00800
vt 0.49500 0.00800
vt 0.19818 0.33917
vt 0.26447 0.00800
vt 0.10690 0.00800
vt 0.10337 0.28493
vt 0.00800 0.00800
vt 0.37688 0.00800
vt 0.30682 0.31988
vt 0.26447 0.00800
vt 0.10337 0.28493
vt 0.10690 0.00800
vt 0.00800 0.00800
vt 0.38989 0.21811
vt 0.35930 0.17895
vt 0.49500 0.00800
vt 0.49500 0.25660
vt 0.25937 0.24364
vt 0.18996 0.17211
vt 0.35726 0.27586
vt 0.29200 0.28863
vt 0.32463 0.33362
vt 0.00800 0.30455
vt 0.00800 0.00800
vt 0.41791 0.00800
vt 0.39401 0.12884
vt 0.18640 0.19654
vt 0.28161 0.00800
vt 0.49500 0.00800
vt 0.00800 0.00800
vt 0.49500 0.30455
vt 0.40835 0.31028
vt 0.34981 0.00802
vt 0.49500 0.00800
vt 0.49500 0.35250
vt 0.35960 0.26081
vt 0.22268 0.00802
vt 0.29348 0.22019
vt 0.17870 0.13944
vt 0.27531 0.20366
vt 0.23607 0.24925
vt 0.13748 0.17633
vt 0.15355 0.24588
vt 0.07391 0.20506
vt 0.09577 0.34879
vt 0.12220 0.29040
vt 0.10027 0.00800
vt 0.04102 0.20346
vt 0.00800 0.00800
vt 0.00800 0.25660
vt 0.21021 0.00800
vt 0.15524 0.00800
usemtl m0
f 1/1 2/2 3/3
f 4/4 2/2 1/1
f 4/4 1/1 5/5
f 2/2 6/6 3/3
f 2/2 7/7 6/6
f 8/8 6/6 7/7
f 9/9 6/6 8/8
f 6/6 9/9 10/10
f 9/9 11/11 10/10
f 11/11 9/9 12/12
f 12/12 9/9 8/8
f 6/6 10/10 13/13
f 14/14 11/11 12/12
f 14/14 15/15 11/11
f 15/15 14/14 16/16
f 11/11 15/15 17/17
f 10/10 11/11 17/17
f 18/18 17/17 15/15
f 17/17 18/18 19/19
f 18/18 15/15 20/20
f 20/20 19/19 18/18
f 21/21 13/13 19/19
f 19/19 20/20 21/21
f 21/21 6/6 13/13
f 22/22 6/6 21/21
f 21/21 23/23 22/22
f 21/21 20/20 23/23
f 24/24 23/23 20/20
f 23/23 24/24 25/25
f 25/25 24/24 1/1
f 26/26 1/1 24/24
f 23/23 25/25 27/27
f 22/22 23/23 27/27
f 28/28 6/6 22/22
f 3/3 6/6 28/28
f 5/5 1/1 26/26
f 29/29 30/30 31/31
f 32/32 30/30 29/29
f 32/32 33/33 30/30
f 30/30 33/33 34/34
f 34/34 35/35 30/30
f 30/30 35/35 36/36
f 37/37 30/30 36/36
f 30/30 37/37 38/38
f 31/31 30/30 39/39
f 30/30 38/38 39/39
f 40/40 41/41 42/42
f 42/42 41/41 43/43
f 44/44 40/40 42/42
f 44/44 42/42 45/45
f 42/42 46/46 45/45
f 42/42 43/43 46/46
f 47/47 2/2 48/48
f 48/48 2/2 4/4
f 49/49 48/48 4/4
f 47/47 50/50 2/2
f 50/50 7/7 2/2
f 7/7 50/50 8/8
f 8/8 50/50 51/51
f 52/52 51/51 50/50
f 52/52 53/53 51/51
f 12/12 51/51 53/53
f 8/8 51/51 12/12
f 54/54 52/52 50/50
f 12/12 53/53 14/14
f 53/53 55/55 14/14
f 16/16 14/14 55/55
f 56/56 55/55 53/53
f 56/56 53/53 52/52
f 55/55 56/56 57/57
f 58/58 55/55 57/57
f 54/54 50/50 59/59
f 60/60 54/54 59/59
f 60/60 57/57 56/56
f 60/60 58/58 57/57
f 59/59 58/58 60/60
f 61/61 58/58 59/59
f 62/62 61/61 59/59
f 58/58 61/61 63/63
f 64/64 63/63 61/61
f 48/48 63/63 64/64
f 63/63 48/48 65/65
f 59/59 50/50 62/62
f 66/66 64/64 61/61
f 66/66 61/61 62/62
f 62/62 50/50 67/67
f 67/67 50/50 47/47
f 65/65 48/48 49/49
f 68/68 69/69 70/70
f 71/71 69/69 68/68
f 68/68 70/70 72/72
f 73/73 68/68 72/72
f 73/73 74/74 68/68
f 74/74 71/71 68/68
f 75/75 76/76 77/77
f 76/76 78/78 77/77
f 76/76 75/75 79/79
f 79/79 75/75 80/80
f 81/81 78/78 76/76
f 82/82 78/78 81/81
f 82/82 81/81 83/83
f 79/79 80/80 84/84
f 85/85 86/86 87/87
f 87/87 86/86 88/88
f 88/88 86/86 89/89
f 86/86 90/90 89/89
f 89/89 90/90 91/91
f 87/87 91/91 85/85
f 89/89 91/91 92/92
f 92/92 91/91 87/87
f 93/93 94/94 95/95
f 94/94 96/96 95/95
f 96/96 97/97 95/95
f 97/97 93/93 95/95
f 98/98 99/99 100/100
f 101/101 99/99 98/98
f 101/101 98/98 102/102
f 103/103 101/101 102/102
f 103/103 102/102 104/104
f 102/102 105/105 104/104
f 106/106 104/104 105/105
f 107/107 99/99 101/101
f 107/107 108/108 99/99
f 109/109 101/101 103/103
f 109/109 107/107 101/101
f 103/103 110/110 109/109
f 109/109 110/110 111/111
f 106/106 111/111 110/110
f 112/112 108/108 107/107
f 100/100 112/112 98/98
f 113/113 112/112 107/107
f 113/113 107/107 109/109
f 98/98 112/112 113/113
f 102/102 98/98 113/113
f 114/114 113/113 109/109
f 102/102 113/113 114/114
f 106/106 115/115 111/111
f 109/109 111/111 115/115
f 114/114 109/109 115/115
f 106/106 105/105 115/115
f 102/102 115/115 105/105
f 114/114 115/115 102/102
f 116/116 117/117 118/118
f 119/119 117/117 116/116
f 119/119 116/116 120/120
f 117/117 121/121 118/118
f 117/117 122/122 121/121
f 123/123 121/121 122/122
f 124/124 121/121 123/123
f 121/121 124/124 125/125
f 124/124 126/126 125/125
f 126/126 124/124 127/127
f 127/127 124/124 123/123
f 121/121 125/125 128/128
f 129/129 126/126 127/127
f 129/129 130/130 126/126
f 130/130 129/129 131/131
f 126/126 130/130 132/132
f 125/125 126/126 132/132
f 133/133 132/132 130/130
f 132/132 133/133 134/134
f 133/133 130/130 135/135
f 135/135 134/134 133/133
f 136/136 128/128 134/134
f 134/134 135/135 136/136
f 136/136 121/121 128/128
f 137/137 121/121 136/136
f 136/136 138/138 137/137
f 136/136 135/135 138/138
f 139/139 138/138 135/135
f 138/138 139/139 140/140
f 140/140 139/139 116/116
f 141/141 116/116 139/139
f 138/138 140/140 142/142
f 137/137 138/138 142/142
f 143/143 121/121 137/137
f 118/118 121/121 143/143
f 120/120 116/116 141/141
f 144/144 145/145 146/146
f 147/147 145/145 144/144
f 147/147 148/148 145/145
f 145/145 148/148 149/149
f 149/149 150/150 145/145
f 145/145 150/150 151/151
f 152/152 145/145 151/151
f 145/145 152/152 153/153
f 146/146 145/145 154/154
f 145/145 153/153 154/154
f 155/155 156/156 157/157
f 157/157 156/156 158/158
f 159/159 155/155 157/157
f 159/159 157/157 160/160
f 157/157 161/161 160/160
f 157/157 158/158 161/161
f 162/162 117/117 163/163
f 163/163 117/117 119/119
f 164/164 163/163 119/119
f 162/162 165/165 117/117
f 165/165 122/122 117/117
f 122/122 165/165 123/123
f 123/123 165/165 166/166
f 167/167 166/166 165/165
f 167/167 168/168 166/166
f 127/127 166/166 168/168
f 123/123 166/166 127/127
f 169/169 167/167 165/165
f 127/127 168/168 129/129
f 168/168 170/170 129/129
f 131/131 129/129 170/170
f 171/171 170/170 168/168
f 171/171 168/168 167/167
f 170/170 171/171 172/172
f 173/173 170/170 172/172
f 169/169 165/165 174/174
f 175/175 169/169 174/174
f 175/175 172/172 171/171
f 175/175 173/173 172/172
f 174/174 173/173 175/175
f 176/176 173/173 174/174
f 177/177 176/176 174/174
f 173/173 176/176 178/178
f 179/179 178/178 176/176
f 163/163 178/178 179/179
f 178/178 163/163 180/180
f 174/174 165/165 177/177
f 181/181 179/179 176/176
f 181/181 176/176 177/177
f 177/177 165/165 182/182
f 182/182 165/165 162/162
f 180/180 163/163 164/164
f 183/183 184/184 185/185
f 186/186 184/184 183/183
f 183/183 185/185 187/187
f 188/188 183/183 187/187
f 188/188 189/189 183/183
f 189/189 186/186 183/183
f 190/190 191/191 192/192
f 191/191 193/193 192/192
f 191/191 190/190 194/194
f 194/194 190/190 195/195
f 196/196 193/193 191/191
f 197/197 193/193 196/196
f 197/197 196/196 198/198
f 194/194 195/195 199/199
f 200/200 201/201 202/202
f 202/202 201/201 203/203
f 203/203 201/201 204/204
f 201/201 205/205 204/204
f 204/204 205/205 206/206
f 202/202 206/206 200/200
f 204/204 206/206 207/207
f 207/207 206/206 202/202
f 208/208 209/209 210/210
f 209/209 211/211 210/210
f 211/211 212/212 210/210
f 212/212 208/208 210/210
f 213/213 214/214 215/215
f 216/216 214/214 213/213
f 216/216 213/213 217/217
f 218/218 216/216 217/217
f 218/218 217/217 219/219
f 217/217 220/220 219/219
f 221/221 219/219 220/220
f 222/222 214/214 216/216
f 222/222 223/223 214/214
f 224/224 216/216 218/218
f 224/224 222/222 216/216
f 218/218 225/225 224/224
f 224/224 225/225 226/226
f 221/221 226/226 225/225
f 227/227 223/223 222/222
f 215/215 227/227 213/213
f 228/228 227/227 222/222
f 228/228 222/222 224/224
f 213/213 227/227 228/228
f 217/217 213/213 228/228
f 229/229 228/228 224/224
f 217/217 228/228 229/229
f 221/221 230/230 226/226
f 224/224 226/226 230/230
f 229/229 224/224 230/230
f 221/221 220/220 230/230
f 217/217 230/230 220/220
f 229/229 230/230 217/217
usemtl m1
f 231/231 232/232 233/233
f 234/234 232/232 231/231
f 233/233 232/232 235/235
f 236/236 232/232 234/234
f 237/237 232/232 236/236
f 235/235 232/232 237/237
f 238/238 239/239 240/240
f 240/240 239/239 241/241
f 242/242 239/239 238/238
f 241/241 239/239 243/243
f 243/243 239/239 244/244
f 244/244 239/239 242/242
f 245/245 246/246 247/247
f 248/248 246/246 245/245
f 247/247 246/246 249/249
f 250/250 246/246 248/248
f 251/251 246/246 250/250
f 249/249 246/246 251/251
f 252/252 253/253 254/254
f 254/254 253/253 255/255
f 256/256 253/253 252/252
f 255/255 253/253 257/257
f 257/257 253/253 258/258
f 258/258 253/253 256/256
f 259/259 260/260 261/261
f 262/262 260/260 259/259
f 262/262 263/263 260/260
f 263/263 264/264 260/260
f 261/261 260/260 265/265
f 265/265 260/260 266/266
f 267/267 266/266 260/260
f 263/263 268/268 264/264
f 259/259 261/261 269/269
f 270/270 259/259 269/269
f 271/271 270/270 269/269
f 264/264 268/268 272/272
f 272/272 268/268 273/273
f 274/274 272/272 273/273
f 263/263 262/262 275/275
f 275/275 262/262 276/276
f 275/275 276/276 277/277
f 278/278 275/275 277/277
f 260/260 279/279 267/267
f 279/279 260/260 280/280
f 280/280 260/260 281/281
f 281/281 260/260 282/282
f 283/283 281/281 282/282
f 284/284 283/283 282/282
f 282/282 260/260 285/285
f 260/260 286/286 285/285
f 260/260 287/287 286/286
f 260/260 264/264 287/287
f 288/288 286/286 287/287
f 289/289 286/286 288/288
f 290/290 289/289 288/288
f 287/287 264/264 291/291
f 291/291 264/264 292/292
f 291/291 292/292 293/293
f 294/294 290/290 288/288
f 295/295 296/296 297/297
f 298/298 296/296 295/295
f 298/298 299/299 296/296
f 299/299 300/300 296/296
f 297/297 296/296 301/301
f 301/301 296/296 302/302
f 303/303 302/302 296/296
f 299/299 304/304 300/300
f 295/295 297/297 305/305
f 306/306 295/295 305/305
f 307/307 306/306 305/305
f 300/300 304/304 308/308
f 308/308 304/304 309/309
f 310/310 308/308 309/309
f 299/299 298/298 311/311
f 311/311 298/298 312/312
f 311/311 312/312 313/313
f 314/314 311/311 313/313
f 296/296 315/315 303/303
f 315/315 296/296 316/316
f 316/316 296/296 317/317
f 317/317 296/296 318/318
f 319/319 317/317 318/318
f 320/320 319/319 318/318
f 318/318 296/296 321/321
f 296/296 322/322 321/321
f 296/296 323/323 322/322
f 296/296 300/300 323/323
f 324/324 322/322 323/323
f 325/325 322/322 324/324
f 326/326 325/325 324/324
f 323/323 300/300 327/327
f 327/327 300/300 328/328
f 327/327 328/328 329/329
f 330/330 326/326 324/324
f 331/331 332/332 333/333
f 333/333 332/332 334/334
f 332/332 335/335 334/334
f 332/332 336/336 335/335
f 337/337 332/332 331/331
f 338/338 332/332 337/337
f 332/332 338/338 339/339
f 336/336 340/340 335/335
f 341/341 331/331 333/333
f 341/341 333/333 342/342
f 341/341 342/342 343/343
f 344/344 340/340 336/336
f 345/345 340/340 344/344
f 345/345 344/344 346/346
f 347/347 334/334 335/335
f 348/348 334/334 347/347
f 349/349 348/348 347/347
f 349/349 347/347 350/350
f 339/339 351/351 332/332
f 352/352 332/332 351/351
f 353/353 332/332 352/352
f 354/354 332/332 353/353
f 354/354 353/353 355/355
f 354/354 355/355 356/356
f 357/357 332/332 354/354
f 357/357 358/358 332/332
f 358/358 359/359 332/332
f 359/359 336/336 332/332
f 359/359 358/358 360/360
f 360/360 358/358 361/361
f 360/360 361/361 362/362
f 363/363 336/336 359/359
f 364/364 336/336 363/363
f 365/365 364/364 363/363
f 360/360 362/362 366/366
f 367/367 368/368 369/369
f 369/369 368/368 370/370
f 368/368 371/371 370/370
f 368/368 372/372 371/371
f 373/373 368/368 367/367
f 374/374 368/368 373/373
f 368/368 374/374 375/375
f 372/372 376/376 371/371
f 377/377 367/367 369/369
f 377/377 369/369 378/378
f 377/377 378/378 379/379
f 380/380 376/376 372/372
f 381/381 376/376 380/380
f 381/381 380/380 382/382
f 383/383 370/370 371/371
f 384/384 370/370 383/383
f 385/385 384/384 383/383
f 385/385 383/383 386/386
f 375/375 387/387 368/368
f 388/388 368/368 387/387
f 389/389 368/368 388/388
f 390/390 368/368 389/389
f 390/390 389/389 391/391
f 390/390 391/391 392/392
f 393/393 368/368 390/390
f 393/393 394/394 368/368
f 394/394 395/395 368/368
f 395/395 372/372 368/368
f 395/395 394/394 396/396
f 396/396 394/394 397/397
f 396/396 397/397 398/398
f 399/399 372/372 395/395
f 400/400 372/372 399/399
f 401/401 400/400 399/399
f 396/396 398/398 402/402
f 403/403 404/404 405/405
f 406/406 403/403 405/405
f 406/406 407/407 403/403
f 408/408 407/407 406/406
f 408/408 409/409 407/407
f 408/408 410/410 409/409
f 409/409 410/410 411/411
f 410/410 412/412 411/411
f 413/413 414/414 415/415
f 416/416 415/415 414/414
f 417/417 416/416 414/414
f 417/417 418/418 416/416
f 419/419 418/418 417/417
f 420/420 416/416 418/418
f 421/421 416/416 420/420
f 416/416 421/421 422/422
f 423/423 413/413 415/415
f 424/424 425/425 426/426
f 427/427 426/426 425/425
f 428/428 426/426 427/427
f 424/424 429/429 425/425
f 430/430 431/431 432/432
f 432/432 433/433 430/430
f 434/434 433/433 432/432
f 435/435 431/431 430/430
f 431/431 435/435 436/436
f 436/436 435/435 437/437
f 436/436 438/438 431/431
f 438/438 439/439 431/431
f 438/438 440/440 439/439
f 439/439 440/440 441/441
f 442/442 440/440 438/438
f 440/440 442/442 443/443
f 442/442 444/444 443/443
f 433/433 434/434 445/445
f 434/434 446/446 445/445
f 447/447 436/436 437/437
f 448/448 447/447 437/437
f 449/449 450/450 451/451
f 452/452 449/449 451/451
f 453/453 449/449 452/452
f 449/449 453/453 454/454
f 455/455 454/454 453/453
f 450/450 456/456 457/457
f 456/456 458/458 457/457
f 459/459 458/458 456/456
f 460/460 458/458 459/459
f 460/460 459/459 461/461
f 462/462 463/463 464/464
f 462/462 464/464 465/465
f 463/463 466/466 464/464
f 467/467 466/466 463/463
f 464/464 466/466 468/468
f 466/466 469/469 468/468
f 470/470 468/468 469/469
f 466/466 467/467 471/471
f 471/471 467/467 472/472
f 472/472 467/467 473/473
f 474/474 473/473 467/467
f 475/475 476/476 477/477
f 476/476 478/478 477/477
f 479/479 475/475 477/477
f 480/480 481/481 482/482
f 480/480 482/482 483/483
f 482/482 481/481 484/484
f 485/485 484/484 481/481
f 486/486 484/484 485/485
f 485/485 487/487 486/486
f 486/486 487/487 488/488
f 488/488 487/487 489/489
f 489/489 487/487 490/490
f 490/490 491/491 489/489
f 490/490 487/487 492/492
f 490/490 493/493 491/491
f 491/491 493/493 494/494
f 492/492 487/487 495/495
f 492/492 495/495 496/496
f 497/497 496/496 495/495
f 497/497 498/498 496/496
f 487/487 499/499 495/495
f 495/495 499/499 500/500
f 501/501 502/502 503/503
f 504/504 501/501 503/503
f 504/504 505/505 501/501
f 506/506 505/505 504/504
f 506/506 507/507 505/505
f 506/506 508/508 507/507
f 507/507 508/508 509/509
f 508/508 510/510 509/509
f 511/511 512/512 513/513
f 514/514 513/513 512/512
f 515/515 514/514 512/512
f 515/515 516/516 514/514
f 517/517 516/516 515/515
f 518/518 514/514 516/516
f 519/519 514/514 518/518
f 514/514 519/519 520/520
f 521/521 511/511 513/513
f 522/522 523/523 524/524
f 525/525 524/524 523/523
f 526/526 524/524 525/525
f 522/522 527/527 523/523
f 528/528 529/529 530/530
f 530/530 531/531 528/528
f 532/532 531/531 530/530
f 533/533 529/529 528/528
f 529/529 533/533 534/534
f 534/534 533/533 535/535
f 534/534 536/536 529/529
f 536/536 537/537 529/529
f 536/536 538/538 537/537
f 537/537 538/538 539/539
f 540/540 538/538 536/536
f 538/538 540/540 541/541
f 540/540 542/542 541/541
f 531/531 532/532 543/543
f 532/532 544/544 543/543
f 545/545 534/534 535/535
f 546/546 545/545 535/535
f 547/547 548/548 549/549
f 550/550 547/547 549/549
f 551/551 547/547 550/550
f 547/547 551/551 552/552
f 553/553 552/552 551/551
f 548/548 554/554 555/555
f 554/554 556/556 555/555
f 557/557 556/556 554/554
f 558/558 556/556 557/557
f 558/558 557/557 559/559
f 560/560 561/561 562/562
f 560/560 562/562 563/563
f 561/561 564/564 562/562
f 565/565 564/564 561/561
f 562/562 564/564 566/566
f 564/564 567/567 566/566
f 568/568 566/566 567/567
f 564/564 565/565 569/569
f 569/569 565/565 570/570
f 570/570 565/565 571/571
f 572/572 571/571 565/565
f 573/573 574/574 575/575
f 574/574 576/576 575/575
f 577/577 573/573 575/575
f 578/578 579/579 580/580
f 578/578 580/580 581/581
f 580/580 579/579 582/582
f 583/583 582/582 579/579
f 584/584 582/582 583/583
f 583/583 585/585 584/584
f 584/584 585/585 586/586
f 586/586 585/585 587/587
f 587/587 585/585 588/588
f 588/588 589/589 587/587
f 588/588 585/585 590/590
f 588/588 591/591 589/589
f 589/589 591/591 592/592
f 590/590 585/585 593/593
f 590/590 593/593 594/594
f 595/595 594/594 593/593
f 595/595 596/596 594/594
f 585/585 597/597 593/593
f 593/593 597/597 598/598
f 599/599 600/600 601/601
f 599/599 601/601 602/602
f 601/601 603/603 602/602
f 602/602 603/603 604/604
f 603/603 605/605 604/604
f 605/605 606/606 604/604
f 607/607 606/606 605/605
f 607/607 608/608 606/606
f 609/609 610/610 611/611
f 610/610 609/609 612/612
f 610/610 612/612 613/613
f 612/612 614/614 613/613
f 613/613 614/614 615/615
f 614/614 612/612 616/616
f 616/616 612/612 617/617
f 618/618 617/617 612/612
f 609/609 611/611 619/619
f 620/620 621/621 622/622
f 621/621 620/620 623/623
f 623/623 620/620 624/624
f 621/621 625/625 622/622
f 626/626 627/627 628/628
f 628/628 629/629 626/626
f 626/626 629/629 630/630
f 628/628 627/627 631/631
f 632/632 631/631 627/627
f 633/633 631/631 632/632
f 627/627 634/634 632/632
f 627/627 635/635 634/634
f 635/635 636/636 634/634
f 637/637 636/636 635/635
f 634/634 636/636 638/638
f 639/639 638/638 636/636
f 639/639 640/640 638/638
f 641/641 630/630 629/629
f 641/641 642/642 630/630
f 633/633 632/632 643/643
f 633/633 643/643 644/644
f 645/645 646/646 647/647
f 645/645 647/647 648/648
f 648/648 647/647 649/649
f 650/650 649/649 647/647
f 649/649 650/650 651/651
f 652/652 653/653 646/646
f 652/652 654/654 653/653
f 653/653 654/654 655/655
f 655/655 654/654 656/656
f 657/657 655/655 656/656
f 658/658 659/659 660/660
f 661/661 658/658 660/660
f 658/658 662/662 659/659
f 659/659 662/662 663/663
f 664/664 662/662 658/658
f 664/664 665/665 662/662
f 665/665 664/664 666/666
f 667/667 663/663 662/662
f 668/668 663/663 667/667
f 669/669 663/663 668/668
f 663/663 669/669 670/670
f 671/671 672/672 673/673
f 671/671 674/674 672/672
f 671/671 673/673 675/675
f 676/676 677/677 678/678
f 679/679 676/676 678/678
f 680/680 677/677 676/676
f 677/677 680/680 681/681
f 681/681 680/680 682/682
f 682/682 683/683 681/681
f 684/684 683/683 682/682
f 685/685 683/683 684/684
f 686/686 683/683 685/685
f 685/685 687/687 686/686
f 688/688 683/683 686/686
f 687/687 689/689 686/686
f 690/690 689/689 687/687
f 691/691 683/683 688/688
f 692/692 691/691 688/688
f 691/691 692/692 693/693
f 692/692 694/694 693/693
f 691/691 695/695 683/683
f 696/696 695/695 691/691
f 697/697 698/698 699/699
f 697/697 699/699 700/700
f 699/699 701/701 700/700
f 700/700 701/701 702/702
f 701/701 703/703 702/702
f 703/703 704/704 702/702
f 705/705 704/704 703/703
f 705/705 706/706 704/704
f 707/707 708/708 709/709
f 708/708 707/707 710/710
f 708/708 710/710 711/711
f 710/710 712/712 711/711
f 711/711 712/712 713/713
f 712/712 710/710 714/714
f 714/714 710/710 715/715
f 716/716 715/715 710/710
f 707/707 709/709 717/717
f 718/718 719/719 720/720
f 719/719 718/718 721/721
f 721/721 718/718 722/722
f 719/719 723/723 720/720
f 724/724 725/725 726/726
f 726/726 727/727 724/724
f 724/724 727/727 728/728
f 726/726 725/725 729/729
f 730/730 729/729 725/725
f 731/731 729/729 730/730
f 725/725 732/732 730/730
f 725/725 733/733 732/732
f 733/733 734/734 732/732
f 735/735 734/734 733/733
f 732/732 734/734 736/736
f 737/737 736/736 734/734
f 737/737 738/738 736/736
f 739/739 728/728 727/727
f 739/739 740/740 728/728
f 731/731 730/730 741/741
f 731/731 741/741 742/742
f 743/743 744/744 745/745
f 743/743 745/745 746/746
f 746/746 745/745 747/747
f 748/748 747/747 745/745
f 747/747 748/748 749/749
f 750/750 751/751 744/744
f 750/750 752/752 751/751
f 751/751 752/752 753/753
f 753/753 752/752 754/754
f 755/755 753/753 754/754
f 756/756 757/757 758/758
f 759/759 756/756 758/758
f 756/756 760/760 757/757
f 757/757 760/760 761/761
f 762/762 760/760 756/756
f 762/762 763/763 760/760
f 763/763 762/762 764/764
f 765/765 761/761 760/760
f 766/766 761/761 765/765
f 767/767 761/761 766/766
f 761/761 767/767 768/768
f 769/769 770/770 771/771
f 769/769 772/772 770/770
f 769/769 771/771 773/773
f 774/774 775/775 776/776
f 777/777 774/774 776/776
f 778/778 775/775 774/774
f 775/775 778/778 779/779
f 779/779 778/778 780/780
f 780/780 781/781 779/779
f 782/782 781/781 780/780
f 783/783 781/781 782/782
f 784/784 781/781 783/783
f 783/783 785/785 784/784
f 786/786 781/781 784/784
f 785/785 787/787 784/784
f 788/788 787/787 785/785
f 789/789 781/781 786/786
f 790/790 789/789 786/786
f 789/789 790/790 791/791
f 790/790 792/792 791/791
f 789/789 793/793 781/781
f 794/794 793/793 789/789
