mtllib acce341.mtl
o acce341
v 0.16470 0.02790 2.95524 0.000 0.000 0.000
v 0.19980 0.01188 2.93184 0.000 0.000 0.000
v 0.16866 0.04950 2.93742 0.000 0.000 0.000
v 0.19998 0.02214 2.91168 0.000 0.000 0.000
v 0.16488 0.04788 2.91600 0.000 0.000 0.000
v 0.20610 0.00414 2.90988 0.000 0.000 0.000
v 0.15570 0.00126 2.95074 0.000 0.000 0.000
v 0.19260 -0.00540 2.91924 0.000 0.000 0.000
v 0.15048 -0.00612 2.93094 0.000 0.000 0.000
v 0.16488 0.04788 2.91600 0.000 0.000 0.000
v 0.19998 0.02214 2.91168 0.000 0.000 0.000
v 0.15480 0.01800 2.91024 0.000 0.000 0.000
v 0.19422 0.00630 2.90610 0.000 0.000 0.000
v 0.20610 0.00414 2.90988 0.000 0.000 0.000
v 0.19260 -0.00540 2.91924 0.000 0.000 0.000
v 0.15048 -0.00612 2.93094 0.000 0.000 0.000
v -0.21096 0.10692 2.74356 0.000 0.000 0.000
v -0.21456 0.14634 2.70828 0.000 0.000 0.000
v -0.20124 0.13536 2.74104 0.000 0.000 0.000
v -0.19908 0.17136 2.74428 0.000 0.000 0.000
v -0.21150 0.18774 2.70504 0.000 0.000 0.000
v -0.22428 0.14238 2.75166 0.000 0.000 0.000
v -0.21762 0.18216 2.70000 0.000 0.000 0.000
v -0.22932 0.14634 2.72772 0.000 0.000 0.000
v -0.21870 0.16578 2.70252 0.000 0.000 0.000
v -0.21870 0.16578 2.70252 0.000 0.000 0.000
v -0.22806 0.15408 2.69514 0.000 0.000 0.000
v -0.22806 0.15408 2.69514 0.000 0.000 0.000
v -0.22806 0.13860 2.69874 0.000 0.000 0.000
v -0.22806 0.13860 2.69874 0.000 0.000 0.000
v -0.23562 0.12618 2.69262 0.000 0.000 0.000
v -0.23544 0.11304 2.69514 0.000 0.000 0.000
v -0.23346 0.01530 2.77434 0.000 0.000 0.000
v -0.25434 -0.00234 2.74950 0.000 0.000 0.000
v -0.22842 0.04230 2.76138 0.000 0.000 0.000
v -0.24786 -0.01062 2.79468 0.000 0.000 0.000
v -0.27144 -0.03582 2.76714 0.000 0.000 0.000
v -0.25542 0.02610 2.78388 0.000 0.000 0.000
v -0.27486 -0.03132 2.75922 0.000 0.000 0.000
v -0.26496 0.01386 2.76444 0.000 0.000 0.000
v -0.26784 -0.01746 2.75328 0.000 0.000 0.000
v -0.26784 -0.01746 2.75328 0.000 0.000 0.000
v -0.27162 -0.00810 2.73996 0.000 0.000 0.000
v -0.27162 -0.00810 2.73996 0.000 0.000 0.000
v -0.26370 0.00504 2.73564 0.000 0.000 0.000
v -0.26370 0.00504 2.73564 0.000 0.000 0.000
v -0.26550 0.01476 2.72340 0.000 0.000 0.000
v -0.25884 0.02574 2.71926 0.000 0.000 0.000
v -0.23688 0.19188 2.79126 0.000 0.000 0.000
v -0.26802 0.09162 2.76678 0.000 0.000 0.000
v -0.28548 0.17316 2.81808 0.000 0.000 0.000
v -0.30492 0.11628 2.82024 0.000 0.000 0.000
v -0.32022 0.16470 2.84202 0.000 0.000 0.000
v -0.32796 0.12870 2.84274 0.000 0.000 0.000
v -0.35424 0.14688 2.88288 0.000 0.000 0.000
v -0.22428 0.14238 2.75166 0.000 0.000 0.000
v -0.24174 0.08190 2.75796 0.000 0.000 0.000
v -0.21096 0.10692 2.74356 0.000 0.000 0.000
v -0.21528 0.07236 2.74896 0.000 0.000 0.000
v -0.15750 0.06516 2.77848 0.000 0.000 0.000
v -0.20124 0.13536 2.74104 0.000 0.000 0.000
v -0.19908 0.17136 2.74428 0.000 0.000 0.000
v -0.14220 0.16758 2.76264 0.000 0.000 0.000
v -0.08550 0.15624 2.79468 0.000 0.000 0.000
v -0.10458 0.05886 2.80674 0.000 0.000 0.000
v 0.01494 0.13194 2.85264 0.000 0.000 0.000
v -0.00180 0.04644 2.86146 0.000 0.000 0.000
v -0.03546 0.17136 2.85192 0.000 0.000 0.000
v 0.03276 0.15192 2.89170 0.000 0.000 0.000
v 0.06714 0.10746 2.88846 0.000 0.000 0.000
v 0.05508 0.03978 2.89260 0.000 0.000 0.000
v -0.17046 0.20358 2.78316 0.000 0.000 0.000
v -0.23688 0.19188 2.79126 0.000 0.000 0.000
v 0.08226 0.03168 2.88972 0.000 0.000 0.000
v 0.10098 0.09522 2.88594 0.000 0.000 0.000
v 0.12420 0.02286 2.89800 0.000 0.000 0.000
v 0.14130 0.07470 2.89476 0.000 0.000 0.000
v 0.16488 0.04788 2.91600 0.000 0.000 0.000
v 0.15480 0.01800 2.91024 0.000 0.000 0.000
v 0.05760 0.14346 2.92500 0.000 0.000 0.000
v 0.06858 -0.02592 2.91960 0.000 0.000 0.000
v 0.03348 -0.01782 2.92320 0.000 0.000 0.000
v -0.02826 -0.02898 2.89728 0.000 0.000 0.000
v -0.13482 -0.02808 2.84580 0.000 0.000 0.000
v -0.09072 -0.03510 2.90916 0.000 0.000 0.000
v -0.01674 -0.03330 2.94318 0.000 0.000 0.000
v -0.19404 -0.02556 2.81610 0.000 0.000 0.000
v 0.15048 -0.00612 2.93094 0.000 0.000 0.000
v 0.11448 -0.02520 2.92248 0.000 0.000 0.000
v -0.23346 0.01530 2.77434 0.000 0.000 0.000
v -0.22842 0.04230 2.76138 0.000 0.000 0.000
v -0.25542 0.02610 2.78388 0.000 0.000 0.000
v -0.28440 0.01440 2.84058 0.000 0.000 0.000
v -0.31482 0.06390 2.84832 0.000 0.000 0.000
v -0.33822 0.09792 2.86056 0.000 0.000 0.000
v -0.24786 -0.01062 2.79468 0.000 0.000 0.000
v -0.23292 -0.02898 2.84778 0.000 0.000 0.000
v -0.28440 0.01440 2.84058 0.000 0.000 0.000
v -0.16398 -0.03816 2.89026 0.000 0.000 0.000
v 0.13158 0.12060 3.01464 0.000 0.000 0.000
v 0.16938 0.08982 2.97810 0.000 0.000 0.000
v 0.13014 0.13284 2.97810 0.000 0.000 0.000
v 0.16308 0.04428 3.01284 0.000 0.000 0.000
v 0.12132 0.06552 3.04938 0.000 0.000 0.000
v 0.16686 0.09846 2.96010 0.000 0.000 0.000
v 0.06066 0.08496 3.06054 0.000 0.000 0.000
v 0.07398 0.13878 3.02400 0.000 0.000 0.000
v -0.00234 0.10008 3.05424 0.000 0.000 0.000
v 0.02106 0.15516 3.01806 0.000 0.000 0.000
v -0.09234 0.12078 3.04218 0.000 0.000 0.000
v -0.05256 0.18432 2.99736 0.000 0.000 0.000
v -0.21798 0.13932 2.98746 0.000 0.000 0.000
v -0.18216 0.21186 2.93724 0.000 0.000 0.000
v 0.02124 0.17964 2.93040 0.000 0.000 0.000
v 0.05166 0.16434 2.94714 0.000 0.000 0.000
v 0.03276 0.15192 2.89170 0.000 0.000 0.000
v 0.05760 0.14346 2.92500 0.000 0.000 0.000
v 0.08010 0.15066 2.96082 0.000 0.000 0.000
v -0.13248 0.22212 2.87604 0.000 0.000 0.000
v -0.24750 0.20196 2.86848 0.000 0.000 0.000
v -0.06516 0.20610 2.87604 0.000 0.000 0.000
v -0.17046 0.20358 2.78316 0.000 0.000 0.000
v -0.10044 0.19872 2.82456 0.000 0.000 0.000
v -0.03546 0.17136 2.85192 0.000 0.000 0.000
v -0.23688 0.19188 2.79126 0.000 0.000 0.000
v -0.28548 0.17316 2.81808 0.000 0.000 0.000
v -0.30096 0.13608 2.89548 0.000 0.000 0.000
v -0.29034 0.13896 2.91600 0.000 0.000 0.000
v -0.32022 0.16470 2.84202 0.000 0.000 0.000
v -0.33138 0.14184 2.88666 0.000 0.000 0.000
v -0.35424 0.14688 2.88288 0.000 0.000 0.000
v -0.33822 0.09792 2.86056 0.000 0.000 0.000
v -0.28854 0.04914 2.91078 0.000 0.000 0.000
v -0.22698 0.04464 2.98350 0.000 0.000 0.000
v -0.19620 -0.01566 2.94210 0.000 0.000 0.000
v -0.31482 0.06390 2.84832 0.000 0.000 0.000
v -0.28440 0.01440 2.84058 0.000 0.000 0.000
v -0.09306 0.03348 3.03930 0.000 0.000 0.000
v -0.01224 0.03078 3.05262 0.000 0.000 0.000
v -0.03492 -0.02970 2.98836 0.000 0.000 0.000
v -0.12996 -0.03528 2.94282 0.000 0.000 0.000
v 0.00108 -0.02448 2.99952 0.000 0.000 0.000
v -0.01674 -0.03330 2.94318 0.000 0.000 0.000
v 0.01314 -0.02250 2.97108 0.000 0.000 0.000
v 0.04248 0.02106 3.05658 0.000 0.000 0.000
v 0.10008 0.00324 3.04722 0.000 0.000 0.000
v 0.14274 -0.00918 3.00564 0.000 0.000 0.000
v 0.08838 -0.02286 3.02112 0.000 0.000 0.000
v 0.13428 -0.02322 2.99394 0.000 0.000 0.000
v 0.03402 -0.02088 3.00834 0.000 0.000 0.000
v 0.17046 0.03276 2.97864 0.000 0.000 0.000
v 0.17262 0.07146 2.95668 0.000 0.000 0.000
v 0.16470 0.02790 2.95524 0.000 0.000 0.000
v 0.16866 0.04950 2.93742 0.000 0.000 0.000
v 0.15156 -0.00738 2.97846 0.000 0.000 0.000
v 0.15570 0.00126 2.95074 0.000 0.000 0.000
v -0.03546 0.17136 2.85192 0.000 0.000 0.000
v 0.02250 0.19710 2.78316 0.000 0.000 0.000
v 0.03276 0.15192 2.89170 0.000 0.000 0.000
v -0.02124 0.19908 2.79378 0.000 0.000 0.000
v -0.02394 0.22140 2.71782 0.000 0.000 0.000
v -0.05256 0.22194 2.81034 0.000 0.000 0.000
v -0.06516 0.20610 2.87604 0.000 0.000 0.000
v -0.06768 0.23760 2.73834 0.000 0.000 0.000
v -0.05760 0.23436 2.70054 0.000 0.000 0.000
v 0.03276 0.15192 2.89170 0.000 0.000 0.000
v 0.02250 0.19710 2.78316 0.000 0.000 0.000
v 0.00558 0.22986 2.82780 0.000 0.000 0.000
v 0.02124 0.17964 2.93040 0.000 0.000 0.000
v -0.06516 0.20610 2.87604 0.000 0.000 0.000
v -0.05256 0.22194 2.81034 0.000 0.000 0.000
v -0.03474 0.23940 2.72916 0.000 0.000 0.000
v -0.02394 0.22140 2.71782 0.000 0.000 0.000
v -0.06768 0.23760 2.73834 0.000 0.000 0.000
v -0.05760 0.23436 2.70054 0.000 0.000 0.000
v 0.16866 0.04950 2.93742 0.000 0.000 0.000
v 0.16686 0.09846 2.96010 0.000 0.000 0.000
v 0.15678 0.09522 2.91726 0.000 0.000 0.000
v 0.11772 0.12816 2.92320 0.000 0.000 0.000
v 0.07218 0.14292 2.92572 0.000 0.000 0.000
v 0.08010 0.15066 2.96082 0.000 0.000 0.000
v 0.13014 0.13284 2.97810 0.000 0.000 0.000
v -0.10044 0.19872 2.82456 0.000 0.000 0.000
v -0.16398 -0.03816 2.89026 0.000 0.000 0.000
v -0.09072 -0.03510 2.90916 0.000 0.000 0.000
v -0.23292 -0.02898 2.84778 0.000 0.000 0.000
v -0.01674 -0.03330 2.94318 0.000 0.000 0.000
v -0.06084 -0.11430 2.86956 0.000 0.000 0.000
v -0.09072 -0.03510 2.90916 0.000 0.000 0.000
v -0.09882 -0.09018 2.87406 0.000 0.000 0.000
v -0.12132 -0.14220 2.81880 0.000 0.000 0.000
v -0.13482 -0.08460 2.89548 0.000 0.000 0.000
v -0.12996 -0.03528 2.94282 0.000 0.000 0.000
v -0.16452 -0.12402 2.83860 0.000 0.000 0.000
v -0.15912 -0.14454 2.80548 0.000 0.000 0.000
v -0.08514 -0.10908 2.92194 0.000 0.000 0.000
v -0.06084 -0.11430 2.86956 0.000 0.000 0.000
v -0.01674 -0.03330 2.94318 0.000 0.000 0.000
v -0.03492 -0.02970 2.98836 0.000 0.000 0.000
v -0.12996 -0.03528 2.94282 0.000 0.000 0.000
v -0.13482 -0.08460 2.89548 0.000 0.000 0.000
v -0.13788 -0.14508 2.83572 0.000 0.000 0.000
v -0.12132 -0.14220 2.81880 0.000 0.000 0.000
v -0.16452 -0.12402 2.83860 0.000 0.000 0.000
v -0.15912 -0.14454 2.80548 0.000 0.000 0.000
v 0.13428 -0.02322 2.99394 0.000 0.000 0.000
v 0.15570 0.00126 2.95074 0.000 0.000 0.000
v 0.12150 -0.03672 2.95380 0.000 0.000 0.000
v 0.07254 -0.04014 2.96982 0.000 0.000 0.000
v 0.02628 -0.02844 2.97324 0.000 0.000 0.000
v 0.03402 -0.02088 3.00834 0.000 0.000 0.000
v 0.01314 -0.02250 2.97108 0.000 0.000 0.000
v 0.08838 -0.02286 3.02112 0.000 0.000 0.000
v 0.14274 0.11574 2.93634 0.000 0.000 0.000
v 0.13086 0.12024 2.92968 0.000 0.000 0.000
v 0.13068 0.12312 2.94102 0.000 0.000 0.000
v 0.13716 0.11340 2.92284 0.000 0.000 0.000
v 0.13698 0.11988 2.94822 0.000 0.000 0.000
v 0.14490 0.10764 2.92536 0.000 0.000 0.000
v 0.14490 0.11394 2.95074 0.000 0.000 0.000
v 0.15120 0.10728 2.94372 0.000 0.000 0.000
v 0.15120 0.10440 2.93256 0.000 0.000 0.000
v 0.08874 -0.03384 2.98440 0.000 0.000 0.000
v 0.08856 -0.03726 2.97342 0.000 0.000 0.000
v 0.10188 -0.03618 2.97846 0.000 0.000 0.000
v 0.09648 -0.03834 2.96496 0.000 0.000 0.000
v 0.09666 -0.03078 2.98998 0.000 0.000 0.000
v 0.10638 -0.03654 2.96532 0.000 0.000 0.000
v 0.10656 -0.02898 2.99034 0.000 0.000 0.000
v 0.11448 -0.03024 2.98188 0.000 0.000 0.000
v 0.11430 -0.03366 2.97090 0.000 0.000 0.000
v 0.08838 -0.02286 3.02112 0.000 0.000 0.000
v 0.14742 -0.01062 3.00924 0.000 0.000 0.000
v 0.10386 0.00216 3.05172 0.000 0.000 0.000
v 0.16830 0.04392 3.01662 0.000 0.000 0.000
v 0.12564 0.06570 3.05388 0.000 0.000 0.000
v 0.13428 -0.02322 2.99394 0.000 0.000 0.000
v 0.06354 0.08550 3.06540 0.000 0.000 0.000
v 0.04518 0.02034 3.06126 0.000 0.000 0.000
v -0.00198 0.10134 3.05910 0.000 0.000 0.000
v -0.01206 0.03060 3.05730 0.000 0.000 0.000
v -0.09360 0.12240 3.04686 0.000 0.000 0.000
v -0.09432 0.03348 3.04380 0.000 0.000 0.000
v -0.03510 -0.03096 2.99196 0.000 0.000 0.000
v 0.00162 -0.02574 3.00330 0.000 0.000 0.000
v -0.01674 -0.03330 2.94318 0.000 0.000 0.000
v 0.01314 -0.02250 2.97108 0.000 0.000 0.000
v 0.03402 -0.02088 3.00834 0.000 0.000 0.000
v 0.13608 0.12186 3.01842 0.000 0.000 0.000
v 0.17460 0.09036 2.98116 0.000 0.000 0.000
v 0.13014 0.13284 2.97810 0.000 0.000 0.000
v 0.02196 0.15750 3.02220 0.000 0.000 0.000
v -0.05310 0.18738 3.00114 0.000 0.000 0.000
v 0.02214 0.18234 2.93274 0.000 0.000 0.000
v 0.05310 0.16686 2.94984 0.000 0.000 0.000
v 0.03276 0.15192 2.89170 0.000 0.000 0.000
v 0.05760 0.14346 2.92500 0.000 0.000 0.000
v 0.16686 0.09846 2.96010 0.000 0.000 0.000
v 0.08010 0.15066 2.96082 0.000 0.000 0.000
v 0.07722 0.14040 3.02796 0.000 0.000 0.000
v 0.17784 0.07164 2.95938 0.000 0.000 0.000
v 0.16866 0.04950 2.93742 0.000 0.000 0.000
v 0.16470 0.02790 2.95524 0.000 0.000 0.000
v 0.17568 0.03222 2.98170 0.000 0.000 0.000
v 0.15624 -0.00882 2.98170 0.000 0.000 0.000
v 0.15570 0.00126 2.95074 0.000 0.000 0.000
v -0.28440 0.01440 2.84058 0.000 0.000 0.000
v -0.23292 -0.02898 2.84778 0.000 0.000 0.000
v -0.29466 0.04950 2.91204 0.000 0.000 0.000
v -0.19980 -0.01674 2.94426 0.000 0.000 0.000
v -0.23130 0.04482 2.98692 0.000 0.000 0.000
v -0.29664 0.14094 2.91708 0.000 0.000 0.000
v -0.30834 0.13860 2.89764 0.000 0.000 0.000
v -0.31482 0.06390 2.84832 0.000 0.000 0.000
v -0.33822 0.09792 2.86056 0.000 0.000 0.000
v -0.33948 0.14436 2.88864 0.000 0.000 0.000
v -0.35424 0.14688 2.88288 0.000 0.000 0.000
v -0.32022 0.16470 2.84202 0.000 0.000 0.000
v -0.25290 0.20520 2.86884 0.000 0.000 0.000
v -0.28548 0.17316 2.81808 0.000 0.000 0.000
v -0.23688 0.19188 2.79126 0.000 0.000 0.000
v -0.09432 0.03348 3.04380 0.000 0.000 0.000
v -0.22212 0.14130 2.99070 0.000 0.000 0.000
v -0.09360 0.12240 3.04686 0.000 0.000 0.000
v -0.05310 0.18738 3.00114 0.000 0.000 0.000
v -0.18558 0.21528 2.93958 0.000 0.000 0.000
v -0.13482 0.22572 2.87712 0.000 0.000 0.000
v 0.02214 0.18234 2.93274 0.000 0.000 0.000
v -0.06534 0.20772 2.87388 0.000 0.000 0.000
v -0.17046 0.20358 2.78316 0.000 0.000 0.000
v -0.10206 0.20196 2.82492 0.000 0.000 0.000
v -0.03546 0.17136 2.85192 0.000 0.000 0.000
v -0.03510 -0.03096 2.99196 0.000 0.000 0.000
v -0.12996 -0.03528 2.94282 0.000 0.000 0.000
v -0.16686 -0.03978 2.89188 0.000 0.000 0.000
v -0.09072 -0.03510 2.90916 0.000 0.000 0.000
v -0.08712 -0.11178 2.92392 0.000 0.000 0.000
v -0.06084 -0.11430 2.86956 0.000 0.000 0.000
v -0.01674 -0.03330 2.94318 0.000 0.000 0.000
v -0.03510 -0.03096 2.99196 0.000 0.000 0.000
v -0.12996 -0.03528 2.94282 0.000 0.000 0.000
v -0.13482 -0.08460 2.89548 0.000 0.000 0.000
v -0.14130 -0.14886 2.83644 0.000 0.000 0.000
v -0.12132 -0.14220 2.81880 0.000 0.000 0.000
v -0.16452 -0.12402 2.83860 0.000 0.000 0.000
v -0.15912 -0.14454 2.80548 0.000 0.000 0.000
v 0.03276 0.15192 2.89170 0.000 0.000 0.000
v 0.02250 0.19710 2.78316 0.000 0.000 0.000
v 0.00540 0.23364 2.82816 0.000 0.000 0.000
v 0.02214 0.18234 2.93274 0.000 0.000 0.000
v -0.06534 0.20772 2.87388 0.000 0.000 0.000
v -0.05256 0.22194 2.81034 0.000 0.000 0.000
v -0.03600 0.24408 2.72736 0.000 0.000 0.000
v -0.02394 0.22140 2.71782 0.000 0.000 0.000
v -0.06768 0.23760 2.73834 0.000 0.000 0.000
v -0.05760 0.23436 2.70054 0.000 0.000 0.000
v 0.08838 -0.02286 3.02112 0.000 0.000 0.000
v 0.14526 -0.01008 3.00708 0.000 0.000 0.000
v 0.10206 0.00252 3.04902 0.000 0.000 0.000
v 0.16578 0.04392 3.01428 0.000 0.000 0.000
v 0.12348 0.06552 3.05118 0.000 0.000 0.000
v 0.13428 -0.02322 2.99394 0.000 0.000 0.000
v 0.06210 0.08514 3.06252 0.000 0.000 0.000
v 0.04392 0.02052 3.05856 0.000 0.000 0.000
v -0.00198 0.10062 3.05640 0.000 0.000 0.000
v -0.01206 0.03060 3.05460 0.000 0.000 0.000
v -0.09288 0.12150 3.04416 0.000 0.000 0.000
v -0.09342 0.03330 3.04128 0.000 0.000 0.000
v -0.21978 0.14022 2.98872 0.000 0.000 0.000
v -0.22878 0.04446 2.98494 0.000 0.000 0.000
v -0.03474 -0.03042 2.98980 0.000 0.000 0.000
v 0.00144 -0.02520 3.00114 0.000 0.000 0.000
v -0.01674 -0.03330 2.94318 0.000 0.000 0.000
v -0.08586 -0.11052 2.92266 0.000 0.000 0.000
v -0.06084 -0.11430 2.86956 0.000 0.000 0.000
v -0.12996 -0.03528 2.94282 0.000 0.000 0.000
v -0.19782 -0.01638 2.94282 0.000 0.000 0.000
v -0.29124 0.04914 2.91114 0.000 0.000 0.000
v -0.29322 0.13968 2.91636 0.000 0.000 0.000
v -0.13482 -0.08460 2.89548 0.000 0.000 0.000
v -0.13932 -0.14706 2.83572 0.000 0.000 0.000
v -0.12132 -0.14220 2.81880 0.000 0.000 0.000
v -0.16452 -0.12402 2.83860 0.000 0.000 0.000
v -0.15912 -0.14454 2.80548 0.000 0.000 0.000
v 0.01314 -0.02250 2.97108 0.000 0.000 0.000
v -0.30492 0.13752 2.89710 0.000 0.000 0.000
v -0.31482 0.06390 2.84832 0.000 0.000 0.000
v -0.33822 0.09792 2.86056 0.000 0.000 0.000
v -0.33570 0.14328 2.88810 0.000 0.000 0.000
v -0.35424 0.14688 2.88288 0.000 0.000 0.000
v -0.32022 0.16470 2.84202 0.000 0.000 0.000
v -0.25002 0.20340 2.86830 0.000 0.000 0.000
v -0.28548 0.17316 2.81808 0.000 0.000 0.000
v -0.23688 0.19188 2.79126 0.000 0.000 0.000
v -0.17046 0.20358 2.78316 0.000 0.000 0.000
v -0.13338 0.22374 2.87622 0.000 0.000 0.000
v -0.18360 0.21330 2.93814 0.000 0.000 0.000
v -0.05274 0.18576 2.99898 0.000 0.000 0.000
v 0.02160 0.15624 3.01968 0.000 0.000 0.000
v 0.02178 0.18090 2.93112 0.000 0.000 0.000
v -0.06534 0.20772 2.87388 0.000 0.000 0.000
v 0.00576 0.23148 2.82780 0.000 0.000 0.000
v -0.05256 0.22194 2.81034 0.000 0.000 0.000
v -0.03528 0.24156 2.72790 0.000 0.000 0.000
v -0.06768 0.23760 2.73834 0.000 0.000 0.000
v -0.05760 0.23436 2.70054 0.000 0.000 0.000
v -0.02394 0.22140 2.71782 0.000 0.000 0.000
v 0.02250 0.19710 2.78316 0.000 0.000 0.000
v 0.03276 0.15192 2.89170 0.000 0.000 0.000
v 0.05256 0.16542 2.94822 0.000 0.000 0.000
v 0.05760 0.14346 2.92500 0.000 0.000 0.000
v 0.07578 0.13950 3.02562 0.000 0.000 0.000
v 0.13392 0.12114 3.01626 0.000 0.000 0.000
v 0.17190 0.09000 2.97936 0.000 0.000 0.000
v 0.13014 0.13284 2.97810 0.000 0.000 0.000
v 0.16686 0.09846 2.96010 0.000 0.000 0.000
v 0.08010 0.15066 2.96082 0.000 0.000 0.000
v 0.17316 0.03240 2.97972 0.000 0.000 0.000
v 0.15390 -0.00828 2.97972 0.000 0.000 0.000
v 0.16470 0.02790 2.95524 0.000 0.000 0.000
v 0.15570 0.00126 2.95074 0.000 0.000 0.000
v 0.17532 0.07128 2.95758 0.000 0.000 0.000
v 0.16866 0.04950 2.93742 0.000 0.000 0.000
v -0.28440 0.01440 2.84058 0.000 0.000 0.000
v -0.23292 -0.02898 2.84778 0.000 0.000 0.000
v -0.16524 -0.03906 2.89080 0.000 0.000 0.000
v -0.09072 -0.03510 2.90916 0.000 0.000 0.000
v 0.03402 -0.02088 3.00834 0.000 0.000 0.000
v -0.03546 0.17136 2.85192 0.000 0.000 0.000
v -0.10098 0.20016 2.82438 0.000 0.000 0.000
v -0.08946 -0.11934 2.91348 0.000 0.000 0.000
v -0.06876 -0.11898 2.89332 0.000 0.000 0.000
v -0.06390 -0.10728 2.91924 0.000 0.000 0.000
v 0.04554 0.08370 3.07062 0.000 0.000 0.000
v 0.06624 0.06570 3.06234 0.000 0.000 0.000
v 0.07020 0.09270 3.06162 0.000 0.000 0.000
v -0.18774 0.13140 3.00726 0.000 0.000 0.000
v -0.17100 0.11754 3.01752 0.000 0.000 0.000
v -0.16920 0.14454 3.01356 0.000 0.000 0.000
v -0.03366 0.06984 3.05964 0.000 0.000 0.000
v -0.01260 0.05472 3.05820 0.000 0.000 0.000
v -0.01026 0.08046 3.05622 0.000 0.000 0.000
v -0.01566 0.02556 3.05406 0.000 0.000 0.000
v 0.00936 0.00990 3.04722 0.000 0.000 0.000
v 0.01080 0.03330 3.06630 0.000 0.000 0.000
v -0.19566 0.04464 2.98962 0.000 0.000 0.000
v -0.17190 0.02754 2.98800 0.000 0.000 0.000
v -0.16920 0.05670 2.98566 0.000 0.000 0.000
v -0.24642 0.18792 2.91870 0.000 0.000 0.000
v -0.23724 0.20106 2.89746 0.000 0.000 0.000
v -0.26010 0.18756 2.89584 0.000 0.000 0.000
v -0.29826 0.04158 2.89674 0.000 0.000 0.000
v -0.27882 0.03060 2.90916 0.000 0.000 0.000
v -0.29178 0.04968 2.91996 0.000 0.000 0.000
v 0.09036 0.14058 3.01410 0.000 0.000 0.000
v 0.08640 0.14976 2.98854 0.000 0.000 0.000
v 0.06750 0.15426 3.00780 0.000 0.000 0.000
v -0.10908 -0.00918 2.99538 0.000 0.000 0.000
v -0.08352 -0.01926 2.99214 0.000 0.000 0.000
v -0.08820 0.00108 3.01050 0.000 0.000 0.000
v -0.09648 0.18162 2.99826 0.000 0.000 0.000
v -0.09036 0.20268 2.97450 0.000 0.000 0.000
v -0.12006 0.18972 2.97738 0.000 0.000 0.000
v -0.12366 0.21330 2.84130 0.000 0.000 0.000
v -0.13680 0.21204 2.82294 0.000 0.000 0.000
v -0.14562 0.21834 2.84274 0.000 0.000 0.000
v -0.17874 0.21816 2.89296 0.000 0.000 0.000
v -0.19080 0.21582 2.87334 0.000 0.000 0.000
v -0.20196 0.21780 2.89350 0.000 0.000 0.000
v -0.23634 0.08478 2.98530 0.000 0.000 0.000
v -0.24930 0.07686 2.97018 0.000 0.000 0.000
v -0.23904 0.06354 2.98368 0.000 0.000 0.000
v -0.30834 0.11592 2.88972 0.000 0.000 0.000
v -0.31878 0.10368 2.87874 0.000 0.000 0.000
v -0.31086 0.09756 2.89530 0.000 0.000 0.000
v -0.14112 -0.03204 2.94048 0.000 0.000 0.000
v -0.11646 -0.05112 2.93976 0.000 0.000 0.000
v -0.11862 -0.02934 2.96190 0.000 0.000 0.000
v -0.15102 -0.10566 2.86380 0.000 0.000 0.000
v -0.14382 -0.12294 2.86218 0.000 0.000 0.000
v -0.13644 -0.11070 2.87442 0.000 0.000 0.000
v 0.02304 0.21708 2.82924 0.000 0.000 0.000
v 0.02088 0.21564 2.80044 0.000 0.000 0.000
v 0.00558 0.23526 2.81520 0.000 0.000 0.000
v 0.12798 0.06030 3.05568 0.000 0.000 0.000
v 0.13356 0.07380 3.04812 0.000 0.000 0.000
v 0.11898 0.07398 3.05568 0.000 0.000 0.000
v -0.09216 0.11322 3.05352 0.000 0.000 0.000
v -0.08010 0.13428 3.04344 0.000 0.000 0.000
v -0.10620 0.13212 3.04146 0.000 0.000 0.000
v -0.02178 0.12474 3.04434 0.000 0.000 0.000
v -0.01170 0.14580 3.03318 0.000 0.000 0.000
v -0.03690 0.14526 3.03912 0.000 0.000 0.000
v 0.04194 0.14922 3.03408 0.000 0.000 0.000
v 0.04896 0.15804 3.00618 0.000 0.000 0.000
v 0.02070 0.16128 3.01644 0.000 0.000 0.000
v -0.13698 0.17694 2.95236 0.000 0.000 0.000
v -0.12546 0.20088 2.93994 0.000 0.000 0.000
v -0.15390 0.20016 2.94660 0.000 0.000 0.000
v -0.28926 0.07884 2.92590 0.000 0.000 0.000
v -0.27522 0.05904 2.93688 0.000 0.000 0.000
v -0.27450 0.08334 2.94768 0.000 0.000 0.000
v -0.24948 0.20754 2.87622 0.000 0.000 0.000
v -0.23058 0.21042 2.85930 0.000 0.000 0.000
v -0.25434 0.20538 2.85120 0.000 0.000 0.000
v 0.02754 0.00486 3.04920 0.000 0.000 0.000
v 0.04374 -0.00990 3.03282 0.000 0.000 0.000
v 0.05472 0.00738 3.05100 0.000 0.000 0.000
v -0.03690 0.19224 2.95740 0.000 0.000 0.000
v -0.02574 0.19620 2.93220 0.000 0.000 0.000
v -0.05238 0.20250 2.93670 0.000 0.000 0.000
v -0.15696 0.05148 3.01572 0.000 0.000 0.000
v -0.13770 0.02646 3.02328 0.000 0.000 0.000
v -0.12996 0.05652 3.03300 0.000 0.000 0.000
v -0.21024 -0.02304 2.90970 0.000 0.000 0.000
v -0.20214 -0.03186 2.89062 0.000 0.000 0.000
v -0.18882 -0.03024 2.90880 0.000 0.000 0.000
v 0.16992 0.04716 2.99448 0.000 0.000 0.000
v 0.17532 0.05220 2.97252 0.000 0.000 0.000
v 0.17478 0.06876 2.98836 0.000 0.000 0.000
v -0.19890 0.20034 2.94480 0.000 0.000 0.000
v -0.21924 0.19332 2.94336 0.000 0.000 0.000
v -0.20556 0.18378 2.95704 0.000 0.000 0.000
v -0.28278 0.17316 2.90376 0.000 0.000 0.000
v -0.29808 0.16200 2.88792 0.000 0.000 0.000
v -0.29196 0.15102 2.90916 0.000 0.000 0.000
v -0.05562 0.20538 2.89674 0.000 0.000 0.000
v -0.04644 0.21006 2.86722 0.000 0.000 0.000
v -0.07686 0.20772 2.87388 0.000 0.000 0.000
v -0.04464 0.23202 2.77938 0.000 0.000 0.000
v -0.04698 0.23850 2.76192 0.000 0.000 0.000
v -0.06120 0.22986 2.77074 0.000 0.000 0.000
v -0.25272 0.02826 2.94606 0.000 0.000 0.000
v -0.24462 0.01476 2.92914 0.000 0.000 0.000
v -0.23274 0.01710 2.94876 0.000 0.000 0.000
v 0.13068 0.00684 3.03210 0.000 0.000 0.000
v 0.14850 0.00792 3.01716 0.000 0.000 0.000
v 0.14310 0.02628 3.03012 0.000 0.000 0.000
vt 0.86719 0.66406
vt 0.91406 0.52344
vt 0.92969 0.66406
vt 0.99219 0.52344
vt 0.99219 0.66406
vt 0.99219 0.47656
vt 0.92969 0.66406
vt 0.99219 0.52344
vt 0.99219 0.66406
vt 0.69531 0.55469
vt 0.83594 0.55469
vt 0.69531 0.66406
vt 0.83594 0.61719
vt 0.86719 0.55469
vt 0.83594 0.55469
vt 0.69531 0.55469
vt 0.58594 0.66406
vt 0.50781 0.58594
vt 0.50781 0.66406
vt 0.58594 0.66406
vt 0.58594 0.58594
vt 0.66406 0.66406
vt 0.58594 0.55469
vt 0.66406 0.60156
vt 0.53906 0.55469
vt 0.63281 0.55469
vt 0.50781 0.55469
vt 0.66406 0.55469
vt 0.63281 0.55469
vt 0.53906 0.55469
vt 0.58594 0.55469
vt 0.58594 0.58594
vt 0.50781 0.66406
vt 0.50781 0.58594
vt 0.58594 0.66406
vt 0.58594 0.66406
vt 0.58594 0.58594
vt 0.66406 0.66406
vt 0.58594 0.55469
vt 0.66406 0.60156
vt 0.53906 0.55469
vt 0.63281 0.55469
vt 0.50781 0.55469
vt 0.66406 0.55469
vt 0.63281 0.55469
vt 0.53906 0.55469
vt 0.58594 0.55469
vt 0.58594 0.58594
vt 0.82031 0.11719
vt 0.80469 0.00781
vt 0.88281 0.07031
vt 0.88281 0.00781
vt 0.92969 0.05469
vt 0.92969 0.00781
vt 0.99219 0.00781
vt 0.75781 0.08594
vt 0.78906 0.00781
vt 0.75781 0.05469
vt 0.75781 0.00781
vt 0.67969 0.00781
vt 0.75781 0.08594
vt 0.75781 0.13281
vt 0.67969 0.13281
vt 0.53906 0.13281
vt 0.53906 0.00781
vt 0.39844 0.11719
vt 0.39844 0.00781
vt 0.46094 0.24219
vt 0.35156 0.24219
vt 0.30469 0.11719
vt 0.30469 0.00781
vt 0.69531 0.24219
vt 0.78906 0.24219
vt 0.22656 0.00781
vt 0.22656 0.13281
vt 0.14844 0.00781
vt 0.14844 0.11719
vt 0.00781 0.14844
vt 0.00781 0.08594
vt 0.30469 0.24219
vt 0.22656 0.13281
vt 0.30469 0.11719
vt 0.39844 0.11719
vt 0.53906 0.13281
vt 0.46094 0.24219
vt 0.35156 0.24219
vt 0.67969 0.13281
vt 0.00781 0.14844
vt 0.14844 0.11719
vt 0.75781 0.08594
vt 0.75781 0.05469
vt 0.75781 0.08594
vt 0.82031 0.11719
vt 0.88281 0.07031
vt 0.92969 0.05469
vt 0.75781 0.13281
vt 0.69531 0.24219
vt 0.78906 0.24219
vt 0.55469 0.24219
vt 0.14844 0.33594
vt 0.10156 0.30469
vt 0.17969 0.25781
vt 0.08594 0.39844
vt 0.14844 0.41406
vt 0.13281 0.25781
vt 0.22656 0.46094
vt 0.22656 0.35156
vt 0.30469 0.52344
vt 0.30469 0.41406
vt 0.41406 0.53906
vt 0.39844 0.41406
vt 0.57031 0.53906
vt 0.55469 0.41406
vt 0.35156 0.30469
vt 0.30469 0.30469
vt 0.35156 0.25781
vt 0.30469 0.25781
vt 0.24219 0.25781
vt 0.55469 0.33594
vt 0.71094 0.41406
vt 0.50781 0.28906
vt 0.69531 0.25781
vt 0.55469 0.25781
vt 0.41406 0.25781
vt 0.78906 0.25781
vt 0.78906 0.42969
vt 0.75781 0.53906
vt 0.71094 0.53906
vt 0.82031 0.42969
vt 0.80469 0.50781
vt 0.86719 0.42969
vt 0.82031 0.42969
vt 0.71094 0.41406
vt 0.55469 0.41406
vt 0.55469 0.33594
vt 0.78906 0.42969
vt 0.78906 0.25781
vt 0.39844 0.41406
vt 0.30469 0.41406
vt 0.35156 0.30469
vt 0.50781 0.28906
vt 0.30469 0.30469
vt 0.35156 0.25781
vt 0.30469 0.25781
vt 0.22656 0.35156
vt 0.14844 0.33594
vt 0.10156 0.30469
vt 0.17969 0.25781
vt 0.13281 0.25781
vt 0.24219 0.25781
vt 0.03906 0.39844
vt 0.05469 0.30469
vt 0.00781 0.36719
vt 0.00781 0.25781
vt 0.05469 0.30469
vt 0.00781 0.25781
vt 0.22656 0.57031
vt 0.16406 0.63281
vt 0.30469 0.63281
vt 0.07031 0.57031
vt 0.03906 0.60156
vt 0.11719 0.47656
vt 0.19531 0.47656
vt 0.03906 0.50781
vt 0.00781 0.53906
vt 0.83594 0.38281
vt 0.83594 0.25781
vt 0.91406 0.30469
vt 0.91406 0.42969
vt 0.99219 0.32031
vt 0.99219 0.19531
vt 0.91406 0.13281
vt 0.86719 0.11719
vt 0.96094 0.10156
vt 0.91406 0.08594
vt 0.00781 0.24219
vt 0.13281 0.24219
vt 0.14844 0.17969
vt 0.21094 0.17969
vt 0.27344 0.19531
vt 0.24219 0.24219
vt 0.17969 0.24219
vt 0.55469 0.24219
vt 0.55469 0.25781
vt 0.41406 0.25781
vt 0.69531 0.25781
vt 0.30469 0.63281
vt 0.16406 0.63281
vt 0.22656 0.57031
vt 0.07031 0.57031
vt 0.03906 0.60156
vt 0.11719 0.47656
vt 0.19531 0.47656
vt 0.03906 0.50781
vt 0.00781 0.53906
vt 0.91406 0.30469
vt 0.83594 0.25781
vt 0.83594 0.38281
vt 0.91406 0.42969
vt 0.99219 0.32031
vt 0.99219 0.19531
vt 0.91406 0.13281
vt 0.86719 0.11719
vt 0.96094 0.10156
vt 0.91406 0.08594
vt 0.13281 0.24219
vt 0.00781 0.24219
vt 0.14844 0.17969
vt 0.21094 0.17969
vt 0.27344 0.19531
vt 0.24219 0.24219
vt 0.30469 0.24219
vt 0.17969 0.24219
vt 0.36719 0.64844
vt 0.36719 0.55469
vt 0.41406 0.55469
vt 0.32031 0.55469
vt 0.47656 0.55469
vt 0.27344 0.55469
vt 0.41406 0.55469
vt 0.36719 0.55469
vt 0.32031 0.55469
vt 0.41406 0.55469
vt 0.36719 0.55469
vt 0.36719 0.64844
vt 0.32031 0.55469
vt 0.47656 0.55469
vt 0.27344 0.55469
vt 0.41406 0.55469
vt 0.36719 0.55469
vt 0.32031 0.55469
vt 0.27369 0.72656
vt 0.37025 0.75781
vt 0.30588 0.78906
vt 0.38635 0.86719
vt 0.32197 0.86719
vt 0.33807 0.72656
vt 0.22541 0.91406
vt 0.22541 0.82031
vt 0.11275 0.97656
vt 0.11275 0.88281
vt 0.00010 0.99219
vt 0.00010 0.88281
vt 0.00010 0.77344
vt 0.11275 0.77344
vt 0.00010 0.72656
vt 0.11275 0.72656
vt 0.19322 0.72656
vt 0.30588 0.78906
vt 0.37025 0.75781
vt 0.27369 0.72656
vt 0.11275 0.88281
vt 0.00010 0.88281
vt 0.00010 0.77344
vt 0.11275 0.77344
vt 0.00010 0.72656
vt 0.11275 0.72656
vt 0.33807 0.72656
vt 0.19322 0.72656
vt 0.22541 0.82031
vt 0.43463 0.77344
vt 0.49900 0.72656
vt 0.49900 0.82031
vt 0.45072 0.85156
vt 0.43463 0.77344
vt 0.49900 0.72656
vt 0.08057 0.78906
vt 0.17713 0.72656
vt 0.16103 0.88281
vt 0.33807 0.78906
vt 0.32197 0.88281
vt 0.16103 0.99219
vt 0.11275 0.99219
vt 0.08057 0.88281
vt 0.03228 0.88281
vt 0.04838 0.96094
vt 0.00010 0.88281
vt 0.03228 0.88281
vt 0.16103 0.88281
vt 0.08057 0.88281
vt 0.08057 0.78906
vt 0.49900 0.88281
vt 0.32197 0.99219
vt 0.49900 0.99219
vt 0.49900 0.88281
vt 0.32197 0.88281
vt 0.33807 0.78906
vt 0.49900 0.77344
vt 0.38635 0.75781
vt 0.17713 0.72656
vt 0.33807 0.72656
vt 0.46682 0.72656
vt 0.49900 0.77344
vt 0.38635 0.75781
vt 0.33807 0.72656
vt 0.46682 0.72656
vt 0.37025 0.82031
vt 0.30588 0.89844
vt 0.45072 0.89844
vt 0.49900 0.82031
vt 0.37025 0.72656
vt 0.25760 0.74219
vt 0.19322 0.80469
vt 0.17713 0.86719
vt 0.16103 0.75781
vt 0.12885 0.80469
vt 0.45072 0.89844
vt 0.30588 0.89844
vt 0.37025 0.82031
vt 0.49900 0.82031
vt 0.37025 0.72656
vt 0.25760 0.74219
vt 0.19322 0.80469
vt 0.17713 0.86719
vt 0.16103 0.75781
vt 0.12885 0.80469
vt 0.00781 0.66406
vt 0.00781 0.66406
vt 0.00781 0.66406
vt 0.00781 0.66406
vt 0.00781 0.66406
vt 0.00781 0.66406
vt 0.00781 0.66406
vt 0.00781 0.66406
vt 0.00781 0.66406
vt 0.00781 0.66406
vt 0.00781 0.66406
vt 0.00781 0.66406
vt 0.00781 0.66406
vt 0.00781 0.66406
vt 0.00781 0.66406
vt 0.00781 0.66406
vt 0.00781 0.66406
vt 0.00781 0.66406
vt 0.00781 0.66406
vt 0.00781 0.66406
vt 0.00781 0.66406
vt 0.00781 0.66406
vt 0.00781 0.66406
vt 0.00781 0.66406
vt 0.00781 0.66406
vt 0.00781 0.66406
vt 0.00781 0.66406
vt 0.00781 0.66406
vt 0.00781 0.66406
vt 0.00781 0.66406
vt 0.00781 0.66406
vt 0.00781 0.66406
vt 0.00781 0.66406
vt 0.00781 0.66406
vt 0.00781 0.66406
vt 0.00781 0.66406
vt 0.00781 0.66406
vt 0.00781 0.66406
vt 0.00781 0.66406
vt 0.00781 0.66406
vt 0.00781 0.66406
vt 0.00781 0.66406
vt 0.00781 0.66406
vt 0.00781 0.66406
vt 0.00781 0.66406
vt 0.00781 0.66406
vt 0.00781 0.66406
vt 0.00781 0.66406
vt 0.00781 0.66406
vt 0.00781 0.66406
vt 0.00781 0.66406
vt 0.00781 0.66406
vt 0.00781 0.66406
vt 0.00781 0.66406
vt 0.00781 0.66406
vt 0.00781 0.66406
vt 0.00781 0.66406
vt 0.00781 0.66406
vt 0.00781 0.66406
vt 0.00781 0.66406
vt 0.00781 0.66406
vt 0.00781 0.66406
vt 0.00781 0.66406
vt 0.00781 0.66406
vt 0.00781 0.66406
vt 0.00781 0.66406
vt 0.00781 0.66406
vt 0.00781 0.66406
vt 0.00781 0.66406
vt 0.00781 0.66406
vt 0.00781 0.66406
vt 0.00781 0.66406
vt 0.00781 0.66406
vt 0.00781 0.66406
vt 0.25781 0.71094
vt 0.25781 0.67969
vt 0.22656 0.69531
vt 0.07031 0.71094
vt 0.07031 0.67969
vt 0.03906 0.69531
vt 0.03906 0.71094
vt 0.03906 0.67969
vt 0.00781 0.69531
vt 0.21094 0.71094
vt 0.21094 0.67969
vt 0.17969 0.69531
vt 0.14844 0.71094
vt 0.14844 0.67969
vt 0.11719 0.69531
vt 0.44531 0.71094
vt 0.44531 0.67969
vt 0.41406 0.69531
vt 0.49219 0.67969
vt 0.46094 0.69531
vt 0.49219 0.71094
vt 0.27344 0.71094
vt 0.27344 0.67969
vt 0.24219 0.69531
vt 0.11719 0.67969
vt 0.08594 0.69531
vt 0.11719 0.71094
vt 0.38281 0.71094
vt 0.38281 0.67969
vt 0.35156 0.69531
vt 0.17969 0.67969
vt 0.14844 0.69531
vt 0.17969 0.71094
vt 0.16406 0.67969
vt 0.13281 0.69531
vt 0.16406 0.71094
vt 0.41406 0.67969
vt 0.38281 0.69531
vt 0.41406 0.71094
vt 0.21094 0.69531
vt 0.24219 0.71094
vt 0.24219 0.67969
vt 0.07031 0.69531
vt 0.10156 0.71094
vt 0.10156 0.67969
vt 0.32031 0.71094
vt 0.32031 0.67969
vt 0.28906 0.69531
vt 0.28906 0.71094
vt 0.28906 0.67969
vt 0.25781 0.69531
vt 0.22656 0.69531
vt 0.25781 0.67969
vt 0.25781 0.71094
vt 0.44531 0.69531
vt 0.47656 0.67969
vt 0.47656 0.71094
vt 0.32031 0.69531
vt 0.35156 0.67969
vt 0.35156 0.71094
vt 0.17969 0.69531
vt 0.21094 0.67969
vt 0.21094 0.71094
vt 0.11719 0.69531
vt 0.14844 0.67969
vt 0.14844 0.71094
vt 0.41406 0.69531
vt 0.44531 0.67969
vt 0.44531 0.71094
vt 0.49219 0.71094
vt 0.46094 0.69531
vt 0.49219 0.67969
vt 0.24219 0.69531
vt 0.27344 0.67969
vt 0.27344 0.71094
vt 0.11719 0.71094
vt 0.08594 0.69531
vt 0.11719 0.67969
vt 0.35156 0.69531
vt 0.38281 0.67969
vt 0.38281 0.71094
vt 0.17969 0.71094
vt 0.14844 0.69531
vt 0.17969 0.67969
vt 0.16406 0.71094
vt 0.13281 0.69531
vt 0.16406 0.67969
vt 0.33594 0.71094
vt 0.30469 0.69531
vt 0.33594 0.67969
vt 0.24219 0.67969
vt 0.24219 0.71094
vt 0.21094 0.69531
vt 0.10156 0.67969
vt 0.10156 0.71094
vt 0.07031 0.69531
vt 0.28906 0.69531
vt 0.32031 0.67969
vt 0.32031 0.71094
vt 0.25781 0.69531
vt 0.28906 0.67969
vt 0.28906 0.71094
vt 0.41406 0.71094
vt 0.38281 0.69531
vt 0.41406 0.67969
vt 0.42969 0.71094
vt 0.39844 0.69531
vt 0.42969 0.67969
usemtl m0
f 1/1 2/2 3/3
f 2/2 4/4 3/3
f 3/3 4/4 5/5
f 2/2 6/6 4/4
f 7/7 2/2 1/1
f 8/8 6/6 2/2
f 7/7 8/8 2/2
f 9/9 8/8 7/7
f 10/10 11/11 12/12
f 11/11 13/13 12/12
f 14/14 13/13 11/11
f 12/12 13/13 15/15
f 15/15 13/13 14/14
f 12/12 15/15 16/16
f 17/17 18/18 19/19
f 19/19 18/18 20/20
f 20/20 18/18 21/21
f 20/20 21/21 22/22
f 21/21 18/18 23/23
f 21/21 23/23 24/24
f 22/22 21/21 24/24
f 23/23 18/18 25/25
f 23/23 26/26 24/24
f 25/25 18/18 27/27
f 26/26 28/28 24/24
f 28/28 29/29 24/24
f 18/18 30/30 27/27
f 29/29 31/31 24/24
f 18/18 31/31 30/30
f 18/18 32/32 31/31
f 31/31 32/32 24/24
f 22/22 32/32 17/17
f 24/24 32/32 22/22
f 17/17 32/32 18/18
f 33/33 34/34 35/35
f 36/36 34/34 33/33
f 37/37 34/34 36/36
f 38/38 37/37 36/36
f 39/39 34/34 37/37
f 40/40 39/39 37/37
f 40/40 37/37 38/38
f 41/41 34/34 39/39
f 40/40 42/42 39/39
f 43/43 34/34 41/41
f 40/40 44/44 42/42
f 40/40 45/45 44/44
f 43/43 46/46 34/34
f 40/40 47/47 45/45
f 46/46 47/47 34/34
f 47/47 48/48 34/34
f 40/40 48/48 47/47
f 35/35 48/48 38/38
f 38/38 48/48 40/40
f 34/34 48/48 35/35
f 49/49 50/50 51/51
f 51/51 50/50 52/52
f 51/51 52/52 53/53
f 53/53 52/52 54/54
f 53/53 54/54 55/55
f 49/49 56/56 50/50
f 56/56 57/57 50/50
f 56/56 58/58 57/57
f 58/58 59/59 57/57
f 58/58 60/60 59/59
f 61/61 60/60 58/58
f 49/49 62/62 56/56
f 62/62 63/63 61/61
f 63/63 60/60 61/61
f 64/64 60/60 63/63
f 64/64 65/65 60/60
f 66/66 65/65 64/64
f 67/67 65/65 66/66
f 66/66 64/64 68/68
f 69/69 66/66 68/68
f 70/70 67/67 66/66
f 70/70 66/66 69/69
f 71/71 67/67 70/70
f 72/72 63/63 62/62
f 72/72 62/62 73/73
f 74/74 71/71 70/70
f 75/75 74/74 70/70
f 76/76 74/74 75/75
f 77/77 76/76 75/75
f 78/78 76/76 77/77
f 79/79 76/76 78/78
f 80/80 70/70 69/69
f 81/81 74/74 76/76
f 82/82 67/67 71/71
f 82/82 71/71 74/74
f 82/82 74/74 81/81
f 83/83 67/67 82/82
f 83/83 65/65 67/67
f 84/84 65/65 83/83
f 85/85 84/84 83/83
f 85/85 83/83 86/86
f 86/86 83/83 82/82
f 60/60 65/65 84/84
f 87/87 60/60 84/84
f 88/88 76/76 79/79
f 89/89 76/76 88/88
f 81/81 76/76 89/89
f 90/90 60/60 87/87
f 91/91 60/60 90/90
f 59/59 60/60 91/91
f 57/57 59/59 91/91
f 57/57 91/91 92/92
f 50/50 57/57 92/92
f 50/50 92/92 93/93
f 94/94 50/50 93/93
f 52/52 50/50 94/94
f 95/95 52/52 94/94
f 54/54 52/52 95/95
f 55/55 54/54 95/95
f 92/92 96/96 93/93
f 90/90 87/87 96/96
f 96/96 87/87 97/97
f 98/98 96/96 97/97
f 97/97 87/87 99/99
f 87/87 84/84 99/99
f 99/99 84/84 85/85
f 100/100 101/101 102/102
f 103/103 101/101 100/100
f 104/104 103/103 100/100
f 101/101 105/105 102/102
f 104/104 100/100 106/106
f 106/106 100/100 107/107
f 100/100 102/102 107/107
f 106/106 107/107 108/108
f 108/108 107/107 109/109
f 108/108 109/109 110/110
f 110/110 109/109 111/111
f 110/110 111/111 112/112
f 112/112 111/111 113/113
f 109/109 114/114 111/111
f 115/115 114/114 109/109
f 115/115 116/116 114/114
f 117/117 116/116 115/115
f 107/107 118/118 109/109
f 118/118 115/115 109/109
f 118/118 117/117 115/115
f 102/102 118/118 107/107
f 111/111 114/114 119/119
f 111/111 119/119 113/113
f 113/113 119/119 120/120
f 114/114 121/121 119/119
f 119/119 122/122 120/120
f 119/119 123/123 122/122
f 121/121 123/123 119/119
f 121/121 124/124 123/123
f 120/120 122/122 125/125
f 120/120 125/125 126/126
f 120/120 126/126 127/127
f 128/128 120/120 127/127
f 127/127 126/126 129/129
f 127/127 129/129 130/130
f 130/130 129/129 131/131
f 131/131 132/132 130/130
f 130/130 132/132 127/127
f 127/127 133/133 128/128
f 133/133 134/134 128/128
f 133/133 135/135 134/134
f 127/127 136/136 133/133
f 132/132 136/136 127/127
f 136/136 137/137 133/133
f 134/134 135/135 138/138
f 134/134 138/138 112/112
f 128/128 134/134 112/112
f 112/112 138/138 110/110
f 138/138 139/139 110/110
f 110/110 139/139 108/108
f 138/138 140/140 139/139
f 135/135 140/140 138/138
f 135/135 141/141 140/140
f 139/139 140/140 142/142
f 140/140 143/143 142/142
f 142/142 143/143 144/144
f 139/139 145/145 108/108
f 108/108 145/145 106/106
f 145/145 146/146 106/106
f 106/106 146/146 104/104
f 146/146 103/103 104/104
f 146/146 147/147 103/103
f 148/148 147/147 146/146
f 145/145 148/148 146/146
f 148/148 149/149 147/147
f 139/139 150/150 145/145
f 139/139 142/142 150/150
f 145/145 150/150 148/148
f 142/142 144/144 150/150
f 147/147 151/151 103/103
f 103/103 151/151 101/101
f 151/151 152/152 101/101
f 151/151 153/153 152/152
f 153/153 154/154 152/152
f 152/152 154/154 105/105
f 101/101 152/152 105/105
f 155/155 153/153 151/151
f 147/147 155/155 151/151
f 149/149 155/155 147/147
f 149/149 156/156 155/155
f 155/155 156/156 153/153
f 157/157 158/158 159/159
f 160/160 158/158 157/157
f 160/160 161/161 158/158
f 162/162 160/160 157/157
f 162/162 157/157 163/163
f 164/164 160/160 162/162
f 165/165 161/161 160/160
f 164/164 165/165 160/160
f 166/166 167/167 168/168
f 169/169 166/166 168/168
f 169/169 168/168 170/170
f 170/170 168/168 171/171
f 168/168 172/172 171/171
f 167/167 172/172 168/168
f 167/167 173/173 172/172
f 171/171 172/172 174/174
f 172/172 173/173 175/175
f 172/172 175/175 174/174
f 176/176 78/78 177/177
f 177/177 78/78 178/178
f 178/178 179/179 177/177
f 179/179 178/178 75/75
f 178/178 78/78 77/77
f 75/75 178/178 77/77
f 70/70 179/179 75/75
f 180/180 179/179 70/70
f 179/179 180/180 181/181
f 80/80 181/181 180/180
f 80/80 180/180 70/70
f 179/179 181/181 182/182
f 177/177 179/179 182/182
f 183/183 63/63 72/72
f 183/183 64/64 63/63
f 68/68 64/64 183/183
f 184/184 185/185 141/141
f 135/135 184/184 141/141
f 186/186 184/184 135/135
f 133/133 186/186 135/135
f 137/137 186/186 133/133
f 187/187 188/188 189/189
f 189/189 188/188 190/190
f 188/188 191/191 190/190
f 189/189 190/190 192/192
f 193/193 189/189 192/192
f 192/192 190/190 194/194
f 190/190 191/191 195/195
f 190/190 195/195 194/194
f 196/196 197/197 198/198
f 196/196 198/198 199/199
f 200/200 196/196 199/199
f 201/201 196/196 200/200
f 201/201 202/202 196/196
f 196/196 202/202 197/197
f 202/202 203/203 197/197
f 204/204 202/202 201/201
f 205/205 203/203 202/202
f 204/204 205/205 202/202
f 206/206 88/88 207/207
f 88/88 206/206 208/208
f 209/209 208/208 206/206
f 208/208 209/209 81/81
f 88/88 208/208 89/89
f 208/208 81/81 89/89
f 209/209 82/82 81/81
f 209/209 210/210 82/82
f 210/210 209/209 211/211
f 211/211 212/212 210/210
f 210/210 212/212 82/82
f 86/86 82/82 212/212
f 211/211 209/209 213/213
f 209/209 206/206 213/213
f 128/128 112/112 113/113
f 128/128 113/113 120/120
f 214/214 215/215 216/216
f 214/214 217/217 215/215
f 218/218 214/214 216/216
f 219/219 217/217 214/214
f 220/220 214/214 218/218
f 221/221 214/214 220/220
f 221/221 222/222 214/214
f 222/222 219/219 214/214
f 223/223 224/224 225/225
f 224/224 226/226 225/225
f 223/223 225/225 227/227
f 225/225 226/226 228/228
f 227/227 225/225 229/229
f 229/229 225/225 230/230
f 225/225 231/231 230/230
f 225/225 228/228 231/231
usemtl m1
f 232/232 233/233 234/234
f 234/234 233/233 235/235
f 234/234 235/235 236/236
f 232/232 237/237 233/233
f 238/238 234/234 236/236
f 239/239 234/234 238/238
f 239/239 232/232 234/234
f 240/240 239/239 238/238
f 241/241 239/239 240/240
f 242/242 241/241 240/240
f 243/243 241/241 242/242
f 243/243 244/244 241/241
f 241/241 244/244 245/245
f 244/244 246/246 245/245
f 245/245 246/246 247/247
f 241/241 248/248 239/239
f 241/241 245/245 248/248
f 245/245 247/247 248/248
f 239/239 248/248 232/232
f 236/236 235/235 249/249
f 236/236 249/249 238/238
f 235/235 250/250 249/249
f 249/249 250/250 251/251
f 240/240 252/252 242/242
f 242/242 252/252 253/253
f 252/252 254/254 253/253
f 255/255 254/254 252/252
f 255/255 256/256 254/254
f 257/257 256/256 255/255
f 250/250 258/258 251/251
f 259/259 255/255 252/252
f 259/259 257/257 255/255
f 260/260 259/259 252/252
f 251/251 259/259 260/260
f 249/249 251/251 260/260
f 240/240 260/260 252/252
f 238/238 260/260 240/240
f 238/238 249/249 260/260
f 250/250 261/261 258/258
f 261/261 262/262 258/258
f 263/263 262/262 261/261
f 264/264 263/263 261/261
f 265/265 263/263 264/264
f 265/265 266/266 263/263
f 237/237 266/266 265/265
f 233/233 265/265 264/264
f 237/237 265/265 233/233
f 233/233 264/264 235/235
f 235/235 264/264 250/250
f 264/264 261/261 250/250
f 267/267 268/268 269/269
f 269/269 268/268 270/270
f 269/269 270/270 271/271
f 269/269 271/271 272/272
f 273/273 269/269 272/272
f 273/273 274/274 269/269
f 274/274 267/267 269/269
f 275/275 274/274 273/273
f 276/276 275/275 273/273
f 277/277 275/275 276/276
f 276/276 278/278 277/277
f 273/273 278/278 276/276
f 272/272 279/279 273/273
f 279/279 280/280 273/273
f 273/273 280/280 278/278
f 279/279 281/281 280/280
f 271/271 270/270 282/282
f 271/271 282/282 283/283
f 272/272 271/271 283/283
f 283/283 282/282 284/284
f 284/284 285/285 283/283
f 283/283 285/285 286/286
f 272/272 283/283 286/286
f 272/272 286/286 279/279
f 286/286 287/287 279/279
f 285/285 287/287 286/286
f 285/285 288/288 287/287
f 288/288 289/289 287/287
f 287/287 290/290 279/279
f 279/279 290/290 281/281
f 287/287 291/291 290/290
f 289/289 291/291 287/287
f 289/289 292/292 291/291
f 270/270 293/293 282/282
f 270/270 294/294 293/293
f 270/270 295/295 294/294
f 268/268 295/295 270/270
f 295/295 296/296 294/294
f 297/297 298/298 299/299
f 297/297 299/299 300/300
f 301/301 297/297 300/300
f 302/302 297/297 301/301
f 302/302 303/303 297/297
f 297/297 303/303 298/298
f 303/303 304/304 298/298
f 305/305 303/303 302/302
f 306/306 304/304 303/303
f 305/305 306/306 303/303
f 307/307 308/308 309/309
f 310/310 307/307 309/309
f 310/310 309/309 311/311
f 311/311 309/309 312/312
f 309/309 313/313 312/312
f 308/308 313/313 309/309
f 308/308 314/314 313/313
f 312/312 313/313 315/315
f 313/313 314/314 316/316
f 313/313 316/316 315/315
f 317/317 318/318 319/319
f 319/319 318/318 320/320
f 319/319 320/320 321/321
f 317/317 322/322 318/318
f 323/323 319/319 321/321
f 324/324 319/319 323/323
f 324/324 317/317 319/319
f 325/325 324/324 323/323
f 326/326 324/324 325/325
f 327/327 326/326 325/325
f 328/328 326/326 327/327
f 329/329 328/328 327/327
f 330/330 328/328 329/329
f 328/328 331/331 326/326
f 326/326 331/331 332/332
f 331/331 333/333 332/332
f 334/334 333/333 331/331
f 334/334 335/335 333/333
f 336/336 334/334 331/331
f 337/337 336/336 331/331
f 337/337 331/331 328/328
f 330/330 337/337 328/328
f 338/338 337/337 330/330
f 338/338 330/330 339/339
f 339/339 330/330 329/329
f 340/340 334/334 336/336
f 340/340 341/341 334/334
f 334/334 341/341 335/335
f 341/341 342/342 335/335
f 343/343 341/341 340/340
f 344/344 342/342 341/341
f 343/343 344/344 341/341
f 332/332 333/333 345/345
f 346/346 338/338 339/339
f 346/346 347/347 338/338
f 348/348 347/347 346/346
f 349/349 348/348 346/346
f 350/350 348/348 349/349
f 349/349 351/351 350/350
f 346/346 351/351 349/349
f 339/339 352/352 346/346
f 352/352 353/353 346/346
f 346/346 353/353 351/351
f 352/352 354/354 353/353
f 352/352 355/355 354/354
f 356/356 355/355 352/352
f 357/357 356/356 352/352
f 358/358 356/356 357/357
f 329/329 358/358 357/357
f 327/327 358/358 329/329
f 327/327 359/359 358/358
f 325/325 359/359 327/327
f 359/359 360/360 358/358
f 358/358 360/360 356/356
f 360/360 361/361 356/356
f 360/360 362/362 361/361
f 361/361 362/362 363/363
f 362/362 364/364 363/363
f 363/363 364/364 365/365
f 364/364 366/366 365/365
f 364/364 367/367 366/366
f 368/368 367/367 364/364
f 368/368 364/364 362/362
f 369/369 368/368 362/362
f 360/360 369/369 362/362
f 370/370 360/360 359/359
f 370/370 369/369 360/360
f 371/371 369/369 370/370
f 325/325 372/372 359/359
f 323/323 372/372 325/325
f 323/323 373/373 372/372
f 321/321 373/373 323/323
f 321/321 320/320 373/373
f 320/320 374/374 373/373
f 373/373 374/374 375/375
f 373/373 375/375 372/372
f 374/374 376/376 375/375
f 375/375 377/377 372/372
f 377/377 371/371 370/370
f 372/372 377/377 359/359
f 377/377 370/370 359/359
f 320/320 378/378 374/374
f 318/318 378/378 320/320
f 318/318 379/379 378/378
f 379/379 380/380 378/378
f 379/379 381/381 380/380
f 322/322 381/381 379/379
f 322/322 379/379 318/318
f 378/378 380/380 382/382
f 378/378 382/382 374/374
f 374/374 382/382 376/376
f 382/382 383/383 376/376
f 380/380 383/383 382/382
f 384/384 385/385 338/338
f 338/338 385/385 337/337
f 385/385 386/386 337/337
f 337/337 386/386 336/336
f 386/386 387/387 336/336
f 347/347 384/384 338/338
f 326/326 388/388 324/324
f 326/326 332/332 388/388
f 324/324 388/388 317/317
f 332/332 345/345 388/388
f 361/361 389/389 390/390
f 361/361 390/390 356/356
f 356/356 390/390 355/355
f 339/339 329/329 357/357
f 339/339 357/357 352/352
f 391/391 392/392 393/393
f 394/394 395/395 396/396
f 397/397 398/398 399/399
f 400/400 401/401 402/402
f 403/403 404/404 405/405
f 406/406 407/407 408/408
f 409/409 410/410 411/411
f 412/412 413/413 414/414
f 415/415 416/416 417/417
f 418/418 419/419 420/420
f 421/421 422/422 423/423
f 424/424 425/425 426/426
f 427/427 428/428 429/429
f 430/430 431/431 432/432
f 433/433 434/434 435/435
f 436/436 437/437 438/438
f 439/439 440/440 441/441
f 442/442 443/443 444/444
f 445/445 446/446 447/447
f 448/448 449/449 450/450
f 451/451 452/452 453/453
f 454/454 455/455 456/456
f 457/457 458/458 459/459
f 460/460 461/461 462/462
f 463/463 464/464 465/465
f 466/466 467/467 468/468
f 469/469 470/470 471/471
f 472/472 473/473 474/474
f 475/475 476/476 477/477
f 478/478 479/479 480/480
f 481/481 482/482 483/483
f 484/484 485/485 486/486
f 487/487 488/488 489/489
f 490/490 491/491 492/492
f 493/493 494/494 495/495
f 496/496 497/497 498/498
