mtllib acce1386.mtl
o acce1386
v 0.02466 -0.17622 2.63430 0.000 0.000 1.000
v 0.01926 -0.17748 2.64708 0.000 0.000 1.000
v 0.05112 -0.16668 2.61990 0.000 0.000 1.000
v 0.05112 0.16668 2.61990 0.000 0.000 1.000
v 0.01926 0.17748 2.64708 0.000 0.000 1.000
v 0.02466 0.17622 2.63430 0.000 0.000 1.000
v 0.05130 -0.17244 2.76210 0.000 0.000 0.949
v 0.10607 -0.15475 2.75036 0.000 0.000 0.949
v 0.08105 -0.11738 2.49467 0.000 0.000 0.929
v 0.04489 -0.17617 2.67739 0.000 0.000 0.949
v 0.10125 -0.16034 2.67350 0.000 0.000 0.949
v 0.04549 -0.17869 2.59119 0.000 0.000 0.949
v 0.08836 -0.15674 2.59418 0.000 0.000 0.949
v 0.07758 -0.17271 2.68133 0.000 0.000 0.949
v 0.06692 -0.18122 2.59002 0.000 0.000 0.878
v 0.08417 -0.14159 2.54176 0.000 0.000 0.969
v 0.06961 -0.15570 2.53316 0.000 0.000 0.878
v 0.05504 -0.14803 2.54293 0.000 0.000 0.969
v 0.05130 0.17244 2.76210 0.000 0.000 0.949
v 0.10607 0.15475 2.75036 0.000 0.000 0.949
v 0.08105 0.11738 2.49467 0.000 0.000 0.929
v 0.04489 0.17617 2.67739 0.000 0.000 0.949
v 0.10125 0.16034 2.67350 0.000 0.000 0.949
v 0.04549 0.17869 2.59119 0.000 0.000 0.949
v 0.08836 0.15674 2.59418 0.000 0.000 0.949
v 0.07758 0.17271 2.68133 0.000 0.000 0.949
v 0.06692 0.18122 2.59002 0.000 0.000 0.878
v 0.08417 0.14159 2.54176 0.000 0.000 0.969
v 0.06961 0.15570 2.53316 0.000 0.000 0.878
v 0.05504 0.14803 2.54293 0.000 0.000 0.969
v -0.00126 -0.17730 2.70360 0.000 0.000 1.000
v -0.01800 -0.17496 2.66184 0.000 0.000 1.000
v -0.02340 -0.12438 2.53332 0.000 0.000 1.000
v -0.06840 -0.05580 2.46708 0.000 0.000 1.000
v 0.02502 -0.16434 2.76840 0.000 0.000 1.000
v 0.11682 -0.13590 2.77920 0.000 0.000 1.000
v 0.04140 -0.14850 2.80890 0.000 0.000 1.000
v 0.12762 -0.12492 2.79900 0.000 0.000 1.000
v 0.09180 -0.13842 2.80260 0.000 0.000 1.000
v 0.10080 -0.14706 2.74860 0.000 0.000 1.000
v 0.08280 -0.15624 2.70360 0.000 0.000 1.000
v 0.07056 -0.15570 2.75670 0.000 0.000 1.000
v 0.05130 -0.16722 2.70360 0.000 0.000 1.000
v 0.06732 -0.16218 2.66454 0.000 0.000 1.000
v -0.08010 -0.06120 2.48760 0.000 0.000 1.000
v -0.03330 -0.12132 2.53440 0.000 0.000 1.000
v -0.09972 -0.03654 2.48760 0.000 0.000 1.000
v -0.06804 -0.11556 2.53890 0.000 0.000 1.000
v -0.04806 -0.10080 2.50650 0.000 0.000 1.000
v -0.04194 -0.09720 2.49714 0.000 0.000 1.000
v -0.11520 -0.07596 2.53890 0.000 0.000 1.000
v -0.14418 0.00000 2.53890 0.000 0.000 1.000
v -0.10188 0.00000 2.46708 0.000 0.000 1.000
v -0.11520 0.00000 2.48760 0.000 0.000 1.000
v -0.08820 -0.03186 2.46708 0.000 0.000 1.000
v -0.20583 0.00000 2.02563 0.000 0.000 0.949
v -0.21373 0.05998 2.22386 0.000 0.000 0.976
v -0.26033 0.04012 2.22386 0.000 0.000 0.914
v -0.27938 0.00000 2.22386 0.000 0.000 0.890
v -0.25772 -0.04405 2.22386 0.000 0.000 0.914
v -0.21307 -0.06361 2.22386 0.000 0.000 0.976
v -0.20516 -0.04808 2.14052 0.000 0.000 0.976
v -0.25997 0.00000 2.14052 0.000 0.000 0.949
v -0.24750 0.02896 2.14052 0.000 0.000 0.976
v -0.20560 0.04370 2.14052 0.000 0.000 0.976
v -0.24579 -0.03355 2.14052 0.000 0.000 0.976
v -0.01890 -0.12420 2.49156 0.000 0.000 1.000
v -0.09720 -0.07164 2.44080 0.000 0.000 1.000
v -0.12240 -0.02700 2.43540 0.000 0.000 1.000
v -0.18612 -0.09216 2.76210 0.000 0.000 1.000
v -0.21402 0.00000 2.76210 0.000 0.000 1.000
v -0.19962 -0.11086 2.62746 0.000 0.000 0.949
v -0.18522 -0.11520 2.62620 0.000 0.000 0.949
v -0.19962 -0.01260 2.62746 0.000 0.000 1.000
v -0.21834 -0.07670 2.63052 0.000 0.000 0.929
v -0.23382 0.00000 2.63826 0.000 0.000 0.929
v -0.18342 0.00000 2.59740 0.000 0.000 0.949
v -0.21114 -0.09596 2.55121 0.000 0.000 0.929
v -0.18144 -0.11785 2.54572 0.000 0.000 0.949
v -0.21114 -0.02520 2.49253 0.000 0.000 1.000
v -0.24012 -0.05708 2.55319 0.000 0.000 0.831
v -0.26676 0.00000 2.55391 0.000 0.000 0.831
v -0.19337 -0.09162 2.50688 0.000 0.000 0.949
v -0.24530 -0.04505 2.51327 0.000 0.000 0.929
v -0.26903 0.00000 2.51104 0.000 0.000 0.929
v -0.22030 -0.07484 2.50160 0.000 0.000 0.929
v -0.22030 -0.02083 2.50160 0.000 0.000 0.949
v -0.21157 -0.00695 2.47450 0.000 0.000 1.000
v -0.21157 -0.05553 2.47450 0.000 0.000 1.000
v -0.20047 -0.05414 2.47352 0.000 0.000 1.000
v -0.22808 -0.02342 2.47297 0.000 0.000 1.000
v -0.18409 -0.06593 2.46436 0.000 0.000 1.000
v -0.24682 0.00000 2.47185 0.000 0.000 1.000
v -0.18574 0.00000 2.45048 0.000 0.000 1.000
v -0.10386 -0.15984 2.76210 0.000 0.000 1.000
v -0.14832 -0.15880 2.59992 0.000 0.000 0.949
v -0.08820 -0.14130 2.59740 0.000 0.000 0.949
v -0.15840 -0.08262 2.59740 0.000 0.000 0.949
v -0.07272 -0.10962 2.52756 0.000 0.000 1.000
v -0.12510 -0.06030 2.52756 0.000 0.000 1.000
v -0.14562 0.00000 2.52756 0.000 0.000 0.949
v -0.07870 -0.17104 2.56543 0.000 0.000 0.949
v -0.07740 -0.07902 2.46366 0.000 0.000 0.980
v -0.10440 -0.04770 2.46366 0.000 0.000 0.980
v -0.12240 0.00000 2.46366 0.000 0.000 1.000
v -0.16576 -0.14710 2.54563 0.000 0.000 0.839
v -0.11948 -0.15374 2.52898 0.000 0.000 0.949
v -0.13428 0.00000 2.54617 0.000 0.000 0.949
v -0.17658 -0.11345 2.49536 0.000 0.000 0.980
v -0.14119 0.00000 2.48785 0.000 0.000 1.000
v -0.15624 0.00000 2.45741 0.000 0.000 1.000
v 0.00000 -0.18252 2.76210 0.000 0.000 1.000
v 0.00630 -0.19080 2.69370 0.000 0.000 0.949
v -0.04050 -0.18612 2.69352 0.000 0.000 0.949
v -0.04032 -0.18414 2.61018 0.000 0.000 0.949
v 0.02160 -0.18342 2.63970 0.000 0.000 0.949
v -0.01620 -0.16344 2.59740 0.000 0.000 0.949
v -0.03870 -0.12240 2.52756 0.000 0.000 1.000
v 0.07850 -0.25245 2.71795 0.000 0.000 1.000
v 0.07850 -0.21296 2.70538 0.000 0.000 0.996
v 0.07850 -0.17615 2.72441 0.000 0.000 0.965
v 0.07850 -0.16358 2.76390 0.000 0.000 0.965
v 0.07850 -0.18261 2.80071 0.000 0.000 0.949
v 0.07850 -0.22210 2.81327 0.000 0.000 0.902
v 0.07850 -0.25891 2.79425 0.000 0.000 0.780
v 0.07850 -0.27148 2.75476 0.000 0.000 0.902
v -0.23227 -0.17233 2.72394 0.000 0.000 1.000
v -0.21332 -0.13779 2.71111 0.000 0.000 0.957
v -0.19467 -0.10589 2.72990 0.000 0.000 0.965
v -0.18725 -0.09535 2.76926 0.000 0.000 0.965
v -0.19543 -0.11232 2.80618 0.000 0.000 0.949
v -0.21438 -0.14686 2.81902 0.000 0.000 0.910
v -0.23303 -0.17874 2.80022 0.000 0.000 0.788
v -0.24043 -0.18931 2.76084 0.000 0.000 0.910
v 0.06552 -0.21584 2.75933 0.000 0.000 1.000
v -0.20018 -0.15512 2.76505 0.000 0.000 1.000
v -0.13041 -0.22525 2.72000 0.000 0.000 1.000
v -0.11597 -0.18992 2.70722 0.000 0.000 0.996
v -0.10195 -0.15723 2.72606 0.000 0.000 0.965
v -0.09653 -0.14634 2.76547 0.000 0.000 0.965
v -0.10292 -0.16362 2.80235 0.000 0.000 0.965
v -0.11736 -0.19895 2.81513 0.000 0.000 0.965
v -0.13138 -0.23164 2.79630 0.000 0.000 0.831
v -0.13680 -0.24255 2.75690 0.000 0.000 0.965
v -0.01120 -0.24991 2.71897 0.000 0.000 1.000
v -0.00671 -0.21161 2.70630 0.000 0.000 0.996
v -0.00225 -0.17599 2.72524 0.000 0.000 0.965
v -0.00040 -0.16393 2.76467 0.000 0.000 0.965
v -0.00225 -0.18247 2.80152 0.000 0.000 0.965
v -0.00671 -0.22075 2.81419 0.000 0.000 0.965
v -0.01120 -0.25637 2.79527 0.000 0.000 0.831
v -0.01305 -0.26845 2.75582 0.000 0.000 0.965
v -0.21958 -0.13964 2.79203 0.000 0.000 0.965
v -0.21011 -0.12236 2.78563 0.000 0.000 0.965
v -0.20603 -0.11389 2.76716 0.000 0.000 0.965
v -0.20974 -0.11916 2.74747 0.000 0.000 0.965
v -0.21906 -0.13509 2.73809 0.000 0.000 0.965
v -0.22853 -0.15237 2.74450 0.000 0.000 0.965
v -0.23261 -0.16085 2.76295 0.000 0.000 0.965
v -0.22891 -0.15557 2.78264 0.000 0.000 0.945
v 0.08509 -0.20063 2.78003 0.000 0.000 0.945
v 0.08509 -0.22037 2.78631 0.000 0.000 0.925
v 0.08509 -0.23879 2.77679 0.000 0.000 0.906
v 0.08509 -0.24507 2.75704 0.000 0.000 0.925
v 0.08509 -0.23555 2.73865 0.000 0.000 0.965
v 0.08509 -0.21580 2.73235 0.000 0.000 0.965
v 0.08509 -0.19741 2.74187 0.000 0.000 0.965
v 0.08509 -0.19112 2.76161 0.000 0.000 0.965
v 0.08613 -0.27490 2.61196 0.000 0.000 1.000
v 0.08613 -0.23202 2.59830 0.000 0.000 1.000
v 0.08613 -0.19204 2.61898 0.000 0.000 0.965
v 0.08613 -0.17840 2.66186 0.000 0.000 0.965
v 0.08613 -0.19906 2.70182 0.000 0.000 0.949
v 0.08613 -0.24194 2.71546 0.000 0.000 0.949
v 0.08613 -0.28190 2.69480 0.000 0.000 0.780
v 0.08613 -0.29556 2.65192 0.000 0.000 0.902
v -0.25133 -0.18788 2.61846 0.000 0.000 1.000
v -0.23074 -0.15037 2.60453 0.000 0.000 1.000
v -0.21051 -0.11576 2.62492 0.000 0.000 0.965
v -0.20246 -0.10429 2.66769 0.000 0.000 0.965
v -0.21132 -0.12272 2.70778 0.000 0.000 0.965
v -0.23191 -0.16024 2.72169 0.000 0.000 0.949
v -0.25214 -0.19487 2.70130 0.000 0.000 0.788
v -0.26019 -0.20632 2.65853 0.000 0.000 0.910
v 0.07202 -0.23513 2.65689 0.000 0.000 1.000
v -0.21649 -0.16922 2.66312 0.000 0.000 1.000
v -0.14074 -0.24538 2.61418 0.000 0.000 1.000
v -0.12506 -0.20700 2.60032 0.000 0.000 1.000
v -0.10982 -0.17150 2.62076 0.000 0.000 0.965
v -0.10395 -0.15968 2.66355 0.000 0.000 0.965
v -0.11088 -0.17843 2.70360 0.000 0.000 0.965
v -0.12656 -0.21681 2.71748 0.000 0.000 0.965
v -0.14179 -0.25231 2.69703 0.000 0.000 0.831
v -0.14767 -0.26413 2.65424 0.000 0.000 0.965
v -0.01129 -0.27214 2.61306 0.000 0.000 1.000
v -0.00643 -0.23054 2.59931 0.000 0.000 1.000
v -0.00157 -0.19188 2.61986 0.000 0.000 0.965
v 0.00045 -0.17876 2.66270 0.000 0.000 0.965
v -0.00157 -0.19888 2.70272 0.000 0.000 0.965
v -0.00643 -0.24048 2.71647 0.000 0.000 0.965
v -0.01129 -0.27914 2.69591 0.000 0.000 0.831
v -0.01328 -0.29227 2.65307 0.000 0.000 0.965
v -0.23756 -0.15239 2.69240 0.000 0.000 0.965
v -0.22727 -0.13363 2.68544 0.000 0.000 0.965
v -0.22284 -0.12442 2.66540 0.000 0.000 0.965
v -0.22685 -0.13016 2.64402 0.000 0.000 0.965
v -0.23699 -0.14746 2.63381 0.000 0.000 0.965
v -0.24728 -0.16621 2.64078 0.000 0.000 0.965
v -0.25171 -0.17543 2.66083 0.000 0.000 0.965
v -0.24768 -0.16970 2.68220 0.000 0.000 0.945
v 0.09328 -0.21863 2.67935 0.000 0.000 0.965
v 0.09328 -0.24007 2.68618 0.000 0.000 0.925
v 0.09328 -0.26005 2.67584 0.000 0.000 0.906
v 0.09328 -0.26689 2.65441 0.000 0.000 0.925
v 0.09328 -0.25655 2.63443 0.000 0.000 0.965
v 0.09328 -0.23512 2.62760 0.000 0.000 0.965
v 0.09328 -0.21512 2.63794 0.000 0.000 0.965
v 0.09328 -0.20830 2.65937 0.000 0.000 0.965
v -0.18508 -0.00005 2.52616 0.000 0.000 1.000
v -0.22588 -0.02250 2.40543 0.000 0.000 0.957
v -0.19778 -0.03668 2.40543 0.000 0.000 0.957
v -0.22588 0.02239 2.40543 0.000 0.000 0.957
v -0.23859 0.00000 2.40543 0.000 0.000 0.949
v -0.19778 0.03658 2.40543 0.000 0.000 0.957
v -0.25591 -0.03884 2.31149 0.000 0.000 0.859
v -0.21211 -0.06316 2.31149 0.000 0.000 0.949
v -0.27833 0.00000 2.31149 0.000 0.000 0.859
v -0.21211 0.06305 2.31149 0.000 0.000 0.949
v -0.25591 0.03874 2.31149 0.000 0.000 0.859
v -0.15892 0.00000 2.05018 0.000 0.000 0.949
v -0.17017 -0.02250 2.40543 0.000 0.000 0.957
v -0.15714 0.00000 2.40543 0.000 0.000 0.976
v -0.17017 0.02239 2.40543 0.000 0.000 0.957
v -0.17350 -0.04088 2.31149 0.000 0.000 0.949
v -0.14760 0.00000 2.31149 0.000 0.000 0.969
v -0.17350 0.04077 2.31149 0.000 0.000 0.949
v -0.17039 -0.04523 2.22386 0.000 0.000 0.976
v -0.15185 0.00000 2.22386 0.000 0.000 0.996
v -0.17476 0.04072 2.22386 0.000 0.000 0.976
v -0.20378 -0.04268 2.14052 0.000 0.000 0.976
v -0.24494 0.00000 2.14052 0.000 0.000 0.976
v -0.23247 0.02529 2.14052 0.000 0.000 0.976
v -0.16499 -0.03064 2.14052 0.000 0.000 0.976
v -0.15286 0.00000 2.14052 0.000 0.000 0.976
v -0.16787 0.02569 2.14052 0.000 0.000 0.976
v -0.20421 0.03830 2.14052 0.000 0.000 0.976
v -0.23074 -0.02986 2.14052 0.000 0.000 0.976
v -0.00126 0.17730 2.70360 0.000 0.000 1.000
v -0.01800 0.17496 2.66184 0.000 0.000 1.000
v -0.02340 0.12438 2.53332 0.000 0.000 1.000
v -0.06840 0.05580 2.46708 0.000 0.000 1.000
v 0.02502 0.16434 2.76840 0.000 0.000 1.000
v 0.11682 0.13590 2.77920 0.000 0.000 1.000
v 0.04140 0.14850 2.80890 0.000 0.000 1.000
v 0.12762 0.12492 2.79900 0.000 0.000 1.000
v 0.09180 0.13842 2.80260 0.000 0.000 1.000
v 0.10080 0.14706 2.74860 0.000 0.000 1.000
v 0.08280 0.15624 2.70360 0.000 0.000 1.000
v 0.07056 0.15570 2.75670 0.000 0.000 1.000
v 0.05130 0.16722 2.70360 0.000 0.000 1.000
v 0.06732 0.16218 2.66454 0.000 0.000 1.000
v -0.08010 0.06120 2.48760 0.000 0.000 1.000
v -0.03330 0.12132 2.53440 0.000 0.000 1.000
v -0.09972 0.03654 2.48760 0.000 0.000 1.000
v -0.06804 0.11556 2.53890 0.000 0.000 1.000
v -0.04806 0.10080 2.50650 0.000 0.000 1.000
v -0.04194 0.09720 2.49714 0.000 0.000 1.000
v -0.11520 0.07596 2.53890 0.000 0.000 1.000
v -0.08820 0.03186 2.46708 0.000 0.000 1.000
v -0.01890 0.12420 2.49156 0.000 0.000 1.000
v -0.09720 0.07164 2.44080 0.000 0.000 1.000
v -0.12240 0.02700 2.43540 0.000 0.000 1.000
v -0.18612 0.09216 2.76210 0.000 0.000 1.000
v -0.19962 0.11086 2.62746 0.000 0.000 0.949
v -0.18522 0.11520 2.62620 0.000 0.000 0.949
v -0.19962 0.01260 2.62746 0.000 0.000 1.000
v -0.21834 0.07670 2.63052 0.000 0.000 0.929
v -0.21114 0.09596 2.55121 0.000 0.000 0.929
v -0.18144 0.11785 2.54572 0.000 0.000 0.949
v -0.21114 0.02520 2.49253 0.000 0.000 1.000
v -0.24012 0.05708 2.55319 0.000 0.000 0.831
v -0.19337 0.09162 2.50688 0.000 0.000 0.949
v -0.24530 0.04505 2.51327 0.000 0.000 0.929
v -0.22030 0.07484 2.50160 0.000 0.000 0.929
v -0.22030 0.02083 2.50160 0.000 0.000 0.949
v -0.21157 0.00695 2.47450 0.000 0.000 1.000
v -0.21157 0.05553 2.47450 0.000 0.000 1.000
v -0.20047 0.05414 2.47352 0.000 0.000 1.000
v -0.22808 0.02342 2.47297 0.000 0.000 1.000
v -0.18409 0.06593 2.46436 0.000 0.000 1.000
v -0.10386 0.15984 2.76210 0.000 0.000 1.000
v -0.14832 0.15880 2.59992 0.000 0.000 0.949
v -0.08820 0.14130 2.59740 0.000 0.000 0.949
v -0.15840 0.08262 2.59740 0.000 0.000 0.949
v -0.07272 0.10962 2.52756 0.000 0.000 1.000
v -0.12510 0.06030 2.52756 0.000 0.000 1.000
v -0.07870 0.17104 2.56543 0.000 0.000 0.949
v -0.07740 0.07902 2.46366 0.000 0.000 0.980
v -0.10440 0.04770 2.46366 0.000 0.000 0.980
v -0.16576 0.14710 2.54563 0.000 0.000 0.839
v -0.11948 0.15374 2.52898 0.000 0.000 0.949
v -0.17658 0.11345 2.49536 0.000 0.000 0.980
v 0.00000 0.18252 2.76210 0.000 0.000 1.000
v 0.05760 0.17577 2.69370 0.000 0.000 0.949
v 0.00630 0.19080 2.69370 0.000 0.000 0.949
v -0.04050 0.18612 2.69352 0.000 0.000 0.949
v -0.04032 0.18414 2.61018 0.000 0.000 0.949
v 0.02160 0.18342 2.63970 0.000 0.000 0.949
v -0.01620 0.16344 2.59740 0.000 0.000 0.949
v -0.03870 0.12240 2.52756 0.000 0.000 1.000
v 0.07850 0.25245 2.71795 0.000 0.000 1.000
v 0.07850 0.21296 2.70538 0.000 0.000 0.996
v 0.07850 0.17615 2.72441 0.000 0.000 0.965
v 0.07850 0.16358 2.76390 0.000 0.000 0.965
v 0.07850 0.18261 2.80071 0.000 0.000 0.949
v 0.07850 0.22210 2.81327 0.000 0.000 0.902
v 0.07850 0.25891 2.79425 0.000 0.000 0.780
v 0.07850 0.27148 2.75476 0.000 0.000 0.902
v -0.23227 0.17233 2.72394 0.000 0.000 1.000
v -0.21332 0.13779 2.71111 0.000 0.000 0.957
v -0.19467 0.10589 2.72990 0.000 0.000 0.965
v -0.18725 0.09535 2.76926 0.000 0.000 0.965
v -0.19543 0.11232 2.80618 0.000 0.000 0.949
v -0.21438 0.14686 2.81902 0.000 0.000 0.910
v -0.23303 0.17874 2.80022 0.000 0.000 0.788
v -0.24043 0.18931 2.76084 0.000 0.000 0.910
v 0.06552 0.21584 2.75933 0.000 0.000 1.000
v -0.20018 0.15512 2.76505 0.000 0.000 1.000
v -0.13041 0.22525 2.72000 0.000 0.000 1.000
v -0.11597 0.18992 2.70722 0.000 0.000 0.996
v -0.10195 0.15723 2.72606 0.000 0.000 0.965
v -0.09653 0.14634 2.76547 0.000 0.000 0.965
v -0.10292 0.16362 2.80235 0.000 0.000 0.965
v -0.11736 0.19895 2.81513 0.000 0.000 0.965
v -0.13138 0.23164 2.79630 0.000 0.000 0.831
v -0.13680 0.24255 2.75690 0.000 0.000 0.965
v -0.01120 0.24991 2.71897 0.000 0.000 1.000
v -0.00671 0.21161 2.70630 0.000 0.000 0.996
v -0.00225 0.17599 2.72524 0.000 0.000 0.965
v -0.00040 0.16393 2.76467 0.000 0.000 0.965
v -0.00225 0.18247 2.80152 0.000 0.000 0.965
v -0.00671 0.22075 2.81419 0.000 0.000 0.965
v -0.01120 0.25637 2.79527 0.000 0.000 0.831
v -0.01305 0.26845 2.75582 0.000 0.000 0.965
v -0.21958 0.13964 2.79203 0.000 0.000 0.965
v -0.21011 0.12236 2.78563 0.000 0.000 0.965
v -0.20603 0.11389 2.76716 0.000 0.000 0.965
v -0.20974 0.11916 2.74747 0.000 0.000 0.965
v -0.21906 0.13509 2.73809 0.000 0.000 0.965
v -0.22853 0.15237 2.74450 0.000 0.000 0.965
v -0.23261 0.16085 2.76295 0.000 0.000 0.965
v -0.22891 0.15557 2.78264 0.000 0.000 0.945
v 0.08509 0.20063 2.78003 0.000 0.000 0.945
v 0.08509 0.22037 2.78631 0.000 0.000 0.925
v 0.08509 0.23879 2.77679 0.000 0.000 0.906
v 0.08509 0.24507 2.75704 0.000 0.000 0.925
v 0.08509 0.23555 2.73865 0.000 0.000 0.965
v 0.08509 0.21580 2.73235 0.000 0.000 0.965
v 0.08509 0.19741 2.74187 0.000 0.000 0.965
v 0.08509 0.19112 2.76161 0.000 0.000 0.965
v 0.08613 0.27490 2.61196 0.000 0.000 1.000
v 0.08613 0.23202 2.59830 0.000 0.000 1.000
v 0.08613 0.19204 2.61898 0.000 0.000 0.965
v 0.08613 0.17840 2.66186 0.000 0.000 0.965
v 0.08613 0.19906 2.70182 0.000 0.000 0.949
v 0.08613 0.24194 2.71546 0.000 0.000 0.949
v 0.08613 0.28190 2.69480 0.000 0.000 0.780
v 0.08613 0.29556 2.65192 0.000 0.000 0.902
v -0.25133 0.18788 2.61846 0.000 0.000 1.000
v -0.23074 0.15037 2.60453 0.000 0.000 1.000
v -0.21051 0.11576 2.62492 0.000 0.000 0.965
v -0.20246 0.10429 2.66769 0.000 0.000 0.965
v -0.21132 0.12272 2.70778 0.000 0.000 0.965
v -0.23191 0.16024 2.72169 0.000 0.000 0.949
v -0.25214 0.19487 2.70130 0.000 0.000 0.788
v -0.26019 0.20632 2.65853 0.000 0.000 0.910
v 0.07202 0.23513 2.65689 0.000 0.000 1.000
v -0.21649 0.16922 2.66312 0.000 0.000 1.000
v -0.14074 0.24538 2.61418 0.000 0.000 1.000
v -0.12506 0.20700 2.60032 0.000 0.000 1.000
v -0.10982 0.17150 2.62076 0.000 0.000 0.965
v -0.10395 0.15968 2.66355 0.000 0.000 0.965
v -0.11088 0.17843 2.70360 0.000 0.000 0.965
v -0.12656 0.21681 2.71748 0.000 0.000 0.965
v -0.14179 0.25231 2.69703 0.000 0.000 0.831
v -0.14767 0.26413 2.65424 0.000 0.000 0.965
v -0.01129 0.27214 2.61306 0.000 0.000 1.000
v -0.00643 0.23054 2.59931 0.000 0.000 1.000
v -0.00157 0.19188 2.61986 0.000 0.000 0.965
v 0.00045 0.17876 2.66270 0.000 0.000 0.965
v -0.00157 0.19888 2.70272 0.000 0.000 0.965
v -0.00643 0.24048 2.71647 0.000 0.000 0.965
v -0.01129 0.27914 2.69591 0.000 0.000 0.831
v -0.01328 0.29227 2.65307 0.000 0.000 0.965
v -0.23756 0.15239 2.69240 0.000 0.000 0.965
v -0.22727 0.13363 2.68544 0.000 0.000 0.965
v -0.22284 0.12442 2.66540 0.000 0.000 0.965
v -0.22685 0.13016 2.64402 0.000 0.000 0.965
v -0.23699 0.14746 2.63381 0.000 0.000 0.965
v -0.24728 0.16621 2.64078 0.000 0.000 0.965
v -0.25171 0.17543 2.66083 0.000 0.000 0.965
v -0.24768 0.16970 2.68220 0.000 0.000 0.945
v 0.09328 0.21863 2.67935 0.000 0.000 0.965
v 0.09328 0.24007 2.68618 0.000 0.000 0.925
v 0.09328 0.26005 2.67584 0.000 0.000 0.906
v 0.09328 0.26689 2.65441 0.000 0.000 0.925
v 0.09328 0.25655 2.63443 0.000 0.000 0.965
v 0.09328 0.23512 2.62760 0.000 0.000 0.965
v 0.09328 0.21512 2.63794 0.000 0.000 0.965
v 0.09328 0.20830 2.65937 0.000 0.000 0.965
v 0.16531 -0.08946 2.78982 0.000 0.000 0.949
v 0.18099 -0.04914 2.79126 0.000 0.000 0.949
v 0.14693 -0.11741 2.78624 0.000 0.000 0.949
v -0.17082 0.00000 2.85084 0.000 0.000 0.859
v -0.17460 -0.08442 2.80980 0.000 0.000 0.922
v -0.19962 0.00000 2.80980 0.000 0.000 0.922
v -0.07992 -0.12402 2.85084 0.000 0.000 0.871
v -0.06120 -0.08982 2.88234 0.000 0.000 0.929
v -0.11430 -0.05760 2.88234 0.000 0.000 0.929
v -0.15030 -0.07020 2.85084 0.000 0.000 0.859
v -0.05778 0.00000 2.90214 0.000 0.000 0.980
v -0.12870 0.00000 2.88234 0.000 0.000 0.929
v -0.09360 -0.14670 2.80980 0.000 0.000 0.922
v 0.00000 -0.14310 2.85084 0.000 0.000 0.871
v 0.00000 -0.10260 2.88234 0.000 0.000 0.929
v 0.02790 -0.05004 2.90034 0.000 0.000 0.980
v 0.05940 -0.09342 2.88234 0.000 0.000 0.949
v -0.02790 -0.05004 2.90214 0.000 0.000 0.980
v 0.00000 0.00000 2.90790 0.000 0.000 0.980
v 0.05778 0.00000 2.90214 0.000 0.000 0.980
v 0.04140 -0.14562 2.83752 0.000 0.000 0.929
v 0.00000 -0.17064 2.80980 0.000 0.000 0.922
v 0.05256 -0.16852 2.60885 0.000 0.000 0.949
v 0.05760 -0.17577 2.69370 0.000 0.000 0.949
v 0.05994 -0.15264 2.60460 0.000 0.000 0.949
v 0.08262 -0.12402 2.85084 0.000 0.000 0.851
v 0.13320 -0.07470 2.85084 0.000 0.000 0.831
v 0.09990 -0.05040 2.88234 0.000 0.000 0.949
v 0.15912 0.00000 2.85084 0.000 0.000 0.812
v 0.11880 0.00000 2.88234 0.000 0.000 0.949
v 0.14924 -0.12600 2.78149 0.000 0.000 0.949
v 0.12357 -0.13626 2.79382 0.000 0.000 0.949
v 0.12832 -0.14686 2.77879 0.000 0.000 0.949
v 0.14508 -0.11574 2.78820 0.000 0.000 0.949
v 0.09900 -0.14580 2.80980 0.000 0.000 0.949
v 0.11700 -0.11556 2.83140 0.000 0.000 0.949
v 0.12762 -0.12402 2.80980 0.000 0.000 0.949
v 0.16974 -0.08442 2.78982 0.000 0.000 0.949
v 0.18171 -0.04374 2.79144 0.000 0.000 0.949
v 0.18983 0.00000 2.79198 0.000 0.000 0.949
v 0.15462 -0.09252 2.81268 0.000 0.000 0.949
v 0.17154 -0.05202 2.81448 0.000 0.000 0.949
v 0.17658 -0.02718 2.81520 0.000 0.000 0.949
v 0.17946 0.00000 2.81592 0.000 0.000 0.949
v 0.07848 -0.16709 2.67930 0.000 0.000 0.949
v 0.19724 -0.00509 2.75585 0.000 0.000 0.949
v 0.18448 -0.03647 2.77074 0.000 0.000 0.949
v 0.17132 -0.08786 2.77432 0.000 0.000 0.949
v 0.16362 -0.10564 2.76896 0.000 0.000 0.949
v 0.15534 -0.12904 2.77015 0.000 0.000 0.949
v 0.14954 -0.13216 2.76354 0.000 0.000 0.949
v 0.15363 -0.13018 2.75476 0.000 0.000 0.949
v 0.13829 -0.13676 2.77063 0.000 0.000 0.949
v 0.13216 -0.14274 2.75672 0.000 0.000 0.949
v 0.12712 -0.14621 2.73294 0.000 0.000 0.949
v 0.05960 -0.16022 2.59006 0.000 0.000 0.949
v 0.15273 -0.13549 2.73688 0.000 0.000 0.949
v 0.09709 -0.15482 2.69170 0.000 0.000 0.949
v 0.13201 -0.14328 2.71433 0.000 0.000 0.949
v 0.08363 -0.15676 2.65518 0.000 0.000 0.949
v 0.12730 -0.14342 2.69971 0.000 0.000 0.949
v -0.13493 -0.16616 2.66355 0.000 0.000 0.949
v 0.00184 -0.20207 2.66270 0.000 0.000 0.949
v -0.22505 -0.05081 2.70083 0.000 0.000 0.910
v 0.16531 0.08946 2.78982 0.000 0.000 0.949
v 0.18099 0.04914 2.79126 0.000 0.000 0.949
v 0.14693 0.11741 2.78624 0.000 0.000 0.949
v -0.17460 0.08442 2.80980 0.000 0.000 0.922
v -0.07992 0.12402 2.85084 0.000 0.000 0.871
v -0.06120 0.08982 2.88234 0.000 0.000 0.929
v -0.11430 0.05760 2.88234 0.000 0.000 0.929
v -0.15030 0.07020 2.85084 0.000 0.000 0.859
v -0.09360 0.14670 2.80980 0.000 0.000 0.922
v 0.00000 0.14310 2.85084 0.000 0.000 0.871
v 0.00000 0.10260 2.88234 0.000 0.000 0.929
v 0.02790 0.05004 2.90034 0.000 0.000 0.980
v 0.05940 0.09342 2.88234 0.000 0.000 0.949
v -0.02790 0.05004 2.90214 0.000 0.000 0.980
v 0.04140 0.14562 2.83752 0.000 0.000 0.929
v 0.00000 0.17064 2.80980 0.000 0.000 0.922
v 0.05256 0.16852 2.60885 0.000 0.000 0.949
v 0.05994 0.15264 2.60460 0.000 0.000 0.949
v 0.08262 0.12402 2.85084 0.000 0.000 0.851
v 0.13320 0.07470 2.85084 0.000 0.000 0.831
v 0.09990 0.05040 2.88234 0.000 0.000 0.949
v 0.14924 0.12600 2.78149 0.000 0.000 0.949
v 0.12357 0.13626 2.79382 0.000 0.000 0.949
v 0.12832 0.14686 2.77879 0.000 0.000 0.949
v 0.14508 0.11574 2.78820 0.000 0.000 0.949
v 0.09900 0.14580 2.80980 0.000 0.000 0.949
v 0.11700 0.11556 2.83140 0.000 0.000 0.949
v 0.12762 0.12402 2.80980 0.000 0.000 0.949
v 0.16974 0.08442 2.78982 0.000 0.000 0.949
v 0.18171 0.04374 2.79144 0.000 0.000 0.949
v 0.15462 0.09252 2.81268 0.000 0.000 0.949
v 0.17154 0.05202 2.81448 0.000 0.000 0.949
v 0.17658 0.02718 2.81520 0.000 0.000 0.949
v 0.07848 0.16709 2.67930 0.000 0.000 0.949
v 0.19724 -0.00052 2.75846 0.000 0.000 0.949
v 0.18448 0.03647 2.77074 0.000 0.000 0.949
v 0.17132 0.08786 2.77432 0.000 0.000 0.949
v 0.16362 0.10564 2.76896 0.000 0.000 0.949
v 0.15534 0.12904 2.77015 0.000 0.000 0.949
v 0.14954 0.13216 2.76354 0.000 0.000 0.949
v 0.15363 0.13018 2.75476 0.000 0.000 0.949
v 0.13829 0.13676 2.77063 0.000 0.000 0.949
v 0.13216 0.14274 2.75672 0.000 0.000 0.949
v 0.12712 0.14621 2.73294 0.000 0.000 0.949
v 0.05960 0.16022 2.59006 0.000 0.000 0.949
v 0.15273 0.13549 2.73688 0.000 0.000 0.949
v 0.09709 0.15482 2.69170 0.000 0.000 0.949
v 0.13201 0.14328 2.71433 0.000 0.000 0.949
v 0.08363 0.15676 2.65518 0.000 0.000 0.949
v 0.12730 0.14342 2.69971 0.000 0.000 0.949
v -0.13493 0.16616 2.66355 0.000 0.000 0.949
v 0.00184 0.20207 2.66270 0.000 0.000 0.949
v -0.22505 0.05081 2.70083 0.000 0.000 0.910
v 0.18623 0.02077 2.79175 0.000 0.000 0.949
v 0.19724 0.01489 2.76872 0.000 0.000 0.949
v -0.18904 -0.04345 2.45984 0.000 0.000 0.000
v -0.23270 0.00000 2.46325 0.000 0.000 0.000
v -0.18904 0.04345 2.45984 0.000 0.000 0.000
v -0.19008 -0.03715 2.44638 0.000 0.000 0.000
v -0.22855 0.00000 2.44937 0.000 0.000 0.000
v -0.19008 0.03715 2.44638 0.000 0.000 0.000
v -0.18956 0.00000 2.45315 0.000 0.000 0.000
v -0.19112 -0.04345 2.43288 0.000 0.000 0.000
v -0.23481 0.00000 2.43628 0.000 0.000 0.000
v -0.19112 0.04345 2.43288 0.000 0.000 0.000
v -0.19066 0.00000 2.43902 0.000 0.000 0.000
v -0.14641 0.00000 2.45653 0.000 0.000 0.000
v -0.14951 0.00000 2.44321 0.000 0.000 0.000
v -0.14852 0.00000 2.42957 0.000 0.000 0.000
v -0.23956 -0.01044 2.43661 0.000 0.000 0.000
v -0.21494 -0.12046 2.41819 0.000 0.000 0.000
v -0.23945 -0.01044 2.46055 0.000 0.000 0.000
v -0.21267 -0.12415 2.44769 0.000 0.000 0.000
v -0.26278 -0.11981 2.49305 0.000 0.000 0.000
v -0.26449 -0.11770 2.46098 0.000 0.000 0.000
v -0.22147 -0.06241 2.42719 0.000 0.000 0.000
v -0.25789 -0.06241 2.45372 0.000 0.000 0.000
v -0.25751 -0.06241 2.48044 0.000 0.000 0.000
v -0.22082 -0.06241 2.45264 0.000 0.000 0.000
v -0.24057 -0.16756 2.46227 0.000 0.000 0.000
v -0.24057 -0.16016 2.42838 0.000 0.000 0.000
v -0.23922 -0.00927 2.43497 0.000 0.000 0.000
v -0.23933 -0.01271 2.45972 0.000 0.000 0.000
v -0.25850 -0.02507 2.39060 0.000 0.000 0.000
v -0.24305 -0.04649 2.39130 0.000 0.000 0.000
v -0.27373 -0.10535 2.27248 0.000 0.000 0.000
v -0.29646 -0.08179 2.26300 0.000 0.000 0.000
v -0.23956 0.01044 2.43661 0.000 0.000 0.000
v -0.21494 0.12046 2.41819 0.000 0.000 0.000
v -0.23945 0.01044 2.46055 0.000 0.000 0.000
v -0.21267 0.12415 2.44769 0.000 0.000 0.000
v -0.26278 0.11981 2.49305 0.000 0.000 0.000
v -0.26449 0.11770 2.46098 0.000 0.000 0.000
v -0.22147 0.06241 2.42719 0.000 0.000 0.000
v -0.25789 0.06241 2.45372 0.000 0.000 0.000
v -0.25751 0.06241 2.48044 0.000 0.000 0.000
v -0.22082 0.06241 2.45264 0.000 0.000 0.000
v -0.24057 0.16756 2.46227 0.000 0.000 0.000
v -0.24057 0.16016 2.42838 0.000 0.000 0.000
v -0.23922 0.00927 2.43497 0.000 0.000 0.000
v -0.23933 0.01271 2.45972 0.000 0.000 0.000
v -0.25850 0.02507 2.39060 0.000 0.000 0.000
v -0.24305 0.04649 2.39130 0.000 0.000 0.000
v -0.27373 0.10535 2.27248 0.000 0.000 0.000
v -0.29646 0.08179 2.26300 0.000 0.000 0.000
v -0.23101 0.01235 2.42777 0.000 0.000 0.000
v -0.23101 -0.01235 2.42777 0.000 0.000 0.000
v -0.22905 0.01222 2.46483 0.000 0.000 0.000
v -0.22905 -0.01222 2.46483 0.000 0.000 0.000
v -0.24948 0.01222 2.46640 0.000 0.000 0.000
v -0.24948 -0.01222 2.46640 0.000 0.000 0.000
v -0.24790 0.00868 2.42897 0.000 0.000 0.000
v -0.24790 -0.00868 2.42897 0.000 0.000 0.000
v -0.25623 0.00000 2.44980 0.000 0.000 0.000
v -0.22905 0.00000 2.47052 0.000 0.000 0.000
v -0.24948 0.00000 2.47208 0.000 0.000 0.000
v -0.24869 0.01442 2.44980 0.000 0.000 0.000
v -0.24869 -0.01442 2.44980 0.000 0.000 0.000
v 0.08105 -0.11738 2.49467 0.000 0.000 0.929
v 0.08105 0.11738 2.49467 0.000 0.000 0.929
v -0.08820 -0.03186 2.46708 0.000 0.000 1.000
v -0.09972 -0.03654 2.48760 0.000 0.000 1.000
v -0.11520 -0.07596 2.53890 0.000 0.000 1.000
v -0.06804 -0.11556 2.53890 0.000 0.000 1.000
v -0.04806 -0.10080 2.50650 0.000 0.000 1.000
v -0.04194 -0.09720 2.49714 0.000 0.000 1.000
v -0.24750 0.02896 2.14052 0.000 0.000 0.976
v -0.27938 0.00000 2.22386 0.000 0.000 0.890
v -0.25997 0.00000 2.14052 0.000 0.000 0.949
v -0.25772 -0.04405 2.22386 0.000 0.000 0.914
v -0.24579 -0.03355 2.14052 0.000 0.000 0.976
v -0.26033 0.04012 2.22386 0.000 0.000 0.914
v -0.20583 0.00000 2.02563 0.000 0.000 0.949
v -0.20583 0.00000 2.02563 0.000 0.000 0.949
v -0.08820 -0.14130 2.59740 0.000 0.000 0.949
v -0.15840 -0.08262 2.59740 0.000 0.000 0.949
v -0.12510 -0.06030 2.52756 0.000 0.000 1.000
v -0.07272 -0.10962 2.52756 0.000 0.000 1.000
v -0.07740 -0.07902 2.46366 0.000 0.000 0.980
v -0.10440 -0.04770 2.46366 0.000 0.000 0.980
v -0.04032 -0.18414 2.61018 0.000 0.000 0.949
v -0.01620 -0.16344 2.59740 0.000 0.000 0.949
v -0.07870 -0.17104 2.56543 0.000 0.000 0.949
v -0.12510 -0.06030 2.52756 0.000 0.000 1.000
v -0.14562 0.00000 2.52756 0.000 0.000 0.949
v -0.07870 -0.17104 2.56543 0.000 0.000 0.949
v -0.17658 -0.11345 2.49536 0.000 0.000 0.980
v -0.11948 -0.15374 2.52898 0.000 0.000 0.949
v -0.18574 0.00000 2.45048 0.000 0.000 1.000
v -0.22808 -0.02342 2.47297 0.000 0.000 1.000
v -0.18574 0.00000 2.45048 0.000 0.000 1.000
v -0.14832 -0.15880 2.59992 0.000 0.000 0.949
v -0.16576 -0.14710 2.54563 0.000 0.000 0.839
v -0.17658 -0.11345 2.49536 0.000 0.000 0.980
v -0.18409 -0.06593 2.46436 0.000 0.000 1.000
v -0.18574 0.00000 2.45048 0.000 0.000 1.000
v -0.18612 -0.09216 2.76210 0.000 0.000 1.000
v -0.10386 -0.15984 2.76210 0.000 0.000 1.000
v -0.21402 0.00000 2.76210 0.000 0.000 1.000
v -0.19962 -0.01260 2.62746 0.000 0.000 1.000
v -0.18612 -0.09216 2.76210 0.000 0.000 1.000
v -0.18574 0.00000 2.45048 0.000 0.000 1.000
v -0.01620 -0.16344 2.59740 0.000 0.000 0.949
v 0.00630 -0.19080 2.69370 0.000 0.000 0.949
v -0.07870 -0.17104 2.56543 0.000 0.000 0.949
v 0.07850 -0.17615 2.72441 0.000 0.000 0.965
v 0.08509 -0.19741 2.74187 0.000 0.000 0.965
v -0.23227 -0.17233 2.72394 0.000 0.000 1.000
v -0.21332 -0.13779 2.71111 0.000 0.000 0.957
v -0.19467 -0.10589 2.72990 0.000 0.000 0.965
v -0.18725 -0.09535 2.76926 0.000 0.000 0.965
v -0.19543 -0.11232 2.80618 0.000 0.000 0.949
v -0.21438 -0.14686 2.81902 0.000 0.000 0.910
v -0.19543 -0.11232 2.80618 0.000 0.000 0.949
v -0.21011 -0.12236 2.78563 0.000 0.000 0.965
v -0.23303 -0.17874 2.80022 0.000 0.000 0.788
v -0.24043 -0.18931 2.76084 0.000 0.000 0.910
v 0.07850 -0.21296 2.70538 0.000 0.000 0.996
v 0.07850 -0.25245 2.71795 0.000 0.000 1.000
v 0.07850 -0.17615 2.72441 0.000 0.000 0.965
v 0.07850 -0.16358 2.76390 0.000 0.000 0.965
v 0.07850 -0.18261 2.80071 0.000 0.000 0.949
v 0.07850 -0.22210 2.81327 0.000 0.000 0.902
v 0.07850 -0.25891 2.79425 0.000 0.000 0.780
v 0.07850 -0.27148 2.75476 0.000 0.000 0.902
v -0.21011 -0.12236 2.78563 0.000 0.000 0.965
v -0.21958 -0.13964 2.79203 0.000 0.000 0.965
v -0.20603 -0.11389 2.76716 0.000 0.000 0.965
v -0.20018 -0.15512 2.76505 0.000 0.000 1.000
v -0.20974 -0.11916 2.74747 0.000 0.000 0.965
v -0.20018 -0.15512 2.76505 0.000 0.000 1.000
v -0.21906 -0.13509 2.73809 0.000 0.000 0.965
v -0.20018 -0.15512 2.76505 0.000 0.000 1.000
v -0.22853 -0.15237 2.74450 0.000 0.000 0.965
v -0.23261 -0.16085 2.76295 0.000 0.000 0.965
v -0.22891 -0.15557 2.78264 0.000 0.000 0.945
v 0.08509 -0.22037 2.78631 0.000 0.000 0.925
v 0.08509 -0.20063 2.78003 0.000 0.000 0.945
v 0.08509 -0.23879 2.77679 0.000 0.000 0.906
v 0.08509 -0.24507 2.75704 0.000 0.000 0.925
v 0.06552 -0.21584 2.75933 0.000 0.000 1.000
v 0.08509 -0.23555 2.73865 0.000 0.000 0.965
v 0.06552 -0.21584 2.75933 0.000 0.000 1.000
v 0.08509 -0.21580 2.73235 0.000 0.000 0.965
v 0.06552 -0.21584 2.75933 0.000 0.000 1.000
v 0.08509 -0.19741 2.74187 0.000 0.000 0.965
v 0.08509 -0.19112 2.76161 0.000 0.000 0.965
v 0.08613 -0.19204 2.61898 0.000 0.000 0.965
v 0.09328 -0.21512 2.63794 0.000 0.000 0.965
v -0.25133 -0.18788 2.61846 0.000 0.000 1.000
v -0.23074 -0.15037 2.60453 0.000 0.000 1.000
v -0.21051 -0.11576 2.62492 0.000 0.000 0.965
v -0.20246 -0.10429 2.66769 0.000 0.000 0.965
v -0.21132 -0.12272 2.70778 0.000 0.000 0.965
v -0.23191 -0.16024 2.72169 0.000 0.000 0.949
v -0.21132 -0.12272 2.70778 0.000 0.000 0.965
v -0.22727 -0.13363 2.68544 0.000 0.000 0.965
v -0.25214 -0.19487 2.70130 0.000 0.000 0.788
v -0.26019 -0.20632 2.65853 0.000 0.000 0.910
v 0.08613 -0.23202 2.59830 0.000 0.000 1.000
v 0.08613 -0.27490 2.61196 0.000 0.000 1.000
v 0.08613 -0.19204 2.61898 0.000 0.000 0.965
v 0.08613 -0.17840 2.66186 0.000 0.000 0.965
v 0.08613 -0.19906 2.70182 0.000 0.000 0.949
v 0.08613 -0.24194 2.71546 0.000 0.000 0.949
v 0.08613 -0.28190 2.69480 0.000 0.000 0.780
v 0.08613 -0.29556 2.65192 0.000 0.000 0.902
v -0.22727 -0.13363 2.68544 0.000 0.000 0.965
v -0.23756 -0.15239 2.69240 0.000 0.000 0.965
v -0.22284 -0.12442 2.66540 0.000 0.000 0.965
v -0.21649 -0.16922 2.66312 0.000 0.000 1.000
v -0.22685 -0.13016 2.64402 0.000 0.000 0.965
v -0.21649 -0.16922 2.66312 0.000 0.000 1.000
v -0.23699 -0.14746 2.63381 0.000 0.000 0.965
v -0.21649 -0.16922 2.66312 0.000 0.000 1.000
v -0.24728 -0.16621 2.64078 0.000 0.000 0.965
v -0.25171 -0.17543 2.66083 0.000 0.000 0.965
v -0.24768 -0.16970 2.68220 0.000 0.000 0.945
v 0.09328 -0.24007 2.68618 0.000 0.000 0.925
v 0.09328 -0.21863 2.67935 0.000 0.000 0.965
v 0.09328 -0.26005 2.67584 0.000 0.000 0.906
v 0.09328 -0.26689 2.65441 0.000 0.000 0.925
v 0.07202 -0.23513 2.65689 0.000 0.000 1.000
v 0.09328 -0.25655 2.63443 0.000 0.000 0.965
v 0.07202 -0.23513 2.65689 0.000 0.000 1.000
v 0.09328 -0.23512 2.62760 0.000 0.000 0.965
v 0.07202 -0.23513 2.65689 0.000 0.000 1.000
v 0.09328 -0.21512 2.63794 0.000 0.000 0.965
v 0.09328 -0.20830 2.65937 0.000 0.000 0.965
v -0.21307 -0.06361 2.22386 0.000 0.000 0.976
v -0.20378 -0.04268 2.14052 0.000 0.000 0.976
v -0.21373 0.05998 2.22386 0.000 0.000 0.976
v -0.20421 0.03830 2.14052 0.000 0.000 0.976
v -0.17039 -0.04523 2.22386 0.000 0.000 0.976
v -0.16499 -0.03064 2.14052 0.000 0.000 0.976
v -0.17476 0.04072 2.22386 0.000 0.000 0.976
v -0.15185 0.00000 2.22386 0.000 0.000 0.996
v -0.16787 0.02569 2.14052 0.000 0.000 0.976
v -0.15286 0.00000 2.14052 0.000 0.000 0.976
v -0.23247 0.02529 2.14052 0.000 0.000 0.976
v -0.24494 0.00000 2.14052 0.000 0.000 0.976
v -0.23074 -0.02986 2.14052 0.000 0.000 0.976
v -0.17350 0.04077 2.31149 0.000 0.000 0.949
v -0.17017 0.02239 2.40543 0.000 0.000 0.957
v -0.18508 -0.00005 2.52616 0.000 0.000 1.000
v -0.18508 -0.00005 2.52616 0.000 0.000 1.000
v -0.17350 -0.04088 2.31149 0.000 0.000 0.949
v -0.25591 0.03874 2.31149 0.000 0.000 0.859
v -0.22588 0.02239 2.40543 0.000 0.000 0.957
v -0.18508 -0.00005 2.52616 0.000 0.000 1.000
v -0.17017 -0.02250 2.40543 0.000 0.000 0.957
v -0.18508 -0.00005 2.52616 0.000 0.000 1.000
v -0.18508 -0.00005 2.52616 0.000 0.000 1.000
v -0.25591 -0.03884 2.31149 0.000 0.000 0.859
v -0.22588 -0.02250 2.40543 0.000 0.000 0.957
v -0.15892 0.00000 2.05018 0.000 0.000 0.949
v -0.15892 0.00000 2.05018 0.000 0.000 0.949
v -0.15892 0.00000 2.05018 0.000 0.000 0.949
v -0.15892 0.00000 2.05018 0.000 0.000 0.949
v -0.15892 0.00000 2.05018 0.000 0.000 0.949
v -0.08820 0.03186 2.46708 0.000 0.000 1.000
v -0.11520 0.00000 2.48760 0.000 0.000 1.000
v -0.09972 0.03654 2.48760 0.000 0.000 1.000
v -0.11520 0.07596 2.53890 0.000 0.000 1.000
v -0.14418 0.00000 2.53890 0.000 0.000 1.000
v -0.06804 0.11556 2.53890 0.000 0.000 1.000
v -0.04806 0.10080 2.50650 0.000 0.000 1.000
v -0.04194 0.09720 2.49714 0.000 0.000 1.000
v -0.10188 0.00000 2.46708 0.000 0.000 1.000
v -0.08820 0.14130 2.59740 0.000 0.000 0.949
v -0.18342 0.00000 2.59740 0.000 0.000 0.949
v -0.15840 0.08262 2.59740 0.000 0.000 0.949
v -0.14562 0.00000 2.52756 0.000 0.000 0.949
v -0.12510 0.06030 2.52756 0.000 0.000 1.000
v -0.07272 0.10962 2.52756 0.000 0.000 1.000
v -0.07740 0.07902 2.46366 0.000 0.000 0.980
v -0.10440 0.04770 2.46366 0.000 0.000 0.980
v -0.12240 0.00000 2.46366 0.000 0.000 1.000
v 0.00630 0.19080 2.69370 0.000 0.000 0.949
v 0.05130 0.17244 2.76210 0.000 0.000 1.000
v -0.04032 0.18414 2.61018 0.000 0.000 0.949
v -0.01620 0.16344 2.59740 0.000 0.000 0.949
v -0.12510 0.06030 2.52756 0.000 0.000 1.000
v -0.07870 0.17104 2.56543 0.000 0.000 0.949
v -0.14562 0.00000 2.52756 0.000 0.000 0.949
v -0.13428 0.00000 2.54617 0.000 0.000 0.949
v -0.14119 0.00000 2.48785 0.000 0.000 1.000
v -0.15624 0.00000 2.45741 0.000 0.000 1.000
v -0.18574 0.00000 2.45048 0.000 0.000 1.000
v -0.07870 0.17104 2.56543 0.000 0.000 0.949
v -0.11948 0.15374 2.52898 0.000 0.000 0.949
v -0.17658 0.11345 2.49536 0.000 0.000 0.980
v -0.24682 0.00000 2.47185 0.000 0.000 1.000
v -0.18574 0.00000 2.45048 0.000 0.000 1.000
v -0.26903 0.00000 2.51104 0.000 0.000 0.929
v -0.23382 0.00000 2.63826 0.000 0.000 0.929
v -0.26676 0.00000 2.55391 0.000 0.000 0.831
v -0.21402 0.00000 2.76210 0.000 0.000 1.000
v -0.22808 0.02342 2.47297 0.000 0.000 1.000
v -0.18574 0.00000 2.45048 0.000 0.000 1.000
v -0.14832 0.15880 2.59992 0.000 0.000 0.949
v -0.16576 0.14710 2.54563 0.000 0.000 0.839
v -0.17658 0.11345 2.49536 0.000 0.000 0.980
v -0.18409 0.06593 2.46436 0.000 0.000 1.000
v -0.18574 0.00000 2.45048 0.000 0.000 1.000
v -0.18612 0.09216 2.76210 0.000 0.000 1.000
v -0.10386 0.15984 2.76210 0.000 0.000 1.000
v -0.21402 0.00000 2.76210 0.000 0.000 1.000
v -0.18612 0.09216 2.76210 0.000 0.000 1.000
v -0.19962 0.01260 2.62746 0.000 0.000 1.000
v -0.18574 0.00000 2.45048 0.000 0.000 1.000
v -0.01620 0.16344 2.59740 0.000 0.000 0.949
v -0.07870 0.17104 2.56543 0.000 0.000 0.949
v 0.05130 0.17244 2.76210 0.000 0.000 1.000
v 0.07850 0.17615 2.72441 0.000 0.000 0.965
v 0.08509 0.19741 2.74187 0.000 0.000 0.965
v -0.23227 0.17233 2.72394 0.000 0.000 1.000
v -0.21332 0.13779 2.71111 0.000 0.000 0.957
v -0.19467 0.10589 2.72990 0.000 0.000 0.965
v -0.18725 0.09535 2.76926 0.000 0.000 0.965
v -0.19543 0.11232 2.80618 0.000 0.000 0.949
v -0.21438 0.14686 2.81902 0.000 0.000 0.910
v -0.19543 0.11232 2.80618 0.000 0.000 0.949
v -0.21011 0.12236 2.78563 0.000 0.000 0.965
v -0.23303 0.17874 2.80022 0.000 0.000 0.788
v -0.24043 0.18931 2.76084 0.000 0.000 0.910
v 0.07850 0.21296 2.70538 0.000 0.000 0.996
v 0.07850 0.25245 2.71795 0.000 0.000 1.000
v 0.07850 0.17615 2.72441 0.000 0.000 0.965
v 0.07850 0.16358 2.76390 0.000 0.000 0.965
v 0.07850 0.18261 2.80071 0.000 0.000 0.949
v 0.07850 0.22210 2.81327 0.000 0.000 0.902
v 0.07850 0.25891 2.79425 0.000 0.000 0.780
v 0.07850 0.27148 2.75476 0.000 0.000 0.902
v -0.21011 0.12236 2.78563 0.000 0.000 0.965
v -0.21958 0.13964 2.79203 0.000 0.000 0.965
v -0.20603 0.11389 2.76716 0.000 0.000 0.965
v -0.20018 0.15512 2.76505 0.000 0.000 1.000
v -0.20974 0.11916 2.74747 0.000 0.000 0.965
v -0.20018 0.15512 2.76505 0.000 0.000 1.000
v -0.21906 0.13509 2.73809 0.000 0.000 0.965
v -0.20018 0.15512 2.76505 0.000 0.000 1.000
v -0.22853 0.15237 2.74450 0.000 0.000 0.965
v -0.23261 0.16085 2.76295 0.000 0.000 0.965
v -0.22891 0.15557 2.78264 0.000 0.000 0.945
v 0.08509 0.22037 2.78631 0.000 0.000 0.925
v 0.08509 0.20063 2.78003 0.000 0.000 0.945
v 0.08509 0.23879 2.77679 0.000 0.000 0.906
v 0.08509 0.24507 2.75704 0.000 0.000 0.925
v 0.06552 0.21584 2.75933 0.000 0.000 1.000
v 0.08509 0.23555 2.73865 0.000 0.000 0.965
v 0.06552 0.21584 2.75933 0.000 0.000 1.000
v 0.08509 0.21580 2.73235 0.000 0.000 0.965
v 0.06552 0.21584 2.75933 0.000 0.000 1.000
v 0.08509 0.19741 2.74187 0.000 0.000 0.965
v 0.08509 0.19112 2.76161 0.000 0.000 0.965
v 0.08613 0.19204 2.61898 0.000 0.000 0.965
v 0.09328 0.21512 2.63794 0.000 0.000 0.965
v -0.25133 0.18788 2.61846 0.000 0.000 1.000
v -0.23074 0.15037 2.60453 0.000 0.000 1.000
v -0.21051 0.11576 2.62492 0.000 0.000 0.965
v -0.20246 0.10429 2.66769 0.000 0.000 0.965
v -0.21132 0.12272 2.70778 0.000 0.000 0.965
v -0.23191 0.16024 2.72169 0.000 0.000 0.949
v -0.21132 0.12272 2.70778 0.000 0.000 0.965
v -0.22727 0.13363 2.68544 0.000 0.000 0.965
v -0.25214 0.19487 2.70130 0.000 0.000 0.788
v -0.26019 0.20632 2.65853 0.000 0.000 0.910
v 0.08613 0.23202 2.59830 0.000 0.000 1.000
v 0.08613 0.27490 2.61196 0.000 0.000 1.000
v 0.08613 0.19204 2.61898 0.000 0.000 0.965
v 0.08613 0.17840 2.66186 0.000 0.000 0.965
v 0.08613 0.19906 2.70182 0.000 0.000 0.949
v 0.08613 0.24194 2.71546 0.000 0.000 0.949
v 0.08613 0.28190 2.69480 0.000 0.000 0.780
v 0.08613 0.29556 2.65192 0.000 0.000 0.902
v -0.22727 0.13363 2.68544 0.000 0.000 0.965
v -0.23756 0.15239 2.69240 0.000 0.000 0.965
v -0.22284 0.12442 2.66540 0.000 0.000 0.965
v -0.21649 0.16922 2.66312 0.000 0.000 1.000
v -0.22685 0.13016 2.64402 0.000 0.000 0.965
v -0.21649 0.16922 2.66312 0.000 0.000 1.000
v -0.23699 0.14746 2.63381 0.000 0.000 0.965
v -0.21649 0.16922 2.66312 0.000 0.000 1.000
v -0.24728 0.16621 2.64078 0.000 0.000 0.965
v -0.25171 0.17543 2.66083 0.000 0.000 0.965
v -0.24768 0.16970 2.68220 0.000 0.000 0.945
v 0.09328 0.24007 2.68618 0.000 0.000 0.925
v 0.09328 0.21863 2.67935 0.000 0.000 0.965
v 0.09328 0.26005 2.67584 0.000 0.000 0.906
v 0.09328 0.26689 2.65441 0.000 0.000 0.925
v 0.07202 0.23513 2.65689 0.000 0.000 1.000
v 0.09328 0.25655 2.63443 0.000 0.000 0.965
v 0.07202 0.23513 2.65689 0.000 0.000 1.000
v 0.09328 0.23512 2.62760 0.000 0.000 0.965
v 0.07202 0.23513 2.65689 0.000 0.000 1.000
v 0.09328 0.21512 2.63794 0.000 0.000 0.965
v 0.09328 0.20830 2.65937 0.000 0.000 0.965
v 0.02160 -0.18342 2.63970 0.000 0.000 0.949
v 0.10607 -0.15475 2.75036 0.000 0.000 0.949
v -0.18612 -0.09216 2.76210 0.000 0.000 0.949
v -0.21402 0.00000 2.76210 0.000 0.000 0.949
v -0.18612 -0.09216 2.76210 0.000 0.000 0.949
v -0.10386 -0.15984 2.76210 0.000 0.000 0.949
v 0.00000 -0.10260 2.88234 0.000 0.000 0.929
v -0.07992 -0.12402 2.85084 0.000 0.000 0.871
v -0.09360 -0.14670 2.80980 0.000 0.000 0.922
v 0.05940 -0.09342 2.88234 0.000 0.000 0.949
v 0.13320 -0.07470 2.85084 0.000 0.000 0.831
v 0.10607 -0.15475 2.75036 0.000 0.000 0.949
v 0.05760 -0.17577 2.69370 0.000 0.000 0.949
v 0.02160 -0.18342 2.63970 0.000 0.000 0.949
v 0.15462 -0.09252 2.81268 0.000 0.000 0.949
v 0.09900 -0.14580 2.80980 0.000 0.000 0.949
v 0.12762 -0.12402 2.80980 0.000 0.000 0.949
v 0.10607 -0.15475 2.75036 0.000 0.000 0.949
v 0.00000 -0.18252 2.76210 0.000 0.000 0.949
v 0.05130 -0.17244 2.76210 0.000 0.000 0.949
v -0.10386 -0.15984 2.76210 0.000 0.000 0.949
v 0.12832 -0.14686 2.77879 0.000 0.000 0.949
v 0.08613 -0.17840 2.66186 0.000 0.000 0.949
v 0.00184 -0.20207 2.66270 0.000 0.000 0.949
v -0.20246 -0.10429 2.66769 0.000 0.000 0.949
v -0.13493 -0.16616 2.66355 0.000 0.000 0.949
v 0.10607 -0.15475 2.75036 0.000 0.000 0.949
v 0.00184 -0.20207 2.66270 0.000 0.000 0.949
v 0.02160 0.18342 2.63970 0.000 0.000 0.949
v 0.10607 0.15475 2.75036 0.000 0.000 0.949
v -0.19962 0.00000 2.80980 0.000 0.000 0.922
v -0.18612 0.09216 2.76210 0.000 0.000 0.949
v -0.21402 0.00000 2.76210 0.000 0.000 0.949
v -0.18612 0.09216 2.76210 0.000 0.000 0.949
v -0.10386 0.15984 2.76210 0.000 0.000 0.949
v -0.17082 0.00000 2.85084 0.000 0.000 0.859
v -0.12870 0.00000 2.88234 0.000 0.000 0.929
v -0.05778 0.00000 2.90214 0.000 0.000 0.980
v 0.05778 0.00000 2.90214 0.000 0.000 0.980
v 0.11880 0.00000 2.88234 0.000 0.000 0.949
v 0.00000 0.00000 2.90790 0.000 0.000 0.980
v 0.00000 0.10260 2.88234 0.000 0.000 0.929
v -0.07992 0.12402 2.85084 0.000 0.000 0.871
v -0.09360 0.14670 2.80980 0.000 0.000 0.922
v 0.15912 0.00000 2.85084 0.000 0.000 0.812
v 0.05940 0.09342 2.88234 0.000 0.000 0.949
v 0.13320 0.07470 2.85084 0.000 0.000 0.831
v 0.05760 0.17577 2.69370 0.000 0.000 0.949
v 0.10607 0.15475 2.75036 0.000 0.000 0.949
v 0.02160 0.18342 2.63970 0.000 0.000 0.949
v 0.17946 0.00000 2.81592 0.000 0.000 0.949
v 0.15462 0.09252 2.81268 0.000 0.000 0.949
v 0.18983 0.00000 2.79198 0.000 0.000 0.949
v 0.09900 0.14580 2.80980 0.000 0.000 0.949
v 0.12762 0.12402 2.80980 0.000 0.000 0.949
v 0.05130 0.17244 2.76210 0.000 0.000 0.949
v 0.10607 0.15475 2.75036 0.000 0.000 0.949
v 0.10607 0.15475 2.75036 0.000 0.000 0.949
v 0.05130 0.17244 2.76210 0.000 0.000 0.949
v 0.00000 0.18252 2.76210 0.000 0.000 0.949
v -0.10386 0.15984 2.76210 0.000 0.000 0.949
v 0.12832 0.14686 2.77879 0.000 0.000 0.949
v 0.08613 0.17840 2.66186 0.000 0.000 0.949
v 0.00184 0.20207 2.66270 0.000 0.000 0.949
v -0.20246 0.10429 2.66769 0.000 0.000 0.949
v -0.13493 0.16616 2.66355 0.000 0.000 0.949
v 0.10607 0.15475 2.75036 0.000 0.000 0.949
v 0.00184 0.20207 2.66270 0.000 0.000 0.949
v -0.14852 0.00000 2.42957 0.000 0.000 0.000
v -0.14641 0.00000 2.45653 0.000 0.000 0.000
v -0.23270 0.00000 2.46325 0.000 0.000 0.000
v -0.23481 0.00000 2.43628 0.000 0.000 0.000
v -0.19112 0.04345 2.43288 0.000 0.000 0.000
v -0.18904 0.04345 2.45984 0.000 0.000 0.000
v -0.18904 -0.04345 2.45984 0.000 0.000 0.000
v -0.19112 -0.04345 2.43288 0.000 0.000 0.000
v -0.23945 -0.01044 2.46055 0.000 0.000 0.000
v -0.23956 -0.01044 2.43661 0.000 0.000 0.000
v -0.24057 -0.16016 2.42838 0.000 0.000 0.000
v -0.24057 -0.16756 2.46227 0.000 0.000 0.000
v -0.24057 0.16016 2.42838 0.000 0.000 0.000
v -0.24057 0.16756 2.46227 0.000 0.000 0.000
v -0.23945 0.01044 2.46055 0.000 0.000 0.000
v -0.23956 0.01044 2.43661 0.000 0.000 0.000
v -0.24790 0.00868 2.42897 0.000 0.000 0.000
v -0.23101 0.01235 2.42777 0.000 0.000 0.000
v -0.23101 -0.01235 2.42777 0.000 0.000 0.000
v -0.22905 -0.01222 2.46483 0.000 0.000 0.000
v -0.23101 -0.01235 2.42777 0.000 0.000 0.000
v -0.24790 -0.00868 2.42897 0.000 0.000 0.000
v -0.24948 0.01222 2.46640 0.000 0.000 0.000
v -0.22905 0.01222 2.46483 0.000 0.000 0.000
v -0.24869 0.01442 2.44980 0.000 0.000 0.000
v -0.24790 0.00868 2.42897 0.000 0.000 0.000
v -0.22905 0.00000 2.47052 0.000 0.000 0.000
v -0.22905 0.01222 2.46483 0.000 0.000 0.000
v -0.24790 -0.00868 2.42897 0.000 0.000 0.000
v -0.24869 -0.01442 2.44980 0.000 0.000 0.000
v -0.24948 -0.01222 2.46640 0.000 0.000 0.000
v -0.22905 -0.01222 2.46483 0.000 0.000 0.000
vt 0.57953 0.05757
vt 0.58304 0.07695
vt 0.61336 0.00202
vt 0.40527 0.00202
vt 0.43559 0.07695
vt 0.43910 0.05757
vt 0.88324 0.49566
vt 0.75543 0.49770
vt 0.75543 0.06047
vt 0.88324 0.38525
vt 0.75543 0.37146
vt 0.88324 0.27554
vt 0.75543 0.27554
vt 0.82479 0.37444
vt 0.82132 0.27554
vt 0.75543 0.15817
vt 0.82094 0.16830
vt 0.88324 0.14431
vt 0.13266 0.49566
vt 0.25679 0.49770
vt 0.25679 0.01170
vt 0.13266 0.35204
vt 0.25679 0.35204
vt 0.13266 0.22580
vt 0.25679 0.22580
vt 0.19384 0.35204
vt 0.19730 0.22580
vt 0.25679 0.10266
vt 0.19769 0.10714
vt 0.13266 0.11424
vt 0.51309 0.17864
vt 0.60027 0.17213
vt 0.76203 0.05615
vt 0.80137 0.02328
vt 0.36264 0.18445
vt 0.22767 0.01267
vt 0.25183 0.18298
vt 0.16264 0.00808
vt 0.19955 0.07513
vt 0.32926 0.01228
vt 0.41100 0.01673
vt 0.31838 0.07863
vt 0.45180 0.07468
vt 0.48242 0.00637
vt 0.80005 0.04262
vt 0.77045 0.06958
vt 0.84216 0.04262
vt 0.74773 0.16397
vt 0.81308 0.06961
vt 0.81314 0.05540
vt 0.83625 0.16287
vt 0.91052 0.16488
vt 0.88945 0.02328
vt 0.88901 0.04343
vt 0.84337 0.02328
vt 0.53555 0.67881
vt 0.45759 0.55171
vt 0.43646 0.50616
vt 0.57087 0.48196
vt 0.60625 0.56242
vt 0.45759 0.55171
vt 0.48445 0.59551
vt 0.54417 0.52637
vt 0.58188 0.60253
vt 0.48445 0.59552
vt 0.58188 0.60253
vt 0.49659 0.02807
vt 0.64277 0.00400
vt 0.87577 0.00200
vt 0.17465 0.39266
vt 0.06301 0.39235
vt 0.17472 0.34229
vt 0.29740 0.30106
vt 0.02863 0.33998
vt 0.17503 0.30703
vt 0.06404 0.30828
vt 0.99000 0.15500
vt 0.17474 0.25687
vt 0.29746 0.20937
vt 0.02863 0.23373
vt 0.17530 0.20975
vt 0.06404 0.20916
vt 0.29840 0.14157
vt 0.17401 0.13709
vt 0.06404 0.13724
vt 0.17419 0.12303
vt 0.02863 0.12748
vt 0.02863 0.04195
vt 0.17597 0.04195
vt 0.24834 0.04771
vt 0.16514 0.04020
vt 0.91968 0.03575
vt 0.07992 0.04016
vt 0.92062 0.01287
vt 0.25390 0.42741
vt 0.26130 0.30800
vt 0.74000 0.15500
vt 0.75000 0.15500
vt 0.56000 0.08500
vt 0.77000 0.08500
vt 0.98000 0.08500
vt 0.80774 0.01263
vt 0.57500 0.02000
vt 0.79500 0.02000
vt 0.96500 0.02000
vt 0.30516 0.08089
vt 0.91899 0.29282
vt 0.78528 0.29289
vt 0.91979 0.16146
vt 0.78528 0.15486
vt 0.83442 0.03631
vt 0.41100 0.42900
vt 0.46800 0.34200
vt 0.39850 0.33456
vt 0.85985 0.13640
vt 0.76913 0.19659
vt 0.49893 0.15500
vt 0.61281 0.08500
vt 0.23302 0.26515
vt 0.23302 0.16770
vt 0.23302 0.02973
vt 0.23302 0.15227
vt 0.23302 0.25846
vt 0.23302 0.38010
vt 0.23302 0.50342
vt 0.23302 0.35806
vt 0.40721 0.87896
vt 0.40721 0.92222
vt 0.40721 0.97027
vt 0.40721 0.92222
vt 0.40721 0.87896
vt 0.40721 0.81583
vt 0.40721 0.74257
vt 0.40721 0.81583
vt 0.14056 0.92087
vt 0.14056 0.92087
vt 0.62520 0.87896
vt 0.62520 0.92222
vt 0.62520 0.97027
vt 0.62520 0.92222
vt 0.62520 0.87896
vt 0.62520 0.81583
vt 0.62520 0.74257
vt 0.62520 0.81583
vt 0.79318 0.87896
vt 0.79318 0.92222
vt 0.79318 0.97027
vt 0.79318 0.92222
vt 0.79318 0.87896
vt 0.79318 0.81583
vt 0.79318 0.74257
vt 0.79318 0.81583
vt 0.12493 0.16770
vt 0.12493 0.02725
vt 0.12493 0.15262
vt 0.12493 0.25846
vt 0.12493 0.38010
vt 0.12493 0.50342
vt 0.12493 0.35806
vt 0.12493 0.26515
vt 0.12493 0.25846
vt 0.12493 0.38010
vt 0.12493 0.50342
vt 0.12493 0.35806
vt 0.12493 0.26515
vt 0.12493 0.16770
vt 0.12493 0.02973
vt 0.12493 0.15259
vt 0.23302 0.26515
vt 0.23302 0.16770
vt 0.23302 0.02973
vt 0.23302 0.15227
vt 0.23302 0.25846
vt 0.23302 0.38010
vt 0.23302 0.50342
vt 0.23302 0.35806
vt 0.40721 0.87896
vt 0.40721 0.92222
vt 0.40721 0.97027
vt 0.40721 0.92222
vt 0.40721 0.87896
vt 0.40721 0.81583
vt 0.40721 0.74257
vt 0.40721 0.81583
vt 0.14056 0.92087
vt 0.14056 0.92087
vt 0.62520 0.87896
vt 0.62520 0.92222
vt 0.62520 0.97027
vt 0.62520 0.92222
vt 0.62520 0.87896
vt 0.62520 0.81583
vt 0.62520 0.74257
vt 0.62520 0.81583
vt 0.79318 0.87896
vt 0.79318 0.92222
vt 0.79318 0.97027
vt 0.79318 0.92222
vt 0.79318 0.87896
vt 0.79318 0.81583
vt 0.79318 0.74257
vt 0.79318 0.81583
vt 0.12493 0.16770
vt 0.12493 0.02725
vt 0.12493 0.15262
vt 0.12493 0.25846
vt 0.12493 0.38010
vt 0.12493 0.50342
vt 0.12493 0.35806
vt 0.12493 0.26515
vt 0.12493 0.25846
vt 0.12493 0.38010
vt 0.12493 0.50342
vt 0.12493 0.35806
vt 0.12493 0.26515
vt 0.12493 0.16770
vt 0.12493 0.02973
vt 0.12493 0.15259
vt 0.40679 0.28187
vt 0.69016 0.29416
vt 0.45308 0.32838
vt 0.47315 0.28781
vt 0.57718 0.27431
vt 0.45308 0.32838
vt 0.70257 0.37355
vt 0.45214 0.42862
vt 0.57718 0.37355
vt 0.45214 0.42862
vt 0.45179 0.36820
vt 0.53555 0.67881
vt 0.32458 0.33560
vt 0.31499 0.08968
vt 0.20988 0.10331
vt 0.29881 0.42862
vt 0.31499 0.16987
vt 0.18721 0.16987
vt 0.29733 0.56516
vt 0.32439 0.28597
vt 0.29733 0.56516
vt 0.48445 0.59551
vt 0.54417 0.52637
vt 0.58188 0.60253
vt 0.32061 0.60636
vt 0.34923 0.32638
vt 0.32061 0.60636
vt 0.48445 0.59552
vt 0.58188 0.60253
vt 0.50554 0.17864
vt 0.41836 0.17213
vt 0.25659 0.05615
vt 0.21725 0.02328
vt 0.65599 0.18445
vt 0.79095 0.01267
vt 0.76680 0.18298
vt 0.85599 0.00808
vt 0.81907 0.07513
vt 0.68936 0.01228
vt 0.60762 0.01673
vt 0.70024 0.07863
vt 0.56682 0.07468
vt 0.53621 0.00637
vt 0.21857 0.04262
vt 0.24817 0.06958
vt 0.17647 0.04262
vt 0.27089 0.16397
vt 0.20555 0.06961
vt 0.20549 0.05540
vt 0.18238 0.16287
vt 0.17525 0.02328
vt 0.52203 0.02807
vt 0.37586 0.00400
vt 0.14286 0.00200
vt 0.84398 0.39266
vt 0.84390 0.34229
vt 0.72122 0.30106
vt 0.99000 0.33998
vt 0.84359 0.30703
vt 0.84388 0.25687
vt 0.72117 0.20937
vt 0.99000 0.23373
vt 0.84332 0.20975
vt 0.72023 0.14157
vt 0.84461 0.13709
vt 0.84443 0.12303
vt 0.99000 0.12748
vt 0.99000 0.04195
vt 0.84266 0.04195
vt 0.77029 0.04771
vt 0.85348 0.04020
vt 0.09895 0.03575
vt 0.76473 0.42741
vt 0.75733 0.30800
vt 0.27863 0.15500
vt 0.26863 0.15500
vt 0.45863 0.08500
vt 0.24863 0.08500
vt 0.21089 0.01263
vt 0.44363 0.02000
vt 0.22363 0.02000
vt 0.71347 0.08089
vt 0.09963 0.29282
vt 0.09883 0.16146
vt 0.60763 0.42900
vt 0.24950 0.39524
vt 0.55063 0.34200
vt 0.62012 0.33456
vt 0.15877 0.13640
vt 0.24950 0.19659
vt 0.51970 0.15500
vt 0.40582 0.08500
vt 0.78560 0.26515
vt 0.78560 0.16770
vt 0.78560 0.02973
vt 0.78560 0.15227
vt 0.78560 0.25846
vt 0.78560 0.38010
vt 0.78560 0.50342
vt 0.78560 0.35806
vt 0.61142 0.87896
vt 0.61142 0.92222
vt 0.61142 0.97027
vt 0.61142 0.92222
vt 0.61142 0.87896
vt 0.61142 0.81583
vt 0.61142 0.74257
vt 0.61142 0.81583
vt 0.14056 0.92087
vt 0.14056 0.92087
vt 0.39342 0.87896
vt 0.39342 0.92222
vt 0.39342 0.97027
vt 0.39342 0.92222
vt 0.39342 0.87896
vt 0.39342 0.81583
vt 0.39342 0.74257
vt 0.39342 0.81583
vt 0.22544 0.87896
vt 0.22544 0.92222
vt 0.22544 0.97027
vt 0.22544 0.92222
vt 0.22544 0.87896
vt 0.22544 0.81583
vt 0.22544 0.74257
vt 0.22544 0.81583
vt 0.89369 0.16770
vt 0.89369 0.02725
vt 0.89369 0.15262
vt 0.89369 0.25846
vt 0.89369 0.38010
vt 0.89369 0.50342
vt 0.89369 0.35806
vt 0.89369 0.26515
vt 0.89369 0.25846
vt 0.89369 0.38010
vt 0.89369 0.50342
vt 0.89369 0.35806
vt 0.89369 0.26515
vt 0.89369 0.16770
vt 0.89369 0.02973
vt 0.89369 0.15259
vt 0.78560 0.26515
vt 0.78560 0.16770
vt 0.78560 0.02973
vt 0.78560 0.15227
vt 0.78560 0.25846
vt 0.78560 0.38010
vt 0.78560 0.50342
vt 0.78560 0.35806
vt 0.61142 0.87896
vt 0.61142 0.92222
vt 0.61142 0.97027
vt 0.61142 0.92222
vt 0.61142 0.87896
vt 0.61142 0.81583
vt 0.61142 0.74257
vt 0.61142 0.81583
vt 0.14056 0.92087
vt 0.14056 0.92087
vt 0.39342 0.87896
vt 0.39342 0.92222
vt 0.39342 0.97027
vt 0.39342 0.92222
vt 0.39342 0.87896
vt 0.39342 0.81583
vt 0.39342 0.74257
vt 0.39342 0.81583
vt 0.22544 0.87896
vt 0.22544 0.92222
vt 0.22544 0.97027
vt 0.22544 0.92222
vt 0.22544 0.87896
vt 0.22544 0.81583
vt 0.22544 0.74257
vt 0.22544 0.81583
vt 0.89369 0.16770
vt 0.89369 0.02725
vt 0.89369 0.15262
vt 0.89369 0.25846
vt 0.89369 0.38010
vt 0.89369 0.50342
vt 0.89369 0.35806
vt 0.89369 0.26515
vt 0.89369 0.25846
vt 0.89369 0.38010
vt 0.89369 0.50342
vt 0.89369 0.35806
vt 0.89369 0.26515
vt 0.89369 0.16770
vt 0.89369 0.02973
vt 0.89369 0.15259
vt 0.25332 0.64398
vt 0.19764 0.64482
vt 0.88560 0.69672
vt 0.06401 0.50580
vt 0.17500 0.44890
vt 0.06401 0.44890
vt 0.31400 0.56260
vt 0.26443 0.61021
vt 0.18000 0.55218
vt 0.17500 0.50580
vt 0.06401 0.61036
vt 0.06401 0.55589
vt 0.31900 0.48890
vt 0.32191 0.61075
vt 0.31400 0.67427
vt 0.19939 0.70640
vt 0.31400 0.73268
vt 0.19500 0.64414
vt 0.06401 0.67027
vt 0.06401 0.71018
vt 0.37978 0.64178
vt 0.37507 0.51094
vt 0.56095 0.15433
vt 0.76913 0.39524
vt 0.90526 0.17031
vt 0.34341 0.69194
vt 0.22395 0.80640
vt 0.21686 0.76517
vt 0.06405 0.80640
vt 0.06401 0.76508
vt 0.83370 0.65498
vt 0.83607 0.61648
vt 0.77004 0.58021
vt 0.36750 0.64414
vt 0.45315 0.69194
vt 0.33945 0.75226
vt 0.36941 0.69194
vt 0.31295 0.64469
vt 0.19740 0.64441
vt 0.05946 0.64441
vt 0.25395 0.69194
vt 0.19792 0.69194
vt 0.12844 0.69194
vt 0.06005 0.69194
vt 0.56095 0.37274
vt 0.11958 0.64441
vt 0.25428 0.64476
vt 0.30053 0.64404
vt 0.83720 0.73985
vt 0.77004 0.65805
vt 0.74392 0.65540
vt 0.57678 0.72209
vt 0.76782 0.61276
vt 0.72958 0.57976
vt 0.54391 0.62698
vt 0.41914 0.15433
vt 0.46221 0.64961
vt 0.46221 0.46732
vt 0.46221 0.54916
vt 0.41914 0.37274
vt 0.41914 0.48659
vt 0.26130 0.30800
vt 0.87197 0.26518
vt 0.06677 0.32462
vt 0.76531 0.64398
vt 0.82099 0.64482
vt 0.15270 0.69597
vt 0.84363 0.44890
vt 0.70463 0.56260
vt 0.75420 0.61021
vt 0.83863 0.55218
vt 0.84363 0.50580
vt 0.69963 0.48890
vt 0.69671 0.61075
vt 0.70463 0.67427
vt 0.81924 0.70640
vt 0.70463 0.73268
vt 0.82363 0.64414
vt 0.63884 0.64178
vt 0.64356 0.51094
vt 0.45767 0.15433
vt 0.11337 0.17031
vt 0.67522 0.69194
vt 0.79468 0.80640
vt 0.80177 0.76517
vt 0.18961 0.64956
vt 0.18256 0.61648
vt 0.24500 0.58021
vt 0.65113 0.64414
vt 0.56548 0.69194
vt 0.67917 0.75226
vt 0.64922 0.69194
vt 0.70568 0.64469
vt 0.82123 0.64441
vt 0.76468 0.69194
vt 0.82071 0.69194
vt 0.89018 0.69194
vt 0.45767 0.37274
vt 0.89904 0.64441
vt 0.76435 0.64476
vt 0.71810 0.64404
vt 0.19248 0.73358
vt 0.24500 0.67006
vt 0.28459 0.67424
vt 0.44184 0.72209
vt 0.25958 0.61745
vt 0.30895 0.56669
vt 0.47471 0.62698
vt 0.59949 0.15433
vt 0.55641 0.64961
vt 0.55641 0.46732
vt 0.55641 0.54916
vt 0.59949 0.37274
vt 0.59949 0.48659
vt 0.75733 0.30800
vt 0.14665 0.26518
vt 0.95186 0.32462
vt 0.89808 0.64441
vt 0.89904 0.64441
vt 0.99219 0.00781
vt 0.99219 0.36719
vt 0.63281 0.36719
vt 0.31620 0.11799
vt 0.61719 0.11967
vt 0.31620 0.11799
vt 0.82031 0.19531
vt 0.99219 0.00781
vt 0.99219 0.36719
vt 0.63281 0.36719
vt 0.82031 0.19531
vt 0.63281 0.00781
vt 0.00781 0.11621
vt 0.63281 0.00781
vt 0.99219 0.85156
vt 0.33802 0.69531
vt 0.99219 0.99219
vt 0.33802 0.83594
vt 0.34222 0.99219
vt 0.34222 0.85156
vt 0.67865 0.69531
vt 0.68285 0.85156
vt 0.68285 0.99219
vt 0.67865 0.83594
vt 0.00781 0.99219
vt 0.00781 0.85156
vt 0.88385 0.53906
vt 0.99219 0.67969
vt 0.64418 0.53906
vt 0.64418 0.67969
vt 0.00781 0.67969
vt 0.00781 0.53906
vt 0.99219 0.69531
vt 0.33802 0.69531
vt 0.99219 0.83594
vt 0.33802 0.83594
vt 0.34222 0.99219
vt 0.34222 0.85156
vt 0.67865 0.69531
vt 0.68285 0.85156
vt 0.68285 0.99219
vt 0.67865 0.83594
vt 0.00781 0.83594
vt 0.00781 0.69531
vt 0.88064 0.53906
vt 0.99219 0.67969
vt 0.64418 0.53906
vt 0.64418 0.67969
vt 0.00781 0.67969
vt 0.00781 0.53906
vt 0.44383 0.24278
vt 0.61520 0.24278
vt 0.42969 0.42969
vt 0.61520 0.52047
vt 0.30469 0.42969
vt 0.00781 0.52344
vt 0.00781 0.42969
vt 0.42969 0.24219
vt 0.15724 0.33717
vt 0.42969 0.33714
vt 0.30469 0.33714
vt 0.15557 0.42969
vt 0.15782 0.52344
vt 0.88324 0.06047
vt 0.13266 0.01170
vt 0.81061 0.02328
vt 0.81028 0.04343
vt 0.77225 0.16287
vt 0.81173 0.13597
vt 0.71108 0.04361
vt 0.71114 0.02340
vt 0.45609 0.54222
vt 0.58810 0.48196
vt 0.61324 0.52387
vt 0.71341 0.50131
vt 0.69537 0.53655
vt 0.60625 0.56242
vt 0.49341 0.61081
vt 0.66106 0.60356
vt 0.54500 0.15500
vt 0.76000 0.15500
vt 0.74000 0.08500
vt 0.74000 0.08500
vt 0.73935 0.02330
vt 0.71500 0.02000
vt 0.46053 0.25154
vt 0.91811 0.40492
vt 0.91908 0.35510
vt 0.83487 0.38089
vt 0.78462 0.38089
vt 0.38175 0.19016
vt 0.32910 0.00071
vt 0.36307 0.08271
vt 0.10479 0.00481
vt 0.17440 0.04700
vt 0.17516 0.01247
vt 0.32189 0.34110
vt 0.32196 0.25950
vt 0.32164 0.12385
vt 0.32302 0.04269
vt 0.24946 0.00225
vt 0.17498 0.40080
vt 0.32255 0.40202
vt 0.96219 0.57031
vt 0.96219 0.42969
vt 0.72933 0.57124
vt 0.10645 0.01126
vt 0.77281 0.09647
vt 0.87197 0.26518
vt 0.44306 0.12172
vt 0.23302 0.02725
vt 0.12493 0.02725
vt 0.23302 0.50342
vt 0.23302 0.38010
vt 0.23302 0.25846
vt 0.23302 0.15230
vt 0.23302 0.02725
vt 0.23302 0.16770
vt 0.23302 0.02973
vt 0.12493 0.02973
vt 0.23302 0.26515
vt 0.23302 0.35806
vt 0.93122 0.92222
vt 0.93122 0.87896
vt 0.93122 0.97027
vt 0.93122 0.92222
vt 0.93122 0.87896
vt 0.93122 0.81583
vt 0.93122 0.74257
vt 0.93122 0.81583
vt 0.00793 0.89254
vt 0.00792 0.95175
vt 0.00792 0.83036
vt 0.14056 0.86581
vt 0.00793 0.76774
vt 0.14056 0.79493
vt 0.00793 0.70866
vt 0.14056 0.74002
vt 0.00793 0.76775
vt 0.00793 0.83036
vt 0.00792 0.89254
vt 0.00792 0.95175
vt 0.00793 0.89266
vt 0.00793 0.89266
vt 0.00793 0.83036
vt 0.14056 0.86581
vt 0.00792 0.76837
vt 0.14056 0.79493
vt 0.00792 0.70899
vt 0.14056 0.73971
vt 0.00793 0.76837
vt 0.00793 0.83036
vt 0.23302 0.02725
vt 0.12493 0.02725
vt 0.23302 0.50342
vt 0.23302 0.38010
vt 0.23302 0.25846
vt 0.23302 0.15230
vt 0.23302 0.02725
vt 0.23302 0.16770
vt 0.23302 0.02973
vt 0.12493 0.02973
vt 0.23302 0.26515
vt 0.23302 0.35806
vt 0.93122 0.92222
vt 0.93122 0.87896
vt 0.93122 0.97027
vt 0.93122 0.92222
vt 0.93122 0.87896
vt 0.93122 0.81583
vt 0.93122 0.74257
vt 0.93122 0.81583
vt 0.00793 0.89254
vt 0.00792 0.95175
vt 0.00792 0.83036
vt 0.14056 0.86581
vt 0.00793 0.76774
vt 0.14056 0.79493
vt 0.00793 0.70866
vt 0.14056 0.74002
vt 0.00793 0.76775
vt 0.00793 0.83036
vt 0.00792 0.89254
vt 0.00792 0.95175
vt 0.00793 0.89266
vt 0.00793 0.89266
vt 0.00793 0.83036
vt 0.14056 0.86581
vt 0.00792 0.76837
vt 0.14056 0.79493
vt 0.00792 0.70899
vt 0.14056 0.73971
vt 0.00793 0.76837
vt 0.00793 0.83036
vt 0.44273 0.55501
vt 0.41590 0.59970
vt 0.44273 0.55501
vt 0.41590 0.59970
vt 0.44532 0.29338
vt 0.42849 0.33123
vt 0.17855 0.29338
vt 0.30954 0.28926
vt 0.19882 0.33234
vt 0.28466 0.32964
vt 0.45609 0.54222
vt 0.61324 0.52387
vt 0.69537 0.53655
vt 0.29881 0.42862
vt 0.32458 0.33560
vt 0.26870 0.04958
vt 0.51454 0.23462
vt 0.43022 0.16987
vt 0.60402 0.42862
vt 0.57386 0.33560
vt 0.48394 0.28187
vt 0.42010 0.10331
vt 0.36127 0.04958
vt 0.63088 0.23462
vt 0.60402 0.42862
vt 0.57386 0.33560
vt 0.36487 0.68469
vt 0.39647 0.40322
vt 0.23736 0.40643
vt 0.49341 0.61081
vt 0.66106 0.60356
vt 0.20801 0.02328
vt 0.12961 0.04343
vt 0.20834 0.04343
vt 0.24638 0.16287
vt 0.10810 0.16488
vt 0.20689 0.13597
vt 0.30755 0.04361
vt 0.30749 0.02340
vt 0.12918 0.02328
vt 0.47363 0.15500
vt 0.02863 0.15500
vt 0.25863 0.15500
vt 0.03863 0.08500
vt 0.27863 0.08500
vt 0.27863 0.08500
vt 0.27928 0.02330
vt 0.30363 0.02000
vt 0.05363 0.02000
vt 0.14665 0.26518
vt 0.13448 0.49566
vt 0.55810 0.25154
vt 0.10051 0.40492
vt 0.18376 0.38089
vt 0.09955 0.35510
vt 0.23401 0.38089
vt 0.23335 0.29289
vt 0.23335 0.15486
vt 0.18421 0.03631
vt 0.09801 0.01287
vt 0.63687 0.19016
vt 0.65556 0.08271
vt 0.68953 0.00071
vt 0.93871 0.04016
vt 0.91384 0.00481
vt 0.95459 0.13724
vt 0.95459 0.30828
vt 0.95459 0.20916
vt 0.95562 0.39235
vt 0.84423 0.04700
vt 0.84347 0.01247
vt 0.69673 0.34110
vt 0.69666 0.25950
vt 0.69699 0.12385
vt 0.69561 0.04269
vt 0.76917 0.00225
vt 0.84364 0.40080
vt 0.69608 0.40202
vt 0.05644 0.57031
vt 0.28929 0.57124
vt 0.05644 0.42969
vt 0.91217 0.01126
vt 0.24582 0.09647
vt 0.57557 0.12172
vt 0.55063 0.52483
vt 0.78560 0.02725
vt 0.89369 0.02725
vt 0.78560 0.50342
vt 0.78560 0.38010
vt 0.78560 0.25846
vt 0.78560 0.15230
vt 0.78560 0.02725
vt 0.78560 0.16770
vt 0.78560 0.02973
vt 0.89369 0.02973
vt 0.78560 0.26515
vt 0.78560 0.35806
vt 0.08740 0.92222
vt 0.08740 0.87896
vt 0.08740 0.97027
vt 0.08740 0.92222
vt 0.08740 0.87896
vt 0.08740 0.81583
vt 0.08740 0.74257
vt 0.08740 0.81583
vt 0.00793 0.89254
vt 0.00792 0.95175
vt 0.00792 0.83036
vt 0.14056 0.86581
vt 0.00793 0.76774
vt 0.14056 0.79493
vt 0.00793 0.70866
vt 0.14056 0.74002
vt 0.00793 0.76775
vt 0.00793 0.83036
vt 0.00792 0.89254
vt 0.00792 0.95175
vt 0.00793 0.89266
vt 0.00793 0.89266
vt 0.00793 0.83036
vt 0.14056 0.86581
vt 0.00792 0.76837
vt 0.14056 0.79493
vt 0.00792 0.70899
vt 0.14056 0.73971
vt 0.00793 0.76837
vt 0.00793 0.83036
vt 0.78560 0.02725
vt 0.89369 0.02725
vt 0.78560 0.50342
vt 0.78560 0.38010
vt 0.78560 0.25846
vt 0.78560 0.15230
vt 0.78560 0.02725
vt 0.78560 0.16770
vt 0.78560 0.02973
vt 0.89369 0.02973
vt 0.78560 0.26515
vt 0.78560 0.35806
vt 0.08740 0.92222
vt 0.08740 0.87896
vt 0.08740 0.97027
vt 0.08740 0.92222
vt 0.08740 0.87896
vt 0.08740 0.81583
vt 0.08740 0.74257
vt 0.08740 0.81583
vt 0.00793 0.89254
vt 0.00792 0.95175
vt 0.00792 0.83036
vt 0.14056 0.86581
vt 0.00793 0.76774
vt 0.14056 0.79493
vt 0.00793 0.70866
vt 0.14056 0.74002
vt 0.00793 0.76775
vt 0.00793 0.83036
vt 0.00792 0.89254
vt 0.00792 0.95175
vt 0.00793 0.89266
vt 0.00793 0.89266
vt 0.00793 0.83036
vt 0.14056 0.86581
vt 0.00792 0.76837
vt 0.14056 0.79493
vt 0.00792 0.70899
vt 0.14056 0.73971
vt 0.00793 0.76837
vt 0.00793 0.83036
vt 0.96999 0.01095
vt 0.84003 0.01173
vt 0.17465 0.39266
vt 0.06301 0.39235
vt 0.17498 0.40080
vt 0.32255 0.40202
vt 0.25390 0.63140
vt 0.25390 0.57737
vt 0.25390 0.49684
vt 0.25395 0.69194
vt 0.27895 0.80140
vt 0.60616 0.62707
vt 0.63446 0.37274
vt 0.63446 0.15433
vt 0.31400 0.69194
vt 0.88450 0.57939
vt 0.88525 0.64094
vt 0.76986 0.49748
vt 0.41100 0.42900
vt 0.46800 0.52483
vt 0.25390 0.42741
vt 0.77131 0.58053
vt 0.76913 0.39524
vt 0.39850 0.33456
vt 0.08213 0.23457
vt 0.25675 0.23457
vt 0.76840 0.49770
vt 0.46800 0.34200
vt 0.04864 0.01095
vt 0.17860 0.01173
vt 0.95462 0.44890
vt 0.84398 0.39266
vt 0.95562 0.39235
vt 0.84364 0.40080
vt 0.69608 0.40202
vt 0.95462 0.50580
vt 0.95462 0.55589
vt 0.95462 0.61036
vt 0.95462 0.71018
vt 0.95462 0.76508
vt 0.95462 0.67027
vt 0.76473 0.63140
vt 0.76473 0.57737
vt 0.76473 0.49684
vt 0.95458 0.80640
vt 0.76468 0.69194
vt 0.73968 0.80140
vt 0.38417 0.37274
vt 0.41247 0.62707
vt 0.38417 0.15433
vt 0.95858 0.69194
vt 0.70463 0.69194
vt 0.95916 0.64441
vt 0.13413 0.57939
vt 0.13574 0.66623
vt 0.13448 0.49566
vt 0.24877 0.49748
vt 0.24500 0.49748
vt 0.55063 0.52483
vt 0.60763 0.42900
vt 0.76473 0.42741
vt 0.24732 0.58053
vt 0.24950 0.39524
vt 0.62012 0.33456
vt 0.93649 0.23457
vt 0.76187 0.23457
vt 0.25023 0.49770
vt 0.55063 0.34200
vt 0.00781 0.00781
vt 0.00781 0.22656
vt 0.61719 0.22656
vt 0.61719 0.00781
vt 0.31670 0.00781
vt 0.31570 0.22656
vt 0.31570 0.22656
vt 0.31670 0.00781
vt 0.99219 0.83594
vt 0.99219 0.69531
vt 0.00781 0.69531
vt 0.00781 0.83594
vt 0.00781 0.85156
vt 0.00781 0.99219
vt 0.99219 0.99219
vt 0.99219 0.85156
vt 0.42969 0.42969
vt 0.30469 0.42969
vt 0.30469 0.24219
vt 0.00781 0.42969
vt 0.30469 0.42969
vt 0.30469 0.52344
vt 0.00781 0.52344
vt 0.00781 0.42969
vt 0.15782 0.52344
vt 0.30469 0.52344
vt 0.52842 0.52047
vt 0.44383 0.52047
vt 0.00781 0.24219
vt 0.15557 0.24219
vt 0.30469 0.24219
vt 0.42969 0.24219
usemtl m0
f 1/1 3/3 2/2
f 6/6 5/5 4/4
f 17/17 15/15 18/18
f 15/15 12/12 18/18
f 8/8 7/7 14/14
f 14/14 10/10 15/15
f 10/10 12/12 15/15
f 11/11 8/8 14/14
f 7/7 10/10 14/14
f 15/15 13/13 14/14
f 13/13 11/11 14/14
f 16/16 13/13 17/17
f 13/13 15/15 17/17
f 9/9 16/16 17/17
f 593/593 17/17 18/18
f 20/20 23/23 26/26
f 27/27 26/26 25/25
f 26/26 23/23 25/25
f 21/21 29/29 28/28
f 22/22 19/19 26/26
f 19/19 20/20 26/26
f 24/24 22/22 27/27
f 22/22 26/26 27/27
f 594/594 30/30 29/29
f 28/28 29/29 25/25
f 29/29 27/27 25/25
f 29/29 30/30 27/27
f 30/30 24/24 27/27
f 44/44 43/43 3/3
f 42/42 39/39 37/37
f 38/38 39/39 36/36
f 42/42 37/37 35/35
f 42/42 41/41 40/40
f 43/43 42/42 35/35
f 42/42 43/43 41/41
f 36/36 42/42 40/40
f 36/36 39/39 42/42
f 43/43 44/44 41/41
f 43/43 35/35 31/31
f 45/45 51/51 47/47
f 55/55 34/34 47/47
f 595/595 596/596 54/54
f 1/1 46/46 33/33
f 597/597 52/52 54/54
f 51/51 45/45 48/48
f 46/46 32/32 598/598
f 49/49 50/50 46/46
f 45/45 34/34 599/599
f 46/46 598/598 49/49
f 599/599 48/48 45/45
f 597/597 54/54 596/596
f 599/599 34/34 600/600
f 46/46 50/50 33/33
f 47/47 34/34 45/45
f 595/595 54/54 53/53
f 3/3 43/43 2/2
f 32/32 46/46 2/2
f 2/2 43/43 31/31
f 2/2 46/46 1/1
f 2/2 31/31 32/32
f 60/60 66/66 61/61
f 66/66 62/62 61/61
f 56/56 64/64 65/65
f 59/59 58/58 63/63
f 58/58 601/601 63/63
f 602/602 603/603 604/604
f 603/603 605/605 604/604
f 66/66 56/56 62/62
f 65/65 64/64 57/57
f 64/64 606/606 57/57
f 601/601 607/607 63/63
f 603/603 608/608 605/605
f 97/97 118/118 117/117
f 98/98 99/99 609/609
f 77/77 100/100 610/610
f 118/118 67/67 117/117
f 101/101 100/100 77/77
f 611/611 99/99 98/98
f 612/612 118/118 97/97
f 101/101 104/104 100/100
f 611/611 103/103 99/99
f 612/612 613/613 118/118
f 614/614 68/68 103/103
f 105/105 69/69 104/104
f 105/105 104/104 101/101
f 614/614 103/103 611/611
f 112/112 114/114 113/113
f 115/115 102/102 116/116
f 615/615 113/113 114/114
f 616/616 617/617 618/618
f 618/618 107/107 619/619
f 107/107 108/108 619/619
f 110/110 108/108 107/107
f 617/617 107/107 618/618
f 109/109 92/92 110/110
f 92/92 111/111 110/110
f 92/92 94/94 111/111
f 95/95 96/96 114/114
f 96/96 620/620 114/114
f 620/620 96/96 106/106
f 106/106 621/621 622/622
f 93/93 623/623 91/91
f 85/85 93/93 91/91
f 85/85 91/91 84/84
f 76/76 82/82 75/75
f 82/82 85/85 84/84
f 82/82 84/84 81/81
f 82/82 81/81 75/75
f 70/70 71/71 75/75
f 71/71 76/76 75/75
f 624/624 625/625 90/90
f 81/81 79/79 75/75
f 84/84 83/83 81/81
f 81/81 83/83 79/79
f 83/83 624/624 90/90
f 84/84 624/624 83/83
f 75/75 79/79 73/73
f 75/75 73/73 70/70
f 72/72 78/78 626/626
f 78/78 627/627 626/626
f 86/86 628/628 627/627
f 78/78 86/86 627/627
f 89/89 629/629 628/628
f 86/86 89/89 628/628
f 89/89 630/630 629/629
f 631/631 72/72 632/632
f 72/72 626/626 632/632
f 74/74 78/78 72/72
f 631/631 74/74 72/72
f 633/633 634/634 635/635
f 74/74 80/80 78/78
f 80/80 87/87 86/86
f 80/80 86/86 78/78
f 88/88 636/636 89/89
f 88/88 89/89 86/86
f 87/87 88/88 86/86
f 116/116 102/102 637/637
f 115/115 116/116 638/638
f 615/615 114/114 639/639
f 620/620 106/106 622/622
f 110/110 107/107 109/109
f 95/95 114/114 112/112
f 137/137 127/127 138/138
f 127/127 128/128 138/138
f 138/138 128/128 139/139
f 128/128 129/129 139/139
f 139/139 129/129 140/140
f 129/129 130/130 140/140
f 141/141 140/140 131/131
f 140/140 130/130 131/131
f 142/142 141/141 132/132
f 141/141 131/131 132/132
f 143/143 142/142 133/133
f 142/142 132/132 133/133
f 144/144 143/143 134/134
f 143/143 133/133 134/134
f 144/144 134/134 137/137
f 134/134 127/127 137/137
f 120/120 166/166 119/119
f 166/166 165/165 119/119
f 121/121 167/167 120/120
f 167/167 166/166 120/120
f 122/122 168/168 640/640
f 168/168 641/641 640/640
f 122/122 123/123 168/168
f 123/123 161/161 168/168
f 123/123 124/124 161/161
f 124/124 162/162 161/161
f 124/124 125/125 162/162
f 125/125 163/163 162/162
f 125/125 126/126 163/163
f 126/126 164/164 163/163
f 119/119 165/165 126/126
f 165/165 164/164 126/126
f 642/642 158/158 643/643
f 158/158 157/157 643/643
f 643/643 157/157 644/644
f 157/157 156/156 644/644
f 644/644 156/156 645/645
f 156/156 155/155 645/645
f 646/646 645/645 154/154
f 645/645 155/155 154/154
f 647/647 648/648 153/153
f 648/648 649/649 153/153
f 650/650 647/647 160/160
f 647/647 153/153 160/160
f 651/651 650/650 159/159
f 650/650 160/160 159/159
f 651/651 159/159 642/642
f 159/159 158/158 642/642
f 146/146 145/145 138/138
f 145/145 137/137 138/138
f 147/147 146/146 139/139
f 146/146 138/138 139/139
f 148/148 147/147 140/140
f 147/147 139/139 140/140
f 148/148 140/140 149/149
f 140/140 141/141 149/149
f 149/149 141/141 150/150
f 141/141 142/142 150/150
f 150/150 142/142 151/151
f 142/142 143/143 151/151
f 151/151 143/143 152/152
f 143/143 144/144 152/152
f 145/145 152/152 137/137
f 152/152 144/144 137/137
f 652/652 653/653 146/146
f 653/653 145/145 146/146
f 654/654 652/652 147/147
f 652/652 146/146 147/147
f 655/655 654/654 148/148
f 654/654 147/147 148/148
f 655/655 148/148 656/656
f 148/148 149/149 656/656
f 656/656 149/149 657/657
f 149/149 150/150 657/657
f 657/657 150/150 658/658
f 150/150 151/151 658/658
f 658/658 151/151 659/659
f 151/151 152/152 659/659
f 653/653 659/659 145/145
f 659/659 152/152 145/145
f 660/660 136/136 661/661
f 662/662 663/663 660/660
f 664/664 665/665 662/662
f 666/666 667/667 664/664
f 668/668 667/667 666/666
f 669/669 665/665 668/668
f 670/670 663/663 669/669
f 661/661 136/136 670/670
f 671/671 135/135 672/672
f 673/673 135/135 671/671
f 674/674 675/675 673/673
f 676/676 677/677 674/674
f 678/678 679/679 676/676
f 680/680 679/679 678/678
f 681/681 677/677 680/680
f 672/672 675/675 681/681
f 187/187 177/177 188/188
f 177/177 178/178 188/188
f 188/188 178/178 189/189
f 178/178 179/179 189/189
f 189/189 179/179 190/190
f 179/179 180/180 190/190
f 191/191 190/190 181/181
f 190/190 180/180 181/181
f 192/192 191/191 182/182
f 191/191 181/181 182/182
f 193/193 192/192 183/183
f 192/192 182/182 183/183
f 194/194 193/193 184/184
f 193/193 183/183 184/184
f 194/194 184/184 187/187
f 184/184 177/177 187/187
f 170/170 216/216 169/169
f 216/216 215/215 169/169
f 171/171 217/217 170/170
f 217/217 216/216 170/170
f 172/172 218/218 682/682
f 218/218 683/683 682/682
f 172/172 173/173 218/218
f 173/173 211/211 218/218
f 173/173 174/174 211/211
f 174/174 212/212 211/211
f 174/174 175/175 212/212
f 175/175 213/213 212/212
f 175/175 176/176 213/213
f 176/176 214/214 213/213
f 169/169 215/215 176/176
f 215/215 214/214 176/176
f 684/684 208/208 685/685
f 208/208 207/207 685/685
f 685/685 207/207 686/686
f 207/207 206/206 686/686
f 686/686 206/206 687/687
f 206/206 205/205 687/687
f 688/688 687/687 204/204
f 687/687 205/205 204/204
f 689/689 690/690 203/203
f 690/690 691/691 203/203
f 692/692 689/689 210/210
f 689/689 203/203 210/210
f 693/693 692/692 209/209
f 692/692 210/210 209/209
f 693/693 209/209 684/684
f 209/209 208/208 684/684
f 196/196 195/195 188/188
f 195/195 187/187 188/188
f 197/197 196/196 189/189
f 196/196 188/188 189/189
f 198/198 197/197 190/190
f 197/197 189/189 190/190
f 198/198 190/190 199/199
f 190/190 191/191 199/199
f 199/199 191/191 200/200
f 191/191 192/192 200/200
f 200/200 192/192 201/201
f 192/192 193/193 201/201
f 201/201 193/193 202/202
f 193/193 194/194 202/202
f 195/195 202/202 187/187
f 202/202 194/194 187/187
f 694/694 695/695 196/196
f 695/695 195/195 196/196
f 696/696 694/694 197/197
f 694/694 196/196 197/197
f 697/697 696/696 198/198
f 696/696 197/197 198/198
f 697/697 198/198 698/698
f 198/198 199/199 698/698
f 698/698 199/199 699/699
f 199/199 200/200 699/699
f 699/699 200/200 700/700
f 200/200 201/201 700/700
f 700/700 201/201 701/701
f 201/201 202/202 701/701
f 695/695 701/701 195/195
f 701/701 202/202 195/195
f 702/702 186/186 703/703
f 704/704 705/705 702/702
f 706/706 707/707 704/704
f 708/708 709/709 706/706
f 710/710 709/709 708/708
f 711/711 707/707 710/710
f 712/712 705/705 711/711
f 703/703 186/186 712/712
f 713/713 185/185 714/714
f 715/715 185/185 713/713
f 716/716 717/717 715/715
f 718/718 719/719 716/716
f 720/720 721/721 718/718
f 722/722 721/721 720/720
f 723/723 719/719 722/722
f 714/714 717/717 723/723
f 60/60 247/247 61/61
f 247/247 240/240 61/61
f 724/724 725/725 237/237
f 725/725 243/243 237/237
f 230/230 242/242 246/246
f 726/726 239/239 727/727
f 239/239 245/245 727/727
f 728/728 729/729 238/238
f 729/729 244/244 238/238
f 730/730 731/731 732/732
f 731/731 733/733 732/732
f 59/59 58/58 241/241
f 58/58 734/734 241/241
f 602/602 735/735 604/604
f 735/735 736/736 604/604
f 221/221 234/234 231/231
f 232/232 236/236 233/233
f 224/224 737/737 228/228
f 223/223 229/229 227/227
f 738/738 224/224 219/219
f 737/737 224/224 738/738
f 219/219 221/221 231/231
f 234/234 221/221 226/226
f 739/739 232/232 233/233
f 236/236 232/232 235/235
f 229/229 223/223 222/222
f 222/222 223/223 740/740
f 232/232 741/741 235/235
f 223/223 225/225 220/220
f 224/224 742/742 743/743
f 744/744 224/224 743/743
f 742/742 224/224 228/228
f 745/745 232/232 746/746
f 741/741 232/232 745/745
f 225/225 223/223 227/227
f 747/747 223/223 220/220
f 221/221 748/748 226/226
f 749/749 221/221 744/744
f 748/748 221/221 749/749
f 235/235 741/741 238/238
f 741/741 728/728 238/238
f 730/730 236/236 731/731
f 236/236 235/235 731/731
f 737/737 239/239 228/228
f 239/239 726/726 228/228
f 606/606 742/742 57/57
f 742/742 228/228 57/57
f 229/229 58/58 227/227
f 58/58 59/59 227/227
f 604/604 225/225 602/602
f 225/225 227/227 602/602
f 748/748 60/60 226/226
f 60/60 61/61 226/226
f 234/234 226/226 237/237
f 226/226 724/724 237/237
f 247/247 230/230 240/240
f 725/725 750/750 243/243
f 246/246 242/242 57/57
f 242/242 606/606 57/57
f 245/245 750/750 727/727
f 729/729 751/751 244/244
f 733/733 752/752 732/732
f 734/734 753/753 241/241
f 735/735 754/754 736/736
f 261/261 4/4 260/260
f 259/259 254/254 256/256
f 255/255 253/253 256/256
f 259/259 252/252 254/254
f 259/259 257/257 258/258
f 260/260 252/252 259/259
f 259/259 258/258 260/260
f 253/253 257/257 259/259
f 253/253 259/259 256/256
f 260/260 258/258 261/261
f 260/260 248/248 252/252
f 262/262 264/264 268/268
f 269/269 264/264 251/251
f 755/755 756/756 757/757
f 6/6 250/250 263/263
f 758/758 756/756 759/759
f 268/268 265/265 262/262
f 263/263 760/760 249/249
f 266/266 263/263 267/267
f 262/262 761/761 251/251
f 263/263 266/266 760/760
f 761/761 262/262 265/265
f 758/758 757/757 756/756
f 761/761 762/762 251/251
f 263/263 250/250 267/267
f 264/264 262/262 251/251
f 755/755 763/763 756/756
f 4/4 5/5 260/260
f 249/249 5/5 263/263
f 5/5 248/248 260/260
f 5/5 6/6 263/263
f 5/5 249/249 248/248
f 293/293 309/309 310/310
f 294/294 764/764 295/295
f 765/765 766/766 296/296
f 310/310 309/309 270/270
f 767/767 765/765 296/296
f 768/768 294/294 295/295
f 769/769 293/293 310/310
f 767/767 296/296 299/299
f 768/768 295/295 298/298
f 769/769 310/310 770/770
f 771/771 298/298 271/271
f 772/772 299/299 272/272
f 772/772 767/767 299/299
f 771/771 768/768 298/298
f 303/303 305/305 306/306
f 307/307 308/308 297/297
f 773/773 774/774 304/304
f 775/775 306/306 305/305
f 776/776 777/777 778/778
f 777/777 779/779 301/301
f 301/301 779/779 780/780
f 781/781 301/301 780/780
f 778/778 777/777 301/301
f 302/302 781/781 290/290
f 290/290 781/781 782/782
f 290/290 782/782 783/783
f 291/291 306/306 292/292
f 292/292 306/306 784/784
f 784/784 300/300 292/292
f 300/300 785/785 786/786
f 787/787 289/289 788/788
f 789/789 289/289 787/787
f 789/789 283/283 289/289
f 790/790 277/277 791/791
f 791/791 283/283 789/789
f 791/791 281/281 283/283
f 791/791 277/277 281/281
f 273/273 277/277 792/792
f 792/792 277/277 790/790
f 793/793 288/288 794/794
f 281/281 277/277 279/279
f 283/283 281/281 282/282
f 281/281 279/279 282/282
f 282/282 288/288 793/793
f 283/283 282/282 793/793
f 277/277 275/275 279/279
f 277/277 273/273 275/275
f 274/274 795/795 278/278
f 278/278 795/795 796/796
f 284/284 796/796 797/797
f 278/278 796/796 284/284
f 287/287 797/797 798/798
f 284/284 797/797 287/287
f 287/287 798/798 799/799
f 800/800 801/801 274/274
f 274/274 801/801 795/795
f 276/276 274/274 278/278
f 800/800 274/274 276/276
f 802/802 803/803 804/804
f 276/276 278/278 280/280
f 280/280 284/284 285/285
f 280/280 278/278 284/284
f 286/286 287/287 805/805
f 286/286 284/284 287/287
f 285/285 284/284 286/286
f 308/308 806/806 297/297
f 307/307 773/773 308/308
f 775/775 807/807 306/306
f 784/784 785/785 300/300
f 781/781 302/302 301/301
f 303/303 808/808 305/305
f 291/291 303/303 306/306
f 329/329 330/330 319/319
f 319/319 330/330 320/320
f 330/330 331/331 320/320
f 320/320 331/331 321/321
f 331/331 332/332 321/321
f 321/321 332/332 322/322
f 333/333 323/323 332/332
f 332/332 323/323 322/322
f 334/334 324/324 333/333
f 333/333 324/324 323/323
f 335/335 325/325 334/334
f 334/334 325/325 324/324
f 336/336 326/326 335/335
f 335/335 326/326 325/325
f 336/336 329/329 326/326
f 326/326 329/329 319/319
f 312/312 311/311 358/358
f 358/358 311/311 357/357
f 313/313 312/312 359/359
f 359/359 312/312 358/358
f 314/314 809/809 360/360
f 360/360 809/809 810/810
f 314/314 360/360 315/315
f 315/315 360/360 353/353
f 315/315 353/353 316/316
f 316/316 353/353 354/354
f 316/316 354/354 317/317
f 317/317 354/354 355/355
f 317/317 355/355 318/318
f 318/318 355/355 356/356
f 311/311 318/318 357/357
f 357/357 318/318 356/356
f 811/811 812/812 350/350
f 350/350 812/812 349/349
f 812/812 813/813 349/349
f 349/349 813/813 348/348
f 813/813 814/814 348/348
f 348/348 814/814 347/347
f 815/815 346/346 814/814
f 814/814 346/346 347/347
f 816/816 345/345 817/817
f 817/817 345/345 818/818
f 819/819 352/352 816/816
f 816/816 352/352 345/345
f 820/820 351/351 819/819
f 819/819 351/351 352/352
f 820/820 811/811 351/351
f 351/351 811/811 350/350
f 338/338 330/330 337/337
f 337/337 330/330 329/329
f 339/339 331/331 338/338
f 338/338 331/331 330/330
f 340/340 332/332 339/339
f 339/339 332/332 331/331
f 340/340 341/341 332/332
f 332/332 341/341 333/333
f 341/341 342/342 333/333
f 333/333 342/342 334/334
f 342/342 343/343 334/334
f 334/334 343/343 335/335
f 343/343 344/344 335/335
f 335/335 344/344 336/336
f 337/337 329/329 344/344
f 344/344 329/329 336/336
f 821/821 338/338 822/822
f 822/822 338/338 337/337
f 823/823 339/339 821/821
f 821/821 339/339 338/338
f 824/824 340/340 823/823
f 823/823 340/340 339/339
f 824/824 825/825 340/340
f 340/340 825/825 341/341
f 825/825 826/826 341/341
f 341/341 826/826 342/342
f 826/826 827/827 342/342
f 342/342 827/827 343/343
f 827/827 828/828 343/343
f 343/343 828/828 344/344
f 822/822 337/337 828/828
f 828/828 337/337 344/344
f 829/829 830/830 328/328
f 831/831 829/829 832/832
f 833/833 831/831 834/834
f 835/835 833/833 836/836
f 837/837 835/835 836/836
f 838/838 837/837 834/834
f 839/839 838/838 832/832
f 830/830 839/839 328/328
f 840/840 841/841 327/327
f 842/842 840/840 327/327
f 843/843 842/842 844/844
f 845/845 843/843 846/846
f 847/847 845/845 848/848
f 849/849 847/847 848/848
f 850/850 849/849 846/846
f 841/841 850/850 844/844
f 379/379 380/380 369/369
f 369/369 380/380 370/370
f 380/380 381/381 370/370
f 370/370 381/381 371/371
f 381/381 382/382 371/371
f 371/371 382/382 372/372
f 383/383 373/373 382/382
f 382/382 373/373 372/372
f 384/384 374/374 383/383
f 383/383 374/374 373/373
f 385/385 375/375 384/384
f 384/384 375/375 374/374
f 386/386 376/376 385/385
f 385/385 376/376 375/375
f 386/386 379/379 376/376
f 376/376 379/379 369/369
f 362/362 361/361 408/408
f 408/408 361/361 407/407
f 363/363 362/362 409/409
f 409/409 362/362 408/408
f 364/364 851/851 410/410
f 410/410 851/851 852/852
f 364/364 410/410 365/365
f 365/365 410/410 403/403
f 365/365 403/403 366/366
f 366/366 403/403 404/404
f 366/366 404/404 367/367
f 367/367 404/404 405/405
f 367/367 405/405 368/368
f 368/368 405/405 406/406
f 361/361 368/368 407/407
f 407/407 368/368 406/406
f 853/853 854/854 400/400
f 400/400 854/854 399/399
f 854/854 855/855 399/399
f 399/399 855/855 398/398
f 855/855 856/856 398/398
f 398/398 856/856 397/397
f 857/857 396/396 856/856
f 856/856 396/396 397/397
f 858/858 395/395 859/859
f 859/859 395/395 860/860
f 861/861 402/402 858/858
f 858/858 402/402 395/395
f 862/862 401/401 861/861
f 861/861 401/401 402/402
f 862/862 853/853 401/401
f 401/401 853/853 400/400
f 388/388 380/380 387/387
f 387/387 380/380 379/379
f 389/389 381/381 388/388
f 388/388 381/381 380/380
f 390/390 382/382 389/389
f 389/389 382/382 381/381
f 390/390 391/391 382/382
f 382/382 391/391 383/383
f 391/391 392/392 383/383
f 383/383 392/392 384/384
f 392/392 393/393 384/384
f 384/384 393/393 385/385
f 393/393 394/394 385/385
f 385/385 394/394 386/386
f 387/387 379/379 394/394
f 394/394 379/379 386/386
f 863/863 388/388 864/864
f 864/864 388/388 387/387
f 865/865 389/389 863/863
f 863/863 389/389 388/388
f 866/866 390/390 865/865
f 865/865 390/390 389/389
f 866/866 867/867 390/390
f 390/390 867/867 391/391
f 867/867 868/868 391/391
f 391/391 868/868 392/392
f 868/868 869/869 392/392
f 392/392 869/869 393/393
f 869/869 870/870 393/393
f 393/393 870/870 394/394
f 864/864 387/387 870/870
f 870/870 387/387 394/394
f 871/871 872/872 378/378
f 873/873 871/871 874/874
f 875/875 873/873 876/876
f 877/877 875/875 878/878
f 879/879 877/877 878/878
f 880/880 879/879 876/876
f 881/881 880/880 874/874
f 872/872 881/881 378/378
f 882/882 883/883 377/377
f 884/884 882/882 377/377
f 885/885 884/884 886/886
f 887/887 885/885 888/888
f 889/889 887/887 890/890
f 891/891 889/889 890/890
f 892/892 891/891 888/888
f 883/883 892/892 886/886
f 893/893 435/435 894/894
f 638/638 116/116 434/434
f 638/638 434/434 7/7
f 416/416 895/895 415/415
f 896/896 895/895 416/416
f 897/897 898/898 415/415
f 415/415 898/898 423/423
f 415/415 423/423 420/420
f 416/416 415/415 414/414
f 420/420 417/417 419/419
f 414/414 420/420 422/422
f 418/418 425/425 428/428
f 419/419 418/418 428/428
f 422/422 419/419 421/421
f 438/438 440/440 430/430
f 425/425 427/427 426/426
f 421/421 428/428 429/429
f 426/426 430/430 429/429
f 428/428 426/426 429/429
f 421/421 419/419 428/428
f 426/426 438/438 430/430
f 428/428 425/425 426/426
f 420/420 423/423 417/417
f 422/422 420/420 419/419
f 419/419 417/417 418/418
f 899/899 900/900 424/424
f 414/414 415/415 420/420
f 901/901 424/424 900/900
f 418/418 417/417 425/425
f 440/440 438/438 439/439
f 902/902 436/436 437/437
f 903/903 438/438 427/427
f 899/899 424/424 902/902
f 902/902 424/424 436/436
f 427/427 438/438 426/426
f 439/439 438/438 903/903
f 455/455 904/904 905/905
f 905/905 906/906 433/433
f 455/455 905/905 433/433
f 439/439 453/453 454/454
f 903/903 452/452 439/439
f 439/439 452/452 453/453
f 445/445 447/447 446/446
f 437/437 436/436 446/446
f 447/447 451/451 446/446
f 446/446 436/436 445/445
f 446/446 451/451 437/437
f 452/452 903/903 907/907
f 411/411 451/451 444/444
f 450/450 453/453 449/449
f 412/412 452/452 448/448
f 448/448 452/452 907/907
f 452/452 449/449 453/453
f 444/444 451/451 447/447
f 453/453 450/450 454/454
f 442/442 908/908 443/443
f 442/442 441/441 909/909
f 413/413 909/909 441/441
f 442/442 443/443 441/441
f 442/442 909/909 908/908
f 434/434 910/910 7/7
f 908/908 910/910 443/443
f 911/911 113/113 912/912
f 912/912 445/445 432/432
f 912/912 432/432 911/911
f 901/901 432/432 424/424
f 913/913 432/432 901/901
f 913/913 911/911 432/432
f 431/431 436/436 424/424
f 445/445 436/436 431/431
f 431/431 424/424 432/432
f 445/445 431/431 432/432
f 908/908 7/7 910/910
f 457/457 412/412 448/448
f 456/456 450/450 449/449
f 458/458 411/411 444/444
f 441/441 459/459 413/413
f 443/443 460/460 441/441
f 460/460 459/459 441/441
f 910/910 464/464 914/914
f 464/464 463/463 914/914
f 465/465 462/462 904/904
f 464/464 461/461 463/463
f 433/433 470/470 455/455
f 904/904 455/455 468/468
f 469/469 467/467 465/465
f 465/465 904/904 468/468
f 465/465 468/468 469/469
f 470/470 468/468 455/455
f 433/433 466/466 470/470
f 470/470 471/471 468/468
f 473/473 915/915 7/7
f 913/913 472/472 916/916
f 896/896 474/474 895/895
f 897/897 917/917 898/898
f 917/917 918/918 898/898
f 915/915 919/919 7/7
f 911/911 920/920 912/912
f 913/913 916/916 911/911
f 474/474 917/917 895/895
f 921/921 922/922 492/492
f 773/773 304/304 308/308
f 923/923 478/478 924/924
f 925/925 923/923 924/924
f 926/926 478/478 927/927
f 478/478 483/483 927/927
f 478/478 482/482 483/483
f 923/923 928/928 478/478
f 482/482 481/481 479/479
f 928/928 929/929 482/482
f 480/480 488/488 485/485
f 481/481 488/488 480/480
f 929/929 930/930 481/481
f 495/495 931/931 932/932
f 485/485 486/486 487/487
f 930/930 933/933 488/488
f 486/486 933/933 931/931
f 488/488 933/933 486/486
f 930/930 488/488 481/481
f 486/486 931/931 495/495
f 488/488 486/486 485/485
f 482/482 479/479 483/483
f 929/929 481/481 482/482
f 481/481 480/480 479/479
f 934/934 484/484 935/935
f 928/928 482/482 478/478
f 936/936 935/935 484/484
f 480/480 485/485 479/479
f 932/932 937/937 495/495
f 938/938 494/494 493/493
f 939/939 487/487 495/495
f 934/934 938/938 484/484
f 938/938 493/493 484/484
f 487/487 486/486 495/495
f 937/937 939/939 495/495
f 508/508 940/940 941/941
f 940/940 491/491 942/942
f 508/508 491/491 940/940
f 937/937 943/943 507/507
f 939/939 937/937 506/506
f 937/937 507/507 506/506
f 500/500 501/501 502/502
f 494/494 501/501 493/493
f 502/502 501/501 505/505
f 501/501 500/500 493/493
f 501/501 494/494 505/505
f 506/506 944/944 939/939
f 475/475 499/499 505/505
f 945/945 528/528 507/507
f 476/476 503/503 506/506
f 503/503 944/944 506/506
f 506/506 507/507 504/504
f 499/499 502/502 505/505
f 507/507 943/943 945/945
f 497/497 498/498 946/946
f 497/497 947/947 496/496
f 477/477 496/496 947/947
f 497/497 496/496 498/498
f 497/497 946/946 947/947
f 304/304 948/948 949/949
f 946/946 498/498 950/950
f 951/951 490/490 500/500
f 951/951 952/952 490/490
f 936/936 484/484 490/490
f 953/953 936/936 490/490
f 953/953 490/490 952/952
f 489/489 484/484 493/493
f 500/500 489/489 493/493
f 489/489 490/490 484/484
f 500/500 490/490 489/489
f 946/946 950/950 948/948
f 510/510 503/503 476/476
f 509/509 528/528 945/945
f 511/511 499/499 475/475
f 496/496 477/477 512/512
f 498/498 496/496 513/513
f 513/513 496/496 512/512
f 949/949 954/954 517/517
f 517/517 954/954 516/516
f 518/518 941/941 515/515
f 517/517 516/516 514/514
f 491/491 508/508 523/523
f 941/941 521/521 508/508
f 522/522 518/518 520/520
f 518/518 521/521 941/941
f 518/518 522/522 521/521
f 523/523 508/508 521/521
f 491/491 523/523 519/519
f 523/523 521/521 524/524
f 526/526 948/948 955/955
f 953/953 956/956 525/525
f 925/925 924/924 527/527
f 926/926 927/927 957/957
f 957/957 927/927 958/958
f 955/955 948/948 959/959
f 952/952 951/951 960/960
f 953/953 952/952 956/956
f 527/527 924/924 957/957
f 528/528 504/504 507/507
f 529/529 504/504 528/528
usemtl m1
f 539/539 543/543 540/540
f 540/540 537/537 538/538
f 540/540 543/543 537/537
f 538/538 539/539 540/540
f 541/541 536/536 530/530
f 531/531 536/536 532/532
f 532/532 536/536 541/541
f 530/530 536/536 531/531
f 535/535 542/542 961/961
f 542/542 535/535 962/962
f 533/533 542/542 962/962
f 542/542 533/533 961/961
f 535/535 534/534 963/963
f 534/534 535/535 964/964
f 533/533 534/534 964/964
f 534/534 533/533 963/963
f 535/535 961/961 965/965
f 962/962 535/535 966/966
f 533/533 962/962 967/967
f 961/961 533/533 968/968
f 535/535 963/963 966/966
f 964/964 535/535 965/965
f 533/533 964/964 968/968
f 963/963 533/533 967/967
f 553/553 547/547 550/550
f 547/547 545/545 550/550
f 551/551 549/549 552/552
f 549/549 548/548 552/552
f 548/548 549/549 554/554
f 549/549 555/555 554/554
f 552/552 546/546 551/551
f 546/546 544/544 551/551
f 969/969 553/553 970/970
f 553/553 550/550 970/970
f 545/545 547/547 971/971
f 547/547 972/972 971/971
f 559/559 557/557 556/556
f 559/559 556/556 558/558
f 560/560 559/559 558/558
f 560/560 558/558 561/561
f 563/563 573/573 565/565
f 573/573 572/572 565/565
f 973/973 567/567 974/974
f 567/567 566/566 974/974
f 568/568 571/571 562/562
f 571/571 564/564 562/562
f 563/563 565/565 568/568
f 565/565 571/571 568/568
f 570/570 569/569 975/975
f 569/569 976/976 975/975
f 569/569 570/570 567/567
f 570/570 566/566 567/567
f 577/577 574/574 575/575
f 577/577 576/576 574/574
f 578/578 576/576 577/577
f 579/579 576/576 578/578
f 581/581 580/580 583/583
f 582/582 584/584 589/589
f 584/584 590/590 589/589
f 591/591 586/586 588/588
f 977/977 978/978 587/587
f 978/978 979/979 587/587
f 585/585 592/592 980/980
f 980/980 592/592 981/981
f 981/981 592/592 982/982
f 983/983 984/984 985/985
f 984/984 978/978 985/985
f 985/985 978/978 986/986
f 987/987 583/583 988/988
f 583/583 580/580 988/988
f 584/584 588/588 590/590
f 588/588 989/989 990/990
f 586/586 989/989 588/588
f 590/590 991/991 589/589
f 991/991 992/992 589/589
f 588/588 991/991 590/590
f 584/584 591/591 588/588
f 588/588 990/990 991/991
