mtllib acce628.mtl
o acce628
v -0.62316 -0.60660 2.67138 0.000 0.000 0.000
v -0.55242 -0.64746 2.67138 0.000 0.000 0.000
v -0.79686 -0.90738 3.20274 0.000 0.000 0.000
v -0.41886 -0.25272 2.58966 0.000 0.000 0.000
v -0.69408 -0.56574 2.67138 0.000 0.000 0.000
v -0.44586 -0.36270 1.98702 0.000 0.000 0.000
v -0.50580 -0.40320 1.92330 0.000 0.000 0.000
v -0.45216 -0.31014 1.97442 0.000 0.000 0.000
v -0.42444 -0.26226 2.09736 0.000 0.000 0.000
v -0.43596 -0.28242 2.15892 0.000 0.000 0.000
v -0.50076 -0.33120 1.98702 0.000 0.000 0.000
v -0.49698 -0.38790 2.00466 0.000 0.000 0.000
v -0.44586 -0.36270 1.98702 0.000 0.000 0.000
v -0.47790 -0.35496 2.11356 0.000 0.000 0.000
v -0.43596 -0.28242 2.15892 0.000 0.000 0.000
v -0.50076 -0.33120 1.98702 0.000 0.000 0.000
v -0.49644 -0.45936 2.01906 0.000 0.000 0.000
v -0.55440 -0.48744 1.95192 0.000 0.000 0.000
v -0.47682 -0.35298 2.19582 0.000 0.000 0.000
v -0.55926 -0.42318 2.01906 0.000 0.000 0.000
v -0.55836 -0.49410 2.03526 0.000 0.000 0.000
v -0.49644 -0.45936 2.01906 0.000 0.000 0.000
v -0.52128 -0.43002 2.15442 0.000 0.000 0.000
v -0.54018 -0.54630 2.05992 0.000 0.000 0.000
v -0.60300 -0.57150 1.99782 0.000 0.000 0.000
v -0.52020 -0.42822 2.24694 0.000 0.000 0.000
v -0.61254 -0.50454 2.05992 0.000 0.000 0.000
v -0.47682 -0.35298 2.19582 0.000 0.000 0.000
v -0.55926 -0.42318 2.01906 0.000 0.000 0.000
v -0.60174 -0.56934 2.08638 0.000 0.000 0.000
v -0.54018 -0.54630 2.05992 0.000 0.000 0.000
v -0.56214 -0.50094 2.21058 0.000 0.000 0.000
v -0.52020 -0.42822 2.24694 0.000 0.000 0.000
v -0.61254 -0.50454 2.05992 0.000 0.000 0.000
v -0.58608 -0.63414 2.11968 0.000 0.000 0.000
v -0.65682 -0.66474 2.05920 0.000 0.000 0.000
v -0.56106 -0.49896 2.29806 0.000 0.000 0.000
v -0.66564 -0.58824 2.11968 0.000 0.000 0.000
v -0.65412 -0.66006 2.15802 0.000 0.000 0.000
v -0.58608 -0.63414 2.11968 0.000 0.000 0.000
v -0.61362 -0.58986 2.26944 0.000 0.000 0.000
v -0.56106 -0.49896 2.29806 0.000 0.000 0.000
v -0.66564 -0.58824 2.11968 0.000 0.000 0.000
v -0.72738 -0.78696 2.15514 0.000 0.000 0.000
v -0.62568 -0.72486 2.24118 0.000 0.000 0.000
v -0.56934 -0.51318 2.39148 0.000 0.000 0.000
v -0.57600 -0.56160 2.41344 0.000 0.000 0.000
v -0.72450 -0.66798 2.24118 0.000 0.000 0.000
v -0.60786 -0.54324 2.41344 0.000 0.000 0.000
v -0.70326 -0.74538 2.32434 0.000 0.000 0.000
v -0.62568 -0.72486 2.24118 0.000 0.000 0.000
v -0.57600 -0.56160 2.41344 0.000 0.000 0.000
v -0.62622 -0.61182 2.44440 0.000 0.000 0.000
v -0.72450 -0.66798 2.24118 0.000 0.000 0.000
v -0.60786 -0.54324 2.41344 0.000 0.000 0.000
v -0.43650 -0.32994 2.17224 0.000 0.000 0.000
v -0.47790 -0.35496 2.11356 0.000 0.000 0.000
v -0.43596 -0.28242 2.15892 0.000 0.000 0.000
v -0.42426 -0.26208 2.23398 0.000 0.000 0.000
v -0.43290 -0.27684 2.26836 0.000 0.000 0.000
v -0.47700 -0.30672 2.17224 0.000 0.000 0.000
v -0.47682 -0.35298 2.19582 0.000 0.000 0.000
v -0.43650 -0.32994 2.17224 0.000 0.000 0.000
v -0.43290 -0.27684 2.26836 0.000 0.000 0.000
v -0.45270 -0.31122 2.29860 0.000 0.000 0.000
v -0.47700 -0.30672 2.17224 0.000 0.000 0.000
v -0.48006 -0.40518 2.22336 0.000 0.000 0.000
v -0.52128 -0.43002 2.15442 0.000 0.000 0.000
v -0.47124 -0.34326 2.31948 0.000 0.000 0.000
v -0.52056 -0.38178 2.22336 0.000 0.000 0.000
v -0.52020 -0.42822 2.24694 0.000 0.000 0.000
v -0.48006 -0.40518 2.22336 0.000 0.000 0.000
v -0.47124 -0.34326 2.31948 0.000 0.000 0.000
v -0.49068 -0.37710 2.33118 0.000 0.000 0.000
v -0.51462 -0.41850 2.35008 0.000 0.000 0.000
v -0.52092 -0.47610 2.26944 0.000 0.000 0.000
v -0.56214 -0.50094 2.21058 0.000 0.000 0.000
v -0.56142 -0.45270 2.26944 0.000 0.000 0.000
v -0.52056 -0.38178 2.22336 0.000 0.000 0.000
v -0.56106 -0.49896 2.29806 0.000 0.000 0.000
v -0.52092 -0.47610 2.26944 0.000 0.000 0.000
v -0.53208 -0.44874 2.35764 0.000 0.000 0.000
v -0.55494 -0.48834 2.37780 0.000 0.000 0.000
v -0.55350 -0.53262 2.32038 0.000 0.000 0.000
v -0.61362 -0.58986 2.26944 0.000 0.000 0.000
v -0.59400 -0.50922 2.32038 0.000 0.000 0.000
v -0.51462 -0.41850 2.35008 0.000 0.000 0.000
v -0.56142 -0.45270 2.26944 0.000 0.000 0.000
v -0.58716 -0.54414 2.34252 0.000 0.000 0.000
v -0.55350 -0.53262 2.32038 0.000 0.000 0.000
v -0.55494 -0.48834 2.37780 0.000 0.000 0.000
v -0.56934 -0.51318 2.39148 0.000 0.000 0.000
v -0.59400 -0.50922 2.32038 0.000 0.000 0.000
v -0.63522 -0.62748 2.45286 0.000 0.000 0.000
v -0.49050 -0.48978 2.43306 0.000 0.000 0.000
v -0.53694 -0.45720 2.49300 0.000 0.000 0.000
v -0.58842 -0.43308 2.43306 0.000 0.000 0.000
v -0.50940 -0.48510 2.36592 0.000 0.000 0.000
v -0.49050 -0.48978 2.43306 0.000 0.000 0.000
v -0.58842 -0.43308 2.43306 0.000 0.000 0.000
v -0.57492 -0.44730 2.36592 0.000 0.000 0.000
v -0.41724 -0.30600 2.27682 0.000 0.000 0.000
v -0.47628 -0.35208 2.20590 0.000 0.000 0.000
v -0.45270 -0.31122 2.29860 0.000 0.000 0.000
v -0.46602 -0.27792 2.27682 0.000 0.000 0.000
v -0.42876 -0.26964 2.25252 0.000 0.000 0.000
v -0.41724 -0.30600 2.27682 0.000 0.000 0.000
v -0.46602 -0.27792 2.27682 0.000 0.000 0.000
v -0.43020 -0.34578 2.34432 0.000 0.000 0.000
v -0.53496 -0.45378 2.30814 0.000 0.000 0.000
v -0.49392 -0.30906 2.34432 0.000 0.000 0.000
v -0.43020 -0.34578 2.34432 0.000 0.000 0.000
v -0.46962 -0.34056 2.39508 0.000 0.000 0.000
v -0.49392 -0.30906 2.34432 0.000 0.000 0.000
v -0.53136 -0.44730 2.87586 0.000 0.000 0.000
v -0.50004 -0.55674 2.79702 0.000 0.000 0.000
v -0.79686 -0.90738 3.20274 0.000 0.000 0.000
v -0.64170 -0.47502 2.79702 0.000 0.000 0.000
v -0.41886 -0.25272 2.58966 0.000 0.000 0.000
v -0.50004 -0.55674 2.79702 0.000 0.000 0.000
v -0.55242 -0.64746 2.67138 0.000 0.000 0.000
v -0.69408 -0.56574 2.67138 0.000 0.000 0.000
v -0.64170 -0.47502 2.79702 0.000 0.000 0.000
v -0.53694 -0.45720 2.49300 0.000 0.000 0.000
v -0.43722 -0.36918 2.44530 0.000 0.000 0.000
v -0.47520 -0.35010 2.49264 0.000 0.000 0.000
v -0.49050 -0.48978 2.43306 0.000 0.000 0.000
v -0.51066 -0.32670 2.44530 0.000 0.000 0.000
v -0.58842 -0.43308 2.43306 0.000 0.000 0.000
v -0.49050 -0.48978 2.43306 0.000 0.000 0.000
v -0.50940 -0.48510 2.36592 0.000 0.000 0.000
v -0.43722 -0.36918 2.44530 0.000 0.000 0.000
v -0.44154 -0.35676 2.39508 0.000 0.000 0.000
v -0.51066 -0.32670 2.44530 0.000 0.000 0.000
v -0.49770 -0.32436 2.39508 0.000 0.000 0.000
v -0.58842 -0.43308 2.43306 0.000 0.000 0.000
v -0.57492 -0.44730 2.36592 0.000 0.000 0.000
v -1.26648 -1.72080 3.28446 0.000 0.000 0.000
v -0.90576 -1.29168 3.05154 0.000 0.000 0.000
v -0.98046 -1.22526 3.17988 0.000 0.000 0.000
v -0.72540 -0.78354 2.98314 0.000 0.000 0.000
v -0.66114 -0.75114 2.89224 0.000 0.000 0.000
v -1.07532 -1.19376 3.05154 0.000 0.000 0.000
v -0.72954 -0.71172 2.89224 0.000 0.000 0.000
v -1.00098 -1.26072 2.91132 0.000 0.000 0.000
v -0.90576 -1.29168 3.05154 0.000 0.000 0.000
v -0.66114 -0.75114 2.89224 0.000 0.000 0.000
v -0.66150 -0.67302 2.78892 0.000 0.000 0.000
v -0.87984 -1.24794 2.78352 0.000 0.000 0.000
v -0.58878 -0.66960 2.73078 0.000 0.000 0.000
v -1.10304 -1.43766 2.81448 0.000 0.000 0.000
v -1.05030 -1.14948 2.78352 0.000 0.000 0.000
v -0.69498 -0.60822 2.73078 0.000 0.000 0.000
v -0.72954 -0.71172 2.89224 0.000 0.000 0.000
v -1.07532 -1.19376 3.05154 0.000 0.000 0.000
v -0.92934 -1.13688 2.63052 0.000 0.000 0.000
v -0.87984 -1.24794 2.78352 0.000 0.000 0.000
v -0.58878 -0.66960 2.73078 0.000 0.000 0.000
v -0.62334 -0.60660 2.67138 0.000 0.000 0.000
v -1.05030 -1.14948 2.78352 0.000 0.000 0.000
v -0.69498 -0.60822 2.73078 0.000 0.000 0.000
v -0.83754 -1.13076 2.52828 0.000 0.000 0.000
v -0.65412 -0.66006 2.66724 0.000 0.000 0.000
v -0.63000 -0.63522 2.63880 0.000 0.000 0.000
v -1.01628 -1.27818 2.49372 0.000 0.000 0.000
v -0.97002 -1.05426 2.52810 0.000 0.000 0.000
v -0.64458 -0.62676 2.63880 0.000 0.000 0.000
v -0.87318 -1.03950 2.40588 0.000 0.000 0.000
v -0.83754 -1.13076 2.52828 0.000 0.000 0.000
v -0.63000 -0.63522 2.63880 0.000 0.000 0.000
v -0.62046 -0.60192 2.61018 0.000 0.000 0.000
v -0.56430 -0.57564 2.56734 0.000 0.000 0.000
v -0.77400 -0.99036 2.31372 0.000 0.000 0.000
v -0.90378 -1.11060 2.25018 0.000 0.000 0.000
v -0.88020 -0.92916 2.31372 0.000 0.000 0.000
v -0.62604 -0.54000 2.56734 0.000 0.000 0.000
v -0.97002 -1.05426 2.52810 0.000 0.000 0.000
v -0.64458 -0.62676 2.63880 0.000 0.000 0.000
v -0.77400 -0.99036 2.31372 0.000 0.000 0.000
v -0.76266 -0.84798 2.23218 0.000 0.000 0.000
v -0.56430 -0.57564 2.56734 0.000 0.000 0.000
v -0.57222 -0.51822 2.52846 0.000 0.000 0.000
v -0.88020 -0.92916 2.31372 0.000 0.000 0.000
v -0.62604 -0.54000 2.56734 0.000 0.000 0.000
v -0.40500 -0.22860 2.36556 0.000 0.000 0.000
v -0.41724 -0.30600 2.27682 0.000 0.000 0.000
v -0.45270 -0.31122 2.29860 0.000 0.000 0.000
v -0.46602 -0.27792 2.27682 0.000 0.000 0.000
v -0.42876 -0.26964 2.25252 0.000 0.000 0.000
v -0.41724 -0.30600 2.27682 0.000 0.000 0.000
v -0.46602 -0.27792 2.27682 0.000 0.000 0.000
v -0.41022 -0.23742 2.42190 0.000 0.000 0.000
v -0.43020 -0.34578 2.34432 0.000 0.000 0.000
v -0.49392 -0.30906 2.34432 0.000 0.000 0.000
v -0.43020 -0.34578 2.34432 0.000 0.000 0.000
v -0.46962 -0.34056 2.39508 0.000 0.000 0.000
v -0.49392 -0.30906 2.34432 0.000 0.000 0.000
v -0.47520 -0.35010 2.49264 0.000 0.000 0.000
v -0.43722 -0.36918 2.44530 0.000 0.000 0.000
v -0.42390 -0.26136 2.47140 0.000 0.000 0.000
v -0.51066 -0.32670 2.44530 0.000 0.000 0.000
v -0.43722 -0.36918 2.44530 0.000 0.000 0.000
v -0.44154 -0.35676 2.39508 0.000 0.000 0.000
v -0.49770 -0.32436 2.39508 0.000 0.000 0.000
v -0.51066 -0.32670 2.44530 0.000 0.000 0.000
v -0.63522 -0.62748 2.45286 0.000 0.000 0.000
v -0.50940 -0.48510 2.36592 0.000 0.000 0.000
v -0.57492 -0.44730 2.36592 0.000 0.000 0.000
v -0.57492 -0.44730 2.36592 0.000 0.000 0.000
v -0.50940 -0.48510 2.36592 0.000 0.000 0.000
v -0.49770 -0.32436 2.39508 0.000 0.000 0.000
v -0.44154 -0.35676 2.39508 0.000 0.000 0.000
v -0.42390 -0.26136 2.47140 0.000 0.000 0.000
v -0.65412 -0.66006 2.66724 0.000 0.000 0.000
v -0.49770 -0.50220 2.58426 0.000 0.000 0.000
v -0.53136 -0.44730 2.63052 0.000 0.000 0.000
v -0.59562 -0.44568 2.58426 0.000 0.000 0.000
v -0.52092 -0.54774 2.52846 0.000 0.000 0.000
v -0.49770 -0.50220 2.58426 0.000 0.000 0.000
v -0.59562 -0.44568 2.58426 0.000 0.000 0.000
v -0.62334 -0.48852 2.52846 0.000 0.000 0.000
v -0.53136 -0.44730 2.63052 0.000 0.000 0.000
v -0.44370 -0.38034 2.54826 0.000 0.000 0.000
v -0.48024 -0.35892 2.58966 0.000 0.000 0.000
v -0.49770 -0.50220 2.58426 0.000 0.000 0.000
v -0.51714 -0.33804 2.54826 0.000 0.000 0.000
v -0.59562 -0.44568 2.58426 0.000 0.000 0.000
v -0.49770 -0.50220 2.58426 0.000 0.000 0.000
v -0.52092 -0.54774 2.52846 0.000 0.000 0.000
v -0.44370 -0.38034 2.54826 0.000 0.000 0.000
v -0.44838 -0.36558 2.49264 0.000 0.000 0.000
v -0.51714 -0.33804 2.54826 0.000 0.000 0.000
v -0.62334 -0.48852 2.52846 0.000 0.000 0.000
v -0.59562 -0.44568 2.58426 0.000 0.000 0.000
v -0.50184 -0.33462 2.49264 0.000 0.000 0.000
v -0.48024 -0.35892 2.58966 0.000 0.000 0.000
v -0.44370 -0.38034 2.54826 0.000 0.000 0.000
v -0.40878 -0.23508 2.54880 0.000 0.000 0.000
v -0.51714 -0.33804 2.54826 0.000 0.000 0.000
v -0.44370 -0.38034 2.54826 0.000 0.000 0.000
v -0.44838 -0.36558 2.49264 0.000 0.000 0.000
v -0.50184 -0.33462 2.49264 0.000 0.000 0.000
v -0.51714 -0.33804 2.54826 0.000 0.000 0.000
v -0.65412 -0.66006 2.66724 0.000 0.000 0.000
v -0.52092 -0.54774 2.52846 0.000 0.000 0.000
v -0.62334 -0.48852 2.52846 0.000 0.000 0.000
v -0.50184 -0.33462 2.49264 0.000 0.000 0.000
v -0.44838 -0.36558 2.49264 0.000 0.000 0.000
v -0.40878 -0.23508 2.54880 0.000 0.000 0.000
v -0.52092 -0.54774 2.52846 0.000 0.000 0.000
v -0.62334 -0.48852 2.52846 0.000 0.000 0.000
v -0.79686 0.90738 3.20274 0.000 0.000 0.000
v -0.55242 0.64746 2.67138 0.000 0.000 0.000
v -0.62316 0.60660 2.67138 0.000 0.000 0.000
v -0.41886 0.25272 2.58966 0.000 0.000 0.000
v -0.69408 0.56574 2.67138 0.000 0.000 0.000
v -0.45216 0.31014 1.97442 0.000 0.000 0.000
v -0.50580 0.40320 1.92330 0.000 0.000 0.000
v -0.44586 0.36270 1.98702 0.000 0.000 0.000
v -0.42444 0.26226 2.09736 0.000 0.000 0.000
v -0.43596 0.28242 2.15892 0.000 0.000 0.000
v -0.50076 0.33120 1.98702 0.000 0.000 0.000
v -0.44586 0.36270 1.98702 0.000 0.000 0.000
v -0.49698 0.38790 2.00466 0.000 0.000 0.000
v -0.47790 0.35496 2.11356 0.000 0.000 0.000
v -0.43596 0.28242 2.15892 0.000 0.000 0.000
v -0.50076 0.33120 1.98702 0.000 0.000 0.000
v -0.49644 0.45936 2.01906 0.000 0.000 0.000
v -0.55440 0.48744 1.95192 0.000 0.000 0.000
v -0.47682 0.35298 2.19582 0.000 0.000 0.000
v -0.55926 0.42318 2.01906 0.000 0.000 0.000
v -0.49644 0.45936 2.01906 0.000 0.000 0.000
v -0.55836 0.49410 2.03526 0.000 0.000 0.000
v -0.52128 0.43002 2.15442 0.000 0.000 0.000
v -0.54018 0.54630 2.05992 0.000 0.000 0.000
v -0.60300 0.57150 1.99782 0.000 0.000 0.000
v -0.52020 0.42822 2.24694 0.000 0.000 0.000
v -0.61254 0.50454 2.05992 0.000 0.000 0.000
v -0.47682 0.35298 2.19582 0.000 0.000 0.000
v -0.55926 0.42318 2.01906 0.000 0.000 0.000
v -0.54018 0.54630 2.05992 0.000 0.000 0.000
v -0.60174 0.56934 2.08638 0.000 0.000 0.000
v -0.56214 0.50094 2.21058 0.000 0.000 0.000
v -0.52020 0.42822 2.24694 0.000 0.000 0.000
v -0.61254 0.50454 2.05992 0.000 0.000 0.000
v -0.58608 0.63414 2.11968 0.000 0.000 0.000
v -0.65682 0.66474 2.05920 0.000 0.000 0.000
v -0.56106 0.49896 2.29806 0.000 0.000 0.000
v -0.66564 0.58824 2.11968 0.000 0.000 0.000
v -0.58608 0.63414 2.11968 0.000 0.000 0.000
v -0.65412 0.66006 2.15802 0.000 0.000 0.000
v -0.61362 0.58986 2.26944 0.000 0.000 0.000
v -0.56106 0.49896 2.29806 0.000 0.000 0.000
v -0.66564 0.58824 2.11968 0.000 0.000 0.000
v -0.62568 0.72486 2.24118 0.000 0.000 0.000
v -0.72738 0.78696 2.15514 0.000 0.000 0.000
v -0.56934 0.51318 2.39148 0.000 0.000 0.000
v -0.57600 0.56160 2.41344 0.000 0.000 0.000
v -0.72450 0.66798 2.24118 0.000 0.000 0.000
v -0.60786 0.54324 2.41344 0.000 0.000 0.000
v -0.62568 0.72486 2.24118 0.000 0.000 0.000
v -0.70326 0.74538 2.32434 0.000 0.000 0.000
v -0.57600 0.56160 2.41344 0.000 0.000 0.000
v -0.62622 0.61182 2.44440 0.000 0.000 0.000
v -0.72450 0.66798 2.24118 0.000 0.000 0.000
v -0.60786 0.54324 2.41344 0.000 0.000 0.000
v -0.43596 0.28242 2.15892 0.000 0.000 0.000
v -0.47790 0.35496 2.11356 0.000 0.000 0.000
v -0.43650 0.32994 2.17224 0.000 0.000 0.000
v -0.42426 0.26208 2.23398 0.000 0.000 0.000
v -0.43290 0.27684 2.26836 0.000 0.000 0.000
v -0.47700 0.30672 2.17224 0.000 0.000 0.000
v -0.43650 0.32994 2.17224 0.000 0.000 0.000
v -0.47682 0.35298 2.19582 0.000 0.000 0.000
v -0.43290 0.27684 2.26836 0.000 0.000 0.000
v -0.45270 0.31122 2.29860 0.000 0.000 0.000
v -0.47700 0.30672 2.17224 0.000 0.000 0.000
v -0.48006 0.40518 2.22336 0.000 0.000 0.000
v -0.52128 0.43002 2.15442 0.000 0.000 0.000
v -0.47124 0.34326 2.31948 0.000 0.000 0.000
v -0.52056 0.38178 2.22336 0.000 0.000 0.000
v -0.48006 0.40518 2.22336 0.000 0.000 0.000
v -0.52020 0.42822 2.24694 0.000 0.000 0.000
v -0.47124 0.34326 2.31948 0.000 0.000 0.000
v -0.49068 0.37710 2.33118 0.000 0.000 0.000
v -0.51462 0.41850 2.35008 0.000 0.000 0.000
v -0.52092 0.47610 2.26944 0.000 0.000 0.000
v -0.56214 0.50094 2.21058 0.000 0.000 0.000
v -0.56142 0.45270 2.26944 0.000 0.000 0.000
v -0.52056 0.38178 2.22336 0.000 0.000 0.000
v -0.52092 0.47610 2.26944 0.000 0.000 0.000
v -0.56106 0.49896 2.29806 0.000 0.000 0.000
v -0.53208 0.44874 2.35764 0.000 0.000 0.000
v -0.55494 0.48834 2.37780 0.000 0.000 0.000
v -0.55350 0.53262 2.32038 0.000 0.000 0.000
v -0.61362 0.58986 2.26944 0.000 0.000 0.000
v -0.59400 0.50922 2.32038 0.000 0.000 0.000
v -0.51462 0.41850 2.35008 0.000 0.000 0.000
v -0.56142 0.45270 2.26944 0.000 0.000 0.000
v -0.55350 0.53262 2.32038 0.000 0.000 0.000
v -0.58716 0.54414 2.34252 0.000 0.000 0.000
v -0.55494 0.48834 2.37780 0.000 0.000 0.000
v -0.56934 0.51318 2.39148 0.000 0.000 0.000
v -0.59400 0.50922 2.32038 0.000 0.000 0.000
v -0.53694 0.45720 2.49300 0.000 0.000 0.000
v -0.49050 0.48978 2.43306 0.000 0.000 0.000
v -0.63522 0.62748 2.45286 0.000 0.000 0.000
v -0.58842 0.43308 2.43306 0.000 0.000 0.000
v -0.49050 0.48978 2.43306 0.000 0.000 0.000
v -0.50940 0.48510 2.36592 0.000 0.000 0.000
v -0.57492 0.44730 2.36592 0.000 0.000 0.000
v -0.58842 0.43308 2.43306 0.000 0.000 0.000
v -0.45270 0.31122 2.29860 0.000 0.000 0.000
v -0.47628 0.35208 2.20590 0.000 0.000 0.000
v -0.41724 0.30600 2.27682 0.000 0.000 0.000
v -0.46602 0.27792 2.27682 0.000 0.000 0.000
v -0.41724 0.30600 2.27682 0.000 0.000 0.000
v -0.42876 0.26964 2.25252 0.000 0.000 0.000
v -0.46602 0.27792 2.27682 0.000 0.000 0.000
v -0.53496 0.45378 2.30814 0.000 0.000 0.000
v -0.43020 0.34578 2.34432 0.000 0.000 0.000
v -0.49392 0.30906 2.34432 0.000 0.000 0.000
v -0.46962 0.34056 2.39508 0.000 0.000 0.000
v -0.43020 0.34578 2.34432 0.000 0.000 0.000
v -0.49392 0.30906 2.34432 0.000 0.000 0.000
v -0.79686 0.90738 3.20274 0.000 0.000 0.000
v -0.50004 0.55674 2.79702 0.000 0.000 0.000
v -0.53136 0.44730 2.87586 0.000 0.000 0.000
v -0.64170 0.47502 2.79702 0.000 0.000 0.000
v -0.41886 0.25272 2.58966 0.000 0.000 0.000
v -0.55242 0.64746 2.67138 0.000 0.000 0.000
v -0.50004 0.55674 2.79702 0.000 0.000 0.000
v -0.64170 0.47502 2.79702 0.000 0.000 0.000
v -0.69408 0.56574 2.67138 0.000 0.000 0.000
v -0.47520 0.35010 2.49264 0.000 0.000 0.000
v -0.43722 0.36918 2.44530 0.000 0.000 0.000
v -0.53694 0.45720 2.49300 0.000 0.000 0.000
v -0.49050 0.48978 2.43306 0.000 0.000 0.000
v -0.51066 0.32670 2.44530 0.000 0.000 0.000
v -0.58842 0.43308 2.43306 0.000 0.000 0.000
v -0.43722 0.36918 2.44530 0.000 0.000 0.000
v -0.50940 0.48510 2.36592 0.000 0.000 0.000
v -0.49050 0.48978 2.43306 0.000 0.000 0.000
v -0.44154 0.35676 2.39508 0.000 0.000 0.000
v -0.58842 0.43308 2.43306 0.000 0.000 0.000
v -0.49770 0.32436 2.39508 0.000 0.000 0.000
v -0.51066 0.32670 2.44530 0.000 0.000 0.000
v -0.57492 0.44730 2.36592 0.000 0.000 0.000
v -0.98046 1.22526 3.17988 0.000 0.000 0.000
v -0.90576 1.29168 3.05154 0.000 0.000 0.000
v -1.26648 1.72080 3.28446 0.000 0.000 0.000
v -0.72540 0.78354 2.98314 0.000 0.000 0.000
v -0.66114 0.75114 2.89224 0.000 0.000 0.000
v -1.07532 1.19376 3.05154 0.000 0.000 0.000
v -0.72954 0.71172 2.89224 0.000 0.000 0.000
v -0.90576 1.29168 3.05154 0.000 0.000 0.000
v -1.00098 1.26072 2.91132 0.000 0.000 0.000
v -0.66114 0.75114 2.89224 0.000 0.000 0.000
v -0.66150 0.67302 2.78892 0.000 0.000 0.000
v -0.87984 1.24794 2.78352 0.000 0.000 0.000
v -0.58878 0.66960 2.73078 0.000 0.000 0.000
v -1.10304 1.43766 2.81448 0.000 0.000 0.000
v -1.05030 1.14948 2.78352 0.000 0.000 0.000
v -0.69498 0.60822 2.73078 0.000 0.000 0.000
v -0.72954 0.71172 2.89224 0.000 0.000 0.000
v -1.07532 1.19376 3.05154 0.000 0.000 0.000
v -0.87984 1.24794 2.78352 0.000 0.000 0.000
v -0.92934 1.13688 2.63052 0.000 0.000 0.000
v -0.58878 0.66960 2.73078 0.000 0.000 0.000
v -0.62334 0.60660 2.67138 0.000 0.000 0.000
v -1.05030 1.14948 2.78352 0.000 0.000 0.000
v -0.69498 0.60822 2.73078 0.000 0.000 0.000
v -0.65412 0.66006 2.66724 0.000 0.000 0.000
v -0.83754 1.13076 2.52828 0.000 0.000 0.000
v -0.63000 0.63522 2.63880 0.000 0.000 0.000
v -1.01628 1.27818 2.49372 0.000 0.000 0.000
v -0.97002 1.05426 2.52810 0.000 0.000 0.000
v -0.64458 0.62676 2.63880 0.000 0.000 0.000
v -0.83754 1.13076 2.52828 0.000 0.000 0.000
v -0.87318 1.03950 2.40588 0.000 0.000 0.000
v -0.63000 0.63522 2.63880 0.000 0.000 0.000
v -0.62046 0.60192 2.61018 0.000 0.000 0.000
v -0.56430 0.57564 2.56734 0.000 0.000 0.000
v -0.77400 0.99036 2.31372 0.000 0.000 0.000
v -0.90378 1.11060 2.25018 0.000 0.000 0.000
v -0.88020 0.92916 2.31372 0.000 0.000 0.000
v -0.62604 0.54000 2.56734 0.000 0.000 0.000
v -0.97002 1.05426 2.52810 0.000 0.000 0.000
v -0.64458 0.62676 2.63880 0.000 0.000 0.000
v -0.76266 0.84798 2.23218 0.000 0.000 0.000
v -0.77400 0.99036 2.31372 0.000 0.000 0.000
v -0.56430 0.57564 2.56734 0.000 0.000 0.000
v -0.57222 0.51822 2.52846 0.000 0.000 0.000
v -0.88020 0.92916 2.31372 0.000 0.000 0.000
v -0.62604 0.54000 2.56734 0.000 0.000 0.000
v -0.45270 0.31122 2.29860 0.000 0.000 0.000
v -0.41724 0.30600 2.27682 0.000 0.000 0.000
v -0.40500 0.22860 2.36556 0.000 0.000 0.000
v -0.46602 0.27792 2.27682 0.000 0.000 0.000
v -0.41724 0.30600 2.27682 0.000 0.000 0.000
v -0.42876 0.26964 2.25252 0.000 0.000 0.000
v -0.46602 0.27792 2.27682 0.000 0.000 0.000
v -0.43020 0.34578 2.34432 0.000 0.000 0.000
v -0.41022 0.23742 2.42190 0.000 0.000 0.000
v -0.49392 0.30906 2.34432 0.000 0.000 0.000
v -0.46962 0.34056 2.39508 0.000 0.000 0.000
v -0.43020 0.34578 2.34432 0.000 0.000 0.000
v -0.49392 0.30906 2.34432 0.000 0.000 0.000
v -0.42390 0.26136 2.47140 0.000 0.000 0.000
v -0.43722 0.36918 2.44530 0.000 0.000 0.000
v -0.47520 0.35010 2.49264 0.000 0.000 0.000
v -0.51066 0.32670 2.44530 0.000 0.000 0.000
v -0.44154 0.35676 2.39508 0.000 0.000 0.000
v -0.43722 0.36918 2.44530 0.000 0.000 0.000
v -0.51066 0.32670 2.44530 0.000 0.000 0.000
v -0.49770 0.32436 2.39508 0.000 0.000 0.000
v -0.57492 0.44730 2.36592 0.000 0.000 0.000
v -0.50940 0.48510 2.36592 0.000 0.000 0.000
v -0.63522 0.62748 2.45286 0.000 0.000 0.000
v -0.49770 0.32436 2.39508 0.000 0.000 0.000
v -0.50940 0.48510 2.36592 0.000 0.000 0.000
v -0.57492 0.44730 2.36592 0.000 0.000 0.000
v -0.44154 0.35676 2.39508 0.000 0.000 0.000
v -0.42390 0.26136 2.47140 0.000 0.000 0.000
v -0.53136 0.44730 2.63052 0.000 0.000 0.000
v -0.49770 0.50220 2.58426 0.000 0.000 0.000
v -0.65412 0.66006 2.66724 0.000 0.000 0.000
v -0.59562 0.44568 2.58426 0.000 0.000 0.000
v -0.49770 0.50220 2.58426 0.000 0.000 0.000
v -0.52092 0.54774 2.52846 0.000 0.000 0.000
v -0.62334 0.48852 2.52846 0.000 0.000 0.000
v -0.59562 0.44568 2.58426 0.000 0.000 0.000
v -0.48024 0.35892 2.58966 0.000 0.000 0.000
v -0.44370 0.38034 2.54826 0.000 0.000 0.000
v -0.53136 0.44730 2.63052 0.000 0.000 0.000
v -0.49770 0.50220 2.58426 0.000 0.000 0.000
v -0.51714 0.33804 2.54826 0.000 0.000 0.000
v -0.59562 0.44568 2.58426 0.000 0.000 0.000
v -0.44370 0.38034 2.54826 0.000 0.000 0.000
v -0.52092 0.54774 2.52846 0.000 0.000 0.000
v -0.49770 0.50220 2.58426 0.000 0.000 0.000
v -0.44838 0.36558 2.49264 0.000 0.000 0.000
v -0.59562 0.44568 2.58426 0.000 0.000 0.000
v -0.62334 0.48852 2.52846 0.000 0.000 0.000
v -0.51714 0.33804 2.54826 0.000 0.000 0.000
v -0.50184 0.33462 2.49264 0.000 0.000 0.000
v -0.40878 0.23508 2.54880 0.000 0.000 0.000
v -0.44370 0.38034 2.54826 0.000 0.000 0.000
v -0.48024 0.35892 2.58966 0.000 0.000 0.000
v -0.51714 0.33804 2.54826 0.000 0.000 0.000
v -0.44838 0.36558 2.49264 0.000 0.000 0.000
v -0.44370 0.38034 2.54826 0.000 0.000 0.000
v -0.51714 0.33804 2.54826 0.000 0.000 0.000
v -0.50184 0.33462 2.49264 0.000 0.000 0.000
v -0.62334 0.48852 2.52846 0.000 0.000 0.000
v -0.52092 0.54774 2.52846 0.000 0.000 0.000
v -0.65412 0.66006 2.66724 0.000 0.000 0.000
v -0.40878 0.23508 2.54880 0.000 0.000 0.000
v -0.44838 0.36558 2.49264 0.000 0.000 0.000
v -0.50184 0.33462 2.49264 0.000 0.000 0.000
v -0.52092 0.54774 2.52846 0.000 0.000 0.000
v -0.62334 0.48852 2.52846 0.000 0.000 0.000
v -1.10250 -1.43802 2.11194 0.000 0.000 0.000
v -0.76464 -0.85284 2.12688 0.000 0.000 0.000
v -0.85806 -1.01466 2.29212 0.000 0.000 0.000
v -0.59454 -0.55818 2.56734 0.000 0.000 0.000
v -0.57150 -0.51858 2.52846 0.000 0.000 0.000
v -0.61992 -0.60228 2.61018 0.000 0.000 0.000
v -0.92844 -1.13670 2.51352 0.000 0.000 0.000
v -0.51264 -0.41562 2.94372 0.000 0.000 0.000
v -0.35082 -0.13536 2.49570 0.000 0.000 0.000
v -0.56970 -0.51426 2.79414 0.000 0.000 0.000
v -0.98514 -1.23408 3.62142 0.000 0.000 0.000
v -0.64512 -0.64494 2.61342 0.000 0.000 0.000
v -1.65924 -2.40948 3.67020 0.000 0.000 0.000
v -0.99198 -1.25370 3.06378 0.000 0.000 0.000
v -0.97362 -1.22202 3.45096 0.000 0.000 0.000
v -0.77022 -0.86976 3.17376 0.000 0.000 0.000
v -0.71514 -0.77436 2.96658 0.000 0.000 0.000
v -1.18620 -1.59048 2.85444 0.000 0.000 0.000
v -0.65340 -0.66744 2.77740 0.000 0.000 0.000
v -0.83898 -0.99864 1.99494 0.000 0.000 0.000
v -0.77382 -0.88596 1.97442 0.000 0.000 0.000
v -0.68436 -0.73098 2.09394 0.000 0.000 0.000
v -0.79470 -0.92232 1.89396 0.000 0.000 0.000
v -0.85122 -1.02006 1.92078 0.000 0.000 0.000
v -0.99954 -1.27692 1.68588 0.000 0.000 0.000
v -0.72144 -0.79524 1.85904 0.000 0.000 0.000
v -0.72144 -0.79524 1.95786 0.000 0.000 0.000
v -0.67914 -0.70416 1.92564 0.000 0.000 0.000
v -0.64962 -0.65268 1.86642 0.000 0.000 0.000
v -0.60264 -0.57132 1.95624 0.000 0.000 0.000
v -0.77634 -0.87210 1.56798 0.000 0.000 0.000
v -0.62820 -0.61560 1.82340 0.000 0.000 0.000
v -0.57708 -0.52704 1.89504 0.000 0.000 0.000
v -0.55926 -0.49626 1.83384 0.000 0.000 0.000
v -0.50040 -0.39438 1.99710 0.000 0.000 0.000
v -0.62298 -0.60678 1.69074 0.000 0.000 0.000
v -0.54126 -0.46512 1.77246 0.000 0.000 0.000
v -1.38060 -1.91970 2.83194 0.000 0.000 0.000
v -1.01790 -1.29168 2.54322 0.000 0.000 0.000
v -1.01106 -1.27962 2.78352 0.000 0.000 0.000
v -0.64944 -0.65322 2.75688 0.000 0.000 0.000
v -0.62316 -0.60660 2.67138 0.000 0.000 0.000
v -0.68022 -0.70686 2.84796 0.000 0.000 0.000
v -1.06722 -1.37700 3.02436 0.000 0.000 0.000
v -0.63504 -0.63216 2.63880 0.000 0.000 0.000
v -0.86202 -1.02528 2.35188 0.000 0.000 0.000
v -0.61830 -0.60318 2.61018 0.000 0.000 0.000
v -0.90594 -1.10124 2.52612 0.000 0.000 0.000
v -1.27152 -1.73466 2.41794 0.000 0.000 0.000
v -0.65196 -0.66132 2.66724 0.000 0.000 0.000
v -0.96300 -1.19988 2.78352 0.000 0.000 0.000
v -0.85806 1.01466 2.29212 0.000 0.000 0.000
v -0.76464 0.85284 2.12688 0.000 0.000 0.000
v -1.10250 1.43802 2.11194 0.000 0.000 0.000
v -0.59454 0.55818 2.56734 0.000 0.000 0.000
v -0.57150 0.51858 2.52846 0.000 0.000 0.000
v -0.61992 0.60228 2.61018 0.000 0.000 0.000
v -0.92844 1.13670 2.51352 0.000 0.000 0.000
v -0.56970 0.51426 2.79414 0.000 0.000 0.000
v -0.35082 0.13536 2.49570 0.000 0.000 0.000
v -0.51264 0.41562 2.94372 0.000 0.000 0.000
v -0.98514 1.23408 3.62142 0.000 0.000 0.000
v -0.64512 0.64494 2.61342 0.000 0.000 0.000
v -0.97362 1.22202 3.45096 0.000 0.000 0.000
v -0.99198 1.25370 3.06378 0.000 0.000 0.000
v -1.65924 2.40948 3.67020 0.000 0.000 0.000
v -0.77022 0.86976 3.17376 0.000 0.000 0.000
v -0.71514 0.77436 2.96658 0.000 0.000 0.000
v -1.18620 1.59048 2.85444 0.000 0.000 0.000
v -0.65340 0.66744 2.77740 0.000 0.000 0.000
v -0.68436 0.73098 2.09394 0.000 0.000 0.000
v -0.77382 0.88596 1.97442 0.000 0.000 0.000
v -0.83898 0.99864 1.99494 0.000 0.000 0.000
v -0.79470 0.92232 1.89396 0.000 0.000 0.000
v -0.85122 1.02006 1.92078 0.000 0.000 0.000
v -0.99954 1.27692 1.68588 0.000 0.000 0.000
v -0.72144 0.79524 1.85904 0.000 0.000 0.000
v -0.72144 0.79524 1.95786 0.000 0.000 0.000
v -0.60264 0.57132 1.95624 0.000 0.000 0.000
v -0.64962 0.65268 1.86642 0.000 0.000 0.000
v -0.67914 0.70416 1.92564 0.000 0.000 0.000
v -0.77634 0.87210 1.56798 0.000 0.000 0.000
v -0.62820 0.61560 1.82340 0.000 0.000 0.000
v -0.50040 0.39438 1.99710 0.000 0.000 0.000
v -0.55926 0.49626 1.83384 0.000 0.000 0.000
v -0.57708 0.52704 1.89504 0.000 0.000 0.000
v -0.62298 0.60678 1.69074 0.000 0.000 0.000
v -0.54126 0.46512 1.77246 0.000 0.000 0.000
v -1.01106 1.27962 2.78352 0.000 0.000 0.000
v -1.01790 1.29168 2.54322 0.000 0.000 0.000
v -1.38060 1.91970 2.83194 0.000 0.000 0.000
v -0.64944 0.65322 2.75688 0.000 0.000 0.000
v -0.62316 0.60660 2.67138 0.000 0.000 0.000
v -0.68022 0.70686 2.84796 0.000 0.000 0.000
v -1.06722 1.37700 3.02436 0.000 0.000 0.000
v -0.61830 0.60318 2.61018 0.000 0.000 0.000
v -0.86202 1.02528 2.35188 0.000 0.000 0.000
v -0.63504 0.63216 2.63880 0.000 0.000 0.000
v -0.90594 1.10124 2.52612 0.000 0.000 0.000
v -1.27152 1.73466 2.41794 0.000 0.000 0.000
v -0.65196 0.66132 2.66724 0.000 0.000 0.000
v -0.96300 1.19988 2.78352 0.000 0.000 0.000
vt 0.91386 0.58646
vt 0.99393 0.58646
vt 0.99395 0.99765
vt 0.99395 0.95635
vt 0.99393 0.58646
vt 0.71130 0.53505
vt 0.80499 0.63056
vt 0.80499 0.53505
vt 0.80499 0.30841
vt 0.71130 0.30836
vt 0.71130 0.53505
vt 0.80499 0.53505
vt 0.89947 0.53505
vt 0.80499 0.30841
vt 0.89947 0.30836
vt 0.89947 0.53505
vt 0.71130 0.53506
vt 0.80499 0.63151
vt 0.71130 0.30836
vt 0.71130 0.53506
vt 0.80499 0.53507
vt 0.89947 0.53506
vt 0.80499 0.30841
vt 0.71130 0.53506
vt 0.80499 0.63172
vt 0.71130 0.30835
vt 0.71130 0.53506
vt 0.89947 0.30836
vt 0.89947 0.53506
vt 0.80499 0.53506
vt 0.89947 0.53506
vt 0.80499 0.30841
vt 0.89947 0.30835
vt 0.89947 0.53506
vt 0.71130 0.53506
vt 0.80499 0.63142
vt 0.71130 0.30835
vt 0.71130 0.53506
vt 0.80499 0.53506
vt 0.89947 0.53506
vt 0.80499 0.30841
vt 0.89947 0.30835
vt 0.89947 0.53506
vt 0.80499 0.63122
vt 0.71130 0.53504
vt 0.80499 0.30841
vt 0.71130 0.30836
vt 0.71130 0.53504
vt 0.71130 0.30836
vt 0.80499 0.53505
vt 0.89947 0.53504
vt 0.89947 0.30836
vt 0.80499 0.30841
vt 0.89947 0.53504
vt 0.89947 0.30836
vt 0.71126 0.79276
vt 0.80497 0.90746
vt 0.80497 0.79276
vt 0.80497 0.64738
vt 0.71126 0.64738
vt 0.71126 0.79276
vt 0.80497 0.79276
vt 0.89950 0.79276
vt 0.89950 0.64738
vt 0.80497 0.64738
vt 0.89950 0.79276
vt 0.71126 0.79276
vt 0.80497 0.90751
vt 0.71126 0.64738
vt 0.71126 0.79276
vt 0.80497 0.79276
vt 0.89950 0.79276
vt 0.89950 0.64738
vt 0.80497 0.64738
vt 0.71126 0.64738
vt 0.71126 0.79276
vt 0.80497 0.90743
vt 0.71126 0.79276
vt 0.89950 0.79276
vt 0.80497 0.79276
vt 0.89950 0.79276
vt 0.80497 0.64738
vt 0.71126 0.64738
vt 0.71126 0.79276
vt 0.80497 0.90748
vt 0.71126 0.79276
vt 0.89950 0.64738
vt 0.89950 0.79276
vt 0.80497 0.79276
vt 0.89950 0.79276
vt 0.89950 0.64738
vt 0.80497 0.64738
vt 0.89950 0.79276
vt 0.80497 0.99429
vt 0.89950 0.79275
vt 0.80497 0.79275
vt 0.89950 0.79275
vt 0.80497 0.79275
vt 0.71126 0.79275
vt 0.71126 0.79275
vt 0.80497 0.79275
vt 0.89950 0.79275
vt 0.80497 0.99429
vt 0.80497 0.79275
vt 0.89950 0.79275
vt 0.80497 0.79275
vt 0.71126 0.79275
vt 0.71126 0.79275
vt 0.71126 0.79275
vt 0.80497 0.99429
vt 0.71126 0.79275
vt 0.89950 0.79275
vt 0.80497 0.79275
vt 0.89950 0.79275
vt 0.52164 0.56850
vt 0.69497 0.56850
vt 0.52164 0.99436
vt 0.69497 0.56850
vt 0.52164 0.30758
vt 0.35128 0.56850
vt 0.52164 0.56850
vt 0.52164 0.56850
vt 0.35128 0.56850
vt 0.80497 0.64736
vt 0.89950 0.79276
vt 0.80497 0.79276
vt 0.89950 0.64736
vt 0.89950 0.79276
vt 0.89950 0.64736
vt 0.71126 0.64736
vt 0.80497 0.64736
vt 0.71126 0.79276
vt 0.80497 0.79276
vt 0.71126 0.79276
vt 0.80497 0.79276
vt 0.71126 0.64736
vt 0.80497 0.64736
vt 0.17193 0.99621
vt 0.33600 0.66546
vt 0.17192 0.66545
vt 0.17192 0.30447
vt 0.33613 0.30450
vt 0.33600 0.66546
vt 0.33613 0.30450
vt 0.17192 0.66546
vt 0.00800 0.66546
vt 0.00814 0.30450
vt 0.17192 0.30447
vt 0.33593 0.66548
vt 0.33598 0.30445
vt 0.17193 0.85008
vt 0.33593 0.66548
vt 0.33598 0.30445
vt 0.00814 0.30450
vt 0.00800 0.66546
vt 0.17192 0.66550
vt 0.00793 0.66548
vt 0.00798 0.30445
vt 0.17192 0.30447
vt 0.00793 0.66548
vt 0.00798 0.30445
vt 0.33590 0.66550
vt 0.17192 0.30444
vt 0.33609 0.30445
vt 0.17193 0.85007
vt 0.33590 0.66550
vt 0.33609 0.30445
vt 0.17192 0.66553
vt 0.00790 0.66550
vt 0.00809 0.30445
vt 0.17192 0.30447
vt 0.33607 0.30446
vt 0.33594 0.66555
vt 0.17193 0.84999
vt 0.33594 0.66555
vt 0.33607 0.30446
vt 0.00790 0.66550
vt 0.00809 0.30445
vt 0.00794 0.66555
vt 0.17192 0.66552
vt 0.00807 0.30446
vt 0.17192 0.30450
vt 0.00794 0.66555
vt 0.00807 0.30446
vt 0.80497 0.64431
vt 0.89950 0.78775
vt 0.80497 0.78775
vt 0.89950 0.78775
vt 0.80497 0.78775
vt 0.71126 0.78775
vt 0.71126 0.78775
vt 0.80497 0.64431
vt 0.71126 0.78775
vt 0.71126 0.78775
vt 0.89950 0.78775
vt 0.80497 0.78775
vt 0.89950 0.78775
vt 0.80497 0.78775
vt 0.89950 0.78775
vt 0.80497 0.64423
vt 0.89950 0.78775
vt 0.71126 0.78775
vt 0.80497 0.78775
vt 0.80497 0.78775
vt 0.71126 0.78775
vt 0.99395 0.95710
vt 0.99398 0.58649
vt 0.91798 0.58649
vt 0.91798 0.30587
vt 0.99398 0.30588
vt 0.91798 0.58643
vt 0.99398 0.58643
vt 0.99395 0.95589
vt 0.80497 0.99429
vt 0.89950 0.79275
vt 0.80497 0.79275
vt 0.89950 0.79275
vt 0.80497 0.79275
vt 0.71126 0.79275
vt 0.71126 0.79275
vt 0.80497 0.79275
vt 0.80497 0.64736
vt 0.89950 0.79276
vt 0.80497 0.79276
vt 0.89950 0.64736
vt 0.89950 0.79276
vt 0.89950 0.64736
vt 0.71126 0.64736
vt 0.80497 0.64736
vt 0.71126 0.79276
vt 0.80497 0.79276
vt 0.71126 0.79276
vt 0.80497 0.64736
vt 0.71126 0.64736
vt 0.80497 0.79276
vt 0.80497 0.78775
vt 0.89950 0.78775
vt 0.80497 0.64423
vt 0.89950 0.78775
vt 0.71126 0.78775
vt 0.80497 0.78775
vt 0.80497 0.78775
vt 0.71126 0.78775
vt 0.99395 0.95710
vt 0.99398 0.58649
vt 0.92398 0.58649
vt 0.92398 0.58643
vt 0.99398 0.58643
vt 0.99395 0.95589
vt 0.99398 0.30588
vt 0.92398 0.30587
vt 0.99395 0.99765
vt 0.99393 0.58646
vt 0.91386 0.58646
vt 0.99395 0.95635
vt 0.99393 0.58646
vt 0.80499 0.53505
vt 0.80499 0.63056
vt 0.71130 0.53505
vt 0.80499 0.30841
vt 0.71130 0.30836
vt 0.71130 0.53505
vt 0.89947 0.53505
vt 0.80499 0.53505
vt 0.80499 0.30841
vt 0.89947 0.30836
vt 0.89947 0.53505
vt 0.71130 0.53506
vt 0.80499 0.63151
vt 0.71130 0.30836
vt 0.71130 0.53506
vt 0.89947 0.53506
vt 0.80499 0.53507
vt 0.80499 0.30841
vt 0.71130 0.53506
vt 0.80499 0.63172
vt 0.71130 0.30835
vt 0.71130 0.53506
vt 0.89947 0.30836
vt 0.89947 0.53506
vt 0.89947 0.53506
vt 0.80499 0.53506
vt 0.80499 0.30841
vt 0.89947 0.30835
vt 0.89947 0.53506
vt 0.71130 0.53506
vt 0.80499 0.63142
vt 0.71130 0.30835
vt 0.71130 0.53506
vt 0.89947 0.53506
vt 0.80499 0.53506
vt 0.80499 0.30841
vt 0.89947 0.30835
vt 0.89947 0.53506
vt 0.71130 0.53504
vt 0.80499 0.63122
vt 0.80499 0.30841
vt 0.71130 0.30836
vt 0.71130 0.53504
vt 0.71130 0.30836
vt 0.89947 0.53504
vt 0.80499 0.53505
vt 0.89947 0.30836
vt 0.80499 0.30841
vt 0.89947 0.53504
vt 0.89947 0.30836
vt 0.80497 0.79276
vt 0.80497 0.90746
vt 0.71126 0.79276
vt 0.80497 0.64738
vt 0.71126 0.64738
vt 0.71126 0.79276
vt 0.89950 0.79276
vt 0.80497 0.79276
vt 0.89950 0.64738
vt 0.80497 0.64738
vt 0.89950 0.79276
vt 0.71126 0.79276
vt 0.80497 0.90751
vt 0.71126 0.64738
vt 0.71126 0.79276
vt 0.89950 0.79276
vt 0.80497 0.79276
vt 0.89950 0.64738
vt 0.80497 0.64738
vt 0.71126 0.64738
vt 0.71126 0.79276
vt 0.80497 0.90743
vt 0.71126 0.79276
vt 0.89950 0.79276
vt 0.89950 0.79276
vt 0.80497 0.79276
vt 0.80497 0.64738
vt 0.71126 0.64738
vt 0.71126 0.79276
vt 0.80497 0.90748
vt 0.71126 0.79276
vt 0.89950 0.64738
vt 0.89950 0.79276
vt 0.89950 0.79276
vt 0.80497 0.79276
vt 0.89950 0.64738
vt 0.80497 0.64738
vt 0.89950 0.79276
vt 0.80497 0.79275
vt 0.89950 0.79275
vt 0.80497 0.99429
vt 0.89950 0.79275
vt 0.71126 0.79275
vt 0.80497 0.79275
vt 0.80497 0.79275
vt 0.71126 0.79275
vt 0.80497 0.79275
vt 0.80497 0.99429
vt 0.89950 0.79275
vt 0.89950 0.79275
vt 0.71126 0.79275
vt 0.80497 0.79275
vt 0.71126 0.79275
vt 0.80497 0.99429
vt 0.71126 0.79275
vt 0.71126 0.79275
vt 0.80497 0.79275
vt 0.89950 0.79275
vt 0.89950 0.79275
vt 0.52164 0.99436
vt 0.69497 0.56850
vt 0.52164 0.56850
vt 0.69497 0.56850
vt 0.52164 0.30758
vt 0.52164 0.56850
vt 0.35128 0.56850
vt 0.35128 0.56850
vt 0.52164 0.56850
vt 0.80497 0.79276
vt 0.89950 0.79276
vt 0.80497 0.64736
vt 0.89950 0.64736
vt 0.89950 0.79276
vt 0.89950 0.64736
vt 0.71126 0.79276
vt 0.80497 0.64736
vt 0.71126 0.64736
vt 0.80497 0.79276
vt 0.71126 0.64736
vt 0.80497 0.79276
vt 0.71126 0.79276
vt 0.80497 0.64736
vt 0.17192 0.66545
vt 0.33600 0.66546
vt 0.17193 0.99621
vt 0.17192 0.30447
vt 0.33613 0.30450
vt 0.33600 0.66546
vt 0.33613 0.30450
vt 0.00800 0.66546
vt 0.17192 0.66546
vt 0.00814 0.30450
vt 0.17192 0.30447
vt 0.33593 0.66548
vt 0.33598 0.30445
vt 0.17193 0.85008
vt 0.33593 0.66548
vt 0.33598 0.30445
vt 0.00814 0.30450
vt 0.00800 0.66546
vt 0.00793 0.66548
vt 0.17192 0.66550
vt 0.00798 0.30445
vt 0.17192 0.30447
vt 0.00793 0.66548
vt 0.00798 0.30445
vt 0.17192 0.30444
vt 0.33590 0.66550
vt 0.33609 0.30445
vt 0.17193 0.85007
vt 0.33590 0.66550
vt 0.33609 0.30445
vt 0.00790 0.66550
vt 0.17192 0.66553
vt 0.00809 0.30445
vt 0.17192 0.30447
vt 0.33607 0.30446
vt 0.33594 0.66555
vt 0.17193 0.84999
vt 0.33594 0.66555
vt 0.33607 0.30446
vt 0.00790 0.66550
vt 0.00809 0.30445
vt 0.17192 0.66552
vt 0.00794 0.66555
vt 0.00807 0.30446
vt 0.17192 0.30450
vt 0.00794 0.66555
vt 0.00807 0.30446
vt 0.80497 0.78775
vt 0.89950 0.78775
vt 0.80497 0.64431
vt 0.89950 0.78775
vt 0.71126 0.78775
vt 0.80497 0.78775
vt 0.71126 0.78775
vt 0.71126 0.78775
vt 0.80497 0.64431
vt 0.71126 0.78775
vt 0.80497 0.78775
vt 0.89950 0.78775
vt 0.89950 0.78775
vt 0.80497 0.64423
vt 0.89950 0.78775
vt 0.80497 0.78775
vt 0.89950 0.78775
vt 0.80497 0.78775
vt 0.71126 0.78775
vt 0.71126 0.78775
vt 0.80497 0.78775
vt 0.91798 0.58649
vt 0.99398 0.58649
vt 0.99395 0.95710
vt 0.91798 0.58643
vt 0.99398 0.30588
vt 0.91798 0.30587
vt 0.99398 0.58643
vt 0.99395 0.95589
vt 0.80497 0.79275
vt 0.89950 0.79275
vt 0.80497 0.99429
vt 0.89950 0.79275
vt 0.71126 0.79275
vt 0.80497 0.79275
vt 0.80497 0.79275
vt 0.71126 0.79275
vt 0.80497 0.79276
vt 0.89950 0.79276
vt 0.80497 0.64736
vt 0.89950 0.64736
vt 0.89950 0.79276
vt 0.89950 0.64736
vt 0.71126 0.79276
vt 0.80497 0.64736
vt 0.71126 0.64736
vt 0.80497 0.79276
vt 0.71126 0.64736
vt 0.80497 0.64736
vt 0.71126 0.79276
vt 0.80497 0.79276
vt 0.80497 0.64423
vt 0.89950 0.78775
vt 0.80497 0.78775
vt 0.89950 0.78775
vt 0.80497 0.78775
vt 0.71126 0.78775
vt 0.71126 0.78775
vt 0.80497 0.78775
vt 0.92398 0.58649
vt 0.99398 0.58649
vt 0.99395 0.95710
vt 0.99395 0.95589
vt 0.99398 0.58643
vt 0.92398 0.58643
vt 0.99398 0.30588
vt 0.92398 0.30587
vt 0.04725 0.22910
vt 0.21479 0.04537
vt 0.19540 0.16335
vt 0.42083 0.08593
vt 0.42982 0.03861
vt 0.41043 0.13269
vt 0.18599 0.28170
vt 0.30252 0.14263
vt 0.47131 0.10446
vt 0.30805 0.09113
vt 0.02990 0.10653
vt 0.31300 0.01528
vt 0.00955 0.18295
vt 0.29388 0.17039
vt 0.29078 0.23642
vt 0.38215 0.21026
vt 0.42055 0.16294
vt 0.22210 0.10194
vt 0.46378 0.10893
vt 0.20406 0.15904
vt 0.23630 0.11384
vt 0.32724 0.09827
vt 0.19843 0.10090
vt 0.17330 0.14300
vt 0.01091 0.15719
vt 0.23106 0.04624
vt 0.26226 0.07745
vt 0.35755 0.14811
vt 0.35649 0.11179
vt 0.41283 0.11218
vt 0.18697 0.09306
vt 0.35572 0.08548
vt 0.41009 0.08834
vt 0.40141 0.05840
vt 0.48793 0.07496
vt 0.31826 0.05123
vt 0.39269 0.02837
vt 0.04725 0.22910
vt 0.20479 0.04537
vt 0.21040 0.16335
vt 0.42083 0.08593
vt 0.43982 0.03861
vt 0.41043 0.13269
vt 0.18599 0.28170
vt 0.42083 0.08593
vt 0.20479 0.04537
vt 0.42982 0.03861
vt 0.19540 0.16335
vt 0.04725 0.22910
vt 0.41043 0.13269
vt 0.18599 0.28170
vt 0.19540 0.16335
vt 0.21479 0.04537
vt 0.04725 0.22910
vt 0.42083 0.08593
vt 0.42982 0.03861
vt 0.41043 0.13269
vt 0.18599 0.28170
vt 0.30805 0.09113
vt 0.47131 0.10446
vt 0.30252 0.14263
vt 0.02990 0.10653
vt 0.31300 0.01528
vt 0.29078 0.23642
vt 0.29388 0.17039
vt 0.00955 0.18295
vt 0.38215 0.21026
vt 0.42055 0.16294
vt 0.22210 0.10194
vt 0.46378 0.10893
vt 0.32724 0.09827
vt 0.23630 0.11384
vt 0.20406 0.15904
vt 0.19843 0.10090
vt 0.17330 0.14300
vt 0.01091 0.15719
vt 0.23106 0.04624
vt 0.26226 0.07745
vt 0.41283 0.11218
vt 0.35649 0.11179
vt 0.35755 0.14811
vt 0.18697 0.09306
vt 0.35572 0.08548
vt 0.48793 0.07496
vt 0.40141 0.05840
vt 0.41009 0.08834
vt 0.31826 0.05123
vt 0.39269 0.02837
vt 0.21040 0.16335
vt 0.20479 0.04537
vt 0.04725 0.22910
vt 0.42083 0.08593
vt 0.43982 0.03861
vt 0.41043 0.13269
vt 0.18599 0.28170
vt 0.42982 0.03861
vt 0.20479 0.04537
vt 0.42083 0.08593
vt 0.19540 0.16335
vt 0.04725 0.22910
vt 0.41043 0.13269
vt 0.18599 0.28170
usemtl m0
f 1/1 2/2 3/3
f 1/1 4/4 2/2
f 5/5 1/1 3/3
f 5/5 4/4 1/1
f 6/6 7/7 8/8
f 6/6 8/8 9/9
f 10/10 6/6 9/9
f 8/8 7/7 11/11
f 9/9 11/11 10/10
f 9/9 8/8 11/11
f 12/12 7/7 13/13
f 12/12 13/13 14/14
f 14/14 13/13 15/15
f 15/15 16/16 14/14
f 14/14 16/16 12/12
f 16/16 7/7 12/12
f 17/17 12/12 14/14
f 17/17 18/18 12/12
f 19/19 17/17 14/14
f 12/12 18/18 20/20
f 14/14 20/20 19/19
f 14/14 12/12 20/20
f 21/21 18/18 22/22
f 21/21 22/22 23/23
f 24/24 21/21 23/23
f 24/24 25/25 21/21
f 26/26 24/24 23/23
f 21/21 25/25 27/27
f 23/23 27/27 26/26
f 23/23 21/21 27/27
f 23/23 22/22 28/28
f 28/28 29/29 23/23
f 23/23 29/29 21/21
f 29/29 18/18 21/21
f 30/30 25/25 31/31
f 30/30 31/31 32/32
f 32/32 31/31 33/33
f 33/33 34/34 32/32
f 32/32 34/34 30/30
f 34/34 25/25 30/30
f 35/35 30/30 32/32
f 35/35 36/36 30/30
f 37/37 35/35 32/32
f 30/30 36/36 38/38
f 32/32 38/38 37/37
f 32/32 30/30 38/38
f 39/39 36/36 40/40
f 39/39 40/40 41/41
f 41/41 40/40 42/42
f 42/42 43/43 41/41
f 41/41 43/43 39/39
f 43/43 36/36 39/39
f 44/44 39/39 45/45
f 45/45 39/39 46/46
f 47/47 45/45 46/46
f 48/48 39/39 44/44
f 46/46 39/39 48/48
f 46/46 48/48 49/49
f 50/50 44/44 51/51
f 50/50 51/51 52/52
f 53/53 50/50 52/52
f 53/53 54/54 50/50
f 54/54 44/44 50/50
f 55/55 54/54 53/53
f 56/56 57/57 58/58
f 56/56 58/58 59/59
f 60/60 56/56 59/59
f 58/58 57/57 61/61
f 59/59 61/61 60/60
f 59/59 58/58 61/61
f 62/62 57/57 63/63
f 62/62 63/63 64/64
f 65/65 62/62 64/64
f 64/64 62/62 65/65
f 64/64 66/66 62/62
f 66/66 57/57 62/62
f 67/67 62/62 65/65
f 67/67 68/68 62/62
f 69/69 67/67 65/65
f 62/62 68/68 70/70
f 65/65 70/70 69/69
f 65/65 62/62 70/70
f 71/71 68/68 72/72
f 71/71 72/72 73/73
f 74/74 71/71 73/73
f 75/75 71/71 74/74
f 76/76 71/71 75/75
f 76/76 77/77 71/71
f 71/71 77/77 78/78
f 74/74 78/78 75/75
f 74/74 71/71 78/78
f 73/73 79/79 74/74
f 74/74 79/79 71/71
f 79/79 68/68 71/71
f 80/80 77/77 81/81
f 80/80 81/81 82/82
f 83/83 80/80 82/82
f 84/84 80/80 83/83
f 84/84 85/85 80/80
f 80/80 85/85 86/86
f 82/82 86/86 83/83
f 82/82 80/80 86/86
f 82/82 81/81 87/87
f 87/87 88/88 82/82
f 82/82 88/88 80/80
f 88/88 77/77 80/80
f 89/89 85/85 90/90
f 89/89 90/90 91/91
f 92/92 89/89 91/91
f 91/91 89/89 92/92
f 91/91 93/93 89/89
f 93/93 85/85 89/89
f 94/94 95/95 96/96
f 96/96 97/97 94/94
f 94/94 98/98 99/99
f 100/100 101/101 94/94
f 102/102 103/103 104/104
f 104/104 103/103 105/105
f 106/106 103/103 107/107
f 108/108 103/103 106/106
f 109/109 104/104 110/110
f 110/110 104/104 111/111
f 112/112 110/110 113/113
f 113/113 110/110 114/114
f 115/115 116/116 117/117
f 117/117 118/118 115/115
f 115/115 119/119 116/116
f 118/118 119/119 115/115
f 120/120 121/121 117/117
f 120/120 119/119 121/121
f 117/117 122/122 123/123
f 122/122 119/119 123/123
f 124/124 125/125 126/126
f 124/124 127/127 125/125
f 126/126 128/128 124/124
f 128/128 129/129 124/124
f 130/130 131/131 132/132
f 132/132 131/131 133/133
f 134/134 135/135 136/136
f 135/135 137/137 136/136
f 138/138 139/139 140/140
f 139/139 141/141 140/140
f 139/139 142/142 141/141
f 140/140 143/143 138/138
f 140/140 141/141 143/143
f 141/141 144/144 143/143
f 138/138 145/145 146/146
f 145/145 147/147 146/146
f 145/145 148/148 147/147
f 145/145 149/149 148/148
f 149/149 150/150 148/148
f 151/151 149/149 145/145
f 148/148 152/152 145/145
f 145/145 152/152 151/151
f 148/148 153/153 152/152
f 154/154 148/148 145/145
f 155/155 154/154 145/145
f 155/155 145/145 138/138
f 151/151 156/156 157/157
f 157/157 156/156 158/158
f 158/158 156/156 159/159
f 160/160 156/156 151/151
f 161/161 156/156 160/160
f 159/159 156/156 161/161
f 156/156 162/162 163/163
f 163/163 162/162 164/164
f 165/165 162/162 156/156
f 163/163 166/166 156/156
f 156/156 166/166 165/165
f 167/167 166/166 163/163
f 165/165 168/168 169/169
f 169/169 168/168 170/170
f 170/170 168/168 171/171
f 171/171 168/168 172/172
f 168/168 173/173 172/172
f 168/168 174/174 173/173
f 171/171 175/175 168/168
f 175/175 174/174 168/168
f 176/176 175/175 171/171
f 177/177 168/168 165/165
f 178/178 168/168 177/177
f 171/171 168/168 178/178
f 179/179 174/174 180/180
f 179/179 180/180 181/181
f 181/181 180/180 182/182
f 180/180 174/174 183/183
f 182/182 180/180 183/183
f 182/182 183/183 184/184
f 185/185 186/186 187/187
f 187/187 188/188 185/185
f 185/185 189/189 190/190
f 191/191 189/189 185/185
f 192/192 187/187 193/193
f 194/194 187/187 192/192
f 192/192 195/195 196/196
f 196/196 197/197 192/192
f 198/198 199/199 200/200
f 200/200 201/201 198/198
f 202/202 203/203 200/200
f 200/200 204/204 205/205
f 206/206 207/207 208/208
f 209/209 210/210 211/211
f 211/211 210/210 212/212
f 212/212 213/213 211/211
f 214/214 215/215 216/216
f 216/216 217/217 214/214
f 214/214 218/218 219/219
f 220/220 221/221 214/214
f 222/222 223/223 224/224
f 225/225 223/223 222/222
f 224/224 226/226 222/222
f 222/222 226/226 227/227
f 228/228 229/229 230/230
f 229/229 231/231 230/230
f 232/232 233/233 234/234
f 232/232 235/235 233/233
f 236/236 237/237 238/238
f 238/238 239/239 236/236
f 240/240 241/241 238/238
f 238/238 242/242 243/243
f 244/244 245/245 246/246
f 247/247 248/248 249/249
f 250/250 248/248 247/247
f 250/250 247/247 251/251
f 252/252 253/253 254/254
f 253/253 255/255 254/254
f 252/252 254/254 256/256
f 254/254 255/255 256/256
f 257/257 258/258 259/259
f 260/260 257/257 259/259
f 260/260 259/259 261/261
f 262/262 258/258 257/257
f 261/261 262/262 260/260
f 262/262 257/257 260/260
f 263/263 258/258 264/264
f 265/265 263/263 264/264
f 266/266 263/263 265/265
f 265/265 267/267 266/266
f 264/264 267/267 265/265
f 264/264 258/258 267/267
f 265/265 264/264 268/268
f 264/264 269/269 268/268
f 265/265 268/268 270/270
f 271/271 269/269 264/264
f 270/270 271/271 265/265
f 271/271 264/264 265/265
f 272/272 269/269 273/273
f 274/274 272/272 273/273
f 274/274 273/273 275/275
f 273/273 276/276 275/275
f 274/274 275/275 277/277
f 278/278 276/276 273/273
f 277/277 278/278 274/274
f 278/278 273/273 274/274
f 279/279 272/272 274/274
f 274/274 280/280 279/279
f 273/273 280/280 274/274
f 273/273 269/269 280/280
f 281/281 276/276 282/282
f 283/283 281/281 282/282
f 284/284 281/281 283/283
f 283/283 285/285 284/284
f 282/282 285/285 283/283
f 282/282 276/276 285/285
f 283/283 282/282 286/286
f 282/282 287/287 286/286
f 283/283 286/286 288/288
f 289/289 287/287 282/282
f 288/288 289/289 283/283
f 289/289 282/282 283/283
f 290/290 287/287 291/291
f 292/292 290/290 291/291
f 293/293 290/290 292/292
f 292/292 294/294 293/293
f 291/291 294/294 292/292
f 291/291 287/287 294/294
f 295/295 291/291 296/296
f 297/297 291/291 295/295
f 297/297 295/295 298/298
f 296/296 291/291 299/299
f 299/299 291/291 297/297
f 300/300 299/299 297/297
f 301/301 296/296 302/302
f 303/303 301/301 302/302
f 303/303 302/302 304/304
f 302/302 305/305 304/304
f 302/302 296/296 305/305
f 304/304 305/305 306/306
f 307/307 308/308 309/309
f 310/310 307/307 309/309
f 310/310 309/309 311/311
f 312/312 308/308 307/307
f 311/311 312/312 310/310
f 312/312 307/307 310/310
f 313/313 308/308 314/314
f 315/315 313/313 314/314
f 315/315 314/314 316/316
f 316/316 314/314 315/315
f 314/314 317/317 315/315
f 314/314 308/308 317/317
f 316/316 314/314 318/318
f 314/314 319/319 318/318
f 316/316 318/318 320/320
f 321/321 319/319 314/314
f 320/320 321/321 316/316
f 321/321 314/314 316/316
f 322/322 319/319 323/323
f 324/324 322/322 323/323
f 324/324 323/323 325/325
f 325/325 323/323 326/326
f 326/326 323/323 327/327
f 323/323 328/328 327/327
f 329/329 328/328 323/323
f 326/326 329/329 325/325
f 329/329 323/323 325/325
f 325/325 330/330 324/324
f 323/323 330/330 325/325
f 323/323 319/319 330/330
f 331/331 328/328 332/332
f 333/333 331/331 332/332
f 333/333 332/332 334/334
f 334/334 332/332 335/335
f 332/332 336/336 335/335
f 337/337 336/336 332/332
f 334/334 337/337 333/333
f 337/337 332/332 333/333
f 338/338 331/331 333/333
f 333/333 339/339 338/338
f 332/332 339/339 333/333
f 332/332 328/328 339/339
f 340/340 336/336 341/341
f 342/342 340/340 341/341
f 342/342 341/341 343/343
f 343/343 341/341 342/342
f 341/341 344/344 342/342
f 341/341 336/336 344/344
f 345/345 346/346 347/347
f 347/347 348/348 345/345
f 349/349 350/350 347/347
f 347/347 351/351 352/352
f 353/353 354/354 355/355
f 356/356 354/354 353/353
f 357/357 354/354 358/358
f 358/358 354/354 359/359
f 360/360 353/353 361/361
f 362/362 353/353 360/360
f 363/363 360/360 364/364
f 365/365 360/360 363/363
f 366/366 367/367 368/368
f 368/368 369/369 366/366
f 367/367 370/370 368/368
f 368/368 370/370 369/369
f 366/366 371/371 372/372
f 371/371 370/370 372/372
f 373/373 374/374 366/366
f 373/373 370/370 374/374
f 375/375 376/376 377/377
f 376/376 378/378 377/377
f 377/377 379/379 375/375
f 377/377 380/380 379/379
f 381/381 382/382 383/383
f 384/384 382/382 381/381
f 385/385 386/386 387/387
f 385/385 388/388 386/386
f 389/389 390/390 391/391
f 389/389 392/392 390/390
f 392/392 393/393 390/390
f 391/391 394/394 389/389
f 394/394 392/392 389/389
f 394/394 395/395 392/392
f 396/396 397/397 391/391
f 396/396 398/398 397/397
f 398/398 399/399 397/397
f 399/399 400/400 397/397
f 399/399 401/401 400/400
f 397/397 400/400 402/402
f 397/397 403/403 399/399
f 402/402 403/403 397/397
f 403/403 404/404 399/399
f 397/397 399/399 405/405
f 397/397 405/405 406/406
f 391/391 397/397 406/406
f 407/407 408/408 402/402
f 409/409 408/408 407/407
f 410/410 408/408 409/409
f 402/402 408/408 411/411
f 411/411 408/408 412/412
f 412/412 408/408 410/410
f 413/413 414/414 408/408
f 415/415 414/414 413/413
f 408/408 414/414 416/416
f 408/408 417/417 413/413
f 416/416 417/417 408/408
f 413/413 417/417 418/418
f 419/419 420/420 416/416
f 421/421 420/420 419/419
f 422/422 420/420 421/421
f 423/423 420/420 422/422
f 423/423 424/424 420/420
f 424/424 425/425 420/420
f 420/420 426/426 422/422
f 420/420 425/425 426/426
f 422/422 426/426 427/427
f 416/416 420/420 428/428
f 428/428 420/420 429/429
f 429/429 420/420 422/422
f 430/430 425/425 431/431
f 432/432 430/430 431/431
f 433/433 430/430 432/432
f 434/434 425/425 430/430
f 434/434 430/430 433/433
f 435/435 434/434 433/433
f 436/436 437/437 438/438
f 438/438 439/439 436/436
f 440/440 441/441 438/438
f 438/438 441/441 442/442
f 443/443 436/436 444/444
f 444/444 436/436 445/445
f 446/446 447/447 444/444
f 444/444 448/448 446/446
f 449/449 450/450 451/451
f 451/451 452/452 449/449
f 449/449 453/453 454/454
f 455/455 456/456 449/449
f 457/457 458/458 459/459
f 460/460 461/461 462/462
f 463/463 461/461 460/460
f 460/460 464/464 463/463
f 465/465 466/466 467/467
f 467/467 468/468 465/465
f 469/469 470/470 467/467
f 467/467 471/471 472/472
f 473/473 474/474 475/475
f 475/475 474/474 476/476
f 475/475 477/477 473/473
f 478/478 477/477 475/475
f 479/479 480/480 481/481
f 479/479 482/482 480/480
f 483/483 484/484 485/485
f 484/484 486/486 485/485
f 487/487 488/488 489/489
f 489/489 490/490 487/487
f 487/487 491/491 492/492
f 493/493 494/494 487/487
f 495/495 496/496 497/497
f 498/498 499/499 500/500
f 500/500 499/499 501/501
f 502/502 500/500 501/501
f 503/503 504/504 505/505
f 505/505 504/504 506/506
f 506/506 504/504 507/507
f 505/505 506/506 508/508
f 509/509 505/505 508/508
f 503/503 505/505 509/509
f 510/510 511/511 512/512
f 510/510 512/512 513/513
f 512/512 514/514 513/513
f 512/512 511/511 514/514
f 515/515 516/516 517/517
f 517/517 516/516 518/518
f 516/516 519/519 518/518
f 516/516 520/520 519/519
f 515/515 520/520 516/516
f 520/520 521/521 519/519
f 522/522 523/523 524/524
f 522/522 525/525 523/523
f 526/526 525/525 522/522
f 526/526 527/527 525/525
f 525/525 528/528 523/523
f 525/525 527/527 528/528
f 523/523 528/528 529/529
f 523/523 529/529 524/524
f 530/530 531/531 532/532
f 530/530 533/533 531/531
f 531/531 533/533 534/534
f 531/531 534/534 532/532
f 535/535 536/536 537/537
f 535/535 538/538 536/536
f 536/536 539/539 537/537
f 536/536 538/538 539/539
f 540/540 541/541 542/542
f 542/542 541/541 543/543
f 543/543 541/541 544/544
f 542/542 543/543 545/545
f 546/546 542/542 545/545
f 540/540 542/542 546/546
f 547/547 548/548 549/549
f 550/550 548/548 547/547
f 551/551 548/548 550/550
f 550/550 547/547 552/552
f 553/553 550/550 552/552
f 551/551 550/550 553/553
f 554/554 555/555 556/556
f 557/557 555/555 554/554
f 558/558 555/555 557/557
f 559/559 557/557 554/554
f 559/559 554/554 560/560
f 560/560 554/554 556/556
f 561/561 562/562 563/563
f 564/564 561/561 563/563
f 564/564 565/565 561/561
f 565/565 562/562 561/561
f 566/566 567/567 568/568
f 569/569 567/567 566/566
f 569/569 570/570 567/567
f 570/570 571/571 567/567
f 567/567 571/571 568/568
f 570/570 572/572 571/571
f 573/573 574/574 575/575
f 574/574 576/576 575/575
f 575/575 576/576 577/577
f 576/576 578/578 577/577
f 574/574 579/579 576/576
f 579/579 578/578 576/576
f 580/580 579/579 574/574
f 573/573 580/580 574/574
f 581/581 582/582 583/583
f 582/582 584/584 583/583
f 585/585 584/584 582/582
f 581/581 585/585 582/582
f 586/586 587/587 588/588
f 587/587 589/589 588/588
f 586/586 590/590 587/587
f 590/590 589/589 587/587
f 591/591 592/592 593/593
f 594/594 592/592 591/591
f 595/595 592/592 594/594
f 596/596 594/594 591/591
f 596/596 591/591 597/597
f 597/597 591/591 593/593
f 598/598 599/599 600/600
f 600/600 599/599 601/601
f 601/601 599/599 602/602
f 603/603 600/600 601/601
f 603/603 601/601 604/604
f 604/604 601/601 602/602
