mtllib acce116.mtl
o acce116
v 0.00000 0.00000 2.95740 0.000 0.000 0.000
v 0.00000 -0.11880 2.91960 0.000 0.000 0.000
v 0.09900 0.00000 2.94300 0.000 0.000 0.000
v -0.10080 0.00000 2.94660 0.000 0.000 0.000
v -0.10080 -0.11880 2.90520 0.000 0.000 0.000
v -0.18000 -0.10800 2.86020 0.000 0.000 0.000
v -0.19260 0.00000 2.88180 0.000 0.000 0.000
v -0.24300 -0.09360 2.78640 0.000 0.000 0.000
v -0.25020 0.00000 2.78640 0.000 0.000 0.000
v -0.26820 -0.11160 2.58120 0.000 0.000 0.000
v -0.28080 0.00000 2.59020 0.000 0.000 0.000
v -0.31320 -0.11700 2.46960 0.000 0.000 0.000
v -0.34200 0.00000 2.46420 0.000 0.000 0.000
v -0.28260 0.00000 2.38320 0.000 0.000 0.000
v -0.25020 -0.12420 2.40300 0.000 0.000 0.000
v 0.15480 -0.11340 2.88900 0.000 0.000 0.000
v 0.00000 0.11880 2.91960 0.000 0.000 0.000
v -0.24300 0.09360 2.78640 0.000 0.000 0.000
v -0.26820 0.11160 2.58120 0.000 0.000 0.000
v -0.31320 0.11700 2.46960 0.000 0.000 0.000
v -0.18000 0.10800 2.86020 0.000 0.000 0.000
v -0.10080 0.11880 2.90520 0.000 0.000 0.000
v -0.25020 0.12420 2.40300 0.000 0.000 0.000
v 0.15480 0.11340 2.88900 0.000 0.000 0.000
v -0.26820 -0.11160 2.58120 0.000 0.000 0.000
v -0.21420 -0.21060 2.55600 0.000 0.000 0.000
v -0.24300 -0.09360 2.78640 0.000 0.000 0.000
v -0.31320 -0.11700 2.46960 0.000 0.000 0.000
v -0.23760 -0.23940 2.48580 0.000 0.000 0.000
v -0.18180 -0.15840 2.79000 0.000 0.000 0.000
v -0.10080 -0.23220 2.69820 0.000 0.000 0.000
v -0.10980 -0.26460 2.56140 0.000 0.000 0.000
v -0.17820 -0.26640 2.49300 0.000 0.000 0.000
v -0.13140 -0.26280 2.43180 0.000 0.000 0.000
v -0.20520 -0.23760 2.42460 0.000 0.000 0.000
v -0.07020 -0.27900 2.43540 0.000 0.000 0.000
v -0.10980 -0.28980 2.49660 0.000 0.000 0.000
v -0.10080 -0.20340 2.79540 0.000 0.000 0.000
v -0.25020 -0.12420 2.40300 0.000 0.000 0.000
v -0.10980 -0.26460 2.56140 0.000 0.000 0.000
v 0.00000 -0.27000 2.55960 0.000 0.000 0.000
v 0.00000 -0.24300 2.70540 0.000 0.000 0.000
v -0.10080 -0.23220 2.69820 0.000 0.000 0.000
v 0.00000 -0.30780 2.49300 0.000 0.000 0.000
v -0.10980 -0.28980 2.49660 0.000 0.000 0.000
v 0.00000 -0.21780 2.79540 0.000 0.000 0.000
v -0.07020 -0.27900 2.43540 0.000 0.000 0.000
v 0.13320 -0.19440 2.79540 0.000 0.000 0.000
v 0.10080 -0.23220 2.66940 0.000 0.000 0.000
v 0.08460 -0.25920 2.50560 0.000 0.000 0.000
v 0.12780 -0.21420 2.43000 0.000 0.000 0.000
v 0.00000 -0.25020 2.42820 0.000 0.000 0.000
v 0.12060 -0.17100 2.39760 0.000 0.000 0.000
v 0.15480 -0.11340 2.88900 0.000 0.000 0.000
v 0.00000 -0.11880 2.91960 0.000 0.000 0.000
v -0.10080 -0.11880 2.90520 0.000 0.000 0.000
v -0.10080 -0.20340 2.79540 0.000 0.000 0.000
v -0.18180 -0.15840 2.79000 0.000 0.000 0.000
v -0.18000 -0.10800 2.86020 0.000 0.000 0.000
v -0.24300 -0.09360 2.78640 0.000 0.000 0.000
v -0.27000 -0.11880 2.70900 0.000 0.000 0.000
v -0.24300 -0.22860 2.61900 0.000 0.000 0.000
v -0.28800 -0.16920 2.62080 0.000 0.000 0.000
v -0.29160 -0.26640 2.46420 0.000 0.000 0.000
v -0.18180 -0.30960 2.59380 0.000 0.000 0.000
v -0.26100 -0.39600 2.37960 0.000 0.000 0.000
v -0.10080 -0.20340 2.79540 0.000 0.000 0.000
v 0.00000 -0.25020 2.42820 0.000 0.000 0.000
v 0.13320 -0.17460 2.36880 0.000 0.000 0.000
v 0.12060 -0.17100 2.39760 0.000 0.000 0.000
v 0.16020 -0.21240 2.32020 0.000 0.000 0.000
v 0.00000 -0.32940 2.36700 0.000 0.000 0.000
v 0.00000 -0.29700 2.30220 0.000 0.000 0.000
v 0.11880 -0.18000 2.28240 0.000 0.000 0.000
v -0.09900 -0.30960 2.29860 0.000 0.000 0.000
v -0.07020 -0.27900 2.43540 0.000 0.000 0.000
v -0.13140 -0.31680 2.35440 0.000 0.000 0.000
v -0.13140 -0.26280 2.43180 0.000 0.000 0.000
v -0.22860 -0.26460 2.33820 0.000 0.000 0.000
v -0.20160 -0.23040 2.24640 0.000 0.000 0.000
v -0.29700 -0.15660 2.30580 0.000 0.000 0.000
v -0.20520 -0.23760 2.42460 0.000 0.000 0.000
v -0.25020 -0.12420 2.40300 0.000 0.000 0.000
v -0.34020 0.00000 2.27700 0.000 0.000 0.000
v -0.28260 0.00000 2.38320 0.000 0.000 0.000
v -0.28080 0.00000 2.19420 0.000 0.000 0.000
v -0.25020 -0.14220 2.21580 0.000 0.000 0.000
v -0.25020 0.12420 2.40300 0.000 0.000 0.000
v -0.29700 0.15660 2.30580 0.000 0.000 0.000
v -0.20520 0.23760 2.42460 0.000 0.000 0.000
v -0.25020 0.14220 2.21580 0.000 0.000 0.000
v -0.22860 0.26460 2.33820 0.000 0.000 0.000
v -0.20160 0.23040 2.24640 0.000 0.000 0.000
v -0.09900 0.30960 2.29860 0.000 0.000 0.000
v -0.13140 0.31680 2.35440 0.000 0.000 0.000
v 0.00000 0.32940 2.36700 0.000 0.000 0.000
v 0.00000 0.29700 2.30220 0.000 0.000 0.000
v 0.16020 0.21240 2.32020 0.000 0.000 0.000
v 0.00000 0.25020 2.42820 0.000 0.000 0.000
v 0.13320 0.17460 2.36880 0.000 0.000 0.000
v 0.12060 0.17100 2.39760 0.000 0.000 0.000
v 0.11880 0.18000 2.28240 0.000 0.000 0.000
v -0.07020 0.27900 2.43540 0.000 0.000 0.000
v -0.13140 0.26280 2.43180 0.000 0.000 0.000
v -0.25020 -0.14220 2.21580 0.000 0.000 0.000
v -0.42300 -0.23400 1.83960 0.000 0.000 0.000
v -0.20160 -0.23040 2.24640 0.000 0.000 0.000
v -0.45360 -0.08100 1.85220 0.000 0.000 0.000
v -0.53460 -0.18000 1.35360 0.000 0.000 0.000
v -0.54540 -0.34740 1.22760 0.000 0.000 0.000
v -0.37980 -0.35100 1.82340 0.000 0.000 0.000
v -0.09900 -0.30960 2.29860 0.000 0.000 0.000
v -0.28080 0.00000 2.19420 0.000 0.000 0.000
v -0.25020 0.14220 2.21580 0.000 0.000 0.000
v -0.45360 0.08100 1.85220 0.000 0.000 0.000
v -0.42300 0.23400 1.83960 0.000 0.000 0.000
v -0.20160 0.23040 2.24640 0.000 0.000 0.000
v -0.53460 0.18000 1.35360 0.000 0.000 0.000
v -0.54540 0.34740 1.22760 0.000 0.000 0.000
v -0.37980 0.35100 1.82340 0.000 0.000 0.000
v -0.09900 0.30960 2.29860 0.000 0.000 0.000
v 0.15300 -0.10260 2.23200 0.000 0.000 0.000
v 0.11880 -0.18000 2.28240 0.000 0.000 0.000
v 0.00000 0.00000 2.31840 0.000 0.000 0.000
v 0.00000 -0.29700 2.30220 0.000 0.000 0.000
v -0.09900 -0.30960 2.29860 0.000 0.000 0.000
v -0.20160 -0.23040 2.24640 0.000 0.000 0.000
v -0.25020 -0.14220 2.21580 0.000 0.000 0.000
v -0.28080 0.00000 2.19420 0.000 0.000 0.000
v -0.25020 0.14220 2.21580 0.000 0.000 0.000
v -0.20160 0.23040 2.24640 0.000 0.000 0.000
v -0.09900 0.30960 2.29860 0.000 0.000 0.000
v 0.00000 0.29700 2.30220 0.000 0.000 0.000
v 0.11880 0.18000 2.28240 0.000 0.000 0.000
v 0.15300 0.10260 2.23200 0.000 0.000 0.000
v -0.24300 0.09360 2.78640 0.000 0.000 0.000
v -0.21420 0.21060 2.55600 0.000 0.000 0.000
v -0.26820 0.11160 2.58120 0.000 0.000 0.000
v -0.31320 0.11700 2.46960 0.000 0.000 0.000
v -0.23760 0.23940 2.48580 0.000 0.000 0.000
v -0.18180 0.15840 2.79000 0.000 0.000 0.000
v -0.10080 0.23220 2.69820 0.000 0.000 0.000
v -0.10980 0.26460 2.56140 0.000 0.000 0.000
v -0.17820 0.26640 2.49300 0.000 0.000 0.000
v -0.13140 0.26280 2.43180 0.000 0.000 0.000
v -0.20520 0.23760 2.42460 0.000 0.000 0.000
v -0.07020 0.27900 2.43540 0.000 0.000 0.000
v -0.10980 0.28980 2.49660 0.000 0.000 0.000
v -0.10080 0.20340 2.79540 0.000 0.000 0.000
v -0.25020 0.12420 2.40300 0.000 0.000 0.000
v 0.00000 0.24300 2.70540 0.000 0.000 0.000
v 0.00000 0.27000 2.55960 0.000 0.000 0.000
v -0.10980 0.26460 2.56140 0.000 0.000 0.000
v -0.10080 0.23220 2.69820 0.000 0.000 0.000
v 0.00000 0.30780 2.49300 0.000 0.000 0.000
v -0.10980 0.28980 2.49660 0.000 0.000 0.000
v 0.00000 0.21780 2.79540 0.000 0.000 0.000
v -0.07020 0.27900 2.43540 0.000 0.000 0.000
v 0.13320 0.19440 2.79540 0.000 0.000 0.000
v 0.10080 0.23220 2.66940 0.000 0.000 0.000
v 0.08460 0.25920 2.50560 0.000 0.000 0.000
v 0.12780 0.21420 2.43000 0.000 0.000 0.000
v 0.00000 0.25020 2.42820 0.000 0.000 0.000
v 0.12060 0.17100 2.39760 0.000 0.000 0.000
v 0.15480 0.11340 2.88900 0.000 0.000 0.000
v 0.00000 0.11880 2.91960 0.000 0.000 0.000
v -0.10080 0.11880 2.90520 0.000 0.000 0.000
v -0.10080 0.20340 2.79540 0.000 0.000 0.000
v -0.18180 0.15840 2.79000 0.000 0.000 0.000
v -0.18000 0.10800 2.86020 0.000 0.000 0.000
v -0.24300 0.09360 2.78640 0.000 0.000 0.000
v -0.27000 0.11880 2.70900 0.000 0.000 0.000
v -0.24300 0.22860 2.61900 0.000 0.000 0.000
v -0.28800 0.16920 2.62080 0.000 0.000 0.000
v -0.29160 0.26640 2.46420 0.000 0.000 0.000
v -0.18180 0.30960 2.59380 0.000 0.000 0.000
v -0.26100 0.39600 2.37960 0.000 0.000 0.000
v -0.10080 0.20340 2.79540 0.000 0.000 0.000
v -0.28800 -0.16920 2.62080 0.000 0.000 0.000
v -0.18900 -0.16920 2.60100 0.000 0.000 0.000
v -0.27000 -0.11880 2.70900 0.000 0.000 0.000
v -0.24300 -0.09360 2.78640 0.000 0.000 0.000
v -0.29160 -0.26640 2.46420 0.000 0.000 0.000
v -0.26100 -0.39600 2.37960 0.000 0.000 0.000
v -0.18180 -0.30960 2.59380 0.000 0.000 0.000
v -0.10080 -0.20340 2.79540 0.000 0.000 0.000
v -0.18180 -0.15840 2.79000 0.000 0.000 0.000
v -0.27000 0.11880 2.70900 0.000 0.000 0.000
v -0.18900 0.16920 2.60100 0.000 0.000 0.000
v -0.28800 0.16920 2.62080 0.000 0.000 0.000
v -0.24300 0.09360 2.78640 0.000 0.000 0.000
v -0.29160 0.26640 2.46420 0.000 0.000 0.000
v -0.26100 0.39600 2.37960 0.000 0.000 0.000
v -0.18180 0.30960 2.59380 0.000 0.000 0.000
v -0.10080 0.20340 2.79540 0.000 0.000 0.000
v -0.18180 0.15840 2.79000 0.000 0.000 0.000
v 0.23400 0.00000 2.89440 0.000 0.000 0.000
v 0.22140 -0.08100 2.80260 0.000 0.000 0.000
v 0.25020 0.00000 2.80260 0.000 0.000 0.000
v 0.21420 -0.08820 2.84940 0.000 0.000 0.000
v 0.20340 -0.11880 2.80620 0.000 0.000 0.000
v 0.20520 -0.13140 2.77020 0.000 0.000 0.000
v 0.22680 -0.07560 2.74680 0.000 0.000 0.000
v 0.23760 0.00000 2.71080 0.000 0.000 0.000
v 0.22140 0.08100 2.80260 0.000 0.000 0.000
v 0.21420 0.08820 2.84940 0.000 0.000 0.000
v 0.20340 0.11880 2.80620 0.000 0.000 0.000
v 0.20520 0.13140 2.77020 0.000 0.000 0.000
v 0.22680 0.07560 2.74680 0.000 0.000 0.000
v 0.24480 -0.02520 2.80260 0.000 0.000 0.000
v 0.24300 -0.01620 2.77560 0.000 0.000 0.000
v 0.26280 0.00000 2.80260 0.000 0.000 0.000
v 0.24300 0.00000 2.74680 0.000 0.000 0.000
v 0.24300 -0.01620 2.82960 0.000 0.000 0.000
v 0.24300 0.00000 2.85120 0.000 0.000 0.000
v 0.24300 0.01620 2.77560 0.000 0.000 0.000
v 0.24480 0.02520 2.80260 0.000 0.000 0.000
v 0.24300 0.01620 2.82960 0.000 0.000 0.000
v 0.22680 -0.06660 2.80260 0.000 0.000 0.000
v 0.22860 -0.06300 2.79000 0.000 0.000 0.000
v 0.23940 -0.05940 2.80260 0.000 0.000 0.000
v 0.23220 -0.05580 2.77740 0.000 0.000 0.000
v 0.22500 -0.06300 2.81520 0.000 0.000 0.000
v 0.22680 -0.05580 2.82420 0.000 0.000 0.000
v 0.23400 -0.04860 2.79000 0.000 0.000 0.000
v 0.23580 -0.04500 2.80260 0.000 0.000 0.000
v 0.23040 -0.04860 2.81520 0.000 0.000 0.000
v 0.23940 0.05940 2.80260 0.000 0.000 0.000
v 0.22860 0.06300 2.79000 0.000 0.000 0.000
v 0.22680 0.06660 2.80260 0.000 0.000 0.000
v 0.23220 0.05580 2.77740 0.000 0.000 0.000
v 0.22500 0.06300 2.81520 0.000 0.000 0.000
v 0.22680 0.05580 2.82420 0.000 0.000 0.000
v 0.23400 0.04860 2.79000 0.000 0.000 0.000
v 0.23580 0.04500 2.80260 0.000 0.000 0.000
v 0.23040 0.04860 2.81520 0.000 0.000 0.000
v 0.15480 -0.11340 2.88900 0.000 0.000 0.000
v 0.13320 -0.19440 2.79540 0.000 0.000 0.000
v 0.22500 -0.08280 2.85120 0.000 0.000 0.000
v 0.19980 -0.15120 2.73960 0.000 0.000 0.000
v 0.23040 0.00000 2.89980 0.000 0.000 0.000
v 0.09900 0.00000 2.94300 0.000 0.000 0.000
v 0.27360 0.00000 2.88180 0.000 0.000 0.000
v 0.15480 0.11340 2.88900 0.000 0.000 0.000
v 0.22500 0.08280 2.85120 0.000 0.000 0.000
v 0.13320 0.19440 2.79540 0.000 0.000 0.000
v 0.19980 0.15120 2.73960 0.000 0.000 0.000
v 0.10080 -0.23220 2.66940 0.000 0.000 0.000
v 0.18540 -0.18540 2.63160 0.000 0.000 0.000
v 0.17820 -0.20880 2.48940 0.000 0.000 0.000
v 0.08460 -0.25920 2.50560 0.000 0.000 0.000
v 0.12780 -0.21420 2.43000 0.000 0.000 0.000
v 0.17460 -0.14940 2.43720 0.000 0.000 0.000
v 0.17100 -0.07740 2.41020 0.000 0.000 0.000
v 0.12060 -0.17100 2.39760 0.000 0.000 0.000
v 0.17100 -0.04500 2.37240 0.000 0.000 0.000
v 0.18180 -0.05400 2.32380 0.000 0.000 0.000
v 0.13320 -0.17460 2.36880 0.000 0.000 0.000
v 0.19800 -0.08640 2.29140 0.000 0.000 0.000
v 0.16020 -0.21240 2.32020 0.000 0.000 0.000
v 0.19440 -0.10260 2.26620 0.000 0.000 0.000
v 0.15300 -0.10260 2.23200 0.000 0.000 0.000
v 0.11880 -0.18000 2.28240 0.000 0.000 0.000
v 0.17100 0.07740 2.41020 0.000 0.000 0.000
v 0.17100 0.04500 2.37240 0.000 0.000 0.000
v 0.12060 0.17100 2.39760 0.000 0.000 0.000
v 0.18180 0.05400 2.32380 0.000 0.000 0.000
v 0.13320 0.17460 2.36880 0.000 0.000 0.000
v 0.19800 0.08640 2.29140 0.000 0.000 0.000
v 0.16020 0.21240 2.32020 0.000 0.000 0.000
v 0.19440 0.10260 2.26620 0.000 0.000 0.000
v 0.15300 0.10260 2.23200 0.000 0.000 0.000
v 0.11880 0.18000 2.28240 0.000 0.000 0.000
v 0.12780 0.21420 2.43000 0.000 0.000 0.000
v 0.17460 0.14940 2.43720 0.000 0.000 0.000
v 0.17820 0.20880 2.48940 0.000 0.000 0.000
v 0.08460 0.25920 2.50560 0.000 0.000 0.000
v 0.10080 0.23220 2.66940 0.000 0.000 0.000
v 0.18540 0.18540 2.63160 0.000 0.000 0.000
v 0.22500 -0.08280 2.85120 0.000 0.000 0.000
v -0.06480 0.00000 2.80080 0.000 0.000 0.000
v 0.27360 0.00000 2.88180 0.000 0.000 0.000
v 0.00000 -0.04680 2.68200 0.000 0.000 0.000
v 0.19980 -0.15120 2.73960 0.000 0.000 0.000
v 0.00000 -0.09000 2.62800 0.000 0.000 0.000
v 0.18540 -0.18540 2.63160 0.000 0.000 0.000
v 0.00000 -0.11340 2.56500 0.000 0.000 0.000
v 0.17820 -0.20880 2.48940 0.000 0.000 0.000
v 0.00000 -0.12960 2.49660 0.000 0.000 0.000
v -0.03240 -0.10260 2.44620 0.000 0.000 0.000
v 0.17460 -0.14940 2.43720 0.000 0.000 0.000
v 0.17100 -0.07740 2.41020 0.000 0.000 0.000
v -0.03060 -0.09900 2.41380 0.000 0.000 0.000
v 0.17100 -0.04500 2.37240 0.000 0.000 0.000
v -0.14220 0.00000 2.42100 0.000 0.000 0.000
v -0.29700 0.00000 2.46060 0.000 0.000 0.000
v 0.18180 -0.05400 2.32380 0.000 0.000 0.000
v 0.19800 -0.08640 2.29140 0.000 0.000 0.000
v 0.19440 -0.10260 2.26620 0.000 0.000 0.000
v 0.15300 -0.10260 2.23200 0.000 0.000 0.000
v -0.03240 0.10260 2.44620 0.000 0.000 0.000
v -0.03060 0.09900 2.41380 0.000 0.000 0.000
v 0.17100 0.07740 2.41020 0.000 0.000 0.000
v 0.17100 0.04500 2.37240 0.000 0.000 0.000
v 0.17460 0.14940 2.43720 0.000 0.000 0.000
v 0.17820 0.20880 2.48940 0.000 0.000 0.000
v 0.00000 0.12960 2.49660 0.000 0.000 0.000
v 0.18180 0.05400 2.32380 0.000 0.000 0.000
v 0.19800 0.08640 2.29140 0.000 0.000 0.000
v 0.19440 0.10260 2.26620 0.000 0.000 0.000
v 0.15300 0.10260 2.23200 0.000 0.000 0.000
v 0.00000 0.11340 2.56500 0.000 0.000 0.000
v 0.18540 0.18540 2.63160 0.000 0.000 0.000
v 0.00000 0.09000 2.62800 0.000 0.000 0.000
v 0.19980 0.15120 2.73960 0.000 0.000 0.000
v 0.00000 0.04680 2.68200 0.000 0.000 0.000
v 0.22500 0.08280 2.85120 0.000 0.000 0.000
v 0.22680 -0.06660 2.80260 0.000 0.000 0.000
v 0.22860 -0.06300 2.79000 0.000 0.000 0.000
v 0.23940 -0.05940 2.80260 0.000 0.000 0.000
v 0.23220 -0.05580 2.77740 0.000 0.000 0.000
v 0.22500 -0.06300 2.81520 0.000 0.000 0.000
v 0.22680 -0.05580 2.82420 0.000 0.000 0.000
v 0.23400 -0.04860 2.79000 0.000 0.000 0.000
v 0.23580 -0.04500 2.80260 0.000 0.000 0.000
v 0.23040 -0.04860 2.81520 0.000 0.000 0.000
v 0.23940 0.05940 2.80260 0.000 0.000 0.000
v 0.22860 0.06300 2.79000 0.000 0.000 0.000
v 0.22680 0.06660 2.80260 0.000 0.000 0.000
v 0.23220 0.05580 2.77740 0.000 0.000 0.000
v 0.22500 0.06300 2.81520 0.000 0.000 0.000
v 0.22680 0.05580 2.82420 0.000 0.000 0.000
v 0.23400 0.04860 2.79000 0.000 0.000 0.000
v 0.23580 0.04500 2.80260 0.000 0.000 0.000
v 0.23040 0.04860 2.81520 0.000 0.000 0.000
v 0.24480 -0.02520 2.80260 0.000 0.000 0.000
v 0.24300 -0.01620 2.77560 0.000 0.000 0.000
v 0.26280 0.00000 2.80260 0.000 0.000 0.000
v 0.24300 0.00000 2.74680 0.000 0.000 0.000
v 0.24300 -0.01620 2.82960 0.000 0.000 0.000
v 0.24300 0.00000 2.85120 0.000 0.000 0.000
v 0.24300 0.01620 2.77560 0.000 0.000 0.000
v 0.24480 0.02520 2.80260 0.000 0.000 0.000
v 0.24300 0.01620 2.82960 0.000 0.000 0.000
vt 0.10156 0.99219
vt 0.11719 0.89844
vt 0.00781 0.99219
vt 0.24219 0.99219
vt 0.24219 0.89844
vt 0.32031 0.89844
vt 0.32031 0.99219
vt 0.41406 0.89844
vt 0.41406 0.99219
vt 0.17969 0.89844
vt 0.19531 0.99219
vt 0.08594 0.89844
vt 0.08594 0.99219
vt 0.00781 0.99219
vt 0.00781 0.89844
vt 0.00781 0.89844
vt 0.11719 0.89844
vt 0.41406 0.89844
vt 0.17969 0.89844
vt 0.08594 0.89844
vt 0.32031 0.89844
vt 0.24219 0.89844
vt 0.00781 0.89844
vt 0.00781 0.89844
vt 0.66406 0.60156
vt 0.55469 0.58594
vt 0.66406 0.80469
vt 0.66406 0.52344
vt 0.55469 0.52344
vt 0.55469 0.80469
vt 0.42969 0.66406
vt 0.42969 0.58594
vt 0.50781 0.52344
vt 0.47656 0.41406
vt 0.55469 0.41406
vt 0.42969 0.41406
vt 0.42969 0.52344
vt 0.42969 0.80469
vt 0.66406 0.41406
vt 0.22656 0.60156
vt 0.11719 0.60156
vt 0.11719 0.69531
vt 0.22656 0.67969
vt 0.11719 0.52344
vt 0.22656 0.52344
vt 0.11719 0.80469
vt 0.22656 0.41406
vt 0.00781 0.80469
vt 0.00781 0.69531
vt 0.00781 0.60156
vt 0.00781 0.52344
vt 0.11719 0.41406
vt 0.00781 0.41406
vt 0.00781 0.88281
vt 0.11719 0.88281
vt 0.22656 0.88281
vt 0.22656 0.80469
vt 0.32031 0.80469
vt 0.30469 0.88281
vt 0.41406 0.88281
vt 0.41406 0.78906
vt 0.35156 0.64844
vt 0.41406 0.67969
vt 0.41406 0.41406
vt 0.24219 0.61719
vt 0.24219 0.41406
vt 0.24219 0.80469
vt 0.16406 0.24219
vt 0.00781 0.17969
vt 0.00781 0.24219
vt 0.00781 0.08594
vt 0.17969 0.13281
vt 0.17969 0.02344
vt 0.00781 0.02344
vt 0.30469 0.02344
vt 0.24219 0.24219
vt 0.30469 0.13281
vt 0.30469 0.24219
vt 0.39844 0.13281
vt 0.39844 0.02344
vt 0.52344 0.13281
vt 0.39844 0.24219
vt 0.52344 0.24219
vt 0.66406 0.13281
vt 0.66406 0.24219
vt 0.66406 0.02344
vt 0.52344 0.02344
vt 0.52344 0.24219
vt 0.52344 0.13281
vt 0.39844 0.24219
vt 0.52344 0.02344
vt 0.39844 0.13281
vt 0.39844 0.02344
vt 0.30469 0.02344
vt 0.30469 0.13281
vt 0.17969 0.13281
vt 0.17969 0.02344
vt 0.00781 0.08594
vt 0.16406 0.24219
vt 0.00781 0.17969
vt 0.00781 0.24219
vt 0.00781 0.02344
vt 0.24219 0.24219
vt 0.30469 0.24219
vt 0.82031 0.85156
vt 0.82031 0.49219
vt 0.75781 0.88281
vt 0.99219 0.49219
vt 0.99219 0.00781
vt 0.67969 0.00781
vt 0.67969 0.49219
vt 0.67969 0.94531
vt 0.99219 0.83594
vt 0.82031 0.85156
vt 0.99219 0.49219
vt 0.82031 0.49219
vt 0.75781 0.88281
vt 0.99219 0.00781
vt 0.67969 0.00781
vt 0.67969 0.49219
vt 0.67969 0.94531
vt 0.53906 0.47656
vt 0.60156 0.41406
vt 0.49219 0.50781
vt 0.60156 0.41406
vt 0.60156 0.41406
vt 0.60156 0.41406
vt 0.60156 0.41406
vt 0.60156 0.41406
vt 0.60156 0.41406
vt 0.60156 0.41406
vt 0.60156 0.41406
vt 0.60156 0.41406
vt 0.60156 0.41406
vt 0.53906 0.47656
vt 0.66406 0.80469
vt 0.55469 0.58594
vt 0.66406 0.60156
vt 0.66406 0.52344
vt 0.55469 0.52344
vt 0.55469 0.80469
vt 0.42969 0.66406
vt 0.42969 0.58594
vt 0.50781 0.52344
vt 0.47656 0.41406
vt 0.55469 0.41406
vt 0.42969 0.41406
vt 0.42969 0.52344
vt 0.42969 0.80469
vt 0.66406 0.41406
vt 0.11719 0.69531
vt 0.11719 0.60156
vt 0.22656 0.60156
vt 0.22656 0.67969
vt 0.11719 0.52344
vt 0.22656 0.52344
vt 0.11719 0.80469
vt 0.22656 0.41406
vt 0.00781 0.80469
vt 0.00781 0.69531
vt 0.00781 0.60156
vt 0.00781 0.52344
vt 0.11719 0.41406
vt 0.00781 0.41406
vt 0.00781 0.88281
vt 0.11719 0.88281
vt 0.22656 0.88281
vt 0.22656 0.80469
vt 0.32031 0.80469
vt 0.30469 0.88281
vt 0.41406 0.88281
vt 0.41406 0.78906
vt 0.35156 0.64844
vt 0.41406 0.67969
vt 0.41406 0.41406
vt 0.24219 0.61719
vt 0.24219 0.41406
vt 0.24219 0.80469
vt 0.44531 0.58594
vt 0.47656 0.58594
vt 0.44531 0.67969
vt 0.44531 0.74219
vt 0.44531 0.42969
vt 0.42969 0.42969
vt 0.42969 0.58594
vt 0.42969 0.74219
vt 0.46094 0.74219
vt 0.44531 0.67969
vt 0.47656 0.58594
vt 0.44531 0.58594
vt 0.44531 0.74219
vt 0.44531 0.42969
vt 0.42969 0.42969
vt 0.42969 0.58594
vt 0.42969 0.74219
vt 0.46094 0.74219
vt 0.42969 0.99219
vt 0.57031 0.89844
vt 0.42969 0.89844
vt 0.57031 0.99219
vt 0.66406 0.89844
vt 0.66406 0.82031
vt 0.57031 0.82031
vt 0.42969 0.82031
vt 0.57031 0.89844
vt 0.57031 0.99219
vt 0.66406 0.89844
vt 0.66406 0.82031
vt 0.57031 0.82031
vt 0.58594 0.32031
vt 0.58594 0.25781
vt 0.66406 0.32031
vt 0.66406 0.25781
vt 0.58594 0.39844
vt 0.66406 0.39844
vt 0.58594 0.25781
vt 0.58594 0.32031
vt 0.58594 0.39844
vt 0.58594 0.32031
vt 0.58594 0.25781
vt 0.66406 0.32031
vt 0.66406 0.25781
vt 0.58594 0.39844
vt 0.66406 0.39844
vt 0.58594 0.25781
vt 0.58594 0.32031
vt 0.58594 0.39844
vt 0.66406 0.32031
vt 0.58594 0.25781
vt 0.58594 0.32031
vt 0.66406 0.25781
vt 0.58594 0.39844
vt 0.66406 0.39844
vt 0.58594 0.25781
vt 0.58594 0.32031
vt 0.58594 0.39844
vt 0.35156 0.39844
vt 0.57031 0.39844
vt 0.35156 0.25781
vt 0.57031 0.25781
vt 0.00781 0.30469
vt 0.00781 0.39844
vt 0.00781 0.25781
vt 0.35156 0.39844
vt 0.35156 0.25781
vt 0.57031 0.39844
vt 0.57031 0.25781
vt 0.33594 0.39844
vt 0.33594 0.25781
vt 0.00781 0.25781
vt 0.00781 0.39844
vt 0.33594 0.39844
vt 0.33594 0.25781
vt 0.57031 0.25781
vt 0.57031 0.39844
vt 0.42969 0.25781
vt 0.32031 0.25781
vt 0.32031 0.39844
vt 0.08594 0.25781
vt 0.08594 0.39844
vt 0.14844 0.25781
vt 0.32031 0.25781
vt 0.32031 0.39844
vt 0.57031 0.25781
vt 0.42969 0.25781
vt 0.57031 0.39844
vt 0.32031 0.25781
vt 0.32031 0.39844
vt 0.08594 0.25781
vt 0.08594 0.39844
vt 0.14844 0.25781
vt 0.32031 0.25781
vt 0.32031 0.39844
vt 0.33594 0.39844
vt 0.33594 0.25781
vt 0.00781 0.25781
vt 0.00781 0.39844
vt 0.33594 0.39844
vt 0.33594 0.25781
vt 0.96094 0.99219
vt 0.99219 0.89844
vt 0.99219 0.99219
vt 0.96094 0.89844
vt 0.94531 0.99219
vt 0.94531 0.89844
vt 0.89844 0.99219
vt 0.89844 0.89844
vt 0.85156 0.99219
vt 0.85156 0.89844
vt 0.80469 0.89844
vt 0.83594 0.99219
vt 0.80469 0.99219
vt 0.71094 0.94531
vt 0.77344 0.99219
vt 0.80469 0.88281
vt 0.99219 0.86719
vt 0.74219 0.99219
vt 0.71094 0.99219
vt 0.69531 0.99219
vt 0.67969 0.99219
vt 0.80469 0.89844
vt 0.71094 0.94531
vt 0.80469 0.99219
vt 0.77344 0.99219
vt 0.83594 0.99219
vt 0.85156 0.99219
vt 0.85156 0.89844
vt 0.74219 0.99219
vt 0.71094 0.99219
vt 0.69531 0.99219
vt 0.67969 0.99219
vt 0.89844 0.89844
vt 0.89844 0.99219
vt 0.94531 0.89844
vt 0.94531 0.99219
vt 0.96094 0.89844
vt 0.96094 0.99219
vt 0.00781 0.00781
vt 0.00781 0.00781
vt 0.32031 0.00781
vt 0.00781 0.00781
vt 0.00781 0.00781
vt 0.00781 0.00781
vt 0.00781 0.00781
vt 0.00781 0.00781
vt 0.00781 0.00781
vt 0.32031 0.00781
vt 0.00781 0.00781
vt 0.00781 0.00781
vt 0.00781 0.00781
vt 0.00781 0.00781
vt 0.00781 0.00781
vt 0.00781 0.00781
vt 0.00781 0.00781
vt 0.00781 0.00781
vt 0.00781 0.00781
vt 0.00781 0.00781
vt 0.32031 0.00781
vt 0.00781 0.00781
vt 0.00781 0.00781
vt 0.00781 0.00781
vt 0.00781 0.00781
vt 0.00781 0.00781
vt 0.00781 0.00781
usemtl m0
f 1/1 2/2 3/3
f 4/4 2/2 1/1
f 4/4 5/5 2/2
f 4/4 6/6 5/5
f 7/7 6/6 4/4
f 7/7 8/8 6/6
f 9/9 8/8 7/7
f 9/9 10/10 8/8
f 11/11 10/10 9/9
f 11/11 12/12 10/10
f 11/11 13/13 12/12
f 13/13 14/14 12/12
f 12/12 14/14 15/15
f 2/2 16/16 3/3
f 3/3 17/17 1/1
f 1/1 17/17 4/4
f 7/7 18/18 9/9
f 9/9 19/19 11/11
f 18/18 19/19 9/9
f 19/19 20/20 11/11
f 20/20 13/13 11/11
f 20/20 14/14 13/13
f 21/21 18/18 7/7
f 4/4 21/21 7/7
f 17/17 22/22 4/4
f 22/22 21/21 4/4
f 23/23 14/14 20/20
f 3/3 24/24 17/17
f 25/25 26/26 27/27
f 25/25 28/28 26/26
f 26/26 28/28 29/29
f 27/27 26/26 30/30
f 30/30 26/26 31/31
f 31/31 26/26 32/32
f 26/26 29/29 33/33
f 26/26 33/33 32/32
f 29/29 34/34 33/33
f 28/28 35/35 29/29
f 29/29 35/35 34/34
f 33/33 34/34 36/36
f 33/33 36/36 37/37
f 32/32 33/33 37/37
f 30/30 31/31 38/38
f 28/28 39/39 35/35
f 40/40 41/41 42/42
f 43/43 40/40 42/42
f 40/40 44/44 41/41
f 45/45 44/44 40/40
f 46/46 43/43 42/42
f 45/45 47/47 44/44
f 46/46 42/42 48/48
f 42/42 49/49 48/48
f 42/42 41/41 49/49
f 41/41 50/50 49/49
f 41/41 44/44 50/50
f 44/44 51/51 50/50
f 44/44 52/52 51/51
f 47/47 52/52 44/44
f 52/52 53/53 51/51
f 46/46 48/48 54/54
f 55/55 46/46 54/54
f 56/56 46/46 55/55
f 57/57 46/46 56/56
f 57/57 43/43 46/46
f 56/56 58/58 57/57
f 59/59 58/58 56/56
f 59/59 60/60 58/58
f 60/60 61/61 58/58
f 61/61 62/62 58/58
f 63/63 62/62 61/61
f 63/63 64/64 62/62
f 62/62 65/65 58/58
f 62/62 64/64 65/65
f 64/64 66/66 65/65
f 58/58 65/65 67/67
f 68/68 69/69 70/70
f 68/68 71/71 69/69
f 72/72 71/71 68/68
f 72/72 73/73 71/71
f 73/73 74/74 71/71
f 72/72 75/75 73/73
f 76/76 72/72 68/68
f 76/76 77/77 72/72
f 77/77 75/75 72/72
f 78/78 77/77 76/76
f 79/79 75/75 77/77
f 79/79 80/80 75/75
f 81/81 80/80 79/79
f 82/82 81/81 79/79
f 82/82 79/79 77/77
f 82/82 77/77 78/78
f 83/83 81/81 82/82
f 83/83 84/84 81/81
f 85/85 84/84 83/83
f 84/84 86/86 81/81
f 81/81 86/86 87/87
f 81/81 87/87 80/80
f 88/88 84/84 85/85
f 89/89 84/84 88/88
f 89/89 86/86 84/84
f 90/90 89/89 88/88
f 91/91 86/86 89/89
f 92/92 89/89 90/90
f 93/93 91/91 89/89
f 92/92 93/93 89/89
f 94/94 93/93 92/92
f 95/95 92/92 90/90
f 95/95 94/94 92/92
f 96/96 94/94 95/95
f 97/97 94/94 96/96
f 98/98 97/97 96/96
f 99/99 98/98 96/96
f 100/100 98/98 99/99
f 101/101 100/100 99/99
f 98/98 102/102 97/97
f 99/99 96/96 103/103
f 96/96 95/95 103/103
f 103/103 95/95 104/104
f 104/104 95/95 90/90
f 105/105 106/106 107/107
f 108/108 106/106 105/105
f 108/108 109/109 106/106
f 109/109 110/110 106/106
f 106/106 111/111 107/107
f 106/106 110/110 111/111
f 107/107 111/111 112/112
f 113/113 108/108 105/105
f 114/114 115/115 113/113
f 114/114 116/116 115/115
f 117/117 116/116 114/114
f 116/116 118/118 115/115
f 116/116 119/119 118/118
f 117/117 120/120 116/116
f 120/120 119/119 116/116
f 121/121 120/120 117/117
f 122/122 123/123 124/124
f 124/124 123/123 125/125
f 124/124 125/125 126/126
f 124/124 126/126 127/127
f 124/124 127/127 128/128
f 124/124 128/128 129/129
f 129/129 130/130 124/124
f 130/130 131/131 124/124
f 131/131 132/132 124/124
f 132/132 133/133 124/124
f 133/133 134/134 124/124
f 124/124 134/134 135/135
f 136/136 137/137 138/138
f 137/137 139/139 138/138
f 140/140 139/139 137/137
f 141/141 137/137 136/136
f 142/142 137/137 141/141
f 143/143 137/137 142/142
f 144/144 140/140 137/137
f 143/143 144/144 137/137
f 144/144 145/145 140/140
f 140/140 146/146 139/139
f 145/145 146/146 140/140
f 147/147 145/145 144/144
f 148/148 147/147 144/144
f 148/148 144/144 143/143
f 149/149 142/142 141/141
f 146/146 150/150 139/139
f 151/151 152/152 153/153
f 151/151 153/153 154/154
f 152/152 155/155 153/153
f 153/153 155/155 156/156
f 151/151 154/154 157/157
f 155/155 158/158 156/156
f 159/159 151/151 157/157
f 159/159 160/160 151/151
f 160/160 152/152 151/151
f 160/160 161/161 152/152
f 161/161 155/155 152/152
f 161/161 162/162 155/155
f 162/162 163/163 155/155
f 155/155 163/163 158/158
f 162/162 164/164 163/163
f 165/165 159/159 157/157
f 165/165 157/157 166/166
f 166/166 157/157 167/167
f 167/167 157/157 168/168
f 157/157 154/154 168/168
f 168/168 169/169 167/167
f 167/167 169/169 170/170
f 169/169 171/171 170/170
f 169/169 172/172 171/171
f 169/169 173/173 172/172
f 172/172 173/173 174/174
f 173/173 175/175 174/174
f 169/169 176/176 173/173
f 176/176 175/175 173/173
f 176/176 177/177 175/175
f 178/178 176/176 169/169
f 179/179 180/180 181/181
f 181/181 180/180 182/182
f 179/179 183/183 180/180
f 183/183 184/184 180/180
f 180/180 184/184 185/185
f 180/180 185/185 186/186
f 187/187 180/180 186/186
f 182/182 180/180 187/187
f 188/188 189/189 190/190
f 191/191 189/189 188/188
f 189/189 192/192 190/190
f 189/189 193/193 192/192
f 194/194 193/193 189/189
f 195/195 194/194 189/189
f 195/195 189/189 196/196
f 196/196 189/189 191/191
f 197/197 198/198 199/199
f 200/200 198/198 197/197
f 201/201 198/198 200/200
f 201/201 202/202 198/198
f 202/202 203/203 198/198
f 198/198 203/203 199/199
f 203/203 204/204 199/199
f 199/199 205/205 197/197
f 197/197 205/205 206/206
f 206/206 205/205 207/207
f 205/205 208/208 207/207
f 205/205 209/209 208/208
f 199/199 204/204 209/209
f 199/199 209/209 205/205
f 210/210 211/211 212/212
f 211/211 213/213 212/212
f 210/210 212/212 214/214
f 214/214 212/212 215/215
f 212/212 213/213 216/216
f 212/212 216/216 217/217
f 218/218 212/212 217/217
f 215/215 212/212 218/218
f 219/219 220/220 221/221
f 220/220 222/222 221/221
f 219/219 221/221 223/223
f 223/223 221/221 224/224
f 221/221 222/222 225/225
f 221/221 225/225 226/226
f 227/227 221/221 226/226
f 224/224 221/221 227/227
f 228/228 229/229 230/230
f 228/228 231/231 229/229
f 232/232 228/228 230/230
f 233/233 228/228 232/232
f 234/234 231/231 228/228
f 235/235 234/234 228/228
f 235/235 228/228 236/236
f 236/236 228/228 233/233
f 237/237 238/238 239/239
f 238/238 240/240 239/239
f 237/237 239/239 241/241
f 242/242 237/237 241/241
f 241/241 239/239 243/243
f 241/241 244/244 242/242
f 243/243 245/245 241/241
f 241/241 245/245 244/244
f 245/245 246/246 244/244
f 245/245 247/247 246/246
f 238/238 248/248 240/240
f 248/248 249/249 240/240
f 248/248 250/250 249/249
f 251/251 250/250 248/248
f 251/251 252/252 250/250
f 250/250 252/252 253/253
f 252/252 254/254 253/253
f 252/252 255/255 254/254
f 255/255 256/256 254/254
f 255/255 257/257 256/256
f 258/258 257/257 255/255
f 258/258 259/259 257/257
f 260/260 259/259 258/258
f 260/260 261/261 259/259
f 260/260 262/262 261/261
f 263/263 262/262 260/260
f 264/264 265/265 266/266
f 265/265 267/267 266/266
f 266/266 267/267 268/268
f 267/267 269/269 268/268
f 268/268 269/269 270/270
f 269/269 271/271 270/270
f 271/271 272/272 270/270
f 270/270 272/272 273/273
f 264/264 266/266 274/274
f 275/275 264/264 274/274
f 275/275 274/274 276/276
f 276/276 274/274 277/277
f 278/278 276/276 277/277
f 279/279 276/276 278/278
f 247/247 279/279 278/278
f 247/247 278/278 246/246
f 280/280 281/281 282/282
f 280/280 283/283 281/281
f 284/284 283/283 280/280
f 284/284 285/285 283/283
f 286/286 285/285 284/284
f 286/286 287/287 285/285
f 286/286 288/288 287/287
f 287/287 288/288 289/289
f 288/288 290/290 289/289
f 288/288 291/291 290/290
f 291/291 292/292 290/290
f 290/290 292/292 293/293
f 292/292 294/294 293/293
f 290/290 293/293 295/295
f 290/290 295/295 296/296
f 287/287 296/296 285/285
f 285/285 296/296 283/283
f 283/283 296/296 281/281
f 289/289 296/296 287/287
f 289/289 290/290 296/296
f 294/294 297/297 293/293
f 297/297 298/298 293/293
f 298/298 299/299 293/293
f 299/299 300/300 293/293
f 296/296 295/295 301/301
f 295/295 302/302 301/301
f 302/302 303/303 301/301
f 302/302 304/304 303/303
f 301/301 303/303 305/305
f 301/301 305/305 306/306
f 307/307 301/301 306/306
f 296/296 301/301 307/307
f 302/302 308/308 304/304
f 302/302 309/309 308/308
f 302/302 310/310 309/309
f 302/302 311/311 310/310
f 307/307 306/306 312/312
f 312/312 306/306 313/313
f 314/314 312/312 313/313
f 315/315 314/314 313/313
f 314/314 296/296 312/312
f 312/312 296/296 307/307
f 316/316 314/314 315/315
f 316/316 296/296 314/314
f 317/317 316/316 315/315
f 281/281 296/296 316/316
f 281/281 316/316 317/317
f 282/282 281/281 317/317
usemtl m1
f 318/318 319/319 320/320
f 319/319 321/321 320/320
f 318/318 320/320 322/322
f 322/322 320/320 323/323
f 320/320 321/321 324/324
f 320/320 324/324 325/325
f 326/326 320/320 325/325
f 323/323 320/320 326/326
f 327/327 328/328 329/329
f 327/327 330/330 328/328
f 331/331 327/327 329/329
f 332/332 327/327 331/331
f 333/333 330/330 327/327
f 334/334 333/333 327/327
f 334/334 327/327 335/335
f 335/335 327/327 332/332
f 336/336 337/337 338/338
f 337/337 339/339 338/338
f 336/336 338/338 340/340
f 340/340 338/338 341/341
f 338/338 339/339 342/342
f 338/338 342/342 343/343
f 344/344 338/338 343/343
f 341/341 338/338 344/344
