mtllib acce363.mtl
o acce363
v 0.22500 -0.04698 3.07368 0.000 0.000 1.000
v 0.22842 -0.04230 3.07098 0.000 0.000 1.000
v 0.22734 -0.04446 3.07512 0.000 0.000 0.000
v 0.22896 -0.04068 3.07494 0.000 0.000 1.000
v 0.22896 -0.04194 3.07782 0.000 0.000 1.000
v 0.22446 -0.04698 3.07638 0.000 0.000 1.000
v 0.22806 -0.04338 3.07944 0.000 0.000 1.000
v 0.22590 -0.04554 3.07944 0.000 0.000 1.000
v 0.22734 0.04446 3.07512 0.000 0.000 0.000
v 0.22842 0.04230 3.07098 0.000 0.000 1.000
v 0.22500 0.04698 3.07368 0.000 0.000 1.000
v 0.22896 0.04068 3.07494 0.000 0.000 1.000
v 0.22896 0.04194 3.07782 0.000 0.000 1.000
v 0.22446 0.04698 3.07638 0.000 0.000 1.000
v 0.22806 0.04338 3.07944 0.000 0.000 1.000
v 0.22590 0.04554 3.07944 0.000 0.000 1.000
v 0.16074 -0.12888 3.21498 0.000 0.000 0.000
v 0.13968 -0.11484 3.17736 0.000 0.000 0.000
v 0.18594 -0.11196 3.23442 0.000 0.000 0.000
v 0.17496 -0.06732 3.19230 0.000 0.000 0.000
v 0.20754 -0.08118 3.19446 0.000 0.000 0.000
v 0.20106 -0.11718 3.23298 0.000 0.000 0.000
v 0.19296 -0.14040 3.25908 0.000 0.000 0.000
v 0.20268 -0.06012 3.17016 0.000 0.000 0.000
v 0.17244 -0.08604 3.16638 0.000 0.000 0.000
v 0.13986 -0.09648 3.15216 0.000 0.000 0.000
v 0.12852 -0.09972 3.14640 0.000 0.000 0.000
v 0.18144 -0.13590 3.24126 0.000 0.000 0.000
v 0.23058 -0.03852 3.07494 0.000 0.000 0.000
v 0.23778 -0.03384 3.05964 0.000 0.000 0.000
v 0.24174 -0.03276 3.09726 0.000 0.000 0.000
v 0.23634 -0.03258 3.07404 0.000 0.000 0.000
v 0.23850 0.00000 3.08286 0.000 0.000 0.000
v 0.24498 0.00000 3.10302 0.000 0.000 0.000
v 0.24588 -0.03312 3.03246 0.000 0.000 0.000
v 0.23220 -0.04680 3.04614 0.000 0.000 0.000
v 0.23346 -0.04230 3.05766 0.000 0.000 0.000
v 0.25398 -0.01368 3.03480 0.000 0.000 0.000
v 0.25128 -0.01512 3.02850 0.000 0.000 0.000
v 0.21834 -0.06822 3.06414 0.000 0.000 0.000
v 0.21870 -0.05868 3.06414 0.000 0.000 0.000
v 0.20142 -0.08280 3.08682 0.000 0.000 0.000
v 0.21312 -0.06588 3.07836 0.000 0.000 0.000
v 0.19206 -0.08550 3.10428 0.000 0.000 0.000
v 0.17226 -0.10314 3.08196 0.000 0.000 0.000
v 0.21474 -0.06768 3.09366 0.000 0.000 0.000
v 0.21258 -0.06066 3.13380 0.000 0.000 0.000
v 0.21960 -0.05904 3.09168 0.000 0.000 0.000
v 0.21366 -0.07002 3.04650 0.000 0.000 0.000
v 0.17244 -0.08964 3.05388 0.000 0.000 0.000
v 0.13572 -0.11070 3.06540 0.000 0.000 0.000
v 0.12474 -0.11340 3.10950 0.000 0.000 0.000
v 0.11718 -0.12096 3.08682 0.000 0.000 0.000
v 0.10044 -0.13464 3.12228 0.000 0.000 0.000
v 0.17604 -0.09396 3.14730 0.000 0.000 0.000
v 0.13986 -0.09648 3.15216 0.000 0.000 0.000
v 0.12852 -0.09972 3.14640 0.000 0.000 0.000
v 0.17244 -0.08604 3.16638 0.000 0.000 0.000
v 0.20268 -0.06012 3.17016 0.000 0.000 0.000
v 0.22392 -0.03474 3.14424 0.000 0.000 0.000
v 0.24300 0.00000 3.12966 0.000 0.000 0.000
v 0.23004 0.00000 3.15180 0.000 0.000 0.000
v 0.20196 0.00000 3.18258 0.000 0.000 0.000
v 0.22392 0.03474 3.14424 0.000 0.000 0.000
v 0.24174 0.03276 3.09726 0.000 0.000 0.000
v 0.21258 0.06066 3.13380 0.000 0.000 0.000
v 0.20268 0.06012 3.17016 0.000 0.000 0.000
v 0.17244 0.08604 3.16638 0.000 0.000 0.000
v 0.23634 0.03258 3.07404 0.000 0.000 0.000
v 0.25398 0.01368 3.03480 0.000 0.000 0.000
v 0.23778 0.03384 3.05964 0.000 0.000 0.000
v 0.23058 0.03852 3.07494 0.000 0.000 0.000
v 0.21960 0.05904 3.09168 0.000 0.000 0.000
v 0.21474 0.06768 3.09366 0.000 0.000 0.000
v 0.24588 0.03312 3.03246 0.000 0.000 0.000
v 0.25128 0.01512 3.02850 0.000 0.000 0.000
v 0.23220 0.04680 3.04614 0.000 0.000 0.000
v 0.23346 0.04230 3.05766 0.000 0.000 0.000
v 0.21834 0.06822 3.06414 0.000 0.000 0.000
v 0.21870 0.05868 3.06414 0.000 0.000 0.000
v 0.20142 0.08280 3.08682 0.000 0.000 0.000
v 0.21312 0.06588 3.07836 0.000 0.000 0.000
v 0.19206 0.08550 3.10428 0.000 0.000 0.000
v 0.17226 0.10314 3.08196 0.000 0.000 0.000
v 0.21366 0.07002 3.04650 0.000 0.000 0.000
v 0.17244 0.08964 3.05388 0.000 0.000 0.000
v 0.13572 0.11070 3.06540 0.000 0.000 0.000
v 0.12474 0.11340 3.10950 0.000 0.000 0.000
v 0.11718 0.12096 3.08682 0.000 0.000 0.000
v 0.10044 0.13464 3.12228 0.000 0.000 0.000
v 0.17604 0.09396 3.14730 0.000 0.000 0.000
v 0.13986 0.09648 3.15216 0.000 0.000 0.000
v 0.12852 0.09972 3.14640 0.000 0.000 0.000
v 0.17172 0.10170 3.11508 0.000 0.000 0.000
v 0.19296 -0.14040 3.25908 0.000 0.000 0.000
v 0.19170 -0.10368 3.24090 0.000 0.000 0.000
v 0.17406 -0.10368 3.24972 0.000 0.000 0.000
v 0.19044 -0.05580 3.21336 0.000 0.000 0.000
v 0.14418 -0.06966 3.22074 0.000 0.000 0.000
v 0.12870 -0.05328 3.19410 0.000 0.000 0.000
v 0.13968 -0.11484 3.17736 0.000 0.000 0.000
v 0.12852 -0.09972 3.14640 0.000 0.000 0.000
v 0.18684 -0.03474 3.19014 0.000 0.000 0.000
v 0.16074 -0.12888 3.21498 0.000 0.000 0.000
v 0.18144 -0.13590 3.24126 0.000 0.000 0.000
v 0.19296 -0.14040 3.25908 0.000 0.000 0.000
v 0.07794 -0.07830 3.14748 0.000 0.000 0.000
v 0.12852 -0.09972 3.14640 0.000 0.000 0.000
v 0.12870 -0.05328 3.19410 0.000 0.000 0.000
v 0.08514 -0.05184 3.17862 0.000 0.000 0.000
v 0.12474 -0.11340 3.10950 0.000 0.000 0.000
v 0.18684 -0.03474 3.19014 0.000 0.000 0.000
v 0.08820 0.00000 3.18744 0.000 0.000 0.000
v 0.17226 0.00000 3.20220 0.000 0.000 0.000
v 0.20268 -0.06012 3.17016 0.000 0.000 0.000
v 0.20196 0.00000 3.18258 0.000 0.000 0.000
v 0.07686 -0.09234 3.09942 0.000 0.000 0.000
v 0.13572 -0.11070 3.06540 0.000 0.000 0.000
v 0.07794 -0.08982 3.06540 0.000 0.000 0.000
v 0.13770 -0.09774 3.04434 0.000 0.000 0.000
v 0.07884 -0.07272 3.03354 0.000 0.000 0.000
v 0.14112 -0.07002 3.02058 0.000 0.000 0.000
v 0.08424 -0.06498 3.01734 0.000 0.000 0.000
v 0.19206 -0.03888 3.01284 0.000 0.000 0.000
v 0.09054 0.00000 3.00654 0.000 0.000 0.000
v 0.19242 0.00000 3.00600 0.000 0.000 0.000
v 0.18684 0.03474 3.19014 0.000 0.000 0.000
v 0.08514 0.05184 3.17862 0.000 0.000 0.000
v 0.12870 0.05328 3.19410 0.000 0.000 0.000
v 0.07794 0.07830 3.14748 0.000 0.000 0.000
v 0.12852 0.09972 3.14640 0.000 0.000 0.000
v 0.12474 0.11340 3.10950 0.000 0.000 0.000
v 0.07686 0.09234 3.09942 0.000 0.000 0.000
v 0.13572 0.11070 3.06540 0.000 0.000 0.000
v 0.07794 0.08982 3.06540 0.000 0.000 0.000
v 0.13770 0.09774 3.04434 0.000 0.000 0.000
v 0.19206 0.03888 3.01284 0.000 0.000 0.000
v 0.08424 0.06498 3.01734 0.000 0.000 0.000
v 0.14112 0.07002 3.02058 0.000 0.000 0.000
v 0.07884 0.07272 3.03354 0.000 0.000 0.000
v 0.04914 0.01800 3.16062 0.000 0.000 0.000
v 0.04500 -0.06066 3.13236 0.000 0.000 0.000
v 0.04500 0.06066 3.13236 0.000 0.000 0.000
v 0.20754 -0.08118 3.19446 0.000 0.000 0.000
v 0.20268 -0.06012 3.17016 0.000 0.000 0.000
v 0.18684 -0.03474 3.19014 0.000 0.000 0.000
v 0.19044 -0.05580 3.21336 0.000 0.000 0.000
v 0.19170 -0.10368 3.24090 0.000 0.000 0.000
v 0.20106 -0.11718 3.23298 0.000 0.000 0.000
v 0.19296 -0.14040 3.25908 0.000 0.000 0.000
v 0.15804 -0.10836 3.17682 0.000 0.000 0.000
v 0.14454 -0.10044 3.15360 0.000 0.000 0.000
v 0.17118 -0.08946 3.17088 0.000 0.000 0.000
v 0.17244 -0.08604 3.16638 0.000 0.000 0.000
v 0.13986 -0.09648 3.15216 0.000 0.000 0.000
v 0.20268 -0.06012 3.17016 0.000 0.000 0.000
v 0.18900 -0.07830 3.18114 0.000 0.000 0.000
v 0.18126 -0.10440 3.19338 0.000 0.000 0.000
v 0.13572 -0.11070 3.06540 0.000 0.000 0.000
v 0.13770 -0.09774 3.04434 0.000 0.000 0.000
v 0.10872 -0.12222 3.06504 0.000 0.000 0.000
v 0.17244 -0.08964 3.05388 0.000 0.000 0.000
v 0.17334 -0.06642 3.02292 0.000 0.000 0.000
v 0.21366 -0.07002 3.04650 0.000 0.000 0.000
v 0.14112 -0.07002 3.02058 0.000 0.000 0.000
v 0.19206 -0.03888 3.01284 0.000 0.000 0.000
v 0.20268 -0.04158 3.01950 0.000 0.000 0.000
v 0.23220 -0.04680 3.04614 0.000 0.000 0.000
v 0.22644 -0.02520 3.01104 0.000 0.000 0.000
v 0.24588 -0.03312 3.03246 0.000 0.000 0.000
v 0.24750 -0.01008 3.02274 0.000 0.000 0.000
v 0.24588 0.00000 3.01860 0.000 0.000 0.000
v 0.25128 -0.01512 3.02850 0.000 0.000 0.000
v 0.19242 0.00000 3.00600 0.000 0.000 0.000
v 0.22842 0.00000 3.00942 0.000 0.000 0.000
v 0.22644 0.02520 3.01104 0.000 0.000 0.000
v 0.24750 0.01008 3.02274 0.000 0.000 0.000
v 0.24588 0.03312 3.03246 0.000 0.000 0.000
v 0.25128 0.01512 3.02850 0.000 0.000 0.000
v 0.23220 0.04680 3.04614 0.000 0.000 0.000
v 0.20268 0.04158 3.01950 0.000 0.000 0.000
v 0.21366 0.07002 3.04650 0.000 0.000 0.000
v 0.19206 0.03888 3.01284 0.000 0.000 0.000
v 0.17334 0.06642 3.02292 0.000 0.000 0.000
v 0.14112 0.07002 3.02058 0.000 0.000 0.000
v 0.17244 0.08964 3.05388 0.000 0.000 0.000
v 0.13770 0.09774 3.04434 0.000 0.000 0.000
v 0.13572 0.11070 3.06540 0.000 0.000 0.000
v 0.10872 0.12222 3.06504 0.000 0.000 0.000
v 0.25128 -0.01512 3.02850 0.000 0.000 0.000
v 0.26190 0.00000 3.02778 0.000 0.000 0.000
v 0.25398 -0.01368 3.03480 0.000 0.000 0.000
v 0.24750 -0.01008 3.02274 0.000 0.000 0.000
v 0.24588 0.00000 3.01860 0.000 0.000 0.000
v 0.25470 0.00000 3.03930 0.000 0.000 0.000
v 0.24750 0.01008 3.02274 0.000 0.000 0.000
v 0.25128 0.01512 3.02850 0.000 0.000 0.000
v 0.25398 0.01368 3.03480 0.000 0.000 0.000
v 0.21870 -0.05868 3.06414 0.000 0.000 0.000
v 0.23346 -0.04230 3.05766 0.000 0.000 0.000
v 0.22410 -0.04572 3.07134 0.000 0.000 0.000
v 0.23778 -0.03384 3.05964 0.000 0.000 0.000
v 0.21312 -0.06588 3.07836 0.000 0.000 0.000
v 0.21474 -0.06768 3.09366 0.000 0.000 0.000
v 0.22968 -0.03942 3.07386 0.000 0.000 0.000
v 0.21996 -0.05850 3.08934 0.000 0.000 0.000
v 0.25470 0.00000 3.03930 0.000 0.000 0.000
v 0.18594 0.11196 3.23442 0.000 0.000 0.000
v 0.13968 0.11484 3.17736 0.000 0.000 0.000
v 0.16074 0.12888 3.21498 0.000 0.000 0.000
v 0.17496 0.06732 3.19230 0.000 0.000 0.000
v 0.20754 0.08118 3.19446 0.000 0.000 0.000
v 0.20106 0.11718 3.23298 0.000 0.000 0.000
v 0.19296 0.14040 3.25908 0.000 0.000 0.000
v 0.20268 0.06012 3.17016 0.000 0.000 0.000
v 0.17244 0.08604 3.16638 0.000 0.000 0.000
v 0.13986 0.09648 3.15216 0.000 0.000 0.000
v 0.12852 0.09972 3.14640 0.000 0.000 0.000
v 0.18144 0.13590 3.24126 0.000 0.000 0.000
v 0.17406 0.10368 3.24972 0.000 0.000 0.000
v 0.19170 0.10368 3.24090 0.000 0.000 0.000
v 0.19296 0.14040 3.25908 0.000 0.000 0.000
v 0.19044 0.05580 3.21336 0.000 0.000 0.000
v 0.14418 0.06966 3.22074 0.000 0.000 0.000
v 0.12870 0.05328 3.19410 0.000 0.000 0.000
v 0.13968 0.11484 3.17736 0.000 0.000 0.000
v 0.12852 0.09972 3.14640 0.000 0.000 0.000
v 0.18684 0.03474 3.19014 0.000 0.000 0.000
v 0.16074 0.12888 3.21498 0.000 0.000 0.000
v 0.18144 0.13590 3.24126 0.000 0.000 0.000
v 0.19296 0.14040 3.25908 0.000 0.000 0.000
v 0.18684 0.03474 3.19014 0.000 0.000 0.000
v 0.20268 0.06012 3.17016 0.000 0.000 0.000
v 0.20754 0.08118 3.19446 0.000 0.000 0.000
v 0.19044 0.05580 3.21336 0.000 0.000 0.000
v 0.19170 0.10368 3.24090 0.000 0.000 0.000
v 0.20106 0.11718 3.23298 0.000 0.000 0.000
v 0.19296 0.14040 3.25908 0.000 0.000 0.000
v 0.17118 0.08946 3.17088 0.000 0.000 0.000
v 0.14454 0.10044 3.15360 0.000 0.000 0.000
v 0.15804 0.10836 3.17682 0.000 0.000 0.000
v 0.17244 0.08604 3.16638 0.000 0.000 0.000
v 0.13986 0.09648 3.15216 0.000 0.000 0.000
v 0.20268 0.06012 3.17016 0.000 0.000 0.000
v 0.18900 0.07830 3.18114 0.000 0.000 0.000
v 0.18126 0.10440 3.19338 0.000 0.000 0.000
v 0.20268 0.06012 3.17016 0.000 0.000 0.000
v 0.22410 0.04572 3.07134 0.000 0.000 0.000
v 0.23346 0.04230 3.05766 0.000 0.000 0.000
v 0.21870 0.05868 3.06414 0.000 0.000 0.000
v 0.23778 0.03384 3.05964 0.000 0.000 0.000
v 0.21312 0.06588 3.07836 0.000 0.000 0.000
v 0.21474 0.06768 3.09366 0.000 0.000 0.000
v 0.21996 0.05850 3.08934 0.000 0.000 0.000
v 0.22968 0.03942 3.07386 0.000 0.000 0.000
v 0.20934 -0.07488 3.10554 0.000 0.000 0.000
v 0.21960 -0.05904 3.09168 0.000 0.000 0.000
v 0.21474 -0.06768 3.09366 0.000 0.000 0.000
v 0.21474 0.06768 3.09366 0.000 0.000 0.000
v 0.21960 0.05904 3.09168 0.000 0.000 0.000
v 0.20934 0.07488 3.10554 0.000 0.000 0.000
v 0.24642 -0.00072 3.01878 0.000 0.000 0.000
v 0.22824 -0.00072 3.00924 0.000 0.000 0.000
v 0.24606 0.00000 3.01824 0.000 0.000 0.000
v 0.22986 0.00000 3.00798 0.000 0.000 0.000
v 0.22626 0.00000 3.00816 0.000 0.000 0.000
v 0.22824 0.00072 3.00924 0.000 0.000 0.000
v 0.24642 0.00072 3.01878 0.000 0.000 0.000
v 0.20502 -0.02448 3.00726 0.000 0.000 0.000
v 0.20322 -0.02340 3.00654 0.000 0.000 0.000
v 0.20502 0.02448 3.00726 0.000 0.000 0.000
v 0.20322 0.02340 3.00654 0.000 0.000 0.000
v 0.08730 -0.03762 3.02364 0.000 0.000 0.000
v 0.07974 0.00000 2.92644 0.000 0.000 0.000
v 0.13698 0.00000 2.97774 0.000 0.000 0.000
v 0.04716 -0.03942 2.95434 0.000 0.000 0.000
v 0.00936 0.00000 2.95470 0.000 0.000 0.000
v -0.00198 -0.06948 2.96784 0.000 0.000 0.000
v 0.04554 -0.03420 2.96802 0.000 0.000 0.000
v 0.04050 -0.06984 2.96676 0.000 0.000 0.000
v -0.09486 -0.03906 2.96244 0.000 0.000 0.000
v -0.08316 0.00000 2.96838 0.000 0.000 0.000
v -0.15192 -0.04230 2.96838 0.000 0.000 0.000
v -0.14778 0.00000 2.97720 0.000 0.000 0.000
v -0.09090 -0.08028 2.96820 0.000 0.000 0.000
v -0.08550 -0.09648 2.99772 0.000 0.000 0.000
v -0.01656 -0.09630 3.01482 0.000 0.000 0.000
v -0.12402 -0.10584 2.98998 0.000 0.000 0.000
v -0.14868 -0.08550 2.95776 0.000 0.000 0.000
v -0.15192 -0.09810 2.98476 0.000 0.000 0.000
v -0.16812 -0.04788 2.98224 0.000 0.000 0.000
v -0.15192 -0.04230 2.96838 0.000 0.000 0.000
v -0.17838 0.00000 2.98026 0.000 0.000 0.000
v -0.18756 0.00000 3.02796 0.000 0.000 0.000
v -0.15858 -0.10368 3.03426 0.000 0.000 0.000
v -0.15966 -0.08010 3.06936 0.000 0.000 0.000
v -0.12402 -0.10278 3.04254 0.000 0.000 0.000
v -0.12402 -0.06588 3.07998 0.000 0.000 0.000
v -0.08550 -0.09306 3.04848 0.000 0.000 0.000
v -0.08550 -0.05292 3.08448 0.000 0.000 0.000
v -0.01872 -0.08136 3.05694 0.000 0.000 0.000
v -0.01692 -0.05040 3.08754 0.000 0.000 0.000
v -0.08550 0.00000 3.10158 0.000 0.000 0.000
v -0.01368 0.00000 3.10734 0.000 0.000 0.000
v 0.05526 -0.05256 3.11436 0.000 0.000 0.000
v 0.05778 0.00000 3.12660 0.000 0.000 0.000
v -0.12402 0.00000 3.09852 0.000 0.000 0.000
v 0.05094 -0.07362 3.08304 0.000 0.000 0.000
v -0.15822 0.00000 3.09096 0.000 0.000 0.000
v -0.18594 0.00000 3.05388 0.000 0.000 0.000
v 0.04752 -0.08892 3.06270 0.000 0.000 0.000
v 0.04284 -0.09018 3.03084 0.000 0.000 0.000
v 0.09036 -0.07830 2.97522 0.000 0.000 0.000
v 0.07614 -0.08172 3.02544 0.000 0.000 0.000
v 0.09612 -0.03996 2.97540 0.000 0.000 0.000
v 0.08730 -0.03762 3.02364 0.000 0.000 0.000
v 0.04554 -0.03420 2.96802 0.000 0.000 0.000
v -0.12402 0.06588 3.07998 0.000 0.000 0.000
v -0.08550 0.05292 3.08448 0.000 0.000 0.000
v -0.01692 0.05040 3.08754 0.000 0.000 0.000
v 0.05526 0.05256 3.11436 0.000 0.000 0.000
v -0.01872 0.08136 3.05694 0.000 0.000 0.000
v -0.08550 0.09306 3.04848 0.000 0.000 0.000
v -0.12402 0.10278 3.04254 0.000 0.000 0.000
v 0.05094 0.07362 3.08304 0.000 0.000 0.000
v -0.01656 0.09630 3.01482 0.000 0.000 0.000
v -0.15966 0.08010 3.06936 0.000 0.000 0.000
v -0.15858 0.10368 3.03426 0.000 0.000 0.000
v -0.12402 0.10584 2.98998 0.000 0.000 0.000
v -0.16812 0.04788 2.98224 0.000 0.000 0.000
v -0.15192 0.04230 2.96838 0.000 0.000 0.000
v -0.14868 0.08550 2.95776 0.000 0.000 0.000
v -0.09090 0.08028 2.96820 0.000 0.000 0.000
v -0.08550 0.09648 2.99772 0.000 0.000 0.000
v -0.00198 0.06948 2.96784 0.000 0.000 0.000
v -0.15192 0.09810 2.98476 0.000 0.000 0.000
v -0.09486 0.03906 2.96244 0.000 0.000 0.000
v 0.04716 0.03942 2.95434 0.000 0.000 0.000
v 0.08730 0.03762 3.02364 0.000 0.000 0.000
v -0.15192 0.04230 2.96838 0.000 0.000 0.000
v 0.04554 0.03420 2.96802 0.000 0.000 0.000
v 0.04050 0.06984 2.96676 0.000 0.000 0.000
v -0.17838 0.00000 2.98026 0.000 0.000 0.000
v 0.04284 0.09018 3.03084 0.000 0.000 0.000
v 0.09036 0.07830 2.97522 0.000 0.000 0.000
v 0.07614 0.08172 3.02544 0.000 0.000 0.000
v 0.09612 0.03996 2.97540 0.000 0.000 0.000
v 0.08730 0.03762 3.02364 0.000 0.000 0.000
v 0.04554 0.03420 2.96802 0.000 0.000 0.000
v 0.04752 0.08892 3.06270 0.000 0.000 0.000
v -0.14112 -0.07848 2.90232 0.000 0.000 0.000
v -0.08478 -0.06660 2.85786 0.000 0.000 0.000
v -0.08766 -0.07110 2.89026 0.000 0.000 0.000
v -0.06318 -0.06444 2.87856 0.000 0.000 0.000
v -0.09756 -0.07992 2.91168 0.000 0.000 0.000
v -0.13752 -0.08190 2.92734 0.000 0.000 0.000
v -0.14868 -0.08550 2.95776 0.000 0.000 0.000
v -0.09090 -0.08028 2.96820 0.000 0.000 0.000
v -0.06822 -0.05022 2.88972 0.000 0.000 0.000
v -0.06012 -0.04644 2.87622 0.000 0.000 0.000
v -0.09162 -0.05616 2.89494 0.000 0.000 0.000
v -0.09378 -0.04032 2.89746 0.000 0.000 0.000
v -0.09972 -0.04788 2.91528 0.000 0.000 0.000
v -0.09486 -0.03906 2.96244 0.000 0.000 0.000
v -0.07020 -0.03006 2.88468 0.000 0.000 0.000
v -0.07020 -0.03006 2.88468 0.000 0.000 0.000
v -0.09288 -0.03186 2.87154 0.000 0.000 0.000
v -0.09378 -0.04032 2.89746 0.000 0.000 0.000
v -0.14022 -0.04860 2.90934 0.000 0.000 0.000
v -0.09972 -0.04788 2.91528 0.000 0.000 0.000
v -0.13968 -0.04626 2.93112 0.000 0.000 0.000
v -0.09486 -0.03906 2.96244 0.000 0.000 0.000
v -0.15192 -0.04230 2.96838 0.000 0.000 0.000
v -0.14022 -0.04860 2.90934 0.000 0.000 0.000
v -0.08478 -0.06660 2.85786 0.000 0.000 0.000
v -0.14112 -0.07848 2.90232 0.000 0.000 0.000
v -0.09288 -0.03186 2.87154 0.000 0.000 0.000
v -0.06012 -0.04644 2.87622 0.000 0.000 0.000
v -0.06318 -0.06444 2.87856 0.000 0.000 0.000
v -0.13752 -0.08190 2.92734 0.000 0.000 0.000
v -0.13968 -0.04626 2.93112 0.000 0.000 0.000
v -0.14868 -0.08550 2.95776 0.000 0.000 0.000
v -0.15192 -0.04230 2.96838 0.000 0.000 0.000
v -0.07020 -0.03006 2.88468 0.000 0.000 0.000
v -0.08766 0.07110 2.89026 0.000 0.000 0.000
v -0.08478 0.06660 2.85786 0.000 0.000 0.000
v -0.14112 0.07848 2.90232 0.000 0.000 0.000
v -0.06318 0.06444 2.87856 0.000 0.000 0.000
v -0.09756 0.07992 2.91168 0.000 0.000 0.000
v -0.13752 0.08190 2.92734 0.000 0.000 0.000
v -0.14868 0.08550 2.95776 0.000 0.000 0.000
v -0.09090 0.08028 2.96820 0.000 0.000 0.000
v -0.06822 0.05022 2.88972 0.000 0.000 0.000
v -0.06012 0.04644 2.87622 0.000 0.000 0.000
v -0.09162 0.05616 2.89494 0.000 0.000 0.000
v -0.09378 0.04032 2.89746 0.000 0.000 0.000
v -0.09972 0.04788 2.91528 0.000 0.000 0.000
v -0.09486 0.03906 2.96244 0.000 0.000 0.000
v -0.07020 0.03006 2.88468 0.000 0.000 0.000
v -0.09378 0.04032 2.89746 0.000 0.000 0.000
v -0.09288 0.03186 2.87154 0.000 0.000 0.000
v -0.07020 0.03006 2.88468 0.000 0.000 0.000
v -0.14022 0.04860 2.90934 0.000 0.000 0.000
v -0.09972 0.04788 2.91528 0.000 0.000 0.000
v -0.13968 0.04626 2.93112 0.000 0.000 0.000
v -0.09486 0.03906 2.96244 0.000 0.000 0.000
v -0.15192 0.04230 2.96838 0.000 0.000 0.000
v -0.14022 0.04860 2.90934 0.000 0.000 0.000
v -0.08478 0.06660 2.85786 0.000 0.000 0.000
v -0.09288 0.03186 2.87154 0.000 0.000 0.000
v -0.14112 0.07848 2.90232 0.000 0.000 0.000
v -0.06012 0.04644 2.87622 0.000 0.000 0.000
v -0.06318 0.06444 2.87856 0.000 0.000 0.000
v -0.07020 0.03006 2.88468 0.000 0.000 0.000
v -0.13752 0.08190 2.92734 0.000 0.000 0.000
v -0.13968 0.04626 2.93112 0.000 0.000 0.000
v -0.14868 0.08550 2.95776 0.000 0.000 0.000
v -0.15192 0.04230 2.96838 0.000 0.000 0.000
v 0.11358 -0.01872 2.91204 0.000 0.000 0.000
v 0.10188 -0.00558 2.89962 0.000 0.000 0.000
v 0.08982 -0.02466 2.92860 0.000 0.000 0.000
v 0.07686 -0.00972 2.91222 0.000 0.000 0.000
v 0.04554 -0.03420 2.96802 0.000 0.000 0.000
v 0.09612 -0.03996 2.97540 0.000 0.000 0.000
v 0.09018 -0.02394 2.92680 0.000 0.000 0.000
v 0.11826 -0.03780 2.90340 0.000 0.000 0.000
v 0.09414 -0.04104 2.92302 0.000 0.000 0.000
v 0.10872 -0.05598 2.89926 0.000 0.000 0.000
v 0.11646 -0.03132 2.88774 0.000 0.000 0.000
v 0.08568 -0.06048 2.91204 0.000 0.000 0.000
v 0.09540 -0.04284 2.88198 0.000 0.000 0.000
v 0.07254 -0.04554 2.89566 0.000 0.000 0.000
v 0.08136 -0.02862 2.89890 0.000 0.000 0.000
v 0.10458 -0.02322 2.88648 0.000 0.000 0.000
v 0.10188 -0.00558 2.89962 0.000 0.000 0.000
v 0.07686 -0.00972 2.91222 0.000 0.000 0.000
v 0.04554 -0.03420 2.96802 0.000 0.000 0.000
v 0.04050 -0.06984 2.96676 0.000 0.000 0.000
v 0.09540 -0.04284 2.88198 0.000 0.000 0.000
v 0.10458 -0.02322 2.88648 0.000 0.000 0.000
v 0.10188 -0.00558 2.89962 0.000 0.000 0.000
v 0.09036 -0.07830 2.97522 0.000 0.000 0.000
v 0.08982 0.02466 2.92860 0.000 0.000 0.000
v 0.10188 0.00558 2.89962 0.000 0.000 0.000
v 0.11358 0.01872 2.91204 0.000 0.000 0.000
v 0.07686 0.00972 2.91222 0.000 0.000 0.000
v 0.04554 0.03420 2.96802 0.000 0.000 0.000
v 0.09612 0.03996 2.97540 0.000 0.000 0.000
v 0.11826 0.03780 2.90340 0.000 0.000 0.000
v 0.09018 0.02394 2.92680 0.000 0.000 0.000
v 0.09414 0.04104 2.92302 0.000 0.000 0.000
v 0.10872 0.05598 2.89926 0.000 0.000 0.000
v 0.11646 0.03132 2.88774 0.000 0.000 0.000
v 0.08568 0.06048 2.91204 0.000 0.000 0.000
v 0.09540 0.04284 2.88198 0.000 0.000 0.000
v 0.07254 0.04554 2.89566 0.000 0.000 0.000
v 0.08136 0.02862 2.89890 0.000 0.000 0.000
v 0.10458 0.02322 2.88648 0.000 0.000 0.000
v 0.10188 0.00558 2.89962 0.000 0.000 0.000
v 0.07686 0.00972 2.91222 0.000 0.000 0.000
v 0.04554 0.03420 2.96802 0.000 0.000 0.000
v 0.04050 0.06984 2.96676 0.000 0.000 0.000
v 0.09540 0.04284 2.88198 0.000 0.000 0.000
v 0.10458 0.02322 2.88648 0.000 0.000 0.000
v 0.10188 0.00558 2.89962 0.000 0.000 0.000
v 0.09036 0.07830 2.97522 0.000 0.000 0.000
v 0.00846 -0.10638 3.08826 0.000 0.000 0.000
v 0.04734 -0.11646 3.02634 0.000 0.000 0.000
v -0.01908 0.00000 3.07098 0.000 0.000 0.000
v -0.00684 -0.08442 3.14694 0.000 0.000 0.000
v -0.00180 0.00000 3.18078 0.000 0.000 0.000
v 0.08694 -0.10440 2.98494 0.000 0.000 0.000
v 0.12042 -0.05436 2.96010 0.000 0.000 0.000
v 0.13626 0.00000 2.94822 0.000 0.000 0.000
v -0.00684 0.08442 3.14694 0.000 0.000 0.000
v 0.00846 0.10638 3.08826 0.000 0.000 0.000
v 0.04734 0.11646 3.02634 0.000 0.000 0.000
v 0.08694 0.10440 2.98494 0.000 0.000 0.000
v 0.12042 0.05436 2.96010 0.000 0.000 0.000
v 0.00846 -0.10638 3.08826 0.000 0.000 0.000
v 0.04734 -0.11646 3.02634 0.000 0.000 0.000
v 0.04140 -0.11808 3.11976 0.000 0.000 0.000
v 0.07542 -0.12546 3.05064 0.000 0.000 0.000
v -0.02322 -0.08730 3.13524 0.000 0.000 0.000
v -0.00180 0.00000 3.18078 0.000 0.000 0.000
v -0.00684 -0.08442 3.14694 0.000 0.000 0.000
v 0.02484 -0.05202 3.18906 0.000 0.000 0.000
v 0.02484 0.05202 3.18906 0.000 0.000 0.000
v -0.00684 0.08442 3.14694 0.000 0.000 0.000
v 0.03564 0.00000 3.20724 0.000 0.000 0.000
v -0.00180 0.00000 3.18078 0.000 0.000 0.000
v 0.02484 -0.05202 3.18906 0.000 0.000 0.000
v 0.02484 0.05202 3.18906 0.000 0.000 0.000
v 0.03564 0.00000 3.20724 0.000 0.000 0.000
v 0.06876 -0.07308 3.14280 0.000 0.000 0.000
v 0.08424 0.00000 3.15936 0.000 0.000 0.000
v 0.02484 -0.05202 3.18906 0.000 0.000 0.000
v 0.01458 -0.01638 3.22182 0.000 0.000 0.000
v 0.06876 0.07308 3.14280 0.000 0.000 0.000
v 0.02484 0.05202 3.18906 0.000 0.000 0.000
v 0.01458 0.01638 3.22182 0.000 0.000 0.000
v 0.02484 -0.05202 3.18906 0.000 0.000 0.000
v -0.00684 -0.08442 3.14694 0.000 0.000 0.000
v 0.02718 -0.08694 3.15738 0.000 0.000 0.000
v 0.07542 -0.12546 3.05064 0.000 0.000 0.000
v 0.08694 -0.10440 2.98494 0.000 0.000 0.000
v 0.11178 -0.10422 3.01356 0.000 0.000 0.000
v 0.04734 -0.11646 3.02634 0.000 0.000 0.000
v 0.03420 -0.12672 3.08898 0.000 0.000 0.000
v 0.02052 -0.12204 3.06846 0.000 0.000 0.000
v -0.00558 -0.12150 3.12012 0.000 0.000 0.000
v 0.00306 -0.12276 3.13200 0.000 0.000 0.000
v -0.01458 -0.11394 3.15828 0.000 0.000 0.000
v 0.08694 -0.10440 2.98494 0.000 0.000 0.000
v 0.12042 -0.05436 2.96010 0.000 0.000 0.000
v 0.11178 -0.10422 3.01356 0.000 0.000 0.000
v 0.14382 -0.05688 2.99232 0.000 0.000 0.000
v 0.06480 -0.12636 3.03606 0.000 0.000 0.000
v 0.04806 -0.12510 3.02022 0.000 0.000 0.000
v 0.00936 -0.13194 3.06378 0.000 0.000 0.000
v 0.02718 -0.08694 3.15738 0.000 0.000 0.000
v 0.04140 -0.11808 3.11976 0.000 0.000 0.000
v 0.06876 -0.07308 3.14280 0.000 0.000 0.000
v 0.02484 -0.05202 3.18906 0.000 0.000 0.000
v 0.11088 -0.07632 3.08430 0.000 0.000 0.000
v -0.00684 -0.08442 3.14694 0.000 0.000 0.000
v 0.04140 -0.11808 3.11976 0.000 0.000 0.000
v 0.02718 -0.08694 3.15738 0.000 0.000 0.000
v 0.02682 -0.09324 3.16404 0.000 0.000 0.000
v 0.01944 -0.07218 3.19806 0.000 0.000 0.000
v 0.11322 -0.06228 2.95092 0.000 0.000 0.000
v 0.12762 -0.03132 2.94948 0.000 0.000 0.000
v 0.13896 -0.03888 2.96424 0.000 0.000 0.000
v 0.13626 0.00000 2.94822 0.000 0.000 0.000
v 0.15408 0.00000 2.97540 0.000 0.000 0.000
v 0.13896 0.03888 2.96424 0.000 0.000 0.000
v 0.12762 0.03132 2.94948 0.000 0.000 0.000
v 0.11322 0.06228 2.95092 0.000 0.000 0.000
v 0.07542 -0.12546 3.05064 0.000 0.000 0.000
v 0.13842 -0.05364 3.03408 0.000 0.000 0.000
v 0.11088 -0.07632 3.08430 0.000 0.000 0.000
v 0.11178 -0.10422 3.01356 0.000 0.000 0.000
v 0.02772 -0.14148 3.12336 0.000 0.000 0.000
v 0.14382 -0.05688 2.99232 0.000 0.000 0.000
v 0.15408 0.00000 2.97540 0.000 0.000 0.000
v 0.13842 0.05364 3.03408 0.000 0.000 0.000
v 0.14382 0.05688 2.99232 0.000 0.000 0.000
v 0.11178 0.10422 3.01356 0.000 0.000 0.000
v 0.07542 0.12546 3.05064 0.000 0.000 0.000
v 0.11088 0.07632 3.08430 0.000 0.000 0.000
v 0.02772 0.14148 3.12336 0.000 0.000 0.000
v 0.13842 -0.05364 3.03408 0.000 0.000 0.000
v 0.15408 0.00000 2.97540 0.000 0.000 0.000
v 0.14850 0.00000 3.04452 0.000 0.000 0.000
v 0.13842 0.05364 3.03408 0.000 0.000 0.000
v 0.10458 -0.09036 2.97090 0.000 0.000 0.000
v 0.12042 -0.05436 2.96010 0.000 0.000 0.000
v 0.10764 -0.10098 2.99178 0.000 0.000 0.000
v 0.14382 -0.05688 2.99232 0.000 0.000 0.000
v 0.07200 -0.11142 2.98278 0.000 0.000 0.000
v 0.13626 0.00000 2.94822 0.000 0.000 0.000
v 0.15408 0.00000 2.97540 0.000 0.000 0.000
v 0.14382 0.05688 2.99232 0.000 0.000 0.000
v 0.12042 0.05436 2.96010 0.000 0.000 0.000
v 0.10764 0.10098 2.99178 0.000 0.000 0.000
v 0.10458 0.09036 2.97090 0.000 0.000 0.000
v 0.07200 0.11142 2.98278 0.000 0.000 0.000
v 0.02178 -0.12258 3.14316 0.000 0.000 0.000
v 0.04140 -0.11808 3.11976 0.000 0.000 0.000
v 0.06048 -0.09252 3.14244 0.000 0.000 0.000
v -0.00468 -0.13032 3.17358 0.000 0.000 0.000
v 0.11088 -0.07632 3.08430 0.000 0.000 0.000
v 0.07542 -0.12546 3.05064 0.000 0.000 0.000
v 0.04896 -0.03474 3.18600 0.000 0.000 0.000
v 0.06876 -0.07308 3.14280 0.000 0.000 0.000
v 0.08424 0.00000 3.15936 0.000 0.000 0.000
v 0.04392 -0.06750 3.17970 0.000 0.000 0.000
v 0.02502 -0.06624 3.20778 0.000 0.000 0.000
v 0.06876 0.07308 3.14280 0.000 0.000 0.000
v 0.04896 0.03474 3.18600 0.000 0.000 0.000
v 0.04392 0.06750 3.17970 0.000 0.000 0.000
v 0.02502 0.06624 3.20778 0.000 0.000 0.000
v -0.00684 -0.08442 3.14694 0.000 0.000 0.000
v 0.00846 -0.10638 3.08826 0.000 0.000 0.000
v 0.04140 -0.11808 3.11976 0.000 0.000 0.000
v 0.01332 -0.09576 3.15810 0.000 0.000 0.000
v -0.00648 -0.07884 3.16332 0.000 0.000 0.000
v -0.02880 -0.05472 3.15990 0.000 0.000 0.000
v 0.04140 0.11808 3.11976 0.000 0.000 0.000
v 0.04734 0.11646 3.02634 0.000 0.000 0.000
v 0.00846 0.10638 3.08826 0.000 0.000 0.000
v 0.07542 0.12546 3.05064 0.000 0.000 0.000
v -0.02322 0.08730 3.13524 0.000 0.000 0.000
v 0.02718 0.08694 3.15738 0.000 0.000 0.000
v -0.00684 0.08442 3.14694 0.000 0.000 0.000
v 0.02484 0.05202 3.18906 0.000 0.000 0.000
v 0.11178 0.10422 3.01356 0.000 0.000 0.000
v 0.08694 0.10440 2.98494 0.000 0.000 0.000
v 0.07542 0.12546 3.05064 0.000 0.000 0.000
v 0.04734 0.11646 3.02634 0.000 0.000 0.000
v 0.03420 0.12672 3.08898 0.000 0.000 0.000
v 0.02052 0.12204 3.06846 0.000 0.000 0.000
v -0.00558 0.12150 3.12012 0.000 0.000 0.000
v 0.00306 0.12276 3.13200 0.000 0.000 0.000
v -0.01458 0.11394 3.15828 0.000 0.000 0.000
v 0.11178 0.10422 3.01356 0.000 0.000 0.000
v 0.12042 0.05436 2.96010 0.000 0.000 0.000
v 0.08694 0.10440 2.98494 0.000 0.000 0.000
v 0.14382 0.05688 2.99232 0.000 0.000 0.000
v 0.06480 0.12636 3.03606 0.000 0.000 0.000
v 0.04806 0.12510 3.02022 0.000 0.000 0.000
v 0.00936 0.13194 3.06378 0.000 0.000 0.000
v 0.06876 0.07308 3.14280 0.000 0.000 0.000
v 0.04140 0.11808 3.11976 0.000 0.000 0.000
v 0.02718 0.08694 3.15738 0.000 0.000 0.000
v 0.02484 0.05202 3.18906 0.000 0.000 0.000
v 0.11088 0.07632 3.08430 0.000 0.000 0.000
v 0.02718 0.08694 3.15738 0.000 0.000 0.000
v 0.04140 0.11808 3.11976 0.000 0.000 0.000
v -0.00684 0.08442 3.14694 0.000 0.000 0.000
v 0.02682 0.09324 3.16404 0.000 0.000 0.000
v 0.01944 0.07218 3.19806 0.000 0.000 0.000
v 0.06048 0.09252 3.14244 0.000 0.000 0.000
v 0.04140 0.11808 3.11976 0.000 0.000 0.000
v 0.02178 0.12258 3.14316 0.000 0.000 0.000
v -0.00468 0.13032 3.17358 0.000 0.000 0.000
v 0.11088 0.07632 3.08430 0.000 0.000 0.000
v 0.07542 0.12546 3.05064 0.000 0.000 0.000
v 0.04140 0.11808 3.11976 0.000 0.000 0.000
v 0.00846 0.10638 3.08826 0.000 0.000 0.000
v -0.00684 0.08442 3.14694 0.000 0.000 0.000
v 0.01332 0.09576 3.15810 0.000 0.000 0.000
v -0.00648 0.07884 3.16332 0.000 0.000 0.000
v -0.02880 0.05472 3.15990 0.000 0.000 0.000
v -0.25344 -0.13842 3.14370 0.000 0.000 0.000
v -0.20808 -0.06084 3.06216 0.000 0.000 0.000
v -0.21258 -0.10728 3.14874 0.000 0.000 0.000
v -0.18684 -0.05040 3.09438 0.000 0.000 0.000
v -0.23688 -0.13572 3.23370 0.000 0.000 0.000
v -0.19926 -0.09198 3.21462 0.000 0.000 0.000
v -0.17298 -0.07200 3.27654 0.000 0.000 0.000
v -0.18792 -0.11178 3.29742 0.000 0.000 0.000
v -0.17046 -0.07758 3.30912 0.000 0.000 0.000
v -0.16092 -0.07272 3.34962 0.000 0.000 0.000
v -0.22248 -0.12150 3.31650 0.000 0.000 0.000
v -0.27144 -0.13338 3.25350 0.000 0.000 0.000
v -0.18378 -0.02880 3.05838 0.000 0.000 0.000
v -0.17370 -0.01674 3.08052 0.000 0.000 0.000
v -0.17280 0.00000 3.03858 0.000 0.000 0.000
v -0.19350 -0.01674 3.04308 0.000 0.000 0.000
v -0.22734 -0.04734 3.04812 0.000 0.000 0.000
v -0.28170 -0.11592 3.15612 0.000 0.000 0.000
v -0.17370 -0.01674 3.08052 0.000 0.000 0.000
v -0.17460 0.00000 3.08304 0.000 0.000 0.000
v -0.17586 -0.03006 3.11184 0.000 0.000 0.000
v -0.18684 -0.05040 3.09438 0.000 0.000 0.000
v -0.18954 -0.05886 3.15180 0.000 0.000 0.000
v -0.21258 -0.10728 3.14874 0.000 0.000 0.000
v -0.17820 -0.04284 3.20454 0.000 0.000 0.000
v -0.19926 -0.09198 3.21462 0.000 0.000 0.000
v -0.13428 -0.01710 3.27492 0.000 0.000 0.000
v -0.17298 -0.07200 3.27654 0.000 0.000 0.000
v -0.13032 -0.02646 3.32820 0.000 0.000 0.000
v -0.10764 0.01386 3.37014 0.000 0.000 0.000
v -0.20466 -0.01404 3.15774 0.000 0.000 0.000
v -0.18738 0.00144 3.10806 0.000 0.000 0.000
v -0.19134 0.00738 3.21786 0.000 0.000 0.000
v -0.16434 0.01962 3.30948 0.000 0.000 0.000
v -0.13410 0.02142 3.34656 0.000 0.000 0.000
v -0.17370 0.01674 3.08052 0.000 0.000 0.000
v -0.18378 0.02880 3.05838 0.000 0.000 0.000
v -0.19350 0.01674 3.04308 0.000 0.000 0.000
v -0.17370 0.01674 3.08052 0.000 0.000 0.000
v -0.18738 0.00144 3.10806 0.000 0.000 0.000
v -0.20736 0.01872 3.08754 0.000 0.000 0.000
v -0.20466 -0.01404 3.15774 0.000 0.000 0.000
v -0.24804 0.00774 3.15504 0.000 0.000 0.000
v -0.22212 0.04932 3.23820 0.000 0.000 0.000
v -0.28368 0.01188 3.16116 0.000 0.000 0.000
v -0.19134 0.00738 3.21786 0.000 0.000 0.000
v -0.14202 0.08208 3.31938 0.000 0.000 0.000
v -0.14778 0.08964 3.36744 0.000 0.000 0.000
v -0.25200 0.06444 3.26160 0.000 0.000 0.000
v -0.11862 0.07722 3.40164 0.000 0.000 0.000
v -0.13320 0.04878 3.34854 0.000 0.000 0.000
v -0.16434 0.01962 3.30948 0.000 0.000 0.000
v -0.23634 0.01854 3.06036 0.000 0.000 0.000
v -0.24912 -0.01170 3.04146 0.000 0.000 0.000
v -0.17280 0.00000 3.03858 0.000 0.000 0.000
v -0.19350 -0.01674 3.04308 0.000 0.000 0.000
v -0.22734 -0.04734 3.04812 0.000 0.000 0.000
v -0.30834 -0.04230 3.16998 0.000 0.000 0.000
v -0.28170 -0.11592 3.15612 0.000 0.000 0.000
v -0.27144 -0.13338 3.25350 0.000 0.000 0.000
v -0.28494 -0.08154 3.26376 0.000 0.000 0.000
v -0.26406 -0.05364 3.26088 0.000 0.000 0.000
v -0.16092 -0.07272 3.34962 0.000 0.000 0.000
v -0.22248 -0.12150 3.31650 0.000 0.000 0.000
v -0.27648 -0.02826 3.27798 0.000 0.000 0.000
v -0.30834 -0.04230 3.16998 0.000 0.000 0.000
v -0.26406 -0.05364 3.26088 0.000 0.000 0.000
v -0.13032 -0.02646 3.32820 0.000 0.000 0.000
v -0.10764 0.01386 3.37014 0.000 0.000 0.000
v -0.13410 0.02142 3.34656 0.000 0.000 0.000
v -0.16434 0.01962 3.30948 0.000 0.000 0.000
v -0.26496 0.00018 3.26358 0.000 0.000 0.000
v -0.19350 0.01674 3.04308 0.000 0.000 0.000
v -0.17280 0.00000 3.03858 0.000 0.000 0.000
v -0.24912 -0.01170 3.04146 0.000 0.000 0.000
v -0.23634 0.01854 3.06036 0.000 0.000 0.000
v -0.30834 -0.04230 3.16998 0.000 0.000 0.000
v -0.28368 0.01188 3.16116 0.000 0.000 0.000
v -0.25200 0.06444 3.26160 0.000 0.000 0.000
v -0.27594 0.02268 3.26898 0.000 0.000 0.000
v -0.14778 0.08964 3.36744 0.000 0.000 0.000
v -0.26496 0.00018 3.26358 0.000 0.000 0.000
v -0.11862 0.07722 3.40164 0.000 0.000 0.000
v -0.13320 0.04878 3.34854 0.000 0.000 0.000
v -0.17046 -0.07758 3.30912 0.000 0.000 0.000
v -0.26406 -0.05364 3.26088 0.000 0.000 0.000
v -0.16092 -0.07272 3.34962 0.000 0.000 0.000
v -0.17298 -0.07200 3.27654 0.000 0.000 0.000
v -0.13032 -0.02646 3.32820 0.000 0.000 0.000
v -0.26406 -0.05364 3.26088 0.000 0.000 0.000
v -0.17298 -0.07200 3.27654 0.000 0.000 0.000
v 0.17172 -0.10170 3.11508 0.000 0.000 0.000
v 0.21474 -0.06768 3.09366 0.000 0.000 0.000
v 0.21996 -0.05850 3.08934 0.000 0.000 0.000
v 0.21960 -0.05904 3.09168 0.000 0.000 0.000
v 0.23058 -0.03852 3.07494 0.000 0.000 0.000
v 0.22968 -0.03942 3.07386 0.000 0.000 0.000
v 0.23778 -0.03384 3.05964 0.000 0.000 0.000
v 0.23058 0.03852 3.07494 0.000 0.000 0.000
v 0.22968 0.03942 3.07386 0.000 0.000 0.000
v 0.21996 0.05850 3.08934 0.000 0.000 0.000
v 0.21960 0.05904 3.09168 0.000 0.000 0.000
v 0.23778 0.03384 3.05964 0.000 0.000 0.000
v 0.21474 0.06768 3.09366 0.000 0.000 0.000
v 0.21168 -0.07704 3.05514 0.000 0.000 1.000
v 0.23472 -0.05148 3.04902 0.000 0.000 1.000
v 0.23094 -0.05634 3.07980 0.000 0.000 0.380
v 0.24408 -0.03186 3.06000 0.000 0.000 1.000
v 0.20448 -0.08370 3.07944 0.000 0.000 1.000
v 0.21132 -0.07812 3.10752 0.000 0.000 1.000
v 0.23796 -0.03978 3.08466 0.000 0.000 1.000
v 0.22428 -0.06210 3.10608 0.000 0.000 1.000
v 0.23094 0.05634 3.07980 0.000 0.000 0.380
v 0.23472 0.05148 3.04902 0.000 0.000 1.000
v 0.21168 0.07704 3.05514 0.000 0.000 1.000
v 0.24408 0.03186 3.06000 0.000 0.000 1.000
v 0.20448 0.08370 3.07944 0.000 0.000 1.000
v 0.21132 0.07812 3.10752 0.000 0.000 1.000
v 0.23796 0.03978 3.08466 0.000 0.000 1.000
v 0.22428 0.06210 3.10608 0.000 0.000 1.000
v 0.21870 -0.05868 3.06414 0.000 0.000 1.000
v 0.23346 -0.04230 3.05766 0.000 0.000 1.000
v 0.22536 -0.05292 3.07242 0.000 0.000 0.380
v 0.23778 -0.03384 3.05964 0.000 0.000 1.000
v 0.21312 -0.06588 3.07836 0.000 0.000 1.000
v 0.21474 -0.06768 3.09366 0.000 0.000 1.000
v 0.22968 -0.03942 3.07386 0.000 0.000 1.000
v 0.21996 -0.05850 3.08934 0.000 0.000 1.000
v 0.22536 0.05292 3.07242 0.000 0.000 0.380
v 0.23346 0.04230 3.05766 0.000 0.000 1.000
v 0.21870 0.05868 3.06414 0.000 0.000 1.000
v 0.23778 0.03384 3.05964 0.000 0.000 1.000
v 0.21312 0.06588 3.07836 0.000 0.000 1.000
v 0.21474 0.06768 3.09366 0.000 0.000 1.000
v 0.22968 0.03942 3.07386 0.000 0.000 1.000
v 0.21996 0.05850 3.08934 0.000 0.000 1.000
vt 0.72203 0.12284
vt 0.72203 0.12284
vt 0.58797 0.09678
vt 0.72203 0.12284
vt 0.72203 0.12284
vt 0.72203 0.12284
vt 0.72203 0.12284
vt 0.72203 0.12284
vt 0.58797 0.09678
vt 0.72203 0.12284
vt 0.72203 0.12284
vt 0.72203 0.12284
vt 0.72203 0.12284
vt 0.72203 0.12284
vt 0.72203 0.12284
vt 0.72203 0.12284
vt 0.60156 0.99219
vt 0.67969 0.99219
vt 0.60156 0.91406
vt 0.69531 0.91406
vt 0.67969 0.99219
vt 0.60156 0.99219
vt 0.55469 0.96094
vt 0.75781 0.99219
vt 0.75781 0.91406
vt 0.75781 0.97656
vt 0.75781 0.99219
vt 0.58594 0.97656
vt 0.69985 0.29274
vt 0.67601 0.23065
vt 0.67230 0.34361
vt 0.66813 0.26820
vt 0.57002 0.27479
vt 0.56989 0.33026
vt 0.64781 0.14551
vt 0.71721 0.17635
vt 0.70275 0.23396
vt 0.58640 0.14769
vt 0.60066 0.13675
vt 0.78289 0.24247
vt 0.74987 0.25796
vt 0.83521 0.31437
vt 0.77449 0.29434
vt 0.87322 0.38694
vt 0.90053 0.30802
vt 0.77485 0.32944
vt 0.76864 0.43627
vt 0.74041 0.31944
vt 0.78942 0.19289
vt 0.85979 0.20635
vt 0.94892 0.26062
vt 0.95941 0.38011
vt 0.98628 0.28850
vt 0.99258 0.38059
vt 0.89482 0.47791
vt 0.92981 0.49206
vt 0.95605 0.46687
vt 0.86152 0.53884
vt 0.74402 0.55571
vt 0.68880 0.44784
vt 0.56968 0.38508
vt 0.56979 0.45149
vt 0.56985 0.55651
vt 0.68880 0.44784
vt 0.67230 0.34361
vt 0.76864 0.43627
vt 0.74402 0.55571
vt 0.86152 0.53884
vt 0.66813 0.26820
vt 0.58640 0.14769
vt 0.67601 0.23065
vt 0.69985 0.29274
vt 0.74041 0.31944
vt 0.77485 0.32944
vt 0.64781 0.14551
vt 0.60066 0.13675
vt 0.71721 0.17635
vt 0.70275 0.23396
vt 0.78289 0.24247
vt 0.74987 0.25796
vt 0.83521 0.31437
vt 0.77449 0.29434
vt 0.87322 0.38694
vt 0.90053 0.30802
vt 0.78942 0.19289
vt 0.85979 0.20635
vt 0.94892 0.26062
vt 0.95941 0.38011
vt 0.98628 0.28850
vt 0.99258 0.38059
vt 0.89482 0.47791
vt 0.92981 0.49206
vt 0.95605 0.46687
vt 0.90149 0.38470
vt 0.45256 0.50781
vt 0.42131 0.44531
vt 0.48781 0.44531
vt 0.42131 0.35156
vt 0.48781 0.35156
vt 0.48781 0.24219
vt 0.55469 0.35156
vt 0.55469 0.24219
vt 0.42131 0.24219
vt 0.55469 0.44531
vt 0.53906 0.47656
vt 0.50781 0.50744
vt 0.69531 0.69531
vt 0.55469 0.71094
vt 0.61269 0.66131
vt 0.69531 0.63281
vt 0.55469 0.74219
vt 0.55469 0.63281
vt 0.69531 0.57031
vt 0.57031 0.57031
vt 0.52344 0.63281
vt 0.52344 0.57031
vt 0.69531 0.74219
vt 0.55469 0.75781
vt 0.69531 0.77344
vt 0.55469 0.78906
vt 0.69531 0.80469
vt 0.55469 0.83594
vt 0.69531 0.83594
vt 0.55469 0.86719
vt 0.69531 0.89844
vt 0.55469 0.89844
vt 0.55469 0.63281
vt 0.69531 0.63281
vt 0.61269 0.66131
vt 0.69531 0.69531
vt 0.55469 0.71094
vt 0.55469 0.74219
vt 0.69531 0.74219
vt 0.55469 0.75781
vt 0.69531 0.77344
vt 0.55469 0.78906
vt 0.55469 0.86719
vt 0.69531 0.83594
vt 0.55469 0.83594
vt 0.69531 0.80469
vt 0.75903 0.65748
vt 0.71603 0.71603
vt 0.71603 0.71603
vt 0.38356 0.35156
vt 0.38356 0.24219
vt 0.46856 0.24219
vt 0.46856 0.35156
vt 0.46856 0.44531
vt 0.38356 0.44531
vt 0.44731 0.50781
vt 0.28209 0.55600
vt 0.33426 0.62238
vt 0.22111 0.62092
vt 0.21788 0.66914
vt 0.34707 0.68984
vt 0.34707 0.68984
vt 0.33426 0.62238
vt 0.28209 0.55600
vt 0.95025 0.18459
vt 0.95665 0.11926
vt 0.99805 0.19003
vt 0.90410 0.17941
vt 0.83493 0.06752
vt 0.82868 0.16826
vt 0.88726 0.02620
vt 0.77440 0.02457
vt 0.76861 0.06653
vt 0.75895 0.15565
vt 0.68054 0.07999
vt 0.68434 0.13298
vt 0.61028 0.08931
vt 0.57215 0.08095
vt 0.61559 0.11432
vt 0.57123 0.02097
vt 0.57166 0.05144
vt 0.68054 0.07999
vt 0.61028 0.08931
vt 0.68434 0.13298
vt 0.61559 0.11432
vt 0.75895 0.15565
vt 0.76861 0.06653
vt 0.82868 0.16826
vt 0.77440 0.02457
vt 0.83493 0.06752
vt 0.88726 0.02620
vt 0.90410 0.17941
vt 0.95665 0.11926
vt 0.95025 0.18459
vt 0.99805 0.19003
vt 0.99563 0.04594
vt 0.94412 0.04594
vt 0.99563 0.08544
vt 0.99563 0.00344
vt 0.94412 0.00344
vt 0.94412 0.08694
vt 0.99563 0.00344
vt 0.99563 0.04594
vt 0.99563 0.08544
vt 0.93212 0.00781
vt 0.93212 0.00781
vt 0.57100 0.00781
vt 0.93212 0.00781
vt 0.93212 0.00781
vt 0.93212 0.00781
vt 0.75108 0.00781
vt 0.75111 0.00781
vt 0.56966 0.14045
vt 0.60156 0.91406
vt 0.67969 0.99219
vt 0.60156 0.99219
vt 0.69531 0.91406
vt 0.67969 0.99219
vt 0.60156 0.99219
vt 0.55469 0.96094
vt 0.75781 0.99219
vt 0.75781 0.91406
vt 0.75781 0.97656
vt 0.75781 0.99219
vt 0.58594 0.97656
vt 0.48781 0.44531
vt 0.42131 0.44531
vt 0.45256 0.50781
vt 0.42131 0.35156
vt 0.48781 0.35156
vt 0.48781 0.24219
vt 0.55469 0.35156
vt 0.55469 0.24219
vt 0.42131 0.24219
vt 0.55469 0.44531
vt 0.53906 0.47656
vt 0.50781 0.50744
vt 0.46856 0.24219
vt 0.38356 0.24219
vt 0.38356 0.35156
vt 0.46856 0.35156
vt 0.46856 0.44531
vt 0.38356 0.44531
vt 0.44731 0.50781
vt 0.22111 0.62092
vt 0.33426 0.62238
vt 0.28209 0.55600
vt 0.21788 0.66914
vt 0.34707 0.68984
vt 0.34707 0.68984
vt 0.33426 0.62238
vt 0.28209 0.55600
vt 0.52344 0.63281
vt 0.57100 0.00781
vt 0.93212 0.00781
vt 0.93212 0.00781
vt 0.93212 0.00781
vt 0.93212 0.00781
vt 0.93212 0.00781
vt 0.75111 0.00781
vt 0.75108 0.00781
vt 0.95021 0.00781
vt 0.95491 0.00781
vt 0.95491 0.00781
vt 0.95491 0.00781
vt 0.95491 0.00781
vt 0.95021 0.00781
vt 0.66814 0.94751
vt 0.66890 0.94741
vt 0.66772 0.94742
vt 0.66772 0.94710
vt 0.66771 0.94677
vt 0.66890 0.94741
vt 0.66814 0.94751
vt 0.66934 0.94734
vt 0.66867 0.94679
vt 0.66934 0.94734
vt 0.66867 0.94679
vt 0.03407 0.59803
vt 0.08358 0.52068
vt 0.03276 0.52067
vt 0.08570 0.59718
vt 0.18246 0.52084
vt 0.20711 0.66255
vt 0.07005 0.60822
vt 0.09285 0.65923
vt 0.37960 0.59837
vt 0.35836 0.52100
vt 0.47322 0.59478
vt 0.49231 0.52107
vt 0.36321 0.66250
vt 0.34153 0.72664
vt 0.20945 0.73931
vt 0.41862 0.72373
vt 0.50254 0.66375
vt 0.47352 0.72825
vt 0.52104 0.75304
vt 0.53799 0.70699
vt 0.54184 0.79363
vt 0.54182 0.89159
vt 0.44770 0.81825
vt 0.44969 0.91131
vt 0.40206 0.82806
vt 0.39343 0.92246
vt 0.32905 0.82424
vt 0.32043 0.92444
vt 0.20468 0.82773
vt 0.19522 0.92992
vt 0.32875 0.99728
vt 0.18704 0.99718
vt 0.09290 0.93249
vt 0.09290 0.99774
vt 0.40387 0.99725
vt 0.09290 0.86108
vt 0.49517 0.99667
vt 0.54179 0.96270
vt 0.09290 0.81410
vt 0.09290 0.75546
vt 0.04121 0.65908
vt 0.04507 0.75708
vt 0.02592 0.65825
vt 0.00949 0.75708
vt 0.00600 0.65650
vt 0.39343 0.92246
vt 0.32043 0.92444
vt 0.19522 0.92992
vt 0.09290 0.93249
vt 0.20468 0.82773
vt 0.32905 0.82424
vt 0.40206 0.82806
vt 0.09290 0.86108
vt 0.20945 0.73931
vt 0.44969 0.91131
vt 0.44770 0.81825
vt 0.41862 0.72373
vt 0.52104 0.75304
vt 0.53799 0.70699
vt 0.50254 0.66375
vt 0.36321 0.66250
vt 0.34153 0.72664
vt 0.20711 0.66255
vt 0.47352 0.72825
vt 0.37960 0.59837
vt 0.08570 0.59718
vt 0.03407 0.59803
vt 0.47322 0.59478
vt 0.07005 0.60822
vt 0.09285 0.65923
vt 0.55563 0.52113
vt 0.09290 0.75546
vt 0.04121 0.65908
vt 0.04507 0.75708
vt 0.02592 0.65825
vt 0.00949 0.75708
vt 0.00600 0.65650
vt 0.09290 0.81410
vt 0.21094 0.40969
vt 0.32031 0.40969
vt 0.25781 0.37644
vt 0.35156 0.37644
vt 0.16406 0.37644
vt 0.10156 0.40969
vt 0.00781 0.40969
vt 0.00781 0.37644
vt 0.35156 0.32194
vt 0.37081 0.32194
vt 0.25781 0.32194
vt 0.25781 0.27344
vt 0.16406 0.27344
vt 0.00781 0.27344
vt 0.35156 0.27344
vt 0.35156 0.24219
vt 0.35156 0.27344
vt 0.25781 0.24219
vt 0.25781 0.27344
vt 0.16406 0.24219
vt 0.16406 0.27344
vt 0.00781 0.24219
vt 0.00781 0.27344
vt 0.21094 0.40969
vt 0.32031 0.50781
vt 0.21094 0.50781
vt 0.32031 0.40969
vt 0.36719 0.46056
vt 0.36719 0.50781
vt 0.10156 0.50781
vt 0.10156 0.40969
vt 0.00781 0.50781
vt 0.00781 0.40969
vt 0.36719 0.40969
vt 0.25781 0.37644
vt 0.32031 0.40969
vt 0.21094 0.40969
vt 0.35156 0.37644
vt 0.16406 0.37644
vt 0.10156 0.40969
vt 0.00781 0.40969
vt 0.00781 0.37644
vt 0.35156 0.32194
vt 0.37081 0.32194
vt 0.25781 0.32194
vt 0.25781 0.27344
vt 0.16406 0.27344
vt 0.00781 0.27344
vt 0.35156 0.27344
vt 0.25781 0.24219
vt 0.35156 0.27344
vt 0.35156 0.24219
vt 0.25781 0.27344
vt 0.16406 0.24219
vt 0.16406 0.27344
vt 0.00781 0.24219
vt 0.00781 0.27344
vt 0.21094 0.40969
vt 0.32031 0.50781
vt 0.32031 0.40969
vt 0.21094 0.50781
vt 0.36719 0.46056
vt 0.36719 0.50781
vt 0.36719 0.40969
vt 0.10156 0.50781
vt 0.10156 0.40969
vt 0.00781 0.50781
vt 0.00781 0.40969
vt 0.27344 0.27344
vt 0.27344 0.24219
vt 0.17969 0.27344
vt 0.17969 0.24219
vt 0.00781 0.24219
vt 0.00781 0.27344
vt 0.17969 0.27344
vt 0.27344 0.32194
vt 0.17969 0.32194
vt 0.27344 0.37644
vt 0.35156 0.32194
vt 0.17969 0.37644
vt 0.27344 0.44531
vt 0.17969 0.40969
vt 0.17969 0.46056
vt 0.27344 0.46056
vt 0.27344 0.50781
vt 0.17969 0.50781
vt 0.00781 0.50781
vt 0.00781 0.42531
vt 0.35156 0.37644
vt 0.37081 0.32194
vt 0.35156 0.27344
vt 0.00781 0.37644
vt 0.17969 0.27344
vt 0.27344 0.24219
vt 0.27344 0.27344
vt 0.17969 0.24219
vt 0.00781 0.24219
vt 0.00781 0.27344
vt 0.27344 0.32194
vt 0.17969 0.27344
vt 0.17969 0.32194
vt 0.27344 0.37644
vt 0.35156 0.32194
vt 0.17969 0.37644
vt 0.27344 0.44531
vt 0.17969 0.40969
vt 0.17969 0.46056
vt 0.27344 0.46056
vt 0.27344 0.50781
vt 0.17969 0.50781
vt 0.00781 0.50781
vt 0.00781 0.42531
vt 0.35156 0.37644
vt 0.37081 0.32194
vt 0.35156 0.27344
vt 0.00781 0.37644
vt 0.33493 0.02720
vt 0.24099 0.02915
vt 0.31610 0.22880
vt 0.42384 0.07762
vt 0.52797 0.22880
vt 0.16401 0.07003
vt 0.09229 0.13270
vt 0.04333 0.22880
vt 0.42384 0.07762
vt 0.33493 0.02720
vt 0.24099 0.02915
vt 0.16401 0.07003
vt 0.09229 0.13270
vt 0.27033 0.00587
vt 0.00783 0.00587
vt 0.30533 0.10431
vt 0.00783 0.08462
vt 0.53283 0.00587
vt 0.53283 0.00587
vt 0.39283 0.10431
vt 0.34033 0.04525
vt 0.34033 0.04525
vt 0.39283 0.10431
vt 0.48845 0.14891
vt 0.43508 0.05672
vt 0.27767 0.01723
vt 0.27767 0.01723
vt 0.27425 0.09373
vt 0.13425 0.23370
vt 0.16925 0.09588
vt 0.25675 0.20416
vt 0.32675 0.14573
vt 0.13425 0.23370
vt 0.25675 0.20416
vt 0.32675 0.14573
vt 0.40431 0.17077
vt 0.27431 0.05861
vt 0.27208 0.16138
vt 0.18283 0.18789
vt 0.00783 0.06808
vt 0.00783 0.22558
vt 0.16533 0.07577
vt 0.32283 0.17470
vt 0.30533 0.10215
vt 0.42783 0.12854
vt 0.42783 0.16811
vt 0.53283 0.15492
vt 0.19466 0.01229
vt 0.02210 0.06205
vt 0.16256 0.17577
vt 0.01671 0.20719
vt 0.35603 0.16675
vt 0.37220 0.04480
vt 0.55463 0.10730
vt 0.18710 0.08842
vt 0.11047 0.08842
vt 0.10938 0.21391
vt 0.27059 0.17847
vt 0.04677 0.20758
vt 0.32283 0.17692
vt 0.07783 0.06864
vt 0.32283 0.06864
vt 0.32283 0.06864
vt 0.49783 0.17692
vt 0.49200 0.08886
vt 0.34294 0.15741
vt 0.24666 0.03019
vt 0.15199 0.11832
vt 0.01988 0.01743
vt 0.24666 0.03019
vt 0.34294 0.15741
vt 0.49200 0.08886
vt 0.39428 0.13501
vt 0.19617 0.03979
vt 0.28794 0.00805
vt 0.24329 0.14045
vt 0.50232 0.07426
vt 0.13404 0.14763
vt 0.01508 0.12242
vt 0.19617 0.03979
vt 0.13404 0.14763
vt 0.24329 0.14045
vt 0.39428 0.13501
vt 0.28794 0.00805
vt 0.50232 0.07426
vt 0.15943 0.07144
vt 0.01289 0.17796
vt 0.16648 0.18421
vt 0.15943 0.07144
vt 0.34288 0.04151
vt 0.24126 0.04955
vt 0.35564 0.16300
vt 0.20588 0.18775
vt 0.47206 0.06899
vt 0.01283 0.04999
vt 0.01791 0.14767
vt 0.20588 0.18775
vt 0.24126 0.04955
vt 0.35564 0.16300
vt 0.34288 0.04151
vt 0.47206 0.06899
vt 0.34013 0.09777
vt 0.25615 0.08535
vt 0.25593 0.20232
vt 0.51705 0.15605
vt 0.00737 0.21063
vt 0.04283 0.08055
vt 0.29455 0.10242
vt 0.13492 0.22221
vt 0.16029 0.09840
vt 0.28125 0.17723
vt 0.44323 0.10573
vt 0.13492 0.22221
vt 0.29455 0.10242
vt 0.28125 0.17723
vt 0.44323 0.10573
vt 0.29525 0.11746
vt 0.00765 0.05745
vt 0.02719 0.21024
vt 0.27039 0.19843
vt 0.40271 0.19599
vt 0.51802 0.12999
vt 0.30533 0.10431
vt 0.00783 0.00587
vt 0.27033 0.00587
vt 0.00783 0.08462
vt 0.53283 0.00587
vt 0.27208 0.16138
vt 0.27431 0.05861
vt 0.40431 0.17077
vt 0.00783 0.22558
vt 0.00783 0.06808
vt 0.18283 0.18789
vt 0.16533 0.07577
vt 0.32283 0.17470
vt 0.30533 0.10215
vt 0.42783 0.12854
vt 0.42783 0.16811
vt 0.53283 0.15492
vt 0.16256 0.17577
vt 0.02210 0.06205
vt 0.19466 0.01229
vt 0.01671 0.20719
vt 0.35603 0.16675
vt 0.37220 0.04480
vt 0.55463 0.10730
vt 0.10938 0.21391
vt 0.11047 0.08842
vt 0.18710 0.08842
vt 0.27059 0.17847
vt 0.04677 0.20758
vt 0.32283 0.06864
vt 0.07783 0.06864
vt 0.32283 0.17692
vt 0.32283 0.06864
vt 0.49783 0.17692
vt 0.25593 0.20232
vt 0.25615 0.08535
vt 0.34013 0.09777
vt 0.51705 0.15605
vt 0.00737 0.21063
vt 0.04283 0.08055
vt 0.02719 0.21024
vt 0.00765 0.05745
vt 0.29525 0.11746
vt 0.27039 0.19843
vt 0.40271 0.19599
vt 0.51802 0.12999
vt 0.88281 0.74219
vt 0.88281 0.66406
vt 0.99219 0.74219
vt 0.99219 0.64844
vt 0.88281 0.83594
vt 0.99219 0.83594
vt 0.99219 0.91406
vt 0.88281 0.92969
vt 0.94531 0.96094
vt 0.88281 0.99219
vt 0.77344 0.91406
vt 0.77344 0.82031
vt 0.88281 0.61719
vt 0.99219 0.58594
vt 0.88281 0.55469
vt 0.77344 0.60156
vt 0.77344 0.66406
vt 0.77344 0.72656
vt 0.77344 0.61719
vt 0.88281 0.61719
vt 0.88281 0.66406
vt 0.77344 0.64844
vt 0.88281 0.71094
vt 0.77344 0.71094
vt 0.88281 0.80469
vt 0.77344 0.78906
vt 0.88281 0.89844
vt 0.77344 0.86719
vt 0.82031 0.96094
vt 0.88281 0.99219
vt 0.99219 0.71094
vt 0.99219 0.64844
vt 0.99219 0.80469
vt 0.99219 0.89844
vt 0.94531 0.96094
vt 0.99219 0.60156
vt 0.88281 0.60156
vt 0.99219 0.58594
vt 0.77344 0.61719
vt 0.77344 0.64844
vt 0.88281 0.64844
vt 0.77344 0.72656
vt 0.88281 0.72656
vt 0.88281 0.82031
vt 0.99219 0.72656
vt 0.77344 0.80469
vt 0.88281 0.92969
vt 0.97656 0.96094
vt 0.99219 0.83594
vt 0.88281 0.99219
vt 0.82031 0.96094
vt 0.77344 0.89844
vt 0.99219 0.63281
vt 0.80469 0.61719
vt 0.86719 0.57031
vt 0.88281 0.60156
vt 0.92969 0.64844
vt 0.80469 0.75781
vt 0.97656 0.74219
vt 0.99219 0.83594
vt 0.86719 0.86719
vt 0.77344 0.88281
vt 0.82031 0.97656
vt 0.96094 0.91406
vt 0.89844 0.78906
vt 0.89844 0.64844
vt 0.99219 0.77344
vt 0.99219 0.89844
vt 0.88281 0.97656
vt 0.80469 0.96094
vt 0.77344 0.92969
vt 0.80469 0.83594
vt 0.82031 0.60156
vt 0.88281 0.58594
vt 0.94531 0.63281
vt 0.78906 0.63281
vt 0.99219 0.72656
vt 0.77344 0.72656
vt 0.77344 0.83594
vt 0.88281 0.83594
vt 0.78906 0.94531
vt 0.99219 0.83594
vt 0.85156 0.99219
vt 0.92969 0.94531
vt 0.85156 0.91406
vt 0.96094 0.83594
vt 0.94531 0.91406
vt 0.77344 0.91406
vt 0.91406 0.91406
vt 0.91406 0.83594
vt 0.97656 0.89844
vt 0.90149 0.38470
vt 0.99531 0.00581
vt 0.95192 0.00581
vt 0.97730 0.00581
vt 0.97730 0.00581
vt 0.95190 0.00581
vt 0.99531 0.00581
vt 0.97730 0.00581
vt 0.95190 0.00581
vt 0.95192 0.00581
vt 0.97730 0.00581
vt 0.99531 0.00581
vt 0.99531 0.00581
vt 0.77395 0.00981
vt 0.77395 0.00981
vt 0.77317 0.00981
vt 0.77395 0.00981
vt 0.77395 0.00981
vt 0.77395 0.00981
vt 0.77356 0.00981
vt 0.77356 0.00981
vt 0.77317 0.00981
vt 0.77395 0.00981
vt 0.77395 0.00981
vt 0.77395 0.00981
vt 0.77395 0.00981
vt 0.77395 0.00981
vt 0.77356 0.00981
vt 0.77356 0.00981
vt 0.77395 0.00981
vt 0.77395 0.00981
vt 0.77317 0.00981
vt 0.77395 0.00981
vt 0.77395 0.00981
vt 0.77395 0.00981
vt 0.77356 0.00981
vt 0.77356 0.00981
vt 0.77317 0.00981
vt 0.77395 0.00981
vt 0.77395 0.00981
vt 0.77395 0.00981
vt 0.77395 0.00981
vt 0.77395 0.00981
vt 0.77356 0.00981
vt 0.77356 0.00981
usemtl m0
f 1/1 2/2 3/3
f 3/3 2/2 4/4
f 3/3 4/4 5/5
f 6/6 1/1 3/3
f 7/7 3/3 5/5
f 8/8 3/3 7/7
f 6/6 3/3 8/8
f 9/9 10/10 11/11
f 12/12 10/10 9/9
f 13/13 12/12 9/9
f 9/9 11/11 14/14
f 13/13 9/9 15/15
f 15/15 9/9 16/16
f 16/16 9/9 14/14
f 17/17 18/18 19/19
f 19/19 18/18 20/20
f 19/19 20/20 21/21
f 19/19 21/21 22/22
f 19/19 22/22 23/23
f 20/20 24/24 21/21
f 20/20 25/25 24/24
f 18/18 26/26 20/20
f 20/20 26/26 25/25
f 18/18 27/27 26/26
f 28/28 19/19 23/23
f 28/28 17/17 19/19
f 29/29 30/30 31/31
f 31/31 30/30 32/32
f 31/31 32/32 33/33
f 31/31 33/33 34/34
f 30/30 35/35 32/32
f 36/36 35/35 30/30
f 37/37 36/36 30/30
f 32/32 38/38 33/33
f 32/32 35/35 38/38
f 35/35 39/39 38/38
f 40/40 36/36 37/37
f 40/40 37/37 41/41
f 42/42 40/40 41/41
f 42/42 41/41 43/43
f 42/42 43/43 44/44
f 44/44 45/45 42/42
f 45/45 40/40 42/42
f 44/44 43/43 46/46
f 44/44 46/46 47/47
f 46/46 48/48 47/47
f 48/48 29/29 47/47
f 49/49 36/36 40/40
f 45/45 50/50 40/40
f 50/50 49/49 40/40
f 51/51 50/50 45/45
f 52/52 51/51 45/45
f 53/53 51/51 52/52
f 54/54 53/53 52/52
f 55/55 44/44 47/47
f 56/56 52/52 55/55
f 57/57 52/52 56/56
f 56/56 55/55 58/58
f 55/55 47/47 58/58
f 58/58 47/47 59/59
f 59/59 47/47 60/60
f 47/47 31/31 60/60
f 47/47 29/29 31/31
f 60/60 31/31 61/61
f 60/60 61/61 62/62
f 63/63 60/60 62/62
f 59/59 60/60 63/63
f 61/61 31/31 34/34
f 62/62 61/61 64/64
f 62/62 64/64 63/63
f 61/61 65/65 64/64
f 34/34 65/65 61/61
f 34/34 33/33 65/65
f 64/64 65/65 66/66
f 64/64 66/66 67/67
f 63/63 64/64 67/67
f 67/67 66/66 68/68
f 33/33 69/69 65/65
f 33/33 70/70 69/69
f 69/69 71/71 65/65
f 65/65 71/71 72/72
f 65/65 72/72 66/66
f 66/66 72/72 73/73
f 66/66 73/73 74/74
f 69/69 75/75 71/71
f 70/70 75/75 69/69
f 70/70 76/76 75/75
f 71/71 75/75 77/77
f 71/71 77/77 78/78
f 78/78 77/77 79/79
f 80/80 78/78 79/79
f 80/80 79/79 81/81
f 82/82 80/80 81/81
f 83/83 82/82 81/81
f 74/74 82/82 83/83
f 81/81 84/84 83/83
f 81/81 79/79 84/84
f 66/66 74/74 83/83
f 79/79 77/77 85/85
f 79/79 86/86 84/84
f 79/79 85/85 86/86
f 84/84 86/86 87/87
f 84/84 87/87 88/88
f 88/88 87/87 89/89
f 88/88 89/89 90/90
f 66/66 83/83 91/91
f 91/91 88/88 92/92
f 92/92 88/88 93/93
f 68/68 91/91 92/92
f 68/68 66/66 91/91
f 94/94 88/88 91/91
f 83/83 84/84 94/94
f 91/91 83/83 94/94
f 94/94 84/84 88/88
f 95/95 96/96 97/97
f 96/96 98/98 97/97
f 97/97 98/98 99/99
f 98/98 100/100 99/99
f 100/100 101/101 99/99
f 100/100 102/102 101/101
f 98/98 103/103 100/100
f 99/99 101/101 104/104
f 99/99 104/104 97/97
f 97/97 104/104 105/105
f 97/97 105/105 106/106
f 107/107 108/108 109/109
f 110/110 107/107 109/109
f 107/107 111/111 108/108
f 112/112 110/110 109/109
f 113/113 110/110 112/112
f 114/114 113/113 112/112
f 112/112 115/115 114/114
f 114/114 115/115 116/116
f 107/107 117/117 111/111
f 117/117 118/118 111/111
f 119/119 118/118 117/117
f 119/119 120/120 118/118
f 119/119 121/121 120/120
f 121/121 122/122 120/120
f 121/121 123/123 122/122
f 123/123 124/124 122/122
f 123/123 125/125 124/124
f 125/125 126/126 124/124
f 127/127 113/113 114/114
f 127/127 128/128 113/113
f 129/129 128/128 127/127
f 129/129 130/130 128/128
f 129/129 131/131 130/130
f 131/131 132/132 130/130
f 132/132 133/133 130/130
f 132/132 134/134 133/133
f 133/133 134/134 135/135
f 134/134 136/136 135/135
f 137/137 126/126 125/125
f 137/137 125/125 138/138
f 139/139 137/137 138/138
f 136/136 139/139 140/140
f 139/139 138/138 140/140
f 136/136 140/140 135/135
f 128/128 130/130 141/141
f 128/128 141/141 113/113
f 113/113 141/141 110/110
f 141/141 107/107 110/110
f 141/141 142/142 107/107
f 142/142 117/117 107/107
f 130/130 133/133 143/143
f 130/130 143/143 141/141
f 144/144 145/145 146/146
f 144/144 146/146 147/147
f 148/148 144/144 147/147
f 149/149 144/144 148/148
f 150/150 149/149 148/148
f 151/151 152/152 153/153
f 153/153 152/152 154/154
f 152/152 155/155 154/154
f 153/153 154/154 156/156
f 153/153 156/156 157/157
f 158/158 153/153 157/157
f 159/159 160/160 161/161
f 159/159 160/160 162/162
f 160/160 163/163 162/162
f 162/162 163/163 164/164
f 160/160 165/165 163/163
f 165/165 166/166 163/163
f 163/163 166/166 167/167
f 163/163 167/167 164/164
f 164/164 167/167 168/168
f 167/167 169/169 168/168
f 166/166 169/169 167/167
f 168/168 169/169 170/170
f 170/170 169/169 171/171
f 171/171 169/169 172/172
f 170/170 171/171 173/173
f 166/166 174/174 169/169
f 169/169 174/174 175/175
f 169/169 175/175 172/172
f 175/175 174/174 176/176
f 172/172 175/175 176/176
f 172/172 176/176 177/177
f 177/177 176/176 178/178
f 179/179 177/177 178/178
f 178/178 176/176 180/180
f 180/180 176/176 181/181
f 180/180 181/181 182/182
f 181/181 176/176 183/183
f 176/176 174/174 183/183
f 181/181 183/183 184/184
f 182/182 181/181 184/184
f 184/184 183/183 185/185
f 182/182 184/184 186/186
f 184/184 185/185 187/187
f 186/186 184/184 187/187
f 186/186 187/187 188/188
f 189/189 187/187 188/188
f 190/190 191/191 192/192
f 190/190 193/193 191/191
f 193/193 194/194 191/191
f 192/192 191/191 195/195
f 191/191 194/194 196/196
f 191/191 196/196 197/197
f 198/198 191/191 197/197
f 195/195 191/191 198/198
f 199/199 200/200 201/201
f 201/201 200/200 202/202
f 203/203 199/199 201/201
f 203/203 201/201 204/204
f 201/201 202/202 205/205
f 206/206 201/201 205/205
f 204/204 201/201 206/206
f 33/33 38/38 207/207
f 207/207 70/70 33/33
f 208/208 209/209 210/210
f 211/211 209/209 208/208
f 212/212 211/211 208/208
f 213/213 212/212 208/208
f 214/214 213/213 208/208
f 212/212 215/215 211/211
f 215/215 216/216 211/211
f 211/211 217/217 209/209
f 216/216 217/217 211/211
f 217/217 218/218 209/209
f 214/214 208/208 219/219
f 208/208 210/210 219/219
f 220/220 221/221 222/222
f 220/220 223/223 221/221
f 224/224 223/223 220/220
f 224/224 225/225 223/223
f 224/224 226/226 225/225
f 226/226 227/227 225/225
f 225/225 228/228 223/223
f 229/229 226/226 224/224
f 220/220 229/229 224/224
f 230/230 229/229 220/220
f 231/231 230/230 220/220
f 232/232 233/233 234/234
f 235/235 232/232 234/234
f 235/235 234/234 236/236
f 236/236 234/234 237/237
f 236/236 237/237 238/238
f 239/239 240/240 241/241
f 242/242 240/240 239/239
f 242/242 243/243 240/240
f 244/244 242/242 239/239
f 245/245 244/244 239/239
f 245/245 239/239 246/246
f 114/114 247/247 127/127
f 116/116 247/247 114/114
f 248/248 249/249 250/250
f 251/251 249/249 248/248
f 248/248 250/250 252/252
f 253/253 248/248 252/252
f 254/254 248/248 253/253
f 255/255 248/248 254/254
f 255/255 251/251 248/248
f 256/256 257/257 258/258
f 259/259 260/260 261/261
f 262/262 263/263 264/264
f 263/263 265/265 264/264
f 266/266 265/265 263/263
f 267/267 265/265 266/266
f 264/264 265/265 267/267
f 264/264 267/267 268/268
f 263/263 269/269 266/266
f 269/269 270/270 266/266
f 266/266 271/271 267/267
f 266/266 272/272 271/271
f 273/273 274/274 275/275
f 276/276 274/274 273/273
f 277/277 274/274 276/276
f 277/277 276/276 278/278
f 279/279 276/276 273/273
f 278/278 276/276 280/280
f 280/280 276/276 279/279
f 281/281 277/277 278/278
f 282/282 277/277 281/281
f 282/282 281/281 283/283
f 284/284 282/282 283/283
f 285/285 281/281 278/278
f 285/285 278/278 286/286
f 286/286 278/278 287/287
f 278/278 280/280 287/287
f 288/288 285/285 286/286
f 288/288 289/289 285/285
f 290/290 289/289 288/288
f 291/291 289/289 290/290
f 292/292 289/289 291/291
f 293/293 292/292 291/291
f 294/294 293/293 291/291
f 294/294 291/291 295/295
f 295/295 290/290 288/288
f 295/295 291/291 290/290
f 296/296 294/294 295/295
f 296/296 295/295 297/297
f 295/295 288/288 297/297
f 296/296 297/297 298/298
f 298/298 297/297 299/299
f 297/297 288/288 299/299
f 299/299 288/288 286/286
f 299/299 286/286 287/287
f 298/298 299/299 300/300
f 300/300 299/299 301/301
f 299/299 287/287 301/301
f 300/300 301/301 302/302
f 303/303 300/300 302/302
f 303/303 302/302 304/304
f 304/304 302/302 305/305
f 302/302 301/301 305/305
f 306/306 304/304 305/305
f 307/307 300/300 303/303
f 307/307 298/298 300/300
f 305/305 301/301 308/308
f 309/309 298/298 307/307
f 309/309 296/296 298/298
f 309/309 310/310 296/296
f 310/310 294/294 296/296
f 308/308 301/301 311/311
f 301/301 312/312 311/311
f 301/301 287/287 312/312
f 287/287 280/280 312/312
f 312/312 280/280 313/313
f 312/312 313/313 314/314
f 314/314 313/313 315/315
f 314/314 315/315 316/316
f 315/315 317/317 316/316
f 307/307 318/318 309/309
f 319/319 318/318 307/307
f 303/303 319/319 307/307
f 320/320 319/319 303/303
f 304/304 320/320 303/303
f 321/321 320/320 304/304
f 321/321 304/304 306/306
f 320/320 322/322 319/319
f 321/321 322/322 320/320
f 322/322 323/323 319/319
f 319/319 323/323 318/318
f 323/323 324/324 318/318
f 325/325 322/322 321/321
f 322/322 326/326 323/323
f 318/318 324/324 327/327
f 318/318 327/327 309/309
f 324/324 328/328 327/327
f 328/328 294/294 327/327
f 324/324 329/329 328/328
f 323/323 329/329 324/324
f 327/327 310/310 309/309
f 327/327 294/294 310/310
f 328/328 330/330 294/294
f 330/330 293/293 294/294
f 330/330 331/331 293/293
f 330/330 332/332 331/331
f 333/333 332/332 329/329
f 334/334 333/333 329/329
f 334/334 329/329 323/323
f 326/326 334/334 323/323
f 326/326 335/335 334/334
f 334/334 335/335 333/333
f 329/329 332/332 336/336
f 336/336 332/332 330/330
f 329/329 336/336 328/328
f 336/336 330/330 328/328
f 335/335 337/337 333/333
f 335/335 277/277 337/337
f 337/337 277/277 282/282
f 335/335 338/338 277/277
f 338/338 274/274 277/277
f 339/339 274/274 338/338
f 275/275 274/274 339/339
f 340/340 337/337 282/282
f 340/340 282/282 284/284
f 339/339 338/338 341/341
f 342/342 338/338 335/335
f 341/341 338/338 342/342
f 343/343 340/340 284/284
f 284/284 283/283 343/343
f 326/326 342/342 335/335
f 344/344 342/342 326/326
f 344/344 326/326 322/322
f 345/345 342/342 344/344
f 346/346 345/345 344/344
f 347/347 345/345 346/346
f 348/348 347/347 346/346
f 348/348 349/349 347/347
f 350/350 344/344 322/322
f 350/350 322/322 325/325
f 351/351 352/352 353/353
f 353/353 352/352 354/354
f 351/351 353/353 355/355
f 356/356 351/351 355/355
f 356/356 355/355 357/357
f 357/357 355/355 358/358
f 353/353 354/354 359/359
f 354/354 360/360 359/359
f 353/353 359/359 361/361
f 355/355 353/353 361/361
f 361/361 359/359 362/362
f 355/355 361/361 363/363
f 363/363 361/361 362/362
f 358/358 355/355 364/364
f 364/364 355/355 363/363
f 359/359 360/360 365/365
f 359/359 365/365 362/362
f 366/366 367/367 368/368
f 368/368 367/367 369/369
f 370/370 368/368 369/369
f 370/370 369/369 371/371
f 372/372 370/370 371/371
f 372/372 371/371 373/373
f 374/374 375/375 376/376
f 377/377 375/375 374/374
f 378/378 375/375 377/377
f 379/379 375/375 378/378
f 374/374 376/376 380/380
f 381/381 374/374 380/380
f 381/381 380/380 382/382
f 383/383 381/381 382/382
f 378/378 377/377 384/384
f 385/385 386/386 387/387
f 388/388 386/386 385/385
f 389/389 385/385 387/387
f 389/389 387/387 390/390
f 391/391 389/389 390/390
f 392/392 389/389 391/391
f 393/393 388/388 385/385
f 393/393 394/394 388/388
f 395/395 393/393 385/385
f 395/395 385/385 389/389
f 396/396 393/393 395/395
f 397/397 395/395 389/389
f 396/396 395/395 397/397
f 398/398 389/389 392/392
f 397/397 389/389 398/398
f 399/399 394/394 393/393
f 396/396 399/399 393/393
f 400/400 401/401 402/402
f 403/403 401/401 400/400
f 403/403 400/400 404/404
f 405/405 403/403 404/404
f 405/405 404/404 406/406
f 407/407 405/405 406/406
f 408/408 409/409 410/410
f 411/411 409/409 408/408
f 410/410 409/409 412/412
f 412/412 409/409 413/413
f 414/414 410/410 412/412
f 415/415 411/411 408/408
f 415/415 408/408 416/416
f 417/417 415/415 416/416
f 417/417 416/416 418/418
f 419/419 420/420 421/421
f 421/421 420/420 422/422
f 421/421 422/422 423/423
f 424/424 421/421 423/423
f 425/425 426/426 419/419
f 427/427 426/426 425/425
f 424/424 427/427 425/425
f 427/427 428/428 426/426
f 428/428 429/429 426/426
f 426/426 429/429 419/419
f 430/430 428/428 427/427
f 430/430 431/431 428/428
f 432/432 431/431 430/430
f 433/433 431/431 432/432
f 434/434 431/431 433/433
f 435/435 434/434 433/433
f 435/435 433/433 436/436
f 436/436 433/433 437/437
f 433/433 432/432 437/437
f 437/437 432/432 438/438
f 428/428 439/439 429/429
f 429/429 439/439 440/440
f 429/429 440/440 441/441
f 419/419 429/429 441/441
f 438/438 432/432 442/442
f 442/442 432/432 430/430
f 442/442 430/430 427/427
f 442/442 427/427 424/424
f 443/443 444/444 445/445
f 446/446 444/444 443/443
f 447/447 446/446 443/443
f 447/447 443/443 448/448
f 445/445 449/449 450/450
f 450/450 449/449 451/451
f 450/450 451/451 448/448
f 449/449 452/452 451/451
f 449/449 453/453 452/452
f 445/445 453/453 449/449
f 451/451 452/452 454/454
f 452/452 455/455 454/454
f 454/454 455/455 456/456
f 456/456 455/455 457/457
f 457/457 455/455 458/458
f 457/457 458/458 459/459
f 460/460 457/457 459/459
f 461/461 457/457 460/460
f 461/461 456/456 457/457
f 462/462 456/456 461/461
f 453/453 463/463 452/452
f 464/464 463/463 453/453
f 465/465 464/464 453/453
f 465/465 453/453 445/445
f 466/466 456/456 462/462
f 454/454 456/456 466/466
f 451/451 454/454 466/466
f 448/448 451/451 466/466
f 467/467 468/468 469/469
f 467/467 469/469 470/470
f 470/470 469/469 471/471
f 468/468 472/472 469/469
f 472/472 473/473 469/469
f 473/473 474/474 469/469
f 471/471 469/469 475/475
f 475/475 469/469 476/476
f 469/469 477/477 476/476
f 469/469 478/478 477/477
f 469/469 479/479 478/478
f 469/469 474/474 479/479
f 480/480 481/481 482/482
f 482/482 481/481 483/483
f 484/484 480/480 482/482
f 485/485 486/486 487/487
f 488/488 489/489 485/485
f 490/490 491/491 492/492
f 493/493 491/491 490/490
f 494/494 495/495 496/496
f 497/497 495/495 494/494
f 498/498 497/497 494/494
f 496/496 499/499 494/494
f 494/494 499/499 500/500
f 494/494 500/500 501/501
f 502/502 503/503 504/504
f 505/505 506/506 507/507
f 508/508 506/506 505/505
f 509/509 508/508 505/505
f 510/510 508/508 509/509
f 511/511 510/510 509/509
f 511/511 509/509 512/512
f 513/513 511/511 512/512
f 514/514 515/515 516/516
f 516/516 515/515 517/517
f 518/518 514/514 516/516
f 519/519 514/514 518/518
f 520/520 519/519 518/518
f 521/521 522/522 523/523
f 521/521 523/523 524/524
f 522/522 525/525 523/523
f 526/526 527/527 528/528
f 526/526 527/527 529/529
f 530/530 526/526 529/529
f 531/531 532/532 533/533
f 532/532 534/534 533/533
f 533/533 534/534 535/535
f 535/535 534/534 536/536
f 536/536 534/534 537/537
f 536/536 537/537 538/538
f 539/539 540/540 541/541
f 539/539 542/542 540/540
f 543/543 539/539 541/541
f 542/542 544/544 540/540
f 544/544 545/545 540/540
f 546/546 545/545 547/547
f 546/546 547/547 548/548
f 546/546 548/548 549/549
f 550/550 546/546 549/549
f 550/550 549/549 551/551
f 552/552 553/553 554/554
f 554/554 553/553 555/555
f 556/556 557/557 558/558
f 558/558 557/557 559/559
f 560/560 556/556 558/558
f 557/557 561/561 559/559
f 559/559 561/561 562/562
f 562/562 561/561 563/563
f 563/563 561/561 564/564
f 563/563 564/564 565/565
f 565/565 564/564 566/566
f 565/565 566/566 567/567
f 568/568 569/569 570/570
f 568/568 570/570 571/571
f 569/569 572/572 570/570
f 569/569 573/573 572/572
f 574/574 575/575 576/576
f 577/577 575/575 574/574
f 578/578 577/577 574/574
f 576/576 579/579 580/580
f 580/580 579/579 581/581
f 580/580 581/581 582/582
f 583/583 584/584 585/585
f 583/583 585/585 586/586
f 587/587 583/583 586/586
f 588/588 583/583 587/587
f 589/589 590/590 591/591
f 592/592 590/590 589/589
f 589/589 591/591 593/593
f 594/594 595/595 596/596
f 597/597 598/598 599/599
f 599/599 598/598 600/600
f 599/599 600/600 601/601
f 601/601 600/600 602/602
f 601/601 602/602 603/603
f 604/604 601/601 603/603
f 604/604 603/603 605/605
f 606/606 607/607 608/608
f 609/609 607/607 606/606
f 606/606 608/608 610/610
f 610/610 608/608 611/611
f 610/610 611/611 612/612
f 613/613 614/614 615/615
f 616/616 613/613 615/615
f 613/613 617/617 614/614
f 618/618 619/619 620/620
f 621/621 619/619 620/620
f 621/621 620/620 622/622
f 623/623 624/624 625/625
f 626/626 623/623 625/625
f 623/623 627/627 624/624
f 627/627 628/628 624/624
f 629/629 630/630 631/631
f 632/632 629/629 631/631
f 632/632 631/631 633/633
f 633/633 631/631 634/634
f 635/635 636/636 637/637
f 637/637 636/636 638/638
f 639/639 635/635 637/637
f 639/639 637/637 640/640
f 639/639 640/640 641/641
f 642/642 639/639 641/641
f 642/642 641/641 643/643
f 644/644 642/642 643/643
f 645/645 639/639 642/642
f 645/645 642/642 644/644
f 646/646 639/639 645/645
f 646/646 635/635 639/639
f 636/636 647/647 638/638
f 638/638 647/647 648/648
f 647/647 649/649 648/648
f 650/650 649/649 647/647
f 651/651 650/650 647/647
f 636/636 651/651 647/647
f 635/635 651/651 636/636
f 652/652 651/651 635/635
f 652/652 635/635 646/646
f 653/653 649/649 654/654
f 655/655 653/653 654/654
f 656/656 653/653 655/655
f 657/657 656/656 655/655
f 658/658 656/656 657/657
f 659/659 658/658 657/657
f 660/660 658/658 659/659
f 660/660 659/659 661/661
f 662/662 660/660 661/661
f 662/662 661/661 663/663
f 663/663 661/661 664/664
f 659/659 657/657 665/665
f 657/657 666/666 665/665
f 655/655 666/666 657/657
f 659/659 665/665 667/667
f 661/661 659/659 667/667
f 661/661 667/667 668/668
f 669/669 661/661 668/668
f 664/664 661/661 669/669
f 654/654 670/670 655/655
f 655/655 670/670 666/666
f 654/654 649/649 670/670
f 671/671 649/649 672/672
f 673/673 649/649 671/671
f 673/673 671/671 674/674
f 674/674 671/671 675/675
f 674/674 675/675 676/676
f 676/676 675/675 677/677
f 676/676 677/677 678/678
f 678/678 677/677 679/679
f 680/680 676/676 678/678
f 681/681 680/680 678/678
f 681/681 678/678 682/682
f 682/682 678/678 683/683
f 678/678 679/679 683/683
f 684/684 681/681 682/682
f 685/685 681/681 684/684
f 685/685 686/686 681/681
f 686/686 680/680 681/681
f 671/671 672/672 687/687
f 675/675 687/687 677/677
f 677/677 687/687 679/679
f 675/675 671/671 687/687
f 688/688 689/689 690/690
f 691/691 688/688 690/690
f 692/692 688/688 691/691
f 692/692 691/691 693/693
f 692/692 693/693 694/694
f 695/695 692/692 694/694
f 696/696 692/692 695/695
f 697/697 696/696 695/695
f 697/697 695/695 698/698
f 695/695 694/694 698/698
f 699/699 700/700 701/701
f 699/699 701/701 702/702
f 703/703 699/699 702/702
f 704/704 699/699 703/703
f 705/705 699/699 704/704
f 705/705 706/706 699/699
f 706/706 700/700 699/699
f 707/707 708/708 709/709
f 707/707 709/709 710/710
f 710/710 709/709 711/711
f 712/712 710/710 711/711
f 713/713 712/712 711/711
f 713/713 711/711 714/714
f 715/715 713/713 714/714
f 714/714 711/711 716/716
f 714/714 716/716 717/717
f 715/715 714/714 717/717
f 717/717 716/716 718/718
f 718/718 716/716 668/668
f 719/719 720/720 721/721
f 722/722 720/720 719/719
f 723/723 724/724 725/725
f 726/726 44/44 55/55
f 55/55 52/52 726/726
f 52/52 45/45 726/726
f 726/726 45/45 44/44
f 727/727 728/728 729/729
f 728/728 730/730 729/729
f 728/728 731/731 730/730
f 731/731 732/732 730/730
f 733/733 734/734 735/735
f 736/736 733/733 735/735
f 733/733 737/737 734/734
f 736/736 735/735 738/738
usemtl m1
f 739/739 740/740 741/741
f 741/741 740/740 742/742
f 743/743 739/739 741/741
f 744/744 743/743 741/741
f 741/741 742/742 745/745
f 746/746 741/741 745/745
f 744/744 741/741 746/746
f 747/747 748/748 749/749
f 750/750 748/748 747/747
f 747/747 749/749 751/751
f 747/747 751/751 752/752
f 753/753 750/750 747/747
f 753/753 747/747 754/754
f 754/754 747/747 752/752
f 755/755 756/756 757/757
f 755/755 756/756 757/757
f 757/757 756/756 758/758
f 757/757 756/756 758/758
f 759/759 755/755 757/757
f 759/759 755/755 757/757
f 759/759 757/757 760/760
f 759/759 757/757 760/760
f 757/757 758/758 761/761
f 757/757 758/758 761/761
f 762/762 757/757 761/761
f 760/760 757/757 762/762
f 762/762 757/757 761/761
f 760/760 757/757 762/762
f 763/763 764/764 765/765
f 763/763 764/764 765/765
f 766/766 764/764 763/763
f 766/766 764/764 763/763
f 763/763 765/765 767/767
f 763/763 765/765 767/767
f 768/768 763/763 767/767
f 768/768 763/763 767/767
f 769/769 766/766 763/763
f 769/769 766/766 763/763
f 769/769 763/763 770/770
f 770/770 763/763 768/768
f 769/769 763/763 770/770
f 770/770 763/763 768/768
