mtllib acce1232.mtl
o acce1232
v 0.13483 -0.37055 1.52845 0.000 0.000 0.000
v 0.14656 -0.35631 1.51994 0.000 0.000 0.000
v 0.15381 -0.23195 1.78688 0.000 0.000 0.000
v 0.16582 -0.21569 1.78213 0.000 0.000 0.000
v 0.15381 -0.23195 1.78688 0.000 0.000 0.000
v 0.14529 -0.23848 1.78672 0.000 0.000 0.000
v 0.13483 -0.37055 1.52845 0.000 0.000 0.000
v 0.11839 -0.29891 1.70350 0.000 0.000 0.000
v 0.10633 -0.38696 1.53934 0.000 0.000 0.000
v 0.07783 -0.40336 1.55023 0.000 0.000 0.000
v 0.10485 -0.26177 1.80218 0.000 0.000 0.000
v 0.09682 -0.26476 1.80866 0.000 0.000 0.000
v 0.12691 -0.36013 1.52343 0.000 0.000 0.000
v 0.14590 -0.22153 1.78186 0.000 0.000 0.000
v 0.14656 -0.35631 1.51994 0.000 0.000 0.000
v 0.16582 -0.21569 1.78213 0.000 0.000 0.000
v 0.14590 -0.22153 1.78186 0.000 0.000 0.000
v 0.12691 -0.36013 1.52343 0.000 0.000 0.000
v 0.13738 -0.22806 1.78171 0.000 0.000 0.000
v 0.11048 -0.28849 1.69850 0.000 0.000 0.000
v 0.09841 -0.37654 1.53432 0.000 0.000 0.000
v 0.06992 -0.39294 1.54523 0.000 0.000 0.000
v 0.09694 -0.25135 1.79717 0.000 0.000 0.000
v 0.08890 -0.25434 1.80365 0.000 0.000 0.000
v 0.12504 -0.10044 2.01983 0.000 0.000 0.000
v 0.15192 -0.13585 2.03684 0.000 0.000 0.000
v 0.17009 -0.09994 2.01625 0.000 0.000 0.000
v 0.10688 -0.13633 2.04041 0.000 0.000 0.000
v 0.11930 -0.17696 1.88957 0.000 0.000 0.000
v 0.13815 -0.20176 1.90150 0.000 0.000 0.000
v 0.15087 -0.17662 1.88707 0.000 0.000 0.000
v 0.10658 -0.20210 1.90400 0.000 0.000 0.000
v 0.07783 -0.40336 1.55023 0.000 0.000 0.000
v 0.09682 -0.26476 1.80866 0.000 0.000 0.000
v 0.05819 -0.40718 1.55372 0.000 0.000 0.000
v 0.07745 -0.26656 1.81589 0.000 0.000 0.000
v 0.06992 -0.39294 1.54523 0.000 0.000 0.000
v 0.05819 -0.40718 1.55372 0.000 0.000 0.000
v 0.08890 -0.25434 1.80365 0.000 0.000 0.000
v 0.07745 -0.26656 1.81589 0.000 0.000 0.000
v 0.13072 -0.47196 1.30432 0.000 0.000 0.000
v 0.14656 -0.35631 1.51994 0.000 0.000 0.000
v 0.13483 -0.37055 1.52845 0.000 0.000 0.000
v 0.11898 -0.48620 1.31281 0.000 0.000 0.000
v 0.10937 -0.51799 1.26184 0.000 0.000 0.000
v 0.11503 -0.52061 1.22783 0.000 0.000 0.000
v 0.07993 -0.57971 1.17995 0.000 0.000 0.000
v 0.07054 -0.61414 1.10353 0.000 0.000 0.000
v 0.07201 -0.56929 1.17495 0.000 0.000 0.000
v 0.04624 -0.56021 1.25413 0.000 0.000 0.000
v 0.05588 -0.53381 1.27426 0.000 0.000 0.000
v 0.04234 -0.52283 1.33808 0.000 0.000 0.000
v 0.05408 -0.50859 1.32959 0.000 0.000 0.000
v 0.06992 -0.39294 1.54523 0.000 0.000 0.000
v 0.05819 -0.40718 1.55372 0.000 0.000 0.000
v 0.12691 -0.36013 1.52343 0.000 0.000 0.000
v 0.11107 -0.47578 1.30781 0.000 0.000 0.000
v 0.09841 -0.37654 1.53432 0.000 0.000 0.000
v 0.08257 -0.49219 1.31870 0.000 0.000 0.000
v 0.10146 -0.50756 1.25683 0.000 0.000 0.000
v 0.06992 -0.39294 1.54523 0.000 0.000 0.000
v 0.07201 -0.56929 1.17495 0.000 0.000 0.000
v 0.05408 -0.50859 1.32959 0.000 0.000 0.000
v 0.05588 -0.53381 1.27426 0.000 0.000 0.000
v 0.12691 -0.36013 1.52343 0.000 0.000 0.000
v 0.14656 -0.35631 1.51994 0.000 0.000 0.000
v 0.13072 -0.47196 1.30432 0.000 0.000 0.000
v 0.11107 -0.47578 1.30781 0.000 0.000 0.000
v 0.10146 -0.50756 1.25683 0.000 0.000 0.000
v 0.11503 -0.52061 1.22783 0.000 0.000 0.000
v 0.07201 -0.56929 1.17495 0.000 0.000 0.000
v 0.07054 -0.61414 1.10353 0.000 0.000 0.000
v 0.07993 -0.57971 1.17995 0.000 0.000 0.000
v 0.04624 -0.56021 1.25413 0.000 0.000 0.000
v 0.06379 -0.54423 1.27926 0.000 0.000 0.000
v 0.04234 -0.52283 1.33808 0.000 0.000 0.000
v 0.06199 -0.51901 1.33459 0.000 0.000 0.000
v 0.07783 -0.40336 1.55023 0.000 0.000 0.000
v 0.05819 -0.40718 1.55372 0.000 0.000 0.000
v 0.07783 -0.40336 1.55023 0.000 0.000 0.000
v 0.06199 -0.51901 1.33459 0.000 0.000 0.000
v 0.10633 -0.38696 1.53934 0.000 0.000 0.000
v 0.09049 -0.50261 1.32370 0.000 0.000 0.000
v 0.06379 -0.54423 1.27926 0.000 0.000 0.000
v 0.13483 -0.37055 1.52845 0.000 0.000 0.000
v 0.07993 -0.57971 1.17995 0.000 0.000 0.000
v 0.11898 -0.48620 1.31281 0.000 0.000 0.000
v 0.10937 -0.51799 1.26184 0.000 0.000 0.000
v 0.19856 -0.15322 1.86039 0.000 0.000 0.000
v 0.18952 -0.15343 1.86116 0.000 0.000 0.000
v 0.11669 -0.17872 1.88008 0.000 0.000 0.000
v 0.13955 -0.20882 1.89455 0.000 0.000 0.000
v 0.19480 -0.16038 1.86451 0.000 0.000 0.000
v 0.05768 -0.23432 1.91425 0.000 0.000 0.000
v 0.06672 -0.23411 1.91347 0.000 0.000 0.000
v 0.06144 -0.22716 1.91012 0.000 0.000 0.000
v 0.14533 -0.20718 1.80826 0.000 0.000 0.000
v 0.18469 -0.18868 1.79545 0.000 0.000 0.000
v 0.19373 -0.18846 1.79467 0.000 0.000 0.000
v 0.15500 -0.21991 1.81438 0.000 0.000 0.000
v 0.18997 -0.19562 1.79879 0.000 0.000 0.000
v 0.13210 -0.21953 1.80346 0.000 0.000 0.000
v 0.14533 -0.20718 1.80826 0.000 0.000 0.000
v 0.15500 -0.21991 1.81438 0.000 0.000 0.000
v 0.14177 -0.23227 1.80958 0.000 0.000 0.000
v 0.11569 -0.24284 1.78088 0.000 0.000 0.000
v 0.12536 -0.25558 1.78700 0.000 0.000 0.000
v 0.11308 -0.24880 1.82054 0.000 0.000 0.000
v 0.10341 -0.23605 1.81442 0.000 0.000 0.000
v 0.10126 -0.25085 1.83494 0.000 0.000 0.000
v 0.09159 -0.23812 1.82882 0.000 0.000 0.000
v 0.14533 -0.20718 1.80826 0.000 0.000 0.000
v 0.13972 -0.19460 1.83024 0.000 0.000 0.000
v 0.18469 -0.18868 1.79545 0.000 0.000 0.000
v 0.18952 -0.15343 1.86116 0.000 0.000 0.000
v 0.19856 -0.15322 1.86039 0.000 0.000 0.000
v 0.19373 -0.18846 1.79467 0.000 0.000 0.000
v 0.11669 -0.17872 1.88008 0.000 0.000 0.000
v 0.11457 -0.19417 1.85126 0.000 0.000 0.000
v 0.19480 -0.16038 1.86451 0.000 0.000 0.000
v 0.09514 -0.22027 1.84729 0.000 0.000 0.000
v 0.18997 -0.19562 1.79879 0.000 0.000 0.000
v 0.06144 -0.22716 1.91012 0.000 0.000 0.000
v 0.15467 -0.21427 1.83971 0.000 0.000 0.000
v 0.15500 -0.21991 1.81438 0.000 0.000 0.000
v 0.13955 -0.20882 1.89455 0.000 0.000 0.000
v 0.13744 -0.22428 1.86574 0.000 0.000 0.000
v 0.11008 -0.23994 1.85675 0.000 0.000 0.000
v 0.06672 -0.23411 1.91347 0.000 0.000 0.000
v 0.05662 -0.26240 1.84441 0.000 0.000 0.000
v 0.09159 -0.23812 1.82882 0.000 0.000 0.000
v 0.05768 -0.23432 1.91425 0.000 0.000 0.000
v 0.05285 -0.26957 1.84853 0.000 0.000 0.000
v 0.06189 -0.26935 1.84775 0.000 0.000 0.000
v 0.10126 -0.25085 1.83494 0.000 0.000 0.000
v 0.10126 -0.25085 1.83494 0.000 0.000 0.000
v 0.06189 -0.26935 1.84775 0.000 0.000 0.000
v 0.05285 -0.26957 1.84853 0.000 0.000 0.000
v 0.09159 -0.23812 1.82882 0.000 0.000 0.000
v 0.05662 -0.26240 1.84441 0.000 0.000 0.000
v 0.14177 -0.23227 1.80958 0.000 0.000 0.000
v 0.13397 -0.25337 1.81287 0.000 0.000 0.000
v 0.12536 -0.25558 1.78700 0.000 0.000 0.000
v 0.11308 -0.24880 1.82054 0.000 0.000 0.000
v 0.14856 -0.23339 1.82918 0.000 0.000 0.000
v 0.15500 -0.21991 1.81438 0.000 0.000 0.000
v 0.15467 -0.21427 1.83971 0.000 0.000 0.000
v 0.12169 -0.24887 1.83944 0.000 0.000 0.000
v 0.10126 -0.25085 1.83494 0.000 0.000 0.000
v 0.11008 -0.23994 1.85675 0.000 0.000 0.000
v 0.13951 -0.23564 1.85405 0.000 0.000 0.000
v 0.13744 -0.22428 1.86574 0.000 0.000 0.000
v 0.13886 -0.24606 1.83668 0.000 0.000 0.000
v 0.09514 -0.22027 1.84729 0.000 0.000 0.000
v 0.09883 -0.21875 1.82498 0.000 0.000 0.000
v 0.09159 -0.23812 1.82882 0.000 0.000 0.000
v 0.10341 -0.23605 1.81442 0.000 0.000 0.000
v 0.11049 -0.19742 1.83569 0.000 0.000 0.000
v 0.11457 -0.19417 1.85126 0.000 0.000 0.000
v 0.13972 -0.19460 1.83024 0.000 0.000 0.000
v 0.11023 -0.22210 1.79784 0.000 0.000 0.000
v 0.11569 -0.24284 1.78088 0.000 0.000 0.000
v 0.13210 -0.21953 1.80346 0.000 0.000 0.000
v 0.12570 -0.20329 1.81471 0.000 0.000 0.000
v 0.14533 -0.20718 1.80826 0.000 0.000 0.000
v 0.10853 -0.20610 1.81748 0.000 0.000 0.000
v 0.12503 -0.08656 2.04071 0.000 0.000 0.000
v 0.10469 -0.12676 2.06377 0.000 0.000 0.000
v 0.14220 -0.09097 2.07898 0.000 0.000 0.000
v 0.17549 -0.08600 2.03672 0.000 0.000 0.000
v 0.15515 -0.12622 2.05978 0.000 0.000 0.000
v 0.13738 -0.22806 1.78171 0.000 0.000 0.000
v 0.11048 -0.28849 1.69850 0.000 0.000 0.000
v 0.11516 -0.25430 1.76222 0.000 0.000 0.000
v 0.09694 -0.25135 1.79717 0.000 0.000 0.000
v 0.11984 -0.22014 1.82594 0.000 0.000 0.000
v 0.14590 -0.22153 1.78186 0.000 0.000 0.000
v 0.08890 -0.25434 1.80365 0.000 0.000 0.000
v 0.14834 -0.20372 1.81505 0.000 0.000 0.000
v 0.09134 -0.23654 1.83683 0.000 0.000 0.000
v 0.16582 -0.21569 1.78213 0.000 0.000 0.000
v 0.16798 -0.19991 1.81156 0.000 0.000 0.000
v 0.15625 -0.21415 1.82005 0.000 0.000 0.000
v 0.15381 -0.23195 1.78688 0.000 0.000 0.000
v 0.07745 -0.26656 1.81589 0.000 0.000 0.000
v 0.07961 -0.25078 1.84534 0.000 0.000 0.000
v 0.09926 -0.24696 1.84185 0.000 0.000 0.000
v 0.09682 -0.26476 1.80866 0.000 0.000 0.000
v 0.12775 -0.23056 1.83096 0.000 0.000 0.000
v 0.14529 -0.23848 1.78672 0.000 0.000 0.000
v 0.10485 -0.26177 1.80218 0.000 0.000 0.000
v 0.12307 -0.26473 1.76722 0.000 0.000 0.000
v 0.11839 -0.29891 1.70350 0.000 0.000 0.000
v 0.14645 -0.14641 2.00662 0.000 0.000 0.000
v 0.16001 -0.11961 1.99125 0.000 0.000 0.000
v 0.15192 -0.13585 2.03684 0.000 0.000 0.000
v 0.11283 -0.14677 2.00929 0.000 0.000 0.000
v 0.17009 -0.09994 2.01625 0.000 0.000 0.000
v 0.10688 -0.13633 2.04041 0.000 0.000 0.000
v 0.12504 -0.10044 2.01983 0.000 0.000 0.000
v 0.12638 -0.11997 1.99391 0.000 0.000 0.000
v 0.09039 -0.42003 1.45435 0.000 0.000 0.000
v 0.07931 -0.41884 1.47431 0.000 0.000 0.000
v 0.07973 -0.40640 1.49517 0.000 0.000 0.000
v 0.09201 -0.40916 1.47438 0.000 0.000 0.000
v 0.07222 -0.41396 1.49566 0.000 0.000 0.000
v 0.08901 -0.40117 1.49578 0.000 0.000 0.000
v 0.06921 -0.40597 1.51706 0.000 0.000 0.000
v 0.08191 -0.39629 1.51715 0.000 0.000 0.000
v 0.07084 -0.39510 1.53709 0.000 0.000 0.000
v 0.08993 -0.42341 1.44801 0.000 0.000 0.000
v 0.07389 -0.44906 1.41561 0.000 0.000 0.000
v 0.07660 -0.43864 1.43739 0.000 0.000 0.000
v 0.08859 -0.43411 1.42787 0.000 0.000 0.000
v 0.06684 -0.45322 1.42247 0.000 0.000 0.000
v 0.08270 -0.44723 1.40987 0.000 0.000 0.000
v 0.06094 -0.46634 1.40447 0.000 0.000 0.000
v 0.07293 -0.46181 1.39495 0.000 0.000 0.000
v 0.05961 -0.47704 1.38433 0.000 0.000 0.000
v 0.09187 -0.42055 1.45091 0.000 0.000 0.000
v 0.07345 -0.42948 1.45705 0.000 0.000 0.000
v 0.08391 -0.42167 1.46117 0.000 0.000 0.000
v 0.07501 -0.42566 1.46689 0.000 0.000 0.000
v 0.06579 -0.43209 1.46810 0.000 0.000 0.000
v 0.05680 -0.44073 1.46432 0.000 0.000 0.000
v 0.06476 -0.43963 1.45406 0.000 0.000 0.000
v 0.07365 -0.43562 1.44832 0.000 0.000 0.000
v 0.08287 -0.42919 1.44713 0.000 0.000 0.000
v 0.10852 -0.40930 1.44365 0.000 0.000 0.000
v 0.09983 -0.41944 1.44065 0.000 0.000 0.000
v 0.10086 -0.41191 1.45469 0.000 0.000 0.000
v 0.10872 -0.41544 1.43492 0.000 0.000 0.000
v 0.11008 -0.40547 1.45350 0.000 0.000 0.000
v 0.11794 -0.40901 1.43372 0.000 0.000 0.000
v 0.11897 -0.40147 1.44776 0.000 0.000 0.000
v 0.12693 -0.40036 1.43750 0.000 0.000 0.000
v 0.10964 -0.29081 1.69281 0.000 0.000 0.000
v 0.09978 -0.35519 1.57005 0.000 0.000 0.000
v 0.09783 -0.32679 1.63660 0.000 0.000 0.000
v 0.11276 -0.31820 1.63087 0.000 0.000 0.000
v 0.09079 -0.36203 1.57437 0.000 0.000 0.000
v 0.11053 -0.35068 1.56683 0.000 0.000 0.000
v 0.08856 -0.39451 1.51033 0.000 0.000 0.000
v 0.10349 -0.38592 1.50462 0.000 0.000 0.000
v 0.09168 -0.42190 1.44839 0.000 0.000 0.000
v 0.09174 -0.42147 1.44920 0.000 0.000 0.000
v 0.08371 -0.47255 1.35124 0.000 0.000 0.000
v 0.08082 -0.45101 1.40497 0.000 0.000 0.000
v 0.09575 -0.44242 1.39927 0.000 0.000 0.000
v 0.07471 -0.47939 1.35556 0.000 0.000 0.000
v 0.09446 -0.46802 1.34802 0.000 0.000 0.000
v 0.07342 -0.50499 1.30433 0.000 0.000 0.000
v 0.08835 -0.49640 1.29863 0.000 0.000 0.000
v 0.07743 -0.52596 1.25438 0.000 0.000 0.000
v 0.11200 -0.13406 2.03704 0.000 0.000 0.000
v 0.10469 -0.12676 2.06377 0.000 0.000 0.000
v 0.12503 -0.08656 2.04071 0.000 0.000 0.000
v 0.15515 -0.12622 2.05978 0.000 0.000 0.000
v 0.12716 -0.10409 2.01987 0.000 0.000 0.000
v 0.14960 -0.13365 2.03407 0.000 0.000 0.000
v 0.16477 -0.10368 2.01688 0.000 0.000 0.000
v 0.17549 -0.08600 2.03672 0.000 0.000 0.000
v 0.09918 -0.43160 1.45991 0.000 0.000 0.000
v 0.09029 -0.42030 1.50185 0.000 0.000 0.000
v 0.08811 -0.43042 1.47987 0.000 0.000 0.000
v 0.10081 -0.42073 1.47994 0.000 0.000 0.000
v 0.08101 -0.42554 1.50124 0.000 0.000 0.000
v 0.09780 -0.41274 1.50134 0.000 0.000 0.000
v 0.07801 -0.41755 1.52262 0.000 0.000 0.000
v 0.09070 -0.40786 1.52271 0.000 0.000 0.000
v 0.07963 -0.40667 1.54267 0.000 0.000 0.000
v 0.09872 -0.43499 1.45359 0.000 0.000 0.000
v 0.08540 -0.45022 1.44295 0.000 0.000 0.000
v 0.08444 -0.46296 1.42229 0.000 0.000 0.000
v 0.09739 -0.44570 1.43343 0.000 0.000 0.000
v 0.07563 -0.46480 1.42803 0.000 0.000 0.000
v 0.09149 -0.45880 1.41543 0.000 0.000 0.000
v 0.06974 -0.47792 1.41005 0.000 0.000 0.000
v 0.08173 -0.47340 1.40053 0.000 0.000 0.000
v 0.06840 -0.48863 1.38989 0.000 0.000 0.000
v 0.10066 -0.43213 1.45647 0.000 0.000 0.000
v 0.09270 -0.43324 1.46673 0.000 0.000 0.000
v 0.08401 -0.44338 1.46372 0.000 0.000 0.000
v 0.08381 -0.43724 1.47245 0.000 0.000 0.000
v 0.07458 -0.44366 1.47366 0.000 0.000 0.000
v 0.06559 -0.45232 1.46988 0.000 0.000 0.000
v 0.07355 -0.45121 1.45962 0.000 0.000 0.000
v 0.08244 -0.44721 1.45390 0.000 0.000 0.000
v 0.09167 -0.44077 1.45269 0.000 0.000 0.000
v 0.11907 -0.42320 1.45033 0.000 0.000 0.000
v 0.10862 -0.43101 1.44621 0.000 0.000 0.000
v 0.11751 -0.42701 1.44049 0.000 0.000 0.000
v 0.10965 -0.42349 1.46025 0.000 0.000 0.000
v 0.12674 -0.42059 1.43928 0.000 0.000 0.000
v 0.11888 -0.41706 1.45906 0.000 0.000 0.000
v 0.13573 -0.41195 1.44306 0.000 0.000 0.000
v 0.12777 -0.41305 1.45334 0.000 0.000 0.000
v 0.11843 -0.30238 1.69837 0.000 0.000 0.000
v 0.10663 -0.33836 1.64216 0.000 0.000 0.000
v 0.11033 -0.36909 1.57673 0.000 0.000 0.000
v 0.12156 -0.32978 1.63645 0.000 0.000 0.000
v 0.09958 -0.37361 1.57993 0.000 0.000 0.000
v 0.11933 -0.36225 1.57239 0.000 0.000 0.000
v 0.09735 -0.40610 1.51589 0.000 0.000 0.000
v 0.11228 -0.39749 1.51018 0.000 0.000 0.000
v 0.10048 -0.43348 1.45395 0.000 0.000 0.000
v 0.09426 -0.48645 1.35792 0.000 0.000 0.000
v 0.08351 -0.49097 1.36112 0.000 0.000 0.000
v 0.08222 -0.51658 1.30990 0.000 0.000 0.000
v 0.08622 -0.53753 1.25995 0.000 0.000 0.000
v 0.08961 -0.46260 1.41053 0.000 0.000 0.000
v 0.09715 -0.50798 1.30419 0.000 0.000 0.000
v 0.10053 -0.43304 1.45476 0.000 0.000 0.000
v 0.10325 -0.47961 1.35358 0.000 0.000 0.000
v 0.10454 -0.45400 1.40483 0.000 0.000 0.000
v 0.11283 -0.14677 2.00929 0.000 0.000 0.000
v 0.12638 -0.11997 1.99391 0.000 0.000 0.000
v 0.10836 -0.20245 1.90049 0.000 0.000 0.000
v 0.14645 -0.14641 2.00662 0.000 0.000 0.000
v 0.11995 -0.17953 1.88737 0.000 0.000 0.000
v 0.13710 -0.20212 1.89823 0.000 0.000 0.000
v 0.14869 -0.17923 1.88509 0.000 0.000 0.000
v 0.16001 -0.11961 1.99125 0.000 0.000 0.000
v 0.09375 -0.41809 1.45305 0.000 0.000 0.000
v 0.10803 -0.39011 1.48435 0.000 0.000 0.000
v 0.10708 -0.40286 1.46369 0.000 0.000 0.000
v 0.09508 -0.40739 1.47321 0.000 0.000 0.000
v 0.11684 -0.38828 1.47861 0.000 0.000 0.000
v 0.10098 -0.39427 1.49119 0.000 0.000 0.000
v 0.12274 -0.37516 1.49659 0.000 0.000 0.000
v 0.11074 -0.37967 1.50611 0.000 0.000 0.000
v 0.12407 -0.36445 1.51675 0.000 0.000 0.000
v 0.09329 -0.42147 1.44673 0.000 0.000 0.000
v 0.10436 -0.42266 1.42677 0.000 0.000 0.000
v 0.10219 -0.43277 1.40479 0.000 0.000 0.000
v 0.09167 -0.43234 1.42668 0.000 0.000 0.000
v 0.11146 -0.42754 1.40540 0.000 0.000 0.000
v 0.09467 -0.44033 1.40530 0.000 0.000 0.000
v 0.11447 -0.43553 1.38402 0.000 0.000 0.000
v 0.10177 -0.44521 1.38393 0.000 0.000 0.000
v 0.11284 -0.44640 1.36397 0.000 0.000 0.000
v 0.15007 -0.18248 1.87612 0.000 0.000 0.000
v 0.11850 -0.18283 1.87862 0.000 0.000 0.000
v 0.11930 -0.17696 1.88957 0.000 0.000 0.000
v 0.10577 -0.20799 1.89304 0.000 0.000 0.000
v 0.15087 -0.17662 1.88707 0.000 0.000 0.000
v 0.10658 -0.20210 1.90400 0.000 0.000 0.000
v 0.13734 -0.20765 1.89054 0.000 0.000 0.000
v 0.13815 -0.20176 1.90150 0.000 0.000 0.000
v 0.10255 -0.42966 1.45861 0.000 0.000 0.000
v 0.11587 -0.41443 1.46925 0.000 0.000 0.000
v 0.11858 -0.40401 1.49103 0.000 0.000 0.000
v 0.10388 -0.41897 1.47877 0.000 0.000 0.000
v 0.12563 -0.39985 1.48417 0.000 0.000 0.000
v 0.10977 -0.40585 1.49677 0.000 0.000 0.000
v 0.13153 -0.38673 1.50215 0.000 0.000 0.000
v 0.11954 -0.39127 1.51168 0.000 0.000 0.000
v 0.13286 -0.37604 1.52231 0.000 0.000 0.000
v 0.10208 -0.43306 1.45229 0.000 0.000 0.000
v 0.11274 -0.44667 1.41147 0.000 0.000 0.000
v 0.11316 -0.43423 1.43233 0.000 0.000 0.000
v 0.10046 -0.44392 1.43224 0.000 0.000 0.000
v 0.12026 -0.43911 1.41097 0.000 0.000 0.000
v 0.10346 -0.45193 1.41086 0.000 0.000 0.000
v 0.12326 -0.44712 1.38958 0.000 0.000 0.000
v 0.11056 -0.45679 1.38949 0.000 0.000 0.000
v 0.12164 -0.45797 1.36953 0.000 0.000 0.000
v 0.08426 -0.42113 1.46171 0.000 0.000 0.000
v 0.09047 -0.41938 1.44902 0.000 0.000 0.000
v 0.07935 -0.42662 1.45372 0.000 0.000 0.000
v 0.09226 -0.41391 1.46192 0.000 0.000 0.000
v 0.08297 -0.43051 1.44423 0.000 0.000 0.000
v 0.10061 -0.41173 1.45546 0.000 0.000 0.000
v 0.09044 -0.42716 1.43721 0.000 0.000 0.000
v 0.10247 -0.41330 1.44488 0.000 0.000 0.000
v 0.09932 -0.42109 1.43798 0.000 0.000 0.000
v 0.09305 -0.43272 1.46727 0.000 0.000 0.000
v 0.08990 -0.44051 1.46039 0.000 0.000 0.000
v 0.10190 -0.43443 1.45625 0.000 0.000 0.000
v 0.10193 -0.42665 1.46804 0.000 0.000 0.000
v 0.09177 -0.44208 1.44981 0.000 0.000 0.000
v 0.10940 -0.42331 1.46102 0.000 0.000 0.000
v 0.10011 -0.43990 1.44333 0.000 0.000 0.000
v 0.11302 -0.42719 1.45156 0.000 0.000 0.000
v 0.10812 -0.43268 1.44355 0.000 0.000 0.000
vt 0.72656 0.00781
vt 0.80469 0.00781
vt 0.72656 0.66406
vt 0.80469 0.67969
vt 0.50781 0.64844
vt 0.47656 0.64844
vt 0.50781 0.00781
vt 0.41406 0.41406
vt 0.41406 0.00781
vt 0.50781 0.00781
vt 0.47656 0.64844
vt 0.50781 0.64844
vt 0.63281 0.00781
vt 0.63281 0.66406
vt 0.71094 0.00781
vt 0.71094 0.67969
vt 0.50781 0.64844
vt 0.50781 0.00781
vt 0.47656 0.64844
vt 0.41406 0.41406
vt 0.41406 0.00781
vt 0.50781 0.00781
vt 0.47656 0.64844
vt 0.50781 0.64844
vt 0.27344 0.74219
vt 0.36719 0.64844
vt 0.36719 0.74219
vt 0.36719 0.74219
vt 0.35156 0.58594
vt 0.25781 0.67969
vt 0.25781 0.58594
vt 0.25781 0.58594
vt 0.63281 0.00781
vt 0.63281 0.66406
vt 0.71094 0.00781
vt 0.71094 0.67969
vt 0.72656 0.00781
vt 0.80469 0.00781
vt 0.72656 0.66406
vt 0.80469 0.67969
vt 0.99219 0.49219
vt 0.99219 0.00781
vt 0.91406 0.00781
vt 0.91406 0.49219
vt 0.91406 0.63281
vt 0.99219 0.69531
vt 0.91406 0.82031
vt 0.99219 0.99219
vt 0.91406 0.82031
vt 0.99219 0.69531
vt 0.91406 0.63281
vt 0.99219 0.49219
vt 0.91406 0.49219
vt 0.91406 0.00781
vt 0.99219 0.00781
vt 0.52344 0.00781
vt 0.52344 0.58594
vt 0.61719 0.00781
vt 0.61719 0.58594
vt 0.52344 0.74219
vt 0.52344 0.00781
vt 0.52344 0.99219
vt 0.52344 0.58594
vt 0.52344 0.74219
vt 0.82031 0.00781
vt 0.89844 0.00781
vt 0.89844 0.49219
vt 0.82031 0.49219
vt 0.82031 0.63281
vt 0.89844 0.69531
vt 0.82031 0.82031
vt 0.89844 0.99219
vt 0.82031 0.82031
vt 0.89844 0.69531
vt 0.82031 0.63281
vt 0.89844 0.49219
vt 0.82031 0.49219
vt 0.82031 0.00781
vt 0.89844 0.00781
vt 0.52344 0.00781
vt 0.52344 0.58594
vt 0.61719 0.00781
vt 0.61719 0.58594
vt 0.52344 0.74219
vt 0.52344 0.00781
vt 0.52344 0.99219
vt 0.52344 0.58594
vt 0.52344 0.74219
vt 0.50781 0.94531
vt 0.50781 0.99219
vt 0.27344 0.99219
vt 0.27344 0.88281
vt 0.50781 0.88281
vt 0.50781 0.94531
vt 0.50781 0.88281
vt 0.50781 0.99219
vt 0.24219 0.77344
vt 0.24219 0.53906
vt 0.21094 0.53906
vt 0.16406 0.77344
vt 0.16406 0.53906
vt 0.24219 0.86719
vt 0.24219 0.78906
vt 0.16406 0.78906
vt 0.16406 0.86719
vt 0.24219 0.99219
vt 0.16406 0.99219
vt 0.16406 0.86719
vt 0.24219 0.86719
vt 0.16406 0.78906
vt 0.24219 0.78906
vt 0.60156 0.85156
vt 0.66406 0.83594
vt 0.60156 0.96094
vt 0.80469 0.96094
vt 0.80469 0.99219
vt 0.60156 0.99219
vt 0.80469 0.75781
vt 0.71094 0.75781
vt 0.80469 0.96094
vt 0.66406 0.83594
vt 0.60156 0.96094
vt 0.80469 0.96094
vt 0.66406 0.83594
vt 0.60156 0.85156
vt 0.80469 0.75781
vt 0.71094 0.75781
vt 0.66406 0.83594
vt 0.80469 0.96094
vt 0.60156 0.96094
vt 0.60156 0.85156
vt 0.80469 0.99219
vt 0.60156 0.99219
vt 0.60156 0.96094
vt 0.60156 0.85156
vt 0.16406 0.77344
vt 0.16406 0.53906
vt 0.21094 0.53906
vt 0.24219 0.77344
vt 0.24219 0.53906
vt 0.24219 0.17969
vt 0.16406 0.21094
vt 0.16406 0.28906
vt 0.24219 0.17969
vt 0.22656 0.13281
vt 0.28906 0.14844
vt 0.27344 0.07031
vt 0.22656 0.13281
vt 0.28906 0.14844
vt 0.27344 0.07031
vt 0.16406 0.05469
vt 0.16406 0.00781
vt 0.16406 0.13281
vt 0.27344 0.07031
vt 0.22656 0.13281
vt 0.28906 0.14844
vt 0.24219 0.17969
vt 0.16406 0.05469
vt 0.16406 0.00781
vt 0.27344 0.07031
vt 0.16406 0.21094
vt 0.16406 0.28906
vt 0.24219 0.17969
vt 0.22656 0.13281
vt 0.28906 0.14844
vt 0.16406 0.13281
vt 0.16406 0.35156
vt 0.28906 0.35156
vt 0.22656 0.25781
vt 0.28906 0.35156
vt 0.16406 0.35156
vt 0.38281 0.61719
vt 0.38281 0.46094
vt 0.44531 0.66406
vt 0.38281 0.61719
vt 0.50781 0.86719
vt 0.38281 0.77344
vt 0.38281 0.77344
vt 0.38281 0.86719
vt 0.38281 0.86719
vt 0.32031 0.77344
vt 0.32031 0.86719
vt 0.38281 0.86719
vt 0.38281 0.77344
vt 0.32031 0.77344
vt 0.32031 0.86719
vt 0.38281 0.86719
vt 0.38281 0.77344
vt 0.50781 0.86719
vt 0.38281 0.61719
vt 0.38281 0.61719
vt 0.44531 0.66406
vt 0.38281 0.46094
vt 0.16406 0.52344
vt 0.25781 0.52344
vt 0.16406 0.44531
vt 0.25781 0.52344
vt 0.25781 0.44531
vt 0.25781 0.44531
vt 0.16406 0.44531
vt 0.16406 0.52344
vt 0.11719 0.66406
vt 0.11719 0.74219
vt 0.05469 0.82031
vt 0.11719 0.74219
vt 0.11719 0.82031
vt 0.11719 0.82031
vt 0.11719 0.91406
vt 0.11719 0.91406
vt 0.11719 0.99219
vt 0.11719 0.66406
vt 0.05469 0.82031
vt 0.11719 0.74219
vt 0.11719 0.74219
vt 0.11719 0.82031
vt 0.11719 0.82031
vt 0.11719 0.91406
vt 0.11719 0.91406
vt 0.11719 0.99219
vt 0.10156 0.00781
vt 0.03906 0.08594
vt 0.10156 0.03906
vt 0.10156 0.08594
vt 0.10156 0.13281
vt 0.10156 0.16406
vt 0.10156 0.13281
vt 0.10156 0.08594
vt 0.10156 0.03906
vt 0.03906 0.08594
vt 0.10156 0.03906
vt 0.10156 0.03906
vt 0.10156 0.08594
vt 0.10156 0.08594
vt 0.10156 0.13281
vt 0.10156 0.13281
vt 0.10156 0.16406
vt 0.00781 0.00781
vt 0.07031 0.49219
vt 0.00781 0.24219
vt 0.00781 0.24219
vt 0.00781 0.49219
vt 0.00781 0.49219
vt 0.00781 0.75781
vt 0.00781 0.75781
vt 0.00781 0.99219
vt 0.14844 0.00781
vt 0.08594 0.36719
vt 0.14844 0.17969
vt 0.14844 0.17969
vt 0.14844 0.36719
vt 0.14844 0.36719
vt 0.14844 0.55469
vt 0.14844 0.55469
vt 0.14844 0.72656
vt 0.27344 0.42969
vt 0.28906 0.36719
vt 0.16406 0.36719
vt 0.16406 0.36719
vt 0.17969 0.42969
vt 0.17969 0.42969
vt 0.27344 0.42969
vt 0.28906 0.36719
vt 0.11719 0.66406
vt 0.05469 0.82031
vt 0.11719 0.74219
vt 0.11719 0.74219
vt 0.11719 0.82031
vt 0.11719 0.82031
vt 0.11719 0.91406
vt 0.11719 0.91406
vt 0.11719 0.99219
vt 0.11719 0.66406
vt 0.11719 0.74219
vt 0.05469 0.82031
vt 0.11719 0.74219
vt 0.11719 0.82031
vt 0.11719 0.82031
vt 0.11719 0.91406
vt 0.11719 0.91406
vt 0.11719 0.99219
vt 0.10156 0.00781
vt 0.10156 0.03906
vt 0.03906 0.08594
vt 0.10156 0.08594
vt 0.10156 0.13281
vt 0.10156 0.16406
vt 0.10156 0.13281
vt 0.10156 0.08594
vt 0.10156 0.03906
vt 0.03906 0.08594
vt 0.10156 0.03906
vt 0.10156 0.08594
vt 0.10156 0.03906
vt 0.10156 0.13281
vt 0.10156 0.08594
vt 0.10156 0.16406
vt 0.10156 0.13281
vt 0.00781 0.00781
vt 0.00781 0.24219
vt 0.07031 0.49219
vt 0.00781 0.24219
vt 0.00781 0.49219
vt 0.00781 0.49219
vt 0.00781 0.75781
vt 0.00781 0.75781
vt 0.00781 0.99219
vt 0.08594 0.36719
vt 0.14844 0.36719
vt 0.14844 0.55469
vt 0.14844 0.72656
vt 0.14844 0.17969
vt 0.14844 0.55469
vt 0.14844 0.00781
vt 0.14844 0.36719
vt 0.14844 0.17969
vt 0.39844 0.00781
vt 0.32031 0.00781
vt 0.39844 0.30469
vt 0.32031 0.00781
vt 0.32031 0.30469
vt 0.32031 0.30469
vt 0.39844 0.30469
vt 0.39844 0.00781
vt 0.11719 0.66406
vt 0.05469 0.82031
vt 0.11719 0.74219
vt 0.11719 0.74219
vt 0.11719 0.82031
vt 0.11719 0.82031
vt 0.11719 0.91406
vt 0.11719 0.91406
vt 0.11719 0.99219
vt 0.11719 0.66406
vt 0.11719 0.74219
vt 0.05469 0.82031
vt 0.11719 0.74219
vt 0.11719 0.82031
vt 0.11719 0.82031
vt 0.11719 0.91406
vt 0.11719 0.91406
vt 0.11719 0.99219
vt 0.39844 0.35156
vt 0.32031 0.35156
vt 0.32031 0.32031
vt 0.39844 0.35156
vt 0.39844 0.32031
vt 0.39844 0.32031
vt 0.32031 0.35156
vt 0.32031 0.32031
vt 0.11719 0.66406
vt 0.11719 0.74219
vt 0.05469 0.82031
vt 0.11719 0.74219
vt 0.11719 0.82031
vt 0.11719 0.82031
vt 0.11719 0.91406
vt 0.11719 0.91406
vt 0.11719 0.99219
vt 0.11719 0.66406
vt 0.05469 0.82031
vt 0.11719 0.74219
vt 0.11719 0.74219
vt 0.11719 0.82031
vt 0.11719 0.82031
vt 0.11719 0.91406
vt 0.11719 0.91406
vt 0.11719 0.99219
vt 0.36719 0.42969
vt 0.30469 0.47656
vt 0.36719 0.47656
vt 0.36719 0.38281
vt 0.36719 0.52344
vt 0.36719 0.42969
vt 0.36719 0.57031
vt 0.36719 0.47656
vt 0.36719 0.52344
vt 0.36719 0.42969
vt 0.36719 0.47656
vt 0.30469 0.47656
vt 0.36719 0.38281
vt 0.36719 0.52344
vt 0.36719 0.42969
vt 0.36719 0.57031
vt 0.36719 0.47656
vt 0.36719 0.52344
usemtl m0
f 1/1 2/2 3/3
f 2/2 4/4 3/3
f 5/5 6/6 7/7
f 6/6 8/8 7/7
f 8/8 9/9 7/7
f 8/8 10/10 9/9
f 11/11 10/10 8/8
f 12/12 10/10 11/11
f 13/13 14/14 15/15
f 14/14 16/16 15/15
f 17/17 18/18 19/19
f 19/19 18/18 20/20
f 20/20 18/18 21/21
f 20/20 21/21 22/22
f 23/23 20/20 22/22
f 24/24 23/23 22/22
f 25/25 26/26 27/27
f 25/25 28/28 26/26
f 29/29 30/30 31/31
f 29/29 32/32 30/30
f 33/33 34/34 35/35
f 34/34 36/36 35/35
f 37/37 38/38 39/39
f 38/38 40/40 39/39
f 41/41 42/42 43/43
f 44/44 41/41 43/43
f 44/44 45/45 41/41
f 45/45 46/46 41/41
f 47/47 46/46 45/45
f 47/47 48/48 46/46
f 49/49 48/48 50/50
f 49/49 50/50 51/51
f 51/51 50/50 52/52
f 53/53 51/51 52/52
f 53/53 52/52 54/54
f 52/52 55/55 54/54
f 56/56 57/57 58/58
f 57/57 59/59 58/58
f 59/59 57/57 60/60
f 58/58 59/59 61/61
f 59/59 60/60 62/62
f 59/59 63/63 61/61
f 59/59 62/62 64/64
f 59/59 64/64 63/63
f 65/65 66/66 67/67
f 68/68 65/65 67/67
f 69/69 68/68 67/67
f 70/70 69/69 67/67
f 71/71 69/69 70/70
f 71/71 70/70 72/72
f 73/73 74/74 72/72
f 73/73 75/75 74/74
f 74/74 75/75 76/76
f 75/75 77/77 76/76
f 77/77 78/78 76/76
f 78/78 79/79 76/76
f 80/80 81/81 82/82
f 81/81 83/83 82/82
f 83/83 81/81 84/84
f 82/82 83/83 85/85
f 83/83 84/84 86/86
f 83/83 87/87 85/85
f 83/83 86/86 88/88
f 83/83 88/88 87/87
f 89/89 90/90 91/91
f 92/92 89/89 91/91
f 92/92 93/93 89/89
f 92/92 91/91 94/94
f 92/92 94/94 95/95
f 91/91 96/96 94/94
f 97/97 98/98 99/99
f 100/100 97/97 99/99
f 100/100 99/99 101/101
f 102/102 103/103 104/104
f 105/105 102/102 104/104
f 106/106 102/102 105/105
f 107/107 106/106 105/105
f 107/107 108/108 106/106
f 108/108 109/109 106/106
f 108/108 110/110 109/109
f 110/110 111/111 109/109
f 112/112 113/113 114/114
f 113/113 115/115 114/114
f 115/115 116/116 114/114
f 116/116 117/117 114/114
f 113/113 118/118 115/115
f 113/113 119/119 118/118
f 116/116 120/120 117/117
f 121/121 118/118 119/119
f 120/120 122/122 117/117
f 121/121 123/123 118/118
f 122/122 120/120 124/124
f 125/125 122/122 124/124
f 120/120 126/126 124/124
f 126/126 127/127 124/124
f 126/126 128/128 127/127
f 129/129 128/128 126/126
f 121/121 130/130 123/123
f 131/131 130/130 121/121
f 123/123 130/130 132/132
f 130/130 133/133 132/132
f 133/133 134/134 132/132
f 134/134 129/129 132/132
f 134/134 128/128 129/129
f 135/135 128/128 134/134
f 136/136 137/137 138/138
f 136/136 138/138 139/139
f 138/138 140/140 139/139
f 141/141 142/142 143/143
f 144/144 143/143 142/142
f 141/141 145/145 142/142
f 141/141 146/146 145/145
f 147/147 145/145 146/146
f 144/144 142/142 148/148
f 144/144 148/148 149/149
f 150/150 149/149 148/148
f 147/147 151/151 145/145
f 150/150 148/148 151/151
f 147/147 152/152 151/151
f 150/150 151/151 152/152
f 145/145 153/153 142/142
f 148/148 142/142 153/153
f 151/151 153/153 145/145
f 151/151 148/148 153/153
f 154/154 155/155 156/156
f 157/157 156/156 155/155
f 154/154 158/158 155/155
f 154/154 159/159 158/158
f 160/160 158/158 159/159
f 157/157 155/155 161/161
f 157/157 161/161 162/162
f 163/163 162/162 161/161
f 160/160 164/164 158/158
f 163/163 161/161 164/164
f 160/160 165/165 164/164
f 163/163 164/164 165/165
f 158/158 166/166 155/155
f 155/155 166/166 161/161
f 158/158 164/164 166/166
f 164/164 161/161 166/166
f 167/167 168/168 169/169
f 167/167 169/169 170/170
f 169/169 168/168 171/171
f 169/169 171/171 170/170
f 172/172 173/173 174/174
f 174/174 173/173 175/175
f 174/174 176/176 172/172
f 174/174 175/175 176/176
f 176/176 177/177 172/172
f 176/176 175/175 178/178
f 179/179 177/177 176/176
f 180/180 176/176 178/178
f 181/181 177/177 179/179
f 182/182 181/181 179/179
f 181/181 182/182 183/183
f 184/184 181/181 183/183
f 178/178 185/185 180/180
f 185/185 186/186 180/180
f 186/186 185/185 187/187
f 185/185 188/188 187/187
f 183/183 189/189 184/184
f 187/187 188/188 189/189
f 189/189 190/190 184/184
f 189/189 188/188 191/191
f 192/192 190/190 189/189
f 192/192 189/189 191/191
f 192/192 193/193 190/190
f 191/191 193/193 192/192
f 194/194 195/195 196/196
f 197/197 194/194 196/196
f 195/195 198/198 196/196
f 199/199 197/197 196/196
f 200/200 198/198 195/195
f 197/197 199/199 200/200
f 201/201 200/200 195/195
f 201/201 197/197 200/200
f 202/202 203/203 204/204
f 202/202 204/204 205/205
f 203/203 206/206 204/204
f 204/204 207/207 205/205
f 204/204 206/206 208/208
f 209/209 207/207 204/204
f 210/210 204/204 208/208
f 210/210 209/209 204/204
f 211/211 212/212 213/213
f 212/212 211/211 214/214
f 212/212 215/215 213/213
f 212/212 214/214 216/216
f 215/215 212/212 217/217
f 216/216 218/218 212/212
f 212/212 219/219 217/217
f 218/218 219/219 212/212
f 220/220 221/221 222/222
f 221/221 223/223 222/222
f 223/223 221/221 224/224
f 221/221 225/225 224/224
f 226/226 225/225 221/221
f 227/227 226/226 221/221
f 227/227 221/221 228/228
f 221/221 220/220 228/228
f 220/220 229/229 230/230
f 220/220 231/231 229/229
f 229/229 232/232 230/230
f 231/231 233/233 229/229
f 234/234 232/232 229/229
f 229/229 233/233 235/235
f 236/236 234/234 229/229
f 236/236 229/229 235/235
f 237/237 238/238 239/239
f 237/237 240/240 238/238
f 238/238 241/241 239/239
f 240/240 242/242 238/238
f 241/241 238/238 243/243
f 238/238 242/242 244/244
f 238/238 245/245 243/243
f 245/245 238/238 244/244
f 246/246 247/247 248/248
f 246/246 249/249 247/247
f 247/247 250/250 248/248
f 249/249 251/251 247/247
f 250/250 247/247 252/252
f 247/247 251/251 253/253
f 247/247 254/254 252/252
f 254/254 247/247 253/253
f 255/255 256/256 257/257
f 256/256 255/255 258/258
f 259/259 255/255 257/257
f 255/255 260/260 258/258
f 259/259 257/257 261/261
f 260/260 261/261 258/258
f 257/257 262/262 261/261
f 261/261 262/262 258/258
f 263/263 264/264 265/265
f 264/264 263/263 266/266
f 264/264 267/267 265/265
f 268/268 264/264 266/266
f 267/267 264/264 269/269
f 268/268 270/270 264/264
f 264/264 271/271 269/269
f 270/270 271/271 264/264
f 272/272 273/273 274/274
f 274/274 275/275 272/272
f 273/273 276/276 274/274
f 274/274 277/277 275/275
f 274/274 276/276 278/278
f 279/279 277/277 274/274
f 280/280 274/274 278/278
f 280/280 279/279 274/274
f 281/281 282/282 283/283
f 282/282 284/284 283/283
f 283/283 284/284 285/285
f 286/286 283/283 285/285
f 286/286 287/287 283/283
f 287/287 288/288 283/283
f 283/283 288/288 289/289
f 281/281 283/283 289/289
f 290/290 281/281 291/291
f 292/292 290/290 291/291
f 281/281 290/290 293/293
f 292/292 294/294 290/290
f 290/290 295/295 293/293
f 294/294 296/296 290/290
f 295/295 290/290 297/297
f 290/290 296/296 297/297
f 298/298 299/299 300/300
f 298/298 300/300 301/301
f 299/299 302/302 300/300
f 300/300 303/303 301/301
f 300/300 302/302 304/304
f 303/303 300/300 305/305
f 306/306 300/300 304/304
f 300/300 306/306 305/305
f 307/307 308/308 309/309
f 310/310 307/307 309/309
f 311/311 308/308 307/307
f 307/307 310/310 312/312
f 313/313 311/311 307/307
f 314/314 307/307 312/312
f 313/313 307/307 315/315
f 307/307 314/314 315/315
f 316/316 317/317 318/318
f 316/316 318/318 319/319
f 317/317 320/320 318/318
f 318/318 321/321 319/319
f 320/320 317/317 322/322
f 319/319 321/321 322/322
f 317/317 323/323 322/322
f 323/323 319/319 322/322
f 324/324 325/325 326/326
f 325/325 324/324 327/327
f 325/325 328/328 326/326
f 329/329 325/325 327/327
f 328/328 325/325 330/330
f 329/329 331/331 325/325
f 325/325 332/332 330/330
f 331/331 332/332 325/325
f 333/333 334/334 335/335
f 335/335 336/336 333/333
f 334/334 337/337 335/335
f 335/335 338/338 336/336
f 335/335 337/337 339/339
f 340/340 338/338 335/335
f 341/341 335/335 339/339
f 341/341 340/340 335/335
f 342/342 343/343 344/344
f 344/344 343/343 345/345
f 346/346 342/342 344/344
f 347/347 344/344 345/345
f 348/348 342/342 346/346
f 347/347 345/345 348/348
f 349/349 348/348 346/346
f 349/349 347/347 348/348
f 350/350 351/351 352/352
f 350/350 352/352 353/353
f 351/351 354/354 352/352
f 352/352 355/355 353/353
f 352/352 354/354 356/356
f 357/357 355/355 352/352
f 358/358 352/352 356/356
f 358/358 357/357 352/352
f 359/359 360/360 361/361
f 360/360 359/359 362/362
f 360/360 363/363 361/361
f 360/360 362/362 364/364
f 363/363 360/360 365/365
f 364/364 366/366 360/360
f 360/360 367/367 365/365
f 366/366 367/367 360/360
f 368/368 369/369 370/370
f 371/371 369/369 368/368
f 370/370 369/369 372/372
f 371/371 373/373 369/369
f 372/372 369/369 374/374
f 373/373 375/375 369/369
f 376/376 374/374 369/369
f 375/375 376/376 369/369
f 377/377 378/378 379/379
f 380/380 377/377 379/379
f 378/378 381/381 379/379
f 380/380 379/379 382/382
f 381/381 383/383 379/379
f 382/382 379/379 384/384
f 385/385 379/379 383/383
f 384/384 379/379 385/385
