mtllib acce649.mtl
o acce649
v -0.36810 0.53568 2.46996 0.000 0.000 0.000
v -0.39798 0.56790 2.46150 0.000 0.000 0.000
v -0.39798 0.53676 2.48832 0.000 0.000 0.000
v -0.38304 0.52074 2.48832 0.000 0.000 0.000
v -0.39798 0.50580 2.53332 0.000 0.000 0.000
v -0.42768 0.53568 2.46996 0.000 0.000 0.000
v -0.41274 0.52074 2.48832 0.000 0.000 0.000
v -0.42894 0.50580 2.48832 0.000 0.000 0.000
v -0.45990 0.50580 2.46150 0.000 0.000 0.000
v -0.36684 0.50580 2.48832 0.000 0.000 0.000
v -0.33588 0.50580 2.46150 0.000 0.000 0.000
v -0.42768 0.47592 2.46996 0.000 0.000 0.000
v -0.41274 0.49086 2.48832 0.000 0.000 0.000
v -0.38304 0.49086 2.48832 0.000 0.000 0.000
v -0.36810 0.47592 2.46996 0.000 0.000 0.000
v -0.39798 0.47484 2.48832 0.000 0.000 0.000
v -0.39798 0.44370 2.46150 0.000 0.000 0.000
v -0.39132 0.51480 2.52018 0.000 0.000 0.000
v -0.39618 0.56970 2.50110 0.000 0.000 0.000
v -0.38826 0.56970 2.51910 0.000 0.000 0.000
v -0.39132 0.52002 2.53674 0.000 0.000 0.000
v -0.38826 0.60300 2.52486 0.000 0.000 0.000
v -0.39618 0.61758 2.51460 0.000 0.000 0.000
v -0.38826 0.62802 2.54880 0.000 0.000 0.000
v -0.39618 0.65160 2.54880 0.000 0.000 0.000
v -0.39618 0.61758 2.58318 0.000 0.000 0.000
v -0.38826 0.60300 2.57292 0.000 0.000 0.000
v -0.39618 0.56970 2.59668 0.000 0.000 0.000
v -0.38826 0.56970 2.57868 0.000 0.000 0.000
v -0.39132 0.51480 2.57742 0.000 0.000 0.000
v -0.39132 0.52002 2.56104 0.000 0.000 0.000
v -0.39330 0.53550 2.62044 0.000 0.000 0.000
v -0.39654 0.53442 2.56554 0.000 0.000 0.000
v -0.40140 0.55368 2.62044 0.000 0.000 0.000
v -0.39654 0.51804 2.57076 0.000 0.000 0.000
v -0.39330 0.52974 2.65392 0.000 0.000 0.000
v -0.40140 0.54000 2.66850 0.000 0.000 0.000
v -0.39330 0.50580 2.67894 0.000 0.000 0.000
v -0.40140 0.50580 2.70234 0.000 0.000 0.000
v -0.40140 0.47160 2.66850 0.000 0.000 0.000
v -0.39330 0.48186 2.65392 0.000 0.000 0.000
v -0.40140 0.45792 2.62044 0.000 0.000 0.000
v -0.39330 0.47610 2.62044 0.000 0.000 0.000
v -0.39654 0.47718 2.56554 0.000 0.000 0.000
v -0.39654 0.49356 2.57076 0.000 0.000 0.000
v -0.38826 0.44190 2.51910 0.000 0.000 0.000
v -0.39618 0.44190 2.50110 0.000 0.000 0.000
v -0.39132 0.49680 2.52018 0.000 0.000 0.000
v -0.39132 0.49158 2.53674 0.000 0.000 0.000
v -0.38826 0.40860 2.52486 0.000 0.000 0.000
v -0.39618 0.39402 2.51460 0.000 0.000 0.000
v -0.38826 0.38358 2.54880 0.000 0.000 0.000
v -0.39618 0.36000 2.54880 0.000 0.000 0.000
v -0.39618 0.39402 2.58318 0.000 0.000 0.000
v -0.38826 0.40860 2.57292 0.000 0.000 0.000
v -0.39618 0.44190 2.59668 0.000 0.000 0.000
v -0.38826 0.44190 2.57868 0.000 0.000 0.000
v -0.39132 0.49680 2.57742 0.000 0.000 0.000
v -0.39132 0.49158 2.56104 0.000 0.000 0.000
v -0.37836 0.50580 2.54880 0.000 0.000 0.000
v -0.38628 0.50580 2.51460 0.000 0.000 0.000
v -0.39078 0.52182 2.51568 0.000 0.000 0.000
v -0.38556 0.52452 2.54880 0.000 0.000 0.000
v -0.39798 0.50580 2.51460 0.000 0.000 0.000
v -0.39798 0.52182 2.51568 0.000 0.000 0.000
v -0.39078 0.52182 2.58210 0.000 0.000 0.000
v -0.38628 0.50580 2.58300 0.000 0.000 0.000
v -0.39798 0.50580 2.58300 0.000 0.000 0.000
v -0.39798 0.52182 2.58210 0.000 0.000 0.000
v -0.39078 0.48978 2.51568 0.000 0.000 0.000
v -0.38556 0.48708 2.54880 0.000 0.000 0.000
v -0.39798 0.48978 2.51568 0.000 0.000 0.000
v -0.39078 0.48978 2.58210 0.000 0.000 0.000
v -0.39798 0.48978 2.58210 0.000 0.000 0.000
v -0.40500 0.52182 2.51568 0.000 0.000 0.000
v -0.40950 0.50580 2.51460 0.000 0.000 0.000
v -0.41742 0.50580 2.54880 0.000 0.000 0.000
v -0.41040 0.52452 2.54880 0.000 0.000 0.000
v -0.40500 0.52182 2.58210 0.000 0.000 0.000
v -0.40950 0.50580 2.58300 0.000 0.000 0.000
v -0.40500 0.48978 2.51568 0.000 0.000 0.000
v -0.41040 0.48708 2.54880 0.000 0.000 0.000
v -0.40500 0.48978 2.58210 0.000 0.000 0.000
v -0.47934 0.55278 2.44458 0.000 0.000 0.000
v -0.47736 0.53964 2.44458 0.000 0.000 0.000
v -0.39798 0.50580 2.48688 0.000 0.000 0.000
v -0.49392 0.54936 2.39508 0.000 0.000 0.000
v -0.49626 0.56268 2.39508 0.000 0.000 0.000
v -0.48366 0.56718 2.39508 0.000 0.000 0.000
v -0.46692 0.55764 2.44458 0.000 0.000 0.000
v -0.48348 0.55530 2.33136 0.000 0.000 0.000
v -0.47124 0.56016 2.33136 0.000 0.000 0.000
v -0.44604 0.53352 2.28186 0.000 0.000 0.000
v -0.43398 0.53856 2.28186 0.000 0.000 0.000
v -0.48168 0.54216 2.33136 0.000 0.000 0.000
v -0.44424 0.52074 2.28186 0.000 0.000 0.000
v -0.41760 0.50580 2.26170 0.000 0.000 0.000
v -0.39798 0.50580 2.24658 0.000 0.000 0.000
v -0.44604 0.47808 2.28186 0.000 0.000 0.000
v -0.44424 0.49086 2.28186 0.000 0.000 0.000
v -0.48168 0.46944 2.33136 0.000 0.000 0.000
v -0.48348 0.45630 2.33136 0.000 0.000 0.000
v -0.49392 0.46224 2.39508 0.000 0.000 0.000
v -0.49626 0.44892 2.39508 0.000 0.000 0.000
v -0.47934 0.45882 2.44458 0.000 0.000 0.000
v -0.47736 0.47196 2.44458 0.000 0.000 0.000
v -0.40770 0.52290 2.26170 0.000 0.000 0.000
v -0.39798 0.56142 2.28186 0.000 0.000 0.000
v -0.38808 0.52290 2.26170 0.000 0.000 0.000
v -0.34974 0.53352 2.28186 0.000 0.000 0.000
v -0.36180 0.53856 2.28186 0.000 0.000 0.000
v -0.32454 0.56016 2.33136 0.000 0.000 0.000
v -0.31230 0.55530 2.33136 0.000 0.000 0.000
v -0.31212 0.56718 2.39508 0.000 0.000 0.000
v -0.29952 0.56268 2.39508 0.000 0.000 0.000
v -0.31644 0.55278 2.44458 0.000 0.000 0.000
v -0.32886 0.55764 2.44458 0.000 0.000 0.000
v -0.38754 0.55350 2.28186 0.000 0.000 0.000
v -0.38754 0.59652 2.33136 0.000 0.000 0.000
v -0.39798 0.60462 2.33136 0.000 0.000 0.000
v -0.38754 0.61074 2.39508 0.000 0.000 0.000
v -0.39798 0.61938 2.39508 0.000 0.000 0.000
v -0.39798 0.59976 2.44458 0.000 0.000 0.000
v -0.38754 0.59148 2.44458 0.000 0.000 0.000
v -0.40824 0.61074 2.39508 0.000 0.000 0.000
v -0.40824 0.59148 2.44458 0.000 0.000 0.000
v -0.40824 0.59652 2.33136 0.000 0.000 0.000
v -0.40824 0.55350 2.28186 0.000 0.000 0.000
v -0.31860 0.53964 2.44458 0.000 0.000 0.000
v -0.30186 0.54936 2.39508 0.000 0.000 0.000
v -0.31410 0.54216 2.33136 0.000 0.000 0.000
v -0.35154 0.52074 2.28186 0.000 0.000 0.000
v -0.37818 0.50580 2.26170 0.000 0.000 0.000
v -0.34974 0.47808 2.28186 0.000 0.000 0.000
v -0.35154 0.49086 2.28186 0.000 0.000 0.000
v -0.31410 0.46944 2.33136 0.000 0.000 0.000
v -0.31230 0.45630 2.33136 0.000 0.000 0.000
v -0.30186 0.46224 2.39508 0.000 0.000 0.000
v -0.29952 0.44892 2.39508 0.000 0.000 0.000
v -0.31644 0.45882 2.44458 0.000 0.000 0.000
v -0.31860 0.47196 2.44458 0.000 0.000 0.000
v -0.31212 0.44442 2.39508 0.000 0.000 0.000
v -0.32886 0.45396 2.44458 0.000 0.000 0.000
v -0.32454 0.45144 2.33136 0.000 0.000 0.000
v -0.36180 0.47304 2.28186 0.000 0.000 0.000
v -0.38808 0.48870 2.26170 0.000 0.000 0.000
v -0.39798 0.45018 2.28186 0.000 0.000 0.000
v -0.40770 0.48870 2.26170 0.000 0.000 0.000
v -0.40824 0.45810 2.28186 0.000 0.000 0.000
v -0.40824 0.41508 2.33136 0.000 0.000 0.000
v -0.39798 0.40698 2.33136 0.000 0.000 0.000
v -0.38754 0.45810 2.28186 0.000 0.000 0.000
v -0.38754 0.41508 2.33136 0.000 0.000 0.000
v -0.39798 0.39222 2.39508 0.000 0.000 0.000
v -0.38754 0.40086 2.39508 0.000 0.000 0.000
v -0.38754 0.42012 2.44458 0.000 0.000 0.000
v -0.39798 0.41184 2.44458 0.000 0.000 0.000
v -0.40824 0.42012 2.44458 0.000 0.000 0.000
v -0.40824 0.40086 2.39508 0.000 0.000 0.000
v -0.43398 0.47304 2.28186 0.000 0.000 0.000
v -0.47124 0.45144 2.33136 0.000 0.000 0.000
v -0.48366 0.44442 2.39508 0.000 0.000 0.000
v -0.46692 0.45396 2.44458 0.000 0.000 0.000
v -0.39798 0.52182 2.51568 0.000 0.000 0.000
v -0.40500 0.52182 2.51568 0.000 0.000 0.000
v -0.41040 0.52452 2.54880 0.000 0.000 0.000
v -0.39078 0.52182 2.51568 0.000 0.000 0.000
v -0.38556 0.52452 2.54880 0.000 0.000 0.000
v -0.39798 0.52182 2.58210 0.000 0.000 0.000
v -0.39078 0.52182 2.58210 0.000 0.000 0.000
v -0.40500 0.52182 2.58210 0.000 0.000 0.000
v -0.41040 0.48708 2.54880 0.000 0.000 0.000
v -0.40500 0.48978 2.51568 0.000 0.000 0.000
v -0.39798 0.48978 2.51568 0.000 0.000 0.000
v -0.39078 0.48978 2.51568 0.000 0.000 0.000
v -0.38556 0.48708 2.54880 0.000 0.000 0.000
v -0.39798 0.48978 2.58210 0.000 0.000 0.000
v -0.39078 0.48978 2.58210 0.000 0.000 0.000
v -0.40500 0.48978 2.58210 0.000 0.000 0.000
v -0.39798 -0.53676 2.48832 0.000 0.000 0.000
v -0.39798 -0.56790 2.46150 0.000 0.000 0.000
v -0.36810 -0.53568 2.46996 0.000 0.000 0.000
v -0.38304 -0.52074 2.48832 0.000 0.000 0.000
v -0.39798 -0.50580 2.53332 0.000 0.000 0.000
v -0.42768 -0.53568 2.46996 0.000 0.000 0.000
v -0.41274 -0.52074 2.48832 0.000 0.000 0.000
v -0.42894 -0.50580 2.48832 0.000 0.000 0.000
v -0.45990 -0.50580 2.46150 0.000 0.000 0.000
v -0.36684 -0.50580 2.48832 0.000 0.000 0.000
v -0.33588 -0.50580 2.46150 0.000 0.000 0.000
v -0.42768 -0.47592 2.46996 0.000 0.000 0.000
v -0.41274 -0.49086 2.48832 0.000 0.000 0.000
v -0.38304 -0.49086 2.48832 0.000 0.000 0.000
v -0.36810 -0.47592 2.46996 0.000 0.000 0.000
v -0.39798 -0.47484 2.48832 0.000 0.000 0.000
v -0.39798 -0.44370 2.46150 0.000 0.000 0.000
v -0.38826 -0.56970 2.51910 0.000 0.000 0.000
v -0.39618 -0.56970 2.50110 0.000 0.000 0.000
v -0.39132 -0.51480 2.52018 0.000 0.000 0.000
v -0.39132 -0.52002 2.53674 0.000 0.000 0.000
v -0.38826 -0.60300 2.52486 0.000 0.000 0.000
v -0.39618 -0.61758 2.51460 0.000 0.000 0.000
v -0.38826 -0.62802 2.54880 0.000 0.000 0.000
v -0.39618 -0.65160 2.54880 0.000 0.000 0.000
v -0.39618 -0.61758 2.58318 0.000 0.000 0.000
v -0.38826 -0.60300 2.57292 0.000 0.000 0.000
v -0.39618 -0.56970 2.59668 0.000 0.000 0.000
v -0.38826 -0.56970 2.57868 0.000 0.000 0.000
v -0.39132 -0.51480 2.57742 0.000 0.000 0.000
v -0.39132 -0.52002 2.56104 0.000 0.000 0.000
v -0.40140 -0.55368 2.62044 0.000 0.000 0.000
v -0.39654 -0.53442 2.56554 0.000 0.000 0.000
v -0.39330 -0.53550 2.62044 0.000 0.000 0.000
v -0.39654 -0.51804 2.57076 0.000 0.000 0.000
v -0.39330 -0.52974 2.65392 0.000 0.000 0.000
v -0.40140 -0.54000 2.66850 0.000 0.000 0.000
v -0.39330 -0.50580 2.67894 0.000 0.000 0.000
v -0.40140 -0.50580 2.70234 0.000 0.000 0.000
v -0.40140 -0.47160 2.66850 0.000 0.000 0.000
v -0.39330 -0.48186 2.65392 0.000 0.000 0.000
v -0.40140 -0.45792 2.62044 0.000 0.000 0.000
v -0.39330 -0.47610 2.62044 0.000 0.000 0.000
v -0.39654 -0.47718 2.56554 0.000 0.000 0.000
v -0.39654 -0.49356 2.57076 0.000 0.000 0.000
v -0.39132 -0.49680 2.52018 0.000 0.000 0.000
v -0.39618 -0.44190 2.50110 0.000 0.000 0.000
v -0.38826 -0.44190 2.51910 0.000 0.000 0.000
v -0.39132 -0.49158 2.53674 0.000 0.000 0.000
v -0.38826 -0.40860 2.52486 0.000 0.000 0.000
v -0.39618 -0.39402 2.51460 0.000 0.000 0.000
v -0.38826 -0.38358 2.54880 0.000 0.000 0.000
v -0.39618 -0.36000 2.54880 0.000 0.000 0.000
v -0.39618 -0.39402 2.58318 0.000 0.000 0.000
v -0.38826 -0.40860 2.57292 0.000 0.000 0.000
v -0.39618 -0.44190 2.59668 0.000 0.000 0.000
v -0.38826 -0.44190 2.57868 0.000 0.000 0.000
v -0.39132 -0.49680 2.57742 0.000 0.000 0.000
v -0.39132 -0.49158 2.56104 0.000 0.000 0.000
v -0.39078 -0.52182 2.51568 0.000 0.000 0.000
v -0.38628 -0.50580 2.51460 0.000 0.000 0.000
v -0.37836 -0.50580 2.54880 0.000 0.000 0.000
v -0.38556 -0.52452 2.54880 0.000 0.000 0.000
v -0.39798 -0.50580 2.51460 0.000 0.000 0.000
v -0.39798 -0.52182 2.51568 0.000 0.000 0.000
v -0.39078 -0.52182 2.58210 0.000 0.000 0.000
v -0.38628 -0.50580 2.58300 0.000 0.000 0.000
v -0.39798 -0.50580 2.58300 0.000 0.000 0.000
v -0.39798 -0.52182 2.58210 0.000 0.000 0.000
v -0.39078 -0.48978 2.51568 0.000 0.000 0.000
v -0.38556 -0.48708 2.54880 0.000 0.000 0.000
v -0.39798 -0.48978 2.51568 0.000 0.000 0.000
v -0.39078 -0.48978 2.58210 0.000 0.000 0.000
v -0.39798 -0.48978 2.58210 0.000 0.000 0.000
v -0.40500 -0.52182 2.51568 0.000 0.000 0.000
v -0.40950 -0.50580 2.51460 0.000 0.000 0.000
v -0.41742 -0.50580 2.54880 0.000 0.000 0.000
v -0.41040 -0.52452 2.54880 0.000 0.000 0.000
v -0.40500 -0.52182 2.58210 0.000 0.000 0.000
v -0.40950 -0.50580 2.58300 0.000 0.000 0.000
v -0.40500 -0.48978 2.51568 0.000 0.000 0.000
v -0.41040 -0.48708 2.54880 0.000 0.000 0.000
v -0.40500 -0.48978 2.58210 0.000 0.000 0.000
v -0.39798 -0.50580 2.48688 0.000 0.000 0.000
v -0.47736 -0.53964 2.44458 0.000 0.000 0.000
v -0.47934 -0.55278 2.44458 0.000 0.000 0.000
v -0.49392 -0.54936 2.39508 0.000 0.000 0.000
v -0.49626 -0.56268 2.39508 0.000 0.000 0.000
v -0.48366 -0.56718 2.39508 0.000 0.000 0.000
v -0.46692 -0.55764 2.44458 0.000 0.000 0.000
v -0.48348 -0.55530 2.33136 0.000 0.000 0.000
v -0.47124 -0.56016 2.33136 0.000 0.000 0.000
v -0.44604 -0.53352 2.28186 0.000 0.000 0.000
v -0.43398 -0.53856 2.28186 0.000 0.000 0.000
v -0.48168 -0.54216 2.33136 0.000 0.000 0.000
v -0.44424 -0.52074 2.28186 0.000 0.000 0.000
v -0.41760 -0.50580 2.26170 0.000 0.000 0.000
v -0.39798 -0.50580 2.24658 0.000 0.000 0.000
v -0.44604 -0.47808 2.28186 0.000 0.000 0.000
v -0.44424 -0.49086 2.28186 0.000 0.000 0.000
v -0.48168 -0.46944 2.33136 0.000 0.000 0.000
v -0.48348 -0.45630 2.33136 0.000 0.000 0.000
v -0.49392 -0.46224 2.39508 0.000 0.000 0.000
v -0.49626 -0.44892 2.39508 0.000 0.000 0.000
v -0.47934 -0.45882 2.44458 0.000 0.000 0.000
v -0.47736 -0.47196 2.44458 0.000 0.000 0.000
v -0.40770 -0.52290 2.26170 0.000 0.000 0.000
v -0.39798 -0.56142 2.28186 0.000 0.000 0.000
v -0.38808 -0.52290 2.26170 0.000 0.000 0.000
v -0.34974 -0.53352 2.28186 0.000 0.000 0.000
v -0.36180 -0.53856 2.28186 0.000 0.000 0.000
v -0.32454 -0.56016 2.33136 0.000 0.000 0.000
v -0.31230 -0.55530 2.33136 0.000 0.000 0.000
v -0.31212 -0.56718 2.39508 0.000 0.000 0.000
v -0.29952 -0.56268 2.39508 0.000 0.000 0.000
v -0.31644 -0.55278 2.44458 0.000 0.000 0.000
v -0.32886 -0.55764 2.44458 0.000 0.000 0.000
v -0.38754 -0.55350 2.28186 0.000 0.000 0.000
v -0.38754 -0.59652 2.33136 0.000 0.000 0.000
v -0.39798 -0.60462 2.33136 0.000 0.000 0.000
v -0.38754 -0.61074 2.39508 0.000 0.000 0.000
v -0.39798 -0.61938 2.39508 0.000 0.000 0.000
v -0.39798 -0.59976 2.44458 0.000 0.000 0.000
v -0.38754 -0.59148 2.44458 0.000 0.000 0.000
v -0.40824 -0.61074 2.39508 0.000 0.000 0.000
v -0.40824 -0.59148 2.44458 0.000 0.000 0.000
v -0.40824 -0.59652 2.33136 0.000 0.000 0.000
v -0.40824 -0.55350 2.28186 0.000 0.000 0.000
v -0.31860 -0.53964 2.44458 0.000 0.000 0.000
v -0.39798 -0.41184 2.44458 0.000 0.000 0.000
v -0.40824 -0.42012 2.44458 0.000 0.000 0.000
v -0.40824 -0.40086 2.39508 0.000 0.000 0.000
v -0.39798 -0.39222 2.39508 0.000 0.000 0.000
v -0.38754 -0.42012 2.44458 0.000 0.000 0.000
v -0.38754 -0.40086 2.39508 0.000 0.000 0.000
v -0.38754 -0.41508 2.33136 0.000 0.000 0.000
v -0.39798 -0.40698 2.33136 0.000 0.000 0.000
v -0.38754 -0.45810 2.28186 0.000 0.000 0.000
v -0.39798 -0.45018 2.28186 0.000 0.000 0.000
v -0.40824 -0.41508 2.33136 0.000 0.000 0.000
v -0.40824 -0.45810 2.28186 0.000 0.000 0.000
v -0.40770 -0.48870 2.26170 0.000 0.000 0.000
v -0.43398 -0.47304 2.28186 0.000 0.000 0.000
v -0.47124 -0.45144 2.33136 0.000 0.000 0.000
v -0.48366 -0.44442 2.39508 0.000 0.000 0.000
v -0.46692 -0.45396 2.44458 0.000 0.000 0.000
v -0.38808 -0.48870 2.26170 0.000 0.000 0.000
v -0.34974 -0.47808 2.28186 0.000 0.000 0.000
v -0.37818 -0.50580 2.26170 0.000 0.000 0.000
v -0.35154 -0.52074 2.28186 0.000 0.000 0.000
v -0.31410 -0.54216 2.33136 0.000 0.000 0.000
v -0.30186 -0.54936 2.39508 0.000 0.000 0.000
v -0.35154 -0.49086 2.28186 0.000 0.000 0.000
v -0.31410 -0.46944 2.33136 0.000 0.000 0.000
v -0.31230 -0.45630 2.33136 0.000 0.000 0.000
v -0.30186 -0.46224 2.39508 0.000 0.000 0.000
v -0.29952 -0.44892 2.39508 0.000 0.000 0.000
v -0.31644 -0.45882 2.44458 0.000 0.000 0.000
v -0.31860 -0.47196 2.44458 0.000 0.000 0.000
v -0.31212 -0.44442 2.39508 0.000 0.000 0.000
v -0.32886 -0.45396 2.44458 0.000 0.000 0.000
v -0.32454 -0.45144 2.33136 0.000 0.000 0.000
v -0.36180 -0.47304 2.28186 0.000 0.000 0.000
v -0.41040 -0.52452 2.54880 0.000 0.000 0.000
v -0.40500 -0.52182 2.51568 0.000 0.000 0.000
v -0.39798 -0.52182 2.51568 0.000 0.000 0.000
v -0.39078 -0.52182 2.51568 0.000 0.000 0.000
v -0.38556 -0.52452 2.54880 0.000 0.000 0.000
v -0.39798 -0.52182 2.58210 0.000 0.000 0.000
v -0.39078 -0.52182 2.58210 0.000 0.000 0.000
v -0.40500 -0.52182 2.58210 0.000 0.000 0.000
v -0.39798 -0.48978 2.51568 0.000 0.000 0.000
v -0.40500 -0.48978 2.51568 0.000 0.000 0.000
v -0.41040 -0.48708 2.54880 0.000 0.000 0.000
v -0.39078 -0.48978 2.51568 0.000 0.000 0.000
v -0.38556 -0.48708 2.54880 0.000 0.000 0.000
v -0.39798 -0.48978 2.58210 0.000 0.000 0.000
v -0.39078 -0.48978 2.58210 0.000 0.000 0.000
v -0.40500 -0.48978 2.58210 0.000 0.000 0.000
v -0.39798 0.50580 2.48688 0.000 0.000 0.000
v -0.31878 0.55152 2.44458 0.000 0.000 0.000
v -0.39798 0.59724 2.44458 0.000 0.000 0.000
v -0.47718 0.55152 2.44458 0.000 0.000 0.000
v -0.47718 0.46008 2.44458 0.000 0.000 0.000
v -0.39798 0.41436 2.44458 0.000 0.000 0.000
v -0.31878 0.46008 2.44458 0.000 0.000 0.000
v -0.39798 0.61686 2.39508 0.000 0.000 0.000
v -0.49410 0.56142 2.39508 0.000 0.000 0.000
v -0.48132 0.55386 2.33136 0.000 0.000 0.000
v -0.39798 0.60210 2.33136 0.000 0.000 0.000
v -0.31446 0.55386 2.33136 0.000 0.000 0.000
v -0.30168 0.56142 2.39508 0.000 0.000 0.000
v -0.30168 0.45018 2.39508 0.000 0.000 0.000
v -0.31446 0.45774 2.33136 0.000 0.000 0.000
v -0.49410 0.45018 2.39508 0.000 0.000 0.000
v -0.48132 0.45774 2.33136 0.000 0.000 0.000
v -0.39798 0.39474 2.39508 0.000 0.000 0.000
v -0.39798 0.40950 2.33136 0.000 0.000 0.000
v -0.44370 0.53226 2.28186 0.000 0.000 0.000
v -0.39798 0.55872 2.28186 0.000 0.000 0.000
v -0.39798 0.50580 2.24658 0.000 0.000 0.000
v -0.35208 0.53226 2.28186 0.000 0.000 0.000
v -0.44370 0.47934 2.28186 0.000 0.000 0.000
v -0.35208 0.47934 2.28186 0.000 0.000 0.000
v -0.39798 0.45288 2.28186 0.000 0.000 0.000
v -0.34974 0.50580 2.37546 0.000 0.000 0.000
v -0.39798 0.50580 2.35782 0.000 0.000 0.000
v -0.36396 0.53982 2.37546 0.000 0.000 0.000
v -0.39798 0.55386 2.37546 0.000 0.000 0.000
v -0.32994 0.50580 2.41776 0.000 0.000 0.000
v -0.34974 0.55386 2.41776 0.000 0.000 0.000
v -0.39798 0.57384 2.41776 0.000 0.000 0.000
v -0.36396 0.53982 2.46006 0.000 0.000 0.000
v -0.34974 0.50580 2.46006 0.000 0.000 0.000
v -0.39798 0.55386 2.46006 0.000 0.000 0.000
v -0.39798 0.50580 2.47752 0.000 0.000 0.000
v -0.36396 0.47178 2.37546 0.000 0.000 0.000
v -0.39798 0.45774 2.37546 0.000 0.000 0.000
v -0.34974 0.45774 2.41776 0.000 0.000 0.000
v -0.39798 0.43776 2.41776 0.000 0.000 0.000
v -0.36396 0.47178 2.46006 0.000 0.000 0.000
v -0.39798 0.45774 2.46006 0.000 0.000 0.000
v -0.43182 0.53982 2.37546 0.000 0.000 0.000
v -0.44604 0.55386 2.41776 0.000 0.000 0.000
v -0.46584 0.50580 2.41776 0.000 0.000 0.000
v -0.44604 0.50580 2.37546 0.000 0.000 0.000
v -0.43182 0.53982 2.46006 0.000 0.000 0.000
v -0.44604 0.50580 2.46006 0.000 0.000 0.000
v -0.43182 0.47178 2.37546 0.000 0.000 0.000
v -0.44604 0.45774 2.41776 0.000 0.000 0.000
v -0.43182 0.47178 2.46006 0.000 0.000 0.000
v -0.39798 -0.59724 2.44458 0.000 0.000 0.000
v -0.31878 -0.55152 2.44458 0.000 0.000 0.000
v -0.39798 -0.50580 2.48688 0.000 0.000 0.000
v -0.47718 -0.55152 2.44458 0.000 0.000 0.000
v -0.47718 -0.46008 2.44458 0.000 0.000 0.000
v -0.39798 -0.41436 2.44458 0.000 0.000 0.000
v -0.31878 -0.46008 2.44458 0.000 0.000 0.000
v -0.39798 -0.61686 2.39508 0.000 0.000 0.000
v -0.49410 -0.56142 2.39508 0.000 0.000 0.000
v -0.48132 -0.55386 2.33136 0.000 0.000 0.000
v -0.39798 -0.60210 2.33136 0.000 0.000 0.000
v -0.31446 -0.55386 2.33136 0.000 0.000 0.000
v -0.30168 -0.56142 2.39508 0.000 0.000 0.000
v -0.30168 -0.45018 2.39508 0.000 0.000 0.000
v -0.31446 -0.45774 2.33136 0.000 0.000 0.000
v -0.49410 -0.45018 2.39508 0.000 0.000 0.000
v -0.48132 -0.45774 2.33136 0.000 0.000 0.000
v -0.39798 -0.39474 2.39508 0.000 0.000 0.000
v -0.39798 -0.40950 2.33136 0.000 0.000 0.000
v -0.44370 -0.53226 2.28186 0.000 0.000 0.000
v -0.39798 -0.55872 2.28186 0.000 0.000 0.000
v -0.39798 -0.50580 2.24658 0.000 0.000 0.000
v -0.35208 -0.53226 2.28186 0.000 0.000 0.000
v -0.44370 -0.47934 2.28186 0.000 0.000 0.000
v -0.35208 -0.47934 2.28186 0.000 0.000 0.000
v -0.39798 -0.45288 2.28186 0.000 0.000 0.000
v -0.36396 -0.53982 2.37546 0.000 0.000 0.000
v -0.39798 -0.50580 2.35782 0.000 0.000 0.000
v -0.34974 -0.50580 2.37546 0.000 0.000 0.000
v -0.39798 -0.55386 2.37546 0.000 0.000 0.000
v -0.32994 -0.50580 2.41776 0.000 0.000 0.000
v -0.34974 -0.55386 2.41776 0.000 0.000 0.000
v -0.39798 -0.57384 2.41776 0.000 0.000 0.000
v -0.36396 -0.53982 2.46006 0.000 0.000 0.000
v -0.34974 -0.50580 2.46006 0.000 0.000 0.000
v -0.39798 -0.55386 2.46006 0.000 0.000 0.000
v -0.39798 -0.50580 2.47752 0.000 0.000 0.000
v -0.36396 -0.47178 2.37546 0.000 0.000 0.000
v -0.39798 -0.45774 2.37546 0.000 0.000 0.000
v -0.34974 -0.45774 2.41776 0.000 0.000 0.000
v -0.39798 -0.43776 2.41776 0.000 0.000 0.000
v -0.36396 -0.47178 2.46006 0.000 0.000 0.000
v -0.39798 -0.45774 2.46006 0.000 0.000 0.000
v -0.43182 -0.53982 2.37546 0.000 0.000 0.000
v -0.44604 -0.50580 2.37546 0.000 0.000 0.000
v -0.46584 -0.50580 2.41776 0.000 0.000 0.000
v -0.44604 -0.55386 2.41776 0.000 0.000 0.000
v -0.43182 -0.53982 2.46006 0.000 0.000 0.000
v -0.44604 -0.50580 2.46006 0.000 0.000 0.000
v -0.43182 -0.47178 2.37546 0.000 0.000 0.000
v -0.44604 -0.45774 2.41776 0.000 0.000 0.000
v -0.43182 -0.47178 2.46006 0.000 0.000 0.000
v -0.39798 0.50580 2.54088 0.000 0.000 0.000
v -0.52308 0.57798 2.47842 0.000 0.000 0.000
v -0.39798 0.50580 2.48688 0.000 0.000 0.000
v -0.47718 0.55152 2.44458 0.000 0.000 0.000
v -0.54990 0.59346 2.39976 0.000 0.000 0.000
v -0.49410 0.56142 2.39508 0.000 0.000 0.000
v -0.52956 0.58194 2.31768 0.000 0.000 0.000
v -0.48132 0.55386 2.33136 0.000 0.000 0.000
v -0.47034 0.54756 2.24676 0.000 0.000 0.000
v -0.44370 0.53226 2.28186 0.000 0.000 0.000
v -0.39798 0.50580 2.24658 0.000 0.000 0.000
v -0.39798 0.50580 2.20104 0.000 0.000 0.000
v -0.39798 0.65034 2.47842 0.000 0.000 0.000
v -0.39798 0.59724 2.44458 0.000 0.000 0.000
v -0.39798 0.68130 2.39976 0.000 0.000 0.000
v -0.39798 0.61686 2.39508 0.000 0.000 0.000
v -0.39798 0.65790 2.31768 0.000 0.000 0.000
v -0.39798 0.60210 2.33136 0.000 0.000 0.000
v -0.39798 0.58950 2.24676 0.000 0.000 0.000
v -0.39798 0.55872 2.28186 0.000 0.000 0.000
v -0.47034 0.46404 2.24676 0.000 0.000 0.000
v -0.44370 0.47934 2.28186 0.000 0.000 0.000
v -0.48132 0.45774 2.33136 0.000 0.000 0.000
v -0.52956 0.42966 2.31768 0.000 0.000 0.000
v -0.49410 0.45018 2.39508 0.000 0.000 0.000
v -0.54990 0.41814 2.39976 0.000 0.000 0.000
v -0.47718 0.46008 2.44458 0.000 0.000 0.000
v -0.52308 0.43362 2.47842 0.000 0.000 0.000
v -0.39798 0.36126 2.47842 0.000 0.000 0.000
v -0.39798 0.41436 2.44458 0.000 0.000 0.000
v -0.39798 0.33030 2.39976 0.000 0.000 0.000
v -0.39798 0.39474 2.39508 0.000 0.000 0.000
v -0.39798 0.35370 2.31768 0.000 0.000 0.000
v -0.39798 0.40950 2.33136 0.000 0.000 0.000
v -0.39798 0.42210 2.24676 0.000 0.000 0.000
v -0.39798 0.45288 2.28186 0.000 0.000 0.000
v -0.27270 0.57798 2.47842 0.000 0.000 0.000
v -0.31878 0.55152 2.44458 0.000 0.000 0.000
v -0.24588 0.59346 2.39976 0.000 0.000 0.000
v -0.30168 0.56142 2.39508 0.000 0.000 0.000
v -0.26622 0.58194 2.31768 0.000 0.000 0.000
v -0.31446 0.55386 2.33136 0.000 0.000 0.000
v -0.32544 0.54756 2.24676 0.000 0.000 0.000
v -0.35208 0.53226 2.28186 0.000 0.000 0.000
v -0.32544 0.46404 2.24676 0.000 0.000 0.000
v -0.35208 0.47934 2.28186 0.000 0.000 0.000
v -0.31446 0.45774 2.33136 0.000 0.000 0.000
v -0.26622 0.42966 2.31768 0.000 0.000 0.000
v -0.30168 0.45018 2.39508 0.000 0.000 0.000
v -0.24588 0.41814 2.39976 0.000 0.000 0.000
v -0.31878 0.46008 2.44458 0.000 0.000 0.000
v -0.27270 0.43362 2.47842 0.000 0.000 0.000
v -0.39798 -0.50580 2.48688 0.000 0.000 0.000
v -0.52308 -0.57798 2.47842 0.000 0.000 0.000
v -0.39798 -0.50580 2.54088 0.000 0.000 0.000
v -0.47718 -0.55152 2.44458 0.000 0.000 0.000
v -0.54990 -0.59346 2.39976 0.000 0.000 0.000
v -0.49410 -0.56142 2.39508 0.000 0.000 0.000
v -0.52956 -0.58194 2.31768 0.000 0.000 0.000
v -0.48132 -0.55386 2.33136 0.000 0.000 0.000
v -0.47034 -0.54756 2.24676 0.000 0.000 0.000
v -0.44370 -0.53226 2.28186 0.000 0.000 0.000
v -0.39798 -0.50580 2.24658 0.000 0.000 0.000
v -0.39798 -0.50580 2.20104 0.000 0.000 0.000
v -0.39798 -0.65034 2.47842 0.000 0.000 0.000
v -0.39798 -0.59724 2.44458 0.000 0.000 0.000
v -0.39798 -0.68130 2.39976 0.000 0.000 0.000
v -0.39798 -0.61686 2.39508 0.000 0.000 0.000
v -0.39798 -0.65790 2.31768 0.000 0.000 0.000
v -0.39798 -0.60210 2.33136 0.000 0.000 0.000
v -0.39798 -0.58950 2.24676 0.000 0.000 0.000
v -0.39798 -0.55872 2.28186 0.000 0.000 0.000
v -0.47034 -0.46404 2.24676 0.000 0.000 0.000
v -0.44370 -0.47934 2.28186 0.000 0.000 0.000
v -0.48132 -0.45774 2.33136 0.000 0.000 0.000
v -0.52956 -0.42966 2.31768 0.000 0.000 0.000
v -0.49410 -0.45018 2.39508 0.000 0.000 0.000
v -0.54990 -0.41814 2.39976 0.000 0.000 0.000
v -0.47718 -0.46008 2.44458 0.000 0.000 0.000
v -0.52308 -0.43362 2.47842 0.000 0.000 0.000
v -0.39798 -0.36126 2.47842 0.000 0.000 0.000
v -0.39798 -0.41436 2.44458 0.000 0.000 0.000
v -0.39798 -0.33030 2.39976 0.000 0.000 0.000
v -0.39798 -0.39474 2.39508 0.000 0.000 0.000
v -0.39798 -0.35370 2.31768 0.000 0.000 0.000
v -0.39798 -0.40950 2.33136 0.000 0.000 0.000
v -0.39798 -0.42210 2.24676 0.000 0.000 0.000
v -0.39798 -0.45288 2.28186 0.000 0.000 0.000
v -0.27270 -0.57798 2.47842 0.000 0.000 0.000
v -0.31878 -0.55152 2.44458 0.000 0.000 0.000
v -0.24588 -0.59346 2.39976 0.000 0.000 0.000
v -0.30168 -0.56142 2.39508 0.000 0.000 0.000
v -0.26622 -0.58194 2.31768 0.000 0.000 0.000
v -0.31446 -0.55386 2.33136 0.000 0.000 0.000
v -0.32544 -0.54756 2.24676 0.000 0.000 0.000
v -0.35208 -0.53226 2.28186 0.000 0.000 0.000
v -0.32544 -0.46404 2.24676 0.000 0.000 0.000
v -0.35208 -0.47934 2.28186 0.000 0.000 0.000
v -0.31446 -0.45774 2.33136 0.000 0.000 0.000
v -0.26622 -0.42966 2.31768 0.000 0.000 0.000
v -0.30168 -0.45018 2.39508 0.000 0.000 0.000
v -0.24588 -0.41814 2.39976 0.000 0.000 0.000
v -0.31878 -0.46008 2.44458 0.000 0.000 0.000
v -0.27270 -0.43362 2.47842 0.000 0.000 0.000
vt 0.00781 0.32031
vt 0.08594 0.32031
vt 0.05469 0.38281
vt 0.00781 0.38281
vt 0.00781 0.46094
vt 0.00781 0.32031
vt 0.00781 0.38281
vt 0.05469 0.38281
vt 0.08594 0.32031
vt 0.05469 0.38281
vt 0.08594 0.32031
vt 0.00781 0.32031
vt 0.00781 0.38281
vt 0.00781 0.38281
vt 0.00781 0.32031
vt 0.05469 0.38281
vt 0.08594 0.32031
vt 0.16406 0.22656
vt 0.16406 0.36719
vt 0.11719 0.36719
vt 0.11719 0.22656
vt 0.11719 0.30469
vt 0.16406 0.30469
vt 0.11719 0.25781
vt 0.16406 0.24219
vt 0.16406 0.30469
vt 0.11719 0.30469
vt 0.16406 0.36719
vt 0.11719 0.36719
vt 0.16406 0.22656
vt 0.11719 0.22656
vt 0.11719 0.36719
vt 0.16406 0.22656
vt 0.16406 0.36719
vt 0.11719 0.22656
vt 0.11719 0.30469
vt 0.16406 0.30469
vt 0.11719 0.25781
vt 0.16406 0.24219
vt 0.16406 0.30469
vt 0.11719 0.30469
vt 0.16406 0.36719
vt 0.11719 0.36719
vt 0.16406 0.22656
vt 0.11719 0.22656
vt 0.11719 0.36719
vt 0.16406 0.36719
vt 0.16406 0.22656
vt 0.11719 0.22656
vt 0.11719 0.30469
vt 0.16406 0.30469
vt 0.11719 0.25781
vt 0.16406 0.24219
vt 0.16406 0.30469
vt 0.11719 0.30469
vt 0.16406 0.36719
vt 0.11719 0.36719
vt 0.16406 0.22656
vt 0.11719 0.22656
vt 0.25781 0.21094
vt 0.19531 0.21094
vt 0.19531 0.16406
vt 0.25781 0.16406
vt 0.17969 0.21094
vt 0.17969 0.16406
vt 0.19531 0.16406
vt 0.19531 0.21094
vt 0.17969 0.21094
vt 0.17969 0.16406
vt 0.19531 0.16406
vt 0.25781 0.16406
vt 0.17969 0.16406
vt 0.19531 0.16406
vt 0.17969 0.16406
vt 0.19531 0.16406
vt 0.19531 0.21094
vt 0.25781 0.21094
vt 0.25781 0.16406
vt 0.19531 0.16406
vt 0.19531 0.21094
vt 0.19531 0.16406
vt 0.25781 0.16406
vt 0.19531 0.16406
vt 0.13281 0.28906
vt 0.16406 0.28906
vt 0.14844 0.16406
vt 0.16406 0.36719
vt 0.13281 0.36719
vt 0.16406 0.36719
vt 0.16406 0.28906
vt 0.13281 0.27344
vt 0.16406 0.27344
vt 0.13281 0.19531
vt 0.16406 0.19531
vt 0.16406 0.27344
vt 0.16406 0.19531
vt 0.16406 0.22656
vt 0.14844 0.27344
vt 0.13281 0.19531
vt 0.16406 0.19531
vt 0.16406 0.27344
vt 0.13281 0.27344
vt 0.16406 0.36719
vt 0.13281 0.36719
vt 0.13281 0.28906
vt 0.16406 0.28906
vt 0.16406 0.22656
vt 0.13281 0.19531
vt 0.16406 0.22656
vt 0.13281 0.19531
vt 0.16406 0.19531
vt 0.16406 0.27344
vt 0.13281 0.27344
vt 0.16406 0.36719
vt 0.13281 0.36719
vt 0.13281 0.28906
vt 0.16406 0.28906
vt 0.16406 0.19531
vt 0.16406 0.27344
vt 0.13281 0.27344
vt 0.16406 0.36719
vt 0.13281 0.36719
vt 0.13281 0.28906
vt 0.16406 0.28906
vt 0.16406 0.36719
vt 0.16406 0.28906
vt 0.16406 0.27344
vt 0.16406 0.19531
vt 0.16406 0.28906
vt 0.16406 0.36719
vt 0.16406 0.27344
vt 0.16406 0.19531
vt 0.16406 0.22656
vt 0.13281 0.19531
vt 0.16406 0.19531
vt 0.16406 0.27344
vt 0.13281 0.27344
vt 0.16406 0.36719
vt 0.13281 0.36719
vt 0.13281 0.28906
vt 0.16406 0.28906
vt 0.16406 0.36719
vt 0.16406 0.28906
vt 0.16406 0.27344
vt 0.16406 0.19531
vt 0.16406 0.22656
vt 0.13281 0.19531
vt 0.16406 0.22656
vt 0.16406 0.19531
vt 0.16406 0.27344
vt 0.13281 0.27344
vt 0.16406 0.19531
vt 0.16406 0.27344
vt 0.13281 0.36719
vt 0.16406 0.36719
vt 0.16406 0.28906
vt 0.13281 0.28906
vt 0.16406 0.28906
vt 0.16406 0.36719
vt 0.16406 0.19531
vt 0.16406 0.27344
vt 0.16406 0.36719
vt 0.16406 0.28906
vt 0.13281 0.16406
vt 0.11719 0.16406
vt 0.11719 0.22656
vt 0.14844 0.16406
vt 0.14844 0.22656
vt 0.13281 0.16406
vt 0.14844 0.16406
vt 0.11719 0.16406
vt 0.11719 0.22656
vt 0.11719 0.16406
vt 0.13281 0.16406
vt 0.14844 0.16406
vt 0.14844 0.22656
vt 0.13281 0.16406
vt 0.14844 0.16406
vt 0.11719 0.16406
vt 0.05469 0.38281
vt 0.08594 0.32031
vt 0.00781 0.32031
vt 0.00781 0.38281
vt 0.00781 0.46094
vt 0.00781 0.32031
vt 0.00781 0.38281
vt 0.05469 0.38281
vt 0.08594 0.32031
vt 0.05469 0.38281
vt 0.08594 0.32031
vt 0.00781 0.32031
vt 0.00781 0.38281
vt 0.00781 0.38281
vt 0.00781 0.32031
vt 0.05469 0.38281
vt 0.08594 0.32031
vt 0.11719 0.36719
vt 0.16406 0.36719
vt 0.16406 0.22656
vt 0.11719 0.22656
vt 0.11719 0.30469
vt 0.16406 0.30469
vt 0.11719 0.25781
vt 0.16406 0.24219
vt 0.16406 0.30469
vt 0.11719 0.30469
vt 0.16406 0.36719
vt 0.11719 0.36719
vt 0.16406 0.22656
vt 0.11719 0.22656
vt 0.16406 0.36719
vt 0.16406 0.22656
vt 0.11719 0.36719
vt 0.11719 0.22656
vt 0.11719 0.30469
vt 0.16406 0.30469
vt 0.11719 0.25781
vt 0.16406 0.24219
vt 0.16406 0.30469
vt 0.11719 0.30469
vt 0.16406 0.36719
vt 0.11719 0.36719
vt 0.16406 0.22656
vt 0.11719 0.22656
vt 0.16406 0.22656
vt 0.16406 0.36719
vt 0.11719 0.36719
vt 0.11719 0.22656
vt 0.11719 0.30469
vt 0.16406 0.30469
vt 0.11719 0.25781
vt 0.16406 0.24219
vt 0.16406 0.30469
vt 0.11719 0.30469
vt 0.16406 0.36719
vt 0.11719 0.36719
vt 0.16406 0.22656
vt 0.11719 0.22656
vt 0.19531 0.16406
vt 0.19531 0.21094
vt 0.25781 0.21094
vt 0.25781 0.16406
vt 0.17969 0.21094
vt 0.17969 0.16406
vt 0.19531 0.16406
vt 0.19531 0.21094
vt 0.17969 0.21094
vt 0.17969 0.16406
vt 0.19531 0.16406
vt 0.25781 0.16406
vt 0.17969 0.16406
vt 0.19531 0.16406
vt 0.17969 0.16406
vt 0.19531 0.16406
vt 0.19531 0.21094
vt 0.25781 0.21094
vt 0.25781 0.16406
vt 0.19531 0.16406
vt 0.19531 0.21094
vt 0.19531 0.16406
vt 0.25781 0.16406
vt 0.19531 0.16406
vt 0.14844 0.16406
vt 0.16406 0.28906
vt 0.13281 0.28906
vt 0.16406 0.36719
vt 0.13281 0.36719
vt 0.16406 0.36719
vt 0.16406 0.28906
vt 0.13281 0.27344
vt 0.16406 0.27344
vt 0.13281 0.19531
vt 0.16406 0.19531
vt 0.16406 0.27344
vt 0.16406 0.19531
vt 0.16406 0.22656
vt 0.14844 0.27344
vt 0.13281 0.19531
vt 0.16406 0.19531
vt 0.16406 0.27344
vt 0.13281 0.27344
vt 0.16406 0.36719
vt 0.13281 0.36719
vt 0.13281 0.28906
vt 0.16406 0.28906
vt 0.16406 0.22656
vt 0.13281 0.19531
vt 0.16406 0.22656
vt 0.13281 0.19531
vt 0.16406 0.19531
vt 0.16406 0.27344
vt 0.13281 0.27344
vt 0.16406 0.36719
vt 0.13281 0.36719
vt 0.13281 0.28906
vt 0.16406 0.28906
vt 0.16406 0.19531
vt 0.16406 0.27344
vt 0.13281 0.27344
vt 0.16406 0.36719
vt 0.13281 0.36719
vt 0.13281 0.28906
vt 0.16406 0.28906
vt 0.16406 0.36719
vt 0.16406 0.28906
vt 0.16406 0.27344
vt 0.16406 0.19531
vt 0.16406 0.28906
vt 0.13281 0.28906
vt 0.16406 0.28906
vt 0.16406 0.36719
vt 0.13281 0.36719
vt 0.16406 0.28906
vt 0.16406 0.36719
vt 0.16406 0.27344
vt 0.13281 0.27344
vt 0.16406 0.19531
vt 0.13281 0.19531
vt 0.16406 0.27344
vt 0.16406 0.19531
vt 0.16406 0.22656
vt 0.16406 0.19531
vt 0.16406 0.27344
vt 0.16406 0.36719
vt 0.16406 0.28906
vt 0.16406 0.22656
vt 0.13281 0.19531
vt 0.16406 0.22656
vt 0.16406 0.19531
vt 0.16406 0.27344
vt 0.16406 0.36719
vt 0.16406 0.19531
vt 0.16406 0.27344
vt 0.13281 0.27344
vt 0.16406 0.36719
vt 0.13281 0.36719
vt 0.13281 0.28906
vt 0.16406 0.28906
vt 0.16406 0.36719
vt 0.16406 0.28906
vt 0.16406 0.27344
vt 0.16406 0.19531
vt 0.11719 0.22656
vt 0.11719 0.16406
vt 0.13281 0.16406
vt 0.14844 0.16406
vt 0.14844 0.22656
vt 0.13281 0.16406
vt 0.14844 0.16406
vt 0.11719 0.16406
vt 0.13281 0.16406
vt 0.11719 0.16406
vt 0.11719 0.22656
vt 0.14844 0.16406
vt 0.14844 0.22656
vt 0.13281 0.16406
vt 0.14844 0.16406
vt 0.11719 0.16406
vt 0.05469 0.03906
vt 0.10156 0.10156
vt 0.02344 0.10156
vt 0.10156 0.10156
vt 0.02344 0.10156
vt 0.10156 0.10156
vt 0.02344 0.10156
vt 0.00781 0.14844
vt 0.11719 0.14844
vt 0.10156 0.08594
vt 0.00781 0.08594
vt 0.10156 0.08594
vt 0.11719 0.14844
vt 0.00781 0.14844
vt 0.00781 0.08594
vt 0.00781 0.14844
vt 0.00781 0.08594
vt 0.11719 0.14844
vt 0.10156 0.08594
vt 0.08594 0.05469
vt 0.03906 0.05469
vt 0.05469 0.00781
vt 0.08594 0.05469
vt 0.03906 0.05469
vt 0.03906 0.05469
vt 0.08594 0.05469
vt 0.08594 0.22656
vt 0.05469 0.16406
vt 0.02344 0.22656
vt 0.08594 0.22656
vt 0.10156 0.30469
vt 0.02344 0.30469
vt 0.10156 0.30469
vt 0.03906 0.22656
vt 0.08594 0.22656
vt 0.08594 0.22656
vt 0.07031 0.16406
vt 0.02344 0.22656
vt 0.08594 0.22656
vt 0.02344 0.30469
vt 0.10156 0.30469
vt 0.03906 0.22656
vt 0.08594 0.22656
vt 0.02344 0.22656
vt 0.02344 0.30469
vt 0.10156 0.30469
vt 0.08594 0.22656
vt 0.03906 0.22656
vt 0.08594 0.22656
vt 0.02344 0.22656
vt 0.02344 0.30469
vt 0.03906 0.22656
vt 0.02344 0.10156
vt 0.10156 0.10156
vt 0.05469 0.03906
vt 0.10156 0.10156
vt 0.02344 0.10156
vt 0.10156 0.10156
vt 0.02344 0.10156
vt 0.00781 0.14844
vt 0.11719 0.14844
vt 0.10156 0.08594
vt 0.00781 0.08594
vt 0.10156 0.08594
vt 0.11719 0.14844
vt 0.00781 0.14844
vt 0.00781 0.08594
vt 0.00781 0.14844
vt 0.00781 0.08594
vt 0.11719 0.14844
vt 0.10156 0.08594
vt 0.08594 0.05469
vt 0.03906 0.05469
vt 0.05469 0.00781
vt 0.08594 0.05469
vt 0.03906 0.05469
vt 0.03906 0.05469
vt 0.08594 0.05469
vt 0.02344 0.22656
vt 0.05469 0.16406
vt 0.08594 0.22656
vt 0.08594 0.22656
vt 0.10156 0.30469
vt 0.02344 0.30469
vt 0.10156 0.30469
vt 0.03906 0.22656
vt 0.08594 0.22656
vt 0.08594 0.22656
vt 0.07031 0.16406
vt 0.02344 0.22656
vt 0.08594 0.22656
vt 0.02344 0.30469
vt 0.10156 0.30469
vt 0.03906 0.22656
vt 0.08594 0.22656
vt 0.02344 0.22656
vt 0.08594 0.22656
vt 0.10156 0.30469
vt 0.02344 0.30469
vt 0.03906 0.22656
vt 0.08594 0.22656
vt 0.02344 0.22656
vt 0.02344 0.30469
vt 0.03906 0.22656
vt 0.00781 0.00781
vt 0.00781 0.14844
vt 0.10156 0.00781
vt 0.10156 0.14844
vt 0.00781 0.00781
vt 0.10156 0.00781
vt 0.00781 0.14844
vt 0.10156 0.14844
vt 0.00781 0.00781
vt 0.10156 0.00781
vt 0.10156 0.14844
vt 0.00781 0.14844
vt 0.00781 0.14844
vt 0.10156 0.14844
vt 0.00781 0.00781
vt 0.10156 0.00781
vt 0.00781 0.14844
vt 0.10156 0.14844
vt 0.00781 0.00781
vt 0.10156 0.00781
vt 0.00781 0.00781
vt 0.10156 0.00781
vt 0.10156 0.14844
vt 0.00781 0.14844
vt 0.10156 0.00781
vt 0.00781 0.00781
vt 0.10156 0.14844
vt 0.00781 0.14844
vt 0.00781 0.14844
vt 0.10156 0.14844
vt 0.00781 0.00781
vt 0.10156 0.00781
vt 0.00781 0.14844
vt 0.10156 0.14844
vt 0.00781 0.00781
vt 0.10156 0.00781
vt 0.00781 0.14844
vt 0.10156 0.14844
vt 0.00781 0.00781
vt 0.10156 0.00781
vt 0.00781 0.14844
vt 0.10156 0.14844
vt 0.00781 0.00781
vt 0.10156 0.00781
vt 0.00781 0.00781
vt 0.10156 0.00781
vt 0.10156 0.14844
vt 0.00781 0.14844
vt 0.10156 0.00781
vt 0.00781 0.00781
vt 0.10156 0.14844
vt 0.00781 0.14844
vt 0.10156 0.00781
vt 0.00781 0.14844
vt 0.00781 0.00781
vt 0.10156 0.14844
vt 0.00781 0.00781
vt 0.10156 0.00781
vt 0.00781 0.14844
vt 0.10156 0.14844
vt 0.00781 0.00781
vt 0.10156 0.00781
vt 0.10156 0.14844
vt 0.00781 0.14844
vt 0.00781 0.14844
vt 0.10156 0.14844
vt 0.00781 0.00781
vt 0.10156 0.00781
vt 0.00781 0.14844
vt 0.10156 0.14844
vt 0.00781 0.00781
vt 0.10156 0.00781
vt 0.00781 0.00781
vt 0.10156 0.00781
vt 0.10156 0.14844
vt 0.00781 0.14844
vt 0.10156 0.00781
vt 0.00781 0.00781
vt 0.10156 0.14844
vt 0.00781 0.14844
vt 0.00781 0.14844
vt 0.10156 0.14844
vt 0.00781 0.00781
vt 0.10156 0.00781
vt 0.00781 0.14844
vt 0.10156 0.14844
vt 0.00781 0.00781
vt 0.10156 0.00781
vt 0.00781 0.14844
vt 0.10156 0.14844
vt 0.00781 0.00781
vt 0.10156 0.00781
vt 0.00781 0.14844
vt 0.10156 0.14844
vt 0.00781 0.00781
vt 0.10156 0.00781
vt 0.00781 0.00781
vt 0.10156 0.00781
vt 0.10156 0.14844
vt 0.00781 0.14844
vt 0.10156 0.00781
vt 0.00781 0.00781
vt 0.10156 0.14844
vt 0.00781 0.14844
usemtl m0
f 1/1 2/2 3/3
f 4/4 1/1 3/3
f 5/5 4/4 3/3
f 3/3 2/2 6/6
f 3/3 6/6 7/7
f 3/3 7/7 5/5
f 7/7 6/6 8/8
f 5/5 7/7 8/8
f 6/6 9/9 8/8
f 10/10 1/1 4/4
f 10/10 4/4 5/5
f 10/10 11/11 1/1
f 8/8 9/9 12/12
f 8/8 12/12 13/13
f 8/8 13/13 5/5
f 5/5 14/14 10/10
f 15/15 11/11 10/10
f 14/14 15/15 10/10
f 13/13 12/12 16/16
f 5/5 13/13 16/16
f 16/16 14/14 5/5
f 16/16 15/15 14/14
f 12/12 17/17 16/16
f 16/16 17/17 15/15
f 18/18 19/19 20/20
f 18/18 20/20 21/21
f 20/20 19/19 22/22
f 22/22 19/19 23/23
f 22/22 23/23 24/24
f 24/24 23/23 25/25
f 26/26 24/24 25/25
f 27/27 24/24 26/26
f 28/28 27/27 26/26
f 29/29 27/27 28/28
f 28/28 30/30 29/29
f 30/30 31/31 29/29
f 32/32 33/33 34/34
f 35/35 33/33 32/32
f 36/36 32/32 34/34
f 36/36 34/34 37/37
f 38/38 36/36 37/37
f 38/38 37/37 39/39
f 39/39 40/40 38/38
f 40/40 41/41 38/38
f 40/40 42/42 41/41
f 42/42 43/43 41/41
f 42/42 44/44 43/43
f 43/43 44/44 45/45
f 46/46 47/47 48/48
f 49/49 46/46 48/48
f 50/50 47/47 46/46
f 51/51 47/47 50/50
f 52/52 51/51 50/50
f 53/53 51/51 52/52
f 53/53 52/52 54/54
f 54/54 52/52 55/55
f 54/54 55/55 56/56
f 56/56 55/55 57/57
f 57/57 58/58 56/56
f 57/57 59/59 58/58
f 60/60 61/61 62/62
f 60/60 62/62 63/63
f 62/62 61/61 64/64
f 62/62 64/64 65/65
f 66/66 60/60 63/63
f 67/67 60/60 66/66
f 67/67 66/66 68/68
f 68/68 66/66 69/69
f 70/70 61/61 60/60
f 64/64 61/61 70/70
f 71/71 70/70 60/60
f 72/72 64/64 70/70
f 73/73 60/60 67/67
f 71/71 60/60 73/73
f 68/68 73/73 67/67
f 74/74 73/73 68/68
f 65/65 64/64 75/75
f 75/75 64/64 76/76
f 75/75 76/76 77/77
f 78/78 75/75 77/77
f 78/78 77/77 79/79
f 69/69 79/79 68/68
f 79/79 77/77 80/80
f 68/68 79/79 80/80
f 77/77 76/76 81/81
f 77/77 81/81 82/82
f 76/76 64/64 81/81
f 81/81 64/64 72/72
f 80/80 77/77 83/83
f 83/83 77/77 82/82
f 80/80 83/83 68/68
f 68/68 83/83 74/74
f 84/84 85/85 86/86
f 84/84 87/87 85/85
f 88/88 87/87 84/84
f 84/84 89/89 88/88
f 90/90 89/89 84/84
f 90/90 84/84 86/86
f 89/89 91/91 88/88
f 88/88 91/91 87/87
f 92/92 91/91 89/89
f 92/92 93/93 91/91
f 92/92 94/94 93/93
f 87/87 91/91 95/95
f 91/91 93/93 95/95
f 93/93 96/96 95/95
f 93/93 97/97 96/96
f 93/93 98/98 97/97
f 97/97 98/98 99/99
f 100/100 97/97 99/99
f 101/101 100/100 99/99
f 101/101 99/99 102/102
f 101/101 102/102 103/103
f 103/103 102/102 104/104
f 105/105 103/103 104/104
f 106/106 103/103 105/105
f 86/86 106/106 105/105
f 94/94 107/107 93/93
f 107/107 98/98 93/93
f 108/108 98/98 107/107
f 109/109 98/98 108/108
f 110/110 98/98 109/109
f 110/110 109/109 111/111
f 112/112 110/110 111/111
f 113/113 110/110 112/112
f 114/114 113/113 112/112
f 115/115 113/113 114/114
f 116/116 115/115 114/114
f 86/86 116/116 117/117
f 116/116 114/114 117/117
f 118/118 109/109 108/108
f 119/119 118/118 108/108
f 119/119 108/108 120/120
f 119/119 120/120 121/121
f 121/121 120/120 122/122
f 123/123 121/121 122/122
f 124/124 121/121 123/123
f 123/123 122/122 125/125
f 123/123 125/125 126/126
f 86/86 123/123 126/126
f 86/86 124/124 123/123
f 122/122 120/120 127/127
f 122/122 127/127 125/125
f 120/120 108/108 127/127
f 127/127 108/108 128/128
f 108/108 107/107 128/128
f 129/129 116/116 86/86
f 129/129 130/130 116/116
f 130/130 115/115 116/116
f 130/130 113/113 115/115
f 131/131 113/113 130/130
f 131/131 110/110 113/113
f 132/132 110/110 131/131
f 132/132 133/133 110/110
f 133/133 98/98 110/110
f 134/134 98/98 133/133
f 134/134 133/133 135/135
f 136/136 134/134 135/135
f 137/137 134/134 136/136
f 138/138 137/137 136/136
f 139/139 137/137 138/138
f 140/140 139/139 138/138
f 140/140 138/138 141/141
f 142/142 139/139 140/140
f 142/142 137/137 139/139
f 143/143 142/142 140/140
f 143/143 140/140 86/86
f 86/86 140/140 141/141
f 144/144 137/137 142/142
f 144/144 134/134 137/137
f 145/145 134/134 144/144
f 145/145 146/146 134/134
f 146/146 98/98 134/134
f 147/147 98/98 146/146
f 148/148 98/98 147/147
f 149/149 148/148 147/147
f 149/149 147/147 150/150
f 150/150 147/147 151/151
f 147/147 152/152 151/151
f 147/147 146/146 152/152
f 151/151 152/152 153/153
f 154/154 151/151 153/153
f 154/154 153/153 155/155
f 154/154 155/155 156/156
f 157/157 154/154 156/156
f 157/157 156/156 86/86
f 158/158 157/157 86/86
f 159/159 154/154 157/157
f 158/158 159/159 157/157
f 150/150 151/151 159/159
f 159/159 151/151 154/154
f 99/99 98/98 148/148
f 99/99 148/148 160/160
f 99/99 160/160 161/161
f 102/102 99/99 161/161
f 162/162 102/102 161/161
f 104/104 102/102 162/162
f 104/104 162/162 105/105
f 105/105 162/162 163/163
f 86/86 105/105 163/163
f 164/164 165/165 166/166
f 166/166 167/167 164/164
f 168/168 167/167 166/166
f 169/169 168/168 166/166
f 170/170 168/168 169/169
f 169/169 166/166 171/171
f 172/172 173/173 174/174
f 174/174 175/175 172/172
f 172/172 175/175 176/176
f 172/172 176/176 177/177
f 177/177 176/176 178/178
f 179/179 172/172 177/177
f 180/180 181/181 182/182
f 180/180 182/182 183/183
f 180/180 183/183 184/184
f 185/185 181/181 180/180
f 186/186 185/185 180/180
f 184/184 186/186 180/180
f 187/187 185/185 186/186
f 187/187 186/186 184/184
f 187/187 188/188 185/185
f 183/183 182/182 189/189
f 184/184 183/183 189/189
f 182/182 190/190 189/189
f 191/191 188/188 187/187
f 192/192 191/191 187/187
f 184/184 192/192 187/187
f 189/189 193/193 184/184
f 189/189 190/190 194/194
f 189/189 194/194 193/193
f 195/195 191/191 192/192
f 195/195 192/192 184/184
f 184/184 193/193 195/195
f 193/193 194/194 195/195
f 195/195 196/196 191/191
f 194/194 196/196 195/195
f 197/197 198/198 199/199
f 200/200 197/197 199/199
f 201/201 198/198 197/197
f 202/202 198/198 201/201
f 203/203 202/202 201/201
f 204/204 202/202 203/203
f 204/204 203/203 205/205
f 205/205 203/203 206/206
f 205/205 206/206 207/207
f 207/207 206/206 208/208
f 208/208 209/209 207/207
f 208/208 210/210 209/209
f 211/211 212/212 213/213
f 213/213 212/212 214/214
f 211/211 213/213 215/215
f 216/216 211/211 215/215
f 216/216 215/215 217/217
f 218/218 216/216 217/217
f 217/217 219/219 218/218
f 217/217 220/220 219/219
f 220/220 221/221 219/219
f 220/220 222/222 221/221
f 222/222 223/223 221/221
f 224/224 223/223 222/222
f 225/225 226/226 227/227
f 225/225 227/227 228/228
f 227/227 226/226 229/229
f 229/229 226/226 230/230
f 229/229 230/230 231/231
f 231/231 230/230 232/232
f 233/233 231/231 232/232
f 234/234 231/231 233/233
f 235/235 234/234 233/233
f 236/236 234/234 235/235
f 235/235 237/237 236/236
f 237/237 238/238 236/236
f 239/239 240/240 241/241
f 242/242 239/239 241/241
f 243/243 240/240 239/239
f 244/244 243/243 239/239
f 242/242 241/241 245/245
f 245/245 241/241 246/246
f 247/247 245/245 246/246
f 248/248 245/245 247/247
f 241/241 240/240 249/249
f 249/249 240/240 243/243
f 241/241 249/249 250/250
f 249/249 243/243 251/251
f 246/246 241/241 252/252
f 252/252 241/241 250/250
f 246/246 252/252 247/247
f 247/247 252/252 253/253
f 254/254 243/243 244/244
f 255/255 243/243 254/254
f 256/256 255/255 254/254
f 256/256 254/254 257/257
f 258/258 256/256 257/257
f 247/247 258/258 248/248
f 259/259 256/256 258/258
f 259/259 258/258 247/247
f 260/260 255/255 256/256
f 261/261 260/260 256/256
f 260/260 243/243 255/255
f 251/251 243/243 260/260
f 262/262 256/256 259/259
f 261/261 256/256 262/262
f 247/247 262/262 259/259
f 253/253 262/262 247/247
f 263/263 264/264 265/265
f 264/264 266/266 265/265
f 265/265 266/266 267/267
f 267/267 268/268 265/265
f 265/265 268/268 269/269
f 263/263 265/265 269/269
f 267/267 270/270 268/268
f 266/266 270/270 267/267
f 268/268 270/270 271/271
f 270/270 272/272 271/271
f 272/272 273/273 271/271
f 274/274 270/270 266/266
f 274/274 272/272 270/270
f 274/274 275/275 272/272
f 275/275 276/276 272/272
f 276/276 277/277 272/272
f 278/278 277/277 276/276
f 278/278 276/276 279/279
f 278/278 279/279 280/280
f 281/281 278/278 280/280
f 282/282 281/281 280/280
f 283/283 281/281 282/282
f 283/283 282/282 284/284
f 284/284 282/282 285/285
f 284/284 285/285 263/263
f 272/272 286/286 273/273
f 272/272 277/277 286/286
f 286/286 277/277 287/287
f 287/287 277/277 288/288
f 288/288 277/277 289/289
f 290/290 288/288 289/289
f 290/290 289/289 291/291
f 291/291 289/289 292/292
f 291/291 292/292 293/293
f 293/293 292/292 294/294
f 293/293 294/294 295/295
f 296/296 295/295 263/263
f 296/296 293/293 295/295
f 287/287 288/288 297/297
f 287/287 297/297 298/298
f 299/299 287/287 298/298
f 300/300 299/299 298/298
f 301/301 299/299 300/300
f 301/301 300/300 302/302
f 302/302 300/300 303/303
f 304/304 301/301 302/302
f 305/305 304/304 302/302
f 305/305 302/302 263/263
f 302/302 303/303 263/263
f 306/306 299/299 301/301
f 304/304 306/306 301/301
f 306/306 287/287 299/299
f 307/307 287/287 306/306
f 307/307 286/286 287/287
f 263/263 295/295 308/308
f 263/263 309/309 310/310
f 309/309 311/311 310/310
f 309/309 312/312 311/311
f 313/313 312/312 309/309
f 263/263 313/313 309/309
f 313/313 314/314 312/312
f 314/314 315/315 312/312
f 315/315 316/316 312/312
f 312/312 316/316 311/311
f 315/315 317/317 316/316
f 316/316 317/317 318/318
f 311/311 316/316 319/319
f 316/316 318/318 319/319
f 319/319 318/318 320/320
f 318/318 321/321 320/320
f 318/318 277/277 321/321
f 321/321 277/277 278/278
f 322/322 321/321 278/278
f 323/323 322/322 278/278
f 323/323 278/278 281/281
f 323/323 281/281 324/324
f 324/324 281/281 283/283
f 284/284 324/324 283/283
f 325/325 324/324 284/284
f 325/325 284/284 263/263
f 317/317 326/326 318/318
f 326/326 277/277 318/318
f 327/327 277/277 326/326
f 328/328 277/277 327/327
f 289/289 277/277 328/328
f 289/289 328/328 329/329
f 330/330 289/289 329/329
f 292/292 289/289 330/330
f 331/331 292/292 330/330
f 294/294 292/292 331/331
f 295/295 294/294 331/331
f 295/295 331/331 308/308
f 332/332 328/328 327/327
f 332/332 327/327 333/333
f 333/333 327/327 334/334
f 333/333 334/334 335/335
f 335/335 334/334 336/336
f 335/335 336/336 337/337
f 338/338 335/335 337/337
f 337/337 336/336 339/339
f 336/336 334/334 339/339
f 337/337 339/339 340/340
f 263/263 337/337 340/340
f 338/338 337/337 263/263
f 339/339 334/334 341/341
f 334/334 327/327 341/341
f 341/341 327/327 342/342
f 327/327 326/326 342/342
f 343/343 344/344 345/345
f 345/345 346/346 343/343
f 343/343 346/346 347/347
f 343/343 347/347 348/348
f 348/348 347/347 349/349
f 350/350 343/343 348/348
f 351/351 352/352 353/353
f 353/353 354/354 351/351
f 355/355 354/354 353/353
f 356/356 355/355 353/353
f 357/357 355/355 356/356
f 356/356 353/353 358/358
usemtl m1
f 359/359 360/360 361/361
f 359/359 361/361 362/362
f 362/362 363/363 359/359
f 363/363 364/364 359/359
f 365/365 360/360 359/359
f 364/364 365/365 359/359
f 361/361 366/366 362/362
f 360/360 366/366 361/361
f 362/362 366/366 367/367
f 366/366 368/368 367/367
f 366/366 369/369 368/368
f 366/366 370/370 369/369
f 371/371 370/370 366/366
f 360/360 371/371 366/366
f 365/365 371/371 360/360
f 372/372 371/371 365/365
f 372/372 370/370 371/371
f 373/373 370/370 372/372
f 367/367 374/374 362/362
f 362/362 374/374 363/363
f 367/367 375/375 374/374
f 368/368 375/375 367/367
f 364/364 376/376 365/365
f 376/376 372/372 365/365
f 376/376 373/373 372/372
f 374/374 376/376 363/363
f 363/363 376/376 364/364
f 374/374 375/375 376/376
f 377/377 373/373 376/376
f 375/375 377/377 376/376
f 369/369 378/378 368/368
f 369/369 379/379 378/378
f 379/379 380/380 378/378
f 381/381 380/380 379/379
f 370/370 381/381 369/369
f 369/369 381/381 379/379
f 373/373 381/381 370/370
f 378/378 382/382 368/368
f 368/368 382/382 375/375
f 378/378 380/380 382/382
f 375/375 382/382 377/377
f 383/383 381/381 373/373
f 383/383 380/380 381/381
f 377/377 383/383 373/373
f 382/382 384/384 377/377
f 382/382 380/380 384/384
f 384/384 383/383 377/377
f 384/384 380/380 383/383
f 385/385 386/386 387/387
f 387/387 386/386 388/388
f 389/389 385/385 387/387
f 389/389 387/387 390/390
f 390/390 387/387 391/391
f 391/391 387/387 388/388
f 392/392 389/389 390/390
f 392/392 390/390 391/391
f 393/393 389/389 392/392
f 392/392 391/391 394/394
f 395/395 393/393 392/392
f 395/395 392/392 394/394
f 396/396 386/386 385/385
f 396/396 385/385 389/389
f 397/397 386/386 396/396
f 398/398 396/396 389/389
f 399/399 396/396 398/398
f 397/397 396/396 399/399
f 400/400 389/389 393/393
f 398/398 389/389 400/400
f 399/399 398/398 400/400
f 400/400 393/393 395/395
f 401/401 399/399 400/400
f 401/401 400/400 395/395
f 388/388 386/386 402/402
f 391/391 388/388 402/402
f 391/391 402/402 403/403
f 403/403 402/402 404/404
f 404/404 402/402 405/405
f 402/402 386/386 405/405
f 406/406 403/403 404/404
f 395/395 394/394 406/406
f 406/406 404/404 407/407
f 395/395 406/406 407/407
f 406/406 391/391 403/403
f 394/394 391/391 406/406
f 405/405 386/386 408/408
f 408/408 386/386 397/397
f 405/405 408/408 404/404
f 408/408 397/397 399/399
f 404/404 408/408 409/409
f 409/409 408/408 399/399
f 407/407 404/404 410/410
f 404/404 409/409 410/410
f 409/409 399/399 410/410
f 410/410 399/399 401/401
f 407/407 410/410 395/395
f 410/410 401/401 395/395
f 411/411 412/412 413/413
f 414/414 411/411 413/413
f 413/413 415/415 414/414
f 413/413 416/416 415/415
f 413/413 412/412 417/417
f 413/413 417/417 416/416
f 414/414 418/418 411/411
f 411/411 418/418 412/412
f 419/419 418/418 414/414
f 419/419 420/420 418/418
f 420/420 421/421 418/418
f 421/421 422/422 418/418
f 418/418 422/422 423/423
f 418/418 423/423 412/412
f 412/412 423/423 417/417
f 417/417 423/423 424/424
f 423/423 422/422 424/424
f 424/424 422/422 425/425
f 414/414 426/426 419/419
f 415/415 426/426 414/414
f 426/426 427/427 419/419
f 419/419 427/427 420/420
f 417/417 428/428 416/416
f 417/417 424/424 428/428
f 424/424 425/425 428/428
f 415/415 428/428 426/426
f 416/416 428/428 415/415
f 428/428 427/427 426/426
f 428/428 425/425 429/429
f 428/428 429/429 427/427
f 420/420 430/430 421/421
f 430/430 431/431 421/421
f 430/430 432/432 431/431
f 431/431 432/432 433/433
f 421/421 433/433 422/422
f 431/431 433/433 421/421
f 422/422 433/433 425/425
f 420/420 434/434 430/430
f 427/427 434/434 420/420
f 434/434 432/432 430/430
f 429/429 434/434 427/427
f 425/425 433/433 435/435
f 433/433 432/432 435/435
f 425/425 435/435 429/429
f 429/429 436/436 434/434
f 436/436 432/432 434/434
f 429/429 435/435 436/436
f 435/435 432/432 436/436
f 437/437 438/438 439/439
f 440/440 438/438 437/437
f 437/437 439/439 441/441
f 442/442 437/437 441/441
f 443/443 437/437 442/442
f 440/440 437/437 443/443
f 442/442 441/441 444/444
f 443/443 442/442 444/444
f 444/444 441/441 445/445
f 446/446 443/443 444/444
f 444/444 445/445 447/447
f 446/446 444/444 447/447
f 439/439 438/438 448/448
f 441/441 439/439 448/448
f 448/448 438/438 449/449
f 441/441 448/448 450/450
f 450/450 448/448 451/451
f 451/451 448/448 449/449
f 445/445 441/441 452/452
f 452/452 441/441 450/450
f 452/452 450/450 451/451
f 447/447 445/445 452/452
f 452/452 451/451 453/453
f 447/447 452/452 453/453
f 454/454 438/438 440/440
f 454/454 440/440 443/443
f 455/455 438/438 454/454
f 455/455 454/454 456/456
f 456/456 454/454 457/457
f 457/457 454/454 443/443
f 456/456 457/457 458/458
f 458/458 446/446 447/447
f 459/459 456/456 458/458
f 459/459 458/458 447/447
f 457/457 443/443 458/458
f 458/458 443/443 446/446
f 460/460 438/438 455/455
f 449/449 438/438 460/460
f 456/456 460/460 455/455
f 451/451 449/449 460/460
f 461/461 460/460 456/456
f 451/451 460/460 461/461
f 462/462 456/456 459/459
f 462/462 461/461 456/456
f 462/462 451/451 461/461
f 453/453 451/451 462/462
f 447/447 462/462 459/459
f 447/447 453/453 462/462
f 463/463 464/464 465/465
f 464/464 466/466 465/465
f 464/464 467/467 466/466
f 467/467 468/468 466/466
f 467/467 469/469 468/468
f 468/468 469/469 470/470
f 469/469 471/471 470/470
f 470/470 471/471 472/472
f 471/471 473/473 472/472
f 471/471 474/474 473/473
f 463/463 475/475 465/465
f 475/475 476/476 465/465
f 475/475 477/477 476/476
f 477/477 478/478 476/476
f 477/477 479/479 478/478
f 478/478 479/479 480/480
f 479/479 481/481 480/480
f 481/481 474/474 473/473
f 480/480 481/481 482/482
f 481/481 473/473 482/482
f 473/473 474/474 483/483
f 484/484 473/473 483/483
f 484/484 483/483 485/485
f 485/485 483/483 486/486
f 485/485 486/486 487/487
f 487/487 486/486 488/488
f 489/489 487/487 488/488
f 489/489 488/488 490/490
f 465/465 489/489 490/490
f 465/465 490/490 463/463
f 465/465 491/491 463/463
f 465/465 492/492 491/491
f 492/492 493/493 491/491
f 492/492 494/494 493/493
f 494/494 495/495 493/493
f 496/496 495/495 494/494
f 496/496 497/497 495/495
f 498/498 497/497 496/496
f 498/498 473/473 497/497
f 473/473 474/474 497/497
f 463/463 499/499 465/465
f 499/499 500/500 465/465
f 499/499 501/501 500/500
f 501/501 502/502 500/500
f 501/501 503/503 502/502
f 502/502 503/503 504/504
f 503/503 505/505 504/504
f 505/505 474/474 473/473
f 504/504 505/505 506/506
f 505/505 473/473 506/506
f 473/473 474/474 507/507
f 508/508 473/473 507/507
f 508/508 507/507 509/509
f 509/509 507/507 510/510
f 509/509 510/510 511/511
f 511/511 510/510 512/512
f 513/513 511/511 512/512
f 513/513 512/512 514/514
f 465/465 513/513 514/514
f 465/465 514/514 463/463
f 515/515 516/516 517/517
f 515/515 518/518 516/516
f 518/518 519/519 516/516
f 518/518 520/520 519/519
f 520/520 521/521 519/519
f 522/522 521/521 520/520
f 522/522 523/523 521/521
f 524/524 523/523 522/522
f 524/524 525/525 523/523
f 525/525 526/526 523/523
f 515/515 527/527 517/517
f 515/515 528/528 527/527
f 528/528 529/529 527/527
f 528/528 530/530 529/529
f 530/530 531/531 529/529
f 532/532 531/531 530/530
f 532/532 533/533 531/531
f 525/525 526/526 533/533
f 534/534 533/533 532/532
f 534/534 525/525 533/533
f 535/535 526/526 525/525
f 535/535 525/525 536/536
f 537/537 535/535 536/536
f 538/538 535/535 537/537
f 539/539 538/538 537/537
f 540/540 538/538 539/539
f 540/540 539/539 541/541
f 542/542 540/540 541/541
f 542/542 541/541 515/515
f 517/517 542/542 515/515
f 517/517 543/543 515/515
f 543/543 544/544 515/515
f 543/543 545/545 544/544
f 545/545 546/546 544/544
f 545/545 547/547 546/546
f 546/546 547/547 548/548
f 547/547 549/549 548/548
f 548/548 549/549 550/550
f 549/549 525/525 550/550
f 549/549 526/526 525/525
f 515/515 551/551 517/517
f 515/515 552/552 551/551
f 552/552 553/553 551/551
f 552/552 554/554 553/553
f 554/554 555/555 553/553
f 556/556 555/555 554/554
f 556/556 557/557 555/555
f 525/525 526/526 557/557
f 558/558 557/557 556/556
f 558/558 525/525 557/557
f 559/559 526/526 525/525
f 559/559 525/525 560/560
f 561/561 559/559 560/560
f 562/562 559/559 561/561
f 563/563 562/562 561/561
f 564/564 562/562 563/563
f 564/564 563/563 565/565
f 566/566 564/564 565/565
f 566/566 565/565 515/515
f 517/517 566/566 515/515
