mtllib acce543.mtl
o acce543
v -0.65232 -0.81414 2.18610 0.000 0.000 0.000
v -0.65646 -0.82152 2.16810 0.000 0.000 0.000
v -0.64656 -0.80442 2.16990 0.000 0.000 0.000
v -0.73800 -0.85824 2.24532 0.000 0.000 0.000
v -0.73152 -0.85968 2.21724 0.000 0.000 0.000
v -0.71964 -0.83934 2.23380 0.000 0.000 0.000
v -0.82728 -0.48888 2.27124 0.000 0.000 0.000
v -0.82584 -0.50652 2.24856 0.000 0.000 0.000
v -0.80388 -0.48888 2.25450 0.000 0.000 0.000
v -0.67266 -0.86868 2.51586 0.000 0.000 0.000
v -0.68166 -0.88434 2.50308 0.000 0.000 0.000
v -0.69372 -0.86688 2.50956 0.000 0.000 0.000
v -0.56376 -0.66096 2.35620 0.000 0.000 0.000
v -0.56250 -0.65880 2.32758 0.000 0.000 0.000
v -0.55080 -0.63828 2.34396 0.000 0.000 0.000
v -0.63720 -0.95940 2.18916 0.000 0.000 0.000
v -0.64890 -0.97974 2.17260 0.000 0.000 0.000
v -0.62154 -0.98208 2.18088 0.000 0.000 0.000
v -0.80334 -0.95616 2.99700 0.000 0.000 0.000
v -0.81936 -0.94878 2.97432 0.000 0.000 0.000
v -0.80766 -0.92826 2.99070 0.000 0.000 0.000
v -0.76680 -1.00296 2.46798 0.000 0.000 0.000
v -0.77112 -1.01556 2.45340 0.000 0.000 0.000
v -0.75582 -1.00314 2.45142 0.000 0.000 0.000
v -0.66492 -0.83610 1.96758 0.000 0.000 0.000
v -0.65664 -0.82188 1.94400 0.000 0.000 0.000
v -0.65052 -0.81126 1.97010 0.000 0.000 0.000
v -0.49392 -0.89496 2.76894 0.000 0.000 0.000
v -0.51498 -0.88830 2.75058 0.000 0.000 0.000
v -0.50310 -0.86778 2.76696 0.000 0.000 0.000
v -0.70830 -0.90144 2.57904 0.000 0.000 0.000
v -0.70020 -0.90630 2.55906 0.000 0.000 0.000
v -0.69066 -0.89046 2.57112 0.000 0.000 0.000
v -0.57456 -0.82800 2.57184 0.000 0.000 0.000
v -0.56754 -0.83232 2.55384 0.000 0.000 0.000
v -0.55890 -0.81810 2.56464 0.000 0.000 0.000
v -0.67482 -1.04958 2.75382 0.000 0.000 0.000
v -0.67410 -1.04814 2.72502 0.000 0.000 0.000
v -0.66204 -1.02726 2.74068 0.000 0.000 0.000
v -0.73422 -1.02870 2.86470 0.000 0.000 0.000
v -0.74574 -1.02870 2.84850 0.000 0.000 0.000
v -0.73998 -1.01142 2.85660 0.000 0.000 0.000
v -0.68508 -0.88488 2.41992 0.000 0.000 0.000
v -0.69714 -0.88542 2.39382 0.000 0.000 0.000
v -0.68706 -0.86058 2.40462 0.000 0.000 0.000
v -0.64656 0.80442 2.16990 0.000 0.000 0.000
v -0.65646 0.82152 2.16810 0.000 0.000 0.000
v -0.65232 0.81414 2.18610 0.000 0.000 0.000
v -0.71964 0.83934 2.23380 0.000 0.000 0.000
v -0.73152 0.85968 2.21724 0.000 0.000 0.000
v -0.73800 0.85824 2.24532 0.000 0.000 0.000
v -0.80388 0.48888 2.25450 0.000 0.000 0.000
v -0.82584 0.50652 2.24856 0.000 0.000 0.000
v -0.82728 0.48888 2.27124 0.000 0.000 0.000
v -0.69372 0.86688 2.50956 0.000 0.000 0.000
v -0.68166 0.88434 2.50308 0.000 0.000 0.000
v -0.67266 0.86868 2.51586 0.000 0.000 0.000
v -0.55080 0.63828 2.34396 0.000 0.000 0.000
v -0.56250 0.65880 2.32758 0.000 0.000 0.000
v -0.56376 0.66096 2.35620 0.000 0.000 0.000
v -0.62154 0.98208 2.18088 0.000 0.000 0.000
v -0.64890 0.97974 2.17260 0.000 0.000 0.000
v -0.63720 0.95940 2.18916 0.000 0.000 0.000
v -0.80766 0.92826 2.99070 0.000 0.000 0.000
v -0.81936 0.94878 2.97432 0.000 0.000 0.000
v -0.80334 0.95616 2.99700 0.000 0.000 0.000
v -0.75582 1.00314 2.45142 0.000 0.000 0.000
v -0.77112 1.01556 2.45340 0.000 0.000 0.000
v -0.76680 1.00296 2.46798 0.000 0.000 0.000
v -0.65052 0.81126 1.97010 0.000 0.000 0.000
v -0.65664 0.82188 1.94400 0.000 0.000 0.000
v -0.66492 0.83610 1.96758 0.000 0.000 0.000
v -0.50310 0.86778 2.76696 0.000 0.000 0.000
v -0.51498 0.88830 2.75058 0.000 0.000 0.000
v -0.49392 0.89496 2.76894 0.000 0.000 0.000
v -0.69066 0.89046 2.57112 0.000 0.000 0.000
v -0.70020 0.90630 2.55906 0.000 0.000 0.000
v -0.70830 0.90144 2.57904 0.000 0.000 0.000
v -0.55890 0.81810 2.56464 0.000 0.000 0.000
v -0.56754 0.83232 2.55384 0.000 0.000 0.000
v -0.57456 0.82800 2.57184 0.000 0.000 0.000
v -0.66204 1.02726 2.74068 0.000 0.000 0.000
v -0.67410 1.04814 2.72502 0.000 0.000 0.000
v -0.67482 1.04958 2.75382 0.000 0.000 0.000
v -0.73998 1.01142 2.85660 0.000 0.000 0.000
v -0.74574 1.02870 2.84850 0.000 0.000 0.000
v -0.73422 1.02870 2.86470 0.000 0.000 0.000
v -0.68706 0.86058 2.40462 0.000 0.000 0.000
v -0.69714 0.88542 2.39382 0.000 0.000 0.000
v -0.68508 0.88488 2.41992 0.000 0.000 0.000
v -0.48222 -0.51966 1.98720 0.000 0.000 0.000
v -0.48402 -0.52290 1.92600 0.000 0.000 0.000
v -0.44280 -0.45126 1.98270 0.000 0.000 0.000
v -0.47052 -0.49950 2.06550 0.000 0.000 0.000
v -0.42048 -0.41274 2.03094 0.000 0.000 0.000
v -0.42390 -0.41868 2.29554 0.000 0.000 0.000
v -0.37188 -0.32868 2.16162 0.000 0.000 0.000
v -0.37314 -0.33066 2.03724 0.000 0.000 0.000
v -0.42120 -0.41382 1.96992 0.000 0.000 0.000
v -0.27468 -0.16038 2.04516 0.000 0.000 0.000
v -0.27774 -0.16560 2.00430 0.000 0.000 0.000
v -0.27000 -0.15210 2.02050 0.000 0.000 0.000
v -0.51822 -0.58212 2.10960 0.000 0.000 0.000
v -0.51282 -0.57276 2.00520 0.000 0.000 0.000
v -0.57402 -0.67878 1.98000 0.000 0.000 0.000
v -0.42588 -0.42210 2.51028 0.000 0.000 0.000
v -0.58122 -0.69120 2.34720 0.000 0.000 0.000
v -0.56862 -0.66942 2.18160 0.000 0.000 0.000
v -0.63342 -0.78156 2.17080 0.000 0.000 0.000
v -0.71622 -0.92502 2.25000 0.000 0.000 0.000
v -0.57042 -0.67248 2.06640 0.000 0.000 0.000
v -0.64962 -0.80964 2.07000 0.000 0.000 0.000
v -0.39852 -0.37476 2.62656 0.000 0.000 0.000
v -0.40698 -0.38934 2.67606 0.000 0.000 0.000
v -0.63702 -0.78786 2.48040 0.000 0.000 0.000
v -0.69462 -0.88758 2.33640 0.000 0.000 0.000
v -0.72162 -0.93438 2.47680 0.000 0.000 0.000
v -0.80082 -1.07154 2.44080 0.000 0.000 0.000
v -0.63702 -0.78786 2.82240 0.000 0.000 0.000
v -0.68166 -0.86508 2.67102 0.000 0.000 0.000
v -0.71802 -0.92808 2.93400 0.000 0.000 0.000
v -0.77562 -1.02798 2.83500 0.000 0.000 0.000
v -0.84582 -1.14948 3.06360 0.000 0.000 0.000
v -0.73062 -0.95004 2.54880 0.000 0.000 0.000
v -0.74682 -0.97794 2.72520 0.000 0.000 0.000
v -0.83142 -1.12446 2.74680 0.000 0.000 0.000
v -0.58212 -0.69282 2.93454 0.000 0.000 0.000
v -0.77562 -1.02798 3.16800 0.000 0.000 0.000
v -0.74412 -0.97308 3.33612 0.000 0.000 0.000
v -0.83862 -1.13706 3.42900 0.000 0.000 0.000
v -0.86562 -1.18386 3.61800 0.000 0.000 0.000
v -0.79668 -0.94266 3.33612 0.000 0.000 0.000
v -0.87804 -1.20528 3.79494 0.000 0.000 0.000
v -0.65016 -0.65358 2.93454 0.000 0.000 0.000
v -0.47484 -0.35010 2.67606 0.000 0.000 0.000
v -0.46656 -0.33552 2.62656 0.000 0.000 0.000
v -0.49374 -0.38286 2.51028 0.000 0.000 0.000
v -0.49194 -0.37944 2.29554 0.000 0.000 0.000
v -0.43992 -0.28944 2.16162 0.000 0.000 0.000
v -0.34272 -0.12114 2.04516 0.000 0.000 0.000
v -0.33804 -0.11286 2.02050 0.000 0.000 0.000
v -0.34578 -0.12636 2.00430 0.000 0.000 0.000
v -0.83142 -1.12446 2.49840 0.000 0.000 0.000
v -0.70722 -0.90936 2.46240 0.000 0.000 0.000
v -0.75762 -0.99666 2.58120 0.000 0.000 0.000
v -0.90162 -1.24614 2.61360 0.000 0.000 0.000
v -0.93942 -1.31166 2.77920 0.000 0.000 0.000
v -0.84312 -1.14480 3.08700 0.000 0.000 0.000
v -0.70344 -0.90288 2.95272 0.000 0.000 0.000
v -0.78336 -1.04130 3.17160 0.000 0.000 0.000
v -0.89712 -1.23840 3.21300 0.000 0.000 0.000
v -0.92862 -1.29294 3.36600 0.000 0.000 0.000
v -0.93762 -1.30842 3.51900 0.000 0.000 0.000
v -0.62208 -0.76176 2.03508 0.000 0.000 0.000
v -0.61362 -0.74736 1.94040 0.000 0.000 0.000
v -0.55062 -0.63810 2.05200 0.000 0.000 0.000
v -0.66852 -0.84240 1.93392 0.000 0.000 0.000
v -0.70902 -0.91260 1.97640 0.000 0.000 0.000
v -0.87426 -1.19880 2.82420 0.000 0.000 0.000
v -0.74862 -0.98118 2.73600 0.000 0.000 0.000
v -0.82512 -1.11366 2.93400 0.000 0.000 0.000
v -0.93312 -1.30068 2.97000 0.000 0.000 0.000
v -0.96462 -1.35522 3.15000 0.000 0.000 0.000
v -0.73458 -0.95670 2.35062 0.000 0.000 0.000
v -0.74556 -0.97578 2.19636 0.000 0.000 0.000
v -0.62622 -0.76914 2.25486 0.000 0.000 0.000
v -0.83682 -1.13382 2.27466 0.000 0.000 0.000
v -0.87912 -1.20708 2.39400 0.000 0.000 0.000
v -0.68562 -0.87192 2.16360 0.000 0.000 0.000
v -0.67482 -0.85338 2.05560 0.000 0.000 0.000
v -0.59490 -0.71478 2.16072 0.000 0.000 0.000
v -0.73422 -0.95616 2.05920 0.000 0.000 0.000
v -0.78102 -1.03716 2.11320 0.000 0.000 0.000
v -0.44280 0.45126 1.98270 0.000 0.000 0.000
v -0.48402 0.52290 1.92600 0.000 0.000 0.000
v -0.48222 0.51966 1.98720 0.000 0.000 0.000
v -0.47052 0.49950 2.06550 0.000 0.000 0.000
v -0.42048 0.41274 2.03094 0.000 0.000 0.000
v -0.42390 0.41868 2.29554 0.000 0.000 0.000
v -0.37188 0.32868 2.16162 0.000 0.000 0.000
v -0.37314 0.33066 2.03724 0.000 0.000 0.000
v -0.42120 0.41382 1.96992 0.000 0.000 0.000
v -0.27468 0.16038 2.04516 0.000 0.000 0.000
v -0.27774 0.16560 2.00430 0.000 0.000 0.000
v -0.27000 0.15210 2.02050 0.000 0.000 0.000
v -0.51822 0.58212 2.10960 0.000 0.000 0.000
v -0.51282 0.57276 2.00520 0.000 0.000 0.000
v -0.57402 0.67878 1.98000 0.000 0.000 0.000
v -0.42588 0.42210 2.51028 0.000 0.000 0.000
v -0.58122 0.69120 2.34720 0.000 0.000 0.000
v -0.56862 0.66942 2.18160 0.000 0.000 0.000
v -0.63342 0.78156 2.17080 0.000 0.000 0.000
v -0.71622 0.92502 2.25000 0.000 0.000 0.000
v -0.57042 0.67248 2.06640 0.000 0.000 0.000
v -0.64962 0.80964 2.07000 0.000 0.000 0.000
v -0.39852 0.37476 2.62656 0.000 0.000 0.000
v -0.40698 0.38934 2.67606 0.000 0.000 0.000
v -0.63702 0.78786 2.48040 0.000 0.000 0.000
v -0.69462 0.88758 2.33640 0.000 0.000 0.000
v -0.72162 0.93438 2.47680 0.000 0.000 0.000
v -0.80082 1.07154 2.44080 0.000 0.000 0.000
v -0.63702 0.78786 2.82240 0.000 0.000 0.000
v -0.68166 0.86508 2.67102 0.000 0.000 0.000
v -0.71802 0.92808 2.93400 0.000 0.000 0.000
v -0.77562 1.02798 2.83500 0.000 0.000 0.000
v -0.84582 1.14948 3.06360 0.000 0.000 0.000
v -0.73062 0.95004 2.54880 0.000 0.000 0.000
v -0.74682 0.97794 2.72520 0.000 0.000 0.000
v -0.83142 1.12446 2.74680 0.000 0.000 0.000
v -0.58212 0.69282 2.93454 0.000 0.000 0.000
v -0.77562 1.02798 3.16800 0.000 0.000 0.000
v -0.74412 0.97308 3.33612 0.000 0.000 0.000
v -0.83862 1.13706 3.42900 0.000 0.000 0.000
v -0.79668 0.94266 3.33612 0.000 0.000 0.000
v -0.65016 0.65358 2.93454 0.000 0.000 0.000
v -0.47484 0.35010 2.67606 0.000 0.000 0.000
v -0.46656 0.33552 2.62656 0.000 0.000 0.000
v -0.49374 0.38286 2.51028 0.000 0.000 0.000
v -0.49194 0.37944 2.29554 0.000 0.000 0.000
v -0.43992 0.28944 2.16162 0.000 0.000 0.000
v -0.34272 0.12114 2.04516 0.000 0.000 0.000
v -0.33804 0.11286 2.02050 0.000 0.000 0.000
v -0.34578 0.12636 2.00430 0.000 0.000 0.000
v -0.86562 1.18386 3.61800 0.000 0.000 0.000
v -0.87804 1.20528 3.79494 0.000 0.000 0.000
v -0.75762 0.99666 2.58120 0.000 0.000 0.000
v -0.70722 0.90936 2.46240 0.000 0.000 0.000
v -0.83142 1.12446 2.49840 0.000 0.000 0.000
v -0.90162 1.24614 2.61360 0.000 0.000 0.000
v -0.93942 1.31166 2.77920 0.000 0.000 0.000
v -0.78336 1.04130 3.17160 0.000 0.000 0.000
v -0.70344 0.90288 2.95272 0.000 0.000 0.000
v -0.84312 1.14480 3.08700 0.000 0.000 0.000
v -0.89712 1.23840 3.21300 0.000 0.000 0.000
v -0.92862 1.29294 3.36600 0.000 0.000 0.000
v -0.93762 1.30842 3.51900 0.000 0.000 0.000
v -0.55062 0.63810 2.05200 0.000 0.000 0.000
v -0.61362 0.74736 1.94040 0.000 0.000 0.000
v -0.62208 0.76176 2.03508 0.000 0.000 0.000
v -0.66852 0.84240 1.93392 0.000 0.000 0.000
v -0.70902 0.91260 1.97640 0.000 0.000 0.000
v -0.82512 1.11366 2.93400 0.000 0.000 0.000
v -0.74862 0.98118 2.73600 0.000 0.000 0.000
v -0.87426 1.19880 2.82420 0.000 0.000 0.000
v -0.93312 1.30068 2.97000 0.000 0.000 0.000
v -0.96462 1.35522 3.15000 0.000 0.000 0.000
v -0.62622 0.76914 2.25486 0.000 0.000 0.000
v -0.74556 0.97578 2.19636 0.000 0.000 0.000
v -0.73458 0.95670 2.35062 0.000 0.000 0.000
v -0.83682 1.13382 2.27466 0.000 0.000 0.000
v -0.87912 1.20708 2.39400 0.000 0.000 0.000
v -0.59490 0.71478 2.16072 0.000 0.000 0.000
v -0.67482 0.85338 2.05560 0.000 0.000 0.000
v -0.68562 0.87192 2.16360 0.000 0.000 0.000
v -0.73422 0.95616 2.05920 0.000 0.000 0.000
v -0.78102 1.03716 2.11320 0.000 0.000 0.000
v -0.64602 -0.92880 2.12778 0.000 0.000 0.000
v -0.61776 -0.88020 2.12022 0.000 0.000 0.000
v -0.65070 -0.93726 2.16378 0.000 0.000 0.000
v -0.60840 -0.86400 2.15262 0.000 0.000 0.000
v -0.58248 -0.81900 2.08494 0.000 0.000 0.000
v -0.60048 -0.85014 2.07522 0.000 0.000 0.000
v -0.60426 -0.85662 2.01906 0.000 0.000 0.000
v -0.58806 -0.82854 2.00034 0.000 0.000 0.000
v -0.62190 -0.88722 1.94850 0.000 0.000 0.000
v -0.62676 -0.89568 1.98450 0.000 0.000 0.000
v -0.65484 -0.94428 1.99188 0.000 0.000 0.000
v -0.66420 -0.96048 1.95948 0.000 0.000 0.000
v -0.69012 -1.00548 2.02716 0.000 0.000 0.000
v -0.67212 -0.97416 2.03688 0.000 0.000 0.000
v -0.66852 -0.96786 2.09322 0.000 0.000 0.000
v -0.68472 -0.99576 2.11194 0.000 0.000 0.000
v -0.62118 -0.77598 1.97838 0.000 0.000 0.000
v -0.65844 -0.84060 1.94760 0.000 0.000 0.000
v -0.61848 -0.77130 1.95822 0.000 0.000 0.000
v -0.58104 -0.70668 1.98900 0.000 0.000 0.000
v -0.63018 -0.79146 2.04570 0.000 0.000 0.000
v -0.62478 -0.78246 1.96560 0.000 0.000 0.000
v -0.61470 -0.76482 1.97100 0.000 0.000 0.000
v -0.60948 -0.75564 1.89090 0.000 0.000 0.000
v -0.73044 -0.97686 3.42738 0.000 0.000 0.000
v -0.66276 -0.85986 3.40956 0.000 0.000 0.000
v -0.74196 -0.99702 3.51414 0.000 0.000 0.000
v -0.64026 -0.82098 3.48732 0.000 0.000 0.000
v -0.57798 -0.71280 3.32460 0.000 0.000 0.000
v -0.62118 -0.78804 3.30138 0.000 0.000 0.000
v -0.63018 -0.80334 3.16620 0.000 0.000 0.000
v -0.59130 -0.73602 3.12138 0.000 0.000 0.000
v -0.67266 -0.87696 2.99646 0.000 0.000 0.000
v -0.68418 -0.89712 3.08322 0.000 0.000 0.000
v -0.75186 -1.01412 3.10104 0.000 0.000 0.000
v -0.77436 -1.05300 3.02328 0.000 0.000 0.000
v -0.83664 -1.16118 3.18600 0.000 0.000 0.000
v -0.79326 -1.08594 3.20922 0.000 0.000 0.000
v -0.78444 -1.07064 3.34440 0.000 0.000 0.000
v -0.82332 -1.13796 3.38922 0.000 0.000 0.000
v -0.79956 -1.00674 2.93328 0.000 0.000 0.000
v -0.90828 -1.19484 2.84346 0.000 0.000 0.000
v -0.79164 -0.99288 2.87406 0.000 0.000 0.000
v -0.68292 -0.80460 2.96406 0.000 0.000 0.000
v -0.82584 -1.05210 3.12912 0.000 0.000 0.000
v -0.81054 -1.02546 2.89584 0.000 0.000 0.000
v -0.78084 -0.97416 2.91168 0.000 0.000 0.000
v -0.76554 -0.94752 2.67840 0.000 0.000 0.000
v -0.87228 -1.06560 2.64312 0.000 0.000 0.000
v -0.82782 -0.98892 2.63142 0.000 0.000 0.000
v -0.87984 -1.07892 2.70000 0.000 0.000 0.000
v -0.81324 -0.96336 2.68236 0.000 0.000 0.000
v -0.77220 -0.89262 2.57580 0.000 0.000 0.000
v -0.80064 -0.94176 2.56050 0.000 0.000 0.000
v -0.80658 -0.95184 2.47194 0.000 0.000 0.000
v -0.78102 -0.90774 2.44242 0.000 0.000 0.000
v -0.83430 -1.00008 2.36070 0.000 0.000 0.000
v -0.84204 -1.01340 2.41740 0.000 0.000 0.000
v -0.88632 -1.09008 2.42910 0.000 0.000 0.000
v -0.90108 -1.11546 2.37816 0.000 0.000 0.000
v -0.94194 -1.18638 2.48490 0.000 0.000 0.000
v -0.91350 -1.13724 2.50002 0.000 0.000 0.000
v -0.90774 -1.12716 2.58858 0.000 0.000 0.000
v -0.93312 -1.17126 2.61810 0.000 0.000 0.000
v -0.85626 -1.04598 2.54970 0.000 0.000 0.000
v -0.92754 -1.16928 2.49066 0.000 0.000 0.000
v -0.85104 -1.03698 2.51082 0.000 0.000 0.000
v -0.77994 -0.91350 2.56986 0.000 0.000 0.000
v -0.87354 -1.07568 2.67804 0.000 0.000 0.000
v -0.86346 -1.05822 2.52504 0.000 0.000 0.000
v -0.84402 -1.02456 2.53548 0.000 0.000 0.000
v -0.83394 -1.00710 2.38266 0.000 0.000 0.000
v -0.60354 -0.77670 2.59056 0.000 0.000 0.000
v -0.56268 -0.70614 2.57976 0.000 0.000 0.000
v -0.61056 -0.78894 2.64294 0.000 0.000 0.000
v -0.54918 -0.68274 2.62674 0.000 0.000 0.000
v -0.51156 -0.61758 2.52864 0.000 0.000 0.000
v -0.53766 -0.66276 2.51460 0.000 0.000 0.000
v -0.54306 -0.67212 2.43306 0.000 0.000 0.000
v -0.51966 -0.63144 2.40606 0.000 0.000 0.000
v -0.56862 -0.71640 2.33064 0.000 0.000 0.000
v -0.57564 -0.72864 2.38302 0.000 0.000 0.000
v -0.61650 -0.79920 2.39382 0.000 0.000 0.000
v -0.63000 -0.82260 2.34684 0.000 0.000 0.000
v -0.66762 -0.88794 2.44494 0.000 0.000 0.000
v -0.64152 -0.84258 2.45898 0.000 0.000 0.000
v -0.63612 -0.83322 2.54052 0.000 0.000 0.000
v -0.65952 -0.87390 2.56752 0.000 0.000 0.000
v -0.71550 -0.88038 2.40966 0.000 0.000 0.000
v -0.78102 -0.99396 2.35530 0.000 0.000 0.000
v -0.71064 -0.87210 2.37384 0.000 0.000 0.000
v -0.64512 -0.75852 2.42820 0.000 0.000 0.000
v -0.73116 -0.90774 2.52774 0.000 0.000 0.000
v -0.72198 -0.89172 2.38698 0.000 0.000 0.000
v -0.70416 -0.86076 2.39652 0.000 0.000 0.000
v -0.69480 -0.84474 2.25594 0.000 0.000 0.000
v -0.65826 -1.11222 3.13218 0.000 0.000 0.000
v -0.71190 -1.20510 3.08772 0.000 0.000 0.000
v -0.65430 -1.10556 3.10302 0.000 0.000 0.000
v -0.60084 -1.01268 3.14730 0.000 0.000 0.000
v -0.67122 -1.13472 3.22848 0.000 0.000 0.000
v -0.66366 -1.12158 3.11364 0.000 0.000 0.000
v -0.64908 -1.09620 3.12138 0.000 0.000 0.000
v -0.64152 -1.08306 3.00654 0.000 0.000 0.000
v -0.70794 -0.94590 3.28482 0.000 0.000 0.000
v -0.81648 -1.13418 3.19500 0.000 0.000 0.000
v -0.70002 -0.93204 3.22560 0.000 0.000 0.000
v -0.59130 -0.74376 3.31560 0.000 0.000 0.000
v -0.73404 -0.99126 3.48066 0.000 0.000 0.000
v -0.71874 -0.96462 3.24738 0.000 0.000 0.000
v -0.68904 -0.91332 3.26322 0.000 0.000 0.000
v -0.67374 -0.88668 3.02994 0.000 0.000 0.000
v -0.63468 -0.91710 2.06838 0.000 0.000 0.000
v -0.67986 -0.99540 2.03094 0.000 0.000 0.000
v -0.63126 -0.91134 2.04372 0.000 0.000 0.000
v -0.58608 -0.83304 2.08116 0.000 0.000 0.000
v -0.64548 -0.93600 2.14992 0.000 0.000 0.000
v -0.63918 -0.92484 2.05272 0.000 0.000 0.000
v -0.62676 -0.90342 2.05938 0.000 0.000 0.000
v -0.62046 -0.89244 1.96236 0.000 0.000 0.000
v -0.98370 -1.40418 3.69558 0.000 0.000 0.000
v -1.02474 -1.47492 3.66174 0.000 0.000 0.000
v -0.98082 -1.39896 3.67326 0.000 0.000 0.000
v -0.93978 -1.32804 3.70728 0.000 0.000 0.000
v -0.99360 -1.42128 3.76938 0.000 0.000 0.000
v -0.98784 -1.41120 3.68154 0.000 0.000 0.000
v -0.97668 -1.39176 3.68748 0.000 0.000 0.000
v -0.97092 -1.38186 3.59964 0.000 0.000 0.000
v -0.58860 -0.75888 2.50470 0.000 0.000 0.000
v -0.65412 -0.87228 2.45034 0.000 0.000 0.000
v -0.58374 -0.75060 2.46888 0.000 0.000 0.000
v -0.51822 -0.63702 2.52324 0.000 0.000 0.000
v -0.60444 -0.78624 2.62260 0.000 0.000 0.000
v -0.59508 -0.77022 2.48202 0.000 0.000 0.000
v -0.57726 -0.73926 2.49156 0.000 0.000 0.000
v -0.56790 -0.72306 2.35098 0.000 0.000 0.000
v -0.60786 -0.81198 2.28492 0.000 0.000 0.000
v -0.67356 -0.92556 2.23056 0.000 0.000 0.000
v -0.60318 -0.80370 2.24910 0.000 0.000 0.000
v -0.53766 -0.69012 2.30346 0.000 0.000 0.000
v -0.62370 -0.83934 2.40282 0.000 0.000 0.000
v -0.61452 -0.82332 2.26224 0.000 0.000 0.000
v -0.59670 -0.79236 2.27178 0.000 0.000 0.000
v -0.58734 -0.77634 2.13120 0.000 0.000 0.000
v -0.74016 -0.98208 2.51748 0.000 0.000 0.000
v -0.77310 -1.03932 2.49012 0.000 0.000 0.000
v -0.73764 -0.97794 2.49948 0.000 0.000 0.000
v -0.70470 -0.92070 2.52684 0.000 0.000 0.000
v -0.74808 -0.99576 2.57706 0.000 0.000 0.000
v -0.74340 -0.98784 2.50614 0.000 0.000 0.000
v -0.73440 -0.97218 2.51100 0.000 0.000 0.000
v -0.72972 -0.96408 2.44008 0.000 0.000 0.000
v -0.65070 0.93726 2.16378 0.000 0.000 0.000
v -0.61776 0.88020 2.12022 0.000 0.000 0.000
v -0.64602 0.92880 2.12778 0.000 0.000 0.000
v -0.60840 0.86400 2.15262 0.000 0.000 0.000
v -0.58248 0.81900 2.08494 0.000 0.000 0.000
v -0.60048 0.85014 2.07522 0.000 0.000 0.000
v -0.60426 0.85662 2.01906 0.000 0.000 0.000
v -0.58806 0.82854 2.00034 0.000 0.000 0.000
v -0.62190 0.88722 1.94850 0.000 0.000 0.000
v -0.62676 0.89568 1.98450 0.000 0.000 0.000
v -0.65484 0.94428 1.99188 0.000 0.000 0.000
v -0.66420 0.96048 1.95948 0.000 0.000 0.000
v -0.69012 1.00548 2.02716 0.000 0.000 0.000
v -0.67212 0.97416 2.03688 0.000 0.000 0.000
v -0.66852 0.96786 2.09322 0.000 0.000 0.000
v -0.68472 0.99576 2.11194 0.000 0.000 0.000
v -0.61848 0.77130 1.95822 0.000 0.000 0.000
v -0.65844 0.84060 1.94760 0.000 0.000 0.000
v -0.62118 0.77598 1.97838 0.000 0.000 0.000
v -0.58104 0.70668 1.98900 0.000 0.000 0.000
v -0.61470 0.76482 1.97100 0.000 0.000 0.000
v -0.62478 0.78246 1.96560 0.000 0.000 0.000
v -0.63018 0.79146 2.04570 0.000 0.000 0.000
v -0.60948 0.75564 1.89090 0.000 0.000 0.000
v -0.74196 0.99702 3.51414 0.000 0.000 0.000
v -0.66276 0.85986 3.40956 0.000 0.000 0.000
v -0.73044 0.97686 3.42738 0.000 0.000 0.000
v -0.64026 0.82098 3.48732 0.000 0.000 0.000
v -0.57798 0.71280 3.32460 0.000 0.000 0.000
v -0.62118 0.78804 3.30138 0.000 0.000 0.000
v -0.63018 0.80334 3.16620 0.000 0.000 0.000
v -0.59130 0.73602 3.12138 0.000 0.000 0.000
v -0.67266 0.87696 2.99646 0.000 0.000 0.000
v -0.68418 0.89712 3.08322 0.000 0.000 0.000
v -0.75186 1.01412 3.10104 0.000 0.000 0.000
v -0.77436 1.05300 3.02328 0.000 0.000 0.000
v -0.83664 1.16118 3.18600 0.000 0.000 0.000
v -0.79326 1.08594 3.20922 0.000 0.000 0.000
v -0.78444 1.07064 3.34440 0.000 0.000 0.000
v -0.82332 1.13796 3.38922 0.000 0.000 0.000
v -0.79164 0.99288 2.87406 0.000 0.000 0.000
v -0.90828 1.19484 2.84346 0.000 0.000 0.000
v -0.79956 1.00674 2.93328 0.000 0.000 0.000
v -0.68292 0.80460 2.96406 0.000 0.000 0.000
v -0.78084 0.97416 2.91168 0.000 0.000 0.000
v -0.81054 1.02546 2.89584 0.000 0.000 0.000
v -0.82584 1.05210 3.12912 0.000 0.000 0.000
v -0.76554 0.94752 2.67840 0.000 0.000 0.000
v -0.87984 1.07892 2.70000 0.000 0.000 0.000
v -0.82782 0.98892 2.63142 0.000 0.000 0.000
v -0.87228 1.06560 2.64312 0.000 0.000 0.000
v -0.81324 0.96336 2.68236 0.000 0.000 0.000
v -0.77220 0.89262 2.57580 0.000 0.000 0.000
v -0.80064 0.94176 2.56050 0.000 0.000 0.000
v -0.80658 0.95184 2.47194 0.000 0.000 0.000
v -0.78102 0.90774 2.44242 0.000 0.000 0.000
v -0.83430 1.00008 2.36070 0.000 0.000 0.000
v -0.84204 1.01340 2.41740 0.000 0.000 0.000
v -0.88632 1.09008 2.42910 0.000 0.000 0.000
v -0.90108 1.11546 2.37816 0.000 0.000 0.000
v -0.94194 1.18638 2.48490 0.000 0.000 0.000
v -0.91350 1.13724 2.50002 0.000 0.000 0.000
v -0.90774 1.12716 2.58858 0.000 0.000 0.000
v -0.93312 1.17126 2.61810 0.000 0.000 0.000
v -0.85104 1.03698 2.51082 0.000 0.000 0.000
v -0.92754 1.16928 2.49066 0.000 0.000 0.000
v -0.85626 1.04598 2.54970 0.000 0.000 0.000
v -0.77994 0.91350 2.56986 0.000 0.000 0.000
v -0.84402 1.02456 2.53548 0.000 0.000 0.000
v -0.86346 1.05822 2.52504 0.000 0.000 0.000
v -0.87354 1.07568 2.67804 0.000 0.000 0.000
v -0.83394 1.00710 2.38266 0.000 0.000 0.000
v -0.61056 0.78894 2.64294 0.000 0.000 0.000
v -0.56268 0.70614 2.57976 0.000 0.000 0.000
v -0.60354 0.77670 2.59056 0.000 0.000 0.000
v -0.54918 0.68274 2.62674 0.000 0.000 0.000
v -0.51156 0.61758 2.52864 0.000 0.000 0.000
v -0.53766 0.66276 2.51460 0.000 0.000 0.000
v -0.54306 0.67212 2.43306 0.000 0.000 0.000
v -0.51966 0.63144 2.40606 0.000 0.000 0.000
v -0.56862 0.71640 2.33064 0.000 0.000 0.000
v -0.57564 0.72864 2.38302 0.000 0.000 0.000
v -0.61650 0.79920 2.39382 0.000 0.000 0.000
v -0.63000 0.82260 2.34684 0.000 0.000 0.000
v -0.66762 0.88794 2.44494 0.000 0.000 0.000
v -0.64152 0.84258 2.45898 0.000 0.000 0.000
v -0.63612 0.83322 2.54052 0.000 0.000 0.000
v -0.65952 0.87390 2.56752 0.000 0.000 0.000
v -0.71064 0.87210 2.37384 0.000 0.000 0.000
v -0.78102 0.99396 2.35530 0.000 0.000 0.000
v -0.71550 0.88038 2.40966 0.000 0.000 0.000
v -0.64512 0.75852 2.42820 0.000 0.000 0.000
v -0.70416 0.86076 2.39652 0.000 0.000 0.000
v -0.72198 0.89172 2.38698 0.000 0.000 0.000
v -0.73116 0.90774 2.52774 0.000 0.000 0.000
v -0.69480 0.84474 2.25594 0.000 0.000 0.000
v -0.65430 1.10556 3.10302 0.000 0.000 0.000
v -0.71190 1.20510 3.08772 0.000 0.000 0.000
v -0.65826 1.11222 3.13218 0.000 0.000 0.000
v -0.60084 1.01268 3.14730 0.000 0.000 0.000
v -0.64908 1.09620 3.12138 0.000 0.000 0.000
v -0.66366 1.12158 3.11364 0.000 0.000 0.000
v -0.67122 1.13472 3.22848 0.000 0.000 0.000
v -0.64152 1.08306 3.00654 0.000 0.000 0.000
v -0.70002 0.93204 3.22560 0.000 0.000 0.000
v -0.81648 1.13418 3.19500 0.000 0.000 0.000
v -0.70794 0.94590 3.28482 0.000 0.000 0.000
v -0.59130 0.74376 3.31560 0.000 0.000 0.000
v -0.68904 0.91332 3.26322 0.000 0.000 0.000
v -0.71874 0.96462 3.24738 0.000 0.000 0.000
v -0.73404 0.99126 3.48066 0.000 0.000 0.000
v -0.67374 0.88668 3.02994 0.000 0.000 0.000
v -0.63126 0.91134 2.04372 0.000 0.000 0.000
v -0.67986 0.99540 2.03094 0.000 0.000 0.000
v -0.63468 0.91710 2.06838 0.000 0.000 0.000
v -0.58608 0.83304 2.08116 0.000 0.000 0.000
v -0.62676 0.90342 2.05938 0.000 0.000 0.000
v -0.63918 0.92484 2.05272 0.000 0.000 0.000
v -0.64548 0.93600 2.14992 0.000 0.000 0.000
v -0.62046 0.89244 1.96236 0.000 0.000 0.000
v -0.98082 1.39896 3.67326 0.000 0.000 0.000
v -1.02474 1.47492 3.66174 0.000 0.000 0.000
v -0.98370 1.40418 3.69558 0.000 0.000 0.000
v -0.93978 1.32804 3.70728 0.000 0.000 0.000
v -0.97668 1.39176 3.68748 0.000 0.000 0.000
v -0.98784 1.41120 3.68154 0.000 0.000 0.000
v -0.99360 1.42128 3.76938 0.000 0.000 0.000
v -0.97092 1.38186 3.59964 0.000 0.000 0.000
v -0.58374 0.75060 2.46888 0.000 0.000 0.000
v -0.65412 0.87228 2.45034 0.000 0.000 0.000
v -0.58860 0.75888 2.50470 0.000 0.000 0.000
v -0.51822 0.63702 2.52324 0.000 0.000 0.000
v -0.57726 0.73926 2.49156 0.000 0.000 0.000
v -0.59508 0.77022 2.48202 0.000 0.000 0.000
v -0.60444 0.78624 2.62260 0.000 0.000 0.000
v -0.56790 0.72306 2.35098 0.000 0.000 0.000
v -0.60318 0.80370 2.24910 0.000 0.000 0.000
v -0.67356 0.92556 2.23056 0.000 0.000 0.000
v -0.60786 0.81198 2.28492 0.000 0.000 0.000
v -0.53766 0.69012 2.30346 0.000 0.000 0.000
v -0.59670 0.79236 2.27178 0.000 0.000 0.000
v -0.61452 0.82332 2.26224 0.000 0.000 0.000
v -0.62370 0.83934 2.40282 0.000 0.000 0.000
v -0.58734 0.77634 2.13120 0.000 0.000 0.000
v -0.73764 0.97794 2.49948 0.000 0.000 0.000
v -0.77310 1.03932 2.49012 0.000 0.000 0.000
v -0.74016 0.98208 2.51748 0.000 0.000 0.000
v -0.70470 0.92070 2.52684 0.000 0.000 0.000
v -0.73440 0.97218 2.51100 0.000 0.000 0.000
v -0.74340 0.98784 2.50614 0.000 0.000 0.000
v -0.74808 0.99576 2.57706 0.000 0.000 0.000
v -0.72972 0.96408 2.44008 0.000 0.000 0.000
v -0.55890 -0.65250 3.25584 0.000 0.000 0.000
v -0.55386 -0.64386 3.23856 0.000 0.000 0.000
v -0.54900 -0.63522 3.25584 0.000 0.000 0.000
v -0.65160 -0.70848 3.22344 0.000 0.000 0.000
v -0.63396 -0.69084 3.20904 0.000 0.000 0.000
v -0.63396 -0.69084 3.23784 0.000 0.000 0.000
v -0.68886 -0.98424 2.34918 0.000 0.000 0.000
v -0.68886 -0.98424 2.32938 0.000 0.000 0.000
v -0.68886 -0.96696 2.33928 0.000 0.000 0.000
v -0.91602 -1.05084 3.11832 0.000 0.000 0.000
v -0.90864 -1.05084 3.09060 0.000 0.000 0.000
v -0.88830 -1.05084 3.11094 0.000 0.000 0.000
v -1.03410 -1.04508 3.45798 0.000 0.000 0.000
v -1.02024 -1.04130 3.43296 0.000 0.000 0.000
v -1.00638 -1.03770 3.45798 0.000 0.000 0.000
v -0.70200 -0.91962 3.39804 0.000 0.000 0.000
v -0.70200 -0.91962 3.37590 0.000 0.000 0.000
v -0.71856 -0.90990 3.38688 0.000 0.000 0.000
v -0.90180 -1.20708 2.39670 0.000 0.000 0.000
v -0.89478 -1.19502 2.38266 0.000 0.000 0.000
v -0.89226 -1.19052 2.40174 0.000 0.000 0.000
v -0.88740 -1.22148 3.49254 0.000 0.000 0.000
v -0.87498 -1.19988 3.47814 0.000 0.000 0.000
v -0.87498 -1.19988 3.50694 0.000 0.000 0.000
v -0.74322 -0.83448 2.02752 0.000 0.000 0.000
v -0.72936 -0.81054 2.01996 0.000 0.000 0.000
v -0.73314 -0.81684 2.04786 0.000 0.000 0.000
v -0.73224 -0.71910 1.76814 0.000 0.000 0.000
v -0.71316 -0.71388 1.76814 0.000 0.000 0.000
v -0.72270 -0.71640 1.78542 0.000 0.000 0.000
v -0.54324 -0.90000 2.28024 0.000 0.000 0.000
v -0.54684 -0.90648 2.25252 0.000 0.000 0.000
v -0.53298 -0.88236 2.25990 0.000 0.000 0.000
v -0.51984 -0.75618 3.16080 0.000 0.000 0.000
v -0.51984 -0.75618 3.13200 0.000 0.000 0.000
v -0.49824 -0.76860 3.14640 0.000 0.000 0.000
v -0.58122 -0.84762 1.88262 0.000 0.000 0.000
v -0.58122 -0.84762 1.86048 0.000 0.000 0.000
v -0.59778 -0.83808 1.87146 0.000 0.000 0.000
v -0.63252 -1.06434 2.35620 0.000 0.000 0.000
v -0.63252 -1.05030 2.34216 0.000 0.000 0.000
v -0.63252 -1.04526 2.36124 0.000 0.000 0.000
v -0.99972 -1.29618 3.55842 0.000 0.000 0.000
v -1.00620 -1.27224 3.54402 0.000 0.000 0.000
v -1.00620 -1.27224 3.57282 0.000 0.000 0.000
v -0.82926 -1.00530 3.08340 0.000 0.000 0.000
v -0.80514 -0.99144 3.07602 0.000 0.000 0.000
v -0.81162 -0.99504 3.10374 0.000 0.000 0.000
v -0.70308 -1.09008 2.45790 0.000 0.000 0.000
v -0.70308 -1.06776 2.45790 0.000 0.000 0.000
v -0.70308 -1.07892 2.47716 0.000 0.000 0.000
v -0.74178 -0.95958 3.23676 0.000 0.000 0.000
v -0.73728 -0.95706 3.21768 0.000 0.000 0.000
v -0.72522 -0.95004 3.23172 0.000 0.000 0.000
v -0.80928 -1.07226 2.47644 0.000 0.000 0.000
v -0.79164 -1.06218 2.45610 0.000 0.000 0.000
v -0.78516 -1.05840 2.48382 0.000 0.000 0.000
v -0.65538 -0.95742 2.59290 0.000 0.000 0.000
v -0.64422 -0.95742 2.57382 0.000 0.000 0.000
v -0.63324 -0.95742 2.59290 0.000 0.000 0.000
v -0.47664 -0.50994 3.10968 0.000 0.000 0.000
v -0.46224 -0.48492 3.10968 0.000 0.000 0.000
v -0.46944 -0.49752 3.13470 0.000 0.000 0.000
v -0.81684 -0.99810 2.73330 0.000 0.000 0.000
v -0.82332 -1.00188 2.70558 0.000 0.000 0.000
v -0.79920 -0.98802 2.71296 0.000 0.000 0.000
v -1.01088 -1.06020 2.58894 0.000 0.000 0.000
v -1.00386 -1.04814 2.57490 0.000 0.000 0.000
v -1.00134 -1.04364 2.59416 0.000 0.000 0.000
v -0.64116 -1.15020 3.59766 0.000 0.000 0.000
v -0.65358 -1.12860 3.58326 0.000 0.000 0.000
v -0.65358 -1.12860 3.61206 0.000 0.000 0.000
v -1.04436 -1.16964 2.26548 0.000 0.000 0.000
v -1.04436 -1.14192 2.25810 0.000 0.000 0.000
v -1.04436 -1.14930 2.28582 0.000 0.000 0.000
v -0.83646 -1.01538 2.30454 0.000 0.000 0.000
v -0.82260 -0.99162 2.29626 0.000 0.000 0.000
v -0.82584 -0.99720 2.32416 0.000 0.000 0.000
v -0.91818 -1.26504 3.42882 0.000 0.000 0.000
v -0.90180 -1.25550 3.41712 0.000 0.000 0.000
v -0.90126 -1.25514 3.43926 0.000 0.000 0.000
v -0.85986 -1.17378 2.77866 0.000 0.000 0.000
v -0.84618 -1.15002 2.77020 0.000 0.000 0.000
v -0.84942 -1.15560 2.79828 0.000 0.000 0.000
v -0.84402 -0.92646 1.99674 0.000 0.000 0.000
v -0.84726 -0.93204 1.97550 0.000 0.000 0.000
v -0.83646 -0.91350 1.98054 0.000 0.000 0.000
v -0.86472 -1.33020 3.49920 0.000 0.000 0.000
v -0.85014 -1.32174 3.48858 0.000 0.000 0.000
v -0.84942 -1.32138 3.50838 0.000 0.000 0.000
v -0.85950 -0.97686 3.02220 0.000 0.000 0.000
v -0.84960 -0.95994 3.00114 0.000 0.000 0.000
v -0.84546 -0.95256 3.02868 0.000 0.000 0.000
v -0.79920 -0.89946 2.84202 0.000 0.000 0.000
v -0.79560 -0.88632 2.81646 0.000 0.000 0.000
v -0.79164 -0.87156 2.84094 0.000 0.000 0.000
v -0.76806 -1.21104 3.40524 0.000 0.000 0.000
v -0.75582 -1.18980 3.38994 0.000 0.000 0.000
v -0.75528 -1.18890 3.41874 0.000 0.000 0.000
v -0.87462 -0.76374 1.92672 0.000 0.000 0.000
v -0.86220 -0.74214 1.91232 0.000 0.000 0.000
v -0.86220 -0.74214 1.94112 0.000 0.000 0.000
v -0.86076 -0.84168 2.05722 0.000 0.000 0.000
v -0.85392 -0.82998 2.03166 0.000 0.000 0.000
v -0.84636 -0.81684 2.05614 0.000 0.000 0.000
v -0.65052 -1.08594 2.13642 0.000 0.000 0.000
v -0.65052 -1.08594 2.10762 0.000 0.000 0.000
v -0.63810 -1.06434 2.12202 0.000 0.000 0.000
v -0.54414 -0.74664 1.92060 0.000 0.000 0.000
v -0.54414 -0.74664 1.89180 0.000 0.000 0.000
v -0.52002 -0.74016 1.90620 0.000 0.000 0.000
v -0.87048 -1.26450 3.45942 0.000 0.000 0.000
v -0.87408 -1.25100 3.44538 0.000 0.000 0.000
v -0.87534 -1.24596 3.46446 0.000 0.000 0.000
v -0.67086 -0.86040 3.32640 0.000 0.000 0.000
v -0.67086 -0.83988 3.30606 0.000 0.000 0.000
v -0.67086 -0.83250 3.33396 0.000 0.000 0.000
v -0.71586 -0.82620 2.99088 0.000 0.000 0.000
v -0.72594 -0.84384 2.97054 0.000 0.000 0.000
v -0.72972 -0.85032 2.99826 0.000 0.000 0.000
v -0.69372 -0.77922 2.70810 0.000 0.000 0.000
v -0.69372 -0.77922 2.68830 0.000 0.000 0.000
v -0.69372 -0.79650 2.69820 0.000 0.000 0.000
v -0.74214 -0.55440 2.66994 0.000 0.000 0.000
v -0.75600 -0.55800 2.64492 0.000 0.000 0.000
v -0.76986 -0.56178 2.66994 0.000 0.000 0.000
v -0.61830 -0.79470 2.82906 0.000 0.000 0.000
v -0.62622 -0.80820 2.81340 0.000 0.000 0.000
v -0.62910 -0.81324 2.83482 0.000 0.000 0.000
v -0.65574 -0.66366 2.43180 0.000 0.000 0.000
v -0.65574 -0.66366 2.40966 0.000 0.000 0.000
v -0.63900 -0.67320 2.42064 0.000 0.000 0.000
v -0.74988 -0.69912 2.71512 0.000 0.000 0.000
v -0.74988 -0.71316 2.70108 0.000 0.000 0.000
v -0.74988 -0.71820 2.72016 0.000 0.000 0.000
v -0.58680 -0.82044 3.04506 0.000 0.000 0.000
v -0.58032 -0.84456 3.03066 0.000 0.000 0.000
v -0.58032 -0.84456 3.05946 0.000 0.000 0.000
v -0.57204 -0.79056 2.53404 0.000 0.000 0.000
v -0.59616 -0.80460 2.52666 0.000 0.000 0.000
v -0.58968 -0.80082 2.55438 0.000 0.000 0.000
v -0.63792 -0.65160 2.55366 0.000 0.000 0.000
v -0.64908 -0.65160 2.53458 0.000 0.000 0.000
v -0.66006 -0.65160 2.55366 0.000 0.000 0.000
v -0.76068 -0.71388 2.63052 0.000 0.000 0.000
v -0.76068 -0.71388 2.60838 0.000 0.000 0.000
v -0.75582 -0.73242 2.61936 0.000 0.000 0.000
v -0.49428 -0.70956 2.80278 0.000 0.000 0.000
v -0.49770 -0.72270 2.77722 0.000 0.000 0.000
v -0.50166 -0.73746 2.80170 0.000 0.000 0.000
v -0.54900 0.63522 3.25584 0.000 0.000 0.000
v -0.55386 0.64386 3.23856 0.000 0.000 0.000
v -0.55890 0.65250 3.25584 0.000 0.000 0.000
v -0.63396 0.69084 3.23784 0.000 0.000 0.000
v -0.63396 0.69084 3.20904 0.000 0.000 0.000
v -0.65160 0.70848 3.22344 0.000 0.000 0.000
v -0.68886 0.96696 2.33928 0.000 0.000 0.000
v -0.68886 0.98424 2.32938 0.000 0.000 0.000
v -0.68886 0.98424 2.34918 0.000 0.000 0.000
v -0.88830 1.05084 3.11094 0.000 0.000 0.000
v -0.90864 1.05084 3.09060 0.000 0.000 0.000
v -0.91602 1.05084 3.11832 0.000 0.000 0.000
v -1.00638 1.03770 3.45798 0.000 0.000 0.000
v -1.02024 1.04130 3.43296 0.000 0.000 0.000
v -1.03410 1.04508 3.45798 0.000 0.000 0.000
v -0.71856 0.90990 3.38688 0.000 0.000 0.000
v -0.70200 0.91962 3.37590 0.000 0.000 0.000
v -0.70200 0.91962 3.39804 0.000 0.000 0.000
v -0.89226 1.19052 2.40174 0.000 0.000 0.000
v -0.89478 1.19502 2.38266 0.000 0.000 0.000
v -0.90180 1.20708 2.39670 0.000 0.000 0.000
v -0.87498 1.19988 3.50694 0.000 0.000 0.000
v -0.87498 1.19988 3.47814 0.000 0.000 0.000
v -0.88740 1.22148 3.49254 0.000 0.000 0.000
v -0.73314 0.81684 2.04786 0.000 0.000 0.000
v -0.72936 0.81054 2.01996 0.000 0.000 0.000
v -0.74322 0.83448 2.02752 0.000 0.000 0.000
v -0.72270 0.71640 1.78542 0.000 0.000 0.000
v -0.71316 0.71388 1.76814 0.000 0.000 0.000
v -0.73224 0.71910 1.76814 0.000 0.000 0.000
v -0.53298 0.88236 2.25990 0.000 0.000 0.000
v -0.54684 0.90648 2.25252 0.000 0.000 0.000
v -0.54324 0.90000 2.28024 0.000 0.000 0.000
v -0.49824 0.76860 3.14640 0.000 0.000 0.000
v -0.51984 0.75618 3.13200 0.000 0.000 0.000
v -0.51984 0.75618 3.16080 0.000 0.000 0.000
v -0.59778 0.83808 1.87146 0.000 0.000 0.000
v -0.58122 0.84762 1.86048 0.000 0.000 0.000
v -0.58122 0.84762 1.88262 0.000 0.000 0.000
v -0.63252 1.04526 2.36124 0.000 0.000 0.000
v -0.63252 1.05030 2.34216 0.000 0.000 0.000
v -0.63252 1.06434 2.35620 0.000 0.000 0.000
v -1.00620 1.27224 3.57282 0.000 0.000 0.000
v -1.00620 1.27224 3.54402 0.000 0.000 0.000
v -0.99972 1.29618 3.55842 0.000 0.000 0.000
v -0.81162 0.99504 3.10374 0.000 0.000 0.000
v -0.80514 0.99144 3.07602 0.000 0.000 0.000
v -0.82926 1.00530 3.08340 0.000 0.000 0.000
v -0.70308 1.07892 2.47716 0.000 0.000 0.000
v -0.70308 1.06776 2.45790 0.000 0.000 0.000
v -0.70308 1.09008 2.45790 0.000 0.000 0.000
v -0.72522 0.95004 3.23172 0.000 0.000 0.000
v -0.73728 0.95706 3.21768 0.000 0.000 0.000
v -0.74178 0.95958 3.23676 0.000 0.000 0.000
v -0.78516 1.05840 2.48382 0.000 0.000 0.000
v -0.79164 1.06218 2.45610 0.000 0.000 0.000
v -0.80928 1.07226 2.47644 0.000 0.000 0.000
v -0.63324 0.95742 2.59290 0.000 0.000 0.000
v -0.64422 0.95742 2.57382 0.000 0.000 0.000
v -0.65538 0.95742 2.59290 0.000 0.000 0.000
v -0.46944 0.49752 3.13470 0.000 0.000 0.000
v -0.46224 0.48492 3.10968 0.000 0.000 0.000
v -0.47664 0.50994 3.10968 0.000 0.000 0.000
v -0.79920 0.98802 2.71296 0.000 0.000 0.000
v -0.82332 1.00188 2.70558 0.000 0.000 0.000
v -0.81684 0.99810 2.73330 0.000 0.000 0.000
v -1.00134 1.04364 2.59416 0.000 0.000 0.000
v -1.00386 1.04814 2.57490 0.000 0.000 0.000
v -1.01088 1.06020 2.58894 0.000 0.000 0.000
v -0.65358 1.12860 3.61206 0.000 0.000 0.000
v -0.65358 1.12860 3.58326 0.000 0.000 0.000
v -0.64116 1.15020 3.59766 0.000 0.000 0.000
v -1.04436 1.14930 2.28582 0.000 0.000 0.000
v -1.04436 1.14192 2.25810 0.000 0.000 0.000
v -1.04436 1.16964 2.26548 0.000 0.000 0.000
v -0.82584 0.99720 2.32416 0.000 0.000 0.000
v -0.82260 0.99162 2.29626 0.000 0.000 0.000
v -0.83646 1.01538 2.30454 0.000 0.000 0.000
v -0.90126 1.25514 3.43926 0.000 0.000 0.000
v -0.90180 1.25550 3.41712 0.000 0.000 0.000
v -0.91818 1.26504 3.42882 0.000 0.000 0.000
v -0.84942 1.15560 2.79828 0.000 0.000 0.000
v -0.84618 1.15002 2.77020 0.000 0.000 0.000
v -0.85986 1.17378 2.77866 0.000 0.000 0.000
v -0.83646 0.91350 1.98054 0.000 0.000 0.000
v -0.84726 0.93204 1.97550 0.000 0.000 0.000
v -0.84402 0.92646 1.99674 0.000 0.000 0.000
v -0.84942 1.32138 3.50838 0.000 0.000 0.000
v -0.85014 1.32174 3.48858 0.000 0.000 0.000
v -0.86472 1.33020 3.49920 0.000 0.000 0.000
v -0.84546 0.95256 3.02868 0.000 0.000 0.000
v -0.84960 0.95994 3.00114 0.000 0.000 0.000
v -0.85950 0.97686 3.02220 0.000 0.000 0.000
v -0.79164 0.87156 2.84094 0.000 0.000 0.000
v -0.79560 0.88632 2.81646 0.000 0.000 0.000
v -0.79920 0.89946 2.84202 0.000 0.000 0.000
v -0.75528 1.18890 3.41874 0.000 0.000 0.000
v -0.75582 1.18980 3.38994 0.000 0.000 0.000
v -0.76806 1.21104 3.40524 0.000 0.000 0.000
v -0.86220 0.74214 1.94112 0.000 0.000 0.000
v -0.86220 0.74214 1.91232 0.000 0.000 0.000
v -0.87462 0.76374 1.92672 0.000 0.000 0.000
v -0.84636 0.81684 2.05614 0.000 0.000 0.000
v -0.85392 0.82998 2.03166 0.000 0.000 0.000
v -0.86076 0.84168 2.05722 0.000 0.000 0.000
v -0.63810 1.06434 2.12202 0.000 0.000 0.000
v -0.65052 1.08594 2.10762 0.000 0.000 0.000
v -0.65052 1.08594 2.13642 0.000 0.000 0.000
v -0.52002 0.74016 1.90620 0.000 0.000 0.000
v -0.54414 0.74664 1.89180 0.000 0.000 0.000
v -0.54414 0.74664 1.92060 0.000 0.000 0.000
v -0.87534 1.24596 3.46446 0.000 0.000 0.000
v -0.87408 1.25100 3.44538 0.000 0.000 0.000
v -0.87048 1.26450 3.45942 0.000 0.000 0.000
v -0.67086 0.83250 3.33396 0.000 0.000 0.000
v -0.67086 0.83988 3.30606 0.000 0.000 0.000
v -0.67086 0.86040 3.32640 0.000 0.000 0.000
v -0.72972 0.85032 2.99826 0.000 0.000 0.000
v -0.72594 0.84384 2.97054 0.000 0.000 0.000
v -0.71586 0.82620 2.99088 0.000 0.000 0.000
v -0.69372 0.79650 2.69820 0.000 0.000 0.000
v -0.69372 0.77922 2.68830 0.000 0.000 0.000
v -0.69372 0.77922 2.70810 0.000 0.000 0.000
v -0.76986 0.56178 2.66994 0.000 0.000 0.000
v -0.75600 0.55800 2.64492 0.000 0.000 0.000
v -0.74214 0.55440 2.66994 0.000 0.000 0.000
v -0.62910 0.81324 2.83482 0.000 0.000 0.000
v -0.62622 0.80820 2.81340 0.000 0.000 0.000
v -0.61830 0.79470 2.82906 0.000 0.000 0.000
v -0.63900 0.67320 2.42064 0.000 0.000 0.000
v -0.65574 0.66366 2.40966 0.000 0.000 0.000
v -0.65574 0.66366 2.43180 0.000 0.000 0.000
v -0.74988 0.71820 2.72016 0.000 0.000 0.000
v -0.74988 0.71316 2.70108 0.000 0.000 0.000
v -0.74988 0.69912 2.71512 0.000 0.000 0.000
v -0.58032 0.84456 3.05946 0.000 0.000 0.000
v -0.58032 0.84456 3.03066 0.000 0.000 0.000
v -0.58680 0.82044 3.04506 0.000 0.000 0.000
v -0.58968 0.80082 2.55438 0.000 0.000 0.000
v -0.59616 0.80460 2.52666 0.000 0.000 0.000
v -0.57204 0.79056 2.53404 0.000 0.000 0.000
v -0.66006 0.65160 2.55366 0.000 0.000 0.000
v -0.64908 0.65160 2.53458 0.000 0.000 0.000
v -0.63792 0.65160 2.55366 0.000 0.000 0.000
v -0.75582 0.73242 2.61936 0.000 0.000 0.000
v -0.76068 0.71388 2.60838 0.000 0.000 0.000
v -0.76068 0.71388 2.63052 0.000 0.000 0.000
v -0.50166 0.73746 2.80170 0.000 0.000 0.000
v -0.49770 0.72270 2.77722 0.000 0.000 0.000
v -0.49428 0.70956 2.80278 0.000 0.000 0.000
vt 0.05469 0.89844
vt 0.02344 0.89844
vt 0.03906 0.92969
vt 0.19531 0.89844
vt 0.16406 0.89844
vt 0.17969 0.92969
vt 0.30469 0.89844
vt 0.27344 0.89844
vt 0.28906 0.92969
vt 0.03906 0.92969
vt 0.05469 0.89844
vt 0.02344 0.89844
vt 0.16406 0.92969
vt 0.17969 0.89844
vt 0.14844 0.89844
vt 0.16406 0.92969
vt 0.17969 0.89844
vt 0.14844 0.89844
vt 0.19531 0.92969
vt 0.21094 0.89844
vt 0.17969 0.89844
vt 0.24219 0.92969
vt 0.25781 0.89844
vt 0.22656 0.89844
vt 0.32031 0.89844
vt 0.28906 0.89844
vt 0.30469 0.92969
vt 0.16406 0.89844
vt 0.13281 0.89844
vt 0.14844 0.92969
vt 0.30469 0.89844
vt 0.33594 0.89844
vt 0.32031 0.92969
vt 0.05469 0.89844
vt 0.03906 0.92969
vt 0.02344 0.89844
vt 0.33594 0.89844
vt 0.32031 0.92969
vt 0.30469 0.89844
vt 0.13281 0.92969
vt 0.14844 0.89844
vt 0.11719 0.89844
vt 0.03906 0.89844
vt 0.00781 0.89844
vt 0.02344 0.92969
vt 0.03906 0.92969
vt 0.02344 0.89844
vt 0.05469 0.89844
vt 0.17969 0.92969
vt 0.16406 0.89844
vt 0.19531 0.89844
vt 0.28906 0.92969
vt 0.27344 0.89844
vt 0.30469 0.89844
vt 0.02344 0.89844
vt 0.05469 0.89844
vt 0.03906 0.92969
vt 0.14844 0.89844
vt 0.17969 0.89844
vt 0.16406 0.92969
vt 0.14844 0.89844
vt 0.17969 0.89844
vt 0.16406 0.92969
vt 0.17969 0.89844
vt 0.21094 0.89844
vt 0.19531 0.92969
vt 0.22656 0.89844
vt 0.25781 0.89844
vt 0.24219 0.92969
vt 0.30469 0.92969
vt 0.28906 0.89844
vt 0.32031 0.89844
vt 0.14844 0.92969
vt 0.13281 0.89844
vt 0.16406 0.89844
vt 0.32031 0.92969
vt 0.33594 0.89844
vt 0.30469 0.89844
vt 0.02344 0.89844
vt 0.03906 0.92969
vt 0.05469 0.89844
vt 0.30469 0.89844
vt 0.32031 0.92969
vt 0.33594 0.89844
vt 0.11719 0.89844
vt 0.14844 0.89844
vt 0.13281 0.92969
vt 0.02344 0.92969
vt 0.00781 0.89844
vt 0.03906 0.89844
vt 0.25781 0.03906
vt 0.24219 0.00781
vt 0.21094 0.05469
vt 0.25781 0.08594
vt 0.19531 0.08594
vt 0.22656 0.24219
vt 0.14844 0.17969
vt 0.13281 0.10156
vt 0.17969 0.05469
vt 0.02344 0.13281
vt 0.02344 0.11719
vt 0.00781 0.11719
vt 0.32031 0.10156
vt 0.30469 0.03906
vt 0.36719 0.00781
vt 0.25781 0.36719
vt 0.42969 0.22656
vt 0.39844 0.13281
vt 0.47656 0.10156
vt 0.58594 0.13281
vt 0.38281 0.05469
vt 0.47656 0.03906
vt 0.25781 0.44531
vt 0.27344 0.46094
vt 0.50781 0.28906
vt 0.57031 0.19531
vt 0.61719 0.25781
vt 0.71094 0.22656
vt 0.57031 0.49219
vt 0.58594 0.38281
vt 0.66406 0.52344
vt 0.72656 0.44531
vt 0.85156 0.57031
vt 0.63281 0.30469
vt 0.67969 0.39844
vt 0.78906 0.38281
vt 0.50781 0.57031
vt 0.77344 0.64844
vt 0.75781 0.75781
vt 0.89844 0.80469
vt 0.94531 0.89844
vt 0.74219 0.77344
vt 0.97656 0.99219
vt 0.49219 0.58594
vt 0.25781 0.47656
vt 0.24219 0.46094
vt 0.24219 0.38281
vt 0.21094 0.25781
vt 0.13281 0.19531
vt 0.02344 0.14844
vt 0.00781 0.13281
vt 0.00781 0.11719
vt 0.83594 0.07031
vt 0.64844 0.03906
vt 0.75781 0.14844
vt 0.92969 0.16406
vt 0.96094 0.30469
vt 0.83594 0.07031
vt 0.64844 0.03906
vt 0.75781 0.14844
vt 0.92969 0.16406
vt 0.94531 0.24219
vt 0.96094 0.30469
vt 0.75781 0.14844
vt 0.83594 0.07031
vt 0.64844 0.03906
vt 0.92969 0.16406
vt 0.96094 0.30469
vt 0.83594 0.07031
vt 0.64844 0.03906
vt 0.75781 0.14844
vt 0.92969 0.16406
vt 0.96094 0.30469
vt 0.75781 0.14844
vt 0.83594 0.07031
vt 0.64844 0.03906
vt 0.92969 0.16406
vt 0.96094 0.30469
vt 0.75781 0.14844
vt 0.83594 0.07031
vt 0.64844 0.03906
vt 0.92969 0.16406
vt 0.96094 0.30469
vt 0.21094 0.05469
vt 0.24219 0.00781
vt 0.25781 0.03906
vt 0.25781 0.08594
vt 0.19531 0.08594
vt 0.22656 0.24219
vt 0.14844 0.17969
vt 0.13281 0.10156
vt 0.17969 0.05469
vt 0.02344 0.13281
vt 0.02344 0.11719
vt 0.00781 0.11719
vt 0.32031 0.10156
vt 0.30469 0.03906
vt 0.36719 0.00781
vt 0.25781 0.36719
vt 0.42969 0.22656
vt 0.39844 0.13281
vt 0.47656 0.10156
vt 0.58594 0.13281
vt 0.38281 0.05469
vt 0.47656 0.03906
vt 0.25781 0.44531
vt 0.27344 0.46094
vt 0.50781 0.28906
vt 0.57031 0.19531
vt 0.61719 0.25781
vt 0.71094 0.22656
vt 0.57031 0.49219
vt 0.58594 0.38281
vt 0.66406 0.52344
vt 0.72656 0.44531
vt 0.85156 0.57031
vt 0.63281 0.30469
vt 0.67969 0.39844
vt 0.78906 0.38281
vt 0.50781 0.57031
vt 0.77344 0.64844
vt 0.75781 0.75781
vt 0.89844 0.80469
vt 0.74219 0.77344
vt 0.49219 0.58594
vt 0.25781 0.47656
vt 0.24219 0.46094
vt 0.24219 0.38281
vt 0.21094 0.25781
vt 0.13281 0.19531
vt 0.02344 0.14844
vt 0.00781 0.13281
vt 0.00781 0.11719
vt 0.94531 0.89844
vt 0.97656 0.99219
vt 0.75781 0.14844
vt 0.64844 0.03906
vt 0.83594 0.07031
vt 0.92969 0.16406
vt 0.96094 0.30469
vt 0.75781 0.14844
vt 0.64844 0.03906
vt 0.83594 0.07031
vt 0.92969 0.16406
vt 0.94531 0.24219
vt 0.96094 0.30469
vt 0.64844 0.03906
vt 0.83594 0.07031
vt 0.75781 0.14844
vt 0.92969 0.16406
vt 0.96094 0.30469
vt 0.75781 0.14844
vt 0.64844 0.03906
vt 0.83594 0.07031
vt 0.92969 0.16406
vt 0.96094 0.30469
vt 0.64844 0.03906
vt 0.83594 0.07031
vt 0.75781 0.14844
vt 0.92969 0.16406
vt 0.96094 0.30469
vt 0.64844 0.03906
vt 0.83594 0.07031
vt 0.75781 0.14844
vt 0.92969 0.16406
vt 0.96094 0.30469
vt 0.22656 0.85156
vt 0.25781 0.85156
vt 0.22656 0.99219
vt 0.25781 0.99219
vt 0.30469 0.99219
vt 0.30469 0.85156
vt 0.25781 0.85156
vt 0.25781 0.99219
vt 0.22656 0.99219
vt 0.22656 0.85156
vt 0.25781 0.85156
vt 0.25781 0.99219
vt 0.30469 0.99219
vt 0.30469 0.85156
vt 0.25781 0.85156
vt 0.25781 0.99219
vt 0.35156 0.85156
vt 0.24219 0.91406
vt 0.35156 0.99219
vt 0.24219 0.91406
vt 0.24219 0.91406
vt 0.35156 0.99219
vt 0.35156 0.85156
vt 0.24219 0.91406
vt 0.17969 0.85156
vt 0.21094 0.85156
vt 0.17969 0.99219
vt 0.21094 0.99219
vt 0.25781 0.99219
vt 0.25781 0.85156
vt 0.21094 0.85156
vt 0.21094 0.99219
vt 0.17969 0.99219
vt 0.17969 0.85156
vt 0.21094 0.85156
vt 0.21094 0.99219
vt 0.25781 0.99219
vt 0.25781 0.85156
vt 0.21094 0.85156
vt 0.21094 0.99219
vt 0.17969 0.85156
vt 0.07031 0.91406
vt 0.17969 0.99219
vt 0.07031 0.91406
vt 0.07031 0.91406
vt 0.17969 0.99219
vt 0.17969 0.85156
vt 0.07031 0.91406
vt 0.00781 0.85156
vt 0.03906 0.85156
vt 0.00781 0.99219
vt 0.03906 0.99219
vt 0.08594 0.99219
vt 0.08594 0.85156
vt 0.03906 0.85156
vt 0.03906 0.99219
vt 0.00781 0.99219
vt 0.00781 0.85156
vt 0.03906 0.85156
vt 0.03906 0.99219
vt 0.08594 0.99219
vt 0.08594 0.85156
vt 0.03906 0.85156
vt 0.03906 0.99219
vt 0.11719 0.85156
vt 0.00781 0.91406
vt 0.11719 0.99219
vt 0.00781 0.91406
vt 0.00781 0.91406
vt 0.11719 0.99219
vt 0.11719 0.85156
vt 0.00781 0.91406
vt 0.05469 0.85156
vt 0.08594 0.85156
vt 0.05469 0.99219
vt 0.08594 0.99219
vt 0.13281 0.99219
vt 0.13281 0.85156
vt 0.08594 0.85156
vt 0.08594 0.99219
vt 0.05469 0.99219
vt 0.05469 0.85156
vt 0.08594 0.85156
vt 0.08594 0.99219
vt 0.13281 0.99219
vt 0.13281 0.85156
vt 0.08594 0.85156
vt 0.08594 0.99219
vt 0.36719 0.85156
vt 0.25781 0.91406
vt 0.36719 0.99219
vt 0.25781 0.91406
vt 0.25781 0.91406
vt 0.36719 0.99219
vt 0.36719 0.85156
vt 0.25781 0.91406
vt 0.30469 0.85156
vt 0.19531 0.91406
vt 0.30469 0.99219
vt 0.19531 0.91406
vt 0.19531 0.91406
vt 0.30469 0.99219
vt 0.30469 0.85156
vt 0.19531 0.91406
vt 0.28906 0.85156
vt 0.17969 0.91406
vt 0.28906 0.99219
vt 0.17969 0.91406
vt 0.17969 0.91406
vt 0.28906 0.99219
vt 0.28906 0.85156
vt 0.17969 0.91406
vt 0.33594 0.85156
vt 0.22656 0.91406
vt 0.33594 0.99219
vt 0.22656 0.91406
vt 0.22656 0.91406
vt 0.33594 0.99219
vt 0.33594 0.85156
vt 0.22656 0.91406
vt 0.13281 0.85156
vt 0.02344 0.91406
vt 0.13281 0.99219
vt 0.02344 0.91406
vt 0.02344 0.91406
vt 0.13281 0.99219
vt 0.13281 0.85156
vt 0.02344 0.91406
vt 0.16406 0.85156
vt 0.05469 0.91406
vt 0.16406 0.99219
vt 0.05469 0.91406
vt 0.05469 0.91406
vt 0.16406 0.99219
vt 0.16406 0.85156
vt 0.05469 0.91406
vt 0.11719 0.85156
vt 0.00781 0.91406
vt 0.11719 0.99219
vt 0.00781 0.91406
vt 0.00781 0.91406
vt 0.11719 0.99219
vt 0.11719 0.85156
vt 0.00781 0.91406
vt 0.25781 0.85156
vt 0.14844 0.91406
vt 0.25781 0.99219
vt 0.14844 0.91406
vt 0.14844 0.91406
vt 0.25781 0.99219
vt 0.25781 0.85156
vt 0.14844 0.91406
vt 0.22656 0.99219
vt 0.25781 0.85156
vt 0.22656 0.85156
vt 0.25781 0.99219
vt 0.30469 0.99219
vt 0.30469 0.85156
vt 0.25781 0.85156
vt 0.25781 0.99219
vt 0.22656 0.99219
vt 0.22656 0.85156
vt 0.25781 0.85156
vt 0.25781 0.99219
vt 0.30469 0.99219
vt 0.30469 0.85156
vt 0.25781 0.85156
vt 0.25781 0.99219
vt 0.35156 0.99219
vt 0.24219 0.91406
vt 0.35156 0.85156
vt 0.24219 0.91406
vt 0.35156 0.85156
vt 0.35156 0.99219
vt 0.24219 0.91406
vt 0.24219 0.91406
vt 0.17969 0.99219
vt 0.21094 0.85156
vt 0.17969 0.85156
vt 0.21094 0.99219
vt 0.25781 0.99219
vt 0.25781 0.85156
vt 0.21094 0.85156
vt 0.21094 0.99219
vt 0.17969 0.99219
vt 0.17969 0.85156
vt 0.21094 0.85156
vt 0.21094 0.99219
vt 0.25781 0.99219
vt 0.25781 0.85156
vt 0.21094 0.85156
vt 0.21094 0.99219
vt 0.17969 0.99219
vt 0.07031 0.91406
vt 0.17969 0.85156
vt 0.07031 0.91406
vt 0.17969 0.85156
vt 0.17969 0.99219
vt 0.07031 0.91406
vt 0.07031 0.91406
vt 0.00781 0.99219
vt 0.03906 0.85156
vt 0.00781 0.85156
vt 0.03906 0.99219
vt 0.08594 0.99219
vt 0.08594 0.85156
vt 0.03906 0.85156
vt 0.03906 0.99219
vt 0.00781 0.99219
vt 0.00781 0.85156
vt 0.03906 0.85156
vt 0.03906 0.99219
vt 0.08594 0.99219
vt 0.08594 0.85156
vt 0.03906 0.85156
vt 0.03906 0.99219
vt 0.11719 0.99219
vt 0.00781 0.91406
vt 0.11719 0.85156
vt 0.00781 0.91406
vt 0.11719 0.85156
vt 0.11719 0.99219
vt 0.00781 0.91406
vt 0.00781 0.91406
vt 0.05469 0.99219
vt 0.08594 0.85156
vt 0.05469 0.85156
vt 0.08594 0.99219
vt 0.13281 0.99219
vt 0.13281 0.85156
vt 0.08594 0.85156
vt 0.08594 0.99219
vt 0.05469 0.99219
vt 0.05469 0.85156
vt 0.08594 0.85156
vt 0.08594 0.99219
vt 0.13281 0.99219
vt 0.13281 0.85156
vt 0.08594 0.85156
vt 0.08594 0.99219
vt 0.36719 0.99219
vt 0.25781 0.91406
vt 0.36719 0.85156
vt 0.25781 0.91406
vt 0.36719 0.85156
vt 0.36719 0.99219
vt 0.25781 0.91406
vt 0.25781 0.91406
vt 0.30469 0.99219
vt 0.19531 0.91406
vt 0.30469 0.85156
vt 0.19531 0.91406
vt 0.30469 0.85156
vt 0.30469 0.99219
vt 0.19531 0.91406
vt 0.19531 0.91406
vt 0.28906 0.99219
vt 0.17969 0.91406
vt 0.28906 0.85156
vt 0.17969 0.91406
vt 0.28906 0.85156
vt 0.28906 0.99219
vt 0.17969 0.91406
vt 0.17969 0.91406
vt 0.33594 0.99219
vt 0.22656 0.91406
vt 0.33594 0.85156
vt 0.22656 0.91406
vt 0.33594 0.85156
vt 0.33594 0.99219
vt 0.22656 0.91406
vt 0.22656 0.91406
vt 0.13281 0.99219
vt 0.02344 0.91406
vt 0.13281 0.85156
vt 0.02344 0.91406
vt 0.13281 0.85156
vt 0.13281 0.99219
vt 0.02344 0.91406
vt 0.02344 0.91406
vt 0.16406 0.99219
vt 0.05469 0.91406
vt 0.16406 0.85156
vt 0.05469 0.91406
vt 0.16406 0.85156
vt 0.16406 0.99219
vt 0.05469 0.91406
vt 0.05469 0.91406
vt 0.11719 0.99219
vt 0.00781 0.91406
vt 0.11719 0.85156
vt 0.00781 0.91406
vt 0.11719 0.85156
vt 0.11719 0.99219
vt 0.00781 0.91406
vt 0.00781 0.91406
vt 0.25781 0.99219
vt 0.14844 0.91406
vt 0.25781 0.85156
vt 0.14844 0.91406
vt 0.25781 0.85156
vt 0.25781 0.99219
vt 0.14844 0.91406
vt 0.14844 0.91406
vt 0.05469 0.89844
vt 0.02344 0.89844
vt 0.03906 0.92969
vt 0.19531 0.89844
vt 0.16406 0.89844
vt 0.17969 0.92969
vt 0.11719 0.89844
vt 0.08594 0.89844
vt 0.10156 0.92969
vt 0.03906 0.89844
vt 0.00781 0.89844
vt 0.02344 0.92969
vt 0.30469 0.89844
vt 0.27344 0.89844
vt 0.28906 0.92969
vt 0.03906 0.92969
vt 0.05469 0.89844
vt 0.02344 0.89844
vt 0.13281 0.92969
vt 0.14844 0.89844
vt 0.11719 0.89844
vt 0.16406 0.92969
vt 0.17969 0.89844
vt 0.14844 0.89844
vt 0.08594 0.92969
vt 0.10156 0.89844
vt 0.07031 0.89844
vt 0.08594 0.89844
vt 0.05469 0.89844
vt 0.07031 0.92969
vt 0.16406 0.92969
vt 0.17969 0.89844
vt 0.14844 0.89844
vt 0.16406 0.92969
vt 0.17969 0.89844
vt 0.14844 0.89844
vt 0.05469 0.92969
vt 0.07031 0.89844
vt 0.03906 0.89844
vt 0.22656 0.92969
vt 0.24219 0.89844
vt 0.21094 0.89844
vt 0.19531 0.92969
vt 0.21094 0.89844
vt 0.17969 0.89844
vt 0.07031 0.92969
vt 0.08594 0.89844
vt 0.05469 0.89844
vt 0.27344 0.89844
vt 0.24219 0.89844
vt 0.25781 0.92969
vt 0.24219 0.92969
vt 0.25781 0.89844
vt 0.22656 0.89844
vt 0.21094 0.92969
vt 0.22656 0.89844
vt 0.19531 0.89844
vt 0.13281 0.89844
vt 0.10156 0.89844
vt 0.11719 0.92969
vt 0.32031 0.89844
vt 0.28906 0.89844
vt 0.30469 0.92969
vt 0.03906 0.92969
vt 0.05469 0.89844
vt 0.02344 0.89844
vt 0.33594 0.89844
vt 0.30469 0.89844
vt 0.32031 0.92969
vt 0.16406 0.89844
vt 0.13281 0.89844
vt 0.14844 0.92969
vt 0.16406 0.89844
vt 0.13281 0.89844
vt 0.14844 0.92969
vt 0.35156 0.89844
vt 0.33594 0.92969
vt 0.32031 0.89844
vt 0.30469 0.89844
vt 0.33594 0.89844
vt 0.32031 0.92969
vt 0.16406 0.92969
vt 0.14844 0.89844
vt 0.17969 0.89844
vt 0.10156 0.89844
vt 0.13281 0.89844
vt 0.11719 0.92969
vt 0.05469 0.89844
vt 0.03906 0.92969
vt 0.02344 0.89844
vt 0.33594 0.89844
vt 0.32031 0.92969
vt 0.30469 0.89844
vt 0.27344 0.89844
vt 0.25781 0.92969
vt 0.24219 0.89844
vt 0.33594 0.89844
vt 0.32031 0.92969
vt 0.30469 0.89844
vt 0.08594 0.92969
vt 0.10156 0.89844
vt 0.07031 0.89844
vt 0.27344 0.89844
vt 0.25781 0.92969
vt 0.24219 0.89844
vt 0.16406 0.92969
vt 0.17969 0.89844
vt 0.14844 0.89844
vt 0.16406 0.92969
vt 0.17969 0.89844
vt 0.14844 0.89844
vt 0.13281 0.92969
vt 0.14844 0.89844
vt 0.11719 0.89844
vt 0.03906 0.89844
vt 0.00781 0.89844
vt 0.02344 0.92969
vt 0.03906 0.89844
vt 0.00781 0.89844
vt 0.02344 0.92969
vt 0.11719 0.89844
vt 0.08594 0.89844
vt 0.10156 0.92969
vt 0.30469 0.89844
vt 0.27344 0.89844
vt 0.28906 0.92969
vt 0.30469 0.89844
vt 0.27344 0.89844
vt 0.28906 0.92969
vt 0.05469 0.92969
vt 0.07031 0.89844
vt 0.03906 0.89844
vt 0.22656 0.92969
vt 0.24219 0.89844
vt 0.21094 0.89844
vt 0.19531 0.92969
vt 0.21094 0.89844
vt 0.17969 0.89844
vt 0.07031 0.92969
vt 0.08594 0.89844
vt 0.05469 0.89844
vt 0.13281 0.89844
vt 0.10156 0.89844
vt 0.11719 0.92969
vt 0.10156 0.89844
vt 0.07031 0.89844
vt 0.08594 0.92969
vt 0.27344 0.89844
vt 0.25781 0.92969
vt 0.24219 0.89844
vt 0.03906 0.92969
vt 0.02344 0.89844
vt 0.05469 0.89844
vt 0.17969 0.92969
vt 0.16406 0.89844
vt 0.19531 0.89844
vt 0.10156 0.92969
vt 0.08594 0.89844
vt 0.11719 0.89844
vt 0.02344 0.92969
vt 0.00781 0.89844
vt 0.03906 0.89844
vt 0.28906 0.92969
vt 0.27344 0.89844
vt 0.30469 0.89844
vt 0.02344 0.89844
vt 0.05469 0.89844
vt 0.03906 0.92969
vt 0.11719 0.89844
vt 0.14844 0.89844
vt 0.13281 0.92969
vt 0.14844 0.89844
vt 0.17969 0.89844
vt 0.16406 0.92969
vt 0.07031 0.89844
vt 0.10156 0.89844
vt 0.08594 0.92969
vt 0.07031 0.92969
vt 0.05469 0.89844
vt 0.08594 0.89844
vt 0.14844 0.89844
vt 0.17969 0.89844
vt 0.16406 0.92969
vt 0.14844 0.89844
vt 0.17969 0.89844
vt 0.16406 0.92969
vt 0.03906 0.89844
vt 0.07031 0.89844
vt 0.05469 0.92969
vt 0.21094 0.89844
vt 0.24219 0.89844
vt 0.22656 0.92969
vt 0.17969 0.89844
vt 0.21094 0.89844
vt 0.19531 0.92969
vt 0.05469 0.89844
vt 0.08594 0.89844
vt 0.07031 0.92969
vt 0.25781 0.92969
vt 0.24219 0.89844
vt 0.27344 0.89844
vt 0.22656 0.89844
vt 0.25781 0.89844
vt 0.24219 0.92969
vt 0.19531 0.89844
vt 0.22656 0.89844
vt 0.21094 0.92969
vt 0.11719 0.92969
vt 0.10156 0.89844
vt 0.13281 0.89844
vt 0.30469 0.92969
vt 0.28906 0.89844
vt 0.32031 0.89844
vt 0.02344 0.89844
vt 0.05469 0.89844
vt 0.03906 0.92969
vt 0.32031 0.92969
vt 0.30469 0.89844
vt 0.33594 0.89844
vt 0.14844 0.92969
vt 0.13281 0.89844
vt 0.16406 0.89844
vt 0.14844 0.92969
vt 0.13281 0.89844
vt 0.16406 0.89844
vt 0.32031 0.89844
vt 0.33594 0.92969
vt 0.35156 0.89844
vt 0.32031 0.92969
vt 0.33594 0.89844
vt 0.30469 0.89844
vt 0.17969 0.89844
vt 0.14844 0.89844
vt 0.16406 0.92969
vt 0.11719 0.92969
vt 0.13281 0.89844
vt 0.10156 0.89844
vt 0.02344 0.89844
vt 0.03906 0.92969
vt 0.05469 0.89844
vt 0.30469 0.89844
vt 0.32031 0.92969
vt 0.33594 0.89844
vt 0.24219 0.89844
vt 0.25781 0.92969
vt 0.27344 0.89844
vt 0.30469 0.89844
vt 0.32031 0.92969
vt 0.33594 0.89844
vt 0.07031 0.89844
vt 0.10156 0.89844
vt 0.08594 0.92969
vt 0.24219 0.89844
vt 0.25781 0.92969
vt 0.27344 0.89844
vt 0.14844 0.89844
vt 0.17969 0.89844
vt 0.16406 0.92969
vt 0.14844 0.89844
vt 0.17969 0.89844
vt 0.16406 0.92969
vt 0.11719 0.89844
vt 0.14844 0.89844
vt 0.13281 0.92969
vt 0.02344 0.92969
vt 0.00781 0.89844
vt 0.03906 0.89844
vt 0.02344 0.92969
vt 0.00781 0.89844
vt 0.03906 0.89844
vt 0.10156 0.92969
vt 0.08594 0.89844
vt 0.11719 0.89844
vt 0.28906 0.92969
vt 0.27344 0.89844
vt 0.30469 0.89844
vt 0.28906 0.92969
vt 0.27344 0.89844
vt 0.30469 0.89844
vt 0.03906 0.89844
vt 0.07031 0.89844
vt 0.05469 0.92969
vt 0.21094 0.89844
vt 0.24219 0.89844
vt 0.22656 0.92969
vt 0.17969 0.89844
vt 0.21094 0.89844
vt 0.19531 0.92969
vt 0.05469 0.89844
vt 0.08594 0.89844
vt 0.07031 0.92969
vt 0.11719 0.92969
vt 0.10156 0.89844
vt 0.13281 0.89844
vt 0.08594 0.92969
vt 0.07031 0.89844
vt 0.10156 0.89844
vt 0.24219 0.89844
vt 0.25781 0.92969
vt 0.27344 0.89844
usemtl m0
f 1/1 2/2 3/3
f 4/4 5/5 6/6
f 7/7 8/8 9/9
f 10/10 11/11 12/12
f 13/13 14/14 15/15
f 16/16 17/17 18/18
f 19/19 20/20 21/21
f 22/22 23/23 24/24
f 25/25 26/26 27/27
f 28/28 29/29 30/30
f 31/31 32/32 33/33
f 34/34 35/35 36/36
f 37/37 38/38 39/39
f 40/40 41/41 42/42
f 43/43 44/44 45/45
f 46/46 47/47 48/48
f 49/49 50/50 51/51
f 52/52 53/53 54/54
f 55/55 56/56 57/57
f 58/58 59/59 60/60
f 61/61 62/62 63/63
f 64/64 65/65 66/66
f 67/67 68/68 69/69
f 70/70 71/71 72/72
f 73/73 74/74 75/75
f 76/76 77/77 78/78
f 79/79 80/80 81/81
f 82/82 83/83 84/84
f 85/85 86/86 87/87
f 88/88 89/89 90/90
f 91/91 92/92 93/93
f 91/91 93/93 94/94
f 94/94 93/93 95/95
f 94/94 95/95 96/96
f 96/96 95/95 97/97
f 97/97 95/95 98/98
f 95/95 99/99 98/98
f 97/97 98/98 100/100
f 98/98 101/101 100/100
f 100/100 101/101 102/102
f 103/103 94/94 96/96
f 103/103 104/104 94/94
f 103/103 105/105 104/104
f 106/106 103/103 96/96
f 107/107 103/103 106/106
f 108/108 103/103 107/107
f 109/109 108/108 107/107
f 110/110 109/109 107/107
f 108/108 111/111 103/103
f 112/112 111/111 108/108
f 113/113 107/107 106/106
f 114/114 107/107 113/113
f 115/115 107/107 114/114
f 116/116 107/107 115/115
f 117/117 116/116 115/115
f 118/118 116/116 117/117
f 119/119 115/115 114/114
f 120/120 115/115 119/119
f 121/121 120/120 119/119
f 122/122 120/120 121/121
f 123/123 122/122 121/121
f 124/124 115/115 120/120
f 125/125 124/124 120/120
f 126/126 124/124 125/125
f 119/119 114/114 127/127
f 128/128 119/119 127/127
f 128/128 127/127 129/129
f 130/130 128/128 129/129
f 131/131 130/130 129/129
f 129/129 127/127 132/132
f 133/133 129/129 132/132
f 131/131 129/129 133/133
f 132/132 127/127 134/134
f 127/127 114/114 134/134
f 134/134 114/114 135/135
f 114/114 113/113 135/135
f 135/135 113/113 136/136
f 113/113 106/106 136/136
f 136/136 106/106 137/137
f 106/106 96/96 137/137
f 137/137 96/96 138/138
f 96/96 97/97 138/138
f 138/138 97/97 139/139
f 97/97 100/100 139/139
f 139/139 100/100 140/140
f 100/100 102/102 140/140
f 140/140 102/102 141/141
f 102/102 101/101 141/141
f 141/141 101/101 142/142
f 143/143 144/144 145/145
f 146/146 143/143 145/145
f 146/146 145/145 147/147
f 148/148 149/149 150/150
f 151/151 148/148 150/150
f 152/152 151/151 150/150
f 152/152 150/150 153/153
f 154/154 155/155 156/156
f 154/154 157/157 155/155
f 158/158 157/157 154/154
f 159/159 160/160 161/161
f 162/162 159/159 161/161
f 162/162 161/161 163/163
f 164/164 165/165 166/166
f 167/167 165/165 164/164
f 168/168 167/167 164/164
f 169/169 170/170 171/171
f 172/172 170/170 169/169
f 173/173 172/172 169/169
f 174/174 175/175 176/176
f 177/177 174/174 176/176
f 178/178 174/174 177/177
f 179/179 178/178 177/177
f 180/180 178/178 179/179
f 181/181 178/178 180/180
f 181/181 182/182 178/178
f 183/183 181/181 180/180
f 183/183 184/184 181/181
f 185/185 184/184 183/183
f 179/179 177/177 186/186
f 177/177 187/187 186/186
f 187/187 188/188 186/186
f 179/179 186/186 189/189
f 189/189 186/186 190/190
f 190/190 186/186 191/191
f 190/190 191/191 192/192
f 190/190 192/192 193/193
f 186/186 194/194 191/191
f 191/191 194/194 195/195
f 189/189 190/190 196/196
f 196/196 190/190 197/197
f 197/197 190/190 198/198
f 198/198 190/190 199/199
f 198/198 199/199 200/200
f 200/200 199/199 201/201
f 197/197 198/198 202/202
f 202/202 198/198 203/203
f 202/202 203/203 204/204
f 204/204 203/203 205/205
f 204/204 205/205 206/206
f 203/203 198/198 207/207
f 203/203 207/207 208/208
f 208/208 207/207 209/209
f 210/210 197/197 202/202
f 210/210 202/202 211/211
f 212/212 210/210 211/211
f 212/212 211/211 213/213
f 214/214 210/210 212/212
f 215/215 210/210 214/214
f 215/215 197/197 210/210
f 216/216 197/197 215/215
f 216/216 196/196 197/197
f 217/217 196/196 216/216
f 217/217 189/189 196/196
f 218/218 189/189 217/217
f 218/218 179/179 189/189
f 219/219 179/179 218/218
f 219/219 180/180 179/179
f 220/220 180/180 219/219
f 220/220 183/183 180/180
f 221/221 183/183 220/220
f 221/221 185/185 183/183
f 222/222 185/185 221/221
f 222/222 184/184 185/185
f 223/223 184/184 222/222
f 224/224 225/225 212/212
f 224/224 212/212 213/213
f 214/214 212/212 225/225
f 226/226 227/227 228/228
f 226/226 228/228 229/229
f 230/230 226/226 229/229
f 231/231 232/232 233/233
f 231/231 233/233 234/234
f 235/235 231/231 234/234
f 235/235 236/236 231/231
f 237/237 238/238 239/239
f 238/238 240/240 239/239
f 239/239 240/240 241/241
f 242/242 243/243 244/244
f 242/242 244/244 245/245
f 246/246 242/242 245/245
f 247/247 248/248 249/249
f 249/249 248/248 250/250
f 249/249 250/250 251/251
f 252/252 253/253 254/254
f 254/254 253/253 255/255
f 254/254 255/255 256/256
f 257/257 258/258 259/259
f 259/259 258/258 260/260
f 258/258 261/261 260/260
f 258/258 262/262 261/261
f 262/262 263/263 261/261
f 263/263 264/264 261/261
f 263/263 265/265 264/264
f 266/266 265/265 263/263
f 267/267 265/265 266/266
f 268/268 265/265 267/267
f 269/269 268/268 267/267
f 269/269 267/267 270/270
f 271/271 269/269 270/270
f 259/259 271/271 257/257
f 272/272 269/269 271/271
f 272/272 271/271 259/259
f 273/273 274/274 275/275
f 273/273 275/275 276/276
f 277/277 278/278 279/279
f 278/278 280/280 279/279
f 281/281 282/282 283/283
f 283/283 282/282 284/284
f 282/282 285/285 284/284
f 282/282 286/286 285/285
f 286/286 287/287 285/285
f 287/287 288/288 285/285
f 287/287 289/289 288/288
f 290/290 289/289 287/287
f 291/291 289/289 290/290
f 292/292 289/289 291/291
f 293/293 292/292 291/291
f 293/293 291/291 294/294
f 295/295 293/293 294/294
f 283/283 295/295 281/281
f 296/296 293/293 295/295
f 296/296 295/295 283/283
f 297/297 298/298 299/299
f 297/297 299/299 300/300
f 301/301 302/302 303/303
f 302/302 304/304 303/303
f 305/305 306/306 307/307
f 307/307 306/306 308/308
f 306/306 309/309 308/308
f 306/306 310/310 309/309
f 310/310 311/311 309/309
f 311/311 312/312 309/309
f 311/311 313/313 312/312
f 314/314 313/313 311/311
f 315/315 313/313 314/314
f 316/316 313/313 315/315
f 317/317 316/316 315/315
f 317/317 315/315 318/318
f 319/319 317/317 318/318
f 307/307 319/319 305/305
f 320/320 317/317 319/319
f 320/320 319/319 307/307
f 321/321 322/322 323/323
f 321/321 323/323 324/324
f 325/325 326/326 327/327
f 326/326 328/328 327/327
f 329/329 330/330 331/331
f 331/331 330/330 332/332
f 330/330 333/333 332/332
f 330/330 334/334 333/333
f 334/334 335/335 333/333
f 335/335 336/336 333/333
f 335/335 337/337 336/336
f 338/338 337/337 335/335
f 339/339 337/337 338/338
f 340/340 337/337 339/339
f 341/341 340/340 339/339
f 341/341 339/339 342/342
f 343/343 341/341 342/342
f 331/331 343/343 329/329
f 344/344 341/341 343/343
f 344/344 343/343 331/331
f 345/345 346/346 347/347
f 345/345 347/347 348/348
f 349/349 350/350 351/351
f 350/350 352/352 351/351
f 353/353 354/354 355/355
f 353/353 355/355 356/356
f 357/357 358/358 359/359
f 358/358 360/360 359/359
f 361/361 362/362 363/363
f 361/361 363/363 364/364
f 365/365 366/366 367/367
f 366/366 368/368 367/367
f 369/369 370/370 371/371
f 369/369 371/371 372/372
f 373/373 374/374 375/375
f 374/374 376/376 375/375
f 377/377 378/378 379/379
f 377/377 379/379 380/380
f 381/381 382/382 383/383
f 382/382 384/384 383/383
f 385/385 386/386 387/387
f 385/385 387/387 388/388
f 389/389 390/390 391/391
f 390/390 392/392 391/391
f 393/393 394/394 395/395
f 393/393 395/395 396/396
f 397/397 398/398 399/399
f 398/398 400/400 399/399
f 401/401 402/402 403/403
f 401/401 403/403 404/404
f 405/405 406/406 407/407
f 406/406 408/408 407/407
f 409/409 410/410 411/411
f 412/412 410/410 409/409
f 412/412 413/413 410/410
f 413/413 414/414 410/410
f 413/413 415/415 414/414
f 413/413 416/416 415/415
f 416/416 417/417 415/415
f 415/415 417/417 418/418
f 418/418 417/417 419/419
f 419/419 417/417 420/420
f 419/419 420/420 421/421
f 422/422 419/419 421/421
f 422/422 421/421 423/423
f 411/411 423/423 409/409
f 423/423 421/421 424/424
f 409/409 423/423 424/424
f 425/425 426/426 427/427
f 428/428 425/425 427/427
f 429/429 430/430 431/431
f 429/429 432/432 430/430
f 433/433 434/434 435/435
f 436/436 434/434 433/433
f 436/436 437/437 434/434
f 437/437 438/438 434/434
f 437/437 439/439 438/438
f 437/437 440/440 439/439
f 440/440 441/441 439/439
f 439/439 441/441 442/442
f 442/442 441/441 443/443
f 443/443 441/441 444/444
f 443/443 444/444 445/445
f 446/446 443/443 445/445
f 446/446 445/445 447/447
f 435/435 447/447 433/433
f 447/447 445/445 448/448
f 433/433 447/447 448/448
f 449/449 450/450 451/451
f 452/452 449/449 451/451
f 453/453 454/454 455/455
f 453/453 456/456 454/454
f 457/457 458/458 459/459
f 460/460 458/458 457/457
f 460/460 461/461 458/458
f 461/461 462/462 458/458
f 461/461 463/463 462/462
f 461/461 464/464 463/463
f 464/464 465/465 463/463
f 463/463 465/465 466/466
f 466/466 465/465 467/467
f 467/467 465/465 468/468
f 467/467 468/468 469/469
f 470/470 467/467 469/469
f 470/470 469/469 471/471
f 459/459 471/471 457/457
f 471/471 469/469 472/472
f 457/457 471/471 472/472
f 473/473 474/474 475/475
f 476/476 473/473 475/475
f 477/477 478/478 479/479
f 477/477 480/480 478/478
f 481/481 482/482 483/483
f 484/484 482/482 481/481
f 484/484 485/485 482/482
f 485/485 486/486 482/482
f 485/485 487/487 486/486
f 485/485 488/488 487/487
f 488/488 489/489 487/487
f 487/487 489/489 490/490
f 490/490 489/489 491/491
f 491/491 489/489 492/492
f 491/491 492/492 493/493
f 494/494 491/491 493/493
f 494/494 493/493 495/495
f 483/483 495/495 481/481
f 495/495 493/493 496/496
f 481/481 495/495 496/496
f 497/497 498/498 499/499
f 500/500 497/497 499/499
f 501/501 502/502 503/503
f 501/501 504/504 502/502
f 505/505 506/506 507/507
f 508/508 505/505 507/507
f 509/509 510/510 511/511
f 509/509 512/512 510/510
f 513/513 514/514 515/515
f 516/516 513/513 515/515
f 517/517 518/518 519/519
f 517/517 520/520 518/518
f 521/521 522/522 523/523
f 524/524 521/521 523/523
f 525/525 526/526 527/527
f 525/525 528/528 526/526
f 529/529 530/530 531/531
f 532/532 529/529 531/531
f 533/533 534/534 535/535
f 533/533 536/536 534/534
f 537/537 538/538 539/539
f 540/540 537/537 539/539
f 541/541 542/542 543/543
f 541/541 544/544 542/542
f 545/545 546/546 547/547
f 548/548 545/545 547/547
f 549/549 550/550 551/551
f 549/549 552/552 550/550
f 553/553 554/554 555/555
f 556/556 553/553 555/555
f 557/557 558/558 559/559
f 557/557 560/560 558/558
f 561/561 562/562 563/563
f 564/564 565/565 566/566
f 567/567 568/568 569/569
f 570/570 571/571 572/572
f 573/573 574/574 575/575
f 576/576 577/577 578/578
f 579/579 580/580 581/581
f 582/582 583/583 584/584
f 585/585 586/586 587/587
f 588/588 589/589 590/590
f 591/591 592/592 593/593
f 594/594 595/595 596/596
f 597/597 598/598 599/599
f 600/600 601/601 602/602
f 603/603 604/604 605/605
f 606/606 607/607 608/608
f 609/609 610/610 611/611
f 612/612 613/613 614/614
f 615/615 616/616 617/617
f 618/618 619/619 620/620
f 621/621 622/622 623/623
f 624/624 625/625 626/626
f 627/627 628/628 629/629
f 630/630 631/631 632/632
f 633/633 634/634 635/635
f 636/636 637/637 638/638
f 639/639 640/640 641/641
f 642/642 643/643 644/644
f 645/645 646/646 647/647
f 648/648 649/649 650/650
f 651/651 652/652 653/653
f 654/654 655/655 656/656
f 657/657 658/658 659/659
f 660/660 661/661 662/662
f 663/663 664/664 665/665
f 666/666 667/667 668/668
f 669/669 670/670 671/671
f 672/672 673/673 674/674
f 675/675 676/676 677/677
f 678/678 679/679 680/680
f 681/681 682/682 683/683
f 684/684 685/685 686/686
f 687/687 688/688 689/689
f 690/690 691/691 692/692
f 693/693 694/694 695/695
f 696/696 697/697 698/698
f 699/699 700/700 701/701
f 702/702 703/703 704/704
f 705/705 706/706 707/707
f 708/708 709/709 710/710
f 711/711 712/712 713/713
f 714/714 715/715 716/716
f 717/717 718/718 719/719
f 720/720 721/721 722/722
f 723/723 724/724 725/725
f 726/726 727/727 728/728
f 729/729 730/730 731/731
f 732/732 733/733 734/734
f 735/735 736/736 737/737
f 738/738 739/739 740/740
f 741/741 742/742 743/743
f 744/744 745/745 746/746
f 747/747 748/748 749/749
f 750/750 751/751 752/752
f 753/753 754/754 755/755
f 756/756 757/757 758/758
f 759/759 760/760 761/761
f 762/762 763/763 764/764
f 765/765 766/766 767/767
f 768/768 769/769 770/770
f 771/771 772/772 773/773
f 774/774 775/775 776/776
f 777/777 778/778 779/779
f 780/780 781/781 782/782
f 783/783 784/784 785/785
f 786/786 787/787 788/788
f 789/789 790/790 791/791
f 792/792 793/793 794/794
f 795/795 796/796 797/797
f 798/798 799/799 800/800
f 801/801 802/802 803/803
f 804/804 805/805 806/806
f 807/807 808/808 809/809
f 810/810 811/811 812/812
f 813/813 814/814 815/815
f 816/816 817/817 818/818
f 819/819 820/820 821/821
f 822/822 823/823 824/824
f 825/825 826/826 827/827
f 828/828 829/829 830/830
f 831/831 832/832 833/833
f 834/834 835/835 836/836
f 837/837 838/838 839/839
f 840/840 841/841 842/842
f 843/843 844/844 845/845
f 846/846 847/847 848/848
f 849/849 850/850 851/851
f 852/852 853/853 854/854
f 855/855 856/856 857/857
f 858/858 859/859 860/860
