mtllib acce673.mtl
o acce673
v 0.12582 0.80730 2.92752 0.000 0.000 0.000
v 0.12582 0.91116 2.83428 0.000 0.000 0.000
v 0.12582 0.85086 3.05982 0.000 0.000 0.000
v 0.12582 0.76374 2.79468 0.000 0.000 0.000
v 0.12582 0.70344 3.02022 0.000 0.000 0.000
v 0.12114 0.80730 2.92770 0.000 0.000 0.000
v 0.12114 0.81468 2.89998 0.000 0.000 0.000
v 0.12114 0.78282 2.91078 0.000 0.000 0.000
v 0.12114 0.77796 2.89026 0.000 0.000 0.000
v 0.12114 0.79272 2.87424 0.000 0.000 0.000
v 0.12114 0.83700 2.92536 0.000 0.000 0.000
v 0.12114 0.85140 2.90988 0.000 0.000 0.000
v 0.12114 0.84654 2.88864 0.000 0.000 0.000
v 0.12114 0.82188 2.87316 0.000 0.000 0.000
v 0.12114 0.79272 2.87424 0.000 0.000 0.000
v 0.12114 0.84654 2.88864 0.000 0.000 0.000
v 0.12366 0.80730 2.92752 0.000 0.000 0.000
v 0.12366 0.89964 2.84022 0.000 0.000 0.000
v 0.12366 0.84384 3.04866 0.000 0.000 0.000
v 0.12366 0.77076 2.80584 0.000 0.000 0.000
v 0.12366 0.71496 3.01410 0.000 0.000 0.000
v 0.12834 0.82656 3.03732 0.000 0.000 0.000
v 0.12834 0.85320 3.00672 0.000 0.000 0.000
v 0.12834 0.83160 3.03876 0.000 0.000 0.000
v 0.12834 0.84834 3.00474 0.000 0.000 0.000
v 0.12834 0.82656 3.03732 0.000 0.000 0.000
v 0.12834 0.82332 2.99880 0.000 0.000 0.000
v 0.12834 0.83160 3.03876 0.000 0.000 0.000
v 0.12834 0.82854 2.99934 0.000 0.000 0.000
v 0.12834 0.84114 3.02130 0.000 0.000 0.000
v 0.12834 0.83592 3.01122 0.000 0.000 0.000
v 0.12834 0.82638 3.01716 0.000 0.000 0.000
v 0.12834 0.78642 2.82204 0.000 0.000 0.000
v 0.12834 0.79146 2.82348 0.000 0.000 0.000
v 0.12834 0.79416 2.86200 0.000 0.000 0.000
v 0.12834 0.78894 2.86128 0.000 0.000 0.000
v 0.12834 0.78642 2.82204 0.000 0.000 0.000
v 0.12834 0.79146 2.82348 0.000 0.000 0.000
v 0.12834 0.76446 2.85390 0.000 0.000 0.000
v 0.12834 0.76932 2.85606 0.000 0.000 0.000
v 0.12834 0.78138 2.84940 0.000 0.000 0.000
v 0.12834 0.79110 2.84346 0.000 0.000 0.000
v 0.12834 0.77616 2.83950 0.000 0.000 0.000
v 0.12114 0.83268 2.99592 0.000 0.000 0.000
v 0.12114 0.83052 2.95758 0.000 0.000 0.000
v 0.12114 0.82044 2.98728 0.000 0.000 0.000
v 0.12114 0.81342 2.95848 0.000 0.000 0.000
v 0.12114 0.81468 2.92536 0.000 0.000 0.000
v 0.12114 0.84384 2.98620 0.000 0.000 0.000
v 0.12114 0.84780 2.95668 0.000 0.000 0.000
v 0.12114 0.83862 2.92320 0.000 0.000 0.000
v 0.12114 0.83862 2.92320 0.000 0.000 0.000
v 0.12114 0.81468 2.92536 0.000 0.000 0.000
v 0.12114 0.76608 2.97288 0.000 0.000 0.000
v 0.12114 0.77202 2.94192 0.000 0.000 0.000
v 0.12114 0.75114 2.97414 0.000 0.000 0.000
v 0.12114 0.78642 2.95128 0.000 0.000 0.000
v 0.12114 0.80190 2.92194 0.000 0.000 0.000
v 0.12114 0.74628 2.95992 0.000 0.000 0.000
v 0.12114 0.75762 2.93256 0.000 0.000 0.000
v 0.12114 0.78246 2.90808 0.000 0.000 0.000
v 0.12114 0.80190 2.92194 0.000 0.000 0.000
v 0.12114 0.78246 2.90808 0.000 0.000 0.000
v 0.37782 -1.23048 1.52226 0.000 0.000 0.000
v 0.37782 -1.12662 1.42902 0.000 0.000 0.000
v 0.37782 -1.18692 1.65456 0.000 0.000 0.000
v 0.37782 -1.27404 1.38960 0.000 0.000 0.000
v 0.37782 -1.33434 1.61514 0.000 0.000 0.000
v 0.37314 -1.23048 1.52262 0.000 0.000 0.000
v 0.37314 -1.22310 1.49490 0.000 0.000 0.000
v 0.37314 -1.25514 1.50570 0.000 0.000 0.000
v 0.37314 -1.26000 1.48500 0.000 0.000 0.000
v 0.37314 -1.24506 1.46898 0.000 0.000 0.000
v 0.37314 -1.20078 1.52010 0.000 0.000 0.000
v 0.37314 -1.18638 1.50480 0.000 0.000 0.000
v 0.37314 -1.19124 1.48338 0.000 0.000 0.000
v 0.37314 -1.21590 1.46808 0.000 0.000 0.000
v 0.37314 -1.24506 1.46898 0.000 0.000 0.000
v 0.37314 -1.19124 1.48338 0.000 0.000 0.000
v 0.37566 -1.23048 1.52226 0.000 0.000 0.000
v 0.37566 -1.13814 1.43514 0.000 0.000 0.000
v 0.37566 -1.19394 1.64358 0.000 0.000 0.000
v 0.37566 -1.26702 1.40058 0.000 0.000 0.000
v 0.37566 -1.32282 1.60902 0.000 0.000 0.000
v 0.38034 -1.20708 1.61748 0.000 0.000 0.000
v 0.38034 -1.18746 1.62234 0.000 0.000 0.000
v 0.38034 -1.18602 1.62882 0.000 0.000 0.000
v 0.38034 -1.20798 1.62342 0.000 0.000 0.000
v 0.38034 -1.20276 1.64358 0.000 0.000 0.000
v 0.38034 -1.18746 1.62234 0.000 0.000 0.000
v 0.38034 -1.18602 1.62882 0.000 0.000 0.000
v 0.38034 -1.20510 1.63926 0.000 0.000 0.000
v 0.38034 -1.19682 1.60596 0.000 0.000 0.000
v 0.38034 -1.19268 1.60704 0.000 0.000 0.000
v 0.37314 -1.20528 1.59066 0.000 0.000 0.000
v 0.37314 -1.20726 1.55250 0.000 0.000 0.000
v 0.37314 -1.21734 1.58220 0.000 0.000 0.000
v 0.37314 -1.22436 1.55340 0.000 0.000 0.000
v 0.37314 -1.22310 1.52010 0.000 0.000 0.000
v 0.37314 -1.19394 1.58094 0.000 0.000 0.000
v 0.37314 -1.18998 1.55160 0.000 0.000 0.000
v 0.37314 -1.19934 1.51812 0.000 0.000 0.000
v 0.37314 -1.19934 1.51812 0.000 0.000 0.000
v 0.37314 -1.22310 1.52010 0.000 0.000 0.000
v 0.37314 -1.27170 1.56762 0.000 0.000 0.000
v 0.37314 -1.26576 1.53684 0.000 0.000 0.000
v 0.37314 -1.28664 1.56888 0.000 0.000 0.000
v 0.37314 -1.25136 1.54620 0.000 0.000 0.000
v 0.37314 -1.23588 1.51668 0.000 0.000 0.000
v 0.37314 -1.29150 1.55484 0.000 0.000 0.000
v 0.37314 -1.28016 1.52748 0.000 0.000 0.000
v 0.37314 -1.25532 1.50300 0.000 0.000 0.000
v 0.37314 -1.23588 1.51668 0.000 0.000 0.000
v 0.37314 -1.25532 1.50300 0.000 0.000 0.000
v 0.38034 -1.27782 1.41750 0.000 0.000 0.000
v 0.38034 -1.25226 1.41948 0.000 0.000 0.000
v 0.38034 -1.25676 1.42344 0.000 0.000 0.000
v 0.38034 -1.27584 1.41264 0.000 0.000 0.000
v 0.38034 -1.25676 1.42344 0.000 0.000 0.000
v 0.38034 -1.26090 1.40004 0.000 0.000 0.000
v 0.38034 -1.25226 1.41948 0.000 0.000 0.000
v 0.38034 -1.26522 1.40220 0.000 0.000 0.000
v 0.38034 -1.27368 1.43118 0.000 0.000 0.000
v 0.38034 -1.26918 1.43244 0.000 0.000 0.000
v -0.19818 -0.91836 2.70378 0.000 0.000 0.000
v -0.19818 -0.81450 2.61054 0.000 0.000 0.000
v -0.19818 -0.87498 2.83608 0.000 0.000 0.000
v -0.19818 -0.96192 2.57094 0.000 0.000 0.000
v -0.19818 -1.02240 2.79648 0.000 0.000 0.000
v -0.20286 -0.91854 2.70396 0.000 0.000 0.000
v -0.20286 -0.91116 2.67624 0.000 0.000 0.000
v -0.20286 -0.94302 2.68704 0.000 0.000 0.000
v -0.20286 -0.94788 2.66652 0.000 0.000 0.000
v -0.20286 -0.93294 2.65050 0.000 0.000 0.000
v -0.20286 -0.88884 2.70162 0.000 0.000 0.000
v -0.20286 -0.87426 2.68614 0.000 0.000 0.000
v -0.20286 -0.87930 2.66490 0.000 0.000 0.000
v -0.20286 -0.90396 2.64942 0.000 0.000 0.000
v -0.20286 -0.93294 2.65050 0.000 0.000 0.000
v -0.20286 -0.87930 2.66490 0.000 0.000 0.000
v -0.20034 -0.91836 2.70378 0.000 0.000 0.000
v -0.20034 -0.82602 2.61648 0.000 0.000 0.000
v -0.20034 -0.88200 2.82492 0.000 0.000 0.000
v -0.20034 -0.95490 2.58210 0.000 0.000 0.000
v -0.20034 -1.01070 2.79036 0.000 0.000 0.000
v -0.19566 -0.89172 2.82474 0.000 0.000 0.000
v -0.19566 -0.89028 2.81934 0.000 0.000 0.000
v -0.19566 -0.87948 2.82276 0.000 0.000 0.000
v -0.19566 -0.88020 2.81664 0.000 0.000 0.000
v -0.20286 -0.89316 2.77218 0.000 0.000 0.000
v -0.20286 -0.89514 2.73384 0.000 0.000 0.000
v -0.20286 -0.90540 2.76354 0.000 0.000 0.000
v -0.20286 -0.91224 2.73474 0.000 0.000 0.000
v -0.20286 -0.91098 2.70162 0.000 0.000 0.000
v -0.20286 -0.88182 2.76246 0.000 0.000 0.000
v -0.20286 -0.87804 2.73294 0.000 0.000 0.000
v -0.20286 -0.88722 2.69946 0.000 0.000 0.000
v -0.20286 -0.88722 2.69946 0.000 0.000 0.000
v -0.20286 -0.91098 2.70162 0.000 0.000 0.000
v -0.20286 -0.95976 2.74914 0.000 0.000 0.000
v -0.20286 -0.95364 2.71818 0.000 0.000 0.000
v -0.20286 -0.97452 2.75040 0.000 0.000 0.000
v -0.20286 -0.93924 2.72754 0.000 0.000 0.000
v -0.20286 -0.92376 2.69820 0.000 0.000 0.000
v -0.20286 -0.97938 2.73618 0.000 0.000 0.000
v -0.20286 -0.96804 2.70882 0.000 0.000 0.000
v -0.20286 -0.94338 2.68434 0.000 0.000 0.000
v -0.20286 -0.92376 2.69820 0.000 0.000 0.000
v -0.20286 -0.94338 2.68434 0.000 0.000 0.000
v -0.19476 -0.92070 2.77902 0.000 0.000 0.000
v -0.19476 -0.94266 2.79414 0.000 0.000 0.000
v -0.19476 -0.93240 2.75580 0.000 0.000 0.000
v -0.19476 -0.95400 2.77002 0.000 0.000 0.000
v -0.19476 -0.91134 2.76876 0.000 0.000 0.000
v -0.19476 -0.91098 2.75670 0.000 0.000 0.000
v -0.19476 -0.91638 2.75058 0.000 0.000 0.000
v -0.19476 -0.92520 2.75202 0.000 0.000 0.000
v -0.19476 -0.95706 2.75652 0.000 0.000 0.000
v -0.19476 -0.95148 2.74572 0.000 0.000 0.000
v -0.19476 -0.94356 2.74320 0.000 0.000 0.000
v -0.19476 -0.93672 2.74896 0.000 0.000 0.000
v -0.19566 -0.87300 2.78982 0.000 0.000 0.000
v -0.19566 -0.89154 2.78478 0.000 0.000 0.000
v -0.19566 -0.87462 2.79630 0.000 0.000 0.000
v -0.19566 -0.89334 2.79126 0.000 0.000 0.000
v -0.19566 -0.89172 2.82474 0.000 0.000 0.000
v -0.19566 -0.89028 2.81934 0.000 0.000 0.000
v -0.19566 -0.90036 2.81898 0.000 0.000 0.000
v -0.19566 -0.89658 2.81430 0.000 0.000 0.000
v -0.19566 -0.90054 2.81268 0.000 0.000 0.000
v -0.19566 -0.87462 2.79630 0.000 0.000 0.000
v -0.19566 -0.87300 2.78982 0.000 0.000 0.000
v -0.19566 -0.95922 2.58606 0.000 0.000 0.000
v -0.19566 -0.94716 2.58408 0.000 0.000 0.000
v -0.19566 -0.94842 2.58966 0.000 0.000 0.000
v -0.19566 -0.95850 2.59218 0.000 0.000 0.000
v -0.19566 -0.94734 2.62404 0.000 0.000 0.000
v -0.19566 -0.96426 2.61270 0.000 0.000 0.000
v -0.19566 -0.96570 2.61918 0.000 0.000 0.000
v -0.19566 -0.94536 2.61774 0.000 0.000 0.000
v -0.19566 -0.93852 2.58984 0.000 0.000 0.000
v -0.19566 -0.94716 2.58408 0.000 0.000 0.000
v -0.19566 -0.94842 2.58966 0.000 0.000 0.000
v -0.19566 -0.94212 2.59470 0.000 0.000 0.000
v -0.19566 -0.93816 2.59632 0.000 0.000 0.000
v -0.19566 -0.96426 2.61270 0.000 0.000 0.000
v -0.19566 -0.96570 2.61918 0.000 0.000 0.000
v -0.32418 1.33254 1.81116 0.000 0.000 0.000
v -0.32418 1.43640 1.71792 0.000 0.000 0.000
v -0.32418 1.37592 1.94346 0.000 0.000 0.000
v -0.32418 1.28898 1.67832 0.000 0.000 0.000
v -0.32418 1.22850 1.90386 0.000 0.000 0.000
v -0.32886 1.33236 1.81134 0.000 0.000 0.000
v -0.32886 1.33974 1.78362 0.000 0.000 0.000
v -0.32886 1.30788 1.79442 0.000 0.000 0.000
v -0.32886 1.30302 1.77390 0.000 0.000 0.000
v -0.32886 1.31796 1.75788 0.000 0.000 0.000
v -0.32886 1.36206 1.80900 0.000 0.000 0.000
v -0.32886 1.37664 1.79352 0.000 0.000 0.000
v -0.32886 1.37160 1.77228 0.000 0.000 0.000
v -0.32886 1.34694 1.75680 0.000 0.000 0.000
v -0.32886 1.31796 1.75788 0.000 0.000 0.000
v -0.32886 1.37160 1.77228 0.000 0.000 0.000
v -0.32634 1.33254 1.81098 0.000 0.000 0.000
v -0.32634 1.42488 1.72386 0.000 0.000 0.000
v -0.32634 1.36890 1.93230 0.000 0.000 0.000
v -0.32634 1.29600 1.68948 0.000 0.000 0.000
v -0.32634 1.24020 1.89774 0.000 0.000 0.000
v -0.32886 1.35774 1.87956 0.000 0.000 0.000
v -0.32886 1.35576 1.84122 0.000 0.000 0.000
v -0.32886 1.34550 1.87092 0.000 0.000 0.000
v -0.32886 1.33866 1.84212 0.000 0.000 0.000
v -0.32886 1.33992 1.80900 0.000 0.000 0.000
v -0.32886 1.36908 1.86984 0.000 0.000 0.000
v -0.32886 1.37286 1.84032 0.000 0.000 0.000
v -0.32886 1.36368 1.80684 0.000 0.000 0.000
v -0.32886 1.36368 1.80684 0.000 0.000 0.000
v -0.32886 1.33992 1.80900 0.000 0.000 0.000
v -0.32886 1.29114 1.85652 0.000 0.000 0.000
v -0.32886 1.29726 1.82556 0.000 0.000 0.000
v -0.32886 1.27638 1.85778 0.000 0.000 0.000
v -0.32886 1.31166 1.83492 0.000 0.000 0.000
v -0.32886 1.32714 1.80558 0.000 0.000 0.000
v -0.32886 1.27152 1.84356 0.000 0.000 0.000
v -0.32886 1.28286 1.81620 0.000 0.000 0.000
v -0.32886 1.30752 1.79172 0.000 0.000 0.000
v -0.32886 1.32714 1.80558 0.000 0.000 0.000
v -0.32886 1.30752 1.79172 0.000 0.000 0.000
v -0.32076 1.30050 1.86408 0.000 0.000 0.000
v -0.32076 1.32228 1.84896 0.000 0.000 0.000
v -0.32076 1.31364 1.88118 0.000 0.000 0.000
v -0.32076 1.33362 1.87308 0.000 0.000 0.000
v -0.32076 1.29096 1.87434 0.000 0.000 0.000
v -0.32076 1.29060 1.88640 0.000 0.000 0.000
v -0.32076 1.29600 1.89252 0.000 0.000 0.000
v -0.32076 1.30482 1.89108 0.000 0.000 0.000
v -0.32076 1.33686 1.88658 0.000 0.000 0.000
v -0.32076 1.33110 1.89738 0.000 0.000 0.000
v -0.32076 1.32336 1.89990 0.000 0.000 0.000
v -0.32076 1.31652 1.89414 0.000 0.000 0.000
v -0.32076 1.33182 1.74672 0.000 0.000 0.000
v -0.32076 1.35198 1.73862 0.000 0.000 0.000
v -0.32076 1.34334 1.77084 0.000 0.000 0.000
v -0.32076 1.36512 1.75572 0.000 0.000 0.000
v -0.32076 1.32876 1.73322 0.000 0.000 0.000
v -0.32076 1.33452 1.72242 0.000 0.000 0.000
v -0.32076 1.34226 1.71990 0.000 0.000 0.000
v -0.32076 1.34910 1.72566 0.000 0.000 0.000
v -0.32076 1.37466 1.74546 0.000 0.000 0.000
v -0.32076 1.37502 1.73340 0.000 0.000 0.000
v -0.32076 1.36962 1.72728 0.000 0.000 0.000
v -0.32076 1.36080 1.72890 0.000 0.000 0.000
v -0.32076 1.31742 1.80108 0.000 0.000 0.000
v -0.32076 1.33920 1.78596 0.000 0.000 0.000
v -0.32076 1.33056 1.81800 0.000 0.000 0.000
v -0.32076 1.35054 1.80990 0.000 0.000 0.000
v -0.32076 1.30788 1.81116 0.000 0.000 0.000
v -0.32076 1.30752 1.82340 0.000 0.000 0.000
v -0.32076 1.31292 1.82934 0.000 0.000 0.000
v -0.32076 1.32174 1.82790 0.000 0.000 0.000
v -0.32076 1.35378 1.82340 0.000 0.000 0.000
v -0.32076 1.34802 1.83420 0.000 0.000 0.000
v -0.32076 1.34028 1.83672 0.000 0.000 0.000
v -0.32076 1.33344 1.83096 0.000 0.000 0.000
v -0.32166 1.35702 1.91232 0.000 0.000 0.000
v -0.32166 1.36116 1.90368 0.000 0.000 0.000
v -0.32166 1.36170 1.90998 0.000 0.000 0.000
v -0.32166 1.35540 1.90116 0.000 0.000 0.000
v -0.32166 1.36674 1.89486 0.000 0.000 0.000
v -0.32166 1.36728 1.89972 0.000 0.000 0.000
v -0.32166 1.36998 1.93428 0.000 0.000 0.000
v -0.32166 1.35216 1.92384 0.000 0.000 0.000
v -0.32166 1.35090 1.92906 0.000 0.000 0.000
v -0.32166 1.37160 1.92906 0.000 0.000 0.000
v -0.32166 1.37322 1.91520 0.000 0.000 0.000
v -0.32166 1.36170 1.90998 0.000 0.000 0.000
v -0.32166 1.35702 1.91232 0.000 0.000 0.000
v -0.32166 1.36962 1.91898 0.000 0.000 0.000
v -0.32166 1.37376 1.92042 0.000 0.000 0.000
v -0.32166 1.35090 1.92906 0.000 0.000 0.000
v -0.32166 1.35216 1.92384 0.000 0.000 0.000
v -0.32166 1.37898 1.90404 0.000 0.000 0.000
v -0.32166 1.36674 1.89486 0.000 0.000 0.000
v -0.32166 1.36728 1.89972 0.000 0.000 0.000
v -0.32166 1.37898 1.89900 0.000 0.000 0.000
v 0.23382 0.94824 0.70362 0.000 0.000 0.000
v 0.23382 1.05228 0.61038 0.000 0.000 0.000
v 0.23382 0.99180 0.83592 0.000 0.000 0.000
v 0.23382 0.90486 0.57078 0.000 0.000 0.000
v 0.23382 0.84438 0.79632 0.000 0.000 0.000
v 0.22914 0.94824 0.70380 0.000 0.000 0.000
v 0.22914 0.95562 0.67608 0.000 0.000 0.000
v 0.22914 0.92376 0.68688 0.000 0.000 0.000
v 0.22914 0.91890 0.66636 0.000 0.000 0.000
v 0.22914 0.93384 0.65034 0.000 0.000 0.000
v 0.22914 0.97794 0.70146 0.000 0.000 0.000
v 0.22914 0.99252 0.68598 0.000 0.000 0.000
v 0.22914 0.98748 0.66474 0.000 0.000 0.000
v 0.22914 0.96282 0.64926 0.000 0.000 0.000
v 0.22914 0.93384 0.65034 0.000 0.000 0.000
v 0.22914 0.98748 0.66474 0.000 0.000 0.000
v 0.23166 0.94842 0.70362 0.000 0.000 0.000
v 0.23166 1.04058 0.61632 0.000 0.000 0.000
v 0.23166 0.98478 0.82476 0.000 0.000 0.000
v 0.23166 0.91188 0.58194 0.000 0.000 0.000
v 0.23166 0.85608 0.79020 0.000 0.000 0.000
v 0.22914 0.97362 0.77202 0.000 0.000 0.000
v 0.22914 0.97164 0.73368 0.000 0.000 0.000
v 0.22914 0.96138 0.76338 0.000 0.000 0.000
v 0.22914 0.95454 0.73458 0.000 0.000 0.000
v 0.22914 0.95580 0.70146 0.000 0.000 0.000
v 0.22914 0.98496 0.76230 0.000 0.000 0.000
v 0.22914 0.98874 0.73278 0.000 0.000 0.000
v 0.22914 0.97956 0.69930 0.000 0.000 0.000
v 0.22914 0.97956 0.69930 0.000 0.000 0.000
v 0.22914 0.95580 0.70146 0.000 0.000 0.000
v 0.22914 0.90702 0.74898 0.000 0.000 0.000
v 0.22914 0.91314 0.71802 0.000 0.000 0.000
v 0.22914 0.89226 0.75024 0.000 0.000 0.000
v 0.22914 0.92754 0.72738 0.000 0.000 0.000
v 0.22914 0.94302 0.69804 0.000 0.000 0.000
v 0.22914 0.88740 0.73602 0.000 0.000 0.000
v 0.22914 0.89874 0.70866 0.000 0.000 0.000
v 0.22914 0.92340 0.68418 0.000 0.000 0.000
v 0.22914 0.94302 0.69804 0.000 0.000 0.000
v 0.22914 0.92340 0.68418 0.000 0.000 0.000
v 0.23724 0.95382 0.76032 0.000 0.000 0.000
v 0.23724 0.97110 0.74502 0.000 0.000 0.000
v 0.23724 0.96066 0.78390 0.000 0.000 0.000
v 0.23724 0.97830 0.76680 0.000 0.000 0.000
v 0.23724 0.89748 0.76698 0.000 0.000 0.000
v 0.23724 0.90792 0.72810 0.000 0.000 0.000
v 0.23724 0.91512 0.74988 0.000 0.000 0.000
v 0.23724 0.89064 0.74340 0.000 0.000 0.000
v 0.23724 0.98208 0.65484 0.000 0.000 0.000
v 0.23724 1.00008 0.63684 0.000 0.000 0.000
v 0.23724 0.98892 0.67842 0.000 0.000 0.000
v 0.23724 1.00656 0.66132 0.000 0.000 0.000
v 0.23724 0.92574 0.66150 0.000 0.000 0.000
v 0.23724 0.93690 0.61992 0.000 0.000 0.000
v 0.23724 0.94356 0.64440 0.000 0.000 0.000
v 0.23724 0.91890 0.63792 0.000 0.000 0.000
v 0.23724 0.94392 0.71964 0.000 0.000 0.000
v 0.23724 0.95508 0.67860 0.000 0.000 0.000
v 0.23724 0.96192 0.70164 0.000 0.000 0.000
v 0.23724 0.93744 0.69498 0.000 0.000 0.000
v 0.23634 0.98640 0.82818 0.000 0.000 0.000
v 0.23634 0.97434 0.81954 0.000 0.000 0.000
v 0.23634 0.98442 0.82296 0.000 0.000 0.000
v 0.23634 0.97290 0.82458 0.000 0.000 0.000
v 0.23634 0.98640 0.82818 0.000 0.000 0.000
v 0.23634 0.98928 0.81702 0.000 0.000 0.000
v 0.23634 0.98532 0.82116 0.000 0.000 0.000
v 0.23634 0.98442 0.82296 0.000 0.000 0.000
v 0.23634 0.97920 0.81954 0.000 0.000 0.000
v 0.23634 0.98388 0.81612 0.000 0.000 0.000
v 0.23634 0.98046 0.81270 0.000 0.000 0.000
v 0.23634 0.97524 0.81558 0.000 0.000 0.000
v 0.23634 0.97524 0.81558 0.000 0.000 0.000
v 0.23634 0.98064 0.80892 0.000 0.000 0.000
v 0.23634 0.98046 0.81270 0.000 0.000 0.000
v 0.23634 0.97434 0.80694 0.000 0.000 0.000
v 0.23634 0.98226 0.80064 0.000 0.000 0.000
v 0.23634 0.98424 0.80604 0.000 0.000 0.000
v 0.23634 0.99162 0.80838 0.000 0.000 0.000
v 0.23634 0.98226 0.80064 0.000 0.000 0.000
v 0.23634 0.98424 0.80604 0.000 0.000 0.000
v 0.23634 0.99216 0.80352 0.000 0.000 0.000
v 0.23634 0.91134 0.58734 0.000 0.000 0.000
v 0.23634 0.90954 0.58212 0.000 0.000 0.000
v 0.23634 0.92142 0.59094 0.000 0.000 0.000
v 0.23634 0.92286 0.58572 0.000 0.000 0.000
v 0.23634 0.91044 0.58914 0.000 0.000 0.000
v 0.23634 0.90954 0.58212 0.000 0.000 0.000
v 0.23634 0.90648 0.59346 0.000 0.000 0.000
v 0.23634 0.91134 0.58734 0.000 0.000 0.000
v 0.23634 0.91656 0.59076 0.000 0.000 0.000
v 0.23634 0.91188 0.59418 0.000 0.000 0.000
v 0.23634 0.91530 0.59760 0.000 0.000 0.000
v 0.23634 0.92052 0.59490 0.000 0.000 0.000
v 0.23634 0.91530 0.59760 0.000 0.000 0.000
v 0.23634 0.92052 0.59490 0.000 0.000 0.000
v 0.23634 0.91512 0.60138 0.000 0.000 0.000
v 0.23634 0.92160 0.60336 0.000 0.000 0.000
v 0.23634 0.91350 0.60966 0.000 0.000 0.000
v 0.23634 0.91152 0.60426 0.000 0.000 0.000
v 0.23634 0.90414 0.60192 0.000 0.000 0.000
v 0.23634 0.90378 0.60696 0.000 0.000 0.000
v -0.32166 1.30392 1.70982 0.000 0.000 0.000
v -0.32166 1.30842 1.70748 0.000 0.000 0.000
v -0.32166 1.30446 1.71612 0.000 0.000 0.000
v -0.32166 1.30842 1.70748 0.000 0.000 0.000
v -0.32166 1.31022 1.71864 0.000 0.000 0.000
v -0.32166 1.29888 1.72494 0.000 0.000 0.000
v -0.32166 1.29816 1.72008 0.000 0.000 0.000
v -0.32166 1.30392 1.70982 0.000 0.000 0.000
v -0.32166 1.29240 1.70460 0.000 0.000 0.000
v -0.32166 1.29600 1.70082 0.000 0.000 0.000
v -0.32166 1.29186 1.69938 0.000 0.000 0.000
v -0.32166 1.31472 1.69074 0.000 0.000 0.000
v -0.32166 1.31346 1.69596 0.000 0.000 0.000
v -0.32166 1.31472 1.69074 0.000 0.000 0.000
v -0.32166 1.29564 1.68552 0.000 0.000 0.000
v -0.32166 1.31346 1.69596 0.000 0.000 0.000
v -0.32166 1.29402 1.69074 0.000 0.000 0.000
v -0.32166 1.29816 1.72008 0.000 0.000 0.000
v -0.32166 1.28664 1.71576 0.000 0.000 0.000
v -0.32166 1.29888 1.72494 0.000 0.000 0.000
v -0.32166 1.28664 1.72080 0.000 0.000 0.000
v -0.10818 -0.81774 0.49410 0.000 0.000 0.000
v -0.10818 -0.71370 0.40086 0.000 0.000 0.000
v -0.10818 -0.77418 0.62640 0.000 0.000 0.000
v -0.10818 -0.86112 0.36126 0.000 0.000 0.000
v -0.10818 -0.92160 0.58680 0.000 0.000 0.000
v -0.11286 -0.81774 0.49428 0.000 0.000 0.000
v -0.11286 -0.81036 0.46656 0.000 0.000 0.000
v -0.11286 -0.84222 0.47736 0.000 0.000 0.000
v -0.11286 -0.84708 0.45684 0.000 0.000 0.000
v -0.11286 -0.83214 0.44082 0.000 0.000 0.000
v -0.11286 -0.78804 0.49194 0.000 0.000 0.000
v -0.11286 -0.77364 0.47646 0.000 0.000 0.000
v -0.11286 -0.77850 0.45522 0.000 0.000 0.000
v -0.11286 -0.80316 0.43974 0.000 0.000 0.000
v -0.11286 -0.83214 0.44082 0.000 0.000 0.000
v -0.11286 -0.77850 0.45522 0.000 0.000 0.000
v -0.11034 -0.81774 0.49392 0.000 0.000 0.000
v -0.11034 -0.72540 0.40680 0.000 0.000 0.000
v -0.11034 -0.78120 0.61524 0.000 0.000 0.000
v -0.11034 -0.85410 0.37242 0.000 0.000 0.000
v -0.11034 -0.91008 0.58068 0.000 0.000 0.000
v -0.11286 -0.79236 0.56250 0.000 0.000 0.000
v -0.11286 -0.79452 0.52416 0.000 0.000 0.000
v -0.11286 -0.80460 0.55386 0.000 0.000 0.000
v -0.11286 -0.81162 0.52506 0.000 0.000 0.000
v -0.11286 -0.81036 0.49194 0.000 0.000 0.000
v -0.11286 -0.78120 0.55278 0.000 0.000 0.000
v -0.11286 -0.77724 0.52326 0.000 0.000 0.000
v -0.11286 -0.78642 0.48978 0.000 0.000 0.000
v -0.11286 -0.78642 0.48978 0.000 0.000 0.000
v -0.11286 -0.81036 0.49194 0.000 0.000 0.000
v -0.11286 -0.85896 0.53946 0.000 0.000 0.000
v -0.11286 -0.85302 0.50850 0.000 0.000 0.000
v -0.11286 -0.87390 0.54072 0.000 0.000 0.000
v -0.11286 -0.83862 0.51786 0.000 0.000 0.000
v -0.11286 -0.82296 0.48852 0.000 0.000 0.000
v -0.11286 -0.87876 0.52650 0.000 0.000 0.000
v -0.11286 -0.86742 0.49914 0.000 0.000 0.000
v -0.11286 -0.84258 0.47466 0.000 0.000 0.000
v -0.11286 -0.82296 0.48852 0.000 0.000 0.000
v -0.11286 -0.84258 0.47466 0.000 0.000 0.000
v -0.10476 -0.81216 0.55080 0.000 0.000 0.000
v -0.10476 -0.79614 0.53964 0.000 0.000 0.000
v -0.10476 -0.80244 0.56340 0.000 0.000 0.000
v -0.10476 -0.78768 0.55728 0.000 0.000 0.000
v -0.10476 -0.81918 0.55836 0.000 0.000 0.000
v -0.10476 -0.81954 0.56718 0.000 0.000 0.000
v -0.10476 -0.81540 0.57168 0.000 0.000 0.000
v -0.10476 -0.80892 0.57060 0.000 0.000 0.000
v -0.10476 -0.78534 0.56736 0.000 0.000 0.000
v -0.10476 -0.78966 0.57528 0.000 0.000 0.000
v -0.10476 -0.79542 0.57708 0.000 0.000 0.000
v -0.10476 -0.80046 0.57276 0.000 0.000 0.000
v -0.10476 -0.86562 0.54648 0.000 0.000 0.000
v -0.10476 -0.85932 0.52272 0.000 0.000 0.000
v -0.10476 -0.85086 0.54036 0.000 0.000 0.000
v -0.10476 -0.87534 0.53388 0.000 0.000 0.000
v -0.10476 -0.84852 0.55044 0.000 0.000 0.000
v -0.10476 -0.85284 0.55836 0.000 0.000 0.000
v -0.10476 -0.85842 0.56016 0.000 0.000 0.000
v -0.10476 -0.86346 0.55584 0.000 0.000 0.000
v -0.10476 -0.88236 0.54144 0.000 0.000 0.000
v -0.10476 -0.88254 0.55026 0.000 0.000 0.000
v -0.10476 -0.87858 0.55476 0.000 0.000 0.000
v -0.10476 -0.87210 0.55368 0.000 0.000 0.000
v -0.10476 -0.78390 0.44532 0.000 0.000 0.000
v -0.10476 -0.76914 0.43920 0.000 0.000 0.000
v -0.10476 -0.77562 0.46296 0.000 0.000 0.000
v -0.10476 -0.75942 0.45180 0.000 0.000 0.000
v -0.10476 -0.78624 0.43524 0.000 0.000 0.000
v -0.10476 -0.78210 0.42732 0.000 0.000 0.000
v -0.10476 -0.77634 0.42552 0.000 0.000 0.000
v -0.10476 -0.77130 0.42984 0.000 0.000 0.000
v -0.10476 -0.75240 0.44424 0.000 0.000 0.000
v -0.10476 -0.75222 0.43542 0.000 0.000 0.000
v -0.10476 -0.75618 0.43092 0.000 0.000 0.000
v -0.10476 -0.76266 0.43200 0.000 0.000 0.000
v -0.10476 -0.83862 0.44604 0.000 0.000 0.000
v -0.10476 -0.83232 0.42228 0.000 0.000 0.000
v -0.10476 -0.82260 0.43488 0.000 0.000 0.000
v -0.10476 -0.84708 0.42840 0.000 0.000 0.000
v -0.10476 -0.81558 0.42732 0.000 0.000 0.000
v -0.10476 -0.81540 0.41850 0.000 0.000 0.000
v -0.10476 -0.81936 0.41400 0.000 0.000 0.000
v -0.10476 -0.82584 0.41508 0.000 0.000 0.000
v -0.10476 -0.84942 0.41832 0.000 0.000 0.000
v -0.10476 -0.84510 0.41040 0.000 0.000 0.000
v -0.10476 -0.83952 0.40860 0.000 0.000 0.000
v -0.10476 -0.83448 0.41292 0.000 0.000 0.000
v -0.10566 -0.78732 0.61812 0.000 0.000 0.000
v -0.10566 -0.79272 0.60804 0.000 0.000 0.000
v -0.10566 -0.78624 0.61344 0.000 0.000 0.000
v -0.10566 -0.79434 0.61308 0.000 0.000 0.000
v -0.10566 -0.77706 0.61632 0.000 0.000 0.000
v -0.10566 -0.78624 0.61344 0.000 0.000 0.000
v -0.10566 -0.78732 0.61812 0.000 0.000 0.000
v -0.10566 -0.78102 0.61254 0.000 0.000 0.000
v -0.10566 -0.77994 0.60858 0.000 0.000 0.000
v -0.10566 -0.77400 0.60678 0.000 0.000 0.000
v -0.10566 -0.77814 0.60354 0.000 0.000 0.000
v -0.10566 -0.78534 0.60732 0.000 0.000 0.000
v -0.10566 -0.77814 0.60354 0.000 0.000 0.000
v -0.10566 -0.78246 0.60336 0.000 0.000 0.000
v -0.10566 -0.78480 0.60030 0.000 0.000 0.000
v -0.10566 -0.79056 0.60174 0.000 0.000 0.000
v -0.10566 -0.79056 0.60174 0.000 0.000 0.000
v -0.10566 -0.78372 0.59670 0.000 0.000 0.000
v -0.10566 -0.78480 0.60030 0.000 0.000 0.000
v -0.10566 -0.78948 0.59328 0.000 0.000 0.000
v -0.10566 -0.77922 0.58968 0.000 0.000 0.000
v -0.10566 -0.78066 0.59508 0.000 0.000 0.000
v -0.10566 -0.77400 0.60678 0.000 0.000 0.000
v -0.10566 -0.77130 0.59886 0.000 0.000 0.000
v -0.10566 -0.77616 0.59976 0.000 0.000 0.000
v -0.10566 -0.77814 0.60354 0.000 0.000 0.000
v -0.10566 -0.77616 0.59976 0.000 0.000 0.000
v -0.10566 -0.77328 0.59256 0.000 0.000 0.000
v -0.10566 -0.77796 0.59670 0.000 0.000 0.000
v -0.10566 -0.77130 0.59886 0.000 0.000 0.000
v -0.10566 -0.77922 0.58968 0.000 0.000 0.000
v -0.10566 -0.78066 0.59508 0.000 0.000 0.000
v -0.10566 -0.84942 0.37512 0.000 0.000 0.000
v -0.10566 -0.84834 0.37044 0.000 0.000 0.000
v -0.10566 -0.84294 0.38034 0.000 0.000 0.000
v -0.10566 -0.84132 0.37530 0.000 0.000 0.000
v -0.10566 -0.84942 0.37512 0.000 0.000 0.000
v -0.10566 -0.84834 0.37044 0.000 0.000 0.000
v -0.10566 -0.85842 0.37206 0.000 0.000 0.000
v -0.10566 -0.85446 0.37584 0.000 0.000 0.000
v -0.10566 -0.85572 0.37998 0.000 0.000 0.000
v -0.10566 -0.86166 0.38160 0.000 0.000 0.000
v -0.10566 -0.85752 0.38502 0.000 0.000 0.000
v -0.10566 -0.85014 0.38124 0.000 0.000 0.000
v -0.10566 -0.85302 0.38502 0.000 0.000 0.000
v -0.10566 -0.85752 0.38502 0.000 0.000 0.000
v -0.10566 -0.85068 0.38826 0.000 0.000 0.000
v -0.10566 -0.84492 0.38664 0.000 0.000 0.000
v -0.10566 -0.85068 0.38826 0.000 0.000 0.000
v -0.10566 -0.84492 0.38664 0.000 0.000 0.000
v -0.10566 -0.85176 0.39186 0.000 0.000 0.000
v -0.10566 -0.84600 0.39528 0.000 0.000 0.000
v -0.10566 -0.85626 0.39870 0.000 0.000 0.000
v -0.10566 -0.85500 0.39348 0.000 0.000 0.000
v -0.10566 -0.85932 0.38880 0.000 0.000 0.000
v -0.10566 -0.86166 0.38160 0.000 0.000 0.000
v -0.10566 -0.86418 0.38952 0.000 0.000 0.000
v -0.10566 -0.85752 0.38502 0.000 0.000 0.000
v -0.10566 -0.85770 0.39168 0.000 0.000 0.000
v -0.10566 -0.85932 0.38880 0.000 0.000 0.000
v -0.10566 -0.86220 0.39582 0.000 0.000 0.000
v -0.10566 -0.86418 0.38952 0.000 0.000 0.000
v -0.10566 -0.85626 0.39870 0.000 0.000 0.000
v -0.10566 -0.85500 0.39348 0.000 0.000 0.000
v -0.10476 -0.79686 0.49320 0.000 0.000 0.000
v -0.10476 -0.78066 0.48204 0.000 0.000 0.000
v -0.10476 -0.78696 0.50580 0.000 0.000 0.000
v -0.10476 -0.77220 0.49986 0.000 0.000 0.000
v -0.10476 -0.80370 0.50076 0.000 0.000 0.000
v -0.10476 -0.80406 0.50976 0.000 0.000 0.000
v -0.10476 -0.80010 0.51426 0.000 0.000 0.000
v -0.10476 -0.79362 0.51300 0.000 0.000 0.000
v -0.10476 -0.77004 0.50976 0.000 0.000 0.000
v -0.10476 -0.77418 0.51768 0.000 0.000 0.000
v -0.10476 -0.77994 0.51948 0.000 0.000 0.000
v -0.10476 -0.78498 0.51534 0.000 0.000 0.000
v -0.10476 -0.85014 0.48888 0.000 0.000 0.000
v -0.10476 -0.84384 0.46512 0.000 0.000 0.000
v -0.10476 -0.83538 0.48294 0.000 0.000 0.000
v -0.10476 -0.86004 0.47628 0.000 0.000 0.000
v -0.10476 -0.83322 0.49284 0.000 0.000 0.000
v -0.10476 -0.83736 0.50076 0.000 0.000 0.000
v -0.10476 -0.84312 0.50256 0.000 0.000 0.000
v -0.10476 -0.84816 0.49842 0.000 0.000 0.000
v -0.10476 -0.86688 0.48384 0.000 0.000 0.000
v -0.10476 -0.86724 0.49284 0.000 0.000 0.000
v -0.10476 -0.86328 0.49734 0.000 0.000 0.000
v -0.10476 -0.85662 0.49608 0.000 0.000 0.000
v 0.12924 0.78138 2.91150 0.000 0.000 0.000
v 0.12924 0.82170 2.87406 0.000 0.000 0.000
v 0.12924 0.79560 2.97126 0.000 0.000 0.000
v 0.12924 0.83772 2.92662 0.000 0.000 0.000
v -0.19476 -0.92286 2.74050 0.000 0.000 0.000
v -0.19476 -0.93384 2.76102 0.000 0.000 0.000
v -0.19476 -0.93150 2.73816 0.000 0.000 0.000
v -0.19476 -0.90450 2.65140 0.000 0.000 0.000
v -0.19476 -0.89424 2.61324 0.000 0.000 0.000
v -0.19476 -0.88272 2.63718 0.000 0.000 0.000
v -0.19476 -0.91602 2.62836 0.000 0.000 0.000
v -0.19476 -0.87966 2.65068 0.000 0.000 0.000
v -0.19476 -0.88542 2.66148 0.000 0.000 0.000
v -0.19476 -0.89316 2.66400 0.000 0.000 0.000
v -0.19476 -0.90000 2.65824 0.000 0.000 0.000
v -0.19476 -0.92556 2.63844 0.000 0.000 0.000
v -0.19476 -0.92592 2.65068 0.000 0.000 0.000
v -0.19476 -0.92052 2.65662 0.000 0.000 0.000
v -0.19476 -0.91170 2.65518 0.000 0.000 0.000
v -0.19476 -0.91242 2.66706 0.000 0.000 0.000
v -0.19476 -0.90306 2.64618 0.000 0.000 0.000
v -0.19476 -0.90378 2.66940 0.000 0.000 0.000
v 0.37980 -1.21842 1.58850 0.000 0.000 0.000
v 0.37980 -1.21320 1.58364 0.000 0.000 0.000
v 0.37980 -1.21716 1.59822 0.000 0.000 0.000
v 0.37980 -1.22580 1.59678 0.000 0.000 0.000
v 0.37980 -1.22400 1.60398 0.000 0.000 0.000
v 0.37980 -1.21968 1.60758 0.000 0.000 0.000
v 0.37980 -1.22202 1.58004 0.000 0.000 0.000
v 0.37980 -1.22832 1.58706 0.000 0.000 0.000
v 0.37980 -1.21176 1.57806 0.000 0.000 0.000
v 0.37980 -1.22436 1.57266 0.000 0.000 0.000
v 0.37980 -1.22940 1.57500 0.000 0.000 0.000
v 0.37980 -1.23264 1.58112 0.000 0.000 0.000
v 0.37980 -1.21122 1.59030 0.000 0.000 0.000
v 0.37980 -1.21410 1.60668 0.000 0.000 0.000
v 0.37980 -1.20888 1.60128 0.000 0.000 0.000
v 0.37980 -1.20384 1.58490 0.000 0.000 0.000
v 0.37980 -1.19808 1.57968 0.000 0.000 0.000
v 0.37980 -1.19484 1.58418 0.000 0.000 0.000
v 0.37980 -1.20186 1.59426 0.000 0.000 0.000
v 0.37980 -1.19520 1.59102 0.000 0.000 0.000
v 0.37980 -1.21680 1.56672 0.000 0.000 0.000
v 0.37980 -1.20906 1.56798 0.000 0.000 0.000
v 0.37980 -1.21392 1.57320 0.000 0.000 0.000
v 0.37980 -1.21266 1.58130 0.000 0.000 0.000
v 0.37980 -1.20744 1.57482 0.000 0.000 0.000
v 0.37980 -1.20168 1.57068 0.000 0.000 0.000
v 0.37980 -1.27980 1.58148 0.000 0.000 0.000
v 0.37980 -1.27584 1.56690 0.000 0.000 0.000
v 0.37980 -1.27386 1.57356 0.000 0.000 0.000
v 0.37980 -1.27152 1.58454 0.000 0.000 0.000
v 0.37980 -1.27674 1.58994 0.000 0.000 0.000
v 0.37980 -1.28232 1.59084 0.000 0.000 0.000
v 0.37980 -1.26648 1.56816 0.000 0.000 0.000
v 0.37980 -1.26450 1.57752 0.000 0.000 0.000
v 0.37980 -1.27440 1.56132 0.000 0.000 0.000
v 0.37980 -1.26072 1.56276 0.000 0.000 0.000
v 0.37980 -1.25748 1.56744 0.000 0.000 0.000
v 0.37980 -1.25784 1.57428 0.000 0.000 0.000
v 0.37980 -1.28106 1.57176 0.000 0.000 0.000
v 0.37980 -1.28664 1.58724 0.000 0.000 0.000
v 0.37980 -1.28844 1.58004 0.000 0.000 0.000
v 0.37980 -1.28466 1.56330 0.000 0.000 0.000
v 0.37980 -1.28700 1.55574 0.000 0.000 0.000
v 0.37980 -1.29204 1.55808 0.000 0.000 0.000
v 0.37980 -1.29096 1.57032 0.000 0.000 0.000
v 0.37980 -1.29510 1.56438 0.000 0.000 0.000
v 0.37980 -1.27008 1.55808 0.000 0.000 0.000
v 0.37980 -1.27170 1.55124 0.000 0.000 0.000
v 0.37980 -1.26432 1.55394 0.000 0.000 0.000
v 0.37980 -1.27530 1.56456 0.000 0.000 0.000
v 0.37980 -1.27638 1.55646 0.000 0.000 0.000
v 0.37980 -1.27926 1.54980 0.000 0.000 0.000
v 0.37980 -1.18116 1.46412 0.000 0.000 0.000
v 0.37980 -1.18512 1.47870 0.000 0.000 0.000
v 0.37980 -1.18710 1.47204 0.000 0.000 0.000
v 0.37980 -1.18944 1.46106 0.000 0.000 0.000
v 0.37980 -1.18440 1.45566 0.000 0.000 0.000
v 0.37980 -1.17882 1.45494 0.000 0.000 0.000
v 0.37980 -1.19448 1.47744 0.000 0.000 0.000
v 0.37980 -1.19646 1.46826 0.000 0.000 0.000
v 0.37980 -1.18656 1.48428 0.000 0.000 0.000
v 0.37980 -1.20024 1.48284 0.000 0.000 0.000
v 0.37980 -1.20348 1.47816 0.000 0.000 0.000
v 0.37980 -1.20312 1.47132 0.000 0.000 0.000
v 0.37980 -1.18008 1.47402 0.000 0.000 0.000
v 0.37980 -1.17432 1.45836 0.000 0.000 0.000
v 0.37980 -1.17252 1.46556 0.000 0.000 0.000
v 0.37980 -1.17630 1.48230 0.000 0.000 0.000
v 0.37980 -1.17414 1.48986 0.000 0.000 0.000
v 0.37980 -1.16892 1.48752 0.000 0.000 0.000
v 0.37980 -1.17000 1.47528 0.000 0.000 0.000
v 0.37980 -1.16586 1.48140 0.000 0.000 0.000
v 0.37980 -1.19088 1.48752 0.000 0.000 0.000
v 0.37980 -1.18926 1.49436 0.000 0.000 0.000
v 0.37980 -1.19664 1.49184 0.000 0.000 0.000
v 0.37980 -1.18584 1.48104 0.000 0.000 0.000
v 0.37980 -1.18458 1.48932 0.000 0.000 0.000
v 0.37980 -1.18170 1.49580 0.000 0.000 0.000
v 0.37980 -1.24254 1.45710 0.000 0.000 0.000
v 0.37980 -1.24776 1.46196 0.000 0.000 0.000
v 0.37980 -1.24380 1.44738 0.000 0.000 0.000
v 0.37980 -1.23516 1.44882 0.000 0.000 0.000
v 0.37980 -1.23696 1.44162 0.000 0.000 0.000
v 0.37980 -1.24128 1.43802 0.000 0.000 0.000
v 0.37980 -1.23894 1.46556 0.000 0.000 0.000
v 0.37980 -1.23264 1.45854 0.000 0.000 0.000
v 0.37980 -1.24920 1.46754 0.000 0.000 0.000
v 0.37980 -1.23660 1.47312 0.000 0.000 0.000
v 0.37980 -1.23156 1.47078 0.000 0.000 0.000
v 0.37980 -1.22832 1.46448 0.000 0.000 0.000
v 0.37980 -1.24974 1.45530 0.000 0.000 0.000
v 0.37980 -1.24686 1.43892 0.000 0.000 0.000
v 0.37980 -1.25208 1.44432 0.000 0.000 0.000
v 0.37980 -1.25712 1.46070 0.000 0.000 0.000
v 0.37980 -1.26288 1.46610 0.000 0.000 0.000
v 0.37980 -1.26612 1.46142 0.000 0.000 0.000
v 0.37980 -1.25910 1.45134 0.000 0.000 0.000
v 0.37980 -1.26576 1.45458 0.000 0.000 0.000
v 0.37980 -1.24434 1.47906 0.000 0.000 0.000
v 0.37980 -1.25190 1.47762 0.000 0.000 0.000
v 0.37980 -1.24704 1.47240 0.000 0.000 0.000
v 0.37980 -1.24830 1.46430 0.000 0.000 0.000
v 0.37980 -1.25352 1.47078 0.000 0.000 0.000
v 0.37980 -1.25928 1.47492 0.000 0.000 0.000
vt 0.66406 0.50781
vt 0.38281 0.00781
vt 0.38281 0.99219
vt 0.99219 0.00781
vt 0.99219 0.99219
vt 0.34514 0.33421
vt 0.34513 0.22052
vt 0.34515 0.38801
vt 0.34515 0.38801
vt 0.34515 0.38801
vt 0.34515 0.38801
vt 0.34515 0.38801
vt 0.34515 0.38801
vt 0.34514 0.33421
vt 0.34515 0.38801
vt 0.34515 0.38801
vt 0.25744 0.78906
vt 0.22656 0.58594
vt 0.22656 0.99219
vt 0.28869 0.58594
vt 0.28869 0.99219
vt 0.27362 0.99219
vt 0.24113 0.58594
vt 0.24113 0.99219
vt 0.27362 0.58594
vt 0.24113 0.99219
vt 0.24113 0.58594
vt 0.27362 0.99219
vt 0.27362 0.58594
vt 0.27362 0.99219
vt 0.27362 0.58594
vt 0.24113 0.58594
vt 0.27362 0.99219
vt 0.24113 0.99219
vt 0.24113 0.58594
vt 0.27362 0.58594
vt 0.24113 0.99219
vt 0.27362 0.99219
vt 0.24113 0.58594
vt 0.27362 0.58594
vt 0.27362 0.58594
vt 0.27362 0.99219
vt 0.24113 0.58594
vt 0.34514 0.33421
vt 0.34513 0.22052
vt 0.34515 0.38801
vt 0.34515 0.38801
vt 0.34515 0.38801
vt 0.34515 0.38801
vt 0.34515 0.38801
vt 0.34515 0.38801
vt 0.34515 0.38801
vt 0.34515 0.38801
vt 0.34515 0.38801
vt 0.34513 0.22052
vt 0.34514 0.33421
vt 0.34515 0.38801
vt 0.34515 0.38801
vt 0.34515 0.38801
vt 0.34515 0.38801
vt 0.34515 0.38801
vt 0.34515 0.38801
vt 0.34515 0.38801
vt 0.66406 0.50781
vt 0.38281 0.00781
vt 0.38281 0.99219
vt 0.99219 0.00781
vt 0.99219 0.99219
vt 0.34514 0.33421
vt 0.34513 0.22052
vt 0.34515 0.38801
vt 0.34515 0.38801
vt 0.34515 0.38801
vt 0.34515 0.38801
vt 0.34515 0.38801
vt 0.34515 0.38801
vt 0.34514 0.33421
vt 0.34515 0.38801
vt 0.34515 0.38801
vt 0.25744 0.78906
vt 0.22656 0.58594
vt 0.22656 0.99219
vt 0.28869 0.58594
vt 0.28869 0.99219
vt 0.24113 0.58594
vt 0.24113 0.99219
vt 0.27362 0.99219
vt 0.27362 0.58594
vt 0.24113 0.58594
vt 0.27362 0.99219
vt 0.24113 0.99219
vt 0.27362 0.58594
vt 0.27362 0.99219
vt 0.24113 0.99219
vt 0.34514 0.33421
vt 0.34513 0.22052
vt 0.34515 0.38801
vt 0.34515 0.38801
vt 0.34515 0.38801
vt 0.34515 0.38801
vt 0.34515 0.38801
vt 0.34515 0.38801
vt 0.34515 0.38801
vt 0.34515 0.38801
vt 0.34515 0.38801
vt 0.34513 0.22052
vt 0.34514 0.33421
vt 0.34515 0.38801
vt 0.34515 0.38801
vt 0.34515 0.38801
vt 0.34515 0.38801
vt 0.34515 0.38801
vt 0.34515 0.38801
vt 0.34515 0.38801
vt 0.24113 0.58594
vt 0.27362 0.99219
vt 0.24113 0.99219
vt 0.27362 0.58594
vt 0.27362 0.99219
vt 0.24113 0.58594
vt 0.24113 0.99219
vt 0.27362 0.58594
vt 0.27362 0.99219
vt 0.24113 0.99219
vt 0.66406 0.50781
vt 0.38281 0.00781
vt 0.38281 0.99219
vt 0.99219 0.00781
vt 0.99219 0.99219
vt 0.34514 0.33421
vt 0.34513 0.22052
vt 0.34515 0.38801
vt 0.34515 0.38801
vt 0.34515 0.38801
vt 0.34515 0.38801
vt 0.34515 0.38801
vt 0.34515 0.38801
vt 0.34514 0.33421
vt 0.34515 0.38801
vt 0.34515 0.38801
vt 0.25744 0.78906
vt 0.22656 0.58594
vt 0.22656 0.99219
vt 0.28869 0.58594
vt 0.28869 0.99219
vt 0.24113 0.99219
vt 0.27362 0.99219
vt 0.24113 0.58594
vt 0.27362 0.58594
vt 0.34514 0.33421
vt 0.34513 0.22052
vt 0.34515 0.38801
vt 0.34515 0.38801
vt 0.34515 0.38801
vt 0.34515 0.38801
vt 0.34515 0.38801
vt 0.34515 0.38801
vt 0.34515 0.38801
vt 0.34515 0.38801
vt 0.34515 0.38801
vt 0.34513 0.22052
vt 0.34514 0.33421
vt 0.34515 0.38801
vt 0.34515 0.38801
vt 0.34515 0.38801
vt 0.34515 0.38801
vt 0.34515 0.38801
vt 0.34515 0.38801
vt 0.34515 0.38801
vt 0.13770 0.88114
vt 0.36659 0.99468
vt 0.36659 0.69948
vt 0.13770 0.88114
vt 0.00691 0.76761
vt 0.00691 0.67677
vt 0.10500 0.58594
vt 0.23580 0.58594
vt 0.00691 0.76761
vt 0.00691 0.67677
vt 0.10500 0.58594
vt 0.23580 0.58594
vt 0.24113 0.99219
vt 0.24113 0.58594
vt 0.27362 0.99219
vt 0.27362 0.58594
vt 0.27362 0.99219
vt 0.24113 0.99219
vt 0.27362 0.81529
vt 0.24113 0.69858
vt 0.27362 0.66619
vt 0.24113 0.58594
vt 0.27362 0.58594
vt 0.24113 0.58594
vt 0.24113 0.99219
vt 0.27362 0.99219
vt 0.27362 0.58594
vt 0.24113 0.58594
vt 0.27362 0.99219
vt 0.24113 0.99219
vt 0.27362 0.58594
vt 0.27362 0.81529
vt 0.27362 0.99219
vt 0.24113 0.99219
vt 0.24113 0.69858
vt 0.27362 0.66619
vt 0.24113 0.58594
vt 0.27362 0.58594
vt 0.66406 0.50781
vt 0.38281 0.00781
vt 0.38281 0.99219
vt 0.99219 0.00781
vt 0.99219 0.99219
vt 0.34514 0.33421
vt 0.34513 0.22052
vt 0.34515 0.38801
vt 0.34515 0.38801
vt 0.34515 0.38801
vt 0.34515 0.38801
vt 0.34515 0.38801
vt 0.34515 0.38801
vt 0.34514 0.33421
vt 0.34515 0.38801
vt 0.34515 0.38801
vt 0.25744 0.78906
vt 0.22656 0.58594
vt 0.22656 0.99219
vt 0.28869 0.58594
vt 0.28869 0.99219
vt 0.34514 0.33421
vt 0.34513 0.22052
vt 0.34515 0.38801
vt 0.34515 0.38801
vt 0.34515 0.38801
vt 0.34515 0.38801
vt 0.34515 0.38801
vt 0.34515 0.38801
vt 0.34515 0.38801
vt 0.34515 0.38801
vt 0.34515 0.38801
vt 0.34513 0.22052
vt 0.34514 0.33421
vt 0.34515 0.38801
vt 0.34515 0.38801
vt 0.34515 0.38801
vt 0.34515 0.38801
vt 0.34515 0.38801
vt 0.34515 0.38801
vt 0.34515 0.38801
vt 0.13770 0.69948
vt 0.36659 0.58594
vt 0.36659 0.88114
vt 0.13770 0.69948
vt 0.00691 0.81302
vt 0.00691 0.90385
vt 0.10500 0.99468
vt 0.23580 0.99468
vt 0.00691 0.81302
vt 0.00691 0.90385
vt 0.10500 0.99468
vt 0.23580 0.99468
vt 0.13770 0.69948
vt 0.36659 0.88114
vt 0.36659 0.58594
vt 0.13770 0.69948
vt 0.00691 0.81302
vt 0.00691 0.90385
vt 0.10500 0.99468
vt 0.23580 0.99468
vt 0.00691 0.81302
vt 0.00691 0.90385
vt 0.10500 0.99468
vt 0.23580 0.99468
vt 0.13770 0.69948
vt 0.36659 0.58594
vt 0.36659 0.88114
vt 0.13770 0.69948
vt 0.00691 0.81302
vt 0.00691 0.90385
vt 0.10500 0.99468
vt 0.23580 0.99468
vt 0.00691 0.81302
vt 0.00691 0.90385
vt 0.10500 0.99468
vt 0.23580 0.99468
vt 0.27362 0.99219
vt 0.24113 0.58594
vt 0.24113 0.99219
vt 0.27362 0.58594
vt 0.27362 0.99219
vt 0.24113 0.99219
vt 0.24113 0.58594
vt 0.27362 0.99219
vt 0.24113 0.99219
vt 0.27362 0.58594
vt 0.27362 0.81529
vt 0.27362 0.99219
vt 0.24113 0.99219
vt 0.24113 0.69858
vt 0.27362 0.66619
vt 0.27362 0.58594
vt 0.24113 0.58594
vt 0.27362 0.81529
vt 0.24113 0.99219
vt 0.27362 0.99219
vt 0.24113 0.69858
vt 0.66406 0.50781
vt 0.38281 0.00781
vt 0.38281 0.99219
vt 0.99219 0.00781
vt 0.99219 0.99219
vt 0.34514 0.33421
vt 0.34513 0.22052
vt 0.34515 0.38801
vt 0.34515 0.38801
vt 0.34515 0.38801
vt 0.34515 0.38801
vt 0.34515 0.38801
vt 0.34515 0.38801
vt 0.34514 0.33421
vt 0.34515 0.38801
vt 0.34515 0.38801
vt 0.25744 0.78906
vt 0.22656 0.58594
vt 0.22656 0.99219
vt 0.28869 0.58594
vt 0.28869 0.99219
vt 0.34514 0.33421
vt 0.34513 0.22052
vt 0.34515 0.38801
vt 0.34515 0.38801
vt 0.34515 0.38801
vt 0.34515 0.38801
vt 0.34515 0.38801
vt 0.34515 0.38801
vt 0.34515 0.38801
vt 0.34515 0.38801
vt 0.34515 0.38801
vt 0.34513 0.22052
vt 0.34514 0.33421
vt 0.34515 0.38801
vt 0.34515 0.38801
vt 0.34515 0.38801
vt 0.34515 0.38801
vt 0.34515 0.38801
vt 0.34515 0.38801
vt 0.34515 0.38801
vt 0.13770 0.69948
vt 0.36659 0.58594
vt 0.36659 0.88114
vt 0.13770 0.69948
vt 0.36659 0.88114
vt 0.36659 0.58594
vt 0.13770 0.69948
vt 0.13770 0.69948
vt 0.13770 0.69948
vt 0.36659 0.88114
vt 0.36659 0.58594
vt 0.13770 0.69948
vt 0.36659 0.58594
vt 0.36659 0.88114
vt 0.13770 0.69948
vt 0.13770 0.69948
vt 0.36659 0.88114
vt 0.36659 0.58594
vt 0.13770 0.69948
vt 0.13770 0.69948
vt 0.27362 0.99219
vt 0.24113 0.58594
vt 0.24113 0.99219
vt 0.27362 0.58594
vt 0.24113 0.58594
vt 0.27362 0.81529
vt 0.27362 0.66619
vt 0.27362 0.58594
vt 0.24113 0.69858
vt 0.27362 0.91075
vt 0.27362 0.99219
vt 0.24113 0.99219
vt 0.27362 0.99219
vt 0.24113 0.58594
vt 0.24113 0.99219
vt 0.27362 0.58594
vt 0.27362 0.99219
vt 0.24113 0.99219
vt 0.27362 0.81529
vt 0.24113 0.99219
vt 0.27362 0.99219
vt 0.24113 0.69858
vt 0.24113 0.99219
vt 0.27362 0.99219
vt 0.24113 0.58594
vt 0.27362 0.58594
vt 0.27362 0.66619
vt 0.24113 0.58594
vt 0.27362 0.81529
vt 0.27362 0.58594
vt 0.24113 0.69858
vt 0.27362 0.91075
vt 0.27362 0.99219
vt 0.24113 0.99219
vt 0.24113 0.99219
vt 0.27362 0.99219
vt 0.24113 0.58594
vt 0.27362 0.58594
vt 0.24113 0.99219
vt 0.27362 0.99219
vt 0.27362 0.81529
vt 0.24113 0.69858
vt 0.24113 0.99219
vt 0.27362 0.99219
vt 0.24113 0.58594
vt 0.24113 0.99219
vt 0.27362 0.58594
vt 0.27362 0.99219
vt 0.24113 0.99219
vt 0.27362 0.99219
vt 0.27362 0.81529
vt 0.24113 0.69858
vt 0.27362 0.66619
vt 0.27362 0.58594
vt 0.24113 0.58594
vt 0.24113 0.99219
vt 0.24113 0.58594
vt 0.27362 0.99219
vt 0.27362 0.58594
vt 0.27362 0.99219
vt 0.27362 0.81529
vt 0.24113 0.99219
vt 0.24113 0.69858
vt 0.66406 0.50781
vt 0.38281 0.00781
vt 0.38281 0.99219
vt 0.99219 0.00781
vt 0.99219 0.99219
vt 0.34514 0.33421
vt 0.34513 0.22052
vt 0.34515 0.38801
vt 0.34515 0.38801
vt 0.34515 0.38801
vt 0.34515 0.38801
vt 0.34515 0.38801
vt 0.34515 0.38801
vt 0.34514 0.33421
vt 0.34515 0.38801
vt 0.34515 0.38801
vt 0.25744 0.78906
vt 0.22656 0.58594
vt 0.22656 0.99219
vt 0.28869 0.58594
vt 0.28869 0.99219
vt 0.34514 0.33421
vt 0.34513 0.22052
vt 0.34515 0.38801
vt 0.34515 0.38801
vt 0.34515 0.38801
vt 0.34515 0.38801
vt 0.34515 0.38801
vt 0.34515 0.38801
vt 0.34515 0.38801
vt 0.34515 0.38801
vt 0.34515 0.38801
vt 0.34513 0.22052
vt 0.34514 0.33421
vt 0.34515 0.38801
vt 0.34515 0.38801
vt 0.34515 0.38801
vt 0.34515 0.38801
vt 0.34515 0.38801
vt 0.34515 0.38801
vt 0.34515 0.38801
vt 0.13770 0.69948
vt 0.36659 0.58594
vt 0.36659 0.88114
vt 0.13770 0.69948
vt 0.00691 0.81302
vt 0.00691 0.90385
vt 0.10500 0.99468
vt 0.23580 0.99468
vt 0.00691 0.81302
vt 0.00691 0.90385
vt 0.10500 0.99468
vt 0.23580 0.99468
vt 0.36659 0.88114
vt 0.36659 0.58594
vt 0.13770 0.69948
vt 0.13770 0.69948
vt 0.00691 0.81302
vt 0.00691 0.90385
vt 0.10500 0.99468
vt 0.23580 0.99468
vt 0.00691 0.81302
vt 0.00691 0.90385
vt 0.10500 0.99468
vt 0.23580 0.99468
vt 0.13770 0.69948
vt 0.36659 0.88114
vt 0.36659 0.58594
vt 0.13770 0.69948
vt 0.00691 0.81302
vt 0.00691 0.90385
vt 0.10500 0.99468
vt 0.23580 0.99468
vt 0.00691 0.81302
vt 0.00691 0.90385
vt 0.10500 0.99468
vt 0.23580 0.99468
vt 0.36659 0.58594
vt 0.36659 0.88114
vt 0.13770 0.69948
vt 0.13770 0.69948
vt 0.00691 0.81302
vt 0.00691 0.90385
vt 0.10500 0.99468
vt 0.23580 0.99468
vt 0.00691 0.81302
vt 0.00691 0.90385
vt 0.10500 0.99468
vt 0.23580 0.99468
vt 0.27362 0.99219
vt 0.24113 0.58594
vt 0.24113 0.99219
vt 0.27362 0.58594
vt 0.25710 0.69865
vt 0.27362 0.58594
vt 0.24113 0.58594
vt 0.27362 0.62093
vt 0.27362 0.66619
vt 0.27362 0.81529
vt 0.25609 0.91075
vt 0.24113 0.69858
vt 0.27362 0.91075
vt 0.27362 0.95528
vt 0.27362 0.99219
vt 0.24113 0.99219
vt 0.27362 0.99219
vt 0.24113 0.58594
vt 0.24113 0.99219
vt 0.27362 0.58594
vt 0.27362 0.99219
vt 0.24113 0.99219
vt 0.24113 0.58594
vt 0.25710 0.69865
vt 0.27362 0.66619
vt 0.27362 0.58594
vt 0.27362 0.81529
vt 0.24113 0.86758
vt 0.27362 0.91156
vt 0.24113 0.69858
vt 0.24113 0.99219
vt 0.27362 0.99219
vt 0.24113 0.99219
vt 0.27362 0.99219
vt 0.24113 0.58594
vt 0.27362 0.58594
vt 0.27362 0.58594
vt 0.24113 0.58594
vt 0.25710 0.69865
vt 0.27362 0.62093
vt 0.27362 0.66619
vt 0.27362 0.81529
vt 0.25609 0.91075
vt 0.24113 0.69858
vt 0.27362 0.95528
vt 0.27362 0.91075
vt 0.27362 0.99219
vt 0.24113 0.99219
vt 0.24113 0.99219
vt 0.27362 0.99219
vt 0.24113 0.58594
vt 0.27362 0.58594
vt 0.27362 0.99219
vt 0.24113 0.99219
vt 0.27362 0.66619
vt 0.24113 0.58594
vt 0.25710 0.69865
vt 0.27362 0.58594
vt 0.27362 0.91156
vt 0.27362 0.81529
vt 0.24113 0.86758
vt 0.24113 0.69858
vt 0.24113 0.99219
vt 0.27362 0.99219
vt 0.13770 0.69948
vt 0.36659 0.58594
vt 0.36659 0.88114
vt 0.13770 0.69948
vt 0.00691 0.81302
vt 0.00691 0.90385
vt 0.10500 0.99468
vt 0.23580 0.99468
vt 0.00691 0.81302
vt 0.00691 0.90385
vt 0.10500 0.99468
vt 0.23580 0.99468
vt 0.36659 0.88114
vt 0.36659 0.58594
vt 0.13770 0.69948
vt 0.13770 0.69948
vt 0.00691 0.81302
vt 0.00691 0.90385
vt 0.10500 0.99468
vt 0.23580 0.99468
vt 0.00691 0.81302
vt 0.00691 0.90385
vt 0.10500 0.99468
vt 0.23580 0.99468
vt 0.04049 0.75633
vt 0.36781 0.61895
vt 0.36781 0.97614
vt 0.04049 0.75633
vt 0.23580 0.58594
vt 0.36659 0.69948
vt 0.10500 0.58594
vt 0.36659 0.69948
vt 0.36659 0.99468
vt 0.13770 0.88114
vt 0.13770 0.88114
vt 0.00691 0.76761
vt 0.00691 0.67677
vt 0.10500 0.58594
vt 0.23580 0.58594
vt 0.00691 0.76761
vt 0.00691 0.67677
vt 0.10500 0.58594
vt 0.23580 0.58594
vt 0.10500 0.58594
vt 0.36659 0.69948
vt 0.23580 0.58594
vt 0.24762 0.61403
vt 0.36263 0.59122
vt 0.36263 0.86291
vt 0.02238 0.70972
vt 0.21888 0.98822
vt 0.36263 0.98822
vt 0.36263 0.86291
vt 0.02238 0.72216
vt 0.24762 0.61403
vt 0.02238 0.72216
vt 0.21888 0.98822
vt 0.36263 0.98822
vt 0.24762 0.61403
vt 0.21888 0.98822
vt 0.02238 0.70972
vt 0.36263 0.86291
vt 0.02238 0.72216
vt 0.21888 0.98822
vt 0.02238 0.72216
vt 0.36263 0.98822
vt 0.33303 0.59586
vt 0.01599 0.60069
vt 0.07725 0.64113
vt 0.02196 0.66887
vt 0.07725 0.64113
vt 0.33303 0.59586
vt 0.36263 0.86291
vt 0.36263 0.59122
vt 0.24762 0.61403
vt 0.02238 0.70972
vt 0.21888 0.98822
vt 0.36263 0.98822
vt 0.36263 0.86291
vt 0.02238 0.72216
vt 0.24762 0.61403
vt 0.02238 0.72216
vt 0.21888 0.98822
vt 0.36263 0.98822
vt 0.24762 0.61403
vt 0.21888 0.98822
vt 0.02238 0.70972
vt 0.36263 0.86291
vt 0.02238 0.72216
vt 0.21888 0.98822
vt 0.02238 0.72216
vt 0.36263 0.98822
vt 0.07725 0.64113
vt 0.01599 0.60069
vt 0.33303 0.59586
vt 0.02196 0.66887
vt 0.07725 0.64113
vt 0.33303 0.59586
vt 0.36263 0.86291
vt 0.36263 0.59122
vt 0.24762 0.61403
vt 0.02238 0.70972
vt 0.21888 0.98822
vt 0.36263 0.98822
vt 0.36263 0.86291
vt 0.02238 0.72216
vt 0.24762 0.61403
vt 0.02238 0.72216
vt 0.21888 0.98822
vt 0.36263 0.98822
vt 0.24762 0.61403
vt 0.21888 0.98822
vt 0.02238 0.70972
vt 0.36263 0.86291
vt 0.02238 0.72216
vt 0.21888 0.98822
vt 0.02238 0.72216
vt 0.36263 0.98822
vt 0.07725 0.64113
vt 0.01599 0.60069
vt 0.33303 0.59586
vt 0.02196 0.66887
vt 0.07725 0.64113
vt 0.33303 0.59586
vt 0.24762 0.61403
vt 0.36263 0.59122
vt 0.36263 0.86291
vt 0.02238 0.70972
vt 0.21888 0.98822
vt 0.36263 0.98822
vt 0.36263 0.86291
vt 0.02238 0.72216
vt 0.24762 0.61403
vt 0.02238 0.72216
vt 0.21888 0.98822
vt 0.36263 0.98822
vt 0.24762 0.61403
vt 0.21888 0.98822
vt 0.02238 0.70972
vt 0.36263 0.86291
vt 0.02238 0.72216
vt 0.21888 0.98822
vt 0.02238 0.72216
vt 0.36263 0.98822
vt 0.33303 0.59586
vt 0.01599 0.60069
vt 0.07725 0.64113
vt 0.02196 0.66887
vt 0.07725 0.64113
vt 0.33303 0.59586
usemtl m0
f 1/1 2/2 3/3
f 4/4 2/2 1/1
f 5/5 1/1 3/3
f 5/5 4/4 1/1
f 6/6 7/7 8/8
f 8/8 7/7 9/9
f 7/7 10/10 9/9
f 11/11 7/7 6/6
f 12/12 7/7 11/11
f 12/12 13/13 7/7
f 7/7 14/14 15/15
f 16/16 14/14 7/7
f 17/17 18/18 19/19
f 20/20 18/18 17/17
f 21/21 17/17 19/19
f 21/21 20/20 17/17
f 22/22 23/23 24/24
f 22/22 25/25 23/23
f 26/26 27/27 28/28
f 27/27 29/29 28/28
f 30/30 31/31 32/32
f 33/33 34/34 35/35
f 36/36 33/33 35/35
f 37/37 38/38 39/39
f 39/39 38/38 40/40
f 41/41 42/42 43/43
f 44/44 45/45 46/46
f 46/46 45/45 47/47
f 45/45 48/48 47/47
f 49/49 45/45 44/44
f 49/49 50/50 45/45
f 50/50 51/51 45/45
f 45/45 52/52 53/53
f 54/54 55/55 56/56
f 57/57 55/55 54/54
f 57/57 58/58 55/55
f 56/56 55/55 59/59
f 55/55 60/60 59/59
f 55/55 61/61 60/60
f 62/62 63/63 55/55
f 64/64 65/65 66/66
f 67/67 65/65 64/64
f 68/68 64/64 66/66
f 68/68 67/67 64/64
f 69/69 70/70 71/71
f 71/71 70/70 72/72
f 70/70 73/73 72/72
f 74/74 70/70 69/69
f 75/75 70/70 74/74
f 75/75 76/76 70/70
f 70/70 77/77 78/78
f 79/79 77/77 70/70
f 80/80 81/81 82/82
f 83/83 81/81 80/80
f 84/84 80/80 82/82
f 84/84 83/83 80/80
f 85/85 86/86 87/87
f 88/88 85/85 87/87
f 89/89 90/90 91/91
f 92/92 90/90 89/89
f 92/92 93/93 89/89
f 93/93 94/94 89/89
f 95/95 96/96 97/97
f 97/97 96/96 98/98
f 96/96 99/99 98/98
f 100/100 96/96 95/95
f 100/100 101/101 96/96
f 101/101 102/102 96/96
f 96/96 103/103 104/104
f 105/105 106/106 107/107
f 108/108 106/106 105/105
f 108/108 109/109 106/106
f 107/107 106/106 110/110
f 106/106 111/111 110/110
f 106/106 112/112 111/111
f 113/113 114/114 106/106
f 115/115 116/116 117/117
f 115/115 118/118 116/116
f 119/119 120/120 121/121
f 122/122 120/120 119/119
f 122/122 120/120 123/123
f 123/123 120/120 124/124
f 125/125 126/126 127/127
f 128/128 126/126 125/125
f 129/129 125/125 127/127
f 129/129 128/128 125/125
f 130/130 131/131 132/132
f 132/132 131/131 133/133
f 131/131 134/134 133/133
f 135/135 131/131 130/130
f 136/136 131/131 135/135
f 136/136 137/137 131/131
f 131/131 138/138 139/139
f 140/140 138/138 131/131
f 141/141 142/142 143/143
f 144/144 142/142 141/141
f 145/145 141/141 143/143
f 145/145 144/144 141/141
f 146/146 147/147 148/148
f 147/147 149/149 148/148
f 150/150 151/151 152/152
f 152/152 151/151 153/153
f 151/151 154/154 153/153
f 155/155 151/151 150/150
f 155/155 156/156 151/151
f 156/156 157/157 151/151
f 151/151 158/158 159/159
f 160/160 161/161 162/162
f 163/163 161/161 160/160
f 163/163 164/164 161/161
f 162/162 161/161 165/165
f 161/161 166/166 165/165
f 161/161 167/167 166/166
f 168/168 169/169 161/161
f 170/170 171/171 172/172
f 172/172 171/171 173/173
f 174/174 170/170 172/172
f 175/175 174/174 172/172
f 175/175 172/172 176/176
f 176/176 172/172 177/177
f 172/172 173/173 178/178
f 172/172 178/178 179/179
f 180/180 172/172 179/179
f 181/181 172/172 180/180
f 182/182 183/183 184/184
f 184/184 183/183 185/185
f 186/186 187/187 188/188
f 187/187 189/189 188/188
f 189/189 190/190 188/188
f 189/189 191/191 190/190
f 191/191 192/192 190/190
f 193/193 194/194 195/195
f 196/196 193/193 195/195
f 197/197 198/198 199/199
f 197/197 200/200 198/198
f 201/201 202/202 203/203
f 204/204 201/201 203/203
f 205/205 201/201 204/204
f 205/205 204/204 206/206
f 207/207 205/205 206/206
f 208/208 209/209 210/210
f 211/211 209/209 208/208
f 212/212 208/208 210/210
f 212/212 211/211 208/208
f 213/213 214/214 215/215
f 215/215 214/214 216/216
f 214/214 217/217 216/216
f 218/218 214/214 213/213
f 219/219 214/214 218/218
f 219/219 220/220 214/214
f 214/214 221/221 222/222
f 223/223 221/221 214/214
f 224/224 225/225 226/226
f 227/227 225/225 224/224
f 228/228 224/224 226/226
f 228/228 227/227 224/224
f 229/229 230/230 231/231
f 231/231 230/230 232/232
f 230/230 233/233 232/232
f 234/234 230/230 229/229
f 234/234 235/235 230/230
f 235/235 236/236 230/230
f 230/230 237/237 238/238
f 239/239 240/240 241/241
f 242/242 240/240 239/239
f 242/242 243/243 240/240
f 241/241 240/240 244/244
f 240/240 245/245 244/244
f 240/240 246/246 245/245
f 247/247 248/248 240/240
f 249/249 250/250 251/251
f 251/251 250/250 252/252
f 253/253 249/249 251/251
f 254/254 253/253 251/251
f 254/254 251/251 255/255
f 255/255 251/251 256/256
f 251/251 252/252 257/257
f 251/251 257/257 258/258
f 259/259 251/251 258/258
f 260/260 251/251 259/259
f 261/261 262/262 263/263
f 263/263 262/262 264/264
f 265/265 262/262 261/261
f 265/265 266/266 262/262
f 266/266 267/267 262/262
f 262/262 267/267 268/268
f 264/264 262/262 269/269
f 262/262 270/270 269/269
f 262/262 271/271 270/270
f 272/272 271/271 262/262
f 273/273 274/274 275/275
f 275/275 274/274 276/276
f 277/277 273/273 275/275
f 278/278 277/277 275/275
f 278/278 275/275 279/279
f 279/279 275/275 280/280
f 275/275 276/276 281/281
f 275/275 281/281 282/282
f 283/283 275/275 282/282
f 284/284 275/275 283/283
f 285/285 286/286 287/287
f 285/285 288/288 286/286
f 288/288 289/289 286/286
f 286/286 289/289 290/290
f 291/291 292/292 293/293
f 291/291 294/294 292/292
f 295/295 296/296 297/297
f 298/298 295/295 297/297
f 299/299 295/295 298/298
f 299/299 298/298 300/300
f 300/300 298/298 301/301
f 302/302 303/303 304/304
f 305/305 303/303 302/302
f 306/306 307/307 308/308
f 309/309 307/307 306/306
f 310/310 306/306 308/308
f 310/310 309/309 306/306
f 311/311 312/312 313/313
f 313/313 312/312 314/314
f 312/312 315/315 314/314
f 316/316 312/312 311/311
f 317/317 312/312 316/316
f 317/317 318/318 312/312
f 312/312 319/319 320/320
f 321/321 319/319 312/312
f 322/322 323/323 324/324
f 325/325 323/323 322/322
f 326/326 322/322 324/324
f 326/326 325/325 322/322
f 327/327 328/328 329/329
f 329/329 328/328 330/330
f 328/328 331/331 330/330
f 332/332 328/328 327/327
f 332/332 333/333 328/328
f 333/333 334/334 328/328
f 328/328 335/335 336/336
f 337/337 338/338 339/339
f 340/340 338/338 337/337
f 340/340 341/341 338/338
f 339/339 338/338 342/342
f 338/338 343/343 342/342
f 338/338 344/344 343/343
f 345/345 346/346 338/338
f 347/347 348/348 349/349
f 349/349 348/348 350/350
f 351/351 352/352 353/353
f 354/354 352/352 351/351
f 355/355 356/356 357/357
f 357/357 356/356 358/358
f 359/359 360/360 361/361
f 362/362 360/360 359/359
f 363/363 364/364 365/365
f 366/366 364/364 363/363
f 367/367 368/368 369/369
f 370/370 368/368 367/367
f 371/371 372/372 373/373
f 371/371 373/373 374/374
f 373/373 372/372 375/375
f 375/375 372/372 376/376
f 376/376 377/377 375/375
f 375/375 377/377 378/378
f 379/379 380/380 381/381
f 379/379 382/382 380/380
f 382/382 383/383 380/380
f 380/380 383/383 384/384
f 385/385 386/386 387/387
f 388/388 386/386 385/385
f 389/389 390/390 391/391
f 390/390 392/392 391/391
f 393/393 394/394 395/395
f 396/396 394/394 393/393
f 395/395 397/397 393/393
f 398/398 397/397 395/395
f 399/399 397/397 398/398
f 400/400 397/397 399/399
f 401/401 402/402 403/403
f 403/403 402/402 404/404
f 405/405 403/403 404/404
f 406/406 403/403 405/405
f 406/406 407/407 405/405
f 405/405 407/407 408/408
f 409/409 410/410 411/411
f 411/411 412/412 413/413
f 414/414 411/411 413/413
f 415/415 411/411 414/414
f 416/416 412/412 417/417
f 412/412 418/418 417/417
f 418/418 419/419 417/417
f 418/418 420/420 419/419
f 421/421 420/420 418/418
f 422/422 423/423 424/424
f 424/424 423/423 425/425
f 426/426 427/427 428/428
f 428/428 427/427 429/429
f 430/430 431/431 432/432
f 433/433 431/431 430/430
f 434/434 430/430 432/432
f 434/434 433/433 430/430
f 435/435 436/436 437/437
f 437/437 436/436 438/438
f 436/436 439/439 438/438
f 440/440 436/436 435/435
f 441/441 436/436 440/440
f 441/441 442/442 436/436
f 436/436 443/443 444/444
f 445/445 443/443 436/436
f 446/446 447/447 448/448
f 449/449 447/447 446/446
f 450/450 446/446 448/448
f 450/450 449/449 446/446
f 451/451 452/452 453/453
f 453/453 452/452 454/454
f 452/452 455/455 454/454
f 456/456 452/452 451/451
f 456/456 457/457 452/452
f 457/457 458/458 452/452
f 452/452 459/459 460/460
f 461/461 462/462 463/463
f 464/464 462/462 461/461
f 464/464 465/465 462/462
f 463/463 462/462 466/466
f 462/462 467/467 466/466
f 462/462 468/468 467/467
f 469/469 470/470 462/462
f 471/471 472/472 473/473
f 473/473 472/472 474/474
f 475/475 471/471 473/473
f 476/476 475/475 473/473
f 476/476 473/473 477/477
f 477/477 473/473 478/478
f 473/473 474/474 479/479
f 473/473 479/479 480/480
f 481/481 473/473 480/480
f 482/482 473/473 481/481
f 483/483 484/484 485/485
f 486/486 484/484 483/483
f 483/483 485/485 487/487
f 483/483 487/487 488/488
f 489/489 483/483 488/488
f 490/490 483/483 489/489
f 491/491 486/486 483/483
f 492/492 491/491 483/483
f 492/492 483/483 493/493
f 493/493 483/483 494/494
f 495/495 496/496 497/497
f 497/497 496/496 498/498
f 499/499 496/496 495/495
f 499/499 500/500 496/496
f 500/500 501/501 496/496
f 496/496 501/501 502/502
f 498/498 496/496 503/503
f 496/496 504/504 503/503
f 496/496 505/505 504/504
f 506/506 505/505 496/496
f 507/507 508/508 509/509
f 510/510 508/508 507/507
f 509/509 508/508 511/511
f 508/508 512/512 511/511
f 508/508 513/513 512/512
f 514/514 513/513 508/508
f 515/515 508/508 510/510
f 515/515 516/516 508/508
f 516/516 517/517 508/508
f 508/508 517/517 518/518
f 519/519 520/520 521/521
f 522/522 520/520 519/519
f 523/523 524/524 525/525
f 523/523 526/526 524/524
f 523/523 527/527 526/526
f 523/523 528/528 527/527
f 528/528 529/529 527/527
f 527/527 529/529 530/530
f 530/530 531/531 532/532
f 532/532 533/533 530/530
f 530/530 533/533 534/534
f 535/535 536/536 537/537
f 535/535 538/538 536/536
f 538/538 539/539 536/536
f 536/536 539/539 540/540
f 541/541 542/542 543/543
f 541/541 543/543 544/544
f 545/545 546/546 547/547
f 548/548 546/546 545/545
f 546/546 549/549 547/547
f 547/547 549/549 550/550
f 551/551 552/552 553/553
f 553/553 552/552 554/554
f 555/555 556/556 557/557
f 555/555 557/557 558/558
f 558/558 557/557 559/559
f 559/559 557/557 560/560
f 561/561 559/559 560/560
f 561/561 562/562 559/559
f 563/563 562/562 564/564
f 565/565 562/562 563/563
f 566/566 562/562 565/565
f 567/567 568/568 569/569
f 569/569 568/568 570/570
f 571/571 569/569 570/570
f 572/572 569/569 571/571
f 573/573 574/574 575/575
f 576/576 574/574 573/573
f 577/577 578/578 579/579
f 579/579 578/578 580/580
f 581/581 577/577 579/579
f 582/582 577/577 581/581
f 583/583 584/584 585/585
f 585/585 584/584 586/586
f 587/587 583/583 585/585
f 588/588 587/587 585/585
f 588/588 585/585 589/589
f 589/589 585/585 590/590
f 585/585 586/586 591/591
f 585/585 591/591 592/592
f 593/593 585/585 592/592
f 594/594 585/585 593/593
f 595/595 596/596 597/597
f 598/598 596/596 595/595
f 595/595 597/597 599/599
f 595/595 599/599 600/600
f 601/601 595/595 600/600
f 602/602 595/595 601/601
f 603/603 598/598 595/595
f 604/604 603/603 595/595
f 604/604 595/595 605/605
f 605/605 595/595 606/606
f 607/607 608/608 609/609
f 609/609 608/608 610/610
f 611/611 612/612 613/613
f 614/614 615/615 616/616
f 617/617 615/615 614/614
f 614/614 616/616 618/618
f 614/614 618/618 619/619
f 620/620 614/614 619/619
f 621/621 614/614 620/620
f 622/622 617/617 614/614
f 623/623 622/622 614/614
f 623/623 614/614 624/624
f 624/624 614/614 625/625
f 626/626 627/627 628/628
f 629/629 630/630 631/631
f 632/632 629/629 631/631
f 632/632 631/631 633/633
f 633/633 631/631 634/634
f 635/635 630/630 629/629
f 636/636 635/635 629/629
f 635/635 637/637 630/630
f 635/635 638/638 637/637
f 639/639 638/638 635/635
f 640/640 635/635 636/636
f 640/640 639/639 635/635
f 631/631 630/630 641/641
f 634/634 631/631 642/642
f 642/642 631/631 643/643
f 631/631 641/641 643/643
f 641/641 630/630 644/644
f 630/630 637/637 644/644
f 637/637 645/645 644/644
f 644/644 645/645 646/646
f 641/641 644/644 647/647
f 647/647 644/644 648/648
f 644/644 646/646 648/648
f 649/649 650/650 651/651
f 651/651 650/650 652/652
f 652/652 650/650 653/653
f 653/653 650/650 654/654
f 655/655 656/656 657/657
f 655/655 657/657 658/658
f 659/659 655/655 658/658
f 660/660 655/655 659/659
f 657/657 656/656 661/661
f 657/657 661/661 662/662
f 656/656 663/663 661/661
f 663/663 664/664 661/661
f 661/661 664/664 665/665
f 662/662 661/661 666/666
f 661/661 665/665 666/666
f 667/667 656/656 655/655
f 668/668 655/655 660/660
f 669/669 655/655 668/668
f 669/669 667/667 655/655
f 670/670 656/656 667/667
f 670/670 663/663 656/656
f 670/670 671/671 663/663
f 672/672 671/671 670/670
f 673/673 670/670 667/667
f 674/674 670/670 673/673
f 674/674 672/672 670/670
f 675/675 676/676 677/677
f 678/678 676/676 675/675
f 679/679 676/676 678/678
f 680/680 676/676 679/679
f 681/681 682/682 683/683
f 681/681 683/683 684/684
f 685/685 681/681 684/684
f 686/686 681/681 685/685
f 683/683 682/682 687/687
f 683/683 687/687 688/688
f 682/682 689/689 687/687
f 689/689 690/690 687/687
f 687/687 690/690 691/691
f 688/688 687/687 692/692
f 687/687 691/691 692/692
f 693/693 682/682 681/681
f 694/694 681/681 686/686
f 695/695 681/681 694/694
f 695/695 693/693 681/681
f 696/696 682/682 693/693
f 696/696 689/689 682/682
f 696/696 697/697 689/689
f 698/698 697/697 696/696
f 699/699 696/696 693/693
f 700/700 696/696 699/699
f 700/700 698/698 696/696
f 701/701 702/702 703/703
f 704/704 702/702 701/701
f 705/705 702/702 704/704
f 706/706 702/702 705/705
f 707/707 708/708 709/709
f 710/710 707/707 709/709
f 710/710 709/709 711/711
f 711/711 709/709 712/712
f 713/713 708/708 707/707
f 714/714 713/713 707/707
f 713/713 715/715 708/708
f 713/713 716/716 715/715
f 717/717 716/716 713/713
f 718/718 713/713 714/714
f 718/718 717/717 713/713
f 709/709 708/708 719/719
f 712/712 709/709 720/720
f 720/720 709/709 721/721
f 709/709 719/719 721/721
f 719/719 708/708 722/722
f 708/708 715/715 722/722
f 715/715 723/723 722/722
f 722/722 723/723 724/724
f 719/719 722/722 725/725
f 725/725 722/722 726/726
f 722/722 724/724 726/726
f 727/727 728/728 729/729
f 729/729 728/728 730/730
f 730/730 728/728 731/731
f 731/731 728/728 732/732
