mtllib arms7132.mtl
o arms7132
v -1.70035 -0.37750 1.87736 0.902 0.000 0.000
v -1.70767 -0.41051 2.23126 0.902 0.000 0.000
v -1.65600 0.00000 1.06699 0.769 0.000 0.000
v -1.65600 0.00000 2.46105 0.769 0.000 0.000
v -1.68138 -0.29133 1.52131 0.851 0.000 0.000
v -1.68138 -0.29133 2.27669 0.859 0.000 0.000
v -1.66232 -0.14544 2.35960 0.820 0.000 0.000
v -1.66232 -0.14544 1.22485 0.820 0.000 0.000
v -1.71708 -0.28663 1.36053 0.859 0.000 0.000
v -1.74655 -0.41956 1.87736 0.902 0.000 0.000
v -1.75319 -0.44953 2.26168 0.902 0.000 0.000
v -1.71708 -0.28663 2.32409 0.859 0.000 0.000
v -1.69828 -0.14386 2.40775 0.820 0.000 0.000
v -1.69828 -0.14386 1.13935 0.820 0.000 0.000
v -1.69200 0.00000 0.99747 0.769 0.000 0.000
v -1.69200 0.00000 2.52047 0.769 0.000 0.000
v -1.69225 -0.34099 1.68208 0.878 0.000 0.000
v -1.73891 -0.38513 1.68208 0.878 0.000 0.000
v -1.70572 -0.40174 2.06192 0.902 0.000 0.000
v -1.75112 -0.44019 2.06192 0.902 0.000 0.000
v -1.67400 0.00000 1.06699 0.000 0.000 0.890
v -1.68030 -0.14465 1.22485 0.000 0.000 0.910
v -1.67400 0.00000 1.87736 0.000 0.000 0.710
v -1.68030 -0.14465 1.87736 0.000 0.000 0.780
v -1.68030 -0.14465 2.35960 0.000 0.000 0.910
v -1.67400 0.00000 2.46105 0.000 0.000 0.922
v -1.69923 -0.28897 1.52131 0.000 0.000 0.910
v -1.69923 -0.28897 1.87736 0.000 0.000 0.871
v -1.69923 -0.28897 2.27669 0.000 0.000 0.929
v -1.70983 -0.33709 1.68208 0.000 0.000 0.922
v -1.71792 -0.37359 1.87736 0.000 0.000 0.922
v -1.72330 -0.39785 2.06192 0.000 0.000 0.910
v -1.72524 -0.40662 2.23126 0.000 0.000 0.980
v -1.72800 0.00000 2.52047 0.745 0.000 0.000
v -1.72800 0.00000 0.99747 0.796 0.000 0.000
v -1.78169 -0.41177 1.87736 0.925 0.000 0.000
v -1.77406 -0.37733 1.68208 0.906 0.000 0.000
v -1.75277 -0.28193 1.36053 0.886 0.000 0.000
v -1.78834 -0.44174 2.26168 0.875 0.000 0.000
v -1.78627 -0.43240 2.06192 0.925 0.000 0.000
v -1.75277 -0.28193 2.32409 0.835 0.000 0.000
v -1.73425 -0.14229 2.40775 0.796 0.000 0.000
v -1.73425 -0.14229 1.13935 0.843 0.000 0.000
v -1.66724 -0.05184 1.55693 0.000 0.875 0.000
v -1.66602 -0.02399 1.75927 0.000 0.875 0.000
v -1.66500 0.00000 1.55693 0.000 0.776 0.000
v -1.66500 0.00000 1.67209 0.000 0.776 0.000
v -1.67051 -0.12676 1.52089 0.000 0.875 0.000
v -1.67051 -0.12676 1.55693 0.000 0.875 0.000
v -1.66500 0.00000 1.52089 0.000 0.733 0.000
v -1.66500 0.00000 1.14131 0.000 0.757 0.000
v -1.66500 0.00000 1.48487 0.000 0.816 0.000
v -1.66607 -0.02509 1.23773 0.000 0.835 0.000
v -1.66500 0.00000 2.37587 0.000 0.855 0.000
v -1.66908 -0.09394 2.24491 0.000 0.867 0.000
v -1.66500 0.00000 2.18646 0.000 0.733 0.000
v -1.66932 -0.09950 2.11408 0.000 0.855 0.000
v -1.67107 -0.13954 2.21443 0.000 0.875 0.000
v -1.66972 -0.10870 2.18646 0.000 0.855 0.000
v -1.67074 -0.13196 2.16427 0.000 0.875 0.000
v -1.66753 -0.05863 2.04678 0.000 0.843 0.000
v -1.66770 -0.06242 1.67209 0.000 0.875 0.000
v -1.66651 -0.03519 1.64356 0.000 0.875 0.000
v -1.66651 -0.03519 1.70060 0.000 0.855 0.000
v -1.66593 -0.02183 1.59856 0.000 0.875 0.000
v -1.66650 -0.03505 1.97262 0.000 0.867 0.000
v -1.66755 -0.05904 2.31113 0.000 0.855 0.000
v -1.66777 -0.06394 1.48487 0.000 0.875 0.000
v -1.66856 -0.08212 1.52089 0.000 0.875 0.000
v -1.66570 -0.01658 1.33542 0.000 0.843 0.000
v -1.66945 -0.10240 1.38708 0.000 0.824 0.000
v -1.66680 -0.04172 1.48487 0.000 0.875 0.000
v -1.66711 -0.04883 1.41439 0.000 0.875 0.000
v -1.66765 -0.06122 1.43255 0.000 0.875 0.000
v -1.67131 -0.14504 1.40465 0.000 0.784 0.000
v -1.67509 -0.17458 1.41664 0.000 0.784 0.000
v -1.67509 -0.17458 1.36953 0.000 0.816 0.000
v -1.66991 -0.11297 1.44535 0.000 0.816 0.000
v -1.67043 -0.12505 1.41550 0.000 0.816 0.000
v -1.67032 -0.12244 1.36541 0.000 0.824 0.000
v -1.67032 -0.12244 1.34647 0.000 0.824 0.000
v -1.66977 -0.10980 1.37169 0.000 0.824 0.000
v -1.66921 -0.09704 1.36165 0.000 0.824 0.000
v -1.67131 -0.14504 1.37862 0.000 0.816 0.000
v -1.67131 -0.14504 1.35106 0.000 0.816 0.000
v -1.66863 -0.08370 1.42742 0.000 0.835 0.000
v -1.66863 -0.08370 1.40314 0.000 0.835 0.000
v -1.66622 -0.02864 1.44675 0.000 0.835 0.000
v -1.66694 -0.04509 1.45559 0.000 0.835 0.000
v -1.66802 -0.06984 1.28075 0.000 0.765 0.000
v -1.66802 -0.06977 1.35079 0.000 0.824 0.000
v -1.66551 -0.01238 1.43800 0.000 0.835 0.000
v -1.66639 -0.03242 1.33866 0.000 0.824 0.000
v -1.66822 -0.07443 1.31222 0.000 0.784 0.000
v -1.66720 -0.05090 1.30511 0.000 0.784 0.000
v -1.66623 -0.02887 1.20193 0.000 0.796 0.000
v -1.66725 -0.05202 1.21126 0.000 0.796 0.000
v -1.66666 -0.03859 1.21738 0.000 0.796 0.000
v -1.66736 -0.05474 1.26126 0.000 0.824 0.000
v -1.66663 -0.03803 1.25352 0.000 0.824 0.000
v -1.66581 -0.01912 1.27705 0.000 0.824 0.000
v -1.66637 -0.03202 1.28842 0.000 0.843 0.000
v -1.66764 -0.06115 1.23629 0.000 0.784 0.000
v -1.66680 -0.04189 1.23629 0.000 0.784 0.000
v -1.67012 -0.11794 1.55693 0.000 0.875 0.000
v -1.66987 -0.11223 1.62999 0.000 0.824 0.000
v -1.66861 -0.08336 1.64399 0.000 0.824 0.000
v -1.66900 -0.09229 1.60846 0.000 0.835 0.000
v -1.66775 -0.06361 1.61948 0.000 0.835 0.000
v -1.66987 -0.11223 1.65134 0.000 0.824 0.000
v -1.66843 -0.07920 1.82731 0.000 0.796 0.000
v -1.66767 -0.06172 1.83274 0.000 0.796 0.000
v -1.67581 -0.18004 1.95583 0.000 0.875 0.000
v -1.67442 -0.16951 1.96783 0.000 0.875 0.000
v -1.66731 -0.05348 1.78416 0.000 0.824 0.000
v -1.66816 -0.07290 1.78416 0.000 0.824 0.000
v -1.66727 -0.05263 1.73763 0.000 0.875 0.000
v -1.66816 -0.07306 1.73763 0.000 0.875 0.000
v -1.66769 -0.06228 1.68917 0.000 0.816 0.000
v -1.66861 -0.08336 1.68917 0.000 0.816 0.000
v -1.66918 -0.09641 1.86998 0.000 0.784 0.000
v -1.66855 -0.08185 1.88190 0.000 0.784 0.000
v -1.67064 -0.12967 1.90971 0.000 0.875 0.000
v -1.67019 -0.11948 1.93271 0.000 0.875 0.000
v -1.68078 -0.21780 1.96763 0.000 0.816 0.000
v -1.67471 -0.17167 1.99874 0.000 0.816 0.000
v -1.69072 -0.29248 2.04280 0.000 0.875 0.000
v -1.68222 -0.22871 2.12416 0.000 0.843 0.000
v -1.68250 -0.23083 2.00918 0.000 0.835 0.000
v -1.67857 -0.20097 2.02806 0.000 0.835 0.000
v -1.68037 -0.21470 2.06159 0.000 0.875 0.000
v -1.68066 -0.21686 2.09493 0.000 0.867 0.000
v -1.70030 -0.33568 2.03580 0.000 0.835 0.000
v -1.69511 -0.31228 2.07605 0.000 0.843 0.000
v -1.69335 -0.30433 2.00054 0.000 0.804 0.000
v -1.68860 -0.27716 2.11045 0.000 0.855 0.000
v -1.68222 -0.22871 2.16549 0.000 0.816 0.000
v -1.67871 -0.20210 2.12216 0.000 0.816 0.000
v -1.68062 -0.21654 2.14101 0.000 0.816 0.000
v -1.68790 -0.27187 2.14511 0.000 0.824 0.000
v -1.67131 -0.14504 1.99355 0.000 0.843 0.000
v -1.67120 -0.14265 2.02388 0.000 0.824 0.000
v -1.66963 -0.10656 1.99355 0.000 0.843 0.000
v -1.66971 -0.10838 2.08931 0.000 0.796 0.000
v -1.66942 -0.10190 2.02388 0.000 0.824 0.000
v -1.67131 -0.14504 1.90971 0.000 0.875 0.000
v -1.67681 -0.18767 1.89985 0.000 0.824 0.000
v -1.67778 -0.19498 1.93644 0.000 0.824 0.000
v -1.68573 -0.25537 1.88662 0.000 0.784 0.000
v -1.68278 -0.23296 1.92125 0.000 0.784 0.000
v -1.67131 -0.14504 1.93277 0.000 0.875 0.000
v -1.67131 -0.14504 1.82140 0.000 0.855 0.000
v -1.67131 -0.14504 1.78252 0.000 0.816 0.000
v -1.68091 -0.21877 1.80380 0.000 0.804 0.000
v -1.68091 -0.21877 1.85683 0.000 0.804 0.000
v -1.66985 -0.11158 1.76548 0.000 0.843 0.000
v -1.67071 -0.13127 1.75109 0.000 0.843 0.000
v -1.66950 -0.10372 1.70332 0.000 0.867 0.000
v -1.67038 -0.12380 1.70332 0.000 0.867 0.000
v -1.67131 -0.14504 1.65134 0.000 0.816 0.000
v -1.67624 -0.18331 1.59259 0.000 0.855 0.000
v -1.68132 -0.22185 1.64207 0.000 0.855 0.000
v -1.67983 -0.21060 1.65757 0.000 0.855 0.000
v -1.67432 -0.16870 1.59601 0.000 0.855 0.000
v -1.69534 -0.31333 1.76713 0.000 0.804 0.000
v -1.68597 -0.25720 1.75646 0.000 0.804 0.000
v -1.68756 -0.26928 1.65946 0.000 0.843 0.000
v -1.68381 -0.24077 1.68169 0.000 0.843 0.000
v -1.68063 -0.21663 1.54805 0.000 0.824 0.000
v -1.68063 -0.21663 1.51155 0.000 0.824 0.000
v -1.67695 -0.18871 1.56101 0.000 0.843 0.000
v -1.67529 -0.17609 1.53470 0.000 0.835 0.000
v -1.68369 -0.23985 1.58065 0.000 0.776 0.000
v -1.68737 -0.26788 1.58065 0.000 0.796 0.000
v -1.68369 -0.23985 1.55785 0.000 0.804 0.000
v -1.68608 -0.25805 1.53018 0.000 0.804 0.000
v -1.68737 -0.26788 1.55785 0.000 0.796 0.000
v -1.68369 -0.23985 1.60718 0.000 0.824 0.000
v -1.68110 -0.22021 1.56551 0.000 0.824 0.000
v -1.68020 -0.21335 1.58476 0.000 0.824 0.000
v -1.68202 -0.22721 1.57835 0.000 0.784 0.000
v -1.68647 -0.26102 1.84181 0.000 0.784 0.000
v -1.68424 -0.24406 1.78495 0.000 0.784 0.000
v -1.69485 -0.31113 1.72042 0.000 0.816 0.000
v -1.68597 -0.25720 1.72042 0.000 0.816 0.000
v -1.67606 -0.18193 1.80380 0.000 0.835 0.000
v -1.67606 -0.18193 1.85085 0.000 0.835 0.000
v -1.67009 -0.11718 1.95669 0.000 0.875 0.000
v -1.67131 -0.14504 1.95669 0.000 0.875 0.000
v -1.67070 -0.13124 2.05659 0.000 0.796 0.000
v -1.66949 -0.10334 2.05659 0.000 0.796 0.000
v -1.68206 -0.22750 1.89394 0.000 0.784 0.000
v -1.69072 -0.29248 1.81004 0.000 0.784 0.000
v -1.67808 -0.19728 1.61923 0.000 0.875 0.000
v -1.67599 -0.18139 1.62882 0.000 0.875 0.000
v -1.67412 -0.16717 1.56101 0.000 0.843 0.000
v -1.68118 -0.22079 1.60099 0.000 0.824 0.000
v -1.68591 -0.25672 1.60099 0.000 0.796 0.000
v -1.68454 -0.24631 1.56926 0.000 0.776 0.000
v -1.67788 -0.19579 1.51745 0.000 0.816 0.000
v -1.68366 -0.23965 1.51745 0.000 0.816 0.000
v -1.69072 -0.29248 1.68169 0.000 0.843 0.000
v -1.66925 -0.09794 1.58168 0.000 0.875 0.000
v -1.66722 -0.05153 1.58198 0.000 0.875 0.000
v -1.67476 -0.17204 1.78913 0.000 0.804 0.000
v -1.67202 -0.15122 1.71295 0.000 0.855 0.000
v -1.67421 -0.16787 1.69196 0.000 0.855 0.000
v -1.67572 -0.17932 1.76548 0.000 0.796 0.000
v -1.68000 -0.21190 1.76519 0.000 0.796 0.000
v -1.67419 -0.16771 1.70743 0.000 0.855 0.000
v -1.67923 -0.20601 1.71074 0.000 0.824 0.000
v -1.67651 -0.18538 1.73810 0.000 0.804 0.000
v -1.68040 -0.21487 1.73848 0.000 0.804 0.000
v -1.67609 -0.18220 1.72233 0.000 0.824 0.000
v -1.67756 -0.19330 1.78335 0.000 0.796 0.000
v -1.67708 -0.18972 1.69634 0.000 0.843 0.000
v -1.67196 -0.15082 1.61312 0.000 0.784 0.000
v -1.66701 -0.04675 1.38769 0.000 0.875 0.000
v -1.66588 -0.02074 1.38042 0.000 0.875 0.000
v -1.67131 -0.14504 1.63355 0.000 0.816 0.000
v -1.67233 -0.15361 1.62439 0.000 0.784 0.000
v -1.67323 -0.16042 1.64381 0.000 0.816 0.000
v -1.67366 -0.16375 1.62439 0.000 0.784 0.000
v -1.66643 -0.03346 1.57313 0.000 0.875 0.000
v -1.69072 -0.29248 2.07605 0.000 0.867 0.000
v -1.69335 -0.30433 2.02464 0.000 0.835 0.000
v -1.69852 -0.32769 2.01238 0.000 0.804 0.000
v -1.67806 -0.19712 2.14101 0.000 0.816 0.000
v -1.68546 -0.25337 2.16049 0.000 0.824 0.000
v -1.67976 -0.21002 2.15824 0.000 0.816 0.000
v -1.69890 -0.32938 2.08449 0.000 0.816 0.000
v -1.69072 -0.29248 2.12058 0.000 0.835 0.000
v -1.70047 -0.33647 2.12150 0.000 0.745 0.000
v -1.69476 -0.31070 2.14952 0.000 0.804 0.000
v -1.69178 -0.29725 2.14452 0.000 0.804 0.000
v -1.69347 -0.30490 2.19224 0.000 0.733 0.000
v -1.69100 -0.29376 2.17046 0.000 0.816 0.000
v -1.69143 -0.29570 2.15086 0.000 0.843 0.000
v -1.69909 -0.33023 2.21396 0.000 0.784 0.000
v -1.69485 -0.31113 2.19015 0.000 0.824 0.000
v -1.69429 -0.30857 2.17046 0.000 0.824 0.000
v -1.70310 -0.34834 2.17219 0.000 0.784 0.000
v -1.69818 -0.32612 2.11077 0.000 0.816 0.000
v -1.69547 -0.31394 2.09579 0.000 0.816 0.000
v -1.69247 -0.30038 2.09119 0.000 0.835 0.000
v -1.69886 -0.32922 2.05862 0.000 0.843 0.000
v -1.69806 -0.32562 2.14155 0.000 0.784 0.000
v -1.69607 -0.31662 2.12769 0.000 0.824 0.000
v -1.69873 -0.32863 2.18527 0.000 0.784 0.000
v -1.69072 -0.29248 2.13178 0.000 0.824 0.000
v -1.69547 -0.31394 2.11835 0.000 0.816 0.000
v -1.67368 -0.23279 1.36053 0.839 0.000 0.000
v -1.69153 -0.23045 1.36053 0.000 0.000 0.929
v -1.72930 -0.34178 1.52131 0.890 0.000 0.000
v -1.76445 -0.33399 1.52131 0.914 0.000 0.000
v -1.70621 -0.20410 1.22485 0.820 0.000 0.000
v -1.74190 -0.19940 1.22485 0.843 0.000 0.000
v -1.73425 -0.14229 2.35960 0.675 0.000 0.000
v -1.72800 0.00000 2.46105 0.682 0.000 0.000
v -1.77064 -0.36191 1.87736 0.655 0.000 0.000
v -1.75277 -0.28193 1.52131 0.929 0.000 0.000
v -1.73425 -0.14229 1.22485 0.941 0.000 0.000
v -1.72800 0.00000 1.06699 0.949 0.000 0.000
v -1.75277 -0.28193 2.27669 0.671 0.000 0.000
v -1.77796 -0.39494 2.23126 0.910 0.000 0.000
v -1.77602 -0.38617 2.06192 0.655 0.000 0.000
v -1.74506 -0.22340 1.36053 0.675 0.000 0.000
v -1.76255 -0.32540 1.68208 0.663 0.000 0.000
v -1.67067 -0.13041 1.67292 0.000 0.824 0.000
v -1.68583 -0.25616 2.03112 0.000 0.875 0.000
v -1.69072 -0.29248 1.75646 0.000 0.804 0.000
v -1.69072 -0.29248 1.72042 0.000 0.816 0.000
v -1.67131 -0.14504 1.44133 0.000 0.804 0.000
v -1.68030 0.14465 1.22485 0.000 0.000 0.910
v -1.68030 0.14465 1.87736 0.000 0.000 0.780
v -1.68030 0.14465 2.35960 0.000 0.000 0.910
v -1.69153 0.23045 1.36053 0.000 0.000 0.929
v -1.69923 0.28897 1.52131 0.000 0.000 0.910
v -1.69923 0.28897 1.87736 0.000 0.000 0.871
v -1.69923 0.28897 2.27669 0.000 0.000 0.929
v -1.70983 0.33709 1.68208 0.000 0.000 0.922
v -1.71792 0.37359 1.87736 0.000 0.000 0.922
v -1.72330 0.39785 2.06192 0.000 0.000 0.910
v -1.72524 0.40662 2.23126 0.000 0.000 0.980
v -1.73891 0.38513 1.68208 0.878 0.000 0.000
v -1.74655 0.41956 1.87736 0.902 0.000 0.000
v -1.70035 0.37750 1.87736 0.902 0.000 0.000
v -1.69225 0.34099 1.68208 0.878 0.000 0.000
v -1.71708 0.28663 1.36053 0.859 0.000 0.000
v -1.72930 0.34178 1.52131 0.890 0.000 0.000
v -1.68138 0.29133 1.52131 0.851 0.000 0.000
v -1.75319 0.44953 2.26168 0.902 0.000 0.000
v -1.70767 0.41051 2.23126 0.902 0.000 0.000
v -1.75112 0.44019 2.06192 0.902 0.000 0.000
v -1.70572 0.40174 2.06192 0.902 0.000 0.000
v -1.68138 0.29133 2.27669 0.859 0.000 0.000
v -1.71708 0.28663 2.32409 0.859 0.000 0.000
v -1.66232 0.14544 2.35960 0.820 0.000 0.000
v -1.69828 0.14386 2.40775 0.820 0.000 0.000
v -1.69828 0.14386 1.13935 0.820 0.000 0.000
v -1.70621 0.20410 1.22485 0.820 0.000 0.000
v -1.66232 0.14544 1.22485 0.820 0.000 0.000
v -1.67368 0.23279 1.36053 0.839 0.000 0.000
v -1.73425 0.14229 2.40775 0.796 0.000 0.000
v -1.75277 0.28193 2.32409 0.835 0.000 0.000
v -1.78834 0.44174 2.26168 0.875 0.000 0.000
v -1.78627 0.43240 2.06192 0.925 0.000 0.000
v -1.78169 0.41177 1.87736 0.925 0.000 0.000
v -1.77406 0.37733 1.68208 0.906 0.000 0.000
v -1.75277 0.28193 1.36053 0.886 0.000 0.000
v -1.76445 0.33399 1.52131 0.914 0.000 0.000
v -1.73425 0.14229 1.13935 0.843 0.000 0.000
v -1.74190 0.19940 1.22485 0.843 0.000 0.000
v -1.66602 0.02399 1.75927 0.000 0.875 0.000
v -1.66651 0.03519 1.70060 0.000 0.855 0.000
v -1.66770 0.06242 1.67209 0.000 0.875 0.000
v -1.66651 0.03519 1.64356 0.000 0.875 0.000
v -1.66724 0.05184 1.55693 0.000 0.875 0.000
v -1.66643 0.03346 1.57313 0.000 0.875 0.000
v -1.66593 0.02183 1.59856 0.000 0.875 0.000
v -1.67051 0.12676 1.55693 0.000 0.875 0.000
v -1.67051 0.12676 1.52089 0.000 0.875 0.000
v -1.66607 0.02509 1.23773 0.000 0.835 0.000
v -1.66581 0.01912 1.27705 0.000 0.824 0.000
v -1.66570 0.01658 1.33542 0.000 0.843 0.000
v -1.66551 0.01238 1.43800 0.000 0.835 0.000
v -1.66755 0.05904 2.31113 0.000 0.855 0.000
v -1.66908 0.09394 2.24491 0.000 0.867 0.000
v -1.66972 0.10870 2.18646 0.000 0.855 0.000
v -1.66932 0.09950 2.11408 0.000 0.855 0.000
v -1.67107 0.13954 2.21443 0.000 0.875 0.000
v -1.67074 0.13196 2.16427 0.000 0.875 0.000
v -1.66650 0.03505 1.97262 0.000 0.867 0.000
v -1.66753 0.05863 2.04678 0.000 0.843 0.000
v -1.66777 0.06394 1.48487 0.000 0.875 0.000
v -1.66856 0.08212 1.52089 0.000 0.875 0.000
v -1.66622 0.02864 1.44675 0.000 0.835 0.000
v -1.66680 0.04172 1.48487 0.000 0.875 0.000
v -1.67509 0.17458 1.41664 0.000 0.784 0.000
v -1.67131 0.14504 1.44133 0.000 0.804 0.000
v -1.67131 0.14504 1.40465 0.000 0.784 0.000
v -1.66991 0.11297 1.44535 0.000 0.816 0.000
v -1.67043 0.12505 1.41550 0.000 0.816 0.000
v -1.67131 0.14504 1.35106 0.000 0.816 0.000
v -1.67509 0.17458 1.36953 0.000 0.816 0.000
v -1.67131 0.14504 1.37862 0.000 0.816 0.000
v -1.67032 0.12244 1.34647 0.000 0.824 0.000
v -1.67032 0.12244 1.36541 0.000 0.824 0.000
v -1.66711 0.04883 1.41439 0.000 0.875 0.000
v -1.66765 0.06122 1.43255 0.000 0.875 0.000
v -1.66694 0.04509 1.45559 0.000 0.835 0.000
v -1.66863 0.08370 1.40314 0.000 0.835 0.000
v -1.66863 0.08370 1.42742 0.000 0.835 0.000
v -1.66977 0.10980 1.37169 0.000 0.824 0.000
v -1.66921 0.09704 1.36165 0.000 0.824 0.000
v -1.66945 0.10240 1.38708 0.000 0.824 0.000
v -1.66802 0.06984 1.28075 0.000 0.765 0.000
v -1.66822 0.07443 1.31222 0.000 0.784 0.000
v -1.66720 0.05090 1.30511 0.000 0.784 0.000
v -1.66639 0.03242 1.33866 0.000 0.824 0.000
v -1.66802 0.06977 1.35079 0.000 0.824 0.000
v -1.66701 0.04675 1.38769 0.000 0.875 0.000
v -1.66588 0.02074 1.38042 0.000 0.875 0.000
v -1.66623 0.02887 1.20193 0.000 0.796 0.000
v -1.66725 0.05202 1.21126 0.000 0.796 0.000
v -1.66666 0.03859 1.21738 0.000 0.796 0.000
v -1.66764 0.06115 1.23629 0.000 0.784 0.000
v -1.66680 0.04189 1.23629 0.000 0.784 0.000
v -1.66736 0.05474 1.26126 0.000 0.824 0.000
v -1.66663 0.03803 1.25352 0.000 0.824 0.000
v -1.66637 0.03202 1.28842 0.000 0.843 0.000
v -1.67012 0.11794 1.55693 0.000 0.875 0.000
v -1.66925 0.09794 1.58168 0.000 0.875 0.000
v -1.66722 0.05153 1.58198 0.000 0.875 0.000
v -1.66775 0.06361 1.61948 0.000 0.835 0.000
v -1.66900 0.09229 1.60846 0.000 0.835 0.000
v -1.66861 0.08336 1.64399 0.000 0.824 0.000
v -1.66987 0.11223 1.62999 0.000 0.824 0.000
v -1.66731 0.05348 1.78416 0.000 0.824 0.000
v -1.66816 0.07290 1.78416 0.000 0.824 0.000
v -1.66767 0.06172 1.83274 0.000 0.796 0.000
v -1.66843 0.07920 1.82731 0.000 0.796 0.000
v -1.66855 0.08185 1.88190 0.000 0.784 0.000
v -1.66918 0.09641 1.86998 0.000 0.784 0.000
v -1.66727 0.05263 1.73763 0.000 0.875 0.000
v -1.66816 0.07306 1.73763 0.000 0.875 0.000
v -1.66861 0.08336 1.68917 0.000 0.816 0.000
v -1.66769 0.06228 1.68917 0.000 0.816 0.000
v -1.66987 0.11223 1.65134 0.000 0.824 0.000
v -1.67019 0.11948 1.93271 0.000 0.875 0.000
v -1.67064 0.12967 1.90971 0.000 0.875 0.000
v -1.67131 0.14504 1.93277 0.000 0.875 0.000
v -1.67581 0.18004 1.95583 0.000 0.875 0.000
v -1.67131 0.14504 1.95669 0.000 0.875 0.000
v -1.67442 0.16951 1.96783 0.000 0.875 0.000
v -1.67471 0.17167 1.99874 0.000 0.816 0.000
v -1.68078 0.21780 1.96763 0.000 0.816 0.000
v -1.68066 0.21686 2.09493 0.000 0.867 0.000
v -1.68037 0.21470 2.06159 0.000 0.875 0.000
v -1.69072 0.29248 2.04280 0.000 0.875 0.000
v -1.68583 0.25616 2.03112 0.000 0.875 0.000
v -1.67857 0.20097 2.02806 0.000 0.835 0.000
v -1.68250 0.23083 2.00918 0.000 0.835 0.000
v -1.69335 0.30433 2.02464 0.000 0.835 0.000
v -1.70030 0.33568 2.03580 0.000 0.835 0.000
v -1.69886 0.32922 2.05862 0.000 0.843 0.000
v -1.69072 0.29248 2.07605 0.000 0.867 0.000
v -1.69511 0.31228 2.07605 0.000 0.843 0.000
v -1.69852 0.32769 2.01238 0.000 0.804 0.000
v -1.69335 0.30433 2.00054 0.000 0.804 0.000
v -1.68860 0.27716 2.11045 0.000 0.855 0.000
v -1.68790 0.27187 2.14511 0.000 0.824 0.000
v -1.68222 0.22871 2.12416 0.000 0.843 0.000
v -1.68222 0.22871 2.16549 0.000 0.816 0.000
v -1.68546 0.25337 2.16049 0.000 0.824 0.000
v -1.67871 0.20210 2.12216 0.000 0.816 0.000
v -1.68062 0.21654 2.14101 0.000 0.816 0.000
v -1.67806 0.19712 2.14101 0.000 0.816 0.000
v -1.67976 0.21002 2.15824 0.000 0.816 0.000
v -1.67009 0.11718 1.95669 0.000 0.875 0.000
v -1.67131 0.14504 1.99355 0.000 0.843 0.000
v -1.67120 0.14265 2.02388 0.000 0.824 0.000
v -1.66963 0.10656 1.99355 0.000 0.843 0.000
v -1.66942 0.10190 2.02388 0.000 0.824 0.000
v -1.66949 0.10334 2.05659 0.000 0.796 0.000
v -1.67070 0.13124 2.05659 0.000 0.796 0.000
v -1.66971 0.10838 2.08931 0.000 0.796 0.000
v -1.67131 0.14504 1.90971 0.000 0.875 0.000
v -1.67681 0.18767 1.89985 0.000 0.824 0.000
v -1.67778 0.19498 1.93644 0.000 0.824 0.000
v -1.68573 0.25537 1.88662 0.000 0.784 0.000
v -1.68278 0.23296 1.92125 0.000 0.784 0.000
v -1.68206 0.22750 1.89394 0.000 0.784 0.000
v -1.68091 0.21877 1.85683 0.000 0.804 0.000
v -1.67606 0.18193 1.85085 0.000 0.835 0.000
v -1.68091 0.21877 1.80380 0.000 0.804 0.000
v -1.67606 0.18193 1.80380 0.000 0.835 0.000
v -1.67131 0.14504 1.82140 0.000 0.855 0.000
v -1.67131 0.14504 1.78252 0.000 0.816 0.000
v -1.67071 0.13127 1.75109 0.000 0.843 0.000
v -1.66985 0.11158 1.76548 0.000 0.843 0.000
v -1.66950 0.10372 1.70332 0.000 0.867 0.000
v -1.67038 0.12380 1.70332 0.000 0.867 0.000
v -1.67131 0.14504 1.65134 0.000 0.816 0.000
v -1.67067 0.13041 1.67292 0.000 0.824 0.000
v -1.67432 0.16870 1.59601 0.000 0.855 0.000
v -1.67624 0.18331 1.59259 0.000 0.855 0.000
v -1.67599 0.18139 1.62882 0.000 0.875 0.000
v -1.67808 0.19728 1.61923 0.000 0.875 0.000
v -1.68132 0.22185 1.64207 0.000 0.855 0.000
v -1.67983 0.21060 1.65757 0.000 0.855 0.000
v -1.68647 0.26102 1.84181 0.000 0.784 0.000
v -1.68424 0.24406 1.78495 0.000 0.784 0.000
v -1.69072 0.29248 1.81004 0.000 0.784 0.000
v -1.69534 0.31333 1.76713 0.000 0.804 0.000
v -1.69072 0.29248 1.75646 0.000 0.804 0.000
v -1.68597 0.25720 1.75646 0.000 0.804 0.000
v -1.69485 0.31113 1.72042 0.000 0.816 0.000
v -1.69072 0.29248 1.72042 0.000 0.816 0.000
v -1.68597 0.25720 1.72042 0.000 0.816 0.000
v -1.69072 0.29248 1.68169 0.000 0.843 0.000
v -1.68756 0.26928 1.65946 0.000 0.843 0.000
v -1.68381 0.24077 1.68169 0.000 0.843 0.000
v -1.68063 0.21663 1.51155 0.000 0.824 0.000
v -1.68063 0.21663 1.54805 0.000 0.824 0.000
v -1.67788 0.19579 1.51745 0.000 0.816 0.000
v -1.67695 0.18871 1.56101 0.000 0.843 0.000
v -1.67529 0.17609 1.53470 0.000 0.835 0.000
v -1.67412 0.16717 1.56101 0.000 0.843 0.000
v -1.68608 0.25805 1.53018 0.000 0.804 0.000
v -1.68737 0.26788 1.55785 0.000 0.796 0.000
v -1.68369 0.23985 1.55785 0.000 0.804 0.000
v -1.68737 0.26788 1.58065 0.000 0.796 0.000
v -1.68454 0.24631 1.56926 0.000 0.776 0.000
v -1.68369 0.23985 1.58065 0.000 0.776 0.000
v -1.68366 0.23965 1.51745 0.000 0.816 0.000
v -1.68591 0.25672 1.60099 0.000 0.796 0.000
v -1.68369 0.23985 1.60718 0.000 0.824 0.000
v -1.68118 0.22079 1.60099 0.000 0.824 0.000
v -1.68202 0.22721 1.57835 0.000 0.784 0.000
v -1.68110 0.22021 1.56551 0.000 0.824 0.000
v -1.68020 0.21335 1.58476 0.000 0.824 0.000
v -1.67419 0.16771 1.70743 0.000 0.855 0.000
v -1.67923 0.20601 1.71074 0.000 0.824 0.000
v -1.67609 0.18220 1.72233 0.000 0.824 0.000
v -1.68040 0.21487 1.73848 0.000 0.804 0.000
v -1.67651 0.18538 1.73810 0.000 0.804 0.000
v -1.67572 0.17932 1.76548 0.000 0.796 0.000
v -1.68000 0.21190 1.76519 0.000 0.796 0.000
v -1.67708 0.18972 1.69634 0.000 0.843 0.000
v -1.67421 0.16787 1.69196 0.000 0.855 0.000
v -1.67202 0.15122 1.71295 0.000 0.855 0.000
v -1.67476 0.17204 1.78913 0.000 0.804 0.000
v -1.67756 0.19330 1.78335 0.000 0.796 0.000
v -1.67196 0.15082 1.61312 0.000 0.784 0.000
v -1.67366 0.16375 1.62439 0.000 0.784 0.000
v -1.67233 0.15361 1.62439 0.000 0.784 0.000
v -1.67323 0.16042 1.64381 0.000 0.816 0.000
v -1.67131 0.14504 1.63355 0.000 0.816 0.000
v -1.69890 0.32938 2.08449 0.000 0.816 0.000
v -1.69818 0.32612 2.11077 0.000 0.816 0.000
v -1.69547 0.31394 2.09579 0.000 0.816 0.000
v -1.69072 0.29248 2.12058 0.000 0.835 0.000
v -1.69247 0.30038 2.09119 0.000 0.835 0.000
v -1.69547 0.31394 2.11835 0.000 0.816 0.000
v -1.70047 0.33647 2.12150 0.000 0.745 0.000
v -1.69806 0.32562 2.14155 0.000 0.784 0.000
v -1.69607 0.31662 2.12769 0.000 0.824 0.000
v -1.69178 0.29725 2.14452 0.000 0.804 0.000
v -1.69072 0.29248 2.13178 0.000 0.824 0.000
v -1.69476 0.31070 2.14952 0.000 0.804 0.000
v -1.69347 0.30490 2.19224 0.000 0.733 0.000
v -1.69100 0.29376 2.17046 0.000 0.816 0.000
v -1.69429 0.30857 2.17046 0.000 0.824 0.000
v -1.69143 0.29570 2.15086 0.000 0.843 0.000
v -1.69909 0.33023 2.21396 0.000 0.784 0.000
v -1.69485 0.31113 2.19015 0.000 0.824 0.000
v -1.69873 0.32863 2.18527 0.000 0.784 0.000
v -1.70310 0.34834 2.17219 0.000 0.784 0.000
v -1.73425 0.14229 1.22485 0.941 0.000 0.000
v -1.74506 0.22340 1.36053 0.675 0.000 0.000
v -1.73425 0.14229 2.35960 0.675 0.000 0.000
v -1.75277 0.28193 1.52131 0.929 0.000 0.000
v -1.77064 0.36191 1.87736 0.655 0.000 0.000
v -1.76255 0.32540 1.68208 0.663 0.000 0.000
v -1.75277 0.28193 2.27669 0.671 0.000 0.000
v -1.77796 0.39494 2.23126 0.910 0.000 0.000
v -1.77602 0.38617 2.06192 0.655 0.000 0.000
v -1.78396 0.12589 1.81800 0.000 0.000 0.631
v -1.78396 -0.12589 1.81800 0.000 0.000 0.631
v -1.73425 0.14400 1.80000 0.000 0.000 0.631
v -1.73425 -0.14400 1.80000 0.000 0.000 0.631
v -1.73425 0.14400 1.94400 0.000 0.000 0.631
v -1.73425 -0.14400 1.94400 0.000 0.000 0.631
v -1.78396 0.12589 1.92600 0.000 0.000 0.631
v -1.78396 -0.12589 1.92600 0.000 0.000 0.631
v -1.77772 0.00000 1.82552 0.000 0.000 0.631
v -1.72800 0.00000 1.80000 0.000 0.000 0.631
v -1.72800 0.00000 1.94400 0.000 0.000 0.631
v -1.77772 0.00000 1.91848 0.000 0.000 0.631
v -1.66588 0.02063 1.67479 0.000 0.000 0.000
v -1.66588 -0.02063 1.67479 0.000 0.000 0.000
v -1.65122 0.00000 1.67479 0.000 0.000 0.000
v -1.66500 0.00000 1.62907 0.000 0.000 0.000
v -1.66500 0.00000 1.72053 0.000 0.000 0.000
v -1.72980 0.00000 1.06699 0.957 0.000 0.000
v -1.72980 0.00000 2.46105 0.957 0.000 0.000
v -1.73605 -0.14229 2.23126 0.910 0.000 0.000
v -1.75457 -0.28193 2.06192 0.878 0.000 0.000
v -1.77782 -0.38617 2.06192 0.859 0.000 0.000
v -1.75457 -0.28193 2.23126 0.878 0.000 0.000
v -1.77976 -0.39494 2.23126 0.859 0.000 0.000
v -1.73605 0.14229 2.23126 0.910 0.000 0.000
v -1.75457 0.28193 2.06192 0.878 0.000 0.000
v -1.77782 0.38617 2.06192 0.859 0.000 0.000
v -1.75457 0.28193 2.23126 0.878 0.000 0.000
v -1.77976 0.39494 2.23126 0.859 0.000 0.000
v -1.73371 -0.08915 2.39749 0.933 0.000 0.000
v -1.73371 -0.08915 1.16590 0.933 0.000 0.000
v -1.73371 0.08915 2.39749 0.933 0.000 0.000
v -1.73371 0.08915 1.16590 0.933 0.000 0.000
v -1.73371 -0.08915 2.23126 0.933 0.000 0.000
v -1.72980 0.00000 2.23126 0.957 0.000 0.000
v -1.73371 0.08915 2.23126 0.933 0.000 0.000
v -1.73605 -0.14229 2.06192 0.910 0.000 0.000
v -1.73371 -0.08915 2.06192 0.910 0.000 0.000
v -1.72980 0.00000 2.06192 0.929 0.000 0.000
v -1.73371 0.08915 2.06192 0.910 0.000 0.000
v -1.73605 0.14229 2.06192 0.910 0.000 0.000
v -1.75457 -0.28193 1.52131 0.878 0.000 0.000
v -1.73605 -0.14229 1.52131 0.910 0.000 0.000
v -1.73605 -0.14229 1.68208 0.910 0.000 0.000
v -1.75457 -0.28193 1.68208 0.878 0.000 0.000
v -1.73605 0.14229 1.52131 0.910 0.000 0.000
v -1.75457 0.28193 1.52131 0.878 0.000 0.000
v -1.73605 0.14229 1.68208 0.910 0.000 0.000
v -1.75457 0.28193 1.68208 0.878 0.000 0.000
v -1.73371 -0.08915 1.52131 0.910 0.000 0.000
v -1.73371 -0.08915 1.68208 0.933 0.000 0.000
v -1.72980 0.00000 1.52131 0.929 0.000 0.000
v -1.72980 0.00000 1.68208 0.957 0.000 0.000
v -1.73371 0.08915 1.52131 0.910 0.000 0.000
v -1.73371 0.08915 1.68208 0.933 0.000 0.000
v -1.76426 -0.32540 1.68208 0.878 0.000 0.000
v -1.76426 0.32540 1.68208 0.878 0.000 0.000
v -1.77792 0.12065 1.87200 0.000 0.000 0.631
v -1.77792 -0.12065 1.87200 0.000 0.000 0.631
v -1.77167 0.00000 1.87200 0.000 0.000 0.631
v -1.85203 0.14877 1.67616 0.000 0.643 0.000
v -1.93481 0.14877 1.75892 0.000 0.588 0.000
v -1.96511 0.14877 1.87200 0.000 0.545 0.000
v -1.93481 0.14877 1.98508 0.000 0.588 0.000
v -1.85203 0.14877 2.06784 0.000 0.643 0.000
v -1.73896 0.14877 2.09815 0.000 0.631 0.000
v -1.73896 0.14877 1.64585 0.000 0.631 0.000
v -1.85203 0.08458 1.67616 0.000 0.643 0.000
v -1.93481 0.08458 1.75892 0.000 0.588 0.000
v -1.96511 0.08458 1.87200 0.000 0.545 0.000
v -1.93481 0.08458 1.98508 0.000 0.588 0.000
v -1.85203 0.08458 2.06784 0.000 0.643 0.000
v -1.73896 0.08458 2.09815 0.000 0.631 0.000
v -1.73896 0.08458 1.64585 0.000 0.631 0.000
v -1.83911 0.11668 1.69853 0.000 0.663 0.000
v -1.91242 0.11668 1.77185 0.000 0.604 0.000
v -1.93925 0.11668 1.87200 0.000 0.565 0.000
v -1.91242 0.11668 1.97215 0.000 0.604 0.000
v -1.83911 0.11668 2.04547 0.000 0.663 0.000
v -1.73896 0.11668 2.07229 0.000 0.647 0.000
v -1.73896 0.11668 1.67171 0.000 0.647 0.000
v -1.85203 -0.14877 1.67616 0.000 0.643 0.000
v -1.93481 -0.14877 1.75892 0.000 0.588 0.000
v -1.96511 -0.14877 1.87200 0.000 0.545 0.000
v -1.93481 -0.14877 1.98508 0.000 0.588 0.000
v -1.85203 -0.14877 2.06784 0.000 0.643 0.000
v -1.73896 -0.14877 2.09815 0.000 0.631 0.000
v -1.73896 -0.14877 1.64585 0.000 0.631 0.000
v -1.85203 -0.08458 1.67616 0.000 0.643 0.000
v -1.93481 -0.08458 1.75892 0.000 0.588 0.000
v -1.96511 -0.08458 1.87200 0.000 0.545 0.000
v -1.93481 -0.08458 1.98508 0.000 0.588 0.000
v -1.85203 -0.08458 2.06784 0.000 0.643 0.000
v -1.73896 -0.08458 2.09815 0.000 0.631 0.000
v -1.73896 -0.08458 1.64585 0.000 0.631 0.000
v -1.83911 -0.11668 1.69853 0.000 0.663 0.000
v -1.91242 -0.11668 1.77185 0.000 0.604 0.000
v -1.93925 -0.11668 1.87200 0.000 0.565 0.000
v -1.91242 -0.11668 1.97215 0.000 0.604 0.000
v -1.83911 -0.11668 2.04547 0.000 0.663 0.000
v -1.73896 -0.11668 2.07229 0.000 0.647 0.000
v -1.73896 -0.11668 1.67171 0.000 0.647 0.000
v -1.73896 0.14877 2.12798 0.000 0.573 0.000
v -1.73896 0.08458 2.12798 0.000 0.573 0.000
v -1.73896 0.14877 1.61602 0.000 0.573 0.000
v -1.73896 0.08458 1.61602 0.000 0.573 0.000
v -1.73896 -0.14877 2.12798 0.000 0.573 0.000
v -1.73896 -0.08458 2.12798 0.000 0.573 0.000
v -1.73896 -0.14877 1.61602 0.000 0.573 0.000
v -1.73896 -0.08458 1.61602 0.000 0.573 0.000
v -1.73896 0.11668 2.14463 0.000 0.573 0.000
v -1.73896 0.11668 1.59937 0.000 0.573 0.000
v -1.73896 -0.11668 2.14463 0.000 0.573 0.000
v -1.73896 -0.11668 1.59937 0.000 0.573 0.000
v -1.91253 0.27396 1.97750 0.000 0.631 0.000
v -1.90632 0.25461 1.96682 0.000 0.596 0.000
v -1.76055 0.30766 2.00493 0.000 0.671 0.000
v -1.75434 0.28831 1.99427 0.000 0.635 0.000
v -1.75801 0.28750 2.01560 0.000 0.604 0.000
v -1.75179 0.26813 2.00493 0.000 0.671 0.000
v -1.90999 0.25380 1.98815 0.000 0.561 0.000
v -1.90377 0.23445 1.97750 0.000 0.631 0.000
v -1.91447 0.25279 1.97635 0.000 0.537 0.000
v -1.89513 0.28316 1.96983 0.000 0.000 0.667
v -1.86477 0.26383 1.96983 0.000 0.000 0.635
v -1.91447 0.25279 1.96983 0.000 0.000 0.631
v -1.88411 0.23346 1.96983 0.000 0.000 0.702
v -1.89416 0.27877 1.87200 0.000 0.000 0.686
v -1.86916 0.26285 1.87200 0.000 0.000 0.659
v -1.91008 0.25378 1.87200 0.000 0.000 0.616
v -1.88508 0.23785 1.87200 0.000 0.000 0.686
v -1.75801 0.28750 2.03636 0.800 0.000 0.000
v -1.75801 0.28750 1.97271 0.851 0.000 0.000
v -1.76496 0.31883 2.00453 0.902 0.000 0.000
v -1.75107 0.25616 2.00453 0.902 0.000 0.000
v -1.91253 0.27396 1.76650 0.000 0.631 0.000
v -1.90632 0.25461 1.77718 0.000 0.596 0.000
v -1.76055 0.30766 1.73907 0.000 0.671 0.000
v -1.75434 0.28831 1.74973 0.000 0.635 0.000
v -1.75801 0.28750 1.72840 0.000 0.604 0.000
v -1.75179 0.26813 1.73907 0.000 0.671 0.000
v -1.90999 0.25380 1.75585 0.000 0.561 0.000
v -1.90377 0.23445 1.76650 0.000 0.631 0.000
v -1.91447 0.25279 1.76765 0.000 0.537 0.000
v -1.89513 0.28316 1.77417 0.000 0.000 0.667
v -1.86477 0.26383 1.77417 0.000 0.000 0.635
v -1.91447 0.25279 1.77417 0.000 0.000 0.631
v -1.88411 0.23346 1.77417 0.000 0.000 0.702
v -1.75801 0.28750 1.70764 0.800 0.000 0.000
v -1.75107 0.25616 1.73947 0.902 0.000 0.000
v -1.76496 0.31883 1.73947 0.902 0.000 0.000
v -1.75801 0.28750 1.77129 0.851 0.000 0.000
v -1.66588 0.02201 1.67479 0.000 0.000 0.000
v -1.66494 0.00000 1.62599 0.000 0.000 0.000
v -1.65024 0.00000 1.67479 0.000 0.000 0.000
v -1.66588 -0.02201 1.67479 0.000 0.000 0.000
v -1.66494 0.00000 1.72359 0.000 0.000 0.000
v -1.66500 0.00000 1.97273 0.000 0.804 0.000
v -1.70572 -0.40174 2.06192 0.902 0.000 0.000
v -1.70767 -0.41051 2.23126 0.902 0.000 0.000
v -1.75319 -0.44953 2.26168 0.902 0.000 0.000
v -1.68138 -0.29133 2.27669 0.859 0.000 0.000
v -1.71708 -0.28663 2.32409 0.859 0.000 0.000
v -1.69828 -0.14386 2.40775 0.820 0.000 0.000
v -1.66232 -0.14544 2.35960 0.820 0.000 0.000
v -1.66232 -0.14544 1.22485 0.820 0.000 0.000
v -1.70621 -0.20410 1.22485 0.820 0.000 0.000
v -1.69200 0.00000 2.52047 0.745 0.000 0.000
v -1.69828 -0.14386 2.40775 0.796 0.000 0.000
v -1.71708 -0.28663 2.32409 0.835 0.000 0.000
v -1.75319 -0.44953 2.26168 0.875 0.000 0.000
v -1.75319 -0.44953 2.26168 0.925 0.000 0.000
v -1.78834 -0.44174 2.26168 0.925 0.000 0.000
v -1.75112 -0.44019 2.06192 0.925 0.000 0.000
v -1.74655 -0.41956 1.87736 0.925 0.000 0.000
v -1.73891 -0.38513 1.68208 0.906 0.000 0.000
v -1.72930 -0.34178 1.52131 0.914 0.000 0.000
v -1.71708 -0.28663 1.36053 0.886 0.000 0.000
v -1.70621 -0.20410 1.22485 0.843 0.000 0.000
v -1.69828 -0.14386 1.13935 0.843 0.000 0.000
v -1.69200 0.00000 0.99747 0.796 0.000 0.000
v -1.66770 -0.06242 1.67209 0.000 0.875 0.000
v -1.66500 0.00000 1.67209 0.000 0.776 0.000
v -1.66500 0.00000 1.55693 0.000 0.733 0.000
v -1.66500 0.00000 1.48487 0.000 0.776 0.000
v -1.66500 0.00000 1.52089 0.000 0.776 0.000
v -1.66724 -0.05184 1.55693 0.000 0.875 0.000
v -1.66861 -0.08336 1.64399 0.000 0.824 0.000
v -1.67442 -0.16951 1.96783 0.000 0.875 0.000
v -1.67581 -0.18004 1.95583 0.000 0.875 0.000
v -1.67019 -0.11948 1.93271 0.000 0.875 0.000
v -1.67131 -0.14504 1.95669 0.000 0.875 0.000
v -1.67064 -0.12967 1.90971 0.000 0.875 0.000
v -1.67131 -0.14504 1.93277 0.000 0.875 0.000
v -1.66987 -0.11223 1.65134 0.000 0.824 0.000
v -1.69072 -0.29248 2.12058 0.000 0.867 0.000
v -1.69476 -0.31070 2.14952 0.000 0.875 0.000
v -1.69429 -0.30857 2.17046 0.000 0.875 0.000
v -1.72800 0.00000 0.99747 0.949 0.000 0.000
v -1.73425 -0.14229 1.13935 0.902 0.000 0.000
v -1.73425 -0.14229 1.13935 0.941 0.000 0.000
v -1.72800 0.00000 1.06699 0.682 0.000 0.000
v -1.73425 -0.14229 1.22485 0.675 0.000 0.000
v -1.72800 0.00000 2.52047 0.949 0.000 0.000
v -1.72800 0.00000 2.46105 0.949 0.000 0.000
v -1.73425 -0.14229 2.40775 0.941 0.000 0.000
v -1.73425 -0.14229 2.35960 0.941 0.000 0.000
v -1.74190 -0.19940 1.22485 0.941 0.000 0.000
v -1.75277 -0.28193 1.36053 0.929 0.000 0.000
v -1.74506 -0.22340 1.36053 0.941 0.000 0.000
v -1.74190 -0.19940 1.22485 0.941 0.000 0.000
v -1.74506 -0.22340 1.36053 0.941 0.000 0.000
v -1.75277 -0.28193 1.52131 0.671 0.000 0.000
v -1.73425 -0.14229 2.35960 0.941 0.000 0.000
v -1.75277 -0.28193 2.32409 0.929 0.000 0.000
v -1.75277 -0.28193 2.27669 0.929 0.000 0.000
v -1.76445 -0.33399 1.52131 0.922 0.000 0.000
v -1.75277 -0.28193 1.52131 0.929 0.000 0.000
v -1.76445 -0.33399 1.52131 0.922 0.000 0.000
v -1.76255 -0.32540 1.68208 0.922 0.000 0.000
v -1.77406 -0.37733 1.68208 0.922 0.000 0.000
v -1.77064 -0.36191 1.87736 0.910 0.000 0.000
v -1.76255 -0.32540 1.68208 0.922 0.000 0.000
v -1.78169 -0.41177 1.87736 0.902 0.000 0.000
v -1.75277 -0.28193 2.32409 0.929 0.000 0.000
v -1.78834 -0.44174 2.26168 0.902 0.000 0.000
v -1.77796 -0.39494 2.23126 0.655 0.000 0.000
v -1.78834 -0.44174 2.26168 0.902 0.000 0.000
v -1.77796 -0.39494 2.23126 0.910 0.000 0.000
v -1.78627 -0.43240 2.06192 0.902 0.000 0.000
v -1.77602 -0.38617 2.06192 0.910 0.000 0.000
v -1.78169 -0.41177 1.87736 0.902 0.000 0.000
v -1.77602 -0.38617 2.06192 0.910 0.000 0.000
v -1.78627 -0.43240 2.06192 0.902 0.000 0.000
v -1.65600 0.00000 2.46105 0.796 0.000 0.000
v -1.66232 -0.14544 2.35960 0.843 0.000 0.000
v -1.67400 0.00000 2.46105 0.894 0.000 0.000
v -1.68030 -0.14465 2.35960 0.886 0.000 0.000
v -1.68138 -0.29133 2.27669 0.886 0.000 0.000
v -1.69923 -0.28897 2.27669 0.906 0.000 0.000
v -1.70767 -0.41051 2.23126 0.925 0.000 0.000
v -1.72524 -0.40662 2.23126 0.957 0.000 0.000
v -1.70572 -0.40174 2.06192 0.925 0.000 0.000
v -1.72330 -0.39785 2.06192 0.886 0.000 0.000
v -1.70767 -0.41051 2.23126 0.925 0.000 0.000
v -1.72524 -0.40662 2.23126 0.957 0.000 0.000
v -1.70035 -0.37750 1.87736 0.925 0.000 0.000
v -1.71792 -0.37359 1.87736 0.894 0.000 0.000
v -1.69225 -0.34099 1.68208 0.906 0.000 0.000
v -1.70983 -0.33709 1.68208 0.894 0.000 0.000
v -1.68138 -0.29133 1.52131 0.875 0.000 0.000
v -1.69923 -0.28897 1.52131 0.886 0.000 0.000
v -1.67368 -0.23279 1.36053 0.867 0.000 0.000
v -1.69153 -0.23045 1.36053 0.906 0.000 0.000
v -1.66232 -0.14544 1.22485 0.843 0.000 0.000
v -1.68030 -0.14465 1.22485 0.886 0.000 0.000
v -1.65600 0.00000 1.06699 0.796 0.000 0.000
v -1.67400 0.00000 1.06699 0.867 0.000 0.000
v -1.70572 0.40174 2.06192 0.902 0.000 0.000
v -1.70767 0.41051 2.23126 0.902 0.000 0.000
v -1.75319 0.44953 2.26168 0.902 0.000 0.000
v -1.68138 0.29133 2.27669 0.859 0.000 0.000
v -1.71708 0.28663 2.32409 0.859 0.000 0.000
v -1.69200 0.00000 2.52047 0.769 0.000 0.000
v -1.65600 0.00000 2.46105 0.769 0.000 0.000
v -1.69828 0.14386 2.40775 0.820 0.000 0.000
v -1.66232 0.14544 2.35960 0.820 0.000 0.000
v -1.70621 0.20410 1.22485 0.820 0.000 0.000
v -1.69200 0.00000 0.99747 0.769 0.000 0.000
v -1.65600 0.00000 1.06699 0.769 0.000 0.000
v -1.69828 0.14386 2.40775 0.796 0.000 0.000
v -1.71708 0.28663 2.32409 0.835 0.000 0.000
v -1.75319 0.44953 2.26168 0.875 0.000 0.000
v -1.75319 0.44953 2.26168 0.925 0.000 0.000
v -1.75112 0.44019 2.06192 0.925 0.000 0.000
v -1.78834 0.44174 2.26168 0.925 0.000 0.000
v -1.74655 0.41956 1.87736 0.925 0.000 0.000
v -1.73891 0.38513 1.68208 0.906 0.000 0.000
v -1.72930 0.34178 1.52131 0.914 0.000 0.000
v -1.71708 0.28663 1.36053 0.886 0.000 0.000
v -1.70621 0.20410 1.22485 0.843 0.000 0.000
v -1.69828 0.14386 1.13935 0.843 0.000 0.000
v -1.66770 0.06242 1.67209 0.000 0.875 0.000
v -1.66724 0.05184 1.55693 0.000 0.875 0.000
v -1.66861 0.08336 1.64399 0.000 0.824 0.000
v -1.67442 0.16951 1.96783 0.000 0.875 0.000
v -1.67581 0.18004 1.95583 0.000 0.875 0.000
v -1.67019 0.11948 1.93271 0.000 0.875 0.000
v -1.67131 0.14504 1.95669 0.000 0.875 0.000
v -1.67064 0.12967 1.90971 0.000 0.875 0.000
v -1.67131 0.14504 1.93277 0.000 0.875 0.000
v -1.66987 0.11223 1.65134 0.000 0.824 0.000
v -1.69072 0.29248 2.12058 0.000 0.867 0.000
v -1.69476 0.31070 2.14952 0.000 0.875 0.000
v -1.69429 0.30857 2.17046 0.000 0.875 0.000
v -1.73425 0.14229 1.13935 0.902 0.000 0.000
v -1.73425 0.14229 1.13935 0.941 0.000 0.000
v -1.73425 0.14229 1.22485 0.675 0.000 0.000
v -1.73425 0.14229 2.40775 0.941 0.000 0.000
v -1.73425 0.14229 2.35960 0.941 0.000 0.000
v -1.74190 0.19940 1.22485 0.941 0.000 0.000
v -1.75277 0.28193 1.36053 0.929 0.000 0.000
v -1.74190 0.19940 1.22485 0.941 0.000 0.000
v -1.74506 0.22340 1.36053 0.941 0.000 0.000
v -1.74506 0.22340 1.36053 0.941 0.000 0.000
v -1.75277 0.28193 1.52131 0.671 0.000 0.000
v -1.75277 0.28193 2.32409 0.929 0.000 0.000
v -1.73425 0.14229 2.35960 0.941 0.000 0.000
v -1.75277 0.28193 2.27669 0.929 0.000 0.000
v -1.76445 0.33399 1.52131 0.922 0.000 0.000
v -1.75277 0.28193 1.52131 0.929 0.000 0.000
v -1.76255 0.32540 1.68208 0.922 0.000 0.000
v -1.76445 0.33399 1.52131 0.922 0.000 0.000
v -1.77406 0.37733 1.68208 0.922 0.000 0.000
v -1.76255 0.32540 1.68208 0.922 0.000 0.000
v -1.77064 0.36191 1.87736 0.910 0.000 0.000
v -1.78169 0.41177 1.87736 0.902 0.000 0.000
v -1.75277 0.28193 2.32409 0.929 0.000 0.000
v -1.78834 0.44174 2.26168 0.902 0.000 0.000
v -1.77796 0.39494 2.23126 0.655 0.000 0.000
v -1.78834 0.44174 2.26168 0.902 0.000 0.000
v -1.78627 0.43240 2.06192 0.902 0.000 0.000
v -1.77796 0.39494 2.23126 0.910 0.000 0.000
v -1.77602 0.38617 2.06192 0.910 0.000 0.000
v -1.77602 0.38617 2.06192 0.910 0.000 0.000
v -1.78169 0.41177 1.87736 0.902 0.000 0.000
v -1.78627 0.43240 2.06192 0.902 0.000 0.000
v -1.68030 0.14465 2.35960 0.886 0.000 0.000
v -1.66232 0.14544 2.35960 0.843 0.000 0.000
v -1.69923 0.28897 2.27669 0.906 0.000 0.000
v -1.68138 0.29133 2.27669 0.886 0.000 0.000
v -1.72524 0.40662 2.23126 0.957 0.000 0.000
v -1.70767 0.41051 2.23126 0.925 0.000 0.000
v -1.70572 0.40174 2.06192 0.925 0.000 0.000
v -1.70767 0.41051 2.23126 0.925 0.000 0.000
v -1.72330 0.39785 2.06192 0.886 0.000 0.000
v -1.72524 0.40662 2.23126 0.957 0.000 0.000
v -1.70035 0.37750 1.87736 0.925 0.000 0.000
v -1.71792 0.37359 1.87736 0.894 0.000 0.000
v -1.69225 0.34099 1.68208 0.906 0.000 0.000
v -1.70983 0.33709 1.68208 0.894 0.000 0.000
v -1.68138 0.29133 1.52131 0.875 0.000 0.000
v -1.69923 0.28897 1.52131 0.886 0.000 0.000
v -1.67368 0.23279 1.36053 0.867 0.000 0.000
v -1.69153 0.23045 1.36053 0.906 0.000 0.000
v -1.66232 0.14544 1.22485 0.843 0.000 0.000
v -1.68030 0.14465 1.22485 0.886 0.000 0.000
v -1.77772 0.00000 1.82552 0.000 0.000 0.631
v -1.78396 0.12589 1.81800 0.000 0.000 0.631
v -1.78396 0.12589 1.92600 0.000 0.000 0.631
v -1.77772 0.00000 1.91848 0.000 0.000 0.631
v -1.78396 -0.12589 1.92600 0.000 0.000 0.631
v -1.78396 -0.12589 1.81800 0.000 0.000 0.631
v -1.73425 -0.14400 1.94400 0.000 0.000 0.631
v -1.77792 -0.12065 1.87200 0.000 0.000 0.631
v -1.73425 -0.14400 1.80000 0.000 0.000 0.631
v -1.73425 -0.14400 1.80000 0.000 0.000 0.631
v -1.78396 -0.12589 1.81800 0.000 0.000 0.631
v -1.78396 -0.12589 1.92600 0.000 0.000 0.631
v -1.73425 0.14400 1.80000 0.000 0.000 0.631
v -1.77792 0.12065 1.87200 0.000 0.000 0.631
v -1.73425 0.14400 1.94400 0.000 0.000 0.631
v -1.78396 0.12589 1.92600 0.000 0.000 0.631
v -1.73425 0.14400 1.80000 0.000 0.000 0.631
v -1.78396 0.12589 1.81800 0.000 0.000 0.631
v -1.66500 0.00000 1.62907 0.000 0.000 0.000
v -1.65122 0.00000 1.67479 0.000 0.000 0.000
v -1.66588 0.02063 1.67479 0.000 0.000 0.000
v -1.65122 0.00000 1.67479 0.000 0.000 0.000
v -1.66500 0.00000 1.72053 0.000 0.000 0.000
v -1.66588 -0.02063 1.67479 0.000 0.000 0.000
v -1.73371 -0.08915 2.23126 0.910 0.000 0.000
v -1.72980 0.00000 2.23126 0.929 0.000 0.000
v -1.73371 0.08915 2.23126 0.910 0.000 0.000
v -1.73371 -0.08915 2.06192 0.933 0.000 0.000
v -1.72980 0.00000 2.06192 0.957 0.000 0.000
v -1.73371 0.08915 2.06192 0.933 0.000 0.000
v -1.73371 -0.08915 1.68208 0.910 0.000 0.000
v -1.72980 0.00000 1.68208 0.929 0.000 0.000
v -1.73371 0.08915 1.68208 0.910 0.000 0.000
v -1.72980 0.00000 1.52131 0.957 0.000 0.000
v -1.73371 -0.08915 1.52131 0.933 0.000 0.000
v -1.73371 0.08915 1.52131 0.933 0.000 0.000
v -1.93481 0.14877 1.75892 0.000 0.604 0.000
v -1.85203 0.14877 1.67616 0.000 0.663 0.000
v -1.91242 0.11668 1.77185 0.000 0.604 0.000
v -1.96511 0.14877 1.87200 0.000 0.565 0.000
v -1.93481 0.14877 1.98508 0.000 0.604 0.000
v -1.91242 0.11668 1.97215 0.000 0.604 0.000
v -1.85203 0.14877 2.06784 0.000 0.663 0.000
v -1.73896 0.14877 2.09815 0.000 0.647 0.000
v -1.83911 0.11668 2.04547 0.000 0.663 0.000
v -1.83911 0.11668 1.69853 0.000 0.663 0.000
v -1.73896 0.14877 1.64585 0.000 0.647 0.000
v -1.85203 0.08458 1.67616 0.000 0.663 0.000
v -1.93481 0.08458 1.75892 0.000 0.604 0.000
v -1.96511 0.08458 1.87200 0.000 0.565 0.000
v -1.93481 0.08458 1.98508 0.000 0.604 0.000
v -1.85203 0.08458 2.06784 0.000 0.663 0.000
v -1.73896 0.08458 2.09815 0.000 0.647 0.000
v -1.73896 0.08458 1.64585 0.000 0.647 0.000
v -1.93481 -0.14877 1.75892 0.000 0.604 0.000
v -1.85203 -0.14877 1.67616 0.000 0.663 0.000
v -1.96511 -0.14877 1.87200 0.000 0.565 0.000
v -1.91242 -0.11668 1.77185 0.000 0.604 0.000
v -1.93481 -0.14877 1.98508 0.000 0.604 0.000
v -1.85203 -0.14877 2.06784 0.000 0.663 0.000
v -1.91242 -0.11668 1.97215 0.000 0.604 0.000
v -1.73896 -0.14877 2.09815 0.000 0.647 0.000
v -1.83911 -0.11668 2.04547 0.000 0.663 0.000
v -1.83911 -0.11668 1.69853 0.000 0.663 0.000
v -1.73896 -0.14877 1.64585 0.000 0.647 0.000
v -1.85203 -0.08458 1.67616 0.000 0.663 0.000
v -1.93481 -0.08458 1.75892 0.000 0.604 0.000
v -1.96511 -0.08458 1.87200 0.000 0.565 0.000
v -1.93481 -0.08458 1.98508 0.000 0.604 0.000
v -1.85203 -0.08458 2.06784 0.000 0.663 0.000
v -1.73896 -0.08458 2.09815 0.000 0.647 0.000
v -1.73896 -0.08458 1.64585 0.000 0.647 0.000
v -1.73896 0.08458 2.09815 0.000 0.631 0.000
v -1.73896 0.14877 2.09815 0.000 0.631 0.000
v -1.73896 0.14877 1.64585 0.000 0.631 0.000
v -1.73896 0.08458 1.64585 0.000 0.631 0.000
v -1.73896 -0.14877 2.09815 0.000 0.631 0.000
v -1.73896 -0.08458 2.09815 0.000 0.631 0.000
v -1.73896 -0.08458 1.64585 0.000 0.631 0.000
v -1.73896 -0.14877 1.64585 0.000 0.631 0.000
v -1.89513 0.28316 1.96983 0.000 0.000 0.702
v -1.86477 0.26383 1.96983 0.000 0.000 0.671
v -1.91447 0.25279 1.96983 0.000 0.000 0.596
v -1.88411 0.23346 1.96983 0.000 0.000 0.667
v -1.89513 0.28316 1.77417 0.000 0.000 0.702
v -1.86477 0.26383 1.77417 0.000 0.000 0.671
v -1.91447 0.25279 1.77417 0.000 0.000 0.596
v -1.88411 0.23346 1.77417 0.000 0.000 0.667
v -1.66494 0.00000 1.62599 0.000 0.000 0.000
v -1.65024 0.00000 1.67479 0.000 0.000 0.000
v -1.66588 0.02201 1.67479 0.000 0.000 0.000
v -1.65024 0.00000 1.67479 0.000 0.000 0.000
v -1.65024 0.00000 1.67479 0.000 0.000 0.000
v -1.66494 0.00000 1.72359 0.000 0.000 0.000
v -1.66588 -0.02201 1.67479 0.000 0.000 0.000
vt 0.92969 0.99219
vt 0.92969 0.63658
vt 0.72656 0.69917
vt 0.85156 0.50031
vt 0.92969 0.60951
vt 0.85156 0.16360
vt 0.85156 0.32676
vt 0.72656 0.91049
vt 0.99219 0.45700
vt 0.99219 0.99219
vt 0.99219 0.60479
vt 0.91406 0.18460
vt 0.91406 0.35220
vt 0.78906 0.84706
vt 0.78906 0.64844
vt 0.91406 0.53672
vt 0.92969 0.77828
vt 0.99219 0.78788
vt 0.92969 0.80286
vt 0.99219 0.80089
vt 0.36654 0.37568
vt 0.42932 0.44419
vt 0.36654 0.72740
vt 0.42932 0.72740
vt 0.42932 0.93671
vt 0.36654 0.98075
vt 0.49197 0.57286
vt 0.49197 0.72740
vt 0.49197 0.90072
vt 0.51285 0.64265
vt 0.52870 0.72740
vt 0.53922 0.80751
vt 0.54303 0.88101
vt 0.83594 0.97121
vt 0.83594 0.01011
vt 0.83594 0.68289
vt 0.83594 0.53357
vt 0.83594 0.28771
vt 0.83594 0.60432
vt 0.83594 0.82400
vt 0.83594 0.73901
vt 0.83594 0.85491
vt 0.83594 0.11858
vt 0.17381 0.00781
vt 0.04052 0.12906
vt 0.10156 0.00781
vt 0.00781 0.00781
vt 0.27344 0.61711
vt 0.33594 0.61719
vt 0.27344 0.47648
vt 0.35156 0.56493
vt 0.35156 0.99219
vt 0.32418 0.68551
vt 0.00781 0.99296
vt 0.13849 0.81812
vt 0.00781 0.74143
vt 0.14629 0.64003
vt 0.20312 0.78062
vt 0.15919 0.74143
vt 0.19178 0.71032
vt 0.08903 0.53189
vt 0.09258 0.00781
vt 0.15049 0.12847
vt 0.05618 0.04688
vt 0.13178 0.06542
vt 0.05598 0.42798
vt 0.08961 0.90658
vt 0.27344 0.60695
vt 0.33594 0.61703
vt 0.33481 0.80767
vt 0.22749 0.87226
vt 0.30338 0.99219
vt 0.29449 0.90641
vt 0.27899 0.92910
vt 0.17418 0.89424
vt 0.13724 0.90921
vt 0.13724 0.85032
vt 0.21429 0.94512
vt 0.19919 0.90779
vt 0.20244 0.84517
vt 0.20244 0.82149
vt 0.21826 0.85303
vt 0.23420 0.84045
vt 0.17418 0.86168
vt 0.17418 0.82722
vt 0.25089 0.92271
vt 0.25089 0.89234
vt 0.31973 0.94688
vt 0.29916 0.95793
vt 0.26822 0.73932
vt 0.26829 0.82688
vt 0.34006 0.93593
vt 0.31501 0.81172
vt 0.26247 0.77864
vt 0.29190 0.76976
vt 0.31944 0.64075
vt 0.29049 0.65239
vt 0.30728 0.66006
vt 0.28711 0.71494
vt 0.30799 0.70524
vt 0.33163 0.73466
vt 0.31550 0.74889
vt 0.27908 0.68371
vt 0.30318 0.68371
vt 0.24925 0.04971
vt 0.24329 0.12585
vt 0.21320 0.14044
vt 0.22251 0.10341
vt 0.19264 0.11490
vt 0.52344 0.02193
vt 0.52344 0.24608
vt 0.46094 0.24701
vt 0.52344 0.46317
vt 0.46094 0.45739
vt 0.46094 0.19362
vt 0.52344 0.19362
vt 0.46094 0.13347
vt 0.52344 0.13347
vt 0.46094 0.07085
vt 0.52344 0.07085
vt 0.52344 0.30402
vt 0.46094 0.30373
vt 0.52344 0.37898
vt 0.46094 0.37961
vt 0.15205 0.22151
vt 0.22632 0.22187
vt 0.12479 0.36125
vt 0.25589 0.40344
vt 0.16835 0.27673
vt 0.21550 0.27673
vt 0.22511 0.32200
vt 0.24740 0.36125
vt 0.07162 0.38454
vt 0.12743 0.40796
vt 0.08031 0.32215
vt 0.19193 0.42410
vt 0.28650 0.44933
vt 0.28397 0.38150
vt 0.28189 0.41313
vt 0.22348 0.45868
vt 0.26052 0.65830
vt 0.26178 0.69762
vt 0.20131 0.65830
vt 0.23037 0.78245
vt 0.19907 0.69762
vt 0.24825 0.60473
vt 0.25726 0.67169
vt 0.19986 0.67169
vt 0.22918 0.78221
vt 0.20769 0.73003
vt 0.52344 0.40957
vt 0.27748 0.32532
vt 0.27748 0.28479
vt 0.35432 0.30697
vt 0.35432 0.36223
vt 0.24261 0.26703
vt 0.26313 0.25205
vt 0.23442 0.20226
vt 0.25535 0.20226
vt 0.27748 0.14810
vt 0.31737 0.08686
vt 0.35753 0.13843
vt 0.34580 0.15458
vt 0.30213 0.09043
vt 0.45285 0.26876
vt 0.39436 0.25764
vt 0.40695 0.15655
vt 0.37724 0.17972
vt 0.35208 0.04045
vt 0.35208 0.00242
vt 0.32300 0.05397
vt 0.30984 0.02655
vt 0.37629 0.07444
vt 0.40549 0.07444
vt 0.37629 0.05066
vt 0.39524 0.02183
vt 0.40549 0.05066
vt 0.37629 0.10208
vt 0.35581 0.05866
vt 0.34866 0.07872
vt 0.36311 0.07202
vt 0.39834 0.34659
vt 0.38067 0.28733
vt 0.45057 0.22008
vt 0.39436 0.22008
vt 0.31592 0.30697
vt 0.31592 0.35600
vt 0.20969 0.61051
vt 0.46094 0.42264
vt 0.25131 0.74003
vt 0.20841 0.74003
vt 0.25052 0.73003
vt 0.43112 0.31348
vt 0.33192 0.11463
vt 0.31536 0.12464
vt 0.30054 0.05397
vt 0.35642 0.09562
vt 0.39386 0.09562
vt 0.38302 0.06255
vt 0.33037 0.00859
vt 0.37608 0.00859
vt 0.43112 0.17972
vt 0.22840 0.07550
vt 0.18003 0.07582
vt 0.30562 0.29169
vt 0.28392 0.21230
vt 0.30128 0.19042
vt 0.31320 0.26704
vt 0.34715 0.26675
vt 0.30110 0.20654
vt 0.34103 0.21000
vt 0.31952 0.23851
vt 0.35026 0.23889
vt 0.31620 0.22208
vt 0.32778 0.28565
vt 0.32404 0.19499
vt 0.28350 0.10827
vt 0.29710 0.87302
vt 0.32963 0.86394
vt 0.27748 0.12956
vt 0.28642 0.12001
vt 0.29350 0.14025
vt 0.29697 0.12001
vt 0.14808 0.02979
vt 0.14942 0.39723
vt 0.09818 0.34894
vt 0.06316 0.35262
vt 0.30346 0.39874
vt 0.25542 0.46203
vt 0.30189 0.42743
vt 0.11469 0.44066
vt 0.18242 0.44669
vt 0.13424 0.48344
vt 0.18273 0.49636
vt 0.19484 0.47681
vt 0.21903 0.54485
vt 0.21750 0.51017
vt 0.20127 0.48762
vt 0.19762 0.58819
vt 0.20342 0.55029
vt 0.18719 0.52428
vt 0.15191 0.55611
vt 0.14046 0.46207
vt 0.14023 0.43507
vt 0.14872 0.41991
vt 0.09571 0.40512
vt 0.16115 0.49678
vt 0.16087 0.47338
vt 0.17949 0.55961
vt 0.19072 0.45914
vt 0.15693 0.46011
vt 0.92969 0.43458
vt 0.46657 0.50308
vt 0.99219 0.62404
vt 0.83594 0.41064
vt 0.78906 0.94927
vt 0.83594 0.18397
vt 0.71752 0.34610
vt 0.67788 0.37330
vt 0.77871 0.21681
vt 0.83594 0.51491
vt 0.83594 0.27595
vt 0.83594 0.12779
vt 0.75642 0.32387
vt 0.83594 0.02508
vt 0.78546 0.26629
vt 0.74012 0.07824
vt 0.76853 0.16445
vt 0.26224 0.17058
vt 0.15647 0.32200
vt 0.43112 0.25764
vt 0.43112 0.22008
vt 0.17418 0.94009
vt 0.42932 0.44419
vt 0.42932 0.72740
vt 0.42932 0.93671
vt 0.46657 0.50308
vt 0.49197 0.57286
vt 0.49197 0.72740
vt 0.49197 0.90072
vt 0.51285 0.64265
vt 0.52870 0.72740
vt 0.53922 0.80751
vt 0.54303 0.88101
vt 0.99219 0.78788
vt 0.99219 0.99219
vt 0.92969 0.99219
vt 0.92969 0.77828
vt 0.99219 0.45700
vt 0.99219 0.62404
vt 0.92969 0.60951
vt 0.99219 0.60479
vt 0.92969 0.63658
vt 0.99219 0.80089
vt 0.92969 0.80286
vt 0.85156 0.38328
vt 0.91406 0.36228
vt 0.85156 0.22011
vt 0.91406 0.19468
vt 0.99219 0.20826
vt 0.99219 0.31048
vt 0.92969 0.27170
vt 0.92969 0.43458
vt 0.83594 0.85491
vt 0.83594 0.73901
vt 0.83594 0.60432
vt 0.83594 0.82400
vt 0.83594 0.68289
vt 0.83594 0.53357
vt 0.83594 0.28771
vt 0.83594 0.41064
vt 0.83594 0.11858
vt 0.83594 0.18397
vt 0.04052 0.12906
vt 0.05618 0.04688
vt 0.09258 0.00781
vt 0.15049 0.12847
vt 0.17381 0.00781
vt 0.14808 0.02979
vt 0.13178 0.06542
vt 0.33594 0.61719
vt 0.27344 0.61711
vt 0.32418 0.68551
vt 0.33163 0.73466
vt 0.33481 0.80767
vt 0.34006 0.93593
vt 0.08961 0.90658
vt 0.13849 0.81812
vt 0.15919 0.74143
vt 0.14629 0.64003
vt 0.20312 0.78062
vt 0.19178 0.71032
vt 0.05598 0.42798
vt 0.08903 0.53189
vt 0.27344 0.60695
vt 0.33594 0.61703
vt 0.31973 0.94688
vt 0.30338 0.99219
vt 0.13724 0.90921
vt 0.17418 0.94009
vt 0.17418 0.89424
vt 0.21429 0.94512
vt 0.19919 0.90779
vt 0.17418 0.82722
vt 0.13724 0.85032
vt 0.17418 0.86168
vt 0.20244 0.82149
vt 0.20244 0.84517
vt 0.29449 0.90641
vt 0.27899 0.92910
vt 0.29916 0.95793
vt 0.25089 0.89234
vt 0.25089 0.92271
vt 0.21826 0.85303
vt 0.23420 0.84045
vt 0.22749 0.87226
vt 0.26822 0.73932
vt 0.26247 0.77864
vt 0.29190 0.76976
vt 0.31501 0.81172
vt 0.26829 0.82688
vt 0.29710 0.87302
vt 0.32963 0.86394
vt 0.31944 0.64075
vt 0.29049 0.65239
vt 0.30728 0.66006
vt 0.27908 0.68371
vt 0.30318 0.68371
vt 0.28711 0.71494
vt 0.30799 0.70524
vt 0.31550 0.74889
vt 0.24925 0.04971
vt 0.22840 0.07550
vt 0.18003 0.07582
vt 0.19264 0.11490
vt 0.22251 0.10341
vt 0.21320 0.14044
vt 0.24329 0.12585
vt 0.46094 0.19362
vt 0.52344 0.19362
vt 0.46094 0.24701
vt 0.52344 0.24608
vt 0.46094 0.30373
vt 0.52344 0.30402
vt 0.46094 0.13347
vt 0.52344 0.13347
vt 0.52344 0.07085
vt 0.46094 0.07085
vt 0.52344 0.02193
vt 0.46094 0.37961
vt 0.52344 0.37898
vt 0.52344 0.40957
vt 0.52344 0.46317
vt 0.46094 0.42264
vt 0.46094 0.45739
vt 0.22632 0.22187
vt 0.15205 0.22151
vt 0.24740 0.36125
vt 0.22511 0.32200
vt 0.12479 0.36125
vt 0.15647 0.32200
vt 0.21550 0.27673
vt 0.16835 0.27673
vt 0.09818 0.34894
vt 0.07162 0.38454
vt 0.09571 0.40512
vt 0.14942 0.39723
vt 0.12743 0.40796
vt 0.06316 0.35262
vt 0.08031 0.32215
vt 0.19193 0.42410
vt 0.22348 0.45868
vt 0.25589 0.40344
vt 0.28650 0.44933
vt 0.25542 0.46203
vt 0.28397 0.38150
vt 0.28189 0.41313
vt 0.30346 0.39874
vt 0.30189 0.42743
vt 0.20969 0.61051
vt 0.26052 0.65830
vt 0.26178 0.69762
vt 0.20131 0.65830
vt 0.19907 0.69762
vt 0.20841 0.74003
vt 0.25131 0.74003
vt 0.23037 0.78245
vt 0.24825 0.60473
vt 0.25726 0.67169
vt 0.19986 0.67169
vt 0.22918 0.78221
vt 0.20769 0.73003
vt 0.25052 0.73003
vt 0.35432 0.36223
vt 0.31592 0.35600
vt 0.35432 0.30697
vt 0.31592 0.30697
vt 0.27748 0.32532
vt 0.27748 0.28479
vt 0.26313 0.25205
vt 0.24261 0.26703
vt 0.23442 0.20226
vt 0.25535 0.20226
vt 0.27748 0.14810
vt 0.26224 0.17058
vt 0.30213 0.09043
vt 0.31737 0.08686
vt 0.31536 0.12464
vt 0.33192 0.11463
vt 0.35753 0.13843
vt 0.34580 0.15458
vt 0.39834 0.34659
vt 0.38067 0.28733
vt 0.43112 0.31348
vt 0.45285 0.26876
vt 0.43112 0.25764
vt 0.39436 0.25764
vt 0.45057 0.22008
vt 0.43112 0.22008
vt 0.39436 0.22008
vt 0.43112 0.17972
vt 0.40695 0.15655
vt 0.37724 0.17972
vt 0.35208 0.00242
vt 0.35208 0.04045
vt 0.33037 0.00859
vt 0.32300 0.05397
vt 0.30984 0.02655
vt 0.30054 0.05397
vt 0.39524 0.02183
vt 0.40549 0.05066
vt 0.37629 0.05066
vt 0.40549 0.07444
vt 0.38302 0.06255
vt 0.37629 0.07444
vt 0.37609 0.00859
vt 0.39386 0.09562
vt 0.37629 0.10208
vt 0.35642 0.09562
vt 0.36311 0.07202
vt 0.35582 0.05866
vt 0.34866 0.07872
vt 0.30110 0.20654
vt 0.34103 0.21000
vt 0.31620 0.22208
vt 0.35026 0.23889
vt 0.31952 0.23851
vt 0.31320 0.26704
vt 0.34715 0.26675
vt 0.32404 0.19499
vt 0.30128 0.19042
vt 0.28392 0.21230
vt 0.30562 0.29169
vt 0.32778 0.28565
vt 0.28350 0.10827
vt 0.29697 0.12001
vt 0.28642 0.12001
vt 0.29350 0.14025
vt 0.27748 0.12956
vt 0.11469 0.44066
vt 0.14046 0.46207
vt 0.14023 0.43507
vt 0.18242 0.44669
vt 0.14872 0.41991
vt 0.15693 0.46010
vt 0.13424 0.48344
vt 0.16115 0.49678
vt 0.16087 0.47338
vt 0.19484 0.47681
vt 0.19072 0.45913
vt 0.18273 0.49636
vt 0.21903 0.54485
vt 0.21750 0.51017
vt 0.18719 0.52428
vt 0.20127 0.48762
vt 0.19762 0.58819
vt 0.20342 0.55029
vt 0.17949 0.55961
vt 0.15191 0.55611
vt 0.83594 0.27595
vt 0.74012 0.07824
vt 0.71752 0.34610
vt 0.83594 0.51491
vt 0.77871 0.21681
vt 0.76853 0.16445
vt 0.75642 0.32387
vt 0.83594 0.02508
vt 0.78546 0.26629
vt 0.75782 0.49187
vt 0.75782 0.49187
vt 0.78906 0.46094
vt 0.78906 0.46094
vt 0.78906 0.46094
vt 0.78906 0.46094
vt 0.75782 0.49187
vt 0.75782 0.49187
vt 0.61719 0.49251
vt 0.61719 0.46094
vt 0.61719 0.46094
vt 0.61719 0.49251
vt 0.56394 0.89062
vt 0.68606 0.89062
vt 0.62500 0.89062
vt 0.62500 0.80025
vt 0.62500 0.98100
vt 0.60156 0.00338
vt 0.60156 0.00162
vt 0.66406 0.18180
vt 0.53906 0.08331
vt 0.53906 0.00979
vt 0.66406 0.08331
vt 0.66406 0.00361
vt 0.66406 0.18180
vt 0.53906 0.08331
vt 0.53906 0.00979
vt 0.66406 0.08331
vt 0.66406 0.00361
vt 0.53906 0.04099
vt 0.53906 0.04293
vt 0.53906 0.04099
vt 0.53906 0.04293
vt 0.53906 0.15824
vt 0.60156 0.15824
vt 0.53906 0.15824
vt 0.53906 0.18180
vt 0.53906 0.21927
vt 0.53906 0.28216
vt 0.53906 0.21927
vt 0.53906 0.18180
vt 0.53906 0.08331
vt 0.53906 0.18180
vt 0.66406 0.18180
vt 0.66406 0.08331
vt 0.53906 0.18180
vt 0.53906 0.08331
vt 0.66406 0.18180
vt 0.66406 0.08331
vt 0.53906 0.21927
vt 0.53906 0.16878
vt 0.53906 0.28216
vt 0.60156 0.16878
vt 0.53906 0.21927
vt 0.53906 0.16878
vt 0.66406 0.05265
vt 0.66406 0.05265
vt 0.78906 0.38150
vt 0.78906 0.38150
vt 0.61719 0.38150
vt 0.60156 0.50936
vt 0.60156 0.42728
vt 0.60156 0.33667
vt 0.60156 0.42728
vt 0.60156 0.50936
vt 0.60156 0.58594
vt 0.60156 0.58594
vt 0.53906 0.50936
vt 0.53906 0.42728
vt 0.53906 0.33667
vt 0.53906 0.42728
vt 0.53906 0.50936
vt 0.53906 0.58594
vt 0.53906 0.58594
vt 0.57159 0.41951
vt 0.57032 0.49575
vt 0.57013 0.58097
vt 0.57051 0.50473
vt 0.57159 0.41951
vt 0.57184 0.49336
vt 0.57184 0.49336
vt 0.60156 0.50936
vt 0.60156 0.42728
vt 0.60156 0.33667
vt 0.60156 0.42728
vt 0.60156 0.50936
vt 0.60156 0.58594
vt 0.60156 0.58594
vt 0.53906 0.50936
vt 0.53906 0.42728
vt 0.53906 0.33667
vt 0.53906 0.42728
vt 0.53906 0.50936
vt 0.53906 0.58594
vt 0.53906 0.58594
vt 0.57159 0.41951
vt 0.57032 0.49575
vt 0.57013 0.58097
vt 0.57051 0.50473
vt 0.57159 0.41951
vt 0.57184 0.49336
vt 0.57184 0.49336
vt 0.53906 0.63891
vt 0.60156 0.63891
vt 0.53906 0.63891
vt 0.60156 0.63891
vt 0.60156 0.63891
vt 0.53906 0.63891
vt 0.60156 0.63891
vt 0.53906 0.63891
vt 0.57031 0.65721
vt 0.57031 0.65721
vt 0.57031 0.65721
vt 0.57031 0.65721
vt 0.74219 0.61719
vt 0.71094 0.61719
vt 0.74219 0.50781
vt 0.71094 0.50781
vt 0.71094 0.50781
vt 0.74219 0.50781
vt 0.71094 0.61719
vt 0.74219 0.61719
vt 0.71094 0.63281
vt 0.69531 0.63281
vt 0.66406 0.63281
vt 0.73194 0.44395
vt 0.78743 0.44395
vt 0.69531 0.50781
vt 0.66406 0.50781
vt 0.66406 0.50781
vt 0.69531 0.50781
vt 0.11719 0.91406
vt 0.03906 0.99219
vt 0.11719 0.99219
vt 0.11719 0.99219
vt 0.74219 0.61719
vt 0.71094 0.61719
vt 0.74219 0.50781
vt 0.71094 0.50781
vt 0.71094 0.50781
vt 0.74219 0.50781
vt 0.71094 0.61719
vt 0.74219 0.61719
vt 0.71094 0.63281
vt 0.69531 0.63281
vt 0.66406 0.63281
vt 0.73194 0.44395
vt 0.78743 0.44395
vt 0.11719 0.91406
vt 0.11719 0.99219
vt 0.11719 0.99219
vt 0.03906 0.99219
vt 0.39844 0.99219
vt 0.39844 0.99219
vt 0.39844 0.99219
vt 0.46094 0.99219
vt 0.49219 0.99219
vt 0.00781 0.42813
vt 0.92969 0.80510
vt 0.85156 0.03604
vt 0.91406 0.01016
vt 0.85156 0.15894
vt 0.91406 0.18671
vt 0.91406 0.35394
vt 0.85156 0.32320
vt 0.92969 0.27083
vt 0.99219 0.30085
vt 0.80469 0.97636
vt 0.80469 0.85878
vt 0.80469 0.74031
vt 0.80469 0.60303
vt 0.80469 0.97656
vt 0.83594 0.97656
vt 0.80469 0.82400
vt 0.80469 0.68289
vt 0.80469 0.53357
vt 0.80469 0.41064
vt 0.80469 0.28771
vt 0.80469 0.18397
vt 0.80469 0.11858
vt 0.80469 0.01011
vt 0.18867 0.16406
vt 0.10156 0.16406
vt 0.33594 0.47648
vt 0.27344 0.52850
vt 0.33594 0.52850
vt 0.18035 0.04971
vt 0.46094 0.01243
vt 0.20582 0.18595
vt 0.18522 0.18041
vt 0.23050 0.57944
vt 0.25257 0.61051
vt 0.23050 0.57944
vt 0.21337 0.60473
vt 0.24329 0.14810
vt 0.18242 0.44669
vt 0.18273 0.49636
vt 0.18719 0.52428
vt 0.80469 0.09164
vt 0.80469 0.23149
vt 0.80469 0.23149
vt 0.67788 0.00075
vt 0.71752 0.04186
vt 0.80469 0.36689
vt 0.83594 0.34265
vt 0.80469 0.24047
vt 0.83594 0.22082
vt 0.80469 0.30247
vt 0.80469 0.40834
vt 0.83594 0.38711
vt 0.80469 0.29762
vt 0.83594 0.39567
vt 0.75642 0.12135
vt 0.83594 0.22290
vt 0.80469 0.12669
vt 0.83594 0.10968
vt 0.80469 0.52640
vt 0.83594 0.53416
vt 0.80469 0.52473
vt 0.83594 0.41805
vt 0.80469 0.40864
vt 0.83594 0.27591
vt 0.83594 0.41440
vt 0.80469 0.26995
vt 0.80469 0.12206
vt 0.80469 0.00246
vt 0.78790 0.31169
vt 0.80469 0.00096
vt 0.83594 0.02217
vt 0.80469 0.14023
vt 0.83594 0.14023
vt 0.80469 0.27262
vt 0.83594 0.14674
vt 0.80469 0.14315
vt 0.85156 0.97656
vt 0.85156 0.93618
vt 0.88281 0.97656
vt 0.88281 0.93558
vt 0.85156 0.89869
vt 0.88281 0.89849
vt 0.85156 0.86760
vt 0.88281 0.86780
vt 0.85156 0.94373
vt 0.88281 0.94373
vt 0.85156 0.97656
vt 0.88281 0.97656
vt 0.85156 0.91054
vt 0.88281 0.91054
vt 0.85156 0.87542
vt 0.88281 0.87542
vt 0.85156 0.84651
vt 0.88281 0.84651
vt 0.85156 0.81760
vt 0.88281 0.81760
vt 0.85156 0.79320
vt 0.88281 0.79320
vt 0.85156 0.76481
vt 0.88281 0.76481
vt 0.92969 0.80510
vt 0.85156 0.51083
vt 0.91406 0.53672
vt 0.85156 0.38793
vt 0.91406 0.36016
vt 0.91406 0.01016
vt 0.85156 0.04656
vt 0.91406 0.19293
vt 0.85156 0.22367
vt 0.99219 0.30085
vt 0.99219 0.00964
vt 0.92969 0.06037
vt 0.80469 0.85878
vt 0.80469 0.74031
vt 0.80469 0.60303
vt 0.80469 0.97656
vt 0.80469 0.82400
vt 0.83594 0.97656
vt 0.80469 0.68289
vt 0.80469 0.53357
vt 0.80469 0.41064
vt 0.80469 0.28771
vt 0.80469 0.18397
vt 0.80469 0.11858
vt 0.18867 0.16406
vt 0.18035 0.04971
vt 0.46094 0.01243
vt 0.20582 0.18595
vt 0.18522 0.18041
vt 0.23050 0.57944
vt 0.25257 0.61051
vt 0.23050 0.57944
vt 0.21337 0.60473
vt 0.24329 0.14810
vt 0.18242 0.44669
vt 0.18273 0.49636
vt 0.18719 0.52428
vt 0.80469 0.23149
vt 0.80469 0.23149
vt 0.71752 0.04186
vt 0.80469 0.24047
vt 0.83594 0.22082
vt 0.80469 0.30247
vt 0.80469 0.40834
vt 0.80469 0.29762
vt 0.83594 0.38711
vt 0.83594 0.39567
vt 0.75642 0.12135
vt 0.80469 0.12669
vt 0.83594 0.22290
vt 0.83594 0.10968
vt 0.80469 0.52640
vt 0.83594 0.53416
vt 0.83594 0.41805
vt 0.80469 0.52473
vt 0.80469 0.40864
vt 0.83594 0.41440
vt 0.83594 0.27591
vt 0.80469 0.26995
vt 0.80469 0.12206
vt 0.80469 0.00246
vt 0.78790 0.31169
vt 0.80469 0.00096
vt 0.80469 0.14023
vt 0.83594 0.02217
vt 0.83594 0.14023
vt 0.83594 0.14674
vt 0.80469 0.27262
vt 0.80469 0.14315
vt 0.88281 0.93558
vt 0.85156 0.93618
vt 0.88281 0.89849
vt 0.85156 0.89869
vt 0.88281 0.86780
vt 0.85156 0.86760
vt 0.85156 0.94373
vt 0.85156 0.97656
vt 0.88281 0.94373
vt 0.88281 0.97656
vt 0.85156 0.91054
vt 0.88281 0.91054
vt 0.85156 0.87542
vt 0.88281 0.87542
vt 0.85156 0.84651
vt 0.88281 0.84651
vt 0.85156 0.81760
vt 0.88281 0.81760
vt 0.85156 0.79320
vt 0.88281 0.79320
vt 0.61719 0.44531
vt 0.78906 0.44531
vt 0.78906 0.44531
vt 0.61719 0.44531
vt 0.78906 0.44531
vt 0.78906 0.44531
vt 0.78906 0.49253
vt 0.75780 0.56261
vt 0.78906 0.63376
vt 0.78906 0.49253
vt 0.75782 0.51832
vt 0.75782 0.51832
vt 0.78906 0.63376
vt 0.75780 0.56261
vt 0.78906 0.49253
vt 0.75782 0.51832
vt 0.78906 0.49253
vt 0.75782 0.51832
vt 0.62500 0.80025
vt 0.62500 0.89062
vt 0.56394 0.89062
vt 0.62500 0.89062
vt 0.62500 0.98100
vt 0.68606 0.89062
vt 0.66406 0.21927
vt 0.66406 0.28216
vt 0.66406 0.21927
vt 0.53906 0.00404
vt 0.60156 0.00404
vt 0.53906 0.00404
vt 0.66406 0.21927
vt 0.66406 0.28216
vt 0.66406 0.21927
vt 0.60156 0.18221
vt 0.53906 0.18221
vt 0.53906 0.18221
vt 0.60156 0.50083
vt 0.60156 0.41475
vt 0.57051 0.50473
vt 0.60156 0.58594
vt 0.60156 0.49985
vt 0.57032 0.49575
vt 0.60156 0.41475
vt 0.60156 0.49336
vt 0.57174 0.42053
vt 0.57174 0.42053
vt 0.60156 0.49336
vt 0.60156 0.41475
vt 0.60156 0.50083
vt 0.60156 0.58594
vt 0.60156 0.49985
vt 0.60156 0.41475
vt 0.60156 0.49336
vt 0.60156 0.49336
vt 0.60156 0.50083
vt 0.60156 0.41475
vt 0.60156 0.58594
vt 0.57051 0.50473
vt 0.60156 0.49985
vt 0.60156 0.41475
vt 0.57032 0.49575
vt 0.60156 0.49336
vt 0.57174 0.42053
vt 0.57174 0.42053
vt 0.60156 0.49336
vt 0.60156 0.41475
vt 0.60156 0.50083
vt 0.60156 0.58594
vt 0.60156 0.49985
vt 0.60156 0.41475
vt 0.60156 0.49336
vt 0.60156 0.49336
vt 0.60156 0.60156
vt 0.53906 0.60156
vt 0.53906 0.60156
vt 0.60156 0.60156
vt 0.60156 0.60156
vt 0.53906 0.60156
vt 0.53906 0.60156
vt 0.60156 0.60156
vt 0.78743 0.44395
vt 0.78743 0.38846
vt 0.66406 0.63281
vt 0.69531 0.63281
vt 0.78743 0.44395
vt 0.78743 0.38846
vt 0.66406 0.63281
vt 0.69531 0.63281
vt 0.46094 0.99219
vt 0.46094 0.99219
vt 0.49219 0.99219
vt 0.49219 0.99219
vt 0.42969 0.99219
vt 0.42969 0.99219
vt 0.42969 0.99219
usemtl m0
f 21/21 23/23 22/22
f 23/23 25/25 24/24
f 26/26 25/25 23/23
f 23/23 24/24 22/22
f 24/24 253/253 22/22
f 253/253 24/24 27/27
f 27/27 24/24 28/28
f 25/25 29/29 24/24
f 28/28 24/24 29/29
f 27/27 28/28 30/30
f 28/28 31/31 30/30
f 31/31 28/28 32/32
f 28/28 29/29 32/32
f 29/29 33/33 32/32
f 18/18 1/1 10/10
f 1/1 18/18 17/17
f 9/9 5/5 254/254
f 17/17 254/254 5/5
f 254/254 17/17 18/18
f 11/11 20/20 2/2
f 2/2 20/20 19/19
f 20/20 10/10 687/687
f 10/10 1/1 687/687
f 688/688 6/6 689/689
f 6/6 12/12 689/689
f 690/690 7/7 691/691
f 7/7 13/13 691/691
f 16/16 692/692 4/4
f 692/692 693/693 4/4
f 14/14 8/8 256/256
f 694/694 252/252 695/695
f 252/252 9/9 695/695
f 252/252 5/5 9/9
f 15/15 3/3 14/14
f 3/3 8/8 14/14
f 34/34 42/42 696/696
f 42/42 697/697 696/696
f 697/697 42/42 698/698
f 42/42 41/41 698/698
f 41/41 39/39 698/698
f 39/39 699/699 698/698
f 700/700 701/701 702/702
f 701/701 40/40 702/702
f 40/40 36/36 702/702
f 36/36 703/703 702/702
f 703/703 36/36 704/704
f 36/36 37/37 704/704
f 37/37 255/255 704/704
f 255/255 705/705 704/704
f 705/705 255/255 706/706
f 255/255 38/38 706/706
f 38/38 257/257 706/706
f 257/257 707/707 706/706
f 707/707 257/257 708/708
f 257/257 43/43 708/708
f 43/43 35/35 708/708
f 35/35 709/709 708/708
f 45/45 64/64 47/47
f 64/64 62/62 47/47
f 710/710 63/63 711/711
f 44/44 46/46 224/224
f 46/46 65/65 224/224
f 46/46 711/711 65/65
f 63/63 65/65 711/711
f 712/712 49/49 50/50
f 49/49 48/48 50/50
f 51/51 101/101 53/53
f 52/52 70/70 51/51
f 70/70 101/101 51/51
f 52/52 92/92 70/70
f 54/54 67/67 56/56
f 67/67 55/55 56/56
f 55/55 59/59 56/56
f 59/59 57/57 56/56
f 58/58 60/60 59/59
f 60/60 57/57 59/59
f 66/66 47/47 686/686
f 47/47 66/66 45/45
f 56/56 61/61 66/66
f 57/57 61/61 56/56
f 713/713 714/714 68/68
f 714/714 69/69 68/68
f 52/52 72/72 88/88
f 76/76 75/75 273/273
f 78/78 273/273 79/79
f 273/273 75/75 79/79
f 85/85 84/84 77/77
f 77/77 84/84 75/75
f 81/81 80/80 85/85
f 80/80 84/84 85/85
f 73/73 88/88 74/74
f 74/74 88/88 89/89
f 72/72 89/89 88/88
f 75/75 76/76 77/77
f 73/73 74/74 87/87
f 74/74 86/86 87/87
f 87/87 86/86 79/79
f 79/79 86/86 78/78
f 80/80 81/81 82/82
f 81/81 83/83 82/82
f 82/82 83/83 71/71
f 90/90 95/95 94/94
f 93/93 91/91 95/95
f 91/91 94/94 95/95
f 91/91 93/93 218/218
f 93/93 219/219 218/218
f 218/218 219/219 88/88
f 92/92 88/88 219/219
f 52/52 88/88 92/92
f 96/96 98/98 97/97
f 97/97 98/98 103/103
f 98/98 104/104 103/103
f 103/103 104/104 99/99
f 104/104 100/100 99/99
f 101/101 102/102 100/100
f 102/102 99/99 100/100
f 101/101 70/70 102/102
f 105/105 715/715 203/203
f 715/715 204/204 203/203
f 109/109 108/108 204/204
f 204/204 108/108 203/203
f 109/109 107/107 108/108
f 107/107 106/106 108/108
f 115/115 112/112 116/116
f 112/112 111/111 116/116
f 112/112 122/122 111/111
f 122/122 121/121 111/111
f 117/117 115/115 118/118
f 115/115 116/116 118/118
f 120/120 119/119 118/118
f 119/119 117/117 118/118
f 110/110 716/716 120/120
f 716/716 119/119 120/120
f 122/122 124/124 121/121
f 124/124 123/123 121/121
f 151/151 189/189 113/113
f 113/113 189/189 114/114
f 123/123 124/124 151/151
f 124/124 189/189 151/151
f 717/717 126/126 718/718
f 126/126 125/125 718/718
f 132/132 127/127 131/131
f 270/270 131/131 127/127
f 270/270 130/130 131/131
f 270/270 129/129 130/130
f 130/130 129/129 126/126
f 126/126 129/129 125/125
f 226/226 246/246 133/133
f 225/225 134/134 127/127
f 134/134 246/246 127/127
f 246/246 226/226 127/127
f 133/133 227/227 226/226
f 226/226 227/227 135/135
f 136/136 128/128 140/140
f 137/137 229/229 128/128
f 128/128 229/229 140/140
f 138/138 228/228 139/139
f 228/228 230/230 139/139
f 230/230 137/137 139/139
f 137/137 128/128 139/139
f 719/719 188/188 720/720
f 188/188 141/141 720/720
f 142/142 141/141 143/143
f 188/188 143/143 141/141
f 143/143 145/145 142/142
f 191/191 190/190 145/145
f 145/145 190/190 142/142
f 144/144 190/190 191/191
f 721/721 722/722 146/146
f 147/147 146/146 148/148
f 146/146 722/722 148/148
f 149/149 192/192 150/150
f 148/148 150/150 147/147
f 147/147 150/150 192/192
f 155/155 154/154 187/187
f 154/154 186/186 187/187
f 187/187 186/186 152/152
f 152/152 186/186 153/153
f 157/157 156/156 153/153
f 156/156 152/152 153/153
f 158/158 156/156 159/159
f 156/156 157/157 159/159
f 160/160 723/723 269/269
f 158/158 269/269 723/723
f 158/158 159/159 269/269
f 164/164 195/195 161/161
f 161/161 195/195 194/194
f 162/162 194/194 163/163
f 195/195 163/163 194/194
f 155/155 182/182 154/154
f 182/182 193/193 183/183
f 165/165 271/271 193/193
f 193/193 271/271 183/183
f 183/183 271/271 166/166
f 182/182 183/183 154/154
f 165/165 184/184 271/271
f 184/184 272/272 271/271
f 272/272 185/185 271/271
f 271/271 185/185 166/166
f 184/184 202/202 272/272
f 202/202 185/185 272/272
f 167/167 168/168 202/202
f 168/168 185/185 202/202
f 167/167 162/162 168/168
f 162/162 163/163 168/168
f 170/170 200/200 169/169
f 169/169 200/200 171/171
f 200/200 172/172 171/171
f 172/172 196/196 171/171
f 164/164 161/161 196/196
f 196/196 161/161 171/171
f 176/176 175/175 177/177
f 177/177 199/199 174/174
f 174/174 199/199 173/173
f 199/199 177/177 175/175
f 170/170 169/169 201/201
f 169/169 175/175 201/201
f 175/175 176/176 201/201
f 174/174 173/173 198/198
f 173/173 178/178 198/198
f 178/178 173/173 197/197
f 181/181 197/197 173/173
f 179/179 180/180 181/181
f 197/197 181/181 180/180
f 210/210 214/214 211/211
f 213/213 211/211 212/212
f 211/211 214/214 212/212
f 212/212 208/208 213/213
f 213/213 208/208 209/209
f 211/211 216/216 210/210
f 216/216 207/207 210/210
f 206/206 210/210 207/207
f 153/153 205/205 208/208
f 205/205 215/215 208/208
f 209/209 208/208 215/215
f 217/217 221/221 223/223
f 221/221 222/222 223/223
f 160/160 222/222 220/220
f 222/222 221/221 220/220
f 106/106 723/723 220/220
f 220/220 723/723 160/160
f 106/106 107/107 723/723
f 231/231 244/244 243/243
f 225/225 136/136 245/245
f 136/136 232/232 245/245
f 232/232 244/244 245/245
f 243/243 244/244 251/251
f 244/244 232/232 251/251
f 233/233 248/248 247/247
f 235/235 248/248 250/250
f 724/724 250/250 248/248
f 235/235 234/234 248/248
f 247/247 248/248 234/234
f 236/236 241/241 237/237
f 725/725 238/238 241/241
f 237/237 241/241 238/238
f 239/239 249/249 240/240
f 242/242 726/726 249/249
f 240/240 249/249 726/726
f 136/136 225/225 132/132
f 225/225 127/127 132/132
f 132/132 128/128 136/136
f 727/727 728/728 263/263
f 729/729 262/262 263/263
f 730/730 731/731 259/259
f 267/267 258/258 731/731
f 258/258 259/259 731/731
f 732/732 733/733 734/734
f 734/734 733/733 735/735
f 729/729 736/736 262/262
f 737/737 738/738 739/739
f 739/739 738/738 262/262
f 737/737 261/261 740/740
f 258/258 267/267 741/741
f 260/260 264/264 268/268
f 258/258 741/741 264/264
f 741/741 268/268 264/264
f 734/734 742/742 743/743
f 743/743 742/742 744/744
f 737/737 745/745 261/261
f 746/746 747/747 748/748
f 747/747 749/749 748/748
f 749/749 750/750 751/751
f 749/749 752/752 750/750
f 753/753 744/744 754/754
f 754/754 744/744 265/265
f 755/755 264/264 266/266
f 264/264 260/260 266/266
f 756/756 757/757 758/758
f 757/757 759/759 758/758
f 750/750 760/760 761/761
f 761/761 760/760 762/762
f 763/763 764/764 765/765
f 764/764 766/766 765/765
f 764/764 767/767 766/766
f 767/767 768/768 766/766
f 767/767 769/769 768/768
f 769/769 770/770 768/768
f 771/771 772/772 773/773
f 772/772 774/774 773/773
f 775/775 776/776 771/771
f 776/776 772/772 771/771
f 777/777 778/778 775/775
f 778/778 776/776 775/775
f 779/779 780/780 777/777
f 780/780 778/778 777/777
f 781/781 782/782 779/779
f 782/782 780/780 779/779
f 783/783 784/784 781/781
f 784/784 782/782 781/781
f 785/785 786/786 783/783
f 786/786 784/784 783/783
f 21/21 274/274 23/23
f 23/23 275/275 276/276
f 26/26 23/23 276/276
f 23/23 274/274 275/275
f 275/275 274/274 277/277
f 277/277 278/278 275/275
f 278/278 279/279 275/275
f 276/276 275/275 280/280
f 279/279 280/280 275/275
f 278/278 281/281 279/279
f 279/279 281/281 282/282
f 282/282 283/283 279/279
f 279/279 283/283 280/280
f 280/280 283/283 284/284
f 285/285 286/286 287/287
f 287/287 288/288 285/285
f 289/289 290/290 291/291
f 288/288 291/291 290/290
f 290/290 285/285 288/288
f 292/292 293/293 294/294
f 293/293 295/295 294/294
f 294/294 787/787 286/286
f 286/286 787/787 287/287
f 788/788 789/789 296/296
f 296/296 789/789 297/297
f 790/790 791/791 298/298
f 298/298 791/791 299/299
f 792/792 793/793 794/794
f 794/794 793/793 795/795
f 300/300 301/301 302/302
f 302/302 796/796 303/303
f 303/303 796/796 289/289
f 303/303 289/289 291/291
f 797/797 300/300 798/798
f 798/798 300/300 302/302
f 34/34 696/696 304/304
f 304/304 696/696 799/799
f 799/799 800/800 304/304
f 304/304 800/800 305/305
f 305/305 800/800 306/306
f 306/306 800/800 801/801
f 802/802 803/803 804/804
f 804/804 803/803 307/307
f 307/307 803/803 308/308
f 308/308 803/803 805/805
f 805/805 806/806 308/308
f 308/308 806/806 309/309
f 309/309 806/806 311/311
f 806/806 807/807 311/311
f 310/310 311/311 808/808
f 311/311 807/807 808/808
f 310/310 808/808 313/313
f 808/808 809/809 313/313
f 312/312 313/313 810/810
f 313/313 809/809 810/810
f 709/709 35/35 810/810
f 810/810 35/35 312/312
f 314/314 47/47 315/315
f 315/315 47/47 316/316
f 811/811 711/711 317/317
f 318/318 319/319 46/46
f 46/46 319/319 320/320
f 46/46 320/320 711/711
f 317/317 711/711 320/320
f 712/712 50/50 321/321
f 321/321 50/50 322/322
f 51/51 323/323 324/324
f 52/52 51/51 325/325
f 325/325 51/51 324/324
f 52/52 325/325 326/326
f 54/54 56/56 327/327
f 327/327 56/56 328/328
f 328/328 56/56 329/329
f 329/329 56/56 330/330
f 331/331 329/329 332/332
f 332/332 329/329 330/330
f 333/333 686/686 47/47
f 47/47 314/314 333/333
f 56/56 333/333 334/334
f 330/330 56/56 334/334
f 713/713 335/335 714/714
f 714/714 335/335 336/336
f 52/52 337/337 338/338
f 339/339 340/340 341/341
f 342/342 343/343 340/340
f 340/340 343/343 341/341
f 344/344 345/345 346/346
f 345/345 341/341 346/346
f 347/347 344/344 348/348
f 348/348 344/344 346/346
f 349/349 350/350 337/337
f 350/350 351/351 337/337
f 338/338 337/337 351/351
f 341/341 345/345 339/339
f 349/349 352/352 350/350
f 350/350 352/352 353/353
f 352/352 343/343 353/353
f 343/343 342/342 353/353
f 348/348 354/354 347/347
f 347/347 354/354 355/355
f 354/354 356/356 355/355
f 357/357 358/358 359/359
f 360/360 359/359 361/361
f 361/361 359/359 358/358
f 361/361 362/362 360/360
f 360/360 362/362 363/363
f 362/362 337/337 363/363
f 326/326 363/363 337/337
f 52/52 326/326 337/337
f 364/364 365/365 366/366
f 365/365 367/367 366/366
f 366/366 367/367 368/368
f 367/367 369/369 368/368
f 368/368 369/369 370/370
f 324/324 370/370 371/371
f 371/371 370/370 369/369
f 324/324 371/371 325/325
f 372/372 373/373 812/812
f 812/812 373/373 374/374
f 375/375 374/374 376/376
f 374/374 373/373 376/376
f 375/375 376/376 377/377
f 377/377 376/376 378/378
f 379/379 380/380 381/381
f 381/381 380/380 382/382
f 381/381 382/382 383/383
f 383/383 382/382 384/384
f 385/385 386/386 379/379
f 379/379 386/386 380/380
f 387/387 386/386 388/388
f 388/388 386/386 385/385
f 389/389 387/387 813/813
f 813/813 387/387 388/388
f 383/383 384/384 390/390
f 390/390 384/384 391/391
f 392/392 393/393 394/394
f 393/393 395/395 394/394
f 391/391 392/392 390/390
f 390/390 392/392 394/394
f 814/814 815/815 396/396
f 396/396 815/815 397/397
f 398/398 399/399 400/400
f 401/401 400/400 399/399
f 401/401 399/399 402/402
f 401/401 402/402 403/403
f 402/402 396/396 403/403
f 396/396 397/397 403/403
f 404/404 405/405 406/406
f 407/407 400/400 408/408
f 408/408 400/400 406/406
f 406/406 400/400 404/404
f 405/405 404/404 409/409
f 404/404 410/410 409/409
f 411/411 412/412 413/413
f 414/414 413/413 415/415
f 413/413 412/412 415/415
f 416/416 417/417 418/418
f 418/418 417/417 419/419
f 419/419 417/417 414/414
f 414/414 417/417 413/413
f 816/816 817/817 420/420
f 420/420 817/817 421/421
f 422/422 423/423 421/421
f 420/420 421/421 423/423
f 423/423 422/422 424/424
f 425/425 424/424 426/426
f 424/424 422/422 426/426
f 427/427 425/425 426/426
f 818/818 428/428 819/819
f 429/429 430/430 428/428
f 428/428 430/430 819/819
f 431/431 432/432 433/433
f 430/430 429/429 432/432
f 429/429 433/433 432/432
f 434/434 435/435 436/436
f 436/436 435/435 437/437
f 435/435 438/438 437/437
f 438/438 439/439 437/437
f 440/440 439/439 441/441
f 441/441 439/439 438/438
f 442/442 443/443 441/441
f 441/441 443/443 440/440
f 444/444 445/445 820/820
f 442/442 820/820 445/445
f 442/442 445/445 443/443
f 446/446 447/447 448/448
f 447/447 449/449 448/448
f 450/450 451/451 449/449
f 448/448 449/449 451/451
f 434/434 436/436 452/452
f 452/452 453/453 454/454
f 455/455 454/454 456/456
f 454/454 453/453 456/456
f 453/453 457/457 456/456
f 452/452 436/436 453/453
f 455/455 456/456 458/458
f 458/458 456/456 459/459
f 459/459 456/456 460/460
f 456/456 457/457 460/460
f 458/458 459/459 461/461
f 461/461 459/459 460/460
f 462/462 461/461 463/463
f 463/463 461/461 460/460
f 462/462 463/463 450/450
f 450/450 463/463 451/451
f 464/464 465/465 466/466
f 465/465 467/467 466/466
f 466/466 467/467 468/468
f 468/468 467/467 469/469
f 446/446 469/469 447/447
f 469/469 467/467 447/447
f 470/470 471/471 472/472
f 471/471 473/473 474/474
f 473/473 475/475 474/474
f 474/474 472/472 471/471
f 464/464 476/476 465/465
f 465/465 476/476 472/472
f 472/472 476/476 470/470
f 473/473 477/477 475/475
f 475/475 477/477 478/478
f 478/478 479/479 475/475
f 480/480 475/475 479/479
f 481/481 480/480 482/482
f 479/479 482/482 480/480
f 483/483 484/484 485/485
f 486/486 487/487 484/484
f 484/484 487/487 485/485
f 487/487 486/486 488/488
f 486/486 489/489 488/488
f 484/484 483/483 490/490
f 490/490 483/483 491/491
f 492/492 491/491 483/483
f 439/439 488/488 493/493
f 493/493 488/488 494/494
f 489/489 494/494 488/488
f 495/495 496/496 497/497
f 497/497 496/496 498/498
f 444/444 499/499 498/498
f 498/498 499/499 497/497
f 378/378 499/499 820/820
f 499/499 444/444 820/820
f 378/378 820/820 377/377
f 500/500 501/501 502/502
f 407/407 504/504 411/411
f 504/504 503/503 411/411
f 503/503 504/504 502/502
f 501/501 505/505 502/502
f 502/502 505/505 503/503
f 506/506 507/507 508/508
f 509/509 510/510 508/508
f 821/821 508/508 510/510
f 509/509 508/508 511/511
f 507/507 511/511 508/508
f 512/512 513/513 514/514
f 822/822 514/514 515/515
f 513/513 515/515 514/514
f 516/516 517/517 518/518
f 519/519 518/518 823/823
f 517/517 823/823 518/518
f 411/411 398/398 407/407
f 407/407 398/398 400/400
f 398/398 411/411 413/413
f 727/727 263/263 824/824
f 825/825 263/263 520/520
f 730/730 259/259 826/826
f 521/521 826/826 522/522
f 522/522 826/826 259/259
f 732/732 827/827 733/733
f 827/827 828/828 733/733
f 825/825 520/520 829/829
f 830/830 831/831 832/832
f 831/831 520/520 832/832
f 830/830 833/833 523/523
f 522/522 834/834 521/521
f 524/524 525/525 526/526
f 522/522 526/526 834/834
f 834/834 526/526 525/525
f 827/827 835/835 836/836
f 835/835 837/837 836/836
f 830/830 523/523 838/838
f 839/839 840/840 841/841
f 841/841 840/840 842/842
f 842/842 843/843 844/844
f 842/842 844/844 845/845
f 846/846 847/847 837/837
f 847/847 527/527 837/837
f 848/848 528/528 526/526
f 526/526 528/528 524/524
f 849/849 850/850 851/851
f 851/851 850/850 852/852
f 844/844 853/853 854/854
f 853/853 855/855 854/854
f 856/856 857/857 765/765
f 857/857 763/763 765/765
f 858/858 859/859 856/856
f 859/859 857/857 856/856
f 860/860 861/861 858/858
f 861/861 859/859 858/858
f 862/862 863/863 864/864
f 863/863 865/865 864/864
f 866/866 862/862 867/867
f 862/862 864/864 867/867
f 868/868 866/866 869/869
f 866/866 867/867 869/869
f 870/870 868/868 871/871
f 868/868 869/869 871/871
f 872/872 870/870 873/873
f 870/870 871/871 873/873
f 874/874 872/872 875/875
f 872/872 873/873 875/875
f 785/785 874/874 786/786
f 874/874 875/875 786/786
f 532/532 530/530 538/538
f 530/530 537/537 538/538
f 537/537 529/529 538/538
f 529/529 531/531 538/538
f 533/533 535/535 539/539
f 535/535 540/540 539/539
f 540/540 536/536 539/539
f 539/539 536/536 534/534
f 876/876 588/588 877/877
f 588/588 586/586 877/877
f 586/586 588/588 878/878
f 878/878 588/588 879/879
f 879/879 588/588 880/880
f 588/588 587/587 880/880
f 587/587 588/588 881/881
f 881/881 588/588 876/876
f 882/882 883/883 884/884
f 885/885 883/883 886/886
f 883/883 882/882 887/887
f 888/888 889/889 890/890
f 890/890 889/889 891/891
f 889/889 892/892 893/893
f 541/541 543/543 544/544
f 894/894 895/895 542/542
f 896/896 545/545 897/897
f 543/543 898/898 899/899
f 562/562 558/558 563/563
f 558/558 547/547 563/563
f 549/549 548/548 565/565
f 550/550 551/551 549/549
f 548/548 549/549 551/551
f 552/552 551/551 550/550
f 569/569 553/553 554/554
f 553/553 556/556 554/554
f 556/556 555/555 554/554
f 557/557 555/555 556/556
f 564/564 563/563 560/560
f 563/563 547/547 560/560
f 565/565 548/548 566/566
f 548/548 900/900 566/566
f 566/566 900/900 567/567
f 900/900 901/901 567/567
f 568/568 567/567 902/902
f 567/567 901/901 902/902
f 569/569 568/568 553/553
f 568/568 902/902 553/553
f 903/903 581/581 579/579
f 903/903 904/904 581/581
f 581/581 905/905 583/583
f 581/581 904/904 905/905
f 570/570 572/572 571/571
f 572/572 570/570 573/573
f 573/573 570/570 584/584
f 574/574 576/576 575/575
f 576/576 577/577 575/575
f 571/571 572/572 578/578
f 572/572 906/906 578/578
f 578/578 906/906 580/580
f 906/906 907/907 580/580
f 582/582 580/580 908/908
f 580/580 907/907 908/908
f 574/574 582/582 576/576
f 582/582 908/908 576/576
f 575/575 577/577 585/585
f 546/546 559/559 909/909
f 559/559 910/910 909/909
f 911/911 561/561 909/909
f 561/561 546/546 909/909
f 596/596 597/597 589/589
f 597/597 590/590 589/589
f 590/590 597/597 591/591
f 597/597 598/598 591/591
f 598/598 599/599 591/591
f 599/599 592/592 591/591
f 592/592 599/599 593/593
f 599/599 600/600 593/593
f 600/600 601/601 593/593
f 601/601 594/594 593/593
f 595/595 602/602 589/589
f 602/602 596/596 589/589
f 912/912 604/604 913/913
f 913/913 604/604 603/603
f 605/605 914/914 915/915
f 915/915 914/914 912/912
f 916/916 606/606 915/915
f 915/915 606/606 605/605
f 607/607 917/917 918/918
f 918/918 917/917 916/916
f 919/919 608/608 918/918
f 918/918 608/608 920/920
f 921/921 609/609 913/913
f 913/913 609/609 922/922
f 603/603 604/604 923/923
f 923/923 604/604 924/924
f 924/924 914/914 925/925
f 925/925 914/914 605/605
f 605/605 606/606 925/925
f 925/925 606/606 926/926
f 926/926 917/917 927/927
f 927/927 917/917 607/607
f 920/920 608/608 927/927
f 927/927 608/608 928/928
f 929/929 609/609 923/923
f 923/923 609/609 921/921
f 611/611 618/618 610/610
f 618/618 617/617 610/610
f 611/611 612/612 618/618
f 612/612 619/619 618/618
f 613/613 620/620 612/612
f 620/620 619/619 612/612
f 613/613 614/614 620/620
f 614/614 621/621 620/620
f 615/615 622/622 614/614
f 622/622 621/621 614/614
f 616/616 610/610 623/623
f 610/610 617/617 623/623
f 930/930 931/931 625/625
f 931/931 624/624 625/625
f 626/626 932/932 933/933
f 932/932 930/930 933/933
f 934/934 932/932 627/627
f 932/932 626/626 627/627
f 628/628 935/935 936/936
f 935/935 934/934 936/936
f 937/937 935/935 629/629
f 935/935 938/938 629/629
f 939/939 931/931 630/630
f 931/931 940/940 630/630
f 624/624 941/941 625/625
f 941/941 942/942 625/625
f 942/942 943/943 933/933
f 943/943 626/626 933/933
f 626/626 943/943 627/627
f 943/943 944/944 627/627
f 944/944 945/945 936/936
f 945/945 628/628 936/936
f 938/938 945/945 629/629
f 945/945 946/946 629/629
f 947/947 941/941 630/630
f 941/941 939/939 630/630
f 632/632 639/639 948/948
f 639/639 949/949 948/948
f 949/949 639/639 631/631
f 633/633 640/640 950/950
f 640/640 951/951 950/950
f 951/951 640/640 634/634
f 635/635 641/641 952/952
f 641/641 953/953 952/952
f 953/953 641/641 636/636
f 638/638 642/642 954/954
f 642/642 955/955 954/954
f 955/955 642/642 637/637
f 643/643 645/645 644/644
f 645/645 646/646 644/644
f 647/647 649/649 648/648
f 649/649 650/650 648/648
f 650/650 649/649 651/651
f 649/649 643/643 651/651
f 643/643 644/644 651/651
f 644/644 650/650 651/651
f 646/646 648/648 644/644
f 648/648 650/650 644/644
f 647/647 645/645 649/649
f 645/645 643/643 649/649
f 656/656 652/652 657/657
f 657/657 652/652 653/653
f 956/956 654/654 957/957
f 654/654 655/655 957/957
f 958/958 658/658 959/959
f 959/959 658/658 659/659
f 653/653 959/959 657/657
f 959/959 659/659 657/657
f 958/958 652/652 658/658
f 652/652 656/656 658/658
f 660/660 661/661 663/663
f 662/662 661/661 660/660
f 664/664 665/665 666/666
f 666/666 665/665 667/667
f 668/668 669/669 670/670
f 670/670 669/669 671/671
f 671/671 672/672 670/670
f 670/670 672/672 664/664
f 664/664 672/672 665/665
f 665/665 672/672 671/671
f 667/667 665/665 669/669
f 669/669 665/665 671/671
f 668/668 670/670 666/666
f 666/666 670/670 664/664
f 656/656 657/657 673/673
f 657/657 674/674 673/673
f 960/960 961/961 675/675
f 675/675 961/961 676/676
f 962/962 963/963 658/658
f 963/963 659/659 658/658
f 674/674 657/657 963/963
f 963/963 657/657 659/659
f 962/962 658/658 673/673
f 673/673 658/658 656/656
f 677/677 678/678 680/680
f 679/679 677/677 680/680
f 66/66 686/686 56/56
f 333/333 56/56 686/686
usemtl m1
f 681/681 683/683 682/682
f 964/964 965/965 684/684
f 966/966 685/685 967/967
f 968/968 969/969 970/970
