mtllib arms4017.mtl
o arms4017
v 0.43200 0.00000 3.27366 0.000 0.000 1.000
v -0.77400 0.03366 3.24000 0.000 0.000 0.882
v -0.77400 0.00000 3.27366 0.000 0.000 1.000
v 0.43200 0.03366 3.24000 0.000 0.000 0.882
v 0.43200 0.00000 3.20634 0.000 0.000 1.000
v -0.77400 0.00000 3.20634 0.000 0.000 1.000
v -0.77400 -0.03366 3.24000 0.000 0.000 0.882
v 0.43200 -0.03366 3.24000 0.000 0.000 0.882
v 0.52200 0.01836 3.20346 0.000 0.843 0.000
v 0.72000 0.03492 3.15288 0.000 0.804 0.000
v 0.60642 0.00000 3.16044 0.000 0.922 0.000
v 0.72000 0.00000 3.09888 0.000 0.843 0.000
v 0.52200 0.00000 3.18078 0.000 0.941 0.000
v 0.52200 -0.01836 3.20346 0.000 0.843 0.000
v 0.72000 -0.03492 3.15288 0.000 0.804 0.000
v 0.77058 0.00000 3.12372 0.000 0.843 0.000
v 0.81108 0.02754 3.18474 0.000 0.941 0.000
v 0.81108 0.00000 3.16638 0.000 0.941 0.000
v 0.81108 -0.02754 3.18474 0.000 0.941 0.000
v 0.43200 0.03852 3.27852 0.000 0.882 0.000
v 0.32526 0.00000 3.27564 0.000 0.843 0.000
v 0.46800 0.00000 3.33774 0.000 0.804 0.000
v 0.46800 0.09774 3.24000 0.000 0.725 0.000
v 0.32526 0.03564 3.24000 0.000 0.843 0.000
v 0.43200 0.00000 3.24000 0.000 1.000 0.000
v 0.52200 0.06318 3.24000 0.000 0.843 0.000
v 0.52200 0.00000 3.30318 0.000 0.882 0.000
v 0.52200 -0.06318 3.24000 0.000 0.843 0.000
v 0.43200 0.03852 3.20148 0.000 0.882 0.000
v 0.46800 0.00000 3.14226 0.000 0.804 0.000
v 0.32526 0.00000 3.20436 0.000 0.843 0.000
v 0.52200 0.00000 3.17682 0.000 0.882 0.000
v 0.43200 -0.03852 3.27852 0.000 0.882 0.000
v 0.46800 -0.09774 3.24000 0.000 0.725 0.000
v 0.32526 -0.03564 3.24000 0.000 0.843 0.000
v 0.43200 -0.03852 3.20148 0.000 0.882 0.000
v 1.12338 0.00000 3.24000 0.000 1.000 0.000
v 1.17288 0.10026 3.24000 0.000 0.725 0.000
v 1.14732 0.03816 3.27438 0.000 0.922 0.000
v 1.17288 0.00000 3.32946 0.000 0.765 0.000
v 1.14732 0.03816 3.20562 0.000 0.922 0.000
v 1.17288 0.00000 3.15054 0.000 0.765 0.000
v 1.14732 -0.03816 3.27438 0.000 0.922 0.000
v 1.17288 -0.10026 3.24000 0.000 0.725 0.000
v 1.14732 -0.03816 3.20562 0.000 0.922 0.000
v 0.81108 0.00000 3.33558 0.000 0.804 0.000
v 0.81108 0.00000 3.14442 0.000 0.804 0.000
v 0.81108 -0.09558 3.24000 0.000 0.725 0.000
v 0.81108 0.09558 3.24000 0.000 0.725 0.000
v 0.81108 0.00000 3.14442 0.000 0.804 0.000
v 0.81108 -0.09558 3.24000 0.000 0.647 0.000
v 0.89928 0.00000 3.18870 0.000 0.882 0.000
v 0.89928 -0.05706 3.24000 0.000 0.804 0.000
v 0.89928 0.00000 3.29130 0.000 0.882 0.000
v 0.81108 0.09558 3.24000 0.000 0.647 0.000
v 0.89928 0.05706 3.24000 0.000 0.804 0.000
v 0.99000 0.00000 2.89224 0.000 1.000 0.000
v 0.96984 0.00000 2.81592 0.000 0.922 0.000
v 0.99000 -0.02250 2.81592 0.000 0.804 0.000
v 0.99000 0.02250 2.81592 0.000 0.804 0.000
v 1.01016 0.00000 2.81574 0.000 0.843 0.000
v 0.99000 -0.05688 2.77488 0.000 0.804 0.000
v 1.04112 0.00000 2.77488 0.000 0.843 0.000
v 1.02042 0.00000 2.81574 0.000 0.843 0.000
v 0.99000 -0.03366 2.81592 0.000 0.804 0.000
v 0.95976 0.00000 2.81592 0.000 0.882 0.000
v 0.93888 0.00000 2.77488 0.000 0.882 0.000
v 0.99000 0.05688 2.77488 0.000 0.804 0.000
v 0.99000 0.03366 2.81592 0.000 0.804 0.000
v 0.93888 0.00000 2.77488 0.000 0.882 0.000
v 1.04112 0.00000 2.77488 0.000 0.843 0.000
v 0.99000 -0.05688 2.77488 0.000 0.804 0.000
v 0.99000 0.05688 2.77488 0.000 0.804 0.000
v 0.95976 0.00000 2.81592 0.000 0.882 0.000
v 1.02042 0.00000 2.81574 0.000 0.843 0.000
v 0.99000 0.03366 2.81592 0.000 0.804 0.000
v 0.99000 -0.03366 2.81592 0.000 0.804 0.000
v 0.96984 0.00000 3.66408 0.000 0.922 0.000
v 0.99000 0.00000 3.58776 0.000 1.000 0.000
v 0.99000 -0.02250 3.66408 0.000 0.804 0.000
v 0.99000 0.02250 3.66408 0.000 0.804 0.000
v 1.01016 0.00000 3.66426 0.000 0.843 0.000
v 0.99000 -0.05688 3.70512 0.000 0.804 0.000
v 1.02042 0.00000 3.66426 0.000 0.843 0.000
v 1.04112 0.00000 3.70512 0.000 0.843 0.000
v 0.99000 -0.03366 3.66408 0.000 0.804 0.000
v 0.95976 0.00000 3.66408 0.000 0.882 0.000
v 0.93888 0.00000 3.70512 0.000 0.882 0.000
v 0.99000 0.05688 3.70512 0.000 0.804 0.000
v 0.99000 0.03366 3.66408 0.000 0.804 0.000
v 0.99000 -0.05688 3.70512 0.000 0.804 0.000
v 1.04112 0.00000 3.70512 0.000 0.843 0.000
v 0.93888 0.00000 3.70512 0.000 0.882 0.000
v 0.99000 0.05688 3.70512 0.000 0.804 0.000
v 0.95976 0.00000 3.66408 0.000 0.882 0.000
v 0.99000 0.03366 3.66408 0.000 0.804 0.000
v 1.02042 0.00000 3.66426 0.000 0.843 0.000
v 0.99000 -0.03366 3.66408 0.000 0.804 0.000
v 1.07910 0.00000 3.28950 0.000 0.882 0.000
v 1.10502 0.07992 3.24000 0.000 0.725 0.000
v 1.07910 0.05238 3.24000 0.000 0.804 0.000
v 1.10502 0.00000 3.31200 0.000 0.765 0.000
v 1.14732 0.03816 3.27438 0.000 0.922 0.000
v 1.17288 0.10026 3.24000 0.000 0.725 0.000
v 1.17288 0.00000 3.32946 0.000 0.765 0.000
v 1.07910 0.00000 3.19050 0.000 0.882 0.000
v 1.10502 0.00000 3.16800 0.000 0.765 0.000
v 1.14732 0.03816 3.20562 0.000 0.922 0.000
v 1.17288 0.00000 3.15054 0.000 0.765 0.000
v 1.10502 -0.07992 3.24000 0.000 0.725 0.000
v 1.07910 -0.05238 3.24000 0.000 0.804 0.000
v 1.14732 -0.03816 3.27438 0.000 0.922 0.000
v 1.17288 -0.10026 3.24000 0.000 0.725 0.000
v 1.14732 -0.03816 3.20562 0.000 0.922 0.000
v 0.60642 0.00000 3.31956 0.000 0.922 0.000
v 0.52200 0.01836 3.27654 0.000 0.843 0.000
v 0.52200 0.00000 3.29922 0.000 0.941 0.000
v 0.72000 0.03492 3.32712 0.000 0.804 0.000
v 0.72000 0.00000 3.38112 0.000 0.843 0.000
v 0.72000 -0.03492 3.32712 0.000 0.804 0.000
v 0.52200 -0.01836 3.27654 0.000 0.843 0.000
v 0.77058 0.00000 3.35628 0.000 0.843 0.000
v 0.81108 0.02754 3.29526 0.000 0.941 0.000
v 0.81108 0.00000 3.31362 0.000 1.000 0.000
v 0.81108 -0.02754 3.29526 0.000 0.941 0.000
v 0.77058 -0.11628 3.24000 0.000 0.765 0.000
v 0.81108 -0.07362 3.24000 0.000 0.843 0.000
v 0.81108 -0.05526 3.26754 0.000 0.922 0.000
v 0.81108 -0.05526 3.21246 0.000 0.922 0.000
v 0.72000 -0.08730 3.27492 0.000 0.882 0.000
v 0.72000 -0.14112 3.24000 0.000 0.686 0.000
v 0.72000 -0.08730 3.20508 0.000 0.882 0.000
v 0.60642 -0.07956 3.24000 0.000 0.843 0.000
v 0.52200 -0.03654 3.25836 0.000 0.922 0.000
v 0.52200 -0.05922 3.24000 0.000 0.843 0.000
v 0.52200 -0.03654 3.22164 0.000 0.922 0.000
v 0.81108 0.05526 3.26754 0.000 0.922 0.000
v 0.81108 0.07362 3.24000 0.000 0.843 0.000
v 0.77058 0.11628 3.24000 0.000 0.765 0.000
v 0.81108 0.05526 3.21246 0.000 0.922 0.000
v 0.72000 0.08730 3.27492 0.000 0.882 0.000
v 0.72000 0.14112 3.24000 0.000 0.686 0.000
v 0.72000 0.08730 3.20508 0.000 0.882 0.000
v 0.60642 0.07956 3.24000 0.000 0.804 0.000
v 0.52200 0.03654 3.25836 0.000 0.922 0.000
v 0.52200 0.05922 3.24000 0.000 0.843 0.000
v 0.52200 0.03654 3.22164 0.000 0.922 0.000
v 0.99000 0.04500 2.77560 0.000 0.000 0.000
v 0.99000 0.00000 2.64780 0.000 0.000 0.000
v 0.94860 0.00000 2.77560 0.000 0.000 0.000
v 0.99000 -0.04500 2.77560 0.000 0.000 0.000
v 1.03140 0.00000 2.77560 0.000 0.000 0.000
v 0.99000 -0.04500 2.77560 0.000 0.000 0.000
v 0.99000 0.00000 3.83220 0.000 0.000 0.000
v 0.99000 0.04500 3.70440 0.000 0.000 0.000
v 0.94860 0.00000 3.70440 0.000 0.000 0.000
v 0.99000 -0.04500 3.70440 0.000 0.000 0.000
v 1.03140 0.00000 3.70440 0.000 0.000 0.000
v 0.99000 -0.04500 3.70440 0.000 0.000 0.000
v 1.05840 0.00000 3.50280 0.000 0.000 0.000
v 1.17900 -0.05760 3.45780 0.000 0.000 0.000
v 1.06020 -0.03600 3.54816 0.000 0.000 0.000
v 1.17720 0.00000 3.39660 0.000 0.000 0.000
v 1.27800 0.00000 3.45600 0.000 0.000 0.000
v 1.18080 0.00000 3.47400 0.000 0.000 0.000
v 1.17900 0.05760 3.45780 0.000 0.000 0.000
v 1.06020 0.03600 3.54816 0.000 0.000 0.000
v 1.01700 -0.02520 3.50100 0.000 0.000 0.000
v 1.01880 0.00000 3.47400 0.000 0.000 0.000
v 1.01700 0.02700 3.50100 0.000 0.000 0.000
v 0.79920 0.00000 3.47400 0.000 0.000 0.000
v 0.70200 0.00000 3.45600 0.000 0.000 0.000
v 0.80100 -0.05760 3.45780 0.000 0.000 0.000
v 0.80100 0.05760 3.45780 0.000 0.000 0.000
v 0.80280 0.00000 3.39660 0.000 0.000 0.000
v 0.92160 0.00000 3.50280 0.000 0.000 0.000
v 0.91980 -0.03600 3.54816 0.000 0.000 0.000
v 0.91980 0.03600 3.54816 0.000 0.000 0.000
v 0.96300 -0.02520 3.50100 0.000 0.000 0.000
v 0.96120 0.00000 3.47400 0.000 0.000 0.000
v 0.96300 0.02700 3.50100 0.000 0.000 0.000
v 0.80100 -0.05760 3.02220 0.000 0.000 0.000
v 0.91980 -0.03600 2.93184 0.000 0.000 0.000
v 0.92160 0.00000 2.97720 0.000 0.000 0.000
v 0.80280 0.00000 3.08340 0.000 0.000 0.000
v 0.70200 0.00000 3.02400 0.000 0.000 0.000
v 0.79920 0.00000 3.00600 0.000 0.000 0.000
v 0.80100 0.05760 3.02220 0.000 0.000 0.000
v 0.91980 0.03600 2.93184 0.000 0.000 0.000
v 0.96300 -0.02520 2.97900 0.000 0.000 0.000
v 0.96120 0.00000 3.00600 0.000 0.000 0.000
v 0.96300 0.02700 2.97900 0.000 0.000 0.000
v 1.17900 -0.05760 3.02220 0.000 0.000 0.000
v 1.18080 0.00000 3.00600 0.000 0.000 0.000
v 1.27800 0.00000 3.02400 0.000 0.000 0.000
v 1.17900 0.05760 3.02220 0.000 0.000 0.000
v 1.17720 0.00000 3.08340 0.000 0.000 0.000
v 1.05840 0.00000 2.97720 0.000 0.000 0.000
v 1.06020 -0.03600 2.93184 0.000 0.000 0.000
v 1.06020 0.03600 2.93184 0.000 0.000 0.000
v 1.01700 -0.02520 2.97900 0.000 0.000 0.000
v 1.01880 0.00000 3.00600 0.000 0.000 0.000
v 1.01700 0.02700 2.97900 0.000 0.000 0.000
v -1.01700 0.00000 3.29940 0.000 0.000 0.000
v -1.01700 0.05940 3.24000 0.000 0.000 0.000
v -1.10700 0.00000 3.24000 0.000 0.000 0.000
v -1.01700 0.00000 3.29940 0.000 0.000 0.000
v -0.93600 0.08280 3.24000 0.000 0.000 0.000
v -1.01700 0.05940 3.24000 0.000 0.000 0.000
v -0.93600 0.00000 3.32280 0.000 0.000 0.000
v -1.01700 0.00000 3.18060 0.000 0.000 0.000
v -1.10700 0.00000 3.24000 0.000 0.000 0.000
v -1.01700 -0.05940 3.24000 0.000 0.000 0.000
v -0.93600 -0.08280 3.24000 0.000 0.000 0.000
v -0.93600 0.00000 3.15720 0.000 0.000 0.000
v -0.93600 -0.08280 3.24000 0.000 0.000 0.000
v 0.81180 0.00000 3.30840 0.000 0.000 0.000
v 0.72000 0.10620 3.24000 0.000 0.000 0.000
v 0.72000 0.00000 3.34620 0.000 0.000 0.000
v 0.81180 0.06840 3.24000 0.000 0.000 0.000
v 0.81180 0.00000 3.17160 0.000 0.000 0.000
v 0.72000 0.00000 3.13380 0.000 0.000 0.000
v 0.72000 -0.10620 3.24000 0.000 0.000 0.000
v 0.81180 -0.06840 3.24000 0.000 0.000 0.000
v 0.52200 0.00000 3.27960 0.000 0.000 0.000
v 0.52200 0.04680 3.24000 0.000 0.000 0.000
v 0.52200 0.00000 3.20040 0.000 0.000 0.000
v 0.52200 -0.04680 3.24000 0.000 0.000 0.000
v 0.65484 0.00000 3.01788 0.000 0.867 0.000
v 0.79686 -0.03474 3.00888 0.000 0.867 0.000
v 0.79686 0.03474 3.00888 0.000 0.867 0.000
v 0.92124 0.04770 2.93436 0.000 0.918 0.000
v 0.92124 -0.04770 2.93436 0.000 0.918 0.000
v 1.18314 -0.03474 3.00888 0.000 0.867 0.000
v 1.05876 0.04770 2.93436 0.000 0.918 0.000
v 1.05876 -0.04770 2.93436 0.000 0.918 0.000
v 1.18314 0.03474 3.00888 0.000 0.867 0.000
v 1.32516 0.00000 3.01788 0.000 0.867 0.000
v 1.18314 0.03474 3.47112 0.000 0.867 0.000
v 1.32516 0.00000 3.46212 0.000 0.867 0.000
v 1.18314 -0.03474 3.47112 0.000 0.867 0.000
v 1.05876 0.04770 3.54564 0.000 0.918 0.000
v 1.05876 -0.04770 3.54564 0.000 0.918 0.000
v 0.79686 -0.03474 3.47112 0.000 0.867 0.000
v 0.65484 0.00000 3.46212 0.000 0.867 0.000
v 0.79686 0.03474 3.47112 0.000 0.867 0.000
v 0.92124 0.04770 3.54564 0.000 0.918 0.000
v 0.92124 -0.04770 3.54564 0.000 0.918 0.000
v 1.07910 0.00000 3.19050 0.000 0.882 0.000
v 1.02960 0.00000 3.15108 0.000 0.843 0.000
v 0.99018 0.06948 3.17754 0.000 0.765 0.000
v 1.07910 0.05238 3.24000 0.000 0.804 0.000
v 0.99018 -0.06948 3.17754 0.000 0.765 0.000
v 1.07910 -0.05238 3.24000 0.000 0.804 0.000
v 0.98910 0.10548 3.24000 0.000 0.647 0.000
v 0.99018 0.06948 3.30246 0.000 0.765 0.000
v 1.07910 0.00000 3.28950 0.000 0.882 0.000
v 1.02960 0.00000 3.32892 0.000 0.843 0.000
v 0.98910 -0.10548 3.24000 0.000 0.647 0.000
v 0.99018 -0.06948 3.30246 0.000 0.765 0.000
v 0.89928 -0.05706 3.24000 0.000 0.804 0.000
v 0.89928 0.00000 3.18870 0.000 0.882 0.000
v 0.89928 0.05706 3.24000 0.000 0.804 0.000
v 0.89928 0.00000 3.29130 0.000 0.882 0.000
v 0.95076 0.00000 3.32892 0.000 0.882 0.000
v 0.95076 0.00000 3.15108 0.000 0.882 0.000
v 0.99018 0.03744 3.39552 0.000 0.725 0.000
v 0.95796 0.00000 3.39552 0.000 0.882 0.000
v 0.99018 -0.03744 3.39552 0.000 0.725 0.000
v 1.02240 0.00000 3.39552 0.000 0.804 0.000
v 0.99018 0.03744 3.08448 0.000 0.725 0.000
v 0.95796 0.00000 3.08448 0.000 0.882 0.000
v 0.99018 -0.03744 3.08448 0.000 0.725 0.000
v 1.02240 0.00000 3.08448 0.000 0.804 0.000
v 0.78120 0.00000 3.49560 0.000 0.843 0.000
v 0.65484 0.00000 3.46212 0.000 0.765 0.000
v 0.79686 -0.03474 3.47112 0.000 0.765 0.000
v 0.92124 -0.04770 3.54564 0.000 0.882 0.000
v 0.91440 0.00000 3.58200 0.000 0.843 0.000
v 0.79686 0.03474 3.47112 0.000 0.765 0.000
v 0.92124 0.04770 3.54564 0.000 0.882 0.000
v 0.99000 0.00000 3.65760 0.000 0.765 0.000
v 0.99000 -0.08820 3.59820 0.000 0.804 0.000
v 0.99000 0.08820 3.59820 0.000 0.804 0.000
v 0.99000 0.04860 3.50100 0.000 0.765 0.000
v 0.92124 0.04770 3.54564 0.000 0.882 0.000
v 0.95940 0.03420 3.50100 0.000 0.882 0.000
v 0.99018 0.03744 3.39552 0.000 0.725 0.000
v 0.95796 0.00000 3.39552 0.000 0.882 0.000
v 1.02060 0.03420 3.50100 0.000 0.804 0.000
v 1.05876 0.04770 3.54564 0.000 0.824 0.000
v 0.99000 0.08820 3.59820 0.000 0.725 0.000
v 1.02240 0.00000 3.39552 0.000 0.804 0.000
v 0.99000 0.00000 3.65760 0.000 0.725 0.000
v 1.05876 0.04770 3.54564 0.000 0.824 0.000
v 1.06560 0.00000 3.58200 0.000 0.765 0.000
v 1.19880 0.00000 3.49560 0.000 0.725 0.000
v 1.05876 -0.04770 3.54564 0.000 0.824 0.000
v 1.18314 -0.03474 3.47112 0.000 0.765 0.000
v 1.32516 0.00000 3.46212 0.000 0.686 0.000
v 1.18314 0.03474 3.47112 0.000 0.765 0.000
v 0.99000 -0.08820 3.59820 0.000 0.725 0.000
v 0.95940 -0.03420 3.50100 0.000 0.882 0.000
v 0.99018 -0.03744 3.39552 0.000 0.725 0.000
v 0.99000 -0.04860 3.50100 0.000 0.765 0.000
v 0.92124 -0.04770 3.54564 0.000 0.882 0.000
v 1.05876 -0.04770 3.54564 0.000 0.824 0.000
v 1.02060 -0.03420 3.50100 0.000 0.804 0.000
v 1.05876 0.04770 3.54564 0.000 0.918 0.000
v 1.02060 0.03420 3.50100 0.000 0.804 0.000
v 1.05876 -0.04770 3.54564 0.000 0.918 0.000
v 1.02240 0.00000 3.39552 0.000 0.804 0.000
v 0.95940 -0.03420 3.50100 0.000 0.882 0.000
v 0.95940 0.03420 3.50100 0.000 0.882 0.000
v 0.95796 0.00000 3.39552 0.000 0.882 0.000
v 0.65484 0.00000 3.01788 0.000 0.765 0.000
v 0.78120 0.00000 2.98440 0.000 0.843 0.000
v 0.79686 -0.03474 3.00888 0.000 0.765 0.000
v 0.92124 -0.04770 2.93436 0.000 0.882 0.000
v 0.91440 0.00000 2.89800 0.000 0.843 0.000
v 0.79686 0.03474 3.00888 0.000 0.765 0.000
v 0.92124 0.04770 2.93436 0.000 0.882 0.000
v 0.99000 0.00000 2.82240 0.000 0.765 0.000
v 0.99000 0.08820 2.88180 0.000 0.804 0.000
v 0.99000 -0.08820 2.88180 0.000 0.804 0.000
v 0.99000 0.04860 2.97900 0.000 0.765 0.000
v 0.92124 0.04770 2.93436 0.000 0.882 0.000
v 0.95940 0.03420 2.97900 0.000 0.882 0.000
v 0.99018 0.03744 3.08448 0.000 0.725 0.000
v 0.95796 0.00000 3.08448 0.000 0.882 0.000
v 1.02060 0.03420 2.97900 0.000 0.804 0.000
v 1.05876 0.04770 2.93436 0.000 0.824 0.000
v 0.99000 0.08820 2.88180 0.000 0.725 0.000
v 1.02240 0.00000 3.08448 0.000 0.804 0.000
v 1.05876 0.04770 2.93436 0.000 0.824 0.000
v 0.99000 0.00000 2.82240 0.000 0.725 0.000
v 1.06560 0.00000 2.89800 0.000 0.765 0.000
v 1.19880 0.00000 2.98440 0.000 0.725 0.000
v 1.05876 -0.04770 2.93436 0.000 0.824 0.000
v 1.18314 -0.03474 3.00888 0.000 0.765 0.000
v 1.32516 0.00000 3.01788 0.000 0.686 0.000
v 1.18314 0.03474 3.00888 0.000 0.765 0.000
v 0.99000 -0.08820 2.88180 0.000 0.725 0.000
v 0.95940 -0.03420 2.97900 0.000 0.882 0.000
v 0.99018 -0.03744 3.08448 0.000 0.725 0.000
v 0.99000 -0.04860 2.97900 0.000 0.765 0.000
v 0.92124 -0.04770 2.93436 0.000 0.882 0.000
v 1.05876 -0.04770 2.93436 0.000 0.824 0.000
v 1.02060 -0.03420 2.97900 0.000 0.804 0.000
v 1.05876 0.04770 2.93436 0.000 0.918 0.000
v 1.02060 0.03420 2.97900 0.000 0.804 0.000
v 1.05876 -0.04770 2.93436 0.000 0.918 0.000
v 1.02240 0.00000 3.08448 0.000 0.804 0.000
v 0.95940 -0.03420 2.97900 0.000 0.882 0.000
v 0.95940 0.03420 2.97900 0.000 0.882 0.000
v 0.95796 0.00000 3.08448 0.000 0.882 0.000
v 1.27260 0.12780 3.24000 0.000 0.000 0.000
v 1.27260 0.08460 3.15540 0.000 0.000 0.000
v 1.14480 0.06300 3.24000 0.000 0.000 0.000
v 1.16280 0.04140 3.19860 0.000 0.000 0.000
v 1.08900 0.00000 3.24000 0.000 0.000 0.000
v 1.14480 0.00000 3.17700 0.000 0.000 0.000
v 1.27260 0.00000 3.11220 0.000 0.000 0.000
v 1.27260 0.08460 3.32460 0.000 0.000 0.000
v 1.16280 0.04140 3.28140 0.000 0.000 0.000
v 1.14480 0.00000 3.30300 0.000 0.000 0.000
v 1.27260 0.00000 3.36780 0.000 0.000 0.000
v 1.40040 0.00000 3.17700 0.000 0.000 0.000
v 1.38240 0.04140 3.19860 0.000 0.000 0.000
v 1.45620 0.00000 3.24000 0.000 0.000 0.000
v 1.40040 0.06300 3.24000 0.000 0.000 0.000
v 1.38240 0.04140 3.28140 0.000 0.000 0.000
v 1.40040 0.00000 3.30300 0.000 0.000 0.000
v 1.27260 -0.08460 3.15540 0.000 0.000 0.000
v 1.16280 -0.04140 3.19860 0.000 0.000 0.000
v 1.14480 -0.06300 3.24000 0.000 0.000 0.000
v 1.27260 -0.12780 3.24000 0.000 0.000 0.000
v 1.27260 -0.08460 3.32460 0.000 0.000 0.000
v 1.16280 -0.04140 3.28140 0.000 0.000 0.000
v 1.38240 -0.04140 3.19860 0.000 0.000 0.000
v 1.40040 -0.06300 3.24000 0.000 0.000 0.000
v 1.38240 -0.04140 3.28140 0.000 0.000 0.000
v -0.93600 0.10386 3.24000 0.000 0.686 0.000
v -0.93600 0.00000 3.13614 0.000 0.882 0.000
v -0.93600 0.00000 3.34386 0.000 0.882 0.000
v -0.93600 -0.10386 3.24000 0.000 0.686 0.000
v -0.84600 0.00000 3.29130 0.000 0.922 0.000
v -0.93600 0.10386 3.24000 0.000 0.686 0.000
v -0.84600 0.05130 3.24000 0.000 0.882 0.000
v -0.84600 0.00000 3.18870 0.000 0.922 0.000
v -0.93600 -0.10386 3.24000 0.000 0.686 0.000
v -0.84600 -0.05130 3.24000 0.000 0.882 0.000
v -0.82440 0.00000 3.31956 0.000 0.882 0.000
v -0.82440 0.07956 3.24000 0.000 0.765 0.000
v -0.77400 0.03852 3.27852 0.000 0.949 0.000
v -0.73728 0.03888 3.24000 0.000 0.843 0.000
v -0.73728 0.00000 3.27888 0.000 0.882 0.000
v -0.82440 0.00000 3.16044 0.000 0.882 0.000
v -0.77400 0.03852 3.20148 0.000 0.949 0.000
v -0.73728 0.00000 3.20112 0.000 0.882 0.000
v -0.82440 -0.07956 3.24000 0.000 0.765 0.000
v -0.77400 -0.03852 3.27852 0.000 0.949 0.000
v -0.73728 -0.03888 3.24000 0.000 0.843 0.000
v -0.77400 -0.03852 3.20148 0.000 0.949 0.000
v -0.77400 0.03852 3.27852 0.000 0.949 0.000
v -0.77400 0.00000 3.24000 0.000 0.992 0.000
v -0.73728 0.03888 3.24000 0.000 0.843 0.000
v -0.73728 0.00000 3.27888 0.000 0.882 0.000
v -0.77400 0.03852 3.20148 0.000 0.949 0.000
v -0.73728 0.00000 3.20112 0.000 0.882 0.000
v -0.77400 -0.03852 3.27852 0.000 0.949 0.000
v -0.73728 -0.03888 3.24000 0.000 0.843 0.000
v -0.77400 -0.03852 3.20148 0.000 0.949 0.000
v 0.99000 -0.04878 2.77488 0.843 0.000 0.000
v 0.99000 0.00000 2.63844 0.843 0.000 0.000
v 1.03446 0.00000 2.77488 0.843 0.000 0.000
v 0.99000 0.04878 2.77488 0.843 0.000 0.000
v 0.94554 0.00000 2.77488 0.922 0.000 0.000
v 0.99000 0.00000 2.63844 0.922 0.000 0.000
v 0.99000 -0.04878 2.77488 0.922 0.000 0.000
v 0.99000 0.04878 2.77488 0.922 0.000 0.000
v 0.99000 -0.04878 3.70512 0.843 0.000 0.000
v 1.03446 0.00000 3.70512 0.843 0.000 0.000
v 0.99000 0.00000 3.84156 0.843 0.000 0.000
v 0.99000 0.04878 3.70512 0.843 0.000 0.000
v 0.94554 0.00000 3.70512 0.922 0.000 0.000
v 0.99000 -0.04878 3.70512 0.922 0.000 0.000
v 0.99000 0.00000 3.84156 0.922 0.000 0.000
v 0.99000 0.04878 3.70512 0.922 0.000 0.000
v 0.67590 0.00000 3.45978 0.804 0.000 0.000
v 0.80082 -0.06192 3.45708 0.882 0.000 0.000
v 0.79938 0.00000 3.47742 0.882 0.000 0.000
v 0.80082 0.06192 3.45708 0.882 0.000 0.000
v 0.92052 0.04014 3.54744 0.882 0.000 0.000
v 0.92052 -0.04014 3.54744 0.882 0.000 0.000
v 0.67590 0.00000 3.02022 0.804 0.000 0.000
v 0.79938 0.00000 3.00258 0.882 0.000 0.000
v 0.80082 -0.06192 3.02292 0.882 0.000 0.000
v 0.80082 0.06192 3.02292 0.882 0.000 0.000
v 0.92052 0.04014 2.93256 0.882 0.000 0.000
v 0.92052 -0.04014 2.93256 0.882 0.000 0.000
v 1.17918 -0.06192 3.02292 0.882 0.000 0.000
v 1.18062 0.00000 3.00258 0.882 0.000 0.000
v 1.30410 0.00000 3.02022 0.804 0.000 0.000
v 1.17918 0.06192 3.02292 0.882 0.000 0.000
v 1.05948 0.04014 2.93256 0.882 0.000 0.000
v 1.05948 -0.04014 2.93256 0.882 0.000 0.000
v 1.18062 0.00000 3.47742 0.882 0.000 0.000
v 1.17918 -0.06192 3.45708 0.882 0.000 0.000
v 1.30410 0.00000 3.45978 0.804 0.000 0.000
v 1.17918 0.06192 3.45708 0.882 0.000 0.000
v 1.05948 0.04014 3.54744 0.882 0.000 0.000
v 1.05948 -0.04014 3.54744 0.882 0.000 0.000
v 0.67590 0.00000 3.45978 0.725 0.000 0.000
v 0.80190 0.00000 3.39390 0.804 0.000 0.000
v 0.80082 -0.06192 3.45708 0.843 0.000 0.000
v 0.80082 0.06192 3.45708 0.843 0.000 0.000
v 0.92070 0.00000 3.49974 0.804 0.000 0.000
v 0.92052 -0.04014 3.54744 0.843 0.000 0.000
v 0.92052 0.04014 3.54744 0.843 0.000 0.000
v 0.96300 -0.02898 3.49992 0.882 0.000 0.000
v 0.96120 0.00000 3.47058 0.882 0.000 0.000
v 0.96300 0.02898 3.49992 0.882 0.000 0.000
v 0.80190 0.00000 3.08610 0.804 0.000 0.000
v 0.67590 0.00000 3.02022 0.725 0.000 0.000
v 0.80082 -0.06192 3.02292 0.843 0.000 0.000
v 0.80082 0.06192 3.02292 0.843 0.000 0.000
v 0.92070 0.00000 2.98026 0.804 0.000 0.000
v 0.92052 0.04014 2.93256 0.843 0.000 0.000
v 0.92052 -0.04014 2.93256 0.843 0.000 0.000
v 0.96300 -0.02898 2.98008 0.882 0.000 0.000
v 0.96120 0.00000 3.00942 0.882 0.000 0.000
v 0.96300 0.02898 2.98008 0.882 0.000 0.000
v 1.17918 -0.06192 3.02292 0.843 0.000 0.000
v 1.30410 0.00000 3.02022 0.725 0.000 0.000
v 1.17810 0.00000 3.08610 0.804 0.000 0.000
v 1.17918 0.06192 3.02292 0.843 0.000 0.000
v 1.05930 0.00000 2.98026 0.804 0.000 0.000
v 1.05948 -0.04014 2.93256 0.843 0.000 0.000
v 1.05948 0.04014 2.93256 0.843 0.000 0.000
v 1.01700 0.02898 2.98008 0.882 0.000 0.000
v 1.01700 -0.02898 2.98008 0.882 0.000 0.000
v 1.01880 0.00000 3.00942 0.882 0.000 0.000
v 1.17918 -0.06192 3.45708 0.843 0.000 0.000
v 1.17810 0.00000 3.39390 0.804 0.000 0.000
v 1.30410 0.00000 3.45978 0.725 0.000 0.000
v 1.17918 0.06192 3.45708 0.843 0.000 0.000
v 1.05930 0.00000 3.49974 0.804 0.000 0.000
v 1.05948 0.04014 3.54744 0.843 0.000 0.000
v 1.01700 0.02898 3.49992 0.882 0.000 0.000
v 1.05948 -0.04014 3.54744 0.843 0.000 0.000
v 1.01700 -0.02898 3.49992 0.882 0.000 0.000
v 1.01880 0.00000 3.47058 0.882 0.000 0.000
v 0.81108 0.00000 3.17016 0.000 0.000 0.000
v 0.71982 0.00000 3.13182 0.000 0.000 0.000
v 0.72054 0.10818 3.24000 0.000 0.000 0.000
v 0.81108 0.06984 3.24000 0.000 0.000 0.000
v 0.71982 0.00000 3.34818 0.000 0.000 0.000
v 0.72054 0.10818 3.24000 0.000 0.000 0.000
v 0.52200 0.04986 3.24000 0.000 0.000 0.000
v 0.52200 0.00000 3.28176 0.000 0.000 0.000
v 0.72054 0.10818 3.24000 0.000 0.000 0.000
v 0.71982 0.00000 3.13182 0.000 0.000 0.000
v 0.52200 0.04986 3.24000 0.000 0.000 0.000
v 0.52200 0.00000 3.19824 0.000 0.000 0.000
v 0.81108 0.00000 3.30984 0.000 0.000 0.000
v 0.72054 0.10818 3.24000 0.000 0.000 0.000
v 0.71982 0.00000 3.34818 0.000 0.000 0.000
v 0.81108 0.06984 3.24000 0.000 0.000 0.000
v 0.71982 0.00000 3.34818 0.000 0.000 0.000
v 0.72054 -0.10818 3.24000 0.000 0.000 0.000
v 0.81108 0.00000 3.30984 0.000 0.000 0.000
v 0.81108 -0.06984 3.24000 0.000 0.000 0.000
v 0.52200 -0.04986 3.24000 0.000 0.000 0.000
v 0.71982 0.00000 3.13182 0.000 0.000 0.000
v 0.72054 -0.10818 3.24000 0.000 0.000 0.000
v 0.52200 0.00000 3.19824 0.000 0.000 0.000
v 0.52200 -0.04986 3.24000 0.000 0.000 0.000
v 0.72054 -0.10818 3.24000 0.000 0.000 0.000
v 0.71982 0.00000 3.34818 0.000 0.000 0.000
v 0.52200 0.00000 3.28176 0.000 0.000 0.000
v 0.72054 -0.10818 3.24000 0.000 0.000 0.000
v 0.71982 0.00000 3.13182 0.000 0.000 0.000
v 0.81108 0.00000 3.17016 0.000 0.000 0.000
v 0.81108 -0.06984 3.24000 0.000 0.000 0.000
v 0.94644 0.00000 2.77488 0.000 0.000 0.000
v 0.99000 0.00000 2.64114 0.000 0.000 0.000
v 0.99000 -0.04788 2.77488 0.000 0.000 0.000
v 0.99000 0.04788 2.77488 0.000 0.000 0.000
v 0.99000 0.00000 2.64114 0.000 0.000 0.000
v 0.94644 0.00000 2.77488 0.000 0.000 0.000
v 0.99000 -0.04788 2.77488 0.000 0.000 0.000
v 0.99000 0.00000 2.64114 0.000 0.000 0.000
v 1.03356 0.00000 2.77488 0.000 0.000 0.000
v 1.03356 0.00000 2.77488 0.000 0.000 0.000
v 0.99000 0.00000 2.64114 0.000 0.000 0.000
v 0.99000 0.04788 2.77488 0.000 0.000 0.000
v 0.94644 0.00000 3.70512 0.000 0.000 0.000
v 0.99000 -0.04788 3.70512 0.000 0.000 0.000
v 0.99000 0.00000 3.83886 0.000 0.000 0.000
v 0.99000 0.00000 3.83886 0.000 0.000 0.000
v 0.99000 0.04788 3.70512 0.000 0.000 0.000
v 0.94644 0.00000 3.70512 0.000 0.000 0.000
v 0.99000 -0.04788 3.70512 0.000 0.000 0.000
v 1.03356 0.00000 3.70512 0.000 0.000 0.000
v 0.99000 0.00000 3.83886 0.000 0.000 0.000
v 0.99000 0.00000 3.83886 0.000 0.000 0.000
v 1.03356 0.00000 3.70512 0.000 0.000 0.000
v 0.99000 0.04788 3.70512 0.000 0.000 0.000
v -1.10916 0.00000 3.24000 0.000 0.000 0.000
v -1.01772 -0.06156 3.24000 0.000 0.000 0.000
v -1.01754 0.00000 3.30174 0.000 0.000 0.000
v -1.01772 0.06156 3.24000 0.000 0.000 0.000
v -1.01754 0.00000 3.17826 0.000 0.000 0.000
v -1.01772 -0.06156 3.24000 0.000 0.000 0.000
v -1.01754 0.00000 3.17826 0.000 0.000 0.000
v -0.93600 -0.08550 3.24000 0.000 0.000 0.000
v -0.93600 0.00000 3.15450 0.000 0.000 0.000
v -1.01754 0.00000 3.30174 0.000 0.000 0.000
v -0.93600 0.08550 3.24000 0.000 0.000 0.000
v -1.01772 0.06156 3.24000 0.000 0.000 0.000
v -0.93600 0.00000 3.32550 0.000 0.000 0.000
v -1.01772 -0.06156 3.24000 0.000 0.000 0.000
v -0.93600 -0.08550 3.24000 0.000 0.000 0.000
v -1.01754 0.00000 3.30174 0.000 0.000 0.000
v -0.93600 0.00000 3.32550 0.000 0.000 0.000
v -1.10916 0.00000 3.24000 0.000 0.000 0.000
v -1.01754 0.00000 3.17826 0.000 0.000 0.000
v -1.01772 -0.06156 3.24000 0.000 0.000 0.000
v -1.01754 0.00000 3.30174 0.000 0.000 0.000
v -1.01772 0.06156 3.24000 0.000 0.000 0.000
v -0.93600 0.08550 3.24000 0.000 0.000 0.000
v -1.01754 0.00000 3.17826 0.000 0.000 0.000
v -1.01772 0.06156 3.24000 0.000 0.000 0.000
v -0.93600 0.00000 3.15450 0.000 0.000 0.000
v 0.80082 0.06012 3.02292 0.000 0.000 0.000
v 0.79884 0.00000 3.00438 0.000 0.000 0.000
v 0.69156 0.00000 3.02202 0.000 0.000 0.000
v 0.69156 0.00000 3.02202 0.000 0.000 0.000
v 0.79884 0.00000 3.00438 0.000 0.000 0.000
v 0.80082 -0.06012 3.02292 0.000 0.000 0.000
v 0.80244 0.00000 3.08484 0.000 0.000 0.000
v 0.69156 0.00000 3.02202 0.000 0.000 0.000
v 0.80082 -0.06012 3.02292 0.000 0.000 0.000
v 0.80082 0.06012 3.02292 0.000 0.000 0.000
v 0.69156 0.00000 3.02202 0.000 0.000 0.000
v 0.80244 0.00000 3.08484 0.000 0.000 0.000
v 0.79884 0.00000 3.47562 0.000 0.000 0.000
v 0.80082 0.06012 3.45708 0.000 0.000 0.000
v 0.69156 0.00000 3.45798 0.000 0.000 0.000
v 0.69156 0.00000 3.45798 0.000 0.000 0.000
v 0.80082 -0.06012 3.45708 0.000 0.000 0.000
v 0.79884 0.00000 3.47562 0.000 0.000 0.000
v 0.69156 0.00000 3.45798 0.000 0.000 0.000
v 0.80244 0.00000 3.39516 0.000 0.000 0.000
v 0.80082 -0.06012 3.45708 0.000 0.000 0.000
v 0.80082 0.06012 3.45708 0.000 0.000 0.000
v 0.80244 0.00000 3.39516 0.000 0.000 0.000
v 0.69156 0.00000 3.45798 0.000 0.000 0.000
v 1.28844 0.00000 3.02202 0.000 0.000 0.000
v 1.18116 0.00000 3.00438 0.000 0.000 0.000
v 1.17918 0.06012 3.02292 0.000 0.000 0.000
v 1.17918 -0.06012 3.02292 0.000 0.000 0.000
v 1.18116 0.00000 3.00438 0.000 0.000 0.000
v 1.28844 0.00000 3.02202 0.000 0.000 0.000
v 1.28844 0.00000 3.45798 0.000 0.000 0.000
v 1.17918 0.06012 3.45708 0.000 0.000 0.000
v 1.18116 0.00000 3.47562 0.000 0.000 0.000
v 1.18116 0.00000 3.47562 0.000 0.000 0.000
v 1.17918 -0.06012 3.45708 0.000 0.000 0.000
v 1.28844 0.00000 3.45798 0.000 0.000 0.000
v 1.17918 -0.06012 3.02292 0.000 0.000 0.000
v 1.28844 0.00000 3.02202 0.000 0.000 0.000
v 1.17756 0.00000 3.08484 0.000 0.000 0.000
v 1.17756 0.00000 3.08484 0.000 0.000 0.000
v 1.28844 0.00000 3.02202 0.000 0.000 0.000
v 1.17918 0.06012 3.02292 0.000 0.000 0.000
v 1.17918 -0.06012 3.45708 0.000 0.000 0.000
v 1.17756 0.00000 3.39516 0.000 0.000 0.000
v 1.28844 0.00000 3.45798 0.000 0.000 0.000
v 1.28844 0.00000 3.45798 0.000 0.000 0.000
v 1.17756 0.00000 3.39516 0.000 0.000 0.000
v 1.17918 0.06012 3.45708 0.000 0.000 0.000
v 1.18116 0.00000 3.00438 0.000 0.000 0.000
v 1.05948 0.03834 2.93256 0.000 0.000 0.000
v 1.17918 0.06012 3.02292 0.000 0.000 0.000
v 1.17918 -0.06012 3.02292 0.000 0.000 0.000
v 1.05948 -0.03834 2.93256 0.000 0.000 0.000
v 1.18116 0.00000 3.00438 0.000 0.000 0.000
v 1.18116 0.00000 3.47562 0.000 0.000 0.000
v 1.17918 0.06012 3.45708 0.000 0.000 0.000
v 1.05948 0.03834 3.54744 0.000 0.000 0.000
v 1.05948 -0.03834 3.54744 0.000 0.000 0.000
v 1.17918 -0.06012 3.45708 0.000 0.000 0.000
v 1.18116 0.00000 3.47562 0.000 0.000 0.000
v 1.05930 0.00000 3.50100 0.000 0.000 0.000
v 1.17918 -0.06012 3.45708 0.000 0.000 0.000
v 1.05948 -0.03834 3.54744 0.000 0.000 0.000
v 1.17756 0.00000 3.39516 0.000 0.000 0.000
v 1.01700 -0.02718 3.49992 0.000 0.000 0.000
v 1.01880 0.00000 3.47148 0.000 0.000 0.000
v 1.17918 0.06012 3.45708 0.000 0.000 0.000
v 1.17756 0.00000 3.39516 0.000 0.000 0.000
v 1.05930 0.00000 3.50100 0.000 0.000 0.000
v 1.05948 0.03834 3.54744 0.000 0.000 0.000
v 1.01700 0.02718 3.49992 0.000 0.000 0.000
v 1.01880 0.00000 3.47148 0.000 0.000 0.000
v 1.05930 0.00000 2.97900 0.000 0.000 0.000
v 1.05948 0.03834 2.93256 0.000 0.000 0.000
v 1.01700 0.02718 2.98008 0.000 0.000 0.000
v 1.17918 0.06012 3.02292 0.000 0.000 0.000
v 1.17756 0.00000 3.08484 0.000 0.000 0.000
v 1.01880 0.00000 3.00852 0.000 0.000 0.000
v 1.01700 -0.02718 2.98008 0.000 0.000 0.000
v 1.05930 0.00000 2.97900 0.000 0.000 0.000
v 1.01880 0.00000 3.00852 0.000 0.000 0.000
v 1.05948 -0.03834 2.93256 0.000 0.000 0.000
v 1.17918 -0.06012 3.02292 0.000 0.000 0.000
v 1.17756 0.00000 3.08484 0.000 0.000 0.000
v 0.80118 0.06012 3.02292 0.000 0.000 0.000
v 0.92088 0.03834 2.93256 0.000 0.000 0.000
v 0.79920 0.00000 3.00438 0.000 0.000 0.000
v 0.79920 0.00000 3.00438 0.000 0.000 0.000
v 0.92088 -0.03834 2.93256 0.000 0.000 0.000
v 0.80118 -0.06012 3.02292 0.000 0.000 0.000
v 0.92088 0.03834 3.54744 0.000 0.000 0.000
v 0.80118 0.06012 3.45708 0.000 0.000 0.000
v 0.79920 0.00000 3.47562 0.000 0.000 0.000
v 0.79920 0.00000 3.47562 0.000 0.000 0.000
v 0.80118 -0.06012 3.45708 0.000 0.000 0.000
v 0.92088 -0.03834 3.54744 0.000 0.000 0.000
v 0.92088 -0.03834 3.54744 0.000 0.000 0.000
v 0.80118 -0.06012 3.45708 0.000 0.000 0.000
v 0.92106 0.00000 3.50100 0.000 0.000 0.000
v 0.80280 0.00000 3.39516 0.000 0.000 0.000
v 0.96336 -0.02718 3.49992 0.000 0.000 0.000
v 0.96156 0.00000 3.47148 0.000 0.000 0.000
v 0.92106 0.00000 3.50100 0.000 0.000 0.000
v 0.80280 0.00000 3.39516 0.000 0.000 0.000
v 0.80118 0.06012 3.45708 0.000 0.000 0.000
v 0.92088 0.03834 3.54744 0.000 0.000 0.000
v 0.96336 0.02718 3.49992 0.000 0.000 0.000
v 0.96156 0.00000 3.47148 0.000 0.000 0.000
v 0.96336 0.02718 2.98008 0.000 0.000 0.000
v 0.92088 0.03834 2.93256 0.000 0.000 0.000
v 0.92106 0.00000 2.97900 0.000 0.000 0.000
v 0.80118 0.06012 3.02292 0.000 0.000 0.000
v 0.80280 0.00000 3.08484 0.000 0.000 0.000
v 0.96156 0.00000 3.00852 0.000 0.000 0.000
v 0.96156 0.00000 3.00852 0.000 0.000 0.000
v 0.92106 0.00000 2.97900 0.000 0.000 0.000
v 0.96336 -0.02718 2.98008 0.000 0.000 0.000
v 0.92088 -0.03834 2.93256 0.000 0.000 0.000
v 0.80118 -0.06012 3.02292 0.000 0.000 0.000
v 0.80280 0.00000 3.08484 0.000 0.000 0.000
v 1.45674 0.00000 3.24000 0.000 0.000 0.000
v 1.38258 0.04248 3.19752 0.000 0.000 0.000
v 1.40058 0.06444 3.24000 0.000 0.000 0.000
v 1.40058 0.00000 3.17556 0.000 0.000 0.000
v 1.38258 -0.04248 3.19752 0.000 0.000 0.000
v 1.40058 -0.06444 3.24000 0.000 0.000 0.000
v 1.27260 0.08496 3.32496 0.000 0.000 0.000
v 1.27260 0.12870 3.24000 0.000 0.000 0.000
v 1.14444 0.06444 3.24000 0.000 0.000 0.000
v 1.16244 0.04248 3.28248 0.000 0.000 0.000
v 1.14444 0.00000 3.30444 0.000 0.000 0.000
v 1.27260 0.00000 3.36870 0.000 0.000 0.000
v 1.27260 -0.08496 3.32496 0.000 0.000 0.000
v 1.16244 -0.04248 3.28248 0.000 0.000 0.000
v 1.14444 -0.06444 3.24000 0.000 0.000 0.000
v 1.27260 -0.12870 3.24000 0.000 0.000 0.000
v 1.38258 0.04248 3.28248 0.000 0.000 0.000
v 1.45674 0.00000 3.24000 0.000 0.000 0.000
v 1.40058 0.06444 3.24000 0.000 0.000 0.000
v 1.40058 0.00000 3.30444 0.000 0.000 0.000
v 1.38258 -0.04248 3.28248 0.000 0.000 0.000
v 1.40058 -0.06444 3.24000 0.000 0.000 0.000
v 1.16244 0.04248 3.28248 0.000 0.000 0.000
v 1.14444 0.06444 3.24000 0.000 0.000 0.000
v 1.08846 0.00000 3.24000 0.000 0.000 0.000
v 1.14444 0.00000 3.30444 0.000 0.000 0.000
v 1.16244 -0.04248 3.28248 0.000 0.000 0.000
v 1.14444 -0.06444 3.24000 0.000 0.000 0.000
v 1.27260 0.08496 3.32496 0.000 0.000 0.000
v 1.40058 0.06444 3.24000 0.000 0.000 0.000
v 1.27260 0.12870 3.24000 0.000 0.000 0.000
v 1.38258 0.04248 3.28248 0.000 0.000 0.000
v 1.40058 0.00000 3.30444 0.000 0.000 0.000
v 1.27260 0.00000 3.36870 0.000 0.000 0.000
v 1.27260 -0.08496 3.32496 0.000 0.000 0.000
v 1.38258 -0.04248 3.28248 0.000 0.000 0.000
v 1.40058 -0.06444 3.24000 0.000 0.000 0.000
v 1.27260 -0.12870 3.24000 0.000 0.000 0.000
v 1.14444 0.06444 3.24000 0.000 0.000 0.000
v 1.27260 0.08496 3.15504 0.000 0.000 0.000
v 1.16244 0.04248 3.19752 0.000 0.000 0.000
v 1.27260 0.12870 3.24000 0.000 0.000 0.000
v 1.14444 0.00000 3.17556 0.000 0.000 0.000
v 1.27260 0.00000 3.11130 0.000 0.000 0.000
v 1.27260 -0.08496 3.15504 0.000 0.000 0.000
v 1.16244 -0.04248 3.19752 0.000 0.000 0.000
v 1.14444 -0.06444 3.24000 0.000 0.000 0.000
v 1.27260 -0.12870 3.24000 0.000 0.000 0.000
v 1.14444 0.06444 3.24000 0.000 0.000 0.000
v 1.16244 0.04248 3.19752 0.000 0.000 0.000
v 1.08846 0.00000 3.24000 0.000 0.000 0.000
v 1.14444 0.00000 3.17556 0.000 0.000 0.000
v 1.16244 -0.04248 3.19752 0.000 0.000 0.000
v 1.14444 -0.06444 3.24000 0.000 0.000 0.000
v 1.38258 0.04248 3.19752 0.000 0.000 0.000
v 1.27260 0.08496 3.15504 0.000 0.000 0.000
v 1.40058 0.06444 3.24000 0.000 0.000 0.000
v 1.27260 0.12870 3.24000 0.000 0.000 0.000
v 1.40058 0.00000 3.17556 0.000 0.000 0.000
v 1.27260 0.00000 3.11130 0.000 0.000 0.000
v 1.27260 -0.08496 3.15504 0.000 0.000 0.000
v 1.38258 -0.04248 3.19752 0.000 0.000 0.000
v 1.40058 -0.06444 3.24000 0.000 0.000 0.000
v 1.27260 -0.12870 3.24000 0.000 0.000 0.000
v 1.27260 -0.12960 3.24000 0.569 0.000 0.000
v 1.27260 -0.08640 3.15360 0.686 0.000 0.000
v 1.40040 -0.06480 3.24000 0.569 0.000 0.000
v 1.38240 -0.04320 3.19680 0.647 0.000 0.000
v 1.27260 0.00000 3.11040 0.765 0.000 0.000
v 1.40040 0.00000 3.17520 0.725 0.000 0.000
v 1.38240 -0.04320 3.19680 0.725 0.000 0.000
v 1.27260 0.08460 3.15360 0.784 0.000 0.000
v 1.14300 0.00000 3.17520 0.843 0.000 0.000
v 1.16100 0.04320 3.19680 0.843 0.000 0.000
v 1.27260 0.00000 3.11040 0.847 0.000 0.000
v 1.27260 -0.08640 3.15360 0.804 0.000 0.000
v 1.16100 -0.04320 3.19680 0.843 0.000 0.000
v 1.14300 0.06480 3.24000 0.843 0.000 0.000
v 1.08720 0.00000 3.24000 0.824 0.000 0.000
v 1.16100 0.04320 3.19680 0.882 0.000 0.000
v 1.16100 0.04320 3.28320 0.875 0.000 0.000
v 1.14300 0.00000 3.30480 0.843 0.000 0.000
v 1.27260 0.00000 3.36960 0.843 0.000 0.000
v 1.27260 -0.08640 3.32640 0.843 0.000 0.000
v 1.16100 -0.04320 3.28320 0.843 0.000 0.000
v 1.14300 -0.06480 3.24000 0.843 0.000 0.000
v 1.40040 -0.06480 3.24000 0.647 0.000 0.000
v 1.45800 0.00000 3.24000 0.725 0.000 0.000
v 1.27260 -0.12960 3.24000 0.647 0.000 0.000
v 1.27260 -0.08640 3.32640 0.725 0.000 0.000
v 1.38240 -0.04320 3.28320 0.725 0.000 0.000
v 1.40040 -0.06480 3.24000 0.686 0.000 0.000
v 1.38240 -0.04320 3.19680 0.765 0.000 0.000
v 1.40040 0.00000 3.17520 0.765 0.000 0.000
v 1.38240 -0.04320 3.28320 0.765 0.000 0.000
v 1.40040 0.00000 3.30480 0.765 0.000 0.000
v 1.27260 -0.08640 3.32640 0.765 0.000 0.000
v 1.27260 0.00000 3.36960 0.765 0.000 0.000
v 1.27260 0.08460 3.32640 0.784 0.000 0.000
v 1.14300 0.00000 3.30480 0.804 0.000 0.000
v 1.16100 0.04320 3.28320 0.843 0.000 0.000
v 1.38240 0.04320 3.19680 0.686 0.000 0.000
v 1.40040 0.06480 3.24000 0.686 0.000 0.000
v 1.40040 0.00000 3.17520 0.686 0.000 0.000
v 1.27260 0.08460 3.15360 0.725 0.000 0.000
v 1.27260 0.00000 3.11040 0.725 0.000 0.000
v 1.38240 0.04320 3.19680 0.647 0.000 0.000
v 1.27260 0.08460 3.15360 0.647 0.000 0.000
v 1.40040 0.06480 3.24000 0.647 0.000 0.000
v 1.27260 0.12960 3.24000 0.647 0.000 0.000
v 1.27260 0.08460 3.32640 0.647 0.000 0.000
v 1.14300 0.06480 3.24000 0.765 0.000 0.000
v 1.16100 0.04320 3.28320 0.765 0.000 0.000
v 1.40040 0.06480 3.24000 0.569 0.000 0.000
v 1.27260 0.12960 3.24000 0.569 0.000 0.000
v 1.38240 0.04320 3.28320 0.647 0.000 0.000
v 1.14300 -0.06480 3.24000 0.765 0.000 0.000
v 1.27260 -0.08640 3.15360 0.765 0.000 0.000
v 1.27260 -0.12960 3.24000 0.686 0.000 0.000
v 1.16100 -0.04320 3.19680 0.765 0.000 0.000
v 1.14300 0.06480 3.24000 0.804 0.000 0.000
v 1.27260 0.08460 3.15360 0.686 0.000 0.000
v 1.16100 0.04320 3.19680 0.804 0.000 0.000
v 1.27260 0.12960 3.24000 0.686 0.000 0.000
v 1.16100 0.04320 3.28320 0.804 0.000 0.000
v 1.16100 -0.04320 3.19680 0.804 0.000 0.000
v 1.14300 -0.06480 3.24000 0.804 0.000 0.000
v 1.27260 -0.12960 3.24000 0.714 0.000 0.000
v 1.27260 -0.08640 3.32640 0.784 0.000 0.000
v 1.16100 -0.04320 3.28320 0.804 0.000 0.000
v 1.14300 0.00000 3.30480 0.882 0.000 0.000
v 1.16100 -0.04320 3.28320 0.882 0.000 0.000
v 1.27260 0.00000 3.36960 0.725 0.000 0.000
v 1.40040 0.00000 3.30480 0.725 0.000 0.000
v 1.27260 0.08460 3.32640 0.686 0.000 0.000
v 1.38240 0.04320 3.28320 0.686 0.000 0.000
v 1.40040 0.00000 3.30480 0.686 0.000 0.000
v 1.45800 0.00000 3.24000 0.725 0.000 0.000
v 1.08720 0.00000 3.24000 0.843 0.000 0.000
v 1.14300 0.00000 3.17520 0.882 0.000 0.000
v 1.16100 -0.04320 3.19680 0.882 0.000 0.000
v -1.01844 0.00000 3.30246 0.882 0.000 0.000
v -1.01844 0.06210 3.24000 0.882 0.000 0.000
v -1.11096 0.00000 3.24000 0.882 0.000 0.000
v -1.01844 -0.06210 3.24000 0.882 0.000 0.000
v -0.93600 -0.08640 3.24000 0.882 0.000 0.000
v -0.93600 0.00000 3.32640 0.882 0.000 0.000
v -1.11096 0.00000 3.24000 0.843 0.000 0.000
v -1.01844 0.00000 3.17754 0.843 0.000 0.000
v -1.01844 -0.06210 3.24000 0.843 0.000 0.000
v -1.01844 0.00000 3.30246 0.843 0.000 0.000
v -0.93600 0.08640 3.24000 0.843 0.000 0.000
v -1.01844 0.06210 3.24000 0.843 0.000 0.000
v -0.93600 0.00000 3.32640 0.843 0.000 0.000
v -1.01844 -0.06210 3.24000 0.804 0.000 0.000
v -1.01844 0.00000 3.17754 0.804 0.000 0.000
v -0.93600 -0.08640 3.24000 0.804 0.000 0.000
v -0.93600 0.00000 3.15360 0.804 0.000 0.000
v -1.01844 0.06210 3.24000 0.804 0.000 0.000
v -1.11096 0.00000 3.24000 0.804 0.000 0.000
v -0.93600 0.08640 3.24000 0.765 0.000 0.000
v -1.01844 0.00000 3.17754 0.765 0.000 0.000
v -1.01844 0.06210 3.24000 0.765 0.000 0.000
v -0.93600 0.00000 3.15360 0.765 0.000 0.000
v -1.11096 0.00000 3.24000 0.922 0.000 0.000
v -1.01844 -0.06210 3.24000 0.922 0.000 0.000
v -1.01844 0.00000 3.30246 0.922 0.000 0.000
v 0.71982 0.00000 3.35034 0.843 0.000 0.000
v 0.72054 0.11034 3.24000 0.843 0.000 0.000
v 0.52200 0.05094 3.24000 0.843 0.000 0.000
v 0.52200 0.00000 3.28248 0.843 0.000 0.000
v 0.81108 0.00000 3.31128 0.804 0.000 0.000
v 0.72054 0.11034 3.24000 0.804 0.000 0.000
v 0.71982 0.00000 3.35034 0.804 0.000 0.000
v 0.81108 0.07128 3.24000 0.804 0.000 0.000
v 0.72054 0.11034 3.24000 0.765 0.000 0.000
v 0.71982 0.00000 3.12966 0.765 0.000 0.000
v 0.52200 0.05094 3.24000 0.765 0.000 0.000
v 0.52200 0.00000 3.19752 0.765 0.000 0.000
v 0.81108 0.00000 3.16872 0.725 0.000 0.000
v 0.71982 0.00000 3.12966 0.725 0.000 0.000
v 0.72054 0.11034 3.24000 0.725 0.000 0.000
v 0.81108 0.07128 3.24000 0.725 0.000 0.000
v 0.52200 -0.05094 3.24000 0.882 0.000 0.000
v 0.72054 -0.11034 3.24000 0.882 0.000 0.000
v 0.71982 0.00000 3.35034 0.882 0.000 0.000
v 0.52200 0.00000 3.28248 0.882 0.000 0.000
v 0.71982 0.00000 3.35034 0.843 0.000 0.000
v 0.72054 -0.11034 3.24000 0.843 0.000 0.000
v 0.81108 0.00000 3.31128 0.843 0.000 0.000
v 0.81108 -0.07128 3.24000 0.843 0.000 0.000
v 0.52200 -0.05094 3.24000 0.804 0.000 0.000
v 0.71982 0.00000 3.12966 0.804 0.000 0.000
v 0.72054 -0.11034 3.24000 0.804 0.000 0.000
v 0.52200 0.00000 3.19752 0.804 0.000 0.000
v 0.72054 -0.11034 3.24000 0.765 0.000 0.000
v 0.71982 0.00000 3.12966 0.765 0.000 0.000
v 0.81108 0.00000 3.16872 0.765 0.000 0.000
v 0.81108 -0.07128 3.24000 0.765 0.000 0.000
vt 0.99219 0.38281
vt 0.00781 0.42969
vt 0.00781 0.38281
vt 0.99219 0.42969
vt 0.99219 0.38281
vt 0.00781 0.38281
vt 0.00781 0.42969
vt 0.99219 0.42969
vt 0.79249 0.00697
vt 0.78537 0.18747
vt 0.83896 0.10165
vt 0.84213 0.18947
vt 0.83896 0.00659
vt 0.79249 0.00697
vt 0.78537 0.18747
vt 0.83513 0.29535
vt 0.79837 0.37317
vt 0.83113 0.37323
vt 0.79837 0.37317
vt 0.52594 0.14656
vt 0.44781 0.00594
vt 0.44781 0.19844
vt 0.60406 0.19844
vt 0.60406 0.00594
vt 0.52594 0.00781
vt 0.60406 0.27656
vt 0.50281 0.27656
vt 0.60406 0.27656
vt 0.52594 0.14656
vt 0.44781 0.19844
vt 0.44781 0.00594
vt 0.50281 0.27656
vt 0.52594 0.14656
vt 0.60406 0.19844
vt 0.60406 0.00594
vt 0.52594 0.14656
vt 0.94703 0.37109
vt 0.86328 0.37109
vt 0.93359 0.33203
vt 0.86328 0.37109
vt 0.93359 0.33203
vt 0.86328 0.37109
vt 0.93359 0.33203
vt 0.86328 0.37109
vt 0.93359 0.33203
vt 0.84766 0.00391
vt 0.84766 0.00391
vt 0.91609 0.00391
vt 0.91609 0.00391
vt 0.84766 0.00391
vt 0.99609 0.00391
vt 0.88672 0.16016
vt 0.99609 0.16016
vt 0.88672 0.16016
vt 0.99609 0.00391
vt 0.99609 0.16016
vt 0.65494 0.12044
vt 0.61306 0.00506
vt 0.65494 0.00506
vt 0.65494 0.00506
vt 0.71744 0.00506
vt 0.61334 0.20731
vt 0.61334 0.13021
vt 0.71426 0.14700
vt 0.71426 0.20731
vt 0.71426 0.26361
vt 0.61334 0.27840
vt 0.61334 0.20731
vt 0.71426 0.20731
vt 0.71523 0.26718
vt 0.71523 0.15081
vt 0.70031 0.20869
vt 0.70031 0.20869
vt 0.71651 0.28977
vt 0.71651 0.12692
vt 0.70068 0.20662
vt 0.70068 0.20662
vt 0.61306 0.00506
vt 0.65494 0.12044
vt 0.65494 0.00506
vt 0.65494 0.00506
vt 0.71744 0.00506
vt 0.61334 0.20731
vt 0.71426 0.14700
vt 0.61334 0.13021
vt 0.71426 0.20731
vt 0.71426 0.26361
vt 0.61334 0.27840
vt 0.61334 0.20731
vt 0.71426 0.20731
vt 0.70031 0.20869
vt 0.71523 0.15081
vt 0.71523 0.26718
vt 0.70031 0.20869
vt 0.71651 0.28977
vt 0.70068 0.20662
vt 0.71651 0.12692
vt 0.70068 0.20662
vt 0.87672 0.19116
vt 0.99609 0.21484
vt 0.97609 0.19116
vt 0.84766 0.21484
vt 0.92578 0.27734
vt 0.99609 0.37109
vt 0.84766 0.37109
vt 0.87672 0.19116
vt 0.84766 0.21484
vt 0.92578 0.27734
vt 0.84766 0.37109
vt 0.99609 0.21484
vt 0.97609 0.19116
vt 0.92578 0.27734
vt 0.99609 0.37109
vt 0.92578 0.27734
vt 0.83896 0.10165
vt 0.79249 0.00697
vt 0.83896 0.00659
vt 0.78537 0.18747
vt 0.84213 0.18947
vt 0.78537 0.18747
vt 0.79249 0.00697
vt 0.83513 0.29535
vt 0.79837 0.37317
vt 0.83113 0.37323
vt 0.79837 0.37317
vt 0.72897 0.29607
vt 0.73297 0.37357
vt 0.76693 0.37157
vt 0.76693 0.37157
vt 0.78193 0.18857
vt 0.72597 0.18857
vt 0.78193 0.18857
vt 0.72865 0.10058
vt 0.78079 0.00607
vt 0.72577 0.00669
vt 0.78079 0.00607
vt 0.76693 0.37157
vt 0.73297 0.37357
vt 0.72897 0.29607
vt 0.76693 0.37157
vt 0.78193 0.18857
vt 0.72597 0.18857
vt 0.78193 0.18857
vt 0.72865 0.10058
vt 0.78079 0.00607
vt 0.72577 0.00669
vt 0.78079 0.00607
vt 0.34068 0.90505
vt 0.15921 0.90505
vt 0.34068 0.82023
vt 0.34068 0.90505
vt 0.34068 0.98988
vt 0.34068 0.90505
vt 0.15921 0.90505
vt 0.34068 0.90505
vt 0.34068 0.82023
vt 0.34068 0.90505
vt 0.34068 0.98988
vt 0.34068 0.90505
vt 0.43271 0.86121
vt 0.28539 0.96146
vt 0.26228 0.85582
vt 0.37519 0.98614
vt 0.01553 0.99257
vt 0.16442 0.94170
vt 0.28539 0.96146
vt 0.26228 0.85582
vt 0.39448 0.82031
vt 0.48136 0.82344
vt 0.39448 0.82031
vt 0.16442 0.94170
vt 0.01553 0.99257
vt 0.28539 0.96146
vt 0.28539 0.96146
vt 0.37519 0.98614
vt 0.43271 0.86121
vt 0.26228 0.85582
vt 0.26228 0.85582
vt 0.39448 0.82031
vt 0.48136 0.82344
vt 0.39448 0.82031
vt 0.28539 0.96146
vt 0.26228 0.85582
vt 0.43271 0.86121
vt 0.37519 0.98614
vt 0.01553 0.99257
vt 0.16442 0.94170
vt 0.28539 0.96146
vt 0.26228 0.85582
vt 0.39448 0.82031
vt 0.48136 0.82344
vt 0.39448 0.82031
vt 0.28539 0.96146
vt 0.16442 0.94170
vt 0.01553 0.99257
vt 0.28539 0.96146
vt 0.37519 0.98614
vt 0.43271 0.86121
vt 0.26228 0.85582
vt 0.26228 0.85582
vt 0.39448 0.82031
vt 0.48136 0.82344
vt 0.39448 0.82031
vt 0.28384 0.99097
vt 0.25191 0.88622
vt 0.03553 0.98897
vt 0.28384 0.99097
vt 0.33316 0.89122
vt 0.25191 0.88622
vt 0.35591 0.99097
vt 0.28384 0.99097
vt 0.03553 0.98897
vt 0.25191 0.88622
vt 0.33316 0.89122
vt 0.35591 0.99097
vt 0.33316 0.89122
vt 0.45446 0.96739
vt 0.45344 0.87534
vt 0.36603 0.99000
vt 0.52733 0.88485
vt 0.45446 0.96739
vt 0.36603 0.99000
vt 0.45344 0.87534
vt 0.52733 0.88485
vt 0.02047 0.89195
vt 0.04344 0.81933
vt 0.02047 0.89195
vt 0.04344 0.81933
vt 0.70736 0.28734
vt 0.69802 0.28876
vt 0.69802 0.28591
vt 0.43964 0.28288
vt 0.43964 0.28372
vt 0.02891 0.28826
vt 0.26269 0.28391
vt 0.26269 0.28178
vt 0.02891 0.28541
vt 0.01781 0.28784
vt 0.02891 0.28541
vt 0.01781 0.28784
vt 0.02891 0.28826
vt 0.26269 0.28391
vt 0.26269 0.28178
vt 0.69802 0.28876
vt 0.70736 0.28734
vt 0.69802 0.28591
vt 0.43964 0.28288
vt 0.43964 0.28372
vt 0.11328 0.27203
vt 0.16016 0.19797
vt 0.11328 0.12047
vt 0.00391 0.27203
vt 0.11328 0.12047
vt 0.00391 0.27203
vt 0.00391 0.12047
vt 0.11328 0.12047
vt 0.11328 0.27203
vt 0.16016 0.19797
vt 0.00391 0.12047
vt 0.11328 0.12047
vt 0.00391 0.00391
vt 0.11328 0.00391
vt 0.00391 0.00391
vt 0.11328 0.00391
vt 0.16797 0.02578
vt 0.16797 0.02578
vt 0.27422 0.12047
vt 0.27422 0.03359
vt 0.27422 0.12047
vt 0.27422 0.19734
vt 0.27422 0.12047
vt 0.27422 0.03359
vt 0.27422 0.12047
vt 0.27422 0.19734
vt 0.71109 0.36828
vt 0.66922 0.36547
vt 0.71172 0.28516
vt 0.43880 0.28216
vt 0.39078 0.37109
vt 0.71172 0.28516
vt 0.43880 0.28216
vt 0.36066 0.37109
vt 0.36024 0.28121
vt 0.36024 0.28121
vt 0.35616 0.21376
vt 0.49717 0.28075
vt 0.42821 0.21376
vt 0.35453 0.00922
vt 0.42841 0.00922
vt 0.28454 0.21376
vt 0.20803 0.27722
vt 0.36024 0.28121
vt 0.28766 0.00922
vt 0.36066 0.37109
vt 0.26403 0.28122
vt 0.30734 0.37109
vt 0.00828 0.36797
vt 0.26403 0.28122
vt 0.00641 0.28516
vt 0.06391 0.37047
vt 0.00641 0.28516
vt 0.36024 0.28121
vt 0.42821 0.21376
vt 0.35453 0.00922
vt 0.35616 0.21376
vt 0.49731 0.28075
vt 0.20803 0.27722
vt 0.28522 0.21334
vt 0.20794 0.27830
vt 0.28541 0.21134
vt 0.20780 0.27830
vt 0.28541 0.00734
vt 0.42734 0.21234
vt 0.42716 0.21234
vt 0.42734 0.00934
vt 0.66922 0.36547
vt 0.71109 0.36828
vt 0.71172 0.28516
vt 0.43880 0.28216
vt 0.39078 0.37109
vt 0.71172 0.28516
vt 0.43880 0.28216
vt 0.36066 0.37109
vt 0.36024 0.28121
vt 0.36024 0.28121
vt 0.35616 0.21376
vt 0.49717 0.28075
vt 0.42821 0.21376
vt 0.35453 0.00922
vt 0.42841 0.00922
vt 0.28454 0.21376
vt 0.20803 0.27722
vt 0.36024 0.28121
vt 0.28766 0.00922
vt 0.26403 0.28122
vt 0.36066 0.37109
vt 0.30734 0.37109
vt 0.00828 0.36797
vt 0.26403 0.28122
vt 0.00641 0.28516
vt 0.06391 0.37047
vt 0.00641 0.28516
vt 0.36024 0.28121
vt 0.42821 0.21376
vt 0.35453 0.00922
vt 0.35616 0.21376
vt 0.49731 0.28075
vt 0.20803 0.27722
vt 0.28522 0.21334
vt 0.20794 0.27830
vt 0.28541 0.21134
vt 0.20780 0.27830
vt 0.28541 0.00734
vt 0.42734 0.21234
vt 0.42716 0.21234
vt 0.42734 0.00934
vt 0.59389 0.92346
vt 0.55647 0.86878
vt 0.69688 0.91309
vt 0.66767 0.87204
vt 0.72436 0.88087
vt 0.66930 0.83461
vt 0.50773 0.82680
vt 0.55647 0.86878
vt 0.66767 0.87204
vt 0.66930 0.83461
vt 0.50773 0.82680
vt 0.23373 0.82611
vt 0.32507 0.86804
vt 0.04863 0.88607
vt 0.31985 0.91892
vt 0.32507 0.86804
vt 0.23373 0.82611
vt 0.55647 0.86878
vt 0.66767 0.87204
vt 0.69688 0.91309
vt 0.59389 0.92346
vt 0.55647 0.86878
vt 0.66767 0.87204
vt 0.32507 0.86804
vt 0.31985 0.91892
vt 0.32507 0.86804
vt 0.91609 0.00391
vt 0.84766 0.00391
vt 0.84766 0.00391
vt 0.91609 0.00391
vt 0.88672 0.16016
vt 0.99609 0.00391
vt 0.99609 0.16016
vt 0.88672 0.16016
vt 0.99609 0.00391
vt 0.99609 0.16016
vt 0.84766 0.19690
vt 0.99609 0.20090
vt 0.92578 0.26765
vt 0.99609 0.30578
vt 0.84766 0.30578
vt 0.84766 0.19690
vt 0.92578 0.26765
vt 0.84766 0.30578
vt 0.99609 0.20090
vt 0.92578 0.26765
vt 0.99609 0.30578
vt 0.92578 0.26765
vt 0.84703 0.24641
vt 0.88609 0.23297
vt 0.88609 0.31672
vt 0.88609 0.31672
vt 0.84703 0.24641
vt 0.88609 0.31672
vt 0.84703 0.24641
vt 0.88609 0.31672
vt 0.84703 0.24641
vt 0.00781 0.58594
vt 0.16406 0.58594
vt 0.00781 0.63281
vt 0.00781 0.58594
vt 0.00781 0.50781
vt 0.16406 0.58594
vt 0.00781 0.58594
vt 0.00781 0.58594
vt 0.00781 0.58594
vt 0.00781 0.63281
vt 0.16406 0.58594
vt 0.00781 0.58594
vt 0.00781 0.50781
vt 0.00781 0.58594
vt 0.16406 0.58594
vt 0.00781 0.58594
vt 0.48281 0.64844
vt 0.34281 0.64844
vt 0.34281 0.59094
vt 0.34281 0.64844
vt 0.13469 0.64719
vt 0.13469 0.64719
vt 0.48281 0.64844
vt 0.34281 0.59094
vt 0.34281 0.64844
vt 0.34281 0.64844
vt 0.13469 0.64719
vt 0.13469 0.64719
vt 0.34281 0.64844
vt 0.34281 0.59094
vt 0.48281 0.64844
vt 0.34281 0.64844
vt 0.13469 0.64719
vt 0.13469 0.64719
vt 0.34281 0.59094
vt 0.34281 0.64844
vt 0.48281 0.64844
vt 0.34281 0.64844
vt 0.13469 0.64719
vt 0.13469 0.64719
vt 0.47906 0.74219
vt 0.34281 0.74219
vt 0.34281 0.64844
vt 0.34281 0.64844
vt 0.13281 0.74219
vt 0.13469 0.64719
vt 0.13469 0.64719
vt 0.00469 0.64844
vt 0.00281 0.74219
vt 0.00469 0.64844
vt 0.34281 0.74219
vt 0.47906 0.74219
vt 0.34281 0.64844
vt 0.34281 0.64844
vt 0.13281 0.74219
vt 0.13469 0.64719
vt 0.13469 0.64719
vt 0.00469 0.64844
vt 0.00281 0.74219
vt 0.00469 0.64844
vt 0.34281 0.64844
vt 0.47906 0.74219
vt 0.34281 0.74219
vt 0.34281 0.64844
vt 0.13281 0.74219
vt 0.13469 0.64719
vt 0.13469 0.64719
vt 0.00469 0.64844
vt 0.00469 0.64844
vt 0.00281 0.74219
vt 0.34281 0.64844
vt 0.34281 0.74219
vt 0.47906 0.74219
vt 0.34281 0.64844
vt 0.13281 0.74219
vt 0.13469 0.64719
vt 0.00469 0.64844
vt 0.13469 0.64719
vt 0.00469 0.64844
vt 0.00281 0.74219
vt 0.27542 0.78572
vt 0.21041 0.78865
vt 0.21041 0.77178
vt 0.27542 0.77178
vt 0.61720 0.78888
vt 0.61720 0.77201
vt 0.50927 0.77201
vt 0.50927 0.77918
vt 0.15890 0.77354
vt 0.15890 0.79041
vt 0.05098 0.77354
vt 0.05098 0.78070
vt 0.73372 0.78420
vt 0.66870 0.77025
vt 0.66870 0.78712
vt 0.73372 0.77025
vt 0.21041 0.78865
vt 0.21041 0.77178
vt 0.27542 0.78572
vt 0.27542 0.77178
vt 0.50927 0.77201
vt 0.61720 0.78888
vt 0.61720 0.77201
vt 0.50927 0.77918
vt 0.05098 0.77354
vt 0.15890 0.77354
vt 0.15890 0.79041
vt 0.05098 0.78070
vt 0.66870 0.77025
vt 0.66870 0.78712
vt 0.73372 0.78420
vt 0.73372 0.77025
vt 0.57083 0.77749
vt 0.67276 0.78594
vt 0.57083 0.78594
vt 0.45775 0.78594
vt 0.55968 0.78594
vt 0.45775 0.77749
vt 0.14488 0.78594
vt 0.24680 0.78594
vt 0.14488 0.79407
vt 0.03180 0.79407
vt 0.13372 0.78594
vt 0.03180 0.78594
vt 0.57083 0.77749
vt 0.57083 0.78594
vt 0.67276 0.78594
vt 0.55968 0.78594
vt 0.45775 0.78594
vt 0.45775 0.77749
vt 0.14488 0.78594
vt 0.14488 0.79407
vt 0.24680 0.78594
vt 0.13372 0.78594
vt 0.03180 0.79407
vt 0.03180 0.78594
vt 0.54571 0.78142
vt 0.62264 0.77542
vt 0.62354 0.78466
vt 0.62264 0.77542
vt 0.62354 0.78466
vt 0.19650 0.77666
vt 0.19740 0.78591
vt 0.24457 0.77683
vt 0.24419 0.78592
vt 0.19740 0.78591
vt 0.24457 0.77683
vt 0.19650 0.77666
vt 0.24419 0.78592
vt 0.69715 0.77612
vt 0.74521 0.77628
vt 0.69805 0.78536
vt 0.74484 0.78538
vt 0.04506 0.78197
vt 0.12290 0.78520
vt 0.12200 0.77596
vt 0.12290 0.78520
vt 0.12200 0.77596
vt 0.74521 0.77628
vt 0.69805 0.78536
vt 0.69715 0.77612
vt 0.74484 0.78538
vt 0.17660 0.78761
vt 0.17687 0.79451
vt 0.12982 0.78758
vt 0.19879 0.79460
vt 0.24584 0.80154
vt 0.24557 0.79464
vt 0.57496 0.75743
vt 0.43851 0.79104
vt 0.58596 0.78989
vt 0.46953 0.78402
vt 0.32292 0.78471
vt 0.45853 0.75155
vt 0.08187 0.79451
vt 0.08160 0.78761
vt 0.03482 0.78758
vt 0.10379 0.79460
vt 0.15057 0.79464
vt 0.15084 0.80154
vt 0.34351 0.79104
vt 0.47996 0.75743
vt 0.49096 0.78989
vt 0.37453 0.78402
vt 0.36353 0.75155
vt 0.22792 0.78471
vt 0.57318 0.76442
vt 0.52613 0.75749
vt 0.52640 0.76439
vt 0.45743 0.75736
vt 0.45716 0.75046
vt 0.50421 0.75740
vt 0.47818 0.76442
vt 0.43140 0.76439
vt 0.43113 0.75749
vt 0.36216 0.75046
vt 0.36243 0.75736
vt 0.40921 0.75740
vt 0.11704 0.76211
vt 0.26449 0.76096
vt 0.12804 0.79457
vt 0.24447 0.80045
vt 0.38008 0.76729
vt 0.23347 0.76798
vt 0.02204 0.76211
vt 0.03304 0.79457
vt 0.16949 0.76096
vt 0.28508 0.76729
vt 0.14947 0.80045
vt 0.13847 0.76798
vt 0.16698 0.78865
vt 0.01065 0.78400
vt 0.16679 0.78168
vt 0.23576 0.78871
vt 0.07962 0.79103
vt 0.23595 0.79568
vt 0.26198 0.78865
vt 0.26179 0.78168
vt 0.10565 0.78400
vt 0.17462 0.79103
vt 0.33076 0.78871
vt 0.33095 0.79568
vt 0.31709 0.77865
vt 0.55618 0.79395
vt 0.29300 0.79303
vt 0.54540 0.76142
vt 0.23550 0.79216
vt 0.24027 0.77865
vt 0.43953 0.78802
vt 0.42853 0.75555
vt 0.24876 0.77563
vt 0.22200 0.78601
vt 0.16247 0.78514
vt 0.16924 0.77363
vt 0.15243 0.77563
vt 0.13000 0.78601
vt 0.07347 0.78314
vt 0.34453 0.78802
vt 0.33353 0.75555
vt 0.07424 0.77563
vt 0.14250 0.79017
vt 0.22275 0.78265
vt 0.14727 0.78265
vt 0.19900 0.79303
vt 0.46118 0.79395
vt 0.45040 0.76142
vt 0.48821 0.78432
vt 0.64435 0.78199
vt 0.48802 0.77735
vt 0.41905 0.77032
vt 0.57538 0.77497
vt 0.41924 0.77729
vt 0.54935 0.78199
vt 0.39321 0.78432
vt 0.39302 0.77735
vt 0.32405 0.77032
vt 0.32424 0.77729
vt 0.48038 0.77497
vt 0.36200 0.77297
vt 0.09882 0.77205
vt 0.33791 0.78735
vt 0.10960 0.80458
vt 0.41950 0.77384
vt 0.41473 0.78735
vt 0.40624 0.79037
vt 0.22647 0.81045
vt 0.21547 0.77798
vt 0.43300 0.78000
vt 0.49253 0.78086
vt 0.48576 0.79237
vt 0.58153 0.78286
vt 0.52500 0.78000
vt 0.50257 0.79037
vt 0.31047 0.77798
vt 0.32147 0.81045
vt 0.58076 0.79037
vt 0.50773 0.78335
vt 0.43225 0.78335
vt 0.51250 0.77583
vt 0.45600 0.77297
vt 0.19382 0.77205
vt 0.20460 0.80458
vt 0.35366 0.76296
vt 0.28480 0.76165
vt 0.31067 0.76847
vt 0.29238 0.75546
vt 0.28480 0.76165
vt 0.31067 0.76847
vt 0.27161 0.79826
vt 0.24747 0.78107
vt 0.14928 0.79367
vt 0.17515 0.80049
vt 0.16756 0.80669
vt 0.28405 0.80711
vt 0.27161 0.79826
vt 0.17515 0.80049
vt 0.14928 0.79367
vt 0.24748 0.78108
vt 0.39893 0.78384
vt 0.44366 0.76796
vt 0.40067 0.77347
vt 0.41895 0.78649
vt 0.39894 0.78384
vt 0.40067 0.77347
vt 0.13514 0.80049
vt 0.10928 0.79367
vt 0.06628 0.79918
vt 0.12756 0.80669
vt 0.13515 0.80049
vt 0.10928 0.79367
vt 0.30161 0.80326
vt 0.37567 0.77347
vt 0.27747 0.78607
vt 0.37394 0.78384
vt 0.39395 0.78649
vt 0.31405 0.81211
vt 0.30161 0.80326
vt 0.37394 0.78384
vt 0.37567 0.77347
vt 0.27748 0.78608
vt 0.11928 0.79367
vt 0.19334 0.76389
vt 0.12101 0.78331
vt 0.21747 0.78107
vt 0.10099 0.78065
vt 0.18091 0.75504
vt 0.19334 0.76389
vt 0.12101 0.78331
vt 0.11928 0.79367
vt 0.21748 0.78108
vt 0.08928 0.78867
vt 0.09101 0.77831
vt 0.04628 0.79418
vt 0.07099 0.77565
vt 0.09101 0.77831
vt 0.08928 0.78867
vt 0.25480 0.76165
vt 0.15834 0.76389
vt 0.28067 0.76847
vt 0.18248 0.78107
vt 0.26238 0.75546
vt 0.14591 0.75504
vt 0.15834 0.76389
vt 0.25480 0.76165
vt 0.28067 0.76847
vt 0.18248 0.78108
vt 0.76391 0.44141
vt 0.76391 0.59266
vt 0.60984 0.44328
vt 0.60984 0.59266
vt 0.76391 0.74609
vt 0.60984 0.74266
vt 0.60984 0.59266
vt 0.76391 0.59266
vt 0.92234 0.74484
vt 0.92453 0.59266
vt 0.76391 0.74609
vt 0.76391 0.59266
vt 0.92453 0.59266
vt 0.92453 0.44328
vt 0.99828 0.59266
vt 0.92453 0.59266
vt 0.92453 0.59266
vt 0.92234 0.74484
vt 0.76391 0.74609
vt 0.76391 0.59266
vt 0.92453 0.59266
vt 0.92453 0.44328
vt 0.60984 0.44328
vt 0.48547 0.59266
vt 0.76391 0.44141
vt 0.76391 0.59266
vt 0.60984 0.59266
vt 0.60984 0.44328
vt 0.60984 0.59266
vt 0.60984 0.74266
vt 0.60984 0.59266
vt 0.60984 0.74266
vt 0.76391 0.59266
vt 0.76391 0.74609
vt 0.76391 0.59266
vt 0.92234 0.74484
vt 0.92453 0.59266
vt 0.60984 0.59266
vt 0.60984 0.44328
vt 0.60984 0.74266
vt 0.76391 0.59266
vt 0.76391 0.74609
vt 0.60984 0.59266
vt 0.76391 0.59266
vt 0.60984 0.44328
vt 0.76391 0.44141
vt 0.76391 0.59266
vt 0.92453 0.44328
vt 0.92453 0.59266
vt 0.60984 0.44328
vt 0.76391 0.44141
vt 0.60984 0.59266
vt 0.92453 0.44328
vt 0.76391 0.59266
vt 0.76391 0.44141
vt 0.92453 0.59266
vt 0.92453 0.44328
vt 0.76391 0.59266
vt 0.92453 0.59266
vt 0.76391 0.44141
vt 0.92453 0.59266
vt 0.92453 0.59266
vt 0.92453 0.44328
vt 0.76391 0.44141
vt 0.76391 0.59266
vt 0.92453 0.59266
vt 0.92234 0.74484
vt 0.92453 0.59266
vt 0.76391 0.74609
vt 0.60984 0.74266
vt 0.76391 0.59266
vt 0.60984 0.59266
vt 0.60984 0.74266
vt 0.48547 0.59266
vt 0.99828 0.59266
vt 0.92234 0.74484
vt 0.92453 0.59266
vt 0.42969 0.57031
vt 0.42969 0.44531
vt 0.58594 0.44531
vt 0.42969 0.44531
vt 0.32031 0.44531
vt 0.32031 0.57031
vt 0.58594 0.44531
vt 0.42969 0.57031
vt 0.42969 0.44531
vt 0.42969 0.57031
vt 0.32031 0.44531
vt 0.42969 0.44531
vt 0.32031 0.57031
vt 0.42969 0.44531
vt 0.42969 0.57031
vt 0.32031 0.44531
vt 0.32031 0.57031
vt 0.42969 0.44531
vt 0.58594 0.44531
vt 0.32031 0.44531
vt 0.42969 0.57031
vt 0.42969 0.44531
vt 0.32031 0.57031
vt 0.58594 0.44531
vt 0.42969 0.44531
vt 0.42969 0.57031
vt 0.20161 0.55994
vt 0.20161 0.44264
vt 0.01041 0.44264
vt 0.01041 0.49018
vt 0.30890 0.54289
vt 0.20974 0.44264
vt 0.20974 0.55994
vt 0.30890 0.44264
vt 0.20161 0.44264
vt 0.20161 0.55994
vt 0.01041 0.44264
vt 0.01041 0.49018
vt 0.30890 0.54289
vt 0.20974 0.55994
vt 0.20974 0.44264
vt 0.30890 0.44264
vt 0.01041 0.44264
vt 0.20161 0.44264
vt 0.20161 0.55994
vt 0.01041 0.49018
vt 0.20974 0.55994
vt 0.20974 0.44264
vt 0.30890 0.54289
vt 0.30890 0.44264
vt 0.01041 0.44264
vt 0.20161 0.55994
vt 0.20161 0.44264
vt 0.01041 0.49018
vt 0.20974 0.44264
vt 0.20974 0.55994
vt 0.30890 0.54289
vt 0.30890 0.44264
usemtl m0
f 1/1 2/2 3/3
f 1/1 4/4 2/2
f 4/4 5/5 2/2
f 2/2 5/5 6/6
f 3/3 7/7 1/1
f 6/6 5/5 7/7
f 7/7 8/8 1/1
f 7/7 5/5 8/8
f 9/9 10/10 11/11
f 10/10 12/12 11/11
f 9/9 11/11 13/13
f 13/13 11/11 14/14
f 11/11 15/15 14/14
f 11/11 12/12 15/15
f 16/16 12/12 10/10
f 15/15 12/12 16/16
f 17/17 16/16 10/10
f 18/18 16/16 17/17
f 19/19 16/16 18/18
f 15/15 16/16 19/19
f 20/20 21/21 22/22
f 22/22 23/23 20/20
f 20/20 23/23 24/24
f 20/20 25/25 21/21
f 24/24 25/25 20/20
f 22/22 26/26 23/23
f 27/27 26/26 22/22
f 27/27 28/28 26/26
f 22/22 28/28 27/27
f 23/23 29/29 24/24
f 24/24 29/29 25/25
f 23/23 30/30 29/29
f 26/26 30/30 23/23
f 29/29 30/30 31/31
f 25/25 29/29 31/31
f 32/32 30/30 26/26
f 28/28 32/32 26/26
f 28/28 30/30 32/32
f 22/22 21/21 33/33
f 21/21 25/25 33/33
f 33/33 34/34 22/22
f 34/34 28/28 22/22
f 34/34 30/30 28/28
f 35/35 34/34 33/33
f 33/33 25/25 35/35
f 31/31 30/30 36/36
f 35/35 36/36 34/34
f 36/36 30/30 34/34
f 31/31 36/36 25/25
f 25/25 36/36 35/35
f 37/37 38/38 39/39
f 40/40 37/37 39/39
f 37/37 41/41 38/38
f 37/37 42/42 41/41
f 43/43 37/37 40/40
f 43/43 44/44 37/37
f 44/44 45/45 37/37
f 45/45 42/42 37/37
f 46/46 47/47 48/48
f 49/49 50/50 46/46
f 51/51 47/47 52/52
f 51/51 52/52 53/53
f 51/51 53/53 54/54
f 46/46 51/51 54/54
f 52/52 47/47 55/55
f 54/54 55/55 46/46
f 56/56 52/52 55/55
f 54/54 56/56 55/55
f 57/57 58/58 59/59
f 60/60 58/58 57/57
f 59/59 61/61 57/57
f 57/57 61/61 60/60
f 62/62 63/63 64/64
f 65/65 62/62 64/64
f 66/66 62/62 65/65
f 66/66 67/67 62/62
f 64/64 63/63 68/68
f 68/68 67/67 66/66
f 64/64 68/68 69/69
f 69/69 68/68 66/66
f 70/70 71/71 72/72
f 73/73 71/71 70/70
f 74/74 75/75 76/76
f 77/77 75/75 74/74
f 78/78 79/79 80/80
f 81/81 79/79 78/78
f 80/80 79/79 82/82
f 82/82 79/79 81/81
f 83/83 84/84 85/85
f 83/83 86/86 84/84
f 87/87 86/86 83/83
f 88/88 87/87 83/83
f 85/85 84/84 89/89
f 89/89 87/87 88/88
f 84/84 90/90 89/89
f 89/89 90/90 87/87
f 91/91 92/92 93/93
f 93/93 92/92 94/94
f 95/95 96/96 97/97
f 97/97 98/98 95/95
f 99/99 100/100 101/101
f 102/102 100/100 99/99
f 103/103 100/100 102/102
f 103/103 104/104 100/100
f 105/105 103/103 102/102
f 100/100 106/106 101/101
f 100/100 107/107 106/106
f 104/104 108/108 100/100
f 108/108 107/107 100/100
f 108/108 109/109 107/107
f 99/99 110/110 102/102
f 106/106 107/107 110/110
f 111/111 110/110 99/99
f 111/111 106/106 110/110
f 102/102 112/112 105/105
f 102/102 110/110 112/112
f 110/110 113/113 112/112
f 110/110 114/114 113/113
f 107/107 109/109 114/114
f 110/110 107/107 114/114
f 115/115 116/116 117/117
f 118/118 116/116 115/115
f 118/118 115/115 119/119
f 119/119 115/115 120/120
f 115/115 121/121 120/120
f 117/117 121/121 115/115
f 122/122 118/118 119/119
f 119/119 120/120 122/122
f 122/122 123/123 118/118
f 124/124 123/123 122/122
f 122/122 125/125 124/124
f 120/120 125/125 122/122
f 126/126 127/127 128/128
f 126/126 129/129 127/127
f 130/130 126/126 128/128
f 131/131 126/126 130/130
f 131/131 132/132 126/126
f 126/126 132/132 129/129
f 133/133 131/131 130/130
f 133/133 132/132 131/131
f 134/134 133/133 130/130
f 135/135 133/133 134/134
f 136/136 132/132 133/133
f 135/135 136/136 133/133
f 137/137 138/138 139/139
f 138/138 140/140 139/139
f 137/137 139/139 141/141
f 141/141 139/139 142/142
f 139/139 143/143 142/142
f 140/140 143/143 139/139
f 141/141 142/142 144/144
f 142/142 143/143 144/144
f 141/141 144/144 145/145
f 145/145 144/144 146/146
f 144/144 147/147 146/146
f 144/144 143/143 147/147
f 148/148 149/149 150/150
f 150/150 149/149 151/151
f 152/152 149/149 148/148
f 153/153 149/149 152/152
f 154/154 155/155 156/156
f 156/156 157/157 154/154
f 154/154 158/158 155/155
f 159/159 158/158 154/154
f 160/160 161/161 162/162
f 160/160 163/163 161/161
f 161/161 163/163 164/164
f 161/161 164/164 165/165
f 162/162 161/161 165/165
f 166/166 163/163 160/160
f 165/165 164/164 166/166
f 164/164 163/163 166/166
f 167/167 166/166 160/160
f 165/165 166/166 167/167
f 162/162 168/168 160/160
f 168/168 169/169 160/160
f 160/160 169/169 170/170
f 160/160 170/170 167/167
f 171/171 172/172 173/173
f 174/174 172/172 171/171
f 172/172 175/175 173/173
f 174/174 175/175 172/172
f 173/173 175/175 176/176
f 176/176 175/175 174/174
f 177/177 173/173 176/176
f 171/171 173/173 177/177
f 176/176 174/174 178/178
f 178/178 174/174 171/171
f 176/176 179/179 177/177
f 176/176 180/180 179/179
f 181/181 180/180 176/176
f 178/178 181/181 176/176
f 182/182 183/183 184/184
f 182/182 184/184 185/185
f 186/186 182/182 185/185
f 186/186 187/187 182/182
f 187/187 183/183 182/182
f 185/185 184/184 188/188
f 188/188 187/187 186/186
f 185/185 188/188 186/186
f 184/184 189/189 188/188
f 188/188 189/189 187/187
f 184/184 183/183 190/190
f 191/191 184/184 190/190
f 192/192 184/184 191/191
f 192/192 189/189 184/184
f 193/193 194/194 195/195
f 195/195 194/194 196/196
f 197/197 193/193 195/195
f 195/195 196/196 197/197
f 197/197 198/198 193/193
f 196/196 198/198 197/197
f 198/198 199/199 193/193
f 193/193 199/199 194/194
f 196/196 200/200 198/198
f 194/194 200/200 196/196
f 201/201 199/199 198/198
f 201/201 198/198 202/202
f 202/202 198/198 203/203
f 198/198 200/200 203/203
f 204/204 205/205 206/206
f 207/207 208/208 209/209
f 210/210 208/208 207/207
f 208/208 211/211 209/209
f 209/209 211/211 212/212
f 212/212 211/211 213/213
f 212/212 213/213 207/207
f 213/213 211/211 214/214
f 211/211 215/215 214/214
f 208/208 215/215 211/211
f 213/213 216/216 207/207
f 207/207 216/216 210/210
f 217/217 218/218 219/219
f 217/217 220/220 218/218
f 220/220 221/221 218/218
f 221/221 222/222 218/218
f 223/223 222/222 221/221
f 219/219 223/223 217/217
f 223/223 221/221 224/224
f 223/223 224/224 217/217
f 219/219 218/218 225/225
f 225/225 223/223 219/219
f 225/225 218/218 226/226
f 227/227 222/222 223/223
f 218/218 222/222 227/227
f 218/218 227/227 226/226
f 228/228 227/227 223/223
f 228/228 223/223 225/225
f 229/229 230/230 231/231
f 230/230 232/232 231/231
f 233/233 232/232 230/230
f 234/234 235/235 236/236
f 237/237 235/235 234/234
f 237/237 234/234 238/238
f 239/239 240/240 241/241
f 239/239 241/241 242/242
f 242/242 241/241 243/243
f 244/244 245/245 246/246
f 247/247 244/244 246/246
f 248/248 244/244 247/247
f 249/249 250/250 251/251
f 249/249 251/251 252/252
f 253/253 250/250 249/249
f 254/254 253/253 249/249
f 252/252 251/251 255/255
f 252/252 255/255 256/256
f 257/257 252/252 256/256
f 258/258 257/257 256/256
f 259/259 253/253 254/254
f 260/260 259/259 254/254
f 260/260 257/257 258/258
f 260/260 254/254 257/257
f 261/261 259/259 260/260
f 261/261 253/253 259/259
f 262/262 253/253 261/261
f 256/256 255/255 263/263
f 255/255 251/251 263/263
f 263/263 251/251 262/262
f 256/256 263/263 264/264
f 264/264 261/261 260/260
f 265/265 264/264 260/260
f 256/256 264/264 265/265
f 251/251 266/266 262/262
f 262/262 266/266 253/253
f 267/267 256/256 265/265
f 258/258 256/256 267/267
f 267/267 265/265 268/268
f 265/265 260/260 269/269
f 268/268 265/265 269/269
f 269/269 260/260 258/258
f 270/270 258/258 267/267
f 269/269 258/258 270/270
f 251/251 271/271 266/266
f 266/266 271/271 272/272
f 272/272 273/273 266/266
f 266/266 273/273 253/253
f 250/250 271/271 251/251
f 253/253 273/273 250/250
f 274/274 271/271 250/250
f 250/250 273/273 274/274
f 275/275 276/276 277/277
f 275/275 277/277 278/278
f 279/279 275/275 278/278
f 280/280 276/276 275/275
f 281/281 280/280 275/275
f 281/281 275/275 279/279
f 282/282 281/281 279/279
f 279/279 278/278 282/282
f 282/282 278/278 283/283
f 284/284 281/281 282/282
f 284/284 285/285 286/286
f 286/286 285/285 287/287
f 285/285 288/288 287/287
f 288/288 289/289 287/287
f 290/290 288/288 285/285
f 291/291 290/290 285/285
f 291/291 285/285 292/292
f 290/290 293/293 288/288
f 294/294 295/295 292/292
f 296/296 295/295 294/294
f 296/296 297/297 295/295
f 298/298 297/297 296/296
f 294/294 298/298 296/296
f 298/298 299/299 297/297
f 299/299 300/300 297/297
f 297/297 300/300 301/301
f 297/297 301/301 295/295
f 302/302 298/298 294/294
f 303/303 289/289 304/304
f 303/303 304/304 305/305
f 303/303 305/305 306/306
f 306/306 305/305 283/283
f 302/302 305/305 307/307
f 305/305 308/308 307/307
f 305/305 304/304 308/308
f 304/304 293/293 308/308
f 309/309 308/308 310/310
f 311/311 308/308 309/309
f 308/308 312/312 310/310
f 286/286 313/313 306/306
f 314/314 313/313 286/286
f 314/314 315/315 313/313
f 316/316 317/317 318/318
f 317/317 319/319 318/318
f 317/317 320/320 319/319
f 321/321 317/317 316/316
f 322/322 320/320 317/317
f 321/321 322/322 317/317
f 320/320 323/323 319/319
f 322/322 323/323 320/320
f 324/324 323/323 322/322
f 319/319 323/323 325/325
f 326/326 324/324 327/327
f 326/326 327/327 328/328
f 329/329 326/326 328/328
f 329/329 328/328 330/330
f 329/329 331/331 326/326
f 331/331 332/332 326/326
f 332/332 333/333 326/326
f 334/334 331/331 329/329
f 335/335 336/336 333/333
f 337/337 336/336 335/335
f 338/338 337/337 335/335
f 339/339 337/337 338/338
f 339/339 336/336 337/337
f 340/340 339/339 338/338
f 340/340 338/338 341/341
f 341/341 338/338 342/342
f 338/338 335/335 342/342
f 343/343 336/336 339/339
f 330/330 344/344 345/345
f 344/344 346/346 345/345
f 344/344 347/347 346/346
f 347/347 325/325 346/346
f 346/346 343/343 348/348
f 346/346 348/348 349/349
f 346/346 349/349 345/345
f 345/345 349/349 334/334
f 349/349 350/350 351/351
f 352/352 350/350 349/349
f 353/353 349/349 351/351
f 354/354 327/327 347/347
f 355/355 327/327 354/354
f 355/355 354/354 356/356
f 357/357 358/358 359/359
f 359/359 358/358 360/360
f 359/359 360/360 361/361
f 360/360 358/358 362/362
f 360/360 362/362 361/361
f 358/358 363/363 362/362
f 364/364 357/357 359/359
f 364/364 359/359 365/365
f 365/365 359/359 361/361
f 364/364 365/365 366/366
f 365/365 361/361 366/366
f 364/364 366/366 367/367
f 368/368 363/363 358/358
f 368/368 358/358 369/369
f 370/370 368/368 369/369
f 371/371 358/358 357/357
f 369/369 358/358 371/371
f 370/370 369/369 371/371
f 364/364 371/371 357/357
f 372/372 371/371 364/364
f 372/372 370/370 371/371
f 367/367 373/373 364/364
f 373/373 372/372 364/364
f 373/373 370/370 372/372
f 362/362 363/363 374/374
f 374/374 363/363 368/368
f 362/362 374/374 375/375
f 361/361 362/362 375/375
f 375/375 374/374 376/376
f 361/361 375/375 376/376
f 376/376 374/374 377/377
f 376/376 377/377 378/378
f 367/367 366/366 378/378
f 378/378 373/373 367/367
f 379/379 376/376 378/378
f 366/366 379/379 378/378
f 361/361 376/376 379/379
f 366/366 361/361 379/379
f 380/380 374/374 368/368
f 380/380 368/368 370/370
f 377/377 374/374 381/381
f 381/381 374/374 380/380
f 381/381 380/380 370/370
f 377/377 381/381 378/378
f 378/378 381/381 382/382
f 381/381 370/370 382/382
f 378/378 382/382 373/373
f 382/382 370/370 373/373
f 383/383 384/384 385/385
f 385/385 384/384 386/386
f 387/387 388/388 385/385
f 387/387 389/389 388/388
f 389/389 390/390 388/388
f 390/390 384/384 388/388
f 385/385 391/391 387/387
f 391/391 384/384 390/390
f 391/391 392/392 387/387
f 391/391 390/390 392/392
f 387/387 393/393 389/389
f 387/387 392/392 393/393
f 389/389 393/393 394/394
f 394/394 393/393 395/395
f 394/394 395/395 396/396
f 393/393 397/397 395/395
f 394/394 398/398 389/389
f 389/389 398/398 390/390
f 398/398 392/392 390/390
f 396/396 399/399 394/394
f 399/399 398/398 394/394
f 399/399 400/400 398/398
f 392/392 401/401 393/393
f 398/398 401/401 392/392
f 393/393 402/402 397/397
f 393/393 401/401 402/402
f 402/402 401/401 403/403
f 403/403 401/401 404/404
f 400/400 404/404 398/398
f 404/404 401/401 398/398
f 405/405 406/406 407/407
f 405/405 408/408 406/406
f 407/407 406/406 409/409
f 406/406 410/410 409/409
f 408/408 411/411 406/406
f 411/411 412/412 406/406
f 406/406 412/412 413/413
f 406/406 413/413 410/410
usemtl m1
f 414/414 415/415 416/416
f 416/416 415/415 417/417
f 418/418 419/419 420/420
f 421/421 419/419 418/418
f 422/422 423/423 424/424
f 424/424 423/423 425/425
f 426/426 427/427 428/428
f 428/428 429/429 426/426
f 430/430 431/431 432/432
f 432/432 433/433 430/430
f 434/434 433/433 432/432
f 432/432 431/431 435/435
f 436/436 437/437 438/438
f 439/439 437/437 436/436
f 439/439 440/440 437/437
f 437/437 441/441 438/438
f 442/442 443/443 444/444
f 444/444 443/443 445/445
f 443/443 446/446 445/445
f 442/442 447/447 443/443
f 448/448 449/449 450/450
f 450/450 451/451 448/448
f 448/448 451/451 452/452
f 453/453 449/449 448/448
f 454/454 455/455 456/456
f 457/457 455/455 454/454
f 456/456 455/455 458/458
f 458/458 455/455 457/457
f 459/459 456/456 458/458
f 458/458 457/457 460/460
f 459/459 458/458 461/461
f 458/458 462/462 461/461
f 463/463 462/462 458/458
f 463/463 458/458 460/460
f 464/464 465/465 466/466
f 467/467 465/465 464/464
f 464/464 468/468 467/467
f 466/466 468/468 464/464
f 468/468 469/469 467/467
f 466/466 470/470 468/468
f 468/468 470/470 471/471
f 468/468 471/471 472/472
f 472/472 473/473 468/468
f 473/473 469/469 468/468
f 474/474 475/475 476/476
f 476/476 475/475 477/477
f 476/476 478/478 474/474
f 477/477 478/478 476/476
f 478/478 479/479 474/474
f 477/477 480/480 478/478
f 478/478 480/480 481/481
f 482/482 479/479 478/478
f 483/483 482/482 478/478
f 478/478 481/481 483/483
f 484/484 485/485 486/486
f 486/486 485/485 487/487
f 487/487 485/485 488/488
f 488/488 485/485 484/484
f 489/489 487/487 488/488
f 489/489 488/488 490/490
f 488/488 484/484 491/491
f 492/492 488/488 491/491
f 492/492 493/493 488/488
f 488/488 493/493 490/490
f 494/494 495/495 496/496
f 497/497 494/494 496/496
f 498/498 499/499 500/500
f 498/498 500/500 501/501
f 502/502 503/503 504/504
f 504/504 503/503 505/505
f 506/506 507/507 508/508
f 506/506 509/509 507/507
f 510/510 511/511 512/512
f 511/511 513/513 512/512
f 514/514 515/515 516/516
f 517/517 515/515 514/514
f 518/518 519/519 520/520
f 521/521 518/518 520/520
f 522/522 523/523 524/524
f 522/522 524/524 525/525
f 526/526 527/527 528/528
f 529/529 530/530 531/531
f 532/532 533/533 534/534
f 535/535 536/536 537/537
f 538/538 539/539 540/540
f 541/541 542/542 543/543
f 544/544 545/545 546/546
f 547/547 548/548 549/549
f 550/550 551/551 552/552
f 553/553 554/554 550/550
f 555/555 556/556 557/557
f 556/556 558/558 557/557
f 559/559 560/560 561/561
f 562/562 560/560 559/559
f 563/563 564/564 565/565
f 565/565 564/564 566/566
f 567/567 568/568 569/569
f 570/570 571/571 567/567
f 572/572 573/573 574/574
f 572/572 575/575 573/573
f 576/576 577/577 578/578
f 579/579 580/580 581/581
f 582/582 583/583 584/584
f 585/585 586/586 587/587
f 588/588 589/589 590/590
f 591/591 592/592 593/593
f 594/594 595/595 596/596
f 597/597 598/598 599/599
f 600/600 601/601 602/602
f 603/603 604/604 605/605
f 606/606 607/607 608/608
f 609/609 610/610 611/611
f 612/612 613/613 614/614
f 615/615 616/616 617/617
f 618/618 619/619 620/620
f 621/621 622/622 623/623
f 624/624 625/625 626/626
f 627/627 628/628 629/629
f 630/630 631/631 632/632
f 633/633 634/634 635/635
f 636/636 637/637 638/638
f 636/636 639/639 637/637
f 638/638 640/640 636/636
f 640/640 641/641 636/636
f 642/642 643/643 644/644
f 645/645 642/642 644/644
f 644/644 646/646 645/645
f 644/644 647/647 646/646
f 648/648 649/649 650/650
f 651/651 649/649 648/648
f 651/651 648/648 652/652
f 653/653 648/648 650/650
f 654/654 655/655 656/656
f 654/654 657/657 655/655
f 655/655 657/657 658/658
f 659/659 655/655 658/658
f 660/660 661/661 662/662
f 663/663 664/664 665/665
f 666/666 667/667 668/668
f 669/669 670/670 671/671
f 672/672 673/673 674/674
f 673/673 675/675 674/674
f 674/674 676/676 672/672
f 674/674 677/677 676/676
f 678/678 679/679 680/680
f 678/678 680/680 681/681
f 681/681 682/682 678/678
f 682/682 683/683 678/678
f 684/684 685/685 686/686
f 686/686 685/685 687/687
f 688/688 686/686 687/687
f 684/684 686/686 689/689
f 690/690 691/691 692/692
f 691/691 693/693 692/692
f 694/694 693/693 691/691
f 694/694 691/691 695/695
f 696/696 697/697 698/698
f 696/696 699/699 697/697
f 700/700 699/699 696/696
f 701/701 700/700 696/696
f 702/702 703/703 704/704
f 702/702 704/704 705/705
f 702/702 705/705 706/706
f 702/702 706/706 707/707
f 707/707 706/706 708/708
f 706/706 709/709 708/708
f 709/709 710/710 708/708
f 710/710 711/711 708/708
f 712/712 713/713 714/714
f 715/715 713/713 712/712
f 716/716 713/713 715/715
f 717/717 713/713 716/716
f 718/718 719/719 720/720
f 718/718 720/720 721/721
f 721/721 720/720 722/722
f 720/720 723/723 722/722
f 724/724 725/725 726/726
f 727/727 725/725 724/724
f 728/728 727/727 724/724
f 729/729 728/728 724/724
f 730/730 728/728 729/729
f 730/730 731/731 728/728
f 730/730 732/732 731/731
f 733/733 732/732 730/730
f 734/734 735/735 736/736
f 737/737 735/735 734/734
f 736/736 735/735 738/738
f 735/735 739/739 738/738
f 738/738 739/739 740/740
f 738/738 740/740 741/741
f 741/741 740/740 742/742
f 742/742 740/740 743/743
f 744/744 745/745 746/746
f 745/745 747/747 746/746
f 746/746 747/747 748/748
f 746/746 748/748 749/749
f 750/750 751/751 752/752
f 752/752 751/751 753/753
f 754/754 751/751 750/750
f 754/754 755/755 751/751
f 756/756 755/755 754/754
f 757/757 756/756 754/754
f 758/758 756/756 757/757
f 759/759 756/756 758/758
f 760/760 761/761 762/762
f 762/762 761/761 763/763
f 761/761 764/764 765/765
f 766/766 761/761 765/765
f 767/767 764/764 768/768
f 769/769 767/767 768/768
f 768/768 770/770 771/771
f 768/768 771/771 772/772
f 773/773 769/769 774/774
f 775/775 768/768 774/774
f 776/776 774/774 777/777
f 778/778 777/777 779/779
f 777/777 780/780 779/779
f 774/774 781/781 780/780
f 782/782 766/766 783/783
f 784/784 782/782 785/785
f 785/785 782/782 786/786
f 787/787 783/783 786/786
f 788/788 789/789 783/783
f 790/790 783/783 791/791
f 792/792 790/790 791/791
f 792/792 791/791 793/793
f 794/794 795/795 793/793
f 794/794 796/796 795/795
f 783/783 797/797 798/798
f 783/783 765/765 797/797
f 799/799 800/800 797/797
f 799/799 801/801 800/800
f 802/802 803/803 804/804
f 804/804 803/803 805/805
f 806/806 805/805 807/807
f 806/806 807/807 808/808
f 806/806 809/809 810/810
f 811/811 809/809 806/806
f 811/811 783/783 804/804
f 812/812 813/813 814/814
f 815/815 813/813 812/812
f 816/816 817/817 818/818
f 819/819 817/817 816/816
f 820/820 816/816 774/774
f 774/774 821/821 822/822
f 822/822 823/823 824/824
f 825/825 822/822 824/824
f 826/826 774/774 827/827
f 828/828 829/829 830/830
f 829/829 831/831 830/830
f 832/832 833/833 831/831
f 834/834 835/835 836/836
f 837/837 838/838 839/839
f 840/840 841/841 837/837
f 837/837 841/841 842/842
f 843/843 844/844 845/845
f 846/846 847/847 848/848
f 849/849 847/847 846/846
f 850/850 851/851 852/852
f 851/851 853/853 852/852
f 854/854 851/851 855/855
f 856/856 857/857 858/858
f 856/856 859/859 857/857
f 860/860 861/861 862/862
f 863/863 864/864 865/865
f 863/863 865/865 866/866
f 867/867 868/868 869/869
f 867/867 870/870 868/868
f 871/871 872/872 873/873
f 873/873 872/872 874/874
f 875/875 876/876 877/877
f 878/878 875/875 877/877
f 879/879 880/880 881/881
f 882/882 879/879 881/881
f 883/883 884/884 885/885
f 884/884 886/886 885/885
f 887/887 888/888 889/889
f 890/890 888/888 887/887
f 891/891 892/892 893/893
f 891/891 893/893 894/894
