mtllib arms1095.mtl
o arms1095
v 2.78374 0.00000 3.60000 1.000 0.000 0.000
v 2.59766 -0.02198 3.60000 0.875 0.000 0.000
v 2.59766 0.00000 3.57215 1.000 0.000 0.000
v 2.35694 -0.03101 3.60000 0.875 0.000 0.000
v 2.35694 0.00000 3.56130 1.000 0.000 0.000
v 0.31551 -0.03101 3.60000 0.875 0.000 0.000
v 0.31551 0.00000 3.56130 1.000 0.000 0.000
v 2.59766 0.00000 3.62785 1.000 0.000 0.000
v 2.35694 0.00000 3.63870 1.000 0.000 0.000
v 0.31551 0.00000 3.63870 1.000 0.000 0.000
v 2.59766 0.02198 3.60000 0.875 0.000 0.000
v 2.35694 0.03101 3.60000 0.875 0.000 0.000
v 0.31551 0.03101 3.60000 0.875 0.000 0.000
v 0.33217 0.00000 3.69389 1.000 0.000 0.000
v 0.35592 0.00000 3.72172 1.000 0.000 0.000
v 0.32068 0.00000 3.78545 0.875 0.000 0.000
v 0.41770 0.00000 3.74013 1.000 0.000 0.000
v 0.50342 0.00000 3.78545 0.875 0.000 0.000
v 0.50342 0.00000 3.74011 1.000 0.000 0.000
v 0.63811 0.00000 3.70555 1.000 0.000 0.000
v 0.33217 0.00000 3.69389 1.000 0.000 0.000
v 0.32068 0.00000 3.78545 0.875 0.000 0.000
v 0.29036 0.00000 3.70577 1.000 0.000 0.000
v 0.25296 0.00000 3.70577 1.000 0.000 0.000
v 0.27822 -0.04192 3.63443 0.902 0.000 0.000
v 0.37531 -0.04192 3.60000 0.902 0.000 0.000
v 0.27822 -0.04192 3.56557 0.902 0.000 0.000
v 0.27822 -0.04192 3.63443 0.902 0.000 0.000
v 0.27822 -0.07468 3.60000 0.851 0.000 0.000
v 0.37531 -0.04192 3.60000 0.902 0.000 0.000
v 0.18112 -0.04192 3.60000 0.925 0.000 0.000
v 0.27822 -0.07468 3.60000 0.875 0.000 0.000
v 0.27822 -0.04192 3.63443 0.925 0.000 0.000
v 0.37531 -0.04192 3.60000 0.925 0.000 0.000
v 0.27822 -0.04192 3.56557 0.925 0.000 0.000
v 0.27822 -0.04192 3.56557 0.949 0.000 0.000
v 0.27822 -0.07468 3.60000 0.902 0.000 0.000
v 0.18112 -0.04192 3.60000 0.949 0.000 0.000
v 0.27822 0.04192 3.63443 0.925 0.000 0.000
v 0.37531 0.04192 3.60000 0.925 0.000 0.000
v 0.27822 0.04192 3.56557 0.925 0.000 0.000
v 0.27822 0.04192 3.63443 0.925 0.000 0.000
v 0.27822 0.07468 3.60000 0.875 0.000 0.000
v 0.37531 0.04192 3.60000 0.925 0.000 0.000
v 0.27822 0.04192 3.56557 0.925 0.000 0.000
v 0.18112 0.04192 3.60000 0.925 0.000 0.000
v 0.18112 0.04192 3.60000 0.949 0.000 0.000
v 0.27822 0.07468 3.60000 0.902 0.000 0.000
v 0.27822 0.04192 3.63443 0.949 0.000 0.000
v 0.37531 0.04192 3.60000 0.902 0.000 0.000
v 0.27822 0.07468 3.60000 0.851 0.000 0.000
v 0.27822 0.04192 3.56557 0.902 0.000 0.000
v 0.30153 0.00000 3.83368 0.000 0.384 0.000
v 0.31956 -0.01161 3.80279 0.000 0.435 0.000
v 0.36530 0.00000 3.83953 0.000 0.384 0.000
v 0.41810 -0.01161 3.80279 0.000 0.416 0.000
v 0.42907 0.00000 3.83368 0.000 0.345 0.000
v 0.31956 0.01161 3.80279 0.000 0.435 0.000
v 0.41810 0.01161 3.80279 0.000 0.416 0.000
v 0.41810 -0.01161 3.80279 0.000 0.416 0.000
v 0.48692 0.00000 3.81600 0.000 0.345 0.000
v 0.52599 -0.01161 3.77035 0.000 0.404 0.000
v 0.54087 0.00000 3.78920 0.000 0.333 0.000
v 0.52599 0.01161 3.77035 0.000 0.404 0.000
v 0.41810 0.01161 3.80279 0.000 0.416 0.000
v 0.52599 -0.01161 3.77035 0.000 0.404 0.000
v 0.63811 0.00000 3.70555 0.000 0.333 0.000
v 0.52599 0.01161 3.77035 0.000 0.404 0.000
v 0.41810 -0.01161 3.80279 0.000 0.859 0.000
v 0.31956 -0.01161 3.80279 0.000 0.902 0.000
v 0.40583 -0.01161 3.76844 0.000 0.859 0.000
v 0.31962 -0.01161 3.75523 0.000 0.902 0.000
v 0.30509 -0.01161 3.78297 0.000 0.902 0.000
v 0.31962 -0.01161 3.75523 0.000 0.902 0.000
v 0.30509 -0.01161 3.78297 0.000 0.902 0.000
v 0.28398 -0.01161 3.78297 0.000 0.902 0.000
v 0.25423 -0.01161 3.76497 0.000 0.902 0.000
v 0.23472 -0.01161 3.74477 0.000 0.902 0.000
v 0.25296 -0.01161 3.70577 0.000 0.902 0.000
v 0.25145 0.00000 3.80614 0.000 0.800 0.000
v 0.23297 0.00000 3.79264 0.000 0.800 0.000
v 0.27457 0.00000 3.81262 0.000 0.800 0.000
v 0.25423 0.01161 3.76497 0.000 0.902 0.000
v 0.28398 0.01161 3.78297 0.000 0.902 0.000
v 0.31962 0.01161 3.75523 0.000 0.902 0.000
v 0.30509 0.01161 3.78297 0.000 0.902 0.000
v 0.23472 0.01161 3.74477 0.000 0.902 0.000
v 0.25296 0.01161 3.70577 0.000 0.902 0.000
v 0.23472 -0.01161 3.74477 0.000 0.902 0.000
v 0.21558 -0.01161 3.76497 0.000 0.902 0.000
v 0.16993 -0.01161 3.71351 0.000 0.902 0.000
v 0.21061 -0.01161 3.69680 0.000 0.902 0.000
v 0.25296 -0.01161 3.70577 0.000 0.902 0.000
v 0.24063 -0.01161 3.67943 0.000 0.902 0.000
v 0.21558 -0.01161 3.76497 0.000 0.435 0.000
v 0.15547 0.00000 3.74263 0.000 0.369 0.000
v 0.16993 -0.01161 3.71351 0.000 0.435 0.000
v 0.20960 0.00000 3.79841 0.000 0.384 0.000
v 0.13782 0.00000 3.68260 0.000 0.369 0.000
v 0.21558 0.01161 3.76497 0.000 0.435 0.000
v 0.16993 0.01161 3.71351 0.000 0.435 0.000
v 0.52599 -0.01161 3.77035 0.000 0.871 0.000
v 0.41810 -0.01161 3.80279 0.000 0.859 0.000
v 0.51479 -0.01161 3.75523 0.000 0.871 0.000
v 0.40583 -0.01161 3.76844 0.000 0.859 0.000
v 0.51479 -0.01161 3.75523 0.000 0.871 0.000
v 0.63811 0.00000 3.70555 0.000 0.820 0.000
v 0.52599 -0.01161 3.77035 0.000 0.871 0.000
v 0.51479 0.01161 3.75523 0.000 0.871 0.000
v 0.52599 0.01161 3.77035 0.000 0.871 0.000
v 0.18541 0.00000 3.68280 0.000 0.384 0.000
v 0.16993 -0.01161 3.71351 0.000 0.435 0.000
v 0.13782 0.00000 3.68260 0.000 0.369 0.000
v 0.21061 -0.01161 3.69680 0.000 0.435 0.000
v 0.16993 0.01161 3.71351 0.000 0.435 0.000
v 0.21061 0.01161 3.69680 0.000 0.435 0.000
v 0.21061 -0.01161 3.69680 0.000 0.902 0.000
v 0.22099 -0.01161 3.65308 0.000 0.902 0.000
v 0.24063 -0.01161 3.67943 0.000 0.902 0.000
v 0.25319 -0.01161 3.65308 0.000 0.902 0.000
v 0.18555 0.00000 3.62216 0.000 0.384 0.000
v 0.20767 -0.01161 3.62216 0.000 0.435 0.000
v 0.20034 0.00000 3.65308 0.000 0.384 0.000
v 0.22099 -0.01161 3.65308 0.000 0.435 0.000
v 0.20767 0.01161 3.62216 0.000 0.435 0.000
v 0.22099 0.01161 3.65308 0.000 0.435 0.000
v 0.18541 0.00000 3.68280 0.000 0.384 0.000
v 0.20034 0.00000 3.65308 0.000 0.384 0.000
v 0.21061 -0.01161 3.69680 0.000 0.435 0.000
v 0.22099 -0.01161 3.65308 0.000 0.435 0.000
v 0.21061 0.01161 3.69680 0.000 0.435 0.000
v 0.22099 0.01161 3.65308 0.000 0.435 0.000
v 0.25319 -0.01161 3.65308 0.000 0.902 0.000
v 0.22099 -0.01161 3.65308 0.000 0.902 0.000
v 0.23961 -0.01161 3.62216 0.000 0.902 0.000
v 0.20767 -0.01161 3.62216 0.000 0.902 0.000
v 0.70825 0.00000 3.56130 0.000 0.349 0.000
v 0.65695 -0.01161 3.56130 0.000 0.388 0.000
v 0.66827 0.00000 3.53115 0.000 0.349 0.000
v 0.59501 0.00000 3.50170 0.000 0.369 0.000
v 0.57764 -0.01161 3.53192 0.000 0.412 0.000
v 0.48072 0.00000 3.48581 0.000 0.396 0.000
v 0.46741 -0.01161 3.52017 0.000 0.435 0.000
v 0.42036 -0.01161 3.48761 0.000 0.435 0.000
v 0.43260 0.00000 3.45370 0.000 0.396 0.000
v 0.37729 -0.01161 3.47269 0.000 0.435 0.000
v 0.36976 0.00000 3.43613 0.000 0.384 0.000
v 0.30749 0.00000 3.43616 0.000 0.384 0.000
v 0.65695 0.01161 3.56130 0.000 0.388 0.000
v 0.57764 0.01161 3.53192 0.000 0.412 0.000
v 0.46741 0.01161 3.52017 0.000 0.435 0.000
v 0.37729 0.01161 3.47269 0.000 0.435 0.000
v 0.42036 0.01161 3.48761 0.000 0.435 0.000
v 0.24258 0.00000 3.56130 0.000 0.396 0.000
v 0.29140 -0.01161 3.54010 0.000 0.435 0.000
v 0.27165 -0.01161 3.56130 0.000 0.435 0.000
v 0.27783 0.00000 3.52013 0.000 0.396 0.000
v 0.29140 0.01161 3.54010 0.000 0.435 0.000
v 0.27165 0.01161 3.56130 0.000 0.435 0.000
v 0.29140 -0.01161 3.54010 0.000 0.902 0.000
v 0.32806 -0.01161 3.54010 0.000 0.902 0.000
v 0.27165 -0.01161 3.56130 0.000 0.902 0.000
v 0.65695 -0.01161 3.56130 0.000 0.851 0.000
v 0.46741 -0.01161 3.52017 0.000 0.902 0.000
v 0.57764 -0.01161 3.53192 0.000 0.890 0.000
v 0.36121 -0.01161 3.51522 0.000 0.902 0.000
v 0.42036 -0.01161 3.48761 0.000 0.902 0.000
v 0.37729 -0.01161 3.47269 0.000 0.902 0.000
v 0.32806 -0.01161 3.54010 0.000 0.435 0.000
v 0.29140 -0.01161 3.54010 0.000 0.435 0.000
v 0.30749 0.00000 3.52013 0.000 0.396 0.000
v 0.27783 0.00000 3.52013 0.000 0.396 0.000
v 0.33799 0.00000 3.47445 0.000 0.396 0.000
v 0.36121 -0.01161 3.51522 0.000 0.435 0.000
v 0.37729 -0.01161 3.47269 0.000 0.435 0.000
v 0.30749 0.00000 3.43616 0.000 0.384 0.000
v 0.29140 0.01161 3.54010 0.000 0.435 0.000
v 0.32806 0.01161 3.54010 0.000 0.435 0.000
v 0.36121 0.01161 3.51522 0.000 0.435 0.000
v 0.37729 0.01161 3.47269 0.000 0.435 0.000
v 0.24258 0.00000 3.63870 0.000 0.396 0.000
v 0.28345 -0.01161 3.63870 0.000 0.435 0.000
v 0.30947 -0.01161 3.65594 0.000 0.435 0.000
v 0.28556 0.00000 3.66203 0.000 0.396 0.000
v 0.30947 0.00000 3.68791 0.000 0.384 0.000
v 0.30947 0.01161 3.65594 0.000 0.435 0.000
v 0.28345 0.01161 3.63870 0.000 0.435 0.000
v 0.28345 -0.01161 3.63870 0.000 0.902 0.000
v 0.44415 -0.01161 3.63870 0.000 0.902 0.000
v 0.30947 -0.01161 3.65594 0.000 0.902 0.000
v 0.48661 0.00000 3.63870 0.000 0.384 0.000
v 0.44415 0.00000 3.66048 0.000 0.384 0.000
v 0.44415 -0.01161 3.63870 0.000 0.435 0.000
v 0.30947 -0.01161 3.65594 0.000 0.435 0.000
v 0.34647 0.00000 3.67409 0.000 0.396 0.000
v 0.30947 0.00000 3.68791 0.000 0.384 0.000
v 0.44415 0.01161 3.63870 0.000 0.435 0.000
v 0.30947 0.01161 3.65594 0.000 0.435 0.000
v 0.31962 0.01161 3.75523 0.000 0.902 0.000
v 0.31956 0.01161 3.80279 0.000 0.902 0.000
v 0.40583 0.01161 3.76844 0.000 0.859 0.000
v 0.41810 0.01161 3.80279 0.000 0.859 0.000
v 0.30509 0.01161 3.78297 0.000 0.902 0.000
v 0.23472 0.01161 3.74477 0.000 0.902 0.000
v 0.16993 0.01161 3.71351 0.000 0.902 0.000
v 0.21558 0.01161 3.76497 0.000 0.902 0.000
v 0.21061 0.01161 3.69680 0.000 0.902 0.000
v 0.25296 0.01161 3.70577 0.000 0.902 0.000
v 0.24063 0.01161 3.67943 0.000 0.902 0.000
v 0.40583 0.01161 3.76844 0.000 0.859 0.000
v 0.41810 0.01161 3.80279 0.000 0.859 0.000
v 0.51479 0.01161 3.75523 0.000 0.871 0.000
v 0.52599 0.01161 3.77035 0.000 0.871 0.000
v 0.21061 0.01161 3.69680 0.000 0.902 0.000
v 0.24063 0.01161 3.67943 0.000 0.902 0.000
v 0.22099 0.01161 3.65308 0.000 0.902 0.000
v 0.25319 0.01161 3.65308 0.000 0.902 0.000
v 0.25319 0.01161 3.65308 0.000 0.902 0.000
v 0.23961 0.01161 3.62216 0.000 0.902 0.000
v 0.22099 0.01161 3.65308 0.000 0.902 0.000
v 0.20767 0.01161 3.62216 0.000 0.902 0.000
v 0.65695 0.01161 3.56130 0.000 0.851 0.000
v 0.32806 0.01161 3.54010 0.000 0.902 0.000
v 0.27165 0.01161 3.56130 0.000 0.902 0.000
v 0.46741 0.01161 3.52017 0.000 0.902 0.000
v 0.57764 0.01161 3.53192 0.000 0.890 0.000
v 0.29140 0.01161 3.54010 0.000 0.902 0.000
v 0.36121 0.01161 3.51522 0.000 0.902 0.000
v 0.42036 0.01161 3.48761 0.000 0.902 0.000
v 0.37729 0.01161 3.47269 0.000 0.902 0.000
v 0.30947 0.01161 3.65594 0.000 0.902 0.000
v 0.44415 0.01161 3.63870 0.000 0.902 0.000
v 0.28345 0.01161 3.63870 0.000 0.902 0.000
v -0.38988 -0.03681 3.60000 0.000 0.000 0.788
v -0.12066 -0.03019 3.60000 0.000 0.000 0.820
v -0.38988 0.00000 3.56319 0.000 0.000 0.871
v -0.12066 0.00000 3.56981 0.000 0.000 0.902
v 0.14856 0.00000 3.56319 0.000 0.000 0.902
v 0.14856 -0.03681 3.60000 0.000 0.000 0.820
v -0.12066 0.00000 3.63019 0.000 0.000 0.902
v -0.12066 0.03019 3.60000 0.000 0.000 0.820
v 0.14856 0.00000 3.63681 0.000 0.000 0.902
v 0.14856 0.03681 3.60000 0.000 0.000 0.820
v -0.38988 0.00000 3.63681 0.000 0.000 0.871
v -0.38988 0.03681 3.60000 0.000 0.000 0.788
v -0.12066 0.00000 3.56981 0.000 0.000 0.902
v 0.14856 0.00000 3.56319 0.000 0.000 0.902
v -0.12066 0.03019 3.60000 0.000 0.000 0.702
v 0.14856 0.03681 3.60000 0.000 0.000 0.702
v -0.38988 0.00000 3.56319 0.000 0.000 0.871
v -0.38988 0.03681 3.60000 0.000 0.000 0.671
v 0.14856 -0.03681 3.60000 0.000 0.000 0.702
v -0.12066 -0.03019 3.60000 0.000 0.000 0.702
v 0.14856 0.00000 3.63681 0.000 0.000 0.902
v -0.12066 0.00000 3.63019 0.000 0.000 0.902
v -0.38988 0.00000 3.63681 0.000 0.000 0.871
v -0.38988 -0.03681 3.60000 0.000 0.000 0.671
v 0.23597 -0.04192 3.62570 0.000 0.878 0.000
v 0.14013 -0.04192 3.62038 0.000 0.878 0.000
v 0.23597 -0.04192 3.57430 0.000 0.878 0.000
v 0.14013 -0.04192 3.57962 0.000 0.878 0.000
v 0.27822 -0.04192 3.64135 0.000 0.878 0.000
v 0.27822 -0.04192 3.55865 0.000 0.878 0.000
v 0.31551 -0.04192 3.57210 0.000 0.878 0.000
v 0.31551 -0.04192 3.62790 0.000 0.878 0.000
v 0.23597 0.04192 3.62570 0.000 0.878 0.000
v 0.27822 0.04192 3.64135 0.000 0.878 0.000
v 0.23597 0.04192 3.57430 0.000 0.878 0.000
v 0.27822 0.04192 3.55865 0.000 0.878 0.000
v 0.31551 0.04192 3.57210 0.000 0.878 0.000
v 0.31551 0.04192 3.62790 0.000 0.878 0.000
v 0.14013 0.04192 3.62038 0.000 0.878 0.000
v 0.14013 0.04192 3.57962 0.000 0.878 0.000
v 0.23597 0.04192 3.62570 0.000 0.396 0.000
v 0.23597 0.00000 3.64984 0.000 0.431 0.000
v 0.27822 0.04192 3.64135 0.000 0.396 0.000
v 0.27822 0.00000 3.66599 0.000 0.431 0.000
v 0.19558 0.00000 3.64468 0.000 0.431 0.000
v 0.14013 0.04192 3.62038 0.000 0.396 0.000
v 0.14013 0.00000 3.64444 0.000 0.431 0.000
v 0.27822 -0.04192 3.64135 0.000 0.396 0.000
v 0.23597 -0.04192 3.62570 0.000 0.396 0.000
v 0.14013 -0.04192 3.62038 0.000 0.396 0.000
v 0.27822 0.00000 3.66599 0.000 0.431 0.000
v 0.31551 0.00000 3.65125 0.000 0.431 0.000
v 0.27822 0.04192 3.64135 0.000 0.396 0.000
v 0.31551 0.04192 3.62790 0.000 0.396 0.000
v 0.27822 -0.04192 3.64135 0.000 0.396 0.000
v 0.31551 -0.04192 3.62790 0.000 0.396 0.000
v 0.31551 0.04192 3.57210 0.000 0.396 0.000
v 0.31551 0.00000 3.54875 0.000 0.431 0.000
v 0.27822 0.04192 3.55865 0.000 0.396 0.000
v 0.27822 0.00000 3.53401 0.000 0.431 0.000
v 0.27822 -0.04192 3.55865 0.000 0.396 0.000
v 0.31551 -0.04192 3.57210 0.000 0.396 0.000
v 0.27822 0.00000 3.53401 0.000 0.431 0.000
v 0.23597 0.00000 3.55016 0.000 0.431 0.000
v 0.27822 0.04192 3.55865 0.000 0.396 0.000
v 0.23597 0.04192 3.57430 0.000 0.396 0.000
v 0.19558 0.00000 3.55532 0.000 0.431 0.000
v 0.14013 0.04192 3.57962 0.000 0.396 0.000
v 0.14013 0.00000 3.55556 0.000 0.431 0.000
v 0.27822 -0.04192 3.55865 0.000 0.396 0.000
v 0.23597 -0.04192 3.57430 0.000 0.396 0.000
v 0.14013 -0.04192 3.57962 0.000 0.396 0.000
v -0.52153 0.00000 3.60000 0.969 0.000 0.000
v -0.42772 0.00000 3.56126 0.878 0.000 0.000
v -0.42772 -0.03874 3.60000 0.800 0.000 0.000
v -0.42772 0.00000 3.63874 0.878 0.000 0.000
v -0.42772 0.03874 3.60000 0.800 0.000 0.000
v -0.42772 0.00000 3.56126 0.851 0.000 0.000
v -0.33391 0.00000 3.60000 0.941 0.000 0.000
v -0.42772 -0.03874 3.60000 0.769 0.000 0.000
v -0.42772 0.00000 3.63874 0.851 0.000 0.000
v -0.42772 0.03874 3.60000 0.769 0.000 0.000
v -0.46902 0.00000 3.64302 0.000 0.859 0.000
v -0.51958 0.00000 3.63607 0.000 0.902 0.000
v -0.46902 -0.04302 3.60000 0.000 0.780 0.000
v -0.51958 -0.03607 3.60000 0.000 0.820 0.000
v -0.59215 0.00000 3.60000 0.000 0.871 0.000
v -0.46902 0.04302 3.60000 0.000 0.780 0.000
v -0.51958 0.03607 3.60000 0.000 0.820 0.000
v -0.51958 0.00000 3.56393 0.000 0.902 0.000
v -0.46902 0.00000 3.55698 0.000 0.859 0.000
v 0.16086 0.00000 3.54947 0.902 0.000 0.000
v 0.16086 -0.04644 3.57473 0.812 0.000 0.000
v 0.11513 0.00000 3.54947 0.902 0.000 0.000
v 0.11513 -0.04644 3.57473 0.812 0.000 0.000
v 0.11513 -0.04644 3.62527 0.812 0.000 0.000
v 0.16086 -0.04644 3.62527 0.812 0.000 0.000
v 0.16086 0.00000 3.65053 0.902 0.000 0.000
v 0.11513 0.00000 3.65053 0.902 0.000 0.000
v 0.16086 0.04644 3.57473 0.812 0.000 0.000
v 0.11513 0.04644 3.57473 0.812 0.000 0.000
v 0.11513 0.04644 3.62527 0.812 0.000 0.000
v 0.16086 0.04644 3.62527 0.812 0.000 0.000
v 0.11526 0.00000 3.48262 0.902 0.000 0.000
v 0.07963 0.00000 3.49504 0.902 0.000 0.000
v 0.22009 0.00000 3.50510 0.800 0.000 0.000
v 0.15509 0.00000 3.48401 0.800 0.000 0.000
v 0.17832 -0.02579 3.51895 0.902 0.000 0.000
v 0.13232 -0.03870 3.51895 0.902 0.000 0.000
v 0.10799 -0.03064 3.45199 0.800 0.000 0.000
v 0.07959 -0.03870 3.49513 0.902 0.000 0.000
v 0.01471 -0.03870 3.46739 0.820 0.000 0.000
v 0.01618 0.00000 3.43735 0.902 0.000 0.000
v 0.07569 0.00000 3.41255 0.902 0.000 0.000
v 0.13248 0.00000 3.41311 0.902 0.000 0.000
v 0.14950 -0.02263 3.43769 0.800 0.000 0.000
v 0.17868 0.00000 3.40691 0.800 0.000 0.000
v 0.01322 0.00000 3.50078 0.902 0.000 0.000
v -0.03513 0.00000 3.45256 0.902 0.000 0.000
v -0.06988 -0.03870 3.51524 0.573 0.000 0.000
v -0.08413 0.00000 3.48680 0.631 0.000 0.000
v -0.12070 0.00000 3.53749 0.541 0.000 0.000
v -0.12070 -0.04595 3.59190 0.412 0.000 0.000
v -0.05482 0.00000 3.54397 0.631 0.000 0.000
v 0.01322 0.00000 3.50078 0.902 0.000 0.000
v 0.01471 -0.03870 3.46739 0.820 0.000 0.000
v -0.05487 0.00000 3.56755 0.451 0.000 0.000
v -0.15627 0.00000 3.55525 0.494 0.000 0.000
v -0.19369 0.00000 3.56578 0.451 0.000 0.000
v 0.14950 0.02263 3.43769 0.800 0.000 0.000
v 0.10799 0.03064 3.45199 0.800 0.000 0.000
v 0.01471 0.03870 3.46739 0.820 0.000 0.000
v 0.07959 0.03870 3.49513 0.902 0.000 0.000
v 0.13232 0.03870 3.51895 0.902 0.000 0.000
v 0.17832 0.02579 3.51895 0.902 0.000 0.000
v -0.06988 0.03870 3.51524 0.573 0.000 0.000
v -0.12070 0.04595 3.59190 0.412 0.000 0.000
v 0.01471 0.03870 3.46739 0.820 0.000 0.000
v 0.10799 0.03064 3.45199 0.800 0.000 0.000
v 0.10799 -0.03064 3.45199 0.800 0.000 0.000
v 0.15509 0.00000 3.48401 0.800 0.000 0.000
v -0.05487 0.00000 3.56755 0.451 0.000 0.000
v -0.12070 -0.04595 3.59190 0.412 0.000 0.000
v -0.12070 0.04595 3.59190 0.412 0.000 0.000
v -0.19369 0.00000 3.56578 0.451 0.000 0.000
v 0.31551 0.00000 3.54875 0.000 0.424 0.000
v 0.31551 0.04192 3.57210 0.000 0.424 0.000
v 0.31551 -0.04192 3.57210 0.000 0.424 0.000
v 0.31551 0.04192 3.57210 0.000 0.902 0.000
v 0.31551 0.04192 3.62790 0.000 0.902 0.000
v 0.31551 -0.04192 3.57210 0.000 0.902 0.000
v 0.31551 -0.04192 3.62790 0.000 0.902 0.000
v 0.31551 0.00000 3.65125 0.000 0.424 0.000
v 0.31551 -0.04192 3.62790 0.000 0.424 0.000
v 0.31551 0.04192 3.62790 0.000 0.424 0.000
v -0.38988 0.00000 3.63681 0.000 0.000 0.902
v -0.38988 0.03681 3.60000 0.000 0.000 0.902
v -0.43631 0.00000 3.60000 0.000 0.000 0.902
v -0.38988 0.00000 3.56319 0.000 0.000 0.902
v -0.38988 -0.03681 3.60000 0.000 0.000 0.902
v -0.46902 0.04302 3.60000 0.000 0.902 0.000
v -0.46902 0.00000 3.64302 0.000 0.902 0.000
v -0.42797 0.00000 3.60000 0.000 0.902 0.000
v -0.46902 -0.04302 3.60000 0.000 0.902 0.000
v -0.46902 0.00000 3.55698 0.000 0.902 0.000
v 0.16086 -0.04644 3.62527 0.902 0.000 0.000
v 0.16086 -0.04644 3.57473 0.902 0.000 0.000
v 0.16086 0.00000 3.65053 0.902 0.000 0.000
v 0.16086 0.04644 3.62527 0.902 0.000 0.000
v 0.16086 0.00000 3.54947 0.902 0.000 0.000
v 0.16086 0.04644 3.57473 0.902 0.000 0.000
v 0.11513 -0.04644 3.57473 0.902 0.000 0.000
v 0.11513 0.04644 3.62527 0.902 0.000 0.000
v 0.11513 0.00000 3.54947 0.902 0.000 0.000
v 0.11513 0.04644 3.57473 0.902 0.000 0.000
v 0.11513 0.00000 3.65053 0.902 0.000 0.000
v 0.11513 -0.04644 3.62527 0.902 0.000 0.000
v 0.07959 -0.03870 3.49513 0.902 0.000 0.000
v 0.07959 0.03870 3.49513 0.902 0.000 0.000
v 0.13232 -0.03870 3.51895 0.902 0.000 0.000
v 0.13232 0.03870 3.51895 0.902 0.000 0.000
v 0.17832 -0.02579 3.51895 0.839 0.000 0.000
v 0.17832 0.02579 3.51895 0.839 0.000 0.000
v 0.22009 0.00000 3.50510 0.839 0.000 0.000
v 0.01322 0.00000 3.50078 0.902 0.000 0.000
v 0.10799 -0.03064 3.45199 0.902 0.000 0.000
v 0.10799 0.03064 3.45199 0.902 0.000 0.000
v 0.14950 -0.02263 3.43769 0.851 0.000 0.000
v 0.14950 0.02263 3.43769 0.851 0.000 0.000
v 0.17868 0.00000 3.40691 0.851 0.000 0.000
v 0.40583 -0.01161 3.76844 0.000 0.902 0.000
v 0.40583 0.01161 3.76844 0.000 0.902 0.000
v 0.51479 -0.01161 3.75523 0.000 0.902 0.000
v 0.51479 0.01161 3.75523 0.000 0.902 0.000
v 0.31962 0.01161 3.75523 0.000 0.902 0.000
v 0.31962 -0.01161 3.75523 0.000 0.902 0.000
v 0.25296 0.01161 3.70577 0.000 0.859 0.000
v 0.25296 -0.01161 3.70577 0.000 0.859 0.000
v 0.24063 0.01161 3.67943 0.000 0.831 0.000
v 0.24063 -0.01161 3.67943 0.000 0.831 0.000
v 0.25319 0.01161 3.65308 0.000 0.902 0.000
v 0.25319 -0.01161 3.65308 0.000 0.902 0.000
v 0.23961 0.01161 3.62216 0.000 0.902 0.000
v 0.23961 -0.01161 3.62216 0.000 0.902 0.000
v 0.63811 0.00000 3.70555 0.000 0.902 0.000
v 0.23472 -0.01161 3.74477 0.000 0.839 0.000
v 0.23472 0.01161 3.74477 0.000 0.839 0.000
v 0.21558 -0.01161 3.76497 0.000 0.902 0.000
v 0.21558 0.01161 3.76497 0.000 0.902 0.000
v 0.25423 0.01161 3.76497 0.000 0.902 0.000
v 0.25423 -0.01161 3.76497 0.000 0.902 0.000
v 0.23297 0.00000 3.79264 0.000 0.902 0.000
v 0.30153 0.00000 3.83368 0.000 0.424 0.000
v 0.31956 0.01161 3.80279 0.000 0.424 0.000
v 0.31956 -0.01161 3.80279 0.000 0.424 0.000
v 0.31956 0.01161 3.80279 0.000 0.902 0.000
v 0.30509 0.01161 3.78297 0.000 0.839 0.000
v 0.31956 -0.01161 3.80279 0.000 0.902 0.000
v 0.30509 -0.01161 3.78297 0.000 0.839 0.000
v 0.28398 0.01161 3.78297 0.000 0.902 0.000
v 0.28398 -0.01161 3.78297 0.000 0.902 0.000
v 0.27457 0.00000 3.81262 0.000 0.902 0.000
v 0.28345 -0.01161 3.63870 0.000 0.902 0.000
v 0.28345 0.01161 3.63870 0.000 0.902 0.000
v 0.44415 -0.01161 3.63870 0.000 0.902 0.000
v 0.44415 0.01161 3.63870 0.000 0.902 0.000
v 0.65695 -0.01161 3.56130 0.000 0.902 0.000
v 0.65695 0.01161 3.56130 0.000 0.902 0.000
v 0.27165 -0.01161 3.56130 0.000 0.902 0.000
v 0.27165 0.01161 3.56130 0.000 0.902 0.000
v 0.21558 0.01161 3.76497 0.000 0.424 0.000
v 0.20960 0.00000 3.79841 0.000 0.424 0.000
v 0.21558 -0.01161 3.76497 0.000 0.424 0.000
v 0.44415 0.01161 3.63870 0.000 0.451 0.000
v 0.48661 0.00000 3.63870 0.000 0.451 0.000
v 0.44415 -0.01161 3.63870 0.000 0.451 0.000
v 0.65695 -0.01161 3.56130 0.000 0.451 0.000
v 0.70825 0.00000 3.56130 0.000 0.451 0.000
v 0.65695 0.01161 3.56130 0.000 0.451 0.000
v -0.19297 -0.03159 3.60000 0.949 0.000 0.000
v -0.12066 0.00000 3.56938 0.949 0.000 0.000
v -0.12066 -0.05072 3.60000 0.902 0.000 0.000
v -0.19297 -0.03159 3.60000 0.925 0.000 0.000
v -0.12066 -0.05072 3.60000 0.875 0.000 0.000
v -0.12066 0.00000 3.63062 0.925 0.000 0.000
v -0.12066 0.00000 3.56938 0.925 0.000 0.000
v -0.04835 -0.03159 3.60000 0.925 0.000 0.000
v -0.12066 -0.05072 3.60000 0.851 0.000 0.000
v -0.04835 -0.03159 3.60000 0.902 0.000 0.000
v -0.12066 0.00000 3.63062 0.902 0.000 0.000
v -0.19297 0.03159 3.60000 0.925 0.000 0.000
v -0.12066 0.05072 3.60000 0.875 0.000 0.000
v -0.12066 0.00000 3.56938 0.925 0.000 0.000
v -0.12066 0.00000 3.63062 0.925 0.000 0.000
v -0.04835 0.03159 3.60000 0.925 0.000 0.000
v -0.19297 0.03159 3.60000 0.949 0.000 0.000
v -0.12066 0.00000 3.63062 0.949 0.000 0.000
v -0.12066 0.05072 3.60000 0.902 0.000 0.000
v -0.12066 0.00000 3.56938 0.902 0.000 0.000
v -0.12066 0.05072 3.60000 0.851 0.000 0.000
v -0.04835 0.03159 3.60000 0.902 0.000 0.000
v 0.25972 0.00000 3.60000 1.000 0.000 0.000
v 1.43806 0.00000 3.60000 1.000 0.000 0.000
v 0.35903 0.00000 3.75761 1.000 0.000 0.000
v 1.43806 0.00000 3.74204 1.000 0.000 0.000
v 0.35903 0.00000 3.44239 1.000 0.000 0.000
v 1.43806 0.00000 3.45796 1.000 0.000 0.000
v 0.35903 -0.15761 3.60000 1.000 0.000 0.000
v 1.43806 -0.14204 3.60000 1.000 0.000 0.000
v 0.35903 0.15761 3.60000 1.000 0.000 0.000
v 1.43806 0.14204 3.60000 1.000 0.000 0.000
v 1.43806 0.00000 3.60000 1.000 0.000 0.000
v 2.51709 0.00000 3.60000 1.000 0.000 0.000
v 1.43806 0.00000 3.74204 1.000 0.000 0.000
v 2.51709 0.00000 3.72647 1.000 0.000 0.000
v 1.43806 0.00000 3.45796 1.000 0.000 0.000
v 2.51709 0.00000 3.47353 1.000 0.000 0.000
v 1.43806 -0.14204 3.60000 1.000 0.000 0.000
v 2.51709 -0.12647 3.60000 1.000 0.000 0.000
v 1.43806 0.14204 3.60000 1.000 0.000 0.000
v 2.51709 0.12647 3.60000 1.000 0.000 0.000
v 2.98326 0.00000 3.60000 1.000 0.000 0.000
v 2.81704 0.00000 3.67616 1.000 0.000 0.000
v 2.51709 0.00000 3.60000 1.000 0.000 0.000
v 2.51709 0.00000 3.72647 1.000 0.000 0.000
v 2.81704 -0.07616 3.60000 1.000 0.000 0.000
v 2.51709 -0.12647 3.60000 1.000 0.000 0.000
v 2.98326 0.00000 3.60000 1.000 0.000 0.000
v 2.81704 0.00000 3.52384 1.000 0.000 0.000
v 2.51709 0.00000 3.47353 1.000 0.000 0.000
v 2.81704 0.07616 3.60000 1.000 0.000 0.000
v 2.51709 0.12647 3.60000 1.000 0.000 0.000
v 0.57549 0.08541 3.34534 1.000 0.000 0.000
v 0.40771 0.09002 3.22285 1.000 0.000 0.000
v 0.42522 0.07276 3.48734 1.000 0.000 0.000
v 0.31774 0.07571 3.40888 1.000 0.000 0.000
v 0.27554 0.06008 3.62979 1.000 0.000 0.000
v 0.22719 0.06140 3.59447 1.000 0.000 0.000
v 0.63089 0.09709 3.44912 1.000 0.000 0.000
v 0.54007 0.10539 3.30395 1.000 0.000 0.000
v 0.46569 0.07978 3.53700 1.000 0.000 0.000
v 0.40275 0.08536 3.44610 1.000 0.000 0.000
v 0.30076 0.06242 3.62540 1.000 0.000 0.000
v 0.26517 0.06536 3.58771 1.000 0.000 0.000
v 0.69182 0.10111 3.60405 1.000 0.000 0.000
v 0.63339 0.12197 3.39269 1.000 0.000 0.000
v 0.47821 0.08123 3.62392 1.000 0.000 0.000
v 0.44078 0.09461 3.48853 1.000 0.000 0.000
v 0.26481 0.06129 3.64453 1.000 0.000 0.000
v 0.24797 0.06730 3.58362 1.000 0.000 0.000
v 0.57549 -0.08541 3.34534 1.000 0.000 0.000
v 0.40771 -0.09002 3.22285 1.000 0.000 0.000
v 0.42522 -0.07276 3.48734 1.000 0.000 0.000
v 0.31774 -0.07571 3.40888 1.000 0.000 0.000
v 0.27554 -0.06008 3.62979 1.000 0.000 0.000
v 0.22719 -0.06140 3.59447 1.000 0.000 0.000
v 0.63089 -0.09709 3.44912 1.000 0.000 0.000
v 0.54007 -0.10539 3.30395 1.000 0.000 0.000
v 0.46569 -0.07978 3.53700 1.000 0.000 0.000
v 0.40275 -0.08536 3.44610 1.000 0.000 0.000
v 0.30076 -0.06242 3.62540 1.000 0.000 0.000
v 0.26517 -0.06536 3.58771 1.000 0.000 0.000
v 0.69182 -0.10111 3.60405 1.000 0.000 0.000
v 0.63339 -0.12197 3.39269 1.000 0.000 0.000
v 0.47821 -0.08123 3.62392 1.000 0.000 0.000
v 0.44078 -0.09461 3.48853 1.000 0.000 0.000
v 0.26481 -0.06129 3.64453 1.000 0.000 0.000
v 0.24797 -0.06730 3.58362 1.000 0.000 0.000
vt 0.99912 0.99308
vt 0.89720 0.93047
vt 0.99912 0.93047
vt 0.86772 0.84946
vt 0.99912 0.84946
vt 0.86772 0.16255
vt 0.99912 0.16255
vt 0.99912 0.93047
vt 0.99912 0.84946
vt 0.99912 0.16255
vt 0.89720 0.93047
vt 0.86772 0.84946
vt 0.86772 0.16255
vt 0.96678 0.54337
vt 0.96678 0.59357
vt 0.86159 0.54312
vt 0.96678 0.68203
vt 0.88150 0.80475
vt 0.96678 0.80475
vt 0.96678 0.99757
vt 0.99180 0.37680
vt 0.88662 0.37765
vt 0.99180 0.31023
vt 0.99180 0.25067
vt 0.63902 0.64127
vt 0.61017 0.72261
vt 0.58132 0.64127
vt 0.55506 0.64176
vt 0.61043 0.64176
vt 0.61043 0.79790
vt 0.61043 0.48562
vt 0.61043 0.64176
vt 0.55506 0.64176
vt 0.61043 0.79790
vt 0.66580 0.64176
vt 0.66580 0.64176
vt 0.61043 0.64176
vt 0.61043 0.48562
vt 0.63902 0.64127
vt 0.61017 0.72261
vt 0.58132 0.64127
vt 0.66580 0.64176
vt 0.61043 0.64176
vt 0.61043 0.79790
vt 0.55506 0.64176
vt 0.61043 0.48562
vt 0.61043 0.48562
vt 0.61043 0.64176
vt 0.66580 0.64176
vt 0.61043 0.79790
vt 0.61043 0.64176
vt 0.55506 0.64176
vt 0.25903 0.78908
vt 0.29771 0.69610
vt 0.39588 0.78908
vt 0.50921 0.69610
vt 0.53952 0.78908
vt 0.29771 0.69610
vt 0.50921 0.69610
vt 0.53952 0.69610
vt 0.40390 0.78908
vt 0.29444 0.69610
vt 0.27617 0.78908
vt 0.29444 0.69610
vt 0.53952 0.69610
vt 0.27460 0.69610
vt 0.00128 0.78908
vt 0.27460 0.69610
vt 0.49665 0.87983
vt 0.70589 0.90938
vt 0.53300 0.80484
vt 0.72001 0.80484
vt 0.74256 0.87161
vt 0.73149 0.80484
vt 0.73132 0.87518
vt 0.69395 0.89996
vt 0.61238 0.90756
vt 0.55792 0.89814
vt 0.54220 0.80484
vt 0.66322 0.98162
vt 0.61171 0.98237
vt 0.71364 0.96534
vt 0.61238 0.90756
vt 0.69395 0.89996
vt 0.73149 0.80484
vt 0.73132 0.87518
vt 0.55792 0.89814
vt 0.54220 0.80484
vt 0.54894 0.89891
vt 0.57178 0.95600
vt 0.42321 1.00100
vt 0.42811 0.90211
vt 0.49574 0.80484
vt 0.43027 0.80484
vt 0.43370 0.69610
vt 0.23055 0.78908
vt 0.19375 0.69610
vt 0.50205 0.78908
vt 0.03811 0.78908
vt 0.43370 0.69610
vt 0.19375 0.69610
vt 0.27007 0.84405
vt 0.50803 0.88574
vt 0.29010 0.80484
vt 0.52543 0.80484
vt 0.28792 0.80484
vt 0.00282 0.80484
vt 0.27757 0.84871
vt 0.28792 0.80484
vt 0.27757 0.84871
vt 0.25043 0.67950
vt 0.05134 0.60112
vt 0.06987 0.67950
vt 0.27741 0.60112
vt 0.05134 0.60112
vt 0.27741 0.60112
vt 0.42137 0.89956
vt 0.32761 0.90157
vt 0.39438 0.80484
vt 0.33182 0.80484
vt 0.01567 0.67950
vt 0.01783 0.60112
vt 0.14569 0.67950
vt 0.14554 0.60112
vt 0.01783 0.60112
vt 0.14554 0.60112
vt 0.27944 0.67950
vt 0.15333 0.67950
vt 0.27996 0.60112
vt 0.11681 0.60112
vt 0.27996 0.60112
vt 0.11681 0.60112
vt 0.33051 0.80484
vt 0.30390 0.90186
vt 0.25810 0.80484
vt 0.23171 0.90265
vt 0.00719 0.78908
vt 0.11175 0.69610
vt 0.11116 0.78908
vt 0.28245 0.78908
vt 0.29532 0.69610
vt 0.53952 0.78908
vt 0.53952 0.69610
vt 0.40859 0.69610
vt 0.40824 0.78908
vt 0.30968 0.69610
vt 0.26706 0.78908
vt 0.14015 0.78908
vt 0.11175 0.69610
vt 0.29532 0.69610
vt 0.53952 0.69610
vt 0.30968 0.69610
vt 0.40859 0.69610
vt 0.33967 0.67950
vt 0.43979 0.60112
vt 0.37398 0.60112
vt 0.44894 0.67950
vt 0.43979 0.60112
vt 0.37398 0.60112
vt 0.70983 0.84868
vt 0.64017 0.84868
vt 0.74736 0.80484
vt 0.01522 0.80484
vt 0.37537 0.88656
vt 0.16591 0.86423
vt 0.57717 0.89597
vt 0.46477 0.94842
vt 0.54661 0.97676
vt 0.25911 0.60112
vt 0.34882 0.60112
vt 0.25059 0.67950
vt 0.33967 0.67950
vt 0.07268 0.67950
vt 0.13597 0.60112
vt 0.00910 0.60112
vt 0.01222 0.67950
vt 0.34882 0.60112
vt 0.25911 0.60112
vt 0.13597 0.60112
vt 0.00910 0.60112
vt 0.20915 0.67950
vt 0.14280 0.60112
vt 0.01384 0.60112
vt 0.08365 0.67950
vt 0.01384 0.67950
vt 0.01384 0.60112
vt 0.14280 0.60112
vt 0.73437 0.80484
vt 0.25435 0.80484
vt 0.65665 0.86154
vt 0.53952 0.69610
vt 0.41556 0.69610
vt 0.41556 0.78908
vt 0.01228 0.78908
vt 0.13036 0.69610
vt 0.01228 0.69610
vt 0.41556 0.78908
vt 0.01228 0.78908
vt 0.72001 0.80484
vt 0.70589 0.90938
vt 0.53300 0.80484
vt 0.49665 0.87983
vt 0.74256 0.87161
vt 0.54894 0.89891
vt 0.42321 1.00100
vt 0.57178 0.95600
vt 0.42811 0.90211
vt 0.49574 0.80484
vt 0.43027 0.80484
vt 0.52543 0.80484
vt 0.50803 0.88574
vt 0.29010 0.80484
vt 0.27007 0.84405
vt 0.42137 0.89956
vt 0.39438 0.80484
vt 0.32761 0.90157
vt 0.33182 0.80484
vt 0.33051 0.80484
vt 0.25810 0.80484
vt 0.30390 0.90186
vt 0.23171 0.90265
vt 0.01522 0.80484
vt 0.64017 0.84868
vt 0.74736 0.80484
vt 0.37537 0.88656
vt 0.16591 0.86423
vt 0.70983 0.84868
vt 0.57717 0.89597
vt 0.46477 0.94842
vt 0.54661 0.97676
vt 0.65665 0.86154
vt 0.25435 0.80484
vt 0.73437 0.80484
vt 0.44641 0.53254
vt 0.00687 0.53254
vt 0.44641 0.47532
vt 0.00687 0.47532
vt 0.44641 0.47532
vt 0.44641 0.53254
vt 0.00687 0.47532
vt 0.00687 0.52952
vt 0.44641 0.47532
vt 0.44641 0.52952
vt 0.44641 0.47532
vt 0.44641 0.52952
vt 0.00687 0.58674
vt 0.44641 0.58674
vt 0.00687 0.52952
vt 0.44641 0.52952
vt 0.44641 0.58674
vt 0.44641 0.52952
vt 0.44641 0.53254
vt 0.00687 0.53254
vt 0.44641 0.58674
vt 0.00687 0.58674
vt 0.44641 0.58674
vt 0.44641 0.53254
vt 0.18033 0.96399
vt 0.38590 0.95257
vt 0.18033 0.85376
vt 0.38590 0.86518
vt 0.08973 0.99757
vt 0.08973 0.82018
vt 0.00974 0.84904
vt 0.00974 0.96871
vt 0.18033 0.96399
vt 0.08973 0.99757
vt 0.18033 0.85376
vt 0.08973 0.82018
vt 0.00974 0.84904
vt 0.00974 0.96871
vt 0.38590 0.95257
vt 0.38590 0.86518
vt 0.53952 0.69610
vt 0.53952 0.78908
vt 0.41746 0.69610
vt 0.41746 0.78908
vt 0.42280 0.78908
vt 0.25439 0.69610
vt 0.25439 0.78908
vt 0.41746 0.69610
vt 0.53952 0.69610
vt 0.25439 0.69610
vt 0.25439 0.78908
vt 0.37019 0.78908
vt 0.25439 0.69610
vt 0.37019 0.69610
vt 0.25439 0.69610
vt 0.37019 0.69610
vt 0.37019 0.69610
vt 0.37019 0.78908
vt 0.25439 0.69610
vt 0.25439 0.78908
vt 0.25439 0.69610
vt 0.37019 0.69610
vt 0.41746 0.78908
vt 0.53952 0.78908
vt 0.41746 0.69610
vt 0.53952 0.69610
vt 0.42280 0.78908
vt 0.25439 0.69610
vt 0.25439 0.78908
vt 0.41746 0.69610
vt 0.53952 0.69610
vt 0.25439 0.69610
vt 0.59524 0.73104
vt 0.76479 0.66104
vt 0.76479 0.73104
vt 0.76479 0.80105
vt 0.76479 0.73104
vt 0.67114 0.66104
vt 0.84069 0.73104
vt 0.67114 0.73104
vt 0.67114 0.80105
vt 0.67114 0.73104
vt 0.46157 0.47532
vt 0.47610 0.56217
vt 0.53938 0.47532
vt 0.53938 0.56217
vt 0.53938 0.68417
vt 0.53938 0.47532
vt 0.53938 0.56217
vt 0.47610 0.56217
vt 0.46157 0.47532
vt 0.77311 0.80625
vt 0.77311 0.86311
vt 0.85196 0.80625
vt 0.85196 0.86311
vt 0.85196 0.93569
vt 0.77311 0.93569
vt 0.77311 0.99298
vt 0.85196 0.99298
vt 0.77311 0.86311
vt 0.85196 0.86311
vt 0.85196 0.93569
vt 0.77311 0.93569
vt 0.77311 0.94578
vt 0.85196 0.91992
vt 0.00696 0.41438
vt 0.15076 0.38372
vt 0.08508 0.46231
vt 0.17111 0.46231
vt 0.22190 0.38372
vt 0.28455 0.46231
vt 0.39637 0.38372
vt 0.39361 0.28855
vt 0.28232 0.28855
vt 0.17611 0.28855
vt 0.14429 0.36590
vt 0.05787 0.33730
vt 0.39916 0.46231
vt 0.47063 0.28855
vt 0.55454 0.38372
vt 0.55454 0.28855
vt 0.64962 0.28855
vt 0.70488 0.39175
vt 0.55454 0.46231
vt 0.41773 0.46231
vt 0.38371 0.38372
vt 0.59100 0.49340
vt 0.73362 0.28855
vt 0.79550 0.28855
vt 0.14429 0.36590
vt 0.22190 0.38372
vt 0.39637 0.38372
vt 0.28455 0.46231
vt 0.17111 0.46231
vt 0.08508 0.46231
vt 0.55454 0.38372
vt 0.70488 0.39175
vt 0.38371 0.38372
vt 0.19734 0.36382
vt 0.19734 0.29569
vt 0.09387 0.32976
vt 0.53565 0.43588
vt 0.59657 0.40872
vt 0.59657 0.46304
vt 0.64532 0.43588
vt 0.68149 0.49258
vt 0.70565 0.54027
vt 0.70565 0.44489
vt 0.70565 0.54027
vt 0.76335 0.54027
vt 0.70565 0.44489
vt 0.76335 0.44489
vt 0.78751 0.49258
vt 0.76335 0.44489
vt 0.76335 0.54027
vt 0.78965 0.35996
vt 0.78965 0.42886
vt 0.75520 0.39441
vt 0.72075 0.42886
vt 0.78965 0.42886
vt 0.78965 0.35996
vt 0.78965 0.42886
vt 0.75520 0.39441
vt 0.72075 0.42886
vt 0.78965 0.42886
vt 0.76113 0.55260
vt 0.70887 0.55260
vt 0.78725 0.60064
vt 0.76113 0.64867
vt 0.68274 0.60064
vt 0.70887 0.64867
vt 0.70887 0.55260
vt 0.76113 0.64867
vt 0.68274 0.60064
vt 0.70887 0.64867
vt 0.78725 0.60064
vt 0.76113 0.55260
vt 0.40530 0.29679
vt 0.40530 0.37321
vt 0.33816 0.29679
vt 0.33816 0.37321
vt 0.27960 0.30952
vt 0.27960 0.36047
vt 0.22642 0.33500
vt 0.48981 0.33500
vt 0.42479 0.29874
vt 0.42479 0.37488
vt 0.53160 0.30868
vt 0.53160 0.36493
vt 0.60671 0.33681
vt 0.85040 0.57559
vt 0.80490 0.57559
vt 0.85040 0.41639
vt 0.80490 0.41639
vt 0.80490 0.70156
vt 0.85040 0.70156
vt 0.80490 0.78972
vt 0.85040 0.78972
vt 0.80490 0.74881
vt 0.85040 0.74881
vt 0.80490 0.70673
vt 0.85040 0.70673
vt 0.80490 0.65989
vt 0.85040 0.65989
vt 0.82919 0.23619
vt 0.85040 0.78972
vt 0.80490 0.78972
vt 0.85040 0.73861
vt 0.80490 0.73861
vt 0.80490 0.73861
vt 0.85040 0.73861
vt 0.82919 0.65851
vt 0.82919 0.65032
vt 0.80490 0.73972
vt 0.85040 0.73972
vt 0.80490 0.73972
vt 0.80490 0.78972
vt 0.85040 0.73972
vt 0.85040 0.78972
vt 0.80490 0.73607
vt 0.85040 0.73607
vt 0.82919 0.65024
vt 0.85040 0.46771
vt 0.80490 0.46771
vt 0.85040 0.23291
vt 0.80490 0.23291
vt 0.85040 0.23532
vt 0.80490 0.23532
vt 0.85040 0.78972
vt 0.80490 0.78972
vt 0.80490 0.73861
vt 0.82919 0.64180
vt 0.85040 0.73861
vt 0.80490 0.23291
vt 0.82919 0.17087
vt 0.85040 0.23291
vt 0.85040 0.23532
vt 0.82919 0.16036
vt 0.80490 0.23532
vt 0.60945 0.49343
vt 0.66573 0.64074
vt 0.60945 0.64074
vt 0.60945 0.49343
vt 0.60945 0.64074
vt 0.55316 0.64074
vt 0.66573 0.64074
vt 0.60945 0.78806
vt 0.60945 0.64074
vt 0.60945 0.78806
vt 0.55316 0.64074
vt 0.60945 0.49343
vt 0.60945 0.64074
vt 0.55316 0.64074
vt 0.66573 0.64074
vt 0.60945 0.78806
vt 0.60945 0.49343
vt 0.66573 0.64074
vt 0.60945 0.64074
vt 0.55316 0.64074
vt 0.60945 0.64074
vt 0.60945 0.78806
vt 0.49522 0.00375
vt 0.00306 0.00375
vt 0.49551 0.15211
vt 0.04828 0.15211
vt 0.49551 0.15211
vt 0.04828 0.15211
vt 0.49551 0.15211
vt 0.04828 0.15211
vt 0.49551 0.15211
vt 0.04828 0.15211
vt 0.45204 0.00375
vt 0.00229 0.00375
vt 0.49708 0.15211
vt 0.04877 0.15211
vt 0.49708 0.15211
vt 0.04877 0.15211
vt 0.49708 0.15211
vt 0.04877 0.15211
vt 0.49708 0.15211
vt 0.04877 0.15211
vt 0.32356 0.15211
vt 0.40941 0.15211
vt 0.46083 0.00375
vt 0.49648 0.15211
vt 0.40941 0.15211
vt 0.49648 0.15211
vt 0.32356 0.15211
vt 0.40941 0.15211
vt 0.49648 0.15211
vt 0.40941 0.15211
vt 0.49648 0.15211
vt 0.41123 0.15848
vt 0.41123 0.27807
vt 0.50373 0.15848
vt 0.50373 0.27807
vt 0.60434 0.15848
vt 0.60434 0.27807
vt 0.00214 0.15848
vt 0.00214 0.27807
vt 0.09464 0.15848
vt 0.09464 0.27807
vt 0.19526 0.15848
vt 0.19526 0.27807
vt 0.41123 0.15848
vt 0.41123 0.27807
vt 0.50373 0.15848
vt 0.50373 0.27807
vt 0.60434 0.15848
vt 0.60434 0.27807
vt 0.00237 0.15848
vt 0.00237 0.27807
vt 0.09488 0.15848
vt 0.09488 0.27807
vt 0.19549 0.15848
vt 0.19549 0.27807
vt 0.41100 0.15848
vt 0.41100 0.27807
vt 0.50350 0.15848
vt 0.50350 0.27807
vt 0.60411 0.15848
vt 0.60411 0.27807
vt 0.00237 0.15848
vt 0.00237 0.27807
vt 0.09488 0.15848
vt 0.09488 0.27807
vt 0.19549 0.15848
vt 0.19549 0.27807
usemtl m0
f 1/1 2/2 3/3
f 2/2 4/4 3/3
f 3/3 4/4 5/5
f 4/4 6/6 5/5
f 5/5 6/6 7/7
f 1/1 8/8 2/2
f 8/8 4/4 2/2
f 8/8 9/9 4/4
f 4/4 9/9 6/6
f 6/6 9/9 10/10
f 1/1 3/3 11/11
f 1/1 11/11 8/8
f 3/3 12/12 11/11
f 3/3 5/5 12/12
f 11/11 12/12 8/8
f 8/8 12/12 9/9
f 12/12 5/5 13/13
f 7/7 13/13 5/5
f 12/12 13/13 9/9
f 9/9 13/13 10/10
f 14/14 15/15 16/16
f 16/16 15/15 17/17
f 16/16 17/17 18/18
f 19/19 18/18 17/17
f 19/19 20/20 18/18
f 21/21 22/22 23/23
f 22/22 24/24 23/23
f 25/25 26/26 27/27
f 28/28 29/29 30/30
f 31/31 32/32 33/33
f 34/34 32/32 35/35
f 36/36 37/37 38/38
f 39/39 40/40 41/41
f 42/42 43/43 44/44
f 45/45 43/43 46/46
f 47/47 48/48 49/49
f 50/50 51/51 52/52
f 53/53 54/54 55/55
f 54/54 56/56 55/55
f 55/55 56/56 57/57
f 53/53 55/55 58/58
f 58/58 55/55 59/59
f 55/55 57/57 59/59
f 57/57 60/60 61/61
f 62/62 61/61 60/60
f 63/63 61/61 62/62
f 63/63 64/64 61/61
f 64/64 65/65 61/61
f 57/57 61/61 65/65
f 63/63 66/66 67/67
f 63/63 67/67 68/68
f 69/69 70/70 71/71
f 70/70 72/72 71/71
f 70/70 73/73 72/72
f 74/74 75/75 76/76
f 77/77 74/74 76/76
f 77/77 78/78 74/74
f 79/79 74/74 78/78
f 77/77 76/76 80/80
f 81/81 77/77 80/80
f 76/76 82/82 80/80
f 81/81 80/80 83/83
f 83/83 80/80 84/84
f 84/84 80/80 82/82
f 83/83 84/84 85/85
f 85/85 84/84 86/86
f 83/83 85/85 87/87
f 88/88 87/87 85/85
f 89/89 90/90 91/91
f 89/89 91/91 92/92
f 93/93 89/89 92/92
f 93/93 92/92 94/94
f 95/95 96/96 97/97
f 98/98 96/96 95/95
f 97/97 96/96 99/99
f 98/98 100/100 96/96
f 100/100 101/101 96/96
f 101/101 99/99 96/96
f 102/102 103/103 104/104
f 103/103 105/105 104/104
f 106/106 107/107 108/108
f 109/109 110/110 107/107
f 111/111 112/112 113/113
f 114/114 112/112 111/111
f 111/111 113/113 115/115
f 116/116 111/111 115/115
f 117/117 118/118 119/119
f 118/118 120/120 119/119
f 121/121 122/122 123/123
f 123/123 122/122 124/124
f 121/121 123/123 125/125
f 123/123 126/126 125/125
f 127/127 128/128 129/129
f 129/129 128/128 130/130
f 127/127 131/131 128/128
f 131/131 132/132 128/128
f 133/133 134/134 135/135
f 134/134 136/136 135/135
f 137/137 138/138 139/139
f 139/139 138/138 140/140
f 138/138 141/141 140/140
f 140/140 141/141 142/142
f 142/142 141/141 143/143
f 143/143 144/144 142/142
f 145/145 142/142 144/144
f 146/146 145/145 144/144
f 145/145 146/146 147/147
f 147/147 146/146 148/148
f 137/137 139/139 149/149
f 139/139 140/140 149/149
f 149/149 140/140 150/150
f 140/140 142/142 150/150
f 142/142 151/151 150/150
f 147/147 148/148 152/152
f 145/145 147/147 152/152
f 151/151 142/142 153/153
f 152/152 153/153 145/145
f 145/145 153/153 142/142
f 154/154 155/155 156/156
f 154/154 157/157 155/155
f 154/154 158/158 157/157
f 154/154 159/159 158/158
f 160/160 161/161 162/162
f 161/161 163/163 162/162
f 163/163 161/161 164/164
f 163/163 164/164 165/165
f 161/161 166/166 164/164
f 166/166 167/167 164/164
f 167/167 166/166 168/168
f 169/169 170/170 171/171
f 170/170 172/172 171/171
f 171/171 173/173 169/169
f 169/169 173/173 174/174
f 173/173 175/175 174/174
f 175/175 173/173 176/176
f 177/177 171/171 172/172
f 178/178 171/171 177/177
f 171/171 178/178 173/173
f 178/178 179/179 173/173
f 173/173 179/179 180/180
f 180/180 176/176 173/173
f 181/181 182/182 183/183
f 181/181 183/183 184/184
f 184/184 183/183 185/185
f 181/181 184/184 186/186
f 184/184 185/185 186/186
f 181/181 186/186 187/187
f 188/188 189/189 190/190
f 191/191 192/192 193/193
f 194/194 193/193 192/192
f 192/192 195/195 194/194
f 196/196 194/194 195/195
f 191/191 197/197 192/192
f 198/198 192/192 197/197
f 192/192 198/198 195/195
f 196/196 195/195 198/198
f 199/199 200/200 201/201
f 200/200 202/202 201/201
f 200/200 199/199 203/203
f 204/204 205/205 206/206
f 204/204 207/207 205/205
f 208/208 207/207 204/204
f 208/208 209/209 207/207
f 210/210 211/211 212/212
f 211/211 213/213 212/212
f 214/214 215/215 216/216
f 216/216 215/215 217/217
f 218/218 219/219 220/220
f 220/220 219/219 221/221
f 222/222 223/223 224/224
f 222/222 225/225 223/223
f 222/222 226/226 225/225
f 224/224 223/223 227/227
f 223/223 225/225 228/228
f 228/228 225/225 229/229
f 229/229 230/230 228/228
f 231/231 232/232 233/233
f 234/234 235/235 236/236
f 235/235 237/237 236/236
f 238/238 237/237 235/235
f 239/239 238/238 235/235
f 240/240 241/241 242/242
f 241/241 243/243 242/242
f 241/241 240/240 244/244
f 245/245 241/241 244/244
f 246/246 247/247 248/248
f 247/247 249/249 248/248
f 246/246 248/248 250/250
f 248/248 251/251 250/250
f 252/252 253/253 254/254
f 253/253 255/255 254/254
f 256/256 255/255 253/253
f 257/257 256/256 253/253
f 258/258 259/259 260/260
f 259/259 261/261 260/260
f 260/260 262/262 258/258
f 263/263 262/262 260/260
f 263/263 264/264 262/262
f 262/262 264/264 265/265
f 266/266 267/267 268/268
f 267/267 269/269 268/268
f 269/269 267/267 270/270
f 270/270 267/267 271/271
f 266/266 268/268 272/272
f 273/273 272/272 268/268
f 274/274 275/275 276/276
f 275/275 277/277 276/276
f 274/274 278/278 275/275
f 278/278 274/274 279/279
f 280/280 278/278 279/279
f 281/281 277/277 275/275
f 282/282 281/281 275/275
f 282/282 275/275 278/278
f 282/282 278/278 283/283
f 278/278 280/280 283/283
f 284/284 285/285 286/286
f 285/285 287/287 286/286
f 284/284 288/288 285/285
f 288/288 289/289 285/285
f 290/290 291/291 292/292
f 291/291 293/293 292/292
f 294/294 293/293 291/291
f 295/295 294/294 291/291
f 296/296 297/297 298/298
f 297/297 299/299 298/298
f 297/297 300/300 299/299
f 300/300 301/301 299/299
f 301/301 300/300 302/302
f 296/296 303/303 297/297
f 303/303 304/304 297/297
f 297/297 304/304 300/300
f 302/302 300/300 305/305
f 300/300 304/304 305/305
f 306/306 307/307 308/308
f 306/306 308/308 309/309
f 307/307 306/306 310/310
f 310/310 306/306 309/309
f 311/311 312/312 313/313
f 313/313 312/312 314/314
f 312/312 311/311 315/315
f 312/312 315/315 314/314
f 316/316 317/317 318/318
f 318/318 317/317 319/319
f 320/320 319/319 317/317
f 317/317 316/316 321/321
f 322/322 317/317 321/321
f 320/320 317/317 322/322
f 321/321 323/323 322/322
f 322/322 323/323 320/320
f 318/318 319/319 323/323
f 323/323 319/319 320/320
f 324/324 323/323 321/321
f 324/324 318/318 323/323
f 325/325 326/326 327/327
f 326/326 328/328 327/327
f 328/328 326/326 329/329
f 326/326 330/330 329/329
f 329/329 330/330 331/331
f 332/332 329/329 331/331
f 333/333 325/325 327/327
f 334/334 333/333 327/327
f 333/333 334/334 335/335
f 332/332 331/331 335/335
f 336/336 333/333 335/335
f 331/331 336/336 335/335
f 325/325 337/337 327/327
f 337/337 338/338 327/327
f 339/339 340/340 341/341
f 340/340 342/342 341/341
f 343/343 342/342 340/340
f 344/344 342/342 343/343
f 345/345 344/344 343/343
f 346/346 345/345 343/343
f 347/347 346/346 343/343
f 347/347 343/343 348/348
f 349/349 348/348 343/343
f 350/350 348/348 349/349
f 344/344 345/345 351/351
f 346/346 352/352 345/345
f 352/352 353/353 345/345
f 354/354 353/353 352/352
f 354/354 355/355 353/353
f 353/353 355/355 356/356
f 353/353 356/356 357/357
f 357/357 358/358 353/353
f 358/358 359/359 353/353
f 360/360 357/357 356/356
f 356/356 355/355 361/361
f 362/362 356/356 361/361
f 350/350 363/363 348/348
f 363/363 364/364 348/348
f 347/347 348/348 364/364
f 347/347 364/364 346/346
f 346/346 364/364 365/365
f 365/365 364/364 366/366
f 366/366 364/364 367/367
f 364/364 340/340 367/367
f 340/340 368/368 367/367
f 339/339 368/368 340/340
f 366/366 351/351 365/365
f 346/346 365/365 352/352
f 352/352 365/365 369/369
f 354/354 352/352 369/369
f 354/354 369/369 355/355
f 369/369 370/370 355/355
f 369/369 357/357 370/370
f 357/357 369/369 358/358
f 358/358 369/369 371/371
f 360/360 370/370 357/357
f 370/370 361/361 355/355
f 362/362 361/361 370/370
f 372/372 373/373 374/374
f 375/375 376/376 377/377
f 376/376 378/378 377/377
f 379/379 380/380 381/381
f 382/382 383/383 384/384
f 383/383 385/385 384/384
f 386/386 387/387 388/388
f 389/389 390/390 391/391
f 390/390 392/392 391/391
f 392/392 393/393 391/391
f 393/393 389/389 391/391
f 394/394 395/395 396/396
f 395/395 397/397 396/396
f 397/397 398/398 396/396
f 398/398 394/394 396/396
f 399/399 400/400 401/401
f 400/400 402/402 401/401
f 400/400 403/403 402/402
f 403/403 404/404 402/402
f 405/405 406/406 407/407
f 406/406 408/408 407/407
f 409/409 406/406 405/405
f 410/410 409/409 405/405
f 411/411 412/412 413/413
f 412/412 414/414 413/413
f 413/413 414/414 415/415
f 414/414 416/416 415/415
f 416/416 417/417 415/415
f 411/411 418/418 412/412
f 419/419 420/420 421/421
f 420/420 422/422 421/421
f 422/422 423/423 421/421
f 424/424 425/425 426/426
f 425/425 427/427 426/426
f 428/428 425/425 424/424
f 429/429 428/428 424/424
f 430/430 428/428 429/429
f 431/431 430/430 429/429
f 432/432 430/430 431/431
f 433/433 432/432 431/431
f 434/434 432/432 433/433
f 435/435 434/434 433/433
f 436/436 434/434 435/435
f 437/437 436/436 435/435
f 427/427 438/438 426/426
f 439/439 440/440 441/441
f 440/440 442/442 441/441
f 443/443 440/440 439/439
f 444/444 443/443 439/439
f 444/444 445/445 443/443
f 446/446 447/447 448/448
f 449/449 450/450 451/451
f 451/451 450/450 452/452
f 450/450 453/453 452/452
f 452/452 453/453 454/454
f 453/453 455/455 454/454
f 456/456 457/457 458/458
f 457/457 459/459 458/458
f 460/460 461/461 462/462
f 461/461 463/463 462/462
f 464/464 465/465 466/466
f 467/467 468/468 469/469
f 470/470 471/471 472/472
f 473/473 474/474 475/475
f 476/476 477/477 478/478
f 479/479 480/480 477/477
f 481/481 482/482 483/483
f 484/484 485/485 486/486
f 485/485 487/487 488/488
f 489/489 490/490 491/491
f 492/492 493/493 494/494
usemtl m1
f 495/495 496/496 497/497
f 497/497 496/496 498/498
f 495/495 499/499 496/496
f 499/499 500/500 496/496
f 495/495 496/496 501/501
f 501/501 496/496 502/502
f 495/495 503/503 496/496
f 503/503 504/504 496/496
f 505/505 506/506 507/507
f 507/507 506/506 508/508
f 505/505 509/509 506/506
f 510/510 506/506 509/509
f 505/505 506/506 511/511
f 511/511 506/506 512/512
f 505/505 513/513 506/506
f 514/514 506/506 513/513
f 515/515 516/516 517/517
f 517/517 516/516 518/518
f 515/515 519/519 517/517
f 517/517 519/519 520/520
f 521/521 517/517 522/522
f 523/523 522/522 517/517
f 521/521 517/517 524/524
f 525/525 524/524 517/517
f 526/526 527/527 528/528
f 527/527 529/529 528/528
f 528/528 529/529 530/530
f 530/530 529/529 531/531
f 532/532 533/533 534/534
f 533/533 535/535 534/534
f 534/534 535/535 536/536
f 536/536 535/535 537/537
f 538/538 539/539 540/540
f 539/539 541/541 540/540
f 540/540 541/541 542/542
f 542/542 541/541 543/543
f 544/544 545/545 546/546
f 545/545 547/547 546/546
f 546/546 547/547 548/548
f 548/548 547/547 549/549
f 550/550 551/551 552/552
f 551/551 553/553 552/552
f 552/552 553/553 554/554
f 554/554 553/553 555/555
f 556/556 557/557 558/558
f 557/557 559/559 558/558
f 558/558 559/559 560/560
f 560/560 559/559 561/561
