mtllib arms1076.mtl
o arms1076
v 0.48245 -0.06100 3.60000 0.000 0.000 0.902
v 0.48510 -0.05909 3.55628 0.000 0.000 0.902
v 1.06561 -0.05909 3.60000 0.000 0.000 0.851
v 0.57890 -0.05909 3.53543 0.000 0.000 0.875
v 1.06561 -0.05909 3.56537 0.000 0.000 0.851
v 0.67165 -0.05909 3.49583 0.000 0.000 0.875
v 1.27444 -0.05913 3.58963 0.000 0.000 0.851
v 0.48510 -0.05909 3.64372 0.000 0.000 0.902
v 0.57890 -0.05909 3.66457 0.000 0.000 0.875
v 1.06561 -0.05909 3.63463 0.000 0.000 0.851
v 0.67165 -0.05909 3.70417 0.000 0.000 0.875
v 1.27444 -0.05913 3.61037 0.000 0.000 0.851
v 0.48245 0.06100 3.60000 0.000 0.000 0.902
v 1.06561 0.05909 3.60000 0.000 0.000 0.851
v 0.48510 0.05909 3.55628 0.000 0.000 0.902
v 0.57890 0.05909 3.53543 0.000 0.000 0.875
v 1.06561 0.05909 3.56537 0.000 0.000 0.851
v 0.67165 0.05909 3.49583 0.000 0.000 0.875
v 1.27444 0.05913 3.58963 0.000 0.000 0.851
v 0.48510 0.05909 3.64372 0.000 0.000 0.902
v 0.57890 0.05909 3.66457 0.000 0.000 0.875
v 1.06561 0.05909 3.63463 0.000 0.000 0.851
v 0.67165 0.05909 3.70417 0.000 0.000 0.875
v 1.27444 0.05913 3.61037 0.000 0.000 0.851
v 0.56513 0.00000 3.77491 0.000 0.851 0.000
v 0.59921 -0.02993 3.76002 0.000 0.851 0.000
v 0.69232 0.00000 3.85639 0.000 0.902 0.000
v 0.69993 -0.02993 3.74796 0.000 0.902 0.000
v 0.59921 0.02993 3.76002 0.000 0.851 0.000
v 0.69993 0.02993 3.74796 0.000 0.902 0.000
v 1.47933 -0.02993 3.69882 0.000 0.851 0.000
v 1.47936 0.00000 3.75901 0.000 0.851 0.000
v 0.85331 0.00000 3.90409 0.000 0.549 0.000
v 0.97384 -0.02993 3.80009 0.000 0.549 0.000
v 1.54360 0.00000 3.77690 0.000 0.902 0.000
v 1.62744 -0.02993 3.70985 0.000 0.902 0.000
v 1.63055 -0.02993 3.75048 0.000 0.902 0.000
v 1.49327 0.00000 3.85402 0.000 0.902 0.000
v 1.47933 0.02993 3.69882 0.000 0.851 0.000
v 0.97384 0.02993 3.80009 0.000 0.549 0.000
v 1.62744 0.02993 3.70985 0.000 0.902 0.000
v 1.63055 0.02993 3.75048 0.000 0.902 0.000
v 1.82319 0.00000 3.78684 0.000 0.549 0.000
v 1.92720 -0.02993 3.69601 0.000 0.549 0.000
v 2.13324 0.00000 3.70733 0.000 0.851 0.000
v 2.12248 -0.02513 3.65191 0.000 0.851 0.000
v 2.26146 -0.01949 3.60000 0.000 0.549 0.000
v 2.39161 0.00000 3.60000 0.000 0.549 0.000
v 2.13324 0.00000 3.49267 0.000 0.851 0.000
v 2.12248 -0.02513 3.54809 0.000 0.851 0.000
v 1.92720 -0.02993 3.50399 0.000 0.549 0.000
v 1.82319 0.00000 3.41316 0.000 0.549 0.000
v 1.92720 0.02993 3.69601 0.000 0.549 0.000
v 2.12248 0.02513 3.65191 0.000 0.851 0.000
v 2.26146 0.01949 3.60000 0.000 0.549 0.000
v 1.92720 0.02993 3.50399 0.000 0.549 0.000
v 2.12248 0.02513 3.54809 0.000 0.851 0.000
v 0.56513 0.00000 3.42509 0.000 0.851 0.000
v 0.69232 0.00000 3.34361 0.000 0.902 0.000
v 0.59921 -0.02993 3.43998 0.000 0.851 0.000
v 0.69993 -0.02993 3.45204 0.000 0.902 0.000
v 0.59921 0.02993 3.43998 0.000 0.851 0.000
v 0.69993 0.02993 3.45204 0.000 0.902 0.000
v 1.47933 -0.02993 3.50118 0.000 0.851 0.000
v 0.97384 -0.02993 3.39991 0.000 0.549 0.000
v 0.85331 0.00000 3.29591 0.000 0.549 0.000
v 1.47936 0.00000 3.44099 0.000 0.851 0.000
v 1.54360 0.00000 3.42310 0.000 0.902 0.000
v 1.62744 -0.02993 3.49015 0.000 0.902 0.000
v 1.63055 -0.02993 3.44952 0.000 0.902 0.000
v 1.49327 0.00000 3.34598 0.000 0.902 0.000
v 1.47933 0.02993 3.50118 0.000 0.851 0.000
v 0.97384 0.02993 3.39991 0.000 0.549 0.000
v 1.62744 0.02993 3.49015 0.000 0.902 0.000
v 1.63055 0.02993 3.44952 0.000 0.902 0.000
v 1.49327 0.00000 3.34598 0.000 0.549 0.000
v 1.75894 0.00000 3.41912 0.000 0.796 0.000
v 1.63055 -0.02993 3.44952 0.000 0.549 0.000
v 1.70678 -0.02993 3.48089 0.000 0.796 0.000
v 1.81723 0.00000 3.49267 0.000 0.851 0.000
v 1.75067 -0.02993 3.53426 0.000 0.851 0.000
v 1.89094 -0.02993 3.55158 0.000 0.851 0.000
v 1.86890 0.00000 3.48273 0.000 0.851 0.000
v 1.92720 -0.02993 3.50399 0.000 0.902 0.000
v 1.82319 0.00000 3.41316 0.000 0.902 0.000
v 1.63055 0.02993 3.44952 0.000 0.549 0.000
v 1.70678 0.02993 3.48089 0.000 0.796 0.000
v 1.75067 0.02993 3.53426 0.000 0.851 0.000
v 1.89094 0.02993 3.55158 0.000 0.851 0.000
v 1.92720 0.02993 3.50399 0.000 0.902 0.000
v 0.69232 0.00000 3.34361 0.000 0.549 0.000
v 0.81157 0.00000 3.39925 0.000 0.796 0.000
v 0.69993 -0.02993 3.45204 0.000 0.549 0.000
v 0.82825 -0.02993 3.47873 0.000 0.796 0.000
v 0.87915 0.00000 3.38533 0.000 0.851 0.000
v 0.95955 -0.02993 3.45064 0.000 0.851 0.000
v 0.97384 -0.02993 3.39991 0.000 0.902 0.000
v 0.85331 0.00000 3.29591 0.000 0.902 0.000
v 0.69993 0.02993 3.45204 0.000 0.549 0.000
v 0.82825 0.02993 3.47873 0.000 0.796 0.000
v 0.95955 0.02993 3.45064 0.000 0.851 0.000
v 0.97384 0.02993 3.39991 0.000 0.902 0.000
v 1.49327 0.00000 3.85402 0.000 0.549 0.000
v 1.63055 -0.02993 3.75048 0.000 0.549 0.000
v 1.75894 0.00000 3.78088 0.000 0.796 0.000
v 1.70678 -0.02993 3.71911 0.000 0.796 0.000
v 1.81723 0.00000 3.70733 0.000 0.851 0.000
v 1.75067 -0.02993 3.66574 0.000 0.851 0.000
v 1.89094 -0.02993 3.64842 0.000 0.851 0.000
v 1.86890 0.00000 3.71727 0.000 0.851 0.000
v 1.92720 -0.02993 3.69601 0.000 0.902 0.000
v 1.82319 0.00000 3.78684 0.000 0.902 0.000
v 1.63055 0.02993 3.75048 0.000 0.549 0.000
v 1.70678 0.02993 3.71911 0.000 0.796 0.000
v 1.75067 0.02993 3.66574 0.000 0.851 0.000
v 1.89094 0.02993 3.64842 0.000 0.851 0.000
v 1.92720 0.02993 3.69601 0.000 0.902 0.000
v 0.69232 0.00000 3.85639 0.000 0.549 0.000
v 0.69993 -0.02993 3.74796 0.000 0.549 0.000
v 0.81157 0.00000 3.80075 0.000 0.796 0.000
v 0.82825 -0.02993 3.72127 0.000 0.796 0.000
v 0.87915 0.00000 3.81467 0.000 0.851 0.000
v 0.95955 -0.02993 3.74936 0.000 0.851 0.000
v 0.97384 -0.02993 3.80009 0.000 0.902 0.000
v 0.85331 0.00000 3.90409 0.000 0.902 0.000
v 0.69993 0.02993 3.74796 0.000 0.549 0.000
v 0.82825 0.02993 3.72127 0.000 0.796 0.000
v 0.95955 0.02993 3.74936 0.000 0.851 0.000
v 0.97384 0.02993 3.80009 0.000 0.902 0.000
v 1.27444 -0.05913 3.61037 0.000 0.643 0.000
v 0.74630 -0.06100 3.61037 0.000 0.643 0.000
v 1.27444 -0.06093 3.60000 0.000 0.643 0.000
v 0.67778 -0.06100 3.60000 0.000 0.643 0.000
v 0.70211 -0.06145 3.63485 0.000 0.643 0.000
v 0.74630 -0.06100 3.58963 0.000 0.643 0.000
v 1.27444 -0.05913 3.58963 0.000 0.643 0.000
v 0.70211 -0.06100 3.56515 0.000 0.643 0.000
v 0.65791 -0.06100 3.56515 0.000 0.643 0.000
v 0.62392 -0.06100 3.58963 0.000 0.643 0.000
v 0.48245 -0.06100 3.60000 0.000 0.643 0.000
v 0.48301 -0.06100 3.58963 0.000 0.643 0.000
v 0.62392 -0.06100 3.61037 0.000 0.643 0.000
v 0.65791 -0.06145 3.63485 0.000 0.643 0.000
v 0.48301 -0.06100 3.61037 0.000 0.643 0.000
v 0.68409 -0.06100 3.53830 0.000 0.643 0.000
v 0.67015 -0.06100 3.53830 0.000 0.643 0.000
v 0.68409 -0.06100 3.51382 0.000 0.643 0.000
v 0.67015 -0.06100 3.51382 0.000 0.643 0.000
v 0.68409 -0.06145 3.66170 0.000 0.643 0.000
v 0.67015 -0.06145 3.66170 0.000 0.643 0.000
v 0.67015 -0.06100 3.68618 0.000 0.643 0.000
v 0.68409 -0.06100 3.68618 0.000 0.643 0.000
v 1.36134 -0.05094 3.60000 0.000 0.643 0.000
v 1.27444 0.05913 3.61037 0.000 0.643 0.000
v 1.27444 0.06093 3.60000 0.000 0.643 0.000
v 0.74630 0.06100 3.61037 0.000 0.643 0.000
v 0.67778 0.06100 3.60000 0.000 0.643 0.000
v 0.70211 0.06100 3.63485 0.000 0.643 0.000
v 0.74630 0.06100 3.58963 0.000 0.643 0.000
v 1.27444 0.05913 3.58963 0.000 0.643 0.000
v 0.70211 0.06100 3.56515 0.000 0.643 0.000
v 0.65791 0.06100 3.56515 0.000 0.643 0.000
v 0.62392 0.06100 3.58963 0.000 0.643 0.000
v 0.48245 0.06100 3.60000 0.000 0.643 0.000
v 0.48301 0.06100 3.58963 0.000 0.643 0.000
v 0.62392 0.06100 3.61037 0.000 0.643 0.000
v 0.65791 0.06100 3.63485 0.000 0.643 0.000
v 0.48301 0.06100 3.61037 0.000 0.643 0.000
v 0.68409 0.06100 3.53830 0.000 0.643 0.000
v 0.67015 0.06100 3.53830 0.000 0.643 0.000
v 0.67015 0.06100 3.51382 0.000 0.643 0.000
v 0.68409 0.06100 3.51382 0.000 0.643 0.000
v 0.68409 0.06100 3.66170 0.000 0.643 0.000
v 0.67015 0.06100 3.66170 0.000 0.643 0.000
v 0.68409 0.06100 3.68618 0.000 0.643 0.000
v 0.67015 0.06100 3.68618 0.000 0.643 0.000
v 1.36134 0.05094 3.60000 0.000 0.643 0.000
v -0.45557 -0.08636 3.60000 0.929 0.000 0.000
v -0.45557 0.00000 3.60000 0.929 0.000 0.000
v -0.50184 0.00000 3.47519 0.929 0.000 0.000
v -0.50184 0.00000 3.72481 0.929 0.000 0.000
v -0.45557 0.08636 3.60000 0.929 0.000 0.000
v 0.20008 0.00000 3.60000 0.929 0.000 0.000
v 0.20008 -0.08761 3.60000 0.929 0.000 0.000
v 0.23732 0.00000 3.65060 0.929 0.000 0.000
v 0.23732 -0.07310 3.65060 0.929 0.000 0.000
v 0.20730 0.00000 3.75689 0.929 0.000 0.000
v 0.23732 0.00000 3.54940 0.929 0.000 0.000
v 0.23732 -0.07310 3.54940 0.929 0.000 0.000
v 0.20730 0.00000 3.44311 0.929 0.000 0.000
v 0.20008 0.08761 3.60000 0.929 0.000 0.000
v 0.23732 0.07310 3.65060 0.929 0.000 0.000
v 0.23732 0.07310 3.54940 0.902 0.000 0.000
v 0.20008 -0.08761 3.60000 0.800 0.000 0.000
v 0.35403 -0.05445 3.60000 0.851 0.000 0.000
v 0.23732 -0.07310 3.65060 0.831 0.000 0.000
v 0.33178 0.00000 3.68408 0.902 0.000 0.000
v 0.20730 0.00000 3.75689 0.851 0.000 0.000
v 0.23732 -0.07310 3.54940 0.831 0.000 0.000
v 0.33178 0.00000 3.51592 0.902 0.000 0.000
v 0.20730 0.00000 3.44311 0.851 0.000 0.000
v 0.23732 0.07310 3.65060 0.831 0.000 0.000
v 0.35403 0.05445 3.60000 0.851 0.000 0.000
v 0.20008 0.08761 3.60000 0.800 0.000 0.000
v 0.23732 0.07310 3.54940 0.902 0.000 0.000
v 0.67165 -0.05909 3.70417 0.796 0.000 0.000
v 1.06561 -0.05909 3.63463 0.796 0.000 0.000
v 0.68388 -0.03029 3.74549 0.796 0.000 0.000
v 1.08755 -0.03096 3.65839 0.796 0.000 0.000
v 1.27444 -0.05913 3.61037 0.796 0.000 0.000
v 0.67165 -0.05909 3.49583 0.796 0.000 0.000
v 0.68388 -0.03029 3.45451 0.796 0.000 0.000
v 1.06561 -0.05909 3.56537 0.796 0.000 0.000
v 1.08755 -0.03096 3.54161 0.796 0.000 0.000
v 1.27444 -0.05913 3.58963 0.796 0.000 0.000
v 1.12482 -0.03096 3.53540 0.796 0.000 0.000
v 1.09625 -0.03096 3.49564 0.796 0.000 0.000
v 1.31121 -0.03096 3.56521 0.796 0.000 0.000
v 1.42552 -0.03096 3.57392 0.796 0.000 0.000
v 1.08755 -0.03029 3.54161 0.796 0.000 0.000
v 1.36134 -0.05094 3.60000 0.796 0.000 0.000
v 1.60197 -0.03096 3.60000 0.796 0.000 0.000
v 1.42552 -0.03096 3.62608 0.796 0.000 0.000
v 1.38079 -0.03096 3.65839 0.796 0.000 0.000
v 1.27444 -0.05913 3.61037 0.796 0.000 0.000
v 1.31121 -0.03096 3.63479 0.796 0.000 0.000
v 1.09625 -0.03096 3.70436 0.796 0.000 0.000
v 1.12482 -0.03096 3.66460 0.796 0.000 0.000
v 1.08755 -0.03029 3.65839 0.796 0.000 0.000
v 1.38079 -0.03096 3.54161 0.796 0.000 0.000
v 0.67165 0.05909 3.70417 0.796 0.000 0.000
v 0.68388 0.03029 3.74549 0.796 0.000 0.000
v 1.06561 0.05909 3.63463 0.796 0.000 0.000
v 1.08755 0.03096 3.65839 0.796 0.000 0.000
v 1.27444 0.05913 3.61037 0.796 0.000 0.000
v 0.67165 0.05909 3.49583 0.796 0.000 0.000
v 1.06561 0.05909 3.56537 0.796 0.000 0.000
v 0.68388 0.03029 3.45451 0.796 0.000 0.000
v 1.08755 0.03029 3.54161 0.796 0.000 0.000
v 1.27444 0.05913 3.58963 0.796 0.000 0.000
v 1.31121 0.03096 3.56521 0.796 0.000 0.000
v 1.09625 0.03096 3.49564 0.796 0.000 0.000
v 1.12482 0.03096 3.53540 0.796 0.000 0.000
v 1.42552 0.03096 3.57392 0.796 0.000 0.000
v 1.08755 0.03096 3.54161 0.796 0.000 0.000
v 1.36134 0.05094 3.60000 0.796 0.000 0.000
v 1.60197 0.03096 3.60000 0.796 0.000 0.000
v 1.42552 0.03096 3.62608 0.796 0.000 0.000
v 1.38079 0.03096 3.65839 0.796 0.000 0.000
v 1.27444 0.05913 3.61037 0.796 0.000 0.000
v 1.31121 0.03096 3.63479 0.796 0.000 0.000
v 1.09625 0.03096 3.70436 0.796 0.000 0.000
v 1.12482 0.03096 3.66460 0.796 0.000 0.000
v 1.08755 0.03029 3.65839 0.796 0.000 0.000
v 1.38079 0.03096 3.54161 0.796 0.000 0.000
v -0.60667 -0.08626 3.60000 0.902 0.000 0.000
v -0.56943 -0.06230 3.54940 0.824 0.000 0.000
v -0.43000 -0.06448 3.60000 0.796 0.000 0.000
v -0.43000 0.00000 3.56411 0.902 0.000 0.000
v -0.56947 0.00000 3.49879 0.851 0.000 0.000
v -0.56943 -0.06230 3.65060 0.824 0.000 0.000
v -0.43000 0.00000 3.63589 0.902 0.000 0.000
v -0.56947 0.00000 3.70121 0.851 0.000 0.000
v -0.56943 0.06230 3.54940 0.824 0.000 0.000
v -0.43000 0.06448 3.60000 0.796 0.000 0.000
v -0.60667 0.08626 3.60000 0.902 0.000 0.000
v -0.56943 0.06230 3.65060 0.824 0.000 0.000
v -0.56947 0.00000 3.49879 0.929 0.000 0.000
v -0.56943 -0.06230 3.54940 0.929 0.000 0.000
v -0.56943 0.00000 3.54940 0.929 0.000 0.000
v -0.60667 -0.08626 3.60000 0.902 0.000 0.000
v -0.60667 0.00000 3.60000 0.902 0.000 0.000
v -0.56943 0.00000 3.65060 0.929 0.000 0.000
v -0.56943 -0.06230 3.65060 0.929 0.000 0.000
v -0.56947 0.00000 3.70121 0.929 0.000 0.000
v -0.56943 0.06230 3.54940 0.929 0.000 0.000
v -0.60667 0.08626 3.60000 0.902 0.000 0.000
v -0.56943 0.06230 3.65060 0.929 0.000 0.000
v -0.73547 0.00000 3.65103 0.902 0.000 0.000
v -0.80463 0.00000 3.60000 0.902 0.000 0.000
v -0.63397 -0.07474 3.60000 0.843 0.000 0.000
v -0.77480 0.00000 3.74141 0.902 0.000 0.000
v -0.66997 0.00000 3.69070 0.902 0.000 0.000
v -0.62028 0.00000 3.73003 0.902 0.000 0.000
v -0.60468 0.00000 3.66509 0.902 0.000 0.000
v -0.55346 0.00000 3.65164 0.851 0.000 0.000
v -0.53606 -0.05078 3.60000 0.851 0.000 0.000
v -0.73547 0.00000 3.54897 0.902 0.000 0.000
v -0.77480 0.00000 3.45859 0.902 0.000 0.000
v -0.66997 0.00000 3.50930 0.902 0.000 0.000
v -0.62028 0.00000 3.46997 0.902 0.000 0.000
v -0.60468 0.00000 3.53491 0.902 0.000 0.000
v -0.55346 0.00000 3.54836 0.851 0.000 0.000
v -0.63397 0.07474 3.60000 0.843 0.000 0.000
v -0.53606 0.05078 3.60000 0.851 0.000 0.000
v -0.50184 0.00000 3.47519 0.875 0.000 0.000
v -0.27882 0.00000 3.52274 0.886 0.000 0.000
v -0.45557 -0.08636 3.60000 0.800 0.000 0.000
v -0.05580 -0.05798 3.60000 0.843 0.000 0.000
v -0.05580 0.00000 3.54202 0.902 0.000 0.000
v -0.27882 0.00000 3.67726 0.886 0.000 0.000
v -0.50184 0.00000 3.72481 0.875 0.000 0.000
v -0.05580 0.00000 3.65798 0.902 0.000 0.000
v 0.24905 0.00000 3.52982 0.000 0.000 0.902
v 0.24905 -0.07018 3.60000 0.000 0.000 0.800
v 0.24905 0.00000 3.67018 0.000 0.000 0.902
v -0.05580 0.05798 3.60000 0.843 0.000 0.000
v -0.46020 0.07772 3.61247 0.808 0.000 0.000
v 0.24905 0.07018 3.60000 0.000 0.000 0.800
v -0.45557 0.08636 3.60000 0.800 0.000 0.000
v 0.40328 -0.02846 3.83013 0.851 0.000 0.000
v 0.20637 0.00000 3.94499 0.902 0.000 0.000
v 0.29478 -0.04347 3.79481 0.902 0.000 0.000
v 0.39742 -0.03760 3.80317 0.851 0.000 0.000
v 0.37984 -0.06482 3.70705 0.851 0.000 0.000
v 0.45837 -0.06482 3.79028 0.851 0.000 0.000
v 0.47255 -0.06482 3.67709 0.851 0.000 0.000
v 0.44700 -0.06482 3.60000 0.851 0.000 0.000
v 0.34936 -0.06482 3.60000 0.851 0.000 0.000
v 0.30131 -0.06482 3.72346 0.902 0.000 0.000
v 0.55565 -0.05751 3.77737 0.800 0.000 0.000
v 0.57126 -0.06482 3.68786 0.800 0.000 0.000
v 0.68388 -0.04966 3.74549 0.800 0.000 0.000
v 0.56034 -0.04966 3.81958 0.800 0.000 0.000
v 0.52869 -0.04480 3.84536 0.800 0.000 0.000
v 0.45837 -0.05717 3.84770 0.851 0.000 0.000
v 0.57441 -0.02700 3.91334 0.800 0.000 0.000
v 0.29427 -0.04516 3.95437 0.902 0.000 0.000
v 0.32592 0.00000 4.04696 0.902 0.000 0.000
v 0.15714 0.00000 4.15246 0.902 0.000 0.000
v 0.69396 0.00000 3.96725 0.800 0.000 0.000
v 0.37984 -0.06482 3.49294 0.851 0.000 0.000
v 0.30131 -0.06482 3.47654 0.902 0.000 0.000
v 0.47255 -0.06482 3.52291 0.851 0.000 0.000
v 0.45837 -0.06482 3.40972 0.851 0.000 0.000
v 0.55565 -0.05751 3.42263 0.800 0.000 0.000
v 0.57126 -0.06482 3.51214 0.800 0.000 0.000
v 0.68388 -0.04966 3.45451 0.800 0.000 0.000
v 0.56034 -0.04966 3.38042 0.800 0.000 0.000
v 0.52869 -0.04480 3.35464 0.800 0.000 0.000
v 0.45837 -0.05717 3.35230 0.851 0.000 0.000
v 0.57441 -0.02700 3.28666 0.800 0.000 0.000
v 0.29427 -0.04516 3.24563 0.902 0.000 0.000
v 0.32592 0.00000 3.15304 0.902 0.000 0.000
v 0.15714 0.00000 3.04754 0.902 0.000 0.000
v 0.69396 0.00000 3.23275 0.800 0.000 0.000
v 0.39742 -0.03760 3.39683 0.851 0.000 0.000
v 0.29478 -0.04347 3.40519 0.902 0.000 0.000
v 0.40328 -0.02846 3.36987 0.851 0.000 0.000
v 0.20637 0.00000 3.25501 0.902 0.000 0.000
v 0.29427 0.04516 3.24563 0.902 0.000 0.000
v 0.57441 0.02700 3.28666 0.800 0.000 0.000
v 0.45837 0.05717 3.35230 0.851 0.000 0.000
v 0.52869 0.04480 3.35464 0.800 0.000 0.000
v 0.45837 0.06482 3.40972 0.851 0.000 0.000
v 0.55565 0.05751 3.42263 0.800 0.000 0.000
v 0.47255 0.06482 3.52291 0.851 0.000 0.000
v 0.57126 0.06482 3.51214 0.800 0.000 0.000
v 0.68388 0.04966 3.45451 0.800 0.000 0.000
v 0.56034 0.04966 3.38042 0.800 0.000 0.000
v 0.37984 0.06482 3.49294 0.851 0.000 0.000
v 0.44700 0.06482 3.60000 0.851 0.000 0.000
v 0.34936 0.06482 3.60000 0.851 0.000 0.000
v 0.37984 0.06482 3.70705 0.851 0.000 0.000
v 0.30131 0.06482 3.72346 0.902 0.000 0.000
v 0.47255 0.06482 3.67709 0.851 0.000 0.000
v 0.45837 0.06482 3.79028 0.851 0.000 0.000
v 0.55565 0.05751 3.77737 0.800 0.000 0.000
v 0.57126 0.06482 3.68786 0.800 0.000 0.000
v 0.68388 0.04966 3.74549 0.800 0.000 0.000
v 0.56034 0.04966 3.81958 0.800 0.000 0.000
v 0.52869 0.04480 3.84536 0.800 0.000 0.000
v 0.45837 0.05717 3.84770 0.851 0.000 0.000
v 0.57441 0.02700 3.91334 0.800 0.000 0.000
v 0.29427 0.04516 3.95437 0.902 0.000 0.000
v 0.39742 0.03760 3.80317 0.851 0.000 0.000
v 0.29478 0.04347 3.79481 0.902 0.000 0.000
v 0.40328 0.02846 3.83013 0.851 0.000 0.000
v 0.40328 0.02846 3.36987 0.851 0.000 0.000
v 0.29478 0.04347 3.40519 0.902 0.000 0.000
v 0.39742 0.03760 3.39683 0.851 0.000 0.000
v 0.30131 0.06482 3.47654 0.902 0.000 0.000
v 0.82825 -0.02993 3.47873 0.000 0.851 0.000
v 0.95955 -0.02993 3.45064 0.000 0.851 0.000
v 1.05495 -0.02993 3.60000 0.000 0.851 0.000
v 0.60159 -0.02993 3.60000 0.000 0.851 0.000
v 0.69993 -0.02993 3.45204 0.000 0.851 0.000
v 0.59921 -0.02993 3.43998 0.000 0.851 0.000
v 0.82825 -0.02993 3.72127 0.000 0.851 0.000
v 0.95955 -0.02993 3.74936 0.000 0.851 0.000
v 0.69993 -0.02993 3.74796 0.000 0.851 0.000
v 0.59921 -0.02993 3.76002 0.000 0.851 0.000
v 1.47933 -0.02993 3.50118 0.000 0.851 0.000
v 1.47779 -0.02993 3.60000 0.000 0.851 0.000
v 0.97384 -0.02993 3.39991 0.000 0.851 0.000
v 1.47933 -0.02993 3.69882 0.000 0.851 0.000
v 0.97384 -0.02993 3.80009 0.000 0.851 0.000
v 1.75115 -0.02993 3.60000 0.000 0.851 0.000
v 1.62744 -0.02993 3.49015 0.000 0.851 0.000
v 1.75067 -0.02993 3.53426 0.000 0.851 0.000
v 1.89094 -0.02993 3.55158 0.000 0.851 0.000
v 2.12177 -0.02513 3.60000 0.000 0.851 0.000
v 1.92720 -0.02993 3.50399 0.000 0.851 0.000
v 2.12248 -0.02513 3.54809 0.000 0.851 0.000
v 1.89094 -0.02993 3.64842 0.000 0.851 0.000
v 1.75067 -0.02993 3.66574 0.000 0.851 0.000
v 1.92720 -0.02993 3.69601 0.000 0.851 0.000
v 2.12248 -0.02513 3.65191 0.000 0.851 0.000
v 2.26146 -0.01949 3.60000 0.000 0.851 0.000
v 1.70678 -0.02993 3.48089 0.000 0.851 0.000
v 1.63055 -0.02993 3.44952 0.000 0.851 0.000
v 1.62744 -0.02993 3.70985 0.000 0.851 0.000
v 1.70678 -0.02993 3.71911 0.000 0.851 0.000
v 1.63055 -0.02993 3.75048 0.000 0.851 0.000
v 0.82825 0.02993 3.47873 0.000 0.851 0.000
v 0.60159 0.02993 3.60000 0.000 0.851 0.000
v 1.05495 0.02993 3.60000 0.000 0.851 0.000
v 0.95955 0.02993 3.45064 0.000 0.851 0.000
v 0.69993 0.02993 3.45204 0.000 0.851 0.000
v 0.59921 0.02993 3.43998 0.000 0.851 0.000
v 0.82825 0.02993 3.72127 0.000 0.851 0.000
v 0.95955 0.02993 3.74936 0.000 0.851 0.000
v 0.69993 0.02993 3.74796 0.000 0.851 0.000
v 0.59921 0.02993 3.76002 0.000 0.851 0.000
v 1.47933 0.02993 3.50118 0.000 0.851 0.000
v 1.47779 0.02993 3.60000 0.000 0.851 0.000
v 0.97384 0.02993 3.39991 0.000 0.851 0.000
v 1.47933 0.02993 3.69882 0.000 0.851 0.000
v 0.97384 0.02993 3.80009 0.000 0.851 0.000
v 1.75115 0.02993 3.60000 0.000 0.851 0.000
v 1.62744 0.02993 3.49015 0.000 0.851 0.000
v 1.75067 0.02993 3.53426 0.000 0.851 0.000
v 1.89094 0.02993 3.55158 0.000 0.851 0.000
v 2.12177 0.02513 3.60000 0.000 0.851 0.000
v 1.92720 0.02993 3.50399 0.000 0.851 0.000
v 2.12248 0.02513 3.54809 0.000 0.851 0.000
v 1.89094 0.02993 3.64842 0.000 0.851 0.000
v 1.75067 0.02993 3.66574 0.000 0.851 0.000
v 1.92720 0.02993 3.69601 0.000 0.851 0.000
v 2.12248 0.02513 3.65191 0.000 0.851 0.000
v 2.26146 0.01949 3.60000 0.000 0.851 0.000
v 1.70678 0.02993 3.48089 0.000 0.851 0.000
v 1.63055 0.02993 3.44952 0.000 0.851 0.000
v 1.62744 0.02993 3.70985 0.000 0.851 0.000
v 1.70678 0.02993 3.71911 0.000 0.851 0.000
v 1.63055 0.02993 3.75048 0.000 0.851 0.000
v 0.57441 0.02700 3.91334 0.902 0.000 0.000
v 0.69396 0.00000 3.96725 0.902 0.000 0.000
v 0.57441 0.00000 3.91334 0.902 0.000 0.000
v 0.52869 0.04480 3.84536 0.902 0.000 0.000
v 0.52869 -0.04480 3.84536 0.902 0.000 0.000
v 0.57441 -0.02700 3.91334 0.902 0.000 0.000
v 0.69396 0.00000 3.96725 0.902 0.000 0.000
v 0.55565 0.05751 3.77737 0.902 0.000 0.000
v 0.55565 -0.05751 3.77737 0.902 0.000 0.000
v 0.56034 0.04966 3.81958 0.902 0.000 0.000
v 0.56034 -0.04966 3.81958 0.902 0.000 0.000
v 0.68388 0.04966 3.74549 0.902 0.000 0.000
v 0.68388 -0.04966 3.74549 0.902 0.000 0.000
v 0.57126 0.06482 3.68786 0.902 0.000 0.000
v 0.57126 -0.06482 3.68786 0.902 0.000 0.000
v 0.47255 0.06482 3.67709 0.902 0.000 0.000
v 0.47255 -0.06482 3.67709 0.902 0.000 0.000
v 0.44700 0.06482 3.60000 0.902 0.000 0.000
v 0.44700 -0.06482 3.60000 0.902 0.000 0.000
v 0.47255 -0.06482 3.52291 0.902 0.000 0.000
v 0.47255 0.06482 3.52291 0.902 0.000 0.000
v 0.57126 -0.06482 3.51214 0.902 0.000 0.000
v 0.57126 0.06482 3.51214 0.902 0.000 0.000
v 0.68388 -0.04966 3.45451 0.902 0.000 0.000
v 0.68388 0.04966 3.45451 0.902 0.000 0.000
v 0.56034 -0.04966 3.38042 0.902 0.000 0.000
v 0.56034 0.04966 3.38042 0.902 0.000 0.000
v 0.55565 -0.05751 3.42263 0.902 0.000 0.000
v 0.55565 0.05751 3.42263 0.902 0.000 0.000
v 0.52869 -0.04480 3.35464 0.902 0.000 0.000
v 0.52869 0.04480 3.35464 0.902 0.000 0.000
v 0.57441 0.00000 3.28666 0.902 0.000 0.000
v 0.57441 0.02700 3.28666 0.902 0.000 0.000
v 0.69396 0.00000 3.23275 0.902 0.000 0.000
v 0.57441 -0.02700 3.28666 0.902 0.000 0.000
v 0.69396 0.00000 3.23275 0.902 0.000 0.000
v 0.48245 -0.06100 3.60000 0.894 0.000 0.000
v 0.44700 -0.04619 3.60000 0.894 0.000 0.000
v 0.48510 -0.05909 3.55628 0.894 0.000 0.000
v 0.47255 -0.04619 3.52291 0.894 0.000 0.000
v 0.57126 -0.03893 3.51214 0.796 0.000 0.000
v 0.57890 -0.05909 3.53543 0.796 0.000 0.000
v 0.67165 -0.05909 3.49583 0.851 0.000 0.000
v 0.68388 -0.03029 3.45451 0.851 0.000 0.000
v 0.48245 -0.06194 3.60000 0.894 0.000 0.000
v 0.48510 -0.05909 3.64372 0.894 0.000 0.000
v 0.47255 -0.04619 3.67709 0.894 0.000 0.000
v 0.57126 -0.03893 3.68786 0.796 0.000 0.000
v 0.57890 -0.05909 3.66457 0.796 0.000 0.000
v 0.67165 -0.05909 3.70417 0.851 0.000 0.000
v 0.68388 -0.03029 3.74549 0.851 0.000 0.000
v 0.48245 0.06100 3.60000 0.894 0.000 0.000
v 0.48510 0.05909 3.55628 0.894 0.000 0.000
v 0.44700 0.04619 3.60000 0.894 0.000 0.000
v 0.47255 0.04619 3.52291 0.894 0.000 0.000
v 0.57126 0.03893 3.51214 0.796 0.000 0.000
v 0.57890 0.05909 3.53543 0.796 0.000 0.000
v 0.67165 0.05909 3.49583 0.851 0.000 0.000
v 0.68388 0.03029 3.45451 0.851 0.000 0.000
v 0.48245 0.06194 3.60000 0.894 0.000 0.000
v 0.48510 0.05909 3.64372 0.894 0.000 0.000
v 0.47255 0.04619 3.67709 0.894 0.000 0.000
v 0.57126 0.03893 3.68786 0.796 0.000 0.000
v 0.57890 0.05909 3.66457 0.796 0.000 0.000
v 0.67165 0.05909 3.70417 0.851 0.000 0.000
v 0.68388 0.03029 3.74549 0.851 0.000 0.000
v 0.29478 0.04347 3.79481 0.925 0.000 0.000
v 0.29478 -0.04347 3.79481 0.925 0.000 0.000
v 0.20637 0.00000 3.94499 0.925 0.000 0.000
v 0.37984 -0.06482 3.70705 0.925 0.000 0.000
v 0.37984 0.06482 3.70705 0.925 0.000 0.000
v 0.30131 -0.06482 3.72346 0.925 0.000 0.000
v 0.30131 0.06482 3.72346 0.925 0.000 0.000
v 0.34936 -0.06482 3.60000 0.925 0.000 0.000
v 0.34936 0.06482 3.60000 0.925 0.000 0.000
v 0.30131 0.06482 3.47654 0.925 0.000 0.000
v 0.30131 -0.06482 3.47654 0.925 0.000 0.000
v 0.37984 0.06482 3.49294 0.925 0.000 0.000
v 0.37984 -0.06482 3.49294 0.925 0.000 0.000
v 0.29478 0.04347 3.40519 0.925 0.000 0.000
v 0.29478 -0.04347 3.40519 0.925 0.000 0.000
v 0.20637 0.00000 3.25501 0.925 0.000 0.000
v 0.20637 0.00000 3.94499 0.925 0.000 0.000
v 0.40328 -0.02846 3.83013 0.925 0.000 0.000
v 0.40328 0.02846 3.83013 0.925 0.000 0.000
v 0.39742 0.03760 3.80317 0.925 0.000 0.000
v 0.39742 -0.03760 3.80317 0.925 0.000 0.000
v 0.45837 0.06482 3.79028 0.925 0.000 0.000
v 0.45837 -0.06482 3.79028 0.925 0.000 0.000
v 0.45837 0.05717 3.84770 0.925 0.000 0.000
v 0.45837 -0.05717 3.84770 0.925 0.000 0.000
v 0.29427 0.00000 3.95437 0.925 0.000 0.000
v 0.29427 -0.04516 3.95437 0.925 0.000 0.000
v 0.15714 0.00000 4.15246 0.925 0.000 0.000
v 0.29427 0.04516 3.95437 0.925 0.000 0.000
v 0.15714 0.00000 4.15246 0.925 0.000 0.000
v 0.20637 0.00000 3.25501 0.925 0.000 0.000
v 0.40328 0.02846 3.36987 0.925 0.000 0.000
v 0.40328 -0.02846 3.36987 0.925 0.000 0.000
v 0.39742 0.03760 3.39683 0.925 0.000 0.000
v 0.39742 -0.03760 3.39683 0.925 0.000 0.000
v 0.45837 0.06482 3.40972 0.925 0.000 0.000
v 0.45837 -0.06482 3.40972 0.925 0.000 0.000
v 0.45837 0.05717 3.35230 0.925 0.000 0.000
v 0.45837 -0.05717 3.35230 0.925 0.000 0.000
v 0.29427 0.00000 3.24563 0.925 0.000 0.000
v 0.29427 0.04516 3.24563 0.925 0.000 0.000
v 0.15714 0.00000 3.04754 0.925 0.000 0.000
v 0.29427 -0.04516 3.24563 0.925 0.000 0.000
v 0.15714 0.00000 3.04754 0.925 0.000 0.000
vt 0.00609 0.00830
vt 0.00839 0.04724
vt 0.51101 0.00830
vt 0.08960 0.06581
vt 0.51101 0.03915
vt 0.16991 0.10109
vt 0.69182 0.00785
vt 0.00839 0.04721
vt 0.08960 0.06578
vt 0.51101 0.03911
vt 0.16991 0.10106
vt 0.69182 0.00781
vt 0.00609 0.00830
vt 0.51101 0.00830
vt 0.00839 0.04724
vt 0.08960 0.06581
vt 0.51101 0.03915
vt 0.16991 0.10109
vt 0.69182 0.00785
vt 0.00839 0.04721
vt 0.08960 0.06578
vt 0.51101 0.03911
vt 0.16991 0.10106
vt 0.69182 0.00781
vt 0.78617 0.76991
vt 0.78615 0.88292
vt 0.99226 0.76991
vt 0.99224 0.88292
vt 0.78615 0.88292
vt 0.99224 0.88292
vt 0.50475 0.88292
vt 0.50473 0.76991
vt 0.00955 0.76991
vt 0.00957 0.88292
vt 0.60185 0.76991
vt 0.60187 0.88292
vt 0.65632 0.88292
vt 0.65630 0.76991
vt 0.50475 0.88292
vt 0.00957 0.88292
vt 0.60187 0.88292
vt 0.65632 0.88292
vt 0.67878 0.76974
vt 0.67874 0.88275
vt 0.99273 0.76974
vt 0.99269 0.88275
vt 0.67946 0.88275
vt 0.67951 0.76974
vt 0.99266 0.77014
vt 0.99266 0.88315
vt 0.67871 0.88315
vt 0.67871 0.77014
vt 0.67874 0.88275
vt 0.99269 0.88275
vt 0.67946 0.88275
vt 0.67871 0.88315
vt 0.99266 0.88315
vt 0.78615 0.77031
vt 0.99223 0.77031
vt 0.78615 0.88332
vt 0.99223 0.88332
vt 0.78615 0.88332
vt 0.99223 0.88332
vt 0.50477 0.88332
vt 0.00958 0.88332
vt 0.00958 0.77031
vt 0.50477 0.77031
vt 0.60189 0.77031
vt 0.60189 0.88332
vt 0.65633 0.88332
vt 0.65633 0.77031
vt 0.50477 0.88332
vt 0.00958 0.88332
vt 0.60189 0.88332
vt 0.65633 0.88332
vt 0.68047 0.77031
vt 0.77569 0.77031
vt 0.68047 0.88332
vt 0.77569 0.88332
vt 0.84727 0.77031
vt 0.84727 0.88332
vt 0.91925 0.88332
vt 0.91925 0.77031
vt 0.99188 0.88332
vt 0.99188 0.77031
vt 0.68047 0.88332
vt 0.77569 0.88332
vt 0.84727 0.88332
vt 0.91925 0.88332
vt 0.99188 0.88332
vt 0.67732 0.77031
vt 0.80150 0.77031
vt 0.67732 0.88332
vt 0.80150 0.88332
vt 0.90289 0.77031
vt 0.90289 0.88332
vt 0.99220 0.88332
vt 0.99220 0.77031
vt 0.67732 0.88332
vt 0.80150 0.88332
vt 0.90289 0.88332
vt 0.99220 0.88332
vt 0.68044 0.76991
vt 0.68046 0.88292
vt 0.77565 0.76991
vt 0.77567 0.88292
vt 0.84724 0.76991
vt 0.84725 0.88292
vt 0.91923 0.88292
vt 0.91921 0.76991
vt 0.99186 0.88292
vt 0.99184 0.76991
vt 0.68046 0.88292
vt 0.77567 0.88292
vt 0.84725 0.88292
vt 0.91923 0.88292
vt 0.99186 0.88292
vt 0.67728 0.76991
vt 0.67730 0.88292
vt 0.80145 0.76991
vt 0.80148 0.88292
vt 0.90285 0.76991
vt 0.90287 0.88292
vt 0.99218 0.88292
vt 0.99215 0.76991
vt 0.67730 0.88292
vt 0.80148 0.88292
vt 0.90287 0.88292
vt 0.99218 0.88292
vt 0.09423 0.46880
vt 0.68049 0.46880
vt 0.09107 0.43021
vt 0.76533 0.42974
vt 0.68049 0.47747
vt 0.68049 0.46880
vt 0.09423 0.46880
vt 0.68049 0.47747
vt 0.81632 0.47976
vt 0.81632 0.46880
vt 0.98744 0.42958
vt 0.98744 0.46880
vt 0.81632 0.46880
vt 0.81632 0.47976
vt 0.98744 0.46880
vt 0.68049 0.49820
vt 0.82653 0.49668
vt 0.68049 0.51779
vt 0.82653 0.51779
vt 0.68049 0.49820
vt 0.82653 0.49668
vt 0.82653 0.51779
vt 0.68049 0.51779
vt 0.00298 0.46880
vt 0.09423 0.46880
vt 0.09107 0.43021
vt 0.68049 0.46880
vt 0.76533 0.42974
vt 0.68049 0.47747
vt 0.68049 0.46880
vt 0.09423 0.46880
vt 0.68049 0.47747
vt 0.81632 0.47976
vt 0.81632 0.46880
vt 0.98744 0.42958
vt 0.98744 0.46880
vt 0.81632 0.46880
vt 0.81632 0.47976
vt 0.98744 0.46880
vt 0.68049 0.49820
vt 0.82653 0.49668
vt 0.82653 0.51779
vt 0.68049 0.51779
vt 0.68049 0.49820
vt 0.82653 0.49668
vt 0.68049 0.51779
vt 0.82653 0.51779
vt 0.00298 0.46880
vt 0.86210 0.54010
vt 0.99827 0.54010
vt 0.86210 0.54010
vt 0.86210 0.54010
vt 0.86210 0.54010
vt 0.52354 0.11422
vt 0.45974 0.11422
vt 0.52354 0.17672
vt 0.45974 0.17672
vt 0.45974 0.23922
vt 0.52354 0.17672
vt 0.45974 0.17672
vt 0.45974 0.23922
vt 0.45974 0.11422
vt 0.45974 0.17672
vt 0.45974 0.17672
vt 0.44438 0.11422
vt 0.29976 0.11422
vt 0.44438 0.17672
vt 0.29976 0.23922
vt 0.44438 0.23922
vt 0.44438 0.17672
vt 0.29976 0.23922
vt 0.44438 0.23922
vt 0.44438 0.17672
vt 0.29976 0.11422
vt 0.44438 0.11422
vt 0.44438 0.17672
vt 0.73048 0.89720
vt 0.39765 0.89720
vt 0.73048 0.99889
vt 0.38169 0.99889
vt 0.24574 0.90060
vt 0.73048 0.89720
vt 0.73048 0.99889
vt 0.39765 0.89720
vt 0.38169 0.99889
vt 0.24574 0.90060
vt 0.35213 0.99390
vt 0.21103 0.99382
vt 0.21103 0.94692
vt 0.16413 0.94692
vt 0.38169 0.99889
vt 0.19858 0.90344
vt 0.00749 0.99152
vt 0.16413 0.94692
vt 0.16413 0.99152
vt 0.24574 0.90060
vt 0.21103 0.94692
vt 0.21103 0.99376
vt 0.35213 0.99390
vt 0.38169 0.99889
vt 0.16413 0.99152
vt 0.73048 0.89720
vt 0.73048 0.99889
vt 0.39765 0.89720
vt 0.38169 0.99889
vt 0.24574 0.90060
vt 0.73048 0.89720
vt 0.39765 0.89720
vt 0.73048 0.99889
vt 0.38169 0.99889
vt 0.24574 0.90060
vt 0.21103 0.94692
vt 0.21103 0.99382
vt 0.35213 0.99390
vt 0.16413 0.94692
vt 0.38169 0.99889
vt 0.19858 0.90344
vt 0.00749 0.99152
vt 0.16413 0.94692
vt 0.16413 0.99152
vt 0.24574 0.90060
vt 0.21103 0.94692
vt 0.21103 0.99376
vt 0.35213 0.99390
vt 0.38169 0.99889
vt 0.16413 0.99152
vt 0.44436 0.11434
vt 0.44436 0.17684
vt 0.29974 0.11434
vt 0.29974 0.23934
vt 0.44436 0.23934
vt 0.44436 0.17672
vt 0.29974 0.23922
vt 0.44436 0.23922
vt 0.44436 0.17684
vt 0.29974 0.11434
vt 0.44436 0.11434
vt 0.44436 0.17672
vt 0.45973 0.23934
vt 0.45973 0.17684
vt 0.52361 0.17684
vt 0.45973 0.11422
vt 0.52361 0.11422
vt 0.52361 0.17672
vt 0.45973 0.17672
vt 0.45973 0.23922
vt 0.45973 0.17684
vt 0.45973 0.11422
vt 0.45973 0.17672
vt 0.30604 0.16869
vt 0.30604 0.11454
vt 0.11031 0.11454
vt 0.30604 0.24290
vt 0.15382 0.24290
vt 0.09376 0.24290
vt 0.00248 0.24290
vt 0.00248 0.16936
vt 0.00248 0.11454
vt 0.30604 0.16869
vt 0.30604 0.24290
vt 0.15382 0.24290
vt 0.09376 0.24290
vt 0.00248 0.24290
vt 0.00248 0.16936
vt 0.11031 0.11454
vt 0.00248 0.11454
vt 0.99420 0.68226
vt 0.71191 0.68226
vt 0.99420 0.75726
vt 0.42961 0.75726
vt 0.42961 0.68226
vt 0.71191 0.68226
vt 0.99420 0.68226
vt 0.42961 0.68226
vt 0.00752 0.68226
vt 0.00752 0.75726
vt 0.00752 0.68226
vt 0.42961 0.75726
vt 0.99420 0.74976
vt 0.00752 0.75726
vt 0.99420 0.75726
vt 0.83608 0.22706
vt 0.92994 0.22706
vt 0.92994 0.16158
vt 0.83608 0.16158
vt 0.92994 0.10198
vt 0.77521 0.16158
vt 0.77521 0.06600
vt 0.77521 0.00601
vt 0.99070 0.00601
vt 0.99070 0.10198
vt 0.66298 0.16158
vt 0.66509 0.06600
vt 0.53227 0.06600
vt 0.53227 0.16158
vt 0.66298 0.22506
vt 0.77521 0.22761
vt 0.66509 0.31813
vt 0.93618 0.22761
vt 0.81574 0.41346
vt 0.93618 0.41346
vt 0.66509 0.41346
vt 0.92994 0.10198
vt 0.99070 0.10198
vt 0.77521 0.06600
vt 0.77521 0.16158
vt 0.66298 0.16158
vt 0.66509 0.06600
vt 0.53227 0.06600
vt 0.53227 0.16158
vt 0.66298 0.22506
vt 0.77521 0.22761
vt 0.66509 0.31813
vt 0.93618 0.22761
vt 0.81574 0.41346
vt 0.93618 0.41346
vt 0.66509 0.41346
vt 0.83608 0.16158
vt 0.92994 0.16158
vt 0.83608 0.22706
vt 0.92994 0.22706
vt 0.93618 0.22761
vt 0.66509 0.31813
vt 0.77521 0.22761
vt 0.66298 0.22506
vt 0.77521 0.16158
vt 0.66298 0.16158
vt 0.77521 0.06600
vt 0.66509 0.06600
vt 0.53227 0.06600
vt 0.53227 0.16158
vt 0.92994 0.10198
vt 0.77521 0.00601
vt 0.99070 0.00601
vt 0.92994 0.10198
vt 0.99070 0.10198
vt 0.77521 0.06600
vt 0.77521 0.16158
vt 0.66298 0.16158
vt 0.66509 0.06600
vt 0.53227 0.06600
vt 0.53227 0.16158
vt 0.66298 0.22506
vt 0.77521 0.22761
vt 0.66509 0.31813
vt 0.93618 0.22761
vt 0.83608 0.16158
vt 0.92994 0.16158
vt 0.83608 0.22706
vt 0.83608 0.22706
vt 0.92994 0.16158
vt 0.83608 0.16158
vt 0.99070 0.10198
vt 0.14054 0.51895
vt 0.21878 0.51397
vt 0.27563 0.64811
vt 0.00547 0.64811
vt 0.06407 0.52148
vt 0.00405 0.50984
vt 0.14054 0.51894
vt 0.21878 0.51396
vt 0.06407 0.52147
vt 0.00405 0.50983
vt 0.52852 0.54899
vt 0.52760 0.64811
vt 0.22730 0.47118
vt 0.52852 0.54898
vt 0.22730 0.47117
vt 0.69050 0.64811
vt 0.61677 0.53537
vt 0.69021 0.58798
vt 0.77380 0.61752
vt 0.91135 0.64811
vt 0.79540 0.57161
vt 0.91177 0.61415
vt 0.77380 0.61751
vt 0.69021 0.58797
vt 0.79540 0.57160
vt 0.91177 0.61414
vt 0.99459 0.64811
vt 0.65657 0.51726
vt 0.61863 0.48133
vt 0.61677 0.53536
vt 0.65657 0.51725
vt 0.61863 0.48131
vt 0.14054 0.51855
vt 0.00547 0.64771
vt 0.27563 0.64771
vt 0.21878 0.51358
vt 0.06407 0.52109
vt 0.00405 0.50945
vt 0.14054 0.51894
vt 0.21878 0.51396
vt 0.06407 0.52147
vt 0.00405 0.50983
vt 0.52852 0.54860
vt 0.52760 0.64771
vt 0.22730 0.47079
vt 0.52852 0.54898
vt 0.22730 0.47117
vt 0.69050 0.64771
vt 0.61677 0.53498
vt 0.69021 0.58758
vt 0.77380 0.61713
vt 0.91135 0.64771
vt 0.79540 0.57122
vt 0.91177 0.61375
vt 0.77380 0.61751
vt 0.69021 0.58797
vt 0.79540 0.57160
vt 0.91177 0.61414
vt 0.99459 0.64771
vt 0.65657 0.51687
vt 0.61863 0.48093
vt 0.61677 0.53536
vt 0.65657 0.51725
vt 0.61863 0.48131
vt 0.27430 0.25839
vt 0.51286 0.25839
vt 0.27430 0.33399
vt 0.13021 0.25839
vt 0.13021 0.41237
vt 0.27430 0.41237
vt 0.51286 0.41237
vt 0.00575 0.25839
vt 0.00575 0.41237
vt 0.08179 0.25839
vt 0.08179 0.41237
vt 0.34197 0.25839
vt 0.34197 0.41237
vt 0.19608 0.25839
vt 0.19608 0.41237
vt 0.09052 0.25839
vt 0.09052 0.41237
vt 0.00731 0.25839
vt 0.00731 0.41237
vt 0.09052 0.41237
vt 0.09052 0.25839
vt 0.19608 0.41237
vt 0.19608 0.25839
vt 0.34197 0.41237
vt 0.34197 0.25839
vt 0.08179 0.41237
vt 0.08179 0.25839
vt 0.00575 0.41237
vt 0.00575 0.25839
vt 0.13021 0.41237
vt 0.13021 0.25839
vt 0.27430 0.33399
vt 0.27430 0.25839
vt 0.51286 0.25839
vt 0.27430 0.41237
vt 0.51286 0.41237
vt 0.99278 0.89720
vt 0.99278 0.99889
vt 0.92235 0.89720
vt 0.92235 0.99889
vt 0.83654 0.99889
vt 0.83654 0.89720
vt 0.73048 0.89720
vt 0.73048 0.99889
vt 0.99278 0.89720
vt 0.92235 0.89720
vt 0.92235 0.99889
vt 0.83654 0.99889
vt 0.83654 0.89720
vt 0.73048 0.89720
vt 0.73048 0.99889
vt 0.99278 0.89720
vt 0.92235 0.89720
vt 0.99278 0.99889
vt 0.92235 0.99889
vt 0.83654 0.99889
vt 0.83654 0.89720
vt 0.73048 0.89720
vt 0.73048 0.99889
vt 0.99278 0.89720
vt 0.92235 0.89720
vt 0.92235 0.99889
vt 0.83654 0.99889
vt 0.83654 0.89720
vt 0.73048 0.89720
vt 0.73048 0.99889
vt 0.27417 0.25839
vt 0.27417 0.41258
vt 0.51131 0.25839
vt 0.11060 0.41258
vt 0.11060 0.25839
vt 0.22776 0.41258
vt 0.22776 0.25839
vt 0.00731 0.41258
vt 0.00731 0.25839
vt 0.22822 0.25839
vt 0.22822 0.41258
vt 0.11105 0.25839
vt 0.11105 0.41258
vt 0.27463 0.25839
vt 0.27463 0.41258
vt 0.51177 0.25839
vt 0.51131 0.41258
vt 0.14270 0.41258
vt 0.14270 0.25839
vt 0.10682 0.25839
vt 0.10682 0.41258
vt 0.00654 0.25839
vt 0.00654 0.41258
vt 0.08013 0.25839
vt 0.08013 0.41258
vt 0.40551 0.33449
vt 0.40551 0.41258
vt 0.64363 0.41258
vt 0.40551 0.25839
vt 0.64363 0.25839
vt 0.51177 0.41258
vt 0.14316 0.25839
vt 0.14316 0.41258
vt 0.10728 0.25839
vt 0.10728 0.41258
vt 0.00700 0.25839
vt 0.00700 0.41258
vt 0.08059 0.25839
vt 0.08059 0.41258
vt 0.40596 0.33449
vt 0.40596 0.25839
vt 0.64409 0.25839
vt 0.40596 0.41258
vt 0.64409 0.41258
usemtl m0
f 1/1 2/2 3/3
f 2/2 4/4 3/3
f 5/5 3/3 4/4
f 4/4 6/6 5/5
f 3/3 5/5 7/7
f 1/1 3/3 8/8
f 8/8 3/3 9/9
f 9/9 3/3 10/10
f 10/10 11/11 9/9
f 3/3 12/12 10/10
f 13/13 14/14 15/15
f 15/15 14/14 16/16
f 17/17 16/16 14/14
f 16/16 17/17 18/18
f 14/14 19/19 17/17
f 13/13 20/20 14/14
f 20/20 21/21 14/14
f 21/21 22/22 14/14
f 22/22 21/21 23/23
f 14/14 22/22 24/24
f 25/25 26/26 27/27
f 26/26 28/28 27/27
f 25/25 27/27 29/29
f 29/29 27/27 30/30
f 31/31 32/32 33/33
f 33/33 34/34 31/31
f 32/32 31/31 35/35
f 31/31 36/36 35/35
f 35/35 36/36 37/37
f 38/38 35/35 37/37
f 33/33 32/32 39/39
f 32/32 35/35 39/39
f 39/39 40/40 33/33
f 39/39 35/35 41/41
f 38/38 42/42 35/35
f 35/35 42/42 41/41
f 43/43 44/44 45/45
f 44/44 46/46 45/45
f 45/45 46/46 47/47
f 48/48 45/45 47/47
f 49/49 48/48 47/47
f 50/50 49/49 47/47
f 49/49 50/50 51/51
f 52/52 49/49 51/51
f 43/43 45/45 53/53
f 53/53 45/45 54/54
f 48/48 55/55 45/45
f 45/45 55/55 54/54
f 49/49 55/55 48/48
f 52/52 56/56 49/49
f 49/49 56/56 57/57
f 57/57 55/55 49/49
f 58/58 59/59 60/60
f 59/59 61/61 60/60
f 58/58 62/62 59/59
f 59/59 62/62 63/63
f 64/64 65/65 66/66
f 66/66 67/67 64/64
f 67/67 68/68 64/64
f 68/68 69/69 64/64
f 69/69 68/68 70/70
f 68/68 71/71 70/70
f 72/72 67/67 66/66
f 67/67 72/72 68/68
f 66/66 73/73 72/72
f 68/68 72/72 74/74
f 74/74 75/75 68/68
f 68/68 75/75 71/71
f 76/76 77/77 78/78
f 77/77 79/79 78/78
f 77/77 80/80 79/79
f 80/80 81/81 79/79
f 81/81 80/80 82/82
f 80/80 83/83 82/82
f 82/82 83/83 84/84
f 83/83 85/85 84/84
f 76/76 86/86 77/77
f 77/77 86/86 87/87
f 77/77 87/87 80/80
f 80/80 87/87 88/88
f 88/88 89/89 80/80
f 80/80 89/89 83/83
f 89/89 90/90 83/83
f 83/83 90/90 85/85
f 91/91 92/92 93/93
f 92/92 94/94 93/93
f 92/92 95/95 94/94
f 95/95 96/96 94/94
f 96/96 95/95 97/97
f 95/95 98/98 97/97
f 91/91 99/99 92/92
f 92/92 99/99 100/100
f 92/92 100/100 95/95
f 95/95 100/100 101/101
f 101/101 102/102 95/95
f 95/95 102/102 98/98
f 103/103 104/104 105/105
f 104/104 106/106 105/105
f 105/105 106/106 107/107
f 106/106 108/108 107/107
f 107/107 108/108 109/109
f 110/110 107/107 109/109
f 110/110 109/109 111/111
f 112/112 110/110 111/111
f 103/103 105/105 113/113
f 113/113 105/105 114/114
f 105/105 107/107 114/114
f 114/114 107/107 115/115
f 110/110 116/116 107/107
f 107/107 116/116 115/115
f 112/112 117/117 110/110
f 110/110 117/117 116/116
f 118/118 119/119 120/120
f 119/119 121/121 120/120
f 120/120 121/121 122/122
f 121/121 123/123 122/122
f 122/122 123/123 124/124
f 125/125 122/122 124/124
f 118/118 120/120 126/126
f 126/126 120/120 127/127
f 120/120 122/122 127/127
f 127/127 122/122 128/128
f 125/125 129/129 122/122
f 122/122 129/129 128/128
f 130/130 131/131 132/132
f 132/132 131/131 133/133
f 133/133 131/131 134/134
f 132/132 133/133 135/135
f 136/136 132/132 135/135
f 137/137 135/135 133/133
f 133/133 138/138 137/137
f 138/138 133/133 139/139
f 133/133 140/140 139/139
f 140/140 141/141 139/139
f 133/133 142/142 140/140
f 143/143 142/142 133/133
f 133/133 134/134 143/143
f 140/140 142/142 144/144
f 137/137 138/138 145/145
f 138/138 146/146 145/145
f 145/145 146/146 147/147
f 147/147 146/146 148/148
f 134/134 149/149 143/143
f 143/143 149/149 150/150
f 150/150 149/149 151/151
f 151/151 149/149 152/152
f 132/132 153/153 130/130
f 136/136 153/153 132/132
f 154/154 155/155 156/156
f 155/155 157/157 156/156
f 157/157 158/158 156/156
f 155/155 159/159 157/157
f 160/160 159/159 155/155
f 161/161 157/157 159/159
f 157/157 161/161 162/162
f 162/162 163/163 157/157
f 157/157 163/163 164/164
f 164/164 163/163 165/165
f 157/157 164/164 166/166
f 167/167 157/157 166/166
f 157/157 167/167 158/158
f 164/164 168/168 166/166
f 161/161 169/169 162/162
f 162/162 169/169 170/170
f 170/170 169/169 171/171
f 171/171 169/169 172/172
f 158/158 167/167 173/173
f 167/167 174/174 173/173
f 173/173 174/174 175/175
f 175/175 174/174 176/176
f 155/155 154/154 177/177
f 160/160 155/155 177/177
f 178/178 179/179 180/180
f 179/179 178/178 181/181
f 182/182 180/180 179/179
f 179/179 181/181 182/182
f 183/183 184/184 185/185
f 184/184 186/186 185/185
f 186/186 187/187 185/185
f 183/183 188/188 184/184
f 184/184 188/188 189/189
f 189/189 188/188 190/190
f 183/183 185/185 191/191
f 183/183 191/191 188/188
f 191/191 185/185 192/192
f 192/192 185/185 187/187
f 191/191 193/193 188/188
f 193/193 190/190 188/188
f 194/194 195/195 196/196
f 197/197 196/196 195/195
f 198/198 196/196 197/197
f 194/194 199/199 195/195
f 200/200 195/195 199/199
f 201/201 200/200 199/199
f 198/198 197/197 202/202
f 197/197 203/203 202/202
f 204/204 202/202 203/203
f 204/204 203/203 205/205
f 201/201 205/205 200/200
f 200/200 205/205 203/203
f 206/206 207/207 208/208
f 207/207 209/209 208/208
f 207/207 210/210 209/209
f 211/211 212/212 213/213
f 212/212 214/214 213/213
f 213/213 214/214 215/215
f 215/215 216/216 217/217
f 217/217 218/218 215/215
f 219/219 215/215 218/218
f 215/215 220/220 216/216
f 221/221 215/215 219/219
f 222/222 221/221 219/219
f 222/222 223/223 221/221
f 224/224 223/223 222/222
f 223/223 225/225 221/221
f 225/225 223/223 226/226
f 225/225 226/226 227/227
f 227/227 228/228 225/225
f 225/225 228/228 229/229
f 230/230 222/222 219/219
f 231/231 232/232 233/233
f 233/233 232/232 234/234
f 233/233 234/234 235/235
f 236/236 237/237 238/238
f 238/238 237/237 239/239
f 237/237 240/240 239/239
f 240/240 241/241 242/242
f 242/242 243/243 240/240
f 244/244 241/241 240/240
f 240/240 243/243 245/245
f 246/246 244/244 240/240
f 247/247 244/244 246/246
f 247/247 246/246 248/248
f 249/249 247/247 248/248
f 248/248 246/246 250/250
f 250/250 251/251 248/248
f 252/252 251/251 250/250
f 250/250 253/253 252/252
f 250/250 254/254 253/253
f 255/255 244/244 247/247
f 256/256 257/257 258/258
f 257/257 259/259 258/258
f 260/260 259/259 257/257
f 256/256 258/258 261/261
f 262/262 261/261 258/258
f 263/263 261/261 262/262
f 260/260 264/264 259/259
f 264/264 265/265 259/259
f 266/266 265/265 264/264
f 266/266 267/267 265/265
f 263/263 262/262 267/267
f 262/262 265/265 267/267
f 268/268 269/269 270/270
f 269/269 271/271 270/270
f 271/271 272/272 270/270
f 272/272 271/271 273/273
f 271/271 274/274 273/273
f 274/274 275/275 273/273
f 268/268 270/270 276/276
f 272/272 273/273 277/277
f 276/276 270/270 277/277
f 277/277 270/270 272/272
f 277/277 273/273 278/278
f 278/278 273/273 275/275
f 279/279 280/280 281/281
f 282/282 279/279 281/281
f 281/281 283/283 282/282
f 283/283 281/281 284/284
f 284/284 281/281 285/285
f 286/286 285/285 281/281
f 287/287 286/286 281/281
f 288/288 281/281 280/280
f 289/289 281/281 288/288
f 281/281 289/289 290/290
f 290/290 291/291 281/281
f 291/291 292/292 281/281
f 287/287 281/281 293/293
f 293/293 281/281 292/292
f 279/279 294/294 280/280
f 282/282 294/294 279/279
f 294/294 282/282 283/283
f 283/283 284/284 294/294
f 284/284 285/285 294/294
f 286/286 294/294 285/285
f 288/288 280/280 294/294
f 289/289 288/288 294/294
f 294/294 290/290 289/289
f 290/290 294/294 291/291
f 291/291 294/294 292/292
f 293/293 292/292 294/294
f 295/295 294/294 286/286
f 295/295 293/293 294/294
f 296/296 297/297 298/298
f 298/298 297/297 299/299
f 299/299 297/297 300/300
f 298/298 299/299 301/301
f 302/302 298/298 301/301
f 301/301 299/299 303/303
f 300/300 304/304 299/299
f 304/304 305/305 299/299
f 306/306 303/303 299/299
f 299/299 305/305 306/306
f 307/307 300/300 297/297
f 304/304 300/300 307/307
f 307/307 303/303 306/306
f 307/307 301/301 303/303
f 308/308 302/302 301/301
f 307/307 308/308 301/301
f 307/307 309/309 304/304
f 306/306 309/309 307/307
f 296/296 310/310 297/297
f 310/310 307/307 297/297
f 310/310 308/308 307/307
f 311/311 312/312 313/313
f 311/311 313/313 314/314
f 313/313 315/315 314/314
f 315/315 316/316 314/314
f 317/317 316/316 315/315
f 318/318 317/317 315/315
f 319/319 318/318 315/315
f 320/320 319/319 315/315
f 321/321 316/316 317/317
f 322/322 321/321 317/317
f 321/321 322/322 323/323
f 323/323 324/324 321/321
f 325/325 316/316 321/321
f 326/326 316/316 325/325
f 327/327 326/326 325/325
f 328/328 326/326 327/327
f 329/329 328/328 327/327
f 330/330 328/328 329/329
f 327/327 331/331 329/329
f 319/319 332/332 318/318
f 333/333 332/332 319/319
f 318/318 332/332 334/334
f 334/334 332/332 335/335
f 336/336 334/334 335/335
f 337/337 334/334 336/336
f 336/336 338/338 337/337
f 338/338 336/336 339/339
f 340/340 336/336 335/335
f 341/341 340/340 335/335
f 342/342 340/340 341/341
f 343/343 342/342 341/341
f 342/342 343/343 344/344
f 345/345 344/344 343/343
f 344/344 346/346 342/342
f 332/332 347/347 335/335
f 348/348 347/347 332/332
f 349/349 347/347 348/348
f 349/349 348/348 350/350
f 345/345 351/351 344/344
f 344/344 351/351 352/352
f 352/352 346/346 344/344
f 351/351 353/353 352/352
f 352/352 353/353 354/354
f 353/353 355/355 354/354
f 354/354 355/355 356/356
f 356/356 355/355 357/357
f 358/358 356/356 357/357
f 356/356 358/358 359/359
f 359/359 360/360 356/356
f 357/357 355/355 361/361
f 362/362 357/357 361/361
f 363/363 362/362 361/361
f 363/363 364/364 362/362
f 365/365 364/364 363/363
f 362/362 364/364 366/366
f 366/366 364/364 367/367
f 368/368 366/366 367/367
f 369/369 366/366 368/368
f 368/368 370/370 369/369
f 370/370 368/368 371/371
f 372/372 368/368 367/367
f 373/373 372/372 367/367
f 374/374 372/372 373/373
f 375/375 374/374 373/373
f 374/374 375/375 329/329
f 330/330 329/329 375/375
f 329/329 331/331 374/374
f 364/364 376/376 367/367
f 377/377 376/376 364/364
f 378/378 376/376 377/377
f 378/378 377/377 312/312
f 379/379 350/350 380/380
f 379/379 380/380 381/381
f 380/380 361/361 381/381
f 361/361 355/355 381/381
f 382/382 363/363 361/361
f 383/383 384/384 385/385
f 385/385 386/386 383/383
f 383/383 386/386 387/387
f 388/388 387/387 386/386
f 389/389 386/386 385/385
f 385/385 390/390 389/389
f 389/389 391/391 386/386
f 392/392 386/386 391/391
f 385/385 384/384 393/393
f 394/394 385/385 393/393
f 395/395 393/393 384/384
f 394/394 396/396 385/385
f 390/390 385/385 396/396
f 397/397 390/390 396/396
f 394/394 393/393 398/398
f 396/396 394/394 398/398
f 393/393 399/399 398/398
f 398/398 399/399 400/400
f 400/400 401/401 398/398
f 398/398 401/401 402/402
f 401/401 403/403 402/402
f 402/402 403/403 404/404
f 398/398 402/402 405/405
f 406/406 398/398 405/405
f 405/405 402/402 407/407
f 407/407 402/402 408/408
f 402/402 404/404 409/409
f 408/408 402/402 409/409
f 400/400 399/399 410/410
f 411/411 410/410 399/399
f 412/412 398/398 406/406
f 406/406 413/413 412/412
f 414/414 412/412 413/413
f 398/398 412/412 396/396
f 415/415 416/416 417/417
f 417/417 418/418 415/415
f 415/415 419/419 416/416
f 420/420 416/416 419/419
f 417/417 416/416 421/421
f 421/421 422/422 417/417
f 421/421 416/416 423/423
f 424/424 423/423 416/416
f 417/417 425/425 418/418
f 426/426 425/425 417/417
f 427/427 418/418 425/425
f 426/426 417/417 428/428
f 422/422 428/428 417/417
f 429/429 428/428 422/422
f 426/426 430/430 425/425
f 426/426 428/428 430/430
f 425/425 430/430 431/431
f 430/430 432/432 431/431
f 432/432 430/430 433/433
f 430/430 434/434 433/433
f 433/433 434/434 435/435
f 435/435 434/434 436/436
f 430/430 437/437 434/434
f 438/438 437/437 430/430
f 437/437 439/439 434/434
f 434/434 439/439 440/440
f 434/434 441/441 436/436
f 440/440 441/441 434/434
f 431/431 432/432 442/442
f 443/443 431/431 442/442
f 428/428 444/444 430/430
f 430/430 444/444 438/438
f 438/438 444/444 445/445
f 446/446 445/445 444/444
f 447/447 448/448 449/449
f 450/450 447/447 449/449
f 449/449 451/451 450/450
f 452/452 451/451 449/449
f 453/453 452/452 449/449
f 450/450 451/451 454/454
f 451/451 455/455 454/454
f 454/454 455/455 456/456
f 455/455 457/457 456/456
f 456/456 457/457 458/458
f 457/457 459/459 458/458
f 458/458 459/459 460/460
f 459/459 461/461 460/460
f 460/460 461/461 462/462
f 461/461 463/463 462/462
f 462/462 463/463 464/464
f 463/463 465/465 464/464
f 466/466 464/464 465/465
f 467/467 464/464 466/466
f 468/468 467/467 466/466
f 469/469 467/467 468/468
f 470/470 469/469 468/468
f 471/471 469/469 470/470
f 472/472 471/471 470/470
f 473/473 471/471 472/472
f 474/474 473/473 472/472
f 475/475 473/473 474/474
f 476/476 475/475 474/474
f 477/477 475/475 476/476
f 478/478 477/477 476/476
f 477/477 478/478 479/479
f 479/479 478/478 480/480
f 481/481 478/478 476/476
f 482/482 478/478 481/481
f 483/483 484/484 485/485
f 484/484 486/486 485/485
f 485/485 486/486 487/487
f 488/488 485/485 487/487
f 488/488 487/487 489/489
f 487/487 490/490 489/489
f 491/491 492/492 484/484
f 492/492 493/493 484/484
f 493/493 492/492 494/494
f 492/492 495/495 494/494
f 495/495 496/496 494/494
f 496/496 497/497 494/494
f 498/498 499/499 500/500
f 500/500 499/499 501/501
f 499/499 502/502 501/501
f 503/503 502/502 499/499
f 503/503 504/504 502/502
f 502/502 504/504 505/505
f 506/506 500/500 507/507
f 507/507 500/500 508/508
f 508/508 509/509 507/507
f 507/507 509/509 510/510
f 510/510 509/509 511/511
f 511/511 509/509 512/512
f 513/513 514/514 515/515
f 516/516 514/514 513/513
f 517/517 516/516 513/513
f 518/518 516/516 517/517
f 519/519 518/518 517/517
f 520/520 518/518 519/519
f 521/521 520/520 519/519
f 521/521 522/522 520/520
f 520/520 522/522 523/523
f 522/522 524/524 523/523
f 523/523 524/524 525/525
f 524/524 526/526 525/525
f 525/525 526/526 527/527
f 526/526 528/528 527/527
f 529/529 530/530 531/531
f 531/531 530/530 532/532
f 530/530 533/533 532/532
f 532/532 533/533 534/534
f 533/533 535/535 534/534
f 534/534 535/535 536/536
f 535/535 537/537 536/536
f 538/538 536/536 537/537
f 537/537 539/539 538/538
f 540/540 538/538 539/539
f 536/536 538/538 541/541
f 541/541 538/538 542/542
f 543/543 544/544 545/545
f 544/544 546/546 545/545
f 545/545 546/546 547/547
f 546/546 548/548 547/547
f 547/547 548/548 549/549
f 548/548 550/550 549/549
f 549/549 550/550 551/551
f 552/552 551/551 550/550
f 550/550 553/553 552/552
f 553/553 554/554 552/552
f 551/551 552/552 555/555
f 552/552 556/556 555/555
