mtllib arms7094.mtl
o arms7094
v -1.63413 0.10375 1.97393 0.000 0.714 0.000
v -1.71311 0.10375 1.97393 0.000 0.576 0.000
v -1.63967 0.11023 2.00543 0.000 0.765 0.000
v -1.71866 0.11023 2.00543 0.000 0.624 0.000
v -1.65436 0.16940 2.06068 0.000 0.788 0.000
v -1.73333 0.16940 2.06068 0.000 0.643 0.000
v -1.63967 0.16114 1.97705 0.000 0.714 0.000
v -1.71866 0.16114 1.97705 0.000 0.576 0.000
v -1.66709 0.19451 2.04008 0.000 0.745 0.000
v -1.74607 0.19451 2.04008 0.000 0.604 0.000
v -1.67987 0.19116 2.06627 0.000 0.784 0.000
v -1.75885 0.19116 2.06627 0.000 0.643 0.000
v -1.63413 -0.10375 1.97393 0.000 0.714 0.000
v -1.63967 -0.11023 2.00543 0.000 0.765 0.000
v -1.71311 -0.10375 1.97393 0.000 0.576 0.000
v -1.71866 -0.11023 2.00543 0.000 0.624 0.000
v -1.65436 -0.16940 2.06068 0.000 0.784 0.000
v -1.73333 -0.16940 2.06068 0.000 0.643 0.000
v -1.63967 -0.16114 1.97705 0.000 0.714 0.000
v -1.71866 -0.16114 1.97705 0.000 0.576 0.000
v -1.66709 -0.19451 2.04008 0.000 0.745 0.000
v -1.74607 -0.19451 2.04008 0.000 0.604 0.000
v -1.67987 -0.19116 2.06627 0.000 0.784 0.000
v -1.75885 -0.19116 2.06627 0.000 0.643 0.000
v -1.63967 -0.19427 1.88581 0.000 0.776 0.000
v -1.70109 -0.19427 1.88581 0.000 0.635 0.000
v -1.63967 -0.13369 1.80947 0.000 0.757 0.000
v -1.70109 -0.13369 1.80947 0.000 0.616 0.000
v -1.67540 -0.22437 1.80693 0.000 0.757 0.000
v -1.73680 -0.22437 1.80693 0.000 0.616 0.000
v -1.70921 -0.30130 1.81957 0.000 0.757 0.000
v -1.77062 -0.30130 1.81957 0.000 0.616 0.000
v -1.63967 0.06761 1.75005 0.000 0.757 0.000
v -1.70109 0.06761 1.75005 0.000 0.616 0.000
v -1.66621 0.12843 1.70986 0.000 0.733 0.000
v -1.72760 0.12843 1.70986 0.000 0.596 0.000
v -1.69529 0.07396 1.78499 0.000 0.616 0.000
v -1.63388 0.07396 1.78499 0.000 0.757 0.000
v -1.68088 0.00000 1.84061 0.000 0.635 0.000
v -1.61946 0.00000 1.84061 0.000 0.776 0.000
v -1.63388 -0.07396 1.78499 0.000 0.757 0.000
v -1.69529 -0.07396 1.78499 0.000 0.616 0.000
v -1.63967 -0.06761 1.75005 0.000 0.757 0.000
v -1.70109 -0.06761 1.75005 0.000 0.616 0.000
v -1.66621 -0.12843 1.70986 0.000 0.733 0.000
v -1.72760 -0.12843 1.70986 0.000 0.596 0.000
v -1.65839 -0.15887 1.78193 0.000 0.757 0.000
v -1.71981 -0.15887 1.78193 0.000 0.616 0.000
v -1.66621 -0.12843 1.70986 0.000 0.733 0.000
v -1.72760 -0.12843 1.70986 0.000 0.596 0.000
v -1.70109 -0.13369 1.80947 0.000 0.616 0.000
v -1.63967 -0.13369 1.80947 0.000 0.757 0.000
v -1.63967 0.13369 1.80947 0.000 0.757 0.000
v -1.70109 0.13369 1.80947 0.000 0.616 0.000
v -1.63967 0.19427 1.88581 0.000 0.776 0.000
v -1.70109 0.19427 1.88581 0.000 0.635 0.000
v -1.67540 0.22437 1.80693 0.000 0.757 0.000
v -1.73680 0.22437 1.80693 0.000 0.616 0.000
v -1.70921 0.30130 1.81957 0.000 0.757 0.000
v -1.77062 0.30130 1.81957 0.000 0.616 0.000
v -1.65839 0.15887 1.78193 0.000 0.757 0.000
v -1.66621 0.12843 1.70986 0.000 0.733 0.000
v -1.71981 0.15887 1.78193 0.000 0.616 0.000
v -1.72760 0.12843 1.70986 0.000 0.596 0.000
v -1.70109 0.13369 1.80947 0.000 0.616 0.000
v -1.63967 0.13369 1.80947 0.000 0.757 0.000
v -1.66621 0.12843 1.70986 0.000 0.875 0.000
v -1.63967 0.11642 1.77152 0.000 0.796 0.000
v -1.63967 0.06761 1.75005 0.000 0.875 0.000
v -1.65839 0.15887 1.78193 0.000 0.875 0.000
v -1.63967 0.13369 1.80947 0.000 0.875 0.000
v -1.62891 0.12227 1.88672 0.000 0.824 0.000
v -1.60853 0.00000 1.88847 0.000 0.765 0.000
v -1.63388 0.07396 1.78499 0.000 0.875 0.000
v -1.61946 0.00000 1.84061 0.000 0.824 0.000
v -1.63413 0.10375 1.97393 0.000 0.843 0.000
v -1.63967 0.00000 2.06456 0.000 0.765 0.000
v -1.63967 0.11023 2.00543 0.000 0.875 0.000
v -1.63967 0.16114 1.97705 0.000 0.894 0.000
v -1.63967 0.19427 1.88581 0.000 0.875 0.000
v -1.64702 0.13982 2.03305 0.000 0.875 0.000
v -1.70921 0.11614 2.17436 0.000 0.941 0.000
v -1.70921 0.00000 2.20504 0.000 0.941 0.000
v -1.70921 -0.11614 2.17436 0.000 0.941 0.000
v -1.64702 -0.13982 2.03305 0.000 0.875 0.000
v -1.63967 -0.11023 2.00543 0.000 0.875 0.000
v -1.63413 -0.10375 1.97393 0.000 0.843 0.000
v -1.63388 -0.07396 1.78499 0.000 0.875 0.000
v -1.63967 -0.11642 1.77152 0.000 0.796 0.000
v -1.63967 -0.06761 1.75005 0.000 0.875 0.000
v -1.66621 -0.12843 1.70986 0.000 0.875 0.000
v -1.65839 -0.15887 1.78193 0.000 0.875 0.000
v -1.63967 -0.13369 1.80947 0.000 0.875 0.000
v -1.62891 -0.12227 1.88672 0.000 0.824 0.000
v -1.63967 -0.19427 1.88581 0.000 0.875 0.000
v -1.63967 -0.16114 1.97705 0.000 0.894 0.000
v -1.70921 -0.31657 1.88847 0.000 0.941 0.000
v -1.63967 -0.19427 1.88581 0.000 0.835 0.000
v -1.70921 -0.27859 2.03042 0.000 0.941 0.000
v -1.63967 -0.16114 1.97705 0.000 0.855 0.000
v -1.66709 -0.19451 2.04008 0.000 0.875 0.000
v -1.70921 -0.21906 2.10328 0.000 0.941 0.000
v -1.67987 -0.19116 2.06627 0.000 0.875 0.000
v -1.70921 -0.11614 2.17436 0.000 0.949 0.000
v -1.65436 -0.16940 2.06068 0.000 0.875 0.000
v -1.67540 -0.22437 1.80693 0.000 0.835 0.000
v -1.70921 -0.30130 1.81957 0.000 0.941 0.000
v -1.64702 -0.13982 2.03305 0.000 0.835 0.000
v -1.77158 -0.27011 1.73990 0.000 0.933 0.000
v -1.77158 0.00000 1.89585 0.000 0.843 0.000
v -1.77158 -0.15595 1.62574 0.000 0.933 0.000
v -1.77158 0.00000 1.58396 0.000 0.933 0.000
v -1.77158 0.15595 1.62574 0.000 0.933 0.000
v -1.77158 0.27011 1.73990 0.000 0.933 0.000
v -1.77158 0.31189 1.89585 0.000 0.933 0.000
v -1.77158 0.27011 2.05180 0.000 0.933 0.000
v -1.77158 0.15595 2.16596 0.000 0.933 0.000
v -1.77158 0.00000 2.20774 0.000 0.933 0.000
v -1.77158 -0.15595 2.16596 0.000 0.933 0.000
v -1.77158 -0.27011 2.05178 0.000 0.933 0.000
v -1.77158 -0.31189 1.89585 0.000 0.933 0.000
v -1.60637 0.00032 2.11405 0.749 0.000 0.000
v -1.61181 0.00000 2.06411 0.745 0.000 0.000
v -1.61563 0.02050 2.08762 0.886 0.000 0.000
v -1.61563 -0.02050 2.08762 0.824 0.000 0.000
v -1.63244 0.03901 2.12900 0.886 0.000 0.000
v -1.63244 -0.03901 2.12900 0.824 0.000 0.000
v -1.63627 -0.04075 2.17728 0.804 0.000 0.000
v -1.64997 -0.06701 2.16504 0.824 0.000 0.000
v -1.65958 -0.06908 2.17728 0.773 0.000 0.000
v -1.63627 0.04075 2.17728 0.871 0.000 0.000
v -1.64997 0.06701 2.16504 0.886 0.000 0.000
v -1.65958 0.06908 2.17728 0.871 0.000 0.000
v -1.63627 0.04075 2.17728 0.871 0.000 0.000
v -1.65958 0.06908 2.17728 0.871 0.000 0.000
v -1.62868 0.00032 2.24051 0.694 0.000 0.000
v -1.65818 0.00000 2.29077 0.686 0.000 0.000
v -1.63627 -0.04075 2.17728 0.804 0.000 0.000
v -1.62868 0.00032 2.24051 0.694 0.000 0.000
v -1.65958 -0.06908 2.17728 0.773 0.000 0.000
v -1.65818 0.00000 2.29077 0.686 0.000 0.000
v -1.67690 -0.19494 1.76641 0.875 0.000 0.000
v -1.67348 -0.20396 1.75235 0.749 0.000 0.000
v -1.68174 -0.19102 1.74470 0.875 0.000 0.000
v -1.67868 -0.21182 1.74047 0.875 0.000 0.000
v -1.68174 -0.21614 1.76179 0.875 0.000 0.000
v -1.68250 -0.17051 1.80304 0.733 0.000 0.000
v -1.67533 -0.20385 1.75264 0.694 0.000 0.000
v -1.69252 -0.17104 1.73430 0.906 0.000 0.000
v -1.69252 -0.17104 1.73430 0.945 0.000 0.000
v -1.67533 -0.20385 1.75264 0.733 0.000 0.000
v -1.69088 -0.19471 1.73408 0.945 0.000 0.000
v -1.68008 -0.21447 1.73660 0.776 0.000 0.000
v -1.69711 -0.20122 1.71079 0.945 0.000 0.000
v -1.69132 -0.23407 1.70698 0.776 0.000 0.000
v -1.69895 -0.19672 1.67463 0.945 0.000 0.000
v -1.68250 -0.17051 1.80304 0.675 0.000 0.000
v -1.69252 -0.23357 1.77568 0.843 0.000 0.000
v -1.67533 -0.20385 1.75264 0.635 0.000 0.000
v -1.69252 -0.23357 1.77568 0.886 0.000 0.000
v -1.69088 -0.22453 1.75381 0.886 0.000 0.000
v -1.67533 -0.20385 1.75264 0.675 0.000 0.000
v -1.68008 -0.21447 1.73660 0.714 0.000 0.000
v -1.69711 -0.23927 1.74469 0.886 0.000 0.000
v -1.69132 -0.23407 1.70698 0.714 0.000 0.000
v -1.69895 -0.26469 1.74658 0.886 0.000 0.000
v -1.74962 0.25180 2.23506 0.816 0.000 0.000
v -1.66694 0.21263 2.18113 0.671 0.000 0.000
v -1.74962 0.34657 2.14027 0.796 0.000 0.000
v -1.66694 0.29266 2.10110 0.714 0.000 0.000
v -1.74962 0.40743 2.02086 0.765 0.000 0.000
v -1.66694 0.34403 2.00027 0.584 0.000 0.000
v -1.74962 0.42838 1.88847 0.824 0.000 0.000
v -1.66694 0.36175 1.88847 0.620 0.000 0.000
v -1.74962 0.40743 1.75610 0.816 0.000 0.000
v -1.66694 0.34403 1.77669 0.635 0.000 0.000
v -1.74962 0.34657 1.63667 0.875 0.000 0.000
v -1.66694 0.29266 1.67585 0.714 0.000 0.000
v -1.74962 0.25180 1.54190 0.875 0.000 0.000
v -1.66694 0.21263 1.59583 0.643 0.000 0.000
v -1.74962 0.13237 1.48106 0.796 0.000 0.000
v -1.66694 0.11178 1.54444 0.616 0.000 0.000
v -1.74962 0.00000 1.46009 0.855 0.000 0.000
v -1.66694 0.00000 1.52674 0.506 0.000 0.000
v -1.66694 -0.11178 1.54444 0.584 0.000 0.000
v -1.74962 -0.13237 1.48106 0.765 0.000 0.000
v -1.66694 -0.21263 1.59583 0.616 0.000 0.000
v -1.74962 -0.25180 1.54190 0.843 0.000 0.000
v -1.66694 -0.29266 1.67585 0.686 0.000 0.000
v -1.74962 -0.34657 1.63667 0.843 0.000 0.000
v -1.66694 -0.34403 1.77669 0.620 0.000 0.000
v -1.74962 -0.40743 1.75610 0.784 0.000 0.000
v -1.66694 -0.36175 1.88847 0.620 0.000 0.000
v -1.74962 -0.42838 1.88847 0.796 0.000 0.000
v -1.66694 -0.34403 2.00027 0.569 0.000 0.000
v -1.74962 -0.40743 2.02086 0.733 0.000 0.000
v -1.66694 -0.29266 2.10110 0.686 0.000 0.000
v -1.74962 -0.34657 2.14027 0.765 0.000 0.000
v -1.66694 -0.21263 2.18113 0.643 0.000 0.000
v -1.74962 -0.25180 2.23506 0.776 0.000 0.000
v -1.66511 0.09119 2.16913 0.925 0.000 0.000
v -1.75025 0.13147 2.15120 0.894 0.000 0.000
v -1.67535 0.17345 2.12722 0.925 0.000 0.000
v -1.75309 0.00000 2.19649 0.886 0.000 0.000
v -1.65004 0.00000 2.18358 0.925 0.000 0.000
v -1.66511 -0.09119 2.16913 0.925 0.000 0.000
v -1.75025 -0.13147 2.15120 0.894 0.000 0.000
v -1.67535 -0.17345 2.12722 0.925 0.000 0.000
v -1.74926 -0.25870 2.02649 0.894 0.000 0.000
v -1.68626 -0.23873 2.06194 0.925 0.000 0.000
v -1.68626 -0.28066 1.97966 0.925 0.000 0.000
v -1.74926 -0.29396 1.89468 0.804 0.000 0.000
v -1.68626 -0.29509 1.88847 0.804 0.000 0.000
v -1.68626 -0.28066 1.79728 0.925 0.000 0.000
v -1.74926 -0.25870 1.76288 0.714 0.000 0.000
v -1.68626 -0.23873 1.71502 0.925 0.000 0.000
v -1.74926 -0.13181 1.63600 0.714 0.000 0.000
v -1.68626 -0.17345 1.64974 0.925 0.000 0.000
v -1.68626 -0.09119 1.60783 0.925 0.000 0.000
v -1.74926 0.00000 1.60074 0.616 0.000 0.000
v -1.68626 0.00000 1.59338 0.776 0.000 0.000
v -1.68626 0.09119 1.60783 0.925 0.000 0.000
v -1.74926 0.13181 1.63600 0.714 0.000 0.000
v -1.68626 0.17345 1.64974 0.925 0.000 0.000
v -1.68626 0.23873 1.71502 0.925 0.000 0.000
v -1.74926 0.25870 1.76288 0.714 0.000 0.000
v -1.68626 0.28066 1.79728 0.925 0.000 0.000
v -1.74926 0.29396 1.89468 0.804 0.000 0.000
v -1.68626 0.29509 1.88847 0.804 0.000 0.000
v -1.68626 0.28066 1.97966 0.925 0.000 0.000
v -1.74926 0.25870 2.02649 0.894 0.000 0.000
v -1.68626 0.23873 2.06194 0.925 0.000 0.000
v -1.80279 0.23690 2.07301 0.925 0.000 0.000
v -1.80279 0.17212 2.13779 0.925 0.000 0.000
v -1.80279 0.27848 1.99138 0.925 0.000 0.000
v -1.80279 0.29282 1.90089 0.804 0.000 0.000
v -1.80279 0.27848 1.81040 0.925 0.000 0.000
v -1.80279 0.23690 1.72877 0.925 0.000 0.000
v -1.80279 0.17212 1.66401 0.925 0.000 0.000
v -1.80279 0.09049 1.62241 0.925 0.000 0.000
v -1.80279 0.00000 1.60808 0.776 0.000 0.000
v -1.80279 -0.09049 1.62241 0.925 0.000 0.000
v -1.80279 -0.17212 1.66401 0.925 0.000 0.000
v -1.80279 -0.23690 1.72877 0.925 0.000 0.000
v -1.80279 -0.27848 1.81040 0.925 0.000 0.000
v -1.80279 -0.29282 1.90089 0.804 0.000 0.000
v -1.80279 -0.27848 1.99138 0.925 0.000 0.000
v -1.80279 -0.23690 2.07301 0.925 0.000 0.000
v -1.80279 -0.17212 2.13779 0.925 0.000 0.000
v -1.80671 -0.08917 2.17066 0.925 0.000 0.000
v -1.81046 0.00000 2.20941 0.804 0.000 0.000
v -1.80671 0.08917 2.17066 0.925 0.000 0.000
v -1.67042 -0.11178 2.23252 0.824 0.000 0.000
v -1.75198 -0.11178 2.23252 0.824 0.000 0.000
v -1.66694 -0.21263 2.18113 0.643 0.000 0.000
v -1.76024 -0.21263 2.18113 0.733 0.000 0.000
v -1.74962 -0.25180 2.23506 0.776 0.000 0.000
v -1.69204 -0.04680 2.30999 0.816 0.000 0.000
v -1.74341 -0.04378 2.31208 0.886 0.000 0.000
v -1.72883 0.00000 2.39902 0.780 0.000 0.000
v -1.74341 0.04378 2.31208 0.914 0.000 0.000
v -1.69204 0.04680 2.30999 0.843 0.000 0.000
v -1.75198 0.11178 2.23252 0.824 0.000 0.000
v -1.67042 0.11178 2.23252 0.824 0.000 0.000
v -1.66694 0.21263 2.18113 0.671 0.000 0.000
v -1.76024 0.21263 2.18113 0.765 0.000 0.000
v -1.74962 0.25180 2.23506 0.816 0.000 0.000
v -1.80731 0.25364 2.05524 0.812 0.000 0.000
v -1.80914 0.25402 2.09666 0.686 0.000 0.000
v -1.80731 0.27913 2.05051 0.698 0.000 0.000
v -1.89569 0.27853 1.98518 0.725 0.000 0.000
v -1.91698 0.25308 1.99213 0.843 0.000 0.000
v -1.92989 0.27769 1.89020 0.647 0.000 0.000
v -1.96110 0.25216 1.89043 0.804 0.000 0.000
v -1.80731 0.22909 2.05096 0.698 0.000 0.000
v -1.93680 0.22765 1.89063 0.647 0.000 0.000
v -1.90287 0.22849 1.98562 0.725 0.000 0.000
v -1.91698 0.25124 1.78871 0.843 0.000 0.000
v -1.89569 0.27682 1.79521 0.725 0.000 0.000
v -1.80401 0.25069 1.72561 0.812 0.000 0.000
v -1.80401 0.27625 1.72987 0.698 0.000 0.000
v -1.80401 0.25031 1.68421 0.686 0.000 0.000
v -1.80401 0.22619 1.73032 0.698 0.000 0.000
v -1.90287 0.22678 1.79568 0.725 0.000 0.000
v -1.80731 0.27913 2.05051 0.698 0.000 0.000
v -1.80731 0.22909 2.05096 0.698 0.000 0.000
v -1.89569 0.27853 1.98518 0.725 0.000 0.000
v -1.90287 0.22849 1.98562 0.725 0.000 0.000
v -1.92989 0.27769 1.89020 0.647 0.000 0.000
v -1.93680 0.22765 1.89063 0.647 0.000 0.000
v -1.90287 0.22678 1.79568 0.725 0.000 0.000
v -1.89569 0.27682 1.79521 0.725 0.000 0.000
v -1.80401 0.22619 1.73032 0.698 0.000 0.000
v -1.80401 0.27625 1.72987 0.698 0.000 0.000
v -1.77232 -0.02092 2.13160 0.839 0.000 0.000
v -1.77232 -0.02092 2.19040 0.686 0.000 0.000
v -1.77232 0.01849 2.12522 0.729 0.000 0.000
v -1.77232 -0.06034 2.12522 0.729 0.000 0.000
v -1.88170 -0.06034 2.07923 0.647 0.000 0.000
v -1.89659 -0.02092 2.10051 0.765 0.000 0.000
v -1.99213 -0.02092 2.01265 0.843 0.000 0.000
v -1.88170 0.01849 2.07927 0.647 0.000 0.000
v -1.96702 0.01849 2.00507 0.725 0.000 0.000
v -1.99822 0.01849 1.89761 0.647 0.000 0.000
v -2.03762 -0.02092 1.89761 0.804 0.000 0.000
v -1.99822 -0.06034 1.89761 0.647 0.000 0.000
v -1.96702 -0.06034 2.00504 0.725 0.000 0.000
v -1.99213 -0.02092 1.78256 0.843 0.000 0.000
v -1.96702 0.01849 1.79015 0.725 0.000 0.000
v -1.88170 0.01849 1.71596 0.647 0.000 0.000
v -1.89659 -0.02092 1.69474 0.765 0.000 0.000
v -1.96702 -0.06034 1.79019 0.725 0.000 0.000
v -1.88170 -0.06034 1.71599 0.647 0.000 0.000
v -1.77277 -0.02092 1.66361 0.839 0.000 0.000
v -1.77277 -0.06034 1.67000 0.729 0.000 0.000
v -1.77277 -0.02092 1.60484 0.686 0.000 0.000
v -1.77277 0.01849 1.67000 0.729 0.000 0.000
v -1.96702 -0.06034 2.00504 0.725 0.000 0.000
v -1.96702 0.01849 2.00507 0.725 0.000 0.000
v -1.88170 -0.06034 2.07923 0.647 0.000 0.000
v -1.88170 0.01849 2.07927 0.647 0.000 0.000
v -1.99822 0.01849 1.89761 0.647 0.000 0.000
v -1.99822 -0.06034 1.89761 0.647 0.000 0.000
v -1.77232 -0.06034 2.12522 0.729 0.000 0.000
v -1.77232 0.01849 2.12522 0.729 0.000 0.000
v -1.96702 -0.06034 1.79019 0.725 0.000 0.000
v -1.96702 0.01849 1.79015 0.725 0.000 0.000
v -1.88170 -0.06034 1.71599 0.647 0.000 0.000
v -1.88170 0.01849 1.71596 0.647 0.000 0.000
v -1.77277 -0.06034 1.67000 0.729 0.000 0.000
v -1.77277 0.01849 1.67000 0.729 0.000 0.000
v -1.77413 -0.00934 2.15053 0.722 0.000 0.000
v -1.77413 -0.03251 2.15053 0.722 0.000 0.000
v -1.77413 -0.02092 2.16211 0.529 0.000 0.000
v -1.77413 -0.02092 2.13896 0.875 0.000 0.000
v -1.77656 -0.00934 1.64471 0.722 0.000 0.000
v -1.77656 -0.03251 1.64471 0.722 0.000 0.000
v -1.77656 -0.02092 1.65631 0.875 0.000 0.000
v -1.77656 -0.02092 1.63314 0.529 0.000 0.000
v -1.80601 0.25931 1.71175 0.722 0.000 0.000
v -1.80601 0.24275 1.71189 0.722 0.000 0.000
v -1.80601 0.25108 1.72010 0.875 0.000 0.000
v -1.80601 0.25094 1.70354 0.529 0.000 0.000
v -1.80988 0.26248 2.06703 0.722 0.000 0.000
v -1.80988 0.24592 2.06717 0.722 0.000 0.000
v -1.80988 0.25427 2.07538 0.529 0.000 0.000
v -1.80988 0.25412 2.05882 0.875 0.000 0.000
v -1.70627 0.19739 2.21913 0.933 0.000 0.000
v -1.69582 0.17744 2.22179 0.784 0.000 0.000
v -1.70433 0.19631 2.18515 0.933 0.000 0.000
v -1.69745 0.16067 2.18146 0.784 0.000 0.000
v -1.69636 0.18160 2.22991 0.784 0.000 0.000
v -1.70347 0.20509 2.23591 0.933 0.000 0.000
v -1.70863 0.22084 2.22178 0.933 0.000 0.000
v -1.71009 0.16537 2.23459 0.906 0.000 0.000
v -1.71169 0.13667 2.21504 0.906 0.000 0.000
v -1.69582 0.17744 2.22179 0.757 0.000 0.000
v -1.69745 0.16067 2.18146 0.757 0.000 0.000
v -1.69636 0.18160 2.22991 0.757 0.000 0.000
v -1.70795 0.17246 2.25153 0.906 0.000 0.000
v -1.71661 0.15370 2.25419 0.906 0.000 0.000
v -1.72199 0.22603 2.31797 0.757 0.000 0.000
v -1.70573 0.20290 2.27192 0.757 0.000 0.000
v -1.70863 0.22084 2.22178 0.906 0.000 0.000
v -1.70347 0.20509 2.23591 0.906 0.000 0.000
v -1.72199 0.22603 2.31797 0.686 0.000 0.000
v -1.71661 0.15370 2.25419 0.835 0.000 0.000
v -1.70573 0.20290 2.27192 0.686 0.000 0.000
v -1.70795 0.17246 2.25153 0.835 0.000 0.000
v -1.70863 0.22084 2.22178 0.886 0.000 0.000
v -1.73668 0.19420 2.24566 0.733 0.000 0.000
v -1.72199 0.22603 2.31797 0.733 0.000 0.000
v -1.70863 0.22084 2.22178 0.933 0.000 0.000
v -1.70627 0.19739 2.21913 0.933 0.000 0.000
v -1.73668 0.19420 2.24566 0.784 0.000 0.000
v -1.72744 0.18137 2.22010 0.784 0.000 0.000
v -1.70433 0.19631 2.18515 0.933 0.000 0.000
v -1.73849 0.16650 2.19334 0.784 0.000 0.000
v -1.72199 0.22603 2.31797 0.686 0.000 0.000
v -1.73668 0.19420 2.24566 0.686 0.000 0.000
v -1.71661 0.15370 2.25419 0.835 0.000 0.000
v -1.71661 0.15370 2.25419 0.906 0.000 0.000
v -1.73668 0.19420 2.24566 0.757 0.000 0.000
v -1.71009 0.16537 2.23459 0.906 0.000 0.000
v -1.72744 0.18137 2.22010 0.757 0.000 0.000
v -1.71169 0.13667 2.21504 0.906 0.000 0.000
v -1.73849 0.16650 2.19334 0.757 0.000 0.000
v -1.70627 0.11534 2.25814 0.933 0.000 0.000
v -1.69582 0.09542 2.26078 0.784 0.000 0.000
v -1.70433 0.11428 2.22415 0.933 0.000 0.000
v -1.69745 0.07864 2.22044 0.784 0.000 0.000
v -1.69636 0.09958 2.26890 0.784 0.000 0.000
v -1.70347 0.12307 2.27491 0.933 0.000 0.000
v -1.70863 0.13880 2.26076 0.933 0.000 0.000
v -1.71009 0.08332 2.27360 0.906 0.000 0.000
v -1.71169 0.05465 2.25405 0.906 0.000 0.000
v -1.69582 0.09542 2.26078 0.757 0.000 0.000
v -1.69745 0.07864 2.22044 0.757 0.000 0.000
v -1.69636 0.09958 2.26890 0.757 0.000 0.000
v -1.70795 0.09041 2.29052 0.906 0.000 0.000
v -1.71661 0.07168 2.29320 0.906 0.000 0.000
v -1.72199 0.14398 2.35696 0.776 0.000 0.000
v -1.70573 0.12087 2.31093 0.776 0.000 0.000
v -1.70863 0.13880 2.26076 0.925 0.000 0.000
v -1.70347 0.12307 2.27491 0.925 0.000 0.000
v -1.72199 0.14398 2.35696 0.686 0.000 0.000
v -1.71661 0.07168 2.29320 0.835 0.000 0.000
v -1.70573 0.12087 2.31093 0.686 0.000 0.000
v -1.70795 0.09041 2.29052 0.835 0.000 0.000
v -1.70863 0.13880 2.26076 0.906 0.000 0.000
v -1.73668 0.11218 2.28465 0.757 0.000 0.000
v -1.72199 0.14398 2.35696 0.757 0.000 0.000
v -1.70863 0.13880 2.26076 0.933 0.000 0.000
v -1.70627 0.11534 2.25814 0.933 0.000 0.000
v -1.73668 0.11218 2.28465 0.784 0.000 0.000
v -1.72744 0.09934 2.25909 0.784 0.000 0.000
v -1.70433 0.11428 2.22415 0.933 0.000 0.000
v -1.73849 0.08446 2.23232 0.784 0.000 0.000
v -1.72199 0.14398 2.35696 0.686 0.000 0.000
v -1.73668 0.11218 2.28465 0.686 0.000 0.000
v -1.71661 0.07168 2.29320 0.835 0.000 0.000
v -1.71661 0.07168 2.29320 0.906 0.000 0.000
v -1.73668 0.11218 2.28465 0.757 0.000 0.000
v -1.71009 0.08332 2.27360 0.906 0.000 0.000
v -1.72744 0.09934 2.25909 0.757 0.000 0.000
v -1.71169 0.05465 2.25405 0.906 0.000 0.000
v -1.73849 0.08446 2.23232 0.757 0.000 0.000
v -1.62868 0.00032 2.24051 0.694 0.000 0.000
v -1.63627 0.04140 2.17728 0.855 0.000 0.000
v -1.63627 0.04075 2.17728 0.871 0.000 0.000
v -1.60637 0.00032 2.11405 0.749 0.000 0.000
v -1.62868 0.00032 2.24051 0.000 0.000 0.906
v -1.63627 -0.04075 2.17728 0.000 0.000 0.906
v -1.59916 0.00032 2.17728 0.000 0.000 0.506
v -1.63627 0.04140 2.17728 0.000 0.000 0.906
v -1.60637 0.00032 2.11405 0.000 0.000 0.906
v -1.70573 0.12087 2.31093 0.000 0.000 0.906
v -1.69762 0.10933 2.28794 0.000 0.000 0.576
v -1.70347 0.12307 2.27491 0.000 0.000 0.906
v -1.69636 0.09958 2.26890 0.000 0.000 0.906
v -1.70795 0.09041 2.29052 0.000 0.000 0.906
v -1.70573 0.20290 2.27192 0.000 0.000 0.906
v -1.69762 0.19136 2.24896 0.000 0.000 0.576
v -1.70347 0.20509 2.23591 0.000 0.000 0.906
v -1.69636 0.18160 2.22991 0.000 0.000 0.906
v -1.70795 0.17246 2.25153 0.000 0.000 0.906
v -1.64702 0.13982 2.03305 0.000 0.835 0.000
v -1.65436 0.16940 2.06068 0.000 0.875 0.000
v -1.70921 0.11614 2.17436 0.000 0.949 0.000
v -1.67987 0.19116 2.06627 0.000 0.875 0.000
v -1.70921 0.21906 2.10328 0.000 0.941 0.000
v -1.66709 0.19451 2.04008 0.000 0.875 0.000
v -1.70921 0.27859 2.03042 0.000 0.941 0.000
v -1.63967 0.16114 1.97705 0.000 0.855 0.000
v -1.63967 0.19427 1.88581 0.000 0.835 0.000
v -1.70921 0.31657 1.88847 0.000 0.941 0.000
v -1.67540 0.22437 1.80693 0.000 0.835 0.000
v -1.70921 0.30130 1.81957 0.000 0.941 0.000
v -1.65958 0.06908 2.17728 0.765 0.000 0.000
v -1.64997 0.06701 2.16504 0.765 0.000 0.000
v -1.66511 0.09119 2.16913 0.875 0.000 0.000
v -1.67456 0.07907 2.13210 0.875 0.000 0.000
v -1.63244 0.03901 2.12900 0.765 0.000 0.000
v -1.66201 0.05459 2.10548 0.875 0.000 0.000
v -1.61563 -0.02050 2.08762 0.675 0.000 0.000
v -1.63793 -0.04246 2.05821 0.784 0.000 0.000
v -1.61181 0.00000 2.06411 0.690 0.000 0.000
v -1.62778 0.00000 1.99589 0.800 0.000 0.000
v -1.66201 -0.05459 2.10548 0.784 0.000 0.000
v -1.63244 -0.03901 2.12900 0.675 0.000 0.000
v -1.65958 -0.06908 2.17728 0.675 0.000 0.000
v -1.66511 -0.09119 2.16913 0.784 0.000 0.000
v -1.64997 -0.06701 2.16504 0.675 0.000 0.000
v -1.67456 -0.07907 2.13210 0.784 0.000 0.000
v -1.63244 -0.03901 2.12900 0.675 0.000 0.000
v -1.66201 -0.05459 2.10548 0.784 0.000 0.000
v -1.61563 0.02050 2.08762 0.765 0.000 0.000
v -1.61181 0.00000 2.06411 0.690 0.000 0.000
v -1.63793 0.04246 2.05821 0.875 0.000 0.000
v -1.62778 0.00000 1.99589 0.800 0.000 0.000
v -1.66201 0.05459 2.10548 0.875 0.000 0.000
v -1.63244 0.03901 2.12900 0.765 0.000 0.000
v -1.74962 -0.40743 2.02086 0.733 0.000 0.000
v -1.74962 -0.34657 2.14027 0.733 0.000 0.000
v -1.80279 -0.27848 1.99138 0.855 0.000 0.000
v -1.80279 -0.23690 2.07301 0.855 0.000 0.000
v -1.76024 -0.21263 2.18113 0.706 0.000 0.000
v -1.74962 -0.25180 2.23506 0.733 0.000 0.000
v -1.80279 -0.29282 1.90089 0.733 0.000 0.000
v -1.74962 -0.42838 1.88847 0.616 0.000 0.000
v -1.80279 -0.27848 1.81040 0.855 0.000 0.000
v -1.74962 -0.40743 1.75610 0.733 0.000 0.000
v -1.80279 -0.23690 1.72877 0.855 0.000 0.000
v -1.74962 -0.34657 1.63667 0.733 0.000 0.000
v -1.80279 -0.17212 1.66401 0.855 0.000 0.000
v -1.74962 -0.25180 1.54190 0.733 0.000 0.000
v -1.80279 -0.09049 1.62241 0.855 0.000 0.000
v -1.74962 -0.13237 1.48106 0.733 0.000 0.000
v -1.80279 0.00000 1.60808 0.714 0.000 0.000
v -1.74962 0.00000 1.46009 0.596 0.000 0.000
v -1.74962 0.13237 1.48106 0.757 0.000 0.000
v -1.80279 0.09049 1.62241 0.875 0.000 0.000
v -1.74962 0.25180 1.54190 0.757 0.000 0.000
v -1.80279 0.17212 1.66401 0.875 0.000 0.000
v -1.74962 0.34657 1.63667 0.757 0.000 0.000
v -1.80279 0.23690 1.72877 0.875 0.000 0.000
v -1.74962 0.40743 1.75610 0.757 0.000 0.000
v -1.80279 0.27848 1.81040 0.875 0.000 0.000
v -1.74962 0.42838 1.88847 0.635 0.000 0.000
v -1.80279 0.29282 1.90089 0.757 0.000 0.000
v -1.74962 0.40743 2.02086 0.757 0.000 0.000
v -1.80279 0.27848 1.99138 0.875 0.000 0.000
v -1.74962 0.34657 2.14027 0.757 0.000 0.000
v -1.80279 0.23690 2.07301 0.875 0.000 0.000
v -1.76024 0.21263 2.18113 0.604 0.000 0.000
v -1.80279 0.17212 2.13779 0.875 0.000 0.000
v -1.74962 0.25180 2.23506 0.757 0.000 0.000
v -1.76024 -0.21263 2.18113 0.706 0.000 0.000
v -1.75198 -0.11178 2.23252 0.733 0.000 0.000
v -1.80279 -0.17212 2.13779 0.855 0.000 0.000
v -1.80671 -0.08917 2.17066 0.855 0.000 0.000
v -1.81046 0.00000 2.20941 0.776 0.000 0.000
v -1.74341 -0.04378 2.31208 0.733 0.000 0.000
v -1.72883 0.00000 2.39902 0.624 0.000 0.000
v -1.74341 0.04378 2.31208 0.757 0.000 0.000
v -1.75198 0.11178 2.23252 0.757 0.000 0.000
v -1.80671 0.08917 2.17066 0.875 0.000 0.000
v -1.80279 0.17212 2.13779 0.875 0.000 0.000
v -1.76024 0.21263 2.18113 0.604 0.000 0.000
v -1.80279 -0.17212 2.13779 0.855 0.000 0.000
v -1.65818 0.00000 2.29077 0.561 0.000 0.000
v -1.65411 0.00000 2.23717 0.769 0.000 0.000
v -1.67042 0.11178 2.23252 0.749 0.000 0.000
v -1.69204 0.04680 2.30999 0.835 0.000 0.000
v -1.72883 0.00000 2.39902 0.769 0.000 0.000
v -1.69204 -0.04680 2.30999 0.804 0.000 0.000
v -1.66511 0.09119 2.16913 0.906 0.000 0.000
v -1.66694 0.21263 2.18113 0.675 0.000 0.000
v -1.67535 0.17345 2.12722 0.906 0.000 0.000
v -1.66694 0.29266 2.10110 0.796 0.000 0.000
v -1.68626 0.23873 2.06194 0.906 0.000 0.000
v -1.66694 0.34403 2.00027 0.886 0.000 0.000
v -1.68626 0.28066 1.97966 0.906 0.000 0.000
v -1.66694 0.36175 1.88847 0.867 0.000 0.000
v -1.68626 0.29509 1.88847 0.886 0.000 0.000
v -1.66694 0.34403 1.77669 0.886 0.000 0.000
v -1.68626 0.28066 1.79728 0.906 0.000 0.000
v -1.66694 0.29266 1.67585 0.796 0.000 0.000
v -1.68626 0.23873 1.71502 0.906 0.000 0.000
v -1.66694 0.21263 1.59583 0.796 0.000 0.000
v -1.68626 0.17345 1.64974 0.906 0.000 0.000
v -1.66694 0.11178 1.54444 0.824 0.000 0.000
v -1.68626 0.09119 1.60783 0.835 0.000 0.000
v -1.66694 0.00000 1.52674 0.824 0.000 0.000
v -1.68626 0.00000 1.59338 0.835 0.000 0.000
v -1.68626 -0.09119 1.60783 0.804 0.000 0.000
v -1.66694 -0.11178 1.54444 0.796 0.000 0.000
v -1.68626 -0.17345 1.64974 0.875 0.000 0.000
v -1.66694 -0.21263 1.59583 0.765 0.000 0.000
v -1.68626 -0.23873 1.71502 0.875 0.000 0.000
v -1.66694 -0.29266 1.67585 0.765 0.000 0.000
v -1.68626 -0.28066 1.79728 0.875 0.000 0.000
v -1.66694 -0.34403 1.77669 0.855 0.000 0.000
v -1.68626 -0.29509 1.88847 0.855 0.000 0.000
v -1.66694 -0.36175 1.88847 0.835 0.000 0.000
v -1.68626 -0.28066 1.97966 0.875 0.000 0.000
v -1.66694 -0.34403 2.00027 0.855 0.000 0.000
v -1.68626 -0.23873 2.06194 0.875 0.000 0.000
v -1.66694 -0.29266 2.10110 0.765 0.000 0.000
v -1.67535 -0.17345 2.12722 0.875 0.000 0.000
v -1.66694 -0.21263 2.18113 0.643 0.000 0.000
v -1.66511 -0.09119 2.16913 0.875 0.000 0.000
v -1.67042 -0.11178 2.23252 0.749 0.000 0.000
v -1.65004 0.00000 2.18358 0.890 0.000 0.000
v -1.67690 0.19494 1.76641 0.875 0.000 0.000
v -1.68174 0.19102 1.74470 0.875 0.000 0.000
v -1.67348 0.20396 1.75235 0.749 0.000 0.000
v -1.67868 0.21182 1.74047 0.875 0.000 0.000
v -1.68174 0.21614 1.76179 0.875 0.000 0.000
v -1.68250 0.17051 1.80304 0.733 0.000 0.000
v -1.69252 0.17104 1.73430 0.906 0.000 0.000
v -1.67533 0.20385 1.75264 0.694 0.000 0.000
v -1.69252 0.17104 1.73430 0.945 0.000 0.000
v -1.69088 0.19471 1.73408 0.945 0.000 0.000
v -1.67533 0.20385 1.75264 0.733 0.000 0.000
v -1.68008 0.21447 1.73660 0.776 0.000 0.000
v -1.69711 0.20122 1.71079 0.945 0.000 0.000
v -1.69132 0.23407 1.70698 0.776 0.000 0.000
v -1.69895 0.19672 1.67463 0.945 0.000 0.000
v -1.68250 0.17051 1.80304 0.675 0.000 0.000
v -1.67533 0.20385 1.75264 0.635 0.000 0.000
v -1.69252 0.23357 1.77568 0.843 0.000 0.000
v -1.69252 0.23357 1.77568 0.886 0.000 0.000
v -1.67533 0.20385 1.75264 0.675 0.000 0.000
v -1.69088 0.22453 1.75381 0.886 0.000 0.000
v -1.68008 0.21447 1.73660 0.714 0.000 0.000
v -1.69711 0.23927 1.74469 0.886 0.000 0.000
v -1.69132 0.23407 1.70698 0.714 0.000 0.000
v -1.69895 0.26469 1.74658 0.886 0.000 0.000
v -1.70109 0.06761 1.75005 0.945 0.000 0.000
v -1.74542 0.13905 1.60355 0.914 0.000 0.000
v -1.72760 0.12843 1.70986 0.925 0.000 0.000
v -1.74015 0.00000 1.56119 0.914 0.000 0.000
v -1.69529 0.07396 1.78499 0.945 0.000 0.000
v -1.68088 0.00000 1.84061 0.965 0.000 0.000
v -1.74566 0.20095 1.65398 0.914 0.000 0.000
v -1.71981 0.15887 1.78193 0.945 0.000 0.000
v -1.72237 0.18563 1.80140 0.945 0.000 0.000
v -1.73680 0.22437 1.80693 0.945 0.000 0.000
v -1.75567 0.27859 1.74652 0.914 0.000 0.000
v -1.77062 0.30130 1.81957 0.945 0.000 0.000
v -1.70109 0.13369 1.80947 0.945 0.000 0.000
v -1.70109 0.19427 1.88581 0.965 0.000 0.000
v -1.69529 -0.07396 1.78499 0.945 0.000 0.000
v -1.70109 -0.06761 1.75005 0.945 0.000 0.000
v -1.74542 -0.13905 1.60355 0.914 0.000 0.000
v -1.72760 -0.12843 1.70986 0.925 0.000 0.000
v -1.74566 -0.20095 1.65398 0.914 0.000 0.000
v -1.71981 -0.15887 1.78193 0.945 0.000 0.000
v -1.72237 -0.18563 1.80140 0.945 0.000 0.000
v -1.73680 -0.22437 1.80693 0.945 0.000 0.000
v -1.75567 -0.27859 1.74652 0.914 0.000 0.000
v -1.77062 -0.30130 1.81957 0.945 0.000 0.000
v -1.70109 -0.13369 1.80947 0.945 0.000 0.000
v -1.70109 -0.19427 1.88581 0.965 0.000 0.000
v -1.71311 0.10375 1.97393 0.886 0.000 0.000
v -1.73551 0.14976 2.02016 0.933 0.000 0.000
v -1.71866 0.11023 2.00543 0.933 0.000 0.000
v -1.73333 0.16940 2.06068 0.957 0.000 0.000
v -1.71866 0.16114 1.97705 0.886 0.000 0.000
v -1.74607 0.19451 2.04008 0.914 0.000 0.000
v -1.75885 0.19116 2.06627 0.957 0.000 0.000
v -1.71866 -0.11023 2.00543 0.933 0.000 0.000
v -1.73495 -0.15046 2.02021 0.933 0.000 0.000
v -1.71311 -0.10375 1.97393 0.886 0.000 0.000
v -1.73333 -0.16940 2.06068 0.957 0.000 0.000
v -1.71866 -0.16114 1.97705 0.886 0.000 0.000
v -1.74607 -0.19451 2.04008 0.914 0.000 0.000
v -1.75885 -0.19116 2.06627 0.957 0.000 0.000
v -1.73813 -0.19451 2.04008 0.502 0.000 0.000
v -1.71072 -0.11023 2.00543 0.502 0.000 0.000
v -1.72539 -0.16940 2.06068 0.502 0.000 0.000
v -1.71072 -0.16114 1.97705 0.502 0.000 0.000
v -1.70518 -0.10375 1.97393 0.502 0.000 0.000
v -1.75091 -0.19116 2.06627 0.502 0.000 0.000
v -1.71072 0.11023 2.00543 0.502 0.000 0.000
v -1.70518 0.10375 1.97393 0.502 0.000 0.000
v -1.71072 0.16114 1.97705 0.502 0.000 0.000
v -1.73813 0.19451 2.04008 0.502 0.000 0.000
v -1.72539 0.16940 2.06068 0.502 0.000 0.000
v -1.75091 0.19116 2.06627 0.502 0.000 0.000
v -1.73675 0.14195 1.60988 0.502 0.000 0.000
v -1.74524 0.27859 1.74652 0.502 0.000 0.000
v -1.71706 0.12843 1.70986 0.502 0.000 0.000
v -1.70924 0.15887 1.78193 0.502 0.000 0.000
v -1.72624 0.22437 1.80693 0.502 0.000 0.000
v -1.69052 0.13369 1.80947 0.502 0.000 0.000
v -1.69052 0.19427 1.88581 0.502 0.000 0.000
v -1.76006 0.30130 1.81957 0.502 0.000 0.000
v -1.73675 0.00000 1.57190 0.502 0.000 0.000
v -1.69052 0.06761 1.75005 0.502 0.000 0.000
v -1.69052 0.00000 1.71239 0.502 0.000 0.000
v -1.68473 0.07396 1.78499 0.502 0.000 0.000
v -1.67031 0.00000 1.84061 0.502 0.000 0.000
v -1.68473 -0.07396 1.78499 0.502 0.000 0.000
v -1.69052 -0.06761 1.75005 0.502 0.000 0.000
v -1.71706 -0.12843 1.70986 0.502 0.000 0.000
v -1.73675 -0.14195 1.60988 0.502 0.000 0.000
v -1.74524 -0.27859 1.74652 0.502 0.000 0.000
v -1.70924 -0.15887 1.78193 0.502 0.000 0.000
v -1.72624 -0.22437 1.80693 0.502 0.000 0.000
v -1.69052 -0.13369 1.80947 0.502 0.000 0.000
v -1.69052 -0.19427 1.88581 0.502 0.000 0.000
v -1.76006 -0.30130 1.81957 0.502 0.000 0.000
v -1.57550 -0.37858 1.82045 1.000 0.000 0.000
v -1.68626 -0.28066 1.79728 1.000 0.000 0.000
v -1.57550 -0.32204 1.70948 1.000 0.000 0.000
v -1.68626 -0.23873 1.71502 1.000 0.000 0.000
v -1.57550 -0.23396 1.62142 1.000 0.000 0.000
v -1.68626 -0.17345 1.64974 1.000 0.000 0.000
v -1.57550 -0.12301 1.56488 1.000 0.000 0.000
v -1.68626 -0.09119 1.60783 1.000 0.000 0.000
v -1.57550 0.00000 1.54539 1.000 0.000 0.000
v -1.68626 0.00000 1.59338 1.000 0.000 0.000
v -1.68626 0.09119 1.60783 1.000 0.000 0.000
v -1.57550 0.12301 1.56488 1.000 0.000 0.000
v -1.68626 0.17345 1.64974 1.000 0.000 0.000
v -1.57550 0.23396 1.62142 1.000 0.000 0.000
v -1.68626 0.23873 1.71502 1.000 0.000 0.000
v -1.57550 0.32204 1.70948 1.000 0.000 0.000
v -1.68626 0.28066 1.79728 1.000 0.000 0.000
v -1.57550 0.37858 1.82045 1.000 0.000 0.000
v -1.63967 0.11023 2.00543 0.502 0.000 0.000
v -1.63413 0.10375 1.97393 0.502 0.000 0.000
v -1.52510 0.07072 1.99053 0.502 0.000 0.000
v -1.51393 0.05764 1.92701 0.502 0.000 0.000
v -1.55471 0.18999 2.10188 0.502 0.000 0.000
v -1.64702 0.13982 2.03305 0.502 0.000 0.000
v -1.65436 0.16940 2.06068 0.502 0.000 0.000
v -1.52510 0.17334 1.93331 0.502 0.000 0.000
v -1.63967 0.16114 1.97705 0.502 0.000 0.000
v -1.58038 0.24061 2.06039 0.502 0.000 0.000
v -1.66709 0.19451 2.04008 0.502 0.000 0.000
v -1.60616 0.23387 2.11320 0.502 0.000 0.000
v -1.67987 0.19116 2.06627 0.502 0.000 0.000
v -1.63967 -0.11023 2.00543 0.502 0.000 0.000
v -1.52510 -0.07072 1.99053 0.502 0.000 0.000
v -1.63413 -0.10375 1.97393 0.502 0.000 0.000
v -1.51393 -0.05764 1.92701 0.502 0.000 0.000
v -1.55471 -0.18999 2.10188 0.502 0.000 0.000
v -1.64702 -0.13982 2.03305 0.502 0.000 0.000
v -1.65436 -0.16940 2.06068 0.502 0.000 0.000
v -1.52510 -0.17334 1.93331 0.502 0.000 0.000
v -1.63967 -0.16114 1.97705 0.502 0.000 0.000
v -1.58038 -0.24061 2.06039 0.502 0.000 0.000
v -1.66709 -0.19451 2.04008 0.502 0.000 0.000
v -1.60616 -0.23387 2.11320 0.502 0.000 0.000
v -1.67987 -0.19116 2.06627 0.502 0.000 0.000
v -1.63967 -0.13369 1.80947 0.502 0.000 0.000
v -1.63967 -0.19427 1.88581 0.502 0.000 0.000
v -1.53859 -0.16105 1.82961 0.502 0.000 0.000
v -1.55830 -0.23405 1.92272 0.502 0.000 0.000
v -1.56143 -0.19139 1.79602 0.502 0.000 0.000
v -1.65839 -0.15887 1.78193 0.502 0.000 0.000
v -1.55659 -0.15473 1.70813 0.502 0.000 0.000
v -1.66621 -0.12843 1.70986 0.502 0.000 0.000
v -1.63967 -0.06761 1.75005 0.502 0.000 0.000
v -1.54739 -0.08145 1.75714 0.502 0.000 0.000
v -1.63388 -0.07396 1.78499 0.502 0.000 0.000
v -1.55124 -0.08910 1.79977 0.502 0.000 0.000
v -1.61946 0.00000 1.84061 0.502 0.000 0.000
v -1.53365 0.00000 1.86761 0.502 0.000 0.000
v -1.55124 0.08910 1.79977 0.502 0.000 0.000
v -1.63388 0.07396 1.78499 0.502 0.000 0.000
v -1.54739 0.08145 1.75714 0.502 0.000 0.000
v -1.63967 0.06761 1.75005 0.502 0.000 0.000
v -1.55659 0.15473 1.70813 0.502 0.000 0.000
v -1.66621 0.12843 1.70986 0.502 0.000 0.000
v -1.65839 0.15887 1.78193 0.502 0.000 0.000
v -1.56143 0.19139 1.79602 0.502 0.000 0.000
v -1.63967 0.13369 1.80947 0.502 0.000 0.000
v -1.53859 0.16105 1.82961 0.502 0.000 0.000
v -1.63967 0.19427 1.88581 0.502 0.000 0.000
v -1.55830 0.23405 1.92272 0.502 0.000 0.000
v -1.55723 0.27029 1.82653 0.502 0.000 0.000
v -1.67540 0.22437 1.80693 0.502 0.000 0.000
v -1.68626 0.28066 1.79728 0.502 0.000 0.000
v -1.57550 0.37858 1.82045 0.502 0.000 0.000
v -1.55723 -0.27029 1.82653 0.502 0.000 0.000
v -1.67540 -0.22437 1.80693 0.502 0.000 0.000
v -1.68626 -0.28066 1.79728 0.502 0.000 0.000
v -1.57550 -0.37858 1.82045 0.502 0.000 0.000
vt 0.42969 0.05469
vt 0.42969 0.13281
vt 0.35363 0.05469
vt 0.35363 0.13281
vt 0.15791 0.05469
vt 0.15791 0.13281
vt 0.18523 0.05469
vt 0.18523 0.13281
vt 0.07484 0.05469
vt 0.07484 0.13281
vt 0.00781 0.05469
vt 0.00781 0.13281
vt 0.42969 0.05469
vt 0.35245 0.05469
vt 0.42969 0.13281
vt 0.35245 0.13281
vt 0.15673 0.05469
vt 0.15673 0.13281
vt 0.18405 0.05469
vt 0.18405 0.13281
vt 0.07366 0.05469
vt 0.07366 0.13281
vt 0.00781 0.05469
vt 0.00781 0.13281
vt 0.16372 0.05469
vt 0.16372 0.13281
vt 0.00781 0.05469
vt 0.00781 0.13281
vt 0.23945 0.05469
vt 0.23945 0.13281
vt 0.42969 0.05469
vt 0.42969 0.13281
vt 0.30397 0.05469
vt 0.30397 0.13281
vt 0.42969 0.05469
vt 0.42969 0.13281
vt 0.16001 0.13281
vt 0.16001 0.05469
vt 0.00781 0.13281
vt 0.00781 0.05469
vt 0.15935 0.05469
vt 0.15935 0.13281
vt 0.30331 0.05469
vt 0.30331 0.13281
vt 0.42969 0.05469
vt 0.42969 0.13281
vt 0.25008 0.05469
vt 0.25008 0.13281
vt 0.00781 0.05469
vt 0.00781 0.13281
vt 0.42969 0.13281
vt 0.42969 0.05469
vt 0.00781 0.05469
vt 0.00781 0.13281
vt 0.16428 0.05469
vt 0.16428 0.13281
vt 0.24000 0.05469
vt 0.24000 0.13281
vt 0.42969 0.05469
vt 0.42969 0.13281
vt 0.25131 0.05469
vt 0.00781 0.05469
vt 0.25131 0.13281
vt 0.00781 0.13281
vt 0.42969 0.13281
vt 0.42969 0.05469
vt 0.15488 0.29233
vt 0.15645 0.37145
vt 0.09772 0.35860
vt 0.22445 0.36361
vt 0.19397 0.43571
vt 0.17857 0.54228
vt 0.00781 0.54475
vt 0.09747 0.40797
vt 0.00781 0.42681
vt 0.15239 0.66551
vt 0.00781 0.79359
vt 0.16156 0.71003
vt 0.25781 0.66992
vt 0.25781 0.54097
vt 0.25781 0.77344
vt 0.25781 0.95993
vt 0.00781 0.99025
vt 0.25781 0.95993
vt 0.25781 0.77344
vt 0.16073 0.71003
vt 0.15157 0.66551
vt 0.09741 0.40797
vt 0.15563 0.37145
vt 0.09767 0.35860
vt 0.15405 0.29233
vt 0.22363 0.36361
vt 0.19315 0.43571
vt 0.17774 0.54228
vt 0.25781 0.54097
vt 0.25781 0.66992
vt 0.44531 0.54475
vt 0.25781 0.54097
vt 0.44531 0.74535
vt 0.25781 0.66992
vt 0.32344 0.75899
vt 0.41406 0.85156
vt 0.31871 0.79601
vt 0.25781 0.95993
vt 0.28795 0.78809
vt 0.25781 0.44613
vt 0.41283 0.44613
vt 0.25781 0.77344
vt 0.41406 0.85156
vt 0.00781 0.61795
vt 0.24219 0.96156
vt 0.00781 0.99025
vt 0.24219 0.96156
vt 0.41406 0.85156
vt 0.44531 0.61795
vt 0.41406 0.85156
vt 0.24219 0.96156
vt 0.00781 0.99025
vt 0.24219 0.96156
vt 0.41406 0.85156
vt 0.44531 0.61795
vt 0.47652 0.71544
vt 0.55451 0.82031
vt 0.55451 0.75630
vt 0.55451 0.75709
vt 0.55451 0.61468
vt 0.55451 0.61548
vt 0.47652 0.46199
vt 0.55451 0.49750
vt 0.55451 0.46199
vt 0.47652 0.46199
vt 0.55451 0.49671
vt 0.55451 0.46199
vt 0.56943 0.82031
vt 0.64862 0.82031
vt 0.56943 0.61641
vt 0.64862 0.50820
vt 0.56943 0.82031
vt 0.56943 0.56708
vt 0.64862 0.82031
vt 0.64862 0.45888
vt 0.00781 0.27344
vt 0.07227 0.21224
vt 0.13281 0.27344
vt 0.13281 0.14844
vt 0.00781 0.14844
vt 0.20895 0.29593
vt 0.43016 0.44189
vt 0.43289 0.29593
vt 0.43289 0.29593
vt 0.43016 0.44189
vt 0.48630 0.35791
vt 0.51482 0.44189
vt 0.56308 0.35791
vt 0.64844 0.44189
vt 0.64844 0.29989
vt 0.20895 0.29593
vt 0.43289 0.29593
vt 0.43016 0.14844
vt 0.43289 0.29593
vt 0.48630 0.23276
vt 0.43016 0.14844
vt 0.51482 0.14844
vt 0.56308 0.23276
vt 0.64844 0.14844
vt 0.64844 0.29989
vt 0.77344 0.99219
vt 0.88281 0.99219
vt 0.77344 0.84703
vt 0.88281 0.84703
vt 0.77344 0.70322
vt 0.88281 0.70322
vt 0.77344 0.54338
vt 0.88281 0.54338
vt 0.77344 0.40917
vt 0.88281 0.40917
vt 0.77344 0.54338
vt 0.88281 0.54338
vt 0.77344 0.70322
vt 0.88281 0.70322
vt 0.77344 0.84703
vt 0.88281 0.84703
vt 0.77344 0.99219
vt 0.88281 0.99219
vt 0.88281 0.84703
vt 0.77344 0.84703
vt 0.88281 0.70322
vt 0.77344 0.70322
vt 0.88281 0.54338
vt 0.77344 0.54338
vt 0.88281 0.40917
vt 0.77344 0.40917
vt 0.88281 0.54338
vt 0.77344 0.54338
vt 0.88281 0.70322
vt 0.77344 0.70322
vt 0.88281 0.84703
vt 0.77344 0.84703
vt 0.88281 0.99219
vt 0.77344 0.99219
vt 0.75781 0.86221
vt 0.66406 0.75975
vt 0.75781 0.65298
vt 0.66406 0.99219
vt 0.75781 0.99219
vt 0.75781 0.86221
vt 0.66406 0.75975
vt 0.75781 0.65298
vt 0.66406 0.44720
vt 0.75781 0.53982
vt 0.75781 0.35223
vt 0.66406 0.24219
vt 0.75781 0.24219
vt 0.75781 0.36263
vt 0.66406 0.45309
vt 0.75781 0.54571
vt 0.66406 0.77056
vt 0.75781 0.67192
vt 0.75781 0.86221
vt 0.66406 0.99219
vt 0.75781 0.99219
vt 0.75781 0.86221
vt 0.66406 0.77056
vt 0.75781 0.67192
vt 0.75781 0.54571
vt 0.66406 0.45309
vt 0.75781 0.36263
vt 0.66406 0.24219
vt 0.75781 0.24219
vt 0.75781 0.35223
vt 0.66406 0.44720
vt 0.75781 0.53982
vt 0.75781 0.53982
vt 0.75781 0.66496
vt 0.75781 0.35693
vt 0.75781 0.24219
vt 0.75781 0.35832
vt 0.75781 0.54571
vt 0.75781 0.67192
vt 0.75781 0.86221
vt 0.75781 0.99219
vt 0.75781 0.86221
vt 0.75781 0.67192
vt 0.75781 0.54571
vt 0.75781 0.35832
vt 0.75781 0.24219
vt 0.75781 0.35693
vt 0.75781 0.53982
vt 0.75781 0.66496
vt 0.75781 0.86221
vt 0.75781 0.99219
vt 0.75781 0.86221
vt 0.59406 0.03906
vt 0.59406 0.13281
vt 0.72656 0.03906
vt 0.72656 0.13281
vt 0.60950 0.08284
vt 0.50948 0.03906
vt 0.50554 0.13281
vt 0.44856 0.08284
vt 0.50484 0.13281
vt 0.50877 0.03906
vt 0.59336 0.13281
vt 0.59336 0.03906
vt 0.72656 0.03906
vt 0.72656 0.13281
vt 0.60879 0.08284
vt 0.77344 0.62090
vt 0.77344 0.45655
vt 0.88281 0.62090
vt 0.88281 0.89771
vt 0.77344 0.89771
vt 0.88281 0.55316
vt 0.77344 0.55316
vt 0.88281 0.62090
vt 0.88281 0.55316
vt 0.88281 0.89771
vt 0.77344 0.89771
vt 0.88281 0.89771
vt 0.77344 0.62090
vt 0.88281 0.62090
vt 0.77344 0.45655
vt 0.88281 0.62090
vt 0.88281 0.89771
vt 0.66406 0.99219
vt 0.75781 0.99219
vt 0.66406 0.57435
vt 0.75781 0.57435
vt 0.66406 0.24219
vt 0.75781 0.24219
vt 0.75781 0.57435
vt 0.66406 0.57435
vt 0.75781 0.99219
vt 0.66406 0.99219
vt 0.77344 0.61850
vt 0.77344 0.45449
vt 0.88281 0.61850
vt 0.88281 0.61850
vt 0.88281 0.89771
vt 0.77344 0.89771
vt 0.77344 0.70070
vt 0.88281 0.89771
vt 0.88281 0.70070
vt 0.88281 0.40365
vt 0.77344 0.40365
vt 0.88281 0.40365
vt 0.88281 0.70070
vt 0.77344 0.70070
vt 0.88281 0.70070
vt 0.88281 0.89771
vt 0.77344 0.89771
vt 0.88281 0.70070
vt 0.88281 0.89771
vt 0.77344 0.61850
vt 0.88281 0.61850
vt 0.77344 0.45449
vt 0.88281 0.61850
vt 0.75781 0.51607
vt 0.66406 0.51607
vt 0.75781 0.67729
vt 0.66406 0.67729
vt 0.66406 0.31510
vt 0.75781 0.31510
vt 0.75781 0.93988
vt 0.66406 0.93988
vt 0.75781 0.51607
vt 0.66406 0.51607
vt 0.75781 0.67729
vt 0.66406 0.67729
vt 0.75781 0.93988
vt 0.66406 0.93988
vt 0.13281 0.27344
vt 0.00781 0.14844
vt 0.00781 0.27344
vt 0.13281 0.14844
vt 0.13281 0.27344
vt 0.00781 0.14844
vt 0.00781 0.27344
vt 0.13281 0.14844
vt 0.13281 0.27344
vt 0.00781 0.14844
vt 0.00781 0.27344
vt 0.13281 0.14844
vt 0.13281 0.27344
vt 0.00781 0.14844
vt 0.00781 0.27344
vt 0.13281 0.14844
vt 0.54883 0.14844
vt 0.54883 0.27878
vt 0.64844 0.14844
vt 0.64844 0.27878
vt 0.53581 0.27878
vt 0.46492 0.27878
vt 0.46492 0.14844
vt 0.54170 0.40330
vt 0.64844 0.40330
vt 0.54170 0.27878
vt 0.64844 0.27878
vt 0.52868 0.27878
vt 0.46492 0.27878
vt 0.46492 0.40330
vt 0.31074 0.27878
vt 0.37594 0.14844
vt 0.46492 0.27878
vt 0.46492 0.14844
vt 0.31074 0.27878
vt 0.46492 0.27878
vt 0.35638 0.40330
vt 0.46492 0.40330
vt 0.43289 0.29593
vt 0.43016 0.44189
vt 0.20895 0.29593
vt 0.43289 0.29593
vt 0.48630 0.35791
vt 0.43016 0.44189
vt 0.55441 0.44189
vt 0.64844 0.35791
vt 0.64844 0.44189
vt 0.20895 0.29593
vt 0.43016 0.14844
vt 0.43289 0.29593
vt 0.43289 0.29593
vt 0.43016 0.14844
vt 0.48630 0.23276
vt 0.55441 0.14844
vt 0.64844 0.23276
vt 0.64844 0.14844
vt 0.54883 0.14844
vt 0.54883 0.27878
vt 0.64844 0.14844
vt 0.64844 0.27878
vt 0.53581 0.27878
vt 0.46492 0.27878
vt 0.46492 0.14844
vt 0.54170 0.40330
vt 0.64844 0.40330
vt 0.54170 0.27878
vt 0.64844 0.27878
vt 0.52868 0.27878
vt 0.46492 0.27878
vt 0.46492 0.40330
vt 0.31074 0.27878
vt 0.37594 0.14844
vt 0.46492 0.27878
vt 0.46492 0.14844
vt 0.31074 0.27385
vt 0.46492 0.27385
vt 0.37594 0.39744
vt 0.46492 0.39744
vt 0.43289 0.29593
vt 0.43016 0.44189
vt 0.20895 0.29593
vt 0.43289 0.29593
vt 0.48630 0.35791
vt 0.43016 0.44189
vt 0.55441 0.44189
vt 0.64844 0.35791
vt 0.64844 0.44189
vt 0.20895 0.29593
vt 0.43016 0.14844
vt 0.43289 0.29593
vt 0.43289 0.29593
vt 0.43016 0.14844
vt 0.48630 0.23276
vt 0.55441 0.14844
vt 0.64844 0.23276
vt 0.64844 0.14844
vt 0.30182 0.99219
vt 0.47656 0.99219
vt 0.47656 0.99219
vt 0.47656 0.83594
vt 0.30182 0.99219
vt 0.47656 0.99219
vt 0.39391 0.90774
vt 0.47656 0.99219
vt 0.47656 0.83594
vt 0.30182 0.99219
vt 0.39391 0.90774
vt 0.47656 0.99219
vt 0.47656 0.83551
vt 0.47656 0.99219
vt 0.30182 0.99219
vt 0.39391 0.90774
vt 0.47656 0.99219
vt 0.47656 0.83551
vt 0.47656 0.99219
vt 0.25781 0.77344
vt 0.28878 0.78809
vt 0.25781 0.95993
vt 0.31953 0.79601
vt 0.41406 0.85156
vt 0.32426 0.75899
vt 0.44531 0.74535
vt 0.25781 0.66992
vt 0.25781 0.54097
vt 0.44531 0.54475
vt 0.25781 0.44613
vt 0.41283 0.44613
vt 0.47652 0.56595
vt 0.47652 0.70224
vt 0.55451 0.46199
vt 0.55451 0.68997
vt 0.47652 0.82031
vt 0.55451 0.82031
vt 0.56943 0.69303
vt 0.64862 0.64592
vt 0.56943 0.56282
vt 0.64862 0.45888
vt 0.64862 0.82031
vt 0.56943 0.82031
vt 0.47652 0.56608
vt 0.55451 0.46199
vt 0.47652 0.70296
vt 0.55451 0.69069
vt 0.47652 0.82031
vt 0.55451 0.82031
vt 0.56943 0.72486
vt 0.56943 0.63786
vt 0.64862 0.67775
vt 0.64862 0.53382
vt 0.64862 0.82031
vt 0.56943 0.82031
vt 0.77344 0.57880
vt 0.77344 0.76818
vt 0.99219 0.57880
vt 0.99219 0.76818
vt 0.88281 0.99219
vt 0.77344 0.99219
vt 0.99219 0.40917
vt 0.77344 0.40917
vt 0.99219 0.48605
vt 0.77344 0.48605
vt 0.99219 0.61224
vt 0.77344 0.61224
vt 0.99219 0.72968
vt 0.77344 0.72968
vt 0.99219 0.85312
vt 0.77344 0.85312
vt 0.99219 0.99219
vt 0.77344 0.99219
vt 0.77344 0.85312
vt 0.99219 0.85312
vt 0.77344 0.72968
vt 0.99219 0.72968
vt 0.77344 0.61224
vt 0.99219 0.61224
vt 0.77344 0.48605
vt 0.99219 0.48605
vt 0.77344 0.40917
vt 0.99219 0.40917
vt 0.77344 0.57880
vt 0.99219 0.57880
vt 0.77344 0.76818
vt 0.99219 0.76818
vt 0.88281 0.99219
vt 0.99219 0.99219
vt 0.77344 0.99219
vt 0.88281 0.40795
vt 0.86416 0.25708
vt 0.99219 0.40795
vt 0.99219 0.25708
vt 0.99219 0.03906
vt 0.80886 0.15483
vt 0.74219 0.03906
vt 0.80886 0.15483
vt 0.86416 0.25708
vt 0.99219 0.25708
vt 0.99219 0.40795
vt 0.88281 0.40795
vt 0.99219 0.99219
vt 0.94384 0.03906
vt 0.96687 0.03906
vt 0.86416 0.25708
vt 0.80886 0.15483
vt 0.74219 0.03906
vt 0.80886 0.15483
vt 0.99219 0.25708
vt 0.88281 0.42785
vt 0.99219 0.42785
vt 0.88281 0.67655
vt 0.99219 0.67655
vt 0.88281 0.80888
vt 0.99219 0.80888
vt 0.88281 0.99219
vt 0.99219 0.99219
vt 0.88281 0.88919
vt 0.99219 0.88919
vt 0.88281 0.78610
vt 0.99219 0.78610
vt 0.88281 0.63975
vt 0.99219 0.63975
vt 0.88281 0.51528
vt 0.99219 0.51528
vt 0.88281 0.39822
vt 0.99219 0.39822
vt 0.99219 0.51528
vt 0.88281 0.51528
vt 0.99219 0.63975
vt 0.88281 0.63975
vt 0.99219 0.78610
vt 0.88281 0.78610
vt 0.99219 0.88919
vt 0.88281 0.88919
vt 0.99219 0.99219
vt 0.88281 0.99219
vt 0.99219 0.80888
vt 0.88281 0.80888
vt 0.99219 0.67655
vt 0.88281 0.67655
vt 0.99219 0.42785
vt 0.88281 0.42785
vt 0.99219 0.25708
vt 0.86416 0.25708
vt 0.99219 0.03906
vt 0.00781 0.27344
vt 0.13281 0.27344
vt 0.07227 0.21224
vt 0.13281 0.14844
vt 0.00781 0.14844
vt 0.20895 0.29593
vt 0.43289 0.29593
vt 0.43016 0.44189
vt 0.43289 0.29593
vt 0.48630 0.35791
vt 0.43016 0.44189
vt 0.51482 0.44189
vt 0.56308 0.35791
vt 0.64844 0.44189
vt 0.64844 0.29989
vt 0.20895 0.29593
vt 0.43016 0.14844
vt 0.43289 0.29593
vt 0.43289 0.29593
vt 0.43016 0.14844
vt 0.48630 0.23276
vt 0.51482 0.14844
vt 0.56308 0.23276
vt 0.64844 0.14844
vt 0.64844 0.29989
vt 0.53799 0.95048
vt 0.56308 0.85449
vt 0.55599 0.94618
vt 0.49219 0.85156
vt 0.52109 0.98070
vt 0.49219 0.99219
vt 0.61411 0.87199
vt 0.56859 0.95520
vt 0.59492 0.96549
vt 0.62343 0.97996
vt 0.64844 0.92200
vt 0.64844 0.98683
vt 0.56729 0.98134
vt 0.59419 0.99679
vt 0.52109 0.98070
vt 0.53799 0.95048
vt 0.56308 0.85449
vt 0.55599 0.94618
vt 0.61411 0.87199
vt 0.56859 0.95520
vt 0.59492 0.96549
vt 0.62343 0.97996
vt 0.64844 0.92200
vt 0.64844 0.98683
vt 0.56729 0.98134
vt 0.59419 0.99679
vt 0.64844 0.86719
vt 0.49219 0.92575
vt 0.64844 0.97197
vt 0.49219 0.99219
vt 0.49219 0.85176
vt 0.64844 0.86719
vt 0.64844 0.97197
vt 0.64844 0.97197
vt 0.49219 0.92575
vt 0.64844 0.86719
vt 0.49219 0.99219
vt 0.49219 0.85211
vt 0.64844 0.86719
vt 0.64844 0.97197
vt 0.26113 0.02634
vt 0.28004 0.02581
vt 0.23786 0.02587
vt 0.31520 0.02593
vt 0.30210 0.02566
vt 0.20043 0.02622
vt 0.28004 0.02417
vt 0.30210 0.02431
vt 0.31520 0.02404
vt 0.26113 0.02363
vt 0.23786 0.02410
vt 0.20043 0.02375
vt 0.32667 0.02388
vt 0.17482 0.02281
vt 0.21179 0.02406
vt 0.15006 0.02380
vt 0.10546 0.02329
vt 0.11106 0.02406
vt 0.02411 0.02375
vt 0.08711 0.02265
vt 0.36887 0.02499
vt 0.16613 0.02452
vt 0.20000 0.02499
vt 0.12880 0.02443
vt 0.09039 0.02499
vt 0.12880 0.02554
vt 0.16613 0.02546
vt 0.21179 0.02592
vt 0.32667 0.02609
vt 0.17482 0.02716
vt 0.15006 0.02617
vt 0.10546 0.02668
vt 0.11106 0.02591
vt 0.02411 0.02622
vt 0.08711 0.02732
vt 0.00860 0.00423
vt 0.48994 0.00504
vt 0.00860 0.00470
vt 0.48994 0.00538
vt 0.00860 0.00542
vt 0.48994 0.00592
vt 0.00860 0.00633
vt 0.48994 0.00659
vt 0.00860 0.00734
vt 0.48994 0.00734
vt 0.48994 0.00809
vt 0.00860 0.00835
vt 0.48994 0.00876
vt 0.00860 0.00926
vt 0.48994 0.00930
vt 0.00860 0.00998
vt 0.48994 0.00964
vt 0.00860 0.01045
vt 0.48994 0.00903
vt 0.48994 0.00893
vt 0.00860 0.00842
vt 0.00860 0.00822
vt 0.00860 0.01025
vt 0.48994 0.00948
vt 0.48994 0.00993
vt 0.00860 0.00999
vt 0.48994 0.00981
vt 0.00860 0.01102
vt 0.48994 0.01032
vt 0.00860 0.01092
vt 0.48994 0.01026
vt 0.48994 0.00643
vt 0.00860 0.00676
vt 0.48994 0.00649
vt 0.00860 0.00687
vt 0.00860 0.00578
vt 0.48994 0.00619
vt 0.48994 0.00595
vt 0.00860 0.00592
vt 0.48994 0.00602
vt 0.00860 0.00537
vt 0.48994 0.00574
vt 0.00860 0.00542
vt 0.48994 0.00577
vt 0.48994 0.00624
vt 0.48994 0.00575
vt 0.00860 0.00602
vt 0.00860 0.00542
vt 0.00860 0.00577
vt 0.48994 0.00604
vt 0.00860 0.00607
vt 0.48994 0.00629
vt 0.48994 0.00679
vt 0.00860 0.00667
vt 0.48994 0.00673
vt 0.00860 0.00661
vt 0.48994 0.00734
vt 0.00860 0.00734
vt 0.00860 0.00807
vt 0.48994 0.00795
vt 0.00860 0.00801
vt 0.48994 0.00790
vt 0.00860 0.00861
vt 0.48994 0.00840
vt 0.48994 0.00864
vt 0.00860 0.00891
vt 0.48994 0.00844
vt 0.00860 0.00866
vt 0.48994 0.00893
vt 0.00860 0.00926
vt 0.00860 0.00956
vt 0.48994 0.00918
vt 0.48994 0.00964
vt 0.00860 0.01045
vt 0.00860 0.00512
vt 0.48994 0.00550
vt 0.48994 0.00504
vt 0.00860 0.00423
usemtl m0
f 1/1 2/2 3/3
f 2/2 4/4 3/3
f 3/3 4/4 5/5
f 4/4 6/6 5/5
f 1/1 7/7 2/2
f 7/7 8/8 2/2
f 7/7 9/9 8/8
f 9/9 10/10 8/8
f 5/5 6/6 11/11
f 9/9 11/11 10/10
f 6/6 12/12 11/11
f 11/11 12/12 10/10
f 13/13 14/14 15/15
f 14/14 16/16 15/15
f 14/14 17/17 16/16
f 17/17 18/18 16/16
f 13/13 15/15 19/19
f 15/15 20/20 19/19
f 19/19 20/20 21/21
f 20/20 22/22 21/21
f 17/17 23/23 18/18
f 21/21 22/22 23/23
f 23/23 24/24 18/18
f 22/22 24/24 23/23
f 25/25 26/26 27/27
f 26/26 28/28 27/27
f 25/25 29/29 26/26
f 29/29 30/30 26/26
f 29/29 31/31 30/30
f 31/31 32/32 30/30
f 33/33 34/34 35/35
f 34/34 36/36 35/35
f 37/37 34/34 33/33
f 38/38 37/37 33/33
f 39/39 37/37 38/38
f 40/40 39/39 38/38
f 40/40 41/41 39/39
f 41/41 42/42 39/39
f 41/41 43/43 42/42
f 43/43 44/44 42/42
f 43/43 45/45 44/44
f 45/45 46/46 44/44
f 47/47 48/48 49/49
f 48/48 50/50 49/49
f 51/51 48/48 47/47
f 52/52 51/51 47/47
f 53/53 54/54 55/55
f 54/54 56/56 55/55
f 55/55 56/56 57/57
f 56/56 58/58 57/57
f 57/57 58/58 59/59
f 58/58 60/60 59/59
f 61/61 62/62 63/63
f 62/62 64/64 63/63
f 61/61 63/63 65/65
f 66/66 61/61 65/65
f 67/67 68/68 69/69
f 70/70 68/68 67/67
f 71/71 68/68 70/70
f 72/72 68/68 71/71
f 72/72 73/73 68/68
f 68/68 73/73 74/74
f 68/68 74/74 69/69
f 73/73 75/75 74/74
f 76/76 73/73 72/72
f 77/77 73/73 76/76
f 78/78 77/77 76/76
f 76/76 72/72 79/79
f 72/72 80/80 79/79
f 80/80 72/72 71/71
f 78/78 81/81 77/77
f 82/82 77/77 81/81
f 83/83 77/77 82/82
f 83/83 84/84 77/77
f 85/85 77/77 84/84
f 86/86 77/77 85/85
f 86/86 87/87 77/77
f 87/87 73/73 77/77
f 75/75 73/73 88/88
f 73/73 89/89 88/88
f 89/89 90/90 88/88
f 90/90 89/89 91/91
f 91/91 89/89 92/92
f 92/92 89/89 93/93
f 89/89 94/94 93/93
f 94/94 95/95 93/93
f 95/95 94/94 96/96
f 94/94 87/87 96/96
f 94/94 73/73 87/87
f 89/89 73/73 94/94
f 97/97 98/98 99/99
f 98/98 100/100 99/99
f 99/99 100/100 101/101
f 99/99 101/101 102/102
f 101/101 103/103 102/102
f 103/103 104/104 102/102
f 105/105 104/104 103/103
f 98/98 97/97 106/106
f 97/97 107/107 106/106
f 104/104 105/105 108/108
f 109/109 110/110 111/111
f 111/111 110/110 112/112
f 112/112 110/110 113/113
f 113/113 110/110 114/114
f 114/114 110/110 115/115
f 115/115 110/110 116/116
f 116/116 110/110 117/117
f 117/117 110/110 118/118
f 118/118 110/110 119/119
f 119/119 110/110 120/120
f 120/120 110/110 121/121
f 121/121 110/110 109/109
f 122/122 123/123 124/124
f 125/125 123/123 122/122
f 122/122 124/124 126/126
f 127/127 125/125 122/122
f 128/128 127/127 122/122
f 128/128 129/129 127/127
f 128/128 130/130 129/129
f 122/122 126/126 131/131
f 126/126 132/132 131/131
f 132/132 133/133 131/131
f 134/134 135/135 136/136
f 135/135 137/137 136/136
f 138/138 139/139 140/140
f 139/139 141/141 140/140
f 142/142 143/143 144/144
f 144/144 143/143 145/145
f 142/142 146/146 143/143
f 146/146 145/145 143/143
f 147/147 148/148 149/149
f 150/150 151/151 152/152
f 152/152 151/151 153/153
f 152/152 153/153 154/154
f 153/153 155/155 154/154
f 154/154 155/155 156/156
f 157/157 158/158 159/159
f 160/160 161/161 162/162
f 161/161 163/163 162/162
f 161/161 164/164 163/163
f 164/164 165/165 163/163
f 164/164 166/166 165/165
f 167/167 168/168 169/169
f 168/168 170/170 169/169
f 169/169 170/170 171/171
f 170/170 172/172 171/171
f 171/171 172/172 173/173
f 172/172 174/174 173/173
f 173/173 174/174 175/175
f 174/174 176/176 175/175
f 175/175 176/176 177/177
f 176/176 178/178 177/177
f 177/177 178/178 179/179
f 178/178 180/180 179/179
f 179/179 180/180 181/181
f 180/180 182/182 181/181
f 181/181 182/182 183/183
f 182/182 184/184 183/183
f 183/183 184/184 185/185
f 185/185 186/186 183/183
f 186/186 185/185 187/187
f 187/187 188/188 186/186
f 188/188 187/187 189/189
f 189/189 190/190 188/188
f 190/190 189/189 191/191
f 191/191 192/192 190/190
f 192/192 191/191 193/193
f 193/193 194/194 192/192
f 194/194 193/193 195/195
f 195/195 196/196 194/194
f 195/195 197/197 196/196
f 197/197 198/198 196/196
f 197/197 199/199 198/198
f 199/199 200/200 198/198
f 201/201 202/202 203/203
f 204/204 202/202 201/201
f 205/205 204/204 201/201
f 205/205 206/206 204/204
f 206/206 207/207 204/204
f 208/208 207/207 206/206
f 209/209 207/207 208/208
f 210/210 209/209 208/208
f 211/211 209/209 210/210
f 212/212 209/209 211/211
f 213/213 212/212 211/211
f 213/213 214/214 212/212
f 214/214 215/215 212/212
f 216/216 215/215 214/214
f 217/217 215/215 216/216
f 218/218 217/217 216/216
f 219/219 217/217 218/218
f 220/220 217/217 219/219
f 221/221 220/220 219/219
f 221/221 222/222 220/220
f 222/222 223/223 220/220
f 224/224 223/223 222/222
f 224/224 225/225 223/223
f 225/225 226/226 223/223
f 227/227 226/226 225/225
f 228/228 226/226 227/227
f 229/229 228/228 227/227
f 229/229 230/230 228/228
f 230/230 231/231 228/228
f 232/232 231/231 230/230
f 232/232 203/203 231/231
f 203/203 202/202 231/231
f 233/233 231/231 202/202
f 234/234 233/233 202/202
f 235/235 231/231 233/233
f 228/228 231/231 235/235
f 236/236 228/228 235/235
f 236/236 237/237 228/228
f 237/237 226/226 228/228
f 238/238 226/226 237/237
f 238/238 239/239 226/226
f 239/239 223/223 226/226
f 240/240 223/223 239/239
f 220/220 223/223 240/240
f 241/241 220/220 240/240
f 241/241 242/242 220/220
f 242/242 217/217 220/220
f 243/243 217/217 242/242
f 215/215 217/217 243/243
f 244/244 215/215 243/243
f 245/245 215/215 244/244
f 212/212 215/215 245/245
f 246/246 212/212 245/245
f 246/246 247/247 212/212
f 247/247 209/209 212/212
f 248/248 209/209 247/247
f 207/207 209/209 248/248
f 249/249 207/207 248/248
f 250/250 207/207 249/249
f 204/204 207/207 250/250
f 251/251 204/204 250/250
f 251/251 252/252 204/204
f 252/252 202/202 204/204
f 234/234 202/202 252/252
f 253/253 254/254 255/255
f 254/254 256/256 255/255
f 256/256 257/257 255/255
f 253/253 258/258 254/254
f 258/258 259/259 254/254
f 258/258 260/260 259/259
f 261/261 260/260 262/262
f 263/263 261/261 262/262
f 264/264 263/263 262/262
f 264/264 265/265 263/263
f 265/265 266/266 263/263
f 265/265 267/267 266/266
f 268/268 269/269 270/270
f 268/268 270/270 271/271
f 272/272 268/268 271/271
f 272/272 271/271 273/273
f 274/274 272/272 273/273
f 275/275 269/269 268/268
f 274/274 276/276 272/272
f 276/276 277/277 272/272
f 275/275 268/268 277/277
f 268/268 272/272 277/277
f 278/278 274/274 273/273
f 276/276 274/274 278/278
f 279/279 278/278 273/273
f 278/278 279/279 280/280
f 279/279 281/281 280/280
f 280/280 281/281 282/282
f 283/283 280/280 282/282
f 284/284 276/276 278/278
f 283/283 284/284 280/280
f 284/284 278/278 280/280
f 285/285 286/286 287/287
f 286/286 288/288 287/287
f 289/289 287/287 288/288
f 290/290 289/289 288/288
f 290/290 291/291 289/289
f 291/291 292/292 289/289
f 292/292 291/291 293/293
f 294/294 292/292 293/293
f 295/295 296/296 297/297
f 298/298 296/296 295/295
f 298/298 295/295 299/299
f 295/295 300/300 299/299
f 300/300 301/301 299/299
f 302/302 301/301 300/300
f 300/300 295/295 302/302
f 295/295 297/297 302/302
f 303/303 301/301 302/302
f 301/301 303/303 304/304
f 305/305 301/301 304/304
f 305/305 306/306 301/301
f 306/306 307/307 301/301
f 299/299 301/301 307/307
f 308/308 305/305 304/304
f 306/306 305/305 308/308
f 309/309 308/308 304/304
f 309/309 310/310 308/308
f 310/310 311/311 308/308
f 312/312 306/306 308/308
f 313/313 312/312 308/308
f 311/311 313/313 308/308
f 313/313 311/311 314/314
f 311/311 310/310 314/314
f 315/315 313/313 314/314
f 315/315 314/314 316/316
f 314/314 317/317 316/316
f 310/310 317/317 314/314
f 318/318 319/319 320/320
f 320/320 319/319 321/321
f 322/322 319/319 318/318
f 323/323 322/322 318/318
f 324/324 320/320 321/321
f 325/325 324/324 321/321
f 323/323 326/326 322/322
f 326/326 327/327 322/322
f 326/326 328/328 327/327
f 328/328 329/329 327/327
f 329/329 328/328 330/330
f 331/331 329/329 330/330
f 332/332 333/333 334/334
f 332/332 335/335 333/333
f 336/336 337/337 338/338
f 336/336 339/339 337/337
f 340/340 341/341 342/342
f 340/340 343/343 341/341
f 344/344 345/345 346/346
f 344/344 347/347 345/345
f 348/348 349/349 350/350
f 349/349 351/351 350/350
f 349/349 348/348 352/352
f 348/348 353/353 352/352
f 354/354 353/353 348/348
f 355/355 356/356 357/357
f 356/356 358/358 357/357
f 355/355 357/357 359/359
f 360/360 355/355 359/359
f 361/361 355/355 360/360
f 362/362 363/363 364/364
f 363/363 365/365 364/364
f 366/366 367/367 368/368
f 367/367 369/369 368/368
f 370/370 371/371 372/372
f 373/373 374/374 375/375
f 374/374 376/376 375/375
f 374/374 377/377 376/376
f 377/377 378/378 376/376
f 379/379 380/380 381/381
f 382/382 383/383 384/384
f 383/383 385/385 384/384
f 384/384 385/385 386/386
f 385/385 387/387 386/386
f 388/388 389/389 390/390
f 389/389 391/391 390/390
f 389/389 388/388 392/392
f 388/388 393/393 392/392
f 394/394 393/393 388/388
f 395/395 396/396 397/397
f 396/396 398/398 397/397
f 395/395 397/397 399/399
f 400/400 395/395 399/399
f 401/401 395/395 400/400
f 402/402 403/403 404/404
f 403/403 405/405 404/404
f 406/406 407/407 408/408
f 407/407 409/409 408/408
f 410/410 411/411 412/412
f 413/413 414/414 415/415
f 414/414 416/416 415/415
f 414/414 417/417 416/416
f 417/417 418/418 416/416
f 419/419 420/420 421/421
f 422/422 423/423 424/424
f 423/423 425/425 424/424
f 424/424 425/425 426/426
f 425/425 427/427 426/426
f 428/428 429/429 430/430
f 430/430 429/429 431/431
f 432/432 433/433 434/434
f 435/435 432/432 434/434
f 435/435 434/434 436/436
f 433/433 436/436 434/434
f 437/437 438/438 439/439
f 439/439 438/438 440/440
f 441/441 438/438 437/437
f 440/440 438/438 441/441
f 442/442 443/443 444/444
f 444/444 443/443 445/445
f 446/446 443/443 442/442
f 445/445 443/443 446/446
f 447/447 448/448 449/449
f 448/448 450/450 449/449
f 449/449 450/450 451/451
f 450/450 452/452 451/451
f 452/452 453/453 451/451
f 453/453 452/452 454/454
f 455/455 453/453 454/454
f 456/456 453/453 455/455
f 456/456 455/455 457/457
f 458/458 456/456 457/457
f 459/459 460/460 461/461
f 460/460 462/462 461/461
f 460/460 463/463 462/462
f 463/463 464/464 462/462
f 465/465 466/466 467/467
f 466/466 468/468 467/467
f 469/469 466/466 465/465
f 470/470 469/469 465/465
f 471/471 472/472 473/473
f 472/472 474/474 473/473
f 473/473 474/474 475/475
f 474/474 476/476 475/475
f 477/477 478/478 479/479
f 478/478 480/480 479/479
f 477/477 479/479 481/481
f 482/482 477/477 481/481
f 483/483 484/484 485/485
f 484/484 486/486 485/485
f 487/487 486/486 484/484
f 488/488 487/487 484/484
f 483/483 485/485 489/489
f 490/490 483/483 489/489
f 490/490 489/489 491/491
f 492/492 490/490 491/491
f 492/492 491/491 493/493
f 494/494 492/492 493/493
f 494/494 493/493 495/495
f 496/496 494/494 495/495
f 496/496 495/495 497/497
f 498/498 496/496 497/497
f 498/498 497/497 499/499
f 500/500 498/498 499/499
f 500/500 499/499 501/501
f 499/499 502/502 501/501
f 501/501 502/502 503/503
f 502/502 504/504 503/503
f 503/503 504/504 505/505
f 504/504 506/506 505/505
f 505/505 506/506 507/507
f 506/506 508/508 507/507
f 507/507 508/508 509/509
f 508/508 510/510 509/509
f 509/509 510/510 511/511
f 510/510 512/512 511/511
f 511/511 512/512 513/513
f 512/512 514/514 513/513
f 513/513 514/514 515/515
f 514/514 516/516 515/515
f 517/517 513/513 515/515
f 518/518 519/519 520/520
f 519/519 521/521 520/520
f 522/522 521/521 519/519
f 523/523 522/522 519/519
f 524/524 522/522 523/523
f 525/525 522/522 524/524
f 525/525 526/526 522/522
f 526/526 527/527 522/522
f 528/528 527/527 526/526
f 529/529 528/528 526/526
f 487/487 530/530 486/486
f 531/531 532/532 533/533
f 533/533 534/534 531/531
f 534/534 535/535 531/531
f 531/531 535/535 536/536
f 532/532 537/537 533/533
f 533/533 537/537 538/538
f 537/537 539/539 538/538
f 538/538 539/539 540/540
f 539/539 541/541 540/540
f 540/540 541/541 542/542
f 541/541 543/543 542/542
f 542/542 543/543 544/544
f 543/543 545/545 544/544
f 544/544 545/545 546/546
f 545/545 547/547 546/546
f 546/546 547/547 548/548
f 547/547 549/549 548/548
f 548/548 549/549 550/550
f 549/549 551/551 550/550
f 550/550 551/551 552/552
f 551/551 553/553 552/552
f 552/552 553/553 554/554
f 553/553 555/555 554/554
f 554/554 555/555 556/556
f 556/556 557/557 554/554
f 557/557 556/556 558/558
f 558/558 559/559 557/557
f 559/559 558/558 560/560
f 560/560 561/561 559/559
f 561/561 560/560 562/562
f 562/562 563/563 561/561
f 563/563 562/562 564/564
f 564/564 565/565 563/563
f 565/565 564/564 566/566
f 566/566 567/567 565/565
f 567/567 566/566 568/568
f 568/568 569/569 567/567
f 569/569 568/568 570/570
f 570/570 571/571 569/569
f 571/571 570/570 572/572
f 572/572 573/573 571/571
f 573/573 572/572 532/532
f 572/572 574/574 532/532
f 532/532 574/574 537/537
f 573/573 532/532 531/531
f 531/531 536/536 573/573
f 575/575 576/576 577/577
f 576/576 578/578 577/577
f 575/575 577/577 579/579
f 579/579 577/577 578/578
f 580/580 581/581 582/582
f 583/583 584/584 585/585
f 584/584 586/586 585/585
f 584/584 587/587 586/586
f 586/586 587/587 588/588
f 587/587 589/589 588/588
f 590/590 591/591 592/592
f 593/593 594/594 595/595
f 595/595 594/594 596/596
f 595/595 596/596 597/597
f 597/597 596/596 598/598
f 597/597 598/598 599/599
f 600/600 601/601 602/602
f 600/600 603/603 601/601
f 604/604 603/603 600/600
f 605/605 603/603 604/604
f 602/602 601/601 606/606
f 607/607 602/602 606/606
f 607/607 606/606 608/608
f 608/608 606/606 609/609
f 609/609 606/606 610/610
f 611/611 609/609 610/610
f 607/607 608/608 612/612
f 612/612 608/608 613/613
f 613/613 608/608 609/609
f 605/605 614/614 603/603
f 614/614 615/615 603/603
f 615/615 616/616 603/603
f 615/615 617/617 616/616
f 617/617 618/618 616/616
f 619/619 618/618 617/617
f 619/619 620/620 618/618
f 620/620 621/621 618/618
f 621/621 622/622 618/618
f 623/623 622/622 621/621
f 619/619 624/624 620/620
f 624/624 625/625 620/620
f 625/625 621/621 620/620
f 626/626 627/627 628/628
f 628/628 627/627 629/629
f 630/630 627/627 626/626
f 631/631 627/627 630/630
f 629/629 627/627 632/632
f 632/632 627/627 631/631
f 633/633 634/634 635/635
f 636/636 634/634 633/633
f 635/635 634/634 637/637
f 637/637 634/634 638/638
f 639/639 634/634 636/636
f 638/638 634/634 639/639
usemtl m1
f 640/640 641/641 642/642
f 643/643 641/641 640/640
f 644/644 641/641 643/643
f 640/640 642/642 645/645
f 646/646 647/647 648/648
f 649/649 646/646 648/648
f 650/650 646/646 649/649
f 650/650 649/649 651/651
f 652/652 653/653 654/654
f 653/653 655/655 654/654
f 655/655 653/653 656/656
f 657/657 655/655 656/656
f 658/658 657/657 656/656
f 656/656 653/653 659/659
f 652/652 654/654 660/660
f 661/661 660/660 654/654
f 662/662 660/660 661/661
f 662/662 661/661 663/663
f 664/664 662/662 663/663
f 662/662 664/664 665/665
f 666/666 662/662 665/665
f 662/662 666/666 660/660
f 666/666 667/667 660/660
f 660/660 667/667 668/668
f 668/668 667/667 669/669
f 667/667 670/670 669/669
f 670/670 671/671 669/669
f 672/672 671/671 670/670
f 673/673 671/671 672/672
f 669/669 671/671 674/674
f 675/675 676/676 677/677
f 676/676 678/678 677/677
f 677/677 678/678 679/679
f 678/678 680/680 679/679
f 679/679 680/680 681/681
f 680/680 682/682 681/681
f 681/681 682/682 683/683
f 682/682 684/684 683/683
f 684/684 685/685 683/683
f 685/685 686/686 683/683
f 685/685 687/687 686/686
f 687/687 688/688 686/686
f 687/687 689/689 688/688
f 689/689 690/690 688/688
f 689/689 691/691 690/690
f 691/691 692/692 690/690
f 693/693 694/694 695/695
f 694/694 696/696 695/695
f 695/695 697/697 693/693
f 693/693 697/697 698/698
f 699/699 698/698 697/697
f 696/696 694/694 700/700
f 694/694 701/701 700/700
f 700/700 701/701 702/702
f 701/701 703/703 702/702
f 699/699 697/697 704/704
f 702/702 703/703 704/704
f 705/705 699/699 704/704
f 703/703 705/705 704/704
f 706/706 707/707 708/708
f 707/707 709/709 708/708
f 707/707 706/706 710/710
f 706/706 711/711 710/710
f 712/712 710/710 711/711
f 708/708 709/709 713/713
f 714/714 708/708 713/713
f 714/714 713/713 715/715
f 716/716 714/714 715/715
f 717/717 710/710 712/712
f 716/716 715/715 717/717
f 718/718 717/717 712/712
f 718/718 716/716 717/717
f 719/719 720/720 721/721
f 720/720 722/722 721/721
f 723/723 721/721 719/719
f 724/724 723/723 719/719
f 724/724 723/723 725/725
f 726/726 724/724 725/725
f 727/727 726/726 725/725
f 728/728 727/727 725/725
f 729/729 727/727 728/728
f 730/730 729/729 728/728
f 731/731 729/729 730/730
f 732/732 731/731 730/730
f 731/731 732/732 733/733
f 734/734 731/731 733/733
f 734/734 733/733 735/735
f 736/736 734/734 735/735
f 736/736 735/735 737/737
f 738/738 736/736 737/737
f 738/738 737/737 739/739
f 737/737 740/740 739/739
f 739/739 740/740 741/741
f 740/740 742/742 741/741
f 741/741 742/742 743/743
f 742/742 744/744 743/743
f 743/743 744/744 745/745
f 746/746 743/743 745/745
f 746/746 745/745 747/747
f 745/745 748/748 747/747
f 722/722 720/720 749/749
f 720/720 750/750 749/749
f 750/750 751/751 749/749
f 751/751 752/752 749/749
