mtllib arms2073.mtl
o arms2073
v 0.86454 0.00000 1.93158 0.000 0.000 0.000
v 0.91926 -0.03438 1.75986 0.000 0.000 0.000
v 0.91926 -0.05472 1.93158 0.000 0.000 0.000
v 0.88488 0.00000 1.75986 0.000 0.000 0.000
v 0.86454 0.00000 1.63872 0.000 0.000 0.000
v 0.91926 -0.05472 1.63872 0.000 0.000 0.000
v 0.95382 0.00000 1.75986 0.000 0.000 0.000
v 0.97416 0.00000 1.63872 0.000 0.000 0.000
v 0.97416 0.00000 1.93158 0.000 0.000 0.000
v 0.95544 0.00000 1.96236 0.000 0.000 0.000
v 0.91926 -0.03618 1.96236 0.000 0.000 0.000
v 0.88308 0.00000 1.96236 0.000 0.000 0.000
v 0.95544 0.00000 1.60794 0.000 0.000 0.000
v 0.91926 -0.03618 1.60794 0.000 0.000 0.000
v 0.88308 0.00000 1.60794 0.000 0.000 0.000
v 0.91926 0.03438 1.75986 0.000 0.000 0.000
v 0.91926 0.05472 1.93158 0.000 0.000 0.000
v 0.91926 0.05472 1.63872 0.000 0.000 0.000
v 0.91926 0.03618 1.96236 0.000 0.000 0.000
v 0.91926 0.03618 1.60794 0.000 0.000 0.000
v 1.03770 -0.11340 1.38474 0.000 0.000 0.859
v 0.98982 -0.12096 1.29150 0.000 0.000 0.890
v 1.10322 0.00000 1.39986 0.000 0.000 0.867
v 1.02258 0.00000 1.24110 0.000 0.000 0.925
v 0.85878 0.00000 1.20330 0.000 0.000 0.941
v 0.85626 -0.11340 1.26378 0.000 0.000 0.871
v 1.02006 -0.09576 1.49562 0.000 0.000 0.839
v 1.07298 0.00000 1.52082 0.000 0.000 0.859
v 0.98046 0.00000 1.57518 0.000 0.000 0.878
v 0.91926 -0.06120 1.57518 0.000 0.000 0.882
v 0.91926 -0.06120 1.61298 0.000 0.000 0.722
v 0.98046 0.00000 1.61298 0.000 0.000 0.859
v 0.85824 0.00000 1.61298 0.000 0.000 0.937
v 0.85824 0.00000 1.57518 0.000 0.000 0.941
v 0.74556 0.00000 1.26882 0.000 0.000 0.925
v 0.77562 -0.09324 1.32930 0.000 0.000 0.902
v 0.70524 0.00000 1.42506 0.000 0.000 0.867
v 0.73548 -0.05040 1.43010 0.000 0.000 0.867
v 0.66492 0.00000 1.49058 0.000 0.000 0.827
v 0.98982 0.12096 1.29150 0.000 0.000 0.890
v 0.85626 0.11340 1.26378 0.000 0.000 0.871
v 0.77562 0.09324 1.32930 0.000 0.000 0.902
v 0.73548 0.05040 1.43010 0.000 0.000 0.867
v 1.02006 0.09576 1.49562 0.000 0.000 0.839
v 0.91926 0.06120 1.57518 0.000 0.000 0.882
v 0.91926 0.06120 1.61298 0.000 0.000 0.722
v 1.03770 0.11340 1.38474 0.000 0.000 0.859
v 0.91926 -0.05472 2.07270 0.000 0.000 0.859
v 0.97416 0.00000 2.07270 0.000 0.000 0.878
v 0.91926 -0.07722 2.17098 0.000 0.000 0.706
v 0.99666 0.00000 2.17098 0.000 0.000 0.894
v 0.84204 0.00000 2.17098 0.000 0.000 0.894
v 0.86454 0.00000 2.07270 0.000 0.000 0.878
v 0.91926 0.07722 2.17098 0.000 0.000 0.706
v 0.91926 0.05472 2.07270 0.000 0.000 0.859
v 1.16118 -0.05040 1.36962 0.000 0.000 0.827
v 1.19646 0.00000 1.35702 0.000 0.000 0.839
v 1.19394 0.00000 1.54098 0.000 0.000 0.906
v 1.04778 -0.06048 1.20582 0.000 0.000 0.871
v 1.06794 0.00000 1.17558 0.000 0.000 0.937
v 0.89154 0.00000 1.11258 0.000 0.000 0.839
v 0.88902 -0.04032 1.14282 0.000 0.000 0.827
v 0.76698 0.00000 1.13148 0.000 0.000 0.906
v 1.16118 0.05040 1.36962 0.000 0.000 0.827
v 1.04778 0.06048 1.20582 0.000 0.000 0.871
v 0.88902 0.04032 1.14282 0.000 0.000 0.827
v 0.52848 0.00000 0.63882 0.863 0.000 0.000
v 0.62424 0.00000 0.49266 0.922 0.000 0.000
v 0.67716 -0.04032 0.63882 0.827 0.000 0.000
v 0.67716 0.04032 0.63882 0.827 0.000 0.000
v 0.91926 -0.04590 2.04804 0.000 0.000 0.000
v 0.96534 0.00000 2.04804 0.000 0.000 0.000
v 0.91926 -0.04590 2.20428 0.000 0.000 0.000
v 0.96534 0.00000 2.20428 0.000 0.000 0.000
v 0.87336 0.00000 2.20428 0.000 0.000 0.000
v 0.87336 0.00000 2.04804 0.000 0.000 0.000
v 0.91926 0.04590 2.20428 0.000 0.000 0.000
v 0.91926 0.04590 2.04804 0.000 0.000 0.000
v 0.62640 0.00000 3.18240 0.000 0.000 0.000
v 0.63360 -0.18000 1.80000 0.000 0.000 0.000
v 0.62640 -0.18000 1.80000 0.000 0.000 0.000
v 0.63360 0.00000 3.18240 0.000 0.000 0.000
v 0.62640 0.00000 0.55440 0.000 0.000 0.000
v 0.63360 0.00000 0.55440 0.000 0.000 0.000
v 0.63000 -0.18360 1.80000 0.000 0.000 0.000
v 0.63000 -0.17640 1.80000 0.000 0.000 0.000
v 0.63000 0.00360 3.18240 0.000 0.000 0.000
v 0.63000 -0.00360 3.18240 0.000 0.000 0.000
v 0.63000 0.00360 0.55440 0.000 0.000 0.000
v 0.63000 -0.00360 0.55440 0.000 0.000 0.000
v 2.02140 -0.19800 1.80000 0.604 0.000 0.000
v 2.28420 -0.18000 1.80000 0.000 0.773 0.000
v 2.02140 -0.18000 1.83780 0.706 0.000 0.000
v 2.02140 -0.16200 1.80000 0.604 0.000 0.000
v 1.13328 0.00000 1.39644 0.000 0.000 0.922
v 1.09746 0.00000 1.37952 0.000 0.000 0.839
v 1.07658 -0.02016 1.40850 0.000 0.000 0.929
v 1.10754 0.00000 1.42632 0.000 0.000 0.839
v 1.07658 0.02016 1.40850 0.000 0.000 0.929
v 1.29150 0.00000 1.15758 0.000 0.000 0.922
v 1.25298 0.00000 1.14840 0.000 0.000 0.839
v 1.23858 -0.02016 1.18116 0.000 0.000 0.929
v 1.27260 0.00000 1.19214 0.000 0.000 0.839
v 1.23858 0.02016 1.18116 0.000 0.000 0.929
v 1.21086 -0.02016 1.12284 0.000 0.000 0.929
v 1.32174 0.00000 1.07370 0.000 0.000 0.922
v 1.22472 0.00000 1.09008 0.000 0.000 0.839
v 1.24506 0.00000 1.13346 0.000 0.000 0.839
v 1.21086 0.02016 1.12284 0.000 0.000 0.929
v 0.62532 0.00000 3.17682 0.000 0.765 0.000
v 0.71928 0.00000 3.08916 0.000 0.702 0.000
v 0.76230 -0.09072 3.13416 0.000 0.835 0.000
v 0.90594 -0.13104 3.00060 0.000 0.820 0.000
v 0.81846 0.00000 2.90196 0.000 0.596 0.000
v 0.99738 -0.07560 2.78514 0.000 0.788 0.000
v 0.86238 0.00000 2.66814 0.000 0.643 0.000
v 0.98928 -0.10080 2.60388 0.000 0.855 0.000
v 0.79074 0.00000 2.50452 0.000 0.706 0.000
v 0.90162 -0.15120 2.43432 0.000 0.886 0.000
v 0.82098 0.00000 2.42856 0.000 0.686 0.000
v 0.78066 0.00000 2.37582 0.000 0.765 0.000
v 0.76230 0.09072 3.13416 0.000 0.835 0.000
v 0.90594 0.13104 3.00060 0.000 0.820 0.000
v 0.99738 0.07560 2.78514 0.000 0.788 0.000
v 0.98928 0.10080 2.60388 0.000 0.855 0.000
v 0.90162 0.15120 2.43432 0.000 0.886 0.000
v 0.98658 0.00000 2.05254 0.000 0.000 0.878
v 0.94320 -0.03690 1.95930 0.000 0.000 0.863
v 0.99738 0.00000 1.98954 0.000 0.000 0.902
v 0.96966 -0.02646 1.93914 0.000 0.000 0.863
v 1.00746 -0.02340 1.93410 0.000 0.000 0.843
v 1.10322 0.00000 1.90890 0.000 0.000 0.706
v 1.01250 -0.02538 1.90890 0.000 0.000 0.835
v 1.06794 -0.01566 1.88118 0.000 0.000 0.804
v 1.13346 0.00000 1.81818 0.000 0.000 0.835
v 0.91926 -0.06714 2.05254 0.000 0.000 0.718
v 0.91926 -0.04770 1.95930 0.000 0.000 0.863
v 0.85212 0.00000 2.05254 0.000 0.000 0.882
v 0.87174 0.00000 1.95930 0.000 0.000 0.886
v 0.94320 0.03690 1.95930 0.000 0.000 0.863
v 0.96966 0.02646 1.93914 0.000 0.000 0.863
v 1.06794 0.01566 1.88118 0.000 0.000 0.804
v 1.01250 0.02538 1.90890 0.000 0.000 0.835
v 1.00746 0.02340 1.93410 0.000 0.000 0.843
v 0.91926 0.04770 1.95930 0.000 0.000 0.863
v 0.91926 0.06714 2.05254 0.000 0.000 0.718
v 0.84618 0.00000 2.20104 0.000 0.000 0.933
v 0.99234 0.00000 2.20104 0.000 0.000 0.890
v 0.91926 -0.05544 2.20104 0.000 0.000 0.933
v 0.91926 0.05544 2.20104 0.000 0.000 0.933
v 1.24182 -0.04788 1.25370 0.000 0.000 0.855
v 1.29222 0.00000 1.23354 0.000 0.000 0.929
v 1.29474 0.00000 1.45530 0.000 0.000 0.824
v 1.13724 -0.07056 1.11582 0.000 0.000 0.765
v 1.20402 0.00000 1.03698 0.000 0.000 0.890
v 0.82854 -0.10080 0.89712 0.000 0.000 0.855
v 0.87390 0.00000 0.81396 0.000 0.000 0.929
v 0.73008 0.00000 0.63882 0.000 0.000 0.906
v 0.68220 -0.06552 0.68922 0.000 0.000 0.847
v 0.59400 0.00000 0.41958 0.000 0.000 0.855
v 1.24182 0.04788 1.25370 0.000 0.000 0.855
v 0.68220 0.06552 0.68922 0.000 0.000 0.847
v 0.82854 0.10080 0.90846 0.000 0.000 0.855
v 1.13724 0.07056 1.11582 0.000 0.000 0.765
v 1.36026 -0.00252 1.34550 0.000 0.000 0.000
v 1.18314 0.00756 1.32138 0.000 0.000 0.000
v 1.11690 -0.00252 1.39734 0.000 0.000 0.000
v 1.20834 0.00756 1.43964 0.000 0.000 0.000
v 1.39032 -0.04536 1.33920 0.773 0.000 0.000
v 1.79208 0.00000 1.25370 0.000 0.933 0.000
v 1.37736 0.00000 1.27764 0.902 0.000 0.000
v 1.34370 0.00000 1.31310 0.914 0.000 0.000
v 1.23516 0.00000 1.37214 0.933 0.000 0.000
v 1.39032 0.04536 1.33920 0.773 0.000 0.000
v 1.09062 -0.02016 0.99828 0.000 0.000 0.929
v 1.15326 0.00000 0.90396 0.000 0.000 0.922
v 1.08504 0.00000 0.96300 0.000 0.000 0.839
v 1.12518 0.00000 0.98910 0.000 0.000 0.839
v 1.09062 0.02016 0.99828 0.000 0.000 0.929
v 1.00044 -0.00252 1.25820 0.000 0.000 0.000
v 1.26288 -0.00252 0.94554 0.000 0.000 0.000
v 1.00602 0.00756 1.15758 0.000 0.000 0.000
v 1.09872 0.00756 1.23534 0.000 0.000 0.000
v 1.22238 -0.04536 0.99378 0.773 0.000 0.000
v 1.54638 0.00000 0.60786 0.000 0.933 0.000
v 1.17414 0.00000 0.95328 0.902 0.000 0.000
v 1.16946 0.00000 1.00206 0.914 0.000 0.000
v 1.10124 0.00000 1.04022 0.925 0.000 0.000
v 1.08144 0.00000 1.16172 0.933 0.000 0.000
v 1.22238 0.04536 0.99378 0.773 0.000 0.000
v 0.99720 -0.02016 1.26216 0.000 0.000 0.929
v 1.03446 0.00000 1.21770 0.000 0.000 0.922
v 0.99594 0.00000 1.22652 0.000 0.000 0.839
v 1.03266 0.00000 1.25730 0.000 0.000 0.839
v 0.99720 0.02016 1.26216 0.000 0.000 0.929
v 0.85374 -0.00252 1.22346 0.000 0.000 0.000
v 0.85374 -0.00252 0.81522 0.000 0.000 0.000
v 0.79326 0.00756 1.13274 0.000 0.000 0.000
v 0.91422 0.00756 1.13274 0.000 0.000 0.000
v 0.85374 -0.04536 0.81270 0.773 0.000 0.000
v 0.85374 0.00000 0.58842 0.000 0.933 0.000
v 0.79074 0.00000 0.81270 0.902 0.000 0.000
v 0.81846 0.00000 0.85302 0.914 0.000 0.000
v 0.79074 0.00000 0.95130 0.925 0.000 0.000
v 0.85374 0.00000 1.05714 0.933 0.000 0.000
v 0.85374 0.04536 0.81270 0.773 0.000 0.000
v 0.85374 -0.02016 1.22850 0.000 0.000 0.929
v 0.85374 0.00000 1.17054 0.000 0.000 0.922
v 0.82980 0.00000 1.20204 0.000 0.000 0.839
v 0.87768 0.00000 1.20204 0.000 0.000 0.839
v 0.85374 0.02016 1.22850 0.000 0.000 0.929
v 0.86256 0.00000 2.03112 0.000 0.000 0.000
v 0.82476 0.00000 1.95552 0.000 0.000 0.000
v 0.89910 -0.03024 1.98702 0.000 0.000 0.000
v 0.89910 0.03024 1.98702 0.000 0.000 0.000
v 1.24182 0.04788 1.25370 0.000 0.000 0.910
v 1.24182 -0.04788 1.25370 0.000 0.000 0.910
v 1.29474 0.00000 1.45530 0.000 0.000 0.933
v 1.13724 0.07056 1.11582 0.000 0.000 0.925
v 1.13724 -0.07056 1.11582 0.000 0.000 0.925
v 0.82854 -0.10080 0.89712 0.000 0.000 0.933
v 0.82854 0.10080 0.90846 0.000 0.000 0.933
v 0.68220 -0.06552 0.68922 0.000 0.000 0.925
v 0.68220 0.06552 0.68922 0.000 0.000 0.925
v 0.59400 0.00000 0.41958 0.000 0.000 0.914
v 0.62532 0.00000 3.17682 0.906 0.000 0.000
v 0.76230 -0.09072 3.13416 0.275 0.000 0.153
v 0.63198 -0.02016 3.20598 0.902 0.000 0.000
v 0.50040 0.00000 3.42522 0.882 0.000 0.000
v 0.64206 0.00000 3.29400 0.804 0.000 0.000
v 0.79920 0.00000 3.27240 0.165 0.000 0.039
v 1.00440 0.00000 3.16440 0.012 0.000 0.012
v 0.90594 -0.13104 3.00060 0.176 0.000 0.176
v 1.14300 0.00000 2.97216 0.055 0.000 0.055
v 0.99738 -0.07560 2.78514 0.153 0.000 0.153
v 1.07676 0.00000 2.72664 0.090 0.000 0.090
v 0.98928 -0.10080 2.60388 0.078 0.000 0.412
v 1.10304 0.00000 2.50740 0.004 0.000 0.365
v 1.19394 0.00000 2.30580 0.000 0.000 0.769
v 0.63198 0.02016 3.20598 0.902 0.000 0.000
v 0.76230 0.09072 3.13416 0.275 0.000 0.153
v 0.90594 0.13104 3.00060 0.176 0.000 0.176
v 0.99738 0.07560 2.78514 0.153 0.000 0.153
v 0.98928 0.10080 2.60388 0.078 0.000 0.412
v 1.05282 -0.10332 2.31750 0.000 0.000 0.804
v 0.91674 -0.18396 2.37582 0.000 0.000 0.792
v 0.99738 0.00000 2.27646 0.000 0.000 0.863
v 0.90162 -0.15120 2.43432 0.000 0.000 0.925
v 0.78066 0.00000 2.37582 0.000 0.000 0.941
v 1.11834 -0.06048 2.28240 0.000 0.000 0.835
v 1.15362 0.00000 2.14794 0.000 0.000 0.871
v 1.11834 0.06048 2.28240 0.000 0.000 0.890
v 1.05282 0.10332 2.31750 0.000 0.000 0.804
v 0.91674 0.18396 2.37582 0.000 0.000 0.792
v 0.84618 0.00000 2.20104 0.000 0.000 0.933
v 0.91926 -0.05544 2.20104 0.000 0.000 0.824
v 0.90162 0.15120 2.43432 0.000 0.000 0.925
v 0.91926 0.05544 2.20104 0.000 0.000 0.824
v 0.99234 0.00000 2.20104 0.000 0.000 0.906
v 1.06794 0.01566 1.88118 0.000 0.000 0.910
v 1.13346 0.00000 1.81818 0.000 0.000 0.925
v 1.06794 -0.01566 1.88118 0.000 0.000 0.910
v 1.01250 0.02538 1.90890 0.000 0.000 0.918
v 1.01250 -0.02538 1.90890 0.000 0.000 0.918
v 1.00746 0.02340 1.93410 0.000 0.000 0.925
v 1.00746 -0.02340 1.93410 0.000 0.000 0.925
v 0.96966 0.02646 1.93914 0.000 0.000 0.925
v 0.96966 -0.02646 1.93914 0.000 0.000 0.925
v 0.94320 0.03690 1.95930 0.000 0.000 0.925
v 0.94320 -0.03690 1.95930 0.000 0.000 0.925
v 0.91926 0.04770 1.95930 0.000 0.000 0.929
v 0.91926 -0.04770 1.95930 0.000 0.000 0.929
v 0.87174 0.00000 1.95930 0.000 0.000 0.937
v 0.91926 -0.06714 2.05254 0.000 0.000 0.933
v 0.98658 0.00000 2.05254 0.000 0.000 0.929
v 0.85212 0.00000 2.05254 0.000 0.000 0.933
v 0.91926 0.06714 2.05254 0.000 0.000 0.933
v 0.89910 -0.03024 1.98702 0.000 0.000 0.000
v 0.82476 0.00000 1.95552 0.000 0.000 0.000
v 0.89910 0.03024 1.98702 0.000 0.000 0.000
v 0.98712 -0.18900 1.79280 0.000 0.000 0.886
v 0.94932 -0.12852 1.75878 0.000 0.000 0.788
v 0.73206 -0.18900 1.79280 0.000 0.000 0.945
v 0.69426 -0.11538 1.75122 0.000 0.000 0.831
v 0.94932 -0.18900 1.86264 0.000 0.000 0.788
v 0.69426 -0.18900 1.87776 0.000 0.000 0.831
v 0.94932 -0.24948 1.75878 0.000 0.000 0.788
v 0.69426 -0.26280 1.75122 0.000 0.000 0.831
v 1.99080 -0.18000 1.80900 0.000 0.000 0.000
v 1.99080 -0.17100 1.80000 0.000 0.000 0.000
v 0.63540 -0.18000 1.80900 0.000 0.000 0.000
v 0.63540 -0.17100 1.80000 0.000 0.000 0.000
v 0.63540 -0.18000 1.79100 0.000 0.000 0.000
v 1.99080 -0.18000 1.79100 0.000 0.000 0.000
v 1.99080 -0.18900 1.80000 0.000 0.000 0.000
v 0.63540 -0.18900 1.80000 0.000 0.000 0.000
v 1.95300 -0.18000 1.80000 0.788 0.000 0.000
v 2.02140 -0.18000 1.76220 0.875 0.000 0.000
v 2.02140 -0.19800 1.80000 0.882 0.000 0.000
v 2.02140 -0.16200 1.80000 0.882 0.000 0.000
v 1.11834 0.06048 2.28240 0.000 0.000 0.890
v 1.15362 0.00000 2.14794 0.000 0.000 0.871
v 1.11834 -0.06048 2.28240 0.000 0.000 0.835
v 1.05282 0.10332 2.31750 0.000 0.000 0.804
v 1.05282 -0.10332 2.31750 0.000 0.000 0.804
v 0.99738 0.00000 2.27646 0.000 0.000 0.863
v 0.85374 0.00000 1.05714 0.933 0.000 0.000
v 0.85374 0.04536 0.81270 0.773 0.000 0.000
v 0.79074 0.00000 0.95130 0.925 0.000 0.000
v 0.63540 -0.17100 1.80000 0.000 0.000 0.000
v 0.63540 -0.18000 1.79100 0.000 0.000 0.000
v 0.63540 -0.18000 1.80900 0.000 0.000 0.000
v 0.63540 -0.18900 1.80000 0.000 0.000 0.000
v 1.16118 0.05040 1.36962 0.000 0.000 0.925
v 1.16118 -0.05040 1.36962 0.000 0.000 0.925
v 1.19394 0.00000 1.54098 0.000 0.000 0.914
v 1.04778 -0.06048 1.20582 0.000 0.000 0.933
v 1.04778 0.06048 1.20582 0.000 0.000 0.933
v 0.88902 -0.04032 1.14282 0.000 0.000 0.925
v 0.88902 0.04032 1.14282 0.000 0.000 0.925
v 0.76698 0.00000 1.13148 0.000 0.000 0.914
v 0.91926 0.06120 1.57518 0.000 0.000 0.929
v 1.02006 -0.09576 1.49562 0.000 0.000 0.922
v 0.91926 -0.06120 1.57518 0.000 0.000 0.929
v 1.02006 0.09576 1.49562 0.000 0.000 0.922
v 1.03770 -0.11340 1.38474 0.000 0.000 0.929
v 1.03770 0.11340 1.38474 0.000 0.000 0.929
v 0.98982 -0.12096 1.29150 0.000 0.000 0.933
v 0.98982 0.12096 1.29150 0.000 0.000 0.933
v 0.85626 -0.11340 1.26378 0.000 0.000 0.933
v 0.85626 0.11340 1.26378 0.000 0.000 0.933
v 0.77562 -0.09324 1.32930 0.000 0.000 0.929
v 0.77562 0.09324 1.32930 0.000 0.000 0.929
v 0.73548 -0.05040 1.43010 0.000 0.000 0.922
v 0.73548 0.05040 1.43010 0.000 0.000 0.922
v 0.66492 0.00000 1.49058 0.000 0.000 0.922
v 0.85824 0.00000 1.57518 0.000 0.000 0.933
v 0.86454 0.00000 2.07270 0.000 0.000 0.933
v 0.97416 0.00000 2.07270 0.000 0.000 0.929
v 0.91926 -0.05472 2.07270 0.000 0.000 0.933
v 0.91926 0.05472 2.07270 0.000 0.000 0.933
v 0.91926 -0.07722 2.17098 0.000 0.000 0.933
v 0.99666 0.00000 2.17098 0.000 0.000 0.929
v 0.84204 0.00000 2.17098 0.000 0.000 0.933
v 0.91926 0.07722 2.17098 0.000 0.000 0.933
v 0.52848 0.00000 0.63882 0.933 0.000 0.000
v 0.67716 -0.04032 0.63882 0.925 0.000 0.000
v 0.67716 0.04032 0.63882 0.937 0.000 0.000
v 1.95300 -0.18000 1.80000 0.741 0.000 0.000
v 2.02140 -0.19800 1.80000 0.718 0.000 0.000
v 2.02140 -0.18000 1.83780 0.745 0.000 0.000
v 2.02140 -0.16200 1.80000 0.718 0.000 0.000
v 2.02140 -0.19800 1.80000 0.831 0.000 0.000
v 2.02140 -0.18000 1.76220 0.765 0.000 0.000
v 2.28420 -0.18000 1.80000 0.000 0.694 0.000
v 2.02140 -0.16200 1.80000 0.831 0.000 0.000
v 1.23516 0.00000 1.37214 0.894 0.000 0.000
v 1.39032 -0.04536 1.33920 0.733 0.000 0.000
v 1.35828 0.00000 1.38204 0.886 0.000 0.000
v 1.40346 0.00000 1.40076 0.863 0.000 0.000
v 1.79208 0.00000 1.25370 0.000 0.894 0.000
v 1.39032 0.04536 1.33920 0.733 0.000 0.000
v 1.08144 0.00000 1.16172 0.894 0.000 0.000
v 1.22238 -0.04536 0.99378 0.733 0.000 0.000
v 1.19772 0.00000 1.12122 0.886 0.000 0.000
v 1.22346 0.00000 1.04742 0.875 0.000 0.000
v 1.27062 0.00000 1.03428 0.863 0.000 0.000
v 1.54638 0.00000 0.60786 0.000 0.894 0.000
v 1.22238 0.04536 0.99378 0.733 0.000 0.000
v 0.85374 0.00000 1.05714 0.894 0.000 0.000
v 0.85374 -0.04536 0.81270 0.733 0.000 0.000
v 0.91674 0.00000 0.95130 0.886 0.000 0.000
v 0.88902 0.00000 0.85302 0.875 0.000 0.000
v 0.91674 0.00000 0.81270 0.863 0.000 0.000
v 0.85374 0.00000 0.58842 0.000 0.894 0.000
v 0.85374 0.04536 0.81270 0.733 0.000 0.000
v 0.91674 0.00000 0.95130 0.886 0.000 0.000
v 0.85374 0.04536 0.81270 0.733 0.000 0.000
v 0.85374 0.00000 1.05714 0.894 0.000 0.000
v 0.75312 0.00000 1.34946 0.043 0.000 0.000
v 0.78318 -0.08208 1.31418 0.047 0.000 0.000
v 0.77562 -0.06876 1.36710 0.020 0.000 0.000
v 0.75816 0.00000 1.43262 0.043 0.000 0.000
v 0.84366 -0.15228 1.34442 0.012 0.000 0.000
v 0.82350 -0.11628 1.46034 0.012 0.000 0.000
v 0.84618 -0.14688 1.41498 0.012 0.000 0.000
v 0.78066 0.00000 1.49562 0.039 0.000 0.000
v 0.84564 -0.07794 1.27188 0.020 0.000 0.000
v 0.86382 0.00000 1.25118 0.059 0.000 0.000
v 0.90414 -0.14400 1.31418 0.012 0.000 0.000
v 0.92808 -0.06876 1.25496 0.012 0.000 0.000
v 0.77562 0.06876 1.36710 0.020 0.000 0.000
v 0.78318 0.08208 1.31418 0.047 0.000 0.000
v 0.84564 0.07794 1.27188 0.020 0.000 0.000
v 0.84366 0.15228 1.34442 0.012 0.000 0.000
v 0.82350 0.11628 1.46034 0.012 0.000 0.000
v 0.84618 0.14688 1.41498 0.012 0.000 0.000
v 0.90414 0.14400 1.31418 0.012 0.000 0.000
v 0.92808 0.06876 1.25496 0.012 0.000 0.000
v 0.98478 -0.11124 1.35702 0.039 0.000 0.000
v 0.92808 -0.06876 1.25496 0.012 0.000 0.000
v 0.99486 0.00000 1.26630 0.043 0.000 0.000
v 0.90414 -0.14400 1.31418 0.012 0.000 0.000
v 0.93186 -0.15732 1.40490 0.024 0.000 0.000
v 0.84366 -0.15228 1.34442 0.012 0.000 0.000
v 0.84618 -0.14688 1.41498 0.012 0.000 0.000
v 0.87642 -0.12888 1.48554 0.012 0.000 0.000
v 0.82350 -0.11628 1.46034 0.012 0.000 0.000
v 0.80712 0.00000 1.51956 0.039 0.000 0.000
v 0.78066 0.00000 1.49562 0.039 0.000 0.000
v 0.83862 0.00000 1.50822 0.027 0.000 0.000
v 0.82350 0.11628 1.46034 0.012 0.000 0.000
v 0.87642 0.12888 1.48554 0.012 0.000 0.000
v 0.84618 0.14688 1.41498 0.012 0.000 0.000
v 0.93186 0.15732 1.40490 0.024 0.000 0.000
v 0.84366 0.15228 1.34442 0.012 0.000 0.000
v 0.90414 0.14400 1.31418 0.012 0.000 0.000
v 0.98478 0.11124 1.35702 0.039 0.000 0.000
v 0.92808 0.06876 1.25496 0.012 0.000 0.000
v 0.98478 -0.11124 1.35702 0.039 0.000 0.000
v 0.99486 0.00000 1.26630 0.043 0.000 0.000
v 1.03266 0.00000 1.32426 0.035 0.000 0.000
v 1.04274 0.00000 1.40238 0.047 0.000 0.000
v 1.00746 -0.06876 1.47798 0.024 0.000 0.000
v 0.93186 -0.15732 1.40490 0.024 0.000 0.000
v 0.96084 -0.09720 1.49688 0.027 0.000 0.000
v 0.87642 -0.12888 1.48554 0.012 0.000 0.000
v 0.92178 -0.08640 1.52586 0.012 0.000 0.000
v 0.86886 0.00000 1.54350 0.027 0.000 0.000
v 0.83862 0.00000 1.50822 0.027 0.000 0.000
v 0.98478 0.11124 1.35702 0.039 0.000 0.000
v 1.00746 0.06876 1.47798 0.024 0.000 0.000
v 0.93186 0.15732 1.40490 0.024 0.000 0.000
v 0.96084 0.09720 1.49688 0.027 0.000 0.000
v 0.87642 0.12888 1.48554 0.012 0.000 0.000
v 0.92178 0.08640 1.52586 0.012 0.000 0.000
v 0.92178 -0.08640 1.52586 0.012 0.000 0.000
v 0.96084 -0.09720 1.49688 0.027 0.000 0.000
v 1.02258 0.00000 1.50318 0.012 0.000 0.000
v 1.00746 -0.06876 1.47798 0.024 0.000 0.000
v 1.04274 0.00000 1.40238 0.047 0.000 0.000
v 0.93690 0.00000 1.54350 0.027 0.000 0.000
v 0.86886 0.00000 1.54350 0.027 0.000 0.000
v 0.92178 0.08640 1.52586 0.012 0.000 0.000
v 0.96084 0.09720 1.49688 0.027 0.000 0.000
v 1.00746 0.06876 1.47798 0.024 0.000 0.000
v 0.51912 0.04932 2.89710 0.000 0.863 0.000
v 0.76302 0.00180 2.85264 0.000 0.863 0.000
v 0.78894 -0.00324 3.07926 0.000 0.863 0.000
v 0.53640 0.04590 3.11292 0.000 0.863 0.000
v 0.25776 0.10008 2.91978 0.000 0.863 0.000
v 0.28368 0.09504 3.14640 0.000 0.863 0.000
v 0.61470 -0.00306 3.03084 0.000 0.863 0.000
v 0.39366 -0.05400 2.77884 0.000 0.863 0.000
v 0.63918 0.00252 2.80404 0.000 0.863 0.000
v 0.36306 -0.06120 3.00564 0.000 0.863 0.000
v 0.13590 -0.11358 2.75364 0.000 0.863 0.000
v 0.11124 -0.11934 2.98044 0.000 0.863 0.000
v 0.84942 -0.01350 2.82924 0.000 0.863 0.000
v 0.72990 -0.03024 2.52234 0.000 0.863 0.000
v 0.95670 0.00162 2.62836 0.000 0.863 0.000
v 0.62154 -0.04554 2.70918 0.000 0.863 0.000
v 0.50112 -0.06246 2.38824 0.000 0.863 0.000
v 0.39384 -0.07758 2.58894 0.000 0.863 0.000
v 1.59246 0.00000 1.58850 0.000 0.863 0.000
v 1.67616 -0.14364 1.32462 0.000 0.863 0.000
v 1.70316 0.00000 1.42542 0.000 0.863 0.000
v 1.67616 0.14364 1.32462 0.000 0.863 0.000
v 1.54098 0.27288 1.39698 0.000 0.863 0.000
v 1.63242 0.08874 1.16154 0.000 0.863 0.000
v 1.45800 0.16866 1.08720 0.000 0.863 0.000
v 1.63242 -0.08874 1.16154 0.000 0.863 0.000
v 1.45800 -0.16866 1.08720 0.000 0.863 0.000
v 1.54098 -0.27288 1.39698 0.000 0.863 0.000
v 1.67616 -0.14364 1.32462 0.000 0.863 0.000
v 1.54098 -0.27288 1.39698 0.000 0.863 0.000
v 1.72872 0.00000 1.25496 0.000 0.863 0.000
v 1.49058 -0.14346 1.05768 0.000 0.863 0.000
v 1.40238 -0.15120 0.75852 0.000 0.863 0.000
v 1.51704 -0.07902 0.87318 0.000 0.863 0.000
v 1.50390 0.09756 0.86004 0.000 0.863 0.000
v 1.46556 0.19206 1.03266 0.000 0.863 0.000
v 1.38114 0.13446 0.73728 0.000 0.863 0.000
v 1.23228 0.26208 0.79938 0.000 0.863 0.000
v 1.31832 -0.01926 0.67446 0.000 0.863 0.000
v 1.11294 -0.03006 0.68004 0.000 0.863 0.000
v 1.27260 -0.28062 0.83970 0.000 0.863 0.000
v 1.40238 -0.15120 0.75852 0.000 0.863 0.000
v 1.27260 -0.28062 0.83970 0.000 0.863 0.000
v 1.46898 0.00000 0.72774 0.000 0.863 0.000
v 1.11600 -0.07434 0.71010 0.000 0.863 0.000
v 0.85338 -0.15264 0.56088 0.000 0.863 0.000
v 0.99144 -0.04086 0.56088 0.000 0.863 0.000
v 0.92772 0.12492 0.56088 0.000 0.863 0.000
v 0.99504 0.24066 0.71010 0.000 0.863 0.000
v 0.75042 0.11556 0.56088 0.000 0.863 0.000
v 0.65808 0.22302 0.71010 0.000 0.863 0.000
v 0.70452 -0.05598 0.56088 0.000 0.863 0.000
v 0.57078 -0.10278 0.71010 0.000 0.863 0.000
v 0.85374 -0.28656 0.71010 0.000 0.863 0.000
v 0.85338 -0.15264 0.56088 0.000 0.863 0.000
v 0.85374 -0.28656 0.71010 0.000 0.863 0.000
v 0.83880 0.00000 0.49212 0.000 0.863 0.000
v 0.70038 0.01494 2.92104 0.000 0.863 0.000
v 0.54324 0.07254 2.63700 0.000 0.863 0.000
v 0.77256 -0.00720 2.70576 0.000 0.863 0.000
v 0.46800 0.09576 2.83860 0.000 0.863 0.000
v 0.30780 0.15480 2.54088 0.000 0.863 0.000
v 0.23562 0.17676 2.75616 0.000 0.863 0.000
vt 0.05469 0.44531
vt 0.21094 0.38281
vt 0.05469 0.38281
vt 0.21094 0.44531
vt 0.33594 0.44531
vt 0.33594 0.38281
vt 0.21094 0.44531
vt 0.33594 0.44531
vt 0.05469 0.44531
vt 0.00781 0.44531
vt 0.00781 0.38281
vt 0.00781 0.44531
vt 0.38281 0.44531
vt 0.38281 0.38281
vt 0.38281 0.44531
vt 0.21094 0.38281
vt 0.05469 0.38281
vt 0.33594 0.38281
vt 0.00781 0.38281
vt 0.38281 0.38281
vt 0.71094 0.61719
vt 0.71094 0.71094
vt 0.80469 0.60156
vt 0.82031 0.71094
vt 0.82031 0.83594
vt 0.71094 0.83594
vt 0.71094 0.50781
vt 0.80469 0.47656
vt 0.80469 0.42969
vt 0.71094 0.42969
vt 0.71094 0.38281
vt 0.80469 0.38281
vt 0.63281 0.38281
vt 0.63281 0.42969
vt 0.80469 0.75781
vt 0.71094 0.74219
vt 0.75781 0.63281
vt 0.71094 0.63281
vt 0.71094 0.55469
vt 0.71094 0.71094
vt 0.71094 0.83594
vt 0.71094 0.74219
vt 0.71094 0.63281
vt 0.71094 0.50781
vt 0.71094 0.42969
vt 0.71094 0.38281
vt 0.71094 0.61719
vt 0.91406 0.41406
vt 0.91406 0.47656
vt 0.82031 0.41406
vt 0.82031 0.50781
vt 0.82031 0.50781
vt 0.91406 0.47656
vt 0.82031 0.41406
vt 0.91406 0.41406
vt 0.71094 0.55469
vt 0.80469 0.55469
vt 0.71094 0.75781
vt 0.71094 0.83594
vt 0.80469 0.83594
vt 0.80469 0.55469
vt 0.71094 0.55469
vt 0.71094 0.75781
vt 0.71094 0.55469
vt 0.71094 0.83594
vt 0.71094 0.55469
vt 0.69531 0.69531
vt 0.63281 0.72656
vt 0.69531 0.77344
vt 0.69531 0.77344
vt 0.38281 0.38281
vt 0.38281 0.44531
vt 0.00781 0.38281
vt 0.00781 0.44531
vt 0.00781 0.44531
vt 0.38281 0.44531
vt 0.00781 0.38281
vt 0.38281 0.38281
vt 0.99219 0.99219
vt 0.96094 0.19531
vt 0.99219 0.19531
vt 0.96094 0.99219
vt 0.99219 0.99219
vt 0.96094 0.99219
vt 0.99219 0.19531
vt 0.96094 0.19531
vt 0.96094 0.99219
vt 0.99219 0.99219
vt 0.96094 0.99219
vt 0.99219 0.99219
vt 0.94531 0.71094
vt 0.94531 0.97656
vt 0.89844 0.71094
vt 0.94531 0.71094
vt 0.25781 0.55469
vt 0.19531 0.63281
vt 0.14844 0.55469
vt 0.19531 0.63281
vt 0.14844 0.55469
vt 0.25781 0.55469
vt 0.19531 0.63281
vt 0.14844 0.55469
vt 0.19531 0.63281
vt 0.14844 0.55469
vt 0.14844 0.55469
vt 0.25781 0.55469
vt 0.19531 0.63281
vt 0.19531 0.63281
vt 0.14844 0.55469
vt 0.94531 0.96094
vt 0.94531 0.85156
vt 0.86719 0.86719
vt 0.83594 0.75781
vt 0.94531 0.67969
vt 0.83594 0.67969
vt 0.94531 0.78906
vt 0.83594 0.82031
vt 0.94531 0.88281
vt 0.83594 0.88281
vt 0.94531 0.91406
vt 0.94531 0.96094
vt 0.86719 0.86719
vt 0.83594 0.75781
vt 0.83594 0.67969
vt 0.83594 0.82031
vt 0.83594 0.88281
vt 0.82031 0.49219
vt 0.94531 0.42969
vt 0.86719 0.50781
vt 0.94531 0.47656
vt 0.94531 0.53906
vt 0.86719 0.66406
vt 0.94531 0.55469
vt 0.94531 0.64844
vt 0.94531 0.55469
vt 0.82031 0.39844
vt 0.94531 0.39844
vt 0.82031 0.30469
vt 0.94531 0.33594
vt 0.94531 0.42969
vt 0.94531 0.47656
vt 0.94531 0.64844
vt 0.94531 0.55469
vt 0.94531 0.53906
vt 0.94531 0.39844
vt 0.82031 0.39844
vt 0.32031 0.53906
vt 0.24219 0.46094
vt 0.32031 0.46094
vt 0.32031 0.46094
vt 0.53906 0.85156
vt 0.61719 0.77344
vt 0.36719 0.67969
vt 0.28906 0.61719
vt 0.36719 0.52344
vt 0.53906 0.85156
vt 0.61719 0.77344
vt 0.46094 0.61719
vt 0.38281 0.69531
vt 0.47656 0.77344
vt 0.53906 0.85156
vt 0.38281 0.69531
vt 0.53906 0.85156
vt 0.28906 0.61719
vt 0.25781 0.41406
vt 0.05469 0.44531
vt 0.00781 0.38281
vt 0.05469 0.44531
vt 0.67969 0.74219
vt 0.67969 0.47656
vt 0.64844 0.74219
vt 0.66406 0.77344
vt 0.67969 0.86719
vt 0.67969 0.74219
vt 0.14844 0.55469
vt 0.25781 0.55469
vt 0.19531 0.63281
vt 0.19531 0.63281
vt 0.14844 0.55469
vt 0.00781 0.38281
vt 0.25781 0.41406
vt 0.05469 0.44531
vt 0.05469 0.44531
vt 0.67969 0.74219
vt 0.67969 0.47656
vt 0.64844 0.74219
vt 0.66406 0.77344
vt 0.64844 0.80469
vt 0.67969 0.86719
vt 0.67969 0.74219
vt 0.14844 0.55469
vt 0.25781 0.55469
vt 0.19531 0.63281
vt 0.19531 0.63281
vt 0.14844 0.55469
vt 0.00781 0.38281
vt 0.25781 0.41406
vt 0.05469 0.44531
vt 0.05469 0.44531
vt 0.67969 0.71094
vt 0.67969 0.47656
vt 0.64844 0.71094
vt 0.66406 0.74219
vt 0.64844 0.77344
vt 0.67969 0.82031
vt 0.67969 0.71094
vt 0.14844 0.55469
vt 0.25781 0.55469
vt 0.19531 0.63281
vt 0.19531 0.63281
vt 0.14844 0.55469
vt 0.30469 0.42969
vt 0.35156 0.38281
vt 0.35156 0.44531
vt 0.35156 0.44531
vt 0.03906 0.53906
vt 0.03906 0.46094
vt 0.22656 0.49219
vt 0.14844 0.53906
vt 0.14844 0.46094
vt 0.32031 0.46094
vt 0.32031 0.53906
vt 0.19531 0.46094
vt 0.19531 0.53906
vt 0.03906 0.49219
vt 0.71094 0.89844
vt 0.57031 0.86719
vt 0.71094 0.91406
vt 0.85156 0.94531
vt 0.72656 0.96094
vt 0.53906 0.96094
vt 0.38281 0.99219
vt 0.39844 0.83594
vt 0.24219 0.99219
vt 0.27344 0.80469
vt 0.21094 0.82031
vt 0.22656 0.71094
vt 0.13281 0.72656
vt 0.00781 0.69531
vt 0.71094 0.91406
vt 0.57031 0.86719
vt 0.39844 0.83594
vt 0.27344 0.80469
vt 0.22656 0.71094
vt 0.08594 0.60156
vt 0.21094 0.64844
vt 0.13281 0.60156
vt 0.24219 0.67969
vt 0.27344 0.64844
vt 0.03906 0.60156
vt 0.00781 0.52344
vt 0.03906 0.60156
vt 0.08594 0.60156
vt 0.21094 0.64844
vt 0.27344 0.55469
vt 0.19531 0.55469
vt 0.24219 0.67969
vt 0.19531 0.55469
vt 0.13281 0.55469
vt 0.03906 0.53906
vt 0.14844 0.49219
vt 0.03906 0.46094
vt 0.10156 0.53906
vt 0.10156 0.46094
vt 0.14844 0.53906
vt 0.14844 0.46094
vt 0.14844 0.53906
vt 0.14844 0.46094
vt 0.19531 0.53906
vt 0.19531 0.46094
vt 0.24219 0.53906
vt 0.24219 0.46094
vt 0.32031 0.49219
vt 0.32031 0.46094
vt 0.24219 0.46094
vt 0.32031 0.53906
vt 0.32031 0.46094
vt 0.35156 0.38281
vt 0.35156 0.44531
vt 0.35156 0.38281
vt 0.83594 0.67969
vt 0.89844 0.67969
vt 0.83594 0.88281
vt 0.91406 0.88281
vt 0.89844 0.67969
vt 0.91406 0.88281
vt 0.89844 0.67969
vt 0.91406 0.88281
vt 0.03906 0.44531
vt 0.03906 0.38281
vt 0.35156 0.44531
vt 0.35156 0.38281
vt 0.35156 0.44531
vt 0.03906 0.44531
vt 0.03906 0.38281
vt 0.35156 0.38281
vt 0.91406 0.89844
vt 0.83594 0.85156
vt 0.83594 0.89844
vt 0.83594 0.89844
vt 0.14844 0.52344
vt 0.10156 0.49219
vt 0.14844 0.47656
vt 0.21094 0.52344
vt 0.21094 0.47656
vt 0.25781 0.50781
vt 0.67969 0.86719
vt 0.67969 0.74219
vt 0.64844 0.80469
vt 0.00781 0.44531
vt 0.03906 0.44531
vt 0.00781 0.41406
vt 0.00781 0.44531
vt 0.17969 0.46094
vt 0.17969 0.53906
vt 0.03906 0.49219
vt 0.32031 0.53906
vt 0.32031 0.46094
vt 0.17969 0.53906
vt 0.17969 0.46094
vt 0.03906 0.49219
vt 0.21094 0.46094
vt 0.13281 0.53906
vt 0.21094 0.53906
vt 0.13281 0.46094
vt 0.24219 0.53906
vt 0.24219 0.46094
vt 0.32031 0.53906
vt 0.32031 0.46094
vt 0.28906 0.53906
vt 0.28906 0.46094
vt 0.22656 0.53906
vt 0.22656 0.46094
vt 0.13281 0.53906
vt 0.13281 0.46094
vt 0.08594 0.49219
vt 0.24219 0.49219
vt 0.32031 0.53906
vt 0.24219 0.46094
vt 0.32031 0.46094
vt 0.32031 0.46094
vt 0.32031 0.46094
vt 0.24219 0.46094
vt 0.32031 0.53906
vt 0.32031 0.46094
vt 0.64844 0.86719
vt 0.69531 0.86719
vt 0.64844 0.82031
vt 0.92969 0.83594
vt 0.92969 0.75781
vt 0.88281 0.75781
vt 0.92969 0.75781
vt 0.89844 0.96094
vt 0.94531 0.96094
vt 0.89844 0.69531
vt 0.89844 0.96094
vt 0.69531 0.86719
vt 0.69531 0.74219
vt 0.66406 0.77344
vt 0.64844 0.74219
vt 0.69531 0.47656
vt 0.69531 0.74219
vt 0.69531 0.86719
vt 0.69531 0.74219
vt 0.64844 0.80469
vt 0.66406 0.77344
vt 0.64844 0.74219
vt 0.69531 0.47656
vt 0.69531 0.74219
vt 0.69531 0.82031
vt 0.69531 0.71094
vt 0.64844 0.77344
vt 0.66406 0.74219
vt 0.64844 0.71094
vt 0.69531 0.47656
vt 0.69531 0.71094
vt 0.64844 0.80469
vt 0.69531 0.74219
vt 0.69531 0.86719
vt 0.60156 0.47656
vt 0.60156 0.39844
vt 0.53906 0.47656
vt 0.58594 0.58594
vt 0.47656 0.39844
vt 0.46094 0.53906
vt 0.38281 0.47656
vt 0.52344 0.63281
vt 0.53906 0.47656
vt 0.64844 0.50781
vt 0.38281 0.47656
vt 0.60156 0.57031
vt 0.53906 0.47656
vt 0.60156 0.39844
vt 0.53906 0.47656
vt 0.47656 0.39844
vt 0.46094 0.53906
vt 0.38281 0.47656
vt 0.38281 0.47656
vt 0.60156 0.57031
vt 0.13281 0.88281
vt 0.00781 0.83594
vt 0.08594 0.77344
vt 0.00781 0.89844
vt 0.19531 0.99219
vt 0.00781 0.99219
vt 0.00781 0.88281
vt 0.10156 0.85156
vt 0.00781 0.82031
vt 0.07031 0.72656
vt 0.00781 0.72656
vt 0.08594 0.77344
vt 0.00781 0.82031
vt 0.10156 0.85156
vt 0.00781 0.88281
vt 0.19531 0.99219
vt 0.00781 0.99219
vt 0.00781 0.89844
vt 0.13281 0.88281
vt 0.00781 0.83594
vt 0.00781 0.86719
vt 0.00781 0.74219
vt 0.13281 0.75781
vt 0.13281 0.85156
vt 0.19531 0.99219
vt 0.00781 0.99219
vt 0.13281 0.91406
vt 0.00781 0.82031
vt 0.10156 0.82031
vt 0.08594 0.74219
vt 0.00781 0.74219
vt 0.00781 0.86719
vt 0.19531 0.99219
vt 0.00781 0.99219
vt 0.13281 0.91406
vt 0.00781 0.82031
vt 0.10156 0.82031
vt 0.00781 0.83594
vt 0.00781 0.91406
vt 0.10156 0.99219
vt 0.00781 0.99219
vt 0.00781 0.86719
vt 0.07031 0.83594
vt 0.00781 0.72656
vt 0.00781 0.83594
vt 0.00781 0.91406
vt 0.00781 0.99219
vt 0.22656 0.00781
vt 0.42969 0.00781
vt 0.42969 0.17969
vt 0.22656 0.17969
vt 0.00781 0.00781
vt 0.00781 0.17969
vt 0.49219 0.17969
vt 0.28906 0.00781
vt 0.49219 0.00781
vt 0.28906 0.17969
vt 0.07031 0.00781
vt 0.07031 0.17969
vt 0.46094 0.17969
vt 0.25781 0.00781
vt 0.46094 0.00781
vt 0.25781 0.17969
vt 0.03906 0.00781
vt 0.03906 0.17969
vt 0.00781 0.36719
vt 0.25781 0.19531
vt 0.25781 0.36719
vt 0.25781 0.19531
vt 0.00781 0.19531
vt 0.25781 0.36719
vt 0.00781 0.36719
vt 0.25781 0.19531
vt 0.00781 0.19531
vt 0.00781 0.36719
vt 0.25781 0.36719
vt 0.00781 0.19531
vt 0.39844 0.27344
vt 0.00781 0.36719
vt 0.25781 0.19531
vt 0.25781 0.36719
vt 0.25781 0.19531
vt 0.00781 0.19531
vt 0.25781 0.36719
vt 0.00781 0.36719
vt 0.25781 0.19531
vt 0.00781 0.19531
vt 0.00781 0.36719
vt 0.25781 0.36719
vt 0.00781 0.19531
vt 0.39844 0.27344
vt 0.00781 0.36719
vt 0.25781 0.19531
vt 0.25781 0.36719
vt 0.25781 0.19531
vt 0.00781 0.19531
vt 0.25781 0.36719
vt 0.00781 0.36719
vt 0.25781 0.19531
vt 0.00781 0.19531
vt 0.00781 0.36719
vt 0.25781 0.36719
vt 0.00781 0.19531
vt 0.39844 0.27344
vt 0.49219 0.17969
vt 0.28906 0.00781
vt 0.49219 0.00781
vt 0.28906 0.17969
vt 0.07031 0.00781
vt 0.07031 0.17969
usemtl m0
f 1/1 2/2 3/3
f 4/4 2/2 1/1
f 4/4 5/5 2/2
f 5/5 6/6 2/2
f 2/2 6/6 7/7
f 2/2 7/7 3/3
f 6/6 8/8 7/7
f 3/3 7/7 9/9
f 3/3 9/9 10/10
f 11/11 3/3 10/10
f 1/1 3/3 11/11
f 12/12 1/1 11/11
f 6/6 13/13 8/8
f 14/14 13/13 6/6
f 5/5 14/14 6/6
f 15/15 14/14 5/5
f 1/1 16/16 4/4
f 16/16 5/5 4/4
f 17/17 16/16 1/1
f 9/9 7/7 17/17
f 17/17 7/7 16/16
f 10/10 9/9 17/17
f 16/16 18/18 5/5
f 7/7 18/18 16/16
f 7/7 8/8 18/18
f 8/8 13/13 18/18
f 10/10 17/17 19/19
f 19/19 17/17 1/1
f 19/19 1/1 12/12
f 18/18 13/13 20/20
f 18/18 20/20 5/5
f 5/5 20/20 15/15
f 21/21 22/22 23/23
f 22/22 24/24 23/23
f 22/22 25/25 24/24
f 26/26 25/25 22/22
f 27/27 21/21 23/23
f 27/27 23/23 28/28
f 29/29 27/27 28/28
f 30/30 27/27 29/29
f 30/30 29/29 31/31
f 31/31 29/29 32/32
f 33/33 30/30 31/31
f 31/31 32/32 33/33
f 34/34 30/30 33/33
f 35/35 25/25 26/26
f 35/35 26/26 36/36
f 37/37 35/35 36/36
f 37/37 36/36 38/38
f 39/39 37/37 38/38
f 24/24 25/25 40/40
f 40/40 25/25 41/41
f 42/42 35/35 37/37
f 42/42 41/41 35/35
f 43/43 42/42 37/37
f 43/43 37/37 39/39
f 28/28 44/44 29/29
f 29/29 44/44 45/45
f 33/33 45/45 34/34
f 46/46 45/45 33/33
f 33/33 32/32 46/46
f 32/32 29/29 46/46
f 46/46 29/29 45/45
f 41/41 25/25 35/35
f 23/23 40/40 47/47
f 23/23 47/47 44/44
f 23/23 24/24 40/40
f 28/28 23/23 44/44
f 48/48 49/49 50/50
f 50/50 49/49 51/51
f 52/52 48/48 50/50
f 53/53 48/48 52/52
f 51/51 49/49 54/54
f 54/54 49/49 55/55
f 54/54 55/55 52/52
f 52/52 55/55 53/53
f 56/56 57/57 58/58
f 56/56 59/59 57/57
f 59/59 60/60 57/57
f 59/59 61/61 60/60
f 62/62 61/61 59/59
f 63/63 61/61 62/62
f 58/58 57/57 64/64
f 57/57 65/65 64/64
f 57/57 60/60 65/65
f 60/60 61/61 65/65
f 65/65 61/61 66/66
f 66/66 61/61 63/63
f 67/67 68/68 69/69
f 70/70 68/68 67/67
f 71/71 72/72 73/73
f 73/73 72/72 74/74
f 75/75 71/71 73/73
f 76/76 71/71 75/75
f 74/74 72/72 77/77
f 77/77 72/72 78/78
f 75/75 78/78 76/76
f 77/77 78/78 75/75
f 79/79 80/80 81/81
f 82/82 80/80 79/79
f 80/80 83/83 81/81
f 80/80 84/84 83/83
f 85/85 86/86 87/87
f 88/88 85/85 87/87
f 85/85 89/89 86/86
f 85/85 90/90 89/89
f 91/91 92/92 93/93
f 93/93 92/92 94/94
f 95/95 96/96 97/97
f 98/98 95/95 97/97
f 99/99 96/96 95/95
f 99/99 95/95 98/98
f 100/100 101/101 102/102
f 103/103 100/100 102/102
f 104/104 101/101 100/100
f 104/104 100/100 103/103
f 105/105 106/106 107/107
f 108/108 106/106 105/105
f 107/107 106/106 109/109
f 109/109 106/106 108/108
f 110/110 111/111 112/112
f 111/111 113/113 112/112
f 111/111 114/114 113/113
f 114/114 115/115 113/113
f 114/114 116/116 115/115
f 116/116 117/117 115/115
f 116/116 118/118 117/117
f 118/118 119/119 117/117
f 118/118 120/120 119/119
f 120/120 121/121 119/119
f 122/122 111/111 110/110
f 123/123 114/114 111/111
f 122/122 123/123 111/111
f 124/124 116/116 114/114
f 123/123 124/124 114/114
f 124/124 125/125 116/116
f 125/125 118/118 116/116
f 125/125 126/126 118/118
f 126/126 121/121 120/120
f 126/126 120/120 118/118
f 127/127 128/128 129/129
f 128/128 130/130 129/129
f 130/130 131/131 129/129
f 131/131 132/132 129/129
f 133/133 132/132 131/131
f 133/133 134/134 132/132
f 134/134 135/135 132/132
f 136/136 128/128 127/127
f 137/137 128/128 136/136
f 138/138 137/137 136/136
f 139/139 137/137 138/138
f 129/129 140/140 127/127
f 129/129 141/141 140/140
f 132/132 135/135 142/142
f 132/132 142/142 143/143
f 129/129 144/144 141/141
f 129/129 132/132 144/144
f 144/144 132/132 143/143
f 138/138 145/145 139/139
f 146/146 145/145 138/138
f 146/146 140/140 145/145
f 127/127 140/140 146/146
f 147/147 148/148 149/149
f 150/150 148/148 147/147
f 151/151 152/152 153/153
f 151/151 154/154 152/152
f 154/154 155/155 152/152
f 154/154 156/156 155/155
f 156/156 157/157 155/155
f 156/156 158/158 157/157
f 159/159 158/158 156/156
f 159/159 160/160 158/158
f 153/153 152/152 161/161
f 158/158 160/160 162/162
f 157/157 158/158 163/163
f 155/155 157/157 163/163
f 163/163 158/158 162/162
f 155/155 163/163 164/164
f 152/152 155/155 164/164
f 152/152 164/164 161/161
f 165/165 166/166 167/167
f 168/168 165/165 167/167
f 169/169 170/170 171/171
f 172/172 171/171 169/169
f 173/173 172/172 169/169
f 171/171 170/170 174/174
f 174/174 171/171 172/172
f 174/174 172/172 173/173
f 175/175 176/176 177/177
f 178/178 176/176 175/175
f 177/177 176/176 179/179
f 179/179 176/176 178/178
f 180/180 181/181 182/182
f 183/183 181/181 180/180
f 184/184 185/185 186/186
f 187/187 186/186 184/184
f 187/187 184/184 188/188
f 188/188 184/184 189/189
f 186/186 185/185 190/190
f 190/190 186/186 187/187
f 188/188 190/190 187/187
f 189/189 190/190 188/188
f 191/191 192/192 193/193
f 194/194 192/192 191/191
f 193/193 192/192 195/195
f 195/195 192/192 194/194
f 196/196 197/197 198/198
f 199/199 197/197 196/196
f 200/200 201/201 202/202
f 202/202 200/200 203/203
f 203/203 200/200 204/204
f 204/204 200/200 205/205
f 202/202 201/201 206/206
f 203/203 206/206 202/202
f 204/204 206/206 203/203
f 207/207 208/208 209/209
f 210/210 208/208 207/207
f 209/209 208/208 211/211
f 211/211 208/208 210/210
f 212/212 213/213 214/214
f 215/215 213/213 212/212
f 216/216 217/217 218/218
f 216/216 219/219 217/217
f 217/217 219/219 220/220
f 219/219 221/221 220/220
f 219/219 222/222 221/221
f 222/222 223/223 221/221
f 222/222 224/224 223/223
f 224/224 225/225 223/223
f 226/226 227/227 228/228
f 229/229 226/226 228/228
f 229/229 228/228 230/230
f 228/228 227/227 230/230
f 230/230 227/227 231/231
f 231/231 227/227 232/232
f 227/227 233/233 232/232
f 233/233 234/234 232/232
f 233/233 235/235 234/234
f 235/235 236/236 234/234
f 235/235 237/237 236/236
f 237/237 238/238 236/236
f 237/237 239/239 238/238
f 230/230 240/240 229/229
f 240/240 226/226 229/229
f 240/240 241/241 226/226
f 230/230 241/241 240/240
f 231/231 241/241 230/230
f 232/232 241/241 231/231
f 232/232 242/242 241/241
f 232/232 234/234 242/242
f 234/234 243/243 242/242
f 234/234 236/236 243/243
f 236/236 238/238 244/244
f 238/238 239/239 244/244
f 236/236 244/244 243/243
f 237/237 245/245 239/239
f 246/246 245/245 237/237
f 246/246 247/247 245/245
f 248/248 246/246 237/237
f 249/249 246/246 248/248
f 239/239 245/245 250/250
f 250/250 251/251 239/239
f 239/239 251/251 252/252
f 253/253 239/239 252/252
f 253/253 244/244 239/239
f 253/253 247/247 254/254
f 254/254 244/244 253/253
f 255/255 249/249 254/254
f 255/255 246/246 249/249
f 256/256 246/246 255/255
f 257/257 254/254 249/249
f 244/244 254/254 257/257
f 255/255 254/254 258/258
f 258/258 254/254 259/259
f 247/247 246/246 259/259
f 259/259 254/254 247/247
f 259/259 246/246 256/256
f 260/260 261/261 262/262
f 263/263 260/260 262/262
f 263/263 262/262 264/264
f 265/265 263/263 264/264
f 265/265 264/264 266/266
f 267/267 265/265 266/266
f 267/267 266/266 268/268
f 269/269 267/267 268/268
f 269/269 268/268 270/270
f 271/271 269/269 270/270
f 271/271 270/270 272/272
f 273/273 271/271 272/272
f 274/274 275/275 276/276
f 276/276 275/275 277/277
f 278/278 279/279 280/280
f 281/281 282/282 283/283
f 282/282 284/284 283/283
f 283/283 281/281 285/285
f 286/286 283/283 285/285
f 281/281 287/287 283/283
f 287/287 288/288 283/283
f 289/289 290/290 291/291
f 291/291 290/290 292/292
f 290/290 293/293 292/292
f 290/290 294/294 293/293
f 291/291 295/295 289/289
f 293/293 294/294 295/295
f 296/296 295/295 291/291
f 296/296 293/293 295/295
f 297/297 298/298 299/299
f 300/300 298/298 297/297
f 301/301 302/302 303/303
f 304/304 301/301 303/303
f 304/304 303/303 305/305
f 305/305 306/306 304/304
f 307/307 308/308 309/309
f 310/310 311/311 312/312
f 312/312 311/311 313/313
f 314/314 315/315 316/316
f 314/314 317/317 315/315
f 314/314 318/318 317/317
f 318/318 319/319 317/317
f 318/318 320/320 319/319
f 320/320 321/321 319/319
f 322/322 323/323 324/324
f 322/322 325/325 323/323
f 325/325 326/326 323/323
f 325/325 327/327 326/326
f 327/327 328/328 326/326
f 327/327 329/329 328/328
f 329/329 330/330 328/328
f 329/329 331/331 330/330
f 332/332 330/330 331/331
f 332/332 331/331 333/333
f 334/334 332/332 333/333
f 334/334 333/333 335/335
f 336/336 334/334 335/335
f 322/322 324/324 337/337
f 338/338 339/339 340/340
f 341/341 339/339 338/338
f 342/342 343/343 344/344
f 344/344 343/343 345/345
f 346/346 347/347 348/348
f 349/349 350/350 351/351
f 351/351 352/352 349/349
f 353/353 354/354 355/355
f 355/355 354/354 356/356
f 357/357 358/358 359/359
f 359/359 358/358 360/360
f 358/358 361/361 360/360
f 359/359 362/362 357/357
f 360/360 361/361 362/362
f 360/360 362/362 359/359
f 363/363 364/364 365/365
f 365/365 364/364 366/366
f 366/366 364/364 367/367
f 364/364 368/368 367/367
f 365/365 369/369 363/363
f 367/367 368/368 369/369
f 367/367 369/369 366/366
f 366/366 369/369 365/365
f 370/370 371/371 372/372
f 372/372 371/371 373/373
f 371/371 374/374 373/373
f 371/371 375/375 374/374
f 374/374 375/375 376/376
f 373/373 374/374 376/376
f 373/373 376/376 372/372
f 377/377 378/378 379/379
f 380/380 381/381 382/382
f 383/383 380/380 382/382
f 382/382 381/381 384/384
f 383/383 382/382 385/385
f 385/385 382/382 386/386
f 382/382 384/384 386/386
f 387/387 383/383 385/385
f 381/381 388/388 384/384
f 381/381 389/389 388/388
f 384/384 388/388 390/390
f 388/388 391/391 390/390
f 388/388 389/389 391/391
f 392/392 380/380 383/383
f 392/392 393/393 380/380
f 394/394 389/389 393/393
f 395/395 393/393 392/392
f 395/395 394/394 393/393
f 396/396 392/392 383/383
f 396/396 383/383 387/387
f 397/397 392/392 396/396
f 397/397 395/395 392/392
f 398/398 394/394 395/395
f 398/398 399/399 394/394
f 399/399 389/389 394/394
f 400/400 401/401 402/402
f 403/403 401/401 400/400
f 404/404 403/403 400/400
f 405/405 403/403 404/404
f 406/406 405/405 404/404
f 406/406 404/404 407/407
f 408/408 406/406 407/407
f 409/409 408/408 407/407
f 410/410 408/408 409/409
f 409/409 407/407 411/411
f 409/409 412/412 410/410
f 413/413 412/412 409/409
f 411/411 413/413 409/409
f 413/413 414/414 412/412
f 413/413 415/415 414/414
f 415/415 416/416 414/414
f 415/415 417/417 416/416
f 418/418 417/417 415/415
f 418/418 419/419 417/417
f 402/402 419/419 418/418
f 420/420 421/421 422/422
f 420/420 422/422 423/423
f 424/424 420/420 423/423
f 425/425 420/420 424/424
f 426/426 425/425 424/424
f 427/427 425/425 426/426
f 428/428 427/427 426/426
f 429/429 427/427 428/428
f 430/430 427/427 429/429
f 422/422 421/421 431/431
f 423/423 422/422 431/431
f 423/423 431/431 432/432
f 432/432 431/431 433/433
f 432/432 433/433 434/434
f 434/434 433/433 435/435
f 429/429 435/435 430/430
f 434/434 435/435 436/436
f 436/436 435/435 429/429
f 437/437 438/438 439/439
f 438/438 440/440 439/439
f 440/440 441/441 439/439
f 437/437 439/439 442/442
f 443/443 437/437 442/442
f 442/442 444/444 443/443
f 442/442 439/439 444/444
f 439/439 445/445 444/444
f 439/439 441/441 446/446
f 439/439 446/446 445/445
usemtl m1
f 447/447 448/448 449/449
f 450/450 447/447 449/449
f 451/451 447/447 450/450
f 452/452 451/451 450/450
f 453/453 454/454 455/455
f 456/456 454/454 453/453
f 456/456 457/457 454/454
f 458/458 457/457 456/456
f 459/459 460/460 461/461
f 462/462 460/460 459/459
f 462/462 463/463 460/460
f 464/464 463/463 462/462
f 465/465 466/466 467/467
f 467/467 468/468 465/465
f 465/465 468/468 469/469
f 468/468 470/470 469/469
f 470/470 471/471 469/469
f 472/472 471/471 470/470
f 472/472 473/473 471/471
f 474/474 473/473 472/472
f 474/474 472/472 475/475
f 476/476 466/466 465/465
f 466/466 477/477 467/467
f 467/467 477/477 468/468
f 475/475 472/472 477/477
f 477/477 470/470 468/468
f 477/477 472/472 470/470
f 478/478 479/479 480/480
f 480/480 481/481 478/478
f 478/478 481/481 482/482
f 481/481 483/483 482/482
f 482/482 483/483 484/484
f 483/483 485/485 484/484
f 484/484 485/485 486/486
f 486/486 485/485 487/487
f 487/487 485/485 488/488
f 489/489 479/479 478/478
f 479/479 490/490 480/480
f 480/480 490/490 481/481
f 488/488 485/485 490/490
f 481/481 490/490 483/483
f 490/490 485/485 483/483
f 491/491 492/492 493/493
f 493/493 494/494 491/491
f 491/491 494/494 495/495
f 495/495 494/494 496/496
f 495/495 496/496 497/497
f 497/497 496/496 498/498
f 497/497 498/498 499/499
f 499/499 498/498 500/500
f 498/498 501/501 500/500
f 502/502 492/492 491/491
f 492/492 503/503 493/493
f 493/493 503/503 494/494
f 498/498 503/503 501/501
f 494/494 503/503 496/496
f 496/496 503/503 498/498
f 504/504 505/505 506/506
f 507/507 505/505 504/504
f 507/507 508/508 505/505
f 509/509 508/508 507/507
