mtllib arms7043.mtl
o arms7043
v -1.79568 0.26640 2.04426 0.000 0.000 0.000
v -1.91214 0.26352 2.01780 0.000 0.000 0.000
v -1.87848 0.23760 1.99944 0.000 0.000 0.000
v -1.87848 0.27972 1.99044 0.000 0.000 0.000
v -1.90620 0.23616 1.88946 0.000 0.000 0.000
v -1.79010 0.24030 2.01960 0.000 0.000 0.000
v -1.79370 0.28242 2.01060 0.000 0.000 0.000
v -1.87146 0.21510 1.89396 0.000 0.000 0.000
v -1.87146 0.25740 1.88496 0.000 0.000 0.000
v -1.88100 0.23652 1.78668 0.000 0.000 0.000
v -1.91448 0.21042 1.76814 0.000 0.000 0.000
v -1.88100 0.19422 1.79568 0.000 0.000 0.000
v -1.75752 0.20214 1.72944 0.000 0.000 0.000
v -1.75806 0.22950 1.75392 0.000 0.000 0.000
v -1.75806 0.18738 1.76292 0.000 0.000 0.000
v -1.82268 -0.11502 2.14308 0.000 0.000 0.000
v -1.80270 -0.11502 2.19114 0.000 0.000 0.000
v -1.80270 -0.06930 2.17674 0.000 0.000 0.000
v -1.80270 -0.16092 2.17674 0.000 0.000 0.000
v -1.80270 -0.06930 2.12868 0.000 0.000 0.000
v -1.80270 -0.16092 2.12868 0.000 0.000 0.000
v -1.82268 -0.11502 2.14308 0.000 0.000 0.000
v -1.96074 -0.11502 2.06964 0.000 0.000 0.000
v -1.94688 -0.16092 2.05488 0.000 0.000 0.000
v -1.94688 -0.06930 2.05488 0.000 0.000 0.000
v -2.04300 -0.11502 1.89000 0.000 0.000 0.000
v -1.80270 -0.16092 2.12868 0.000 0.000 0.000
v -1.80270 -0.06930 2.12868 0.000 0.000 0.000
v -2.01906 -0.16092 1.89000 0.000 0.000 0.000
v -2.01906 -0.06930 1.89000 0.000 0.000 0.000
v -1.92708 -0.06930 1.72512 0.000 0.000 0.000
v -1.94382 -0.11502 1.71036 0.000 0.000 0.000
v -1.92708 -0.16092 1.72512 0.000 0.000 0.000
v -1.77246 -0.11502 1.63692 0.000 0.000 0.000
v -1.74312 -0.06930 1.65132 0.000 0.000 0.000
v -1.74852 -0.16092 1.65132 0.000 0.000 0.000
v -1.77246 -0.11502 1.63692 0.000 0.000 0.000
v -1.73952 -0.11502 1.58886 0.000 0.000 0.000
v -1.74672 -0.16092 1.60326 0.000 0.000 0.000
v -1.73772 -0.06930 1.60326 0.000 0.000 0.000
v -1.74852 -0.16092 1.65132 0.000 0.000 0.000
v -1.74312 -0.06930 1.65132 0.000 0.000 0.000
v -1.76454 0.24930 1.76940 0.000 0.000 0.000
v -1.76022 0.23940 1.72908 0.000 0.000 0.000
v -1.78974 0.20754 1.75536 0.000 0.000 0.000
v -1.75698 0.19926 1.71756 0.000 0.000 0.000
v -1.76544 0.21924 1.79838 0.000 0.000 0.000
v -1.76202 0.17910 1.78704 0.000 0.000 0.000
v -1.75788 0.16902 1.74654 0.000 0.000 0.000
v -1.80306 0.30222 2.03382 0.000 0.000 0.000
v -1.79982 0.29610 1.99260 0.000 0.000 0.000
v -1.82448 0.25938 2.01744 0.000 0.000 0.000
v -1.79298 0.25776 1.97766 0.000 0.000 0.000
v -1.79928 0.27000 2.06010 0.000 0.000 0.000
v -1.79244 0.23148 2.04516 0.000 0.000 0.000
v -1.78920 0.22536 2.00394 0.000 0.000 0.000
v -1.89720 -0.48150 2.44584 0.000 0.000 0.243
v -1.83420 -0.44550 2.31264 0.000 0.000 0.243
v -1.83240 -0.39222 2.46402 0.000 0.000 0.235
v -1.76040 -0.32724 2.36844 0.000 0.000 0.243
v -1.73700 -0.35550 2.20536 0.000 0.000 0.239
v -1.87200 -0.39438 2.58210 0.000 0.000 0.231
v -1.92240 -0.46350 2.59812 0.000 0.000 0.243
v -1.88100 -0.36936 2.67318 0.000 0.000 0.227
v -1.91340 -0.40770 2.70000 0.000 0.000 0.235
v -1.86660 -0.30168 2.78316 0.000 0.000 0.224
v -1.85760 -0.49608 2.19564 0.000 0.000 0.235
v -1.74600 -0.37296 2.08782 0.000 0.000 0.243
v -1.73700 -0.35550 2.20536 0.000 0.000 0.239
v -1.83420 -0.44550 2.31264 0.000 0.000 0.243
v -1.91880 -0.53442 2.31570 0.000 0.000 0.231
v -1.89180 -0.49122 2.38320 0.000 0.000 0.227
v -1.94040 -0.51894 2.47194 0.000 0.000 0.227
v -1.85940 -0.51354 2.14614 0.000 0.000 0.243
v -1.75140 -0.38322 2.00070 0.000 0.000 0.243
v -1.74600 -0.37296 2.08782 0.000 0.000 0.243
v -1.82160 -0.46566 2.16450 0.000 0.000 0.227
v -1.87740 -0.53280 2.20788 0.000 0.000 0.227
v -1.83240 0.39222 2.46402 0.000 0.000 0.235
v -1.83420 0.44550 2.31264 0.000 0.000 0.243
v -1.89720 0.48150 2.44584 0.000 0.000 0.243
v -1.76040 0.32724 2.36844 0.000 0.000 0.243
v -1.73700 0.35550 2.20536 0.000 0.000 0.239
v -1.87200 0.39438 2.58210 0.000 0.000 0.231
v -1.92240 0.46350 2.59812 0.000 0.000 0.243
v -1.88100 0.36936 2.67318 0.000 0.000 0.227
v -1.91340 0.40770 2.70000 0.000 0.000 0.235
v -1.86660 0.30168 2.78316 0.000 0.000 0.224
v -1.73700 0.35550 2.20536 0.000 0.000 0.239
v -1.74600 0.37296 2.08782 0.000 0.000 0.243
v -1.85760 0.49608 2.19564 0.000 0.000 0.235
v -1.83420 0.44550 2.31264 0.000 0.000 0.243
v -1.91880 0.53442 2.31570 0.000 0.000 0.231
v -1.89180 0.49122 2.38320 0.000 0.000 0.227
v -1.94040 0.51894 2.47194 0.000 0.000 0.227
v -1.74600 0.37296 2.08782 0.000 0.000 0.243
v -1.75140 0.38322 2.00070 0.000 0.000 0.243
v -1.85940 0.51354 2.14614 0.000 0.000 0.243
v -1.82160 0.46566 2.16450 0.000 0.000 0.227
v -1.87740 0.53280 2.20788 0.000 0.000 0.227
v -1.58958 -0.16398 2.43216 0.000 0.000 0.882
v -1.47060 0.00000 2.33982 0.000 0.000 0.843
v -1.51038 0.00000 2.61972 0.000 0.000 0.831
v -1.55340 -0.13374 2.28924 0.000 0.000 0.875
v -1.57968 -0.10134 2.59344 0.000 0.000 0.875
v -1.60038 -0.14994 2.49930 0.000 0.000 0.882
v -1.63584 -0.16650 2.54592 0.000 0.000 0.882
v -1.61478 -0.20844 2.39094 0.000 0.000 0.882
v -1.62180 -0.23166 2.31606 0.000 0.000 0.875
v -1.66248 -0.25776 2.38158 0.000 0.000 0.882
v -1.67940 -0.28854 2.34072 0.000 0.000 0.890
v -1.72800 -0.30708 2.38662 0.000 0.000 0.882
v -1.58958 0.16398 2.43216 0.000 0.000 0.882
v -1.55340 0.13374 2.28924 0.000 0.000 0.875
v -1.57968 0.10134 2.59344 0.000 0.000 0.875
v -1.60038 0.14994 2.49930 0.000 0.000 0.882
v -1.63584 0.16650 2.54592 0.000 0.000 0.882
v -1.61478 0.20844 2.39094 0.000 0.000 0.882
v -1.62180 0.23166 2.31606 0.000 0.000 0.875
v -1.66248 0.25776 2.38158 0.000 0.000 0.882
v -1.67940 0.28854 2.34072 0.000 0.000 0.890
v -1.72800 0.30708 2.38662 0.000 0.000 0.882
v -1.59354 0.00000 2.57382 0.000 0.000 0.855
v -1.72116 0.00000 2.31894 0.000 0.000 0.863
v -1.64700 -0.10278 2.43396 0.000 0.000 0.875
v -1.65474 -0.08820 2.54322 0.000 0.000 0.863
v -1.73070 -0.12366 2.32758 0.000 0.000 0.882
v -1.74168 -0.19494 2.34234 0.000 0.000 0.890
v -1.64700 0.10278 2.43396 0.000 0.000 0.875
v -1.65474 0.08820 2.54322 0.000 0.000 0.863
v -1.73070 0.12366 2.32758 0.000 0.000 0.882
v -1.74168 0.19494 2.34234 0.000 0.000 0.890
v -1.61640 -0.23184 2.25738 0.882 0.000 0.000
v -1.57500 -0.18486 2.18988 0.882 0.000 0.000
v -1.57500 -0.17298 2.23722 0.882 0.000 0.000
v -1.66500 -0.30078 2.24928 0.890 0.000 0.000
v -1.67400 -0.33120 2.13228 0.890 0.000 0.000
v -1.67400 -0.33030 2.01240 0.890 0.000 0.000
v -1.46196 0.00000 2.08062 0.855 0.000 0.000
v -1.66842 -0.31482 1.91430 0.902 0.000 0.000
v -1.63260 -0.26550 1.89126 0.902 0.000 0.000
v -1.62072 -0.23688 1.83060 0.890 0.000 0.000
v -1.59984 -0.19782 1.78182 0.882 0.000 0.000
v -1.56672 -0.13032 1.73826 0.882 0.000 0.000
v -1.50246 0.00000 1.73844 0.843 0.000 0.000
v -1.56942 -0.08802 1.65060 0.890 0.000 0.000
v -1.60650 -0.09162 1.55484 0.902 0.000 0.000
v -1.61460 -0.05310 1.48086 0.902 0.000 0.000
v -1.61100 0.00000 1.42128 0.902 0.000 0.000
v -1.63782 -0.23706 1.76454 0.902 0.000 0.000
v -1.56672 0.13032 1.73826 0.882 0.000 0.000
v -1.61460 0.05310 1.48086 0.902 0.000 0.000
v -1.56942 0.08802 1.65060 0.890 0.000 0.000
v -1.59984 0.19782 1.78182 0.882 0.000 0.000
v -1.62072 0.23688 1.83060 0.890 0.000 0.000
v -1.60650 0.09162 1.55484 0.902 0.000 0.000
v -1.63782 0.23706 1.76454 0.902 0.000 0.000
v -1.63260 0.26550 1.89126 0.902 0.000 0.000
v -1.66842 0.31482 1.91430 0.902 0.000 0.000
v -1.67400 0.33030 2.01240 0.890 0.000 0.000
v -1.57500 0.18486 2.18988 0.882 0.000 0.000
v -1.67400 0.33120 2.13228 0.890 0.000 0.000
v -1.66500 0.30078 2.24928 0.890 0.000 0.000
v -1.61640 0.23184 2.25738 0.882 0.000 0.000
v -1.57500 0.17298 2.23722 0.882 0.000 0.000
v -1.61370 -0.13662 1.61388 0.000 0.863 0.000
v -1.60650 -0.09162 1.55484 0.000 0.855 0.000
v -1.56942 -0.08802 1.65060 0.000 0.843 0.000
v -1.60236 -0.15282 1.67904 0.000 0.863 0.000
v -1.56672 -0.13032 1.73826 0.000 0.831 0.000
v -1.63602 -0.21258 1.70784 0.000 0.855 0.000
v -1.66320 -0.17262 1.55538 0.000 0.875 0.000
v -1.67940 -0.14310 1.48986 0.000 0.875 0.000
v -1.71450 -0.23022 1.55268 0.000 0.875 0.000
v -1.59984 -0.19782 1.78182 0.000 0.831 0.000
v -1.63782 -0.23706 1.76454 0.000 0.843 0.000
v -1.68588 -0.27252 1.67922 0.000 0.843 0.000
v -1.73700 -0.21906 1.49652 0.000 0.875 0.000
v -1.78560 -0.30600 1.56438 0.000 0.824 0.000
v -1.62072 -0.23688 1.83060 0.000 0.831 0.000
v -1.65960 -0.26622 1.75860 0.000 0.855 0.000
v -1.63782 -0.23706 1.76454 0.000 0.843 0.000
v -1.68588 -0.27252 1.67922 0.000 0.843 0.000
v -1.64610 -0.26838 1.81530 0.000 0.855 0.000
v -1.64934 -0.28386 1.85076 0.000 0.855 0.000
v -1.63260 -0.26550 1.89126 0.000 0.831 0.000
v -1.66842 -0.31482 1.91430 0.000 0.824 0.000
v -1.67058 -0.30564 1.84338 0.000 0.855 0.000
v -1.69110 -0.33750 1.87146 0.000 0.843 0.000
v -1.69434 -0.32850 1.81062 0.000 0.855 0.000
v -1.68138 -0.30906 1.80468 0.000 0.855 0.000
v -1.69020 -0.30510 1.76418 0.000 0.831 0.000
v -1.56942 0.08802 1.65060 0.000 0.843 0.000
v -1.60650 0.09162 1.55484 0.000 0.855 0.000
v -1.61370 0.13662 1.61388 0.000 0.863 0.000
v -1.60236 0.15282 1.67904 0.000 0.863 0.000
v -1.56672 0.13032 1.73826 0.000 0.831 0.000
v -1.63602 0.21258 1.70784 0.000 0.855 0.000
v -1.66320 0.17262 1.55538 0.000 0.875 0.000
v -1.67940 0.14310 1.48986 0.000 0.875 0.000
v -1.71450 0.23022 1.55268 0.000 0.875 0.000
v -1.59984 0.19782 1.78182 0.000 0.831 0.000
v -1.63782 0.23706 1.76454 0.000 0.843 0.000
v -1.68588 0.27252 1.67922 0.000 0.843 0.000
v -1.73700 0.21906 1.49652 0.000 0.875 0.000
v -1.78560 0.30600 1.56438 0.000 0.824 0.000
v -1.63782 0.23706 1.76454 0.000 0.843 0.000
v -1.65960 0.26622 1.75860 0.000 0.855 0.000
v -1.62072 0.23688 1.83060 0.000 0.831 0.000
v -1.68588 0.27252 1.67922 0.000 0.843 0.000
v -1.64610 0.26838 1.81530 0.000 0.855 0.000
v -1.64934 0.28386 1.85076 0.000 0.855 0.000
v -1.63260 0.26550 1.89126 0.000 0.831 0.000
v -1.66842 0.31482 1.91430 0.000 0.824 0.000
v -1.67058 0.30564 1.84338 0.000 0.855 0.000
v -1.69110 0.33750 1.87146 0.000 0.843 0.000
v -1.69434 0.32850 1.81062 0.000 0.855 0.000
v -1.68138 0.30906 1.80468 0.000 0.855 0.000
v -1.69020 0.30510 1.76418 0.000 0.831 0.000
v -1.51902 -0.05490 1.80666 0.000 0.824 0.000
v -1.53756 -0.07668 1.75824 0.000 0.843 0.000
v -1.51236 -0.03168 1.77246 0.000 0.855 0.000
v -1.49328 0.00000 1.81098 0.000 0.843 0.000
v -1.54386 -0.09918 1.79478 0.000 0.824 0.000
v -1.55088 -0.11610 1.78110 0.000 0.843 0.000
v -1.56564 -0.14490 1.82250 0.000 0.824 0.000
v -1.50570 -0.03708 1.85634 0.000 0.831 0.000
v -1.48104 0.00000 1.91034 0.000 0.816 0.000
v -1.51398 -0.06714 1.89108 0.000 0.843 0.000
v -1.54026 -0.11916 1.91160 0.000 0.824 0.000
v -1.51326 -0.06786 1.92600 0.000 0.843 0.000
v -1.49526 -0.04302 1.96398 0.000 0.831 0.000
v -1.47078 0.00000 1.99404 0.000 0.816 0.000
v -1.49346 -0.04536 2.00466 0.000 0.831 0.000
v -1.47672 -0.01908 2.03274 0.000 0.816 0.000
v -1.49166 -0.05274 2.05866 0.000 0.804 0.000
v -1.51668 -0.08658 2.01960 0.000 0.843 0.000
v -1.52622 -0.10080 2.05578 0.000 0.816 0.000
v -1.53702 -0.11916 1.99692 0.000 0.843 0.000
v -1.54800 -0.13410 2.01060 0.000 0.824 0.000
v -1.54656 -0.13410 1.96362 0.000 0.843 0.000
v -1.49526 0.04302 1.96398 0.000 0.831 0.000
v -1.51326 0.06786 1.92600 0.000 0.843 0.000
v -1.54026 0.11916 1.91160 0.000 0.824 0.000
v -1.49346 0.04536 2.00466 0.000 0.831 0.000
v -1.47672 0.01908 2.03274 0.000 0.816 0.000
v -1.49166 0.05274 2.05866 0.000 0.804 0.000
v -1.51668 0.08658 2.01960 0.000 0.843 0.000
v -1.52622 0.10080 2.05578 0.000 0.816 0.000
v -1.53702 0.11916 1.99692 0.000 0.843 0.000
v -1.54800 0.13410 2.01060 0.000 0.824 0.000
v -1.54656 0.13410 1.96362 0.000 0.843 0.000
v -1.51398 0.06714 1.89108 0.000 0.843 0.000
v -1.50570 0.03708 1.85634 0.000 0.831 0.000
v -1.51902 0.05490 1.80666 0.000 0.824 0.000
v -1.51236 0.03168 1.77246 0.000 0.855 0.000
v -1.53756 0.07668 1.75824 0.000 0.843 0.000
v -1.54386 0.09918 1.79478 0.000 0.824 0.000
v -1.55088 0.11610 1.78110 0.000 0.843 0.000
v -1.56564 0.14490 1.82250 0.000 0.824 0.000
v -1.70100 -0.22662 1.57338 0.000 0.890 0.000
v -1.64880 0.00000 1.34838 0.000 0.855 0.000
v -1.61460 -0.05310 1.48086 0.000 0.882 0.000
v -1.60650 -0.09162 1.55484 0.000 0.875 0.000
v -1.56942 -0.08802 1.65060 0.000 0.863 0.000
v -1.56672 -0.13032 1.73826 0.000 0.855 0.000
v -1.61100 0.00000 1.42128 0.000 0.875 0.000
v -1.59984 -0.19782 1.78182 0.000 0.855 0.000
v -1.63782 -0.23706 1.76454 0.000 0.863 0.000
v -1.72800 -0.37062 1.80900 0.000 0.882 0.000
v -1.62072 -0.23688 1.83060 0.000 0.855 0.000
v -1.61460 0.05310 1.48086 0.000 0.882 0.000
v -1.70100 0.22662 1.57338 0.000 0.890 0.000
v -1.60650 0.09162 1.55484 0.000 0.875 0.000
v -1.56942 0.08802 1.65060 0.000 0.863 0.000
v -1.56672 0.13032 1.73826 0.000 0.855 0.000
v -1.59984 0.19782 1.78182 0.000 0.855 0.000
v -1.63782 0.23706 1.76454 0.000 0.863 0.000
v -1.72800 0.37062 1.80900 0.000 0.882 0.000
v -1.62072 0.23688 1.83060 0.000 0.855 0.000
v -1.76220 -0.42912 1.85022 0.000 0.882 0.000
v -1.72800 -0.37062 1.80900 0.000 0.882 0.000
v -1.66842 -0.31482 1.91430 0.000 0.843 0.000
v -1.79820 -0.48528 1.96992 0.000 0.855 0.000
v -1.67400 -0.33030 2.01240 0.000 0.855 0.000
v -1.81440 -0.50562 2.12562 0.000 0.824 0.000
v -1.63260 -0.26550 1.89126 0.000 0.855 0.000
v -1.62072 -0.23688 1.83060 0.000 0.855 0.000
v -1.76760 -0.43740 2.08980 0.000 0.863 0.000
v -1.67400 -0.33120 2.13228 0.000 0.855 0.000
v -1.76400 -0.42858 2.18340 0.000 0.843 0.000
v -1.75680 -0.40536 2.27718 0.000 0.816 0.000
v -1.70280 -0.35550 2.21256 0.000 0.855 0.000
v -1.66500 -0.30078 2.24928 0.000 0.855 0.000
v -1.81062 -0.41256 1.84590 0.000 0.882 0.000
v -1.84338 -0.46782 1.96704 0.000 0.875 0.000
v -1.80720 -0.37620 1.90206 0.000 0.882 0.000
v -1.77372 -0.30168 1.84950 0.000 0.875 0.000
v -1.85346 -0.49356 2.12076 0.000 0.843 0.000
v -1.81620 -0.41310 2.00700 0.000 0.863 0.000
v -1.81782 -0.41742 2.08188 0.000 0.863 0.000
v -1.80900 -0.36324 2.03994 0.000 0.875 0.000
v -1.77336 -0.35190 1.80666 0.000 0.902 0.000
v -1.72800 -0.37062 1.80900 0.000 0.882 0.000
v -1.77336 -0.35190 1.80666 0.000 0.902 0.000
v -1.74744 -0.21924 1.57878 0.000 0.890 0.000
v -1.72800 -0.37062 1.80900 0.000 0.882 0.000
v -1.70100 -0.22662 1.57338 0.000 0.890 0.000
v -1.69470 0.00000 1.35036 0.000 0.890 0.000
v -1.64880 0.00000 1.34838 0.000 0.855 0.000
v -1.70100 0.22662 1.57338 0.000 0.890 0.000
v -1.74744 0.21924 1.57878 0.000 0.890 0.000
v -1.72800 0.37062 1.80900 0.000 0.882 0.000
v -1.77336 0.35190 1.80666 0.000 0.902 0.000
v -1.74744 -0.21924 1.57878 0.000 0.890 0.000
v -1.77336 -0.35190 1.80666 0.000 0.902 0.000
v -1.77372 -0.30168 1.84950 0.000 0.875 0.000
v -1.74762 -0.18306 1.62054 0.000 0.890 0.000
v -1.71720 0.00000 1.43568 0.000 0.875 0.000
v -1.69470 0.00000 1.35036 0.000 0.890 0.000
v -1.74744 0.21924 1.57878 0.000 0.890 0.000
v -1.74762 0.18306 1.62054 0.000 0.890 0.000
v -1.77372 0.30168 1.84950 0.000 0.875 0.000
v -1.77336 0.35190 1.80666 0.000 0.902 0.000
v -1.80900 -0.34632 2.14920 0.000 0.855 0.000
v -1.81782 -0.41742 2.08188 0.000 0.863 0.000
v -1.80162 -0.39456 2.26422 0.000 0.831 0.000
v -1.80486 -0.34668 2.20320 0.000 0.875 0.000
v -1.80270 -0.28080 2.17908 0.000 0.843 0.000
v -1.78560 -0.27018 2.25108 0.000 0.863 0.000
v -1.80900 -0.36324 2.03994 0.000 0.875 0.000
v -1.81440 -0.50562 2.12562 0.000 0.824 0.000
v -1.76760 -0.43740 2.08980 0.000 0.863 0.000
v -1.81782 -0.41742 2.08188 0.000 0.863 0.000
v -1.85346 -0.49356 2.12076 0.000 0.843 0.000
v -1.80162 -0.39456 2.26422 0.000 0.831 0.000
v -1.76400 -0.42858 2.18340 0.000 0.843 0.000
v -1.75680 -0.40536 2.27718 0.000 0.816 0.000
v -1.81782 -0.41742 2.08188 0.000 0.863 0.000
v -1.76760 -0.43740 2.08980 0.000 0.863 0.000
v -1.75680 -0.40536 2.27718 0.000 0.816 0.000
v -1.80486 -0.34668 2.20320 0.000 0.875 0.000
v -1.80162 -0.39456 2.26422 0.000 0.831 0.000
v -1.70280 -0.35550 2.21256 0.000 0.855 0.000
v -1.66842 0.31482 1.91430 0.000 0.843 0.000
v -1.72800 0.37062 1.80900 0.000 0.882 0.000
v -1.76220 0.42912 1.85022 0.000 0.882 0.000
v -1.79820 0.48528 1.96992 0.000 0.855 0.000
v -1.67400 0.33030 2.01240 0.000 0.855 0.000
v -1.81440 0.50562 2.12562 0.000 0.824 0.000
v -1.63260 0.26550 1.89126 0.000 0.855 0.000
v -1.62072 0.23688 1.83060 0.000 0.855 0.000
v -1.76760 0.43740 2.08980 0.000 0.863 0.000
v -1.67400 0.33120 2.13228 0.000 0.855 0.000
v -1.76400 0.42858 2.18340 0.000 0.843 0.000
v -1.75680 0.40536 2.27718 0.000 0.816 0.000
v -1.70280 0.35550 2.21256 0.000 0.855 0.000
v -1.66500 0.30078 2.24928 0.000 0.855 0.000
v -1.81062 0.41256 1.84590 0.000 0.882 0.000
v -1.84338 0.46782 1.96704 0.000 0.875 0.000
v -1.80720 0.37620 1.90206 0.000 0.882 0.000
v -1.77372 0.30168 1.84950 0.000 0.875 0.000
v -1.85346 0.49356 2.12076 0.000 0.843 0.000
v -1.81620 0.41310 2.00700 0.000 0.863 0.000
v -1.81782 0.41742 2.08188 0.000 0.863 0.000
v -1.80900 0.36324 2.03994 0.000 0.875 0.000
v -1.77336 0.35190 1.80666 0.000 0.902 0.000
v -1.72800 0.37062 1.80900 0.000 0.882 0.000
v -1.80162 0.39456 2.26422 0.000 0.831 0.000
v -1.81782 0.41742 2.08188 0.000 0.863 0.000
v -1.80900 0.34632 2.14920 0.000 0.855 0.000
v -1.80486 0.34668 2.20320 0.000 0.875 0.000
v -1.80270 0.28080 2.17908 0.000 0.843 0.000
v -1.78560 0.27018 2.25108 0.000 0.863 0.000
v -1.80900 0.36324 2.03994 0.000 0.875 0.000
v -1.81782 0.41742 2.08188 0.000 0.863 0.000
v -1.76760 0.43740 2.08980 0.000 0.863 0.000
v -1.81440 0.50562 2.12562 0.000 0.824 0.000
v -1.85346 0.49356 2.12076 0.000 0.843 0.000
v -1.75680 0.40536 2.27718 0.000 0.816 0.000
v -1.76400 0.42858 2.18340 0.000 0.843 0.000
v -1.80162 0.39456 2.26422 0.000 0.831 0.000
v -1.81782 0.41742 2.08188 0.000 0.863 0.000
v -1.76760 0.43740 2.08980 0.000 0.863 0.000
v -1.80162 0.39456 2.26422 0.000 0.831 0.000
v -1.80486 0.34668 2.20320 0.000 0.875 0.000
v -1.75680 0.40536 2.27718 0.000 0.816 0.000
v -1.70280 0.35550 2.21256 0.000 0.855 0.000
v -1.57500 -0.18486 2.18988 0.000 0.863 0.000
v -1.46196 0.00000 2.08062 0.000 0.816 0.000
v -1.47060 0.00000 2.33982 0.000 0.843 0.000
v -1.55340 -0.13374 2.28924 0.000 0.843 0.000
v -1.57500 -0.17298 2.23722 0.000 0.863 0.000
v -1.57500 0.18486 2.18988 0.000 0.863 0.000
v -1.55340 0.13374 2.28924 0.000 0.843 0.000
v -1.57500 0.17298 2.23722 0.000 0.863 0.000
v -1.72800 -0.30708 2.38662 0.000 0.863 0.000
v -1.79820 -0.39240 2.33568 0.000 0.831 0.000
v -1.67940 -0.28854 2.34072 0.000 0.863 0.000
v -1.70280 -0.35550 2.21256 0.000 0.855 0.000
v -1.66500 -0.30078 2.24928 0.000 0.855 0.000
v -1.62180 -0.23166 2.31606 0.000 0.843 0.000
v -1.61640 -0.23184 2.25738 0.000 0.863 0.000
v -1.57500 -0.17298 2.23722 0.000 0.863 0.000
v -1.55340 -0.13374 2.28924 0.000 0.843 0.000
v -1.69200 -0.19872 2.55492 0.000 0.831 0.000
v -1.65240 -0.17406 2.51298 0.000 0.855 0.000
v -1.63584 -0.16650 2.54592 0.000 0.855 0.000
v -1.60038 -0.14994 2.49930 0.000 0.855 0.000
v -1.63080 -0.18054 2.45790 0.000 0.855 0.000
v -1.58958 -0.16398 2.43216 0.000 0.855 0.000
v -1.61478 -0.20844 2.39094 0.000 0.855 0.000
v -1.66320 -0.22248 2.41506 0.000 0.855 0.000
v -1.66248 -0.25776 2.38158 0.000 0.863 0.000
v -1.71720 -0.27936 2.42334 0.000 0.816 0.000
v -1.72800 -0.30708 2.38662 0.000 0.863 0.000
v -1.69200 -0.19872 2.55492 0.000 0.831 0.000
v -1.63584 -0.16650 2.54592 0.000 0.855 0.000
v -1.61640 -0.11196 2.61738 0.000 0.843 0.000
v -1.57968 -0.10134 2.59344 0.000 0.855 0.000
v -1.53900 0.00000 2.64582 0.000 0.792 0.000
v -1.51038 0.00000 2.61972 0.000 0.816 0.000
v -1.57968 0.10134 2.59344 0.000 0.855 0.000
v -1.61640 0.11196 2.61738 0.000 0.843 0.000
v -1.63584 0.16650 2.54592 0.000 0.855 0.000
v -1.69200 0.19872 2.55492 0.000 0.831 0.000
v -1.71720 -0.17172 2.54952 0.000 0.855 0.000
v -1.67760 -0.14706 2.50758 0.000 0.855 0.000
v -1.69200 -0.19872 2.55492 0.000 0.831 0.000
v -1.65240 -0.17406 2.51298 0.000 0.855 0.000
v -1.65600 -0.15354 2.45250 0.000 0.855 0.000
v -1.63080 -0.18054 2.45790 0.000 0.855 0.000
v -1.68840 -0.19548 2.40966 0.000 0.855 0.000
v -1.66320 -0.22248 2.41506 0.000 0.855 0.000
v -1.71720 -0.27936 2.42334 0.000 0.816 0.000
v -1.74060 -0.25596 2.41236 0.000 0.843 0.000
v -1.75248 -0.27864 2.37852 0.000 0.863 0.000
v -1.72800 -0.30708 2.38662 0.000 0.863 0.000
v -1.71720 -0.17172 2.54952 0.000 0.855 0.000
v -1.69200 -0.19872 2.55492 0.000 0.831 0.000
v -1.64160 -0.08496 2.61198 0.000 0.855 0.000
v -1.61640 -0.11196 2.61738 0.000 0.843 0.000
v -1.53900 0.00000 2.64582 0.000 0.792 0.000
v -1.57680 0.00000 2.63502 0.000 0.816 0.000
v -1.64160 0.08496 2.61198 0.000 0.855 0.000
v -1.61640 0.11196 2.61738 0.000 0.843 0.000
v -1.69200 0.19872 2.55492 0.000 0.831 0.000
v -1.71720 0.17172 2.54952 0.000 0.855 0.000
v -1.82016 -0.36936 2.32650 0.000 0.843 0.000
v -1.80486 -0.34668 2.20320 0.000 0.875 0.000
v -1.79820 -0.39240 2.33568 0.000 0.831 0.000
v -1.70280 -0.35550 2.21256 0.000 0.855 0.000
v -1.72800 -0.30708 2.38662 0.000 0.863 0.000
v -1.75248 -0.27864 2.37852 0.000 0.863 0.000
v -1.79820 -0.39240 2.33568 0.000 0.831 0.000
v -1.82016 -0.36936 2.32650 0.000 0.843 0.000
v -1.65474 -0.08820 2.54322 0.000 0.863 0.000
v -1.67760 -0.14706 2.50758 0.000 0.855 0.000
v -1.71720 -0.17172 2.54952 0.000 0.855 0.000
v -1.64700 -0.10278 2.43396 0.000 0.831 0.000
v -1.65600 -0.15354 2.45250 0.000 0.855 0.000
v -1.68840 -0.19548 2.40966 0.000 0.855 0.000
v -1.74168 -0.19494 2.34234 0.000 0.843 0.000
v -1.74060 -0.25596 2.41236 0.000 0.843 0.000
v -1.75248 -0.27864 2.37852 0.000 0.863 0.000
v -1.64160 -0.08496 2.61198 0.000 0.855 0.000
v -1.65474 -0.08820 2.54322 0.000 0.863 0.000
v -1.71720 -0.17172 2.54952 0.000 0.855 0.000
v -1.57680 0.00000 2.63502 0.000 0.816 0.000
v -1.59354 0.00000 2.57382 0.000 0.843 0.000
v -1.65474 0.08820 2.54322 0.000 0.863 0.000
v -1.64160 0.08496 2.61198 0.000 0.855 0.000
v -1.71720 0.17172 2.54952 0.000 0.855 0.000
v -1.73070 -0.12366 2.32758 0.000 0.843 0.000
v -1.74762 0.00000 2.26962 0.000 0.843 0.000
v -1.75986 -0.14184 2.26458 0.000 0.843 0.000
v -1.74168 -0.19494 2.34234 0.000 0.843 0.000
v -1.78560 -0.27018 2.25108 0.000 0.863 0.000
v -1.72116 0.00000 2.31894 0.000 0.843 0.000
v -1.82016 -0.36936 2.32650 0.000 0.843 0.000
v -1.80486 -0.34668 2.20320 0.000 0.875 0.000
v -1.75248 -0.27864 2.37852 0.000 0.863 0.000
v -1.73070 0.12366 2.32758 0.000 0.843 0.000
v -1.75986 0.14184 2.26458 0.000 0.843 0.000
v -1.74168 0.19494 2.34234 0.000 0.843 0.000
v -1.78560 0.27018 2.25108 0.000 0.863 0.000
v -1.82016 0.36936 2.32650 0.000 0.843 0.000
v -1.80486 0.34668 2.20320 0.000 0.875 0.000
v -1.75248 0.27864 2.37852 0.000 0.863 0.000
v -1.67940 0.28854 2.34072 0.000 0.863 0.000
v -1.79820 0.39240 2.33568 0.000 0.831 0.000
v -1.72800 0.30708 2.38662 0.000 0.863 0.000
v -1.70280 0.35550 2.21256 0.000 0.855 0.000
v -1.66500 0.30078 2.24928 0.000 0.855 0.000
v -1.62180 0.23166 2.31606 0.000 0.843 0.000
v -1.61640 0.23184 2.25738 0.000 0.863 0.000
v -1.57500 0.17298 2.23722 0.000 0.863 0.000
v -1.55340 0.13374 2.28924 0.000 0.843 0.000
v -1.63584 0.16650 2.54592 0.000 0.855 0.000
v -1.65240 0.17406 2.51298 0.000 0.855 0.000
v -1.69200 0.19872 2.55492 0.000 0.831 0.000
v -1.60038 0.14994 2.49930 0.000 0.855 0.000
v -1.63080 0.18054 2.45790 0.000 0.855 0.000
v -1.58958 0.16398 2.43216 0.000 0.855 0.000
v -1.61478 0.20844 2.39094 0.000 0.855 0.000
v -1.66320 0.22248 2.41506 0.000 0.855 0.000
v -1.66248 0.25776 2.38158 0.000 0.863 0.000
v -1.71720 0.27936 2.42334 0.000 0.816 0.000
v -1.72800 0.30708 2.38662 0.000 0.863 0.000
v -1.69200 0.19872 2.55492 0.000 0.831 0.000
v -1.67760 0.14706 2.50758 0.000 0.855 0.000
v -1.71720 0.17172 2.54952 0.000 0.855 0.000
v -1.65240 0.17406 2.51298 0.000 0.855 0.000
v -1.65600 0.15354 2.45250 0.000 0.855 0.000
v -1.63080 0.18054 2.45790 0.000 0.855 0.000
v -1.68840 0.19548 2.40966 0.000 0.855 0.000
v -1.66320 0.22248 2.41506 0.000 0.855 0.000
v -1.71720 0.27936 2.42334 0.000 0.816 0.000
v -1.74060 0.25596 2.41236 0.000 0.843 0.000
v -1.75248 0.27864 2.37852 0.000 0.863 0.000
v -1.72800 0.30708 2.38662 0.000 0.863 0.000
v -1.79820 0.39240 2.33568 0.000 0.831 0.000
v -1.80486 0.34668 2.20320 0.000 0.875 0.000
v -1.82016 0.36936 2.32650 0.000 0.843 0.000
v -1.70280 0.35550 2.21256 0.000 0.855 0.000
v -1.79820 0.39240 2.33568 0.000 0.831 0.000
v -1.75248 0.27864 2.37852 0.000 0.863 0.000
v -1.72800 0.30708 2.38662 0.000 0.863 0.000
v -1.82016 0.36936 2.32650 0.000 0.843 0.000
v -1.71720 0.17172 2.54952 0.000 0.855 0.000
v -1.67760 0.14706 2.50758 0.000 0.855 0.000
v -1.65474 0.08820 2.54322 0.000 0.863 0.000
v -1.64700 0.10278 2.43396 0.000 0.831 0.000
v -1.65600 0.15354 2.45250 0.000 0.855 0.000
v -1.68840 0.19548 2.40966 0.000 0.855 0.000
v -1.74168 0.19494 2.34234 0.000 0.843 0.000
v -1.74060 0.25596 2.41236 0.000 0.843 0.000
v -1.75248 0.27864 2.37852 0.000 0.863 0.000
v -1.51200 -0.03474 2.48724 0.000 0.824 0.000
v -1.52460 -0.06570 2.44260 0.000 0.824 0.000
v -1.51020 -0.03834 2.44494 0.000 0.843 0.000
v -1.55340 -0.10926 2.42946 0.000 0.816 0.000
v -1.51200 -0.06876 2.31426 0.000 0.831 0.000
v -1.49400 -0.04770 2.28150 0.000 0.831 0.000
v -1.47060 0.00000 2.33982 0.000 0.824 0.000
v -1.49400 -0.03492 2.35926 0.000 0.831 0.000
v -1.54620 -0.12330 2.29392 0.000 0.831 0.000
v -1.53720 -0.11862 2.25450 0.000 0.843 0.000
v -1.57680 -0.16866 2.30004 0.000 0.831 0.000
v -1.59120 -0.19602 2.26638 0.000 0.831 0.000
v -1.61244 -0.21870 2.31102 0.000 0.824 0.000
v -1.58040 -0.17190 2.31822 0.000 0.831 0.000
v -1.62000 -0.22482 2.34432 0.000 0.824 0.000
v -1.60920 -0.20574 2.36862 0.000 0.824 0.000
v -1.57500 -0.15894 2.34162 0.000 0.824 0.000
v -1.58940 -0.17478 2.37042 0.000 0.831 0.000
v -1.49400 0.04770 2.28150 0.000 0.831 0.000
v -1.51200 0.06876 2.31426 0.000 0.831 0.000
v -1.49400 0.03492 2.35926 0.000 0.831 0.000
v -1.54620 0.12330 2.29392 0.000 0.831 0.000
v -1.53720 0.11862 2.25450 0.000 0.843 0.000
v -1.57680 0.16866 2.30004 0.000 0.831 0.000
v -1.59120 0.19602 2.26638 0.000 0.831 0.000
v -1.61244 0.21870 2.31102 0.000 0.824 0.000
v -1.58040 0.17190 2.31822 0.000 0.831 0.000
v -1.62000 0.22482 2.34432 0.000 0.824 0.000
v -1.60920 0.20574 2.36862 0.000 0.824 0.000
v -1.57500 0.15894 2.34162 0.000 0.824 0.000
v -1.58940 0.17478 2.37042 0.000 0.831 0.000
v -1.49400 -0.03492 2.35926 0.000 0.831 0.000
v -1.47060 0.00000 2.33982 0.000 0.824 0.000
v -1.49580 -0.02646 2.41128 0.000 0.843 0.000
v -1.49598 0.00000 2.52342 0.000 0.804 0.000
v -1.51020 -0.03834 2.44494 0.000 0.843 0.000
v -1.51200 -0.03474 2.48724 0.000 0.824 0.000
v -1.52100 -0.03744 2.52828 0.000 0.843 0.000
v -1.51740 -0.02430 2.56824 0.000 0.804 0.000
v -1.53900 -0.06030 2.55744 0.000 0.843 0.000
v -1.49580 0.02646 2.41128 0.000 0.843 0.000
v -1.49400 0.03492 2.35926 0.000 0.831 0.000
v -1.51020 0.03834 2.44494 0.000 0.843 0.000
v -1.51200 0.03474 2.48724 0.000 0.824 0.000
v -1.52100 0.03744 2.52828 0.000 0.843 0.000
v -1.51740 0.02430 2.56824 0.000 0.804 0.000
v -1.53900 0.06030 2.55744 0.000 0.843 0.000
v -1.54620 -0.06264 2.58462 0.000 0.816 0.000
v -1.53900 -0.06030 2.55744 0.000 0.843 0.000
v -1.51740 -0.02430 2.56824 0.000 0.804 0.000
v -1.56960 -0.09792 2.57310 0.000 0.824 0.000
v -1.56420 -0.09324 2.55222 0.000 0.843 0.000
v -1.58220 -0.11916 2.54916 0.000 0.855 0.000
v -1.56600 -0.10602 2.52450 0.000 0.831 0.000
v -1.57680 -0.12276 2.51388 0.000 0.843 0.000
v -1.56780 -0.11898 2.49444 0.000 0.843 0.000
v -1.55520 -0.10098 2.48940 0.000 0.831 0.000
v -1.54800 -0.08604 2.50362 0.000 0.816 0.000
v -1.55160 -0.08910 2.52126 0.000 0.816 0.000
v -1.51020 0.03834 2.44494 0.000 0.843 0.000
v -1.52460 0.06570 2.44260 0.000 0.824 0.000
v -1.51200 0.03474 2.48724 0.000 0.824 0.000
v -1.55340 0.10926 2.42946 0.000 0.816 0.000
v -1.51740 0.02430 2.56824 0.000 0.804 0.000
v -1.53900 0.06030 2.55744 0.000 0.843 0.000
v -1.54620 0.06264 2.58462 0.000 0.816 0.000
v -1.56960 0.09792 2.57310 0.000 0.824 0.000
v -1.56420 0.09324 2.55222 0.000 0.843 0.000
v -1.58220 0.11916 2.54916 0.000 0.855 0.000
v -1.56600 0.10602 2.52450 0.000 0.831 0.000
v -1.57680 0.12276 2.51388 0.000 0.843 0.000
v -1.56780 0.11898 2.49444 0.000 0.843 0.000
v -1.55520 0.10098 2.48940 0.000 0.831 0.000
v -1.54800 0.08604 2.50362 0.000 0.816 0.000
v -1.55160 0.08910 2.52126 0.000 0.816 0.000
v -1.50318 -0.02502 2.46186 0.000 0.000 0.000
v -1.47816 0.00000 2.46276 0.000 0.000 0.000
v -1.49706 -0.01188 2.48040 0.000 0.000 0.000
v -1.49076 -0.01098 2.44188 0.000 0.000 0.000
v -1.48194 0.00000 2.42208 0.000 0.000 0.000
v -1.49274 0.00000 2.50110 0.000 0.000 0.000
v -1.49076 0.01098 2.44188 0.000 0.000 0.000
v -1.50318 0.02502 2.46186 0.000 0.000 0.000
v -1.49706 0.01188 2.48040 0.000 0.000 0.000
v -1.49724 -0.03528 1.91106 0.000 0.000 0.000
v -1.47042 0.00000 1.90944 0.000 0.000 0.000
v -1.48482 -0.01404 1.93428 0.000 0.000 0.000
v -1.48932 -0.01296 1.88640 0.000 0.000 0.000
v -1.48788 0.00000 1.85472 0.000 0.000 0.000
v -1.47420 0.00000 1.96668 0.000 0.000 0.000
v -1.48932 0.01296 1.88640 0.000 0.000 0.000
v -1.49724 0.03528 1.91106 0.000 0.000 0.000
v -1.48482 0.01404 1.93428 0.000 0.000 0.000
v -1.80270 0.28080 2.17908 0.875 0.000 0.000
v -1.75428 0.00000 1.84644 0.929 0.000 0.000
v -1.80270 -0.28080 2.17908 0.875 0.000 0.000
v -1.78560 -0.27018 2.25108 0.875 0.000 0.000
v -1.78560 0.27018 2.25108 0.875 0.000 0.000
v -1.75986 -0.14184 2.26458 0.875 0.000 0.000
v -1.75986 0.14184 2.26458 0.875 0.000 0.000
v -1.74762 0.00000 2.26962 0.855 0.000 0.000
v -1.80900 -0.34632 2.14920 0.882 0.000 0.000
v -1.80900 -0.36324 2.03994 0.902 0.000 0.000
v -1.81620 -0.41310 2.00700 0.890 0.000 0.000
v -1.80720 -0.37620 1.90206 0.914 0.000 0.000
v -1.77372 -0.30168 1.84950 0.902 0.000 0.000
v -1.74762 -0.18306 1.62054 0.922 0.000 0.000
v -1.71720 0.00000 1.43568 0.902 0.000 0.000
v -1.74762 0.18306 1.62054 0.922 0.000 0.000
v -1.77372 0.30168 1.84950 0.902 0.000 0.000
v -1.80720 0.37620 1.90206 0.914 0.000 0.000
v -1.81620 0.41310 2.00700 0.890 0.000 0.000
v -1.80900 0.36324 2.03994 0.902 0.000 0.000
v -1.80900 0.34632 2.14920 0.882 0.000 0.000
vt 0.40156 0.18112
vt 0.72485 0.18112
vt 0.72485 0.13350
vt 0.72485 0.13350
vt 0.50640 0.18112
vt 0.40156 0.13350
vt 0.40156 0.13350
vt 0.50640 0.13350
vt 0.50640 0.13350
vt 0.72485 0.13350
vt 0.72485 0.18112
vt 0.72485 0.13350
vt 0.40156 0.18112
vt 0.40156 0.13350
vt 0.40156 0.13350
vt 0.88606 0.88282
vt 0.92608 0.88282
vt 0.92608 0.91145
vt 0.92608 0.91145
vt 0.88606 0.91145
vt 0.88606 0.91145
vt 0.99273 0.44775
vt 0.93388 0.44775
vt 0.93388 0.43426
vt 0.93388 0.43426
vt 0.86751 0.44775
vt 0.99273 0.43426
vt 0.99273 0.43426
vt 0.86751 0.43426
vt 0.86751 0.43426
vt 0.93388 0.43426
vt 0.93388 0.44775
vt 0.93388 0.43426
vt 0.99273 0.44775
vt 0.99273 0.43426
vt 0.99273 0.43426
vt 0.88606 0.88282
vt 0.92608 0.88282
vt 0.92608 0.91145
vt 0.92608 0.91145
vt 0.88606 0.91145
vt 0.88606 0.91145
vt 0.38749 0.41287
vt 0.38749 0.41287
vt 0.35158 0.47748
vt 0.31568 0.41287
vt 0.31568 0.41287
vt 0.38749 0.41287
vt 0.38749 0.41287
vt 0.38749 0.41287
vt 0.38749 0.41287
vt 0.35158 0.47748
vt 0.31568 0.41287
vt 0.31568 0.41287
vt 0.38749 0.41287
vt 0.38749 0.41287
vt 0.17933 0.17712
vt 0.08882 0.19700
vt 0.11789 0.00555
vt 0.00790 0.00555
vt 0.00790 0.19200
vt 0.23121 0.02868
vt 0.27257 0.15736
vt 0.31564 0.05181
vt 0.33042 0.13759
vt 0.41359 0.09807
vt 0.16886 0.00155
vt 0.00600 0.00566
vt 0.00600 0.19341
vt 0.15618 0.19700
vt 0.31363 0.03397
vt 0.26129 0.14769
vt 0.41840 0.09438
vt 0.29486 0.03455
vt 0.00600 0.01566
vt 0.00600 0.19541
vt 0.25418 0.18200
vt 0.41840 0.09638
vt 0.11789 0.00555
vt 0.08882 0.19700
vt 0.17933 0.17712
vt 0.00790 0.00555
vt 0.00790 0.19200
vt 0.23121 0.02868
vt 0.27257 0.15736
vt 0.31564 0.05181
vt 0.33042 0.13759
vt 0.41359 0.09807
vt 0.00600 0.19341
vt 0.00600 0.00566
vt 0.16886 0.00155
vt 0.15618 0.19700
vt 0.31363 0.03397
vt 0.26129 0.14769
vt 0.41840 0.09438
vt 0.00600 0.19541
vt 0.00600 0.01566
vt 0.29486 0.03455
vt 0.25418 0.18200
vt 0.41840 0.09638
vt 0.58600 0.82213
vt 0.71080 0.91400
vt 0.71080 0.72700
vt 0.64525 0.91400
vt 0.63803 0.72700
vt 0.58600 0.77844
vt 0.58600 0.72700
vt 0.58600 0.86740
vt 0.54307 0.91400
vt 0.53060 0.86740
vt 0.47697 0.91400
vt 0.47697 0.86740
vt 0.58600 0.82213
vt 0.64525 0.91400
vt 0.63803 0.72700
vt 0.58600 0.77844
vt 0.58600 0.72700
vt 0.58600 0.86740
vt 0.54307 0.91400
vt 0.53060 0.86740
vt 0.47697 0.91400
vt 0.47697 0.86740
vt 0.67990 0.72700
vt 0.67990 0.91400
vt 0.58650 0.83030
vt 0.58650 0.72700
vt 0.63330 0.91400
vt 0.58650 0.91400
vt 0.58650 0.83030
vt 0.58650 0.72700
vt 0.63330 0.91400
vt 0.58650 0.91400
vt 0.79764 0.41400
vt 0.85200 0.46000
vt 0.85200 0.41400
vt 0.74200 0.41400
vt 0.74200 0.48981
vt 0.74200 0.56443
vt 0.99256 0.46000
vt 0.74200 0.61959
vt 0.78100 0.64089
vt 0.80500 0.67473
vt 0.84277 0.71100
vt 0.89253 0.71100
vt 0.99256 0.68018
vt 0.91400 0.76294
vt 0.91400 0.83450
vt 0.94785 0.88064
vt 0.99256 0.91781
vt 0.80500 0.71100
vt 0.89253 0.71100
vt 0.94785 0.88064
vt 0.91400 0.76294
vt 0.84277 0.71100
vt 0.80500 0.67473
vt 0.91400 0.83450
vt 0.80500 0.71100
vt 0.78100 0.64089
vt 0.74200 0.61959
vt 0.74200 0.56443
vt 0.85200 0.46000
vt 0.74200 0.48981
vt 0.74200 0.41400
vt 0.79764 0.41400
vt 0.85200 0.41400
vt 0.75709 0.24397
vt 0.65212 0.13300
vt 0.74683 0.13300
vt 0.85903 0.24397
vt 0.85546 0.13300
vt 0.94010 0.24397
vt 0.60343 0.24397
vt 0.50983 0.13300
vt 0.47017 0.24397
vt 0.93945 0.13300
vt 0.99121 0.13300
vt 0.99121 0.24397
vt 0.40302 0.13300
vt 0.32042 0.18747
vt 0.92755 0.00800
vt 0.92306 0.11897
vt 0.99402 0.00800
vt 0.99402 0.11897
vt 0.85954 0.11897
vt 0.78004 0.11897
vt 0.81444 0.00800
vt 0.73921 0.00800
vt 0.69421 0.11897
vt 0.62813 0.00800
vt 0.49271 0.02800
vt 0.51305 0.09897
vt 0.41324 0.06200
vt 0.74683 0.13300
vt 0.65212 0.13300
vt 0.75709 0.24397
vt 0.85903 0.24397
vt 0.85546 0.13300
vt 0.94010 0.24397
vt 0.60343 0.24397
vt 0.50983 0.13300
vt 0.47017 0.24397
vt 0.93945 0.13300
vt 0.99121 0.13300
vt 0.99121 0.24397
vt 0.40302 0.13300
vt 0.32042 0.18747
vt 0.99402 0.00800
vt 0.92306 0.11897
vt 0.92755 0.00800
vt 0.99402 0.11897
vt 0.85954 0.11897
vt 0.78004 0.11897
vt 0.81444 0.00800
vt 0.73921 0.00800
vt 0.69421 0.11897
vt 0.62813 0.00800
vt 0.49271 0.02800
vt 0.51305 0.09897
vt 0.41324 0.06200
vt 0.22411 0.82039
vt 0.29932 0.91437
vt 0.22259 0.91437
vt 0.12910 0.91437
vt 0.32012 0.82039
vt 0.36784 0.91437
vt 0.43532 0.82039
vt 0.09869 0.82039
vt 0.00711 0.91437
vt 0.04732 0.82039
vt 0.00711 0.82039
vt 0.04338 0.82039
vt 0.08867 0.82039
vt 0.13256 0.91437
vt 0.15664 0.82039
vt 0.18105 0.91437
vt 0.23637 0.91437
vt 0.27307 0.82039
vt 0.29073 0.91437
vt 0.35750 0.82039
vt 0.38750 0.91437
vt 0.43552 0.91437
vt 0.08867 0.82039
vt 0.04338 0.82039
vt 0.00711 0.82039
vt 0.15664 0.82039
vt 0.18105 0.91437
vt 0.23637 0.91437
vt 0.27307 0.82039
vt 0.29073 0.91437
vt 0.35750 0.82039
vt 0.38750 0.91437
vt 0.43552 0.91437
vt 0.04732 0.82039
vt 0.09869 0.82039
vt 0.22411 0.82039
vt 0.22259 0.91437
vt 0.29932 0.91437
vt 0.32012 0.82039
vt 0.36784 0.91437
vt 0.43532 0.82039
vt 0.18273 0.80400
vt 0.43510 0.80400
vt 0.33232 0.72700
vt 0.25905 0.72700
vt 0.20771 0.66400
vt 0.13454 0.66400
vt 0.39539 0.72700
vt 0.07425 0.66400
vt 0.06826 0.69973
vt 0.00774 0.80400
vt 0.00774 0.66166
vt 0.33232 0.72700
vt 0.18273 0.80400
vt 0.25905 0.72700
vt 0.20771 0.66400
vt 0.13454 0.66400
vt 0.07425 0.66400
vt 0.06826 0.69973
vt 0.00774 0.80400
vt 0.00774 0.66166
vt 0.60214 0.45875
vt 0.54251 0.41460
vt 0.44550 0.52794
vt 0.63250 0.57269
vt 0.44550 0.60944
vt 0.63250 0.71060
vt 0.39854 0.50265
vt 0.37938 0.44361
vt 0.56950 0.68138
vt 0.44550 0.71710
vt 0.56950 0.76011
vt 0.56950 0.85510
vt 0.49711 0.79518
vt 0.44550 0.83055
vt 0.67950 0.45992
vt 0.67950 0.57181
vt 0.72650 0.46660
vt 0.72650 0.41423
vt 0.67950 0.71060
vt 0.72650 0.62542
vt 0.72650 0.71060
vt 0.78600 0.70829
vt 0.67919 0.41460
vt 0.54050 0.41460
vt 0.32000 0.99200
vt 0.16400 0.99200
vt 0.32000 0.93000
vt 0.16400 0.93000
vt 0.00800 0.99200
vt 0.00800 0.93000
vt 0.16400 0.93000
vt 0.16400 0.99200
vt 0.32000 0.93000
vt 0.32000 0.99200
vt 0.16400 0.93000
vt 0.32000 0.93000
vt 0.32000 0.99200
vt 0.16400 0.99200
vt 0.00800 0.99200
vt 0.00800 0.93000
vt 0.16400 0.93000
vt 0.16400 0.99200
vt 0.32000 0.99200
vt 0.32000 0.93000
vt 0.44532 0.93000
vt 0.58500 0.99200
vt 0.44532 0.99200
vt 0.40825 0.99200
vt 0.33500 0.93000
vt 0.33500 0.99200
vt 0.58500 0.93000
vt 0.92800 0.99200
vt 0.68104 0.99200
vt 0.68104 0.93000
vt 0.92800 0.93000
vt 0.00800 0.93000
vt 0.09251 0.99200
vt 0.00800 0.99200
vt 0.18087 0.93000
vt 0.18087 0.99200
vt 0.92800 0.99200
vt 0.76600 0.93000
vt 0.92800 0.93000
vt 0.76600 0.99200
vt 0.44550 0.52794
vt 0.54251 0.41460
vt 0.60214 0.45875
vt 0.63250 0.57269
vt 0.44550 0.60944
vt 0.63250 0.71060
vt 0.39854 0.50265
vt 0.37938 0.44361
vt 0.56950 0.68138
vt 0.44550 0.71710
vt 0.56950 0.76011
vt 0.56950 0.85510
vt 0.49711 0.79518
vt 0.44550 0.83055
vt 0.67950 0.45992
vt 0.67950 0.57181
vt 0.72650 0.46660
vt 0.72650 0.41423
vt 0.67950 0.71060
vt 0.72650 0.62542
vt 0.72650 0.71060
vt 0.78600 0.70829
vt 0.67919 0.41460
vt 0.54050 0.41460
vt 0.44532 0.99200
vt 0.58500 0.99200
vt 0.44532 0.93000
vt 0.40825 0.99200
vt 0.33500 0.93000
vt 0.33500 0.99200
vt 0.58500 0.93000
vt 0.68104 0.93000
vt 0.68104 0.99200
vt 0.92800 0.99200
vt 0.92800 0.93000
vt 0.00800 0.99200
vt 0.09251 0.99200
vt 0.00800 0.93000
vt 0.18087 0.93000
vt 0.18087 0.99200
vt 0.92800 0.93000
vt 0.76600 0.93000
vt 0.92800 0.99200
vt 0.76600 0.99200
vt 0.32030 0.21130
vt 0.00777 0.21130
vt 0.01777 0.55362
vt 0.28454 0.39790
vt 0.32030 0.30490
vt 0.32030 0.21130
vt 0.28454 0.39790
vt 0.32030 0.30490
vt 0.31911 0.71488
vt 0.42672 0.59702
vt 0.25773 0.65359
vt 0.28535 0.42683
vt 0.22488 0.50850
vt 0.15651 0.64790
vt 0.13200 0.55490
vt 0.03890 0.55490
vt 0.00314 0.64790
vt 0.86600 0.82041
vt 0.86600 0.86386
vt 0.80400 0.82041
vt 0.80400 0.86386
vt 0.86600 0.91400
vt 0.80400 0.91400
vt 0.80400 0.84516
vt 0.86600 0.81924
vt 0.80400 0.78240
vt 0.86600 0.72600
vt 0.80400 0.72600
vt 0.78900 0.72652
vt 0.72700 0.72652
vt 0.78900 0.81413
vt 0.72700 0.81688
vt 0.78900 0.91400
vt 0.72700 0.91400
vt 0.72700 0.81688
vt 0.78900 0.81413
vt 0.72700 0.72652
vt 0.78900 0.72652
vt 0.60200 0.93000
vt 0.67216 0.93000
vt 0.60200 0.99200
vt 0.67255 0.99200
vt 0.75800 0.93000
vt 0.75800 0.99200
vt 0.84565 0.93000
vt 0.84648 0.99200
vt 0.93600 0.99200
vt 0.93600 0.93000
vt 0.99200 0.93000
vt 0.99200 0.99200
vt 0.00700 0.99200
vt 0.00700 0.93000
vt 0.09900 0.99200
vt 0.09900 0.93000
vt 0.00800 0.93000
vt 0.00800 0.99200
vt 0.09900 0.99200
vt 0.09900 0.93000
vt 0.00700 0.93000
vt 0.00700 0.99200
vt 0.93191 0.99200
vt 0.76867 0.99200
vt 0.92765 0.93000
vt 0.76981 0.93000
vt 0.70800 0.99200
vt 0.70800 0.93000
vt 0.92500 0.99200
vt 0.92500 0.93000
vt 0.58500 0.99200
vt 0.51700 0.93000
vt 0.58500 0.92984
vt 0.50000 0.99200
vt 0.47100 0.93000
vt 0.42209 0.93000
vt 0.39917 0.99200
vt 0.33500 0.93000
vt 0.33500 0.99200
vt 0.84216 0.99200
vt 0.93000 0.93000
vt 0.93000 0.99200
vt 0.66636 0.99200
vt 0.75686 0.93000
vt 0.93000 0.93000
vt 0.84216 0.99200
vt 0.93000 0.99200
vt 0.18390 0.64800
vt 0.09403 0.55500
vt 0.15463 0.55500
vt 0.25642 0.65261
vt 0.22879 0.50421
vt 0.11103 0.64800
vt 0.42814 0.59527
vt 0.28478 0.42888
vt 0.32154 0.71239
vt 0.18390 0.64800
vt 0.15463 0.55500
vt 0.25642 0.65261
vt 0.22879 0.50421
vt 0.42814 0.59527
vt 0.28478 0.42888
vt 0.32154 0.71239
vt 0.25773 0.65359
vt 0.42672 0.59702
vt 0.31911 0.71488
vt 0.28535 0.42683
vt 0.22488 0.50850
vt 0.15651 0.64790
vt 0.13200 0.55490
vt 0.03890 0.55490
vt 0.00314 0.64790
vt 0.80400 0.82041
vt 0.86600 0.86386
vt 0.86600 0.82041
vt 0.80400 0.86386
vt 0.86600 0.91400
vt 0.80400 0.91400
vt 0.80400 0.84516
vt 0.86600 0.81924
vt 0.80400 0.78240
vt 0.86600 0.72600
vt 0.80400 0.72600
vt 0.60200 0.99200
vt 0.67216 0.93000
vt 0.60200 0.93000
vt 0.67255 0.99200
vt 0.75800 0.93000
vt 0.75800 0.99200
vt 0.84565 0.93000
vt 0.84648 0.99200
vt 0.93600 0.99200
vt 0.93600 0.93000
vt 0.99200 0.93000
vt 0.99200 0.99200
vt 0.92765 0.93000
vt 0.76867 0.99200
vt 0.93191 0.99200
vt 0.76981 0.93000
vt 0.92500 0.99200
vt 0.70800 0.93000
vt 0.70800 0.99200
vt 0.92500 0.93000
vt 0.58500 0.92984
vt 0.51700 0.93000
vt 0.58500 0.99200
vt 0.50000 0.99200
vt 0.47100 0.93000
vt 0.42209 0.93000
vt 0.39917 0.99200
vt 0.33500 0.93000
vt 0.33500 0.99200
vt 0.52250 0.40350
vt 0.45640 0.36286
vt 0.52250 0.33826
vt 0.34586 0.40350
vt 0.78288 0.32170
vt 0.74962 0.25850
vt 0.64850 0.25850
vt 0.71150 0.32170
vt 0.86288 0.32170
vt 0.85560 0.25850
vt 0.92950 0.32170
vt 0.99250 0.25850
vt 0.99250 0.33060
vt 0.92950 0.34116
vt 0.99250 0.37862
vt 0.96077 0.41367
vt 0.90009 0.37483
vt 0.91486 0.41629
vt 0.74962 0.25850
vt 0.78288 0.32170
vt 0.71150 0.32170
vt 0.86288 0.32170
vt 0.85560 0.25850
vt 0.92950 0.32170
vt 0.99250 0.25850
vt 0.99250 0.33060
vt 0.92950 0.34116
vt 0.99250 0.37862
vt 0.96077 0.41367
vt 0.90009 0.37483
vt 0.91486 0.41629
vt 0.84630 0.39900
vt 0.90950 0.33600
vt 0.80775 0.39900
vt 0.63510 0.33600
vt 0.75524 0.39900
vt 0.69000 0.39900
vt 0.64696 0.39900
vt 0.54000 0.33600
vt 0.60200 0.39859
vt 0.80775 0.39900
vt 0.84630 0.39900
vt 0.75524 0.39900
vt 0.69000 0.39900
vt 0.64696 0.39900
vt 0.54000 0.33600
vt 0.60200 0.39859
vt 0.54208 0.25800
vt 0.56981 0.32050
vt 0.63240 0.25800
vt 0.47235 0.25800
vt 0.48988 0.32050
vt 0.41008 0.25800
vt 0.41380 0.32050
vt 0.33580 0.25800
vt 0.33580 0.29978
vt 0.33580 0.34116
vt 0.37558 0.37441
vt 0.41380 0.36384
vt 0.52250 0.33826
vt 0.45640 0.36286
vt 0.52250 0.40350
vt 0.34586 0.40350
vt 0.63240 0.25800
vt 0.56981 0.32050
vt 0.54208 0.25800
vt 0.47235 0.25800
vt 0.48988 0.32050
vt 0.41008 0.25800
vt 0.41380 0.32050
vt 0.33580 0.25800
vt 0.33580 0.29978
vt 0.33580 0.34116
vt 0.37558 0.37441
vt 0.41380 0.36384
vt 0.35376 0.71100
vt 0.43076 0.62912
vt 0.43040 0.71100
vt 0.43040 0.71100
vt 0.35376 0.71100
vt 0.35376 0.71100
vt 0.43040 0.71100
vt 0.35376 0.71100
vt 0.43040 0.71100
vt 0.35376 0.71100
vt 0.43076 0.62912
vt 0.43040 0.71100
vt 0.43040 0.71100
vt 0.35376 0.71100
vt 0.35376 0.71100
vt 0.43040 0.71100
vt 0.35376 0.71100
vt 0.43040 0.71100
vt 0.31847 0.00700
vt 0.55529 0.00700
vt 0.31847 0.00700
vt 0.31847 0.00700
vt 0.31847 0.00700
vt 0.31847 0.00700
vt 0.31847 0.00700
vt 0.31847 0.00700
vt 0.31847 0.00700
vt 0.31847 0.00700
vt 0.31847 0.00700
vt 0.31847 0.00700
vt 0.31847 0.00700
vt 0.31847 0.00700
vt 0.31847 0.00700
vt 0.31847 0.00700
vt 0.31847 0.00700
vt 0.31847 0.00700
vt 0.31847 0.00700
vt 0.31847 0.00700
vt 0.31847 0.00700
usemtl m0
f 1/1 2/2 3/3
f 2/2 1/1 4/4
f 2/2 5/5 3/3
f 5/5 2/2 4/4
f 1/1 3/3 6/6
f 4/4 1/1 7/7
f 3/3 5/5 8/8
f 5/5 4/4 9/9
f 10/10 5/5 9/9
f 11/11 5/5 10/10
f 5/5 11/11 12/12
f 5/5 12/12 8/8
f 13/13 11/11 10/10
f 11/11 13/13 12/12
f 13/13 10/10 14/14
f 12/12 13/13 15/15
f 16/16 17/17 18/18
f 17/17 16/16 19/19
f 16/16 18/18 20/20
f 19/19 16/16 21/21
f 22/22 23/23 24/24
f 23/23 22/22 25/25
f 23/23 26/26 24/24
f 26/26 23/23 25/25
f 22/22 24/24 27/27
f 25/25 22/22 28/28
f 24/24 26/26 29/29
f 26/26 25/25 30/30
f 31/31 26/26 30/30
f 32/32 26/26 31/31
f 26/26 32/32 33/33
f 26/26 33/33 29/29
f 34/34 32/32 31/31
f 32/32 34/34 33/33
f 34/34 31/31 35/35
f 33/33 34/34 36/36
f 37/37 38/38 39/39
f 38/38 37/37 40/40
f 37/37 39/39 41/41
f 40/40 37/37 42/42
f 43/43 44/44 45/45
f 45/45 44/44 46/46
f 43/43 45/45 47/47
f 48/48 47/47 45/45
f 48/48 45/45 49/49
f 49/49 45/45 46/46
f 50/50 51/51 52/52
f 52/52 51/51 53/53
f 50/50 52/52 54/54
f 55/55 54/54 52/52
f 55/55 52/52 56/56
f 56/56 52/52 53/53
f 57/57 58/58 59/59
f 59/59 58/58 60/60
f 58/58 61/61 60/60
f 62/62 57/57 59/59
f 63/63 57/57 62/62
f 63/63 62/62 64/64
f 65/65 63/63 64/64
f 65/65 64/64 66/66
f 67/67 68/68 69/69
f 70/70 67/67 69/69
f 71/71 67/67 70/70
f 71/71 70/70 72/72
f 73/73 71/71 72/72
f 74/74 75/75 76/76
f 77/77 74/74 76/76
f 78/78 74/74 77/77
f 79/79 80/80 81/81
f 82/82 80/80 79/79
f 82/82 83/83 80/80
f 79/79 81/81 84/84
f 84/84 81/81 85/85
f 86/86 84/84 85/85
f 86/86 85/85 87/87
f 88/88 86/86 87/87
f 89/89 90/90 91/91
f 89/89 91/91 92/92
f 92/92 91/91 93/93
f 94/94 92/92 93/93
f 94/94 93/93 95/95
f 96/96 97/97 98/98
f 96/96 98/98 99/99
f 99/99 98/98 100/100
f 101/101 102/102 103/103
f 104/104 102/102 101/101
f 105/105 101/101 103/103
f 106/106 101/101 105/105
f 107/107 106/106 105/105
f 104/104 101/101 108/108
f 104/104 108/108 109/109
f 110/110 109/109 108/108
f 111/111 109/109 110/110
f 112/112 111/111 110/110
f 103/103 102/102 113/113
f 113/113 102/102 114/114
f 103/103 113/113 115/115
f 115/115 113/113 116/116
f 115/115 116/116 117/117
f 118/118 113/113 114/114
f 119/119 118/118 114/114
f 118/118 119/119 120/120
f 120/120 119/119 121/121
f 120/120 121/121 122/122
f 123/123 124/124 125/125
f 123/123 125/125 126/126
f 127/127 125/125 124/124
f 128/128 125/125 127/127
f 129/129 124/124 123/123
f 130/130 129/129 123/123
f 124/124 129/129 131/131
f 131/131 129/129 132/132
f 133/133 134/134 135/135
f 136/136 134/134 133/133
f 136/136 137/137 134/134
f 137/137 138/138 134/134
f 134/134 138/138 139/139
f 138/138 140/140 139/139
f 140/140 141/141 139/139
f 141/141 142/142 139/139
f 142/142 143/143 139/139
f 143/143 144/144 139/139
f 139/139 144/144 145/145
f 144/144 146/146 145/145
f 146/146 147/147 145/145
f 147/147 148/148 145/145
f 148/148 149/149 145/145
f 142/142 150/150 143/143
f 145/145 151/151 139/139
f 145/145 149/149 152/152
f 145/145 153/153 151/151
f 139/139 151/151 154/154
f 139/139 154/154 155/155
f 145/145 156/156 153/153
f 145/145 152/152 156/156
f 154/154 157/157 155/155
f 139/139 155/155 158/158
f 139/139 158/158 159/159
f 139/139 159/159 160/160
f 139/139 160/160 161/161
f 161/161 160/160 162/162
f 161/161 162/162 163/163
f 164/164 161/161 163/163
f 165/165 161/161 164/164
f 166/166 167/167 168/168
f 169/169 166/166 168/168
f 169/169 168/168 170/170
f 171/171 169/169 170/170
f 172/172 167/167 166/166
f 172/172 173/173 167/167
f 174/174 173/173 172/172
f 175/175 171/171 170/170
f 176/176 171/171 175/175
f 176/176 177/177 171/171
f 178/178 173/173 174/174
f 179/179 178/178 174/174
f 180/180 181/181 182/182
f 181/181 183/183 182/182
f 184/184 181/181 180/180
f 185/185 184/184 180/180
f 185/185 180/180 186/186
f 187/187 185/185 186/186
f 187/187 188/188 185/185
f 189/189 188/188 187/187
f 189/189 190/190 188/188
f 190/190 191/191 188/188
f 190/190 192/192 191/191
f 193/193 194/194 195/195
f 193/193 195/195 196/196
f 197/197 193/193 196/196
f 197/197 196/196 198/198
f 195/195 194/194 199/199
f 194/194 200/200 199/199
f 199/199 200/200 201/201
f 197/197 198/198 202/202
f 202/202 198/198 203/203
f 198/198 204/204 203/203
f 201/201 200/200 205/205
f 201/201 205/205 206/206
f 207/207 208/208 209/209
f 207/207 210/210 208/208
f 209/209 208/208 211/211
f 209/209 211/211 212/212
f 213/213 209/209 212/212
f 213/213 212/212 214/214
f 212/212 215/215 214/214
f 214/214 215/215 216/216
f 215/215 217/217 216/216
f 215/215 218/218 217/217
f 218/218 219/219 217/217
f 220/220 221/221 222/222
f 222/222 223/223 220/220
f 224/224 221/221 220/220
f 221/221 224/224 225/225
f 225/225 224/224 226/226
f 220/220 223/223 227/227
f 223/223 228/228 227/227
f 227/227 228/228 229/229
f 228/228 230/230 229/229
f 231/231 230/230 228/228
f 232/232 231/231 228/228
f 233/233 232/232 228/228
f 234/234 232/232 233/233
f 235/235 234/234 233/233
f 235/235 236/236 234/234
f 236/236 237/237 234/234
f 236/236 238/238 237/237
f 237/237 238/238 239/239
f 239/239 238/238 240/240
f 239/239 240/240 241/241
f 228/228 242/242 233/233
f 228/228 243/243 242/242
f 228/228 244/244 243/243
f 233/233 242/242 245/245
f 233/233 245/245 246/246
f 245/245 247/247 246/246
f 245/245 248/248 247/247
f 248/248 249/249 247/247
f 250/250 249/249 248/248
f 251/251 249/249 250/250
f 252/252 251/251 250/250
f 253/253 244/244 228/228
f 253/253 228/228 254/254
f 254/254 228/228 223/223
f 254/254 223/223 255/255
f 255/255 223/223 256/256
f 256/256 257/257 255/255
f 255/255 257/257 258/258
f 259/259 258/258 257/257
f 260/260 258/258 259/259
f 261/261 262/262 263/263
f 261/261 263/263 264/264
f 261/261 264/264 265/265
f 266/266 261/261 265/265
f 263/263 262/262 267/267
f 268/268 261/261 266/266
f 269/269 261/261 268/268
f 270/270 261/261 269/269
f 270/270 269/269 271/271
f 267/267 262/262 272/272
f 272/272 262/262 273/273
f 274/274 272/272 273/273
f 275/275 274/274 273/273
f 275/275 273/273 276/276
f 276/276 273/273 277/277
f 277/277 273/273 278/278
f 278/278 273/273 279/279
f 280/280 278/278 279/279
f 281/281 282/282 283/283
f 284/284 281/281 283/283
f 284/284 283/283 285/285
f 286/286 284/284 285/285
f 283/283 282/282 287/287
f 287/287 282/282 288/288
f 286/286 285/285 289/289
f 289/289 285/285 290/290
f 291/291 289/289 290/290
f 291/291 290/290 292/292
f 292/292 290/290 293/293
f 293/293 290/290 294/294
f 284/284 295/295 281/281
f 296/296 295/295 284/284
f 295/295 296/296 297/297
f 295/295 297/297 298/298
f 296/296 284/284 299/299
f 299/299 284/284 286/286
f 300/300 296/296 299/299
f 297/297 296/296 300/300
f 301/301 300/300 299/299
f 302/302 300/300 301/301
f 295/295 298/298 303/303
f 295/295 303/303 281/281
f 281/281 303/303 304/304
f 305/305 306/306 307/307
f 306/306 308/308 307/307
f 306/306 309/309 308/308
f 309/309 310/310 308/308
f 311/311 310/310 309/309
f 311/311 309/309 312/312
f 313/313 311/311 312/312
f 313/313 312/312 314/314
f 315/315 316/316 317/317
f 315/315 317/317 318/318
f 319/319 315/315 318/318
f 319/319 320/320 315/315
f 321/321 320/320 319/319
f 322/322 321/321 319/319
f 322/322 323/323 321/321
f 323/323 324/324 321/321
f 325/325 326/326 327/327
f 328/328 325/325 327/327
f 329/329 325/325 328/328
f 330/330 329/329 328/328
f 325/325 331/331 326/326
f 332/332 333/333 334/334
f 332/332 334/334 335/335
f 336/336 337/337 338/338
f 336/336 339/339 337/337
f 339/339 340/340 337/337
f 341/341 342/342 343/343
f 344/344 342/342 341/341
f 345/345 346/346 347/347
f 345/345 347/347 348/348
f 349/349 345/345 348/348
f 349/349 348/348 350/350
f 351/351 346/346 345/345
f 352/352 346/346 351/351
f 353/353 349/349 350/350
f 354/354 349/349 353/353
f 354/354 353/353 355/355
f 356/356 354/354 355/355
f 357/357 354/354 356/356
f 358/358 354/354 357/357
f 347/347 359/359 348/348
f 348/348 359/359 360/360
f 361/361 360/360 359/359
f 362/362 361/361 359/359
f 363/363 348/348 360/360
f 350/350 348/348 363/363
f 363/363 360/360 364/364
f 364/364 360/360 361/361
f 363/363 364/364 365/365
f 365/365 364/364 366/366
f 367/367 362/362 359/359
f 347/347 367/367 359/359
f 368/368 367/367 347/347
f 369/369 370/370 371/371
f 369/369 371/371 372/372
f 372/372 371/371 373/373
f 372/372 373/373 374/374
f 370/370 375/375 371/371
f 376/376 377/377 378/378
f 379/379 376/376 378/378
f 380/380 381/381 382/382
f 381/381 383/383 382/382
f 381/381 384/384 383/383
f 385/385 386/386 387/387
f 387/387 386/386 388/388
f 389/389 390/390 391/391
f 389/389 391/391 392/392
f 389/389 392/392 393/393
f 391/391 390/390 394/394
f 395/395 391/391 394/394
f 396/396 395/395 394/394
f 397/397 398/398 399/399
f 399/399 398/398 400/400
f 399/399 400/400 401/401
f 399/399 401/401 402/402
f 402/402 401/401 403/403
f 403/403 404/404 402/402
f 405/405 402/402 404/404
f 406/406 407/407 408/408
f 407/407 409/409 408/408
f 407/407 410/410 409/409
f 410/410 411/411 409/409
f 410/410 412/412 411/411
f 413/413 412/412 410/410
f 413/413 414/414 412/412
f 415/415 414/414 413/413
f 416/416 414/414 415/415
f 417/417 418/418 419/419
f 419/419 418/418 420/420
f 419/419 420/420 421/421
f 421/421 420/420 422/422
f 422/422 423/423 421/421
f 421/421 423/423 424/424
f 423/423 425/425 424/424
f 424/424 425/425 426/426
f 427/427 428/428 429/429
f 428/428 430/430 429/429
f 428/428 431/431 430/430
f 431/431 432/432 430/430
f 431/431 433/433 432/432
f 433/433 434/434 432/432
f 434/434 433/433 435/435
f 435/435 433/433 436/436
f 436/436 437/437 435/435
f 437/437 438/438 435/435
f 439/439 440/440 441/441
f 441/441 440/440 442/442
f 441/441 442/442 443/443
f 441/441 443/443 444/444
f 444/444 443/443 445/445
f 443/443 446/446 445/445
f 446/446 447/447 445/445
f 445/445 447/447 448/448
f 449/449 450/450 451/451
f 450/450 452/452 451/451
f 453/453 454/454 455/455
f 455/455 454/454 456/456
f 457/457 458/458 459/459
f 457/457 460/460 458/458
f 458/458 460/460 461/461
f 461/461 460/460 462/462
f 462/462 460/460 463/463
f 462/462 463/463 464/464
f 464/464 463/463 465/465
f 466/466 467/467 468/468
f 469/469 467/467 466/466
f 470/470 467/467 469/469
f 469/469 471/471 470/470
f 472/472 471/471 469/469
f 473/473 471/471 472/472
f 474/474 475/475 476/476
f 474/474 476/476 477/477
f 476/476 478/478 477/477
f 475/475 474/474 479/479
f 477/477 478/478 480/480
f 481/481 480/480 478/478
f 477/477 480/480 482/482
f 479/479 483/483 475/475
f 484/484 475/475 483/483
f 485/485 484/484 483/483
f 485/485 486/486 484/484
f 487/487 486/486 485/485
f 486/486 487/487 488/488
f 489/489 487/487 485/485
f 490/490 491/491 492/492
f 493/493 491/491 490/490
f 494/494 493/493 490/490
f 495/495 494/494 490/490
f 496/496 494/494 495/495
f 495/495 497/497 496/496
f 497/497 495/495 498/498
f 499/499 500/500 501/501
f 499/499 502/502 500/500
f 502/502 503/503 500/500
f 502/502 504/504 503/503
f 504/504 505/505 503/503
f 503/503 505/505 506/506
f 505/505 507/507 506/506
f 506/506 507/507 508/508
f 508/508 507/507 509/509
f 510/510 511/511 512/512
f 510/510 513/513 511/511
f 513/513 514/514 511/511
f 513/513 515/515 514/514
f 515/515 516/516 514/514
f 515/515 517/517 516/516
f 518/518 516/516 517/517
f 519/519 516/516 518/518
f 518/518 520/520 519/519
f 518/518 521/521 520/520
f 522/522 523/523 524/524
f 522/522 525/525 523/523
f 526/526 527/527 528/528
f 529/529 527/527 526/526
f 530/530 531/531 532/532
f 531/531 533/533 532/532
f 534/534 533/533 531/531
f 535/535 533/533 534/534
f 536/536 533/533 535/535
f 537/537 536/536 535/535
f 538/538 536/536 537/537
f 539/539 540/540 541/541
f 539/539 542/542 540/540
f 543/543 544/544 545/545
f 546/546 543/543 545/545
f 547/547 544/544 543/543
f 547/547 548/548 544/544
f 549/549 548/548 547/547
f 550/550 548/548 549/549
f 551/551 550/550 549/549
f 551/551 549/549 552/552
f 553/553 551/551 552/552
f 553/553 552/552 554/554
f 554/554 552/552 555/555
f 554/554 555/555 556/556
f 545/545 557/557 558/558
f 545/545 558/558 559/559
f 558/558 557/557 560/560
f 557/557 561/561 560/560
f 560/560 561/561 562/562
f 562/562 561/561 563/563
f 562/562 563/563 564/564
f 565/565 562/562 564/564
f 565/565 564/564 566/566
f 567/567 565/565 566/566
f 568/568 565/565 567/567
f 569/569 568/568 567/567
f 570/570 571/571 572/572
f 572/572 571/571 573/573
f 574/574 572/572 573/573
f 575/575 574/574 573/573
f 576/576 575/575 573/573
f 576/576 573/573 577/577
f 578/578 576/576 577/577
f 573/573 571/571 579/579
f 579/579 571/571 580/580
f 573/573 579/579 581/581
f 573/573 581/581 582/582
f 573/573 582/582 583/583
f 584/584 573/573 583/583
f 584/584 583/583 585/585
f 586/586 587/587 588/588
f 589/589 587/587 586/586
f 589/589 590/590 587/587
f 589/589 591/591 590/590
f 591/591 592/592 590/590
f 591/591 593/593 592/592
f 593/593 594/594 592/592
f 594/594 595/595 592/592
f 592/592 595/595 596/596
f 592/592 596/596 597/597
f 598/598 599/599 600/600
f 599/599 601/601 600/600
f 602/602 603/603 604/604
f 604/604 603/603 605/605
f 603/603 606/606 605/605
f 606/606 607/607 605/605
f 606/606 608/608 607/607
f 608/608 609/609 607/607
f 608/608 610/610 609/609
f 608/608 611/611 610/610
f 612/612 611/611 608/608
f 613/613 612/612 608/608
f 614/614 615/615 616/616
f 614/614 617/617 615/615
f 617/617 618/618 615/615
f 616/616 615/615 619/619
f 615/615 618/618 620/620
f 615/615 620/620 621/621
f 622/622 615/615 621/621
f 619/619 615/615 622/622
f 623/623 624/624 625/625
f 623/623 626/626 624/624
f 626/626 627/627 624/624
f 625/625 624/624 628/628
f 624/624 627/627 629/629
f 624/624 629/629 630/630
f 631/631 624/624 630/630
f 628/628 624/624 631/631
f 632/632 633/633 634/634
f 635/635 632/632 634/634
f 636/636 632/632 635/635
f 637/637 636/636 635/635
f 638/638 636/636 637/637
f 638/638 637/637 639/639
f 634/634 633/633 640/640
f 640/640 633/633 641/641
f 641/641 633/633 642/642
f 642/642 633/633 643/643
f 643/643 633/633 644/644
f 633/633 645/645 644/644
f 633/633 646/646 645/645
f 647/647 646/646 633/633
f 648/648 647/647 633/633
f 648/648 633/633 649/649
f 649/649 633/633 650/650
f 650/650 633/633 651/651
f 651/651 633/633 652/652
f 652/652 633/633 632/632
