mtllib arms7096.mtl
o arms7096
v -1.50516 0.00000 2.21418 0.000 0.196 0.000
v -1.49670 0.00000 2.13300 0.000 0.235 0.000
v -1.51668 0.04194 2.17314 0.000 0.275 0.000
v -1.51668 -0.04194 2.17314 0.000 0.275 0.000
v -1.51740 0.05436 2.15748 0.000 0.275 0.000
v -1.52118 0.06750 2.12796 0.000 0.310 0.000
v -1.53036 0.08442 2.16972 0.000 0.275 0.000
v -1.53234 0.09738 2.14002 0.000 0.306 0.000
v -1.53630 0.11088 2.13228 0.000 0.306 0.000
v -1.54188 0.12042 2.11014 0.000 0.310 0.000
v -1.54620 0.13248 2.14146 0.000 0.275 0.000
v -1.55196 0.14202 2.11914 0.000 0.314 0.000
v -1.53936 0.00000 1.81260 0.000 0.290 0.000
v -1.55160 0.02178 1.78758 0.000 0.353 0.000
v -1.55628 0.04914 1.81314 0.000 0.353 0.000
v -1.55430 0.00000 1.73520 0.000 0.310 0.000
v -1.54512 0.02628 1.83726 0.000 0.353 0.000
v -1.52964 0.00000 1.90458 0.000 0.275 0.000
v -1.55160 -0.02178 1.78758 0.000 0.353 0.000
v -1.55628 -0.04914 1.81314 0.000 0.353 0.000
v -1.54512 -0.02628 1.83726 0.000 0.353 0.000
v -1.64340 0.26874 1.95336 0.000 0.000 0.878
v -1.64016 0.25182 1.90926 0.000 0.000 0.871
v -1.61028 0.21060 2.01618 0.000 0.000 0.812
v -1.61622 0.19836 1.91106 0.000 0.000 0.867
v -1.60812 0.17604 1.85670 0.000 0.000 0.855
v -1.62954 0.21672 1.86912 0.000 0.000 0.863
v -1.60020 0.15714 1.81782 0.000 0.000 0.827
v -1.50786 0.00000 2.15280 0.000 0.000 0.745
v -1.52982 0.00000 1.93806 0.000 0.000 0.769
v -1.57158 0.00000 1.65942 0.000 0.000 0.792
v -1.60272 0.09378 1.63782 0.000 0.000 0.820
v -1.62342 0.16362 1.69920 0.000 0.000 0.855
v -1.61406 0.07308 1.55862 0.000 0.000 0.835
v -1.61586 0.16470 1.79028 0.000 0.000 0.855
v -1.62504 0.16938 1.73106 0.000 0.000 0.859
v -1.62648 0.18216 1.75590 0.000 0.000 0.855
v -1.64862 0.20394 1.69128 0.000 0.000 0.863
v -1.62162 0.19116 1.81314 0.000 0.000 0.851
v -1.62954 0.16524 1.69146 0.000 0.000 0.859
v -1.60956 0.12420 1.66014 0.000 0.000 0.851
v -1.63242 0.16272 1.66014 0.000 0.000 0.855
v -1.61730 0.12690 1.62702 0.000 0.000 0.847
v -1.60956 0.09054 1.60812 0.000 0.000 0.851
v -1.61982 0.10206 1.57284 0.000 0.000 0.855
v -1.62000 0.08298 1.54548 0.000 0.000 0.859
v -1.64250 0.07146 1.41894 0.000 0.000 0.859
v -1.63908 0.09882 1.48716 0.000 0.000 0.863
v -1.65888 0.11934 1.45998 0.000 0.000 0.867
v -1.64628 0.10656 1.43838 0.000 0.000 0.867
v -1.63422 0.10710 1.52010 0.000 0.000 0.859
v -1.66320 0.00000 1.24038 0.000 0.000 0.859
v -1.65852 0.05040 1.31958 0.000 0.000 0.871
v -1.65960 0.07362 1.36728 0.000 0.000 0.871
v -1.65816 0.06768 1.34244 0.000 0.000 0.871
v -1.66518 0.07254 1.31958 0.000 0.000 0.871
v -1.66068 0.09558 1.40940 0.000 0.000 0.871
v -1.66662 0.09810 1.37610 0.000 0.000 0.871
v -1.67184 0.12366 1.41660 0.000 0.000 0.871
v -1.66284 0.02610 1.27260 0.000 0.000 0.871
v -1.67184 0.02376 1.23624 0.000 0.000 0.871
v -1.66950 0.00828 1.22760 0.000 0.000 0.871
v -1.67202 0.00000 1.20654 0.000 0.000 0.871
v -1.66608 0.04464 1.28232 0.000 0.000 0.871
v -1.66950 -0.00828 1.22760 0.000 0.000 0.871
v -1.67184 -0.02376 1.23624 0.000 0.000 0.871
v -1.66284 -0.02610 1.27260 0.000 0.000 0.871
v -1.65852 -0.05040 1.31958 0.000 0.000 0.871
v -1.64250 -0.07146 1.41894 0.000 0.000 0.859
v -1.65960 -0.07362 1.36728 0.000 0.000 0.871
v -1.65816 -0.06768 1.34244 0.000 0.000 0.871
v -1.66518 -0.07254 1.31958 0.000 0.000 0.871
v -1.66068 -0.09558 1.40940 0.000 0.000 0.871
v -1.66662 -0.09810 1.37610 0.000 0.000 0.871
v -1.67184 -0.12366 1.41660 0.000 0.000 0.871
v -1.66608 -0.04464 1.28232 0.000 0.000 0.871
v -1.61406 -0.07308 1.55862 0.000 0.000 0.835
v -1.60272 -0.09378 1.63782 0.000 0.000 0.820
v -1.60020 -0.15714 1.81782 0.000 0.000 0.827
v -1.62342 -0.16362 1.69920 0.000 0.000 0.855
v -1.61028 -0.21060 2.01618 0.000 0.000 0.812
v -1.61586 -0.16470 1.79028 0.000 0.000 0.855
v -1.62504 -0.16938 1.73106 0.000 0.000 0.859
v -1.62648 -0.18216 1.75590 0.000 0.000 0.855
v -1.64862 -0.20394 1.69128 0.000 0.000 0.863
v -1.62162 -0.19116 1.81314 0.000 0.000 0.851
v -1.60812 -0.17604 1.85670 0.000 0.000 0.855
v -1.61622 -0.19836 1.91106 0.000 0.000 0.867
v -1.64016 -0.25182 1.90926 0.000 0.000 0.871
v -1.64340 -0.26874 1.95336 0.000 0.000 0.878
v -1.62954 -0.21672 1.86912 0.000 0.000 0.863
v -1.62954 -0.16524 1.69146 0.000 0.000 0.859
v -1.60956 -0.12420 1.66014 0.000 0.000 0.851
v -1.63242 -0.16272 1.66014 0.000 0.000 0.855
v -1.61730 -0.12690 1.62702 0.000 0.000 0.847
v -1.60956 -0.09054 1.60812 0.000 0.000 0.851
v -1.61982 -0.10206 1.57284 0.000 0.000 0.855
v -1.62000 -0.08298 1.54548 0.000 0.000 0.859
v -1.63908 -0.09882 1.48716 0.000 0.000 0.863
v -1.65888 -0.11934 1.45998 0.000 0.000 0.867
v -1.64628 -0.10656 1.43838 0.000 0.000 0.867
v -1.63422 -0.10710 1.52010 0.000 0.000 0.859
v -1.67976 0.06318 1.26504 0.000 0.843 0.000
v -1.70010 0.00000 1.14336 0.000 0.882 0.000
v -1.69902 0.07272 1.25874 0.000 0.882 0.000
v -1.68588 0.00000 1.17648 0.000 0.843 0.000
v -1.68426 0.15156 1.42524 0.000 0.843 0.000
v -1.70388 0.16380 1.42920 0.000 0.882 0.000
v -1.63620 0.11448 1.52928 0.000 0.843 0.000
v -1.65618 0.12690 1.53252 0.000 0.882 0.000
v -1.62810 0.14922 1.61982 0.000 0.843 0.000
v -1.64862 0.16200 1.62216 0.000 0.882 0.000
v -1.66716 0.23022 1.69110 0.000 0.843 0.000
v -1.68876 0.24246 1.68696 0.000 0.882 0.000
v -1.65222 0.20538 1.76526 0.000 0.882 0.000
v -1.63152 0.19278 1.76454 0.000 0.831 0.000
v -1.63494 0.22068 1.86804 0.000 0.824 0.000
v -1.65492 0.23274 1.86876 0.000 0.902 0.000
v -1.66734 0.29430 1.92852 0.000 0.804 0.000
v -1.68426 0.30528 1.92906 0.000 0.882 0.000
v -1.67976 -0.06318 1.26504 0.000 0.843 0.000
v -1.69902 -0.07272 1.25874 0.000 0.882 0.000
v -1.68426 -0.15156 1.42524 0.000 0.843 0.000
v -1.70388 -0.16380 1.42920 0.000 0.882 0.000
v -1.63620 -0.11448 1.52928 0.000 0.843 0.000
v -1.65618 -0.12690 1.53252 0.000 0.882 0.000
v -1.62810 -0.14922 1.61982 0.000 0.843 0.000
v -1.64862 -0.16200 1.62216 0.000 0.882 0.000
v -1.66716 -0.23022 1.69110 0.000 0.843 0.000
v -1.68876 -0.24246 1.68696 0.000 0.882 0.000
v -1.65222 -0.20538 1.76526 0.000 0.882 0.000
v -1.63152 -0.19278 1.76454 0.000 0.831 0.000
v -1.63494 -0.22068 1.86804 0.000 0.824 0.000
v -1.65492 -0.23274 1.86876 0.000 0.902 0.000
v -1.66734 -0.29430 1.92852 0.000 0.804 0.000
v -1.68426 -0.30528 1.92906 0.000 0.882 0.000
v -1.63494 0.22068 1.86804 0.000 0.796 0.000
v -1.63152 0.19278 1.76454 0.000 0.796 0.000
v -1.58742 0.12420 1.89936 0.000 0.773 0.000
v -1.63800 0.26316 1.98000 0.000 0.800 0.000
v -1.66734 0.29430 1.92852 0.000 0.800 0.000
v -1.60542 0.11538 1.70622 0.000 0.773 0.000
v -1.66716 0.23022 1.69110 0.000 0.792 0.000
v -1.62810 0.14922 1.61982 0.000 0.796 0.000
v -1.59552 0.06336 1.63836 0.000 0.741 0.000
v -1.63620 0.11448 1.52928 0.000 0.796 0.000
v -1.61046 0.04932 1.55970 0.000 0.761 0.000
v -1.64250 0.07182 1.44072 0.000 0.788 0.000
v -1.68426 0.15156 1.42524 0.000 0.800 0.000
v -1.67976 0.06318 1.26504 0.000 0.800 0.000
v -1.66500 0.00000 1.24038 0.000 0.780 0.000
v -1.68588 0.00000 1.17648 0.000 0.792 0.000
v -1.67976 -0.06318 1.26504 0.000 0.800 0.000
v -1.64250 -0.07182 1.44072 0.000 0.788 0.000
v -1.68426 -0.15156 1.42524 0.000 0.800 0.000
v -1.63620 -0.11448 1.52928 0.000 0.796 0.000
v -1.61046 -0.04932 1.55970 0.000 0.761 0.000
v -1.59552 -0.06336 1.63836 0.000 0.741 0.000
v -1.62810 -0.14922 1.61982 0.000 0.796 0.000
v -1.60542 -0.11538 1.70622 0.000 0.773 0.000
v -1.66716 -0.23022 1.69110 0.000 0.792 0.000
v -1.63152 -0.19278 1.76454 0.000 0.796 0.000
v -1.58742 -0.12420 1.89936 0.000 0.773 0.000
v -1.63494 -0.22068 1.86804 0.000 0.796 0.000
v -1.63800 -0.26316 1.98000 0.000 0.800 0.000
v -1.66734 -0.29430 1.92852 0.000 0.800 0.000
v -1.74870 0.17082 1.37736 0.867 0.000 0.000
v -1.74870 0.07164 1.20348 0.867 0.000 0.000
v -1.74348 0.00000 1.32480 0.922 0.000 0.000
v -1.74870 0.00000 1.11636 0.867 0.000 0.000
v -1.74870 0.22986 1.50462 0.867 0.000 0.000
v -1.74870 0.25884 1.59804 0.867 0.000 0.000
v -1.73088 0.15246 1.81476 0.922 0.000 0.000
v -1.74870 0.30492 1.81476 0.867 0.000 0.000
v -1.69920 0.30240 2.10546 0.816 0.000 0.000
v -1.74870 0.34560 2.00340 0.816 0.000 0.000
v -1.66770 0.19404 2.26854 0.882 0.000 0.000
v -1.67922 0.28926 2.21364 0.816 0.000 0.000
v -1.74870 -0.07164 1.20348 0.867 0.000 0.000
v -1.74870 -0.17082 1.37736 0.867 0.000 0.000
v -1.74870 -0.22986 1.50462 0.867 0.000 0.000
v -1.74870 -0.25884 1.59804 0.867 0.000 0.000
v -1.73088 -0.15246 1.81476 0.922 0.000 0.000
v -1.74870 -0.30492 1.81476 0.867 0.000 0.000
v -1.69920 -0.30240 2.10546 0.816 0.000 0.000
v -1.74870 -0.34560 2.00340 0.816 0.000 0.000
v -1.66770 -0.19404 2.26854 0.882 0.000 0.000
v -1.67922 -0.28926 2.21364 0.816 0.000 0.000
v -1.66770 0.19404 2.26854 0.000 0.843 0.000
v -1.71288 0.00000 1.81476 0.000 0.890 0.000
v -1.64988 0.00000 2.36970 0.000 0.843 0.000
v -1.73088 0.15246 1.81476 0.000 0.878 0.000
v -1.74348 0.00000 1.32480 0.000 0.890 0.000
v -1.66770 -0.19404 2.26854 0.000 0.843 0.000
v -1.73088 -0.15246 1.81476 0.000 0.878 0.000
v -1.73430 0.26496 1.50534 0.000 0.804 0.000
v -1.75464 0.21960 1.37160 0.000 0.843 0.000
v -1.75464 0.28026 1.50462 0.000 0.843 0.000
v -1.73430 0.20034 1.37394 0.000 0.804 0.000
v -1.73430 0.09756 1.20636 0.000 0.804 0.000
v -1.75464 0.11430 1.19466 0.000 0.843 0.000
v -1.73430 0.00000 1.07568 0.000 0.804 0.000
v -1.75464 0.30294 1.59804 0.000 0.843 0.000
v -1.73430 0.29160 1.59804 0.000 0.804 0.000
v -1.75464 0.34974 1.81476 0.000 0.843 0.000
v -1.73430 0.33138 1.81476 0.000 0.804 0.000
v -1.75464 0.40572 2.03220 0.000 0.843 0.000
v -1.73502 0.37548 2.00754 0.000 0.804 0.000
v -1.70838 0.33192 2.04552 0.000 0.804 0.000
v -1.70136 0.34254 2.14074 0.000 0.843 0.000
v -1.68174 0.29574 2.09772 0.000 0.804 0.000
v -1.65114 0.28422 2.21958 0.000 0.804 0.000
v -1.68264 0.32688 2.25576 0.000 0.843 0.000
v -1.66950 0.20268 2.33010 0.000 0.843 0.000
v -1.63872 0.17532 2.28978 0.000 0.804 0.000
v -1.64772 0.00000 2.45448 0.000 0.843 0.000
v -1.61190 0.00000 2.37060 0.000 0.843 0.000
v -1.63872 -0.17532 2.28978 0.000 0.804 0.000
v -1.66950 -0.20268 2.33010 0.000 0.843 0.000
v -1.65114 -0.28422 2.21958 0.000 0.804 0.000
v -1.68264 -0.32688 2.25576 0.000 0.843 0.000
v -1.70136 -0.34254 2.14074 0.000 0.843 0.000
v -1.68174 -0.29574 2.09772 0.000 0.804 0.000
v -1.70838 -0.33192 2.04552 0.000 0.804 0.000
v -1.75464 -0.40572 2.03220 0.000 0.843 0.000
v -1.73502 -0.37548 2.00754 0.000 0.804 0.000
v -1.73430 -0.33138 1.81476 0.000 0.804 0.000
v -1.75464 -0.34974 1.81476 0.000 0.843 0.000
v -1.73430 -0.29160 1.59804 0.000 0.804 0.000
v -1.75464 -0.30294 1.59804 0.000 0.843 0.000
v -1.73430 -0.26496 1.50534 0.000 0.804 0.000
v -1.75464 -0.28026 1.50462 0.000 0.843 0.000
v -1.75464 -0.21960 1.37160 0.000 0.843 0.000
v -1.73430 -0.20034 1.37394 0.000 0.804 0.000
v -1.73430 -0.09756 1.20636 0.000 0.804 0.000
v -1.75464 -0.11430 1.19466 0.000 0.843 0.000
v -1.75464 0.00000 1.04958 0.000 0.843 0.000
v -1.73430 0.00000 1.07568 0.000 0.804 0.000
v -1.68174 0.29574 2.09772 0.882 0.000 0.000
v -1.64376 0.23328 1.94076 0.843 0.000 0.000
v -1.70838 0.33192 2.04552 0.882 0.000 0.000
v -1.73502 0.37548 2.00754 0.882 0.000 0.000
v -1.73430 0.33138 1.81476 0.882 0.000 0.000
v -1.64862 0.15858 1.62270 0.843 0.000 0.000
v -1.73430 0.29160 1.59804 0.882 0.000 0.000
v -1.73430 0.26496 1.50534 0.882 0.000 0.000
v -1.65726 0.01872 1.32966 0.843 0.000 0.000
v -1.63512 0.24318 2.10510 0.843 0.000 0.000
v -1.65114 0.28422 2.21958 0.863 0.000 0.000
v -1.60110 0.17262 2.15766 0.843 0.000 0.000
v -1.63872 0.17532 2.28978 0.843 0.000 0.000
v -1.53054 0.00000 2.20788 0.843 0.000 0.000
v -1.61190 0.00000 2.37060 0.835 0.000 0.000
v -1.63872 -0.17532 2.28978 0.843 0.000 0.000
v -1.60110 -0.17262 2.15766 0.843 0.000 0.000
v -1.65114 -0.28422 2.21958 0.863 0.000 0.000
v -1.63512 -0.24318 2.10510 0.843 0.000 0.000
v -1.68174 -0.29574 2.09772 0.882 0.000 0.000
v -1.64376 -0.23328 1.94076 0.843 0.000 0.000
v -1.70838 -0.33192 2.04552 0.882 0.000 0.000
v -1.73502 -0.37548 2.00754 0.882 0.000 0.000
v -1.73430 -0.33138 1.81476 0.882 0.000 0.000
v -1.64862 -0.15858 1.62270 0.843 0.000 0.000
v -1.73430 -0.29160 1.59804 0.882 0.000 0.000
v -1.73430 -0.26496 1.50534 0.882 0.000 0.000
v -1.65726 -0.01872 1.32966 0.843 0.000 0.000
v -1.73430 -0.20034 1.37394 0.882 0.000 0.000
v -1.65726 -0.01872 1.32966 0.843 0.000 0.000
v -1.73430 -0.09756 1.20636 0.882 0.000 0.000
v -1.67778 0.00000 1.20528 0.843 0.000 0.000
v -1.73430 0.00000 1.07568 0.882 0.000 0.000
v -1.73430 0.09756 1.20636 0.882 0.000 0.000
v -1.65726 0.01872 1.32966 0.843 0.000 0.000
v -1.73430 0.20034 1.37394 0.882 0.000 0.000
v -1.53036 -0.08442 2.16972 0.000 0.275 0.000
v -1.52118 -0.06750 2.12796 0.000 0.310 0.000
v -1.51740 -0.05436 2.15748 0.000 0.275 0.000
v -1.53234 -0.09738 2.14002 0.000 0.306 0.000
v -1.54620 -0.13248 2.14146 0.000 0.275 0.000
v -1.54188 -0.12042 2.11014 0.000 0.310 0.000
v -1.53630 -0.11088 2.13228 0.000 0.306 0.000
v -1.55196 -0.14202 2.11914 0.000 0.314 0.000
v -1.74672 0.13860 1.68228 0.000 0.922 0.000
v -1.74924 0.15408 1.66320 0.000 0.804 0.000
v -1.75770 0.15696 1.70046 0.000 0.804 0.000
v -1.75194 0.17334 1.67814 0.000 0.922 0.000
v -1.71648 0.20322 2.12130 0.000 0.922 0.000
v -1.73034 0.21690 2.10096 0.000 0.804 0.000
v -1.71666 0.22302 2.13624 0.000 0.804 0.000
v -1.72188 0.23814 2.11734 0.000 0.922 0.000
v -1.91484 0.21222 1.89882 0.000 0.929 0.000
v -1.91160 0.23418 1.79208 0.000 0.910 0.000
v -1.89486 0.20106 1.81278 0.000 0.941 0.000
v -1.87056 0.22986 1.82448 0.000 1.000 0.000
v -1.89072 0.23976 1.89594 0.000 1.000 0.000
v -1.89216 0.21582 1.98468 0.000 0.922 0.000
v -1.86840 0.24228 1.96758 0.000 1.000 0.000
v -1.90386 0.27396 1.89324 0.000 0.929 0.000
v -1.88388 0.26280 1.80738 0.000 0.941 0.000
v -1.88136 0.27774 1.97928 0.000 0.922 0.000
v -1.93140 0.24696 1.89594 0.000 0.875 0.000
v -1.90854 0.25218 1.99998 0.000 0.843 0.000
v -1.72890 0.13482 1.74816 0.000 1.000 0.000
v -1.74276 0.17586 1.77210 0.000 1.000 0.000
v -1.73844 0.19674 1.74096 0.000 1.000 0.000
v -1.70820 0.18306 2.05650 0.000 1.000 0.000
v -1.71180 0.20862 2.02176 0.000 1.000 0.000
v -1.71756 0.24498 2.04948 0.000 1.000 0.000
v -1.76112 0.15876 1.72008 0.000 0.945 0.000
v -1.73664 0.21384 2.08206 0.000 0.953 0.000
v -1.76112 0.15876 1.72008 0.000 0.945 0.000
v -1.73520 0.12384 1.66050 0.000 0.922 0.000
v -1.72890 0.13482 1.74816 0.000 1.000 0.000
v -1.74132 0.15228 1.63782 0.000 0.882 0.000
v -1.74456 0.18576 1.65348 0.000 0.922 0.000
v -1.73844 0.19674 1.74096 0.000 1.000 0.000
v -1.70514 0.22752 2.15964 0.000 0.882 0.000
v -1.73664 0.21384 2.08206 0.000 0.953 0.000
v -1.70190 0.19404 2.14416 0.000 0.922 0.000
v -1.70820 0.18306 2.05650 0.000 1.000 0.000
v -1.71126 0.25596 2.13696 0.000 0.922 0.000
v -1.71756 0.24498 2.04948 0.000 1.000 0.000
v -1.77732 0.00000 1.20456 0.000 0.804 0.000
v -1.76202 0.00000 1.17180 0.000 0.804 0.000
v -1.76814 -0.01800 1.18890 0.000 0.922 0.000
v -1.76814 0.01800 1.18890 0.000 0.922 0.000
v -1.66536 0.00000 2.32938 0.000 0.804 0.000
v -1.68066 0.00000 2.29680 0.000 0.804 0.000
v -1.67148 -0.01800 2.31228 0.000 0.922 0.000
v -1.67148 0.01800 2.31228 0.000 0.922 0.000
v -1.78506 0.00000 1.22220 0.000 0.882 0.000
v -1.74834 0.00000 1.14318 0.000 0.843 0.000
v -1.75302 -0.04518 1.16946 0.000 0.882 0.000
v -1.75860 -0.04698 1.22886 0.000 0.882 0.000
v -1.75302 0.04518 1.16946 0.000 0.882 0.000
v -1.75860 0.04698 1.22886 0.000 0.882 0.000
v -1.68840 0.00000 2.27898 0.000 0.882 0.000
v -1.66860 -0.04698 2.26494 0.000 0.882 0.000
v -1.65636 -0.04518 2.33172 0.000 0.882 0.000
v -1.65168 0.00000 2.35800 0.000 0.843 0.000
v -1.65636 0.04518 2.33172 0.000 0.882 0.000
v -1.66860 0.04698 2.26494 0.000 0.882 0.000
v -2.03724 0.04698 1.89000 0.000 0.804 0.000
v -2.00484 0.04698 1.74168 0.000 0.922 0.000
v -2.05164 0.03510 1.89000 0.000 0.804 0.000
v -2.01618 0.03510 1.73682 0.000 0.922 0.000
v -1.99926 0.04698 2.03166 0.000 0.922 0.000
v -2.00970 0.03510 2.03814 0.000 0.922 0.000
v -1.75860 0.04698 1.22886 0.000 0.961 0.000
v -1.76526 0.03510 1.22724 0.000 0.961 0.000
v -1.66860 0.04698 2.26494 0.000 0.961 0.000
v -1.67346 0.03510 2.26836 0.000 0.961 0.000
v -2.05164 -0.03510 1.89000 0.000 0.804 0.000
v -2.01618 -0.03510 1.73682 0.000 0.922 0.000
v -2.00484 -0.04698 1.74168 0.000 0.922 0.000
v -2.03724 -0.04698 1.89000 0.000 0.804 0.000
v -1.99926 -0.04698 2.03166 0.000 0.922 0.000
v -2.00970 -0.03510 2.03814 0.000 0.922 0.000
v -1.75860 -0.04698 1.22886 0.000 0.961 0.000
v -1.76526 -0.03510 1.22724 0.000 0.961 0.000
v -1.66860 -0.04698 2.26494 0.000 0.961 0.000
v -1.67346 -0.03510 2.26836 0.000 0.961 0.000
v -2.05164 0.03510 1.89000 0.000 0.000 0.922
v -2.01618 0.03510 1.73682 0.000 0.000 0.941
v -2.06064 0.00000 1.89000 0.000 0.000 0.835
v -2.02194 0.00000 1.73070 0.000 0.000 0.922
v -1.76526 0.03510 1.22724 0.000 0.000 0.941
v -1.78506 0.00000 1.22220 0.000 0.000 0.922
v -2.00970 0.03510 2.03814 0.000 0.000 0.922
v -2.01438 0.00000 2.04660 0.000 0.000 0.878
v -1.68840 0.00000 2.27898 0.000 0.000 0.902
v -1.67346 0.03510 2.26836 0.000 0.000 0.941
v -2.01618 -0.03510 1.73682 0.000 0.000 0.941
v -2.05164 -0.03510 1.89000 0.000 0.000 0.922
v -1.76526 -0.03510 1.22724 0.000 0.000 0.941
v -2.00970 -0.03510 2.03814 0.000 0.000 0.922
v -1.67346 -0.03510 2.26836 0.000 0.000 0.941
v -1.66428 0.31104 1.94652 0.000 0.898 0.000
v -1.72530 0.37944 1.89198 0.000 0.898 0.000
v -1.68930 0.30618 1.94958 0.000 0.898 0.000
v -1.70748 0.33912 1.98378 0.000 0.941 0.000
v -1.68714 0.35028 1.98414 0.000 0.941 0.000
v -1.63512 0.24318 2.10510 0.000 0.898 0.000
v -1.61280 0.25542 2.10042 0.000 0.898 0.000
v -1.55448 0.14598 2.18178 0.000 0.851 0.000
v -1.58976 0.13734 2.18430 0.000 0.843 0.000
v -1.50894 0.00000 2.23398 0.000 0.761 0.000
v -1.53774 0.00000 2.23650 0.000 0.761 0.000
v -1.75356 0.37350 1.88964 0.000 0.898 0.000
v -1.58976 -0.13734 2.18430 0.000 0.843 0.000
v -1.55448 -0.14598 2.18178 0.000 0.851 0.000
v -1.63512 -0.24318 2.10510 0.000 0.898 0.000
v -1.61280 -0.25542 2.10042 0.000 0.898 0.000
v -1.68714 -0.35028 1.98414 0.000 0.941 0.000
v -1.70748 -0.33912 1.98378 0.000 0.941 0.000
v -1.66428 -0.31104 1.94652 0.000 0.898 0.000
v -1.68930 -0.30618 1.94958 0.000 0.898 0.000
v -1.72530 -0.37944 1.89198 0.000 0.898 0.000
v -1.75356 -0.37350 1.88964 0.000 0.898 0.000
v -1.51830 0.00000 2.10726 0.000 0.808 0.000
v -1.55484 0.10242 2.08188 0.000 0.898 0.000
v -1.49706 0.00000 2.11860 0.000 0.808 0.000
v -1.53540 0.10620 2.09178 0.000 0.851 0.000
v -1.61208 0.21042 2.00556 0.000 0.898 0.000
v -1.60308 0.22014 2.00898 0.000 0.898 0.000
v -1.64016 0.25578 1.95714 0.000 0.898 0.000
v -1.62810 0.26514 1.95552 0.000 0.898 0.000
v -1.64682 0.24516 1.90134 0.000 0.851 0.000
v -1.63188 0.25614 1.89954 0.000 0.851 0.000
v -1.72296 0.35946 1.81854 0.000 0.898 0.000
v -1.55484 -0.10242 2.08188 0.000 0.898 0.000
v -1.53540 -0.10620 2.09178 0.000 0.851 0.000
v -1.61208 -0.21042 2.00556 0.000 0.898 0.000
v -1.60308 -0.22014 2.00898 0.000 0.898 0.000
v -1.64016 -0.25578 1.95714 0.000 0.898 0.000
v -1.62810 -0.26514 1.95552 0.000 0.898 0.000
v -1.64682 -0.24516 1.90134 0.000 0.851 0.000
v -1.63188 -0.25614 1.89954 0.000 0.851 0.000
v -1.72296 -0.35946 1.81854 0.000 0.898 0.000
v -1.75140 0.35244 1.81278 0.000 0.898 0.000
v -1.72296 0.35946 1.81854 0.000 0.898 0.000
v -1.72296 -0.35946 1.81854 0.000 0.898 0.000
v -1.75140 -0.35244 1.81278 0.000 0.898 0.000
v -1.72530 0.37944 1.89198 0.000 0.941 0.000
v -1.72296 0.35946 1.81854 0.000 0.898 0.000
v -1.75356 0.37350 1.88964 0.000 0.941 0.000
v -1.75140 0.35244 1.81278 0.000 0.898 0.000
v -1.49706 0.00000 2.11860 0.000 0.761 0.000
v -1.53540 0.10620 2.09178 0.000 0.808 0.000
v -1.55448 0.14598 2.18178 0.000 0.808 0.000
v -1.50894 0.00000 2.23398 0.000 0.714 0.000
v -1.60308 0.22014 2.00898 0.000 0.851 0.000
v -1.61280 0.25542 2.10042 0.000 0.851 0.000
v -1.68714 0.35028 1.98414 0.000 0.851 0.000
v -1.62810 0.26514 1.95552 0.000 0.851 0.000
v -1.66428 0.31104 1.94652 0.000 0.851 0.000
v -1.63188 0.25614 1.89954 0.000 0.851 0.000
v -1.72296 0.35946 1.81854 0.000 0.859 0.000
v -1.72530 0.37944 1.89198 0.000 0.882 0.000
v -1.55448 -0.14598 2.18178 0.000 0.808 0.000
v -1.53540 -0.10620 2.09178 0.000 0.808 0.000
v -1.60308 -0.22014 2.00898 0.000 0.851 0.000
v -1.61280 -0.25542 2.10042 0.000 0.851 0.000
v -1.68714 -0.35028 1.98414 0.000 0.851 0.000
v -1.62810 -0.26514 1.95552 0.000 0.851 0.000
v -1.66428 -0.31104 1.94652 0.000 0.851 0.000
v -1.63188 -0.25614 1.89954 0.000 0.851 0.000
v -1.72296 -0.35946 1.81854 0.000 0.859 0.000
v -1.72530 -0.37944 1.89198 0.000 0.882 0.000
v -1.53774 0.00000 2.23650 0.000 0.898 0.000
v -1.55484 0.10242 2.08188 0.000 0.898 0.000
v -1.51830 0.00000 2.10726 0.000 0.898 0.000
v -1.58976 0.13734 2.18430 0.000 0.898 0.000
v -1.61208 0.21042 2.00556 0.000 0.898 0.000
v -1.63512 0.24318 2.10510 0.000 0.898 0.000
v -1.70748 0.33912 1.98378 0.000 0.898 0.000
v -1.64016 0.25578 1.95714 0.000 0.898 0.000
v -1.68930 0.30618 1.94958 0.000 0.898 0.000
v -1.64682 0.24516 1.90134 0.000 0.898 0.000
v -1.75140 0.35244 1.81278 0.000 0.851 0.000
v -1.75356 0.37350 1.88964 0.000 0.851 0.000
v -1.55484 -0.10242 2.08188 0.000 0.898 0.000
v -1.58976 -0.13734 2.18430 0.000 0.898 0.000
v -1.61208 -0.21042 2.00556 0.000 0.898 0.000
v -1.63512 -0.24318 2.10510 0.000 0.898 0.000
v -1.70748 -0.33912 1.98378 0.000 0.898 0.000
v -1.64016 -0.25578 1.95714 0.000 0.898 0.000
v -1.68930 -0.30618 1.94958 0.000 0.898 0.000
v -1.64682 -0.24516 1.90134 0.000 0.898 0.000
v -1.75140 -0.35244 1.81278 0.000 0.851 0.000
v -1.75356 -0.37350 1.88964 0.000 0.851 0.000
v -1.56942 0.13644 2.00196 0.000 0.886 0.000
v -1.53054 0.00000 1.89342 0.000 0.898 0.000
v -1.52928 0.09486 2.03814 0.000 0.898 0.000
v -1.51722 0.00000 1.99278 0.000 0.898 0.000
v -1.60272 0.24102 2.09628 0.000 0.898 0.000
v -1.58670 0.20052 2.14992 0.000 0.910 0.000
v -1.62072 0.25578 2.26530 0.000 0.933 0.000
v -1.67184 0.32022 2.26998 0.000 0.914 0.000
v -1.74276 0.37332 2.43954 0.000 0.843 0.000
v -1.68030 0.27918 2.42424 0.000 0.843 0.000
v -1.73628 0.27756 2.62278 0.000 0.843 0.000
v -1.52928 -0.09486 2.03814 0.000 0.898 0.000
v -1.56942 -0.13644 2.00196 0.000 0.886 0.000
v -1.60272 -0.24102 2.09628 0.000 0.898 0.000
v -1.58670 -0.20052 2.14992 0.000 0.910 0.000
v -1.62072 -0.25578 2.26530 0.000 0.933 0.000
v -1.67184 -0.32022 2.26998 0.000 0.914 0.000
v -1.74276 -0.37332 2.43954 0.000 0.843 0.000
v -1.68030 -0.27918 2.42424 0.000 0.843 0.000
v -1.73628 -0.27756 2.62278 0.000 0.843 0.000
v -1.51434 0.10188 2.03544 0.000 0.761 0.000
v -1.49904 0.00000 1.88694 0.000 0.761 0.000
v -1.54440 0.13878 1.98612 0.000 0.808 0.000
v -1.49256 0.00000 1.98702 0.000 0.714 0.000
v -1.58274 0.24984 2.09682 0.000 0.827 0.000
v -1.56528 0.20322 2.15514 0.000 0.808 0.000
v -1.59840 0.25416 2.26746 0.000 0.808 0.000
v -1.64628 0.32490 2.27214 0.000 0.808 0.000
v -1.71630 0.37386 2.44224 0.000 0.808 0.000
v -1.65348 0.27738 2.43234 0.000 0.808 0.000
v -1.70514 0.27522 2.62602 0.000 0.808 0.000
v -1.51434 -0.10188 2.03544 0.000 0.761 0.000
v -1.54440 -0.13878 1.98612 0.000 0.808 0.000
v -1.58274 -0.24984 2.09682 0.000 0.827 0.000
v -1.56528 -0.20322 2.15514 0.000 0.808 0.000
v -1.59840 -0.25416 2.26746 0.000 0.808 0.000
v -1.64628 -0.32490 2.27214 0.000 0.808 0.000
v -1.71630 -0.37386 2.44224 0.000 0.808 0.000
v -1.65348 -0.27738 2.43234 0.000 0.808 0.000
v -1.70514 -0.27522 2.62602 0.000 0.808 0.000
v -1.52928 0.09486 2.03814 0.000 0.843 0.000
v -1.49256 0.00000 1.98702 0.000 0.808 0.000
v -1.51434 0.10188 2.03544 0.000 0.808 0.000
v -1.51722 0.00000 1.99278 0.000 0.808 0.000
v -1.56528 0.20322 2.15514 0.000 0.827 0.000
v -1.58670 0.20052 2.14992 0.000 0.847 0.000
v -1.59840 0.25416 2.26746 0.000 0.851 0.000
v -1.62072 0.25578 2.26530 0.000 0.851 0.000
v -1.68030 0.27918 2.42424 0.000 0.851 0.000
v -1.65348 0.27738 2.43234 0.000 0.851 0.000
v -1.73628 0.27756 2.62278 0.000 0.851 0.000
v -1.70514 0.27522 2.62602 0.000 0.851 0.000
v -1.52928 -0.09486 2.03814 0.000 0.843 0.000
v -1.51434 -0.10188 2.03544 0.000 0.808 0.000
v -1.56528 -0.20322 2.15514 0.000 0.827 0.000
v -1.58670 -0.20052 2.14992 0.000 0.847 0.000
v -1.59840 -0.25416 2.26746 0.000 0.851 0.000
v -1.62072 -0.25578 2.26530 0.000 0.851 0.000
v -1.68030 -0.27918 2.42424 0.000 0.851 0.000
v -1.65348 -0.27738 2.43234 0.000 0.851 0.000
v -1.73628 -0.27756 2.62278 0.000 0.851 0.000
v -1.70514 -0.27522 2.62602 0.000 0.851 0.000
v -1.56942 0.13644 2.00196 0.000 0.898 0.000
v -1.49904 0.00000 1.88694 0.000 0.851 0.000
v -1.53054 0.00000 1.89342 0.000 0.851 0.000
v -1.54440 0.13878 1.98612 0.000 0.851 0.000
v -1.58274 0.24984 2.09682 0.000 0.875 0.000
v -1.60272 0.24102 2.09628 0.000 0.898 0.000
v -1.64628 0.32490 2.27214 0.000 0.898 0.000
v -1.67184 0.32022 2.26998 0.000 0.898 0.000
v -1.74276 0.37332 2.43954 0.000 0.898 0.000
v -1.71630 0.37386 2.44224 0.000 0.898 0.000
v -1.56942 -0.13644 2.00196 0.000 0.898 0.000
v -1.54440 -0.13878 1.98612 0.000 0.851 0.000
v -1.58274 -0.24984 2.09682 0.000 0.875 0.000
v -1.60272 -0.24102 2.09628 0.000 0.898 0.000
v -1.64628 -0.32490 2.27214 0.000 0.898 0.000
v -1.67184 -0.32022 2.26998 0.000 0.898 0.000
v -1.74276 -0.37332 2.43954 0.000 0.898 0.000
v -1.71630 -0.37386 2.44224 0.000 0.898 0.000
v -1.70514 0.27522 2.62602 0.000 0.851 0.000
v -1.74276 0.37332 2.43954 0.000 0.851 0.000
v -1.73628 0.27756 2.62278 0.000 0.851 0.000
v -1.71630 0.37386 2.44224 0.000 0.851 0.000
v -1.75356 -0.37350 1.88964 0.000 0.941 0.000
v -1.72296 -0.35946 1.81854 0.000 0.898 0.000
v -1.72530 -0.37944 1.89198 0.000 0.941 0.000
v -1.75140 -0.35244 1.81278 0.000 0.898 0.000
v -1.73628 -0.27756 2.62278 0.000 0.851 0.000
v -1.74276 -0.37332 2.43954 0.000 0.851 0.000
v -1.70514 -0.27522 2.62602 0.000 0.851 0.000
v -1.71630 -0.37386 2.44224 0.000 0.851 0.000
v -1.50876 0.00000 2.11734 0.000 0.714 0.000
v -1.53198 0.03636 1.99746 0.000 0.827 0.000
v -1.52964 0.05850 2.05038 0.000 0.808 0.000
v -1.54548 0.10260 2.08746 0.000 0.808 0.000
v -1.52118 0.00000 1.98108 0.000 0.784 0.000
v -1.53198 -0.03636 1.99746 0.000 0.827 0.000
v -1.52964 -0.05850 2.05038 0.000 0.808 0.000
v -1.54548 -0.10260 2.08746 0.000 0.808 0.000
v -1.57482 0.00000 1.63494 0.000 0.765 0.000
v -1.64700 0.00000 1.30842 0.000 0.851 0.000
v -1.59480 0.08424 1.64304 0.000 0.827 0.000
v -1.57500 0.03636 1.69740 0.000 0.827 0.000
v -1.55790 0.00000 1.72368 0.000 0.765 0.000
v -1.56762 0.04302 1.76166 0.000 0.827 0.000
v -1.53036 0.00000 1.90584 0.000 0.784 0.000
v -1.55934 0.05922 1.85004 0.000 0.808 0.000
v -1.58436 0.10386 1.80108 0.000 0.808 0.000
v -1.53972 0.03528 1.92258 0.000 0.808 0.000
v -1.59480 -0.08424 1.64304 0.000 0.827 0.000
v -1.57500 -0.03636 1.69740 0.000 0.827 0.000
v -1.56762 -0.04302 1.76166 0.000 0.827 0.000
v -1.55934 -0.05922 1.85004 0.000 0.808 0.000
v -1.58436 -0.10386 1.80108 0.000 0.808 0.000
v -1.53972 -0.03528 1.92258 0.000 0.808 0.000
v -1.55250 0.08586 2.20158 0.000 0.851 0.000
v -1.56816 0.13284 2.18034 0.000 0.851 0.000
v -1.57662 0.11736 2.22138 0.000 0.851 0.000
v -1.57176 0.09216 2.26692 0.000 0.851 0.000
v -1.55358 0.06390 2.25180 0.000 0.808 0.000
v -1.52298 0.00000 2.22822 0.000 0.714 0.000
v -1.54674 0.04266 2.26746 0.000 0.808 0.000
v -1.60308 0.15390 2.23056 0.000 0.851 0.000
v -1.59606 0.16056 2.19888 0.000 0.875 0.000
v -1.58796 0.17262 2.16576 0.000 0.851 0.000
v -1.57482 0.00000 2.55600 0.000 0.761 0.000
v -1.54674 -0.04266 2.26746 0.000 0.808 0.000
v -1.55358 -0.06390 2.25180 0.000 0.808 0.000
v -1.55250 -0.08586 2.20158 0.000 0.851 0.000
v -1.57176 -0.09216 2.26692 0.000 0.851 0.000
v -1.57662 -0.11736 2.22138 0.000 0.851 0.000
v -1.56816 -0.13284 2.18034 0.000 0.851 0.000
v -1.60308 -0.15390 2.23056 0.000 0.851 0.000
v -1.59606 -0.16056 2.19888 0.000 0.875 0.000
v -1.58796 -0.17262 2.16576 0.000 0.851 0.000
v -1.57176 0.09216 2.26692 0.000 0.898 0.000
v -1.57662 0.11736 2.22138 0.000 0.851 0.000
v -1.66662 0.19116 2.41182 0.000 0.808 0.000
v -1.59948 0.00000 2.49858 0.000 0.843 0.000
v -1.53324 0.00000 2.26656 0.000 0.851 0.000
v -1.57176 -0.09216 2.26692 0.000 0.898 0.000
v -1.66662 -0.19116 2.41182 0.000 0.808 0.000
v -1.57662 -0.11736 2.22138 0.000 0.851 0.000
v -1.67328 0.22122 2.38050 0.000 0.808 0.000
v -1.57662 0.11736 2.22138 0.000 0.898 0.000
v -1.60308 0.15390 2.23056 0.000 0.851 0.000
v -1.61406 0.00000 2.46258 0.000 0.843 0.000
v -1.53324 0.00000 2.26656 0.000 0.851 0.000
v -1.57662 -0.11736 2.22138 0.000 0.882 0.000
v -1.67328 -0.22122 2.38050 0.000 0.808 0.000
v -1.60308 -0.15390 2.23056 0.000 0.882 0.000
v -1.67328 0.22122 2.38050 0.000 0.882 0.000
v -1.61190 0.00000 2.37060 0.000 0.882 0.000
v -1.63872 0.17532 2.28978 0.000 0.882 0.000
v -1.60308 0.15390 2.23056 0.000 0.882 0.000
v -1.67328 -0.22122 2.38050 0.000 0.882 0.000
v -1.63872 -0.17532 2.28978 0.000 0.882 0.000
v -1.75464 0.28026 1.50462 0.000 0.843 0.000
v -1.75464 0.21960 1.37160 0.000 0.843 0.000
v -1.74870 0.22986 1.50462 0.000 0.922 0.000
v -1.74870 0.17082 1.37736 0.000 0.922 0.000
v -1.74870 0.07164 1.20348 0.000 0.922 0.000
v -1.75464 0.11430 1.19466 0.000 0.843 0.000
v -1.75464 0.00000 1.04958 0.000 0.843 0.000
v -1.74870 0.00000 1.11636 0.000 0.922 0.000
v -1.75464 0.30294 1.59804 0.000 0.843 0.000
v -1.74870 0.25884 1.59804 0.000 0.922 0.000
v -1.75464 0.34974 1.81476 0.000 0.843 0.000
v -1.74870 0.30492 1.81476 0.000 0.922 0.000
v -1.75464 0.40572 2.03220 0.000 0.843 0.000
v -1.74870 0.34560 2.00340 0.000 0.922 0.000
v -1.70136 0.34254 2.14074 0.000 0.843 0.000
v -1.69920 0.30240 2.10546 0.000 0.922 0.000
v -1.67922 0.28926 2.21364 0.000 0.922 0.000
v -1.68264 0.32688 2.25576 0.000 0.843 0.000
v -1.66770 0.19404 2.26854 0.000 0.922 0.000
v -1.66950 0.20268 2.33010 0.000 0.843 0.000
v -1.64988 0.00000 2.36970 0.000 0.882 0.000
v -1.64772 0.00000 2.45448 0.000 0.843 0.000
v -1.74870 -0.07164 1.20348 0.000 0.922 0.000
v -1.66950 -0.20268 2.33010 0.000 0.843 0.000
v -1.66770 -0.19404 2.26854 0.000 0.922 0.000
v -1.68264 -0.32688 2.25576 0.000 0.843 0.000
v -1.67922 -0.28926 2.21364 0.000 0.922 0.000
v -1.70136 -0.34254 2.14074 0.000 0.843 0.000
v -1.69920 -0.30240 2.10546 0.000 0.922 0.000
v -1.74870 -0.34560 2.00340 0.000 0.922 0.000
v -1.75464 -0.40572 2.03220 0.000 0.843 0.000
v -1.74870 -0.30492 1.81476 0.000 0.922 0.000
v -1.75464 -0.34974 1.81476 0.000 0.843 0.000
v -1.74870 -0.25884 1.59804 0.000 0.922 0.000
v -1.75464 -0.30294 1.59804 0.000 0.843 0.000
v -1.74870 -0.22986 1.50462 0.000 0.922 0.000
v -1.75464 -0.28026 1.50462 0.000 0.843 0.000
v -1.75464 -0.21960 1.37160 0.000 0.843 0.000
v -1.74870 -0.17082 1.37736 0.000 0.922 0.000
v -1.75464 -0.11430 1.19466 0.000 0.843 0.000
v -1.64232 0.16056 2.44674 0.000 0.804 0.000
v -1.55358 0.06390 2.25180 0.000 0.804 0.000
v -1.57176 0.09216 2.26692 0.000 0.851 0.000
v -1.53324 0.00000 2.26656 0.000 0.765 0.000
v -1.61352 0.08226 2.47050 0.000 0.804 0.000
v -1.57986 0.00000 2.58264 0.000 0.765 0.000
v -1.61352 -0.08226 2.47050 0.000 0.804 0.000
v -1.64232 -0.16056 2.44674 0.000 0.804 0.000
v -1.55358 -0.06390 2.25180 0.000 0.804 0.000
v -1.57176 -0.09216 2.26692 0.000 0.851 0.000
vt 0.25781 0.80469
vt 0.13281 0.67969
vt 0.25781 0.67969
vt 0.25781 0.67969
vt 0.25781 0.67969
vt 0.13281 0.67969
vt 0.25781 0.80469
vt 0.25781 0.67969
vt 0.25781 0.67969
vt 0.13281 0.67969
vt 0.25781 0.80469
vt 0.25781 0.67969
vt 0.19531 0.74219
vt 0.19531 0.67969
vt 0.25781 0.67969
vt 0.13281 0.67969
vt 0.25781 0.74219
vt 0.25781 0.80469
vt 0.19531 0.67969
vt 0.25781 0.67969
vt 0.25781 0.74219
vt 0.00781 0.14844
vt 0.03906 0.14844
vt 0.00781 0.21094
vt 0.05469 0.14844
vt 0.08594 0.17969
vt 0.08594 0.14844
vt 0.10156 0.21094
vt 0.00781 0.35156
vt 0.08594 0.35156
vt 0.24219 0.35156
vt 0.21094 0.27344
vt 0.16406 0.21094
vt 0.25781 0.27344
vt 0.13281 0.17969
vt 0.16406 0.19531
vt 0.16406 0.17969
vt 0.19531 0.19531
vt 0.11719 0.17969
vt 0.19531 0.21094
vt 0.22656 0.24219
vt 0.22656 0.21094
vt 0.24219 0.24219
vt 0.24219 0.25781
vt 0.25781 0.25781
vt 0.27344 0.25781
vt 0.33594 0.27344
vt 0.28906 0.24219
vt 0.30469 0.24219
vt 0.32031 0.24219
vt 0.27344 0.24219
vt 0.41406 0.35156
vt 0.39844 0.28906
vt 0.36719 0.25781
vt 0.38281 0.25781
vt 0.39844 0.25781
vt 0.35156 0.24219
vt 0.36719 0.24219
vt 0.33594 0.24219
vt 0.41406 0.30469
vt 0.42969 0.30469
vt 0.42969 0.33594
vt 0.42969 0.35156
vt 0.41406 0.28906
vt 0.42969 0.33594
vt 0.42969 0.30469
vt 0.41406 0.30469
vt 0.39844 0.28906
vt 0.33594 0.27344
vt 0.36719 0.25781
vt 0.38281 0.25781
vt 0.39844 0.25781
vt 0.35156 0.24219
vt 0.36719 0.24219
vt 0.33594 0.24219
vt 0.41406 0.28906
vt 0.25781 0.27344
vt 0.21094 0.27344
vt 0.10156 0.21094
vt 0.16406 0.21094
vt 0.00781 0.21094
vt 0.13281 0.17969
vt 0.16406 0.19531
vt 0.16406 0.17969
vt 0.19531 0.19531
vt 0.11719 0.17969
vt 0.08594 0.17969
vt 0.05469 0.14844
vt 0.03906 0.14844
vt 0.00781 0.14844
vt 0.08594 0.14844
vt 0.19531 0.21094
vt 0.22656 0.24219
vt 0.22656 0.21094
vt 0.24219 0.24219
vt 0.24219 0.25781
vt 0.25781 0.25781
vt 0.27344 0.25781
vt 0.28906 0.24219
vt 0.30469 0.24219
vt 0.32031 0.24219
vt 0.27344 0.24219
vt 0.50781 0.64844
vt 0.58594 0.66406
vt 0.50781 0.66406
vt 0.58594 0.64844
vt 0.39844 0.64844
vt 0.39844 0.66406
vt 0.33594 0.64844
vt 0.33594 0.66406
vt 0.27344 0.64844
vt 0.27344 0.66406
vt 0.22656 0.64844
vt 0.22656 0.66406
vt 0.13281 0.66406
vt 0.13281 0.64844
vt 0.07031 0.64844
vt 0.07031 0.66406
vt 0.00781 0.64844
vt 0.00781 0.66406
vt 0.50781 0.64844
vt 0.50781 0.66406
vt 0.39844 0.64844
vt 0.39844 0.66406
vt 0.33594 0.64844
vt 0.33594 0.66406
vt 0.27344 0.64844
vt 0.27344 0.66406
vt 0.22656 0.64844
vt 0.22656 0.66406
vt 0.13281 0.66406
vt 0.13281 0.64844
vt 0.07031 0.64844
vt 0.07031 0.66406
vt 0.00781 0.64844
vt 0.00781 0.66406
vt 0.07031 0.63281
vt 0.13281 0.63281
vt 0.08594 0.57031
vt 0.00781 0.57031
vt 0.00781 0.63281
vt 0.22656 0.57031
vt 0.22656 0.63281
vt 0.27344 0.63281
vt 0.28906 0.57031
vt 0.33594 0.63281
vt 0.33594 0.57031
vt 0.41406 0.57031
vt 0.39844 0.63281
vt 0.50781 0.63281
vt 0.50781 0.60156
vt 0.58594 0.63281
vt 0.50781 0.63281
vt 0.41406 0.57031
vt 0.39844 0.63281
vt 0.33594 0.63281
vt 0.33594 0.57031
vt 0.28906 0.57031
vt 0.27344 0.63281
vt 0.22656 0.57031
vt 0.22656 0.63281
vt 0.13281 0.63281
vt 0.08594 0.57031
vt 0.07031 0.63281
vt 0.00781 0.57031
vt 0.00781 0.63281
vt 0.99219 0.86719
vt 0.99219 0.89844
vt 0.85156 0.82031
vt 0.99219 0.92969
vt 0.99219 0.83594
vt 0.99219 0.80469
vt 0.85156 0.74219
vt 0.99219 0.74219
vt 0.94531 0.61719
vt 0.99219 0.61719
vt 0.85156 0.57031
vt 0.94531 0.57031
vt 0.99219 0.89844
vt 0.99219 0.86719
vt 0.99219 0.83594
vt 0.99219 0.80469
vt 0.85156 0.74219
vt 0.99219 0.74219
vt 0.94531 0.61719
vt 0.99219 0.61719
vt 0.85156 0.57031
vt 0.94531 0.57031
vt 0.55469 0.35156
vt 0.46094 0.57031
vt 0.46094 0.35156
vt 0.55469 0.55469
vt 0.55469 0.60156
vt 0.55469 0.35156
vt 0.55469 0.55469
vt 0.39844 0.05469
vt 0.25781 0.00781
vt 0.39844 0.00781
vt 0.27344 0.05469
vt 0.14844 0.05469
vt 0.14844 0.00781
vt 0.00781 0.05469
vt 0.50781 0.00781
vt 0.50781 0.05469
vt 0.66406 0.00781
vt 0.66406 0.05469
vt 0.99219 0.00781
vt 0.91406 0.05469
vt 0.91406 0.08594
vt 0.99219 0.11719
vt 0.91406 0.11719
vt 0.91406 0.17969
vt 0.99219 0.17969
vt 0.99219 0.25781
vt 0.91406 0.25781
vt 0.99219 0.35031
vt 0.91406 0.35031
vt 0.91406 0.25781
vt 0.99219 0.25781
vt 0.91406 0.17969
vt 0.99219 0.17969
vt 0.99219 0.11719
vt 0.91406 0.11719
vt 0.91406 0.08594
vt 0.99219 0.00781
vt 0.91406 0.05469
vt 0.66406 0.05469
vt 0.66406 0.00781
vt 0.50781 0.05469
vt 0.50781 0.00781
vt 0.39844 0.05469
vt 0.39844 0.00781
vt 0.25781 0.00781
vt 0.27344 0.05469
vt 0.14844 0.05469
vt 0.14844 0.00781
vt 0.00781 0.00781
vt 0.00781 0.05469
vt 0.00781 0.86719
vt 0.19531 0.82031
vt 0.00781 0.92969
vt 0.00781 0.99219
vt 0.25781 0.99219
vt 0.46094 0.82031
vt 0.44531 0.99219
vt 0.55469 0.99219
vt 0.77344 0.78906
vt 0.08594 0.77344
vt 0.00781 0.82031
vt 0.08594 0.75781
vt 0.00781 0.74219
vt 0.08594 0.67969
vt 0.00781 0.67969
vt 0.00781 0.74219
vt 0.08594 0.75781
vt 0.00781 0.82031
vt 0.08594 0.77344
vt 0.00781 0.86719
vt 0.19531 0.82031
vt 0.00781 0.92969
vt 0.00781 0.99219
vt 0.25781 0.99219
vt 0.46094 0.82031
vt 0.44531 0.99219
vt 0.55469 0.99219
vt 0.77344 0.78906
vt 0.69531 0.99219
vt 0.77344 0.78906
vt 0.88281 0.99219
vt 0.88281 0.86719
vt 0.99219 0.99219
vt 0.88281 0.99219
vt 0.77344 0.78906
vt 0.69531 0.99219
vt 0.25781 0.80469
vt 0.13281 0.67969
vt 0.25781 0.67969
vt 0.25781 0.67969
vt 0.25781 0.80469
vt 0.13281 0.67969
vt 0.25781 0.67969
vt 0.25781 0.67969
vt 0.11719 0.77344
vt 0.11719 0.67969
vt 0.21094 0.77344
vt 0.11719 0.77344
vt 0.11719 0.77344
vt 0.11719 0.67969
vt 0.21094 0.77344
vt 0.11719 0.77344
vt 0.38281 0.13281
vt 0.27344 0.07031
vt 0.27344 0.13281
vt 0.27344 0.16406
vt 0.38281 0.16406
vt 0.27344 0.13281
vt 0.27344 0.16406
vt 0.38281 0.13281
vt 0.27344 0.13281
vt 0.27344 0.13281
vt 0.38281 0.07031
vt 0.27344 0.07031
vt 0.10156 0.13281
vt 0.10156 0.16406
vt 0.10156 0.13281
vt 0.10156 0.13281
vt 0.10156 0.16406
vt 0.10156 0.13281
vt 0.10156 0.07031
vt 0.10156 0.07031
vt 0.10156 0.07031
vt 0.00781 0.13281
vt 0.10156 0.13281
vt 0.00781 0.07031
vt 0.00781 0.13281
vt 0.10156 0.13281
vt 0.00781 0.07031
vt 0.10156 0.07031
vt 0.00781 0.13281
vt 0.10156 0.13281
vt 0.00781 0.13281
vt 0.10156 0.13281
vt 0.21094 0.77344
vt 0.11719 0.67969
vt 0.11719 0.77344
vt 0.11719 0.77344
vt 0.21094 0.77344
vt 0.11719 0.67969
vt 0.11719 0.77344
vt 0.11719 0.77344
vt 0.57031 0.42969
vt 0.66406 0.42969
vt 0.66406 0.35156
vt 0.57031 0.35156
vt 0.66406 0.35156
vt 0.57031 0.35156
vt 0.57031 0.42969
vt 0.57031 0.35156
vt 0.66406 0.35156
vt 0.66406 0.42969
vt 0.66406 0.35156
vt 0.57031 0.35156
vt 0.89844 0.33594
vt 0.69531 0.33594
vt 0.89844 0.30469
vt 0.69531 0.30469
vt 0.69531 0.33594
vt 0.69531 0.30469
vt 0.44531 0.33594
vt 0.44531 0.30469
vt 0.44531 0.33594
vt 0.44531 0.30469
vt 0.89844 0.30469
vt 0.69531 0.30469
vt 0.69531 0.33594
vt 0.89844 0.33594
vt 0.69531 0.33594
vt 0.69531 0.30469
vt 0.44531 0.33594
vt 0.44531 0.30469
vt 0.44531 0.33594
vt 0.44531 0.30469
vt 0.89844 0.28906
vt 0.74219 0.28906
vt 0.89844 0.24219
vt 0.74219 0.24219
vt 0.44531 0.28906
vt 0.44531 0.24219
vt 0.74219 0.28906
vt 0.74219 0.24219
vt 0.44531 0.24219
vt 0.44531 0.28906
vt 0.74219 0.28906
vt 0.89844 0.28906
vt 0.44531 0.28906
vt 0.74219 0.28906
vt 0.44531 0.28906
vt 0.73719 0.22656
vt 0.89844 0.22656
vt 0.73656 0.19531
vt 0.81094 0.19531
vt 0.81094 0.22656
vt 0.58594 0.19531
vt 0.58594 0.22656
vt 0.41531 0.22656
vt 0.41406 0.19531
vt 0.24219 0.22656
vt 0.24219 0.19531
vt 0.89844 0.19531
vt 0.41406 0.19531
vt 0.41531 0.22656
vt 0.58594 0.19531
vt 0.58594 0.22656
vt 0.81094 0.22656
vt 0.81094 0.19531
vt 0.73719 0.22656
vt 0.73656 0.19531
vt 0.89844 0.22656
vt 0.89844 0.19531
vt 0.39844 0.14844
vt 0.50781 0.14844
vt 0.39844 0.17969
vt 0.50781 0.17969
vt 0.66406 0.14844
vt 0.66406 0.17969
vt 0.75781 0.14844
vt 0.75781 0.17969
vt 0.82031 0.14844
vt 0.82031 0.17969
vt 0.89844 0.17969
vt 0.50781 0.14844
vt 0.50781 0.17969
vt 0.66406 0.14844
vt 0.66406 0.17969
vt 0.75781 0.14844
vt 0.75781 0.17969
vt 0.82031 0.14844
vt 0.82031 0.17969
vt 0.89844 0.17969
vt 0.89844 0.14844
vt 0.89844 0.17969
vt 0.89844 0.17969
vt 0.89844 0.14844
vt 0.89844 0.38281
vt 0.83594 0.38281
vt 0.89844 0.35156
vt 0.83594 0.35156
vt 0.00781 0.36719
vt 0.10156 0.36719
vt 0.13281 0.55469
vt 0.00781 0.55469
vt 0.25781 0.36719
vt 0.24219 0.55469
vt 0.35156 0.55469
vt 0.32031 0.36719
vt 0.35156 0.55469
vt 0.35156 0.36719
vt 0.44531 0.36719
vt 0.44531 0.55469
vt 0.13281 0.55469
vt 0.10156 0.36719
vt 0.25781 0.36719
vt 0.24219 0.55469
vt 0.35156 0.55469
vt 0.32031 0.36719
vt 0.35156 0.55469
vt 0.35156 0.36719
vt 0.44531 0.36719
vt 0.44531 0.55469
vt 0.03906 0.55469
vt 0.10156 0.36719
vt 0.03906 0.36719
vt 0.13281 0.55469
vt 0.25781 0.36719
vt 0.24219 0.55469
vt 0.35156 0.55469
vt 0.32031 0.36719
vt 0.35156 0.55469
vt 0.35156 0.36719
vt 0.44531 0.36719
vt 0.44531 0.55469
vt 0.10156 0.36719
vt 0.13281 0.55469
vt 0.25781 0.36719
vt 0.24219 0.55469
vt 0.35156 0.55469
vt 0.32031 0.36719
vt 0.35156 0.55469
vt 0.35156 0.36719
vt 0.44531 0.36719
vt 0.44531 0.55469
vt 0.11719 0.36719
vt 0.05469 0.36719
vt 0.11719 0.55469
vt 0.05469 0.55469
vt 0.24219 0.36719
vt 0.22656 0.55469
vt 0.28906 0.55469
vt 0.36719 0.36719
vt 0.44531 0.36719
vt 0.36719 0.55469
vt 0.44531 0.55469
vt 0.11719 0.55469
vt 0.11719 0.36719
vt 0.24219 0.36719
vt 0.22656 0.55469
vt 0.28906 0.55469
vt 0.36719 0.36719
vt 0.44531 0.36719
vt 0.36719 0.55469
vt 0.44531 0.55469
vt 0.11719 0.55469
vt 0.00781 0.36719
vt 0.11719 0.36719
vt 0.00781 0.55469
vt 0.24219 0.36719
vt 0.22656 0.55469
vt 0.28906 0.55469
vt 0.36719 0.36719
vt 0.44531 0.36719
vt 0.36719 0.55469
vt 0.44531 0.55469
vt 0.11719 0.55469
vt 0.11719 0.36719
vt 0.24219 0.36719
vt 0.22656 0.55469
vt 0.28906 0.55469
vt 0.36719 0.36719
vt 0.44531 0.36719
vt 0.36719 0.55469
vt 0.44531 0.55469
vt 0.46094 0.19531
vt 0.24219 0.22656
vt 0.46281 0.22656
vt 0.24219 0.19531
vt 0.57156 0.22656
vt 0.57031 0.19531
vt 0.68031 0.22656
vt 0.67969 0.19531
vt 0.80469 0.19531
vt 0.80469 0.22656
vt 0.89844 0.19531
vt 0.89844 0.22656
vt 0.46094 0.19531
vt 0.46281 0.22656
vt 0.57156 0.22656
vt 0.57031 0.19531
vt 0.68031 0.22656
vt 0.67969 0.19531
vt 0.80469 0.19531
vt 0.80469 0.22656
vt 0.89844 0.19531
vt 0.89844 0.22656
vt 0.52344 0.14844
vt 0.39844 0.17969
vt 0.39844 0.14844
vt 0.52344 0.17969
vt 0.60156 0.17969
vt 0.60156 0.14844
vt 0.71094 0.17969
vt 0.71094 0.14844
vt 0.89844 0.14844
vt 0.89844 0.17969
vt 0.52344 0.14844
vt 0.52344 0.17969
vt 0.60156 0.17969
vt 0.60156 0.14844
vt 0.71094 0.17969
vt 0.71094 0.14844
vt 0.89844 0.14844
vt 0.89844 0.17969
vt 0.82031 0.38281
vt 0.67969 0.35156
vt 0.82031 0.35156
vt 0.67969 0.38281
vt 0.89844 0.35156
vt 0.83594 0.38281
vt 0.89844 0.38281
vt 0.83594 0.35156
vt 0.82031 0.35156
vt 0.67969 0.35156
vt 0.82031 0.38281
vt 0.67969 0.38281
vt 0.60156 0.63281
vt 0.74219 0.61719
vt 0.74219 0.57031
vt 0.74219 0.50781
vt 0.67969 0.69531
vt 0.74219 0.61719
vt 0.74219 0.57031
vt 0.74219 0.50781
vt 0.74219 0.49219
vt 0.89844 0.39844
vt 0.67969 0.39844
vt 0.67969 0.44531
vt 0.67969 0.49219
vt 0.64844 0.44531
vt 0.61719 0.57031
vt 0.57031 0.50781
vt 0.57031 0.44531
vt 0.57031 0.57031
vt 0.67969 0.39844
vt 0.67969 0.44531
vt 0.64844 0.44531
vt 0.57031 0.50781
vt 0.57031 0.44531
vt 0.57031 0.57031
vt 0.69531 0.77344
vt 0.63281 0.77344
vt 0.64844 0.71094
vt 0.71094 0.71094
vt 0.75781 0.71094
vt 0.83594 0.77344
vt 0.75781 0.66406
vt 0.57031 0.71094
vt 0.57031 0.74219
vt 0.57031 0.77344
vt 0.75781 0.53906
vt 0.75781 0.66406
vt 0.75781 0.71094
vt 0.69531 0.77344
vt 0.71094 0.71094
vt 0.64844 0.71094
vt 0.63281 0.77344
vt 0.57031 0.71094
vt 0.57031 0.74219
vt 0.57031 0.77344
vt 0.50781 0.67969
vt 0.55469 0.67969
vt 0.55469 0.78906
vt 0.28906 0.78906
vt 0.33594 0.67969
vt 0.50781 0.67969
vt 0.55469 0.78906
vt 0.55469 0.67969
vt 0.55469 0.78906
vt 0.49219 0.67969
vt 0.55469 0.67969
vt 0.27344 0.78906
vt 0.27344 0.67969
vt 0.49219 0.67969
vt 0.55469 0.78906
vt 0.55469 0.67969
vt 0.55469 0.78906
vt 0.27344 0.71094
vt 0.53906 0.71094
vt 0.55469 0.67969
vt 0.55469 0.78906
vt 0.53906 0.71094
vt 0.55469 0.13281
vt 0.64844 0.13281
vt 0.55469 0.07031
vt 0.66406 0.07031
vt 0.74219 0.07031
vt 0.74219 0.13281
vt 0.88281 0.13281
vt 0.88281 0.07031
vt 0.49219 0.13281
vt 0.49219 0.07031
vt 0.39844 0.13281
vt 0.39844 0.07031
vt 0.53906 0.13281
vt 0.53906 0.07031
vt 0.63281 0.13281
vt 0.61719 0.07031
vt 0.67969 0.07031
vt 0.67969 0.13281
vt 0.78906 0.07031
vt 0.74219 0.13281
vt 0.89844 0.07031
vt 0.89844 0.13281
vt 0.74219 0.07031
vt 0.74219 0.13281
vt 0.78906 0.07031
vt 0.67969 0.13281
vt 0.67969 0.07031
vt 0.63281 0.13281
vt 0.61719 0.07031
vt 0.53906 0.07031
vt 0.53906 0.13281
vt 0.39844 0.07031
vt 0.39844 0.13281
vt 0.49219 0.07031
vt 0.49219 0.13281
vt 0.55469 0.07031
vt 0.55469 0.13281
vt 0.64844 0.13281
vt 0.66406 0.07031
vt 0.74219 0.13281
vt 0.99219 0.55469
vt 0.80469 0.52344
vt 0.80469 0.55469
vt 0.80469 0.47656
vt 0.99219 0.47656
vt 0.99219 0.38281
vt 0.99219 0.47656
vt 0.99219 0.55469
vt 0.80469 0.52344
vt 0.80469 0.55469
usemtl m0
f 1/1 2/2 3/3
f 4/4 2/2 1/1
f 5/5 6/6 7/7
f 7/7 6/6 8/8
f 9/9 10/10 11/11
f 11/11 10/10 12/12
f 13/13 14/14 15/15
f 13/13 16/16 14/14
f 17/17 13/13 15/15
f 18/18 13/13 17/17
f 19/19 16/16 13/13
f 20/20 19/19 13/13
f 21/21 13/13 18/18
f 20/20 13/13 21/21
f 22/22 23/23 24/24
f 24/24 23/23 25/25
f 25/25 26/26 24/24
f 27/27 26/26 25/25
f 26/26 28/28 24/24
f 24/24 28/28 29/29
f 29/29 28/28 30/30
f 28/28 31/31 30/30
f 28/28 32/32 31/31
f 33/33 32/32 28/28
f 32/32 34/34 31/31
f 35/35 33/33 28/28
f 36/36 33/33 35/35
f 37/37 36/36 35/35
f 36/36 38/38 33/33
f 39/39 35/35 28/28
f 26/26 39/39 28/28
f 33/33 38/38 40/40
f 40/40 41/41 33/33
f 41/41 32/32 33/33
f 40/40 42/42 41/41
f 41/41 43/43 32/32
f 43/43 44/44 32/32
f 44/44 34/34 32/32
f 45/45 34/34 44/44
f 45/45 46/46 34/34
f 34/34 47/47 31/31
f 48/48 47/47 34/34
f 46/46 48/48 34/34
f 49/49 47/47 48/48
f 50/50 47/47 49/49
f 51/51 48/48 46/46
f 47/47 52/52 31/31
f 53/53 52/52 47/47
f 54/54 53/53 47/47
f 55/55 53/53 54/54
f 55/55 56/56 53/53
f 57/57 54/54 47/47
f 58/58 54/54 57/57
f 59/59 57/57 47/47
f 50/50 59/59 47/47
f 60/60 52/52 53/53
f 60/60 61/61 52/52
f 61/61 62/62 52/52
f 62/62 63/63 52/52
f 64/64 60/60 53/53
f 52/52 63/63 65/65
f 52/52 65/65 66/66
f 52/52 66/66 67/67
f 68/68 52/52 67/67
f 69/69 52/52 68/68
f 69/69 68/68 70/70
f 70/70 68/68 71/71
f 68/68 72/72 71/71
f 69/69 70/70 73/73
f 73/73 70/70 74/74
f 69/69 73/73 75/75
f 68/68 67/67 76/76
f 31/31 52/52 69/69
f 31/31 69/69 77/77
f 31/31 77/77 78/78
f 31/31 78/78 79/79
f 79/79 78/78 80/80
f 30/30 31/31 79/79
f 30/30 79/79 29/29
f 29/29 79/79 81/81
f 79/79 80/80 82/82
f 82/82 80/80 83/83
f 82/82 83/83 84/84
f 80/80 85/85 83/83
f 79/79 82/82 86/86
f 79/79 86/86 87/87
f 81/81 79/79 87/87
f 81/81 87/87 88/88
f 88/88 89/89 81/81
f 81/81 89/89 90/90
f 88/88 87/87 91/91
f 92/92 85/85 80/80
f 80/80 93/93 92/92
f 93/93 94/94 92/92
f 80/80 78/78 93/93
f 78/78 95/95 93/93
f 78/78 96/96 95/95
f 78/78 77/77 96/96
f 96/96 77/77 97/97
f 77/77 98/98 97/97
f 77/77 99/99 98/98
f 77/77 69/69 99/99
f 99/99 69/69 100/100
f 100/100 69/69 101/101
f 98/98 99/99 102/102
f 69/69 75/75 101/101
f 103/103 104/104 105/105
f 106/106 104/104 103/103
f 103/103 105/105 107/107
f 107/107 105/105 108/108
f 109/109 107/107 108/108
f 109/109 108/108 110/110
f 111/111 109/109 110/110
f 111/111 110/110 112/112
f 113/113 111/111 112/112
f 113/113 112/112 114/114
f 113/113 114/114 115/115
f 116/116 113/113 115/115
f 117/117 116/116 115/115
f 117/117 115/115 118/118
f 119/119 117/117 118/118
f 119/119 118/118 120/120
f 121/121 104/104 106/106
f 122/122 104/104 121/121
f 123/123 122/122 121/121
f 124/124 122/122 123/123
f 124/124 123/123 125/125
f 126/126 124/124 125/125
f 126/126 125/125 127/127
f 128/128 126/126 127/127
f 128/128 127/127 129/129
f 130/130 128/128 129/129
f 131/131 130/130 129/129
f 131/131 129/129 132/132
f 131/131 132/132 133/133
f 134/134 131/131 133/133
f 134/134 133/133 135/135
f 136/136 134/134 135/135
f 137/137 138/138 139/139
f 140/140 137/137 139/139
f 141/141 137/137 140/140
f 138/138 142/142 139/139
f 138/138 143/143 142/142
f 143/143 144/144 142/142
f 142/142 144/144 145/145
f 144/144 146/146 145/145
f 145/145 146/146 147/147
f 146/146 148/148 147/147
f 146/146 149/149 148/148
f 149/149 150/150 148/148
f 150/150 151/151 148/148
f 150/150 152/152 151/151
f 151/151 152/152 153/153
f 154/154 151/151 153/153
f 154/154 153/153 155/155
f 154/154 155/155 156/156
f 157/157 154/154 156/156
f 157/157 156/156 158/158
f 158/158 156/156 159/159
f 158/158 159/159 160/160
f 160/160 159/159 161/161
f 160/160 161/161 162/162
f 163/163 160/160 162/162
f 163/163 162/162 164/164
f 163/163 164/164 165/165
f 165/165 164/164 166/166
f 167/167 168/168 169/169
f 168/168 170/170 169/169
f 167/167 169/169 171/171
f 169/169 172/172 171/171
f 172/172 169/169 173/173
f 174/174 172/172 173/173
f 174/174 173/173 175/175
f 176/176 174/174 175/175
f 175/175 173/173 177/177
f 178/178 175/175 177/177
f 169/169 170/170 179/179
f 169/169 179/179 180/180
f 181/181 169/169 180/180
f 181/181 182/182 169/169
f 183/183 169/169 182/182
f 183/183 182/182 184/184
f 185/185 183/183 184/184
f 185/185 184/184 186/186
f 187/187 183/183 185/185
f 187/187 185/185 188/188
f 189/189 190/190 191/191
f 192/192 190/190 189/189
f 192/192 193/193 190/190
f 191/191 190/190 194/194
f 194/194 190/190 195/195
f 190/190 193/193 195/195
f 196/196 197/197 198/198
f 199/199 197/197 196/196
f 199/199 200/200 197/197
f 200/200 201/201 197/197
f 200/200 202/202 201/201
f 196/196 198/198 203/203
f 204/204 196/196 203/203
f 205/205 204/204 203/203
f 206/206 204/204 205/205
f 207/207 206/206 205/205
f 208/208 206/206 207/207
f 209/209 208/208 207/207
f 209/209 207/207 210/210
f 211/211 209/209 210/210
f 212/212 211/211 210/210
f 212/212 210/210 213/213
f 214/214 212/212 213/213
f 215/215 212/212 214/214
f 216/216 215/215 214/214
f 217/217 215/215 216/216
f 216/216 218/218 217/217
f 219/219 218/218 216/216
f 219/219 220/220 218/218
f 221/221 220/220 219/219
f 221/221 222/222 220/220
f 222/222 223/223 220/220
f 222/222 224/224 223/223
f 222/222 225/225 224/224
f 225/225 226/226 224/224
f 225/225 227/227 226/226
f 228/228 227/227 225/225
f 228/228 229/229 227/227
f 230/230 229/229 228/228
f 230/230 231/231 229/229
f 230/230 232/232 231/231
f 232/232 233/233 231/231
f 231/231 233/233 234/234
f 233/233 235/235 234/234
f 233/233 236/236 235/235
f 236/236 202/202 235/235
f 236/236 237/237 238/238
f 238/238 237/237 201/201
f 239/239 240/240 241/241
f 241/241 240/240 242/242
f 240/240 243/243 242/242
f 240/240 244/244 243/243
f 244/244 245/245 243/243
f 244/244 246/246 245/245
f 244/244 247/247 246/246
f 248/248 240/240 239/239
f 248/248 239/239 249/249
f 250/250 248/248 249/249
f 251/251 250/250 249/249
f 252/252 250/250 251/251
f 253/253 252/252 251/251
f 254/254 252/252 253/253
f 254/254 255/255 252/252
f 256/256 255/255 254/254
f 256/256 257/257 255/255
f 256/256 258/258 257/257
f 258/258 259/259 257/257
f 260/260 259/259 258/258
f 261/261 259/259 260/260
f 261/261 262/262 259/259
f 262/262 263/263 259/259
f 262/262 264/264 263/263
f 264/264 265/265 263/263
f 265/265 266/266 263/263
f 267/267 268/268 265/265
f 267/267 269/269 268/268
f 269/269 270/270 268/268
f 269/269 271/271 270/270
f 270/270 271/271 272/272
f 273/273 270/270 272/272
f 273/273 272/272 274/274
f 246/246 273/273 274/274
f 275/275 276/276 277/277
f 278/278 276/276 275/275
f 279/279 280/280 281/281
f 282/282 280/280 279/279
f 283/283 284/284 285/285
f 285/285 284/284 286/286
f 287/287 288/288 289/289
f 289/289 288/288 290/290
f 291/291 292/292 293/293
f 291/291 293/293 294/294
f 291/291 294/294 295/295
f 291/291 295/295 296/296
f 296/296 295/295 297/297
f 295/295 294/294 298/298
f 299/299 292/292 298/298
f 294/294 299/299 298/298
f 297/297 295/295 300/300
f 295/295 298/298 300/300
f 296/296 301/301 291/291
f 301/301 292/292 291/291
f 298/298 292/292 301/301
f 300/300 298/298 301/301
f 302/302 301/301 296/296
f 300/300 301/301 302/302
f 293/293 303/303 294/294
f 294/294 303/303 304/304
f 294/294 305/305 299/299
f 304/304 305/305 294/294
f 296/296 297/297 306/306
f 306/306 297/297 307/307
f 308/308 297/297 300/300
f 307/307 297/297 308/308
f 293/293 309/309 303/303
f 305/305 309/309 299/299
f 310/310 296/296 306/306
f 302/302 296/296 310/310
f 310/310 300/300 302/302
f 308/308 300/300 310/310
f 299/299 309/309 292/292
f 292/292 309/309 293/293
f 311/311 312/312 313/313
f 311/311 314/314 312/312
f 315/315 314/314 311/311
f 316/316 315/315 311/311
f 317/317 318/318 319/319
f 318/318 320/320 319/319
f 321/321 318/318 317/317
f 321/321 322/322 318/318
f 323/323 324/324 325/325
f 326/326 324/324 323/323
f 327/327 328/328 329/329
f 330/330 328/328 327/327
f 331/331 332/332 333/333
f 331/331 333/333 334/334
f 335/335 332/332 331/331
f 336/336 335/335 331/331
f 337/337 338/338 339/339
f 340/340 337/337 339/339
f 341/341 337/337 340/340
f 341/341 342/342 337/337
f 343/343 344/344 345/345
f 344/344 346/346 345/345
f 347/347 343/343 345/345
f 347/347 345/345 348/348
f 344/344 349/349 346/346
f 349/349 350/350 346/346
f 351/351 347/347 348/348
f 351/351 348/348 352/352
f 353/353 354/354 355/355
f 353/353 355/355 356/356
f 353/353 356/356 357/357
f 358/358 353/353 357/357
f 354/354 359/359 355/355
f 354/354 360/360 359/359
f 358/358 357/357 361/361
f 362/362 358/358 361/361
f 363/363 364/364 365/365
f 364/364 366/366 365/365
f 364/364 367/367 366/366
f 367/367 368/368 366/366
f 369/369 363/363 365/365
f 369/369 365/365 370/370
f 371/371 369/369 370/370
f 372/372 369/369 371/371
f 365/365 366/366 373/373
f 365/365 373/373 374/374
f 366/366 375/375 373/373
f 366/366 368/368 375/375
f 365/365 374/374 376/376
f 370/370 376/376 371/371
f 370/370 365/365 376/376
f 371/371 376/376 377/377
f 378/378 379/379 380/380
f 381/381 378/378 380/380
f 382/382 378/378 381/381
f 382/382 381/381 383/383
f 384/384 382/382 383/383
f 385/385 384/384 383/383
f 385/385 383/383 386/386
f 387/387 385/385 386/386
f 387/387 386/386 388/388
f 379/379 389/389 380/380
f 388/388 390/390 387/387
f 390/390 391/391 387/387
f 390/390 392/392 391/391
f 392/392 393/393 391/391
f 392/392 394/394 393/393
f 392/392 395/395 394/394
f 395/395 396/396 394/394
f 397/397 396/396 395/395
f 397/397 398/398 396/396
f 397/397 399/399 398/398
f 400/400 401/401 402/402
f 402/402 401/401 403/403
f 401/401 404/404 403/403
f 403/403 404/404 405/405
f 404/404 406/406 405/405
f 406/406 407/407 405/405
f 406/406 408/408 407/407
f 408/408 409/409 407/407
f 408/408 410/410 409/409
f 402/402 411/411 400/400
f 412/412 411/411 402/402
f 412/412 413/413 411/411
f 414/414 413/413 412/412
f 414/414 415/415 413/413
f 414/414 416/416 415/415
f 416/416 417/417 415/415
f 416/416 418/418 417/417
f 418/418 419/419 417/417
f 408/408 420/420 421/421
f 422/422 423/423 417/417
f 424/424 425/425 426/426
f 425/425 427/427 426/426
f 428/428 429/429 430/430
f 431/431 428/428 430/430
f 429/429 432/432 430/430
f 430/430 432/432 433/433
f 432/432 434/434 433/433
f 432/432 435/435 434/434
f 435/435 436/436 434/434
f 435/435 437/437 436/436
f 437/437 438/438 436/436
f 436/436 438/438 439/439
f 440/440 428/428 431/431
f 440/440 441/441 428/428
f 440/440 442/442 441/441
f 443/443 442/442 440/440
f 443/443 444/444 442/442
f 444/444 445/445 442/442
f 444/444 446/446 445/445
f 446/446 447/447 445/445
f 446/446 448/448 447/447
f 449/449 448/448 446/446
f 450/450 451/451 452/452
f 453/453 451/451 450/450
f 453/453 454/454 451/451
f 455/455 454/454 453/453
f 455/455 456/456 454/454
f 456/456 457/457 454/454
f 456/456 458/458 457/457
f 458/458 459/459 457/457
f 458/458 460/460 459/459
f 461/461 460/460 458/458
f 452/452 462/462 450/450
f 450/450 462/462 463/463
f 462/462 464/464 463/463
f 463/463 464/464 465/465
f 464/464 466/466 465/465
f 464/464 467/467 466/466
f 467/467 468/468 466/466
f 467/467 469/469 468/468
f 469/469 470/470 468/468
f 468/468 470/470 471/471
f 472/472 473/473 474/474
f 474/474 473/473 475/475
f 476/476 472/472 474/474
f 476/476 474/474 477/477
f 478/478 476/476 477/477
f 479/479 476/476 478/478
f 479/479 478/478 480/480
f 480/480 478/478 481/481
f 480/480 481/481 482/482
f 475/475 473/473 483/483
f 483/483 473/473 484/484
f 483/483 484/484 485/485
f 486/486 483/483 485/485
f 486/486 485/485 487/487
f 487/487 485/485 488/488
f 489/489 487/487 488/488
f 490/490 487/487 489/489
f 491/491 490/490 489/489
f 492/492 493/493 494/494
f 495/495 493/493 492/492
f 492/492 494/494 496/496
f 497/497 492/492 496/496
f 497/497 496/496 498/498
f 498/498 496/496 499/499
f 500/500 498/498 499/499
f 501/501 498/498 500/500
f 502/502 501/501 500/500
f 503/503 493/493 495/495
f 504/504 493/493 503/503
f 505/505 504/504 503/503
f 505/505 503/503 506/506
f 507/507 505/505 506/506
f 508/508 505/505 507/507
f 508/508 507/507 509/509
f 509/509 507/507 510/510
f 509/509 510/510 511/511
f 512/512 513/513 514/514
f 515/515 513/513 512/512
f 512/512 514/514 516/516
f 517/517 512/512 516/516
f 518/518 517/517 516/516
f 519/519 517/517 518/518
f 520/520 519/519 518/518
f 520/520 518/518 521/521
f 522/522 520/520 521/521
f 522/522 521/521 523/523
f 524/524 513/513 515/515
f 525/525 513/513 524/524
f 526/526 525/525 524/524
f 526/526 524/524 527/527
f 526/526 527/527 528/528
f 528/528 527/527 529/529
f 528/528 529/529 530/530
f 531/531 528/528 530/530
f 531/531 530/530 532/532
f 533/533 531/531 532/532
f 534/534 535/535 536/536
f 537/537 535/535 534/534
f 538/538 537/537 534/534
f 538/538 534/534 539/539
f 538/538 539/539 540/540
f 540/540 539/539 541/541
f 540/540 541/541 542/542
f 543/543 540/540 542/542
f 536/536 535/535 544/544
f 544/544 535/535 545/545
f 544/544 545/545 546/546
f 547/547 544/544 546/546
f 548/548 547/547 546/546
f 549/549 547/547 548/548
f 550/550 549/549 548/548
f 550/550 548/548 551/551
f 552/552 553/553 554/554
f 555/555 553/553 552/552
f 556/556 557/557 558/558
f 556/556 559/559 557/557
f 560/560 561/561 562/562
f 562/562 561/561 563/563
f 564/564 565/565 566/566
f 564/564 566/566 567/567
f 564/564 568/568 565/565
f 569/569 568/568 564/564
f 570/570 569/569 564/564
f 571/571 570/570 564/564
f 572/572 573/573 574/574
f 575/575 572/572 574/574
f 576/576 572/572 575/575
f 576/576 575/575 577/577
f 578/578 576/576 577/577
f 578/578 577/577 579/579
f 579/579 577/577 580/580
f 578/578 579/579 581/581
f 582/582 573/573 572/572
f 582/582 572/572 583/583
f 583/583 572/572 576/576
f 584/584 583/583 576/576
f 584/584 576/576 578/578
f 585/585 584/584 578/578
f 586/586 584/584 585/585
f 587/587 585/585 578/578
f 588/588 589/589 590/590
f 591/591 588/588 590/590
f 592/592 588/588 591/591
f 593/593 588/588 592/592
f 594/594 593/593 592/592
f 590/590 589/589 595/595
f 595/595 589/589 596/596
f 589/589 597/597 596/596
f 598/598 593/593 594/594
f 599/599 593/593 598/598
f 600/600 593/593 599/599
f 600/600 601/601 593/593
f 602/602 601/601 600/600
f 603/603 601/601 602/602
f 603/603 604/604 601/601
f 605/605 604/604 603/603
f 606/606 604/604 605/605
f 606/606 607/607 604/604
f 608/608 609/609 610/610
f 611/611 608/608 610/610
f 611/611 612/612 608/608
f 613/613 612/612 611/611
f 614/614 613/613 611/611
f 614/614 615/615 613/613
f 616/616 617/617 618/618
f 619/619 617/617 616/616
f 620/620 617/617 619/619
f 619/619 621/621 620/620
f 622/622 621/621 619/619
f 623/623 621/621 622/622
f 624/624 625/625 619/619
f 624/624 626/626 625/625
f 624/624 627/627 626/626
f 619/619 625/625 628/628
f 629/629 623/623 628/628
f 625/625 629/629 628/628
f 630/630 631/631 632/632
f 632/632 631/631 633/633
f 631/631 634/634 633/633
f 631/631 635/635 634/634
f 635/635 636/636 634/634
f 634/634 636/636 637/637
f 630/630 632/632 638/638
f 638/638 632/632 639/639
f 638/638 639/639 640/640
f 640/640 639/639 641/641
f 640/640 641/641 642/642
f 642/642 641/641 643/643
f 642/642 643/643 644/644
f 644/644 643/643 645/645
f 644/644 645/645 646/646
f 647/647 644/644 646/646
f 647/647 646/646 648/648
f 649/649 647/647 648/648
f 649/649 648/648 650/650
f 651/651 649/649 650/650
f 637/637 636/636 652/652
f 650/650 653/653 651/651
f 650/650 654/654 653/653
f 654/654 655/655 653/653
f 654/654 656/656 655/655
f 656/656 657/657 655/655
f 656/656 658/658 657/657
f 658/658 659/659 657/657
f 657/657 659/659 660/660
f 659/659 661/661 660/660
f 660/660 661/661 662/662
f 661/661 663/663 662/662
f 662/662 663/663 664/664
f 663/663 665/665 664/664
f 664/664 665/665 666/666
f 665/665 667/667 666/666
f 668/668 667/667 665/665
f 668/668 652/652 667/667
f 652/652 669/669 667/667
f 652/652 636/636 669/669
f 670/670 671/671 672/672
f 673/673 671/671 670/670
f 673/673 670/670 674/674
f 675/675 673/673 674/674
f 676/676 673/673 675/675
f 676/676 677/677 673/673
f 677/677 678/678 673/673
f 679/679 678/678 677/677
