mtllib arms9103.mtl
o arms9103
v 1.47060 0.20677 3.98047 0.886 0.000 0.000
v 1.47960 0.20677 3.93053 0.898 0.000 0.000
v 1.46250 0.18000 3.99278 0.902 0.000 0.000
v 1.47600 0.18000 3.91822 0.925 0.000 0.000
v 1.47060 0.15323 3.98047 0.886 0.000 0.000
v 1.47960 0.15323 3.93053 0.898 0.000 0.000
v 0.22050 0.15323 3.98047 0.824 0.000 0.000
v 0.22050 0.15323 3.93053 0.863 0.000 0.000
v 0.22050 0.18000 3.99278 0.918 0.000 0.000
v 0.22050 0.18000 3.91822 0.918 0.000 0.000
v 0.22050 0.20677 3.98047 0.910 0.000 0.000
v 0.22050 0.20677 3.93053 0.918 0.000 0.000
v 1.84799 0.18000 3.93030 0.875 0.000 0.000
v 1.79305 0.18000 3.90035 0.925 0.000 0.000
v 1.82052 0.20070 3.91892 0.851 0.000 0.000
v 1.92053 0.18000 3.88397 0.969 0.000 0.000
v 1.82052 0.15930 3.91892 0.851 0.000 0.000
v 1.71659 0.14400 3.92801 0.878 0.000 0.000
v 1.71659 0.21600 3.92801 0.878 0.000 0.000
v 1.54350 0.18000 3.98970 0.933 0.000 0.000
v 1.55695 0.14213 3.93113 0.937 0.000 0.000
v 1.58711 0.18000 3.88359 0.890 0.000 0.000
v 1.55695 0.21787 3.93113 0.937 0.000 0.000
v 1.71481 0.18000 3.96355 0.867 0.000 0.000
v 1.68831 0.18000 3.87459 0.925 0.000 0.000
v 1.63895 0.18000 3.89538 0.902 0.000 0.000
v 1.50359 0.18000 3.99510 0.890 0.000 0.000
v 1.57428 0.18000 3.98308 0.886 0.000 0.000
v 1.55266 0.18000 3.89488 0.933 0.000 0.000
v 1.52176 0.18000 3.90829 0.902 0.000 0.000
v 1.54264 0.18000 3.88532 0.941 0.000 0.000
v 1.51465 0.18000 3.89543 0.957 0.000 0.000
v 1.51085 0.18000 4.02347 0.933 0.000 0.000
v 1.53727 0.18000 4.00961 0.957 0.000 0.000
v 1.58733 0.18000 4.05230 0.953 0.000 0.000
v 1.59660 0.18000 3.99330 0.922 0.000 0.000
v 1.68120 0.18000 3.97694 0.878 0.000 0.000
v 1.67742 0.18000 4.01733 0.925 0.000 0.000
v 1.81562 0.18000 3.93496 0.859 0.000 0.000
v 1.79822 0.18000 3.93802 0.847 0.000 0.000
v 1.77350 0.17820 3.96149 0.878 0.000 0.000
v 1.77431 0.17820 3.97019 0.918 0.000 0.000
v 1.71425 0.18000 3.96358 0.925 0.000 0.000
v 1.78087 0.18000 3.94232 0.925 0.000 0.000
v 1.76726 0.18000 3.94447 0.925 0.000 0.000
v 1.72382 0.18270 3.98147 0.933 0.000 0.000
v 1.72474 0.18270 3.98947 0.945 0.000 0.000
v 1.70170 0.18000 3.98131 0.878 0.000 0.000
v 1.69677 0.18000 3.98869 0.878 0.000 0.000
v 1.58944 0.18000 3.88510 0.890 0.000 0.000
v 1.60126 0.18000 3.88791 0.890 0.000 0.000
v 1.61998 0.18360 3.87590 0.882 0.000 0.000
v 1.61644 0.18360 3.86795 0.882 0.000 0.000
v 1.66280 0.18000 3.88670 0.918 0.000 0.000
v 1.67274 0.18000 3.88197 0.918 0.000 0.000
v 1.61296 0.18000 3.89061 0.902 0.000 0.000
v 1.62427 0.18000 3.89299 0.918 0.000 0.000
v 1.66565 0.17460 3.86986 0.929 0.000 0.000
v 1.66844 0.17460 3.86176 0.929 0.000 0.000
v 1.67931 0.18000 3.87898 0.925 0.000 0.000
v 1.69187 0.18000 3.87702 0.925 0.000 0.000
v 1.72172 0.18000 3.88633 0.949 0.000 0.000
v 1.73417 0.18000 3.89227 0.949 0.000 0.000
v 1.77629 0.18000 3.89173 0.945 0.000 0.000
v 1.78902 0.18000 3.88600 0.945 0.000 0.000
v 1.78031 0.18000 3.89993 0.945 0.000 0.000
v 1.79377 0.18000 3.90143 0.925 0.000 0.000
v 1.79824 0.18000 3.89997 0.925 0.000 0.000
v 1.81184 0.18000 3.89768 0.925 0.000 0.000
v 1.82180 0.18000 3.89084 0.925 0.000 0.000
v 1.82003 0.18000 3.88481 0.925 0.000 0.000
v 1.83407 0.18000 3.89630 0.890 0.000 0.000
v 1.84630 0.18000 3.89365 0.953 0.000 0.000
v 0.42750 0.16272 3.92715 0.914 0.000 0.000
v 0.47700 0.18000 3.91950 0.910 0.000 0.000
v 0.36977 0.18000 3.89430 0.863 0.000 0.000
v 0.36990 0.16272 3.91144 0.816 0.000 0.000
v 0.32490 0.16272 3.92715 0.910 0.000 0.000
v 0.29520 0.18000 3.91950 0.914 0.000 0.000
v 0.42750 0.19728 3.92715 0.914 0.000 0.000
v 0.36990 0.19728 3.91144 0.816 0.000 0.000
v 0.32490 0.19728 3.92715 0.910 0.000 0.000
v 0.97333 0.20677 3.98047 0.902 0.000 0.000
v 1.05775 0.20677 3.93053 0.906 0.000 0.000
v 1.07852 0.18000 3.91822 0.902 0.000 0.000
v 0.97333 0.15323 3.98047 0.878 0.000 0.000
v 1.05775 0.15323 3.93053 0.871 0.000 0.000
v 0.95254 0.18000 3.99278 0.894 0.000 0.000
v 1.70784 0.18000 3.97282 0.925 0.000 0.000
v 0.10170 -0.02520 3.95122 0.000 0.000 0.000
v 0.08888 -0.02520 3.93840 0.000 0.000 0.000
v 0.10170 -0.02520 3.92558 0.000 0.000 0.000
v 0.11452 -0.02520 3.93840 0.000 0.000 0.000
v 0.10170 0.02520 3.95122 0.000 0.000 0.000
v 0.08888 0.02520 3.93840 0.000 0.000 0.000
v 0.10170 0.02520 3.92558 0.000 0.000 0.000
v 0.11452 0.02520 3.93840 0.000 0.000 0.000
v 0.12915 -0.02520 3.93570 0.000 0.000 0.000
v 0.12915 -0.02520 3.94079 0.000 0.000 0.000
v 0.12915 0.02520 3.94079 0.000 0.000 0.000
v 0.12915 0.02520 3.93570 0.000 0.000 0.000
v 0.12096 -0.02520 3.94079 0.000 0.000 0.000
v 0.12096 -0.02520 3.93570 0.000 0.000 0.000
v 0.12096 0.02520 3.94079 0.000 0.000 0.000
v 0.12096 0.02520 3.93570 0.000 0.000 0.000
v 0.12316 -0.02520 3.95447 0.000 0.000 0.000
v 0.12551 -0.02520 3.94997 0.000 0.000 0.000
v 0.11824 -0.02520 3.94618 0.000 0.000 0.000
v 0.11590 -0.02520 3.95069 0.000 0.000 0.000
v 0.12551 0.02520 3.94997 0.000 0.000 0.000
v 0.12316 0.02520 3.95447 0.000 0.000 0.000
v 0.11590 0.02520 3.95069 0.000 0.000 0.000
v 0.11824 0.02520 3.94618 0.000 0.000 0.000
v 0.11128 -0.02520 3.96394 0.000 0.000 0.000
v 0.11486 -0.02520 3.96036 0.000 0.000 0.000
v 0.10908 -0.02520 3.95456 0.000 0.000 0.000
v 0.10548 -0.02520 3.95815 0.000 0.000 0.000
v 0.11486 0.02520 3.96036 0.000 0.000 0.000
v 0.11128 0.02520 3.96394 0.000 0.000 0.000
v 0.10548 0.02520 3.95815 0.000 0.000 0.000
v 0.10908 0.02520 3.95456 0.000 0.000 0.000
v 0.12316 -0.02520 3.92240 0.000 0.000 0.000
v 0.12551 -0.02520 3.92692 0.000 0.000 0.000
v 0.11824 -0.02520 3.93070 0.000 0.000 0.000
v 0.11590 -0.02520 3.92620 0.000 0.000 0.000
v 0.12551 0.02520 3.92692 0.000 0.000 0.000
v 0.12316 0.02520 3.92240 0.000 0.000 0.000
v 0.11590 0.02520 3.92620 0.000 0.000 0.000
v 0.11824 0.02520 3.93070 0.000 0.000 0.000
v 0.11128 -0.02520 3.91286 0.000 0.000 0.000
v 0.11486 -0.02520 3.91644 0.000 0.000 0.000
v 0.10908 -0.02520 3.92224 0.000 0.000 0.000
v 0.10548 -0.02520 3.91865 0.000 0.000 0.000
v 0.11486 0.02520 3.91644 0.000 0.000 0.000
v 0.11128 0.02520 3.91286 0.000 0.000 0.000
v 0.10548 0.02520 3.91865 0.000 0.000 0.000
v 0.10908 0.02520 3.92224 0.000 0.000 0.000
v 1.42200 -0.01170 3.95370 0.000 0.000 0.000
v 1.42200 0.00000 3.98520 0.000 0.000 0.000
v 0.21600 0.00000 3.98520 0.000 0.000 0.000
v 0.21600 -0.01170 3.95370 0.000 0.000 0.000
v 1.65420 -0.01170 3.93872 0.000 0.000 0.000
v 1.65584 0.00000 3.96767 0.000 0.000 0.000
v 1.76285 0.00000 3.90580 0.902 0.000 0.000
v 1.81957 0.00000 3.90067 0.000 0.000 0.000
v 1.79075 0.00000 3.93174 0.000 0.000 0.000
v 0.21600 0.00000 3.92069 0.914 0.000 0.000
v 1.42200 0.00000 3.92069 0.776 0.000 0.000
v 1.65134 0.00000 3.91230 0.859 0.000 0.000
v 1.71860 -0.01170 3.92375 0.000 0.000 0.000
v 0.46053 0.00000 3.92069 0.851 0.000 0.000
v 0.30267 0.00000 3.92069 0.859 0.000 0.000
v 0.33210 0.00000 3.92400 0.855 0.000 0.000
v 0.42210 0.00000 3.92400 0.851 0.000 0.000
v 0.36414 0.00000 3.89925 0.839 0.000 0.000
v 0.36990 0.00000 3.90915 0.855 0.000 0.000
v 1.42200 0.01170 3.95370 0.000 0.000 0.000
v 0.21600 0.01170 3.95370 0.000 0.000 0.000
v 1.65420 0.01170 3.93872 0.000 0.000 0.000
v 1.71860 0.01170 3.92375 0.000 0.000 0.000
v 0.22050 -0.01710 3.95595 0.000 0.859 0.000
v 0.25690 0.00000 3.99375 0.000 0.929 0.000
v 0.07663 0.00000 4.08316 0.000 0.910 0.000
v 0.15390 0.00000 3.95460 0.000 0.918 0.000
v 0.17489 0.00000 4.02836 0.000 0.816 0.000
v 0.14972 0.00000 4.09489 0.000 0.925 0.000
v 0.09553 0.00000 4.08469 0.000 0.898 0.000
v 0.23890 0.00000 4.02813 0.000 0.933 0.000
v 0.27558 0.00000 3.91725 0.000 0.929 0.000
v 0.09236 0.00000 3.83229 0.000 0.906 0.000
v 0.14834 0.00000 3.85862 0.000 0.878 0.000
v 0.12456 0.00000 3.81137 0.000 0.914 0.000
v 0.13336 0.00000 3.80599 0.000 0.914 0.000
v 0.10460 0.00000 3.82831 0.000 0.898 0.000
v 0.15430 0.00000 3.82019 0.000 0.890 0.000
v 0.19998 0.00000 3.84745 0.000 0.910 0.000
v 0.16528 0.00000 3.80990 0.000 0.925 0.000
v 0.21739 0.00000 3.84016 0.000 0.922 0.000
v 0.06890 -0.02430 3.90112 0.000 0.000 0.000
v 0.05400 -0.02430 3.93840 0.000 0.804 0.000
v 0.16920 -0.02430 3.93840 0.000 0.800 0.000
v 0.15930 -0.02430 3.91178 0.000 0.859 0.000
v 0.10350 -0.02430 3.89700 0.000 0.000 0.000
v 0.08280 -0.02430 3.90690 0.000 0.000 0.000
v 0.12690 -0.02430 3.90690 0.000 0.000 0.000
v 0.15930 -0.02430 3.96502 0.000 0.000 0.000
v 0.12690 -0.02430 3.96990 0.000 0.000 0.000
v 0.10350 -0.02430 3.97980 0.000 0.000 0.000
v 0.08280 -0.02430 3.96990 0.000 0.000 0.000
v 0.06890 -0.02430 3.97568 0.000 0.000 0.000
v 0.06887 -0.02430 3.91007 0.000 0.808 0.000
v 0.08086 -0.02430 3.91513 0.000 0.000 0.000
v 0.10350 -0.02430 3.90568 0.000 0.000 0.000
v 0.12200 -0.02430 3.91405 0.000 0.820 0.000
v 0.12200 -0.02430 3.96275 0.000 0.000 0.000
v 0.10350 -0.02430 3.97112 0.000 0.000 0.000
v 0.08086 -0.02430 3.96167 0.000 0.000 0.000
v 0.06887 -0.02430 3.96673 0.000 0.000 0.000
v 0.12362 0.00000 3.97053 0.000 0.000 0.000
v 0.07018 0.00000 3.96747 0.000 0.000 0.000
v 0.06566 0.00000 4.00077 0.000 0.000 0.000
v 0.11713 0.00000 4.00590 0.000 0.000 0.000
v 0.03978 0.00000 4.09277 0.000 0.000 0.000
v -0.00196 0.00000 4.05373 0.000 0.000 0.000
v -0.05297 -0.00540 4.08132 0.000 0.000 0.000
v 0.09837 0.00000 4.03994 0.000 0.000 0.000
v -0.05641 0.00000 4.02367 0.000 0.000 0.000
v -0.04181 0.00000 4.06129 0.000 0.000 0.000
v 0.01273 0.00000 4.04300 0.000 0.000 0.000
v -0.07819 -0.00450 4.05459 0.000 0.000 0.000
v -0.07308 -0.00360 4.14533 0.000 0.000 0.000
v -0.04835 -0.00810 4.12186 0.000 0.000 0.000
v -0.05580 -0.00810 4.12830 0.000 0.000 0.000
v -0.06620 -0.00360 4.14209 0.000 0.000 0.000
v -0.08183 -0.00720 4.11734 0.000 0.000 0.000
v -0.07184 -0.00720 4.11673 0.000 0.000 0.000
v -0.04392 0.00000 4.05083 0.000 0.000 0.000
v -0.05623 -0.00180 4.05414 0.000 0.000 0.000
v -0.03476 0.00000 4.07839 0.000 0.000 0.000
v -0.02453 0.00000 4.06705 0.000 0.000 0.000
v -0.03566 0.00000 4.06589 0.000 0.000 0.000
v -0.01103 0.00000 4.08485 0.000 0.000 0.000
v -0.01625 0.00000 4.07615 0.000 0.000 0.000
v 0.00607 0.00000 4.09178 0.000 0.000 0.000
v 0.00457 0.00000 4.08274 0.000 0.000 0.000
v -0.41490 -0.01350 3.95640 0.894 0.000 0.000
v -0.03420 0.00000 4.00630 0.965 0.000 0.000
v -0.05350 -0.01980 3.96000 0.796 0.000 0.000
v -0.60300 0.00000 3.95460 0.863 0.000 0.000
v -0.53910 0.00000 3.97030 0.855 0.000 0.000
v -0.41558 0.00000 3.97805 0.953 0.000 0.000
v -0.26190 -0.01890 3.96000 0.804 0.000 0.000
v -0.26415 0.00000 4.00540 0.902 0.000 0.000
v -0.28420 0.00000 3.98808 0.867 0.000 0.000
v -0.10361 0.00000 3.99677 0.937 0.000 0.000
v -0.16726 0.00000 4.00630 0.914 0.000 0.000
v -0.24822 0.00000 4.00000 0.937 0.000 0.000
v -0.08483 0.00000 3.92564 0.894 0.000 0.000
v -0.23989 0.00000 3.92528 0.925 0.000 0.000
v -0.21512 0.00000 3.91477 0.902 0.000 0.000
v -0.19256 0.00000 3.92866 0.863 0.000 0.000
v -0.13106 0.00000 3.93320 0.851 0.000 0.000
v -0.44100 0.00000 3.91730 0.906 0.000 0.000
v -0.54329 0.00000 3.95195 0.824 0.000 0.000
v -0.41278 0.00000 3.93512 0.953 0.000 0.000
v -0.31113 0.00000 3.93786 0.929 0.000 0.000
v -0.46366 0.00000 3.98578 0.863 0.000 0.000
v -0.49880 0.00000 3.98027 0.886 0.000 0.000
v -0.51763 0.00000 3.97471 0.918 0.000 0.000
v -0.53008 0.00000 3.98986 0.937 0.000 0.000
v -0.55235 0.00000 4.01812 0.945 0.000 0.000
v -0.48553 0.00000 4.01173 0.953 0.000 0.000
v -0.45283 -0.02880 3.95345 0.831 0.000 0.000
v -0.57577 0.00000 3.96349 0.925 0.000 0.000
v -0.57325 0.00000 3.94889 0.902 0.000 0.000
v -0.06932 -0.02250 3.96000 0.000 0.000 0.000
v 0.07378 -0.02250 3.93840 0.000 0.000 0.000
v -0.08136 -0.01980 3.97595 0.000 0.000 0.000
v -0.07621 -0.01620 3.98777 0.000 0.000 0.000
v -0.06471 -0.00810 4.00621 0.000 0.000 0.000
v -0.04786 -0.01260 3.99065 0.000 0.000 0.000
v -0.01836 -0.00090 4.03884 0.000 0.000 0.000
v -0.01305 -0.00090 4.02730 0.000 0.000 0.000
v -0.02867 -0.00090 4.01582 0.000 0.000 0.000
v -0.24579 0.00000 3.75320 0.000 0.000 0.000
v 0.07295 -0.02250 3.90420 0.000 0.000 0.000
v 0.02963 0.00000 3.87457 0.000 0.000 0.000
v -0.02963 0.00000 3.84206 0.000 0.000 0.000
v -0.05303 0.00000 3.83976 0.000 0.000 0.000
v -0.07443 0.00000 3.79384 0.000 0.000 0.000
v -0.11556 0.00000 3.79132 0.000 0.000 0.000
v -0.12969 0.00000 3.76447 0.000 0.000 0.000
v -0.15154 0.00000 3.77048 0.000 0.000 0.000
v -0.14593 0.00000 3.79465 0.000 0.000 0.000
v -0.22653 0.00000 3.74891 0.000 0.000 0.000
v -0.18776 0.00000 3.80061 0.000 0.000 0.000
v -0.21172 0.00000 3.78551 0.000 0.000 0.000
v -0.11554 0.00000 3.88775 0.000 0.000 0.000
v -0.17674 0.00000 3.81380 0.000 0.000 0.000
v -0.19894 0.00000 3.81721 0.000 0.000 0.000
v -0.22640 0.00000 3.79922 0.000 0.000 0.000
v -0.15941 0.00000 3.82455 0.000 0.000 0.000
v -0.17093 0.00000 3.83377 0.000 0.000 0.000
v -0.18691 0.00000 3.82084 0.000 0.000 0.000
v -0.14402 0.00000 3.85978 0.000 0.000 0.000
v -0.12746 0.00000 3.85718 0.000 0.000 0.000
v -0.16868 0.00000 3.87133 0.000 0.000 0.000
v -0.13489 0.00000 3.89047 0.000 0.000 0.000
v -0.15831 0.00000 3.86847 0.000 0.000 0.000
v -0.12600 0.00000 3.92780 0.000 0.000 0.000
v -0.12908 0.00000 3.91043 0.000 0.000 0.000
v -0.15469 0.00000 3.91320 0.000 0.000 0.000
v 0.22946 -0.01080 3.98151 0.000 0.910 0.000
v 0.22934 -0.01080 3.93019 0.000 0.882 0.000
v 0.22050 0.01710 3.95595 0.000 0.859 0.000
v 0.22946 0.01080 3.98151 0.000 0.910 0.000
v 0.22934 0.01080 3.93019 0.000 0.882 0.000
v 0.19661 -0.02250 4.00111 0.000 0.851 0.000
v 0.19661 0.02250 4.00111 0.000 0.851 0.000
v 0.22340 -0.02250 3.90600 0.000 0.855 0.000
v 0.22340 0.02250 3.90600 0.000 0.855 0.000
v 0.16110 -0.02250 3.95640 0.000 0.902 0.000
v 0.16110 0.02250 3.95640 0.000 0.902 0.000
v 0.08280 0.02430 3.90690 0.000 0.000 0.000
v 0.08086 0.02430 3.91513 0.000 0.000 0.000
v 0.10350 0.02430 3.90568 0.000 0.000 0.000
v 0.10350 0.02430 3.89700 0.000 0.000 0.000
v 0.10350 0.02430 3.97112 0.000 0.000 0.000
v 0.08086 0.02430 3.96167 0.000 0.000 0.000
v 0.08280 0.02430 3.96990 0.000 0.000 0.000
v 0.10350 0.02430 3.97980 0.000 0.000 0.000
v 0.15930 0.02430 3.96502 0.000 0.000 0.000
v 0.12200 0.02430 3.96275 0.000 0.000 0.000
v 0.12690 0.02430 3.96990 0.000 0.000 0.000
v 0.16920 0.02430 3.93840 0.000 0.800 0.000
v 0.15930 0.02430 3.91178 0.000 0.859 0.000
v 0.12200 0.02430 3.91405 0.000 0.000 0.000
v 0.12690 0.02430 3.90690 0.000 0.000 0.000
v 0.06887 0.02430 3.91007 0.000 0.000 0.000
v 0.06890 0.02430 3.90112 0.000 0.000 0.000
v 0.06887 0.02430 3.96673 0.000 0.000 0.000
v 0.06890 0.02430 3.97568 0.000 0.000 0.000
v 0.05400 0.02430 3.93840 0.000 0.804 0.000
v -0.06932 0.02250 3.96000 0.000 0.000 0.000
v 0.07378 0.02250 3.93840 0.000 0.000 0.000
v 0.07295 0.02250 3.90420 0.000 0.000 0.000
v -0.08136 0.01980 3.97595 0.000 0.000 0.000
v -0.07621 0.01620 3.98777 0.000 0.000 0.000
v -0.04786 0.01260 3.99065 0.000 0.000 0.000
v -0.06471 0.00810 4.00621 0.000 0.000 0.000
v -0.05350 0.01980 3.96000 0.796 0.000 0.000
v -0.26190 0.01890 3.96000 0.804 0.000 0.000
v -0.45283 0.02880 3.95345 0.831 0.000 0.000
v -0.41490 0.01350 3.95640 0.894 0.000 0.000
v -0.06251 -0.00180 4.08359 0.000 0.000 0.000
v -0.07582 -0.00180 4.09961 0.000 0.000 0.000
v -0.08280 -0.01305 3.93840 0.000 0.000 0.000
v -0.08280 0.01305 3.93840 0.000 0.000 0.000
v -0.06316 0.00000 4.01774 0.000 0.000 0.000
v -0.11653 0.00000 3.93091 0.000 0.000 0.000
v 0.01069 0.00000 3.88181 0.000 0.000 0.000
v 0.22050 0.15323 3.98047 0.824 0.000 0.000
v 0.22050 0.15323 3.93053 0.863 0.000 0.000
v 0.22050 0.20677 3.93053 0.918 0.000 0.000
v 1.05775 0.20677 3.93053 0.906 0.000 0.000
v 0.22050 0.18000 3.91822 0.918 0.000 0.000
v 0.22050 0.18000 3.99278 0.918 0.000 0.000
v 0.22050 0.20677 3.98047 0.910 0.000 0.000
v 0.97333 0.20677 3.98047 0.902 0.000 0.000
v 0.97333 0.15323 3.98047 0.878 0.000 0.000
v 0.95254 0.18000 3.99278 0.894 0.000 0.000
v 1.47060 0.15323 3.98047 0.886 0.000 0.000
v 1.47960 0.20677 3.93053 0.898 0.000 0.000
v 1.47060 0.20677 3.98047 0.886 0.000 0.000
v 1.55695 0.21787 3.93113 0.937 0.000 0.000
v 1.55695 0.14213 3.93113 0.937 0.000 0.000
v 1.54350 0.18000 3.98970 0.961 0.000 0.000
v 1.55695 0.14213 3.93113 0.973 0.000 0.000
v 1.55695 0.21787 3.93113 0.973 0.000 0.000
v 1.46250 0.18000 3.99278 0.902 0.000 0.000
v 1.58711 0.18000 3.88359 0.890 0.000 0.000
v 1.53727 0.18000 4.00961 0.922 0.000 0.000
v 0.42750 0.16272 3.92715 0.973 0.000 0.000
v 0.42750 0.19728 3.92715 0.973 0.000 0.000
v 0.36990 0.16272 3.91144 0.961 0.000 0.000
v 0.36990 0.19728 3.91144 0.965 0.000 0.000
v 0.32490 0.16272 3.92715 0.973 0.000 0.000
v 0.32490 0.19728 3.92715 0.973 0.000 0.000
v 1.07852 0.18000 3.91822 0.902 0.000 0.000
v 1.47600 0.18000 3.91822 0.925 0.000 0.000
v 1.05775 0.15323 3.93053 0.871 0.000 0.000
v 1.47960 0.15323 3.93053 0.898 0.000 0.000
v 1.84799 0.18000 3.93030 0.000 0.000 1.000
v 1.92053 0.18000 3.88397 0.000 0.000 0.000
v 1.82052 0.20070 3.91892 0.000 0.000 1.000
v 1.82052 0.15930 3.91892 0.000 0.000 1.000
v 0.22050 0.15323 3.98047 0.000 0.000 0.000
v 0.22050 0.15323 3.93053 0.000 0.000 0.000
v 0.97333 0.15323 3.98047 0.000 0.000 0.000
v 1.05775 0.15323 3.93053 0.000 0.000 0.000
v 0.22050 0.20677 3.93053 0.000 0.000 0.000
v 1.05775 0.20677 3.93053 0.000 0.000 0.000
v 0.22050 0.18000 3.91822 0.000 0.000 0.000
v 1.07852 0.18000 3.91822 0.000 0.000 0.000
v 0.22050 0.18000 3.99278 0.000 0.000 0.000
v 0.95254 0.18000 3.99278 0.000 0.000 0.000
v 0.22050 0.20677 3.98047 0.000 0.000 0.000
v 0.97333 0.20677 3.98047 0.000 0.000 0.000
v 1.79305 0.18000 3.90035 0.000 0.000 1.000
v 1.71659 0.14400 3.92801 0.000 0.000 1.000
v 1.71481 0.18000 3.96355 0.000 0.000 1.000
v 1.68831 0.18000 3.87459 0.000 0.000 1.000
v 1.71659 0.21600 3.92801 0.000 0.000 1.000
v 1.55695 0.21787 3.93113 0.000 0.000 1.000
v 1.58711 0.18000 3.88359 0.000 0.000 1.000
v 1.63895 0.18000 3.89538 0.000 0.000 1.000
v 1.55695 0.14213 3.93113 0.000 0.000 1.000
v 1.59660 0.18000 3.99330 0.000 0.000 1.000
v 1.57428 0.18000 3.98308 0.000 0.000 1.000
v 1.68120 0.18000 3.97694 0.000 0.000 1.000
v 1.67742 0.18000 4.01733 0.000 0.000 1.000
v 1.58733 0.18000 4.05230 0.000 0.000 1.000
v 1.53727 0.18000 4.00961 0.000 0.000 1.000
v 1.81562 0.18000 3.93496 0.000 0.000 1.000
v 1.77431 0.17820 3.97019 0.000 0.000 1.000
v 1.79822 0.18000 3.93802 0.000 0.000 1.000
v 1.77350 0.17820 3.96149 0.000 0.000 1.000
v 1.71425 0.18000 3.96358 0.000 0.000 1.000
v 1.70784 0.18000 3.97282 0.000 0.000 1.000
v 1.78087 0.18000 3.94232 0.000 0.000 1.000
v 1.72474 0.18270 3.98947 0.000 0.000 1.000
v 1.76726 0.18000 3.94447 0.000 0.000 1.000
v 1.72382 0.18270 3.98147 0.000 0.000 1.000
v 1.70170 0.18000 3.98131 0.000 0.000 1.000
v 1.69677 0.18000 3.98869 0.000 0.000 1.000
v 1.58944 0.18000 3.88510 0.000 0.000 1.000
v 1.61644 0.18360 3.86795 0.000 0.000 1.000
v 1.60126 0.18000 3.88791 0.000 0.000 1.000
v 1.61998 0.18360 3.87590 0.000 0.000 1.000
v 1.66280 0.18000 3.88670 0.000 0.000 1.000
v 1.67274 0.18000 3.88197 0.000 0.000 1.000
v 1.61296 0.18000 3.89061 0.000 0.000 1.000
v 1.66844 0.17460 3.86176 0.000 0.000 1.000
v 1.62427 0.18000 3.89299 0.000 0.000 1.000
v 1.66565 0.17460 3.86986 0.000 0.000 1.000
v 1.67931 0.18000 3.87898 0.000 0.000 1.000
v 1.69187 0.18000 3.87702 0.000 0.000 1.000
v 1.73417 0.18000 3.89227 0.000 0.000 1.000
v 1.72172 0.18000 3.88633 0.000 0.000 1.000
v 1.77629 0.18000 3.89173 0.000 0.000 1.000
v 1.78902 0.18000 3.88600 0.000 0.000 1.000
v 1.78031 0.18000 3.89993 0.000 0.000 1.000
v 1.79377 0.18000 3.90143 0.000 0.000 1.000
v 1.79824 0.18000 3.89997 0.000 0.000 1.000
v 1.82003 0.18000 3.88481 0.000 0.000 1.000
v 1.81184 0.18000 3.89768 0.000 0.000 1.000
v 1.82180 0.18000 3.89084 0.000 0.000 1.000
v 1.83407 0.18000 3.89630 0.000 0.000 1.000
v 1.84630 0.18000 3.89365 0.000 0.000 1.000
v 0.47700 0.18000 3.91950 0.000 0.000 0.000
v 0.42750 0.16272 3.92715 0.000 0.000 0.000
v 0.36977 0.18000 3.89430 0.000 0.000 0.000
v 0.36990 0.16272 3.91144 0.000 0.000 0.000
v 0.32490 0.16272 3.92715 0.000 0.000 0.000
v 0.29520 0.18000 3.91950 0.000 0.000 0.000
v 0.36990 0.19728 3.91144 0.000 0.000 0.000
v 0.42750 0.19728 3.92715 0.000 0.000 0.000
v 0.32490 0.19728 3.92715 0.000 0.000 0.000
v 0.21600 -0.01170 3.95370 0.965 0.000 0.000
v 1.42200 -0.01170 3.95370 0.796 0.000 0.000
v 1.65420 -0.01170 3.93872 0.922 0.000 0.000
v 1.71860 -0.01170 3.92375 0.937 0.000 0.000
v 1.76285 0.00000 3.90580 0.000 0.000 0.000
v 0.21600 0.01170 3.95370 0.965 0.000 0.000
v 1.42200 0.01170 3.95370 0.796 0.000 0.000
v 1.65420 0.01170 3.93872 0.922 0.000 0.000
v 1.71860 0.01170 3.92375 0.937 0.000 0.000
v 0.10350 -0.02430 3.90568 0.000 0.808 0.000
v 0.08086 -0.02430 3.91513 0.000 0.847 0.000
v 0.12200 -0.02430 3.91405 0.000 0.000 0.000
v 0.06887 -0.02430 3.91007 0.000 0.000 0.000
v 0.15930 -0.02430 3.96502 0.000 0.859 0.000
v 0.12200 -0.02430 3.96275 0.000 0.820 0.000
v 0.10350 -0.02430 3.97112 0.000 0.808 0.000
v 0.08086 -0.02430 3.96167 0.000 0.847 0.000
v 0.06887 -0.02430 3.96673 0.000 0.808 0.000
v 0.15930 -0.02430 3.91178 0.000 0.000 0.000
v -0.00196 0.00000 4.05373 0.000 0.000 0.000
v -0.04181 0.00000 4.06129 0.000 0.000 0.000
v -0.05297 -0.00540 4.08132 0.000 0.000 0.000
v -0.41278 0.00000 3.93512 0.953 0.000 0.000
v -0.41490 -0.01350 3.95640 0.894 0.000 0.000
v 0.06566 0.00000 4.00077 0.000 0.000 0.000
v 0.01273 0.00000 4.04300 0.000 0.000 0.000
v 0.12200 0.02430 3.91405 0.000 0.820 0.000
v 0.10350 0.02430 3.90568 0.000 0.808 0.000
v 0.08086 0.02430 3.91513 0.000 0.847 0.000
v 0.06887 0.02430 3.91007 0.000 0.808 0.000
v 0.15930 0.02430 3.96502 0.000 0.859 0.000
v 0.12200 0.02430 3.96275 0.000 0.820 0.000
v 0.10350 0.02430 3.97112 0.000 0.808 0.000
v 0.08086 0.02430 3.96167 0.000 0.847 0.000
v 0.06887 0.02430 3.96673 0.000 0.808 0.000
v 0.15930 0.02430 3.91178 0.000 0.000 0.000
v 0.12690 -0.02430 3.90690 0.000 0.000 0.000
v 0.12690 0.02430 3.90690 0.000 0.000 0.000
v 0.15930 -0.02430 3.91178 0.000 0.000 0.000
v 0.15930 0.02430 3.91178 0.000 0.000 0.000
v 0.06887 -0.02430 3.91007 0.000 0.000 0.000
v 0.06887 0.02430 3.91007 0.000 0.000 0.000
v 0.06890 -0.02430 3.90112 0.000 0.000 0.000
v 0.06890 0.02430 3.90112 0.000 0.000 0.000
v 0.15930 -0.02430 3.91178 0.000 0.925 0.000
v 0.15930 0.02430 3.91178 0.000 0.922 0.000
v 0.16920 -0.02430 3.93840 0.000 0.929 0.000
v 0.16920 0.02430 3.93840 0.000 0.925 0.000
v 0.08280 -0.02430 3.90690 0.000 0.000 0.000
v 0.08280 0.02430 3.90690 0.000 0.000 0.000
v 0.10350 -0.02430 3.89700 0.000 0.000 0.000
v 0.10350 0.02430 3.89700 0.000 0.000 0.000
v 0.15930 -0.02430 3.96502 0.000 0.000 0.000
v 0.15930 0.02430 3.96502 0.000 0.000 0.000
v 0.12690 -0.02430 3.96990 0.000 0.000 0.000
v 0.12690 0.02430 3.96990 0.000 0.000 0.000
v 0.10350 -0.02430 3.97980 0.000 0.000 0.000
v 0.10350 0.02430 3.97980 0.000 0.000 0.000
v 0.08280 -0.02430 3.96990 0.000 0.000 0.000
v 0.08280 0.02430 3.96990 0.000 0.000 0.000
v 0.06890 -0.02430 3.97568 0.000 0.000 0.000
v 0.06890 0.02430 3.97568 0.000 0.000 0.000
v 0.06887 -0.02430 3.96673 0.000 0.000 0.000
v 0.06887 0.02430 3.96673 0.000 0.000 0.000
v 0.05400 -0.02430 3.93840 0.000 0.929 0.000
v 0.05400 0.02430 3.93840 0.000 0.925 0.000
v 0.06887 -0.02430 3.91007 0.000 0.925 0.000
v 0.06887 0.02430 3.91007 0.000 0.918 0.000
v 0.15930 -0.02430 3.96502 0.000 0.925 0.000
v 0.15930 0.02430 3.96502 0.000 0.922 0.000
v 0.06887 -0.02430 3.96673 0.000 0.925 0.000
v 0.06887 0.02430 3.96673 0.000 0.918 0.000
v -0.41490 0.01350 3.95640 0.894 0.000 0.000
v 0.22050 -0.01710 3.95595 0.961 0.000 0.000
v 0.22050 0.01710 3.95595 0.965 0.000 0.000
v 0.22946 -0.01080 3.98151 0.973 0.000 0.000
v 0.22946 0.01080 3.98151 0.973 0.000 0.000
v 0.22934 -0.01080 3.93019 0.973 0.000 0.000
v 0.22934 0.01080 3.93019 0.973 0.000 0.000
v 0.25690 0.00000 3.99375 0.973 0.000 0.000
v 0.27558 0.00000 3.91725 0.973 0.000 0.000
v 0.07378 -0.02250 3.93840 0.000 0.000 0.000
v 0.06566 0.00000 4.00077 0.000 0.000 0.000
v 0.02963 0.00000 3.87457 0.000 0.000 0.000
v -0.06932 -0.02250 3.96000 0.000 0.000 0.000
v -0.04786 -0.01260 3.99065 0.000 0.000 0.000
v -0.04786 0.01260 3.99065 0.000 0.000 0.000
v -0.06316 0.00000 4.01774 0.000 0.000 0.000
v -0.06471 0.00810 4.00621 0.000 0.000 0.000
v -0.06471 -0.00810 4.00621 0.000 0.000 0.000
v -0.08280 -0.01305 3.93840 0.000 0.000 0.000
v -0.08280 0.01305 3.93840 0.000 0.000 0.000
v 0.06566 0.00000 4.00077 0.000 0.000 0.000
v 0.01273 0.00000 4.04300 0.000 0.000 0.000
v -0.41558 0.00000 3.97805 0.953 0.000 0.000
v -0.11653 0.00000 3.93091 0.000 0.000 0.000
v 0.07295 -0.02250 3.90420 0.000 0.000 0.000
v -0.06932 0.02250 3.96000 0.000 0.000 0.000
v 0.07378 0.02250 3.93840 0.000 0.000 0.000
v -0.08136 0.01980 3.97595 0.000 0.000 0.000
v -0.07621 0.01620 3.98777 0.000 0.000 0.000
v -0.08136 -0.01980 3.97595 0.000 0.000 0.000
v -0.07621 -0.01620 3.98777 0.000 0.000 0.000
v 0.07295 0.02250 3.90420 0.000 0.000 0.000
v -0.45283 -0.02880 3.95345 0.000 0.000 1.000
v -0.46366 0.00000 3.98578 0.000 0.000 1.000
v -0.55235 0.00000 4.01812 0.000 0.000 1.000
v -0.41278 0.00000 3.93512 0.000 0.000 1.000
v -0.41490 -0.01350 3.95640 0.000 0.000 1.000
v -0.44100 0.00000 3.91730 0.000 0.000 1.000
v -0.41558 0.00000 3.97805 0.000 0.000 1.000
v -0.48553 0.00000 4.01173 0.000 0.000 1.000
v -0.49880 0.00000 3.98027 0.000 0.000 1.000
v -0.41490 0.01350 3.95640 0.000 0.000 1.000
v -0.45283 0.02880 3.95345 0.000 0.000 1.000
v -0.51763 0.00000 3.97471 0.000 0.000 1.000
v -0.53008 0.00000 3.98986 0.000 0.000 1.000
v -0.54329 0.00000 3.95195 0.000 0.000 1.000
v -0.53910 0.00000 3.97030 0.000 0.000 1.000
vt 0.39844 0.82031
vt 0.38281 0.75781
vt 0.39844 0.83594
vt 0.91406 0.80469
vt 0.39844 0.82031
vt 0.91406 0.82031
vt 0.71094 0.77344
vt 0.75781 0.72656
vt 0.39844 0.72656
vt 0.57031 0.72656
vt 0.42969 0.67969
vt 0.55469 0.67969
vt 0.58594 0.22656
vt 0.63281 0.22656
vt 0.60156 0.22656
vt 0.55469 0.16406
vt 0.60156 0.22656
vt 0.67969 0.28906
vt 0.67969 0.28906
vt 0.97656 0.85156
vt 0.97656 0.80469
vt 0.77344 0.30469
vt 0.97656 0.80469
vt 0.66406 0.30469
vt 0.71094 0.25781
vt 0.74219 0.28906
vt 0.94531 0.86719
vt 0.74219 0.38281
vt 0.96094 0.78906
vt 0.94531 0.80469
vt 0.96094 0.77344
vt 0.92969 0.78906
vt 0.96094 0.88281
vt 0.24219 0.05469
vt 0.71094 0.41406
vt 0.71094 0.36719
vt 0.67969 0.32031
vt 0.66406 0.35156
vt 0.60156 0.24219
vt 0.61719 0.25781
vt 0.61719 0.27344
vt 0.61719 0.28906
vt 0.63281 0.28906
vt 0.63281 0.28906
vt 0.63281 0.28906
vt 0.64844 0.30469
vt 0.64844 0.32031
vt 0.66406 0.32031
vt 0.66406 0.32031
vt 0.77344 0.30469
vt 0.77344 0.30469
vt 0.75781 0.28906
vt 0.75781 0.28906
vt 0.74219 0.27344
vt 0.74219 0.27344
vt 0.75781 0.27344
vt 0.74219 0.27344
vt 0.72656 0.25781
vt 0.72656 0.25781
vt 0.71094 0.25781
vt 0.71094 0.25781
vt 0.67969 0.24219
vt 0.67969 0.24219
vt 0.64844 0.22656
vt 0.64844 0.22656
vt 0.64844 0.22656
vt 0.63281 0.22656
vt 0.63281 0.22656
vt 0.61719 0.21094
vt 0.61719 0.21094
vt 0.61719 0.21094
vt 0.60156 0.21094
vt 0.60156 0.19531
vt 0.00781 0.00781
vt 0.03906 0.00781
vt 0.03906 0.10156
vt 0.00781 0.10156
vt 0.00781 0.16406
vt 0.03906 0.16406
vt 0.00781 0.00781
vt 0.00781 0.10156
vt 0.00781 0.16406
vt 0.66406 0.82031
vt 0.61719 0.75781
vt 0.07031 0.00781
vt 0.08594 0.13281
vt 0.07031 0.05469
vt 0.08594 0.17969
vt 0.63281 0.28906
vt 0.94531 0.63281
vt 0.99219 0.58594
vt 0.94531 0.63281
vt 0.99219 0.67969
vt 0.94531 0.63281
vt 0.99219 0.58594
vt 0.94531 0.63281
vt 0.99219 0.67969
vt 0.91406 0.57031
vt 0.91406 0.58594
vt 0.91406 0.58594
vt 0.91406 0.57031
vt 0.94531 0.58594
vt 0.94531 0.57031
vt 0.94531 0.58594
vt 0.94531 0.57031
vt 0.91406 0.58594
vt 0.91406 0.57031
vt 0.94531 0.57031
vt 0.94531 0.58594
vt 0.91406 0.57031
vt 0.91406 0.58594
vt 0.94531 0.58594
vt 0.94531 0.57031
vt 0.91406 0.58594
vt 0.91406 0.57031
vt 0.94531 0.57031
vt 0.94531 0.58594
vt 0.91406 0.57031
vt 0.91406 0.58594
vt 0.94531 0.58594
vt 0.94531 0.57031
vt 0.91406 0.57031
vt 0.91406 0.58594
vt 0.94531 0.58594
vt 0.94531 0.57031
vt 0.91406 0.58594
vt 0.91406 0.57031
vt 0.94531 0.57031
vt 0.94531 0.58594
vt 0.91406 0.57031
vt 0.91406 0.58594
vt 0.94531 0.58594
vt 0.94531 0.57031
vt 0.91406 0.58594
vt 0.91406 0.57031
vt 0.94531 0.57031
vt 0.94531 0.58594
vt 0.21094 0.96094
vt 0.25781 0.99219
vt 0.99219 0.99219
vt 0.96094 0.96094
vt 0.10156 0.96094
vt 0.10156 0.99219
vt 0.03906 0.91406
vt 0.00781 0.99219
vt 0.02344 0.99219
vt 0.96094 0.91406
vt 0.17969 0.91406
vt 0.11719 0.91406
vt 0.07031 0.96094
vt 0.77344 0.91406
vt 0.86719 0.91406
vt 0.85156 0.91406
vt 0.80469 0.91406
vt 0.83594 0.89844
vt 0.83594 0.91406
vt 0.21094 0.96094
vt 0.96094 0.96094
vt 0.10156 0.96094
vt 0.07031 0.96094
vt 0.53906 0.08594
vt 0.53906 0.14844
vt 0.36719 0.00781
vt 0.53906 0.00781
vt 0.46094 0.07031
vt 0.39844 0.10156
vt 0.38281 0.02344
vt 0.49219 0.14844
vt 0.53906 0.14844
vt 0.38281 0.00781
vt 0.42969 0.05469
vt 0.38281 0.05469
vt 0.38281 0.05469
vt 0.38281 0.02344
vt 0.39844 0.07031
vt 0.42969 0.11719
vt 0.39844 0.08594
vt 0.44531 0.13281
vt 0.99219 0.22656
vt 0.99219 0.25781
vt 0.99219 0.55469
vt 0.91406 0.52344
vt 0.99219 0.14844
vt 0.99219 0.19531
vt 0.97656 0.08594
vt 0.96094 0.00781
vt 0.97656 0.08594
vt 0.99219 0.14844
vt 0.99219 0.19531
vt 0.99219 0.22656
vt 0.91406 0.28906
vt 0.96094 0.19531
vt 0.96094 0.14844
vt 0.92969 0.42969
vt 0.96094 0.10156
vt 0.96094 0.14844
vt 0.96094 0.19531
vt 0.96094 0.22656
vt 0.00781 0.75781
vt 0.08594 0.66406
vt 0.14844 0.67969
vt 0.07031 0.77344
vt 0.32031 0.78906
vt 0.32031 0.67969
vt 0.42969 0.64844
vt 0.14844 0.78906
vt 0.99219 0.13281
vt 0.38281 0.63281
vt 0.28906 0.67969
vt 0.99219 0.16406
vt 0.96094 0.22656
vt 0.96094 0.21094
vt 0.99219 0.21094
vt 0.94531 0.22656
vt 0.96094 0.21094
vt 0.94531 0.19531
vt 0.96094 0.13281
vt 0.96094 0.13281
vt 0.39844 0.66406
vt 0.36719 0.66406
vt 0.38281 0.64844
vt 0.38281 0.71094
vt 0.36719 0.69531
vt 0.36719 0.74219
vt 0.35156 0.72656
vt 0.89844 0.88281
vt 0.00781 0.82031
vt 0.03906 0.89844
vt 0.64844 0.88281
vt 0.72656 0.86719
vt 0.89844 0.85156
vt 0.35156 0.89844
vt 0.35156 0.82031
vt 0.38281 0.85156
vt 0.11719 0.83594
vt 0.21094 0.82031
vt 0.33594 0.83594
vt 0.08594 0.83594
vt 0.38281 0.83594
vt 0.35156 0.82031
vt 0.30469 0.85156
vt 0.14844 0.85156
vt 0.86719 0.82031
vt 0.72656 0.88281
vt 0.89844 0.85156
vt 0.42969 0.86719
vt 0.83594 0.83594
vt 0.78906 0.85156
vt 0.75781 0.85156
vt 0.74219 0.83594
vt 0.72656 0.78906
vt 0.80469 0.80469
vt 0.85156 0.88281
vt 0.67969 0.86719
vt 0.67969 0.88281
vt 0.86719 0.05469
vt 0.55469 0.00781
vt 0.80469 0.42969
vt 0.80469 0.41406
vt 0.75781 0.16406
vt 0.82031 0.13281
vt 0.71094 0.21094
vt 0.69531 0.19531
vt 0.71094 0.17969
vt 0.88281 0.39844
vt 0.80469 0.41406
vt 0.64844 0.16406
vt 0.77344 0.14844
vt 0.78906 0.17969
vt 0.77344 0.24219
vt 0.80469 0.27344
vt 0.80469 0.30469
vt 0.82031 0.30469
vt 0.83594 0.28906
vt 0.85156 0.38281
vt 0.86719 0.30469
vt 0.88281 0.33594
vt 0.88281 0.17969
vt 0.86719 0.28906
vt 0.88281 0.30469
vt 0.89844 0.33594
vt 0.86719 0.27344
vt 0.88281 0.27344
vt 0.88281 0.28906
vt 0.88281 0.22656
vt 0.86719 0.21094
vt 0.91406 0.22656
vt 0.89844 0.19531
vt 0.89844 0.22656
vt 0.91406 0.14844
vt 0.91406 0.17969
vt 0.91406 0.17969
vt 0.53906 0.11719
vt 0.53906 0.10156
vt 0.53906 0.08594
vt 0.53906 0.11719
vt 0.53906 0.10156
vt 0.50781 0.08594
vt 0.50781 0.08594
vt 0.50781 0.10156
vt 0.50781 0.10156
vt 0.53906 0.02344
vt 0.53906 0.02344
vt 0.99219 0.19531
vt 0.96094 0.19531
vt 0.96094 0.14844
vt 0.99219 0.14844
vt 0.96094 0.14844
vt 0.96094 0.19531
vt 0.99219 0.19531
vt 0.99219 0.14844
vt 0.96094 0.00781
vt 0.96094 0.10156
vt 0.97656 0.08594
vt 0.99219 0.55469
vt 0.91406 0.52344
vt 0.96094 0.10156
vt 0.97656 0.08594
vt 0.96094 0.22656
vt 0.99219 0.22656
vt 0.96094 0.22656
vt 0.99219 0.22656
vt 0.99219 0.25781
vt 0.85156 0.46094
vt 0.80469 0.41406
vt 0.85156 0.41406
vt 0.85156 0.42969
vt 0.85156 0.41406
vt 0.82031 0.13281
vt 0.75781 0.16406
vt 0.03906 0.89844
vt 0.35156 0.89844
vt 0.85156 0.88281
vt 0.89844 0.88281
vt 0.96094 0.17969
vt 0.99219 0.17969
vt 0.89844 0.00781
vt 0.89844 0.00781
vt 0.75781 0.17969
vt 0.91406 0.13281
vt 0.69531 0.13281
vt 0.42969 0.67969
vt 0.55469 0.67969
vt 0.75781 0.72656
vt 0.07031 0.05469
vt 0.77344 0.71094
vt 0.69531 0.78906
vt 0.71094 0.77344
vt 0.08594 0.13281
vt 0.66406 0.82031
vt 0.67969 0.83594
vt 0.91406 0.86719
vt 0.91406 0.82031
vt 0.91406 0.86719
vt 0.77344 0.35156
vt 0.77344 0.35156
vt 0.24219 0.00781
vt 0.13281 0.02344
vt 0.13281 0.02344
vt 0.91406 0.88281
vt 0.99219 0.77344
vt 0.75781 0.41406
vt 0.16406 0.00781
vt 0.16406 0.07031
vt 0.24219 0.00781
vt 0.24219 0.07031
vt 0.16406 0.00781
vt 0.16406 0.07031
vt 0.60156 0.74219
vt 0.38281 0.74219
vt 0.61719 0.75781
vt 0.38281 0.75781
vt 0.25781 0.46094
vt 0.28906 0.53906
vt 0.22656 0.46094
vt 0.22656 0.46094
vt 0.91406 0.77344
vt 0.96094 0.72656
vt 0.28906 0.13281
vt 0.27344 0.05469
vt 0.96094 0.72656
vt 0.27344 0.05469
vt 0.97656 0.71094
vt 0.27344 0.00781
vt 0.89844 0.78906
vt 0.28906 0.17969
vt 0.91406 0.77344
vt 0.28906 0.13281
vt 0.19531 0.46094
vt 0.14844 0.39844
vt 0.16406 0.36719
vt 0.08594 0.42969
vt 0.14844 0.39844
vt 0.00781 0.30469
vt 0.00781 0.36719
vt 0.05469 0.38281
vt 0.00781 0.30469
vt 0.08594 0.27344
vt 0.05469 0.27344
vt 0.13281 0.35156
vt 0.16406 0.30469
vt 0.10156 0.22656
vt 0.03906 0.22656
vt 0.22656 0.44531
vt 0.21094 0.39844
vt 0.21094 0.42969
vt 0.21094 0.39844
vt 0.19531 0.38281
vt 0.19531 0.38281
vt 0.19531 0.38281
vt 0.17969 0.35156
vt 0.19531 0.38281
vt 0.17969 0.35156
vt 0.16406 0.35156
vt 0.16406 0.33594
vt 0.00781 0.36719
vt 0.02344 0.39844
vt 0.02344 0.36719
vt 0.03906 0.38281
vt 0.05469 0.39844
vt 0.05469 0.41406
vt 0.03906 0.39844
vt 0.07031 0.42969
vt 0.05469 0.41406
vt 0.07031 0.41406
vt 0.08594 0.41406
vt 0.10156 0.42969
vt 0.13281 0.42969
vt 0.13281 0.42969
vt 0.17969 0.46094
vt 0.17969 0.47656
vt 0.17969 0.46094
vt 0.19531 0.46094
vt 0.19531 0.46094
vt 0.21094 0.49219
vt 0.21094 0.47656
vt 0.21094 0.47656
vt 0.22656 0.49219
vt 0.24219 0.49219
vt 0.89844 0.41406
vt 0.86719 0.41406
vt 0.89844 0.50781
vt 0.86719 0.50781
vt 0.86719 0.57031
vt 0.89844 0.57031
vt 0.86719 0.50781
vt 0.86719 0.41406
vt 0.86719 0.57031
vt 0.96094 0.94531
vt 0.21094 0.94531
vt 0.10156 0.94531
vt 0.07031 0.94531
vt 0.00781 0.96094
vt 0.96094 0.94531
vt 0.21094 0.94531
vt 0.10156 0.94531
vt 0.07031 0.94531
vt 0.89844 0.38281
vt 0.92969 0.32031
vt 0.96094 0.10156
vt 0.96094 0.22656
vt 0.91406 0.52344
vt 0.92969 0.42969
vt 0.89844 0.38281
vt 0.92969 0.32031
vt 0.91406 0.28906
vt 0.96094 0.00781
vt 0.94531 0.08594
vt 0.94531 0.13281
vt 0.94531 0.16406
vt 0.58594 0.85156
vt 0.58594 0.89844
vt 0.57031 0.14844
vt 0.66406 0.21094
vt 0.92969 0.42969
vt 0.89844 0.38281
vt 0.92969 0.32031
vt 0.91406 0.28906
vt 0.91406 0.52344
vt 0.92969 0.42969
vt 0.89844 0.38281
vt 0.92969 0.32031
vt 0.91406 0.28906
vt 0.96094 0.00781
vt 0.33594 0.55469
vt 0.33594 0.61719
vt 0.36719 0.55469
vt 0.36719 0.61719
vt 0.35156 0.55469
vt 0.35156 0.61719
vt 0.28906 0.55469
vt 0.28906 0.61719
vt 0.17969 0.00781
vt 0.17969 0.07031
vt 0.24219 0.00781
vt 0.24219 0.07031
vt 0.33594 0.55469
vt 0.33594 0.61719
vt 0.25781 0.55469
vt 0.25781 0.61719
vt 0.36719 0.55469
vt 0.36719 0.61719
vt 0.33594 0.55469
vt 0.33594 0.61719
vt 0.25781 0.55469
vt 0.25781 0.61719
vt 0.33594 0.55469
vt 0.33594 0.61719
vt 0.28906 0.55469
vt 0.28906 0.61719
vt 0.35156 0.55469
vt 0.35156 0.61719
vt 0.24219 0.00781
vt 0.24219 0.07031
vt 0.17969 0.00781
vt 0.17969 0.07031
vt 0.17969 0.00781
vt 0.17969 0.07031
vt 0.17969 0.00781
vt 0.17969 0.07031
vt 0.58594 0.89844
vt 0.24219 0.00781
vt 0.24219 0.07031
vt 0.17969 0.00781
vt 0.17969 0.07031
vt 0.17969 0.00781
vt 0.17969 0.07031
vt 0.14844 0.03906
vt 0.14844 0.03906
vt 0.85156 0.41406
vt 0.83594 0.52344
vt 0.83594 0.46094
vt 0.80469 0.46094
vt 0.82031 0.42969
vt 0.83594 0.42969
vt 0.83594 0.47656
vt 0.83594 0.46094
vt 0.82031 0.46094
vt 0.82031 0.49219
vt 0.83594 0.49219
vt 0.99219 0.00781
vt 0.96094 0.07031
vt 0.58594 0.86719
vt 0.83594 0.52344
vt 0.55469 0.08594
vt 0.86719 0.05469
vt 0.55469 0.00781
vt 0.89844 0.10156
vt 0.88281 0.11719
vt 0.89844 0.10156
vt 0.88281 0.11719
vt 0.55469 0.08594
vt 0.08594 0.57031
vt 0.13281 0.53906
vt 0.24219 0.53906
vt 0.00781 0.55469
vt 0.03906 0.52344
vt 0.02344 0.61719
vt 0.05469 0.49219
vt 0.19531 0.50781
vt 0.16406 0.57031
vt 0.03906 0.52344
vt 0.08594 0.57031
vt 0.19531 0.60156
vt 0.22656 0.58594
vt 0.21094 0.66406
vt 0.22656 0.63281
usemtl m0
f 13/13 16/16 15/15
f 13/13 17/17 16/16
f 7/7 8/8 86/86
f 8/8 87/87 86/86
f 9/9 10/10 342/342
f 10/10 343/343 342/342
f 11/11 12/12 9/9
f 12/12 10/10 9/9
f 83/83 1/1 84/84
f 1/1 2/2 84/84
f 344/344 345/345 346/346
f 345/345 85/85 346/346
f 8/8 346/346 87/87
f 346/346 85/85 87/87
f 347/347 88/88 348/348
f 88/88 349/349 348/348
f 5/5 3/3 350/350
f 3/3 351/351 350/350
f 20/20 352/352 21/21
f 23/23 353/353 354/354
f 30/30 4/4 353/353
f 16/16 14/14 15/15
f 17/17 14/14 16/16
f 18/18 17/17 24/24
f 17/17 13/13 24/24
f 25/25 14/14 18/18
f 14/14 17/17 18/18
f 25/25 19/19 14/14
f 19/19 15/15 14/14
f 13/13 15/15 24/24
f 15/15 19/19 24/24
f 20/20 27/27 352/352
f 354/354 27/27 20/20
f 6/6 21/21 352/352
f 23/23 354/354 20/20
f 355/355 19/19 22/22
f 22/22 19/19 26/26
f 25/25 26/26 19/19
f 356/356 22/22 18/18
f 22/22 26/26 18/18
f 18/18 26/26 25/25
f 18/18 36/36 356/356
f 28/28 356/356 36/36
f 19/19 355/355 36/36
f 36/36 355/355 28/28
f 34/34 357/357 358/358
f 359/359 357/357 34/34
f 33/33 360/360 352/352
f 354/354 360/360 33/33
f 27/27 33/33 352/352
f 354/354 33/33 27/27
f 21/21 32/32 31/31
f 31/31 32/32 23/23
f 31/31 29/29 21/21
f 21/21 29/29 361/361
f 31/31 23/23 29/29
f 361/361 29/29 23/23
f 37/37 18/18 38/38
f 19/19 37/37 38/38
f 24/24 38/38 18/18
f 38/38 24/24 19/19
f 35/35 18/18 37/37
f 19/19 35/35 37/37
f 28/28 362/362 356/356
f 355/355 362/362 28/28
f 6/6 4/4 30/30
f 32/32 21/21 30/30
f 21/21 6/6 30/30
f 32/32 30/30 23/23
f 23/23 30/30 353/353
f 39/39 42/42 40/40
f 42/42 41/41 40/40
f 41/41 42/42 43/43
f 42/42 89/89 43/43
f 44/44 47/47 45/45
f 47/47 46/46 45/45
f 46/46 47/47 48/48
f 47/47 49/49 48/48
f 50/50 53/53 51/51
f 53/53 52/52 51/51
f 52/52 53/53 54/54
f 53/53 55/55 54/54
f 56/56 59/59 57/57
f 59/59 58/58 57/57
f 58/58 59/59 60/60
f 59/59 61/61 60/60
f 63/63 62/62 64/64
f 62/62 65/65 64/64
f 64/64 65/65 66/66
f 65/65 67/67 66/66
f 68/68 71/71 69/69
f 71/71 70/70 69/69
f 70/70 71/71 72/72
f 71/71 73/73 72/72
f 75/75 74/74 76/76
f 74/74 77/77 76/76
f 77/77 78/78 76/76
f 78/78 79/79 76/76
f 81/81 80/80 76/76
f 80/80 75/75 76/76
f 81/81 76/76 82/82
f 76/76 79/79 82/82
f 363/363 364/364 365/365
f 364/364 366/366 365/365
f 365/365 366/366 367/367
f 366/366 368/368 367/367
f 345/345 344/344 349/349
f 344/344 348/348 349/349
f 84/84 2/2 369/369
f 2/2 370/370 369/369
f 351/351 3/3 83/83
f 3/3 1/1 83/83
f 350/350 371/371 5/5
f 371/371 372/372 5/5
f 371/371 369/369 372/372
f 369/369 370/370 372/372
f 86/86 88/88 7/7
f 88/88 347/347 7/7
f 35/35 36/36 18/18
f 19/19 36/36 35/35
f 92/92 93/93 91/91
f 97/97 95/95 94/94
f 99/99 102/102 98/98
f 102/102 103/103 98/98
f 101/101 105/105 100/100
f 105/105 104/104 100/100
f 106/106 109/109 107/107
f 109/109 108/108 107/107
f 110/110 113/113 111/111
f 113/113 112/112 111/111
f 114/114 117/117 115/115
f 117/117 116/116 115/115
f 118/118 121/121 119/119
f 121/121 120/120 119/119
f 122/122 123/123 125/125
f 123/123 124/124 125/125
f 126/126 127/127 129/129
f 127/127 128/128 129/129
f 130/130 131/131 133/133
f 131/131 132/132 133/133
f 134/134 135/135 137/137
f 135/135 136/136 137/137
f 93/93 90/90 91/91
f 97/97 96/96 95/95
f 138/138 139/139 141/141
f 139/139 140/140 141/141
f 139/139 138/138 143/143
f 138/138 142/142 143/143
f 150/150 145/145 146/146
f 153/153 449/449 152/152
f 449/449 147/147 152/152
f 450/450 148/148 451/451
f 148/148 149/149 451/451
f 451/451 149/149 452/452
f 149/149 144/144 452/452
f 142/142 150/150 143/143
f 150/150 146/146 143/143
f 150/150 453/453 145/145
f 152/152 155/155 153/153
f 155/155 156/156 153/153
f 151/151 154/154 155/155
f 154/154 156/156 155/155
f 449/449 153/153 450/450
f 153/153 154/154 450/450
f 154/154 151/151 450/450
f 450/450 151/151 148/148
f 157/157 158/158 139/139
f 158/158 140/140 139/139
f 159/159 157/157 143/143
f 157/157 139/139 143/143
f 160/160 146/146 145/145
f 147/147 454/454 152/152
f 454/454 153/153 152/152
f 455/455 456/456 148/148
f 456/456 149/149 148/148
f 456/456 457/457 149/149
f 457/457 144/144 149/149
f 159/159 143/143 160/160
f 143/143 146/146 160/160
f 160/160 145/145 453/453
f 152/152 153/153 155/155
f 153/153 156/156 155/155
f 156/156 154/154 155/155
f 154/154 151/151 155/155
f 454/454 455/455 153/153
f 153/153 455/455 154/154
f 154/154 455/455 151/151
f 151/151 455/455 148/148
f 163/163 164/164 302/302
f 294/294 300/300 169/169
f 192/192 184/184 193/193
f 184/184 183/183 193/193
f 197/197 196/196 189/189
f 196/196 188/188 189/189
f 186/186 187/187 195/195
f 181/181 180/180 182/182
f 182/182 180/180 194/194
f 194/194 180/180 458/458
f 458/458 180/180 459/459
f 459/459 180/180 191/191
f 183/183 185/185 193/193
f 185/185 460/460 193/193
f 195/195 187/187 196/196
f 187/187 188/188 196/196
f 192/192 461/461 184/184
f 461/461 179/179 184/184
f 197/197 189/189 198/198
f 189/189 190/190 198/198
f 181/181 462/462 180/180
f 462/462 463/463 180/180
f 463/463 464/464 180/180
f 464/464 465/465 180/180
f 180/180 465/465 466/466
f 185/185 467/467 460/460
f 199/199 202/202 200/200
f 202/202 201/201 200/200
f 202/202 206/206 201/201
f 204/204 209/209 203/203
f 203/203 209/209 206/206
f 201/201 206/206 209/209
f 205/205 208/208 221/221
f 219/219 220/220 223/223
f 208/208 204/204 221/221
f 221/221 204/204 220/220
f 220/220 204/204 223/223
f 224/224 225/225 203/203
f 203/203 225/225 204/204
f 225/225 222/222 204/204
f 204/204 222/222 223/223
f 468/468 469/469 217/217
f 210/210 207/207 218/218
f 207/207 217/217 218/218
f 335/335 212/212 336/336
f 212/212 213/213 336/336
f 215/215 216/216 211/211
f 216/216 214/214 211/211
f 217/217 469/469 215/215
f 469/469 470/470 215/215
f 470/470 216/216 215/215
f 227/227 235/235 228/228
f 253/253 247/247 251/251
f 232/232 233/233 234/234
f 232/232 239/239 240/240
f 245/245 226/226 243/243
f 231/231 252/252 226/226
f 471/471 246/246 472/472
f 251/251 248/248 253/253
f 254/254 229/229 255/255
f 252/252 247/247 226/226
f 256/256 337/337 257/257
f 264/264 473/473 263/263
f 262/262 263/263 474/474
f 473/473 474/474 263/263
f 473/473 260/260 261/261
f 301/301 169/169 178/178
f 299/299 165/165 166/166
f 167/167 165/165 299/299
f 297/297 301/301 295/295
f 298/298 168/168 166/166
f 162/162 296/296 168/168
f 296/296 299/299 168/168
f 173/173 301/301 175/175
f 298/298 293/293 168/168
f 293/293 162/162 168/168
f 299/299 166/166 168/168
f 298/298 166/166 165/165
f 303/303 299/299 295/295
f 299/299 296/296 295/295
f 298/298 165/165 167/167
f 163/163 167/167 299/299
f 163/163 298/298 167/167
f 299/299 303/303 163/163
f 161/161 302/302 300/300
f 170/170 164/164 303/303
f 302/302 161/161 298/298
f 161/161 293/293 298/298
f 298/298 163/163 302/302
f 303/303 164/164 163/163
f 302/302 164/164 170/170
f 174/174 170/170 303/303
f 300/300 171/171 172/172
f 301/301 173/173 172/172
f 300/300 302/302 171/171
f 301/301 172/172 171/171
f 300/300 175/175 177/177
f 169/169 300/300 178/178
f 301/301 297/297 169/169
f 301/301 176/176 177/177
f 177/177 176/176 300/300
f 301/301 178/178 176/176
f 300/300 176/176 178/178
f 300/300 172/172 173/173
f 300/300 173/173 175/175
f 175/175 301/301 177/177
f 302/302 174/174 171/171
f 301/301 171/171 303/303
f 302/302 170/170 174/174
f 171/171 174/174 303/303
f 307/307 304/304 306/306
f 304/304 305/305 306/306
f 311/311 308/308 310/310
f 308/308 309/309 310/310
f 312/312 313/313 314/314
f 307/307 306/306 318/318
f 306/306 317/317 318/318
f 313/313 308/308 314/314
f 308/308 311/311 314/314
f 320/320 319/319 304/304
f 319/319 305/305 304/304
f 309/309 321/321 310/310
f 321/321 322/322 310/310
f 315/315 316/316 323/323
f 316/316 475/475 323/323
f 475/475 476/476 323/323
f 476/476 477/477 323/323
f 323/323 477/477 478/478
f 315/315 323/323 479/479
f 479/479 323/323 480/480
f 480/480 323/323 481/481
f 481/481 323/323 482/482
f 482/482 323/323 483/483
f 318/318 317/317 484/484
f 485/485 486/486 487/487
f 486/486 488/488 487/487
f 489/489 490/490 491/491
f 490/490 492/492 491/491
f 493/493 494/494 495/495
f 494/494 496/496 495/495
f 497/497 498/498 499/499
f 498/498 500/500 499/499
f 491/491 492/492 497/497
f 492/492 498/498 497/497
f 499/499 500/500 485/485
f 500/500 486/486 485/485
f 501/501 502/502 503/503
f 502/502 504/504 503/503
f 503/503 504/504 505/505
f 504/504 506/506 505/505
f 505/505 506/506 507/507
f 506/506 508/508 507/507
f 507/507 508/508 509/509
f 508/508 510/510 509/509
f 509/509 510/510 511/511
f 510/510 512/512 511/511
f 513/513 514/514 515/515
f 514/514 516/516 515/515
f 495/495 496/496 517/517
f 496/496 518/518 517/517
f 519/519 520/520 513/513
f 520/520 514/514 513/513
f 473/473 264/264 260/260
f 264/264 339/339 260/260
f 268/268 340/340 269/269
f 265/265 275/275 277/277
f 275/275 274/274 277/277
f 284/284 279/279 283/283
f 283/283 279/279 282/282
f 281/281 277/277 280/280
f 280/280 277/277 276/276
f 277/277 274/274 276/276
f 276/276 274/274 279/279
f 279/279 274/274 282/282
f 287/287 289/289 292/292
f 289/289 288/288 292/292
f 292/292 288/288 291/291
f 288/288 278/278 291/291
f 273/273 272/272 274/274
f 272/272 271/271 274/274
f 285/285 282/282 286/286
f 340/340 290/290 269/269
f 290/290 291/291 269/269
f 291/291 278/278 269/269
f 278/278 286/286 269/269
f 269/269 286/286 270/270
f 270/270 286/286 271/271
f 286/286 282/282 271/271
f 271/271 282/282 274/274
f 340/340 268/268 341/341
f 340/340 338/338 341/341
f 338/338 267/267 341/341
f 473/473 329/329 330/330
f 473/473 330/330 264/264
f 330/330 339/339 264/264
f 227/227 331/331 235/235
f 234/234 233/233 332/332
f 241/241 240/240 332/332
f 245/245 243/243 334/334
f 471/471 521/521 246/246
f 251/251 333/333 248/248
f 231/231 334/334 252/252
f 333/333 249/249 250/250
f 252/252 334/334 247/247
f 248/248 250/250 253/253
f 248/248 333/333 250/250
f 522/522 523/523 524/524
f 523/523 525/525 524/524
f 526/526 527/527 522/522
f 527/527 523/523 522/522
f 524/524 525/525 528/528
f 529/529 527/527 526/526
f 530/530 325/325 531/531
f 532/532 326/326 266/266
f 258/258 327/327 533/533
f 327/327 324/324 533/533
f 259/259 328/328 258/258
f 328/328 327/327 258/258
f 534/534 535/535 259/259
f 535/535 328/328 259/259
f 536/536 537/537 538/538
f 538/538 537/537 534/534
f 537/537 535/535 534/534
f 533/533 324/324 539/539
f 324/324 540/540 539/539
f 232/232 240/240 241/241
f 240/240 239/239 332/332
f 218/218 335/335 210/210
f 335/335 336/336 210/210
f 541/541 542/542 207/207
f 542/542 468/468 207/207
f 207/207 468/468 217/217
f 333/333 251/251 247/247
f 472/472 232/232 234/234
f 234/234 332/332 521/521
f 246/246 239/239 232/232
f 332/332 239/239 246/246
f 237/237 233/233 232/232
f 332/332 233/233 237/237
f 228/228 232/232 241/241
f 332/332 331/331 241/241
f 247/247 253/253 226/226
f 334/334 333/333 247/247
f 250/250 249/249 253/253
f 237/237 232/232 236/236
f 332/332 237/237 236/236
f 238/238 228/228 242/242
f 238/238 242/242 331/331
f 235/235 236/236 228/228
f 236/236 235/235 331/331
f 236/236 232/232 228/228
f 332/332 236/236 331/331
f 242/242 228/228 241/241
f 331/331 242/242 241/241
f 246/246 232/232 472/472
f 521/521 332/332 246/246
f 543/543 472/472 234/234
f 543/543 234/234 521/521
f 243/243 226/226 253/253
f 333/333 334/334 243/243
f 244/244 253/253 230/230
f 244/244 230/230 333/333
f 230/230 249/249 333/333
f 253/253 249/249 230/230
f 544/544 539/539 540/540
f 337/337 267/267 257/257
f 267/267 545/545 257/257
f 546/546 547/547 338/338
f 547/547 546/546 473/473
f 546/546 548/548 473/473
f 473/473 548/548 329/329
f 329/329 548/548 549/549
f 257/257 473/473 256/256
f 256/256 473/473 550/550
f 473/473 261/261 550/550
f 550/550 261/261 551/551
f 294/294 161/161 300/300
f 301/301 303/303 295/295
f 230/230 254/254 244/244
f 254/254 255/255 244/244
f 340/340 341/341 337/337
f 341/341 267/267 337/337
f 338/338 547/547 267/267
f 547/547 552/552 267/267
f 333/333 243/243 244/244
f 243/243 253/253 244/244
usemtl m1
f 373/373 374/374 375/375
f 373/373 376/376 374/374
f 377/377 378/378 379/379
f 378/378 380/380 379/379
f 381/381 382/382 383/383
f 382/382 384/384 383/383
f 378/378 383/383 380/380
f 383/383 384/384 380/380
f 385/385 386/386 387/387
f 386/386 388/388 387/387
f 374/374 389/389 375/375
f 376/376 389/389 374/374
f 390/390 376/376 391/391
f 376/376 373/373 391/391
f 392/392 389/389 390/390
f 389/389 376/376 390/390
f 392/392 393/393 389/389
f 393/393 375/375 389/389
f 373/373 375/375 391/391
f 375/375 393/393 391/391
f 394/394 393/393 395/395
f 395/395 393/393 396/396
f 392/392 396/396 393/393
f 397/397 395/395 390/390
f 395/395 396/396 390/390
f 390/390 396/396 392/392
f 390/390 398/398 397/397
f 399/399 397/397 398/398
f 393/393 394/394 398/398
f 398/398 394/394 399/399
f 400/400 390/390 401/401
f 393/393 400/400 401/401
f 391/391 401/401 390/390
f 401/401 391/391 393/393
f 402/402 390/390 400/400
f 393/393 402/402 400/400
f 399/399 403/403 397/397
f 394/394 403/403 399/399
f 404/404 405/405 406/406
f 405/405 407/407 406/406
f 407/407 405/405 408/408
f 405/405 409/409 408/408
f 410/410 411/411 412/412
f 411/411 413/413 412/412
f 413/413 411/411 414/414
f 411/411 415/415 414/414
f 416/416 417/417 418/418
f 417/417 419/419 418/418
f 419/419 417/417 420/420
f 417/417 421/421 420/420
f 422/422 423/423 424/424
f 423/423 425/425 424/424
f 425/425 423/423 426/426
f 423/423 427/427 426/426
f 428/428 429/429 430/430
f 429/429 431/431 430/430
f 430/430 431/431 432/432
f 431/431 433/433 432/432
f 434/434 435/435 436/436
f 435/435 437/437 436/436
f 437/437 435/435 438/438
f 435/435 439/439 438/438
f 440/440 441/441 442/442
f 441/441 443/443 442/442
f 443/443 444/444 442/442
f 444/444 445/445 442/442
f 446/446 447/447 442/442
f 447/447 440/440 442/442
f 446/446 442/442 448/448
f 442/442 445/445 448/448
f 382/382 381/381 388/388
f 381/381 387/387 388/388
f 379/379 386/386 377/377
f 386/386 385/385 377/377
f 402/402 398/398 390/390
f 393/393 398/398 402/402
f 553/553 554/554 555/555
f 556/556 557/557 558/558
f 559/559 560/560 557/557
f 555/555 561/561 553/553
f 560/560 554/554 557/557
f 556/556 558/558 562/562
f 555/555 563/563 561/561
f 559/559 562/562 560/560
f 563/563 564/564 565/565
f 560/560 562/562 554/554
f 561/561 565/565 553/553
f 561/561 563/563 565/565
f 563/563 555/555 554/554
f 554/554 553/553 557/557
f 562/562 563/563 554/554
f 565/565 564/564 553/553
f 558/558 557/557 553/553
f 563/563 562/562 558/558
f 566/566 553/553 567/567
f 566/566 567/567 563/563
f 567/567 564/564 563/563
f 553/553 564/564 567/567
f 563/563 558/558 566/566
f 558/558 553/553 566/566
