mtllib arms79.mtl
o arms79
v 0.29448 -0.02250 3.50316 0.682 0.000 0.000
v 0.31284 0.02250 3.50316 0.682 0.000 0.000
v 0.29448 0.02250 3.50316 0.682 0.000 0.000
v 0.31284 -0.02250 3.50316 0.682 0.000 0.000
v 0.27612 -0.02250 3.50316 0.682 0.000 0.000
v 0.27612 0.02250 3.50316 0.682 0.000 0.000
v 0.27612 -0.02250 3.59658 0.682 0.000 0.000
v 0.27612 0.02250 3.59658 0.682 0.000 0.000
v 0.31284 -0.02250 3.59658 0.682 0.000 0.000
v 0.43632 0.02250 3.59658 0.682 0.000 0.000
v 0.31284 0.02250 3.59658 0.682 0.000 0.000
v 0.43632 -0.02250 3.59658 0.682 0.000 0.000
v 0.43632 -0.02250 3.61332 0.682 0.000 0.000
v 0.43632 0.02250 3.61332 0.682 0.000 0.000
v 0.43632 0.02250 3.63006 0.682 0.000 0.000
v 0.43632 -0.02250 3.63006 0.682 0.000 0.000
v 0.31284 -0.02250 3.63006 0.682 0.000 0.000
v 0.31284 0.02250 3.63006 0.682 0.000 0.000
v 0.18432 -0.02250 3.59658 0.682 0.000 0.000
v 0.27612 0.02250 3.59658 0.682 0.000 0.000
v 0.18432 0.02250 3.59658 0.682 0.000 0.000
v 0.27612 -0.02250 3.59658 0.682 0.000 0.000
v 0.18432 0.02250 3.63006 0.682 0.000 0.000
v 0.27612 0.02250 3.63006 0.682 0.000 0.000
v 0.18432 -0.02250 3.63006 0.682 0.000 0.000
v 0.27612 -0.02250 3.63006 0.682 0.000 0.000
v 0.27612 0.02250 3.72348 0.682 0.000 0.000
v 0.29448 0.02250 3.72348 0.682 0.000 0.000
v 0.27612 -0.02250 3.72348 0.682 0.000 0.000
v 0.29448 -0.02250 3.72348 0.682 0.000 0.000
v 0.31284 0.02250 3.72348 0.682 0.000 0.000
v 0.31284 -0.02250 3.72348 0.682 0.000 0.000
v 0.27612 -0.02250 3.63006 0.682 0.000 0.000
v 0.27612 0.02250 3.63006 0.682 0.000 0.000
v 0.31284 0.02250 3.59658 0.682 0.000 0.000
v 0.31284 0.02250 3.50316 0.682 0.000 0.000
v 0.31284 -0.02250 3.59658 0.682 0.000 0.000
v 0.31284 -0.02250 3.50316 0.682 0.000 0.000
v 0.31284 0.02250 3.72348 0.682 0.000 0.000
v 0.31284 0.02250 3.63006 0.682 0.000 0.000
v 0.31284 -0.02250 3.63006 0.682 0.000 0.000
v 0.31284 -0.02250 3.72348 0.682 0.000 0.000
v 0.18432 -0.02250 3.61332 0.682 0.000 0.000
v 0.18432 0.02250 3.61332 0.682 0.000 0.000
v 0.18432 0.02250 3.63006 0.682 0.000 0.000
v 0.18432 -0.02250 3.63006 0.682 0.000 0.000
v 0.18432 0.02250 3.59658 0.682 0.000 0.000
v 0.18432 -0.02250 3.59658 0.682 0.000 0.000
v 0.43632 -0.02250 3.61332 0.553 0.000 0.000
v 0.43632 -0.02250 3.59658 0.553 0.000 0.000
v 0.31284 -0.02250 3.59658 0.553 0.000 0.000
v 0.29448 -0.02250 3.61332 0.553 0.000 0.000
v 0.31284 -0.02250 3.63006 0.553 0.000 0.000
v 0.43632 -0.02250 3.63006 0.553 0.000 0.000
v 0.31284 -0.02250 3.50316 0.553 0.000 0.000
v 0.29448 -0.02250 3.50316 0.553 0.000 0.000
v 0.29448 -0.02250 3.61332 0.553 0.000 0.000
v 0.29448 -0.02250 3.72348 0.553 0.000 0.000
v 0.27612 -0.02250 3.63006 0.553 0.000 0.000
v 0.27612 -0.02250 3.72348 0.553 0.000 0.000
v 0.31284 -0.02250 3.72348 0.553 0.000 0.000
v 0.27612 -0.02250 3.59658 0.553 0.000 0.000
v 0.27612 -0.02250 3.50316 0.553 0.000 0.000
v 0.31284 0.02250 3.59658 0.553 0.000 0.000
v 0.43632 0.02250 3.59658 0.553 0.000 0.000
v 0.43632 0.02250 3.61332 0.553 0.000 0.000
v 0.29448 0.02250 3.61332 0.553 0.000 0.000
v 0.31284 0.02250 3.63006 0.553 0.000 0.000
v 0.43632 0.02250 3.63006 0.553 0.000 0.000
v 0.29448 0.02250 3.50316 0.553 0.000 0.000
v 0.31284 0.02250 3.50316 0.553 0.000 0.000
v 0.29448 0.02250 3.61332 0.553 0.000 0.000
v 0.27612 0.02250 3.59658 0.553 0.000 0.000
v 0.27612 0.02250 3.50316 0.553 0.000 0.000
v 0.29448 0.02250 3.72348 0.553 0.000 0.000
v 0.31284 0.02250 3.72348 0.553 0.000 0.000
v 0.27612 0.02250 3.63006 0.553 0.000 0.000
v 0.27612 0.02250 3.72348 0.553 0.000 0.000
v 0.18432 -0.02250 3.61332 0.553 0.000 0.000
v 0.27612 -0.02250 3.59658 0.553 0.000 0.000
v 0.18432 -0.02250 3.59658 0.553 0.000 0.000
v 0.29448 -0.02250 3.61332 0.553 0.000 0.000
v 0.27612 -0.02250 3.63006 0.553 0.000 0.000
v 0.18432 -0.02250 3.63006 0.553 0.000 0.000
v 0.18432 0.02250 3.59658 0.553 0.000 0.000
v 0.27612 0.02250 3.59658 0.553 0.000 0.000
v 0.18432 0.02250 3.61332 0.553 0.000 0.000
v 0.29448 0.02250 3.61332 0.553 0.000 0.000
v 0.27612 0.02250 3.63006 0.553 0.000 0.000
v 0.18432 0.02250 3.63006 0.553 0.000 0.000
v -0.07830 -0.05130 3.60360 0.000 0.000 0.937
v -0.06084 0.00000 3.60360 0.000 0.000 0.961
v -0.09450 -0.05004 3.62520 0.000 0.000 0.937
v -0.07830 -0.03978 3.64266 0.000 0.000 0.937
v -0.09450 -0.02196 3.65850 0.000 0.000 0.937
v -0.07830 0.00000 3.66408 0.000 0.000 0.937
v -0.09450 0.02196 3.65850 0.000 0.000 0.937
v -0.07830 0.03978 3.64266 0.000 0.000 0.937
v -0.09450 0.05004 3.62520 0.000 0.000 0.937
v -0.07830 0.05130 3.60360 0.000 0.000 0.937
v -0.09450 -0.05004 3.58200 0.000 0.000 0.937
v -0.07830 -0.03978 3.56454 0.000 0.000 0.937
v -0.09450 -0.02196 3.54870 0.000 0.000 0.937
v -0.09450 0.05004 3.58200 0.000 0.000 0.937
v -0.07830 0.03978 3.56454 0.000 0.000 0.937
v -0.09450 0.02196 3.54870 0.000 0.000 0.937
v -0.07830 0.00000 3.54312 0.000 0.000 0.937
v -0.23688 0.00000 3.61782 0.000 0.000 0.937
v -0.20898 0.00000 3.60360 0.000 0.000 0.961
v -0.20880 0.01620 3.61818 0.000 0.000 0.937
v -0.25056 0.01512 3.60360 0.000 0.000 0.937
v -0.20880 -0.01620 3.61818 0.000 0.000 0.937
v -0.25056 -0.01512 3.60360 0.000 0.000 0.937
v -0.20880 0.01620 3.58830 0.000 0.000 0.937
v -0.23688 0.00000 3.58938 0.000 0.000 0.937
v -0.20880 -0.01620 3.58830 0.000 0.000 0.937
v -0.16560 -0.03420 3.60360 0.000 0.000 0.937
v -0.13968 0.00000 3.60360 0.000 0.000 0.961
v -0.15012 -0.03132 3.61710 0.000 0.000 0.937
v -0.16560 -0.02646 3.62970 0.000 0.000 0.937
v -0.15012 -0.01368 3.63780 0.000 0.000 0.937
v -0.16560 0.00000 3.64392 0.000 0.000 0.937
v -0.15012 0.01368 3.63780 0.000 0.000 0.937
v -0.16560 0.02646 3.62970 0.000 0.000 0.937
v -0.15012 0.03132 3.61710 0.000 0.000 0.937
v -0.16560 0.03420 3.60360 0.000 0.000 0.937
v -0.15012 -0.03132 3.59010 0.000 0.000 0.937
v -0.16560 -0.02646 3.57750 0.000 0.000 0.937
v -0.15012 -0.01368 3.56940 0.000 0.000 0.937
v -0.16560 0.00000 3.56328 0.000 0.000 0.937
v -0.15012 0.03132 3.59010 0.000 0.000 0.937
v -0.16560 0.02646 3.57750 0.000 0.000 0.937
v -0.15012 0.01368 3.56940 0.000 0.000 0.937
v 0.11574 0.02106 3.66948 0.000 0.000 0.824
v 0.11574 0.00000 3.60360 0.000 0.000 0.824
v 0.11574 0.02106 3.60360 0.000 0.000 0.824
v 0.11574 0.00000 3.66894 0.000 0.000 0.824
v 0.11574 -0.02106 3.66948 0.000 0.000 0.824
v 0.11574 -0.02106 3.60360 0.000 0.000 0.824
v 0.11574 0.02106 3.57102 0.000 0.000 0.824
v 0.11574 0.00000 3.53826 0.000 0.000 0.824
v 0.11574 -0.02106 3.57102 0.000 0.000 0.824
v 0.15282 -0.01566 3.65850 0.824 0.000 0.000
v 0.15282 -0.01566 3.56688 0.824 0.000 0.000
v 0.15282 0.00000 3.65850 0.824 0.000 0.000
v 0.15282 0.00000 3.54744 0.824 0.000 0.000
v 0.15282 0.01566 3.65850 0.824 0.000 0.000
v 0.15282 0.01566 3.56688 0.824 0.000 0.000
v 0.11574 0.02106 3.60360 0.569 0.000 0.000
v 0.15318 0.02106 3.57102 0.569 0.000 0.000
v 0.15318 0.02106 3.60360 0.569 0.000 0.000
v 0.11574 0.02106 3.66948 0.569 0.000 0.000
v 0.15318 0.02106 3.66894 0.569 0.000 0.000
v 0.11574 0.00000 3.66894 0.612 0.000 0.000
v 0.15318 0.00000 3.66894 0.612 0.000 0.000
v 0.11574 0.02106 3.57102 0.569 0.000 0.000
v 0.15318 0.00000 3.53826 0.612 0.000 0.000
v 0.11574 0.00000 3.53826 0.612 0.000 0.000
v 0.11574 -0.02106 3.57102 0.569 0.000 0.000
v 0.15318 -0.02106 3.57102 0.569 0.000 0.000
v 0.15318 -0.02106 3.60360 0.569 0.000 0.000
v 0.11574 -0.02106 3.60360 0.569 0.000 0.000
v 0.11574 -0.02106 3.66948 0.569 0.000 0.000
v 0.15318 -0.02106 3.66894 0.569 0.000 0.000
v 0.15318 0.02106 3.60360 0.824 0.000 0.000
v 0.15318 0.00000 3.60360 0.824 0.000 0.000
v 0.15318 0.02106 3.66894 0.824 0.000 0.000
v 0.15318 0.00000 3.66894 0.824 0.000 0.000
v 0.15318 -0.02106 3.66894 0.824 0.000 0.000
v 0.15318 -0.02106 3.60360 0.824 0.000 0.000
v 0.15318 -0.02106 3.57102 0.824 0.000 0.000
v 0.15318 0.00000 3.53826 0.824 0.000 0.000
v 0.15318 0.02106 3.57102 0.824 0.000 0.000
v 0.76554 -0.00936 3.73392 0.824 0.000 0.000
v 0.68148 -0.01566 3.71214 0.824 0.000 0.000
v 0.70200 0.00000 3.71736 0.824 0.000 0.000
v 0.76554 0.00000 3.73392 0.824 0.000 0.000
v 0.76554 0.00936 3.73392 0.824 0.000 0.000
v 0.68148 0.01566 3.71214 0.824 0.000 0.000
v 0.71982 0.00000 3.68604 0.824 0.000 0.000
v 0.71982 -0.01566 3.68604 0.824 0.000 0.000
v 0.71982 0.01566 3.68604 0.824 0.000 0.000
v 0.69534 -0.01566 3.74580 0.824 0.000 0.000
v 0.71352 0.00000 3.74562 0.824 0.000 0.000
v 0.68922 -0.01566 3.79422 0.643 0.000 0.000
v 0.70524 0.00000 3.80034 0.643 0.000 0.000
v 0.65340 0.00000 3.83670 0.824 0.000 0.000
v 0.68922 0.01566 3.79422 0.643 0.000 0.000
v 0.69534 0.01566 3.74580 0.824 0.000 0.000
v 0.83682 -0.01566 3.70314 0.824 0.000 0.000
v 0.71982 0.00000 3.68604 0.824 0.000 0.000
v 0.83682 0.00000 3.70314 0.824 0.000 0.000
v 0.71982 -0.01566 3.68604 0.824 0.000 0.000
v 0.83682 0.01566 3.70314 0.824 0.000 0.000
v 0.71982 0.01566 3.68604 0.824 0.000 0.000
v 1.00188 -0.01098 3.75138 0.824 0.000 0.000
v 1.00188 0.01098 3.75138 0.824 0.000 0.000
v 1.00188 0.00000 3.75138 0.824 0.000 0.000
v 1.13004 0.00000 3.79422 0.824 0.000 0.000
v 1.00188 -0.01098 3.75138 0.824 0.000 0.000
v 0.98406 0.00000 3.64644 0.824 0.000 0.000
v 0.93186 -0.01566 3.67326 0.824 0.000 0.000
v 1.13004 0.00000 3.79422 0.824 0.000 0.000
v 1.00188 0.01098 3.75138 0.824 0.000 0.000
v 0.93186 0.01566 3.67326 0.824 0.000 0.000
v 0.85662 0.01566 3.61062 0.612 0.000 0.000
v 0.87786 0.00000 3.57462 0.612 0.000 0.000
v 0.71982 0.01566 3.57822 0.824 0.000 0.000
v 0.71982 0.00000 3.53934 0.824 0.000 0.000
v 0.85662 -0.01566 3.61062 0.612 0.000 0.000
v 0.71982 -0.01566 3.57822 0.824 0.000 0.000
v 0.52686 -0.01566 3.56634 0.824 0.000 0.000
v 0.53010 0.00000 3.53070 0.824 0.000 0.000
v 0.36468 -0.01566 3.56850 0.839 0.000 0.000
v 0.36468 0.00000 3.53610 0.839 0.000 0.000
v 0.15282 -0.01566 3.57336 0.882 0.000 0.000
v 0.15282 0.00000 3.54420 0.882 0.000 0.000
v 0.15282 0.01566 3.57336 0.882 0.000 0.000
v 0.36468 0.01566 3.56850 0.839 0.000 0.000
v 0.52686 0.01566 3.56634 0.824 0.000 0.000
v 0.60516 -0.01566 3.71304 0.824 0.000 0.000
v 0.52038 0.00000 3.67308 0.824 0.000 0.000
v 0.60516 0.00000 3.71304 0.824 0.000 0.000
v 0.52038 -0.01566 3.67308 0.824 0.000 0.000
v 0.60516 0.01566 3.71304 0.824 0.000 0.000
v 0.52038 0.01566 3.67308 0.824 0.000 0.000
v 0.36450 -0.01566 3.65886 0.839 0.000 0.000
v 0.36450 0.00000 3.65886 0.839 0.000 0.000
v 0.15282 0.00000 3.65526 0.882 0.000 0.000
v 0.15282 0.01566 3.65526 0.882 0.000 0.000
v 0.36450 0.01566 3.65886 0.839 0.000 0.000
v 0.15282 -0.01566 3.65526 0.882 0.000 0.000
v 0.64224 0.00000 3.75192 0.824 0.000 0.000
v 0.64224 -0.01566 3.75192 0.824 0.000 0.000
v 0.66024 0.00000 3.78846 0.824 0.000 0.000
v 0.66024 -0.01566 3.78846 0.824 0.000 0.000
v 0.65340 0.00000 3.83670 0.824 0.000 0.000
v 0.66024 0.01566 3.78846 0.824 0.000 0.000
v 0.64224 0.01566 3.75192 0.824 0.000 0.000
v 0.15282 0.01566 3.65526 0.549 0.000 0.000
v 0.36468 0.01566 3.56850 0.549 0.000 0.000
v 0.36450 0.01566 3.65886 0.549 0.000 0.000
v 0.15282 0.01566 3.57336 0.549 0.000 0.000
v 0.52038 0.01566 3.67308 0.549 0.000 0.000
v 0.52686 0.01566 3.56634 0.549 0.000 0.000
v 0.71982 0.01566 3.57822 0.549 0.000 0.000
v 0.71982 0.01566 3.68604 0.549 0.000 0.000
v 0.83682 0.01566 3.70314 0.549 0.000 0.000
v 0.85662 0.01566 3.61062 0.549 0.000 0.000
v 0.93186 0.01566 3.67326 0.549 0.000 0.000
v 1.00188 0.01098 3.75138 0.549 0.000 0.000
v 0.68148 0.01566 3.71214 0.549 0.000 0.000
v 0.76554 0.00936 3.73392 0.549 0.000 0.000
v 0.60516 0.01566 3.71304 0.549 0.000 0.000
v 0.69534 0.01566 3.74580 0.549 0.000 0.000
v 0.64224 0.01566 3.75192 0.549 0.000 0.000
v 0.66024 0.01566 3.78846 0.549 0.000 0.000
v 0.68922 0.01566 3.79422 0.549 0.000 0.000
v 0.65340 0.00000 3.83670 0.549 0.000 0.000
v 0.68922 -0.01566 3.79422 0.549 0.000 0.000
v 0.66024 -0.01566 3.78846 0.549 0.000 0.000
v 0.69534 -0.01566 3.74580 0.549 0.000 0.000
v 0.64224 -0.01566 3.75192 0.549 0.000 0.000
v 0.60516 -0.01566 3.71304 0.549 0.000 0.000
v 0.68148 -0.01566 3.71214 0.549 0.000 0.000
v 0.52038 -0.01566 3.67308 0.549 0.000 0.000
v 0.71982 -0.01566 3.68604 0.549 0.000 0.000
v 0.76554 -0.00936 3.73392 0.549 0.000 0.000
v 0.71982 -0.01566 3.57822 0.549 0.000 0.000
v 0.83682 -0.01566 3.70314 0.549 0.000 0.000
v 0.85662 -0.01566 3.61062 0.549 0.000 0.000
v 0.93186 -0.01566 3.67326 0.549 0.000 0.000
v 1.00188 -0.01098 3.75138 0.549 0.000 0.000
v 0.52686 -0.01566 3.56634 0.549 0.000 0.000
v 0.36468 -0.01566 3.56850 0.549 0.000 0.000
v 0.36450 -0.01566 3.65886 0.549 0.000 0.000
v 0.15282 -0.01566 3.65526 0.549 0.000 0.000
v 0.15282 -0.01566 3.57336 0.549 0.000 0.000
v -0.20880 0.01620 3.61818 0.000 0.000 0.824
v -0.14778 0.03060 3.60360 0.000 0.000 0.941
v -0.14778 0.02160 3.62952 0.000 0.000 0.941
v -0.20880 0.02070 3.60360 0.000 0.000 0.824
v -0.20880 0.01620 3.58830 0.000 0.000 0.824
v -0.14778 0.02160 3.57768 0.000 0.000 0.941
v -0.14778 0.00000 3.56724 0.000 0.000 0.941
v -0.20880 0.00000 3.57894 0.000 0.000 0.867
v -0.20880 -0.01620 3.58830 0.000 0.000 0.824
v -0.14778 -0.02160 3.57768 0.000 0.000 0.941
v -0.14778 0.00000 3.63996 0.000 0.000 0.941
v -0.20880 0.00000 3.62826 0.000 0.000 0.867
v -0.20880 -0.01620 3.61818 0.000 0.000 0.824
v -0.14778 -0.02160 3.62952 0.000 0.000 0.941
v -0.14778 -0.03060 3.60360 0.000 0.000 0.941
v -0.20880 -0.02070 3.60360 0.000 0.000 0.824
v -0.25056 0.01512 3.60360 0.000 0.000 0.824
v -0.23688 0.00000 3.58938 0.000 0.000 0.867
v -0.23688 0.00000 3.61782 0.000 0.000 0.867
v -0.25056 -0.01512 3.60360 0.000 0.000 0.824
v -0.04968 -0.03690 3.64518 0.000 0.000 0.824
v -0.09450 -0.05004 3.62520 0.000 0.000 0.824
v -0.07830 -0.03978 3.64266 0.000 0.000 0.824
v -0.04968 -0.04698 3.60360 0.000 0.000 0.824
v -0.07830 -0.05130 3.60360 0.000 0.000 0.824
v -0.09450 -0.02196 3.65850 0.000 0.000 0.867
v -0.04968 0.00000 3.66786 0.000 0.000 0.867
v -0.07830 0.00000 3.66408 0.000 0.000 0.867
v -0.09450 0.02196 3.65850 0.000 0.000 0.867
v -0.04968 0.03690 3.64518 0.000 0.000 0.824
v -0.07830 0.03978 3.64266 0.000 0.000 0.824
v -0.09450 0.05004 3.62520 0.000 0.000 0.824
v -0.04968 0.04698 3.60360 0.000 0.000 0.824
v -0.07830 0.05130 3.60360 0.000 0.000 0.824
v -0.09450 -0.05004 3.58200 0.000 0.000 0.824
v -0.04968 -0.03690 3.56202 0.000 0.000 0.867
v -0.07830 -0.03978 3.56454 0.000 0.000 0.867
v -0.09450 -0.02196 3.54870 0.000 0.000 0.867
v -0.04968 0.00000 3.53934 0.000 0.000 0.867
v -0.07830 0.00000 3.54312 0.000 0.000 0.867
v -0.09450 0.05004 3.58200 0.000 0.000 0.824
v -0.04968 0.03690 3.56202 0.000 0.000 0.824
v -0.07830 0.03978 3.56454 0.000 0.000 0.824
v -0.09450 0.02196 3.54870 0.000 0.000 0.867
v 0.03420 0.03006 3.64608 0.000 0.000 0.882
v 0.03420 0.00000 3.67254 0.000 0.000 0.914
v 0.03420 -0.03006 3.64608 0.000 0.000 0.882
v 0.03420 -0.03582 3.60396 0.000 0.000 0.882
v 0.11556 -0.01728 3.63888 0.000 0.000 0.941
v 0.11556 -0.01728 3.60360 0.000 0.000 0.941
v 0.11556 -0.01728 3.56832 0.000 0.000 0.941
v 0.03420 -0.03006 3.56184 0.000 0.000 0.882
v 0.11556 0.00000 3.66084 0.000 0.000 0.941
v 0.11556 0.01728 3.63888 0.000 0.000 0.941
v 0.03420 0.03582 3.60396 0.000 0.000 0.882
v 0.11556 0.01728 3.60360 0.000 0.000 0.941
v 0.03420 0.03006 3.56184 0.000 0.000 0.882
v 0.11556 0.01728 3.56832 0.000 0.000 0.941
v 0.03420 0.00000 3.53538 0.000 0.000 0.914
v 0.11556 0.00000 3.54636 0.000 0.000 0.941
v -0.07524 -0.03600 3.63762 0.000 0.000 0.941
v -0.12978 -0.02736 3.63528 0.000 0.000 0.824
v -0.07524 0.00000 3.65670 0.000 0.000 0.941
v -0.12978 0.00000 3.65040 0.000 0.000 0.878
v -0.12978 0.02736 3.63528 0.000 0.000 0.863
v -0.07524 0.03600 3.63762 0.000 0.000 0.941
v -0.07524 0.04500 3.60360 0.000 0.000 0.941
v -0.12978 0.03492 3.60360 0.000 0.000 0.824
v -0.15012 0.03132 3.61710 0.000 0.000 0.824
v -0.16560 0.03420 3.60360 0.000 0.000 0.824
v -0.16560 0.02646 3.62970 0.000 0.000 0.863
v -0.15012 0.01368 3.63780 0.000 0.000 0.863
v -0.12978 0.02736 3.57192 0.000 0.000 0.863
v -0.07524 0.03600 3.56958 0.000 0.000 0.941
v -0.07524 0.00000 3.55050 0.000 0.000 0.941
v -0.12978 0.00000 3.55680 0.000 0.000 0.878
v -0.12978 -0.02736 3.57192 0.000 0.000 0.824
v -0.07524 -0.03600 3.56958 0.000 0.000 0.941
v -0.07524 -0.04500 3.60360 0.000 0.000 0.941
v -0.12978 -0.03492 3.60360 0.000 0.000 0.824
v -0.15012 -0.03132 3.59010 0.000 0.000 0.863
v -0.16560 -0.03420 3.60360 0.000 0.000 0.824
v -0.16560 -0.02646 3.57750 0.000 0.000 0.863
v -0.15012 -0.01368 3.56940 0.000 0.000 0.863
v -0.15012 -0.03132 3.61710 0.000 0.000 0.824
v -0.16560 -0.02646 3.62970 0.000 0.000 0.863
v -0.15012 -0.01368 3.63780 0.000 0.000 0.863
v -0.16560 0.00000 3.56328 0.000 0.000 0.878
v -0.15012 0.01368 3.56940 0.000 0.000 0.863
v -0.16560 0.00000 3.64392 0.000 0.000 0.878
v -0.16560 0.02646 3.57750 0.000 0.000 0.863
v -0.15012 0.03132 3.59010 0.000 0.000 0.824
v 0.22680 0.01908 3.37266 0.000 1.000 0.000
v 0.35640 0.00000 3.27546 0.000 1.000 0.000
v 0.21888 -0.10998 3.41316 0.000 1.000 0.000
v 0.33300 -0.16416 3.31938 0.000 1.000 0.000
v 0.35640 -0.28422 3.43944 0.000 1.000 0.000
v 0.11628 -0.00882 3.58848 0.000 1.000 0.000
v 0.11628 0.03798 3.56418 0.000 1.000 0.000
v 0.22680 -0.20952 3.50460 0.000 1.000 0.000
v 0.11628 -0.05310 3.61674 0.000 1.000 0.000
v 0.29160 0.15048 3.34296 0.000 1.000 0.000
v 0.30456 0.00000 3.30282 0.000 1.000 0.000
v 0.19818 0.10080 3.42900 0.000 1.000 0.000
v 0.20088 -0.01746 3.39192 0.000 1.000 0.000
v 0.11628 0.00882 3.58848 0.000 1.000 0.000
v 0.30456 0.26064 3.45312 0.000 1.000 0.000
v 0.20088 0.19206 3.51288 0.000 1.000 0.000
v 0.11628 -0.03798 3.56418 0.000 1.000 0.000
v 0.11628 0.05310 3.61674 0.000 1.000 0.000
v 0.18306 0.00000 3.36636 0.000 1.000 0.000
v 0.25488 0.00000 3.26178 0.000 1.000 0.000
v 0.27054 -0.17100 3.30750 0.000 1.000 0.000
v 0.27054 0.17100 3.30750 0.000 1.000 0.000
v 0.19278 0.13752 3.40524 0.000 1.000 0.000
v 0.19278 -0.13752 3.40524 0.000 1.000 0.000
v 0.11628 0.00000 3.58614 0.000 1.000 0.000
v 0.11628 -0.05256 3.58848 0.000 1.000 0.000
v 0.11628 0.05256 3.58848 0.000 1.000 0.000
v 0.21888 -0.09162 3.76236 0.000 1.000 0.000
v 0.22680 -0.19206 3.69432 0.000 1.000 0.000
v 0.35640 -0.26064 3.75408 0.000 1.000 0.000
v 0.11628 -0.00882 3.61872 0.000 1.000 0.000
v 0.11628 -0.05310 3.59046 0.000 1.000 0.000
v 0.22680 0.01746 3.81528 0.000 1.000 0.000
v 0.11628 0.03798 3.64302 0.000 1.000 0.000
v 0.33300 -0.15048 3.86424 0.000 1.000 0.000
v 0.35640 0.00000 3.90438 0.000 1.000 0.000
v 0.35640 0.29610 3.77460 0.000 1.000 0.000
v 0.21888 0.22914 3.60360 0.000 1.000 0.000
v 0.22680 0.19836 3.74112 0.000 1.000 0.000
v 0.11628 0.01746 3.60360 0.000 1.000 0.000
v 0.22680 0.19836 3.46608 0.000 1.000 0.000
v 0.11628 0.01512 3.65616 0.000 1.000 0.000
v 0.11628 0.01512 3.55104 0.000 1.000 0.000
v 0.33300 0.34182 3.60360 0.000 1.000 0.000
v 0.35640 0.29610 3.43260 0.000 1.000 0.000
v 0.17820 -0.09072 3.41154 0.000 1.000 0.000
v 0.25272 -0.15048 3.34296 0.000 1.000 0.000
v 0.16452 -0.17460 3.50280 0.000 1.000 0.000
v 0.11628 -0.01512 3.59478 0.000 1.000 0.000
v 0.11628 0.01314 3.55050 0.000 1.000 0.000
v 0.17820 -0.21168 3.62106 0.000 1.000 0.000
v 0.11628 -0.03942 3.64158 0.000 1.000 0.000
v 0.23904 -0.26064 3.45312 0.000 1.000 0.000
v 0.25272 -0.30078 3.60360 0.000 1.000 0.000
v 0.25272 0.32814 3.60360 0.000 1.000 0.000
v 0.16452 0.19044 3.49362 0.000 1.000 0.000
v 0.17820 0.23094 3.62268 0.000 1.000 0.000
v 0.11628 0.01512 3.59478 0.000 1.000 0.000
v 0.17820 0.09900 3.39408 0.000 1.000 0.000
v 0.11628 0.03942 3.64158 0.000 1.000 0.000
v 0.11628 -0.01314 3.55050 0.000 1.000 0.000
v 0.23904 0.28422 3.43944 0.000 1.000 0.000
v 0.25272 0.16416 3.31938 0.000 1.000 0.000
v 0.17586 0.00000 3.83274 0.000 1.000 0.000
v 0.18954 -0.13752 3.80196 0.000 1.000 0.000
v 0.25272 -0.17100 3.89970 0.000 1.000 0.000
v 0.11628 0.00000 3.62106 0.000 1.000 0.000
v 0.11628 -0.05256 3.61872 0.000 1.000 0.000
v 0.18954 0.13752 3.80196 0.000 1.000 0.000
v 0.11628 0.05256 3.61872 0.000 1.000 0.000
v 0.23904 0.00000 3.94542 0.000 1.000 0.000
v 0.25272 0.17100 3.89970 0.000 1.000 0.000
v 0.29160 0.16416 3.88782 0.000 1.000 0.000
v 0.30456 0.28422 3.76776 0.000 1.000 0.000
v 0.19818 0.10998 3.79404 0.000 1.000 0.000
v 0.30456 0.00000 3.93174 0.000 1.000 0.000
v 0.20088 -0.01908 3.83454 0.000 1.000 0.000
v 0.11628 0.00882 3.61872 0.000 1.000 0.000
v 0.20088 0.20952 3.70260 0.000 1.000 0.000
v 0.11628 -0.03798 3.64302 0.000 1.000 0.000
v 0.11628 0.05310 3.59046 0.000 1.000 0.000
v 0.30456 -0.29610 3.77460 0.000 1.000 0.000
v 0.19818 -0.22914 3.60360 0.000 1.000 0.000
v 0.29160 -0.34182 3.60360 0.000 1.000 0.000
v 0.30456 -0.29610 3.43260 0.000 1.000 0.000
v 0.20088 -0.19836 3.46608 0.000 1.000 0.000
v 0.11628 -0.01746 3.60360 0.000 1.000 0.000
v 0.20088 -0.19836 3.74112 0.000 1.000 0.000
v 0.11628 -0.01512 3.55104 0.000 1.000 0.000
v 0.20088 -0.19836 3.74112 0.000 1.000 0.000
v 0.11628 -0.01512 3.65616 0.000 1.000 0.000
v 0.25488 0.26064 3.75408 0.000 1.000 0.000
v 0.27054 0.30078 3.60360 0.000 1.000 0.000
v 0.18306 0.17460 3.71250 0.000 1.000 0.000
v 0.27054 0.15048 3.86424 0.000 1.000 0.000
v 0.19278 0.09072 3.79566 0.000 1.000 0.000
v 0.11628 0.01512 3.61242 0.000 1.000 0.000
v 0.19278 0.21168 3.58614 0.000 1.000 0.000
v 0.11628 -0.01314 3.65670 0.000 1.000 0.000
v 0.11628 0.03942 3.56562 0.000 1.000 0.000
v 0.27054 -0.16416 3.88782 0.000 1.000 0.000
v 0.18306 -0.19044 3.72168 0.000 1.000 0.000
v 0.25488 -0.28422 3.76776 0.000 1.000 0.000
v 0.27054 -0.32814 3.60360 0.000 1.000 0.000
v 0.19278 -0.23094 3.58452 0.000 1.000 0.000
v 0.11628 -0.01512 3.61242 0.000 1.000 0.000
v 0.19278 -0.09900 3.81312 0.000 1.000 0.000
v 0.11628 -0.03942 3.56562 0.000 1.000 0.000
v 0.19278 -0.09900 3.81312 0.000 1.000 0.000
v 0.11628 0.01314 3.65670 0.000 1.000 0.000
v 0.80352 0.01854 3.67812 0.000 1.000 0.000
v 1.07712 0.01854 3.65778 0.000 1.000 0.000
v 0.99252 0.01854 3.77532 0.000 1.000 0.000
v 0.83826 0.01854 3.56904 0.000 1.000 0.000
v 0.90774 0.01854 3.90276 0.000 1.000 0.000
v 0.76860 0.01854 3.78396 0.000 1.000 0.000
v 1.03914 0.01854 4.05972 0.000 1.000 0.000
v 1.30932 0.01854 3.81006 0.000 1.000 0.000
v 1.17414 0.01854 3.93480 0.000 1.000 0.000
v 0.43614 0.01854 3.61332 0.000 1.000 0.000
v 0.61866 0.01854 3.55104 0.000 1.000 0.000
v 0.61866 0.01854 3.62952 0.000 1.000 0.000
v 0.43614 0.01854 3.58074 0.000 1.000 0.000
v 0.61866 0.01854 3.70800 0.000 1.000 0.000
v 0.43614 0.01854 3.64590 0.000 1.000 0.000
v 0.76860 0.01854 3.78396 0.000 1.000 0.000
v 0.83826 0.01854 3.56904 0.000 1.000 0.000
v 0.80352 0.01854 3.67812 0.000 1.000 0.000
v 0.99252 -0.01854 3.77532 0.000 1.000 0.000
v 1.07712 -0.01854 3.65778 0.000 1.000 0.000
v 0.80352 -0.01854 3.67812 0.000 1.000 0.000
v 0.83826 -0.01854 3.56904 0.000 1.000 0.000
v 0.90774 -0.01854 3.90276 0.000 1.000 0.000
v 0.76860 -0.01854 3.78396 0.000 1.000 0.000
v 1.03914 -0.01854 4.05972 0.000 1.000 0.000
v 1.30932 -0.01854 3.81006 0.000 1.000 0.000
v 1.17414 -0.01854 3.93480 0.000 1.000 0.000
v 0.61866 -0.01854 3.62952 0.000 1.000 0.000
v 0.61866 -0.01854 3.55104 0.000 1.000 0.000
v 0.43614 -0.01854 3.61332 0.000 1.000 0.000
v 0.43614 -0.01854 3.58074 0.000 1.000 0.000
v 0.61866 -0.01854 3.70800 0.000 1.000 0.000
v 0.43614 -0.01854 3.64590 0.000 1.000 0.000
v 0.76860 -0.01854 3.78396 0.000 1.000 0.000
v 0.83826 -0.01854 3.56904 0.000 1.000 0.000
v 0.80352 -0.01854 3.67812 0.000 1.000 0.000
vt 0.79998 0.71019
vt 0.78296 0.61781
vt 0.79998 0.61781
vt 0.78296 0.71019
vt 0.81769 0.71019
vt 0.81769 0.61781
vt 0.89413 0.71019
vt 0.89413 0.61781
vt 0.85565 0.71019
vt 0.73887 0.61781
vt 0.85565 0.61781
vt 0.73887 0.71019
vt 0.76197 0.71019
vt 0.76197 0.61781
vt 0.73887 0.61781
vt 0.73887 0.71019
vt 0.85565 0.71019
vt 0.85565 0.61781
vt 0.89413 0.71019
vt 0.99533 0.61781
vt 0.89413 0.61781
vt 0.99533 0.71019
vt 0.89413 0.61781
vt 0.99533 0.61781
vt 0.89413 0.71019
vt 0.99533 0.71019
vt 0.81769 0.61781
vt 0.79998 0.61781
vt 0.81769 0.71019
vt 0.79998 0.71019
vt 0.78296 0.61781
vt 0.78296 0.71019
vt 0.89413 0.71019
vt 0.89413 0.61781
vt 0.78296 0.61781
vt 0.85565 0.61781
vt 0.78296 0.71019
vt 0.85565 0.71019
vt 0.85565 0.61781
vt 0.78296 0.61781
vt 0.78296 0.71019
vt 0.85565 0.71019
vt 0.97768 0.71019
vt 0.97768 0.61781
vt 0.99584 0.61781
vt 0.99584 0.71019
vt 0.99584 0.61781
vt 0.99584 0.71019
vt 0.73891 0.83566
vt 0.73891 0.78334
vt 0.96206 0.78334
vt 0.99619 0.83566
vt 0.96206 0.78334
vt 0.73891 0.78334
vt 0.73850 0.78334
vt 0.73850 0.83566
vt 0.99853 0.83566
vt 0.73850 0.83566
vt 0.96286 0.78334
vt 0.73850 0.78334
vt 0.73850 0.78334
vt 0.96286 0.78334
vt 0.73850 0.78334
vt 0.96206 0.78334
vt 0.73891 0.78334
vt 0.73891 0.83566
vt 0.99619 0.83566
vt 0.96206 0.78334
vt 0.73891 0.78334
vt 0.73850 0.83566
vt 0.73850 0.78334
vt 0.99853 0.83566
vt 0.96286 0.78334
vt 0.73850 0.78334
vt 0.73850 0.83566
vt 0.73850 0.78334
vt 0.96286 0.78334
vt 0.73850 0.78334
vt 0.79119 0.77866
vt 0.96183 0.71884
vt 0.79119 0.71884
vt 0.99596 0.77866
vt 0.96183 0.71884
vt 0.79119 0.71884
vt 0.79119 0.71884
vt 0.96183 0.71884
vt 0.79119 0.77866
vt 0.99596 0.77866
vt 0.96183 0.71884
vt 0.79119 0.71884
vt 0.79000 0.60342
vt 0.79000 0.44655
vt 0.77204 0.60342
vt 0.75741 0.60342
vt 0.74423 0.60342
vt 0.73956 0.60342
vt 0.74423 0.60342
vt 0.75741 0.60342
vt 0.77204 0.60342
vt 0.79000 0.60342
vt 0.80796 0.60342
vt 0.82259 0.60342
vt 0.83577 0.60342
vt 0.80796 0.60342
vt 0.82259 0.60342
vt 0.83577 0.60342
vt 0.84044 0.60342
vt 0.77390 0.60342
vt 0.79000 0.44655
vt 0.77008 0.60342
vt 0.79000 0.60342
vt 0.77008 0.60342
vt 0.79000 0.60342
vt 0.80992 0.60342
vt 0.80610 0.60342
vt 0.80992 0.60342
vt 0.79000 0.60342
vt 0.79000 0.44655
vt 0.77320 0.60342
vt 0.75741 0.60342
vt 0.74720 0.60342
vt 0.73956 0.60342
vt 0.74720 0.60342
vt 0.75741 0.60342
vt 0.77320 0.60342
vt 0.79000 0.60342
vt 0.80680 0.60342
vt 0.82259 0.60342
vt 0.83280 0.60342
vt 0.84044 0.60342
vt 0.80680 0.60342
vt 0.82259 0.60342
vt 0.83280 0.60342
vt 0.75738 0.60343
vt 0.79000 0.44655
vt 0.79000 0.60343
vt 0.73957 0.60343
vt 0.75738 0.60343
vt 0.79000 0.60343
vt 0.82262 0.60343
vt 0.84043 0.60343
vt 0.82262 0.60343
vt 0.95990 0.50200
vt 0.84225 0.50200
vt 0.99128 0.44400
vt 0.81088 0.44400
vt 0.95990 0.50200
vt 0.84225 0.50200
vt 0.98934 0.52094
vt 0.92207 0.60506
vt 0.98934 0.60506
vt 0.92207 0.52094
vt 0.92207 0.60506
vt 0.85966 0.52094
vt 0.85966 0.60506
vt 0.92207 0.52094
vt 0.85366 0.60506
vt 0.85366 0.52094
vt 0.92207 0.52094
vt 0.92207 0.60506
vt 0.98934 0.60506
vt 0.98934 0.52094
vt 0.92207 0.52094
vt 0.92207 0.60506
vt 0.79000 0.60343
vt 0.79000 0.44655
vt 0.75738 0.60343
vt 0.73957 0.60343
vt 0.75738 0.60343
vt 0.79000 0.60343
vt 0.82262 0.60343
vt 0.84043 0.60343
vt 0.82262 0.60343
vt 0.36564 0.43260
vt 0.46031 0.43260
vt 0.46015 0.38062
vt 0.36564 0.38062
vt 0.36564 0.43260
vt 0.46031 0.43260
vt 0.59687 0.38062
vt 0.59687 0.43260
vt 0.59687 0.43260
vt 0.36035 0.43260
vt 0.36582 0.36562
vt 0.20232 0.43260
vt 0.20224 0.36562
vt 0.00832 0.36562
vt 0.20232 0.43260
vt 0.36035 0.43260
vt 0.72935 0.43260
vt 0.96988 0.38062
vt 0.72935 0.38062
vt 0.96988 0.43260
vt 0.72935 0.43260
vt 0.96988 0.43260
vt 0.46082 0.43260
vt 0.46082 0.43260
vt 0.46082 0.38046
vt 0.33832 0.43262
vt 0.00832 0.43260
vt 0.10508 0.36462
vt 0.10508 0.43260
vt 0.00832 0.36462
vt 0.00832 0.43260
vt 0.10508 0.43260
vt 0.21089 0.43224
vt 0.21074 0.36462
vt 0.36987 0.43260
vt 0.36987 0.36462
vt 0.21089 0.43224
vt 0.36987 0.43260
vt 0.56240 0.43260
vt 0.56240 0.36462
vt 0.76719 0.43260
vt 0.76719 0.36462
vt 0.99414 0.43260
vt 0.99414 0.36462
vt 0.99414 0.43260
vt 0.76719 0.43260
vt 0.56240 0.43260
vt 0.66584 0.38063
vt 0.52239 0.40062
vt 0.66584 0.40062
vt 0.52239 0.38063
vt 0.66584 0.38063
vt 0.52239 0.38063
vt 0.73582 0.38063
vt 0.73582 0.40062
vt 0.99414 0.40062
vt 0.99414 0.38063
vt 0.73582 0.38063
vt 0.99414 0.38063
vt 0.59837 0.40062
vt 0.59837 0.38063
vt 0.55746 0.40062
vt 0.55746 0.38063
vt 0.43032 0.38062
vt 0.55733 0.38063
vt 0.59837 0.38063
vt 0.99797 0.92995
vt 0.77102 0.85091
vt 0.77765 0.92995
vt 0.99797 0.85091
vt 0.57081 0.93495
vt 0.54803 0.85162
vt 0.33840 0.85229
vt 0.33698 0.93480
vt 0.16819 0.91856
vt 0.17765 0.85474
vt 0.08191 0.85719
vt 0.00634 0.87336
vt 0.37994 0.95785
vt 0.28355 0.95729
vt 0.47168 0.95695
vt 0.35871 0.96742
vt 0.42518 0.97566
vt 0.39824 0.98095
vt 0.35928 0.98059
vt 0.38762 0.99932
vt 0.35928 0.98059
vt 0.39824 0.98095
vt 0.35871 0.96742
vt 0.42518 0.97566
vt 0.47168 0.95695
vt 0.37994 0.95785
vt 0.57081 0.93495
vt 0.33698 0.93480
vt 0.28355 0.95729
vt 0.33840 0.85229
vt 0.16819 0.91856
vt 0.17765 0.85474
vt 0.08191 0.85719
vt 0.00634 0.87336
vt 0.54803 0.85162
vt 0.77102 0.85091
vt 0.77765 0.92995
vt 0.99797 0.92995
vt 0.99797 0.85091
vt 0.19861 0.72685
vt 0.73187 0.53868
vt 0.73187 0.72749
vt 0.19861 0.53868
vt 0.19861 0.72685
vt 0.73187 0.72749
vt 0.73187 0.82035
vt 0.19861 0.82035
vt 0.19861 0.72685
vt 0.73187 0.72749
vt 0.73187 0.82035
vt 0.19861 0.82035
vt 0.19861 0.72685
vt 0.73187 0.72749
vt 0.73187 0.53868
vt 0.19861 0.53868
vt 0.00716 0.53868
vt 0.10693 0.82035
vt 0.10693 0.82035
vt 0.00716 0.53868
vt 0.19861 0.63302
vt 0.00718 0.53902
vt 0.10343 0.63301
vt 0.19861 0.44563
vt 0.10693 0.44563
vt 0.00718 0.72721
vt 0.19861 0.82034
vt 0.10693 0.82034
vt 0.00718 0.72721
vt 0.19861 0.63302
vt 0.10343 0.63301
vt 0.00718 0.53902
vt 0.19861 0.44563
vt 0.10693 0.44563
vt 0.00718 0.53902
vt 0.19861 0.63302
vt 0.10343 0.63301
vt 0.00718 0.72721
vt 0.19861 0.82034
vt 0.10693 0.82034
vt 0.00718 0.53902
vt 0.19861 0.63302
vt 0.10343 0.63301
vt 0.00718 0.72721
vt 0.47574 0.63302
vt 0.47574 0.82034
vt 0.47574 0.63302
vt 0.47574 0.44563
vt 0.72787 0.63302
vt 0.72787 0.44563
vt 0.72787 0.63302
vt 0.47574 0.63302
vt 0.72787 0.82034
vt 0.72787 0.63302
vt 0.47574 0.44563
vt 0.72787 0.44563
vt 0.47574 0.63302
vt 0.72787 0.63302
vt 0.47574 0.82034
vt 0.72787 0.82034
vt 0.66287 0.63321
vt 0.28939 0.63321
vt 0.66287 0.82035
vt 0.28939 0.82035
vt 0.28939 0.63321
vt 0.66287 0.63321
vt 0.66287 0.44502
vt 0.28939 0.44502
vt 0.19861 0.53802
vt 0.10693 0.44502
vt 0.10343 0.63321
vt 0.19861 0.72691
vt 0.28939 0.63321
vt 0.66287 0.63321
vt 0.66287 0.82035
vt 0.28939 0.82035
vt 0.28939 0.63321
vt 0.66287 0.63321
vt 0.66287 0.44502
vt 0.28939 0.44502
vt 0.19861 0.53802
vt 0.10693 0.44502
vt 0.10343 0.63321
vt 0.19861 0.72691
vt 0.19861 0.53802
vt 0.10343 0.63321
vt 0.19861 0.72691
vt 0.10693 0.82035
vt 0.19861 0.72691
vt 0.10693 0.82035
vt 0.10343 0.63321
vt 0.19861 0.53802
vt 0.28445 0.04818
vt 0.19906 0.04818
vt 0.28445 0.18184
vt 0.19906 0.18184
vt 0.19906 0.31661
vt 0.44398 0.18184
vt 0.44398 0.04818
vt 0.28445 0.31675
vt 0.44398 0.31655
vt 0.17906 0.18184
vt 0.17906 0.04818
vt 0.26445 0.18184
vt 0.26445 0.04818
vt 0.42398 0.18184
vt 0.17906 0.31661
vt 0.26445 0.31675
vt 0.42398 0.04818
vt 0.42398 0.31655
vt 0.13445 0.22184
vt 0.04906 0.22184
vt 0.04906 0.08818
vt 0.04906 0.35661
vt 0.13445 0.35675
vt 0.13445 0.08818
vt 0.29398 0.22184
vt 0.29398 0.08818
vt 0.29398 0.35655
vt 0.33445 0.18210
vt 0.33445 0.04818
vt 0.24906 0.04818
vt 0.49398 0.18210
vt 0.49398 0.04818
vt 0.33445 0.31679
vt 0.49398 0.31659
vt 0.24906 0.18204
vt 0.24906 0.31665
vt 0.07906 0.31665
vt 0.16445 0.18204
vt 0.16445 0.31679
vt 0.32398 0.18204
vt 0.16445 0.04818
vt 0.32398 0.31659
vt 0.32398 0.04818
vt 0.07906 0.18210
vt 0.07906 0.04818
vt 0.11445 0.00818
vt 0.02906 0.00818
vt 0.11445 0.14184
vt 0.27398 0.14184
vt 0.27398 0.00818
vt 0.11445 0.27675
vt 0.27398 0.27655
vt 0.02906 0.14184
vt 0.02906 0.27661
vt 0.22906 0.27665
vt 0.31445 0.14204
vt 0.31445 0.27679
vt 0.47398 0.14204
vt 0.31445 0.00818
vt 0.47398 0.27659
vt 0.47398 0.00818
vt 0.22906 0.14210
vt 0.22906 0.00818
vt 0.24445 0.14210
vt 0.24445 0.00818
vt 0.15906 0.00818
vt 0.40398 0.14210
vt 0.40398 0.00818
vt 0.24445 0.27679
vt 0.40398 0.27659
vt 0.15906 0.14204
vt 0.15906 0.27665
vt 0.05906 0.18210
vt 0.05906 0.04818
vt 0.14445 0.18210
vt 0.05906 0.31665
vt 0.14445 0.31679
vt 0.30398 0.18210
vt 0.14445 0.04818
vt 0.30398 0.31659
vt 0.30398 0.04818
vt 0.12906 0.31665
vt 0.21445 0.18204
vt 0.12906 0.18204
vt 0.12906 0.04818
vt 0.21445 0.04818
vt 0.37398 0.18204
vt 0.21445 0.04818
vt 0.37398 0.04818
vt 0.21445 0.31679
vt 0.37398 0.31659
vt 0.19906 0.22210
vt 0.19906 0.08818
vt 0.28445 0.22210
vt 0.19906 0.35665
vt 0.28445 0.35679
vt 0.44398 0.22210
vt 0.28445 0.08818
vt 0.44398 0.35659
vt 0.44398 0.08818
vt 0.00906 0.35665
vt 0.09445 0.22204
vt 0.00906 0.22204
vt 0.00906 0.08818
vt 0.09445 0.08818
vt 0.25398 0.22204
vt 0.09445 0.08818
vt 0.25398 0.08818
vt 0.09445 0.35679
vt 0.25398 0.35659
vt 0.49263 0.18260
vt 0.25001 0.01030
vt 0.25001 0.18260
vt 0.49263 0.01030
vt 0.25001 0.35431
vt 0.49263 0.35431
vt 0.00736 0.35431
vt 0.00736 0.01030
vt 0.00736 0.18260
vt 0.49263 0.18260
vt 0.24987 0.01030
vt 0.24987 0.18260
vt 0.49263 0.01030
vt 0.24987 0.35431
vt 0.49263 0.35431
vt 0.00736 0.35431
vt 0.00736 0.01030
vt 0.00736 0.18260
vt 0.25001 0.18260
vt 0.25001 0.01030
vt 0.49263 0.18260
vt 0.49263 0.01030
vt 0.25001 0.35431
vt 0.49263 0.35431
vt 0.00736 0.35431
vt 0.00736 0.01030
vt 0.00736 0.18260
vt 0.24987 0.18260
vt 0.24987 0.01030
vt 0.49263 0.18260
vt 0.49263 0.01030
vt 0.24987 0.35431
vt 0.49263 0.35431
vt 0.00736 0.35431
vt 0.00736 0.01030
vt 0.00736 0.18260
usemtl m0
f 1/1 2/2 3/3
f 4/4 2/2 1/1
f 1/1 3/3 5/5
f 5/5 3/3 6/6
f 5/5 6/6 7/7
f 7/7 6/6 8/8
f 9/9 10/10 11/11
f 12/12 10/10 9/9
f 13/13 10/10 12/12
f 14/14 10/10 13/13
f 15/15 14/14 13/13
f 15/15 13/13 16/16
f 17/17 15/15 16/16
f 18/18 15/15 17/17
f 19/19 20/20 21/21
f 22/22 20/20 19/19
f 23/23 24/24 25/25
f 25/25 24/24 26/26
f 27/27 28/28 29/29
f 29/29 28/28 30/30
f 28/28 31/31 30/30
f 30/30 31/31 32/32
f 29/29 33/33 27/27
f 33/33 34/34 27/27
f 35/35 36/36 37/37
f 37/37 36/36 38/38
f 39/39 40/40 41/41
f 39/39 41/41 42/42
f 43/43 44/44 45/45
f 46/46 43/43 45/45
f 43/43 47/47 44/44
f 48/48 47/47 43/43
f 49/49 50/50 51/51
f 49/49 51/51 52/52
f 53/53 49/49 52/52
f 54/54 49/49 53/53
f 51/51 55/55 56/56
f 51/51 56/56 57/57
f 53/53 57/57 58/58
f 58/58 57/57 59/59
f 58/58 59/59 60/60
f 61/61 53/53 58/58
f 57/57 56/56 62/62
f 62/62 56/56 63/63
f 64/64 65/65 66/66
f 67/67 64/64 66/66
f 67/67 66/66 68/68
f 68/68 66/66 69/69
f 70/70 71/71 64/64
f 72/72 70/70 64/64
f 73/73 70/70 72/72
f 74/74 70/70 73/73
f 75/75 72/72 68/68
f 75/75 68/68 76/76
f 77/77 72/72 75/75
f 78/78 77/77 75/75
f 79/79 80/80 81/81
f 82/82 80/80 79/79
f 83/83 82/82 79/79
f 83/83 79/79 84/84
f 85/85 86/86 87/87
f 87/87 86/86 88/88
f 87/87 88/88 89/89
f 90/90 87/87 89/89
f 91/91 92/92 93/93
f 93/93 92/92 94/94
f 94/94 92/92 95/95
f 95/95 92/92 96/96
f 96/96 92/92 97/97
f 97/97 92/92 98/98
f 98/98 92/92 99/99
f 99/99 92/92 100/100
f 91/91 101/101 92/92
f 101/101 102/102 92/92
f 102/102 103/103 92/92
f 92/92 104/104 100/100
f 92/92 105/105 104/104
f 92/92 106/106 105/105
f 103/103 107/107 92/92
f 92/92 107/107 106/106
f 108/108 109/109 110/110
f 110/110 109/109 111/111
f 112/112 109/109 108/108
f 113/113 109/109 112/112
f 109/109 114/114 111/111
f 115/115 114/114 109/109
f 113/113 116/116 109/109
f 109/109 116/116 115/115
f 117/117 118/118 119/119
f 119/119 118/118 120/120
f 120/120 118/118 121/121
f 121/121 118/118 122/122
f 122/122 118/118 123/123
f 123/123 118/118 124/124
f 124/124 118/118 125/125
f 125/125 118/118 126/126
f 117/117 127/127 118/118
f 127/127 128/128 118/118
f 128/128 129/129 118/118
f 129/129 130/130 118/118
f 118/118 131/131 126/126
f 118/118 132/132 131/131
f 118/118 130/130 133/133
f 118/118 133/133 132/132
f 134/134 135/135 136/136
f 137/137 135/135 134/134
f 138/138 135/135 137/137
f 139/139 135/135 138/138
f 135/135 140/140 136/136
f 135/135 141/141 140/140
f 139/139 142/142 135/135
f 142/142 141/141 135/135
f 143/143 144/144 145/145
f 144/144 146/146 145/145
f 145/145 146/146 147/147
f 147/147 146/146 148/148
f 149/149 150/150 151/151
f 149/149 151/151 152/152
f 152/152 151/151 153/153
f 154/154 152/152 153/153
f 153/153 155/155 154/154
f 156/156 150/150 149/149
f 156/156 157/157 150/150
f 158/158 157/157 156/156
f 159/159 157/157 158/158
f 160/160 157/157 159/159
f 161/161 160/160 159/159
f 161/161 159/159 162/162
f 163/163 161/161 162/162
f 164/164 161/161 163/163
f 164/164 163/163 154/154
f 154/154 155/155 164/164
f 165/165 166/166 167/167
f 167/167 166/166 168/168
f 168/168 166/166 169/169
f 169/169 166/166 170/170
f 166/166 171/171 170/170
f 166/166 172/172 171/171
f 165/165 173/173 166/166
f 173/173 172/172 166/166
f 174/174 175/175 176/176
f 174/174 176/176 177/177
f 177/177 176/176 178/178
f 176/176 179/179 178/178
f 177/177 180/180 174/174
f 178/178 180/180 177/177
f 174/174 180/180 181/181
f 182/182 180/180 178/178
f 176/176 175/175 183/183
f 184/184 176/176 183/183
f 185/185 184/184 183/183
f 186/186 184/184 185/185
f 186/186 185/185 187/187
f 187/187 188/188 186/186
f 188/188 184/184 186/186
f 189/189 179/179 176/176
f 189/189 176/176 184/184
f 189/189 184/184 188/188
f 190/190 191/191 192/192
f 193/193 191/191 190/190
f 192/192 191/191 194/194
f 194/194 191/191 195/195
f 196/196 190/190 192/192
f 192/192 194/194 197/197
f 196/196 192/192 198/198
f 198/198 192/192 197/197
f 196/196 198/198 199/199
f 199/199 198/198 197/197
f 200/200 201/201 202/202
f 203/203 201/201 200/200
f 204/204 201/201 203/203
f 205/205 201/201 204/204
f 205/205 206/206 201/201
f 206/206 207/207 201/201
f 208/208 207/207 206/206
f 208/208 209/209 207/207
f 201/201 207/207 210/210
f 201/201 210/210 202/202
f 207/207 209/209 211/211
f 210/210 207/207 211/211
f 211/211 209/209 212/212
f 209/209 213/213 212/212
f 212/212 213/213 214/214
f 213/213 215/215 214/214
f 214/214 215/215 216/216
f 216/216 215/215 217/217
f 217/217 215/215 218/218
f 218/218 215/215 219/219
f 219/219 215/215 213/213
f 219/219 213/213 220/220
f 220/220 209/209 208/208
f 220/220 213/213 209/209
f 221/221 222/222 223/223
f 224/224 222/222 221/221
f 223/223 222/222 225/225
f 225/225 222/222 226/226
f 224/224 227/227 222/222
f 227/227 228/228 222/222
f 222/222 228/228 226/226
f 227/227 229/229 228/228
f 228/228 229/229 230/230
f 228/228 230/230 231/231
f 226/226 228/228 231/231
f 232/232 229/229 227/227
f 221/221 223/223 233/233
f 233/233 223/223 225/225
f 234/234 221/221 233/233
f 234/234 233/233 235/235
f 236/236 234/234 235/235
f 236/236 235/235 237/237
f 237/237 235/235 238/238
f 235/235 239/239 238/238
f 235/235 233/233 239/239
f 233/233 225/225 239/239
f 240/240 241/241 242/242
f 243/243 241/241 240/240
f 242/242 241/241 244/244
f 244/244 241/241 245/245
f 244/244 245/245 246/246
f 244/244 246/246 247/247
f 247/247 246/246 248/248
f 248/248 246/246 249/249
f 248/248 249/249 250/250
f 248/248 250/250 251/251
f 252/252 244/244 247/247
f 252/252 247/247 253/253
f 254/254 244/244 252/252
f 254/254 252/252 255/255
f 256/256 254/254 255/255
f 256/256 255/255 257/257
f 257/257 255/255 258/258
f 257/257 258/258 259/259
f 259/259 260/260 261/261
f 260/260 262/262 261/261
f 261/261 262/262 263/263
f 262/262 264/264 263/263
f 262/262 265/265 264/264
f 265/265 266/266 264/264
f 267/267 266/266 265/265
f 268/268 267/267 265/265
f 267/267 269/269 266/266
f 270/270 269/269 267/267
f 271/271 269/269 270/270
f 272/272 271/271 270/270
f 273/273 272/272 270/270
f 269/269 274/274 266/266
f 274/274 275/275 266/266
f 266/266 275/275 276/276
f 276/276 275/275 277/277
f 277/277 275/275 278/278
f 279/279 280/280 281/281
f 282/282 280/280 279/279
f 282/282 283/283 280/280
f 283/283 284/284 280/280
f 283/283 285/285 284/284
f 286/286 285/285 283/283
f 287/287 285/285 286/286
f 288/288 285/285 287/287
f 289/289 279/279 281/281
f 290/290 279/279 289/289
f 289/289 291/291 290/290
f 292/292 291/291 289/289
f 292/292 293/293 291/291
f 293/293 288/288 287/287
f 291/291 293/293 294/294
f 293/293 287/287 294/294
f 295/295 282/282 279/279
f 295/295 283/283 282/282
f 287/287 286/286 296/296
f 296/296 286/286 283/283
f 291/291 297/297 290/290
f 290/290 297/297 279/279
f 291/291 294/294 298/298
f 294/294 287/287 298/298
f 299/299 300/300 301/301
f 299/299 302/302 300/300
f 302/302 303/303 300/300
f 304/304 299/299 301/301
f 305/305 299/299 304/304
f 305/305 304/304 306/306
f 306/306 307/307 305/305
f 307/307 308/308 305/305
f 309/309 308/308 307/307
f 309/309 310/310 308/308
f 310/310 311/311 308/308
f 312/312 311/311 310/310
f 302/302 313/313 303/303
f 302/302 314/314 313/313
f 314/314 315/315 313/313
f 314/314 316/316 315/315
f 314/314 317/317 316/316
f 317/317 318/318 316/316
f 312/312 319/319 311/311
f 319/319 320/320 311/311
f 319/319 321/321 320/320
f 321/321 322/322 320/320
f 322/322 318/318 317/317
f 322/322 317/317 320/320
f 308/308 311/311 323/323
f 308/308 323/323 305/305
f 305/305 323/323 324/324
f 324/324 325/325 305/305
f 305/305 325/325 299/299
f 325/325 302/302 299/299
f 325/325 326/326 302/302
f 327/327 326/326 325/325
f 328/328 326/326 327/327
f 328/328 329/329 326/326
f 329/329 330/330 326/326
f 326/326 330/330 302/302
f 330/330 314/314 302/302
f 331/331 325/325 324/324
f 331/331 327/327 325/325
f 324/324 323/323 331/331
f 323/323 332/332 331/331
f 323/323 333/333 332/332
f 311/311 333/333 323/323
f 332/332 333/333 334/334
f 311/311 335/335 333/333
f 311/311 320/320 335/335
f 333/333 335/335 336/336
f 333/333 336/336 334/334
f 320/320 317/317 335/335
f 330/330 317/317 314/314
f 335/335 317/317 337/337
f 337/337 317/317 330/330
f 335/335 337/337 338/338
f 335/335 338/338 336/336
f 329/329 338/338 330/330
f 338/338 337/337 330/330
f 339/339 340/340 341/341
f 341/341 340/340 342/342
f 342/342 343/343 341/341
f 341/341 343/343 344/344
f 343/343 345/345 344/344
f 346/346 345/345 343/343
f 347/347 346/346 343/343
f 348/348 346/346 347/347
f 349/349 347/347 343/343
f 350/350 349/349 343/343
f 350/350 343/343 342/342
f 346/346 351/351 345/345
f 351/351 352/352 345/345
f 351/351 353/353 352/352
f 354/354 353/353 351/351
f 355/355 353/353 354/354
f 356/356 353/353 355/355
f 357/357 356/356 355/355
f 357/357 355/355 358/358
f 358/358 355/355 359/359
f 358/358 359/359 360/360
f 359/359 355/355 361/361
f 355/355 362/362 361/361
f 355/355 354/354 362/362
f 363/363 358/358 360/360
f 340/340 358/358 363/363
f 340/340 357/357 358/358
f 340/340 363/363 364/364
f 340/340 364/364 365/365
f 339/339 357/357 340/340
f 342/342 340/340 365/365
f 362/362 354/354 366/366
f 366/366 354/354 367/367
f 342/342 365/365 368/368
f 368/368 350/350 342/342
f 369/369 367/367 351/351
f 369/369 351/351 370/370
f 370/370 351/351 346/346
f 348/348 370/370 346/346
f 367/367 354/354 351/351
usemtl m1
f 371/371 372/372 373/373
f 373/373 372/372 374/374
f 373/373 374/374 375/375
f 376/376 371/371 373/373
f 377/377 371/371 376/376
f 376/376 373/373 378/378
f 378/378 373/373 375/375
f 376/376 378/378 379/379
f 380/380 381/381 382/382
f 382/382 381/381 383/383
f 382/382 383/383 384/384
f 385/385 380/380 382/382
f 386/386 382/382 384/384
f 385/385 382/382 386/386
f 384/384 383/383 387/387
f 388/388 386/386 384/384
f 389/389 390/390 391/391
f 392/392 390/390 389/389
f 393/393 392/392 389/389
f 389/389 391/391 394/394
f 395/395 389/389 394/394
f 393/393 389/389 395/395
f 395/395 394/394 396/396
f 397/397 393/393 395/395
f 398/398 399/399 400/400
f 398/398 401/401 399/399
f 401/401 402/402 399/399
f 403/403 401/401 398/398
f 404/404 401/401 403/403
f 398/398 400/400 405/405
f 406/406 398/398 405/405
f 403/403 398/398 406/406
f 407/407 408/408 409/409
f 409/409 408/408 410/410
f 408/408 411/411 410/410
f 409/409 410/410 412/412
f 410/410 411/411 413/413
f 407/407 414/414 408/408
f 414/414 415/415 408/408
f 408/408 415/415 411/411
f 416/416 417/417 418/418
f 419/419 416/416 418/418
f 420/420 416/416 419/419
f 419/419 418/418 421/421
f 422/422 419/419 421/421
f 418/418 417/417 423/423
f 418/418 423/423 424/424
f 421/421 418/418 424/424
f 425/425 426/426 427/427
f 427/427 426/426 428/428
f 426/426 429/429 428/428
f 427/427 428/428 430/430
f 428/428 429/429 431/431
f 425/425 432/432 426/426
f 432/432 433/433 426/426
f 426/426 433/433 429/429
f 434/434 435/435 436/436
f 434/434 437/437 435/435
f 437/437 438/438 435/435
f 439/439 437/437 434/434
f 439/439 440/440 437/437
f 441/441 434/434 436/436
f 442/442 434/434 441/441
f 442/442 439/439 434/434
f 443/443 444/444 445/445
f 443/443 445/445 446/446
f 446/446 445/445 447/447
f 445/445 448/448 447/447
f 449/449 448/448 445/445
f 444/444 449/449 445/445
f 447/447 448/448 450/450
f 449/449 451/451 448/448
f 452/452 453/453 454/454
f 453/453 455/455 454/454
f 456/456 455/455 453/453
f 457/457 456/456 453/453
f 457/457 453/453 458/458
f 459/459 456/456 457/457
f 460/460 453/453 452/452
f 461/461 457/457 460/460
f 462/462 463/463 464/464
f 462/462 464/464 465/465
f 465/465 464/464 466/466
f 464/464 467/467 466/466
f 464/464 468/468 467/467
f 463/463 468/468 464/464
f 466/466 467/467 469/469
f 468/468 470/470 467/467
f 471/471 472/472 473/473
f 472/472 474/474 473/473
f 472/472 475/475 474/474
f 476/476 475/475 472/472
f 477/477 476/476 472/472
f 476/476 478/478 475/475
f 479/479 472/472 471/471
f 480/480 476/476 479/479
f 481/481 482/482 483/483
f 481/481 484/484 482/482
f 485/485 481/481 483/483
f 486/486 481/481 485/485
f 485/485 483/483 487/487
f 483/483 482/482 488/488
f 489/489 483/483 488/488
f 487/487 483/483 489/489
f 490/490 491/491 492/492
f 493/493 491/491 490/490
f 494/494 490/490 492/492
f 495/495 490/490 494/494
f 494/494 492/492 496/496
f 492/492 491/491 497/497
f 492/492 497/497 498/498
f 496/496 492/492 498/498
f 499/499 500/500 501/501
f 500/500 502/502 501/501
f 499/499 501/501 503/503
f 503/503 501/501 504/504
f 505/505 499/499 503/503
f 506/506 500/500 499/499
f 506/506 499/499 507/507
f 507/507 499/499 505/505
f 508/508 509/509 510/510
f 510/510 509/509 511/511
f 508/508 510/510 512/512
f 512/512 510/510 513/513
f 514/514 508/508 512/512
f 515/515 509/509 508/508
f 516/516 515/515 508/508
f 516/516 508/508 514/514
