mtllib arms3014.mtl
o arms3014
v 0.36000 -0.03600 1.78380 0.976 0.000 0.000
v 0.66240 0.03240 1.78380 1.000 0.000 0.000
v 0.66240 -0.03240 1.78380 1.000 0.000 0.000
v 0.36000 0.03600 1.78380 0.976 0.000 0.000
v 0.00000 0.04680 1.78380 0.965 0.000 0.000
v 0.00000 -0.04680 1.78380 0.965 0.000 0.000
v -0.35820 -0.05400 1.78380 0.922 0.000 0.000
v -0.35820 0.05400 1.78380 0.922 0.000 0.000
v 0.66240 -0.03240 1.78380 0.988 0.000 0.000
v 0.66240 0.03240 1.78380 0.988 0.000 0.000
v 0.67500 -0.00180 1.87920 1.000 0.000 0.000
v 0.68220 0.03240 1.83240 0.980 0.000 0.000
v 0.73260 0.03240 1.88100 0.980 0.000 0.000
v 0.75240 0.03240 1.95480 0.969 0.000 0.000
v 0.75240 -0.03240 1.95480 0.969 0.000 0.000
v 0.73260 -0.03240 1.88100 0.980 0.000 0.000
v 0.68220 -0.03240 1.83240 0.980 0.000 0.000
v 0.95220 -0.03960 2.03940 0.000 0.396 0.000
v 0.97920 0.00000 2.01060 0.000 0.502 0.000
v 0.97920 0.00000 2.06820 0.000 0.478 0.000
v 0.92340 0.00000 2.01060 0.000 0.498 0.000
v 0.92340 0.00000 2.06820 0.000 0.471 0.000
v 0.95220 0.03960 2.03940 0.000 0.396 0.000
v 0.75780 -0.01080 1.97280 0.000 0.478 0.000
v 0.82800 -0.00900 1.96380 0.000 0.490 0.000
v 0.77040 -0.00540 2.00160 0.000 0.439 0.000
v 0.83340 -0.00360 1.98540 0.000 0.463 0.000
v 0.88020 -0.00360 1.99260 0.000 0.471 0.000
v 0.89640 -0.00720 1.97820 0.000 0.498 0.000
v 0.93240 -0.00360 2.03040 0.000 0.482 0.000
v 0.94860 -0.00720 2.02140 0.000 0.502 0.000
v 0.72180 -0.01260 1.96740 0.000 0.490 0.000
v 0.70020 -0.00720 2.00880 0.000 0.412 0.000
v 0.68580 -0.01440 1.95300 0.000 0.498 0.000
v 0.62820 -0.00720 2.00160 0.000 0.373 0.000
v 0.58680 -0.01080 1.98180 0.000 0.420 0.000
v 0.56880 -0.01440 1.95300 0.000 0.502 0.000
v 0.77040 0.00540 2.00160 0.000 0.439 0.000
v 0.82800 0.00900 1.96380 0.000 0.490 0.000
v 0.75780 0.01080 1.97280 0.000 0.490 0.000
v 0.83340 0.00360 1.98540 0.000 0.463 0.000
v 0.88020 0.00360 1.99260 0.000 0.471 0.000
v 0.89640 0.00720 1.97820 0.000 0.498 0.000
v 0.93240 0.00360 2.03040 0.000 0.482 0.000
v 0.94860 0.00720 2.02140 0.000 0.502 0.000
v 0.72180 0.01260 1.96740 0.000 0.490 0.000
v 0.70020 0.00720 2.00880 0.000 0.412 0.000
v 0.68580 0.01440 1.95300 0.000 0.498 0.000
v 0.62820 0.00720 2.00160 0.000 0.373 0.000
v 0.58680 0.01080 1.98180 0.000 0.420 0.000
v 0.56880 0.01440 1.95300 0.000 0.502 0.000
v 0.77040 -0.00540 2.00160 0.000 0.420 0.000
v 0.83340 -0.00360 1.98540 0.000 0.439 0.000
v 0.77040 0.00540 2.00160 0.000 0.420 0.000
v 0.83340 0.00360 1.98540 0.000 0.439 0.000
v 0.88020 -0.00360 1.99260 0.000 0.447 0.000
v 0.88020 0.00360 1.99260 0.000 0.447 0.000
v 0.93240 -0.00360 2.03040 0.000 0.463 0.000
v 0.93240 0.00360 2.03040 0.000 0.463 0.000
v 0.70020 -0.00720 2.00880 0.000 0.392 0.000
v 0.70020 0.00720 2.00880 0.000 0.392 0.000
v 0.62820 0.00720 2.00160 0.000 0.353 0.000
v 0.62820 -0.00720 2.00160 0.000 0.353 0.000
v 0.58680 0.01080 1.98180 0.000 0.396 0.000
v 0.58680 -0.01080 1.98180 0.000 0.396 0.000
v 0.56880 0.01440 1.95300 0.000 0.478 0.000
v 0.56880 -0.01440 1.95300 0.000 0.478 0.000
v 0.94860 -0.00720 2.02140 0.000 0.502 0.000
v 0.89640 -0.00720 1.97820 0.000 0.502 0.000
v 0.89640 0.00720 1.97820 0.000 0.502 0.000
v 0.94860 0.00720 2.02140 0.000 0.502 0.000
v 0.82800 0.00900 1.96380 0.000 0.498 0.000
v 0.82800 -0.00900 1.96380 0.000 0.498 0.000
v 0.75780 0.01080 1.97280 0.000 0.490 0.000
v 0.75780 -0.01080 1.97280 0.000 0.490 0.000
v 0.72180 0.01260 1.96740 0.000 0.502 0.000
v 0.72180 -0.01260 1.96740 0.000 0.502 0.000
v 0.68580 0.01440 1.95300 0.000 0.502 0.000
v 0.68580 -0.01440 1.95300 0.000 0.502 0.000
v -0.75780 0.00000 1.72800 0.000 0.365 0.000
v -0.62820 -0.00540 1.72800 0.000 0.459 0.000
v -0.62820 0.00540 1.72800 0.000 0.459 0.000
v 0.08640 -0.02340 1.76940 0.000 0.478 0.000
v 0.08640 0.02340 1.76940 0.000 0.478 0.000
v 0.10620 0.03060 1.78740 0.000 0.502 0.000
v 0.10620 -0.03060 1.78740 0.000 0.498 0.000
v -0.15480 0.03060 1.78740 0.000 0.482 0.000
v -0.13500 0.02340 1.76940 0.000 0.455 0.000
v -0.13500 -0.02340 1.76940 0.000 0.455 0.000
v -0.15480 -0.03060 1.78740 0.000 0.482 0.000
v 0.87660 -0.01260 1.77480 0.000 0.502 0.000
v 0.83160 0.01260 1.74240 0.000 0.502 0.000
v 0.83160 -0.01260 1.74240 0.000 0.502 0.000
v 0.87660 0.01260 1.77480 0.000 0.502 0.000
v 0.77400 0.01260 1.76580 0.000 0.502 0.000
v 0.77400 -0.01260 1.76580 0.000 0.502 0.000
v 0.74340 0.01260 1.82340 0.000 0.502 0.000
v 0.74340 -0.01260 1.82340 0.000 0.502 0.000
v 0.87660 -0.01260 1.77480 0.000 0.502 0.000
v 0.83160 -0.01260 1.74240 0.000 0.502 0.000
v 0.88740 -0.01260 1.76400 0.000 0.502 0.000
v 0.83160 -0.01260 1.72080 0.000 0.502 0.000
v 0.75960 -0.01260 1.75140 0.000 0.502 0.000
v 0.77400 -0.01260 1.76580 0.000 0.502 0.000
v 0.74340 -0.01260 1.82340 0.000 0.502 0.000
v 0.72360 -0.01260 1.82340 0.000 0.502 0.000
v 0.88740 0.01260 1.76400 0.000 0.502 0.000
v 0.83160 0.01260 1.74240 0.000 0.502 0.000
v 0.87660 0.01260 1.77480 0.000 0.502 0.000
v 0.83160 0.01260 1.72080 0.000 0.502 0.000
v 0.75960 0.01260 1.75140 0.000 0.502 0.000
v 0.77400 0.01260 1.76580 0.000 0.502 0.000
v 0.74340 0.01260 1.82340 0.000 0.502 0.000
v 0.72360 0.01260 1.82340 0.000 0.502 0.000
v 0.80460 0.00720 1.75680 0.000 0.502 0.000
v 0.81720 0.00720 1.75680 0.000 0.502 0.000
v 0.81720 -0.00720 1.75680 0.000 0.502 0.000
v 0.80460 -0.00720 1.75680 0.000 0.502 0.000
v 0.82440 -0.00720 1.77840 0.000 0.502 0.000
v 0.83520 -0.00720 1.77120 0.000 0.502 0.000
v 0.83520 0.00720 1.77120 0.000 0.502 0.000
v 0.81720 0.00720 1.75680 0.000 0.502 0.000
v 0.84060 0.00720 1.78740 0.000 0.502 0.000
v 0.84060 -0.00720 1.78740 0.000 0.502 0.000
v 0.82980 -0.00720 1.79820 0.000 0.502 0.000
v 0.82440 0.00720 1.77840 0.000 0.502 0.000
v 0.81720 0.00720 1.75680 0.000 0.502 0.000
v 0.80460 0.00720 1.75680 0.000 0.502 0.000
v 0.83520 0.00720 1.77120 0.000 0.502 0.000
v 0.82440 -0.00720 1.77840 0.000 0.502 0.000
v 0.82980 0.00720 1.79820 0.000 0.502 0.000
v 0.82980 -0.00720 1.79820 0.000 0.502 0.000
v 0.80460 -0.00720 1.75680 0.000 0.502 0.000
v 0.84060 0.00720 1.78740 0.000 0.502 0.000
v 0.95400 -0.03240 1.63440 0.000 0.482 0.000
v 0.97200 -0.03240 1.62720 0.000 0.502 0.000
v 0.97200 -0.05220 1.65420 0.000 0.373 0.000
v 0.99000 -0.03240 1.63440 0.000 0.502 0.000
v 0.94680 -0.03060 1.65240 0.000 0.482 0.000
v 0.95400 -0.02880 1.67040 0.000 0.431 0.000
v 0.97200 -0.02880 1.67760 0.000 0.384 0.000
v 0.99000 -0.02880 1.67040 0.000 0.486 0.000
v 0.99720 -0.03060 1.65240 0.000 0.486 0.000
v 0.97200 -0.00900 1.65060 0.000 0.502 0.000
v 0.97200 0.05220 1.65420 0.000 0.373 0.000
v 0.97200 0.03240 1.62720 0.000 0.502 0.000
v 0.95400 0.03240 1.63440 0.000 0.482 0.000
v 0.99000 0.03240 1.63440 0.000 0.502 0.000
v 0.94680 0.03060 1.65240 0.000 0.482 0.000
v 0.95400 0.02880 1.67040 0.000 0.431 0.000
v 0.97200 0.02880 1.67760 0.000 0.384 0.000
v 0.99000 0.02880 1.67040 0.000 0.486 0.000
v 0.99720 0.03060 1.65240 0.000 0.486 0.000
v 0.97200 0.00900 1.65060 0.000 0.502 0.000
v -0.13500 0.02340 1.76940 0.000 0.455 0.000
v 0.08640 0.02340 1.76940 0.000 0.478 0.000
v 0.08640 -0.02340 1.76940 0.000 0.478 0.000
v -0.13500 -0.02340 1.76940 0.000 0.455 0.000
v -0.15480 -0.03060 1.78740 0.000 0.482 0.000
v 0.10620 -0.03060 1.78740 0.000 0.498 0.000
v -0.15480 0.03060 1.78740 0.000 0.482 0.000
v 0.08640 0.02340 1.76940 0.000 0.478 0.000
v -0.13500 0.02340 1.76940 0.000 0.455 0.000
v 0.10620 0.03060 1.78740 0.000 0.502 0.000
v 0.79200 0.01800 1.80720 0.000 0.467 0.000
v 0.85680 0.01620 1.76760 0.000 0.475 0.000
v 0.86400 0.01980 1.77480 0.000 0.494 0.000
v 0.79200 0.02160 1.81800 0.000 0.486 0.000
v 0.87840 0.02160 1.71360 0.000 0.478 0.000
v 0.89280 0.02520 1.70640 0.000 0.502 0.000
v 0.72180 0.01980 1.80900 0.000 0.455 0.000
v 0.71100 0.02340 1.81980 0.000 0.475 0.000
v 0.86400 -0.01980 1.77480 0.000 0.490 0.000
v 0.85680 -0.01620 1.76760 0.000 0.478 0.000
v 0.79200 -0.01800 1.80720 0.000 0.471 0.000
v 0.79200 -0.02160 1.81800 0.000 0.486 0.000
v 0.87840 -0.02160 1.71360 0.000 0.478 0.000
v 0.89280 -0.02520 1.70640 0.000 0.502 0.000
v 0.72180 -0.01980 1.80900 0.000 0.455 0.000
v 0.71100 -0.02340 1.81980 0.000 0.475 0.000
v 0.87840 0.02160 1.71360 0.000 0.478 0.000
v 0.85680 -0.01620 1.76760 0.000 0.478 0.000
v 0.85680 0.01620 1.76760 0.000 0.475 0.000
v 0.79200 -0.01800 1.80720 0.000 0.471 0.000
v 0.79200 0.01800 1.80720 0.000 0.467 0.000
v 0.72180 0.01980 1.80900 0.000 0.455 0.000
v 0.71100 -0.02340 1.81980 0.000 0.475 0.000
v 0.71100 0.02340 1.81980 0.000 0.475 0.000
v 0.88740 -0.01260 1.76400 0.000 0.502 0.000
v 0.83160 0.01260 1.72080 0.000 0.502 0.000
v 0.88740 0.01260 1.76400 0.000 0.502 0.000
v 0.83160 -0.01260 1.72080 0.000 0.502 0.000
v 0.75960 -0.01260 1.75140 0.000 0.502 0.000
v 0.75960 0.01260 1.75140 0.000 0.502 0.000
v 0.72360 -0.01260 1.82340 0.000 0.502 0.000
v 0.72360 0.01260 1.82340 0.000 0.502 0.000
v 0.87840 -0.02160 1.71360 0.000 0.478 0.000
v 0.89280 0.02520 1.70640 0.000 0.502 0.000
v 0.87840 0.02160 1.71360 0.000 0.478 0.000
v 0.89280 -0.02520 1.70640 0.000 0.502 0.000
v 0.95400 0.02160 1.83240 0.000 0.000 0.447
v 0.86400 0.01980 1.77480 0.000 0.000 0.478
v 0.84240 0.02160 1.90980 0.000 0.000 0.431
v 0.79200 0.02160 1.81800 0.000 0.000 0.482
v 0.89280 0.02520 1.70640 0.000 0.000 0.478
v 1.03860 0.02520 1.70640 0.000 0.000 0.467
v 0.88020 0.03240 1.62720 0.000 0.000 0.459
v 1.05840 0.03240 1.62720 0.000 0.000 0.463
v 0.92160 0.03240 1.58040 0.000 0.000 0.463
v 1.02420 0.03240 1.58040 0.000 0.000 0.463
v 0.71100 0.02340 1.81980 0.000 0.000 0.486
v 0.70200 0.02520 1.94220 0.000 0.000 0.478
v 0.65700 0.02520 1.82160 0.000 0.000 0.490
v 0.79200 -0.02160 1.81800 0.000 0.000 0.482
v 0.86400 -0.01980 1.77480 0.000 0.000 0.467
v 0.84240 -0.02160 1.90980 0.000 0.000 0.431
v 0.95400 -0.02160 1.83240 0.000 0.000 0.447
v 0.89280 -0.02520 1.70640 0.000 0.000 0.478
v 1.03860 -0.02520 1.70640 0.000 0.000 0.467
v 0.88020 -0.03240 1.62720 0.000 0.000 0.459
v 1.05840 -0.03240 1.62720 0.000 0.000 0.463
v 0.92160 -0.03240 1.58040 0.000 0.000 0.463
v 1.02420 -0.03240 1.58040 0.000 0.000 0.463
v 0.71100 -0.02340 1.81980 0.000 0.000 0.486
v 0.70200 -0.02520 1.94220 0.000 0.000 0.478
v 0.65700 -0.02520 1.82160 0.000 0.000 0.490
v 0.65700 0.02520 1.82160 0.000 0.000 0.502
v 0.71100 -0.02340 1.81980 0.000 0.000 0.502
v 0.65700 -0.02520 1.82160 0.000 0.000 0.502
v 0.71100 0.02340 1.81980 0.000 0.000 0.502
v 0.92160 -0.03240 1.58040 0.000 0.000 0.486
v 1.02420 0.03240 1.58040 0.000 0.000 0.494
v 1.02420 -0.03240 1.58040 0.000 0.000 0.494
v 0.92160 0.03240 1.58040 0.000 0.000 0.486
v 0.89280 0.02520 1.70640 0.000 0.000 0.486
v 0.88020 0.03240 1.62720 0.000 0.000 0.471
v 0.89280 -0.02520 1.70640 0.000 0.000 0.486
v 0.88020 -0.03240 1.62720 0.000 0.000 0.471
v 0.92160 0.03240 1.58040 0.000 0.000 0.486
v 0.92160 -0.03240 1.58040 0.000 0.000 0.486
v 0.84240 -0.02160 1.90980 0.000 0.000 0.404
v 0.95400 -0.02160 1.83240 0.000 0.000 0.447
v 0.84240 0.02160 1.90980 0.000 0.000 0.404
v 0.95400 0.02160 1.83240 0.000 0.000 0.447
v 1.03860 -0.02520 1.70640 0.000 0.000 0.404
v 1.03860 0.02520 1.70640 0.000 0.000 0.404
v 1.05840 -0.03240 1.62720 0.000 0.000 0.471
v 1.05840 0.03240 1.62720 0.000 0.000 0.471
v 1.02420 -0.03240 1.58040 0.000 0.000 0.494
v 1.02420 0.03240 1.58040 0.000 0.000 0.494
v 0.70200 -0.02520 1.94220 0.000 0.000 0.502
v 0.70200 0.02520 1.94220 0.000 0.000 0.502
v -0.21780 0.09720 1.97100 0.843 0.000 0.000
v -0.18360 0.09720 1.84500 0.945 0.000 0.000
v -0.14220 0.09720 1.92240 1.000 0.000 0.000
v -0.25560 0.09720 1.89360 0.980 0.000 0.000
v -0.21780 -0.09720 1.97100 0.855 0.000 0.000
v -0.18360 -0.09720 1.84500 0.945 0.000 0.000
v -0.25560 -0.09720 1.89360 0.980 0.000 0.000
v -0.14220 -0.09720 1.92240 1.000 0.000 0.000
v -0.21060 0.05220 1.94580 0.804 0.000 0.000
v -0.25560 0.09720 1.89360 0.980 0.000 0.000
v -0.23580 0.05220 1.89720 0.941 0.000 0.000
v -0.21780 0.09720 1.97100 0.843 0.000 0.000
v -0.14220 0.09720 1.92240 0.894 0.000 0.000
v -0.16380 0.05220 1.91700 0.894 0.000 0.000
v -0.19080 0.05220 1.87020 0.984 0.000 0.000
v -0.23580 0.05220 1.89720 0.973 0.000 0.000
v -0.18360 0.09720 1.84500 0.984 0.000 0.000
v -0.23580 -0.05220 1.89720 0.941 0.000 0.000
v -0.25560 -0.09720 1.89360 0.980 0.000 0.000
v -0.21060 -0.05220 1.94580 0.804 0.000 0.000
v -0.21780 -0.09720 1.97100 0.843 0.000 0.000
v -0.14220 -0.09720 1.92240 0.894 0.000 0.000
v -0.16380 -0.05220 1.91700 0.894 0.000 0.000
v -0.19080 -0.05220 1.87020 0.984 0.000 0.000
v -0.23580 -0.05220 1.89720 0.973 0.000 0.000
v -0.18360 -0.09720 1.84500 0.984 0.000 0.000
v 0.73260 0.03240 1.88100 0.965 0.000 0.000
v 0.36000 0.03600 1.78380 0.957 0.000 0.000
v 0.36000 0.03600 1.95480 0.929 0.000 0.000
v 0.00000 0.04680 1.78380 0.929 0.000 0.000
v 0.00000 0.04680 1.95480 0.906 0.000 0.000
v -0.21060 0.05400 1.95480 0.875 0.000 0.000
v -0.29880 0.05400 1.92960 0.851 0.000 0.000
v 0.68220 0.03240 1.83240 0.973 0.000 0.000
v 0.66240 0.03240 1.78380 0.976 0.000 0.000
v 0.75240 0.03240 1.95480 0.945 0.000 0.000
v -0.34200 0.05400 1.88100 0.871 0.000 0.000
v -0.35820 0.05400 1.83240 0.898 0.000 0.000
v -0.35820 0.05400 1.78380 0.914 0.000 0.000
v 0.36000 -0.03600 1.95480 0.929 0.000 0.000
v 0.73260 -0.03240 1.88100 0.965 0.000 0.000
v 0.75240 -0.03240 1.95480 0.945 0.000 0.000
v 0.36000 -0.03600 1.78380 0.957 0.000 0.000
v 0.00000 -0.04680 1.78380 0.929 0.000 0.000
v 0.68220 -0.03240 1.83240 0.973 0.000 0.000
v 0.66240 -0.03240 1.78380 0.976 0.000 0.000
v 0.00000 -0.04680 1.95480 0.906 0.000 0.000
v -0.21060 -0.05400 1.95480 0.875 0.000 0.000
v -0.29880 -0.05400 1.92960 0.851 0.000 0.000
v -0.34200 -0.05400 1.88100 0.871 0.000 0.000
v -0.35820 -0.05400 1.83240 0.898 0.000 0.000
v -0.35820 -0.05400 1.78380 0.914 0.000 0.000
v -0.29880 -0.05400 1.92960 0.765 0.000 0.000
v -0.34200 0.05400 1.88100 0.820 0.000 0.000
v -0.34200 -0.05400 1.88100 0.820 0.000 0.000
v -0.29880 0.05400 1.92960 0.765 0.000 0.000
v -0.35820 0.05400 1.83240 0.871 0.000 0.000
v -0.35820 -0.05400 1.83240 0.871 0.000 0.000
v -0.35820 0.05400 1.78380 0.925 0.000 0.000
v -0.35820 -0.05400 1.78380 0.925 0.000 0.000
v -0.21060 -0.05400 1.95480 0.847 0.000 0.000
v -0.21060 0.05400 1.95480 0.847 0.000 0.000
v 0.00000 -0.04680 1.95480 0.875 0.000 0.000
v 0.00000 0.04680 1.95480 0.875 0.000 0.000
v 0.36000 -0.03600 1.95480 0.918 0.000 0.000
v 0.36000 0.03600 1.95480 0.918 0.000 0.000
v 0.75240 -0.03240 1.95480 0.925 0.000 0.000
v 0.75240 0.03240 1.95480 0.925 0.000 0.000
v 0.24300 0.00000 1.74060 0.000 0.949 0.000
v 0.19440 -0.00360 1.66140 0.000 0.906 0.000
v 0.18360 -0.00720 1.69740 0.000 0.957 0.000
v 0.10800 -0.01080 1.67760 0.000 0.961 0.000
v 0.12240 -0.00720 1.58580 0.000 0.894 0.000
v 0.07020 -0.01440 1.69920 0.000 0.969 0.000
v 0.01260 -0.00720 1.52100 0.000 0.875 0.000
v -0.13680 -0.01440 1.66500 0.000 0.953 0.000
v -0.12600 -0.00540 1.48500 0.000 0.875 0.000
v -0.19260 -0.01440 1.62180 0.000 0.914 0.000
v -0.25740 -0.00540 1.47960 0.000 0.875 0.000
v -0.27000 -0.01440 1.60560 0.000 0.914 0.000
v -0.37080 -0.00720 1.51200 0.000 0.875 0.000
v -0.32760 -0.01440 1.62720 0.000 0.914 0.000
v -0.45000 -0.00720 1.56600 0.000 0.875 0.000
v -0.37980 -0.01440 1.67040 0.000 0.914 0.000
v -0.50760 -0.00900 1.62900 0.000 0.875 0.000
v -0.41220 -0.01440 1.72800 0.000 0.910 0.000
v -0.57240 -0.00900 1.69020 0.000 0.882 0.000
v -0.62820 -0.00540 1.72800 0.000 0.882 0.000
v 0.18360 0.00720 1.69740 0.000 0.957 0.000
v 0.19440 0.00360 1.66140 0.000 0.906 0.000
v 0.10800 0.01080 1.67760 0.000 0.961 0.000
v 0.12240 0.00720 1.58580 0.000 0.894 0.000
v 0.07020 0.01440 1.69920 0.000 0.969 0.000
v 0.01260 0.00720 1.52100 0.000 0.875 0.000
v -0.13680 0.01440 1.66500 0.000 0.941 0.000
v -0.12600 0.00540 1.48500 0.000 0.875 0.000
v -0.19260 0.01440 1.62180 0.000 0.914 0.000
v -0.25740 0.00540 1.47960 0.000 0.875 0.000
v -0.27000 0.01440 1.60560 0.000 0.914 0.000
v -0.37080 0.00720 1.51200 0.000 0.875 0.000
v -0.32760 0.01440 1.62720 0.000 0.914 0.000
v -0.45000 0.00720 1.56600 0.000 0.875 0.000
v -0.37980 0.01440 1.67040 0.000 0.914 0.000
v -0.50760 0.00900 1.62900 0.000 0.875 0.000
v -0.41220 0.01440 1.72800 0.000 0.910 0.000
v -0.57240 0.00900 1.69020 0.000 0.882 0.000
v -0.62820 0.00540 1.72800 0.000 0.882 0.000
v 0.05400 -0.01440 1.73520 0.000 0.976 0.000
v -0.11880 -0.01440 1.72260 0.000 0.973 0.000
v -0.11700 -0.01440 1.77300 0.000 1.000 0.000
v 0.07740 -0.01440 1.77300 0.000 1.000 0.000
v 0.07020 -0.01440 1.69920 0.000 0.969 0.000
v -0.13680 -0.01440 1.66500 0.000 0.953 0.000
v -0.11700 0.01440 1.77300 0.000 1.000 0.000
v -0.11880 0.01440 1.72260 0.000 0.973 0.000
v 0.05400 0.01440 1.73520 0.000 0.976 0.000
v 0.07740 0.01440 1.77300 0.000 1.000 0.000
v 0.07020 0.01440 1.69920 0.000 0.969 0.000
v -0.13680 0.01440 1.66500 0.000 0.941 0.000
v 0.24300 0.00000 1.74060 0.000 0.380 0.000
v 0.20520 0.00000 1.62540 0.000 0.376 0.000
v 0.19440 -0.00360 1.66140 0.000 0.435 0.000
v 0.12240 -0.00720 1.58580 0.000 0.427 0.000
v 0.13320 0.00000 1.53540 0.000 0.373 0.000
v 0.01260 -0.00720 1.52100 0.000 0.420 0.000
v 0.03060 0.00000 1.47060 0.000 0.365 0.000
v -0.11520 0.00000 1.43100 0.000 0.384 0.000
v -0.12600 -0.00540 1.48500 0.000 0.420 0.000
v -0.25740 0.00000 1.42560 0.000 0.357 0.000
v -0.25740 -0.00540 1.47960 0.000 0.420 0.000
v -0.38700 0.00000 1.45800 0.000 0.361 0.000
v -0.37080 -0.00720 1.51200 0.000 0.420 0.000
v -0.48240 0.00000 1.52100 0.000 0.345 0.000
v -0.45000 -0.00720 1.56600 0.000 0.420 0.000
v -0.50760 -0.00900 1.62900 0.000 0.420 0.000
v -0.56520 0.00000 1.60740 0.000 0.345 0.000
v -0.57240 -0.00900 1.69020 0.000 0.424 0.000
v -0.64440 0.00000 1.67040 0.000 0.314 0.000
v -0.62820 -0.00540 1.72800 0.000 0.424 0.000
v -0.75780 0.00000 1.72800 0.000 0.314 0.000
v -0.12600 0.00540 1.48500 0.000 0.420 0.000
v -0.25740 0.00540 1.47960 0.000 0.420 0.000
v -0.37080 0.00720 1.51200 0.000 0.420 0.000
v -0.45000 0.00720 1.56600 0.000 0.420 0.000
v -0.50760 0.00900 1.62900 0.000 0.420 0.000
v -0.57240 0.00900 1.69020 0.000 0.424 0.000
v -0.62820 0.00540 1.72800 0.000 0.424 0.000
v 0.01260 0.00720 1.52100 0.000 0.420 0.000
v 0.12240 0.00720 1.58580 0.000 0.427 0.000
v 0.19440 0.00360 1.66140 0.000 0.435 0.000
v -0.32760 -0.01440 1.62720 0.000 0.933 0.000
v -0.27000 -0.01440 1.60560 0.000 0.933 0.000
v -0.32760 0.01440 1.62720 0.000 0.933 0.000
v -0.27000 0.01440 1.60560 0.000 0.933 0.000
v -0.37980 0.01440 1.67040 0.000 0.925 0.000
v -0.37980 -0.01440 1.67040 0.000 0.925 0.000
v -0.19260 0.01440 1.62180 0.000 0.937 0.000
v -0.19260 -0.01440 1.62180 0.000 0.937 0.000
v -0.13680 -0.01440 1.66500 0.000 0.965 0.000
v -0.13680 0.01440 1.66500 0.000 0.957 0.000
v -0.11880 0.01440 1.72260 0.000 0.973 0.000
v -0.11880 -0.01440 1.72260 0.000 0.973 0.000
v -0.11700 0.01440 1.77300 0.000 1.000 0.000
v -0.11700 -0.01440 1.77300 0.000 1.000 0.000
v -0.41220 0.01440 1.72800 0.000 0.886 0.000
v -0.41220 -0.01440 1.72800 0.000 0.886 0.000
v -0.62820 0.00540 1.72800 0.000 0.835 0.000
v -0.41220 -0.01440 1.72800 0.000 0.886 0.000
v -0.41220 0.01440 1.72800 0.000 0.886 0.000
v -0.62820 -0.00540 1.72800 0.000 0.835 0.000
v 0.24300 0.00000 1.74060 0.000 0.937 0.000
v 0.18360 0.00720 1.69740 0.000 0.933 0.000
v 0.18360 -0.00720 1.69740 0.000 0.933 0.000
v 0.07020 -0.01440 1.69920 0.000 0.976 0.000
v 0.10800 0.01080 1.67760 0.000 0.973 0.000
v 0.07020 0.01440 1.69920 0.000 0.976 0.000
v 0.10800 -0.01080 1.67760 0.000 0.973 0.000
v 0.18360 -0.00720 1.69740 0.000 0.933 0.000
v 0.18360 0.00720 1.69740 0.000 0.933 0.000
v 0.05400 0.01440 1.73520 0.000 0.984 0.000
v 0.05400 -0.01440 1.73520 0.000 0.984 0.000
v 0.07740 -0.01440 1.77300 0.000 1.000 0.000
v 0.07740 0.01440 1.77300 0.000 1.000 0.000
v 0.04860 0.72000 1.98900 0.000 0.000 0.000
v 0.02700 0.73260 1.96740 0.000 0.000 0.000
v -0.00180 0.67500 1.98000 0.000 0.000 0.000
v -0.02700 0.69300 1.95300 0.000 0.000 0.000
v 0.02700 0.73260 1.96740 0.000 0.000 0.000
v 0.00720 0.67500 1.94220 0.000 0.000 0.000
v -0.02700 0.69300 1.95300 0.000 0.000 0.000
v 0.05580 0.72000 1.96020 0.000 0.000 0.000
v 0.06300 0.69840 1.97820 0.000 0.000 0.000
v -0.00180 0.67500 1.98000 0.000 0.000 0.000
v 0.01440 0.64980 1.96560 0.000 0.000 0.000
v 0.04860 0.72000 1.98900 0.000 0.000 0.000
v 0.00720 0.67500 1.94220 0.000 0.000 0.000
v 0.06300 -0.69840 1.97820 0.000 0.000 0.000
v 0.00720 -0.67500 1.94220 0.000 0.000 0.000
v 0.01440 -0.64980 1.96560 0.000 0.000 0.000
v 0.05580 -0.72000 1.96020 0.000 0.000 0.000
v -0.00180 -0.67500 1.98000 0.000 0.000 0.000
v 0.04860 -0.72000 1.98900 0.000 0.000 0.000
v 0.02700 -0.73260 1.96740 0.000 0.000 0.000
v -0.02700 -0.69300 1.95300 0.000 0.000 0.000
v 0.00720 -0.67500 1.94220 0.000 0.000 0.000
v -0.00180 -0.67500 1.98000 0.000 0.000 0.000
v -0.02700 -0.69300 1.95300 0.000 0.000 0.000
v 0.02700 -0.73260 1.96740 0.000 0.000 0.000
v 0.04860 -0.72000 1.98900 0.000 0.000 0.000
v -0.15300 0.51660 1.96020 0.000 0.000 0.459
v -0.23580 0.36360 1.90980 0.000 0.000 0.443
v -0.20160 0.36360 1.96020 0.000 0.000 0.443
v -0.25380 0.20160 1.90800 0.000 0.000 0.439
v -0.21420 0.20160 1.98000 0.000 0.000 0.427
v -0.26820 0.11700 1.90800 0.000 0.000 0.400
v -0.26280 0.20160 1.89000 0.000 0.000 0.412
v -0.27900 0.11700 1.88640 0.000 0.000 0.380
v -0.22320 0.08820 1.90080 0.000 0.000 0.482
v -0.20700 0.08820 1.93140 0.000 0.000 0.482
v -0.22680 0.11700 1.99620 0.000 0.000 0.380
v -0.11700 0.11700 1.92960 0.000 0.000 0.494
v -0.21420 0.20160 1.98000 0.000 0.000 0.443
v -0.12960 0.20160 1.92600 0.000 0.000 0.494
v -0.17640 0.08820 1.91340 0.000 0.000 0.502
v -0.14040 0.35820 1.92600 0.000 0.000 0.494
v -0.20160 0.36360 1.96020 0.000 0.000 0.455
v -0.10440 0.49140 1.93680 0.000 0.000 0.502
v -0.15300 0.51660 1.96020 0.000 0.000 0.467
v -0.05940 0.58140 1.95300 0.000 0.000 0.988
v -0.07920 0.61380 1.97100 0.000 0.000 0.922
v -0.17640 0.20160 1.83600 0.000 0.000 0.463
v -0.17100 0.11700 1.82340 0.000 0.000 0.443
v -0.19440 0.08820 1.88280 0.000 0.000 0.482
v -0.17640 0.36360 1.86660 0.000 0.000 0.475
v -0.13680 0.52020 1.89720 0.000 0.000 0.482
v -0.06660 0.61380 1.92600 0.000 0.000 0.949
v 0.01440 0.64980 1.96560 0.000 0.000 0.980
v -0.00180 0.67500 1.98000 0.000 0.000 0.898
v 0.00720 0.67500 1.94220 0.000 0.000 0.922
v -0.25740 0.11700 1.87380 0.000 0.000 0.404
v -0.17100 0.11700 1.82340 0.000 0.000 0.435
v -0.24660 0.20160 1.87920 0.000 0.000 0.435
v -0.17640 0.20160 1.83600 0.000 0.000 0.467
v -0.23040 0.36360 1.89180 0.000 0.000 0.443
v -0.17820 0.52920 1.91340 0.000 0.000 0.463
v -0.13680 0.52020 1.89720 0.000 0.000 0.475
v -0.18900 0.53280 1.91880 0.000 0.000 0.447
v -0.24480 0.36360 1.89720 0.000 0.000 0.420
v -0.09720 0.63180 1.93680 0.000 0.000 0.937
v -0.06660 0.61380 1.92600 0.000 0.000 0.941
v -0.10440 0.63540 1.94040 0.000 0.000 0.929
v -0.18180 0.52920 1.92600 0.000 0.000 0.463
v -0.09900 0.63180 1.94580 0.000 0.000 0.937
v -0.07920 0.61380 1.97100 0.000 0.000 0.910
v -0.02700 0.69300 1.95300 0.000 0.000 0.937
v -0.00180 0.67500 1.98000 0.000 0.000 0.886
v 0.00720 0.67500 1.94220 0.000 0.000 0.914
v -0.20160 -0.36360 1.96020 0.000 0.000 0.443
v -0.23580 -0.36360 1.90980 0.000 0.000 0.443
v -0.15300 -0.51660 1.96020 0.000 0.000 0.459
v -0.18180 -0.52920 1.92600 0.000 0.000 0.463
v -0.09900 -0.63180 1.94580 0.000 0.000 0.937
v -0.07920 -0.61380 1.97100 0.000 0.000 0.910
v -0.02700 -0.69300 1.95300 0.000 0.000 0.937
v -0.00180 -0.67500 1.98000 0.000 0.000 0.925
v -0.10440 -0.63540 1.94040 0.000 0.000 0.929
v -0.18900 -0.53280 1.91880 0.000 0.000 0.447
v -0.24480 -0.36360 1.89720 0.000 0.000 0.420
v -0.25380 -0.20160 1.90800 0.000 0.000 0.439
v -0.21420 -0.20160 1.98000 0.000 0.000 0.427
v -0.26280 -0.20160 1.89000 0.000 0.000 0.412
v -0.26820 -0.11700 1.90800 0.000 0.000 0.400
v -0.22680 -0.11700 1.99620 0.000 0.000 0.380
v -0.27900 -0.11700 1.88640 0.000 0.000 0.380
v -0.22320 -0.08820 1.90080 0.000 0.000 0.482
v -0.20700 -0.08820 1.93140 0.000 0.000 0.482
v -0.11700 -0.11700 1.92960 0.000 0.000 0.494
v -0.21420 -0.20160 1.98000 0.000 0.000 0.443
v -0.12960 -0.20160 1.92600 0.000 0.000 0.494
v -0.17640 -0.08820 1.91340 0.000 0.000 0.502
v -0.14040 -0.35820 1.92600 0.000 0.000 0.494
v -0.20160 -0.36360 1.96020 0.000 0.000 0.455
v -0.10440 -0.49140 1.93680 0.000 0.000 0.502
v -0.15300 -0.51660 1.96020 0.000 0.000 0.467
v -0.05940 -0.58140 1.95300 0.000 0.000 0.988
v -0.07920 -0.61380 1.97100 0.000 0.000 0.922
v -0.17640 -0.20160 1.83600 0.000 0.000 0.463
v -0.17100 -0.11700 1.82340 0.000 0.000 0.443
v -0.19440 -0.08820 1.88280 0.000 0.000 0.482
v -0.17640 -0.36360 1.86660 0.000 0.000 0.475
v -0.13680 -0.52020 1.89720 0.000 0.000 0.482
v -0.06660 -0.61380 1.92600 0.000 0.000 0.949
v 0.01440 -0.64980 1.96560 0.000 0.000 0.980
v 0.00720 -0.67500 1.94220 0.000 0.000 0.961
v -0.00180 -0.67500 1.98000 0.000 0.000 0.937
v -0.23040 -0.36360 1.89180 0.000 0.000 0.443
v -0.17820 -0.52920 1.91340 0.000 0.000 0.463
v -0.09720 -0.63180 1.93680 0.000 0.000 0.937
v -0.06660 -0.61380 1.92600 0.000 0.000 0.941
v 0.00720 -0.67500 1.94220 0.000 0.000 0.953
v -0.13680 -0.52020 1.89720 0.000 0.000 0.475
v -0.24660 -0.20160 1.87920 0.000 0.000 0.435
v -0.17640 -0.20160 1.83600 0.000 0.000 0.467
v -0.25740 -0.11700 1.87380 0.000 0.000 0.404
v -0.17100 -0.11700 1.82340 0.000 0.000 0.435
v 0.09180 0.78660 1.98360 0.000 0.000 0.965
v 0.09180 0.87840 1.98360 0.000 0.000 0.792
v 0.07740 0.78840 1.98900 0.000 0.000 0.863
v 0.08100 0.78840 1.97280 0.000 0.000 0.882
v 0.04860 0.72000 1.98900 0.000 0.000 0.910
v 0.06300 0.69840 1.97820 0.000 0.000 0.973
v 0.05580 0.72000 1.96020 0.000 0.000 0.933
v 0.06660 0.79380 1.97820 0.000 0.000 0.914
v 0.02700 0.73260 1.96740 0.000 0.000 0.933
v 0.07740 -0.78840 1.98900 0.000 0.000 0.863
v 0.09180 -0.87840 1.98360 0.000 0.000 0.792
v 0.09180 -0.78660 1.98360 0.000 0.000 0.965
v 0.08100 -0.78840 1.97280 0.000 0.000 0.882
v 0.04860 -0.72000 1.98900 0.000 0.000 0.910
v 0.06300 -0.69840 1.97820 0.000 0.000 0.973
v 0.05580 -0.72000 1.96020 0.000 0.000 0.933
v 0.06660 -0.79380 1.97820 0.000 0.000 0.914
v 0.02700 -0.73260 1.96740 0.000 0.000 0.933
v 0.00900 -0.67140 1.95300 0.000 0.000 0.000
v 0.02340 -0.67140 1.95300 0.000 0.000 0.000
v 0.02340 0.00000 1.96380 0.000 0.000 0.000
v 0.00900 0.00000 1.96380 0.000 0.000 0.000
v 0.02340 0.67140 1.95300 0.000 0.000 0.000
v 0.00900 0.67140 1.95300 0.000 0.000 0.000
v 0.01620 0.00000 1.97280 0.000 0.000 0.000
v 0.01620 0.00000 1.95660 0.000 0.000 0.000
v 0.01620 -0.67140 1.96020 0.000 0.000 0.000
v 0.01620 -0.67140 1.94580 0.000 0.000 0.000
v 0.01620 0.67140 1.96020 0.000 0.000 0.000
v 0.01620 0.67140 1.94580 0.000 0.000 0.000
v -0.25362 -0.06480 1.85328 0.000 0.420 0.000
v -0.25560 -0.07200 1.86120 0.000 0.373 0.000
v -0.26604 -0.06480 1.85796 0.000 0.388 0.000
v -0.24516 -0.06480 1.86390 0.000 0.400 0.000
v -0.25758 -0.06480 1.86840 0.000 0.392 0.000
v -0.22680 -0.05220 1.86840 0.000 0.467 0.000
v -0.25020 -0.05220 1.83960 0.000 0.502 0.000
v -0.28440 -0.05220 1.85220 0.000 0.475 0.000
v -0.26100 -0.05220 1.88100 0.000 0.459 0.000
v -0.26604 0.06480 1.85796 0.000 0.388 0.000
v -0.25560 0.07200 1.86120 0.000 0.373 0.000
v -0.25362 0.06480 1.85328 0.000 0.420 0.000
v -0.24516 0.06480 1.86390 0.000 0.400 0.000
v -0.25758 0.06480 1.86840 0.000 0.392 0.000
v -0.22680 0.05220 1.86840 0.000 0.467 0.000
v -0.25020 0.05220 1.83960 0.000 0.502 0.000
v -0.28440 0.05220 1.85220 0.000 0.475 0.000
v -0.26100 0.05220 1.88100 0.000 0.459 0.000
vt 0.19531 0.27344
vt 0.11719 0.00781
vt 0.19531 0.00781
vt 0.11719 0.27344
vt 0.11719 0.50781
vt 0.19531 0.50781
vt 0.19531 0.64844
vt 0.11719 0.64844
vt 0.19531 0.66406
vt 0.11719 0.66406
vt 0.19531 0.78506
vt 0.14844 0.66406
vt 0.17969 0.66406
vt 0.19531 0.66406
vt 0.11719 0.66406
vt 0.14844 0.66406
vt 0.17969 0.66406
vt 0.67206 0.78144
vt 0.67206 0.74219
vt 0.71094 0.78144
vt 0.63281 0.78144
vt 0.67206 0.82031
vt 0.67206 0.78144
vt 0.72656 0.89844
vt 0.78906 0.89844
vt 0.71094 0.94531
vt 0.78906 0.94531
vt 0.83594 0.94531
vt 0.83594 0.89844
vt 0.88281 0.94531
vt 0.88281 0.89844
vt 0.69531 0.89844
vt 0.63281 0.94531
vt 0.63281 0.89844
vt 0.57031 0.94531
vt 0.57031 0.92969
vt 0.57031 0.89844
vt 0.71094 0.94531
vt 0.78906 0.89844
vt 0.72656 0.89844
vt 0.78906 0.94531
vt 0.83594 0.94531
vt 0.83594 0.89844
vt 0.88281 0.94531
vt 0.88281 0.89844
vt 0.69531 0.89844
vt 0.63281 0.94531
vt 0.63281 0.89844
vt 0.57031 0.94531
vt 0.57031 0.92969
vt 0.57031 0.89844
vt 0.77344 0.99219
vt 0.85156 0.99219
vt 0.77344 0.96094
vt 0.85156 0.96094
vt 0.88281 0.99219
vt 0.88281 0.96094
vt 0.92969 0.99219
vt 0.92969 0.96094
vt 0.71094 0.99219
vt 0.71094 0.96094
vt 0.66406 0.96094
vt 0.66406 0.99219
vt 0.60156 0.96094
vt 0.60156 0.99219
vt 0.57031 0.96094
vt 0.57031 0.99219
vt 0.88281 0.88278
vt 0.83594 0.88278
vt 0.83594 0.85138
vt 0.88281 0.85138
vt 0.78906 0.85138
vt 0.78906 0.88278
vt 0.72656 0.85138
vt 0.72656 0.88278
vt 0.67969 0.85138
vt 0.67969 0.88278
vt 0.63281 0.85138
vt 0.63281 0.88278
vt 0.58594 0.88281
vt 0.61719 0.80469
vt 0.57031 0.80469
vt 0.94531 0.92969
vt 0.99219 0.92969
vt 0.99219 0.97656
vt 0.94531 0.97656
vt 0.49619 0.96056
vt 0.49619 0.91369
vt 0.44431 0.91369
vt 0.44431 0.96056
vt 0.42969 0.96094
vt 0.36719 0.91406
vt 0.36719 0.96094
vt 0.42969 0.91406
vt 0.28869 0.91406
vt 0.28869 0.96094
vt 0.22656 0.91406
vt 0.22656 0.96094
vt 0.21094 0.96094
vt 0.13281 0.96094
vt 0.21094 0.91406
vt 0.13281 0.91406
vt 0.07031 0.91406
vt 0.07031 0.96094
vt 0.00781 0.96094
vt 0.00781 0.91406
vt 0.21094 0.91406
vt 0.13281 0.96094
vt 0.21094 0.96094
vt 0.13281 0.91406
vt 0.07031 0.91406
vt 0.07031 0.96094
vt 0.00781 0.96094
vt 0.00781 0.91406
vt 0.72656 0.75781
vt 0.72656 0.80469
vt 0.75781 0.80469
vt 0.75781 0.75781
vt 0.83594 0.75781
vt 0.83594 0.80469
vt 0.83594 0.83594
vt 0.75781 0.83594
vt 0.88281 0.83594
vt 0.88281 0.80469
vt 0.88281 0.75781
vt 0.83594 0.75781
vt 0.75781 0.80469
vt 0.75781 0.75781
vt 0.83594 0.80469
vt 0.83594 0.72656
vt 0.88281 0.75781
vt 0.88281 0.72656
vt 0.75781 0.72656
vt 0.88281 0.80469
vt 0.24219 0.80469
vt 0.19531 0.80469
vt 0.19531 0.85156
vt 0.24219 0.80469
vt 0.24219 0.85156
vt 0.24219 0.89844
vt 0.19531 0.89844
vt 0.24219 0.89844
vt 0.24219 0.85156
vt 0.19531 0.85156
vt 0.19531 0.85156
vt 0.19531 0.80469
vt 0.24219 0.80469
vt 0.24219 0.80469
vt 0.24219 0.85156
vt 0.24219 0.89844
vt 0.19531 0.89844
vt 0.24219 0.89844
vt 0.24219 0.85156
vt 0.19531 0.85156
vt 0.99219 0.92969
vt 0.99219 0.71094
vt 0.94531 0.71094
vt 0.94531 0.92969
vt 0.89844 0.92969
vt 0.89844 0.71094
vt 0.89844 0.92969
vt 0.94531 0.71094
vt 0.94531 0.92969
vt 0.89844 0.71094
vt 0.94531 0.85156
vt 0.94531 0.77344
vt 0.89844 0.77344
vt 0.89844 0.85156
vt 0.94531 0.71094
vt 0.89844 0.71094
vt 0.94531 0.92969
vt 0.89844 0.92969
vt 0.89844 0.77344
vt 0.94531 0.77344
vt 0.94531 0.85156
vt 0.89844 0.85156
vt 0.94531 0.71094
vt 0.89844 0.71094
vt 0.94531 0.92969
vt 0.89844 0.92969
vt 0.99219 0.71094
vt 0.94531 0.77344
vt 0.99219 0.77344
vt 0.94531 0.85156
vt 0.99219 0.85156
vt 0.99219 0.92969
vt 0.94531 0.97656
vt 0.99219 0.97656
vt 0.42969 0.96094
vt 0.36719 0.91406
vt 0.42969 0.91406
vt 0.36719 0.96094
vt 0.28869 0.96094
vt 0.28869 0.91406
vt 0.22656 0.96094
vt 0.22656 0.91406
vt 0.94531 0.92969
vt 0.99219 0.97656
vt 0.99219 0.92969
vt 0.94531 0.97656
vt 0.92969 0.30469
vt 0.83594 0.30469
vt 0.92969 0.38281
vt 0.83594 0.38281
vt 0.83594 0.19531
vt 0.92969 0.19531
vt 0.83594 0.13281
vt 0.92969 0.13281
vt 0.83594 0.08594
vt 0.92969 0.08594
vt 0.83594 0.44531
vt 0.92969 0.50781
vt 0.83594 0.50781
vt 0.83594 0.38281
vt 0.83594 0.30469
vt 0.92969 0.38281
vt 0.92969 0.30469
vt 0.83594 0.19531
vt 0.92969 0.19531
vt 0.83594 0.13281
vt 0.92969 0.13281
vt 0.83594 0.08594
vt 0.92969 0.08594
vt 0.83594 0.44531
vt 0.92969 0.50781
vt 0.83594 0.50781
vt 0.94531 0.69531
vt 0.99219 0.64844
vt 0.99219 0.69531
vt 0.94531 0.64844
vt 0.83594 0.07031
vt 0.92969 0.00781
vt 0.92969 0.07031
vt 0.83594 0.00781
vt 0.99219 0.63281
vt 0.99219 0.58594
vt 0.94531 0.63281
vt 0.94531 0.58594
vt 0.99219 0.52344
vt 0.94531 0.52344
vt 0.94531 0.38281
vt 0.94531 0.30469
vt 0.99219 0.38281
vt 0.99219 0.30469
vt 0.94531 0.19531
vt 0.99219 0.19531
vt 0.94531 0.13281
vt 0.99219 0.13281
vt 0.94531 0.08594
vt 0.99219 0.08594
vt 0.94531 0.50781
vt 0.99219 0.50781
vt 0.17969 0.80469
vt 0.11719 0.74219
vt 0.11719 0.80469
vt 0.11719 0.80469
vt 0.17969 0.80469
vt 0.11719 0.74219
vt 0.11719 0.80469
vt 0.11719 0.80469
vt 0.08594 0.89844
vt 0.00781 0.82031
vt 0.03906 0.89844
vt 0.08594 0.82031
vt 0.16644 0.82031
vt 0.13519 0.89844
vt 0.08594 0.89844
vt 0.03906 0.89844
vt 0.08594 0.82031
vt 0.03906 0.89844
vt 0.00781 0.82031
vt 0.08594 0.89844
vt 0.08594 0.82031
vt 0.16644 0.82031
vt 0.13519 0.89844
vt 0.08594 0.89844
vt 0.03906 0.89844
vt 0.08594 0.82031
vt 0.27344 0.00781
vt 0.35156 0.27344
vt 0.21094 0.27344
vt 0.35156 0.52344
vt 0.21094 0.52344
vt 0.21094 0.66406
vt 0.24219 0.74219
vt 0.32031 0.00781
vt 0.35156 0.00781
vt 0.21094 0.00781
vt 0.27344 0.77344
vt 0.30469 0.78906
vt 0.35156 0.78906
vt 0.21094 0.27344
vt 0.27344 0.00781
vt 0.21094 0.00781
vt 0.35156 0.27344
vt 0.35156 0.52344
vt 0.32031 0.00781
vt 0.35156 0.00781
vt 0.21094 0.52344
vt 0.21094 0.66406
vt 0.24219 0.74219
vt 0.27344 0.77344
vt 0.30469 0.78906
vt 0.35156 0.78906
vt 0.10156 0.66406
vt 0.00781 0.71094
vt 0.10156 0.71094
vt 0.00781 0.66406
vt 0.00781 0.75781
vt 0.10156 0.75781
vt 0.00781 0.80469
vt 0.10156 0.80469
vt 0.10156 0.60156
vt 0.00781 0.60156
vt 0.10156 0.46094
vt 0.00781 0.46094
vt 0.10156 0.25781
vt 0.00781 0.25781
vt 0.10156 0.00781
vt 0.00781 0.00781
vt 0.49219 0.02181
vt 0.49219 0.09881
vt 0.44319 0.13044
vt 0.39419 0.25819
vt 0.49219 0.23656
vt 0.36719 0.32031
vt 0.49219 0.35156
vt 0.36719 0.49219
vt 0.49219 0.48544
vt 0.36719 0.58156
vt 0.49219 0.63281
vt 0.36719 0.68519
vt 0.49219 0.69531
vt 0.36719 0.76706
vt 0.49219 0.75781
vt 0.36719 0.84456
vt 0.49219 0.82031
vt 0.36719 0.89844
vt 0.49219 0.86719
vt 0.49219 0.89844
vt 0.44319 0.13044
vt 0.49219 0.09881
vt 0.39419 0.25819
vt 0.49219 0.23656
vt 0.36719 0.32031
vt 0.49219 0.35156
vt 0.36719 0.49219
vt 0.49219 0.48544
vt 0.36719 0.58156
vt 0.49219 0.63281
vt 0.36719 0.68519
vt 0.49219 0.69531
vt 0.36719 0.76706
vt 0.49219 0.75781
vt 0.36719 0.84456
vt 0.49219 0.82031
vt 0.36719 0.89844
vt 0.49219 0.86719
vt 0.49219 0.89844
vt 0.30469 0.80469
vt 0.30469 0.89844
vt 0.25781 0.89844
vt 0.25781 0.80469
vt 0.35156 0.80469
vt 0.35156 0.89844
vt 0.25781 0.89844
vt 0.30469 0.89844
vt 0.30469 0.80469
vt 0.25781 0.80469
vt 0.35156 0.80469
vt 0.35156 0.89844
vt 0.55469 0.00781
vt 0.55469 0.11719
vt 0.52344 0.11719
vt 0.50781 0.21094
vt 0.55469 0.21094
vt 0.50781 0.33594
vt 0.55469 0.30469
vt 0.55469 0.42969
vt 0.50781 0.46094
vt 0.55469 0.58594
vt 0.50781 0.60156
vt 0.55469 0.67969
vt 0.50781 0.69531
vt 0.55469 0.74219
vt 0.50781 0.77344
vt 0.50781 0.80469
vt 0.55469 0.80469
vt 0.50781 0.86719
vt 0.55469 0.86719
vt 0.50781 0.92969
vt 0.55469 0.99219
vt 0.50781 0.46094
vt 0.50781 0.60156
vt 0.50781 0.69531
vt 0.50781 0.77344
vt 0.50781 0.80469
vt 0.50781 0.86719
vt 0.50781 0.92969
vt 0.50781 0.33594
vt 0.50781 0.21094
vt 0.52344 0.11719
vt 0.61719 0.42969
vt 0.61719 0.32031
vt 0.57031 0.42969
vt 0.57031 0.38281
vt 0.57031 0.52344
vt 0.61719 0.52344
vt 0.57031 0.22656
vt 0.61719 0.22656
vt 0.61719 0.11719
vt 0.57031 0.11719
vt 0.57031 0.05469
vt 0.61719 0.05469
vt 0.57031 0.00781
vt 0.61719 0.00781
vt 0.57031 0.63231
vt 0.61719 0.63231
vt 0.57031 0.78906
vt 0.61719 0.66281
vt 0.57031 0.66281
vt 0.61719 0.78906
vt 0.59394 0.78906
vt 0.57031 0.64844
vt 0.61719 0.64844
vt 0.61719 0.41406
vt 0.57031 0.49219
vt 0.57031 0.41406
vt 0.61719 0.49219
vt 0.61719 0.61719
vt 0.57031 0.61719
vt 0.57031 0.36719
vt 0.61719 0.36719
vt 0.61719 0.28906
vt 0.57031 0.28906
vt 0.92969 0.66406
vt 0.92969 0.60906
vt 0.86719 0.66406
vt 0.86719 0.60906
vt 0.92969 0.56299
vt 0.86719 0.51869
vt 0.86719 0.56299
vt 0.92969 0.51869
vt 0.92969 0.56299
vt 0.86719 0.60906
vt 0.86719 0.56299
vt 0.92969 0.60906
vt 0.86719 0.51869
vt 0.92969 0.56299
vt 0.86719 0.51869
vt 0.86719 0.56299
vt 0.92969 0.51869
vt 0.86719 0.60906
vt 0.92969 0.60906
vt 0.92969 0.56299
vt 0.86719 0.56299
vt 0.86719 0.51869
vt 0.86719 0.66406
vt 0.86719 0.60906
vt 0.92969 0.60906
vt 0.92969 0.66406
vt 0.72656 0.35156
vt 0.65306 0.25781
vt 0.72656 0.25781
vt 0.65106 0.13281
vt 0.72656 0.13281
vt 0.64844 0.05469
vt 0.63544 0.13281
vt 0.63281 0.05469
vt 0.64969 0.00781
vt 0.72656 0.00781
vt 0.72656 0.05469
vt 0.82031 0.05469
vt 0.72656 0.13281
vt 0.82031 0.13281
vt 0.77344 0.00781
vt 0.80469 0.25781
vt 0.72656 0.25781
vt 0.80469 0.35156
vt 0.72656 0.35156
vt 0.80469 0.42969
vt 0.72656 0.42969
vt 0.72656 0.13281
vt 0.72656 0.05469
vt 0.72656 0.00781
vt 0.72656 0.25781
vt 0.72656 0.35156
vt 0.72656 0.42969
vt 0.78906 0.50781
vt 0.72656 0.50781
vt 0.72656 0.50781
vt 0.64844 0.05469
vt 0.72656 0.05469
vt 0.65106 0.13281
vt 0.72656 0.13281
vt 0.65306 0.25781
vt 0.66006 0.35156
vt 0.72656 0.35156
vt 0.64444 0.35156
vt 0.63744 0.25781
vt 0.66406 0.42969
vt 0.72656 0.42969
vt 0.66406 0.42969
vt 0.66006 0.35156
vt 0.66406 0.42969
vt 0.72656 0.42969
vt 0.67969 0.50781
vt 0.72656 0.50781
vt 0.72656 0.50781
vt 0.72656 0.25781
vt 0.65306 0.25781
vt 0.72656 0.35156
vt 0.66006 0.35156
vt 0.66406 0.42969
vt 0.72656 0.42969
vt 0.67969 0.50781
vt 0.72656 0.50781
vt 0.66406 0.42969
vt 0.64444 0.35156
vt 0.63744 0.25781
vt 0.65106 0.13281
vt 0.72656 0.13281
vt 0.63544 0.13281
vt 0.64844 0.05469
vt 0.72656 0.05469
vt 0.63281 0.05469
vt 0.64969 0.00781
vt 0.72656 0.00781
vt 0.82031 0.05469
vt 0.72656 0.13281
vt 0.82031 0.13281
vt 0.77344 0.00781
vt 0.80469 0.25781
vt 0.72656 0.25781
vt 0.80469 0.35156
vt 0.72656 0.35156
vt 0.80469 0.42969
vt 0.72656 0.42969
vt 0.72656 0.13281
vt 0.72656 0.05469
vt 0.72656 0.00781
vt 0.72656 0.25781
vt 0.72656 0.35156
vt 0.72656 0.42969
vt 0.78906 0.50781
vt 0.72656 0.50781
vt 0.72656 0.50781
vt 0.65306 0.25781
vt 0.66006 0.35156
vt 0.66406 0.42969
vt 0.72656 0.42969
vt 0.72656 0.50781
vt 0.72656 0.35156
vt 0.65106 0.13281
vt 0.72656 0.13281
vt 0.64844 0.05469
vt 0.72656 0.05469
vt 0.77344 0.58594
vt 0.72656 0.74219
vt 0.72656 0.58594
vt 0.72656 0.58594
vt 0.72656 0.52344
vt 0.78906 0.52344
vt 0.72656 0.52344
vt 0.69531 0.58594
vt 0.67969 0.52344
vt 0.72656 0.58594
vt 0.72656 0.74219
vt 0.77344 0.58594
vt 0.72656 0.58594
vt 0.72656 0.52344
vt 0.78906 0.52344
vt 0.72656 0.52344
vt 0.69531 0.58594
vt 0.67969 0.52344
vt 0.00781 0.99219
vt 0.00781 0.97656
vt 0.50781 0.97656
vt 0.50781 0.99219
vt 0.00781 0.97656
vt 0.00781 0.99219
vt 0.50781 0.99219
vt 0.50781 0.97656
vt 0.00781 0.99219
vt 0.00781 0.97656
vt 0.00781 0.99219
vt 0.00781 0.97656
vt 0.67206 0.76717
vt 0.67206 0.78144
vt 0.66070 0.78144
vt 0.68911 0.78144
vt 0.67206 0.79557
vt 0.71094 0.78144
vt 0.67206 0.74219
vt 0.63281 0.78144
vt 0.67206 0.82031
vt 0.66070 0.78144
vt 0.67206 0.78144
vt 0.67206 0.76717
vt 0.68911 0.78144
vt 0.67206 0.79557
vt 0.71094 0.78144
vt 0.67206 0.74219
vt 0.63281 0.78144
vt 0.67206 0.82031
usemtl m0
f 1/1 2/2 3/3
f 4/4 2/2 1/1
f 5/5 4/4 1/1
f 5/5 1/1 6/6
f 7/7 5/5 6/6
f 8/8 5/5 7/7
f 9/9 10/10 11/11
f 11/11 10/10 12/12
f 11/11 12/12 13/13
f 14/14 11/11 13/13
f 15/15 11/11 14/14
f 16/16 11/11 15/15
f 16/16 17/17 11/11
f 17/17 9/9 11/11
f 18/18 19/19 20/20
f 21/21 19/19 18/18
f 22/22 18/18 20/20
f 22/22 21/21 18/18
f 23/23 19/19 21/21
f 20/20 19/19 23/23
f 20/20 23/23 22/22
f 23/23 21/21 22/22
f 24/24 25/25 26/26
f 26/26 25/25 27/27
f 27/27 25/25 28/28
f 28/28 25/25 29/29
f 28/28 29/29 30/30
f 30/30 29/29 31/31
f 26/26 32/32 24/24
f 33/33 32/32 26/26
f 33/33 34/34 32/32
f 35/35 34/34 33/33
f 36/36 34/34 35/35
f 37/37 34/34 36/36
f 38/38 39/39 40/40
f 41/41 39/39 38/38
f 42/42 39/39 41/41
f 43/43 39/39 42/42
f 44/44 43/43 42/42
f 45/45 43/43 44/44
f 40/40 46/46 38/38
f 38/38 46/46 47/47
f 46/46 48/48 47/47
f 47/47 48/48 49/49
f 49/49 48/48 50/50
f 50/50 48/48 51/51
f 52/52 53/53 54/54
f 53/53 55/55 54/54
f 56/56 55/55 53/53
f 57/57 55/55 56/56
f 58/58 57/57 56/56
f 59/59 57/57 58/58
f 60/60 52/52 54/54
f 60/60 54/54 61/61
f 61/61 62/62 60/60
f 60/60 62/62 63/63
f 62/62 64/64 63/63
f 63/63 64/64 65/65
f 64/64 66/66 65/65
f 65/65 66/66 67/67
f 68/68 69/69 70/70
f 68/68 70/70 71/71
f 69/69 72/72 70/70
f 69/69 73/73 72/72
f 72/72 73/73 74/74
f 74/74 73/73 75/75
f 75/75 76/76 74/74
f 75/75 77/77 76/76
f 77/77 78/78 76/76
f 77/77 79/79 78/78
f 80/80 81/81 82/82
f 83/83 84/84 85/85
f 86/86 83/83 85/85
f 87/87 88/88 89/89
f 87/87 89/89 90/90
f 91/91 92/92 93/93
f 94/94 92/92 91/91
f 95/95 93/93 92/92
f 96/96 93/93 95/95
f 97/97 96/96 95/95
f 98/98 96/96 97/97
f 99/99 100/100 101/101
f 100/100 102/102 101/101
f 103/103 102/102 100/100
f 103/103 100/100 104/104
f 105/105 103/103 104/104
f 106/106 103/103 105/105
f 107/107 108/108 109/109
f 107/107 110/110 108/108
f 108/108 110/110 111/111
f 112/112 108/108 111/111
f 112/112 111/111 113/113
f 113/113 111/111 114/114
f 115/115 116/116 117/117
f 115/115 117/117 118/118
f 118/118 117/117 119/119
f 119/119 117/117 120/120
f 120/120 117/117 121/121
f 117/117 122/122 121/121
f 120/120 121/121 123/123
f 124/124 120/120 123/123
f 119/119 120/120 124/124
f 125/125 119/119 124/124
f 126/126 127/127 128/128
f 129/129 127/127 126/126
f 126/126 128/128 130/130
f 131/131 126/126 130/130
f 131/131 130/130 132/132
f 130/130 128/128 133/133
f 134/134 126/126 131/131
f 134/134 129/129 126/126
f 135/135 136/136 137/137
f 137/137 136/136 138/138
f 139/139 135/135 137/137
f 140/140 139/139 137/137
f 140/140 137/137 141/141
f 141/141 137/137 142/142
f 137/137 143/143 142/142
f 137/137 138/138 143/143
f 144/144 136/136 135/135
f 138/138 136/136 144/144
f 141/141 144/144 140/140
f 142/142 144/144 141/141
f 140/140 144/144 139/139
f 144/144 135/135 139/139
f 143/143 144/144 142/142
f 143/143 138/138 144/144
f 145/145 146/146 147/147
f 148/148 146/146 145/145
f 145/145 147/147 149/149
f 145/145 149/149 150/150
f 151/151 145/145 150/150
f 152/152 145/145 151/151
f 152/152 153/153 145/145
f 153/153 148/148 145/145
f 147/147 146/146 154/154
f 154/154 146/146 148/148
f 150/150 154/154 151/151
f 151/151 154/154 152/152
f 149/149 154/154 150/150
f 149/149 147/147 154/154
f 152/152 154/154 153/153
f 154/154 148/148 153/153
f 155/155 156/156 157/157
f 155/155 157/157 158/158
f 158/158 157/157 159/159
f 159/159 157/157 160/160
f 161/161 162/162 163/163
f 164/164 162/162 161/161
f 165/165 166/166 167/167
f 165/165 167/167 168/168
f 166/166 169/169 167/167
f 169/169 170/170 167/167
f 171/171 165/165 168/168
f 172/172 171/171 168/168
f 173/173 174/174 175/175
f 176/176 173/173 175/175
f 173/173 177/177 174/174
f 173/173 178/178 177/177
f 176/176 175/175 179/179
f 176/176 179/179 180/180
f 177/177 181/181 182/182
f 182/182 181/181 183/183
f 182/182 183/183 184/184
f 184/184 183/183 185/185
f 184/184 185/185 186/186
f 179/179 184/184 186/186
f 187/187 179/179 186/186
f 187/187 186/186 188/188
f 189/189 190/190 191/191
f 189/189 192/192 190/190
f 193/193 190/190 192/192
f 194/194 190/190 193/193
f 195/195 194/194 193/193
f 196/196 194/194 195/195
f 197/197 198/198 199/199
f 197/197 200/200 198/198
f 201/201 202/202 203/203
f 203/203 202/202 204/204
f 201/201 205/205 202/202
f 201/201 206/206 205/205
f 206/206 207/207 205/205
f 206/206 208/208 207/207
f 208/208 209/209 207/207
f 208/208 210/210 209/209
f 203/203 204/204 211/211
f 203/203 211/211 212/212
f 212/212 211/211 213/213
f 214/214 215/215 216/216
f 216/216 215/215 217/217
f 215/215 218/218 217/217
f 218/218 219/219 217/217
f 218/218 220/220 219/219
f 220/220 221/221 219/219
f 220/220 222/222 221/221
f 222/222 223/223 221/221
f 224/224 214/214 216/216
f 225/225 224/224 216/216
f 226/226 224/224 225/225
f 227/227 228/228 229/229
f 227/227 230/230 228/228
f 231/231 232/232 233/233
f 234/234 232/232 231/231
f 235/235 236/236 237/237
f 237/237 236/236 238/238
f 236/236 239/239 238/238
f 238/238 239/239 240/240
f 241/241 242/242 243/243
f 243/243 242/242 244/244
f 242/242 245/245 244/244
f 244/244 245/245 246/246
f 245/245 247/247 246/246
f 246/246 247/247 248/248
f 247/247 249/249 248/248
f 248/248 249/249 250/250
f 251/251 241/241 243/243
f 251/251 243/243 252/252
f 253/253 254/254 255/255
f 256/256 254/254 253/253
f 257/257 258/258 259/259
f 257/257 258/258 260/260
f 261/261 262/262 263/263
f 264/264 262/262 261/261
f 261/261 265/265 264/264
f 261/261 266/266 265/265
f 266/266 267/267 265/265
f 262/262 267/267 268/268
f 262/262 269/269 267/267
f 267/267 269/269 265/265
f 270/270 271/271 272/272
f 272/272 271/271 273/273
f 273/273 274/274 272/272
f 274/274 275/275 272/272
f 274/274 276/276 275/275
f 277/277 276/276 271/271
f 276/276 278/278 271/271
f 274/274 278/278 276/276
f 279/279 280/280 281/281
f 281/281 280/280 282/282
f 281/281 282/282 283/283
f 283/283 282/282 284/284
f 284/284 282/282 285/285
f 286/286 280/280 279/279
f 286/286 287/287 280/280
f 288/288 279/279 281/281
f 285/285 282/282 289/289
f 289/289 282/282 290/290
f 290/290 282/282 291/291
f 292/292 293/293 294/294
f 292/292 295/295 293/293
f 296/296 295/295 292/292
f 293/293 295/295 297/297
f 295/295 298/298 297/297
f 299/299 296/296 292/292
f 300/300 296/296 299/299
f 301/301 296/296 300/300
f 302/302 296/296 301/301
f 303/303 296/296 302/302
f 304/304 296/296 303/303
f 305/305 306/306 307/307
f 308/308 306/306 305/305
f 306/306 309/309 307/307
f 307/307 309/309 310/310
f 309/309 311/311 310/310
f 310/310 311/311 312/312
f 313/313 308/308 305/305
f 314/314 308/308 313/313
f 313/313 315/315 314/314
f 315/315 316/316 314/314
f 315/315 317/317 316/316
f 317/317 318/318 316/316
f 317/317 319/319 318/318
f 319/319 320/320 318/318
f 321/321 322/322 323/323
f 323/323 322/322 324/324
f 322/322 325/325 324/324
f 324/324 325/325 326/326
f 325/325 327/327 326/326
f 326/326 327/327 328/328
f 327/327 329/329 328/328
f 328/328 329/329 330/330
f 329/329 331/331 330/330
f 330/330 331/331 332/332
f 332/332 331/331 333/333
f 332/332 333/333 334/334
f 334/334 333/333 335/335
f 334/334 335/335 336/336
f 336/336 335/335 337/337
f 336/336 337/337 338/338
f 338/338 337/337 339/339
f 338/338 339/339 340/340
f 341/341 342/342 321/321
f 343/343 342/342 341/341
f 343/343 344/344 342/342
f 345/345 344/344 343/343
f 345/345 346/346 344/344
f 347/347 346/346 345/345
f 347/347 348/348 346/346
f 349/349 348/348 347/347
f 349/349 350/350 348/348
f 351/351 350/350 349/349
f 352/352 350/350 351/351
f 353/353 352/352 351/351
f 354/354 352/352 353/353
f 355/355 354/354 353/353
f 356/356 354/354 355/355
f 357/357 356/356 355/355
f 358/358 356/356 357/357
f 359/359 358/358 357/357
f 360/360 361/361 362/362
f 363/363 360/360 362/362
f 360/360 364/364 361/361
f 364/364 365/365 361/361
f 366/366 367/367 368/368
f 366/366 368/368 369/369
f 367/367 370/370 368/368
f 367/367 371/371 370/370
f 372/372 373/373 374/374
f 373/373 375/375 374/374
f 373/373 376/376 375/375
f 376/376 377/377 375/375
f 376/376 378/378 377/377
f 378/378 379/379 377/377
f 377/377 379/379 380/380
f 379/379 381/381 380/380
f 380/380 381/381 382/382
f 382/382 381/381 383/383
f 382/382 383/383 384/384
f 384/384 383/383 385/385
f 386/386 384/384 385/385
f 386/386 385/385 387/387
f 387/387 385/385 388/388
f 387/387 388/388 389/389
f 389/389 388/388 390/390
f 389/389 390/390 391/391
f 391/391 390/390 392/392
f 393/393 381/381 379/379
f 394/394 381/381 393/393
f 383/383 381/381 394/394
f 395/395 383/383 394/394
f 385/385 383/383 395/395
f 385/385 395/395 396/396
f 397/397 385/385 396/396
f 388/388 385/385 397/397
f 398/398 388/388 397/397
f 390/390 388/388 398/398
f 399/399 390/390 398/398
f 392/392 390/390 399/399
f 393/393 379/379 400/400
f 400/400 379/379 378/378
f 400/400 378/378 376/376
f 401/401 400/400 376/376
f 401/401 376/376 373/373
f 402/402 401/401 373/373
f 402/402 373/373 372/372
f 403/403 404/404 405/405
f 405/405 404/404 406/406
f 407/407 403/403 405/405
f 408/408 403/403 407/407
f 409/409 404/404 406/406
f 410/410 404/404 409/409
f 411/411 410/410 409/409
f 411/411 409/409 412/412
f 413/413 411/411 412/412
f 414/414 411/411 413/413
f 414/414 413/413 415/415
f 416/416 414/414 415/415
f 417/417 408/408 407/407
f 418/418 408/408 417/417
f 419/419 420/420 421/421
f 422/422 420/420 419/419
f 423/423 424/424 425/425
f 426/426 427/427 428/428
f 429/429 427/427 426/426
f 430/430 427/427 429/429
f 431/431 427/427 430/430
f 432/432 428/428 426/426
f 432/432 426/426 433/433
f 434/434 432/432 433/433
f 435/435 432/432 434/434
f 436/436 437/437 438/438
f 437/437 439/439 438/438
f 440/440 441/441 442/442
f 443/443 441/441 440/440
f 444/444 441/441 443/443
f 445/445 446/446 444/444
f 445/445 444/444 447/447
f 446/446 448/448 444/444
f 449/449 450/450 451/451
f 452/452 450/450 449/449
f 449/449 451/451 453/453
f 454/454 449/449 453/453
f 455/455 450/450 452/452
f 456/456 457/457 455/455
f 458/458 459/459 460/460
f 458/458 460/460 461/461
f 462/462 463/463 464/464
f 463/463 465/465 464/464
f 464/464 465/465 466/466
f 465/465 467/467 466/466
f 465/465 468/468 467/467
f 463/463 468/468 465/465
f 468/468 469/469 467/467
f 467/467 469/469 470/470
f 467/467 470/470 471/471
f 472/472 467/467 471/471
f 466/466 467/467 472/472
f 471/471 473/473 472/472
f 472/472 473/473 474/474
f 473/473 475/475 474/474
f 471/471 476/476 473/473
f 475/475 477/477 474/474
f 474/474 477/477 478/478
f 478/478 477/477 479/479
f 478/478 479/479 480/480
f 480/480 479/479 481/481
f 480/480 481/481 482/482
f 473/473 483/483 475/475
f 475/475 483/483 477/477
f 473/473 484/484 483/483
f 476/476 485/485 473/473
f 485/485 484/484 473/473
f 477/477 483/483 486/486
f 477/477 486/486 479/479
f 479/479 486/486 487/487
f 479/479 487/487 481/481
f 481/481 487/487 488/488
f 482/482 481/481 489/489
f 481/481 488/488 489/489
f 482/482 489/489 490/490
f 489/489 488/488 491/491
f 492/492 493/493 485/485
f 470/470 492/492 485/485
f 469/469 492/492 470/470
f 494/494 493/493 492/492
f 495/495 493/493 494/494
f 468/468 492/492 469/469
f 494/494 492/492 468/468
f 486/486 495/495 496/496
f 496/496 495/495 494/494
f 494/494 468/468 496/496
f 497/497 486/486 496/496
f 498/498 486/486 497/497
f 497/497 496/496 499/499
f 499/499 496/496 500/500
f 496/496 468/468 500/500
f 500/500 468/468 463/463
f 499/499 500/500 463/463
f 501/501 498/498 497/497
f 502/502 498/498 501/501
f 503/503 497/497 499/499
f 501/501 497/497 503/503
f 503/503 499/499 504/504
f 499/499 463/463 504/504
f 504/504 463/463 462/462
f 503/503 504/504 505/505
f 505/505 504/504 462/462
f 506/506 505/505 462/462
f 507/507 503/503 505/505
f 507/507 505/505 506/506
f 507/507 502/502 501/501
f 507/507 501/501 503/503
f 508/508 507/507 506/506
f 509/509 502/502 507/507
f 510/510 511/511 512/512
f 512/512 511/511 513/513
f 512/512 513/513 514/514
f 512/512 514/514 515/515
f 515/515 514/514 516/516
f 515/515 516/516 517/517
f 514/514 518/518 516/516
f 514/514 513/513 518/518
f 513/513 519/519 518/518
f 511/511 519/519 513/513
f 511/511 520/520 519/519
f 510/510 521/521 511/511
f 522/522 521/521 510/510
f 521/521 523/523 511/511
f 511/511 523/523 520/520
f 522/522 524/524 521/521
f 524/524 523/523 521/521
f 525/525 524/524 522/522
f 524/524 526/526 523/523
f 527/527 526/526 524/524
f 528/528 524/524 525/525
f 528/528 527/527 524/524
f 525/525 529/529 528/528
f 530/530 529/529 525/525
f 530/530 531/531 529/529
f 529/529 532/532 528/528
f 530/530 533/533 531/531
f 534/534 533/533 530/530
f 535/535 533/533 534/534
f 536/536 535/535 534/534
f 537/537 535/535 536/536
f 538/538 537/537 536/536
f 531/531 539/539 529/529
f 533/533 539/539 531/531
f 539/539 540/540 529/529
f 529/529 541/541 532/532
f 529/529 540/540 541/541
f 542/542 539/539 533/533
f 535/535 542/542 533/533
f 543/543 542/542 535/535
f 537/537 543/543 535/535
f 544/544 543/543 537/537
f 545/545 544/544 537/537
f 545/545 537/537 538/538
f 546/546 544/544 545/545
f 547/547 545/545 538/538
f 548/548 542/542 549/549
f 519/519 548/548 549/549
f 519/519 549/549 518/518
f 518/518 549/549 550/550
f 518/518 550/550 516/516
f 550/550 551/551 516/516
f 516/516 551/551 552/552
f 549/549 553/553 550/550
f 550/550 553/553 551/551
f 549/549 542/542 553/553
f 520/520 548/548 519/519
f 520/520 523/523 548/548
f 548/548 523/523 554/554
f 554/554 555/555 548/548
f 548/548 555/555 542/542
f 523/523 556/556 554/554
f 526/526 556/556 523/523
f 556/556 557/557 554/554
f 554/554 557/557 555/555
f 541/541 557/557 556/556
f 541/541 556/556 527/527
f 527/527 556/556 526/526
f 558/558 559/559 560/560
f 558/558 561/561 559/559
f 562/562 558/558 560/560
f 562/562 563/563 558/558
f 563/563 564/564 558/558
f 558/558 564/564 561/561
f 559/559 565/565 560/560
f 559/559 561/561 565/565
f 560/560 565/565 562/562
f 561/561 564/564 565/565
f 565/565 566/566 562/562
f 565/565 564/564 566/566
f 567/567 568/568 569/569
f 568/568 570/570 569/569
f 567/567 569/569 571/571
f 569/569 572/572 571/571
f 569/569 573/573 572/572
f 570/570 573/573 569/569
f 567/567 574/574 568/568
f 574/574 570/570 568/568
f 571/571 574/574 567/567
f 574/574 573/573 570/570
f 571/571 575/575 574/574
f 575/575 573/573 574/574
f 576/576 577/577 578/578
f 579/579 576/576 578/578
f 578/578 580/580 579/579
f 579/579 580/580 581/581
f 582/582 583/583 584/584
f 583/583 585/585 584/584
f 586/586 583/583 582/582
f 586/586 587/587 583/583
f 588/588 589/589 590/590
f 591/591 589/589 588/588
f 590/590 589/589 592/592
f 592/592 589/589 591/591
f 591/591 593/593 592/592
f 588/588 593/593 591/591
f 588/588 594/594 593/593
f 595/595 594/594 588/588
f 592/592 595/595 590/590
f 595/595 588/588 590/590
f 592/592 596/596 595/595
f 592/592 593/593 596/596
f 597/597 598/598 599/599
f 599/599 598/598 600/600
f 601/601 598/598 597/597
f 600/600 598/598 601/601
f 601/601 602/602 600/600
f 600/600 602/602 599/599
f 602/602 603/603 599/599
f 599/599 603/603 604/604
f 597/597 604/604 601/601
f 597/597 599/599 604/604
f 604/604 605/605 601/601
f 605/605 602/602 601/601
