mtllib arms2005.mtl
o arms2005
v 0.62424 -0.18072 1.79226 0.000 0.000 0.941
v 0.73062 -0.18072 1.79226 0.000 0.000 0.941
v 0.62424 -0.18828 1.80000 0.000 0.000 0.655
v 0.73062 -0.18828 1.80000 0.000 0.000 0.655
v 0.73062 -0.18072 1.80756 0.000 0.000 0.725
v 0.62424 -0.18072 1.80756 0.000 0.000 0.725
v 0.73062 -0.17298 1.80000 0.000 0.000 0.655
v 0.62424 -0.17298 1.80000 0.000 0.000 0.655
v 0.78426 -0.18072 1.79226 0.000 0.000 0.941
v 0.78426 -0.17298 1.80000 0.000 0.000 1.000
v 0.78426 -0.18828 1.80000 0.000 0.000 0.655
v 0.78426 -0.18072 1.80756 0.000 0.000 0.773
v 0.62424 -0.17298 1.80000 0.000 0.000 0.655
v 0.62424 -0.18072 1.79226 0.000 0.000 0.941
v 0.62424 -0.18828 1.80000 0.000 0.000 0.655
v 0.62424 -0.18072 1.80756 0.000 0.000 0.725
v 2.11284 -0.18828 1.80000 0.000 0.000 0.678
v 2.11284 -0.18072 1.79226 0.000 0.000 0.941
v 2.17926 -0.18828 1.80000 0.000 0.000 0.773
v 2.17926 -0.18072 1.79226 0.000 0.000 1.000
v 2.11284 -0.18072 1.80756 0.000 0.000 0.749
v 2.17926 -0.18072 1.80756 0.000 0.000 0.843
v 2.11284 -0.17298 1.80000 0.000 0.000 0.678
v 2.17926 -0.17298 1.80000 0.000 0.000 0.773
v 2.24478 -0.18972 1.80000 0.000 0.000 0.655
v 2.31732 -0.18072 1.80000 0.000 0.000 0.620
v 2.22426 -0.18072 1.81638 0.000 0.000 0.953
v 2.24478 -0.17136 1.80000 0.000 0.000 0.671
v 2.22426 -0.18072 1.78344 0.000 0.000 0.976
v 2.15280 -0.18072 1.82214 0.000 0.000 0.941
v 2.17350 -0.16632 1.80000 0.000 0.000 0.620
v 2.17350 -0.19494 1.80000 0.000 0.000 0.627
v 2.15280 -0.18072 1.77786 0.000 0.000 1.000
v 2.17350 -0.16632 1.80000 0.000 0.000 0.620
v 2.15280 -0.18072 1.77786 0.000 0.000 1.000
v 2.17350 -0.19494 1.80000 0.000 0.000 0.627
v 2.15280 -0.18072 1.82214 0.000 0.000 0.941
v 0.78426 -0.18828 1.80000 0.000 0.710 0.000
v 2.11284 -0.18072 1.79226 0.000 0.961 0.000
v 2.11284 -0.18828 1.80000 0.000 0.710 0.000
v 0.78426 -0.18072 1.79226 0.000 0.961 0.000
v 0.78426 -0.18072 1.80756 0.000 0.831 0.000
v 2.11284 -0.18072 1.80756 0.000 0.831 0.000
v 0.78426 -0.17298 1.80000 0.000 0.710 0.000
v 2.11284 -0.17298 1.80000 0.000 0.710 0.000
v 0.73062 -0.17298 1.80000 0.000 0.000 0.000
v 0.72342 -0.14886 1.79982 0.000 0.000 0.000
v 0.78426 -0.17298 1.80000 0.000 0.000 0.000
v 0.62424 -0.17298 1.80000 0.000 0.000 0.000
v 0.56430 -0.13662 1.80000 0.000 0.000 0.000
v 0.78426 -0.18072 1.79226 0.000 0.000 0.000
v 0.72342 -0.18072 1.76814 0.000 0.000 0.000
v 0.73062 -0.18072 1.79226 0.000 0.000 0.000
v 0.62424 -0.18072 1.79226 0.000 0.000 0.000
v 0.56430 -0.18072 1.75590 0.000 0.000 0.000
v 0.73062 -0.18828 1.80000 0.000 0.000 0.000
v 0.72342 -0.21258 1.79982 0.000 0.000 0.000
v 0.78426 -0.18828 1.80000 0.000 0.000 0.000
v 0.62424 -0.18828 1.80000 0.000 0.000 0.000
v 0.56430 -0.22482 1.80000 0.000 0.000 0.000
v 0.73062 -0.18072 1.80756 0.000 0.000 0.000
v 0.78426 -0.18072 1.80756 0.000 0.000 0.000
v 0.72342 -0.18072 1.83186 0.000 0.000 0.000
v 0.62424 -0.18072 1.80756 0.000 0.000 0.000
v 0.56430 -0.18072 1.84410 0.000 0.000 0.000
v 0.61920 -0.00396 2.68020 0.000 0.000 0.000
v 0.61920 -0.17568 1.80000 0.000 0.000 0.000
v 0.61920 0.00360 2.68020 0.000 0.000 0.000
v 0.61920 -0.18324 1.80000 0.000 0.000 0.000
v 0.61920 -0.00396 0.91980 0.000 0.000 0.000
v 0.61920 0.00360 0.91980 0.000 0.000 0.000
v 0.61920 -0.00396 2.69478 0.000 0.000 0.000
v 0.61920 0.00360 2.69478 0.000 0.000 0.000
v 0.61920 -0.00396 0.90522 0.000 0.000 0.000
v 0.61920 0.00360 0.90522 0.000 0.000 0.000
v 0.61542 -0.17946 1.80000 0.000 0.000 0.000
v 0.62316 -0.17946 1.80000 0.000 0.000 0.000
v 0.62316 -0.00018 2.68020 0.000 0.000 0.000
v 0.61542 -0.00018 2.68020 0.000 0.000 0.000
v 0.62316 -0.00018 0.91980 0.000 0.000 0.000
v 0.61542 -0.00018 0.91980 0.000 0.000 0.000
v 0.62316 -0.00018 2.69478 0.000 0.000 0.000
v 0.61542 -0.00018 2.69478 0.000 0.000 0.000
v 0.62316 -0.00018 0.90522 0.000 0.000 0.000
v 0.61542 -0.00018 0.90522 0.000 0.000 0.000
v 0.62802 -0.00018 2.68020 0.000 0.000 0.941
v 0.61920 -0.00900 2.68020 0.000 0.000 0.784
v 0.61038 -0.00018 2.68020 0.000 0.000 0.949
v 0.61920 0.00864 2.68020 0.000 0.000 0.784
v 0.61038 -0.00018 2.68020 0.000 0.000 0.949
v 0.61920 -0.00900 2.68020 0.000 0.000 0.784
v 0.61920 -0.00900 2.69946 0.000 0.000 0.784
v 0.61038 -0.00018 2.69946 0.000 0.000 0.949
v 0.62802 -0.00018 2.68020 0.000 0.000 0.941
v 0.60912 -0.00018 2.71458 0.000 0.000 0.949
v 0.61920 0.00864 2.69946 0.000 0.000 0.784
v 0.61920 0.00864 2.68020 0.000 0.000 0.784
v 0.62802 -0.00018 2.69946 0.000 0.000 0.941
v 0.61920 0.01026 2.71458 0.000 0.000 0.784
v 0.63000 -0.00018 2.71458 0.000 0.000 0.941
v 0.61920 0.01980 2.74932 0.000 0.000 1.000
v 0.63918 -0.00018 2.74932 0.000 0.000 1.000
v 0.61920 -0.02016 2.74932 0.000 0.000 1.000
v 0.61920 -0.01044 2.71458 0.000 0.000 0.784
v 0.59922 -0.00018 2.74932 0.000 0.000 0.941
v 0.61038 -0.00018 0.91980 0.000 0.000 0.949
v 0.61920 -0.00900 0.91980 0.000 0.000 0.784
v 0.62802 -0.00018 0.91980 0.000 0.000 0.941
v 0.61920 0.00864 0.91980 0.000 0.000 0.784
v 0.61920 -0.00900 0.90054 0.000 0.000 0.784
v 0.61920 -0.00900 0.91980 0.000 0.000 0.784
v 0.61038 -0.00018 0.91980 0.000 0.000 0.949
v 0.61038 -0.00018 0.90054 0.000 0.000 0.949
v 0.62802 -0.00018 0.91980 0.000 0.000 0.941
v 0.60912 -0.00018 0.88542 0.000 0.000 0.949
v 0.61920 0.00864 0.90054 0.000 0.000 0.784
v 0.61920 0.00864 0.91980 0.000 0.000 0.784
v 0.62802 -0.00018 0.90054 0.000 0.000 0.941
v 0.61920 0.01026 0.88542 0.000 0.000 0.784
v 0.63000 -0.00018 0.88542 0.000 0.000 0.941
v 0.61920 0.01980 0.85068 0.000 0.000 0.941
v 0.63918 -0.00018 0.85068 0.000 0.000 1.000
v 0.61920 -0.02016 0.85068 0.000 0.000 0.941
v 0.61920 -0.01044 0.88542 0.000 0.000 0.784
v 0.59922 -0.00018 0.85068 0.000 0.000 0.941
v 0.89208 -0.00018 1.80000 0.000 0.969 0.000
v 0.91098 -0.01782 1.80000 0.000 0.725 0.000
v 0.92934 -0.01908 1.94040 0.000 0.725 0.000
v 0.92718 -0.00018 1.80000 0.000 0.898 0.000
v 0.94734 -0.00018 1.94040 0.000 0.898 0.000
v 0.92934 0.01872 1.94040 0.000 0.725 0.000
v 0.91098 0.01746 1.80000 0.000 0.725 0.000
v 0.91260 -0.00018 1.94040 0.000 0.969 0.000
v 0.92934 -0.01908 1.65960 0.000 0.725 0.000
v 0.92934 0.01872 1.65960 0.000 0.725 0.000
v 0.94734 -0.00018 1.65960 0.000 0.898 0.000
v 0.91260 -0.00018 1.65960 0.000 0.969 0.000
v 0.87246 -0.00018 2.03364 0.831 0.000 0.000
v 0.95526 0.04122 2.01042 1.000 0.000 0.000
v 0.95166 -0.00018 2.02932 1.000 0.000 0.000
v 0.95526 -0.04122 2.01042 0.988 0.000 0.000
v 0.92286 0.02628 2.36376 1.000 0.000 0.000
v 0.89208 -0.00018 2.27232 0.831 0.000 0.000
v 0.87624 -0.00018 2.35764 0.863 0.000 0.000
v 0.94032 0.02754 2.26710 1.000 0.000 0.000
v 0.88596 -0.00018 2.19492 0.831 0.000 0.000
v 0.93564 0.02862 2.18142 1.000 0.000 0.000
v 0.89046 0.02340 2.46240 1.000 0.000 0.000
v 0.84726 -0.00018 2.44134 0.863 0.000 0.000
v 0.87930 -0.00018 2.11500 0.831 0.000 0.000
v 0.93834 0.03330 2.09664 1.000 0.000 0.000
v 0.87246 -0.00018 2.03364 0.831 0.000 0.000
v 0.95526 0.04122 2.01042 1.000 0.000 0.000
v 0.84438 0.02250 2.53566 1.000 0.000 0.000
v 0.80532 0.00018 2.51154 0.863 0.000 0.000
v 0.92286 -0.02592 2.36376 1.000 0.000 0.000
v 0.94032 -0.02718 2.26710 1.000 0.000 0.000
v 0.93564 -0.02808 2.18142 1.000 0.000 0.000
v 0.89046 -0.02304 2.46240 1.000 0.000 0.000
v 0.93834 -0.03294 2.09664 1.000 0.000 0.000
v 0.95526 -0.04122 2.01042 0.988 0.000 0.000
v 0.84438 -0.02214 2.53566 1.000 0.000 0.000
v 0.77544 -0.01944 2.61162 1.000 0.000 0.000
v 0.73584 -0.00018 2.57004 0.855 0.000 0.000
v 0.63936 -0.01836 2.73276 1.000 0.000 0.000
v 0.64692 -0.00018 2.63502 0.831 0.000 0.000
v 0.77544 0.01980 2.61162 1.000 0.000 0.000
v 0.63936 0.01872 2.73276 1.000 0.000 0.000
v 0.95526 0.04122 1.58958 1.000 0.000 0.000
v 0.87246 -0.00018 1.56636 0.831 0.000 0.000
v 0.95166 -0.00018 1.57068 1.000 0.000 0.000
v 0.95526 -0.04122 1.58958 1.000 0.000 0.000
v 0.89208 -0.00018 1.32768 0.831 0.000 0.000
v 0.92286 0.02628 1.23624 1.000 0.000 0.000
v 0.87624 -0.00018 1.24236 0.863 0.000 0.000
v 0.94032 0.02754 1.33290 1.000 0.000 0.000
v 0.88596 -0.00018 1.40508 0.831 0.000 0.000
v 0.93564 0.02862 1.41858 1.000 0.000 0.000
v 0.89046 0.02340 1.13760 1.000 0.000 0.000
v 0.84726 -0.00018 1.15866 0.863 0.000 0.000
v 0.87930 -0.00018 1.48500 0.831 0.000 0.000
v 0.93834 0.03330 1.50336 1.000 0.000 0.000
v 0.87246 -0.00018 1.56636 0.831 0.000 0.000
v 0.95526 0.04122 1.58958 1.000 0.000 0.000
v 0.84438 0.02250 1.06434 1.000 0.000 0.000
v 0.80532 0.00018 1.08846 0.863 0.000 0.000
v 0.92286 -0.02592 1.23624 1.000 0.000 0.000
v 0.94032 -0.02718 1.33290 1.000 0.000 0.000
v 0.93564 -0.02808 1.41858 1.000 0.000 0.000
v 0.89046 -0.02304 1.13760 1.000 0.000 0.000
v 0.93834 -0.03294 1.50336 1.000 0.000 0.000
v 0.95526 -0.04122 1.58958 1.000 0.000 0.000
v 0.84438 -0.02214 1.06434 1.000 0.000 0.000
v 0.77544 -0.01944 0.98838 1.000 0.000 0.000
v 0.73584 -0.00018 1.02996 0.855 0.000 0.000
v 0.63936 -0.01836 0.86724 1.000 0.000 0.000
v 0.64692 -0.00018 0.96498 0.831 0.000 0.000
v 0.77544 0.01980 0.98838 1.000 0.000 0.000
v 0.63936 0.01872 0.86724 1.000 0.000 0.000
v 0.90702 -0.00018 2.03418 0.000 0.000 0.000
v 0.91260 -0.00018 1.94040 0.000 0.000 0.000
v 0.93978 -0.01962 2.02086 0.000 0.000 0.000
v 0.92934 -0.01908 1.94040 0.000 0.000 0.000
v 0.93978 0.01926 2.02086 0.000 0.000 0.000
v 0.92934 0.01872 1.94040 0.000 0.000 0.000
v 0.94734 -0.00018 1.94040 0.000 0.000 0.000
v 0.97542 -0.00018 2.00448 0.000 0.000 0.000
v 0.91260 -0.00018 1.65960 0.000 0.000 0.000
v 0.90702 -0.00018 1.56582 0.000 0.000 0.000
v 0.93978 -0.01962 1.57914 0.000 0.000 0.000
v 0.92934 -0.01908 1.65960 0.000 0.000 0.000
v 0.93978 0.01926 1.57914 0.000 0.000 0.000
v 0.92934 0.01872 1.65960 0.000 0.000 0.000
v 0.94734 -0.00018 1.65960 0.000 0.000 0.000
v 0.97542 -0.00018 1.59552 0.000 0.000 0.000
v 0.96768 -0.00018 2.37078 0.941 0.000 0.000
v 0.93438 0.03564 2.26026 0.745 0.000 0.000
v 0.91962 0.03384 2.36286 0.745 0.000 0.000
v 0.98694 -0.00018 2.24910 0.941 0.000 0.000
v 0.93222 0.03744 2.16864 0.745 0.000 0.000
v 0.98784 -0.00018 2.13588 0.863 0.000 0.000
v 0.92826 -0.00018 2.48202 0.941 0.000 0.000
v 0.88452 0.03204 2.46096 0.745 0.000 0.000
v 0.93690 0.04302 2.07666 0.745 0.000 0.000
v 1.00134 -0.00018 2.03778 0.824 0.000 0.000
v 0.95544 0.05202 1.98414 0.745 0.000 0.000
v 1.02348 -0.00018 1.94418 0.745 0.000 0.000
v 0.87822 -0.00018 2.55762 0.941 0.000 0.000
v 0.83718 0.03042 2.53206 0.745 0.000 0.000
v 0.80118 0.00018 2.64582 0.941 0.000 0.000
v 0.76986 0.02898 2.60460 0.745 0.000 0.000
v 0.68490 -0.00018 2.74914 0.863 0.000 0.000
v 0.67122 0.02754 2.68866 0.745 0.000 0.000
v 0.53532 -0.00018 2.89422 0.804 0.000 0.000
v 0.54738 0.02286 2.79000 0.745 0.000 0.000
v 0.67122 -0.02790 2.68866 0.745 0.000 0.000
v 0.54738 -0.02322 2.79000 0.745 0.000 0.000
v 0.95544 -0.05238 1.98414 0.745 0.000 0.000
v 0.93690 -0.04338 2.07666 0.745 0.000 0.000
v 0.93222 -0.03780 2.16864 0.745 0.000 0.000
v 0.93438 -0.03600 2.26026 0.745 0.000 0.000
v 0.91962 -0.03420 2.36286 0.745 0.000 0.000
v 0.88452 -0.03240 2.46096 0.745 0.000 0.000
v 0.83718 -0.03078 2.53206 0.745 0.000 0.000
v 0.76986 -0.02934 2.60460 0.745 0.000 0.000
v 0.54738 -0.00018 2.79000 0.745 0.000 0.000
v 0.54738 -0.02322 2.79000 0.745 0.000 0.000
v 0.53532 -0.00018 2.89422 0.804 0.000 0.000
v 0.67122 -0.02790 2.68866 0.745 0.000 0.000
v 0.67122 0.02754 2.68866 0.745 0.000 0.000
v 0.54738 0.02286 2.79000 0.745 0.000 0.000
v 0.76986 0.02898 2.60460 0.745 0.000 0.000
v 0.76986 -0.02934 2.60460 0.745 0.000 0.000
v 0.83718 0.03042 2.53206 0.745 0.000 0.000
v 0.83718 -0.03078 2.53206 0.745 0.000 0.000
v 0.88452 0.03204 2.46096 0.745 0.000 0.000
v 0.88452 -0.03240 2.46096 0.745 0.000 0.000
v 0.91962 0.03384 2.36286 0.745 0.000 0.000
v 0.91962 -0.03420 2.36286 0.745 0.000 0.000
v 0.93438 0.03564 2.26026 0.745 0.000 0.000
v 0.93438 -0.03600 2.26026 0.745 0.000 0.000
v 0.93222 0.03744 2.16864 0.745 0.000 0.000
v 0.93222 -0.03780 2.16864 0.745 0.000 0.000
v 0.93690 0.04302 2.07666 0.745 0.000 0.000
v 0.93690 -0.04338 2.07666 0.745 0.000 0.000
v 0.95508 -0.00018 1.99854 0.969 0.000 0.000
v 0.95544 -0.05238 1.98414 0.745 0.000 0.000
v 1.02348 -0.00018 1.94418 0.745 0.000 0.000
v 0.95544 0.05202 1.98414 0.745 0.000 0.000
v 1.02348 -0.00018 1.94418 0.745 0.000 0.000
v 0.53532 -0.00018 2.89422 0.804 0.000 0.000
v 0.93438 0.03564 1.33974 0.745 0.000 0.000
v 0.96768 -0.00018 1.22922 0.941 0.000 0.000
v 0.91962 0.03384 1.23714 0.745 0.000 0.000
v 0.98694 -0.00018 1.35090 0.941 0.000 0.000
v 0.93222 0.03744 1.43136 0.745 0.000 0.000
v 0.98784 -0.00018 1.46412 0.863 0.000 0.000
v 0.92826 -0.00018 1.11798 0.941 0.000 0.000
v 0.88452 0.03204 1.13904 0.745 0.000 0.000
v 0.93690 0.04302 1.52334 0.745 0.000 0.000
v 1.00134 -0.00018 1.56222 0.824 0.000 0.000
v 0.95544 0.05202 1.61586 0.745 0.000 0.000
v 1.02348 -0.00018 1.65582 0.745 0.000 0.000
v 0.87822 -0.00018 1.04238 0.941 0.000 0.000
v 0.83718 0.03042 1.06794 0.745 0.000 0.000
v 0.80118 0.00018 0.95418 0.941 0.000 0.000
v 0.76986 0.02898 0.99540 0.745 0.000 0.000
v 0.68490 -0.00018 0.85086 0.863 0.000 0.000
v 0.67122 0.02754 0.91134 0.745 0.000 0.000
v 0.53532 -0.00018 0.70578 0.804 0.000 0.000
v 0.54738 0.02286 0.81000 0.745 0.000 0.000
v 0.67122 -0.02790 0.91134 0.745 0.000 0.000
v 0.54738 -0.02322 0.81000 0.745 0.000 0.000
v 0.95544 -0.05238 1.61586 0.745 0.000 0.000
v 0.93690 -0.04338 1.52334 0.745 0.000 0.000
v 0.93222 -0.03780 1.43136 0.745 0.000 0.000
v 0.93438 -0.03600 1.33974 0.745 0.000 0.000
v 0.91962 -0.03420 1.23714 0.745 0.000 0.000
v 0.88452 -0.03240 1.13904 0.745 0.000 0.000
v 0.83718 -0.03078 1.06794 0.745 0.000 0.000
v 0.76986 -0.02934 0.99540 0.745 0.000 0.000
v 0.54738 -0.00018 0.81000 0.745 0.000 0.000
v 0.53532 -0.00018 0.70578 0.804 0.000 0.000
v 0.54738 -0.02322 0.81000 0.745 0.000 0.000
v 0.67122 -0.02790 0.91134 0.745 0.000 0.000
v 0.67122 0.02754 0.91134 0.745 0.000 0.000
v 0.54738 0.02286 0.81000 0.745 0.000 0.000
v 0.76986 0.02898 0.99540 0.745 0.000 0.000
v 0.76986 -0.02934 0.99540 0.745 0.000 0.000
v 0.83718 0.03042 1.06794 0.745 0.000 0.000
v 0.83718 -0.03078 1.06794 0.745 0.000 0.000
v 0.88452 0.03204 1.13904 0.745 0.000 0.000
v 0.88452 -0.03240 1.13904 0.745 0.000 0.000
v 0.91962 0.03384 1.23714 0.745 0.000 0.000
v 0.91962 -0.03420 1.23714 0.745 0.000 0.000
v 0.93438 0.03564 1.33974 0.745 0.000 0.000
v 0.93438 -0.03600 1.33974 0.745 0.000 0.000
v 0.93222 0.03744 1.43136 0.745 0.000 0.000
v 0.93222 -0.03780 1.43136 0.745 0.000 0.000
v 0.93690 0.04302 1.52334 0.745 0.000 0.000
v 0.93690 -0.04338 1.52334 0.745 0.000 0.000
v 0.95508 -0.00018 1.60146 0.969 0.000 0.000
v 0.95544 -0.05238 1.61586 0.745 0.000 0.000
v 1.02348 -0.00018 1.65582 0.745 0.000 0.000
v 0.95544 0.05202 1.61586 0.745 0.000 0.000
v 1.02348 -0.00018 1.65582 0.745 0.000 0.000
v 0.53532 -0.00018 0.70578 0.804 0.000 0.000
vt 0.80468 0.42591
vt 0.55469 0.42591
vt 0.80468 0.46832
vt 0.55469 0.46832
vt 0.55469 0.50991
vt 0.80468 0.50991
vt 0.55469 0.46832
vt 0.80468 0.46832
vt 0.42896 0.42591
vt 0.42896 0.46832
vt 0.42896 0.46832
vt 0.42896 0.50991
vt 0.00500 0.50800
vt 0.08500 0.50800
vt 0.08500 0.41100
vt 0.00500 0.41100
vt 0.80468 0.46832
vt 0.80468 0.42591
vt 0.42896 0.46832
vt 0.42896 0.42591
vt 0.80468 0.50991
vt 0.42896 0.50991
vt 0.80468 0.46832
vt 0.42896 0.46832
vt 0.30272 0.43741
vt 0.09731 0.43741
vt 0.30272 0.50722
vt 0.30272 0.43741
vt 0.30272 0.36520
vt 0.41419 0.50722
vt 0.41419 0.43741
vt 0.41419 0.43741
vt 0.41419 0.36520
vt 0.08500 0.50800
vt 0.00500 0.50800
vt 0.00500 0.41100
vt 0.08500 0.41100
vt 0.99500 0.60802
vt 0.00500 0.56644
vt 0.00500 0.60802
vt 0.99500 0.56644
vt 0.99500 0.64878
vt 0.00500 0.64878
vt 0.99500 0.60802
vt 0.00500 0.60802
vt 0.26669 0.35208
vt 0.26669 0.22433
vt 0.35519 0.33408
vt 0.00500 0.35208
vt 0.00500 0.22433
vt 0.35519 0.33408
vt 0.26669 0.22433
vt 0.26669 0.35208
vt 0.00500 0.35208
vt 0.00500 0.22433
vt 0.26669 0.35208
vt 0.26669 0.22433
vt 0.35519 0.33408
vt 0.00500 0.35208
vt 0.00500 0.22433
vt 0.26669 0.35208
vt 0.35519 0.33408
vt 0.26669 0.22433
vt 0.00500 0.35208
vt 0.00500 0.22433
vt 0.94776 0.52083
vt 0.00500 0.55363
vt 0.94776 0.55363
vt 0.00500 0.52083
vt 0.94776 0.52083
vt 0.94776 0.55363
vt 0.99500 0.52083
vt 0.99500 0.55363
vt 0.99500 0.52083
vt 0.99500 0.55363
vt 0.00500 0.52083
vt 0.00500 0.55363
vt 0.94776 0.55363
vt 0.94776 0.52083
vt 0.94776 0.55363
vt 0.94776 0.52083
vt 0.99500 0.55363
vt 0.99500 0.52083
vt 0.99500 0.55363
vt 0.99500 0.52083
vt 0.00400 0.00720
vt 0.07800 0.07120
vt 0.15400 0.00720
vt 0.07800 0.07120
vt 0.00600 0.08200
vt 0.00600 0.14110
vt 0.07064 0.14110
vt 0.07064 0.08200
vt 0.00600 0.21500
vt 0.13382 0.08200
vt 0.07064 0.14110
vt 0.00600 0.14110
vt 0.07064 0.21500
vt 0.13382 0.14110
vt 0.13382 0.21500
vt 0.29000 0.14110
vt 0.29000 0.21500
vt 0.29000 0.14110
vt 0.13382 0.14110
vt 0.29000 0.08200
vt 0.15400 0.00720
vt 0.07800 0.07120
vt 0.00400 0.00720
vt 0.07800 0.07120
vt 0.07064 0.14110
vt 0.00600 0.14110
vt 0.00600 0.08200
vt 0.07064 0.08200
vt 0.00600 0.21500
vt 0.13382 0.08200
vt 0.07064 0.14110
vt 0.00600 0.14110
vt 0.07064 0.21500
vt 0.13382 0.14110
vt 0.13382 0.21500
vt 0.29000 0.14110
vt 0.29000 0.21500
vt 0.29000 0.14110
vt 0.13382 0.14110
vt 0.29000 0.08200
vt 0.42744 0.24028
vt 0.42744 0.32200
vt 0.80600 0.32200
vt 0.42744 0.41514
vt 0.80600 0.41514
vt 0.80600 0.32200
vt 0.42744 0.32200
vt 0.80600 0.24028
vt 0.80600 0.32200
vt 0.80600 0.32200
vt 0.80600 0.41514
vt 0.80600 0.24028
vt 0.46161 0.00613
vt 0.46161 0.13492
vt 0.26181 0.00613
vt 0.46161 0.13492
vt 0.49219 0.88369
vt 0.32031 0.77131
vt 0.49219 0.77131
vt 0.32031 0.88369
vt 0.13281 0.77131
vt 0.13281 0.88369
vt 0.61719 0.88369
vt 0.61719 0.77131
vt 0.07031 0.77131
vt 0.07031 0.88369
vt 0.00781 0.77131
vt 0.00781 0.88369
vt 0.71094 0.88369
vt 0.69531 0.77131
vt 0.49219 0.88369
vt 0.32031 0.88369
vt 0.13281 0.88369
vt 0.61719 0.88369
vt 0.07031 0.88369
vt 0.00781 0.88369
vt 0.71094 0.88369
vt 0.78906 0.88369
vt 0.80906 0.77131
vt 0.99156 0.88369
vt 0.99156 0.77131
vt 0.78906 0.88369
vt 0.99156 0.88369
vt 0.46161 0.13492
vt 0.46161 0.00613
vt 0.26181 0.00613
vt 0.46161 0.13492
vt 0.32031 0.77131
vt 0.49219 0.88369
vt 0.49219 0.77131
vt 0.32031 0.88369
vt 0.13281 0.77131
vt 0.13281 0.88369
vt 0.61719 0.88369
vt 0.61719 0.77131
vt 0.07031 0.77131
vt 0.07031 0.88369
vt 0.00781 0.77131
vt 0.00781 0.88369
vt 0.71094 0.88369
vt 0.69531 0.77131
vt 0.49219 0.88369
vt 0.32031 0.88369
vt 0.13281 0.88369
vt 0.61719 0.88369
vt 0.07031 0.88369
vt 0.00781 0.88369
vt 0.71094 0.88369
vt 0.78906 0.88369
vt 0.80906 0.77131
vt 0.99156 0.88369
vt 0.99156 0.77131
vt 0.78906 0.88369
vt 0.99156 0.88369
vt 0.99443 0.24157
vt 0.82042 0.24157
vt 0.99443 0.37991
vt 0.82042 0.37991
vt 0.99443 0.37991
vt 0.82042 0.37991
vt 0.82042 0.51000
vt 0.99443 0.51000
vt 0.82042 0.24157
vt 0.99443 0.24157
vt 0.99443 0.37991
vt 0.82042 0.37991
vt 0.99443 0.37991
vt 0.82042 0.37991
vt 0.82042 0.51000
vt 0.99443 0.51000
vt 0.49219 0.99500
vt 0.32031 0.89731
vt 0.49219 0.89731
vt 0.32031 0.99500
vt 0.13281 0.89731
vt 0.13281 0.99500
vt 0.60319 0.99500
vt 0.61719 0.89731
vt 0.07031 0.89731
vt 0.07031 0.99500
vt 0.00781 0.89731
vt 0.00781 0.99500
vt 0.70094 0.99500
vt 0.71094 0.89731
vt 0.75906 0.99500
vt 0.76906 0.89731
vt 0.82156 0.99500
vt 0.83156 0.89731
vt 0.99219 0.99500
vt 0.99219 0.89731
vt 0.83156 0.89731
vt 0.99219 0.89731
vt 0.00781 0.89731
vt 0.07031 0.89731
vt 0.13281 0.89731
vt 0.32031 0.89731
vt 0.49219 0.89731
vt 0.61719 0.89731
vt 0.71094 0.89731
vt 0.76906 0.89731
vt 0.88000 0.71340
vt 0.88000 0.76152
vt 0.99500 0.76200
vt 0.80906 0.76152
vt 0.80906 0.66068
vt 0.88000 0.66068
vt 0.70594 0.66068
vt 0.70594 0.76152
vt 0.57844 0.66068
vt 0.57844 0.76152
vt 0.49531 0.66068
vt 0.49531 0.76152
vt 0.40219 0.66068
vt 0.40219 0.76152
vt 0.29906 0.66068
vt 0.29906 0.76152
vt 0.21200 0.66068
vt 0.21200 0.76152
vt 0.13000 0.66068
vt 0.13000 0.76152
vt 0.07000 0.71084
vt 0.07000 0.76152
vt 0.00500 0.76152
vt 0.07000 0.66068
vt 0.00500 0.66068
vt 0.99500 0.66000
vt 0.32031 0.89731
vt 0.49219 0.99500
vt 0.49219 0.89731
vt 0.32031 0.99500
vt 0.13281 0.89731
vt 0.13281 0.99500
vt 0.60319 0.99500
vt 0.61719 0.89731
vt 0.07031 0.89731
vt 0.07031 0.99500
vt 0.00781 0.89731
vt 0.00781 0.99500
vt 0.70094 0.99500
vt 0.71094 0.89731
vt 0.75906 0.99500
vt 0.76906 0.89731
vt 0.82156 0.99500
vt 0.83156 0.89731
vt 0.99219 0.99500
vt 0.99219 0.89731
vt 0.83156 0.89731
vt 0.99219 0.89731
vt 0.00781 0.89731
vt 0.07031 0.89731
vt 0.13281 0.89731
vt 0.32031 0.89731
vt 0.49219 0.89731
vt 0.61719 0.89731
vt 0.71094 0.89731
vt 0.76906 0.89731
vt 0.88000 0.71340
vt 0.99500 0.76200
vt 0.88000 0.76152
vt 0.80906 0.76152
vt 0.80906 0.66068
vt 0.88000 0.66068
vt 0.70594 0.66068
vt 0.70594 0.76152
vt 0.57844 0.66068
vt 0.57844 0.76152
vt 0.49531 0.66068
vt 0.49531 0.76152
vt 0.40219 0.66068
vt 0.40219 0.76152
vt 0.29906 0.66068
vt 0.29906 0.76152
vt 0.21200 0.66068
vt 0.21200 0.76152
vt 0.13000 0.66068
vt 0.13000 0.76152
vt 0.07000 0.71084
vt 0.07000 0.76152
vt 0.00500 0.76152
vt 0.07000 0.66068
vt 0.00500 0.66068
vt 0.99500 0.66000
usemtl m0
f 1/1 2/2 3/3
f 3/3 2/2 4/4
f 3/3 4/4 5/5
f 6/6 3/3 5/5
f 7/7 2/2 1/1
f 5/5 7/7 6/6
f 7/7 1/1 8/8
f 6/6 7/7 8/8
f 2/2 9/9 4/4
f 10/10 9/9 2/2
f 10/10 2/2 7/7
f 4/4 9/9 11/11
f 4/4 11/11 5/5
f 5/5 11/11 12/12
f 12/12 7/7 5/5
f 12/12 10/10 7/7
f 13/13 14/14 15/15
f 16/16 13/13 15/15
f 17/17 18/18 19/19
f 18/18 20/20 19/19
f 17/17 19/19 21/21
f 21/21 19/19 22/22
f 23/23 20/20 18/18
f 22/22 23/23 21/21
f 24/24 20/20 23/23
f 22/22 24/24 23/23
f 25/25 26/26 27/27
f 27/27 26/26 28/28
f 25/25 29/29 26/26
f 26/26 29/29 28/28
f 30/30 25/25 27/27
f 28/28 30/30 27/27
f 28/28 31/31 30/30
f 30/30 32/32 25/25
f 33/33 31/31 28/28
f 25/25 32/32 33/33
f 25/25 33/33 29/29
f 33/33 28/28 29/29
f 34/34 35/35 36/36
f 37/37 34/34 36/36
f 38/38 39/39 40/40
f 41/41 39/39 38/38
f 38/38 40/40 42/42
f 42/42 40/40 43/43
f 43/43 44/44 42/42
f 43/43 45/45 44/44
f 45/45 39/39 41/41
f 45/45 41/41 44/44
f 46/46 47/47 48/48
f 49/49 47/47 46/46
f 50/50 47/47 49/49
f 51/51 52/52 53/53
f 53/53 52/52 54/54
f 52/52 55/55 54/54
f 56/56 57/57 58/58
f 59/59 57/57 56/56
f 60/60 57/57 59/59
f 61/61 62/62 63/63
f 64/64 61/61 63/63
f 65/65 64/64 63/63
f 66/66 67/67 68/68
f 69/69 67/67 66/66
f 69/69 70/70 67/67
f 67/67 70/70 71/71
f 72/72 66/66 68/68
f 72/72 68/68 73/73
f 70/70 74/74 71/71
f 71/71 74/74 75/75
f 76/76 77/77 78/78
f 79/79 76/76 78/78
f 76/76 80/80 77/77
f 81/81 80/80 76/76
f 79/79 78/78 82/82
f 83/83 79/79 82/82
f 81/81 84/84 80/80
f 85/85 84/84 81/81
f 86/86 87/87 88/88
f 86/86 88/88 89/89
f 90/90 91/91 92/92
f 93/93 90/90 92/92
f 91/91 94/94 92/92
f 93/93 92/92 95/95
f 95/95 96/96 93/93
f 96/96 90/90 93/93
f 96/96 97/97 90/90
f 96/96 94/94 97/97
f 98/98 94/94 96/96
f 92/92 94/94 98/98
f 99/99 96/96 95/95
f 96/96 99/99 100/100
f 98/98 100/100 92/92
f 96/96 100/100 98/98
f 101/101 100/100 99/99
f 95/95 101/101 99/99
f 102/102 100/100 101/101
f 103/103 100/100 102/102
f 104/104 103/103 95/95
f 104/104 100/100 103/103
f 95/95 92/92 104/104
f 92/92 100/100 104/104
f 95/95 105/105 101/101
f 95/95 103/103 105/105
f 106/106 107/107 108/108
f 109/109 106/106 108/108
f 110/110 111/111 112/112
f 110/110 112/112 113/113
f 110/110 114/114 111/111
f 115/115 110/110 113/113
f 113/113 116/116 115/115
f 113/113 112/112 116/116
f 112/112 117/117 116/116
f 117/117 114/114 116/116
f 116/116 114/114 118/118
f 118/118 114/114 110/110
f 115/115 116/116 119/119
f 120/120 119/119 116/116
f 110/110 120/120 118/118
f 118/118 120/120 116/116
f 119/119 120/120 121/121
f 119/119 121/121 115/115
f 121/121 120/120 122/122
f 122/122 120/120 123/123
f 115/115 123/123 124/124
f 123/123 120/120 124/124
f 124/124 110/110 115/115
f 124/124 120/120 110/110
f 121/121 125/125 115/115
f 125/125 123/123 115/115
f 126/126 127/127 128/128
f 127/127 129/129 128/128
f 128/128 129/129 130/130
f 130/130 129/129 131/131
f 131/131 132/132 126/126
f 131/131 129/129 132/132
f 131/131 126/126 133/133
f 133/133 126/126 128/128
f 126/126 134/134 127/127
f 127/127 134/134 129/129
f 132/132 135/135 126/126
f 129/129 135/135 132/132
f 134/134 136/136 129/129
f 129/129 136/136 135/135
f 126/126 135/135 137/137
f 137/137 134/134 126/126
f 138/138 139/139 140/140
f 140/140 141/141 138/138
f 142/142 143/143 144/144
f 142/142 145/145 143/143
f 145/145 146/146 143/143
f 145/145 147/147 146/146
f 142/142 144/144 148/148
f 148/148 144/144 149/149
f 147/147 150/150 146/146
f 147/147 151/151 150/150
f 151/151 152/152 150/150
f 151/151 153/153 152/152
f 148/148 149/149 154/154
f 154/154 149/149 155/155
f 144/144 143/143 156/156
f 143/143 157/157 156/156
f 143/143 146/146 157/157
f 146/146 158/158 157/157
f 146/146 150/150 158/158
f 149/149 144/144 159/159
f 159/159 144/144 156/156
f 150/150 160/160 158/158
f 150/150 152/152 160/160
f 152/152 161/161 160/160
f 162/162 149/149 159/159
f 155/155 149/149 162/162
f 163/163 155/155 162/162
f 164/164 155/155 163/163
f 165/165 164/164 163/163
f 166/166 164/164 165/165
f 167/167 155/155 164/164
f 154/154 155/155 167/167
f 168/168 164/164 166/166
f 167/167 164/164 168/168
f 165/165 166/166 168/168
f 169/169 170/170 171/171
f 171/171 170/170 172/172
f 173/173 174/174 175/175
f 176/176 174/174 173/173
f 176/176 173/173 177/177
f 178/178 176/176 177/177
f 174/174 179/179 175/175
f 175/175 179/179 180/180
f 178/178 177/177 181/181
f 182/182 178/178 181/181
f 182/182 181/181 183/183
f 184/184 182/182 183/183
f 179/179 185/185 180/180
f 180/180 185/185 186/186
f 175/175 187/187 173/173
f 173/173 187/187 188/188
f 177/177 173/173 188/188
f 177/177 188/188 189/189
f 181/181 177/177 189/189
f 180/180 190/190 175/175
f 175/175 190/190 187/187
f 181/181 189/189 191/191
f 183/183 181/181 191/191
f 183/183 191/191 192/192
f 180/180 193/193 190/190
f 186/186 193/193 180/180
f 186/186 194/194 193/193
f 195/195 194/194 186/186
f 195/195 196/196 194/194
f 197/197 196/196 195/195
f 186/186 198/198 195/195
f 185/185 198/198 186/186
f 195/195 199/199 197/197
f 198/198 199/199 195/195
f 197/197 196/196 199/199
f 200/200 201/201 202/202
f 201/201 203/203 202/202
f 204/204 201/201 200/200
f 204/204 205/205 201/201
f 204/204 206/206 205/205
f 203/203 206/206 202/202
f 202/202 206/206 207/207
f 207/207 206/206 204/204
f 208/208 209/209 210/210
f 208/208 210/210 211/211
f 212/212 209/209 208/208
f 213/213 212/212 208/208
f 214/214 212/212 213/213
f 211/211 210/210 214/214
f 214/214 210/210 215/215
f 215/215 212/212 214/214
f 216/216 217/217 218/218
f 216/216 219/219 217/217
f 219/219 220/220 217/217
f 219/219 221/221 220/220
f 216/216 218/218 222/222
f 222/222 218/218 223/223
f 221/221 224/224 220/220
f 221/221 225/225 224/224
f 225/225 226/226 224/224
f 225/225 227/227 226/226
f 222/222 223/223 228/228
f 228/228 223/223 229/229
f 228/228 229/229 230/230
f 230/230 229/229 231/231
f 230/230 231/231 232/232
f 232/232 231/231 233/233
f 232/232 233/233 234/234
f 234/234 233/233 235/235
f 234/234 236/236 232/232
f 237/237 236/236 234/234
f 238/238 227/227 225/225
f 239/239 238/238 225/225
f 239/239 225/225 221/221
f 240/240 239/239 221/221
f 240/240 221/221 219/219
f 241/241 240/240 219/219
f 241/241 219/219 216/216
f 242/242 241/241 216/216
f 222/222 242/242 216/216
f 243/243 242/242 222/222
f 228/228 243/243 222/222
f 244/244 243/243 228/228
f 230/230 244/244 228/228
f 245/245 244/244 230/230
f 232/232 245/245 230/230
f 236/236 245/245 232/232
f 246/246 247/247 248/248
f 246/246 249/249 247/247
f 250/250 249/249 246/246
f 251/251 250/250 246/246
f 250/250 252/252 249/249
f 252/252 253/253 249/249
f 252/252 254/254 253/253
f 254/254 255/255 253/253
f 254/254 256/256 255/255
f 256/256 257/257 255/255
f 256/256 258/258 257/257
f 258/258 259/259 257/257
f 258/258 260/260 259/259
f 260/260 261/261 259/259
f 260/260 262/262 261/261
f 262/262 263/263 261/261
f 262/262 264/264 263/263
f 264/264 265/265 263/263
f 264/264 266/266 265/265
f 266/266 267/267 265/265
f 266/266 268/268 267/267
f 264/264 269/269 266/266
f 269/269 270/270 266/266
f 251/251 246/246 271/271
f 272/272 273/273 274/274
f 275/275 273/273 272/272
f 275/275 272/272 276/276
f 277/277 275/275 276/276
f 273/273 278/278 274/274
f 274/274 278/278 279/279
f 277/277 276/276 280/280
f 281/281 277/277 280/280
f 281/281 280/280 282/282
f 283/283 281/281 282/282
f 278/278 284/284 279/279
f 279/279 284/284 285/285
f 284/284 286/286 285/285
f 285/285 286/286 287/287
f 286/286 288/288 287/287
f 287/287 288/288 289/289
f 288/288 290/290 289/289
f 289/289 290/290 291/291
f 292/292 290/290 288/288
f 293/293 290/290 292/292
f 294/294 281/281 283/283
f 294/294 295/295 281/281
f 295/295 277/277 281/281
f 295/295 296/296 277/277
f 296/296 275/275 277/277
f 296/296 297/297 275/275
f 297/297 273/273 275/275
f 298/298 273/273 297/297
f 298/298 278/278 273/273
f 299/299 278/278 298/298
f 299/299 284/284 278/278
f 300/300 284/284 299/299
f 300/300 286/286 284/284
f 301/301 286/286 300/300
f 301/301 288/288 286/286
f 292/292 288/288 301/301
f 302/302 303/303 304/304
f 302/302 304/304 305/305
f 306/306 302/302 305/305
f 307/307 302/302 306/306
f 306/306 305/305 308/308
f 308/308 305/305 309/309
f 308/308 309/309 310/310
f 310/310 309/309 311/311
f 310/310 311/311 312/312
f 312/312 311/311 313/313
f 312/312 313/313 314/314
f 314/314 313/313 315/315
f 314/314 315/315 316/316
f 316/316 315/315 317/317
f 316/316 317/317 318/318
f 318/318 317/317 319/319
f 318/318 319/319 320/320
f 320/320 319/319 321/321
f 320/320 321/321 322/322
f 322/322 321/321 323/323
f 324/324 322/322 323/323
f 325/325 320/320 322/322
f 325/325 322/322 326/326
f 307/307 327/327 302/302
