mtllib arms1137.mtl
o arms1137
v 1.88448 0.00000 3.77332 0.000 0.000 0.788
v 1.88448 0.00000 3.42668 0.000 0.000 0.816
v 2.48265 0.00000 3.67882 0.000 0.000 0.749
v 2.48265 0.00000 3.52118 0.000 0.000 0.776
v 2.64487 0.00000 3.60000 0.000 0.000 0.710
v 1.93375 0.04781 3.72186 0.000 0.000 0.902
v 1.93375 0.04781 3.47814 0.000 0.000 0.925
v 2.54733 0.04781 3.60000 0.000 0.000 0.859
v 2.47274 0.04781 3.63643 0.000 0.000 0.859
v 2.47274 0.04781 3.56357 0.000 0.000 0.886
v 1.93375 -0.04781 3.72186 0.000 0.000 0.902
v 1.93375 -0.04781 3.47814 0.000 0.000 0.925
v 2.54733 -0.04781 3.60000 0.000 0.000 0.859
v 2.47274 -0.04781 3.63643 0.000 0.000 0.859
v 2.47274 -0.04781 3.56357 0.000 0.000 0.886
v -0.53974 0.00000 3.64685 0.000 0.000 0.902
v -0.50004 0.00000 3.55315 0.000 0.000 0.902
v 0.14535 0.00000 3.64685 0.000 0.000 0.902
v 0.10565 0.00000 3.55315 0.000 0.000 0.902
v -0.51989 0.04685 3.60000 0.000 0.000 0.780
v 0.12550 0.04685 3.60000 0.000 0.000 0.780
v -0.51989 -0.04685 3.60000 0.000 0.000 0.780
v 0.12550 -0.04685 3.60000 0.000 0.000 0.780
v 0.61556 0.01593 3.53637 0.000 0.000 0.000
v 0.70764 0.01593 3.60979 0.000 0.000 0.000
v 0.75873 0.01593 3.71590 0.000 0.000 0.000
v 0.75873 0.01593 3.83531 0.000 0.000 0.000
v 0.38670 0.01593 3.53619 0.000 0.000 0.000
v 0.50075 0.01593 3.51016 0.000 0.000 0.000
v 0.50075 0.06374 3.77478 0.000 0.000 0.831
v 0.50075 0.01593 3.86019 0.000 0.000 0.000
v 0.68703 0.06374 3.92333 0.000 0.871 0.000
v 0.60413 0.06374 3.98945 0.000 0.839 0.000
v 0.50075 0.06374 4.01305 0.000 0.831 0.000
v 0.39737 0.06374 3.98945 0.000 0.839 0.000
v 0.31447 0.06374 3.92333 0.000 0.871 0.000
v 0.26846 0.06374 3.82781 0.000 0.902 0.000
v 0.26846 0.04781 3.72177 0.000 0.949 0.000
v 0.31447 0.04781 3.62623 0.000 0.925 0.000
v 0.08005 0.04781 3.29922 0.000 0.824 0.000
v 1.93375 0.03188 3.47814 0.000 0.949 0.000
v 0.29041 0.03188 3.32023 0.000 0.902 0.000
v 2.54733 0.03188 3.60000 0.000 0.969 0.000
v 0.83911 0.03188 3.37246 0.000 0.902 0.000
v 0.60413 0.06374 3.56011 0.000 0.839 0.000
v 0.68703 0.06374 3.62623 0.000 0.871 0.000
v 0.73304 0.06374 3.72177 0.000 0.902 0.000
v 0.73304 0.06374 3.82781 0.000 0.902 0.000
v 0.26846 0.06374 3.72177 0.000 0.902 0.000
v 0.31447 0.06374 3.62623 0.000 0.871 0.000
v 0.39737 0.06374 3.56011 0.000 0.839 0.000
v 0.50075 0.06374 3.53651 0.000 0.831 0.000
v 0.70764 0.03188 3.60979 0.000 0.871 0.000
v 0.61556 0.03188 3.53637 0.000 0.871 0.000
v 0.50075 0.03188 3.51016 0.000 0.871 0.000
v 0.38670 0.03188 3.53619 0.000 0.890 0.000
v 0.75873 0.03188 3.71590 0.000 0.871 0.000
v 0.75873 0.03188 3.83531 0.000 0.902 0.000
v 0.26846 -0.04781 3.72177 0.000 0.949 0.000
v 0.08005 -0.04781 3.29922 0.000 0.824 0.000
v 0.31447 -0.04781 3.62623 0.000 0.925 0.000
v 0.39737 -0.04781 3.56011 0.000 0.902 0.000
v 0.50075 -0.06374 3.77478 0.000 0.000 0.831
v 0.60413 -0.06374 3.56011 0.000 0.839 0.000
v 0.68703 -0.06374 3.62623 0.000 0.871 0.000
v 0.73304 -0.06374 3.72177 0.000 0.902 0.000
v 0.73304 -0.06374 3.82781 0.000 0.902 0.000
v 0.68703 -0.06374 3.92333 0.000 0.871 0.000
v 0.60413 -0.06374 3.98945 0.000 0.839 0.000
v 0.50075 -0.06374 4.01305 0.000 0.831 0.000
v 0.39737 -0.06374 3.98945 0.000 0.839 0.000
v 0.31447 -0.06374 3.92333 0.000 0.871 0.000
v 0.26846 -0.06374 3.82781 0.000 0.902 0.000
v 0.26846 -0.06374 3.72177 0.000 0.902 0.000
v 0.31447 -0.06374 3.62623 0.000 0.871 0.000
v 0.39737 -0.06374 3.56011 0.000 0.839 0.000
v 0.50075 -0.06374 3.53651 0.000 0.831 0.000
v 0.29041 0.04781 3.32023 0.000 0.824 0.000
v 0.39737 0.04781 3.56011 0.000 0.902 0.000
v 0.29041 -0.04781 3.32023 0.000 0.824 0.000
v 0.83911 0.03188 3.82754 0.000 0.902 0.000
v 0.83911 0.03188 3.60000 0.000 0.871 0.000
v 0.83911 0.03188 3.43759 0.000 0.902 0.000
v 0.83911 0.03188 3.76241 0.000 0.890 0.000
v 0.32043 0.03188 3.38756 0.000 0.902 0.000
v 1.93375 0.03188 3.72186 0.000 0.961 0.000
v 0.75873 0.03188 3.77015 0.000 0.890 0.000
v 1.50348 0.03188 3.76340 0.000 0.922 0.000
v 1.46478 0.03188 3.70206 0.000 0.922 0.000
v 0.88299 0.03188 3.75818 0.000 0.890 0.000
v 1.45331 0.03188 3.43175 0.000 0.922 0.000
v 1.80610 0.03188 3.46581 0.000 0.929 0.000
v 1.76731 0.03188 3.52712 0.000 0.929 0.000
v 1.49716 0.03188 3.50107 0.000 0.922 0.000
v 0.83911 -0.03188 3.43759 0.000 0.902 0.000
v 0.70764 -0.03188 3.60979 0.000 0.871 0.000
v 0.61556 -0.03188 3.53637 0.000 0.871 0.000
v 0.83911 -0.03188 3.60000 0.000 0.871 0.000
v 0.29041 -0.03188 3.32023 0.000 0.902 0.000
v 0.83911 -0.03188 3.37246 0.000 0.902 0.000
v 0.32043 -0.03188 3.38756 0.000 0.902 0.000
v 0.50075 -0.03188 3.51016 0.000 0.871 0.000
v 0.38670 -0.03188 3.53619 0.000 0.890 0.000
v 0.75873 -0.03188 3.71590 0.000 0.871 0.000
v 0.83911 -0.03188 3.76241 0.000 0.890 0.000
v 0.75873 -0.03188 3.77015 0.000 0.890 0.000
v 0.83911 -0.03188 3.82754 0.000 0.902 0.000
v 0.75873 -0.03188 3.83531 0.000 0.902 0.000
v 2.54733 -0.03188 3.60000 0.000 0.969 0.000
v 1.76731 -0.03188 3.52712 0.000 0.929 0.000
v 1.49716 -0.03188 3.50107 0.000 0.922 0.000
v 1.50348 -0.03188 3.76340 0.000 0.922 0.000
v 1.46478 -0.03188 3.70206 0.000 0.922 0.000
v 1.93375 -0.03188 3.72186 0.000 0.961 0.000
v 0.88299 -0.03188 3.75818 0.000 0.890 0.000
v 1.80610 -0.03188 3.46581 0.000 0.929 0.000
v 1.93375 -0.03188 3.47814 0.000 0.949 0.000
v 1.45331 -0.03188 3.43175 0.000 0.922 0.000
v 0.61556 -0.01593 3.53637 0.000 0.000 0.000
v 0.70764 -0.01593 3.60979 0.000 0.000 0.000
v 0.50075 -0.01593 3.86019 0.000 0.000 0.000
v 0.75873 -0.01593 3.71590 0.000 0.000 0.000
v 0.75873 -0.01593 3.83531 0.000 0.000 0.000
v 0.38670 -0.01593 3.53619 0.000 0.000 0.000
v 0.50075 -0.01593 3.51016 0.000 0.000 0.000
v 0.58323 0.06374 3.63191 0.000 0.000 0.788
v 0.64361 0.06374 3.69230 0.000 0.000 0.839
v 0.66572 0.06374 3.77478 0.000 0.000 0.851
v 0.64361 0.06374 3.85727 0.000 0.000 0.839
v 0.58323 0.06374 3.91765 0.000 0.000 0.788
v 0.50075 0.06374 3.93975 0.000 0.000 0.780
v 0.41826 0.06374 3.91765 0.000 0.000 0.788
v 0.35788 0.06374 3.85727 0.000 0.000 0.839
v 0.33578 0.06374 3.77478 0.000 0.000 0.851
v 0.35788 0.06374 3.69230 0.000 0.000 0.839
v 0.41826 0.06374 3.63191 0.000 0.000 0.788
v 0.50075 0.06374 3.60981 0.000 0.000 0.780
v 0.58323 -0.06374 3.63191 0.000 0.000 0.788
v 0.64361 -0.06374 3.69230 0.000 0.000 0.839
v 0.66572 -0.06374 3.77478 0.000 0.000 0.851
v 0.64361 -0.06374 3.85727 0.000 0.000 0.839
v 0.58323 -0.06374 3.91765 0.000 0.000 0.788
v 0.50075 -0.06374 3.93975 0.000 0.000 0.780
v 0.41826 -0.06374 3.91765 0.000 0.000 0.788
v 0.35788 -0.06374 3.85727 0.000 0.000 0.839
v 0.33578 -0.06374 3.77478 0.000 0.000 0.851
v 0.35788 -0.06374 3.69230 0.000 0.000 0.839
v 0.41826 -0.06374 3.63191 0.000 0.000 0.788
v 0.50075 -0.06374 3.60981 0.000 0.000 0.780
v 0.88299 -0.01921 3.75818 0.000 0.659 0.000
v 0.88299 0.01921 3.75818 0.000 0.659 0.000
v 1.46478 0.01921 3.70206 0.000 0.659 0.000
v 1.46478 -0.01921 3.70206 0.000 0.659 0.000
v 0.83109 0.00000 3.76331 0.000 0.659 0.000
v 1.51668 0.00000 3.69693 0.000 0.659 0.000
v 1.49716 -0.01921 3.50107 0.000 0.659 0.000
v 1.49716 0.01921 3.50107 0.000 0.659 0.000
v 1.76731 0.01921 3.52712 0.000 0.659 0.000
v 1.76731 -0.01921 3.52712 0.000 0.659 0.000
v 1.44526 0.00000 3.49592 0.000 0.659 0.000
v 1.81921 0.00000 3.53227 0.000 0.659 0.000
v 1.50221 0.00000 3.45004 0.000 0.631 0.000
v 1.77236 0.00000 3.47609 0.000 0.631 0.000
v 0.88804 0.00000 3.80920 0.000 0.631 0.000
v 1.46983 0.00000 3.75309 0.000 0.631 0.000
v 0.23549 0.00000 3.55315 0.000 0.000 0.902
v 0.23549 0.04685 3.60000 0.000 0.000 0.780
v 0.15069 0.00000 3.55315 0.000 0.000 0.902
v 0.17054 0.04685 3.60000 0.000 0.000 0.780
v 0.19039 0.00000 3.64685 0.000 0.000 0.902
v 0.23549 0.00000 3.64685 0.000 0.000 0.902
v 0.23549 -0.04685 3.60000 0.000 0.000 0.780
v 0.17054 -0.04685 3.60000 0.000 0.000 0.780
v -0.56844 0.00000 3.64090 0.000 0.000 0.000
v -0.56844 0.04090 3.60000 0.000 0.000 0.000
v 0.23549 0.00000 3.64091 0.000 0.000 0.000
v 0.23549 0.04090 3.60000 0.000 0.000 0.000
v 0.23549 -0.04090 3.60000 0.000 0.000 0.000
v 0.23549 0.00000 3.55910 0.000 0.000 0.000
v -0.56844 -0.04090 3.60000 0.000 0.000 0.000
v -0.56844 0.00000 3.55910 0.000 0.000 0.000
v -0.64371 -0.06374 3.60000 0.878 0.000 0.000
v -0.61503 -0.06374 3.53092 0.969 0.000 0.000
v -0.64371 0.06374 3.60000 0.878 0.000 0.000
v -0.61503 0.06374 3.53092 0.969 0.000 0.000
v -0.45466 0.06374 3.60000 0.788 0.000 0.000
v -0.45466 0.06374 3.53092 0.878 0.000 0.000
v -0.45466 -0.06374 3.60000 0.765 0.000 0.000
v -0.45466 -0.06374 3.53092 0.855 0.000 0.000
v -0.56844 0.06374 3.60000 0.812 0.000 0.000
v -0.56844 -0.06374 3.60000 0.812 0.000 0.000
v -0.70634 -0.06374 3.66907 0.980 0.000 0.000
v -0.67766 -0.06374 3.60000 0.890 0.000 0.000
v -0.70634 0.06374 3.66908 0.980 0.000 0.000
v -0.67766 0.06374 3.60000 0.890 0.000 0.000
v -0.56844 0.06374 3.66907 0.902 0.000 0.000
v -0.56844 -0.06374 3.66907 0.925 0.000 0.000
v 2.47274 0.03188 3.56357 0.000 0.969 0.000
v 2.47274 0.03188 3.63643 0.000 0.969 0.000
v 2.47274 -0.03188 3.63643 0.000 0.969 0.000
v 2.47274 -0.03188 3.56357 0.000 0.969 0.000
v 0.67193 0.03506 3.34715 0.878 0.000 0.000
v 0.60288 0.03506 3.34049 0.878 0.000 0.000
v 0.73149 0.03506 3.47193 0.812 0.000 0.000
v 0.81004 0.03506 3.36049 0.878 0.000 0.000
v 0.74099 0.03506 3.35381 0.878 0.000 0.000
v 0.85655 0.03506 3.47193 0.812 0.000 0.000
v 0.94815 0.03506 3.37381 0.878 0.000 0.000
v 0.87910 0.03506 3.36715 0.878 0.000 0.000
v 0.98162 0.03506 3.47193 0.812 0.000 0.000
v 1.08626 0.03506 3.38715 0.878 0.000 0.000
v 1.01720 0.03506 3.38049 0.878 0.000 0.000
v 1.10668 0.03506 3.47193 0.812 0.000 0.000
v 0.53382 0.03506 3.33382 0.878 0.000 0.000
v 0.46477 0.03506 3.32716 0.878 0.000 0.000
v 0.60642 0.03506 3.47193 0.812 0.000 0.000
v 0.66895 0.03506 3.47193 0.812 0.000 0.000
v 0.79402 0.03506 3.47193 0.812 0.000 0.000
v 0.91908 0.03506 3.47193 0.812 0.000 0.000
v 1.04415 0.03506 3.47193 0.812 0.000 0.000
v 1.16921 0.03506 3.47193 0.812 0.000 0.000
v 0.67193 -0.03506 3.34715 0.878 0.000 0.000
v 0.60288 -0.03506 3.34049 0.878 0.000 0.000
v 0.73149 -0.03506 3.47193 0.812 0.000 0.000
v 0.81004 -0.03506 3.36049 0.878 0.000 0.000
v 0.74099 -0.03506 3.35381 0.878 0.000 0.000
v 0.85655 -0.03506 3.47193 0.812 0.000 0.000
v 0.94815 -0.03506 3.37381 0.878 0.000 0.000
v 0.87909 -0.03506 3.36715 0.878 0.000 0.000
v 0.98162 -0.03506 3.47193 0.812 0.000 0.000
v 1.08626 -0.03506 3.38715 0.878 0.000 0.000
v 1.01720 -0.03506 3.38049 0.878 0.000 0.000
v 1.10668 -0.03506 3.47193 0.812 0.000 0.000
v 0.53383 -0.03506 3.33382 0.878 0.000 0.000
v 0.46477 -0.03506 3.32716 0.878 0.000 0.000
v 0.60642 -0.03506 3.47193 0.812 0.000 0.000
v 0.66895 -0.03506 3.47193 0.812 0.000 0.000
v 0.79402 -0.03506 3.47193 0.812 0.000 0.000
v 0.91908 -0.03506 3.47193 0.812 0.000 0.000
v 1.04415 -0.03506 3.47193 0.812 0.000 0.000
v 1.16921 -0.03506 3.47193 0.812 0.000 0.000
v 0.70764 0.03506 3.60979 0.859 0.000 0.000
v 0.76827 0.03506 3.63886 0.820 0.000 0.000
v 0.72164 0.03506 3.63886 0.820 0.000 0.000
v 0.64662 0.03506 3.56114 0.820 0.000 0.000
v 0.76827 0.03506 3.56114 0.820 0.000 0.000
v 1.60919 0.03506 3.63886 0.871 0.000 0.000
v 0.81285 0.03506 3.68183 0.820 0.000 0.000
v 0.81285 0.03506 3.51817 0.820 0.000 0.000
v 1.60919 0.03506 3.56114 0.871 0.000 0.000
v 1.56461 0.03506 3.68183 0.820 0.000 0.000
v 1.56461 0.03506 3.51817 0.820 0.000 0.000
v 1.67585 0.03506 3.60000 0.859 0.000 0.000
v 1.67585 0.03506 3.63886 0.820 0.000 0.000
v 1.75833 0.03506 3.65542 0.820 0.000 0.000
v 1.67585 0.03506 3.56114 0.820 0.000 0.000
v 1.75833 0.03506 3.54458 0.820 0.000 0.000
v 1.84835 0.03506 3.60000 0.820 0.000 0.000
v 1.83500 0.03506 3.60823 0.820 0.000 0.000
v 1.83500 0.03506 3.59177 0.820 0.000 0.000
v 2.54733 0.03506 3.60823 0.929 0.000 0.000
v 2.54733 0.03506 3.59177 0.929 0.000 0.000
v 0.70764 -0.03506 3.60979 0.859 0.000 0.000
v 0.76827 -0.03506 3.63886 0.820 0.000 0.000
v 0.72164 -0.03506 3.63886 0.820 0.000 0.000
v 0.64662 -0.03506 3.56114 0.820 0.000 0.000
v 0.76827 -0.03506 3.56114 0.820 0.000 0.000
v 1.60919 -0.03506 3.63886 0.871 0.000 0.000
v 0.81284 -0.03506 3.68183 0.820 0.000 0.000
v 0.81284 -0.03506 3.51817 0.820 0.000 0.000
v 1.60919 -0.03506 3.56114 0.871 0.000 0.000
v 1.56461 -0.03506 3.68183 0.820 0.000 0.000
v 1.56461 -0.03506 3.51817 0.820 0.000 0.000
v 1.67585 -0.03506 3.60000 0.859 0.000 0.000
v 1.67585 -0.03506 3.63886 0.820 0.000 0.000
v 1.75833 -0.03506 3.65542 0.820 0.000 0.000
v 1.67585 -0.03506 3.56114 0.820 0.000 0.000
v 1.75833 -0.03506 3.54458 0.820 0.000 0.000
v 1.84835 -0.03506 3.60000 0.820 0.000 0.000
v 1.83500 -0.03506 3.60823 0.820 0.000 0.000
v 1.83500 -0.03506 3.59177 0.820 0.000 0.000
v 2.54733 -0.03506 3.60823 0.929 0.000 0.000
v 2.54733 -0.03506 3.59177 0.929 0.000 0.000
v 0.20982 0.05099 3.52951 0.914 0.000 0.000
v 0.17893 0.05099 3.39435 0.894 0.000 0.000
v 0.23429 0.05099 3.51860 0.914 0.000 0.000
v 0.32852 0.05099 3.59843 0.933 0.000 0.000
v 0.30405 0.05099 3.60934 0.933 0.000 0.000
v 0.29762 0.05099 3.52908 0.925 0.000 0.000
v 0.10842 0.05099 3.30192 0.886 0.000 0.000
v 0.20340 0.05099 3.38344 0.894 0.000 0.000
v 0.32209 0.05099 3.51817 0.925 0.000 0.000
v 0.30134 0.05099 3.47159 0.914 0.000 0.000
v 0.13914 0.05099 3.30503 0.886 0.000 0.000
v 0.16987 0.05099 3.30817 0.886 0.000 0.000
v 0.23131 0.05099 3.31441 0.886 0.000 0.000
v 0.26204 0.05099 3.31754 0.886 0.000 0.000
v 0.32581 0.05099 3.46068 0.914 0.000 0.000
v 0.20059 0.05099 3.31130 0.886 0.000 0.000
v 0.20982 -0.05099 3.52951 0.914 0.000 0.000
v 0.17893 -0.05099 3.39435 0.894 0.000 0.000
v 0.23429 -0.05099 3.51860 0.914 0.000 0.000
v 0.32852 -0.05099 3.59843 0.933 0.000 0.000
v 0.30405 -0.05099 3.60934 0.933 0.000 0.000
v 0.29762 -0.05099 3.52908 0.925 0.000 0.000
v 0.10842 -0.05099 3.30192 0.886 0.000 0.000
v 0.20340 -0.05099 3.38344 0.894 0.000 0.000
v 0.32209 -0.05099 3.51817 0.925 0.000 0.000
v 0.30134 -0.05099 3.47159 0.914 0.000 0.000
v 0.13914 -0.05099 3.30503 0.886 0.000 0.000
v 0.16987 -0.05099 3.30817 0.886 0.000 0.000
v 0.23131 -0.05099 3.31441 0.886 0.000 0.000
v 0.26204 -0.05099 3.31754 0.886 0.000 0.000
v 0.32581 -0.05099 3.46068 0.914 0.000 0.000
v 0.20059 -0.05099 3.31130 0.886 0.000 0.000
v 0.32420 0.03368 3.39581 0.000 0.000 0.843
v 0.29041 0.03368 3.32023 0.000 0.000 0.824
v 0.36369 0.03368 3.33281 0.000 0.000 0.784
v 0.35799 0.03368 3.47139 0.000 0.000 0.867
v 0.39748 0.03368 3.40839 0.000 0.000 0.796
v 0.43127 0.03368 3.48397 0.000 0.000 0.816
v 0.33670 0.03368 3.39023 0.000 0.000 0.835
v 0.30665 0.03368 3.32302 0.000 0.000 0.824
v 0.37049 0.03368 3.46581 0.000 0.000 0.855
v 0.40054 0.03368 3.53300 0.000 0.000 0.875
v 0.38670 0.03368 3.53619 0.000 0.000 0.886
v 0.32420 -0.03368 3.39581 0.000 0.000 0.843
v 0.29041 -0.03368 3.32023 0.000 0.000 0.824
v 0.36369 -0.03368 3.33281 0.000 0.000 0.784
v 0.35799 -0.03368 3.47139 0.000 0.000 0.867
v 0.39748 -0.03368 3.40839 0.000 0.000 0.796
v 0.43127 -0.03368 3.48397 0.000 0.000 0.816
v 0.33670 -0.03368 3.39023 0.000 0.000 0.835
v 0.30665 -0.03368 3.32302 0.000 0.000 0.824
v 0.37049 -0.03368 3.46581 0.000 0.000 0.855
v 0.40054 -0.03368 3.53300 0.000 0.000 0.875
v 0.38670 -0.03368 3.53619 0.000 0.000 0.886
v 1.99499 -0.03368 3.68701 0.871 0.000 0.000
v 2.33772 -0.03368 3.63442 0.871 0.000 0.000
v 1.95803 -0.03368 3.72560 0.929 0.000 0.000
v 2.38454 -0.03368 3.66016 0.929 0.000 0.000
v 1.99499 -0.03368 3.51299 0.871 0.000 0.000
v 2.33772 -0.03368 3.56558 0.871 0.000 0.000
v 1.95803 -0.03368 3.47440 0.929 0.000 0.000
v 2.38454 -0.03368 3.53984 0.929 0.000 0.000
v 1.99499 0.03368 3.68701 0.871 0.000 0.000
v 2.33772 0.03368 3.63442 0.871 0.000 0.000
v 1.95803 0.03368 3.72560 0.929 0.000 0.000
v 2.38454 0.03368 3.66016 0.929 0.000 0.000
v 1.99499 0.03368 3.51299 0.871 0.000 0.000
v 2.33772 0.03368 3.56558 0.871 0.000 0.000
v 1.95803 0.03368 3.47440 0.929 0.000 0.000
v 2.38454 0.03368 3.53984 0.929 0.000 0.000
v 1.18873 0.03506 3.63886 0.949 0.000 0.000
v 1.18873 0.03506 3.56114 0.949 0.000 0.000
v 1.18873 0.03506 3.68183 0.839 0.000 0.000
v 1.18873 0.03506 3.51817 0.820 0.000 0.000
v 1.18873 0.03506 3.60490 0.910 0.000 0.000
v 1.18873 -0.03506 3.63886 0.949 0.000 0.000
v 1.18873 -0.03506 3.56114 0.949 0.000 0.000
v 1.18873 -0.03506 3.68183 0.839 0.000 0.000
v 1.18873 -0.03506 3.51817 0.820 0.000 0.000
v 1.18873 -0.03506 3.60490 0.910 0.000 0.000
v 1.75833 0.03506 3.60000 0.871 0.000 0.000
v 1.75833 -0.03506 3.60000 0.871 0.000 0.000
v 2.48265 0.00000 3.67882 0.000 0.000 0.749
v 2.47274 0.04781 3.63643 0.000 0.000 0.859
v 2.64487 0.00000 3.60000 0.000 0.000 0.784
v 2.54733 0.04781 3.60000 0.000 0.000 0.933
v 2.48265 0.00000 3.52118 0.000 0.000 0.776
v 2.47274 0.04781 3.56357 0.000 0.000 0.886
v 2.47274 -0.04781 3.63643 0.000 0.000 0.859
v 2.54733 -0.04781 3.60000 0.000 0.000 0.933
v 2.47274 -0.04781 3.56357 0.000 0.000 0.886
v 0.58323 0.06374 3.63191 0.000 0.839 0.000
v 0.64361 0.06374 3.69230 0.000 0.890 0.000
v 0.50075 0.06374 3.77478 0.000 0.000 0.831
v 0.64361 0.06374 3.69230 0.000 0.890 0.000
v 0.66572 0.06374 3.77478 0.000 0.902 0.000
v 0.66572 0.06374 3.77478 0.000 0.902 0.000
v 0.64361 0.06374 3.85727 0.000 0.890 0.000
v 0.73304 0.06374 3.82781 0.000 0.902 0.000
v 0.64361 0.06374 3.85727 0.000 0.890 0.000
v 0.58323 0.06374 3.91765 0.000 0.839 0.000
v 0.50075 0.06374 3.77478 0.000 0.000 0.831
v 0.60413 0.06374 3.98945 0.000 0.839 0.000
v 0.58323 0.06374 3.91765 0.000 0.839 0.000
v 0.50075 0.06374 3.93975 0.000 0.831 0.000
v 0.41826 0.06374 3.91765 0.000 0.839 0.000
v 0.39737 0.06374 3.98945 0.000 0.839 0.000
v 0.41826 0.06374 3.91765 0.000 0.839 0.000
v 0.35788 0.06374 3.85727 0.000 0.890 0.000
v 0.35788 0.06374 3.85727 0.000 0.890 0.000
v 0.33578 0.06374 3.77478 0.000 0.902 0.000
v 0.26846 0.06374 3.82781 0.000 0.902 0.000
v 0.33578 0.06374 3.77478 0.000 0.902 0.000
v 0.35788 0.06374 3.69230 0.000 0.890 0.000
v 0.35788 0.06374 3.69230 0.000 0.890 0.000
v 0.41826 0.06374 3.63191 0.000 0.839 0.000
v 0.39737 0.06374 3.56011 0.000 0.839 0.000
v 0.41826 0.06374 3.63191 0.000 0.839 0.000
v 0.50075 0.06374 3.60981 0.000 0.831 0.000
v 0.58323 0.06374 3.63191 0.000 0.839 0.000
v 0.60413 0.06374 3.56011 0.000 0.839 0.000
v 0.83911 0.03188 3.60000 0.000 0.871 0.000
v 0.70764 0.03188 3.60979 0.000 0.871 0.000
v 0.64361 -0.06374 3.69230 0.000 0.890 0.000
v 0.58323 -0.06374 3.63191 0.000 0.839 0.000
v 0.50075 -0.06374 3.77478 0.000 0.000 0.831
v 0.66572 -0.06374 3.77478 0.000 0.902 0.000
v 0.64361 -0.06374 3.69230 0.000 0.890 0.000
v 0.66572 -0.06374 3.77478 0.000 0.902 0.000
v 0.64361 -0.06374 3.85727 0.000 0.890 0.000
v 0.73304 -0.06374 3.82781 0.000 0.902 0.000
v 0.58323 -0.06374 3.91765 0.000 0.839 0.000
v 0.64361 -0.06374 3.85727 0.000 0.890 0.000
v 0.50075 -0.06374 3.77478 0.000 0.000 0.831
v 0.50075 -0.06374 3.93975 0.000 0.831 0.000
v 0.58323 -0.06374 3.91765 0.000 0.839 0.000
v 0.60413 -0.06374 3.98945 0.000 0.839 0.000
v 0.41826 -0.06374 3.91765 0.000 0.839 0.000
v 0.35788 -0.06374 3.85727 0.000 0.890 0.000
v 0.41826 -0.06374 3.91765 0.000 0.839 0.000
v 0.39737 -0.06374 3.98945 0.000 0.839 0.000
v 0.33578 -0.06374 3.77478 0.000 0.902 0.000
v 0.35788 -0.06374 3.85727 0.000 0.890 0.000
v 0.33578 -0.06374 3.77478 0.000 0.902 0.000
v 0.26846 -0.06374 3.82781 0.000 0.902 0.000
v 0.35788 -0.06374 3.69230 0.000 0.890 0.000
v 0.41826 -0.06374 3.63191 0.000 0.839 0.000
v 0.35788 -0.06374 3.69230 0.000 0.890 0.000
v 0.50075 -0.06374 3.60981 0.000 0.831 0.000
v 0.41826 -0.06374 3.63191 0.000 0.839 0.000
v 0.39737 -0.06374 3.56011 0.000 0.839 0.000
v 0.60413 -0.06374 3.56011 0.000 0.839 0.000
v 0.58323 -0.06374 3.63191 0.000 0.839 0.000
v 0.29041 0.04781 3.32023 0.000 0.851 0.000
v 0.29041 -0.04781 3.32023 0.000 0.851 0.000
v 0.08005 0.04781 3.29922 0.000 0.851 0.000
v 0.08005 -0.04781 3.29922 0.000 0.851 0.000
v 0.08005 0.04781 3.29922 0.000 0.875 0.000
v 0.08005 -0.04781 3.29922 0.000 0.875 0.000
v 0.26846 0.04781 3.72177 0.000 1.000 0.000
v 0.26846 -0.04781 3.72177 0.000 1.000 0.000
v 0.68703 0.06374 3.92333 0.000 0.922 0.000
v 0.68703 -0.06374 3.92333 0.000 0.922 0.000
v 0.73304 0.06374 3.82781 0.000 0.949 0.000
v 0.73304 -0.06374 3.82781 0.000 0.949 0.000
v 0.73304 0.06374 3.72177 0.000 0.949 0.000
v 0.73304 -0.06374 3.72177 0.000 0.949 0.000
v 0.73304 0.06374 3.72177 0.000 0.949 0.000
v 0.73304 -0.06374 3.72177 0.000 0.949 0.000
v 0.68703 0.06374 3.62623 0.000 0.922 0.000
v 0.68703 -0.06374 3.62623 0.000 0.922 0.000
v 0.60413 0.06374 3.56011 0.000 0.890 0.000
v 0.60413 -0.06374 3.56011 0.000 0.890 0.000
v 0.50075 0.06374 3.53651 0.000 0.878 0.000
v 0.50075 -0.06374 3.53651 0.000 0.878 0.000
v 0.39737 0.06374 3.56011 0.000 0.890 0.000
v 0.39737 -0.06374 3.56011 0.000 0.890 0.000
v 0.31447 0.06374 3.62623 0.000 0.922 0.000
v 0.31447 -0.06374 3.62623 0.000 0.922 0.000
v 0.26846 0.06374 3.72177 0.000 0.949 0.000
v 0.26846 -0.06374 3.72177 0.000 0.949 0.000
v 0.26846 0.06374 3.72177 0.000 0.949 0.000
v 0.26846 -0.06374 3.72177 0.000 0.949 0.000
v 0.26846 0.06374 3.82781 0.000 0.949 0.000
v 0.26846 -0.06374 3.82781 0.000 0.949 0.000
v 0.31447 0.06374 3.92333 0.000 0.922 0.000
v 0.31447 -0.06374 3.92333 0.000 0.922 0.000
v 0.39737 0.06374 3.98945 0.000 0.890 0.000
v 0.39737 -0.06374 3.98945 0.000 0.890 0.000
v 0.50075 0.06374 4.01305 0.000 0.878 0.000
v 0.50075 -0.06374 4.01305 0.000 0.878 0.000
v 0.60413 0.06374 3.98945 0.000 0.890 0.000
v 0.60413 -0.06374 3.98945 0.000 0.890 0.000
v 0.39737 0.04781 3.56011 0.000 0.875 0.000
v 0.39737 -0.04781 3.56011 0.000 0.875 0.000
v 0.29041 0.04781 3.32023 0.000 0.800 0.000
v 0.29041 -0.04781 3.32023 0.000 0.800 0.000
v 0.83911 0.03188 3.60000 0.000 0.871 0.000
v 0.83911 0.03188 3.43759 0.000 0.902 0.000
v 0.83911 0.03188 3.82754 0.000 0.902 0.000
v 2.54733 0.03188 3.60000 0.000 0.969 0.000
v 0.83911 0.03188 3.37246 0.000 0.902 0.000
v 0.70764 -0.03188 3.60979 0.000 0.871 0.000
v 0.83911 -0.03188 3.60000 0.000 0.871 0.000
v 0.83911 -0.03188 3.60000 0.000 0.871 0.000
v 0.83911 -0.03188 3.43759 0.000 0.902 0.000
v 2.54733 -0.03188 3.60000 0.000 0.969 0.000
v 0.83911 -0.03188 3.82754 0.000 0.902 0.000
v 0.83911 -0.03188 3.37246 0.000 0.902 0.000
v 0.88299 0.03188 3.75818 0.000 0.914 0.000
v 0.88299 -0.03188 3.75818 0.000 0.914 0.000
v 1.46478 0.03188 3.70206 0.000 0.945 0.000
v 1.46478 -0.03188 3.70206 0.000 0.945 0.000
v 1.46478 0.03188 3.70206 0.000 0.969 0.000
v 1.46478 -0.03188 3.70206 0.000 0.969 0.000
v 1.50348 0.03188 3.76340 0.000 0.969 0.000
v 1.50348 -0.03188 3.76340 0.000 0.969 0.000
v 1.50348 0.03188 3.76340 0.000 0.945 0.000
v 1.50348 -0.03188 3.76340 0.000 0.945 0.000
v 1.93375 0.03188 3.72186 0.000 0.984 0.000
v 1.93375 -0.03188 3.72186 0.000 0.984 0.000
v 1.93375 -0.03188 3.47814 0.000 0.976 0.000
v 1.80610 -0.03188 3.46581 0.000 0.957 0.000
v 1.93375 0.03188 3.47814 0.000 0.976 0.000
v 1.80610 0.03188 3.46581 0.000 0.957 0.000
v 1.80610 -0.03188 3.46581 0.000 0.980 0.000
v 1.76731 -0.03188 3.52712 0.000 0.980 0.000
v 1.80610 0.03188 3.46581 0.000 0.980 0.000
v 1.76731 0.03188 3.52712 0.000 0.980 0.000
v 1.76731 -0.03188 3.52712 0.000 0.957 0.000
v 1.49716 -0.03188 3.50107 0.000 0.945 0.000
v 1.76731 0.03188 3.52712 0.000 0.957 0.000
v 1.49716 0.03188 3.50107 0.000 0.945 0.000
v 1.49716 -0.03188 3.50107 0.000 0.969 0.000
v 1.45331 -0.03188 3.43175 0.000 0.969 0.000
v 1.49716 0.03188 3.50107 0.000 0.969 0.000
v 1.45331 0.03188 3.43175 0.000 0.969 0.000
v 1.45331 -0.03188 3.43175 0.000 0.945 0.000
v 0.83911 -0.03188 3.37246 0.000 0.925 0.000
v 1.45331 0.03188 3.43175 0.000 0.945 0.000
v 0.83911 0.03188 3.37246 0.000 0.925 0.000
v 0.29041 -0.03188 3.32023 0.000 0.925 0.000
v 0.29041 0.03188 3.32023 0.000 0.925 0.000
v 0.83911 0.03188 3.82754 0.000 0.949 0.000
v 0.83911 -0.03188 3.82754 0.000 0.949 0.000
v 0.88299 0.03188 3.75818 0.000 0.941 0.000
v 0.88299 -0.03188 3.75818 0.000 0.941 0.000
v 0.75873 0.03188 3.83531 0.000 0.925 0.000
v 0.75873 -0.03188 3.83531 0.000 0.925 0.000
v 0.83911 0.03188 3.82754 0.000 0.925 0.000
v 0.83911 -0.03188 3.82754 0.000 0.925 0.000
v 0.75873 0.03188 3.77015 0.000 0.941 0.000
v 0.75873 -0.03188 3.77015 0.000 0.941 0.000
v 0.75873 0.03188 3.83531 0.000 0.949 0.000
v 0.75873 -0.03188 3.83531 0.000 0.949 0.000
v 0.75873 0.03188 3.71590 0.000 0.922 0.000
v 0.75873 -0.03188 3.71590 0.000 0.922 0.000
v 0.70764 0.03188 3.60979 0.000 0.922 0.000
v 0.70764 -0.03188 3.60979 0.000 0.922 0.000
v 0.61556 0.03188 3.53637 0.000 0.922 0.000
v 0.61556 -0.03188 3.53637 0.000 0.922 0.000
v 0.50075 0.03188 3.51016 0.000 0.922 0.000
v 0.50075 -0.03188 3.51016 0.000 0.922 0.000
v 0.38670 0.03188 3.53619 0.000 0.941 0.000
v 0.38670 -0.03188 3.53619 0.000 0.941 0.000
v 1.93375 -0.04781 3.47814 0.000 0.000 0.976
v 2.47274 -0.04781 3.56357 0.000 0.000 0.933
v 1.93375 0.04781 3.47814 0.000 0.000 0.976
v 2.47274 0.04781 3.56357 0.000 0.000 0.933
v 2.47274 0.04781 3.63643 0.000 0.000 0.910
v 2.47274 -0.04781 3.63643 0.000 0.000 0.910
v 1.93375 0.04781 3.72186 0.000 0.000 0.949
v 1.93375 -0.04781 3.72186 0.000 0.000 0.949
v 2.47274 -0.04781 3.56357 0.000 0.000 0.910
v 2.54733 -0.04781 3.60000 0.000 0.000 0.910
v 2.47274 0.04781 3.56357 0.000 0.000 0.910
v 2.54733 0.04781 3.60000 0.000 0.000 0.910
v 0.50075 0.01593 3.86019 0.000 0.000 0.000
v 0.50075 -0.01593 3.86019 0.000 0.000 0.000
v 0.75873 0.01593 3.83531 0.000 0.000 0.000
v 0.75873 -0.01593 3.83531 0.000 0.000 0.000
v 0.10565 0.00000 3.55315 0.000 0.000 0.949
v 0.12550 0.04685 3.60000 0.000 0.000 0.831
v 0.12550 -0.04685 3.60000 0.000 0.000 0.831
v 0.14535 0.00000 3.64685 0.000 0.000 0.949
v -0.51989 -0.04685 3.60000 0.000 0.000 0.831
v -0.53974 0.00000 3.64685 0.000 0.000 0.949
v -0.51989 0.04685 3.60000 0.000 0.000 0.831
v 0.19039 0.00000 3.64685 0.000 0.000 0.949
v 0.17054 0.04685 3.60000 0.000 0.000 0.831
v 0.17054 -0.04685 3.60000 0.000 0.000 0.831
v 0.15069 0.00000 3.55315 0.000 0.000 0.949
v 1.88448 0.00000 3.77332 0.000 0.000 0.816
v 1.93375 0.04781 3.72186 0.000 0.000 0.925
v 1.93375 -0.04781 3.72186 0.000 0.000 0.925
v 1.88448 0.00000 3.42668 0.000 0.000 0.839
v 1.93375 -0.04781 3.47814 0.000 0.000 0.949
v 1.93375 0.04781 3.47814 0.000 0.000 0.949
v -0.64371 0.06374 3.60000 0.831 0.000 0.000
v -0.61503 0.06374 3.53092 0.922 0.000 0.000
v -0.45466 0.06374 3.60000 0.765 0.000 0.000
v -0.45466 0.06374 3.53092 0.855 0.000 0.000
v -0.64371 -0.06374 3.60000 0.831 0.000 0.000
v -0.61503 -0.06374 3.53092 0.922 0.000 0.000
v -0.45466 -0.06374 3.53092 0.878 0.000 0.000
v -0.45466 -0.06374 3.60000 0.788 0.000 0.000
v -0.61503 -0.06374 3.53092 0.922 0.000 0.000
v -0.61503 0.06374 3.53092 0.922 0.000 0.000
v -0.45466 -0.06374 3.53092 0.878 0.000 0.000
v -0.45466 0.06374 3.53092 0.878 0.000 0.000
v -0.45466 -0.06374 3.60000 0.839 0.000 0.000
v -0.45466 0.06374 3.60000 0.839 0.000 0.000
v -0.56844 -0.06374 3.60000 0.859 0.000 0.000
v -0.56844 0.06374 3.60000 0.859 0.000 0.000
v -0.64371 0.06374 3.60000 0.831 0.000 0.000
v -0.70634 0.06374 3.66908 0.929 0.000 0.000
v -0.67766 0.06374 3.60000 0.839 0.000 0.000
v -0.56844 0.06374 3.60000 0.812 0.000 0.000
v -0.56844 -0.06374 3.60000 0.835 0.000 0.000
v -0.56844 0.06374 3.66907 0.925 0.000 0.000
v -0.56844 0.06374 3.60000 0.835 0.000 0.000
v -0.67766 -0.06374 3.60000 0.839 0.000 0.000
v -0.64371 -0.06374 3.60000 0.831 0.000 0.000
v -0.70634 -0.06374 3.66907 0.929 0.000 0.000
v -0.56844 -0.06374 3.66907 0.902 0.000 0.000
v -0.56844 -0.06374 3.60000 0.812 0.000 0.000
v -0.67766 -0.06374 3.60000 0.867 0.000 0.000
v -0.67766 0.06374 3.60000 0.867 0.000 0.000
v -0.64371 -0.06374 3.60000 0.855 0.000 0.000
v -0.64371 0.06374 3.60000 0.855 0.000 0.000
v -0.56844 -0.06374 3.66907 0.875 0.000 0.000
v -0.56844 0.06374 3.66907 0.875 0.000 0.000
v -0.70634 -0.06374 3.66907 0.906 0.000 0.000
v -0.70634 0.06374 3.66908 0.906 0.000 0.000
v 1.08626 0.03506 3.38715 0.906 0.000 0.000
v 1.08626 -0.03506 3.38715 0.906 0.000 0.000
v 1.01720 0.03506 3.38049 0.906 0.000 0.000
v 1.01720 -0.03506 3.38049 0.906 0.000 0.000
v 0.94815 0.03506 3.37381 0.906 0.000 0.000
v 0.94815 -0.03506 3.37381 0.906 0.000 0.000
v 0.87910 0.03506 3.36715 0.906 0.000 0.000
v 0.87909 -0.03506 3.36715 0.906 0.000 0.000
v 0.81004 0.03506 3.36049 0.906 0.000 0.000
v 0.81004 -0.03506 3.36049 0.906 0.000 0.000
v 0.74099 0.03506 3.35381 0.906 0.000 0.000
v 0.74099 -0.03506 3.35381 0.906 0.000 0.000
v 0.67193 0.03506 3.34715 0.906 0.000 0.000
v 0.67193 -0.03506 3.34715 0.906 0.000 0.000
v 0.60288 0.03506 3.34049 0.906 0.000 0.000
v 0.60288 -0.03506 3.34049 0.906 0.000 0.000
v 0.53382 0.03506 3.33382 0.906 0.000 0.000
v 0.53383 -0.03506 3.33382 0.906 0.000 0.000
v 0.46477 0.03506 3.32716 0.906 0.000 0.000
v 0.46477 -0.03506 3.32716 0.906 0.000 0.000
v 0.70764 0.03506 3.60979 0.859 0.000 0.000
v 0.76827 0.03506 3.63886 0.871 0.000 0.000
v 0.76827 0.03506 3.56114 0.871 0.000 0.000
v 1.60919 0.03506 3.63886 0.820 0.000 0.000
v 1.60919 0.03506 3.56114 0.820 0.000 0.000
v 1.18873 0.03506 3.56114 0.902 0.000 0.000
v 1.18873 0.03506 3.63886 0.902 0.000 0.000
v 1.84835 0.03506 3.60000 0.820 0.000 0.000
v 2.54733 0.03506 3.59177 0.929 0.000 0.000
v 0.70764 -0.03506 3.60979 0.859 0.000 0.000
v 0.76827 -0.03506 3.63886 0.871 0.000 0.000
v 0.76827 -0.03506 3.56114 0.871 0.000 0.000
v 1.60919 -0.03506 3.63886 0.820 0.000 0.000
v 1.60919 -0.03506 3.56114 0.820 0.000 0.000
v 1.18873 -0.03506 3.56114 0.902 0.000 0.000
v 1.18873 -0.03506 3.63886 0.902 0.000 0.000
v 1.84835 -0.03506 3.60000 0.820 0.000 0.000
v 2.54733 -0.03506 3.59177 0.929 0.000 0.000
v 0.29762 0.05099 3.52908 0.925 0.000 0.000
v 0.13914 0.05099 3.30503 0.886 0.000 0.000
v 0.20340 0.05099 3.38344 0.894 0.000 0.000
v 0.17893 0.05099 3.39435 0.894 0.000 0.000
v 0.16987 0.05099 3.30817 0.886 0.000 0.000
v 0.20059 0.05099 3.31130 0.886 0.000 0.000
v 0.30134 0.05099 3.47159 0.914 0.000 0.000
v 0.23131 0.05099 3.31441 0.886 0.000 0.000
v 0.29762 -0.05099 3.52908 0.925 0.000 0.000
v 0.20340 -0.05099 3.38344 0.894 0.000 0.000
v 0.13914 -0.05099 3.30503 0.886 0.000 0.000
v 0.17893 -0.05099 3.39435 0.894 0.000 0.000
v 0.16987 -0.05099 3.30817 0.886 0.000 0.000
v 0.20059 -0.05099 3.31130 0.886 0.000 0.000
v 0.30134 -0.05099 3.47159 0.914 0.000 0.000
v 0.23131 -0.05099 3.31441 0.886 0.000 0.000
v 0.32420 0.03368 3.39581 0.000 0.000 0.843
v 0.33670 0.03368 3.39023 0.000 0.000 0.835
v 0.37049 0.03368 3.46581 0.000 0.000 0.855
v 0.35799 0.03368 3.47139 0.000 0.000 0.867
v 0.32420 -0.03368 3.39581 0.000 0.000 0.843
v 0.33670 -0.03368 3.39023 0.000 0.000 0.835
v 0.37049 -0.03368 3.46581 0.000 0.000 0.855
v 0.35799 -0.03368 3.47139 0.000 0.000 0.867
vt 0.32127 0.92969
vt 0.32127 0.60111
vt 0.07315 0.92969
vt 0.07315 0.60111
vt 0.00134 0.92969
vt 0.32127 0.88281
vt 0.32127 0.64889
vt 0.03621 0.88281
vt 0.10222 0.88281
vt 0.06920 0.64889
vt 0.32127 0.88281
vt 0.32127 0.64889
vt 0.03621 0.88281
vt 0.10222 0.88281
vt 0.06920 0.64889
vt 0.74940 0.16406
vt 0.66218 0.00781
vt 0.00781 0.16406
vt 0.00781 0.00781
vt 0.70512 0.08594
vt 0.00781 0.08594
vt 0.70512 0.08594
vt 0.00781 0.08594
vt 0.54417 0.42420
vt 0.57860 0.46039
vt 0.62532 0.47806
vt 0.67569 0.47364
vt 0.53854 0.32750
vt 0.53175 0.37665
vt 0.83925 0.37602
vt 0.67569 0.36371
vt 0.49641 0.30469
vt 0.37772 0.30469
vt 0.26275 0.30469
vt 0.37898 0.30469
vt 0.49641 0.30469
vt 0.57994 0.30469
vt 0.32773 0.17969
vt 0.24916 0.23477
vt 0.00781 0.17969
vt 0.35965 0.74219
vt 0.94860 0.99219
vt 0.00421 0.69531
vt 0.64844 0.99219
vt 0.37772 0.30469
vt 0.49641 0.30469
vt 0.57994 0.30469
vt 0.69939 0.30469
vt 0.57994 0.30469
vt 0.49641 0.30469
vt 0.37772 0.30469
vt 0.26275 0.30469
vt 0.70850 0.85536
vt 0.76194 0.89177
vt 0.82547 0.90077
vt 0.88611 0.88072
vt 0.99219 0.66310
vt 0.99219 0.72656
vt 0.32773 0.17969
vt 0.00781 0.17969
vt 0.24916 0.23477
vt 0.18921 0.30518
vt 0.83925 0.37601
vt 0.37772 0.30469
vt 0.49641 0.30469
vt 0.57994 0.30469
vt 0.69939 0.30469
vt 0.49641 0.30469
vt 0.37772 0.30469
vt 0.26275 0.30469
vt 0.37898 0.30469
vt 0.49641 0.30469
vt 0.57994 0.30469
vt 0.57994 0.30469
vt 0.49641 0.30469
vt 0.37772 0.30469
vt 0.26275 0.30469
vt 0.00781 0.30518
vt 0.18921 0.30518
vt 0.00781 0.30518
vt 0.93791 0.72656
vt 0.63764 0.86722
vt 0.64535 0.95851
vt 0.93577 0.69531
vt 0.92912 0.95851
vt 0.35990 0.72656
vt 0.99219 0.69531
vt 0.60156 0.72656
vt 0.60156 0.69531
vt 0.91406 0.69531
vt 0.57031 0.74219
vt 0.42969 0.74219
vt 0.42969 0.77344
vt 0.57031 0.77344
vt 0.64535 0.95851
vt 0.70850 0.85536
vt 0.76194 0.89177
vt 0.63764 0.86722
vt 0.94860 0.99219
vt 0.64844 0.99219
vt 0.92912 0.95851
vt 0.82547 0.90077
vt 0.88611 0.88072
vt 0.99219 0.66310
vt 0.93577 0.69531
vt 0.99219 0.69531
vt 0.93791 0.72656
vt 0.99219 0.72656
vt 0.00377 0.78906
vt 0.42969 0.77344
vt 0.57031 0.77344
vt 0.60156 0.72656
vt 0.60156 0.69531
vt 0.35990 0.72656
vt 0.91406 0.69531
vt 0.42969 0.74219
vt 0.35965 0.74219
vt 0.57031 0.74219
vt 0.54417 0.42420
vt 0.57860 0.46039
vt 0.67569 0.36371
vt 0.62532 0.47806
vt 0.67569 0.47364
vt 0.53854 0.32750
vt 0.53175 0.37665
vt 0.78712 0.17969
vt 0.89138 0.17969
vt 0.99564 0.17969
vt 0.89138 0.17969
vt 0.78712 0.17969
vt 0.68285 0.17969
vt 0.78712 0.17969
vt 0.89138 0.17969
vt 0.99564 0.17969
vt 0.89138 0.17969
vt 0.78712 0.17969
vt 0.68285 0.17969
vt 0.78712 0.17969
vt 0.89138 0.17969
vt 0.99564 0.17969
vt 0.89138 0.17969
vt 0.78712 0.17969
vt 0.68285 0.17969
vt 0.78712 0.17969
vt 0.89138 0.17969
vt 0.99564 0.17969
vt 0.89138 0.17969
vt 0.78712 0.17969
vt 0.68285 0.17969
vt 0.97690 0.00781
vt 0.97690 0.00781
vt 0.74124 0.00781
vt 0.74124 0.00781
vt 0.99792 0.00781
vt 0.72021 0.00781
vt 0.97690 0.00781
vt 0.97690 0.00781
vt 0.74124 0.00781
vt 0.74124 0.00781
vt 0.99792 0.00781
vt 0.72021 0.00781
vt 0.97683 0.08594
vt 0.74117 0.08594
vt 0.97683 0.08594
vt 0.74117 0.08594
vt 0.90004 0.16406
vt 0.88203 0.10156
vt 0.82031 0.16406
vt 0.82031 0.10156
vt 0.82031 0.16406
vt 0.86289 0.16406
vt 0.88203 0.10156
vt 0.82031 0.10156
vt 0.42969 0.53906
vt 0.39844 0.53906
vt 0.42969 0.32031
vt 0.39844 0.32031
vt 0.39844 0.32031
vt 0.42969 0.32031
vt 0.39844 0.53906
vt 0.42969 0.53906
vt 0.69531 0.49219
vt 0.75781 0.49219
vt 0.69531 0.57031
vt 0.75781 0.57031
vt 0.99219 0.57031
vt 0.99219 0.49219
vt 0.69531 0.49219
vt 0.75781 0.49219
vt 0.86027 0.57031
vt 0.86027 0.57031
vt 0.75781 0.49219
vt 0.69531 0.49219
vt 0.75781 0.57031
vt 0.69531 0.57031
vt 0.99219 0.49219
vt 0.75781 0.49219
vt 0.04584 0.77344
vt 0.04628 0.71094
vt 0.04628 0.71094
vt 0.04584 0.77344
vt 0.49219 0.46094
vt 0.52344 0.46094
vt 0.52344 0.32031
vt 0.49219 0.46094
vt 0.52344 0.46094
vt 0.52344 0.32031
vt 0.49219 0.46094
vt 0.52344 0.46094
vt 0.52344 0.32031
vt 0.49219 0.46094
vt 0.52344 0.46094
vt 0.52344 0.32031
vt 0.49219 0.46094
vt 0.52344 0.46094
vt 0.52344 0.32031
vt 0.49219 0.32031
vt 0.49219 0.32031
vt 0.49219 0.32031
vt 0.49219 0.32031
vt 0.49219 0.32031
vt 0.49219 0.46094
vt 0.52344 0.46094
vt 0.52344 0.32031
vt 0.49219 0.46094
vt 0.52344 0.46094
vt 0.52344 0.32031
vt 0.49219 0.46094
vt 0.52344 0.46094
vt 0.52344 0.32031
vt 0.49219 0.46094
vt 0.52344 0.46094
vt 0.52344 0.32031
vt 0.49219 0.46094
vt 0.52344 0.46094
vt 0.52344 0.32031
vt 0.49219 0.32031
vt 0.49219 0.32031
vt 0.49219 0.32031
vt 0.49219 0.32031
vt 0.49219 0.32031
vt 0.16647 0.95916
vt 0.22130 0.99219
vt 0.17913 0.99219
vt 0.11130 0.99219
vt 0.22130 0.99219
vt 0.00781 0.86719
vt 0.00781 0.82031
vt 0.00781 0.82031
vt 0.00781 0.86719
vt 0.00781 0.82031
vt 0.00781 0.82031
vt 0.16647 0.94531
vt 0.16647 0.99219
vt 0.09189 0.99219
vt 0.16647 0.99219
vt 0.09189 0.99219
vt 0.01051 0.99219
vt 0.52572 0.86719
vt 0.52572 0.86719
vt 0.35156 0.86719
vt 0.35156 0.85039
vt 0.16647 0.95916
vt 0.22130 0.99219
vt 0.17913 0.99219
vt 0.11130 0.99219
vt 0.22130 0.99219
vt 0.00781 0.86719
vt 0.00781 0.82031
vt 0.00781 0.82031
vt 0.00781 0.86719
vt 0.00781 0.82031
vt 0.00781 0.82031
vt 0.16647 0.94531
vt 0.16647 0.99219
vt 0.09189 0.99219
vt 0.16647 0.99219
vt 0.09189 0.99219
vt 0.01051 0.99219
vt 0.52572 0.86719
vt 0.52572 0.86719
vt 0.35156 0.86719
vt 0.35156 0.85039
vt 0.44531 0.48416
vt 0.47656 0.39454
vt 0.47656 0.48403
vt 0.47656 0.53732
vt 0.44531 0.53745
vt 0.47656 0.48707
vt 0.44531 0.32025
vt 0.44531 0.37446
vt 0.47656 0.47697
vt 0.47656 0.44342
vt 0.47656 0.33022
vt 0.47656 0.33022
vt 0.47656 0.33022
vt 0.47656 0.33022
vt 0.47656 0.43331
vt 0.47656 0.33022
vt 0.44531 0.48416
vt 0.47656 0.39454
vt 0.47656 0.48403
vt 0.47656 0.53732
vt 0.44531 0.53745
vt 0.47656 0.48707
vt 0.44531 0.32025
vt 0.44531 0.37446
vt 0.47656 0.47697
vt 0.47656 0.44342
vt 0.47656 0.33022
vt 0.47656 0.33022
vt 0.47656 0.33022
vt 0.47656 0.33022
vt 0.47656 0.43331
vt 0.47656 0.33022
vt 0.28906 0.39844
vt 0.00089 0.39844
vt 0.16406 0.57031
vt 0.28906 0.39844
vt 0.16406 0.57031
vt 0.16406 0.57031
vt 0.28906 0.44531
vt 0.03906 0.44531
vt 0.28906 0.44531
vt 0.28906 0.44531
vt 0.27707 0.39844
vt 0.28906 0.39844
vt 0.00089 0.39844
vt 0.16406 0.57031
vt 0.28906 0.39844
vt 0.16406 0.57031
vt 0.16406 0.57031
vt 0.28906 0.44531
vt 0.03906 0.44531
vt 0.28906 0.44531
vt 0.28906 0.44531
vt 0.27707 0.39844
vt 0.60156 0.89844
vt 0.33594 0.89844
vt 0.60156 0.92969
vt 0.33594 0.92969
vt 0.60156 0.89844
vt 0.33594 0.89844
vt 0.60156 0.92969
vt 0.33594 0.92969
vt 0.60156 0.89844
vt 0.33594 0.89844
vt 0.60156 0.92969
vt 0.33594 0.92969
vt 0.60156 0.89844
vt 0.33594 0.89844
vt 0.60156 0.92969
vt 0.33594 0.92969
vt 0.33311 0.86719
vt 0.33311 0.86719
vt 0.29425 0.82031
vt 0.29425 0.82031
vt 0.60156 0.94531
vt 0.33311 0.86719
vt 0.33311 0.86719
vt 0.29425 0.82031
vt 0.29425 0.82031
vt 0.60156 0.94531
vt 0.09220 0.94531
vt 0.09220 0.94531
vt 0.07893 0.92969
vt 0.06920 0.88281
vt 0.00134 0.60111
vt 0.03621 0.64889
vt 0.07893 0.60111
vt 0.10222 0.64889
vt 0.06920 0.88281
vt 0.03621 0.64889
vt 0.10222 0.64889
vt 0.41827 0.22656
vt 0.51446 0.22656
vt 0.94351 0.37602
vt 0.51901 0.22656
vt 0.61521 0.22656
vt 0.63967 0.22656
vt 0.51901 0.22656
vt 0.57994 0.30469
vt 0.51446 0.22656
vt 0.41827 0.22656
vt 0.73499 0.37601
vt 0.37898 0.30469
vt 0.37718 0.22656
vt 0.28412 0.22656
vt 0.37718 0.22656
vt 0.37772 0.30469
vt 0.41827 0.22656
vt 0.51446 0.22656
vt 0.51901 0.22656
vt 0.61521 0.22656
vt 0.69939 0.30469
vt 0.63967 0.22656
vt 0.51901 0.22656
vt 0.51446 0.22656
vt 0.41827 0.22656
vt 0.37898 0.30469
vt 0.37718 0.22656
vt 0.28412 0.22656
vt 0.37718 0.22656
vt 0.37898 0.30469
vt 0.92813 0.60297
vt 0.99219 0.60203
vt 0.51446 0.22656
vt 0.41827 0.22656
vt 0.94351 0.37602
vt 0.61521 0.22656
vt 0.51901 0.22656
vt 0.63967 0.22656
vt 0.51901 0.22656
vt 0.57994 0.30469
vt 0.41827 0.22656
vt 0.51446 0.22656
vt 0.73498 0.37601
vt 0.28412 0.22656
vt 0.37718 0.22656
vt 0.37898 0.30469
vt 0.37718 0.22656
vt 0.51446 0.22656
vt 0.41827 0.22656
vt 0.37772 0.30469
vt 0.61520 0.22656
vt 0.51901 0.22656
vt 0.63967 0.22656
vt 0.69939 0.30469
vt 0.51901 0.22656
vt 0.41827 0.22656
vt 0.51446 0.22656
vt 0.28412 0.22656
vt 0.37718 0.22656
vt 0.37898 0.30469
vt 0.37898 0.30469
vt 0.37718 0.22656
vt 0.27344 0.32031
vt 0.27344 0.38281
vt 0.38223 0.32031
vt 0.38223 0.38281
vt 0.00781 0.32031
vt 0.00781 0.38281
vt 0.25781 0.32031
vt 0.25781 0.38281
vt 0.83965 0.38281
vt 0.83965 0.47656
vt 0.91000 0.38281
vt 0.91000 0.47656
vt 0.99219 0.38281
vt 0.99219 0.47656
vt 0.91000 0.38281
vt 0.91000 0.47656
vt 0.83965 0.38281
vt 0.83965 0.47656
vt 0.76767 0.38281
vt 0.76767 0.47656
vt 0.69531 0.38281
vt 0.69531 0.47656
vt 0.76767 0.38281
vt 0.76767 0.47656
vt 0.83965 0.38281
vt 0.83965 0.47656
vt 0.91000 0.38281
vt 0.91000 0.47656
vt 0.99219 0.38281
vt 0.99219 0.47656
vt 0.91000 0.38281
vt 0.91000 0.47656
vt 0.83965 0.38281
vt 0.83965 0.47656
vt 0.76767 0.38281
vt 0.76767 0.47656
vt 0.69531 0.38281
vt 0.69531 0.47656
vt 0.76767 0.38281
vt 0.76767 0.47656
vt 0.14846 0.32031
vt 0.14846 0.38281
vt 0.00781 0.32031
vt 0.00781 0.38281
vt 0.92769 0.86715
vt 0.93538 0.77344
vt 0.91409 0.72656
vt 0.00377 0.78906
vt 0.91113 0.74219
vt 0.99219 0.60203
vt 0.92813 0.60297
vt 0.92769 0.86715
vt 0.93538 0.77344
vt 0.00421 0.69531
vt 0.91409 0.72656
vt 0.91113 0.74219
vt 0.61719 0.21094
vt 0.61719 0.17969
vt 0.33594 0.21094
vt 0.33594 0.17969
vt 0.63281 0.21094
vt 0.63281 0.17969
vt 0.66406 0.21094
vt 0.66406 0.17969
vt 0.61719 0.21094
vt 0.61719 0.17969
vt 0.39618 0.21094
vt 0.39618 0.17969
vt 0.54881 0.17969
vt 0.61719 0.17969
vt 0.54881 0.21094
vt 0.61719 0.21094
vt 0.66406 0.17969
vt 0.63281 0.17969
vt 0.66406 0.21094
vt 0.63281 0.21094
vt 0.47646 0.17969
vt 0.61719 0.17969
vt 0.47646 0.21094
vt 0.61719 0.21094
vt 0.63281 0.17969
vt 0.66406 0.17969
vt 0.63281 0.21094
vt 0.66406 0.21094
vt 0.61719 0.17969
vt 0.33594 0.17969
vt 0.61719 0.21094
vt 0.33594 0.21094
vt 0.61719 0.17969
vt 0.61719 0.21094
vt 0.66406 0.21094
vt 0.66406 0.17969
vt 0.63281 0.21094
vt 0.63281 0.17969
vt 0.37797 0.21094
vt 0.37797 0.17969
vt 0.33594 0.21094
vt 0.33594 0.17969
vt 0.37953 0.17969
vt 0.37953 0.21094
vt 0.33594 0.17969
vt 0.33594 0.21094
vt 0.41460 0.17969
vt 0.41460 0.21094
vt 0.48318 0.17969
vt 0.48318 0.21094
vt 0.54291 0.17969
vt 0.54291 0.21094
vt 0.61719 0.17969
vt 0.61719 0.21094
vt 0.54302 0.17969
vt 0.54302 0.21094
vt 0.52344 0.55469
vt 0.35156 0.55469
vt 0.52344 0.58594
vt 0.35156 0.58594
vt 0.35156 0.58594
vt 0.35156 0.55469
vt 0.52344 0.58594
vt 0.52344 0.55469
vt 0.35156 0.55469
vt 0.30469 0.55469
vt 0.35156 0.58594
vt 0.30469 0.58594
vt 0.71094 0.32031
vt 0.71094 0.35156
vt 0.58795 0.32031
vt 0.58795 0.35156
vt 0.00781 0.58594
vt 0.07031 0.58594
vt 0.00781 0.52344
vt 0.00781 0.58594
vt 0.00781 0.52344
vt 0.00781 0.58594
vt 0.07031 0.58594
vt 0.00781 0.58594
vt 0.07031 0.58594
vt 0.00781 0.52344
vt 0.00781 0.58594
vt 0.00781 0.58594
vt 0.00781 0.52344
vt 0.07031 0.58594
vt 0.00781 0.58594
vt 0.07031 0.58594
vt 0.00781 0.52344
vt 0.77743 0.57031
vt 0.80900 0.49219
vt 0.69531 0.57031
vt 0.75781 0.57031
vt 0.77743 0.57031
vt 0.80900 0.49219
vt 0.99219 0.49219
vt 0.99219 0.57031
vt 0.53906 0.49219
vt 0.53906 0.57031
vt 0.67969 0.49219
vt 0.67969 0.57031
vt 0.62075 0.49219
vt 0.62075 0.57031
vt 0.53886 0.49219
vt 0.53886 0.57031
vt 0.90157 0.57031
vt 0.83263 0.49219
vt 0.86420 0.57031
vt 0.99219 0.57031
vt 0.69531 0.49219
vt 0.75781 0.57031
vt 0.69531 0.57031
vt 0.86420 0.57031
vt 0.90157 0.57031
vt 0.83263 0.49219
vt 0.99219 0.49219
vt 0.99219 0.57031
vt 0.59780 0.49219
vt 0.59780 0.57031
vt 0.53906 0.49219
vt 0.53906 0.57031
vt 0.67969 0.49219
vt 0.67969 0.57031
vt 0.53906 0.49219
vt 0.53906 0.57031
vt 0.49219 0.47656
vt 0.49219 0.53906
vt 0.52344 0.47656
vt 0.52344 0.53906
vt 0.49219 0.47656
vt 0.49219 0.53906
vt 0.52344 0.47656
vt 0.52344 0.53906
vt 0.49219 0.47656
vt 0.49219 0.53906
vt 0.52344 0.47656
vt 0.52344 0.53906
vt 0.49219 0.47656
vt 0.49219 0.53906
vt 0.52344 0.47656
vt 0.52344 0.53906
vt 0.49219 0.47656
vt 0.49219 0.53906
vt 0.52344 0.47656
vt 0.52344 0.53906
vt 0.16647 0.93807
vt 0.00781 0.86719
vt 0.00781 0.86719
vt 0.22675 0.99219
vt 0.22675 0.99219
vt 0.60156 0.99219
vt 0.60156 0.99219
vt 0.52264 0.85879
vt 0.35156 0.86719
vt 0.16647 0.93807
vt 0.00781 0.86719
vt 0.00781 0.86719
vt 0.22675 0.99219
vt 0.22675 0.99219
vt 0.60156 0.99219
vt 0.60156 0.99219
vt 0.52264 0.85879
vt 0.35156 0.86719
vt 0.44531 0.47710
vt 0.44531 0.32025
vt 0.47656 0.38443
vt 0.44531 0.38456
vt 0.44531 0.32025
vt 0.44531 0.32025
vt 0.44531 0.43344
vt 0.44531 0.32025
vt 0.44531 0.47710
vt 0.47656 0.38443
vt 0.44531 0.32025
vt 0.44531 0.38456
vt 0.44531 0.32025
vt 0.44531 0.32025
vt 0.44531 0.43344
vt 0.44531 0.32025
vt 0.03906 0.39844
vt 0.03906 0.44531
vt 0.03906 0.44531
vt 0.03906 0.39844
vt 0.03906 0.39844
vt 0.03906 0.44531
vt 0.03906 0.44531
vt 0.03906 0.39844
usemtl m0
f 5/5 8/8 3/3
f 1/1 366/366 6/6
f 6/6 366/366 9/9
f 3/3 8/8 367/367
f 368/368 4/4 369/369
f 2/2 7/7 370/370
f 369/369 4/4 10/10
f 370/370 7/7 371/371
f 5/5 3/3 13/13
f 1/1 11/11 366/366
f 11/11 14/14 366/366
f 3/3 372/372 13/13
f 368/368 373/373 4/4
f 2/2 370/370 12/12
f 373/373 15/15 4/4
f 370/370 374/374 12/12
f 16/16 18/18 20/20
f 18/18 21/21 20/20
f 21/21 19/19 20/20
f 20/20 19/19 17/17
f 16/16 22/22 18/18
f 18/18 22/22 23/23
f 23/23 22/22 19/19
f 22/22 17/17 19/19
f 30/30 127/127 126/126
f 45/45 375/375 46/46
f 375/375 376/376 46/46
f 24/24 31/31 25/25
f 377/377 128/128 127/127
f 46/46 378/378 47/47
f 378/378 379/379 47/47
f 25/25 31/31 26/26
f 47/47 380/380 48/48
f 26/26 31/31 27/27
f 377/377 129/129 128/128
f 379/379 381/381 382/382
f 381/381 32/32 382/382
f 30/30 130/130 129/129
f 383/383 384/384 32/32
f 384/384 33/33 32/32
f 385/385 131/131 130/130
f 386/386 387/387 34/34
f 387/387 388/388 34/34
f 385/385 132/132 131/131
f 388/388 389/389 34/34
f 389/389 35/35 34/34
f 30/30 133/133 132/132
f 390/390 391/391 36/36
f 391/391 392/392 36/36
f 377/377 134/134 133/133
f 36/36 393/393 37/37
f 393/393 394/394 37/37
f 395/395 396/396 49/49
f 377/377 135/135 134/134
f 394/394 397/397 49/49
f 397/397 50/50 49/49
f 30/30 136/136 135/135
f 398/398 399/399 50/50
f 399/399 51/51 50/50
f 385/385 137/137 136/136
f 400/400 401/401 52/52
f 401/401 402/402 52/52
f 28/28 31/31 29/29
f 385/385 126/126 137/137
f 402/402 403/403 52/52
f 403/403 404/404 52/52
f 29/29 31/31 24/24
f 38/38 39/39 40/40
f 83/83 54/54 53/53
f 53/53 82/82 83/83
f 42/42 85/85 44/44
f 55/55 83/83 85/85
f 54/54 83/83 55/55
f 44/44 85/85 83/83
f 39/39 78/78 40/40
f 39/39 79/79 78/78
f 55/55 85/85 56/56
f 57/57 405/405 406/406
f 405/405 57/57 84/84
f 57/57 87/87 84/84
f 84/84 87/87 81/81
f 81/81 87/87 58/58
f 61/61 59/59 60/60
f 60/60 80/80 61/61
f 80/80 62/62 61/61
f 63/63 138/138 139/139
f 407/407 408/408 65/65
f 408/408 64/64 65/65
f 409/409 139/139 140/140
f 410/410 411/411 66/66
f 411/411 65/65 66/66
f 67/67 412/412 66/66
f 409/409 140/140 141/141
f 68/68 413/413 414/414
f 413/413 410/410 414/414
f 63/63 141/141 142/142
f 69/69 415/415 68/68
f 415/415 416/416 68/68
f 417/417 142/142 143/143
f 418/418 419/419 70/70
f 419/419 420/420 70/70
f 417/417 143/143 144/144
f 71/71 421/421 70/70
f 421/421 418/418 70/70
f 63/63 144/144 145/145
f 422/422 423/423 72/72
f 423/423 424/424 72/72
f 409/409 145/145 146/146
f 425/425 426/426 73/73
f 426/426 72/72 73/73
f 74/74 427/427 428/428
f 409/409 146/146 147/147
f 425/425 74/74 429/429
f 74/74 75/75 429/429
f 63/63 147/147 148/148
f 76/76 430/430 75/75
f 430/430 431/431 75/75
f 417/417 148/148 149/149
f 432/432 433/433 77/77
f 433/433 434/434 77/77
f 417/417 149/149 138/138
f 435/435 436/436 77/77
f 436/436 432/432 77/77
f 437/437 438/438 439/439
f 438/438 440/440 439/439
f 441/441 442/442 443/443
f 442/442 444/444 443/443
f 445/445 446/446 447/447
f 446/446 448/448 447/447
f 447/447 448/448 449/449
f 448/448 450/450 449/449
f 451/451 452/452 453/453
f 452/452 454/454 453/453
f 453/453 454/454 455/455
f 454/454 456/456 455/455
f 455/455 456/456 457/457
f 456/456 458/458 457/457
f 457/457 458/458 459/459
f 458/458 460/460 459/459
f 459/459 460/460 461/461
f 460/460 462/462 461/461
f 461/461 462/462 463/463
f 462/462 464/464 463/463
f 465/465 466/466 467/467
f 466/466 468/468 467/467
f 467/467 468/468 469/469
f 468/468 470/470 469/469
f 469/469 470/470 471/471
f 470/470 472/472 471/471
f 471/471 472/472 473/473
f 472/472 474/474 473/473
f 473/473 474/474 475/475
f 474/474 476/476 475/475
f 475/475 476/476 445/445
f 476/476 446/446 445/445
f 477/477 478/478 479/479
f 478/478 480/480 479/479
f 93/93 94/94 481/481
f 481/481 94/94 482/482
f 88/88 86/86 89/89
f 86/86 199/199 89/89
f 405/405 89/89 43/43
f 89/89 199/199 43/43
f 84/84 90/90 405/405
f 89/89 405/405 90/90
f 84/84 483/483 90/90
f 92/92 93/93 41/41
f 41/41 93/93 198/198
f 198/198 93/93 484/484
f 93/93 481/481 484/484
f 485/485 482/482 91/91
f 482/482 94/94 91/91
f 95/95 96/96 97/97
f 96/96 95/95 98/98
f 99/99 100/100 101/101
f 102/102 101/101 95/95
f 97/97 102/102 95/95
f 100/100 95/95 101/101
f 102/102 103/103 101/101
f 104/104 486/486 487/487
f 487/487 105/105 104/104
f 104/104 105/105 106/106
f 105/105 107/107 106/106
f 107/107 108/108 106/106
f 488/488 110/110 109/109
f 110/110 201/201 109/109
f 110/110 488/488 111/111
f 488/488 489/489 111/111
f 112/112 113/113 114/114
f 200/200 113/113 490/490
f 113/113 487/487 490/490
f 114/114 113/113 200/200
f 105/105 487/487 115/115
f 113/113 115/115 487/487
f 105/105 115/115 491/491
f 116/116 117/117 110/110
f 110/110 117/117 201/201
f 492/492 118/118 489/489
f 489/489 118/118 111/111
f 493/493 494/494 495/495
f 494/494 496/496 495/495
f 497/497 498/498 499/499
f 498/498 500/500 499/499
f 501/501 502/502 503/503
f 502/502 504/504 503/503
f 505/505 506/506 507/507
f 506/506 508/508 507/507
f 509/509 510/510 511/511
f 510/510 512/512 511/511
f 513/513 514/514 515/515
f 514/514 516/516 515/515
f 517/517 518/518 519/519
f 518/518 520/520 519/519
f 521/521 522/522 523/523
f 522/522 524/524 523/523
f 522/522 525/525 524/524
f 525/525 526/526 524/524
f 527/527 528/528 529/529
f 528/528 530/530 529/529
f 531/531 532/532 533/533
f 532/532 534/534 533/533
f 535/535 536/536 537/537
f 536/536 538/538 537/537
f 539/539 540/540 535/535
f 540/540 536/536 535/535
f 541/541 542/542 539/539
f 542/542 540/540 539/539
f 543/543 544/544 541/541
f 544/544 542/542 541/541
f 545/545 546/546 543/543
f 546/546 544/544 543/543
f 547/547 548/548 545/545
f 548/548 546/546 545/545
f 549/549 550/550 551/551
f 550/550 552/552 551/551
f 553/553 554/554 555/555
f 554/554 556/556 555/555
f 557/557 558/558 559/559
f 558/558 560/560 559/559
f 560/560 558/558 553/553
f 558/558 554/554 553/553
f 119/119 120/120 121/121
f 120/120 122/122 121/121
f 122/122 123/123 121/121
f 124/124 125/125 121/121
f 125/125 119/119 121/121
f 561/561 562/562 563/563
f 562/562 564/564 563/563
f 154/154 150/150 164/164
f 151/151 154/154 164/164
f 164/164 165/165 151/151
f 165/165 152/152 151/151
f 155/155 152/152 165/165
f 153/153 155/155 165/165
f 164/164 150/150 165/165
f 150/150 153/153 165/165
f 156/156 160/160 162/162
f 160/160 157/157 162/162
f 162/162 157/157 163/163
f 157/157 158/158 163/163
f 158/158 161/161 163/163
f 161/161 159/159 163/163
f 162/162 163/163 156/156
f 163/163 159/159 156/156
f 565/565 566/566 567/567
f 566/566 568/568 567/567
f 569/569 570/570 571/571
f 166/166 168/168 167/167
f 168/168 169/169 167/167
f 169/169 170/170 167/167
f 167/167 170/170 171/171
f 166/166 172/172 168/168
f 168/168 172/172 173/173
f 173/173 172/172 170/170
f 172/172 171/171 170/170
f 572/572 573/573 574/574
f 573/573 575/575 574/574
f 174/174 176/176 175/175
f 176/176 177/177 175/175
f 178/178 180/180 179/179
f 180/180 181/181 179/179
f 177/177 179/179 175/175
f 179/179 181/181 175/175
f 178/178 176/176 180/180
f 176/176 174/174 180/180
f 576/576 577/577 578/578
f 579/579 580/580 581/581
f 184/184 185/185 182/182
f 185/185 183/183 182/182
f 582/582 190/190 583/583
f 583/583 190/190 187/187
f 187/187 190/190 186/186
f 188/188 189/189 584/584
f 189/189 585/585 584/584
f 586/586 587/587 191/191
f 587/587 588/588 191/191
f 589/589 191/191 588/588
f 590/590 591/591 592/592
f 591/591 593/593 592/592
f 594/594 595/595 596/596
f 595/595 597/597 596/596
f 194/194 195/195 192/192
f 195/195 193/193 192/192
f 196/196 598/598 599/599
f 598/598 600/600 599/599
f 598/598 196/196 601/601
f 197/197 602/602 603/603
f 602/602 604/604 603/603
f 605/605 606/606 607/607
f 606/606 608/608 607/607
f 608/608 606/606 609/609
f 610/610 611/611 612/612
f 611/611 613/613 612/612
f 614/614 615/615 616/616
f 615/615 617/617 616/616
f 202/202 203/203 204/204
f 205/205 206/206 207/207
f 208/208 209/209 210/210
f 211/211 212/212 213/213
f 214/214 215/215 216/216
f 214/214 216/216 217/217
f 202/202 204/204 218/218
f 205/205 207/207 219/219
f 208/208 210/210 220/220
f 211/211 213/213 221/221
f 222/222 224/224 223/223
f 225/225 227/227 226/226
f 228/228 230/230 229/229
f 231/231 233/233 232/232
f 234/234 236/236 235/235
f 234/234 237/237 236/236
f 222/222 238/238 224/224
f 225/225 239/239 227/227
f 228/228 240/240 230/230
f 231/231 241/241 233/233
f 618/618 619/619 620/620
f 619/619 621/621 620/620
f 622/622 623/623 624/624
f 623/623 625/625 624/624
f 626/626 627/627 628/628
f 627/627 629/629 628/628
f 630/630 631/631 632/632
f 631/631 633/633 632/632
f 634/634 635/635 636/636
f 635/635 637/637 636/636
f 242/242 244/244 243/243
f 245/245 638/638 246/246
f 639/639 248/248 354/354
f 248/248 356/356 354/354
f 247/247 354/354 251/251
f 354/354 356/356 251/251
f 250/250 252/252 355/355
f 252/252 357/357 355/355
f 640/640 355/355 249/249
f 355/355 357/357 249/249
f 253/253 641/641 254/254
f 255/255 253/253 254/254
f 256/256 642/642 253/253
f 257/257 256/256 253/253
f 258/258 364/364 255/255
f 364/364 253/253 255/255
f 258/258 257/257 364/364
f 257/257 253/253 364/364
f 253/253 642/642 358/358
f 642/642 643/643 358/358
f 638/638 358/358 246/246
f 246/246 358/358 643/643
f 242/242 243/243 358/358
f 243/243 644/644 358/358
f 253/253 358/358 641/641
f 641/641 358/358 644/644
f 259/259 261/261 645/645
f 261/261 262/262 645/645
f 645/645 646/646 260/260
f 263/263 264/264 265/265
f 266/266 267/267 647/647
f 268/268 272/272 359/359
f 272/272 361/361 359/359
f 648/648 359/359 269/269
f 269/269 359/359 361/361
f 271/271 360/360 273/273
f 273/273 360/360 362/362
f 649/649 270/270 360/360
f 362/362 360/360 270/270
f 274/274 275/275 650/650
f 276/276 275/275 274/274
f 277/277 274/274 651/651
f 278/278 274/274 277/277
f 279/279 276/276 365/365
f 276/276 274/274 365/365
f 279/279 365/365 278/278
f 365/365 274/274 278/278
f 274/274 363/363 651/651
f 651/651 363/363 652/652
f 647/647 267/267 363/363
f 267/267 652/652 363/363
f 263/263 363/363 264/264
f 264/264 363/363 653/653
f 274/274 650/650 363/363
f 363/363 650/650 653/653
f 280/280 654/654 282/282
f 282/282 654/654 283/283
f 654/654 281/281 655/655
f 284/284 286/286 285/285
f 287/287 289/289 288/288
f 284/284 285/285 290/290
f 289/289 291/291 288/288
f 292/292 293/293 656/656
f 294/294 290/290 285/285
f 295/295 657/657 658/658
f 657/657 659/659 658/658
f 289/289 299/299 291/291
f 291/291 299/299 660/660
f 296/296 661/661 293/293
f 661/661 656/656 293/293
f 298/298 297/297 662/662
f 297/297 663/663 662/662
f 300/300 301/301 302/302
f 303/303 304/304 305/305
f 300/300 306/306 301/301
f 305/305 304/304 307/307
f 308/308 664/664 309/309
f 310/310 301/301 306/306
f 311/311 665/665 666/666
f 666/666 665/665 667/667
f 305/305 307/307 315/315
f 307/307 668/668 315/315
f 312/312 309/309 669/669
f 669/669 309/309 664/664
f 314/314 670/670 313/313
f 313/313 670/670 671/671
f 317/317 316/316 323/323
f 316/316 322/322 323/323
f 319/319 324/324 672/672
f 324/324 673/673 672/672
f 325/325 674/674 326/326
f 326/326 674/674 675/675
f 322/322 318/318 323/323
f 324/324 320/320 673/673
f 325/325 321/321 674/674
f 328/328 334/334 327/327
f 327/327 334/334 333/333
f 330/330 676/676 335/335
f 335/335 676/676 677/677
f 336/336 337/337 678/678
f 337/337 679/679 678/678
f 333/333 334/334 329/329
f 335/335 677/677 331/331
f 336/336 678/678 332/332
f 340/340 338/338 341/341
f 338/338 341/341 339/339
f 344/344 345/345 342/342
f 342/342 343/343 345/345
f 348/348 349/349 346/346
f 346/346 347/347 349/349
f 352/352 350/350 353/353
f 350/350 353/353 351/351
