mtllib arms8064.mtl
o arms8064
v -1.36674 -0.04284 3.24000 0.725 0.000 0.000
v -1.37322 0.00000 3.17016 0.882 0.000 0.000
v -1.31976 0.00000 3.20058 0.882 0.000 0.000
v -1.36674 0.04284 3.24000 0.725 0.000 0.000
v -1.44054 0.04986 3.24000 0.686 0.000 0.000
v -1.37322 0.00000 3.30984 0.882 0.000 0.000
v -1.31976 0.00000 3.27942 0.882 0.000 0.000
v -1.44054 -0.04986 3.24000 0.686 0.000 0.000
v -1.32426 0.00000 3.28986 0.922 0.000 0.000
v -1.37556 0.04968 3.24000 0.843 0.000 0.000
v -1.37556 -0.04968 3.24000 0.843 0.000 0.000
v -1.32426 0.00000 3.19014 0.922 0.000 0.000
v 0.78552 0.00000 3.29040 0.882 0.000 0.000
v 0.83934 -0.04356 3.24000 0.725 0.000 0.000
v 0.84186 0.00000 3.31470 0.882 0.000 0.000
v 0.83934 0.04356 3.24000 0.725 0.000 0.000
v 0.93960 0.06084 3.24000 0.686 0.000 0.000
v 0.84186 0.00000 3.16530 0.882 0.000 0.000
v 0.78552 0.00000 3.18960 0.882 0.000 0.000
v 0.93960 -0.06084 3.24000 0.686 0.000 0.000
v 1.03986 0.04356 3.24000 0.725 0.000 0.000
v 1.03734 0.00000 3.16530 0.882 0.000 0.000
v 1.03734 0.00000 3.31470 0.882 0.000 0.000
v 1.09368 0.00000 3.29040 0.882 0.000 0.000
v 1.03986 -0.04356 3.24000 0.725 0.000 0.000
v 1.09368 0.00000 3.18960 0.882 0.000 0.000
v 0.72450 0.00000 3.28158 0.882 0.000 0.000
v 0.76554 -0.03204 3.24000 0.725 0.000 0.000
v 0.77382 0.00000 3.30012 0.882 0.000 0.000
v 0.76554 0.03204 3.24000 0.725 0.000 0.000
v 0.84510 0.06066 3.24000 0.686 0.000 0.000
v 0.77382 0.00000 3.17988 0.882 0.000 0.000
v 0.72450 0.00000 3.19842 0.882 0.000 0.000
v 0.84510 -0.06066 3.24000 0.686 0.000 0.000
v 0.84510 -0.06066 3.24000 0.843 0.000 0.000
v 0.77382 0.00000 3.17988 0.922 0.000 0.000
v 0.84510 0.06066 3.24000 0.843 0.000 0.000
v 0.77382 0.00000 3.30012 0.902 0.000 0.000
v 0.76734 -0.04608 3.24000 0.843 0.000 0.000
v 0.71352 0.00000 3.18636 0.922 0.000 0.000
v 0.76734 0.04608 3.24000 0.843 0.000 0.000
v 0.71352 0.00000 3.29364 0.922 0.000 0.000
v 1.11366 -0.03204 3.24000 0.725 0.000 0.000
v 1.10538 0.00000 3.17988 0.882 0.000 0.000
v 1.15470 0.00000 3.19842 0.882 0.000 0.000
v 1.11366 0.03204 3.24000 0.725 0.000 0.000
v 1.03410 0.06066 3.24000 0.686 0.000 0.000
v 1.10538 0.00000 3.30012 0.882 0.000 0.000
v 1.15470 0.00000 3.28158 0.882 0.000 0.000
v 1.03410 -0.06066 3.24000 0.686 0.000 0.000
v 1.10538 0.00000 3.30012 0.922 0.000 0.000
v 1.03410 0.06066 3.24000 0.843 0.000 0.000
v 1.03410 -0.06066 3.24000 0.843 0.000 0.000
v 1.10538 0.00000 3.17988 0.902 0.000 0.000
v 1.11186 -0.04608 3.24000 0.647 0.000 0.000
v 1.16568 0.00000 3.18636 0.882 0.000 0.000
v 1.18800 -0.02646 3.24000 0.686 0.000 0.000
v 1.20438 0.00000 3.19374 0.882 0.000 0.000
v 1.18800 0.02646 3.24000 0.686 0.000 0.000
v 1.16568 0.00000 3.29364 0.882 0.000 0.000
v 1.11186 0.04608 3.24000 0.647 0.000 0.000
v 1.20438 0.00000 3.28626 0.882 0.000 0.000
v 1.16568 0.00000 3.29364 0.922 0.000 0.000
v 1.11186 0.04608 3.24000 0.843 0.000 0.000
v 1.11186 -0.04608 3.24000 0.843 0.000 0.000
v 1.16568 0.00000 3.18636 0.922 0.000 0.000
v 0.93960 -0.06084 3.24000 0.843 0.000 0.000
v 0.93960 0.06084 3.24000 0.843 0.000 0.000
v 0.84186 0.00000 3.31470 0.902 0.000 0.000
v 0.84186 0.00000 3.16530 0.922 0.000 0.000
v 1.03734 0.00000 3.16530 0.902 0.000 0.000
v 1.03734 0.00000 3.31470 0.922 0.000 0.000
v 0.62694 0.04482 3.24000 0.843 0.000 0.000
v 0.68004 0.00000 3.19374 0.922 0.000 0.000
v 0.62694 -0.04482 3.24000 0.843 0.000 0.000
v 0.68004 0.00000 3.28626 0.922 0.000 0.000
v 2.14884 0.02754 3.24000 0.843 0.000 0.000
v 2.02068 0.02754 3.21318 0.843 0.000 0.000
v 1.94130 0.02754 3.24000 0.843 0.000 0.000
v 1.94130 0.02754 3.21966 0.843 0.000 0.000
v 2.05974 0.02754 3.18132 0.843 0.000 0.000
v 2.19024 0.02754 3.18636 0.843 0.000 0.000
v 2.05848 0.02754 3.15918 0.843 0.000 0.000
v 2.35530 0.02754 3.24000 0.843 0.000 0.000
v 2.19024 0.02754 3.29364 0.843 0.000 0.000
v 2.05974 0.02754 3.29868 0.843 0.000 0.000
v 2.02068 0.02754 3.26682 0.843 0.000 0.000
v 2.05848 0.02754 3.32082 0.843 0.000 0.000
v 1.94130 0.02754 3.26034 0.843 0.000 0.000
v 1.94130 -0.02754 3.24000 0.843 0.000 0.000
v 2.02068 -0.02754 3.21318 0.843 0.000 0.000
v 2.14884 -0.02754 3.24000 0.843 0.000 0.000
v 1.94130 -0.02754 3.21966 0.843 0.000 0.000
v 2.05974 -0.02754 3.18132 0.843 0.000 0.000
v 2.19024 -0.02754 3.18636 0.843 0.000 0.000
v 2.05848 -0.02754 3.15918 0.843 0.000 0.000
v 2.35530 -0.02754 3.24000 0.843 0.000 0.000
v 2.19024 -0.02754 3.29364 0.843 0.000 0.000
v 2.05974 -0.02754 3.29868 0.843 0.000 0.000
v 2.02068 -0.02754 3.26682 0.843 0.000 0.000
v 2.05848 -0.02754 3.32082 0.843 0.000 0.000
v 1.94130 -0.02754 3.26034 0.843 0.000 0.000
v -0.30438 0.00000 3.27402 0.000 0.922 0.000
v -0.30438 0.03402 3.24000 0.000 0.765 0.000
v -1.24200 0.03402 3.24000 0.000 0.804 0.000
v -0.30438 0.00000 3.20598 0.000 0.922 0.000
v 0.67716 0.00000 3.19950 0.000 0.882 0.000
v 0.67716 0.04050 3.24000 0.000 0.725 0.000
v -1.24200 0.00000 3.20598 0.000 0.922 0.000
v 0.67716 0.00000 3.28050 0.000 0.882 0.000
v -1.24200 0.00000 3.27402 0.000 0.922 0.000
v -0.30438 -0.03402 3.24000 0.000 0.765 0.000
v -1.24200 -0.03402 3.24000 0.000 0.804 0.000
v 0.67716 -0.04050 3.24000 0.000 0.725 0.000
v -1.44054 0.04986 3.24000 0.843 0.000 0.000
v -1.44054 0.00000 3.24000 0.843 0.000 0.000
v -1.37322 0.00000 3.30984 0.922 0.000 0.000
v -1.44054 -0.04986 3.24000 0.843 0.000 0.000
v -1.37322 0.00000 3.17016 0.902 0.000 0.000
v 2.19258 0.00000 3.32496 0.725 0.000 0.000
v 2.05848 0.02754 3.32082 0.765 0.000 0.000
v 2.01366 0.00000 3.35592 0.765 0.000 0.000
v 2.19024 0.02754 3.29364 0.686 0.000 0.000
v 2.30832 0.00000 3.28968 0.647 0.000 0.000
v 2.35530 0.02754 3.24000 0.647 0.000 0.000
v 2.42388 0.00000 3.24000 0.647 0.000 0.000
v 2.30832 0.00000 3.19032 0.647 0.000 0.000
v 2.19024 0.02754 3.18636 0.686 0.000 0.000
v 2.19258 0.00000 3.15504 0.725 0.000 0.000
v 2.05848 0.02754 3.15918 0.765 0.000 0.000
v 2.01366 0.00000 3.12408 0.765 0.000 0.000
v 2.05848 -0.02754 3.32082 0.765 0.000 0.000
v 2.19024 -0.02754 3.29364 0.686 0.000 0.000
v 2.35530 -0.02754 3.24000 0.647 0.000 0.000
v 2.05848 -0.02754 3.15918 0.765 0.000 0.000
v 2.19024 -0.02754 3.18636 0.686 0.000 0.000
v 1.81710 0.02754 3.30840 0.882 0.000 0.000
v 1.74150 0.02754 3.27366 0.843 0.000 0.000
v 1.78596 0.00000 3.32190 0.831 0.000 0.000
v 1.81710 0.00000 3.37050 0.882 0.000 0.000
v 1.74168 0.00000 3.30552 0.824 0.000 0.000
v 1.68354 0.00000 3.31578 0.804 0.000 0.000
v 1.68480 0.02754 3.28212 0.804 0.000 0.000
v 1.64106 0.02754 3.31470 0.725 0.000 0.000
v 1.65294 0.00000 3.36654 0.647 0.000 0.000
v 1.62450 0.02754 3.35934 0.647 0.000 0.000
v 1.63764 0.02754 3.39966 0.765 0.000 0.000
v 1.67706 0.00000 3.39534 0.725 0.000 0.000
v 1.69038 0.01422 3.41370 0.725 0.000 0.000
v 1.76022 0.00000 3.40002 0.725 0.000 0.000
v 1.81710 -0.02754 3.30840 0.882 0.000 0.000
v 1.74150 -0.02754 3.27366 0.843 0.000 0.000
v 1.63764 -0.02754 3.39966 0.765 0.000 0.000
v 1.62450 -0.02754 3.35934 0.647 0.000 0.000
v 1.69038 -0.01422 3.41370 0.725 0.000 0.000
v 1.64106 -0.02754 3.31470 0.725 0.000 0.000
v 1.68480 -0.02754 3.28212 0.804 0.000 0.000
v 2.02068 0.02754 3.26682 0.843 0.000 0.000
v 1.94130 0.02754 3.26034 0.765 0.000 0.000
v 1.96470 0.00000 3.28482 0.804 0.000 0.000
v 1.90476 0.00000 3.28968 0.765 0.000 0.000
v 2.01978 0.00000 3.31182 0.843 0.000 0.000
v 2.05974 0.02754 3.29868 0.882 0.000 0.000
v 2.01366 0.00000 3.35592 0.882 0.000 0.000
v 2.05848 0.02754 3.32082 0.882 0.000 0.000
v 1.87398 0.02754 3.27636 0.733 0.000 0.000
v 1.85040 0.00000 3.31632 0.745 0.000 0.000
v 1.81710 0.02754 3.30840 0.647 0.000 0.000
v 1.81710 0.00000 3.37050 0.725 0.000 0.000
v 1.94130 -0.02754 3.26034 0.765 0.000 0.000
v 2.02068 -0.02754 3.26682 0.843 0.000 0.000
v 2.05974 -0.02754 3.29868 0.882 0.000 0.000
v 2.05848 -0.02754 3.32082 0.882 0.000 0.000
v 1.87398 -0.02754 3.27636 0.733 0.000 0.000
v 1.81710 -0.02754 3.30840 0.647 0.000 0.000
v 1.65078 0.00000 3.45132 0.647 0.000 0.000
v 1.76022 0.00000 3.40002 0.647 0.000 0.000
v 1.69038 0.01422 3.41370 0.647 0.000 0.000
v 1.55610 0.02754 3.43080 0.686 0.000 0.000
v 1.63764 0.02754 3.39966 0.686 0.000 0.000
v 1.55286 0.00000 3.47148 0.686 0.000 0.000
v 1.37286 0.00000 3.46446 0.725 0.000 0.000
v 1.47456 0.02754 3.41658 0.725 0.000 0.000
v 1.69038 -0.01422 3.41370 0.647 0.000 0.000
v 1.55610 -0.02754 3.43080 0.686 0.000 0.000
v 1.47456 -0.02754 3.41658 0.725 0.000 0.000
v 1.63764 -0.02754 3.39966 0.686 0.000 0.000
v 1.81710 0.02754 3.17160 0.882 0.000 0.000
v 1.78596 0.00000 3.15810 0.831 0.000 0.000
v 1.74150 0.02754 3.20634 0.843 0.000 0.000
v 1.81710 0.00000 3.10950 0.882 0.000 0.000
v 1.74168 0.00000 3.17448 0.824 0.000 0.000
v 1.68354 0.00000 3.16422 0.804 0.000 0.000
v 1.68480 0.02754 3.19788 0.804 0.000 0.000
v 1.64106 0.02754 3.16530 0.725 0.000 0.000
v 1.65294 0.00000 3.11346 0.647 0.000 0.000
v 1.62450 0.02754 3.12066 0.647 0.000 0.000
v 1.63764 0.02754 3.08034 0.765 0.000 0.000
v 1.67706 0.00000 3.08466 0.725 0.000 0.000
v 1.69038 0.01422 3.06630 0.725 0.000 0.000
v 1.76022 0.00000 3.07998 0.725 0.000 0.000
v 1.81710 -0.02754 3.17160 0.882 0.000 0.000
v 1.74150 -0.02754 3.20634 0.843 0.000 0.000
v 1.63764 -0.02754 3.08034 0.765 0.000 0.000
v 1.62450 -0.02754 3.12066 0.647 0.000 0.000
v 1.69038 -0.01422 3.06630 0.725 0.000 0.000
v 1.64106 -0.02754 3.16530 0.725 0.000 0.000
v 1.68480 -0.02754 3.19788 0.804 0.000 0.000
v 2.02068 0.02754 3.21318 0.843 0.000 0.000
v 1.96470 0.00000 3.19518 0.804 0.000 0.000
v 1.94130 0.02754 3.21966 0.765 0.000 0.000
v 1.90476 0.00000 3.19032 0.765 0.000 0.000
v 2.01978 0.00000 3.16818 0.843 0.000 0.000
v 2.05974 0.02754 3.18132 0.882 0.000 0.000
v 2.01366 0.00000 3.12408 0.882 0.000 0.000
v 2.05848 0.02754 3.15918 0.882 0.000 0.000
v 1.87398 0.02754 3.20364 0.733 0.000 0.000
v 1.85040 0.00000 3.16368 0.745 0.000 0.000
v 1.81710 0.02754 3.17160 0.647 0.000 0.000
v 1.81710 0.00000 3.10950 0.725 0.000 0.000
v 1.94130 -0.02754 3.21966 0.765 0.000 0.000
v 2.02068 -0.02754 3.21318 0.843 0.000 0.000
v 2.05974 -0.02754 3.18132 0.882 0.000 0.000
v 2.05848 -0.02754 3.15918 0.882 0.000 0.000
v 1.87398 -0.02754 3.20364 0.733 0.000 0.000
v 1.81710 -0.02754 3.17160 0.647 0.000 0.000
v 1.76022 0.00000 3.07998 0.647 0.000 0.000
v 1.65078 0.00000 3.02868 0.647 0.000 0.000
v 1.69038 0.01422 3.06630 0.647 0.000 0.000
v 1.55610 0.02754 3.04920 0.686 0.000 0.000
v 1.63764 0.02754 3.08034 0.686 0.000 0.000
v 1.55286 0.00000 3.00852 0.686 0.000 0.000
v 1.37286 0.00000 3.01554 0.725 0.000 0.000
v 1.47456 0.02754 3.06342 0.725 0.000 0.000
v 1.69038 -0.01422 3.06630 0.647 0.000 0.000
v 1.55610 -0.02754 3.04920 0.686 0.000 0.000
v 1.47456 -0.02754 3.06342 0.725 0.000 0.000
v 1.63764 -0.02754 3.08034 0.686 0.000 0.000
v 1.37286 0.00000 3.46446 0.725 0.000 0.000
v 1.47456 0.02754 3.41658 0.843 0.000 0.000
v 1.47456 -0.02754 3.41658 0.843 0.000 0.000
v 1.47456 0.02754 3.06342 0.843 0.000 0.000
v 1.37286 0.00000 3.01554 0.725 0.000 0.000
v 1.47456 -0.02754 3.06342 0.843 0.000 0.000
v 0.69714 -0.04356 3.24000 0.667 0.000 0.000
v 0.76734 -0.04608 3.24000 0.647 0.000 0.000
v 0.71352 0.00000 3.29364 0.882 0.000 0.000
v 0.71352 0.00000 3.18636 0.882 0.000 0.000
v 0.68004 0.00000 3.28626 0.882 0.000 0.000
v 0.62694 -0.04482 3.24000 0.686 0.000 0.000
v 0.68004 0.00000 3.19374 0.882 0.000 0.000
v 0.69714 0.04356 3.24000 0.667 0.000 0.000
v 0.76734 0.04608 3.24000 0.647 0.000 0.000
v 0.62694 0.04482 3.24000 0.686 0.000 0.000
v 1.49850 0.02754 3.19158 0.843 0.000 0.000
v 1.52244 -0.02754 3.13866 0.843 0.000 0.000
v 1.49850 -0.02754 3.19158 0.843 0.000 0.000
v 1.52244 0.02754 3.13866 0.843 0.000 0.000
v 1.47456 0.02754 3.06342 0.765 0.000 0.000
v 1.47456 -0.02754 3.06342 0.647 0.000 0.000
v 1.49850 0.02754 3.28842 0.843 0.000 0.000
v 1.49850 -0.02754 3.28842 0.843 0.000 0.000
v 1.52244 -0.02754 3.34134 0.843 0.000 0.000
v 1.52244 0.02754 3.34134 0.843 0.000 0.000
v 1.47456 0.02754 3.41658 0.765 0.000 0.000
v 1.47456 -0.02754 3.41658 0.647 0.000 0.000
v 1.62450 0.02754 3.12066 0.843 0.000 0.000
v 1.55610 0.02754 3.04920 0.843 0.000 0.000
v 1.52244 0.02754 3.13866 0.843 0.000 0.000
v 1.63764 0.02754 3.08034 0.843 0.000 0.000
v 1.47456 0.02754 3.06342 0.843 0.000 0.000
v 1.64106 0.02754 3.16530 0.843 0.000 0.000
v 1.49850 0.02754 3.19158 0.843 0.000 0.000
v 1.68480 0.02754 3.19788 0.843 0.000 0.000
v 1.62450 0.02754 3.35934 0.843 0.000 0.000
v 1.52244 0.02754 3.34134 0.843 0.000 0.000
v 1.55610 0.02754 3.43080 0.843 0.000 0.000
v 1.63764 0.02754 3.39966 0.843 0.000 0.000
v 1.47456 0.02754 3.41658 0.843 0.000 0.000
v 1.64106 0.02754 3.31470 0.843 0.000 0.000
v 1.49850 0.02754 3.28842 0.843 0.000 0.000
v 1.68480 0.02754 3.28212 0.843 0.000 0.000
v 1.52244 -0.02754 3.13866 0.843 0.000 0.000
v 1.55610 -0.02754 3.04920 0.843 0.000 0.000
v 1.62450 -0.02754 3.12066 0.843 0.000 0.000
v 1.63764 -0.02754 3.08034 0.843 0.000 0.000
v 1.47456 -0.02754 3.06342 0.843 0.000 0.000
v 1.64106 -0.02754 3.16530 0.843 0.000 0.000
v 1.49850 -0.02754 3.19158 0.843 0.000 0.000
v 1.68480 -0.02754 3.19788 0.843 0.000 0.000
v 1.55610 -0.02754 3.43080 0.843 0.000 0.000
v 1.52244 -0.02754 3.34134 0.843 0.000 0.000
v 1.62450 -0.02754 3.35934 0.843 0.000 0.000
v 1.63764 -0.02754 3.39966 0.843 0.000 0.000
v 1.47456 -0.02754 3.41658 0.843 0.000 0.000
v 1.64106 -0.02754 3.31470 0.843 0.000 0.000
v 1.49850 -0.02754 3.28842 0.843 0.000 0.000
v 1.68480 -0.02754 3.28212 0.843 0.000 0.000
v 1.94130 0.02754 3.21966 0.843 0.000 0.000
v 1.87398 0.02754 3.20364 0.843 0.000 0.000
v 1.94130 0.02754 3.24000 0.843 0.000 0.000
v 1.82898 0.02754 3.24000 0.843 0.000 0.000
v 1.81710 0.02754 3.17160 0.843 0.000 0.000
v 1.74150 0.02754 3.20634 0.843 0.000 0.000
v 1.87398 0.02754 3.27636 0.843 0.000 0.000
v 1.94130 0.02754 3.26034 0.843 0.000 0.000
v 1.81710 0.02754 3.30840 0.843 0.000 0.000
v 1.74150 0.02754 3.27366 0.843 0.000 0.000
v 1.68480 0.02754 3.19788 0.843 0.000 0.000
v 1.68480 0.02754 3.28212 0.843 0.000 0.000
v 1.94130 -0.02754 3.24000 0.843 0.000 0.000
v 1.87398 -0.02754 3.20364 0.843 0.000 0.000
v 1.94130 -0.02754 3.21966 0.843 0.000 0.000
v 1.82898 -0.02754 3.24000 0.843 0.000 0.000
v 1.81710 -0.02754 3.17160 0.843 0.000 0.000
v 1.74150 -0.02754 3.20634 0.843 0.000 0.000
v 1.87398 -0.02754 3.27636 0.843 0.000 0.000
v 1.94130 -0.02754 3.26034 0.843 0.000 0.000
v 1.81710 -0.02754 3.30840 0.843 0.000 0.000
v 1.74150 -0.02754 3.27366 0.843 0.000 0.000
v 1.68480 -0.02754 3.19788 0.843 0.000 0.000
v 1.68480 -0.02754 3.28212 0.843 0.000 0.000
v 0.93960 0.04482 3.24000 0.000 0.000 0.647
v 0.93960 0.00000 3.15090 0.000 0.000 0.765
v 0.70992 0.00000 3.24000 0.000 0.000 0.882
v 0.93960 0.00000 3.32910 0.000 0.000 0.765
v 0.93960 -0.04482 3.24000 0.000 0.000 0.647
v 1.14804 0.00000 3.24000 0.000 0.000 0.804
v 0.93960 0.04482 3.24000 0.000 0.000 0.502
v 0.93960 0.00000 3.32910 0.000 0.000 0.686
v 0.93960 -0.04482 3.24000 0.000 0.000 0.502
v 0.93960 0.00000 3.15090 0.000 0.000 0.686
v -1.24200 0.01512 3.26556 0.827 0.000 0.000
v -1.37556 0.04968 3.24000 0.647 0.000 0.000
v -1.32426 0.00000 3.28986 0.882 0.000 0.000
v -1.24200 0.03870 3.24000 0.667 0.000 0.000
v -1.11132 0.03492 3.24000 0.686 0.000 0.000
v -1.24200 0.00000 3.27402 0.882 0.000 0.000
v -1.24200 -0.01512 3.26556 0.827 0.000 0.000
v -1.37556 -0.04968 3.24000 0.647 0.000 0.000
v -1.24200 -0.03870 3.24000 0.667 0.000 0.000
v -1.11132 -0.03492 3.24000 0.686 0.000 0.000
v -1.24200 0.01512 3.21444 0.827 0.000 0.000
v -1.32426 0.00000 3.19014 0.882 0.000 0.000
v -1.24200 -0.01512 3.21444 0.827 0.000 0.000
v -1.24200 0.00000 3.20598 0.882 0.000 0.000
v 1.49850 -0.02754 3.19158 0.804 0.000 0.000
v 1.43640 -0.02754 3.18942 0.843 0.000 0.000
v 1.49850 0.02754 3.19158 0.804 0.000 0.000
v 1.43640 0.02754 3.18942 0.843 0.000 0.000
v 1.42722 -0.02754 3.14442 0.804 0.000 0.000
v 1.42722 0.02754 3.14442 0.804 0.000 0.000
v 1.45080 0.02754 3.13542 0.804 0.000 0.000
v 1.45080 -0.02754 3.13542 0.804 0.000 0.000
v 1.47420 0.02754 3.13938 0.804 0.000 0.000
v 1.47420 -0.02754 3.13938 0.804 0.000 0.000
v 1.49850 -0.02754 3.28842 0.804 0.000 0.000
v 1.49850 0.02754 3.28842 0.804 0.000 0.000
v 1.43640 -0.02754 3.29058 0.843 0.000 0.000
v 1.43640 0.02754 3.29058 0.843 0.000 0.000
v 1.42722 -0.02754 3.33558 0.804 0.000 0.000
v 1.42722 0.02754 3.33558 0.804 0.000 0.000
v 1.45080 0.02754 3.34458 0.804 0.000 0.000
v 1.45080 -0.02754 3.34458 0.804 0.000 0.000
v 1.47420 0.02754 3.34062 0.804 0.000 0.000
v 1.47420 -0.02754 3.34062 0.804 0.000 0.000
v 1.68480 0.03636 3.26592 0.000 0.796 0.000
v 1.73880 0.03636 3.24000 0.000 0.749 0.000
v 1.38510 0.03636 3.24000 0.000 0.749 0.000
v 1.78686 0.03636 3.24000 0.000 0.749 0.000
v 1.41912 0.03636 3.27438 0.000 0.804 0.000
v 1.41102 0.03636 3.33558 0.000 0.796 0.000
v 1.38510 0.03636 3.39768 0.000 0.749 0.000
v 1.35918 0.03636 3.33558 0.000 0.796 0.000
v 1.35108 0.03636 3.27438 0.000 0.804 0.000
v 1.33470 0.03636 3.35718 0.000 0.792 0.000
v 1.31382 0.03636 3.35646 0.000 0.788 0.000
v 1.33686 0.03636 3.39444 0.000 0.776 0.000
v 1.38510 0.03636 3.41172 0.000 0.749 0.000
v 1.43334 0.03636 3.39444 0.000 0.776 0.000
v 1.45638 0.03636 3.35646 0.000 0.788 0.000
v 1.43550 0.03636 3.35718 0.000 0.792 0.000
v 1.27494 0.03636 3.26592 0.000 0.796 0.000
v 1.21284 0.03636 3.24000 0.000 0.749 0.000
v 1.25334 0.03636 3.29040 0.000 0.792 0.000
v 1.25406 0.03636 3.31128 0.000 0.788 0.000
v 1.21608 0.03636 3.28824 0.000 0.776 0.000
v 1.19880 0.03636 3.24000 0.000 0.749 0.000
v 1.21608 0.03636 3.19176 0.000 0.776 0.000
v 1.25406 0.03636 3.16872 0.000 0.788 0.000
v 1.25334 0.03636 3.18960 0.000 0.792 0.000
v 1.27494 0.03636 3.21408 0.000 0.796 0.000
v 1.35108 0.03636 3.20562 0.000 0.804 0.000
v 1.35918 0.03636 3.14442 0.000 0.796 0.000
v 1.38510 0.03636 3.08232 0.000 0.749 0.000
v 1.41102 0.03636 3.14442 0.000 0.796 0.000
v 1.41912 0.03636 3.20562 0.000 0.804 0.000
v 1.33470 0.03636 3.12282 0.000 0.792 0.000
v 1.31382 0.03636 3.12354 0.000 0.788 0.000
v 1.33686 0.03636 3.08556 0.000 0.776 0.000
v 1.38510 0.03636 3.06828 0.000 0.749 0.000
v 1.43334 0.03636 3.08556 0.000 0.776 0.000
v 1.45638 0.03636 3.12354 0.000 0.788 0.000
v 1.43550 0.03636 3.12282 0.000 0.792 0.000
v 1.68480 0.03636 3.21408 0.000 0.796 0.000
v 1.33686 0.03636 3.39444 0.710 0.000 0.000
v 1.31382 0.03636 3.35646 0.722 0.000 0.000
v 1.32678 0.02754 3.40182 0.733 0.000 0.000
v 1.29600 0.02754 3.34062 0.757 0.000 0.000
v 1.38510 0.02754 3.42306 0.686 0.000 0.000
v 1.38510 0.03636 3.41172 0.686 0.000 0.000
v 1.43334 0.03636 3.39444 0.710 0.000 0.000
v 1.44342 0.02754 3.40182 0.725 0.000 0.000
v 1.45638 0.03636 3.35646 0.722 0.000 0.000
v 1.47420 0.02754 3.34062 0.725 0.000 0.000
v 1.45080 0.02754 3.34458 0.765 0.000 0.000
v 1.43550 0.03636 3.35718 0.722 0.000 0.000
v 1.42722 0.02754 3.33558 0.765 0.000 0.000
v 1.41102 0.03636 3.33558 0.725 0.000 0.000
v 1.31940 0.02754 3.34458 0.761 0.000 0.000
v 1.33470 0.03636 3.35718 0.722 0.000 0.000
v 1.34298 0.02754 3.33558 0.765 0.000 0.000
v 1.35918 0.03636 3.33558 0.725 0.000 0.000
v 1.41912 0.03636 3.27438 0.765 0.000 0.000
v 1.43640 0.02754 3.29058 0.765 0.000 0.000
v 1.35108 0.03636 3.27438 0.765 0.000 0.000
v 1.33380 0.02754 3.29058 0.765 0.000 0.000
v 1.27494 0.02754 3.28212 0.765 0.000 0.000
v 1.27494 0.03636 3.26592 0.725 0.000 0.000
v 1.25334 0.03636 3.29040 0.722 0.000 0.000
v 1.26594 0.02754 3.30570 0.761 0.000 0.000
v 1.25406 0.03636 3.31128 0.722 0.000 0.000
v 1.26990 0.02754 3.32910 0.757 0.000 0.000
v 1.20870 0.02754 3.29832 0.733 0.000 0.000
v 1.21608 0.03636 3.28824 0.710 0.000 0.000
v 1.18746 0.02754 3.24000 0.686 0.000 0.000
v 1.19880 0.03636 3.24000 0.686 0.000 0.000
v 1.21608 0.03636 3.19176 0.710 0.000 0.000
v 1.20870 0.02754 3.18168 0.733 0.000 0.000
v 1.25406 0.03636 3.16872 0.722 0.000 0.000
v 1.26990 0.02754 3.15090 0.757 0.000 0.000
v 1.26594 0.02754 3.17430 0.761 0.000 0.000
v 1.25334 0.03636 3.18960 0.722 0.000 0.000
v 1.27494 0.02754 3.19788 0.765 0.000 0.000
v 1.27494 0.03636 3.21408 0.725 0.000 0.000
v 1.35108 0.03636 3.20562 0.765 0.000 0.000
v 1.33380 0.02754 3.18942 0.765 0.000 0.000
v 1.34298 0.02754 3.14442 0.765 0.000 0.000
v 1.35918 0.03636 3.14442 0.725 0.000 0.000
v 1.33470 0.03636 3.12282 0.722 0.000 0.000
v 1.31940 0.02754 3.13542 0.761 0.000 0.000
v 1.31382 0.03636 3.12354 0.722 0.000 0.000
v 1.29600 0.02754 3.13938 0.757 0.000 0.000
v 1.32678 0.02754 3.07818 0.733 0.000 0.000
v 1.33686 0.03636 3.08556 0.710 0.000 0.000
v 1.38510 0.02754 3.05694 0.686 0.000 0.000
v 1.38510 0.03636 3.06828 0.686 0.000 0.000
v 1.43334 0.03636 3.08556 0.710 0.000 0.000
v 1.44342 0.02754 3.07818 0.725 0.000 0.000
v 1.45638 0.03636 3.12354 0.722 0.000 0.000
v 1.47420 0.02754 3.13938 0.725 0.000 0.000
v 1.45080 0.02754 3.13542 0.765 0.000 0.000
v 1.43550 0.03636 3.12282 0.722 0.000 0.000
v 1.42722 0.02754 3.14442 0.765 0.000 0.000
v 1.41102 0.03636 3.14442 0.725 0.000 0.000
v 1.41912 0.03636 3.20562 0.765 0.000 0.000
v 1.43640 0.02754 3.18942 0.765 0.000 0.000
v 1.68480 0.02754 3.19788 0.765 0.000 0.000
v 1.68480 0.03636 3.21408 0.725 0.000 0.000
v 1.78686 0.03636 3.24000 0.686 0.000 0.000
v 1.82898 0.02754 3.24000 0.686 0.000 0.000
v 1.68480 0.02754 3.28212 0.765 0.000 0.000
v 1.68480 0.03636 3.26592 0.725 0.000 0.000
v 1.38510 -0.03636 3.24000 0.000 0.749 0.000
v 1.73880 -0.03636 3.24000 0.000 0.749 0.000
v 1.68480 -0.03636 3.26592 0.000 0.796 0.000
v 1.78686 -0.03636 3.24000 0.000 0.749 0.000
v 1.41912 -0.03636 3.27438 0.000 0.804 0.000
v 1.41102 -0.03636 3.33558 0.000 0.796 0.000
v 1.38510 -0.03636 3.39768 0.000 0.749 0.000
v 1.35918 -0.03636 3.33558 0.000 0.796 0.000
v 1.35108 -0.03636 3.27438 0.000 0.804 0.000
v 1.33470 -0.03636 3.35718 0.000 0.792 0.000
v 1.31382 -0.03636 3.35646 0.000 0.788 0.000
v 1.33686 -0.03636 3.39444 0.000 0.776 0.000
v 1.38510 -0.03636 3.41172 0.000 0.749 0.000
v 1.43334 -0.03636 3.39444 0.000 0.776 0.000
v 1.45638 -0.03636 3.35646 0.000 0.788 0.000
v 1.43550 -0.03636 3.35718 0.000 0.792 0.000
v 1.27494 -0.03636 3.26592 0.000 0.796 0.000
v 1.21284 -0.03636 3.24000 0.000 0.749 0.000
v 1.25334 -0.03636 3.29040 0.000 0.792 0.000
v 1.25406 -0.03636 3.31128 0.000 0.788 0.000
v 1.21608 -0.03636 3.28824 0.000 0.776 0.000
v 1.19880 -0.03636 3.24000 0.000 0.749 0.000
v 1.21608 -0.03636 3.19176 0.000 0.776 0.000
v 1.25406 -0.03636 3.16872 0.000 0.788 0.000
v 1.27494 -0.03636 3.21408 0.000 0.796 0.000
v 1.35108 -0.03636 3.20562 0.000 0.804 0.000
v 1.35918 -0.03636 3.14442 0.000 0.796 0.000
v 1.38510 -0.03636 3.08232 0.000 0.749 0.000
v 1.41102 -0.03636 3.14442 0.000 0.796 0.000
v 1.41912 -0.03636 3.20562 0.000 0.804 0.000
v 1.33470 -0.03636 3.12282 0.000 0.792 0.000
v 1.31382 -0.03636 3.12354 0.000 0.788 0.000
v 1.33686 -0.03636 3.08556 0.000 0.776 0.000
v 1.38510 -0.03636 3.06828 0.000 0.749 0.000
v 1.43334 -0.03636 3.08556 0.000 0.776 0.000
v 1.45638 -0.03636 3.12354 0.000 0.788 0.000
v 1.43550 -0.03636 3.12282 0.000 0.792 0.000
v 1.68480 -0.03636 3.21408 0.000 0.796 0.000
v 1.32678 -0.02754 3.40182 0.733 0.000 0.000
v 1.31382 -0.03636 3.35646 0.722 0.000 0.000
v 1.33686 -0.03636 3.39444 0.710 0.000 0.000
v 1.29600 -0.02754 3.34062 0.757 0.000 0.000
v 1.38510 -0.02754 3.42306 0.686 0.000 0.000
v 1.38510 -0.03636 3.41172 0.686 0.000 0.000
v 1.43334 -0.03636 3.39444 0.710 0.000 0.000
v 1.44342 -0.02754 3.40182 0.725 0.000 0.000
v 1.45638 -0.03636 3.35646 0.722 0.000 0.000
v 1.47420 -0.02754 3.34062 0.725 0.000 0.000
v 1.45080 -0.02754 3.34458 0.765 0.000 0.000
v 1.43550 -0.03636 3.35718 0.722 0.000 0.000
v 1.42722 -0.02754 3.33558 0.765 0.000 0.000
v 1.41102 -0.03636 3.33558 0.725 0.000 0.000
v 1.31940 -0.02754 3.34458 0.761 0.000 0.000
v 1.33470 -0.03636 3.35718 0.722 0.000 0.000
v 1.34298 -0.02754 3.33558 0.765 0.000 0.000
v 1.35918 -0.03636 3.33558 0.725 0.000 0.000
v 1.41912 -0.03636 3.27438 0.765 0.000 0.000
v 1.43640 -0.02754 3.29058 0.765 0.000 0.000
v 1.35108 -0.03636 3.27438 0.765 0.000 0.000
v 1.33380 -0.02754 3.29058 0.765 0.000 0.000
v 1.27494 -0.02754 3.28212 0.765 0.000 0.000
v 1.27494 -0.03636 3.26592 0.725 0.000 0.000
v 1.25334 -0.03636 3.29040 0.722 0.000 0.000
v 1.26594 -0.02754 3.30570 0.761 0.000 0.000
v 1.25406 -0.03636 3.31128 0.722 0.000 0.000
v 1.26990 -0.02754 3.32910 0.757 0.000 0.000
v 1.20870 -0.02754 3.29832 0.733 0.000 0.000
v 1.21608 -0.03636 3.28824 0.710 0.000 0.000
v 1.18746 -0.02754 3.24000 0.686 0.000 0.000
v 1.19880 -0.03636 3.24000 0.686 0.000 0.000
v 1.21608 -0.03636 3.19176 0.710 0.000 0.000
v 1.20870 -0.02754 3.18168 0.733 0.000 0.000
v 1.25406 -0.03636 3.16872 0.722 0.000 0.000
v 1.26990 -0.02754 3.15090 0.757 0.000 0.000
v 1.26594 -0.02754 3.17430 0.761 0.000 0.000
v 1.25334 -0.03636 3.18960 0.722 0.000 0.000
v 1.27494 -0.02754 3.19788 0.765 0.000 0.000
v 1.27494 -0.03636 3.21408 0.725 0.000 0.000
v 1.35108 -0.03636 3.20562 0.765 0.000 0.000
v 1.33380 -0.02754 3.18942 0.765 0.000 0.000
v 1.34298 -0.02754 3.14442 0.765 0.000 0.000
v 1.35918 -0.03636 3.14442 0.725 0.000 0.000
v 1.33470 -0.03636 3.12282 0.722 0.000 0.000
v 1.31940 -0.02754 3.13542 0.761 0.000 0.000
v 1.31382 -0.03636 3.12354 0.722 0.000 0.000
v 1.29600 -0.02754 3.13938 0.757 0.000 0.000
v 1.32678 -0.02754 3.07818 0.733 0.000 0.000
v 1.33686 -0.03636 3.08556 0.710 0.000 0.000
v 1.38510 -0.02754 3.05694 0.686 0.000 0.000
v 1.38510 -0.03636 3.06828 0.686 0.000 0.000
v 1.43334 -0.03636 3.08556 0.710 0.000 0.000
v 1.44342 -0.02754 3.07818 0.725 0.000 0.000
v 1.45638 -0.03636 3.12354 0.722 0.000 0.000
v 1.47420 -0.02754 3.13938 0.725 0.000 0.000
v 1.45080 -0.02754 3.13542 0.765 0.000 0.000
v 1.43550 -0.03636 3.12282 0.722 0.000 0.000
v 1.42722 -0.02754 3.14442 0.765 0.000 0.000
v 1.41102 -0.03636 3.14442 0.725 0.000 0.000
v 1.41912 -0.03636 3.20562 0.765 0.000 0.000
v 1.43640 -0.02754 3.18942 0.765 0.000 0.000
v 1.68480 -0.02754 3.19788 0.765 0.000 0.000
v 1.68480 -0.03636 3.21408 0.725 0.000 0.000
v 1.78686 -0.03636 3.24000 0.686 0.000 0.000
v 1.82898 -0.02754 3.24000 0.686 0.000 0.000
v 1.68480 -0.02754 3.28212 0.765 0.000 0.000
v 1.68480 -0.03636 3.26592 0.725 0.000 0.000
v 1.25334 -0.03636 3.18960 0.000 0.792 0.000
v 1.38510 0.02754 3.42306 0.686 0.000 0.000
v 1.32678 -0.02754 3.40182 0.804 0.000 0.000
v 1.38510 -0.02754 3.42306 0.686 0.000 0.000
v 1.32678 0.02754 3.40182 0.804 0.000 0.000
v 1.29600 0.02754 3.34062 0.804 0.000 0.000
v 1.29600 -0.02754 3.34062 0.804 0.000 0.000
v 1.31940 -0.02754 3.34458 0.804 0.000 0.000
v 1.31940 0.02754 3.34458 0.804 0.000 0.000
v 1.34298 -0.02754 3.33558 0.843 0.000 0.000
v 1.34298 0.02754 3.33558 0.843 0.000 0.000
v 1.33380 0.02754 3.29058 0.843 0.000 0.000
v 1.33380 -0.02754 3.29058 0.843 0.000 0.000
v 1.27494 -0.02754 3.28212 0.804 0.000 0.000
v 1.27494 0.02754 3.28212 0.804 0.000 0.000
v 1.26594 0.02754 3.30570 0.765 0.000 0.000
v 1.26594 -0.02754 3.30570 0.765 0.000 0.000
v 1.26990 0.02754 3.32910 0.804 0.000 0.000
v 1.26990 -0.02754 3.32910 0.804 0.000 0.000
v 1.20870 0.02754 3.29832 0.804 0.000 0.000
v 1.20870 -0.02754 3.29832 0.804 0.000 0.000
v 1.18746 -0.02754 3.24000 0.725 0.000 0.000
v 1.18746 0.02754 3.24000 0.725 0.000 0.000
v 1.20870 0.02754 3.18168 0.804 0.000 0.000
v 1.20870 -0.02754 3.18168 0.804 0.000 0.000
v 1.26990 -0.02754 3.15090 0.804 0.000 0.000
v 1.26990 0.02754 3.15090 0.804 0.000 0.000
v 1.26594 -0.02754 3.17430 0.765 0.000 0.000
v 1.26594 0.02754 3.17430 0.765 0.000 0.000
v 1.27494 -0.02754 3.19788 0.804 0.000 0.000
v 1.27494 0.02754 3.19788 0.804 0.000 0.000
v 1.33380 0.02754 3.18942 0.843 0.000 0.000
v 1.33380 -0.02754 3.18942 0.843 0.000 0.000
v 1.34298 -0.02754 3.14442 0.843 0.000 0.000
v 1.34298 0.02754 3.14442 0.843 0.000 0.000
v 1.31940 0.02754 3.13542 0.804 0.000 0.000
v 1.31940 -0.02754 3.13542 0.804 0.000 0.000
v 1.29600 0.02754 3.13938 0.804 0.000 0.000
v 1.29600 -0.02754 3.13938 0.804 0.000 0.000
v 1.32678 -0.02754 3.07818 0.804 0.000 0.000
v 1.32678 0.02754 3.07818 0.804 0.000 0.000
v 1.38510 0.02754 3.05694 0.686 0.000 0.000
v 1.38510 -0.02754 3.05694 0.686 0.000 0.000
v 1.44342 0.02754 3.07818 0.745 0.000 0.000
v 1.44342 -0.02754 3.07818 0.745 0.000 0.000
v 1.47420 -0.02754 3.13938 0.765 0.000 0.000
v 1.47420 0.02754 3.13938 0.765 0.000 0.000
v 1.47420 -0.02754 3.34062 0.765 0.000 0.000
v 1.47420 0.02754 3.34062 0.765 0.000 0.000
v 1.44342 0.02754 3.40182 0.745 0.000 0.000
v 1.44342 -0.02754 3.40182 0.745 0.000 0.000
v 1.26702 0.03654 3.22686 0.761 0.000 0.000
v 1.25244 0.03654 3.20994 0.765 0.000 0.000
v 1.23228 0.03654 3.24000 0.725 0.000 0.000
v 1.38510 0.03654 3.24000 0.745 0.000 0.000
v 1.36800 0.03654 3.22272 0.804 0.000 0.000
v 1.26702 0.03654 3.25314 0.761 0.000 0.000
v 1.25244 0.03654 3.27006 0.765 0.000 0.000
v 1.36800 0.03654 3.25728 0.804 0.000 0.000
v 1.23228 -0.03654 3.24000 0.725 0.000 0.000
v 1.25244 -0.03654 3.20994 0.765 0.000 0.000
v 1.26702 -0.03654 3.22686 0.761 0.000 0.000
v 1.38510 -0.03654 3.24000 0.745 0.000 0.000
v 1.36800 -0.03654 3.22272 0.804 0.000 0.000
v 1.26702 -0.03654 3.25314 0.761 0.000 0.000
v 1.25244 -0.03654 3.27006 0.765 0.000 0.000
v 1.36800 -0.03654 3.25728 0.804 0.000 0.000
v 1.41606 0.03654 3.37356 0.765 0.000 0.000
v 1.39914 0.03654 3.35898 0.761 0.000 0.000
v 1.38510 0.03654 3.39372 0.725 0.000 0.000
v 1.38510 0.03654 3.24000 0.745 0.000 0.000
v 1.37106 0.03654 3.35898 0.761 0.000 0.000
v 1.35414 0.03654 3.37356 0.765 0.000 0.000
v 1.40220 0.03654 3.25728 0.804 0.000 0.000
v 1.36800 0.03654 3.25728 0.804 0.000 0.000
v 1.38510 0.03654 3.08628 0.725 0.000 0.000
v 1.37106 0.03654 3.12102 0.761 0.000 0.000
v 1.35414 0.03654 3.10644 0.765 0.000 0.000
v 1.39914 0.03654 3.12102 0.761 0.000 0.000
v 1.41606 0.03654 3.10644 0.765 0.000 0.000
v 1.40220 0.03654 3.22272 0.804 0.000 0.000
v 1.36800 0.03654 3.22272 0.804 0.000 0.000
v 1.68480 0.03654 3.25296 0.745 0.000 0.000
v 1.38510 0.03654 3.24000 0.745 0.000 0.000
v 1.40220 0.03654 3.25728 0.804 0.000 0.000
v 1.73574 0.03654 3.24000 0.686 0.000 0.000
v 1.68480 0.03654 3.22704 0.745 0.000 0.000
v 1.40220 0.03654 3.22272 0.804 0.000 0.000
v 1.38510 -0.03654 3.39372 0.725 0.000 0.000
v 1.39914 -0.03654 3.35898 0.761 0.000 0.000
v 1.41606 -0.03654 3.37356 0.765 0.000 0.000
v 1.38510 -0.03654 3.24000 0.745 0.000 0.000
v 1.37106 -0.03654 3.35898 0.761 0.000 0.000
v 1.35414 -0.03654 3.37356 0.765 0.000 0.000
v 1.40220 -0.03654 3.25728 0.804 0.000 0.000
v 1.36800 -0.03654 3.25728 0.804 0.000 0.000
v 1.37106 -0.03654 3.12102 0.761 0.000 0.000
v 1.38510 -0.03654 3.08628 0.725 0.000 0.000
v 1.35414 -0.03654 3.10644 0.765 0.000 0.000
v 1.39914 -0.03654 3.12102 0.761 0.000 0.000
v 1.41606 -0.03654 3.10644 0.765 0.000 0.000
v 1.40220 -0.03654 3.22272 0.804 0.000 0.000
v 1.36800 -0.03654 3.22272 0.804 0.000 0.000
v 1.40220 -0.03654 3.25728 0.804 0.000 0.000
v 1.38510 -0.03654 3.24000 0.745 0.000 0.000
v 1.68480 -0.03654 3.25296 0.745 0.000 0.000
v 1.73574 -0.03654 3.24000 0.686 0.000 0.000
v 1.68480 -0.03654 3.22704 0.745 0.000 0.000
v 1.40220 -0.03654 3.22272 0.804 0.000 0.000
v 1.40940 0.03690 3.28518 0.000 0.000 0.824
v 1.37610 0.04446 3.26682 0.000 0.000 0.776
v 1.35918 0.03690 3.27672 0.000 0.000 0.843
v 1.40940 0.04680 3.26808 0.000 0.000 0.714
v 1.44270 0.04446 3.26682 0.000 0.000 0.706
v 1.40940 0.05238 3.24000 0.000 0.000 0.604
v 1.45980 0.04770 3.24000 0.000 0.000 0.580
v 1.45962 0.03690 3.27672 0.000 0.000 0.784
v 1.47582 0.03690 3.26196 0.000 0.000 0.694
v 1.48500 0.03690 3.24000 0.000 0.000 0.561
v 1.47582 0.03690 3.21804 0.000 0.000 0.694
v 1.44270 0.04446 3.21318 0.000 0.000 0.706
v 1.40940 0.04680 3.21192 0.000 0.000 0.714
v 1.40940 0.03690 3.19482 0.000 0.000 0.824
v 1.45962 0.03690 3.20328 0.000 0.000 0.784
v 1.37610 0.04446 3.21318 0.000 0.000 0.776
v 1.35900 0.04770 3.24000 0.000 0.000 0.725
v 1.34298 0.03690 3.21804 0.000 0.000 0.843
v 1.33380 0.03690 3.24000 0.000 0.000 0.843
v 1.34298 0.03690 3.26196 0.000 0.000 0.843
v 1.35918 0.03690 3.20328 0.000 0.000 0.843
v 1.35918 -0.03690 3.27672 0.000 0.000 0.843
v 1.37610 -0.04446 3.26682 0.000 0.000 0.776
v 1.40940 -0.03690 3.28518 0.000 0.000 0.824
v 1.34298 -0.03690 3.26196 0.000 0.000 0.843
v 1.35900 -0.04770 3.24000 0.000 0.000 0.725
v 1.33380 -0.03690 3.24000 0.000 0.000 0.843
v 1.34298 -0.03690 3.21804 0.000 0.000 0.843
v 1.37610 -0.04446 3.21318 0.000 0.000 0.776
v 1.40940 -0.05238 3.24000 0.000 0.000 0.604
v 1.40940 -0.04680 3.26808 0.000 0.000 0.714
v 1.44270 -0.04446 3.26682 0.000 0.000 0.706
v 1.45980 -0.04770 3.24000 0.000 0.000 0.580
v 1.45962 -0.03690 3.27672 0.000 0.000 0.784
v 1.47582 -0.03690 3.26196 0.000 0.000 0.694
v 1.48500 -0.03690 3.24000 0.000 0.000 0.561
v 1.47582 -0.03690 3.21804 0.000 0.000 0.694
v 1.44270 -0.04446 3.21318 0.000 0.000 0.706
v 1.40940 -0.04680 3.21192 0.000 0.000 0.714
v 1.45962 -0.03690 3.20328 0.000 0.000 0.784
v 1.40940 -0.03690 3.19482 0.000 0.000 0.824
v 1.35918 -0.03690 3.20328 0.000 0.000 0.843
v 0.93960 0.00000 3.33072 0.000 0.000 0.588
v 1.14804 0.00000 3.24000 0.000 0.000 0.588
v 0.93960 0.06012 3.24000 0.000 0.000 0.588
v 0.70992 0.00000 3.24000 0.000 0.000 0.588
v 0.93960 -0.06012 3.24000 0.000 0.000 0.588
v 0.93960 0.00000 3.14928 0.000 0.000 0.588
v 1.26900 -0.03780 3.24000 0.000 0.000 0.588
v 1.40940 -0.05436 3.24000 0.000 0.000 0.588
v 1.40940 -0.03780 3.33522 0.000 0.000 0.588
v 1.54980 -0.03780 3.24000 0.000 0.000 0.588
v 1.40940 -0.03780 3.14478 0.000 0.000 0.588
v 1.40940 0.05436 3.24000 0.000 0.000 0.588
v 1.40940 0.03780 3.14478 0.000 0.000 0.588
v 1.26900 0.03780 3.24000 0.000 0.000 0.588
v 1.54980 0.03780 3.24000 0.000 0.000 0.588
v 1.40940 0.03780 3.33522 0.000 0.000 0.588
vt 0.61719 0.85156
vt 0.44531 0.61719
vt 0.61719 0.69531
vt 0.61719 0.85156
vt 0.44531 0.85156
vt 0.44531 0.61719
vt 0.61719 0.69531
vt 0.44531 0.85156
vt 0.64844 0.69531
vt 0.66406 0.85156
vt 0.63281 0.85156
vt 0.64844 0.69531
vt 0.61719 0.69531
vt 0.61719 0.85156
vt 0.42969 0.61719
vt 0.61719 0.85156
vt 0.42969 0.85156
vt 0.42969 0.61719
vt 0.61719 0.69531
vt 0.42969 0.85156
vt 0.61719 0.85156
vt 0.42969 0.61719
vt 0.42969 0.61719
vt 0.61719 0.69531
vt 0.61719 0.85156
vt 0.61719 0.69531
vt 0.61719 0.69531
vt 0.61719 0.85156
vt 0.42969 0.61719
vt 0.61719 0.85156
vt 0.42969 0.85156
vt 0.42969 0.61719
vt 0.61719 0.69531
vt 0.42969 0.85156
vt 0.66406 0.85156
vt 0.64844 0.69531
vt 0.63281 0.85156
vt 0.64844 0.69531
vt 0.66406 0.85156
vt 0.64844 0.69531
vt 0.63281 0.85156
vt 0.64844 0.69531
vt 0.61719 0.85156
vt 0.42969 0.61719
vt 0.61719 0.69531
vt 0.61719 0.85156
vt 0.42969 0.85156
vt 0.42969 0.61719
vt 0.61719 0.69531
vt 0.42969 0.85156
vt 0.64844 0.69531
vt 0.63281 0.85156
vt 0.66406 0.85156
vt 0.64844 0.69531
vt 0.25781 0.99219
vt 0.25781 0.80469
vt 0.41406 0.99219
vt 0.41406 0.80469
vt 0.41406 0.99219
vt 0.25781 0.80469
vt 0.25781 0.99219
vt 0.41406 0.80469
vt 0.64844 0.69531
vt 0.63281 0.85156
vt 0.66406 0.85156
vt 0.64844 0.69531
vt 0.66406 0.85156
vt 0.63281 0.85156
vt 0.64844 0.69531
vt 0.64844 0.69531
vt 0.64844 0.69531
vt 0.64844 0.69531
vt 0.63281 0.85156
vt 0.64844 0.69531
vt 0.66406 0.85156
vt 0.64844 0.69531
vt 0.99219 0.63281
vt 0.91406 0.36719
vt 0.99219 0.17969
vt 0.92969 0.17969
vt 0.86719 0.44531
vt 0.85156 0.71094
vt 0.82031 0.44531
vt 0.99219 0.99219
vt 0.85156 0.71094
vt 0.86719 0.44531
vt 0.91406 0.36719
vt 0.82031 0.44531
vt 0.92969 0.17969
vt 0.99219 0.17969
vt 0.91406 0.36719
vt 0.99219 0.63281
vt 0.92969 0.17969
vt 0.86719 0.44531
vt 0.85156 0.71094
vt 0.82031 0.44531
vt 0.99219 0.99219
vt 0.85156 0.71094
vt 0.86719 0.44531
vt 0.91406 0.36719
vt 0.82031 0.44531
vt 0.92969 0.17969
vt 0.07031 0.02344
vt 0.00781 0.02344
vt 0.00781 0.99219
vt 0.07031 0.02344
vt 0.07031 0.99219
vt 0.00781 0.99219
vt 0.07031 0.99219
vt 0.07031 0.99219
vt 0.07031 0.99219
vt 0.00781 0.02344
vt 0.00781 0.99219
vt 0.00781 0.99219
vt 0.86719 0.99219
vt 0.96094 0.99219
vt 0.86719 0.85156
vt 0.86719 0.99219
vt 0.86719 0.85156
vt 0.08594 0.71094
vt 0.17969 0.57031
vt 0.08594 0.57031
vt 0.17969 0.72656
vt 0.08594 0.86719
vt 0.17969 0.99219
vt 0.08594 0.99219
vt 0.08594 0.86719
vt 0.17969 0.72656
vt 0.08594 0.71094
vt 0.17969 0.57031
vt 0.08594 0.57031
vt 0.17969 0.57031
vt 0.17969 0.72656
vt 0.17969 0.99219
vt 0.17969 0.57031
vt 0.17969 0.72656
vt 0.17969 0.55469
vt 0.17969 0.47656
vt 0.08594 0.52344
vt 0.08594 0.55469
vt 0.08594 0.47656
vt 0.08594 0.39844
vt 0.17969 0.41406
vt 0.17969 0.35156
vt 0.08594 0.28906
vt 0.17969 0.28906
vt 0.17969 0.19531
vt 0.08594 0.19531
vt 0.17969 0.11719
vt 0.08594 0.11719
vt 0.17969 0.55469
vt 0.17969 0.47656
vt 0.17969 0.19531
vt 0.17969 0.28906
vt 0.17969 0.11719
vt 0.17969 0.35156
vt 0.17969 0.41406
vt 0.17969 0.49219
vt 0.17969 0.42969
vt 0.08594 0.46094
vt 0.08594 0.39844
vt 0.08594 0.52344
vt 0.17969 0.53906
vt 0.08594 0.55469
vt 0.17969 0.55469
vt 0.17969 0.36719
vt 0.08594 0.33594
vt 0.17969 0.28906
vt 0.08594 0.28906
vt 0.17969 0.42969
vt 0.17969 0.49219
vt 0.17969 0.53906
vt 0.17969 0.55469
vt 0.17969 0.36719
vt 0.17969 0.28906
vt 0.42969 0.30469
vt 0.49219 0.30469
vt 0.49219 0.25781
vt 0.36719 0.14844
vt 0.49219 0.14844
vt 0.33594 0.30469
vt 0.24219 0.30469
vt 0.24219 0.14844
vt 0.49219 0.25781
vt 0.36719 0.14844
vt 0.24219 0.14844
vt 0.49219 0.14844
vt 0.17969 0.55469
vt 0.08594 0.52344
vt 0.17969 0.47656
vt 0.08594 0.55469
vt 0.08594 0.47656
vt 0.08594 0.39844
vt 0.17969 0.41406
vt 0.17969 0.35156
vt 0.08594 0.28906
vt 0.17969 0.28906
vt 0.17969 0.19531
vt 0.08594 0.19531
vt 0.17969 0.11719
vt 0.08594 0.11719
vt 0.17969 0.55469
vt 0.17969 0.47656
vt 0.17969 0.19531
vt 0.17969 0.28906
vt 0.17969 0.11719
vt 0.17969 0.35156
vt 0.17969 0.41406
vt 0.17969 0.49219
vt 0.08594 0.46094
vt 0.17969 0.42969
vt 0.08594 0.39844
vt 0.08594 0.52344
vt 0.17969 0.53906
vt 0.08594 0.55469
vt 0.17969 0.55469
vt 0.17969 0.36719
vt 0.08594 0.33594
vt 0.17969 0.28906
vt 0.08594 0.28906
vt 0.17969 0.42969
vt 0.17969 0.49219
vt 0.17969 0.53906
vt 0.17969 0.55469
vt 0.17969 0.36719
vt 0.17969 0.28906
vt 0.49219 0.30469
vt 0.42969 0.30469
vt 0.49219 0.25781
vt 0.36719 0.14844
vt 0.49219 0.14844
vt 0.33594 0.30469
vt 0.24219 0.30469
vt 0.24219 0.14844
vt 0.49219 0.25781
vt 0.36719 0.14844
vt 0.24219 0.14844
vt 0.49219 0.14844
vt 0.21094 0.30469
vt 0.19531 0.14844
vt 0.22656 0.14844
vt 0.19531 0.14844
vt 0.21094 0.30469
vt 0.22656 0.14844
vt 0.82031 0.16406
vt 0.82031 0.02344
vt 0.94531 0.02344
vt 0.94531 0.02344
vt 0.99219 0.05469
vt 0.99219 0.16406
vt 0.99219 0.05469
vt 0.82031 0.16406
vt 0.82031 0.02344
vt 0.99219 0.16406
vt 0.82031 0.17969
vt 0.88281 0.25781
vt 0.88281 0.17969
vt 0.82031 0.25781
vt 0.82031 0.38281
vt 0.88281 0.38281
vt 0.82031 0.17969
vt 0.88281 0.17969
vt 0.88281 0.25781
vt 0.82031 0.25781
vt 0.82031 0.38281
vt 0.88281 0.38281
vt 0.66406 0.41406
vt 0.50781 0.27344
vt 0.71094 0.17969
vt 0.57031 0.44531
vt 0.53906 0.14844
vt 0.74219 0.44531
vt 0.80469 0.14844
vt 0.80469 0.52344
vt 0.66406 0.41406
vt 0.71094 0.17969
vt 0.50781 0.27344
vt 0.57031 0.44531
vt 0.53906 0.14844
vt 0.74219 0.44531
vt 0.80469 0.14844
vt 0.80469 0.52344
vt 0.71094 0.17969
vt 0.50781 0.27344
vt 0.66406 0.41406
vt 0.57031 0.44531
vt 0.53906 0.14844
vt 0.74219 0.44531
vt 0.80469 0.14844
vt 0.80469 0.52344
vt 0.50781 0.27344
vt 0.71094 0.17969
vt 0.66406 0.41406
vt 0.57031 0.44531
vt 0.53906 0.14844
vt 0.74219 0.44531
vt 0.80469 0.14844
vt 0.80469 0.52344
vt 0.78906 0.99219
vt 0.75781 0.89844
vt 0.85156 0.99219
vt 0.85156 0.78906
vt 0.66406 0.74219
vt 0.75781 0.60156
vt 0.75781 0.89844
vt 0.78906 0.99219
vt 0.66406 0.74219
vt 0.75781 0.60156
vt 0.75781 0.47656
vt 0.75781 0.47656
vt 0.85156 0.99219
vt 0.75781 0.89844
vt 0.78906 0.99219
vt 0.85156 0.78906
vt 0.66406 0.74219
vt 0.75781 0.60156
vt 0.75781 0.89844
vt 0.78906 0.99219
vt 0.66406 0.74219
vt 0.75781 0.60156
vt 0.75781 0.47656
vt 0.75781 0.47656
vt 0.74219 0.57031
vt 0.55156 0.57031
vt 0.74219 0.85156
vt 0.55156 0.57031
vt 0.74219 0.57031
vt 0.74219 0.25781
vt 0.74219 0.55469
vt 0.55156 0.55469
vt 0.74219 0.55469
vt 0.55156 0.55469
vt 0.60156 0.91406
vt 0.42969 0.99219
vt 0.42969 0.86719
vt 0.60156 0.99219
vt 0.71094 0.99219
vt 0.71094 0.86719
vt 0.60156 0.91406
vt 0.42969 0.99219
vt 0.60156 0.99219
vt 0.71094 0.99219
vt 0.60156 0.91406
vt 0.42969 0.86719
vt 0.60156 0.91406
vt 0.71094 0.86719
vt 0.33594 0.08594
vt 0.42969 0.08594
vt 0.33594 0.13281
vt 0.42969 0.13281
vt 0.52344 0.08594
vt 0.52344 0.13281
vt 0.58594 0.13281
vt 0.58594 0.08594
vt 0.63281 0.13281
vt 0.63281 0.08594
vt 0.33594 0.08594
vt 0.33594 0.13281
vt 0.42969 0.08594
vt 0.42969 0.13281
vt 0.52344 0.08594
vt 0.52344 0.13281
vt 0.58594 0.13281
vt 0.58594 0.08594
vt 0.63281 0.13281
vt 0.63281 0.08594
vt 0.24219 0.99219
vt 0.19531 0.97656
vt 0.19531 0.71094
vt 0.19531 0.99219
vt 0.24219 0.75781
vt 0.33594 0.75781
vt 0.39844 0.71094
vt 0.33594 0.66406
vt 0.24219 0.66406
vt 0.33594 0.64844
vt 0.33594 0.63281
vt 0.41406 0.63281
vt 0.41406 0.71094
vt 0.41406 0.78906
vt 0.33594 0.78906
vt 0.33594 0.77344
vt 0.24219 0.57031
vt 0.19531 0.50781
vt 0.25781 0.57031
vt 0.27344 0.57031
vt 0.27344 0.49219
vt 0.19531 0.49219
vt 0.27344 0.49219
vt 0.27344 0.57031
vt 0.25781 0.57031
vt 0.24219 0.57031
vt 0.24219 0.66406
vt 0.33594 0.66406
vt 0.39844 0.71094
vt 0.33594 0.75781
vt 0.24219 0.75781
vt 0.33594 0.64844
vt 0.33594 0.63281
vt 0.41406 0.63281
vt 0.41406 0.71094
vt 0.41406 0.78906
vt 0.33594 0.78906
vt 0.33594 0.77344
vt 0.24219 0.99219
vt 0.71094 0.02344
vt 0.63281 0.02344
vt 0.71094 0.07031
vt 0.63281 0.07031
vt 0.80469 0.07031
vt 0.80469 0.02344
vt 0.71094 0.02344
vt 0.71094 0.07031
vt 0.63281 0.02344
vt 0.63281 0.07031
vt 0.58594 0.07031
vt 0.58594 0.02344
vt 0.52344 0.07031
vt 0.52344 0.02344
vt 0.58594 0.07031
vt 0.58594 0.02344
vt 0.52344 0.07031
vt 0.52344 0.02344
vt 0.42969 0.02344
vt 0.42969 0.07031
vt 0.42969 0.02344
vt 0.42969 0.07031
vt 0.52344 0.07031
vt 0.52344 0.02344
vt 0.58594 0.02344
vt 0.58594 0.07031
vt 0.63281 0.02344
vt 0.63281 0.07031
vt 0.71094 0.07031
vt 0.71094 0.02344
vt 0.80469 0.07031
vt 0.80469 0.02344
vt 0.71094 0.02344
vt 0.71094 0.07031
vt 0.63281 0.02344
vt 0.63281 0.07031
vt 0.58594 0.07031
vt 0.58594 0.02344
vt 0.52344 0.07031
vt 0.52344 0.02344
vt 0.42969 0.02344
vt 0.42969 0.07031
vt 0.52344 0.07031
vt 0.52344 0.02344
vt 0.58594 0.02344
vt 0.58594 0.07031
vt 0.63281 0.02344
vt 0.63281 0.07031
vt 0.71094 0.07031
vt 0.71094 0.02344
vt 0.80469 0.07031
vt 0.80469 0.02344
vt 0.71094 0.02344
vt 0.71094 0.07031
vt 0.63281 0.02344
vt 0.63281 0.07031
vt 0.58594 0.07031
vt 0.58594 0.02344
vt 0.52344 0.07031
vt 0.52344 0.02344
vt 0.42969 0.02344
vt 0.42969 0.07031
vt 0.24219 0.08594
vt 0.24469 0.02344
vt 0.08594 0.02344
vt 0.08594 0.08594
vt 0.24219 0.08594
vt 0.24469 0.02344
vt 0.19531 0.71094
vt 0.19531 0.97656
vt 0.24219 0.99219
vt 0.19531 0.99219
vt 0.24219 0.75781
vt 0.33594 0.75781
vt 0.39844 0.71094
vt 0.33594 0.66406
vt 0.24219 0.66406
vt 0.33594 0.64844
vt 0.33594 0.63281
vt 0.41406 0.63281
vt 0.41406 0.71094
vt 0.41406 0.78906
vt 0.33594 0.78906
vt 0.33594 0.77344
vt 0.24219 0.57031
vt 0.19531 0.50781
vt 0.25781 0.57031
vt 0.27344 0.57031
vt 0.27344 0.49219
vt 0.19531 0.49219
vt 0.27344 0.49219
vt 0.27344 0.57031
vt 0.24219 0.57031
vt 0.24219 0.66406
vt 0.33594 0.66406
vt 0.39844 0.71094
vt 0.33594 0.75781
vt 0.24219 0.75781
vt 0.33594 0.64844
vt 0.33594 0.63281
vt 0.41406 0.63281
vt 0.41406 0.71094
vt 0.41406 0.78906
vt 0.33594 0.78906
vt 0.33594 0.77344
vt 0.24219 0.99219
vt 0.71094 0.07031
vt 0.63281 0.02344
vt 0.71094 0.02344
vt 0.63281 0.07031
vt 0.80469 0.07031
vt 0.80469 0.02344
vt 0.71094 0.02344
vt 0.71094 0.07031
vt 0.63281 0.02344
vt 0.63281 0.07031
vt 0.58594 0.07031
vt 0.58594 0.02344
vt 0.52344 0.07031
vt 0.52344 0.02344
vt 0.58594 0.07031
vt 0.58594 0.02344
vt 0.52344 0.07031
vt 0.52344 0.02344
vt 0.42969 0.02344
vt 0.42969 0.07031
vt 0.42969 0.02344
vt 0.42969 0.07031
vt 0.52344 0.07031
vt 0.52344 0.02344
vt 0.58594 0.02344
vt 0.58594 0.07031
vt 0.63281 0.02344
vt 0.63281 0.07031
vt 0.71094 0.07031
vt 0.71094 0.02344
vt 0.80469 0.07031
vt 0.80469 0.02344
vt 0.71094 0.02344
vt 0.71094 0.07031
vt 0.63281 0.02344
vt 0.63281 0.07031
vt 0.58594 0.07031
vt 0.58594 0.02344
vt 0.52344 0.07031
vt 0.52344 0.02344
vt 0.42969 0.02344
vt 0.42969 0.07031
vt 0.52344 0.07031
vt 0.52344 0.02344
vt 0.58594 0.02344
vt 0.58594 0.07031
vt 0.63281 0.02344
vt 0.63281 0.07031
vt 0.71094 0.07031
vt 0.71094 0.02344
vt 0.80469 0.07031
vt 0.80469 0.02344
vt 0.71094 0.02344
vt 0.71094 0.07031
vt 0.63281 0.02344
vt 0.63281 0.07031
vt 0.58594 0.07031
vt 0.58594 0.02344
vt 0.52344 0.07031
vt 0.52344 0.02344
vt 0.42969 0.02344
vt 0.42969 0.07031
vt 0.24219 0.08594
vt 0.24469 0.02344
vt 0.08594 0.02344
vt 0.08594 0.08594
vt 0.24219 0.08594
vt 0.24469 0.02344
vt 0.25781 0.57031
vt 0.80469 0.13281
vt 0.71094 0.08594
vt 0.80469 0.08594
vt 0.71094 0.13281
vt 0.63281 0.13281
vt 0.63281 0.08594
vt 0.58594 0.08594
vt 0.58594 0.13281
vt 0.52344 0.08594
vt 0.52344 0.13281
vt 0.42969 0.13281
vt 0.42969 0.08594
vt 0.52344 0.08594
vt 0.52344 0.13281
vt 0.58594 0.13281
vt 0.58594 0.08594
vt 0.63281 0.13281
vt 0.63281 0.08594
vt 0.71094 0.13281
vt 0.71094 0.08594
vt 0.80469 0.08594
vt 0.80469 0.13281
vt 0.71094 0.13281
vt 0.71094 0.08594
vt 0.63281 0.08594
vt 0.63281 0.13281
vt 0.58594 0.08594
vt 0.58594 0.13281
vt 0.52344 0.08594
vt 0.52344 0.13281
vt 0.42969 0.13281
vt 0.42969 0.08594
vt 0.52344 0.08594
vt 0.52344 0.13281
vt 0.58594 0.13281
vt 0.58594 0.08594
vt 0.63281 0.13281
vt 0.63281 0.08594
vt 0.71094 0.08594
vt 0.71094 0.13281
vt 0.80469 0.13281
vt 0.80469 0.08594
vt 0.71094 0.13281
vt 0.71094 0.08594
vt 0.63281 0.08594
vt 0.63281 0.13281
vt 0.63281 0.08594
vt 0.63281 0.13281
vt 0.71094 0.13281
vt 0.71094 0.08594
vt 0.33594 0.53906
vt 0.28906 0.53906
vt 0.28906 0.49219
vt 0.66406 0.49219
vt 0.61719 0.53906
vt 0.33594 0.53906
vt 0.28906 0.53906
vt 0.61719 0.53906
vt 0.28906 0.49219
vt 0.28906 0.53906
vt 0.33594 0.53906
vt 0.66406 0.49219
vt 0.61719 0.53906
vt 0.33594 0.53906
vt 0.28906 0.53906
vt 0.61719 0.53906
vt 0.28906 0.53906
vt 0.33594 0.53906
vt 0.28906 0.49219
vt 0.63281 0.49219
vt 0.33594 0.53906
vt 0.28906 0.53906
vt 0.58594 0.53906
vt 0.58594 0.53906
vt 0.28906 0.49219
vt 0.33594 0.53906
vt 0.28906 0.53906
vt 0.33594 0.53906
vt 0.28906 0.53906
vt 0.58594 0.53906
vt 0.58594 0.53906
vt 0.28906 0.60156
vt 0.61719 0.55469
vt 0.57031 0.60156
vt 0.28906 0.55469
vt 0.28906 0.60156
vt 0.57031 0.60156
vt 0.28906 0.49219
vt 0.33594 0.53906
vt 0.28906 0.53906
vt 0.63281 0.49219
vt 0.33594 0.53906
vt 0.28906 0.53906
vt 0.58594 0.53906
vt 0.58594 0.53906
vt 0.33594 0.53906
vt 0.28906 0.49219
vt 0.28906 0.53906
vt 0.33594 0.53906
vt 0.28906 0.53906
vt 0.58594 0.53906
vt 0.58594 0.53906
vt 0.57031 0.60156
vt 0.61719 0.55469
vt 0.28906 0.60156
vt 0.28906 0.55469
vt 0.28906 0.60156
vt 0.57031 0.60156
vt 0.35156 0.32031
vt 0.42969 0.38281
vt 0.50781 0.32031
vt 0.35156 0.38281
vt 0.27344 0.38281
vt 0.35156 0.47656
vt 0.27344 0.47656
vt 0.19531 0.32031
vt 0.19531 0.36719
vt 0.19531 0.47656
vt 0.19531 0.36719
vt 0.27344 0.38281
vt 0.35156 0.38281
vt 0.35156 0.32031
vt 0.19531 0.32031
vt 0.42969 0.38281
vt 0.42969 0.47656
vt 0.50781 0.36719
vt 0.50781 0.47656
vt 0.50781 0.36719
vt 0.50781 0.32031
vt 0.50781 0.32031
vt 0.42969 0.38281
vt 0.35156 0.32031
vt 0.50781 0.36719
vt 0.42969 0.47656
vt 0.50781 0.47656
vt 0.50781 0.36719
vt 0.42969 0.38281
vt 0.35156 0.47656
vt 0.35156 0.38281
vt 0.27344 0.38281
vt 0.27344 0.47656
vt 0.19531 0.32031
vt 0.19531 0.36719
vt 0.19531 0.47656
vt 0.19531 0.36719
vt 0.27344 0.38281
vt 0.35156 0.38281
vt 0.19531 0.32031
vt 0.35156 0.32031
vt 0.50781 0.32031
vt 0.05806 0.00781
vt 0.05806 0.00781
vt 0.24306 0.00781
vt 0.05806 0.00781
vt 0.24306 0.00781
vt 0.05806 0.00781
vt 0.00781 0.00781
vt 0.19281 0.00781
vt 0.00781 0.00781
vt 0.00781 0.00781
vt 0.00781 0.00781
vt 0.19281 0.00781
vt 0.00781 0.00781
vt 0.00781 0.00781
vt 0.00781 0.00781
vt 0.00781 0.00781
usemtl m0
f 1/1 2/2 3/3
f 3/3 2/2 4/4
f 4/4 2/2 5/5
f 6/6 4/4 5/5
f 7/7 4/4 6/6
f 6/6 1/1 7/7
f 8/8 1/1 6/6
f 8/8 2/2 1/1
f 9/9 10/10 11/11
f 10/10 12/12 11/11
f 13/13 14/14 15/15
f 15/15 16/16 13/13
f 15/15 17/17 16/16
f 17/17 18/18 16/16
f 16/16 18/18 19/19
f 19/19 18/18 14/14
f 14/14 18/18 20/20
f 14/14 20/20 15/15
f 21/21 22/22 17/17
f 23/23 21/21 17/17
f 24/24 21/21 23/23
f 20/20 25/25 23/23
f 23/23 25/25 24/24
f 20/20 22/22 25/25
f 25/25 22/22 26/26
f 26/26 22/22 21/21
f 27/27 28/28 29/29
f 29/29 30/30 27/27
f 29/29 31/31 30/30
f 31/31 32/32 30/30
f 30/30 32/32 33/33
f 33/33 32/32 28/28
f 28/28 32/32 34/34
f 28/28 34/34 29/29
f 35/35 36/36 37/37
f 38/38 35/35 37/37
f 39/39 40/40 41/41
f 42/42 39/39 41/41
f 43/43 44/44 45/45
f 45/45 44/44 46/46
f 46/46 44/44 47/47
f 48/48 46/46 47/47
f 49/49 46/46 48/48
f 48/48 43/43 49/49
f 50/50 43/43 48/48
f 50/50 44/44 43/43
f 51/51 52/52 53/53
f 52/52 54/54 53/53
f 55/55 56/56 57/57
f 57/57 56/56 58/58
f 58/58 56/56 59/59
f 55/55 57/57 60/60
f 60/60 59/59 61/61
f 59/59 56/56 61/61
f 60/60 57/57 62/62
f 62/62 59/59 60/60
f 63/63 64/64 65/65
f 64/64 66/66 65/65
f 67/67 68/68 69/69
f 67/67 70/70 68/68
f 68/68 71/71 67/67
f 72/72 68/68 67/67
f 73/73 74/74 75/75
f 76/76 73/73 75/75
f 77/77 78/78 79/79
f 79/79 78/78 80/80
f 77/77 81/81 78/78
f 82/82 81/81 77/77
f 82/82 83/83 81/81
f 84/84 82/82 77/77
f 85/85 84/84 77/77
f 85/85 77/77 86/86
f 86/86 77/77 87/87
f 87/87 77/77 79/79
f 88/88 85/85 86/86
f 87/87 79/79 89/89
f 90/90 91/91 92/92
f 93/93 91/91 90/90
f 91/91 94/94 92/92
f 92/92 94/94 95/95
f 94/94 96/96 95/95
f 92/92 95/95 97/97
f 92/92 97/97 98/98
f 99/99 92/92 98/98
f 100/100 92/92 99/99
f 90/90 92/92 100/100
f 99/99 98/98 101/101
f 102/102 90/90 100/100
f 103/103 104/104 105/105
f 104/104 106/106 105/105
f 104/104 107/107 106/106
f 108/108 107/107 104/104
f 105/105 106/106 109/109
f 110/110 108/108 104/104
f 110/110 104/104 103/103
f 103/103 105/105 111/111
f 106/106 107/107 112/112
f 103/103 112/112 110/110
f 113/113 106/106 112/112
f 109/109 106/106 113/113
f 111/111 113/113 103/103
f 113/113 112/112 103/103
f 112/112 107/107 114/114
f 112/112 114/114 110/110
f 115/115 116/116 117/117
f 117/117 116/116 118/118
f 116/116 119/119 118/118
f 115/115 119/119 116/116
f 120/120 121/121 122/122
f 120/120 123/123 121/121
f 120/120 124/124 123/123
f 124/124 125/125 123/123
f 124/124 126/126 125/125
f 126/126 127/127 125/125
f 127/127 128/128 125/125
f 127/127 129/129 128/128
f 128/128 129/129 130/130
f 129/129 131/131 130/130
f 122/122 132/132 120/120
f 132/132 133/133 120/120
f 133/133 124/124 120/120
f 133/133 134/134 124/124
f 134/134 126/126 124/124
f 134/134 127/127 126/126
f 135/135 131/131 129/129
f 135/135 129/129 136/136
f 134/134 136/136 127/127
f 136/136 129/129 127/127
f 137/137 138/138 139/139
f 140/140 137/137 139/139
f 139/139 138/138 141/141
f 141/141 138/138 142/142
f 142/142 138/138 143/143
f 142/142 143/143 144/144
f 142/142 144/144 145/145
f 145/145 144/144 146/146
f 145/145 146/146 147/147
f 148/148 145/145 147/147
f 149/149 148/148 147/147
f 150/150 148/148 149/149
f 139/139 151/151 140/140
f 139/139 152/152 151/151
f 141/141 152/152 139/139
f 142/142 152/152 141/141
f 153/153 145/145 148/148
f 153/153 154/154 145/145
f 153/153 148/148 155/155
f 155/155 148/148 150/150
f 154/154 156/156 145/145
f 145/145 156/156 142/142
f 156/156 157/157 142/142
f 157/157 152/152 142/142
f 158/158 159/159 160/160
f 160/160 159/159 161/161
f 162/162 158/158 160/160
f 163/163 158/158 162/162
f 164/164 163/163 162/162
f 165/165 163/163 164/164
f 161/161 159/159 166/166
f 161/161 166/166 167/167
f 167/167 166/166 168/168
f 167/167 168/168 169/169
f 161/161 170/170 160/160
f 160/160 170/170 171/171
f 160/160 171/171 162/162
f 162/162 171/171 172/172
f 162/162 172/172 164/164
f 164/164 172/172 173/173
f 174/174 170/170 161/161
f 167/167 174/174 161/161
f 169/169 175/175 167/167
f 175/175 174/174 167/167
f 176/176 177/177 178/178
f 176/176 178/178 179/179
f 178/178 180/180 179/179
f 176/176 179/179 181/181
f 181/181 179/179 182/182
f 179/179 183/183 182/182
f 184/184 177/177 176/176
f 182/182 185/185 181/181
f 181/181 185/185 176/176
f 185/185 184/184 176/176
f 182/182 186/186 185/185
f 185/185 187/187 184/184
f 188/188 189/189 190/190
f 188/188 191/191 189/189
f 190/190 189/189 192/192
f 192/192 193/193 190/190
f 190/190 193/193 194/194
f 194/194 193/193 195/195
f 193/193 196/196 195/195
f 195/195 196/196 197/197
f 196/196 198/198 197/197
f 199/199 198/198 196/196
f 199/199 200/200 198/198
f 201/201 200/200 199/199
f 189/189 191/191 202/202
f 203/203 189/189 202/202
f 192/192 189/189 203/203
f 203/203 193/193 192/192
f 196/196 204/204 199/199
f 205/205 204/204 196/196
f 204/204 206/206 199/199
f 199/199 206/206 201/201
f 205/205 196/196 207/207
f 207/207 196/196 193/193
f 207/207 193/193 208/208
f 208/208 193/193 203/203
f 209/209 210/210 211/211
f 210/210 212/212 211/211
f 209/209 213/213 210/210
f 214/214 213/213 209/209
f 214/214 215/215 213/213
f 216/216 215/215 214/214
f 211/211 212/212 217/217
f 212/212 218/218 217/217
f 217/217 218/218 219/219
f 218/218 220/220 219/219
f 221/221 212/212 210/210
f 221/221 210/210 222/222
f 210/210 213/213 222/222
f 222/222 213/213 223/223
f 213/213 215/215 223/223
f 223/223 215/215 224/224
f 225/225 212/212 221/221
f 225/225 218/218 212/212
f 226/226 220/220 218/218
f 226/226 218/218 225/225
f 227/227 228/228 229/229
f 229/229 228/228 230/230
f 229/229 230/230 231/231
f 228/228 232/232 230/230
f 230/230 232/232 233/233
f 230/230 233/233 234/234
f 235/235 228/228 227/227
f 233/233 232/232 236/236
f 236/236 232/232 228/228
f 236/236 228/228 235/235
f 237/237 233/233 236/236
f 238/238 236/236 235/235
f 239/239 240/240 241/241
f 242/242 243/243 244/244
f 245/245 246/246 247/247
f 245/245 248/248 246/246
f 249/249 245/245 247/247
f 249/249 250/250 245/245
f 250/250 251/251 245/245
f 251/251 248/248 245/245
f 252/252 248/248 251/251
f 247/247 252/252 249/249
f 253/253 248/248 252/252
f 247/247 253/253 252/252
f 252/252 254/254 249/249
f 252/252 251/251 254/254
f 255/255 256/256 257/257
f 255/255 258/258 256/256
f 258/258 259/259 256/256
f 259/259 260/260 256/256
f 261/261 262/262 263/263
f 264/264 261/261 263/263
f 265/265 264/264 263/263
f 265/265 263/263 266/266
f 267/267 268/268 269/269
f 270/270 268/268 267/267
f 269/269 268/268 271/271
f 272/272 267/267 269/269
f 272/272 269/269 273/273
f 274/274 272/272 273/273
f 275/275 276/276 277/277
f 278/278 275/275 277/277
f 277/277 276/276 279/279
f 275/275 280/280 276/276
f 280/280 281/281 276/276
f 280/280 282/282 281/281
f 283/283 284/284 285/285
f 285/285 284/284 286/286
f 287/287 284/284 283/283
f 283/283 285/285 288/288
f 289/289 283/283 288/288
f 289/289 288/288 290/290
f 291/291 292/292 293/293
f 291/291 293/293 294/294
f 295/295 292/292 291/291
f 292/292 296/296 293/293
f 292/292 297/297 296/296
f 297/297 298/298 296/296
f 299/299 300/300 301/301
f 301/301 300/300 302/302
f 300/300 303/303 302/302
f 302/302 303/303 304/304
f 305/305 301/301 302/302
f 306/306 301/301 305/305
f 305/305 302/302 307/307
f 307/307 302/302 308/308
f 304/304 309/309 302/302
f 308/308 302/302 310/310
f 311/311 312/312 313/313
f 314/314 312/312 311/311
f 314/314 315/315 312/312
f 316/316 315/315 314/314
f 314/314 311/311 317/317
f 317/317 311/311 318/318
f 319/319 314/314 317/317
f 320/320 314/314 319/319
f 314/314 321/321 316/316
f 322/322 314/314 320/320
f 323/323 324/324 325/325
f 326/326 323/323 325/325
f 325/325 327/327 326/326
f 325/325 324/324 327/327
f 328/328 329/329 330/330
f 330/330 331/331 328/328
f 328/328 332/332 329/329
f 331/331 332/332 328/328
f 333/333 334/334 335/335
f 333/333 336/336 334/334
f 333/333 337/337 336/336
f 338/338 337/337 333/333
f 338/338 333/333 335/335
f 335/335 339/339 338/338
f 340/340 339/339 335/335
f 340/340 341/341 339/339
f 341/341 342/342 339/339
f 339/339 342/342 338/338
f 334/334 336/336 343/343
f 336/336 337/337 343/343
f 344/344 334/334 343/343
f 344/344 345/345 340/340
f 345/345 341/341 340/340
f 345/345 342/342 341/341
f 346/346 342/342 345/345
f 343/343 337/337 346/346
f 344/344 343/343 346/346
f 346/346 345/345 344/344
f 347/347 348/348 349/349
f 349/349 348/348 350/350
f 348/348 351/351 350/350
f 351/351 352/352 350/350
f 351/351 353/353 352/352
f 354/354 353/353 351/351
f 355/355 353/353 354/354
f 355/355 354/354 356/356
f 357/357 358/358 359/359
f 359/359 358/358 360/360
f 359/359 360/360 361/361
f 361/361 360/360 362/362
f 361/361 362/362 363/363
f 364/364 361/361 363/363
f 363/363 365/365 364/364
f 364/364 365/365 366/366
f 367/367 368/368 369/369
f 367/367 370/370 368/368
f 367/367 369/369 371/371
f 371/371 369/369 372/372
f 372/372 369/369 373/373
f 373/373 369/369 374/374
f 374/374 369/369 375/375
f 373/373 374/374 376/376
f 376/376 377/377 373/373
f 373/373 377/377 378/378
f 373/373 378/378 379/379
f 379/379 380/380 373/373
f 380/380 381/381 373/373
f 373/373 381/381 382/382
f 382/382 372/372 373/373
f 375/375 369/369 383/383
f 383/383 369/369 384/384
f 383/383 384/384 385/385
f 385/385 384/384 386/386
f 386/386 384/384 387/387
f 387/387 384/384 388/388
f 384/384 389/389 388/388
f 384/384 390/390 389/389
f 391/391 390/390 384/384
f 392/392 391/391 384/384
f 369/369 392/392 384/384
f 369/369 393/393 392/392
f 369/369 394/394 393/393
f 369/369 395/395 394/394
f 396/396 395/395 369/369
f 397/397 396/396 369/369
f 394/394 395/395 398/398
f 398/398 395/395 399/399
f 399/399 395/395 400/400
f 395/395 401/401 400/400
f 402/402 401/401 395/395
f 402/402 395/395 403/403
f 403/403 395/395 404/404
f 404/404 395/395 396/396
f 405/405 397/397 369/369
f 368/368 405/405 369/369
f 370/370 405/405 368/368
f 406/406 407/407 408/408
f 407/407 409/409 408/408
f 410/410 406/406 408/408
f 411/411 406/406 410/410
f 410/410 412/412 411/411
f 413/413 412/412 410/410
f 413/413 414/414 412/412
f 413/413 415/415 414/414
f 414/414 415/415 416/416
f 414/414 416/416 417/417
f 416/416 418/418 417/417
f 417/417 418/418 419/419
f 420/420 409/409 407/407
f 421/421 420/420 407/407
f 421/421 422/422 420/420
f 421/421 423/423 422/422
f 418/418 424/424 419/419
f 425/425 424/424 418/418
f 423/423 426/426 422/422
f 422/422 426/426 427/427
f 427/427 426/426 428/428
f 426/426 429/429 428/428
f 428/428 429/429 430/430
f 431/431 428/428 430/430
f 431/431 430/430 432/432
f 433/433 431/431 432/432
f 432/432 434/434 433/433
f 432/432 435/435 434/434
f 435/435 436/436 434/434
f 435/435 437/437 436/436
f 437/437 438/438 436/436
f 438/438 439/439 436/436
f 438/438 440/440 439/439
f 440/440 441/441 439/439
f 442/442 441/441 440/440
f 442/442 440/440 443/443
f 444/444 442/442 443/443
f 444/444 443/443 445/445
f 446/446 444/444 445/445
f 446/446 447/447 444/444
f 446/446 448/448 447/447
f 446/446 449/449 448/448
f 449/449 450/450 448/448
f 448/448 450/450 451/451
f 451/451 450/450 452/452
f 451/451 452/452 453/453
f 452/452 454/454 453/453
f 455/455 454/454 452/452
f 455/455 456/456 454/454
f 457/457 456/456 455/455
f 458/458 456/456 457/457
f 459/459 456/456 458/458
f 460/460 459/459 458/458
f 461/461 459/459 460/460
f 461/461 460/460 462/462
f 460/460 463/463 462/462
f 462/462 463/463 464/464
f 464/464 463/463 465/465
f 466/466 464/464 465/465
f 467/467 464/464 466/466
f 468/468 467/467 466/466
f 469/469 468/468 466/466
f 470/470 468/468 469/469
f 471/471 468/468 470/470
f 472/472 471/471 470/470
f 472/472 470/470 473/473
f 472/472 473/473 424/424
f 472/472 424/424 425/425
f 474/474 475/475 476/476
f 475/475 477/477 476/476
f 478/478 474/474 476/476
f 479/479 474/474 478/478
f 480/480 474/474 479/479
f 481/481 474/474 480/480
f 482/482 474/474 481/481
f 483/483 481/481 480/480
f 480/480 484/484 483/483
f 485/485 484/484 480/480
f 486/486 485/485 480/480
f 480/480 487/487 486/486
f 480/480 488/488 487/487
f 489/489 488/488 480/480
f 480/480 479/479 489/489
f 490/490 474/474 482/482
f 491/491 474/474 490/490
f 492/492 491/491 490/490
f 493/493 491/491 492/492
f 494/494 491/491 493/493
f 495/495 491/491 494/494
f 495/495 496/496 491/491
f 496/496 497/497 491/491
f 491/491 498/498 474/474
f 498/498 499/499 474/474
f 499/499 500/500 474/474
f 500/500 501/501 474/474
f 474/474 501/501 502/502
f 474/474 502/502 503/503
f 504/504 501/501 500/500
f 505/505 501/501 504/504
f 506/506 501/501 505/505
f 506/506 507/507 501/501
f 501/501 507/507 508/508
f 509/509 501/501 508/508
f 510/510 501/501 509/509
f 502/502 501/501 510/510
f 474/474 503/503 511/511
f 474/474 511/511 475/475
f 475/475 511/511 477/477
f 512/512 513/513 514/514
f 512/512 515/515 513/513
f 512/512 514/514 516/516
f 516/516 514/514 517/517
f 517/517 518/518 516/516
f 516/516 518/518 519/519
f 518/518 520/520 519/519
f 520/520 521/521 519/519
f 522/522 521/521 520/520
f 523/523 522/522 520/520
f 523/523 524/524 522/522
f 525/525 524/524 523/523
f 513/513 515/515 526/526
f 513/513 526/526 527/527
f 526/526 528/528 527/527
f 528/528 529/529 527/527
f 525/525 530/530 524/524
f 524/524 530/530 531/531
f 528/528 532/532 529/529
f 533/533 532/532 528/528
f 534/534 532/532 533/533
f 534/534 535/535 532/532
f 536/536 535/535 534/534
f 536/536 534/534 537/537
f 538/538 536/536 537/537
f 538/538 537/537 539/539
f 539/539 540/540 538/538
f 540/540 541/541 538/538
f 540/540 542/542 541/541
f 542/542 543/543 541/541
f 542/542 544/544 543/543
f 542/542 545/545 544/544
f 545/545 546/546 544/544
f 545/545 547/547 546/546
f 546/546 547/547 548/548
f 549/549 546/546 548/548
f 549/549 548/548 550/550
f 551/551 549/549 550/550
f 551/551 550/550 552/552
f 550/550 553/553 552/552
f 553/553 554/554 552/552
f 554/554 555/555 552/552
f 554/554 556/556 555/555
f 557/557 556/556 554/554
f 558/558 556/556 557/557
f 559/559 558/558 557/557
f 559/559 560/560 558/558
f 558/558 560/560 561/561
f 560/560 562/562 561/561
f 561/561 562/562 563/563
f 563/563 562/562 564/564
f 564/564 562/562 565/565
f 564/564 565/565 566/566
f 566/566 565/565 567/567
f 568/568 566/566 567/567
f 568/568 569/569 566/566
f 570/570 569/569 568/568
f 571/571 569/569 570/570
f 571/571 570/570 572/572
f 572/572 570/570 573/573
f 572/572 573/573 574/574
f 572/572 574/574 575/575
f 575/575 574/574 576/576
f 576/576 574/574 577/577
f 576/576 577/577 578/578
f 579/579 576/576 578/578
f 530/530 579/579 578/578
f 531/531 530/530 578/578
f 491/491 497/497 580/580
f 491/491 580/580 498/498
f 581/581 582/582 583/583
f 581/581 584/584 582/582
f 584/584 585/585 582/582
f 582/582 585/585 586/586
f 586/586 585/585 587/587
f 587/587 585/585 588/588
f 588/588 589/589 587/587
f 588/588 590/590 589/589
f 590/590 591/591 589/589
f 589/589 591/591 592/592
f 591/591 593/593 592/592
f 591/591 594/594 593/593
f 593/593 594/594 595/595
f 596/596 593/593 595/595
f 596/596 595/595 597/597
f 598/598 596/596 597/597
f 597/597 599/599 598/598
f 598/598 599/599 600/600
f 599/599 601/601 600/600
f 599/599 602/602 601/601
f 602/602 603/603 601/601
f 601/601 603/603 604/604
f 603/603 605/605 604/604
f 603/603 606/606 605/605
f 605/605 606/606 607/607
f 607/607 606/606 608/608
f 607/607 608/608 609/609
f 609/609 608/608 610/610
f 610/610 611/611 609/609
f 609/609 611/611 612/612
f 611/611 613/613 612/612
f 611/611 614/614 613/613
f 614/614 615/615 613/613
f 613/613 615/615 616/616
f 616/616 615/615 617/617
f 618/618 616/616 617/617
f 617/617 619/619 618/618
f 617/617 620/620 619/619
f 620/620 621/621 619/619
f 619/619 621/621 622/622
f 622/622 621/621 623/623
f 624/624 622/622 623/623
f 624/624 623/623 625/625
f 625/625 623/623 626/626
f 627/627 628/628 629/629
f 630/630 627/627 629/629
f 630/630 629/629 583/583
f 583/583 629/629 581/581
f 631/631 632/632 633/633
f 634/634 631/631 633/633
f 634/634 635/635 631/631
f 636/636 634/634 633/633
f 636/636 633/633 637/637
f 638/638 634/634 636/636
f 639/639 640/640 641/641
f 639/639 641/641 642/642
f 641/641 643/643 642/642
f 639/639 642/642 644/644
f 645/645 639/639 644/644
f 644/644 642/642 646/646
f 647/647 648/648 649/649
f 648/648 650/650 649/649
f 649/649 650/650 651/651
f 649/649 651/651 652/652
f 653/653 650/650 648/648
f 651/651 650/650 654/654
f 650/650 655/655 656/656
f 656/656 655/655 657/657
f 658/658 655/655 650/650
f 659/659 655/655 658/658
f 660/660 658/658 650/650
f 650/650 656/656 661/661
f 662/662 663/663 664/664
f 662/662 665/665 663/663
f 665/665 666/666 663/663
f 666/666 667/667 663/663
f 668/668 669/669 670/670
f 668/668 671/671 669/669
f 672/672 671/671 668/668
f 673/673 672/672 668/668
f 669/669 671/671 674/674
f 675/675 671/671 672/672
f 676/676 677/677 671/671
f 678/678 677/677 676/676
f 671/671 677/677 679/679
f 679/679 677/677 680/680
f 671/671 679/679 681/681
f 682/682 676/676 671/671
f 683/683 684/684 685/685
f 684/684 686/686 685/685
f 684/684 687/687 686/686
f 684/684 688/688 687/687
f 689/689 690/690 691/691
f 692/692 690/690 689/689
f 693/693 692/692 689/689
f 692/692 694/694 690/690
f 692/692 693/693 694/694
f 695/695 694/694 693/693
f 696/696 693/693 689/689
f 697/697 693/693 696/696
f 695/695 693/693 697/697
f 697/697 698/698 695/695
f 698/698 699/699 695/695
f 699/699 700/700 695/695
f 695/695 700/700 694/694
f 700/700 701/701 694/694
f 701/701 700/700 702/702
f 703/703 702/702 700/700
f 703/703 700/700 699/699
f 701/701 702/702 704/704
f 701/701 704/704 694/694
f 704/704 705/705 694/694
f 705/705 690/690 694/694
f 705/705 704/704 706/706
f 705/705 706/706 707/707
f 708/708 705/705 707/707
f 706/706 704/704 709/709
f 709/709 704/704 702/702
f 708/708 690/690 705/705
f 691/691 690/690 708/708
f 710/710 711/711 712/712
f 713/713 711/711 710/710
f 714/714 711/711 713/713
f 715/715 714/714 713/713
f 715/715 716/716 714/714
f 716/716 717/717 714/714
f 718/718 714/714 717/717
f 718/718 711/711 714/714
f 711/711 718/718 719/719
f 712/712 711/711 719/719
f 712/712 719/719 720/720
f 718/718 720/720 719/719
f 720/720 718/718 721/721
f 712/712 720/720 722/722
f 722/722 720/720 723/723
f 723/723 720/720 721/721
f 721/721 724/724 723/723
f 721/721 725/725 724/724
f 718/718 726/726 721/721
f 721/721 726/726 725/725
f 718/718 727/727 726/726
f 718/718 717/717 727/727
f 725/725 726/726 728/728
f 726/726 729/729 728/728
f 729/729 726/726 727/727
f 717/717 729/729 727/727
f 729/729 717/717 730/730
f 730/730 717/717 716/716
usemtl m1
f 731/731 732/732 733/733
f 731/731 733/733 734/734
f 735/735 732/732 731/731
f 734/734 735/735 731/731
f 732/732 736/736 733/733
f 733/733 736/736 734/734
f 735/735 736/736 732/732
f 734/734 736/736 735/735
f 737/737 738/738 739/739
f 738/738 740/740 739/739
f 737/737 741/741 738/738
f 738/738 741/741 740/740
f 742/742 743/743 744/744
f 745/745 743/743 742/742
f 746/746 742/742 744/744
f 746/746 745/745 742/742
