mtllib arms1149.mtl
o arms1149
v 0.00000 0.00000 3.60000 1.000 1.000 1.000
v 1.62000 0.00000 3.60000 1.000 1.000 1.000
v 0.57739 -0.03118 3.70415 0.000 0.812 0.000
v 0.57739 0.03118 3.70415 0.000 0.812 0.000
v 0.45682 0.04612 3.62738 0.000 0.812 0.000
v 0.45682 -0.04612 3.62738 0.000 0.812 0.000
v 0.39912 0.03245 3.67864 0.000 0.808 0.000
v 0.39912 -0.03245 3.67864 0.000 0.808 0.000
v 0.35780 0.03643 3.66019 0.000 0.812 0.000
v 0.35780 -0.03643 3.66019 0.000 0.812 0.000
v 0.41948 -0.05564 3.60000 0.000 0.812 0.000
v 0.41948 0.05564 3.60000 0.000 0.812 0.000
v 0.58564 -0.03992 3.66849 0.000 0.769 0.000
v 0.58564 0.03992 3.66849 0.000 0.769 0.000
v 0.81619 -0.03424 3.63364 0.000 0.800 0.000
v 0.81619 0.03424 3.63364 0.000 0.800 0.000
v 0.49207 -0.05564 3.60000 0.000 0.757 0.000
v 0.49207 0.05564 3.60000 0.000 0.757 0.000
v 0.84420 -0.04090 3.60000 0.000 0.812 0.000
v 0.84420 0.04090 3.60000 0.000 0.812 0.000
v 0.69605 0.03978 3.64036 0.000 0.784 0.000
v 0.69605 -0.03978 3.64036 0.000 0.784 0.000
v 0.37013 0.00000 3.71525 0.000 0.796 0.000
v 0.33952 0.00000 3.69158 0.000 0.812 0.000
v 0.55191 -0.03118 3.68717 0.000 0.804 0.000
v 0.55191 0.03118 3.68717 0.000 0.804 0.000
v 0.46283 0.03118 3.74380 0.000 0.784 0.000
v 0.46283 -0.03118 3.74380 0.000 0.784 0.000
v 0.39846 0.02857 3.67852 0.000 0.757 0.000
v 0.39846 -0.02857 3.67852 0.000 0.757 0.000
v 0.43114 -0.03042 3.69716 0.000 0.769 0.000
v 0.43114 0.03042 3.69716 0.000 0.769 0.000
v 0.49983 0.03118 3.70289 0.000 0.796 0.000
v 0.49983 -0.03118 3.70289 0.000 0.796 0.000
v 0.57739 -0.03118 3.49585 0.000 0.812 0.000
v 0.57739 0.03118 3.49585 0.000 0.812 0.000
v 0.45682 0.04612 3.57262 0.000 0.812 0.000
v 0.45682 -0.04612 3.57262 0.000 0.812 0.000
v 0.39912 0.03245 3.52136 0.000 0.808 0.000
v 0.39912 -0.03245 3.52136 0.000 0.808 0.000
v 0.35780 0.03643 3.53981 0.000 0.812 0.000
v 0.35780 -0.03643 3.53981 0.000 0.812 0.000
v 0.58564 -0.03992 3.53151 0.000 0.769 0.000
v 0.58564 0.03992 3.53151 0.000 0.769 0.000
v 0.81619 -0.03424 3.56636 0.000 0.800 0.000
v 0.81619 0.03424 3.56636 0.000 0.800 0.000
v 0.69605 0.03978 3.55964 0.000 0.784 0.000
v 0.69605 -0.03978 3.55964 0.000 0.784 0.000
v 0.37013 0.00000 3.48475 0.000 0.796 0.000
v 0.33952 0.00000 3.50842 0.000 0.812 0.000
v 0.55191 -0.03118 3.51283 0.000 0.804 0.000
v 0.55191 0.03118 3.51283 0.000 0.804 0.000
v 0.46283 0.03118 3.45620 0.000 0.784 0.000
v 0.46283 -0.03118 3.45620 0.000 0.784 0.000
v 0.39846 0.02857 3.52148 0.000 0.757 0.000
v 0.39846 -0.02857 3.52148 0.000 0.757 0.000
v 0.43114 -0.03042 3.50284 0.000 0.769 0.000
v 0.43114 0.03042 3.50284 0.000 0.769 0.000
v 0.49983 0.03118 3.49711 0.000 0.796 0.000
v 0.49983 -0.03118 3.49711 0.000 0.796 0.000
v 0.31037 -0.04642 3.60000 0.000 0.616 0.000
v 0.28697 -0.06514 3.60000 0.000 0.616 0.000
v 0.31036 -0.02140 3.66707 0.000 0.843 0.000
v 0.36717 -0.05279 3.60000 0.000 0.584 0.000
v 0.34722 0.00000 3.67682 0.000 0.773 0.000
v 0.36717 -0.03404 3.65387 0.000 0.761 0.000
v 0.22475 -0.01579 3.65497 0.000 0.769 0.000
v 0.16998 0.00000 3.64277 0.000 0.804 0.000
v 0.16998 -0.04201 3.60000 0.000 0.686 0.000
v 0.24320 -0.06516 3.60000 0.000 0.624 0.000
v 0.27329 -0.02635 3.68278 0.000 0.761 0.000
v 0.21149 0.00000 3.65672 0.000 0.761 0.000
v -0.47452 -0.04259 3.60000 0.000 0.000 0.000
v -0.22320 -0.03425 3.60000 0.000 0.000 0.000
v -0.47452 0.00000 3.64259 0.000 0.000 0.000
v -0.22320 0.00000 3.63425 0.000 0.000 0.000
v 0.12173 -0.04176 3.60000 0.000 0.000 0.000
v 0.12173 0.00000 3.64176 0.000 0.000 0.000
v 0.36717 -0.04921 3.60000 0.000 0.608 0.000
v 0.83365 -0.03118 3.65497 0.000 0.635 0.000
v 0.70565 -0.03118 3.66721 0.000 0.749 0.000
v 0.87568 0.00000 3.68752 0.000 0.655 0.000
v 0.82657 0.00000 3.68487 0.000 0.682 0.000
v 0.50125 0.00000 3.75388 0.000 0.722 0.000
v 0.47704 0.00000 3.82270 0.000 0.659 0.000
v 0.53495 0.00000 3.73028 0.000 0.780 0.000
v 0.60983 0.00000 3.76220 0.000 0.667 0.000
v 0.63931 0.00000 3.72377 0.000 0.753 0.000
v 0.74080 0.00000 3.68896 0.000 0.780 0.000
v 0.62680 -0.03118 3.68651 0.000 0.729 0.000
v 0.58234 0.00000 3.73064 0.000 0.753 0.000
v 0.75715 -0.01678 3.60000 0.000 0.812 0.000
v 0.89207 -0.03478 3.60000 0.000 0.773 0.000
v 0.75715 0.00000 3.60000 0.000 0.812 0.000
v 0.80606 0.00000 3.66356 0.000 0.812 0.000
v 0.45682 -0.03802 3.62738 0.000 0.000 0.702
v 0.46283 -0.02578 3.74380 0.000 0.000 0.663
v 0.55191 -0.02578 3.68717 0.000 0.000 0.663
v 0.39846 -0.02317 3.67852 0.000 0.000 0.663
v 0.43114 -0.02502 3.69716 0.000 0.000 0.663
v 0.49983 -0.02578 3.70289 0.000 0.000 0.663
v 0.41948 -0.04484 3.60000 0.000 0.000 0.702
v 0.81619 -0.02704 3.63364 0.000 0.000 0.647
v 0.69605 -0.03078 3.64036 0.000 0.000 0.663
v 0.58564 -0.02912 3.66849 0.000 0.000 0.663
v 0.49207 -0.04304 3.60000 0.000 0.000 0.702
v 0.84420 -0.03370 3.60000 0.000 0.000 0.702
v 0.69418 -0.03672 3.60000 0.000 0.000 0.702
v 0.79522 -0.03118 3.62912 0.000 0.000 0.780
v 0.92129 -0.02995 3.65938 0.000 0.000 0.702
v 1.06120 -0.03208 3.63467 0.000 0.000 0.682
v 1.51629 -0.02947 3.62232 0.000 0.000 0.600
v 1.81243 -0.02754 3.62720 0.000 0.000 0.671
v 2.10798 -0.02551 3.62718 0.000 0.000 0.647
v 2.19414 -0.02498 3.61598 0.000 0.000 0.627
v 0.96965 -0.03101 3.63983 0.000 0.000 0.686
v 0.87767 -0.03478 3.60000 0.000 0.000 0.714
v 1.51629 -0.02929 3.60000 0.000 0.000 0.604
v 1.81243 -0.02981 3.60000 0.000 0.000 0.686
v 2.29256 -0.02444 3.60000 0.000 0.000 0.600
v 2.10798 -0.03029 3.60000 0.000 0.000 0.667
v 0.38094 0.00000 3.70085 0.000 0.714 0.000
v 0.41610 0.00000 3.73324 0.000 0.765 0.000
v 0.31037 0.04642 3.60000 0.000 0.616 0.000
v 0.28697 0.06514 3.60000 0.000 0.616 0.000
v 0.31036 0.02140 3.66707 0.000 0.843 0.000
v 0.36717 0.05279 3.60000 0.000 0.584 0.000
v 0.36717 0.03404 3.65387 0.000 0.761 0.000
v 0.22475 0.01579 3.65497 0.000 0.769 0.000
v 0.16998 0.04201 3.60000 0.000 0.686 0.000
v 0.24320 0.06516 3.60000 0.000 0.624 0.000
v 0.27329 0.02635 3.68278 0.000 0.761 0.000
v -0.47452 0.04259 3.60000 0.000 0.000 0.000
v -0.22320 0.03425 3.60000 0.000 0.000 0.000
v 0.12173 0.04176 3.60000 0.000 0.000 0.000
v 0.36717 0.04921 3.60000 0.000 0.608 0.000
v 0.83365 0.03118 3.65497 0.000 0.635 0.000
v 0.70565 0.03118 3.66721 0.000 0.749 0.000
v 0.62680 0.03118 3.68651 0.000 0.729 0.000
v 0.75715 0.01678 3.60000 0.000 0.812 0.000
v 0.89207 0.03478 3.60000 0.000 0.773 0.000
v 0.45682 0.03802 3.62738 0.000 0.000 0.702
v 0.46283 0.02578 3.74380 0.000 0.000 0.663
v 0.55191 0.02578 3.68717 0.000 0.000 0.663
v 0.39846 0.02317 3.67852 0.000 0.000 0.663
v 0.43114 0.02502 3.69716 0.000 0.000 0.663
v 0.49983 0.02578 3.70289 0.000 0.000 0.663
v 0.41948 0.04484 3.60000 0.000 0.000 0.702
v 0.81619 0.02704 3.63364 0.000 0.000 0.647
v 0.69605 0.03078 3.64036 0.000 0.000 0.663
v 0.58564 0.02912 3.66849 0.000 0.000 0.663
v 0.49207 0.04304 3.60000 0.000 0.000 0.702
v 0.84420 0.03370 3.60000 0.000 0.000 0.702
v 0.69418 0.03672 3.60000 0.000 0.000 0.702
v 0.79522 0.03118 3.62912 0.000 0.000 0.780
v 0.92129 0.02995 3.65938 0.000 0.000 0.702
v 1.06120 0.03208 3.63467 0.000 0.000 0.682
v 1.51629 0.02947 3.62232 0.000 0.000 0.600
v 1.81243 0.02754 3.62720 0.000 0.000 0.671
v 2.10798 0.02551 3.62718 0.000 0.000 0.647
v 2.19414 0.02498 3.61598 0.000 0.000 0.627
v 0.96965 0.03101 3.63983 0.000 0.000 0.686
v 0.87767 0.03478 3.60000 0.000 0.000 0.714
v 1.51629 0.02929 3.60000 0.000 0.000 0.604
v 1.81243 0.02981 3.60000 0.000 0.000 0.686
v 2.29256 0.02444 3.60000 0.000 0.000 0.600
v 2.10798 0.03029 3.60000 0.000 0.000 0.667
v 0.31036 -0.02140 3.53293 0.000 0.843 0.000
v 0.34722 0.00000 3.52318 0.000 0.773 0.000
v 0.36717 -0.03404 3.54613 0.000 0.761 0.000
v 0.22475 -0.01579 3.54503 0.000 0.769 0.000
v 0.16998 0.00000 3.55723 0.000 0.804 0.000
v 0.27329 -0.02635 3.51722 0.000 0.761 0.000
v 0.21149 0.00000 3.54328 0.000 0.761 0.000
v -0.47452 0.00000 3.55741 0.000 0.000 0.000
v -0.22320 0.00000 3.56575 0.000 0.000 0.000
v 0.12173 0.00000 3.55824 0.000 0.000 0.000
v 0.83365 -0.03118 3.54503 0.000 0.635 0.000
v 0.70565 -0.03118 3.53279 0.000 0.749 0.000
v 0.87568 0.00000 3.51248 0.000 0.655 0.000
v 0.82657 0.00000 3.51513 0.000 0.682 0.000
v 0.50125 0.00000 3.44612 0.000 0.722 0.000
v 0.47704 0.00000 3.37730 0.000 0.659 0.000
v 0.53495 0.00000 3.46972 0.000 0.780 0.000
v 0.60983 0.00000 3.43780 0.000 0.667 0.000
v 0.63931 0.00000 3.47623 0.000 0.753 0.000
v 0.74080 0.00000 3.51104 0.000 0.780 0.000
v 0.62680 -0.03118 3.51349 0.000 0.729 0.000
v 0.58234 0.00000 3.46936 0.000 0.753 0.000
v 0.80606 0.00000 3.53644 0.000 0.812 0.000
v 0.45682 -0.03802 3.57262 0.000 0.000 0.702
v 0.46283 -0.02578 3.45620 0.000 0.000 0.663
v 0.55191 -0.02578 3.51283 0.000 0.000 0.663
v 0.39846 -0.02317 3.52148 0.000 0.000 0.663
v 0.43114 -0.02502 3.50284 0.000 0.000 0.663
v 0.49983 -0.02578 3.49711 0.000 0.000 0.663
v 0.81619 -0.02704 3.56636 0.000 0.000 0.647
v 0.69605 -0.03078 3.55964 0.000 0.000 0.663
v 0.58564 -0.02912 3.53151 0.000 0.000 0.663
v 0.79522 -0.03118 3.57088 0.000 0.000 0.780
v 0.92129 -0.02995 3.54062 0.000 0.000 0.702
v 1.06120 -0.03208 3.56533 0.000 0.000 0.682
v 1.51629 -0.02947 3.57768 0.000 0.000 0.600
v 1.81243 -0.02754 3.57280 0.000 0.000 0.671
v 2.10798 -0.02551 3.57282 0.000 0.000 0.647
v 2.19414 -0.02498 3.58402 0.000 0.000 0.627
v 0.96965 -0.03101 3.56017 0.000 0.000 0.686
v 0.38094 0.00000 3.49915 0.000 0.714 0.000
v 0.41610 0.00000 3.46676 0.000 0.765 0.000
v 0.31036 0.02140 3.53293 0.000 0.843 0.000
v 0.36717 0.03404 3.54613 0.000 0.761 0.000
v 0.22475 0.01579 3.54503 0.000 0.769 0.000
v 0.27329 0.02635 3.51722 0.000 0.761 0.000
v 0.83365 0.03118 3.54503 0.000 0.635 0.000
v 0.70565 0.03118 3.53279 0.000 0.749 0.000
v 0.62680 0.03118 3.51349 0.000 0.729 0.000
v 0.45682 0.03802 3.57262 0.000 0.000 0.702
v 0.46283 0.02578 3.45620 0.000 0.000 0.663
v 0.55191 0.02578 3.51283 0.000 0.000 0.663
v 0.39846 0.02317 3.52148 0.000 0.000 0.663
v 0.43114 0.02502 3.50284 0.000 0.000 0.663
v 0.49983 0.02578 3.49711 0.000 0.000 0.663
v 0.81619 0.02704 3.56636 0.000 0.000 0.647
v 0.69605 0.03078 3.55964 0.000 0.000 0.663
v 0.58564 0.02912 3.53151 0.000 0.000 0.663
v 0.79522 0.03118 3.57088 0.000 0.000 0.780
v 0.92129 0.02995 3.54062 0.000 0.000 0.702
v 1.06120 0.03208 3.56533 0.000 0.000 0.682
v 1.51629 0.02947 3.57768 0.000 0.000 0.600
v 1.81243 0.02754 3.57280 0.000 0.000 0.671
v 2.10798 0.02551 3.57282 0.000 0.000 0.647
v 2.19414 0.02498 3.58402 0.000 0.000 0.627
v 0.96965 0.03101 3.56017 0.000 0.000 0.686
v 0.92129 0.00000 3.69977 0.643 0.000 0.000
v 0.87927 0.00000 3.66894 0.698 0.000 0.000
v 0.79314 0.00000 3.64991 0.714 0.000 0.000
v 1.81402 0.00000 3.65278 0.647 0.000 0.000
v 2.10798 0.00000 3.65553 0.608 0.000 0.000
v 1.51673 0.00000 3.64311 0.573 0.000 0.000
v 1.06120 0.00000 3.65920 0.663 0.000 0.000
v 2.41882 0.00000 3.60000 0.537 0.000 0.000
v 2.24682 0.00000 3.64428 0.580 0.000 0.000
v 0.98622 0.00000 3.66602 0.592 0.000 0.000
v 0.27329 0.00000 3.75557 0.573 0.000 0.000
v 0.18447 0.00000 3.67974 0.659 0.000 0.000
v 0.21268 0.00000 3.71947 0.639 0.000 0.000
v 0.17427 0.00000 3.71939 0.584 0.000 0.000
v 0.22941 -0.01559 3.68197 0.675 0.000 0.000
v 0.21422 0.00000 3.67279 0.690 0.000 0.000
v 0.29676 0.00000 3.71351 0.624 0.000 0.000
v 0.22941 0.01559 3.68197 0.675 0.000 0.000
v 0.92129 0.00000 3.50023 0.643 0.000 0.000
v 0.87927 0.00000 3.53106 0.698 0.000 0.000
v 0.79314 0.00000 3.55009 0.714 0.000 0.000
v 1.81402 0.00000 3.54722 0.647 0.000 0.000
v 2.10798 0.00000 3.54447 0.608 0.000 0.000
v 1.51673 0.00000 3.55689 0.573 0.000 0.000
v 1.06120 0.00000 3.54080 0.663 0.000 0.000
v 2.24682 0.00000 3.55572 0.580 0.000 0.000
v 0.98622 0.00000 3.53398 0.592 0.000 0.000
v 0.27329 0.00000 3.44443 0.573 0.000 0.000
v 0.18447 0.00000 3.52026 0.659 0.000 0.000
v 0.21268 0.00000 3.48053 0.639 0.000 0.000
v 0.17427 0.00000 3.48061 0.584 0.000 0.000
v 0.22941 -0.01559 3.51803 0.675 0.000 0.000
v 0.21422 0.00000 3.52721 0.690 0.000 0.000
v 0.29676 0.00000 3.48649 0.624 0.000 0.000
v 0.22941 0.01559 3.51803 0.675 0.000 0.000
v -0.49613 0.00000 3.64343 0.000 0.859 0.000
v -0.49612 0.04343 3.60000 0.000 0.741 0.000
v -0.49613 -0.04343 3.60000 0.000 0.761 0.000
v -0.49613 0.00000 3.55657 0.000 0.859 0.000
v -0.53779 -0.01850 3.62932 0.000 0.686 0.000
v -0.49612 -0.01670 3.61679 0.000 0.776 0.000
v -0.49613 0.00000 3.63359 0.000 0.757 0.000
v -0.52021 0.00000 3.65879 0.000 0.647 0.000
v -0.55070 0.00000 3.63978 0.000 0.686 0.000
v -0.59127 -0.01991 3.60000 0.000 0.651 0.000
v -0.49612 -0.03006 3.60000 0.000 0.749 0.000
v -0.54901 -0.04115 3.60000 0.000 0.620 0.000
v -0.64844 0.00000 3.60000 0.000 0.655 0.000
v -0.51245 0.00000 3.64349 0.000 0.671 0.000
v -0.51179 -0.01760 3.62155 0.000 0.706 0.000
v 0.14961 0.00000 3.65899 0.000 0.655 0.000
v 0.14961 -0.04901 3.60000 0.000 0.553 0.000
v -0.53779 0.01850 3.62932 0.000 0.686 0.000
v -0.49613 0.01670 3.61679 0.000 0.776 0.000
v -0.59127 0.01991 3.60000 0.000 0.651 0.000
v -0.49613 0.03006 3.60000 0.000 0.749 0.000
v -0.54901 0.04115 3.60000 0.000 0.620 0.000
v -0.51179 0.01760 3.62155 0.000 0.706 0.000
v 0.14961 0.04901 3.60000 0.000 0.553 0.000
v -0.49613 0.04343 3.60000 0.000 0.576 0.000
v -0.53779 -0.01850 3.57068 0.000 0.686 0.000
v -0.49612 -0.01670 3.58321 0.000 0.776 0.000
v -0.49613 0.00000 3.56641 0.000 0.757 0.000
v -0.52021 0.00000 3.54121 0.000 0.647 0.000
v -0.55070 0.00000 3.56022 0.000 0.686 0.000
v -0.51245 0.00000 3.55651 0.000 0.671 0.000
v -0.51179 -0.01760 3.57845 0.000 0.706 0.000
v 0.14961 0.00000 3.54101 0.000 0.655 0.000
v -0.53779 0.01850 3.57068 0.000 0.686 0.000
v -0.49613 0.01670 3.58321 0.000 0.776 0.000
v -0.51179 0.01760 3.57845 0.000 0.706 0.000
v 0.36717 -0.04739 3.60900 0.741 0.000 0.000
v 0.36717 -0.04979 3.60000 0.741 0.000 0.000
v 0.83671 -0.03906 3.60900 0.816 0.000 0.000
v 0.84420 -0.04036 3.60000 0.812 0.000 0.000
v 0.36717 -0.04590 3.61800 0.741 0.000 0.000
v 0.36717 -0.04068 3.63407 0.741 0.000 0.000
v 0.82922 -0.03685 3.61800 0.816 0.000 0.000
v 0.81723 -0.03332 3.63407 0.816 0.000 0.000
v 0.36717 0.04739 3.60900 0.741 0.000 0.000
v 0.36717 0.04979 3.60000 0.741 0.000 0.000
v 0.83671 0.03906 3.60900 0.816 0.000 0.000
v 0.84420 0.04036 3.60000 0.812 0.000 0.000
v 0.36717 0.04590 3.61800 0.741 0.000 0.000
v 0.36717 0.04068 3.63407 0.741 0.000 0.000
v 0.82922 0.03685 3.61800 0.816 0.000 0.000
v 0.81723 0.03332 3.63407 0.816 0.000 0.000
v 0.36717 -0.04739 3.59100 0.741 0.000 0.000
v 0.83671 -0.03906 3.59100 0.816 0.000 0.000
v 0.36717 -0.04590 3.58200 0.741 0.000 0.000
v 0.36717 -0.04068 3.56593 0.741 0.000 0.000
v 0.82922 -0.03685 3.58200 0.816 0.000 0.000
v 0.81723 -0.03332 3.56593 0.816 0.000 0.000
v 0.36717 0.04739 3.59100 0.741 0.000 0.000
v 0.83671 0.03906 3.59100 0.816 0.000 0.000
v 0.36717 0.04590 3.58200 0.741 0.000 0.000
v 0.36717 0.04068 3.56593 0.741 0.000 0.000
v 0.82922 0.03685 3.58200 0.816 0.000 0.000
v 0.81723 0.03332 3.56593 0.816 0.000 0.000
v 0.39912 -0.03245 3.67864 0.000 0.808 0.000
v 0.39912 0.03245 3.67864 0.000 0.796 0.000
v 0.35780 0.03643 3.66019 0.000 0.812 0.000
v 0.35780 -0.03643 3.66019 0.000 0.812 0.000
v 0.39912 0.03245 3.52136 0.000 0.796 0.000
v 0.39912 -0.03245 3.52136 0.000 0.808 0.000
v 0.35780 -0.03643 3.53981 0.000 0.812 0.000
v 0.35780 0.03643 3.53981 0.000 0.812 0.000
v 0.27329 -0.02635 3.68278 0.000 0.741 0.000
v 0.24320 -0.06516 3.60000 0.000 0.569 0.000
v 0.31036 -0.02140 3.66707 0.000 0.812 0.000
v 0.31037 -0.04642 3.60000 0.000 0.659 0.000
v 0.46283 -0.03118 3.74380 0.000 0.686 0.000
v 0.49983 -0.03118 3.70289 0.000 0.776 0.000
v 0.55191 -0.03118 3.68717 0.000 0.741 0.000
v 0.57739 -0.03118 3.70415 0.000 0.718 0.000
v 0.57739 -0.03118 3.70415 0.000 0.682 0.000
v 0.60983 0.00000 3.76220 0.000 0.729 0.000
v 0.87568 0.00000 3.68752 0.000 0.773 0.000
v 0.83365 -0.03118 3.65497 0.000 0.773 0.000
v 0.33952 0.00000 3.69158 0.000 0.686 0.000
v 0.35780 -0.03643 3.66019 0.000 0.741 0.000
v 0.37013 0.00000 3.71525 0.000 0.710 0.000
v 0.39912 -0.03245 3.67864 0.000 0.776 0.000
v 0.43114 -0.03042 3.69716 0.000 0.761 0.000
v 0.46283 -0.03118 3.74380 0.000 0.718 0.000
v 0.39846 -0.02857 3.67852 0.000 0.714 0.000
v 0.47704 0.00000 3.82270 0.000 0.722 0.000
v 0.36717 -0.03404 3.65387 0.000 0.800 0.000
v 0.36717 -0.05279 3.60000 0.000 0.608 0.000
v 0.41948 -0.05564 3.60000 0.000 0.588 0.000
v 0.45682 -0.04612 3.62738 0.000 0.627 0.000
v 0.62680 -0.03118 3.68651 0.000 0.729 0.000
v 0.69605 -0.03978 3.64036 0.000 0.725 0.000
v 0.70565 -0.03118 3.66721 0.000 0.737 0.000
v 0.58564 -0.03992 3.66849 0.000 0.706 0.000
v 0.57739 -0.03118 3.70415 0.000 0.706 0.000
v 0.81619 -0.03424 3.63364 0.000 0.616 0.000
v 0.84420 -0.04090 3.60000 0.000 0.580 0.000
v 0.83365 -0.03118 3.65497 0.000 0.631 0.000
v 0.49207 -0.05564 3.60000 0.000 0.608 0.000
v 0.89207 -0.03478 3.60000 0.000 0.580 0.000
v 0.36717 -0.04921 3.60000 0.000 0.000 0.702
v 0.36717 -0.03404 3.65387 0.000 0.000 0.663
v 0.31036 0.02140 3.66707 0.000 0.812 0.000
v 0.24320 0.06516 3.60000 0.000 0.569 0.000
v 0.27329 0.02635 3.68278 0.000 0.741 0.000
v 0.31037 0.04642 3.60000 0.000 0.659 0.000
v 0.46283 0.03118 3.74380 0.000 0.686 0.000
v 0.55191 0.03118 3.68717 0.000 0.741 0.000
v 0.49983 0.03118 3.70289 0.000 0.776 0.000
v 0.57739 0.03118 3.70415 0.000 0.718 0.000
v 0.57739 0.03118 3.70415 0.000 0.682 0.000
v 0.83365 0.03118 3.65497 0.000 0.773 0.000
v 0.35780 0.03643 3.66019 0.000 0.741 0.000
v 0.39912 0.03245 3.67864 0.000 0.776 0.000
v 0.46283 0.03118 3.74380 0.000 0.718 0.000
v 0.43114 0.03042 3.69716 0.000 0.761 0.000
v 0.39846 0.02857 3.67852 0.000 0.714 0.000
v 0.36717 0.05279 3.60000 0.000 0.608 0.000
v 0.36717 0.03404 3.65387 0.000 0.800 0.000
v 0.45682 0.04612 3.62738 0.000 0.627 0.000
v 0.41948 0.05564 3.60000 0.000 0.588 0.000
v 0.70565 0.03118 3.66721 0.000 0.737 0.000
v 0.69605 0.03978 3.64036 0.000 0.725 0.000
v 0.62680 0.03118 3.68651 0.000 0.729 0.000
v 0.58564 0.03992 3.66849 0.000 0.706 0.000
v 0.57739 0.03118 3.70415 0.000 0.706 0.000
v 0.83365 0.03118 3.65497 0.000 0.631 0.000
v 0.84420 0.04090 3.60000 0.000 0.580 0.000
v 0.81619 0.03424 3.63364 0.000 0.616 0.000
v 0.49207 0.05564 3.60000 0.000 0.608 0.000
v 0.89207 0.03478 3.60000 0.000 0.580 0.000
v 0.36717 0.03404 3.65387 0.000 0.000 0.663
v 0.36717 0.04921 3.60000 0.000 0.000 0.702
v 0.31036 -0.02140 3.53293 0.000 0.812 0.000
v 0.27329 -0.02635 3.51722 0.000 0.741 0.000
v 0.46283 -0.03118 3.45620 0.000 0.686 0.000
v 0.55191 -0.03118 3.51283 0.000 0.741 0.000
v 0.49983 -0.03118 3.49711 0.000 0.776 0.000
v 0.57739 -0.03118 3.49585 0.000 0.718 0.000
v 0.57739 -0.03118 3.49585 0.000 0.682 0.000
v 0.60983 0.00000 3.43780 0.000 0.729 0.000
v 0.83365 -0.03118 3.54503 0.000 0.773 0.000
v 0.87568 0.00000 3.51248 0.000 0.773 0.000
v 0.37013 0.00000 3.48475 0.000 0.710 0.000
v 0.35780 -0.03643 3.53981 0.000 0.741 0.000
v 0.33952 0.00000 3.50842 0.000 0.686 0.000
v 0.39912 -0.03245 3.52136 0.000 0.776 0.000
v 0.46283 -0.03118 3.45620 0.000 0.718 0.000
v 0.43114 -0.03042 3.50284 0.000 0.761 0.000
v 0.39846 -0.02857 3.52148 0.000 0.714 0.000
v 0.47704 0.00000 3.37730 0.000 0.722 0.000
v 0.36717 -0.03404 3.54613 0.000 0.800 0.000
v 0.45682 -0.04612 3.57262 0.000 0.627 0.000
v 0.70565 -0.03118 3.53279 0.000 0.737 0.000
v 0.69605 -0.03978 3.55964 0.000 0.725 0.000
v 0.62680 -0.03118 3.51349 0.000 0.729 0.000
v 0.58564 -0.03992 3.53151 0.000 0.706 0.000
v 0.57739 -0.03118 3.49585 0.000 0.706 0.000
v 0.83365 -0.03118 3.54503 0.000 0.631 0.000
v 0.81619 -0.03424 3.56636 0.000 0.616 0.000
v 0.36717 -0.03404 3.54613 0.000 0.000 0.663
v 0.27329 0.02635 3.51722 0.000 0.741 0.000
v 0.31036 0.02140 3.53293 0.000 0.812 0.000
v 0.46283 0.03118 3.45620 0.000 0.686 0.000
v 0.49983 0.03118 3.49711 0.000 0.776 0.000
v 0.55191 0.03118 3.51283 0.000 0.741 0.000
v 0.57739 0.03118 3.49585 0.000 0.718 0.000
v 0.57739 0.03118 3.49585 0.000 0.682 0.000
v 0.83365 0.03118 3.54503 0.000 0.773 0.000
v 0.35780 0.03643 3.53981 0.000 0.741 0.000
v 0.39912 0.03245 3.52136 0.000 0.776 0.000
v 0.43114 0.03042 3.50284 0.000 0.761 0.000
v 0.46283 0.03118 3.45620 0.000 0.718 0.000
v 0.39846 0.02857 3.52148 0.000 0.714 0.000
v 0.36717 0.03404 3.54613 0.000 0.800 0.000
v 0.45682 0.04612 3.57262 0.000 0.627 0.000
v 0.62680 0.03118 3.51349 0.000 0.729 0.000
v 0.69605 0.03978 3.55964 0.000 0.725 0.000
v 0.70565 0.03118 3.53279 0.000 0.737 0.000
v 0.58564 0.03992 3.53151 0.000 0.706 0.000
v 0.57739 0.03118 3.49585 0.000 0.706 0.000
v 0.81619 0.03424 3.56636 0.000 0.616 0.000
v 0.83365 0.03118 3.54503 0.000 0.631 0.000
v 0.36717 0.03404 3.54613 0.000 0.000 0.663
v 0.92129 -0.02995 3.65938 0.639 0.000 0.000
v 0.79522 -0.03118 3.62912 0.714 0.000 0.000
v 1.81243 -0.02754 3.62720 0.647 0.000 0.000
v 2.10798 -0.02551 3.62718 0.608 0.000 0.000
v 1.51629 -0.02947 3.62232 0.573 0.000 0.000
v 1.06120 -0.03208 3.63467 0.663 0.000 0.000
v 2.10798 0.00000 3.65553 0.588 0.000 0.000
v 2.10798 -0.02551 3.62718 0.588 0.000 0.000
v 2.29256 -0.02444 3.60000 0.576 0.000 0.000
v 2.19414 -0.02498 3.61598 0.584 0.000 0.000
v 0.92129 -0.02995 3.65938 0.565 0.000 0.000
v 0.96965 -0.03101 3.63983 0.608 0.000 0.000
v 0.92129 0.00000 3.69977 0.565 0.000 0.000
v 0.27329 -0.02635 3.68278 0.557 0.000 0.000
v 0.22475 -0.01579 3.65497 0.596 0.000 0.000
v 0.21149 0.00000 3.65672 0.671 0.000 0.000
v 0.31036 -0.02140 3.66707 0.596 0.000 0.000
v 0.34722 0.00000 3.67682 0.596 0.000 0.000
v 0.92129 0.02995 3.65938 0.639 0.000 0.000
v 0.79522 0.03118 3.62912 0.714 0.000 0.000
v 2.10798 0.02551 3.62718 0.608 0.000 0.000
v 1.81243 0.02754 3.62720 0.647 0.000 0.000
v 1.51629 0.02947 3.62232 0.573 0.000 0.000
v 1.06120 0.03208 3.63467 0.663 0.000 0.000
v 2.10798 0.02551 3.62718 0.588 0.000 0.000
v 2.29256 0.02444 3.60000 0.576 0.000 0.000
v 2.19414 0.02498 3.61598 0.584 0.000 0.000
v 0.96965 0.03101 3.63983 0.608 0.000 0.000
v 0.92129 0.02995 3.65938 0.565 0.000 0.000
v 0.27329 0.02635 3.68278 0.557 0.000 0.000
v 0.22475 0.01579 3.65497 0.596 0.000 0.000
v 0.31036 0.02140 3.66707 0.596 0.000 0.000
v 0.92129 -0.02995 3.54062 0.639 0.000 0.000
v 0.79522 -0.03118 3.57088 0.714 0.000 0.000
v 2.10798 -0.02551 3.57282 0.608 0.000 0.000
v 1.81243 -0.02754 3.57280 0.647 0.000 0.000
v 1.51629 -0.02947 3.57768 0.573 0.000 0.000
v 1.06120 -0.03208 3.56533 0.663 0.000 0.000
v 2.10798 -0.02551 3.57282 0.588 0.000 0.000
v 2.10798 0.00000 3.54447 0.588 0.000 0.000
v 2.19414 -0.02498 3.58402 0.584 0.000 0.000
v 0.96965 -0.03101 3.56017 0.608 0.000 0.000
v 0.92129 -0.02995 3.54062 0.565 0.000 0.000
v 0.92129 0.00000 3.50023 0.565 0.000 0.000
v 0.27329 -0.02635 3.51722 0.557 0.000 0.000
v 0.22475 -0.01579 3.54503 0.596 0.000 0.000
v 0.21149 0.00000 3.54328 0.671 0.000 0.000
v 0.31036 -0.02140 3.53293 0.596 0.000 0.000
v 0.34722 0.00000 3.52318 0.596 0.000 0.000
v 0.92129 0.02995 3.54062 0.639 0.000 0.000
v 0.79522 0.03118 3.57088 0.714 0.000 0.000
v 1.81243 0.02754 3.57280 0.647 0.000 0.000
v 2.10798 0.02551 3.57282 0.608 0.000 0.000
v 1.51629 0.02947 3.57768 0.573 0.000 0.000
v 1.06120 0.03208 3.56533 0.663 0.000 0.000
v 2.10798 0.02551 3.57282 0.588 0.000 0.000
v 2.19414 0.02498 3.58402 0.584 0.000 0.000
v 0.92129 0.02995 3.54062 0.565 0.000 0.000
v 0.96965 0.03101 3.56017 0.608 0.000 0.000
v 0.27329 0.02635 3.51722 0.557 0.000 0.000
v 0.22475 0.01579 3.54503 0.596 0.000 0.000
v 0.31036 0.02140 3.53293 0.596 0.000 0.000
v 0.12173 0.00000 3.64176 0.000 0.682 0.000
v 0.12173 -0.04176 3.60000 0.000 0.576 0.000
v -0.49613 0.00000 3.64343 0.000 0.733 0.000
v -0.49613 -0.04343 3.60000 0.000 0.576 0.000
v -0.47452 0.00000 3.64259 0.000 0.733 0.000
v -0.47452 -0.04259 3.60000 0.000 0.565 0.000
v -0.59127 -0.01991 3.60000 0.000 0.651 0.000
v -0.53779 -0.01850 3.62932 0.000 0.682 0.000
v -0.51179 -0.01760 3.62155 0.000 0.706 0.000
v -0.49612 -0.01670 3.61679 0.000 0.776 0.000
v 0.16998 0.00000 3.64277 0.000 0.682 0.000
v 0.16998 -0.04201 3.60000 0.000 0.596 0.000
v 0.12173 0.04176 3.60000 0.000 0.576 0.000
v -0.47452 0.04259 3.60000 0.000 0.565 0.000
v -0.53779 0.01850 3.62932 0.000 0.682 0.000
v -0.59127 0.01991 3.60000 0.000 0.651 0.000
v -0.49613 0.01670 3.61679 0.000 0.776 0.000
v -0.51179 0.01760 3.62155 0.000 0.706 0.000
v 0.16998 0.04201 3.60000 0.000 0.596 0.000
v 0.12173 0.00000 3.55824 0.000 0.682 0.000
v -0.47452 0.00000 3.55741 0.000 0.733 0.000
v -0.49613 0.00000 3.55657 0.000 0.733 0.000
v -0.53779 -0.01850 3.57068 0.000 0.682 0.000
v -0.49612 -0.01670 3.58321 0.000 0.776 0.000
v -0.51179 -0.01760 3.57845 0.000 0.706 0.000
v 0.16998 0.00000 3.55723 0.000 0.682 0.000
v -0.53779 0.01850 3.57068 0.000 0.682 0.000
v -0.51179 0.01760 3.57845 0.000 0.706 0.000
v -0.49613 0.01670 3.58321 0.000 0.776 0.000
vt 0.00000 0.00000
vt 0.00000 0.00000
vt 0.52344 0.99219
vt 0.52344 0.89844
vt 0.55469 0.89844
vt 0.55469 0.99219
vt 0.58594 0.89844
vt 0.58594 0.99219
vt 0.72656 0.89844
vt 0.72656 0.99219
vt 0.69531 0.99219
vt 0.69531 0.89844
vt 0.47656 0.99219
vt 0.47656 0.89844
vt 0.39844 0.99219
vt 0.39844 0.89844
vt 0.50781 0.99219
vt 0.50781 0.89844
vt 0.35156 0.99219
vt 0.35156 0.89844
vt 0.44531 0.89844
vt 0.44531 0.99219
vt 0.67969 0.99219
vt 0.82031 0.99219
vt 0.38281 0.99219
vt 0.38281 0.89844
vt 0.44531 0.89844
vt 0.44531 0.99219
vt 0.50781 0.89844
vt 0.50781 0.99219
vt 0.47656 0.99219
vt 0.47656 0.89844
vt 0.41406 0.89844
vt 0.41406 0.99219
vt 0.52344 0.99219
vt 0.52344 0.89844
vt 0.55469 0.89844
vt 0.55469 0.99219
vt 0.58594 0.89844
vt 0.58594 0.99219
vt 0.72656 0.89844
vt 0.72656 0.99219
vt 0.47656 0.99219
vt 0.47656 0.89844
vt 0.39844 0.99219
vt 0.39844 0.89844
vt 0.44531 0.89844
vt 0.44531 0.99219
vt 0.67969 0.99219
vt 0.82031 0.99219
vt 0.38281 0.99219
vt 0.38281 0.89844
vt 0.44531 0.89844
vt 0.44531 0.99219
vt 0.50781 0.89844
vt 0.50781 0.99219
vt 0.47656 0.99219
vt 0.47656 0.89844
vt 0.41406 0.89844
vt 0.41406 0.99219
vt 0.46094 0.50781
vt 0.46094 0.52344
vt 0.58594 0.52344
vt 0.46094 0.63281
vt 0.63281 0.60156
vt 0.57031 0.63281
vt 0.63281 0.74219
vt 0.63281 0.64844
vt 0.49219 0.64844
vt 0.46094 0.80469
vt 0.66406 0.80469
vt 0.66406 0.71094
vt 0.91406 0.00781
vt 0.91406 0.44531
vt 0.83594 0.00781
vt 0.83594 0.44531
vt 0.91406 0.99219
vt 0.83594 0.99219
vt 0.47656 0.58594
vt 0.36719 0.74219
vt 0.36719 0.57031
vt 0.25781 0.74219
vt 0.25781 0.69531
vt 0.25781 0.19531
vt 0.25781 0.13281
vt 0.25781 0.25781
vt 0.25781 0.36719
vt 0.25781 0.44531
vt 0.25781 0.60156
vt 0.36719 0.44531
vt 0.25781 0.32031
vt 0.49219 0.27344
vt 0.55469 0.27344
vt 0.49219 0.33594
vt 0.52344 0.33594
vt 0.78906 0.35156
vt 0.66406 0.35156
vt 0.66406 0.42969
vt 0.66406 0.27344
vt 0.66406 0.30469
vt 0.66406 0.38281
vt 0.83594 0.33594
vt 0.77344 0.64844
vt 0.72656 0.49219
vt 0.66406 0.44531
vt 0.83594 0.38281
vt 0.83594 0.64844
vt 0.83594 0.49219
vt 0.24219 0.00781
vt 0.24219 0.08594
vt 0.24219 0.19531
vt 0.24219 0.49219
vt 0.24219 0.67969
vt 0.24219 0.88281
vt 0.24219 0.92969
vt 0.24219 0.13281
vt 0.16406 0.07031
vt 0.21094 0.49219
vt 0.19531 0.67969
vt 0.24219 0.99219
vt 0.19531 0.88281
vt 0.25781 0.00781
vt 0.25781 0.07031
vt 0.46094 0.50781
vt 0.46094 0.52344
vt 0.58594 0.52344
vt 0.46094 0.63281
vt 0.57031 0.63281
vt 0.63281 0.74219
vt 0.49219 0.64844
vt 0.46094 0.80469
vt 0.66406 0.80469
vt 0.91406 0.00781
vt 0.91406 0.44531
vt 0.91406 0.99219
vt 0.47656 0.58594
vt 0.36719 0.74219
vt 0.36719 0.57031
vt 0.36719 0.44531
vt 0.49219 0.27344
vt 0.55469 0.27344
vt 0.78906 0.35156
vt 0.66406 0.35156
vt 0.66406 0.42969
vt 0.66406 0.27344
vt 0.66406 0.30469
vt 0.66406 0.38281
vt 0.83594 0.33594
vt 0.77344 0.64844
vt 0.72656 0.49219
vt 0.66406 0.44531
vt 0.83594 0.38281
vt 0.83594 0.64844
vt 0.83594 0.49219
vt 0.24219 0.00781
vt 0.24219 0.08594
vt 0.24219 0.19531
vt 0.24219 0.49219
vt 0.24219 0.67969
vt 0.24219 0.88281
vt 0.24219 0.92969
vt 0.24219 0.13281
vt 0.16406 0.07031
vt 0.21094 0.49219
vt 0.19531 0.67969
vt 0.24219 0.99219
vt 0.19531 0.88281
vt 0.58594 0.52344
vt 0.63281 0.60156
vt 0.57031 0.63281
vt 0.63281 0.74219
vt 0.63281 0.64844
vt 0.66406 0.80469
vt 0.66406 0.71094
vt 0.99103 0.00781
vt 0.99103 0.44531
vt 0.99103 0.99219
vt 0.36719 0.74219
vt 0.36719 0.57031
vt 0.25781 0.74219
vt 0.25781 0.69531
vt 0.25781 0.19531
vt 0.25781 0.13281
vt 0.25781 0.25781
vt 0.25781 0.36719
vt 0.25781 0.44531
vt 0.25781 0.60156
vt 0.36719 0.44531
vt 0.25781 0.32031
vt 0.52344 0.33594
vt 0.78906 0.35156
vt 0.66406 0.35156
vt 0.66406 0.42969
vt 0.66406 0.27344
vt 0.66406 0.30469
vt 0.66406 0.38281
vt 0.77344 0.64844
vt 0.72656 0.49219
vt 0.66406 0.44531
vt 0.24219 0.00781
vt 0.24219 0.08594
vt 0.24219 0.19531
vt 0.24219 0.49219
vt 0.24219 0.67969
vt 0.24219 0.88281
vt 0.24219 0.92969
vt 0.24219 0.13281
vt 0.25781 0.00781
vt 0.25781 0.07031
vt 0.58594 0.52344
vt 0.57031 0.63281
vt 0.63281 0.74219
vt 0.66406 0.80469
vt 0.36719 0.74219
vt 0.36719 0.57031
vt 0.36719 0.44531
vt 0.78906 0.35156
vt 0.66406 0.35156
vt 0.66406 0.42969
vt 0.66406 0.27344
vt 0.66406 0.30469
vt 0.66406 0.38281
vt 0.77344 0.64844
vt 0.72656 0.49219
vt 0.66406 0.44531
vt 0.24219 0.00781
vt 0.24219 0.08594
vt 0.24219 0.19531
vt 0.24219 0.49219
vt 0.24219 0.67969
vt 0.24219 0.88281
vt 0.24219 0.92969
vt 0.24219 0.13281
vt 0.14844 0.46543
vt 0.14844 0.27817
vt 0.14844 0.00781
vt 0.07031 0.77344
vt 0.07031 0.99219
vt 0.07031 0.44531
vt 0.07031 0.14844
vt 0.14844 0.99219
vt 0.14844 0.75781
vt 0.07031 0.07031
vt 0.60156 0.14844
vt 0.44531 0.03906
vt 0.49219 0.14844
vt 0.44531 0.14844
vt 0.52344 0.07031
vt 0.49219 0.03906
vt 0.64844 0.10156
vt 0.52344 0.07031
vt 0.14844 0.46543
vt 0.14844 0.27817
vt 0.14844 0.00781
vt 0.07031 0.77344
vt 0.07031 0.99219
vt 0.07031 0.44531
vt 0.07031 0.14844
vt 0.14844 0.75781
vt 0.07031 0.07031
vt 0.60156 0.14844
vt 0.44531 0.03906
vt 0.49219 0.14844
vt 0.44531 0.14844
vt 0.52344 0.07031
vt 0.49219 0.03906
vt 0.64844 0.10156
vt 0.52344 0.07031
vt 0.82031 0.13281
vt 0.82031 0.03906
vt 0.72656 0.13281
vt 0.82031 0.13281
vt 0.72656 0.80469
vt 0.72656 0.88281
vt 0.67969 0.88281
vt 0.67969 0.80469
vt 0.67969 0.75781
vt 0.72656 0.63281
vt 0.78906 0.88281
vt 0.82031 0.80469
vt 0.67969 0.55469
vt 0.67969 0.83594
vt 0.72656 0.83594
vt 0.82031 0.19531
vt 0.67969 0.19531
vt 0.72656 0.80469
vt 0.72656 0.88281
vt 0.72656 0.63281
vt 0.78906 0.88281
vt 0.82031 0.80469
vt 0.72656 0.83594
vt 0.67969 0.19531
vt 0.72656 0.00781
vt 0.72656 0.80469
vt 0.72656 0.88281
vt 0.67969 0.88281
vt 0.67969 0.80469
vt 0.67969 0.75781
vt 0.67969 0.83594
vt 0.72656 0.83594
vt 0.82031 0.19531
vt 0.72656 0.80469
vt 0.72656 0.88281
vt 0.72656 0.83594
vt 0.41406 0.00781
vt 0.42969 0.00781
vt 0.41406 0.35156
vt 0.42969 0.35156
vt 0.41406 0.00781
vt 0.38281 0.00781
vt 0.41406 0.35156
vt 0.38281 0.35156
vt 0.41406 0.00781
vt 0.42969 0.00781
vt 0.41406 0.35156
vt 0.42969 0.35156
vt 0.41406 0.00781
vt 0.38281 0.00781
vt 0.41406 0.35156
vt 0.38281 0.35156
vt 0.41406 0.00781
vt 0.41406 0.35156
vt 0.41406 0.00781
vt 0.38281 0.00781
vt 0.41406 0.35156
vt 0.38281 0.35156
vt 0.41406 0.00781
vt 0.41406 0.35156
vt 0.41406 0.00781
vt 0.38281 0.00781
vt 0.41406 0.35156
vt 0.38281 0.35156
vt 0.60156 0.99219
vt 0.67969 0.91406
vt 0.82031 0.91406
vt 0.74219 0.99219
vt 0.67969 0.91406
vt 0.60156 0.99219
vt 0.74219 0.99219
vt 0.82031 0.91406
vt 0.66406 0.82031
vt 0.46094 0.82031
vt 0.64844 0.88281
vt 0.47656 0.88281
vt 0.36719 0.13281
vt 0.36719 0.25781
vt 0.36719 0.32031
vt 0.36719 0.35156
vt 0.36719 0.36719
vt 0.25781 0.35156
vt 0.55469 0.35156
vt 0.55469 0.30469
vt 0.64844 0.22656
vt 0.64844 0.27344
vt 0.57031 0.22656
vt 0.57031 0.27344
vt 0.36719 0.07031
vt 0.36719 0.11719
vt 0.36719 0.00781
vt 0.25781 0.11719
vt 0.58594 0.58594
vt 0.47656 0.58594
vt 0.64844 0.36719
vt 0.57031 0.36719
vt 0.38281 0.44531
vt 0.44531 0.57031
vt 0.38281 0.57031
vt 0.44531 0.42969
vt 0.38281 0.36719
vt 0.44531 0.77344
vt 0.44531 0.82031
vt 0.38281 0.74219
vt 0.58594 0.42969
vt 0.38281 0.82031
vt 0.83594 0.25781
vt 0.66406 0.25781
vt 0.64844 0.88281
vt 0.46094 0.82031
vt 0.66406 0.82031
vt 0.47656 0.88281
vt 0.36719 0.13281
vt 0.36719 0.32031
vt 0.36719 0.25781
vt 0.36719 0.35156
vt 0.36719 0.36719
vt 0.55469 0.30469
vt 0.64844 0.27344
vt 0.57031 0.27344
vt 0.36719 0.11719
vt 0.36719 0.07031
vt 0.36719 0.00781
vt 0.47656 0.58594
vt 0.58594 0.58594
vt 0.57031 0.36719
vt 0.64844 0.36719
vt 0.38281 0.57031
vt 0.44531 0.57031
vt 0.38281 0.44531
vt 0.44531 0.42969
vt 0.38281 0.36719
vt 0.38281 0.74219
vt 0.44531 0.82031
vt 0.44531 0.77344
vt 0.58594 0.42969
vt 0.38281 0.82031
vt 0.66406 0.25781
vt 0.83594 0.25781
vt 0.64844 0.88281
vt 0.66406 0.82031
vt 0.36719 0.13281
vt 0.36719 0.32031
vt 0.36719 0.25781
vt 0.36719 0.35156
vt 0.36719 0.36719
vt 0.25781 0.35156
vt 0.55469 0.30469
vt 0.55469 0.35156
vt 0.57031 0.22656
vt 0.64844 0.27344
vt 0.64844 0.22656
vt 0.57031 0.27344
vt 0.36719 0.11719
vt 0.36719 0.07031
vt 0.36719 0.00781
vt 0.25781 0.11719
vt 0.58594 0.58594
vt 0.57031 0.36719
vt 0.38281 0.57031
vt 0.44531 0.57031
vt 0.38281 0.44531
vt 0.44531 0.42969
vt 0.38281 0.36719
vt 0.38281 0.74219
vt 0.44531 0.77344
vt 0.66406 0.25781
vt 0.66406 0.82031
vt 0.64844 0.88281
vt 0.36719 0.13281
vt 0.36719 0.25781
vt 0.36719 0.32031
vt 0.36719 0.35156
vt 0.36719 0.36719
vt 0.55469 0.30469
vt 0.64844 0.27344
vt 0.57031 0.27344
vt 0.36719 0.07031
vt 0.36719 0.11719
vt 0.36719 0.00781
vt 0.58594 0.58594
vt 0.57031 0.36719
vt 0.38281 0.44531
vt 0.44531 0.57031
vt 0.38281 0.57031
vt 0.44531 0.42969
vt 0.38281 0.36719
vt 0.44531 0.77344
vt 0.38281 0.74219
vt 0.66406 0.25781
vt 0.08594 0.46543
vt 0.08594 0.00781
vt 0.00781 0.77344
vt 0.00781 0.99219
vt 0.00781 0.44531
vt 0.00781 0.14844
vt 0.14844 0.47656
vt 0.08594 0.47656
vt 0.08594 0.86719
vt 0.08594 0.69531
vt 0.00781 0.00781
vt 0.00781 0.08594
vt 0.07031 0.00781
vt 0.60156 0.00781
vt 0.53906 0.00781
vt 0.49219 0.00781
vt 0.64844 0.00781
vt 0.71094 0.00781
vt 0.08594 0.46543
vt 0.08594 0.00781
vt 0.00781 0.99219
vt 0.00781 0.77344
vt 0.00781 0.44531
vt 0.00781 0.14844
vt 0.08594 0.47656
vt 0.08594 0.86719
vt 0.08594 0.69531
vt 0.00781 0.08594
vt 0.00781 0.00781
vt 0.60156 0.00781
vt 0.53906 0.00781
vt 0.64844 0.00781
vt 0.08594 0.46543
vt 0.08594 0.00781
vt 0.00781 0.99219
vt 0.00781 0.77344
vt 0.00781 0.44531
vt 0.00781 0.14844
vt 0.08594 0.47656
vt 0.14844 0.47656
vt 0.08594 0.69531
vt 0.00781 0.08594
vt 0.00781 0.00781
vt 0.07031 0.00781
vt 0.60156 0.00781
vt 0.53906 0.00781
vt 0.49219 0.00781
vt 0.64844 0.00781
vt 0.71094 0.00781
vt 0.08594 0.46543
vt 0.08594 0.00781
vt 0.00781 0.77344
vt 0.00781 0.99219
vt 0.00781 0.44531
vt 0.00781 0.14844
vt 0.08594 0.47656
vt 0.08594 0.69531
vt 0.00781 0.00781
vt 0.00781 0.08594
vt 0.60156 0.00781
vt 0.53906 0.00781
vt 0.64844 0.00781
vt 0.80469 0.14844
vt 0.69531 0.14844
vt 0.80469 0.00781
vt 0.72656 0.00781
vt 0.80469 0.03906
vt 0.72656 0.03906
vt 0.74219 0.64844
vt 0.74219 0.80469
vt 0.74219 0.83594
vt 0.74219 0.88281
vt 0.80469 0.24219
vt 0.69531 0.24219
vt 0.69531 0.14844
vt 0.72656 0.03906
vt 0.74219 0.80469
vt 0.74219 0.64844
vt 0.74219 0.88281
vt 0.74219 0.83594
vt 0.69531 0.24219
vt 0.80469 0.14844
vt 0.80469 0.03906
vt 0.80469 0.00781
vt 0.74219 0.80469
vt 0.74219 0.88281
vt 0.74219 0.83594
vt 0.80469 0.24219
vt 0.74219 0.80469
vt 0.74219 0.83594
vt 0.74219 0.88281
usemtl m0
f 5/5 6/6 3/3
f 4/4 5/5 3/3
f 8/8 6/6 5/5
f 8/8 5/5 7/7
f 10/10 12/12 11/11
f 9/9 12/12 10/10
f 14/14 21/21 13/13
f 13/13 21/21 22/22
f 13/13 17/17 14/14
f 14/14 17/17 18/18
f 16/16 20/20 15/15
f 15/15 20/20 19/19
f 16/16 15/15 22/22
f 21/21 16/16 22/22
f 23/23 333/333 334/334
f 24/24 335/335 336/336
f 27/27 31/31 32/32
f 28/28 31/31 27/27
f 31/31 30/30 32/32
f 32/32 30/30 29/29
f 28/28 33/33 34/34
f 27/27 33/33 28/28
f 33/33 26/26 34/34
f 34/34 26/26 25/25
f 35/35 38/38 37/37
f 35/35 37/37 36/36
f 37/37 38/38 40/40
f 39/39 37/37 40/40
f 11/11 12/12 42/42
f 42/42 12/12 41/41
f 43/43 47/47 44/44
f 48/48 47/47 43/43
f 44/44 17/17 43/43
f 18/18 17/17 44/44
f 45/45 20/20 46/46
f 19/19 20/20 45/45
f 48/48 45/45 46/46
f 48/48 46/46 47/47
f 337/337 338/338 49/49
f 339/339 340/340 50/50
f 58/58 57/57 53/53
f 53/53 57/57 54/54
f 58/58 56/56 57/57
f 55/55 56/56 58/58
f 60/60 59/59 54/54
f 54/54 59/59 53/53
f 60/60 52/52 59/59
f 51/51 52/52 60/60
f 61/61 62/62 63/63
f 65/65 66/66 63/63
f 67/67 70/70 71/71
f 72/72 68/68 67/67
f 68/68 70/70 67/67
f 69/69 70/70 68/68
f 341/341 342/342 343/343
f 343/343 342/342 344/344
f 75/75 73/73 76/76
f 73/73 74/74 76/76
f 76/76 74/74 78/78
f 74/74 77/77 78/78
f 88/88 81/81 89/89
f 81/81 80/80 89/89
f 83/83 80/80 82/82
f 89/89 80/80 83/83
f 85/85 345/345 84/84
f 345/345 86/86 84/84
f 346/346 347/347 86/86
f 345/345 346/346 86/86
f 91/91 347/347 348/348
f 86/86 347/347 91/91
f 87/87 349/349 88/88
f 90/90 81/81 88/88
f 349/349 90/90 88/88
f 91/91 348/348 350/350
f 92/92 94/94 95/95
f 351/351 352/352 95/95
f 352/352 92/92 95/95
f 353/353 354/354 355/355
f 355/355 354/354 356/356
f 123/123 357/357 358/358
f 123/123 359/359 357/357
f 122/122 359/359 123/123
f 360/360 123/123 358/358
f 66/66 62/62 63/63
f 66/66 64/64 62/62
f 361/361 79/79 362/362
f 352/352 93/93 92/92
f 356/356 363/363 364/364
f 354/354 363/363 356/356
f 365/365 366/366 367/367
f 368/368 366/366 365/365
f 369/369 368/368 365/365
f 370/370 371/371 372/372
f 364/364 373/373 368/368
f 363/363 373/373 364/364
f 367/367 370/370 372/372
f 371/371 374/374 372/372
f 369/369 364/364 368/368
f 366/366 370/370 367/367
f 99/99 96/96 100/100
f 100/100 96/96 97/97
f 101/101 96/96 98/98
f 97/97 96/96 101/101
f 375/375 102/102 376/376
f 104/104 108/108 103/103
f 106/106 108/108 104/104
f 105/105 106/106 104/104
f 108/108 107/107 103/103
f 109/109 117/117 110/110
f 111/111 118/118 112/112
f 112/112 118/118 113/113
f 119/119 121/121 114/114
f 121/121 120/120 115/115
f 114/114 121/121 115/115
f 113/113 119/119 114/114
f 110/110 117/117 116/116
f 116/116 117/117 111/111
f 118/118 119/119 113/113
f 117/117 118/118 111/111
f 126/126 125/125 124/124
f 126/126 128/128 65/65
f 132/132 131/131 129/129
f 129/129 68/68 72/72
f 129/129 131/131 68/68
f 68/68 131/131 130/130
f 377/377 378/378 379/379
f 380/380 378/378 377/377
f 76/76 133/133 75/75
f 76/76 134/134 133/133
f 78/78 134/134 76/76
f 78/78 135/135 134/134
f 89/89 138/138 88/88
f 89/89 137/137 138/138
f 82/82 137/137 83/83
f 83/83 137/137 89/89
f 84/84 381/381 85/85
f 84/84 86/86 381/381
f 86/86 382/382 383/383
f 86/86 383/383 381/381
f 384/384 382/382 91/91
f 91/91 382/382 86/86
f 88/88 385/385 87/87
f 88/88 138/138 139/139
f 88/88 139/139 385/385
f 350/350 384/384 91/91
f 95/95 94/94 140/140
f 95/95 386/386 351/351
f 95/95 140/140 386/386
f 355/355 387/387 353/353
f 388/388 387/387 355/355
f 389/389 390/390 123/123
f 390/390 391/391 123/123
f 123/123 391/391 122/122
f 389/389 123/123 360/360
f 126/126 125/125 128/128
f 125/125 127/127 128/128
f 392/392 136/136 393/393
f 140/140 141/141 386/386
f 394/394 395/395 388/388
f 388/388 395/395 387/387
f 396/396 397/397 398/398
f 398/398 397/397 399/399
f 398/398 399/399 400/400
f 401/401 402/402 403/403
f 399/399 404/404 394/394
f 394/394 404/404 395/395
f 401/401 403/403 396/396
f 401/401 405/405 402/402
f 399/399 394/394 400/400
f 396/396 403/403 397/397
f 146/146 142/142 145/145
f 143/143 142/142 146/146
f 144/144 142/142 147/147
f 147/147 142/142 143/143
f 406/406 148/148 407/407
f 149/149 154/154 150/150
f 150/150 154/154 152/152
f 150/150 152/152 151/151
f 149/149 153/153 154/154
f 156/156 163/163 155/155
f 158/158 164/164 157/157
f 159/159 164/164 158/158
f 160/160 167/167 165/165
f 161/161 166/166 167/167
f 161/161 167/167 160/160
f 160/160 165/165 159/159
f 162/162 163/163 156/156
f 157/157 163/163 162/162
f 159/159 165/165 164/164
f 157/157 164/164 163/163
f 168/168 62/62 61/61
f 168/168 170/170 169/169
f 173/173 70/70 171/171
f 171/171 172/172 174/174
f 171/171 70/70 172/172
f 172/172 70/70 69/69
f 408/408 342/342 409/409
f 344/344 342/342 408/408
f 176/176 73/73 175/175
f 176/176 74/74 73/73
f 177/177 74/74 176/176
f 177/177 77/77 74/74
f 187/187 179/179 186/186
f 187/187 178/178 179/179
f 180/180 178/178 181/181
f 181/181 178/178 187/187
f 182/182 410/410 183/183
f 182/182 184/184 410/410
f 184/184 411/411 412/412
f 184/184 412/412 410/410
f 413/413 411/411 189/189
f 189/189 411/411 184/184
f 186/186 414/414 185/185
f 186/186 179/179 188/188
f 186/186 188/188 414/414
f 415/415 413/413 189/189
f 190/190 94/94 92/92
f 190/190 416/416 417/417
f 190/190 92/92 416/416
f 418/418 419/419 420/420
f 421/421 419/419 418/418
f 422/422 423/423 209/209
f 423/423 424/424 209/209
f 209/209 424/424 208/208
f 422/422 209/209 425/425
f 168/168 62/62 170/170
f 62/62 64/64 170/170
f 362/362 79/79 426/426
f 92/92 93/93 416/416
f 427/427 363/363 421/421
f 421/421 363/363 419/419
f 428/428 429/429 430/430
f 430/430 429/429 431/431
f 430/430 431/431 432/432
f 433/433 371/371 434/434
f 431/431 373/373 427/427
f 427/427 373/373 363/363
f 433/433 434/434 428/428
f 433/433 374/374 371/371
f 431/431 427/427 432/432
f 428/428 434/434 429/429
f 195/195 191/191 194/194
f 192/192 191/191 195/195
f 193/193 191/191 196/196
f 196/196 191/191 192/192
f 435/435 102/102 375/375
f 197/197 108/108 198/198
f 198/198 108/108 106/106
f 198/198 106/106 199/199
f 197/197 107/107 108/108
f 201/201 117/117 200/200
f 203/203 118/118 202/202
f 204/204 118/118 203/203
f 205/205 121/121 119/119
f 206/206 120/120 121/121
f 206/206 121/121 205/205
f 205/205 119/119 204/204
f 207/207 117/117 201/201
f 202/202 117/117 207/207
f 204/204 119/119 118/118
f 202/202 118/118 117/117
f 124/124 125/125 210/210
f 169/169 211/211 210/210
f 212/212 131/131 213/213
f 174/174 172/172 212/212
f 172/172 131/131 212/212
f 130/130 131/131 172/172
f 436/436 378/378 437/437
f 437/437 378/378 380/380
f 175/175 133/133 176/176
f 133/133 134/134 176/176
f 176/176 134/134 177/177
f 134/134 135/135 177/177
f 186/186 215/215 187/187
f 215/215 214/214 187/187
f 181/181 214/214 180/180
f 187/187 214/214 181/181
f 183/183 438/438 182/182
f 438/438 184/184 182/182
f 439/439 440/440 184/184
f 438/438 439/439 184/184
f 189/189 440/440 441/441
f 184/184 440/440 189/189
f 185/185 442/442 186/186
f 216/216 215/215 186/186
f 442/442 216/216 186/186
f 189/189 441/441 415/415
f 140/140 94/94 190/190
f 417/417 443/443 190/190
f 443/443 140/140 190/190
f 420/420 444/444 418/418
f 418/418 444/444 445/445
f 209/209 446/446 447/447
f 209/209 448/448 446/446
f 208/208 448/448 209/209
f 425/425 209/209 447/447
f 211/211 125/125 210/210
f 211/211 127/127 125/125
f 449/449 136/136 392/392
f 443/443 141/141 140/140
f 445/445 395/395 450/450
f 444/444 395/395 445/445
f 451/451 452/452 453/453
f 454/454 452/452 451/451
f 455/455 454/454 451/451
f 456/456 402/402 457/457
f 450/450 404/404 454/454
f 395/395 404/404 450/450
f 453/453 456/456 457/457
f 402/402 405/405 457/457
f 455/455 450/450 454/454
f 452/452 456/456 453/453
f 220/220 217/217 221/221
f 221/221 217/217 218/218
f 222/222 217/217 219/219
f 218/218 217/217 222/222
f 407/407 148/148 458/458
f 224/224 154/154 223/223
f 152/152 154/154 224/224
f 225/225 152/152 224/224
f 154/154 153/153 223/223
f 226/226 163/163 227/227
f 228/228 164/164 229/229
f 229/229 164/164 230/230
f 165/165 167/167 231/231
f 167/167 166/166 232/232
f 231/231 167/167 232/232
f 230/230 165/165 231/231
f 227/227 163/163 233/233
f 233/233 163/163 228/228
f 164/164 165/165 230/230
f 163/163 164/164 228/228
f 235/235 459/459 234/234
f 236/236 460/460 235/235
f 235/235 460/460 459/459
f 461/461 462/462 237/237
f 237/237 462/462 238/238
f 239/239 463/463 237/237
f 240/240 464/464 239/239
f 464/464 463/463 239/239
f 237/237 463/463 461/461
f 465/465 466/466 242/242
f 467/467 241/241 242/242
f 466/466 468/468 242/242
f 468/468 467/467 242/242
f 469/469 470/470 243/243
f 471/471 469/469 243/243
f 243/243 470/470 240/240
f 470/470 464/464 240/240
f 246/246 472/472 244/244
f 246/246 248/248 472/472
f 247/247 245/245 248/248
f 247/247 248/248 246/246
f 248/248 473/473 472/472
f 249/249 474/474 248/248
f 474/474 473/473 248/248
f 245/245 249/249 248/248
f 472/472 475/475 250/250
f 244/244 472/472 250/250
f 250/250 475/475 476/476
f 234/234 477/477 235/235
f 235/235 478/478 236/236
f 477/477 478/478 235/235
f 237/237 479/479 480/480
f 238/238 479/479 237/237
f 237/237 481/481 239/239
f 239/239 482/482 240/240
f 239/239 481/481 482/482
f 480/480 481/481 237/237
f 242/242 483/483 465/465
f 242/242 241/241 484/484
f 242/242 485/485 483/483
f 242/242 484/484 485/485
f 243/243 486/486 487/487
f 243/243 487/487 471/471
f 240/240 486/486 243/243
f 240/240 482/482 486/486
f 244/244 488/488 246/246
f 488/488 251/251 246/246
f 251/251 245/245 247/247
f 246/246 251/251 247/247
f 488/488 489/489 251/251
f 251/251 474/474 249/249
f 251/251 489/489 474/474
f 251/251 249/249 245/245
f 250/250 490/490 488/488
f 250/250 488/488 244/244
f 476/476 490/490 250/250
f 252/252 491/491 253/253
f 253/253 492/492 254/254
f 491/491 492/492 253/253
f 255/255 493/493 494/494
f 256/256 493/493 255/255
f 255/255 495/495 257/257
f 257/257 496/496 258/258
f 257/257 495/495 496/496
f 494/494 495/495 255/255
f 259/259 497/497 498/498
f 259/259 241/241 467/467
f 259/259 499/499 497/497
f 259/259 467/467 499/499
f 260/260 500/500 501/501
f 260/260 501/501 502/502
f 258/258 500/500 260/260
f 258/258 496/496 500/500
f 261/261 503/503 263/263
f 503/503 265/265 263/263
f 265/265 262/262 264/264
f 263/263 265/265 264/264
f 503/503 504/504 265/265
f 265/265 505/505 266/266
f 265/265 504/504 505/505
f 265/265 266/266 262/262
f 267/267 506/506 503/503
f 267/267 503/503 261/261
f 507/507 506/506 267/267
f 253/253 508/508 252/252
f 254/254 509/509 253/253
f 253/253 509/509 508/508
f 510/510 511/511 255/255
f 255/255 511/511 256/256
f 257/257 512/512 255/255
f 258/258 513/513 257/257
f 513/513 512/512 257/257
f 255/255 512/512 510/510
f 498/498 514/514 259/259
f 484/484 241/241 259/259
f 514/514 515/515 259/259
f 515/515 484/484 259/259
f 516/516 517/517 260/260
f 502/502 516/516 260/260
f 260/260 517/517 258/258
f 517/517 513/513 258/258
f 263/263 518/518 261/261
f 263/263 268/268 518/518
f 264/264 262/262 268/268
f 264/264 268/268 263/263
f 268/268 519/519 518/518
f 266/266 505/505 268/268
f 505/505 519/519 268/268
f 262/262 266/266 268/268
f 518/518 520/520 267/267
f 261/261 518/518 267/267
f 267/267 520/520 507/507
f 269/269 270/270 271/271
f 271/271 270/270 272/272
f 273/273 283/283 282/282
f 283/283 274/274 275/275
f 276/276 273/273 282/282
f 282/282 283/283 275/275
f 277/277 281/281 273/273
f 277/277 273/273 276/276
f 281/281 278/278 273/273
f 521/521 285/285 284/284
f 522/522 285/285 521/521
f 523/523 524/524 525/525
f 524/524 526/526 525/525
f 527/527 280/280 528/528
f 529/529 279/279 530/530
f 528/528 280/280 529/529
f 280/280 279/279 529/529
f 284/284 285/285 531/531
f 531/531 285/285 532/532
f 282/282 291/291 286/286
f 275/275 287/287 291/291
f 282/282 286/286 276/276
f 275/275 291/291 282/282
f 286/286 288/288 281/281
f 276/276 286/286 277/277
f 277/277 286/286 281/281
f 284/284 292/292 521/521
f 521/521 292/292 533/533
f 525/525 293/293 523/523
f 525/525 534/534 293/293
f 535/535 290/290 536/536
f 537/537 289/289 538/538
f 538/538 290/290 535/535
f 538/538 289/289 290/290
f 531/531 292/292 284/284
f 539/539 292/292 531/531
f 299/299 300/300 294/294
f 296/296 295/295 300/300
f 299/299 294/294 297/297
f 296/296 300/300 299/299
f 294/294 278/278 281/281
f 297/297 294/294 298/298
f 298/298 294/294 281/281
f 301/301 285/285 540/540
f 540/540 285/285 522/522
f 541/541 524/524 542/542
f 541/541 526/526 524/524
f 543/543 280/280 527/527
f 544/544 279/279 545/545
f 545/545 280/280 543/543
f 545/545 279/279 280/280
f 546/546 285/285 301/301
f 532/532 285/285 546/546
f 302/302 304/304 299/299
f 304/304 303/303 296/296
f 297/297 302/302 299/299
f 299/299 304/304 296/296
f 298/298 281/281 302/302
f 298/298 302/302 297/297
f 281/281 288/288 302/302
f 540/540 292/292 301/301
f 533/533 292/292 540/540
f 542/542 293/293 541/541
f 293/293 534/534 541/541
f 536/536 290/290 547/547
f 548/548 289/289 549/549
f 547/547 290/290 548/548
f 290/290 289/289 548/548
f 301/301 292/292 546/546
f 546/546 292/292 539/539
f 306/306 308/308 307/307
f 305/305 306/306 307/307
f 310/310 309/309 312/312
f 309/309 311/311 312/312
f 315/315 316/316 314/314
f 315/315 314/314 313/313
f 320/320 317/317 318/318
f 320/320 319/319 317/317
f 322/322 308/308 306/306
f 322/322 306/306 321/321
f 326/326 323/323 324/324
f 326/326 325/325 323/323
f 314/314 316/316 328/328
f 327/327 314/314 328/328
f 330/330 329/329 332/332
f 329/329 331/331 332/332
