mtllib arms5130.mtl
o arms5130
v 0.04757 1.07959 2.12690 0.184 0.000 0.000
v 0.04757 1.09190 2.11459 0.176 0.000 0.000
v 0.03692 1.09051 2.10089 0.173 0.000 0.000
v 0.02624 1.07681 2.09950 0.176 0.000 0.000
v 0.02624 1.06450 2.11181 0.184 0.000 0.000
v 0.03692 1.06589 2.12551 0.188 0.000 0.000
v -0.02624 1.13179 2.17910 0.184 0.000 0.000
v -0.02624 1.14410 2.16679 0.176 0.000 0.000
v -0.03692 1.14271 2.15309 0.173 0.000 0.000
v -0.04757 1.12901 2.15170 0.176 0.000 0.000
v -0.04757 1.11670 2.16401 0.184 0.000 0.000
v -0.03692 1.11809 2.17771 0.188 0.000 0.000
v 0.02624 1.13179 2.17910 0.184 0.000 0.000
v 0.02624 1.14410 2.16679 0.176 0.000 0.000
v 0.03692 1.14271 2.15309 0.173 0.000 0.000
v 0.04757 1.12901 2.15170 0.176 0.000 0.000
v 0.04757 1.11670 2.16401 0.184 0.000 0.000
v 0.03692 1.11809 2.17771 0.188 0.000 0.000
v -0.04757 1.07959 2.12690 0.184 0.000 0.000
v -0.04757 1.09190 2.11459 0.176 0.000 0.000
v -0.03692 1.09051 2.10089 0.173 0.000 0.000
v -0.02624 1.07681 2.09950 0.176 0.000 0.000
v -0.02624 1.06450 2.11181 0.184 0.000 0.000
v -0.03692 1.06589 2.12551 0.188 0.000 0.000
v 0.01231 1.05867 2.16751 0.173 0.000 0.000
v -0.00452 1.05548 2.16430 0.176 0.000 0.000
v -0.01683 1.06420 2.17301 0.184 0.000 0.000
v -0.01231 1.07609 2.18493 0.188 0.000 0.000
v 0.00452 1.07930 2.18812 0.184 0.000 0.000
v 0.01683 1.07059 2.17940 0.176 0.000 0.000
v 0.01231 1.13251 2.09367 0.188 0.000 0.000
v -0.01231 1.14993 2.11109 0.204 0.000 0.000
v -0.01683 1.13801 2.09920 0.200 0.000 0.000
v -0.00452 1.12930 2.09048 0.196 0.000 0.000
v 0.01683 1.14440 2.10559 0.196 0.000 0.000
v 0.00452 1.15312 2.11430 0.200 0.000 0.000
v 0.07184 1.14021 2.10339 0.773 0.000 0.000
v 0.00000 1.08941 2.05259 0.627 0.000 0.000
v 0.07184 1.06839 2.17521 0.788 0.000 0.000
v 0.00000 1.01759 2.12441 0.733 0.000 0.000
v 0.00000 1.11919 2.22601 0.702 0.000 0.000
v -0.07184 1.06839 2.17521 0.655 0.000 0.000
v 0.00000 1.19101 2.15419 0.627 0.000 0.000
v -0.07184 1.14021 2.10339 0.773 0.000 0.000
v -0.16870 -1.01333 3.59136 0.000 0.000 0.651
v -0.13442 -1.04760 3.54289 0.000 0.000 0.655
v -0.13442 -1.04760 3.59136 0.000 0.000 0.631
v -0.15289 -1.06607 3.59136 0.000 0.000 0.600
v -0.16893 -1.05003 3.59136 0.000 0.000 0.761
v -0.15289 -1.06607 3.56868 0.000 0.000 0.788
v -0.57150 -1.48468 3.59136 0.000 0.000 0.624
v -0.55303 -1.46621 3.56868 0.000 0.000 0.847
v -0.56907 -1.45017 3.59136 0.000 0.000 0.776
v -0.58754 -1.46864 3.56526 0.000 0.000 0.847
v -0.55546 -1.46864 3.56526 0.000 0.000 0.847
v -0.57150 -1.48468 3.28230 0.000 0.000 0.722
v -0.55546 -1.46864 3.28230 0.000 0.000 0.847
v -0.58754 -1.46864 3.28230 0.000 0.000 0.847
v -0.79004 -1.26614 3.59136 0.000 0.000 0.663
v -0.77400 -1.25010 3.59136 0.000 0.000 0.796
v -0.57393 -1.45017 3.59136 0.000 0.000 0.776
v -0.58997 -1.46621 3.56868 0.000 0.000 0.847
v -0.79004 -1.26614 3.56868 0.000 0.000 0.847
v -0.53723 -0.64480 3.59136 0.000 0.000 0.651
v -0.57150 -0.61052 3.54289 0.000 0.000 0.655
v -0.57150 -0.61052 3.59136 0.000 0.000 0.631
v -0.58997 -0.62899 3.59136 0.000 0.000 0.600
v -0.57393 -0.64503 3.59136 0.000 0.000 0.761
v -0.58997 -0.62899 3.56868 0.000 0.000 0.788
v -1.00858 -1.04760 3.59136 0.000 0.000 0.686
v -0.99011 -1.02913 3.56868 0.000 0.000 0.847
v -0.97407 -1.04517 3.59136 0.000 0.000 0.776
v -0.99254 -1.06364 3.56526 0.000 0.000 0.847
v -0.99254 -1.03156 3.56526 0.000 0.000 0.847
v -1.00858 -1.04760 3.28230 0.000 0.000 0.722
v -0.99254 -1.03156 3.28230 0.000 0.000 0.847
v -0.99254 -1.06364 3.28230 0.000 0.000 0.847
v -0.97407 -1.05003 3.59136 0.000 0.000 0.776
v -0.99011 -1.06607 3.56868 0.000 0.000 0.847
v -0.16870 -1.01333 2.97324 0.000 0.000 0.651
v -0.13442 -1.04760 3.02171 0.000 0.000 0.655
v -0.13442 -1.04760 2.97324 0.000 0.000 0.631
v -0.15289 -1.06607 2.97324 0.000 0.000 0.839
v -0.16893 -1.05003 2.97324 0.000 0.000 0.867
v -0.15289 -1.06607 2.99592 0.000 0.000 0.788
v -0.57150 -1.48468 2.97324 0.000 0.000 0.686
v -0.55303 -1.46621 2.99592 0.000 0.000 0.847
v -0.56907 -1.45017 2.97324 0.000 0.000 0.902
v -0.58754 -1.46864 2.99936 0.000 0.000 0.847
v -0.55546 -1.46864 2.99934 0.000 0.000 0.847
v -0.79004 -1.26614 2.97324 0.000 0.000 0.831
v -0.77400 -1.25010 2.97324 0.000 0.000 0.886
v -0.57393 -1.45017 2.97324 0.000 0.000 0.902
v -0.58997 -1.46621 2.99592 0.000 0.000 0.847
v -0.79004 -1.26614 2.99592 0.000 0.000 0.847
v -0.53723 -0.64480 2.97324 0.000 0.000 0.651
v -0.57150 -0.61052 3.02171 0.000 0.000 0.655
v -0.57150 -0.61052 2.97324 0.000 0.000 0.631
v -0.58997 -0.62899 2.97324 0.000 0.000 0.839
v -0.57393 -0.64503 2.97324 0.000 0.000 0.867
v -0.58997 -0.62899 2.99592 0.000 0.000 0.788
v -1.00858 -1.04760 2.97324 0.000 0.000 0.863
v -0.99011 -1.02913 2.99592 0.000 0.000 0.847
v -0.97407 -1.04517 2.97324 0.000 0.000 0.902
v -0.99254 -1.06364 2.99936 0.000 0.000 0.847
v -0.99254 -1.03156 2.99934 0.000 0.000 0.847
v -0.97407 -1.05003 2.97324 0.000 0.000 0.902
v -0.99011 -1.06607 2.99592 0.000 0.000 0.847
v -0.57150 -0.61484 2.97630 0.000 0.000 0.722
v -0.13874 -1.04760 2.97630 0.000 0.000 0.714
v -0.57150 -0.61484 3.58830 0.000 0.000 0.824
v -0.13874 -1.04760 3.58830 0.000 0.000 0.824
v -1.00426 -1.04760 3.58830 0.000 0.000 0.824
v -0.57150 -1.48036 3.58830 0.000 0.000 0.788
v -1.00426 -1.04760 2.97630 0.000 0.000 0.776
v -0.57150 -1.48036 2.97630 0.000 0.000 0.784
v -0.16618 -1.02017 3.01509 0.000 0.000 0.706
v -0.54407 -0.64228 3.01509 0.000 0.000 0.714
v -0.54407 -0.64228 3.54951 0.000 0.000 0.776
v -0.16618 -1.02017 3.54951 0.000 0.000 0.776
v -0.56889 -1.42288 3.01509 0.000 0.000 0.878
v -0.94678 -1.04499 3.01509 0.000 0.000 0.894
v -0.56889 -1.42288 3.54951 0.000 0.000 0.902
v -0.94678 -1.04499 3.54951 0.000 0.000 0.914
v -0.69712 -1.16559 3.46334 0.000 0.000 0.000
v -0.88384 -0.97888 3.46334 0.000 0.000 0.000
v -0.63756 -0.73258 3.46334 0.000 0.000 0.000
v -0.45085 -0.91930 3.46334 0.000 0.000 0.000
v -0.45085 -0.91930 3.01302 0.000 0.000 0.000
v -0.63756 -0.73258 3.01302 0.000 0.000 0.000
v -0.69712 -1.16559 3.01302 0.000 0.000 0.000
v -0.50315 -1.35956 3.46334 0.000 0.000 0.000
v -0.62698 -1.23574 3.46334 0.000 0.000 0.000
v -0.38068 -0.98946 3.46334 0.000 0.000 0.000
v -0.25686 -1.11328 3.46334 0.000 0.000 0.000
v -0.25686 -1.11328 3.01302 0.000 0.000 0.000
v -0.38068 -0.98946 3.01302 0.000 0.000 0.000
v -0.62698 -1.23574 3.01302 0.000 0.000 0.000
v -0.47592 -0.70893 2.92468 0.000 0.000 0.000
v -0.47592 -0.70893 3.01534 0.000 0.000 0.000
v -0.51550 -0.66935 3.01534 0.000 0.000 0.000
v -0.51550 -0.66935 2.92468 0.000 0.000 0.000
v -0.49021 -0.69462 3.01534 0.000 0.000 0.000
v -0.50119 -0.68366 3.01534 0.000 0.000 0.000
v -0.49021 -0.69462 2.94507 0.000 0.000 0.000
v -0.50119 -0.68366 2.94507 0.000 0.000 0.000
v -0.48087 -0.70396 3.54928 0.000 0.000 0.000
v -0.48087 -0.70396 3.60844 0.000 0.000 0.000
v -0.53842 -0.64643 3.60844 0.000 0.000 0.000
v -0.53842 -0.64643 3.54928 0.000 0.000 0.000
v -0.52411 -0.66074 3.54928 0.000 0.000 0.000
v -0.52411 -0.66074 3.58803 0.000 0.000 0.000
v -0.49518 -0.68967 3.58803 0.000 0.000 0.000
v -0.49518 -0.68967 3.54928 0.000 0.000 0.000
v -0.19220 -0.99263 3.55918 0.000 0.000 0.000
v -0.19220 -0.99263 3.62374 0.000 0.000 0.000
v -0.24095 -0.94388 3.62374 0.000 0.000 0.000
v -0.24095 -0.94388 3.55918 0.000 0.000 0.000
v -0.22666 -0.95819 3.55918 0.000 0.000 0.000
v -0.22666 -0.95819 3.60333 0.000 0.000 0.000
v -0.20651 -0.97834 3.60333 0.000 0.000 0.000
v -0.20651 -0.97834 3.55918 0.000 0.000 0.000
v -0.24095 -0.94388 3.57800 0.000 0.000 0.000
v -0.19220 -0.99263 3.57800 0.000 0.000 0.000
v -0.18374 -1.00109 3.55918 0.000 0.000 0.000
v -0.18374 -1.00109 3.57800 0.000 0.000 0.000
v -0.28417 -0.90068 3.57800 0.000 0.000 0.000
v -0.28417 -0.90068 3.55918 0.000 0.000 0.000
v -0.15764 -1.02744 3.47152 0.000 0.000 0.000
v -0.15764 -1.02744 3.36240 0.000 0.000 0.000
v -0.14531 -1.03975 3.47152 0.000 0.000 0.000
v -0.56506 -1.29766 3.46334 0.000 0.000 0.000
v -0.31878 -1.05136 3.46334 0.000 0.000 0.000
v -0.31878 -1.05136 3.01302 0.000 0.000 0.000
v -0.82283 -1.03988 3.46334 0.000 0.000 0.000
v -0.57656 -0.79358 3.46334 0.000 0.000 0.000
v -0.57656 -0.79358 3.01302 0.000 0.000 0.000
v -0.75919 -1.10353 3.46334 0.000 0.000 0.000
v -0.51289 -0.85725 3.46334 0.000 0.000 0.000
v -0.51289 -0.85725 3.01302 0.000 0.000 0.000
v -0.27688 -1.07138 3.46334 0.000 0.000 0.000
v -0.27688 -1.07138 3.01302 0.000 0.000 0.000
v -0.33878 -1.00946 3.46334 0.000 0.000 0.000
v -0.33878 -1.00946 3.01302 0.000 0.000 0.000
v -0.47092 -0.87734 3.46334 0.000 0.000 0.000
v -0.47092 -0.87734 3.01302 0.000 0.000 0.000
v -0.53377 -0.81446 3.46334 0.000 0.000 0.000
v -0.53377 -0.81446 3.01302 0.000 0.000 0.000
v -0.59611 -0.75213 3.46334 0.000 0.000 0.000
v -0.59611 -0.75213 3.01302 0.000 0.000 0.000
v -0.18374 -1.00109 3.63582 0.000 0.000 0.000
v -0.16943 -1.01542 3.63582 0.000 0.000 0.000
v -0.18374 -1.00109 3.54888 0.000 0.000 0.000
v -0.16943 -1.01542 3.54888 0.000 0.000 0.000
v -0.14531 -1.03975 3.37793 0.000 0.000 0.000
v -0.13811 -1.04697 3.37793 0.000 0.000 0.000
v -0.13811 -1.04697 3.36240 0.000 0.000 0.000
v -0.54275 -0.64210 3.19518 0.000 0.000 0.000
v -0.56324 -0.62161 3.19518 0.000 0.000 0.000
v -0.56324 -0.62161 3.11382 0.000 0.000 0.000
v -0.54275 -0.64210 3.11382 0.000 0.000 0.000
v -0.54275 -0.64210 3.13405 0.000 0.000 0.000
v -0.55026 -0.63459 3.13405 0.000 0.000 0.000
v -0.55026 -0.63459 3.17495 0.000 0.000 0.000
v -0.54275 -0.64210 3.17495 0.000 0.000 0.000
v -0.27304 -1.18571 3.50770 0.000 0.000 0.000
v -0.27304 -1.18571 3.56958 0.000 0.000 0.000
v -0.28829 -1.20096 3.56958 0.000 0.000 0.000
v -0.28829 -1.20096 3.52656 0.000 0.000 0.000
v -0.32395 -1.23662 3.52656 0.000 0.000 0.000
v -0.30877 -1.22144 3.50770 0.000 0.000 0.000
v -0.32395 -1.23662 3.44844 0.000 0.000 0.000
v -0.30877 -1.22144 3.46680 0.000 0.000 0.000
v -0.25313 -1.16579 3.46680 0.000 0.000 0.000
v -0.26773 -1.18040 3.44844 0.000 0.000 0.000
v -0.32348 -1.23665 3.42828 0.000 0.000 0.000
v -0.18751 -1.10068 3.40938 0.000 0.000 0.000
v -0.20133 -1.11451 3.42828 0.000 0.000 0.000
v -0.20133 -1.11451 3.51324 0.000 0.000 0.000
v -0.18751 -1.10068 3.49382 0.000 0.000 0.000
v -0.10490 -1.01808 3.49382 0.000 0.000 0.000
v -0.30874 -1.22191 3.40938 0.000 0.000 0.000
v -0.32348 -1.23665 3.25890 0.000 0.000 0.000
v -0.30874 -1.22191 3.27843 0.000 0.000 0.000
v -0.23134 -1.14451 3.27843 0.000 0.000 0.000
v -0.24651 -1.15969 3.25890 0.000 0.000 0.000
v -0.24651 -1.15969 3.09366 0.000 0.000 0.000
v -0.23134 -1.14451 3.11310 0.000 0.000 0.000
v -0.13633 -1.04951 3.11310 0.000 0.000 0.000
v -0.13633 -1.04951 3.09366 0.000 0.000 0.000
v -0.26233 -1.17500 3.13036 0.000 0.000 0.000
v -0.40070 -1.31335 3.15126 0.000 0.000 0.000
v -0.40070 -1.31335 3.13036 0.000 0.000 0.000
v -0.26233 -1.17500 3.01446 0.000 0.000 0.000
v -0.24676 -1.15943 3.03511 0.000 0.000 0.000
v -0.12411 -1.03678 3.03511 0.000 0.000 0.000
v -0.12411 -1.03678 3.01446 0.000 0.000 0.000
v -0.29934 -1.21201 3.20616 0.000 0.000 0.000
v -0.31624 -1.22890 3.18447 0.000 0.000 0.000
v -0.43569 -1.34836 3.18447 0.000 0.000 0.000
v -0.36427 -1.27694 3.20616 0.000 0.000 0.000
v -0.43569 -1.34836 3.22020 0.000 0.000 0.000
v -0.38270 -1.29537 3.22020 0.000 0.000 0.000
v -0.36427 -1.27694 3.30840 0.000 0.000 0.000
v -0.38270 -1.29537 3.28428 0.000 0.000 0.000
v -0.45236 -1.36503 3.28428 0.000 0.000 0.000
v -0.45236 -1.36503 3.30840 0.000 0.000 0.000
v -0.34317 -1.25635 3.06054 0.000 0.000 0.000
v -0.34317 -1.25635 3.03786 0.000 0.000 0.000
v -0.43951 -1.35268 3.06054 0.000 0.000 0.000
v -0.43951 -1.35268 3.03786 0.000 0.000 0.000
v -0.43925 -1.35193 2.99952 0.000 0.000 0.000
v -0.45745 -1.37012 2.99952 0.000 0.000 0.000
v -0.43925 -1.35193 3.11526 0.000 0.000 0.000
v -0.45745 -1.37012 3.09368 0.000 0.000 0.000
v -0.54452 -1.45719 3.09368 0.000 0.000 0.000
v -0.54452 -1.45719 3.11526 0.000 0.000 0.000
v -0.38948 -1.30266 3.56958 0.000 0.000 0.000
v -0.37422 -1.28740 3.56958 0.000 0.000 0.000
v -0.37422 -1.28740 3.48028 0.000 0.000 0.000
v -0.38948 -1.30266 3.50012 0.000 0.000 0.000
v -0.49583 -1.40900 3.50012 0.000 0.000 0.000
v -0.48119 -1.39437 3.48028 0.000 0.000 0.000
v -0.49583 -1.40900 3.43004 0.000 0.000 0.000
v -0.48119 -1.39437 3.44880 0.000 0.000 0.000
v -0.43169 -1.34487 3.44880 0.000 0.000 0.000
v -0.44716 -1.36033 3.43004 0.000 0.000 0.000
v -0.44716 -1.36033 3.39750 0.000 0.000 0.000
v -0.43169 -1.34487 3.41424 0.000 0.000 0.000
v -0.39787 -1.31105 3.41424 0.000 0.000 0.000
v -0.41116 -1.32433 3.39750 0.000 0.000 0.000
v -0.39787 -1.31105 3.36600 0.000 0.000 0.000
v -0.41116 -1.32433 3.38323 0.000 0.000 0.000
v -0.49297 -1.40614 3.38323 0.000 0.000 0.000
v -0.47927 -1.39244 3.36600 0.000 0.000 0.000
v -0.47927 -1.39244 3.29310 0.000 0.000 0.000
v -0.49297 -1.40614 3.29310 0.000 0.000 0.000
v -0.55687 -1.46954 3.35390 0.000 0.000 0.000
v -0.55687 -1.46954 3.33490 0.000 0.000 0.000
v -0.51485 -1.42803 3.33540 0.000 0.000 0.000
v -0.52902 -1.44220 3.33540 0.000 0.000 0.000
v -0.51485 -1.42803 3.16080 0.000 0.000 0.000
v -0.52902 -1.44220 3.17878 0.000 0.000 0.000
v -0.55597 -1.46914 3.17878 0.000 0.000 0.000
v -0.55597 -1.46914 3.16080 0.000 0.000 0.000
v -0.18328 -1.09645 3.35050 0.000 0.000 0.000
v -0.18328 -1.09645 3.17630 0.000 0.000 0.000
v -0.19930 -1.11249 3.17630 0.000 0.000 0.000
v -0.19930 -1.11247 3.33020 0.000 0.000 0.000
v -0.24223 -1.15540 3.33020 0.000 0.000 0.000
v -0.24223 -1.15540 3.35050 0.000 0.000 0.000
v -0.49259 -1.40526 3.35390 0.000 0.000 0.000
v -0.49259 -1.40526 3.33490 0.000 0.000 0.000
v -0.25313 -1.16579 3.42720 0.000 0.000 0.000
v -0.26773 -1.18040 3.42720 0.000 0.000 0.000
v -0.29934 -1.21201 3.15000 0.000 0.000 0.000
v -0.31624 -1.22890 3.15000 0.000 0.000 0.000
v -0.38194 -1.29461 3.13110 0.000 0.000 0.000
v -0.36581 -1.27849 3.13110 0.000 0.000 0.000
v -0.36581 -1.27849 3.06000 0.000 0.000 0.000
v -0.38194 -1.29461 3.06000 0.000 0.000 0.000
v -0.24676 -1.15943 3.15126 0.000 0.000 0.000
v -0.11862 -1.03180 3.51324 0.000 0.000 0.000
v -0.10490 -1.01808 3.54240 0.000 0.000 0.000
v -0.11862 -1.03180 3.52440 0.000 0.000 0.000
v -0.13723 -1.05041 3.52440 0.000 0.000 0.000
v -0.13723 -1.05041 3.54240 0.000 0.000 0.000
v -0.15759 -1.02825 3.09366 0.000 0.000 0.000
v -0.14549 -1.04035 3.11310 0.000 0.000 0.000
v -0.14549 -1.04035 3.21120 0.000 0.000 0.000
v -0.15759 -1.02825 3.19394 0.000 0.000 0.000
v -0.16587 -1.01999 3.19394 0.000 0.000 0.000
v -0.16587 -1.01999 3.21120 0.000 0.000 0.000
v -0.69667 -0.73570 3.56940 0.000 0.000 0.000
v -0.68252 -0.72155 3.56940 0.000 0.000 0.000
v -0.69667 -0.73570 3.40740 0.000 0.000 0.000
v -0.68252 -0.72155 3.42630 0.000 0.000 0.000
v -0.57366 -0.61268 3.42630 0.000 0.000 0.000
v -0.57366 -0.61268 3.40740 0.000 0.000 0.000
v -0.83119 -0.87021 3.56940 0.000 0.000 0.000
v -0.81702 -0.85604 3.56940 0.000 0.000 0.000
v -0.83119 -0.87021 3.40380 0.000 0.000 0.000
v -0.81702 -0.85604 3.42180 0.000 0.000 0.000
v -0.73703 -0.77605 3.42180 0.000 0.000 0.000
v -0.75013 -0.78916 3.40380 0.000 0.000 0.000
v -0.75013 -0.78916 3.25350 0.000 0.000 0.000
v -0.73703 -0.77605 3.25350 0.000 0.000 0.000
v -0.86719 -0.90799 3.56940 0.000 0.000 0.000
v -0.88294 -0.92374 3.56940 0.000 0.000 0.000
v -0.86719 -0.90799 3.39390 0.000 0.000 0.000
v -0.88294 -0.92374 3.41460 0.000 0.000 0.000
v -0.95814 -0.99895 3.41460 0.000 0.000 0.000
v -0.94149 -0.98230 3.39390 0.000 0.000 0.000
v -0.95814 -0.99895 3.25620 0.000 0.000 0.000
v -0.94149 -0.98230 3.27780 0.000 0.000 0.000
v -0.79933 -0.84013 3.27780 0.000 0.000 0.000
v -0.93807 -0.97709 3.25710 0.000 0.000 0.000
v -0.92219 -0.96122 3.25710 0.000 0.000 0.000
v -0.93807 -0.97709 3.11400 0.000 0.000 0.000
v -0.92219 -0.96122 3.13351 0.000 0.000 0.000
v -0.87595 -0.91498 3.13351 0.000 0.000 0.000
v -0.87595 -0.91498 3.11400 0.000 0.000 0.000
v -0.81752 -0.85833 3.25620 0.000 0.000 0.000
v -0.85214 -0.89116 3.24450 0.000 0.000 0.000
v -0.70159 -0.74061 3.24450 0.000 0.000 0.000
v -0.83583 -0.87485 3.22470 0.000 0.000 0.000
v -0.85214 -0.89116 3.16710 0.000 0.000 0.000
v -0.83583 -0.87485 3.18780 0.000 0.000 0.000
v -0.79322 -0.83225 3.18780 0.000 0.000 0.000
v -0.80914 -0.84816 3.16710 0.000 0.000 0.000
v -0.79322 -0.83225 3.07980 0.000 0.000 0.000
v -0.80914 -0.84816 3.09866 0.000 0.000 0.000
v -0.87977 -0.91879 3.09866 0.000 0.000 0.000
v -0.87977 -0.91879 3.07980 0.000 0.000 0.000
v -0.71806 -0.75708 3.22470 0.000 0.000 0.000
v -0.71806 -0.75708 3.16235 0.000 0.000 0.000
v -0.70159 -0.74061 3.18265 0.000 0.000 0.000
v -0.64876 -0.68778 3.16235 0.000 0.000 0.000
v -0.66467 -0.70369 3.18265 0.000 0.000 0.000
v -0.66467 -0.70369 3.23820 0.000 0.000 0.000
v -0.64876 -0.68778 3.21824 0.000 0.000 0.000
v -0.57366 -0.61268 3.21824 0.000 0.000 0.000
v -0.57366 -0.61268 3.23820 0.000 0.000 0.000
v -0.72927 -0.76829 3.15148 0.000 0.000 0.000
v -0.66370 -0.70272 3.15148 0.000 0.000 0.000
v -0.71305 -0.75208 3.13151 0.000 0.000 0.000
v -0.67964 -0.71867 3.13151 0.000 0.000 0.000
v -0.71305 -0.75208 3.01050 0.000 0.000 0.000
v -0.67964 -0.71867 2.99520 0.000 0.000 0.000
v -0.66370 -0.70272 2.99520 0.000 0.000 0.000
v -0.57278 -0.61358 3.06374 0.000 0.000 0.000
v -0.57278 -0.61358 3.04423 0.000 0.000 0.000
v -0.72927 -0.76829 3.02861 0.000 0.000 0.000
v -0.84922 -0.88825 3.02861 0.000 0.000 0.000
v -0.84922 -0.88825 3.01050 0.000 0.000 0.000
v -0.75649 -0.79729 2.99520 0.000 0.000 0.000
v -0.77438 -0.81518 2.99520 0.000 0.000 0.000
v -0.90671 -0.94574 3.07980 0.000 0.000 0.000
v -0.99304 -1.03207 3.07980 0.000 0.000 0.000
v -0.99304 -1.03207 3.06090 0.000 0.000 0.000
v -0.92088 -0.95990 3.06090 0.000 0.000 0.000
v -0.92088 -0.95990 2.99520 0.000 0.000 0.000
v -0.90671 -0.94574 2.99520 0.000 0.000 0.000
v -0.81752 -0.85833 3.24360 0.000 0.000 0.000
v -0.79933 -0.84013 3.24360 0.000 0.000 0.000
v -0.66314 -0.70394 3.06374 0.000 0.000 0.000
v -0.66314 -0.70394 3.04423 0.000 0.000 0.000
v -0.75649 -0.79729 3.01140 0.000 0.000 0.000
v -0.77438 -0.81518 3.01140 0.000 0.000 0.000
v -0.51381 -0.67255 3.59190 0.000 0.000 0.000
v -0.49174 -0.69462 3.59190 0.000 0.000 0.000
v -0.79700 -0.95575 3.59190 0.000 0.000 0.000
v -0.75013 -0.95301 3.59190 0.000 0.000 0.000
v -0.47416 -1.22899 3.59190 0.000 0.000 0.000
v -0.49894 -1.25379 3.59190 0.000 0.000 0.000
v -0.49756 -0.87439 3.59100 0.000 0.000 0.000
v -0.52123 -0.89804 3.59100 0.000 0.000 0.000
v -0.40540 -0.78095 3.59010 0.000 0.000 0.000
v -0.38155 -0.80482 3.59010 0.000 0.000 0.000
v -0.21735 -0.96901 3.59136 0.000 0.000 0.000
v -0.19762 -0.98874 3.59136 0.000 0.000 0.000
v -0.63673 -1.38839 3.59136 0.000 0.000 0.000
v -0.61700 -1.40812 3.59136 0.000 0.000 0.000
v -0.78916 -1.02596 3.59136 0.000 0.000 0.000
v -0.76664 -1.04846 3.59136 0.000 0.000 0.000
v -0.87165 -1.15348 3.59136 0.000 0.000 0.000
v -0.89415 -1.13098 3.59136 0.000 0.000 0.000
v -0.73262 -0.80269 3.59100 0.000 0.000 0.000
v -0.75739 -0.82746 3.59100 0.000 0.000 0.000
v -0.67439 -1.11272 3.59100 0.000 0.000 0.000
v -0.77090 -1.25422 3.59100 0.000 0.000 0.000
v -0.79340 -1.23172 3.59100 0.000 0.000 0.000
v -0.67534 -1.15866 3.59100 0.000 0.000 0.000
v -0.51613 -1.27098 3.59100 0.000 0.000 0.000
v -0.53959 -1.29443 3.59100 0.000 0.000 0.000
v -0.62368 -1.20798 3.59136 0.000 0.000 0.000
v -0.60154 -1.23012 3.59136 0.000 0.000 0.000
v -0.72041 -1.30471 3.59136 0.000 0.000 0.000
v -0.69827 -1.32685 3.59136 0.000 0.000 0.000
v -0.24615 -1.12828 3.59100 0.000 0.000 0.000
v -0.22702 -1.10914 3.59100 0.000 0.000 0.000
v -0.40039 -1.21106 3.59136 0.000 0.000 0.000
v -0.51941 -1.33007 3.59136 0.000 0.000 0.000
v -0.48110 -1.32777 3.59136 0.000 0.000 0.000
v -0.40540 -1.25206 3.59136 0.000 0.000 0.000
v -0.36468 -1.24679 3.59136 0.000 0.000 0.000
v -0.38767 -1.26979 3.59136 0.000 0.000 0.000
v -0.46337 -1.34550 3.59136 0.000 0.000 0.000
v -0.48368 -1.36580 3.59136 0.000 0.000 0.000
v -0.60905 -0.81022 3.59100 0.000 0.000 0.000
v -0.58538 -0.78655 3.59100 0.000 0.000 0.000
v -0.55012 -0.97148 3.58920 0.000 0.000 0.000
v -0.52670 -0.94808 3.58920 0.000 0.000 0.000
v -0.35996 -1.11481 3.58920 0.000 0.000 0.000
v -0.38336 -1.13821 3.58920 0.000 0.000 0.000
v -0.68679 -0.84852 3.59100 0.000 0.000 0.000
v -0.71156 -0.87329 3.59100 0.000 0.000 0.000
v -0.29261 -1.08182 3.59100 0.000 0.000 0.000
v -0.27347 -1.06268 3.59100 0.000 0.000 0.000
v -0.64120 -1.06447 3.59010 0.000 0.000 0.000
v -0.66505 -1.04060 3.59010 0.000 0.000 0.000
v -0.49025 -1.28668 2.97324 0.000 0.000 0.000
v -0.63684 -1.38827 2.97324 0.000 0.000 0.000
v -0.61434 -1.41079 2.97324 0.000 0.000 0.000
v -0.53375 -1.28518 2.97324 0.000 0.000 0.000
v -0.80541 -1.01353 2.97324 0.000 0.000 0.000
v -0.75825 -1.01867 2.97324 0.000 0.000 0.000
v -0.74813 -0.95625 2.97324 0.000 0.000 0.000
v -0.74237 -1.00280 2.97324 0.000 0.000 0.000
v -0.56007 -1.18510 2.97324 0.000 0.000 0.000
v -0.56131 -1.14305 2.97324 0.000 0.000 0.000
v -0.44359 -1.06861 2.97324 0.000 0.000 0.000
v -0.48618 -1.06792 2.97324 0.000 0.000 0.000
v -0.68283 -0.87127 2.97324 0.000 0.000 0.000
v -0.66186 -0.85032 2.97324 0.000 0.000 0.000
v -0.46904 -0.87768 2.97540 0.000 0.000 0.000
v -0.49194 -0.85478 2.97540 0.000 0.000 0.000
v -0.94187 -1.04506 2.97324 0.000 0.000 0.000
v -0.58232 -0.68549 2.97324 0.000 0.000 0.000
v -0.58234 -0.73130 2.97324 0.000 0.000 0.000
v -0.24885 -1.01896 2.97324 0.000 0.000 0.000
v -0.29383 -1.01979 2.97324 0.000 0.000 0.000
v -0.46822 -1.19417 2.97324 0.000 0.000 0.000
v -0.42309 -1.19320 2.97324 0.000 0.000 0.000
v -0.36707 -1.24920 2.97324 0.000 0.000 0.000
v -0.39013 -1.27224 2.97324 0.000 0.000 0.000
v -0.89608 -1.04504 2.97324 0.000 0.000 0.000
v -0.66886 -1.31807 2.97324 0.000 0.000 0.000
v -0.64597 -1.29515 2.97324 0.000 0.000 0.000
v -0.57595 -0.93879 2.97540 0.000 0.000 0.000
v -0.55305 -0.96169 2.97540 0.000 0.000 0.000
v -0.63149 -1.42468 3.55320 0.000 0.000 0.000
v -0.63149 -1.42468 3.36870 0.000 0.000 0.000
v -0.65003 -1.40614 3.53000 0.000 0.000 0.000
v -0.73213 -1.32404 3.55320 0.000 0.000 0.000
v -0.73213 -1.32404 3.53000 0.000 0.000 0.000
v -0.71275 -1.34291 3.56940 0.000 0.000 0.000
v -0.73188 -1.32379 3.56940 0.000 0.000 0.000
v -0.65003 -1.40614 3.39030 0.000 0.000 0.000
v -0.70985 -1.34633 3.36870 0.000 0.000 0.000
v -0.69102 -1.36516 3.39030 0.000 0.000 0.000
v -0.69102 -1.36516 3.44610 0.000 0.000 0.000
v -0.70985 -1.34633 3.41973 0.000 0.000 0.000
v -0.80678 -1.24942 3.44610 0.000 0.000 0.000
v -0.78718 -1.26900 3.41973 0.000 0.000 0.000
v -0.80678 -1.24942 3.33990 0.000 0.000 0.000
v -0.78718 -1.26900 3.36307 0.000 0.000 0.000
v -0.74970 -1.30648 3.36307 0.000 0.000 0.000
v -0.76833 -1.28785 3.33990 0.000 0.000 0.000
v -0.74970 -1.30648 3.25890 0.000 0.000 0.000
v -0.76833 -1.28785 3.28500 0.000 0.000 0.000
v -0.86450 -1.19167 3.28500 0.000 0.000 0.000
v -0.86450 -1.19167 3.25890 0.000 0.000 0.000
v -0.87723 -1.17895 3.34215 0.000 0.000 0.000
v -0.99277 -1.06340 3.34215 0.000 0.000 0.000
v -0.99277 -1.06340 3.36825 0.000 0.000 0.000
v -0.89950 -1.15668 3.36825 0.000 0.000 0.000
v -0.89950 -1.15668 3.44610 0.000 0.000 0.000
v -0.87723 -1.17895 3.41696 0.000 0.000 0.000
v -0.82949 -1.22668 3.41696 0.000 0.000 0.000
v -0.85167 -1.20451 3.44610 0.000 0.000 0.000
v -0.85167 -1.20451 3.57030 0.000 0.000 0.000
v -0.82949 -1.22668 3.57030 0.000 0.000 0.000
v -0.91987 -1.13632 3.30435 0.000 0.000 0.000
v -0.99277 -1.06340 3.27825 0.000 0.000 0.000
v -0.99277 -1.06340 3.30435 0.000 0.000 0.000
v -0.94279 -1.11339 3.27825 0.000 0.000 0.000
v -0.94279 -1.11339 3.17880 0.000 0.000 0.000
v -0.91987 -1.13632 3.20101 0.000 0.000 0.000
v -0.64685 -1.40933 3.17880 0.000 0.000 0.000
v -0.66348 -1.39270 3.20101 0.000 0.000 0.000
v -0.66348 -1.39270 3.35128 0.000 0.000 0.000
v -0.64685 -1.40933 3.32910 0.000 0.000 0.000
v -0.58703 -1.46914 3.32910 0.000 0.000 0.000
v -0.58703 -1.46914 3.35128 0.000 0.000 0.000
v -0.74763 -1.30549 3.06630 0.000 0.000 0.000
v -0.73134 -1.32178 3.08875 0.000 0.000 0.000
v -0.64150 -1.41161 3.08875 0.000 0.000 0.000
v -0.65768 -1.39543 3.06630 0.000 0.000 0.000
v -0.65768 -1.39543 2.99520 0.000 0.000 0.000
v -0.64150 -1.41161 2.99520 0.000 0.000 0.000
v -0.80086 -1.25532 3.09960 0.000 0.000 0.000
v -0.78305 -1.27312 3.09960 0.000 0.000 0.000
v -0.78305 -1.27312 2.99520 0.000 0.000 0.000
v -0.80086 -1.25532 2.99520 0.000 0.000 0.000
v -0.84668 -1.20949 3.15545 0.000 0.000 0.000
v -0.84668 -1.20949 2.99520 0.000 0.000 0.000
v -0.86449 -1.19169 2.99520 0.000 0.000 0.000
v -0.86449 -1.19169 3.13195 0.000 0.000 0.000
v -0.92241 -1.13377 3.15545 0.000 0.000 0.000
v -0.90554 -1.15063 3.13195 0.000 0.000 0.000
v -0.90554 -1.15063 3.08880 0.000 0.000 0.000
v -0.92241 -1.13377 3.08880 0.000 0.000 0.000
v -0.86233 -1.19207 3.05375 0.000 0.000 0.000
v -0.86233 -1.19207 3.03025 0.000 0.000 0.000
v -0.99216 -1.06223 3.03025 0.000 0.000 0.000
v -0.99216 -1.06223 3.05375 0.000 0.000 0.000
v -0.65066 -1.40551 3.15450 0.000 0.000 0.000
v -0.62089 -1.43528 3.15450 0.000 0.000 0.000
v -0.62089 -1.43528 3.11670 0.000 0.000 0.000
v -0.65066 -1.40551 3.11670 0.000 0.000 0.000
v -0.71275 -1.34291 3.55230 0.000 0.000 0.000
v -0.73188 -1.32379 3.55230 0.000 0.000 0.000
v -0.74763 -1.30549 3.18060 0.000 0.000 0.000
v -0.73134 -1.32178 3.18060 0.000 0.000 0.000
v -0.11639 1.04045 3.39581 0.000 0.000 0.000
v -0.12307 1.04616 3.41006 0.000 0.000 0.000
v -0.12726 1.03547 3.42223 0.000 0.000 0.000
v -0.12476 1.01903 3.42016 0.000 0.000 0.000
v -0.11808 1.01333 3.40592 0.000 0.000 0.000
v -0.11389 1.02402 3.39374 0.000 0.000 0.000
v -0.12386 1.02942 3.40657 0.000 0.000 0.000
v 0.01692 0.92635 3.11173 0.000 0.000 0.000
v 0.02362 0.92063 3.09749 0.000 0.000 0.000
v 0.02610 0.90421 3.09542 0.000 0.000 0.000
v 0.02192 0.89350 3.10759 0.000 0.000 0.000
v 0.01525 0.89923 3.12185 0.000 0.000 0.000
v 0.01274 0.91564 3.12392 0.000 0.000 0.000
v 0.01613 0.90961 3.10826 0.000 0.000 0.000
v -0.07691 1.16519 3.36424 0.000 0.000 0.000
v -0.08361 1.17092 3.37847 0.000 0.000 0.000
v -0.07958 1.18618 3.38407 0.000 0.000 0.000
v -0.06887 1.19570 3.37543 0.000 0.000 0.000
v -0.06219 1.19000 3.36119 0.000 0.000 0.000
v -0.06622 1.17473 3.35558 0.000 0.000 0.000
v -0.07565 1.18186 3.36798 0.000 0.000 0.000
v 0.05639 1.05111 3.08014 0.000 0.000 0.000
v 0.06307 1.04539 3.06590 0.000 0.000 0.000
v 0.07378 1.05493 3.05726 0.000 0.000 0.000
v 0.07780 1.07017 3.06286 0.000 0.000 0.000
v 0.07112 1.07590 3.07710 0.000 0.000 0.000
v 0.06041 1.06636 3.08576 0.000 0.000 0.000
v 0.06435 1.06205 3.06965 0.000 0.000 0.000
v -0.04639 0.98053 3.24666 0.000 0.000 0.000
v -0.05306 0.98626 3.26090 0.000 0.000 0.000
v -0.05726 0.97556 3.27307 0.000 0.000 0.000
v -0.05476 0.95913 3.27100 0.000 0.000 0.000
v -0.04808 0.95341 3.25676 0.000 0.000 0.000
v -0.04388 0.96412 3.24459 0.000 0.000 0.000
v -0.05387 0.96952 3.25741 0.000 0.000 0.000
v -0.00693 1.10529 3.21507 0.000 0.000 0.000
v -0.01361 1.11101 3.22931 0.000 0.000 0.000
v -0.00959 1.12626 3.23491 0.000 0.000 0.000
v 0.00112 1.13580 3.22627 0.000 0.000 0.000
v 0.00781 1.13008 3.21203 0.000 0.000 0.000
v 0.00378 1.11483 3.20643 0.000 0.000 0.000
v -0.00565 1.12196 3.21881 0.000 0.000 0.000
v 0.03375 0.65056 3.18098 0.000 0.000 0.000
v -0.13307 0.79333 3.53648 0.000 0.000 0.000
v -0.14974 0.79171 3.52931 0.000 0.000 0.000
v 0.01708 0.64892 3.17381 0.000 0.000 0.000
v 0.07299 0.96781 3.05872 0.000 0.937 0.000
v -0.10289 1.11834 3.43354 0.000 0.871 0.000
v 0.05621 0.93460 3.06418 0.000 0.929 0.000
v -0.11968 1.08513 3.43899 0.000 0.878 0.000
v -0.13635 1.08351 3.43183 0.000 0.820 0.000
v 0.03953 0.93298 3.05701 0.000 0.918 0.000
v -0.04968 0.72196 3.35880 0.000 0.882 0.000
v -0.03173 1.00987 3.25159 0.000 0.812 0.000
v -0.01494 1.04308 3.24612 0.000 0.820 0.000
v -0.04840 1.00823 3.24443 0.000 0.847 0.000
v -0.06635 0.72034 3.35164 0.000 0.796 0.000
v -0.09365 0.75960 3.45249 0.000 0.890 0.000
v -0.13120 0.90043 3.50777 0.000 0.863 0.000
v -0.14787 0.89881 3.50060 0.000 0.812 0.000
v -0.11032 0.75798 3.44533 0.000 0.843 0.000
v -0.02237 0.68270 3.25793 0.000 0.843 0.000
v 0.02803 0.74828 3.12579 0.000 0.816 0.000
v 0.04469 0.74990 3.13295 0.000 0.910 0.000
v -0.00571 0.68434 3.26509 0.000 0.890 0.000
v -0.11844 0.76423 3.46181 0.000 0.000 0.000
v -0.10912 0.75625 3.44194 0.000 0.000 0.000
v -0.09131 1.04427 3.33461 0.000 0.000 0.000
v -0.10064 1.05226 3.35448 0.000 0.000 0.000
v -0.09175 0.75794 3.44939 0.000 0.000 0.000
v -0.10107 0.76594 3.46928 0.000 0.000 0.000
v -0.09054 0.77731 3.44219 0.000 0.000 0.000
v -0.09986 0.78529 3.46207 0.000 0.000 0.000
v -0.00653 0.97171 3.15396 0.000 0.000 0.000
v 0.00281 0.96372 3.13407 0.000 0.000 0.000
v -0.01499 0.67570 3.24140 0.000 0.000 0.000
v -0.02434 0.68369 3.26128 0.000 0.000 0.000
v 0.00236 0.67739 3.24886 0.000 0.000 0.000
v -0.00697 0.68539 3.26875 0.000 0.000 0.000
v 0.00356 0.69676 3.24166 0.000 0.000 0.000
v -0.00576 0.70475 3.26153 0.000 0.000 0.000
v -0.13469 1.12405 3.41633 0.000 0.824 0.000
v -0.04675 1.04877 3.22891 0.000 0.804 0.000
v -0.14027 1.08551 3.42918 0.000 0.831 0.000
v -0.05233 1.01025 3.24176 0.000 0.808 0.000
v 0.04120 0.97351 3.04151 0.000 0.824 0.000
v 0.03560 0.93497 3.05437 0.000 0.831 0.000
v -0.08946 1.08511 3.31907 0.000 0.000 0.000
v -0.09524 1.04629 3.33196 0.000 0.000 0.000
v -0.09878 1.09310 3.33895 0.000 0.000 0.000
v -0.10456 1.05426 3.35183 0.000 0.000 0.000
v -0.00113 0.96574 3.13142 0.000 0.000 0.000
v -0.01046 0.97373 3.15130 0.000 0.000 0.000
v 0.00464 1.00458 3.11854 0.000 0.000 0.000
v -0.00468 1.01255 3.13841 0.000 0.000 0.000
v 0.22972 1.27010 3.02411 0.000 0.000 0.000
v 0.06289 1.41289 3.37961 0.000 0.000 0.000
v 0.04898 1.42000 3.37023 0.000 0.000 0.000
v 0.21580 1.27721 3.01473 0.000 0.000 0.000
v 0.07789 1.00316 3.04682 0.000 0.929 0.000
v -0.09799 1.15369 3.42164 0.000 0.878 0.000
v -0.11191 1.16080 3.41226 0.000 0.820 0.000
v 0.06399 1.01027 3.03745 0.000 0.918 0.000
v 0.14627 1.34152 3.20193 0.000 0.882 0.000
v -0.01006 1.07842 3.23422 0.000 0.812 0.000
v -0.02396 1.08553 3.22484 0.000 0.847 0.000
v 0.13237 1.34863 3.19255 0.000 0.796 0.000
v 0.10229 1.37916 3.29562 0.000 0.890 0.000
v 0.00229 1.32248 3.40090 0.000 0.863 0.000
v -0.01161 1.32959 3.39152 0.000 0.812 0.000
v 0.08840 1.38627 3.28624 0.000 0.843 0.000
v 0.17635 1.31099 3.09884 0.000 0.843 0.000
v 0.16427 1.17905 3.01671 0.000 0.816 0.000
v 0.17818 1.17194 3.02611 0.000 0.910 0.000
v 0.19024 1.30388 3.10822 0.000 0.890 0.000
v 0.08055 1.39334 3.30251 0.000 0.000 0.000
v 0.08987 1.38537 3.28264 0.000 0.000 0.000
v -0.06665 1.12221 3.31488 0.000 0.000 0.000
v -0.07598 1.13018 3.33475 0.000 0.000 0.000
v 0.10436 1.37795 3.29242 0.000 0.000 0.000
v 0.09502 1.38595 3.31229 0.000 0.000 0.000
v 0.09383 1.36026 3.29458 0.000 0.000 0.000
v 0.08451 1.36825 3.31447 0.000 0.000 0.000
v 0.01813 1.04965 3.13421 0.000 0.000 0.000
v 0.02745 1.04166 3.11434 0.000 0.000 0.000
v 0.18398 1.30482 3.08210 0.000 0.000 0.000
v 0.17465 1.31281 3.10198 0.000 0.000 0.000
v 0.19847 1.29742 3.09188 0.000 0.000 0.000
v 0.18913 1.30540 3.11175 0.000 0.000 0.000
v 0.18794 1.27973 3.09404 0.000 0.000 0.000
v 0.17861 1.28770 3.11393 0.000 0.000 0.000
v -0.11662 1.16033 3.41023 0.000 0.831 0.000
v -0.02867 1.08508 3.22283 0.000 0.808 0.000
v 0.05927 1.00980 3.03541 0.000 0.831 0.000
v -0.07137 1.12174 3.31285 0.000 0.000 0.000
v -0.08069 1.12973 3.33274 0.000 0.000 0.000
v 0.02273 1.04121 3.11231 0.000 0.000 0.000
v 0.01341 1.04918 3.13220 0.000 0.000 0.000
v -0.15363 0.80631 3.53506 0.000 0.000 0.000
v -0.13696 0.80793 3.54222 0.000 0.000 0.000
v 0.05252 1.40701 3.39053 0.000 0.000 0.000
v 0.03861 1.41412 3.38116 0.000 0.000 0.000
v 0.03892 0.65727 3.16746 0.000 0.000 0.000
v 0.02225 0.65563 3.16028 0.000 0.000 0.000
v 0.22847 1.25660 3.01570 0.000 0.000 0.000
v 0.21458 1.26371 3.00632 0.000 0.000 0.000
v 0.08996 0.67783 3.19869 0.000 0.000 0.000
v 0.26388 1.22769 3.05946 0.000 0.000 0.000
v -0.07537 0.81932 3.55102 0.000 0.000 0.000
v 0.09855 1.36919 3.41179 0.000 0.000 0.000
v -0.13399 0.80492 3.52930 0.000 0.000 0.000
v 0.05485 1.40193 3.37813 0.000 0.000 0.000
v 0.03134 0.66343 3.17696 0.000 0.000 0.000
v 0.22018 1.26043 3.02580 0.000 0.000 0.000
v 0.06944 0.97202 3.07089 0.000 0.000 0.000
v -0.09590 1.11352 3.42322 0.000 0.000 0.000
v -0.09970 1.11420 3.42117 0.000 0.000 0.000
v 0.06563 0.97270 3.06884 0.000 0.000 0.000
v 0.09427 0.83342 3.13821 0.000 0.000 0.000
v -0.07106 0.97492 3.49054 0.000 0.000 0.000
v 0.00925 1.22882 3.42625 0.000 0.000 0.000
v 0.17458 1.08733 3.07393 0.000 0.000 0.000
v 0.04847 0.93825 3.07463 0.000 0.000 0.000
v -0.11686 1.07975 3.42695 0.000 0.000 0.000
v 0.07094 1.00928 3.05663 0.000 0.000 0.000
v -0.09439 1.15079 3.40897 0.000 0.000 0.000
v 0.07184 1.06839 2.17521 0.588 0.000 0.000
v 0.00000 1.01759 2.12441 0.682 0.000 0.000
v 0.00000 1.11919 2.22601 0.733 0.000 0.000
v -0.07184 1.06839 2.17521 0.788 0.000 0.000
v 0.00000 1.19101 2.15419 0.851 0.000 0.000
v 0.07184 1.14021 2.10339 0.843 0.000 0.000
v -0.07184 1.14021 2.10339 0.839 0.000 0.000
v 0.00000 1.08941 2.05259 0.824 0.000 0.000
v -0.07184 1.14021 2.10339 0.627 0.000 0.000
v 0.00000 1.08941 2.05259 0.773 0.000 0.000
v -0.07184 1.06839 2.17521 0.733 0.000 0.000
v 0.00000 1.01759 2.12441 0.788 0.000 0.000
v 0.07184 1.06839 2.17521 0.733 0.000 0.000
v 0.07184 1.14021 2.10339 0.627 0.000 0.000
v 0.00000 1.11919 2.22601 0.788 0.000 0.000
v 0.00000 1.19101 2.15419 0.773 0.000 0.000
v -0.16870 -1.01333 3.59136 0.000 0.000 0.792
v -0.13442 -1.04760 3.59136 0.000 0.000 0.604
v -0.57150 -1.48468 3.59136 0.000 0.000 0.686
v -1.00858 -1.04760 3.59136 0.000 0.000 0.624
v -0.57150 -1.48468 2.97324 0.000 0.000 0.863
v -0.53723 -0.64480 2.97324 0.000 0.000 0.875
v -0.57150 -0.61052 2.97324 0.000 0.000 0.835
v -1.00858 -1.04760 2.97324 0.000 0.000 0.686
v -1.00858 -1.04760 3.59136 0.000 0.000 0.686
v -0.57150 -1.48468 3.59136 0.000 0.000 0.686
v -0.53723 -0.64480 3.59136 0.000 0.000 0.792
v -0.57150 -0.61052 3.59136 0.000 0.000 0.604
v -0.57150 -1.48468 2.97324 0.000 0.000 0.686
v -0.16870 -1.01333 2.97324 0.000 0.000 0.875
v -0.13442 -1.04760 2.97324 0.000 0.000 0.835
v -1.00858 -1.04760 2.97324 0.000 0.000 0.686
v -0.79004 -1.26614 3.59136 0.000 0.000 0.722
v -0.15289 -1.06607 3.59136 0.000 0.000 0.690
v -0.13442 -1.04760 3.54289 0.000 0.000 0.769
v -0.13442 -1.04760 3.59136 0.000 0.000 0.682
v -0.58997 -0.62899 3.59136 0.000 0.000 0.690
v -0.57150 -0.61052 3.54289 0.000 0.000 0.769
v -0.57150 -0.61052 3.59136 0.000 0.000 0.682
v -0.15289 -1.06607 2.97324 0.000 0.000 0.690
v -0.13442 -1.04760 3.02171 0.000 0.000 0.769
v -0.13442 -1.04760 2.97324 0.000 0.000 0.682
v -0.79004 -1.26614 2.97324 0.000 0.000 0.722
v -0.58997 -0.62899 2.97324 0.000 0.000 0.690
v -0.57150 -0.61052 3.02171 0.000 0.000 0.769
v -0.57150 -0.61052 2.97324 0.000 0.000 0.682
v -0.57150 -0.61484 2.97630 0.000 0.000 0.871
v -0.13874 -1.04760 2.97630 0.000 0.000 0.875
v -1.00426 -1.04760 2.97630 0.000 0.000 0.875
v -0.57150 -1.48036 2.97630 0.000 0.000 0.875
v -0.13874 -1.04760 2.97630 0.000 0.000 0.776
v -0.57150 -0.61484 2.97630 0.000 0.000 0.776
v -1.00426 -1.04760 3.58830 0.000 0.000 0.824
v -1.00426 -1.04760 2.97630 0.000 0.000 0.776
v -0.13874 -1.04760 3.58830 0.000 0.000 0.788
v -0.16618 -1.02017 3.01509 0.000 0.000 0.706
v -0.13874 -1.04760 2.97630 0.000 0.000 0.714
v -0.57150 -0.61484 3.58830 0.000 0.000 0.788
v -0.57150 -0.61484 2.97630 0.000 0.000 0.722
v -0.54407 -0.64228 3.01509 0.000 0.000 0.714
v -0.56889 -1.42288 3.01509 0.000 0.000 0.933
v -0.16618 -1.02017 3.01509 0.000 0.000 0.784
v -0.94678 -1.04499 3.01509 0.000 0.000 0.941
v -0.54407 -0.64228 3.01509 0.000 0.000 0.792
v -0.56889 -1.42288 3.54951 0.000 0.000 0.925
v -0.16618 -1.02017 3.54951 0.000 0.000 0.871
v -0.56889 -1.42288 3.01509 0.000 0.000 0.937
v -0.16618 -1.02017 3.01509 0.000 0.000 0.855
v -0.54407 -0.64228 3.54951 0.000 0.000 0.871
v -0.94678 -1.04499 3.54951 0.000 0.000 0.925
v -0.54407 -0.64228 3.01509 0.000 0.000 0.855
v -0.94678 -1.04499 3.01509 0.000 0.000 0.937
v -0.94678 -1.04499 3.54951 0.000 0.000 0.937
v -0.54407 -0.64228 3.54951 0.000 0.000 0.890
v -0.56889 -1.42288 3.54951 0.000 0.000 0.937
v -0.16618 -1.02017 3.54951 0.000 0.000 0.886
v -0.45085 -0.91930 3.46334 0.000 0.000 0.000
v -0.47092 -0.87734 3.46334 0.000 0.000 0.000
v -0.69712 -1.16559 3.46334 0.000 0.000 0.000
v -0.45085 -0.91930 3.46334 0.000 0.000 0.000
v -0.45085 -0.91930 3.01302 0.000 0.000 0.000
v -0.25686 -1.11328 3.46334 0.000 0.000 0.000
v -0.27688 -1.07138 3.46334 0.000 0.000 0.000
v -0.57150 -0.61484 3.58830 0.000 0.000 0.753
v -1.00426 -1.04760 3.58830 0.000 0.000 0.725
v -0.13874 -1.04760 3.58830 0.000 0.000 0.757
v -0.57150 -1.48036 3.58830 0.000 0.000 0.733
v -0.56506 -1.29766 3.46334 0.000 0.000 0.000
v -0.31878 -1.05136 3.46334 0.000 0.000 0.000
v -0.62698 -1.23574 3.46334 0.000 0.000 0.000
v -0.38068 -0.98946 3.46334 0.000 0.000 0.000
v -0.31878 -1.05136 3.46334 0.000 0.000 0.000
v -0.33878 -1.00946 3.46334 0.000 0.000 0.000
v -0.57656 -0.79358 3.46334 0.000 0.000 0.000
v -0.59611 -0.75213 3.46334 0.000 0.000 0.000
v -0.75919 -1.10353 3.46334 0.000 0.000 0.000
v -0.51289 -0.85725 3.46334 0.000 0.000 0.000
v -0.82283 -1.03988 3.46334 0.000 0.000 0.000
v -0.57656 -0.79358 3.46334 0.000 0.000 0.000
v -0.51289 -0.85725 3.46334 0.000 0.000 0.000
v -0.53377 -0.81446 3.46334 0.000 0.000 0.000
v -0.31878 -1.05136 3.01302 0.000 0.000 0.000
v -0.31878 -1.05136 3.46334 0.000 0.000 0.000
v -0.38068 -0.98946 3.01302 0.000 0.000 0.000
v -0.38068 -0.98946 3.46334 0.000 0.000 0.000
v -0.51289 -0.85725 3.01302 0.000 0.000 0.000
v -0.51289 -0.85725 3.46334 0.000 0.000 0.000
v -0.57656 -0.79358 3.01302 0.000 0.000 0.000
v -0.57656 -0.79358 3.46334 0.000 0.000 0.000
v -0.63756 -0.73258 3.46334 0.000 0.000 0.000
v -0.16618 -1.02017 3.54951 0.000 0.000 0.776
v -0.54407 -0.64228 3.54951 0.000 0.000 0.776
v -0.13874 -1.04760 3.58830 0.000 0.000 0.788
v -0.57150 -0.61484 3.58830 0.000 0.000 0.788
v -0.13633 -1.04951 3.09366 0.000 0.000 0.000
v -0.13633 -1.04951 3.11310 0.000 0.000 0.000
v -0.11968 1.08513 3.43899 0.000 0.863 0.000
v -0.10289 1.11834 3.43354 0.000 0.882 0.000
v 0.07299 0.96781 3.05872 0.000 0.871 0.000
v 0.05621 0.93460 3.06418 0.000 0.878 0.000
v -0.11968 1.08513 3.43899 0.000 0.878 0.000
v -0.03173 1.00987 3.25159 0.000 0.812 0.000
v -0.13120 0.90043 3.50777 0.000 0.820 0.000
v -0.13635 1.08351 3.43183 0.000 0.859 0.000
v -0.14787 0.89881 3.50060 0.000 0.816 0.000
v -0.09365 0.75960 3.45249 0.000 0.855 0.000
v -0.11032 0.75798 3.44533 0.000 0.835 0.000
v -0.04968 0.72196 3.35880 0.000 0.847 0.000
v -0.06635 0.72034 3.35164 0.000 0.827 0.000
v 0.03953 0.93298 3.05701 0.000 0.859 0.000
v 0.02803 0.74828 3.12579 0.000 0.906 0.000
v 0.05621 0.93460 3.06418 0.000 0.878 0.000
v 0.04469 0.74990 3.13295 0.000 0.863 0.000
v -0.00571 0.68434 3.26509 0.000 0.855 0.000
v -0.02237 0.68270 3.25793 0.000 0.835 0.000
v -0.11844 0.76423 3.46181 0.000 0.000 0.000
v -0.10912 0.75625 3.44194 0.000 0.000 0.000
v -0.10107 0.76594 3.46928 0.000 0.000 0.000
v -0.09175 0.75794 3.44939 0.000 0.000 0.000
v -0.01499 0.67570 3.24140 0.000 0.000 0.000
v -0.02434 0.68369 3.26128 0.000 0.000 0.000
v 0.00236 0.67739 3.24886 0.000 0.000 0.000
v -0.00697 0.68539 3.26875 0.000 0.000 0.000
v -0.14027 1.08551 3.42918 0.000 0.800 0.000
v -0.13469 1.12405 3.41633 0.000 0.812 0.000
v -0.14027 1.08551 3.42918 0.000 0.847 0.000
v -0.05233 1.01025 3.24176 0.000 0.827 0.000
v 0.03560 0.93497 3.05437 0.000 0.906 0.000
v 0.04120 0.97351 3.04151 0.000 0.910 0.000
v 0.03560 0.93497 3.05437 0.000 0.847 0.000
v -0.10064 1.05226 3.35448 0.000 0.000 0.000
v -0.10456 1.05426 3.35183 0.000 0.000 0.000
v -0.09131 1.04427 3.33461 0.000 0.000 0.000
v -0.09524 1.04629 3.33196 0.000 0.000 0.000
v -0.00653 0.97171 3.15396 0.000 0.000 0.000
v -0.01046 0.97373 3.15130 0.000 0.000 0.000
v 0.00281 0.96372 3.13407 0.000 0.000 0.000
v -0.00113 0.96574 3.13142 0.000 0.000 0.000
v -0.09799 1.15369 3.42164 0.000 0.863 0.000
v 0.07789 1.00316 3.04682 0.000 0.878 0.000
v -0.09799 1.15369 3.42164 0.000 0.878 0.000
v -0.01006 1.07842 3.23422 0.000 0.812 0.000
v 0.00229 1.32248 3.40090 0.000 0.820 0.000
v -0.11191 1.16080 3.41226 0.000 0.859 0.000
v -0.01161 1.32959 3.39152 0.000 0.816 0.000
v 0.10229 1.37916 3.29562 0.000 0.855 0.000
v 0.14627 1.34152 3.20193 0.000 0.847 0.000
v 0.08840 1.38627 3.28624 0.000 0.835 0.000
v 0.13237 1.34863 3.19255 0.000 0.827 0.000
v 0.06399 1.01027 3.03745 0.000 0.859 0.000
v 0.16427 1.17905 3.01671 0.000 0.906 0.000
v 0.07789 1.00316 3.04682 0.000 0.878 0.000
v 0.17818 1.17194 3.02611 0.000 0.863 0.000
v 0.19024 1.30388 3.10822 0.000 0.855 0.000
v 0.17635 1.31099 3.09884 0.000 0.835 0.000
v 0.08055 1.39334 3.30251 0.000 0.000 0.000
v 0.08987 1.38537 3.28264 0.000 0.000 0.000
v 0.09502 1.38595 3.31229 0.000 0.000 0.000
v 0.10436 1.37795 3.29242 0.000 0.000 0.000
v 0.18398 1.30482 3.08210 0.000 0.000 0.000
v 0.17465 1.31281 3.10198 0.000 0.000 0.000
v 0.19847 1.29742 3.09188 0.000 0.000 0.000
v 0.18913 1.30540 3.11175 0.000 0.000 0.000
v -0.11662 1.16033 3.41023 0.000 0.800 0.000
v -0.11662 1.16033 3.41023 0.000 0.847 0.000
v -0.02867 1.08508 3.22283 0.000 0.827 0.000
v 0.05927 1.00980 3.03541 0.000 0.906 0.000
v 0.05927 1.00980 3.03541 0.000 0.847 0.000
v -0.07598 1.13018 3.33475 0.000 0.000 0.000
v -0.06665 1.12221 3.31488 0.000 0.000 0.000
v -0.08069 1.12973 3.33274 0.000 0.000 0.000
v -0.07137 1.12174 3.31285 0.000 0.000 0.000
v 0.01813 1.04965 3.13421 0.000 0.000 0.000
v 0.02745 1.04166 3.11434 0.000 0.000 0.000
v 0.01341 1.04918 3.13220 0.000 0.000 0.000
v 0.02273 1.04121 3.11231 0.000 0.000 0.000
v -0.11032 0.75798 3.44533 0.000 0.000 0.000
v -0.09365 0.75960 3.45249 0.000 0.000 0.000
v -0.14787 0.89881 3.50060 0.000 0.000 0.000
v -0.11032 0.75798 3.44533 0.000 0.000 0.000
v -0.15363 0.80631 3.53506 0.000 0.000 0.000
v -0.14974 0.79171 3.52931 0.000 0.000 0.000
v -0.13120 0.90043 3.50777 0.000 0.000 0.000
v -0.14787 0.89881 3.50060 0.000 0.000 0.000
v -0.09365 0.75960 3.45249 0.000 0.000 0.000
v -0.13120 0.90043 3.50777 0.000 0.000 0.000
v -0.13307 0.79333 3.53648 0.000 0.000 0.000
v -0.13696 0.80793 3.54222 0.000 0.000 0.000
v 0.10229 1.37916 3.29562 0.000 0.000 0.000
v 0.06289 1.41289 3.37961 0.000 0.000 0.000
v 0.00229 1.32248 3.40090 0.000 0.000 0.000
v 0.05252 1.40701 3.39053 0.000 0.000 0.000
v -0.01161 1.32959 3.39152 0.000 0.000 0.000
v 0.00229 1.32248 3.40090 0.000 0.000 0.000
v -0.01161 1.32959 3.39152 0.000 0.000 0.000
v 0.03861 1.41412 3.38116 0.000 0.000 0.000
v 0.08840 1.38627 3.28624 0.000 0.000 0.000
v 0.04898 1.42000 3.37023 0.000 0.000 0.000
v 0.10229 1.37916 3.29562 0.000 0.000 0.000
v 0.08840 1.38627 3.28624 0.000 0.000 0.000
v -0.00571 0.68434 3.26509 0.000 0.000 0.000
v -0.02237 0.68270 3.25793 0.000 0.000 0.000
v 0.04469 0.74990 3.13295 0.000 0.000 0.000
v -0.00571 0.68434 3.26509 0.000 0.000 0.000
v 0.03892 0.65727 3.16746 0.000 0.000 0.000
v 0.03375 0.65056 3.18098 0.000 0.000 0.000
v 0.02803 0.74828 3.12579 0.000 0.000 0.000
v 0.04469 0.74990 3.13295 0.000 0.000 0.000
v 0.02803 0.74828 3.12579 0.000 0.000 0.000
v 0.02225 0.65563 3.16028 0.000 0.000 0.000
v -0.02237 0.68270 3.25793 0.000 0.000 0.000
v 0.01708 0.64892 3.17381 0.000 0.000 0.000
v 0.17818 1.17194 3.02611 0.000 0.000 0.000
v 0.22847 1.25660 3.01570 0.000 0.000 0.000
v 0.19024 1.30388 3.10822 0.000 0.000 0.000
v 0.22972 1.27010 3.02411 0.000 0.000 0.000
v 0.19024 1.30388 3.10822 0.000 0.000 0.000
v 0.17635 1.31099 3.09884 0.000 0.000 0.000
v 0.17635 1.31099 3.09884 0.000 0.000 0.000
v 0.21580 1.27721 3.01473 0.000 0.000 0.000
v 0.16427 1.17905 3.01671 0.000 0.000 0.000
v 0.21458 1.26371 3.00632 0.000 0.000 0.000
v 0.17818 1.17194 3.02611 0.000 0.000 0.000
v 0.16427 1.17905 3.01671 0.000 0.000 0.000
v -0.07537 0.81932 3.55102 0.000 0.000 0.000
v -0.07106 0.97492 3.49054 0.000 0.000 0.000
v 0.08996 0.67783 3.19869 0.000 0.000 0.000
v 0.09427 0.83342 3.13821 0.000 0.000 0.000
v -0.07537 0.81932 3.55102 0.000 0.000 0.000
v -0.13399 0.80492 3.52930 0.000 0.000 0.000
v 0.08996 0.67783 3.19869 0.000 0.000 0.000
v 0.03134 0.66343 3.17696 0.000 0.000 0.000
v 0.09855 1.36919 3.41179 0.000 0.000 0.000
v 0.26388 1.22769 3.05946 0.000 0.000 0.000
v 0.05485 1.40193 3.37813 0.000 0.000 0.000
v 0.09855 1.36919 3.41179 0.000 0.000 0.000
v 0.00925 1.22882 3.42625 0.000 0.000 0.000
v 0.22018 1.26043 3.02580 0.000 0.000 0.000
v 0.26388 1.22769 3.05946 0.000 0.000 0.000
v 0.17458 1.08733 3.07393 0.000 0.000 0.000
v 0.06944 0.97202 3.07089 0.000 0.000 0.000
v -0.09590 1.11352 3.42322 0.000 0.000 0.000
vt 0.50781 0.91406
vt 0.50781 0.96094
vt 0.55469 0.99219
vt 0.50781 0.96094
vt 0.50781 0.91406
vt 0.55469 0.88281
vt 0.50781 0.91406
vt 0.50781 0.96094
vt 0.55469 0.99219
vt 0.50781 0.96094
vt 0.50781 0.91406
vt 0.55469 0.88281
vt 0.50781 0.91406
vt 0.50781 0.96094
vt 0.55469 0.99219
vt 0.50781 0.96094
vt 0.50781 0.91406
vt 0.55469 0.88281
vt 0.50781 0.91406
vt 0.50781 0.96094
vt 0.55469 0.99219
vt 0.50781 0.96094
vt 0.50781 0.91406
vt 0.55469 0.88281
vt 0.55469 0.99219
vt 0.50781 0.96094
vt 0.50781 0.91406
vt 0.55469 0.88281
vt 0.50781 0.91406
vt 0.50781 0.96094
vt 0.57031 0.99219
vt 0.57031 0.88281
vt 0.61719 0.91406
vt 0.61719 0.96094
vt 0.61719 0.96094
vt 0.61719 0.91406
vt 0.00781 0.25781
vt 0.24219 0.25781
vt 0.00781 0.49219
vt 0.24219 0.49219
vt 0.25781 0.24219
vt 0.49219 0.24219
vt 0.24219 0.25781
vt 0.00781 0.25781
vt 0.92969 0.86719
vt 0.99219 0.80469
vt 0.99219 0.86719
vt 0.94531 0.08594
vt 0.91406 0.08594
vt 0.96094 0.03906
vt 0.94531 0.82031
vt 0.96094 0.74219
vt 0.91406 0.78906
vt 0.96094 0.74219
vt 0.96094 0.74219
vt 0.99219 0.38281
vt 0.96094 0.38281
vt 0.96094 0.38281
vt 0.94531 0.42969
vt 0.91406 0.42969
vt 0.91406 0.78906
vt 0.96094 0.74219
vt 0.96094 0.38281
vt 0.92969 0.86719
vt 0.99219 0.80469
vt 0.99219 0.86719
vt 0.94531 0.08594
vt 0.91406 0.08594
vt 0.96094 0.03906
vt 0.99219 0.77344
vt 0.96094 0.74219
vt 0.91406 0.78906
vt 0.96094 0.74219
vt 0.96094 0.74219
vt 0.99219 0.38281
vt 0.96094 0.38281
vt 0.96094 0.38281
vt 0.91406 0.78906
vt 0.96094 0.74219
vt 0.92969 0.86719
vt 0.99219 0.80469
vt 0.99219 0.86719
vt 0.89844 0.13281
vt 0.86719 0.13281
vt 0.96094 0.03906
vt 0.99219 0.77344
vt 0.96094 0.74219
vt 0.86719 0.83594
vt 0.96094 0.74219
vt 0.96094 0.74219
vt 0.89844 0.47656
vt 0.86719 0.47656
vt 0.86719 0.83594
vt 0.96094 0.74219
vt 0.96094 0.38281
vt 0.92969 0.86719
vt 0.99219 0.80469
vt 0.99219 0.86719
vt 0.89844 0.13281
vt 0.86719 0.13281
vt 0.96094 0.03906
vt 0.89844 0.86719
vt 0.96094 0.74219
vt 0.86719 0.83594
vt 0.96094 0.74219
vt 0.96094 0.74219
vt 0.86719 0.83594
vt 0.96094 0.74219
vt 0.50781 0.86719
vt 0.22656 0.86719
vt 0.75781 0.99219
vt 0.75781 0.99219
vt 0.75781 0.99219
vt 0.86719 0.99219
vt 0.75781 0.88281
vt 0.86719 0.88281
vt 0.24219 0.85156
vt 0.49219 0.85156
vt 0.24219 0.78906
vt 0.24219 0.78906
vt 0.21094 0.72656
vt 0.00781 0.72656
vt 0.21094 0.92969
vt 0.00781 0.92969
vt 0.41406 0.25781
vt 0.49219 0.25781
vt 0.49219 0.42969
vt 0.41406 0.42969
vt 0.22656 0.91406
vt 0.22656 0.97656
vt 0.85156 0.33594
vt 0.41406 0.25781
vt 0.85156 0.32031
vt 0.72656 0.32031
vt 0.41406 0.42969
vt 0.00781 0.94531
vt 0.72656 0.16406
vt 0.85156 0.16406
vt 0.30469 0.52344
vt 0.30469 0.57031
vt 0.27344 0.57031
vt 0.27344 0.52344
vt 0.30469 0.57031
vt 0.28906 0.57031
vt 0.30469 0.52344
vt 0.28906 0.52344
vt 0.28906 0.72656
vt 0.28906 0.75781
vt 0.25781 0.75781
vt 0.25781 0.72656
vt 0.25781 0.72656
vt 0.25781 0.75781
vt 0.28906 0.75781
vt 0.28906 0.72656
vt 0.49219 0.74219
vt 0.49219 0.77344
vt 0.46094 0.77344
vt 0.46094 0.74219
vt 0.46094 0.74219
vt 0.46094 0.75781
vt 0.47656 0.75781
vt 0.47656 0.74219
vt 0.46094 0.74219
vt 0.49219 0.74219
vt 0.49219 0.74219
vt 0.49219 0.74219
vt 0.42969 0.74219
vt 0.42969 0.74219
vt 0.49219 0.72656
vt 0.49219 0.67969
vt 0.50781 0.72656
vt 0.49219 0.25781
vt 0.49219 0.42969
vt 0.00781 0.97656
vt 0.41406 0.25781
vt 0.41406 0.42969
vt 0.22656 0.97656
vt 0.49219 0.25781
vt 0.49219 0.42969
vt 0.22656 0.94531
vt 0.46094 0.42969
vt 0.00781 0.96094
vt 0.44531 0.42969
vt 0.00781 0.99219
vt 0.44531 0.42969
vt 0.22656 0.92969
vt 0.44531 0.42969
vt 0.22656 0.96094
vt 0.44531 0.42969
vt 0.22656 0.99219
vt 0.49219 0.77344
vt 0.50781 0.77344
vt 0.49219 0.72656
vt 0.50781 0.72656
vt 0.50781 0.69531
vt 0.50781 0.69531
vt 0.50781 0.67969
vt 0.27344 0.61719
vt 0.25781 0.61719
vt 0.25781 0.57031
vt 0.27344 0.57031
vt 0.27344 0.58594
vt 0.25781 0.58594
vt 0.25781 0.60156
vt 0.27344 0.60156
vt 0.33594 0.74219
vt 0.33594 0.77344
vt 0.33594 0.77344
vt 0.33594 0.75781
vt 0.36719 0.75781
vt 0.35156 0.74219
vt 0.36719 0.72656
vt 0.35156 0.72656
vt 0.32031 0.72656
vt 0.33594 0.72656
vt 0.36719 0.71094
vt 0.27344 0.71094
vt 0.28906 0.71094
vt 0.28906 0.75781
vt 0.27344 0.74219
vt 0.22656 0.74219
vt 0.35156 0.71094
vt 0.36719 0.63281
vt 0.35156 0.64844
vt 0.30469 0.64844
vt 0.32031 0.63281
vt 0.32031 0.57031
vt 0.30469 0.57031
vt 0.24219 0.57031
vt 0.24219 0.57031
vt 0.32031 0.58594
vt 0.41406 0.58594
vt 0.41406 0.58594
vt 0.32031 0.52344
vt 0.32031 0.53906
vt 0.24219 0.53906
vt 0.24219 0.52344
vt 0.35156 0.61719
vt 0.35156 0.60156
vt 0.42969 0.60156
vt 0.38281 0.61719
vt 0.42969 0.61719
vt 0.39844 0.61719
vt 0.38281 0.66406
vt 0.39844 0.64844
vt 0.44531 0.64844
vt 0.44531 0.66406
vt 0.36719 0.55469
vt 0.36719 0.53906
vt 0.42969 0.55469
vt 0.42969 0.53906
vt 0.42969 0.52344
vt 0.44531 0.52344
vt 0.42969 0.57031
vt 0.44531 0.57031
vt 0.49219 0.57031
vt 0.49219 0.57031
vt 0.39844 0.77344
vt 0.39844 0.77344
vt 0.39844 0.74219
vt 0.39844 0.74219
vt 0.46094 0.74219
vt 0.46094 0.74219
vt 0.46094 0.71094
vt 0.46094 0.72656
vt 0.42969 0.72656
vt 0.44531 0.71094
vt 0.44531 0.69531
vt 0.42969 0.71094
vt 0.41406 0.71094
vt 0.41406 0.69531
vt 0.41406 0.67969
vt 0.41406 0.69531
vt 0.46094 0.69531
vt 0.46094 0.67969
vt 0.46094 0.64844
vt 0.46094 0.64844
vt 0.50781 0.67969
vt 0.50781 0.66406
vt 0.47656 0.66406
vt 0.49219 0.66406
vt 0.47656 0.60156
vt 0.49219 0.60156
vt 0.50781 0.60156
vt 0.50781 0.60156
vt 0.27344 0.67969
vt 0.27344 0.60156
vt 0.28906 0.60156
vt 0.28906 0.66406
vt 0.32031 0.66406
vt 0.32031 0.67969
vt 0.46094 0.67969
vt 0.46094 0.66406
vt 0.32031 0.71094
vt 0.33594 0.71094
vt 0.35156 0.58594
vt 0.35156 0.58594
vt 0.39844 0.58594
vt 0.38281 0.58594
vt 0.38281 0.55469
vt 0.39844 0.55469
vt 0.32031 0.58594
vt 0.24219 0.75781
vt 0.22656 0.75781
vt 0.24219 0.75781
vt 0.24219 0.75781
vt 0.24219 0.75781
vt 0.49219 0.57031
vt 0.49219 0.57031
vt 0.49219 0.61719
vt 0.49219 0.60156
vt 0.49219 0.60156
vt 0.49219 0.61719
vt 0.33594 0.77344
vt 0.33594 0.77344
vt 0.33594 0.71094
vt 0.33594 0.71094
vt 0.27344 0.71094
vt 0.27344 0.71094
vt 0.41406 0.77344
vt 0.39844 0.77344
vt 0.41406 0.69531
vt 0.39844 0.71094
vt 0.36719 0.71094
vt 0.36719 0.69531
vt 0.36719 0.63281
vt 0.36719 0.63281
vt 0.42969 0.77344
vt 0.44531 0.77344
vt 0.42969 0.69531
vt 0.44531 0.71094
vt 0.49219 0.71094
vt 0.47656 0.69531
vt 0.49219 0.63281
vt 0.47656 0.64844
vt 0.39844 0.64844
vt 0.47656 0.63281
vt 0.46094 0.63281
vt 0.47656 0.57031
vt 0.46094 0.58594
vt 0.44531 0.58594
vt 0.44531 0.57031
vt 0.39844 0.63281
vt 0.42969 0.63281
vt 0.33594 0.63281
vt 0.41406 0.61719
vt 0.42969 0.60156
vt 0.41406 0.60156
vt 0.39844 0.60156
vt 0.39844 0.60156
vt 0.39844 0.55469
vt 0.39844 0.57031
vt 0.44531 0.57031
vt 0.44531 0.55469
vt 0.35156 0.61719
vt 0.35156 0.60156
vt 0.33594 0.60156
vt 0.30469 0.60156
vt 0.32031 0.60156
vt 0.32031 0.63281
vt 0.30469 0.61719
vt 0.27344 0.61719
vt 0.27344 0.63281
vt 0.35156 0.58594
vt 0.32031 0.58594
vt 0.35156 0.58594
vt 0.32031 0.58594
vt 0.35156 0.52344
vt 0.32031 0.52344
vt 0.32031 0.52344
vt 0.27344 0.55469
vt 0.27344 0.53906
vt 0.35156 0.53906
vt 0.42969 0.53906
vt 0.42969 0.52344
vt 0.36719 0.52344
vt 0.38281 0.52344
vt 0.46094 0.55469
vt 0.50781 0.55469
vt 0.50781 0.55469
vt 0.46094 0.55469
vt 0.46094 0.52344
vt 0.46094 0.52344
vt 0.39844 0.63281
vt 0.39844 0.63281
vt 0.32031 0.55469
vt 0.32031 0.53906
vt 0.36719 0.52344
vt 0.38281 0.52344
vt 0.27344 0.52344
vt 0.28906 0.52344
vt 0.27344 0.69531
vt 0.28906 0.67969
vt 0.46094 0.67969
vt 0.46094 0.69531
vt 0.35156 0.57031
vt 0.35156 0.58594
vt 0.35156 0.52344
vt 0.36719 0.52344
vt 0.46094 0.52344
vt 0.47656 0.52344
vt 0.46094 0.77344
vt 0.47656 0.77344
vt 0.30469 0.71094
vt 0.32031 0.71094
vt 0.32031 0.77344
vt 0.30469 0.77344
vt 0.25781 0.63281
vt 0.25781 0.64844
vt 0.36719 0.71094
vt 0.38281 0.77344
vt 0.36719 0.77344
vt 0.38281 0.71094
vt 0.46094 0.71094
vt 0.46094 0.71094
vt 0.41406 0.71094
vt 0.42969 0.71094
vt 0.41406 0.77344
vt 0.42969 0.77344
vt 0.50781 0.58594
vt 0.50781 0.57031
vt 0.47656 0.64844
vt 0.47656 0.72656
vt 0.49219 0.71094
vt 0.49219 0.66406
vt 0.50781 0.64844
vt 0.50781 0.66406
vt 0.50781 0.71094
vt 0.50781 0.72656
vt 0.28906 0.58594
vt 0.28906 0.57031
vt 0.36719 0.61719
vt 0.36719 0.60156
vt 0.46094 0.60156
vt 0.46094 0.61719
vt 0.27344 0.63281
vt 0.27344 0.64844
vt 0.47656 0.58594
vt 0.47656 0.57031
vt 0.36719 0.67969
vt 0.35156 0.67969
vt 0.47656 0.69531
vt 0.46094 0.77344
vt 0.47656 0.77344
vt 0.46094 0.71094
vt 0.28906 0.71094
vt 0.30469 0.69531
vt 0.28906 0.67969
vt 0.30469 0.69531
vt 0.42969 0.69531
vt 0.41406 0.67969
vt 0.42969 0.61719
vt 0.41406 0.63281
vt 0.28906 0.63281
vt 0.28906 0.61719
vt 0.35156 0.57031
vt 0.33594 0.57031
vt 0.25781 0.75781
vt 0.25781 0.53906
vt 0.27344 0.55469
vt 0.47656 0.53906
vt 0.46094 0.55469
vt 0.46094 0.66406
vt 0.47656 0.64844
vt 0.50781 0.64844
vt 0.50781 0.66406
vt 0.27344 0.74219
vt 0.42969 0.75781
vt 0.42969 0.74219
vt 0.33594 0.61719
vt 0.35156 0.61719
vt 0.46094 0.77344
vt 0.46094 0.67969
vt 0.46094 0.75781
vt 0.41406 0.77344
vt 0.41406 0.75781
vt 0.41406 0.77344
vt 0.41406 0.77344
vt 0.46094 0.69531
vt 0.41406 0.67969
vt 0.42969 0.69531
vt 0.42969 0.72656
vt 0.41406 0.71094
vt 0.36719 0.72656
vt 0.36719 0.71094
vt 0.36719 0.67969
vt 0.36719 0.67969
vt 0.39844 0.67969
vt 0.38281 0.67969
vt 0.39844 0.63281
vt 0.38281 0.64844
vt 0.32031 0.64844
vt 0.32031 0.63281
vt 0.32031 0.67969
vt 0.25781 0.67969
vt 0.25781 0.67969
vt 0.30469 0.67969
vt 0.30469 0.72656
vt 0.32031 0.71094
vt 0.35156 0.71094
vt 0.33594 0.72656
vt 0.33594 0.77344
vt 0.35156 0.77344
vt 0.28906 0.66406
vt 0.25781 0.64844
vt 0.25781 0.66406
vt 0.27344 0.64844
vt 0.27344 0.60156
vt 0.28906 0.61719
vt 0.46094 0.60156
vt 0.44531 0.61719
vt 0.44531 0.67969
vt 0.46094 0.66406
vt 0.49219 0.66406
vt 0.49219 0.67969
vt 0.39844 0.55469
vt 0.41406 0.57031
vt 0.46094 0.57031
vt 0.44531 0.55469
vt 0.44531 0.52344
vt 0.46094 0.52344
vt 0.36719 0.57031
vt 0.38281 0.57031
vt 0.38281 0.52344
vt 0.36719 0.52344
vt 0.33594 0.58594
vt 0.33594 0.52344
vt 0.32031 0.52344
vt 0.32031 0.58594
vt 0.28906 0.58594
vt 0.30469 0.58594
vt 0.30469 0.57031
vt 0.28906 0.57031
vt 0.33594 0.55469
vt 0.33594 0.53906
vt 0.25781 0.53906
vt 0.25781 0.55469
vt 0.46094 0.58594
vt 0.47656 0.58594
vt 0.47656 0.57031
vt 0.46094 0.57031
vt 0.41406 0.77344
vt 0.41406 0.77344
vt 0.39844 0.60156
vt 0.41406 0.60156
vt 0.49219 0.91406
vt 0.49219 0.96094
vt 0.44531 0.99219
vt 0.49219 0.96094
vt 0.49219 0.91406
vt 0.44531 0.88281
vt 0.44531 0.92969
vt 0.49219 0.96094
vt 0.49219 0.91406
vt 0.44531 0.88281
vt 0.49219 0.91406
vt 0.49219 0.96094
vt 0.44531 0.99219
vt 0.44531 0.92969
vt 0.49219 0.91406
vt 0.49219 0.96094
vt 0.44531 0.99219
vt 0.49219 0.96094
vt 0.49219 0.91406
vt 0.44531 0.88281
vt 0.44531 0.92969
vt 0.49219 0.96094
vt 0.49219 0.91406
vt 0.44531 0.88281
vt 0.49219 0.91406
vt 0.49219 0.96094
vt 0.44531 0.99219
vt 0.44531 0.92969
vt 0.49219 0.91406
vt 0.49219 0.96094
vt 0.44531 0.99219
vt 0.49219 0.96094
vt 0.49219 0.91406
vt 0.44531 0.88281
vt 0.44531 0.92969
vt 0.49219 0.91406
vt 0.49219 0.96094
vt 0.44531 0.99219
vt 0.49219 0.96094
vt 0.49219 0.91406
vt 0.44531 0.88281
vt 0.44531 0.92969
vt 0.72656 0.08594
vt 0.72656 0.07031
vt 0.74219 0.07031
vt 0.74219 0.08594
vt 0.71094 0.61719
vt 0.85156 0.86719
vt 0.74219 0.61719
vt 0.85156 0.85156
vt 0.82031 0.66406
vt 0.74219 0.63281
vt 0.74219 0.69531
vt 0.74219 0.85156
vt 0.74219 0.86719
vt 0.25781 0.30469
vt 0.25781 0.50781
vt 0.80469 0.69531
vt 0.85156 0.74219
vt 0.72656 0.66406
vt 0.33594 0.50781
vt 0.33594 0.50781
vt 0.39844 0.42969
vt 0.83594 0.61719
vt 0.80469 0.69531
vt 0.46094 0.50781
vt 0.46094 0.44531
vt 0.66406 0.44531
vt 0.66406 0.50781
vt 0.44531 0.44531
vt 0.44531 0.50781
vt 0.41406 0.44531
vt 0.41406 0.50781
vt 0.66406 0.50781
vt 0.66406 0.44531
vt 0.46094 0.44531
vt 0.46094 0.50781
vt 0.44531 0.44531
vt 0.44531 0.50781
vt 0.41406 0.44531
vt 0.41406 0.50781
vt 0.39844 0.25781
vt 0.25781 0.25781
vt 0.39844 0.27344
vt 0.25781 0.27344
vt 0.39844 0.25781
vt 0.39844 0.27344
vt 0.71094 0.44531
vt 0.67969 0.44531
vt 0.71094 0.50781
vt 0.67969 0.50781
vt 0.67969 0.44531
vt 0.67969 0.50781
vt 0.71094 0.44531
vt 0.71094 0.50781
vt 0.72656 0.08594
vt 0.72656 0.07031
vt 0.74219 0.07031
vt 0.74219 0.08594
vt 0.74219 0.61719
vt 0.85156 0.85156
vt 0.82031 0.66406
vt 0.74219 0.63281
vt 0.74219 0.69531
vt 0.74219 0.85156
vt 0.25781 0.30469
vt 0.25781 0.50781
vt 0.80469 0.69531
vt 0.85156 0.74219
vt 0.72656 0.66406
vt 0.33594 0.50781
vt 0.33594 0.50781
vt 0.39844 0.42969
vt 0.83594 0.61719
vt 0.80469 0.69531
vt 0.46094 0.50781
vt 0.46094 0.44531
vt 0.66406 0.44531
vt 0.66406 0.50781
vt 0.44531 0.44531
vt 0.44531 0.50781
vt 0.41406 0.44531
vt 0.41406 0.50781
vt 0.66406 0.50781
vt 0.66406 0.44531
vt 0.46094 0.44531
vt 0.46094 0.50781
vt 0.44531 0.44531
vt 0.44531 0.50781
vt 0.41406 0.44531
vt 0.41406 0.50781
vt 0.39844 0.27344
vt 0.25781 0.27344
vt 0.39844 0.27344
vt 0.67969 0.44531
vt 0.67969 0.50781
vt 0.67969 0.44531
vt 0.67969 0.50781
vt 0.74219 0.08594
vt 0.72656 0.08594
vt 0.72656 0.08594
vt 0.74219 0.08594
vt 0.72656 0.07031
vt 0.74219 0.07031
vt 0.72656 0.07031
vt 0.74219 0.07031
vt 0.63281 0.71094
vt 0.82031 0.52344
vt 0.83594 0.71094
vt 0.61719 0.52344
vt 0.52344 0.86719
vt 0.61719 0.60156
vt 0.52344 0.69531
vt 0.82031 0.60156
vt 0.60156 0.53906
vt 0.60156 0.71094
vt 0.52344 0.71094
vt 0.52344 0.53906
vt 0.63281 0.78906
vt 0.83594 0.78906
vt 0.83594 0.78906
vt 0.63281 0.78906
vt 0.52344 0.55469
vt 0.52344 0.72656
vt 0.52344 0.55469
vt 0.52344 0.72656
vt 0.25781 0.00781
vt 0.49219 0.00781
vt 0.24219 0.49219
vt 0.00781 0.49219
vt 0.00781 0.00781
vt 0.00781 0.24219
vt 0.24219 0.00781
vt 0.24219 0.24219
vt 0.24219 0.25781
vt 0.00781 0.25781
vt 0.24219 0.49219
vt 0.00781 0.49219
vt 0.24219 0.49219
vt 0.24219 0.25781
vt 0.00781 0.49219
vt 0.00781 0.25781
vt 0.88281 0.05469
vt 0.94531 0.05469
vt 0.99219 0.77344
vt 0.94531 0.82031
vt 0.89844 0.86719
vt 0.83594 0.10156
vt 0.89844 0.10156
vt 0.99219 0.77344
vt 0.94531 0.82031
vt 0.94531 0.82031
vt 0.88281 0.05469
vt 0.94531 0.05469
vt 0.89844 0.86719
vt 0.83594 0.10156
vt 0.89844 0.10156
vt 0.89844 0.86719
vt 0.99219 0.38281
vt 0.99219 0.03906
vt 0.92969 0.00781
vt 0.99219 0.00781
vt 0.99219 0.03906
vt 0.92969 0.00781
vt 0.99219 0.00781
vt 0.99219 0.03906
vt 0.92969 0.00781
vt 0.99219 0.00781
vt 0.99219 0.38281
vt 0.99219 0.03906
vt 0.92969 0.00781
vt 0.99219 0.00781
vt 0.88281 0.88281
vt 0.99219 0.88281
vt 0.88281 0.99219
vt 0.99219 0.99219
vt 0.75781 0.88281
vt 0.75781 0.88281
vt 0.86719 0.99219
vt 0.86719 0.88281
vt 0.22656 0.80469
vt 0.49219 0.78906
vt 0.50781 0.80469
vt 0.22656 0.80469
vt 0.50781 0.80469
vt 0.49219 0.78906
vt 0.71094 0.21094
vt 0.71094 0.00781
vt 0.50781 0.21094
vt 0.50781 0.00781
vt 0.21094 0.71094
vt 0.00781 0.71094
vt 0.21094 0.50781
vt 0.00781 0.50781
vt 0.00781 0.71094
vt 0.21094 0.71094
vt 0.00781 0.50781
vt 0.21094 0.50781
vt 0.50781 0.42969
vt 0.50781 0.22656
vt 0.71094 0.42969
vt 0.71094 0.22656
vt 0.42969 0.91406
vt 0.42969 0.92969
vt 0.85156 0.49219
vt 0.72656 0.49219
vt 0.72656 0.33594
vt 0.21094 0.94531
vt 0.21094 0.96094
vt 0.63281 0.88281
vt 0.63281 0.99219
vt 0.74219 0.88281
vt 0.74219 0.99219
vt 0.41406 0.25781
vt 0.41406 0.42969
vt 0.49219 0.25781
vt 0.49219 0.42969
vt 0.21094 0.97656
vt 0.21094 0.99219
vt 0.42969 0.97656
vt 0.42969 0.99219
vt 0.41406 0.25781
vt 0.41406 0.42969
vt 0.49219 0.25781
vt 0.49219 0.42969
vt 0.42969 0.94531
vt 0.42969 0.96094
vt 0.00781 0.94531
vt 0.21094 0.94531
vt 0.00781 0.97656
vt 0.21094 0.97656
vt 0.22656 0.91406
vt 0.42969 0.91406
vt 0.22656 0.94531
vt 0.42969 0.94531
vt 0.42969 0.97656
vt 0.24219 0.83594
vt 0.49219 0.83594
vt 0.22656 0.82031
vt 0.50781 0.82031
vt 0.50781 0.57031
vt 0.50781 0.57031
vt 0.82031 0.67969
vt 0.85156 0.67969
vt 0.85156 0.86719
vt 0.85156 0.85156
vt 0.85156 0.83594
vt 0.74219 0.83594
vt 0.72656 0.67969
vt 0.39844 0.30469
vt 0.39844 0.42969
vt 0.33594 0.30469
vt 0.33594 0.28906
vt 0.25781 0.30469
vt 0.25781 0.28906
vt 0.39844 0.30469
vt 0.83594 0.63281
vt 0.85156 0.83594
vt 0.85156 0.74219
vt 0.33594 0.30469
vt 0.33594 0.28906
vt 0.42969 0.50781
vt 0.42969 0.44531
vt 0.42969 0.50781
vt 0.42969 0.44531
vt 0.42969 0.44531
vt 0.42969 0.50781
vt 0.42969 0.44531
vt 0.42969 0.50781
vt 0.82031 0.64844
vt 0.85156 0.64844
vt 0.39844 0.28906
vt 0.25781 0.28906
vt 0.74219 0.64844
vt 0.71094 0.64844
vt 0.39844 0.28906
vt 0.41406 0.50781
vt 0.41406 0.50781
vt 0.41406 0.44531
vt 0.41406 0.44531
vt 0.41406 0.50781
vt 0.41406 0.50781
vt 0.41406 0.44531
vt 0.41406 0.44531
vt 0.82031 0.67969
vt 0.85156 0.85156
vt 0.85156 0.83594
vt 0.74219 0.83594
vt 0.72656 0.67969
vt 0.39844 0.30469
vt 0.39844 0.42969
vt 0.33594 0.30469
vt 0.25781 0.30469
vt 0.33594 0.28906
vt 0.25781 0.28906
vt 0.39844 0.30469
vt 0.83594 0.63281
vt 0.85156 0.83594
vt 0.85156 0.74219
vt 0.33594 0.30469
vt 0.33594 0.28906
vt 0.42969 0.50781
vt 0.42969 0.44531
vt 0.42969 0.50781
vt 0.42969 0.44531
vt 0.42969 0.44531
vt 0.42969 0.50781
vt 0.42969 0.44531
vt 0.42969 0.50781
vt 0.82031 0.64844
vt 0.39844 0.28906
vt 0.25781 0.28906
vt 0.74219 0.64844
vt 0.39844 0.28906
vt 0.41406 0.50781
vt 0.41406 0.44531
vt 0.41406 0.50781
vt 0.41406 0.44531
vt 0.41406 0.50781
vt 0.41406 0.44531
vt 0.41406 0.50781
vt 0.41406 0.44531
vt 0.74219 0.00781
vt 0.72656 0.00781
vt 0.75781 0.14844
vt 0.89844 0.00781
vt 0.75781 0.02344
vt 0.77344 0.00781
vt 0.72656 0.14844
vt 0.74219 0.14844
vt 0.89844 0.00781
vt 0.75781 0.14844
vt 0.77344 0.00781
vt 0.75781 0.02344
vt 0.89844 0.00781
vt 0.77344 0.00781
vt 0.75781 0.14844
vt 0.75781 0.02344
vt 0.74219 0.14844
vt 0.72656 0.14844
vt 0.75781 0.14844
vt 0.75781 0.02344
vt 0.89844 0.00781
vt 0.77344 0.00781
vt 0.72656 0.00781
vt 0.74219 0.00781
vt 0.72656 0.14844
vt 0.74219 0.14844
vt 0.89844 0.00781
vt 0.75781 0.14844
vt 0.77344 0.00781
vt 0.75781 0.02344
vt 0.74219 0.00781
vt 0.72656 0.00781
vt 0.89844 0.00781
vt 0.77344 0.00781
vt 0.75781 0.14844
vt 0.75781 0.02344
vt 0.89844 0.00781
vt 0.77344 0.00781
vt 0.75781 0.14844
vt 0.75781 0.02344
vt 0.72656 0.14844
vt 0.74219 0.14844
vt 0.75781 0.14844
vt 0.75781 0.02344
vt 0.89844 0.00781
vt 0.77344 0.00781
vt 0.72656 0.00781
vt 0.74219 0.00781
vt 0.60156 0.86719
vt 0.60156 0.78906
vt 0.60156 0.69531
vt 0.60156 0.61719
vt 0.61719 0.52344
vt 0.61719 0.60156
vt 0.82031 0.52344
vt 0.82031 0.60156
vt 0.83594 0.71094
vt 0.63281 0.71094
vt 0.52344 0.86719
vt 0.60156 0.86719
vt 0.60156 0.78906
vt 0.52344 0.69531
vt 0.60156 0.69531
vt 0.60156 0.61719
vt 0.63281 0.86719
vt 0.83594 0.86719
usemtl m0
f 3/3 6/6 4/4
f 6/6 5/5 4/4
f 3/3 2/2 6/6
f 2/2 1/1 6/6
f 9/9 10/10 12/12
f 10/10 11/11 12/12
f 9/9 12/12 8/8
f 12/12 7/7 8/8
f 15/15 18/18 16/16
f 18/18 17/17 16/16
f 15/15 14/14 18/18
f 14/14 13/13 18/18
f 21/21 22/22 24/24
f 22/22 23/23 24/24
f 21/21 24/24 20/20
f 24/24 19/19 20/20
f 25/25 28/28 26/26
f 28/28 27/27 26/26
f 25/25 30/30 28/28
f 30/30 29/29 28/28
f 31/31 34/34 32/32
f 34/34 33/33 32/32
f 31/31 32/32 35/35
f 32/32 36/36 35/35
f 39/39 40/40 37/37
f 40/40 38/38 37/37
f 712/712 41/41 713/713
f 41/41 42/42 713/713
f 43/43 44/44 714/714
f 44/44 715/715 714/714
f 716/716 717/717 718/718
f 717/717 719/719 718/718
f 720/720 721/721 722/722
f 721/721 723/723 722/722
f 724/724 725/725 726/726
f 725/725 727/727 726/726
f 45/45 47/47 46/46
f 51/51 48/48 53/53
f 728/728 49/49 729/729
f 729/729 49/49 48/48
f 53/53 48/48 49/49
f 730/730 55/55 52/52
f 60/60 59/59 61/61
f 59/59 51/51 61/61
f 62/62 54/54 730/730
f 64/64 65/65 66/66
f 70/70 71/71 74/74
f 79/79 70/70 73/73
f 731/731 59/59 78/78
f 59/59 60/60 78/78
f 80/80 81/81 82/82
f 86/86 87/87 90/90
f 94/94 86/86 89/89
f 732/732 91/91 93/93
f 91/91 92/92 93/93
f 96/96 98/98 97/97
f 102/102 99/99 104/104
f 733/733 100/100 734/734
f 734/734 100/100 99/99
f 104/104 99/99 100/100
f 735/735 106/106 103/103
f 92/92 91/91 107/107
f 91/91 102/102 107/107
f 108/108 105/105 735/735
f 736/736 78/78 72/72
f 53/53 61/61 737/737
f 731/731 72/72 67/67
f 738/738 739/739 68/68
f 739/739 67/67 68/68
f 72/72 68/68 67/67
f 740/740 93/93 88/88
f 732/732 88/88 83/83
f 741/741 742/742 84/84
f 742/742 83/83 84/84
f 88/88 84/84 83/83
f 104/104 107/107 743/743
f 730/730 56/56 55/55
f 56/56 57/57 55/55
f 730/730 54/54 56/56
f 54/54 58/58 56/56
f 70/70 75/75 73/73
f 75/75 77/77 73/73
f 70/70 74/74 75/75
f 74/74 76/76 75/75
f 86/86 56/56 89/89
f 56/56 58/58 89/89
f 86/86 90/90 56/56
f 90/90 57/57 56/56
f 735/735 75/75 106/106
f 75/75 76/76 106/106
f 735/735 105/105 75/75
f 105/105 77/77 75/75
f 63/63 62/62 744/744
f 62/62 730/730 744/744
f 730/730 52/52 745/745
f 746/746 747/747 50/50
f 747/747 745/745 50/50
f 745/745 52/52 50/50
f 70/70 748/748 71/71
f 749/749 69/69 750/750
f 750/750 69/69 748/748
f 71/71 748/748 69/69
f 70/70 79/79 744/744
f 79/79 63/63 744/744
f 86/86 751/751 87/87
f 752/752 85/85 753/753
f 753/753 85/85 751/751
f 87/87 751/751 85/85
f 86/86 94/94 754/754
f 94/94 95/95 754/754
f 95/95 108/108 754/754
f 108/108 735/735 754/754
f 735/735 103/103 755/755
f 756/756 757/757 101/101
f 757/757 755/755 101/101
f 755/755 103/103 101/101
f 117/117 110/110 118/118
f 110/110 109/109 118/118
f 114/114 113/113 116/116
f 113/113 115/115 116/116
f 758/758 759/759 760/760
f 759/759 761/761 760/760
f 762/762 112/112 116/116
f 112/112 114/114 116/116
f 111/111 763/763 764/764
f 763/763 765/765 764/764
f 120/120 766/766 767/767
f 766/766 768/768 767/767
f 769/769 119/119 770/770
f 119/119 771/771 770/770
f 122/122 123/123 121/121
f 124/124 123/123 122/122
f 772/772 773/773 774/774
f 773/773 775/775 774/774
f 776/776 777/777 778/778
f 777/777 779/779 778/778
f 780/780 781/781 782/782
f 781/781 783/783 782/782
f 784/784 785/785 786/786
f 785/785 787/787 786/786
f 125/125 128/128 178/178
f 128/128 185/185 178/178
f 178/178 185/185 179/179
f 129/129 186/186 788/788
f 186/186 789/789 788/788
f 790/790 131/131 791/791
f 131/131 792/792 791/791
f 132/132 135/135 172/172
f 135/135 181/181 172/172
f 172/172 181/181 173/173
f 136/136 182/182 793/793
f 182/182 794/794 793/793
f 137/137 138/138 134/134
f 138/138 133/133 134/134
f 141/141 144/144 142/142
f 144/144 146/146 142/142
f 142/142 146/146 139/139
f 146/146 145/145 139/139
f 139/139 145/145 140/140
f 140/140 145/145 143/143
f 147/147 154/154 148/148
f 154/154 153/153 148/148
f 148/148 153/153 149/149
f 153/153 152/152 149/149
f 149/149 152/152 150/150
f 150/150 152/152 151/151
f 155/155 162/162 164/164
f 162/162 161/161 164/164
f 164/164 161/161 156/156
f 156/156 161/161 157/157
f 161/161 160/160 157/157
f 157/157 160/160 163/163
f 160/160 159/159 163/163
f 163/163 159/159 158/158
f 164/164 166/166 155/155
f 166/166 165/165 155/155
f 158/158 168/168 163/163
f 168/168 167/167 163/163
f 795/795 796/796 797/797
f 796/796 798/798 797/797
f 799/799 800/800 801/801
f 800/800 183/183 801/801
f 801/801 183/183 802/802
f 174/174 184/184 803/803
f 184/184 804/804 803/803
f 175/175 176/176 126/126
f 176/176 189/189 126/126
f 126/126 189/189 127/127
f 177/177 190/190 805/805
f 190/190 806/806 805/805
f 807/807 808/808 809/809
f 808/808 187/187 809/809
f 809/809 187/187 810/810
f 180/180 188/188 811/811
f 188/188 812/812 811/811
f 182/182 813/813 794/794
f 813/813 814/814 794/794
f 184/184 815/815 804/804
f 815/815 816/816 804/804
f 186/186 817/817 789/789
f 817/817 818/818 789/789
f 188/188 819/819 812/812
f 819/819 820/820 812/812
f 190/190 130/130 806/806
f 130/130 821/821 806/806
f 194/194 193/193 192/192
f 193/193 165/165 192/192
f 165/165 166/166 192/192
f 192/192 166/166 191/191
f 822/822 823/823 824/824
f 823/823 825/825 824/824
f 197/197 170/170 196/196
f 196/196 170/170 195/195
f 170/170 169/169 195/195
f 195/195 169/169 171/171
f 198/198 205/205 199/199
f 205/205 204/204 199/199
f 199/199 204/204 200/200
f 204/204 203/203 200/200
f 200/200 203/203 201/201
f 201/201 203/203 202/202
f 208/208 209/209 207/207
f 207/207 209/209 206/206
f 206/206 209/209 211/211
f 209/209 210/210 211/211
f 210/210 212/212 211/211
f 211/211 212/212 213/213
f 212/212 215/215 213/213
f 213/213 215/215 214/214
f 214/214 215/215 294/294
f 294/294 215/215 295/295
f 229/229 228/228 230/230
f 230/230 228/228 227/227
f 227/227 228/228 226/226
f 228/228 225/225 226/226
f 225/225 224/224 226/226
f 226/226 224/224 223/223
f 223/223 224/224 216/216
f 224/224 222/222 216/216
f 216/216 222/222 218/218
f 222/222 217/217 218/218
f 217/217 220/220 218/218
f 218/218 220/220 219/219
f 219/219 220/220 303/303
f 220/220 221/221 303/303
f 221/221 304/304 303/303
f 303/303 304/304 305/305
f 304/304 307/307 305/305
f 305/305 307/307 306/306
f 237/237 236/236 234/234
f 236/236 235/235 234/234
f 234/234 235/235 231/231
f 235/235 302/302 231/231
f 302/302 232/232 231/231
f 231/231 232/232 233/233
f 247/247 246/246 244/244
f 246/246 245/245 244/244
f 244/244 245/245 241/241
f 245/245 243/243 241/241
f 296/296 238/238 297/297
f 297/297 238/238 239/239
f 238/238 241/241 239/239
f 239/239 241/241 240/240
f 241/241 243/243 240/240
f 240/240 243/243 242/242
f 298/298 301/301 299/299
f 301/301 300/300 299/299
f 249/249 248/248 251/251
f 248/248 250/250 251/251
f 257/257 256/256 254/254
f 256/256 255/255 254/254
f 254/254 255/255 252/252
f 252/252 255/255 253/253
f 258/258 261/261 259/259
f 259/259 261/261 260/260
f 260/260 261/261 263/263
f 261/261 262/262 263/263
f 262/262 264/264 263/263
f 263/263 264/264 265/265
f 264/264 267/267 265/265
f 265/265 267/267 266/266
f 266/266 267/267 269/269
f 267/267 268/268 269/269
f 268/268 271/271 269/269
f 269/269 271/271 270/270
f 270/270 271/271 272/272
f 271/271 273/273 272/272
f 272/272 273/273 275/275
f 273/273 274/274 275/275
f 274/274 277/277 275/275
f 275/275 277/277 276/276
f 292/292 278/278 293/293
f 278/278 279/279 293/293
f 285/285 282/282 284/284
f 284/284 282/282 283/283
f 282/282 280/280 283/283
f 283/283 280/280 281/281
f 291/291 290/290 286/286
f 290/290 289/289 286/286
f 286/286 289/289 287/287
f 287/287 289/289 288/288
f 826/826 308/308 827/827
f 827/827 308/308 309/309
f 308/308 311/311 309/309
f 309/309 311/311 310/310
f 310/310 311/311 313/313
f 311/311 312/312 313/313
f 319/319 316/316 318/318
f 318/318 316/316 317/317
f 316/316 314/314 317/317
f 317/317 314/314 315/315
f 327/327 326/326 324/324
f 326/326 325/325 324/324
f 324/324 325/325 323/323
f 325/325 322/322 323/323
f 322/322 320/320 323/323
f 323/323 320/320 321/321
f 385/385 384/384 336/336
f 384/384 343/343 336/336
f 336/336 343/343 335/335
f 343/343 334/334 335/335
f 334/334 332/332 335/335
f 335/335 332/332 333/333
f 332/332 331/331 333/333
f 333/333 331/331 330/330
f 330/330 331/331 328/328
f 328/328 331/331 329/329
f 342/342 339/339 341/341
f 341/341 339/339 340/340
f 339/339 337/337 340/340
f 340/340 337/337 338/338
f 362/362 361/361 363/363
f 363/363 361/361 360/360
f 360/360 361/361 359/359
f 361/361 358/358 359/359
f 358/358 356/356 359/359
f 359/359 356/356 357/357
f 356/356 355/355 357/357
f 357/357 355/355 345/345
f 345/345 355/355 344/344
f 355/355 346/346 344/344
f 344/344 346/346 347/347
f 346/346 348/348 347/347
f 347/347 348/348 350/350
f 348/348 349/349 350/350
f 349/349 351/351 350/350
f 350/350 351/351 352/352
f 351/351 354/354 352/352
f 352/352 354/354 353/353
f 375/375 374/374 368/368
f 374/374 373/373 368/368
f 368/368 373/373 366/366
f 373/373 364/364 366/366
f 364/364 365/365 366/366
f 366/366 365/365 367/367
f 365/365 370/370 367/367
f 367/367 370/370 369/369
f 386/386 371/371 387/387
f 371/371 372/372 387/387
f 388/388 376/376 389/389
f 376/376 377/377 389/389
f 379/379 378/378 380/380
f 380/380 378/378 381/381
f 378/378 383/383 381/381
f 381/381 383/383 382/382
f 395/395 394/394 392/392
f 394/394 393/393 392/392
f 392/392 393/393 390/390
f 390/390 393/393 391/391
f 430/430 397/397 431/431
f 397/397 396/396 431/431
f 440/440 399/399 441/441
f 399/399 398/398 441/441
f 432/432 435/435 433/433
f 435/435 434/434 433/433
f 401/401 400/400 403/403
f 400/400 402/402 403/403
f 404/404 407/407 405/405
f 407/407 406/406 405/405
f 436/436 408/408 437/437
f 408/408 409/409 437/437
f 411/411 413/413 412/412
f 412/412 413/413 410/410
f 410/410 413/413 414/414
f 413/413 415/415 414/414
f 416/416 418/418 417/417
f 418/418 419/419 417/417
f 438/438 420/420 439/439
f 420/420 421/421 439/439
f 429/429 428/428 423/423
f 428/428 424/424 423/423
f 423/423 424/424 422/422
f 424/424 425/425 422/422
f 422/422 425/425 426/426
f 426/426 425/425 427/427
f 455/455 452/452 454/454
f 454/454 452/452 453/453
f 452/452 450/450 453/453
f 453/453 450/450 451/451
f 450/450 449/449 451/451
f 451/451 449/449 448/448
f 448/448 449/449 446/446
f 449/449 447/447 446/446
f 446/446 447/447 445/445
f 447/447 442/442 445/445
f 442/442 444/444 445/445
f 445/445 444/444 443/443
f 470/470 457/457 471/471
f 457/457 456/456 471/471
f 466/466 463/463 465/465
f 465/465 463/463 464/464
f 463/463 462/462 464/464
f 464/464 462/462 461/461
f 461/461 462/462 459/459
f 462/462 460/460 459/459
f 459/459 460/460 458/458
f 460/460 467/467 458/458
f 458/458 467/467 468/468
f 468/468 467/467 469/469
f 542/542 477/477 543/543
f 477/477 478/478 543/543
f 493/493 490/490 492/492
f 492/492 490/490 491/491
f 490/490 488/488 491/491
f 491/491 488/488 489/489
f 488/488 487/487 489/489
f 489/489 487/487 486/486
f 486/486 487/487 484/484
f 487/487 485/485 484/484
f 484/484 485/485 482/482
f 485/485 483/483 482/482
f 482/482 483/483 481/481
f 483/483 480/480 481/481
f 480/480 473/473 481/481
f 481/481 473/473 479/479
f 473/473 472/472 479/479
f 479/479 472/472 474/474
f 472/472 475/475 474/474
f 474/474 475/475 476/476
f 503/503 502/502 500/500
f 502/502 501/501 500/500
f 500/500 501/501 499/499
f 501/501 498/498 499/499
f 498/498 497/497 499/499
f 499/499 497/497 494/494
f 494/494 497/497 495/495
f 495/495 497/497 496/496
f 515/515 512/512 514/514
f 514/514 512/512 513/513
f 512/512 511/511 513/513
f 513/513 511/511 510/510
f 510/510 511/511 508/508
f 511/511 509/509 508/508
f 508/508 509/509 507/507
f 509/509 504/504 507/507
f 504/504 506/506 507/507
f 507/507 506/506 505/505
f 544/544 516/516 545/545
f 545/545 516/516 517/517
f 516/516 519/519 517/517
f 517/517 519/519 518/518
f 518/518 519/519 521/521
f 519/519 520/520 521/521
f 522/522 525/525 523/523
f 525/525 524/524 523/523
f 533/533 532/532 530/530
f 532/532 531/531 530/530
f 530/530 531/531 526/526
f 531/531 529/529 526/526
f 526/526 529/529 527/527
f 527/527 529/529 528/528
f 534/534 537/537 535/535
f 537/537 536/536 535/535
f 538/538 541/541 539/539
f 541/541 540/540 539/539
f 546/546 552/552 547/547
f 547/547 552/552 548/548
f 548/548 552/552 549/549
f 549/549 552/552 550/550
f 550/550 552/552 551/551
f 551/551 552/552 546/546
f 553/553 554/554 559/559
f 554/554 555/555 559/559
f 555/555 556/556 559/559
f 556/556 557/557 559/559
f 557/557 558/558 559/559
f 558/558 553/553 559/559
f 560/560 561/561 566/566
f 561/561 562/562 566/566
f 562/562 563/563 566/566
f 563/563 564/564 566/566
f 564/564 565/565 566/566
f 565/565 560/560 566/566
f 567/567 573/573 568/568
f 568/568 573/573 569/569
f 569/569 573/573 570/570
f 570/570 573/573 571/571
f 571/571 573/573 572/572
f 572/572 573/573 567/567
f 574/574 580/580 575/575
f 575/575 580/580 576/576
f 576/576 580/580 577/577
f 577/577 580/580 578/578
f 578/578 580/580 579/579
f 579/579 580/580 574/574
f 581/581 582/582 587/587
f 582/582 583/583 587/587
f 583/583 584/584 587/587
f 584/584 585/585 587/587
f 585/585 586/586 587/587
f 586/586 581/581 587/587
f 589/589 685/685 590/590
f 685/685 684/684 590/590
f 591/591 689/689 588/588
f 689/689 688/688 588/588
f 595/595 599/599 593/593
f 599/599 600/600 593/593
f 596/596 828/828 829/829
f 628/628 630/630 627/627
f 630/630 629/629 627/627
f 594/594 597/597 592/592
f 600/600 599/599 830/830
f 599/599 831/831 830/830
f 632/632 630/630 631/631
f 630/630 628/628 631/631
f 832/832 604/604 833/833
f 604/604 603/603 833/833
f 833/833 603/603 598/598
f 605/605 834/834 596/596
f 834/834 828/828 596/596
f 601/601 602/602 835/835
f 602/602 606/606 835/835
f 835/835 606/606 836/836
f 837/837 838/838 839/839
f 838/838 840/840 839/839
f 841/841 608/608 601/601
f 608/608 607/607 601/601
f 601/601 607/607 602/602
f 609/609 842/842 594/594
f 842/842 597/597 594/594
f 833/833 598/598 843/843
f 598/598 610/610 843/843
f 843/843 610/610 844/844
f 839/839 840/840 845/845
f 840/840 846/846 845/845
f 613/613 612/612 614/614
f 612/612 611/611 614/614
f 634/634 636/636 633/633
f 636/636 635/635 633/633
f 847/847 848/848 616/616
f 848/848 615/615 616/616
f 849/849 850/850 618/618
f 850/850 617/617 618/618
f 619/619 620/620 622/622
f 620/620 621/621 622/622
f 638/638 640/640 637/637
f 640/640 639/639 637/637
f 851/851 623/623 852/852
f 623/623 624/624 852/852
f 853/853 625/625 854/854
f 625/625 626/626 854/854
f 596/596 829/829 855/855
f 829/829 856/856 855/855
f 835/835 857/857 601/601
f 857/857 858/858 601/601
f 597/597 859/859 592/592
f 592/592 859/859 860/860
f 601/601 858/858 841/841
f 858/858 861/861 841/841
f 862/862 863/863 864/864
f 863/863 865/865 864/864
f 866/866 867/867 868/868
f 867/867 869/869 868/868
f 642/642 643/643 686/686
f 643/643 687/687 686/686
f 644/644 641/641 691/691
f 641/641 690/690 691/691
f 646/646 593/593 650/650
f 593/593 600/600 650/650
f 647/647 829/829 870/870
f 628/628 627/627 678/678
f 627/627 677/677 678/678
f 645/645 592/592 648/648
f 600/600 830/830 650/650
f 830/830 871/871 650/650
f 679/679 631/631 678/678
f 631/631 628/628 678/678
f 872/872 873/873 654/654
f 654/654 873/873 653/653
f 653/653 873/873 649/649
f 655/655 647/647 874/874
f 647/647 870/870 874/874
f 651/651 875/875 652/652
f 652/652 875/875 656/656
f 656/656 875/875 876/876
f 877/877 878/878 879/879
f 878/878 880/880 879/879
f 652/652 657/657 651/651
f 657/657 658/658 651/651
f 658/658 881/881 651/651
f 659/659 645/645 882/882
f 645/645 648/648 882/882
f 873/873 883/883 649/649
f 649/649 883/883 660/660
f 660/660 883/883 884/884
f 878/878 885/885 880/880
f 885/885 886/886 880/880
f 663/663 664/664 662/662
f 664/664 661/661 662/662
f 680/680 633/633 681/681
f 633/633 635/635 681/681
f 887/887 666/666 888/888
f 666/666 665/665 888/888
f 889/889 668/668 890/890
f 668/668 667/667 890/890
f 669/669 672/672 670/670
f 672/672 671/671 670/670
f 683/683 682/682 640/640
f 682/682 639/639 640/640
f 891/891 892/892 673/673
f 892/892 674/674 673/673
f 893/893 894/894 675/675
f 894/894 676/676 675/675
f 647/647 895/895 829/829
f 829/829 895/895 856/856
f 875/875 651/651 896/896
f 651/651 897/897 896/896
f 648/648 592/592 898/898
f 898/898 592/592 860/860
f 651/651 881/881 897/897
f 881/881 899/899 897/897
f 900/900 901/901 902/902
f 901/901 903/903 902/902
f 904/904 905/905 906/906
f 905/905 907/907 906/906
f 590/590 908/908 589/589
f 908/908 909/909 589/589
f 910/910 911/911 912/912
f 912/912 911/911 913/913
f 685/685 914/914 684/684
f 914/914 915/915 684/684
f 916/916 917/917 918/918
f 918/918 917/917 919/919
f 920/920 921/921 922/922
f 922/922 921/921 923/923
f 687/687 924/924 686/686
f 924/924 925/925 686/686
f 926/926 927/927 928/928
f 928/928 927/927 929/929
f 642/642 930/930 643/643
f 930/930 931/931 643/643
f 932/932 933/933 588/588
f 933/933 591/591 588/588
f 934/934 935/935 936/936
f 936/936 935/935 937/937
f 689/689 938/938 688/688
f 938/938 939/939 688/688
f 940/940 941/941 942/942
f 943/943 942/942 941/941
f 944/944 945/945 946/946
f 946/946 945/945 947/947
f 948/948 641/641 949/949
f 641/641 644/644 949/949
f 950/950 951/951 952/952
f 953/953 952/952 951/951
f 690/690 954/954 691/691
f 954/954 955/955 691/691
f 694/694 692/692 705/705
f 692/692 704/704 705/705
f 696/696 956/956 709/709
f 956/956 957/957 709/709
f 702/702 709/709 701/701
f 701/701 709/709 957/957
f 698/698 708/708 958/958
f 958/958 708/708 959/959
f 703/703 700/700 708/708
f 708/708 700/700 959/959
f 699/699 697/697 693/693
f 697/697 695/695 693/693
f 960/960 961/961 962/962
f 961/961 963/963 962/962
f 706/706 707/707 964/964
f 707/707 965/965 964/964
f 966/966 711/711 967/967
f 967/967 711/711 968/968
f 702/702 701/701 711/711
f 968/968 711/711 701/701
f 969/969 970/970 710/710
f 970/970 971/971 710/710
f 703/703 710/710 700/700
f 710/710 971/971 700/700
f 704/704 972/972 705/705
f 972/972 973/973 705/705
f 972/972 707/707 973/973
f 707/707 706/706 973/973
