mtllib arms5040.mtl
o arms5040
v -0.59256 0.20916 2.15334 0.000 0.843 0.000
v -0.63288 0.24948 2.05578 0.000 0.843 0.000
v -0.60786 0.22446 2.07630 0.000 0.843 0.000
v -0.58140 0.19800 2.14110 0.000 0.843 0.000
v -0.54504 0.16164 2.20302 0.000 0.843 0.000
v -0.55242 0.16902 2.22012 0.000 0.843 0.000
v -0.50076 0.11718 2.25162 0.000 0.843 0.000
v -0.50490 0.12150 2.26728 0.000 0.843 0.000
v -0.45324 0.07164 2.26890 0.000 0.882 0.000
v -0.45504 0.07164 2.28384 0.000 0.882 0.000
v -0.38538 0.00000 2.27196 0.000 0.906 0.000
v -0.39042 0.01512 2.26260 0.000 0.906 0.000
v -0.55296 0.16956 2.05650 0.000 0.882 0.000
v -0.55494 0.17154 2.07630 0.000 0.882 0.000
v -0.49878 0.11538 2.08998 0.000 0.882 0.000
v -0.49212 0.10872 2.07234 0.000 0.882 0.000
v -0.40896 0.02736 2.17386 0.000 0.882 0.000
v -0.40428 0.02088 2.15964 0.000 0.882 0.000
v -0.43938 0.05598 2.10708 0.000 0.882 0.000
v -0.44694 0.06354 2.11986 0.000 0.882 0.000
v -0.45504 -0.07668 2.28384 0.000 0.882 0.000
v -0.45324 -0.07668 2.26890 0.000 0.882 0.000
v -0.39042 -0.01836 2.26260 0.000 0.906 0.000
v -0.50490 -0.12654 2.26728 0.000 0.843 0.000
v -0.50076 -0.12240 2.25162 0.000 0.843 0.000
v -0.55242 -0.17406 2.22012 0.000 0.843 0.000
v -0.54504 -0.16668 2.20302 0.000 0.843 0.000
v -0.59256 -0.21420 2.15334 0.000 0.843 0.000
v -0.58140 -0.20304 2.14110 0.000 0.843 0.000
v -0.60786 -0.22950 2.07630 0.000 0.843 0.000
v -0.63288 -0.25452 2.05578 0.000 0.843 0.000
v -0.55296 -0.17460 2.05650 0.000 0.882 0.000
v -0.55494 -0.17658 2.07630 0.000 0.882 0.000
v -0.49878 -0.12042 2.08998 0.000 0.882 0.000
v -0.49212 -0.11376 2.07234 0.000 0.882 0.000
v -0.44694 -0.06858 2.11986 0.000 0.882 0.000
v -0.43938 -0.06102 2.10708 0.000 0.882 0.000
v -0.40896 -0.03240 2.17386 0.000 0.882 0.000
v -0.40428 -0.02592 2.15964 0.000 0.882 0.000
v -0.57582 0.36702 2.40552 0.000 0.765 0.000
v -0.53064 0.27036 2.39616 0.000 0.765 0.000
v -0.53604 0.26982 2.41704 0.000 0.765 0.000
v -0.55872 0.34452 2.37888 0.000 0.765 0.000
v -0.49644 0.19008 2.40030 0.000 0.765 0.000
v -0.49860 0.18270 2.42064 0.000 0.765 0.000
v -0.45918 0.11394 2.38626 0.000 0.843 0.000
v -0.45936 0.10494 2.40192 0.000 0.843 0.000
v -0.42534 0.06696 2.34594 0.000 0.843 0.000
v -0.42354 0.04968 2.35926 0.000 0.843 0.000
v -0.38592 0.00000 2.27232 0.000 0.906 0.000
v -0.39654 0.02736 2.27250 0.000 0.906 0.000
v -0.42354 -0.04968 2.35926 0.000 0.843 0.000
v -0.42534 -0.06696 2.34594 0.000 0.843 0.000
v -0.39654 -0.02736 2.27250 0.000 0.906 0.000
v -0.45936 -0.10494 2.40192 0.000 0.843 0.000
v -0.45918 -0.11394 2.38626 0.000 0.843 0.000
v -0.49860 -0.18270 2.42064 0.000 0.765 0.000
v -0.49644 -0.19008 2.40030 0.000 0.765 0.000
v -0.53604 -0.26982 2.41704 0.000 0.765 0.000
v -0.53064 -0.27036 2.39616 0.000 0.765 0.000
v -0.57582 -0.36702 2.40552 0.000 0.765 0.000
v -0.55872 -0.34452 2.37888 0.000 0.765 0.000
v -0.43830 0.08406 2.31714 0.000 0.843 0.000
v -0.43686 0.07308 2.33586 0.000 0.843 0.000
v -0.39690 0.02178 2.26728 0.000 0.906 0.000
v -0.47934 0.13680 2.35278 0.000 0.843 0.000
v -0.47826 0.13950 2.33496 0.000 0.843 0.000
v -0.52434 0.21240 2.33892 0.000 0.765 0.000
v -0.52074 0.21204 2.31732 0.000 0.765 0.000
v -0.56592 0.28890 2.30094 0.000 0.804 0.000
v -0.55872 0.28206 2.28186 0.000 0.804 0.000
v -0.60966 0.37152 2.25198 0.000 0.843 0.000
v -0.58914 0.34236 2.23668 0.000 0.843 0.000
v -0.55872 -0.28206 2.28186 0.000 0.804 0.000
v -0.60966 -0.37152 2.25198 0.000 0.843 0.000
v -0.56592 -0.28890 2.30094 0.000 0.804 0.000
v -0.58914 -0.34236 2.23668 0.000 0.843 0.000
v -0.52074 -0.21204 2.31732 0.000 0.765 0.000
v -0.52434 -0.21240 2.33892 0.000 0.765 0.000
v -0.47826 -0.13950 2.33496 0.000 0.843 0.000
v -0.47934 -0.13680 2.35278 0.000 0.843 0.000
v -0.43830 -0.08406 2.31714 0.000 0.843 0.000
v -0.43686 -0.07308 2.33586 0.000 0.843 0.000
v -0.39690 -0.02178 2.26728 0.000 0.906 0.000
v -0.39618 0.00000 2.81088 0.000 0.663 0.000
v -0.39150 0.07452 2.68974 0.000 0.686 0.000
v -0.37962 0.00000 2.75688 0.000 0.663 0.000
v -0.37620 0.04986 2.67516 0.000 0.686 0.000
v -0.37170 0.09342 2.57796 0.000 0.725 0.000
v -0.38772 0.12096 2.57778 0.000 0.725 0.000
v -0.37026 0.11430 2.47500 0.000 0.804 0.000
v -0.38556 0.13680 2.47284 0.000 0.804 0.000
v -0.37692 0.07632 2.36916 0.000 0.843 0.000
v -0.38700 0.09180 2.35998 0.000 0.843 0.000
v -0.38538 0.00000 2.27196 0.000 0.906 0.000
v -0.38088 0.00000 2.28942 0.000 0.906 0.000
v -0.39150 -0.07452 2.68974 0.000 0.686 0.000
v -0.37620 -0.04986 2.67516 0.000 0.686 0.000
v -0.37170 -0.09342 2.57796 0.000 0.725 0.000
v -0.38772 -0.12096 2.57778 0.000 0.725 0.000
v -0.37692 -0.07632 2.36916 0.000 0.843 0.000
v -0.38700 -0.09180 2.35998 0.000 0.843 0.000
v -0.38556 -0.13680 2.47284 0.000 0.804 0.000
v -0.37026 -0.11430 2.47500 0.000 0.804 0.000
v -0.50454 0.35208 2.61738 0.000 0.663 0.000
v -0.48258 0.31734 2.58192 0.000 0.663 0.000
v -0.46764 0.22104 2.58192 0.000 0.725 0.000
v -0.45810 0.23040 2.55906 0.000 0.725 0.000
v -0.43236 0.14238 2.51838 0.000 0.725 0.000
v -0.43974 0.12582 2.53674 0.000 0.725 0.000
v -0.40176 0.06660 2.45970 0.000 0.765 0.000
v -0.48798 0.31608 2.48238 0.000 0.804 0.000
v -0.47178 0.29412 2.49228 0.000 0.804 0.000
v -0.45612 0.25344 2.40210 0.000 0.843 0.000
v -0.47070 0.27090 2.38464 0.000 0.843 0.000
v -0.43650 0.19584 2.32434 0.000 0.843 0.000
v -0.44604 0.20754 2.31102 0.000 0.843 0.000
v -0.40932 0.10818 2.27844 0.000 0.843 0.000
v -0.41598 0.05022 2.47212 0.000 0.765 0.000
v -0.42030 0.11142 2.26224 0.000 0.843 0.000
v -0.38574 0.00000 2.27214 0.000 0.906 0.000
v -0.38646 0.01350 2.28114 0.000 0.906 0.000
v -0.38574 0.02034 2.37384 0.000 0.843 0.000
v -0.39348 0.00000 2.37726 0.000 0.843 0.000
v -0.38574 -0.02034 2.37384 0.000 0.843 0.000
v -0.38646 -0.01350 2.28114 0.000 0.906 0.000
v -0.40932 -0.10818 2.27844 0.000 0.843 0.000
v -0.42030 -0.11142 2.26224 0.000 0.843 0.000
v -0.44604 -0.20754 2.31102 0.000 0.843 0.000
v -0.43650 -0.19584 2.32434 0.000 0.843 0.000
v -0.47070 -0.27090 2.38464 0.000 0.843 0.000
v -0.45612 -0.25344 2.40210 0.000 0.843 0.000
v -0.48798 -0.31608 2.48238 0.000 0.804 0.000
v -0.47178 -0.29412 2.49228 0.000 0.804 0.000
v -0.48258 -0.31734 2.58192 0.000 0.663 0.000
v -0.50454 -0.35208 2.61738 0.000 0.663 0.000
v -0.46764 -0.22104 2.58192 0.000 0.725 0.000
v -0.45810 -0.23040 2.55906 0.000 0.725 0.000
v -0.43236 -0.14238 2.51838 0.000 0.725 0.000
v -0.43974 -0.12582 2.53674 0.000 0.725 0.000
v -0.40176 -0.06660 2.45970 0.000 0.765 0.000
v -0.41598 -0.05022 2.47212 0.000 0.765 0.000
v -0.43398 0.11934 2.29932 0.000 0.843 0.000
v -0.40608 0.04914 2.29140 0.000 0.882 0.000
v -0.43542 0.11196 2.33856 0.000 0.804 0.000
v -0.42534 0.06696 2.34594 0.000 0.843 0.000
v -0.41490 0.08730 2.26782 0.000 0.882 0.000
v -0.39654 0.02736 2.27250 0.000 0.882 0.000
v -0.42534 -0.06696 2.34594 0.000 0.843 0.000
v -0.40608 -0.04914 2.29140 0.000 0.882 0.000
v -0.43542 -0.11196 2.33856 0.000 0.804 0.000
v -0.43398 -0.11934 2.29932 0.000 0.843 0.000
v -0.39654 -0.02736 2.27250 0.000 0.882 0.000
v -0.41490 -0.08730 2.26782 0.000 0.882 0.000
v -0.45018 0.12240 2.29302 0.000 0.843 0.000
v -0.43956 0.11790 2.25684 0.000 0.882 0.000
v -0.41112 0.04878 2.26620 0.000 0.882 0.000
v -0.43830 0.08406 2.31714 0.000 0.843 0.000
v -0.41814 0.07524 2.23722 0.000 0.882 0.000
v -0.39690 0.02178 2.26728 0.000 0.882 0.000
v -0.43830 -0.08406 2.31714 0.000 0.843 0.000
v -0.41112 -0.04878 2.26620 0.000 0.882 0.000
v -0.45018 -0.12240 2.29302 0.000 0.843 0.000
v -0.43956 -0.11790 2.25684 0.000 0.882 0.000
v -0.39690 -0.02178 2.26728 0.000 0.882 0.000
v -0.41814 -0.07524 2.23722 0.000 0.882 0.000
v -0.37692 0.07632 2.36916 0.000 0.804 0.000
v -0.36306 0.00000 2.37240 0.000 0.804 0.000
v -0.36000 0.01638 2.39490 0.000 0.804 0.000
v -0.36252 0.04734 2.39940 0.000 0.804 0.000
v -0.38088 0.00000 2.28942 0.000 0.843 0.000
v -0.37692 -0.07632 2.36916 0.000 0.804 0.000
v -0.36000 -0.01638 2.39490 0.000 0.804 0.000
v -0.36252 -0.04734 2.39940 0.000 0.804 0.000
v -0.43542 0.06966 2.21238 0.000 0.882 0.000
v -0.39042 0.01512 2.26260 0.000 0.882 0.000
v -0.45324 0.07164 2.26890 0.000 0.882 0.000
v -0.45990 0.09180 2.21166 0.000 0.882 0.000
v -0.47574 0.09882 2.24064 0.000 0.882 0.000
v -0.40896 0.02736 2.17386 0.000 0.882 0.000
v -0.44550 0.07884 2.17512 0.000 0.882 0.000
v -0.43740 0.06192 2.15604 0.000 0.882 0.000
v -0.45324 -0.07668 2.26890 0.000 0.882 0.000
v -0.39042 -0.01836 2.26260 0.000 0.882 0.000
v -0.43542 -0.07470 2.21238 0.000 0.882 0.000
v -0.45990 -0.09684 2.21166 0.000 0.882 0.000
v -0.47574 -0.10386 2.24064 0.000 0.882 0.000
v -0.40896 -0.03240 2.17386 0.000 0.882 0.000
v -0.44550 -0.08388 2.17512 0.000 0.882 0.000
v -0.43740 -0.06696 2.15604 0.000 0.882 0.000
v -0.39618 0.07920 2.34090 0.000 0.804 0.000
v -0.38574 0.02034 2.37384 0.000 0.804 0.000
v -0.39618 0.08406 2.37204 0.000 0.804 0.000
v -0.39708 0.05328 2.39922 0.000 0.804 0.000
v -0.38646 0.01350 2.28114 0.000 0.843 0.000
v -0.40932 0.10818 2.27844 0.000 0.882 0.000
v -0.39852 0.10350 2.33964 0.000 0.804 0.000
v -0.40950 0.13068 2.31336 0.000 0.843 0.000
v -0.38574 -0.02034 2.37384 0.000 0.804 0.000
v -0.39618 -0.08406 2.37204 0.000 0.804 0.000
v -0.39708 -0.05328 2.39922 0.000 0.804 0.000
v -0.39618 -0.07920 2.34090 0.000 0.804 0.000
v -0.38646 -0.01350 2.28114 0.000 0.843 0.000
v -0.40932 -0.10818 2.27844 0.000 0.882 0.000
v -0.39852 -0.10350 2.33964 0.000 0.804 0.000
v -0.40950 -0.13068 2.31336 0.000 0.843 0.000
v -1.21320 0.76464 2.56194 0.000 0.000 1.000
v -0.95418 0.44442 2.29644 1.000 0.000 0.000
v -1.06416 0.68652 2.71854 0.000 0.000 1.000
v -1.50210 1.00548 2.93274 0.000 0.000 1.000
v -1.11078 0.65106 2.94084 0.000 0.000 1.000
v -0.73674 0.29574 2.46816 1.000 0.000 0.000
v -0.77040 0.24282 2.80098 1.000 0.000 0.000
v -0.65286 0.09936 2.61936 1.000 0.000 0.000
v -0.52200 0.00000 2.31318 1.000 0.000 0.000
v -0.80244 0.18864 2.25594 1.000 0.000 0.000
v -0.84816 -0.00900 2.09952 1.000 0.000 0.000
v -0.73836 0.19116 2.23488 1.000 0.000 0.000
v -1.03284 0.29322 2.14542 1.000 0.000 0.000
v -1.38852 -0.01566 1.95264 0.000 0.000 1.000
v -0.74610 -0.21384 2.22516 1.000 0.000 0.000
v -1.03734 -0.29538 2.17350 1.000 0.000 0.000
v -1.49004 -0.22032 1.97856 0.000 0.000 1.000
v -1.96218 -0.02124 1.85022 0.000 0.000 1.000
v -1.49292 0.18828 1.97244 0.000 0.000 1.000
v -0.72198 0.10962 2.73258 1.000 0.000 0.000
v -0.63486 -0.16380 2.60910 1.000 0.000 0.000
v -0.76518 -0.18234 2.94750 1.000 0.000 0.000
v -0.96624 0.22698 3.20904 0.000 0.000 1.000
v -0.71748 0.19116 2.49084 1.000 0.000 0.000
v -0.91980 0.34992 2.72394 1.000 0.000 0.000
v -1.10052 0.41328 3.19608 0.000 0.000 1.000
v -1.31256 0.31392 3.66948 0.000 0.000 1.000
v -1.01052 0.03942 3.33432 0.000 0.000 1.000
v -0.99666 -0.69282 2.97864 0.000 0.000 1.000
v -0.70794 -0.34506 2.81610 1.000 0.000 0.000
v -1.01214 -0.70398 2.74950 0.000 0.000 1.000
v -1.39842 -1.03014 3.03894 0.000 0.000 1.000
v -1.20150 -0.75816 2.63124 0.000 0.000 1.000
v -0.70920 -0.32202 2.49894 1.000 0.000 0.000
v -0.96714 -0.40590 2.33532 1.000 0.000 0.000
v -0.76230 -0.19782 2.30580 1.000 0.000 0.000
v -0.61596 -0.15120 2.59308 1.000 0.000 0.000
v -0.93780 0.24462 2.32362 1.000 0.000 0.000
v -0.71406 0.17370 2.50308 1.000 0.000 0.000
v -1.01070 0.45558 2.57868 1.000 0.000 0.000
v -1.39608 0.54180 2.27790 0.000 0.000 1.000
v -0.86346 0.01260 2.21922 1.000 0.000 0.000
v -1.15398 0.13734 2.13174 1.000 0.000 0.000
v -1.55052 0.44532 2.13750 0.000 0.000 1.000
v -1.92600 0.78372 2.29050 0.000 0.000 1.000
v -1.44522 0.65880 2.46960 0.000 0.000 1.000
v -0.81180 -0.20898 2.77686 1.000 0.000 0.000
v -0.83340 -0.18720 2.46078 1.000 0.000 0.000
v -1.10988 -0.40680 2.69424 1.000 0.000 0.000
v -1.11852 -0.28188 3.12102 0.000 0.000 1.000
v -0.70290 0.06732 2.61828 1.000 0.000 0.000
v -0.84906 0.05796 2.95686 1.000 0.000 0.000
v -1.13094 -0.11394 3.27762 0.000 0.000 1.000
v -1.53648 -0.34830 3.52170 0.000 0.000 1.000
v -1.29240 -0.41886 3.05856 0.000 0.000 1.000
v -1.51470 -0.50022 2.61900 0.000 0.000 1.000
v -1.07856 -0.30222 2.65266 1.000 0.000 0.000
v -1.46340 -0.43056 2.40606 0.000 0.000 1.000
v -2.02266 -0.56952 2.49192 0.000 0.000 1.000
v -1.61100 -0.33570 2.25774 0.000 0.000 1.000
v -0.96066 -0.21510 2.37024 1.000 0.000 0.000
v -1.18944 -0.13374 2.15226 1.000 0.000 0.000
v -0.85122 0.00270 2.21544 1.000 0.000 0.000
v -0.77490 -0.12744 2.50164 1.000 0.000 0.000
v -0.66204 -0.15174 2.14272 1.000 0.000 0.000
v -0.61038 -0.41490 2.29842 1.000 0.000 0.000
v -0.88182 -0.45828 1.98324 1.000 0.000 0.000
v -0.94230 -0.95688 2.29338 0.000 0.000 1.000
v -0.59328 -0.53388 2.59074 1.000 0.000 0.000
v -0.94518 -1.06038 2.54970 0.000 0.000 1.000
v -0.51174 -0.25074 2.53386 1.000 0.000 0.000
v -1.17234 -1.29240 2.44332 0.000 0.000 1.000
v -1.35954 -1.44918 2.33316 0.000 0.000 1.000
v -1.26414 -1.23390 2.20392 0.000 0.000 1.000
v -1.12356 -0.94662 2.08476 0.000 0.000 1.000
v -0.71244 0.17082 2.15982 1.000 0.000 0.000
v -0.76374 -0.18468 2.04804 1.000 0.000 0.000
v -1.03374 0.03510 1.82286 1.000 0.000 0.000
v -1.23066 -0.42588 1.69074 0.000 0.000 1.000
v -0.85140 -0.52884 2.17530 1.000 0.000 0.000
v -1.29456 -0.67662 1.78776 0.000 0.000 1.000
v -0.64296 -0.26712 2.34072 1.000 0.000 0.000
v -1.56402 -0.68058 1.57590 0.000 0.000 1.000
v -1.77066 -0.64494 1.41066 0.000 0.000 1.000
v -1.60488 -0.44370 1.46934 0.000 0.000 1.000
v -1.37412 -0.21654 1.58094 0.000 0.000 1.000
v -0.65106 0.27936 2.32002 1.000 0.000 0.000
v -0.83088 0.18468 2.07378 1.000 0.000 0.000
v -0.85140 0.52884 2.17530 1.000 0.000 0.000
v -1.23066 0.42588 1.69074 0.000 0.000 1.000
v -1.05318 -0.03510 1.85778 1.000 0.000 0.000
v -1.37412 0.21654 1.58094 0.000 0.000 1.000
v -0.72396 -0.06282 2.14074 1.000 0.000 0.000
v -1.60488 0.44370 1.46934 0.000 0.000 1.000
v -1.77066 0.64494 1.41066 0.000 0.000 1.000
v -1.56402 0.68058 1.57590 0.000 0.000 1.000
v -1.29456 0.67662 1.78776 0.000 0.000 1.000
v -0.49914 0.26730 2.52648 1.000 0.000 0.000
v -0.61380 0.41490 2.29968 1.000 0.000 0.000
v -0.59670 0.53388 2.59200 1.000 0.000 0.000
v -0.94572 0.95688 2.29464 0.000 0.000 1.000
v -0.88524 0.45828 1.98450 1.000 0.000 0.000
v -1.12698 0.94662 2.08602 0.000 0.000 1.000
v -0.65880 0.18774 2.16090 1.000 0.000 0.000
v -1.26774 1.23390 2.20536 0.000 0.000 1.000
v -1.36296 1.44918 2.33442 0.000 0.000 1.000
v -1.17576 1.29240 2.44476 0.000 0.000 1.000
v -0.94842 1.06038 2.55096 0.000 0.000 1.000
v -0.56484 -0.36864 2.63052 1.000 0.000 0.000
v -0.66816 -0.27270 2.37582 1.000 0.000 0.000
v -0.77670 -0.61560 2.52414 1.000 0.000 0.000
v -0.72810 -0.76734 3.10050 0.000 0.000 1.000
v -0.54540 -0.19080 3.00078 1.000 0.000 0.000
v -0.73404 -0.64548 3.34854 0.000 0.000 1.000
v -0.50760 -0.02736 2.70000 1.000 0.000 0.000
v -0.87444 -0.93096 3.47598 0.000 0.000 1.000
v -0.99216 -1.16226 3.53916 0.000 0.000 1.000
v -0.94806 -1.09494 3.28392 0.000 0.000 1.000
v -0.87714 -0.96390 2.97576 0.000 0.000 1.000
v -0.56484 0.36864 2.63052 1.000 0.000 0.000
v -0.50760 0.00936 2.70000 1.000 0.000 0.000
v -0.54540 0.19080 3.00078 1.000 0.000 0.000
v -0.72810 0.76734 3.10050 0.000 0.000 1.000
v -0.77670 0.61560 2.52414 1.000 0.000 0.000
v -0.87714 0.96390 2.97576 0.000 0.000 1.000
v -0.62100 0.24354 2.36862 1.000 0.000 0.000
v -0.94806 1.09494 3.28392 0.000 0.000 1.000
v -0.99216 1.16226 3.53916 0.000 0.000 1.000
v -0.87444 0.93096 3.47598 0.000 0.000 1.000
v -0.73404 0.64548 3.34854 0.000 0.000 1.000
v -0.62334 0.25542 3.47562 0.000 0.000 1.000
v -0.54666 0.34092 2.90844 1.000 0.000 0.000
v -0.51642 0.00000 3.41514 0.000 0.000 1.000
v -0.69084 0.13158 3.78594 0.000 0.000 1.000
v -0.71226 0.00000 4.03128 0.000 0.000 1.000
v -0.69084 -0.13158 3.78594 0.000 0.000 1.000
v -0.62334 -0.25542 3.47562 0.000 0.000 1.000
v -0.48204 0.00000 2.78568 1.000 0.000 0.000
v -0.54666 -0.34092 2.90844 1.000 0.000 0.000
v -0.51498 -0.24966 2.56680 1.000 0.000 0.000
v -0.51480 0.26352 2.56680 1.000 0.000 0.000
v -0.52200 0.00000 2.31318 1.000 0.000 0.000
v -0.50076 0.11718 2.25162 1.000 0.000 0.000
v -0.51552 0.14832 2.14344 1.000 0.000 0.000
v -0.54504 0.16164 2.20302 0.000 0.000 1.000
v -0.47574 0.09882 2.24064 1.000 0.000 0.000
v -0.45324 0.07164 2.26890 1.000 0.000 0.000
v -0.45990 0.09180 2.21166 1.000 0.000 0.000
v -0.43542 0.06966 2.21238 1.000 0.000 0.000
v -0.44550 0.07884 2.17512 1.000 0.000 0.000
v -0.43740 0.06192 2.15604 1.000 0.000 0.000
v -0.44694 0.06354 2.11986 1.000 0.000 0.000
v -0.40896 0.02736 2.17386 1.000 0.000 0.000
v -0.49878 0.11538 2.08998 0.000 0.000 1.000
v -0.55494 0.17154 2.07630 0.000 0.000 1.000
v -0.60786 0.22446 2.07630 0.000 0.000 1.000
v -0.58140 0.19800 2.14110 0.000 0.000 1.000
v -0.54504 -0.16668 2.20302 0.000 0.000 1.000
v -0.51552 -0.15336 2.14344 1.000 0.000 0.000
v -0.50076 -0.12240 2.25162 1.000 0.000 0.000
v -0.47574 -0.10386 2.24064 1.000 0.000 0.000
v -0.45324 -0.07668 2.26890 1.000 0.000 0.000
v -0.45990 -0.09684 2.21166 1.000 0.000 0.000
v -0.43542 -0.07470 2.21238 1.000 0.000 0.000
v -0.44550 -0.08388 2.17512 1.000 0.000 0.000
v -0.43740 -0.06696 2.15604 1.000 0.000 0.000
v -0.44694 -0.06858 2.11986 1.000 0.000 0.000
v -0.40896 -0.03240 2.17386 1.000 0.000 0.000
v -0.49878 -0.12042 2.08998 0.000 0.000 1.000
v -0.55494 -0.17658 2.07630 0.000 0.000 1.000
v -0.60786 -0.22950 2.07630 0.000 0.000 1.000
v -0.58140 -0.20304 2.14110 0.000 0.000 1.000
v -0.46188 0.18468 2.32380 1.000 0.000 0.000
v -0.44478 0.15966 2.24802 0.000 0.000 1.000
v -0.48420 0.24192 2.26908 0.000 0.000 1.000
v -0.52362 0.30006 2.32074 0.000 0.000 1.000
v -0.55872 0.34452 2.37888 0.000 0.000 1.000
v -0.53064 0.27036 2.39616 0.000 0.000 1.000
v -0.49644 0.19008 2.40030 0.000 0.000 1.000
v -0.45918 0.11394 2.38626 0.000 0.000 1.000
v -0.43398 0.11934 2.29932 1.000 0.000 0.000
v -0.41490 0.08730 2.26782 1.000 0.000 0.000
v -0.43542 0.11196 2.33856 1.000 0.000 0.000
v -0.42534 0.06696 2.34594 1.000 0.000 0.000
v -0.48420 -0.24192 2.26908 0.000 0.000 1.000
v -0.44478 -0.15966 2.24802 0.000 0.000 1.000
v -0.46188 -0.18468 2.32380 1.000 0.000 0.000
v -0.52362 -0.30006 2.32074 0.000 0.000 1.000
v -0.55872 -0.34452 2.37888 0.000 0.000 1.000
v -0.53064 -0.27036 2.39616 0.000 0.000 1.000
v -0.49644 -0.19008 2.40030 0.000 0.000 1.000
v -0.45918 -0.11394 2.38626 0.000 0.000 1.000
v -0.43398 -0.11934 2.29932 1.000 0.000 0.000
v -0.41490 -0.08730 2.26782 1.000 0.000 0.000
v -0.43542 -0.11196 2.33856 1.000 0.000 0.000
v -0.42534 -0.06696 2.34594 1.000 0.000 0.000
v -0.45360 0.13284 2.19096 0.000 0.000 1.000
v -0.49914 0.21348 2.17746 0.000 0.000 1.000
v -0.47898 0.18216 2.25090 1.000 0.000 0.000
v -0.54630 0.28296 2.20140 0.000 0.000 1.000
v -0.58914 0.34236 2.23668 0.000 0.000 1.000
v -0.55872 0.28206 2.28186 0.000 0.000 1.000
v -0.52074 0.21204 2.31732 0.000 0.000 1.000
v -0.47826 0.13950 2.33496 0.000 0.000 1.000
v -0.43956 0.11790 2.25684 1.000 0.000 0.000
v -0.41814 0.07524 2.23722 1.000 0.000 0.000
v -0.45018 0.12240 2.29302 1.000 0.000 0.000
v -0.43830 0.08406 2.31714 1.000 0.000 0.000
v -0.47898 -0.18216 2.25090 1.000 0.000 0.000
v -0.49914 -0.21348 2.17746 0.000 0.000 1.000
v -0.45360 -0.13284 2.19096 0.000 0.000 1.000
v -0.54630 -0.28296 2.20140 0.000 0.000 1.000
v -0.58914 -0.34236 2.23668 0.000 0.000 1.000
v -0.55872 -0.28206 2.28186 0.000 0.000 1.000
v -0.52074 -0.21204 2.31732 0.000 0.000 1.000
v -0.47826 -0.13950 2.33496 0.000 0.000 1.000
v -0.43956 -0.11790 2.25684 1.000 0.000 0.000
v -0.41814 -0.07524 2.23722 1.000 0.000 0.000
v -0.45018 -0.12240 2.29302 1.000 0.000 0.000
v -0.43830 -0.08406 2.31714 1.000 0.000 0.000
v -0.37170 -0.09342 2.57796 0.000 0.000 1.000
v -0.37026 -0.11430 2.47500 1.000 0.000 0.000
v -0.34902 0.00000 2.57364 1.000 0.000 0.000
v -0.36252 -0.04734 2.39940 1.000 0.000 0.000
v -0.37692 -0.07632 2.36916 1.000 0.000 0.000
v -0.36000 -0.01638 2.39490 1.000 0.000 0.000
v -0.36306 0.00000 2.37240 1.000 0.000 0.000
v -0.37620 -0.04986 2.67516 0.000 0.000 1.000
v -0.37962 0.00000 2.75688 0.000 0.000 1.000
v -0.37620 0.04986 2.67516 0.000 0.000 1.000
v -0.37170 0.09342 2.57796 0.000 0.000 1.000
v -0.37026 0.11430 2.47500 1.000 0.000 0.000
v -0.36252 0.04734 2.39940 1.000 0.000 0.000
v -0.37692 0.07632 2.36916 1.000 0.000 0.000
v -0.36000 0.01638 2.39490 1.000 0.000 0.000
v -0.39852 0.10350 2.33964 1.000 0.000 0.000
v -0.40950 0.13068 2.31336 1.000 0.000 0.000
v -0.42966 0.20304 2.46546 1.000 0.000 0.000
v -0.39618 0.07920 2.34090 1.000 0.000 0.000
v -0.43650 0.19584 2.32434 1.000 0.000 0.000
v -0.39618 0.08406 2.37204 1.000 0.000 0.000
v -0.39708 0.05328 2.39922 1.000 0.000 0.000
v -0.40176 0.06660 2.45970 1.000 0.000 0.000
v -0.43236 0.14238 2.51838 0.000 0.000 1.000
v -0.45612 0.25344 2.40210 0.000 0.000 1.000
v -0.47178 0.29412 2.49228 0.000 0.000 1.000
v -0.40932 0.10818 2.27844 1.000 0.000 0.000
v -0.38574 0.02034 2.37384 1.000 0.000 0.000
v -0.48258 0.31734 2.58192 0.000 0.000 1.000
v -0.45810 0.23040 2.55906 0.000 0.000 1.000
v -0.39852 -0.10350 2.33964 1.000 0.000 0.000
v -0.39618 -0.07920 2.34090 1.000 0.000 0.000
v -0.42966 -0.20304 2.46546 1.000 0.000 0.000
v -0.40950 -0.13068 2.31336 1.000 0.000 0.000
v -0.43650 -0.19584 2.32434 1.000 0.000 0.000
v -0.39618 -0.08406 2.37204 1.000 0.000 0.000
v -0.39708 -0.05328 2.39922 1.000 0.000 0.000
v -0.40176 -0.06660 2.45970 1.000 0.000 0.000
v -0.43236 -0.14238 2.51838 0.000 0.000 1.000
v -0.45612 -0.25344 2.40210 0.000 0.000 1.000
v -0.47178 -0.29412 2.49228 0.000 0.000 1.000
v -0.40932 -0.10818 2.27844 1.000 0.000 0.000
v -0.38574 -0.02034 2.37384 1.000 0.000 0.000
v -0.48258 -0.31734 2.58192 0.000 0.000 1.000
v -0.45810 -0.23040 2.55906 0.000 0.000 1.000
v -0.38250 0.00000 2.39418 1.000 0.000 0.000
v -0.37548 0.40086 2.67066 1.000 0.000 0.000
v -0.37260 0.00000 2.78532 1.000 0.000 0.000
v -0.38250 0.56700 2.39418 1.000 0.000 0.000
v -0.38934 0.40086 2.11752 1.000 0.000 0.000
v -0.39240 0.00000 2.00286 1.000 0.000 0.000
v -0.09198 -0.28350 2.66724 1.000 0.000 0.000
v -0.10602 -0.28350 2.11410 1.000 0.000 0.000
v 0.01836 -0.40086 2.38932 1.000 0.000 0.000
v -0.65898 0.28350 2.67408 1.000 0.000 0.000
v -0.67284 0.28350 2.12094 1.000 0.000 0.000
v -0.78336 0.40086 2.39886 1.000 0.000 0.000
v -0.37548 -0.40086 2.67066 1.000 0.000 0.000
v -0.38934 -0.40086 2.11752 1.000 0.000 0.000
v -0.38250 -0.56700 2.39418 1.000 0.000 0.000
v -0.09198 0.28350 2.66724 1.000 0.000 0.000
v -0.10602 0.28350 2.11410 1.000 0.000 0.000
v 0.01836 0.40086 2.38932 1.000 0.000 0.000
v -0.67284 -0.28350 2.12094 1.000 0.000 0.000
v -0.78336 -0.40086 2.39886 1.000 0.000 0.000
v -0.65898 -0.28350 2.67408 1.000 0.000 0.000
v -0.72810 -0.76734 3.10050 1.000 0.000 0.000
v -0.51120 0.00000 2.32092 1.000 0.000 0.000
v -0.53154 -0.36522 3.26088 1.000 0.000 0.000
v -0.92646 -0.90018 2.54196 1.000 0.000 0.000
v -1.20276 -1.49472 3.34728 0.000 0.000 1.000
v -1.29654 -1.71378 4.01742 0.000 0.000 1.000
v -1.02366 -1.07118 3.86154 0.000 0.000 1.000
v -0.67050 -0.82278 2.93058 1.000 0.000 0.000
v -0.94230 -0.95688 2.29338 1.000 0.000 0.000
v -1.07442 -0.71766 1.89648 1.000 0.000 0.000
v -1.62036 -1.63350 2.06190 0.000 0.000 1.000
v -1.80486 -2.10240 2.31750 0.000 0.000 1.000
v -1.32210 -1.73232 2.68164 0.000 0.000 1.000
v -0.94572 0.95688 2.29464 1.000 0.000 0.000
v -0.67050 0.82278 2.93058 1.000 0.000 0.000
v -1.07442 0.71766 1.89648 1.000 0.000 0.000
v -1.62036 1.63350 2.06190 0.000 0.000 1.000
v -1.80486 2.10240 2.31750 0.000 0.000 1.000
v -1.32210 1.73232 2.68164 0.000 0.000 1.000
v -0.81630 -0.67914 2.11284 1.000 0.000 0.000
v -1.23066 -0.42588 1.69074 1.000 0.000 0.000
v -1.06506 0.07920 1.67706 1.000 0.000 0.000
v -1.83168 -0.46638 1.32120 0.000 0.000 1.000
v -2.20734 -0.85878 1.18296 0.000 0.000 1.000
v -1.68156 -0.92124 1.49562 0.000 0.000 1.000
v -1.23066 0.42588 1.69074 1.000 0.000 0.000
v -0.81630 0.67914 2.11284 1.000 0.000 0.000
v -1.06506 -0.07920 1.67706 1.000 0.000 0.000
v -1.83168 0.46638 1.32120 0.000 0.000 1.000
v -2.20734 0.85878 1.18296 0.000 0.000 1.000
v -1.68156 0.92124 1.49562 0.000 0.000 1.000
v -0.53154 0.36522 3.26088 1.000 0.000 0.000
v -0.72810 0.76734 3.10050 1.000 0.000 0.000
v -0.92646 0.90018 2.54196 1.000 0.000 0.000
v -1.20276 1.49472 3.34728 0.000 0.000 1.000
v -1.29654 1.71378 4.01742 0.000 0.000 1.000
v -1.02366 1.07118 3.86154 0.000 0.000 1.000
v -0.54846 -0.70236 3.10752 1.000 0.000 0.000
v -0.51642 0.00000 3.41514 1.000 0.000 0.000
v -0.73152 -0.42084 4.22838 0.000 0.000 1.000
v -0.78192 0.00000 4.76226 0.000 0.000 1.000
v -0.54846 0.70236 3.10752 1.000 0.000 0.000
v -0.73152 0.42084 4.22838 0.000 0.000 1.000
vt 0.80469 0.19531
vt 0.99219 0.19531
vt 0.99219 0.27344
vt 0.80469 0.27344
vt 0.53906 0.27344
vt 0.53906 0.19531
vt 0.32031 0.27344
vt 0.32031 0.19531
vt 0.16406 0.27344
vt 0.16406 0.19531
vt 0.00781 0.19531
vt 0.00781 0.27344
vt 0.80469 0.19531
vt 0.80469 0.27344
vt 0.53906 0.27344
vt 0.53906 0.19531
vt 0.16406 0.27344
vt 0.16406 0.19531
vt 0.32031 0.19531
vt 0.32031 0.27344
vt 0.16406 0.19531
vt 0.16406 0.27344
vt 0.00781 0.27344
vt 0.32031 0.19531
vt 0.32031 0.27344
vt 0.53906 0.19531
vt 0.53906 0.27344
vt 0.80469 0.19531
vt 0.80469 0.27344
vt 0.99219 0.27344
vt 0.99219 0.19531
vt 0.80469 0.19531
vt 0.80469 0.27344
vt 0.53906 0.27344
vt 0.53906 0.19531
vt 0.32031 0.27344
vt 0.32031 0.19531
vt 0.16406 0.27344
vt 0.16406 0.19531
vt 0.99219 0.10156
vt 0.80469 0.17969
vt 0.80469 0.10156
vt 0.99219 0.17969
vt 0.55469 0.17969
vt 0.55469 0.10156
vt 0.32031 0.17969
vt 0.32031 0.10156
vt 0.14844 0.17969
vt 0.14844 0.10156
vt 0.00781 0.10156
vt 0.00781 0.17969
vt 0.14844 0.10156
vt 0.14844 0.17969
vt 0.00781 0.17969
vt 0.32031 0.10156
vt 0.32031 0.17969
vt 0.55469 0.10156
vt 0.55469 0.17969
vt 0.80469 0.10156
vt 0.80469 0.17969
vt 0.99219 0.10156
vt 0.99219 0.17969
vt 0.14844 0.17969
vt 0.14844 0.10156
vt 0.00781 0.17969
vt 0.32031 0.10156
vt 0.32031 0.17969
vt 0.55469 0.10156
vt 0.55469 0.17969
vt 0.80469 0.10156
vt 0.80469 0.17969
vt 0.99219 0.10156
vt 0.99219 0.17969
vt 0.80469 0.17969
vt 0.99219 0.10156
vt 0.80469 0.10156
vt 0.99219 0.17969
vt 0.55469 0.17969
vt 0.55469 0.10156
vt 0.32031 0.17969
vt 0.32031 0.10156
vt 0.14844 0.17969
vt 0.14844 0.10156
vt 0.00781 0.17969
vt 0.99219 0.00781
vt 0.80469 0.00781
vt 0.99219 0.08594
vt 0.80469 0.08594
vt 0.53906 0.08594
vt 0.53906 0.00781
vt 0.32031 0.08594
vt 0.32031 0.00781
vt 0.16406 0.08594
vt 0.16406 0.00781
vt 0.00781 0.00781
vt 0.00781 0.08594
vt 0.80469 0.00781
vt 0.80469 0.08594
vt 0.53906 0.08594
vt 0.53906 0.00781
vt 0.16406 0.08594
vt 0.16406 0.00781
vt 0.32031 0.00781
vt 0.32031 0.08594
vt 0.99219 0.00781
vt 0.99219 0.08594
vt 0.80469 0.00781
vt 0.80469 0.08594
vt 0.53906 0.08594
vt 0.53906 0.00781
vt 0.32031 0.08594
vt 0.80469 0.00781
vt 0.80469 0.08594
vt 0.53906 0.08594
vt 0.53906 0.00781
vt 0.32031 0.08594
vt 0.32031 0.00781
vt 0.16406 0.08594
vt 0.32031 0.00781
vt 0.16406 0.00781
vt 0.00781 0.00781
vt 0.00781 0.08594
vt 0.16406 0.08594
vt 0.16406 0.00781
vt 0.16406 0.08594
vt 0.00781 0.08594
vt 0.16406 0.08594
vt 0.16406 0.00781
vt 0.32031 0.00781
vt 0.32031 0.08594
vt 0.53906 0.00781
vt 0.53906 0.08594
vt 0.80469 0.00781
vt 0.80469 0.08594
vt 0.99219 0.08594
vt 0.99219 0.00781
vt 0.80469 0.00781
vt 0.80469 0.08594
vt 0.53906 0.08594
vt 0.53906 0.00781
vt 0.32031 0.08594
vt 0.32031 0.00781
vt 1.00000 0.46875
vt 0.79688 0.32812
vt 1.00000 0.42188
vt 1.00000 0.28125
vt 0.79688 0.46875
vt 0.64062 0.32812
vt 1.00000 0.28125
vt 0.79688 0.32812
vt 1.00000 0.42188
vt 1.00000 0.46875
vt 0.64062 0.32812
vt 0.79688 0.46875
vt 1.00000 0.42188
vt 1.00000 0.46875
vt 0.79688 0.32812
vt 1.00000 0.28125
vt 0.79688 0.46875
vt 0.64062 0.32812
vt 1.00000 0.28125
vt 0.79688 0.32812
vt 1.00000 0.42188
vt 1.00000 0.46875
vt 0.64062 0.32812
vt 0.79688 0.46875
vt 1.00000 0.28125
vt 0.79688 0.46875
vt 0.90625 0.46875
vt 1.00000 0.46875
vt 0.64062 0.32812
vt 1.00000 0.28125
vt 0.90625 0.46875
vt 1.00000 0.46875
vt 0.79688 0.46875
vt 0.64062 0.32812
vt 1.00000 0.28125
vt 0.90625 0.46875
vt 1.00000 0.46875
vt 1.00000 0.28125
vt 0.90625 0.46875
vt 1.00000 0.46875
vt 1.00000 0.28125
vt 0.64062 0.32812
vt 0.79688 0.46875
vt 0.90625 0.46875
vt 1.00000 0.46875
vt 1.00000 0.28125
vt 0.90625 0.46875
vt 1.00000 0.46875
vt 0.79688 0.46875
vt 1.00000 0.28125
vt 0.90625 0.46875
vt 1.00000 0.46875
vt 0.64062 0.32812
vt 1.00000 0.28125
vt 0.90625 0.46875
vt 1.00000 0.46875
vt 1.00000 0.28125
vt 0.90625 0.46875
vt 1.00000 0.46875
vt 0.79688 0.46875
vt 0.64062 0.32812
vt 1.00000 0.28125
vt 0.90625 0.46875
vt 1.00000 0.46875
vt 0.34181 0.28801
vt 0.19406 0.28786
vt 0.32195 0.49074
vt 0.42240 0.28848
vt 0.34181 0.28801
vt 0.04360 0.49116
vt 0.19406 0.28786
vt 0.10004 0.28817
vt 0.00602 0.28911
vt 0.10004 0.28817
vt 0.04360 0.49116
vt 0.10004 0.28817
vt 0.19406 0.28786
vt 0.32195 0.49074
vt 0.10004 0.28817
vt 0.19406 0.28786
vt 0.34181 0.28801
vt 0.42240 0.28848
vt 0.34181 0.28801
vt 0.04360 0.49116
vt 0.10004 0.28817
vt 0.19406 0.28786
vt 0.32195 0.49074
vt 0.10004 0.28817
vt 0.19406 0.28786
vt 0.34181 0.28801
vt 0.42240 0.28848
vt 0.34181 0.28801
vt 0.34181 0.28801
vt 0.19406 0.28786
vt 0.32195 0.49074
vt 0.42240 0.28848
vt 0.34181 0.28801
vt 0.04360 0.49116
vt 0.19406 0.28786
vt 0.10004 0.28817
vt 0.10004 0.28817
vt 0.04360 0.49116
vt 0.10004 0.28817
vt 0.19406 0.28786
vt 0.32195 0.49074
vt 0.10004 0.28817
vt 0.19406 0.28786
vt 0.34181 0.28801
vt 0.42240 0.28848
vt 0.34181 0.28801
vt 0.04360 0.49116
vt 0.10004 0.28817
vt 0.19406 0.28786
vt 0.32195 0.49074
vt 0.10004 0.28817
vt 0.19406 0.28786
vt 0.34181 0.28801
vt 0.42240 0.28848
vt 0.34181 0.28801
vt 0.34181 0.28801
vt 0.19406 0.28786
vt 0.32195 0.49074
vt 0.42240 0.28848
vt 0.34181 0.28801
vt 0.04360 0.49116
vt 0.19406 0.28786
vt 0.10004 0.28817
vt 0.10004 0.28817
vt 0.10004 0.28817
vt 0.06039 0.49116
vt 0.19406 0.28770
vt 0.32665 0.49074
vt 0.19406 0.28770
vt 0.34181 0.28801
vt 0.10004 0.28817
vt 0.39553 0.28817
vt 0.43583 0.28848
vt 0.39553 0.28817
vt 0.34181 0.28801
vt 0.10004 0.28817
vt 0.06039 0.49116
vt 0.19406 0.28770
vt 0.32665 0.49074
vt 0.19406 0.28770
vt 0.34181 0.28801
vt 0.10004 0.28817
vt 0.39553 0.28817
vt 0.43583 0.28848
vt 0.39553 0.28817
vt 0.34181 0.28801
vt 0.10004 0.28817
vt 0.06039 0.49116
vt 0.19406 0.28770
vt 0.32665 0.49074
vt 0.19406 0.28770
vt 0.34181 0.28801
vt 0.10004 0.28817
vt 0.39553 0.28817
vt 0.43583 0.28848
vt 0.39553 0.28817
vt 0.34181 0.28801
vt 0.10004 0.28817
vt 0.06039 0.49116
vt 0.19406 0.28770
vt 0.32665 0.49074
vt 0.19406 0.28770
vt 0.34181 0.28801
vt 0.10004 0.28817
vt 0.39553 0.28817
vt 0.43583 0.28848
vt 0.39553 0.28817
vt 0.34181 0.28801
vt 0.06039 0.49116
vt 0.10004 0.28817
vt 0.19406 0.28770
vt 0.32665 0.49074
vt 0.19406 0.28770
vt 0.34181 0.28801
vt 0.10004 0.28817
vt 0.39553 0.28817
vt 0.43583 0.28848
vt 0.39553 0.28817
vt 0.34181 0.28801
vt 0.06039 0.49116
vt 0.10004 0.28817
vt 0.19406 0.28770
vt 0.32665 0.49074
vt 0.19406 0.28770
vt 0.34181 0.28801
vt 0.10004 0.28817
vt 0.39553 0.28817
vt 0.43583 0.28848
vt 0.39553 0.28817
vt 0.34181 0.28801
vt 0.38210 0.28786
vt 0.22092 0.28786
vt 0.34545 0.49074
vt 0.42240 0.28817
vt 0.46269 0.28848
vt 0.42240 0.28817
vt 0.38210 0.28786
vt 0.11076 0.49116
vt 0.22092 0.28786
vt 0.14033 0.28848
vt 0.14033 0.28848
vt 0.05974 0.28911
vt 0.60156 0.53906
vt 0.47656 0.38281
vt 0.49219 0.53906
vt 0.61719 0.47656
vt 0.71094 0.53906
vt 0.61719 0.41406
vt 0.66406 0.38281
vt 0.61719 0.41406
vt 0.61719 0.47656
vt 0.60156 0.53906
vt 0.71094 0.53906
vt 0.49219 0.53906
vt 0.39844 0.53906
vt 0.35156 0.53906
vt 0.39844 0.53906
vt 0.49219 0.53906
vt 0.47656 0.38281
vt 0.60156 0.53906
vt 0.61719 0.47656
vt 0.71094 0.53906
vt 0.61719 0.41406
vt 0.66406 0.38281
vt 0.61719 0.41406
vt 0.61719 0.47656
vt 0.60156 0.53906
vt 0.71094 0.53906
vt 0.49219 0.53906
vt 0.39844 0.53906
vt 0.35156 0.53906
vt 0.39844 0.53906
vt 0.50781 0.38281
vt 0.60156 0.53906
vt 0.49219 0.53906
vt 0.41406 0.53906
vt 0.35156 0.53906
vt 0.41406 0.53906
vt 0.49219 0.53906
vt 0.60156 0.53906
vt 0.63281 0.38281
vt 0.71094 0.53906
vt 0.63281 0.46094
vt 0.71094 0.53906
vt 0.49219 0.53906
vt 0.60156 0.53906
vt 0.50781 0.38281
vt 0.41406 0.53906
vt 0.35156 0.53906
vt 0.41406 0.53906
vt 0.49219 0.53906
vt 0.60156 0.53906
vt 0.63281 0.38281
vt 0.71094 0.53906
vt 0.63281 0.46094
vt 0.71094 0.53906
vt 0.60156 0.53906
vt 0.49219 0.53906
vt 0.50781 0.38281
vt 0.41406 0.53906
vt 0.35156 0.53906
vt 0.41406 0.53906
vt 0.49219 0.53906
vt 0.60156 0.53906
vt 0.63281 0.38281
vt 0.71094 0.53906
vt 0.63281 0.46094
vt 0.71094 0.53906
vt 0.50781 0.38281
vt 0.49219 0.53906
vt 0.60156 0.53906
vt 0.41406 0.53906
vt 0.35156 0.53906
vt 0.41406 0.53906
vt 0.49219 0.53906
vt 0.60156 0.53906
vt 0.63281 0.38281
vt 0.71094 0.53906
vt 0.63281 0.46094
vt 0.71094 0.53906
vt 0.50781 0.53906
vt 0.60156 0.53906
vt 0.47656 0.39844
vt 0.64844 0.47656
vt 0.71094 0.53906
vt 0.63281 0.42969
vt 0.64844 0.38281
vt 0.39844 0.53906
vt 0.35156 0.53906
vt 0.39844 0.53906
vt 0.50781 0.53906
vt 0.60156 0.53906
vt 0.64844 0.47656
vt 0.71094 0.53906
vt 0.63281 0.42969
vt 0.63281 0.42969
vt 0.64844 0.47656
vt 0.47656 0.39844
vt 0.64844 0.38281
vt 0.60156 0.53906
vt 0.63281 0.42969
vt 0.64844 0.47656
vt 0.60156 0.53906
vt 0.50781 0.53906
vt 0.50781 0.53906
vt 0.39844 0.53906
vt 0.71094 0.53906
vt 0.71094 0.53906
vt 0.35156 0.53906
vt 0.39844 0.53906
vt 0.63281 0.42969
vt 0.64844 0.38281
vt 0.47656 0.39844
vt 0.64844 0.47656
vt 0.60156 0.53906
vt 0.63281 0.42969
vt 0.64844 0.47656
vt 0.60156 0.53906
vt 0.50781 0.53906
vt 0.50781 0.53906
vt 0.39844 0.53906
vt 0.71094 0.53906
vt 0.71094 0.53906
vt 0.35156 0.53906
vt 0.39844 0.53906
vt -0.00000 0.54688
vt -0.00000 1.00000
vt -0.00000 1.00000
vt -0.00000 1.00000
vt -0.00000 1.00000
vt -0.00000 1.00000
vt -0.00000 1.00000
vt -0.00000 1.00000
vt -0.00000 1.00000
vt -0.00000 1.00000
vt -0.00000 1.00000
vt -0.00000 1.00000
vt -0.00000 1.00000
vt -0.00000 1.00000
vt -0.00000 1.00000
vt -0.00000 1.00000
vt -0.00000 1.00000
vt -0.00000 1.00000
vt -0.00000 1.00000
vt -0.00000 1.00000
vt -0.00000 1.00000
vt 0.00000 0.54688
vt 0.00000 1.00000
vt 0.00000 1.00000
vt 0.00000 1.00000
vt 0.00000 1.00000
vt 0.00000 1.00000
vt 0.00000 1.00000
vt 0.00000 1.00000
vt 0.00000 0.54688
vt 0.00000 1.00000
vt 0.00000 1.00000
vt 0.00000 1.00000
vt 0.00000 1.00000
vt 0.00000 0.54688
vt 0.00000 1.00000
vt 0.00000 1.00000
vt 0.00000 1.00000
vt 0.00000 1.00000
vt 0.00000 1.00000
vt 0.00000 1.00000
vt 0.00000 0.54688
vt 0.00000 1.00000
vt 0.00000 1.00000
vt 0.00000 1.00000
vt 0.00000 1.00000
vt 0.00000 0.54688
vt 0.00000 1.00000
vt 0.00000 1.00000
vt 0.00000 1.00000
vt 0.00000 1.00000
vt 0.00000 1.00000
vt 0.00000 1.00000
vt 0.00000 0.54688
vt 0.00000 1.00000
vt 0.00000 1.00000
vt 0.00000 1.00000
vt 0.00000 1.00000
vt 0.00000 1.00000
vt 0.00000 0.54688
vt 0.00000 1.00000
vt 0.00000 1.00000
vt 0.00000 1.00000
vt 0.00000 1.00000
usemtl m0
f 1/1 2/2 3/3
f 1/1 3/3 4/4
f 1/1 4/4 5/5
f 6/6 1/1 5/5
f 6/6 5/5 7/7
f 8/8 6/6 7/7
f 8/8 7/7 9/9
f 10/10 8/8 9/9
f 9/9 11/11 10/10
f 9/9 12/12 11/11
f 3/3 2/2 13/13
f 3/3 13/13 14/14
f 14/14 13/13 15/15
f 15/15 13/13 16/16
f 12/12 17/17 11/11
f 17/17 18/18 11/11
f 17/17 19/19 18/18
f 20/20 19/19 17/17
f 20/20 16/16 19/19
f 15/15 16/16 20/20
f 21/21 11/11 22/22
f 11/11 23/23 22/22
f 22/22 24/24 21/21
f 22/22 25/25 24/24
f 25/25 26/26 24/24
f 25/25 27/27 26/26
f 27/27 28/28 26/26
f 27/27 29/29 28/28
f 29/29 30/30 28/28
f 30/30 31/31 28/28
f 32/32 31/31 30/30
f 33/33 32/32 30/30
f 34/34 32/32 33/33
f 35/35 32/32 34/34
f 36/36 35/35 34/34
f 37/37 35/35 36/36
f 38/38 37/37 36/36
f 11/11 38/38 23/23
f 11/11 39/39 38/38
f 39/39 37/37 38/38
f 40/40 41/41 42/42
f 40/40 43/43 41/41
f 42/42 41/41 44/44
f 42/42 44/44 45/45
f 44/44 46/46 45/45
f 45/45 46/46 47/47
f 46/46 48/48 47/47
f 47/47 48/48 49/49
f 48/48 50/50 49/49
f 51/51 50/50 48/48
f 52/52 50/50 53/53
f 53/53 50/50 54/54
f 52/52 53/53 55/55
f 55/55 53/53 56/56
f 55/55 56/56 57/57
f 57/57 56/56 58/58
f 57/57 58/58 59/59
f 58/58 60/60 59/59
f 59/59 60/60 61/61
f 60/60 62/62 61/61
f 63/63 50/50 64/64
f 63/63 65/65 50/50
f 66/66 63/63 64/64
f 67/67 63/63 66/66
f 68/68 67/67 66/66
f 68/68 69/69 67/67
f 68/68 70/70 69/69
f 70/70 71/71 69/69
f 70/70 72/72 71/71
f 72/72 73/73 71/71
f 74/74 75/75 76/76
f 74/74 77/77 75/75
f 78/78 74/74 76/76
f 78/78 76/76 79/79
f 80/80 78/78 79/79
f 81/81 80/80 79/79
f 81/81 82/82 80/80
f 83/83 82/82 81/81
f 83/83 50/50 82/82
f 50/50 84/84 82/82
f 85/85 86/86 87/87
f 86/86 88/88 87/87
f 86/86 89/89 88/88
f 86/86 90/90 89/89
f 90/90 91/91 89/89
f 90/90 92/92 91/91
f 92/92 93/93 91/91
f 92/92 94/94 93/93
f 94/94 95/95 93/93
f 93/93 95/95 96/96
f 87/87 97/97 85/85
f 87/87 98/98 97/97
f 98/98 99/99 97/97
f 99/99 100/100 97/97
f 96/96 95/95 101/101
f 101/101 95/95 102/102
f 101/101 102/102 103/103
f 104/104 101/101 103/103
f 104/104 103/103 100/100
f 99/99 104/104 100/100
f 105/105 106/106 107/107
f 106/106 108/108 107/107
f 108/108 109/109 107/107
f 107/107 109/109 110/110
f 109/109 111/111 110/110
f 105/105 112/112 106/106
f 106/106 112/112 113/113
f 112/112 114/114 113/113
f 112/112 115/115 114/114
f 115/115 116/116 114/114
f 115/115 117/117 116/116
f 117/117 118/118 116/116
f 110/110 111/111 119/119
f 117/117 120/120 118/118
f 120/120 121/121 118/118
f 118/118 121/121 122/122
f 122/122 121/121 123/123
f 111/111 123/123 119/119
f 123/123 121/121 124/124
f 119/119 123/123 124/124
f 124/124 121/121 125/125
f 125/125 121/121 126/126
f 126/126 121/121 127/127
f 127/127 121/121 128/128
f 127/127 128/128 129/129
f 130/130 127/127 129/129
f 130/130 129/129 131/131
f 132/132 130/130 131/131
f 132/132 131/131 133/133
f 134/134 132/132 133/133
f 134/134 133/133 135/135
f 135/135 133/133 136/136
f 137/137 135/135 136/136
f 137/137 138/138 135/135
f 137/137 139/139 138/138
f 140/140 139/139 137/137
f 140/140 141/141 139/139
f 142/142 141/141 140/140
f 142/142 125/125 141/141
f 124/124 125/125 142/142
f 143/143 144/144 145/145
f 145/145 144/144 146/146
f 143/143 147/147 144/144
f 144/144 148/148 146/146
f 149/149 150/150 151/151
f 151/151 150/150 152/152
f 149/149 153/153 150/150
f 150/150 154/154 152/152
f 155/155 156/156 157/157
f 155/155 157/157 158/158
f 156/156 159/159 157/157
f 157/157 160/160 158/158
f 161/161 162/162 163/163
f 162/162 164/164 163/163
f 161/161 165/165 162/162
f 162/162 166/166 164/164
f 167/167 168/168 169/169
f 170/170 167/167 169/169
f 171/171 168/168 167/167
f 172/172 168/168 171/171
f 173/173 168/168 172/172
f 173/173 172/172 174/174
f 175/175 176/176 177/177
f 175/175 177/177 178/178
f 178/178 177/177 179/179
f 180/180 176/176 175/175
f 181/181 180/180 175/175
f 182/182 180/180 181/181
f 183/183 184/184 185/185
f 186/186 183/183 185/185
f 187/187 183/183 186/186
f 185/185 184/184 188/188
f 185/185 188/188 189/189
f 189/189 188/188 190/190
f 191/191 192/192 193/193
f 194/194 193/193 192/192
f 195/195 192/192 191/191
f 195/195 191/191 196/196
f 196/196 191/191 197/197
f 198/198 196/196 197/197
f 199/199 200/200 201/201
f 200/200 199/199 202/202
f 202/202 199/199 203/203
f 204/204 202/202 203/203
f 205/205 202/202 204/204
f 205/205 204/204 206/206
usemtl m1
f 207/207 208/208 209/209
f 207/207 209/209 210/210
f 210/210 209/209 211/211
f 212/212 209/209 208/208
f 209/209 212/212 213/213
f 211/211 209/209 213/213
f 213/213 212/212 214/214
f 212/212 215/215 214/214
f 216/216 212/212 208/208
f 215/215 212/212 216/216
f 217/217 215/215 218/218
f 219/219 217/217 218/218
f 220/220 217/217 219/219
f 215/215 217/217 221/221
f 221/221 217/217 222/222
f 217/217 220/220 222/222
f 223/223 222/222 220/220
f 223/223 220/220 224/224
f 224/224 220/220 225/225
f 225/225 220/220 219/219
f 226/226 215/215 227/227
f 228/228 226/226 227/227
f 229/229 226/226 228/228
f 215/215 226/226 230/230
f 230/230 226/226 231/231
f 226/226 229/229 231/231
f 232/232 231/231 229/229
f 232/232 229/229 233/233
f 233/233 229/229 234/234
f 234/234 229/229 228/228
f 235/235 236/236 237/237
f 235/235 237/237 238/238
f 238/238 237/237 239/239
f 240/240 237/237 236/236
f 237/237 240/240 241/241
f 239/239 237/237 241/241
f 241/241 240/240 242/242
f 240/240 215/215 242/242
f 243/243 240/240 236/236
f 215/215 240/240 243/243
f 244/244 215/215 245/245
f 246/246 244/244 245/245
f 247/247 244/244 246/246
f 215/215 244/244 248/248
f 248/248 244/244 249/249
f 244/244 247/247 249/249
f 250/250 249/249 247/247
f 250/250 247/247 251/251
f 251/251 247/247 252/252
f 252/252 247/247 246/246
f 253/253 215/215 254/254
f 255/255 253/253 254/254
f 256/256 253/253 255/255
f 215/215 253/253 257/257
f 257/257 253/253 258/258
f 253/253 256/256 258/258
f 259/259 258/258 256/256
f 259/259 256/256 260/260
f 260/260 256/256 261/261
f 261/261 256/256 255/255
f 262/262 263/263 264/264
f 262/262 264/264 265/265
f 265/265 264/264 266/266
f 267/267 264/264 263/263
f 264/264 267/267 268/268
f 266/266 264/264 268/268
f 268/268 267/267 269/269
f 267/267 215/215 269/269
f 270/270 267/267 263/263
f 215/215 267/267 270/270
f 215/215 271/271 272/272
f 271/271 273/273 272/272
f 272/272 273/273 274/274
f 272/272 274/274 275/275
f 275/275 274/274 276/276
f 277/277 272/272 275/275
f 215/215 272/272 277/277
f 276/276 274/274 278/278
f 278/278 274/274 279/279
f 274/274 280/280 279/279
f 274/274 281/281 280/280
f 274/274 273/273 281/281
f 282/282 283/283 215/215
f 282/282 284/284 283/283
f 284/284 285/285 283/283
f 283/283 285/285 286/286
f 286/286 285/285 287/287
f 288/288 283/283 286/286
f 285/285 289/289 287/287
f 285/285 290/290 289/289
f 291/291 290/290 285/285
f 292/292 291/291 285/285
f 284/284 292/292 285/285
f 215/215 283/283 288/288
f 293/293 294/294 215/215
f 295/295 294/294 293/293
f 295/295 296/296 294/294
f 294/294 296/296 297/297
f 296/296 298/298 297/297
f 294/294 297/297 299/299
f 215/215 294/294 299/299
f 296/296 300/300 298/298
f 296/296 301/301 300/300
f 302/302 301/301 296/296
f 303/303 302/302 296/296
f 303/303 296/296 295/295
f 304/304 305/305 215/215
f 306/306 305/305 304/304
f 306/306 307/307 305/305
f 307/307 308/308 305/305
f 309/309 308/308 307/307
f 305/305 308/308 310/310
f 311/311 309/309 307/307
f 312/312 311/311 307/307
f 312/312 307/307 313/313
f 313/313 307/307 314/314
f 314/314 307/307 306/306
f 305/305 310/310 215/215
f 315/315 215/215 316/316
f 315/315 316/316 317/317
f 315/315 317/317 318/318
f 319/319 315/315 318/318
f 320/320 319/319 318/318
f 321/321 315/315 319/319
f 321/321 215/215 315/315
f 320/320 318/318 322/322
f 322/322 318/318 323/323
f 323/323 318/318 324/324
f 318/318 325/325 324/324
f 318/318 317/317 325/325
f 326/326 215/215 327/327
f 328/328 326/326 327/327
f 329/329 326/326 328/328
f 329/329 330/330 326/326
f 331/331 330/330 329/329
f 330/330 332/332 326/326
f 333/333 331/331 329/329
f 333/333 329/329 334/334
f 334/334 329/329 335/335
f 335/335 329/329 336/336
f 329/329 328/328 336/336
f 332/332 215/215 326/326
f 337/337 338/338 339/339
f 337/337 339/339 340/340
f 340/340 339/339 341/341
f 341/341 339/339 342/342
f 342/342 339/339 343/343
f 338/338 344/344 339/339
f 339/339 344/344 345/345
f 339/339 345/345 343/343
f 344/344 346/346 345/345
f 338/338 347/347 344/344
f 344/344 348/348 346/346
f 347/347 348/348 344/344
f 349/349 350/350 351/351
f 352/352 350/350 349/349
f 353/353 352/352 349/349
f 352/352 354/354 350/350
f 355/355 350/350 354/354
f 356/356 350/350 355/355
f 356/356 357/357 350/350
f 357/357 358/358 350/350
f 359/359 358/358 357/357
f 358/358 360/360 350/350
f 360/360 361/361 350/350
f 350/350 361/361 362/362
f 350/350 363/363 351/351
f 350/350 362/362 363/363
f 364/364 365/365 366/366
f 366/366 365/365 367/367
f 366/366 367/367 368/368
f 367/367 365/365 369/369
f 369/369 365/365 370/370
f 370/370 365/365 371/371
f 371/371 365/365 372/372
f 365/365 373/373 372/372
f 372/372 373/373 374/374
f 365/365 375/375 373/373
f 365/365 376/376 375/375
f 377/377 376/376 365/365
f 364/364 378/378 365/365
f 378/378 377/377 365/365
f 379/379 380/380 381/381
f 379/379 381/381 382/382
f 379/379 382/382 383/383
f 384/384 379/379 383/383
f 385/385 379/379 384/384
f 386/386 379/379 385/385
f 387/387 380/380 379/379
f 387/387 388/388 380/380
f 386/386 389/389 379/379
f 389/389 387/387 379/379
f 390/390 389/389 386/386
f 391/391 392/392 393/393
f 394/394 391/391 393/393
f 395/395 394/394 393/393
f 395/395 393/393 396/396
f 396/396 393/393 397/397
f 397/397 393/393 398/398
f 399/399 393/393 392/392
f 399/399 392/392 400/400
f 393/393 399/399 401/401
f 398/398 393/393 401/401
f 398/398 401/401 402/402
f 403/403 404/404 405/405
f 405/405 404/404 406/406
f 405/405 406/406 407/407
f 405/405 407/407 408/408
f 409/409 405/405 408/408
f 410/410 405/405 409/409
f 411/411 403/403 405/405
f 411/411 412/412 403/403
f 413/413 405/405 410/410
f 413/413 411/411 405/405
f 414/414 413/413 410/410
f 415/415 416/416 417/417
f 418/418 416/416 415/415
f 419/419 418/418 415/415
f 420/420 419/419 415/415
f 420/420 415/415 421/421
f 421/421 415/415 422/422
f 423/423 415/415 417/417
f 423/423 417/417 424/424
f 425/425 415/415 423/423
f 422/422 415/415 425/425
f 422/422 425/425 426/426
f 427/427 428/428 429/429
f 428/428 430/430 429/429
f 428/428 431/431 430/430
f 430/430 432/432 429/429
f 432/432 433/433 429/429
f 427/427 429/429 434/434
f 434/434 429/429 435/435
f 435/435 429/429 436/436
f 436/436 429/429 437/437
f 429/429 438/438 437/437
f 429/429 439/439 438/438
f 439/439 440/440 438/438
f 429/429 441/441 439/439
f 429/429 433/433 441/441
f 442/442 443/443 444/444
f 444/444 445/445 442/442
f 444/444 443/443 446/446
f 447/447 445/445 444/444
f 448/448 447/447 444/444
f 449/449 448/448 444/444
f 450/450 449/449 444/444
f 444/444 446/446 451/451
f 444/444 451/451 452/452
f 443/443 453/453 446/446
f 449/449 454/454 448/448
f 455/455 444/444 452/452
f 450/450 444/444 456/456
f 456/456 444/444 455/455
f 457/457 458/458 459/459
f 459/459 460/460 457/457
f 461/461 460/460 459/459
f 459/459 458/458 462/462
f 459/459 462/462 463/463
f 459/459 463/463 464/464
f 459/459 464/464 465/465
f 466/466 461/461 459/459
f 467/467 466/466 459/459
f 461/461 468/468 460/460
f 463/463 469/469 464/464
f 467/467 459/459 470/470
f 471/471 459/459 465/465
f 470/470 459/459 471/471
f 472/472 473/473 474/474
f 475/475 473/473 472/472
f 475/475 472/472 476/476
f 476/476 472/472 477/477
f 478/478 472/472 474/474
f 477/477 472/472 479/479
f 472/472 480/480 479/479
f 480/480 472/472 478/478
f 472/472 481/481 474/474
f 482/482 472/472 477/477
f 483/483 481/481 472/472
f 483/483 472/472 482/482
f 484/484 472/472 474/474
f 477/477 472/472 485/485
f 472/472 486/486 485/485
f 486/486 472/472 484/484
f 474/474 472/472 487/487
f 488/488 472/472 477/477
f 488/488 489/489 472/472
f 487/487 472/472 489/489
f 477/477 472/472 490/490
f 490/490 472/472 491/491
f 472/472 492/492 491/491
f 474/474 492/492 472/472
f 493/493 494/494 495/495
f 496/496 494/494 493/493
f 497/497 496/496 493/493
f 497/497 493/493 498/498
f 499/499 493/493 495/495
f 498/498 493/493 499/499
f 500/500 501/501 494/494
f 501/501 502/502 494/494
f 503/503 502/502 501/501
f 504/504 503/503 501/501
f 505/505 501/501 500/500
f 504/504 501/501 505/505
f 494/494 506/506 507/507
f 494/494 508/508 506/506
f 506/506 508/508 509/509
f 506/506 509/509 510/510
f 511/511 506/506 510/510
f 507/507 506/506 511/511
f 512/512 513/513 494/494
f 513/513 514/514 494/494
f 513/513 515/515 514/514
f 513/513 516/516 515/515
f 512/512 517/517 513/513
f 517/517 516/516 513/513
f 494/494 518/518 519/519
f 494/494 520/520 518/518
f 520/520 521/521 518/518
f 521/521 522/522 518/518
f 518/518 522/522 523/523
f 518/518 523/523 519/519
f 524/524 494/494 525/525
f 525/525 494/494 526/526
f 525/525 526/526 527/527
f 528/528 525/525 527/527
f 529/529 525/525 528/528
f 524/524 525/525 529/529
f 530/530 494/494 531/531
f 532/532 530/530 531/531
f 532/532 531/531 533/533
f 531/531 494/494 534/534
f 533/533 531/531 535/535
f 531/531 534/534 535/535
