mtllib arms1043.mtl
o arms1043
v 0.43722 0.03240 3.61638 0.000 0.647 0.000
v 0.40158 0.03240 3.60000 0.000 0.749 0.000
v 0.39024 0.03240 3.61602 0.000 0.969 0.000
v 0.32778 0.03240 3.60000 0.000 0.969 0.000
v 0.39024 0.03240 3.58398 0.000 0.969 0.000
v 0.43722 0.03240 3.58362 0.000 0.647 0.000
v 0.41688 0.03240 3.56328 0.000 0.969 0.000
v 0.41688 0.03240 3.63672 0.000 0.969 0.000
v 0.44694 0.03240 3.51720 0.000 0.969 0.000
v 0.47304 0.03240 3.55284 0.000 0.667 0.000
v 0.52128 0.03240 3.49470 0.000 0.847 0.000
v 0.50796 0.03240 3.44340 0.000 0.969 0.000
v 0.44694 0.03240 3.68280 0.000 0.969 0.000
v 0.47304 0.03240 3.64716 0.000 0.667 0.000
v 0.52128 0.03240 3.70530 0.000 0.847 0.000
v 0.50796 0.03240 3.75660 0.000 0.969 0.000
v 0.62442 0.03240 3.60000 0.000 0.749 0.000
v 0.59778 0.03240 3.67074 0.000 0.953 0.000
v 0.65376 0.03240 3.68316 0.000 0.624 0.000
v 0.56754 0.03240 3.70530 0.000 0.953 0.000
v 0.59166 0.03240 3.75660 0.000 0.753 0.000
v 0.58410 0.03240 3.62916 0.000 0.953 0.000
v 0.56340 0.03240 3.60000 0.000 0.875 0.000
v 0.58410 0.03240 3.57084 0.000 0.953 0.000
v 0.52560 0.03240 3.56328 0.000 0.773 0.000
v 0.52560 0.03240 3.63672 0.000 0.773 0.000
v 0.58410 0.03240 3.62916 0.000 0.953 0.000
v 0.65376 0.03240 3.51684 0.000 0.624 0.000
v 0.59778 0.03240 3.52926 0.000 0.953 0.000
v 0.56754 0.03240 3.49470 0.000 0.953 0.000
v 0.59166 0.03240 3.44340 0.000 0.753 0.000
v 0.58410 0.03240 3.57084 0.000 0.953 0.000
v 0.52128 0.03240 3.70530 0.000 0.847 0.000
v 0.50796 0.03240 3.75660 0.000 0.969 0.000
v 0.56754 0.03240 3.70530 0.000 0.953 0.000
v 0.59166 0.03240 3.75660 0.000 0.753 0.000
v 0.56754 0.03240 3.49470 0.000 0.953 0.000
v 0.59166 0.03240 3.44340 0.000 0.753 0.000
v 0.50796 0.03240 3.44340 0.000 0.969 0.000
v 0.52128 0.03240 3.49470 0.000 0.847 0.000
v 0.39024 -0.03240 3.61602 0.000 0.969 0.000
v 0.40158 -0.03240 3.60000 0.000 0.749 0.000
v 0.43722 -0.03240 3.61638 0.000 0.647 0.000
v 0.32778 -0.03240 3.60000 0.000 0.969 0.000
v 0.39024 -0.03240 3.58398 0.000 0.969 0.000
v 0.43722 -0.03240 3.58362 0.000 0.647 0.000
v 0.41688 -0.03240 3.56328 0.000 0.969 0.000
v 0.41688 -0.03240 3.63672 0.000 0.969 0.000
v 0.44694 -0.03240 3.51720 0.000 0.969 0.000
v 0.47304 -0.03240 3.55284 0.000 0.667 0.000
v 0.52128 -0.03240 3.49470 0.000 0.847 0.000
v 0.50796 -0.03240 3.44340 0.000 0.969 0.000
v 0.44694 -0.03240 3.68280 0.000 0.969 0.000
v 0.47304 -0.03240 3.64716 0.000 0.667 0.000
v 0.52128 -0.03240 3.70530 0.000 0.847 0.000
v 0.50796 -0.03240 3.75660 0.000 0.969 0.000
v 0.65376 -0.03240 3.68316 0.000 0.624 0.000
v 0.59778 -0.03240 3.67074 0.000 0.953 0.000
v 0.62442 -0.03240 3.60000 0.000 0.749 0.000
v 0.56754 -0.03240 3.70530 0.000 0.953 0.000
v 0.59166 -0.03240 3.75660 0.000 0.753 0.000
v 0.58410 -0.03240 3.62916 0.000 0.953 0.000
v 0.56340 -0.03240 3.60000 0.000 0.875 0.000
v 0.58410 -0.03240 3.57084 0.000 0.953 0.000
v 0.52560 -0.03240 3.56328 0.000 0.773 0.000
v 0.58410 -0.03240 3.62916 0.000 0.953 0.000
v 0.52560 -0.03240 3.63672 0.000 0.773 0.000
v 0.59778 -0.03240 3.52926 0.000 0.953 0.000
v 0.65376 -0.03240 3.51684 0.000 0.624 0.000
v 0.56754 -0.03240 3.49470 0.000 0.953 0.000
v 0.59166 -0.03240 3.44340 0.000 0.753 0.000
v 0.58410 -0.03240 3.57084 0.000 0.953 0.000
v 0.56754 -0.03240 3.70530 0.000 0.953 0.000
v 0.50796 -0.03240 3.75660 0.000 0.969 0.000
v 0.52128 -0.03240 3.70530 0.000 0.847 0.000
v 0.59166 -0.03240 3.75660 0.000 0.753 0.000
v 0.50796 -0.03240 3.44340 0.000 0.969 0.000
v 0.59166 -0.03240 3.44340 0.000 0.753 0.000
v 0.56754 -0.03240 3.49470 0.000 0.953 0.000
v 0.52128 -0.03240 3.49470 0.000 0.847 0.000
v 0.49482 -0.02880 3.60000 0.000 0.000 0.639
v 0.80712 -0.02880 3.60000 0.000 0.000 0.851
v 0.62820 -0.02880 3.79620 0.000 0.000 0.851
v 0.52002 -0.02880 3.83580 0.000 0.000 0.851
v 0.44190 -0.02880 3.80826 0.000 0.000 0.851
v 0.37386 -0.02880 3.75552 0.000 0.000 0.851
v 0.32886 -0.02880 3.68352 0.000 0.000 0.851
v 0.31392 -0.02880 3.60000 0.000 0.000 0.851
v 0.32886 -0.02880 3.51648 0.000 0.000 0.851
v 0.37386 -0.02880 3.44448 0.000 0.000 0.851
v 0.44190 -0.02880 3.39174 0.000 0.000 0.851
v 0.52002 -0.02880 3.36420 0.000 0.000 0.851
v 0.62820 -0.02880 3.40380 0.000 0.000 0.851
v 0.62820 0.02880 3.79620 0.000 0.000 0.851
v 0.80712 0.02880 3.60000 0.000 0.000 0.851
v 0.49482 0.02880 3.60000 0.000 0.000 0.639
v 0.52002 0.02880 3.83580 0.000 0.000 0.851
v 0.44190 0.02880 3.80826 0.000 0.000 0.851
v 0.37386 0.02880 3.75552 0.000 0.000 0.851
v 0.32886 0.02880 3.68352 0.000 0.000 0.851
v 0.31392 0.02880 3.60000 0.000 0.000 0.851
v 0.32886 0.02880 3.51648 0.000 0.000 0.851
v 0.37386 0.02880 3.44448 0.000 0.000 0.851
v 0.44190 0.02880 3.39174 0.000 0.000 0.851
v 0.52002 0.02880 3.36420 0.000 0.000 0.851
v 0.62820 0.02880 3.40380 0.000 0.000 0.851
v 0.32778 0.03240 3.60000 0.000 0.969 0.000
v 0.37908 0.03240 3.63186 0.000 0.969 0.000
v 0.39024 0.03240 3.61602 0.000 0.824 0.000
v 0.41688 0.03240 3.63672 0.000 0.808 0.000
v 0.44694 0.03240 3.68280 0.000 0.702 0.000
v 0.42336 0.03240 3.74418 0.000 0.969 0.000
v 0.42336 0.03240 3.74418 0.000 0.969 0.000
v 0.47916 0.03240 3.79260 0.000 0.624 0.000
v 0.37908 0.03240 3.56814 0.000 0.969 0.000
v 0.39024 0.03240 3.58398 0.000 0.824 0.000
v 0.41688 0.03240 3.56328 0.000 0.808 0.000
v 0.44694 0.03240 3.51720 0.000 0.702 0.000
v 0.42336 0.03240 3.45582 0.000 0.969 0.000
v 0.47916 0.03240 3.40740 0.000 0.624 0.000
v 0.42336 0.03240 3.45582 0.000 0.969 0.000
v 0.39024 -0.03240 3.61602 0.000 0.824 0.000
v 0.37908 -0.03240 3.63186 0.000 0.969 0.000
v 0.32778 -0.03240 3.60000 0.000 0.969 0.000
v 0.41688 -0.03240 3.63672 0.000 0.808 0.000
v 0.44694 -0.03240 3.68280 0.000 0.702 0.000
v 0.42336 -0.03240 3.74418 0.000 0.969 0.000
v 0.47916 -0.03240 3.79260 0.000 0.624 0.000
v 0.42336 -0.03240 3.74418 0.000 0.969 0.000
v 0.39024 -0.03240 3.58398 0.000 0.824 0.000
v 0.37908 -0.03240 3.56814 0.000 0.969 0.000
v 0.41688 -0.03240 3.56328 0.000 0.808 0.000
v 0.44694 -0.03240 3.51720 0.000 0.702 0.000
v 0.42336 -0.03240 3.45582 0.000 0.969 0.000
v 0.42336 -0.03240 3.45582 0.000 0.969 0.000
v 0.47916 -0.03240 3.40740 0.000 0.624 0.000
v -0.49086 -0.03438 3.58848 0.000 0.686 0.000
v -0.48006 0.00000 3.60000 0.000 0.639 0.000
v -0.49086 0.00000 3.55410 0.000 0.733 0.000
v -0.49086 0.04590 3.60000 0.000 0.639 0.000
v -0.49086 0.00000 3.64590 0.000 0.733 0.000
v -0.49086 -0.03438 3.61152 0.000 0.686 0.000
v -0.49086 -0.03438 3.58848 0.000 0.667 0.000
v -0.48006 -0.04410 3.60000 0.000 0.639 0.000
v -0.49086 -0.03438 3.61152 0.000 0.686 0.000
v 0.11250 0.00000 3.60000 0.000 1.000 0.000
v 0.21204 0.00000 3.64176 0.000 0.937 0.000
v 0.21204 0.04158 3.60000 0.000 0.875 0.000
v 0.21204 -0.04158 3.60000 0.000 0.875 0.000
v 0.21204 0.00000 3.55824 0.000 0.937 0.000
v -0.18090 0.00000 3.63186 0.937 0.000 0.000
v 0.14040 -0.04158 3.60000 0.749 0.000 0.000
v 0.14040 0.00000 3.64158 0.875 0.000 0.000
v -0.18090 -0.03186 3.60000 0.875 0.000 0.000
v -0.18090 0.00000 3.56814 0.937 0.000 0.000
v 0.14040 0.00000 3.55842 0.875 0.000 0.000
v -0.46440 -0.03942 3.60000 0.749 0.000 0.000
v -0.46440 0.00000 3.56058 0.875 0.000 0.000
v -0.46440 0.00000 3.63942 0.875 0.000 0.000
v 0.14040 0.04158 3.60000 0.749 0.000 0.000
v -0.18090 0.03186 3.60000 0.875 0.000 0.000
v -0.46440 0.03942 3.60000 0.749 0.000 0.000
v 0.14040 0.00000 3.64158 0.914 0.000 0.000
v 0.14040 -0.04158 3.60000 0.882 0.000 0.000
v 0.21150 0.00000 3.60000 1.000 0.000 0.000
v 0.14040 0.04158 3.60000 0.882 0.000 0.000
v 0.14040 0.00000 3.55842 0.914 0.000 0.000
v -0.46440 0.03942 3.60000 0.000 0.773 0.000
v -0.49086 0.04590 3.60000 0.000 0.875 0.000
v -0.46440 0.00000 3.63942 0.000 0.875 0.000
v -0.41688 0.00000 3.63888 0.000 0.729 0.000
v -0.40374 -0.01350 3.62556 0.000 0.812 0.000
v -0.40374 -0.03906 3.60000 0.000 0.843 0.000
v -0.46440 0.00000 3.56058 0.000 0.875 0.000
v -0.41688 0.00000 3.56112 0.000 0.729 0.000
v -0.40374 -0.01350 3.57444 0.000 0.812 0.000
v -0.40374 0.01350 3.62556 0.000 0.812 0.000
v -0.38772 0.00000 3.63798 0.000 0.749 0.000
v -0.35730 0.00000 3.63744 0.000 0.624 0.000
v -0.40374 0.03906 3.60000 0.000 0.843 0.000
v -0.40374 -0.01350 3.62556 0.000 0.812 0.000
v -0.40374 -0.03906 3.60000 0.000 0.843 0.000
v -0.41958 0.01350 3.62538 0.000 0.812 0.000
v -0.40374 0.03906 3.60000 0.000 0.843 0.000
v -0.40374 -0.01350 3.57444 0.000 0.812 0.000
v -0.35730 0.00000 3.56256 0.000 0.624 0.000
v -0.40374 0.01350 3.57444 0.000 0.812 0.000
v -0.38772 0.00000 3.56202 0.000 0.749 0.000
v -0.41958 0.01350 3.57462 0.000 0.812 0.000
v -0.46440 0.00000 3.56058 0.000 0.749 0.000
v -0.49086 0.00000 3.55410 0.000 0.902 0.000
v -0.49086 0.04590 3.60000 0.000 0.875 0.000
v -0.46440 -0.02952 3.59010 0.000 0.792 0.000
v -0.49086 -0.03438 3.58848 0.000 0.875 0.000
v -0.48006 -0.04410 3.60000 0.000 0.875 0.000
v -0.45450 -0.03906 3.60000 0.000 0.875 0.000
v -0.46440 -0.02952 3.60990 0.000 0.792 0.000
v -0.49086 -0.03438 3.61152 0.000 0.875 0.000
v -0.49086 0.00000 3.64590 0.000 0.902 0.000
v -0.46440 0.00000 3.63942 0.000 0.749 0.000
v 0.26586 0.03438 3.64806 0.000 0.749 0.000
v 0.26586 -0.03438 3.64806 0.000 0.749 0.000
v 0.29358 -0.03438 3.60000 0.000 0.937 0.000
v 0.29358 0.03438 3.60000 0.000 0.937 0.000
v 0.26586 0.03438 3.55194 0.000 0.749 0.000
v 0.26586 -0.03438 3.55194 0.000 0.749 0.000
v 0.21042 0.03438 3.64806 0.000 0.875 0.000
v 0.21042 -0.03438 3.64806 0.000 0.875 0.000
v 0.26586 -0.03438 3.64806 0.000 0.749 0.000
v 0.26586 0.03438 3.64806 0.000 0.749 0.000
v 0.18270 0.03438 3.60000 0.000 0.937 0.000
v 0.18270 -0.03438 3.60000 0.000 0.937 0.000
v 0.21042 -0.03438 3.64806 0.000 0.875 0.000
v 0.21042 0.03438 3.64806 0.000 0.875 0.000
v 0.21042 -0.03438 3.55194 0.000 0.875 0.000
v 0.21042 0.03438 3.55194 0.000 0.875 0.000
v 0.26586 -0.03438 3.55194 0.000 0.749 0.000
v 0.21042 -0.03438 3.55194 0.000 0.875 0.000
v 0.21042 0.03438 3.55194 0.000 0.875 0.000
v 0.26586 0.03438 3.55194 0.000 0.749 0.000
v 2.90646 -0.02772 3.76488 0.000 0.000 0.000
v 2.90646 0.02772 3.76488 0.000 0.000 0.000
v 2.90646 0.00000 3.90006 0.000 0.000 0.000
v 2.90646 0.00000 3.29994 0.000 0.000 0.000
v 2.90646 0.02772 3.43512 0.000 0.000 0.000
v 2.90646 -0.02772 3.43512 0.000 0.000 0.000
v 0.67500 0.00000 3.90006 0.000 0.000 0.000
v 0.67500 0.02772 3.76488 0.000 0.000 0.000
v 0.67500 -0.02772 3.76488 0.000 0.000 0.000
v 0.67500 -0.02772 3.43512 0.000 0.000 0.000
v 0.67500 0.02772 3.43512 0.000 0.000 0.000
v 0.67500 0.00000 3.29994 0.000 0.000 0.000
v 2.90646 0.00000 3.29994 0.000 0.000 0.000
v 2.90646 -0.02772 3.43512 0.000 0.000 0.000
v 2.83500 0.00000 3.36222 0.000 0.000 0.000
v 2.77200 0.00000 3.38994 0.000 0.000 0.000
v 2.90646 0.02772 3.43512 0.000 0.000 0.000
v 2.77200 0.02772 3.47472 0.000 0.000 0.000
v 2.66616 0.02772 3.48354 0.000 0.000 0.000
v 2.66616 0.00000 3.40380 0.000 0.000 0.000
v 2.66616 -0.02772 3.48354 0.000 0.000 0.000
v 1.79064 0.00000 3.40380 0.000 0.000 0.000
v 1.79064 -0.02772 3.48354 0.000 0.000 0.000
v 1.79064 0.02772 3.48354 0.000 0.000 0.000
v 0.91530 0.02772 3.48354 0.000 0.000 0.000
v 0.91530 -0.02772 3.48354 0.000 0.000 0.000
v 0.91530 0.00000 3.40380 0.000 0.000 0.000
v 2.77200 -0.02772 3.47472 0.000 0.000 0.000
v 0.74646 0.00000 3.36222 0.000 0.000 0.000
v 0.67500 0.02772 3.43512 0.000 0.000 0.000
v 0.67500 -0.02772 3.43512 0.000 0.000 0.000
v 0.67500 0.00000 3.29994 0.000 0.000 0.000
v 2.66616 -0.02772 3.71646 0.000 0.000 0.000
v 2.77200 0.00000 3.81006 0.000 0.000 0.000
v 2.66616 0.00000 3.79620 0.000 0.000 0.000
v 2.66616 0.02772 3.71646 0.000 0.000 0.000
v 1.79064 0.00000 3.79620 0.000 0.000 0.000
v 1.79064 -0.02772 3.71646 0.000 0.000 0.000
v 1.79064 0.02772 3.71646 0.000 0.000 0.000
v 0.91530 -0.02772 3.71646 0.000 0.000 0.000
v 0.91530 0.02772 3.71646 0.000 0.000 0.000
v 0.91530 0.00000 3.79620 0.000 0.000 0.000
v 2.77200 0.02772 3.72528 0.000 0.000 0.000
v 2.77200 -0.02772 3.72528 0.000 0.000 0.000
v 2.90646 -0.02772 3.76488 0.000 0.000 0.000
v 2.83500 0.00000 3.83778 0.000 0.000 0.000
v 2.90646 0.00000 3.90006 0.000 0.000 0.000
v 2.90646 0.02772 3.76488 0.000 0.000 0.000
v 0.74646 0.00000 3.83778 0.000 0.000 0.000
v 0.67500 0.02772 3.76488 0.000 0.000 0.000
v 0.67500 0.00000 3.90006 0.000 0.000 0.000
v 0.67500 -0.02772 3.76488 0.000 0.000 0.000
v 2.77200 0.02772 3.66444 0.000 0.914 0.000
v 2.90646 0.02772 3.60000 0.000 0.784 0.000
v 2.74968 0.02772 3.60000 0.000 0.914 0.000
v 2.77200 0.02772 3.53556 0.000 0.914 0.000
v 2.90646 0.02772 3.43512 0.000 0.784 0.000
v 2.90646 0.02772 3.76488 0.000 0.784 0.000
v 2.77200 0.02772 3.47472 0.000 0.784 0.000
v 2.66616 0.02772 3.48354 0.000 0.784 0.000
v 1.79064 0.02772 3.53556 0.000 0.953 0.000
v 1.79064 0.02772 3.48354 0.000 0.784 0.000
v 0.91530 0.02772 3.48354 0.000 0.835 0.000
v 2.77200 0.02772 3.72528 0.000 0.784 0.000
v 2.66616 0.02772 3.71646 0.000 0.784 0.000
v 1.79064 0.02772 3.66444 0.000 0.953 0.000
v 1.79064 0.02772 3.71646 0.000 0.784 0.000
v 0.91530 0.02772 3.71646 0.000 0.835 0.000
v 0.74700 0.02772 3.66444 0.000 0.953 0.000
v 0.67500 0.02772 3.76488 0.000 0.953 0.000
v 0.74700 0.02772 3.53556 0.000 0.953 0.000
v 0.67500 0.02772 3.43512 0.000 0.953 0.000
v 2.90646 0.02772 3.43512 0.000 0.792 0.000
v 2.90646 0.02772 3.60000 0.000 0.792 0.000
v 2.90646 -0.02772 3.60000 0.000 0.792 0.000
v 2.90646 -0.02772 3.43512 0.000 0.792 0.000
v 2.90646 0.02772 3.76488 0.000 0.792 0.000
v 2.90646 -0.02772 3.76488 0.000 0.792 0.000
v 2.74968 -0.02772 3.60000 0.000 0.914 0.000
v 2.90646 -0.02772 3.60000 0.000 0.784 0.000
v 2.77200 -0.02772 3.66444 0.000 0.914 0.000
v 2.77200 -0.02772 3.53556 0.000 0.914 0.000
v 2.90646 -0.02772 3.43512 0.000 0.784 0.000
v 2.90646 -0.02772 3.76488 0.000 0.784 0.000
v 2.77200 -0.02772 3.47472 0.000 0.784 0.000
v 2.66616 -0.02772 3.48354 0.000 0.784 0.000
v 1.79064 -0.02772 3.53556 0.000 0.953 0.000
v 1.79064 -0.02772 3.48354 0.000 0.784 0.000
v 0.91530 -0.02772 3.48354 0.000 0.835 0.000
v 2.77200 -0.02772 3.72528 0.000 0.784 0.000
v 2.66616 -0.02772 3.71646 0.000 0.784 0.000
v 1.79064 -0.02772 3.66444 0.000 0.953 0.000
v 1.79064 -0.02772 3.71646 0.000 0.784 0.000
v 0.91530 -0.02772 3.71646 0.000 0.835 0.000
v 0.74700 -0.02772 3.66444 0.000 0.953 0.000
v 0.67500 -0.02772 3.76488 0.000 0.953 0.000
v 0.74700 -0.02772 3.53556 0.000 0.953 0.000
v 0.67500 -0.02772 3.43512 0.000 0.953 0.000
v 2.77200 0.02772 3.66444 0.000 0.992 0.000
v 2.77200 -0.02772 3.66444 0.000 0.992 0.000
v 1.79064 -0.02772 3.66444 0.000 0.925 0.000
v 1.79064 0.02772 3.66444 0.000 0.925 0.000
v 0.74700 0.02772 3.66444 0.000 0.992 0.000
v 0.74700 -0.02772 3.66444 0.000 0.992 0.000
v 2.77200 -0.02772 3.53556 0.000 0.992 0.000
v 2.77200 0.02772 3.53556 0.000 0.992 0.000
v 1.79064 -0.02772 3.53556 0.000 0.925 0.000
v 1.79064 0.02772 3.53556 0.000 0.925 0.000
v 0.74700 0.02772 3.53556 0.000 0.992 0.000
v 0.74700 -0.02772 3.53556 0.000 0.992 0.000
v 2.74968 -0.02772 3.60000 0.000 0.906 0.000
v 2.74968 0.02772 3.60000 0.000 0.906 0.000
v 2.77200 0.02772 3.53556 0.000 0.992 0.000
v 2.77200 -0.02772 3.53556 0.000 0.992 0.000
v 2.77200 0.02772 3.66444 0.000 0.992 0.000
v 2.77200 -0.02772 3.66444 0.000 0.992 0.000
v 0.67500 -0.03240 3.41424 0.000 0.867 0.000
v 0.61812 -0.01998 3.35880 0.000 0.780 0.000
v 0.67500 0.03240 3.41424 0.000 0.867 0.000
v 0.61812 0.01998 3.35880 0.000 0.780 0.000
v 0.73692 0.03240 3.42954 0.000 0.780 0.000
v 0.73692 -0.03240 3.42954 0.000 0.780 0.000
v 0.78444 0.03240 3.48912 0.000 0.761 0.000
v 0.78444 -0.03240 3.48912 0.000 0.761 0.000
v 0.56610 -0.01440 3.34296 0.000 0.957 0.000
v 0.56610 0.01440 3.34296 0.000 0.957 0.000
v 0.80730 0.03240 3.68874 0.000 0.761 0.000
v 0.80730 -0.03240 3.68874 0.000 0.761 0.000
v 0.84132 0.03240 3.60000 0.000 0.729 0.000
v 0.84132 -0.03240 3.60000 0.000 0.729 0.000
v 0.80730 -0.03240 3.51126 0.000 0.761 0.000
v 0.80730 0.03240 3.51126 0.000 0.761 0.000
v 0.78444 0.03240 3.71088 0.000 0.761 0.000
v 0.73692 -0.03240 3.77046 0.000 0.780 0.000
v 0.78444 -0.03240 3.71088 0.000 0.761 0.000
v 0.73692 0.03240 3.77046 0.000 0.780 0.000
v 0.67500 -0.03240 3.78576 0.000 0.867 0.000
v 0.67500 0.03240 3.78576 0.000 0.867 0.000
v 0.61812 -0.01998 3.84120 0.000 0.780 0.000
v 0.61812 0.01998 3.84120 0.000 0.780 0.000
v 0.56610 -0.01440 3.85704 0.000 0.957 0.000
v 0.56610 0.01440 3.85704 0.000 0.957 0.000
v 0.80730 0.03240 3.68874 0.000 0.761 0.000
v 0.78444 0.03240 3.66786 0.000 0.894 0.000
v 0.80730 -0.03240 3.68874 0.000 0.761 0.000
v 0.78444 -0.03240 3.66786 0.000 0.894 0.000
v 0.76230 0.03240 3.66750 0.000 0.910 0.000
v 0.76230 -0.03240 3.66750 0.000 0.910 0.000
v 0.74556 -0.03240 3.68838 0.000 0.910 0.000
v 0.74556 0.03240 3.68838 0.000 0.922 0.000
v 0.76230 0.03240 3.71088 0.000 0.894 0.000
v 0.76230 -0.03240 3.71088 0.000 0.894 0.000
v 0.78444 -0.03240 3.71088 0.000 0.761 0.000
v 0.78444 0.03240 3.71088 0.000 0.761 0.000
v 0.80730 -0.03240 3.51126 0.000 0.761 0.000
v 0.78444 0.03240 3.53214 0.000 0.894 0.000
v 0.80730 0.03240 3.51126 0.000 0.761 0.000
v 0.78444 -0.03240 3.53214 0.000 0.894 0.000
v 0.76230 0.03240 3.53250 0.000 0.910 0.000
v 0.76230 -0.03240 3.53250 0.000 0.910 0.000
v 0.74556 -0.03240 3.51162 0.000 0.910 0.000
v 0.74556 0.03240 3.51162 0.000 0.922 0.000
v 0.76230 0.03240 3.48912 0.000 0.894 0.000
v 0.76230 -0.03240 3.48912 0.000 0.894 0.000
v 0.78444 -0.03240 3.48912 0.000 0.761 0.000
v 0.78444 0.03240 3.48912 0.000 0.761 0.000
v -0.55080 0.04068 3.63816 0.000 0.780 0.000
v -0.55080 0.00000 3.65400 0.000 0.929 0.000
v -0.41400 0.00000 3.60000 0.000 1.000 0.000
v -0.55080 0.04068 3.56184 0.000 0.780 0.000
v -0.55080 0.05760 3.60000 0.000 0.929 0.000
v -0.55080 -0.04068 3.63816 0.000 0.780 0.000
v -0.55080 -0.05760 3.60000 0.000 0.929 0.000
v -0.55080 -0.04068 3.56184 0.000 0.780 0.000
v -0.55080 0.00000 3.54600 0.000 0.929 0.000
v -0.55080 0.00000 3.65400 0.000 0.780 0.000
v -0.55080 -0.04068 3.63816 0.000 0.929 0.000
v -0.55080 0.05760 3.60000 0.000 0.780 0.000
v -0.55080 0.04068 3.63816 0.000 0.929 0.000
v -0.55080 0.00000 3.54600 0.000 0.780 0.000
v -0.55080 0.04068 3.56184 0.000 0.929 0.000
v -0.55080 -0.05760 3.60000 0.000 0.780 0.000
v -0.55080 -0.04068 3.56184 0.000 0.929 0.000
v -0.55080 0.00000 3.65400 0.000 0.796 0.000
v -0.55080 0.04068 3.63816 0.000 0.651 0.000
v -0.59040 0.00000 3.60000 0.000 0.937 0.000
v -0.55080 0.05760 3.60000 0.000 0.796 0.000
v -0.55080 0.04068 3.56184 0.000 0.651 0.000
v -0.55080 -0.05760 3.60000 0.000 0.796 0.000
v -0.55080 -0.04068 3.63816 0.000 0.651 0.000
v -0.55080 0.00000 3.54600 0.000 0.796 0.000
v -0.55080 -0.04068 3.56184 0.000 0.651 0.000
v -0.55080 -0.04068 3.63816 0.000 0.796 0.000
v -0.55080 0.00000 3.65400 0.000 0.651 0.000
v -0.55080 0.04068 3.56184 0.000 0.796 0.000
v -0.55080 0.00000 3.54600 0.000 0.651 0.000
v -0.55080 0.04068 3.63816 0.000 0.796 0.000
v -0.55080 0.05760 3.60000 0.000 0.651 0.000
v -0.55080 -0.04068 3.56184 0.000 0.796 0.000
v -0.55080 -0.05760 3.60000 0.000 0.651 0.000
v 0.45558 0.00000 3.30120 0.000 0.894 0.000
v 0.41436 0.00000 3.32838 0.000 0.894 0.000
v 0.50688 0.00000 3.30192 0.000 0.812 0.000
v 0.51480 0.00000 3.28680 0.000 0.682 0.000
v 0.49788 0.01800 3.33540 0.000 0.757 0.000
v 0.41508 0.01800 3.36690 0.000 0.757 0.000
v 0.44280 0.03240 3.39462 0.000 0.871 0.000
v 0.51948 0.03240 3.36798 0.000 0.871 0.000
v 0.49788 -0.01800 3.33540 0.000 0.757 0.000
v 0.41508 -0.01800 3.36690 0.000 0.757 0.000
v 0.44280 -0.03240 3.39462 0.000 0.871 0.000
v 0.51948 -0.03240 3.36798 0.000 0.871 0.000
v 0.32130 0.00000 3.38166 0.000 0.894 0.000
v 0.41436 0.00000 3.32838 0.000 0.894 0.000
v 0.34866 0.00000 3.33414 0.000 0.851 0.000
v 0.42120 0.00000 3.30120 0.000 0.765 0.000
v 0.41508 0.01800 3.36690 0.000 0.757 0.000
v 0.33624 0.01800 3.42594 0.000 0.757 0.000
v 0.41508 -0.01800 3.36690 0.000 0.757 0.000
v 0.33624 -0.01800 3.42594 0.000 0.757 0.000
v 0.41508 0.01800 3.36690 0.000 0.757 0.000
v 0.37656 0.03240 3.44682 0.000 0.871 0.000
v 0.44280 0.03240 3.39462 0.000 0.871 0.000
v 0.37656 -0.03240 3.44682 0.000 0.871 0.000
v 0.41508 -0.01800 3.36690 0.000 0.757 0.000
v 0.44280 -0.03240 3.39462 0.000 0.871 0.000
v 0.32130 0.00000 3.38166 0.000 0.894 0.000
v 0.31320 0.00000 3.34800 0.000 0.765 0.000
v 0.26694 0.00000 3.40776 0.000 0.863 0.000
v 0.24948 0.00000 3.47454 0.000 0.894 0.000
v 0.33624 0.01800 3.42594 0.000 0.757 0.000
v 0.28296 0.01800 3.50856 0.000 0.851 0.000
v 0.33102 0.03240 3.51720 0.000 0.871 0.000
v 0.37656 0.03240 3.44682 0.000 0.871 0.000
v 0.33624 -0.01800 3.42594 0.000 0.757 0.000
v 0.28296 -0.01800 3.50856 0.000 0.851 0.000
v 0.33102 -0.03240 3.51720 0.000 0.871 0.000
v 0.37656 -0.03240 3.44682 0.000 0.871 0.000
v 0.24948 0.00000 3.47454 0.000 0.894 0.000
v 0.24120 0.00000 3.43800 0.000 0.820 0.000
v 0.21564 0.00000 3.52080 0.000 0.871 0.000
v 0.21564 0.00000 3.60000 0.000 0.953 0.000
v 0.28296 0.01800 3.50856 0.000 0.851 0.000
v 0.26226 0.01800 3.60000 0.000 0.953 0.000
v 0.31590 0.03240 3.60000 0.000 0.937 0.000
v 0.33102 0.03240 3.51720 0.000 0.871 0.000
v 0.28296 0.01800 3.69144 0.000 0.851 0.000
v 0.24948 0.00000 3.72546 0.000 0.894 0.000
v 0.21564 0.00000 3.67920 0.000 0.871 0.000
v 0.24120 0.00000 3.76200 0.000 0.820 0.000
v 0.33102 0.03240 3.68280 0.000 0.871 0.000
v 0.28296 -0.01800 3.50856 0.000 0.851 0.000
v 0.26226 -0.01800 3.60000 0.000 0.953 0.000
v 0.31590 -0.03240 3.60000 0.000 0.937 0.000
v 0.33102 -0.03240 3.51720 0.000 0.871 0.000
v 0.28296 -0.01800 3.69144 0.000 0.851 0.000
v 0.33102 -0.03240 3.68280 0.000 0.871 0.000
v 0.59832 0.00000 3.30912 0.000 0.671 0.000
v 0.50688 0.00000 3.30192 0.000 0.812 0.000
v 0.49788 0.01800 3.33540 0.000 0.757 0.000
v 0.56610 0.01440 3.34296 0.000 0.871 0.000
v 0.51390 0.02862 3.35952 0.000 0.871 0.000
v 0.49788 -0.01800 3.33540 0.000 0.757 0.000
v 0.56610 -0.01440 3.34296 0.000 0.871 0.000
v 0.51390 -0.02862 3.35952 0.000 0.871 0.000
v 0.50688 0.00000 3.89808 0.000 0.812 0.000
v 0.41436 0.00000 3.87162 0.000 0.894 0.000
v 0.45558 0.00000 3.89880 0.000 0.894 0.000
v 0.51480 0.00000 3.91320 0.000 0.682 0.000
v 0.49788 0.01800 3.86460 0.000 0.757 0.000
v 0.41508 0.01800 3.83310 0.000 0.757 0.000
v 0.44280 0.03240 3.80538 0.000 0.871 0.000
v 0.51948 0.03240 3.83202 0.000 0.871 0.000
v 0.49788 -0.01800 3.86460 0.000 0.757 0.000
v 0.41508 -0.01800 3.83310 0.000 0.757 0.000
v 0.44280 -0.03240 3.80538 0.000 0.871 0.000
v 0.51948 -0.03240 3.83202 0.000 0.871 0.000
v 0.34866 0.00000 3.86586 0.000 0.851 0.000
v 0.41436 0.00000 3.87162 0.000 0.894 0.000
v 0.32130 0.00000 3.81834 0.000 0.894 0.000
v 0.42120 0.00000 3.89880 0.000 0.765 0.000
v 0.41508 0.01800 3.83310 0.000 0.757 0.000
v 0.33624 0.01800 3.77406 0.000 0.757 0.000
v 0.41508 -0.01800 3.83310 0.000 0.757 0.000
v 0.33624 -0.01800 3.77406 0.000 0.757 0.000
v 0.37656 0.03240 3.75318 0.000 0.871 0.000
v 0.41508 0.01800 3.83310 0.000 0.757 0.000
v 0.44280 0.03240 3.80538 0.000 0.871 0.000
v 0.41508 -0.01800 3.83310 0.000 0.757 0.000
v 0.37656 -0.03240 3.75318 0.000 0.871 0.000
v 0.44280 -0.03240 3.80538 0.000 0.871 0.000
v 0.26694 0.00000 3.79224 0.000 0.863 0.000
v 0.31320 0.00000 3.85200 0.000 0.765 0.000
v 0.32130 0.00000 3.81834 0.000 0.894 0.000
v 0.24948 0.00000 3.72546 0.000 0.894 0.000
v 0.33624 0.01800 3.77406 0.000 0.757 0.000
v 0.28296 0.01800 3.69144 0.000 0.851 0.000
v 0.33102 0.03240 3.68280 0.000 0.871 0.000
v 0.37656 0.03240 3.75318 0.000 0.871 0.000
v 0.33624 -0.01800 3.77406 0.000 0.757 0.000
v 0.28296 -0.01800 3.69144 0.000 0.851 0.000
v 0.33102 -0.03240 3.68280 0.000 0.871 0.000
v 0.37656 -0.03240 3.75318 0.000 0.871 0.000
v 0.49788 0.01800 3.86460 0.000 0.757 0.000
v 0.50688 0.00000 3.89808 0.000 0.812 0.000
v 0.59832 0.00000 3.89088 0.000 0.671 0.000
v 0.56610 0.01440 3.85704 0.000 0.796 0.000
v 0.51390 0.02862 3.84048 0.000 0.871 0.000
v 0.49788 -0.01800 3.86460 0.000 0.757 0.000
v 0.56610 -0.01440 3.85704 0.000 0.796 0.000
v 0.51390 -0.02862 3.84048 0.000 0.871 0.000
v 0.84132 0.03240 3.60000 0.000 0.620 0.000
v 0.73836 0.03240 3.63744 0.000 0.784 0.000
v 0.76230 0.03240 3.66750 0.000 0.816 0.000
v 0.72630 0.03240 3.60000 0.000 0.812 0.000
v 0.78444 0.03240 3.66786 0.000 0.773 0.000
v 0.80730 0.03240 3.68874 0.000 0.682 0.000
v 0.74556 0.03240 3.68838 0.000 0.820 0.000
v 0.67500 0.03240 3.67578 0.000 0.867 0.000
v 0.73692 0.03240 3.77046 0.000 0.659 0.000
v 0.67500 0.03240 3.78576 0.000 0.773 0.000
v 0.76230 0.03240 3.71088 0.000 0.773 0.000
v 0.78444 0.03240 3.71088 0.000 0.620 0.000
v 0.60642 0.03240 3.77190 0.000 0.839 0.000
v 0.58122 0.03240 3.81060 0.000 0.792 0.000
v 0.61812 0.01998 3.84120 0.000 0.765 0.000
v 0.51390 0.03240 3.79260 0.000 0.757 0.000
v 0.56610 0.01440 3.85704 0.000 0.933 0.000
v 0.51948 0.03240 3.83202 0.000 0.933 0.000
v 0.73836 0.03240 3.56256 0.000 0.784 0.000
v 0.76230 0.03240 3.53250 0.000 0.816 0.000
v 0.78444 0.03240 3.53214 0.000 0.773 0.000
v 0.80730 0.03240 3.51126 0.000 0.682 0.000
v 0.74556 0.03240 3.51162 0.000 0.820 0.000
v 0.67500 0.03240 3.52422 0.000 0.867 0.000
v 0.73692 0.03240 3.42954 0.000 0.659 0.000
v 0.67500 0.03240 3.41424 0.000 0.773 0.000
v 0.76230 0.03240 3.48912 0.000 0.773 0.000
v 0.78444 0.03240 3.48912 0.000 0.620 0.000
v 0.60642 0.03240 3.42810 0.000 0.839 0.000
v 0.58122 0.03240 3.38940 0.000 0.792 0.000
v 0.61812 0.01998 3.35880 0.000 0.765 0.000
v 0.51390 0.03240 3.40740 0.000 0.757 0.000
v 0.56610 0.01440 3.34296 0.000 0.933 0.000
v 0.51948 0.03240 3.36798 0.000 0.933 0.000
v 0.76230 -0.03240 3.66750 0.000 0.867 0.000
v 0.73836 -0.03240 3.63744 0.000 0.847 0.000
v 0.84132 -0.03240 3.60000 0.000 0.663 0.000
v 0.72630 -0.03240 3.60000 0.000 0.863 0.000
v 0.78444 -0.03240 3.66786 0.000 0.839 0.000
v 0.80730 -0.03240 3.68874 0.000 0.784 0.000
v 0.74556 -0.03240 3.68838 0.000 0.867 0.000
v 0.67500 -0.03240 3.67578 0.000 0.894 0.000
v 0.73692 -0.03240 3.77046 0.000 0.769 0.000
v 0.67500 -0.03240 3.78576 0.000 0.839 0.000
v 0.76230 -0.03240 3.71088 0.000 0.839 0.000
v 0.78444 -0.03240 3.71088 0.000 0.729 0.000
v 0.60642 -0.03240 3.77190 0.000 0.878 0.000
v 0.58122 -0.03240 3.81060 0.000 0.851 0.000
v 0.61812 -0.01998 3.84120 0.000 0.835 0.000
v 0.51390 -0.03240 3.79260 0.000 0.827 0.000
v 0.56610 -0.01440 3.85704 0.000 0.933 0.000
v 0.51948 -0.03240 3.83202 0.000 0.933 0.000
v 0.73836 -0.03240 3.56256 0.000 0.847 0.000
v 0.76230 -0.03240 3.53250 0.000 0.867 0.000
v 0.78444 -0.03240 3.53214 0.000 0.839 0.000
v 0.80730 -0.03240 3.51126 0.000 0.784 0.000
v 0.74556 -0.03240 3.51162 0.000 0.867 0.000
v 0.67500 -0.03240 3.52422 0.000 0.894 0.000
v 0.73692 -0.03240 3.42954 0.000 0.769 0.000
v 0.67500 -0.03240 3.41424 0.000 0.839 0.000
v 0.76230 -0.03240 3.48912 0.000 0.839 0.000
v 0.78444 -0.03240 3.48912 0.000 0.729 0.000
v 0.60642 -0.03240 3.42810 0.000 0.878 0.000
v 0.58122 -0.03240 3.38940 0.000 0.851 0.000
v 0.61812 -0.01998 3.35880 0.000 0.835 0.000
v 0.51390 -0.03240 3.40740 0.000 0.827 0.000
v 0.56610 -0.01440 3.34296 0.000 0.933 0.000
v 0.51948 -0.03240 3.36798 0.000 0.933 0.000
v 0.21042 0.03438 3.64806 0.706 0.220 0.000
v 0.26586 0.03438 3.64806 0.706 0.220 0.000
v 0.23814 0.04824 3.60000 0.565 0.176 0.000
v 0.21042 0.03438 3.55194 0.706 0.220 0.000
v 0.26586 0.03438 3.55194 0.706 0.220 0.000
v 0.21042 0.03438 3.55194 0.706 0.220 0.000
v 0.18270 0.03438 3.60000 0.706 0.220 0.000
v 0.23814 0.04824 3.60000 0.565 0.176 0.000
v 0.21042 0.03438 3.64806 0.706 0.220 0.000
v 0.18270 0.03438 3.60000 0.706 0.220 0.000
v 0.26586 0.03438 3.55194 0.706 0.220 0.000
v 0.23814 0.04824 3.60000 0.565 0.176 0.000
v 0.29358 0.03438 3.60000 0.706 0.220 0.000
v 0.26586 0.03438 3.64806 0.706 0.220 0.000
v 0.29358 0.03438 3.60000 0.706 0.220 0.000
v 0.23814 -0.04824 3.60000 0.565 0.176 0.000
v 0.26586 -0.03438 3.64806 0.706 0.220 0.000
v 0.21042 -0.03438 3.64806 0.706 0.220 0.000
v 0.26586 -0.03438 3.55194 0.706 0.220 0.000
v 0.21042 -0.03438 3.55194 0.706 0.220 0.000
v 0.23814 -0.04824 3.60000 0.565 0.176 0.000
v 0.18270 -0.03438 3.60000 0.706 0.220 0.000
v 0.21042 -0.03438 3.55194 0.706 0.220 0.000
v 0.18270 -0.03438 3.60000 0.706 0.220 0.000
v 0.21042 -0.03438 3.64806 0.706 0.220 0.000
v 0.29358 -0.03438 3.60000 0.706 0.220 0.000
v 0.23814 -0.04824 3.60000 0.565 0.176 0.000
v 0.26586 -0.03438 3.55194 0.706 0.220 0.000
v 0.29358 -0.03438 3.60000 0.706 0.220 0.000
v 0.26586 -0.03438 3.64806 0.706 0.220 0.000
v 0.14040 0.02682 3.61656 0.000 0.749 0.000
v -0.18090 0.02088 3.61278 0.000 0.937 0.000
v 0.14040 0.01656 3.62682 0.000 0.749 0.000
v -0.18090 0.01278 3.62088 0.000 0.937 0.000
v -0.37458 0.01458 3.62358 0.000 0.875 0.000
v -0.38592 0.02412 3.61440 0.000 0.875 0.000
v 0.14040 -0.01656 3.62682 0.000 0.749 0.000
v -0.18090 -0.02088 3.61278 0.000 0.937 0.000
v 0.14040 -0.02682 3.61656 0.000 0.749 0.000
v -0.18090 -0.01278 3.62088 0.000 0.937 0.000
v -0.37458 -0.01458 3.62358 0.000 0.875 0.000
v -0.38592 -0.02412 3.61440 0.000 0.875 0.000
v 0.14040 0.01656 3.57318 0.000 0.749 0.000
v -0.18090 0.02088 3.58722 0.000 0.937 0.000
v 0.14040 0.02682 3.58344 0.000 0.749 0.000
v -0.18090 0.01278 3.57912 0.000 0.937 0.000
v -0.37458 0.01458 3.57642 0.000 0.875 0.000
v -0.38592 0.02412 3.58560 0.000 0.875 0.000
v 0.14040 -0.02682 3.58344 0.000 0.749 0.000
v -0.18090 -0.02088 3.58722 0.000 0.937 0.000
v 0.14040 -0.01656 3.57318 0.000 0.749 0.000
v -0.18090 -0.01278 3.57912 0.000 0.937 0.000
v -0.37458 -0.01458 3.57642 0.000 0.875 0.000
v -0.38592 -0.02412 3.58560 0.000 0.875 0.000
v 0.14040 -0.01656 3.62682 0.000 0.875 0.000
v 0.14040 -0.02682 3.61656 0.000 0.875 0.000
v 0.21150 0.00000 3.60000 0.000 1.000 0.000
v 0.14040 0.02682 3.61656 0.000 0.875 0.000
v 0.14040 0.01656 3.62682 0.000 0.875 0.000
v 0.14040 -0.02682 3.58344 0.000 0.875 0.000
v 0.14040 -0.01656 3.57318 0.000 0.875 0.000
v 0.14040 0.01656 3.57318 0.000 0.875 0.000
v 0.14040 0.02682 3.58344 0.000 0.875 0.000
vt 0.51666 0.02500
vt 0.46820 0.03600
vt 0.46774 0.08800
vt 0.40022 0.06250
vt 0.46774 0.08800
vt 0.51666 0.02500
vt 0.51771 0.09800
vt 0.51771 0.09800
vt 0.61469 0.11700
vt 0.61511 0.00700
vt 0.45303 0.00700
vt 0.39681 0.11700
vt 0.61469 0.11700
vt 0.61511 0.00700
vt 0.45303 0.00700
vt 0.39681 0.11700
vt 0.00923 0.11700
vt 0.13313 0.00700
vt 0.13320 0.11700
vt 0.26788 0.00700
vt 0.30296 0.11700
vt 0.01883 0.00700
vt 0.09278 0.00700
vt 0.09476 0.11700
vt 0.16418 0.06250
vt 0.16418 0.06250
vt 0.09476 0.11700
vt 0.13320 0.11700
vt 0.13313 0.00700
vt 0.26788 0.00700
vt 0.30296 0.11700
vt 0.01883 0.00700
vt 0.40747 0.00700
vt 0.44436 0.11700
vt 0.30288 0.00700
vt 0.26796 0.11700
vt 0.30288 0.00700
vt 0.26796 0.11700
vt 0.44436 0.11700
vt 0.40747 0.00700
vt 0.46774 0.08800
vt 0.46820 0.03600
vt 0.51666 0.02500
vt 0.40022 0.06250
vt 0.46774 0.08800
vt 0.51666 0.02500
vt 0.51771 0.09800
vt 0.51771 0.09800
vt 0.61469 0.11700
vt 0.61511 0.00700
vt 0.45303 0.00700
vt 0.39681 0.11700
vt 0.61469 0.11700
vt 0.61511 0.00700
vt 0.45303 0.00700
vt 0.39681 0.11700
vt 0.13320 0.11700
vt 0.13313 0.00700
vt 0.00923 0.11700
vt 0.26788 0.00700
vt 0.30296 0.11700
vt 0.01883 0.00700
vt 0.09278 0.00700
vt 0.09476 0.11700
vt 0.16418 0.06250
vt 0.09476 0.11700
vt 0.16418 0.06250
vt 0.13313 0.00700
vt 0.13320 0.11700
vt 0.26788 0.00700
vt 0.30296 0.11700
vt 0.01883 0.00700
vt 0.30288 0.00700
vt 0.44436 0.11700
vt 0.40747 0.00700
vt 0.26796 0.11700
vt 0.44436 0.11700
vt 0.26796 0.11700
vt 0.30288 0.00700
vt 0.40747 0.00700
vt 0.00700 0.31553
vt 0.00700 0.62591
vt 0.20349 0.44807
vt 0.24274 0.34054
vt 0.21537 0.26298
vt 0.16296 0.19534
vt 0.09141 0.15053
vt 0.00700 0.13576
vt 0.09141 0.15053
vt 0.16296 0.19534
vt 0.21537 0.26298
vt 0.24274 0.34054
vt 0.20349 0.44807
vt 0.20349 0.44807
vt 0.00700 0.62591
vt 0.00700 0.31553
vt 0.24274 0.34054
vt 0.21537 0.26298
vt 0.16296 0.19534
vt 0.09141 0.15053
vt 0.00700 0.13576
vt 0.09141 0.15053
vt 0.16296 0.19534
vt 0.21537 0.26298
vt 0.24274 0.34054
vt 0.20349 0.44807
vt 0.36957 0.06247
vt 0.45643 0.11752
vt 0.45628 0.00642
vt 0.49512 0.00642
vt 0.58657 0.00642
vt 0.62332 0.11752
vt 0.59932 0.11752
vt 0.66870 0.06247
vt 0.45643 0.11752
vt 0.45628 0.00642
vt 0.49512 0.00642
vt 0.58657 0.00642
vt 0.62332 0.11752
vt 0.66870 0.06247
vt 0.59932 0.11752
vt 0.45628 0.00642
vt 0.45643 0.11752
vt 0.36957 0.06247
vt 0.49512 0.00642
vt 0.58657 0.00642
vt 0.62332 0.11752
vt 0.66870 0.06247
vt 0.59932 0.11752
vt 0.45628 0.00642
vt 0.45643 0.11752
vt 0.49512 0.00642
vt 0.58657 0.00642
vt 0.62332 0.11752
vt 0.59932 0.11752
vt 0.66870 0.06247
vt 0.94539 0.36341
vt 0.96826 0.37485
vt 0.94539 0.39772
vt 0.99113 0.39772
vt 0.99113 0.35198
vt 0.95682 0.35198
vt 0.94539 0.36341
vt 0.94539 0.35198
vt 0.95682 0.35198
vt 0.33882 0.16096
vt 0.38025 0.36608
vt 0.29430 0.36608
vt 0.29430 0.36608
vt 0.38025 0.36608
vt 0.99268 0.00790
vt 0.94518 0.29641
vt 0.99268 0.29641
vt 0.94518 0.00790
vt 0.99268 0.00790
vt 0.99268 0.29641
vt 0.94518 0.29641
vt 0.99268 0.29641
vt 0.99268 0.29641
vt 0.94518 0.29641
vt 0.94518 0.00790
vt 0.94518 0.29641
vt 0.99268 0.29641
vt 0.94518 0.29641
vt 0.96888 0.34298
vt 0.94518 0.29641
vt 0.99268 0.29641
vt 0.56220 0.91300
vt 0.59260 0.95300
vt 0.52060 0.99300
vt 0.52025 0.91300
vt 0.46849 0.91300
vt 0.45516 0.99300
vt 0.52060 0.99300
vt 0.52025 0.91300
vt 0.46849 0.91300
vt 0.44074 0.91300
vt 0.38659 0.91300
vt 0.35171 0.99300
vt 0.47334 0.99300
vt 0.43119 0.91300
vt 0.46244 0.99300
vt 0.40000 0.95400
vt 0.44100 0.99300
vt 0.43119 0.91300
vt 0.35171 0.99300
vt 0.44074 0.91300
vt 0.38659 0.91300
vt 0.40000 0.95400
vt 0.41620 0.99300
vt 0.41620 0.91331
vt 0.46724 0.95300
vt 0.35897 0.99300
vt 0.35791 0.91300
vt 0.34165 0.91300
vt 0.31810 0.95300
vt 0.35897 0.99300
vt 0.35791 0.91300
vt 0.41620 0.91331
vt 0.41620 0.99300
vt 0.77296 0.22654
vt 0.67918 0.22654
vt 0.67918 0.15607
vt 0.77296 0.15607
vt 0.77296 0.22654
vt 0.67918 0.22654
vt 0.77296 0.15607
vt 0.67918 0.15607
vt 0.67918 0.07814
vt 0.77296 0.07814
vt 0.77296 0.07814
vt 0.67918 0.07814
vt 0.67918 0.00668
vt 0.77296 0.00668
vt 0.67918 0.00668
vt 0.77296 0.00668
vt 0.67918 0.07814
vt 0.67918 0.15607
vt 0.77296 0.15607
vt 0.77296 0.07814
vt 0.85230 0.17873
vt 0.78898 0.17873
vt 0.82034 0.29352
vt 0.82034 0.29352
vt 0.78898 0.17873
vt 0.85230 0.17873
vt 0.82034 0.29352
vt 0.78898 0.17873
vt 0.85230 0.17873
vt 0.85230 0.17873
vt 0.78898 0.17873
vt 0.82034 0.29352
vt 0.99200 0.99117
vt 0.92900 0.99117
vt 0.99200 0.95840
vt 0.99200 0.92551
vt 0.92900 0.99117
vt 0.92900 0.92551
vt 0.92900 0.86987
vt 0.99200 0.86987
vt 0.92900 0.86987
vt 0.99200 0.41425
vt 0.92900 0.41425
vt 0.92900 0.41425
vt 0.92900 0.86987
vt 0.92900 0.86987
vt 0.99200 0.86987
vt 0.92900 0.92551
vt 0.99200 0.95840
vt 0.92900 0.99117
vt 0.92900 0.99117
vt 0.99200 0.99117
vt 0.92900 0.86987
vt 0.99200 0.92551
vt 0.99200 0.86987
vt 0.92900 0.86987
vt 0.99200 0.41425
vt 0.92900 0.41425
vt 0.92900 0.41425
vt 0.92900 0.86987
vt 0.92900 0.86987
vt 0.99200 0.86987
vt 0.92900 0.92551
vt 0.92900 0.92551
vt 0.92900 0.99117
vt 0.99200 0.95840
vt 0.99200 0.99117
vt 0.92900 0.99117
vt 0.99200 0.95840
vt 0.92900 0.99117
vt 0.99200 0.99117
vt 0.92900 0.99117
vt 0.85200 0.89606
vt 0.74800 0.99200
vt 0.77300 0.87867
vt 0.85200 0.89606
vt 0.91450 0.99200
vt 0.91450 0.99200
vt 0.91450 0.89606
vt 0.91450 0.83885
vt 0.85200 0.41276
vt 0.91450 0.41276
vt 0.91450 0.78763
vt 0.91450 0.89606
vt 0.91450 0.83885
vt 0.85200 0.41276
vt 0.91450 0.41276
vt 0.91450 0.78763
vt 0.85200 0.85975
vt 0.91450 0.89606
vt 0.85200 0.85975
vt 0.91450 0.89606
vt 0.78898 0.16373
vt 0.78898 0.00706
vt 0.85230 0.00706
vt 0.85230 0.16373
vt 0.78898 0.16373
vt 0.85230 0.16373
vt 0.77300 0.87867
vt 0.74800 0.99200
vt 0.85200 0.89606
vt 0.85200 0.89606
vt 0.91450 0.99200
vt 0.91450 0.99200
vt 0.91450 0.89606
vt 0.91450 0.83885
vt 0.85200 0.41276
vt 0.91450 0.41276
vt 0.91450 0.78763
vt 0.91450 0.89606
vt 0.91450 0.83885
vt 0.85200 0.41276
vt 0.91450 0.41276
vt 0.91450 0.78763
vt 0.85200 0.85975
vt 0.91450 0.89606
vt 0.85200 0.85975
vt 0.91450 0.89606
vt 0.80400 0.85001
vt 0.85200 0.85001
vt 0.85200 0.41273
vt 0.80400 0.41273
vt 0.80400 0.85001
vt 0.85200 0.85001
vt 0.85200 0.85001
vt 0.80400 0.85001
vt 0.85200 0.41273
vt 0.80400 0.41273
vt 0.80400 0.85001
vt 0.85200 0.85001
vt 0.85200 0.88330
vt 0.80400 0.88330
vt 0.80400 0.85802
vt 0.85200 0.85802
vt 0.80400 0.85802
vt 0.85200 0.85802
vt 0.93432 0.12498
vt 0.93432 0.04759
vt 0.86224 0.12498
vt 0.86224 0.04759
vt 0.86224 0.20725
vt 0.93432 0.20725
vt 0.86224 0.27342
vt 0.93432 0.27342
vt 0.93432 0.00761
vt 0.86224 0.00761
vt 0.86224 0.35160
vt 0.93432 0.35160
vt 0.86224 0.39871
vt 0.93432 0.39871
vt 0.93432 0.35160
vt 0.86224 0.35160
vt 0.86224 0.27342
vt 0.93432 0.20725
vt 0.93432 0.27342
vt 0.86224 0.20725
vt 0.93432 0.12498
vt 0.86224 0.12498
vt 0.93432 0.04759
vt 0.86224 0.04759
vt 0.93432 0.00761
vt 0.86224 0.00761
vt 0.86224 0.34360
vt 0.86224 0.32192
vt 0.93432 0.34360
vt 0.93432 0.32192
vt 0.86224 0.30108
vt 0.93432 0.30108
vt 0.93432 0.27342
vt 0.86224 0.27342
vt 0.86224 0.30876
vt 0.93432 0.30876
vt 0.93432 0.34360
vt 0.86224 0.34360
vt 0.93432 0.34360
vt 0.86224 0.32192
vt 0.86224 0.34360
vt 0.93432 0.32192
vt 0.86224 0.30108
vt 0.93432 0.30108
vt 0.93432 0.27342
vt 0.86224 0.27342
vt 0.86224 0.30876
vt 0.93432 0.30876
vt 0.93432 0.34360
vt 0.86224 0.34360
vt 0.59370 0.92190
vt 0.67158 0.92190
vt 0.63250 0.80500
vt 0.59370 0.92190
vt 0.67158 0.92190
vt 0.59370 0.92190
vt 0.67158 0.92190
vt 0.59370 0.92190
vt 0.67158 0.92190
vt 0.59370 0.92190
vt 0.67158 0.92190
vt 0.59370 0.92190
vt 0.67158 0.92190
vt 0.59370 0.92190
vt 0.67158 0.92190
vt 0.59370 0.92190
vt 0.67158 0.92190
vt 0.67158 0.92190
vt 0.59370 0.92190
vt 0.63250 0.99300
vt 0.67158 0.92190
vt 0.59370 0.92190
vt 0.67158 0.92190
vt 0.59370 0.92190
vt 0.67158 0.92190
vt 0.59370 0.92190
vt 0.67158 0.92190
vt 0.59370 0.92190
vt 0.67158 0.92190
vt 0.59370 0.92190
vt 0.67158 0.92190
vt 0.59370 0.92190
vt 0.67158 0.92190
vt 0.59370 0.92190
vt 0.79000 0.36502
vt 0.77033 0.27741
vt 0.76333 0.45293
vt 0.79000 0.47927
vt 0.68000 0.41912
vt 0.68000 0.25623
vt 0.79000 0.28529
vt 0.79000 0.43550
vt 0.68000 0.41912
vt 0.68000 0.25623
vt 0.79000 0.28529
vt 0.79000 0.43550
vt 0.76433 0.28141
vt 0.75133 0.45493
vt 0.79000 0.35702
vt 0.79000 0.47927
vt 0.68000 0.41912
vt 0.68000 0.25623
vt 0.68000 0.41912
vt 0.68000 0.25623
vt 0.68000 0.41712
vt 0.79000 0.28729
vt 0.79000 0.43350
vt 0.79000 0.28729
vt 0.68000 0.41712
vt 0.79000 0.43350
vt 0.74933 0.45693
vt 0.79000 0.48927
vt 0.79000 0.37302
vt 0.74833 0.27141
vt 0.68000 0.41912
vt 0.68000 0.25623
vt 0.79000 0.28929
vt 0.79000 0.43750
vt 0.68000 0.41912
vt 0.68000 0.25623
vt 0.79000 0.28929
vt 0.79000 0.43750
vt 0.74933 0.45493
vt 0.79000 0.50927
vt 0.79000 0.36302
vt 0.74775 0.23882
vt 0.68000 0.41912
vt 0.68000 0.25623
vt 0.79000 0.28129
vt 0.79000 0.42950
vt 0.68000 0.41912
vt 0.74933 0.45493
vt 0.79000 0.36302
vt 0.79000 0.50927
vt 0.79000 0.42950
vt 0.68000 0.41912
vt 0.68000 0.25623
vt 0.79000 0.28129
vt 0.79000 0.42950
vt 0.68000 0.41912
vt 0.79000 0.42950
vt 0.68000 0.75904
vt 0.78790 0.54570
vt 0.68000 0.48794
vt 0.75718 0.64975
vt 0.77731 0.51408
vt 0.68000 0.48794
vt 0.75718 0.64975
vt 0.77731 0.51408
vt 0.76333 0.45293
vt 0.77033 0.27741
vt 0.79000 0.36502
vt 0.79000 0.47927
vt 0.68000 0.41912
vt 0.68000 0.25623
vt 0.79000 0.28529
vt 0.79000 0.43550
vt 0.68000 0.41912
vt 0.68000 0.25623
vt 0.79000 0.28529
vt 0.79000 0.43550
vt 0.79000 0.35702
vt 0.75133 0.45493
vt 0.76433 0.28141
vt 0.79000 0.47927
vt 0.68000 0.41912
vt 0.68000 0.25623
vt 0.68000 0.41912
vt 0.68000 0.25623
vt 0.79000 0.28729
vt 0.68000 0.41712
vt 0.79000 0.43350
vt 0.68000 0.41712
vt 0.79000 0.28729
vt 0.79000 0.43350
vt 0.79000 0.37302
vt 0.79000 0.48927
vt 0.74933 0.45693
vt 0.74833 0.27141
vt 0.68000 0.41912
vt 0.68000 0.25623
vt 0.79000 0.28929
vt 0.79000 0.43750
vt 0.68000 0.41912
vt 0.68000 0.25623
vt 0.79000 0.28929
vt 0.79000 0.43750
vt 0.68000 0.48794
vt 0.78790 0.54570
vt 0.68000 0.75904
vt 0.75718 0.64975
vt 0.77731 0.51408
vt 0.68000 0.48794
vt 0.75718 0.64975
vt 0.77731 0.51408
vt 0.00700 0.97408
vt 0.10512 0.71590
vt 0.18219 0.77588
vt 0.00700 0.68547
vt 0.18311 0.83152
vt 0.23628 0.88889
vt 0.23536 0.73394
vt 0.20437 0.54486
vt 0.44543 0.71199
vt 0.48442 0.55682
vt 0.29300 0.77588
vt 0.29300 0.83152
vt 0.44897 0.38469
vt 0.55423 0.34267
vt 0.62622 0.41925
vt 0.50715 0.15759
vt 0.66461 0.30552
vt 0.60078 0.16464
vt 0.10512 0.71590
vt 0.18219 0.77588
vt 0.18311 0.83152
vt 0.23628 0.88889
vt 0.23536 0.73394
vt 0.20437 0.54486
vt 0.44543 0.71199
vt 0.48442 0.55682
vt 0.29300 0.77588
vt 0.29300 0.83152
vt 0.44897 0.38469
vt 0.55423 0.34267
vt 0.62622 0.41925
vt 0.50715 0.15759
vt 0.66461 0.30552
vt 0.60078 0.16464
vt 0.18219 0.77588
vt 0.10512 0.71590
vt 0.00700 0.97408
vt 0.00700 0.68547
vt 0.18311 0.83152
vt 0.23628 0.88889
vt 0.23536 0.73394
vt 0.20437 0.54486
vt 0.44543 0.71199
vt 0.48442 0.55682
vt 0.29300 0.77588
vt 0.29300 0.83152
vt 0.44897 0.38469
vt 0.55423 0.34267
vt 0.62622 0.41925
vt 0.50715 0.15759
vt 0.66461 0.30552
vt 0.60078 0.16464
vt 0.10512 0.71590
vt 0.18219 0.77588
vt 0.18311 0.83152
vt 0.23628 0.88889
vt 0.23536 0.73394
vt 0.20437 0.54486
vt 0.44543 0.71199
vt 0.48442 0.55682
vt 0.29300 0.77588
vt 0.29300 0.83152
vt 0.44897 0.38469
vt 0.55423 0.34267
vt 0.62622 0.41925
vt 0.50715 0.15759
vt 0.66461 0.30552
vt 0.60078 0.16464
vt 0.66400 0.69512
vt 0.66500 0.61678
vt 0.54106 0.65600
vt 0.66500 0.61678
vt 0.66400 0.69512
vt 0.66400 0.60120
vt 0.66300 0.52224
vt 0.54106 0.56200
vt 0.66300 0.52224
vt 0.66400 0.60120
vt 0.66400 0.70843
vt 0.54106 0.75000
vt 0.66400 0.78949
vt 0.66400 0.78949
vt 0.66400 0.70843
vt 0.54106 0.65600
vt 0.66500 0.61678
vt 0.66400 0.69512
vt 0.66400 0.69512
vt 0.66500 0.61678
vt 0.54106 0.56200
vt 0.66300 0.52224
vt 0.66400 0.60120
vt 0.66400 0.60120
vt 0.66300 0.52224
vt 0.66400 0.78949
vt 0.54106 0.75000
vt 0.66400 0.70843
vt 0.66400 0.70843
vt 0.66400 0.78949
vt 0.68000 0.95200
vt 0.68000 0.77059
vt 0.72700 0.95200
vt 0.72700 0.77059
vt 0.72700 0.95200
vt 0.68000 0.95200
vt 0.72700 0.95200
vt 0.68000 0.77059
vt 0.68000 0.95200
vt 0.72700 0.77059
vt 0.72700 0.95200
vt 0.68000 0.95200
vt 0.72700 0.95200
vt 0.68000 0.77059
vt 0.68000 0.95200
vt 0.72700 0.77059
vt 0.72700 0.95200
vt 0.68000 0.95200
vt 0.68000 0.95200
vt 0.68000 0.77059
vt 0.72700 0.95200
vt 0.72700 0.77059
vt 0.72700 0.95200
vt 0.68000 0.95200
vt 0.72700 0.96200
vt 0.68000 0.96200
vt 0.70300 0.99462
vt 0.68000 0.96200
vt 0.72700 0.96200
vt 0.68000 0.96200
vt 0.72700 0.96200
vt 0.72700 0.96200
vt 0.68000 0.96200
usemtl m0
f 1/1 2/2 3/3
f 2/2 4/4 3/3
f 4/4 2/2 5/5
f 6/6 5/5 2/2
f 7/7 5/5 6/6
f 8/8 1/1 3/3
f 9/9 7/7 6/6
f 10/10 9/9 6/6
f 11/11 9/9 10/10
f 12/12 9/9 11/11
f 13/13 1/1 8/8
f 1/1 13/13 14/14
f 14/14 13/13 15/15
f 15/15 13/13 16/16
f 17/17 18/18 19/19
f 18/18 20/20 19/19
f 19/19 20/20 21/21
f 17/17 22/22 18/18
f 17/17 23/23 22/22
f 24/24 23/23 17/17
f 24/24 25/25 23/23
f 23/23 26/26 27/27
f 28/28 29/29 17/17
f 28/28 30/30 29/29
f 31/31 30/30 28/28
f 29/29 32/32 17/17
f 33/33 34/34 35/35
f 35/35 34/34 36/36
f 37/37 38/38 39/39
f 37/37 39/39 40/40
f 41/41 42/42 43/43
f 41/41 44/44 42/42
f 45/45 42/42 44/44
f 42/42 45/45 46/46
f 46/46 45/45 47/47
f 41/41 43/43 48/48
f 46/46 47/47 49/49
f 46/46 49/49 50/50
f 50/50 49/49 51/51
f 51/51 49/49 52/52
f 48/48 43/43 53/53
f 54/54 53/53 43/43
f 55/55 53/53 54/54
f 56/56 53/53 55/55
f 57/57 58/58 59/59
f 57/57 60/60 58/58
f 61/61 60/60 57/57
f 58/58 62/62 59/59
f 62/62 63/63 59/59
f 59/59 63/63 64/64
f 63/63 65/65 64/64
f 66/66 67/67 63/63
f 59/59 68/68 69/69
f 68/68 70/70 69/69
f 69/69 70/70 71/71
f 59/59 72/72 68/68
f 73/73 74/74 75/75
f 76/76 74/74 73/73
f 77/77 78/78 79/79
f 80/80 77/77 79/79
f 81/81 82/82 83/83
f 81/81 83/83 84/84
f 85/85 81/81 84/84
f 86/86 81/81 85/85
f 81/81 86/86 87/87
f 81/81 87/87 88/88
f 89/89 81/81 88/88
f 89/89 90/90 81/81
f 90/90 91/91 81/81
f 92/92 81/81 91/91
f 81/81 92/92 93/93
f 81/81 93/93 82/82
f 94/94 95/95 96/96
f 97/97 94/94 96/96
f 97/97 96/96 98/98
f 98/98 96/96 99/99
f 100/100 99/99 96/96
f 101/101 100/100 96/96
f 101/101 96/96 102/102
f 96/96 103/103 102/102
f 96/96 104/104 103/103
f 104/104 96/96 105/105
f 106/106 105/105 96/96
f 95/95 106/106 96/96
f 107/107 108/108 109/109
f 110/110 109/109 108/108
f 111/111 110/110 108/108
f 111/111 108/108 112/112
f 111/111 113/113 114/114
f 115/115 107/107 116/116
f 116/116 117/117 115/115
f 117/117 118/118 115/115
f 119/119 115/115 118/118
f 120/120 121/121 118/118
f 122/122 123/123 124/124
f 123/123 122/122 125/125
f 123/123 125/125 126/126
f 127/127 123/123 126/126
f 128/128 129/129 126/126
f 130/130 124/124 131/131
f 131/131 132/132 130/130
f 131/131 133/133 132/132
f 133/133 131/131 134/134
f 133/133 135/135 136/136
f 137/137 138/138 139/139
f 139/139 138/138 140/140
f 138/138 141/141 140/140
f 138/138 142/142 141/141
f 138/138 143/143 144/144
f 145/145 138/138 144/144
f 146/146 147/147 148/148
f 146/146 149/149 147/147
f 148/148 150/150 146/146
f 150/150 149/149 146/146
f 151/151 152/152 153/153
f 151/151 154/154 152/152
f 154/154 155/155 152/152
f 155/155 156/156 152/152
f 157/157 155/155 154/154
f 157/157 154/154 151/151
f 157/157 158/158 155/155
f 159/159 157/157 151/151
f 160/160 156/156 155/155
f 153/153 160/160 151/151
f 160/160 155/155 161/161
f 160/160 161/161 151/151
f 161/161 155/155 162/162
f 155/155 158/158 162/162
f 151/151 162/162 159/159
f 151/151 161/161 162/162
f 163/163 164/164 165/165
f 165/165 166/166 163/163
f 165/165 164/164 167/167
f 167/167 166/166 165/165
f 168/168 169/169 170/170
f 171/171 168/168 170/170
f 172/172 171/171 170/170
f 172/172 170/170 173/173
f 174/174 169/169 168/168
f 174/174 168/168 175/175
f 174/174 175/175 176/176
f 174/174 176/176 173/173
f 177/177 178/178 179/179
f 180/180 177/177 179/179
f 178/178 181/181 179/179
f 179/179 181/181 182/182
f 183/183 177/177 184/184
f 182/182 185/185 186/186
f 186/186 187/187 180/180
f 186/186 188/188 187/187
f 186/186 185/185 188/188
f 184/184 187/187 189/189
f 190/190 191/191 192/192
f 193/193 191/191 190/190
f 193/193 194/194 191/191
f 194/194 193/193 195/195
f 195/195 193/193 196/196
f 197/197 195/195 196/196
f 197/197 198/198 195/195
f 198/198 197/197 199/199
f 199/199 197/197 200/200
f 200/200 192/192 199/199
f 201/201 202/202 203/203
f 204/204 201/201 203/203
f 203/203 205/205 204/204
f 203/203 206/206 205/205
f 207/207 208/208 209/209
f 210/210 207/207 209/209
f 211/211 212/212 213/213
f 214/214 211/211 213/213
f 215/215 212/212 211/211
f 215/215 211/211 216/216
f 217/217 218/218 219/219
f 217/217 219/219 220/220
f 221/221 222/222 223/223
f 224/224 225/225 226/226
f 227/227 228/228 229/229
f 230/230 231/231 232/232
f 233/233 234/234 235/235
f 235/235 234/234 236/236
f 235/235 236/236 237/237
f 235/235 237/237 233/233
f 237/237 236/236 238/238
f 238/238 236/236 239/239
f 240/240 239/239 236/236
f 241/241 240/240 236/236
f 240/240 242/242 239/239
f 241/241 242/242 240/240
f 243/243 242/242 241/241
f 239/239 242/242 244/244
f 244/244 242/242 245/245
f 246/246 242/242 243/243
f 247/247 242/242 246/246
f 245/245 242/242 247/247
f 241/241 236/236 248/248
f 248/248 236/236 234/234
f 249/249 245/245 247/247
f 246/246 249/249 247/247
f 249/249 250/250 245/245
f 246/246 251/251 249/249
f 249/249 251/251 252/252
f 252/252 250/250 249/249
f 253/253 254/254 255/255
f 254/254 256/256 255/255
f 257/257 253/253 255/255
f 256/256 257/257 255/255
f 257/257 258/258 253/253
f 256/256 259/259 257/257
f 260/260 258/258 257/257
f 257/257 259/259 261/261
f 260/260 257/257 262/262
f 257/257 261/261 262/262
f 256/256 254/254 263/263
f 264/264 254/254 253/253
f 265/265 254/254 264/264
f 254/254 265/265 266/266
f 266/266 265/265 267/267
f 266/266 267/267 268/268
f 266/266 268/268 254/254
f 263/263 254/254 268/268
f 261/261 269/269 262/262
f 269/269 260/260 262/262
f 261/261 270/270 269/269
f 270/270 271/271 269/269
f 271/271 272/272 269/269
f 269/269 272/272 260/260
f 273/273 274/274 275/275
f 275/275 274/274 276/276
f 274/274 277/277 276/276
f 273/273 278/278 274/274
f 277/277 279/279 276/276
f 279/279 280/280 276/276
f 280/280 281/281 276/276
f 280/280 282/282 281/281
f 281/281 282/282 283/283
f 273/273 284/284 278/278
f 273/273 285/285 284/284
f 273/273 286/286 285/285
f 285/285 286/286 287/287
f 287/287 286/286 288/288
f 288/288 286/286 289/289
f 289/289 290/290 288/288
f 291/291 281/281 283/283
f 283/283 292/292 291/291
f 293/293 294/294 295/295
f 293/293 295/295 296/296
f 297/297 295/295 294/294
f 297/297 298/298 295/295
f 299/299 300/300 301/301
f 302/302 300/300 299/299
f 302/302 303/303 300/300
f 300/300 304/304 301/301
f 302/302 305/305 303/303
f 302/302 306/306 305/305
f 302/302 307/307 306/306
f 307/307 308/308 306/306
f 309/309 308/308 307/307
f 304/304 310/310 301/301
f 310/310 311/311 301/301
f 311/311 312/312 301/301
f 313/313 312/312 311/311
f 314/314 312/312 313/313
f 315/315 312/312 314/314
f 314/314 316/316 315/315
f 309/309 307/307 317/317
f 317/317 318/318 309/309
f 319/319 320/320 321/321
f 319/319 321/321 322/322
f 321/321 323/323 322/322
f 324/324 323/323 321/321
f 325/325 326/326 327/327
f 327/327 326/326 328/328
f 329/329 327/327 328/328
f 329/329 330/330 327/327
f 331/331 332/332 333/333
f 331/331 333/333 334/334
f 332/332 331/331 335/335
f 335/335 331/331 336/336
f 337/337 338/338 339/339
f 339/339 338/338 340/340
f 341/341 337/337 339/339
f 342/342 337/337 341/341
f 343/343 342/342 341/341
f 344/344 342/342 343/343
f 338/338 345/345 340/340
f 340/340 345/345 346/346
f 347/347 348/348 349/349
f 349/349 348/348 350/350
f 350/350 351/351 349/349
f 349/349 351/351 352/352
f 353/353 354/354 355/355
f 356/356 354/354 353/353
f 356/356 357/357 354/354
f 358/358 357/357 356/356
f 358/358 359/359 357/357
f 360/360 359/359 358/358
f 360/360 361/361 359/359
f 362/362 361/361 360/360
f 363/363 364/364 365/365
f 364/364 366/366 365/365
f 364/364 367/367 366/366
f 367/367 368/368 366/366
f 367/367 369/369 368/368
f 370/370 369/369 367/367
f 371/371 369/369 370/370
f 372/372 369/369 371/371
f 373/373 372/372 371/371
f 373/373 371/371 374/374
f 375/375 376/376 377/377
f 375/375 378/378 376/376
f 378/378 379/379 376/376
f 378/378 380/380 379/379
f 380/380 381/381 379/379
f 379/379 381/381 382/382
f 382/382 381/381 383/383
f 383/383 381/381 384/384
f 383/383 384/384 385/385
f 386/386 383/383 385/385
f 387/387 388/388 389/389
f 390/390 391/391 389/389
f 392/392 393/393 389/389
f 394/394 395/395 389/389
f 396/396 397/397 389/389
f 398/398 399/399 389/389
f 400/400 401/401 389/389
f 402/402 403/403 389/389
f 404/404 405/405 406/406
f 407/407 408/408 406/406
f 409/409 410/410 406/406
f 411/411 412/412 406/406
f 413/413 414/414 406/406
f 415/415 416/416 406/406
f 417/417 418/418 406/406
f 419/419 420/420 406/406
f 421/421 422/422 423/423
f 421/421 423/423 424/424
f 422/422 425/425 423/423
f 426/426 425/425 422/422
f 425/425 426/426 427/427
f 428/428 425/425 427/427
f 423/423 429/429 422/422
f 422/422 429/429 430/430
f 431/431 430/430 429/429
f 431/431 429/429 432/432
f 433/433 434/434 435/435
f 435/435 434/434 436/436
f 433/433 437/437 434/434
f 438/438 437/437 433/433
f 434/434 439/439 433/433
f 433/433 439/439 440/440
f 441/441 438/438 442/442
f 443/443 441/441 442/442
f 444/444 440/440 445/445
f 444/444 445/445 446/446
f 447/447 448/448 449/449
f 450/450 447/447 449/449
f 450/450 451/451 447/447
f 452/452 451/451 450/450
f 451/451 452/452 453/453
f 454/454 451/451 453/453
f 447/447 455/455 450/450
f 450/450 455/455 456/456
f 457/457 456/456 455/455
f 457/457 455/455 458/458
f 459/459 460/460 461/461
f 462/462 459/459 461/461
f 462/462 463/463 459/459
f 464/464 463/463 462/462
f 463/463 464/464 465/465
f 466/466 463/463 465/465
f 465/465 464/464 467/467
f 462/462 467/467 464/464
f 468/468 467/467 462/462
f 469/469 468/468 462/462
f 469/469 470/470 468/468
f 465/465 467/467 471/471
f 459/459 472/472 462/462
f 462/462 472/472 473/473
f 474/474 473/473 472/472
f 474/474 472/472 475/475
f 476/476 473/473 474/474
f 462/462 476/476 468/468
f 473/473 476/476 462/462
f 477/477 476/476 474/474
f 478/478 479/479 480/480
f 478/478 480/480 481/481
f 481/481 480/480 482/482
f 483/483 479/479 478/478
f 484/484 483/483 478/478
f 485/485 483/483 484/484
f 486/486 487/487 488/488
f 489/489 486/486 488/488
f 486/486 490/490 487/487
f 487/487 490/490 491/491
f 492/492 491/491 490/490
f 492/492 490/490 493/493
f 487/487 494/494 486/486
f 495/495 494/494 487/487
f 494/494 495/495 496/496
f 497/497 494/494 496/496
f 498/498 499/499 500/500
f 501/501 499/499 498/498
f 499/499 502/502 500/500
f 500/500 502/502 503/503
f 500/500 504/504 499/499
f 505/505 504/504 500/500
f 506/506 503/503 507/507
f 506/506 507/507 508/508
f 509/509 505/505 510/510
f 511/511 509/509 510/510
f 512/512 513/513 514/514
f 512/512 514/514 515/515
f 514/514 516/516 515/515
f 515/515 516/516 517/517
f 518/518 517/517 516/516
f 518/518 516/516 519/519
f 515/515 520/520 514/514
f 521/521 520/520 515/515
f 520/520 521/521 522/522
f 523/523 520/520 522/522
f 524/524 525/525 526/526
f 527/527 524/524 526/526
f 528/528 524/524 527/527
f 526/526 525/525 529/529
f 526/526 529/529 530/530
f 530/530 529/529 531/531
f 532/532 533/533 534/534
f 532/532 535/535 533/533
f 532/532 534/534 536/536
f 532/532 536/536 537/537
f 534/534 533/533 538/538
f 533/533 539/539 538/538
f 538/538 539/539 540/540
f 540/540 539/539 541/541
f 538/538 540/540 542/542
f 543/543 542/542 540/540
f 539/539 544/544 541/541
f 544/544 545/545 541/541
f 541/541 545/545 546/546
f 544/544 547/547 545/545
f 546/546 545/545 548/548
f 548/548 545/545 549/549
f 550/550 535/535 532/532
f 551/551 550/550 532/532
f 552/552 551/551 532/532
f 553/553 552/552 532/532
f 554/554 550/550 551/551
f 554/554 555/555 550/550
f 556/556 555/555 554/554
f 557/557 555/555 556/556
f 558/558 556/556 554/554
f 556/556 558/558 559/559
f 557/557 560/560 555/555
f 557/557 561/561 560/560
f 562/562 561/561 557/557
f 561/561 563/563 560/560
f 564/564 561/561 562/562
f 565/565 561/561 564/564
f 566/566 567/567 568/568
f 567/567 569/569 568/568
f 570/570 566/566 568/568
f 571/571 570/570 568/568
f 572/572 567/567 566/566
f 572/572 573/573 567/567
f 574/574 573/573 572/572
f 575/575 573/573 574/574
f 576/576 574/574 572/572
f 574/574 576/576 577/577
f 575/575 578/578 573/573
f 575/575 579/579 578/578
f 580/580 579/579 575/575
f 579/579 581/581 578/578
f 582/582 579/579 580/580
f 583/583 579/579 582/582
f 568/568 569/569 584/584
f 568/568 584/584 585/585
f 568/568 585/585 586/586
f 568/568 586/586 587/587
f 585/585 584/584 588/588
f 584/584 589/589 588/588
f 588/588 589/589 590/590
f 590/590 589/589 591/591
f 588/588 590/590 592/592
f 593/593 592/592 590/590
f 589/589 594/594 591/591
f 594/594 595/595 591/591
f 591/591 595/595 596/596
f 594/594 597/597 595/595
f 596/596 595/595 598/598
f 598/598 595/595 599/599
f 600/600 601/601 602/602
f 603/603 602/602 604/604
f 605/605 606/606 607/607
f 608/608 607/607 609/609
f 610/610 611/611 612/612
f 611/611 613/613 614/614
f 615/615 616/616 617/617
f 618/618 615/615 619/619
f 620/620 621/621 622/622
f 623/623 620/620 624/624
f 625/625 626/626 627/627
f 628/628 629/629 626/626
f 630/630 631/631 632/632
f 632/632 631/631 633/633
f 631/631 634/634 633/633
f 631/631 635/635 634/634
f 636/636 637/637 638/638
f 639/639 637/637 636/636
f 639/639 640/640 637/637
f 640/640 641/641 637/637
f 642/642 643/643 644/644
f 645/645 643/643 642/642
f 645/645 646/646 643/643
f 646/646 647/647 643/643
f 648/648 649/649 650/650
f 650/650 649/649 651/651
f 649/649 652/652 651/651
f 649/649 653/653 652/652
f 654/654 655/655 656/656
f 656/656 657/657 658/658
f 656/656 659/659 660/660
f 661/661 662/662 656/656
