mtllib arms6050.mtl
o arms6050
v -0.92502 -1.12950 2.49822 0.796 0.000 0.000
v -0.99450 -1.42380 2.42280 0.769 0.000 0.000
v -0.92502 -1.42380 2.44044 0.761 0.000 0.000
v -1.02150 -1.12950 2.47230 0.808 0.000 0.000
v -1.04274 -1.42380 2.37456 0.788 0.000 0.000
v -1.08972 -1.12950 2.40408 0.843 0.000 0.000
v -0.85554 -1.42380 2.42280 0.769 0.000 0.000
v -0.82854 -1.12950 2.47230 0.808 0.000 0.000
v -0.80730 -1.42380 2.37456 0.788 0.000 0.000
v -0.76032 -1.12950 2.40408 0.839 0.000 0.000
v -1.13094 -0.89424 2.42172 0.886 0.000 0.000
v -0.95436 -1.92402 2.33334 0.698 0.000 0.000
v -1.04274 -0.89424 2.50992 0.839 0.000 0.000
v -0.96624 -1.92402 2.30400 0.706 0.000 0.000
v -1.16046 -0.89424 2.30400 0.953 0.000 0.000
v -0.92502 -1.92402 2.34522 0.694 0.000 0.000
v -0.92502 -0.89424 2.53944 0.827 0.000 0.000
v -1.13094 -0.89424 2.18628 1.000 0.000 0.000
v -0.95436 -1.92402 2.27466 0.714 0.000 0.000
v -1.04274 -0.89424 2.09808 1.000 0.000 0.000
v -0.92502 -1.92402 2.26278 0.718 0.000 0.000
v -0.92502 -0.89424 2.06856 1.000 0.000 0.000
v -0.92502 -1.94760 2.32758 0.698 0.000 0.000
v -0.94860 -1.94760 2.30400 0.702 0.000 0.000
v -0.92502 -1.95336 2.30400 0.702 0.000 0.000
v -0.92502 -1.94760 2.28042 0.710 0.000 0.000
v -0.80730 -0.89424 2.50992 0.839 0.000 0.000
v -0.89568 -1.92402 2.33334 0.698 0.000 0.000
v -0.71910 -0.89424 2.42172 0.886 0.000 0.000
v -0.88380 -1.92402 2.30400 0.706 0.000 0.000
v -0.68958 -0.89424 2.30400 0.953 0.000 0.000
v -0.80730 -0.89424 2.09808 1.000 0.000 0.000
v -0.89568 -1.92402 2.27466 0.714 0.000 0.000
v -0.71910 -0.89424 2.18628 1.000 0.000 0.000
v -0.90144 -1.94760 2.30400 0.702 0.000 0.000
v -1.05444 -0.83538 2.53350 0.898 0.000 0.000
v -1.15452 -0.89424 2.43936 0.839 0.000 0.000
v -1.05444 -0.89424 2.53350 0.804 0.000 0.000
v -1.15452 -0.83538 2.43936 0.937 0.000 0.000
v -0.92502 -0.83538 2.56878 0.863 0.000 0.000
v -0.92502 -0.89424 2.56878 0.792 0.000 0.000
v -1.18980 -0.89424 2.30400 0.890 0.000 0.000
v -1.18980 -0.83538 2.30400 0.973 0.000 0.000
v -0.78966 -0.89424 2.53350 0.804 0.000 0.000
v -0.78966 -0.83538 2.53350 0.898 0.000 0.000
v -0.69552 -0.89424 2.43936 0.839 0.000 0.000
v -0.69552 -0.83538 2.43936 0.937 0.000 0.000
v -0.66024 -0.89424 2.30400 0.890 0.000 0.000
v -0.66024 -0.83538 2.30400 0.973 0.000 0.000
v -1.15452 -0.89424 2.17458 0.945 0.000 0.000
v -1.15452 -0.83538 2.17458 1.000 0.000 0.000
v -1.05444 -0.89424 2.07450 0.855 0.000 0.000
v -1.05444 -0.83538 2.07450 0.973 0.000 0.000
v -0.92502 -0.89424 2.03922 0.835 0.000 0.000
v -0.92502 -0.83538 2.03922 0.933 0.000 0.000
v -0.69552 -0.89424 2.17458 0.945 0.000 0.000
v -0.69552 -0.83538 2.17458 1.000 0.000 0.000
v -0.78966 -0.89424 2.07450 0.886 0.000 0.000
v -0.78966 -0.83538 2.07450 0.973 0.000 0.000
v -0.80730 -0.89424 2.50992 0.847 0.000 0.000
v -0.69552 -0.89424 2.43936 0.839 0.000 0.000
v -0.78966 -0.89424 2.53350 0.804 0.000 0.000
v -0.71910 -0.89424 2.42172 0.867 0.000 0.000
v -0.66024 -0.89424 2.30400 0.890 0.000 0.000
v -0.68958 -0.89424 2.30400 0.890 0.000 0.000
v -0.92502 -0.89424 2.56878 0.792 0.000 0.000
v -0.92502 -0.89424 2.53944 0.843 0.000 0.000
v -1.05444 -0.89424 2.53350 0.804 0.000 0.000
v -1.04274 -0.89424 2.50992 0.847 0.000 0.000
v -1.15452 -0.89424 2.43936 0.839 0.000 0.000
v -1.13094 -0.89424 2.42172 0.867 0.000 0.000
v -1.18980 -0.89424 2.30400 0.890 0.000 0.000
v -1.16046 -0.89424 2.30400 0.890 0.000 0.000
v -1.15452 -0.89424 2.17458 0.945 0.000 0.000
v -1.13094 -0.89424 2.18628 0.918 0.000 0.000
v -1.05444 -0.89424 2.07450 0.855 0.000 0.000
v -1.04274 -0.89424 2.09808 0.875 0.000 0.000
v -0.92502 -0.89424 2.06856 0.867 0.000 0.000
v -0.92502 -0.89424 2.03922 0.835 0.000 0.000
v -0.80730 -0.89424 2.09808 0.890 0.000 0.000
v -0.78966 -0.89424 2.07450 0.886 0.000 0.000
v -0.71910 -0.89424 2.18628 0.918 0.000 0.000
v -0.69552 -0.89424 2.17458 0.945 0.000 0.000
v -1.18980 -0.77652 2.62764 0.894 0.000 0.000
v -1.24866 -0.77652 2.56878 0.894 0.000 0.000
v -1.21932 -0.83538 2.59830 0.753 0.000 0.000
v -1.21932 -0.83538 2.00970 0.847 0.000 0.000
v -1.24866 -0.77652 2.03922 0.925 0.000 0.000
v -0.63072 -0.83538 2.59830 0.753 0.000 0.000
v -0.60138 -0.77652 2.56878 0.894 0.000 0.000
v -0.66024 -0.77652 2.62764 0.894 0.000 0.000
v -1.21932 -0.83538 2.59830 0.753 0.000 0.000
v -1.18980 -0.77652 2.62764 0.894 0.000 0.000
v -1.21932 -0.83538 2.00970 0.847 0.000 0.000
v -0.66024 -0.77652 1.98036 0.925 0.000 0.000
v -0.63072 -0.83538 2.00970 0.831 0.000 0.000
v -1.18980 -0.77652 1.98036 0.925 0.000 0.000
v -1.24866 -0.77652 2.03922 0.925 0.000 0.000
v -0.63072 -0.83538 2.59830 0.753 0.000 0.000
v -0.63072 -0.83538 2.00970 0.831 0.000 0.000
v -0.60138 -0.77652 2.56878 0.894 0.000 0.000
v -0.60138 -0.77652 2.03922 1.000 0.000 0.000
v -0.66024 -0.77652 1.98036 0.925 0.000 0.000
v -1.01088 -0.77670 2.51046 0.922 0.000 0.000
v -0.92502 -1.67166 2.30400 0.949 0.000 0.000
v -1.13148 -0.77670 2.38986 0.922 0.000 0.000
v -1.24866 -0.77652 2.56878 0.894 0.000 0.000
v -1.18980 -0.77652 2.62764 0.894 0.000 0.000
v -1.13148 -0.77670 2.21814 0.937 0.000 0.000
v -1.24866 -0.77652 2.03922 0.925 0.000 0.000
v -0.83916 -0.77670 2.51046 0.922 0.000 0.000
v -0.66024 -0.77652 2.62764 0.894 0.000 0.000
v -0.71856 -0.77670 2.38986 0.922 0.000 0.000
v -0.60138 -0.77652 2.56878 0.894 0.000 0.000
v -0.71856 -0.77670 2.21814 0.976 0.000 0.000
v -0.83916 -0.77670 2.09754 0.937 0.000 0.000
v -0.66024 -0.77652 1.98036 0.925 0.000 0.000
v -0.60138 -0.77652 2.03922 1.000 0.000 0.000
v -1.18980 -0.77652 1.98036 0.925 0.000 0.000
v -1.01088 -0.77670 2.09754 0.937 0.000 0.000
v -0.69732 -0.83538 2.30400 0.871 0.000 0.000
v -0.63072 -0.83538 2.00970 0.831 0.000 0.000
v -0.63072 -0.83538 2.59830 0.753 0.000 0.000
v -0.75510 -0.83538 2.13408 0.890 0.000 0.000
v -0.92502 -0.83538 2.07630 0.894 0.000 0.000
v -1.21932 -0.83538 2.00970 0.847 0.000 0.000
v -1.09494 -0.83538 2.13408 0.898 0.000 0.000
v -1.15272 -0.83538 2.30400 0.875 0.000 0.000
v -0.75510 -0.83538 2.47392 0.851 0.000 0.000
v -0.92502 -0.83538 2.53170 0.851 0.000 0.000
v -1.21932 -0.83538 2.59830 0.753 0.000 0.000
v -1.09494 -0.83538 2.47392 0.851 0.000 0.000
v -0.69732 -0.83538 2.30400 0.871 0.000 0.000
v -0.92502 -1.67166 2.30400 0.949 0.000 0.000
v -0.92502 -0.83538 2.53170 0.851 0.000 0.000
v -0.92502 -0.83538 2.07630 0.894 0.000 0.000
v -1.15272 -0.83538 2.30400 0.875 0.000 0.000
v -0.92502 1.42380 2.44044 0.761 0.000 0.000
v -0.99450 1.42380 2.42280 0.769 0.000 0.000
v -0.92502 1.12950 2.49822 0.796 0.000 0.000
v -1.02150 1.12950 2.47230 0.808 0.000 0.000
v -1.04274 1.42380 2.37456 0.788 0.000 0.000
v -1.08972 1.12950 2.40408 0.843 0.000 0.000
v -0.85554 1.42380 2.42280 0.769 0.000 0.000
v -0.82854 1.12950 2.47230 0.808 0.000 0.000
v -0.80730 1.42380 2.37456 0.788 0.000 0.000
v -0.76032 1.12950 2.40408 0.839 0.000 0.000
v -1.04274 0.89424 2.50992 0.839 0.000 0.000
v -0.95436 1.92402 2.33334 0.698 0.000 0.000
v -1.13094 0.89424 2.42172 0.886 0.000 0.000
v -0.96624 1.92402 2.30400 0.706 0.000 0.000
v -1.16046 0.89424 2.30400 0.953 0.000 0.000
v -0.92502 1.92402 2.34522 0.694 0.000 0.000
v -0.92502 0.89424 2.53944 0.827 0.000 0.000
v -1.13094 0.89424 2.18628 1.000 0.000 0.000
v -0.95436 1.92402 2.27466 0.714 0.000 0.000
v -1.04274 0.89424 2.09808 1.000 0.000 0.000
v -0.92502 1.92402 2.26278 0.718 0.000 0.000
v -0.92502 0.89424 2.06856 1.000 0.000 0.000
v -0.92502 1.94760 2.32758 0.698 0.000 0.000
v -0.94860 1.94760 2.30400 0.702 0.000 0.000
v -0.92502 1.95336 2.30400 0.702 0.000 0.000
v -0.92502 1.94760 2.28042 0.710 0.000 0.000
v -0.80730 0.89424 2.50992 0.839 0.000 0.000
v -0.89568 1.92402 2.33334 0.698 0.000 0.000
v -0.71910 0.89424 2.42172 0.886 0.000 0.000
v -0.88380 1.92402 2.30400 0.706 0.000 0.000
v -0.68958 0.89424 2.30400 0.953 0.000 0.000
v -0.80730 0.89424 2.09808 1.000 0.000 0.000
v -0.89568 1.92402 2.27466 0.714 0.000 0.000
v -0.71910 0.89424 2.18628 1.000 0.000 0.000
v -0.90144 1.94760 2.30400 0.702 0.000 0.000
v -1.05444 0.89424 2.53350 0.804 0.000 0.000
v -1.15452 0.89424 2.43936 0.839 0.000 0.000
v -1.05444 0.83538 2.53350 0.898 0.000 0.000
v -1.15452 0.83538 2.43936 0.937 0.000 0.000
v -0.92502 0.83538 2.56878 0.863 0.000 0.000
v -0.92502 0.89424 2.56878 0.792 0.000 0.000
v -1.18980 0.89424 2.30400 0.890 0.000 0.000
v -1.18980 0.83538 2.30400 0.973 0.000 0.000
v -0.78966 0.89424 2.53350 0.804 0.000 0.000
v -0.78966 0.83538 2.53350 0.898 0.000 0.000
v -0.69552 0.89424 2.43936 0.839 0.000 0.000
v -0.69552 0.83538 2.43936 0.937 0.000 0.000
v -0.66024 0.89424 2.30400 0.890 0.000 0.000
v -0.66024 0.83538 2.30400 0.973 0.000 0.000
v -1.15452 0.89424 2.17458 0.945 0.000 0.000
v -1.15452 0.83538 2.17458 1.000 0.000 0.000
v -1.05444 0.89424 2.07450 0.855 0.000 0.000
v -1.05444 0.83538 2.07450 0.973 0.000 0.000
v -0.92502 0.89424 2.03922 0.835 0.000 0.000
v -0.92502 0.83538 2.03922 0.933 0.000 0.000
v -0.69552 0.89424 2.17458 0.945 0.000 0.000
v -0.69552 0.83538 2.17458 1.000 0.000 0.000
v -0.78966 0.89424 2.07450 0.886 0.000 0.000
v -0.78966 0.83538 2.07450 0.973 0.000 0.000
v -0.78966 0.89424 2.53350 0.804 0.000 0.000
v -0.69552 0.89424 2.43936 0.839 0.000 0.000
v -0.80730 0.89424 2.50992 0.847 0.000 0.000
v -0.71910 0.89424 2.42172 0.867 0.000 0.000
v -0.66024 0.89424 2.30400 0.890 0.000 0.000
v -0.68958 0.89424 2.30400 0.890 0.000 0.000
v -0.92502 0.89424 2.56878 0.792 0.000 0.000
v -0.92502 0.89424 2.53944 0.843 0.000 0.000
v -1.05444 0.89424 2.53350 0.804 0.000 0.000
v -1.04274 0.89424 2.50992 0.847 0.000 0.000
v -1.15452 0.89424 2.43936 0.839 0.000 0.000
v -1.13094 0.89424 2.42172 0.867 0.000 0.000
v -1.18980 0.89424 2.30400 0.890 0.000 0.000
v -1.16046 0.89424 2.30400 0.890 0.000 0.000
v -1.15452 0.89424 2.17458 0.945 0.000 0.000
v -1.13094 0.89424 2.18628 0.918 0.000 0.000
v -1.05444 0.89424 2.07450 0.855 0.000 0.000
v -1.04274 0.89424 2.09808 0.875 0.000 0.000
v -0.92502 0.89424 2.06856 0.867 0.000 0.000
v -0.92502 0.89424 2.03922 0.835 0.000 0.000
v -0.80730 0.89424 2.09808 0.890 0.000 0.000
v -0.78966 0.89424 2.07450 0.886 0.000 0.000
v -0.71910 0.89424 2.18628 0.918 0.000 0.000
v -0.69552 0.89424 2.17458 0.945 0.000 0.000
v -1.21932 0.83538 2.59830 0.753 0.000 0.000
v -1.24866 0.77652 2.56878 0.894 0.000 0.000
v -1.18980 0.77652 2.62764 0.894 0.000 0.000
v -1.21932 0.83538 2.00970 0.847 0.000 0.000
v -1.24866 0.77652 2.03922 0.925 0.000 0.000
v -0.66024 0.77652 2.62764 0.894 0.000 0.000
v -0.60138 0.77652 2.56878 0.894 0.000 0.000
v -0.63072 0.83538 2.59830 0.753 0.000 0.000
v -1.21932 0.83538 2.59830 0.753 0.000 0.000
v -1.18980 0.77652 2.62764 0.894 0.000 0.000
v -0.63072 0.83538 2.00970 0.831 0.000 0.000
v -0.66024 0.77652 1.98036 0.925 0.000 0.000
v -1.21932 0.83538 2.00970 0.847 0.000 0.000
v -1.18980 0.77652 1.98036 0.925 0.000 0.000
v -1.24866 0.77652 2.03922 0.925 0.000 0.000
v -0.60138 0.77652 2.56878 0.894 0.000 0.000
v -0.63072 0.83538 2.00970 0.831 0.000 0.000
v -0.63072 0.83538 2.59830 0.753 0.000 0.000
v -0.60138 0.77652 2.03922 1.000 0.000 0.000
v -0.66024 0.77652 1.98036 0.925 0.000 0.000
v -1.13148 0.77670 2.38986 0.922 0.000 0.000
v -0.92502 1.67166 2.30400 0.949 0.000 0.000
v -1.01088 0.77670 2.51046 0.922 0.000 0.000
v -1.24866 0.77652 2.56878 0.894 0.000 0.000
v -1.18980 0.77652 2.62764 0.894 0.000 0.000
v -1.13148 0.77670 2.21814 0.937 0.000 0.000
v -1.24866 0.77652 2.03922 0.925 0.000 0.000
v -0.83916 0.77670 2.51046 0.922 0.000 0.000
v -0.66024 0.77652 2.62764 0.894 0.000 0.000
v -0.71856 0.77670 2.38986 0.922 0.000 0.000
v -0.60138 0.77652 2.56878 0.894 0.000 0.000
v -0.71856 0.77670 2.21814 0.976 0.000 0.000
v -0.83916 0.77670 2.09754 0.937 0.000 0.000
v -0.66024 0.77652 1.98036 0.925 0.000 0.000
v -0.60138 0.77652 2.03922 1.000 0.000 0.000
v -1.18980 0.77652 1.98036 0.925 0.000 0.000
v -1.01088 0.77670 2.09754 0.937 0.000 0.000
v -0.63072 0.83538 2.59830 0.753 0.000 0.000
v -0.63072 0.83538 2.00970 0.831 0.000 0.000
v -0.69732 0.83538 2.30400 0.871 0.000 0.000
v -0.75510 0.83538 2.13408 0.890 0.000 0.000
v -0.92502 0.83538 2.07630 0.894 0.000 0.000
v -1.21932 0.83538 2.00970 0.847 0.000 0.000
v -1.09494 0.83538 2.13408 0.898 0.000 0.000
v -1.15272 0.83538 2.30400 0.875 0.000 0.000
v -0.75510 0.83538 2.47392 0.851 0.000 0.000
v -0.92502 0.83538 2.53170 0.851 0.000 0.000
v -1.21932 0.83538 2.59830 0.753 0.000 0.000
v -1.09494 0.83538 2.47392 0.851 0.000 0.000
v -0.92502 1.67166 2.30400 0.949 0.000 0.000
v -0.69732 0.83538 2.30400 0.871 0.000 0.000
v -0.92502 0.83538 2.53170 0.851 0.000 0.000
v -0.92502 0.83538 2.07630 0.894 0.000 0.000
v -1.15272 0.83538 2.30400 0.875 0.000 0.000
vt 0.97719 0.02356
vt 0.14906 0.22669
vt 0.14906 0.02356
vt 0.97719 0.30481
vt 0.14906 0.44544
vt 0.97719 0.57044
vt 0.14906 0.22669
vt 0.97719 0.30481
vt 0.14906 0.44544
vt 0.97719 0.57044
vt 0.00844 0.43559
vt 0.00844 0.98247
vt 0.00844 0.54497
vt 0.00844 0.95122
vt 0.00844 0.29497
vt 0.00844 0.99809
vt 0.00844 0.57622
vt 0.00844 0.14653
vt 0.00844 0.91216
vt 0.00844 0.04497
vt 0.00844 0.89653
vt 0.00844 0.00591
vt 0.00844 0.99028
vt 0.00844 0.96684
vt 0.00844 0.96684
vt 0.00844 0.93559
vt 0.00844 0.54497
vt 0.00844 0.98247
vt 0.00844 0.43559
vt 0.00844 0.95122
vt 0.00844 0.29497
vt 0.00844 0.04497
vt 0.00844 0.91216
vt 0.00844 0.14653
vt 0.00844 0.96684
vt 0.00844 0.41216
vt 0.00844 0.32622
vt 0.00844 0.41216
vt 0.00844 0.32622
vt 0.00844 0.49056
vt 0.00844 0.49028
vt 0.00844 0.24809
vt 0.00844 0.24809
vt 0.00844 0.41216
vt 0.00844 0.41216
vt 0.00844 0.32622
vt 0.00844 0.32622
vt 0.00844 0.24809
vt 0.00844 0.24809
vt 0.00844 0.16216
vt 0.00844 0.16216
vt 0.00844 0.24809
vt 0.00844 0.24809
vt 0.00844 0.33403
vt 0.00844 0.33403
vt 0.00844 0.16216
vt 0.00844 0.16216
vt 0.00844 0.24809
vt 0.00844 0.24809
vt 0.00844 0.52934
vt 0.00844 0.54497
vt 0.00844 0.63091
vt 0.00844 0.48638
vt 0.00844 0.42778
vt 0.00844 0.42778
vt 0.00844 0.66216
vt 0.00844 0.54497
vt 0.00844 0.63091
vt 0.00844 0.52934
vt 0.00844 0.54497
vt 0.00844 0.48638
vt 0.00844 0.42778
vt 0.00844 0.42778
vt 0.00844 0.31059
vt 0.00844 0.36919
vt 0.00844 0.22466
vt 0.00844 0.32622
vt 0.00844 0.31059
vt 0.00844 0.19341
vt 0.00844 0.32622
vt 0.00844 0.22466
vt 0.00844 0.36919
vt 0.00844 0.31059
vt 0.02406 0.97956
vt 0.02406 0.88581
vt 0.13344 0.93269
vt 0.13344 0.02644
vt 0.02406 0.07331
vt 0.13344 0.93269
vt 0.02406 0.97956
vt 0.02406 0.88581
vt 0.13344 0.02644
vt 0.02406 0.07331
vt 0.13344 0.93269
vt 0.02406 0.07331
vt 0.13344 0.02644
vt 0.02406 0.88581
vt 0.02406 0.97956
vt 0.13344 0.02644
vt 0.13344 0.93269
vt 0.02406 0.07331
vt 0.02406 0.88581
vt 0.02406 0.97956
vt 0.50063 0.00781
vt 0.02406 0.00781
vt 0.50063 0.00781
vt 0.97719 0.00781
vt 0.97719 0.00781
vt 0.50063 0.00781
vt 0.97719 0.00781
vt 0.50063 0.00781
vt 0.97719 0.00781
vt 0.50063 0.00781
vt 0.97719 0.00781
vt 0.50063 0.00781
vt 0.50063 0.00781
vt 0.97719 0.00781
vt 0.97719 0.00781
vt 0.97719 0.00781
vt 0.50063 0.00781
vt 0.46116 0.75094
vt 0.77366 0.82119
vt 0.14866 0.82119
vt 0.61741 0.66494
vt 0.46116 0.75094
vt 0.14866 0.82119
vt 0.30491 0.66494
vt 0.46116 0.75094
vt 0.30491 0.66494
vt 0.46116 0.75094
vt 0.77366 0.82119
vt 0.61741 0.66494
vt 0.46116 0.66494
vt 0.46116 0.50869
vt 0.46116 0.66494
vt 0.46116 0.66494
vt 0.46116 0.66494
vt 0.14906 0.02356
vt 0.14906 0.22669
vt 0.97719 0.02356
vt 0.97719 0.30481
vt 0.14906 0.44544
vt 0.97719 0.57044
vt 0.14906 0.22669
vt 0.97719 0.30481
vt 0.14906 0.44544
vt 0.97719 0.57044
vt 0.00844 0.54497
vt 0.00844 0.98247
vt 0.00844 0.43559
vt 0.00844 0.95122
vt 0.00844 0.29497
vt 0.00844 0.99809
vt 0.00844 0.57622
vt 0.00844 0.14653
vt 0.00844 0.91216
vt 0.00844 0.04497
vt 0.00844 0.89653
vt 0.00844 0.00591
vt 0.00844 0.99028
vt 0.00844 0.96684
vt 0.00844 0.96684
vt 0.00844 0.93559
vt 0.00844 0.54497
vt 0.00844 0.98247
vt 0.00844 0.43559
vt 0.00844 0.95122
vt 0.00844 0.29497
vt 0.00844 0.04497
vt 0.00844 0.91216
vt 0.00844 0.14653
vt 0.00844 0.96684
vt 0.00844 0.41216
vt 0.00844 0.32622
vt 0.00844 0.41216
vt 0.00844 0.32622
vt 0.00844 0.49056
vt 0.00844 0.49028
vt 0.00844 0.24809
vt 0.00844 0.24809
vt 0.00844 0.41216
vt 0.00844 0.41216
vt 0.00844 0.32622
vt 0.00844 0.32622
vt 0.00844 0.24809
vt 0.00844 0.24809
vt 0.00844 0.16216
vt 0.00844 0.16216
vt 0.00844 0.24809
vt 0.00844 0.24809
vt 0.00844 0.33403
vt 0.00844 0.33403
vt 0.00844 0.16216
vt 0.00844 0.16216
vt 0.00844 0.24809
vt 0.00844 0.24809
vt 0.00844 0.63091
vt 0.00844 0.54497
vt 0.00844 0.52934
vt 0.00844 0.48638
vt 0.00844 0.42778
vt 0.00844 0.42778
vt 0.00844 0.66216
vt 0.00844 0.54497
vt 0.00844 0.63091
vt 0.00844 0.52934
vt 0.00844 0.54497
vt 0.00844 0.48638
vt 0.00844 0.42778
vt 0.00844 0.42778
vt 0.00844 0.31059
vt 0.00844 0.36919
vt 0.00844 0.22466
vt 0.00844 0.32622
vt 0.00844 0.31059
vt 0.00844 0.19341
vt 0.00844 0.32622
vt 0.00844 0.22466
vt 0.00844 0.36919
vt 0.00844 0.31059
vt 0.13344 0.93269
vt 0.02406 0.88581
vt 0.02406 0.97956
vt 0.13344 0.02644
vt 0.02406 0.07331
vt 0.02406 0.88581
vt 0.02406 0.97956
vt 0.13344 0.93269
vt 0.13344 0.02644
vt 0.02406 0.07331
vt 0.13344 0.02644
vt 0.02406 0.07331
vt 0.13344 0.93269
vt 0.02406 0.88581
vt 0.02406 0.97956
vt 0.02406 0.07331
vt 0.13344 0.93269
vt 0.13344 0.02644
vt 0.02406 0.88581
vt 0.02406 0.97956
vt 0.50063 0.00781
vt 0.02406 0.00781
vt 0.50063 0.00781
vt 0.97719 0.00781
vt 0.97719 0.00781
vt 0.50063 0.00781
vt 0.97719 0.00781
vt 0.50063 0.00781
vt 0.97719 0.00781
vt 0.50063 0.00781
vt 0.97719 0.00781
vt 0.50063 0.00781
vt 0.50063 0.00781
vt 0.97719 0.00781
vt 0.97719 0.00781
vt 0.97719 0.00781
vt 0.50063 0.00781
vt 0.14866 0.82119
vt 0.77366 0.82119
vt 0.46116 0.75094
vt 0.61741 0.66494
vt 0.46116 0.75094
vt 0.14866 0.82119
vt 0.30491 0.66494
vt 0.46116 0.75094
vt 0.30491 0.66494
vt 0.46116 0.75094
vt 0.77366 0.82119
vt 0.61741 0.66494
vt 0.46116 0.50869
vt 0.46116 0.66494
vt 0.46116 0.66494
vt 0.46116 0.66494
vt 0.46116 0.66494
usemtl m0
f 1/1 2/2 3/3
f 4/4 2/2 1/1
f 4/4 5/5 2/2
f 6/6 5/5 4/4
f 3/3 7/7 1/1
f 1/1 7/7 8/8
f 7/7 9/9 8/8
f 8/8 9/9 10/10
f 11/11 12/12 13/13
f 11/11 14/14 12/12
f 15/15 14/14 11/11
f 13/13 12/12 16/16
f 13/13 16/16 17/17
f 15/15 18/18 14/14
f 14/14 18/18 19/19
f 18/18 20/20 19/19
f 19/19 20/20 21/21
f 20/20 22/22 21/21
f 12/12 23/23 16/16
f 14/14 24/24 12/12
f 12/12 24/24 23/23
f 14/14 19/19 24/24
f 23/23 24/24 25/25
f 24/24 19/19 26/26
f 19/19 21/21 26/26
f 24/24 26/26 25/25
f 17/17 16/16 27/27
f 16/16 28/28 27/27
f 16/16 23/23 28/28
f 27/27 28/28 29/29
f 28/28 30/30 29/29
f 29/29 30/30 31/31
f 21/21 22/22 32/32
f 21/21 32/32 33/33
f 26/26 21/21 33/33
f 33/33 34/34 30/30
f 33/33 32/32 34/34
f 30/30 34/34 31/31
f 23/23 25/25 35/35
f 35/35 30/30 28/28
f 23/23 35/35 28/28
f 26/26 33/33 35/35
f 25/25 26/26 35/35
f 35/35 33/33 30/30
f 36/36 37/37 38/38
f 39/39 37/37 36/36
f 40/40 36/36 38/38
f 40/40 38/38 41/41
f 39/39 42/42 37/37
f 39/39 43/43 42/42
f 41/41 44/44 40/40
f 40/40 44/44 45/45
f 44/44 46/46 45/45
f 45/45 46/46 47/47
f 46/46 48/48 47/47
f 47/47 48/48 49/49
f 43/43 50/50 42/42
f 51/51 50/50 43/43
f 51/51 52/52 50/50
f 53/53 52/52 51/51
f 53/53 54/54 52/52
f 55/55 54/54 53/53
f 48/48 56/56 49/49
f 49/49 56/56 57/57
f 56/56 58/58 57/57
f 57/57 58/58 59/59
f 59/59 54/54 55/55
f 58/58 54/54 59/59
f 60/60 61/61 62/62
f 60/60 63/63 61/61
f 63/63 64/64 61/61
f 63/63 65/65 64/64
f 66/66 60/60 62/62
f 67/67 60/60 66/66
f 66/66 68/68 67/67
f 68/68 69/69 67/67
f 68/68 70/70 69/69
f 70/70 71/71 69/69
f 70/70 72/72 71/71
f 71/71 72/72 73/73
f 72/72 74/74 73/73
f 73/73 74/74 75/75
f 74/74 76/76 75/75
f 75/75 76/76 77/77
f 76/76 78/78 77/77
f 76/76 79/79 78/78
f 78/78 79/79 80/80
f 80/80 79/79 81/81
f 80/80 81/81 82/82
f 82/82 81/81 83/83
f 82/82 83/83 65/65
f 65/65 83/83 64/64
f 84/84 85/85 86/86
f 85/85 87/87 86/86
f 88/88 87/87 85/85
f 89/89 90/90 91/91
f 91/91 92/92 89/89
f 93/93 92/92 91/91
f 94/94 95/95 96/96
f 94/94 97/97 95/95
f 98/98 97/97 94/94
f 99/99 100/100 101/101
f 101/101 100/100 102/102
f 100/100 103/103 102/102
f 104/104 105/105 106/106
f 104/104 106/106 107/107
f 108/108 104/104 107/107
f 106/106 109/109 107/107
f 105/105 109/109 106/106
f 109/109 110/110 107/107
f 111/111 105/105 104/104
f 111/111 104/104 108/108
f 112/112 111/111 108/108
f 113/113 105/105 111/111
f 114/114 113/113 111/111
f 114/114 111/111 112/112
f 113/113 115/115 105/105
f 114/114 115/115 113/113
f 115/115 116/116 105/105
f 115/115 117/117 116/116
f 118/118 117/117 115/115
f 114/114 118/118 115/115
f 109/109 119/119 110/110
f 120/120 119/119 109/109
f 105/105 120/120 109/109
f 117/117 119/119 120/120
f 116/116 117/117 120/120
f 116/116 120/120 105/105
f 121/121 122/122 123/123
f 124/124 122/122 121/121
f 124/124 125/125 122/122
f 125/125 126/126 122/122
f 127/127 126/126 125/125
f 128/128 126/126 127/127
f 129/129 121/121 123/123
f 129/129 123/123 130/130
f 130/130 123/123 131/131
f 131/131 126/126 128/128
f 132/132 130/130 131/131
f 132/132 131/131 128/128
f 133/133 129/129 134/134
f 124/124 133/133 134/134
f 134/134 129/129 135/135
f 132/132 134/134 135/135
f 136/136 124/124 134/134
f 127/127 136/136 134/134
f 137/137 134/134 132/132
f 127/127 134/134 137/137
f 138/138 139/139 140/140
f 140/140 139/139 141/141
f 139/139 142/142 141/141
f 141/141 142/142 143/143
f 140/140 144/144 138/138
f 145/145 144/144 140/140
f 145/145 146/146 144/144
f 147/147 146/146 145/145
f 148/148 149/149 150/150
f 149/149 151/151 150/150
f 150/150 151/151 152/152
f 153/153 149/149 148/148
f 154/154 153/153 148/148
f 151/151 155/155 152/152
f 156/156 155/155 151/151
f 156/156 157/157 155/155
f 158/158 157/157 156/156
f 158/158 159/159 157/157
f 153/153 160/160 149/149
f 149/149 161/161 151/151
f 160/160 161/161 149/149
f 161/161 156/156 151/151
f 162/162 161/161 160/160
f 163/163 156/156 161/161
f 163/163 158/158 156/156
f 162/162 163/163 161/161
f 164/164 153/153 154/154
f 164/164 165/165 153/153
f 165/165 160/160 153/153
f 166/166 165/165 164/164
f 166/166 167/167 165/165
f 168/168 167/167 166/166
f 169/169 159/159 158/158
f 170/170 169/169 158/158
f 170/170 158/158 163/163
f 167/167 171/171 170/170
f 171/171 169/169 170/170
f 168/168 171/171 167/167
f 172/172 162/162 160/160
f 165/165 167/167 172/172
f 165/165 172/172 160/160
f 172/172 170/170 163/163
f 172/172 163/163 162/162
f 167/167 170/170 172/172
f 173/173 174/174 175/175
f 175/175 174/174 176/176
f 173/173 175/175 177/177
f 178/178 173/173 177/177
f 174/174 179/179 176/176
f 179/179 180/180 176/176
f 177/177 181/181 178/178
f 182/182 181/181 177/177
f 182/182 183/183 181/181
f 184/184 183/183 182/182
f 184/184 185/185 183/183
f 186/186 185/185 184/184
f 179/179 187/187 180/180
f 180/180 187/187 188/188
f 187/187 189/189 188/188
f 188/188 189/189 190/190
f 189/189 191/191 190/190
f 190/190 191/191 192/192
f 186/186 193/193 185/185
f 194/194 193/193 186/186
f 194/194 195/195 193/193
f 196/196 195/195 194/194
f 192/192 191/191 196/196
f 196/196 191/191 195/195
f 197/197 198/198 199/199
f 198/198 200/200 199/199
f 198/198 201/201 200/200
f 201/201 202/202 200/200
f 197/197 199/199 203/203
f 203/203 199/199 204/204
f 204/204 205/205 203/203
f 204/204 206/206 205/205
f 206/206 207/207 205/205
f 206/206 208/208 207/207
f 208/208 209/209 207/207
f 210/210 209/209 208/208
f 210/210 211/211 209/209
f 212/212 211/211 210/210
f 212/212 213/213 211/211
f 214/214 213/213 212/212
f 214/214 215/215 213/213
f 215/215 216/216 213/213
f 217/217 216/216 215/215
f 218/218 216/216 217/217
f 219/219 218/218 217/217
f 220/220 218/218 219/219
f 202/202 220/220 219/219
f 201/201 220/220 202/202
f 221/221 222/222 223/223
f 221/221 224/224 222/222
f 222/222 224/224 225/225
f 226/226 227/227 228/228
f 228/228 229/229 226/226
f 226/226 229/229 230/230
f 231/231 232/232 233/233
f 232/232 234/234 233/233
f 233/233 234/234 235/235
f 236/236 237/237 238/238
f 239/239 237/237 236/236
f 239/239 240/240 237/237
f 241/241 242/242 243/243
f 244/244 241/241 243/243
f 244/244 243/243 245/245
f 244/244 246/246 241/241
f 241/241 246/246 242/242
f 244/244 247/247 246/246
f 243/243 242/242 248/248
f 245/245 243/243 248/248
f 245/245 248/248 249/249
f 248/248 242/242 250/250
f 248/248 250/250 251/251
f 249/249 248/248 251/251
f 242/242 252/252 250/250
f 250/250 252/252 251/251
f 242/242 253/253 252/252
f 253/253 254/254 252/252
f 252/252 254/254 255/255
f 252/252 255/255 251/251
f 247/247 256/256 246/246
f 246/246 256/256 257/257
f 246/246 257/257 242/242
f 257/257 256/256 254/254
f 257/257 254/254 253/253
f 242/242 257/257 253/253
f 258/258 259/259 260/260
f 260/260 259/259 261/261
f 259/259 262/262 261/261
f 259/259 263/263 262/262
f 262/262 263/263 264/264
f 264/264 263/263 265/265
f 258/258 260/260 266/266
f 267/267 258/258 266/266
f 268/268 258/258 267/267
f 265/265 263/263 268/268
f 268/268 267/267 269/269
f 265/265 268/268 269/269
f 270/270 266/266 271/271
f 270/270 271/271 261/261
f 272/272 266/266 270/270
f 272/272 270/270 269/269
f 270/270 261/261 273/273
f 270/270 273/273 264/264
f 269/269 270/270 274/274
f 274/274 270/270 264/264
