mtllib arms7079.mtl
o arms7079
v -1.61111 0.08510 2.34760 0.792 0.000 0.000
v -1.71241 0.08510 2.56257 0.847 0.000 0.000
v -1.71241 0.02264 2.54471 0.847 0.000 0.000
v -1.64767 0.02011 2.34203 0.792 0.000 0.000
v -1.62020 0.04028 2.19452 0.847 0.000 0.000
v -1.58164 0.08510 2.19827 0.847 0.000 0.000
v -1.71241 -0.01471 2.51681 0.847 0.000 0.000
v -1.61217 -0.03238 2.33248 0.792 0.000 0.000
v -1.58533 -0.00365 2.18855 0.847 0.000 0.000
v -1.62812 -0.04592 2.17793 0.847 0.000 0.000
v -1.64767 -0.09274 2.31194 0.792 0.000 0.000
v -1.71241 -0.16056 2.45831 0.847 0.000 0.000
v -1.61338 0.05252 2.06066 0.255 0.592 0.000
v -1.57288 0.08510 2.06282 0.255 0.592 0.000
v -1.58081 0.08510 1.94015 0.000 0.678 0.169
v -1.62155 0.05717 1.94015 0.000 0.678 0.169
v -1.58798 0.03233 1.93779 0.000 0.678 0.169
v -1.57606 0.01609 2.05733 0.255 0.592 0.000
v -1.62572 -0.01960 2.05292 0.255 0.592 0.000
v -1.64034 0.00436 1.93217 0.000 0.678 0.169
v -1.60520 0.08510 1.77640 0.000 0.255 0.592
v -1.62832 0.06302 1.77563 0.000 0.255 0.592
v -1.68268 0.08510 1.54562 0.000 0.000 0.922
v -1.68268 0.07290 1.54624 0.000 0.000 0.922
v -1.61077 0.04419 1.77394 0.000 0.255 0.592
v -1.68525 0.04462 1.54591 0.000 0.000 0.922
v -1.64444 0.02124 1.76981 0.000 0.255 0.592
v -1.61338 0.11768 2.06066 0.255 0.592 0.000
v -1.62155 0.11304 1.94015 0.000 0.678 0.169
v -1.62832 0.10719 1.77563 0.000 0.255 0.592
v -1.68268 0.09731 1.54624 0.000 0.000 0.922
v -1.58798 0.13788 1.93779 0.000 0.678 0.169
v -1.57606 0.15412 2.05733 0.255 0.592 0.000
v -1.62572 0.18981 2.05292 0.255 0.592 0.000
v -1.64034 0.16585 1.93217 0.000 0.678 0.169
v -1.61077 0.12604 1.77394 0.000 0.255 0.592
v -1.68525 0.12560 1.54591 0.000 0.000 0.922
v -1.64444 0.14897 1.76981 0.000 0.255 0.592
v -1.58533 0.17386 2.18855 0.847 0.000 0.000
v -1.62020 0.12994 2.19452 0.847 0.000 0.000
v -1.61217 0.20261 2.33248 0.792 0.000 0.000
v -1.62812 0.21613 2.17793 0.847 0.000 0.000
v -1.64767 0.26294 2.31194 0.792 0.000 0.000
v -1.71241 0.33077 2.45831 0.847 0.000 0.000
v -1.71241 0.31196 2.49854 0.847 0.000 0.000
v -1.64767 0.15012 2.34203 0.792 0.000 0.000
v -1.71241 0.18491 2.51681 0.847 0.000 0.000
v -1.71241 0.14756 2.54471 0.847 0.000 0.000
v -1.71241 0.23188 2.52862 0.847 0.000 0.000
v -1.71241 0.27659 2.52434 0.847 0.000 0.000
v -1.61959 -0.23749 2.21447 0.792 0.000 0.000
v -1.64767 -0.18880 2.24950 0.792 0.000 0.000
v -1.71241 -0.27104 2.35976 0.847 0.000 0.000
v -1.63166 -0.12607 2.13885 0.847 0.000 0.000
v -1.59111 -0.16619 2.11460 0.847 0.000 0.000
v -1.64767 -0.27225 2.15001 0.792 0.000 0.000
v -1.63166 -0.20903 2.06595 0.847 0.000 0.000
v -1.71241 -0.36805 2.23812 0.847 0.000 0.000
v -1.62846 -0.08433 2.03220 0.255 0.592 0.000
v -1.58922 -0.12566 2.01328 0.255 0.592 0.000
v -1.63870 -0.04819 1.91176 0.000 0.678 0.169
v -1.60009 -0.08116 1.89380 0.000 0.678 0.169
v -1.62846 -0.16299 1.98549 0.255 0.592 0.000
v -1.64126 -0.11529 1.87268 0.000 0.678 0.169
v -1.64815 -0.01861 1.75943 0.000 0.255 0.592
v -1.62675 -0.04347 1.75183 0.000 0.255 0.592
v -1.68880 0.01413 1.54811 0.000 0.000 0.922
v -1.69547 -0.01984 1.55351 0.000 0.000 0.922
v -1.66140 -0.06759 1.74321 0.000 0.255 0.592
v -1.71241 -0.01984 1.53792 0.000 0.000 0.922
v -1.71241 0.01413 1.52343 0.000 0.000 0.922
v -1.71241 -0.36218 2.29176 0.847 0.000 0.000
v -1.71241 -0.34259 2.33338 0.847 0.000 0.000
v -1.71241 -0.30681 2.35440 0.847 0.000 0.000
v -1.62540 -0.31127 2.08899 0.792 0.000 0.000
v -1.64767 -0.27225 2.15001 0.792 0.000 0.000
v -1.71241 -0.36805 2.23812 0.847 0.000 0.000
v -1.63166 -0.20903 2.06595 0.847 0.000 0.000
v -1.60394 -0.24295 2.01674 0.847 0.000 0.000
v -1.65127 -0.34198 2.01920 0.792 0.000 0.000
v -1.63526 -0.27808 1.96016 0.847 0.000 0.000
v -1.71241 -0.42757 2.07923 0.847 0.000 0.000
v -1.63361 -0.36193 1.95356 0.792 0.000 0.000
v -1.61575 -0.29968 1.90841 0.847 0.000 0.000
v -1.65487 -0.38450 1.89137 0.792 0.000 0.000
v -1.63886 -0.31840 1.85249 0.847 0.000 0.000
v -1.71241 -0.45470 1.93009 0.847 0.000 0.000
v -1.64252 -0.39069 1.83524 0.792 0.000 0.000
v -1.62752 -0.32720 1.80194 0.847 0.000 0.000
v -1.71241 -0.39690 1.77912 0.792 0.000 0.000
v -1.71248 -0.33601 1.75138 0.847 0.000 0.000
v -1.71241 -0.45886 1.80392 0.847 0.000 0.000
v -1.62846 -0.16299 1.98549 0.255 0.592 0.000
v -1.60310 -0.19481 1.95035 0.255 0.592 0.000
v -1.64126 -0.11529 1.87268 0.000 0.678 0.169
v -1.61723 -0.13930 1.85040 0.000 0.678 0.169
v -1.63206 -0.22451 1.90823 0.255 0.592 0.000
v -1.64862 -0.16436 1.81762 0.000 0.678 0.169
v -1.61617 -0.24615 1.86172 0.255 0.592 0.000
v -1.63253 -0.18110 1.79563 0.000 0.678 0.169
v -1.63566 -0.26411 1.81969 0.255 0.592 0.000
v -1.65582 -0.20216 1.76708 0.000 0.678 0.169
v -1.62704 -0.27551 1.77471 0.255 0.592 0.000
v -1.63411 -0.21290 1.73423 0.000 0.678 0.169
v -1.71241 -0.28467 1.72636 0.255 0.592 0.000
v -1.71241 -0.22356 1.69137 0.000 0.678 0.169
v -1.66140 -0.06759 1.74321 0.000 0.255 0.592
v -1.64198 -0.09077 1.73196 0.000 0.255 0.592
v -1.69547 -0.01984 1.55351 0.000 0.000 0.922
v -1.70228 -0.04513 1.55434 0.000 0.000 0.922
v -1.65964 -0.11495 1.71628 0.000 0.255 0.592
v -1.65400 -0.12947 1.70348 0.000 0.255 0.592
v -1.66208 -0.13829 1.68905 0.000 0.255 0.592
v -1.70228 -0.04513 1.55434 0.000 0.000 0.922
v -1.65519 -0.14823 1.67006 0.000 0.255 0.592
v -1.71241 -0.16220 1.64785 0.000 0.255 0.592
v -1.70228 -0.04513 1.55434 0.000 0.000 0.922
v -1.71241 -0.01984 1.53792 0.000 0.000 0.922
v -1.70228 -0.04513 1.55434 0.000 0.000 0.922
v -1.71241 -0.04513 1.55434 0.000 0.000 0.922
v -1.70024 -0.14224 1.53022 0.000 0.000 0.847
v -1.71241 -0.01984 1.53792 0.000 0.000 0.847
v -1.70228 -0.04513 1.55434 0.000 0.000 0.922
v -1.71241 -0.16220 1.64785 0.000 0.255 0.592
v -1.64815 -0.01861 1.75943 0.000 0.255 0.592
v -1.68880 0.01413 1.54811 0.000 0.000 0.922
v -1.62164 0.00371 1.76405 0.000 0.255 0.592
v -1.68525 0.04462 1.54591 0.000 0.000 0.922
v -1.64444 0.02124 1.76981 0.000 0.255 0.592
v -1.64034 0.00436 1.93217 0.000 0.678 0.169
v -1.59262 -0.01804 1.92335 0.000 0.678 0.169
v -1.62572 -0.01960 2.05292 0.255 0.592 0.000
v -1.58101 -0.05323 2.04543 0.255 0.592 0.000
v -1.62846 -0.08433 2.03220 0.255 0.592 0.000
v -1.63870 -0.04819 1.91176 0.000 0.678 0.169
v -1.62812 -0.04592 2.17793 0.847 0.000 0.000
v -1.58467 -0.08338 2.16367 0.847 0.000 0.000
v -1.61665 -0.14053 2.28560 0.792 0.000 0.000
v -1.64767 -0.18880 2.24950 0.792 0.000 0.000
v -1.63166 -0.12607 2.13885 0.847 0.000 0.000
v -1.71241 -0.27104 2.35976 0.847 0.000 0.000
v -1.64767 -0.09274 2.31194 0.792 0.000 0.000
v -1.71241 -0.16056 2.45831 0.847 0.000 0.000
v -1.71241 -0.19559 2.45646 0.847 0.000 0.000
v -1.71241 -0.23062 2.43898 0.847 0.000 0.000
v -1.71241 -0.25447 2.40710 0.847 0.000 0.000
v -1.71241 -0.10638 2.52434 0.847 0.000 0.000
v -1.71241 -0.14175 2.49854 0.847 0.000 0.000
v -1.71241 -0.06167 2.52862 0.847 0.000 0.000
v -1.71241 -0.42817 2.17847 0.847 0.000 0.000
v -1.71241 -0.43933 2.12886 0.847 0.000 0.000
v -1.71241 -0.40412 2.21364 0.847 0.000 0.000
v -1.71241 -0.46100 2.05231 0.847 0.000 0.000
v -1.71241 -0.47608 2.01379 0.847 0.000 0.000
v -1.71241 -0.47484 1.97194 0.847 0.000 0.000
v -1.71241 -0.47374 1.90402 0.847 0.000 0.000
v -1.71241 -0.48188 1.87798 0.847 0.000 0.000
v -1.71241 -0.48280 1.84095 0.847 0.000 0.000
v -1.61959 0.40772 2.21447 0.792 0.000 0.000
v -1.71241 0.44125 2.35976 0.847 0.000 0.000
v -1.64767 0.35901 2.24950 0.792 0.000 0.000
v -1.71241 0.47704 2.35440 0.847 0.000 0.000
v -1.63166 0.29630 2.13885 0.847 0.000 0.000
v -1.59111 0.33642 2.11460 0.847 0.000 0.000
v -1.64767 0.44246 2.15001 0.792 0.000 0.000
v -1.63166 0.37924 2.06595 0.847 0.000 0.000
v -1.71241 0.53825 2.23812 0.847 0.000 0.000
v -1.71241 0.53239 2.29176 0.847 0.000 0.000
v -1.62846 0.25456 2.03220 0.255 0.592 0.000
v -1.58922 0.29588 2.01328 0.255 0.592 0.000
v -1.63870 0.21839 1.91176 0.000 0.678 0.169
v -1.60009 0.25137 1.89380 0.000 0.678 0.169
v -1.62846 0.33320 1.98549 0.255 0.592 0.000
v -1.64126 0.28552 1.87268 0.000 0.678 0.169
v -1.64815 0.18882 1.75943 0.000 0.255 0.592
v -1.62675 0.21368 1.75183 0.000 0.255 0.592
v -1.68880 0.15608 1.54811 0.000 0.000 0.922
v -1.69547 0.19006 1.55351 0.000 0.000 0.922
v -1.66140 0.23782 1.74321 0.000 0.255 0.592
v -1.71241 0.19006 1.53792 0.000 0.000 0.922
v -1.71241 0.15608 1.52343 0.000 0.000 0.922
v -1.71241 0.51280 2.33338 0.847 0.000 0.000
v -1.62540 0.48148 2.08899 0.792 0.000 0.000
v -1.71241 0.53825 2.23812 0.847 0.000 0.000
v -1.64767 0.44246 2.15001 0.792 0.000 0.000
v -1.71241 0.57433 2.21364 0.847 0.000 0.000
v -1.63166 0.37924 2.06595 0.847 0.000 0.000
v -1.60394 0.41317 2.01674 0.847 0.000 0.000
v -1.65127 0.51221 2.01920 0.792 0.000 0.000
v -1.63526 0.44829 1.96016 0.847 0.000 0.000
v -1.71241 0.59778 2.07923 0.847 0.000 0.000
v -1.63361 0.53213 1.95356 0.792 0.000 0.000
v -1.71241 0.60955 2.12886 0.847 0.000 0.000
v -1.71241 0.63121 2.05231 0.847 0.000 0.000
v -1.61575 0.46991 1.90841 0.847 0.000 0.000
v -1.65487 0.55471 1.89137 0.792 0.000 0.000
v -1.63886 0.48861 1.85249 0.847 0.000 0.000
v -1.71241 0.62491 1.93009 0.847 0.000 0.000
v -1.64252 0.56090 1.83524 0.792 0.000 0.000
v -1.71241 0.64507 1.97194 0.847 0.000 0.000
v -1.71241 0.64395 1.90402 0.847 0.000 0.000
v -1.62752 0.49741 1.80194 0.847 0.000 0.000
v -1.71241 0.56711 1.77912 0.792 0.000 0.000
v -1.71248 0.50621 1.75138 0.847 0.000 0.000
v -1.71241 0.62908 1.80392 0.847 0.000 0.000
v -1.71241 0.65300 1.84095 0.847 0.000 0.000
v -1.61617 0.41636 1.86172 0.255 0.592 0.000
v -1.63206 0.39474 1.90823 0.255 0.592 0.000
v -1.64862 0.33457 1.81762 0.000 0.678 0.169
v -1.61723 0.30951 1.85040 0.000 0.678 0.169
v -1.60310 0.36502 1.95035 0.255 0.592 0.000
v -1.64126 0.28552 1.87268 0.000 0.678 0.169
v -1.62846 0.33320 1.98549 0.255 0.592 0.000
v -1.63253 0.35131 1.79563 0.000 0.678 0.169
v -1.63566 0.43432 1.81969 0.255 0.592 0.000
v -1.65582 0.37237 1.76708 0.000 0.678 0.169
v -1.62704 0.44573 1.77471 0.255 0.592 0.000
v -1.63411 0.38311 1.73423 0.000 0.678 0.169
v -1.71241 0.45488 1.72636 0.255 0.592 0.000
v -1.71241 0.39379 1.69137 0.000 0.678 0.169
v -1.66140 0.23782 1.74321 0.000 0.255 0.592
v -1.64198 0.26098 1.73196 0.000 0.255 0.592
v -1.69547 0.19006 1.55351 0.000 0.000 0.922
v -1.70228 0.21533 1.55434 0.000 0.000 0.922
v -1.65964 0.28516 1.71628 0.000 0.255 0.592
v -1.65400 0.29970 1.70348 0.000 0.255 0.592
v -1.66208 0.30850 1.68905 0.000 0.255 0.592
v -1.70228 0.21533 1.55434 0.000 0.000 0.922
v -1.65519 0.31846 1.67006 0.000 0.255 0.592
v -1.71241 0.33241 1.64785 0.000 0.255 0.592
v -1.70228 0.21533 1.55434 0.000 0.000 0.922
v -1.70228 0.21533 1.55434 0.000 0.000 0.922
v -1.71241 0.19006 1.53792 0.000 0.000 0.922
v -1.71241 0.21533 1.55434 0.000 0.000 0.922
v -1.70228 0.21533 1.55434 0.000 0.000 0.922
v -1.71241 0.19006 1.53792 0.000 0.000 0.847
v -1.70024 0.31246 1.53022 0.000 0.000 0.847
v -1.71241 0.33241 1.64785 0.000 0.255 0.592
v -1.64815 0.18882 1.75943 0.000 0.255 0.592
v -1.62164 0.16650 1.76405 0.000 0.255 0.592
v -1.68880 0.15608 1.54811 0.000 0.000 0.922
v -1.68525 0.12560 1.54591 0.000 0.000 0.922
v -1.64444 0.14897 1.76981 0.000 0.255 0.592
v -1.64034 0.16585 1.93217 0.000 0.678 0.169
v -1.59262 0.18826 1.92335 0.000 0.678 0.169
v -1.62572 0.18981 2.05292 0.255 0.592 0.000
v -1.58101 0.22343 2.04543 0.255 0.592 0.000
v -1.62846 0.25456 2.03220 0.255 0.592 0.000
v -1.63870 0.21839 1.91176 0.000 0.678 0.169
v -1.62812 0.21613 2.17793 0.847 0.000 0.000
v -1.58467 0.25360 2.16367 0.847 0.000 0.000
v -1.61665 0.31073 2.28560 0.792 0.000 0.000
v -1.64767 0.35901 2.24950 0.792 0.000 0.000
v -1.63166 0.29630 2.13885 0.847 0.000 0.000
v -1.71241 0.44125 2.35976 0.847 0.000 0.000
v -1.71241 0.42467 2.40710 0.847 0.000 0.000
v -1.64767 0.26294 2.31194 0.792 0.000 0.000
v -1.71241 0.33077 2.45831 0.847 0.000 0.000
v -1.71241 0.36581 2.45646 0.847 0.000 0.000
v -1.71241 0.40084 2.43898 0.847 0.000 0.000
v -1.71241 0.59837 2.17847 0.847 0.000 0.000
v -1.71241 0.64629 2.01379 0.847 0.000 0.000
v -1.71241 0.65210 1.87798 0.847 0.000 0.000
v -1.71241 -0.16220 1.64785 0.000 0.255 0.592
v -1.72458 -0.14224 1.53022 0.000 0.000 0.922
v -1.71241 -0.14224 1.53022 0.000 0.000 0.922
v -1.71241 -0.14224 1.53022 0.000 0.000 0.922
v -1.70024 -0.14224 1.53022 0.000 0.000 0.922
v -1.73484 0.19006 1.55351 0.000 0.000 0.922
v -1.72255 0.21533 1.55434 0.000 0.000 0.922
v -1.71241 0.19006 1.53792 0.000 0.000 0.922
v -1.72255 0.21533 1.55434 0.000 0.000 0.922
v -1.71241 0.21533 1.55434 0.000 0.000 0.922
v -1.73484 0.19006 1.55351 0.000 0.000 0.922
v -1.71241 0.19006 1.53792 0.000 0.000 0.922
v -1.74244 0.15608 1.54811 0.000 0.000 0.922
v -1.71241 0.15608 1.52343 0.000 0.000 0.922
v -1.74541 0.12560 1.54591 0.000 0.000 0.922
v -1.74244 0.15608 1.54811 0.000 0.000 0.922
v -1.71241 0.12560 1.51726 0.000 0.000 0.922
v -1.71241 0.15608 1.52343 0.000 0.000 0.922
v -1.74645 0.09731 1.54624 0.000 0.000 0.922
v -1.74541 0.12560 1.54591 0.000 0.000 0.922
v -1.71241 0.09731 1.51418 0.000 0.000 0.922
v -1.71241 0.12560 1.51726 0.000 0.000 0.922
v -1.74645 0.08510 1.54562 0.000 0.000 0.922
v -1.71241 0.08510 1.51355 0.000 0.000 0.922
v -1.71241 0.07290 1.51418 0.000 0.000 0.922
v -1.74645 0.07290 1.54624 0.000 0.000 0.922
v -1.74541 0.04462 1.54591 0.000 0.000 0.922
v -1.71241 0.04462 1.51726 0.000 0.000 0.922
v -1.74541 0.04462 1.54591 0.000 0.000 0.922
v -1.71241 0.04462 1.51726 0.000 0.000 0.922
v -1.74244 0.01413 1.54811 0.000 0.000 0.922
v -1.71241 0.01413 1.52343 0.000 0.000 0.922
v -1.73484 -0.01984 1.55351 0.000 0.000 0.922
v -1.74244 0.01413 1.54811 0.000 0.000 0.922
v -1.71241 -0.01984 1.53792 0.000 0.000 0.922
v -1.71241 0.01413 1.52343 0.000 0.000 0.922
v -1.73484 -0.01984 1.55351 0.000 0.000 0.922
v -1.71241 -0.01984 1.53792 0.000 0.000 0.922
v -1.72255 -0.04513 1.55434 0.000 0.000 0.922
v -1.71241 -0.04513 1.55434 0.000 0.000 0.922
v -1.72255 -0.04513 1.55434 0.000 0.000 0.922
v -1.71241 -0.01984 1.53792 0.000 0.000 0.922
v -1.71241 -0.14224 1.53022 0.000 0.000 0.922
v -1.72458 -0.14224 1.53022 0.000 0.000 0.922
v -1.71241 -0.01984 1.53792 0.000 0.000 0.922
v -1.70024 -0.14224 1.53022 0.000 0.000 0.922
v -1.72458 0.31246 1.53022 0.000 0.000 0.922
v -1.71241 0.33241 1.64785 0.000 0.255 0.592
v -1.71241 0.31246 1.53022 0.000 0.000 0.922
v -1.70024 0.31246 1.53022 0.000 0.000 0.922
v -1.71241 0.31246 1.53022 0.000 0.000 0.922
v -1.72458 0.31246 1.53022 0.000 0.000 0.922
v -1.71241 0.31246 1.53022 0.000 0.000 0.922
v -1.71241 0.19006 1.53792 0.000 0.000 0.922
v -1.70024 0.31246 1.53022 0.000 0.000 0.922
v -1.71241 0.19006 1.53792 0.000 0.000 0.922
v -1.90271 0.29729 2.02318 0.894 0.000 0.000
v -1.88568 0.27475 2.01299 0.894 0.000 0.000
v -1.91390 0.26233 1.89270 0.894 0.000 0.000
v -1.89418 0.24385 1.89765 0.894 0.000 0.000
v -1.87308 0.21321 1.78330 0.894 0.000 0.000
v -1.89459 0.22721 1.76166 0.894 0.000 0.000
v -1.78754 0.21830 1.72231 0.894 0.000 0.000
v -1.79077 0.20455 1.75097 0.894 0.000 0.000
v -1.78614 0.23350 1.75486 0.894 0.000 0.000
v -1.78718 0.20961 1.76989 0.894 0.000 0.000
v -1.81462 0.31410 2.08593 0.894 0.000 0.000
v -1.81462 0.28861 2.06467 0.894 0.000 0.000
v -1.80659 0.31862 2.04898 0.894 0.000 0.000
v -1.80659 0.33449 2.08224 0.894 0.000 0.000
v -1.80659 0.28402 2.04757 0.894 0.000 0.000
v -1.77986 0.28195 2.03985 0.894 0.000 0.000
v -1.77986 0.32116 2.04048 0.894 0.000 0.000
v -1.77986 0.33964 2.07988 0.894 0.000 0.000
v -1.76708 0.21208 1.77910 0.894 0.000 0.000
v -1.76589 0.23953 1.76272 0.894 0.000 0.000
v -1.76018 0.23458 1.72152 0.894 0.000 0.000
v -1.78123 0.22955 1.72008 0.894 0.000 0.000
v -1.91630 0.28156 2.03839 0.847 0.000 0.000
v -1.90271 0.29729 2.02318 0.847 0.000 0.000
v -1.92883 0.24385 1.89765 0.847 0.000 0.000
v -1.91390 0.26233 1.89270 0.847 0.000 0.000
v -1.89459 0.22721 1.76166 0.847 0.000 0.000
v -1.90370 0.20612 1.75685 0.847 0.000 0.000
v -1.78508 0.19397 1.71149 0.847 0.000 0.000
v -1.78754 0.21830 1.72231 0.847 0.000 0.000
v -1.77687 0.21645 1.69267 0.847 0.000 0.000
v -1.78123 0.22955 1.72008 0.847 0.000 0.000
v -1.77527 0.18830 1.69031 0.847 0.000 0.000
v -1.81462 0.30114 2.11147 0.847 0.000 0.000
v -1.81462 0.31410 2.08593 0.847 0.000 0.000
v -1.75421 0.21823 1.68520 0.847 0.000 0.000
v -1.75262 0.18644 1.68341 0.847 0.000 0.000
v -1.80659 0.33737 2.11900 0.847 0.000 0.000
v -1.80659 0.30863 2.13944 0.847 0.000 0.000
v -1.76018 0.23458 1.72152 0.847 0.000 0.000
v -1.77986 0.34513 2.12994 0.847 0.000 0.000
v -1.77986 0.33964 2.07988 0.847 0.000 0.000
v -1.80659 0.33449 2.08224 0.847 0.000 0.000
v -1.77986 0.31203 2.15210 0.847 0.000 0.000
v -1.91390 0.22444 1.90285 0.875 0.000 0.000
v -1.90719 0.25954 2.03384 0.875 0.000 0.000
v -1.92883 0.24385 1.89765 0.875 0.000 0.000
v -1.91630 0.28156 2.03839 0.875 0.000 0.000
v -1.89011 0.18947 1.77232 0.875 0.000 0.000
v -1.90370 0.20612 1.75685 0.875 0.000 0.000
v -1.78508 0.19397 1.71149 0.875 0.000 0.000
v -1.78780 0.18034 1.73273 0.875 0.000 0.000
v -1.77689 0.16400 1.70708 0.875 0.000 0.000
v -1.78124 0.16673 1.73736 0.875 0.000 0.000
v -1.77527 0.18830 1.69031 0.875 0.000 0.000
v -1.81462 0.30114 2.11147 0.875 0.000 0.000
v -1.81462 0.27621 2.09608 0.875 0.000 0.000
v -1.76038 0.16346 1.74227 0.875 0.000 0.000
v -1.75423 0.15862 1.70158 0.875 0.000 0.000
v -1.80659 0.27171 2.13660 0.875 0.000 0.000
v -1.80659 0.30863 2.13944 0.875 0.000 0.000
v -1.77986 0.27047 2.14996 0.875 0.000 0.000
v -1.77986 0.31203 2.15210 0.875 0.000 0.000
v -1.77986 0.24982 2.10245 0.875 0.000 0.000
v -1.80659 0.25583 2.10332 0.875 0.000 0.000
v -1.75262 0.18644 1.68341 0.875 0.000 0.000
v -1.80659 0.25583 2.10332 0.922 0.000 0.000
v -1.80659 0.25295 2.06656 0.922 0.000 0.000
v -1.77986 0.24982 2.10245 0.922 0.000 0.000
v -1.77986 0.24649 2.06048 0.922 0.000 0.000
v -1.81462 0.27621 2.09608 0.922 0.000 0.000
v -1.77986 0.28195 2.03985 0.922 0.000 0.000
v -1.80659 0.28402 2.04757 0.922 0.000 0.000
v -1.81462 0.28861 2.06467 0.922 0.000 0.000
v -1.88568 0.27475 2.01299 0.922 0.000 0.000
v -1.90719 0.25954 2.03384 0.922 0.000 0.000
v -1.91390 0.22444 1.90285 0.922 0.000 0.000
v -1.89418 0.24385 1.89765 0.922 0.000 0.000
v -1.87308 0.21321 1.78330 0.922 0.000 0.000
v -1.89011 0.18947 1.77232 0.922 0.000 0.000
v -1.78780 0.18034 1.73273 0.922 0.000 0.000
v -1.79077 0.20455 1.75097 0.922 0.000 0.000
v -1.78616 0.18106 1.76927 0.922 0.000 0.000
v -1.78718 0.20961 1.76989 0.922 0.000 0.000
v -1.76708 0.21208 1.77910 0.922 0.000 0.000
v -1.76593 0.17989 1.77912 0.922 0.000 0.000
v -1.76038 0.16346 1.74227 0.922 0.000 0.000
v -1.78124 0.16673 1.73736 0.922 0.000 0.000
v -1.71241 0.08510 1.51355 0.000 0.000 0.922
v -1.71241 0.07290 1.51418 0.000 0.000 0.922
v -1.71241 0.04462 1.51726 0.000 0.000 0.922
v -1.71241 0.09731 1.51418 0.000 0.000 0.922
v -1.71241 0.12560 1.51726 0.000 0.000 0.922
v -1.71241 0.01413 1.52343 0.000 0.000 0.922
v -1.71241 0.04462 1.51726 0.000 0.000 0.922
v -1.71241 0.15608 1.52343 0.000 0.000 0.922
v -1.71241 0.12560 1.51726 0.000 0.000 0.922
v -1.77937 0.08510 2.31520 0.792 0.000 0.000
v -1.71241 0.02264 2.54471 0.847 0.000 0.000
v -1.71241 0.08510 2.56257 0.847 0.000 0.000
v -1.74836 0.02011 2.30963 0.792 0.000 0.000
v -1.76729 0.04028 2.17652 0.847 0.000 0.000
v -1.79282 0.08510 2.18027 0.847 0.000 0.000
v -1.71241 -0.01471 2.51681 0.847 0.000 0.000
v -1.77937 -0.03238 2.30008 0.792 0.000 0.000
v -1.71241 -0.06167 2.52862 0.847 0.000 0.000
v -1.79282 -0.00365 2.17055 0.847 0.000 0.000
v -1.76076 -0.04592 2.15993 0.847 0.000 0.000
v -1.74836 -0.08516 2.28674 0.792 0.000 0.000
v -1.71241 -0.16056 2.45831 0.847 0.000 0.000
v -1.71241 -0.14175 2.49854 0.847 0.000 0.000
v -1.78265 0.05252 2.06066 0.255 0.592 0.000
v -1.79282 0.08510 2.06282 0.255 0.592 0.000
v -1.79282 0.08510 1.94015 0.000 0.678 0.169
v -1.78348 0.05717 1.94015 0.000 0.678 0.169
v -1.79282 0.03233 1.93779 0.000 0.678 0.169
v -1.79282 0.01609 2.05733 0.255 0.592 0.000
v -1.76756 -0.01960 2.05292 0.255 0.592 0.000
v -1.77178 0.00436 1.93217 0.000 0.678 0.169
v -1.78659 0.08510 1.81240 0.000 0.255 0.592
v -1.77719 0.06302 1.81163 0.000 0.255 0.592
v -1.74645 0.08510 1.54562 0.000 0.000 0.922
v -1.74645 0.07290 1.54624 0.000 0.000 0.922
v -1.78659 0.04419 1.80994 0.000 0.255 0.592
v -1.74541 0.04462 1.54591 0.000 0.000 0.922
v -1.77138 0.02124 1.80581 0.000 0.255 0.592
v -1.78265 0.11768 2.06066 0.255 0.592 0.000
v -1.78348 0.11304 1.94015 0.000 0.678 0.169
v -1.77719 0.10719 1.81163 0.000 0.255 0.592
v -1.74645 0.09731 1.54624 0.000 0.000 0.922
v -1.79282 0.13788 1.93779 0.000 0.678 0.169
v -1.79282 0.15412 2.05733 0.255 0.592 0.000
v -1.76756 0.18981 2.05292 0.255 0.592 0.000
v -1.77178 0.16585 1.93217 0.000 0.678 0.169
v -1.78659 0.12604 1.80994 0.000 0.255 0.592
v -1.74541 0.12560 1.54591 0.000 0.000 0.922
v -1.77138 0.14897 1.80581 0.000 0.255 0.592
v -1.79282 0.17386 2.17055 0.847 0.000 0.000
v -1.76729 0.12994 2.17652 0.847 0.000 0.000
v -1.77937 0.20261 2.30008 0.792 0.000 0.000
v -1.76076 0.21613 2.15993 0.847 0.000 0.000
v -1.74836 0.25538 2.28674 0.792 0.000 0.000
v -1.71241 0.33077 2.45831 0.847 0.000 0.000
v -1.74836 0.15012 2.30963 0.792 0.000 0.000
v -1.71241 0.18491 2.51681 0.847 0.000 0.000
v -1.71241 0.14756 2.54471 0.847 0.000 0.000
v -1.71241 0.23188 2.52862 0.847 0.000 0.000
v -1.71241 0.27659 2.52434 0.847 0.000 0.000
v -1.71241 0.31196 2.49854 0.847 0.000 0.000
v -1.77937 -0.23045 2.20367 0.792 0.000 0.000
v -1.71241 -0.27104 2.35976 0.847 0.000 0.000
v -1.74836 -0.18283 2.23870 0.792 0.000 0.000
v -1.71241 -0.30681 2.35440 0.847 0.000 0.000
v -1.76076 -0.12607 2.12805 0.847 0.000 0.000
v -1.79282 -0.16619 2.10380 0.847 0.000 0.000
v -1.74836 -0.27225 2.15001 0.792 0.000 0.000
v -1.76076 -0.20903 2.06595 0.847 0.000 0.000
v -1.71241 -0.36805 2.23812 0.847 0.000 0.000
v -1.71241 -0.36218 2.29176 0.847 0.000 0.000
v -1.76756 -0.08433 2.03220 0.255 0.592 0.000
v -1.79282 -0.12566 2.01328 0.255 0.592 0.000
v -1.76787 -0.04819 1.91176 0.000 0.678 0.169
v -1.79282 -0.08116 1.89380 0.000 0.678 0.169
v -1.76756 -0.16299 1.98549 0.255 0.592 0.000
v -1.76243 -0.11529 1.87268 0.000 0.678 0.169
v -1.76769 -0.01861 1.79183 0.000 0.255 0.592
v -1.77910 -0.04347 1.78063 0.000 0.255 0.592
v -1.74244 0.01413 1.54811 0.000 0.000 0.922
v -1.73484 -0.01984 1.55351 0.000 0.000 0.922
v -1.75442 -0.06759 1.76481 0.000 0.255 0.592
v -1.71241 -0.34259 2.33338 0.847 0.000 0.000
v -1.77305 -0.31127 2.08899 0.792 0.000 0.000
v -1.71241 -0.36805 2.23812 0.847 0.000 0.000
v -1.74836 -0.27225 2.15001 0.792 0.000 0.000
v -1.71241 -0.40412 2.21364 0.847 0.000 0.000
v -1.76076 -0.20903 2.06595 0.847 0.000 0.000
v -1.78387 -0.24295 2.01674 0.847 0.000 0.000
v -1.74836 -0.34198 2.01920 0.792 0.000 0.000
v -1.76076 -0.27808 1.96016 0.847 0.000 0.000
v -1.71241 -0.42757 2.07923 0.847 0.000 0.000
v -1.75824 -0.36193 1.95356 0.792 0.000 0.000
v -1.71241 -0.43933 2.12886 0.847 0.000 0.000
v -1.71241 -0.46100 2.05231 0.847 0.000 0.000
v -1.77250 -0.29968 1.90841 0.847 0.000 0.000
v -1.74836 -0.38450 1.89137 0.792 0.000 0.000
v -1.76076 -0.31840 1.85249 0.847 0.000 0.000
v -1.71241 -0.45470 1.93009 0.847 0.000 0.000
v -1.74787 -0.39069 1.83524 0.792 0.000 0.000
v -1.71241 -0.47484 1.97194 0.847 0.000 0.000
v -1.71241 -0.47374 1.90402 0.847 0.000 0.000
v -1.75927 -0.32720 1.80194 0.847 0.000 0.000
v -1.71241 -0.39690 1.77912 0.792 0.000 0.000
v -1.71248 -0.33601 1.75138 0.847 0.000 0.000
v -1.71241 -0.45886 1.80392 0.847 0.000 0.000
v -1.71241 -0.48280 1.84095 0.847 0.000 0.000
v -1.77827 -0.24615 1.86172 0.255 0.592 0.000
v -1.76756 -0.22451 1.90823 0.255 0.592 0.000
v -1.75640 -0.16436 1.81762 0.000 0.678 0.169
v -1.78780 -0.13930 1.85040 0.000 0.678 0.169
v -1.78907 -0.19481 1.95035 0.255 0.592 0.000
v -1.76243 -0.11529 1.87268 0.000 0.678 0.169
v -1.76756 -0.16299 1.98549 0.255 0.592 0.000
v -1.77610 -0.18110 1.79563 0.000 0.678 0.169
v -1.76756 -0.26411 1.81969 0.255 0.592 0.000
v -1.75640 -0.20216 1.76708 0.000 0.678 0.169
v -1.76594 -0.27551 1.77471 0.255 0.592 0.000
v -1.76585 -0.21290 1.73423 0.000 0.678 0.169
v -1.71241 -0.28467 1.72636 0.255 0.592 0.000
v -1.71241 -0.22356 1.69137 0.000 0.678 0.169
v -1.75442 -0.06759 1.76481 0.000 0.255 0.592
v -1.77385 -0.09077 1.74996 0.000 0.255 0.592
v -1.73484 -0.01984 1.55351 0.000 0.000 0.922
v -1.72255 -0.04513 1.55434 0.000 0.000 0.922
v -1.75259 -0.11495 1.72708 0.000 0.255 0.592
v -1.76380 -0.12947 1.71428 0.000 0.255 0.592
v -1.74710 -0.13829 1.69625 0.000 0.255 0.592
v -1.72255 -0.04513 1.55434 0.000 0.000 0.922
v -1.75343 -0.14823 1.68086 0.000 0.255 0.592
v -1.71241 -0.16220 1.64785 0.000 0.255 0.592
v -1.72255 -0.04513 1.55434 0.000 0.000 0.922
v -1.72458 -0.14224 1.53022 0.000 0.000 0.847
v -1.71241 -0.16220 1.64785 0.000 0.255 0.592
v -1.72255 -0.04513 1.55434 0.000 0.000 0.922
v -1.71241 -0.01984 1.53792 0.000 0.000 0.847
v -1.76769 -0.01861 1.79183 0.000 0.255 0.592
v -1.78582 0.00371 1.80005 0.000 0.255 0.592
v -1.74244 0.01413 1.54811 0.000 0.000 0.922
v -1.74541 0.04462 1.54591 0.000 0.000 0.922
v -1.77138 0.02124 1.80581 0.000 0.255 0.592
v -1.77178 0.00436 1.93217 0.000 0.678 0.169
v -1.79282 -0.01804 1.92335 0.000 0.678 0.169
v -1.76756 -0.01960 2.05292 0.255 0.592 0.000
v -1.79282 -0.05323 2.04543 0.255 0.592 0.000
v -1.76756 -0.08433 2.03220 0.255 0.592 0.000
v -1.76787 -0.04819 1.91176 0.000 0.678 0.169
v -1.76076 -0.04592 2.15993 0.847 0.000 0.000
v -1.79282 -0.08338 2.14927 0.847 0.000 0.000
v -1.77937 -0.12622 2.26760 0.792 0.000 0.000
v -1.74836 -0.18283 2.23870 0.792 0.000 0.000
v -1.76076 -0.12607 2.12805 0.847 0.000 0.000
v -1.71241 -0.27104 2.35976 0.847 0.000 0.000
v -1.71241 -0.25447 2.40710 0.847 0.000 0.000
v -1.74836 -0.08516 2.28674 0.792 0.000 0.000
v -1.71241 -0.16056 2.45831 0.847 0.000 0.000
v -1.71241 -0.19559 2.45646 0.847 0.000 0.000
v -1.71241 -0.23062 2.43898 0.847 0.000 0.000
v -1.77937 0.40068 2.20367 0.792 0.000 0.000
v -1.74836 0.35303 2.23870 0.792 0.000 0.000
v -1.71241 0.44125 2.35976 0.847 0.000 0.000
v -1.76076 0.29630 2.12805 0.847 0.000 0.000
v -1.79282 0.33642 2.10380 0.847 0.000 0.000
v -1.74836 0.44246 2.15001 0.792 0.000 0.000
v -1.76076 0.37924 2.06595 0.847 0.000 0.000
v -1.71241 0.53825 2.23812 0.847 0.000 0.000
v -1.76756 0.25456 2.03220 0.255 0.592 0.000
v -1.79282 0.29588 2.01328 0.255 0.592 0.000
v -1.76787 0.21839 1.91176 0.000 0.678 0.169
v -1.79282 0.25137 1.89380 0.000 0.678 0.169
v -1.76756 0.33320 1.98549 0.255 0.592 0.000
v -1.76243 0.28552 1.87268 0.000 0.678 0.169
v -1.76769 0.18882 1.79183 0.000 0.255 0.592
v -1.77910 0.21368 1.78063 0.000 0.255 0.592
v -1.74244 0.15608 1.54811 0.000 0.000 0.922
v -1.73484 0.19006 1.55351 0.000 0.000 0.922
v -1.75442 0.23782 1.76481 0.000 0.255 0.592
v -1.71241 0.53239 2.29176 0.847 0.000 0.000
v -1.71241 0.51280 2.33338 0.847 0.000 0.000
v -1.71241 0.47704 2.35440 0.847 0.000 0.000
v -1.77305 0.48148 2.08899 0.792 0.000 0.000
v -1.74836 0.44246 2.15001 0.792 0.000 0.000
v -1.71241 0.53825 2.23812 0.847 0.000 0.000
v -1.76076 0.37924 2.06595 0.847 0.000 0.000
v -1.78387 0.41317 2.01674 0.847 0.000 0.000
v -1.74836 0.51221 2.01920 0.792 0.000 0.000
v -1.76076 0.44829 1.96016 0.847 0.000 0.000
v -1.71241 0.59778 2.07923 0.847 0.000 0.000
v -1.75824 0.53213 1.95356 0.792 0.000 0.000
v -1.77250 0.46991 1.90841 0.847 0.000 0.000
v -1.74836 0.55471 1.89137 0.792 0.000 0.000
v -1.76076 0.48861 1.85249 0.847 0.000 0.000
v -1.71241 0.62491 1.93009 0.847 0.000 0.000
v -1.74787 0.56090 1.83524 0.792 0.000 0.000
v -1.75927 0.49741 1.80194 0.847 0.000 0.000
v -1.71241 0.56711 1.77912 0.792 0.000 0.000
v -1.71248 0.50621 1.75138 0.847 0.000 0.000
v -1.71241 0.62908 1.80392 0.847 0.000 0.000
v -1.76756 0.33320 1.98549 0.255 0.592 0.000
v -1.78907 0.36502 1.95035 0.255 0.592 0.000
v -1.76243 0.28552 1.87268 0.000 0.678 0.169
v -1.78780 0.30951 1.85040 0.000 0.678 0.169
v -1.76756 0.39474 1.90823 0.255 0.592 0.000
v -1.75640 0.33457 1.81762 0.000 0.678 0.169
v -1.77827 0.41636 1.86172 0.255 0.592 0.000
v -1.77610 0.35131 1.79563 0.000 0.678 0.169
v -1.76756 0.43432 1.81969 0.255 0.592 0.000
v -1.75640 0.37237 1.76708 0.000 0.678 0.169
v -1.76594 0.44573 1.77471 0.255 0.592 0.000
v -1.76585 0.38311 1.73423 0.000 0.678 0.169
v -1.71241 0.45488 1.72636 0.255 0.592 0.000
v -1.71241 0.39379 1.69137 0.000 0.678 0.169
v -1.75442 0.23782 1.76481 0.000 0.255 0.592
v -1.76303 0.26098 1.74996 0.000 0.255 0.592
v -1.73484 0.19006 1.55351 0.000 0.000 0.922
v -1.72255 0.21533 1.55434 0.000 0.000 0.922
v -1.75259 0.28516 1.72708 0.000 0.255 0.592
v -1.76380 0.29970 1.71428 0.000 0.255 0.592
v -1.74710 0.30850 1.69625 0.000 0.255 0.592
v -1.72255 0.21533 1.55434 0.000 0.000 0.922
v -1.75343 0.31846 1.68086 0.000 0.255 0.592
v -1.71241 0.33241 1.64785 0.000 0.255 0.592
v -1.72255 0.21533 1.55434 0.000 0.000 0.922
v -1.72255 0.21533 1.55434 0.000 0.000 0.922
v -1.71241 0.33241 1.64785 0.000 0.255 0.592
v -1.72458 0.31246 1.53022 0.000 0.000 0.847
v -1.71241 0.19006 1.53792 0.000 0.000 0.847
v -1.76769 0.18882 1.79183 0.000 0.255 0.592
v -1.74244 0.15608 1.54811 0.000 0.000 0.922
v -1.78582 0.16650 1.80005 0.000 0.255 0.592
v -1.74541 0.12560 1.54591 0.000 0.000 0.922
v -1.77138 0.14897 1.80581 0.000 0.255 0.592
v -1.77178 0.16585 1.93217 0.000 0.678 0.169
v -1.79282 0.18826 1.92335 0.000 0.678 0.169
v -1.76756 0.18981 2.05292 0.255 0.592 0.000
v -1.78063 0.22343 2.04543 0.255 0.592 0.000
v -1.76756 0.25456 2.03220 0.255 0.592 0.000
v -1.76787 0.21839 1.91176 0.000 0.678 0.169
v -1.76076 0.21613 2.15993 0.847 0.000 0.000
v -1.77682 0.25360 2.14927 0.847 0.000 0.000
v -1.77937 0.29642 2.26760 0.792 0.000 0.000
v -1.74836 0.35303 2.23870 0.792 0.000 0.000
v -1.76076 0.29630 2.12805 0.847 0.000 0.000
v -1.71241 0.44125 2.35976 0.847 0.000 0.000
v -1.74836 0.25538 2.28674 0.792 0.000 0.000
v -1.71241 0.33077 2.45831 0.847 0.000 0.000
v -1.71241 0.36581 2.45646 0.847 0.000 0.000
v -1.71241 0.40084 2.43898 0.847 0.000 0.000
v -1.71241 0.42467 2.40710 0.847 0.000 0.000
v -1.71241 0.59837 2.17847 0.847 0.000 0.000
v -1.71241 0.60955 2.12886 0.847 0.000 0.000
v -1.71241 0.57433 2.21364 0.847 0.000 0.000
v -1.71241 0.63121 2.05231 0.847 0.000 0.000
v -1.71241 0.64629 2.01379 0.847 0.000 0.000
v -1.71241 0.64507 1.97194 0.847 0.000 0.000
v -1.71241 0.64395 1.90402 0.847 0.000 0.000
v -1.71241 0.65210 1.87798 0.847 0.000 0.000
v -1.71241 0.65300 1.84095 0.847 0.000 0.000
v -1.71241 -0.10638 2.52434 0.847 0.000 0.000
v -1.71241 -0.42817 2.17847 0.847 0.000 0.000
v -1.71241 -0.47608 2.01379 0.847 0.000 0.000
v -1.71241 -0.48188 1.87798 0.847 0.000 0.000
v -1.76657 0.09283 1.66183 0.875 0.000 0.000
v -1.76656 0.08114 1.63703 0.875 0.000 0.000
v -1.71425 0.09940 1.64371 1.000 0.000 0.000
v -1.76661 0.11741 1.65022 0.875 0.000 0.000
v -1.76301 0.10602 1.62554 0.875 0.000 0.000
v -1.77341 0.09931 1.64372 0.749 0.000 0.000
v -1.79345 -0.09038 2.16515 0.875 0.000 0.000
v -1.79345 -0.07889 2.19002 0.875 0.000 0.000
v -1.74109 -0.09700 2.18329 1.000 0.000 0.000
v -1.79339 -0.11525 2.17661 0.875 0.000 0.000
v -1.79341 -0.10377 2.20151 0.875 0.000 0.000
v -1.80025 -0.09707 2.18333 0.749 0.000 0.000
v -1.99561 0.03640 1.92652 0.937 0.000 0.000
v -1.99552 -0.03483 1.90078 0.937 0.000 0.000
v -1.95669 -0.07954 2.02075 0.796 0.000 0.000
v -1.95678 -0.00495 2.04786 0.796 0.000 0.000
v -1.88658 -0.10451 2.08134 0.898 0.000 0.000
v -1.88669 -0.02612 2.11001 0.898 0.000 0.000
v -1.79231 -0.12917 2.14963 0.937 0.000 0.000
v -1.79242 -0.05096 2.17822 0.937 0.000 0.000
v -1.79228 -0.14314 2.18772 0.831 0.000 0.000
v -1.79239 -0.06498 2.21611 0.831 0.000 0.000
v -1.95694 0.00661 1.77941 0.796 0.000 0.000
v -1.95705 0.08120 1.80652 0.796 0.000 0.000
v -1.88698 0.02995 1.71781 0.898 0.000 0.000
v -1.88708 0.10462 1.74512 0.898 0.000 0.000
v -1.76580 0.05321 1.64884 0.937 0.000 0.000
v -1.76591 0.13142 1.67744 0.937 0.000 0.000
v -1.76209 0.06723 1.61095 0.831 0.000 0.000
v -1.76218 0.14539 1.63935 0.831 0.000 0.000
v -1.79239 -0.06498 2.21611 0.831 0.000 0.000
v -1.79228 -0.14314 2.18772 0.831 0.000 0.000
v -1.79231 -0.11180 2.22284 0.831 0.000 0.000
v -1.75781 0.11398 1.60405 0.831 0.000 0.000
v -1.76209 0.06723 1.61095 0.831 0.000 0.000
v -1.76218 0.14539 1.63935 0.831 0.000 0.000
v -1.94774 -0.02956 1.99957 0.875 0.000 0.000
v -1.99552 -0.03483 1.90078 0.937 0.000 0.000
v -1.97550 0.00081 1.91363 0.875 0.000 0.000
v -1.95669 -0.07954 2.02075 0.796 0.000 0.000
v -1.88658 -0.10451 2.08134 0.898 0.000 0.000
v -1.88669 -0.02612 2.11001 0.898 0.000 0.000
v -1.95678 -0.00495 2.04786 0.796 0.000 0.000
v -1.99561 0.03640 1.92652 0.937 0.000 0.000
v -1.94792 0.03125 1.82768 0.875 0.000 0.000
v -1.95694 0.00661 1.77941 0.796 0.000 0.000
v -1.88698 0.02995 1.71781 0.898 0.000 0.000
v -1.88708 0.10462 1.74512 0.898 0.000 0.000
v -1.95705 0.08120 1.80652 0.796 0.000 0.000
vt 0.50675 0.84792
vt 0.50675 0.99386
vt 0.54535 0.99386
vt 0.58545 0.84792
vt 0.58545 0.73693
vt 0.50675 0.73693
vt 0.58545 0.99386
vt 0.66400 0.84792
vt 0.66400 0.73693
vt 0.74214 0.73693
vt 0.74214 0.84792
vt 0.74214 0.99386
vt 0.58545 0.64352
vt 0.50675 0.64352
vt 0.50675 0.53226
vt 0.58545 0.53226
vt 0.66400 0.53226
vt 0.66400 0.64352
vt 0.74214 0.64352
vt 0.74214 0.53226
vt 0.50675 0.40465
vt 0.58545 0.40465
vt 0.50675 0.29283
vt 0.58545 0.29283
vt 0.66400 0.40465
vt 0.74214 0.29283
vt 0.74214 0.40465
vt 0.58545 0.64352
vt 0.58545 0.53226
vt 0.58545 0.40465
vt 0.58545 0.29283
vt 0.66400 0.53226
vt 0.66400 0.64352
vt 0.74214 0.64352
vt 0.74214 0.53226
vt 0.66400 0.40465
vt 0.74214 0.29283
vt 0.74214 0.40465
vt 0.66400 0.73693
vt 0.58545 0.73693
vt 0.66400 0.84792
vt 0.74214 0.73693
vt 0.74214 0.84792
vt 0.74214 0.99386
vt 0.70307 0.99386
vt 0.58545 0.84792
vt 0.58545 0.99386
vt 0.54535 0.99386
vt 0.62469 0.99386
vt 0.66400 0.99386
vt 0.66400 0.84792
vt 0.58545 0.84792
vt 0.58545 0.99386
vt 0.58545 0.73693
vt 0.66400 0.73693
vt 0.74214 0.84792
vt 0.74214 0.73693
vt 0.74214 0.99386
vt 0.58545 0.64352
vt 0.66400 0.64352
vt 0.58545 0.53226
vt 0.66400 0.53226
vt 0.74214 0.64352
vt 0.74214 0.53226
vt 0.58545 0.40465
vt 0.66400 0.40465
vt 0.58545 0.29283
vt 0.74214 0.29283
vt 0.74214 0.40465
vt 0.74214 0.25456
vt 0.58545 0.25456
vt 0.70307 0.99386
vt 0.66400 0.99386
vt 0.62468 0.99386
vt 0.66400 0.84792
vt 0.58545 0.84792
vt 0.58545 0.99386
vt 0.58545 0.73693
vt 0.66400 0.73693
vt 0.74214 0.84792
vt 0.74214 0.73693
vt 0.74214 0.99386
vt 0.80567 0.84792
vt 0.80567 0.73693
vt 0.86724 0.84792
vt 0.86724 0.73693
vt 0.86724 0.99386
vt 0.92997 0.84792
vt 0.92997 0.73693
vt 0.99255 0.84792
vt 0.99255 0.73693
vt 0.99255 0.99386
vt 0.58545 0.64352
vt 0.66400 0.64352
vt 0.58545 0.53226
vt 0.66400 0.53226
vt 0.74214 0.64352
vt 0.74214 0.53226
vt 0.80567 0.64352
vt 0.80567 0.53226
vt 0.86724 0.64352
vt 0.86724 0.53226
vt 0.92997 0.64352
vt 0.92997 0.53226
vt 0.99255 0.64352
vt 0.99255 0.53226
vt 0.58545 0.40465
vt 0.66400 0.40465
vt 0.58545 0.29283
vt 0.74214 0.29283
vt 0.74214 0.40465
vt 0.80567 0.40465
vt 0.86724 0.40465
vt 0.86764 0.29283
vt 0.92997 0.40465
vt 0.99255 0.40465
vt 0.99255 0.29283
vt 0.58545 0.25456
vt 0.74214 0.25456
vt 0.74214 0.25456
vt 0.99125 0.41230
vt 0.86634 0.41230
vt 0.86606 0.25456
vt 0.99125 0.25456
vt 0.74214 0.40465
vt 0.74214 0.29283
vt 0.66400 0.40465
vt 0.58545 0.29283
vt 0.58545 0.40465
vt 0.58545 0.53226
vt 0.66400 0.53226
vt 0.58545 0.64352
vt 0.66400 0.64352
vt 0.74214 0.64352
vt 0.74214 0.53226
vt 0.58545 0.73693
vt 0.66400 0.73693
vt 0.66400 0.84792
vt 0.74214 0.84792
vt 0.74214 0.73693
vt 0.74214 0.99386
vt 0.58545 0.84792
vt 0.58545 0.99386
vt 0.62412 0.99386
vt 0.66400 0.99386
vt 0.70307 0.99386
vt 0.66400 0.99386
vt 0.70307 0.99386
vt 0.62469 0.99386
vt 0.66400 0.99386
vt 0.70307 0.99386
vt 0.62482 0.99386
vt 0.77325 0.99386
vt 0.80567 0.99386
vt 0.83645 0.99386
vt 0.89860 0.99386
vt 0.92997 0.99386
vt 0.96126 0.99386
vt 0.66400 0.84792
vt 0.58545 0.99386
vt 0.58545 0.84792
vt 0.62468 0.99386
vt 0.58545 0.73693
vt 0.66400 0.73693
vt 0.74214 0.84792
vt 0.74214 0.73693
vt 0.74214 0.99386
vt 0.70307 0.99386
vt 0.58545 0.64352
vt 0.66400 0.64352
vt 0.58545 0.53226
vt 0.66400 0.53226
vt 0.74214 0.64352
vt 0.74214 0.53226
vt 0.58545 0.40465
vt 0.66400 0.40465
vt 0.58545 0.29283
vt 0.74214 0.29283
vt 0.74214 0.40465
vt 0.74214 0.25456
vt 0.58545 0.25456
vt 0.66400 0.99386
vt 0.66400 0.84792
vt 0.58545 0.99386
vt 0.58545 0.84792
vt 0.62482 0.99386
vt 0.58545 0.73693
vt 0.66400 0.73693
vt 0.74214 0.84792
vt 0.74214 0.73693
vt 0.74214 0.99386
vt 0.80567 0.84792
vt 0.70307 0.99386
vt 0.77325 0.99386
vt 0.80567 0.73693
vt 0.86724 0.84792
vt 0.86724 0.73693
vt 0.86724 0.99386
vt 0.92997 0.84792
vt 0.83645 0.99386
vt 0.89860 0.99386
vt 0.92997 0.73693
vt 0.99255 0.84792
vt 0.99255 0.73693
vt 0.99255 0.99386
vt 0.96126 0.99386
vt 0.80567 0.64352
vt 0.74214 0.64352
vt 0.74214 0.53226
vt 0.66400 0.53226
vt 0.66400 0.64352
vt 0.58545 0.53226
vt 0.58545 0.64352
vt 0.80567 0.53226
vt 0.86724 0.64352
vt 0.86724 0.53226
vt 0.92997 0.64352
vt 0.92997 0.53226
vt 0.99255 0.64352
vt 0.99255 0.53226
vt 0.58545 0.40465
vt 0.66400 0.40465
vt 0.58545 0.29283
vt 0.74214 0.29283
vt 0.74214 0.40465
vt 0.80567 0.40465
vt 0.86724 0.40465
vt 0.86764 0.29283
vt 0.92997 0.40465
vt 0.99255 0.40465
vt 0.99255 0.29283
vt 0.74214 0.25456
vt 0.58545 0.25456
vt 0.74214 0.25456
vt 0.86606 0.25456
vt 0.86634 0.41230
vt 0.99125 0.41230
vt 0.99125 0.25456
vt 0.74214 0.40465
vt 0.66400 0.40465
vt 0.74214 0.29283
vt 0.58545 0.29283
vt 0.58545 0.40465
vt 0.58545 0.53226
vt 0.66400 0.53226
vt 0.58545 0.64352
vt 0.66400 0.64352
vt 0.74214 0.64352
vt 0.74214 0.53226
vt 0.58545 0.73693
vt 0.66400 0.73693
vt 0.66400 0.84792
vt 0.74214 0.84792
vt 0.74214 0.73693
vt 0.74214 0.99386
vt 0.70307 0.99386
vt 0.58545 0.84792
vt 0.58545 0.99386
vt 0.62412 0.99386
vt 0.66400 0.99386
vt 0.66400 0.99386
vt 0.80567 0.99386
vt 0.92997 0.99386
vt 0.86713 0.40465
vt 0.86717 0.25217
vt 0.86717 0.25248
vt 0.86764 0.25456
vt 0.86764 0.25456
vt 0.41498 0.29320
vt 0.25817 0.27185
vt 0.41498 0.25611
vt 0.25817 0.26514
vt 0.25817 0.25828
vt 0.25817 0.29320
vt 0.25817 0.25611
vt 0.41498 0.29320
vt 0.41498 0.25611
vt 0.41498 0.29320
vt 0.25817 0.29320
vt 0.41498 0.25611
vt 0.25817 0.25611
vt 0.41498 0.29320
vt 0.25817 0.29320
vt 0.41498 0.25611
vt 0.25817 0.25611
vt 0.49421 0.29320
vt 0.49421 0.25611
vt 0.41519 0.25611
vt 0.41519 0.29320
vt 0.25817 0.29320
vt 0.25817 0.25611
vt 0.41498 0.29320
vt 0.41498 0.25611
vt 0.25817 0.29320
vt 0.25817 0.25611
vt 0.25817 0.29320
vt 0.41498 0.29320
vt 0.25817 0.25611
vt 0.41498 0.25611
vt 0.41498 0.29320
vt 0.41498 0.25611
vt 0.25817 0.27185
vt 0.25817 0.25828
vt 0.25817 0.26514
vt 0.86717 0.27313
vt 0.99216 0.27313
vt 0.99224 0.25265
vt 0.86764 0.29283
vt 0.99255 0.29283
vt 0.86717 0.25217
vt 0.86713 0.40465
vt 0.86717 0.25248
vt 0.86764 0.25456
vt 0.86764 0.25456
vt 0.99224 0.25265
vt 0.99216 0.27313
vt 0.86717 0.25265
vt 0.99255 0.29283
vt 0.86764 0.27313
vt 0.29176 0.18750
vt 0.29176 0.12684
vt 0.49407 0.18750
vt 0.49407 0.12684
vt 0.29176 0.12684
vt 0.29176 0.18750
vt 0.11985 0.18750
vt 0.11985 0.12684
vt 0.06273 0.15463
vt 0.06273 0.12684
vt 0.11985 0.18750
vt 0.11985 0.12684
vt 0.06273 0.15463
vt 0.06273 0.18750
vt 0.06273 0.12684
vt 0.00782 0.12684
vt 0.00782 0.15463
vt 0.00782 0.18750
vt 0.00782 0.12684
vt 0.00782 0.15463
vt 0.00782 0.18750
vt 0.06273 0.18750
vt 0.29176 0.24415
vt 0.29176 0.18750
vt 0.49407 0.24415
vt 0.49407 0.18750
vt 0.29176 0.18750
vt 0.29176 0.24415
vt 0.11985 0.24415
vt 0.11985 0.18750
vt 0.06273 0.21427
vt 0.06273 0.18750
vt 0.06273 0.24415
vt 0.11985 0.24415
vt 0.11985 0.18750
vt 0.00782 0.21427
vt 0.00782 0.24415
vt 0.06273 0.21427
vt 0.06273 0.24415
vt 0.00782 0.18750
vt 0.00782 0.21427
vt 0.00782 0.18750
vt 0.06273 0.18750
vt 0.00782 0.24415
vt 0.50012 0.06250
vt 0.29074 0.06250
vt 0.50012 0.00750
vt 0.29074 0.00750
vt 0.70950 0.06250
vt 0.70950 0.00750
vt 0.88140 0.00750
vt 0.88140 0.06250
vt 0.93852 0.03738
vt 0.93852 0.06250
vt 0.93852 0.00750
vt 0.11884 0.00750
vt 0.11884 0.06250
vt 0.99144 0.06250
vt 0.99144 0.03738
vt 0.06172 0.03738
vt 0.06172 0.00750
vt 0.00880 0.03738
vt 0.00880 0.00750
vt 0.00880 0.06250
vt 0.06172 0.06250
vt 0.99144 0.00750
vt 0.06172 0.06250
vt 0.06172 0.09747
vt 0.00880 0.06250
vt 0.00880 0.09747
vt 0.11884 0.06250
vt 0.00880 0.12202
vt 0.06172 0.12202
vt 0.11884 0.12202
vt 0.29074 0.12202
vt 0.29074 0.06250
vt 0.50012 0.06250
vt 0.50012 0.12202
vt 0.70950 0.12202
vt 0.70950 0.06250
vt 0.88140 0.06250
vt 0.88140 0.12202
vt 0.93852 0.09747
vt 0.93852 0.12202
vt 0.99144 0.12202
vt 0.99144 0.09747
vt 0.99144 0.06250
vt 0.93852 0.06250
vt 0.50675 0.25456
vt 0.58545 0.25456
vt 0.74214 0.25456
vt 0.58545 0.25456
vt 0.74214 0.25456
vt 0.74214 0.25456
vt 0.58545 0.25456
vt 0.74214 0.25456
vt 0.58545 0.25456
vt 0.49421 0.84792
vt 0.44841 0.99386
vt 0.49421 0.99386
vt 0.41498 0.84792
vt 0.41519 0.73693
vt 0.49421 0.73693
vt 0.41498 0.99386
vt 0.33589 0.84792
vt 0.37529 0.99386
vt 0.33589 0.73693
vt 0.25817 0.73693
vt 0.25817 0.84792
vt 0.25817 0.99386
vt 0.29701 0.99386
vt 0.41519 0.64352
vt 0.49421 0.64352
vt 0.49421 0.53226
vt 0.41519 0.53226
vt 0.33589 0.53226
vt 0.33589 0.64352
vt 0.25817 0.64352
vt 0.25817 0.53226
vt 0.49421 0.40465
vt 0.41519 0.40465
vt 0.49421 0.29206
vt 0.41519 0.29206
vt 0.33589 0.40465
vt 0.25817 0.29206
vt 0.25817 0.40465
vt 0.41519 0.64352
vt 0.41519 0.53226
vt 0.41519 0.40465
vt 0.41519 0.29206
vt 0.33589 0.53226
vt 0.33589 0.64352
vt 0.25817 0.64352
vt 0.25817 0.53226
vt 0.33589 0.40465
vt 0.25817 0.29206
vt 0.25817 0.40465
vt 0.33589 0.73693
vt 0.41519 0.73693
vt 0.33589 0.84792
vt 0.25817 0.73693
vt 0.25817 0.84792
vt 0.25817 0.99386
vt 0.41498 0.84792
vt 0.41498 0.99386
vt 0.44841 0.99386
vt 0.37529 0.99386
vt 0.33589 0.99386
vt 0.29701 0.99386
vt 0.33589 0.84792
vt 0.41498 0.99386
vt 0.41498 0.84792
vt 0.37529 0.99386
vt 0.41498 0.73693
vt 0.33589 0.73693
vt 0.25817 0.84792
vt 0.25817 0.73693
vt 0.25817 0.99386
vt 0.29701 0.99386
vt 0.41498 0.64352
vt 0.33589 0.64352
vt 0.41498 0.53226
vt 0.33589 0.53226
vt 0.25817 0.64352
vt 0.25817 0.53226
vt 0.41498 0.40465
vt 0.33589 0.40465
vt 0.41498 0.29206
vt 0.25817 0.29206
vt 0.25817 0.40465
vt 0.33589 0.99386
vt 0.33589 0.84792
vt 0.41498 0.99386
vt 0.41498 0.84792
vt 0.37529 0.99386
vt 0.41498 0.73693
vt 0.33589 0.73693
vt 0.25817 0.84792
vt 0.25817 0.73693
vt 0.25817 0.99386
vt 0.19509 0.84792
vt 0.29701 0.99386
vt 0.22750 0.99386
vt 0.19509 0.73693
vt 0.13352 0.84792
vt 0.13352 0.73693
vt 0.13352 0.99386
vt 0.07079 0.84792
vt 0.16430 0.99386
vt 0.10215 0.99386
vt 0.07079 0.73693
vt 0.00821 0.84792
vt 0.00821 0.73693
vt 0.00821 0.99386
vt 0.03950 0.99386
vt 0.19509 0.64352
vt 0.25817 0.64352
vt 0.25817 0.53226
vt 0.33589 0.53226
vt 0.33589 0.64352
vt 0.41498 0.53226
vt 0.41498 0.64352
vt 0.19509 0.53226
vt 0.13352 0.64352
vt 0.13352 0.53226
vt 0.07079 0.64352
vt 0.07079 0.53226
vt 0.00821 0.64352
vt 0.00821 0.53226
vt 0.41498 0.40465
vt 0.33589 0.40465
vt 0.41498 0.29206
vt 0.25817 0.29206
vt 0.25817 0.40465
vt 0.19509 0.40465
vt 0.13352 0.40465
vt 0.13312 0.29360
vt 0.07079 0.40465
vt 0.00821 0.40465
vt 0.00821 0.29360
vt 0.00950 0.41230
vt 0.00950 0.25516
vt 0.13469 0.25516
vt 0.13441 0.41230
vt 0.25817 0.40465
vt 0.33589 0.40465
vt 0.25817 0.29206
vt 0.41498 0.29206
vt 0.41498 0.40465
vt 0.41498 0.53226
vt 0.33589 0.53226
vt 0.41498 0.64352
vt 0.33589 0.64352
vt 0.25817 0.64352
vt 0.25817 0.53226
vt 0.41498 0.73693
vt 0.33589 0.73693
vt 0.33589 0.84792
vt 0.25817 0.84792
vt 0.25817 0.73693
vt 0.25817 0.99386
vt 0.29701 0.99386
vt 0.41498 0.84792
vt 0.41498 0.99386
vt 0.37529 0.99386
vt 0.33589 0.99386
vt 0.33589 0.84792
vt 0.41498 0.84792
vt 0.41498 0.99386
vt 0.41498 0.73693
vt 0.33589 0.73693
vt 0.25817 0.84792
vt 0.25817 0.73693
vt 0.25817 0.99386
vt 0.41498 0.64352
vt 0.33589 0.64352
vt 0.41498 0.53226
vt 0.33589 0.53226
vt 0.25817 0.64352
vt 0.25817 0.53226
vt 0.41498 0.40465
vt 0.33589 0.40465
vt 0.41498 0.29206
vt 0.25817 0.29206
vt 0.25817 0.40465
vt 0.29701 0.99386
vt 0.33589 0.99386
vt 0.37529 0.99386
vt 0.33589 0.84792
vt 0.41498 0.84792
vt 0.41498 0.99386
vt 0.41498 0.73693
vt 0.33589 0.73693
vt 0.25817 0.84792
vt 0.25817 0.73693
vt 0.25817 0.99386
vt 0.19509 0.84792
vt 0.19509 0.73693
vt 0.13352 0.84792
vt 0.13352 0.73693
vt 0.13352 0.99386
vt 0.07079 0.84792
vt 0.07079 0.73693
vt 0.00821 0.84792
vt 0.00821 0.73693
vt 0.00821 0.99386
vt 0.41498 0.64352
vt 0.33589 0.64352
vt 0.41498 0.53226
vt 0.33589 0.53226
vt 0.25817 0.64352
vt 0.25817 0.53226
vt 0.19509 0.64352
vt 0.19509 0.53226
vt 0.13352 0.64352
vt 0.13352 0.53226
vt 0.07079 0.64352
vt 0.07079 0.53226
vt 0.00821 0.64352
vt 0.00821 0.53226
vt 0.41498 0.40465
vt 0.33589 0.40465
vt 0.41498 0.29206
vt 0.25817 0.29206
vt 0.25817 0.40465
vt 0.19509 0.40465
vt 0.13352 0.40465
vt 0.13312 0.29360
vt 0.07079 0.40465
vt 0.00821 0.40465
vt 0.00821 0.29360
vt 0.13469 0.25516
vt 0.00950 0.25516
vt 0.00950 0.41230
vt 0.13441 0.41230
vt 0.25817 0.40465
vt 0.25817 0.29206
vt 0.33589 0.40465
vt 0.41498 0.29206
vt 0.41498 0.40465
vt 0.41498 0.53226
vt 0.33589 0.53226
vt 0.41498 0.64352
vt 0.33589 0.64352
vt 0.25817 0.64352
vt 0.25817 0.53226
vt 0.41498 0.73693
vt 0.33589 0.73693
vt 0.33589 0.84792
vt 0.25817 0.84792
vt 0.25817 0.73693
vt 0.25817 0.99386
vt 0.41498 0.84792
vt 0.41498 0.99386
vt 0.37529 0.99386
vt 0.33589 0.99386
vt 0.29701 0.99386
vt 0.33589 0.99386
vt 0.29701 0.99386
vt 0.37529 0.99386
vt 0.22750 0.99386
vt 0.19509 0.99386
vt 0.16430 0.99386
vt 0.10215 0.99386
vt 0.07079 0.99386
vt 0.03950 0.99386
vt 0.33589 0.99386
vt 0.33589 0.99386
vt 0.19509 0.99386
vt 0.07079 0.99386
vt 0.50548 0.22831
vt 0.50548 0.13084
vt 0.55450 0.18056
vt 0.60294 0.22831
vt 0.60294 0.13084
vt 0.55450 0.18056
vt 0.50548 0.13084
vt 0.50548 0.22831
vt 0.55450 0.18056
vt 0.60294 0.13084
vt 0.60294 0.22831
vt 0.55450 0.18056
vt 0.61574 0.19483
vt 0.61574 0.13183
vt 0.71015 0.13183
vt 0.71015 0.19483
vt 0.80512 0.13183
vt 0.80512 0.19483
vt 0.89320 0.13183
vt 0.89320 0.19483
vt 0.93469 0.13183
vt 0.93469 0.19483
vt 0.71015 0.13183
vt 0.71015 0.19483
vt 0.80512 0.13183
vt 0.80512 0.19483
vt 0.89320 0.13183
vt 0.89320 0.19483
vt 0.93469 0.13183
vt 0.93469 0.19483
vt 0.99439 0.19483
vt 0.93593 0.13183
vt 0.99439 0.13183
vt 0.99439 0.13183
vt 0.93593 0.13183
vt 0.99439 0.19483
vt 0.76771 0.16343
vt 0.71015 0.13183
vt 0.71015 0.16343
vt 0.80512 0.13183
vt 0.89131 0.13183
vt 0.89131 0.19483
vt 0.80512 0.19483
vt 0.71015 0.19483
vt 0.76771 0.16343
vt 0.80512 0.13183
vt 0.89131 0.13183
vt 0.89131 0.19483
vt 0.80512 0.19483
usemtl m0
f 1/1 2/2 3/3
f 1/1 3/3 4/4
f 4/4 5/5 1/1
f 5/5 6/6 1/1
f 3/3 7/7 4/4
f 8/8 4/4 7/7
f 5/5 4/4 8/8
f 9/9 5/5 8/8
f 10/10 9/9 8/8
f 11/11 10/10 8/8
f 12/12 11/11 8/8
f 5/5 13/13 6/6
f 13/13 5/5 9/9
f 13/13 14/14 6/6
f 14/14 13/13 15/15
f 13/13 16/16 15/15
f 16/16 13/13 17/17
f 13/13 18/18 17/17
f 18/18 13/13 9/9
f 17/17 18/18 19/19
f 10/10 19/19 9/9
f 19/19 18/18 9/9
f 20/20 17/17 19/19
f 15/15 16/16 21/21
f 16/16 22/22 21/21
f 21/21 22/22 23/23
f 22/22 24/24 23/23
f 24/24 22/22 25/25
f 17/17 25/25 16/16
f 25/25 22/22 16/16
f 25/25 17/17 20/20
f 26/26 24/24 25/25
f 27/27 26/26 25/25
f 27/27 25/25 20/20
f 28/28 14/14 15/15
f 29/29 28/28 15/15
f 29/29 15/15 21/21
f 30/30 21/21 23/23
f 30/30 29/29 21/21
f 31/31 30/30 23/23
f 29/29 32/32 28/28
f 32/32 33/33 28/28
f 33/33 32/32 34/34
f 32/32 35/35 34/34
f 31/31 36/36 30/30
f 30/30 36/36 29/29
f 36/36 32/32 29/29
f 35/35 32/32 36/36
f 31/31 37/37 36/36
f 37/37 38/38 36/36
f 38/38 35/35 36/36
f 33/33 39/39 28/28
f 39/39 33/33 34/34
f 39/39 40/40 28/28
f 40/40 39/39 41/41
f 41/41 39/39 42/42
f 42/42 39/39 34/34
f 43/43 41/41 42/42
f 44/44 41/41 43/43
f 41/41 44/44 45/45
f 46/46 40/40 41/41
f 41/41 47/47 46/46
f 46/46 1/1 40/40
f 1/1 6/6 40/40
f 47/47 48/48 46/46
f 48/48 1/1 46/46
f 1/1 48/48 2/2
f 47/47 41/41 49/49
f 40/40 6/6 28/28
f 6/6 14/14 28/28
f 41/41 50/50 49/49
f 41/41 45/45 50/50
f 51/51 52/52 53/53
f 54/54 52/52 51/51
f 55/55 54/54 51/51
f 51/51 56/56 55/55
f 56/56 57/57 55/55
f 58/58 56/56 51/51
f 59/59 54/54 55/55
f 60/60 59/59 55/55
f 55/55 57/57 60/60
f 61/61 59/59 60/60
f 62/62 61/61 60/60
f 60/60 63/63 62/62
f 57/57 63/63 60/60
f 63/63 64/64 62/62
f 65/65 61/61 62/62
f 66/66 65/65 62/62
f 62/62 64/64 66/66
f 67/67 65/65 66/66
f 68/68 67/67 66/66
f 69/69 68/68 66/66
f 64/64 69/69 66/66
f 67/67 68/68 70/70
f 71/71 67/67 70/70
f 51/51 72/72 58/58
f 51/51 73/73 72/72
f 74/74 73/73 51/51
f 53/53 74/74 51/51
f 75/75 76/76 77/77
f 78/78 76/76 75/75
f 79/79 78/78 75/75
f 75/75 80/80 79/79
f 80/80 81/81 79/79
f 82/82 80/80 75/75
f 83/83 80/80 82/82
f 81/81 80/80 83/83
f 84/84 81/81 83/83
f 83/83 85/85 84/84
f 85/85 86/86 84/84
f 87/87 85/85 83/83
f 88/88 85/85 87/87
f 86/86 85/85 88/88
f 89/89 86/86 88/88
f 88/88 90/90 89/89
f 90/90 91/91 89/89
f 92/92 90/90 88/88
f 93/93 78/78 79/79
f 94/94 93/93 79/79
f 79/79 81/81 94/94
f 95/95 93/93 94/94
f 96/96 95/95 94/94
f 94/94 97/97 96/96
f 97/97 98/98 96/96
f 98/98 97/97 99/99
f 99/99 97/97 84/84
f 84/84 86/86 99/99
f 100/100 98/98 99/99
f 99/99 101/101 100/100
f 86/86 101/101 99/99
f 101/101 86/86 89/89
f 101/101 102/102 100/100
f 102/102 101/101 103/103
f 103/103 101/101 89/89
f 89/89 91/91 103/103
f 104/104 102/102 103/103
f 103/103 105/105 104/104
f 91/91 105/105 103/103
f 105/105 106/106 104/104
f 107/107 95/95 96/96
f 108/108 107/107 96/96
f 96/96 98/98 108/108
f 109/109 107/107 108/108
f 110/110 109/109 108/108
f 111/111 110/110 108/108
f 98/98 111/111 108/108
f 111/111 98/98 100/100
f 110/110 111/111 112/112
f 112/112 111/111 100/100
f 100/100 102/102 112/112
f 102/102 113/113 112/112
f 113/113 102/102 104/104
f 112/112 113/113 114/114
f 115/115 113/113 104/104
f 104/104 106/106 115/115
f 113/113 115/115 114/114
f 106/106 116/116 115/115
f 117/117 115/115 116/116
f 118/118 109/109 119/119
f 120/120 118/118 119/119
f 121/121 122/122 123/123
f 123/123 124/124 121/121
f 125/125 126/126 127/127
f 126/126 128/128 127/127
f 128/128 129/129 127/127
f 127/127 129/129 130/130
f 131/131 127/127 130/130
f 130/130 132/132 131/131
f 132/132 133/133 131/131
f 133/133 134/134 131/131
f 134/134 135/135 131/131
f 131/131 135/135 127/127
f 135/135 125/125 127/127
f 133/133 132/132 136/136
f 137/137 133/133 136/136
f 137/137 136/136 138/138
f 138/138 139/139 137/137
f 139/139 140/140 137/137
f 137/137 140/140 133/133
f 140/140 134/134 133/133
f 141/141 139/139 138/138
f 136/136 142/142 138/138
f 138/138 142/142 143/143
f 143/143 144/144 138/138
f 144/144 145/145 138/138
f 138/138 145/145 146/146
f 138/138 146/146 141/141
f 8/8 147/147 148/148
f 149/149 147/147 8/8
f 7/7 149/149 8/8
f 8/8 148/148 12/12
f 75/75 150/150 151/151
f 152/152 150/150 75/75
f 77/77 152/152 75/75
f 75/75 151/151 82/82
f 82/82 153/153 83/83
f 153/153 154/154 83/83
f 83/83 154/154 155/155
f 83/83 155/155 87/87
f 87/87 156/156 88/88
f 156/156 157/157 88/88
f 88/88 157/157 158/158
f 88/88 158/158 92/92
f 81/81 97/97 94/94
f 97/97 81/81 84/84
f 159/159 160/160 161/161
f 160/160 159/159 162/162
f 161/161 163/163 159/159
f 163/163 164/164 159/159
f 165/165 159/159 164/164
f 166/166 165/165 164/164
f 167/167 159/159 165/165
f 159/159 167/167 168/168
f 164/164 163/163 169/169
f 170/170 164/164 169/169
f 166/166 164/164 170/170
f 169/169 171/171 170/170
f 171/171 172/172 170/170
f 173/173 170/170 172/172
f 173/173 166/166 170/170
f 174/174 173/173 172/172
f 172/172 171/171 175/175
f 176/176 172/172 175/175
f 174/174 172/172 176/176
f 177/177 176/176 175/175
f 176/176 177/177 178/178
f 179/179 176/176 178/178
f 179/179 174/174 176/176
f 180/180 178/178 177/177
f 181/181 180/180 177/177
f 159/159 168/168 182/182
f 159/159 182/182 162/162
f 183/183 184/184 185/185
f 184/184 183/183 186/186
f 185/185 187/187 183/183
f 187/187 188/188 183/183
f 189/189 183/183 188/188
f 190/190 189/189 188/188
f 191/191 183/183 189/189
f 192/192 191/191 189/189
f 189/189 190/190 192/192
f 183/183 191/191 193/193
f 191/191 192/192 194/194
f 190/190 195/195 192/192
f 196/196 192/192 195/195
f 197/197 196/196 195/195
f 198/198 192/192 196/196
f 199/199 198/198 196/196
f 196/196 197/197 199/199
f 192/192 198/198 200/200
f 198/198 199/199 201/201
f 197/197 202/202 199/199
f 203/203 199/199 202/202
f 204/204 203/203 202/202
f 205/205 199/199 203/203
f 199/199 205/205 206/206
f 197/197 195/195 207/207
f 207/207 195/195 208/208
f 208/208 209/209 207/207
f 209/209 208/208 210/210
f 208/208 211/211 210/210
f 212/212 210/210 211/211
f 213/213 212/212 211/211
f 209/209 214/214 207/207
f 215/215 207/207 214/214
f 216/216 215/215 214/214
f 215/215 216/216 217/217
f 217/217 202/202 215/215
f 204/204 202/202 217/217
f 216/216 218/218 217/217
f 219/219 217/217 218/218
f 219/219 204/204 217/217
f 220/220 219/219 218/218
f 210/210 212/212 221/221
f 222/222 210/210 221/221
f 209/209 210/210 222/222
f 223/223 222/222 221/221
f 222/222 223/223 224/224
f 225/225 222/222 224/224
f 224/224 226/226 225/225
f 226/226 214/214 225/225
f 216/216 214/214 226/226
f 225/225 209/209 222/222
f 214/214 209/209 225/225
f 227/227 216/216 226/226
f 218/218 216/216 227/227
f 227/227 226/226 228/228
f 229/229 227/227 228/228
f 229/229 218/218 227/227
f 220/220 218/218 229/229
f 230/230 220/220 229/229
f 230/230 229/229 231/231
f 232/232 223/223 233/233
f 234/234 232/232 233/233
f 235/235 236/236 237/237
f 237/237 238/238 235/235
f 239/239 240/240 241/241
f 240/240 242/242 241/241
f 242/242 240/240 243/243
f 243/243 240/240 244/244
f 240/240 245/245 244/244
f 244/244 245/245 246/246
f 245/245 247/247 246/246
f 248/248 247/247 245/245
f 249/249 248/248 245/245
f 239/239 249/249 240/240
f 249/249 245/245 240/240
f 246/246 247/247 250/250
f 247/247 251/251 250/250
f 250/250 251/251 252/252
f 253/253 252/252 251/251
f 254/254 253/253 251/251
f 248/248 254/254 247/247
f 254/254 251/251 247/247
f 255/255 252/252 253/253
f 252/252 255/255 256/256
f 257/257 250/250 252/252
f 252/252 258/258 257/257
f 258/258 252/252 259/259
f 252/252 260/260 259/259
f 252/252 256/256 260/260
f 211/211 188/188 213/213
f 188/188 187/187 213/213
f 190/190 188/188 211/211
f 208/208 190/190 211/211
f 195/195 190/190 208/208
f 215/215 197/197 207/207
f 202/202 197/197 215/215
f 183/183 261/261 186/186
f 183/183 193/193 261/261
f 192/192 262/262 194/194
f 192/192 200/200 262/262
f 199/199 263/263 201/201
f 199/199 206/206 263/263
f 264/264 265/265 266/266
f 264/264 267/267 268/268
f 269/269 270/270 271/271
f 272/272 273/273 271/271
f 274/274 275/275 276/276
f 275/275 277/277 276/276
f 278/278 279/279 280/280
f 279/279 281/281 280/280
f 282/282 283/283 284/284
f 283/283 285/285 284/284
f 282/282 284/284 286/286
f 284/284 287/287 286/286
f 286/286 287/287 288/288
f 289/289 286/286 288/288
f 289/289 288/288 290/290
f 288/288 291/291 290/290
f 292/292 293/293 294/294
f 293/293 295/295 294/294
f 296/296 297/297 298/298
f 297/297 299/299 298/298
f 300/300 301/301 302/302
f 301/301 303/303 304/304
f 305/305 306/306 307/307
f 308/308 309/309 306/306
f 310/310 311/311 312/312
f 311/311 313/313 314/314
f 315/315 316/316 317/317
f 316/316 318/318 319/319
f 320/320 321/321 322/322
f 321/321 323/323 322/322
f 323/323 324/324 322/322
f 324/324 325/325 322/322
f 325/325 324/324 326/326
f 324/324 327/327 326/326
f 326/326 327/327 328/328
f 327/327 329/329 328/328
f 321/321 320/320 330/330
f 331/331 321/321 330/330
f 330/330 332/332 331/331
f 333/333 332/332 330/330
f 332/332 334/334 331/331
f 335/335 334/334 332/332
f 336/336 335/335 332/332
f 333/333 337/337 332/332
f 337/337 336/336 332/332
f 328/328 329/329 338/338
f 339/339 328/328 338/338
f 339/339 340/340 328/328
f 340/340 341/341 328/328
f 326/326 328/328 341/341
f 342/342 343/343 344/344
f 343/343 345/345 344/344
f 345/345 346/346 344/344
f 346/346 347/347 344/344
f 347/347 346/346 348/348
f 346/346 349/349 348/348
f 349/349 350/350 348/348
f 349/349 351/351 350/350
f 350/350 352/352 348/348
f 343/343 342/342 353/353
f 354/354 343/343 353/353
f 350/350 355/355 352/352
f 355/355 356/356 352/352
f 354/354 353/353 357/357
f 353/353 358/358 357/357
f 351/351 359/359 350/350
f 359/359 355/355 350/350
f 360/360 357/357 358/358
f 357/357 360/360 361/361
f 362/362 357/357 361/361
f 362/362 354/354 357/357
f 363/363 360/360 358/358
f 364/364 365/365 366/366
f 365/365 367/367 366/366
f 364/364 366/366 368/368
f 366/366 369/369 368/368
f 369/369 370/370 368/368
f 370/370 371/371 368/368
f 371/371 370/370 372/372
f 373/373 371/371 372/372
f 370/370 374/374 372/372
f 375/375 367/367 365/365
f 376/376 375/375 365/365
f 377/377 373/373 372/372
f 378/378 377/377 372/372
f 378/378 372/372 374/374
f 376/376 379/379 375/375
f 379/379 380/380 375/375
f 379/379 381/381 380/380
f 381/381 382/382 380/380
f 383/383 381/381 379/379
f 384/384 383/383 379/379
f 376/376 384/384 379/379
f 385/385 378/378 374/374
f 386/386 387/387 388/388
f 387/387 389/389 388/388
f 390/390 387/387 386/386
f 389/389 387/387 391/391
f 387/387 392/392 391/391
f 390/390 393/393 387/387
f 393/393 392/392 387/387
f 393/393 390/390 394/394
f 390/390 395/395 394/394
f 394/394 395/395 396/396
f 397/397 394/394 396/396
f 397/397 396/396 398/398
f 396/396 399/399 398/398
f 399/399 400/400 398/398
f 400/400 401/401 398/398
f 400/400 402/402 401/401
f 402/402 403/403 401/401
f 404/404 403/403 402/402
f 405/405 404/404 402/402
f 406/406 405/405 402/402
f 407/407 406/406 402/402
f 407/407 402/402 400/400
f 408/408 23/23 409/409
f 23/23 24/24 409/409
f 409/409 24/24 26/26
f 410/410 409/409 26/26
f 408/408 411/411 23/23
f 411/411 31/31 23/23
f 37/37 31/31 411/411
f 412/412 37/37 411/411
f 413/413 414/414 126/126
f 414/414 128/128 126/126
f 415/415 241/241 416/416
f 241/241 242/242 416/416
f 417/417 418/418 419/419
f 417/417 420/420 418/418
f 420/420 417/417 421/421
f 421/421 417/417 422/422
f 418/418 420/420 423/423
f 424/424 423/423 420/420
f 421/421 424/424 420/420
f 423/423 424/424 425/425
f 426/426 424/424 421/421
f 427/427 424/424 426/426
f 428/428 424/424 427/427
f 429/429 424/424 428/428
f 424/424 429/429 430/430
f 421/421 422/422 431/431
f 431/431 426/426 421/421
f 431/431 422/422 432/432
f 432/432 433/433 431/431
f 431/431 433/433 434/434
f 434/434 435/435 431/431
f 431/431 435/435 436/436
f 436/436 426/426 431/431
f 435/435 437/437 436/436
f 427/427 426/426 437/437
f 437/437 426/426 436/436
f 438/438 437/437 435/435
f 433/433 439/439 434/434
f 434/434 439/439 440/440
f 439/439 441/441 440/440
f 440/440 441/441 442/442
f 442/442 443/443 440/440
f 435/435 434/434 443/443
f 443/443 434/434 440/440
f 443/443 438/438 435/435
f 444/444 443/443 442/442
f 445/445 443/443 444/444
f 445/445 438/438 443/443
f 446/446 433/433 432/432
f 447/447 433/433 446/446
f 447/447 439/439 433/433
f 448/448 441/441 439/439
f 448/448 439/439 447/447
f 449/449 441/441 448/448
f 447/447 446/446 450/450
f 450/450 446/446 451/451
f 451/451 452/452 450/450
f 450/450 452/452 453/453
f 449/449 448/448 454/454
f 448/448 447/447 454/454
f 454/454 447/447 450/450
f 453/453 454/454 450/450
f 449/449 454/454 455/455
f 455/455 454/454 456/456
f 456/456 454/454 453/453
f 451/451 446/446 457/457
f 457/457 452/452 451/451
f 457/457 446/446 458/458
f 458/458 459/459 457/457
f 459/459 460/460 457/457
f 460/460 452/452 457/457
f 461/461 460/460 459/459
f 462/462 461/461 459/459
f 463/463 459/459 458/458
f 459/459 463/463 464/464
f 463/463 458/458 417/417
f 417/417 458/458 422/422
f 464/464 463/463 465/465
f 465/465 463/463 417/417
f 417/417 419/419 465/465
f 458/458 446/446 422/422
f 422/422 446/446 432/432
f 464/464 466/466 459/459
f 466/466 467/467 459/459
f 459/459 467/467 468/468
f 459/459 468/468 462/462
f 469/469 470/470 471/471
f 470/470 469/469 472/472
f 473/473 469/469 471/471
f 474/474 469/469 473/473
f 469/469 474/474 475/475
f 475/475 474/474 476/476
f 477/477 469/469 475/475
f 469/469 477/477 478/478
f 479/479 474/474 473/473
f 480/480 474/474 479/479
f 474/474 480/480 476/476
f 481/481 480/480 479/479
f 482/482 480/480 481/481
f 480/480 482/482 483/483
f 476/476 480/480 483/483
f 483/483 482/482 484/484
f 485/485 482/482 481/481
f 486/486 482/482 485/485
f 482/482 486/486 484/484
f 487/487 486/486 485/485
f 488/488 486/486 487/487
f 489/489 486/486 488/488
f 484/484 486/486 489/489
f 469/469 478/478 490/490
f 469/469 490/490 472/472
f 491/491 492/492 493/493
f 492/492 491/491 494/494
f 495/495 491/491 493/493
f 496/496 491/491 495/495
f 491/491 496/496 497/497
f 497/497 496/496 498/498
f 499/499 491/491 497/497
f 500/500 499/499 497/497
f 498/498 500/500 497/497
f 491/491 499/499 501/501
f 499/499 500/500 502/502
f 503/503 500/500 498/498
f 500/500 503/503 504/504
f 504/504 503/503 505/505
f 506/506 500/500 504/504
f 507/507 506/506 504/504
f 505/505 507/507 504/504
f 500/500 506/506 508/508
f 506/506 507/507 509/509
f 510/510 507/507 505/505
f 507/507 510/510 511/511
f 511/511 510/510 512/512
f 513/513 507/507 511/511
f 507/507 513/513 514/514
f 503/503 515/515 505/505
f 515/515 503/503 516/516
f 517/517 515/515 516/516
f 516/516 518/518 517/517
f 519/519 518/518 516/516
f 518/518 519/519 520/520
f 520/520 519/519 521/521
f 522/522 515/515 517/517
f 515/515 522/522 523/523
f 523/523 522/522 524/524
f 524/524 525/525 523/523
f 525/525 510/510 523/523
f 510/510 525/525 512/512
f 526/526 525/525 524/524
f 525/525 526/526 527/527
f 512/512 525/525 527/527
f 527/527 526/526 528/528
f 529/529 518/518 520/520
f 530/530 518/518 529/529
f 518/518 530/530 517/517
f 531/531 530/530 529/529
f 532/532 530/530 531/531
f 533/533 530/530 532/532
f 532/532 534/534 533/533
f 534/534 522/522 533/533
f 522/522 534/534 524/524
f 517/517 530/530 533/533
f 533/533 522/522 517/517
f 524/524 534/534 535/535
f 535/535 526/526 524/524
f 534/534 536/536 535/535
f 537/537 526/526 535/535
f 526/526 537/537 528/528
f 535/535 536/536 537/537
f 528/528 537/537 538/538
f 539/539 538/538 537/537
f 540/540 541/541 542/542
f 542/542 543/543 540/540
f 544/544 545/545 546/546
f 546/546 545/545 547/547
f 547/547 545/545 548/548
f 545/545 549/549 548/548
f 550/550 549/549 545/545
f 549/549 550/550 551/551
f 551/551 550/550 552/552
f 552/552 550/550 553/553
f 553/553 550/550 554/554
f 550/550 545/545 554/554
f 554/554 545/545 544/544
f 552/552 555/555 551/551
f 556/556 555/555 552/552
f 556/556 557/557 555/555
f 557/557 556/556 558/558
f 558/558 556/556 559/559
f 556/556 552/552 559/559
f 559/559 552/552 553/553
f 560/560 557/557 558/558
f 557/557 560/560 561/561
f 555/555 557/557 562/562
f 557/557 563/563 562/562
f 563/563 557/557 564/564
f 557/557 565/565 564/564
f 557/557 561/561 565/565
f 519/519 496/496 521/521
f 521/521 496/496 495/495
f 496/496 519/519 498/498
f 498/498 519/519 516/516
f 516/516 503/503 498/498
f 505/505 515/515 523/523
f 523/523 510/510 505/505
f 566/566 567/567 568/568
f 567/567 566/566 569/569
f 569/569 566/566 570/570
f 571/571 570/570 566/566
f 572/572 570/570 571/571
f 573/573 571/571 566/566
f 570/570 574/574 569/569
f 575/575 574/574 570/570
f 572/572 575/575 570/570
f 574/574 575/575 576/576
f 576/576 575/575 577/577
f 578/578 577/577 575/575
f 578/578 575/575 572/572
f 579/579 577/577 578/578
f 577/577 580/580 576/576
f 581/581 580/580 577/577
f 579/579 581/581 577/577
f 582/582 580/580 581/581
f 581/581 583/583 582/582
f 584/584 583/583 581/581
f 584/584 581/581 579/579
f 566/566 585/585 573/573
f 566/566 586/586 585/585
f 587/587 586/586 566/566
f 568/568 587/587 566/566
f 588/588 589/589 590/590
f 589/589 588/588 591/591
f 591/591 588/588 592/592
f 593/593 592/592 588/588
f 594/594 592/592 593/593
f 595/595 593/593 588/588
f 596/596 593/593 595/595
f 593/593 596/596 594/594
f 594/594 596/596 597/597
f 598/598 597/597 596/596
f 599/599 597/597 598/598
f 600/600 598/598 596/596
f 601/601 598/598 600/600
f 598/598 601/601 599/599
f 599/599 601/601 602/602
f 603/603 602/602 601/601
f 604/604 602/602 603/603
f 605/605 603/603 601/601
f 592/592 606/606 591/591
f 607/607 606/606 592/592
f 594/594 607/607 592/592
f 606/606 607/607 608/608
f 608/608 607/607 609/609
f 610/610 609/609 607/607
f 611/611 609/609 610/610
f 610/610 612/612 611/611
f 612/612 610/610 597/597
f 599/599 612/612 597/597
f 611/611 612/612 613/613
f 614/614 613/613 612/612
f 614/614 612/612 599/599
f 602/602 614/614 599/599
f 615/615 613/613 614/614
f 614/614 616/616 615/615
f 616/616 614/614 602/602
f 604/604 616/616 602/602
f 615/615 616/616 617/617
f 618/618 617/617 616/616
f 618/618 616/616 604/604
f 619/619 617/617 618/618
f 609/609 620/620 608/608
f 621/621 620/620 609/609
f 611/611 621/621 609/609
f 622/622 620/620 621/621
f 621/621 623/623 622/622
f 624/624 623/623 621/621
f 624/624 621/621 611/611
f 613/613 624/624 611/611
f 623/623 624/624 625/625
f 625/625 624/624 613/613
f 615/615 625/625 613/613
f 626/626 625/625 615/615
f 617/617 626/626 615/615
f 626/626 627/627 625/625
f 628/628 627/627 626/626
f 628/628 626/626 617/617
f 619/619 628/628 617/617
f 629/629 628/628 619/619
f 629/629 630/630 628/628
f 631/631 632/632 633/633
f 633/633 634/634 631/631
f 635/635 636/636 637/637
f 637/637 636/636 638/638
f 638/638 639/639 637/637
f 639/639 640/640 637/637
f 637/637 640/640 641/641
f 640/640 642/642 641/641
f 641/641 642/642 643/643
f 644/644 641/641 643/643
f 645/645 641/641 644/644
f 635/635 637/637 645/645
f 645/645 637/637 641/641
f 642/642 646/646 643/643
f 643/643 646/646 647/647
f 646/646 648/648 647/647
f 649/649 647/647 648/648
f 650/650 647/647 649/649
f 644/644 643/643 650/650
f 650/650 643/643 647/647
f 651/651 649/649 648/648
f 652/652 648/648 646/646
f 648/648 652/652 653/653
f 653/653 654/654 648/648
f 654/654 655/655 648/648
f 648/648 655/655 656/656
f 648/648 656/656 651/651
f 588/588 657/657 658/658
f 659/659 657/657 588/588
f 590/590 659/659 588/588
f 588/588 658/658 595/595
f 595/595 660/660 596/596
f 660/660 661/661 596/596
f 596/596 661/661 662/662
f 596/596 662/662 600/600
f 600/600 663/663 601/601
f 663/663 664/664 601/601
f 601/601 664/664 665/665
f 601/601 665/665 605/605
f 610/610 607/607 594/594
f 597/597 610/610 594/594
f 424/424 666/666 425/425
f 424/424 430/430 666/666
f 491/491 667/667 494/494
f 491/491 501/501 667/667
f 500/500 668/668 502/502
f 500/500 508/508 668/668
f 507/507 669/669 509/509
f 507/507 514/514 669/669
f 670/670 671/671 672/672
f 673/673 670/670 672/672
f 673/673 672/672 674/674
f 674/674 672/672 671/671
f 675/675 670/670 673/673
f 675/675 673/673 674/674
f 671/671 670/670 675/675
f 671/671 675/675 674/674
f 676/676 677/677 678/678
f 679/679 676/676 678/678
f 679/679 678/678 680/680
f 680/680 678/678 677/677
f 681/681 676/676 679/679
f 681/681 679/679 680/680
f 677/677 676/676 681/681
f 677/677 681/681 680/680
f 682/682 683/683 684/684
f 682/682 684/684 685/685
f 685/685 684/684 686/686
f 685/685 686/686 687/687
f 687/687 686/686 688/688
f 687/687 688/688 689/689
f 690/690 689/689 688/688
f 691/691 689/689 690/690
f 692/692 683/683 682/682
f 693/693 692/692 682/682
f 694/694 692/692 693/693
f 695/695 694/694 693/693
f 696/696 694/694 695/695
f 697/697 696/696 695/695
f 697/697 698/698 696/696
f 697/697 699/699 698/698
f 700/700 701/701 702/702
f 703/703 704/704 705/705
f 706/706 707/707 708/708
f 709/709 707/707 706/706
f 710/710 709/709 706/706
f 711/711 710/710 706/706
f 711/711 706/706 712/712
f 706/706 713/713 712/712
f 708/708 713/713 706/706
f 714/714 713/713 708/708
f 708/708 707/707 714/714
f 714/714 707/707 715/715
f 716/716 714/714 715/715
f 716/716 717/717 714/714
f 717/717 718/718 714/714
f 718/718 713/713 714/714
