mtllib options111.mtl
o options111
v -0.03456 -0.18450 2.83518 0.941 0.000 0.000
v -0.00180 -0.19620 2.80260 0.843 0.000 0.000
v 0.00450 -0.19530 2.83230 0.843 0.000 0.000
v -0.02790 -0.17820 2.78730 0.843 0.000 0.000
v 0.02610 -0.16740 2.81340 0.882 0.000 0.000
v 0.05850 -0.12240 2.86290 0.820 0.000 0.000
v -0.00180 -0.20520 2.76660 0.918 0.000 0.000
v -0.01260 -0.11700 2.79180 0.882 0.000 0.000
v 0.03780 -0.05580 2.83320 0.882 0.000 0.000
v 0.07920 -0.07560 2.88540 0.808 0.000 0.000
v 0.09900 -0.03150 2.89260 0.776 0.000 0.000
v 0.04212 -0.07938 2.91312 0.000 0.792 0.000
v 0.01836 -0.15588 2.87766 0.000 0.808 0.000
v 0.00000 -0.15660 2.93040 0.000 1.000 0.000
v 0.00036 -0.18360 2.86290 0.000 0.882 0.000
v 0.06120 -0.14580 3.08160 0.000 0.859 0.000
v 0.00540 -0.21780 2.88000 0.867 0.000 0.000
v 0.07740 -0.09180 3.00780 0.753 0.000 0.000
v 0.06480 -0.07290 2.93400 0.780 0.000 0.000
v 0.06840 -0.04500 2.94120 0.843 0.000 0.000
v 0.07200 -0.06300 3.01680 0.741 0.000 0.000
v 0.08226 -0.04500 2.91510 0.812 0.000 0.000
v 0.06300 -0.02430 2.90070 0.922 0.000 0.000
v 0.08100 -0.13140 3.08160 0.784 0.000 0.000
v 0.06480 -0.10980 3.09240 0.710 0.000 0.000
v 0.08820 -0.19080 3.13380 0.000 0.686 0.000
v 0.11520 -0.19260 3.17520 0.000 0.686 0.000
v 0.07920 -0.17820 3.09600 0.000 0.765 0.000
v 0.06120 -0.18900 3.06540 0.000 0.765 0.000
v 0.07380 -0.20520 3.09420 0.000 0.686 0.000
v 0.02160 -0.20520 2.96820 0.000 0.855 0.000
v 0.02880 -0.22140 2.98080 0.804 0.000 0.000
v 0.00270 -0.20250 2.89260 0.000 0.902 0.000
v -0.04140 -0.19260 2.97180 0.710 0.102 0.000
v 0.00054 -0.16506 3.05370 0.737 0.000 0.000
v 0.06120 -0.18900 3.06540 0.000 0.765 0.000
v -0.06660 -0.14760 3.00060 0.780 0.000 0.000
v -0.08730 -0.14220 2.87460 0.941 0.000 0.000
v -0.08982 -0.09900 2.88972 0.941 0.000 0.000
v 0.01116 -0.12150 3.07926 0.737 0.000 0.000
v -0.03600 -0.08640 3.00240 0.776 0.000 0.000
v 0.07200 -0.06300 3.01680 0.741 0.000 0.000
v 0.06480 -0.10980 3.09240 0.710 0.000 0.000
v 0.04140 -0.14040 3.11220 0.000 0.725 0.000
v 0.11520 -0.19260 3.17520 0.000 0.686 0.000
v 0.08820 -0.19080 3.13380 0.000 0.686 0.000
v 0.03240 -0.17100 3.07620 0.000 0.725 0.000
v 0.07920 -0.17820 3.09600 0.000 0.765 0.000
v 0.07380 -0.20520 3.09420 0.000 0.686 0.000
v -0.07704 -0.07290 2.91078 0.941 0.000 0.000
v -0.05346 -0.05040 2.92464 0.941 0.000 0.000
v 0.01278 -0.03330 2.93778 0.894 0.000 0.000
v 0.06840 -0.04500 2.94120 0.843 0.000 0.000
v -0.11160 -0.04590 2.89134 0.765 0.000 0.000
v -0.08982 -0.09900 2.88972 0.941 0.000 0.000
v -0.10458 -0.09540 2.85948 0.941 0.000 0.000
v -0.05346 -0.05040 2.92464 0.941 0.000 0.000
v -0.05832 -0.04050 2.89692 0.941 0.000 0.000
v -0.05346 -0.05040 2.92464 0.941 0.000 0.000
v -0.03708 -0.00270 2.91222 0.847 0.000 0.000
v -0.05832 -0.04050 2.89692 0.941 0.000 0.000
v 0.01278 -0.03330 2.93778 0.894 0.000 0.000
v 0.01080 -0.01800 2.90700 0.922 0.000 0.000
v 0.03834 -0.14544 2.96604 0.000 0.843 0.000
v 0.04212 -0.07938 2.91312 0.000 0.792 0.000
v 0.05724 -0.14778 3.00744 0.000 0.686 0.000
v 0.08172 -0.12618 3.06018 0.000 0.686 0.000
v 0.03708 -0.18702 2.96064 0.000 0.686 0.000
v 0.02628 -0.16290 2.92086 0.000 0.843 0.000
v 0.01674 -0.19098 2.89908 0.000 0.725 0.000
v 0.01836 -0.15588 2.87766 0.000 0.808 0.000
v -0.08226 -0.15120 2.80818 0.941 0.000 0.000
v -0.04734 -0.16200 2.78316 0.941 0.000 0.000
v -0.06948 -0.18630 2.77146 0.804 0.000 0.000
v -0.01260 -0.11700 2.79180 0.882 0.000 0.000
v -0.02790 -0.17820 2.78730 0.843 0.000 0.000
v -0.06948 -0.18630 2.77146 0.804 0.000 0.000
v -0.00180 -0.20520 2.76660 0.918 0.000 0.000
v 0.02610 -0.16740 2.81340 0.882 0.000 0.000
v -0.12924 -0.13410 2.81736 0.765 0.000 0.000
v -0.10458 -0.09540 2.85948 0.941 0.000 0.000
v 0.03780 -0.05580 2.83320 0.882 0.000 0.000
v -0.11160 -0.04590 2.89134 0.765 0.000 0.000
v -0.05832 -0.04050 2.89692 0.941 0.000 0.000
v -0.03708 -0.00270 2.91222 0.847 0.000 0.000
v 0.01080 -0.01800 2.90700 0.922 0.000 0.000
v 0.04320 -0.00270 2.90520 0.765 0.000 0.000
v 0.06300 -0.02430 2.90070 0.922 0.000 0.000
v 0.09900 -0.03150 2.89260 0.776 0.000 0.000
v -0.08226 -0.15120 2.80818 0.941 0.000 0.000
v -0.05760 -0.18000 2.80296 0.878 0.000 0.000
v -0.05886 -0.16542 2.84886 0.941 0.000 0.000
v -0.06948 -0.18630 2.77146 0.804 0.000 0.000
v -0.05760 -0.18000 2.80296 0.878 0.000 0.000
v -0.06948 -0.18630 2.77146 0.804 0.000 0.000
v -0.12924 -0.13410 2.81736 0.765 0.000 0.000
v -0.08226 -0.15120 2.80818 0.941 0.000 0.000
v -0.10710 -0.13608 2.84346 0.882 0.000 0.000
v -0.05886 -0.16542 2.84886 0.941 0.000 0.000
v -0.10458 -0.09540 2.85948 0.941 0.000 0.000
v -0.08982 -0.09900 2.88972 0.941 0.000 0.000
v -0.08730 -0.14220 2.87460 0.941 0.000 0.000
v 0.04320 -0.00270 2.90520 0.765 0.000 0.000
v 0.01080 -0.01800 2.90700 0.922 0.000 0.000
v 0.04338 -0.01890 2.92140 0.843 0.000 0.000
v 0.01278 -0.03330 2.93778 0.894 0.000 0.000
v 0.06840 -0.04500 2.94120 0.843 0.000 0.000
v 0.04338 -0.01890 2.92140 0.843 0.000 0.000
v 0.06300 -0.02430 2.90070 0.922 0.000 0.000
v 0.00450 0.19530 2.83230 0.843 0.000 0.000
v -0.00180 0.19620 2.80260 0.843 0.000 0.000
v -0.03456 0.18450 2.83518 0.941 0.000 0.000
v -0.02790 0.17820 2.78730 0.843 0.000 0.000
v 0.02610 0.16740 2.81340 0.882 0.000 0.000
v 0.05850 0.12240 2.86290 0.820 0.000 0.000
v -0.00180 0.20520 2.76660 0.918 0.000 0.000
v -0.01260 0.11700 2.79180 0.882 0.000 0.000
v 0.03780 0.05580 2.83320 0.882 0.000 0.000
v 0.07920 0.07560 2.88540 0.808 0.000 0.000
v 0.09900 0.03150 2.89260 0.776 0.000 0.000
v 0.04212 0.07938 2.91312 0.000 0.792 0.000
v 0.01836 0.15588 2.87766 0.000 0.808 0.000
v 0.00000 0.15660 2.93040 0.000 1.000 0.000
v 0.00036 0.18360 2.86290 0.000 0.882 0.000
v 0.06120 0.14580 3.08160 0.000 0.859 0.000
v 0.00540 0.21780 2.88000 0.867 0.000 0.000
v -0.04140 0.19260 2.97180 0.710 0.102 0.000
v 0.02880 0.22140 2.98080 0.804 0.000 0.000
v 0.07740 0.09180 3.00780 0.753 0.000 0.000
v 0.06480 0.07290 2.93400 0.780 0.000 0.000
v 0.06840 0.04500 2.94120 0.843 0.000 0.000
v 0.07200 0.06300 3.01680 0.741 0.000 0.000
v 0.08226 0.04500 2.91510 0.812 0.000 0.000
v 0.06300 0.02430 2.90070 0.922 0.000 0.000
v 0.08100 0.13140 3.08160 0.784 0.000 0.000
v 0.06480 0.10980 3.09240 0.710 0.000 0.000
v 0.08820 0.19080 3.13380 0.000 0.686 0.000
v 0.11520 0.19260 3.17520 0.000 0.686 0.000
v 0.07920 0.17820 3.09600 0.000 0.765 0.000
v 0.06120 0.18900 3.06540 0.000 0.765 0.000
v 0.07380 0.20520 3.09420 0.000 0.686 0.000
v 0.02160 0.20520 2.96820 0.000 0.855 0.000
v 0.00270 0.20250 2.89260 0.000 0.902 0.000
v 0.06120 0.18900 3.06540 0.000 0.765 0.000
v 0.00054 0.16506 3.05370 0.737 0.000 0.000
v -0.06660 0.14760 3.00060 0.780 0.000 0.000
v -0.08730 0.14220 2.87460 0.941 0.000 0.000
v -0.08982 0.09900 2.88972 0.941 0.000 0.000
v 0.01116 0.12150 3.07926 0.737 0.000 0.000
v -0.03600 0.08640 3.00240 0.776 0.000 0.000
v 0.07200 0.06300 3.01680 0.741 0.000 0.000
v 0.06480 0.10980 3.09240 0.710 0.000 0.000
v 0.04140 0.14040 3.11220 0.000 0.725 0.000
v 0.11520 0.19260 3.17520 0.000 0.686 0.000
v 0.08820 0.19080 3.13380 0.000 0.686 0.000
v 0.03240 0.17100 3.07620 0.000 0.725 0.000
v 0.07920 0.17820 3.09600 0.000 0.765 0.000
v 0.07380 0.20520 3.09420 0.000 0.686 0.000
v -0.05886 0.16542 2.84886 0.941 0.000 0.000
v -0.05760 0.18000 2.80296 0.878 0.000 0.000
v -0.08226 0.15120 2.80818 0.941 0.000 0.000
v -0.06948 0.18630 2.77146 0.804 0.000 0.000
v 0.01278 0.03330 2.93778 0.894 0.000 0.000
v -0.05346 0.05040 2.92464 0.941 0.000 0.000
v -0.07704 0.07290 2.91078 0.941 0.000 0.000
v -0.08982 0.09900 2.88972 0.941 0.000 0.000
v -0.11160 0.04590 2.89134 0.765 0.000 0.000
v -0.10458 0.09540 2.85948 0.941 0.000 0.000
v -0.05346 0.05040 2.92464 0.941 0.000 0.000
v -0.05832 0.04050 2.89692 0.941 0.000 0.000
v -0.05760 0.18000 2.80296 0.878 0.000 0.000
v -0.06948 0.18630 2.77146 0.804 0.000 0.000
v 0.06840 0.04500 2.94120 0.843 0.000 0.000
v -0.05832 0.04050 2.89692 0.941 0.000 0.000
v -0.03708 0.00270 2.91222 0.847 0.000 0.000
v -0.05346 0.05040 2.92464 0.941 0.000 0.000
v 0.01278 0.03330 2.93778 0.894 0.000 0.000
v 0.01080 0.01800 2.90700 0.922 0.000 0.000
v 0.05724 0.14778 3.00744 0.000 0.686 0.000
v 0.04212 0.07938 2.91312 0.000 0.792 0.000
v 0.03834 0.14544 2.96604 0.000 0.843 0.000
v 0.08172 0.12618 3.06018 0.000 0.686 0.000
v 0.03708 0.18702 2.96064 0.000 0.686 0.000
v 0.02628 0.16290 2.92086 0.000 0.843 0.000
v 0.01674 0.19098 2.89908 0.000 0.725 0.000
v 0.01836 0.15588 2.87766 0.000 0.808 0.000
v -0.06948 0.18630 2.77146 0.804 0.000 0.000
v -0.04734 0.16200 2.78316 0.941 0.000 0.000
v -0.08226 0.15120 2.80818 0.941 0.000 0.000
v -0.01260 0.11700 2.79180 0.882 0.000 0.000
v -0.12924 0.13410 2.81736 0.765 0.000 0.000
v -0.02790 0.17820 2.78730 0.843 0.000 0.000
v -0.06948 0.18630 2.77146 0.804 0.000 0.000
v -0.00180 0.20520 2.76660 0.918 0.000 0.000
v 0.02610 0.16740 2.81340 0.882 0.000 0.000
v -0.10458 0.09540 2.85948 0.941 0.000 0.000
v 0.03780 0.05580 2.83320 0.882 0.000 0.000
v -0.11160 0.04590 2.89134 0.765 0.000 0.000
v -0.05832 0.04050 2.89692 0.941 0.000 0.000
v -0.03708 0.00270 2.91222 0.847 0.000 0.000
v 0.01080 0.01800 2.90700 0.922 0.000 0.000
v 0.04320 0.00270 2.90520 0.765 0.000 0.000
v 0.06300 0.02430 2.90070 0.922 0.000 0.000
v 0.09900 0.03150 2.89260 0.776 0.000 0.000
v -0.10710 0.13608 2.84346 0.882 0.000 0.000
v -0.08226 0.15120 2.80818 0.941 0.000 0.000
v -0.12924 0.13410 2.81736 0.765 0.000 0.000
v -0.05886 0.16542 2.84886 0.941 0.000 0.000
v -0.10458 0.09540 2.85948 0.941 0.000 0.000
v -0.08982 0.09900 2.88972 0.941 0.000 0.000
v -0.08730 0.14220 2.87460 0.941 0.000 0.000
v 0.04338 0.01890 2.92140 0.843 0.000 0.000
v 0.01080 0.01800 2.90700 0.922 0.000 0.000
v 0.04320 0.00270 2.90520 0.765 0.000 0.000
v 0.01278 0.03330 2.93778 0.894 0.000 0.000
v 0.04338 0.01890 2.92140 0.843 0.000 0.000
v 0.06840 0.04500 2.94120 0.843 0.000 0.000
v 0.06300 0.02430 2.90070 0.922 0.000 0.000
vt 0.47844 0.28844
vt 0.51533 0.19517
vt 0.53219 0.28594
vt 0.44844 0.15406
vt 0.61240 0.19875
vt 0.80400 0.29833
vt 0.51533 0.00781
vt 0.73458 0.19941
vt 0.88990 0.19446
vt 0.89131 0.29810
vt 0.91707 0.12864
vt 0.89069 0.44304
vt 0.73261 0.39075
vt 0.72674 0.53094
vt 0.59958 0.38094
vt 0.84222 0.81459
vt 0.52656 0.41380
vt 0.93757 0.63263
vt 0.94513 0.44298
vt 0.99456 0.43793
vt 0.99456 0.63170
vt 0.95832 0.30328
vt 0.97456 0.20449
vt 0.90583 0.79591
vt 0.98945 0.77222
vt 0.84790 0.94839
vt 0.98502 0.98761
vt 0.76399 0.91312
vt 0.72621 0.84606
vt 0.61831 0.94240
vt 0.63764 0.63038
vt 0.56294 0.66686
vt 0.58161 0.44808
vt 0.42597 0.59417
vt 0.27467 0.73541
vt 0.39699 0.79106
vt 0.28151 0.61409
vt 0.34520 0.40582
vt 0.28150 0.43862
vt 0.14504 0.73922
vt 0.13987 0.58228
vt 0.00592 0.62170
vt 0.00554 0.78632
vt 0.10176 0.82820
vt 0.00516 0.99218
vt 0.15798 0.95838
vt 0.26906 0.77585
vt 0.30348 0.88812
vt 0.43196 0.89740
vt 0.20562 0.45176
vt 0.13975 0.39490
vt 0.03793 0.38971
vt 0.00592 0.38293
vt 0.21388 0.36429
vt 0.28650 0.46862
vt 0.33055 0.39099
vt 0.14476 0.44490
vt 0.13761 0.36388
vt 0.18475 0.43990
vt 0.15237 0.31843
vt 0.20261 0.37388
vt 0.09293 0.42971
vt 0.09959 0.34094
vt 0.16330 0.22941
vt 0.30303 0.02555
vt 0.20219 0.31605
vt 0.29187 0.36669
vt 0.08907 0.23553
vt 0.06811 0.15707
vt 0.00666 0.09584
vt 0.11495 0.01326
vt 0.83505 0.17372
vt 0.88601 0.15880
vt 0.91800 0.19484
vt 0.79495 0.01967
vt 0.93441 0.11726
vt 0.91800 0.19484
vt 0.97172 0.09605
vt 0.88337 0.02279
vt 0.80909 0.21098
vt 0.76029 0.19615
vt 0.68149 0.01755
vt 0.68731 0.23781
vt 0.65469 0.18266
vt 0.61572 0.19369
vt 0.60397 0.11210
vt 0.54879 0.10631
vt 0.55522 0.05757
vt 0.52211 0.02008
vt 0.37031 0.31281
vt 0.40971 0.23328
vt 0.42690 0.34051
vt 0.34469 0.18594
vt 0.40971 0.23328
vt 0.34469 0.18594
vt 0.30281 0.33281
vt 0.37031 0.33281
vt 0.35085 0.40449
vt 0.46190 0.38051
vt 0.29056 0.46599
vt 0.32149 0.52362
vt 0.39020 0.45082
vt 0.05156 0.28060
vt 0.11409 0.33338
vt 0.05266 0.33464
vt 0.10245 0.41393
vt 0.00631 0.41559
vt 0.05266 0.33464
vt 0.00431 0.33429
vt 0.53219 0.28594
vt 0.51533 0.19517
vt 0.47844 0.28844
vt 0.44844 0.15406
vt 0.61240 0.19875
vt 0.80400 0.29833
vt 0.51533 0.00781
vt 0.73458 0.19941
vt 0.88990 0.19446
vt 0.89131 0.29810
vt 0.91707 0.12864
vt 0.89069 0.44304
vt 0.73261 0.39075
vt 0.72674 0.53094
vt 0.59958 0.38094
vt 0.84222 0.81459
vt 0.52656 0.41380
vt 0.42597 0.59417
vt 0.56294 0.66686
vt 0.93757 0.63263
vt 0.94513 0.44298
vt 0.99456 0.43793
vt 0.99456 0.63170
vt 0.95832 0.30328
vt 0.97456 0.20449
vt 0.90583 0.79591
vt 0.98945 0.77222
vt 0.84790 0.94839
vt 0.98502 0.98761
vt 0.76399 0.91312
vt 0.72621 0.84606
vt 0.61831 0.94240
vt 0.63764 0.63038
vt 0.58161 0.44808
vt 0.39699 0.79106
vt 0.27467 0.73541
vt 0.28151 0.61409
vt 0.34520 0.40582
vt 0.28150 0.43862
vt 0.14504 0.73922
vt 0.13987 0.58228
vt 0.00592 0.62170
vt 0.00554 0.78632
vt 0.10176 0.82820
vt 0.00516 0.99218
vt 0.15798 0.95838
vt 0.26906 0.77585
vt 0.30348 0.88812
vt 0.43196 0.89740
vt 0.42690 0.34051
vt 0.40971 0.23328
vt 0.37031 0.31281
vt 0.34469 0.18594
vt 0.03793 0.38971
vt 0.13975 0.39490
vt 0.20562 0.45176
vt 0.28650 0.46862
vt 0.21388 0.36429
vt 0.33055 0.39099
vt 0.14476 0.44490
vt 0.13761 0.36388
vt 0.40971 0.23328
vt 0.34469 0.18594
vt 0.00592 0.38293
vt 0.20261 0.37388
vt 0.15237 0.31843
vt 0.18475 0.43990
vt 0.09293 0.42971
vt 0.07459 0.34094
vt 0.20219 0.31605
vt 0.30303 0.02555
vt 0.16330 0.22941
vt 0.29187 0.36669
vt 0.08907 0.23553
vt 0.06811 0.15707
vt 0.00666 0.09584
vt 0.11495 0.01326
vt 0.91800 0.19484
vt 0.88601 0.15880
vt 0.83505 0.17372
vt 0.79495 0.01967
vt 0.80909 0.21098
vt 0.93441 0.11726
vt 0.91800 0.19484
vt 0.97172 0.09605
vt 0.88337 0.02279
vt 0.76029 0.19615
vt 0.68149 0.01755
vt 0.68731 0.23781
vt 0.65469 0.18266
vt 0.61572 0.19369
vt 0.60397 0.11210
vt 0.54879 0.10631
vt 0.55522 0.05757
vt 0.52211 0.02008
vt 0.35085 0.40449
vt 0.37031 0.33281
vt 0.30281 0.33281
vt 0.46190 0.38051
vt 0.29056 0.46599
vt 0.32149 0.52362
vt 0.39020 0.45082
vt 0.05266 0.33464
vt 0.11409 0.33338
vt 0.05156 0.28060
vt 0.10245 0.41393
vt 0.05266 0.33464
vt 0.00631 0.41559
vt 0.00431 0.33429
usemtl m0
f 1/1 2/2 3/3
f 2/2 1/1 4/4
f 3/3 2/2 5/5
f 3/3 5/5 6/6
f 2/2 7/7 5/5
f 4/4 7/7 2/2
f 6/6 5/5 8/8
f 6/6 8/8 9/9
f 10/10 6/6 9/9
f 10/10 9/9 11/11
f 10/10 12/12 6/6
f 3/3 6/6 13/13
f 6/6 12/12 13/13
f 14/14 13/13 12/12
f 14/14 15/15 13/13
f 3/3 13/13 15/15
f 16/16 14/14 12/12
f 1/1 3/3 17/17
f 16/16 12/12 18/18
f 12/12 19/19 18/18
f 12/12 10/10 19/19
f 19/19 20/20 18/18
f 18/18 20/20 21/21
f 19/19 10/10 22/22
f 22/22 10/10 11/11
f 19/19 22/22 20/20
f 23/23 20/20 22/22
f 23/23 22/22 11/11
f 24/24 18/18 21/21
f 16/16 18/18 24/24
f 25/25 24/24 21/21
f 16/16 24/24 26/26
f 26/26 24/24 27/27
f 27/27 24/24 25/25
f 28/28 16/16 26/26
f 28/28 29/29 16/16
f 30/30 29/29 28/28
f 29/29 31/31 16/16
f 31/31 14/14 16/16
f 32/32 31/31 29/29
f 32/32 33/33 31/31
f 31/31 33/33 14/14
f 32/32 17/17 33/33
f 34/34 17/17 32/32
f 34/34 1/1 17/17
f 17/17 3/3 33/33
f 33/33 3/3 15/15
f 33/33 15/15 14/14
f 35/35 34/34 32/32
f 35/35 32/32 36/36
f 37/37 34/34 35/35
f 37/37 38/38 34/34
f 39/39 38/38 37/37
f 40/40 37/37 35/35
f 41/41 37/37 40/40
f 42/42 41/41 40/40
f 43/43 42/42 40/40
f 43/43 40/40 44/44
f 45/45 43/43 44/44
f 45/45 44/44 46/46
f 44/44 47/47 46/46
f 40/40 47/47 44/44
f 47/47 35/35 36/36
f 40/40 35/35 47/47
f 46/46 47/47 48/48
f 48/48 47/47 49/49
f 47/47 36/36 49/49
f 39/39 37/37 50/50
f 50/50 37/37 41/41
f 41/41 51/51 50/50
f 51/51 41/41 52/52
f 52/52 41/41 42/42
f 52/52 42/42 53/53
f 54/54 55/55 50/50
f 55/55 54/54 56/56
f 54/54 50/50 57/57
f 58/58 54/54 57/57
f 59/59 60/60 61/61
f 60/60 59/59 62/62
f 60/60 62/62 63/63
f 64/64 65/65 66/66
f 66/66 65/65 67/67
f 68/68 65/65 64/64
f 68/68 69/69 65/65
f 69/69 70/70 65/65
f 70/70 71/71 65/65
f 72/72 73/73 74/74
f 75/75 73/73 72/72
f 73/73 75/75 76/76
f 73/73 76/76 77/77
f 76/76 75/75 78/78
f 78/78 75/75 79/79
f 80/80 75/75 72/72
f 81/81 75/75 80/80
f 82/82 75/75 81/81
f 82/82 81/81 83/83
f 82/82 83/83 84/84
f 85/85 82/82 84/84
f 86/86 82/82 85/85
f 87/87 82/82 86/86
f 88/88 82/82 87/87
f 89/89 82/82 88/88
f 90/90 91/91 92/92
f 91/91 90/90 93/93
f 92/92 91/91 1/1
f 1/1 34/34 92/92
f 92/92 34/34 38/38
f 94/94 4/4 1/1
f 95/95 4/4 94/94
f 96/96 97/97 98/98
f 98/98 97/97 99/99
f 98/98 100/100 96/96
f 100/100 98/98 101/101
f 101/101 98/98 102/102
f 98/98 99/99 102/102
f 103/103 104/104 105/105
f 105/105 104/104 106/106
f 106/106 107/107 108/108
f 107/107 109/109 108/108
f 108/108 109/109 103/103
f 110/110 111/111 112/112
f 113/113 112/112 111/111
f 114/114 111/111 110/110
f 115/115 114/114 110/110
f 114/114 116/116 111/111
f 111/111 116/116 113/113
f 117/117 114/114 115/115
f 118/118 117/117 115/115
f 118/118 115/115 119/119
f 120/120 118/118 119/119
f 115/115 121/121 119/119
f 122/122 115/115 110/110
f 122/122 121/121 115/115
f 121/121 122/122 123/123
f 122/122 124/124 123/123
f 124/124 122/122 110/110
f 121/121 123/123 125/125
f 126/126 110/110 112/112
f 126/126 112/112 127/127
f 128/128 126/126 127/127
f 129/129 121/121 125/125
f 129/129 130/130 121/121
f 130/130 119/119 121/121
f 129/129 131/131 130/130
f 132/132 131/131 129/129
f 133/133 119/119 130/130
f 120/120 119/119 133/133
f 131/131 133/133 130/130
f 133/133 131/131 134/134
f 120/120 133/133 134/134
f 132/132 129/129 135/135
f 135/135 129/129 125/125
f 132/132 135/135 136/136
f 137/137 135/135 125/125
f 138/138 135/135 137/137
f 136/136 135/135 138/138
f 137/137 125/125 139/139
f 125/125 140/140 139/139
f 139/139 140/140 141/141
f 140/140 142/142 128/128
f 125/125 142/142 140/140
f 125/125 123/123 142/142
f 123/123 143/143 142/142
f 142/142 143/143 128/128
f 143/143 126/126 128/128
f 143/143 110/110 126/126
f 124/124 110/110 143/143
f 123/123 124/124 143/143
f 144/144 128/128 145/145
f 128/128 127/127 145/145
f 145/145 127/127 146/146
f 127/127 147/147 146/146
f 146/146 147/147 148/148
f 145/145 146/146 149/149
f 149/149 146/146 150/150
f 149/149 150/150 151/151
f 149/149 151/151 152/152
f 153/153 149/149 152/152
f 153/153 152/152 154/154
f 155/155 153/153 154/154
f 155/155 156/156 153/153
f 153/153 156/156 149/149
f 144/144 145/145 156/156
f 156/156 145/145 149/149
f 157/157 156/156 155/155
f 158/158 156/156 157/157
f 158/158 144/144 156/156
f 147/147 127/127 159/159
f 159/159 127/127 112/112
f 112/112 160/160 159/159
f 159/159 160/160 161/161
f 162/162 161/161 160/160
f 151/151 150/150 163/163
f 163/163 150/150 164/164
f 165/165 164/164 150/150
f 150/150 146/146 165/165
f 165/165 146/146 148/148
f 165/165 166/166 167/167
f 168/168 167/167 166/166
f 169/169 165/165 167/167
f 169/169 167/167 170/170
f 112/112 113/113 171/171
f 171/171 113/113 172/172
f 173/173 151/151 163/163
f 174/174 175/175 176/176
f 177/177 176/176 175/175
f 178/178 177/177 175/175
f 179/179 180/180 181/181
f 182/182 180/180 179/179
f 181/181 180/180 183/183
f 180/180 184/184 183/183
f 180/180 185/185 184/184
f 180/180 186/186 185/185
f 187/187 188/188 189/189
f 189/189 188/188 190/190
f 189/189 190/190 191/191
f 192/192 190/190 188/188
f 193/193 192/192 188/188
f 194/194 190/190 192/192
f 195/195 190/190 194/194
f 191/191 190/190 196/196
f 196/196 190/190 197/197
f 198/198 196/196 197/197
f 198/198 197/197 199/199
f 199/199 197/197 200/200
f 200/200 197/197 201/201
f 201/201 197/197 202/202
f 202/202 197/197 203/203
f 203/203 197/197 204/204
f 205/205 206/206 207/207
f 208/208 206/206 205/205
f 207/207 209/209 205/205
f 210/210 205/205 209/209
f 211/211 205/205 210/210
f 211/211 208/208 205/205
f 212/212 213/213 214/214
f 215/215 213/213 212/212
f 216/216 217/217 215/215
f 216/216 218/218 217/217
f 214/214 218/218 216/216
