mtllib options1305.mtl
o options1305
v 0.01108 -0.12893 2.45718 0.878 0.000 0.000
v 0.01108 -0.16326 2.42285 0.878 0.000 0.000
v 0.01108 -0.15865 2.48690 0.859 0.000 0.000
v 0.01108 -0.19298 2.45257 0.859 0.000 0.000
v 0.01108 -0.14488 2.43880 0.851 0.000 0.000
v 0.01108 -0.17703 2.47095 0.831 0.000 0.000
v 0.01108 -0.13534 2.48049 0.890 0.000 0.000
v 0.01108 -0.18657 2.42926 0.890 0.000 0.000
v 0.02219 -0.16900 2.46292 0.761 0.000 0.000
v -0.00003 -0.16900 2.46292 0.761 0.000 0.000
v 0.01978 -0.15248 2.47820 0.812 0.000 0.000
v 0.01978 -0.18428 2.44640 0.812 0.000 0.000
v 0.00238 -0.15248 2.47820 0.812 0.000 0.000
v 0.00238 -0.18428 2.44640 0.812 0.000 0.000
v 0.01108 -0.14704 2.48749 0.878 0.000 0.000
v 0.01108 -0.19357 2.44096 0.878 0.000 0.000
v 0.01108 -0.12834 2.46879 0.902 0.000 0.000
v 0.01108 -0.17487 2.42226 0.902 0.000 0.000
v 0.01108 -0.20542 2.43774 0.451 0.000 0.451
v 0.01108 -0.20351 2.44381 0.451 0.000 0.451
v 0.01108 -0.19787 2.44674 0.451 0.000 0.451
v 0.01108 -0.19181 2.44483 0.451 0.000 0.451
v 0.01108 -0.18887 2.43920 0.451 0.000 0.451
v 0.01108 -0.19080 2.43313 0.451 0.000 0.451
v 0.01108 -0.19643 2.43020 0.451 0.000 0.451
v 0.01108 -0.20248 2.43211 0.451 0.000 0.451
v 0.00750 -0.19715 2.43846 0.384 0.000 0.384
v 0.01466 -0.19715 2.43846 0.384 0.000 0.384
v 0.01108 -0.14382 2.49934 0.451 0.451 0.000
v 0.01108 -0.14989 2.49743 0.451 0.451 0.000
v 0.01108 -0.15282 2.49179 0.451 0.451 0.000
v 0.01108 -0.15091 2.48573 0.451 0.451 0.000
v 0.01108 -0.14528 2.48279 0.451 0.451 0.000
v 0.01108 -0.13921 2.48470 0.451 0.451 0.000
v 0.01108 -0.13628 2.49034 0.451 0.451 0.000
v 0.01108 -0.13819 2.49640 0.451 0.451 0.000
v 0.00750 -0.14454 2.49107 0.384 0.384 0.000
v 0.01466 -0.14454 2.49107 0.384 0.384 0.000
v 0.01108 -0.24372 2.44060 0.000 0.000 0.788
v 0.01108 -0.23420 2.46677 0.000 0.000 0.788
v 0.01108 -0.21193 2.46353 0.000 0.000 0.839
v 0.01108 -0.20362 2.45790 0.000 0.000 0.878
v 0.01108 -0.19715 2.43846 0.000 0.000 0.902
v 0.01108 -0.21460 2.42775 0.000 0.000 0.878
v 0.01108 -0.22459 2.42878 0.000 0.000 0.839
v 0.00159 -0.21827 2.44615 0.000 0.000 0.780
v 0.02057 -0.21827 2.44615 0.000 0.000 0.780
v 0.01108 -0.24881 2.45133 0.000 0.000 0.741
v 0.01108 -0.24500 2.46182 0.000 0.000 0.741
v 0.01108 -0.19759 2.44976 0.000 0.000 0.902
v 0.01108 -0.20475 2.43009 0.000 0.000 0.902
v 0.01245 -0.14618 2.53764 0.000 0.788 0.000
v 0.02927 -0.16623 2.52812 0.000 0.788 0.000
v 0.02719 -0.16375 2.50585 0.000 0.839 0.000
v 0.02356 -0.15943 2.49754 0.000 0.878 0.000
v 0.01108 -0.14454 2.49107 0.000 0.902 0.000
v 0.00419 -0.13633 2.50852 0.000 0.878 0.000
v 0.00485 -0.13712 2.51851 0.000 0.839 0.000
v 0.00875 -0.15653 2.51217 0.000 0.780 0.000
v 0.02329 -0.14432 2.51217 0.000 0.780 0.000
v 0.01935 -0.15440 2.54273 0.000 0.741 0.000
v 0.02609 -0.16245 2.53892 0.000 0.741 0.000
v 0.01834 -0.15320 2.49151 0.000 0.902 0.000
v 0.00570 -0.13813 2.49867 0.000 0.902 0.000
v 0.01108 -0.20254 2.46832 0.000 0.000 0.000
v 0.01108 -0.20021 2.47396 0.000 0.000 0.000
v 0.01108 -0.19458 2.47630 0.000 0.000 0.000
v 0.01108 -0.18895 2.47396 0.000 0.000 0.000
v 0.01108 -0.18661 2.46832 0.000 0.000 0.000
v 0.01108 -0.18895 2.46269 0.000 0.000 0.000
v 0.01108 -0.19458 2.46037 0.000 0.000 0.000
v 0.01108 -0.20020 2.46269 0.000 0.000 0.000
v 0.00514 -0.19456 2.46832 0.000 0.000 0.000
v 0.01702 -0.19456 2.46832 0.000 0.000 0.000
v 0.01108 -0.18142 2.45875 0.902 0.000 0.000
v 0.01108 -0.18522 2.45497 0.902 0.000 0.000
v 0.01108 -0.19278 2.47012 0.902 0.000 0.000
v 0.01108 -0.19658 2.46632 0.902 0.000 0.000
v 0.01108 -0.17440 2.49646 0.000 0.000 0.000
v 0.01108 -0.18004 2.49412 0.000 0.000 0.000
v 0.01108 -0.18238 2.48848 0.000 0.000 0.000
v 0.01108 -0.18004 2.48285 0.000 0.000 0.000
v 0.01108 -0.17440 2.48053 0.000 0.000 0.000
v 0.01108 -0.16877 2.48285 0.000 0.000 0.000
v 0.01108 -0.16645 2.48848 0.000 0.000 0.000
v 0.01108 -0.16877 2.49412 0.000 0.000 0.000
v 0.00514 -0.17440 2.48848 0.000 0.000 0.000
v 0.01702 -0.17440 2.48848 0.000 0.000 0.000
v 0.01108 -0.16484 2.47534 0.902 0.000 0.000
v 0.01108 -0.16105 2.47912 0.902 0.000 0.000
v 0.01108 -0.17620 2.48670 0.902 0.000 0.000
v 0.01108 -0.17240 2.49050 0.902 0.000 0.000
v 0.01108 -0.17708 2.43074 0.902 0.000 0.000
v 0.01108 -0.18637 2.40988 0.780 0.000 0.000
v 0.01108 -0.18248 2.43614 0.902 0.000 0.000
v 0.01108 -0.19391 2.41106 0.780 0.000 0.000
v 0.01108 -0.18306 2.42476 0.859 0.000 0.000
v 0.01108 -0.18990 2.42872 0.859 0.000 0.000
v 0.01108 -0.13682 2.47100 0.902 0.000 0.000
v 0.01108 -0.11596 2.48027 0.780 0.000 0.000
v 0.01108 -0.14222 2.47640 0.902 0.000 0.000
v 0.01108 -0.11714 2.48783 0.780 0.000 0.000
v 0.01108 -0.13084 2.47698 0.859 0.000 0.000
v 0.01108 -0.13480 2.48382 0.859 0.000 0.000
v 0.01108 -0.16495 2.42374 0.902 0.000 0.000
v 0.01108 -0.17424 2.40287 0.780 0.000 0.000
v 0.01108 -0.17035 2.42914 0.902 0.000 0.000
v 0.01108 -0.18178 2.40406 0.780 0.000 0.000
v 0.01108 -0.17093 2.41776 0.859 0.000 0.000
v 0.01108 -0.17777 2.42172 0.859 0.000 0.000
v 0.01108 -0.12982 2.45887 0.902 0.000 0.000
v 0.01108 -0.10895 2.46814 0.780 0.000 0.000
v 0.01108 -0.13522 2.46427 0.902 0.000 0.000
v 0.01108 -0.11014 2.47570 0.780 0.000 0.000
v 0.01108 -0.12384 2.46485 0.859 0.000 0.000
v 0.01108 -0.12780 2.47169 0.859 0.000 0.000
v 0.02219 -0.15293 2.44685 0.780 0.000 0.000
v -0.00003 -0.15293 2.44685 0.780 0.000 0.000
v 0.01978 -0.13763 2.46335 0.831 0.000 0.000
v 0.01978 -0.16943 2.43155 0.831 0.000 0.000
v 0.00238 -0.13763 2.46335 0.831 0.000 0.000
v 0.00238 -0.16943 2.43155 0.831 0.000 0.000
v 0.01108 -0.22248 2.46676 0.000 0.000 0.820
v 0.01108 -0.23474 2.43308 0.000 0.000 0.820
v 0.02926 -0.16621 2.51640 0.000 0.820 0.000
v 0.00762 -0.14042 2.52866 0.000 0.820 0.000
v -0.00213 -0.16096 2.45488 0.769 0.000 0.000
v 0.02142 -0.17687 2.43898 0.820 0.000 0.000
v 0.00073 -0.17687 2.43898 0.820 0.000 0.000
v 0.02428 -0.16096 2.45488 0.769 0.000 0.000
v 0.02142 -0.14506 2.47079 0.820 0.000 0.000
v 0.00073 -0.14506 2.47079 0.820 0.000 0.000
v 0.01449 -0.17978 2.43344 0.902 0.000 0.000
v 0.01449 -0.19013 2.41047 0.780 0.000 0.000
v 0.01449 -0.18648 2.42674 0.859 0.000 0.000
v 0.01449 -0.13952 2.47370 0.902 0.000 0.000
v 0.01449 -0.13282 2.48040 0.859 0.000 0.000
v 0.01449 -0.11655 2.48405 0.780 0.000 0.000
v 0.01449 -0.16765 2.42644 0.902 0.000 0.000
v 0.01449 -0.17435 2.41974 0.859 0.000 0.000
v 0.01449 -0.17800 2.40347 0.780 0.000 0.000
v 0.01449 -0.13252 2.46157 0.902 0.000 0.000
v 0.01449 -0.12582 2.46827 0.859 0.000 0.000
v 0.01449 -0.10955 2.47192 0.780 0.000 0.000
v 0.00767 -0.18648 2.42674 0.859 0.000 0.000
v 0.00767 -0.17978 2.43344 0.902 0.000 0.000
v 0.00767 -0.19013 2.41047 0.780 0.000 0.000
v 0.00767 -0.13282 2.48040 0.859 0.000 0.000
v 0.00767 -0.13952 2.47370 0.902 0.000 0.000
v 0.00767 -0.11655 2.48405 0.780 0.000 0.000
v 0.00767 -0.17435 2.41974 0.859 0.000 0.000
v 0.00767 -0.16765 2.42644 0.902 0.000 0.000
v 0.00767 -0.17800 2.40347 0.780 0.000 0.000
v 0.00767 -0.12582 2.46827 0.859 0.000 0.000
v 0.00767 -0.13252 2.46157 0.902 0.000 0.000
v 0.00767 -0.10955 2.47192 0.780 0.000 0.000
v 0.00684 -0.19895 2.46832 0.000 0.000 0.000
v 0.00684 -0.19768 2.47142 0.000 0.000 0.000
v 0.00684 -0.19458 2.47271 0.000 0.000 0.000
v 0.00684 -0.19147 2.47142 0.000 0.000 0.000
v 0.00684 -0.19019 2.46832 0.000 0.000 0.000
v 0.00684 -0.19147 2.46523 0.000 0.000 0.000
v 0.00684 -0.19458 2.46395 0.000 0.000 0.000
v 0.00684 -0.19768 2.46523 0.000 0.000 0.000
v 0.01532 -0.19895 2.46832 0.000 0.000 0.000
v 0.01532 -0.19768 2.47142 0.000 0.000 0.000
v 0.01532 -0.19458 2.47271 0.000 0.000 0.000
v 0.01532 -0.19147 2.47142 0.000 0.000 0.000
v 0.01532 -0.19019 2.46832 0.000 0.000 0.000
v 0.01532 -0.19147 2.46523 0.000 0.000 0.000
v 0.01532 -0.19458 2.46395 0.000 0.000 0.000
v 0.01532 -0.19768 2.46523 0.000 0.000 0.000
v 0.00684 -0.17440 2.49287 0.000 0.000 0.000
v 0.00684 -0.17752 2.49160 0.000 0.000 0.000
v 0.00684 -0.17879 2.48848 0.000 0.000 0.000
v 0.00684 -0.17752 2.48539 0.000 0.000 0.000
v 0.00684 -0.17440 2.48411 0.000 0.000 0.000
v 0.00684 -0.17131 2.48539 0.000 0.000 0.000
v 0.00684 -0.17003 2.48848 0.000 0.000 0.000
v 0.00684 -0.17131 2.49160 0.000 0.000 0.000
v 0.01532 -0.17752 2.49160 0.000 0.000 0.000
v 0.01532 -0.17440 2.49287 0.000 0.000 0.000
v 0.01532 -0.17879 2.48848 0.000 0.000 0.000
v 0.01532 -0.17752 2.48539 0.000 0.000 0.000
v 0.01532 -0.17440 2.48411 0.000 0.000 0.000
v 0.01532 -0.17131 2.48539 0.000 0.000 0.000
v 0.01532 -0.17003 2.48848 0.000 0.000 0.000
v 0.01532 -0.17131 2.49160 0.000 0.000 0.000
v 0.01108 -0.20542 2.43774 0.451 0.000 0.451
v 0.01108 -0.20351 2.44381 0.451 0.000 0.451
v 0.01108 -0.19787 2.44674 0.451 0.000 0.451
v 0.01108 -0.18887 2.43920 0.451 0.000 0.451
v 0.01108 -0.19080 2.43313 0.451 0.000 0.451
v 0.01108 -0.19643 2.43020 0.451 0.000 0.451
v 0.01108 -0.14382 2.49934 0.451 0.451 0.000
v 0.01108 -0.14989 2.49743 0.451 0.451 0.000
v 0.01108 -0.15282 2.49179 0.451 0.451 0.000
v 0.01108 -0.14528 2.48279 0.451 0.451 0.000
v 0.01108 -0.13921 2.48470 0.451 0.451 0.000
v 0.01108 -0.13628 2.49034 0.451 0.451 0.000
v 0.01108 -0.24881 2.45133 0.000 0.000 0.788
v 0.02057 -0.21827 2.44615 0.000 0.000 0.831
v 0.00159 -0.21827 2.44615 0.000 0.000 0.831
v 0.01108 -0.24500 2.46182 0.000 0.000 0.788
v 0.01935 -0.15440 2.54273 0.000 0.788 0.000
v 0.00875 -0.15653 2.51217 0.000 0.831 0.000
v 0.02329 -0.14432 2.51217 0.000 0.831 0.000
v 0.02609 -0.16245 2.53892 0.000 0.788 0.000
v 0.01108 -0.20254 2.46832 0.000 0.000 0.000
v 0.01108 -0.20021 2.47396 0.000 0.000 0.000
v 0.01108 -0.19458 2.47630 0.000 0.000 0.000
v 0.01108 -0.18895 2.47396 0.000 0.000 0.000
v 0.01108 -0.18661 2.46832 0.000 0.000 0.000
v 0.01108 -0.18895 2.46269 0.000 0.000 0.000
v 0.01108 -0.19458 2.46037 0.000 0.000 0.000
v 0.01108 -0.20020 2.46269 0.000 0.000 0.000
v 0.01108 -0.18004 2.49412 0.000 0.000 0.000
v 0.01108 -0.17440 2.49646 0.000 0.000 0.000
v 0.01108 -0.18238 2.48848 0.000 0.000 0.000
v 0.01108 -0.18004 2.48285 0.000 0.000 0.000
v 0.01108 -0.17440 2.48053 0.000 0.000 0.000
v 0.01108 -0.16877 2.48285 0.000 0.000 0.000
v 0.01108 -0.16645 2.48848 0.000 0.000 0.000
v 0.01108 -0.16877 2.49412 0.000 0.000 0.000
v 0.01108 -0.18990 2.42872 0.859 0.000 0.000
v 0.01449 -0.18648 2.42674 0.859 0.000 0.000
v 0.01108 -0.18306 2.42476 0.859 0.000 0.000
v 0.01108 -0.13480 2.48382 0.859 0.000 0.000
v 0.01449 -0.13282 2.48040 0.859 0.000 0.000
v 0.01108 -0.13084 2.47698 0.859 0.000 0.000
v 0.01108 -0.17777 2.42172 0.859 0.000 0.000
v 0.01449 -0.17435 2.41974 0.859 0.000 0.000
v 0.01108 -0.17093 2.41776 0.859 0.000 0.000
v 0.01108 -0.12780 2.47169 0.859 0.000 0.000
v 0.01449 -0.12582 2.46827 0.859 0.000 0.000
v 0.01108 -0.12384 2.46485 0.859 0.000 0.000
v 0.00767 -0.18648 2.42674 0.859 0.000 0.000
v 0.00767 -0.13282 2.48040 0.859 0.000 0.000
v 0.00767 -0.17435 2.41974 0.859 0.000 0.000
v 0.00767 -0.12582 2.46827 0.859 0.000 0.000
v 0.01108 -0.19391 2.41106 0.780 0.000 0.000
v 0.00767 -0.19013 2.41047 0.780 0.000 0.000
v 0.01449 -0.19013 2.41047 0.780 0.000 0.000
v 0.01108 -0.18637 2.40988 0.780 0.000 0.000
v 0.01108 -0.18178 2.40406 0.780 0.000 0.000
v 0.00767 -0.17800 2.40347 0.780 0.000 0.000
v 0.01449 -0.17800 2.40347 0.780 0.000 0.000
v 0.01108 -0.17424 2.40287 0.780 0.000 0.000
v 0.01108 -0.11714 2.48783 0.780 0.000 0.000
v 0.01449 -0.11655 2.48405 0.780 0.000 0.000
v 0.00767 -0.11655 2.48405 0.780 0.000 0.000
v 0.01108 -0.11596 2.48027 0.780 0.000 0.000
v 0.01108 -0.11014 2.47570 0.780 0.000 0.000
v 0.01449 -0.10955 2.47192 0.780 0.000 0.000
v 0.00767 -0.10955 2.47192 0.780 0.000 0.000
v 0.01108 -0.10895 2.46814 0.780 0.000 0.000
vt 0.26663 0.02189
vt 0.26663 0.02189
vt 0.26663 0.46991
vt 0.26663 0.46991
vt 0.00781 0.00781
vt 0.00781 0.49262
vt 0.39403 0.24590
vt 0.39403 0.24590
vt 0.00781 0.36945
vt 0.00781 0.36945
vt 0.24762 0.35790
vt 0.24762 0.35790
vt 0.24762 0.35790
vt 0.24762 0.35790
vt 0.35869 0.38695
vt 0.35869 0.38695
vt 0.35869 0.10485
vt 0.35869 0.10485
vt 0.70057 0.03380
vt 0.63281 0.00573
vt 0.70057 0.03380
vt 0.72864 0.10156
vt 0.70057 0.16932
vt 0.63281 0.19739
vt 0.70057 0.16932
vt 0.72864 0.10156
vt 0.63281 0.10156
vt 0.63281 0.10156
vt 0.70057 0.03380
vt 0.63281 0.00573
vt 0.70057 0.03380
vt 0.72864 0.10156
vt 0.70057 0.16932
vt 0.63281 0.19739
vt 0.70057 0.16932
vt 0.72864 0.10156
vt 0.63281 0.10156
vt 0.63281 0.10156
vt 0.54397 0.49230
vt 0.54397 0.49230
vt 0.61546 0.25244
vt 0.58875 0.14635
vt 0.41406 0.00781
vt 0.58875 0.14635
vt 0.61547 0.25244
vt 0.41406 0.25244
vt 0.41406 0.25244
vt 0.41406 0.58449
vt 0.41406 0.58449
vt 0.52802 0.05434
vt 0.52803 0.05433
vt 0.54397 0.49230
vt 0.54397 0.49230
vt 0.61546 0.25244
vt 0.58875 0.14635
vt 0.41406 0.00781
vt 0.58875 0.14635
vt 0.61547 0.25244
vt 0.41406 0.25244
vt 0.41406 0.25244
vt 0.41406 0.58449
vt 0.41406 0.58449
vt 0.52802 0.05434
vt 0.52803 0.05433
vt 0.42982 0.80456
vt 0.35156 0.77214
vt 0.27331 0.80456
vt 0.24089 0.88281
vt 0.27331 0.96107
vt 0.35156 0.99348
vt 0.42982 0.96107
vt 0.46223 0.88281
vt 0.35156 0.88281
vt 0.11719 0.88281
vt 0.92969 0.13015
vt 0.99219 0.13015
vt 0.92969 0.22923
vt 0.99219 0.22923
vt 0.42982 0.80456
vt 0.35156 0.77214
vt 0.27331 0.80456
vt 0.24089 0.88281
vt 0.27331 0.96107
vt 0.35156 0.99348
vt 0.42982 0.96107
vt 0.46223 0.88281
vt 0.35156 0.88281
vt 0.11719 0.88281
vt 0.92969 0.13015
vt 0.99219 0.13015
vt 0.92969 0.22923
vt 0.99219 0.22923
vt 0.92969 0.22656
vt 0.92969 0.00765
vt 0.99219 0.22656
vt 0.99219 0.00788
vt 0.92969 0.15316
vt 0.99219 0.13653
vt 0.92969 0.22656
vt 0.92969 0.00765
vt 0.99219 0.22656
vt 0.99219 0.00788
vt 0.92969 0.15316
vt 0.99219 0.13653
vt 0.92969 0.22656
vt 0.92969 0.00765
vt 0.99219 0.22656
vt 0.99219 0.00788
vt 0.92969 0.15316
vt 0.99219 0.13653
vt 0.92969 0.22656
vt 0.92969 0.00765
vt 0.99219 0.22656
vt 0.99219 0.00788
vt 0.92969 0.15316
vt 0.99219 0.13653
vt 0.00781 0.12705
vt 0.00781 0.12705
vt 0.24762 0.13389
vt 0.24762 0.13389
vt 0.24762 0.13389
vt 0.24762 0.13389
vt 0.60555 0.37237
vt 0.60555 0.37237
vt 0.60555 0.37237
vt 0.60555 0.37237
vt 0.00781 0.24825
vt 0.24762 0.24590
vt 0.24762 0.24590
vt 0.00781 0.24825
vt 0.24762 0.24590
vt 0.24762 0.24590
vt 0.96094 0.22656
vt 0.96094 0.00777
vt 0.96094 0.14484
vt 0.96094 0.22656
vt 0.96094 0.14484
vt 0.96094 0.00777
vt 0.96094 0.22656
vt 0.96094 0.14484
vt 0.96094 0.00777
vt 0.96094 0.22656
vt 0.96094 0.14484
vt 0.96094 0.00777
vt 0.96094 0.14484
vt 0.96094 0.22656
vt 0.96094 0.00777
vt 0.96094 0.14484
vt 0.96094 0.22656
vt 0.96094 0.00777
vt 0.96094 0.14484
vt 0.96094 0.22656
vt 0.96094 0.00777
vt 0.96094 0.14484
vt 0.96094 0.22656
vt 0.96094 0.00777
vt 0.39069 0.84368
vt 0.35156 0.82748
vt 0.31244 0.84368
vt 0.29623 0.88281
vt 0.31244 0.92194
vt 0.35156 0.93815
vt 0.39069 0.92194
vt 0.40690 0.88281
vt 0.06179 0.88281
vt 0.07801 0.84364
vt 0.11719 0.82741
vt 0.15636 0.84364
vt 0.17259 0.88281
vt 0.15636 0.92198
vt 0.11719 0.93821
vt 0.07801 0.92198
vt 0.39069 0.84368
vt 0.35156 0.82748
vt 0.31244 0.84368
vt 0.29623 0.88281
vt 0.31244 0.92194
vt 0.35156 0.93815
vt 0.39069 0.92194
vt 0.40690 0.88281
vt 0.07801 0.92198
vt 0.11719 0.93821
vt 0.06179 0.88281
vt 0.07801 0.84364
vt 0.11719 0.82741
vt 0.15636 0.84364
vt 0.17259 0.88281
vt 0.15636 0.92198
vt 0.70057 0.16932
vt 0.63281 0.19739
vt 0.70057 0.16932
vt 0.70057 0.03380
vt 0.63281 0.00573
vt 0.70057 0.03380
vt 0.70057 0.16932
vt 0.63281 0.19739
vt 0.70057 0.16932
vt 0.70057 0.03380
vt 0.63281 0.00573
vt 0.70057 0.03380
vt 0.99219 0.24219
vt 0.99219 0.30469
vt 0.92969 0.24219
vt 0.99219 0.24219
vt 0.99219 0.24219
vt 0.92969 0.24219
vt 0.99219 0.30469
vt 0.99219 0.24219
vt 0.00639 0.88281
vt 0.03884 0.80447
vt 0.11719 0.77201
vt 0.19553 0.80447
vt 0.22799 0.88281
vt 0.19553 0.96116
vt 0.11719 0.99361
vt 0.03884 0.96116
vt 0.03884 0.96116
vt 0.11719 0.99361
vt 0.00639 0.88281
vt 0.03884 0.80447
vt 0.11719 0.77201
vt 0.19553 0.80447
vt 0.22798 0.88281
vt 0.19553 0.96116
vt 0.99219 0.15504
vt 0.96094 0.14334
vt 0.92969 0.13164
vt 0.99219 0.15504
vt 0.96094 0.14334
vt 0.92969 0.13164
vt 0.99219 0.15504
vt 0.96094 0.14334
vt 0.92969 0.13164
vt 0.99219 0.15504
vt 0.96094 0.14334
vt 0.92969 0.13164
vt 0.96094 0.14334
vt 0.96094 0.14334
vt 0.96094 0.14334
vt 0.96094 0.14334
vt 0.99219 0.24219
vt 0.92969 0.24219
vt 0.99219 0.30469
vt 0.99219 0.24219
vt 0.99219 0.24219
vt 0.92969 0.24219
vt 0.99219 0.30469
vt 0.99219 0.24219
vt 0.99219 0.24219
vt 0.99219 0.30469
vt 0.92969 0.24219
vt 0.99219 0.24219
vt 0.99219 0.24219
vt 0.99219 0.30469
vt 0.92969 0.24219
vt 0.99219 0.24219
usemtl m0
f 11/11 3/3 9/9
f 3/3 6/6 9/9
f 3/3 11/11 15/15
f 11/11 7/7 15/15
f 1/1 17/17 119/119
f 17/17 7/7 119/119
f 119/119 7/7 131/131
f 7/7 11/11 131/131
f 119/119 117/117 1/1
f 117/117 5/5 1/1
f 9/9 130/130 11/11
f 11/11 130/130 131/131
f 117/117 119/119 130/130
f 119/119 131/131 130/130
f 12/12 9/9 4/4
f 9/9 6/6 4/4
f 4/4 16/16 12/12
f 12/12 16/16 8/8
f 2/2 120/120 18/18
f 12/12 8/8 128/128
f 8/8 120/120 128/128
f 8/8 18/18 120/120
f 5/5 117/117 2/2
f 117/117 120/120 2/2
f 9/9 12/12 130/130
f 12/12 128/128 130/130
f 117/117 130/130 120/120
f 130/130 128/128 120/120
f 5/5 118/118 1/1
f 118/118 121/121 1/1
f 132/132 127/127 13/13
f 13/13 127/127 10/10
f 118/118 127/127 121/121
f 127/127 132/132 121/121
f 1/1 121/121 17/17
f 7/7 13/13 15/15
f 7/7 17/17 121/121
f 3/3 15/15 13/13
f 13/13 7/7 132/132
f 7/7 121/121 132/132
f 13/13 10/10 3/3
f 3/3 10/10 6/6
f 122/122 118/118 2/2
f 118/118 5/5 2/2
f 10/10 127/127 14/14
f 127/127 129/129 14/14
f 118/118 122/122 127/127
f 122/122 129/129 127/127
f 2/2 18/18 122/122
f 18/18 8/8 122/122
f 14/14 8/8 16/16
f 4/4 14/14 16/16
f 14/14 129/129 8/8
f 129/129 122/122 8/8
f 6/6 10/10 4/4
f 10/10 14/14 4/4
f 20/20 27/27 19/19
f 21/21 27/27 20/20
f 22/22 27/27 21/21
f 23/23 27/27 22/22
f 24/24 27/27 23/23
f 25/25 27/27 24/24
f 26/26 27/27 25/25
f 19/19 27/27 26/26
f 189/189 28/28 190/190
f 190/190 28/28 191/191
f 191/191 28/28 22/22
f 22/22 28/28 192/192
f 192/192 28/28 193/193
f 193/193 28/28 194/194
f 194/194 28/28 26/26
f 26/26 28/28 189/189
f 30/30 29/29 37/37
f 31/31 30/30 37/37
f 32/32 31/31 37/37
f 33/33 32/32 37/37
f 34/34 33/33 37/37
f 35/35 34/34 37/37
f 36/36 35/35 37/37
f 29/29 36/36 37/37
f 195/195 196/196 38/38
f 196/196 197/197 38/38
f 197/197 32/32 38/38
f 32/32 198/198 38/38
f 198/198 199/199 38/38
f 199/199 200/200 38/38
f 200/200 36/36 38/38
f 36/36 195/195 38/38
f 48/48 46/46 39/39
f 40/40 46/46 49/49
f 40/40 123/123 46/46
f 41/41 46/46 123/123
f 42/42 46/46 41/41
f 43/43 46/46 50/50
f 50/50 46/46 42/42
f 43/43 51/51 46/46
f 44/44 46/46 51/51
f 45/45 46/46 44/44
f 39/39 46/46 124/124
f 124/124 46/46 45/45
f 39/39 47/47 48/48
f 40/40 49/49 47/47
f 40/40 47/47 123/123
f 123/123 47/47 41/41
f 41/41 47/47 42/42
f 43/43 50/50 47/47
f 42/42 47/47 50/50
f 43/43 47/47 51/51
f 51/51 47/47 44/44
f 44/44 47/47 45/45
f 39/39 124/124 47/47
f 45/45 47/47 124/124
f 201/201 202/202 203/203
f 203/203 202/202 204/204
f 61/61 52/52 59/59
f 53/53 62/62 59/59
f 53/53 59/59 125/125
f 54/54 125/125 59/59
f 55/55 54/54 59/59
f 56/56 63/63 59/59
f 63/63 55/55 59/59
f 56/56 59/59 64/64
f 57/57 64/64 59/59
f 58/58 57/57 59/59
f 52/52 126/126 59/59
f 59/59 126/126 58/58
f 52/52 61/61 60/60
f 53/53 60/60 62/62
f 53/53 125/125 60/60
f 60/60 125/125 54/54
f 54/54 55/55 60/60
f 56/56 60/60 63/63
f 55/55 63/63 60/60
f 56/56 64/64 60/60
f 64/64 57/57 60/60
f 57/57 58/58 60/60
f 52/52 60/60 126/126
f 58/58 126/126 60/60
f 205/205 206/206 207/207
f 206/206 208/208 207/207
f 73/73 157/157 158/158
f 66/66 158/158 65/65
f 65/65 158/158 157/157
f 73/73 158/158 159/159
f 159/159 158/158 67/67
f 67/67 158/158 66/66
f 73/73 159/159 160/160
f 68/68 160/160 67/67
f 67/67 160/160 159/159
f 73/73 160/160 161/161
f 161/161 160/160 69/69
f 69/69 160/160 68/68
f 73/73 161/161 162/162
f 70/70 162/162 69/69
f 69/69 162/162 161/161
f 73/73 162/162 163/163
f 163/163 162/162 71/71
f 71/71 162/162 70/70
f 73/73 163/163 164/164
f 72/72 164/164 71/71
f 71/71 164/164 163/163
f 73/73 164/164 157/157
f 157/157 164/164 65/65
f 65/65 164/164 72/72
f 74/74 166/166 165/165
f 165/165 166/166 209/209
f 209/209 166/166 210/210
f 74/74 167/167 166/166
f 210/210 166/166 211/211
f 211/211 166/166 167/167
f 74/74 168/168 167/167
f 167/167 168/168 211/211
f 211/211 168/168 212/212
f 74/74 169/169 168/168
f 212/212 168/168 213/213
f 213/213 168/168 169/169
f 74/74 170/170 169/169
f 169/169 170/170 213/213
f 213/213 170/170 214/214
f 74/74 171/171 170/170
f 214/214 170/170 215/215
f 215/215 170/170 171/171
f 74/74 172/172 171/171
f 171/171 172/172 215/215
f 215/215 172/172 216/216
f 74/74 165/165 172/172
f 216/216 172/172 209/209
f 209/209 172/172 165/165
f 77/77 78/78 75/75
f 78/78 76/76 75/75
f 87/87 174/174 173/173
f 80/80 79/79 174/174
f 174/174 79/79 173/173
f 87/87 175/175 174/174
f 80/80 174/174 81/81
f 81/81 174/174 175/175
f 87/87 176/176 175/175
f 82/82 81/81 176/176
f 176/176 81/81 175/175
f 87/87 177/177 176/176
f 82/82 176/176 83/83
f 83/83 176/176 177/177
f 87/87 178/178 177/177
f 84/84 83/83 178/178
f 178/178 83/83 177/177
f 87/87 179/179 178/178
f 84/84 178/178 85/85
f 85/85 178/178 179/179
f 87/87 180/180 179/179
f 86/86 85/85 180/180
f 180/180 85/85 179/179
f 87/87 173/173 180/180
f 86/86 180/180 79/79
f 79/79 180/180 173/173
f 88/88 182/182 181/181
f 217/217 181/181 218/218
f 218/218 181/181 182/182
f 88/88 181/181 183/183
f 217/217 219/219 181/181
f 181/181 219/219 183/183
f 88/88 183/183 184/184
f 220/220 184/184 219/219
f 219/219 184/184 183/183
f 88/88 184/184 185/185
f 220/220 221/221 184/184
f 184/184 221/221 185/185
f 88/88 185/185 186/186
f 222/222 186/186 221/221
f 221/221 186/186 185/185
f 88/88 186/186 187/187
f 222/222 223/223 186/186
f 186/186 223/223 187/187
f 88/88 187/187 188/188
f 224/224 188/188 223/223
f 223/223 188/188 187/187
f 88/88 188/188 182/182
f 224/224 218/218 188/188
f 188/188 218/218 182/182
f 91/91 89/89 92/92
f 89/89 90/90 92/92
f 98/98 135/135 95/95
f 95/95 135/135 133/133
f 135/135 97/97 133/133
f 133/133 97/97 93/93
f 225/225 96/96 226/226
f 96/96 134/134 226/226
f 226/226 134/134 227/227
f 227/227 134/134 94/94
f 104/104 101/101 137/137
f 101/101 136/136 137/137
f 137/137 136/136 103/103
f 103/103 136/136 99/99
f 228/228 229/229 102/102
f 102/102 229/229 138/138
f 229/229 230/230 138/138
f 138/138 230/230 100/100
f 110/110 140/140 107/107
f 107/107 140/140 139/139
f 140/140 109/109 139/139
f 139/139 109/109 105/105
f 231/231 108/108 232/232
f 108/108 141/141 232/232
f 232/232 141/141 233/233
f 233/233 141/141 106/106
f 116/116 113/113 143/143
f 113/113 142/142 143/143
f 143/143 142/142 115/115
f 115/115 142/142 111/111
f 234/234 235/235 114/114
f 114/114 235/235 144/144
f 235/235 236/236 144/144
f 144/144 236/236 112/112
f 98/98 95/95 145/145
f 95/95 146/146 145/145
f 145/145 146/146 97/97
f 146/146 93/93 97/97
f 225/225 237/237 96/96
f 96/96 237/237 147/147
f 237/237 227/227 147/147
f 227/227 94/94 147/147
f 104/104 148/148 101/101
f 101/101 148/148 149/149
f 148/148 103/103 149/149
f 103/103 99/99 149/149
f 228/228 102/102 238/238
f 102/102 150/150 238/238
f 238/238 150/150 230/230
f 150/150 100/100 230/230
f 110/110 107/107 151/151
f 107/107 152/152 151/151
f 151/151 152/152 109/109
f 152/152 105/105 109/109
f 231/231 239/239 108/108
f 108/108 239/239 153/153
f 239/239 233/233 153/153
f 233/233 106/106 153/153
f 116/116 154/154 113/113
f 113/113 154/154 155/155
f 154/154 115/115 155/155
f 115/115 111/111 155/155
f 234/234 114/114 240/240
f 114/114 156/156 240/240
f 240/240 156/156 236/236
f 156/156 112/112 236/236
f 241/241 242/242 243/243
f 242/242 244/244 243/243
f 245/245 246/246 247/247
f 246/246 248/248 247/247
f 249/249 250/250 251/251
f 250/250 252/252 251/251
f 253/253 254/254 255/255
f 254/254 256/256 255/255
