mtllib options305.mtl
o options305
v 0.00000 -0.23526 2.97504 1.000 0.000 0.000
v 0.00000 -0.26514 2.89332 1.000 0.000 0.000
v 0.03510 -0.25974 2.93634 1.000 0.000 0.000
v 0.05616 -0.26874 2.89548 1.000 0.000 0.000
v 0.03978 -0.26118 2.88036 1.000 0.000 0.000
v -0.03510 -0.25974 2.93634 1.000 0.000 0.000
v -0.05616 -0.26874 2.89548 1.000 0.000 0.000
v -0.03978 -0.26118 2.88036 1.000 0.000 0.000
v 0.00000 -0.22860 2.79810 1.000 0.000 0.000
v 0.04950 -0.24534 2.78784 1.000 0.000 0.000
v 0.06426 -0.25956 2.77416 1.000 0.000 0.000
v 0.07308 -0.27612 2.80512 1.000 0.000 0.000
v 0.03978 -0.26118 2.88036 1.000 0.000 0.000
v -0.04950 -0.24534 2.78784 1.000 0.000 0.000
v -0.06426 -0.25956 2.77416 1.000 0.000 0.000
v -0.07308 -0.27612 2.80512 1.000 0.000 0.000
v -0.03978 -0.26118 2.88036 1.000 0.000 0.000
v 0.09432 -0.19080 2.68164 0.882 0.000 0.000
v 0.07776 -0.20016 2.64870 0.882 0.000 0.000
v 0.04482 -0.21492 2.65716 0.882 0.000 0.000
v 0.00000 -0.15282 2.78406 1.000 0.000 0.000
v 0.00000 -0.24012 2.65680 0.882 0.000 0.000
v 0.11448 -0.18252 2.72520 0.882 0.000 0.000
v 0.08244 -0.18360 2.78478 0.882 0.000 0.000
v 0.00000 -0.19224 2.82546 0.882 0.000 0.000
v -0.08244 -0.18360 2.78478 0.882 0.000 0.000
v -0.11448 -0.18252 2.72520 0.882 0.000 0.000
v -0.04482 -0.21492 2.65716 0.882 0.000 0.000
v -0.09432 -0.19080 2.68164 0.882 0.000 0.000
v -0.07776 -0.20016 2.64870 0.882 0.000 0.000
v 0.08676 -0.27342 2.73690 0.843 0.000 0.000
v 0.08820 -0.24264 2.72556 0.843 0.000 0.000
v 0.00000 -0.23220 2.72862 1.000 0.000 0.000
v 0.08136 -0.22158 2.73402 0.843 0.000 0.000
v 0.04824 -0.28764 2.70756 0.843 0.000 0.000
v 0.00000 -0.32742 2.72124 0.843 0.000 0.000
v 0.05004 -0.24012 2.80350 0.843 0.000 0.000
v 0.00000 -0.23364 2.85606 0.804 0.000 0.000
v -0.05004 -0.24012 2.80350 0.843 0.000 0.000
v -0.04824 -0.28764 2.70756 0.843 0.000 0.000
v -0.08676 -0.27342 2.73690 0.843 0.000 0.000
v -0.08820 -0.24264 2.72556 0.843 0.000 0.000
v -0.08136 -0.22158 2.73402 0.843 0.000 0.000
v 0.03510 0.25974 2.93634 1.000 0.000 0.000
v 0.00000 0.26514 2.89332 1.000 0.000 0.000
v 0.00000 0.23526 2.97504 1.000 0.000 0.000
v 0.05616 0.26874 2.89548 1.000 0.000 0.000
v 0.03978 0.26118 2.88036 1.000 0.000 0.000
v -0.03510 0.25974 2.93634 1.000 0.000 0.000
v -0.05616 0.26874 2.89548 1.000 0.000 0.000
v -0.03978 0.26118 2.88036 1.000 0.000 0.000
v 0.04950 0.24534 2.78784 1.000 0.000 0.000
v 0.00000 0.22860 2.79810 1.000 0.000 0.000
v 0.06426 0.25956 2.77416 1.000 0.000 0.000
v 0.07308 0.27612 2.80512 1.000 0.000 0.000
v 0.03978 0.26118 2.88036 1.000 0.000 0.000
v -0.04950 0.24534 2.78784 1.000 0.000 0.000
v -0.06426 0.25956 2.77416 1.000 0.000 0.000
v -0.07308 0.27612 2.80512 1.000 0.000 0.000
v -0.03978 0.26118 2.88036 1.000 0.000 0.000
v 0.04482 0.21492 2.65716 0.882 0.000 0.000
v 0.07776 0.20016 2.64870 0.882 0.000 0.000
v 0.09432 0.19080 2.68164 0.882 0.000 0.000
v 0.00000 0.15282 2.78406 1.000 0.000 0.000
v 0.00000 0.24012 2.65680 0.882 0.000 0.000
v 0.11448 0.18252 2.72520 0.882 0.000 0.000
v 0.08244 0.18360 2.78478 0.882 0.000 0.000
v 0.00000 0.19224 2.82546 0.882 0.000 0.000
v -0.08244 0.18360 2.78478 0.882 0.000 0.000
v -0.11448 0.18252 2.72520 0.882 0.000 0.000
v -0.04482 0.21492 2.65716 0.882 0.000 0.000
v -0.09432 0.19080 2.68164 0.882 0.000 0.000
v -0.07776 0.20016 2.64870 0.882 0.000 0.000
v 0.00000 0.23220 2.72862 1.000 0.000 0.000
v 0.08820 0.24264 2.72556 0.843 0.000 0.000
v 0.08676 0.27342 2.73690 0.843 0.000 0.000
v 0.08136 0.22158 2.73402 0.843 0.000 0.000
v 0.04824 0.28764 2.70756 0.843 0.000 0.000
v 0.00000 0.32742 2.72124 0.843 0.000 0.000
v 0.05004 0.24012 2.80350 0.843 0.000 0.000
v 0.00000 0.23364 2.85606 0.804 0.000 0.000
v -0.05004 0.24012 2.80350 0.843 0.000 0.000
v -0.04824 0.28764 2.70756 0.843 0.000 0.000
v -0.08676 0.27342 2.73690 0.843 0.000 0.000
v -0.08820 0.24264 2.72556 0.843 0.000 0.000
v -0.08136 0.22158 2.73402 0.843 0.000 0.000
v 0.04824 -0.28764 2.70756 0.843 0.000 0.000
v 0.04482 -0.21492 2.65716 0.843 0.000 0.000
v 0.07776 -0.20016 2.64870 0.804 0.000 0.000
v 0.08676 -0.27342 2.73690 0.804 0.000 0.000
v 0.09432 -0.19080 2.68164 0.804 0.000 0.000
v 0.08820 -0.24264 2.72556 0.804 0.000 0.000
v 0.08136 -0.22158 2.73402 0.765 0.000 0.000
v 0.11448 -0.18252 2.72520 0.765 0.000 0.000
v 0.08244 -0.18360 2.78478 0.725 0.000 0.000
v 0.00000 -0.24012 2.65680 0.843 0.000 0.000
v 0.05364 -0.21258 2.78064 0.804 0.000 0.000
v 0.05004 -0.24012 2.80350 0.725 0.000 0.000
v 0.00000 -0.22212 2.83446 0.804 0.000 0.000
v 0.00000 -0.23364 2.85606 0.765 0.000 0.000
v 0.00000 -0.21060 2.80566 0.843 0.000 0.000
v 0.00000 -0.19224 2.82546 0.765 0.000 0.000
v -0.08244 -0.18360 2.78478 0.725 0.000 0.000
v -0.05004 -0.24012 2.80350 0.725 0.000 0.000
v -0.05364 -0.21258 2.78064 0.804 0.000 0.000
v -0.08136 -0.22158 2.73402 0.765 0.000 0.000
v -0.11448 -0.18252 2.72520 0.765 0.000 0.000
v -0.09432 -0.19080 2.68164 0.804 0.000 0.000
v -0.08820 -0.24264 2.72556 0.804 0.000 0.000
v -0.08676 -0.27342 2.73690 0.804 0.000 0.000
v -0.07776 -0.20016 2.64870 0.804 0.000 0.000
v -0.04824 -0.28764 2.70756 0.843 0.000 0.000
v -0.04482 -0.21492 2.65716 0.843 0.000 0.000
v 0.00000 -0.29646 2.68902 0.843 0.000 0.000
v 0.00000 -0.32742 2.72124 0.843 0.000 0.000
v 0.07776 0.20016 2.64870 0.804 0.000 0.000
v 0.04482 0.21492 2.65716 0.843 0.000 0.000
v 0.04824 0.28764 2.70756 0.843 0.000 0.000
v 0.08676 0.27342 2.73690 0.804 0.000 0.000
v 0.09432 0.19080 2.68164 0.804 0.000 0.000
v 0.08820 0.24264 2.72556 0.804 0.000 0.000
v 0.08136 0.22158 2.73402 0.765 0.000 0.000
v 0.11448 0.18252 2.72520 0.765 0.000 0.000
v 0.08244 0.18360 2.78478 0.725 0.000 0.000
v 0.00000 0.24012 2.65680 0.843 0.000 0.000
v 0.05364 0.21258 2.78064 0.804 0.000 0.000
v 0.05004 0.24012 2.80350 0.725 0.000 0.000
v 0.00000 0.22212 2.83446 0.804 0.000 0.000
v 0.00000 0.23364 2.85606 0.765 0.000 0.000
v 0.00000 0.21060 2.80566 0.843 0.000 0.000
v 0.00000 0.19224 2.82546 0.765 0.000 0.000
v -0.08244 0.18360 2.78478 0.725 0.000 0.000
v -0.05004 0.24012 2.80350 0.725 0.000 0.000
v -0.05364 0.21258 2.78064 0.804 0.000 0.000
v -0.08136 0.22158 2.73402 0.765 0.000 0.000
v -0.11448 0.18252 2.72520 0.765 0.000 0.000
v -0.09432 0.19080 2.68164 0.804 0.000 0.000
v -0.08820 0.24264 2.72556 0.804 0.000 0.000
v -0.08676 0.27342 2.73690 0.804 0.000 0.000
v -0.07776 0.20016 2.64870 0.804 0.000 0.000
v -0.04824 0.28764 2.70756 0.843 0.000 0.000
v -0.04482 0.21492 2.65716 0.843 0.000 0.000
v 0.00000 0.29646 2.68902 0.843 0.000 0.000
v 0.00000 0.32742 2.72124 0.843 0.000 0.000
v 0.03510 -0.25974 2.93634 0.804 0.000 0.000
v 0.00000 -0.24876 2.92266 0.843 0.000 0.000
v 0.00000 -0.23526 2.97504 0.843 0.000 0.000
v 0.03978 -0.26118 2.88036 0.804 0.000 0.000
v 0.00000 -0.24678 2.86164 0.843 0.000 0.000
v 0.05616 -0.26874 2.89548 0.804 0.000 0.000
v 0.04950 -0.24534 2.78784 0.843 0.000 0.000
v 0.07308 -0.27612 2.80512 0.843 0.000 0.000
v 0.06426 -0.25956 2.77416 0.843 0.000 0.000
v 0.00000 -0.22860 2.79810 0.882 0.000 0.000
v -0.03510 -0.25974 2.93634 0.804 0.000 0.000
v -0.03978 -0.26118 2.88036 0.804 0.000 0.000
v -0.05616 -0.26874 2.89548 0.804 0.000 0.000
v -0.04950 -0.24534 2.78784 0.843 0.000 0.000
v -0.07308 -0.27612 2.80512 0.843 0.000 0.000
v -0.06426 -0.25956 2.77416 0.843 0.000 0.000
v 0.00000 0.23526 2.97504 0.843 0.000 0.000
v 0.00000 0.24876 2.92266 0.843 0.000 0.000
v 0.03510 0.25974 2.93634 0.804 0.000 0.000
v 0.03978 0.26118 2.88036 0.804 0.000 0.000
v 0.00000 0.24678 2.86164 0.843 0.000 0.000
v 0.05616 0.26874 2.89548 0.804 0.000 0.000
v 0.04950 0.24534 2.78784 0.843 0.000 0.000
v 0.07308 0.27612 2.80512 0.843 0.000 0.000
v 0.06426 0.25956 2.77416 0.843 0.000 0.000
v 0.00000 0.22860 2.79810 0.882 0.000 0.000
v -0.03510 0.25974 2.93634 0.804 0.000 0.000
v -0.03978 0.26118 2.88036 0.804 0.000 0.000
v -0.05616 0.26874 2.89548 0.804 0.000 0.000
v -0.04950 0.24534 2.78784 0.843 0.000 0.000
v -0.07308 0.27612 2.80512 0.843 0.000 0.000
v -0.06426 0.25956 2.77416 0.843 0.000 0.000
v 0.00000 -0.33984 2.92464 0.000 0.286 0.439
v 0.04284 -0.31284 2.90844 0.000 0.765 0.000
v 0.00000 -0.31824 2.93778 0.000 0.686 0.000
v 0.00000 -0.32940 2.89710 0.000 0.765 0.000
v 0.03618 -0.31014 2.87370 0.000 0.765 0.000
v 0.05616 -0.28134 2.89458 0.000 0.882 0.000
v 0.02034 -0.27936 2.96874 0.000 0.765 0.000
v 0.00000 -0.28782 2.98098 0.000 0.686 0.000
v 0.05022 -0.27918 2.85642 0.000 0.882 0.000
v 0.00000 -0.25668 2.88000 0.000 0.922 0.000
v 0.00000 -0.25272 2.84040 0.000 0.922 0.000
v 0.00000 -0.25200 2.92572 0.000 0.922 0.000
v 0.04212 -0.27270 2.93490 0.000 0.882 0.000
v -0.04284 -0.31284 2.90844 0.000 0.765 0.000
v -0.05022 -0.27918 2.85642 0.000 0.882 0.000
v -0.03618 -0.31014 2.87370 0.000 0.765 0.000
v -0.05616 -0.28134 2.89458 0.000 0.882 0.000
v -0.02034 -0.27936 2.96874 0.000 0.765 0.000
v -0.04212 -0.27270 2.93490 0.000 0.882 0.000
v 0.04464 -0.25704 2.99736 0.000 0.843 0.000
v 0.04338 -0.26676 2.95002 0.000 0.843 0.000
v 0.00000 -0.23490 2.98152 0.000 0.922 0.000
v 0.00000 -0.25200 2.92572 0.000 0.922 0.000
v 0.02142 -0.27450 2.97918 0.000 0.765 0.000
v 0.03618 -0.23994 3.01932 0.000 0.765 0.000
v 0.02232 -0.27216 3.02040 0.000 0.725 0.000
v 0.00000 -0.28224 2.99394 0.000 0.686 0.000
v 0.00000 -0.25596 3.03750 0.000 0.686 0.000
v 0.00000 -0.28026 3.03642 0.000 0.647 0.000
v -0.04338 -0.26676 2.95002 0.000 0.843 0.000
v -0.04464 -0.25704 2.99736 0.000 0.843 0.000
v -0.02142 -0.27450 2.97918 0.000 0.765 0.000
v -0.02232 -0.27216 3.02040 0.000 0.725 0.000
v -0.03618 -0.23994 3.01932 0.000 0.765 0.000
v 0.03204 -0.22824 3.02472 0.000 0.765 0.000
v 0.00000 -0.23490 2.98152 0.000 0.922 0.000
v 0.00000 -0.16020 3.09258 0.000 0.271 0.416
v 0.00000 -0.23544 3.04470 0.000 0.686 0.000
v -0.03204 -0.22824 3.02472 0.000 0.765 0.000
v 0.00000 -0.36198 2.80728 0.000 0.286 0.439
v 0.00000 -0.34524 2.75526 0.000 0.804 0.000
v 0.05508 -0.32814 2.76030 0.000 0.725 0.000
v 0.00000 -0.31788 2.71908 0.000 0.843 0.000
v 0.04680 -0.28008 2.70450 0.000 0.882 0.000
v 0.08136 -0.26892 2.73330 0.000 0.882 0.000
v 0.07254 -0.27270 2.75418 0.000 0.882 0.000
v 0.07092 -0.20988 2.72070 0.000 0.922 0.000
v 0.05256 -0.22104 2.75184 0.000 0.922 0.000
v 0.00000 -0.34182 2.79810 0.000 0.725 0.000
v 0.04770 -0.32130 2.77722 0.000 0.765 0.000
v -0.05508 -0.32814 2.76030 0.000 0.725 0.000
v -0.04680 -0.28008 2.70450 0.000 0.882 0.000
v -0.08136 -0.26892 2.73330 0.000 0.882 0.000
v -0.07254 -0.27270 2.75418 0.000 0.882 0.000
v -0.07092 -0.20988 2.72070 0.000 0.922 0.000
v -0.05256 -0.22104 2.75184 0.000 0.922 0.000
v -0.04770 -0.32130 2.77722 0.000 0.765 0.000
v 0.04986 -0.24084 2.76642 0.000 0.922 0.000
v 0.00000 -0.22248 2.76732 0.000 0.922 0.000
v 0.00000 -0.25272 2.84040 0.000 0.922 0.000
v 0.04986 -0.27954 2.84832 0.000 0.882 0.000
v 0.06462 -0.27234 2.76840 0.000 0.882 0.000
v -0.04986 -0.24084 2.76642 0.000 0.922 0.000
v -0.04986 -0.27954 2.84832 0.000 0.882 0.000
v -0.06462 -0.27234 2.76840 0.000 0.882 0.000
v 0.03510 -0.31032 2.79306 0.000 0.765 0.000
v 0.03762 -0.30816 2.85714 0.000 0.765 0.000
v 0.00000 -0.33012 2.83410 0.000 0.804 0.000
v 0.00000 -0.33606 2.85246 0.000 0.765 0.000
v 0.00000 -0.32778 2.88360 0.000 0.765 0.000
v 0.00000 -0.32976 2.80584 0.000 0.804 0.000
v -0.03762 -0.30816 2.85714 0.000 0.765 0.000
v -0.03510 -0.31032 2.79306 0.000 0.765 0.000
v 0.00000 0.31824 2.93778 0.000 0.686 0.000
v 0.04284 0.31284 2.90844 0.000 0.765 0.000
v 0.00000 0.33984 2.92464 0.000 0.286 0.439
v 0.00000 0.32940 2.89710 0.000 0.765 0.000
v 0.03618 0.31014 2.87370 0.000 0.765 0.000
v 0.05616 0.28134 2.89458 0.000 0.882 0.000
v 0.02034 0.27936 2.96874 0.000 0.765 0.000
v 0.00000 0.28782 2.98098 0.000 0.686 0.000
v 0.05022 0.27918 2.85642 0.000 0.882 0.000
v 0.00000 0.25668 2.88000 0.000 0.922 0.000
v 0.00000 0.25272 2.84040 0.000 0.922 0.000
v 0.00000 0.25200 2.92572 0.000 0.922 0.000
v 0.04212 0.27270 2.93490 0.000 0.882 0.000
v -0.04284 0.31284 2.90844 0.000 0.765 0.000
v -0.05022 0.27918 2.85642 0.000 0.882 0.000
v -0.03618 0.31014 2.87370 0.000 0.765 0.000
v -0.05616 0.28134 2.89458 0.000 0.882 0.000
v -0.04212 0.27270 2.93490 0.000 0.882 0.000
v -0.02034 0.27936 2.96874 0.000 0.765 0.000
v 0.00000 0.23490 2.98152 0.000 0.922 0.000
v 0.04338 0.26676 2.95002 0.000 0.843 0.000
v 0.04464 0.25704 2.99736 0.000 0.843 0.000
v 0.00000 0.25200 2.92572 0.000 0.922 0.000
v 0.02142 0.27450 2.97918 0.000 0.765 0.000
v 0.03618 0.23994 3.01932 0.000 0.765 0.000
v 0.02232 0.27216 3.02040 0.000 0.725 0.000
v 0.00000 0.28224 2.99394 0.000 0.686 0.000
v 0.00000 0.25596 3.03750 0.000 0.686 0.000
v 0.00000 0.28026 3.03642 0.000 0.647 0.000
v -0.04338 0.26676 2.95002 0.000 0.843 0.000
v -0.04464 0.25704 2.99736 0.000 0.843 0.000
v -0.02142 0.27450 2.97918 0.000 0.765 0.000
v -0.02232 0.27216 3.02040 0.000 0.725 0.000
v -0.03618 0.23994 3.01932 0.000 0.765 0.000
v 0.00000 0.16020 3.09258 0.000 0.271 0.416
v 0.00000 0.23490 2.98152 0.000 0.922 0.000
v 0.03204 0.22824 3.02472 0.000 0.765 0.000
v 0.00000 0.23544 3.04470 0.000 0.686 0.000
v -0.03204 0.22824 3.02472 0.000 0.765 0.000
v 0.05508 0.32814 2.76030 0.000 0.725 0.000
v 0.00000 0.34524 2.75526 0.000 0.804 0.000
v 0.00000 0.36198 2.80728 0.000 0.286 0.439
v 0.00000 0.31788 2.71908 0.000 0.843 0.000
v 0.04680 0.28008 2.70450 0.000 0.882 0.000
v 0.08136 0.26892 2.73330 0.000 0.882 0.000
v 0.07254 0.27270 2.75418 0.000 0.882 0.000
v 0.07092 0.20988 2.72070 0.000 0.922 0.000
v 0.05256 0.22104 2.75184 0.000 0.922 0.000
v 0.00000 0.34182 2.79810 0.000 0.725 0.000
v 0.04770 0.32130 2.77722 0.000 0.765 0.000
v -0.05508 0.32814 2.76030 0.000 0.725 0.000
v -0.04680 0.28008 2.70450 0.000 0.882 0.000
v -0.08136 0.26892 2.73330 0.000 0.882 0.000
v -0.07254 0.27270 2.75418 0.000 0.882 0.000
v -0.07092 0.20988 2.72070 0.000 0.922 0.000
v -0.05256 0.22104 2.75184 0.000 0.922 0.000
v -0.04770 0.32130 2.77722 0.000 0.765 0.000
v 0.00000 0.22248 2.76732 0.000 0.922 0.000
v 0.04986 0.24084 2.76642 0.000 0.922 0.000
v 0.00000 0.25272 2.84040 0.000 0.922 0.000
v 0.04986 0.27954 2.84832 0.000 0.882 0.000
v 0.06462 0.27234 2.76840 0.000 0.882 0.000
v -0.04986 0.24084 2.76642 0.000 0.922 0.000
v -0.04986 0.27954 2.84832 0.000 0.882 0.000
v -0.06462 0.27234 2.76840 0.000 0.882 0.000
v 0.03510 0.31032 2.79306 0.000 0.765 0.000
v 0.03762 0.30816 2.85714 0.000 0.765 0.000
v 0.00000 0.33012 2.83410 0.000 0.804 0.000
v 0.00000 0.33606 2.85246 0.000 0.765 0.000
v 0.00000 0.32778 2.88360 0.000 0.765 0.000
v 0.00000 0.32976 2.80584 0.000 0.804 0.000
v -0.03762 0.30816 2.85714 0.000 0.765 0.000
v -0.03510 0.31032 2.79306 0.000 0.765 0.000
v 0.00000 -0.25596 3.03750 0.000 0.000 0.588
v 0.03204 -0.22824 3.02472 0.000 0.000 1.000
v 0.00000 -0.23544 3.04470 0.000 0.000 0.588
v 0.03618 -0.23994 3.01932 0.000 0.000 1.000
v 0.00000 -0.23490 2.98152 0.000 0.000 0.588
v -0.03204 -0.22824 3.02472 0.000 0.000 1.000
v -0.03618 -0.23994 3.01932 0.000 0.000 1.000
v 0.00000 -0.32778 2.88360 0.000 0.000 0.588
v 0.03762 -0.30816 2.85714 0.000 0.000 0.792
v 0.03618 -0.31014 2.87370 0.000 0.000 0.792
v 0.05022 -0.27918 2.85642 0.000 0.000 1.000
v 0.00000 -0.32940 2.89710 0.000 0.000 0.588
v 0.04986 -0.27954 2.84832 0.000 0.000 1.000
v 0.00000 -0.25272 2.84040 0.000 0.000 0.588
v -0.03618 -0.31014 2.87370 0.000 0.000 0.792
v -0.03762 -0.30816 2.85714 0.000 0.000 0.792
v -0.05022 -0.27918 2.85642 0.000 0.000 1.000
v -0.04986 -0.27954 2.84832 0.000 0.000 1.000
v 0.00000 -0.28782 2.98098 0.000 0.000 0.588
v 0.02034 -0.27936 2.96874 0.000 0.000 0.792
v 0.02142 -0.27450 2.97918 0.000 0.000 0.792
v 0.00000 -0.28224 2.99394 0.000 0.000 0.588
v 0.04338 -0.26676 2.95002 0.000 0.000 1.000
v 0.04212 -0.27270 2.93490 0.000 0.000 1.000
v 0.00000 -0.25200 2.92572 0.000 0.000 0.588
v -0.02142 -0.27450 2.97918 0.000 0.000 0.792
v -0.02034 -0.27936 2.96874 0.000 0.000 0.792
v -0.04338 -0.26676 2.95002 0.000 0.000 1.000
v -0.04212 -0.27270 2.93490 0.000 0.000 1.000
v 0.04986 -0.24084 2.76642 0.000 0.000 0.588
v 0.07254 -0.27270 2.75418 0.000 0.000 0.792
v 0.05256 -0.22104 2.75184 0.000 0.000 0.588
v 0.06462 -0.27234 2.76840 0.000 0.000 0.588
v 0.04770 -0.32130 2.77722 0.000 0.000 1.000
v 0.03510 -0.31032 2.79306 0.000 0.000 1.000
v 0.00000 -0.32976 2.80584 0.000 0.000 0.588
v 0.00000 -0.34182 2.79810 0.000 0.000 0.588
v -0.04770 -0.32130 2.77722 0.000 0.000 1.000
v -0.03510 -0.31032 2.79306 0.000 0.000 1.000
v -0.06462 -0.27234 2.76840 0.000 0.000 0.588
v -0.07254 -0.27270 2.75418 0.000 0.000 0.792
v -0.04986 -0.24084 2.76642 0.000 0.000 0.588
v -0.05256 -0.22104 2.75184 0.000 0.000 0.588
v 0.00000 0.23544 3.04470 0.000 0.000 0.588
v 0.03204 0.22824 3.02472 0.000 0.000 1.000
v 0.00000 0.25596 3.03750 0.000 0.000 0.588
v 0.03618 0.23994 3.01932 0.000 0.000 1.000
v 0.00000 0.23490 2.98152 0.000 0.000 0.588
v -0.03204 0.22824 3.02472 0.000 0.000 1.000
v -0.03618 0.23994 3.01932 0.000 0.000 1.000
v 0.03618 0.31014 2.87370 0.000 0.000 0.792
v 0.03762 0.30816 2.85714 0.000 0.000 0.792
v 0.00000 0.32778 2.88360 0.000 0.000 0.588
v 0.05022 0.27918 2.85642 0.000 0.000 1.000
v 0.00000 0.32940 2.89710 0.000 0.000 0.588
v 0.04986 0.27954 2.84832 0.000 0.000 1.000
v 0.00000 0.25272 2.84040 0.000 0.000 0.588
v -0.03618 0.31014 2.87370 0.000 0.000 0.792
v -0.03762 0.30816 2.85714 0.000 0.000 0.792
v -0.05022 0.27918 2.85642 0.000 0.000 1.000
v -0.04986 0.27954 2.84832 0.000 0.000 1.000
v 0.02142 0.27450 2.97918 0.000 0.000 0.792
v 0.02034 0.27936 2.96874 0.000 0.000 0.792
v 0.00000 0.28782 2.98098 0.000 0.000 0.588
v 0.00000 0.28224 2.99394 0.000 0.000 0.588
v 0.04338 0.26676 2.95002 0.000 0.000 1.000
v 0.04212 0.27270 2.93490 0.000 0.000 1.000
v 0.00000 0.25200 2.92572 0.000 0.000 0.588
v -0.02142 0.27450 2.97918 0.000 0.000 0.792
v -0.02034 0.27936 2.96874 0.000 0.000 0.792
v -0.04338 0.26676 2.95002 0.000 0.000 1.000
v -0.04212 0.27270 2.93490 0.000 0.000 1.000
v 0.05256 0.22104 2.75184 0.000 0.000 0.588
v 0.07254 0.27270 2.75418 0.000 0.000 0.792
v 0.04986 0.24084 2.76642 0.000 0.000 0.588
v 0.06462 0.27234 2.76840 0.000 0.000 0.588
v 0.04770 0.32130 2.77722 0.000 0.000 1.000
v 0.03510 0.31032 2.79306 0.000 0.000 1.000
v 0.00000 0.32976 2.80584 0.000 0.000 0.588
v 0.00000 0.34182 2.79810 0.000 0.000 0.588
v -0.04770 0.32130 2.77722 0.000 0.000 1.000
v -0.03510 0.31032 2.79306 0.000 0.000 1.000
v -0.06462 0.27234 2.76840 0.000 0.000 0.588
v -0.07254 0.27270 2.75418 0.000 0.000 0.792
v -0.04986 0.24084 2.76642 0.000 0.000 0.588
v -0.05256 0.22104 2.75184 0.000 0.000 0.588
v 0.00000 -0.25596 3.03750 0.000 0.000 1.000
v 0.03204 -0.22824 3.02472 0.000 0.000 1.000
v 0.00000 -0.23544 3.04470 0.000 0.000 1.000
v 0.03618 -0.23994 3.01932 0.000 0.000 1.000
v 0.00000 -0.23490 2.98152 0.000 0.000 1.000
v -0.03204 -0.22824 3.02472 0.000 0.000 1.000
v -0.03618 -0.23994 3.01932 0.000 0.000 1.000
v 0.00000 -0.32778 2.88360 0.000 0.000 1.000
v 0.03618 -0.31014 2.87370 0.000 0.000 1.000
v 0.00000 -0.32940 2.89710 0.000 0.000 1.000
v 0.03762 -0.30816 2.85714 0.000 0.000 1.000
v 0.05022 -0.27918 2.85642 0.000 0.000 1.000
v 0.04986 -0.27954 2.84832 0.000 0.000 1.000
v 0.00000 -0.25272 2.84040 0.000 0.000 1.000
v -0.03618 -0.31014 2.87370 0.000 0.000 1.000
v -0.03762 -0.30816 2.85714 0.000 0.000 1.000
v -0.05022 -0.27918 2.85642 0.000 0.000 1.000
v -0.04986 -0.27954 2.84832 0.000 0.000 1.000
v 0.00000 -0.28782 2.98098 0.000 0.000 1.000
v 0.02034 -0.27936 2.96874 0.000 0.000 1.000
v 0.02142 -0.27450 2.97918 0.000 0.000 1.000
v 0.00000 -0.28224 2.99394 0.000 0.000 1.000
v 0.04338 -0.26676 2.95002 0.000 0.000 1.000
v 0.04212 -0.27270 2.93490 0.000 0.000 1.000
v 0.00000 -0.25200 2.92572 0.000 0.000 1.000
v -0.02142 -0.27450 2.97918 0.000 0.000 1.000
v -0.02034 -0.27936 2.96874 0.000 0.000 1.000
v -0.04338 -0.26676 2.95002 0.000 0.000 1.000
v -0.04212 -0.27270 2.93490 0.000 0.000 1.000
v 0.04986 -0.24084 2.76642 0.000 0.000 1.000
v 0.07254 -0.27270 2.75418 0.000 0.000 1.000
v 0.05256 -0.22104 2.75184 0.000 0.000 1.000
v 0.06462 -0.27234 2.76840 0.000 0.000 1.000
v 0.04770 -0.32130 2.77722 0.000 0.000 1.000
v 0.03510 -0.31032 2.79306 0.000 0.000 1.000
v 0.00000 -0.32976 2.80584 0.000 0.000 1.000
v 0.00000 -0.34182 2.79810 0.000 0.000 1.000
v -0.04770 -0.32130 2.77722 0.000 0.000 1.000
v -0.03510 -0.31032 2.79306 0.000 0.000 1.000
v -0.06462 -0.27234 2.76840 0.000 0.000 1.000
v -0.07254 -0.27270 2.75418 0.000 0.000 1.000
v -0.04986 -0.24084 2.76642 0.000 0.000 1.000
v -0.05256 -0.22104 2.75184 0.000 0.000 1.000
v 0.00000 0.23544 3.04470 0.000 0.000 1.000
v 0.03204 0.22824 3.02472 0.000 0.000 1.000
v 0.00000 0.25596 3.03750 0.000 0.000 1.000
v 0.03618 0.23994 3.01932 0.000 0.000 1.000
v 0.00000 0.23490 2.98152 0.000 0.000 1.000
v -0.03204 0.22824 3.02472 0.000 0.000 1.000
v -0.03618 0.23994 3.01932 0.000 0.000 1.000
v 0.00000 0.32940 2.89710 0.000 0.000 1.000
v 0.03618 0.31014 2.87370 0.000 0.000 1.000
v 0.00000 0.32778 2.88360 0.000 0.000 1.000
v 0.03762 0.30816 2.85714 0.000 0.000 1.000
v 0.05022 0.27918 2.85642 0.000 0.000 1.000
v 0.04986 0.27954 2.84832 0.000 0.000 1.000
v 0.00000 0.25272 2.84040 0.000 0.000 1.000
v -0.03618 0.31014 2.87370 0.000 0.000 1.000
v -0.03762 0.30816 2.85714 0.000 0.000 1.000
v -0.05022 0.27918 2.85642 0.000 0.000 1.000
v -0.04986 0.27954 2.84832 0.000 0.000 1.000
v 0.02142 0.27450 2.97918 0.000 0.000 1.000
v 0.02034 0.27936 2.96874 0.000 0.000 1.000
v 0.00000 0.28782 2.98098 0.000 0.000 1.000
v 0.00000 0.28224 2.99394 0.000 0.000 1.000
v 0.04338 0.26676 2.95002 0.000 0.000 1.000
v 0.04212 0.27270 2.93490 0.000 0.000 1.000
v 0.00000 0.25200 2.92572 0.000 0.000 1.000
v -0.02142 0.27450 2.97918 0.000 0.000 1.000
v -0.02034 0.27936 2.96874 0.000 0.000 1.000
v -0.04338 0.26676 2.95002 0.000 0.000 1.000
v -0.04212 0.27270 2.93490 0.000 0.000 1.000
v 0.05256 0.22104 2.75184 0.000 0.000 1.000
v 0.07254 0.27270 2.75418 0.000 0.000 1.000
v 0.04986 0.24084 2.76642 0.000 0.000 1.000
v 0.06462 0.27234 2.76840 0.000 0.000 1.000
v 0.04770 0.32130 2.77722 0.000 0.000 1.000
v 0.03510 0.31032 2.79306 0.000 0.000 1.000
v 0.00000 0.32976 2.80584 0.000 0.000 1.000
v 0.00000 0.34182 2.79810 0.000 0.000 1.000
v -0.04770 0.32130 2.77722 0.000 0.000 1.000
v -0.03510 0.31032 2.79306 0.000 0.000 1.000
v -0.06462 0.27234 2.76840 0.000 0.000 1.000
v -0.07254 0.27270 2.75418 0.000 0.000 1.000
v -0.04986 0.24084 2.76642 0.000 0.000 1.000
v -0.05256 0.22104 2.75184 0.000 0.000 1.000
vt 0.42969 0.61719
vt 0.24219 0.60156
vt 0.42969 0.61719
vt 0.42969 0.60156
vt 0.41406 0.60156
vt 0.42969 0.61719
vt 0.42969 0.60156
vt 0.41406 0.60156
vt 0.42969 0.58594
vt 0.42969 0.58594
vt 0.42969 0.60156
vt 0.42969 0.60156
vt 0.42969 0.61719
vt 0.42969 0.58594
vt 0.42969 0.60156
vt 0.42969 0.60156
vt 0.42969 0.61719
vt 0.42969 0.60156
vt 0.42969 0.61719
vt 0.42969 0.61719
vt 0.24219 0.60156
vt 0.42969 0.61719
vt 0.42969 0.60156
vt 0.42969 0.58594
vt 0.42969 0.58594
vt 0.42969 0.58594
vt 0.42969 0.60156
vt 0.42969 0.61719
vt 0.42969 0.60156
vt 0.42969 0.61719
vt 0.42969 0.58594
vt 0.42969 0.60156
vt 0.24219 0.60156
vt 0.42969 0.60156
vt 0.42969 0.58594
vt 0.42969 0.57031
vt 0.42969 0.61719
vt 0.42969 0.61719
vt 0.42969 0.61719
vt 0.42969 0.58594
vt 0.42969 0.58594
vt 0.42969 0.60156
vt 0.42969 0.60156
vt 0.42969 0.61719
vt 0.24219 0.60156
vt 0.42969 0.61719
vt 0.42969 0.60156
vt 0.41406 0.60156
vt 0.42969 0.61719
vt 0.42969 0.60156
vt 0.41406 0.60156
vt 0.42969 0.58594
vt 0.42969 0.58594
vt 0.42969 0.60156
vt 0.42969 0.60156
vt 0.42969 0.61719
vt 0.42969 0.58594
vt 0.42969 0.60156
vt 0.42969 0.60156
vt 0.42969 0.61719
vt 0.42969 0.61719
vt 0.42969 0.61719
vt 0.42969 0.60156
vt 0.24219 0.60156
vt 0.42969 0.61719
vt 0.42969 0.60156
vt 0.42969 0.58594
vt 0.42969 0.58594
vt 0.42969 0.58594
vt 0.42969 0.60156
vt 0.42969 0.61719
vt 0.42969 0.60156
vt 0.42969 0.61719
vt 0.24219 0.60156
vt 0.42969 0.60156
vt 0.42969 0.58594
vt 0.42969 0.60156
vt 0.42969 0.58594
vt 0.42969 0.57031
vt 0.42969 0.61719
vt 0.42969 0.61719
vt 0.42969 0.61719
vt 0.42969 0.58594
vt 0.42969 0.58594
vt 0.42969 0.60156
vt 0.42969 0.60156
vt 0.63281 0.57031
vt 0.63281 0.89844
vt 0.57031 0.99219
vt 0.49219 0.57031
vt 0.47656 0.99219
vt 0.42969 0.69531
vt 0.32031 0.72656
vt 0.32031 0.99219
vt 0.16406 0.99219
vt 0.75781 0.89844
vt 0.16406 0.80469
vt 0.16406 0.61719
vt 0.00781 0.71094
vt 0.00781 0.61719
vt 0.00781 0.80469
vt 0.00781 0.99219
vt 0.16406 0.99219
vt 0.16406 0.61719
vt 0.16406 0.80469
vt 0.32031 0.72656
vt 0.32031 0.99219
vt 0.47656 0.99219
vt 0.42969 0.69531
vt 0.49219 0.57031
vt 0.57031 0.99219
vt 0.63281 0.57031
vt 0.63281 0.89844
vt 0.75781 0.67969
vt 0.75781 0.46094
vt 0.57031 0.99219
vt 0.63281 0.89844
vt 0.63281 0.57031
vt 0.49219 0.57031
vt 0.47656 0.99219
vt 0.42969 0.69531
vt 0.32031 0.72656
vt 0.32031 0.99219
vt 0.16406 0.99219
vt 0.75781 0.89844
vt 0.16406 0.80469
vt 0.16406 0.61719
vt 0.00781 0.71094
vt 0.00781 0.61719
vt 0.00781 0.80469
vt 0.00781 0.99219
vt 0.16406 0.99219
vt 0.16406 0.61719
vt 0.16406 0.80469
vt 0.32031 0.72656
vt 0.32031 0.99219
vt 0.47656 0.99219
vt 0.42969 0.69531
vt 0.49219 0.57031
vt 0.57031 0.99219
vt 0.63281 0.57031
vt 0.63281 0.89844
vt 0.75781 0.67969
vt 0.75781 0.46094
vt 0.85156 0.38281
vt 0.99219 0.42969
vt 0.99219 0.27344
vt 0.86719 0.61719
vt 0.99219 0.66406
vt 0.77344 0.55469
vt 0.86719 0.99219
vt 0.77344 0.86719
vt 0.77344 0.99219
vt 0.99219 0.99219
vt 0.85156 0.38281
vt 0.86719 0.61719
vt 0.77344 0.55469
vt 0.86719 0.99219
vt 0.77344 0.86719
vt 0.77344 0.99219
vt 0.99219 0.27344
vt 0.99219 0.42969
vt 0.85156 0.38281
vt 0.86719 0.61719
vt 0.99219 0.66406
vt 0.77344 0.55469
vt 0.86719 0.99219
vt 0.77344 0.86719
vt 0.77344 0.99219
vt 0.99219 0.99219
vt 0.85156 0.38281
vt 0.86719 0.61719
vt 0.77344 0.55469
vt 0.86719 0.99219
vt 0.77344 0.86719
vt 0.77344 0.99219
vt 0.41406 0.53906
vt 0.41406 0.35156
vt 0.47656 0.47656
vt 0.35156 0.53906
vt 0.32031 0.35156
vt 0.41406 0.22656
vt 0.58594 0.35156
vt 0.58594 0.44531
vt 0.30469 0.22656
vt 0.41406 0.11719
vt 0.28906 0.11719
vt 0.52344 0.11719
vt 0.52344 0.22656
vt 0.41406 0.35156
vt 0.30469 0.22656
vt 0.32031 0.35156
vt 0.41406 0.22656
vt 0.58594 0.35156
vt 0.52344 0.22656
vt 0.66406 0.22656
vt 0.53906 0.22656
vt 0.66406 0.11719
vt 0.53906 0.11719
vt 0.60156 0.35156
vt 0.75781 0.22656
vt 0.66406 0.35156
vt 0.60156 0.44531
vt 0.75219 0.35156
vt 0.66406 0.44531
vt 0.53906 0.22656
vt 0.66406 0.22656
vt 0.60156 0.35156
vt 0.66406 0.35156
vt 0.75781 0.22656
vt 0.77344 0.22656
vt 0.67969 0.11719
vt 0.99219 0.22656
vt 0.76781 0.35156
vt 0.77344 0.22656
vt 0.08594 0.60156
vt 0.03906 0.55469
vt 0.08594 0.41406
vt 0.00781 0.50781
vt 0.00781 0.32031
vt 0.08594 0.22656
vt 0.14844 0.22656
vt 0.08594 0.05469
vt 0.14844 0.07031
vt 0.14844 0.55469
vt 0.14844 0.41406
vt 0.08594 0.41406
vt 0.00781 0.32031
vt 0.08594 0.22656
vt 0.14844 0.22656
vt 0.08594 0.05469
vt 0.14844 0.07031
vt 0.14844 0.41406
vt 0.16406 0.11719
vt 0.16406 0.07031
vt 0.27344 0.11719
vt 0.28906 0.22656
vt 0.16406 0.22656
vt 0.16406 0.11719
vt 0.28906 0.22656
vt 0.16406 0.22656
vt 0.16406 0.39844
vt 0.30469 0.35156
vt 0.21094 0.53906
vt 0.27344 0.53906
vt 0.33594 0.53906
vt 0.16406 0.53906
vt 0.30469 0.35156
vt 0.16406 0.39844
vt 0.47656 0.47656
vt 0.41406 0.35156
vt 0.41406 0.53906
vt 0.35156 0.53906
vt 0.32031 0.35156
vt 0.41406 0.22656
vt 0.58594 0.35156
vt 0.58594 0.44531
vt 0.30469 0.22656
vt 0.41406 0.11719
vt 0.28906 0.11719
vt 0.52344 0.11719
vt 0.52344 0.22656
vt 0.41406 0.35156
vt 0.30469 0.22656
vt 0.32031 0.35156
vt 0.41406 0.22656
vt 0.52344 0.22656
vt 0.58594 0.35156
vt 0.66406 0.11719
vt 0.53906 0.22656
vt 0.66406 0.22656
vt 0.53906 0.11719
vt 0.60156 0.35156
vt 0.75781 0.22656
vt 0.66406 0.35156
vt 0.60156 0.44531
vt 0.75219 0.35156
vt 0.66406 0.44531
vt 0.53906 0.22656
vt 0.66406 0.22656
vt 0.60156 0.35156
vt 0.66406 0.35156
vt 0.75781 0.22656
vt 0.99219 0.22656
vt 0.67969 0.11719
vt 0.77344 0.22656
vt 0.76781 0.35156
vt 0.77344 0.22656
vt 0.08594 0.41406
vt 0.03906 0.55469
vt 0.08594 0.60156
vt 0.00781 0.50781
vt 0.00781 0.32031
vt 0.08594 0.22656
vt 0.14844 0.22656
vt 0.08594 0.05469
vt 0.14844 0.07031
vt 0.14844 0.55469
vt 0.14844 0.41406
vt 0.08594 0.41406
vt 0.00781 0.32031
vt 0.08594 0.22656
vt 0.14844 0.22656
vt 0.08594 0.05469
vt 0.14844 0.07031
vt 0.14844 0.41406
vt 0.16406 0.07031
vt 0.16406 0.11719
vt 0.27344 0.11719
vt 0.28906 0.22656
vt 0.16406 0.22656
vt 0.16406 0.11719
vt 0.28906 0.22656
vt 0.16406 0.22656
vt 0.16406 0.39844
vt 0.30469 0.35156
vt 0.21094 0.53906
vt 0.27344 0.53906
vt 0.33594 0.53906
vt 0.16406 0.53906
vt 0.30469 0.35156
vt 0.16406 0.39844
vt 0.99219 0.02344
vt 0.84781 0.10156
vt 0.99219 0.10156
vt 0.84781 0.02344
vt 0.63414 0.05471
vt 0.84781 0.10156
vt 0.84781 0.02344
vt 0.99219 0.02344
vt 0.83219 0.02344
vt 0.83219 0.10156
vt 0.72844 0.10156
vt 0.99219 0.10156
vt 0.72844 0.02344
vt 0.62398 0.05471
vt 0.83219 0.10156
vt 0.83219 0.02344
vt 0.72844 0.10156
vt 0.72844 0.02344
vt 0.99219 0.02344
vt 0.90469 0.02344
vt 0.90469 0.10156
vt 0.99219 0.10156
vt 0.83219 0.10156
vt 0.83219 0.02344
vt 0.63211 0.05471
vt 0.90469 0.10156
vt 0.90469 0.02344
vt 0.83219 0.10156
vt 0.83219 0.02344
vt 0.64844 0.10156
vt 0.71719 0.02344
vt 0.62398 0.02596
vt 0.71719 0.10156
vt 0.84781 0.02344
vt 0.84781 0.10156
vt 0.99219 0.10156
vt 0.99219 0.02344
vt 0.84781 0.02344
vt 0.84781 0.10156
vt 0.71719 0.10156
vt 0.71719 0.02344
vt 0.64844 0.10156
vt 0.62398 0.02596
vt 0.99219 0.10156
vt 0.84781 0.10156
vt 0.99219 0.02344
vt 0.84781 0.02344
vt 0.63414 0.05471
vt 0.84781 0.10156
vt 0.84781 0.02344
vt 0.83219 0.10156
vt 0.83219 0.02344
vt 0.99219 0.02344
vt 0.72844 0.10156
vt 0.99219 0.10156
vt 0.72844 0.02344
vt 0.62398 0.05471
vt 0.83219 0.10156
vt 0.83219 0.02344
vt 0.72844 0.10156
vt 0.72844 0.02344
vt 0.90469 0.10156
vt 0.90469 0.02344
vt 0.99219 0.02344
vt 0.99219 0.10156
vt 0.83219 0.10156
vt 0.83219 0.02344
vt 0.63211 0.05471
vt 0.90469 0.10156
vt 0.90469 0.02344
vt 0.83219 0.10156
vt 0.83219 0.02344
vt 0.62398 0.02596
vt 0.71719 0.02344
vt 0.64844 0.10156
vt 0.71719 0.10156
vt 0.84781 0.02344
vt 0.84781 0.10156
vt 0.99219 0.10156
vt 0.99219 0.02344
vt 0.84781 0.02344
vt 0.84781 0.10156
vt 0.71719 0.10156
vt 0.71719 0.02344
vt 0.64844 0.10156
vt 0.62398 0.02596
vt 0.38281 0.00781
vt 0.33594 0.00781
vt 0.38281 0.00781
vt 0.33594 0.00781
vt 0.28906 0.00781
vt 0.33594 0.00781
vt 0.33594 0.00781
vt 0.24219 0.00781
vt 0.19531 0.00781
vt 0.24219 0.00781
vt 0.19531 0.00781
vt 0.14844 0.00781
vt 0.14844 0.00781
vt 0.08594 0.00781
vt 0.19531 0.00781
vt 0.19531 0.00781
vt 0.14844 0.00781
vt 0.14844 0.00781
vt 0.28906 0.00781
vt 0.25781 0.00781
vt 0.25781 0.00781
vt 0.28906 0.00781
vt 0.22656 0.00781
vt 0.22656 0.00781
vt 0.16406 0.00781
vt 0.25781 0.00781
vt 0.25781 0.00781
vt 0.22656 0.00781
vt 0.22656 0.00781
vt 0.02344 0.00781
vt 0.05469 0.00781
vt 0.00781 0.00781
vt 0.05469 0.00781
vt 0.10156 0.00781
vt 0.10156 0.00781
vt 0.14844 0.00781
vt 0.14844 0.00781
vt 0.10156 0.00781
vt 0.10156 0.00781
vt 0.05469 0.00781
vt 0.05469 0.00781
vt 0.02344 0.00781
vt 0.00781 0.00781
vt 0.38281 0.00781
vt 0.33594 0.00781
vt 0.38281 0.00781
vt 0.33594 0.00781
vt 0.28906 0.00781
vt 0.33594 0.00781
vt 0.33594 0.00781
vt 0.24219 0.00781
vt 0.19531 0.00781
vt 0.24219 0.00781
vt 0.19531 0.00781
vt 0.14844 0.00781
vt 0.14844 0.00781
vt 0.08594 0.00781
vt 0.19531 0.00781
vt 0.19531 0.00781
vt 0.14844 0.00781
vt 0.14844 0.00781
vt 0.25781 0.00781
vt 0.25781 0.00781
vt 0.28906 0.00781
vt 0.28906 0.00781
vt 0.22656 0.00781
vt 0.22656 0.00781
vt 0.16406 0.00781
vt 0.25781 0.00781
vt 0.25781 0.00781
vt 0.22656 0.00781
vt 0.22656 0.00781
vt 0.00781 0.00781
vt 0.05469 0.00781
vt 0.02344 0.00781
vt 0.05469 0.00781
vt 0.10156 0.00781
vt 0.10156 0.00781
vt 0.14844 0.00781
vt 0.14844 0.00781
vt 0.10156 0.00781
vt 0.10156 0.00781
vt 0.05469 0.00781
vt 0.05469 0.00781
vt 0.02344 0.00781
vt 0.00781 0.00781
usemtl m0
f 1/1 2/2 3/3
f 3/3 2/2 4/4
f 2/2 5/5 4/4
f 6/6 2/2 1/1
f 7/7 2/2 6/6
f 7/7 8/8 2/2
f 9/9 10/10 2/2
f 10/10 11/11 2/2
f 2/2 11/11 12/12
f 2/2 12/12 13/13
f 2/2 14/14 9/9
f 2/2 15/15 14/14
f 16/16 15/15 2/2
f 17/17 16/16 2/2
f 18/18 19/19 20/20
f 21/21 18/18 20/20
f 21/21 20/20 22/22
f 23/23 18/18 21/21
f 24/24 23/23 21/21
f 24/24 21/21 25/25
f 25/25 21/21 26/26
f 21/21 27/27 26/26
f 22/22 28/28 21/21
f 21/21 28/28 29/29
f 21/21 29/29 27/27
f 28/28 30/30 29/29
f 31/31 32/32 33/33
f 33/33 32/32 34/34
f 33/33 35/35 31/31
f 36/36 35/35 33/33
f 37/37 33/33 34/34
f 38/38 33/33 37/37
f 39/39 33/33 38/38
f 33/33 40/40 36/36
f 41/41 40/40 33/33
f 33/33 42/42 41/41
f 43/43 42/42 33/33
f 43/43 33/33 39/39
f 44/44 45/45 46/46
f 47/47 45/45 44/44
f 47/47 48/48 45/45
f 46/46 45/45 49/49
f 49/49 45/45 50/50
f 45/45 51/51 50/50
f 45/45 52/52 53/53
f 45/45 54/54 52/52
f 55/55 54/54 45/45
f 56/56 55/55 45/45
f 53/53 57/57 45/45
f 57/57 58/58 45/45
f 45/45 58/58 59/59
f 45/45 59/59 60/60
f 61/61 62/62 63/63
f 61/61 63/63 64/64
f 65/65 61/61 64/64
f 64/64 63/63 66/66
f 64/64 66/66 67/67
f 68/68 64/64 67/67
f 69/69 64/64 68/68
f 69/69 70/70 64/64
f 64/64 71/71 65/65
f 72/72 71/71 64/64
f 70/70 72/72 64/64
f 72/72 73/73 71/71
f 74/74 75/75 76/76
f 77/77 75/75 74/74
f 76/76 78/78 74/74
f 74/74 78/78 79/79
f 77/77 74/74 80/80
f 80/80 74/74 81/81
f 81/81 74/74 82/82
f 79/79 83/83 74/74
f 74/74 83/83 84/84
f 84/84 85/85 74/74
f 74/74 85/85 86/86
f 82/82 74/74 86/86
f 87/87 88/88 89/89
f 87/87 89/89 90/90
f 91/91 90/90 89/89
f 92/92 90/90 91/91
f 93/93 92/92 91/91
f 93/93 91/91 94/94
f 93/93 94/94 95/95
f 96/96 88/88 87/87
f 97/97 93/93 95/95
f 98/98 93/93 97/97
f 98/98 97/97 99/99
f 100/100 98/98 99/99
f 99/99 97/97 101/101
f 101/101 97/97 95/95
f 101/101 95/95 102/102
f 102/102 103/103 101/101
f 99/99 104/104 100/100
f 99/99 105/105 104/104
f 101/101 105/105 99/99
f 103/103 105/105 101/101
f 105/105 106/106 104/104
f 103/103 106/106 105/105
f 103/103 107/107 106/106
f 107/107 108/108 106/106
f 108/108 109/109 106/106
f 108/108 110/110 109/109
f 111/111 110/110 108/108
f 110/110 111/111 112/112
f 111/111 113/113 112/112
f 112/112 113/113 96/96
f 96/96 114/114 112/112
f 87/87 114/114 96/96
f 115/115 114/114 87/87
f 112/112 114/114 115/115
f 116/116 117/117 118/118
f 119/119 116/116 118/118
f 116/116 119/119 120/120
f 120/120 119/119 121/121
f 120/120 121/121 122/122
f 123/123 120/120 122/122
f 124/124 123/123 122/122
f 118/118 117/117 125/125
f 124/124 122/122 126/126
f 126/126 122/122 127/127
f 128/128 126/126 127/127
f 128/128 127/127 129/129
f 130/130 126/126 128/128
f 124/124 126/126 130/130
f 131/131 124/124 130/130
f 130/130 132/132 131/131
f 129/129 133/133 128/128
f 133/133 134/134 128/128
f 128/128 134/134 130/130
f 130/130 134/134 132/132
f 133/133 135/135 134/134
f 134/134 135/135 132/132
f 135/135 136/136 132/132
f 135/135 137/137 136/136
f 135/135 138/138 137/137
f 138/138 139/139 137/137
f 137/137 139/139 140/140
f 141/141 140/140 139/139
f 141/141 142/142 140/140
f 125/125 142/142 141/141
f 141/141 143/143 125/125
f 125/125 143/143 118/118
f 118/118 143/143 144/144
f 144/144 143/143 141/141
f 145/145 146/146 147/147
f 145/145 148/148 146/146
f 148/148 149/149 146/146
f 150/150 148/148 145/145
f 148/148 151/151 149/149
f 152/152 151/151 148/148
f 152/152 153/153 151/151
f 149/149 151/151 154/154
f 147/147 146/146 155/155
f 146/146 156/156 155/155
f 146/146 149/149 156/156
f 155/155 156/156 157/157
f 154/154 158/158 149/149
f 149/149 158/158 156/156
f 156/156 158/158 159/159
f 158/158 160/160 159/159
f 161/161 162/162 163/163
f 162/162 164/164 163/163
f 162/162 165/165 164/164
f 163/163 164/164 166/166
f 165/165 167/167 164/164
f 164/164 167/167 168/168
f 167/167 169/169 168/168
f 170/170 167/167 165/165
f 171/171 162/162 161/161
f 171/171 172/172 162/162
f 172/172 165/165 162/162
f 173/173 172/172 171/171
f 165/165 174/174 170/170
f 172/172 174/174 165/165
f 175/175 174/174 172/172
f 175/175 176/176 174/174
f 177/177 178/178 179/179
f 177/177 180/180 178/178
f 180/180 181/181 178/178
f 178/178 181/181 182/182
f 179/179 178/178 183/183
f 184/184 179/179 183/183
f 181/181 185/185 182/182
f 182/182 185/185 186/186
f 185/185 187/187 186/186
f 182/182 186/186 188/188
f 189/189 182/182 188/188
f 183/183 178/178 189/189
f 178/178 182/182 189/189
f 179/179 190/190 177/177
f 190/190 180/180 177/177
f 186/186 187/187 191/191
f 190/190 192/192 180/180
f 193/193 192/192 190/190
f 186/186 191/191 193/193
f 193/193 191/191 192/192
f 188/188 186/186 193/193
f 194/194 179/179 184/184
f 194/194 190/190 179/179
f 188/188 193/193 195/195
f 195/195 190/190 194/194
f 195/195 193/193 190/190
f 196/196 197/197 198/198
f 197/197 199/199 198/198
f 200/200 197/197 196/196
f 196/196 198/198 201/201
f 202/202 196/196 201/201
f 202/202 200/200 196/196
f 203/203 200/200 202/202
f 202/202 201/201 204/204
f 205/205 202/202 204/204
f 205/205 203/203 202/202
f 198/198 199/199 206/206
f 198/198 206/206 207/207
f 207/207 206/206 208/208
f 209/209 208/208 203/203
f 204/204 209/209 205/205
f 207/207 208/208 209/209
f 209/209 203/203 205/205
f 210/210 198/198 207/207
f 204/204 210/210 209/209
f 210/210 207/207 209/209
f 211/211 212/212 213/213
f 214/214 211/211 213/213
f 213/213 212/212 215/215
f 213/213 215/215 214/214
f 216/216 217/217 218/218
f 217/217 219/219 218/218
f 219/219 220/220 218/218
f 218/218 220/220 221/221
f 218/218 221/221 222/222
f 222/222 221/221 223/223
f 222/222 223/223 224/224
f 216/216 218/218 225/225
f 225/225 218/218 226/226
f 226/226 218/218 222/222
f 227/227 217/217 216/216
f 227/227 219/219 217/217
f 225/225 227/227 216/216
f 227/227 228/228 219/219
f 229/229 228/228 227/227
f 230/230 229/229 227/227
f 231/231 229/229 230/230
f 232/232 231/231 230/230
f 233/233 227/227 225/225
f 230/230 227/227 233/233
f 234/234 224/224 235/235
f 236/236 234/234 235/235
f 237/237 234/234 236/236
f 238/238 234/234 237/237
f 235/235 232/232 239/239
f 235/235 239/239 236/236
f 236/236 239/239 240/240
f 240/240 239/239 241/241
f 242/242 238/238 237/237
f 243/243 242/242 237/237
f 244/244 242/242 243/243
f 245/245 244/244 243/243
f 246/246 245/245 243/243
f 247/247 242/242 244/244
f 248/248 245/245 246/246
f 248/248 244/244 245/245
f 244/244 249/249 247/247
f 248/248 249/249 244/244
f 240/240 249/249 248/248
f 240/240 241/241 249/249
f 250/250 251/251 252/252
f 251/251 253/253 252/252
f 251/251 254/254 253/253
f 255/255 254/254 251/251
f 256/256 251/251 250/250
f 256/256 250/250 257/257
f 255/255 258/258 254/254
f 259/259 258/258 255/255
f 259/259 260/260 258/258
f 261/261 259/259 255/255
f 261/261 255/255 262/262
f 262/262 251/251 256/256
f 262/262 255/255 251/251
f 252/252 263/263 250/250
f 252/252 253/253 263/263
f 264/264 260/260 259/259
f 253/253 265/265 263/263
f 263/263 265/265 266/266
f 266/266 264/264 259/259
f 265/265 264/264 266/266
f 266/266 259/259 261/261
f 267/267 266/266 261/261
f 263/263 266/266 267/267
f 268/268 263/263 267/267
f 257/257 250/250 268/268
f 250/250 263/263 268/268
f 269/269 270/270 271/271
f 269/269 272/272 270/270
f 271/271 270/270 273/273
f 274/274 269/269 271/271
f 274/274 271/271 275/275
f 271/271 273/273 275/275
f 275/275 273/273 276/276
f 277/277 274/274 275/275
f 277/277 275/275 278/278
f 275/275 276/276 278/278
f 279/279 272/272 269/269
f 280/280 279/279 269/269
f 281/281 279/279 280/280
f 276/276 281/281 282/282
f 278/278 282/282 277/277
f 282/282 281/281 280/280
f 278/278 276/276 282/282
f 280/280 269/269 283/283
f 282/282 283/283 277/277
f 282/282 280/280 283/283
f 284/284 285/285 286/286
f 284/284 286/286 287/287
f 288/288 285/285 284/284
f 287/287 288/288 284/284
f 289/289 290/290 291/291
f 289/289 292/292 290/290
f 289/289 293/293 292/292
f 294/294 293/293 289/289
f 295/295 294/294 289/289
f 296/296 294/294 295/295
f 297/297 296/296 295/295
f 298/298 289/289 291/291
f 299/299 289/289 298/298
f 295/295 289/289 299/299
f 291/291 290/290 300/300
f 290/290 292/292 300/300
f 291/291 300/300 298/298
f 292/292 301/301 300/300
f 300/300 301/301 302/302
f 300/300 302/302 303/303
f 303/303 302/302 304/304
f 303/303 304/304 305/305
f 298/298 300/300 306/306
f 306/306 300/300 303/303
f 307/307 297/297 308/308
f 307/307 308/308 309/309
f 309/309 308/308 310/310
f 310/310 308/308 311/311
f 312/312 305/305 307/307
f 309/309 312/312 307/307
f 313/313 312/312 309/309
f 314/314 312/312 313/313
f 310/310 311/311 315/315
f 310/310 315/315 316/316
f 316/316 315/315 317/317
f 316/316 317/317 318/318
f 316/316 318/318 319/319
f 317/317 315/315 320/320
f 319/319 318/318 321/321
f 318/318 317/317 321/321
f 320/320 322/322 317/317
f 317/317 322/322 321/321
f 321/321 322/322 313/313
f 322/322 314/314 313/313
f 323/323 324/324 325/325
f 323/323 326/326 324/324
f 326/326 327/327 324/324
f 325/325 328/328 323/323
f 328/328 329/329 323/323
f 328/328 327/327 329/329
f 330/330 331/331 332/332
f 331/331 333/333 332/332
f 330/330 332/332 334/334
f 331/331 335/335 333/333
f 333/333 335/335 336/336
f 334/334 337/337 330/330
f 337/337 338/338 330/330
f 337/337 339/339 338/338
f 339/339 340/340 338/338
f 336/336 340/340 339/339
f 341/341 342/342 343/343
f 341/341 343/343 344/344
f 342/342 345/345 343/343
f 342/342 346/346 345/345
f 346/346 347/347 345/345
f 344/344 348/348 341/341
f 348/348 349/349 341/341
f 348/348 350/350 349/349
f 350/350 351/351 349/349
f 350/350 347/347 351/351
f 352/352 353/353 354/354
f 355/355 353/353 352/352
f 356/356 353/353 355/355
f 357/357 356/356 355/355
f 358/358 356/356 357/357
f 359/359 356/356 358/358
f 358/358 360/360 359/359
f 358/358 361/361 360/360
f 361/361 362/362 360/360
f 362/362 363/363 360/360
f 364/364 363/363 362/362
f 365/365 363/363 364/364
f 366/366 367/367 368/368
f 367/367 369/369 368/368
f 367/367 370/370 369/369
f 368/368 371/371 366/366
f 368/368 372/372 371/371
f 372/372 370/370 371/371
f 373/373 374/374 375/375
f 373/373 376/376 374/374
f 377/377 373/373 375/375
f 376/376 378/378 374/374
f 379/379 378/378 376/376
f 375/375 380/380 377/377
f 375/375 381/381 380/380
f 381/381 382/382 380/380
f 381/381 383/383 382/382
f 382/382 383/383 379/379
f 384/384 385/385 386/386
f 387/387 384/384 386/386
f 384/384 388/388 385/385
f 388/388 389/389 385/385
f 388/388 390/390 389/389
f 386/386 391/391 387/387
f 386/386 392/392 391/391
f 392/392 393/393 391/391
f 392/392 394/394 393/393
f 394/394 390/390 393/393
f 395/395 396/396 397/397
f 397/397 396/396 398/398
f 398/398 396/396 399/399
f 398/398 399/399 400/400
f 400/400 399/399 401/401
f 401/401 399/399 402/402
f 402/402 403/403 401/401
f 403/403 404/404 401/401
f 403/403 405/405 404/404
f 403/403 406/406 405/405
f 405/405 406/406 407/407
f 407/407 406/406 408/408
usemtl m1
f 409/409 410/410 411/411
f 409/409 412/412 410/410
f 412/412 413/413 410/410
f 411/411 414/414 409/409
f 414/414 415/415 409/409
f 414/414 413/413 415/415
f 416/416 417/417 418/418
f 416/416 419/419 417/417
f 419/419 420/420 417/417
f 419/419 421/421 420/420
f 420/420 421/421 422/422
f 418/418 423/423 416/416
f 423/423 424/424 416/416
f 423/423 425/425 424/424
f 425/425 426/426 424/424
f 422/422 426/426 425/425
f 427/427 428/428 429/429
f 427/427 429/429 430/430
f 428/428 431/431 429/429
f 428/428 432/432 431/431
f 432/432 433/433 431/431
f 430/430 434/434 427/427
f 434/434 435/435 427/427
f 434/434 436/436 435/435
f 436/436 437/437 435/435
f 436/436 433/433 437/437
f 438/438 439/439 440/440
f 441/441 439/439 438/438
f 442/442 439/439 441/441
f 443/443 442/442 441/441
f 444/444 442/442 443/443
f 445/445 442/442 444/444
f 444/444 446/446 445/445
f 444/444 447/447 446/446
f 447/447 448/448 446/446
f 448/448 449/449 446/446
f 450/450 449/449 448/448
f 451/451 449/449 450/450
f 452/452 453/453 454/454
f 453/453 455/455 454/454
f 453/453 456/456 455/455
f 454/454 457/457 452/452
f 454/454 458/458 457/457
f 458/458 456/456 457/457
f 459/459 460/460 461/461
f 460/460 462/462 461/461
f 460/460 463/463 462/462
f 463/463 464/464 462/462
f 465/465 464/464 463/463
f 461/461 466/466 459/459
f 461/461 467/467 466/466
f 467/467 468/468 466/466
f 467/467 469/469 468/468
f 468/468 469/469 465/465
f 470/470 471/471 472/472
f 473/473 470/470 472/472
f 470/470 474/474 471/471
f 474/474 475/475 471/471
f 474/474 476/476 475/475
f 472/472 477/477 473/473
f 472/472 478/478 477/477
f 478/478 479/479 477/477
f 478/478 480/480 479/479
f 480/480 476/476 479/479
f 481/481 482/482 483/483
f 483/483 482/482 484/484
f 484/484 482/482 485/485
f 484/484 485/485 486/486
f 486/486 485/485 487/487
f 487/487 485/485 488/488
f 488/488 489/489 487/487
f 489/489 490/490 487/487
f 489/489 491/491 490/490
f 489/489 492/492 491/491
f 491/491 492/492 493/493
f 493/493 492/492 494/494
