mtllib options236.mtl
o options236
v 0.38970 0.05400 2.41848 0.890 0.000 0.000
v 0.38970 0.00000 2.41848 0.902 0.000 0.000
v 0.38088 0.05400 2.41344 0.820 0.000 0.000
v 0.38088 0.00000 2.41344 0.820 0.000 0.000
v 0.38268 0.06300 2.42028 0.922 0.000 0.000
v 0.19836 0.05400 2.46240 0.859 0.000 0.000
v 0.20016 0.06300 2.46924 0.902 0.000 0.000
v 0.17748 0.04860 2.47536 0.902 0.000 0.000
v 0.18270 0.04140 2.46654 0.863 0.000 0.000
v 0.17568 0.02160 2.46834 0.871 0.000 0.000
v 0.16884 0.02700 2.47770 0.910 0.000 0.000
v 0.17568 0.00000 2.46834 0.859 0.000 0.000
v 0.16884 0.00000 2.47770 0.914 0.000 0.000
v 0.38088 -0.05400 2.41344 0.820 0.000 0.000
v 0.38970 -0.05400 2.41848 0.890 0.000 0.000
v 0.38268 -0.06300 2.42028 0.922 0.000 0.000
v 0.16884 -0.02700 2.47770 0.910 0.000 0.000
v 0.17568 -0.02160 2.46834 0.871 0.000 0.000
v 0.19836 -0.05400 2.46240 0.859 0.000 0.000
v 0.20016 -0.06300 2.46924 0.902 0.000 0.000
v 0.17748 -0.04860 2.47536 0.902 0.000 0.000
v 0.18270 -0.04140 2.46654 0.863 0.000 0.000
v 0.17568 0.02160 2.46834 0.871 0.000 0.000
v 0.19836 0.00000 2.46240 0.839 0.000 0.000
v 0.17568 0.00000 2.46834 0.859 0.000 0.000
v 0.18270 0.04140 2.46654 0.863 0.000 0.000
v 0.19836 0.05400 2.46240 0.859 0.000 0.000
v 0.38088 0.05400 2.41344 0.820 0.000 0.000
v 0.38088 0.00000 2.41344 0.820 0.000 0.000
v 0.17568 -0.02160 2.46834 0.871 0.000 0.000
v 0.18270 -0.04140 2.46654 0.863 0.000 0.000
v 0.38088 -0.05400 2.41344 0.820 0.000 0.000
v 0.19836 -0.05400 2.46240 0.859 0.000 0.000
v 0.17406 0.02700 2.49678 0.914 0.000 0.000
v 0.16884 0.02700 2.47770 0.910 0.000 0.000
v 0.17406 0.00000 2.49678 0.922 0.000 0.000
v 0.16884 0.00000 2.47770 0.914 0.000 0.000
v 0.17748 0.04860 2.47536 0.902 0.000 0.000
v 0.18270 0.04860 2.49444 0.910 0.000 0.000
v 0.20016 0.06300 2.46924 0.902 0.000 0.000
v 0.20520 0.06300 2.48832 0.910 0.000 0.000
v 0.38268 0.06300 2.42028 0.922 0.000 0.000
v 0.38790 0.06300 2.43954 0.929 0.000 0.000
v 0.16884 -0.02700 2.47770 0.910 0.000 0.000
v 0.17406 -0.02700 2.49678 0.914 0.000 0.000
v 0.17748 -0.04860 2.47536 0.902 0.000 0.000
v 0.18270 -0.04860 2.49444 0.910 0.000 0.000
v 0.20016 -0.06300 2.46924 0.902 0.000 0.000
v 0.20520 -0.06300 2.48832 0.910 0.000 0.000
v 0.38268 -0.06300 2.42028 0.922 0.000 0.000
v 0.38790 -0.06300 2.43954 0.929 0.000 0.000
v 0.21042 0.06300 2.50758 0.902 0.000 0.000
v 0.18774 0.04860 2.51352 0.902 0.000 0.000
v 0.17910 0.02700 2.51586 0.910 0.000 0.000
v 0.17910 0.00000 2.51586 0.914 0.000 0.000
v 0.17910 -0.02700 2.51586 0.910 0.000 0.000
v 0.18774 -0.04860 2.51352 0.902 0.000 0.000
v 0.21042 -0.06300 2.50758 0.902 0.000 0.000
v 0.39294 -0.06300 2.45862 0.922 0.000 0.000
v 0.39294 0.06300 2.45862 0.922 0.000 0.000
v 0.39474 0.00000 2.43756 0.910 0.000 0.000
v 0.38970 0.00000 2.41848 0.902 0.000 0.000
v 0.39474 0.05400 2.43756 0.902 0.000 0.000
v 0.38970 0.05400 2.41848 0.890 0.000 0.000
v 0.39474 -0.05400 2.43756 0.902 0.000 0.000
v 0.38970 -0.05400 2.41848 0.890 0.000 0.000
v 0.39996 0.00000 2.45682 0.902 0.000 0.000
v 0.39996 0.05400 2.45682 0.890 0.000 0.000
v 0.39996 -0.05400 2.45682 0.890 0.000 0.000
v 0.38790 0.06300 2.43954 0.929 0.000 0.000
v 0.39474 0.05400 2.43756 0.902 0.000 0.000
v 0.38268 0.06300 2.42028 0.922 0.000 0.000
v 0.38970 0.05400 2.41848 0.890 0.000 0.000
v 0.39294 0.06300 2.45862 0.922 0.000 0.000
v 0.39996 0.05400 2.45682 0.890 0.000 0.000
v 0.38268 -0.06300 2.42028 0.922 0.000 0.000
v 0.39474 -0.05400 2.43756 0.902 0.000 0.000
v 0.38790 -0.06300 2.43954 0.929 0.000 0.000
v 0.38970 -0.05400 2.41848 0.890 0.000 0.000
v 0.39294 -0.06300 2.45862 0.922 0.000 0.000
v 0.39996 -0.05400 2.45682 0.890 0.000 0.000
v 0.39474 0.05400 2.46564 0.800 0.000 0.000
v 0.39996 0.00000 2.45682 0.902 0.000 0.000
v 0.39996 0.05400 2.45682 0.890 0.000 0.000
v 0.39474 0.00000 2.46564 0.800 0.000 0.000
v 0.39294 0.06300 2.45862 0.922 0.000 0.000
v 0.21222 0.05400 2.51442 0.859 0.000 0.000
v 0.21042 0.06300 2.50758 0.902 0.000 0.000
v 0.18774 0.04860 2.51352 0.902 0.000 0.000
v 0.19656 0.04140 2.51874 0.863 0.000 0.000
v 0.18972 0.02160 2.52054 0.871 0.000 0.000
v 0.17910 0.02700 2.51586 0.910 0.000 0.000
v 0.18972 0.00000 2.52054 0.859 0.000 0.000
v 0.17910 0.00000 2.51586 0.914 0.000 0.000
v 0.39474 -0.05400 2.46564 0.800 0.000 0.000
v 0.39996 -0.05400 2.45682 0.890 0.000 0.000
v 0.39294 -0.06300 2.45862 0.922 0.000 0.000
v 0.17910 -0.02700 2.51586 0.910 0.000 0.000
v 0.18972 -0.02160 2.52054 0.871 0.000 0.000
v 0.21222 -0.05400 2.51442 0.859 0.000 0.000
v 0.21042 -0.06300 2.50758 0.902 0.000 0.000
v 0.18774 -0.04860 2.51352 0.902 0.000 0.000
v 0.19656 -0.04140 2.51874 0.863 0.000 0.000
v 0.18972 0.00000 2.52054 0.859 0.000 0.000
v 0.21222 0.00000 2.51442 0.839 0.000 0.000
v 0.18972 0.02160 2.52054 0.871 0.000 0.000
v 0.19656 0.04140 2.51874 0.863 0.000 0.000
v 0.21222 0.05400 2.51442 0.859 0.000 0.000
v 0.39474 0.05400 2.46564 0.800 0.000 0.000
v 0.39474 0.00000 2.46564 0.800 0.000 0.000
v 0.18972 -0.02160 2.52054 0.871 0.000 0.000
v 0.19656 -0.04140 2.51874 0.863 0.000 0.000
v 0.39474 -0.05400 2.46564 0.800 0.000 0.000
v 0.21222 -0.05400 2.51442 0.859 0.000 0.000
v 0.49122 0.00000 2.40804 0.000 0.835 0.000
v 0.49824 0.00000 2.40624 0.000 0.835 0.000
v 0.49122 -0.01260 2.40804 0.000 0.835 0.000
v 0.38160 0.00000 2.43738 0.000 0.835 0.000
v 0.38160 -0.01260 2.43738 0.000 0.835 0.000
v 0.49122 0.01260 2.40804 0.000 0.835 0.000
v 0.38160 0.01260 2.43738 0.000 0.835 0.000
v 0.49302 -0.01260 2.41506 0.000 0.835 0.000
v 0.50004 0.00000 2.41308 0.000 0.835 0.000
v 0.49302 0.00000 2.41506 0.000 0.835 0.000
v 0.38358 0.00000 2.44440 0.000 0.835 0.000
v 0.38358 -0.01260 2.44440 0.000 0.835 0.000
v 0.49302 0.01260 2.41506 0.000 0.835 0.000
v 0.38358 0.01260 2.44440 0.000 0.835 0.000
v 0.49122 -0.01260 2.40804 0.000 0.890 0.000
v 0.49302 -0.01260 2.41506 0.000 0.890 0.000
v 0.38358 -0.01260 2.44440 0.000 0.894 0.000
v 0.38160 -0.01260 2.43738 0.000 0.894 0.000
v 0.50004 0.00000 2.41308 0.000 0.863 0.000
v 0.49824 0.00000 2.40624 0.000 0.863 0.000
v 0.49122 0.01260 2.40804 0.000 0.890 0.000
v 0.49302 0.01260 2.41506 0.000 0.890 0.000
v 0.38358 0.01260 2.44440 0.000 0.894 0.000
v 0.38160 0.01260 2.43738 0.000 0.894 0.000
v 0.18072 0.00000 2.49066 1.000 0.000 0.000
v 0.18810 0.00000 2.51154 0.922 0.000 0.000
v 0.18810 -0.00828 2.51172 0.925 0.000 0.000
v 0.17874 -0.01692 2.49156 1.000 0.000 0.000
v 0.18810 0.00828 2.51172 0.925 0.000 0.000
v 0.17874 0.01692 2.49156 1.000 0.000 0.000
v 0.18630 -0.02034 2.51226 0.937 0.000 0.000
v 0.18252 -0.03474 2.51226 0.949 0.000 0.000
v 0.18630 0.02034 2.51226 0.937 0.000 0.000
v 0.18252 0.03474 2.51226 0.949 0.000 0.000
v 0.17640 0.03222 2.49264 0.976 0.000 0.000
v 0.17532 0.04248 2.49516 0.957 0.000 0.000
v 0.17640 -0.03222 2.49264 0.976 0.000 0.000
v 0.17532 -0.04248 2.49516 0.957 0.000 0.000
v 0.17280 0.03510 2.48508 0.945 0.000 0.000
v 0.17514 0.02610 2.48112 0.937 0.000 0.000
v 0.17874 0.01692 2.49156 1.000 0.000 0.000
v 0.17730 0.01188 2.47662 0.922 0.000 0.000
v 0.17874 0.00000 2.47662 0.922 0.000 0.000
v 0.17730 -0.01188 2.47662 0.922 0.000 0.000
v 0.17874 -0.01692 2.49156 1.000 0.000 0.000
v 0.17514 -0.02610 2.48112 0.937 0.000 0.000
v 0.17280 -0.03510 2.48508 0.945 0.000 0.000
v 0.18774 0.00000 2.52378 0.945 0.000 0.000
v 0.18540 -0.01386 2.52288 0.945 0.000 0.000
v 0.18972 -0.01242 2.51892 0.941 0.000 0.000
v 0.19116 0.00000 2.51964 0.941 0.000 0.000
v 0.18648 -0.02412 2.51802 0.945 0.000 0.000
v 0.18252 -0.02538 2.52108 0.941 0.000 0.000
v 0.18972 0.01242 2.51892 0.941 0.000 0.000
v 0.18540 0.01386 2.52288 0.945 0.000 0.000
v 0.18648 0.02412 2.51802 0.945 0.000 0.000
v 0.18252 0.02538 2.52108 0.941 0.000 0.000
v 0.18162 -0.03582 2.51586 0.949 0.000 0.000
v 0.17694 -0.03708 2.51730 0.949 0.000 0.000
v 0.17532 -0.04248 2.49516 0.957 0.000 0.000
v 0.18162 0.03582 2.51586 0.949 0.000 0.000
v 0.17694 0.03708 2.51730 0.949 0.000 0.000
v 0.17532 0.04248 2.49516 0.957 0.000 0.000
v 0.16776 -0.05346 2.49516 0.953 0.000 0.000
v 0.16776 0.05346 2.49516 0.953 0.000 0.000
v 0.19116 0.00000 2.51964 0.941 0.000 0.000
v 0.18972 -0.01242 2.51892 0.941 0.000 0.000
v 0.18810 -0.00828 2.51172 0.925 0.000 0.000
v 0.18630 -0.02034 2.51226 0.937 0.000 0.000
v 0.18648 -0.02412 2.51802 0.945 0.000 0.000
v 0.18252 -0.03474 2.51226 0.949 0.000 0.000
v 0.18810 0.00000 2.51154 0.922 0.000 0.000
v 0.18810 0.00828 2.51172 0.925 0.000 0.000
v 0.18972 0.01242 2.51892 0.941 0.000 0.000
v 0.18630 0.02034 2.51226 0.937 0.000 0.000
v 0.18648 0.02412 2.51802 0.945 0.000 0.000
v 0.18252 0.03474 2.51226 0.949 0.000 0.000
v 0.18162 0.03582 2.51586 0.949 0.000 0.000
v 0.18162 -0.03582 2.51586 0.949 0.000 0.000
v 0.17532 -0.04248 2.49516 0.957 0.000 0.000
v 0.17532 0.04248 2.49516 0.957 0.000 0.000
v 0.16362 -0.01422 2.46402 0.988 0.000 0.000
v 0.16632 0.00000 2.46168 0.988 0.000 0.000
v 0.17280 -0.00918 2.47212 0.953 0.000 0.000
v 0.17388 0.00000 2.47212 0.957 0.000 0.000
v 0.17874 0.00000 2.47662 0.922 0.000 0.000
v 0.17730 -0.01188 2.47662 0.922 0.000 0.000
v 0.17280 0.00918 2.47212 0.953 0.000 0.000
v 0.17730 0.01188 2.47662 0.922 0.000 0.000
v 0.16362 0.01422 2.46402 0.988 0.000 0.000
v 0.17514 -0.02610 2.48112 0.937 0.000 0.000
v 0.17010 -0.02052 2.47410 0.957 0.000 0.000
v 0.16110 -0.02790 2.46996 0.988 0.000 0.000
v 0.17010 0.02052 2.47410 0.957 0.000 0.000
v 0.17514 0.02610 2.48112 0.937 0.000 0.000
v 0.16110 0.02790 2.46996 0.988 0.000 0.000
v 0.16740 0.02970 2.47734 0.961 0.000 0.000
v 0.16092 0.03636 2.47734 0.973 0.000 0.000
v 0.16740 -0.02970 2.47734 0.961 0.000 0.000
v 0.16092 -0.03636 2.47734 0.973 0.000 0.000
v 0.17280 0.03510 2.48508 0.945 0.000 0.000
v 0.17532 0.04248 2.49516 0.957 0.000 0.000
v 0.16776 0.05346 2.49516 0.953 0.000 0.000
v 0.17280 -0.03510 2.48508 0.945 0.000 0.000
v 0.17532 -0.04248 2.49516 0.957 0.000 0.000
v 0.16776 -0.05346 2.49516 0.953 0.000 0.000
v 0.17820 -0.03834 2.53458 0.925 0.000 0.000
v 0.17190 -0.05778 2.53098 0.922 0.000 0.000
v 0.18252 -0.02538 2.52108 0.941 0.000 0.000
v 0.18540 -0.01386 2.52288 0.945 0.000 0.000
v 0.18288 -0.02124 2.53728 0.929 0.000 0.000
v 0.18666 0.00000 2.52972 0.941 0.000 0.000
v 0.18774 0.00000 2.52378 0.945 0.000 0.000
v 0.18540 0.01386 2.52288 0.945 0.000 0.000
v 0.18288 0.02124 2.53728 0.929 0.000 0.000
v 0.17820 0.03834 2.53458 0.925 0.000 0.000
v 0.18252 0.02538 2.52108 0.941 0.000 0.000
v 0.17190 0.05778 2.53098 0.922 0.000 0.000
v 0.17694 -0.03708 2.51730 0.949 0.000 0.000
v 0.16776 -0.05346 2.49516 0.953 0.000 0.000
v 0.17694 0.03708 2.51730 0.949 0.000 0.000
v 0.16776 0.05346 2.49516 0.953 0.000 0.000
v 0.14670 -0.07632 2.49498 0.953 0.000 0.000
v 0.14670 0.07632 2.49498 0.953 0.000 0.000
v 0.16092 -0.03636 2.47734 0.973 0.000 0.000
v 0.16092 0.03636 2.47734 0.973 0.000 0.000
vt 0.32031 0.00781
vt 0.32031 0.33594
vt 0.25781 0.03906
vt 0.25781 0.33594
vt 0.32031 0.03906
vt 0.25781 0.86719
vt 0.32031 0.86719
vt 0.32031 0.99219
vt 0.25781 0.99219
vt 0.25781 0.85156
vt 0.32031 0.86719
vt 0.25781 0.75781
vt 0.32031 0.75781
vt 0.25781 0.03906
vt 0.32031 0.00781
vt 0.32031 0.03906
vt 0.32031 0.86719
vt 0.25781 0.85156
vt 0.25781 0.86719
vt 0.32031 0.86719
vt 0.32031 0.99219
vt 0.25781 0.99219
vt 0.10156 0.99219
vt 0.00781 0.89844
vt 0.00781 0.99219
vt 0.19531 0.96094
vt 0.24219 0.89844
vt 0.24219 0.00781
vt 0.00781 0.00781
vt 0.10156 0.99219
vt 0.19531 0.96094
vt 0.24219 0.00781
vt 0.24219 0.89844
vt 0.44531 0.91406
vt 0.33594 0.91406
vt 0.44531 0.80469
vt 0.33594 0.80469
vt 0.33594 0.99219
vt 0.44531 0.99219
vt 0.33594 0.89844
vt 0.44531 0.89844
vt 0.33594 0.00781
vt 0.44531 0.00781
vt 0.33594 0.91406
vt 0.44531 0.91406
vt 0.33594 0.99219
vt 0.44531 0.99219
vt 0.33594 0.89844
vt 0.44531 0.89844
vt 0.33594 0.00781
vt 0.44531 0.00781
vt 0.33594 0.89844
vt 0.33594 0.99219
vt 0.33594 0.91406
vt 0.33594 0.80469
vt 0.33594 0.91406
vt 0.33594 0.99219
vt 0.33594 0.89844
vt 0.33594 0.00781
vt 0.33594 0.00781
vt 0.44531 0.24219
vt 0.33594 0.24219
vt 0.44531 0.00781
vt 0.33594 0.00781
vt 0.44531 0.00781
vt 0.33594 0.00781
vt 0.33594 0.24219
vt 0.33594 0.00781
vt 0.33594 0.00781
vt 0.25781 0.30469
vt 0.32031 0.30469
vt 0.25781 0.03906
vt 0.32031 0.03906
vt 0.25781 0.03906
vt 0.32031 0.03906
vt 0.25781 0.03906
vt 0.32031 0.30469
vt 0.25781 0.30469
vt 0.32031 0.03906
vt 0.25781 0.03906
vt 0.32031 0.03906
vt 0.25781 0.03906
vt 0.32031 0.33594
vt 0.32031 0.00781
vt 0.25781 0.33594
vt 0.32031 0.03906
vt 0.25781 0.86719
vt 0.32031 0.86719
vt 0.32031 0.99219
vt 0.25781 0.99219
vt 0.25781 0.85156
vt 0.32031 0.86719
vt 0.25781 0.75781
vt 0.32031 0.75781
vt 0.25781 0.03906
vt 0.32031 0.00781
vt 0.32031 0.03906
vt 0.32031 0.86719
vt 0.25781 0.85156
vt 0.25781 0.86719
vt 0.32031 0.86719
vt 0.32031 0.99219
vt 0.25781 0.99219
vt 0.00781 0.99219
vt 0.00781 0.89844
vt 0.10156 0.99219
vt 0.19531 0.96094
vt 0.24219 0.89844
vt 0.24219 0.00781
vt 0.00781 0.00781
vt 0.10156 0.99219
vt 0.19531 0.96094
vt 0.24219 0.00781
vt 0.24219 0.89844
vt 0.46094 0.07031
vt 0.57031 0.00781
vt 0.57031 0.07031
vt 0.46094 0.99219
vt 0.57031 0.99219
vt 0.57031 0.07031
vt 0.57031 0.99219
vt 0.57031 0.07031
vt 0.57031 0.00781
vt 0.46094 0.07031
vt 0.46094 0.99219
vt 0.57031 0.99219
vt 0.57031 0.07031
vt 0.57031 0.99219
vt 0.66406 0.00781
vt 0.58594 0.00781
vt 0.58594 0.99219
vt 0.66406 0.99219
vt 0.58594 0.19531
vt 0.66406 0.19531
vt 0.66406 0.00781
vt 0.58594 0.00781
vt 0.58594 0.99219
vt 0.66406 0.99219
vt 0.32294 0.90621
vt 0.32294 0.91151
vt 0.32949 0.91151
vt 0.34256 0.90621
vt 0.32949 0.91151
vt 0.34256 0.90621
vt 0.33537 0.91151
vt 0.34608 0.91138
vt 0.33537 0.91151
vt 0.34608 0.91138
vt 0.34851 0.90631
vt 0.35696 0.90641
vt 0.34976 0.90631
vt 0.35696 0.90641
vt 0.35210 0.90482
vt 0.34688 0.90312
vt 0.34006 0.90621
vt 0.34013 0.90092
vt 0.32294 0.90092
vt 0.34013 0.90092
vt 0.34006 0.90621
vt 0.34688 0.90312
vt 0.35210 0.90482
vt 0.00400 0.74341
vt 0.01093 0.74341
vt 0.00901 0.73585
vt 0.00400 0.73505
vt 0.01510 0.73354
vt 0.01957 0.73704
vt 0.00901 0.73585
vt 0.01093 0.74341
vt 0.01510 0.73354
vt 0.01957 0.73704
vt 0.01847 0.73026
vt 0.02249 0.73214
vt 0.02024 0.72646
vt 0.01847 0.73026
vt 0.02249 0.73214
vt 0.02024 0.72646
vt 0.02450 0.72654
vt 0.02450 0.72654
vt 0.55283 0.69900
vt 0.53863 0.69900
vt 0.53859 0.67540
vt 0.52272 0.67540
vt 0.52335 0.69500
vt 0.50869 0.67640
vt 0.55283 0.67540
vt 0.53859 0.67540
vt 0.53863 0.69900
vt 0.52272 0.67540
vt 0.52335 0.69500
vt 0.50869 0.67640
vt 0.50845 0.68763
vt 0.50845 0.68763
vt 0.49547 0.67940
vt 0.49547 0.67940
vt 0.59800 0.67540
vt 0.61438 0.67540
vt 0.60403 0.69200
vt 0.61438 0.69200
vt 0.61438 0.70100
vt 0.60319 0.70100
vt 0.60403 0.69200
vt 0.60319 0.70100
vt 0.59800 0.67540
vt 0.58137 0.70096
vt 0.59268 0.69400
vt 0.58373 0.67593
vt 0.59268 0.69400
vt 0.58137 0.70096
vt 0.58373 0.67593
vt 0.58241 0.68985
vt 0.57020 0.68655
vt 0.58241 0.68985
vt 0.57020 0.68655
vt 0.57197 0.70093
vt 0.56320 0.70090
vt 0.55017 0.70114
vt 0.57197 0.70093
vt 0.56320 0.70090
vt 0.55017 0.70114
vt 0.03134 0.76166
vt 0.04410 0.75819
vt 0.02057 0.73854
vt 0.01443 0.74841
vt 0.02055 0.76597
vt 0.00400 0.75931
vt 0.00400 0.74841
vt 0.01443 0.74841
vt 0.02055 0.76597
vt 0.03134 0.76166
vt 0.02057 0.73854
vt 0.04410 0.75819
vt 0.02024 0.72646
vt 0.04172 0.72731
vt 0.02024 0.72646
vt 0.04172 0.72731
vt 0.07394 0.72656
vt 0.07394 0.72656
vt 0.02781 0.70764
vt 0.02781 0.70764
usemtl m0
f 1/1 2/2 3/3
f 3/3 2/2 4/4
f 5/5 1/1 3/3
f 5/5 3/3 6/6
f 7/7 5/5 6/6
f 7/7 6/6 8/8
f 8/8 6/6 9/9
f 10/10 8/8 9/9
f 11/11 8/8 10/10
f 10/10 12/12 11/11
f 11/11 12/12 13/13
f 4/4 2/2 14/14
f 14/14 2/2 15/15
f 14/14 15/15 16/16
f 13/13 12/12 17/17
f 17/17 12/12 18/18
f 19/19 14/14 16/16
f 19/19 16/16 20/20
f 21/21 19/19 20/20
f 18/18 21/21 17/17
f 22/22 21/21 18/18
f 22/22 19/19 21/21
f 23/23 24/24 25/25
f 26/26 24/24 23/23
f 27/27 24/24 26/26
f 27/27 28/28 24/24
f 28/28 29/29 24/24
f 25/25 24/24 30/30
f 30/30 24/24 31/31
f 24/24 29/29 32/32
f 24/24 32/32 33/33
f 31/31 24/24 33/33
f 34/34 35/35 36/36
f 35/35 37/37 36/36
f 34/34 38/38 35/35
f 39/39 38/38 34/34
f 39/39 40/40 38/38
f 41/41 40/40 39/39
f 41/41 42/42 40/40
f 43/43 42/42 41/41
f 36/36 37/37 44/44
f 36/36 44/44 45/45
f 44/44 46/46 45/45
f 45/45 46/46 47/47
f 46/46 48/48 47/47
f 47/47 48/48 49/49
f 48/48 50/50 49/49
f 49/49 50/50 51/51
f 39/39 52/52 41/41
f 53/53 52/52 39/39
f 34/34 53/53 39/39
f 54/54 53/53 34/34
f 36/36 54/54 34/34
f 36/36 55/55 54/54
f 45/45 56/56 36/36
f 56/56 55/55 36/36
f 47/47 57/57 45/45
f 45/45 57/57 56/56
f 49/49 58/58 47/47
f 47/47 58/58 57/57
f 51/51 59/59 49/49
f 49/49 59/59 58/58
f 52/52 60/60 41/41
f 41/41 60/60 43/43
f 61/61 62/62 63/63
f 63/63 62/62 64/64
f 65/65 62/62 61/61
f 66/66 62/62 65/65
f 63/63 67/67 61/61
f 61/61 67/67 65/65
f 68/68 67/67 63/63
f 65/65 67/67 69/69
f 70/70 71/71 72/72
f 71/71 73/73 72/72
f 74/74 71/71 70/70
f 74/74 75/75 71/71
f 76/76 77/77 78/78
f 76/76 79/79 77/77
f 78/78 77/77 80/80
f 77/77 81/81 80/80
f 82/82 83/83 84/84
f 85/85 83/83 82/82
f 82/82 84/84 86/86
f 87/87 82/82 86/86
f 87/87 86/86 88/88
f 89/89 87/87 88/88
f 90/90 87/87 89/89
f 90/90 89/89 91/91
f 91/91 89/89 92/92
f 92/92 93/93 91/91
f 94/94 93/93 92/92
f 95/95 83/83 85/85
f 96/96 83/83 95/95
f 97/97 96/96 95/95
f 98/98 93/93 94/94
f 99/99 93/93 98/98
f 97/97 95/95 100/100
f 101/101 97/97 100/100
f 101/101 100/100 102/102
f 98/98 102/102 99/99
f 99/99 102/102 103/103
f 102/102 100/100 103/103
f 104/104 105/105 106/106
f 106/106 105/105 107/107
f 107/107 105/105 108/108
f 105/105 109/109 108/108
f 105/105 110/110 109/109
f 111/111 105/105 104/104
f 112/112 105/105 111/111
f 113/113 110/110 105/105
f 114/114 113/113 105/105
f 114/114 105/105 112/112
f 115/115 116/116 117/117
f 118/118 115/115 117/117
f 118/118 117/117 119/119
f 120/120 116/116 115/115
f 120/120 115/115 118/118
f 121/121 120/120 118/118
f 122/122 123/123 124/124
f 122/122 124/124 125/125
f 126/126 122/122 125/125
f 124/124 123/123 127/127
f 125/125 124/124 127/127
f 125/125 127/127 128/128
f 129/129 130/130 131/131
f 132/132 129/129 131/131
f 129/129 133/133 130/130
f 134/134 133/133 129/129
f 135/135 133/133 134/134
f 136/136 133/133 135/135
f 137/137 136/136 135/135
f 137/137 135/135 138/138
usemtl m1
f 139/139 140/140 141/141
f 142/142 139/139 141/141
f 143/143 140/140 139/139
f 143/143 139/139 144/144
f 142/142 141/141 145/145
f 146/146 142/142 145/145
f 143/143 144/144 147/147
f 147/147 144/144 148/148
f 149/149 148/148 144/144
f 150/150 148/148 149/149
f 146/146 151/151 142/142
f 146/146 152/152 151/151
f 150/150 149/149 153/153
f 153/153 149/149 154/154
f 154/154 149/149 155/155
f 154/154 155/155 156/156
f 139/139 156/156 155/155
f 139/139 157/157 156/156
f 158/158 157/157 139/139
f 159/159 158/158 139/139
f 158/158 159/159 160/160
f 151/151 160/160 159/159
f 160/160 151/151 161/161
f 161/161 151/151 152/152
f 162/162 163/163 164/164
f 162/162 164/164 165/165
f 163/163 166/166 164/164
f 167/167 166/166 163/163
f 165/165 168/168 162/162
f 168/168 169/169 162/162
f 168/168 170/170 169/169
f 169/169 170/170 171/171
f 166/166 167/167 172/172
f 172/172 167/167 173/173
f 173/173 174/174 172/172
f 175/175 171/171 170/170
f 176/176 171/171 175/175
f 175/175 177/177 176/176
f 174/174 173/173 178/178
f 179/179 176/176 177/177
f 180/180 181/181 182/182
f 182/182 181/181 183/183
f 183/183 181/181 184/184
f 183/183 184/184 185/185
f 180/180 182/182 186/186
f 187/187 180/180 186/186
f 187/187 188/188 180/180
f 189/189 188/188 187/187
f 190/190 188/188 189/189
f 191/191 190/190 189/189
f 190/190 191/191 192/192
f 193/193 185/185 184/184
f 194/194 185/185 193/193
f 192/192 191/191 195/195
f 196/196 197/197 198/198
f 198/198 197/197 199/199
f 199/199 200/200 198/198
f 198/198 200/200 201/201
f 199/199 197/197 202/202
f 202/202 200/200 199/199
f 203/203 200/200 202/202
f 202/202 197/197 204/204
f 201/201 205/205 198/198
f 206/206 196/196 198/198
f 198/198 205/205 206/206
f 207/207 196/196 206/206
f 202/202 204/204 208/208
f 208/208 209/209 202/202
f 202/202 209/209 203/203
f 208/208 204/204 210/210
f 209/209 208/208 211/211
f 211/211 208/208 210/210
f 210/210 212/212 211/211
f 207/207 206/206 213/213
f 213/213 206/206 205/205
f 213/213 214/214 207/207
f 211/211 212/212 215/215
f 211/211 215/215 209/209
f 215/215 212/212 216/216
f 212/212 217/217 216/216
f 218/218 214/214 213/213
f 218/218 213/213 205/205
f 219/219 214/214 218/218
f 219/219 220/220 214/214
f 221/221 222/222 223/223
f 224/224 221/221 223/223
f 225/225 221/221 224/224
f 226/226 225/225 224/224
f 226/226 224/224 227/227
f 227/227 228/228 226/226
f 228/228 229/229 226/226
f 228/228 230/230 229/229
f 231/231 230/230 228/228
f 231/231 232/232 230/230
f 223/223 222/222 233/233
f 233/233 222/222 234/234
f 235/235 232/232 231/231
f 236/236 232/232 235/235
f 237/237 234/234 222/222
f 232/232 236/236 238/238
f 237/237 239/239 234/234
f 240/240 238/238 236/236
