mtllib options1321.mtl
o options1321
v 0.15931 -0.14211 2.86504 0.875 0.000 0.000
v 0.12192 -0.12695 2.97047 0.839 0.000 0.000
v 0.13818 -0.14785 3.02130 0.875 0.000 0.000
v 0.12710 -0.12591 2.93463 0.875 0.000 0.000
v 0.16289 -0.11731 3.00562 0.875 0.000 0.000
v 0.15709 -0.10417 2.95774 0.839 0.000 0.000
v 0.17458 -0.10796 2.98422 0.875 0.000 0.000
v 0.18043 -0.10498 2.95504 0.875 0.000 0.000
v 0.16430 -0.10802 2.91488 0.875 0.000 0.000
v 0.14606 -0.11219 2.92900 0.875 0.000 0.000
v 0.22683 -0.08244 2.97562 0.875 0.000 0.000
v 0.20305 -0.09221 2.97106 0.875 0.000 0.000
v 0.19159 -0.08482 2.94206 0.839 0.000 0.000
v 0.18230 -0.09189 2.91254 0.875 0.000 0.000
v 0.20163 -0.08498 2.89996 0.875 0.000 0.000
v 0.22693 -0.06917 2.92172 0.839 0.000 0.000
v 0.26625 -0.07839 2.96087 0.875 0.000 0.000
v 0.27719 -0.08708 2.92095 0.875 0.000 0.000
v 0.24279 -0.08930 2.88671 0.839 0.000 0.000
v 0.26981 -0.09837 2.89859 0.875 0.000 0.000
v 0.21195 -0.11142 2.86411 0.875 0.000 0.000
v 0.21186 -0.09461 2.88045 0.875 0.000 0.000
v 0.25116 -0.11090 2.87883 0.875 0.000 0.000
v 0.30124 -0.12866 2.85676 0.875 0.000 0.000
v 0.28188 -0.11633 2.86920 0.875 0.000 0.000
v 0.25750 -0.11063 2.85142 0.839 0.000 0.000
v 0.22876 -0.11624 2.84269 0.875 0.000 0.000
v 0.23142 -0.13205 2.82476 0.875 0.000 0.000
v 0.26496 -0.13730 2.81792 0.839 0.000 0.000
v 0.31191 -0.16261 2.83390 0.875 0.000 0.000
v 0.28364 -0.18866 2.81628 0.875 0.000 0.000
v 0.23912 -0.17204 2.81034 0.839 0.000 0.000
v 0.25854 -0.19586 2.81554 0.875 0.000 0.000
v 0.19822 -0.16790 2.82316 0.875 0.000 0.000
v 0.21843 -0.15145 2.81893 0.875 0.000 0.000
v 0.22960 -0.19332 2.82060 0.875 0.000 0.000
v 0.11589 -0.17447 2.99716 0.875 0.000 0.000
v 0.10883 -0.16286 2.94905 0.839 0.000 0.000
v 0.11228 -0.18373 2.97302 0.875 0.000 0.000
v 0.11477 -0.18484 2.94323 0.875 0.000 0.000
v 0.12017 -0.16169 2.90695 0.875 0.000 0.000
v 0.11848 -0.14575 2.92405 0.875 0.000 0.000
v 0.09944 -0.23738 2.95270 0.875 0.000 0.000
v 0.10472 -0.21182 2.95339 0.875 0.000 0.000
v 0.09938 -0.19697 2.92547 0.839 0.000 0.000
v 0.10855 -0.18158 2.89928 0.875 0.000 0.000
v 0.10759 -0.19935 2.88306 0.875 0.000 0.000
v 0.09433 -0.23045 2.89787 0.839 0.000 0.000
v 0.10566 -0.27371 2.93198 0.875 0.000 0.000
v 0.12202 -0.27581 2.89305 0.875 0.000 0.000
v 0.12207 -0.23612 2.86499 0.839 0.000 0.000
v 0.13467 -0.26275 2.87429 0.875 0.000 0.000
v 0.14044 -0.19840 2.85124 0.875 0.000 0.000
v 0.12181 -0.20414 2.86425 0.875 0.000 0.000
v 0.14583 -0.23902 2.85988 0.875 0.000 0.000
v 0.17640 -0.28051 2.83430 0.875 0.000 0.000
v 0.15873 -0.26613 2.84704 0.875 0.000 0.000
v 0.15078 -0.24043 2.83223 0.839 0.000 0.000
v 0.15161 -0.21008 2.82881 0.875 0.000 0.000
v 0.17003 -0.20671 2.81371 0.875 0.000 0.000
v 0.18294 -0.23708 2.80316 0.839 0.000 0.000
v 0.21472 -0.28082 2.81642 0.875 0.000 0.000
v 0.23672 -0.24574 2.80784 0.875 0.000 0.000
v 0.21240 -0.20455 2.80553 0.839 0.000 0.000
v 0.23867 -0.22003 2.81196 0.875 0.000 0.000
v 0.18700 -0.18967 2.81327 0.875 0.000 0.000
v 0.12665 -0.13540 3.00119 0.875 0.000 0.000
v 0.25016 -0.06797 2.94334 0.875 0.000 0.000
v 0.29450 -0.14872 2.82107 0.875 0.000 0.000
v 0.09480 -0.25693 2.91539 0.875 0.000 0.000
v 0.19955 -0.26420 2.80399 0.875 0.000 0.000
v 0.14866 -0.13288 2.86171 0.569 0.000 0.000
v 0.23622 -0.18970 2.75929 0.545 0.000 0.000
v 0.28110 -0.22954 2.77918 0.569 0.000 0.000
v 0.21019 -0.16961 2.76818 0.569 0.000 0.000
v 0.29089 -0.18198 2.79110 0.569 0.000 0.000
v 0.25343 -0.14337 2.78732 0.545 0.000 0.000
v 0.28004 -0.15637 2.80447 0.569 0.000 0.000
v 0.25599 -0.13455 2.81849 0.569 0.000 0.000
v 0.21817 -0.11437 2.80690 0.569 0.000 0.000
v 0.22067 -0.13801 2.78154 0.569 0.000 0.000
v 0.31034 -0.10762 2.84364 0.569 0.000 0.000
v 0.28897 -0.12316 2.82769 0.569 0.000 0.000
v 0.26568 -0.09909 2.81794 0.545 0.000 0.000
v 0.23539 -0.08487 2.81828 0.569 0.000 0.000
v 0.23912 -0.06079 2.84461 0.569 0.000 0.000
v 0.27201 -0.05546 2.85349 0.545 0.000 0.000
v 0.31954 -0.08075 2.88477 0.569 0.000 0.000
v 0.28363 -0.06219 2.91420 0.569 0.000 0.000
v 0.23627 -0.04831 2.89634 0.545 0.000 0.000
v 0.25357 -0.06295 2.92120 0.569 0.000 0.000
v 0.18810 -0.05996 2.88949 0.569 0.000 0.000
v 0.21573 -0.05144 2.87017 0.569 0.000 0.000
v 0.21927 -0.07052 2.91703 0.569 0.000 0.000
v 0.21936 -0.05663 2.98361 0.569 0.000 0.000
v 0.22514 -0.05897 2.95339 0.569 0.000 0.000
v 0.19901 -0.04273 2.93888 0.545 0.000 0.000
v 0.17156 -0.04264 2.92271 0.569 0.000 0.000
v 0.14657 -0.04986 2.94741 0.569 0.000 0.000
v 0.15706 -0.04685 2.97634 0.545 0.000 0.000
v 0.19061 -0.07234 3.02139 0.569 0.000 0.000
v 0.14805 -0.09774 3.01491 0.569 0.000 0.000
v 0.11908 -0.08928 2.97351 0.545 0.000 0.000
v 0.13062 -0.11347 2.99486 0.569 0.000 0.000
v 0.10759 -0.10816 2.92307 0.569 0.000 0.000
v 0.11911 -0.07288 2.94574 0.569 0.000 0.000
v 0.12024 -0.12454 2.96345 0.569 0.000 0.000
v 0.23533 -0.24957 2.78111 0.569 0.000 0.000
v 0.19084 -0.21949 2.77607 0.545 0.000 0.000
v 0.20640 -0.24595 2.79122 0.569 0.000 0.000
v 0.17836 -0.22898 2.80453 0.569 0.000 0.000
v 0.15276 -0.19393 2.79513 0.569 0.000 0.000
v 0.17979 -0.18772 2.77420 0.569 0.000 0.000
v 0.15974 -0.29079 2.81655 0.569 0.000 0.000
v 0.17273 -0.26455 2.80678 0.569 0.000 0.000
v 0.14607 -0.24458 2.79641 0.545 0.000 0.000
v 0.12607 -0.21782 2.79860 0.569 0.000 0.000
v 0.09974 -0.23031 2.81954 0.569 0.000 0.000
v 0.10000 -0.26467 2.82254 0.545 0.000 0.000
v 0.12970 -0.31165 2.85062 0.569 0.000 0.000
v 0.10019 -0.28530 2.88121 0.569 0.000 0.000
v 0.07967 -0.23879 2.86817 0.545 0.000 0.000
v 0.09381 -0.25727 2.89246 0.569 0.000 0.000
v 0.08212 -0.18887 2.87041 0.569 0.000 0.000
v 0.08227 -0.21379 2.84618 0.569 0.000 0.000
v 0.09475 -0.22198 2.89462 0.569 0.000 0.000
v 0.07178 -0.23614 2.95708 0.569 0.000 0.000
v 0.07955 -0.23605 2.92720 0.569 0.000 0.000
v 0.06057 -0.21110 2.91398 0.545 0.000 0.000
v 0.05721 -0.18173 2.90214 0.569 0.000 0.000
v 0.05557 -0.16054 2.93105 0.569 0.000 0.000
v 0.05066 -0.17627 2.95720 0.545 0.000 0.000
v 0.07573 -0.21208 3.00073 0.569 0.000 0.000
v 0.09259 -0.16520 3.00494 0.569 0.000 0.000
v 0.08441 -0.13144 2.96728 0.545 0.000 0.000
v 0.10713 -0.14204 2.99063 0.569 0.000 0.000
v 0.07252 -0.12955 2.93735 0.569 0.000 0.000
v 0.25963 -0.21019 2.76772 0.569 0.000 0.000
v 0.29728 -0.06653 2.86915 0.569 0.000 0.000
v 0.17346 -0.05792 3.00087 0.569 0.000 0.000
v 0.11363 -0.28991 2.83612 0.569 0.000 0.000
v 0.06121 -0.19445 2.98067 0.569 0.000 0.000
v -0.00833 -0.21355 2.96788 0.349 0.000 0.000
v 0.13370 -0.11876 2.84755 0.337 0.000 0.000
v 0.01675 -0.22138 2.91361 0.349 0.000 0.000
v 0.02818 -0.21035 2.88940 0.349 0.000 0.000
v -0.00555 -0.18394 3.00209 0.349 0.000 0.000
v 0.03251 -0.29230 2.85100 0.349 0.000 0.000
v 0.02029 -0.24741 2.88491 0.349 0.000 0.000
v 0.06547 -0.31306 2.80647 0.349 0.000 0.000
v 0.09941 -0.29851 2.77834 0.349 0.000 0.000
v 0.13056 -0.26379 2.75918 0.349 0.000 0.000
v 0.14887 -0.22178 2.75807 0.349 0.000 0.000
v 0.21678 -0.24671 2.71148 0.349 0.000 0.000
v 0.17417 -0.24473 2.73418 0.349 0.000 0.000
v 0.27055 -0.20948 2.70227 0.349 0.000 0.000
v 0.01240 -0.14022 3.01813 0.349 0.000 0.000
v 0.04889 -0.09884 3.00011 0.349 0.000 0.000
v 0.06386 -0.08055 2.97938 0.349 0.000 0.000
v 0.17962 0.01505 3.00168 0.349 0.000 0.000
v 0.20009 0.00160 2.94658 0.349 0.000 0.000
v 0.19519 -0.00722 2.91944 0.349 0.000 0.000
v 0.14661 0.00113 3.02947 0.349 0.000 0.000
v 0.28094 0.00986 2.89570 0.349 0.000 0.000
v 0.23012 0.00781 2.92266 0.349 0.000 0.000
v 0.31414 -0.01058 2.85120 0.349 0.000 0.000
v 0.31101 -0.04115 2.81639 0.349 0.000 0.000
v 0.28647 -0.07416 2.78723 0.349 0.000 0.000
v 0.24967 -0.09918 2.77619 0.349 0.000 0.000
v 0.29432 -0.15241 2.72542 0.349 0.000 0.000
v 0.28046 -0.11543 2.75330 0.349 0.000 0.000
v 0.10563 -0.02684 3.03489 0.349 0.000 0.000
v 0.07556 -0.06640 3.00490 0.349 0.000 0.000
v 0.24675 -0.23098 2.70101 0.349 0.000 0.000
v 0.28668 -0.18239 2.70819 0.349 0.000 0.000
v 0.09037 -0.29965 2.39668 0.000 0.000 0.886
v 0.09380 -0.28028 2.39312 0.000 0.000 0.886
v 0.08266 -0.28834 2.39440 0.000 0.000 0.835
v 0.08861 -0.27949 2.49494 0.000 0.000 0.867
v 0.09184 -0.26136 2.49127 0.000 0.000 0.867
v 0.08089 -0.26827 2.49248 0.000 0.000 0.816
v 0.13113 -0.16744 2.80656 0.000 0.000 0.941
v 0.10406 -0.21578 2.71589 0.000 0.000 0.890
v 0.10736 -0.19800 2.71048 0.000 0.000 0.890
v 0.09625 -0.20572 2.71219 0.000 0.000 0.839
v 0.09155 -0.25241 2.60455 0.000 0.000 0.894
v 0.09472 -0.23436 2.60078 0.000 0.000 0.894
v 0.08382 -0.24170 2.60096 0.000 0.000 0.843
v 0.10153 -0.29149 2.39540 0.000 0.000 0.835
v 0.09976 -0.27142 2.49349 0.000 0.000 0.816
v 0.11509 -0.20860 2.71413 0.000 0.000 0.839
v 0.10267 -0.24460 2.60289 0.000 0.000 0.843
v 0.09532 -0.30071 2.30022 0.000 0.000 0.000
v 0.09383 -0.30985 2.29948 0.000 0.000 0.000
v 0.09210 -0.31882 2.30389 0.000 0.000 0.000
v 0.09399 -0.28600 2.37155 0.000 0.000 0.000
v 0.09380 -0.28028 2.39312 0.000 0.000 0.000
v 0.08304 -0.29291 2.37278 0.000 0.000 0.000
v 0.08266 -0.28834 2.39440 0.000 0.000 0.000
v 0.09076 -0.30413 2.37523 0.000 0.000 0.000
v 0.09037 -0.29965 2.39668 0.000 0.000 0.000
v 0.10192 -0.29606 2.37379 0.000 0.000 0.000
v 0.10153 -0.29149 2.39540 0.000 0.000 0.000
v 0.09475 -0.27833 2.38138 0.000 0.000 0.000
v 0.07803 -0.28967 2.38325 0.000 0.000 0.000
v 0.08971 -0.30670 2.38684 0.000 0.000 0.000
v 0.10660 -0.29444 2.38477 0.000 0.000 0.000
v 0.09513 -0.29498 2.32180 0.000 0.000 0.000
v 0.08399 -0.30305 2.32306 0.000 0.000 0.000
v 0.09608 -0.29304 2.31005 0.000 0.000 0.000
v 0.07937 -0.30436 2.31192 0.000 0.000 0.000
v 0.08437 -0.30762 2.30144 0.000 0.000 0.000
v 0.09105 -0.32141 2.31550 0.000 0.000 0.000
v 0.09171 -0.31435 2.32535 0.000 0.000 0.000
v 0.10287 -0.30620 2.32407 0.000 0.000 0.000
v 0.10793 -0.30915 2.31343 0.000 0.000 0.000
v 0.10325 -0.31077 2.30245 0.000 0.000 0.000
v 0.11542 -0.31802 2.67133 0.000 0.000 0.867
v 0.13183 -0.30708 2.63716 0.000 0.000 0.886
v 0.10756 -0.33815 2.67052 0.000 0.000 0.867
v 0.13250 -0.32094 2.61927 0.000 0.000 0.886
v 0.10109 -0.32486 2.66553 0.000 0.000 0.816
v 0.12160 -0.30976 2.62447 0.000 0.000 0.835
v 0.14700 -0.27068 2.63587 0.000 0.000 0.867
v 0.15561 -0.26615 2.61655 0.000 0.000 0.867
v 0.14070 -0.26552 2.62105 0.000 0.000 0.816
v 0.11470 -0.23476 2.76939 0.000 0.000 0.890
v 0.10570 -0.24107 2.78777 0.000 0.000 0.890
v 0.09973 -0.23366 2.77457 0.000 0.000 0.839
v 0.10931 -0.28780 2.72356 0.000 0.000 0.894
v 0.09971 -0.29741 2.73987 0.000 0.000 0.894
v 0.09365 -0.28913 2.72795 0.000 0.000 0.843
v 0.14011 -0.19669 2.74084 0.000 0.000 0.890
v 0.14846 -0.17699 2.73974 0.000 0.000 0.890
v 0.13364 -0.18284 2.73649 0.000 0.000 0.839
v 0.14955 -0.22750 2.67838 0.000 0.000 0.894
v 0.15872 -0.20898 2.67359 0.000 0.000 0.894
v 0.14390 -0.21382 2.67151 0.000 0.000 0.843
v 0.12222 -0.33341 2.67295 0.000 0.000 0.816
v 0.14273 -0.31831 2.63189 0.000 0.000 0.835
v 0.16182 -0.27407 2.62847 0.000 0.000 0.816
v 0.12085 -0.24221 2.78199 0.000 0.000 0.839
v 0.11478 -0.29768 2.73535 0.000 0.000 0.843
v 0.15477 -0.19139 2.74390 0.000 0.000 0.839
v 0.16503 -0.22237 2.67890 0.000 0.000 0.843
v 0.21304 -0.25225 2.62058 0.000 0.000 0.867
v 0.24245 -0.23368 2.60197 0.000 0.000 0.886
v 0.20607 -0.26951 2.60960 0.000 0.000 0.867
v 0.25048 -0.24097 2.58208 0.000 0.000 0.886
v 0.20244 -0.25448 2.60761 0.000 0.000 0.816
v 0.23851 -0.23047 2.58624 0.000 0.000 0.835
v 0.25711 -0.20173 2.61986 0.000 0.000 0.867
v 0.27311 -0.19264 2.60851 0.000 0.000 0.867
v 0.25770 -0.19112 2.60671 0.000 0.000 0.816
v 0.14070 -0.16396 2.80199 0.000 0.000 0.941
v 0.17179 -0.20597 2.73328 0.000 0.000 0.890
v 0.15581 -0.21632 2.74307 0.000 0.000 0.890
v 0.15604 -0.20423 2.73222 0.000 0.000 0.839
v 0.18574 -0.23987 2.67331 0.000 0.000 0.894
v 0.17006 -0.25256 2.67993 0.000 0.000 0.894
v 0.16968 -0.24003 2.67043 0.000 0.000 0.843
v 0.20724 -0.16531 2.73271 0.000 0.000 0.890
v 0.21547 -0.14791 2.74210 0.000 0.000 0.890
v 0.20335 -0.14996 2.73145 0.000 0.000 0.839
v 0.24188 -0.17550 2.67239 0.000 0.000 0.894
v 0.25240 -0.15813 2.67856 0.000 0.000 0.894
v 0.23980 -0.15962 2.66927 0.000 0.000 0.843
v 0.21838 -0.26822 2.61909 0.000 0.000 0.816
v 0.25445 -0.24421 2.59772 0.000 0.000 0.835
v 0.27363 -0.20486 2.61817 0.000 0.000 0.816
v 0.17197 -0.21796 2.74370 0.000 0.000 0.839
v 0.18562 -0.25376 2.68189 0.000 0.000 0.843
v 0.21929 -0.16369 2.74293 0.000 0.000 0.839
v 0.25574 -0.17336 2.68074 0.000 0.000 0.843
v 0.15219 -0.22667 2.46409 0.000 0.000 0.886
v 0.15575 -0.20707 2.46258 0.000 0.000 0.886
v 0.14456 -0.21517 2.46263 0.000 0.000 0.835
v 0.14695 -0.21676 2.55897 0.000 0.000 0.867
v 0.15031 -0.19836 2.55721 0.000 0.000 0.867
v 0.13933 -0.20533 2.55735 0.000 0.000 0.816
v 0.13329 -0.18664 2.75141 0.000 0.000 0.890
v 0.13670 -0.16814 2.75000 0.000 0.000 0.890
v 0.12558 -0.17599 2.74963 0.000 0.000 0.839
v 0.14179 -0.20462 2.65228 0.000 0.000 0.894
v 0.14503 -0.18619 2.65237 0.000 0.000 0.894
v 0.13416 -0.19337 2.65066 0.000 0.000 0.843
v 0.16339 -0.21848 2.46402 0.000 0.000 0.835
v 0.15815 -0.20864 2.55874 0.000 0.000 0.816
v 0.14435 -0.17930 2.75162 0.000 0.000 0.839
v 0.15293 -0.19669 2.65266 0.000 0.000 0.843
v 0.16072 -0.21825 2.36824 0.000 0.000 0.000
v 0.15926 -0.22729 2.36655 0.000 0.000 0.000
v 0.15736 -0.23665 2.36999 0.000 0.000 0.000
v 0.15674 -0.21064 2.44058 0.000 0.000 0.000
v 0.15575 -0.20707 2.46258 0.000 0.000 0.000
v 0.14575 -0.21760 2.44071 0.000 0.000 0.000
v 0.14457 -0.21517 2.46263 0.000 0.000 0.000
v 0.15338 -0.22903 2.44233 0.000 0.000 0.000
v 0.15219 -0.22667 2.46409 0.000 0.000 0.000
v 0.16458 -0.22091 2.44210 0.000 0.000 0.000
v 0.16339 -0.21848 2.46402 0.000 0.000 0.000
v 0.15713 -0.20399 2.45113 0.000 0.000 0.000
v 0.14036 -0.21539 2.45126 0.000 0.000 0.000
v 0.15190 -0.23272 2.45358 0.000 0.000 0.000
v 0.16885 -0.22039 2.45336 0.000 0.000 0.000
v 0.15973 -0.21469 2.39026 0.000 0.000 0.000
v 0.14855 -0.22279 2.39031 0.000 0.000 0.000
v 0.16112 -0.21161 2.37879 0.000 0.000 0.000
v 0.14435 -0.22300 2.37892 0.000 0.000 0.000
v 0.14974 -0.22522 2.36837 0.000 0.000 0.000
v 0.15589 -0.24034 2.38124 0.000 0.000 0.000
v 0.15618 -0.23429 2.39175 0.000 0.000 0.000
v 0.16738 -0.22610 2.39170 0.000 0.000 0.000
v 0.17283 -0.22801 2.38102 0.000 0.000 0.000
v 0.16856 -0.22853 2.36975 0.000 0.000 0.000
v 0.09537 -0.27898 2.36768 0.000 0.886 0.000
v 0.07586 -0.29227 2.37006 0.000 0.835 0.000
v 0.06533 -0.29524 2.34666 0.000 0.824 0.000
v 0.09599 -0.28971 2.32225 0.000 0.867 0.000
v 0.07569 -0.30168 2.32436 0.000 0.816 0.000
v 0.09045 -0.32081 2.32857 0.000 0.867 0.000
v 0.08981 -0.31023 2.37402 0.000 0.886 0.000
v 0.10916 -0.29785 2.37184 0.000 0.835 0.000
v 0.12051 -0.30447 2.34959 0.000 0.824 0.000
v 0.11098 -0.30758 2.32623 0.000 0.816 0.000
v 0.09732 -0.27200 2.35305 0.000 0.878 0.000
v 0.09756 -0.27695 2.33289 0.000 0.871 0.000
v 0.08849 -0.32787 2.34322 0.000 0.871 0.000
v 0.08822 -0.32306 2.36340 0.000 0.878 0.000
v 0.07804 -0.27898 2.34355 0.000 0.851 0.000
v 0.07166 -0.31477 2.35080 0.000 0.851 0.000
v 0.11416 -0.28501 2.34545 0.000 0.851 0.000
v 0.10779 -0.32081 2.35273 0.000 0.851 0.000
v 0.09235 -0.29349 2.37892 0.000 0.851 0.000
v 0.09343 -0.30544 2.32092 0.000 0.851 0.000
v 0.15826 -0.20327 2.43747 0.000 0.886 0.000
v 0.13868 -0.21667 2.43781 0.000 0.835 0.000
v 0.12903 -0.21728 2.41384 0.000 0.824 0.000
v 0.16057 -0.20948 2.39126 0.000 0.867 0.000
v 0.14020 -0.22154 2.39141 0.000 0.816 0.000
v 0.15480 -0.24104 2.39427 0.000 0.867 0.000
v 0.15247 -0.23497 2.44049 0.000 0.886 0.000
v 0.17189 -0.22250 2.44024 0.000 0.835 0.000
v 0.18406 -0.22694 2.41789 0.000 0.824 0.000
v 0.17540 -0.22772 2.39400 0.000 0.816 0.000
v 0.16075 -0.19489 2.42368 0.000 0.878 0.000
v 0.16175 -0.19784 2.40316 0.000 0.871 0.000
v 0.15230 -0.24950 2.40808 0.000 0.871 0.000
v 0.15128 -0.24669 2.42861 0.000 0.878 0.000
v 0.14184 -0.20083 2.41281 0.000 0.851 0.000
v 0.13520 -0.23715 2.41627 0.000 0.851 0.000
v 0.17787 -0.20716 2.41547 0.000 0.851 0.000
v 0.17123 -0.24349 2.41893 0.000 0.851 0.000
v 0.15482 -0.21881 2.44710 0.000 0.851 0.000
v 0.15806 -0.22500 2.38829 0.000 0.851 0.000
v 0.08225 -0.28827 2.39438 0.000 0.000 0.000
v 0.09434 -0.27828 2.38135 0.000 0.000 0.000
v 0.07762 -0.28960 2.38324 0.000 0.000 0.000
v 0.08930 -0.30663 2.38682 0.000 0.000 0.000
v 0.08358 -0.30298 2.32304 0.000 0.000 0.000
v 0.09567 -0.29297 2.31001 0.000 0.000 0.000
v 0.07896 -0.30431 2.31190 0.000 0.000 0.000
v 0.09064 -0.32134 2.31548 0.000 0.000 0.000
v 0.10194 -0.29156 2.39542 0.000 0.000 0.000
v 0.09516 -0.27841 2.38140 0.000 0.000 0.000
v 0.10701 -0.29452 2.38480 0.000 0.000 0.000
v 0.09013 -0.30677 2.38687 0.000 0.000 0.000
v 0.10328 -0.30627 2.32409 0.000 0.000 0.000
v 0.09649 -0.29311 2.31007 0.000 0.000 0.000
v 0.10834 -0.30922 2.31347 0.000 0.000 0.000
v 0.09146 -0.32146 2.31554 0.000 0.000 0.000
v 0.07526 -0.29218 2.37002 0.000 0.000 0.000
v 0.09477 -0.27887 2.36765 0.000 0.000 0.000
v 0.07743 -0.27887 2.34351 0.000 0.000 0.000
v 0.06473 -0.29515 2.34662 0.000 0.000 0.000
v 0.08920 -0.31012 2.37398 0.000 0.000 0.000
v 0.07106 -0.31468 2.35076 0.000 0.000 0.000
v 0.10976 -0.29794 2.37186 0.000 0.000 0.000
v 0.09597 -0.27909 2.36772 0.000 0.000 0.000
v 0.11476 -0.28512 2.34549 0.000 0.000 0.000
v 0.12111 -0.30456 2.34961 0.000 0.000 0.000
v 0.09041 -0.31032 2.37406 0.000 0.000 0.000
v 0.10839 -0.32090 2.35274 0.000 0.000 0.000
v 0.11363 -0.29410 2.33456 0.000 0.000 0.000
v 0.11839 -0.29041 2.35381 0.000 0.000 0.000
v 0.11350 -0.28310 2.34331 0.000 0.000 0.000
v 0.11866 -0.30148 2.34549 0.000 0.000 0.000
v 0.14416 -0.21510 2.46262 0.000 0.000 0.000
v 0.15672 -0.20392 2.45110 0.000 0.000 0.000
v 0.13995 -0.21532 2.45122 0.000 0.000 0.000
v 0.15149 -0.23265 2.45354 0.000 0.000 0.000
v 0.14814 -0.22271 2.39027 0.000 0.000 0.000
v 0.16071 -0.21154 2.37875 0.000 0.000 0.000
v 0.14394 -0.22293 2.37890 0.000 0.000 0.000
v 0.15548 -0.24026 2.38122 0.000 0.000 0.000
v 0.16380 -0.21856 2.46406 0.000 0.000 0.000
v 0.15754 -0.20407 2.45115 0.000 0.000 0.000
v 0.16926 -0.22046 2.45338 0.000 0.000 0.000
v 0.15231 -0.23279 2.45362 0.000 0.000 0.000
v 0.16779 -0.22617 2.39171 0.000 0.000 0.000
v 0.16153 -0.21168 2.37883 0.000 0.000 0.000
v 0.17324 -0.22808 2.38106 0.000 0.000 0.000
v 0.15629 -0.24041 2.38127 0.000 0.000 0.000
v 0.13808 -0.21656 2.43776 0.000 0.000 0.000
v 0.15766 -0.20317 2.43743 0.000 0.000 0.000
v 0.14124 -0.20074 2.41277 0.000 0.000 0.000
v 0.12843 -0.21717 2.41380 0.000 0.000 0.000
v 0.15187 -0.23486 2.44044 0.000 0.000 0.000
v 0.13460 -0.23704 2.41623 0.000 0.000 0.000
v 0.17249 -0.22261 2.44030 0.000 0.000 0.000
v 0.15886 -0.20338 2.43752 0.000 0.000 0.000
v 0.17847 -0.20727 2.41551 0.000 0.000 0.000
v 0.18466 -0.22705 2.41794 0.000 0.000 0.000
v 0.15307 -0.23508 2.44053 0.000 0.000 0.000
v 0.17183 -0.24358 2.41897 0.000 0.000 0.000
v 0.17774 -0.21514 2.40372 0.000 0.000 0.000
v 0.18178 -0.21337 2.42339 0.000 0.000 0.000
v 0.17729 -0.20504 2.41349 0.000 0.000 0.000
v 0.18236 -0.22358 2.41405 0.000 0.000 0.000
v 0.26503 -0.20326 2.95384 0.000 1.000 0.000
v 0.26503 -0.18608 2.97135 0.000 1.000 0.000
v 0.26503 -0.18608 2.95384 0.000 1.000 0.000
v 0.26503 -0.20326 2.97135 0.000 1.000 0.000
v 0.26503 -0.19467 2.96275 0.000 1.000 0.000
v 0.26503 -0.14117 2.96275 0.000 1.000 0.000
v 0.26503 -0.19467 2.88680 0.000 1.000 0.000
v 0.26503 -0.19467 3.03838 0.000 1.000 0.000
v 0.26503 -0.24817 2.96275 0.000 1.000 0.000
v 0.25646 -0.19467 2.95384 0.000 1.000 0.000
v 0.27394 -0.19467 2.95384 0.000 1.000 0.000
v 0.31853 -0.19467 2.96275 0.000 1.000 0.000
v 0.27394 -0.19467 2.97135 0.000 1.000 0.000
v 0.25646 -0.19467 2.97135 0.000 1.000 0.000
v 0.21156 -0.19467 2.96275 0.000 1.000 0.000
v 0.06696 -0.33986 2.58635 1.000 0.000 0.000
v 0.06696 -0.32789 2.58635 1.000 0.000 0.000
v 0.06696 -0.29655 2.59256 1.000 0.000 0.000
v 0.06696 -0.32789 2.59857 1.000 0.000 0.000
v 0.06696 -0.33986 2.59857 1.000 0.000 0.000
v 0.06696 -0.37120 2.59256 1.000 0.000 0.000
v 0.06098 -0.33386 2.58635 1.000 0.000 0.000
v 0.07317 -0.33386 2.58635 1.000 0.000 0.000
v 0.10429 -0.33386 2.59256 1.000 0.000 0.000
v 0.07317 -0.33386 2.59857 1.000 0.000 0.000
v 0.06098 -0.33386 2.59857 1.000 0.000 0.000
v 0.02965 -0.33386 2.59256 1.000 0.000 0.000
v 0.06696 -0.33386 2.59256 1.000 0.000 0.000
v 0.06696 -0.33386 2.53960 1.000 0.000 0.000
v 0.06696 -0.33386 2.64532 1.000 0.000 0.000
v 0.05596 -0.28647 2.99817 1.000 0.000 0.000
v 0.05596 -0.27328 2.99817 1.000 0.000 0.000
v 0.05596 -0.23879 3.00501 1.000 0.000 0.000
v 0.05596 -0.27328 3.01162 1.000 0.000 0.000
v 0.05596 -0.28647 3.01162 1.000 0.000 0.000
v 0.05596 -0.32096 3.00501 1.000 0.000 0.000
v 0.04936 -0.27988 2.99817 1.000 0.000 0.000
v 0.06282 -0.27988 2.99817 1.000 0.000 0.000
v 0.09705 -0.27988 3.00501 1.000 0.000 0.000
v 0.06282 -0.27988 3.01162 1.000 0.000 0.000
v 0.04936 -0.27988 3.01162 1.000 0.000 0.000
v 0.01487 -0.27988 3.00501 1.000 0.000 0.000
v 0.05596 -0.27988 3.00501 1.000 0.000 0.000
v 0.05596 -0.27988 2.94669 1.000 0.000 0.000
v 0.05596 -0.27988 3.06310 1.000 0.000 0.000
v 0.11039 -0.09383 3.07390 1.000 0.000 0.000
v 0.11039 -0.07643 3.07390 1.000 0.000 0.000
v 0.11039 -0.03092 3.08295 1.000 0.000 0.000
v 0.11039 -0.07643 3.09164 1.000 0.000 0.000
v 0.11039 -0.09383 3.09164 1.000 0.000 0.000
v 0.11039 -0.13936 3.08295 1.000 0.000 0.000
v 0.10170 -0.08514 3.07390 1.000 0.000 0.000
v 0.11945 -0.08514 3.07390 1.000 0.000 0.000
v 0.16463 -0.08514 3.08295 1.000 0.000 0.000
v 0.11945 -0.08514 3.09164 1.000 0.000 0.000
v 0.10170 -0.08514 3.09164 1.000 0.000 0.000
v 0.05619 -0.08514 3.08295 1.000 0.000 0.000
v 0.11039 -0.08514 3.08295 1.000 0.000 0.000
v 0.11039 -0.08514 3.00595 1.000 0.000 0.000
v 0.11039 -0.08514 3.15956 1.000 0.000 0.000
v 0.30660 0.01255 2.86985 1.000 0.000 0.000
v 0.30660 0.02218 2.86985 1.000 0.000 0.000
v 0.30660 0.04738 2.87483 1.000 0.000 0.000
v 0.30660 0.02218 2.87966 1.000 0.000 0.000
v 0.30660 0.01255 2.87966 1.000 0.000 0.000
v 0.30660 -0.01265 2.87483 1.000 0.000 0.000
v 0.30180 0.01737 2.86985 1.000 0.000 0.000
v 0.31162 0.01737 2.86985 1.000 0.000 0.000
v 0.33661 0.01737 2.87483 1.000 0.000 0.000
v 0.31162 0.01737 2.87966 1.000 0.000 0.000
v 0.30180 0.01737 2.87966 1.000 0.000 0.000
v 0.27661 0.01737 2.87483 1.000 0.000 0.000
v 0.30660 0.01737 2.87483 1.000 0.000 0.000
v 0.30660 0.01737 2.83225 1.000 0.000 0.000
v 0.30660 0.01737 2.91726 1.000 0.000 0.000
v 0.18127 -0.30100 2.49907 0.000 1.000 0.000
v 0.18127 -0.29196 2.49907 0.000 1.000 0.000
v 0.18127 -0.26836 2.50376 0.000 1.000 0.000
v 0.18127 -0.29196 2.50828 0.000 1.000 0.000
v 0.18127 -0.30100 2.50828 0.000 1.000 0.000
v 0.18127 -0.32459 2.50376 0.000 1.000 0.000
v 0.17674 -0.29648 2.49907 0.000 1.000 0.000
v 0.18594 -0.29648 2.49907 0.000 1.000 0.000
v 0.20938 -0.29648 2.50376 0.000 1.000 0.000
v 0.18594 -0.29648 2.50828 0.000 1.000 0.000
v 0.17674 -0.29648 2.50828 0.000 1.000 0.000
v 0.15316 -0.29648 2.50376 0.000 1.000 0.000
v 0.18127 -0.29648 2.50376 0.000 1.000 0.000
v 0.18127 -0.29648 2.46384 0.000 1.000 0.000
v 0.18127 -0.29648 2.54351 0.000 1.000 0.000
v 0.14800 -0.32778 2.86855 1.000 0.000 0.000
v 0.14800 -0.32180 2.87478 1.000 0.000 0.000
v 0.14800 -0.32180 2.82181 1.000 0.000 0.000
v 0.14800 -0.31581 2.86855 1.000 0.000 0.000
v 0.14800 -0.28447 2.87478 1.000 0.000 0.000
v 0.14800 -0.31581 2.88077 1.000 0.000 0.000
v 0.14800 -0.32180 2.92752 1.000 0.000 0.000
v 0.14800 -0.32778 2.88077 1.000 0.000 0.000
v 0.14800 -0.35912 2.87478 1.000 0.000 0.000
v 0.14200 -0.32180 2.86855 1.000 0.000 0.000
v 0.15423 -0.32180 2.86855 1.000 0.000 0.000
v 0.18532 -0.32180 2.87478 1.000 0.000 0.000
v 0.15423 -0.32180 2.88077 1.000 0.000 0.000
v 0.14200 -0.32180 2.88077 1.000 0.000 0.000
v 0.11067 -0.32180 2.87478 1.000 0.000 0.000
v 0.16102 0.07348 3.02184 0.000 1.000 0.000
v 0.16102 0.07855 3.02711 0.000 1.000 0.000
v 0.16102 0.07855 2.98217 0.000 1.000 0.000
v 0.16102 0.08363 3.02184 0.000 1.000 0.000
v 0.16102 0.11021 3.02711 0.000 1.000 0.000
v 0.16102 0.08363 3.03221 0.000 1.000 0.000
v 0.16102 0.07855 3.07186 0.000 1.000 0.000
v 0.16102 0.07348 3.03221 0.000 1.000 0.000
v 0.16102 0.04689 3.02711 0.000 1.000 0.000
v 0.15592 0.07855 3.02184 0.000 1.000 0.000
v 0.16628 0.07855 3.02184 0.000 1.000 0.000
v 0.19267 0.07855 3.02711 0.000 1.000 0.000
v 0.16628 0.07855 3.03221 0.000 1.000 0.000
v 0.15592 0.07855 3.03221 0.000 1.000 0.000
v 0.12936 0.07855 3.02711 0.000 1.000 0.000
v 0.19912 -0.18896 2.96060 0.000 0.000 0.000
v 0.16988 -0.16583 2.96667 0.000 0.000 0.000
v 0.22098 -0.17231 2.95493 0.000 0.000 0.000
v 0.20777 -0.13698 2.95682 0.000 0.000 0.000
v 0.23672 -0.21116 2.90167 0.000 0.000 0.000
v 0.24758 -0.18801 2.91323 0.000 0.000 0.000
v 0.23502 -0.20428 2.86456 0.000 0.000 0.000
v 0.25382 -0.16416 2.88463 0.000 0.000 0.000
v 0.24106 -0.17192 2.93531 0.000 0.000 0.000
v 0.24253 -0.13630 2.92284 0.000 0.000 0.000
v 0.19104 -0.11252 2.94557 0.000 0.000 0.000
v 0.14729 -0.14582 2.95697 0.000 0.000 0.000
v 0.22251 -0.19022 2.83907 0.000 0.000 0.000
v 0.24423 -0.14391 2.86220 0.000 0.000 0.000
v 0.23119 -0.11171 2.90635 0.000 0.000 0.000
v 0.17268 -0.10292 2.92162 0.000 0.000 0.000
v 0.13480 -0.13178 2.93146 0.000 0.000 0.000
v 0.19994 -0.17024 2.82935 0.000 0.000 0.000
v 0.21874 -0.13012 2.84942 0.000 0.000 0.000
v 0.20745 -0.10224 2.88763 0.000 0.000 0.000
v 0.15759 -0.11079 2.89132 0.000 0.000 0.000
v 0.13573 -0.12744 2.89699 0.000 0.000 0.000
v 0.18419 -0.12649 2.84962 0.000 0.000 0.000
v 0.17333 -0.14965 2.83806 0.000 0.000 0.000
v 0.17767 -0.11039 2.87170 0.000 0.000 0.000
v 0.22261 -0.20462 2.93587 0.000 0.000 0.000
v 0.14981 -0.13397 2.86281 0.000 0.000 0.000
v 0.18825 -0.21211 2.94905 0.000 0.000 0.000
v 0.15107 -0.20594 2.94662 0.000 0.000 0.000
v 0.21485 -0.22783 2.90734 0.000 0.000 0.000
v 0.19712 -0.23312 2.87444 0.000 0.000 0.000
v 0.19476 -0.22822 2.92698 0.000 0.000 0.000
v 0.16235 -0.23382 2.90842 0.000 0.000 0.000
v 0.12558 -0.19213 2.93380 0.000 0.000 0.000
v 0.17876 -0.22354 2.85043 0.000 0.000 0.000
v 0.13860 -0.22433 2.88968 0.000 0.000 0.000
v 0.11599 -0.17188 2.91141 0.000 0.000 0.000
v 0.16204 -0.19908 2.83923 0.000 0.000 0.000
v 0.12727 -0.19976 2.87321 0.000 0.000 0.000
v 0.12486 -0.15061 2.88544 0.000 0.000 0.000
v 0.15146 -0.16630 2.84373 0.000 0.000 0.000
v 0.13138 -0.16670 2.86337 0.000 0.000 0.000
v 0.21941 -0.17217 2.95243 0.000 0.800 0.000
v 0.20679 -0.13844 2.95423 0.000 1.000 0.000
v 0.19853 -0.18808 2.95785 0.000 0.800 0.000
v 0.17062 -0.16598 2.96363 0.000 1.000 0.000
v 0.23444 -0.20929 2.90156 0.000 0.800 0.000
v 0.23282 -0.20270 2.86612 0.000 1.000 0.000
v 0.24481 -0.18716 2.91262 0.000 0.800 0.000
v 0.25077 -0.16439 2.88529 0.000 1.000 0.000
v 0.23858 -0.17179 2.93369 0.000 0.800 0.000
v 0.23999 -0.13777 2.92178 0.000 1.000 0.000
v 0.19083 -0.11507 2.94349 0.000 1.000 0.000
v 0.14904 -0.14688 2.95438 0.000 1.000 0.000
v 0.22087 -0.18929 2.84179 0.000 1.000 0.000
v 0.24162 -0.14506 2.86387 0.000 1.000 0.000
v 0.22916 -0.11432 2.90603 0.000 1.000 0.000
v 0.17329 -0.10593 2.92061 0.000 1.000 0.000
v 0.13712 -0.13347 2.93000 0.000 1.000 0.000
v 0.19932 -0.17019 2.83252 0.000 1.000 0.000
v 0.21727 -0.13189 2.85167 0.000 1.000 0.000
v 0.20650 -0.10526 2.88815 0.000 1.000 0.000
v 0.15888 -0.11342 2.89168 0.000 1.000 0.000
v 0.13800 -0.12933 2.89710 0.000 1.000 0.000
v 0.17391 -0.15053 2.84081 0.000 1.000 0.000
v 0.18429 -0.12841 2.85187 0.000 1.000 0.000
v 0.17805 -0.11304 2.87294 0.000 1.000 0.000
v 0.22097 -0.20302 2.93422 0.000 0.749 0.000
v 0.15145 -0.13556 2.86445 0.000 1.000 0.000
v 0.18816 -0.21019 2.94680 0.000 0.800 0.000
v 0.15265 -0.20428 2.94449 0.000 1.000 0.000
v 0.21356 -0.22518 2.90698 0.000 0.800 0.000
v 0.19663 -0.23024 2.87555 0.000 1.000 0.000
v 0.19438 -0.22556 2.92574 0.000 0.800 0.000
v 0.16343 -0.23090 2.90801 0.000 1.000 0.000
v 0.12831 -0.19111 2.93225 0.000 1.000 0.000
v 0.17910 -0.22109 2.85264 0.000 1.000 0.000
v 0.14075 -0.22185 2.89012 0.000 1.000 0.000
v 0.11916 -0.17177 2.91087 0.000 1.000 0.000
v 0.16313 -0.19773 2.84193 0.000 1.000 0.000
v 0.12993 -0.19840 2.87438 0.000 1.000 0.000
v 0.12763 -0.15143 2.88607 0.000 1.000 0.000
v 0.15303 -0.16645 2.84625 0.000 1.000 0.000
v 0.13385 -0.16681 2.86499 0.000 1.000 0.000
v 0.13370 -0.11876 2.84755 0.341 0.000 0.000
v 0.13113 -0.16744 2.80656 0.000 0.000 0.941
v 0.13113 -0.16744 2.80656 0.000 0.000 0.941
v 0.14070 -0.16396 2.80199 0.000 0.000 0.941
vt 0.99389 0.00727
vt 0.36560 0.00727
vt 0.00433 0.00727
vt 0.67975 0.00727
vt 0.05145 0.29000
vt 0.44413 0.19576
vt 0.28706 0.46278
vt 0.52267 0.43137
vt 0.83682 0.14864
vt 0.71116 0.07010
vt 0.05145 0.29000
vt 0.28706 0.46278
vt 0.44413 0.19576
vt 0.71116 0.07010
vt 0.67975 0.00727
vt 0.36560 0.00727
vt 0.00433 0.00727
vt 0.05145 0.29000
vt 0.44413 0.19576
vt 0.28706 0.46278
vt 0.83682 0.14864
vt 0.71116 0.07010
vt 0.52267 0.43137
vt 0.05145 0.29000
vt 0.28706 0.46278
vt 0.44413 0.19576
vt 0.71116 0.07010
vt 0.67975 0.00727
vt 0.36560 0.00727
vt 0.00433 0.00727
vt 0.05145 0.29000
vt 0.44413 0.19576
vt 0.28706 0.46278
vt 0.83682 0.14864
vt 0.71116 0.07010
vt 0.52267 0.43137
vt 0.05145 0.29000
vt 0.44413 0.19576
vt 0.28706 0.46278
vt 0.52267 0.43137
vt 0.83682 0.14864
vt 0.71116 0.07010
vt 0.05145 0.29000
vt 0.28706 0.46278
vt 0.44413 0.19576
vt 0.71116 0.07010
vt 0.67975 0.00727
vt 0.36560 0.00727
vt 0.00433 0.00727
vt 0.05145 0.29000
vt 0.44413 0.19576
vt 0.28706 0.46278
vt 0.83682 0.14864
vt 0.71116 0.07010
vt 0.52267 0.43137
vt 0.05145 0.29000
vt 0.28706 0.46278
vt 0.44413 0.19576
vt 0.71116 0.07010
vt 0.67975 0.00727
vt 0.36560 0.00727
vt 0.00433 0.00727
vt 0.05145 0.29000
vt 0.44413 0.19576
vt 0.28706 0.46278
vt 0.71116 0.07010
vt 0.16140 0.00727
vt 0.16140 0.00727
vt 0.16140 0.00727
vt 0.16140 0.00727
vt 0.16140 0.00727
vt 0.99389 0.00727
vt 0.36560 0.00727
vt 0.00433 0.00727
vt 0.67975 0.00727
vt 0.05145 0.29000
vt 0.44413 0.19576
vt 0.28706 0.46278
vt 0.52267 0.43137
vt 0.83682 0.14864
vt 0.71116 0.07010
vt 0.05145 0.29000
vt 0.28706 0.46278
vt 0.44413 0.19576
vt 0.71116 0.07010
vt 0.67975 0.00727
vt 0.36560 0.00727
vt 0.00433 0.00727
vt 0.05145 0.29000
vt 0.44413 0.19576
vt 0.28706 0.46278
vt 0.83682 0.14864
vt 0.71116 0.07010
vt 0.52267 0.43137
vt 0.05145 0.29000
vt 0.28706 0.46278
vt 0.44413 0.19576
vt 0.71116 0.07010
vt 0.67975 0.00727
vt 0.36560 0.00727
vt 0.00433 0.00727
vt 0.05145 0.29000
vt 0.44413 0.19576
vt 0.28706 0.46278
vt 0.83682 0.14864
vt 0.71116 0.07010
vt 0.52267 0.43137
vt 0.05145 0.29000
vt 0.44413 0.19576
vt 0.28706 0.46278
vt 0.52267 0.43137
vt 0.83682 0.14864
vt 0.71116 0.07010
vt 0.05145 0.29000
vt 0.28706 0.46278
vt 0.44413 0.19576
vt 0.71116 0.07010
vt 0.67975 0.00727
vt 0.36560 0.00727
vt 0.00433 0.00727
vt 0.05145 0.29000
vt 0.44413 0.19576
vt 0.28706 0.46278
vt 0.83682 0.14864
vt 0.71116 0.07010
vt 0.52267 0.43137
vt 0.05145 0.29000
vt 0.28706 0.46278
vt 0.44413 0.19576
vt 0.71116 0.07010
vt 0.67975 0.00727
vt 0.36560 0.00727
vt 0.00433 0.00727
vt 0.05145 0.29000
vt 0.44413 0.19576
vt 0.28706 0.46278
vt 0.71116 0.07010
vt 0.16140 0.00727
vt 0.16140 0.00727
vt 0.16140 0.00727
vt 0.16140 0.00727
vt 0.16140 0.00727
vt 0.05145 0.29000
vt 0.99389 0.00727
vt 0.28706 0.46278
vt 0.52267 0.43137
vt 0.00433 0.00727
vt 0.05145 0.29000
vt 0.28706 0.46278
vt 0.00433 0.00727
vt 0.05145 0.29000
vt 0.28706 0.46278
vt 0.52267 0.43137
vt 0.05145 0.29000
vt 0.28706 0.46278
vt 0.00433 0.00727
vt 0.05145 0.29000
vt 0.28706 0.46278
vt 0.52267 0.43137
vt 0.05145 0.29000
vt 0.28706 0.46278
vt 0.52267 0.43137
vt 0.00433 0.00727
vt 0.05145 0.29000
vt 0.28706 0.46278
vt 0.00433 0.00727
vt 0.05145 0.29000
vt 0.28706 0.46278
vt 0.52267 0.43137
vt 0.05145 0.29000
vt 0.28706 0.46278
vt 0.05145 0.29000
vt 0.28706 0.46278
vt 0.02789 0.14864
vt 0.02789 0.14864
vt 0.76410 0.86680
vt 0.83845 0.86680
vt 0.80095 0.96298
vt 0.58510 0.86680
vt 0.65135 0.86680
vt 0.61836 0.96298
vt 0.06644 0.96298
vt 0.17916 0.86680
vt 0.25210 0.86680
vt 0.21514 0.96298
vt 0.39597 0.86680
vt 0.45726 0.86680
vt 0.42753 0.96298
vt 0.80095 0.96298
vt 0.61836 0.96298
vt 0.21514 0.96298
vt 0.42753 0.96298
vt 0.70241 0.41253
vt 0.63737 0.34875
vt 0.70241 0.41253
vt 0.70241 0.41253
vt 0.71561 0.57238
vt 0.63264 0.41253
vt 0.63264 0.57238
vt 0.70241 0.41253
vt 0.71561 0.57238
vt 0.63264 0.41253
vt 0.63264 0.57238
vt 0.74764 0.48985
vt 0.63264 0.48985
vt 0.74764 0.48985
vt 0.63264 0.48985
vt 0.71561 0.57238
vt 0.63264 0.57238
vt 0.74764 0.48985
vt 0.63264 0.48985
vt 0.63264 0.41253
vt 0.74764 0.48985
vt 0.71561 0.57238
vt 0.63264 0.57238
vt 0.63264 0.48985
vt 0.63264 0.41253
vt 0.57410 0.86680
vt 0.48886 0.86680
vt 0.63675 0.86680
vt 0.53582 0.86680
vt 0.60456 0.96298
vt 0.51003 0.96298
vt 0.39701 0.86680
vt 0.45505 0.86680
vt 0.43237 0.96298
vt 0.81612 0.86680
vt 0.88579 0.86680
vt 0.84890 0.96298
vt 0.67874 0.86680
vt 0.76835 0.86680
vt 0.72630 0.96298
vt 0.14079 0.86680
vt 0.18053 0.86680
vt 0.15511 0.96298
vt 0.27945 0.86680
vt 0.31743 0.86680
vt 0.30115 0.96298
vt 0.60456 0.96298
vt 0.51003 0.96298
vt 0.43237 0.96298
vt 0.84890 0.96298
vt 0.72630 0.96298
vt 0.15511 0.96298
vt 0.30115 0.96298
vt 0.57410 0.86680
vt 0.48886 0.86680
vt 0.63675 0.86680
vt 0.53582 0.86680
vt 0.60456 0.96298
vt 0.51003 0.96298
vt 0.39701 0.86680
vt 0.45505 0.86680
vt 0.43237 0.96298
vt 0.99485 0.96298
vt 0.81612 0.86680
vt 0.88579 0.86680
vt 0.84890 0.96298
vt 0.67874 0.86680
vt 0.76835 0.86680
vt 0.72630 0.96298
vt 0.14079 0.86680
vt 0.18053 0.86680
vt 0.15511 0.96298
vt 0.27945 0.86680
vt 0.31743 0.86680
vt 0.30115 0.96298
vt 0.60456 0.96298
vt 0.51003 0.96298
vt 0.43237 0.96298
vt 0.84890 0.96298
vt 0.72630 0.96298
vt 0.15511 0.96298
vt 0.30115 0.96298
vt 0.76410 0.86680
vt 0.83845 0.86680
vt 0.80095 0.96298
vt 0.58510 0.86680
vt 0.65135 0.86680
vt 0.61836 0.96298
vt 0.17916 0.86680
vt 0.25210 0.86680
vt 0.21514 0.96298
vt 0.39597 0.86680
vt 0.45726 0.86680
vt 0.42753 0.96298
vt 0.80095 0.96298
vt 0.61836 0.96298
vt 0.21514 0.96298
vt 0.42753 0.96298
vt 0.70241 0.41253
vt 0.63737 0.34875
vt 0.70241 0.41253
vt 0.70241 0.41253
vt 0.71561 0.57238
vt 0.63264 0.41253
vt 0.63264 0.57238
vt 0.70241 0.41253
vt 0.71561 0.57238
vt 0.63264 0.41253
vt 0.63264 0.57238
vt 0.74764 0.48985
vt 0.63264 0.48985
vt 0.74764 0.48985
vt 0.63264 0.48985
vt 0.71561 0.57238
vt 0.63264 0.57238
vt 0.74764 0.48985
vt 0.63264 0.48985
vt 0.63264 0.41253
vt 0.74764 0.48985
vt 0.71561 0.57238
vt 0.63264 0.57238
vt 0.63264 0.48985
vt 0.63264 0.41253
vt 0.12389 0.56572
vt 0.02650 0.56572
vt 0.00691 0.47636
vt 0.12389 0.38828
vt 0.02650 0.38828
vt 0.12389 0.38828
vt 0.12389 0.56572
vt 0.02650 0.56572
vt 0.00691 0.47636
vt 0.02650 0.38828
vt 0.16258 0.51437
vt 0.16258 0.43704
vt 0.16258 0.43704
vt 0.16258 0.51437
vt 0.07520 0.47707
vt 0.07520 0.47707
vt 0.07520 0.47707
vt 0.07520 0.47707
vt 0.07520 0.62370
vt 0.07520 0.33112
vt 0.12389 0.56572
vt 0.02650 0.56572
vt 0.00691 0.47636
vt 0.12389 0.38828
vt 0.02650 0.38828
vt 0.12389 0.38828
vt 0.12389 0.56572
vt 0.02650 0.56572
vt 0.00691 0.47636
vt 0.02650 0.38828
vt 0.16258 0.51437
vt 0.16258 0.43704
vt 0.16258 0.43704
vt 0.16258 0.51437
vt 0.07520 0.47707
vt 0.07520 0.47707
vt 0.07520 0.47707
vt 0.07520 0.47707
vt 0.07520 0.62370
vt 0.07520 0.33112
vt 0.17981 0.42472
vt 0.37226 0.54348
vt 0.17981 0.54348
vt 0.37226 0.54348
vt 0.17981 0.42472
vt 0.37226 0.54348
vt 0.17981 0.54348
vt 0.37226 0.54348
vt 0.17981 0.42472
vt 0.37226 0.54348
vt 0.17981 0.54348
vt 0.37226 0.54348
vt 0.17981 0.42472
vt 0.37226 0.54348
vt 0.17981 0.54348
vt 0.37226 0.54348
vt 0.37589 0.58605
vt 0.37589 0.45630
vt 0.53027 0.47225
vt 0.53027 0.58605
vt 0.37589 0.45630
vt 0.53027 0.47225
vt 0.37589 0.58605
vt 0.37589 0.45630
vt 0.53027 0.47225
vt 0.53027 0.58605
vt 0.37589 0.45630
vt 0.53027 0.47225
vt 0.57460 0.58579
vt 0.32815 0.58579
vt 0.45101 0.45703
vt 0.45101 0.45703
vt 0.17981 0.42472
vt 0.37226 0.54348
vt 0.17981 0.54348
vt 0.37226 0.54348
vt 0.17981 0.42472
vt 0.37226 0.54348
vt 0.17981 0.54348
vt 0.37226 0.54348
vt 0.17981 0.42472
vt 0.37226 0.54348
vt 0.17981 0.54348
vt 0.37226 0.54348
vt 0.17981 0.42472
vt 0.37226 0.54348
vt 0.17981 0.54348
vt 0.37226 0.54348
vt 0.37589 0.58605
vt 0.37589 0.45630
vt 0.53027 0.47225
vt 0.53027 0.58605
vt 0.37589 0.45630
vt 0.53027 0.47225
vt 0.37589 0.58605
vt 0.37589 0.45630
vt 0.53027 0.47225
vt 0.53027 0.58605
vt 0.37589 0.45630
vt 0.53027 0.47225
vt 0.57460 0.58579
vt 0.32815 0.58579
vt 0.45101 0.45703
vt 0.45101 0.45703
vt 0.20117 0.99428
vt 0.20117 0.99428
vt 0.20117 0.99428
vt 0.20117 0.99428
vt 0.20117 0.99428
vt 0.20117 0.99428
vt 0.20117 0.99428
vt 0.20117 0.99428
vt 0.20117 0.99428
vt 0.20117 0.99428
vt 0.20117 0.99428
vt 0.20117 0.99428
vt 0.20117 0.99428
vt 0.20117 0.99428
vt 0.20117 0.99428
vt 0.35352 0.99428
vt 0.35352 0.99428
vt 0.35352 0.99428
vt 0.35352 0.99428
vt 0.35352 0.99428
vt 0.35352 0.99428
vt 0.35352 0.99428
vt 0.35352 0.99428
vt 0.35352 0.99428
vt 0.35352 0.99428
vt 0.35352 0.99428
vt 0.35352 0.99428
vt 0.35352 0.99428
vt 0.35352 0.99428
vt 0.35352 0.99428
vt 0.15430 0.99428
vt 0.15430 0.99428
vt 0.15430 0.99428
vt 0.15430 0.99428
vt 0.15430 0.99428
vt 0.15430 0.99428
vt 0.15430 0.99428
vt 0.15430 0.99428
vt 0.15430 0.99428
vt 0.15430 0.99428
vt 0.15430 0.99428
vt 0.15430 0.99428
vt 0.15430 0.99428
vt 0.15430 0.99428
vt 0.15430 0.99428
vt 0.43555 0.99428
vt 0.43555 0.99428
vt 0.43555 0.99428
vt 0.43555 0.99428
vt 0.43555 0.99428
vt 0.43555 0.99428
vt 0.43555 0.99428
vt 0.43555 0.99428
vt 0.43555 0.99428
vt 0.43555 0.99428
vt 0.43555 0.99428
vt 0.43555 0.99428
vt 0.43555 0.99428
vt 0.43555 0.99428
vt 0.43555 0.99428
vt 0.26758 0.99428
vt 0.26758 0.99428
vt 0.26758 0.99428
vt 0.26758 0.99428
vt 0.26758 0.99428
vt 0.26758 0.99428
vt 0.26758 0.99428
vt 0.26758 0.99428
vt 0.26758 0.99428
vt 0.26758 0.99428
vt 0.26758 0.99428
vt 0.26758 0.99428
vt 0.26758 0.99428
vt 0.26758 0.99428
vt 0.26758 0.99428
vt 0.02930 0.99428
vt 0.02930 0.99428
vt 0.02930 0.99428
vt 0.02930 0.99428
vt 0.02930 0.99428
vt 0.02930 0.99428
vt 0.02930 0.99428
vt 0.02930 0.99428
vt 0.02930 0.99428
vt 0.02930 0.99428
vt 0.02930 0.99428
vt 0.02930 0.99428
vt 0.02930 0.99428
vt 0.02930 0.99428
vt 0.02930 0.99428
vt 0.15430 0.99428
vt 0.15430 0.99428
vt 0.15430 0.99428
vt 0.15430 0.99428
vt 0.15430 0.99428
vt 0.15430 0.99428
vt 0.15430 0.99428
vt 0.15430 0.99428
vt 0.15430 0.99428
vt 0.15430 0.99428
vt 0.15430 0.99428
vt 0.15430 0.99428
vt 0.15430 0.99428
vt 0.15430 0.99428
vt 0.15430 0.99428
vt 0.02930 0.99428
vt 0.02930 0.99428
vt 0.02930 0.99428
vt 0.02930 0.99428
vt 0.02930 0.99428
vt 0.02930 0.99428
vt 0.02930 0.99428
vt 0.02930 0.99428
vt 0.02930 0.99428
vt 0.02930 0.99428
vt 0.02930 0.99428
vt 0.02930 0.99428
vt 0.02930 0.99428
vt 0.02930 0.99428
vt 0.02930 0.99428
vt 0.00839 0.97821
vt 0.00839 0.97821
vt 0.00839 0.97821
vt 0.00839 0.97821
vt 0.00839 0.97821
vt 0.00839 0.97821
vt 0.00839 0.97821
vt 0.00839 0.97821
vt 0.00839 0.97821
vt 0.00839 0.97821
vt 0.00839 0.97821
vt 0.00839 0.97821
vt 0.00839 0.97821
vt 0.00839 0.97821
vt 0.00839 0.97821
vt 0.00839 0.97821
vt 0.00839 0.97821
vt 0.00839 0.97821
vt 0.00839 0.97821
vt 0.00839 0.97821
vt 0.00839 0.97821
vt 0.00839 0.97821
vt 0.00839 0.97821
vt 0.00839 0.97821
vt 0.00839 0.97821
vt 0.00839 0.97821
vt 0.00839 0.97821
vt 0.00839 0.97821
vt 0.00839 0.97821
vt 0.00839 0.97821
vt 0.00839 0.97821
vt 0.00839 0.97821
vt 0.00839 0.97821
vt 0.00839 0.97821
vt 0.00839 0.97821
vt 0.00839 0.97821
vt 0.00839 0.97821
vt 0.00839 0.97821
vt 0.00839 0.97821
vt 0.00839 0.97821
vt 0.00839 0.97821
vt 0.00839 0.97821
vt 0.86737 0.53653
vt 0.86721 0.46034
vt 0.79145 0.53653
vt 0.75643 0.46034
vt 0.79145 0.53653
vt 0.75643 0.46034
vt 0.86737 0.53653
vt 0.86721 0.46034
vt 0.94401 0.53653
vt 0.97903 0.46034
vt 0.86713 0.38513
vt 0.73970 0.38513
vt 0.73970 0.38513
vt 0.86713 0.38513
vt 0.99576 0.38513
vt 0.86721 0.31398
vt 0.75643 0.31398
vt 0.75643 0.31398
vt 0.86721 0.31398
vt 0.97903 0.31398
vt 0.86737 0.23779
vt 0.79145 0.23779
vt 0.79145 0.23779
vt 0.86737 0.23779
vt 0.94401 0.23779
vt 0.86701 0.61531
vt 0.86701 0.15901
vt 0.86737 0.53653
vt 0.86721 0.46034
vt 0.86737 0.53653
vt 0.86721 0.46034
vt 0.94401 0.53653
vt 0.97903 0.46034
vt 0.86713 0.38513
vt 0.86713 0.38513
vt 0.99576 0.38513
vt 0.86721 0.31398
vt 0.86721 0.31398
vt 0.97903 0.31398
vt 0.86737 0.23779
vt 0.86737 0.23779
vt 0.94401 0.23779
vt 0.99389 0.00727
vt 0.99485 0.96298
vt 0.00915 0.96298
vt 0.00915 0.96298
usemtl m0
f 5/5 6/6 7/7
f 1/1 9/9 10/10
f 8/8 6/6 9/9
f 6/6 10/10 9/9
f 7/7 6/6 8/8
f 1/1 10/10 4/4
f 10/10 6/6 4/4
f 6/6 2/2 4/4
f 67/67 5/5 3/3
f 5/5 67/67 6/6
f 67/67 2/2 6/6
f 11/11 12/12 13/13
f 1/1 14/14 9/9
f 14/14 13/13 9/9
f 13/13 8/8 9/9
f 12/12 8/8 13/13
f 1/1 15/15 14/14
f 16/16 13/13 15/15
f 13/13 14/14 15/15
f 11/11 68/68 17/17
f 16/16 68/68 13/13
f 68/68 11/11 13/13
f 18/18 19/19 20/20
f 1/1 21/21 22/22
f 20/20 19/19 23/23
f 22/22 21/21 19/19
f 21/21 23/23 19/19
f 1/1 22/22 15/15
f 16/16 15/15 19/19
f 15/15 22/22 19/19
f 68/68 18/18 17/17
f 16/16 19/19 68/68
f 19/19 18/18 68/68
f 24/24 25/25 26/26
f 1/1 27/27 21/21
f 27/27 26/26 21/21
f 26/26 23/23 21/21
f 25/25 23/23 26/26
f 1/1 28/28 27/27
f 29/29 26/26 28/28
f 26/26 27/27 28/28
f 24/24 69/69 30/30
f 29/29 69/69 26/26
f 69/69 24/24 26/26
f 31/31 32/32 33/33
f 1/1 34/34 35/35
f 33/33 32/32 36/36
f 36/36 32/32 34/34
f 32/32 35/35 34/34
f 1/1 35/35 28/28
f 35/35 32/32 28/28
f 32/32 29/29 28/28
f 69/69 31/31 30/30
f 29/29 32/32 69/69
f 32/32 31/31 69/69
f 37/37 39/39 38/38
f 1/1 42/42 41/41
f 40/40 41/41 38/38
f 41/41 42/42 38/38
f 39/39 40/40 38/38
f 1/1 4/4 42/42
f 42/42 4/4 38/38
f 4/4 2/2 38/38
f 37/37 67/67 3/3
f 37/37 38/38 67/67
f 38/38 2/2 67/67
f 43/43 45/45 44/44
f 1/1 41/41 46/46
f 44/44 45/45 40/40
f 46/46 41/41 45/45
f 41/41 40/40 45/45
f 1/1 46/46 47/47
f 48/48 47/47 45/45
f 47/47 46/46 45/45
f 70/70 43/43 49/49
f 48/48 45/45 70/70
f 45/45 43/43 70/70
f 50/50 52/52 51/51
f 1/1 54/54 53/53
f 55/55 53/53 51/51
f 53/53 54/54 51/51
f 52/52 55/55 51/51
f 1/1 47/47 54/54
f 48/48 51/51 47/47
f 51/51 54/54 47/47
f 50/50 70/70 49/49
f 50/50 51/51 70/70
f 51/51 48/48 70/70
f 56/56 58/58 57/57
f 1/1 53/53 59/59
f 57/57 58/58 55/55
f 59/59 53/53 58/58
f 53/53 55/55 58/58
f 1/1 59/59 60/60
f 61/61 60/60 58/58
f 60/60 59/59 58/58
f 71/71 56/56 62/62
f 61/61 58/58 71/71
f 58/58 56/56 71/71
f 63/63 65/65 64/64
f 1/1 66/66 34/34
f 66/66 64/64 34/34
f 64/64 36/36 34/34
f 65/65 36/36 64/64
f 1/1 60/60 66/66
f 66/66 60/60 64/64
f 60/60 61/61 64/64
f 63/63 71/71 62/62
f 63/63 64/64 71/71
f 64/64 61/61 71/71
f 76/76 78/78 77/77
f 72/72 81/81 80/80
f 79/79 80/80 77/77
f 80/80 81/81 77/77
f 78/78 79/79 77/77
f 72/72 75/75 81/81
f 81/81 75/75 77/77
f 75/75 73/73 77/77
f 138/138 74/74 76/76
f 77/77 73/73 76/76
f 73/73 138/138 76/76
f 82/82 84/84 83/83
f 72/72 80/80 85/85
f 83/83 84/84 79/79
f 79/79 84/84 80/80
f 84/84 85/85 80/80
f 72/72 85/85 86/86
f 87/87 86/86 84/84
f 86/86 85/85 84/84
f 84/84 82/82 87/87
f 82/82 139/139 87/87
f 88/88 139/139 82/82
f 89/89 91/91 90/90
f 72/72 93/93 92/92
f 94/94 92/92 90/90
f 92/92 93/93 90/90
f 91/91 94/94 90/90
f 72/72 86/86 93/93
f 93/93 86/86 90/90
f 86/86 87/87 90/90
f 139/139 88/88 89/89
f 90/90 87/87 89/89
f 87/87 139/139 89/89
f 95/95 97/97 96/96
f 72/72 92/92 98/98
f 96/96 97/97 94/94
f 94/94 97/97 92/92
f 97/97 98/98 92/92
f 72/72 98/98 99/99
f 100/100 99/99 97/97
f 99/99 98/98 97/97
f 97/97 95/95 100/100
f 95/95 140/140 100/100
f 101/101 140/140 95/95
f 102/102 104/104 103/103
f 72/72 106/106 105/105
f 106/106 103/103 105/105
f 103/103 107/107 105/105
f 104/104 107/107 103/103
f 72/72 99/99 106/106
f 103/103 106/106 100/100
f 106/106 99/99 100/100
f 140/140 101/101 102/102
f 103/103 100/100 102/102
f 100/100 140/140 102/102
f 108/108 109/109 110/110
f 72/72 112/112 113/113
f 110/110 109/109 111/111
f 111/111 109/109 112/112
f 109/109 113/113 112/112
f 72/72 113/113 75/75
f 113/113 109/109 75/75
f 109/109 73/73 75/75
f 74/74 138/138 108/108
f 138/138 73/73 108/108
f 73/73 109/109 108/108
f 114/114 115/115 116/116
f 72/72 117/117 112/112
f 117/117 116/116 112/112
f 116/116 111/111 112/112
f 115/115 111/111 116/116
f 72/72 118/118 117/117
f 119/119 116/116 118/118
f 116/116 117/117 118/118
f 141/141 120/120 114/114
f 141/141 114/114 119/119
f 114/114 116/116 119/119
f 121/121 122/122 123/123
f 72/72 124/124 125/125
f 123/123 122/122 126/126
f 126/126 122/122 124/124
f 122/122 125/125 124/124
f 72/72 125/125 118/118
f 125/125 122/122 118/118
f 122/122 119/119 118/118
f 120/120 141/141 121/121
f 141/141 119/119 121/121
f 119/119 122/122 121/121
f 127/127 128/128 129/129
f 72/72 130/130 124/124
f 130/130 129/129 124/124
f 129/129 126/126 124/124
f 128/128 126/126 129/129
f 72/72 131/131 130/130
f 132/132 129/129 131/131
f 129/129 130/130 131/131
f 142/142 133/133 127/127
f 142/142 127/127 132/132
f 127/127 129/129 132/132
f 134/134 135/135 136/136
f 72/72 105/105 137/137
f 136/136 135/135 107/107
f 137/137 105/105 135/135
f 105/105 107/107 135/135
f 72/72 137/137 131/131
f 131/131 137/137 132/132
f 137/137 135/135 132/132
f 133/133 142/142 134/134
f 142/142 132/132 134/134
f 132/132 135/135 134/134
f 143/143 145/145 144/144
f 146/146 624/624 145/145
f 147/147 143/143 144/144
f 148/148 144/144 149/149
f 146/146 149/149 144/144
f 150/150 144/144 148/148
f 151/151 152/152 144/144
f 152/152 153/153 144/144
f 150/150 151/151 144/144
f 154/154 144/144 155/155
f 155/155 144/144 153/153
f 156/156 144/144 174/174
f 174/174 144/144 154/154
f 157/157 144/144 158/158
f 159/159 158/158 624/624
f 147/147 144/144 157/157
f 160/160 144/144 161/161
f 162/162 161/161 624/624
f 163/163 144/144 160/160
f 164/164 165/165 144/144
f 162/162 144/144 165/165
f 166/166 164/164 144/144
f 167/167 144/144 168/168
f 168/168 144/144 169/169
f 166/166 144/144 167/167
f 170/170 171/171 144/144
f 171/171 169/169 144/144
f 156/156 175/175 144/144
f 144/144 175/175 170/170
f 172/172 173/173 144/144
f 159/159 624/624 173/173
f 163/163 172/172 144/144
f 180/180 181/181 177/177
f 181/181 178/178 177/177
f 181/181 179/179 178/178
f 179/179 176/176 178/178
f 184/184 185/185 187/187
f 185/185 188/188 187/187
f 187/187 188/188 180/180
f 181/181 180/180 188/188
f 185/185 184/184 182/182
f 183/183 186/186 185/185
f 185/185 186/186 188/188
f 188/188 186/186 181/181
f 179/179 181/181 186/186
f 183/183 185/185 182/182
f 180/180 177/177 190/190
f 190/190 177/177 189/189
f 190/190 189/189 179/179
f 179/179 189/189 176/176
f 184/184 187/187 191/191
f 191/191 187/187 192/192
f 187/187 180/180 192/192
f 190/190 192/192 180/180
f 191/191 182/182 184/184
f 183/183 191/191 186/186
f 191/191 192/192 186/186
f 192/192 190/190 186/186
f 179/179 186/186 190/190
f 183/183 182/182 191/191
f 193/193 212/212 194/194
f 195/195 194/194 212/212
f 193/193 194/194 217/217
f 195/195 217/217 194/194
f 197/197 204/204 199/199
f 199/199 204/204 205/205
f 196/196 198/198 204/204
f 205/205 204/204 198/198
f 200/200 206/206 198/198
f 198/198 206/206 205/205
f 205/205 206/206 199/199
f 206/206 201/201 199/199
f 197/197 203/203 204/204
f 203/203 207/207 204/204
f 207/207 202/202 204/204
f 196/196 204/204 202/202
f 200/200 202/202 206/206
f 202/202 207/207 206/206
f 207/207 203/203 206/206
f 206/206 203/203 201/201
f 208/208 210/210 209/209
f 209/209 210/210 211/211
f 193/193 212/212 210/210
f 211/211 210/210 212/212
f 195/195 213/213 212/212
f 212/212 213/213 211/211
f 211/211 213/213 209/209
f 213/213 214/214 209/209
f 208/208 215/215 210/210
f 215/215 216/216 210/210
f 216/216 217/217 210/210
f 193/193 210/210 217/217
f 195/195 217/217 213/213
f 217/217 216/216 213/213
f 216/216 215/215 213/213
f 213/213 215/215 214/214
f 220/220 221/221 222/222
f 222/222 221/221 223/223
f 222/222 223/223 218/218
f 218/218 223/223 219/219
f 225/225 226/226 221/221
f 226/226 223/223 221/221
f 226/226 224/224 223/223
f 224/224 219/219 223/223
f 228/228 231/231 229/229
f 229/229 231/231 232/232
f 231/231 220/220 232/232
f 222/222 232/232 220/220
f 229/229 625/625 228/228
f 227/227 229/229 230/230
f 229/229 232/232 230/230
f 232/232 222/222 230/230
f 218/218 230/230 222/222
f 227/227 625/625 229/229
f 234/234 235/235 237/237
f 235/235 238/238 237/237
f 237/237 238/238 225/225
f 226/226 225/225 238/238
f 235/235 234/234 626/626
f 233/233 236/236 235/235
f 235/235 236/236 238/238
f 238/238 236/236 226/226
f 224/224 226/226 236/236
f 233/233 235/235 626/626
f 220/220 239/239 221/221
f 239/239 240/240 221/221
f 239/239 218/218 240/240
f 218/218 219/219 240/240
f 225/225 221/221 241/241
f 241/241 221/221 240/240
f 241/241 240/240 224/224
f 224/224 240/240 219/219
f 228/228 242/242 231/231
f 242/242 243/243 231/231
f 231/231 243/243 220/220
f 239/239 220/220 243/243
f 242/242 228/228 625/625
f 227/227 230/230 242/242
f 242/242 230/230 243/243
f 243/243 230/230 239/239
f 218/218 239/239 230/230
f 227/227 242/242 625/625
f 234/234 237/237 244/244
f 244/244 237/237 245/245
f 237/237 225/225 245/245
f 241/241 245/245 225/225
f 244/244 626/626 234/234
f 233/233 244/244 236/236
f 244/244 245/245 236/236
f 245/245 241/241 236/236
f 224/224 236/236 241/241
f 233/233 626/626 244/244
f 248/248 249/249 250/250
f 250/250 249/249 251/251
f 250/250 251/251 246/246
f 246/246 251/251 247/247
f 253/253 254/254 249/249
f 254/254 251/251 249/249
f 254/254 252/252 251/251
f 252/252 247/247 251/251
f 257/257 260/260 258/258
f 258/258 260/260 261/261
f 260/260 248/248 261/261
f 250/250 261/261 248/248
f 258/258 255/255 257/257
f 256/256 258/258 259/259
f 258/258 261/261 259/259
f 261/261 250/250 259/259
f 246/246 259/259 250/250
f 256/256 255/255 258/258
f 263/263 264/264 266/266
f 264/264 267/267 266/266
f 266/266 267/267 253/253
f 254/254 253/253 267/267
f 264/264 263/263 627/627
f 262/262 265/265 264/264
f 264/264 265/265 267/267
f 267/267 265/265 254/254
f 252/252 254/254 265/265
f 262/262 264/264 627/627
f 248/248 268/268 249/249
f 268/268 269/269 249/249
f 268/268 246/246 269/269
f 246/246 247/247 269/269
f 253/253 249/249 270/270
f 270/270 249/249 269/269
f 270/270 269/269 252/252
f 252/252 269/269 247/247
f 257/257 271/271 260/260
f 271/271 272/272 260/260
f 260/260 272/272 248/248
f 268/268 248/248 272/272
f 271/271 257/257 255/255
f 256/256 259/259 271/271
f 271/271 259/259 272/272
f 272/272 259/259 268/268
f 246/246 268/268 259/259
f 256/256 271/271 255/255
f 263/263 266/266 273/273
f 273/273 266/266 274/274
f 266/266 253/253 274/274
f 270/270 274/274 253/253
f 273/273 627/627 263/263
f 262/262 273/273 265/265
f 273/273 274/274 265/265
f 274/274 270/270 265/265
f 252/252 265/265 270/270
f 262/262 627/627 273/273
f 279/279 280/280 276/276
f 280/280 277/277 276/276
f 280/280 278/278 277/277
f 278/278 275/275 277/277
f 282/282 283/283 285/285
f 283/283 286/286 285/285
f 285/285 286/286 279/279
f 280/280 279/279 286/286
f 283/283 282/282 182/182
f 281/281 284/284 283/283
f 283/283 284/284 286/286
f 286/286 284/284 280/280
f 278/278 280/280 284/284
f 281/281 283/283 182/182
f 279/279 276/276 288/288
f 288/288 276/276 287/287
f 288/288 287/287 278/278
f 278/278 287/287 275/275
f 282/282 285/285 289/289
f 289/289 285/285 290/290
f 285/285 279/279 290/290
f 288/288 290/290 279/279
f 289/289 182/182 282/282
f 281/281 289/289 284/284
f 289/289 290/290 284/284
f 290/290 288/288 284/284
f 278/278 284/284 288/288
f 281/281 182/182 289/289
f 291/291 310/310 292/292
f 293/293 292/292 310/310
f 291/291 292/292 315/315
f 293/293 315/315 292/292
f 295/295 302/302 297/297
f 297/297 302/302 303/303
f 294/294 296/296 302/302
f 303/303 302/302 296/296
f 298/298 304/304 296/296
f 296/296 304/304 303/303
f 303/303 304/304 297/297
f 304/304 299/299 297/297
f 295/295 301/301 302/302
f 301/301 305/305 302/302
f 305/305 300/300 302/302
f 294/294 302/302 300/300
f 298/298 300/300 304/304
f 300/300 305/305 304/304
f 305/305 301/301 304/304
f 304/304 301/301 299/299
f 306/306 308/308 307/307
f 307/307 308/308 309/309
f 291/291 310/310 308/308
f 309/309 308/308 310/310
f 293/293 311/311 310/310
f 310/310 311/311 309/309
f 309/309 311/311 307/307
f 311/311 312/312 307/307
f 306/306 313/313 308/308
f 313/313 314/314 308/308
f 314/314 315/315 308/308
f 291/291 308/308 315/315
f 293/293 315/315 311/311
f 315/315 314/314 311/311
f 314/314 313/313 311/311
f 311/311 313/313 312/312
f 326/326 330/330 316/316
f 318/318 317/317 330/330
f 316/316 330/330 317/317
f 330/330 327/327 319/319
f 327/327 330/330 326/326
f 320/320 330/330 319/319
f 318/318 330/330 320/320
f 328/328 331/331 321/321
f 321/321 331/331 320/320
f 331/331 329/329 322/322
f 329/329 331/331 328/328
f 318/318 320/320 331/331
f 317/317 331/331 322/322
f 331/331 317/317 318/318
f 323/323 332/332 316/316
f 324/324 332/332 323/323
f 332/332 326/326 316/316
f 319/319 332/332 325/325
f 332/332 327/327 326/326
f 327/327 332/332 319/319
f 324/324 325/325 332/332
f 325/325 333/333 321/321
f 333/333 328/328 321/321
f 322/322 333/333 323/323
f 333/333 329/329 328/328
f 333/333 325/325 324/324
f 329/329 333/333 322/322
f 323/323 333/333 324/324
f 316/316 334/334 317/317
f 317/317 334/334 322/322
f 323/323 334/334 316/316
f 322/322 334/334 323/323
f 320/320 335/335 319/319
f 321/321 335/335 320/320
f 319/319 335/335 325/325
f 325/325 335/335 321/321
f 346/346 350/350 336/336
f 338/338 337/337 350/350
f 336/336 350/350 337/337
f 350/350 347/347 339/339
f 347/347 350/350 346/346
f 340/340 350/350 339/339
f 338/338 350/350 340/340
f 348/348 351/351 341/341
f 341/341 351/351 340/340
f 351/351 349/349 342/342
f 349/349 351/351 348/348
f 338/338 340/340 351/351
f 337/337 351/351 342/342
f 351/351 337/337 338/338
f 343/343 352/352 336/336
f 344/344 352/352 343/343
f 352/352 346/346 336/336
f 339/339 352/352 345/345
f 352/352 347/347 346/346
f 347/347 352/352 339/339
f 344/344 345/345 352/352
f 345/345 353/353 341/341
f 353/353 348/348 341/341
f 342/342 353/353 343/343
f 353/353 349/349 348/348
f 353/353 345/345 344/344
f 349/349 353/353 342/342
f 343/343 353/353 344/344
f 336/336 354/354 337/337
f 337/337 354/354 342/342
f 343/343 354/354 336/336
f 342/342 354/354 343/343
f 340/340 355/355 339/339
f 341/341 355/355 340/340
f 339/339 355/355 345/345
f 345/345 355/355 341/341
f 584/584 582/582 585/585
f 582/582 583/583 585/585
f 586/586 587/587 588/588
f 587/587 589/589 588/588
f 588/588 589/589 590/590
f 589/589 591/591 590/590
f 582/582 590/590 583/583
f 590/590 591/591 583/583
f 583/583 592/592 585/585
f 592/592 593/593 585/585
f 587/587 594/594 589/589
f 594/594 595/595 589/589
f 589/589 595/595 591/591
f 595/595 596/596 591/591
f 591/591 596/596 583/583
f 596/596 592/592 583/583
f 592/592 597/597 593/593
f 597/597 598/598 593/593
f 594/594 599/599 595/595
f 599/599 600/600 595/595
f 595/595 600/600 596/596
f 600/600 601/601 596/596
f 596/596 601/601 592/592
f 601/601 597/597 592/592
f 597/597 602/602 598/598
f 602/602 603/603 598/598
f 600/600 599/599 605/605
f 599/599 604/604 605/605
f 601/601 600/600 606/606
f 600/600 605/605 606/606
f 601/601 606/606 597/597
f 606/606 602/602 597/597
f 584/584 607/607 582/582
f 588/588 607/607 586/586
f 590/590 607/607 588/588
f 582/582 607/607 590/590
f 602/602 608/608 603/603
f 604/604 608/608 605/605
f 605/605 608/608 606/606
f 606/606 608/608 602/602
f 584/584 585/585 609/609
f 609/609 585/585 610/610
f 586/586 611/611 587/587
f 587/587 611/611 612/612
f 611/611 613/613 612/612
f 612/612 613/613 614/614
f 609/609 610/610 613/613
f 613/613 610/610 614/614
f 610/610 585/585 615/615
f 615/615 585/585 593/593
f 587/587 612/612 594/594
f 594/594 612/612 616/616
f 612/612 614/614 616/616
f 616/616 614/614 617/617
f 614/614 610/610 617/617
f 617/617 610/610 615/615
f 615/615 593/593 618/618
f 618/618 593/593 598/598
f 594/594 616/616 599/599
f 599/599 616/616 619/619
f 616/616 617/617 619/619
f 619/619 617/617 620/620
f 617/617 615/615 620/620
f 620/620 615/615 618/618
f 618/618 598/598 621/621
f 621/621 598/598 603/603
f 619/619 622/622 599/599
f 599/599 622/622 604/604
f 620/620 623/623 619/619
f 619/619 623/623 622/622
f 620/620 618/618 623/623
f 623/623 618/618 621/621
f 584/584 609/609 607/607
f 611/611 586/586 607/607
f 613/613 611/611 607/607
f 609/609 613/613 607/607
f 621/621 603/603 608/608
f 604/604 622/622 608/608
f 622/622 623/623 608/608
f 623/623 621/621 608/608
usemtl m1
f 356/356 357/357 358/358
f 358/358 359/359 356/356
f 360/360 361/361 362/362
f 362/362 363/363 360/360
f 364/364 366/366 365/365
f 366/366 364/364 367/367
f 368/368 370/370 369/369
f 370/370 368/368 371/371
f 372/372 373/373 374/374
f 375/375 372/372 374/374
f 376/376 372/372 377/377
f 372/372 375/375 377/377
f 378/378 380/380 379/379
f 381/381 380/380 378/378
f 382/382 383/383 378/378
f 378/378 383/383 381/381
f 384/384 386/386 385/385
f 385/385 387/387 384/384
f 388/388 389/389 390/390
f 390/390 391/391 388/388
f 392/392 393/393 394/394
f 394/394 395/395 392/392
f 396/396 398/398 397/397
f 398/398 396/396 399/399
f 400/400 402/402 401/401
f 402/402 400/400 403/403
f 404/404 405/405 406/406
f 407/407 404/404 406/406
f 408/408 404/404 409/409
f 404/404 407/407 409/409
f 410/410 412/412 411/411
f 413/413 412/412 410/410
f 414/414 415/415 410/410
f 410/410 415/415 413/413
f 416/416 418/418 417/417
f 417/417 419/419 416/416
f 420/420 426/426 424/424
f 426/426 422/422 424/424
f 422/422 425/425 424/424
f 425/425 421/421 424/424
f 421/421 427/427 424/424
f 427/427 423/423 424/424
f 423/423 428/428 424/424
f 428/428 420/420 424/424
f 429/429 426/426 424/424
f 426/426 430/430 424/424
f 430/430 431/431 424/424
f 431/431 432/432 424/424
f 432/432 427/427 424/424
f 427/427 433/433 424/424
f 433/433 434/434 424/424
f 434/434 429/429 424/424
f 435/435 448/448 447/447
f 448/448 436/436 447/447
f 436/436 437/437 447/447
f 437/437 438/438 447/447
f 438/438 449/449 447/447
f 449/449 439/439 447/447
f 439/439 440/440 447/447
f 440/440 435/435 447/447
f 441/441 448/448 447/447
f 448/448 442/442 447/447
f 442/442 443/443 447/447
f 443/443 444/444 447/447
f 444/444 449/449 447/447
f 449/449 445/445 447/447
f 445/445 446/446 447/447
f 446/446 441/441 447/447
f 450/450 463/463 462/462
f 463/463 451/451 462/462
f 451/451 452/452 462/462
f 452/452 453/453 462/462
f 453/453 464/464 462/462
f 464/464 454/454 462/462
f 454/454 455/455 462/462
f 455/455 450/450 462/462
f 456/456 463/463 462/462
f 463/463 457/457 462/462
f 457/457 458/458 462/462
f 458/458 459/459 462/462
f 459/459 464/464 462/462
f 464/464 460/460 462/462
f 460/460 461/461 462/462
f 461/461 456/456 462/462
f 465/465 478/478 477/477
f 478/478 466/466 477/477
f 466/466 467/467 477/477
f 467/467 468/468 477/477
f 468/468 479/479 477/477
f 479/479 469/469 477/477
f 469/469 470/470 477/477
f 470/470 465/465 477/477
f 471/471 478/478 477/477
f 478/478 472/472 477/477
f 472/472 473/473 477/477
f 473/473 474/474 477/477
f 474/474 479/479 477/477
f 479/479 475/475 477/477
f 475/475 476/476 477/477
f 476/476 471/471 477/477
f 480/480 493/493 492/492
f 493/493 481/481 492/492
f 481/481 482/482 492/492
f 482/482 483/483 492/492
f 483/483 494/494 492/492
f 494/494 484/484 492/492
f 484/484 485/485 492/492
f 485/485 480/480 492/492
f 486/486 493/493 492/492
f 493/493 487/487 492/492
f 487/487 488/488 492/492
f 488/488 489/489 492/492
f 489/489 494/494 492/492
f 494/494 490/490 492/492
f 490/490 491/491 492/492
f 491/491 486/486 492/492
f 495/495 508/508 507/507
f 508/508 496/496 507/507
f 496/496 497/497 507/507
f 497/497 498/498 507/507
f 498/498 509/509 507/507
f 509/509 499/499 507/507
f 499/499 500/500 507/507
f 500/500 495/495 507/507
f 501/501 508/508 507/507
f 508/508 502/502 507/507
f 502/502 503/503 507/507
f 503/503 504/504 507/507
f 504/504 509/509 507/507
f 509/509 505/505 507/507
f 505/505 506/506 507/507
f 506/506 501/501 507/507
f 510/510 512/512 511/511
f 512/512 513/513 511/511
f 513/513 514/514 511/511
f 514/514 515/515 511/511
f 515/515 516/516 511/511
f 516/516 517/517 511/511
f 517/517 518/518 511/511
f 518/518 510/510 511/511
f 519/519 512/512 511/511
f 512/512 520/520 511/511
f 520/520 521/521 511/511
f 521/521 522/522 511/511
f 522/522 516/516 511/511
f 516/516 523/523 511/511
f 523/523 524/524 511/511
f 524/524 519/519 511/511
f 525/525 527/527 526/526
f 527/527 528/528 526/526
f 528/528 529/529 526/526
f 529/529 530/530 526/526
f 530/530 531/531 526/526
f 531/531 532/532 526/526
f 532/532 533/533 526/526
f 533/533 525/525 526/526
f 534/534 527/527 526/526
f 527/527 535/535 526/526
f 535/535 536/536 526/526
f 536/536 537/537 526/526
f 537/537 531/531 526/526
f 531/531 538/538 526/526
f 538/538 539/539 526/526
f 539/539 534/534 526/526
f 540/540 542/542 541/541
f 542/542 543/543 541/541
f 544/544 546/546 545/545
f 546/546 547/547 545/545
f 545/545 547/547 548/548
f 547/547 549/549 548/548
f 542/542 548/548 543/543
f 548/548 549/549 543/543
f 543/543 550/550 541/541
f 550/550 551/551 541/541
f 546/546 552/552 547/547
f 552/552 553/553 547/547
f 547/547 553/553 549/549
f 553/553 554/554 549/549
f 549/549 554/554 543/543
f 554/554 550/550 543/543
f 550/550 555/555 551/551
f 555/555 556/556 551/551
f 552/552 557/557 553/553
f 557/557 558/558 553/553
f 553/553 558/558 554/554
f 558/558 559/559 554/554
f 554/554 559/559 550/550
f 559/559 555/555 550/550
f 555/555 560/560 556/556
f 560/560 561/561 556/556
f 558/558 557/557 562/562
f 557/557 563/563 562/562
f 559/559 558/558 564/564
f 558/558 562/562 564/564
f 559/559 564/564 555/555
f 564/564 560/560 555/555
f 540/540 565/565 542/542
f 545/545 565/565 544/544
f 548/548 565/565 545/545
f 542/542 565/565 548/548
f 560/560 566/566 561/561
f 563/563 566/566 562/562
f 562/562 566/566 564/564
f 564/564 566/566 560/560
f 540/540 541/541 567/567
f 567/567 541/541 568/568
f 544/544 569/569 546/546
f 546/546 569/569 570/570
f 569/569 571/571 570/570
f 570/570 571/571 572/572
f 567/567 568/568 571/571
f 571/571 568/568 572/572
f 568/568 541/541 573/573
f 573/573 541/541 551/551
f 546/546 570/570 552/552
f 552/552 570/570 574/574
f 570/570 572/572 574/574
f 574/574 572/572 575/575
f 572/572 568/568 575/575
f 575/575 568/568 573/573
f 573/573 551/551 576/576
f 576/576 551/551 556/556
f 552/552 574/574 557/557
f 557/557 574/574 577/577
f 574/574 575/575 577/577
f 577/577 575/575 578/578
f 575/575 573/573 578/578
f 578/578 573/573 576/576
f 576/576 556/556 579/579
f 579/579 556/556 561/561
f 577/577 580/580 557/557
f 557/557 580/580 563/563
f 578/578 581/581 577/577
f 577/577 581/581 580/580
f 578/578 576/576 581/581
f 581/581 576/576 579/579
f 540/540 567/567 565/565
f 569/569 544/544 565/565
f 571/571 569/569 565/565
f 567/567 571/571 565/565
f 579/579 561/561 566/566
f 563/563 580/580 566/566
f 580/580 581/581 566/566
f 581/581 579/579 566/566
