mtllib options806.mtl
o options806
v 0.08343 -0.26105 3.01754 0.420 0.000 0.000
v 0.12403 -0.20356 3.05593 0.412 0.000 0.000
v 0.03460 -0.18779 3.04265 0.431 0.000 0.000
v 0.08630 -0.14643 3.07012 0.431 0.000 0.000
v 0.00844 -0.23177 2.99056 0.431 0.000 0.000
v -0.03088 -0.26305 2.96921 0.424 0.000 0.000
v 0.14395 -0.13421 3.04861 0.439 0.000 0.000
v 0.12768 -0.20219 2.95216 0.439 0.000 0.000
v 0.15669 -0.15894 3.00035 0.439 0.000 0.000
v 0.02454 -0.26131 2.93677 0.431 0.000 0.000
v 0.07760 -0.24278 2.92126 0.439 0.000 0.000
v -0.37612 -0.34036 2.61229 0.420 0.000 0.000
v -0.30865 -0.35789 2.65190 0.412 0.000 0.000
v -0.35889 -0.28919 2.68621 0.431 0.000 0.000
v -0.29469 -0.31482 2.70520 0.431 0.000 0.000
v -0.40591 -0.26451 2.63612 0.431 0.000 0.000
v -0.45459 -0.24462 2.62139 0.424 0.000 0.000
v -0.24473 -0.32873 2.66989 0.439 0.000 0.000
v -0.29980 -0.29484 2.56988 0.439 0.000 0.000
v -0.25110 -0.31912 2.61542 0.439 0.000 0.000
v -0.41312 -0.25592 2.57366 0.431 0.000 0.000
v -0.36214 -0.26761 2.54790 0.439 0.000 0.000
v -0.12686 -0.38090 2.80852 0.420 0.000 0.000
v -0.06532 -0.35811 2.85457 0.412 0.000 0.000
v -0.14183 -0.30794 2.86175 0.431 0.000 0.000
v -0.07690 -0.29954 2.89096 0.431 0.000 0.000
v -0.18538 -0.31952 2.80433 0.431 0.000 0.000
v -0.23472 -0.32562 2.78174 0.424 0.000 0.000
v -0.02007 -0.30231 2.86452 0.439 0.000 0.000
v -0.06589 -0.32357 2.75665 0.439 0.000 0.000
v -0.02017 -0.31232 2.80973 0.439 0.000 0.000
v -0.18452 -0.33309 2.74234 0.431 0.000 0.000
v -0.12918 -0.33071 2.72417 0.439 0.000 0.000
v -0.59755 -0.15030 2.48143 0.420 0.000 0.000
v -0.54077 -0.20295 2.50223 0.412 0.000 0.000
v -0.55842 -0.13653 2.56304 0.431 0.000 0.000
v -0.50872 -0.18819 2.56261 0.431 0.000 0.000
v -0.59406 -0.08147 2.53100 0.431 0.000 0.000
v -0.63159 -0.04180 2.53116 0.424 0.000 0.000
v -0.46982 -0.20641 2.51687 0.439 0.000 0.000
v -0.51138 -0.12373 2.44188 0.439 0.000 0.000
v -0.47424 -0.17755 2.46946 0.439 0.000 0.000
v -0.59999 -0.05054 2.47592 0.431 0.000 0.000
v -0.55887 -0.07034 2.43965 0.439 0.000 0.000
v -0.74295 0.44825 2.52916 0.420 0.000 0.000
v -0.74224 0.37467 2.49734 0.412 0.000 0.000
v -0.71005 0.38191 2.58298 0.431 0.000 0.000
v -0.71247 0.32616 2.53796 0.431 0.000 0.000
v -0.69374 0.45139 2.59830 0.431 0.000 0.000
v -0.69143 0.49394 2.63245 0.424 0.000 0.000
v -0.69611 0.32234 2.47752 0.439 0.000 0.000
v -0.66193 0.43639 2.47448 0.439 0.000 0.000
v -0.67606 0.36945 2.45563 0.439 0.000 0.000
v -0.67287 0.50524 2.57200 0.431 0.000 0.000
v -0.65659 0.49342 2.51728 0.439 0.000 0.000
v -0.73182 0.13835 2.45101 0.420 0.000 0.000
v -0.69947 0.06518 2.44566 0.412 0.000 0.000
v -0.68695 0.10910 2.52526 0.431 0.000 0.000
v -0.66164 0.04642 2.50139 0.431 0.000 0.000
v -0.69941 0.18058 2.51716 0.431 0.000 0.000
v -0.71828 0.22855 2.53521 0.424 0.000 0.000
v -0.63504 0.03190 2.44645 0.439 0.000 0.000
v -0.64393 0.14391 2.40696 0.439 0.000 0.000
v -0.62978 0.07450 2.41097 0.439 0.000 0.000
v -0.69507 0.22808 2.47531 0.431 0.000 0.000
v -0.66664 0.20821 2.42845 0.439 0.000 0.000
v -0.62796 0.69638 2.69498 0.420 0.000 0.000
v -0.65761 0.64258 2.64344 0.412 0.000 0.000
v -0.62152 0.60876 2.72074 0.431 0.000 0.000
v -0.64760 0.57607 2.66252 0.431 0.000 0.000
v -0.57856 0.65842 2.75267 0.431 0.000 0.000
v -0.55824 0.68328 2.79684 0.424 0.000 0.000
v -0.63668 0.58707 2.60174 0.439 0.000 0.000
v -0.56057 0.67532 2.62634 0.439 0.000 0.000
v -0.60067 0.62831 2.59148 0.439 0.000 0.000
v -0.53936 0.70670 2.74007 0.431 0.000 0.000
v -0.53140 0.70884 2.68236 0.439 0.000 0.000
v -0.16841 0.77569 3.10021 0.420 0.000 0.000
v -0.22493 0.79691 3.04747 0.412 0.000 0.000
v -0.22803 0.71015 3.07717 0.431 0.000 0.000
v -0.26661 0.74446 3.02746 0.431 0.000 0.000
v -0.16421 0.69116 3.10711 0.431 0.000 0.000
v -0.13453 0.66485 3.14464 0.424 0.000 0.000
v -0.24800 0.78161 2.98044 0.439 0.000 0.000
v -0.13308 0.76797 3.00863 0.439 0.000 0.000
v -0.19288 0.78849 2.97641 0.439 0.000 0.000
v -0.10169 0.70132 3.10318 0.431 0.000 0.000
v -0.09166 0.73364 3.05572 0.439 0.000 0.000
v -0.41766 0.81623 2.90399 0.420 0.000 0.000
v -0.46826 0.79715 2.84479 0.412 0.000 0.000
v -0.44509 0.72891 2.90164 0.431 0.000 0.000
v -0.48440 0.72918 2.84168 0.431 0.000 0.000
v -0.38474 0.74617 2.93890 0.431 0.000 0.000
v -0.35440 0.74583 2.98431 0.424 0.000 0.000
v -0.47265 0.75517 2.78581 0.439 0.000 0.000
v -0.36700 0.79670 2.82186 0.439 0.000 0.000
v -0.42382 0.78169 2.78210 0.439 0.000 0.000
v -0.33029 0.77846 2.93450 0.431 0.000 0.000
v -0.32463 0.79677 2.87944 0.439 0.000 0.000
v 0.05302 0.58563 3.23107 0.420 0.000 0.000
v 0.00719 0.64199 3.19714 0.412 0.000 0.000
v -0.02850 0.55750 3.20035 0.431 0.000 0.000
v -0.05258 0.61783 3.17003 0.431 0.000 0.000
v 0.02394 0.50812 3.21223 0.431 0.000 0.000
v 0.04246 0.46201 3.23487 0.424 0.000 0.000
v -0.02290 0.65929 3.13346 0.439 0.000 0.000
v 0.07849 0.59686 3.13663 0.439 0.000 0.000
v 0.03025 0.64692 3.12237 0.439 0.000 0.000
v 0.08518 0.49592 3.20092 0.431 0.000 0.000
v 0.10506 0.53638 3.16397 0.439 0.000 0.000
v 0.19842 -0.01294 3.18334 0.420 0.000 0.000
v 0.20866 0.06435 3.20202 0.412 0.000 0.000
v 0.12313 0.03906 3.18040 0.431 0.000 0.000
v 0.15117 0.10348 3.19468 0.431 0.000 0.000
v 0.12362 -0.02473 3.14492 0.431 0.000 0.000
v 0.10230 -0.07371 3.13358 0.424 0.000 0.000
v 0.20339 0.13054 3.17281 0.439 0.000 0.000
v 0.22904 0.03674 3.10403 0.439 0.000 0.000
v 0.23208 0.09992 3.13619 0.439 0.000 0.000
v 0.15806 -0.05985 3.10484 0.431 0.000 0.000
v 0.20278 -0.02736 3.08633 0.439 0.000 0.000
v 0.18729 0.29698 3.26149 0.420 0.000 0.000
v 0.16589 0.37384 3.25372 0.412 0.000 0.000
v 0.10003 0.31187 3.23813 0.431 0.000 0.000
v 0.10034 0.38322 3.23125 0.431 0.000 0.000
v 0.12929 0.24608 3.22607 0.431 0.000 0.000
v 0.12915 0.19168 3.23082 0.424 0.000 0.000
v 0.14232 0.42097 3.20387 0.439 0.000 0.000
v 0.21104 0.32922 3.17155 0.439 0.000 0.000
v 0.18580 0.39488 3.18085 0.439 0.000 0.000
v 0.18026 0.21731 3.20153 0.431 0.000 0.000
v 0.21284 0.25783 3.17516 0.439 0.000 0.000
v 0.19729 -0.08698 3.04463 0.894 0.000 0.000
v 0.09734 -0.09605 3.12440 0.855 0.000 0.000
v 0.13126 -0.19399 2.95943 0.894 0.000 0.000
v -0.04461 -0.27769 2.95488 0.855 0.000 0.000
v 0.04732 -0.27887 2.86555 0.894 0.000 0.000
v -0.05906 -0.32011 2.76529 0.894 0.000 0.000
v -0.25370 -0.32868 2.76631 0.855 0.000 0.000
v -0.17357 -0.33275 2.66632 0.894 0.000 0.000
v -0.29180 -0.29716 2.57785 0.894 0.000 0.000
v -0.47389 -0.23537 2.60919 0.855 0.000 0.000
v -0.40620 -0.23416 2.50033 0.894 0.000 0.000
v -0.00220 -0.07051 3.14779 0.773 0.000 0.000
v -0.12499 -0.22761 3.00116 0.773 0.000 0.000
v -0.19977 -0.10544 3.02954 0.871 0.000 0.000
v -0.32509 -0.06775 2.99200 0.875 0.000 0.000
v -0.30585 -0.27173 2.83804 0.773 0.000 0.000
v -0.47383 -0.02131 2.88119 0.875 0.000 0.000
v -0.49631 -0.19100 2.70212 0.773 0.000 0.000
v -0.57401 0.02237 2.75382 0.871 0.000 0.000
v -0.58006 0.13100 2.83565 0.875 0.000 0.000
v -0.46651 0.06133 3.03561 0.875 0.000 0.000
v -0.51653 0.11443 3.00892 0.875 0.000 0.000
v -0.54758 0.12443 3.18672 0.675 0.000 0.000
v -0.51653 0.11443 3.00892 0.875 0.000 0.000
v -0.53264 0.19003 3.01684 0.875 0.000 0.000
v -0.54758 0.12443 3.18672 0.675 0.000 0.000
v -0.49841 0.24428 3.06065 0.875 0.000 0.000
v -0.53264 0.19003 3.01684 0.875 0.000 0.000
v -0.56867 0.31201 2.89620 0.875 0.000 0.000
v -0.58006 0.13100 2.83565 0.875 0.000 0.000
v -0.71302 0.23076 2.64056 0.773 0.000 0.000
v -0.64535 -0.00707 2.62985 0.773 0.000 0.000
v -0.57401 0.02237 2.75382 0.871 0.000 0.000
v -0.49631 -0.19100 2.70212 0.773 0.000 0.000
v -0.64619 -0.02273 2.52563 0.855 0.000 0.000
v -0.47389 -0.23537 2.60919 0.855 0.000 0.000
v -0.50459 -0.13127 2.44737 0.894 0.000 0.000
v -0.40620 -0.23416 2.50033 0.894 0.000 0.000
v -0.58823 -0.00952 2.41204 0.894 0.000 0.000
v -0.64043 0.13307 2.40880 0.894 0.000 0.000
v -0.72443 0.25223 2.53802 0.855 0.000 0.000
v -0.67088 0.28096 2.42514 0.894 0.000 0.000
v -0.66290 0.42507 2.47244 0.894 0.000 0.000
v -0.68764 0.51586 2.64305 0.855 0.000 0.000
v -0.63202 0.55948 2.53609 0.894 0.000 0.000
v -0.68120 0.45878 2.73141 0.773 0.000 0.000
v -0.53645 0.47585 2.91305 0.871 0.000 0.000
v -0.46395 0.42026 3.01399 0.875 0.000 0.000
v -0.49841 0.24428 3.06065 0.875 0.000 0.000
v -0.43998 0.25142 3.11135 0.875 0.000 0.000
v -0.37385 0.12272 3.13013 0.875 0.000 0.000
v -0.38996 0.19832 3.13805 0.875 0.000 0.000
v -0.20897 0.22151 3.17034 0.875 0.000 0.000
v -0.31521 0.37382 3.12480 0.875 0.000 0.000
v -0.16221 0.34803 3.18877 0.871 0.000 0.000
v -0.18709 0.57929 3.17707 0.773 0.000 0.000
v -0.37756 0.66002 3.04117 0.773 0.000 0.000
v -0.46395 0.42026 3.01399 0.875 0.000 0.000
v -0.55841 0.61591 2.87804 0.773 0.000 0.000
v -0.53645 0.47585 2.91305 0.871 0.000 0.000
v -0.68120 0.45878 2.73141 0.773 0.000 0.000
v -0.54569 0.69750 2.81255 0.855 0.000 0.000
v -0.68764 0.51586 2.64305 0.855 0.000 0.000
v -0.56599 0.66649 2.62129 0.894 0.000 0.000
v -0.63202 0.55948 2.53609 0.894 0.000 0.000
v -0.48205 0.75137 2.71517 0.894 0.000 0.000
v -0.37567 0.79261 2.81543 0.894 0.000 0.000
v -0.33660 0.74849 3.00114 0.855 0.000 0.000
v -0.26116 0.80525 2.91442 0.894 0.000 0.000
v -0.14293 0.76966 3.00287 0.894 0.000 0.000
v -0.11641 0.65518 3.15826 0.855 0.000 0.000
v -0.02853 0.70666 3.08039 0.894 0.000 0.000
v -0.43998 0.25142 3.11135 0.875 0.000 0.000
v -0.38996 0.19832 3.13805 0.875 0.000 0.000
v -0.40808 0.06847 3.08632 0.875 0.000 0.000
v -0.37385 0.12272 3.13013 0.875 0.000 0.000
v -0.22037 0.04052 3.10979 0.875 0.000 0.000
v -0.20897 0.22151 3.17034 0.875 0.000 0.000
v 0.02962 0.15754 3.23863 0.773 0.000 0.000
v -0.03806 0.39537 3.24934 0.773 0.000 0.000
v -0.16221 0.34803 3.18877 0.871 0.000 0.000
v -0.18709 0.57929 3.17707 0.773 0.000 0.000
v 0.05589 0.44255 3.24182 0.855 0.000 0.000
v -0.11641 0.65518 3.15826 0.855 0.000 0.000
v 0.06986 0.60379 3.13335 0.894 0.000 0.000
v -0.02853 0.70666 3.08039 0.894 0.000 0.000
v 0.15349 0.48202 3.16868 0.894 0.000 0.000
v 0.20569 0.33943 3.17194 0.894 0.000 0.000
v 0.13413 0.16758 3.22943 0.855 0.000 0.000
v 0.23615 0.19154 3.15558 0.894 0.000 0.000
v 0.22817 0.04743 3.10828 0.894 0.000 0.000
v 0.09734 -0.09605 3.12440 0.855 0.000 0.000
v 0.19729 -0.08698 3.04463 0.894 0.000 0.000
v -0.00220 -0.07051 3.14779 0.773 0.000 0.000
v -0.19977 -0.10544 3.02954 0.871 0.000 0.000
v -0.32509 -0.06775 2.99200 0.875 0.000 0.000
v -0.40808 0.06847 3.08632 0.875 0.000 0.000
v -0.46651 0.06133 3.03561 0.875 0.000 0.000
v -0.67977 0.59087 2.44553 0.655 0.000 0.000
v -0.63202 0.55948 2.53609 0.894 0.000 0.000
v -0.65705 0.64746 2.48042 0.671 0.000 0.000
v -0.60405 0.66127 2.46782 0.859 0.000 0.000
v -0.58070 0.69795 2.50504 0.859 0.000 0.000
v -0.56599 0.66649 2.62129 0.894 0.000 0.000
v -0.60707 0.71129 2.53921 0.671 0.000 0.000
v -0.56445 0.76585 2.59011 0.663 0.000 0.000
v -0.52285 0.77251 2.57429 0.859 0.000 0.000
v -0.56445 0.76585 2.59011 0.663 0.000 0.000
v -0.48205 0.75137 2.71517 0.894 0.000 0.000
v -0.49292 0.80543 2.60107 0.859 0.000 0.000
v -0.52176 0.82310 2.64182 0.671 0.000 0.000
v -0.50042 0.85057 2.68360 0.663 0.000 0.000
v -0.44230 0.86630 2.66546 0.859 0.000 0.000
v -0.38830 0.86922 2.70623 0.859 0.000 0.000
v -0.37567 0.79261 2.81543 0.894 0.000 0.000
v -0.39983 0.87156 2.75708 0.671 0.000 0.000
v -0.33587 0.88366 2.81380 0.663 0.000 0.000
v -0.29665 0.88709 2.79506 0.859 0.000 0.000
v -0.33587 0.88366 2.81380 0.671 0.000 0.000
v -0.26116 0.80525 2.91442 0.894 0.000 0.000
v -0.25798 0.89617 2.82240 0.859 0.000 0.000
v -0.26799 0.90115 2.87330 0.671 0.000 0.000
v -0.23703 0.89977 2.91692 0.663 0.000 0.000
v -0.18274 0.90085 2.89384 0.859 0.000 0.000
v -0.13475 0.88213 2.92111 0.859 0.000 0.000
v -0.14293 0.76966 3.00287 0.894 0.000 0.000
v -0.13457 0.88045 2.98060 0.655 0.000 0.000
v -0.07002 0.84272 3.02371 0.671 0.000 0.000
v -0.13457 0.88045 2.98060 0.655 0.000 0.000
v -0.03514 0.83030 2.99691 0.859 0.000 0.000
v -0.02853 0.70666 3.08039 0.894 0.000 0.000
v 0.00412 0.80548 3.01518 0.859 0.000 0.000
v 0.00250 0.80953 3.07478 0.671 0.000 0.000
v 0.05553 0.76819 3.10730 0.655 0.000 0.000
v 0.05553 0.76819 3.10730 0.655 0.000 0.000
v 0.08918 0.73917 3.06734 0.859 0.000 0.000
v 0.12032 0.70913 3.09224 0.859 0.000 0.000
v 0.06986 0.60379 3.13335 0.894 0.000 0.000
v 0.11378 0.69944 3.13643 0.671 0.000 0.000
v 0.17064 0.64255 3.16775 0.663 0.000 0.000
v 0.20873 0.61438 3.13173 0.859 0.000 0.000
v 0.17064 0.64255 3.16775 0.671 0.000 0.000
v 0.15349 0.48202 3.16868 0.894 0.000 0.000
v 0.24070 0.57076 3.15349 0.859 0.000 0.000
v 0.22603 0.53881 3.20087 0.663 0.000 0.000
v 0.25433 0.49399 3.19360 0.671 0.000 0.000
v 0.28180 0.47540 3.15340 0.859 0.000 0.000
v 0.29190 0.42831 3.15596 0.859 0.000 0.000
v 0.20569 0.33943 3.17194 0.894 0.000 0.000
v 0.27794 0.40518 3.19018 0.671 0.000 0.000
v 0.30403 0.32290 3.18870 0.655 0.000 0.000
v 0.33353 0.30656 3.14887 0.859 0.000 0.000
v 0.30403 0.32290 3.18870 0.655 0.000 0.000
v 0.23615 0.19154 3.15558 0.894 0.000 0.000
v 0.35689 0.24334 3.15553 0.859 0.000 0.000
v 0.33378 0.20030 3.19514 0.663 0.000 0.000
v 0.33820 0.15275 3.16915 0.671 0.000 0.000
v 0.34927 0.14895 3.11751 0.859 0.000 0.000
v 0.34021 0.09976 3.10351 0.859 0.000 0.000
v 0.22817 0.04743 3.10828 0.894 0.000 0.000
v 0.32552 0.07211 3.13585 0.671 0.000 0.000
v 0.31447 -0.00706 3.10432 0.663 0.000 0.000
v 0.32489 -0.00796 3.06036 0.859 0.000 0.000
v 0.31447 -0.00706 3.10432 0.671 0.000 0.000
v 0.19729 -0.08698 3.04463 0.894 0.000 0.000
v 0.31927 -0.05848 3.03399 0.859 0.000 0.000
v 0.30106 -0.09940 3.06796 0.671 0.000 0.000
v 0.27834 -0.15599 3.03305 0.663 0.000 0.000
v 0.28233 -0.15048 2.97727 0.859 0.000 0.000
v 0.27834 -0.15599 3.03305 0.671 0.000 0.000
v 0.25200 -0.18954 2.94840 0.859 0.000 0.000
v 0.13126 -0.19399 2.95943 0.894 0.000 0.000
v 0.22918 -0.21955 2.97329 0.671 0.000 0.000
v 0.18655 -0.27409 2.92239 0.671 0.000 0.000
v 0.22918 -0.21955 2.97329 0.663 0.000 0.000
v 0.19415 -0.26410 2.87917 0.859 0.000 0.000
v 0.04732 -0.27887 2.86555 0.894 0.000 0.000
v 0.17120 -0.29466 2.84400 0.859 0.000 0.000
v 0.14386 -0.33134 2.87068 0.671 0.000 0.000
v 0.10726 -0.36400 2.84720 0.663 0.000 0.000
v 0.11585 -0.35714 2.78530 0.859 0.000 0.000
v 0.06658 -0.35845 2.73884 0.859 0.000 0.000
v -0.05906 -0.32011 2.76529 0.894 0.000 0.000
v 0.02194 -0.37982 2.75542 0.655 0.000 0.000
v -0.04203 -0.39191 2.69872 0.671 0.000 0.000
v 0.02194 -0.37982 2.75542 0.655 0.000 0.000
v -0.03205 -0.37868 2.65838 0.859 0.000 0.000
v -0.17357 -0.33275 2.66632 0.894 0.000 0.000
v -0.06374 -0.38538 2.62267 0.859 0.000 0.000
v -0.10806 -0.40878 2.63698 0.671 0.000 0.000
v -0.15613 -0.41319 2.61389 0.663 0.000 0.000
v -0.14595 -0.39244 2.55962 0.859 0.000 0.000
v -0.18697 -0.37136 2.52396 0.859 0.000 0.000
v -0.29180 -0.29716 2.57785 0.894 0.000 0.000
v -0.24333 -0.38871 2.53192 0.671 0.000 0.000
v -0.30787 -0.35096 2.48879 0.671 0.000 0.000
v -0.24333 -0.38871 2.53192 0.663 0.000 0.000
v -0.29355 -0.32189 2.45653 0.859 0.000 0.000
v -0.40620 -0.23416 2.50033 0.894 0.000 0.000
v -0.32584 -0.29471 2.42989 0.859 0.000 0.000
v -0.38040 -0.31777 2.43772 0.655 0.000 0.000
v -0.38040 -0.31777 2.43772 0.655 0.000 0.000
v -0.43343 -0.27644 2.40520 0.671 0.000 0.000
v -0.41090 -0.22840 2.37773 0.859 0.000 0.000
v -0.44902 -0.20072 2.36120 0.859 0.000 0.000
v -0.50459 -0.13127 2.44737 0.894 0.000 0.000
v -0.49168 -0.20768 2.37607 0.671 0.000 0.000
v -0.54854 -0.15080 2.34475 0.655 0.000 0.000
v -0.53045 -0.10361 2.31334 0.859 0.000 0.000
v -0.54854 -0.15080 2.34475 0.655 0.000 0.000
v -0.58823 -0.00952 2.41204 0.894 0.000 0.000
v -0.56940 -0.06235 2.29995 0.859 0.000 0.000
v -0.61919 -0.05224 2.32994 0.663 0.000 0.000
v -0.63038 -0.00162 2.31669 0.671 0.000 0.000
v -0.60352 0.03537 2.29167 0.859 0.000 0.000
v -0.62059 0.08010 2.29748 0.859 0.000 0.000
v -0.64043 0.13307 2.40880 0.894 0.000 0.000
v -0.65584 0.08656 2.32232 0.671 0.000 0.000
v -0.65525 0.20423 2.29621 0.859 0.000 0.000
v -0.68192 0.16884 2.32380 0.671 0.000 0.000
v -0.67088 0.28096 2.42514 0.894 0.000 0.000
v -0.68334 0.26584 2.29523 0.859 0.000 0.000
v -0.72694 0.28627 2.33568 0.663 0.000 0.000
v -0.71609 0.33899 2.34335 0.671 0.000 0.000
v -0.67099 0.36184 2.32756 0.859 0.000 0.000
v -0.66891 0.40865 2.34994 0.859 0.000 0.000
v -0.66290 0.42507 2.47244 0.894 0.000 0.000
v -0.70342 0.41963 2.37665 0.663 0.000 0.000
v -0.65584 0.08656 2.32232 0.663 0.000 0.000
v -0.65359 0.51637 2.39308 0.859 0.000 0.000
v -0.69237 0.49882 2.40820 0.671 0.000 0.000
v -0.64099 0.56925 2.41108 0.859 0.000 0.000
v -0.67977 0.59087 2.44553 0.655 0.000 0.000
v -0.70342 0.41963 2.37665 0.663 0.000 0.000
v -0.48707 0.13507 3.10158 0.000 0.000 0.000
v -0.49225 0.15579 3.10306 0.000 0.000 0.000
v 0.24854 0.38419 2.21863 0.000 0.000 0.000
v 0.24265 0.40306 2.21891 0.000 0.000 0.000
v 0.25803 0.40777 2.23313 0.000 0.000 0.000
v -0.47755 0.15867 3.11605 0.000 0.000 0.000
v -0.47166 0.13973 3.11567 0.000 0.000 0.000
v 0.26324 0.38700 2.23155 0.000 0.000 0.000
v 0.19729 -0.08698 3.04463 0.000 0.894 0.000
v 0.13126 -0.19399 2.95943 0.000 0.894 0.000
v -0.48743 0.14479 3.11450 0.000 1.000 0.000
v 0.04732 -0.27887 2.86555 0.000 0.894 0.000
v -0.05906 -0.32011 2.76529 0.000 0.894 0.000
v -0.17357 -0.33275 2.66632 0.000 0.894 0.000
v -0.29180 -0.29716 2.57785 0.000 0.894 0.000
v -0.40620 -0.23416 2.50033 0.000 0.894 0.000
v -0.50459 -0.13127 2.44737 0.000 0.894 0.000
v -0.58823 -0.00952 2.41204 0.000 0.894 0.000
v -0.64043 0.13307 2.40880 0.000 0.894 0.000
v -0.67088 0.28096 2.42514 0.000 0.894 0.000
v -0.66290 0.42507 2.47244 0.000 0.894 0.000
v -0.63202 0.55948 2.53609 0.000 0.894 0.000
v -0.56599 0.66649 2.62129 0.000 0.894 0.000
v -0.48205 0.75137 2.71517 0.000 0.894 0.000
v -0.37567 0.79261 2.81543 0.000 0.894 0.000
v -0.26116 0.80525 2.91442 0.000 0.894 0.000
v -0.14293 0.76966 3.00287 0.000 0.894 0.000
v -0.02853 0.70666 3.08039 0.000 0.894 0.000
v 0.06986 0.60379 3.13335 0.000 0.894 0.000
v 0.15349 0.48202 3.16868 0.000 0.894 0.000
v 0.20569 0.33943 3.17194 0.000 0.894 0.000
v 0.23615 0.19154 3.15558 0.000 0.894 0.000
v 0.22817 0.04743 3.10828 0.000 0.894 0.000
v -0.66449 0.62060 2.38394 0.000 0.671 0.000
v -0.60768 0.58901 2.47234 0.000 0.906 0.000
v -0.64068 0.67993 2.42051 0.000 0.671 0.000
v -0.58350 0.69844 2.40979 0.000 0.859 0.000
v -0.56504 0.72745 2.44114 0.000 0.859 0.000
v -0.54394 0.70657 2.55987 0.000 0.906 0.000
v -0.58362 0.74840 2.47651 0.000 0.671 0.000
v -0.53894 0.80557 2.52986 0.000 0.671 0.000
v -0.63202 0.55948 2.53609 0.000 0.894 0.000
v -0.56599 0.66649 2.62129 0.000 0.894 0.000
v -0.48205 0.75137 2.71517 0.000 0.894 0.000
v -0.45082 0.78973 2.65964 0.000 0.906 0.000
v -0.49802 0.81320 2.52117 0.000 0.859 0.000
v -0.53894 0.80557 2.52986 0.000 0.671 0.000
v -0.46866 0.84550 2.54696 0.000 0.859 0.000
v -0.49421 0.86558 2.58406 0.000 0.671 0.000
v -0.47446 0.89348 2.63101 0.000 0.671 0.000
v -0.41560 0.90929 2.61445 0.000 0.859 0.000
v -0.36255 0.90580 2.65237 0.000 0.859 0.000
v -0.34229 0.84020 2.76556 0.000 0.906 0.000
v -0.36642 0.91638 2.70486 0.000 0.671 0.000
v -0.29938 0.92905 2.76428 0.000 0.671 0.000
v -0.37567 0.79261 2.81543 0.000 0.894 0.000
v -0.26116 0.80525 2.91442 0.000 0.894 0.000
v -0.21979 0.84607 2.86803 0.000 0.906 0.000
v -0.25986 0.92970 2.75245 0.000 0.859 0.000
v -0.29938 0.92905 2.76428 0.000 0.671 0.000
v -0.22243 0.94057 2.77893 0.000 0.859 0.000
v -0.23292 0.94579 2.83228 0.000 0.671 0.000
v -0.19842 0.94505 2.87554 0.000 0.671 0.000
v -0.14358 0.94549 2.85379 0.000 0.859 0.000
v -0.09328 0.92587 2.88238 0.000 0.859 0.000
v -0.09571 0.81589 2.96413 0.000 0.906 0.000
v -0.08841 0.92570 2.93911 0.000 0.671 0.000
v -0.14293 0.76966 3.00287 0.000 0.894 0.000
v -0.02853 0.70666 3.08039 0.000 0.894 0.000
v 0.02352 0.74295 3.04164 0.000 0.906 0.000
v 0.01462 0.86882 2.96397 0.000 0.859 0.000
v -0.02076 0.88614 2.98431 0.000 0.671 0.000
v -0.08841 0.92570 2.93911 0.000 0.671 0.000
v 0.05227 0.84553 2.98098 0.000 0.859 0.000
v 0.05525 0.85136 3.03782 0.000 0.671 0.000
v 0.11083 0.80804 3.07190 0.000 0.671 0.000
v 0.12974 0.64013 3.10239 0.000 0.906 0.000
v 0.17055 0.74729 3.05959 0.000 0.859 0.000
v 0.17188 0.73598 3.10243 0.000 0.671 0.000
v 0.23147 0.67635 3.13526 0.000 0.671 0.000
v 0.14141 0.77605 3.03565 0.000 0.859 0.000
v 0.11083 0.80804 3.07190 0.000 0.671 0.000
v 0.06986 0.60379 3.13335 0.000 0.894 0.000
v 0.15349 0.48202 3.16868 0.000 0.894 0.000
v 0.21391 0.50800 3.13398 0.000 0.906 0.000
v 0.27365 0.36005 3.14327 0.000 0.906 0.000
v 0.35142 0.45320 3.12730 0.000 0.859 0.000
v 0.34393 0.42759 3.15877 0.000 0.671 0.000
v 0.37126 0.34135 3.15720 0.000 0.671 0.000
v 0.34329 0.49959 3.12583 0.000 0.859 0.000
v 0.31450 0.51908 3.16796 0.000 0.671 0.000
v 0.28689 0.56675 3.17313 0.000 0.671 0.000
v 0.20569 0.33943 3.17194 0.000 0.894 0.000
v 0.23615 0.19154 3.15558 0.000 0.894 0.000
v 0.30036 0.20417 3.12028 0.000 0.906 0.000
v 0.29746 0.05069 3.07582 0.000 0.906 0.000
v 0.40482 0.10942 3.07480 0.000 0.859 0.000
v 0.39379 0.07850 3.10181 0.000 0.671 0.000
v 0.41400 0.15745 3.08822 0.000 0.859 0.000
v 0.40707 0.16303 3.13673 0.000 0.671 0.000
v 0.39982 0.21197 3.16712 0.000 0.671 0.000
v 0.22817 0.04743 3.10828 0.000 0.894 0.000
v 0.19729 -0.08698 3.04463 0.000 0.894 0.000
v 0.25972 -0.08712 3.00424 0.000 0.906 0.000
v 0.38745 -0.01503 3.02522 0.000 0.859 0.000
v 0.38221 -0.00446 3.06877 0.000 0.671 0.000
v 0.38419 -0.05589 3.00319 0.000 0.859 0.000
v 0.36348 -0.10282 3.03628 0.000 0.671 0.000
v 0.33967 -0.16214 2.99970 0.000 0.671 0.000
v 0.39379 0.07850 3.10181 0.000 0.671 0.000
v 0.42199 0.25637 3.12806 0.000 0.859 0.000
v 0.39536 0.31500 3.11713 0.000 0.859 0.000
v 0.37126 0.34135 3.15720 0.000 0.671 0.000
v 0.19479 -0.20507 2.91812 0.000 0.906 0.000
v 0.31645 -0.19192 2.91616 0.000 0.859 0.000
v 0.29282 -0.22716 2.93146 0.000 0.671 0.000
v 0.34222 -0.16042 2.93873 0.000 0.859 0.000
v 0.33967 -0.16214 2.99970 0.000 0.671 0.000
v 0.24814 -0.28433 2.87811 0.000 0.671 0.000
v 0.24943 -0.27767 2.83613 0.000 0.859 0.000
v 0.24814 -0.28433 2.87811 0.000 0.671 0.000
v 0.10286 -0.28784 2.81693 0.000 0.906 0.000
v 0.22737 -0.30748 2.80156 0.000 0.859 0.000
v 0.20341 -0.34434 2.82391 0.000 0.671 0.000
v 0.16241 -0.37944 2.80247 0.000 0.671 0.000
v 0.04732 -0.27887 2.86555 0.000 0.894 0.000
v 0.13126 -0.19399 2.95943 0.000 0.894 0.000
v 0.16936 -0.37294 2.74003 0.000 0.859 0.000
v 0.12127 -0.36779 2.69615 0.000 0.859 0.000
v -0.00685 -0.33871 2.71242 0.000 0.906 0.000
v 0.07562 -0.39514 2.70311 0.000 0.671 0.000
v -0.05906 -0.32011 2.76529 0.000 0.894 0.000
v -0.17357 -0.33275 2.66632 0.000 0.894 0.000
v -0.12818 -0.34420 2.60854 0.000 0.906 0.000
v 0.01127 -0.39416 2.60485 0.000 0.859 0.000
v 0.00858 -0.40781 2.64368 0.000 0.671 0.000
v 0.07562 -0.39514 2.70311 0.000 0.671 0.000
v -0.01885 -0.40255 2.56959 0.000 0.859 0.000
v -0.06531 -0.42707 2.58458 0.000 0.671 0.000
v -0.11363 -0.43101 2.55794 0.000 0.671 0.000
v -0.10502 -0.40995 2.50351 0.000 0.859 0.000
v -0.14800 -0.38785 2.46614 0.000 0.859 0.000
v -0.25343 -0.31439 2.51384 0.000 0.906 0.000
v -0.20239 -0.40446 2.46886 0.000 0.671 0.000
v -0.29180 -0.29716 2.57785 0.000 0.894 0.000
v -0.40620 -0.23416 2.50033 0.000 0.894 0.000
v -0.37149 -0.24107 2.43493 0.000 0.906 0.000
v -0.47888 -0.13865 2.37560 0.000 0.906 0.000
v -0.41914 -0.21175 2.29772 0.000 0.859 0.000
v -0.46268 -0.21474 2.30553 0.000 0.671 0.000
v -0.52227 -0.15511 2.27270 0.000 0.671 0.000
v -0.38270 -0.23803 2.31287 0.000 0.859 0.000
v -0.40163 -0.28679 2.33606 0.000 0.671 0.000
v -0.34605 -0.33012 2.37015 0.000 0.671 0.000
v -0.50459 -0.13127 2.44737 0.000 0.894 0.000
v -0.58823 -0.00952 2.41204 0.000 0.894 0.000
v -0.56187 -0.00612 2.34259 0.000 0.906 0.000
v -0.62280 0.14143 2.33473 0.000 0.906 0.000
v -0.60001 0.08233 2.23000 0.000 0.859 0.000
v -0.63473 0.09365 2.24921 0.000 0.671 0.000
v -0.58457 0.03843 2.22269 0.000 0.859 0.000
v -0.61272 -0.00036 2.24890 0.000 0.671 0.000
v -0.59894 -0.05270 2.26035 0.000 0.671 0.000
v -0.64043 0.13307 2.40880 0.000 0.894 0.000
v -0.67088 0.28096 2.42514 0.000 0.894 0.000
v -0.64833 0.29772 2.35629 0.000 0.906 0.000
v -0.64661 0.45079 2.40217 0.000 0.906 0.000
v -0.65341 0.42611 2.28251 0.000 0.859 0.000
v -0.68459 0.44275 2.30614 0.000 0.671 0.000
v -0.65529 0.38057 2.26031 0.000 0.859 0.000
v -0.69788 0.35822 2.27122 0.000 0.671 0.000
v -0.71187 0.30208 2.26634 0.000 0.671 0.000
v -0.66290 0.42507 2.47244 0.000 0.894 0.000
v -0.63605 0.55057 2.33208 0.000 0.859 0.000
v -0.67302 0.52571 2.33919 0.000 0.671 0.000
v -0.62547 0.59389 2.34533 0.000 0.859 0.000
v -0.66449 0.62060 2.38394 0.000 0.671 0.000
v -0.68459 0.44275 2.30614 0.000 0.671 0.000
v -0.66823 0.27995 2.22642 0.000 0.859 0.000
v -0.63664 0.22300 2.23139 0.000 0.859 0.000
v -0.66206 0.17989 2.25076 0.000 0.671 0.000
v -0.63473 0.09365 2.24921 0.000 0.671 0.000
v -0.54881 -0.06401 2.23137 0.000 0.859 0.000
v -0.50799 -0.10724 2.24539 0.000 0.859 0.000
v -0.52227 -0.15511 2.27270 0.000 0.671 0.000
v 0.30022 0.59954 3.12593 0.000 0.859 0.000
v 0.26671 0.64525 3.10313 0.000 0.859 0.000
v 0.23147 0.67635 3.13526 0.000 0.671 0.000
v -0.34605 -0.33012 2.37015 0.000 0.671 0.000
v -0.29355 -0.30751 2.36754 0.000 0.859 0.000
v -0.26322 -0.33329 2.39333 0.000 0.859 0.000
v -0.27004 -0.36490 2.42366 0.000 0.671 0.000
v -0.20239 -0.40446 2.46886 0.000 0.671 0.000
v 0.37748 0.49900 2.12099 0.000 0.655 0.000
v 0.38518 0.48197 2.12009 0.000 0.859 0.000
v 0.39081 0.50137 2.13559 0.000 0.859 0.000
v 0.39808 0.48294 2.13363 0.000 0.655 0.000
v 0.37748 0.49900 2.12099 0.000 0.655 0.000
v 0.41612 0.49531 2.08660 0.000 0.875 0.000
v 0.41544 0.51653 2.08139 0.000 0.667 0.000
v 0.41920 0.47281 2.05297 0.000 0.851 0.000
v 0.41727 0.48233 2.03492 0.000 0.647 0.000
v 0.39368 0.44053 2.05357 0.000 0.867 0.000
v 0.38194 0.43778 2.03591 0.000 0.659 0.000
v 0.33764 0.43583 2.10568 0.000 0.667 0.000
v 0.35481 0.44057 2.11700 0.000 0.875 0.000
v 0.24265 0.40306 2.21891 0.000 0.651 0.000
v 0.25803 0.40777 2.23313 0.000 0.855 0.000
v 0.43666 0.47736 2.03029 0.000 0.851 0.000
v 0.39080 0.41908 2.03098 0.000 0.867 0.000
v 0.34172 0.41607 2.10721 0.000 0.875 0.000
v 0.24854 0.38419 2.21863 0.000 0.855 0.000
v 0.43410 0.51894 2.08733 0.000 0.875 0.000
v 0.43786 0.46627 2.04754 0.000 0.647 0.000
v 0.40253 0.42174 2.04854 0.000 0.659 0.000
v 0.35823 0.41978 2.11829 0.000 0.667 0.000
v 0.26324 0.38700 2.23155 0.000 0.651 0.000
v 0.43603 0.50047 2.09401 0.000 0.667 0.000
v 0.39808 0.48294 2.13363 0.000 0.655 0.000
v -0.64835 0.59197 2.61774 0.000 0.000 0.878
v -0.63210 0.59611 2.57105 0.000 0.000 0.878
v -0.72610 0.56992 2.58041 0.000 0.000 0.671
v -0.68009 0.55877 2.65943 0.000 0.000 0.863
v -0.72048 0.50287 2.68551 0.000 0.000 0.843
v -0.63897 0.56466 2.53222 0.000 0.000 0.878
v -0.62614 0.50540 2.61997 0.000 0.000 0.863
v -0.70929 0.48604 2.61459 0.000 0.000 0.863
v -0.68808 0.49300 2.55672 0.000 0.000 0.878
v -0.66239 0.52065 2.52452 0.000 0.000 0.878
v -0.55879 0.70657 2.72468 0.000 0.000 0.878
v -0.57852 0.68875 2.78073 0.000 0.000 0.863
v -0.56245 0.77933 2.77583 0.000 0.000 0.671
v -0.57914 0.68373 2.85430 0.000 0.000 0.843
v -0.52571 0.73224 2.69809 0.000 0.000 0.878
v -0.48656 0.75967 2.71422 0.000 0.000 0.878
v -0.49431 0.67410 2.77740 0.000 0.000 0.863
v -0.46622 0.77168 2.75879 0.000 0.000 0.878
v -0.48077 0.75827 2.80427 0.000 0.000 0.878
v -0.52118 0.72675 2.83923 0.000 0.000 0.863
v -0.34885 0.79045 2.92325 0.000 0.000 0.878
v -0.37157 0.76324 2.97416 0.000 0.000 0.863
v -0.32140 0.83812 2.99324 0.000 0.000 0.671
v -0.37095 0.73451 3.04207 0.000 0.000 0.843
v -0.30952 0.80989 2.90012 0.000 0.000 0.878
v -0.26209 0.81441 2.91668 0.000 0.000 0.878
v -0.30013 0.72146 2.95254 0.000 0.000 0.863
v -0.23676 0.80271 2.95871 0.000 0.000 0.878
v -0.25344 0.78104 3.00010 0.000 0.000 0.878
v -0.30144 0.75632 3.03064 0.000 0.000 0.863
v -0.71129 0.32668 2.49044 0.000 0.000 0.878
v -0.68996 0.32306 2.44582 0.000 0.000 0.878
v -0.76851 0.26600 2.45934 0.000 0.000 0.671
v -0.73561 0.29741 2.53944 0.000 0.000 0.863
v -0.75711 0.24037 2.58093 0.000 0.000 0.843
v -0.67846 0.28163 2.41947 0.000 0.000 0.878
v -0.66030 0.26057 2.52243 0.000 0.000 0.863
v -0.72884 0.20943 2.52025 0.000 0.000 0.863
v -0.70208 0.20696 2.46436 0.000 0.000 0.878
v -0.68294 0.23179 2.42591 0.000 0.000 0.878
v -0.65271 0.03348 2.45653 0.000 0.000 0.878
v -0.62430 0.02572 2.41663 0.000 0.000 0.878
v -0.67831 -0.05099 2.44505 0.000 0.000 0.671
v -0.67286 0.01269 2.51140 0.000 0.000 0.863
v -0.67921 -0.03343 2.56860 0.000 0.000 0.843
v -0.59446 -0.01359 2.40617 0.000 0.000 0.878
v -0.58764 0.00520 2.51093 0.000 0.000 0.863
v -0.63193 -0.06698 2.52302 0.000 0.000 0.863
v -0.59703 -0.07490 2.47235 0.000 0.000 0.878
v -0.58184 -0.05692 2.42869 0.000 0.000 0.878
v 0.17248 -0.04788 3.12107 0.000 0.000 0.878
v 0.12088 -0.06557 3.15059 0.000 0.000 0.863
v 0.17887 -0.13550 3.13535 0.000 0.000 0.671
v 0.06114 -0.10642 3.16481 0.000 0.000 0.843
v 0.20446 -0.05600 3.08405 0.000 0.000 0.878
v 0.20380 -0.09230 3.04902 0.000 0.000 0.878
v 0.10288 -0.06287 3.06702 0.000 0.000 0.863
v 0.17417 -0.13145 3.03752 0.000 0.000 0.878
v 0.13275 -0.14684 3.06005 0.000 0.000 0.878
v 0.09168 -0.13833 3.10576 0.000 0.000 0.863
v 0.19569 0.11844 3.18733 0.000 0.000 0.878
v 0.23203 0.14157 3.16274 0.000 0.000 0.878
v 0.22128 0.16841 3.25642 0.000 0.000 0.671
v 0.14720 0.12305 3.22574 0.000 0.000 0.863
v 0.09777 0.15608 3.26938 0.000 0.000 0.843
v 0.24330 0.19073 3.16177 0.000 0.000 0.878
v 0.13704 0.18194 3.16454 0.000 0.000 0.863
v 0.14043 0.21103 3.24493 0.000 0.000 0.863
v 0.18647 0.23816 3.21343 0.000 0.000 0.878
v 0.22501 0.23285 3.18265 0.000 0.000 0.878
v 0.13711 0.41162 3.22126 0.000 0.000 0.878
v 0.16637 0.43893 3.19194 0.000 0.000 0.878
v 0.13108 0.48541 3.27071 0.000 0.000 0.671
v 0.08444 0.40777 3.25379 0.000 0.000 0.863
v 0.01987 0.42986 3.28172 0.000 0.000 0.843
v 0.15930 0.48595 3.17507 0.000 0.000 0.878
v 0.06438 0.43731 3.17606 0.000 0.000 0.863
v 0.04352 0.48744 3.24218 0.000 0.000 0.863
v 0.08143 0.52000 3.20544 0.000 0.000 0.878
v 0.12391 0.52157 3.17988 0.000 0.000 0.878
v 0.04319 -0.26145 2.95310 0.000 0.000 0.878
v -0.00990 -0.26829 2.98445 0.000 0.000 0.863
v 0.01522 -0.34492 2.93992 0.000 0.000 0.671
v -0.08021 -0.28728 2.99603 0.000 0.000 0.843
v 0.06778 -0.26759 2.91047 0.000 0.000 0.878
v 0.05140 -0.28732 2.86702 0.000 0.000 0.878
v -0.02895 -0.23157 2.90957 0.000 0.000 0.863
v 0.00829 -0.30703 2.84978 0.000 0.000 0.878
v -0.03483 -0.31316 2.87352 0.000 0.000 0.878
v -0.06724 -0.30629 2.92595 0.000 0.000 0.863
v -0.16675 -0.34533 2.75454 0.000 0.000 0.878
v -0.21685 -0.34279 2.79103 0.000 0.000 0.863
v -0.22583 -0.40370 2.72252 0.000 0.000 0.671
v -0.28840 -0.33806 2.80825 0.000 0.000 0.843
v -0.14841 -0.34524 2.70844 0.000 0.000 0.878
v -0.17308 -0.34205 2.66456 0.000 0.000 0.878
v -0.22313 -0.27893 2.73445 0.000 0.000 0.863
v -0.22117 -0.33806 2.64985 0.000 0.000 0.878
v -0.26216 -0.33592 2.67770 0.000 0.000 0.878
v -0.28697 -0.33586 2.73454 0.000 0.000 0.863
v -0.02728 0.65416 3.15272 0.000 0.000 0.878
v -0.00522 0.68092 3.11726 0.000 0.000 0.878
v -0.06755 0.73053 3.17437 0.000 0.000 0.671
v -0.07977 0.63958 3.18238 0.000 0.000 0.863
v -0.15170 0.64157 3.19853 0.000 0.000 0.843
v -0.02568 0.71422 3.08536 0.000 0.000 0.878
v -0.09563 0.63479 3.09845 0.000 0.000 0.863
v -0.14389 0.68956 3.14307 0.000 0.000 0.863
v -0.11452 0.72216 3.09922 0.000 0.000 0.878
v -0.07174 0.73278 3.07647 0.000 0.000 0.878
v -0.40108 -0.27704 2.57857 0.000 0.000 0.878
v -0.44453 -0.26910 2.62211 0.000 0.000 0.863
v -0.47968 -0.29612 2.54137 0.000 0.000 0.671
v -0.50765 -0.24514 2.65180 0.000 0.000 0.843
v -0.38619 -0.26813 2.53210 0.000 0.000 0.878
v -0.40948 -0.24187 2.49588 0.000 0.000 0.878
v -0.42763 -0.19226 2.58853 0.000 0.000 0.863
v -0.45271 -0.21627 2.49131 0.000 0.000 0.878
v -0.48832 -0.20903 2.52508 0.000 0.000 0.878
v -0.50865 -0.21911 2.58280 0.000 0.000 0.863
vt 0.66185 0.20174
vt 0.46771 0.16624
vt 0.52414 0.35852
vt 0.36664 0.28117
vt 0.69658 0.33814
vt 0.84022 0.38374
vt 0.31010 0.11368
vt 0.58950 0.00125
vt 0.42096 0.00892
vt 0.83870 0.21709
vt 0.74837 0.06936
vt 0.66185 0.20174
vt 0.46771 0.16624
vt 0.52414 0.35852
vt 0.36664 0.28117
vt 0.69658 0.33814
vt 0.84022 0.38374
vt 0.31010 0.11368
vt 0.58950 0.00125
vt 0.42096 0.00892
vt 0.83870 0.21709
vt 0.74837 0.06936
vt 0.66185 0.20174
vt 0.46771 0.16624
vt 0.52414 0.35852
vt 0.36664 0.28117
vt 0.69658 0.33814
vt 0.84022 0.38374
vt 0.31010 0.11368
vt 0.58950 0.00125
vt 0.42096 0.00892
vt 0.83870 0.21709
vt 0.74837 0.06936
vt 0.66185 0.20174
vt 0.46771 0.16624
vt 0.52414 0.35852
vt 0.36664 0.28117
vt 0.69658 0.33814
vt 0.84022 0.38374
vt 0.31010 0.11368
vt 0.58950 0.00125
vt 0.42096 0.00892
vt 0.83870 0.21709
vt 0.74837 0.06936
vt 0.66185 0.20174
vt 0.46771 0.16624
vt 0.52414 0.35852
vt 0.36664 0.28117
vt 0.69658 0.33814
vt 0.84022 0.38374
vt 0.31010 0.11368
vt 0.58950 0.00125
vt 0.42096 0.00892
vt 0.83870 0.21709
vt 0.74837 0.06936
vt 0.66185 0.20174
vt 0.46771 0.16624
vt 0.52414 0.35852
vt 0.36664 0.28117
vt 0.69658 0.33814
vt 0.84022 0.38374
vt 0.31010 0.11368
vt 0.58950 0.00125
vt 0.42096 0.00892
vt 0.83870 0.21709
vt 0.74837 0.06936
vt 0.66185 0.20174
vt 0.46771 0.16624
vt 0.52414 0.35852
vt 0.36664 0.28117
vt 0.69658 0.33814
vt 0.84022 0.38374
vt 0.31010 0.11368
vt 0.58950 0.00125
vt 0.42096 0.00892
vt 0.83870 0.21709
vt 0.74837 0.06936
vt 0.66185 0.20174
vt 0.46771 0.16624
vt 0.52414 0.35852
vt 0.36664 0.28117
vt 0.69658 0.33814
vt 0.84022 0.38374
vt 0.31010 0.11368
vt 0.58950 0.00125
vt 0.42096 0.00892
vt 0.83870 0.21709
vt 0.74837 0.06936
vt 0.66185 0.20174
vt 0.46771 0.16624
vt 0.52414 0.35852
vt 0.36664 0.28117
vt 0.69658 0.33814
vt 0.84022 0.38374
vt 0.31010 0.11368
vt 0.58950 0.00125
vt 0.42096 0.00892
vt 0.83870 0.21709
vt 0.74837 0.06936
vt 0.66185 0.20174
vt 0.46771 0.16624
vt 0.52414 0.35852
vt 0.36664 0.28117
vt 0.69658 0.33814
vt 0.84022 0.38374
vt 0.31010 0.11368
vt 0.58950 0.00125
vt 0.42096 0.00892
vt 0.83870 0.21709
vt 0.74837 0.06936
vt 0.66185 0.20174
vt 0.46771 0.16624
vt 0.52414 0.35852
vt 0.36664 0.28117
vt 0.69658 0.33814
vt 0.84022 0.38374
vt 0.31010 0.11368
vt 0.58950 0.00125
vt 0.42096 0.00892
vt 0.83870 0.21709
vt 0.74837 0.06936
vt 0.66185 0.20174
vt 0.46771 0.16624
vt 0.52414 0.35852
vt 0.36664 0.28117
vt 0.69658 0.33814
vt 0.84022 0.38374
vt 0.31010 0.11368
vt 0.58950 0.00125
vt 0.42096 0.00892
vt 0.83870 0.21709
vt 0.74837 0.06936
vt 0.00357 0.47950
vt 0.13384 0.36775
vt 0.00357 0.55071
vt 0.13384 0.54604
vt 0.00357 0.63718
vt 0.00357 0.72419
vt 0.13384 0.71916
vt 0.00357 0.81978
vt 0.00357 0.89176
vt 0.13384 0.88097
vt 0.00357 0.99543
vt 0.23655 0.29150
vt 0.23655 0.46564
vt 0.34246 0.31802
vt 0.42610 0.35399
vt 0.23655 0.63761
vt 0.42610 0.55808
vt 0.23655 0.80745
vt 0.34246 0.83256
vt 0.42610 0.78830
vt 0.61598 0.39053
vt 0.61598 0.49330
vt 0.77900 0.45483
vt 0.61598 0.56927
vt 0.61598 0.67299
vt 0.77900 0.61560
vt 0.61598 0.49330
vt 0.61598 0.39053
vt 0.42610 0.55808
vt 0.42610 0.35399
vt 0.23655 0.63761
vt 0.23655 0.46564
vt 0.34246 0.31802
vt 0.23655 0.29150
vt 0.13384 0.54604
vt 0.13384 0.36775
vt 0.00357 0.55071
vt 0.00357 0.47950
vt 0.00357 0.63718
vt 0.00357 0.72419
vt 0.13384 0.71916
vt 0.00357 0.81978
vt 0.00357 0.89176
vt 0.13384 0.88097
vt 0.00357 0.99543
vt 0.23655 0.80745
vt 0.34246 0.83256
vt 0.42610 0.78830
vt 0.61598 0.56927
vt 0.61598 0.67299
vt 0.61598 0.67299
vt 0.61598 0.56927
vt 0.42610 0.78830
vt 0.42610 0.55808
vt 0.34246 0.83256
vt 0.23655 0.80745
vt 0.23655 0.63761
vt 0.42610 0.35399
vt 0.23655 0.46564
vt 0.34246 0.31802
vt 0.23655 0.29150
vt 0.13384 0.54604
vt 0.13384 0.36775
vt 0.00357 0.55071
vt 0.00357 0.47950
vt 0.00357 0.63718
vt 0.00357 0.72419
vt 0.13384 0.71916
vt 0.00357 0.81978
vt 0.00357 0.89176
vt 0.13384 0.88097
vt 0.00357 0.99543
vt 0.61598 0.39053
vt 0.61598 0.49330
vt 0.61598 0.49330
vt 0.61598 0.39053
vt 0.42610 0.55808
vt 0.42610 0.35399
vt 0.23655 0.63761
vt 0.23655 0.46564
vt 0.34246 0.31802
vt 0.23655 0.29150
vt 0.13384 0.54604
vt 0.13384 0.36775
vt 0.00357 0.55071
vt 0.00357 0.47950
vt 0.00357 0.63718
vt 0.00357 0.72419
vt 0.13384 0.71916
vt 0.00357 0.81978
vt 0.00357 0.89176
vt 0.13384 0.88097
vt 0.00357 0.99543
vt 0.23655 0.80745
vt 0.34246 0.83256
vt 0.42610 0.78830
vt 0.61598 0.56927
vt 0.61598 0.67299
vt 0.28282 0.99374
vt 0.41006 0.81515
vt 0.35008 0.99374
vt 0.43081 0.99374
vt 0.52160 0.99374
vt 0.64540 0.81515
vt 0.57376 0.99374
vt 0.64540 0.99374
vt 0.75973 0.99374
vt 0.70961 0.99374
vt 0.88047 0.81515
vt 0.83519 0.99374
vt 0.91311 0.99374
vt 0.99389 0.99374
vt 0.83665 0.99374
vt 0.76119 0.99374
vt 0.64540 0.81515
vt 0.71086 0.99374
vt 0.64540 0.99374
vt 0.52312 0.99374
vt 0.57505 0.99374
vt 0.41006 0.81515
vt 0.43233 0.99374
vt 0.35159 0.99374
vt 0.28282 0.99374
vt 0.43161 0.99374
vt 0.52240 0.99374
vt 0.64540 0.81515
vt 0.57444 0.99374
vt 0.71026 0.99374
vt 0.64540 0.99374
vt 0.76050 0.99374
vt 0.88047 0.81515
vt 0.83595 0.99374
vt 0.91387 0.99374
vt 0.99389 0.99374
vt 0.91387 0.99374
vt 0.83595 0.99374
vt 0.76050 0.99374
vt 0.64540 0.81515
vt 0.71026 0.99374
vt 0.64540 0.99374
vt 0.52240 0.99374
vt 0.57444 0.99374
vt 0.41006 0.81515
vt 0.43161 0.99374
vt 0.28282 0.99374
vt 0.35159 0.99374
vt 0.43233 0.99374
vt 0.52312 0.99374
vt 0.64540 0.81515
vt 0.57505 0.99374
vt 0.64540 0.99374
vt 0.76119 0.99374
vt 0.71086 0.99374
vt 0.88047 0.81515
vt 0.83665 0.99374
vt 0.99389 0.99374
vt 0.91311 0.99374
vt 0.83519 0.99374
vt 0.75973 0.99374
vt 0.64540 0.81515
vt 0.70961 0.99374
vt 0.64540 0.99374
vt 0.52160 0.99374
vt 0.57376 0.99374
vt 0.41006 0.81515
vt 0.43081 0.99374
vt 0.35008 0.99374
vt 0.28282 0.99374
vt 0.43081 0.99374
vt 0.35008 0.99374
vt 0.52160 0.99374
vt 0.64540 0.81515
vt 0.57376 0.99374
vt 0.70961 0.99374
vt 0.64540 0.99374
vt 0.75973 0.99374
vt 0.88047 0.81515
vt 0.83519 0.99374
vt 0.91311 0.99374
vt 0.99389 0.99374
vt 0.83665 0.99374
vt 0.76119 0.99374
vt 0.64540 0.81515
vt 0.71086 0.99374
vt 0.57505 0.99374
vt 0.64540 0.99374
vt 0.52312 0.99374
vt 0.41006 0.81515
vt 0.43233 0.99374
vt 0.35159 0.99374
vt 0.28282 0.99374
vt 0.43161 0.99374
vt 0.52240 0.99374
vt 0.64540 0.81515
vt 0.57444 0.99374
vt 0.71026 0.99374
vt 0.64540 0.99374
vt 0.76050 0.99374
vt 0.88047 0.81515
vt 0.83595 0.99374
vt 0.91387 0.99374
vt 0.99389 0.99374
vt 0.91387 0.99374
vt 0.83595 0.99374
vt 0.76050 0.99374
vt 0.64540 0.81515
vt 0.71026 0.99374
vt 0.64540 0.99374
vt 0.52240 0.99374
vt 0.57444 0.99374
vt 0.41006 0.81515
vt 0.43161 0.99374
vt 0.28282 0.99374
vt 0.35159 0.99374
vt 0.43233 0.99374
vt 0.52312 0.99374
vt 0.64540 0.81515
vt 0.57505 0.99374
vt 0.76119 0.99374
vt 0.71086 0.99374
vt 0.88047 0.81515
vt 0.83665 0.99374
vt 0.99389 0.99374
vt 0.91311 0.99374
vt 0.83519 0.99374
vt 0.75973 0.99374
vt 0.64540 0.81515
vt 0.70961 0.99374
vt 0.64540 0.99374
vt 0.52160 0.99374
vt 0.57376 0.99374
vt 0.43081 0.99374
vt 0.35008 0.99374
vt 0.64540 0.99374
vt 0.84201 0.75791
vt 0.84201 0.80480
vt 0.50352 0.75791
vt 0.50352 0.80480
vt 0.50352 0.75791
vt 0.84201 0.75791
vt 0.84201 0.80480
vt 0.50352 0.80480
vt 0.89878 0.00831
vt 0.75959 0.00831
vt 0.89878 0.30163
vt 0.89878 0.00831
vt 0.75959 0.00831
vt 0.89878 0.00831
vt 0.75959 0.00831
vt 0.89878 0.00831
vt 0.75959 0.00831
vt 0.89878 0.00831
vt 0.75959 0.00831
vt 0.89878 0.00831
vt 0.75959 0.00831
vt 0.89878 0.00831
vt 0.75959 0.00831
vt 0.89878 0.00831
vt 0.75959 0.00831
vt 0.89878 0.00831
vt 0.75959 0.00831
vt 0.89878 0.00831
vt 0.75959 0.00831
vt 0.89878 0.00831
vt 0.75959 0.00831
vt 0.89878 0.00831
vt 0.75959 0.00831
vt 0.37272 0.00769
vt 0.24247 0.16222
vt 0.28828 0.00769
vt 0.20972 0.00769
vt 0.14063 0.00769
vt 0.00743 0.16222
vt 0.07907 0.00769
vt 0.00743 0.00769
vt 0.24247 0.26331
vt 0.00739 0.26331
vt 0.24247 0.26331
vt 0.24247 0.16222
vt 0.13741 0.00769
vt 0.07513 0.00769
vt 0.20761 0.00769
vt 0.29271 0.00769
vt 0.37217 0.00769
vt 0.20915 0.00769
vt 0.13895 0.00769
vt 0.00739 0.16222
vt 0.07645 0.00769
vt 0.00739 0.00769
vt 0.00743 0.26331
vt 0.24247 0.26331
vt 0.24247 0.16222
vt 0.13911 0.00769
vt 0.07777 0.00769
vt 0.20820 0.00769
vt 0.28677 0.00769
vt 0.37272 0.00769
vt 0.20892 0.00769
vt 0.13983 0.00769
vt 0.00743 0.16222
vt 0.07839 0.00769
vt 0.00739 0.26331
vt 0.24247 0.26331
vt 0.24247 0.16222
vt 0.13822 0.00769
vt 0.07582 0.00769
vt 0.00739 0.00769
vt 0.20842 0.00769
vt 0.29352 0.00769
vt 0.37217 0.00769
vt 0.00743 0.16222
vt 0.13822 0.00769
vt 0.07582 0.00769
vt 0.00739 0.00769
vt 0.20842 0.00769
vt 0.29352 0.00769
vt 0.00739 0.26331
vt 0.24247 0.26331
vt 0.24247 0.16222
vt 0.00739 0.16222
vt 0.13911 0.00769
vt 0.07777 0.00769
vt 0.00743 0.00769
vt 0.20820 0.00769
vt 0.28677 0.00769
vt 0.37272 0.00769
vt 0.00743 0.26331
vt 0.24247 0.26331
vt 0.24247 0.16222
vt 0.00743 0.16222
vt 0.13741 0.00769
vt 0.07513 0.00769
vt 0.20761 0.00769
vt 0.29271 0.00769
vt 0.37217 0.00769
vt 0.00739 0.26331
vt 0.24247 0.26331
vt 0.24247 0.16222
vt 0.14063 0.00769
vt 0.07907 0.00769
vt 0.20972 0.00769
vt 0.28828 0.00769
vt 0.37272 0.00769
vt 0.00743 0.00769
vt 0.20915 0.00769
vt 0.13895 0.00769
vt 0.07645 0.00769
vt 0.00743 0.16222
vt 0.14063 0.00769
vt 0.07907 0.00769
vt 0.20972 0.00769
vt 0.28828 0.00769
vt 0.00743 0.00769
vt 0.13741 0.00769
vt 0.07513 0.00769
vt 0.24247 0.16222
vt 0.20761 0.00769
vt 0.29271 0.00769
vt 0.37217 0.00769
vt 0.24247 0.26331
vt 0.00739 0.26331
vt 0.20915 0.00769
vt 0.13895 0.00769
vt 0.00739 0.16222
vt 0.07645 0.00769
vt 0.00743 0.26331
vt 0.24247 0.26331
vt 0.24247 0.16222
vt 0.13911 0.00769
vt 0.07777 0.00769
vt 0.00743 0.00769
vt 0.20820 0.00769
vt 0.28677 0.00769
vt 0.37272 0.00769
vt 0.20892 0.00769
vt 0.13983 0.00769
vt 0.00743 0.16222
vt 0.07839 0.00769
vt 0.00739 0.26331
vt 0.24247 0.26331
vt 0.24247 0.16222
vt 0.00743 0.16222
vt 0.13822 0.00769
vt 0.07582 0.00769
vt 0.00739 0.00769
vt 0.20842 0.00769
vt 0.29352 0.00769
vt 0.37217 0.00769
vt 0.00739 0.26331
vt 0.24247 0.26331
vt 0.24247 0.16222
vt 0.00739 0.16222
vt 0.13911 0.00769
vt 0.07777 0.00769
vt 0.20820 0.00769
vt 0.28677 0.00769
vt 0.37272 0.00769
vt 0.00743 0.26331
vt 0.24247 0.26331
vt 0.24247 0.16222
vt 0.00743 0.16222
vt 0.13741 0.00769
vt 0.07513 0.00769
vt 0.20761 0.00769
vt 0.29271 0.00769
vt 0.37217 0.00769
vt 0.00739 0.26331
vt 0.14063 0.00769
vt 0.07907 0.00769
vt 0.20972 0.00769
vt 0.28828 0.00769
vt 0.00743 0.00769
vt 0.20915 0.00769
vt 0.13895 0.00769
vt 0.07645 0.00769
vt 0.00739 0.00769
vt 0.20892 0.00769
vt 0.13983 0.00769
vt 0.07839 0.00769
vt 0.20892 0.00769
vt 0.13983 0.00769
vt 0.07839 0.00769
vt 0.29352 0.00769
vt 0.20842 0.00769
vt 0.13822 0.00769
vt 0.07582 0.00769
vt 0.00739 0.00769
vt 0.91693 0.28062
vt 0.99221 0.28062
vt 0.99221 0.28062
vt 0.91693 0.28062
vt 0.91407 0.28062
vt 0.99221 0.10076
vt 0.91407 0.10076
vt 0.99221 0.26816
vt 0.91407 0.26816
vt 0.99221 0.12013
vt 0.91407 0.12013
vt 0.91407 0.00785
vt 0.99221 0.00785
vt 0.91407 0.29075
vt 0.99221 0.29075
vt 0.99221 0.26816
vt 0.99221 0.12013
vt 0.99221 0.00785
vt 0.99221 0.29075
vt 0.99221 0.10076
vt 0.91407 0.26816
vt 0.91407 0.12013
vt 0.91407 0.00785
vt 0.91407 0.29075
vt 0.91407 0.10076
vt 0.91407 0.28062
vt 0.77361 0.56346
vt 0.82561 0.43481
vt 0.99260 0.58446
vt 0.83165 0.72588
vt 0.99260 0.93121
vt 0.99260 0.31310
vt 0.99260 0.62060
vt 0.83165 0.72588
vt 0.77361 0.56346
vt 0.82561 0.43481
vt 0.77361 0.56346
vt 0.83165 0.72588
vt 0.99260 0.58446
vt 0.99260 0.93121
vt 0.82561 0.43481
vt 0.99260 0.31310
vt 0.99260 0.62060
vt 0.82561 0.43481
vt 0.77361 0.56346
vt 0.83165 0.72588
vt 0.77361 0.56346
vt 0.83165 0.72588
vt 0.99260 0.58446
vt 0.99260 0.93121
vt 0.82561 0.43481
vt 0.99260 0.31310
vt 0.99260 0.62060
vt 0.82561 0.43481
vt 0.77361 0.56346
vt 0.83165 0.72588
vt 0.77361 0.56346
vt 0.82561 0.43481
vt 0.99260 0.58446
vt 0.83165 0.72588
vt 0.99260 0.93121
vt 0.99260 0.31310
vt 0.99260 0.62060
vt 0.83165 0.72588
vt 0.77361 0.56346
vt 0.82561 0.43481
vt 0.77361 0.56346
vt 0.82561 0.43481
vt 0.99260 0.58446
vt 0.83165 0.72588
vt 0.99260 0.93121
vt 0.99260 0.31310
vt 0.99260 0.62060
vt 0.83165 0.72588
vt 0.77361 0.56346
vt 0.82561 0.43481
vt 0.77361 0.56346
vt 0.83165 0.72588
vt 0.99260 0.58446
vt 0.99260 0.93121
vt 0.82561 0.43481
vt 0.99260 0.31310
vt 0.99260 0.62060
vt 0.82561 0.43481
vt 0.77361 0.56346
vt 0.83165 0.72588
vt 0.77361 0.56346
vt 0.82561 0.43481
vt 0.99260 0.58446
vt 0.83165 0.72588
vt 0.99260 0.93121
vt 0.99260 0.31310
vt 0.99260 0.62060
vt 0.83165 0.72588
vt 0.77361 0.56346
vt 0.82561 0.43481
vt 0.77361 0.56346
vt 0.82561 0.43481
vt 0.99260 0.58446
vt 0.83165 0.72588
vt 0.99260 0.93121
vt 0.99260 0.31310
vt 0.99260 0.62060
vt 0.83165 0.72588
vt 0.77361 0.56346
vt 0.82561 0.43481
vt 0.77361 0.56346
vt 0.83165 0.72588
vt 0.99260 0.58446
vt 0.99260 0.93121
vt 0.82561 0.43481
vt 0.99260 0.31310
vt 0.99260 0.62060
vt 0.82561 0.43481
vt 0.77361 0.56346
vt 0.83165 0.72588
vt 0.77361 0.56346
vt 0.83165 0.72588
vt 0.99260 0.58446
vt 0.99260 0.93121
vt 0.82561 0.43481
vt 0.99260 0.31310
vt 0.99260 0.62060
vt 0.82561 0.43481
vt 0.77361 0.56346
vt 0.83165 0.72588
vt 0.77361 0.56346
vt 0.82561 0.43481
vt 0.99260 0.58446
vt 0.83165 0.72588
vt 0.99260 0.93121
vt 0.99260 0.31310
vt 0.99260 0.62060
vt 0.83165 0.72588
vt 0.77361 0.56346
vt 0.82561 0.43481
vt 0.77361 0.56346
vt 0.83165 0.72588
vt 0.99260 0.58446
vt 0.99260 0.93121
vt 0.82561 0.43481
vt 0.99260 0.31310
vt 0.99260 0.62060
vt 0.82561 0.43481
vt 0.77361 0.56346
vt 0.83165 0.72588
usemtl m0
f 1/1 2/2 3/3
f 3/3 2/2 4/4
f 3/3 5/5 1/1
f 5/5 6/6 1/1
f 2/2 7/7 4/4
f 2/2 1/1 8/8
f 9/9 2/2 8/8
f 2/2 9/9 7/7
f 6/6 10/10 1/1
f 10/10 11/11 1/1
f 11/11 8/8 1/1
f 12/12 13/13 14/14
f 14/14 13/13 15/15
f 14/14 16/16 12/12
f 16/16 17/17 12/12
f 13/13 18/18 15/15
f 13/13 12/12 19/19
f 20/20 13/13 19/19
f 13/13 20/20 18/18
f 17/17 21/21 12/12
f 21/21 22/22 12/12
f 22/22 19/19 12/12
f 23/23 24/24 25/25
f 25/25 24/24 26/26
f 25/25 27/27 23/23
f 27/27 28/28 23/23
f 24/24 29/29 26/26
f 24/24 23/23 30/30
f 31/31 24/24 30/30
f 24/24 31/31 29/29
f 28/28 32/32 23/23
f 32/32 33/33 23/23
f 33/33 30/30 23/23
f 34/34 35/35 36/36
f 36/36 35/35 37/37
f 36/36 38/38 34/34
f 38/38 39/39 34/34
f 35/35 40/40 37/37
f 35/35 34/34 41/41
f 42/42 35/35 41/41
f 35/35 42/42 40/40
f 39/39 43/43 34/34
f 43/43 44/44 34/34
f 44/44 41/41 34/34
f 45/45 46/46 47/47
f 47/47 46/46 48/48
f 47/47 49/49 45/45
f 49/49 50/50 45/45
f 46/46 51/51 48/48
f 46/46 45/45 52/52
f 53/53 46/46 52/52
f 46/46 53/53 51/51
f 50/50 54/54 45/45
f 54/54 55/55 45/45
f 55/55 52/52 45/45
f 56/56 57/57 58/58
f 58/58 57/57 59/59
f 58/58 60/60 56/56
f 60/60 61/61 56/56
f 57/57 62/62 59/59
f 57/57 56/56 63/63
f 64/64 57/57 63/63
f 57/57 64/64 62/62
f 61/61 65/65 56/56
f 65/65 66/66 56/56
f 66/66 63/63 56/56
f 67/67 68/68 69/69
f 69/69 68/68 70/70
f 69/69 71/71 67/67
f 71/71 72/72 67/67
f 68/68 73/73 70/70
f 68/68 67/67 74/74
f 75/75 68/68 74/74
f 68/68 75/75 73/73
f 72/72 76/76 67/67
f 76/76 77/77 67/67
f 77/77 74/74 67/67
f 78/78 79/79 80/80
f 80/80 79/79 81/81
f 80/80 82/82 78/78
f 82/82 83/83 78/78
f 79/79 84/84 81/81
f 79/79 78/78 85/85
f 86/86 79/79 85/85
f 79/79 86/86 84/84
f 83/83 87/87 78/78
f 87/87 88/88 78/78
f 88/88 85/85 78/78
f 89/89 90/90 91/91
f 91/91 90/90 92/92
f 91/91 93/93 89/89
f 93/93 94/94 89/89
f 90/90 95/95 92/92
f 90/90 89/89 96/96
f 97/97 90/90 96/96
f 90/90 97/97 95/95
f 94/94 98/98 89/89
f 98/98 99/99 89/89
f 99/99 96/96 89/89
f 100/100 101/101 102/102
f 102/102 101/101 103/103
f 102/102 104/104 100/100
f 104/104 105/105 100/100
f 101/101 106/106 103/103
f 101/101 100/100 107/107
f 108/108 101/101 107/107
f 101/101 108/108 106/106
f 105/105 109/109 100/100
f 109/109 110/110 100/100
f 110/110 107/107 100/100
f 111/111 112/112 113/113
f 113/113 112/112 114/114
f 113/113 115/115 111/111
f 115/115 116/116 111/111
f 112/112 117/117 114/114
f 112/112 111/111 118/118
f 119/119 112/112 118/118
f 112/112 119/119 117/117
f 116/116 120/120 111/111
f 120/120 121/121 111/111
f 121/121 118/118 111/111
f 122/122 123/123 124/124
f 124/124 123/123 125/125
f 124/124 126/126 122/122
f 126/126 127/127 122/122
f 123/123 128/128 125/125
f 123/123 122/122 129/129
f 130/130 123/123 129/129
f 123/123 130/130 128/128
f 127/127 131/131 122/122
f 131/131 132/132 122/122
f 132/132 129/129 122/122
f 133/133 134/134 135/135
f 134/134 136/136 135/135
f 135/135 136/136 137/137
f 137/137 136/136 138/138
f 136/136 139/139 138/138
f 138/138 139/139 140/140
f 140/140 139/139 141/141
f 139/139 142/142 141/141
f 141/141 142/142 143/143
f 134/134 144/144 136/136
f 136/136 144/144 145/145
f 136/136 145/145 139/139
f 144/144 146/146 145/145
f 146/146 147/147 145/145
f 139/139 145/145 148/148
f 147/147 148/148 145/145
f 139/139 148/148 142/142
f 149/149 148/148 147/147
f 142/142 148/148 150/150
f 148/148 149/149 150/150
f 150/150 149/149 151/151
f 149/149 152/152 151/151
f 147/147 153/153 149/149
f 153/153 154/154 149/149
f 155/155 154/154 153/153
f 149/149 156/156 152/152
f 157/157 152/152 156/156
f 158/158 157/157 156/156
f 155/155 159/159 160/160
f 160/160 159/159 161/161
f 162/162 160/160 161/161
f 161/161 163/163 162/162
f 162/162 163/163 164/164
f 165/165 162/162 164/164
f 166/166 165/165 164/164
f 167/167 166/166 164/164
f 168/168 166/166 167/167
f 168/168 167/167 169/169
f 170/170 168/168 169/169
f 169/169 167/167 171/171
f 171/171 167/167 172/172
f 167/167 173/173 172/172
f 167/167 164/164 173/173
f 173/173 164/164 163/163
f 172/172 173/173 174/174
f 174/174 173/173 175/175
f 173/173 176/176 175/175
f 163/163 176/176 173/173
f 175/175 176/176 177/177
f 178/178 176/176 163/163
f 163/163 161/161 178/178
f 178/178 161/161 179/179
f 161/161 180/180 179/179
f 161/161 181/181 180/180
f 182/182 180/180 181/181
f 158/158 182/182 181/181
f 158/158 183/183 184/184
f 183/183 185/185 184/184
f 186/186 184/184 185/185
f 186/186 185/185 187/187
f 188/188 186/186 187/187
f 189/189 186/186 188/188
f 186/186 189/189 190/190
f 190/190 189/189 191/191
f 192/192 190/190 191/191
f 193/193 192/192 191/191
f 194/194 193/193 191/191
f 195/195 193/193 194/194
f 195/195 194/194 196/196
f 197/197 195/195 196/196
f 196/196 194/194 198/198
f 198/198 194/194 199/199
f 194/194 200/200 199/199
f 194/194 191/191 200/200
f 200/200 191/191 189/189
f 199/199 200/200 201/201
f 201/201 200/200 202/202
f 200/200 203/203 202/202
f 200/200 189/189 203/203
f 203/203 189/189 188/188
f 202/202 203/203 204/204
f 190/190 205/205 186/186
f 205/205 206/206 186/186
f 155/155 206/206 205/205
f 155/155 207/207 208/208
f 208/208 207/207 209/209
f 210/210 208/208 209/209
f 209/209 211/211 210/210
f 210/210 211/211 212/212
f 213/213 210/210 212/212
f 214/214 213/213 212/212
f 215/215 214/214 212/212
f 216/216 214/214 215/215
f 216/216 215/215 217/217
f 218/218 216/216 217/217
f 217/217 215/215 219/219
f 219/219 215/215 220/220
f 215/215 221/221 220/220
f 215/215 212/212 221/221
f 221/221 212/212 211/211
f 220/220 221/221 222/222
f 222/222 221/221 223/223
f 221/221 224/224 223/223
f 221/221 211/211 224/224
f 223/223 224/224 225/225
f 224/224 211/211 226/226
f 211/211 209/209 226/226
f 226/226 209/209 227/227
f 209/209 228/228 227/227
f 209/209 229/229 228/228
f 230/230 228/228 229/229
f 158/158 230/230 229/229
f 231/231 232/232 233/233
f 232/232 234/234 233/233
f 232/232 235/235 234/234
f 235/235 232/232 236/236
f 235/235 236/236 237/237
f 237/237 236/236 238/238
f 236/236 239/239 240/240
f 236/236 241/241 239/239
f 242/242 239/239 241/241
f 243/243 242/242 241/241
f 244/244 243/243 241/241
f 244/244 241/241 245/245
f 241/241 246/246 245/245
f 246/246 241/241 247/247
f 246/246 247/247 248/248
f 248/248 247/247 249/249
f 247/247 250/250 251/251
f 247/247 252/252 250/250
f 253/253 250/250 252/252
f 254/254 253/253 252/252
f 255/255 254/254 252/252
f 255/255 252/252 256/256
f 252/252 257/257 256/256
f 257/257 252/252 258/258
f 257/257 258/258 259/259
f 258/258 260/260 261/261
f 258/258 262/262 260/260
f 258/258 263/263 262/262
f 264/264 262/262 263/263
f 265/265 264/264 263/263
f 266/266 265/265 263/263
f 267/267 263/263 268/268
f 268/268 263/263 269/269
f 270/270 269/269 263/263
f 270/270 271/271 269/269
f 270/270 272/272 271/271
f 273/273 274/274 270/270
f 273/273 270/270 275/275
f 275/275 276/276 273/273
f 277/277 276/276 275/275
f 277/277 275/275 278/278
f 278/278 275/275 279/279
f 279/279 275/275 280/280
f 281/281 280/280 275/275
f 281/281 282/282 280/280
f 281/281 283/283 282/282
f 284/284 285/285 281/281
f 284/284 281/281 286/286
f 286/286 287/287 284/284
f 288/288 287/287 286/286
f 288/288 286/286 289/289
f 289/289 286/286 290/290
f 290/290 286/286 291/291
f 292/292 291/291 286/286
f 292/292 293/293 291/291
f 292/292 294/294 293/293
f 295/295 296/296 292/292
f 295/295 292/292 297/297
f 297/297 298/298 295/295
f 297/297 299/299 298/298
f 300/300 299/299 297/297
f 297/297 301/301 302/302
f 297/297 303/303 301/301
f 303/303 297/297 304/304
f 303/303 304/304 305/305
f 304/304 306/306 307/307
f 304/304 308/308 306/306
f 304/304 309/309 308/308
f 310/310 308/308 309/309
f 311/311 310/310 309/309
f 312/312 311/311 309/309
f 312/312 309/309 313/313
f 309/309 314/314 313/313
f 314/314 309/309 315/315
f 314/314 315/315 316/316
f 315/315 317/317 318/318
f 315/315 319/319 317/317
f 315/315 320/320 319/319
f 321/321 319/319 320/320
f 322/322 321/321 320/320
f 323/323 322/322 320/320
f 323/323 320/320 324/324
f 320/320 325/325 324/324
f 325/325 320/320 326/326
f 325/325 326/326 327/327
f 326/326 328/328 329/329
f 326/326 330/330 328/328
f 326/326 331/331 330/330
f 332/332 330/330 331/331
f 333/333 332/332 331/331
f 334/334 331/331 335/335
f 335/335 331/331 336/336
f 336/336 331/331 337/337
f 338/338 337/337 331/331
f 338/338 339/339 337/337
f 338/338 340/340 339/339
f 341/341 342/342 338/338
f 341/341 338/338 343/343
f 343/343 344/344 341/341
f 345/345 344/344 343/343
f 345/345 343/343 346/346
f 346/346 343/343 347/347
f 347/347 343/343 348/348
f 349/349 348/348 343/343
f 349/349 350/350 348/348
f 351/351 352/352 349/349
f 351/351 349/349 353/353
f 353/353 354/354 351/351
f 355/355 354/354 353/353
f 355/355 353/353 356/356
f 356/356 353/353 357/357
f 357/357 353/353 358/358
f 359/359 358/358 353/353
f 359/359 360/360 358/358
f 352/352 361/361 349/349
f 362/362 363/363 359/359
f 362/362 359/359 232/232
f 232/232 364/364 362/362
f 232/232 365/365 364/364
f 363/363 366/366 359/359
f 367/367 368/368 369/369
f 369/369 368/368 370/370
f 370/370 368/368 371/371
f 368/368 372/372 371/371
f 367/367 369/369 373/373
f 373/373 371/371 372/372
f 369/369 374/374 373/373
f 374/374 371/371 373/373
f 375/375 376/376 377/377
f 376/376 378/378 377/377
f 378/378 379/379 377/377
f 379/379 380/380 377/377
f 380/380 381/381 377/377
f 381/381 382/382 377/377
f 382/382 383/383 377/377
f 383/383 384/384 377/377
f 384/384 385/385 377/377
f 385/385 386/386 377/377
f 386/386 387/387 377/377
f 387/387 388/388 377/377
f 388/388 389/389 377/377
f 389/389 390/390 377/377
f 390/390 391/391 377/377
f 391/391 392/392 377/377
f 392/392 393/393 377/377
f 393/393 394/394 377/377
f 394/394 395/395 377/377
f 395/395 396/396 377/377
f 396/396 397/397 377/377
f 397/397 398/398 377/377
f 398/398 399/399 377/377
f 399/399 375/375 377/377
f 400/400 401/401 402/402
f 401/401 403/403 402/402
f 401/401 404/404 403/403
f 404/404 401/401 405/405
f 404/404 405/405 406/406
f 406/406 405/405 407/407
f 401/401 408/408 405/405
f 405/405 408/408 409/409
f 410/410 405/405 409/409
f 410/410 411/411 405/405
f 405/405 411/411 412/412
f 405/405 412/412 413/413
f 414/414 412/412 411/411
f 415/415 414/414 411/411
f 416/416 415/415 411/411
f 416/416 411/411 417/417
f 411/411 418/418 417/417
f 418/418 411/411 419/419
f 411/411 410/410 419/419
f 418/418 419/419 420/420
f 420/420 419/419 421/421
f 419/419 410/410 422/422
f 423/423 419/419 422/422
f 423/423 424/424 419/419
f 419/419 424/424 425/425
f 419/419 425/425 426/426
f 427/427 425/425 424/424
f 428/428 427/427 424/424
f 429/429 428/428 424/424
f 429/429 424/424 430/430
f 424/424 431/431 430/430
f 431/431 424/424 432/432
f 424/424 423/423 432/432
f 431/431 432/432 433/433
f 432/432 423/423 434/434
f 435/435 432/432 434/434
f 435/435 436/436 432/432
f 432/432 436/436 437/437
f 432/432 437/437 438/438
f 432/432 438/438 439/439
f 440/440 437/437 436/436
f 441/441 440/440 436/436
f 442/442 441/441 436/436
f 435/435 443/443 436/436
f 443/443 444/444 436/436
f 443/443 445/445 444/444
f 443/443 446/446 445/445
f 447/447 436/436 444/444
f 448/448 436/436 447/447
f 435/435 449/449 443/443
f 443/443 449/449 450/450
f 451/451 443/443 450/450
f 450/450 452/452 451/451
f 452/452 453/453 451/451
f 452/452 454/454 453/453
f 452/452 455/455 454/454
f 456/456 451/451 453/453
f 457/457 451/451 456/456
f 458/458 451/451 457/457
f 450/450 459/459 452/452
f 452/452 459/459 460/460
f 461/461 452/452 460/460
f 460/460 462/462 461/461
f 462/462 463/463 461/461
f 462/462 464/464 463/463
f 465/465 461/461 463/463
f 466/466 461/461 465/465
f 467/467 461/461 466/466
f 460/460 468/468 462/462
f 462/462 468/468 469/469
f 470/470 462/462 469/469
f 471/471 462/462 470/470
f 471/471 472/472 462/462
f 470/470 473/473 471/471
f 470/470 474/474 473/473
f 475/475 474/474 470/470
f 472/472 476/476 462/462
f 467/467 477/477 461/461
f 461/461 477/477 478/478
f 478/478 452/452 461/461
f 478/478 479/479 452/452
f 470/470 469/469 480/480
f 481/481 470/470 480/480
f 481/481 480/480 482/482
f 470/470 481/481 483/483
f 470/470 483/483 484/484
f 482/482 480/480 485/485
f 480/480 486/486 487/487
f 480/480 488/488 486/486
f 489/489 486/486 488/488
f 490/490 489/489 488/488
f 491/491 490/490 488/488
f 492/492 488/488 480/480
f 492/492 480/480 493/493
f 480/480 469/469 493/493
f 491/491 488/488 494/494
f 488/488 495/495 494/494
f 495/495 488/488 496/496
f 488/488 492/492 496/496
f 495/495 496/496 497/497
f 496/496 492/492 498/498
f 499/499 496/496 498/498
f 499/499 500/500 496/496
f 496/496 500/500 501/501
f 496/496 501/501 502/502
f 496/496 502/502 503/503
f 504/504 501/501 500/500
f 505/505 504/504 500/500
f 506/506 505/505 500/500
f 506/506 500/500 507/507
f 500/500 508/508 507/507
f 508/508 500/500 509/509
f 500/500 499/499 509/509
f 508/508 509/509 510/510
f 509/509 499/499 511/511
f 512/512 509/509 511/511
f 512/512 513/513 509/509
f 512/512 514/514 513/513
f 514/514 515/515 513/513
f 514/514 516/516 515/515
f 514/514 517/517 516/516
f 518/518 513/513 515/515
f 519/519 513/513 518/518
f 520/520 513/513 519/519
f 512/512 521/521 514/514
f 514/514 521/521 522/522
f 523/523 514/514 522/522
f 522/522 524/524 523/523
f 524/524 525/525 523/523
f 524/524 526/526 525/525
f 527/527 523/523 525/525
f 528/528 523/523 527/527
f 529/529 523/523 528/528
f 522/522 530/530 524/524
f 524/524 530/530 531/531
f 532/532 524/524 531/531
f 531/531 533/533 532/532
f 533/533 534/534 532/532
f 533/533 535/535 534/534
f 536/536 532/532 534/534
f 537/537 532/532 536/536
f 538/538 532/532 537/537
f 531/531 539/539 533/533
f 533/533 539/539 408/408
f 401/401 533/533 408/408
f 540/540 533/533 401/401
f 540/540 541/541 533/533
f 401/401 542/542 540/540
f 401/401 543/543 542/542
f 541/541 544/544 533/533
f 538/538 545/545 532/532
f 532/532 545/545 546/546
f 546/546 547/547 524/524
f 546/546 524/524 532/532
f 547/547 548/548 524/524
f 529/529 549/549 523/523
f 523/523 549/549 550/550
f 550/550 514/514 523/523
f 550/550 551/551 514/514
f 458/458 552/552 451/451
f 451/451 552/552 553/553
f 553/553 443/443 451/451
f 553/553 554/554 443/443
f 555/555 556/556 513/513
f 556/556 557/557 513/513
f 509/509 513/513 557/557
f 509/509 557/557 558/558
f 509/509 558/558 559/559
f 560/560 561/561 562/562
f 563/563 562/562 561/561
f 561/561 564/564 565/565
f 565/565 564/564 566/566
f 564/564 562/562 566/566
f 565/565 566/566 567/567
f 567/567 566/566 568/568
f 569/569 567/567 568/568
f 570/570 569/569 568/568
f 570/570 571/571 569/569
f 569/569 571/571 572/572
f 571/571 573/573 572/572
f 573/573 574/574 572/572
f 570/570 568/568 575/575
f 576/576 570/570 575/575
f 576/576 577/577 570/570
f 570/570 577/577 571/571
f 577/577 573/573 571/571
f 578/578 573/573 577/577
f 568/568 579/579 575/575
f 566/566 579/579 568/568
f 566/566 562/562 579/579
f 569/569 580/580 567/567
f 580/580 575/575 579/579
f 581/581 580/580 569/569
f 581/581 575/575 580/580
f 576/576 575/575 581/581
f 576/576 581/581 577/577
f 581/581 569/569 582/582
f 569/569 572/572 582/582
f 581/581 582/582 577/577
f 582/582 572/572 583/583
f 583/583 572/572 574/574
f 578/578 577/577 583/583
f 577/577 582/582 583/583
f 584/584 580/580 579/579
f 584/584 579/579 562/562
f 567/567 580/580 584/584
f 565/565 567/567 584/584
f 565/565 584/584 585/585
f 585/585 584/584 562/562
f 561/561 565/565 585/585
f 586/586 587/587 588/588
f 589/589 586/586 588/588
f 590/590 589/589 588/588
f 588/588 587/587 591/591
f 590/590 592/592 589/589
f 592/592 586/586 589/589
f 586/586 592/592 587/587
f 592/592 591/591 587/587
f 593/593 590/590 588/588
f 590/590 593/593 592/592
f 594/594 593/593 588/588
f 592/592 593/593 594/594
f 595/595 594/594 588/588
f 588/588 591/591 595/595
f 594/594 595/595 592/592
f 592/592 595/595 591/591
f 596/596 597/597 598/598
f 597/597 599/599 598/598
f 596/596 598/598 600/600
f 598/598 601/601 600/600
f 599/599 597/597 602/602
f 602/602 597/597 596/596
f 596/596 600/600 602/602
f 602/602 600/600 601/601
f 598/598 603/603 601/601
f 602/602 601/601 603/603
f 603/603 598/598 604/604
f 604/604 602/602 603/603
f 599/599 605/605 598/598
f 605/605 604/604 598/598
f 599/599 602/602 605/605
f 602/602 604/604 605/605
f 606/606 607/607 608/608
f 607/607 609/609 608/608
f 606/606 608/608 610/610
f 608/608 611/611 610/610
f 609/609 607/607 612/612
f 612/612 607/607 606/606
f 606/606 610/610 612/612
f 612/612 610/610 611/611
f 608/608 613/613 611/611
f 612/612 611/611 613/613
f 613/613 608/608 614/614
f 614/614 612/612 613/613
f 609/609 615/615 608/608
f 615/615 614/614 608/608
f 609/609 612/612 615/615
f 612/612 614/614 615/615
f 616/616 617/617 618/618
f 619/619 616/616 618/618
f 620/620 619/619 618/618
f 618/618 617/617 621/621
f 620/620 622/622 619/619
f 622/622 616/616 619/619
f 616/616 622/622 617/617
f 622/622 621/621 617/617
f 623/623 620/620 618/618
f 620/620 623/623 622/622
f 624/624 623/623 618/618
f 622/622 623/623 624/624
f 625/625 624/624 618/618
f 618/618 621/621 625/625
f 624/624 625/625 622/622
f 622/622 625/625 621/621
f 626/626 627/627 628/628
f 629/629 626/626 628/628
f 630/630 629/629 628/628
f 628/628 627/627 631/631
f 630/630 632/632 629/629
f 632/632 626/626 629/629
f 626/626 632/632 627/627
f 632/632 631/631 627/627
f 633/633 630/630 628/628
f 630/630 633/633 632/632
f 634/634 633/633 628/628
f 632/632 633/633 634/634
f 635/635 634/634 628/628
f 628/628 631/631 635/635
f 634/634 635/635 632/632
f 632/632 635/635 631/631
f 636/636 637/637 638/638
f 637/637 639/639 638/638
f 636/636 638/638 640/640
f 638/638 641/641 640/640
f 639/639 637/637 642/642
f 642/642 637/637 636/636
f 636/636 640/640 642/642
f 642/642 640/640 641/641
f 638/638 643/643 641/641
f 642/642 641/641 643/643
f 643/643 638/638 644/644
f 644/644 642/642 643/643
f 639/639 645/645 638/638
f 645/645 644/644 638/638
f 639/639 642/642 645/645
f 642/642 644/644 645/645
f 646/646 647/647 648/648
f 649/649 646/646 648/648
f 650/650 649/649 648/648
f 648/648 647/647 651/651
f 650/650 652/652 649/649
f 652/652 646/646 649/649
f 646/646 652/652 647/647
f 652/652 651/651 647/647
f 653/653 650/650 648/648
f 650/650 653/653 652/652
f 654/654 653/653 648/648
f 652/652 653/653 654/654
f 655/655 654/654 648/648
f 648/648 651/651 655/655
f 654/654 655/655 652/652
f 652/652 655/655 651/651
f 656/656 657/657 658/658
f 659/659 656/656 658/658
f 660/660 659/659 658/658
f 658/658 657/657 661/661
f 660/660 662/662 659/659
f 662/662 656/656 659/659
f 656/656 662/662 657/657
f 662/662 661/661 657/657
f 663/663 660/660 658/658
f 660/660 663/663 662/662
f 664/664 663/663 658/658
f 662/662 663/663 664/664
f 665/665 664/664 658/658
f 658/658 661/661 665/665
f 664/664 665/665 662/662
f 662/662 665/665 661/661
f 666/666 667/667 668/668
f 667/667 669/669 668/668
f 666/666 668/668 670/670
f 668/668 671/671 670/670
f 669/669 667/667 672/672
f 672/672 667/667 666/666
f 666/666 670/670 672/672
f 672/672 670/670 671/671
f 668/668 673/673 671/671
f 672/672 671/671 673/673
f 673/673 668/668 674/674
f 674/674 672/672 673/673
f 669/669 675/675 668/668
f 675/675 674/674 668/668
f 669/669 672/672 675/675
f 672/672 674/674 675/675
f 676/676 677/677 678/678
f 677/677 679/679 678/678
f 676/676 678/678 680/680
f 678/678 681/681 680/680
f 679/679 677/677 682/682
f 682/682 677/677 676/676
f 676/676 680/680 682/682
f 682/682 680/680 681/681
f 678/678 683/683 681/681
f 682/682 681/681 683/683
f 683/683 678/678 684/684
f 684/684 682/682 683/683
f 679/679 685/685 678/678
f 685/685 684/684 678/678
f 679/679 682/682 685/685
f 682/682 684/684 685/685
f 686/686 687/687 688/688
f 689/689 686/686 688/688
f 690/690 689/689 688/688
f 688/688 687/687 691/691
f 690/690 692/692 689/689
f 692/692 686/686 689/689
f 686/686 692/692 687/687
f 692/692 691/691 687/687
f 693/693 690/690 688/688
f 690/690 693/693 692/692
f 694/694 693/693 688/688
f 692/692 693/693 694/694
f 695/695 694/694 688/688
f 688/688 691/691 695/695
f 694/694 695/695 692/692
f 692/692 695/695 691/691
f 696/696 697/697 698/698
f 697/697 699/699 698/698
f 696/696 698/698 700/700
f 698/698 701/701 700/700
f 699/699 697/697 702/702
f 702/702 697/697 696/696
f 696/696 700/700 702/702
f 702/702 700/700 701/701
f 698/698 703/703 701/701
f 702/702 701/701 703/703
f 703/703 698/698 704/704
f 704/704 702/702 703/703
f 699/699 705/705 698/698
f 705/705 704/704 698/698
f 699/699 702/702 705/705
f 702/702 704/704 705/705
