mtllib options1032.mtl
o options1032
v -0.15822 -0.08064 2.51624 0.000 1.000 0.000
v -0.20588 0.00000 2.51624 0.000 1.000 0.000
v -0.12247 0.00000 2.40988 0.000 1.000 0.000
v -0.16152 -0.18070 2.69908 0.000 1.000 0.000
v -0.30397 -0.16436 2.57371 0.000 0.996 0.000
v -0.18013 -0.13808 2.58172 0.000 1.000 0.000
v -0.14200 -0.16169 2.43180 0.000 0.976 0.000
v -0.00910 -0.14058 2.55494 0.000 1.000 0.000
v -0.00872 -0.18175 2.61443 0.000 1.000 0.000
v -0.15822 -0.08064 2.51624 0.000 1.000 0.000
v -0.18013 -0.13808 2.58172 0.000 1.000 0.000
v -0.27042 -0.06070 2.44312 0.000 0.973 0.000
v -0.18013 -0.13808 2.58172 0.000 1.000 0.000
v -0.30397 -0.16436 2.57371 0.000 0.996 0.000
v -0.28011 -0.09531 2.60719 0.000 1.000 0.000
v -0.16152 -0.18070 2.69908 0.000 1.000 0.000
v -0.18013 -0.13808 2.58172 0.000 1.000 0.000
v -0.18587 -0.25106 2.54176 0.000 0.906 0.000
v -0.00872 -0.18175 2.61443 0.000 1.000 0.000
v -0.18587 -0.25106 2.54176 0.000 0.906 0.000
v -0.18013 -0.13808 2.58172 0.000 1.000 0.000
v -0.14200 -0.16169 2.43180 0.000 0.976 0.000
v -0.00872 -0.18175 2.61443 0.000 1.000 0.000
v -0.18013 -0.13808 2.58172 0.000 1.000 0.000
v -0.18013 -0.13808 2.58172 0.000 1.000 0.000
v -0.15822 -0.08064 2.51624 0.000 1.000 0.000
v -0.14200 -0.16169 2.43180 0.000 0.976 0.000
v -0.27042 -0.06070 2.44312 0.000 0.973 0.000
v -0.26698 0.00000 2.58910 0.000 1.000 0.000
v -0.20588 0.00000 2.51624 0.000 1.000 0.000
v -0.20588 0.00000 2.51624 0.000 1.000 0.000
v -0.15822 -0.08064 2.51624 0.000 1.000 0.000
v -0.27042 -0.06070 2.44312 0.000 0.973 0.000
v -0.00910 -0.14058 2.55494 0.000 1.000 0.000
v -0.14200 -0.16169 2.43180 0.000 0.976 0.000
v -0.09246 -0.09671 2.51624 0.000 1.000 0.000
v -0.14200 -0.16169 2.43180 0.000 0.976 0.000
v -0.15822 -0.08064 2.51624 0.000 1.000 0.000
v -0.09246 -0.09671 2.51624 0.000 1.000 0.000
v -0.40732 0.00000 2.59465 0.000 0.945 0.000
v -0.28011 -0.09531 2.60719 0.000 1.000 0.000
v -0.26296 -0.07616 2.75053 0.000 1.000 0.000
v -0.26296 -0.07616 2.75053 0.000 1.000 0.000
v -0.31195 0.00000 2.70812 0.000 1.000 0.000
v -0.40732 0.00000 2.59465 0.000 0.945 0.000
v -0.26698 0.00000 2.58910 0.000 1.000 0.000
v -0.27042 -0.06070 2.44312 0.000 0.973 0.000
v -0.28011 -0.09531 2.60719 0.000 1.000 0.000
v -0.26296 -0.07616 2.75053 0.000 1.000 0.000
v -0.25861 -0.13772 2.67273 0.000 1.000 0.000
v -0.36325 -0.20270 2.69780 0.000 0.925 0.000
v -0.16152 -0.18070 2.69908 0.000 1.000 0.000
v -0.36325 -0.20270 2.69780 0.000 0.925 0.000
v -0.25861 -0.13772 2.67273 0.000 1.000 0.000
v -0.25861 -0.13772 2.67273 0.000 1.000 0.000
v -0.30397 -0.16436 2.57371 0.000 0.996 0.000
v -0.16152 -0.18070 2.69908 0.000 1.000 0.000
v -0.00450 -0.20975 2.68058 0.000 1.000 0.000
v -0.16152 -0.18070 2.69908 0.000 1.000 0.000
v -0.18587 -0.25106 2.54176 0.000 0.906 0.000
v -0.12507 -0.34074 2.62201 0.000 0.859 0.000
v -0.16152 -0.18070 2.69908 0.000 1.000 0.000
v -0.00450 -0.20975 2.68058 0.000 1.000 0.000
v -0.28011 -0.09531 2.60719 0.000 1.000 0.000
v -0.27042 -0.06070 2.44312 0.000 0.973 0.000
v -0.18013 -0.13808 2.58172 0.000 1.000 0.000
v -0.28011 -0.09531 2.60719 0.000 1.000 0.000
v -0.40732 0.00000 2.59465 0.000 0.945 0.000
v -0.26698 0.00000 2.58910 0.000 1.000 0.000
v 0.15776 -0.10791 2.91519 0.000 1.000 0.000
v 0.22446 -0.21323 2.91551 0.000 0.788 0.000
v 0.19745 -0.08827 2.84924 0.000 1.000 0.000
v 0.19745 -0.08827 2.84924 0.000 1.000 0.000
v 0.15448 -0.13887 2.81354 0.000 1.000 0.000
v 0.29597 -0.15102 2.81354 0.000 0.808 0.000
v 0.15448 -0.13887 2.81354 0.000 1.000 0.000
v 0.17985 -0.11533 2.75677 0.000 1.000 0.000
v 0.29597 -0.15102 2.81354 0.000 0.808 0.000
v 0.23740 0.00000 2.75620 0.000 1.000 0.000
v 0.36994 0.00000 2.82238 0.000 0.792 0.000
v 0.21008 -0.05663 2.79126 0.000 1.000 0.000
v 0.17985 -0.11533 2.75677 0.000 1.000 0.000
v 0.21008 -0.05663 2.79126 0.000 1.000 0.000
v 0.29597 -0.15102 2.81354 0.000 0.808 0.000
v 0.21008 -0.05663 2.79126 0.000 1.000 0.000
v 0.19745 -0.08827 2.84924 0.000 1.000 0.000
v 0.29597 -0.15102 2.81354 0.000 0.808 0.000
v 0.10295 -0.17181 2.76892 0.000 1.000 0.000
v 0.15448 -0.13887 2.81354 0.000 1.000 0.000
v 0.22446 -0.21323 2.91551 0.000 0.788 0.000
v 0.15448 -0.13887 2.81354 0.000 1.000 0.000
v 0.19745 -0.08827 2.84924 0.000 1.000 0.000
v 0.22446 -0.21323 2.91551 0.000 0.788 0.000
v -0.26131 0.00000 2.83250 0.000 1.000 0.000
v -0.28873 -0.15057 2.93477 0.000 0.882 0.000
v -0.18196 -0.09625 2.88180 0.000 1.000 0.000
v -0.26131 0.00000 2.83250 0.000 1.000 0.000
v -0.42313 0.00000 2.81266 0.000 0.875 0.000
v -0.26296 -0.07616 2.75053 0.000 1.000 0.000
v -0.42313 0.00000 2.81266 0.000 0.875 0.000
v -0.31195 0.00000 2.70812 0.000 1.000 0.000
v -0.26296 -0.07616 2.75053 0.000 1.000 0.000
v -0.26296 -0.07616 2.75053 0.000 1.000 0.000
v -0.28873 -0.15057 2.93477 0.000 0.882 0.000
v -0.26131 0.00000 2.83250 0.000 1.000 0.000
v -0.00450 -0.20975 2.68058 0.000 1.000 0.000
v 0.03299 -0.31419 2.71143 0.000 0.804 0.000
v 0.00680 -0.21469 2.77733 0.000 1.000 0.000
v -0.21396 -0.28811 2.78285 0.000 0.863 0.000
v -0.21059 -0.13860 2.79004 0.000 1.000 0.000
v -0.16152 -0.18070 2.69908 0.000 1.000 0.000
v -0.18196 -0.09625 2.88180 0.000 1.000 0.000
v 0.08137 -0.24984 2.99596 0.000 0.820 0.000
v 0.01405 -0.12852 2.94737 0.000 1.000 0.000
v 0.08137 -0.24984 2.99596 0.000 0.820 0.000
v 0.00444 -0.19062 2.85424 0.000 1.000 0.000
v 0.08542 -0.16414 2.87962 0.000 1.000 0.000
v 0.02125 -0.15509 3.06427 0.000 0.867 0.000
v 0.01405 -0.12852 2.94737 0.000 1.000 0.000
v 0.03025 -0.06444 2.99137 0.000 1.000 0.000
v 0.02125 -0.15509 3.06427 0.000 0.867 0.000
v -0.18196 -0.09625 2.88180 0.000 1.000 0.000
v 0.01405 -0.12852 2.94737 0.000 1.000 0.000
v -0.08083 -0.05818 2.97673 0.000 1.000 0.000
v 0.02125 -0.15509 3.06427 0.000 0.867 0.000
v 0.03025 -0.06444 2.99137 0.000 1.000 0.000
v -0.02406 0.00000 3.01230 0.000 1.000 0.000
v -0.01553 0.00000 3.10244 0.000 0.859 0.000
v -0.08083 -0.05818 2.97673 0.000 1.000 0.000
v -0.18196 -0.09625 2.88180 0.000 1.000 0.000
v -0.28873 -0.15057 2.93477 0.000 0.882 0.000
v -0.21059 -0.13860 2.79004 0.000 1.000 0.000
v 0.03629 -0.21771 2.67338 0.000 1.000 0.000
v 0.10295 -0.17181 2.76892 0.000 1.000 0.000
v 0.03299 -0.31419 2.71143 0.000 0.804 0.000
v 0.03299 -0.31419 2.71143 0.000 0.804 0.000
v -0.00450 -0.20975 2.68058 0.000 1.000 0.000
v 0.03629 -0.21771 2.67338 0.000 1.000 0.000
v 0.08542 -0.16414 2.87962 0.000 1.000 0.000
v 0.01405 -0.12852 2.94737 0.000 1.000 0.000
v 0.08137 -0.24984 2.99596 0.000 0.820 0.000
v -0.26296 -0.07616 2.75053 0.000 1.000 0.000
v -0.36325 -0.20270 2.69780 0.000 0.925 0.000
v -0.21059 -0.13860 2.79004 0.000 1.000 0.000
v -0.21059 -0.13860 2.79004 0.000 1.000 0.000
v -0.28873 -0.15057 2.93477 0.000 0.882 0.000
v -0.26296 -0.07616 2.75053 0.000 1.000 0.000
v 0.10650 -0.27342 2.85737 0.000 0.847 0.000
v 0.00680 -0.21469 2.77733 0.000 1.000 0.000
v 0.10295 -0.17181 2.76892 0.000 1.000 0.000
v 0.08542 -0.16414 2.87962 0.000 1.000 0.000
v 0.00444 -0.19062 2.85424 0.000 1.000 0.000
v 0.10650 -0.27342 2.85737 0.000 0.847 0.000
v 0.00680 -0.21469 2.77733 0.000 1.000 0.000
v 0.10650 -0.27342 2.85737 0.000 0.847 0.000
v 0.00444 -0.19062 2.85424 0.000 1.000 0.000
v 0.00444 -0.19062 2.85424 0.000 1.000 0.000
v 0.08137 -0.24984 2.99596 0.000 0.820 0.000
v -0.11585 -0.17608 2.84675 0.000 1.000 0.000
v 0.19745 -0.08827 2.84924 0.000 1.000 0.000
v 0.30923 0.00000 3.09332 0.000 0.749 0.000
v 0.08542 -0.16414 2.87962 0.000 1.000 0.000
v 0.30923 0.00000 3.09332 0.000 0.749 0.000
v 0.01405 -0.12852 2.94737 0.000 1.000 0.000
v 0.08542 -0.16414 2.87962 0.000 1.000 0.000
v 0.30923 0.00000 3.09332 0.000 0.749 0.000
v 0.19745 -0.08827 2.84924 0.000 1.000 0.000
v 0.22837 0.00000 2.85910 0.000 1.000 0.000
v -0.12507 -0.34074 2.62201 0.000 0.859 0.000
v -0.00450 -0.20975 2.68058 0.000 1.000 0.000
v 0.00680 -0.21469 2.77733 0.000 1.000 0.000
v 0.10295 -0.17181 2.76892 0.000 1.000 0.000
v 0.00680 -0.21469 2.77733 0.000 1.000 0.000
v 0.03299 -0.31419 2.71143 0.000 0.804 0.000
v -0.08444 -0.22237 2.76824 0.000 1.000 0.000
v -0.16152 -0.18070 2.69908 0.000 1.000 0.000
v -0.12507 -0.34074 2.62201 0.000 0.859 0.000
v -0.08444 -0.22237 2.76824 0.000 1.000 0.000
v -0.21396 -0.28811 2.78285 0.000 0.863 0.000
v -0.16152 -0.18070 2.69908 0.000 1.000 0.000
v 0.10295 -0.17181 2.76892 0.000 1.000 0.000
v 0.08542 -0.16414 2.87962 0.000 1.000 0.000
v 0.10650 -0.27342 2.85737 0.000 0.847 0.000
v 0.22446 -0.21323 2.91551 0.000 0.788 0.000
v 0.15776 -0.10791 2.91519 0.000 1.000 0.000
v 0.08542 -0.16414 2.87962 0.000 1.000 0.000
v 0.08542 -0.16414 2.87962 0.000 1.000 0.000
v 0.10295 -0.17181 2.76892 0.000 1.000 0.000
v 0.22446 -0.21323 2.91551 0.000 0.788 0.000
v -0.11585 -0.17608 2.84675 0.000 1.000 0.000
v -0.21059 -0.13860 2.79004 0.000 1.000 0.000
v -0.21396 -0.28811 2.78285 0.000 0.863 0.000
v -0.16152 -0.18070 2.69908 0.000 1.000 0.000
v -0.21059 -0.13860 2.79004 0.000 1.000 0.000
v -0.36325 -0.20270 2.69780 0.000 0.925 0.000
v -0.00872 -0.18175 2.61443 0.000 1.000 0.000
v 0.07616 -0.19148 2.66553 0.000 1.000 0.000
v 0.03629 -0.21771 2.67338 0.000 1.000 0.000
v -0.00872 -0.18175 2.61443 0.000 1.000 0.000
v -0.00450 -0.20975 2.68058 0.000 1.000 0.000
v -0.18587 -0.25106 2.54176 0.000 0.906 0.000
v -0.15822 0.08064 2.51624 0.000 1.000 0.000
v -0.12247 0.00000 2.40988 0.000 1.000 0.000
v -0.20588 0.00000 2.51624 0.000 1.000 0.000
v -0.16152 0.18070 2.69908 0.000 1.000 0.000
v -0.18013 0.13808 2.58172 0.000 1.000 0.000
v -0.30397 0.16436 2.57371 0.000 0.996 0.000
v -0.14200 0.16169 2.43180 0.000 0.976 0.000
v -0.00872 0.18175 2.61443 0.000 1.000 0.000
v -0.00910 0.14058 2.55494 0.000 1.000 0.000
v -0.15822 0.08064 2.51624 0.000 1.000 0.000
v -0.27042 0.06070 2.44312 0.000 0.973 0.000
v -0.18013 0.13808 2.58172 0.000 1.000 0.000
v -0.18013 0.13808 2.58172 0.000 1.000 0.000
v -0.28011 0.09531 2.60719 0.000 1.000 0.000
v -0.30397 0.16436 2.57371 0.000 0.996 0.000
v -0.16152 0.18070 2.69908 0.000 1.000 0.000
v -0.18587 0.25106 2.54176 0.000 0.906 0.000
v -0.18013 0.13808 2.58172 0.000 1.000 0.000
v -0.00872 0.18175 2.61443 0.000 1.000 0.000
v -0.18013 0.13808 2.58172 0.000 1.000 0.000
v -0.18587 0.25106 2.54176 0.000 0.906 0.000
v -0.14200 0.16169 2.43180 0.000 0.976 0.000
v -0.18013 0.13808 2.58172 0.000 1.000 0.000
v -0.00872 0.18175 2.61443 0.000 1.000 0.000
v -0.18013 0.13808 2.58172 0.000 1.000 0.000
v -0.14200 0.16169 2.43180 0.000 0.976 0.000
v -0.15822 0.08064 2.51624 0.000 1.000 0.000
v -0.27042 0.06070 2.44312 0.000 0.973 0.000
v -0.20588 0.00000 2.51624 0.000 1.000 0.000
v -0.26698 0.00000 2.58910 0.000 1.000 0.000
v -0.20588 0.00000 2.51624 0.000 1.000 0.000
v -0.27042 0.06070 2.44312 0.000 0.973 0.000
v -0.15822 0.08064 2.51624 0.000 1.000 0.000
v -0.00910 0.14058 2.55494 0.000 1.000 0.000
v -0.09246 0.09671 2.51624 0.000 1.000 0.000
v -0.14200 0.16169 2.43180 0.000 0.976 0.000
v -0.14200 0.16169 2.43180 0.000 0.976 0.000
v -0.09246 0.09671 2.51624 0.000 1.000 0.000
v -0.15822 0.08064 2.51624 0.000 1.000 0.000
v -0.40732 0.00000 2.59465 0.000 0.945 0.000
v -0.26296 0.07616 2.75053 0.000 1.000 0.000
v -0.28011 0.09531 2.60719 0.000 1.000 0.000
v -0.26296 0.07616 2.75053 0.000 1.000 0.000
v -0.40732 0.00000 2.59465 0.000 0.945 0.000
v -0.31195 0.00000 2.70812 0.000 1.000 0.000
v -0.26698 0.00000 2.58910 0.000 1.000 0.000
v -0.28011 0.09531 2.60719 0.000 1.000 0.000
v -0.27042 0.06070 2.44312 0.000 0.973 0.000
v -0.26296 0.07616 2.75053 0.000 1.000 0.000
v -0.36325 0.20270 2.69780 0.000 0.925 0.000
v -0.25861 0.13772 2.67273 0.000 1.000 0.000
v -0.16152 0.18070 2.69908 0.000 1.000 0.000
v -0.25861 0.13772 2.67273 0.000 1.000 0.000
v -0.36325 0.20270 2.69780 0.000 0.925 0.000
v -0.25861 0.13772 2.67273 0.000 1.000 0.000
v -0.16152 0.18070 2.69908 0.000 1.000 0.000
v -0.30397 0.16436 2.57371 0.000 0.996 0.000
v -0.00450 0.20975 2.68058 0.000 1.000 0.000
v -0.18587 0.25106 2.54176 0.000 0.906 0.000
v -0.16152 0.18070 2.69908 0.000 1.000 0.000
v -0.12507 0.34074 2.62201 0.000 0.859 0.000
v -0.00450 0.20975 2.68058 0.000 1.000 0.000
v -0.16152 0.18070 2.69908 0.000 1.000 0.000
v -0.28011 0.09531 2.60719 0.000 1.000 0.000
v -0.18013 0.13808 2.58172 0.000 1.000 0.000
v -0.27042 0.06070 2.44312 0.000 0.973 0.000
v -0.28011 0.09531 2.60719 0.000 1.000 0.000
v -0.26698 0.00000 2.58910 0.000 1.000 0.000
v -0.40732 0.00000 2.59465 0.000 0.945 0.000
v 0.15776 0.10791 2.91519 0.000 1.000 0.000
v 0.19745 0.08827 2.84924 0.000 1.000 0.000
v 0.22446 0.21323 2.91551 0.000 0.788 0.000
v 0.19745 0.08827 2.84924 0.000 1.000 0.000
v 0.29597 0.15102 2.81354 0.000 0.808 0.000
v 0.15448 0.13887 2.81354 0.000 1.000 0.000
v 0.15448 0.13887 2.81354 0.000 1.000 0.000
v 0.29597 0.15102 2.81354 0.000 0.808 0.000
v 0.17985 0.11533 2.75677 0.000 1.000 0.000
v 0.23740 0.00000 2.75620 0.000 1.000 0.000
v 0.21008 0.05663 2.79126 0.000 1.000 0.000
v 0.36994 0.00000 2.82238 0.000 0.792 0.000
v 0.17985 0.11533 2.75677 0.000 1.000 0.000
v 0.29597 0.15102 2.81354 0.000 0.808 0.000
v 0.21008 0.05663 2.79126 0.000 1.000 0.000
v 0.21008 0.05663 2.79126 0.000 1.000 0.000
v 0.29597 0.15102 2.81354 0.000 0.808 0.000
v 0.19745 0.08827 2.84924 0.000 1.000 0.000
v 0.10295 0.17181 2.76892 0.000 1.000 0.000
v 0.22446 0.21323 2.91551 0.000 0.788 0.000
v 0.15448 0.13887 2.81354 0.000 1.000 0.000
v 0.15448 0.13887 2.81354 0.000 1.000 0.000
v 0.22446 0.21323 2.91551 0.000 0.788 0.000
v 0.19745 0.08827 2.84924 0.000 1.000 0.000
v -0.26131 0.00000 2.83250 0.000 1.000 0.000
v -0.18196 0.09625 2.88180 0.000 1.000 0.000
v -0.28873 0.15057 2.93477 0.000 0.882 0.000
v -0.26131 0.00000 2.83250 0.000 1.000 0.000
v -0.26296 0.07616 2.75053 0.000 1.000 0.000
v -0.42313 0.00000 2.81266 0.000 0.875 0.000
v -0.42313 0.00000 2.81266 0.000 0.875 0.000
v -0.26296 0.07616 2.75053 0.000 1.000 0.000
v -0.31195 0.00000 2.70812 0.000 1.000 0.000
v -0.26296 0.07616 2.75053 0.000 1.000 0.000
v -0.26131 0.00000 2.83250 0.000 1.000 0.000
v -0.28873 0.15057 2.93477 0.000 0.882 0.000
v -0.00450 0.20975 2.68058 0.000 1.000 0.000
v 0.00680 0.21469 2.77733 0.000 1.000 0.000
v 0.03299 0.31419 2.71143 0.000 0.804 0.000
v -0.21396 0.28811 2.78285 0.000 0.863 0.000
v -0.16152 0.18070 2.69908 0.000 1.000 0.000
v -0.21059 0.13860 2.79004 0.000 1.000 0.000
v -0.18196 0.09625 2.88180 0.000 1.000 0.000
v 0.01405 0.12852 2.94737 0.000 1.000 0.000
v 0.08137 0.24984 2.99596 0.000 0.820 0.000
v 0.08137 0.24984 2.99596 0.000 0.820 0.000
v 0.08542 0.16414 2.87962 0.000 1.000 0.000
v 0.00444 0.19062 2.85424 0.000 1.000 0.000
v 0.02125 0.15509 3.06427 0.000 0.867 0.000
v 0.03025 0.06444 2.99137 0.000 1.000 0.000
v 0.01405 0.12852 2.94737 0.000 1.000 0.000
v 0.02125 0.15509 3.06427 0.000 0.867 0.000
v 0.01405 0.12852 2.94737 0.000 1.000 0.000
v -0.18196 0.09625 2.88180 0.000 1.000 0.000
v -0.08083 0.05818 2.97673 0.000 1.000 0.000
v 0.03025 0.06444 2.99137 0.000 1.000 0.000
v 0.02125 0.15509 3.06427 0.000 0.867 0.000
v -0.02406 0.00000 3.01230 0.000 1.000 0.000
v -0.08083 0.05818 2.97673 0.000 1.000 0.000
v -0.01553 0.00000 3.10244 0.000 0.859 0.000
v -0.18196 0.09625 2.88180 0.000 1.000 0.000
v -0.21059 0.13860 2.79004 0.000 1.000 0.000
v -0.28873 0.15057 2.93477 0.000 0.882 0.000
v 0.03629 0.21771 2.67338 0.000 1.000 0.000
v 0.03299 0.31419 2.71143 0.000 0.804 0.000
v 0.10295 0.17181 2.76892 0.000 1.000 0.000
v 0.03299 0.31419 2.71143 0.000 0.804 0.000
v 0.03629 0.21771 2.67338 0.000 1.000 0.000
v -0.00450 0.20975 2.68058 0.000 1.000 0.000
v 0.08542 0.16414 2.87962 0.000 1.000 0.000
v 0.08137 0.24984 2.99596 0.000 0.820 0.000
v 0.01405 0.12852 2.94737 0.000 1.000 0.000
v -0.26296 0.07616 2.75053 0.000 1.000 0.000
v -0.21059 0.13860 2.79004 0.000 1.000 0.000
v -0.36325 0.20270 2.69780 0.000 0.925 0.000
v -0.21059 0.13860 2.79004 0.000 1.000 0.000
v -0.26296 0.07616 2.75053 0.000 1.000 0.000
v -0.28873 0.15057 2.93477 0.000 0.882 0.000
v 0.10650 0.27342 2.85737 0.000 0.847 0.000
v 0.10295 0.17181 2.76892 0.000 1.000 0.000
v 0.00680 0.21469 2.77733 0.000 1.000 0.000
v 0.08542 0.16414 2.87962 0.000 1.000 0.000
v 0.10650 0.27342 2.85737 0.000 0.847 0.000
v 0.00444 0.19062 2.85424 0.000 1.000 0.000
v 0.00680 0.21469 2.77733 0.000 1.000 0.000
v 0.00444 0.19062 2.85424 0.000 1.000 0.000
v 0.10650 0.27342 2.85737 0.000 0.847 0.000
v 0.00444 0.19062 2.85424 0.000 1.000 0.000
v -0.11585 0.17608 2.84675 0.000 1.000 0.000
v 0.08137 0.24984 2.99596 0.000 0.820 0.000
v 0.19745 0.08827 2.84924 0.000 1.000 0.000
v 0.08542 0.16414 2.87962 0.000 1.000 0.000
v 0.30923 0.00000 3.09332 0.000 0.749 0.000
v 0.30923 0.00000 3.09332 0.000 0.749 0.000
v 0.08542 0.16414 2.87962 0.000 1.000 0.000
v 0.01405 0.12852 2.94737 0.000 1.000 0.000
v 0.30923 0.00000 3.09332 0.000 0.749 0.000
v 0.22837 0.00000 2.85910 0.000 1.000 0.000
v 0.19745 0.08827 2.84924 0.000 1.000 0.000
v -0.12507 0.34074 2.62201 0.000 0.859 0.000
v 0.00680 0.21469 2.77733 0.000 1.000 0.000
v -0.00450 0.20975 2.68058 0.000 1.000 0.000
v 0.10295 0.17181 2.76892 0.000 1.000 0.000
v 0.03299 0.31419 2.71143 0.000 0.804 0.000
v 0.00680 0.21469 2.77733 0.000 1.000 0.000
v -0.08444 0.22237 2.76824 0.000 1.000 0.000
v -0.12507 0.34074 2.62201 0.000 0.859 0.000
v -0.16152 0.18070 2.69908 0.000 1.000 0.000
v -0.08444 0.22237 2.76824 0.000 1.000 0.000
v -0.16152 0.18070 2.69908 0.000 1.000 0.000
v -0.21396 0.28811 2.78285 0.000 0.863 0.000
v 0.10295 0.17181 2.76892 0.000 1.000 0.000
v 0.10650 0.27342 2.85737 0.000 0.847 0.000
v 0.08542 0.16414 2.87962 0.000 1.000 0.000
v 0.22446 0.21323 2.91551 0.000 0.788 0.000
v 0.08542 0.16414 2.87962 0.000 1.000 0.000
v 0.15776 0.10791 2.91519 0.000 1.000 0.000
v 0.08542 0.16414 2.87962 0.000 1.000 0.000
v 0.22446 0.21323 2.91551 0.000 0.788 0.000
v 0.10295 0.17181 2.76892 0.000 1.000 0.000
v -0.11585 0.17608 2.84675 0.000 1.000 0.000
v -0.21396 0.28811 2.78285 0.000 0.863 0.000
v -0.21059 0.13860 2.79004 0.000 1.000 0.000
v -0.16152 0.18070 2.69908 0.000 1.000 0.000
v -0.36325 0.20270 2.69780 0.000 0.925 0.000
v -0.21059 0.13860 2.79004 0.000 1.000 0.000
v -0.00872 0.18175 2.61443 0.000 1.000 0.000
v 0.03629 0.21771 2.67338 0.000 1.000 0.000
v 0.07616 0.19148 2.66553 0.000 1.000 0.000
v -0.00872 0.18175 2.61443 0.000 1.000 0.000
v -0.00450 0.20975 2.68058 0.000 1.000 0.000
v -0.18587 0.25106 2.54176 0.000 0.906 0.000
v -0.12247 0.00000 2.40988 0.000 1.000 0.000
v -0.09246 -0.04453 2.46857 0.000 1.000 0.000
v -0.09246 -0.09671 2.51624 0.000 1.000 0.000
v -0.15822 -0.08064 2.51624 0.000 1.000 0.000
v -0.09246 0.09671 2.51624 0.000 1.000 0.000
v -0.09246 0.04453 2.46857 0.000 1.000 0.000
v -0.15822 0.08064 2.51624 0.000 1.000 0.000
v -0.09246 -0.04453 2.46857 0.000 1.000 0.000
v -0.03494 -0.11252 2.51624 0.000 1.000 0.000
v -0.09246 -0.09671 2.51624 0.000 1.000 0.000
v -0.00910 -0.14058 2.55494 0.000 1.000 0.000
v -0.25861 -0.13772 2.67273 0.000 1.000 0.000
v -0.26296 -0.07616 2.75053 0.000 1.000 0.000
v -0.28011 -0.09531 2.60719 0.000 1.000 0.000
v -0.30397 -0.16436 2.57371 0.000 0.996 0.000
v 0.17985 -0.11533 2.75677 0.000 1.000 0.000
v 0.15448 -0.13887 2.81354 0.000 1.000 0.000
v 0.15814 -0.15511 2.71085 0.000 1.000 0.000
v 0.18212 -0.12744 2.69546 0.000 0.973 0.000
v 0.15861 -0.14391 2.66209 0.000 1.000 0.000
v 0.17372 -0.12283 2.66209 0.000 1.000 0.000
v 0.16005 -0.11482 2.63196 0.000 1.000 0.000
v 0.21008 -0.05663 2.79126 0.000 1.000 0.000
v 0.36994 0.00000 2.82238 0.000 0.792 0.000
v 0.22837 0.00000 2.85910 0.000 1.000 0.000
v 0.19745 -0.08827 2.84924 0.000 1.000 0.000
v 0.17544 -0.06356 2.62066 0.000 1.000 0.000
v 0.20800 -0.06986 2.65813 0.000 1.000 0.000
v 0.18082 -0.10980 2.65813 0.000 1.000 0.000
v 0.18212 -0.12744 2.69546 0.000 0.973 0.000
v 0.21683 -0.07099 2.70209 0.000 0.929 0.000
v 0.17985 -0.11533 2.75677 0.000 1.000 0.000
v 0.21008 -0.05663 2.79126 0.000 1.000 0.000
v 0.20997 -0.04174 2.63974 0.000 1.000 0.000
v 0.19611 -0.01492 2.60912 0.000 1.000 0.000
v 0.23242 -0.00889 2.63974 0.000 1.000 0.000
v 0.24756 0.00000 2.67133 0.000 1.000 0.000
v 0.21645 -0.05855 2.67133 0.000 1.000 0.000
v 0.21683 -0.07099 2.70209 0.000 0.929 0.000
v 0.24993 0.00000 2.70934 0.000 0.984 0.000
v 0.23740 0.00000 2.75620 0.000 1.000 0.000
v 0.21008 -0.05663 2.79126 0.000 1.000 0.000
v -0.12507 -0.34074 2.62201 0.000 0.859 0.000
v 0.00680 -0.21469 2.77733 0.000 1.000 0.000
v -0.08444 -0.22237 2.76824 0.000 1.000 0.000
v 0.00444 -0.19062 2.85424 0.000 1.000 0.000
v -0.11585 -0.17608 2.84675 0.000 1.000 0.000
v 0.08137 -0.24984 2.99596 0.000 0.820 0.000
v -0.18196 -0.09625 2.88180 0.000 1.000 0.000
v -0.21059 -0.13860 2.79004 0.000 1.000 0.000
v -0.18196 -0.09625 2.88180 0.000 1.000 0.000
v 0.02125 -0.15509 3.06427 0.000 0.867 0.000
v -0.08083 -0.05818 2.97673 0.000 1.000 0.000
v -0.17207 0.00000 2.96285 0.000 1.000 0.000
v -0.01553 0.00000 3.10244 0.000 0.859 0.000
v -0.26131 0.00000 2.83250 0.000 1.000 0.000
v 0.01405 -0.12852 2.94737 0.000 1.000 0.000
v 0.30923 0.00000 3.09332 0.000 0.749 0.000
v 0.10938 0.00000 3.05190 0.000 1.000 0.000
v -0.08083 -0.05818 2.97673 0.000 1.000 0.000
v -0.02406 0.00000 3.01230 0.000 1.000 0.000
v 0.04080 -0.22297 2.50011 0.000 0.949 0.000
v 0.03538 -0.22707 2.58435 0.000 1.000 0.000
v 0.00896 -0.19895 2.58435 0.000 1.000 0.000
v -0.00450 -0.20975 2.68058 0.000 1.000 0.000
v 0.03629 -0.21771 2.67338 0.000 1.000 0.000
v 0.07616 -0.19148 2.66553 0.000 1.000 0.000
v 0.10295 -0.17181 2.76892 0.000 1.000 0.000
v 0.06307 -0.18193 2.58435 0.000 1.000 0.000
v 0.04080 -0.22297 2.50011 0.000 0.949 0.000
v 0.11432 -0.17509 2.46094 1.000 0.000 0.000
v 0.15056 -0.16051 2.50522 1.000 0.000 0.000
v 0.12173 -0.19606 2.50522 1.000 0.000 0.000
v 0.15796 -0.15691 2.59670 1.000 0.000 0.000
v 0.12189 -0.19773 2.59670 1.000 0.000 0.000
v 0.15814 -0.15511 2.71085 1.000 0.000 0.000
v 0.11895 -0.19332 2.68888 1.000 0.000 0.000
v 0.15448 -0.13887 2.81354 0.000 1.000 0.000
v 0.10295 -0.17181 2.76892 0.000 1.000 0.000
v 0.07616 -0.19148 2.66553 1.000 0.000 0.000
v 0.07451 -0.19172 2.59670 1.000 0.000 0.000
v 0.10253 -0.14368 2.67993 1.000 0.000 0.000
v 0.07698 -0.19040 2.50522 1.000 0.000 0.000
v 0.11432 -0.17509 2.46094 1.000 0.000 0.000
v 0.10345 -0.14562 2.50522 1.000 0.000 0.000
v 0.11432 -0.17509 2.46094 1.000 0.000 0.000
v 0.15796 -0.15691 2.59670 1.000 0.000 0.000
v 0.15814 -0.15511 2.71085 1.000 0.000 0.000
v 0.15056 -0.16051 2.50522 1.000 0.000 0.000
v 0.11432 -0.17509 2.46094 1.000 0.000 0.000
v 0.00444 -0.19062 2.85424 0.000 1.000 0.000
v -0.11585 -0.17608 2.84675 0.000 1.000 0.000
v -0.08444 -0.22237 2.76824 0.000 1.000 0.000
v -0.21396 -0.28811 2.78285 0.000 0.863 0.000
v 0.11432 -0.17509 2.32454 1.000 0.000 0.000
v 0.15170 -0.16130 2.42379 1.000 0.000 0.000
v 0.12521 -0.20479 2.42379 1.000 0.000 0.000
v 0.11432 -0.17509 2.47673 1.000 0.000 0.000
v 0.07648 -0.18853 2.42379 1.000 0.000 0.000
v 0.11432 -0.17509 2.32454 1.000 0.000 0.000
v 0.11432 -0.17509 2.47673 1.000 0.000 0.000
v 0.10392 -0.14567 2.42379 1.000 0.000 0.000
v 0.11432 -0.17509 2.32454 1.000 0.000 0.000
v 0.11432 -0.17509 2.47673 1.000 0.000 0.000
v 0.11432 -0.17509 2.32454 1.000 0.000 0.000
v 0.10392 -0.14567 2.42379 1.000 0.000 0.000
v 0.15170 -0.16130 2.42379 1.000 0.000 0.000
v 0.11432 -0.17509 2.47673 1.000 0.000 0.000
v 0.08745 -0.17779 2.77610 0.000 1.000 0.000
v 0.10837 -0.22115 2.75971 1.000 0.000 0.000
v 0.10295 -0.17181 2.76892 0.000 1.000 0.000
v 0.12414 -0.21114 2.75197 1.000 0.000 0.000
v 0.12425 -0.27135 2.71643 0.855 0.000 0.000
v 0.14066 -0.25373 2.71514 0.871 0.000 0.000
v 0.14927 -0.29277 2.67453 1.000 0.000 0.000
v 0.13183 -0.31840 2.65219 1.000 0.000 0.000
v 0.14355 -0.32351 2.62276 1.000 0.000 0.000
v 0.13035 -0.33962 2.58368 1.000 0.000 0.000
v -0.09246 0.04453 2.46857 0.000 1.000 0.000
v -0.09246 0.09671 2.51624 0.000 1.000 0.000
v -0.03494 0.11252 2.51624 0.000 1.000 0.000
v -0.00910 0.14058 2.55494 0.000 1.000 0.000
v -0.25861 0.13772 2.67273 0.000 1.000 0.000
v -0.28011 0.09531 2.60719 0.000 1.000 0.000
v -0.26296 0.07616 2.75053 0.000 1.000 0.000
v -0.30397 0.16436 2.57371 0.000 0.996 0.000
v 0.17985 0.11533 2.75677 0.000 1.000 0.000
v 0.15814 0.15511 2.71085 0.000 1.000 0.000
v 0.15448 0.13887 2.81354 0.000 1.000 0.000
v 0.18212 0.12744 2.69546 0.000 0.973 0.000
v 0.15861 0.14391 2.66209 0.000 1.000 0.000
v 0.17372 0.12283 2.66209 0.000 1.000 0.000
v 0.16005 0.11482 2.63196 0.000 1.000 0.000
v 0.21008 0.05663 2.79126 0.000 1.000 0.000
v 0.22837 0.00000 2.85910 0.000 1.000 0.000
v 0.36994 0.00000 2.82238 0.000 0.792 0.000
v 0.19745 0.08827 2.84924 0.000 1.000 0.000
v 0.17544 0.06356 2.62066 0.000 1.000 0.000
v 0.18082 0.10980 2.65813 0.000 1.000 0.000
v 0.20800 0.06986 2.65813 0.000 1.000 0.000
v 0.18212 0.12744 2.69546 0.000 0.973 0.000
v 0.21683 0.07099 2.70209 0.000 0.929 0.000
v 0.17985 0.11533 2.75677 0.000 1.000 0.000
v 0.21008 0.05663 2.79126 0.000 1.000 0.000
v 0.20997 0.04174 2.63974 0.000 1.000 0.000
v 0.23242 0.00889 2.63974 0.000 1.000 0.000
v 0.19611 0.01492 2.60912 0.000 1.000 0.000
v 0.24756 0.00000 2.67133 0.000 1.000 0.000
v 0.21645 0.05855 2.67133 0.000 1.000 0.000
v 0.21683 0.07099 2.70209 0.000 0.929 0.000
v 0.24993 0.00000 2.70934 0.000 0.984 0.000
v 0.23740 0.00000 2.75620 0.000 1.000 0.000
v 0.21008 0.05663 2.79126 0.000 1.000 0.000
v -0.12507 0.34074 2.62201 0.000 0.859 0.000
v -0.08444 0.22237 2.76824 0.000 1.000 0.000
v 0.00680 0.21469 2.77733 0.000 1.000 0.000
v 0.00444 0.19062 2.85424 0.000 1.000 0.000
v -0.11585 0.17608 2.84675 0.000 1.000 0.000
v -0.18196 0.09625 2.88180 0.000 1.000 0.000
v 0.08137 0.24984 2.99596 0.000 0.820 0.000
v -0.21059 0.13860 2.79004 0.000 1.000 0.000
v -0.18196 0.09625 2.88180 0.000 1.000 0.000
v -0.08083 0.05818 2.97673 0.000 1.000 0.000
v 0.02125 0.15509 3.06427 0.000 0.867 0.000
v -0.17207 0.00000 2.96285 0.000 1.000 0.000
v -0.01553 0.00000 3.10244 0.000 0.859 0.000
v -0.26131 0.00000 2.83250 0.000 1.000 0.000
v 0.01405 0.12852 2.94737 0.000 1.000 0.000
v 0.10938 0.00000 3.05190 0.000 1.000 0.000
v 0.30923 0.00000 3.09332 0.000 0.749 0.000
v -0.08083 0.05818 2.97673 0.000 1.000 0.000
v -0.02406 0.00000 3.01230 0.000 1.000 0.000
v 0.04080 0.22297 2.50011 0.000 0.949 0.000
v 0.00896 0.19895 2.58435 0.000 1.000 0.000
v 0.03538 0.22707 2.58435 0.000 1.000 0.000
v -0.00450 0.20975 2.68058 0.000 1.000 0.000
v 0.03629 0.21771 2.67338 0.000 1.000 0.000
v 0.07616 0.19148 2.66553 0.000 1.000 0.000
v 0.10295 0.17181 2.76892 0.000 1.000 0.000
v 0.06307 0.18193 2.58435 0.000 1.000 0.000
v 0.04080 0.22297 2.50011 0.000 0.949 0.000
v 0.11432 0.17509 2.46094 1.000 0.000 0.000
v 0.12173 0.19606 2.50522 1.000 0.000 0.000
v 0.15056 0.16051 2.50522 1.000 0.000 0.000
v 0.15796 0.15691 2.59670 1.000 0.000 0.000
v 0.12189 0.19773 2.59670 1.000 0.000 0.000
v 0.15814 0.15511 2.71085 1.000 0.000 0.000
v 0.11895 0.19332 2.68888 1.000 0.000 0.000
v 0.15448 0.13887 2.81354 0.000 1.000 0.000
v 0.10295 0.17181 2.76892 0.000 1.000 0.000
v 0.07616 0.19148 2.66553 1.000 0.000 0.000
v 0.07451 0.19172 2.59670 1.000 0.000 0.000
v 0.10253 0.14368 2.67993 1.000 0.000 0.000
v 0.07698 0.19040 2.50522 1.000 0.000 0.000
v 0.11432 0.17509 2.46094 1.000 0.000 0.000
v 0.10345 0.14562 2.50522 1.000 0.000 0.000
v 0.11432 0.17509 2.46094 1.000 0.000 0.000
v 0.15796 0.15691 2.59670 1.000 0.000 0.000
v 0.15814 0.15511 2.71085 1.000 0.000 0.000
v 0.15056 0.16051 2.50522 1.000 0.000 0.000
v 0.11432 0.17509 2.46094 1.000 0.000 0.000
v 0.00444 0.19062 2.85424 0.000 1.000 0.000
v -0.08444 0.22237 2.76824 0.000 1.000 0.000
v -0.11585 0.17608 2.84675 0.000 1.000 0.000
v -0.21396 0.28811 2.78285 0.000 0.863 0.000
v 0.11432 0.17509 2.32454 1.000 0.000 0.000
v 0.12521 0.20479 2.42379 1.000 0.000 0.000
v 0.15170 0.16130 2.42379 1.000 0.000 0.000
v 0.11432 0.17509 2.47673 1.000 0.000 0.000
v 0.11432 0.17509 2.32454 1.000 0.000 0.000
v 0.07648 0.18853 2.42379 1.000 0.000 0.000
v 0.11432 0.17509 2.47673 1.000 0.000 0.000
v 0.11432 0.17509 2.32454 1.000 0.000 0.000
v 0.10392 0.14567 2.42379 1.000 0.000 0.000
v 0.11432 0.17509 2.47673 1.000 0.000 0.000
v 0.11432 0.17509 2.32454 1.000 0.000 0.000
v 0.15170 0.16130 2.42379 1.000 0.000 0.000
v 0.10392 0.14567 2.42379 1.000 0.000 0.000
v 0.11432 0.17509 2.47673 1.000 0.000 0.000
v 0.08745 0.17779 2.77610 0.000 1.000 0.000
v 0.10295 0.17181 2.76892 0.000 1.000 0.000
v 0.10837 0.22115 2.75971 1.000 0.000 0.000
v 0.12414 0.21114 2.75197 1.000 0.000 0.000
v 0.12425 0.27135 2.71643 0.855 0.000 0.000
v 0.14066 0.25373 2.71514 0.871 0.000 0.000
v 0.14927 0.29277 2.67453 1.000 0.000 0.000
v 0.13183 0.31840 2.65219 1.000 0.000 0.000
v 0.14355 0.32351 2.62276 1.000 0.000 0.000
v 0.13035 0.33962 2.58368 1.000 0.000 0.000
v 0.14662 0.16333 2.46719 0.000 0.000 0.800
v 0.11432 0.17509 2.49030 0.000 0.000 1.000
v 0.10257 0.14279 2.46719 0.000 0.000 0.843
v 0.08203 0.18684 2.46719 0.000 0.000 0.800
v 0.11432 0.17509 2.44408 0.000 0.000 1.000
v 0.11432 0.17509 2.44408 0.000 0.000 1.000
v 0.12608 0.20738 2.46719 0.000 0.000 0.706
v 0.11432 0.17509 2.49030 0.000 0.000 1.000
v 0.14662 -0.16333 2.46719 0.000 0.000 0.800
v 0.10257 -0.14279 2.46719 0.000 0.000 0.843
v 0.11432 -0.17509 2.49030 0.000 0.000 1.000
v 0.08203 -0.18684 2.46719 0.000 0.000 0.800
v 0.11432 -0.17509 2.44408 0.000 0.000 1.000
v 0.11432 -0.17509 2.44408 0.000 0.000 1.000
v 0.12608 -0.20738 2.46719 0.000 0.000 0.706
v 0.11432 -0.17509 2.49030 0.000 0.000 1.000
vt 0.53751 0.98823
vt 0.73224 0.98823
vt 0.59743 0.61041
vt 0.78721 0.01142
vt 0.87064 0.43946
vt 0.98370 0.15904
vt 0.51732 0.51224
vt 0.54361 0.90425
vt 0.43399 0.97700
vt 0.83753 0.77618
vt 0.59745 0.99213
vt 0.66132 0.59562
vt 0.93617 0.98044
vt 0.82610 0.69913
vt 0.72979 0.98044
vt 0.70716 0.99083
vt 0.97149 0.84596
vt 0.84709 0.65931
vt 0.64666 0.98210
vt 0.83362 0.60397
vt 0.99736 0.84218
vt 0.81908 0.51448
vt 0.64785 0.97925
vt 0.99031 0.83946
vt 0.63743 0.87081
vt 0.79982 0.87081
vt 0.73216 0.46484
vt 0.23691 0.53273
vt 0.32556 0.97808
vt 0.16092 0.97808
vt 0.65972 0.99348
vt 0.43755 0.99348
vt 0.55718 0.61591
vt 0.75144 0.97753
vt 0.62065 0.51511
vt 0.52960 0.80277
vt 0.86208 0.49146
vt 0.78356 0.96846
vt 0.94459 0.96846
vt 0.55559 0.46724
vt 0.42156 0.19780
vt 0.70490 0.01586
vt 0.37109 0.01131
vt 0.53695 0.09924
vt 0.45402 0.34303
vt 0.34164 0.98921
vt 0.42927 0.68964
vt 0.53442 0.98921
vt 0.70556 0.93827
vt 0.47797 0.97966
vt 0.56112 0.66509
vt 0.82479 0.97966
vt 0.69974 0.66509
vt 0.60386 0.91917
vt 0.59417 0.20830
vt 0.68401 0.43946
vt 0.78106 0.01142
vt 0.17127 0.98959
vt 0.52935 0.89129
vt 0.36336 0.62111
vt 0.83711 0.64964
vt 0.69389 0.97757
vt 0.96490 0.96235
vt 0.33534 0.90005
vt 0.45539 0.51777
vt 0.53087 0.97176
vt 0.27242 0.99438
vt 0.11003 0.69223
vt 0.04237 0.99438
vt 0.37273 0.86472
vt 0.42479 0.55860
vt 0.51404 0.86472
vt 0.25640 0.98794
vt 0.44844 0.92065
vt 0.32504 0.68406
vt 0.81422 0.94847
vt 0.69358 0.95760
vt 0.77126 0.77992
vt 0.32293 0.97731
vt 0.29252 0.55853
vt 0.16370 0.97864
vt 0.67307 0.95760
vt 0.55745 0.93854
vt 0.62492 0.77992
vt 0.03463 0.92616
vt 0.23604 0.98794
vt 0.16011 0.67185
vt 0.52013 0.98820
vt 0.28168 0.84146
vt 0.39797 0.46478
vt 0.41286 0.83278
vt 0.20274 0.83198
vt 0.32352 0.45248
vt 0.21558 0.99211
vt 0.39232 0.55467
vt 0.49331 0.87922
vt 0.75079 0.98425
vt 0.61506 0.57342
vt 0.49630 0.98425
vt 0.53197 0.53488
vt 0.38142 0.01819
vt 0.65166 0.01819
vt 0.23835 0.98875
vt 0.33074 0.51993
vt 0.46520 0.98875
vt 0.72951 0.86093
vt 0.63174 0.64087
vt 0.53396 0.97015
vt 0.86104 0.52176
vt 0.76663 0.99168
vt 0.98431 0.99168
vt 0.57634 0.98609
vt 0.65253 0.69007
vt 0.76618 0.86240
vt 0.34650 0.63156
vt 0.25506 0.99312
vt 0.49021 0.90110
vt 0.68013 0.40699
vt 0.77816 0.13632
vt 0.58210 0.17518
vt 0.15708 0.44801
vt 0.24137 0.86633
vt 0.06706 0.64887
vt 0.47505 0.98488
vt 0.54550 0.59906
vt 0.60714 0.83087
vt 0.69435 0.02673
vt 0.65394 0.33045
vt 0.55292 0.02673
vt 0.30317 0.76861
vt 0.45827 0.48951
vt 0.50599 0.97426
vt 0.87069 0.92273
vt 0.72109 0.97763
vt 0.80538 0.73722
vt 0.89341 0.73722
vt 0.96240 0.97763
vt 0.82431 0.92273
vt 0.19428 0.97404
vt 0.32546 0.90934
vt 0.27776 0.60262
vt 0.53895 0.97370
vt 0.63591 0.58812
vt 0.74196 0.97370
vt 0.97175 0.98875
vt 0.89855 0.51993
vt 0.77111 0.98875
vt 0.85062 0.69775
vt 0.75731 0.99791
vt 0.97487 0.94278
vt 0.02696 0.97898
vt 0.28500 0.95956
vt 0.10069 0.51128
vt 0.45285 0.97749
vt 0.58298 0.67056
vt 0.64211 0.98416
vt 0.65395 0.93474
vt 0.34300 0.98869
vt 0.40963 0.34458
vt 0.11930 0.93114
vt 0.25803 0.60702
vt 0.30997 0.98433
vt 0.34653 0.60702
vt 0.42781 0.96179
vt 0.29489 0.97833
vt 0.15587 0.58642
vt 0.05381 0.99687
vt 0.21869 0.96661
vt 0.70212 0.62815
vt 0.80012 0.88061
vt 0.63398 0.95354
vt 0.08942 0.99559
vt 0.27833 0.94752
vt 0.16289 0.71663
vt 0.52088 0.98072
vt 0.31758 0.98072
vt 0.41388 0.65687
vt 0.64141 0.96319
vt 0.73017 0.55661
vt 0.83974 0.96319
vt 0.59340 0.93158
vt 0.34991 0.98011
vt 0.41948 0.68083
vt 0.33200 0.49069
vt 0.25513 0.84615
vt 0.41985 0.84615
vt 0.58733 0.90352
vt 0.78892 0.98466
vt 0.66277 0.62784
vt 0.53416 0.99363
vt 0.72953 0.91384
vt 0.59741 0.59493
vt 0.57361 0.97545
vt 0.40936 0.97545
vt 0.49606 0.57661
vt 0.69430 0.87464
vt 0.73603 0.96961
vt 0.65327 0.96088
vt 0.69430 0.87464
vt 0.52158 0.94407
vt 0.59131 0.59044
vt 0.49589 0.98823
vt 0.43597 0.61041
vt 0.30117 0.98823
vt 0.78721 0.01142
vt 0.98370 0.15904
vt 0.87064 0.43946
vt 0.51732 0.51224
vt 0.43399 0.97700
vt 0.54361 0.90425
vt 0.83753 0.77618
vt 0.66132 0.59562
vt 0.59745 0.99213
vt 0.93617 0.98044
vt 0.72979 0.98044
vt 0.82610 0.69913
vt 0.70716 0.99083
vt 0.84709 0.65931
vt 0.97149 0.84596
vt 0.64666 0.98210
vt 0.99736 0.84218
vt 0.83362 0.60397
vt 0.81908 0.51448
vt 0.99031 0.83946
vt 0.64785 0.97925
vt 0.63743 0.87081
vt 0.73216 0.46484
vt 0.79982 0.87081
vt 0.79650 0.53273
vt 0.87248 0.97808
vt 0.70784 0.97808
vt 0.37368 0.99348
vt 0.47622 0.61591
vt 0.59586 0.99348
vt 0.75144 0.97753
vt 0.52960 0.80277
vt 0.62065 0.51511
vt 0.86208 0.49146
vt 0.94459 0.96846
vt 0.78356 0.96846
vt 0.84329 0.46724
vt 0.69397 0.01586
vt 0.97732 0.19780
vt 0.95862 0.01131
vt 0.87569 0.34303
vt 0.79276 0.09924
vt 0.69176 0.98921
vt 0.49899 0.98921
vt 0.60414 0.68964
vt 0.70556 0.93827
vt 0.56112 0.66509
vt 0.47797 0.97966
vt 0.82479 0.97966
vt 0.60386 0.91917
vt 0.69974 0.66509
vt 0.59417 0.20830
vt 0.78106 0.01142
vt 0.68401 0.43946
vt 0.17127 0.98959
vt 0.36336 0.62111
vt 0.52935 0.89129
vt 0.83711 0.64964
vt 0.96490 0.96235
vt 0.69389 0.97757
vt 0.33534 0.90005
vt 0.53087 0.97176
vt 0.45539 0.51777
vt 0.76099 0.99438
vt 0.99104 0.99438
vt 0.92338 0.69223
vt 0.37273 0.86472
vt 0.51404 0.86472
vt 0.42479 0.55860
vt 0.25640 0.98794
vt 0.32504 0.68406
vt 0.44844 0.92065
vt 0.81422 0.94847
vt 0.77126 0.77992
vt 0.69358 0.95760
vt 0.71048 0.97731
vt 0.86970 0.97864
vt 0.74088 0.55853
vt 0.67307 0.95760
vt 0.62492 0.77992
vt 0.55745 0.93854
vt 0.03463 0.92616
vt 0.16011 0.67185
vt 0.23604 0.98794
vt 0.52013 0.98820
vt 0.39797 0.46478
vt 0.28168 0.84146
vt 0.41286 0.83278
vt 0.32352 0.45248
vt 0.20274 0.83198
vt 0.81782 0.99211
vt 0.54009 0.87922
vt 0.64108 0.55467
vt 0.28262 0.98425
vt 0.53710 0.98425
vt 0.41834 0.57342
vt 0.79774 0.53488
vt 0.67805 0.01819
vt 0.94829 0.01819
vt 0.79505 0.98875
vt 0.56820 0.98875
vt 0.70266 0.51993
vt 0.72951 0.86093
vt 0.53396 0.97015
vt 0.63174 0.64087
vt 0.86104 0.52176
vt 0.98431 0.99168
vt 0.76663 0.99168
vt 0.57634 0.98609
vt 0.76618 0.86240
vt 0.65253 0.69007
vt 0.34650 0.63156
vt 0.49021 0.90110
vt 0.25506 0.99312
vt 0.68013 0.40699
vt 0.58210 0.17518
vt 0.77816 0.13632
vt 0.15708 0.44801
vt 0.06706 0.64887
vt 0.24137 0.86633
vt 0.47505 0.98488
vt 0.60714 0.83087
vt 0.54550 0.59906
vt 0.63536 0.02673
vt 0.77679 0.02673
vt 0.67577 0.33045
vt 0.30317 0.76861
vt 0.50599 0.97426
vt 0.45827 0.48951
vt 0.87069 0.92273
vt 0.80538 0.73722
vt 0.72109 0.97763
vt 0.89341 0.73722
vt 0.82431 0.92273
vt 0.96240 0.97763
vt 0.19428 0.97404
vt 0.27776 0.60262
vt 0.32546 0.90934
vt 0.53895 0.97370
vt 0.74196 0.97370
vt 0.63591 0.58812
vt 0.97175 0.98875
vt 0.77111 0.98875
vt 0.89855 0.51993
vt 0.85062 0.69775
vt 0.97487 0.94278
vt 0.75731 0.99791
vt 0.02696 0.97898
vt 0.10069 0.51128
vt 0.28500 0.95956
vt 0.45285 0.97749
vt 0.64211 0.98416
vt 0.58298 0.67056
vt 0.65395 0.93474
vt 0.40963 0.34458
vt 0.34300 0.98869
vt 0.91410 0.93114
vt 0.72343 0.98433
vt 0.77537 0.60702
vt 0.68688 0.60702
vt 0.73852 0.97833
vt 0.60560 0.96179
vt 0.87754 0.58642
vt 0.81472 0.96661
vt 0.97959 0.99687
vt 0.70212 0.62815
vt 0.63398 0.95354
vt 0.80012 0.88061
vt 0.08942 0.99559
vt 0.16289 0.71663
vt 0.27833 0.94752
vt 0.52088 0.98072
vt 0.41388 0.65687
vt 0.31758 0.98072
vt 0.64141 0.96319
vt 0.83974 0.96319
vt 0.73017 0.55661
vt 0.59340 0.93158
vt 0.41948 0.68083
vt 0.34991 0.98011
vt 0.33200 0.49069
vt 0.41985 0.84615
vt 0.25513 0.84615
vt 0.58733 0.90352
vt 0.66277 0.62784
vt 0.78892 0.98466
vt 0.53416 0.99363
vt 0.59741 0.59493
vt 0.72953 0.91384
vt 0.57361 0.97545
vt 0.49606 0.57661
vt 0.40936 0.97545
vt 0.69430 0.87464
vt 0.65327 0.96088
vt 0.73603 0.96961
vt 0.69430 0.87464
vt 0.52158 0.94407
vt 0.59131 0.59044
vt 0.86701 0.66354
vt 0.96212 0.85215
vt 0.93369 0.99476
vt 0.74861 0.92347
vt 0.93369 0.99476
vt 0.96212 0.85215
vt 0.74861 0.92347
vt 0.85269 0.48126
vt 0.90879 0.26636
vt 0.79713 0.26798
vt 0.89215 0.02206
vt 0.95916 0.81259
vt 0.85772 0.98614
vt 0.77286 0.75861
vt 0.87295 0.57835
vt 0.51618 0.98215
vt 0.60816 0.98001
vt 0.60896 0.76315
vt 0.52001 0.76315
vt 0.59279 0.60355
vt 0.54332 0.60355
vt 0.56663 0.47879
vt 0.79070 0.87689
vt 0.88643 0.58357
vt 0.99104 0.93116
vt 0.81710 0.97929
vt 0.48806 0.44553
vt 0.42497 0.60830
vt 0.55710 0.60830
vt 0.56797 0.76315
vt 0.41470 0.76315
vt 0.56747 0.98215
vt 0.41470 0.98090
vt 0.64461 0.49340
vt 0.67381 0.40040
vt 0.71655 0.49383
vt 0.74735 0.60575
vt 0.62344 0.60695
vt 0.60830 0.75270
vt 0.75911 0.75374
vt 0.76028 0.90033
vt 0.60958 0.99341
vt 0.24173 0.62990
vt 0.19473 0.85738
vt 0.34753 0.81525
vt 0.29690 0.98990
vt 0.35046 0.81356
vt 0.23629 0.41991
vt 0.11503 0.90835
vt 0.32769 0.99485
vt 0.79304 0.87623
vt 0.71993 0.44634
vt 0.64889 0.68517
vt 0.51970 0.82770
vt 0.55974 0.54187
vt 0.58656 0.97176
vt 0.80155 0.90259
vt 0.66187 0.53882
vt 0.53450 0.75698
vt 0.59037 0.97514
vt 0.48520 0.90401
vt 0.47292 0.50181
vt 0.42615 0.64865
vt 0.51458 0.64865
vt 0.52982 0.81173
vt 0.42615 0.81173
vt 0.31331 0.81317
vt 0.31419 0.98671
vt 0.32950 0.64840
vt 0.37621 0.50181
vt 0.63775 0.35019
vt 0.58095 0.52304
vt 0.67942 0.52304
vt 0.58095 0.68920
vt 0.67942 0.68920
vt 0.58095 0.89147
vt 0.67942 0.84574
vt 0.61156 0.99528
vt 0.75222 0.99528
vt 0.79195 0.80457
vt 0.79195 0.68920
vt 0.89042 0.89147
vt 0.79195 0.52304
vt 0.73161 0.35019
vt 0.89042 0.52304
vt 0.83468 0.35019
vt 0.98888 0.68920
vt 0.98888 0.89147
vt 0.98941 0.46003
vt 0.93565 0.35019
vt 0.43842 0.99334
vt 0.36730 0.76347
vt 0.53048 0.76347
vt 0.45862 0.45554
vt 0.61269 0.36068
vt 0.56196 0.13607
vt 0.66373 0.13607
vt 0.60893 0.01660
vt 0.77333 0.13607
vt 0.71478 0.36068
vt 0.71071 0.01660
vt 0.88090 0.13607
vt 0.82313 0.36068
vt 0.82688 0.01660
vt 0.93424 0.35183
vt 0.88259 0.13579
vt 0.98693 0.13579
vt 0.93238 0.00774
vt 0.46545 0.94803
vt 0.46439 0.80157
vt 0.53256 0.94969
vt 0.53256 0.80157
vt 0.46439 0.68958
vt 0.53256 0.68958
vt 0.53256 0.59803
vt 0.46439 0.52049
vt 0.53136 0.48940
vt 0.49219 0.37277
vt 0.85269 0.48126
vt 0.79713 0.26798
vt 0.90879 0.26636
vt 0.89215 0.02206
vt 0.95916 0.81259
vt 0.77286 0.75861
vt 0.85772 0.98614
vt 0.87295 0.57835
vt 0.51618 0.98215
vt 0.60896 0.76315
vt 0.60816 0.98001
vt 0.52001 0.76315
vt 0.59279 0.60355
vt 0.54332 0.60355
vt 0.56663 0.47879
vt 0.24271 0.87689
vt 0.04237 0.93116
vt 0.14697 0.58357
vt 0.21630 0.97929
vt 0.48806 0.44553
vt 0.55710 0.60830
vt 0.42497 0.60830
vt 0.56797 0.76315
vt 0.41470 0.76315
vt 0.56747 0.98215
vt 0.41470 0.98090
vt 0.61444 0.49340
vt 0.54251 0.49383
vt 0.58525 0.40040
vt 0.51170 0.60575
vt 0.63562 0.60695
vt 0.65076 0.75270
vt 0.49995 0.75374
vt 0.49878 0.90033
vt 0.64947 0.99341
vt 0.24173 0.62990
vt 0.34753 0.81525
vt 0.19473 0.85738
vt 0.29690 0.98990
vt 0.35046 0.81356
vt 0.11503 0.90835
vt 0.23629 0.41991
vt 0.32769 0.99485
vt 0.24036 0.87623
vt 0.38452 0.68517
vt 0.31347 0.44634
vt 0.51370 0.82770
vt 0.47367 0.54187
vt 0.44685 0.97176
vt 0.23185 0.90259
vt 0.49891 0.75698
vt 0.37153 0.53882
vt 0.44303 0.97514
vt 0.54820 0.90401
vt 0.47292 0.50181
vt 0.51458 0.64865
vt 0.42615 0.64865
vt 0.52982 0.81173
vt 0.42615 0.81173
vt 0.31331 0.81317
vt 0.31419 0.98671
vt 0.32950 0.64840
vt 0.37621 0.50181
vt 0.63775 0.35019
vt 0.67942 0.52304
vt 0.58095 0.52304
vt 0.58095 0.68920
vt 0.67942 0.68920
vt 0.58095 0.89147
vt 0.67942 0.84574
vt 0.61156 0.99528
vt 0.75222 0.99528
vt 0.79195 0.80457
vt 0.79195 0.68920
vt 0.89042 0.89147
vt 0.79195 0.52304
vt 0.73161 0.35019
vt 0.89042 0.52304
vt 0.83468 0.35019
vt 0.98888 0.68920
vt 0.98888 0.89147
vt 0.98941 0.46003
vt 0.93565 0.35019
vt 0.43842 0.99334
vt 0.53048 0.76347
vt 0.36730 0.76347
vt 0.45862 0.45554
vt 0.61269 0.36068
vt 0.66373 0.13607
vt 0.56196 0.13607
vt 0.60893 0.01660
vt 0.71478 0.36068
vt 0.77333 0.13607
vt 0.71071 0.01660
vt 0.82313 0.36068
vt 0.88090 0.13607
vt 0.82688 0.01660
vt 0.93424 0.35183
vt 0.98693 0.13579
vt 0.88259 0.13579
vt 0.93238 0.00774
vt 0.46545 0.94803
vt 0.53256 0.94969
vt 0.46439 0.80157
vt 0.53256 0.80157
vt 0.46439 0.68958
vt 0.53256 0.68958
vt 0.53256 0.59803
vt 0.46439 0.52049
vt 0.53136 0.48940
vt 0.49219 0.37277
vt 0.17179 0.14803
vt 0.26508 0.29466
vt 0.33802 0.14803
vt 0.17179 0.14803
vt 0.26508 0.00129
vt 0.09169 0.00129
vt 0.00521 0.14803
vt 0.09169 0.29466
vt 0.17179 0.14803
vt 0.33802 0.14803
vt 0.26508 0.29466
vt 0.17179 0.14803
vt 0.26508 0.00129
vt 0.09169 0.00129
vt 0.00521 0.14803
vt 0.09169 0.29466
usemtl m0
f 1/1 2/2 3/3
f 4/4 5/5 6/6
f 7/7 8/8 9/9
f 10/10 11/11 12/12
f 13/13 14/14 15/15
f 16/16 17/17 18/18
f 19/19 20/20 21/21
f 22/22 23/23 24/24
f 25/25 26/26 27/27
f 28/28 29/29 30/30
f 31/31 32/32 33/33
f 34/34 35/35 36/36
f 37/37 38/38 39/39
f 40/40 41/41 42/42
f 43/43 44/44 45/45
f 46/46 47/47 48/48
f 49/49 50/50 51/51
f 52/52 53/53 54/54
f 55/55 56/56 57/57
f 58/58 59/59 60/60
f 61/61 62/62 63/63
f 64/64 65/65 66/66
f 67/67 68/68 69/69
f 70/70 71/71 72/72
f 73/73 74/74 75/75
f 76/76 77/77 78/78
f 79/79 80/80 81/81
f 82/82 83/83 84/84
f 85/85 86/86 87/87
f 88/88 89/89 90/90
f 91/91 92/92 93/93
f 94/94 95/95 96/96
f 97/97 98/98 99/99
f 100/100 101/101 102/102
f 103/103 104/104 105/105
f 106/106 107/107 108/108
f 109/109 110/110 111/111
f 112/112 113/113 114/114
f 115/115 116/116 117/117
f 118/118 119/119 120/120
f 121/121 122/122 123/123
f 124/124 125/125 126/126
f 127/127 128/128 129/129
f 130/130 131/131 132/132
f 133/133 134/134 135/135
f 136/136 137/137 138/138
f 139/139 140/140 141/141
f 142/142 143/143 144/144
f 145/145 146/146 147/147
f 148/148 149/149 150/150
f 151/151 152/152 153/153
f 154/154 155/155 156/156
f 157/157 158/158 159/159
f 160/160 161/161 162/162
f 163/163 164/164 165/165
f 166/166 167/167 168/168
f 169/169 170/170 171/171
f 172/172 173/173 174/174
f 175/175 176/176 177/177
f 178/178 179/179 180/180
f 181/181 182/182 183/183
f 184/184 185/185 186/186
f 187/187 188/188 189/189
f 190/190 191/191 192/192
f 193/193 194/194 195/195
f 196/196 197/197 198/198
f 199/199 198/198 200/200
f 201/201 199/199 200/200
f 202/202 203/203 204/204
f 205/205 206/206 207/207
f 208/208 209/209 210/210
f 211/211 212/212 213/213
f 214/214 215/215 216/216
f 217/217 218/218 219/219
f 220/220 221/221 222/222
f 223/223 224/224 225/225
f 226/226 227/227 228/228
f 229/229 230/230 231/231
f 232/232 233/233 234/234
f 235/235 236/236 237/237
f 238/238 239/239 240/240
f 241/241 242/242 243/243
f 244/244 245/245 246/246
f 247/247 248/248 249/249
f 250/250 251/251 252/252
f 253/253 254/254 255/255
f 256/256 257/257 258/258
f 259/259 260/260 261/261
f 262/262 263/263 264/264
f 265/265 266/266 267/267
f 268/268 269/269 270/270
f 271/271 272/272 273/273
f 274/274 275/275 276/276
f 277/277 278/278 279/279
f 280/280 281/281 282/282
f 283/283 284/284 285/285
f 286/286 287/287 288/288
f 289/289 290/290 291/291
f 292/292 293/293 294/294
f 295/295 296/296 297/297
f 298/298 299/299 300/300
f 301/301 302/302 303/303
f 304/304 305/305 306/306
f 307/307 308/308 309/309
f 310/310 311/311 312/312
f 313/313 314/314 315/315
f 316/316 317/317 318/318
f 319/319 320/320 321/321
f 322/322 323/323 324/324
f 325/325 326/326 327/327
f 328/328 329/329 330/330
f 331/331 332/332 333/333
f 334/334 335/335 336/336
f 337/337 338/338 339/339
f 340/340 341/341 342/342
f 343/343 344/344 345/345
f 346/346 347/347 348/348
f 349/349 350/350 351/351
f 352/352 353/353 354/354
f 355/355 356/356 357/357
f 358/358 359/359 360/360
f 361/361 362/362 363/363
f 364/364 365/365 366/366
f 367/367 368/368 369/369
f 370/370 371/371 372/372
f 373/373 374/374 375/375
f 376/376 377/377 378/378
f 379/379 380/380 381/381
f 382/382 383/383 384/384
f 385/385 386/386 387/387
f 388/388 389/389 390/390
f 391/391 392/392 393/393
f 394/394 395/395 396/396
f 397/397 398/398 399/399
f 400/400 401/401 398/398
f 402/402 401/401 400/400
f 403/403 404/404 405/405
f 405/405 406/406 403/403
f 403/403 407/407 408/408
f 407/407 403/403 409/409
f 410/410 411/411 412/412
f 411/411 413/413 412/412
f 414/414 415/415 416/416
f 416/416 417/417 414/414
f 418/418 419/419 420/420
f 420/420 421/421 418/418
f 420/420 422/422 421/421
f 421/421 422/422 423/423
f 422/422 424/424 423/423
f 425/425 426/426 427/427
f 427/427 428/428 425/425
f 429/429 430/430 431/431
f 431/431 430/430 432/432
f 433/433 432/432 430/430
f 432/432 433/433 434/434
f 434/434 433/433 435/435
f 436/436 437/437 438/438
f 439/439 436/436 438/438
f 440/440 436/436 439/439
f 441/441 440/440 439/439
f 439/439 442/442 441/441
f 441/441 442/442 443/443
f 443/443 444/444 441/441
f 445/445 446/446 447/447
f 447/447 446/446 448/448
f 449/449 450/450 451/451
f 452/452 449/449 451/451
f 453/453 454/454 455/455
f 456/456 453/453 455/455
f 455/455 457/457 456/456
f 458/458 453/453 456/456
f 459/459 460/460 461/461
f 459/459 461/461 462/462
f 461/461 463/463 462/462
f 464/464 465/465 466/466
f 467/467 466/466 465/465
f 468/468 467/467 465/465
f 468/468 465/465 469/469
f 468/468 469/469 470/470
f 465/465 471/471 469/469
f 471/471 465/465 472/472
f 473/473 474/474 475/475
f 474/474 476/476 475/475
f 476/476 477/477 475/475
f 478/478 477/477 476/476
f 479/479 477/477 478/478
f 480/480 479/479 478/478
f 480/480 481/481 479/479
f 482/482 479/479 481/481
f 479/479 482/482 477/477
f 482/482 483/483 477/477
f 477/477 483/483 475/475
f 482/482 484/484 483/483
f 485/485 475/475 483/483
f 486/486 475/475 485/485
f 487/487 485/485 483/483
f 484/484 487/487 483/483
f 488/488 485/485 487/487
f 484/484 489/489 487/487
f 484/484 490/490 489/489
f 489/489 491/491 487/487
f 492/492 487/487 491/491
f 493/493 494/494 495/495
f 494/494 496/496 495/495
f 497/497 498/498 499/499
f 498/498 500/500 499/499
f 499/499 501/501 502/502
f 499/499 503/503 501/501
f 501/501 504/504 505/505
f 504/504 501/501 506/506
f 507/507 508/508 509/509
f 509/509 508/508 510/510
f 511/511 512/512 513/513
f 512/512 514/514 513/513
f 512/512 515/515 514/514
f 516/516 514/514 515/515
f 517/517 516/516 515/515
f 515/515 518/518 517/517
f 519/519 517/517 518/518
f 520/520 519/519 518/518
f 521/521 522/522 523/523
f 523/523 522/522 524/524
f 525/525 526/526 527/527
f 526/526 525/525 528/528
f 529/529 530/530 531/531
f 530/530 529/529 532/532
f 530/530 532/532 533/533
f 532/532 534/534 533/533
f 533/533 534/534 535/535
f 536/536 537/537 538/538
f 537/537 536/536 539/539
f 540/540 541/541 542/542
f 541/541 543/543 542/542
f 544/544 542/542 543/543
f 543/543 545/545 544/544
f 545/545 546/546 544/544
f 547/547 548/548 549/549
f 550/550 548/548 547/547
f 551/551 550/550 547/547
f 552/552 550/550 551/551
f 550/550 552/552 553/553
f 552/552 554/554 553/553
f 554/554 552/552 555/555
f 556/556 557/557 558/558
f 557/557 559/559 558/558
f 560/560 561/561 562/562
f 563/563 561/561 560/560
f 564/564 565/565 566/566
f 567/567 565/565 564/564
f 565/565 567/567 568/568
f 569/569 567/567 564/564
f 570/570 571/571 572/572
f 570/570 573/573 571/571
f 571/571 573/573 574/574
f 575/575 576/576 577/577
f 578/578 577/577 576/576
f 579/579 577/577 578/578
f 579/579 580/580 577/577
f 579/579 581/581 580/580
f 577/577 580/580 582/582
f 582/582 583/583 577/577
f 584/584 585/585 586/586
f 586/586 585/585 587/587
f 587/587 585/585 588/588
f 589/589 587/587 588/588
f 590/590 589/589 588/588
f 591/591 589/589 590/590
f 591/591 590/590 592/592
f 593/593 592/592 590/590
f 590/590 588/588 593/593
f 593/593 588/588 594/594
f 588/588 585/585 594/594
f 593/593 594/594 595/595
f 596/596 594/594 585/585
f 597/597 596/596 585/585
f 598/598 594/594 596/596
f 595/595 594/594 598/598
f 599/599 598/598 596/596
f 595/595 598/598 600/600
f 595/595 600/600 601/601
f 600/600 598/598 602/602
f 603/603 602/602 598/598
f 604/604 605/605 606/606
f 606/606 605/605 607/607
f 608/608 609/609 610/610
f 610/610 609/609 611/611
f 609/609 612/612 613/613
f 609/609 613/613 614/614
f 613/613 615/615 616/616
f 616/616 617/617 613/613
f 618/618 619/619 620/620
f 619/619 621/621 620/620
f 622/622 623/623 624/624
f 624/624 623/623 625/625
f 624/624 625/625 626/626
f 627/627 626/626 625/625
f 628/628 626/626 627/627
f 626/626 628/628 629/629
f 630/630 629/629 628/628
f 631/631 629/629 630/630
f 632/632 633/633 634/634
f 634/634 633/633 635/635
f 636/636 632/632 634/634
f 636/636 634/634 635/635
f 637/637 638/638 632/632
f 637/637 635/635 638/638
f 632/632 638/638 639/639
f 638/638 635/635 639/639
f 640/640 641/641 642/642
f 641/641 643/643 642/642
f 644/644 641/641 640/640
f 644/644 643/643 641/641
f 645/645 640/640 646/646
f 645/645 646/646 643/643
f 640/640 647/647 646/646
f 646/646 647/647 643/643
