mtllib options690.mtl
o options690
v 0.23251 0.06613 3.06095 0.000 0.000 0.000
v 0.23383 0.06161 3.05332 0.000 0.000 0.000
v 0.23254 0.07065 3.05320 0.000 0.000 0.000
v 0.22930 0.07450 3.06068 0.000 0.000 0.000
v 0.22740 0.07000 3.06763 0.000 0.000 0.000
v 0.22809 0.06161 3.06704 0.000 0.000 0.000
v 0.23123 0.05711 3.06085 0.000 0.000 0.000
v 0.20926 -0.12429 3.05003 0.000 0.000 0.000
v 0.21440 -0.11590 3.05048 0.000 0.000 0.000
v 0.21104 -0.12042 3.05924 0.000 0.000 0.000
v 0.20403 -0.12751 3.05798 0.000 0.000 0.000
v 0.20464 -0.12235 3.06580 0.000 0.000 0.000
v 0.20972 -0.11461 3.06689 0.000 0.000 0.000
v 0.21489 -0.11138 3.05959 0.000 0.000 0.000
v -0.14868 -0.09670 2.88241 0.000 0.000 0.988
v -0.14929 -0.08057 2.87224 0.000 0.000 0.953
v -0.14534 -0.09347 2.86996 0.000 0.000 0.996
v -0.14368 -0.08057 2.86373 0.000 0.000 0.996
v -0.14534 -0.06768 2.86996 0.000 0.000 0.988
v -0.14868 -0.06446 2.88241 0.000 0.000 1.000
v -0.15346 -0.08057 2.88781 0.000 0.000 1.000
v 0.13200 -0.14629 2.81914 0.000 0.000 0.996
v 0.14033 -0.12094 2.82148 0.000 0.000 0.969
v 0.14917 -0.13718 2.81025 0.000 0.000 0.988
v 0.15993 -0.12443 2.81605 0.000 0.000 0.996
v 0.15882 -0.11344 2.82982 0.000 0.000 0.996
v 0.14551 -0.11306 2.84654 0.000 0.000 0.996
v 0.12767 -0.12706 2.83514 0.000 0.000 0.988
v 0.22519 -0.02864 2.94498 0.000 0.000 0.000
v 0.22584 0.00000 2.93850 0.000 0.000 0.000
v 0.22896 -0.04286 2.95931 0.000 0.000 0.000
v 0.23420 0.00000 2.96426 0.000 0.000 0.000
v 0.23147 -0.03868 2.96525 0.000 0.000 0.000
v 0.22896 0.04286 2.95931 0.000 0.000 0.000
v 0.23147 0.03868 2.96525 0.000 0.000 0.000
v 0.22519 0.02864 2.94498 0.000 0.000 0.000
v 0.17118 -0.14209 2.79473 0.000 0.000 0.000
v 0.15169 -0.14603 2.80912 0.000 0.000 0.000
v 0.15981 -0.13696 2.81538 0.000 0.000 0.000
v 0.15981 -0.13696 2.81538 0.000 0.000 0.000
v 0.16559 -0.12274 2.82712 0.000 0.000 0.000
v 0.18130 -0.12287 2.80359 0.000 0.000 0.000
v 0.16559 -0.12274 2.82712 0.000 0.000 0.000
v 0.16520 -0.11281 2.83651 0.000 0.000 0.000
v 0.18469 -0.10888 2.82213 0.000 0.000 0.000
v -0.14216 -0.09025 2.86297 0.000 0.000 0.000
v -0.14421 -0.10636 2.84575 0.000 0.000 0.000
v -0.14383 -0.10314 2.86920 0.000 0.000 0.000
v -0.12887 -0.09992 2.86319 0.000 0.000 0.000
v -0.14383 -0.10314 2.86920 0.000 0.000 0.000
v -0.14255 -0.08057 2.83952 0.000 0.000 0.000
v -0.12720 -0.08057 2.85696 0.000 0.000 0.000
v -0.14216 -0.07090 2.86297 0.000 0.000 0.000
v -0.14216 -0.09025 2.86297 0.000 0.000 0.000
v -0.14421 -0.05479 2.84575 0.000 0.000 0.000
v -0.12887 -0.06124 2.86319 0.000 0.000 0.000
v -0.14383 -0.05801 2.86920 0.000 0.000 0.000
v -0.14216 -0.07090 2.86297 0.000 0.000 0.000
v -0.14868 0.09670 2.88241 0.000 0.000 0.988
v -0.14534 0.09347 2.86996 0.000 0.000 0.996
v -0.14929 0.08057 2.87224 0.000 0.000 0.953
v -0.14368 0.08057 2.86373 0.000 0.000 0.996
v -0.14534 0.06768 2.86996 0.000 0.000 0.988
v -0.14868 0.06446 2.88241 0.000 0.000 1.000
v -0.15346 0.08057 2.88781 0.000 0.000 1.000
v 0.13200 0.14629 2.81914 0.000 0.000 0.996
v 0.14917 0.13718 2.81025 0.000 0.000 0.988
v 0.14033 0.12094 2.82148 0.000 0.000 0.969
v 0.15993 0.12443 2.81605 0.000 0.000 0.996
v 0.15882 0.11344 2.82982 0.000 0.000 0.996
v 0.14551 0.11306 2.84654 0.000 0.000 0.996
v 0.12767 0.12706 2.83514 0.000 0.000 0.988
v 0.17118 0.14209 2.79473 0.000 0.000 0.000
v 0.15981 0.13696 2.81538 0.000 0.000 0.000
v 0.15169 0.14603 2.80912 0.000 0.000 0.000
v 0.15981 0.13696 2.81538 0.000 0.000 0.000
v 0.18130 0.12287 2.80359 0.000 0.000 0.000
v 0.16559 0.12274 2.82712 0.000 0.000 0.000
v 0.16559 0.12274 2.82712 0.000 0.000 0.000
v 0.18469 0.10888 2.82213 0.000 0.000 0.000
v 0.16520 0.11281 2.83651 0.000 0.000 0.000
v -0.14216 0.09025 2.86297 0.000 0.000 0.000
v -0.14383 0.10314 2.86920 0.000 0.000 0.000
v -0.14421 0.10636 2.84575 0.000 0.000 0.000
v -0.12887 0.09992 2.86319 0.000 0.000 0.000
v -0.14383 0.10314 2.86920 0.000 0.000 0.000
v -0.12720 0.08057 2.85696 0.000 0.000 0.000
v -0.14255 0.08057 2.83952 0.000 0.000 0.000
v -0.14216 0.07090 2.86297 0.000 0.000 0.000
v -0.14216 0.09025 2.86297 0.000 0.000 0.000
v -0.12887 0.06124 2.86319 0.000 0.000 0.000
v -0.14421 0.05479 2.84575 0.000 0.000 0.000
v -0.14383 0.05801 2.86920 0.000 0.000 0.000
v -0.14216 0.07090 2.86297 0.000 0.000 0.000
v 0.15575 -0.14825 3.07856 0.000 0.000 0.969
v 0.19417 -0.15471 2.99941 0.000 0.000 0.969
v 0.19760 -0.13133 3.07105 0.000 0.000 0.945
v 0.12902 -0.17726 2.99569 0.000 0.000 0.969
v 0.18358 -0.07735 3.12674 0.000 0.000 0.953
v 0.23980 -0.03771 3.00510 0.000 0.000 0.855
v 0.22226 -0.06156 3.08669 0.000 0.000 0.843
v 0.24247 0.00000 3.00584 0.000 0.000 0.843
v 0.19404 0.00000 3.13664 0.000 0.000 0.929
v 0.23134 0.00000 3.08997 0.000 0.000 0.776
v 0.18485 -0.15100 2.95495 0.000 0.000 0.961
v 0.22624 -0.07639 2.96030 0.000 0.000 0.929
v 0.23199 0.00000 2.95821 0.000 0.000 0.922
v 0.20871 -0.06446 2.92723 0.000 0.000 0.969
v 0.21986 0.00000 2.92489 0.000 0.000 0.969
v 0.17608 -0.12569 2.92711 0.000 0.000 0.969
v 0.15130 -0.14503 2.91555 0.000 0.000 0.969
v 0.13176 -0.16760 2.94667 0.000 0.000 0.969
v 0.20871 0.06446 2.92723 0.000 0.000 0.969
v 0.22624 0.07639 2.96030 0.000 0.000 0.929
v 0.23980 0.03771 3.00510 0.000 0.000 0.855
v 0.22226 0.06156 3.08669 0.000 0.000 0.843
v 0.19760 0.13133 3.07105 0.000 0.000 0.945
v 0.19417 0.15471 2.99941 0.000 0.000 0.969
v 0.15575 0.14825 3.07856 0.000 0.000 0.969
v 0.12902 0.17726 2.99569 0.000 0.000 0.969
v 0.18358 0.07735 3.12674 0.000 0.000 0.953
v 0.17608 0.12569 2.92711 0.000 0.000 0.969
v 0.18485 0.15100 2.95495 0.000 0.000 0.961
v 0.15130 0.14503 2.91555 0.000 0.000 0.969
v 0.13176 0.16760 2.94667 0.000 0.000 0.969
v 0.20189 -0.13963 2.99333 0.000 0.000 0.000
v 0.21187 -0.11867 2.97167 0.000 0.000 0.000
v 0.23313 -0.09585 3.02679 0.000 0.000 0.000
v 0.19633 -0.14729 3.02357 0.000 0.000 0.000
v 0.19655 -0.13963 3.05433 0.000 0.000 0.000
v 0.20262 -0.11867 3.07737 0.000 0.000 0.000
v 0.21283 -0.09011 3.08650 0.000 0.000 0.000
v 0.22446 -0.06149 3.07930 0.000 0.000 0.000
v 0.23444 -0.04061 3.05764 0.000 0.000 0.000
v 0.24000 -0.03294 3.02740 0.000 0.000 0.000
v 0.23978 -0.04061 2.99664 0.000 0.000 0.000
v 0.23370 -0.06149 2.97360 0.000 0.000 0.000
v 0.22350 -0.09011 2.96447 0.000 0.000 0.000
v 0.20189 0.13963 2.99333 0.000 0.000 0.000
v 0.23313 0.09585 3.02679 0.000 0.000 0.000
v 0.21187 0.11867 2.97167 0.000 0.000 0.000
v 0.19633 0.14729 3.02357 0.000 0.000 0.000
v 0.19655 0.13963 3.05433 0.000 0.000 0.000
v 0.20262 0.11867 3.07737 0.000 0.000 0.000
v 0.21283 0.09011 3.08650 0.000 0.000 0.000
v 0.22446 0.06149 3.07930 0.000 0.000 0.000
v 0.23444 0.04061 3.05764 0.000 0.000 0.000
v 0.24000 0.03294 3.02740 0.000 0.000 0.000
v 0.23978 0.04061 2.99664 0.000 0.000 0.000
v 0.23370 0.06149 2.97360 0.000 0.000 0.000
v 0.22350 0.09011 2.96447 0.000 0.000 0.000
v 0.15130 -0.14503 2.91555 0.878 0.000 0.000
v 0.15873 -0.11603 2.88884 0.886 0.000 0.000
v 0.17608 -0.12569 2.92711 0.863 0.000 0.000
v 0.15130 0.14503 2.91555 0.878 0.000 0.000
v 0.17608 0.12569 2.92711 0.863 0.000 0.000
v 0.15873 0.11603 2.88884 0.886 0.000 0.000
v -0.13562 -0.09670 2.93765 0.976 0.000 0.000
v -0.08413 -0.14825 2.91892 0.976 0.000 0.000
v -0.10751 -0.13858 2.99603 0.961 0.000 0.000
v -0.13367 -0.11281 2.91357 0.988 0.000 0.000
v -0.03511 -0.18371 2.95938 0.957 0.000 0.000
v -0.02118 -0.18049 3.04006 0.914 0.000 0.000
v -0.07913 -0.13858 3.06459 0.945 0.000 0.000
v -0.12869 -0.07412 3.07919 0.945 0.000 0.000
v -0.04166 -0.12247 3.12984 0.906 0.000 0.000
v -0.07498 -0.06768 3.14195 0.902 0.000 0.000
v -0.15184 -0.07412 3.01559 0.961 0.000 0.000
v -0.17001 0.00000 3.02220 0.953 0.000 0.000
v -0.14081 0.00000 3.08360 0.941 0.000 0.000
v -0.09315 0.00000 3.14858 0.910 0.000 0.000
v -0.02567 0.00000 3.19261 0.867 0.000 0.000
v -0.01164 -0.17082 2.88911 0.965 0.000 0.000
v 0.01476 -0.19532 2.93213 0.945 0.000 0.000
v 0.09023 -0.19053 2.89298 0.929 0.000 0.000
v 0.03660 -0.20389 3.01410 0.914 0.000 0.000
v -0.02118 -0.18049 3.04006 0.914 0.000 0.000
v 0.05167 -0.18371 3.07528 0.925 0.000 0.000
v 0.00707 -0.15149 3.12239 0.918 0.000 0.000
v -0.00283 -0.09347 3.17057 0.902 0.000 0.000
v 0.05583 -0.06768 3.19039 0.914 0.000 0.000
v 0.06327 0.00000 3.20139 0.792 0.000 0.000
v 0.12769 -0.06446 3.17110 0.863 0.000 0.000
v 0.13898 0.00000 3.17383 0.765 0.000 0.000
v 0.10866 -0.17726 3.07168 0.827 0.000 0.000
v 0.11462 -0.19015 2.99705 0.859 0.000 0.000
v 0.15575 -0.14825 3.07856 0.780 0.000 0.000
v 0.12902 -0.17726 2.99569 0.855 0.000 0.000
v 0.07783 -0.17082 3.10007 0.459 0.455 0.000
v 0.12520 -0.14503 3.11711 0.400 0.396 0.000
v 0.15329 -0.10958 3.13776 0.773 0.000 0.000
v 0.18358 -0.07735 3.12674 0.776 0.000 0.000
v 0.19404 0.00000 3.13664 0.749 0.000 0.000
v 0.13176 -0.16760 2.94667 0.894 0.000 0.000
v 0.12769 0.06446 3.17110 0.863 0.000 0.000
v 0.05583 0.06768 3.19039 0.914 0.000 0.000
v -0.00283 0.09347 3.17057 0.902 0.000 0.000
v 0.18358 0.07735 3.12674 0.776 0.000 0.000
v 0.15329 0.10958 3.13776 0.773 0.000 0.000
v 0.15575 0.14825 3.07856 0.780 0.000 0.000
v 0.12520 0.14503 3.11711 0.400 0.396 0.000
v 0.10866 0.17726 3.07168 0.827 0.000 0.000
v 0.11462 0.19015 2.99705 0.859 0.000 0.000
v 0.12902 0.17726 2.99569 0.855 0.000 0.000
v 0.03660 0.20389 3.01410 0.914 0.000 0.000
v 0.05167 0.18371 3.07528 0.925 0.000 0.000
v -0.02118 0.18049 3.04006 0.914 0.000 0.000
v 0.00707 0.15149 3.12239 0.918 0.000 0.000
v -0.04166 0.12247 3.12984 0.906 0.000 0.000
v -0.07913 0.13858 3.06459 0.945 0.000 0.000
v -0.12869 0.07412 3.07919 0.945 0.000 0.000
v -0.07498 0.06768 3.14195 0.902 0.000 0.000
v -0.10751 0.13858 2.99603 0.961 0.000 0.000
v -0.15184 0.07412 3.01559 0.961 0.000 0.000
v -0.02118 0.18049 3.04006 0.914 0.000 0.000
v -0.03511 0.18371 2.95938 0.957 0.000 0.000
v -0.08413 0.14825 2.91892 0.976 0.000 0.000
v -0.13562 0.09670 2.93765 0.976 0.000 0.000
v -0.13367 0.11281 2.91357 0.988 0.000 0.000
v -0.01164 0.17082 2.88911 0.965 0.000 0.000
v 0.01476 0.19532 2.93213 0.945 0.000 0.000
v 0.09023 0.19053 2.89298 0.929 0.000 0.000
v -0.06424 0.13536 2.86709 0.973 0.000 0.000
v 0.04089 0.14342 2.85201 0.945 0.000 0.000
v -0.18566 0.05157 2.97920 0.965 0.000 0.000
v -0.22648 0.00000 2.97074 0.478 0.475 0.000
v -0.17940 0.04513 2.93989 0.000 0.992 0.000
v -0.14436 0.00000 2.88254 0.000 0.992 0.000
v -0.17940 -0.04513 2.93989 0.000 0.992 0.000
v -0.18566 -0.05157 2.97920 0.965 0.000 0.000
v -0.20528 -0.04513 2.96302 0.482 0.478 0.000
v -0.14000 -0.05479 2.90558 0.000 0.992 0.000
v -0.07195 -0.03224 2.84589 0.000 0.988 0.000
v -0.07195 0.00000 2.84589 0.000 0.988 0.000
v -0.14383 -0.05801 2.86920 0.980 0.000 0.000
v -0.15612 -0.08057 2.90261 0.498 0.494 0.000
v -0.14383 -0.10314 2.86920 0.980 0.000 0.000
v -0.06424 -0.13536 2.86709 0.973 0.000 0.000
v -0.01266 -0.07735 2.82433 0.000 0.969 0.000
v 0.04089 -0.14342 2.85201 0.945 0.000 0.000
v -0.14049 -0.08057 2.85674 0.980 0.000 0.000
v -0.14383 -0.05801 2.86920 0.980 0.000 0.000
v -0.07195 -0.03224 2.84589 0.000 0.988 0.000
v 0.00227 0.00000 2.81306 0.000 0.973 0.000
v -0.07195 0.00000 2.84589 0.000 0.988 0.000
v 0.07653 -0.09137 2.82904 0.000 0.918 0.000
v 0.08864 0.00000 2.81569 0.000 0.925 0.000
v 0.10660 -0.13867 2.85809 0.918 0.000 0.000
v 0.14263 -0.08863 2.84868 0.000 0.906 0.000
v 0.14454 -0.12254 2.86936 0.000 0.914 0.000
v 0.15873 -0.11603 2.88884 0.000 0.886 0.000
v 0.19521 -0.06930 2.89957 0.000 0.859 0.000
v 0.16237 0.00000 2.83979 0.000 0.898 0.000
v 0.20802 0.00000 2.90176 0.000 0.859 0.000
v 0.21987 0.00000 2.92489 0.800 0.000 0.000
v 0.20871 -0.06446 2.92723 0.839 0.000 0.000
v 0.17608 -0.12569 2.92711 0.863 0.000 0.000
v 0.15130 -0.14503 2.91555 0.882 0.000 0.000
v 0.19521 0.06930 2.89957 0.000 0.859 0.000
v 0.20871 0.06446 2.92723 0.839 0.000 0.000
v 0.14263 0.08863 2.84868 0.000 0.906 0.000
v 0.15873 0.11603 2.88884 0.000 0.886 0.000
v 0.17608 0.12569 2.92711 0.863 0.000 0.000
v 0.14454 0.12254 2.86936 0.000 0.914 0.000
v 0.15130 0.14503 2.91555 0.882 0.000 0.000
v 0.10660 0.13867 2.85809 0.918 0.000 0.000
v 0.07653 0.09137 2.82904 0.000 0.918 0.000
v -0.01266 0.07735 2.82433 0.000 0.969 0.000
v -0.07195 0.03224 2.84589 0.000 0.988 0.000
v -0.14383 0.05801 2.86920 0.980 0.000 0.000
v -0.14049 0.08057 2.85674 0.980 0.000 0.000
v -0.14383 0.10314 2.86920 0.980 0.000 0.000
v -0.15612 0.08057 2.90261 0.498 0.494 0.000
v -0.14000 0.05479 2.90558 0.000 0.992 0.000
v -0.14383 0.05801 2.86920 0.980 0.000 0.000
v -0.07195 0.03224 2.84589 0.000 0.988 0.000
v -0.20528 0.04513 2.96302 0.482 0.478 0.000
v 0.12982 -0.21710 3.21464 0.000 0.890 0.000
v 0.13350 -0.19730 3.17761 0.000 0.839 0.000
v 0.14411 -0.18963 3.19734 0.447 0.443 0.000
v 0.15329 -0.10958 3.13776 0.773 0.000 0.000
v 0.12520 -0.14503 3.11711 0.400 0.396 0.000
v 0.10151 -0.19017 3.14626 0.000 0.890 0.000
v 0.09670 -0.21789 3.18960 0.000 0.894 0.000
v 0.07783 -0.17082 3.10007 0.459 0.455 0.000
v 0.08808 -0.21420 3.15650 0.000 0.918 0.000
v 0.14097 -0.16627 2.83167 0.898 0.000 0.000
v 0.15288 -0.14870 2.80598 0.894 0.000 0.000
v 0.17267 -0.15167 2.85228 0.882 0.000 0.000
v 0.17833 -0.13936 2.82505 0.886 0.000 0.000
v 0.16839 -0.11056 2.83743 0.882 0.000 0.000
v 0.14454 -0.12254 2.86936 0.882 0.000 0.000
v 0.14076 -0.12141 2.82186 0.000 0.961 0.000
v 0.10660 -0.13867 2.85809 0.957 0.000 0.000
v 0.09023 -0.19053 2.89298 0.929 0.000 0.000
v 0.13176 -0.16760 2.94667 0.894 0.000 0.000
v 0.15130 -0.14503 2.91555 0.882 0.000 0.000
v 0.17050 -0.12670 2.81356 0.898 0.000 0.000
v 0.14076 -0.12141 2.82186 0.000 0.961 0.000
v 0.07922 -0.12892 3.15101 1.000 0.000 0.000
v 0.12520 -0.14503 3.11711 0.400 0.396 0.000
v 0.15329 -0.10958 3.13776 0.773 0.000 0.000
v 0.16892 -0.18225 3.19955 0.773 0.000 0.000
v 0.09720 -0.19888 3.20038 1.000 0.000 0.000
v 0.07462 -0.24509 3.13835 0.886 0.000 0.000
v 0.07783 -0.17082 3.10007 0.459 0.455 0.000
v 0.05167 -0.18371 3.07528 0.925 0.000 0.000
v 0.00707 -0.15149 3.12239 0.918 0.000 0.000
v 0.04699 -0.22106 3.18494 0.875 0.000 0.000
v -0.00283 -0.09347 3.17057 0.902 0.000 0.000
v 0.05022 -0.18963 3.23152 0.878 0.000 0.000
v 0.08872 -0.28010 3.24304 0.000 0.804 0.000
v 0.09876 -0.24136 3.26120 0.000 0.769 0.000
v 0.10602 -0.30973 3.22461 0.000 0.757 0.000
v 0.13987 -0.32341 3.27051 0.000 0.655 0.000
v 0.13450 -0.30289 3.26518 0.000 0.804 0.000
v 0.12368 -0.25276 3.24486 0.486 0.482 0.000
v 0.11074 -0.17114 3.23759 0.886 0.000 0.000
v 0.14134 -0.23224 3.26511 0.000 0.749 0.000
v 0.18574 -0.30973 3.30232 0.000 0.627 0.000
v 0.17690 -0.23908 3.24976 0.000 0.733 0.000
v 0.13450 -0.30289 3.26518 0.000 0.804 0.000
v 0.05583 -0.06768 3.19039 0.914 0.000 0.000
v 0.12769 -0.06446 3.17110 0.863 0.000 0.000
v 0.16892 -0.18225 3.19955 0.773 0.000 0.000
v 0.15329 -0.10958 3.13776 0.773 0.000 0.000
v 0.18574 -0.30973 3.30232 0.000 0.627 0.000
v 0.17690 -0.23908 3.24976 0.000 0.733 0.000
v -0.15612 -0.08057 2.90261 0.498 0.494 0.000
v -0.14383 -0.05801 2.86920 0.980 0.000 0.000
v -0.14049 -0.08057 2.85674 0.980 0.000 0.000
v -0.14383 -0.10314 2.86920 0.980 0.000 0.000
v 0.07783 0.17082 3.10007 0.459 0.455 0.000
v 0.12982 0.21710 3.21464 0.000 0.890 0.000
v 0.14411 0.18963 3.19734 0.447 0.443 0.000
v 0.13350 0.19730 3.17761 0.000 0.839 0.000
v 0.15329 0.10958 3.13776 0.773 0.000 0.000
v 0.12520 0.14503 3.11711 0.400 0.396 0.000
v 0.10151 0.19017 3.14626 0.000 0.890 0.000
v 0.09670 0.21789 3.18960 0.000 0.894 0.000
v 0.07783 0.17082 3.10007 0.459 0.455 0.000
v 0.08808 0.21420 3.15650 0.000 0.918 0.000
v 0.14097 0.16627 2.83167 0.898 0.000 0.000
v 0.17267 0.15167 2.85228 0.882 0.000 0.000
v 0.15288 0.14870 2.80598 0.894 0.000 0.000
v 0.17833 0.13936 2.82505 0.886 0.000 0.000
v 0.16839 0.11056 2.83743 0.882 0.000 0.000
v 0.14454 0.12254 2.86936 0.882 0.000 0.000
v 0.14076 0.12141 2.82186 0.000 0.961 0.000
v 0.10660 0.13867 2.85809 0.957 0.000 0.000
v 0.09023 0.19053 2.89298 0.929 0.000 0.000
v 0.13176 0.16760 2.94667 0.894 0.000 0.000
v 0.15130 0.14503 2.91555 0.882 0.000 0.000
v 0.17050 0.12670 2.81356 0.898 0.000 0.000
v 0.14076 0.12141 2.82186 0.000 0.961 0.000
v 0.07922 0.12892 3.15101 1.000 0.000 0.000
v 0.15329 0.10958 3.13776 0.773 0.000 0.000
v 0.12520 0.14503 3.11711 0.400 0.396 0.000
v 0.16892 0.18225 3.19955 0.773 0.000 0.000
v 0.09720 0.19888 3.20038 1.000 0.000 0.000
v 0.07462 0.24509 3.13835 0.886 0.000 0.000
v 0.07783 0.17082 3.10007 0.459 0.455 0.000
v 0.05167 0.18371 3.07528 0.925 0.000 0.000
v 0.00707 0.15149 3.12239 0.918 0.000 0.000
v 0.04699 0.22106 3.18494 0.875 0.000 0.000
v -0.00283 0.09347 3.17057 0.902 0.000 0.000
v 0.05022 0.18963 3.23152 0.878 0.000 0.000
v 0.08872 0.28010 3.24304 0.000 0.804 0.000
v 0.09876 0.24136 3.26120 0.000 0.769 0.000
v 0.10602 0.30973 3.22461 0.000 0.757 0.000
v 0.13987 0.32341 3.27051 0.000 0.655 0.000
v 0.13450 0.30289 3.26518 0.000 0.804 0.000
v 0.12368 0.25276 3.24486 0.486 0.482 0.000
v 0.11074 0.17114 3.23759 0.886 0.000 0.000
v 0.14134 0.23224 3.26511 0.000 0.749 0.000
v 0.18574 0.30973 3.30232 0.000 0.627 0.000
v 0.17690 0.23908 3.24976 0.000 0.733 0.000
v 0.13450 0.30289 3.26518 0.000 0.804 0.000
v 0.05583 0.06768 3.19039 0.914 0.000 0.000
v 0.12769 0.06446 3.17110 0.863 0.000 0.000
v 0.16892 0.18225 3.19955 0.773 0.000 0.000
v 0.15329 0.10958 3.13776 0.773 0.000 0.000
v 0.18574 0.30973 3.30232 0.000 0.627 0.000
v 0.17690 0.23908 3.24976 0.000 0.733 0.000
v -0.15612 0.08057 2.90261 0.498 0.494 0.000
v -0.14049 0.08057 2.85674 0.980 0.000 0.000
v -0.14383 0.05801 2.86920 0.980 0.000 0.000
v -0.14383 0.10314 2.86920 0.980 0.000 0.000
v 0.13176 0.16760 2.94667 0.894 0.000 0.000
vt 0.36719 0.16406
vt 0.32031 0.08594
vt 0.41406 0.08594
vt 0.32031 0.08594
vt 0.41406 0.08594
vt 0.32031 0.08594
vt 0.41406 0.08594
vt 0.41406 0.08594
vt 0.32031 0.08594
vt 0.36719 0.16406
vt 0.32031 0.08594
vt 0.41406 0.08594
vt 0.32031 0.08594
vt 0.41406 0.08594
vt 0.61719 0.16406
vt 0.66406 0.08594
vt 0.67969 0.14844
vt 0.71094 0.08594
vt 0.67969 0.14844
vt 0.61719 0.16406
vt 0.57031 0.08594
vt 0.61719 0.16406
vt 0.63281 0.08594
vt 0.67969 0.14844
vt 0.71094 0.08594
vt 0.67969 0.14844
vt 0.61719 0.16406
vt 0.57031 0.08594
vt 0.46094 0.69531
vt 0.46094 0.82031
vt 0.52344 0.69531
vt 0.53906 0.82031
vt 0.53906 0.69531
vt 0.52344 0.69531
vt 0.53906 0.69531
vt 0.46094 0.69531
vt 0.92969 0.21094
vt 0.99219 0.14844
vt 0.99219 0.24219
vt 0.99219 0.14844
vt 0.99219 0.24219
vt 0.92969 0.21094
vt 0.99219 0.14844
vt 0.99219 0.24219
vt 0.92969 0.21094
vt 0.92969 0.21094
vt 0.99219 0.14844
vt 0.91406 0.14844
vt 0.99219 0.24219
vt 0.92969 0.21094
vt 0.99219 0.14844
vt 0.99219 0.24219
vt 0.92969 0.21094
vt 0.91406 0.14844
vt 0.99219 0.14844
vt 0.99219 0.24219
vt 0.92969 0.21094
vt 0.91406 0.14844
vt 0.61719 0.16406
vt 0.67969 0.14844
vt 0.66406 0.08594
vt 0.71094 0.08594
vt 0.67969 0.14844
vt 0.61719 0.16406
vt 0.57031 0.08594
vt 0.61719 0.16406
vt 0.67969 0.14844
vt 0.63281 0.08594
vt 0.71094 0.08594
vt 0.67969 0.14844
vt 0.61719 0.16406
vt 0.57031 0.08594
vt 0.92969 0.21094
vt 0.99219 0.24219
vt 0.99219 0.14844
vt 0.99219 0.14844
vt 0.92969 0.21094
vt 0.99219 0.24219
vt 0.99219 0.14844
vt 0.92969 0.21094
vt 0.99219 0.24219
vt 0.92969 0.21094
vt 0.91406 0.14844
vt 0.99219 0.14844
vt 0.99219 0.24219
vt 0.92969 0.21094
vt 0.99219 0.24219
vt 0.99219 0.14844
vt 0.92969 0.21094
vt 0.91406 0.14844
vt 0.99219 0.24219
vt 0.99219 0.14844
vt 0.92969 0.21094
vt 0.91406 0.14844
vt 0.24219 0.30469
vt 0.21094 0.19531
vt 0.19531 0.27344
vt 0.30469 0.19531
vt 0.13281 0.39844
vt 0.08594 0.19531
vt 0.08594 0.28906
vt 0.00781 0.19531
vt 0.00781 0.41406
vt 0.00781 0.30469
vt 0.17969 0.13281
vt 0.11719 0.13281
vt 0.00781 0.13281
vt 0.10156 0.08594
vt 0.00781 0.08594
vt 0.19531 0.08594
vt 0.25781 0.08594
vt 0.28906 0.11719
vt 0.10156 0.08594
vt 0.11719 0.13281
vt 0.08594 0.19531
vt 0.08594 0.28906
vt 0.19531 0.27344
vt 0.21094 0.19531
vt 0.24219 0.30469
vt 0.30469 0.19531
vt 0.13281 0.39844
vt 0.19531 0.08594
vt 0.17969 0.13281
vt 0.25781 0.08594
vt 0.28906 0.11719
vt 0.74219 0.07031
vt 0.74219 0.07031
vt 0.32031 0.07031
vt 0.74219 0.07031
vt 0.74219 0.07031
vt 0.74219 0.07031
vt 0.74219 0.07031
vt 0.74219 0.07031
vt 0.74219 0.07031
vt 0.74219 0.07031
vt 0.74219 0.07031
vt 0.74219 0.07031
vt 0.74219 0.07031
vt 0.74219 0.07031
vt 0.32031 0.07031
vt 0.74219 0.07031
vt 0.74219 0.07031
vt 0.74219 0.07031
vt 0.74219 0.07031
vt 0.74219 0.07031
vt 0.74219 0.07031
vt 0.74219 0.07031
vt 0.74219 0.07031
vt 0.74219 0.07031
vt 0.74219 0.07031
vt 0.74219 0.07031
vt 0.44531 0.42969
vt 0.46094 0.39844
vt 0.39844 0.44531
vt 0.44531 0.42969
vt 0.39844 0.44531
vt 0.46094 0.39844
vt 0.82031 0.32031
vt 0.72656 0.33594
vt 0.78906 0.41406
vt 0.72656 0.27344
vt 0.69531 0.41406
vt 0.72656 0.47656
vt 0.80469 0.50781
vt 0.89844 0.49219
vt 0.80469 0.60156
vt 0.88281 0.60156
vt 0.88281 0.41406
vt 0.99219 0.41406
vt 0.99219 0.50781
vt 0.97656 0.61719
vt 0.91406 0.71094
vt 0.64844 0.35156
vt 0.63281 0.41406
vt 0.55469 0.41406
vt 0.63281 0.52344
vt 0.71094 0.53906
vt 0.66406 0.58594
vt 0.74219 0.61719
vt 0.80469 0.66406
vt 0.77344 0.74219
vt 0.82031 0.82031
vt 0.69531 0.78906
vt 0.72656 0.86719
vt 0.60156 0.61719
vt 0.55469 0.55469
vt 0.55469 0.67969
vt 0.50781 0.55469
vt 0.64844 0.63281
vt 0.63281 0.69531
vt 0.63281 0.75781
vt 0.61719 0.82031
vt 0.64844 0.89844
vt 0.49219 0.47656
vt 0.69531 0.78906
vt 0.77344 0.74219
vt 0.80469 0.66406
vt 0.61719 0.82031
vt 0.63281 0.75781
vt 0.55469 0.67969
vt 0.63281 0.69531
vt 0.60156 0.61719
vt 0.55469 0.55469
vt 0.50781 0.55469
vt 0.63281 0.52344
vt 0.66406 0.58594
vt 0.71094 0.53906
vt 0.74219 0.61719
vt 0.80469 0.60156
vt 0.80469 0.50781
vt 0.89844 0.49219
vt 0.88281 0.60156
vt 0.78906 0.41406
vt 0.88281 0.41406
vt 0.72656 0.47656
vt 0.69531 0.41406
vt 0.72656 0.33594
vt 0.82031 0.32031
vt 0.72656 0.27344
vt 0.64844 0.35156
vt 0.63281 0.41406
vt 0.55469 0.41406
vt 0.61719 0.28906
vt 0.52344 0.33594
vt 0.92969 0.35156
vt 0.99219 0.30469
vt 0.89844 0.27344
vt 0.83594 0.14844
vt 0.89844 0.27344
vt 0.92969 0.35156
vt 0.89844 0.30469
vt 0.77344 0.21094
vt 0.72656 0.11719
vt 0.75781 0.07031
vt 0.69531 0.16406
vt 0.67969 0.19531
vt 0.58594 0.21094
vt 0.61719 0.28906
vt 0.46094 0.25781
vt 0.52344 0.33594
vt 0.57031 0.19531
vt 0.55469 0.16406
vt 0.53906 0.13281
vt 0.41406 0.17969
vt 0.50781 0.08594
vt 0.42969 0.30469
vt 0.36719 0.22656
vt 0.50781 0.36719
vt 0.41406 0.35156
vt 0.47656 0.38281
vt 0.46094 0.39844
vt 0.33594 0.38281
vt 0.32031 0.27344
vt 0.25781 0.33594
vt 0.22656 0.36719
vt 0.30469 0.41406
vt 0.39844 0.44531
vt 0.44531 0.42969
vt 0.33594 0.38281
vt 0.30469 0.41406
vt 0.41406 0.35156
vt 0.46094 0.39844
vt 0.39844 0.44531
vt 0.47656 0.38281
vt 0.44531 0.42969
vt 0.50781 0.36719
vt 0.42969 0.30469
vt 0.46094 0.25781
vt 0.53906 0.13281
vt 0.55469 0.16406
vt 0.57031 0.19531
vt 0.58594 0.21094
vt 0.67969 0.19531
vt 0.77344 0.21094
vt 0.69531 0.16406
vt 0.72656 0.11719
vt 0.89844 0.30469
vt 0.99219 0.11719
vt 0.94531 0.10156
vt 0.94531 0.13281
vt 0.85156 0.13281
vt 0.80469 0.07031
vt 0.92969 0.03906
vt 0.99219 0.05469
vt 0.75781 0.00781
vt 0.97656 0.00781
vt 0.88281 0.83594
vt 0.83594 0.85156
vt 0.92969 0.91406
vt 0.88281 0.89844
vt 0.83594 0.85156
vt 0.88281 0.83594
vt 0.89844 0.78906
vt 0.99219 0.74219
vt 0.99219 0.83594
vt 0.99219 0.91406
vt 0.99219 0.83594
vt 0.83594 0.89844
vt 0.80469 0.86719
vt 0.17969 0.52344
vt 0.16406 0.44531
vt 0.07031 0.46094
vt 0.00781 0.58594
vt 0.11719 0.61719
vt 0.21094 0.64844
vt 0.27344 0.47656
vt 0.32031 0.44531
vt 0.38281 0.52344
vt 0.27344 0.67969
vt 0.44531 0.63281
vt 0.33594 0.72656
vt 0.19531 0.77344
vt 0.24219 0.80469
vt 0.14844 0.75781
vt 0.10156 0.82031
vt 0.08594 0.78906
vt 0.07031 0.71094
vt 0.36719 0.80469
vt 0.25781 0.85156
vt 0.11719 0.91406
vt 0.25781 0.91406
vt 0.14844 0.82031
vt 0.44531 0.72656
vt 0.44531 0.83594
vt 0.38281 0.91406
vt 0.50781 0.91406
vt 0.00781 0.82031
vt 0.00781 0.69531
vt 0.71094 0.64844
vt 0.64844 0.72656
vt 0.71094 0.75781
vt 0.77344 0.72656
vt 0.64844 0.63281
vt 0.99219 0.11719
vt 0.94531 0.13281
vt 0.94531 0.10156
vt 0.85156 0.13281
vt 0.80469 0.07031
vt 0.92969 0.03906
vt 0.99219 0.05469
vt 0.75781 0.00781
vt 0.97656 0.00781
vt 0.88281 0.83594
vt 0.92969 0.91406
vt 0.83594 0.85156
vt 0.88281 0.89844
vt 0.83594 0.85156
vt 0.88281 0.83594
vt 0.89844 0.78906
vt 0.99219 0.74219
vt 0.99219 0.83594
vt 0.99219 0.91406
vt 0.99219 0.83594
vt 0.83594 0.89844
vt 0.80469 0.86719
vt 0.17969 0.52344
vt 0.07031 0.46094
vt 0.16406 0.44531
vt 0.00781 0.58594
vt 0.11719 0.61719
vt 0.21094 0.64844
vt 0.27344 0.47656
vt 0.32031 0.44531
vt 0.38281 0.52344
vt 0.27344 0.67969
vt 0.44531 0.63281
vt 0.33594 0.72656
vt 0.19531 0.77344
vt 0.24219 0.80469
vt 0.14844 0.75781
vt 0.10156 0.82031
vt 0.08594 0.78906
vt 0.07031 0.71094
vt 0.36719 0.80469
vt 0.25781 0.85156
vt 0.11719 0.91406
vt 0.25781 0.91406
vt 0.14844 0.82031
vt 0.44531 0.72656
vt 0.44531 0.83594
vt 0.38281 0.91406
vt 0.50781 0.91406
vt 0.00781 0.82031
vt 0.00781 0.69531
vt 0.71094 0.64844
vt 0.71094 0.75781
vt 0.64844 0.72656
vt 0.77344 0.72656
vt 0.49219 0.47656
usemtl m0
f 1/1 2/2 3/3
f 1/1 3/3 4/4
f 5/5 1/1 4/4
f 6/6 1/1 5/5
f 6/6 7/7 1/1
f 2/2 1/1 7/7
f 8/8 9/9 10/10
f 11/11 8/8 10/10
f 11/11 10/10 12/12
f 12/12 10/10 13/13
f 10/10 14/14 13/13
f 14/14 10/10 9/9
usemtl m1
f 15/15 16/16 17/17
f 17/17 16/16 18/18
f 18/18 16/16 19/19
f 19/19 16/16 20/20
f 20/20 16/16 21/21
f 21/21 16/16 15/15
f 22/22 23/23 24/24
f 24/24 23/23 25/25
f 25/25 23/23 26/26
f 26/26 23/23 27/27
f 23/23 28/28 27/27
f 22/22 28/28 23/23
f 29/29 30/30 31/31
f 30/30 32/32 31/31
f 32/32 33/33 31/31
f 34/34 32/32 30/30
f 34/34 35/35 32/32
f 34/34 30/30 36/36
f 37/37 38/38 39/39
f 40/40 41/41 42/42
f 43/43 44/44 45/45
f 46/46 47/47 48/48
f 49/49 47/47 46/46
f 50/50 47/47 49/49
f 46/46 51/51 52/52
f 52/52 51/51 53/53
f 53/53 51/51 54/54
f 53/53 55/55 56/56
f 56/56 55/55 57/57
f 57/57 55/55 58/58
f 59/59 60/60 61/61
f 60/60 62/62 61/61
f 62/62 63/63 61/61
f 63/63 64/64 61/61
f 64/64 65/65 61/61
f 65/65 59/59 61/61
f 66/66 67/67 68/68
f 67/67 69/69 68/68
f 69/69 70/70 68/68
f 70/70 71/71 68/68
f 68/68 71/71 72/72
f 66/66 68/68 72/72
f 73/73 74/74 75/75
f 76/76 77/77 78/78
f 79/79 80/80 81/81
f 82/82 83/83 84/84
f 85/85 82/82 84/84
f 86/86 85/85 84/84
f 82/82 87/87 88/88
f 87/87 89/89 88/88
f 89/89 90/90 88/88
f 89/89 91/91 92/92
f 91/91 93/93 92/92
f 93/93 94/94 92/92
f 95/95 96/96 97/97
f 95/95 98/98 96/96
f 99/99 95/95 97/97
f 97/97 96/96 100/100
f 97/97 100/100 101/101
f 99/99 97/97 101/101
f 100/100 102/102 101/101
f 99/99 101/101 103/103
f 101/101 104/104 103/103
f 102/102 104/104 101/101
f 105/105 96/96 98/98
f 96/96 105/105 106/106
f 100/100 106/106 102/102
f 100/100 96/96 106/106
f 106/106 107/107 102/102
f 106/106 108/108 107/107
f 108/108 109/109 107/107
f 108/108 106/106 110/110
f 106/106 105/105 110/110
f 111/111 110/110 105/105
f 112/112 111/111 105/105
f 112/112 105/105 98/98
f 107/107 109/109 113/113
f 114/114 107/107 113/113
f 102/102 107/107 114/114
f 115/115 102/102 114/114
f 116/116 104/104 102/102
f 116/116 103/103 104/104
f 115/115 116/116 102/102
f 117/117 116/116 115/115
f 117/117 115/115 118/118
f 115/115 114/114 118/118
f 119/119 117/117 118/118
f 119/119 118/118 120/120
f 121/121 117/117 119/119
f 121/121 116/116 117/117
f 121/121 103/103 116/116
f 113/113 122/122 114/114
f 122/122 123/123 114/114
f 120/120 118/118 123/123
f 114/114 123/123 118/118
f 124/124 123/123 122/122
f 125/125 123/123 124/124
f 125/125 120/120 123/123
f 126/126 127/127 128/128
f 129/129 126/126 128/128
f 130/130 129/129 128/128
f 131/131 130/130 128/128
f 131/131 128/128 132/132
f 132/132 128/128 133/133
f 133/133 128/128 134/134
f 134/134 128/128 135/135
f 128/128 136/136 135/135
f 128/128 137/137 136/136
f 128/128 138/138 137/137
f 127/127 138/138 128/128
f 139/139 140/140 141/141
f 142/142 140/140 139/139
f 143/143 140/140 142/142
f 144/144 140/140 143/143
f 144/144 145/145 140/140
f 145/145 146/146 140/140
f 146/146 147/147 140/140
f 147/147 148/148 140/140
f 140/140 148/148 149/149
f 140/140 149/149 150/150
f 140/140 150/150 151/151
f 141/141 140/140 151/151
f 152/152 153/153 154/154
f 155/155 156/156 157/157
f 158/158 159/159 160/160
f 158/158 161/161 159/159
f 160/160 159/159 162/162
f 160/160 162/162 163/163
f 164/164 160/160 163/163
f 165/165 160/160 164/164
f 166/166 165/165 164/164
f 167/167 165/165 166/166
f 168/168 160/160 165/165
f 168/168 158/158 160/160
f 169/169 168/168 165/165
f 170/170 169/169 165/165
f 170/170 165/165 171/171
f 171/171 165/165 167/167
f 171/171 167/167 172/172
f 159/159 173/173 162/162
f 162/162 173/173 174/174
f 174/174 173/173 175/175
f 176/176 174/174 175/175
f 162/162 174/174 176/176
f 162/162 176/176 163/163
f 166/166 164/164 177/177
f 177/177 176/176 178/178
f 179/179 177/177 178/178
f 166/166 177/177 179/179
f 180/180 166/166 179/179
f 166/166 180/180 167/167
f 180/180 172/172 167/167
f 172/172 180/180 181/181
f 182/182 172/172 181/181
f 182/182 181/181 183/183
f 182/182 183/183 184/184
f 178/178 176/176 185/185
f 176/176 186/186 185/185
f 175/175 186/186 176/176
f 185/185 186/186 187/187
f 186/186 188/188 187/187
f 189/189 178/178 185/185
f 190/190 185/185 187/187
f 189/189 185/185 190/190
f 190/190 187/187 191/191
f 191/191 187/187 192/192
f 191/191 192/192 183/183
f 183/183 192/192 193/193
f 183/183 193/193 184/184
f 186/186 194/194 188/188
f 175/175 194/194 186/186
f 182/182 184/184 195/195
f 195/195 184/184 193/193
f 182/182 195/195 196/196
f 182/182 196/196 172/172
f 172/172 196/196 197/197
f 195/195 193/193 198/198
f 199/199 195/195 198/198
f 199/199 198/198 200/200
f 201/201 199/199 200/200
f 201/201 200/200 202/202
f 202/202 200/200 203/203
f 203/203 200/200 204/204
f 202/202 203/203 205/205
f 206/206 202/202 205/205
f 207/207 206/206 205/205
f 208/208 206/206 207/207
f 197/197 208/208 209/209
f 209/209 208/208 207/207
f 209/209 207/207 210/210
f 209/209 210/210 211/211
f 212/212 209/209 211/211
f 209/209 212/212 197/197
f 211/211 210/210 213/213
f 214/214 211/211 213/213
f 169/169 211/211 214/214
f 170/170 211/211 169/169
f 210/210 215/215 213/213
f 170/170 171/171 211/211
f 171/171 212/212 211/211
f 171/171 172/172 212/212
f 213/213 215/215 216/216
f 216/216 215/215 205/205
f 213/213 216/216 217/217
f 218/218 213/213 217/217
f 214/214 213/213 218/218
f 218/218 217/217 219/219
f 217/217 216/216 220/220
f 216/216 221/221 220/220
f 221/221 222/222 220/220
f 205/205 222/222 221/221
f 216/216 205/205 221/221
f 220/220 223/223 217/217
f 223/223 219/219 217/217
f 220/220 224/224 223/223
f 220/220 222/222 224/224
f 214/214 225/225 169/169
f 169/169 225/225 226/226
f 226/226 225/225 227/227
f 227/227 228/228 226/226
f 229/229 226/226 228/228
f 226/226 229/229 230/230
f 169/169 226/226 230/230
f 230/230 229/229 231/231
f 231/231 229/229 158/158
f 230/230 231/231 158/158
f 158/158 229/229 232/232
f 232/232 229/229 228/228
f 228/228 233/233 232/232
f 228/228 234/234 233/233
f 233/233 235/235 232/232
f 168/168 169/169 230/230
f 230/230 158/158 168/168
f 235/235 236/236 232/232
f 232/232 236/236 161/161
f 158/158 232/232 161/161
f 236/236 237/237 161/161
f 237/237 238/238 161/161
f 238/238 237/237 239/239
f 159/159 161/161 238/238
f 239/239 240/240 238/238
f 173/173 238/238 240/240
f 173/173 159/159 238/238
f 237/237 241/241 239/239
f 239/239 241/241 242/242
f 239/239 242/242 243/243
f 239/239 243/243 244/244
f 243/243 245/245 244/244
f 246/246 239/239 244/244
f 239/239 246/246 240/240
f 247/247 246/246 244/244
f 173/173 240/240 175/175
f 248/248 175/175 240/240
f 240/240 249/249 248/248
f 249/249 246/246 247/247
f 246/246 249/249 240/240
f 249/249 250/250 248/248
f 249/249 251/251 250/250
f 251/251 249/249 252/252
f 249/249 253/253 252/252
f 253/253 249/249 247/247
f 252/252 253/253 254/254
f 255/255 252/252 254/254
f 256/256 252/252 255/255
f 257/257 251/251 252/252
f 257/257 252/252 256/256
f 258/258 250/250 251/251
f 259/259 254/254 253/253
f 255/255 254/254 259/259
f 260/260 255/255 259/259
f 261/261 259/259 253/253
f 253/253 247/247 261/261
f 262/262 259/259 261/261
f 263/263 259/259 262/262
f 263/263 260/260 259/259
f 261/261 264/264 262/262
f 265/265 262/262 264/264
f 261/261 266/266 264/264
f 224/224 266/266 261/261
f 224/224 261/261 267/267
f 266/266 224/224 222/222
f 247/247 267/267 261/261
f 247/247 244/244 267/267
f 244/244 268/268 267/267
f 268/268 224/224 267/267
f 268/268 244/244 269/269
f 269/269 244/244 245/245
f 268/268 269/269 270/270
f 268/268 270/270 271/271
f 272/272 268/268 271/271
f 223/223 268/268 272/272
f 268/268 223/223 224/224
f 272/272 219/219 223/223
f 273/273 219/219 272/272
f 274/274 219/219 273/273
f 275/275 274/274 273/273
f 276/276 274/274 275/275
f 228/228 274/274 276/276
f 228/228 276/276 234/234
f 218/218 219/219 274/274
f 218/218 274/274 227/227
f 274/274 228/228 227/227
f 277/277 218/218 227/227
f 225/225 277/277 227/227
f 225/225 218/218 277/277
f 225/225 214/214 218/218
f 278/278 279/279 280/280
f 279/279 281/281 280/280
f 279/279 282/282 281/281
f 283/283 282/282 279/279
f 284/284 283/283 279/279
f 283/283 285/285 282/282
f 286/286 285/285 283/283
f 287/287 288/288 289/289
f 289/289 288/288 290/290
f 290/290 291/291 289/289
f 291/291 292/292 289/289
f 288/288 287/287 293/293
f 291/291 293/293 292/292
f 287/287 294/294 293/293
f 293/293 294/294 292/292
f 295/295 294/294 287/287
f 287/287 289/289 295/295
f 289/289 292/292 296/296
f 289/289 296/296 295/295
f 292/292 297/297 296/296
f 288/288 298/298 290/290
f 290/290 298/298 291/291
f 299/299 298/298 288/288
f 299/299 291/291 298/298
f 300/300 301/301 302/302
f 300/300 302/302 303/303
f 304/304 300/300 303/303
f 305/305 300/300 304/304
f 305/305 306/306 300/300
f 300/300 306/306 301/301
f 305/305 307/307 306/306
f 308/308 307/307 305/305
f 309/309 308/308 305/305
f 310/310 308/308 309/309
f 311/311 310/310 309/309
f 311/311 309/309 312/312
f 313/313 311/311 312/312
f 309/309 305/305 314/314
f 312/312 309/309 314/314
f 305/305 304/304 314/314
f 315/315 312/312 314/314
f 315/315 314/314 316/316
f 314/314 317/317 316/316
f 314/314 304/304 317/317
f 313/313 318/318 311/311
f 319/319 318/318 313/313
f 319/319 313/313 320/320
f 321/321 319/319 320/320
f 321/321 318/318 319/319
f 320/320 313/313 322/322
f 322/322 312/312 315/315
f 322/322 313/313 312/312
f 323/323 310/310 311/311
f 318/318 323/323 311/311
f 324/324 323/323 318/318
f 325/325 324/324 318/318
f 321/321 325/325 318/318
f 325/325 326/326 324/324
f 316/316 317/317 327/327
f 327/327 317/317 328/328
f 317/317 304/304 328/328
f 304/304 303/303 328/328
f 329/329 330/330 331/331
f 331/331 332/332 329/329
f 333/333 202/202 206/206
f 333/333 201/201 202/202
f 334/334 335/335 336/336
f 336/336 335/335 337/337
f 336/336 337/337 338/338
f 339/339 336/336 338/338
f 340/340 336/336 339/339
f 339/339 338/338 341/341
f 342/342 339/339 341/341
f 343/343 344/344 345/345
f 344/344 346/346 345/345
f 346/346 344/344 347/347
f 347/347 344/344 348/348
f 343/343 345/345 349/349
f 349/349 347/347 348/348
f 350/350 343/343 349/349
f 350/350 349/349 348/348
f 351/351 343/343 350/350
f 343/343 351/351 344/344
f 344/344 352/352 348/348
f 344/344 351/351 352/352
f 348/348 352/352 353/353
f 345/345 346/346 354/354
f 346/346 347/347 354/354
f 355/355 345/345 354/354
f 355/355 354/354 347/347
f 356/356 357/357 358/358
f 357/357 356/356 359/359
f 356/356 360/360 359/359
f 361/361 360/360 356/356
f 361/361 356/356 362/362
f 356/356 358/358 362/362
f 361/361 362/362 363/363
f 364/364 361/361 363/363
f 365/365 361/361 364/364
f 366/366 365/365 364/364
f 367/367 365/365 366/366
f 367/367 368/368 365/365
f 369/369 368/368 367/367
f 365/365 370/370 361/361
f 368/368 370/370 365/365
f 361/361 370/370 360/360
f 371/371 370/370 368/368
f 371/371 372/372 370/370
f 370/370 372/372 373/373
f 370/370 373/373 360/360
f 369/369 367/367 374/374
f 375/375 369/369 374/374
f 375/375 376/376 369/369
f 377/377 376/376 375/375
f 377/377 375/375 374/374
f 376/376 378/378 369/369
f 378/378 371/371 368/368
f 378/378 368/368 369/369
f 379/379 367/367 366/366
f 374/374 367/367 379/379
f 380/380 374/374 379/379
f 381/381 374/374 380/380
f 377/377 374/374 381/381
f 381/381 380/380 382/382
f 372/372 383/383 373/373
f 383/383 384/384 373/373
f 373/373 384/384 360/360
f 360/360 384/384 359/359
f 385/385 386/386 387/387
f 386/386 385/385 388/388
f 197/197 212/212 172/172
f 222/222 205/205 203/203
f 222/222 203/203 389/389
f 203/203 204/204 389/389
