mtllib options330.mtl
o options330
v 0.00108 -0.01134 3.25602 0.000 0.000 0.000
v 0.00900 0.00000 3.24648 0.000 0.000 0.000
v 0.01152 0.00000 3.25944 0.000 0.000 0.000
v 0.00828 -0.02430 3.21768 0.000 0.000 0.000
v 0.03366 0.00000 3.18312 0.000 0.000 0.000
v 0.02952 0.00000 3.21714 0.000 0.000 0.000
v 0.02070 -0.01404 3.17952 0.000 0.000 0.000
v -0.00360 -0.07884 3.15288 0.000 0.000 0.000
v 0.01116 -0.05670 3.15234 0.000 0.000 0.000
v 0.00792 -0.07830 3.16656 0.000 0.000 0.000
v 0.00234 -0.05562 3.17916 0.000 0.000 0.000
v 0.01584 -0.03078 3.16422 0.000 0.000 0.000
v 0.01620 -0.05076 3.18960 0.000 0.000 0.000
v 0.00792 0.07830 3.16656 0.000 0.000 0.000
v 0.01116 0.05670 3.15234 0.000 0.000 0.000
v -0.00360 0.07884 3.15288 0.000 0.000 0.000
v 0.01620 0.05076 3.18960 0.000 0.000 0.000
v 0.01584 0.03078 3.16422 0.000 0.000 0.000
v 0.00234 0.05562 3.17916 0.000 0.000 0.000
v 0.18324 -0.20952 2.90232 0.000 0.000 0.847
v 0.23058 -0.16236 2.85948 0.000 0.000 0.788
v 0.22968 -0.14040 2.89188 0.000 0.000 0.812
v 0.24912 -0.08262 2.87550 0.000 0.000 0.859
v 0.25794 -0.10944 2.82024 0.000 0.000 0.859
v 0.23994 -0.15354 2.83068 0.000 0.000 0.812
v 0.26982 0.00000 2.83014 0.000 0.000 1.000
v 0.27234 0.00000 2.81574 0.000 0.000 1.000
v 0.26100 -0.08856 2.79882 0.000 0.000 0.906
v 0.26046 -0.11502 2.80530 0.000 0.000 0.882
v 0.25794 0.10944 2.82024 0.000 0.000 0.859
v 0.26100 0.08856 2.79882 0.000 0.000 0.906
v 0.26046 0.11502 2.80530 0.000 0.000 0.882
v 0.24912 0.08262 2.87550 0.000 0.000 0.859
v 0.23058 0.16236 2.85948 0.000 0.000 0.788
v 0.22968 0.14040 2.89188 0.000 0.000 0.812
v 0.18324 0.20952 2.90232 0.000 0.000 0.847
v 0.22410 -0.18414 2.85642 0.000 0.000 0.812
v 0.23994 0.15354 2.83068 0.000 0.000 0.812
v 0.22410 0.18414 2.85642 0.000 0.000 0.812
v 0.27612 -0.05076 2.82366 0.000 0.000 0.000
v 0.27612 -0.04284 2.82114 0.000 0.000 0.000
v 0.27720 -0.04428 2.82672 0.000 0.000 0.000
v 0.27720 0.04428 2.82672 0.000 0.000 0.000
v 0.27612 0.04284 2.82114 0.000 0.000 0.000
v 0.27612 0.05076 2.82366 0.000 0.000 0.000
v 0.27270 -0.05220 2.87100 0.000 0.000 0.000
v 0.27018 -0.05922 2.85948 0.000 0.000 0.000
v 0.26964 -0.04230 2.86488 0.000 0.000 0.000
v 0.26964 0.04230 2.86488 0.000 0.000 0.000
v 0.27018 0.05922 2.85948 0.000 0.000 0.000
v 0.27270 0.05220 2.87100 0.000 0.000 0.000
v 0.27270 -0.05220 2.87100 0.000 0.000 0.000
v 0.26964 -0.04230 2.86488 0.000 0.000 0.000
v 0.26712 -0.04626 2.88036 0.000 0.000 0.000
v 0.26658 -0.07812 2.88288 0.000 0.000 0.000
v 0.27018 -0.05922 2.85948 0.000 0.000 0.000
v 0.26712 0.04626 2.88036 0.000 0.000 0.000
v 0.26964 0.04230 2.86488 0.000 0.000 0.000
v 0.27270 0.05220 2.87100 0.000 0.000 0.000
v 0.27018 0.05922 2.85948 0.000 0.000 0.000
v 0.26658 0.07812 2.88288 0.000 0.000 0.000
v 0.25920 -0.01242 2.91384 0.000 0.000 0.000
v 0.26370 0.00000 2.91024 0.000 0.000 0.000
v 0.25722 0.00000 2.92230 0.000 0.000 0.000
v 0.25920 -0.01242 2.91384 0.000 0.000 0.000
v 0.26460 -0.00792 2.89530 0.000 0.000 0.000
v 0.26370 0.00000 2.91024 0.000 0.000 0.000
v 0.26460 0.00792 2.89530 0.000 0.000 0.000
v 0.25920 0.01242 2.91384 0.000 0.000 0.000
v 0.28566 0.00000 2.79882 0.000 0.000 0.000
v 0.28710 0.00000 2.78136 0.000 0.000 0.000
v 0.28152 0.01242 2.79774 0.000 0.000 0.000
v 0.26370 0.00000 2.91024 0.000 0.000 0.000
v 0.26460 -0.00792 2.89530 0.000 0.000 0.000
v 0.26460 0.00792 2.89530 0.000 0.000 0.000
v 0.25722 0.00000 2.92230 0.000 0.000 0.000
v 0.25920 0.01242 2.91384 0.000 0.000 0.000
v 0.26658 -0.07812 2.88288 0.000 0.000 0.000
v 0.27270 -0.05220 2.87100 0.000 0.000 0.000
v 0.26712 -0.04626 2.88036 0.000 0.000 0.000
v 0.26712 0.04626 2.88036 0.000 0.000 0.000
v 0.27270 0.05220 2.87100 0.000 0.000 0.000
v 0.26658 0.07812 2.88288 0.000 0.000 0.000
v 0.27468 -0.04734 2.83158 0.000 0.000 0.000
v 0.27720 -0.04428 2.82672 0.000 0.000 0.000
v 0.27522 -0.04032 2.82762 0.000 0.000 0.000
v 0.27522 0.04032 2.82762 0.000 0.000 0.000
v 0.27720 0.04428 2.82672 0.000 0.000 0.000
v 0.27468 0.04734 2.83158 0.000 0.000 0.000
v 0.28566 0.00000 2.79882 0.000 0.000 0.000
v 0.28152 0.01242 2.79774 0.000 0.000 0.000
v 0.27810 0.00000 2.80764 0.000 0.000 0.000
v 0.27810 0.00000 2.80764 0.000 0.000 0.000
v 0.28152 -0.01242 2.79774 0.000 0.000 0.000
v 0.28566 0.00000 2.79882 0.000 0.000 0.000
v 0.27468 -0.04734 2.83158 0.000 0.000 0.000
v 0.27612 -0.05076 2.82366 0.000 0.000 0.000
v 0.27720 -0.04428 2.82672 0.000 0.000 0.000
v 0.27612 -0.04284 2.82114 0.000 0.000 0.000
v 0.27522 -0.04032 2.82762 0.000 0.000 0.000
v 0.27720 0.04428 2.82672 0.000 0.000 0.000
v 0.27612 0.05076 2.82366 0.000 0.000 0.000
v 0.27468 0.04734 2.83158 0.000 0.000 0.000
v 0.27522 0.04032 2.82762 0.000 0.000 0.000
v 0.27612 0.04284 2.82114 0.000 0.000 0.000
v 0.24966 0.00000 2.95704 0.000 0.000 0.761
v 0.26712 0.01800 2.88036 0.000 0.000 0.957
v 0.25722 0.02790 2.92230 0.000 0.000 0.847
v 0.28710 0.00000 2.75742 0.000 0.000 0.769
v 0.26712 -0.01800 2.88036 0.000 0.000 0.957
v 0.27864 -0.02484 2.80674 0.000 0.000 0.957
v 0.28152 -0.03438 2.78838 0.000 0.000 0.882
v 0.27270 -0.03384 2.84508 0.000 0.000 0.957
v 0.27810 -0.05472 2.80980 0.000 0.000 0.875
v 0.27468 -0.06120 2.83320 0.000 0.000 0.843
v 0.27864 0.02484 2.80674 0.000 0.000 0.957
v 0.28152 0.03438 2.78838 0.000 0.000 0.882
v 0.27270 0.03384 2.84508 0.000 0.000 0.957
v 0.27810 0.05472 2.80980 0.000 0.000 0.875
v 0.27468 0.06120 2.83320 0.000 0.000 0.843
v 0.25722 -0.02790 2.92230 0.000 0.000 0.847
v 0.26568 -0.09702 2.88990 0.000 0.000 0.725
v 0.26316 -0.05418 2.90376 0.000 0.000 0.827
v 0.27162 -0.07218 2.85210 0.000 0.000 0.827
v 0.26568 0.09702 2.88990 0.000 0.000 0.725
v 0.27162 0.07218 2.85210 0.000 0.000 0.827
v 0.26316 0.05418 2.90376 0.000 0.000 0.827
v 0.28152 -0.01242 2.79774 0.000 0.000 0.000
v 0.28710 0.00000 2.78136 0.000 0.000 0.000
v 0.28566 0.00000 2.79882 0.000 0.000 0.000
v 0.03420 0.00000 3.17340 0.000 0.000 0.000
v 0.04356 0.00000 3.12678 0.000 0.000 0.000
v 0.02214 0.03204 3.15378 0.000 0.000 0.000
v -0.00594 0.11160 3.10680 0.000 0.000 0.000
v 0.00990 0.06390 3.15234 0.000 0.000 0.000
v -0.00216 0.09234 3.13272 0.000 0.000 0.000
v -0.01440 0.12780 3.13110 0.000 0.000 0.000
v 0.02214 -0.03204 3.15378 0.000 0.000 0.000
v -0.00594 -0.11160 3.10680 0.000 0.000 0.000
v 0.00990 -0.06390 3.15234 0.000 0.000 0.000
v -0.00216 -0.09234 3.13272 0.000 0.000 0.000
v -0.01440 -0.12780 3.13110 0.000 0.000 0.000
v 0.24336 -0.20304 2.76768 0.000 0.000 0.925
v 0.30240 0.00000 2.74824 0.000 0.000 0.667
v 0.24480 -0.20160 2.78604 0.000 0.000 0.969
v 0.30276 0.00000 2.72988 0.000 0.000 0.667
v 0.24336 0.20304 2.76768 0.000 0.000 0.925
v 0.24480 0.20160 2.78604 0.000 0.000 0.969
v 0.00432 0.00000 3.26448 0.000 0.000 0.757
v -0.01278 0.03564 3.25854 0.000 0.000 0.871
v -0.01260 0.00000 3.30858 0.000 0.000 0.757
v -0.00288 0.02700 3.23334 0.000 0.000 0.843
v 0.01044 0.00000 3.24054 0.000 0.000 0.757
v 0.04230 0.00000 3.11940 0.000 0.000 0.757
v -0.00288 -0.02700 3.23334 0.000 0.000 0.843
v -0.01278 -0.03564 3.25854 0.000 0.000 0.871
v -0.01188 -0.07038 3.23100 0.000 0.000 0.867
v -0.01224 -0.07452 3.19320 0.000 0.000 0.882
v 0.01206 -0.07074 3.11130 0.000 0.000 0.882
v -0.05364 -0.12240 3.17880 0.000 0.000 0.906
v -0.04734 -0.10584 3.09528 0.000 0.000 0.941
v -0.01188 0.07038 3.23100 0.000 0.000 0.867
v -0.01224 0.07452 3.19320 0.000 0.000 0.882
v 0.01206 0.07074 3.11130 0.000 0.000 0.882
v -0.05364 0.12240 3.17880 0.000 0.000 0.906
v -0.04734 0.10584 3.09528 0.000 0.000 0.941
v -0.33480 0.00000 2.69280 0.000 0.000 0.000
v -0.44100 0.00000 2.44800 0.000 0.000 0.000
v -0.31500 -0.34524 2.52180 0.000 0.000 0.000
v -0.31500 0.34524 2.52180 0.000 0.000 0.000
v -0.23040 -0.23454 2.66400 0.000 0.000 0.000
v -0.01224 -0.34524 2.73330 0.000 0.000 0.000
v -0.01080 -0.46800 2.62980 0.000 0.000 0.000
v -0.01080 -0.23832 2.89044 0.000 0.000 0.000
v -0.17154 -0.15840 2.86794 0.000 0.000 0.000
v 0.11376 -0.21816 2.85984 0.000 0.000 0.000
v -0.23976 0.00000 2.85300 0.000 0.000 0.000
v 0.23256 -0.19404 2.73330 0.000 0.000 0.000
v 0.33966 -0.30672 2.58930 0.000 0.000 0.000
v 0.21132 -0.13266 2.85732 0.000 0.000 0.000
v -0.23040 0.23454 2.66400 0.000 0.000 0.000
v -0.01224 0.34524 2.73330 0.000 0.000 0.000
v -0.01080 0.46800 2.62980 0.000 0.000 0.000
v -0.01080 0.23832 2.89044 0.000 0.000 0.000
v -0.17154 0.15840 2.86794 0.000 0.000 0.000
v 0.11376 0.21816 2.85984 0.000 0.000 0.000
v 0.23256 0.19404 2.73330 0.000 0.000 0.000
v 0.33966 0.30672 2.58930 0.000 0.000 0.000
v 0.21132 0.13266 2.85732 0.000 0.000 0.000
v -0.01224 -0.35298 2.79090 0.000 0.894 0.000
v -0.01512 -0.39222 2.72610 0.000 0.906 0.000
v 0.23958 -0.19980 2.79450 0.000 0.847 0.000
v -0.27612 -0.28026 2.66310 0.000 0.859 0.000
v -0.24858 -0.23652 2.74230 0.000 0.863 0.000
v -0.36432 0.00000 2.72250 0.000 0.788 0.000
v -0.41526 0.00000 2.62170 0.000 0.788 0.000
v -0.27612 0.28026 2.66310 0.000 0.859 0.000
v -0.24858 0.23652 2.74230 0.000 0.863 0.000
v -0.01224 0.35298 2.79090 0.000 0.894 0.000
v -0.01512 0.39222 2.72610 0.000 0.906 0.000
v 0.23958 0.19980 2.79450 0.000 0.847 0.000
v 0.06480 -0.09828 3.11526 0.000 0.000 0.000
v 0.13842 -0.12060 3.06054 0.000 0.000 0.000
v 0.16056 0.00000 3.09132 0.000 0.000 0.000
v 0.22140 0.00000 3.01878 0.000 0.000 0.000
v 0.06570 0.00000 3.12876 0.000 0.000 0.000
v 0.13842 0.12060 3.06054 0.000 0.000 0.000
v 0.06480 0.09828 3.11526 0.000 0.000 0.000
v 0.18720 0.13230 2.96730 0.000 0.000 0.000
v 0.24714 0.00000 2.94246 0.000 0.000 0.000
v 0.18720 -0.13230 2.96730 0.000 0.000 0.000
v 0.20340 -0.13266 2.92320 0.000 0.000 0.000
v 0.13968 -0.19674 2.88900 0.000 0.000 0.000
v 0.09828 -0.21384 2.94534 0.000 0.000 0.000
v 0.07290 -0.20142 3.01572 0.000 0.000 0.000
v 0.13842 -0.12060 3.06054 0.000 0.000 0.000
v 0.06390 -0.16200 3.07944 0.000 0.000 0.000
v 0.06480 -0.09828 3.11526 0.000 0.000 0.000
v 0.20340 0.13266 2.92320 0.000 0.000 0.000
v 0.13968 0.19674 2.88900 0.000 0.000 0.000
v 0.09828 0.21384 2.94534 0.000 0.000 0.000
v 0.07290 0.20142 3.01572 0.000 0.000 0.000
v 0.13842 0.12060 3.06054 0.000 0.000 0.000
v 0.06390 0.16200 3.07944 0.000 0.000 0.000
v 0.06480 0.09828 3.11526 0.000 0.000 0.000
v 0.22374 -0.04770 2.96640 0.000 0.000 0.000
v 0.24228 0.00000 2.96064 0.000 0.000 0.000
v 0.22104 -0.04914 2.97576 0.000 0.000 0.000
v 0.23724 0.00000 2.97828 0.000 0.000 0.000
v 0.22104 0.04914 2.97576 0.000 0.000 0.000
v 0.22374 0.04770 2.96640 0.000 0.000 0.000
v 0.21870 0.04572 2.98386 0.000 0.000 0.000
v 0.21870 -0.04572 2.98386 0.000 0.000 0.000
v 0.01998 0.00000 3.11328 0.000 0.000 0.933
v -0.00990 -0.06696 3.10536 0.000 0.000 0.973
v -0.01224 -0.07452 3.19320 0.000 0.000 0.973
v -0.05364 -0.12240 3.17880 0.000 0.000 0.973
v -0.04734 -0.10584 3.09528 0.000 0.000 0.973
v -0.01188 -0.07038 3.23100 0.000 0.000 0.941
v -0.00288 -0.02700 3.23334 0.000 0.000 0.941
v -0.01260 0.00000 3.30858 0.000 0.000 0.933
v -0.01278 -0.03564 3.25854 0.000 0.000 0.941
v -0.00288 0.02700 3.23334 0.000 0.000 0.941
v -0.01188 0.07038 3.23100 0.000 0.000 0.941
v -0.01224 0.07452 3.19320 0.000 0.000 0.973
v -0.00990 0.06696 3.10536 0.000 0.000 0.973
v -0.05364 0.12240 3.17880 0.000 0.000 0.973
v -0.04734 0.10584 3.09528 0.000 0.000 0.973
v -0.01278 0.03564 3.25854 0.000 0.000 0.941
v 0.01152 0.00000 3.25944 0.000 0.000 0.000
v 0.00900 0.00000 3.24648 0.000 0.000 0.000
v 0.00108 0.01134 3.25602 0.000 0.000 0.000
v 0.03366 0.00000 3.18312 0.000 0.000 0.000
v 0.02070 0.01404 3.17952 0.000 0.000 0.000
v 0.00828 0.02430 3.21768 0.000 0.000 0.000
v 0.02952 0.00000 3.21714 0.000 0.000 0.000
v 0.00792 -0.07830 3.16656 0.000 0.000 0.000
v 0.01116 -0.05670 3.15234 0.000 0.000 0.000
v -0.00378 -0.07344 3.17250 0.000 0.000 0.000
v 0.01620 -0.05076 3.18960 0.000 0.000 0.000
v 0.01584 -0.03078 3.16422 0.000 0.000 0.000
v 0.00756 -0.03510 3.19500 0.000 0.000 0.000
v -0.00378 0.07344 3.17250 0.000 0.000 0.000
v 0.01116 0.05670 3.15234 0.000 0.000 0.000
v 0.00792 0.07830 3.16656 0.000 0.000 0.000
v 0.00756 0.03510 3.19500 0.000 0.000 0.000
v 0.01584 0.03078 3.16422 0.000 0.000 0.000
v 0.01620 0.05076 3.18960 0.000 0.000 0.000
v -0.01080 -0.46800 2.62980 0.000 0.000 0.000
v -0.29700 0.00000 2.59200 0.000 0.000 0.000
v 0.00000 0.00000 2.76534 0.000 0.000 0.000
v -0.31500 -0.34524 2.52180 0.000 0.000 0.000
v -0.44100 0.00000 2.44800 0.000 0.000 0.000
v -0.01080 0.46800 2.62980 0.000 0.000 0.000
v -0.31500 0.34524 2.52180 0.000 0.000 0.000
v 0.23094 -0.24336 2.66634 0.000 0.000 0.000
v 0.23094 0.24336 2.66634 0.000 0.000 0.000
v 0.30816 0.00000 2.67570 0.000 0.000 0.000
v 0.23094 -0.24336 2.66634 0.000 0.000 0.000
v 0.33966 -0.30672 2.58930 0.000 0.000 0.000
v 0.23256 -0.19404 2.73330 0.000 0.000 0.000
v 0.33966 0.30672 2.58930 0.000 0.000 0.000
v 0.23094 0.24336 2.66634 0.000 0.000 0.000
v 0.23256 0.19404 2.73330 0.000 0.000 0.000
v 0.06624 0.28512 2.92518 0.812 0.000 0.000
v 0.10134 0.21474 2.88054 0.925 0.000 0.000
v 0.01242 0.22932 2.90124 0.941 0.000 0.000
v 0.06858 0.21330 2.95830 0.886 0.000 0.000
v 0.01242 -0.22932 2.90124 0.941 0.000 0.000
v 0.10134 -0.21474 2.88054 0.925 0.000 0.000
v 0.06624 -0.28512 2.92518 0.812 0.000 0.000
v 0.06858 -0.21330 2.95830 0.886 0.000 0.000
v -0.03114 -0.23184 3.07962 0.729 0.000 0.000
v -0.02952 -0.19674 3.03210 0.882 0.000 0.000
v 0.01908 -0.14760 3.08340 0.925 0.000 0.000
v -0.03978 -0.23094 3.17664 0.722 0.000 0.000
v 0.02808 -0.12402 3.10680 0.925 0.000 0.000
v 0.01908 0.14760 3.08340 0.925 0.000 0.000
v -0.02952 0.19674 3.03210 0.882 0.000 0.000
v -0.03114 0.23184 3.07962 0.729 0.000 0.000
v 0.02808 0.12402 3.10680 0.925 0.000 0.000
v -0.03978 0.23094 3.17664 0.722 0.000 0.000
v 0.01152 0.00000 3.25944 0.000 0.000 0.000
v 0.00108 0.01134 3.25602 0.000 0.000 0.000
v 0.00000 0.00000 3.27708 0.000 0.000 0.000
v 0.01260 0.00000 3.22830 0.000 0.000 0.000
v 0.02952 0.00000 3.21714 0.000 0.000 0.000
v 0.00828 0.02430 3.21768 0.000 0.000 0.000
v 0.00756 0.03510 3.19500 0.000 0.000 0.000
v 0.01620 0.05076 3.18960 0.000 0.000 0.000
v -0.00432 0.05994 3.20976 0.000 0.000 0.000
v -0.00378 0.07344 3.17250 0.000 0.000 0.000
v 0.00792 0.07830 3.16656 0.000 0.000 0.000
v -0.02286 0.09288 3.16854 0.000 0.000 0.000
v -0.00432 -0.05994 3.20976 0.000 0.000 0.000
v 0.01620 -0.05076 3.18960 0.000 0.000 0.000
v 0.00756 -0.03510 3.19500 0.000 0.000 0.000
v -0.02286 -0.09288 3.16854 0.000 0.000 0.000
v 0.00792 -0.07830 3.16656 0.000 0.000 0.000
v -0.00378 -0.07344 3.17250 0.000 0.000 0.000
v 0.03366 0.00000 3.18312 0.000 0.000 0.000
v 0.02898 0.00000 3.16944 0.000 0.000 0.000
v 0.02070 0.01404 3.17952 0.000 0.000 0.000
v 0.02808 -0.12402 3.10680 0.925 0.000 0.000
v 0.06390 -0.16200 3.07944 0.875 0.000 0.000
v 0.06480 -0.09828 3.11526 0.875 0.000 0.000
v -0.06120 -0.08100 3.10878 0.816 0.000 0.000
v 0.06570 0.00000 3.12876 0.875 0.000 0.000
v -0.06300 0.00000 3.12120 0.780 0.000 0.000
v -0.18414 0.00000 3.06162 0.824 0.000 0.000
v -0.15750 -0.14004 3.01536 0.882 0.000 0.000
v -0.02970 -0.16632 3.06630 1.000 0.000 0.000
v -0.06120 0.08100 3.10878 0.816 0.000 0.000
v -0.15750 0.14004 3.01536 0.859 0.000 0.000
v 0.06480 0.09828 3.11526 0.875 0.000 0.000
v 0.02808 0.12402 3.10680 0.925 0.000 0.000
v 0.06390 0.16200 3.07944 0.875 0.000 0.000
v -0.02970 0.16632 3.06630 1.000 0.000 0.000
v -0.02934 0.22518 3.00132 0.882 0.000 0.000
v -0.02934 -0.22518 3.00132 0.882 0.000 0.000
v 0.07290 -0.20142 3.01572 0.875 0.000 0.000
v 0.07290 0.20142 3.01572 0.875 0.000 0.000
v 0.09828 -0.21384 2.94534 0.875 0.000 0.000
v 0.09828 0.21384 2.94534 0.875 0.000 0.000
v -0.01926 -0.23922 2.92950 0.922 0.000 0.000
v -0.17424 -0.15930 2.92590 0.914 0.000 0.000
v -0.15750 -0.14004 3.01536 0.882 0.000 0.000
v -0.23472 0.00000 2.92590 0.902 0.000 0.000
v -0.18414 0.00000 3.06162 0.824 0.000 0.000
v -0.15750 0.14004 3.01536 0.859 0.000 0.000
v -0.17424 0.15930 2.92590 0.914 0.000 0.000
v -0.01926 0.23922 2.92950 0.922 0.000 0.000
v 0.11376 -0.21816 2.85984 0.922 0.000 0.000
v 0.13968 -0.19674 2.88900 0.875 0.000 0.000
v 0.21132 -0.13266 2.85732 0.898 0.000 0.000
v 0.20340 -0.13266 2.92320 0.851 0.000 0.000
v 0.25776 0.00000 2.86398 0.882 0.000 0.000
v 0.24714 0.00000 2.94246 0.855 0.000 0.000
v 0.20340 0.13266 2.92320 0.851 0.000 0.000
v 0.21132 0.13266 2.85732 0.898 0.000 0.000
v 0.13968 0.19674 2.88900 0.875 0.000 0.000
v 0.11376 0.21816 2.85984 0.922 0.000 0.000
v -0.17154 0.15840 2.86794 0.941 0.000 0.000
v -0.01080 0.23832 2.89044 0.949 0.000 0.000
v -0.23976 0.00000 2.85300 0.933 0.000 0.000
v -0.17154 -0.15840 2.86794 0.941 0.000 0.000
v -0.01080 -0.23832 2.89044 0.949 0.000 0.000
v -0.05850 -0.28404 3.05820 0.851 0.000 0.000
v -0.02934 -0.22518 3.00132 0.882 0.000 0.000
v -0.02970 -0.16632 3.06630 1.000 0.000 0.000
v -0.07992 -0.23832 3.17250 0.929 0.000 0.000
v -0.07740 -0.30636 3.16818 0.000 0.800 0.000
v -0.07272 -0.30618 3.23280 0.000 0.765 0.000
v 0.02808 -0.12402 3.10680 0.925 0.000 0.000
v -0.06174 -0.31032 3.31092 0.000 0.718 0.000
v -0.06120 -0.08100 3.10878 0.816 0.000 0.000
v -0.07272 -0.30618 3.23280 0.000 0.765 0.000
v -0.07362 -0.34110 3.23334 0.000 0.745 0.000
v -0.06174 -0.31032 3.31092 0.000 0.718 0.000
v -0.13968 -0.22986 3.16296 0.784 0.000 0.000
v -0.15750 -0.14004 3.01536 0.882 0.000 0.000
v -0.05850 -0.28404 3.05820 0.851 0.000 0.000
v -0.07740 -0.30636 3.16818 0.000 0.800 0.000
v -0.02934 -0.22518 3.00132 0.882 0.000 0.000
v -0.07272 -0.30618 3.23280 0.000 0.765 0.000
v -0.06174 -0.31032 3.31092 0.000 0.718 0.000
v -0.02970 0.16632 3.06630 1.000 0.000 0.000
v -0.02934 0.22518 3.00132 0.882 0.000 0.000
v -0.05850 0.28404 3.05820 0.851 0.000 0.000
v -0.07992 0.23832 3.17250 0.929 0.000 0.000
v -0.07740 0.30636 3.16818 0.000 0.800 0.000
v -0.07272 0.30618 3.23280 0.000 0.765 0.000
v 0.02808 0.12402 3.10680 0.925 0.000 0.000
v -0.06174 0.31032 3.31092 0.000 0.718 0.000
v -0.06120 0.08100 3.10878 0.816 0.000 0.000
v -0.07272 0.30618 3.23280 0.000 0.765 0.000
v -0.07362 0.34110 3.23334 0.000 0.745 0.000
v -0.13968 0.22986 3.16296 0.784 0.000 0.000
v -0.06174 0.31032 3.31092 0.000 0.718 0.000
v -0.15750 0.14004 3.01536 0.859 0.000 0.000
v -0.05850 0.28404 3.05820 0.851 0.000 0.000
v -0.07740 0.30636 3.16818 0.000 0.800 0.000
v -0.02934 0.22518 3.00132 0.882 0.000 0.000
v -0.07272 0.30618 3.23280 0.000 0.765 0.000
v -0.06174 0.31032 3.31092 0.000 0.718 0.000
v 0.04878 -0.19602 3.05460 0.000 0.000 0.000
v 0.07290 -0.18828 3.04254 0.000 0.000 0.000
v 0.07002 -0.18288 3.05100 0.000 0.000 0.000
v 0.08802 -0.17280 3.04398 0.000 0.000 0.000
v 0.08496 -0.15516 3.06864 0.000 0.000 0.000
v 0.05904 -0.16128 3.08880 0.000 0.000 0.000
v 0.08694 -0.15768 3.06468 0.000 0.000 0.000
v 0.08190 -0.14544 3.08088 0.000 0.000 0.000
v 0.06228 -0.15480 3.09150 0.000 0.000 0.000
v 0.04446 -0.15534 3.11040 0.000 0.000 0.000
v 0.10782 -0.14040 3.07386 0.000 0.000 0.000
v 0.14940 -0.12924 3.05082 0.000 0.000 0.000
v 0.11556 -0.11844 3.08430 0.000 0.000 0.000
v 0.10980 -0.15750 3.05604 0.000 0.000 0.000
v 0.08244 -0.17046 3.05568 0.000 0.000 0.000
v 0.08010 -0.14400 3.08538 0.000 0.000 0.000
v 0.08604 -0.10818 3.09888 0.000 0.000 0.000
v 0.11214 -0.07560 3.09690 0.000 0.000 0.000
v 0.12132 -0.16632 3.03588 0.000 0.000 0.000
v 0.09432 -0.18090 3.02130 0.000 0.000 0.000
v 0.13842 -0.16398 3.01788 0.000 0.000 0.000
v 0.12240 -0.17532 2.99106 0.000 0.000 0.000
v 0.15750 -0.15192 3.00798 0.000 0.000 0.000
v 0.15444 -0.15732 2.97684 0.000 0.000 0.000
v 0.17316 -0.13158 3.00798 0.000 0.000 0.000
v 0.18054 -0.10980 3.01806 0.000 0.000 0.000
v 0.18378 -0.12906 2.97864 0.000 0.000 0.000
v 0.19188 -0.09450 2.99340 0.000 0.000 0.000
v 0.18954 -0.06768 3.02094 0.000 0.000 0.000
v 0.17820 -0.09198 3.03552 0.000 0.000 0.000
v 0.16686 -0.08334 3.05604 0.000 0.000 0.000
v 0.17226 -0.05364 3.05496 0.000 0.000 0.000
v 0.14940 -0.08550 3.07350 0.000 0.000 0.000
v 0.14490 -0.05724 3.08304 0.000 0.000 0.000
v 0.13068 -0.09828 3.08394 0.000 0.000 0.000
v 0.11556 0.11844 3.08430 0.000 0.000 0.000
v 0.14940 0.12924 3.05082 0.000 0.000 0.000
v 0.10782 0.14040 3.07386 0.000 0.000 0.000
v 0.08604 0.10818 3.09888 0.000 0.000 0.000
v 0.11214 0.07560 3.09690 0.000 0.000 0.000
v 0.08010 0.14400 3.08538 0.000 0.000 0.000
v 0.10980 0.15750 3.05604 0.000 0.000 0.000
v 0.08244 0.17046 3.05568 0.000 0.000 0.000
v 0.12132 0.16632 3.03588 0.000 0.000 0.000
v 0.09432 0.18090 3.02130 0.000 0.000 0.000
v 0.13842 0.16398 3.01788 0.000 0.000 0.000
v 0.12240 0.17532 2.99106 0.000 0.000 0.000
v 0.15750 0.15192 3.00798 0.000 0.000 0.000
v 0.15444 0.15732 2.97684 0.000 0.000 0.000
v 0.17316 0.13158 3.00798 0.000 0.000 0.000
v 0.18054 0.10980 3.01806 0.000 0.000 0.000
v 0.18378 0.12906 2.97864 0.000 0.000 0.000
v 0.19188 0.09450 2.99340 0.000 0.000 0.000
v 0.18954 0.06768 3.02094 0.000 0.000 0.000
v 0.17820 0.09198 3.03552 0.000 0.000 0.000
v 0.16686 0.08334 3.05604 0.000 0.000 0.000
v 0.17226 0.05364 3.05496 0.000 0.000 0.000
v 0.14940 0.08550 3.07350 0.000 0.000 0.000
v 0.14490 0.05724 3.08304 0.000 0.000 0.000
v 0.13068 0.09828 3.08394 0.000 0.000 0.000
v 0.00000 0.00000 3.27708 0.000 0.000 0.000
v 0.00108 -0.01134 3.25602 0.000 0.000 0.000
v 0.01152 0.00000 3.25944 0.000 0.000 0.000
v 0.00828 -0.02430 3.21768 0.000 0.000 0.000
v 0.02952 0.00000 3.21714 0.000 0.000 0.000
v 0.01260 0.00000 3.22830 0.000 0.000 0.000
v -0.02286 -0.09288 3.16854 0.000 0.000 0.000
v -0.00360 -0.07884 3.15288 0.000 0.000 0.000
v 0.00792 -0.07830 3.16656 0.000 0.000 0.000
v -0.00432 -0.05994 3.20976 0.000 0.000 0.000
v 0.00234 -0.05562 3.17916 0.000 0.000 0.000
v 0.01620 -0.05076 3.18960 0.000 0.000 0.000
v 0.00792 0.07830 3.16656 0.000 0.000 0.000
v -0.00360 0.07884 3.15288 0.000 0.000 0.000
v -0.02286 0.09288 3.16854 0.000 0.000 0.000
v 0.01620 0.05076 3.18960 0.000 0.000 0.000
v 0.00234 0.05562 3.17916 0.000 0.000 0.000
v -0.00432 0.05994 3.20976 0.000 0.000 0.000
v 0.02070 -0.01404 3.17952 0.000 0.000 0.000
v 0.02898 0.00000 3.16944 0.000 0.000 0.000
v 0.03366 0.00000 3.18312 0.000 0.000 0.000
v 0.22482 -0.21474 2.83014 0.000 0.882 0.000
v 0.25146 -0.20646 2.81178 0.000 1.000 0.000
v 0.21690 -0.20844 2.85390 0.000 0.737 0.000
v 0.22428 -0.19404 2.87010 0.000 0.702 0.000
v 0.23022 -0.18018 2.85390 0.000 0.796 0.000
v 0.24012 -0.18072 2.83014 0.000 0.882 0.000
v 0.25452 -0.17370 2.80278 0.000 0.882 0.000
v 0.25506 -0.15246 2.81628 0.000 0.816 0.000
v 0.25308 -0.14652 2.83806 0.000 0.702 0.000
v 0.23616 -0.16236 2.83950 0.000 0.702 0.000
v 0.23166 -0.18558 2.83014 0.000 0.882 0.000
v 0.21384 -0.24552 2.81628 0.000 0.816 0.000
v 0.20790 -0.24750 2.83806 0.000 0.702 0.000
v 0.22968 -0.23058 2.80278 0.000 0.882 0.000
v 0.20790 -0.22464 2.83950 0.000 0.702 0.000
v 0.22230 -0.20592 2.83014 0.000 0.882 0.000
v 0.22626 -0.22914 2.81070 0.000 0.882 0.000
v 0.22428 -0.24840 2.79486 0.000 0.863 0.000
v 0.23076 -0.25794 2.77668 0.000 0.843 0.000
v 0.23922 -0.23616 2.76966 0.000 0.906 0.000
v 0.24714 -0.21384 2.78010 0.000 0.882 0.000
v 0.24156 -0.22266 2.78352 0.000 0.933 0.000
v 0.25200 -0.22374 2.76030 0.000 0.882 0.000
v 0.26892 -0.21384 2.74896 0.000 0.843 0.000
v 0.26442 -0.19548 2.76030 0.000 0.882 0.000
v 0.25704 -0.18810 2.78352 0.000 0.937 0.000
v 0.27576 -0.15696 2.77668 0.000 0.843 0.000
v 0.25146 -0.17226 2.81070 0.000 0.882 0.000
v 0.26586 -0.15534 2.79486 0.000 0.863 0.000
v 0.25146 -0.19350 2.78010 0.000 0.922 0.000
v 0.26298 -0.17316 2.76966 0.000 0.878 0.000
v 0.22428 0.19404 2.87010 0.000 0.702 0.000
v 0.25146 0.20646 2.81178 0.000 1.000 0.000
v 0.21690 0.20844 2.85390 0.000 0.737 0.000
v 0.23022 0.18018 2.85390 0.000 0.796 0.000
v 0.24012 0.18072 2.83014 0.000 0.882 0.000
v 0.22482 0.21474 2.83014 0.000 0.882 0.000
v 0.25506 0.15246 2.81628 0.000 0.816 0.000
v 0.25308 0.14652 2.83806 0.000 0.702 0.000
v 0.25452 0.17370 2.80278 0.000 0.882 0.000
v 0.23616 0.16236 2.83950 0.000 0.702 0.000
v 0.23166 0.18558 2.83014 0.000 0.882 0.000
v 0.22968 0.23058 2.80278 0.000 0.882 0.000
v 0.21384 0.24552 2.81628 0.000 0.816 0.000
v 0.20790 0.24750 2.83806 0.000 0.702 0.000
v 0.20790 0.22464 2.83950 0.000 0.702 0.000
v 0.22230 0.20592 2.83014 0.000 0.882 0.000
v 0.23076 0.25794 2.77668 0.000 0.843 0.000
v 0.22428 0.24840 2.79486 0.000 0.863 0.000
v 0.22626 0.22914 2.81070 0.000 0.882 0.000
v 0.23922 0.23616 2.76966 0.000 0.906 0.000
v 0.24714 0.21384 2.78010 0.000 0.882 0.000
v 0.26892 0.21384 2.74896 0.000 0.843 0.000
v 0.25200 0.22374 2.76030 0.000 0.882 0.000
v 0.24156 0.22266 2.78352 0.000 0.933 0.000
v 0.26442 0.19548 2.76030 0.000 0.882 0.000
v 0.25704 0.18810 2.78352 0.000 0.937 0.000
v 0.25146 0.17226 2.81070 0.000 0.882 0.000
v 0.27576 0.15696 2.77668 0.000 0.843 0.000
v 0.26586 0.15534 2.79486 0.000 0.863 0.000
v 0.25146 0.19350 2.78010 0.000 0.922 0.000
v 0.26298 0.17316 2.76966 0.000 0.878 0.000
v 0.24516 -0.21474 2.81574 0.000 0.000 0.000
v 0.25506 -0.20790 2.81124 0.000 0.000 0.000
v 0.24750 -0.20448 2.82114 0.000 0.000 0.000
v 0.24948 -0.21726 2.80332 0.000 0.000 0.000
v 0.25344 -0.19656 2.81574 0.000 0.000 0.000
v 0.25794 -0.19800 2.80332 0.000 0.000 0.000
v 0.25650 -0.20844 2.79792 0.000 0.000 0.000
v 0.24750 0.20448 2.82114 0.000 0.000 0.000
v 0.25506 0.20790 2.81124 0.000 0.000 0.000
v 0.24516 0.21474 2.81574 0.000 0.000 0.000
v 0.24948 0.21726 2.80332 0.000 0.000 0.000
v 0.25344 0.19656 2.81574 0.000 0.000 0.000
v 0.25794 0.19800 2.80332 0.000 0.000 0.000
v 0.25650 0.20844 2.79792 0.000 0.000 0.000
v 0.21780 -0.24642 2.81034 0.000 0.000 0.000
v 0.21384 -0.28458 2.78154 0.000 0.000 0.000
v 0.24264 -0.20250 2.79054 0.000 0.000 0.000
v 0.23274 -0.24840 2.77614 0.000 0.000 0.000
v 0.28476 -0.12618 2.78154 0.000 0.000 0.000
v 0.25902 -0.15498 2.81034 0.000 0.000 0.000
v 0.26982 -0.16434 2.77614 0.000 0.000 0.000
v 0.23760 -0.24102 2.76876 0.000 0.000 0.000
v 0.25902 -0.24948 2.74104 0.000 0.000 0.000
v 0.27522 -0.17910 2.73978 0.000 0.000 0.000
v 0.25902 -0.16974 2.77218 0.000 0.000 0.000
v 0.24264 0.20250 2.79054 0.000 0.000 0.000
v 0.21384 0.28458 2.78154 0.000 0.000 0.000
v 0.21780 0.24642 2.81034 0.000 0.000 0.000
v 0.23274 0.24840 2.77614 0.000 0.000 0.000
v 0.25902 0.15498 2.81034 0.000 0.000 0.000
v 0.28476 0.12618 2.78154 0.000 0.000 0.000
v 0.26982 0.16434 2.77614 0.000 0.000 0.000
v 0.25902 0.24948 2.74104 0.000 0.000 0.000
v 0.23760 0.24102 2.76876 0.000 0.000 0.000
v 0.25902 0.16974 2.77218 0.000 0.000 0.000
v 0.27522 0.17910 2.73978 0.000 0.000 0.000
v 0.26730 -0.02286 2.88594 0.000 0.000 0.000
v 0.28422 0.00000 2.84994 0.000 0.000 0.000
v 0.26532 0.00000 2.89638 0.000 0.000 0.000
v 0.27324 -0.04086 2.84670 0.000 0.000 0.000
v 0.26730 0.02286 2.88594 0.000 0.000 0.000
v 0.27324 0.04086 2.84670 0.000 0.000 0.000
v 0.27720 -0.03132 2.82330 0.000 0.000 0.000
v 0.27918 0.00000 2.81124 0.000 0.000 0.000
v 0.27720 0.03132 2.82330 0.000 0.000 0.000
v 0.22140 -0.12780 2.87838 0.404 0.000 0.400
v 0.25362 -0.15120 2.79900 0.404 0.000 0.400
v 0.25560 0.00000 2.84616 0.502 0.000 0.498
v 0.17316 -0.27846 2.80548 0.200 0.000 0.196
v 0.14922 -0.21006 2.87982 0.200 0.000 0.196
v -0.01080 -0.23832 2.89044 0.384 0.000 0.380
v -0.01152 -0.32166 2.79342 0.384 0.000 0.380
v -0.17154 -0.15840 2.86794 0.384 0.000 0.380
v -0.22500 -0.20862 2.76786 0.384 0.000 0.380
v -0.23976 0.00000 2.85300 0.200 0.000 0.196
v -0.33300 0.00000 2.73960 0.200 0.000 0.196
v -0.22500 0.20862 2.76786 0.384 0.000 0.380
v -0.17154 0.15840 2.86794 0.384 0.000 0.380
v -0.01152 0.32166 2.79342 0.384 0.000 0.380
v -0.01080 0.23832 2.89044 0.384 0.000 0.380
v 0.17316 0.27846 2.80548 0.200 0.000 0.196
v 0.14922 0.21006 2.87982 0.200 0.000 0.196
v 0.22140 0.12780 2.87838 0.384 0.000 0.380
v 0.25362 0.15120 2.79900 0.404 0.000 0.400
v 0.07002 0.18288 3.05100 0.000 0.000 0.000
v 0.07290 0.18828 3.04254 0.000 0.000 0.000
v 0.04878 0.19602 3.05460 0.000 0.000 0.000
v 0.08802 0.17280 3.04398 0.000 0.000 0.000
v 0.08496 0.15516 3.06864 0.000 0.000 0.000
v 0.08190 0.14544 3.08088 0.000 0.000 0.000
v 0.08694 0.15768 3.06468 0.000 0.000 0.000
v 0.05904 0.16128 3.08880 0.000 0.000 0.000
v 0.06228 0.15480 3.09150 0.000 0.000 0.000
v 0.04446 0.15534 3.11040 0.000 0.000 0.000
v 0.25776 0.00000 2.86398 0.000 0.000 0.000
v 0.30816 0.00000 2.67570 0.000 0.000 0.000
v 0.21132 0.13266 2.85732 0.000 0.000 0.000
v 0.23256 0.19404 2.73330 0.000 0.000 0.000
v 0.21132 -0.13266 2.85732 0.000 0.000 0.000
v 0.23256 -0.19404 2.73330 0.000 0.000 0.000
v 0.23094 -0.24336 2.66634 0.000 0.000 0.000
v 0.23094 0.24336 2.66634 0.000 0.000 0.000
v 0.14850 0.06120 3.08322 0.000 0.000 0.000
v 0.16056 0.07308 3.06954 0.000 0.000 0.000
v 0.14814 0.08226 3.08664 0.000 0.000 0.000
v 0.13302 0.06804 3.09258 0.000 0.000 0.000
v 0.12726 0.08676 3.09132 0.000 0.000 0.000
v 0.13716 0.10080 3.07980 0.000 0.000 0.000
v 0.15354 0.09324 3.06792 0.000 0.000 0.000
v 0.10710 -0.15102 3.07368 0.000 0.000 0.000
v 0.12564 -0.14490 3.06180 0.000 0.000 0.000
v 0.11682 -0.13302 3.07800 0.000 0.000 0.000
v 0.09612 -0.13554 3.08376 0.000 0.000 0.000
v 0.08568 -0.15030 3.07710 0.000 0.000 0.000
v 0.08910 -0.16290 3.06036 0.000 0.000 0.000
v 0.11088 -0.16164 3.05370 0.000 0.000 0.000
v 0.17388 0.07542 3.05766 0.000 0.000 0.000
v 0.15300 0.13032 3.05136 0.000 0.000 0.000
v 0.11250 0.11700 3.09222 0.000 0.000 0.000
v 0.18036 0.13662 3.00024 0.000 0.000 0.000
v 0.11916 0.17424 3.03336 0.000 0.000 0.000
v 0.11250 -0.11700 3.09222 0.000 0.000 0.000
v 0.15300 -0.13032 3.05136 0.000 0.000 0.000
v 0.17388 -0.07542 3.05766 0.000 0.000 0.000
v 0.18036 -0.13662 3.00024 0.000 0.000 0.000
v 0.11916 -0.17424 3.03336 0.000 0.000 0.000
vt 0.16406 0.72656
vt 0.13281 0.63281
vt 0.13281 0.72656
vt 0.16406 0.72656
vt 0.13281 0.63281
vt 0.13281 0.72656
vt 0.16406 0.63281
vt 0.16406 0.72656
vt 0.16406 0.63281
vt 0.13281 0.72656
vt 0.16406 0.72656
vt 0.16406 0.63281
vt 0.13281 0.72656
vt 0.13281 0.72656
vt 0.16406 0.63281
vt 0.16406 0.72656
vt 0.13281 0.72656
vt 0.16406 0.63281
vt 0.16406 0.72656
vt 0.75781 0.39844
vt 0.75781 0.50781
vt 0.69531 0.52344
vt 0.69531 0.63281
vt 0.80469 0.58594
vt 0.80469 0.52344
vt 0.78906 0.71094
vt 0.85156 0.72656
vt 0.85156 0.61719
vt 0.85156 0.58594
vt 0.80469 0.58594
vt 0.85156 0.61719
vt 0.85156 0.58594
vt 0.69531 0.63281
vt 0.75781 0.50781
vt 0.69531 0.52344
vt 0.75781 0.39844
vt 0.78906 0.44531
vt 0.80469 0.52344
vt 0.78906 0.44531
vt 0.16406 0.72656
vt 0.16406 0.69531
vt 0.13281 0.69531
vt 0.13281 0.69531
vt 0.16406 0.69531
vt 0.16406 0.72656
vt 0.13281 0.69531
vt 0.16406 0.72656
vt 0.16406 0.69531
vt 0.16406 0.69531
vt 0.16406 0.72656
vt 0.13281 0.69531
vt 0.00781 0.63281
vt 0.00781 0.66406
vt 0.07031 0.66406
vt 0.07031 0.66406
vt 0.07031 0.63281
vt 0.07031 0.66406
vt 0.00781 0.66406
vt 0.00781 0.63281
vt 0.07031 0.63281
vt 0.07031 0.66406
vt 0.07031 0.67969
vt 0.00781 0.67969
vt 0.07031 0.72656
vt 0.11719 0.69531
vt 0.11719 0.72656
vt 0.08594 0.72656
vt 0.11719 0.72656
vt 0.11719 0.69531
vt 0.08594 0.69531
vt 0.11719 0.69531
vt 0.11719 0.72656
vt 0.00781 0.63281
vt 0.07031 0.66406
vt 0.07031 0.63281
vt 0.07031 0.66406
vt 0.07031 0.63281
vt 0.07031 0.72656
vt 0.00781 0.67969
vt 0.07031 0.67969
vt 0.07031 0.67969
vt 0.00781 0.67969
vt 0.07031 0.72656
vt 0.07031 0.72656
vt 0.00781 0.67969
vt 0.07031 0.67969
vt 0.07031 0.67969
vt 0.00781 0.67969
vt 0.07031 0.72656
vt 0.00781 0.67969
vt 0.07031 0.67969
vt 0.07031 0.72656
vt 0.07031 0.66406
vt 0.07031 0.63281
vt 0.00781 0.63281
vt 0.07031 0.66406
vt 0.07031 0.63281
vt 0.00781 0.63281
vt 0.00781 0.66406
vt 0.07031 0.66406
vt 0.00781 0.63281
vt 0.07031 0.63281
vt 0.07031 0.66406
vt 0.07031 0.66406
vt 0.00781 0.66406
vt 0.42969 0.30469
vt 0.49219 0.38281
vt 0.49219 0.30469
vt 0.42969 0.57031
vt 0.49219 0.38281
vt 0.49219 0.53906
vt 0.49219 0.57031
vt 0.49219 0.46094
vt 0.57031 0.53906
vt 0.57031 0.46094
vt 0.49219 0.53906
vt 0.49219 0.57031
vt 0.49219 0.46094
vt 0.57031 0.53906
vt 0.57031 0.46094
vt 0.49219 0.30469
vt 0.57031 0.42969
vt 0.57031 0.38281
vt 0.57031 0.46094
vt 0.57031 0.42969
vt 0.57031 0.46094
vt 0.57031 0.38281
vt 0.16406 0.72656
vt 0.16406 0.69531
vt 0.13281 0.69531
vt 0.82031 0.91406
vt 0.99219 0.91406
vt 0.88281 0.82031
vt 0.99219 0.55469
vt 0.86719 0.71094
vt 0.91406 0.61719
vt 0.89844 0.50781
vt 0.88281 0.82031
vt 0.99219 0.55469
vt 0.86719 0.71094
vt 0.91406 0.61719
vt 0.89844 0.50781
vt 0.85156 0.42969
vt 0.88281 0.57031
vt 0.88281 0.42969
vt 0.85156 0.57031
vt 0.85156 0.42969
vt 0.88281 0.42969
vt 0.88281 0.99219
vt 0.94531 0.94531
vt 0.94531 0.99219
vt 0.80469 0.94531
vt 0.80469 0.99219
vt 0.69531 0.99219
vt 0.80469 0.94531
vt 0.94531 0.94531
vt 0.80469 0.86719
vt 0.80469 0.83594
vt 0.69531 0.85156
vt 0.80469 0.75781
vt 0.69531 0.75781
vt 0.80469 0.86719
vt 0.80469 0.83594
vt 0.69531 0.85156
vt 0.80469 0.75781
vt 0.69531 0.75781
vt 0.19531 0.35156
vt 0.19531 0.21094
vt 0.41406 0.21094
vt 0.41406 0.21094
vt 0.41406 0.30469
vt 0.19531 0.32031
vt 0.19531 0.21094
vt 0.19531 0.53906
vt 0.41406 0.53906
vt 0.08594 0.53906
vt 0.19531 0.53906
vt 0.00781 0.35156
vt 0.00781 0.21094
vt 0.00781 0.53906
vt 0.41406 0.30469
vt 0.19531 0.32031
vt 0.19531 0.21094
vt 0.19531 0.53906
vt 0.41406 0.53906
vt 0.08594 0.53906
vt 0.00781 0.35156
vt 0.00781 0.21094
vt 0.00781 0.53906
vt 0.10156 0.32031
vt 0.00781 0.32031
vt 0.05469 0.53906
vt 0.00781 0.53906
vt 0.10156 0.53906
vt 0.10156 0.32031
vt 0.00781 0.32031
vt 0.00781 0.53906
vt 0.10156 0.53906
vt 0.10156 0.32031
vt 0.00781 0.32031
vt 0.05469 0.53906
vt 0.13281 0.99219
vt 0.14844 0.91406
vt 0.00781 0.91406
vt 0.00781 0.85156
vt 0.02344 0.99219
vt 0.14844 0.91406
vt 0.13281 0.99219
vt 0.14844 0.78906
vt 0.00781 0.74219
vt 0.14844 0.78906
vt 0.14844 0.74219
vt 0.27344 0.74219
vt 0.27344 0.78906
vt 0.27344 0.85156
vt 0.16406 0.91406
vt 0.25781 0.92969
vt 0.21094 0.99219
vt 0.14844 0.74219
vt 0.27344 0.74219
vt 0.27344 0.78906
vt 0.27344 0.85156
vt 0.16406 0.91406
vt 0.25781 0.92969
vt 0.21094 0.99219
vt 0.67969 0.55469
vt 0.55469 0.55469
vt 0.67969 0.57031
vt 0.55469 0.58594
vt 0.67969 0.57031
vt 0.67969 0.55469
vt 0.67969 0.58594
vt 0.67969 0.58594
vt 0.85156 0.42969
vt 0.85156 0.42969
vt 0.85156 0.47656
vt 0.85156 0.47656
vt 0.85156 0.42969
vt 0.85156 0.49219
vt 0.85156 0.49219
vt 0.85156 0.52344
vt 0.85156 0.50781
vt 0.85156 0.49219
vt 0.85156 0.49219
vt 0.85156 0.47656
vt 0.85156 0.42969
vt 0.85156 0.47656
vt 0.85156 0.42969
vt 0.85156 0.50781
vt 0.08594 0.72656
vt 0.08594 0.67969
vt 0.11719 0.72656
vt 0.08594 0.63281
vt 0.11719 0.63281
vt 0.11719 0.72656
vt 0.08594 0.72656
vt 0.08594 0.72656
vt 0.11719 0.63281
vt 0.11719 0.72656
vt 0.08594 0.72656
vt 0.11719 0.63281
vt 0.11719 0.72656
vt 0.11719 0.72656
vt 0.11719 0.63281
vt 0.08594 0.72656
vt 0.11719 0.72656
vt 0.11719 0.63281
vt 0.08594 0.72656
vt 0.39844 0.74219
vt 0.49219 0.77344
vt 0.53906 0.77344
vt 0.39844 0.77344
vt 0.39844 0.74219
vt 0.39844 0.74219
vt 0.39844 0.77344
vt 0.44531 0.77344
vt 0.44531 0.77344
vt 0.44531 0.75781
vt 0.44531 0.74219
vt 0.39844 0.77344
vt 0.39844 0.74219
vt 0.39844 0.77344
vt 0.44531 0.74219
vt 0.39844 0.74219
vt 0.86719 0.38281
vt 0.97656 0.38281
vt 0.86719 0.28906
vt 0.91406 0.33594
vt 0.86719 0.28906
vt 0.97656 0.38281
vt 0.86719 0.38281
vt 0.91406 0.33594
vt 0.83594 0.33594
vt 0.91406 0.25781
vt 0.80469 0.21094
vt 0.83594 0.33594
vt 0.80469 0.21094
vt 0.80469 0.21094
vt 0.91406 0.25781
vt 0.83594 0.33594
vt 0.80469 0.21094
vt 0.83594 0.33594
vt 0.00781 0.63281
vt 0.07031 0.63281
vt 0.07031 0.67969
vt 0.00781 0.67969
vt 0.00781 0.63281
vt 0.07031 0.63281
vt 0.07031 0.67969
vt 0.00781 0.67969
vt 0.07031 0.72656
vt 0.07031 0.67969
vt 0.00781 0.67969
vt 0.07031 0.72656
vt 0.07031 0.72656
vt 0.00781 0.67969
vt 0.07031 0.67969
vt 0.07031 0.72656
vt 0.00781 0.67969
vt 0.07031 0.67969
vt 0.08594 0.72656
vt 0.08594 0.63281
vt 0.11719 0.72656
vt 0.32031 0.85156
vt 0.28906 0.80469
vt 0.28906 0.89844
vt 0.41406 0.89844
vt 0.28906 0.99219
vt 0.41406 0.99219
vt 0.53906 0.99219
vt 0.53906 0.85156
vt 0.38281 0.80469
vt 0.41406 0.89844
vt 0.53906 0.85156
vt 0.28906 0.89844
vt 0.32031 0.85156
vt 0.28906 0.80469
vt 0.38281 0.80469
vt 0.38281 0.72656
vt 0.38281 0.72656
vt 0.28906 0.72656
vt 0.28906 0.72656
vt 0.28906 0.64844
vt 0.28906 0.64844
vt 0.38281 0.64844
vt 0.53906 0.66406
vt 0.53906 0.74219
vt 0.67969 0.66406
vt 0.67969 0.77344
vt 0.53906 0.74219
vt 0.53906 0.66406
vt 0.38281 0.64844
vt 0.28906 0.55469
vt 0.24219 0.61719
vt 0.16406 0.55469
vt 0.13281 0.61719
vt 0.00781 0.55469
vt 0.00781 0.61719
vt 0.13281 0.61719
vt 0.16406 0.55469
vt 0.24219 0.61719
vt 0.28906 0.55469
vt 0.53906 0.60156
vt 0.38281 0.60156
vt 0.67969 0.60156
vt 0.53906 0.60156
vt 0.38281 0.60156
vt 0.91406 0.28906
vt 0.91406 0.21094
vt 0.99219 0.21094
vt 0.99219 0.33594
vt 0.91406 0.41406
vt 0.96094 0.42969
vt 0.91406 0.21094
vt 0.91406 0.47656
vt 0.85156 0.21094
vt 0.97656 0.42969
vt 0.94531 0.44531
vt 0.83594 0.47656
vt 0.75781 0.33594
vt 0.75781 0.21094
vt 0.69531 0.28906
vt 0.69531 0.39844
vt 0.69531 0.21094
vt 0.69531 0.42969
vt 0.69531 0.47656
vt 0.99219 0.21094
vt 0.91406 0.21094
vt 0.91406 0.28906
vt 0.99219 0.33594
vt 0.91406 0.41406
vt 0.96094 0.42969
vt 0.91406 0.21094
vt 0.91406 0.47656
vt 0.85156 0.21094
vt 0.97656 0.42969
vt 0.94531 0.44531
vt 0.75781 0.33594
vt 0.83594 0.47656
vt 0.75781 0.21094
vt 0.69531 0.28906
vt 0.69531 0.39844
vt 0.69531 0.21094
vt 0.69531 0.42969
vt 0.69531 0.47656
vt 0.27344 0.72656
vt 0.24219 0.67969
vt 0.24219 0.72656
vt 0.17969 0.67969
vt 0.17969 0.72656
vt 0.24219 0.67969
vt 0.17969 0.67969
vt 0.17969 0.72656
vt 0.24219 0.72656
vt 0.27344 0.72656
vt 0.60156 0.96094
vt 0.55469 0.88281
vt 0.55469 0.96094
vt 0.63281 0.96094
vt 0.67969 0.99219
vt 0.61719 0.99219
vt 0.55469 0.99219
vt 0.61719 0.99219
vt 0.63281 0.88281
vt 0.67969 0.88281
vt 0.63281 0.82031
vt 0.67969 0.78906
vt 0.60156 0.82031
vt 0.61719 0.78906
vt 0.55469 0.82031
vt 0.60156 0.82031
vt 0.55469 0.78906
vt 0.61719 0.78906
vt 0.67969 0.78906
vt 0.63281 0.82031
vt 0.63281 0.88281
vt 0.67969 0.88281
vt 0.63281 0.96094
vt 0.67969 0.99219
vt 0.60156 0.96094
vt 0.55469 0.96094
vt 0.55469 0.88281
vt 0.60156 0.96094
vt 0.55469 0.99219
vt 0.61719 0.99219
vt 0.61719 0.99219
vt 0.63281 0.96094
vt 0.67969 0.99219
vt 0.63281 0.88281
vt 0.67969 0.88281
vt 0.63281 0.82031
vt 0.67969 0.78906
vt 0.60156 0.82031
vt 0.61719 0.78906
vt 0.55469 0.82031
vt 0.60156 0.82031
vt 0.55469 0.78906
vt 0.61719 0.78906
vt 0.67969 0.78906
vt 0.63281 0.82031
vt 0.63281 0.88281
vt 0.67969 0.88281
vt 0.63281 0.96094
vt 0.67969 0.99219
vt 0.60156 0.96094
vt 0.07031 0.72656
vt 0.07031 0.67969
vt 0.00781 0.67969
vt 0.07031 0.67969
vt 0.00781 0.67969
vt 0.00781 0.72656
vt 0.07031 0.67969
vt 0.07031 0.63281
vt 0.00781 0.63281
vt 0.07031 0.67969
vt 0.07031 0.63281
vt 0.00781 0.63281
vt 0.00781 0.63281
vt 0.07031 0.63281
vt 0.07031 0.67969
vt 0.00781 0.63281
vt 0.07031 0.63281
vt 0.07031 0.67969
vt 0.16406 0.72656
vt 0.13281 0.66406
vt 0.13281 0.72656
vt 0.85156 0.78906
vt 0.82031 0.74219
vt 0.85156 0.83594
vt 0.82031 0.86719
vt 0.85156 0.83594
vt 0.85156 0.78906
vt 0.85156 0.78906
vt 0.85156 0.83594
vt 0.82031 0.86719
vt 0.85156 0.83594
vt 0.85156 0.78906
vt 0.85156 0.83594
vt 0.82031 0.86719
vt 0.85156 0.78906
vt 0.85156 0.83594
vt 0.85156 0.78906
vt 0.85156 0.78906
vt 0.85156 0.83594
vt 0.82031 0.86719
vt 0.85156 0.83594
vt 0.85156 0.78906
vt 0.85156 0.78906
vt 0.85156 0.83594
vt 0.82031 0.86719
vt 0.85156 0.83594
vt 0.85156 0.78906
vt 0.82031 0.86719
vt 0.85156 0.78906
vt 0.85156 0.83594
vt 0.85156 0.78906
vt 0.85156 0.83594
vt 0.82031 0.86719
vt 0.82031 0.74219
vt 0.85156 0.83594
vt 0.85156 0.83594
vt 0.85156 0.78906
vt 0.85156 0.78906
vt 0.85156 0.83594
vt 0.82031 0.86719
vt 0.85156 0.78906
vt 0.85156 0.83594
vt 0.85156 0.78906
vt 0.85156 0.78906
vt 0.85156 0.83594
vt 0.82031 0.86719
vt 0.85156 0.83594
vt 0.85156 0.78906
vt 0.82031 0.86719
vt 0.85156 0.83594
vt 0.85156 0.78906
vt 0.85156 0.83594
vt 0.85156 0.78906
vt 0.82031 0.86719
vt 0.85156 0.83594
vt 0.85156 0.78906
vt 0.85156 0.83594
vt 0.85156 0.78906
vt 0.85156 0.78906
vt 0.82031 0.86719
vt 0.85156 0.83594
vt 0.85156 0.78906
vt 0.85156 0.83594
vt 0.82031 0.92969
vt 0.96094 0.92969
vt 0.82031 0.92969
vt 0.82031 0.92969
vt 0.82031 0.92969
vt 0.82031 0.92969
vt 0.82031 0.92969
vt 0.82031 0.92969
vt 0.96094 0.92969
vt 0.82031 0.92969
vt 0.82031 0.92969
vt 0.82031 0.92969
vt 0.82031 0.92969
vt 0.82031 0.92969
vt 0.46094 0.78906
vt 0.35156 0.85156
vt 0.50781 0.85156
vt 0.46094 0.78906
vt 0.35156 0.85156
vt 0.46094 0.78906
vt 0.46094 0.78906
vt 0.46094 0.78906
vt 0.35156 0.85156
vt 0.35156 0.85156
vt 0.46094 0.78906
vt 0.50781 0.85156
vt 0.35156 0.85156
vt 0.46094 0.78906
vt 0.46094 0.78906
vt 0.46094 0.78906
vt 0.35156 0.85156
vt 0.46094 0.78906
vt 0.35156 0.85156
vt 0.46094 0.78906
vt 0.46094 0.78906
vt 0.35156 0.85156
vt 0.67969 0.53906
vt 0.58594 0.46094
vt 0.58594 0.53906
vt 0.67969 0.46094
vt 0.67969 0.53906
vt 0.67969 0.46094
vt 0.67969 0.38281
vt 0.58594 0.38281
vt 0.67969 0.38281
vt 0.22656 0.19531
vt 0.22656 0.00781
vt 0.50781 0.00781
vt 0.00781 0.00781
vt 0.00781 0.19531
vt 0.38281 0.19531
vt 0.38281 0.00781
vt 0.67969 0.19531
vt 0.67969 0.00781
vt 0.99219 0.19531
vt 0.99219 0.00781
vt 0.67969 0.00781
vt 0.67969 0.19531
vt 0.38281 0.00781
vt 0.38281 0.19531
vt 0.00781 0.00781
vt 0.00781 0.19531
vt 0.22656 0.19531
vt 0.22656 0.00781
vt 0.24219 0.72656
vt 0.24219 0.67969
vt 0.27344 0.72656
vt 0.17969 0.67969
vt 0.17969 0.72656
vt 0.17969 0.72656
vt 0.17969 0.67969
vt 0.24219 0.67969
vt 0.24219 0.72656
vt 0.27344 0.72656
vt 0.50781 0.36719
vt 0.50781 0.21094
vt 0.67969 0.36719
vt 0.67969 0.25781
vt 0.67969 0.36719
vt 0.67969 0.25781
vt 0.67969 0.21094
vt 0.67969 0.21094
vt 0.39844 0.58594
vt 0.39844 0.58594
vt 0.53906 0.58594
vt 0.39844 0.58594
vt 0.39844 0.58594
vt 0.39844 0.58594
vt 0.39844 0.58594
vt 0.53906 0.58594
vt 0.39844 0.58594
vt 0.39844 0.58594
vt 0.39844 0.58594
vt 0.39844 0.58594
vt 0.39844 0.58594
vt 0.39844 0.58594
vt 0.69531 0.66406
vt 0.69531 0.74219
vt 0.77344 0.74219
vt 0.77344 0.74219
vt 0.69531 0.66406
vt 0.77344 0.74219
vt 0.69531 0.74219
vt 0.69531 0.66406
vt 0.77344 0.74219
vt 0.69531 0.66406
usemtl m0
f 1/1 2/2 3/3
f 4/4 5/5 6/6
f 4/4 7/7 5/5
f 8/8 9/9 10/10
f 11/11 12/12 13/13
f 14/14 15/15 16/16
f 17/17 18/18 19/19
f 20/20 21/21 22/22
f 22/22 21/21 23/23
f 21/21 24/24 23/23
f 25/25 24/24 21/21
f 23/23 24/24 26/26
f 24/24 27/27 26/26
f 24/24 28/28 27/27
f 29/29 28/28 24/24
f 26/26 27/27 30/30
f 27/27 31/31 30/30
f 30/30 31/31 32/32
f 26/26 30/30 33/33
f 33/33 30/30 34/34
f 33/33 34/34 35/35
f 35/35 34/34 36/36
f 37/37 25/25 21/21
f 34/34 30/30 38/38
f 34/34 38/38 39/39
f 40/40 41/41 42/42
f 43/43 44/44 45/45
f 46/46 47/47 48/48
f 49/49 50/50 51/51
f 52/52 53/53 54/54
f 55/55 56/56 52/52
f 57/57 58/58 59/59
f 59/59 60/60 61/61
f 62/62 63/63 64/64
f 65/65 66/66 67/67
f 67/67 68/68 69/69
f 70/70 71/71 72/72
f 73/73 74/74 75/75
f 76/76 73/73 77/77
f 78/78 79/79 80/80
f 81/81 82/82 83/83
f 84/84 85/85 86/86
f 87/87 88/88 89/89
f 90/90 91/91 92/92
f 93/93 94/94 95/95
f 96/96 97/97 98/98
f 98/98 99/99 100/100
f 101/101 102/102 103/103
f 104/104 105/105 101/101
f 106/106 107/107 108/108
f 106/106 109/109 107/107
f 110/110 109/109 106/106
f 111/111 109/109 110/110
f 112/112 109/109 111/111
f 113/113 111/111 110/110
f 114/114 111/111 113/113
f 115/115 114/114 113/113
f 107/107 109/109 116/116
f 116/116 109/109 117/117
f 107/107 116/116 118/118
f 118/118 116/116 119/119
f 118/118 119/119 120/120
f 121/121 110/110 106/106
f 122/122 113/113 110/110
f 122/122 110/110 123/123
f 124/124 113/113 122/122
f 125/125 118/118 126/126
f 107/107 118/118 125/125
f 127/127 107/107 125/125
f 128/128 129/129 130/130
f 131/131 132/132 133/133
f 132/132 134/134 133/133
f 133/133 134/134 135/135
f 135/135 134/134 136/136
f 136/136 134/134 137/137
f 138/138 132/132 131/131
f 138/138 139/139 132/132
f 140/140 139/139 138/138
f 141/141 139/139 140/140
f 142/142 139/139 141/141
f 143/143 144/144 145/145
f 143/143 146/146 144/144
f 144/144 146/146 147/147
f 148/148 144/144 147/147
f 149/149 150/150 151/151
f 149/149 152/152 150/150
f 153/153 152/152 149/149
f 153/153 154/154 152/152
f 149/149 155/155 153/153
f 155/155 154/154 153/153
f 156/156 155/155 149/149
f 151/151 156/156 149/149
f 157/157 154/154 155/155
f 158/158 154/154 157/157
f 158/158 159/159 154/154
f 160/160 159/159 158/158
f 160/160 161/161 159/159
f 152/152 154/154 162/162
f 162/162 154/154 163/163
f 154/154 164/164 163/163
f 163/163 164/164 165/165
f 164/164 166/166 165/165
f 167/167 168/168 169/169
f 170/170 168/168 167/167
f 167/167 169/169 171/171
f 171/171 169/169 172/172
f 172/172 169/169 173/173
f 174/174 171/171 172/172
f 175/175 171/171 174/174
f 174/174 172/172 176/176
f 177/177 171/171 175/175
f 177/177 167/167 171/171
f 172/172 178/178 176/176
f 172/172 173/173 178/178
f 173/173 179/179 178/178
f 176/176 178/178 180/180
f 181/181 167/167 177/177
f 181/181 170/170 167/167
f 182/182 170/170 181/181
f 183/183 170/170 182/182
f 182/182 181/181 184/184
f 184/184 181/181 185/185
f 185/185 181/181 177/177
f 186/186 182/182 184/184
f 186/186 187/187 182/182
f 187/187 183/183 182/182
f 187/187 188/188 183/183
f 189/189 187/187 186/186
f 190/190 191/191 192/192
f 190/190 193/193 191/191
f 194/194 193/193 190/190
f 195/195 193/193 194/194
f 195/195 196/196 193/193
f 197/197 196/196 195/195
f 198/198 197/197 195/195
f 199/199 197/197 198/198
f 200/200 197/197 199/199
f 201/201 200/200 199/199
f 202/202 203/203 204/204
f 203/203 205/205 204/204
f 202/202 204/204 206/206
f 204/204 205/205 207/207
f 206/206 204/204 208/208
f 204/204 207/207 208/208
f 205/205 209/209 207/207
f 205/205 210/210 209/209
f 211/211 210/210 205/205
f 203/203 211/211 205/205
f 211/211 212/212 210/210
f 211/211 213/213 212/212
f 214/214 213/213 211/211
f 215/215 214/214 211/211
f 215/215 211/211 216/216
f 217/217 215/215 216/216
f 217/217 216/216 218/218
f 210/210 219/219 209/209
f 219/219 220/220 209/209
f 209/209 220/220 221/221
f 209/209 221/221 222/222
f 223/223 209/209 222/222
f 223/223 222/222 224/224
f 225/225 223/223 224/224
f 226/226 227/227 228/228
f 228/228 227/227 229/229
f 229/229 227/227 230/230
f 230/230 227/227 231/231
f 229/229 230/230 232/232
f 233/233 228/228 229/229
f 234/234 235/235 236/236
f 236/236 235/235 237/237
f 235/235 238/238 237/237
f 239/239 234/234 236/236
f 240/240 234/234 239/239
f 241/241 234/234 240/240
f 241/241 240/240 242/242
f 243/243 234/234 241/241
f 244/244 234/234 243/243
f 245/245 234/234 244/244
f 245/245 246/246 234/234
f 247/247 246/246 245/245
f 247/247 248/248 246/246
f 249/249 243/243 241/241
f 250/250 251/251 252/252
f 253/253 254/254 255/255
f 256/256 253/253 255/255
f 257/257 258/258 259/259
f 260/260 261/261 262/262
f 263/263 264/264 265/265
f 266/266 267/267 268/268
f 269/269 270/270 271/271
f 269/269 272/272 270/270
f 272/272 273/273 270/270
f 271/271 270/270 274/274
f 270/270 275/275 274/274
f 270/270 273/273 275/275
f 269/269 271/271 276/276
f 271/271 274/274 277/277
f 276/276 271/271 278/278
f 271/271 277/277 278/278
f 279/279 280/280 269/269
f 281/281 280/280 279/279
f 274/274 282/282 283/283
f 283/283 282/282 284/284
f 285/285 286/286 287/287
f 285/285 287/287 288/288
f 288/288 286/286 285/285
f 289/289 290/290 291/291
f 292/292 289/289 291/291
f 291/291 290/290 292/292
f 293/293 294/294 295/295
f 296/296 294/294 297/297
f 298/298 299/299 300/300
f 301/301 299/299 302/302
f 303/303 304/304 305/305
f 306/306 307/307 308/308
f 309/309 310/310 311/311
f 312/312 313/313 314/314
f 315/315 316/316 317/317
f 318/318 319/319 320/320
f 321/321 322/322 323/323
f 324/324 325/325 326/326
f 327/327 324/324 326/326
f 328/328 327/327 326/326
f 329/329 327/327 328/328
f 329/329 330/330 327/327
f 330/330 331/331 327/327
f 324/324 332/332 325/325
f 328/328 333/333 329/329
f 333/333 330/330 329/329
f 333/333 334/334 330/330
f 335/335 333/333 328/328
f 335/335 336/336 333/333
f 335/335 337/337 336/336
f 337/337 338/338 336/336
f 337/337 339/339 338/338
f 332/332 340/340 325/325
f 325/325 340/340 341/341
f 342/342 339/339 337/337
f 340/340 343/343 341/341
f 342/342 344/344 339/339
f 340/340 345/345 343/343
f 340/340 346/346 345/345
f 347/347 346/346 340/340
f 348/348 346/346 347/347
f 349/349 348/348 347/347
f 350/350 348/348 349/349
f 350/350 351/351 348/348
f 339/339 351/351 350/350
f 352/352 351/351 339/339
f 344/344 352/352 339/339
f 345/345 353/353 343/343
f 343/343 353/353 354/354
f 353/353 355/355 354/354
f 354/354 355/355 356/356
f 356/356 355/355 357/357
f 356/356 357/357 358/358
f 358/358 357/357 359/359
f 357/357 360/360 359/359
f 359/359 360/360 361/361
f 361/361 360/360 362/362
f 361/361 362/362 344/344
f 344/344 362/362 352/352
f 352/352 363/363 351/351
f 364/364 363/363 352/352
f 352/352 362/362 364/364
f 351/351 363/363 348/348
f 363/363 365/365 348/348
f 348/348 365/365 366/366
f 348/348 366/366 346/346
f 346/346 366/366 345/345
f 345/345 366/366 367/367
f 367/367 353/353 345/345
f 368/368 369/369 370/370
f 371/371 368/368 370/370
f 372/372 368/368 371/371
f 372/372 371/371 373/373
f 371/371 370/370 374/374
f 371/371 374/374 375/375
f 375/375 374/374 376/376
f 377/377 371/371 375/375
f 378/378 372/372 373/373
f 379/379 376/376 380/380
f 376/376 381/381 380/380
f 380/380 381/381 382/382
f 380/380 382/382 383/383
f 381/381 384/384 382/382
f 385/385 380/380 383/383
f 386/386 380/380 385/385
f 387/387 388/388 389/389
f 387/387 389/389 390/390
f 390/390 389/389 391/391
f 392/392 390/390 391/391
f 393/393 387/387 390/390
f 394/394 393/393 390/390
f 395/395 393/393 394/394
f 394/394 390/390 396/396
f 392/392 391/391 397/397
f 398/398 395/395 399/399
f 398/398 400/400 395/395
f 401/401 400/400 398/398
f 402/402 401/401 398/398
f 401/401 403/403 400/400
f 402/402 398/398 404/404
f 404/404 398/398 405/405
f 406/406 407/407 408/408
f 408/408 407/407 409/409
f 408/408 409/409 410/410
f 411/411 412/412 413/413
f 411/411 413/413 414/414
f 415/415 411/411 414/414
f 416/416 417/417 418/418
f 419/419 417/417 416/416
f 416/416 420/420 419/419
f 421/421 420/420 416/416
f 421/421 416/416 422/422
f 422/422 416/416 418/418
f 422/422 418/418 423/423
f 419/419 424/424 417/417
f 420/420 425/425 419/419
f 419/419 425/425 424/424
f 424/424 426/426 417/417
f 424/424 427/427 426/426
f 425/425 427/427 424/424
f 426/426 428/428 417/417
f 426/426 429/429 428/428
f 427/427 429/429 426/426
f 428/428 429/429 430/430
f 428/428 430/430 417/417
f 417/417 430/430 431/431
f 430/430 429/429 432/432
f 430/430 432/432 431/431
f 431/431 432/432 433/433
f 431/431 433/433 434/434
f 435/435 431/431 434/434
f 417/417 431/431 435/435
f 417/417 435/435 436/436
f 436/436 435/435 437/437
f 435/435 434/434 437/437
f 438/438 417/417 436/436
f 438/438 436/436 439/439
f 436/436 437/437 439/439
f 440/440 417/417 438/438
f 440/440 438/438 423/423
f 423/423 438/438 439/439
f 418/418 417/417 440/440
f 418/418 440/440 423/423
f 441/441 442/442 443/443
f 441/441 443/443 444/444
f 445/445 441/441 444/444
f 444/444 443/443 446/446
f 443/443 442/442 447/447
f 443/443 448/448 446/446
f 447/447 448/448 443/443
f 442/442 449/449 447/447
f 447/447 450/450 448/448
f 449/449 450/450 447/447
f 442/442 451/451 449/449
f 451/451 452/452 449/449
f 449/449 452/452 450/450
f 442/442 453/453 451/451
f 453/453 454/454 451/451
f 451/451 454/454 452/452
f 455/455 454/454 453/453
f 442/442 455/455 453/453
f 456/456 455/455 442/442
f 457/457 454/454 455/455
f 456/456 457/457 455/455
f 458/458 457/457 456/456
f 459/459 458/458 456/456
f 459/459 456/456 460/460
f 460/460 456/456 442/442
f 461/461 460/460 442/442
f 462/462 460/460 461/461
f 462/462 459/459 460/460
f 461/461 442/442 463/463
f 464/464 461/461 463/463
f 464/464 462/462 461/461
f 463/463 442/442 465/465
f 445/445 463/463 465/465
f 464/464 463/463 445/445
f 465/465 442/442 441/441
f 445/445 465/465 441/441
f 466/466 467/467 468/468
f 469/469 470/470 471/471
f 472/472 473/473 474/474
f 475/475 476/476 477/477
f 478/478 479/479 480/480
f 481/481 482/482 483/483
f 484/484 485/485 486/486
f 487/487 488/488 489/489
f 489/489 488/488 490/490
f 490/490 488/488 491/491
f 491/491 488/488 492/492
f 488/488 493/493 494/494
f 495/495 488/488 494/494
f 496/496 488/488 495/495
f 497/497 488/488 496/496
f 498/498 488/488 499/499
f 498/498 500/500 488/488
f 499/499 488/488 501/501
f 501/501 488/488 502/502
f 503/503 504/504 488/488
f 504/504 505/505 488/488
f 505/505 506/506 488/488
f 488/488 506/506 507/507
f 508/508 509/509 488/488
f 509/509 510/510 488/488
f 488/488 510/510 511/511
f 488/488 511/511 512/512
f 488/488 513/513 514/514
f 514/514 513/513 515/515
f 516/516 513/513 488/488
f 516/516 517/517 513/513
f 518/518 519/519 520/520
f 521/521 519/519 518/518
f 522/522 519/519 521/521
f 520/520 519/519 523/523
f 524/524 519/519 525/525
f 524/524 526/526 519/519
f 525/525 519/519 527/527
f 527/527 519/519 528/528
f 519/519 529/529 530/530
f 531/531 519/519 530/530
f 532/532 519/519 531/531
f 533/533 519/519 532/532
f 519/519 534/534 535/535
f 519/519 535/535 536/536
f 519/519 537/537 534/534
f 538/538 537/537 519/519
f 519/519 539/539 540/540
f 519/519 540/540 541/541
f 542/542 539/539 519/519
f 543/543 542/542 519/519
f 544/544 545/545 519/519
f 546/546 545/545 544/544
f 519/519 545/545 547/547
f 545/545 548/548 547/547
f 549/549 550/550 551/551
f 549/549 552/552 550/550
f 551/551 550/550 553/553
f 550/550 554/554 553/553
f 552/552 555/555 550/550
f 550/550 555/555 554/554
f 556/556 557/557 558/558
f 557/557 559/559 558/558
f 560/560 557/557 556/556
f 560/560 561/561 557/557
f 557/557 562/562 559/559
f 561/561 562/562 557/557
f 563/563 564/564 565/565
f 564/564 566/566 565/565
f 565/565 567/567 568/568
f 565/565 569/569 567/567
f 570/570 571/571 565/565
f 565/565 572/572 573/573
f 574/574 575/575 576/576
f 574/574 577/577 575/575
f 578/578 579/579 574/574
f 579/579 580/580 574/574
f 574/574 581/581 582/582
f 583/583 584/584 574/574
f 585/585 586/586 587/587
f 585/585 588/588 586/586
f 587/587 586/586 589/589
f 586/586 590/590 589/589
f 588/588 591/591 586/586
f 591/591 592/592 586/586
f 586/586 593/593 590/590
f 586/586 592/592 593/593
f 594/594 595/595 596/596
f 597/597 595/595 594/594
f 598/598 597/597 594/594
f 599/599 597/597 598/598
f 599/599 600/600 597/597
f 601/601 600/600 599/599
f 601/601 602/602 600/600
f 603/603 602/602 601/601
f 603/603 604/604 602/602
f 605/605 604/604 603/603
f 606/606 605/605 603/603
f 607/607 605/605 606/606
f 608/608 607/607 606/606
f 609/609 607/607 608/608
f 610/610 609/609 608/608
f 611/611 609/609 610/610
f 596/596 612/612 611/611
f 611/611 612/612 609/609
f 613/613 614/614 615/615
f 616/616 614/614 613/613
f 617/617 616/616 613/613
f 618/618 619/619 620/620
f 621/621 618/618 620/620
f 621/621 620/620 622/622
f 623/623 624/624 625/625
f 625/625 624/624 626/626
f 627/627 624/624 623/623
f 628/628 624/624 627/627
f 628/628 629/629 624/624
f 624/624 630/630 626/626
usemtl m1
f 631/631 632/632 633/633
f 634/634 631/631 633/633
f 634/634 633/633 635/635
f 633/633 636/636 635/635
f 633/633 637/637 636/636
f 632/632 637/637 633/633
f 638/638 639/639 640/640
f 641/641 638/638 640/640
f 642/642 638/638 641/641
f 642/642 643/643 638/638
f 643/643 644/644 638/638
f 638/638 644/644 639/639
f 645/645 646/646 647/647
f 645/645 648/648 646/646
f 646/646 648/648 649/649
f 646/646 649/649 647/647
f 650/650 651/651 652/652
f 651/651 653/653 652/652
f 654/654 653/653 651/651
f 650/650 654/654 651/651
