mtllib options1320.mtl
o options1320
v 0.16866 0.00000 2.44757 0.922 0.000 0.000
v 0.22163 0.00000 2.56136 0.890 0.000 0.000
v 0.21822 0.00000 2.57753 0.890 0.000 0.000
v 0.19910 0.00000 2.59052 0.859 0.000 0.000
v 0.21770 0.00000 2.54745 0.890 0.000 0.000
v 0.22121 0.00000 2.55298 0.890 0.000 0.000
v 0.22389 0.00000 2.57341 0.000 0.890 0.000
v 0.17115 0.00000 2.82913 0.910 0.000 0.000
v 0.19634 0.00000 2.77033 0.859 0.000 0.000
v 0.20203 0.00000 2.62759 0.859 0.000 0.000
v 0.20295 0.00000 2.70085 0.859 0.000 0.000
v 0.17979 0.00000 2.47500 0.871 0.000 0.000
v 0.19307 0.00000 2.51159 0.859 0.000 0.000
v 0.19745 0.00000 2.53867 0.890 0.000 0.000
v 0.14151 0.12820 2.79185 0.910 0.000 0.000
v 0.10835 0.15781 2.73541 0.910 0.000 0.000
v 0.06290 0.17644 2.60896 0.922 0.000 0.000
v 0.10993 0.10669 2.46577 0.922 0.000 0.000
v 0.06391 0.16295 2.54198 0.925 0.000 0.000
v 0.07244 0.17348 2.65828 0.922 0.000 0.000
v 0.08129 0.14458 2.49552 0.922 0.000 0.000
v 0.14935 0.04970 2.45205 0.922 0.000 0.000
v 0.18575 0.04846 2.54255 0.906 0.000 0.000
v 0.21337 0.01962 2.57249 0.890 0.000 0.000
v 0.19273 0.02615 2.58547 0.871 0.000 0.000
v 0.18741 0.04104 2.57692 0.890 0.000 0.000
v 0.21440 0.02101 2.54146 0.867 0.000 0.000
v 0.20192 0.03650 2.54081 0.867 0.000 0.000
v 0.20411 0.03686 2.57182 0.867 0.000 0.000
v 0.18399 0.05029 2.55922 0.890 0.000 0.000
v 0.21484 0.02691 2.55636 0.859 0.000 0.000
v 0.15640 0.06921 2.82393 0.910 0.000 0.000
v 0.19203 0.03506 2.62759 0.871 0.000 0.000
v 0.17708 0.08320 2.67305 0.886 0.000 0.000
v 0.14734 0.14371 2.68337 0.886 0.000 0.000
v 0.16143 0.11606 2.68337 0.886 0.000 0.000
v 0.18885 0.05866 2.60856 0.878 0.000 0.000
v 0.18423 0.07888 2.63529 0.875 0.000 0.000
v 0.17543 0.11120 2.64818 0.875 0.000 0.000
v 0.10685 0.15795 2.61043 0.890 0.000 0.000
v 0.13205 0.13054 2.49793 0.867 0.000 0.000
v 0.14695 0.09450 2.47376 0.890 0.000 0.000
v 0.16322 0.11169 2.54709 0.855 0.000 0.000
v 0.15905 0.10688 2.49660 0.851 0.000 0.000
v 0.18194 0.06239 2.52698 0.875 0.000 0.000
v 0.17297 0.04509 2.48342 0.871 0.000 0.000
v 0.18615 0.03614 2.51521 0.867 0.000 0.000
v 0.18126 0.07076 2.54848 0.875 0.000 0.000
v 0.09592 0.15518 2.57479 0.890 0.000 0.000
v 0.12703 0.12193 2.48267 0.890 0.000 0.000
v 0.10574 0.14715 2.51143 0.890 0.000 0.000
v 0.13528 0.13523 2.52378 0.859 0.000 0.000
v 0.09816 0.15367 2.54815 0.890 0.000 0.000
v 0.16944 0.07963 2.49233 0.867 0.000 0.000
v 0.16253 0.11018 2.52403 0.843 0.000 0.000
v 0.10453 0.16191 2.63435 0.890 0.000 0.000
v 0.15426 0.13770 2.73258 0.882 0.000 0.000
v 0.10533 0.15851 2.67914 0.902 0.000 0.000
v 0.16640 0.10105 2.56214 0.910 0.000 0.000
v 0.17470 0.08055 2.56131 0.910 0.000 0.000
v 0.15442 0.12226 2.56747 0.910 0.000 0.000
v 0.13280 0.14515 2.59760 0.914 0.000 0.000
v 0.13478 0.14114 2.58806 0.910 0.000 0.000
v 0.13882 0.13601 2.57852 0.910 0.000 0.000
v 0.17963 0.06091 2.56687 0.902 0.000 0.000
v 0.18489 0.04806 2.57539 0.914 0.000 0.000
v 0.13620 0.13783 2.55618 0.871 0.000 0.000
v 0.18131 0.08055 2.56939 0.000 0.906 0.000
v 0.17284 0.10276 2.57209 0.000 0.906 0.000
v 0.15994 0.12287 2.57807 0.000 0.906 0.000
v 0.14758 0.13311 2.58305 0.000 0.906 0.000
v 0.17705 0.08055 2.57747 0.000 0.933 0.000
v 0.16813 0.10445 2.58131 0.000 0.933 0.000
v 0.15485 0.12487 2.58739 0.000 0.933 0.000
v 0.18365 0.07972 2.60210 0.871 0.000 0.000
v 0.17643 0.11162 2.61040 0.867 0.000 0.000
v 0.14983 0.14180 2.61459 0.867 0.000 0.000
v 0.19041 0.03460 2.53192 0.890 0.000 0.000
v 0.19465 0.01523 2.53255 0.910 0.000 0.000
v 0.19150 0.04417 2.68695 0.875 0.000 0.000
v 0.17739 0.08294 2.55478 0.000 0.933 0.000
v 0.16943 0.10393 2.55551 0.000 0.933 0.000
v 0.16846 0.11101 2.55272 0.000 0.933 0.000
v 0.15808 0.12766 2.55805 0.000 0.933 0.000
v 0.15656 0.13088 2.55890 0.000 0.933 0.000
v 0.13865 0.14720 2.56934 0.000 0.933 0.000
v 0.17665 0.09607 2.55164 0.000 0.933 0.000
v 0.16657 0.12092 2.55222 0.000 0.933 0.000
v 0.15084 0.14362 2.56037 0.000 0.933 0.000
v 0.16836 0.00000 2.62933 1.000 0.000 0.000
v 0.14151 -0.12820 2.79185 0.910 0.000 0.000
v 0.10835 -0.15781 2.73541 0.910 0.000 0.000
v 0.06290 -0.17644 2.60896 0.922 0.000 0.000
v 0.10993 -0.10669 2.46577 0.922 0.000 0.000
v 0.06391 -0.16295 2.54198 0.925 0.000 0.000
v 0.07244 -0.17348 2.65828 0.922 0.000 0.000
v 0.08129 -0.14458 2.49552 0.922 0.000 0.000
v 0.14935 -0.04970 2.45205 0.922 0.000 0.000
v 0.18575 -0.04846 2.54255 0.906 0.000 0.000
v 0.21337 -0.01962 2.57249 0.890 0.000 0.000
v 0.19273 -0.02615 2.58547 0.871 0.000 0.000
v 0.18741 -0.04104 2.57692 0.890 0.000 0.000
v 0.21440 -0.02101 2.54146 0.867 0.000 0.000
v 0.20192 -0.03650 2.54081 0.867 0.000 0.000
v 0.20411 -0.03686 2.57182 0.867 0.000 0.000
v 0.18399 -0.05029 2.55922 0.890 0.000 0.000
v 0.21484 -0.02691 2.55636 0.859 0.000 0.000
v 0.15640 -0.06921 2.82393 0.910 0.000 0.000
v 0.19203 -0.03506 2.62759 0.871 0.000 0.000
v 0.17708 -0.08320 2.67305 0.886 0.000 0.000
v 0.14734 -0.14371 2.68337 0.886 0.000 0.000
v 0.16143 -0.11606 2.68337 0.886 0.000 0.000
v 0.18885 -0.05866 2.60856 0.878 0.000 0.000
v 0.18423 -0.07888 2.63529 0.875 0.000 0.000
v 0.17543 -0.11120 2.64818 0.875 0.000 0.000
v 0.10685 -0.15795 2.61043 0.890 0.000 0.000
v 0.13205 -0.13054 2.49793 0.867 0.000 0.000
v 0.14695 -0.09450 2.47376 0.890 0.000 0.000
v 0.16322 -0.11169 2.54709 0.855 0.000 0.000
v 0.15905 -0.10688 2.49660 0.851 0.000 0.000
v 0.18194 -0.06239 2.52698 0.875 0.000 0.000
v 0.17297 -0.04509 2.48342 0.871 0.000 0.000
v 0.18615 -0.03614 2.51521 0.867 0.000 0.000
v 0.18126 -0.07076 2.54848 0.875 0.000 0.000
v 0.09592 -0.15518 2.57479 0.890 0.000 0.000
v 0.12703 -0.12193 2.48267 0.890 0.000 0.000
v 0.10574 -0.14715 2.51143 0.890 0.000 0.000
v 0.13528 -0.13523 2.52378 0.859 0.000 0.000
v 0.09816 -0.15367 2.54815 0.890 0.000 0.000
v 0.16944 -0.07963 2.49233 0.867 0.000 0.000
v 0.16253 -0.11018 2.52403 0.843 0.000 0.000
v 0.10453 -0.16191 2.63435 0.890 0.000 0.000
v 0.15426 -0.13770 2.73258 0.882 0.000 0.000
v 0.10533 -0.15851 2.67914 0.902 0.000 0.000
v 0.16640 -0.10105 2.56214 0.910 0.000 0.000
v 0.17470 -0.08055 2.56131 0.910 0.000 0.000
v 0.15442 -0.12226 2.56747 0.910 0.000 0.000
v 0.13280 -0.14515 2.59760 0.914 0.000 0.000
v 0.13478 -0.14114 2.58806 0.910 0.000 0.000
v 0.13882 -0.13601 2.57852 0.910 0.000 0.000
v 0.17963 -0.06091 2.56687 0.902 0.000 0.000
v 0.18489 -0.04806 2.57539 0.914 0.000 0.000
v 0.13620 -0.13783 2.55618 0.871 0.000 0.000
v 0.18131 -0.08055 2.56939 0.000 0.906 0.000
v 0.17284 -0.10276 2.57209 0.000 0.906 0.000
v 0.15994 -0.12287 2.57807 0.000 0.906 0.000
v 0.14758 -0.13311 2.58305 0.000 0.906 0.000
v 0.17705 -0.08055 2.57747 0.000 0.933 0.000
v 0.16813 -0.10445 2.58131 0.000 0.933 0.000
v 0.15485 -0.12487 2.58739 0.000 0.933 0.000
v 0.18365 -0.07972 2.60210 0.871 0.000 0.000
v 0.17643 -0.11162 2.61040 0.867 0.000 0.000
v 0.14983 -0.14180 2.61459 0.867 0.000 0.000
v 0.19041 -0.03460 2.53192 0.890 0.000 0.000
v 0.19465 -0.01523 2.53255 0.910 0.000 0.000
v 0.19150 -0.04417 2.68695 0.875 0.000 0.000
v 0.17739 -0.08294 2.55478 0.000 0.933 0.000
v 0.16943 -0.10393 2.55551 0.000 0.933 0.000
v 0.16846 -0.11101 2.55272 0.000 0.933 0.000
v 0.15808 -0.12766 2.55805 0.000 0.933 0.000
v 0.15656 -0.13088 2.55890 0.000 0.933 0.000
v 0.13865 -0.14720 2.56934 0.000 0.933 0.000
v 0.17665 -0.09607 2.55164 0.000 0.933 0.000
v 0.16657 -0.12092 2.55222 0.000 0.933 0.000
v 0.15084 -0.14362 2.56037 0.000 0.933 0.000
v 0.20234 0.04106 2.55780 0.859 0.000 0.000
v 0.20234 -0.04106 2.55780 0.859 0.000 0.000
v 0.18500 0.07056 2.72250 0.867 0.000 0.000
v 0.18500 -0.07056 2.72250 0.867 0.000 0.000
v 0.17501 0.07164 2.78226 0.890 0.000 0.000
v 0.17501 -0.07164 2.78226 0.890 0.000 0.000
v 0.17643 0.03762 2.80818 0.902 0.000 0.000
v 0.17643 -0.03762 2.80818 0.902 0.000 0.000
v 0.15144 0.14368 2.65774 0.878 0.000 0.000
v 0.15144 -0.14368 2.65774 0.878 0.000 0.000
v 0.22163 0.00000 2.56136 0.000 0.929 0.000
v 0.21337 0.01962 2.57249 0.000 0.929 0.000
v 0.21822 0.00000 2.57753 0.000 0.929 0.000
v 0.16640 0.10105 2.56214 0.000 0.933 0.000
v 0.17470 0.08055 2.56131 0.000 0.933 0.000
v 0.15442 0.12226 2.56747 0.000 0.933 0.000
v 0.13478 0.14114 2.58806 0.000 0.933 0.000
v 0.13280 0.14515 2.59760 0.000 0.933 0.000
v 0.13882 0.13601 2.57852 0.000 0.933 0.000
v 0.17963 0.06091 2.56687 0.000 0.933 0.000
v 0.18489 0.04806 2.57539 0.000 0.933 0.000
v 0.15485 0.12487 2.58739 0.914 0.000 0.000
v 0.16813 0.10445 2.58131 0.914 0.000 0.000
v 0.17705 0.08055 2.57747 0.914 0.000 0.000
v 0.19041 0.03460 2.53192 0.910 0.000 0.000
v 0.19745 0.00000 2.53867 0.910 0.000 0.000
v 0.19465 0.01523 2.53255 0.890 0.000 0.000
v 0.17470 0.08055 2.56131 0.000 0.933 0.000
v 0.16640 0.10105 2.56214 0.000 0.933 0.000
v 0.15442 0.12226 2.56747 0.000 0.933 0.000
v 0.13882 0.13601 2.57852 0.000 0.933 0.000
v 0.06290 0.17644 2.60896 0.922 0.000 0.000
v 0.07244 0.17348 2.65828 0.922 0.000 0.000
v 0.15640 0.06921 2.82393 0.910 0.000 0.000
v 0.14151 0.12820 2.79185 0.910 0.000 0.000
v 0.10835 0.15781 2.73541 0.910 0.000 0.000
v 0.17115 0.00000 2.82913 0.910 0.000 0.000
v 0.08129 0.14458 2.49552 0.922 0.000 0.000
v 0.10993 0.10669 2.46577 0.922 0.000 0.000
v 0.14935 0.04970 2.45205 0.922 0.000 0.000
v 0.16866 0.00000 2.44757 0.922 0.000 0.000
v 0.06391 0.16295 2.54198 0.925 0.000 0.000
v 0.21337 -0.01962 2.57249 0.000 0.929 0.000
v 0.16640 -0.10105 2.56214 0.000 0.933 0.000
v 0.17470 -0.08055 2.56131 0.000 0.933 0.000
v 0.15442 -0.12226 2.56747 0.000 0.933 0.000
v 0.13478 -0.14114 2.58806 0.000 0.933 0.000
v 0.13280 -0.14515 2.59760 0.000 0.933 0.000
v 0.13882 -0.13601 2.57852 0.000 0.933 0.000
v 0.17963 -0.06091 2.56687 0.000 0.933 0.000
v 0.18489 -0.04806 2.57539 0.000 0.933 0.000
v 0.15485 -0.12487 2.58739 0.914 0.000 0.000
v 0.16813 -0.10445 2.58131 0.914 0.000 0.000
v 0.17705 -0.08055 2.57747 0.914 0.000 0.000
v 0.19041 -0.03460 2.53192 0.910 0.000 0.000
v 0.19465 -0.01523 2.53255 0.890 0.000 0.000
v 0.17470 -0.08055 2.56131 0.000 0.933 0.000
v 0.16640 -0.10105 2.56214 0.000 0.933 0.000
v 0.15442 -0.12226 2.56747 0.000 0.933 0.000
v 0.13882 -0.13601 2.57852 0.000 0.933 0.000
v 0.07244 -0.17348 2.65828 0.922 0.000 0.000
v 0.06290 -0.17644 2.60896 0.922 0.000 0.000
v 0.15640 -0.06921 2.82393 0.910 0.000 0.000
v 0.14151 -0.12820 2.79185 0.910 0.000 0.000
v 0.10835 -0.15781 2.73541 0.910 0.000 0.000
v 0.08129 -0.14458 2.49552 0.922 0.000 0.000
v 0.10993 -0.10669 2.46577 0.922 0.000 0.000
v 0.14935 -0.04970 2.45205 0.922 0.000 0.000
v 0.06391 -0.16295 2.54198 0.925 0.000 0.000
vt 0.00802 0.00874
vt 0.00802 0.28927
vt 0.00802 0.34538
vt 0.00802 0.38746
vt 0.00802 0.25137
vt 0.00802 0.26823
vt 0.85240 0.91467
vt 0.00802 0.99238
vt 0.00802 0.84077
vt 0.00802 0.50668
vt 0.00802 0.71785
vt 0.00802 0.05745
vt 0.00802 0.13120
vt 0.00787 0.21609
vt 0.44598 0.99238
vt 0.70854 0.80825
vt 0.86722 0.42954
vt 0.40077 0.00874
vt 0.86722 0.24018
vt 0.83994 0.61188
vt 0.75705 0.05301
vt 0.19738 0.00874
vt 0.18336 0.24018
vt 0.08517 0.32434
vt 0.14128 0.36642
vt 0.17634 0.33836
vt 0.08517 0.24018
vt 0.14128 0.24018
vt 0.14829 0.32434
vt 0.19037 0.28226
vt 0.10621 0.27525
vt 0.23107 0.99238
vt 0.14128 0.50668
vt 0.35004 0.65379
vt 0.55783 0.67829
vt 0.47075 0.68407
vt 0.25731 0.43724
vt 0.32362 0.53473
vt 0.43767 0.57681
vt 0.66394 0.45057
vt 0.56258 0.11263
vt 0.34332 0.05075
vt 0.40077 0.25420
vt 0.38543 0.12412
vt 0.19744 0.18508
vt 0.14829 0.07594
vt 0.12327 0.14674
vt 0.27453 0.24719
vt 0.73183 0.33372
vt 0.53453 0.05872
vt 0.70850 0.13498
vt 0.56207 0.19810
vt 0.73239 0.24338
vt 0.25602 0.09527
vt 0.39503 0.19810
vt 0.69468 0.51860
vt 0.57277 0.81344
vt 0.68448 0.66672
vt 0.40778 0.29628
vt 0.33063 0.28927
vt 0.48492 0.31031
vt 0.57610 0.40850
vt 0.56207 0.38044
vt 0.54103 0.34538
vt 0.25349 0.31031
vt 0.20439 0.33836
vt 0.58702 0.28226
vt 0.92996 0.56963
vt 0.92996 0.72657
vt 0.92997 0.86782
vt 0.92996 0.93060
vt 0.99274 0.56963
vt 0.99274 0.72657
vt 0.99274 0.86782
vt 0.33063 0.41921
vt 0.44284 0.44500
vt 0.54649 0.46460
vt 0.11322 0.21103
vt 0.05560 0.18700
vt 0.17529 0.68582
vt 0.88281 0.00713
vt 0.88281 0.12421
vt 0.88281 0.16812
vt 0.88281 0.27056
vt 0.88281 0.28519
vt 0.88281 0.40227
vt 0.88281 0.08031
vt 0.88281 0.22666
vt 0.88281 0.34373
vt 0.47482 0.00763
vt 0.44598 0.99238
vt 0.70854 0.80825
vt 0.86722 0.42954
vt 0.40077 0.00874
vt 0.86722 0.24018
vt 0.83994 0.61188
vt 0.75705 0.05301
vt 0.19738 0.00874
vt 0.18336 0.24018
vt 0.08517 0.32434
vt 0.14128 0.36642
vt 0.17634 0.33836
vt 0.08517 0.24018
vt 0.14128 0.24018
vt 0.14829 0.32434
vt 0.19037 0.28226
vt 0.10621 0.27525
vt 0.23107 0.99238
vt 0.14128 0.50668
vt 0.35004 0.65379
vt 0.55783 0.67829
vt 0.47075 0.68407
vt 0.25731 0.43724
vt 0.32362 0.53473
vt 0.43767 0.57681
vt 0.66394 0.45057
vt 0.56258 0.11263
vt 0.34332 0.05075
vt 0.40077 0.25420
vt 0.38543 0.12412
vt 0.19744 0.18508
vt 0.14829 0.07594
vt 0.12327 0.14674
vt 0.27453 0.24719
vt 0.73183 0.33372
vt 0.53453 0.05872
vt 0.70850 0.13498
vt 0.56207 0.19810
vt 0.73239 0.24338
vt 0.25602 0.09527
vt 0.39503 0.19810
vt 0.69468 0.51860
vt 0.57277 0.81344
vt 0.68448 0.66672
vt 0.40778 0.29628
vt 0.33063 0.28927
vt 0.48492 0.31031
vt 0.57610 0.40850
vt 0.56207 0.38044
vt 0.54103 0.34538
vt 0.25349 0.31031
vt 0.20439 0.33836
vt 0.58702 0.28226
vt 0.92996 0.56963
vt 0.92996 0.72657
vt 0.92997 0.86782
vt 0.92996 0.93060
vt 0.99274 0.56963
vt 0.99274 0.72657
vt 0.99274 0.86782
vt 0.33063 0.41921
vt 0.44284 0.44500
vt 0.54649 0.46460
vt 0.11322 0.21103
vt 0.05560 0.18700
vt 0.17529 0.68582
vt 0.88281 0.00713
vt 0.88281 0.12421
vt 0.88281 0.16812
vt 0.88281 0.27056
vt 0.88281 0.28519
vt 0.88281 0.40227
vt 0.88281 0.08031
vt 0.88281 0.22666
vt 0.88281 0.34373
vt 0.14829 0.27875
vt 0.14829 0.27875
vt 0.28795 0.76601
vt 0.28795 0.76601
vt 0.26663 0.89978
vt 0.26663 0.89978
vt 0.13733 0.94925
vt 0.13733 0.94925
vt 0.54179 0.59599
vt 0.54179 0.59599
vt 0.85240 0.74117
vt 0.63158 0.91467
vt 0.85240 0.99353
vt 0.86719 0.72657
vt 0.86719 0.56963
vt 0.86719 0.86782
vt 0.92996 0.99338
vt 0.99274 0.99338
vt 0.86719 0.99338
vt 0.92996 0.41269
vt 0.99274 0.41269
vt 0.49895 0.36642
vt 0.42180 0.34538
vt 0.33063 0.33836
vt 0.10621 0.18407
vt 0.00787 0.19278
vt 0.05448 0.20925
vt 0.97915 0.00713
vt 0.97915 0.15348
vt 0.97915 0.28519
vt 0.97915 0.40227
vt 0.86698 0.00763
vt 0.86698 0.00763
vt 0.86698 0.00763
vt 0.86698 0.00763
vt 0.86698 0.00763
vt 0.86698 0.00763
vt 0.86698 0.00763
vt 0.86698 0.00763
vt 0.86698 0.00763
vt 0.86698 0.00763
vt 0.86698 0.00763
vt 0.63158 0.91467
vt 0.86719 0.72657
vt 0.86719 0.56963
vt 0.86719 0.86782
vt 0.92996 0.99338
vt 0.99274 0.99338
vt 0.86719 0.99338
vt 0.92996 0.41269
vt 0.99274 0.41269
vt 0.49895 0.36642
vt 0.42180 0.34538
vt 0.33063 0.33836
vt 0.10621 0.18407
vt 0.05448 0.20925
vt 0.97915 0.00713
vt 0.97915 0.15348
vt 0.97915 0.28519
vt 0.97915 0.40227
vt 0.86698 0.00763
vt 0.86698 0.00763
vt 0.86698 0.00763
vt 0.86698 0.00763
vt 0.86698 0.00763
vt 0.86698 0.00763
vt 0.86698 0.00763
vt 0.86698 0.00763
vt 0.86698 0.00763
usemtl m0
f 24/24 2/2 31/31
f 27/27 6/6 5/5
f 28/28 31/31 27/27
f 24/24 31/31 29/29
f 31/31 28/28 166/166
f 23/23 166/166 28/28
f 24/24 29/29 25/25
f 3/3 25/25 4/4
f 25/25 3/3 24/24
f 29/29 30/30 26/26
f 25/25 29/29 26/26
f 30/30 29/29 166/166
f 29/29 31/31 166/166
f 166/166 23/23 30/30
f 6/6 31/31 2/2
f 27/27 31/31 6/6
f 176/176 177/177 7/7
f 177/177 178/178 7/7
f 33/33 11/11 10/10
f 80/80 33/33 34/34
f 56/56 17/17 20/20
f 17/17 56/56 40/40
f 174/174 35/35 39/39
f 35/35 36/36 39/39
f 37/37 38/38 33/33
f 33/33 38/38 34/34
f 9/9 11/11 168/168
f 11/11 80/80 168/168
f 11/11 33/33 80/80
f 33/33 10/10 25/25
f 10/10 4/4 25/25
f 170/170 15/15 32/32
f 20/20 58/58 56/56
f 16/16 15/15 57/57
f 15/15 170/170 57/57
f 57/57 170/170 168/168
f 170/170 32/32 172/172
f 32/32 8/8 172/172
f 16/16 57/57 58/58
f 35/35 58/58 57/57
f 80/80 34/34 168/168
f 57/57 168/168 36/36
f 36/36 168/168 34/34
f 36/36 35/35 57/57
f 36/36 34/34 39/39
f 39/39 34/34 38/38
f 20/20 16/16 58/58
f 8/8 9/9 172/172
f 9/9 170/170 172/172
f 168/168 170/170 9/9
f 21/21 50/50 18/18
f 18/18 50/50 42/42
f 22/22 42/42 54/54
f 42/42 22/22 18/18
f 1/1 46/46 12/12
f 22/22 46/46 1/1
f 21/21 19/19 51/51
f 51/51 19/19 53/53
f 49/49 53/53 17/17
f 53/53 52/52 51/51
f 51/51 52/52 41/41
f 17/17 40/40 49/49
f 43/43 48/48 55/55
f 45/45 54/54 55/55
f 55/55 48/48 45/45
f 51/51 41/41 21/21
f 21/21 41/41 50/50
f 42/42 50/50 44/44
f 44/44 50/50 41/41
f 41/41 52/52 44/44
f 44/44 52/52 55/55
f 44/44 54/54 42/42
f 54/54 46/46 22/22
f 13/13 46/46 47/47
f 45/45 47/47 54/54
f 55/55 54/54 44/44
f 17/17 53/53 19/19
f 54/54 47/47 46/46
f 12/12 46/46 13/13
f 64/64 49/49 63/63
f 49/49 62/62 63/63
f 37/37 33/33 26/26
f 33/33 25/25 26/26
f 59/59 60/60 43/43
f 67/67 61/61 43/43
f 43/43 61/61 59/59
f 64/64 61/61 67/67
f 49/49 64/64 67/67
f 43/43 60/60 48/48
f 66/66 26/26 65/65
f 48/48 60/60 65/65
f 73/73 72/72 69/69
f 72/72 68/68 69/69
f 69/69 68/68 179/179
f 180/180 179/179 68/68
f 74/74 73/73 70/70
f 179/179 181/181 69/69
f 73/73 69/69 70/70
f 181/181 70/70 69/69
f 182/182 183/183 71/71
f 70/70 71/71 74/74
f 181/181 184/184 70/70
f 182/182 71/71 184/184
f 184/184 71/71 70/70
f 183/183 74/74 71/71
f 180/180 68/68 185/185
f 72/72 186/186 68/68
f 185/185 68/68 186/186
f 40/40 62/62 49/49
f 77/77 76/76 187/187
f 76/76 188/188 187/187
f 77/77 187/187 62/62
f 66/66 37/37 26/26
f 189/189 75/75 66/66
f 37/37 66/66 75/75
f 188/188 76/76 189/189
f 76/76 75/75 189/189
f 62/62 40/40 77/77
f 67/67 53/53 49/49
f 67/67 52/52 53/53
f 43/43 55/55 67/67
f 67/67 55/55 52/52
f 35/35 174/174 58/58
f 174/174 56/56 58/58
f 174/174 77/77 56/56
f 77/77 40/40 56/56
f 77/77 174/174 76/76
f 174/174 39/39 76/76
f 38/38 37/37 75/75
f 75/75 76/76 38/38
f 38/38 76/76 39/39
f 23/23 28/28 78/78
f 45/45 23/23 190/190
f 23/23 45/45 48/48
f 26/26 30/30 65/65
f 65/65 30/30 48/48
f 23/23 48/48 30/30
f 27/27 5/5 14/14
f 45/45 190/190 47/47
f 190/190 79/79 47/47
f 191/191 13/13 79/79
f 28/28 27/27 78/78
f 14/14 192/192 27/27
f 192/192 78/78 27/27
f 79/79 13/13 47/47
f 81/81 87/87 193/193
f 193/193 87/87 194/194
f 194/194 87/87 82/82
f 194/194 88/88 195/195
f 195/195 88/88 84/84
f 195/195 89/89 196/196
f 196/196 89/89 86/86
f 83/83 88/88 194/194
f 85/85 89/89 195/195
f 90/90 197/197 198/198
f 199/199 90/90 200/200
f 201/201 200/200 90/90
f 198/198 201/201 90/90
f 199/199 202/202 90/90
f 203/203 90/90 204/204
f 90/90 205/205 204/204
f 205/205 90/90 206/206
f 203/203 207/207 90/90
f 197/197 90/90 207/207
f 100/100 107/107 2/2
f 103/103 5/5 6/6
f 104/104 103/103 107/107
f 100/100 105/105 107/107
f 106/106 167/167 105/105
f 167/167 107/107 105/105
f 100/100 101/101 105/105
f 3/3 4/4 101/101
f 101/101 100/100 3/3
f 105/105 102/102 106/106
f 101/101 102/102 105/105
f 99/99 167/167 106/106
f 104/104 107/107 167/167
f 99/99 104/104 167/167
f 6/6 2/2 107/107
f 103/103 6/6 107/107
f 176/176 7/7 208/208
f 208/208 7/7 178/178
f 109/109 10/10 11/11
f 114/114 109/109 110/110
f 132/132 96/96 93/93
f 93/93 116/116 132/132
f 112/112 111/111 115/115
f 111/111 175/175 115/115
f 113/113 109/109 114/114
f 110/110 109/109 156/156
f 9/9 169/169 11/11
f 169/169 156/156 11/11
f 11/11 156/156 109/109
f 109/109 101/101 10/10
f 10/10 101/101 4/4
f 133/133 171/171 91/91
f 134/134 96/96 132/132
f 92/92 133/133 91/91
f 169/169 171/171 133/133
f 91/91 171/171 108/108
f 9/9 171/171 169/169
f 92/92 134/134 133/133
f 111/111 133/133 134/134
f 156/156 169/169 110/110
f 133/133 112/112 169/169
f 169/169 112/112 110/110
f 112/112 133/133 111/111
f 112/112 115/115 110/110
f 115/115 114/114 110/110
f 96/96 134/134 92/92
f 8/8 108/108 173/173
f 108/108 171/171 173/173
f 171/171 9/9 173/173
f 9/9 8/8 173/173
f 113/113 102/102 109/109
f 102/102 101/101 109/109
f 97/97 94/94 126/126
f 94/94 118/118 126/126
f 98/98 130/130 118/118
f 118/118 94/94 98/98
f 1/1 12/12 122/122
f 98/98 1/1 122/122
f 97/97 127/127 95/95
f 127/127 129/129 95/95
f 125/125 93/93 129/129
f 129/129 127/127 128/128
f 127/127 117/117 128/128
f 93/93 125/125 116/116
f 119/119 131/131 124/124
f 120/120 130/130 131/131
f 131/131 121/121 124/124
f 126/126 117/117 97/97
f 117/117 127/127 97/97
f 117/117 126/126 120/120
f 126/126 118/118 120/120
f 117/117 120/120 128/128
f 120/120 131/131 128/128
f 120/120 118/118 130/130
f 130/130 98/98 122/122
f 13/13 123/123 122/122
f 121/121 130/130 123/123
f 130/130 121/121 131/131
f 93/93 95/95 129/129
f 130/130 122/122 123/123
f 12/12 13/13 122/122
f 140/140 139/139 125/125
f 125/125 139/139 138/138
f 135/135 119/119 136/136
f 143/143 119/119 137/137
f 119/119 135/135 137/137
f 140/140 143/143 137/137
f 125/125 143/143 140/140
f 119/119 124/124 136/136
f 142/142 141/141 102/102
f 124/124 141/141 136/136
f 149/149 145/145 148/148
f 148/148 145/145 144/144
f 145/145 209/209 144/144
f 210/210 144/144 209/209
f 150/150 146/146 149/149
f 209/209 145/145 211/211
f 149/149 146/146 145/145
f 211/211 145/145 146/146
f 212/212 147/147 213/213
f 146/146 150/150 147/147
f 211/211 146/146 214/214
f 212/212 214/214 147/147
f 214/214 146/146 147/147
f 213/213 147/147 150/150
f 210/210 215/215 144/144
f 148/148 144/144 216/216
f 215/215 216/216 144/144
f 116/116 125/125 138/138
f 153/153 217/217 152/152
f 152/152 217/217 218/218
f 153/153 138/138 217/217
f 142/142 102/102 113/113
f 219/219 142/142 151/151
f 113/113 151/151 142/142
f 151/151 152/152 219/219
f 219/219 152/152 218/218
f 138/138 153/153 116/116
f 143/143 125/125 129/129
f 143/143 129/129 128/128
f 119/119 143/143 131/131
f 143/143 128/128 131/131
f 116/116 153/153 132/132
f 153/153 175/175 132/132
f 111/111 134/134 175/175
f 134/134 132/132 175/175
f 153/153 152/152 175/175
f 152/152 115/115 175/175
f 114/114 151/151 113/113
f 115/115 152/152 114/114
f 152/152 151/151 114/114
f 99/99 154/154 104/104
f 121/121 220/220 99/99
f 99/99 124/124 121/121
f 102/102 141/141 106/106
f 141/141 124/124 106/106
f 99/99 106/106 124/124
f 103/103 14/14 5/5
f 121/121 123/123 220/220
f 220/220 123/123 155/155
f 191/191 155/155 13/13
f 104/104 154/154 103/103
f 14/14 103/103 221/221
f 221/221 103/103 154/154
f 155/155 123/123 13/13
f 157/157 222/222 163/163
f 222/222 223/223 163/163
f 223/223 158/158 163/163
f 223/223 224/224 164/164
f 224/224 160/160 164/164
f 224/224 225/225 165/165
f 225/225 162/162 165/165
f 159/159 223/223 164/164
f 161/161 224/224 165/165
f 90/90 226/226 227/227
f 228/228 229/229 90/90
f 230/230 90/90 229/229
f 226/226 90/90 230/230
f 228/228 90/90 202/202
f 231/231 232/232 90/90
f 90/90 232/232 233/233
f 233/233 206/206 90/90
f 231/231 90/90 234/234
f 227/227 234/234 90/90
