mtllib options1322.mtl
o options1322
v 0.05619 -0.31543 2.69244 0.000 0.000 0.000
v 0.05691 -0.31248 2.69366 0.000 0.000 0.000
v 0.05914 -0.31597 2.69021 0.000 0.000 0.000
v 0.05489 -0.31757 2.68979 0.000 0.000 0.000
v 0.05188 -0.31433 2.69365 0.000 0.000 0.000
v 0.00985 -0.00886 2.73656 0.000 0.000 1.000
v -0.23709 -0.18859 2.51183 0.000 0.000 0.925
v -0.26174 -0.21542 2.53575 0.000 0.000 0.902
v -0.25651 -0.21908 2.57890 0.000 0.875 0.000
v -0.15126 -0.27032 2.50375 0.000 0.000 0.925
v -0.17262 -0.29461 2.53300 0.000 0.000 0.902
v -0.17227 -0.28492 2.57551 0.000 0.875 0.000
v -0.17238 -0.14733 2.78510 0.000 0.902 0.000
v -0.09297 -0.21382 2.77789 0.000 0.902 0.000
v -0.16452 -0.11250 2.57072 0.000 0.000 1.000
v -0.05712 -0.18212 2.56016 0.000 0.000 1.000
v -0.16036 -0.19233 2.51149 0.000 0.000 0.965
v -0.05569 -0.32441 2.53436 0.000 0.000 0.925
v -0.07119 -0.35158 2.56473 0.000 0.000 0.902
v -0.07670 -0.33901 2.60611 0.000 0.875 0.000
v 0.05147 -0.34043 2.56246 0.000 0.000 0.925
v 0.04233 -0.36855 2.59450 0.000 0.000 0.902
v 0.03047 -0.35501 2.63423 0.000 0.875 0.000
v -0.01732 -0.23171 2.79167 0.000 0.902 0.000
v 0.25216 -0.26586 2.62273 0.000 0.000 0.925
v 0.25473 -0.28987 2.65903 0.000 0.000 0.902
v 0.23116 -0.28046 2.69447 0.000 0.875 0.000
v 0.15639 -0.32207 2.59690 0.000 0.000 0.925
v 0.15348 -0.34909 2.63099 0.000 0.000 0.902
v 0.13540 -0.33665 2.66866 0.000 0.875 0.000
v 0.05332 -0.21220 2.82103 0.000 0.902 0.000
v 0.04041 -0.21148 2.57695 0.000 0.000 1.000
v 0.14679 -0.18639 2.60253 0.000 0.000 1.000
v 0.04413 -0.27664 2.55083 0.000 0.000 0.965
v -0.05888 -0.25420 2.52151 0.000 0.000 0.965
v 0.14986 -0.25634 2.58176 0.000 0.000 0.965
v 0.21598 -0.22473 2.60458 0.000 0.000 0.965
v -0.33661 -0.01388 2.60118 0.000 0.000 0.925
v -0.36668 -0.02936 2.62870 0.000 0.000 0.902
v -0.35605 -0.04439 2.66823 0.000 0.875 0.000
v -0.06743 -0.12618 2.95763 0.000 0.859 0.000
v -0.12994 -0.11831 2.91863 0.000 0.871 0.000
v -0.16391 -0.10462 2.87478 0.000 0.878 0.000
v -0.20080 -0.08131 2.80690 0.000 0.902 0.000
v -0.33020 0.08815 2.63756 0.000 0.000 0.925
v -0.36008 0.07870 2.66787 0.000 0.000 0.902
v -0.34964 0.05765 2.70461 0.000 0.875 0.000
v -0.28765 0.18954 2.66915 0.000 0.000 0.925
v -0.31536 0.18554 2.70257 0.000 0.000 0.902
v -0.30709 0.15905 2.73620 0.000 0.875 0.000
v -0.22418 0.26975 2.72171 0.000 0.000 0.925
v -0.24697 0.26127 2.76426 0.000 0.000 0.902
v -0.24047 0.22507 2.78768 0.000 0.875 0.000
v -0.14168 0.32249 2.78015 0.000 0.000 0.925
v -0.15841 0.30058 2.83606 0.000 0.000 0.902
v -0.15706 0.26188 2.85611 0.000 0.875 0.000
v -0.03870 0.33779 2.82128 0.000 0.000 0.925
v -0.04932 0.31680 2.87964 0.000 0.000 0.902
v -0.05408 0.27720 2.89724 0.000 0.875 0.000
v -0.11328 -0.07234 2.94437 0.000 0.871 0.000
v -0.13702 -0.02727 2.91775 0.000 0.878 0.000
v -0.19009 -0.01487 2.84022 0.000 0.902 0.000
v -0.12868 0.05319 2.88896 0.000 0.902 0.000
v -0.07013 -0.05625 2.96419 0.000 0.871 0.000
v -0.06660 -0.00099 2.95011 0.000 0.878 0.000
v -0.05803 0.07268 2.91832 0.000 0.902 0.000
v 0.34973 -0.00630 2.80357 0.000 0.000 0.925
v 0.36036 -0.02133 2.84312 0.000 0.000 0.902
v 0.33030 -0.03681 2.87064 0.000 0.875 0.000
v 0.00607 -0.11682 2.95873 0.000 0.871 0.000
v 0.05811 -0.10217 2.94025 0.000 0.878 0.000
v 0.12545 -0.07771 2.90311 0.000 0.902 0.000
v 0.32238 0.09529 2.82825 0.000 0.000 0.925
v 0.33127 0.08629 2.87062 0.000 0.000 0.902
v 0.30311 0.06485 2.89710 0.000 0.875 0.000
v 0.26761 0.19568 2.83289 0.000 0.000 0.925
v 0.27283 0.19204 2.87604 0.000 0.000 0.902
v 0.24817 0.16519 2.89994 0.000 0.875 0.000
v 0.17963 0.27436 2.84467 0.000 0.000 0.925
v 0.18039 0.26599 2.89028 0.000 0.000 0.902
v 0.16295 0.22952 2.90666 0.000 0.875 0.000
v 0.07041 0.32483 2.84270 0.000 0.000 0.925
v 0.06626 0.30305 2.90232 0.000 0.000 0.902
v 0.05503 0.26422 2.91866 0.000 0.875 0.000
v -0.02282 -0.07135 2.97104 0.000 0.871 0.000
v 0.01064 -0.02565 2.96129 0.000 0.875 0.000
v 0.09702 -0.01170 2.92489 0.000 0.902 0.000
v 0.01761 0.05481 2.93211 0.000 0.902 0.000
v -0.30407 -0.10717 2.55629 0.000 0.000 0.925
v -0.33235 -0.12865 2.58161 0.000 0.000 0.902
v -0.32351 -0.13768 2.62334 0.000 0.875 0.000
v -0.10105 -0.16378 2.90632 0.000 0.871 0.000
v -0.11644 -0.18113 2.85374 0.000 0.878 0.000
v -0.05373 -0.17888 2.91317 0.000 0.871 0.000
v -0.03920 -0.20579 2.86490 0.000 0.878 0.000
v 0.34866 -0.09997 2.74880 0.000 0.000 0.925
v 0.35912 -0.12101 2.78552 0.000 0.000 0.902
v 0.32922 -0.13046 2.81585 0.000 0.875 0.000
v 0.31818 -0.18245 2.67557 0.000 0.000 0.925
v 0.32645 -0.20893 2.70922 0.000 0.000 0.902
v 0.29874 -0.21294 2.74264 0.000 0.875 0.000
v -0.01059 -0.16277 2.93299 0.000 0.871 0.000
v 0.03122 -0.17951 2.89728 0.000 0.878 0.000
v 0.11474 -0.14416 2.86978 0.000 0.902 0.000
v -0.20785 -0.00284 2.61601 0.000 0.000 1.000
v -0.19548 0.11273 2.65617 0.000 0.000 1.000
v -0.10937 0.19098 2.69240 0.000 0.000 1.000
v -0.01872 0.21087 2.72691 0.000 0.000 1.000
v 0.22677 0.00686 2.73629 0.000 0.000 1.000
v 0.17547 0.11151 2.76192 0.000 0.000 1.000
v 0.08806 0.19301 2.74662 0.000 0.000 1.000
v 0.22153 -0.10883 2.66488 0.000 0.000 1.000
v -0.02886 0.30157 2.76046 0.000 0.000 0.965
v 0.15360 0.24242 2.78181 0.000 0.000 0.965
v -0.20957 0.21285 2.67975 0.000 0.000 0.965
v -0.12541 0.27864 2.72561 0.000 0.000 0.965
v 0.07947 0.29167 2.78476 0.000 0.000 0.965
v 0.29853 0.00518 2.75310 0.000 0.000 0.965
v 0.28441 -0.14231 2.65876 0.000 0.000 0.965
v 0.22611 0.15676 2.78332 0.000 0.000 0.965
v 0.10220 -0.21710 2.80901 0.000 0.000 0.000
v 0.09359 -0.21049 2.81187 0.000 0.000 0.000
v 0.11175 -0.20857 2.80904 0.000 0.000 0.000
v 0.11025 -0.22165 2.80067 0.000 0.000 0.000
v 0.09090 -0.22646 2.80316 0.000 0.000 0.000
v 0.32941 -0.18371 2.75432 0.000 0.000 0.000
v 0.32447 -0.18056 2.75899 0.000 0.000 0.000
v 0.33362 -0.17509 2.75211 0.000 0.000 0.000
v 0.33200 -0.18693 2.74583 0.000 0.000 0.000
v 0.32186 -0.19134 2.75218 0.000 0.000 0.000
v 0.15989 0.15750 2.91715 0.000 0.000 0.000
v 0.15713 0.15050 2.91841 0.000 0.000 0.000
v 0.15074 0.16146 2.91586 0.000 0.000 0.000
v 0.16327 0.16409 2.91197 0.000 0.000 0.000
v 0.16866 0.15221 2.91389 0.000 0.000 0.000
v 0.31737 0.11848 2.87865 0.000 0.000 0.000
v 0.31488 0.11243 2.88445 0.000 0.000 0.000
v 0.30700 0.12343 2.87843 0.000 0.000 0.000
v 0.31904 0.12208 2.86913 0.000 0.000 0.000
v 0.32562 0.11002 2.87532 0.000 0.000 0.000
v -0.06116 0.30139 2.89436 0.000 0.000 0.000
v -0.05432 0.29362 2.89836 0.000 0.000 0.000
v -0.06849 0.29158 2.89049 0.000 0.000 0.000
v -0.06648 0.30832 2.88688 0.000 0.000 0.000
v -0.04914 0.30949 2.89251 0.000 0.000 0.000
v -0.23388 0.07528 2.81029 0.000 0.000 0.000
v -0.22129 0.07630 2.81799 0.000 0.000 0.000
v -0.23049 0.06278 2.80705 0.000 0.000 0.000
v -0.24358 0.07605 2.79743 0.000 0.000 0.000
v -0.23157 0.08872 2.80827 0.000 0.000 0.000
v 0.05519 0.00014 2.94167 0.000 0.000 0.000
v 0.05266 -0.00439 2.94307 0.000 0.000 0.000
v 0.04974 0.00389 2.94176 0.000 0.000 0.000
v 0.05769 0.00423 2.93747 0.000 0.000 0.000
v 0.06030 -0.00459 2.93872 0.000 0.000 0.000
v -0.22200 -0.17602 2.70211 0.000 0.000 0.000
v -0.21321 -0.17001 2.71238 0.000 0.000 0.000
v -0.20762 -0.18677 2.69458 0.000 0.000 0.000
v -0.22908 -0.17744 2.68630 0.000 0.000 0.000
v -0.23299 -0.15849 2.70445 0.000 0.000 0.000
v 0.07331 -0.30197 2.71984 0.263 0.000 0.000
v 0.07644 -0.30699 2.71310 0.263 0.000 0.000
v 0.05581 -0.31361 2.69147 0.839 0.000 0.000
v 0.07519 -0.31180 2.70814 0.263 0.000 0.000
v 0.06467 -0.30031 2.72471 0.263 0.000 0.000
v 0.08985 -0.31180 2.70301 0.263 0.000 0.000
v 0.08256 -0.31052 2.70700 0.263 0.000 0.000
v 0.09438 -0.31675 2.69588 0.263 0.000 0.000
v 0.09265 -0.32278 2.68970 0.263 0.000 0.000
v 0.08711 -0.32758 2.68627 0.263 0.000 0.000
v 0.07995 -0.33026 2.68576 0.263 0.000 0.000
v 0.08148 -0.33910 2.67530 0.263 0.000 0.000
v 0.08163 -0.33410 2.68087 0.263 0.000 0.000
v 0.07614 -0.34533 2.67019 0.263 0.000 0.000
v 0.05512 -0.34627 2.67651 0.263 0.000 0.000
v 0.05101 -0.33860 2.68234 0.263 0.000 0.000
v 0.06531 -0.34826 2.67068 0.263 0.000 0.000
v 0.05489 -0.30220 2.72601 0.263 0.000 0.000
v 0.04844 -0.30735 2.72250 0.263 0.000 0.000
v 0.04655 -0.31217 2.71775 0.263 0.000 0.000
v 0.03178 -0.31255 2.72250 0.263 0.000 0.000
v 0.03996 -0.31106 2.72129 0.263 0.000 0.000
v 0.02397 -0.31765 2.71951 0.263 0.000 0.000
v 0.02177 -0.32369 2.71350 0.263 0.000 0.000
v 0.02421 -0.32839 2.70738 0.263 0.000 0.000
v 0.02969 -0.33089 2.70265 0.263 0.000 0.000
v 0.02236 -0.33988 2.69514 0.263 0.000 0.000
v 0.02548 -0.33482 2.69971 0.263 0.000 0.000
v 0.02368 -0.34600 2.68780 0.263 0.000 0.000
v 0.04427 -0.34637 2.68016 0.263 0.000 0.000
v 0.03267 -0.34870 2.68164 0.263 0.000 0.000
v 0.26814 0.17735 2.91674 0.263 0.000 0.000
v 0.28123 0.18020 2.90131 0.263 0.000 0.000
v 0.31205 0.11464 2.87397 0.839 0.000 0.000
v 0.29392 0.17501 2.89307 0.263 0.000 0.000
v 0.26412 0.16225 2.93348 0.263 0.000 0.000
v 0.29341 0.20232 2.87059 0.263 0.000 0.000
v 0.29028 0.18950 2.88448 0.263 0.000 0.000
v 0.30622 0.20783 2.85318 0.263 0.000 0.000
v 0.32218 0.20101 2.84308 0.263 0.000 0.000
v 0.33499 0.18785 2.84144 0.263 0.000 0.000
v 0.34228 0.17293 2.84681 0.263 0.000 0.000
v 0.36553 0.17050 2.82575 0.263 0.000 0.000
v 0.35233 0.17375 2.83610 0.263 0.000 0.000
v 0.38206 0.15685 2.82085 0.263 0.000 0.000
v 0.38524 0.11716 2.85115 0.263 0.000 0.000
v 0.36745 0.11527 2.87041 0.263 0.000 0.000
v 0.39020 0.13493 2.83122 0.263 0.000 0.000
v 0.26942 0.14290 2.94453 0.263 0.000 0.000
v 0.28318 0.12784 2.94354 0.263 0.000 0.000
v 0.29593 0.12146 2.93627 0.263 0.000 0.000
v 0.29745 0.09371 2.95814 0.263 0.000 0.000
v 0.29325 0.10985 2.94871 0.263 0.000 0.000
v 0.31114 0.07614 2.95936 0.263 0.000 0.000
v 0.32712 0.06844 2.94998 0.263 0.000 0.000
v 0.33938 0.07020 2.93630 0.263 0.000 0.000
v 0.34578 0.07891 2.92261 0.263 0.000 0.000
v 0.36964 0.05992 2.91492 0.263 0.000 0.000
v 0.35626 0.06874 2.92079 0.263 0.000 0.000
v 0.38571 0.05875 2.89994 0.263 0.000 0.000
v 0.38601 0.09686 2.86753 0.263 0.000 0.000
v 0.39247 0.07387 2.88045 0.263 0.000 0.000
v 0.04676 -0.17996 2.90858 0.263 0.000 0.000
v 0.07575 -0.17530 2.89962 0.263 0.000 0.000
v 0.09862 -0.21296 2.80444 0.839 0.000 0.000
v 0.09467 -0.18274 2.88675 0.263 0.000 0.000
v 0.02142 -0.20279 2.90390 0.263 0.000 0.000
v 0.12517 -0.14173 2.90144 0.263 0.000 0.000
v 0.10425 -0.16106 2.89723 0.263 0.000 0.000
v 0.15670 -0.13307 2.89406 0.263 0.000 0.000
v 0.18014 -0.14287 2.87777 0.263 0.000 0.000
v 0.19008 -0.16227 2.86065 0.263 0.000 0.000
v 0.18713 -0.18450 2.84702 0.263 0.000 0.000
v 0.22993 -0.18747 2.82721 0.263 0.000 0.000
v 0.20784 -0.18295 2.83945 0.263 0.000 0.000
v 0.24660 -0.20750 2.80688 0.263 0.000 0.000
v 0.20702 -0.26708 2.78361 0.263 0.000 0.000
v 0.17127 -0.26730 2.78644 0.263 0.000 0.000
v 0.23728 -0.24021 2.78892 0.263 0.000 0.000
v 0.00948 -0.23171 2.88956 0.263 0.000 0.000
v 0.01908 -0.25396 2.87071 0.263 0.000 0.000
v 0.03672 -0.26318 2.85719 0.263 0.000 0.000
v 0.00766 -0.30483 2.84150 0.263 0.000 0.000
v 0.01806 -0.28071 2.85327 0.263 0.000 0.000
v 0.01422 -0.33084 2.82139 0.263 0.000 0.000
v 0.03669 -0.34198 2.80460 0.263 0.000 0.000
v 0.06278 -0.33898 2.79572 0.263 0.000 0.000
v 0.08541 -0.32571 2.79515 0.263 0.000 0.000
v 0.11028 -0.35356 2.76619 0.263 0.000 0.000
v 0.09419 -0.34069 2.78149 0.263 0.000 0.000
v 0.14045 -0.35485 2.75274 0.263 0.000 0.000
v 0.18505 -0.29758 2.77240 0.263 0.000 0.000
v 0.17122 -0.33192 2.75522 0.263 0.000 0.000
v 0.32795 -0.15399 2.81909 0.263 0.000 0.000
v 0.33853 -0.15188 2.80748 0.263 0.000 0.000
v 0.32360 -0.18254 2.74975 0.839 0.000 0.000
v 0.34376 -0.15610 2.79704 0.263 0.000 0.000
v 0.31570 -0.16582 2.82411 0.263 0.000 0.000
v 0.36067 -0.13462 2.79470 0.263 0.000 0.000
v 0.35048 -0.14467 2.79871 0.263 0.000 0.000
v 0.37276 -0.13043 2.78307 0.263 0.000 0.000
v 0.37913 -0.13597 2.76998 0.263 0.000 0.000
v 0.37939 -0.14647 2.76026 0.263 0.000 0.000
v 0.37484 -0.15827 2.75549 0.263 0.000 0.000
v 0.38887 -0.16043 2.73568 0.263 0.000 0.000
v 0.38210 -0.15773 2.74673 0.263 0.000 0.000
v 0.39132 -0.17134 2.72279 0.263 0.000 0.000
v 0.36834 -0.20259 2.72408 0.263 0.000 0.000
v 0.35522 -0.20389 2.73965 0.263 0.000 0.000
v 0.38291 -0.18866 2.71798 0.263 0.000 0.000
v 0.30701 -0.18110 2.82150 0.263 0.000 0.000
v 0.30670 -0.19309 2.81115 0.263 0.000 0.000
v 0.31119 -0.19823 2.80080 0.263 0.000 0.000
v 0.29465 -0.22007 2.80233 0.263 0.000 0.000
v 0.30205 -0.20734 2.80429 0.263 0.000 0.000
v 0.29272 -0.23404 2.79230 0.263 0.000 0.000
v 0.29855 -0.24026 2.77929 0.263 0.000 0.000
v 0.30788 -0.23900 2.76851 0.263 0.000 0.000
v 0.31768 -0.23224 2.76208 0.263 0.000 0.000
v 0.32165 -0.24743 2.74343 0.263 0.000 0.000
v 0.31827 -0.24035 2.75409 0.263 0.000 0.000
v 0.33167 -0.24853 2.72966 0.263 0.000 0.000
v 0.35599 -0.21856 2.72552 0.263 0.000 0.000
v 0.34579 -0.23670 2.72227 0.263 0.000 0.000
v 0.11368 0.18824 2.93879 0.263 0.000 0.000
v 0.12612 0.19372 2.93411 0.263 0.000 0.000
v 0.15942 0.15739 2.91146 0.839 0.000 0.000
v 0.13702 0.19215 2.93179 0.263 0.000 0.000
v 0.10779 0.17426 2.94421 0.263 0.000 0.000
v 0.14050 0.21564 2.92433 0.263 0.000 0.000
v 0.13578 0.20385 2.92883 0.263 0.000 0.000
v 0.15307 0.22334 2.91897 0.263 0.000 0.000
v 0.16673 0.22111 2.91613 0.263 0.000 0.000
v 0.17659 0.21267 2.91600 0.263 0.000 0.000
v 0.16991 0.18220 2.91238 0.263 0.000 0.000
v 0.18111 0.20142 2.91798 0.263 0.000 0.000
v 0.20209 0.20466 2.91175 0.263 0.000 0.000
v 0.19047 0.20446 2.91478 0.263 0.000 0.000
v 0.21528 0.19667 2.91065 0.263 0.000 0.000
v 0.21245 0.16306 2.92077 0.263 0.000 0.000
v 0.19585 0.15734 2.92658 0.263 0.000 0.000
v 0.21959 0.17957 2.91434 0.263 0.000 0.000
v 0.10985 0.15872 2.94802 0.263 0.000 0.000
v 0.12030 0.14886 2.94813 0.263 0.000 0.000
v 0.13107 0.14627 2.94611 0.263 0.000 0.000
v 0.12844 0.12262 2.95340 0.263 0.000 0.000
v 0.12693 0.13561 2.95015 0.263 0.000 0.000
v 0.13846 0.11056 2.95425 0.263 0.000 0.000
v 0.15202 0.10755 2.95162 0.263 0.000 0.000
v 0.16352 0.11191 2.94750 0.263 0.000 0.000
v 0.17067 0.12091 2.94316 0.263 0.000 0.000
v 0.18982 0.10996 2.94138 0.263 0.000 0.000
v 0.17880 0.11450 2.94287 0.263 0.000 0.000
v 0.20439 0.11263 2.93692 0.263 0.000 0.000
v 0.21020 0.14566 2.92621 0.263 0.000 0.000
v 0.21281 0.12728 2.93069 0.263 0.000 0.000
v -0.14825 0.23996 2.92516 0.263 0.000 0.000
v -0.14610 0.26597 2.91800 0.263 0.000 0.000
v -0.05724 0.29790 2.88536 0.839 0.000 0.000
v -0.13388 0.28316 2.91584 0.263 0.000 0.000
v -0.13079 0.21762 2.93596 0.263 0.000 0.000
v -0.16887 0.30976 2.89957 0.263 0.000 0.000
v -0.15394 0.29135 2.90860 0.263 0.000 0.000
v -0.17022 0.33799 2.89091 0.263 0.000 0.000
v -0.15449 0.35930 2.88837 0.263 0.000 0.000
v -0.13207 0.36866 2.89098 0.263 0.000 0.000
v -0.10984 0.36646 2.89697 0.263 0.000 0.000
v -0.09648 0.40505 2.88875 0.263 0.000 0.000
v -0.10647 0.38507 2.89228 0.263 0.000 0.000
v -0.07181 0.42048 2.89010 0.263 0.000 0.000
v -0.01985 0.38608 2.91276 0.263 0.000 0.000
v -0.02530 0.35275 2.92131 0.263 0.000 0.000
v -0.04029 0.41278 2.89994 0.263 0.000 0.000
v -0.10381 0.20747 2.94545 0.263 0.000 0.000
v -0.07855 0.21658 2.94881 0.263 0.000 0.000
v -0.06480 0.23265 2.94737 0.263 0.000 0.000
v -0.02879 0.20734 2.96347 0.263 0.000 0.000
v -0.05119 0.21622 2.95549 0.263 0.000 0.000
v -0.00037 0.21380 2.96840 0.263 0.000 0.000
v 0.01651 0.23427 2.96640 0.263 0.000 0.000
v 0.01968 0.25769 2.96023 0.263 0.000 0.000
v 0.01143 0.27779 2.95229 0.263 0.000 0.000
v 0.04614 0.30078 2.95382 0.263 0.000 0.000
v 0.02900 0.28602 2.95407 0.263 0.000 0.000
v 0.05474 0.32796 2.94784 0.263 0.000 0.000
v 0.00634 0.36695 2.92469 0.263 0.000 0.000
v 0.03847 0.35519 2.93587 0.263 0.000 0.000
v -0.24960 -0.03706 2.83046 0.263 0.000 0.000
v -0.26617 -0.01940 2.81587 0.263 0.000 0.000
v -0.22411 0.07924 2.80512 0.839 0.000 0.000
v -0.27262 0.00139 2.81180 0.263 0.000 0.000
v -0.22734 -0.03593 2.85300 0.263 0.000 0.000
v -0.30504 -0.01195 2.77763 0.263 0.000 0.000
v -0.28646 -0.01057 2.79648 0.263 0.000 0.000
v -0.32455 0.00410 2.75989 0.263 0.000 0.000
v -0.33231 0.03037 2.75515 0.263 0.000 0.000
v -0.32925 0.05499 2.76109 0.263 0.000 0.000
v -0.31852 0.07243 2.77391 0.263 0.000 0.000
v -0.33887 0.10723 2.75751 0.263 0.000 0.000
v -0.32961 0.08662 2.76442 0.263 0.000 0.000
v -0.33896 0.13747 2.76095 0.263 0.000 0.000
v -0.29423 0.16038 2.80861 0.263 0.000 0.000
v -0.27413 0.13549 2.82593 0.263 0.000 0.000
v -0.32066 0.15939 2.78190 0.263 0.000 0.000
v -0.20930 -0.01933 2.87309 0.263 0.000 0.000
v -0.20490 0.00756 2.88065 0.263 0.000 0.000
v -0.20996 0.02896 2.87806 0.263 0.000 0.000
v -0.17799 0.04396 2.91197 0.263 0.000 0.000
v -0.19326 0.03044 2.89503 0.263 0.000 0.000
v -0.17049 0.07187 2.92277 0.263 0.000 0.000
v -0.17720 0.09860 2.91913 0.263 0.000 0.000
v -0.19161 0.11554 2.90660 0.263 0.000 0.000
v -0.20853 0.12083 2.89021 0.263 0.000 0.000
v -0.20950 0.16414 2.89429 0.263 0.000 0.000
v -0.20673 0.14067 2.89433 0.263 0.000 0.000
v -0.22417 0.18796 2.88230 0.263 0.000 0.000
v -0.27048 0.17084 2.83372 0.263 0.000 0.000
v -0.24923 0.19082 2.85743 0.263 0.000 0.000
v 0.06383 0.03913 2.93679 0.263 0.000 0.000
v 0.07074 0.03130 2.93665 0.263 0.000 0.000
v 0.05457 -0.00130 2.93742 0.839 0.000 0.000
v 0.07258 0.02362 2.93870 0.263 0.000 0.000
v 0.05305 0.04133 2.94073 0.263 0.000 0.000
v 0.08899 0.02430 2.93119 0.263 0.000 0.000
v 0.07996 0.02601 2.93454 0.263 0.000 0.000
v 0.09740 0.01669 2.93031 0.263 0.000 0.000
v 0.09954 0.00702 2.93296 0.263 0.000 0.000
v 0.09658 -0.00085 2.93719 0.263 0.000 0.000
v 0.09036 -0.00542 2.94163 0.263 0.000 0.000
v 0.09805 -0.01940 2.94343 0.263 0.000 0.000
v 0.09484 -0.01145 2.94190 0.263 0.000 0.000
v 0.09625 -0.02950 2.94799 0.263 0.000 0.000
v 0.07335 -0.03197 2.95902 0.263 0.000 0.000
v 0.06519 -0.02133 2.95866 0.263 0.000 0.000
v 0.08613 -0.03470 2.95439 0.263 0.000 0.000
v 0.04337 0.03789 2.94629 0.263 0.000 0.000
v 0.03962 0.02941 2.95108 0.263 0.000 0.000
v 0.04076 0.02169 2.95346 0.263 0.000 0.000
v 0.02447 0.02039 2.96114 0.263 0.000 0.000
v 0.03264 0.02313 2.95652 0.263 0.000 0.000
v 0.01917 0.01193 2.96662 0.263 0.000 0.000
v 0.02078 0.00223 2.96953 0.263 0.000 0.000
v 0.02668 -0.00509 2.96962 0.263 0.000 0.000
v 0.03451 -0.00882 2.96757 0.263 0.000 0.000
v 0.03235 -0.02340 2.97394 0.263 0.000 0.000
v 0.03244 -0.01523 2.97086 0.263 0.000 0.000
v 0.03797 -0.03305 2.97504 0.263 0.000 0.000
v 0.06129 -0.03271 2.96462 0.263 0.000 0.000
v 0.04985 -0.03690 2.97122 0.263 0.000 0.000
v -0.15108 -0.18526 2.78179 0.263 0.000 0.000
v -0.15444 -0.20214 2.75935 0.263 0.000 0.000
v -0.21715 -0.17219 2.69383 0.839 0.000 0.000
v -0.16670 -0.20810 2.74190 0.263 0.000 0.000
v -0.16615 -0.16150 2.79639 0.263 0.000 0.000
v -0.13555 -0.24322 2.72797 0.263 0.000 0.000
v -0.14847 -0.22336 2.73987 0.263 0.000 0.000
v -0.13576 -0.26327 2.70452 0.263 0.000 0.000
v -0.15151 -0.27040 2.68274 0.263 0.000 0.000
v -0.17284 -0.26606 2.66942 0.263 0.000 0.000
v -0.19340 -0.25389 2.66587 0.263 0.000 0.000
v -0.20784 -0.27403 2.63011 0.263 0.000 0.000
v -0.19751 -0.26507 2.64938 0.263 0.000 0.000
v -0.23159 -0.27281 2.61112 0.263 0.000 0.000
v -0.27811 -0.22419 2.62751 0.263 0.000 0.000
v -0.27130 -0.20387 2.65693 0.263 0.000 0.000
v -0.26049 -0.25238 2.60996 0.263 0.000 0.000
v -0.19071 -0.14157 2.79841 0.263 0.000 0.000
v -0.21468 -0.13570 2.78460 0.263 0.000 0.000
v -0.22830 -0.14017 2.76772 0.263 0.000 0.000
v -0.26046 -0.10548 2.78030 0.263 0.000 0.000
v -0.24010 -0.12233 2.77826 0.263 0.000 0.000
v -0.28723 -0.09626 2.76797 0.263 0.000 0.000
v -0.30399 -0.10226 2.74664 0.263 0.000 0.000
v -0.30816 -0.11686 2.72612 0.263 0.000 0.000
v -0.30154 -0.13466 2.71118 0.263 0.000 0.000
v -0.33502 -0.13379 2.68340 0.263 0.000 0.000
v -0.31831 -0.13189 2.70000 0.263 0.000 0.000
v -0.34444 -0.14839 2.65840 0.263 0.000 0.000
v -0.30146 -0.19845 2.63729 0.263 0.000 0.000
v -0.33072 -0.17494 2.63939 0.263 0.000 0.000
v -0.19009 -0.01487 2.84022 0.000 0.902 0.000
v -0.13702 -0.02727 2.91775 0.000 0.878 0.000
v -0.06743 -0.12618 2.95763 0.000 0.859 0.000
v -0.11328 -0.07234 2.94437 0.000 0.871 0.000
v 0.09702 -0.01170 2.92489 0.000 0.902 0.000
v 0.01064 -0.02565 2.96129 0.000 0.875 0.000
v -0.02282 -0.07135 2.97104 0.000 0.871 0.000
v -0.17238 -0.14733 2.78510 0.000 0.902 0.000
v -0.11644 -0.18113 2.85374 0.000 0.878 0.000
v -0.10105 -0.16378 2.90632 0.000 0.871 0.000
v 0.11474 -0.14416 2.86978 0.000 0.902 0.000
v 0.03122 -0.17951 2.89728 0.000 0.878 0.000
v -0.01059 -0.16277 2.93299 0.000 0.871 0.000
vt 0.00772 0.63565
vt 0.00772 0.76032
vt 0.13239 0.63565
vt 0.00772 0.47982
vt 0.13239 0.63565
vt 0.99370 0.99228
vt 0.69067 0.66576
vt 0.58967 0.66576
vt 0.49876 0.66576
vt 0.69067 0.55382
vt 0.58967 0.55382
vt 0.49876 0.55382
vt 0.26644 0.60046
vt 0.26644 0.46053
vt 0.87249 0.79637
vt 0.87249 0.60979
vt 0.80178 0.60979
vt 0.69067 0.45120
vt 0.58967 0.45120
vt 0.49876 0.45120
vt 0.69067 0.34858
vt 0.58967 0.34858
vt 0.49876 0.34858
vt 0.26644 0.34858
vt 0.69067 0.55382
vt 0.58967 0.55382
vt 0.49876 0.55382
vt 0.69067 0.45120
vt 0.58967 0.45120
vt 0.49876 0.45120
vt 0.26644 0.46053
vt 0.87249 0.55382
vt 0.87249 0.60979
vt 0.80178 0.34858
vt 0.80178 0.45120
vt 0.80178 0.45120
vt 0.80178 0.55382
vt 0.59977 0.99228
vt 0.59977 0.99228
vt 0.49876 0.99228
vt 0.00382 0.99228
vt 0.04422 0.99228
vt 0.14523 0.99228
vt 0.26644 0.99228
vt 0.69067 0.77771
vt 0.58967 0.76838
vt 0.49876 0.77771
vt 0.69067 0.66576
vt 0.58967 0.66576
vt 0.49876 0.66576
vt 0.69067 0.55382
vt 0.58967 0.55382
vt 0.49876 0.55382
vt 0.69067 0.45120
vt 0.58967 0.45120
vt 0.49876 0.45120
vt 0.69067 0.34858
vt 0.58967 0.34858
vt 0.49876 0.34858
vt 0.04422 0.88033
vt 0.14523 0.82436
vt 0.26644 0.84302
vt 0.26644 0.46053
vt 0.04422 0.34858
vt 0.14523 0.34858
vt 0.26644 0.34858
vt 0.69067 0.99228
vt 0.59977 0.99228
vt 0.49876 0.99228
vt 0.04422 0.99228
vt 0.14523 0.99228
vt 0.26644 0.99228
vt 0.69067 0.77771
vt 0.58967 0.76838
vt 0.49876 0.77771
vt 0.69067 0.66576
vt 0.58967 0.66576
vt 0.49876 0.66576
vt 0.69067 0.55382
vt 0.58967 0.55382
vt 0.49876 0.55382
vt 0.69067 0.45120
vt 0.58967 0.45120
vt 0.49876 0.45120
vt 0.04422 0.88033
vt 0.14523 0.82436
vt 0.26644 0.84302
vt 0.26644 0.46053
vt 0.69067 0.77771
vt 0.58967 0.76838
vt 0.49876 0.77771
vt 0.04422 0.88033
vt 0.14523 0.82436
vt 0.04422 0.34858
vt 0.14523 0.34858
vt 0.69067 0.77771
vt 0.58967 0.76838
vt 0.49876 0.77771
vt 0.69067 0.66576
vt 0.58967 0.66576
vt 0.49876 0.66576
vt 0.04422 0.88033
vt 0.14523 0.82436
vt 0.26644 0.84302
vt 0.87249 0.99228
vt 0.87249 0.79637
vt 0.87249 0.60979
vt 0.87249 0.55382
vt 0.87249 0.99228
vt 0.87249 0.79637
vt 0.87249 0.60979
vt 0.87249 0.79637
vt 0.80178 0.34858
vt 0.80178 0.60979
vt 0.80178 0.60979
vt 0.80178 0.45120
vt 0.80178 0.45120
vt 0.80178 0.99228
vt 0.80178 0.66576
vt 0.80178 0.66576
vt 0.00772 0.63565
vt 0.00772 0.76032
vt 0.13239 0.63565
vt 0.00772 0.47982
vt 0.13239 0.63565
vt 0.00772 0.63565
vt 0.00772 0.76032
vt 0.13239 0.63565
vt 0.00772 0.47982
vt 0.13239 0.63565
vt 0.00772 0.63565
vt 0.00772 0.76032
vt 0.13239 0.63565
vt 0.00772 0.47982
vt 0.13239 0.63565
vt 0.00772 0.63565
vt 0.00772 0.76032
vt 0.13239 0.63565
vt 0.00772 0.47982
vt 0.13239 0.63565
vt 0.00772 0.63565
vt 0.00772 0.76032
vt 0.13239 0.63565
vt 0.00772 0.47982
vt 0.13239 0.63565
vt 0.00772 0.63565
vt 0.00772 0.76032
vt 0.13239 0.63565
vt 0.00772 0.47982
vt 0.13239 0.63565
vt 0.00772 0.63565
vt 0.00772 0.76032
vt 0.13239 0.63565
vt 0.00772 0.47982
vt 0.13239 0.63565
vt 0.00772 0.63565
vt 0.00772 0.76032
vt 0.13239 0.63565
vt 0.00772 0.47982
vt 0.13239 0.63565
vt 0.05549 0.25530
vt 0.28924 0.34081
vt 0.99049 0.00808
vt 0.52299 0.31752
vt 0.00874 0.00808
vt 0.05549 0.25530
vt 0.28924 0.34081
vt 0.00874 0.00808
vt 0.05549 0.25530
vt 0.28924 0.34081
vt 0.52299 0.31752
vt 0.05549 0.25530
vt 0.28924 0.34081
vt 0.00874 0.00808
vt 0.28924 0.34081
vt 0.52299 0.31752
vt 0.05549 0.25530
vt 0.05549 0.25530
vt 0.28924 0.34081
vt 0.52299 0.31752
vt 0.05549 0.25530
vt 0.28924 0.34081
vt 0.00874 0.00808
vt 0.05549 0.25530
vt 0.28924 0.34081
vt 0.52299 0.31752
vt 0.05549 0.25530
vt 0.28924 0.34081
vt 0.00874 0.00808
vt 0.28924 0.34081
vt 0.05549 0.25530
vt 0.05549 0.25530
vt 0.28924 0.34081
vt 0.99049 0.00808
vt 0.52299 0.31752
vt 0.00874 0.00808
vt 0.05549 0.25530
vt 0.28924 0.34081
vt 0.00874 0.00808
vt 0.05549 0.25530
vt 0.28924 0.34081
vt 0.52299 0.31752
vt 0.05549 0.25530
vt 0.28924 0.34081
vt 0.00874 0.00808
vt 0.28924 0.34081
vt 0.52299 0.31752
vt 0.05549 0.25530
vt 0.05549 0.25530
vt 0.28924 0.34081
vt 0.52299 0.31752
vt 0.05549 0.25530
vt 0.28924 0.34081
vt 0.00874 0.00808
vt 0.05549 0.25530
vt 0.28924 0.34081
vt 0.52299 0.31752
vt 0.05549 0.25530
vt 0.28924 0.34081
vt 0.00874 0.00808
vt 0.28924 0.34081
vt 0.05549 0.25530
vt 0.05549 0.25530
vt 0.28924 0.34081
vt 0.99049 0.00808
vt 0.52299 0.31752
vt 0.00874 0.00808
vt 0.05549 0.25530
vt 0.28924 0.34081
vt 0.00874 0.00808
vt 0.05549 0.25530
vt 0.28924 0.34081
vt 0.52299 0.31752
vt 0.05549 0.25530
vt 0.28924 0.34081
vt 0.00874 0.00808
vt 0.28924 0.34081
vt 0.52299 0.31752
vt 0.05549 0.25530
vt 0.05549 0.25530
vt 0.28924 0.34081
vt 0.52299 0.31752
vt 0.05549 0.25530
vt 0.28924 0.34081
vt 0.00874 0.00808
vt 0.05549 0.25530
vt 0.28924 0.34081
vt 0.52299 0.31752
vt 0.05549 0.25530
vt 0.28924 0.34081
vt 0.00874 0.00808
vt 0.28924 0.34081
vt 0.05549 0.25530
vt 0.05549 0.25530
vt 0.28924 0.34081
vt 0.99049 0.00808
vt 0.52299 0.31752
vt 0.00874 0.00808
vt 0.05549 0.25530
vt 0.28924 0.34081
vt 0.00874 0.00808
vt 0.05549 0.25530
vt 0.28924 0.34081
vt 0.52299 0.31752
vt 0.05549 0.25530
vt 0.28924 0.34081
vt 0.00874 0.00808
vt 0.28924 0.34081
vt 0.52299 0.31752
vt 0.05549 0.25530
vt 0.05549 0.25530
vt 0.28924 0.34081
vt 0.52299 0.31752
vt 0.05549 0.25530
vt 0.28924 0.34081
vt 0.00874 0.00808
vt 0.05549 0.25530
vt 0.28924 0.34081
vt 0.52299 0.31752
vt 0.05549 0.25530
vt 0.28924 0.34081
vt 0.00874 0.00808
vt 0.28924 0.34081
vt 0.05549 0.25530
vt 0.05549 0.25530
vt 0.28924 0.34081
vt 0.99049 0.00808
vt 0.52299 0.31752
vt 0.00874 0.00808
vt 0.05549 0.25530
vt 0.28924 0.34081
vt 0.00874 0.00808
vt 0.05549 0.25530
vt 0.28924 0.34081
vt 0.69441 0.21275
vt 0.52299 0.31752
vt 0.05549 0.25530
vt 0.28924 0.34081
vt 0.00874 0.00808
vt 0.28924 0.34081
vt 0.52299 0.31752
vt 0.05549 0.25530
vt 0.05549 0.25530
vt 0.28924 0.34081
vt 0.52299 0.31752
vt 0.05549 0.25530
vt 0.28924 0.34081
vt 0.00874 0.00808
vt 0.05549 0.25530
vt 0.28924 0.34081
vt 0.52299 0.31752
vt 0.05549 0.25530
vt 0.28924 0.34081
vt 0.00874 0.00808
vt 0.28924 0.34081
vt 0.05549 0.25530
vt 0.05549 0.25530
vt 0.28924 0.34081
vt 0.99049 0.00808
vt 0.52299 0.31752
vt 0.00874 0.00808
vt 0.05549 0.25530
vt 0.28924 0.34081
vt 0.00874 0.00808
vt 0.05549 0.25530
vt 0.28924 0.34081
vt 0.52299 0.31752
vt 0.05549 0.25530
vt 0.28924 0.34081
vt 0.00874 0.00808
vt 0.28924 0.34081
vt 0.52299 0.31752
vt 0.05549 0.25530
vt 0.05549 0.25530
vt 0.28924 0.34081
vt 0.52299 0.31752
vt 0.05549 0.25530
vt 0.28924 0.34081
vt 0.00874 0.00808
vt 0.05549 0.25530
vt 0.28924 0.34081
vt 0.52299 0.31752
vt 0.05549 0.25530
vt 0.28924 0.34081
vt 0.00874 0.00808
vt 0.28924 0.34081
vt 0.05549 0.25530
vt 0.05549 0.25530
vt 0.28924 0.34081
vt 0.99049 0.00808
vt 0.52299 0.31752
vt 0.00874 0.00808
vt 0.05549 0.25530
vt 0.28924 0.34081
vt 0.00874 0.00808
vt 0.05549 0.25530
vt 0.28924 0.34081
vt 0.52299 0.31752
vt 0.05549 0.25530
vt 0.28924 0.34081
vt 0.00874 0.00808
vt 0.28924 0.34081
vt 0.52299 0.31752
vt 0.05549 0.25530
vt 0.05549 0.25530
vt 0.28924 0.34081
vt 0.52299 0.31752
vt 0.05549 0.25530
vt 0.28924 0.34081
vt 0.00874 0.00808
vt 0.05549 0.25530
vt 0.28924 0.34081
vt 0.52299 0.31752
vt 0.05549 0.25530
vt 0.28924 0.34081
vt 0.00874 0.00808
vt 0.28924 0.34081
vt 0.05549 0.25530
vt 0.05549 0.25530
vt 0.28924 0.34081
vt 0.99049 0.00808
vt 0.52299 0.31752
vt 0.00874 0.00808
vt 0.05549 0.25530
vt 0.28924 0.34081
vt 0.00874 0.00808
vt 0.05549 0.25530
vt 0.28924 0.34081
vt 0.52299 0.31752
vt 0.05549 0.25530
vt 0.28924 0.34081
vt 0.00874 0.00808
vt 0.28924 0.34081
vt 0.52299 0.31752
vt 0.05549 0.25530
vt 0.05549 0.25530
vt 0.28924 0.34081
vt 0.52299 0.31752
vt 0.05549 0.25530
vt 0.28924 0.34081
vt 0.00874 0.00808
vt 0.05549 0.25530
vt 0.28924 0.34081
vt 0.52299 0.31752
vt 0.05549 0.25530
vt 0.28924 0.34081
vt 0.00874 0.00808
vt 0.28924 0.34081
vt 0.05549 0.25530
vt 0.05549 0.25530
vt 0.28924 0.34081
vt 0.99049 0.00808
vt 0.52299 0.31752
vt 0.00874 0.00808
vt 0.05549 0.25530
vt 0.28924 0.34081
vt 0.00874 0.00808
vt 0.05549 0.25530
vt 0.28924 0.34081
vt 0.52299 0.31752
vt 0.05549 0.25530
vt 0.28924 0.34081
vt 0.00874 0.00808
vt 0.28924 0.34081
vt 0.52299 0.31752
vt 0.05549 0.25530
vt 0.05549 0.25530
vt 0.28924 0.34081
vt 0.52299 0.31752
vt 0.05549 0.25530
vt 0.28924 0.34081
vt 0.00874 0.00808
vt 0.05549 0.25530
vt 0.28924 0.34081
vt 0.52299 0.31752
vt 0.05549 0.25530
vt 0.28924 0.34081
vt 0.00874 0.00808
vt 0.28924 0.34081
vt 0.05549 0.25530
vt 0.26644 0.60046
vt 0.14523 0.46053
vt 0.00382 0.35791
vt 0.04422 0.46053
vt 0.26644 0.60046
vt 0.14523 0.46053
vt 0.04422 0.46053
vt 0.26644 0.84302
vt 0.14523 0.46053
vt 0.04422 0.46053
vt 0.26644 0.60046
vt 0.14523 0.46053
vt 0.04422 0.46053
usemtl m0
f 1/1 3/3 2/2
f 1/1 4/4 3/3
f 1/1 2/2 5/5
f 1/1 5/5 4/4
f 7/7 10/10 8/8
f 10/10 11/11 8/8
f 11/11 12/12 8/8
f 12/12 9/9 8/8
f 6/6 16/16 15/15
f 10/10 7/7 17/17
f 7/7 15/15 17/17
f 15/15 16/16 17/17
f 9/9 12/12 13/13
f 12/12 14/14 13/13
f 10/10 18/18 11/11
f 18/18 19/19 11/11
f 19/19 20/20 11/11
f 20/20 12/12 11/11
f 18/18 21/21 19/19
f 21/21 22/22 19/19
f 22/22 23/23 19/19
f 23/23 20/20 19/19
f 18/18 10/10 35/35
f 10/10 17/17 35/35
f 35/35 17/17 16/16
f 16/16 32/32 35/35
f 32/32 34/34 35/35
f 35/35 34/34 18/18
f 18/18 34/34 21/21
f 32/32 16/16 6/6
f 12/12 20/20 14/14
f 20/20 23/23 14/14
f 23/23 24/24 14/14
f 25/25 26/26 28/28
f 28/28 26/26 29/29
f 29/29 26/26 30/30
f 30/30 26/26 27/27
f 29/29 22/22 28/28
f 28/28 22/22 21/21
f 22/22 29/29 23/23
f 23/23 29/29 30/30
f 33/33 37/37 36/36
f 37/37 25/25 36/36
f 25/25 28/28 36/36
f 34/34 36/36 21/21
f 21/21 36/36 28/28
f 34/34 32/32 36/36
f 36/36 32/32 33/33
f 33/33 32/32 6/6
f 27/27 31/31 30/30
f 30/30 31/31 23/23
f 23/23 31/31 24/24
f 38/38 39/39 45/45
f 45/45 39/39 46/46
f 46/46 39/39 47/47
f 47/47 39/39 40/40
f 45/45 46/46 48/48
f 48/48 46/46 49/49
f 49/49 46/46 50/50
f 50/50 46/46 47/47
f 48/48 49/49 51/51
f 51/51 49/49 52/52
f 52/52 49/49 53/53
f 53/53 49/49 50/50
f 51/51 52/52 54/54
f 54/54 52/52 55/55
f 55/55 52/52 56/56
f 56/56 52/52 53/53
f 54/54 55/55 57/57
f 57/57 55/55 58/58
f 58/58 55/55 59/59
f 59/59 55/55 56/56
f 6/6 105/105 106/106
f 38/38 45/45 105/105
f 45/45 106/106 105/105
f 45/45 48/48 106/106
f 6/6 106/106 107/107
f 106/106 48/48 115/115
f 48/48 51/51 115/115
f 106/106 115/115 107/107
f 54/54 116/116 51/51
f 51/51 116/116 115/115
f 115/115 116/116 107/107
f 57/57 113/113 54/54
f 54/54 113/113 116/116
f 113/113 108/108 116/116
f 116/116 108/108 107/107
f 107/107 108/108 6/6
f 41/41 60/60 42/42
f 61/61 43/43 60/60
f 42/42 60/60 43/43
f 44/44 43/43 62/62
f 43/43 61/61 62/62
f 40/40 44/44 47/47
f 47/47 44/44 62/62
f 47/47 441/441 50/50
f 441/441 442/442 63/63
f 50/50 441/441 53/53
f 53/53 441/441 63/63
f 53/53 63/63 56/56
f 443/443 64/64 444/444
f 442/442 444/444 65/65
f 444/444 64/64 65/65
f 63/63 442/442 66/66
f 442/442 65/65 66/66
f 56/56 63/63 59/59
f 59/59 63/63 66/66
f 67/67 73/73 68/68
f 73/73 74/74 68/68
f 74/74 75/75 68/68
f 75/75 69/69 68/68
f 73/73 76/76 74/74
f 76/76 77/77 74/74
f 77/77 78/78 74/74
f 78/78 75/75 74/74
f 76/76 79/79 77/77
f 79/79 80/80 77/77
f 80/80 81/81 77/77
f 81/81 78/78 77/77
f 79/79 82/82 80/80
f 82/82 83/83 80/80
f 83/83 84/84 80/80
f 84/84 81/81 80/80
f 82/82 57/57 83/83
f 57/57 58/58 83/83
f 58/58 59/59 83/83
f 59/59 84/84 83/83
f 6/6 110/110 109/109
f 118/118 73/73 67/67
f 76/76 73/73 120/120
f 73/73 118/118 120/120
f 109/109 110/110 118/118
f 120/120 118/118 110/110
f 6/6 111/111 110/110
f 111/111 114/114 110/110
f 110/110 114/114 120/120
f 114/114 76/76 120/120
f 76/76 114/114 79/79
f 111/111 117/117 114/114
f 82/82 79/79 117/117
f 79/79 114/114 117/117
f 82/82 117/117 57/57
f 117/117 113/113 57/57
f 111/111 108/108 117/117
f 117/117 108/108 113/113
f 108/108 111/111 6/6
f 41/41 70/70 85/85
f 86/86 85/85 71/71
f 70/70 71/71 85/85
f 72/72 87/87 71/71
f 71/71 87/87 86/86
f 69/69 75/75 72/72
f 75/75 87/87 72/72
f 75/75 78/78 445/445
f 445/445 88/88 446/446
f 78/78 81/81 445/445
f 81/81 88/88 445/445
f 81/81 84/84 88/88
f 443/443 447/447 64/64
f 446/446 65/65 447/447
f 447/447 65/65 64/64
f 88/88 66/66 446/446
f 446/446 66/66 65/65
f 84/84 59/59 88/88
f 59/59 66/66 88/88
f 38/38 89/89 39/39
f 89/89 90/90 39/39
f 90/90 91/91 39/39
f 91/91 40/40 39/39
f 6/6 15/15 105/105
f 38/38 105/105 89/89
f 89/89 105/105 15/15
f 89/89 15/15 7/7
f 41/41 42/42 92/92
f 93/93 92/92 43/43
f 42/42 43/43 92/92
f 44/44 448/448 43/43
f 43/43 448/448 93/93
f 40/40 91/91 44/44
f 91/91 448/448 44/44
f 13/13 14/14 449/449
f 443/443 450/450 94/94
f 449/449 95/95 450/450
f 450/450 95/95 94/94
f 14/14 24/24 449/449
f 449/449 24/24 95/95
f 67/67 68/68 96/96
f 96/96 68/68 97/97
f 97/97 68/68 98/98
f 98/98 68/68 69/69
f 96/96 97/97 99/99
f 99/99 97/97 100/100
f 100/100 97/97 101/101
f 101/101 97/97 98/98
f 99/99 100/100 25/25
f 25/25 100/100 26/26
f 26/26 100/100 27/27
f 27/27 100/100 101/101
f 6/6 109/109 112/112
f 112/112 109/109 119/119
f 109/109 118/118 119/119
f 119/119 118/118 96/96
f 96/96 118/118 67/67
f 96/96 99/99 119/119
f 6/6 112/112 33/33
f 33/33 112/112 37/37
f 112/112 119/119 37/37
f 119/119 99/99 37/37
f 25/25 37/37 99/99
f 41/41 102/102 70/70
f 103/103 71/71 102/102
f 70/70 102/102 71/71
f 72/72 71/71 104/104
f 71/71 103/103 104/104
f 69/69 72/72 98/98
f 98/98 72/72 104/104
f 98/98 451/451 101/101
f 451/451 452/452 31/31
f 101/101 451/451 27/27
f 27/27 451/451 31/31
f 443/443 94/94 453/453
f 452/452 453/453 95/95
f 453/453 94/94 95/95
f 31/31 452/452 24/24
f 452/452 95/95 24/24
f 89/89 7/7 90/90
f 7/7 8/8 90/90
f 8/8 9/9 90/90
f 9/9 91/91 90/90
f 91/91 9/9 13/13
f 121/121 123/123 122/122
f 121/121 124/124 123/123
f 121/121 122/122 125/125
f 121/121 125/125 124/124
f 126/126 128/128 127/127
f 126/126 129/129 128/128
f 126/126 127/127 130/130
f 126/126 130/130 129/129
f 131/131 133/133 132/132
f 131/131 134/134 133/133
f 131/131 132/132 135/135
f 131/131 135/135 134/134
f 136/136 138/138 137/137
f 136/136 139/139 138/138
f 136/136 137/137 140/140
f 136/136 140/140 139/139
f 141/141 143/143 142/142
f 141/141 144/144 143/143
f 141/141 142/142 145/145
f 141/141 145/145 144/144
f 146/146 148/148 147/147
f 146/146 149/149 148/148
f 146/146 147/147 150/150
f 146/146 150/150 149/149
f 151/151 153/153 152/152
f 151/151 154/154 153/153
f 151/151 152/152 155/155
f 151/151 155/155 154/154
f 156/156 158/158 157/157
f 156/156 159/159 158/158
f 156/156 157/157 160/160
f 156/156 160/160 159/159
f 161/161 163/163 162/162
f 162/162 163/163 164/164
f 165/165 163/163 161/161
f 166/166 167/167 163/163
f 167/167 164/164 163/163
f 168/168 166/166 163/163
f 169/169 163/163 170/170
f 170/170 163/163 171/171
f 168/168 163/163 169/169
f 172/172 173/173 163/163
f 173/173 171/171 163/163
f 174/174 172/172 163/163
f 175/175 163/163 176/176
f 177/177 163/163 175/175
f 174/174 163/163 177/177
f 178/178 179/179 163/163
f 179/179 180/180 163/163
f 165/165 178/178 163/163
f 181/181 163/163 182/182
f 182/182 163/163 180/180
f 183/183 163/163 181/181
f 184/184 185/185 163/163
f 185/185 186/186 163/163
f 183/183 184/184 163/163
f 187/187 163/163 188/188
f 188/188 163/163 186/186
f 189/189 163/163 187/187
f 190/190 176/176 163/163
f 191/191 190/190 163/163
f 189/189 191/191 163/163
f 192/192 194/194 193/193
f 193/193 194/194 195/195
f 196/196 194/194 192/192
f 197/197 198/198 194/194
f 198/198 195/195 194/194
f 199/199 197/197 194/194
f 200/200 194/194 201/201
f 201/201 194/194 202/202
f 199/199 194/194 200/200
f 203/203 204/204 194/194
f 204/204 202/202 194/194
f 205/205 203/203 194/194
f 206/206 194/194 207/207
f 208/208 194/194 206/206
f 205/205 194/194 208/208
f 209/209 210/210 194/194
f 210/210 211/211 194/194
f 196/196 209/209 194/194
f 212/212 194/194 213/213
f 213/213 194/194 211/211
f 214/214 194/194 212/212
f 215/215 216/216 194/194
f 216/216 217/217 194/194
f 214/214 215/215 194/194
f 218/218 194/194 219/219
f 219/219 194/194 217/217
f 220/220 194/194 218/218
f 221/221 207/207 194/194
f 222/222 221/221 194/194
f 220/220 222/222 194/194
f 223/223 225/225 224/224
f 224/224 225/225 226/226
f 227/227 225/225 223/223
f 228/228 229/229 225/225
f 229/229 226/226 225/225
f 230/230 228/228 225/225
f 231/231 225/225 232/232
f 232/232 225/225 233/233
f 230/230 225/225 231/231
f 234/234 235/235 225/225
f 235/235 233/233 225/225
f 236/236 234/234 225/225
f 237/237 225/225 238/238
f 239/239 225/225 237/237
f 236/236 225/225 239/239
f 240/240 241/241 225/225
f 241/241 242/242 225/225
f 227/227 240/240 225/225
f 243/243 225/225 244/244
f 244/244 225/225 242/242
f 245/245 225/225 243/243
f 246/246 247/247 225/225
f 247/247 248/248 225/225
f 245/245 246/246 225/225
f 249/249 225/225 250/250
f 250/250 225/225 248/248
f 251/251 225/225 249/249
f 252/252 238/238 225/225
f 253/253 252/252 225/225
f 251/251 253/253 225/225
f 254/254 256/256 255/255
f 255/255 256/256 257/257
f 258/258 256/256 254/254
f 259/259 260/260 256/256
f 260/260 257/257 256/256
f 261/261 259/259 256/256
f 262/262 256/256 263/263
f 263/263 256/256 264/264
f 261/261 256/256 262/262
f 265/265 266/266 256/256
f 266/266 264/264 256/256
f 267/267 265/265 256/256
f 268/268 256/256 269/269
f 270/270 256/256 268/268
f 267/267 256/256 270/270
f 271/271 272/272 256/256
f 272/272 273/273 256/256
f 258/258 271/271 256/256
f 274/274 256/256 275/275
f 275/275 256/256 273/273
f 276/276 256/256 274/274
f 277/277 278/278 256/256
f 278/278 279/279 256/256
f 276/276 277/277 256/256
f 280/280 256/256 281/281
f 281/281 256/256 279/279
f 282/282 256/256 280/280
f 283/283 269/269 256/256
f 284/284 283/283 256/256
f 282/282 284/284 256/256
f 285/285 287/287 286/286
f 286/286 287/287 288/288
f 289/289 287/287 285/285
f 290/290 291/291 287/287
f 291/291 288/288 287/287
f 292/292 290/290 287/287
f 293/293 287/287 294/294
f 294/294 287/287 296/296
f 287/287 295/295 296/296
f 292/292 287/287 293/293
f 297/297 298/298 287/287
f 298/298 296/296 287/287
f 299/299 297/297 287/287
f 300/300 287/287 301/301
f 302/302 287/287 300/300
f 299/299 287/287 302/302
f 303/303 304/304 287/287
f 304/304 305/305 287/287
f 289/289 303/303 287/287
f 306/306 287/287 307/307
f 307/307 287/287 305/305
f 308/308 287/287 306/306
f 309/309 310/310 287/287
f 310/310 311/311 287/287
f 308/308 309/309 287/287
f 312/312 287/287 313/313
f 313/313 287/287 311/311
f 314/314 287/287 312/312
f 315/315 301/301 287/287
f 316/316 315/315 287/287
f 314/314 316/316 287/287
f 317/317 319/319 318/318
f 318/318 319/319 320/320
f 321/321 319/319 317/317
f 322/322 323/323 319/319
f 323/323 320/320 319/319
f 324/324 322/322 319/319
f 325/325 319/319 326/326
f 326/326 319/319 327/327
f 324/324 319/319 325/325
f 328/328 329/329 319/319
f 329/329 327/327 319/319
f 330/330 328/328 319/319
f 331/331 319/319 332/332
f 333/333 319/319 331/331
f 330/330 319/319 333/333
f 334/334 335/335 319/319
f 335/335 336/336 319/319
f 321/321 334/334 319/319
f 337/337 319/319 338/338
f 338/338 319/319 336/336
f 339/339 319/319 337/337
f 340/340 341/341 319/319
f 341/341 342/342 319/319
f 339/339 340/340 319/319
f 343/343 319/319 344/344
f 344/344 319/319 342/342
f 345/345 319/319 343/343
f 346/346 332/332 319/319
f 347/347 346/346 319/319
f 345/345 347/347 319/319
f 348/348 350/350 349/349
f 349/349 350/350 351/351
f 352/352 350/350 348/348
f 353/353 354/354 350/350
f 354/354 351/351 350/350
f 355/355 353/353 350/350
f 356/356 350/350 357/357
f 357/357 350/350 358/358
f 355/355 350/350 356/356
f 359/359 360/360 350/350
f 360/360 358/358 350/350
f 361/361 359/359 350/350
f 362/362 350/350 363/363
f 364/364 350/350 362/362
f 361/361 350/350 364/364
f 365/365 366/366 350/350
f 366/366 367/367 350/350
f 352/352 365/365 350/350
f 368/368 350/350 369/369
f 369/369 350/350 367/367
f 370/370 350/350 368/368
f 371/371 372/372 350/350
f 372/372 373/373 350/350
f 370/370 371/371 350/350
f 374/374 350/350 375/375
f 375/375 350/350 373/373
f 376/376 350/350 374/374
f 377/377 363/363 350/350
f 378/378 377/377 350/350
f 376/376 378/378 350/350
f 379/379 381/381 380/380
f 380/380 381/381 382/382
f 383/383 381/381 379/379
f 384/384 385/385 381/381
f 385/385 382/382 381/381
f 386/386 384/384 381/381
f 387/387 381/381 388/388
f 388/388 381/381 389/389
f 386/386 381/381 387/387
f 390/390 391/391 381/381
f 391/391 389/389 381/381
f 392/392 390/390 381/381
f 393/393 381/381 394/394
f 395/395 381/381 393/393
f 392/392 381/381 395/395
f 396/396 397/397 381/381
f 397/397 398/398 381/381
f 383/383 396/396 381/381
f 399/399 381/381 400/400
f 400/400 381/381 398/398
f 401/401 381/381 399/399
f 402/402 403/403 381/381
f 403/403 404/404 381/381
f 401/401 402/402 381/381
f 405/405 381/381 406/406
f 406/406 381/381 404/404
f 407/407 381/381 405/405
f 408/408 394/394 381/381
f 409/409 408/408 381/381
f 407/407 409/409 381/381
f 410/410 412/412 411/411
f 411/411 412/412 413/413
f 414/414 412/412 410/410
f 415/415 416/416 412/412
f 416/416 413/413 412/412
f 417/417 415/415 412/412
f 418/418 412/412 419/419
f 419/419 412/412 420/420
f 417/417 412/412 418/418
f 421/421 422/422 412/412
f 422/422 420/420 412/412
f 423/423 421/421 412/412
f 424/424 412/412 425/425
f 426/426 412/412 424/424
f 423/423 412/412 426/426
f 427/427 428/428 412/412
f 428/428 429/429 412/412
f 414/414 427/427 412/412
f 430/430 412/412 431/431
f 431/431 412/412 429/429
f 432/432 412/412 430/430
f 433/433 434/434 412/412
f 434/434 435/435 412/412
f 432/432 433/433 412/412
f 436/436 412/412 437/437
f 437/437 412/412 435/435
f 438/438 412/412 436/436
f 439/439 425/425 412/412
f 440/440 439/439 412/412
f 438/438 440/440 412/412
