mtllib options423.mtl
o options423
v 0.19260 0.00000 1.86840 0.000 0.000 0.863
v 0.20592 -0.02988 1.85184 0.000 0.000 0.824
v 0.20592 0.00000 1.86156 0.000 0.000 0.804
v 0.19260 -0.03384 1.85742 0.000 0.000 0.882
v 0.19260 -0.05472 1.82862 0.000 0.000 0.902
v 0.20592 -0.04824 1.82646 0.000 0.000 0.843
v 0.19260 -0.05472 1.79298 0.000 0.000 0.922
v 0.20592 -0.04824 1.79514 0.000 0.000 0.863
v 0.20592 -0.02988 1.76976 0.000 0.000 0.843
v 0.19260 -0.03384 1.76418 0.000 0.000 0.902
v 0.19260 0.00000 1.75320 0.000 0.000 0.863
v 0.20592 0.00000 1.76004 0.000 0.000 0.804
v 0.19260 -0.02592 1.84662 0.000 0.000 0.882
v 0.19260 0.00000 1.85508 0.000 0.000 0.863
v 0.19260 -0.04212 1.82448 0.000 0.000 0.902
v 0.19260 -0.04212 1.79712 0.000 0.000 0.922
v 0.19260 -0.02592 1.77498 0.000 0.000 0.902
v 0.19260 0.00000 1.76652 0.000 0.000 0.863
v 0.20592 0.02988 1.76976 0.000 0.000 0.843
v 0.19260 0.03384 1.76418 0.000 0.000 0.902
v 0.19260 0.05472 1.79298 0.000 0.000 0.922
v 0.20592 0.04824 1.79514 0.000 0.000 0.863
v 0.20592 0.04824 1.82646 0.000 0.000 0.843
v 0.19260 0.05472 1.82862 0.000 0.000 0.902
v 0.20592 0.02988 1.85184 0.000 0.000 0.824
v 0.19260 0.03384 1.85742 0.000 0.000 0.882
v 0.19260 0.02592 1.84662 0.000 0.000 0.882
v 0.19260 0.04212 1.82448 0.000 0.000 0.902
v 0.19260 0.04212 1.79712 0.000 0.000 0.922
v 0.19260 0.02592 1.77498 0.000 0.000 0.902
v 0.19170 -0.12366 1.81998 0.000 0.000 0.824
v 0.20502 -0.07236 1.80540 0.000 0.000 0.863
v 0.20214 -0.07596 1.82088 0.000 0.000 0.824
v 0.20358 -0.08370 1.79442 0.000 0.000 0.863
v 0.19728 -0.09252 1.83150 0.000 0.000 0.804
v 0.19926 -0.10350 1.79406 0.000 0.000 0.863
v 0.19296 -0.11232 1.83114 0.000 0.000 0.804
v 0.19440 -0.12006 1.80468 0.000 0.000 0.863
v 0.20196 -0.08748 1.80198 0.000 0.000 0.922
v 0.21330 -0.08046 1.80144 0.000 0.000 0.922
v 0.20052 -0.09054 1.80990 0.000 0.000 0.863
v 0.21546 -0.08244 1.80936 0.000 0.000 0.824
v 0.21330 -0.07938 1.81692 0.000 0.000 0.902
v 0.20052 -0.08640 1.81746 0.000 0.000 0.922
v 0.22266 -0.06264 1.80792 0.000 0.000 0.824
v 0.21960 -0.06318 1.80018 0.000 0.000 0.902
v 0.21960 -0.06210 1.81566 0.000 0.000 0.902
v 0.21330 -0.04500 1.81458 0.000 0.000 0.902
v 0.21546 -0.04302 1.80666 0.000 0.000 0.843
v 0.21330 -0.04608 1.79910 0.000 0.000 0.902
v 0.19800 -0.03492 1.80612 0.000 0.000 0.824
v 0.19800 -0.03798 1.81404 0.000 0.000 0.902
v 0.18288 -0.04500 1.81458 0.000 0.000 0.902
v 0.18054 -0.04302 1.80666 0.000 0.000 0.843
v 0.17334 -0.06264 1.80792 0.000 0.000 0.855
v 0.17658 -0.06210 1.81566 0.000 0.000 0.902
v 0.18414 -0.07938 1.81692 0.000 0.000 0.922
v 0.18414 -0.08244 1.80936 0.000 0.000 0.863
v 0.18558 -0.08046 1.80144 0.000 0.000 0.922
v 0.17658 -0.06318 1.80018 0.000 0.000 0.902
v 0.18288 -0.04608 1.79910 0.000 0.000 0.902
v 0.19800 -0.03906 1.79856 0.000 0.000 0.902
v 0.20214 0.07596 1.82088 0.000 0.000 0.824
v 0.20502 0.07236 1.80540 0.000 0.000 0.863
v 0.19170 0.12366 1.81998 0.000 0.000 0.824
v 0.20358 0.08370 1.79442 0.000 0.000 0.863
v 0.19728 0.09252 1.83150 0.000 0.000 0.804
v 0.19926 0.10350 1.79406 0.000 0.000 0.863
v 0.19296 0.11232 1.83114 0.000 0.000 0.804
v 0.19440 0.12006 1.80468 0.000 0.000 0.863
v 0.20052 0.09054 1.80990 0.000 0.000 0.863
v 0.21330 0.08046 1.80144 0.000 0.000 0.922
v 0.20196 0.08748 1.80198 0.000 0.000 0.922
v 0.21546 0.08244 1.80936 0.000 0.000 0.824
v 0.21330 0.07938 1.81692 0.000 0.000 0.902
v 0.20052 0.08640 1.81746 0.000 0.000 0.922
v 0.22266 0.06264 1.80792 0.000 0.000 0.824
v 0.21960 0.06318 1.80018 0.000 0.000 0.902
v 0.21960 0.06210 1.81566 0.000 0.000 0.902
v 0.21330 0.04500 1.81458 0.000 0.000 0.902
v 0.21546 0.04302 1.80666 0.000 0.000 0.843
v 0.21330 0.04608 1.79910 0.000 0.000 0.902
v 0.19800 0.03492 1.80612 0.000 0.000 0.824
v 0.19800 0.03798 1.81404 0.000 0.000 0.902
v 0.18288 0.04500 1.81458 0.000 0.000 0.902
v 0.18054 0.04302 1.80666 0.000 0.000 0.843
v 0.17334 0.06264 1.80792 0.000 0.000 0.855
v 0.17658 0.06210 1.81566 0.000 0.000 0.902
v 0.18414 0.07938 1.81692 0.000 0.000 0.922
v 0.18414 0.08244 1.80936 0.000 0.000 0.863
v 0.18558 0.08046 1.80144 0.000 0.000 0.922
v 0.17658 0.06318 1.80018 0.000 0.000 0.902
v 0.18288 0.04608 1.79910 0.000 0.000 0.902
v 0.19800 0.03906 1.79856 0.000 0.000 0.902
v -0.20502 -0.10134 1.81692 0.922 0.000 0.000
v -0.26352 -0.13050 1.71846 0.875 0.000 0.000
v -0.15192 -0.26136 1.73682 0.875 0.000 0.000
v -0.31302 -0.30510 1.48320 0.824 0.000 0.000
v -0.37854 -0.21654 1.46106 0.863 0.000 0.000
v -0.34560 -0.33138 1.40994 0.804 0.000 0.000
v -0.20916 -0.34920 1.52100 0.882 0.000 0.000
v -0.23526 -0.37944 1.44918 0.863 0.000 0.000
v -0.19350 -0.41130 1.45620 0.843 0.000 0.000
v -0.18324 -0.37728 1.52676 0.863 0.000 0.000
v -0.37044 -0.18216 1.46448 0.882 0.000 0.000
v -0.41742 -0.10836 1.45134 0.855 0.000 0.000
v -0.10944 -0.41832 1.56978 0.831 0.000 0.000
v -0.12204 -0.46188 1.50930 0.816 0.000 0.000
v 0.00000 -0.48564 1.55520 0.804 0.000 0.000
v 0.00000 -0.30906 1.76454 0.863 0.000 0.000
v -0.11844 -0.21780 1.82052 0.914 0.000 0.000
v 0.00000 -0.43236 1.60542 0.824 0.000 0.000
v 0.09054 -0.41742 1.58022 0.863 0.000 0.000
v 0.09990 -0.46062 1.52010 0.843 0.000 0.000
v 0.00000 -0.25866 1.82520 0.902 0.000 0.000
v 0.11070 -0.38664 1.55772 0.882 0.000 0.000
v 0.12474 -0.42480 1.49256 0.863 0.000 0.000
v 0.18846 -0.37728 1.54422 0.824 0.000 0.000
v 0.10638 -0.23274 1.81638 0.890 0.000 0.000
v 0.26136 -0.32634 1.53072 0.863 0.000 0.000
v 0.20718 -0.41058 1.47420 0.804 0.000 0.000
v 0.28584 -0.35172 1.45782 0.843 0.000 0.000
v 0.26640 -0.29538 1.53324 0.882 0.000 0.000
v 0.29358 -0.31698 1.45890 0.863 0.000 0.000
v 0.34092 -0.31086 1.43784 0.843 0.000 0.000
v 0.31104 -0.28242 1.51362 0.863 0.000 0.000
v 0.35514 -0.21762 1.48878 0.824 0.000 0.000
v 0.39798 -0.23400 1.41048 0.804 0.000 0.000
v 0.41202 -0.15012 1.39392 0.824 0.000 0.000
v 0.36810 -0.14184 1.47474 0.843 0.000 0.000
v 0.17370 -0.16182 1.80450 0.890 0.000 0.000
v 0.19134 -0.09342 1.79352 0.890 0.000 0.000
v -0.29268 0.00000 1.70982 0.863 0.000 0.000
v -0.44100 0.00000 1.44162 0.824 0.000 0.000
v -0.27810 -0.06516 1.71414 0.863 0.000 0.000
v -0.49068 0.00000 1.36440 0.804 0.000 0.000
v -0.46368 -0.11754 1.37484 0.831 0.000 0.000
v -0.40842 -0.19620 1.38834 0.863 0.000 0.000
v -0.41580 -0.23508 1.38528 0.843 0.000 0.000
v -0.22554 0.00000 1.81404 0.914 0.000 0.000
v -0.41742 0.10836 1.45134 0.855 0.000 0.000
v -0.46368 0.11754 1.37484 0.831 0.000 0.000
v -0.27810 0.06516 1.71414 0.863 0.000 0.000
v -0.26352 0.13050 1.71846 0.875 0.000 0.000
v -0.37044 0.18216 1.46448 0.882 0.000 0.000
v -0.40842 0.19620 1.38834 0.863 0.000 0.000
v -0.41580 0.23508 1.38528 0.843 0.000 0.000
v -0.37854 0.21654 1.46106 0.863 0.000 0.000
v -0.31302 0.30510 1.48320 0.824 0.000 0.000
v -0.34560 0.33138 1.40994 0.804 0.000 0.000
v -0.15192 0.26136 1.73682 0.875 0.000 0.000
v -0.20502 0.10134 1.81692 0.922 0.000 0.000
v -0.20916 0.34920 1.52100 0.882 0.000 0.000
v -0.23526 0.37944 1.44918 0.863 0.000 0.000
v -0.19350 0.41130 1.45620 0.843 0.000 0.000
v -0.18324 0.37728 1.52676 0.863 0.000 0.000
v -0.10944 0.41832 1.56978 0.831 0.000 0.000
v -0.12204 0.46188 1.50930 0.816 0.000 0.000
v 0.00000 0.48564 1.55520 0.804 0.000 0.000
v 0.00000 0.30906 1.76454 0.863 0.000 0.000
v -0.11844 0.21780 1.82052 0.914 0.000 0.000
v 0.00000 0.43236 1.60542 0.824 0.000 0.000
v 0.09054 0.41742 1.58022 0.863 0.000 0.000
v 0.09990 0.46062 1.52010 0.843 0.000 0.000
v 0.00000 0.25866 1.82520 0.902 0.000 0.000
v 0.11070 0.38664 1.55772 0.882 0.000 0.000
v 0.12474 0.42480 1.49256 0.863 0.000 0.000
v 0.18846 0.37728 1.54422 0.824 0.000 0.000
v 0.10638 0.23274 1.81638 0.890 0.000 0.000
v 0.26136 0.32634 1.53072 0.863 0.000 0.000
v 0.20718 0.41058 1.47420 0.804 0.000 0.000
v 0.28584 0.35172 1.45782 0.843 0.000 0.000
v 0.26640 0.29538 1.53324 0.882 0.000 0.000
v 0.29358 0.31698 1.45890 0.863 0.000 0.000
v 0.34092 0.31086 1.43784 0.843 0.000 0.000
v 0.31104 0.28242 1.51362 0.863 0.000 0.000
v 0.35514 0.21762 1.48878 0.824 0.000 0.000
v 0.39798 0.23400 1.41048 0.804 0.000 0.000
v 0.41202 0.15012 1.39392 0.824 0.000 0.000
v 0.36810 0.14184 1.47474 0.843 0.000 0.000
v 0.17370 0.16182 1.80450 0.890 0.000 0.000
v 0.19134 0.09342 1.79352 0.890 0.000 0.000
v -0.23076 -0.05220 1.80324 0.000 0.804 0.000
v -0.24192 0.00000 1.79550 0.000 0.804 0.000
v -0.21834 0.00000 1.87560 0.000 0.812 0.000
v -0.21114 -0.05940 1.87596 0.000 0.788 0.000
v -0.20718 -0.05220 1.95156 0.000 0.796 0.000
v -0.21330 0.00000 1.95894 0.000 0.788 0.000
v -0.23076 0.05220 1.80324 0.000 0.804 0.000
v -0.21114 0.05940 1.87596 0.000 0.788 0.000
v -0.20718 0.05220 1.95156 0.000 0.796 0.000
v -0.24516 0.00000 1.96992 0.000 0.753 0.000
v -0.25164 -0.05940 1.88334 0.000 0.753 0.000
v -0.22266 -0.05220 1.95948 0.000 0.769 0.000
v -0.27990 0.00000 1.88640 0.000 0.725 0.000
v -0.25056 -0.05220 1.80468 0.000 0.769 0.000
v -0.21330 0.00000 1.95894 0.000 0.788 0.000
v -0.20718 -0.05220 1.95156 0.000 0.796 0.000
v -0.25164 0.05940 1.88334 0.000 0.753 0.000
v -0.22266 0.05220 1.95948 0.000 0.769 0.000
v -0.20718 0.05220 1.95156 0.000 0.796 0.000
v -0.26568 0.00000 1.79946 0.000 0.753 0.000
v -0.24192 0.00000 1.79550 0.000 0.804 0.000
v -0.23076 -0.05220 1.80324 0.000 0.804 0.000
v -0.25056 0.05220 1.80468 0.000 0.769 0.000
v -0.23076 0.05220 1.80324 0.000 0.804 0.000
v -0.25164 -0.05940 1.88334 0.000 0.753 0.000
v -0.23076 -0.05220 1.80324 0.000 0.804 0.000
v -0.21114 -0.05940 1.87596 0.000 0.788 0.000
v -0.25056 -0.05220 1.80468 0.000 0.769 0.000
v -0.20718 -0.05220 1.95156 0.000 0.796 0.000
v -0.22266 -0.05220 1.95948 0.000 0.769 0.000
v -0.21114 0.05940 1.87596 0.000 0.788 0.000
v -0.23076 0.05220 1.80324 0.000 0.804 0.000
v -0.25164 0.05940 1.88334 0.000 0.753 0.000
v -0.25056 0.05220 1.80468 0.000 0.769 0.000
v -0.20718 0.05220 1.95156 0.000 0.796 0.000
v -0.22266 0.05220 1.95948 0.000 0.769 0.000
v -0.24264 -0.05256 1.81170 0.000 0.827 0.000
v -0.32724 -0.05616 1.70442 0.000 0.788 0.000
v -0.30564 -0.13680 1.71126 0.000 0.761 0.000
v -0.51840 -0.07686 1.43748 0.000 0.753 0.000
v -0.23328 -0.09756 1.80450 0.000 0.812 0.000
v -0.21294 -0.05850 1.87596 0.000 0.812 0.000
v -0.53856 -0.23310 1.35756 0.000 0.710 0.000
v -0.57996 -0.07362 1.34838 0.000 0.737 0.000
v -0.47862 -0.30600 1.38186 0.000 0.710 0.000
v -0.26514 -0.19350 1.71828 0.000 0.769 0.000
v -0.37260 -0.30996 1.48428 0.000 0.753 0.000
v -0.22392 -0.14256 1.79712 0.000 0.812 0.000
v -0.40698 -0.35730 1.41336 0.000 0.737 0.000
v -0.30564 0.13680 1.71126 0.000 0.761 0.000
v -0.32724 0.05616 1.70442 0.000 0.788 0.000
v -0.24264 0.05256 1.81170 0.000 0.827 0.000
v -0.51840 0.07686 1.43748 0.000 0.753 0.000
v -0.23328 0.09756 1.80450 0.000 0.812 0.000
v -0.21294 0.05850 1.87596 0.000 0.812 0.000
v -0.53856 0.23310 1.35756 0.000 0.710 0.000
v -0.57996 0.07362 1.34838 0.000 0.737 0.000
v -0.47862 0.30600 1.38186 0.000 0.710 0.000
v -0.26514 0.19350 1.71828 0.000 0.769 0.000
v -0.37260 0.30996 1.48428 0.000 0.753 0.000
v -0.22392 0.14256 1.79712 0.000 0.812 0.000
v -0.40698 0.35730 1.41336 0.000 0.737 0.000
v -0.21294 -0.05850 1.87596 0.000 0.812 0.000
v -0.25398 -0.16668 1.76706 0.000 0.804 0.000
v -0.24264 -0.04986 1.81170 0.000 0.820 0.000
v -0.25218 -0.30420 1.80216 0.000 0.769 0.000
v -0.23508 -0.30834 1.87974 0.000 0.753 0.000
v -0.22734 -0.30420 1.95930 0.000 0.753 0.000
v -0.21816 -0.16668 1.99314 0.000 0.776 0.000
v -0.21510 -0.04986 1.94904 0.000 0.804 0.000
v -0.22662 -0.29268 2.01744 0.000 0.753 0.000
v -0.26946 -0.29268 1.74654 0.000 0.769 0.000
v -0.24894 -0.05760 1.88154 0.000 0.776 0.000
v -0.25488 -0.16128 2.00556 0.000 0.753 0.000
v -0.29376 -0.16056 1.89000 0.000 0.710 0.000
v -0.29232 -0.16128 1.76922 0.000 0.769 0.000
v -0.28908 -0.26676 1.75140 0.000 0.737 0.000
v -0.28098 -0.27774 1.88748 0.000 0.694 0.000
v -0.24660 -0.26676 2.02014 0.000 0.718 0.000
v -0.26946 -0.29268 1.74654 0.000 0.769 0.000
v -0.25218 -0.30420 1.80216 0.000 0.769 0.000
v -0.23508 -0.30834 1.87974 0.000 0.753 0.000
v -0.22734 -0.30420 1.95930 0.000 0.753 0.000
v -0.22662 -0.29268 2.01744 0.000 0.753 0.000
v -0.24264 0.04986 1.81170 0.000 0.820 0.000
v -0.25398 0.16668 1.76706 0.000 0.804 0.000
v -0.21294 0.05850 1.87596 0.000 0.812 0.000
v -0.25218 0.30420 1.80216 0.000 0.769 0.000
v -0.23508 0.30834 1.87974 0.000 0.753 0.000
v -0.22734 0.30420 1.95930 0.000 0.753 0.000
v -0.21816 0.16668 1.99314 0.000 0.776 0.000
v -0.21510 0.04986 1.94904 0.000 0.804 0.000
v -0.22662 0.29268 2.01744 0.000 0.753 0.000
v -0.26946 0.29268 1.74654 0.000 0.769 0.000
v -0.25488 0.16128 2.00556 0.000 0.753 0.000
v -0.24894 0.05760 1.88154 0.000 0.776 0.000
v -0.29376 0.16056 1.89000 0.000 0.710 0.000
v -0.29232 0.16128 1.76922 0.000 0.769 0.000
v -0.28908 0.26676 1.75140 0.000 0.737 0.000
v -0.28098 0.27774 1.88748 0.000 0.694 0.000
v -0.24660 0.26676 2.02014 0.000 0.718 0.000
v -0.26946 0.29268 1.74654 0.000 0.769 0.000
v -0.25218 0.30420 1.80216 0.000 0.769 0.000
v -0.23508 0.30834 1.87974 0.000 0.753 0.000
v -0.22734 0.30420 1.95930 0.000 0.753 0.000
v -0.22662 0.29268 2.01744 0.000 0.753 0.000
v -0.24660 -0.26676 2.02014 0.000 0.718 0.000
v -0.21816 -0.16668 1.99314 0.000 0.776 0.000
v -0.25488 -0.16128 2.00556 0.000 0.753 0.000
v -0.21510 -0.04986 1.94904 0.000 0.804 0.000
v -0.22662 -0.29268 2.01744 0.000 0.753 0.000
v -0.25398 -0.16668 1.76706 0.000 0.804 0.000
v -0.28908 -0.26676 1.75140 0.000 0.737 0.000
v -0.29232 -0.16128 1.76922 0.000 0.769 0.000
v -0.24264 -0.04986 1.81170 0.000 0.820 0.000
v -0.26946 -0.29268 1.74654 0.000 0.769 0.000
v -0.25488 0.16128 2.00556 0.000 0.753 0.000
v -0.21816 0.16668 1.99314 0.000 0.776 0.000
v -0.24660 0.26676 2.02014 0.000 0.718 0.000
v -0.21510 0.04986 1.94904 0.000 0.804 0.000
v -0.22662 0.29268 2.01744 0.000 0.753 0.000
v -0.29232 0.16128 1.76922 0.000 0.769 0.000
v -0.28908 0.26676 1.75140 0.000 0.737 0.000
v -0.25398 0.16668 1.76706 0.000 0.804 0.000
v -0.24264 0.04986 1.81170 0.000 0.820 0.000
v -0.26946 0.29268 1.74654 0.000 0.769 0.000
v 0.08856 -0.23994 1.86084 0.000 0.745 0.000
v 0.10494 -0.23778 1.84410 0.000 0.678 0.000
v 0.09270 -0.23652 1.86534 0.000 0.745 0.000
v 0.10908 -0.23418 1.84860 0.000 0.678 0.000
v 0.12456 -0.22770 1.83132 0.000 0.745 0.000
v 0.12042 -0.23112 1.82682 0.000 0.745 0.000
v 0.11790 -0.22140 1.86372 0.000 0.745 0.000
v 0.10890 -0.23454 1.84356 0.000 0.702 0.000
v 0.12276 -0.22050 1.85850 0.000 0.745 0.000
v 0.10422 -0.23562 1.84860 0.000 0.702 0.000
v 0.09036 -0.24714 1.83348 0.000 0.745 0.000
v 0.09504 -0.24624 1.82844 0.000 0.745 0.000
v 0.08586 -0.22770 1.89846 0.000 0.745 0.000
v 0.10224 -0.22662 1.88154 0.000 0.678 0.000
v 0.09000 -0.22392 1.90260 0.000 0.745 0.000
v 0.10638 -0.22284 1.88586 0.000 0.678 0.000
v 0.12186 -0.21744 1.86822 0.000 0.745 0.000
v 0.11772 -0.22122 1.86408 0.000 0.745 0.000
v 0.11340 -0.21006 1.89936 0.000 0.745 0.000
v 0.10620 -0.22356 1.88082 0.000 0.702 0.000
v 0.11826 -0.20934 1.89432 0.000 0.745 0.000
v 0.10152 -0.22410 1.88586 0.000 0.702 0.000
v 0.08766 -0.23670 1.87164 0.000 0.745 0.000
v 0.09234 -0.23616 1.86660 0.000 0.745 0.000
v 0.09270 0.23652 1.86534 0.000 0.745 0.000
v 0.10494 0.23778 1.84410 0.000 0.678 0.000
v 0.08856 0.23994 1.86084 0.000 0.745 0.000
v 0.10908 0.23418 1.84860 0.000 0.678 0.000
v 0.12456 0.22770 1.83132 0.000 0.745 0.000
v 0.12042 0.23112 1.82682 0.000 0.745 0.000
v 0.12276 0.22050 1.85850 0.000 0.745 0.000
v 0.10890 0.23454 1.84356 0.000 0.702 0.000
v 0.11790 0.22140 1.86372 0.000 0.745 0.000
v 0.10422 0.23562 1.84860 0.000 0.702 0.000
v 0.09036 0.24714 1.83348 0.000 0.745 0.000
v 0.09504 0.24624 1.82844 0.000 0.745 0.000
v 0.09000 0.22392 1.90260 0.000 0.745 0.000
v 0.10224 0.22662 1.88154 0.000 0.678 0.000
v 0.08586 0.22770 1.89846 0.000 0.745 0.000
v 0.10638 0.22284 1.88586 0.000 0.678 0.000
v 0.12186 0.21744 1.86822 0.000 0.745 0.000
v 0.11772 0.22122 1.86408 0.000 0.745 0.000
v 0.11826 0.20934 1.89432 0.000 0.745 0.000
v 0.10620 0.22356 1.88082 0.000 0.702 0.000
v 0.11340 0.21006 1.89936 0.000 0.745 0.000
v 0.10152 0.22410 1.88586 0.000 0.702 0.000
v 0.08766 0.23670 1.87164 0.000 0.745 0.000
v 0.09234 0.23616 1.86660 0.000 0.745 0.000
v 0.15822 -0.16902 1.90062 0.000 0.710 0.000
v 0.18324 -0.16758 1.80000 0.000 0.753 0.000
v 0.18198 -0.11160 1.88964 0.000 0.694 0.000
v 0.11268 -0.24300 1.81278 0.000 0.753 0.000
v 0.19134 -0.09900 1.84734 0.000 0.718 0.000
v 0.09918 -0.21564 1.91394 0.000 0.718 0.000
v 0.00000 -0.24156 1.92528 0.000 0.745 0.000
v 0.00000 -0.27126 1.82196 0.000 0.776 0.000
v 0.20070 -0.07920 1.82574 0.000 0.718 0.000
v 0.20502 -0.07920 1.79046 0.000 0.769 0.000
v -0.10908 -0.20088 1.93230 0.000 0.761 0.000
v -0.12348 -0.22752 1.81692 0.000 0.796 0.000
v -0.18612 -0.11844 1.93770 0.000 0.776 0.000
v -0.20484 -0.13446 1.81242 0.000 0.812 0.000
v -0.21654 0.00000 1.94130 0.000 0.769 0.000
v -0.23562 0.00000 1.81062 0.000 0.812 0.000
v -0.19836 0.00000 1.93788 0.000 0.827 0.000
v -0.16776 -0.10962 1.93464 0.000 0.827 0.000
v -0.10134 -0.18594 1.93050 0.000 0.812 0.000
v 0.00000 -0.22428 1.92456 0.000 0.796 0.000
v 0.08748 -0.19962 1.91430 0.000 0.769 0.000
v 0.14364 -0.15660 1.90314 0.000 0.761 0.000
v -0.18522 -0.12294 1.81440 0.000 0.835 0.000
v -0.21510 0.00000 1.81242 0.000 0.855 0.000
v -0.11358 -0.20934 1.81818 0.000 0.863 0.000
v 0.00000 -0.24876 1.82250 0.000 0.847 0.000
v 0.10134 -0.22320 1.81386 0.000 0.827 0.000
v 0.16614 -0.15822 1.80252 0.000 0.804 0.000
v 0.18720 -0.07740 1.79316 0.000 0.827 0.000
v 0.16470 -0.10800 1.89378 0.000 0.761 0.000
v 0.18306 -0.07650 1.82952 0.000 0.769 0.000
v 0.18720 -0.07740 1.79316 0.000 0.827 0.000
v 0.17388 -0.09576 1.85166 0.000 0.796 0.000
v 0.16470 -0.10800 1.89378 0.000 0.761 0.000
v 0.14364 -0.15660 1.90314 0.000 0.761 0.000
v 0.16614 -0.15822 1.80252 0.000 0.804 0.000
v 0.10134 -0.22320 1.81386 0.000 0.827 0.000
v 0.08748 -0.19962 1.91430 0.000 0.769 0.000
v 0.00000 -0.22428 1.92456 0.000 0.796 0.000
v 0.00000 -0.24876 1.82250 0.000 0.847 0.000
v -0.11358 -0.20934 1.81818 0.000 0.863 0.000
v -0.10134 -0.18594 1.93050 0.000 0.812 0.000
v -0.16776 -0.10962 1.93464 0.000 0.827 0.000
v -0.18522 -0.12294 1.81440 0.000 0.835 0.000
v -0.19836 0.00000 1.93788 0.000 0.827 0.000
v -0.21510 0.00000 1.81242 0.000 0.855 0.000
v 0.16470 -0.10800 1.89378 0.000 0.761 0.000
v 0.17388 -0.09576 1.85166 0.000 0.796 0.000
v 0.18306 -0.07650 1.82952 0.000 0.769 0.000
v 0.18720 -0.07740 1.79316 0.000 0.827 0.000
v -0.18522 0.12294 1.81440 0.000 0.835 0.000
v -0.16776 0.10962 1.93464 0.000 0.827 0.000
v -0.11358 0.20934 1.81818 0.000 0.863 0.000
v -0.10134 0.18594 1.93050 0.000 0.812 0.000
v 0.00000 0.22428 1.92456 0.000 0.796 0.000
v 0.00000 0.24876 1.82250 0.000 0.847 0.000
v 0.10134 0.22320 1.81386 0.000 0.827 0.000
v 0.08748 0.19962 1.91430 0.000 0.769 0.000
v 0.14364 0.15660 1.90314 0.000 0.761 0.000
v 0.16614 0.15822 1.80252 0.000 0.804 0.000
v 0.16470 0.10800 1.89378 0.000 0.761 0.000
v 0.17388 0.09576 1.85166 0.000 0.796 0.000
v 0.18306 0.07650 1.82952 0.000 0.769 0.000
v 0.18720 0.07740 1.79316 0.000 0.827 0.000
v 0.18198 0.11160 1.88964 0.000 0.694 0.000
v 0.18324 0.16758 1.80000 0.000 0.753 0.000
v 0.15822 0.16902 1.90062 0.000 0.710 0.000
v 0.11268 0.24300 1.81278 0.000 0.753 0.000
v 0.19134 0.09900 1.84734 0.000 0.718 0.000
v 0.09918 0.21564 1.91394 0.000 0.718 0.000
v 0.00000 0.24156 1.92528 0.000 0.745 0.000
v 0.00000 0.27126 1.82196 0.000 0.776 0.000
v 0.20070 0.07920 1.82574 0.000 0.718 0.000
v 0.20502 0.07920 1.79046 0.000 0.769 0.000
v -0.10908 0.20088 1.93230 0.000 0.761 0.000
v -0.12348 0.22752 1.81692 0.000 0.796 0.000
v -0.18612 0.11844 1.93770 0.000 0.776 0.000
v -0.20484 0.13446 1.81242 0.000 0.812 0.000
v -0.16776 0.10962 1.93464 0.000 0.827 0.000
v -0.10134 0.18594 1.93050 0.000 0.812 0.000
v 0.00000 0.22428 1.92456 0.000 0.796 0.000
v 0.08748 0.19962 1.91430 0.000 0.769 0.000
v 0.14364 0.15660 1.90314 0.000 0.761 0.000
v -0.18522 0.12294 1.81440 0.000 0.835 0.000
v -0.11358 0.20934 1.81818 0.000 0.863 0.000
v 0.00000 0.24876 1.82250 0.000 0.847 0.000
v 0.10134 0.22320 1.81386 0.000 0.827 0.000
v 0.16614 0.15822 1.80252 0.000 0.804 0.000
v 0.18720 0.07740 1.79316 0.000 0.827 0.000
v 0.16470 0.10800 1.89378 0.000 0.761 0.000
v 0.18306 0.07650 1.82952 0.000 0.769 0.000
v 0.18720 0.07740 1.79316 0.000 0.827 0.000
v 0.17388 0.09576 1.85166 0.000 0.796 0.000
v 0.16470 0.10800 1.89378 0.000 0.761 0.000
v 0.20718 -0.41058 1.47420 0.000 0.000 0.784
v 0.28584 -0.35172 1.45782 0.000 0.000 0.784
v 0.26658 -0.33282 1.52946 0.000 0.000 0.784
v 0.27180 -0.30132 1.53216 0.000 0.000 0.784
v 0.29358 -0.31698 1.45890 0.000 0.000 0.784
v 0.34092 -0.31086 1.43784 0.000 0.000 0.784
v 0.31716 -0.28818 1.51200 0.000 0.000 0.784
v 0.19224 -0.38484 1.54332 0.000 0.000 0.784
v 0.12474 -0.42480 1.49256 0.000 0.000 0.784
v 0.11286 -0.39438 1.55700 0.000 0.000 0.784
v 0.09990 -0.46062 1.52010 0.000 0.000 0.784
v 0.09252 -0.42588 1.58004 0.000 0.000 0.784
v 0.00000 -0.48564 1.55520 0.000 0.000 0.784
v 0.00000 -0.44100 1.60578 0.000 0.000 0.784
v -0.11160 -0.42678 1.56924 0.000 0.000 0.784
v -0.12204 -0.46188 1.50930 0.000 0.000 0.784
v -0.18684 -0.38484 1.52550 0.000 0.000 0.784
v -0.19350 -0.41130 1.45620 0.000 0.000 0.784
v -0.21348 -0.35622 1.51956 0.000 0.000 0.784
v -0.23526 -0.37944 1.44918 0.000 0.000 0.784
v -0.31932 -0.31122 1.48104 0.000 0.000 0.784
v -0.34560 -0.33138 1.40994 0.000 0.000 0.784
v -0.38610 -0.22086 1.45854 0.000 0.000 0.784
v -0.41580 -0.23508 1.38528 0.000 0.000 0.784
v -0.37800 -0.18594 1.46196 0.000 0.000 0.784
v -0.40842 -0.19620 1.38834 0.000 0.000 0.784
v -0.46368 -0.11754 1.37484 0.000 0.000 0.784
v -0.42570 -0.11052 1.44846 0.000 0.000 0.784
v -0.49068 0.00000 1.36440 0.000 0.000 0.784
v -0.44982 0.00000 1.43856 0.000 0.000 0.784
v -0.42570 0.11052 1.44846 0.000 0.000 0.784
v -0.46368 0.11754 1.37484 0.000 0.000 0.784
v -0.37800 0.18594 1.46196 0.000 0.000 0.784
v -0.40842 0.19620 1.38834 0.000 0.000 0.784
v -0.41580 0.23508 1.38528 0.000 0.000 0.784
v -0.38610 0.22086 1.45854 0.000 0.000 0.784
v -0.34560 0.33138 1.40994 0.000 0.000 0.784
v -0.31932 0.31122 1.48104 0.000 0.000 0.784
v -0.23526 0.37944 1.44918 0.000 0.000 0.784
v -0.21348 0.35622 1.51956 0.000 0.000 0.784
v -0.19350 0.41130 1.45620 0.000 0.000 0.784
v -0.18684 0.38484 1.52550 0.000 0.000 0.784
v -0.12204 0.46188 1.50930 0.000 0.000 0.784
v -0.11160 0.42678 1.56924 0.000 0.000 0.784
v 0.00000 0.48564 1.55520 0.000 0.000 0.784
v 0.00000 0.44100 1.60578 0.000 0.000 0.784
v 0.09252 0.42588 1.58004 0.000 0.000 0.784
v 0.09990 0.46062 1.52010 0.000 0.000 0.784
v 0.11286 0.39438 1.55700 0.000 0.000 0.784
v 0.12474 0.42480 1.49256 0.000 0.000 0.784
v 0.19224 0.38484 1.54332 0.000 0.000 0.784
v 0.20718 0.41058 1.47420 0.000 0.000 0.784
v 0.26658 0.33282 1.52946 0.000 0.000 0.784
v 0.28584 0.35172 1.45782 0.000 0.000 0.784
v 0.27180 0.30132 1.53216 0.000 0.000 0.784
v 0.29358 0.31698 1.45890 0.000 0.000 0.784
v 0.34092 0.31086 1.43784 0.000 0.000 0.784
v 0.31716 0.28818 1.51200 0.000 0.000 0.784
v 0.36216 0.22194 1.48662 0.000 0.000 0.784
v 0.39798 0.23400 1.41048 0.000 0.000 0.784
v 0.41202 0.15012 1.39392 0.000 0.000 0.784
v 0.37548 0.14472 1.47240 0.000 0.000 0.784
v 0.39798 -0.23400 1.41048 0.000 0.000 0.784
v 0.36216 -0.22194 1.48662 0.000 0.000 0.784
v 0.41202 -0.15012 1.39392 0.000 0.000 0.784
v 0.37548 -0.14472 1.47240 0.000 0.000 0.784
vt 0.99267 0.75776
vt 0.93327 0.78896
vt 0.99267 0.78896
vt 0.93327 0.75776
vt 0.87387 0.75776
vt 0.87387 0.78896
vt 0.81447 0.75776
vt 0.81447 0.78896
vt 0.75507 0.78896
vt 0.75507 0.75776
vt 0.69567 0.75776
vt 0.69567 0.78896
vt 0.93327 0.82016
vt 0.99267 0.82016
vt 0.87387 0.82016
vt 0.81447 0.82016
vt 0.75507 0.82016
vt 0.69567 0.82016
vt 0.75507 0.78896
vt 0.75507 0.75776
vt 0.81447 0.75776
vt 0.81447 0.78896
vt 0.87387 0.78896
vt 0.87387 0.75776
vt 0.93327 0.78896
vt 0.93327 0.75776
vt 0.93327 0.82016
vt 0.87387 0.82016
vt 0.81447 0.82016
vt 0.75507 0.82016
vt 0.89850 0.51300
vt 0.89850 0.74250
vt 0.99300 0.74250
vt 0.99300 0.74250
vt 0.99300 0.67066
vt 0.99300 0.67066
vt 0.99300 0.56800
vt 0.99300 0.56800
vt 0.89850 0.44512
vt 0.94033 0.44512
vt 0.89850 0.49237
vt 0.94033 0.49237
vt 0.94033 0.44512
vt 0.89850 0.44512
vt 0.99269 0.49237
vt 0.99269 0.44512
vt 0.99269 0.44512
vt 0.94389 0.44512
vt 0.94389 0.49237
vt 0.94389 0.44512
vt 0.89850 0.49237
vt 0.89850 0.44512
vt 0.94389 0.44512
vt 0.94389 0.49237
vt 0.99269 0.49237
vt 0.99269 0.44512
vt 0.89850 0.44512
vt 0.89850 0.49237
vt 0.89850 0.44512
vt 0.99269 0.44512
vt 0.94389 0.44512
vt 0.89850 0.44512
vt 0.99300 0.74250
vt 0.89850 0.74250
vt 0.89850 0.51300
vt 0.99300 0.74250
vt 0.99300 0.67066
vt 0.99300 0.67066
vt 0.99300 0.56800
vt 0.99300 0.56800
vt 0.89850 0.49237
vt 0.94033 0.44512
vt 0.89850 0.44512
vt 0.94033 0.49237
vt 0.94033 0.44512
vt 0.89850 0.44512
vt 0.99269 0.49237
vt 0.99269 0.44512
vt 0.99269 0.44512
vt 0.94389 0.44512
vt 0.94389 0.49237
vt 0.94389 0.44512
vt 0.89850 0.49237
vt 0.89850 0.44512
vt 0.94389 0.44512
vt 0.94389 0.49237
vt 0.99269 0.49237
vt 0.99269 0.44512
vt 0.89850 0.44512
vt 0.89850 0.49237
vt 0.89850 0.44512
vt 0.99269 0.44512
vt 0.94389 0.44512
vt 0.89850 0.44512
vt 0.27500 0.42990
vt 0.27500 0.32130
vt 0.74581 0.32130
vt 0.52444 0.07300
vt 0.35203 0.07300
vt 0.52368 0.00800
vt 0.72969 0.07300
vt 0.73227 0.00800
vt 0.79506 0.00800
vt 0.78856 0.07300
vt 0.27500 0.07300
vt 0.41859 0.07300
vt 0.90794 0.07300
vt 0.89868 0.00800
vt 0.99265 0.00800
vt 0.99265 0.32130
vt 0.75002 0.42990
vt 0.99265 0.07300
vt 0.84092 0.07300
vt 0.83664 0.00800
vt 0.99265 0.42990
vt 0.77109 0.07300
vt 0.76967 0.00800
vt 0.54772 0.07300
vt 0.61243 0.42990
vt 0.32309 0.07300
vt 0.55060 0.00800
vt 0.30696 0.00800
vt 0.27279 0.07300
vt 0.27719 0.00800
vt 0.21874 0.00800
vt 0.22956 0.07300
vt 0.11768 0.07300
vt 0.11227 0.00800
vt 0.00580 0.00800
vt 0.00580 0.07300
vt 0.24565 0.42990
vt 0.00580 0.42990
vt 0.50758 0.32130
vt 0.50758 0.07300
vt 0.41634 0.32130
vt 0.50758 0.00800
vt 0.41607 0.00800
vt 0.27500 0.00800
vt 0.35500 0.00800
vt 0.49268 0.42990
vt 0.41859 0.07300
vt 0.41607 0.00800
vt 0.41634 0.32130
vt 0.27500 0.32130
vt 0.27500 0.07300
vt 0.27500 0.00800
vt 0.35500 0.00800
vt 0.35203 0.07300
vt 0.52444 0.07300
vt 0.52368 0.00800
vt 0.74581 0.32130
vt 0.27500 0.42990
vt 0.72969 0.07300
vt 0.73227 0.00800
vt 0.79506 0.00800
vt 0.78856 0.07300
vt 0.90794 0.07300
vt 0.89868 0.00800
vt 0.99265 0.00800
vt 0.99265 0.32130
vt 0.75002 0.42990
vt 0.99265 0.07300
vt 0.84092 0.07300
vt 0.83664 0.00800
vt 0.99265 0.42990
vt 0.77109 0.07300
vt 0.76967 0.00800
vt 0.54772 0.07300
vt 0.61243 0.42990
vt 0.32309 0.07300
vt 0.55060 0.00800
vt 0.30696 0.00800
vt 0.27279 0.07300
vt 0.27719 0.00800
vt 0.21874 0.00800
vt 0.22956 0.07300
vt 0.11768 0.07300
vt 0.11227 0.00800
vt 0.00580 0.00800
vt 0.00580 0.07300
vt 0.24565 0.42990
vt 0.00580 0.42990
vt 0.63239 0.83650
vt 0.63239 0.75800
vt 0.58878 0.75800
vt 0.58878 0.83650
vt 0.41500 0.83650
vt 0.41500 0.75800
vt 0.63239 0.83650
vt 0.58878 0.83650
vt 0.41500 0.83650
vt 0.41416 0.75800
vt 0.52278 0.83650
vt 0.41416 0.83650
vt 0.52278 0.75800
vt 0.63290 0.83650
vt 0.36700 0.75800
vt 0.36700 0.83650
vt 0.52278 0.83650
vt 0.41416 0.83650
vt 0.36700 0.83650
vt 0.63290 0.75800
vt 0.68039 0.75800
vt 0.68039 0.83650
vt 0.63290 0.83650
vt 0.68039 0.83650
vt 0.61720 0.78000
vt 0.58718 0.82371
vt 0.61720 0.82371
vt 0.58718 0.78000
vt 0.49329 0.82371
vt 0.49329 0.78000
vt 0.61720 0.82371
vt 0.58718 0.82371
vt 0.61720 0.78000
vt 0.58718 0.78000
vt 0.49329 0.82371
vt 0.49329 0.78000
vt 0.34276 0.99223
vt 0.44179 0.99223
vt 0.44610 0.89418
vt 0.73883 0.99223
vt 0.35556 0.93432
vt 0.30124 0.99223
vt 0.83670 0.83157
vt 0.83656 0.99223
vt 0.83670 0.91120
vt 0.46495 0.99223
vt 0.73853 0.99223
vt 0.36836 0.99223
vt 0.83656 0.99223
vt 0.44610 0.89418
vt 0.44179 0.99223
vt 0.34276 0.99223
vt 0.73883 0.99223
vt 0.35556 0.93432
vt 0.30124 0.99223
vt 0.83670 0.83157
vt 0.83656 0.99223
vt 0.83670 0.91120
vt 0.46495 0.99223
vt 0.73853 0.99223
vt 0.36836 0.99223
vt 0.83656 0.99223
vt 0.17974 0.99282
vt 0.32263 0.89664
vt 0.28310 0.99282
vt 0.28440 0.76056
vt 0.17974 0.76056
vt 0.07925 0.76056
vt 0.03704 0.89664
vt 0.07819 0.99282
vt 0.00755 0.76056
vt 0.35462 0.76056
vt 0.17974 0.99282
vt 0.02473 0.86864
vt 0.17974 0.89636
vt 0.33709 0.86864
vt 0.35462 0.79324
vt 0.17974 0.80039
vt 0.00755 0.79324
vt 0.35462 0.75793
vt 0.28440 0.75793
vt 0.17974 0.75793
vt 0.07925 0.75793
vt 0.00755 0.75793
vt 0.28310 0.99282
vt 0.32263 0.89664
vt 0.17974 0.99282
vt 0.28440 0.76056
vt 0.17974 0.76056
vt 0.07925 0.76056
vt 0.03704 0.89664
vt 0.07819 0.99282
vt 0.00755 0.76056
vt 0.35462 0.76056
vt 0.02473 0.86864
vt 0.17974 0.99282
vt 0.17974 0.88964
vt 0.33709 0.86864
vt 0.35462 0.79324
vt 0.17974 0.80039
vt 0.00755 0.79324
vt 0.35462 0.75793
vt 0.28440 0.75793
vt 0.17974 0.75793
vt 0.07925 0.75793
vt 0.00755 0.75793
vt 0.36618 0.86087
vt 0.44550 0.88522
vt 0.44550 0.84608
vt 0.34966 0.87125
vt 0.34796 0.88676
vt 0.44550 0.88522
vt 0.36618 0.86087
vt 0.44550 0.84608
vt 0.34966 0.87125
vt 0.34796 0.88676
vt 0.44550 0.84608
vt 0.44550 0.88522
vt 0.36618 0.86087
vt 0.34966 0.87125
vt 0.34796 0.88676
vt 0.44550 0.84608
vt 0.36618 0.86087
vt 0.44550 0.88522
vt 0.34966 0.87125
vt 0.34796 0.88676
vt 0.99150 0.82982
vt 0.85200 0.82982
vt 0.99150 0.90427
vt 0.85200 0.90427
vt 0.99150 0.90427
vt 0.99150 0.82982
vt 0.99150 0.90427
vt 0.85200 0.82982
vt 0.99150 0.82982
vt 0.85200 0.90427
vt 0.99150 0.90427
vt 0.99150 0.82982
vt 0.99150 0.82982
vt 0.85200 0.82982
vt 0.99150 0.90427
vt 0.85200 0.90427
vt 0.99150 0.90427
vt 0.99150 0.82982
vt 0.99150 0.90427
vt 0.85200 0.82982
vt 0.99150 0.82982
vt 0.85200 0.90427
vt 0.99150 0.90427
vt 0.99150 0.82982
vt 0.99150 0.90427
vt 0.85200 0.82982
vt 0.99150 0.82982
vt 0.85200 0.90427
vt 0.99150 0.90427
vt 0.99150 0.82982
vt 0.99150 0.82982
vt 0.85200 0.82982
vt 0.99150 0.90427
vt 0.85200 0.90427
vt 0.99150 0.90427
vt 0.99150 0.82982
vt 0.99150 0.90427
vt 0.85200 0.82982
vt 0.99150 0.82982
vt 0.85200 0.90427
vt 0.99150 0.90427
vt 0.99150 0.82982
vt 0.99150 0.82982
vt 0.85200 0.82982
vt 0.99150 0.90427
vt 0.85200 0.90427
vt 0.99150 0.90427
vt 0.99150 0.82982
vt 0.21805 0.71085
vt 0.23361 0.47690
vt 0.03960 0.71085
vt 0.38350 0.47690
vt 0.03960 0.61085
vt 0.38350 0.71085
vt 0.51079 0.71085
vt 0.51079 0.47690
vt 0.03960 0.56535
vt 0.03960 0.47690
vt 0.63522 0.71085
vt 0.63522 0.47690
vt 0.75942 0.71085
vt 0.75942 0.47690
vt 0.88421 0.71085
vt 0.88421 0.47690
vt 0.88421 0.74285
vt 0.75942 0.74285
vt 0.63522 0.74285
vt 0.51079 0.74285
vt 0.38350 0.74285
vt 0.21805 0.74285
vt 0.75942 0.44490
vt 0.88421 0.44490
vt 0.63522 0.44490
vt 0.51079 0.44490
vt 0.38350 0.44490
vt 0.23361 0.44490
vt 0.03960 0.44490
vt 0.03960 0.74285
vt 0.00720 0.56535
vt 0.00720 0.47690
vt 0.00720 0.61085
vt 0.00720 0.71085
vt 0.21805 0.71085
vt 0.23361 0.47690
vt 0.38350 0.47690
vt 0.38350 0.71085
vt 0.51079 0.71085
vt 0.51079 0.47690
vt 0.63522 0.47690
vt 0.63522 0.71085
vt 0.75942 0.71085
vt 0.75942 0.47690
vt 0.88421 0.71085
vt 0.88421 0.47690
vt 0.03960 0.71085
vt 0.03960 0.61085
vt 0.03960 0.56535
vt 0.03960 0.47690
vt 0.75942 0.47690
vt 0.75942 0.71085
vt 0.63522 0.47690
vt 0.63522 0.71085
vt 0.51079 0.71085
vt 0.51079 0.47690
vt 0.38350 0.47690
vt 0.38350 0.71085
vt 0.21805 0.71085
vt 0.23361 0.47690
vt 0.03960 0.71085
vt 0.03960 0.61085
vt 0.03960 0.56535
vt 0.03960 0.47690
vt 0.03960 0.71085
vt 0.23361 0.47690
vt 0.21805 0.71085
vt 0.38350 0.47690
vt 0.03960 0.61085
vt 0.38350 0.71085
vt 0.51079 0.71085
vt 0.51079 0.47690
vt 0.03960 0.56535
vt 0.03960 0.47690
vt 0.63522 0.71085
vt 0.63522 0.47690
vt 0.75942 0.71085
vt 0.75942 0.47690
vt 0.75942 0.74285
vt 0.63522 0.74285
vt 0.51079 0.74285
vt 0.38350 0.74285
vt 0.21805 0.74285
vt 0.75942 0.44490
vt 0.63522 0.44490
vt 0.51079 0.44490
vt 0.38350 0.44490
vt 0.23361 0.44490
vt 0.03960 0.44490
vt 0.03960 0.74285
vt 0.00720 0.56535
vt 0.00720 0.47690
vt 0.00720 0.61085
vt 0.00720 0.71085
vt 0.99200 0.50700
vt 0.99200 0.50700
vt 0.92700 0.50700
vt 0.92700 0.50700
vt 0.99200 0.50700
vt 0.99200 0.50700
vt 0.92700 0.50700
vt 0.92700 0.50700
vt 0.99200 0.50700
vt 0.92700 0.50700
vt 0.99200 0.50700
vt 0.92700 0.50700
vt 0.99200 0.50700
vt 0.92700 0.50700
vt 0.92700 0.50700
vt 0.99200 0.50700
vt 0.92700 0.50700
vt 0.99200 0.50700
vt 0.92700 0.50700
vt 0.99200 0.50700
vt 0.92700 0.50700
vt 0.99200 0.50700
vt 0.92700 0.50700
vt 0.99200 0.50700
vt 0.92700 0.50700
vt 0.99200 0.50700
vt 0.99200 0.50700
vt 0.92700 0.50700
vt 0.99200 0.50700
vt 0.92700 0.50700
vt 0.92700 0.50700
vt 0.99200 0.50700
vt 0.92700 0.50700
vt 0.99200 0.50700
vt 0.99200 0.50700
vt 0.92700 0.50700
vt 0.99200 0.50700
vt 0.92700 0.50700
vt 0.99200 0.50700
vt 0.92700 0.50700
vt 0.99200 0.50700
vt 0.92700 0.50700
vt 0.99200 0.50700
vt 0.92700 0.50700
vt 0.99200 0.50700
vt 0.92700 0.50700
vt 0.92700 0.50700
vt 0.99200 0.50700
vt 0.92700 0.50700
vt 0.99200 0.50700
vt 0.92700 0.50700
vt 0.99200 0.50700
vt 0.92700 0.50700
vt 0.99200 0.50700
vt 0.92700 0.50700
vt 0.99200 0.50700
vt 0.99200 0.50700
vt 0.92700 0.50700
vt 0.92700 0.50700
vt 0.99200 0.50700
vt 0.99200 0.50700
vt 0.92700 0.50700
vt 0.99200 0.50700
vt 0.92700 0.50700
vt 0.99200 0.50700
vt 0.92700 0.50700
usemtl m0
f 1/1 2/2 3/3
f 4/4 2/2 1/1
f 4/4 5/5 2/2
f 5/5 6/6 2/2
f 5/5 7/7 6/6
f 6/6 7/7 8/8
f 7/7 9/9 8/8
f 7/7 10/10 9/9
f 10/10 11/11 9/9
f 9/9 11/11 12/12
f 1/1 13/13 4/4
f 2/2 13/13 3/3
f 2/2 6/6 13/13
f 13/13 5/5 4/4
f 14/14 13/13 1/1
f 3/3 13/13 14/14
f 6/6 15/15 13/13
f 13/13 15/15 5/5
f 15/15 7/7 5/5
f 16/16 7/7 15/15
f 6/6 16/16 15/15
f 6/6 8/8 16/16
f 8/8 17/17 16/16
f 8/8 9/9 17/17
f 17/17 10/10 7/7
f 16/16 17/17 7/7
f 9/9 12/12 17/17
f 18/18 11/11 10/10
f 18/18 10/10 17/17
f 17/17 12/12 18/18
f 12/12 11/11 19/19
f 19/19 11/11 20/20
f 20/20 11/11 18/18
f 19/19 20/20 21/21
f 22/22 19/19 21/21
f 22/22 21/21 23/23
f 23/23 21/21 24/24
f 25/25 23/23 24/24
f 25/25 24/24 26/26
f 1/1 25/25 26/26
f 3/3 25/25 1/1
f 26/26 27/27 1/1
f 1/1 27/27 14/14
f 14/14 27/27 3/3
f 3/3 27/27 25/25
f 27/27 23/23 25/25
f 26/26 24/24 27/27
f 27/27 28/28 23/23
f 24/24 28/28 27/27
f 24/24 21/21 28/28
f 28/28 21/21 29/29
f 28/28 29/29 23/23
f 29/29 22/22 23/23
f 29/29 30/30 22/22
f 30/30 19/19 22/22
f 30/30 20/20 18/18
f 21/21 20/20 30/30
f 21/21 30/30 29/29
f 30/30 12/12 19/19
f 18/18 12/12 30/30
f 31/31 32/32 33/33
f 31/31 34/34 32/32
f 35/35 31/31 33/33
f 31/31 36/36 34/34
f 37/37 31/31 35/35
f 38/38 36/36 31/31
f 39/39 40/40 41/41
f 41/41 40/40 42/42
f 41/41 42/42 43/43
f 44/44 41/41 43/43
f 42/42 40/40 45/45
f 42/42 45/45 43/43
f 40/40 46/46 45/45
f 43/43 45/45 47/47
f 47/47 45/45 48/48
f 45/45 49/49 48/48
f 46/46 50/50 45/45
f 45/45 50/50 49/49
f 49/49 51/51 48/48
f 49/49 50/50 51/51
f 48/48 51/51 52/52
f 52/52 51/51 53/53
f 53/53 51/51 54/54
f 53/53 54/54 55/55
f 53/53 55/55 56/56
f 56/56 55/55 57/57
f 57/57 55/55 58/58
f 55/55 59/59 58/58
f 55/55 60/60 59/59
f 54/54 61/61 55/55
f 55/55 61/61 60/60
f 51/51 61/61 54/54
f 51/51 62/62 61/61
f 50/50 62/62 51/51
f 63/63 64/64 65/65
f 64/64 66/66 65/65
f 63/63 65/65 67/67
f 66/66 68/68 65/65
f 67/67 65/65 69/69
f 65/65 68/68 70/70
f 71/71 72/72 73/73
f 74/74 72/72 71/71
f 75/75 74/74 71/71
f 75/75 71/71 76/76
f 77/77 72/72 74/74
f 75/75 77/77 74/74
f 77/77 78/78 72/72
f 79/79 77/77 75/75
f 80/80 77/77 79/79
f 80/80 81/81 77/77
f 77/77 82/82 78/78
f 81/81 82/82 77/77
f 80/80 83/83 81/81
f 83/83 82/82 81/81
f 84/84 83/83 80/80
f 85/85 83/83 84/84
f 86/86 83/83 85/85
f 87/87 86/86 85/85
f 88/88 87/87 85/85
f 89/89 87/87 88/88
f 90/90 87/87 89/89
f 90/90 91/91 87/87
f 91/91 92/92 87/87
f 87/87 93/93 86/86
f 92/92 93/93 87/87
f 86/86 93/93 83/83
f 93/93 94/94 83/83
f 83/83 94/94 82/82
f 95/95 96/96 97/97
f 96/96 98/98 97/97
f 96/96 99/99 98/98
f 99/99 100/100 98/98
f 97/97 98/98 101/101
f 98/98 102/102 101/101
f 98/98 100/100 102/102
f 101/101 102/102 103/103
f 97/97 101/101 104/104
f 101/101 103/103 104/104
f 105/105 99/99 96/96
f 96/96 106/106 105/105
f 97/97 104/104 107/107
f 104/104 108/108 107/107
f 104/104 103/103 108/108
f 107/107 108/108 109/109
f 97/97 107/107 110/110
f 111/111 97/97 110/110
f 110/110 107/107 112/112
f 107/107 109/109 112/112
f 112/112 113/113 110/110
f 112/112 109/109 113/113
f 109/109 114/114 113/113
f 111/111 110/110 115/115
f 113/113 115/115 110/110
f 113/113 114/114 116/116
f 116/116 115/115 113/113
f 114/114 117/117 116/116
f 116/116 117/117 118/118
f 118/118 115/115 116/116
f 118/118 119/119 115/115
f 119/119 118/118 120/120
f 118/118 121/121 120/120
f 117/117 121/121 118/118
f 121/121 122/122 120/120
f 120/120 122/122 123/123
f 119/119 120/120 123/123
f 123/123 122/122 124/124
f 124/124 125/125 123/123
f 123/123 125/125 126/126
f 126/126 125/125 127/127
f 125/125 128/128 127/127
f 128/128 129/129 127/127
f 127/127 129/129 130/130
f 127/127 130/130 131/131
f 126/126 131/131 123/123
f 127/127 131/131 126/126
f 119/119 123/123 131/131
f 131/131 130/130 132/132
f 133/133 134/134 106/106
f 133/133 106/106 135/135
f 134/134 136/136 106/106
f 106/106 136/136 137/137
f 106/106 137/137 105/105
f 105/105 137/137 138/138
f 138/138 139/139 105/105
f 105/105 139/139 99/99
f 99/99 139/139 100/100
f 135/135 106/106 96/96
f 140/140 135/135 96/96
f 140/140 133/133 135/135
f 140/140 96/96 95/95
f 141/141 134/134 133/133
f 141/141 136/136 134/134
f 142/142 136/136 141/141
f 143/143 141/141 133/133
f 143/143 133/133 140/140
f 144/144 143/143 140/140
f 144/144 141/141 143/143
f 145/145 141/141 144/144
f 145/145 142/142 141/141
f 146/146 142/142 145/145
f 145/145 147/147 146/146
f 144/144 148/148 145/145
f 148/148 147/147 145/145
f 149/149 148/148 144/144
f 149/149 150/150 148/148
f 150/150 147/147 148/148
f 151/151 149/149 144/144
f 151/151 144/144 152/152
f 152/152 144/144 140/140
f 153/153 149/149 151/151
f 153/153 154/154 149/149
f 154/154 150/150 149/149
f 155/155 154/154 153/153
f 156/156 153/153 151/151
f 156/156 155/155 153/153
f 157/157 156/156 151/151
f 157/157 158/158 156/156
f 158/158 155/155 156/156
f 159/159 158/158 157/157
f 160/160 157/157 151/151
f 160/160 151/151 161/161
f 161/161 151/151 152/152
f 162/162 157/157 160/160
f 162/162 159/159 157/157
f 160/160 163/163 162/162
f 163/163 159/159 162/162
f 163/163 164/164 159/159
f 165/165 160/160 161/161
f 165/165 163/163 160/160
f 166/166 164/164 163/163
f 165/165 166/166 163/163
f 166/166 167/167 164/164
f 168/168 167/167 166/166
f 165/165 168/168 166/166
f 165/165 169/169 168/168
f 170/170 168/168 169/169
f 170/170 171/171 168/168
f 168/168 171/171 167/167
f 170/170 172/172 171/171
f 173/173 172/172 170/170
f 170/170 169/169 173/173
f 174/174 172/172 173/173
f 173/173 175/175 174/174
f 176/176 175/175 173/173
f 177/177 175/175 176/176
f 177/177 178/178 175/175
f 177/177 179/179 178/178
f 180/180 179/179 177/177
f 181/181 176/176 173/173
f 181/181 177/177 176/176
f 173/173 169/169 181/181
f 181/181 180/180 177/177
f 182/182 180/180 181/181
f 95/95 97/97 111/111
f 183/183 184/184 185/185
f 186/186 183/183 185/185
f 186/186 185/185 187/187
f 187/187 185/185 188/188
f 185/185 184/184 189/189
f 185/185 189/189 190/190
f 191/191 185/185 190/190
f 188/188 185/185 191/191
f 192/192 193/193 194/194
f 195/195 193/193 192/192
f 193/193 195/195 196/196
f 194/194 197/197 192/192
f 194/194 198/198 197/197
f 192/192 199/199 195/195
f 200/200 199/199 192/192
f 192/192 197/197 200/200
f 197/197 201/201 200/200
f 196/196 195/195 202/202
f 202/202 203/203 196/196
f 196/196 203/203 204/204
f 202/202 195/195 205/205
f 205/205 203/203 202/202
f 205/205 195/195 199/199
f 206/206 203/203 205/205
f 207/207 208/208 209/209
f 210/210 208/208 207/207
f 207/207 209/209 211/211
f 212/212 207/207 211/211
f 213/213 214/214 215/215
f 215/215 214/214 216/216
f 217/217 213/213 215/215
f 217/217 215/215 218/218
f 219/219 220/220 221/221
f 220/220 222/222 221/221
f 219/219 221/221 223/223
f 219/219 223/223 224/224
f 222/222 225/225 221/221
f 222/222 226/226 225/225
f 221/221 225/225 227/227
f 221/221 227/227 228/228
f 228/228 227/227 229/229
f 230/230 221/221 228/228
f 223/223 230/230 224/224
f 223/223 221/221 230/230
f 229/229 227/227 231/231
f 232/232 233/233 234/234
f 232/232 235/235 233/233
f 236/236 232/232 234/234
f 237/237 236/236 234/234
f 232/232 238/238 235/235
f 238/238 239/239 235/235
f 240/240 238/238 232/232
f 241/241 240/240 232/232
f 242/242 240/240 241/241
f 241/241 232/232 243/243
f 237/237 243/243 236/236
f 243/243 232/232 236/236
f 244/244 240/240 242/242
f 245/245 246/246 247/247
f 246/246 245/245 248/248
f 248/248 245/245 249/249
f 250/250 249/249 245/245
f 250/250 245/245 251/251
f 251/251 245/245 252/252
f 250/250 251/251 253/253
f 246/246 248/248 254/254
f 252/252 255/255 256/256
f 256/256 255/255 257/257
f 255/255 258/258 257/257
f 247/247 258/258 255/255
f 258/258 259/259 257/257
f 257/257 259/259 260/260
f 257/257 260/260 261/261
f 256/256 257/257 261/261
f 259/259 262/262 260/260
f 260/260 262/262 263/263
f 260/260 263/263 264/264
f 260/260 264/264 265/265
f 266/266 260/260 265/265
f 261/261 260/260 266/266
f 267/267 268/268 269/269
f 270/270 269/269 268/268
f 271/271 269/269 270/270
f 269/269 271/271 272/272
f 269/269 272/272 273/273
f 269/269 273/273 274/274
f 273/273 272/272 275/275
f 270/270 268/268 276/276
f 277/277 278/278 274/274
f 279/279 278/278 277/277
f 279/279 280/280 278/278
f 278/278 280/280 267/267
f 279/279 281/281 280/280
f 282/282 281/281 279/279
f 283/283 282/282 279/279
f 283/283 279/279 277/277
f 282/282 284/284 281/281
f 285/285 284/284 282/282
f 286/286 285/285 282/282
f 287/287 286/286 282/282
f 287/287 282/282 288/288
f 288/288 282/282 283/283
f 289/289 290/290 291/291
f 290/290 292/292 291/291
f 293/293 290/290 289/289
f 294/294 295/295 296/296
f 297/297 294/294 296/296
f 294/294 298/298 295/295
f 299/299 300/300 301/301
f 299/299 302/302 300/300
f 301/301 300/300 303/303
f 304/304 305/305 306/306
f 304/304 306/306 307/307
f 305/305 308/308 306/306
f 309/309 310/310 311/311
f 311/311 310/310 312/312
f 312/312 310/310 313/313
f 313/313 310/310 314/314
f 315/315 316/316 317/317
f 318/318 316/316 315/315
f 319/319 316/316 318/318
f 320/320 316/316 319/319
f 321/321 322/322 323/323
f 323/323 322/322 324/324
f 324/324 322/322 325/325
f 325/325 322/322 326/326
f 327/327 328/328 329/329
f 330/330 328/328 327/327
f 331/331 328/328 330/330
f 332/332 328/328 331/331
f 333/333 334/334 335/335
f 336/336 334/334 333/333
f 337/337 334/334 336/336
f 338/338 334/334 337/337
f 339/339 340/340 341/341
f 341/341 340/340 342/342
f 342/342 340/340 343/343
f 343/343 340/340 344/344
f 345/345 346/346 347/347
f 348/348 346/346 345/345
f 349/349 346/346 348/348
f 350/350 346/346 349/349
f 351/351 352/352 353/353
f 353/353 352/352 354/354
f 354/354 352/352 355/355
f 355/355 352/352 356/356
f 357/357 358/358 359/359
f 360/360 358/358 357/357
f 359/359 358/358 361/361
f 362/362 360/360 357/357
f 363/363 360/360 362/362
f 364/364 360/360 363/363
f 361/361 358/358 365/365
f 358/358 366/366 365/365
f 367/367 364/364 363/363
f 367/367 368/368 364/364
f 369/369 368/368 367/367
f 369/369 370/370 368/368
f 371/371 370/370 369/369
f 371/371 372/372 370/370
f 371/371 369/369 373/373
f 369/369 374/374 373/373
f 369/369 375/375 374/374
f 367/367 375/375 369/369
f 367/367 376/376 375/375
f 363/363 376/376 367/367
f 363/363 377/377 376/376
f 363/363 362/362 377/377
f 362/362 378/378 377/377
f 370/370 372/372 379/379
f 379/379 372/372 380/380
f 368/368 370/370 381/381
f 381/381 370/370 379/379
f 382/382 368/368 381/381
f 364/364 368/368 382/382
f 382/382 383/383 364/364
f 383/383 360/360 364/364
f 383/383 384/384 360/360
f 384/384 358/358 360/360
f 384/384 366/366 358/358
f 385/385 366/366 384/384
f 357/357 386/386 378/378
f 357/357 359/359 386/386
f 362/362 357/357 378/378
f 365/365 366/366 387/387
f 387/387 366/366 388/388
f 389/389 365/365 387/387
f 361/361 365/365 389/389
f 390/390 361/361 389/389
f 359/359 361/361 390/390
f 391/391 392/392 393/393
f 391/391 393/393 394/394
f 394/394 393/393 395/395
f 395/395 393/393 396/396
f 396/396 397/397 395/395
f 395/395 397/397 398/398
f 398/398 397/397 399/399
f 397/397 400/400 399/399
f 399/399 400/400 401/401
f 400/400 402/402 401/401
f 403/403 392/392 391/391
f 404/404 392/392 403/403
f 405/405 392/392 404/404
f 405/405 406/406 392/392
f 401/401 402/402 407/407
f 401/401 407/407 408/408
f 408/408 407/407 409/409
f 408/408 409/409 410/410
f 410/410 409/409 411/411
f 411/411 409/409 412/412
f 412/412 413/413 411/411
f 411/411 413/413 414/414
f 414/414 413/413 415/415
f 413/413 416/416 415/415
f 415/415 416/416 417/417
f 417/417 416/416 418/418
f 418/418 416/416 419/419
f 416/416 420/420 419/419
f 421/421 422/422 423/423
f 423/423 422/422 424/424
f 425/425 422/422 421/421
f 423/423 424/424 426/426
f 426/426 424/424 427/427
f 427/427 424/424 428/428
f 429/429 422/422 425/425
f 429/429 430/430 422/422
f 427/427 428/428 431/431
f 428/428 432/432 431/431
f 431/431 432/432 433/433
f 432/432 434/434 433/433
f 433/433 434/434 371/371
f 434/434 372/372 371/371
f 373/373 433/433 371/371
f 373/373 435/435 433/433
f 435/435 436/436 433/433
f 433/433 436/436 431/431
f 436/436 437/437 431/431
f 431/431 437/437 427/427
f 437/437 438/438 427/427
f 438/438 426/426 427/427
f 438/438 439/439 426/426
f 440/440 372/372 434/434
f 380/380 372/372 440/440
f 440/440 434/434 441/441
f 441/441 434/434 432/432
f 441/441 432/432 442/442
f 442/442 432/432 428/428
f 428/428 443/443 442/442
f 428/428 424/424 443/443
f 424/424 444/444 443/443
f 424/424 422/422 444/444
f 422/422 430/430 444/444
f 444/444 430/430 445/445
f 439/439 423/423 426/426
f 439/439 446/446 423/423
f 446/446 421/421 423/423
f 447/447 430/430 429/429
f 448/448 430/430 447/447
f 447/447 429/429 449/449
f 449/449 429/429 425/425
f 449/449 425/425 450/450
f 450/450 425/425 421/421
usemtl m1
f 451/451 452/452 453/453
f 453/453 452/452 454/454
f 454/454 452/452 455/455
f 455/455 456/456 454/454
f 454/454 456/456 457/457
f 458/458 451/451 453/453
f 459/459 451/451 458/458
f 460/460 459/459 458/458
f 461/461 459/459 460/460
f 462/462 461/461 460/460
f 463/463 461/461 462/462
f 464/464 463/463 462/462
f 465/465 463/463 464/464
f 465/465 466/466 463/463
f 467/467 466/466 465/465
f 467/467 468/468 466/466
f 469/469 468/468 467/467
f 469/469 470/470 468/468
f 471/471 470/470 469/469
f 471/471 472/472 470/470
f 473/473 472/472 471/471
f 473/473 474/474 472/472
f 475/475 474/474 473/473
f 476/476 474/474 475/475
f 475/475 477/477 476/476
f 478/478 477/477 475/475
f 478/478 479/479 477/477
f 480/480 479/479 478/478
f 481/481 479/479 480/480
f 482/482 479/479 481/481
f 483/483 482/482 481/481
f 484/484 482/482 483/483
f 483/483 485/485 484/484
f 486/486 485/485 483/483
f 487/487 485/485 486/486
f 488/488 487/487 486/486
f 489/489 487/487 488/488
f 490/490 489/489 488/488
f 491/491 489/489 490/490
f 492/492 491/491 490/490
f 493/493 491/491 492/492
f 494/494 493/493 492/492
f 495/495 493/493 494/494
f 496/496 495/495 494/494
f 497/497 495/495 496/496
f 497/497 498/498 495/495
f 499/499 498/498 497/497
f 499/499 500/500 498/498
f 501/501 500/500 499/499
f 501/501 502/502 500/500
f 503/503 502/502 501/501
f 503/503 504/504 502/502
f 505/505 504/504 503/503
f 506/506 504/504 505/505
f 505/505 507/507 506/506
f 508/508 507/507 505/505
f 509/509 507/507 508/508
f 509/509 510/510 507/507
f 509/509 511/511 510/510
f 512/512 511/511 509/509
f 456/456 513/513 514/514
f 513/513 515/515 514/514
f 514/514 515/515 516/516
f 457/457 456/456 514/514
