mtllib options1153.mtl
o options1153
v -0.00180 0.00000 2.74230 0.976 0.000 0.000
v 0.00304 0.23818 2.71480 0.937 0.000 0.000
v 0.13088 0.20626 2.73733 0.925 0.000 0.000
v 0.22448 0.11909 2.75384 0.894 0.000 0.000
v 0.25873 0.00000 2.75987 0.863 0.000 0.000
v 0.22448 -0.11909 2.75384 0.894 0.000 0.000
v 0.13088 -0.20626 2.73733 0.925 0.000 0.000
v 0.00304 -0.23818 2.71480 0.937 0.000 0.000
v -0.03218 0.19901 2.91341 0.882 0.000 0.000
v 0.07463 0.17235 2.93224 0.855 0.000 0.000
v 0.15284 0.09950 2.94602 0.827 0.000 0.000
v 0.18146 0.00000 2.95108 0.812 0.000 0.000
v 0.15284 -0.09950 2.94602 0.827 0.000 0.000
v 0.07463 -0.17235 2.93224 0.855 0.000 0.000
v -0.03218 -0.19901 2.91341 0.882 0.000 0.000
v -0.03573 0.17168 2.93510 0.871 0.000 0.000
v 0.09461 0.12141 2.95808 0.839 0.000 0.000
v 0.14859 0.00000 2.96761 0.796 0.000 0.000
v 0.09461 -0.12141 2.95808 0.839 0.000 0.000
v -0.03573 -0.17168 2.93510 0.871 0.000 0.000
v -0.03848 0.00000 2.95079 0.824 0.000 0.000
v 0.03026 0.31214 2.56048 0.894 0.000 0.000
v 0.19780 0.27032 2.59002 0.871 0.000 0.000
v 0.32045 0.15608 2.61164 0.831 0.000 0.000
v 0.36535 0.00000 2.61956 0.816 0.000 0.000
v 0.32045 -0.15608 2.61164 0.831 0.000 0.000
v 0.19780 -0.27032 2.59002 0.871 0.000 0.000
v 0.03026 -0.31214 2.56048 0.894 0.000 0.000
v -0.12735 0.20626 2.69179 0.925 0.000 0.000
v -0.22280 0.11909 2.67496 0.894 0.000 0.000
v -0.25774 0.00000 2.66881 0.863 0.000 0.000
v -0.22280 -0.11909 2.67496 0.894 0.000 0.000
v -0.12735 -0.20626 2.69179 0.925 0.000 0.000
v -0.13901 0.17235 2.89456 0.855 0.000 0.000
v -0.21721 0.09950 2.88077 0.827 0.000 0.000
v -0.24176 0.00000 2.87645 0.812 0.000 0.000
v -0.21721 -0.09950 2.88077 0.827 0.000 0.000
v -0.13901 -0.17235 2.89456 0.855 0.000 0.000
v -0.16605 0.12141 2.91213 0.839 0.000 0.000
v -0.22003 0.00000 2.90261 0.796 0.000 0.000
v -0.16605 -0.12141 2.91213 0.839 0.000 0.000
v -0.14063 0.27032 2.53035 0.871 0.000 0.000
v -0.26573 0.15608 2.50828 0.831 0.000 0.000
v -0.31153 0.00000 2.50022 0.816 0.000 0.000
v -0.26573 -0.15608 2.50828 0.831 0.000 0.000
v -0.14063 -0.27032 2.53035 0.871 0.000 0.000
v 0.00304 0.22151 2.71480 0.965 0.000 0.000
v -0.11822 0.19183 2.69341 0.961 0.000 0.000
v -0.20700 0.11075 2.67775 0.953 0.000 0.000
v -0.23949 0.00000 2.67203 0.949 0.000 0.000
v -0.20700 -0.11075 2.67775 0.953 0.000 0.000
v -0.11822 -0.19183 2.69341 0.961 0.000 0.000
v 0.00304 -0.22151 2.71480 0.965 0.000 0.000
v 0.12193 0.19183 2.73575 0.961 0.000 0.000
v 0.20896 0.11075 2.75110 0.953 0.000 0.000
v 0.24082 0.00000 2.75672 0.949 0.000 0.000
v 0.20896 -0.11075 2.75110 0.953 0.000 0.000
v 0.12193 -0.19183 2.73575 0.961 0.000 0.000
v 0.01602 0.27628 2.64127 0.914 0.000 0.000
v -0.13523 0.23926 2.61459 0.882 0.000 0.000
v -0.24597 0.13813 2.59508 0.831 0.000 0.000
v -0.28651 0.00000 2.58793 0.804 0.000 0.000
v -0.24597 -0.13813 2.59508 0.831 0.000 0.000
v -0.13523 -0.23926 2.61459 0.882 0.000 0.000
v 0.01602 -0.27628 2.64127 0.914 0.000 0.000
v 0.16430 -0.23926 2.66742 0.882 0.000 0.000
v 0.27286 -0.13813 2.68655 0.831 0.000 0.000
v 0.31259 0.00000 2.69356 0.804 0.000 0.000
v 0.27286 0.13813 2.68655 0.831 0.000 0.000
v 0.16430 0.23926 2.66742 0.882 0.000 0.000
v 0.15979 0.23198 2.66663 0.933 0.000 0.000
v 0.26503 0.13394 2.68519 0.906 0.000 0.000
v 0.30357 0.00000 2.69197 0.906 0.000 0.000
v 0.26503 -0.13394 2.68519 0.906 0.000 0.000
v 0.15979 -0.23198 2.66663 0.933 0.000 0.000
v 0.01602 -0.26786 2.64127 0.945 0.000 0.000
v -0.13064 -0.23198 2.61542 0.933 0.000 0.000
v -0.23800 -0.13394 2.59648 0.906 0.000 0.000
v -0.27729 0.00000 2.58955 0.906 0.000 0.000
v -0.23800 0.13394 2.59648 0.906 0.000 0.000
v -0.13064 0.23198 2.61542 0.933 0.000 0.000
v 0.01602 0.26786 2.64127 0.945 0.000 0.000
v -0.01143 0.22289 2.79677 0.910 0.000 0.000
v -0.13108 0.19303 2.77567 0.894 0.000 0.000
v -0.21866 0.11146 2.76023 0.843 0.000 0.000
v -0.24863 0.00000 2.75494 0.824 0.000 0.000
v -0.21866 -0.11146 2.76023 0.843 0.000 0.000
v -0.13108 -0.19303 2.77567 0.894 0.000 0.000
v -0.01143 -0.22289 2.79677 0.910 0.000 0.000
v 0.10822 -0.19303 2.81786 0.894 0.000 0.000
v 0.19579 -0.11146 2.83331 0.843 0.000 0.000
v 0.22784 0.00000 2.83896 0.824 0.000 0.000
v 0.19579 0.11146 2.83331 0.843 0.000 0.000
v 0.10822 0.19303 2.81786 0.894 0.000 0.000
v 0.00027 0.23866 2.73046 0.925 0.000 0.000
v -0.13039 0.20668 2.70742 0.914 0.000 0.000
v -0.22604 0.11932 2.69055 0.867 0.000 0.000
v -0.25996 0.00000 2.68457 0.843 0.000 0.000
v -0.22604 -0.11932 2.69055 0.867 0.000 0.000
v -0.13039 -0.20668 2.70742 0.914 0.000 0.000
v 0.00027 -0.23866 2.73046 0.925 0.000 0.000
v 0.12838 -0.20668 2.75305 0.914 0.000 0.000
v 0.22214 -0.11932 2.76959 0.867 0.000 0.000
v 0.25646 0.00000 2.77564 0.843 0.000 0.000
v 0.22214 0.11932 2.76959 0.867 0.000 0.000
v 0.12838 0.20668 2.75305 0.914 0.000 0.000
v 0.03026 0.31214 2.56048 0.925 0.000 0.000
v 0.19780 0.27032 2.59002 0.910 0.000 0.000
v 0.32045 0.15608 2.61164 0.878 0.000 0.000
v 0.36535 0.00000 2.61956 0.878 0.000 0.000
v 0.32045 -0.15608 2.61164 0.878 0.000 0.000
v 0.19780 -0.27032 2.59002 0.910 0.000 0.000
v 0.03026 -0.31214 2.56048 0.925 0.000 0.000
v -0.14063 0.27032 2.53035 0.910 0.000 0.000
v -0.26573 0.15608 2.50828 0.878 0.000 0.000
v -0.31153 0.00000 2.50022 0.878 0.000 0.000
v -0.26573 -0.15608 2.50828 0.878 0.000 0.000
v -0.14063 -0.27032 2.53035 0.910 0.000 0.000
v -0.12735 0.20626 2.69179 0.925 0.000 0.000
v 0.00304 0.23818 2.71480 0.937 0.000 0.000
v -0.22280 0.11909 2.67496 0.894 0.000 0.000
v -0.25774 0.00000 2.66881 0.863 0.000 0.000
v -0.22280 -0.11909 2.67496 0.894 0.000 0.000
v -0.12735 -0.20626 2.69179 0.925 0.000 0.000
v 0.00304 -0.23818 2.71480 0.937 0.000 0.000
v 0.13088 -0.20626 2.73733 0.925 0.000 0.000
v 0.22448 -0.11909 2.75384 0.894 0.000 0.000
v 0.25873 0.00000 2.75987 0.863 0.000 0.000
v 0.22448 0.11909 2.75384 0.894 0.000 0.000
v 0.13088 0.20626 2.73733 0.925 0.000 0.000
v 0.20896 0.11075 2.75110 0.953 0.000 0.000
v 0.12193 0.19183 2.73575 0.961 0.000 0.000
v 0.24082 0.00000 2.75672 0.949 0.000 0.000
v 0.20896 -0.11075 2.75110 0.953 0.000 0.000
v 0.12193 -0.19183 2.73575 0.961 0.000 0.000
v 0.00304 -0.22151 2.71480 0.965 0.000 0.000
v -0.11822 -0.19183 2.69341 0.961 0.000 0.000
v -0.20700 -0.11075 2.67775 0.953 0.000 0.000
v -0.23949 0.00000 2.67203 0.949 0.000 0.000
v -0.20700 0.11075 2.67775 0.953 0.000 0.000
v -0.11822 0.19183 2.69341 0.961 0.000 0.000
v 0.00304 0.22151 2.71480 0.965 0.000 0.000
vt 0.35156 0.67969
vt 0.41406 0.27344
vt 0.60156 0.27344
vt 0.80469 0.27344
vt 0.99219 0.27344
vt 0.80469 0.27344
vt 0.60156 0.27344
vt 0.41406 0.27344
vt 0.41406 0.58594
vt 0.60156 0.58594
vt 0.80469 0.58594
vt 0.99219 0.58594
vt 0.80469 0.58594
vt 0.60156 0.58594
vt 0.41406 0.58594
vt 0.41406 0.66406
vt 0.71094 0.66406
vt 0.99219 0.66406
vt 0.71094 0.66406
vt 0.41406 0.66406
vt 0.71094 0.91406
vt 0.00781 0.00781
vt 0.00781 0.25781
vt 0.00781 0.50781
vt 0.00781 0.72656
vt 0.00781 0.50781
vt 0.00781 0.25781
vt 0.00781 0.00781
vt 0.60156 0.27344
vt 0.80469 0.27344
vt 0.99219 0.27344
vt 0.80469 0.27344
vt 0.60156 0.27344
vt 0.60156 0.58594
vt 0.80469 0.58594
vt 0.99219 0.58594
vt 0.80469 0.58594
vt 0.60156 0.58594
vt 0.71094 0.66406
vt 0.99219 0.66406
vt 0.71094 0.66406
vt 0.00781 0.25781
vt 0.00781 0.50781
vt 0.00781 0.72656
vt 0.00781 0.50781
vt 0.00781 0.25781
vt 0.10156 0.99219
vt 0.27344 0.99219
vt 0.44531 0.99219
vt 0.60156 0.99219
vt 0.44531 0.99219
vt 0.27344 0.99219
vt 0.10156 0.99219
vt 0.27344 0.99219
vt 0.44531 0.99219
vt 0.60156 0.99219
vt 0.44531 0.99219
vt 0.27344 0.99219
vt 0.14844 0.00781
vt 0.14844 0.25781
vt 0.14844 0.50781
vt 0.14844 0.72656
vt 0.14844 0.50781
vt 0.14844 0.25781
vt 0.14844 0.00781
vt 0.14844 0.25781
vt 0.14844 0.50781
vt 0.14844 0.72656
vt 0.14844 0.50781
vt 0.14844 0.25781
vt 0.74219 0.14844
vt 0.50781 0.14844
vt 0.27344 0.14844
vt 0.50781 0.14844
vt 0.74219 0.14844
vt 0.99219 0.14844
vt 0.74219 0.14844
vt 0.50781 0.14844
vt 0.27344 0.14844
vt 0.50781 0.14844
vt 0.74219 0.14844
vt 0.99219 0.14844
vt 0.41406 0.38281
vt 0.60156 0.38281
vt 0.80469 0.38281
vt 0.99219 0.38281
vt 0.80469 0.38281
vt 0.60156 0.38281
vt 0.41406 0.38281
vt 0.60156 0.38281
vt 0.80469 0.38281
vt 0.99219 0.38281
vt 0.80469 0.38281
vt 0.60156 0.38281
vt 0.41406 0.30469
vt 0.60156 0.30469
vt 0.80469 0.30469
vt 0.99219 0.30469
vt 0.80469 0.30469
vt 0.60156 0.30469
vt 0.41406 0.30469
vt 0.60156 0.30469
vt 0.80469 0.30469
vt 0.99219 0.30469
vt 0.80469 0.30469
vt 0.60156 0.30469
vt 0.99219 0.00781
vt 0.74219 0.00781
vt 0.50781 0.00781
vt 0.27344 0.00781
vt 0.50781 0.00781
vt 0.74219 0.00781
vt 0.99219 0.00781
vt 0.74219 0.00781
vt 0.50781 0.00781
vt 0.27344 0.00781
vt 0.50781 0.00781
vt 0.74219 0.00781
vt 0.25781 0.25781
vt 0.25781 0.00781
vt 0.25781 0.50781
vt 0.25781 0.72656
vt 0.25781 0.50781
vt 0.25781 0.25781
vt 0.25781 0.00781
vt 0.25781 0.25781
vt 0.25781 0.50781
vt 0.25781 0.72656
vt 0.25781 0.50781
vt 0.25781 0.25781
vt 0.50781 0.25781
vt 0.74219 0.25781
vt 0.27344 0.25781
vt 0.50781 0.25781
vt 0.74219 0.25781
vt 0.99219 0.25781
vt 0.74219 0.25781
vt 0.50781 0.25781
vt 0.27344 0.25781
vt 0.50781 0.25781
vt 0.74219 0.25781
vt 0.99219 0.25781
usemtl m0
f 23/23 22/22 70/70
f 22/22 59/59 70/70
f 24/24 23/23 69/69
f 23/23 70/70 69/69
f 25/25 24/24 68/68
f 24/24 69/69 68/68
f 25/25 68/68 26/26
f 68/68 67/67 26/26
f 26/26 67/67 27/27
f 67/67 66/66 27/27
f 27/27 66/66 28/28
f 66/66 65/65 28/28
f 2/2 95/95 3/3
f 95/95 106/106 3/3
f 3/3 106/106 4/4
f 106/106 105/105 4/4
f 4/4 105/105 5/5
f 105/105 104/104 5/5
f 5/5 104/104 6/6
f 104/104 103/103 6/6
f 7/7 6/6 102/102
f 6/6 103/103 102/102
f 7/7 102/102 8/8
f 102/102 101/101 8/8
f 9/9 16/16 10/10
f 10/10 17/17 11/11
f 11/11 17/17 18/18
f 18/18 19/19 13/13
f 13/13 19/19 14/14
f 14/14 19/19 20/20
f 16/16 21/21 17/17
f 17/17 21/21 18/18
f 18/18 21/21 19/19
f 19/19 21/21 20/20
f 1/1 48/48 47/47
f 1/1 49/49 48/48
f 1/1 50/50 49/49
f 1/1 51/51 50/50
f 1/1 52/52 51/51
f 1/1 53/53 52/52
f 59/59 22/22 60/60
f 22/22 42/42 60/60
f 60/60 42/42 61/61
f 42/42 43/43 61/61
f 61/61 43/43 62/62
f 43/43 44/44 62/62
f 44/44 45/45 62/62
f 45/45 63/63 62/62
f 45/45 46/46 63/63
f 46/46 64/64 63/63
f 46/46 28/28 64/64
f 28/28 65/65 64/64
f 2/2 29/29 95/95
f 29/29 96/96 95/95
f 29/29 30/30 96/96
f 30/30 97/97 96/96
f 97/97 30/30 98/98
f 30/30 31/31 98/98
f 31/31 32/32 98/98
f 32/32 99/99 98/98
f 99/99 32/32 100/100
f 32/32 33/33 100/100
f 100/100 33/33 101/101
f 33/33 8/8 101/101
f 9/9 34/34 16/16
f 34/34 35/35 39/39
f 35/35 36/36 40/40
f 36/36 37/37 40/40
f 37/37 38/38 41/41
f 38/38 20/20 41/41
f 16/16 39/39 21/21
f 39/39 40/40 21/21
f 40/40 41/41 21/21
f 41/41 20/20 21/21
f 1/1 47/47 54/54
f 1/1 54/54 55/55
f 1/1 55/55 56/56
f 1/1 56/56 57/57
f 1/1 57/57 58/58
f 1/1 58/58 53/53
f 11/11 18/18 12/12
f 12/12 18/18 13/13
f 16/16 17/17 10/10
f 14/14 20/20 15/15
f 34/34 39/39 16/16
f 38/38 15/15 20/20
f 35/35 40/40 39/39
f 37/37 41/41 40/40
f 82/82 107/107 71/71
f 107/107 108/108 71/71
f 71/71 108/108 72/72
f 108/108 109/109 72/72
f 72/72 109/109 73/73
f 109/109 110/110 73/73
f 110/110 111/111 73/73
f 111/111 74/74 73/73
f 111/111 112/112 74/74
f 112/112 75/75 74/74
f 112/112 113/113 75/75
f 113/113 76/76 75/75
f 114/114 107/107 81/81
f 107/107 82/82 81/81
f 115/115 114/114 80/80
f 114/114 81/81 80/80
f 116/116 115/115 79/79
f 115/115 80/80 79/79
f 116/116 79/79 117/117
f 79/79 78/78 117/117
f 117/117 78/78 118/118
f 78/78 77/77 118/118
f 118/118 77/77 113/113
f 77/77 76/76 113/113
f 60/60 119/119 59/59
f 119/119 120/120 59/59
f 61/61 121/121 60/60
f 121/121 119/119 60/60
f 62/62 122/122 61/61
f 122/122 121/121 61/61
f 62/62 63/63 122/122
f 63/63 123/123 122/122
f 63/63 64/64 123/123
f 64/64 124/124 123/123
f 64/64 65/65 124/124
f 65/65 125/125 124/124
f 66/66 126/126 65/65
f 126/126 125/125 65/65
f 67/67 127/127 66/66
f 127/127 126/126 66/66
f 68/68 128/128 67/67
f 128/128 127/127 67/67
f 68/68 69/69 128/128
f 69/69 129/129 128/128
f 69/69 70/70 129/129
f 70/70 130/130 129/129
f 70/70 59/59 130/130
f 59/59 120/120 130/130
f 72/72 131/131 71/71
f 131/131 132/132 71/71
f 73/73 133/133 72/72
f 133/133 131/131 72/72
f 73/73 74/74 133/133
f 74/74 134/134 133/133
f 74/74 75/75 134/134
f 75/75 135/135 134/134
f 75/75 76/76 135/135
f 76/76 136/136 135/135
f 77/77 137/137 76/76
f 137/137 136/136 76/76
f 78/78 138/138 77/77
f 138/138 137/137 77/77
f 79/79 139/139 78/78
f 139/139 138/138 78/78
f 79/79 80/80 139/139
f 80/80 140/140 139/139
f 80/80 81/81 140/140
f 81/81 141/141 140/140
f 81/81 82/82 141/141
f 82/82 142/142 141/141
f 71/71 132/132 82/82
f 132/132 142/142 82/82
f 84/84 34/34 83/83
f 34/34 9/9 83/83
f 85/85 35/35 84/84
f 35/35 34/34 84/84
f 86/86 36/36 85/85
f 36/36 35/35 85/85
f 86/86 87/87 36/36
f 87/87 37/37 36/36
f 87/87 88/88 37/37
f 88/88 38/38 37/37
f 88/88 89/89 38/38
f 89/89 15/15 38/38
f 90/90 14/14 89/89
f 14/14 15/15 89/89
f 91/91 13/13 90/90
f 13/13 14/14 90/90
f 92/92 12/12 91/91
f 12/12 13/13 91/91
f 92/92 93/93 12/12
f 93/93 11/11 12/12
f 93/93 94/94 11/11
f 94/94 10/10 11/11
f 94/94 83/83 10/10
f 83/83 9/9 10/10
f 96/96 84/84 95/95
f 84/84 83/83 95/95
f 97/97 85/85 96/96
f 85/85 84/84 96/96
f 98/98 86/86 97/97
f 86/86 85/85 97/97
f 98/98 99/99 86/86
f 99/99 87/87 86/86
f 99/99 100/100 87/87
f 100/100 88/88 87/87
f 100/100 101/101 88/88
f 101/101 89/89 88/88
f 102/102 90/90 101/101
f 90/90 89/89 101/101
f 103/103 91/91 102/102
f 91/91 90/90 102/102
f 104/104 92/92 103/103
f 92/92 91/91 103/103
f 104/104 105/105 92/92
f 105/105 93/93 92/92
f 105/105 106/106 93/93
f 106/106 94/94 93/93
f 106/106 95/95 94/94
f 95/95 83/83 94/94
