mtllib options627.mtl
o options627
v -0.42372 -0.83214 2.64276 0.000 0.000 0.000
v -0.45666 -0.79452 2.64222 0.000 0.000 0.000
v -0.44424 -0.75528 3.05010 0.000 0.000 0.000
v -0.47718 -0.71766 3.04974 0.000 0.000 0.000
v -0.44424 0.75528 3.05010 0.000 0.000 0.000
v -0.45666 0.79452 2.64222 0.000 0.000 0.000
v -0.42372 0.83214 2.64276 0.000 0.000 0.000
v -0.47718 0.71766 3.04974 0.000 0.000 0.000
v -0.57024 -0.55116 2.52594 0.000 0.000 0.000
v -0.52848 -0.52380 2.52180 0.000 0.000 0.000
v -0.51264 -0.52470 3.03048 0.000 0.000 0.000
v -0.55422 -0.55206 3.03426 0.000 0.000 0.000
v -0.51264 0.52470 3.03048 0.000 0.000 0.000
v -0.52848 0.52380 2.52180 0.000 0.000 0.000
v -0.57024 0.55116 2.52594 0.000 0.000 0.000
v -0.55422 0.55206 3.03426 0.000 0.000 0.000
v -0.47088 -0.36450 3.00312 0.000 0.000 0.000
v -0.50292 -0.28062 2.62584 0.000 0.000 0.000
v -0.46332 -0.31518 3.00276 0.000 0.000 0.000
v -0.51048 -0.33012 2.62638 0.000 0.000 0.000
v -0.46332 0.31518 3.00276 0.000 0.000 0.000
v -0.50292 0.28062 2.62584 0.000 0.000 0.000
v -0.47088 0.36450 3.00312 0.000 0.000 0.000
v -0.51048 0.33012 2.62638 0.000 0.000 0.000
v -0.37512 -0.58374 3.08556 0.000 0.000 0.000
v -0.31878 -0.61866 2.48076 0.000 0.000 0.000
v -0.39492 -0.53784 3.08538 0.000 0.000 0.000
v -0.29898 -0.66456 2.48130 0.000 0.000 0.000
v -0.39492 0.53784 3.08538 0.000 0.000 0.000
v -0.31878 0.61866 2.48076 0.000 0.000 0.000
v -0.37512 0.58374 3.08556 0.000 0.000 0.000
v -0.29898 0.66456 2.48130 0.000 0.000 0.000
v -0.52236 -0.70596 2.99772 0.000 0.000 0.000
v -0.53298 -0.73890 2.59704 0.000 0.000 0.000
v -0.53586 -0.68904 2.59848 0.000 0.000 0.000
v -0.52524 -0.65610 2.99826 0.000 0.000 0.000
v -0.53586 0.68904 2.59848 0.000 0.000 0.000
v -0.53298 0.73890 2.59704 0.000 0.000 0.000
v -0.52236 0.70596 2.99772 0.000 0.000 0.000
v -0.52524 0.65610 2.99826 0.000 0.000 0.000
v -0.39672 -0.44136 3.06972 0.000 0.000 0.000
v -0.39960 -0.41472 2.37924 0.000 0.000 0.000
v -0.41310 -0.39420 3.06900 0.000 0.000 0.000
v -0.38340 -0.46206 2.38068 0.000 0.000 0.000
v -0.41310 0.39420 3.06900 0.000 0.000 0.000
v -0.39960 0.41472 2.37924 0.000 0.000 0.000
v -0.39672 0.44136 3.06972 0.000 0.000 0.000
v -0.38340 0.46206 2.38068 0.000 0.000 0.000
v -0.36648 0.55746 3.01338 0.000 0.000 0.000
v -0.47358 0.70182 2.99412 0.000 0.000 0.000
v -0.36342 0.70506 3.09330 0.000 0.000 0.000
v -0.43020 0.54054 2.96712 0.000 0.000 0.000
v -0.38700 0.37908 2.99412 0.000 0.000 0.000
v -0.49392 0.52344 3.01338 0.000 0.000 0.000
v -0.49698 0.37584 3.09330 0.000 0.000 0.000
v -0.29016 0.43128 3.09330 0.000 0.000 0.000
v -0.35802 0.55980 3.20274 0.000 0.000 0.000
v -0.31338 0.30798 3.09114 0.000 0.000 0.000
v -0.50256 0.52110 3.20274 0.000 0.000 0.000
v -0.57042 0.64962 3.09330 0.000 0.000 0.000
v -0.54720 0.77292 3.09114 0.000 0.000 0.000
v -0.44532 0.80028 3.09114 0.000 0.000 0.000
v -0.52776 0.90414 2.99412 0.000 0.000 0.000
v -0.49068 0.76572 3.19608 0.000 0.000 0.000
v -0.41526 0.28062 3.09114 0.000 0.000 0.000
v -0.33282 0.17676 2.99412 0.000 0.000 0.000
v -0.36990 0.31518 3.19608 0.000 0.000 0.000
v -0.51696 0.63864 3.19968 0.000 0.000 0.000
v -0.43020 0.54054 3.30246 0.000 0.000 0.000
v -0.45630 0.41202 3.19968 0.000 0.000 0.000
v -0.40428 0.66888 3.19968 0.000 0.000 0.000
v -0.34362 0.44226 3.19968 0.000 0.000 0.000
v -0.31986 0.40158 3.17880 0.000 0.000 0.000
v -0.28836 0.46458 3.03642 0.000 0.000 0.000
v -0.40302 0.49230 3.18438 0.000 0.000 0.000
v -0.37944 0.53802 3.04848 0.000 0.000 0.000
v -0.49896 0.74862 3.19086 0.000 0.000 0.000
v -0.56466 0.65268 2.99880 0.000 0.000 0.000
v -0.52506 0.62136 3.17826 0.000 0.000 0.000
v -0.53838 0.77994 3.01158 0.000 0.000 0.000
v -0.32310 0.24354 3.10212 0.000 0.000 0.000
v -0.30996 0.30762 2.95992 0.000 0.000 0.000
v -0.32598 0.45810 3.03012 0.000 0.000 0.000
v -0.33930 0.39402 3.17232 0.000 0.000 0.000
v -0.56754 0.63504 3.20238 0.000 0.000 0.000
v -0.50742 0.49932 3.08556 0.000 0.000 0.000
v -0.48150 0.54810 3.23820 0.000 0.000 0.000
v -0.59364 0.58626 3.04974 0.000 0.000 0.000
v -0.48600 0.49338 3.16800 0.000 0.000 0.000
v -0.53280 0.52128 3.01860 0.000 0.000 0.000
v -0.50490 0.37584 3.13632 0.000 0.000 0.000
v -0.53442 0.40572 2.99718 0.000 0.000 0.000
v -0.41904 0.39330 3.15558 0.000 0.000 0.000
v -0.44730 0.36936 3.00348 0.000 0.000 0.000
v -0.39978 0.21042 3.02310 0.000 0.000 0.000
v -0.37152 0.23436 3.17520 0.000 0.000 0.000
v -0.43668 0.54918 3.18978 0.000 0.000 0.000
v -0.35658 0.57942 3.05208 0.000 0.000 0.000
v -0.42444 0.67572 3.19950 0.000 0.000 0.000
v -0.34434 0.70596 3.06162 0.000 0.000 0.000
v -0.46242 0.36018 3.24666 0.000 0.000 0.000
v -0.44586 0.35406 3.00906 0.000 0.000 0.000
v -0.37494 0.59796 3.01302 0.000 0.000 0.000
v -0.39168 0.60408 3.25062 0.000 0.000 0.000
v -0.55026 0.61344 3.27906 0.000 0.000 0.000
v -0.52128 0.48294 3.08196 0.000 0.000 0.000
v -0.44064 0.69174 2.96190 0.000 0.000 0.000
v -0.46980 0.82224 3.15900 0.000 0.000 0.000
v -0.36342 -0.70506 3.09330 0.000 0.000 0.000
v -0.47358 -0.70182 2.99412 0.000 0.000 0.000
v -0.36648 -0.55746 3.01338 0.000 0.000 0.000
v -0.43020 -0.54054 2.96712 0.000 0.000 0.000
v -0.38700 -0.37908 2.99412 0.000 0.000 0.000
v -0.49392 -0.52344 3.01338 0.000 0.000 0.000
v -0.49698 -0.37584 3.09330 0.000 0.000 0.000
v -0.29016 -0.43128 3.09330 0.000 0.000 0.000
v -0.35802 -0.55980 3.20274 0.000 0.000 0.000
v -0.31338 -0.30798 3.09114 0.000 0.000 0.000
v -0.50256 -0.52110 3.20274 0.000 0.000 0.000
v -0.57042 -0.64962 3.09330 0.000 0.000 0.000
v -0.54720 -0.77292 3.09114 0.000 0.000 0.000
v -0.44532 -0.80028 3.09114 0.000 0.000 0.000
v -0.52776 -0.90414 2.99412 0.000 0.000 0.000
v -0.49068 -0.76572 3.19608 0.000 0.000 0.000
v -0.41526 -0.28062 3.09114 0.000 0.000 0.000
v -0.33282 -0.17676 2.99412 0.000 0.000 0.000
v -0.36990 -0.31518 3.19608 0.000 0.000 0.000
v -0.51696 -0.63864 3.19968 0.000 0.000 0.000
v -0.43020 -0.54054 3.30246 0.000 0.000 0.000
v -0.45630 -0.41202 3.19968 0.000 0.000 0.000
v -0.40428 -0.66888 3.19968 0.000 0.000 0.000
v -0.34362 -0.44226 3.19968 0.000 0.000 0.000
v -0.40302 -0.49230 3.18438 0.000 0.000 0.000
v -0.28836 -0.46458 3.03642 0.000 0.000 0.000
v -0.31986 -0.40158 3.17880 0.000 0.000 0.000
v -0.37944 -0.53802 3.04848 0.000 0.000 0.000
v -0.52506 -0.62136 3.17826 0.000 0.000 0.000
v -0.56466 -0.65268 2.99880 0.000 0.000 0.000
v -0.49896 -0.74862 3.19086 0.000 0.000 0.000
v -0.53838 -0.77994 3.01158 0.000 0.000 0.000
v -0.32598 -0.45810 3.03012 0.000 0.000 0.000
v -0.30996 -0.30762 2.95992 0.000 0.000 0.000
v -0.32310 -0.24354 3.10212 0.000 0.000 0.000
v -0.33930 -0.39402 3.17232 0.000 0.000 0.000
v -0.48150 -0.54810 3.23820 0.000 0.000 0.000
v -0.50742 -0.49932 3.08556 0.000 0.000 0.000
v -0.56754 -0.63504 3.20238 0.000 0.000 0.000
v -0.59364 -0.58626 3.04974 0.000 0.000 0.000
v -0.50490 -0.37584 3.13632 0.000 0.000 0.000
v -0.53280 -0.52128 3.01860 0.000 0.000 0.000
v -0.48600 -0.49338 3.16800 0.000 0.000 0.000
v -0.53442 -0.40572 2.99718 0.000 0.000 0.000
v -0.39978 -0.21042 3.02310 0.000 0.000 0.000
v -0.44730 -0.36936 3.00348 0.000 0.000 0.000
v -0.41904 -0.39330 3.15558 0.000 0.000 0.000
v -0.37152 -0.23436 3.17520 0.000 0.000 0.000
v -0.42444 -0.67572 3.19950 0.000 0.000 0.000
v -0.35658 -0.57942 3.05208 0.000 0.000 0.000
v -0.43668 -0.54918 3.18978 0.000 0.000 0.000
v -0.34434 -0.70596 3.06162 0.000 0.000 0.000
v -0.37494 -0.59796 3.01302 0.000 0.000 0.000
v -0.44586 -0.35406 3.00906 0.000 0.000 0.000
v -0.46242 -0.36018 3.24666 0.000 0.000 0.000
v -0.39168 -0.60408 3.25062 0.000 0.000 0.000
v -0.44064 -0.69174 2.96190 0.000 0.000 0.000
v -0.52128 -0.48294 3.08196 0.000 0.000 0.000
v -0.55026 -0.61344 3.27906 0.000 0.000 0.000
v -0.46980 -0.82224 3.15900 0.000 0.000 0.000
v -0.49752 0.56304 3.07782 0.000 0.000 0.000
v -0.39078 0.51318 2.96604 0.000 0.000 0.000
v -0.37764 0.51948 3.08898 0.000 0.000 0.000
v -0.51084 0.55692 2.95488 0.000 0.000 0.000
v -0.43758 0.60282 3.06738 0.000 0.000 0.000
v -0.45396 0.46890 2.97738 0.000 0.000 0.000
v -0.44784 0.47952 3.10050 0.000 0.000 0.000
v -0.44370 0.59220 2.94426 0.000 0.000 0.000
v -0.37764 -0.51948 3.08898 0.000 0.000 0.000
v -0.39078 -0.51318 2.96604 0.000 0.000 0.000
v -0.49752 -0.56304 3.07782 0.000 0.000 0.000
v -0.51084 -0.55692 2.95488 0.000 0.000 0.000
v -0.44784 -0.47952 3.10050 0.000 0.000 0.000
v -0.45396 -0.46890 2.97738 0.000 0.000 0.000
v -0.43758 -0.60282 3.06738 0.000 0.000 0.000
v -0.44370 -0.59220 2.94426 0.000 0.000 0.000
v -0.48654 0.49266 3.09618 0.000 0.000 0.000
v -0.39096 0.58806 3.00618 0.000 0.000 0.000
v -0.40248 0.58338 3.12930 0.000 0.000 0.000
v -0.47520 0.49734 2.97306 0.000 0.000 0.000
v -0.40248 -0.58338 3.12930 0.000 0.000 0.000
v -0.39096 -0.58806 3.00618 0.000 0.000 0.000
v -0.48654 -0.49266 3.09618 0.000 0.000 0.000
v -0.47520 -0.49734 2.97306 0.000 0.000 0.000
v -0.31104 0.60948 2.71458 0.824 0.000 0.000
v -0.32130 0.63828 2.69388 0.882 0.000 0.000
v -0.32490 0.63360 2.70090 0.875 0.000 0.000
v -0.31608 0.61542 2.71260 0.835 0.000 0.000
v -0.31446 0.63198 2.69370 0.867 0.000 0.000
v -0.31104 0.61506 2.70846 0.835 0.000 0.000
v -0.31914 0.64044 2.68524 0.875 0.000 0.000
v -0.33732 0.65718 2.66652 0.863 0.000 0.000
v -0.33084 0.65268 2.66976 0.867 0.000 0.000
v -0.32958 0.64206 2.69244 0.882 0.000 0.000
v -0.33732 0.65376 2.67444 0.867 0.000 0.000
v -0.29484 0.52146 2.70090 0.875 0.000 0.000
v -0.28944 0.51930 2.69388 0.882 0.000 0.000
v -0.29502 0.54918 2.71458 0.824 0.000 0.000
v -0.29628 0.54162 2.71260 0.835 0.000 0.000
v -0.28656 0.52794 2.69370 0.867 0.000 0.000
v -0.29214 0.54450 2.70846 0.835 0.000 0.000
v -0.29376 0.49482 2.66652 0.863 0.000 0.000
v -0.28638 0.51840 2.68524 0.875 0.000 0.000
v -0.29052 0.50184 2.66976 0.867 0.000 0.000
v -0.29466 0.51192 2.69244 0.882 0.000 0.000
v -0.29556 0.49788 2.67444 0.867 0.000 0.000
v -0.29016 0.58284 2.69964 0.804 0.000 0.000
v -0.27126 0.58788 2.64222 0.843 0.000 0.000
v -0.31428 0.64404 2.64312 0.863 0.000 0.000
v -0.28404 0.58446 2.59686 0.882 0.000 0.000
v -0.32382 0.63648 2.60028 0.902 0.000 0.000
v -0.34362 0.61470 2.57346 0.953 0.000 0.000
v -0.31536 0.57600 2.56968 0.941 0.000 0.000
v -0.37584 0.59454 2.56446 1.000 0.000 0.000
v -0.38988 0.62136 2.58318 0.965 0.000 0.000
v -0.40986 0.59994 2.57598 0.976 0.000 0.000
v -0.38880 0.64512 2.60838 0.953 0.000 0.000
v -0.38430 0.65322 2.64546 0.902 0.000 0.000
v -0.31428 0.64404 2.64312 0.863 0.000 0.000
v -0.35460 0.56556 2.55978 1.000 0.000 0.000
v -0.44028 0.61020 2.64762 0.922 0.000 0.000
v -0.43470 0.60264 2.68776 0.882 0.000 0.000
v -0.38772 0.63936 2.69262 0.875 0.000 0.000
v -0.38142 0.60606 2.72340 0.843 0.000 0.000
v -0.40932 0.58464 2.72052 0.863 0.000 0.000
v -0.44262 0.54198 2.68560 0.882 0.000 0.000
v -0.44946 0.54018 2.64870 0.922 0.000 0.000
v -0.41382 0.54972 2.71944 0.863 0.000 0.000
v -0.37008 0.56142 2.73276 0.843 0.000 0.000
v -0.38142 0.60606 2.72340 0.843 0.000 0.000
v -0.34650 0.60156 2.72628 0.824 0.000 0.000
v -0.32508 0.57348 2.72736 0.824 0.000 0.000
v -0.32724 0.63144 2.69748 0.831 0.000 0.000
v -0.44928 0.54018 2.61972 0.941 0.000 0.000
v -0.44082 0.60516 2.61630 0.953 0.000 0.000
v -0.43686 0.57834 2.58750 0.965 0.000 0.000
v -0.38772 0.63936 2.69262 0.875 0.000 0.000
v -0.38142 0.60606 2.72340 0.843 0.000 0.000
v -0.31428 0.64404 2.64312 0.863 0.000 0.000
v -0.44010 0.54270 2.59344 0.961 0.000 0.000
v -0.32958 0.53838 2.72628 0.824 0.000 0.000
v -0.35748 0.51696 2.72340 0.843 0.000 0.000
v -0.39240 0.52164 2.72052 0.863 0.000 0.000
v -0.40536 0.49338 2.68776 0.882 0.000 0.000
v -0.35748 0.51696 2.72340 0.843 0.000 0.000
v -0.34632 0.48492 2.69262 0.875 0.000 0.000
v -0.33642 0.47484 2.64546 0.902 0.000 0.000
v -0.40644 0.48402 2.64762 0.922 0.000 0.000
v -0.40950 0.48816 2.61630 0.953 0.000 0.000
v -0.41940 0.51336 2.58750 0.965 0.000 0.000
v -0.34452 0.47952 2.60838 0.953 0.000 0.000
v -0.29250 0.51948 2.60028 0.902 0.000 0.000
v -0.28044 0.51786 2.64312 0.863 0.000 0.000
v -0.32058 0.52848 2.57346 0.953 0.000 0.000
v -0.28044 0.51786 2.64312 0.863 0.000 0.000
v -0.35856 0.52974 2.56446 1.000 0.000 0.000
v -0.35730 0.49950 2.58318 0.965 0.000 0.000
v -0.38538 0.50814 2.57598 0.976 0.000 0.000
v -0.29790 0.52218 2.69748 0.831 0.000 0.000
v -0.34632 0.48492 2.69262 0.875 0.000 0.000
v -0.35748 0.51696 2.72340 0.843 0.000 0.000
v -0.28044 0.51786 2.64312 0.863 0.000 0.000
v -0.47502 0.60210 2.44980 0.902 0.000 0.000
v -0.49212 0.63720 2.33748 0.902 0.000 0.000
v -0.48906 0.57024 2.44728 0.890 0.000 0.000
v -0.52110 0.58572 2.34090 0.902 0.000 0.000
v -0.50220 0.52632 2.33118 0.902 0.000 0.000
v -0.48096 0.53172 2.44692 0.902 0.000 0.000
v -0.46224 0.65340 2.32704 0.922 0.000 0.000
v -0.45576 0.61524 2.45232 0.922 0.000 0.000
v -0.41652 0.70164 2.33964 0.882 0.000 0.000
v -0.42624 0.64368 2.45646 0.882 0.000 0.000
v -0.39780 0.64962 2.45970 0.863 0.000 0.000
v -0.36414 0.70704 2.34954 0.843 0.000 0.000
v -0.36324 0.63198 2.46312 0.863 0.000 0.000
v -0.31086 0.68490 2.35980 0.843 0.000 0.000
v -0.30240 0.65070 2.36034 0.882 0.000 0.000
v -0.35928 0.61164 2.46294 0.882 0.000 0.000
v -0.25182 0.59292 2.38608 0.843 0.000 0.000
v -0.32274 0.57402 2.46582 0.863 0.000 0.000
v -0.35802 0.56466 2.52414 0.882 0.000 0.000
v -0.38430 0.60210 2.52522 0.882 0.000 0.000
v -0.42642 0.61236 2.52756 0.875 0.000 0.000
v -0.38268 0.59274 2.54502 0.882 0.000 0.000
v -0.41670 0.59814 2.55654 0.882 0.000 0.000
v -0.44370 0.57654 2.56788 0.882 0.000 0.000
v -0.45756 0.58248 2.52990 0.902 0.000 0.000
v -0.46170 0.53694 2.53098 0.902 0.000 0.000
v -0.44766 0.54054 2.57418 0.882 0.000 0.000
v -0.36144 0.56376 2.54016 0.882 0.000 0.000
v -0.48096 0.53172 2.44692 0.902 0.000 0.000
v -0.50220 0.52632 2.33118 0.902 0.000 0.000
v -0.44352 0.49410 2.44998 0.922 0.000 0.000
v -0.44208 0.46962 2.32434 0.925 0.000 0.000
v -0.44064 0.47376 2.44980 0.902 0.000 0.000
v -0.43506 0.43542 2.32470 0.902 0.000 0.000
v -0.38052 0.41364 2.33514 0.882 0.000 0.000
v -0.40518 0.45630 2.45322 0.882 0.000 0.000
v -0.34164 0.41544 2.34468 0.843 0.000 0.000
v -0.37764 0.46224 2.45646 0.882 0.000 0.000
v -0.34722 0.49068 2.46060 0.882 0.000 0.000
v -0.28242 0.46728 2.35782 0.882 0.000 0.000
v -0.26190 0.48186 2.37978 0.882 0.000 0.000
v -0.32886 0.50382 2.46312 0.882 0.000 0.000
v -0.31392 0.53568 2.46582 0.863 0.000 0.000
v -0.23580 0.53316 2.39868 0.843 0.000 0.000
v -0.25182 0.59292 2.38608 0.843 0.000 0.000
v -0.32274 0.57402 2.46582 0.863 0.000 0.000
v -0.43542 0.49932 2.52990 0.902 0.000 0.000
v -0.39330 0.48906 2.52756 0.875 0.000 0.000
v -0.42624 0.51156 2.56788 0.882 0.000 0.000
v -0.46170 0.53694 2.53098 0.902 0.000 0.000
v -0.44766 0.54054 2.57418 0.882 0.000 0.000
v -0.39222 0.50634 2.55654 0.882 0.000 0.000
v -0.36540 0.52794 2.54502 0.882 0.000 0.000
v -0.36216 0.51894 2.52522 0.882 0.000 0.000
v -0.35802 0.56466 2.52414 0.882 0.000 0.000
v -0.36144 0.56376 2.54016 0.882 0.000 0.000
v -0.29862 0.62856 2.67732 0.835 0.000 0.000
v -0.29448 0.62910 2.67012 0.824 0.000 0.000
v -0.31446 0.63198 2.69370 0.867 0.000 0.000
v -0.32130 0.63828 2.69388 0.882 0.000 0.000
v -0.31914 0.64044 2.68524 0.875 0.000 0.000
v -0.30150 0.63324 2.67246 0.835 0.000 0.000
v -0.32958 0.64206 2.69244 0.882 0.000 0.000
v -0.35388 0.63756 2.71098 0.863 0.000 0.000
v -0.34884 0.64008 2.70504 0.867 0.000 0.000
v -0.32490 0.63360 2.70090 0.875 0.000 0.000
v -0.34614 0.63576 2.70900 0.867 0.000 0.000
v -0.28944 0.51930 2.69388 0.882 0.000 0.000
v -0.27072 0.54054 2.67012 0.824 0.000 0.000
v -0.28656 0.52794 2.69370 0.867 0.000 0.000
v -0.27468 0.53892 2.67732 0.835 0.000 0.000
v -0.28638 0.51840 2.68524 0.875 0.000 0.000
v -0.27486 0.53334 2.67246 0.835 0.000 0.000
v -0.31806 0.50346 2.71098 0.863 0.000 0.000
v -0.29466 0.51192 2.69244 0.882 0.000 0.000
v -0.31230 0.50400 2.70504 0.867 0.000 0.000
v -0.29484 0.52146 2.70090 0.875 0.000 0.000
v -0.31212 0.50886 2.70900 0.867 0.000 0.000
v -0.45252 0.54954 3.03174 0.000 0.882 0.000
v -0.44154 0.54234 2.58588 0.000 0.824 0.000
v -0.45252 0.54954 2.58588 0.000 0.882 0.000
v -0.44154 0.54234 3.03174 0.000 0.824 0.000
v -0.44748 0.53046 2.58588 0.000 0.882 0.000
v -0.44748 0.53046 3.03174 0.000 0.882 0.000
v -0.45846 0.53766 2.58588 0.000 0.863 0.000
v -0.45846 0.53766 3.03174 0.000 0.843 0.000
v -0.35460 0.56556 2.55978 0.000 0.882 0.000
v -0.35082 0.56664 2.54898 0.000 0.824 0.000
v -0.37584 0.59454 2.56446 0.000 0.882 0.000
v -0.37530 0.60012 2.55456 0.000 0.824 0.000
v -0.38268 0.59274 2.54502 0.000 0.882 0.000
v -0.36144 0.56376 2.54016 0.000 0.882 0.000
v -0.35856 0.52974 2.56446 0.000 0.882 0.000
v -0.35532 0.52524 2.55456 0.000 0.824 0.000
v -0.36540 0.52794 2.54502 0.000 0.882 0.000
v -0.38628 0.50022 2.56770 0.000 0.824 0.000
v -0.38538 0.50814 2.57598 0.000 0.882 0.000
v -0.41940 0.51336 2.58750 0.000 0.882 0.000
v -0.42570 0.50634 2.58102 0.000 0.824 0.000
v -0.45000 0.54000 2.58804 0.000 0.824 0.000
v -0.44010 0.54270 2.59344 0.000 0.882 0.000
v -0.42624 0.51156 2.56788 0.000 0.882 0.000
v -0.44766 0.54054 2.57418 0.000 0.882 0.000
v -0.43686 0.57834 2.58750 0.000 0.882 0.000
v -0.44568 0.58122 2.58102 0.000 0.824 0.000
v -0.44370 0.57654 2.56788 0.000 0.882 0.000
v -0.39222 0.50634 2.55654 0.000 0.882 0.000
v -0.41472 0.60624 2.56770 0.000 0.824 0.000
v -0.41670 0.59814 2.55654 0.000 0.882 0.000
v -0.40986 0.59994 2.57598 0.000 0.882 0.000
v -0.31428 0.64296 2.64726 0.000 0.882 0.000
v -0.35712 0.56898 2.63736 0.000 0.961 0.000
v -0.34470 0.65520 2.65644 0.000 0.902 0.000
v -0.31248 0.64728 2.65914 0.000 0.843 0.000
v -0.33732 0.65718 2.66652 0.000 0.863 0.000
v -0.36558 0.65034 2.68254 0.000 0.882 0.000
v -0.35442 0.65322 2.68812 0.000 0.863 0.000
v -0.32202 0.63702 2.69298 0.000 0.804 0.000
v -0.35388 0.63756 2.71098 0.000 0.843 0.000
v -0.36486 0.63108 2.71062 0.000 0.882 0.000
v -0.33588 0.61938 2.72196 0.000 0.804 0.000
v -0.34308 0.60894 2.72394 0.000 0.843 0.000
v -0.35712 0.56898 2.63736 0.000 0.961 0.000
v -0.35712 0.56898 2.63736 0.000 0.961 0.000
v -0.32202 0.63702 2.69298 0.000 0.804 0.000
v -0.31248 0.64728 2.65914 0.000 0.843 0.000
v -0.29448 0.62910 2.67012 0.000 0.824 0.000
v -0.29394 0.61344 2.69298 0.000 0.824 0.000
v -0.33588 0.61938 2.72196 0.000 0.804 0.000
v -0.31104 0.60948 2.71458 0.000 0.804 0.000
v -0.32202 0.63702 2.69298 0.000 0.804 0.000
v -0.29160 0.60174 2.68866 0.000 0.863 0.000
v -0.29232 0.62082 2.66076 0.000 0.882 0.000
v -0.31248 0.64728 2.65914 0.000 0.843 0.000
v -0.31266 0.59688 2.71494 0.000 0.831 0.000
v -0.35712 0.56898 2.63736 0.000 0.961 0.000
v -0.35712 0.56898 2.63736 0.000 0.961 0.000
v -0.35712 0.56898 2.63736 0.000 0.961 0.000
v -0.34308 0.60894 2.72394 0.000 0.843 0.000
v -0.33588 0.61938 2.72196 0.000 0.804 0.000
v -0.35712 0.56898 2.63736 0.000 0.961 0.000
v -0.35712 0.56898 2.63736 0.000 0.961 0.000
v -0.30114 0.49302 2.65644 0.000 0.902 0.000
v -0.35514 0.56142 2.63736 0.000 0.961 0.000
v -0.28098 0.51858 2.64726 0.000 0.882 0.000
v -0.27720 0.51588 2.65914 0.000 0.843 0.000
v -0.29376 0.49482 2.66652 0.000 0.863 0.000
v -0.32184 0.48672 2.68254 0.000 0.882 0.000
v -0.31068 0.48978 2.68812 0.000 0.863 0.000
v -0.29070 0.52002 2.69298 0.000 0.804 0.000
v -0.31806 0.50364 2.71098 0.000 0.843 0.000
v -0.33084 0.50364 2.71062 0.000 0.882 0.000
v -0.31158 0.52830 2.72196 0.000 0.804 0.000
v -0.32292 0.53370 2.72394 0.000 0.843 0.000
v -0.35514 0.56142 2.63736 0.000 0.961 0.000
v -0.35514 0.56142 2.63736 0.000 0.961 0.000
v -0.27720 0.51588 2.65914 0.000 0.843 0.000
v -0.29070 0.52002 2.69298 0.000 0.804 0.000
v -0.27072 0.54054 2.67012 0.000 0.824 0.000
v -0.27810 0.55440 2.69298 0.000 0.824 0.000
v -0.31158 0.52830 2.72196 0.000 0.804 0.000
v -0.29502 0.54936 2.71458 0.000 0.804 0.000
v -0.29070 0.52002 2.69298 0.000 0.804 0.000
v -0.28206 0.56574 2.68866 0.000 0.863 0.000
v -0.27306 0.54882 2.66076 0.000 0.882 0.000
v -0.27720 0.51588 2.65914 0.000 0.843 0.000
v -0.30258 0.55944 2.71494 0.000 0.831 0.000
v -0.35514 0.56142 2.63736 0.000 0.961 0.000
v -0.35514 0.56142 2.63736 0.000 0.961 0.000
v -0.35514 0.56142 2.63736 0.000 0.961 0.000
v -0.31158 0.52830 2.72196 0.000 0.804 0.000
v -0.32292 0.53370 2.72394 0.000 0.843 0.000
v -0.35514 0.56142 2.63736 0.000 0.961 0.000
v -0.35514 0.56142 2.63736 0.000 0.961 0.000
v -0.44244 0.53100 2.57220 0.000 0.882 0.000
v -0.43938 0.54666 2.57112 0.000 0.922 0.000
v -0.43848 0.52038 2.58570 0.000 0.843 0.000
v -0.42588 0.52290 2.59074 0.000 0.882 0.000
v -0.44910 0.52722 2.59650 0.000 0.804 0.000
v -0.44226 0.55386 2.58030 0.000 0.922 0.000
v -0.45954 0.53748 2.58498 0.000 0.882 0.000
v -0.43452 0.53334 2.60136 0.000 0.882 0.000
v -0.44244 0.53100 2.57220 0.000 0.882 0.000
v -0.43848 0.52038 2.58570 0.000 0.843 0.000
v -0.42588 0.52290 2.59074 0.000 0.882 0.000
v -0.45612 0.55026 2.59956 0.000 0.843 0.000
v -0.46206 0.53676 2.58498 0.000 0.804 0.000
v -0.43992 0.53982 2.58552 0.000 0.922 0.000
v -0.44118 0.55188 2.60064 0.000 0.882 0.000
v -0.43866 0.52758 2.57022 0.000 0.882 0.000
v -0.45216 0.56754 2.58660 0.000 0.882 0.000
v -0.45558 0.55368 2.57094 0.000 0.882 0.000
v -0.45036 0.53982 2.56338 0.000 0.882 0.000
v -0.43668 0.57078 2.59218 0.000 0.882 0.000
v -0.44208 0.55566 2.57778 0.000 0.922 0.000
v -0.45558 0.55368 2.57094 0.000 0.882 0.000
v -0.45216 0.56754 2.58660 0.000 0.882 0.000
v -0.43668 0.57078 2.59218 0.000 0.882 0.000
v -0.45036 0.53982 2.56338 0.000 0.882 0.000
v -0.29502 -0.54936 2.71458 0.824 0.000 0.000
v -0.28944 -0.51930 2.69388 0.882 0.000 0.000
v -0.29484 -0.52146 2.70090 0.875 0.000 0.000
v -0.29628 -0.54162 2.71260 0.835 0.000 0.000
v -0.28656 -0.52812 2.69370 0.867 0.000 0.000
v -0.29214 -0.54450 2.70846 0.835 0.000 0.000
v -0.28638 -0.51840 2.68524 0.875 0.000 0.000
v -0.29376 -0.49482 2.66652 0.863 0.000 0.000
v -0.29052 -0.50184 2.66976 0.867 0.000 0.000
v -0.29466 -0.51192 2.69244 0.882 0.000 0.000
v -0.29556 -0.49788 2.67444 0.867 0.000 0.000
v -0.32490 -0.63360 2.70090 0.875 0.000 0.000
v -0.32130 -0.63828 2.69388 0.882 0.000 0.000
v -0.31122 -0.60948 2.71458 0.824 0.000 0.000
v -0.31608 -0.61560 2.71260 0.835 0.000 0.000
v -0.31446 -0.63216 2.69370 0.867 0.000 0.000
v -0.31104 -0.61506 2.70846 0.835 0.000 0.000
v -0.33732 -0.65718 2.66652 0.863 0.000 0.000
v -0.31914 -0.64062 2.68524 0.875 0.000 0.000
v -0.33084 -0.65286 2.66976 0.867 0.000 0.000
v -0.32958 -0.64206 2.69244 0.882 0.000 0.000
v -0.33732 -0.65376 2.67444 0.867 0.000 0.000
v -0.29016 -0.58284 2.69964 0.804 0.000 0.000
v -0.27126 -0.58788 2.64222 0.843 0.000 0.000
v -0.28044 -0.51786 2.64312 0.863 0.000 0.000
v -0.28404 -0.58446 2.59686 0.882 0.000 0.000
v -0.29250 -0.51948 2.60028 0.902 0.000 0.000
v -0.32058 -0.52848 2.57346 0.953 0.000 0.000
v -0.31536 -0.57618 2.56968 0.941 0.000 0.000
v -0.35856 -0.52974 2.56446 1.000 0.000 0.000
v -0.35730 -0.49950 2.58318 0.965 0.000 0.000
v -0.38538 -0.50814 2.57598 0.976 0.000 0.000
v -0.34452 -0.47970 2.60838 0.953 0.000 0.000
v -0.33642 -0.47484 2.64546 0.902 0.000 0.000
v -0.28044 -0.51786 2.64312 0.863 0.000 0.000
v -0.35460 -0.56556 2.55978 1.000 0.000 0.000
v -0.40644 -0.48402 2.64762 0.922 0.000 0.000
v -0.40536 -0.49338 2.68776 0.882 0.000 0.000
v -0.34632 -0.48510 2.69262 0.875 0.000 0.000
v -0.35748 -0.51696 2.72340 0.843 0.000 0.000
v -0.39240 -0.52164 2.72052 0.863 0.000 0.000
v -0.44262 -0.54198 2.68560 0.882 0.000 0.000
v -0.44946 -0.54018 2.64870 0.922 0.000 0.000
v -0.41382 -0.54972 2.71944 0.863 0.000 0.000
v -0.37008 -0.56142 2.73276 0.843 0.000 0.000
v -0.35748 -0.51696 2.72340 0.843 0.000 0.000
v -0.32958 -0.53856 2.72628 0.824 0.000 0.000
v -0.32508 -0.57348 2.72736 0.824 0.000 0.000
v -0.29790 -0.52218 2.69748 0.831 0.000 0.000
v -0.44946 -0.54018 2.61972 0.941 0.000 0.000
v -0.40950 -0.48816 2.61630 0.953 0.000 0.000
v -0.41940 -0.51336 2.58750 0.965 0.000 0.000
v -0.34632 -0.48510 2.69262 0.875 0.000 0.000
v -0.35748 -0.51696 2.72340 0.843 0.000 0.000
v -0.28044 -0.51786 2.64312 0.863 0.000 0.000
v -0.44010 -0.54270 2.59344 0.961 0.000 0.000
v -0.34650 -0.60156 2.72628 0.824 0.000 0.000
v -0.38142 -0.60624 2.72340 0.843 0.000 0.000
v -0.40932 -0.58464 2.72052 0.863 0.000 0.000
v -0.43470 -0.60264 2.68776 0.882 0.000 0.000
v -0.38142 -0.60624 2.72340 0.843 0.000 0.000
v -0.38772 -0.63954 2.69262 0.875 0.000 0.000
v -0.38430 -0.65322 2.64546 0.902 0.000 0.000
v -0.44028 -0.61020 2.64762 0.922 0.000 0.000
v -0.44082 -0.60516 2.61630 0.953 0.000 0.000
v -0.43686 -0.57834 2.58750 0.965 0.000 0.000
v -0.38880 -0.64512 2.60838 0.953 0.000 0.000
v -0.32382 -0.63648 2.60028 0.902 0.000 0.000
v -0.31428 -0.64404 2.64312 0.863 0.000 0.000
v -0.34362 -0.61470 2.57346 0.953 0.000 0.000
v -0.31428 -0.64404 2.64312 0.863 0.000 0.000
v -0.37584 -0.59454 2.56446 1.000 0.000 0.000
v -0.39006 -0.62136 2.58318 0.965 0.000 0.000
v -0.40986 -0.59994 2.57598 0.976 0.000 0.000
v -0.32724 -0.63144 2.69748 0.831 0.000 0.000
v -0.38772 -0.63954 2.69262 0.875 0.000 0.000
v -0.38142 -0.60624 2.72340 0.843 0.000 0.000
v -0.31428 -0.64404 2.64312 0.863 0.000 0.000
v -0.44064 -0.47376 2.44980 0.902 0.000 0.000
v -0.43776 -0.43488 2.33748 0.902 0.000 0.000
v -0.46872 -0.49428 2.44728 0.890 0.000 0.000
v -0.48888 -0.46494 2.34090 0.902 0.000 0.000
v -0.50220 -0.52578 2.33118 0.902 0.000 0.000
v -0.48096 -0.53172 2.44692 0.902 0.000 0.000
v -0.40374 -0.43560 2.32704 0.922 0.000 0.000
v -0.41742 -0.47196 2.45232 0.922 0.000 0.000
v -0.34020 -0.41670 2.33964 0.882 0.000 0.000
v -0.37764 -0.46224 2.45646 0.882 0.000 0.000
v -0.34992 -0.47106 2.45970 0.863 0.000 0.000
v -0.29214 -0.43830 2.34954 0.843 0.000 0.000
v -0.32886 -0.50382 2.46312 0.863 0.000 0.000
v -0.25704 -0.48402 2.35980 0.843 0.000 0.000
v -0.26676 -0.51786 2.36034 0.882 0.000 0.000
v -0.33570 -0.52326 2.46294 0.882 0.000 0.000
v -0.25182 -0.59328 2.38608 0.843 0.000 0.000
v -0.32274 -0.57402 2.46582 0.863 0.000 0.000
v -0.35802 -0.56466 2.52414 0.882 0.000 0.000
v -0.36216 -0.51894 2.52522 0.882 0.000 0.000
v -0.39330 -0.48906 2.52756 0.875 0.000 0.000
v -0.36540 -0.52794 2.54502 0.882 0.000 0.000
v -0.39222 -0.50634 2.55654 0.882 0.000 0.000
v -0.42624 -0.51156 2.56788 0.882 0.000 0.000
v -0.43542 -0.49932 2.52990 0.902 0.000 0.000
v -0.46170 -0.53694 2.53098 0.902 0.000 0.000
v -0.44766 -0.54054 2.57418 0.882 0.000 0.000
v -0.36144 -0.56376 2.54016 0.882 0.000 0.000
v -0.48096 -0.53172 2.44692 0.902 0.000 0.000
v -0.50220 -0.52578 2.33118 0.902 0.000 0.000
v -0.46728 -0.58302 2.44998 0.922 0.000 0.000
v -0.47826 -0.60498 2.32434 0.925 0.000 0.000
v -0.47502 -0.60210 2.44980 0.902 0.000 0.000
v -0.48942 -0.63792 2.32470 0.902 0.000 0.000
v -0.45306 -0.68418 2.33514 0.882 0.000 0.000
v -0.45306 -0.63486 2.45322 0.882 0.000 0.000
v -0.41850 -0.70200 2.34468 0.843 0.000 0.000
v -0.42624 -0.64368 2.45646 0.882 0.000 0.000
v -0.38556 -0.63414 2.46060 0.882 0.000 0.000
v -0.34128 -0.68670 2.35782 0.882 0.000 0.000
v -0.31626 -0.68436 2.37978 0.882 0.000 0.000
v -0.36324 -0.63198 2.46312 0.882 0.000 0.000
v -0.33426 -0.61182 2.46582 0.863 0.000 0.000
v -0.26784 -0.65286 2.39868 0.843 0.000 0.000
v -0.25182 -0.59328 2.38608 0.843 0.000 0.000
v -0.32274 -0.57402 2.46582 0.863 0.000 0.000
v -0.45756 -0.58248 2.52990 0.902 0.000 0.000
v -0.42642 -0.61236 2.52756 0.875 0.000 0.000
v -0.44370 -0.57654 2.56788 0.882 0.000 0.000
v -0.46170 -0.53694 2.53098 0.902 0.000 0.000
v -0.44766 -0.54054 2.57418 0.882 0.000 0.000
v -0.41670 -0.59814 2.55654 0.882 0.000 0.000
v -0.38268 -0.59274 2.54502 0.882 0.000 0.000
v -0.38430 -0.60210 2.52522 0.882 0.000 0.000
v -0.35802 -0.56466 2.52414 0.882 0.000 0.000
v -0.36144 -0.56376 2.54016 0.882 0.000 0.000
v -0.27468 -0.53892 2.67732 0.835 0.000 0.000
v -0.27072 -0.54054 2.67012 0.824 0.000 0.000
v -0.28656 -0.52812 2.69370 0.867 0.000 0.000
v -0.28944 -0.51930 2.69388 0.882 0.000 0.000
v -0.28638 -0.51840 2.68524 0.875 0.000 0.000
v -0.27486 -0.53334 2.67246 0.835 0.000 0.000
v -0.29466 -0.51192 2.69244 0.882 0.000 0.000
v -0.31806 -0.50364 2.71098 0.863 0.000 0.000
v -0.31230 -0.50400 2.70504 0.867 0.000 0.000
v -0.29484 -0.52146 2.70090 0.875 0.000 0.000
v -0.31212 -0.50886 2.70900 0.867 0.000 0.000
v -0.32130 -0.63828 2.69388 0.882 0.000 0.000
v -0.29448 -0.62910 2.67012 0.824 0.000 0.000
v -0.31446 -0.63216 2.69370 0.867 0.000 0.000
v -0.29862 -0.62856 2.67732 0.835 0.000 0.000
v -0.31914 -0.64062 2.68524 0.875 0.000 0.000
v -0.30150 -0.63342 2.67246 0.835 0.000 0.000
v -0.35388 -0.63756 2.71098 0.863 0.000 0.000
v -0.32958 -0.64206 2.69244 0.882 0.000 0.000
v -0.34884 -0.64008 2.70504 0.867 0.000 0.000
v -0.32490 -0.63360 2.70090 0.875 0.000 0.000
v -0.34614 -0.63594 2.70900 0.867 0.000 0.000
v -0.44748 -0.53046 3.03174 0.000 0.000 0.882
v -0.44154 -0.54234 2.58588 0.000 0.000 0.824
v -0.44748 -0.53046 2.58588 0.000 0.000 0.882
v -0.44154 -0.54234 3.03174 0.000 0.000 0.824
v -0.45252 -0.54954 2.58588 0.000 0.000 0.882
v -0.45252 -0.54954 3.03174 0.000 0.000 0.882
v -0.45846 -0.53766 2.58588 0.000 0.000 0.863
v -0.45846 -0.53766 3.03174 0.000 0.000 0.843
v -0.35460 -0.56556 2.55978 0.000 0.000 0.882
v -0.35082 -0.56664 2.54898 0.000 0.000 0.824
v -0.35856 -0.52974 2.56446 0.000 0.000 0.882
v -0.35532 -0.52524 2.55456 0.000 0.000 0.824
v -0.36540 -0.52794 2.54502 0.000 0.000 0.882
v -0.36144 -0.56376 2.54016 0.000 0.000 0.882
v -0.37584 -0.59454 2.56446 0.000 0.000 0.882
v -0.37530 -0.60012 2.55456 0.000 0.000 0.824
v -0.38268 -0.59274 2.54502 0.000 0.000 0.882
v -0.41472 -0.60624 2.56770 0.000 0.000 0.824
v -0.40986 -0.59994 2.57598 0.000 0.000 0.882
v -0.43686 -0.57834 2.58750 0.000 0.000 0.882
v -0.44568 -0.58122 2.58102 0.000 0.000 0.824
v -0.45000 -0.54000 2.58804 0.000 0.000 0.824
v -0.44010 -0.54270 2.59344 0.000 0.000 0.882
v -0.44370 -0.57654 2.56788 0.000 0.000 0.882
v -0.44766 -0.54054 2.57418 0.000 0.000 0.882
v -0.41940 -0.51336 2.58750 0.000 0.000 0.882
v -0.42570 -0.50634 2.58102 0.000 0.000 0.824
v -0.42624 -0.51156 2.56788 0.000 0.000 0.882
v -0.41670 -0.59814 2.55654 0.000 0.000 0.882
v -0.38628 -0.50022 2.56770 0.000 0.000 0.824
v -0.39222 -0.50634 2.55654 0.000 0.000 0.882
v -0.38538 -0.50814 2.57598 0.000 0.000 0.882
v -0.28098 -0.51858 2.64726 0.000 0.000 0.882
v -0.35514 -0.56142 2.63736 0.000 0.000 0.961
v -0.30114 -0.49302 2.65644 0.000 0.000 0.902
v -0.27720 -0.51588 2.65914 0.000 0.000 0.843
v -0.29376 -0.49482 2.66652 0.000 0.000 0.863
v -0.32184 -0.48672 2.68254 0.000 0.000 0.882
v -0.31068 -0.48978 2.68812 0.000 0.000 0.863
v -0.29070 -0.52002 2.69298 0.000 0.000 0.804
v -0.31806 -0.50364 2.71098 0.000 0.000 0.843
v -0.33084 -0.50364 2.71062 0.000 0.000 0.882
v -0.31158 -0.52830 2.72196 0.000 0.000 0.804
v -0.32292 -0.53370 2.72394 0.000 0.000 0.843
v -0.35514 -0.56142 2.63736 0.000 0.000 0.961
v -0.35514 -0.56142 2.63736 0.000 0.000 0.961
v -0.29070 -0.52002 2.69298 0.000 0.000 0.804
v -0.27720 -0.51588 2.65914 0.000 0.000 0.843
v -0.27072 -0.54054 2.67012 0.000 0.000 0.824
v -0.27810 -0.55440 2.69298 0.000 0.000 0.824
v -0.31158 -0.52830 2.72196 0.000 0.000 0.804
v -0.29502 -0.54936 2.71458 0.000 0.000 0.804
v -0.29070 -0.52002 2.69298 0.000 0.000 0.804
v -0.28206 -0.56574 2.68866 0.000 0.000 0.863
v -0.27306 -0.54882 2.66076 0.000 0.000 0.882
v -0.27720 -0.51588 2.65914 0.000 0.000 0.843
v -0.30258 -0.55944 2.71494 0.000 0.000 0.831
v -0.35514 -0.56142 2.63736 0.000 0.000 0.961
v -0.35514 -0.56142 2.63736 0.000 0.000 0.961
v -0.35514 -0.56142 2.63736 0.000 0.000 0.961
v -0.32292 -0.53370 2.72394 0.000 0.000 0.843
v -0.31158 -0.52830 2.72196 0.000 0.000 0.804
v -0.35514 -0.56142 2.63736 0.000 0.000 0.961
v -0.35514 -0.56142 2.63736 0.000 0.000 0.961
v -0.34470 -0.65520 2.65644 0.000 0.000 0.902
v -0.35712 -0.56898 2.63736 0.000 0.000 0.961
v -0.31428 -0.64296 2.64726 0.000 0.000 0.882
v -0.31248 -0.64728 2.65914 0.000 0.000 0.843
v -0.33732 -0.65718 2.66652 0.000 0.000 0.863
v -0.36558 -0.65034 2.68254 0.000 0.000 0.882
v -0.35442 -0.65322 2.68812 0.000 0.000 0.863
v -0.32202 -0.63702 2.69298 0.000 0.000 0.804
v -0.35388 -0.63756 2.71098 0.000 0.000 0.843
v -0.36486 -0.63108 2.71062 0.000 0.000 0.882
v -0.33588 -0.61938 2.72196 0.000 0.000 0.804
v -0.34308 -0.60894 2.72394 0.000 0.000 0.843
v -0.35712 -0.56898 2.63736 0.000 0.000 0.961
v -0.35712 -0.56898 2.63736 0.000 0.000 0.961
v -0.31248 -0.64728 2.65914 0.000 0.000 0.843
v -0.32202 -0.63702 2.69298 0.000 0.000 0.804
v -0.29448 -0.62910 2.67012 0.000 0.000 0.824
v -0.29394 -0.61344 2.69298 0.000 0.000 0.824
v -0.33588 -0.61938 2.72196 0.000 0.000 0.804
v -0.31104 -0.60948 2.71458 0.000 0.000 0.804
v -0.32202 -0.63702 2.69298 0.000 0.000 0.804
v -0.29160 -0.60174 2.68866 0.000 0.000 0.863
v -0.29232 -0.62082 2.66076 0.000 0.000 0.882
v -0.31248 -0.64728 2.65914 0.000 0.000 0.843
v -0.31266 -0.59688 2.71494 0.000 0.000 0.831
v -0.35712 -0.56898 2.63736 0.000 0.000 0.961
v -0.35712 -0.56898 2.63736 0.000 0.000 0.961
v -0.35712 -0.56898 2.63736 0.000 0.000 0.961
v -0.33588 -0.61938 2.72196 0.000 0.000 0.804
v -0.34308 -0.60894 2.72394 0.000 0.000 0.843
v -0.35712 -0.56898 2.63736 0.000 0.000 0.961
v -0.35712 -0.56898 2.63736 0.000 0.000 0.961
v -0.44802 -0.55152 2.57220 0.000 0.000 0.882
v -0.43758 -0.53946 2.57112 0.000 0.000 0.922
v -0.45000 -0.56268 2.58570 0.000 0.000 0.843
v -0.43758 -0.56700 2.59074 0.000 0.000 0.882
v -0.45558 -0.55152 2.59650 0.000 0.000 0.804
v -0.43632 -0.53190 2.58030 0.000 0.000 0.922
v -0.45954 -0.53748 2.58498 0.000 0.000 0.882
v -0.43992 -0.55350 2.60136 0.000 0.000 0.882
v -0.44802 -0.55152 2.57220 0.000 0.000 0.882
v -0.45000 -0.56268 2.58570 0.000 0.000 0.843
v -0.43758 -0.56700 2.59074 0.000 0.000 0.882
v -0.45018 -0.52794 2.59956 0.000 0.000 0.843
v -0.46206 -0.53676 2.58498 0.000 0.000 0.804
v -0.44136 -0.54522 2.58552 0.000 0.000 0.922
v -0.43650 -0.53406 2.60064 0.000 0.000 0.882
v -0.44640 -0.55638 2.57022 0.000 0.000 0.882
v -0.43812 -0.51498 2.58660 0.000 0.000 0.882
v -0.44802 -0.52524 2.57094 0.000 0.000 0.882
v -0.45036 -0.54000 2.56338 0.000 0.000 0.882
v -0.42300 -0.52002 2.59218 0.000 0.000 0.882
v -0.43542 -0.53046 2.57778 0.000 0.000 0.922
v -0.44802 -0.52524 2.57094 0.000 0.000 0.882
v -0.43812 -0.51498 2.58660 0.000 0.000 0.882
v -0.42300 -0.52002 2.59218 0.000 0.000 0.882
v -0.45036 -0.54000 2.56338 0.000 0.000 0.882
vt 0.10156 0.08594
vt 0.10156 0.00781
vt 0.39844 0.08594
vt 0.39844 0.00781
vt 0.39844 0.08594
vt 0.10156 0.00781
vt 0.10156 0.08594
vt 0.39844 0.00781
vt 0.17969 0.08594
vt 0.17969 0.00781
vt 0.49219 0.00781
vt 0.49219 0.08594
vt 0.49219 0.00781
vt 0.17969 0.00781
vt 0.17969 0.08594
vt 0.49219 0.08594
vt 0.32031 0.08594
vt 0.05469 0.00781
vt 0.32031 0.00781
vt 0.05469 0.08594
vt 0.32031 0.00781
vt 0.05469 0.00781
vt 0.32031 0.08594
vt 0.05469 0.08594
vt 0.27344 0.08594
vt 0.00781 0.00781
vt 0.27344 0.00781
vt 0.00781 0.08594
vt 0.27344 0.00781
vt 0.00781 0.00781
vt 0.27344 0.08594
vt 0.00781 0.08594
vt 0.49219 0.08594
vt 0.17969 0.08594
vt 0.17969 0.00781
vt 0.49219 0.00781
vt 0.17969 0.00781
vt 0.17969 0.08594
vt 0.49219 0.08594
vt 0.49219 0.00781
vt 0.39844 0.08594
vt 0.13281 0.00781
vt 0.39844 0.00781
vt 0.13281 0.08594
vt 0.39844 0.00781
vt 0.13281 0.00781
vt 0.39844 0.08594
vt 0.13281 0.08594
vt 0.36719 0.10156
vt 0.19531 0.08594
vt 0.22656 0.22656
vt 0.36719 0.08594
vt 0.53906 0.08594
vt 0.36719 0.10156
vt 0.50781 0.22656
vt 0.50781 0.22656
vt 0.36719 0.35156
vt 0.60156 0.22656
vt 0.36719 0.35156
vt 0.22656 0.22656
vt 0.13281 0.22656
vt 0.13281 0.22656
vt 0.00781 0.08594
vt 0.07031 0.35156
vt 0.60156 0.22656
vt 0.74219 0.08594
vt 0.66406 0.35156
vt 0.24219 0.35156
vt 0.36719 0.44531
vt 0.49219 0.35156
vt 0.24219 0.35156
vt 0.49219 0.35156
vt 0.78906 0.33594
vt 0.78906 0.47656
vt 0.64844 0.33594
vt 0.64844 0.47656
vt 0.64844 0.47656
vt 0.78906 0.33594
vt 0.78906 0.47656
vt 0.64844 0.33594
vt 0.64844 0.47656
vt 0.64844 0.33594
vt 0.78906 0.33594
vt 0.78906 0.47656
vt 0.64844 0.47656
vt 0.78906 0.33594
vt 0.78906 0.47656
vt 0.64844 0.33594
vt 0.78906 0.33594
vt 0.78906 0.47656
vt 0.64844 0.33594
vt 0.64844 0.47656
vt 0.64844 0.47656
vt 0.64844 0.33594
vt 0.78906 0.33594
vt 0.78906 0.47656
vt 0.78906 0.47656
vt 0.78906 0.33594
vt 0.64844 0.47656
vt 0.64844 0.33594
vt 0.64844 0.47656
vt 0.64844 0.33594
vt 0.78906 0.33594
vt 0.78906 0.47656
vt 0.64844 0.47656
vt 0.64844 0.33594
vt 0.78906 0.33594
vt 0.78906 0.47656
vt 0.22656 0.22656
vt 0.19531 0.08594
vt 0.36719 0.10156
vt 0.36719 0.08594
vt 0.53906 0.08594
vt 0.36719 0.10156
vt 0.50781 0.22656
vt 0.50781 0.22656
vt 0.36719 0.35156
vt 0.60156 0.22656
vt 0.36719 0.35156
vt 0.22656 0.22656
vt 0.13281 0.22656
vt 0.13281 0.22656
vt 0.00781 0.08594
vt 0.07031 0.35156
vt 0.60156 0.22656
vt 0.74219 0.08594
vt 0.66406 0.35156
vt 0.24219 0.35156
vt 0.36719 0.44531
vt 0.49219 0.35156
vt 0.24219 0.35156
vt 0.49219 0.35156
vt 0.64844 0.33594
vt 0.78906 0.47656
vt 0.78906 0.33594
vt 0.64844 0.47656
vt 0.78906 0.47656
vt 0.78906 0.33594
vt 0.64844 0.47656
vt 0.64844 0.33594
vt 0.78906 0.33594
vt 0.64844 0.33594
vt 0.64844 0.47656
vt 0.78906 0.47656
vt 0.78906 0.47656
vt 0.78906 0.33594
vt 0.64844 0.47656
vt 0.64844 0.33594
vt 0.64844 0.33594
vt 0.78906 0.47656
vt 0.78906 0.33594
vt 0.64844 0.47656
vt 0.78906 0.33594
vt 0.64844 0.33594
vt 0.64844 0.47656
vt 0.78906 0.47656
vt 0.64844 0.47656
vt 0.78906 0.33594
vt 0.78906 0.47656
vt 0.64844 0.33594
vt 0.78906 0.33594
vt 0.64844 0.33594
vt 0.64844 0.47656
vt 0.78906 0.47656
vt 0.78906 0.33594
vt 0.64844 0.33594
vt 0.64844 0.47656
vt 0.78906 0.47656
vt 0.64844 0.47656
vt 0.78906 0.33594
vt 0.78906 0.47656
vt 0.64844 0.33594
vt 0.64844 0.47656
vt 0.78906 0.33594
vt 0.78906 0.47656
vt 0.64844 0.33594
vt 0.78906 0.47656
vt 0.78906 0.33594
vt 0.64844 0.47656
vt 0.64844 0.33594
vt 0.78906 0.47656
vt 0.78906 0.33594
vt 0.64844 0.47656
vt 0.64844 0.33594
vt 0.64844 0.47656
vt 0.78906 0.33594
vt 0.78906 0.47656
vt 0.64844 0.33594
vt 0.78906 0.47656
vt 0.78906 0.33594
vt 0.64844 0.47656
vt 0.64844 0.33594
vt 0.99219 0.33594
vt 0.89844 0.33594
vt 0.91406 0.35156
vt 0.99219 0.35156
vt 0.91406 0.32031
vt 0.99219 0.32031
vt 0.88281 0.32031
vt 0.80469 0.33594
vt 0.80469 0.32031
vt 0.88281 0.35156
vt 0.80469 0.35156
vt 0.91406 0.35156
vt 0.89844 0.33594
vt 0.99219 0.33594
vt 0.99219 0.35156
vt 0.91406 0.32031
vt 0.99219 0.32031
vt 0.80469 0.33594
vt 0.88281 0.32031
vt 0.80469 0.32031
vt 0.88281 0.35156
vt 0.80469 0.35156
vt 0.99219 0.92969
vt 0.99219 0.82031
vt 0.91406 0.82031
vt 0.99219 0.74219
vt 0.91406 0.74219
vt 0.89844 0.69531
vt 0.97656 0.69531
vt 0.86719 0.64844
vt 0.80469 0.67969
vt 0.80469 0.64844
vt 0.80469 0.74219
vt 0.80469 0.82031
vt 0.91406 0.82031
vt 0.92969 0.64844
vt 0.72656 0.82031
vt 0.72656 0.89844
vt 0.80469 0.89844
vt 0.80469 0.94531
vt 0.75781 0.94531
vt 0.66406 0.94531
vt 0.66406 0.82031
vt 0.72656 0.97656
vt 0.80469 0.99219
vt 0.80469 0.94531
vt 0.88281 0.94531
vt 0.91406 0.97656
vt 0.91406 0.89844
vt 0.66406 0.74219
vt 0.72656 0.74219
vt 0.72656 0.64844
vt 0.80469 0.89844
vt 0.80469 0.94531
vt 0.91406 0.82031
vt 0.66406 0.64844
vt 0.88281 0.94531
vt 0.80469 0.94531
vt 0.75781 0.94531
vt 0.72656 0.89844
vt 0.80469 0.94531
vt 0.80469 0.89844
vt 0.80469 0.82031
vt 0.72656 0.82031
vt 0.72656 0.74219
vt 0.72656 0.64844
vt 0.80469 0.74219
vt 0.91406 0.74219
vt 0.91406 0.82031
vt 0.89844 0.69531
vt 0.91406 0.82031
vt 0.86719 0.64844
vt 0.80469 0.67969
vt 0.80469 0.64844
vt 0.91406 0.89844
vt 0.80469 0.89844
vt 0.80469 0.94531
vt 0.91406 0.82031
vt 0.19531 0.88281
vt 0.00781 0.88281
vt 0.19531 0.92969
vt 0.00781 0.92969
vt 0.00781 0.99219
vt 0.19531 0.99219
vt 0.00781 0.83594
vt 0.19531 0.83594
vt 0.00781 0.77344
vt 0.19531 0.77344
vt 0.19531 0.72656
vt 0.00781 0.72656
vt 0.19531 0.67969
vt 0.00781 0.67969
vt 0.00781 0.63281
vt 0.19531 0.63281
vt 0.00781 0.57031
vt 0.19531 0.57031
vt 0.28906 0.57031
vt 0.28906 0.67969
vt 0.28906 0.77344
vt 0.32031 0.67969
vt 0.32031 0.77344
vt 0.32031 0.88281
vt 0.28906 0.88281
vt 0.28906 0.99219
vt 0.32031 0.99219
vt 0.32031 0.57031
vt 0.52344 0.99219
vt 0.33594 0.99219
vt 0.52344 0.91406
vt 0.33594 0.91406
vt 0.52344 0.86719
vt 0.33594 0.86719
vt 0.33594 0.83594
vt 0.52344 0.83594
vt 0.33594 0.77344
vt 0.52344 0.77344
vt 0.52344 0.72656
vt 0.33594 0.72656
vt 0.33594 0.67969
vt 0.52344 0.67969
vt 0.52344 0.63281
vt 0.33594 0.63281
vt 0.33594 0.57031
vt 0.52344 0.57031
vt 0.61719 0.88281
vt 0.61719 0.77344
vt 0.64844 0.88281
vt 0.61719 0.99219
vt 0.64844 0.99219
vt 0.64844 0.77344
vt 0.64844 0.67969
vt 0.61719 0.67969
vt 0.61719 0.57031
vt 0.64844 0.57031
vt 0.99219 0.30469
vt 0.99219 0.28906
vt 0.91406 0.30469
vt 0.89844 0.28906
vt 0.91406 0.27344
vt 0.99219 0.27344
vt 0.88281 0.27344
vt 0.80469 0.28906
vt 0.80469 0.27344
vt 0.88281 0.30469
vt 0.80469 0.30469
vt 0.89844 0.28906
vt 0.99219 0.28906
vt 0.91406 0.30469
vt 0.99219 0.30469
vt 0.91406 0.27344
vt 0.99219 0.27344
vt 0.80469 0.28906
vt 0.88281 0.27344
vt 0.80469 0.27344
vt 0.88281 0.30469
vt 0.80469 0.30469
vt 0.00781 0.52344
vt 0.78906 0.55469
vt 0.78906 0.52344
vt 0.00781 0.55469
vt 0.78906 0.52344
vt 0.00781 0.52344
vt 0.78906 0.49219
vt 0.00781 0.49219
vt 0.66406 0.63281
vt 0.66406 0.60156
vt 0.75781 0.63281
vt 0.75781 0.60156
vt 0.75781 0.57031
vt 0.66406 0.57031
vt 0.75781 0.63281
vt 0.75781 0.60156
vt 0.75781 0.57031
vt 0.85156 0.60156
vt 0.85156 0.63281
vt 0.92969 0.63281
vt 0.92969 0.60156
vt 0.99219 0.60156
vt 0.99219 0.63281
vt 0.92969 0.57031
vt 0.99219 0.57031
vt 0.92969 0.63281
vt 0.92969 0.60156
vt 0.92969 0.57031
vt 0.85156 0.57031
vt 0.85156 0.60156
vt 0.85156 0.57031
vt 0.85156 0.63281
vt 0.89844 0.36719
vt 0.85156 0.36719
vt 0.82031 0.38281
vt 0.89844 0.39844
vt 0.85156 0.41406
vt 0.80469 0.46094
vt 0.83594 0.46094
vt 0.89844 0.46094
vt 0.85156 0.50781
vt 0.82031 0.53906
vt 0.89844 0.52344
vt 0.89844 0.55469
vt 0.80469 0.41406
vt 0.80469 0.52344
vt 0.89844 0.46094
vt 0.89844 0.39844
vt 0.94531 0.41406
vt 0.96094 0.46094
vt 0.89844 0.52344
vt 0.94531 0.50781
vt 0.89844 0.46094
vt 0.99219 0.46094
vt 0.97656 0.38281
vt 0.89844 0.39844
vt 0.97656 0.53906
vt 0.99219 0.52344
vt 0.94531 0.36719
vt 0.99219 0.39844
vt 0.89844 0.55469
vt 0.89844 0.52344
vt 0.94531 0.55469
vt 0.85156 0.55469
vt 0.82031 0.38281
vt 0.85156 0.36719
vt 0.89844 0.36719
vt 0.89844 0.39844
vt 0.85156 0.41406
vt 0.80469 0.46094
vt 0.83594 0.46094
vt 0.89844 0.46094
vt 0.85156 0.50781
vt 0.82031 0.53906
vt 0.89844 0.52344
vt 0.89844 0.55469
vt 0.80469 0.41406
vt 0.80469 0.52344
vt 0.89844 0.39844
vt 0.89844 0.46094
vt 0.94531 0.41406
vt 0.96094 0.46094
vt 0.89844 0.52344
vt 0.94531 0.50781
vt 0.89844 0.46094
vt 0.99219 0.46094
vt 0.97656 0.38281
vt 0.89844 0.39844
vt 0.97656 0.53906
vt 0.99219 0.52344
vt 0.94531 0.36719
vt 0.99219 0.39844
vt 0.89844 0.52344
vt 0.89844 0.55469
vt 0.94531 0.55469
vt 0.85156 0.55469
vt 0.99219 0.19531
vt 0.91406 0.14844
vt 0.91406 0.19531
vt 0.88281 0.19531
vt 0.91406 0.19531
vt 0.91406 0.14844
vt 0.99219 0.19531
vt 0.88281 0.19531
vt 0.99219 0.25781
vt 0.91406 0.25781
vt 0.88281 0.25781
vt 0.86719 0.19531
vt 0.94531 0.19531
vt 0.91406 0.14844
vt 0.83594 0.19531
vt 0.99219 0.19531
vt 0.86719 0.25781
vt 0.94531 0.25781
vt 0.99219 0.25781
vt 0.83594 0.25781
vt 0.91406 0.14844
vt 0.94531 0.19531
vt 0.86719 0.19531
vt 0.83594 0.19531
vt 0.99219 0.19531
vt 0.99219 0.33594
vt 0.89844 0.33594
vt 0.91406 0.35156
vt 0.99219 0.35156
vt 0.91406 0.32031
vt 0.99219 0.32031
vt 0.88281 0.32031
vt 0.80469 0.33594
vt 0.80469 0.32031
vt 0.88281 0.35156
vt 0.80469 0.35156
vt 0.91406 0.35156
vt 0.89844 0.33594
vt 0.99219 0.33594
vt 0.99219 0.35156
vt 0.91406 0.32031
vt 0.99219 0.32031
vt 0.80469 0.33594
vt 0.88281 0.32031
vt 0.80469 0.32031
vt 0.88281 0.35156
vt 0.80469 0.35156
vt 0.99219 0.92969
vt 0.99219 0.82031
vt 0.91406 0.82031
vt 0.99219 0.74219
vt 0.91406 0.74219
vt 0.89844 0.69531
vt 0.97656 0.69531
vt 0.86719 0.64844
vt 0.80469 0.67969
vt 0.80469 0.64844
vt 0.80469 0.74219
vt 0.80469 0.82031
vt 0.91406 0.82031
vt 0.92969 0.64844
vt 0.72656 0.82031
vt 0.72656 0.89844
vt 0.80469 0.89844
vt 0.80469 0.94531
vt 0.75781 0.94531
vt 0.66406 0.94531
vt 0.66406 0.82031
vt 0.72656 0.97656
vt 0.80469 0.99219
vt 0.80469 0.94531
vt 0.88281 0.94531
vt 0.91406 0.97656
vt 0.91406 0.89844
vt 0.66406 0.74219
vt 0.72656 0.74219
vt 0.72656 0.64844
vt 0.80469 0.89844
vt 0.80469 0.94531
vt 0.91406 0.82031
vt 0.66406 0.64844
vt 0.88281 0.94531
vt 0.80469 0.94531
vt 0.75781 0.94531
vt 0.72656 0.89844
vt 0.80469 0.94531
vt 0.80469 0.89844
vt 0.80469 0.82031
vt 0.72656 0.82031
vt 0.72656 0.74219
vt 0.72656 0.64844
vt 0.80469 0.74219
vt 0.91406 0.74219
vt 0.91406 0.82031
vt 0.89844 0.69531
vt 0.91406 0.82031
vt 0.86719 0.64844
vt 0.80469 0.67969
vt 0.80469 0.64844
vt 0.91406 0.89844
vt 0.80469 0.89844
vt 0.80469 0.94531
vt 0.91406 0.82031
vt 0.19531 0.88281
vt 0.00781 0.88281
vt 0.19531 0.92969
vt 0.00781 0.92969
vt 0.00781 0.99219
vt 0.19531 0.99219
vt 0.00781 0.83594
vt 0.19531 0.83594
vt 0.00781 0.77344
vt 0.19531 0.77344
vt 0.19531 0.72656
vt 0.00781 0.72656
vt 0.19531 0.67969
vt 0.00781 0.67969
vt 0.00781 0.63281
vt 0.19531 0.63281
vt 0.00781 0.57031
vt 0.19531 0.57031
vt 0.28906 0.57031
vt 0.28906 0.67969
vt 0.28906 0.77344
vt 0.32031 0.67969
vt 0.32031 0.77344
vt 0.32031 0.88281
vt 0.28906 0.88281
vt 0.28906 0.99219
vt 0.32031 0.99219
vt 0.32031 0.57031
vt 0.52344 0.99219
vt 0.33594 0.99219
vt 0.52344 0.91406
vt 0.33594 0.91406
vt 0.52344 0.86719
vt 0.33594 0.86719
vt 0.33594 0.83594
vt 0.52344 0.83594
vt 0.33594 0.77344
vt 0.52344 0.77344
vt 0.52344 0.72656
vt 0.33594 0.72656
vt 0.33594 0.67969
vt 0.52344 0.67969
vt 0.52344 0.63281
vt 0.33594 0.63281
vt 0.33594 0.57031
vt 0.52344 0.57031
vt 0.61719 0.88281
vt 0.61719 0.77344
vt 0.64844 0.88281
vt 0.61719 0.99219
vt 0.64844 0.99219
vt 0.64844 0.77344
vt 0.64844 0.67969
vt 0.61719 0.67969
vt 0.61719 0.57031
vt 0.64844 0.57031
vt 0.99219 0.30469
vt 0.99219 0.28906
vt 0.91406 0.30469
vt 0.89844 0.28906
vt 0.91406 0.27344
vt 0.99219 0.27344
vt 0.88281 0.27344
vt 0.80469 0.28906
vt 0.80469 0.27344
vt 0.88281 0.30469
vt 0.80469 0.30469
vt 0.89844 0.28906
vt 0.99219 0.28906
vt 0.91406 0.30469
vt 0.99219 0.30469
vt 0.91406 0.27344
vt 0.99219 0.27344
vt 0.80469 0.28906
vt 0.88281 0.27344
vt 0.80469 0.27344
vt 0.88281 0.30469
vt 0.80469 0.30469
vt 0.00781 0.52344
vt 0.78906 0.55469
vt 0.78906 0.52344
vt 0.00781 0.55469
vt 0.78906 0.52344
vt 0.00781 0.52344
vt 0.78906 0.49219
vt 0.00781 0.49219
vt 0.66406 0.63281
vt 0.66406 0.60156
vt 0.75781 0.63281
vt 0.75781 0.60156
vt 0.75781 0.57031
vt 0.66406 0.57031
vt 0.75781 0.63281
vt 0.75781 0.60156
vt 0.75781 0.57031
vt 0.85156 0.60156
vt 0.85156 0.63281
vt 0.92969 0.63281
vt 0.92969 0.60156
vt 0.99219 0.60156
vt 0.99219 0.63281
vt 0.92969 0.57031
vt 0.99219 0.57031
vt 0.92969 0.63281
vt 0.92969 0.60156
vt 0.92969 0.57031
vt 0.85156 0.57031
vt 0.85156 0.60156
vt 0.85156 0.57031
vt 0.85156 0.63281
vt 0.89844 0.36719
vt 0.85156 0.36719
vt 0.82031 0.38281
vt 0.89844 0.39844
vt 0.85156 0.41406
vt 0.80469 0.46094
vt 0.83594 0.46094
vt 0.89844 0.46094
vt 0.85156 0.50781
vt 0.82031 0.53906
vt 0.89844 0.52344
vt 0.89844 0.55469
vt 0.80469 0.41406
vt 0.80469 0.52344
vt 0.89844 0.46094
vt 0.89844 0.39844
vt 0.94531 0.41406
vt 0.96094 0.46094
vt 0.89844 0.52344
vt 0.94531 0.50781
vt 0.89844 0.46094
vt 0.99219 0.46094
vt 0.97656 0.38281
vt 0.89844 0.39844
vt 0.97656 0.53906
vt 0.99219 0.52344
vt 0.94531 0.36719
vt 0.99219 0.39844
vt 0.89844 0.55469
vt 0.89844 0.52344
vt 0.94531 0.55469
vt 0.85156 0.55469
vt 0.82031 0.38281
vt 0.85156 0.36719
vt 0.89844 0.36719
vt 0.89844 0.39844
vt 0.85156 0.41406
vt 0.80469 0.46094
vt 0.83594 0.46094
vt 0.89844 0.46094
vt 0.85156 0.50781
vt 0.82031 0.53906
vt 0.89844 0.52344
vt 0.89844 0.55469
vt 0.80469 0.41406
vt 0.80469 0.52344
vt 0.89844 0.39844
vt 0.89844 0.46094
vt 0.94531 0.41406
vt 0.96094 0.46094
vt 0.89844 0.52344
vt 0.94531 0.50781
vt 0.89844 0.46094
vt 0.99219 0.46094
vt 0.97656 0.38281
vt 0.89844 0.39844
vt 0.97656 0.53906
vt 0.99219 0.52344
vt 0.94531 0.36719
vt 0.99219 0.39844
vt 0.89844 0.52344
vt 0.89844 0.55469
vt 0.94531 0.55469
vt 0.85156 0.55469
vt 0.99219 0.19531
vt 0.91406 0.14844
vt 0.91406 0.19531
vt 0.88281 0.19531
vt 0.91406 0.19531
vt 0.91406 0.14844
vt 0.99219 0.19531
vt 0.88281 0.19531
vt 0.99219 0.25781
vt 0.91406 0.25781
vt 0.88281 0.25781
vt 0.86719 0.19531
vt 0.94531 0.19531
vt 0.91406 0.14844
vt 0.83594 0.19531
vt 0.99219 0.19531
vt 0.86719 0.25781
vt 0.94531 0.25781
vt 0.99219 0.25781
vt 0.83594 0.25781
vt 0.91406 0.14844
vt 0.94531 0.19531
vt 0.86719 0.19531
vt 0.83594 0.19531
vt 0.99219 0.19531
usemtl m0
f 1/1 2/2 3/3
f 3/3 2/2 4/4
f 5/5 6/6 7/7
f 8/8 6/6 5/5
f 9/9 10/10 11/11
f 12/12 9/9 11/11
f 13/13 14/14 15/15
f 13/13 15/15 16/16
f 17/17 18/18 19/19
f 20/20 18/18 17/17
f 21/21 22/22 23/23
f 23/23 22/22 24/24
f 25/25 26/26 27/27
f 28/28 26/26 25/25
f 29/29 30/30 31/31
f 31/31 30/30 32/32
f 33/33 34/34 35/35
f 33/33 35/35 36/36
f 37/37 38/38 39/39
f 40/40 37/37 39/39
f 41/41 42/42 43/43
f 44/44 42/42 41/41
f 45/45 46/46 47/47
f 47/47 46/46 48/48
f 49/49 50/50 51/51
f 49/49 52/52 50/50
f 53/53 52/52 49/49
f 50/50 52/52 54/54
f 54/54 52/52 53/53
f 54/54 53/53 55/55
f 56/56 53/53 49/49
f 56/56 49/49 57/57
f 57/57 49/49 51/51
f 58/58 53/53 56/56
f 59/59 54/54 55/55
f 60/60 54/54 59/59
f 60/60 50/50 54/54
f 61/61 50/50 60/60
f 51/51 50/50 62/62
f 62/62 50/50 63/63
f 61/61 63/63 50/50
f 62/62 63/63 64/64
f 51/51 62/62 64/64
f 64/64 61/61 60/60
f 64/64 63/63 61/61
f 55/55 53/53 65/65
f 65/65 53/53 66/66
f 58/58 66/66 53/53
f 65/65 66/66 67/67
f 55/55 65/65 67/67
f 67/67 58/58 56/56
f 67/67 66/66 58/58
f 68/68 60/60 59/59
f 64/64 60/60 68/68
f 69/69 64/64 68/68
f 69/69 68/68 59/59
f 70/70 67/67 69/69
f 59/59 70/70 69/69
f 70/70 55/55 67/67
f 59/59 55/55 70/70
f 71/71 64/64 69/69
f 57/57 71/71 69/69
f 71/71 51/51 64/64
f 57/57 51/51 71/71
f 69/69 67/67 72/72
f 69/69 72/72 57/57
f 72/72 56/56 57/57
f 67/67 56/56 72/72
f 73/73 74/74 75/75
f 75/75 74/74 76/76
f 77/77 78/78 79/79
f 80/80 78/78 77/77
f 81/81 82/82 83/83
f 81/81 83/83 84/84
f 85/85 86/86 87/87
f 85/85 88/88 86/86
f 89/89 90/90 91/91
f 90/90 92/92 91/91
f 93/93 94/94 95/95
f 93/93 95/95 96/96
f 97/97 98/98 99/99
f 99/99 98/98 100/100
f 101/101 102/102 103/103
f 101/101 103/103 104/104
f 105/105 106/106 107/107
f 105/105 107/107 108/108
f 109/109 110/110 111/111
f 110/110 112/112 111/111
f 111/111 112/112 113/113
f 114/114 112/112 110/110
f 113/113 112/112 114/114
f 115/115 113/113 114/114
f 111/111 113/113 116/116
f 117/117 111/111 116/116
f 109/109 111/111 117/117
f 116/116 113/113 118/118
f 115/115 114/114 119/119
f 119/119 114/114 120/120
f 114/114 110/110 120/120
f 120/120 110/110 121/121
f 122/122 110/110 109/109
f 123/123 110/110 122/122
f 110/110 123/123 121/121
f 124/124 123/123 122/122
f 124/124 122/122 109/109
f 120/120 121/121 124/124
f 121/121 123/123 124/124
f 125/125 113/113 115/115
f 126/126 113/113 125/125
f 113/113 126/126 118/118
f 127/127 126/126 125/125
f 127/127 125/125 115/115
f 116/116 118/118 127/127
f 118/118 126/126 127/127
f 119/119 120/120 128/128
f 128/128 120/120 124/124
f 128/128 124/124 129/129
f 119/119 128/128 129/129
f 129/129 127/127 130/130
f 129/129 130/130 119/119
f 127/127 115/115 130/130
f 130/130 115/115 119/119
f 129/129 124/124 131/131
f 129/129 131/131 117/117
f 124/124 109/109 131/131
f 131/131 109/109 117/117
f 132/132 127/127 129/129
f 117/117 132/132 129/129
f 117/117 116/116 132/132
f 132/132 116/116 127/127
f 133/133 134/134 135/135
f 136/136 134/134 133/133
f 137/137 138/138 139/139
f 139/139 138/138 140/140
f 141/141 142/142 143/143
f 144/144 141/141 143/143
f 145/145 146/146 147/147
f 146/146 148/148 147/147
f 149/149 150/150 151/151
f 149/149 152/152 150/150
f 153/153 154/154 155/155
f 156/156 153/153 155/155
f 157/157 158/158 159/159
f 160/160 158/158 157/157
f 161/161 162/162 163/163
f 164/164 161/161 163/163
f 165/165 166/166 167/167
f 168/168 165/165 167/167
f 169/169 170/170 171/171
f 169/169 172/172 170/170
f 173/173 174/174 175/175
f 173/173 176/176 174/174
f 177/177 178/178 179/179
f 178/178 180/180 179/179
f 181/181 182/182 183/183
f 182/182 184/184 183/183
f 185/185 186/186 187/187
f 185/185 188/188 186/186
f 189/189 190/190 191/191
f 190/190 192/192 191/191
usemtl m1
f 193/193 194/194 195/195
f 193/193 195/195 196/196
f 193/193 197/197 194/194
f 198/198 197/197 193/193
f 199/199 200/200 194/194
f 201/201 200/200 199/199
f 194/194 200/200 202/202
f 202/202 200/200 203/203
f 204/204 205/205 206/206
f 207/207 204/204 206/206
f 205/205 208/208 206/206
f 206/206 208/208 209/209
f 205/205 210/210 211/211
f 211/211 210/210 212/212
f 213/213 210/210 205/205
f 214/214 210/210 213/213
f 215/215 216/216 217/217
f 216/216 218/218 217/217
f 217/217 218/218 219/219
f 218/218 220/220 219/219
f 218/218 221/221 220/220
f 221/221 222/222 220/220
f 220/220 222/222 223/223
f 223/223 222/222 224/224
f 225/225 220/220 223/223
f 219/219 220/220 225/225
f 226/226 219/219 225/225
f 227/227 219/219 226/226
f 221/221 228/228 222/222
f 226/226 225/225 229/229
f 230/230 226/226 229/229
f 231/231 226/226 230/230
f 231/231 230/230 232/232
f 232/232 230/230 233/233
f 230/230 234/234 233/233
f 230/230 235/235 234/234
f 230/230 229/229 235/235
f 233/233 234/234 236/236
f 233/233 236/236 237/237
f 238/238 233/233 237/237
f 239/239 238/238 237/237
f 240/240 239/239 237/237
f 240/240 215/215 239/239
f 215/215 241/241 239/239
f 229/229 242/242 235/235
f 229/229 243/243 242/242
f 243/243 244/244 242/242
f 241/241 245/245 239/239
f 239/239 245/245 246/246
f 215/215 247/247 241/241
f 243/243 223/223 244/244
f 225/225 223/223 243/243
f 229/229 225/225 243/243
f 223/223 224/224 244/244
f 242/242 244/244 248/248
f 249/249 215/215 240/240
f 237/237 249/249 240/240
f 237/237 250/250 249/249
f 237/237 251/251 250/250
f 237/237 236/236 251/251
f 236/236 234/234 251/251
f 251/251 234/234 252/252
f 234/234 235/235 252/252
f 251/251 252/252 253/253
f 253/253 252/252 254/254
f 252/252 255/255 254/254
f 256/256 255/255 252/252
f 235/235 256/256 252/252
f 235/235 242/242 256/256
f 242/242 257/257 256/256
f 242/242 258/258 257/257
f 248/248 258/258 242/242
f 256/256 259/259 255/255
f 257/257 259/259 256/256
f 259/259 260/260 255/255
f 255/255 260/260 261/261
f 259/259 262/262 260/260
f 260/260 262/262 218/218
f 260/260 218/218 263/263
f 263/263 218/218 216/216
f 263/263 216/216 215/215
f 262/262 221/221 218/218
f 262/262 264/264 221/221
f 265/265 264/264 262/262
f 265/265 262/262 259/259
f 258/258 265/265 257/257
f 257/257 265/265 259/259
f 264/264 228/228 221/221
f 266/266 264/264 265/265
f 258/258 266/266 265/265
f 249/249 267/267 215/215
f 249/249 268/268 267/267
f 269/269 268/268 249/249
f 267/267 270/270 215/215
f 255/255 270/270 267/267
f 254/254 255/255 267/267
f 241/241 226/226 231/231
f 241/241 227/227 226/226
f 271/271 272/272 273/273
f 273/273 272/272 274/274
f 274/274 275/275 273/273
f 273/273 275/275 276/276
f 271/271 277/277 272/272
f 278/278 277/277 271/271
f 279/279 277/277 278/278
f 280/280 279/279 278/278
f 281/281 279/279 280/280
f 282/282 279/279 281/281
f 283/283 282/282 281/281
f 284/284 282/282 283/283
f 285/285 284/284 283/283
f 286/286 285/285 283/283
f 287/287 285/285 286/286
f 288/288 287/287 286/286
f 288/288 286/286 289/289
f 290/290 286/286 283/283
f 289/289 286/286 290/290
f 283/283 281/281 290/290
f 290/290 281/281 291/291
f 281/281 280/280 291/291
f 280/280 278/278 291/291
f 292/292 290/290 291/291
f 292/292 289/289 290/290
f 292/292 291/291 293/293
f 293/293 291/291 294/294
f 294/294 291/291 295/295
f 294/294 295/295 296/296
f 294/294 296/296 297/297
f 291/291 278/278 295/295
f 278/278 271/271 295/295
f 295/295 273/273 296/296
f 271/271 273/273 295/295
f 273/273 276/276 296/296
f 298/298 289/289 292/292
f 299/299 300/300 301/301
f 300/300 302/302 301/301
f 301/301 302/302 303/303
f 303/303 302/302 304/304
f 303/303 304/304 305/305
f 303/303 305/305 306/306
f 306/306 305/305 307/307
f 306/306 307/307 308/308
f 308/308 307/307 309/309
f 309/309 307/307 310/310
f 309/309 310/310 311/311
f 309/309 311/311 312/312
f 312/312 311/311 313/313
f 313/313 311/311 314/314
f 314/314 315/315 313/313
f 313/313 315/315 316/316
f 317/317 303/303 306/306
f 317/317 306/306 318/318
f 318/318 306/306 308/308
f 318/318 308/308 309/309
f 317/317 318/318 319/319
f 320/320 317/317 319/319
f 321/321 320/320 319/319
f 319/319 318/318 322/322
f 322/322 318/318 323/323
f 318/318 324/324 323/323
f 318/318 309/309 324/324
f 324/324 309/309 312/312
f 324/324 312/312 313/313
f 324/324 313/313 325/325
f 325/325 313/313 316/316
f 324/324 325/325 323/323
f 320/320 301/301 317/317
f 320/320 299/299 301/301
f 301/301 303/303 317/317
f 323/323 325/325 326/326
f 327/327 328/328 329/329
f 329/329 328/328 330/330
f 330/330 328/328 331/331
f 331/331 328/328 332/332
f 330/330 333/333 334/334
f 334/334 333/333 335/335
f 336/336 330/330 334/334
f 337/337 336/336 334/334
f 338/338 339/339 340/340
f 340/340 339/339 341/341
f 342/342 339/339 338/338
f 343/343 339/339 342/342
f 344/344 345/345 338/338
f 346/346 345/345 344/344
f 344/344 338/338 347/347
f 344/344 347/347 348/348
f 349/349 350/350 351/351
f 352/352 350/350 349/349
f 353/353 350/350 352/352
f 354/354 353/353 352/352
f 355/355 353/353 354/354
f 356/356 355/355 354/354
f 356/356 351/351 355/355
f 349/349 351/351 356/356
f 357/357 358/358 359/359
f 359/359 358/358 360/360
f 358/358 361/361 360/360
f 358/358 362/362 361/361
f 363/363 358/358 357/357
f 364/364 358/358 363/363
f 365/365 362/362 358/358
f 364/364 365/365 358/358
f 366/366 364/364 363/363
f 366/366 365/365 364/364
f 366/366 363/363 367/367
f 368/368 366/366 367/367
f 369/369 366/366 368/368
f 370/370 369/369 368/368
f 370/370 368/368 371/371
f 370/370 372/372 369/369
f 372/372 366/366 369/369
f 373/373 372/372 370/370
f 371/371 374/374 370/370
f 374/374 375/375 370/370
f 370/370 376/376 373/373
f 375/375 376/376 370/370
f 372/372 377/377 366/366
f 377/377 365/365 366/366
f 375/375 378/378 376/376
f 374/374 378/378 375/375
f 378/378 379/379 376/376
f 378/378 361/361 379/379
f 360/360 361/361 378/378
f 380/380 378/378 374/374
f 380/380 359/359 378/378
f 359/359 360/360 378/378
f 381/381 382/382 383/383
f 384/384 381/381 383/383
f 384/384 383/383 385/385
f 385/385 383/383 386/386
f 387/387 385/385 386/386
f 388/388 385/385 387/387
f 388/388 387/387 389/389
f 387/387 386/386 389/389
f 389/389 386/386 390/390
f 389/389 390/390 391/391
f 391/391 390/390 392/392
f 383/383 393/393 386/386
f 386/386 394/394 390/390
f 395/395 396/396 385/385
f 397/397 396/396 395/395
f 398/398 397/397 388/388
f 399/399 395/395 389/389
f 398/398 388/388 400/400
f 400/400 401/401 399/399
f 402/402 397/397 398/398
f 400/400 402/402 398/398
f 402/402 403/403 397/397
f 403/403 381/381 397/397
f 397/397 381/381 404/404
f 405/405 402/402 400/400
f 405/405 400/400 392/392
f 405/405 406/406 402/402
f 403/403 407/407 381/381
f 402/402 408/408 403/403
f 409/409 400/400 410/410
f 409/409 411/411 405/405
f 390/390 412/412 409/409
f 413/413 414/414 415/415
f 413/413 415/415 416/416
f 417/417 413/413 416/416
f 418/418 413/413 417/417
f 418/418 417/417 419/419
f 419/419 417/417 420/420
f 421/421 419/419 420/420
f 421/421 418/418 419/419
f 422/422 418/418 421/421
f 423/423 422/422 421/421
f 424/424 422/422 423/423
f 418/418 425/425 413/413
f 422/422 426/426 418/418
f 417/417 427/427 428/428
f 428/428 427/427 429/429
f 420/420 429/429 430/430
f 421/421 428/428 431/431
f 432/432 420/420 430/430
f 431/431 433/433 432/432
f 430/430 429/429 434/434
f 430/430 434/434 432/432
f 429/429 435/435 434/434
f 429/429 415/415 435/435
f 436/436 415/415 429/429
f 432/432 434/434 437/437
f 424/424 432/432 437/437
f 434/434 438/438 437/437
f 415/415 439/439 435/435
f 435/435 440/440 434/434
f 441/441 432/432 442/442
f 437/437 443/443 442/442
f 442/442 444/444 422/422
f 445/445 446/446 447/447
f 447/447 446/446 448/448
f 449/449 450/450 451/451
f 452/452 450/450 449/449
f 451/451 453/453 449/449
f 449/449 453/453 454/454
f 449/449 455/455 452/452
f 449/449 454/454 455/455
f 456/456 457/457 458/458
f 456/456 458/458 459/459
f 457/457 460/460 458/458
f 461/461 457/457 456/456
f 461/461 462/462 457/457
f 462/462 463/463 457/457
f 457/457 463/463 460/460
f 464/464 461/461 456/456
f 459/459 464/464 456/456
f 465/465 466/466 467/467
f 468/468 465/465 467/467
f 465/465 469/469 466/466
f 470/470 471/471 472/472
f 470/470 472/472 473/473
f 470/470 474/474 471/471
f 475/475 474/474 470/470
f 476/476 477/477 471/471
f 478/478 477/477 476/476
f 471/471 477/477 479/479
f 479/479 477/477 480/480
f 481/481 482/482 483/483
f 484/484 481/481 483/483
f 482/482 485/485 483/483
f 483/483 485/485 486/486
f 482/482 487/487 488/488
f 488/488 487/487 489/489
f 490/490 487/487 482/482
f 491/491 487/487 490/490
f 492/492 493/493 494/494
f 493/493 495/495 494/494
f 494/494 495/495 496/496
f 495/495 497/497 496/496
f 495/495 498/498 497/497
f 498/498 499/499 497/497
f 497/497 499/499 500/500
f 500/500 499/499 501/501
f 502/502 497/497 500/500
f 496/496 497/497 502/502
f 503/503 496/496 502/502
f 504/504 496/496 503/503
f 498/498 505/505 499/499
f 503/503 502/502 506/506
f 507/507 503/503 506/506
f 508/508 503/503 507/507
f 508/508 507/507 509/509
f 509/509 507/507 510/510
f 507/507 511/511 510/510
f 507/507 512/512 511/511
f 507/507 506/506 512/512
f 510/510 511/511 513/513
f 510/510 513/513 514/514
f 515/515 510/510 514/514
f 516/516 515/515 514/514
f 517/517 516/516 514/514
f 517/517 492/492 516/516
f 492/492 518/518 516/516
f 506/506 519/519 512/512
f 506/506 520/520 519/519
f 520/520 521/521 519/519
f 518/518 522/522 516/516
f 516/516 522/522 523/523
f 492/492 524/524 518/518
f 520/520 500/500 521/521
f 502/502 500/500 520/520
f 506/506 502/502 520/520
f 500/500 501/501 521/521
f 519/519 521/521 525/525
f 526/526 492/492 517/517
f 514/514 526/526 517/517
f 514/514 527/527 526/526
f 514/514 528/528 527/527
f 514/514 513/513 528/528
f 513/513 511/511 528/528
f 528/528 511/511 529/529
f 511/511 512/512 529/529
f 528/528 529/529 530/530
f 530/530 529/529 531/531
f 529/529 532/532 531/531
f 533/533 532/532 529/529
f 512/512 533/533 529/529
f 512/512 519/519 533/533
f 519/519 534/534 533/533
f 519/519 535/535 534/534
f 525/525 535/535 519/519
f 533/533 536/536 532/532
f 534/534 536/536 533/533
f 536/536 537/537 532/532
f 532/532 537/537 538/538
f 536/536 539/539 537/537
f 537/537 539/539 495/495
f 537/537 495/495 540/540
f 540/540 495/495 493/493
f 540/540 493/493 492/492
f 539/539 498/498 495/495
f 539/539 541/541 498/498
f 542/542 541/541 539/539
f 542/542 539/539 536/536
f 535/535 542/542 534/534
f 534/534 542/542 536/536
f 541/541 505/505 498/498
f 543/543 541/541 542/542
f 535/535 543/543 542/542
f 526/526 544/544 492/492
f 526/526 545/545 544/544
f 546/546 545/545 526/526
f 544/544 547/547 492/492
f 532/532 547/547 544/544
f 531/531 532/532 544/544
f 518/518 503/503 508/508
f 518/518 504/504 503/503
f 548/548 549/549 550/550
f 550/550 549/549 551/551
f 551/551 552/552 550/550
f 550/550 552/552 553/553
f 548/548 554/554 549/549
f 555/555 554/554 548/548
f 556/556 554/554 555/555
f 557/557 556/556 555/555
f 558/558 556/556 557/557
f 559/559 556/556 558/558
f 560/560 559/559 558/558
f 561/561 559/559 560/560
f 562/562 561/561 560/560
f 563/563 562/562 560/560
f 564/564 562/562 563/563
f 565/565 564/564 563/563
f 565/565 563/563 566/566
f 567/567 563/563 560/560
f 566/566 563/563 567/567
f 560/560 558/558 567/567
f 567/567 558/558 568/568
f 558/558 557/557 568/568
f 557/557 555/555 568/568
f 569/569 567/567 568/568
f 569/569 566/566 567/567
f 569/569 568/568 570/570
f 570/570 568/568 571/571
f 571/571 568/568 572/572
f 571/571 572/572 573/573
f 571/571 573/573 574/574
f 568/568 555/555 572/572
f 555/555 548/548 572/572
f 572/572 550/550 573/573
f 548/548 550/550 572/572
f 550/550 553/553 573/573
f 575/575 566/566 569/569
f 576/576 577/577 578/578
f 577/577 579/579 578/578
f 578/578 579/579 580/580
f 580/580 579/579 581/581
f 580/580 581/581 582/582
f 580/580 582/582 583/583
f 583/583 582/582 584/584
f 583/583 584/584 585/585
f 585/585 584/584 586/586
f 586/586 584/584 587/587
f 586/586 587/587 588/588
f 586/586 588/588 589/589
f 589/589 588/588 590/590
f 590/590 588/588 591/591
f 591/591 592/592 590/590
f 590/590 592/592 593/593
f 594/594 580/580 583/583
f 594/594 583/583 595/595
f 595/595 583/583 585/585
f 595/595 585/585 586/586
f 594/594 595/595 596/596
f 597/597 594/594 596/596
f 598/598 597/597 596/596
f 596/596 595/595 599/599
f 599/599 595/595 600/600
f 595/595 601/601 600/600
f 595/595 586/586 601/601
f 601/601 586/586 589/589
f 601/601 589/589 590/590
f 601/601 590/590 602/602
f 602/602 590/590 593/593
f 601/601 602/602 600/600
f 597/597 578/578 594/594
f 597/597 576/576 578/578
f 578/578 580/580 594/594
f 600/600 602/602 603/603
f 604/604 605/605 606/606
f 606/606 605/605 607/607
f 607/607 605/605 608/608
f 608/608 605/605 609/609
f 607/607 610/610 611/611
f 611/611 610/610 612/612
f 613/613 607/607 611/611
f 614/614 613/613 611/611
f 615/615 616/616 617/617
f 617/617 616/616 618/618
f 619/619 616/616 615/615
f 620/620 616/616 619/619
f 621/621 622/622 615/615
f 623/623 622/622 621/621
f 621/621 615/615 624/624
f 621/621 624/624 625/625
f 626/626 627/627 628/628
f 629/629 627/627 626/626
f 630/630 627/627 629/629
f 631/631 630/630 629/629
f 632/632 630/630 631/631
f 633/633 632/632 631/631
f 633/633 628/628 632/632
f 626/626 628/628 633/633
f 634/634 635/635 636/636
f 636/636 635/635 637/637
f 635/635 638/638 637/637
f 635/635 639/639 638/638
f 640/640 635/635 634/634
f 641/641 635/635 640/640
f 642/642 639/639 635/635
f 641/641 642/642 635/635
f 643/643 641/641 640/640
f 643/643 642/642 641/641
f 643/643 640/640 644/644
f 645/645 643/643 644/644
f 646/646 643/643 645/645
f 647/647 646/646 645/645
f 647/647 645/645 648/648
f 647/647 649/649 646/646
f 649/649 643/643 646/646
f 650/650 649/649 647/647
f 648/648 651/651 647/647
f 651/651 652/652 647/647
f 647/647 653/653 650/650
f 652/652 653/653 647/647
f 649/649 654/654 643/643
f 654/654 642/642 643/643
f 652/652 655/655 653/653
f 651/651 655/655 652/652
f 655/655 656/656 653/653
f 655/655 638/638 656/656
f 637/637 638/638 655/655
f 657/657 655/655 651/651
f 657/657 636/636 655/655
f 636/636 637/637 655/655
f 658/658 659/659 660/660
f 661/661 658/658 660/660
f 661/661 660/660 662/662
f 662/662 660/660 663/663
f 664/664 662/662 663/663
f 665/665 662/662 664/664
f 665/665 664/664 666/666
f 664/664 663/663 666/666
f 666/666 663/663 667/667
f 666/666 667/667 668/668
f 668/668 667/667 669/669
f 660/660 670/670 663/663
f 663/663 671/671 667/667
f 672/672 673/673 662/662
f 674/674 673/673 672/672
f 675/675 674/674 665/665
f 676/676 672/672 666/666
f 675/675 665/665 677/677
f 677/677 678/678 676/676
f 679/679 674/674 675/675
f 677/677 679/679 675/675
f 679/679 680/680 674/674
f 680/680 658/658 674/674
f 674/674 658/658 681/681
f 682/682 679/679 677/677
f 682/682 677/677 669/669
f 682/682 683/683 679/679
f 680/680 684/684 658/658
f 679/679 685/685 680/680
f 686/686 677/677 687/687
f 686/686 688/688 682/682
f 667/667 689/689 686/686
f 690/690 691/691 692/692
f 690/690 692/692 693/693
f 694/694 690/690 693/693
f 695/695 690/690 694/694
f 695/695 694/694 696/696
f 696/696 694/694 697/697
f 698/698 696/696 697/697
f 698/698 695/695 696/696
f 699/699 695/695 698/698
f 700/700 699/699 698/698
f 701/701 699/699 700/700
f 695/695 702/702 690/690
f 699/699 703/703 695/695
f 694/694 704/704 705/705
f 705/705 704/704 706/706
f 697/697 706/706 707/707
f 698/698 705/705 708/708
f 709/709 697/697 707/707
f 708/708 710/710 709/709
f 707/707 706/706 711/711
f 707/707 711/711 709/709
f 706/706 712/712 711/711
f 706/706 692/692 712/712
f 713/713 692/692 706/706
f 709/709 711/711 714/714
f 701/701 709/709 714/714
f 711/711 715/715 714/714
f 692/692 716/716 712/712
f 712/712 717/717 711/711
f 718/718 709/709 719/719
f 714/714 720/720 719/719
f 719/719 721/721 699/699
f 722/722 723/723 724/724
f 724/724 723/723 725/725
f 726/726 727/727 728/728
f 729/729 727/727 726/726
f 728/728 730/730 726/726
f 726/726 730/730 731/731
f 726/726 732/732 729/729
f 726/726 731/731 732/732
f 733/733 734/734 735/735
f 733/733 735/735 736/736
f 734/734 737/737 735/735
f 738/738 734/734 733/733
f 738/738 739/739 734/734
f 739/739 740/740 734/734
f 734/734 740/740 737/737
f 741/741 738/738 733/733
f 736/736 741/741 733/733
f 742/742 743/743 744/744
f 745/745 742/742 744/744
f 742/742 746/746 743/743
