mtllib options1256.mtl
o options1256
v 0.42480 0.02102 2.36880 0.878 0.000 0.000
v 0.38750 0.02939 2.40629 0.902 0.000 0.000
v 0.00000 0.00000 3.13200 0.000 0.000 0.000
v 0.27110 0.23018 2.48274 0.953 0.000 0.000
v 0.39064 0.00387 2.33131 0.929 0.000 0.000
v 0.30938 0.22732 2.48333 0.902 0.000 0.000
v 0.27599 -0.22768 2.48168 0.000 0.000 0.000
v 0.31745 -0.22766 2.48305 0.000 0.000 0.000
v 0.34322 -0.18164 2.48090 0.000 0.000 0.000
v 0.38626 0.04988 2.33566 0.953 0.000 0.000
v 0.41920 0.06655 2.37443 0.902 0.000 0.000
v 0.38230 0.06579 2.41321 0.922 0.000 0.000
v 0.37598 0.09396 2.34612 0.000 0.000 0.000
v 0.40837 0.11005 2.38561 0.000 0.000 0.000
v 0.37354 0.10033 2.42510 0.000 0.000 0.000
v 0.36045 0.13468 2.36257 0.953 0.000 0.000
v 0.39290 0.15032 2.40217 0.902 0.000 0.000
v 0.36178 0.13216 2.44177 0.922 0.000 0.000
v 0.34069 0.17082 2.38473 0.000 0.000 0.000
v 0.37375 0.18635 2.42386 0.000 0.000 0.000
v 0.34785 0.16058 2.46299 0.000 0.000 0.000
v 0.31795 0.20142 2.41229 0.953 0.000 0.000
v 0.35204 0.21735 2.45038 0.902 0.000 0.000
v 0.33262 0.18511 2.48845 0.922 0.000 0.000
v 0.29257 0.23152 2.44066 0.929 0.000 0.000
v 0.33401 0.22925 2.46550 0.878 0.000 0.000
v 0.32791 0.20043 2.48814 0.902 0.000 0.000
v 0.34987 -0.17644 2.46526 0.000 0.000 0.000
v 0.35204 -0.22781 2.45038 0.000 0.000 0.000
v 0.30071 -0.23103 2.43549 0.000 0.000 0.000
v 0.36412 -0.14868 2.44312 0.922 0.000 0.000
v 0.37375 -0.19771 2.42386 0.902 0.000 0.000
v 0.32440 -0.20543 2.40462 0.953 0.000 0.000
v 0.37616 -0.10930 2.42550 0.000 0.000 0.000
v 0.39290 -0.15449 2.40217 0.000 0.000 0.000
v 0.34609 -0.16587 2.37884 0.000 0.000 0.000
v 0.38513 -0.07429 2.41267 0.922 0.000 0.000
v 0.40837 -0.11421 2.38561 0.902 0.000 0.000
v 0.36437 -0.12834 2.35856 0.953 0.000 0.000
v 0.39044 -0.03731 2.40482 0.000 0.000 0.000
v 0.41920 -0.07070 2.37443 0.000 0.000 0.000
v 0.37813 -0.08669 2.34405 0.000 0.000 0.000
v 0.39170 0.00059 2.40206 0.922 0.000 0.000
v 0.42480 -0.02518 2.36880 0.902 0.000 0.000
v 0.38644 -0.04219 2.33554 0.953 0.000 0.000
v 0.32861 -0.06300 2.88000 0.000 0.000 0.000
v 0.27313 0.20018 2.90594 0.000 0.000 0.000
v 0.01620 0.22473 3.01198 0.000 0.000 0.000
v 0.25873 -0.21998 2.90594 0.000 0.000 0.000
v 0.01620 -0.22473 3.01198 0.000 0.000 0.000
v 0.31522 0.06791 2.89406 0.000 0.000 0.000
v 0.30622 -0.12281 2.89406 0.000 0.000 0.000
v 0.29101 0.12386 2.94016 0.000 0.000 0.000
v 0.30193 0.06577 2.95103 0.000 0.000 0.000
v 0.30823 -0.05677 2.93483 0.000 0.000 0.000
v 0.29011 -0.09776 2.94016 0.000 0.000 0.000
v 0.21629 -0.19778 2.97551 0.000 0.000 0.000
v 0.18580 -0.24361 2.94680 0.000 0.000 0.000
v 0.04361 -0.31158 3.02578 0.000 0.000 0.000
v 0.15453 -0.21625 3.02137 0.000 0.000 0.000
v 0.21629 0.19778 2.97551 0.000 0.000 0.000
v 0.04361 0.31158 3.02578 0.000 0.000 0.000
v 0.18580 0.24361 2.94680 0.000 0.000 0.000
v 0.15453 0.21625 3.02137 0.000 0.000 0.000
v -0.31334 0.00000 2.96496 0.000 0.000 0.000
v -0.20884 0.21753 2.96779 0.000 0.000 0.000
v -0.20884 -0.21753 2.96779 0.000 0.000 0.000
v -0.26444 0.11871 2.97040 0.000 0.000 0.000
v -0.26444 -0.11871 2.97040 0.000 0.000 0.000
v -0.20075 0.09956 3.00659 0.000 0.000 0.000
v -0.22446 0.05594 3.00683 0.000 0.000 0.000
v -0.22446 -0.05594 3.00683 0.000 0.000 0.000
v -0.20075 -0.09956 3.00659 0.000 0.000 0.000
v -0.10399 -0.19244 3.00305 0.000 0.000 0.000
v -0.07205 -0.23726 2.94979 0.000 0.000 0.000
v -0.10399 0.19244 3.00305 0.000 0.000 0.000
v -0.07205 0.23726 2.94979 0.000 0.000 0.000
v 0.23591 0.24574 3.03840 0.000 0.000 0.000
v -0.11691 0.26246 3.07456 0.000 0.000 0.000
v 0.26363 -0.20155 3.10320 0.000 0.000 0.000
v -0.11691 -0.26246 3.07456 0.000 0.000 0.000
v -0.27900 0.00000 3.10786 0.000 0.000 0.000
v 0.28188 0.13504 3.12131 0.000 0.000 0.000
v 0.22961 0.12071 3.06981 0.000 0.000 0.000
v 0.31086 0.00000 2.98105 0.000 0.000 0.000
v 0.15556 0.16632 3.07080 0.000 0.000 0.000
v 0.20804 0.00000 3.09240 0.000 0.000 0.000
v 0.01620 0.17730 3.10770 0.000 0.000 0.000
v 0.15556 -0.16632 3.07080 0.000 0.000 0.000
v 0.01620 -0.17730 3.10770 0.000 0.000 0.000
v -0.11704 0.13288 3.07906 0.000 0.000 0.000
v -0.14659 0.00000 3.09499 0.000 0.000 0.000
v -0.11704 -0.13288 3.07906 0.000 0.000 0.000
v 0.00000 0.00000 2.92230 0.000 0.000 0.000
v 0.26698 0.00000 3.04979 0.000 0.000 0.000
v 0.25479 -0.03865 3.04283 0.000 0.000 0.000
v 0.25479 0.03865 3.04283 0.000 0.000 0.000
v 0.34198 0.00000 3.02386 0.000 0.000 0.000
v 0.23434 -0.10258 3.08671 0.000 0.000 0.000
v 0.15026 -0.38407 2.86823 0.000 0.000 0.000
v 0.08730 -0.29713 2.85822 0.000 0.000 0.000
v 0.17917 -0.30443 2.87390 0.000 0.000 0.000
v 0.15349 -0.32774 2.92390 0.000 0.000 0.000
v 0.08730 -0.21551 2.91978 0.000 0.000 0.000
v 0.18614 -0.18873 2.93994 0.000 0.000 0.000
v 0.15068 -0.13358 2.99293 0.000 0.000 0.000
v -0.01154 -0.18873 2.93994 0.000 0.000 0.000
v 0.02392 -0.13358 2.99293 0.000 0.000 0.000
v -0.00457 -0.30443 2.87390 0.000 0.000 0.000
v 0.02111 -0.32774 2.92390 0.000 0.000 0.000
v 0.02434 -0.38407 2.86823 0.000 0.000 0.000
v 0.08730 -0.38281 2.85385 0.000 0.000 0.000
v 0.08730 -0.40351 2.87509 0.000 0.000 0.000
v 0.08730 -0.38783 2.89944 0.000 0.000 0.000
v 0.08730 -0.33455 2.93848 0.000 0.000 0.000
v 0.01688 -0.19845 3.02146 0.000 0.000 0.000
v 0.08730 -0.19334 3.05010 0.000 0.000 0.000
v 0.15772 -0.19845 3.02146 0.000 0.000 0.000
v 0.15772 -0.27545 2.99180 0.000 0.000 0.000
v 0.08730 -0.28726 3.01329 0.000 0.000 0.000
v 0.01688 -0.27545 2.99180 0.000 0.000 0.000
v 0.15026 0.38407 2.86823 0.000 0.000 0.000
v 0.08730 0.29713 2.85822 0.000 0.000 0.000
v 0.17917 0.30443 2.87390 0.000 0.000 0.000
v 0.15349 0.32774 2.92390 0.000 0.000 0.000
v 0.08730 0.21551 2.91978 0.000 0.000 0.000
v 0.18614 0.18873 2.93994 0.000 0.000 0.000
v 0.15068 0.13358 2.99293 0.000 0.000 0.000
v -0.01154 0.18873 2.93994 0.000 0.000 0.000
v 0.02392 0.13358 2.99293 0.000 0.000 0.000
v -0.00457 0.30443 2.87390 0.000 0.000 0.000
v 0.02111 0.32774 2.92390 0.000 0.000 0.000
v 0.02434 0.38407 2.86823 0.000 0.000 0.000
v 0.08730 0.38281 2.85385 0.000 0.000 0.000
v 0.08730 0.40351 2.87509 0.000 0.000 0.000
v 0.08730 0.38783 2.89944 0.000 0.000 0.000
v 0.08730 0.33455 2.93848 0.000 0.000 0.000
v 0.01688 0.19845 3.02146 0.000 0.000 0.000
v 0.08730 0.19334 3.05010 0.000 0.000 0.000
v 0.15772 0.19845 3.02146 0.000 0.000 0.000
v 0.15772 0.27545 2.99180 0.000 0.000 0.000
v 0.08730 0.28726 3.01329 0.000 0.000 0.000
v 0.01688 0.27545 2.99180 0.000 0.000 0.000
v 0.43470 0.00000 2.47860 0.918 0.000 0.000
v 0.31410 -0.22770 2.47860 0.945 0.000 0.000
v 0.41850 0.00000 2.84040 0.792 0.000 0.000
v 0.30510 -0.23670 2.76120 0.906 0.000 0.000
v 0.18270 0.00000 3.01320 0.886 0.000 0.000
v 0.17820 -0.20430 2.96640 0.918 0.000 0.000
v 0.00630 0.00000 3.05010 0.890 0.000 0.000
v -0.00630 -0.20430 2.99970 0.918 0.000 0.000
v -0.20999 0.00000 3.01559 0.000 0.875 0.000
v -0.17190 -0.17820 2.97859 0.000 0.914 0.000
v -0.33030 0.00000 2.70540 0.000 0.796 0.000
v -0.25380 -0.24030 2.70540 0.000 0.863 0.000
v -0.03150 -0.26370 2.74320 0.000 0.906 0.000
v 0.27720 -0.20250 2.78865 0.922 0.000 0.000
v 0.30780 0.00000 2.80215 0.871 0.000 0.000
v 0.09000 -0.26010 2.68513 0.902 0.000 0.000
v 0.47250 0.00000 2.68513 0.878 0.000 0.000
v 0.32760 -0.24390 2.73195 0.925 0.000 0.000
v 0.11520 -0.26010 2.54702 0.910 0.000 0.000
v 0.47250 0.00000 2.52722 0.871 0.000 0.000
v 0.39600 -0.17595 2.47860 0.929 0.000 0.000
v 0.43380 -0.17955 2.52722 0.890 0.000 0.000
v 0.43380 -0.17955 2.68513 0.918 0.000 0.000
v 0.45990 -0.11115 2.76975 0.894 0.000 0.000
v 0.38520 -0.16515 2.79900 0.847 0.000 0.000
v 0.41400 -0.06907 2.82600 0.843 0.000 0.000
v 0.40590 -0.10829 2.80735 0.867 0.000 0.000
v 0.43459 -0.18954 2.75639 0.855 0.000 0.000
v 0.47520 0.00000 2.79437 0.816 0.000 0.000
v 0.32625 -0.23962 2.68513 0.933 0.000 0.000
v 0.32625 -0.23962 2.52722 0.925 0.000 0.000
v 0.27720 0.00000 2.93783 0.831 0.000 0.000
v 0.22140 -0.22770 2.90633 0.890 0.000 0.000
v 0.07560 -0.26010 2.62597 0.937 0.000 0.000
v 0.45563 0.00000 2.63248 0.000 0.000 0.820
v 0.41693 -0.16877 2.63248 0.000 0.000 0.698
v 0.32092 -0.22525 2.63248 0.000 0.000 0.875
v 0.45563 0.00000 2.57985 0.000 0.000 0.820
v 0.41693 -0.16877 2.57985 0.000 0.000 0.698
v 0.32092 -0.22525 2.57985 0.000 0.000 0.875
v 0.41693 -0.16877 2.68513 0.000 0.000 0.839
v 0.45563 0.00000 2.68513 0.000 0.000 0.875
v 0.07110 -0.24449 2.63248 0.000 0.000 0.875
v 0.07110 -0.24449 2.68513 0.000 0.000 0.925
v 0.32092 -0.22525 2.68513 0.000 0.000 0.922
v 0.07110 -0.24449 2.59965 0.000 0.000 0.875
v 0.45563 0.00000 2.52722 0.000 0.000 0.875
v 0.41693 -0.16877 2.52722 0.000 0.000 0.839
v 0.32092 -0.22525 2.52722 0.000 0.000 0.922
v 0.07110 -0.24449 2.54702 0.000 0.000 0.925
v -0.21825 -0.21510 2.89465 0.000 0.875 0.000
v -0.28139 0.00000 2.91584 0.000 0.824 0.000
v -0.02160 -0.24806 2.90606 0.000 0.925 0.000
v 0.17984 -0.25180 2.74320 0.894 0.000 0.000
v 0.30690 -0.07047 2.79788 0.882 0.000 0.000
v 0.27787 -0.19777 2.87383 0.929 0.000 0.000
v 0.30209 -0.06791 2.86421 0.000 0.000 0.902
v 0.27128 -0.21757 2.83725 0.914 0.000 0.000
v 0.27045 -0.14625 2.92883 0.878 0.000 0.000
v 0.29909 -0.14445 2.86832 0.000 0.000 0.875
v 0.30015 -0.14324 2.78788 0.902 0.000 0.000
v 0.29228 -0.14371 2.90106 0.875 0.000 0.000
v 0.27034 -0.19255 2.89921 0.922 0.000 0.000
v 0.29768 -0.07285 2.88882 0.859 0.000 0.000
v 0.30368 -0.14566 2.83036 0.000 0.000 0.667
v 0.30229 0.00000 2.88178 0.820 0.000 0.000
v 0.25997 -0.23292 2.78741 0.902 0.000 0.000
v 0.30411 -0.05562 2.82654 0.000 0.000 0.843
v 0.04662 -0.24570 2.49361 0.929 0.000 0.000
v -0.43290 0.00000 2.08575 0.000 0.875 0.000
v -0.33930 -0.34389 2.11905 0.000 0.902 0.000
v 0.00000 -0.39607 2.46566 0.000 0.933 0.000
v 0.29160 -0.31343 2.11905 0.000 0.902 0.000
v 0.33660 0.00000 2.08575 0.000 0.875 0.000
v 0.29160 -0.22230 2.48400 0.000 0.875 0.000
v 0.31050 0.00000 2.48400 0.000 0.796 0.000
v 0.46620 -0.05747 2.73317 0.000 0.000 0.000
v 0.46530 -0.08138 2.75522 0.000 0.000 0.000
v 0.46890 -0.04986 2.78348 0.000 0.000 0.000
v 0.47250 -0.02684 2.76199 0.000 0.000 0.000
v 0.46498 -0.07551 2.77934 0.000 0.000 0.000
v 0.47142 -0.02950 2.73445 0.000 0.000 0.000
v -0.25380 0.24030 2.70540 0.000 0.835 0.000
v 0.26176 -0.20806 2.87671 0.000 0.000 0.894
v 0.04662 0.24570 2.49361 0.000 0.929 0.000
v 0.43380 0.17955 2.68513 0.945 0.000 0.000
v 0.32625 0.23962 2.68513 0.953 0.000 0.000
v 0.09000 0.26010 2.68513 0.945 0.000 0.000
v 0.11520 0.26010 2.54702 0.945 0.000 0.000
v 0.32625 0.23962 2.52722 0.953 0.000 0.000
v 0.43380 0.17955 2.52722 0.945 0.000 0.000
v 0.07560 0.26010 2.62597 0.953 0.000 0.000
v 0.39600 0.17595 2.47860 0.929 0.000 0.000
v 0.40590 0.10829 2.80735 0.867 0.000 0.000
v 0.38520 0.16515 2.79900 0.847 0.000 0.000
v 0.30015 0.14324 2.78788 0.902 0.000 0.000
v 0.30690 0.07047 2.79788 0.882 0.000 0.000
v 0.17820 0.20430 2.96640 0.918 0.000 0.000
v -0.00630 0.20430 2.99970 0.918 0.000 0.000
v -0.17190 0.17820 2.97859 0.000 0.914 0.000
v -0.21825 0.21510 2.89465 0.000 0.875 0.000
v 0.17984 0.25180 2.74320 0.894 0.000 0.000
v 0.30510 0.23670 2.76120 0.906 0.000 0.000
v 0.32760 0.24390 2.73195 0.925 0.000 0.000
v -0.02160 0.24806 2.90606 0.000 0.925 0.000
v 0.22140 0.22770 2.90633 0.890 0.000 0.000
v 0.27045 0.14625 2.92883 0.878 0.000 0.000
v 0.45990 0.11115 2.76975 0.894 0.000 0.000
v 0.41400 0.06907 2.82600 0.843 0.000 0.000
v 0.41693 0.16877 2.63248 0.000 0.000 0.698
v 0.41693 0.16877 2.68513 0.000 0.000 0.839
v 0.31410 0.22770 2.47860 0.945 0.000 0.000
v 0.32092 0.22525 2.68513 0.000 0.000 0.922
v 0.32092 0.22525 2.63248 0.000 0.000 0.875
v 0.07110 0.24449 2.63248 0.000 0.000 0.875
v 0.07110 0.24449 2.68513 0.000 0.000 0.925
v 0.43459 0.18954 2.75639 0.855 0.000 0.000
v 0.27034 0.19255 2.89921 0.922 0.000 0.000
v 0.41693 0.16877 2.52722 0.000 0.000 0.839
v 0.41693 0.16877 2.57985 0.000 0.000 0.698
v 0.32092 0.22525 2.57985 0.000 0.000 0.875
v 0.32092 0.22525 2.52722 0.000 0.000 0.922
v 0.07110 0.24449 2.59965 0.000 0.000 0.875
v 0.07110 0.24449 2.54702 0.000 0.000 0.925
v 0.27787 0.19777 2.87383 0.929 0.000 0.000
v 0.27128 0.21757 2.83725 0.914 0.000 0.000
v 0.27720 0.20250 2.78865 0.922 0.000 0.000
v 0.25997 0.23292 2.78741 0.902 0.000 0.000
v 0.30368 0.14566 2.83036 0.000 0.000 0.667
v 0.29768 0.07285 2.88882 0.859 0.000 0.000
v 0.29228 0.14371 2.90106 0.875 0.000 0.000
v 0.30411 0.05562 2.82654 0.000 0.000 0.843
v 0.30209 0.06791 2.86421 0.000 0.000 0.902
v 0.29909 0.14445 2.86832 0.000 0.000 0.875
v 0.26176 0.20806 2.87671 0.000 0.000 0.894
v -0.33930 0.34389 2.11905 0.000 0.902 0.000
v 0.29160 0.22230 2.48400 0.000 0.875 0.000
v 0.29160 0.31343 2.11905 0.000 0.902 0.000
v 0.00000 0.39607 2.46566 0.000 0.933 0.000
v 0.46620 0.05747 2.73317 0.000 0.000 0.000
v 0.46530 0.08138 2.75522 0.000 0.000 0.000
v 0.47250 0.02684 2.76199 0.000 0.000 0.000
v 0.47142 0.02950 2.73445 0.000 0.000 0.000
v 0.46498 0.07551 2.77934 0.000 0.000 0.000
v 0.46890 0.04986 2.78348 0.000 0.000 0.000
v -0.03150 0.26370 2.74320 0.000 0.906 0.000
v 0.04662 0.00000 2.49361 0.965 0.000 0.000
v 0.32850 -0.24633 2.73195 0.000 0.000 0.843
v 0.44435 -0.15689 2.71318 0.000 0.000 0.776
v 0.44689 -0.14663 2.72493 0.000 0.000 0.729
v 0.43515 -0.18697 2.72482 0.000 0.000 0.784
v 0.45014 -0.12312 2.69883 0.000 0.000 0.714
v 0.45835 -0.08159 2.69768 0.000 0.000 0.816
v 0.46154 -0.06898 2.71280 0.000 0.000 0.808
v 0.45925 -0.08521 2.70907 0.000 0.000 0.784
v 0.45248 -0.11552 2.71154 0.000 0.000 0.718
v 0.43533 -0.18940 2.74194 0.000 0.000 0.765
v 0.38929 -0.21515 2.74583 0.000 0.000 0.776
v 0.31568 -0.24219 2.74860 0.000 0.000 0.824
v 0.24930 -0.25078 2.71922 0.000 0.000 0.859
v 0.32850 0.24633 2.73195 0.000 0.000 0.843
v 0.44435 0.15689 2.71318 0.000 0.000 0.776
v 0.44689 0.14663 2.72493 0.000 0.000 0.729
v 0.43515 0.18697 2.72482 0.000 0.000 0.784
v 0.45014 0.12312 2.69883 0.000 0.000 0.714
v 0.45835 0.08159 2.69768 0.000 0.000 0.816
v 0.46154 0.06898 2.71280 0.000 0.000 0.808
v 0.45925 0.08521 2.70907 0.000 0.000 0.784
v 0.45248 0.11552 2.71154 0.000 0.000 0.718
v 0.43533 0.18940 2.74194 0.000 0.000 0.765
v 0.38929 0.21515 2.74583 0.000 0.000 0.776
v 0.31568 0.24219 2.74860 0.000 0.000 0.824
v 0.24930 0.25078 2.71922 0.000 0.000 0.859
v 0.38700 -0.04162 2.28238 0.000 0.000 0.918
v 0.38700 -0.02572 2.33131 0.000 0.000 0.871
v 0.38700 0.02572 2.33131 0.000 0.000 0.839
v 0.38700 0.04162 2.28238 0.000 0.000 0.902
v 0.38700 0.00000 2.25214 0.000 0.000 0.925
v 0.35813 0.00000 2.29590 0.000 0.000 0.541
v 0.41587 0.00000 2.29590 0.000 0.000 0.541
v 0.35100 -0.22144 2.33644 0.000 0.000 0.918
v 0.35100 -0.20561 2.38514 0.000 0.000 0.871
v 0.35100 -0.15439 2.38514 0.000 0.000 0.839
v 0.35100 -0.13856 2.33644 0.000 0.000 0.902
v 0.35100 -0.18000 2.30632 0.000 0.000 0.925
v 0.32213 -0.18000 2.34990 0.000 0.000 0.541
v 0.37987 -0.18000 2.34990 0.000 0.000 0.541
v 0.35100 0.13856 2.33644 0.000 0.000 0.918
v 0.35100 0.15439 2.38514 0.000 0.000 0.871
v 0.35100 0.20561 2.38514 0.000 0.000 0.839
v 0.35100 0.22144 2.33644 0.000 0.000 0.902
v 0.35100 0.18000 2.30632 0.000 0.000 0.925
v 0.32213 0.18000 2.34990 0.000 0.000 0.541
v 0.37987 0.18000 2.34990 0.000 0.000 0.541
v 0.38626 0.04988 2.33566 0.000 0.000 0.000
v 0.41920 0.06655 2.37443 0.000 0.000 0.000
v 0.38230 0.06579 2.41321 0.000 0.000 0.000
v 0.37598 0.09396 2.34612 0.929 0.000 0.000
v 0.40837 0.11005 2.38561 0.878 0.000 0.000
v 0.37354 0.10033 2.42510 0.902 0.000 0.000
v 0.36045 0.13468 2.36257 0.000 0.000 0.000
v 0.39290 0.15032 2.40217 0.000 0.000 0.000
v 0.36178 0.13216 2.44177 0.000 0.000 0.000
v 0.34069 0.17082 2.38473 0.929 0.000 0.000
v 0.37375 0.18635 2.42386 0.878 0.000 0.000
v 0.34785 0.16058 2.46299 0.902 0.000 0.000
v 0.31795 0.20142 2.41229 0.000 0.000 0.000
v 0.29257 0.23152 2.44066 0.000 0.000 0.000
v 0.35204 0.21735 2.45038 0.000 0.000 0.000
v 0.33401 0.22925 2.46550 0.000 0.000 0.000
v 0.33262 0.18511 2.48845 0.000 0.000 0.000
v 0.32791 0.20043 2.48814 0.000 0.000 0.000
v 0.35204 -0.22781 2.45038 0.878 0.000 0.000
v 0.34987 -0.17644 2.46526 0.902 0.000 0.000
v 0.30071 -0.23103 2.43549 0.929 0.000 0.000
v 0.37375 -0.19771 2.42386 0.000 0.000 0.000
v 0.36412 -0.14868 2.44312 0.000 0.000 0.000
v 0.32440 -0.20543 2.40462 0.000 0.000 0.000
v 0.39290 -0.15449 2.40217 0.878 0.000 0.000
v 0.37616 -0.10930 2.42550 0.902 0.000 0.000
v 0.34609 -0.16587 2.37884 0.929 0.000 0.000
v 0.40837 -0.11421 2.38561 0.000 0.000 0.000
v 0.38513 -0.07429 2.41267 0.000 0.000 0.000
v 0.36437 -0.12834 2.35856 0.000 0.000 0.000
v 0.41920 -0.07070 2.37443 0.878 0.000 0.000
v 0.39044 -0.03731 2.40482 0.902 0.000 0.000
v 0.37813 -0.08669 2.34405 0.929 0.000 0.000
v 0.42480 -0.02518 2.36880 0.000 0.000 0.000
v 0.42480 0.02102 2.36880 0.000 0.000 0.000
v 0.39170 0.00059 2.40206 0.000 0.000 0.000
v 0.38750 0.02939 2.40629 0.000 0.000 0.000
v 0.38644 -0.04219 2.33554 0.000 0.000 0.000
v 0.39064 0.00387 2.33131 0.000 0.000 0.000
v 0.15556 0.16632 3.07080 0.000 0.000 0.000
v 0.15556 -0.16632 3.07080 0.000 0.000 0.000
v 0.00000 0.00000 3.13200 0.000 0.000 0.000
v 0.01620 0.17730 3.10770 0.000 0.000 0.000
v 0.01620 -0.17730 3.10770 0.000 0.000 0.000
v -0.11704 0.13288 3.07906 0.000 0.000 0.000
v -0.11704 -0.13288 3.07906 0.000 0.000 0.000
v 0.00000 0.00000 2.92230 0.000 0.000 0.000
v 0.00000 0.00000 2.92230 0.000 0.000 0.000
v 0.01620 -0.22473 3.01198 0.000 0.000 0.000
v 0.01620 0.22473 3.01198 0.000 0.000 0.000
v 0.00000 0.00000 3.13200 0.000 0.000 0.000
v 0.18580 -0.24361 2.94680 0.000 0.000 0.000
v 0.18580 0.24361 2.94680 0.000 0.000 0.000
v -0.20884 0.21753 2.96779 0.000 0.000 0.000
v -0.20884 -0.21753 2.96779 0.000 0.000 0.000
v -0.00630 -0.20430 2.99970 0.000 0.929 0.000
v -0.02160 -0.24806 2.90606 0.906 0.000 0.000
v 0.09000 -0.26010 2.68513 0.941 0.000 0.000
v 0.32625 -0.23962 2.68513 0.953 0.000 0.000
v 0.43380 -0.17955 2.68513 0.945 0.000 0.000
v 0.47250 0.00000 2.68513 0.957 0.000 0.000
v 0.11520 -0.26010 2.54702 0.941 0.000 0.000
v 0.32625 -0.23962 2.52722 0.953 0.000 0.000
v 0.47250 0.00000 2.52722 0.957 0.000 0.000
v 0.43380 -0.17955 2.52722 0.945 0.000 0.000
v 0.30015 -0.14324 2.78788 0.000 0.000 0.843
v 0.27720 -0.20250 2.78865 0.000 0.000 0.929
v 0.27128 -0.21757 2.83725 0.000 0.000 0.867
v 0.30690 -0.07047 2.79788 0.000 0.000 0.902
v 0.29228 -0.14371 2.90106 0.000 0.000 0.698
v 0.29768 -0.07285 2.88882 0.000 0.000 0.792
v 0.27034 -0.19255 2.89921 0.000 0.000 0.812
v 0.27787 -0.19777 2.87383 0.000 0.000 0.898
v 0.29909 -0.14445 2.86832 0.000 0.000 0.749
v 0.27787 -0.19777 2.87383 0.000 0.000 0.867
v 0.30209 -0.06791 2.86421 0.890 0.000 0.000
v 0.30411 -0.05562 2.82654 0.898 0.000 0.000
v 0.30209 -0.06791 2.86421 0.000 0.000 0.859
v 0.43470 0.00000 2.47860 0.937 0.000 0.000
v 0.39600 -0.17595 2.47860 0.949 0.000 0.000
v 0.31410 -0.22770 2.47860 0.957 0.000 0.000
v 0.00630 0.00000 3.05010 0.000 0.902 0.000
v -0.33030 0.00000 2.70540 0.000 0.875 0.000
v 0.04662 -0.24570 2.49361 0.000 0.898 0.000
v 0.04662 -0.24570 2.49361 0.949 0.000 0.000
v -0.03150 -0.26370 2.74320 0.914 0.000 0.000
v 0.07560 -0.26010 2.62597 0.914 0.000 0.000
v 0.43380 0.17955 2.52722 0.890 0.000 0.000
v -0.00630 0.20430 2.99970 0.000 0.929 0.000
v 0.09000 0.26010 2.68513 0.902 0.000 0.000
v -0.02160 0.24806 2.90606 0.906 0.000 0.000
v 0.32625 0.23962 2.52722 0.925 0.000 0.000
v 0.43380 0.17955 2.68513 0.918 0.000 0.000
v 0.32625 0.23962 2.68513 0.933 0.000 0.000
v 0.11520 0.26010 2.54702 0.910 0.000 0.000
v -0.25380 0.24030 2.70540 0.000 0.863 0.000
v 0.27128 0.21757 2.83725 0.000 0.000 0.867
v 0.27720 0.20250 2.78865 0.000 0.000 0.929
v 0.30015 0.14324 2.78788 0.000 0.000 0.843
v 0.30690 0.07047 2.79788 0.000 0.000 0.902
v 0.29228 0.14371 2.90106 0.000 0.000 0.698
v 0.29768 0.07285 2.88882 0.000 0.000 0.792
v 0.27034 0.19255 2.89921 0.000 0.000 0.812
v 0.27787 0.19777 2.87383 0.000 0.000 0.898
v 0.27787 0.19777 2.87383 0.000 0.000 0.867
v 0.29909 0.14445 2.86832 0.000 0.000 0.749
v 0.30209 0.06791 2.86421 0.890 0.000 0.000
v 0.30411 0.05562 2.82654 0.898 0.000 0.000
v 0.30209 0.06791 2.86421 0.000 0.000 0.859
v 0.39600 0.17595 2.47860 0.949 0.000 0.000
v 0.31410 0.22770 2.47860 0.957 0.000 0.000
v 0.04662 0.24570 2.49361 0.929 0.000 0.000
v 0.04662 0.24570 2.49361 0.000 0.898 0.000
v 0.04662 0.24570 2.49361 0.949 0.000 0.000
v -0.03150 0.26370 2.74320 0.914 0.000 0.000
v 0.07560 0.26010 2.62597 0.914 0.000 0.000
v 0.04662 -0.24570 2.49361 0.000 0.925 0.000
v -0.25380 -0.24030 2.70540 0.000 0.875 0.000
v 0.04662 0.00000 2.49361 0.000 0.965 0.000
v -0.33030 0.00000 2.70540 0.000 0.000 0.000
v -0.25380 0.24030 2.70540 0.000 0.000 0.000
v -0.43290 0.00000 2.08575 0.000 0.000 0.000
v -0.33930 0.34389 2.11905 0.000 0.000 0.000
v -0.33930 -0.34389 2.11905 0.000 0.000 0.000
v -0.25380 -0.24030 2.70540 0.000 0.000 0.000
v -0.43290 0.00000 2.08575 0.000 0.000 0.000
v -0.33030 0.00000 2.70540 0.000 0.000 0.000
v -0.25380 -0.24030 2.70540 0.000 0.000 0.000
v -0.33930 -0.34389 2.11905 0.000 0.000 0.000
v 0.00000 -0.39607 2.46566 0.000 0.000 0.000
v 0.31050 0.00000 2.48400 0.000 0.000 0.000
v 0.29160 -0.22230 2.48400 0.000 0.000 0.000
v 0.33660 0.00000 2.08575 0.000 0.000 0.000
v 0.29160 -0.31343 2.11905 0.000 0.000 0.000
v 0.31050 0.00000 2.48400 0.000 0.000 0.000
v 0.33660 0.00000 2.08575 0.000 0.000 0.000
v 0.29160 0.22230 2.48400 0.000 0.000 0.000
v 0.29160 0.31343 2.11905 0.000 0.000 0.000
v 0.04662 0.24570 2.49361 0.000 0.000 0.000
v 0.29160 0.22230 2.48400 0.000 0.000 0.000
v 0.00000 0.39607 2.46566 0.000 0.000 0.000
v 0.00000 -0.39607 2.46566 0.000 0.000 0.000
v 0.29160 -0.31343 2.11905 0.000 0.000 0.000
v 0.29160 -0.22230 2.48400 0.000 0.000 0.000
v 0.04662 0.24570 2.49361 0.000 0.000 0.000
v 0.00000 0.39607 2.46566 0.000 0.000 0.000
v -0.25380 0.24030 2.70540 0.000 0.000 0.000
v -0.33930 0.34389 2.11905 0.000 0.000 0.000
v 0.04662 -0.24570 2.49361 0.000 0.000 0.000
v 0.29160 0.31343 2.11905 0.000 0.000 0.000
v 0.04662 -0.24570 2.49361 0.000 0.000 0.000
vt 0.91406 0.14844
vt 0.82031 0.14844
vt 0.72656 0.44531
vt 0.99219 0.08594
vt 0.99219 0.14844
vt 0.91406 0.08594
vt 0.99219 0.14844
vt 0.91406 0.14844
vt 0.82031 0.14844
vt 0.99219 0.08594
vt 0.91406 0.08594
vt 0.82031 0.08594
vt 0.99219 0.08594
vt 0.91406 0.08594
vt 0.82031 0.08594
vt 0.99219 0.08594
vt 0.91406 0.08594
vt 0.82031 0.08594
vt 0.99219 0.08594
vt 0.91406 0.08594
vt 0.82031 0.08594
vt 0.99219 0.08594
vt 0.91406 0.08594
vt 0.82031 0.08594
vt 0.99219 0.14844
vt 0.91406 0.14844
vt 0.82031 0.14844
vt 0.82031 0.08594
vt 0.91406 0.08594
vt 0.99219 0.08594
vt 0.82031 0.08594
vt 0.91406 0.08594
vt 0.99219 0.08594
vt 0.82031 0.08594
vt 0.91406 0.08594
vt 0.99219 0.08594
vt 0.82031 0.08594
vt 0.91406 0.08594
vt 0.99219 0.08594
vt 0.82031 0.08594
vt 0.91406 0.08594
vt 0.99219 0.08594
vt 0.82031 0.08594
vt 0.91406 0.08594
vt 0.99219 0.08594
vt 0.99219 0.36719
vt 0.97656 0.52344
vt 0.89844 0.53906
vt 0.97656 0.49219
vt 0.92969 0.53906
vt 0.99219 0.44531
vt 0.99219 0.41406
vt 0.96094 0.47656
vt 0.96094 0.41406
vt 0.96094 0.38281
vt 0.96094 0.41406
vt 0.91406 0.52344
vt 0.92969 0.53906
vt 0.99219 0.53906
vt 0.97656 0.39844
vt 0.91406 0.52344
vt 0.99219 0.53906
vt 0.99219 0.36719
vt 0.97656 0.39844
vt 0.97656 0.35156
vt 0.97656 0.53906
vt 0.96094 0.38281
vt 0.99219 0.44531
vt 0.99219 0.44531
vt 0.92969 0.46094
vt 0.92969 0.41406
vt 0.92969 0.41406
vt 0.92969 0.46094
vt 0.89844 0.46094
vt 0.94531 0.49219
vt 0.89844 0.46094
vt 0.94531 0.49219
vt 0.94531 0.50781
vt 0.96094 0.50781
vt 0.94531 0.50781
vt 0.96094 0.50781
vt 0.94531 0.44531
vt 0.94531 0.44531
vt 0.88281 0.47656
vt 0.92969 0.35156
vt 0.91406 0.38281
vt 0.83594 0.38281
vt 0.86719 0.50781
vt 0.91406 0.38281
vt 0.86719 0.50781
vt 0.88281 0.42969
vt 0.85156 0.38281
vt 0.88281 0.42969
vt 0.72656 0.44531
vt 0.89844 0.36719
vt 0.88281 0.39844
vt 0.88281 0.39844
vt 0.94531 0.38281
vt 0.88281 0.44531
vt 0.96094 0.22656
vt 0.89844 0.16406
vt 0.89844 0.21094
vt 0.89844 0.25781
vt 0.83594 0.16406
vt 0.78906 0.22656
vt 0.72656 0.24219
vt 0.78906 0.22656
vt 0.72656 0.24219
vt 0.89844 0.21094
vt 0.89844 0.25781
vt 0.96094 0.22656
vt 0.96094 0.17969
vt 0.99219 0.24219
vt 0.97656 0.28906
vt 0.91406 0.32031
vt 0.75781 0.28906
vt 0.77344 0.33594
vt 0.75781 0.28906
vt 0.83594 0.28906
vt 0.85156 0.35156
vt 0.83594 0.28906
vt 0.96094 0.22656
vt 0.89844 0.16406
vt 0.89844 0.21094
vt 0.89844 0.25781
vt 0.83594 0.16406
vt 0.78906 0.22656
vt 0.72656 0.24219
vt 0.78906 0.22656
vt 0.72656 0.24219
vt 0.89844 0.21094
vt 0.89844 0.25781
vt 0.96094 0.22656
vt 0.96094 0.17969
vt 0.99219 0.24219
vt 0.97656 0.28906
vt 0.91406 0.32031
vt 0.75781 0.28906
vt 0.77344 0.33594
vt 0.75781 0.28906
vt 0.83594 0.28906
vt 0.85156 0.35156
vt 0.83594 0.28906
vt 0.61719 0.55469
vt 0.83594 0.55469
vt 0.61719 0.71094
vt 0.83594 0.71094
vt 0.61719 0.96094
vt 0.77344 0.92969
vt 0.61719 0.99219
vt 0.77344 0.99219
vt 0.55469 0.99219
vt 0.55469 0.82031
vt 0.36719 0.99219
vt 0.36719 0.82031
vt 0.39844 0.64844
vt 0.77344 0.78906
vt 0.61719 0.80469
vt 0.96094 0.71094
vt 0.61719 0.61719
vt 0.83594 0.66406
vt 0.96094 0.60156
vt 0.61719 0.60156
vt 0.75781 0.55469
vt 0.75781 0.60156
vt 0.75781 0.61719
vt 0.71094 0.66406
vt 0.75781 0.71094
vt 0.67969 0.71094
vt 0.71094 0.71094
vt 0.77344 0.66406
vt 0.61719 0.66406
vt 0.83594 0.63281
vt 0.83594 0.60156
vt 0.61719 0.89844
vt 0.80469 0.88281
vt 0.47656 0.08594
vt 0.32031 0.07031
vt 0.50781 0.07031
vt 0.63281 0.07031
vt 0.32031 0.07031
vt 0.50781 0.07031
vt 0.63281 0.07031
vt 0.50781 0.00781
vt 0.32031 0.00781
vt 0.94531 0.07031
vt 0.94531 0.00781
vt 0.63281 0.00781
vt 0.94531 0.07031
vt 0.32031 0.00781
vt 0.50781 0.00781
vt 0.63281 0.00781
vt 0.94531 0.00781
vt 0.49219 0.82031
vt 0.49219 0.99219
vt 0.49219 0.64844
vt 0.85156 0.75781
vt 0.67969 0.78906
vt 0.77344 0.85156
vt 0.49219 0.42969
vt 0.78906 0.82031
vt 0.74219 0.89844
vt 0.57031 0.42969
vt 0.72656 0.78906
vt 0.72656 0.88281
vt 0.77344 0.86719
vt 0.67969 0.86719
vt 0.58594 0.36719
vt 0.61719 0.86719
vt 0.80469 0.78906
vt 0.47656 0.36719
vt 0.32031 0.47656
vt 0.00781 0.99219
vt 0.00781 0.82031
vt 0.00781 0.64844
vt 0.00781 0.82031
vt 0.00781 0.99219
vt 0.24219 0.82031
vt 0.24219 0.99219
vt 0.71094 0.36719
vt 0.67969 0.32031
vt 0.71094 0.30469
vt 0.74219 0.32031
vt 0.69531 0.30469
vt 0.74219 0.36719
vt 0.60156 0.63281
vt 0.64844 0.42969
vt 0.60156 0.49219
vt 0.32031 0.30469
vt 0.33594 0.30469
vt 0.44531 0.30469
vt 0.44531 0.30469
vt 0.33594 0.30469
vt 0.32031 0.30469
vt 0.47656 0.30469
vt 0.75781 0.55469
vt 0.71094 0.71094
vt 0.75781 0.71094
vt 0.72656 0.78906
vt 0.67969 0.78906
vt 0.77344 0.92969
vt 0.77344 0.99219
vt 0.55469 0.82031
vt 0.49219 0.82031
vt 0.85156 0.75781
vt 0.83594 0.71094
vt 0.83594 0.66406
vt 0.49219 0.64844
vt 0.80469 0.88281
vt 0.74219 0.89844
vt 0.71094 0.66406
vt 0.67969 0.71094
vt 0.50781 0.07031
vt 0.50781 0.00781
vt 0.83594 0.55469
vt 0.63281 0.00781
vt 0.63281 0.07031
vt 0.94531 0.07031
vt 0.94531 0.00781
vt 0.77344 0.66406
vt 0.77344 0.86719
vt 0.50781 0.00781
vt 0.50781 0.07031
vt 0.63281 0.07031
vt 0.63281 0.00781
vt 0.94531 0.07031
vt 0.94531 0.00781
vt 0.77344 0.85156
vt 0.78906 0.82031
vt 0.77344 0.78906
vt 0.80469 0.78906
vt 0.58594 0.36719
vt 0.67969 0.86719
vt 0.72656 0.88281
vt 0.47656 0.36719
vt 0.49219 0.42969
vt 0.57031 0.42969
vt 0.64844 0.42969
vt 0.00781 0.82031
vt 0.24219 0.82031
vt 0.00781 0.82031
vt 0.00781 0.64844
vt 0.71094 0.36719
vt 0.67969 0.32031
vt 0.74219 0.32031
vt 0.74219 0.36719
vt 0.69531 0.30469
vt 0.71094 0.30469
vt 0.39844 0.64844
vt 0.46094 0.47656
vt 0.75781 0.08594
vt 0.63281 0.08594
vt 0.61719 0.11719
vt 0.67969 0.08594
vt 0.57031 0.08594
vt 0.50781 0.08594
vt 0.49219 0.11719
vt 0.50781 0.11719
vt 0.55469 0.11719
vt 0.67969 0.11719
vt 0.71094 0.11719
vt 0.75781 0.11719
vt 0.80469 0.10156
vt 0.75781 0.08594
vt 0.63281 0.08594
vt 0.61719 0.11719
vt 0.67969 0.08594
vt 0.57031 0.08594
vt 0.50781 0.08594
vt 0.49219 0.11719
vt 0.50781 0.11719
vt 0.55469 0.11719
vt 0.67969 0.11719
vt 0.71094 0.11719
vt 0.75781 0.11719
vt 0.80469 0.10156
vt 0.67969 0.19531
vt 0.64844 0.30469
vt 0.53906 0.30469
vt 0.50781 0.19531
vt 0.58594 0.13281
vt 0.58594 0.22656
vt 0.58594 0.22656
vt 0.67969 0.19531
vt 0.64844 0.30469
vt 0.53906 0.30469
vt 0.50781 0.19531
vt 0.58594 0.13281
vt 0.58594 0.22656
vt 0.58594 0.22656
vt 0.67969 0.19531
vt 0.64844 0.30469
vt 0.53906 0.30469
vt 0.50781 0.19531
vt 0.58594 0.13281
vt 0.58594 0.22656
vt 0.58594 0.22656
vt 0.99219 0.14844
vt 0.91406 0.14844
vt 0.82031 0.14844
vt 0.99219 0.14844
vt 0.91406 0.14844
vt 0.82031 0.14844
vt 0.99219 0.14844
vt 0.91406 0.14844
vt 0.82031 0.14844
vt 0.99219 0.14844
vt 0.91406 0.14844
vt 0.82031 0.14844
vt 0.99219 0.14844
vt 0.99219 0.08594
vt 0.91406 0.14844
vt 0.91406 0.08594
vt 0.82031 0.14844
vt 0.82031 0.08594
vt 0.91406 0.14844
vt 0.82031 0.14844
vt 0.99219 0.14844
vt 0.91406 0.14844
vt 0.82031 0.14844
vt 0.99219 0.14844
vt 0.91406 0.14844
vt 0.82031 0.14844
vt 0.99219 0.14844
vt 0.91406 0.14844
vt 0.82031 0.14844
vt 0.99219 0.14844
vt 0.91406 0.14844
vt 0.82031 0.14844
vt 0.99219 0.14844
vt 0.91406 0.14844
vt 0.91406 0.08594
vt 0.82031 0.14844
vt 0.82031 0.08594
vt 0.99219 0.14844
vt 0.99219 0.08594
vt 0.85156 0.52344
vt 0.85156 0.52344
vt 0.72656 0.47656
vt 0.86719 0.52344
vt 0.86719 0.52344
vt 0.88281 0.52344
vt 0.88281 0.52344
vt 0.72656 0.47656
vt 0.67969 0.44531
vt 0.89844 0.53906
vt 0.92969 0.53906
vt 0.67969 0.44531
vt 0.99219 0.36719
vt 0.92969 0.53906
vt 0.96094 0.38281
vt 0.97656 0.53906
vt 0.60156 0.64844
vt 0.99219 0.99219
vt 0.44531 0.08594
vt 0.33594 0.08594
vt 0.32031 0.08594
vt 0.32031 0.19531
vt 0.44531 0.08594
vt 0.33594 0.08594
vt 0.32031 0.19531
vt 0.32031 0.08594
vt 0.57031 0.32031
vt 0.64844 0.32031
vt 0.66406 0.38281
vt 0.49219 0.32031
vt 0.55469 0.47656
vt 0.47656 0.47656
vt 0.61719 0.47656
vt 0.63281 0.42969
vt 0.57031 0.41406
vt 0.63281 0.41406
vt 0.67969 0.85156
vt 0.66406 0.82031
vt 0.49219 0.41406
vt 0.46094 0.32031
vt 0.35156 0.32031
vt 0.32031 0.32031
vt 0.60156 0.99219
vt 0.46094 0.63281
vt 0.24219 0.64844
vt 0.99219 0.55469
vt 0.99219 0.75781
vt 0.96094 0.66406
vt 0.75781 0.60156
vt 0.60156 0.64844
vt 0.96094 0.71094
vt 0.99219 0.99219
vt 0.83594 0.60156
vt 0.75781 0.61719
vt 0.83594 0.63281
vt 0.96094 0.60156
vt 0.36719 0.82031
vt 0.66406 0.38281
vt 0.64844 0.32031
vt 0.57031 0.32031
vt 0.49219 0.32031
vt 0.55469 0.47656
vt 0.47656 0.47656
vt 0.61719 0.47656
vt 0.63281 0.42969
vt 0.63281 0.41406
vt 0.57031 0.41406
vt 0.67969 0.85156
vt 0.66406 0.82031
vt 0.49219 0.41406
vt 0.35156 0.32031
vt 0.32031 0.32031
vt 0.32031 0.47656
vt 0.24219 0.64844
vt 0.99219 0.55469
vt 0.99219 0.75781
vt 0.96094 0.66406
vt 0.32031 0.49219
vt 0.32031 0.63281
vt 0.46094 0.49219
vt 0.30469 0.63281
vt 0.00781 0.63281
vt 0.30469 0.00781
vt 0.00781 0.00781
vt 0.30469 0.00781
vt 0.30469 0.63281
vt 0.00781 0.00781
vt 0.00781 0.63281
vt 0.00781 0.63281
vt 0.00781 0.00781
vt 0.30469 0.00781
vt 0.30469 0.39844
vt 0.00781 0.39844
vt 0.30469 0.00781
vt 0.00781 0.00781
vt 0.00781 0.39844
vt 0.00781 0.00781
vt 0.30469 0.39844
vt 0.30469 0.00781
vt 0.30469 0.41406
vt 0.00781 0.39844
vt 0.30469 0.00781
vt 0.00781 0.00781
vt 0.30469 0.00781
vt 0.30469 0.39844
vt 0.00781 0.41406
vt 0.00781 0.00781
vt 0.30469 0.63281
vt 0.30469 0.00781
vt 0.30469 0.41406
vt 0.00781 0.00781
vt 0.00781 0.41406
usemtl m0
f 29/29 8/8 30/30
f 8/8 7/7 30/30
f 8/8 29/29 9/9
f 29/29 28/28 9/9
f 86/86 88/88 3/3
f 3/3 90/90 89/89
f 26/26 6/6 27/27
f 25/25 4/4 26/26
f 4/4 6/6 26/26
f 11/11 1/1 10/10
f 1/1 5/5 10/10
f 12/12 2/2 11/11
f 2/2 1/1 11/11
f 338/338 13/13 339/339
f 13/13 14/14 339/339
f 339/339 14/14 340/340
f 14/14 15/15 340/340
f 341/341 16/16 342/342
f 16/16 17/17 342/342
f 342/342 17/17 343/343
f 17/17 18/18 343/343
f 344/344 19/19 345/345
f 19/19 20/20 345/345
f 345/345 20/20 346/346
f 20/20 21/21 346/346
f 347/347 22/22 348/348
f 22/22 23/23 348/348
f 348/348 23/23 349/349
f 23/23 24/24 349/349
f 350/350 351/351 352/352
f 351/351 353/353 352/352
f 352/352 353/353 354/354
f 353/353 355/355 354/354
f 356/356 32/32 357/357
f 32/32 31/31 357/357
f 32/32 356/356 33/33
f 356/356 358/358 33/33
f 359/359 35/35 360/360
f 35/35 34/34 360/360
f 35/35 359/359 36/36
f 359/359 361/361 36/36
f 362/362 38/38 363/363
f 38/38 37/37 363/363
f 38/38 362/362 39/39
f 362/362 364/364 39/39
f 365/365 41/41 366/366
f 41/41 40/40 366/366
f 41/41 365/365 42/42
f 365/365 367/367 42/42
f 368/368 44/44 369/369
f 44/44 43/43 369/369
f 44/44 368/368 45/45
f 368/368 370/370 45/45
f 371/371 372/372 373/373
f 372/372 374/374 373/373
f 375/375 376/376 371/371
f 376/376 372/372 371/371
f 377/377 87/87 97/97
f 87/87 95/95 97/97
f 378/378 96/96 87/87
f 96/96 95/95 87/87
f 58/58 57/57 378/378
f 62/62 48/48 88/88
f 91/91 379/379 380/380
f 93/93 381/381 379/379
f 74/74 93/93 67/67
f 93/93 74/74 381/381
f 381/381 74/74 50/50
f 50/50 74/74 75/75
f 65/65 92/92 71/71
f 68/68 71/71 70/70
f 71/71 92/92 70/70
f 92/92 382/382 70/70
f 66/66 70/70 382/382
f 84/84 377/377 87/87
f 78/78 377/377 84/84
f 87/87 378/378 99/99
f 378/378 80/80 99/99
f 92/92 382/382 82/82
f 380/380 79/79 91/91
f 383/383 92/92 82/82
f 51/51 53/53 54/54
f 46/46 54/54 85/85
f 85/85 54/54 61/61
f 54/54 53/53 61/61
f 61/61 53/53 47/47
f 52/52 55/55 56/56
f 46/46 85/85 55/55
f 56/56 55/55 85/85
f 57/57 49/49 56/56
f 93/93 81/81 381/381
f 85/85 61/61 377/377
f 378/378 57/57 85/85
f 88/88 94/94 86/86
f 89/89 94/94 90/90
f 92/92 94/94 382/382
f 380/380 384/384 91/91
f 383/383 94/94 92/92
f 93/93 384/384 381/381
f 377/377 385/385 85/85
f 85/85 385/385 378/378
f 90/90 386/386 59/59
f 86/86 62/62 88/88
f 91/91 380/380 76/76
f 380/380 387/387 76/76
f 76/76 387/387 77/77
f 90/90 59/59 89/89
f 62/62 86/86 64/64
f 86/86 63/63 64/64
f 377/377 388/388 87/87
f 87/87 388/388 378/378
f 92/92 383/383 3/3
f 382/382 92/92 3/3
f 59/59 60/60 89/89
f 60/60 389/389 89/89
f 377/377 61/61 390/390
f 391/391 91/91 76/76
f 65/65 72/72 92/92
f 69/69 73/73 72/72
f 72/72 73/73 92/92
f 92/92 73/73 383/383
f 383/383 73/73 392/392
f 95/95 85/85 97/97
f 85/85 95/95 96/96
f 85/85 377/377 97/97
f 378/378 85/85 96/96
f 95/95 98/98 97/97
f 98/98 95/95 96/96
f 57/57 56/56 85/85
f 83/83 84/84 87/87
f 100/100 101/101 102/102
f 100/100 102/102 103/103
f 101/101 104/104 102/102
f 104/104 105/105 102/102
f 105/105 118/118 119/119
f 107/107 104/104 109/109
f 104/104 101/101 109/109
f 107/107 121/121 116/116
f 101/101 111/111 109/109
f 109/109 111/111 110/110
f 111/111 112/112 113/113
f 111/111 113/113 114/114
f 112/112 100/100 113/113
f 113/113 100/100 114/114
f 111/111 114/114 110/110
f 114/114 115/115 110/110
f 100/100 103/103 114/114
f 103/103 115/115 114/114
f 121/121 120/120 116/116
f 120/120 117/117 116/116
f 119/119 118/118 120/120
f 118/118 117/117 120/120
f 111/111 101/101 112/112
f 112/112 101/101 100/100
f 107/107 116/116 108/108
f 105/105 106/106 118/118
f 103/103 102/102 119/119
f 102/102 105/105 119/119
f 103/103 119/119 115/115
f 119/119 120/120 115/115
f 110/110 115/115 121/121
f 115/115 120/120 121/121
f 107/107 109/109 121/121
f 109/109 110/110 121/121
f 122/122 124/124 123/123
f 122/122 125/125 124/124
f 123/123 124/124 126/126
f 124/124 127/127 126/126
f 127/127 141/141 140/140
f 123/123 126/126 131/131
f 126/126 129/129 131/131
f 129/129 138/138 143/143
f 123/123 131/131 133/133
f 131/131 132/132 133/133
f 133/133 135/135 134/134
f 133/133 136/136 135/135
f 134/134 135/135 122/122
f 135/135 136/136 122/122
f 137/137 136/136 132/132
f 136/136 133/133 132/132
f 122/122 136/136 125/125
f 136/136 137/137 125/125
f 139/139 142/142 138/138
f 142/142 143/143 138/138
f 141/141 142/142 140/140
f 142/142 139/139 140/140
f 133/133 134/134 123/123
f 134/134 122/122 123/123
f 129/129 130/130 138/138
f 127/127 140/140 128/128
f 127/127 124/124 141/141
f 124/124 125/125 141/141
f 125/125 137/137 141/141
f 137/137 142/142 141/141
f 142/142 137/137 143/143
f 137/137 132/132 143/143
f 129/129 143/143 131/131
f 143/143 132/132 131/131
f 164/164 144/144 165/165
f 144/144 163/163 165/165
f 158/158 198/198 170/170
f 198/198 204/204 170/170
f 170/170 204/204 168/168
f 149/149 148/148 151/151
f 152/152 153/153 393/393
f 152/152 195/195 153/153
f 195/195 194/194 153/153
f 147/147 197/197 161/161
f 197/197 159/159 161/161
f 194/194 196/196 153/153
f 196/196 393/393 153/153
f 176/176 149/149 394/394
f 149/149 151/151 394/394
f 202/202 149/149 176/176
f 167/167 172/172 169/169
f 172/172 146/146 169/169
f 178/178 185/185 179/179
f 185/185 184/184 179/179
f 165/165 174/174 164/164
f 174/174 145/145 164/164
f 188/188 187/187 180/180
f 187/187 186/186 180/180
f 167/167 171/171 166/166
f 168/168 171/171 167/167
f 169/169 170/170 167/167
f 170/170 169/169 158/158
f 158/158 169/169 146/146
f 170/170 168/168 167/167
f 171/171 168/168 161/161
f 168/168 147/147 161/161
f 161/161 159/159 173/173
f 160/160 167/167 166/166
f 184/184 188/188 179/179
f 188/188 180/180 179/179
f 174/174 162/162 145/145
f 171/171 161/161 166/166
f 161/161 173/173 166/166
f 202/202 176/176 206/206
f 190/190 181/181 191/191
f 181/181 182/182 191/191
f 183/183 192/192 182/182
f 192/192 191/191 182/182
f 189/189 193/193 183/183
f 193/193 192/192 183/183
f 231/231 230/230 395/395
f 395/395 230/230 396/396
f 396/396 230/230 397/397
f 397/397 230/230 398/398
f 398/398 230/230 229/229
f 232/232 399/399 233/233
f 399/399 400/400 233/233
f 233/233 400/400 234/234
f 234/234 400/400 401/401
f 401/401 400/400 402/402
f 232/232 235/235 399/399
f 235/235 177/177 399/399
f 195/195 154/154 194/194
f 154/154 155/155 194/194
f 176/176 210/210 206/206
f 157/157 201/201 210/210
f 210/210 201/201 206/206
f 206/206 201/201 199/199
f 147/147 210/210 197/197
f 403/403 208/208 404/404
f 208/208 405/405 404/404
f 175/175 202/202 207/207
f 202/202 205/205 207/207
f 406/406 211/211 208/208
f 168/168 204/204 147/147
f 204/204 157/157 147/147
f 147/147 157/157 210/210
f 407/407 203/203 408/408
f 203/203 200/200 408/408
f 409/409 410/410 407/407
f 410/410 203/203 407/407
f 410/410 409/409 227/227
f 411/411 412/412 208/208
f 412/412 405/405 208/208
f 403/403 406/406 208/208
f 209/209 207/207 413/413
f 198/198 158/158 414/414
f 158/158 209/209 414/414
f 414/414 209/209 413/413
f 209/209 175/175 207/207
f 202/202 206/206 205/205
f 211/211 415/415 208/208
f 415/415 411/411 208/208
f 160/160 172/172 167/167
f 416/416 417/417 290/290
f 417/417 418/418 290/290
f 290/290 418/418 212/212
f 214/214 155/155 213/213
f 155/155 154/154 213/213
f 215/215 216/216 218/218
f 219/219 218/218 217/217
f 218/218 216/216 217/217
f 221/221 220/220 223/223
f 220/220 225/225 223/223
f 223/223 222/222 221/221
f 222/222 224/224 221/221
f 148/148 150/150 151/151
f 419/419 152/152 393/393
f 226/226 228/228 420/420
f 421/421 156/156 155/155
f 155/155 156/156 194/194
f 194/194 156/156 196/196
f 149/149 202/202 148/148
f 202/202 175/175 148/148
f 197/197 210/210 176/176
f 145/145 162/162 422/422
f 422/422 162/162 423/423
f 162/162 424/424 423/423
f 424/424 159/159 423/423
f 176/176 394/394 197/197
f 394/394 423/423 197/197
f 197/197 423/423 159/159
f 421/421 155/155 215/215
f 163/163 144/144 425/425
f 144/144 236/236 425/425
f 158/158 237/237 240/240
f 240/240 237/237 239/239
f 239/239 237/237 238/238
f 241/241 242/242 148/148
f 152/152 426/426 243/243
f 152/152 243/243 195/195
f 243/243 244/244 195/195
f 427/427 245/245 247/247
f 245/245 246/246 247/247
f 426/426 248/248 243/243
f 248/248 244/244 243/243
f 249/249 428/428 241/241
f 428/428 242/242 241/241
f 250/250 249/249 241/241
f 251/251 252/252 172/172
f 252/252 146/146 172/172
f 178/178 253/253 185/185
f 253/253 254/254 185/185
f 425/425 236/236 429/429
f 236/236 255/255 429/429
f 256/256 257/257 259/259
f 257/257 258/258 259/259
f 251/251 430/430 260/260
f 238/238 251/251 260/260
f 252/252 251/251 237/237
f 237/237 158/158 252/252
f 158/158 146/146 252/252
f 237/237 251/251 238/238
f 246/246 238/238 247/247
f 238/238 260/260 247/247
f 247/247 431/431 427/427
f 160/160 430/430 251/251
f 254/254 253/253 256/256
f 253/253 257/257 256/256
f 429/429 255/255 432/432
f 260/260 430/430 247/247
f 430/430 431/431 247/247
f 250/250 261/261 249/249
f 190/190 262/262 181/181
f 262/262 263/263 181/181
f 264/264 263/263 265/265
f 263/263 262/262 265/265
f 266/266 264/264 267/267
f 264/264 265/265 267/267
f 433/433 154/154 244/244
f 154/154 195/195 244/244
f 249/249 261/261 271/271
f 270/270 271/271 269/269
f 271/271 261/261 269/269
f 261/261 268/268 269/269
f 246/246 245/245 271/271
f 434/434 272/272 435/435
f 272/272 436/436 435/435
f 175/175 273/273 250/250
f 273/273 274/274 250/250
f 437/437 272/272 275/275
f 238/238 246/246 239/239
f 239/239 246/246 270/270
f 270/270 246/246 271/271
f 438/438 439/439 277/277
f 439/439 276/276 277/277
f 440/440 438/438 441/441
f 438/438 277/277 441/441
f 441/441 278/278 440/440
f 434/434 442/442 272/272
f 442/442 443/443 272/272
f 436/436 272/272 437/437
f 209/209 444/444 273/273
f 240/240 445/445 158/158
f 158/158 445/445 209/209
f 209/209 445/445 444/444
f 209/209 273/273 175/175
f 250/250 274/274 261/261
f 275/275 272/272 446/446
f 272/272 443/443 446/446
f 160/160 251/251 172/172
f 416/416 290/290 447/447
f 447/447 290/290 448/448
f 448/448 290/290 449/449
f 154/154 433/433 213/213
f 433/433 279/279 213/213
f 280/280 281/281 282/282
f 281/281 280/280 217/217
f 280/280 219/219 217/217
f 286/286 283/283 285/285
f 283/283 284/284 285/285
f 285/285 284/284 288/288
f 284/284 287/287 288/288
f 148/148 242/242 150/150
f 419/419 426/426 152/152
f 450/450 433/433 289/289
f 433/433 244/244 289/289
f 289/289 244/244 248/248
f 175/175 250/250 148/148
f 250/250 241/241 148/148
f 245/245 249/249 271/271
f 255/255 451/451 432/432
f 451/451 452/452 432/432
f 432/432 452/452 453/453
f 453/453 452/452 427/427
f 249/249 245/245 428/428
f 428/428 245/245 452/452
f 245/245 427/427 452/452
f 282/282 279/279 433/433
f 235/235 231/231 177/177
f 231/231 395/395 177/177
f 155/155 214/214 215/215
f 450/450 282/282 433/433
f 421/421 215/215 218/218
f 450/450 280/280 282/282
f 454/454 455/455 420/420
f 228/228 456/456 420/420
f 456/456 454/454 420/420
f 297/297 298/298 296/296
f 296/296 298/298 295/295
f 298/298 299/299 295/295
f 292/292 295/295 293/293
f 293/293 295/295 299/299
f 300/300 294/294 293/293
f 294/294 292/292 293/293
f 300/300 301/301 294/294
f 301/301 291/291 294/294
f 302/302 291/291 301/301
f 303/303 291/291 302/302
f 310/310 309/309 311/311
f 305/305 306/306 308/308
f 306/306 312/312 308/308
f 308/308 312/312 309/309
f 309/309 312/312 311/311
f 313/313 306/306 307/307
f 306/306 305/305 307/307
f 304/304 314/314 307/307
f 314/314 313/313 307/307
f 315/315 314/314 304/304
f 316/316 315/315 304/304
f 318/318 322/322 317/317
f 319/319 322/322 318/318
f 320/320 322/322 319/319
f 321/321 322/322 320/320
f 317/317 322/322 321/321
f 317/317 323/323 318/318
f 318/318 323/323 319/319
f 319/319 323/323 320/320
f 320/320 323/323 321/321
f 321/321 323/323 317/317
f 325/325 329/329 324/324
f 326/326 329/329 325/325
f 327/327 329/329 326/326
f 328/328 329/329 327/327
f 324/324 329/329 328/328
f 324/324 330/330 325/325
f 325/325 330/330 326/326
f 326/326 330/330 327/327
f 327/327 330/330 328/328
f 328/328 330/330 324/324
f 332/332 336/336 331/331
f 333/333 336/336 332/332
f 334/334 336/336 333/333
f 335/335 336/336 334/334
f 331/331 336/336 335/335
f 331/331 337/337 332/332
f 332/332 337/337 333/333
f 333/333 337/337 334/334
f 334/334 337/337 335/335
f 335/335 337/337 331/331
usemtl m1
f 457/457 458/458 459/459
f 458/458 460/460 459/459
f 461/461 462/462 463/463
f 462/462 464/464 463/463
f 465/465 466/466 467/467
f 468/468 469/469 470/470
f 469/469 471/471 470/470
f 472/472 473/473 474/474
f 473/473 475/475 474/474
f 476/476 477/477 478/478
f 479/479 480/480 481/481
f 482/482 483/483 484/484
f 483/483 485/485 484/484
f 486/486 465/465 467/467
f 477/477 487/487 478/478
f 488/488 479/479 481/481
