mtllib options527.mtl
o options527
v -0.30294 -0.05652 1.73646 0.000 0.000 0.839
v -0.29268 0.00000 1.76454 0.000 0.000 0.882
v -0.27558 0.00000 1.81152 0.000 0.000 0.839
v -0.28134 -0.04572 1.79568 0.000 0.000 0.882
v -0.26604 -0.09162 1.83762 0.000 0.000 0.839
v -0.26298 -0.02826 1.84626 0.000 0.000 0.882
v -0.24336 0.00000 1.90026 0.000 0.000 0.839
v -0.30294 0.05652 1.73646 0.000 0.000 0.839
v -0.28134 0.04572 1.79568 0.000 0.000 0.882
v -0.26604 0.09162 1.83762 0.000 0.000 0.839
v -0.26298 0.02826 1.84626 0.000 0.000 0.882
v 0.04140 -0.73260 1.40706 0.000 0.867 0.000
v 0.00000 -0.77346 1.35684 0.000 0.941 0.000
v 0.00000 -0.70560 1.38510 0.000 0.941 0.000
v -0.04086 -0.73314 1.40706 0.000 0.867 0.000
v -0.46764 -0.25794 1.15488 0.000 0.941 0.000
v -0.49392 -0.30618 1.10592 0.000 0.941 0.000
v -0.50526 -0.28782 1.17954 0.000 0.867 0.000
v -0.43020 -0.29592 1.14696 0.000 0.867 0.000
v 0.44586 -0.44622 1.27098 0.000 0.867 0.000
v 0.40824 -0.48474 1.26576 0.000 0.941 0.000
v 0.43452 -0.46962 1.19898 0.000 0.941 0.000
v 0.37080 -0.45648 1.23912 0.000 0.867 0.000
v 0.04140 -0.73260 1.40706 0.000 0.867 0.000
v 0.00000 -0.76014 1.42902 0.000 0.941 0.000
v 0.00000 -0.77346 1.35684 0.000 0.941 0.000
v -0.04086 -0.73314 1.40706 0.000 0.867 0.000
v 0.44586 -0.44622 1.27098 0.000 0.867 0.000
v 0.43452 -0.46962 1.19898 0.000 0.941 0.000
v 0.40824 -0.41814 1.24416 0.000 0.941 0.000
v 0.37080 -0.45648 1.23912 0.000 0.867 0.000
v -0.49392 -0.30618 1.10592 0.000 0.941 0.000
v -0.46764 -0.32598 1.17180 0.000 0.941 0.000
v -0.50526 -0.28782 1.17954 0.000 0.867 0.000
v -0.43020 -0.29592 1.14696 0.000 0.867 0.000
v -0.29700 -0.14760 1.89900 0.000 0.925 0.000
v -0.25020 -0.20160 1.83060 0.000 0.945 0.000
v -0.23040 0.00000 1.85400 0.000 0.925 0.000
v -0.19260 -0.14040 1.89000 0.000 0.925 0.000
v -0.24660 -0.24840 1.91520 0.000 0.925 0.000
v -0.25020 0.20160 1.83060 0.000 0.945 0.000
v -0.29700 0.14760 1.89900 0.000 0.925 0.000
v -0.19260 0.14040 1.89000 0.000 0.925 0.000
v -0.24660 0.24840 1.91520 0.000 0.925 0.000
v -0.28080 -0.16560 1.71900 0.000 0.945 0.000
v -0.30240 -0.20700 1.69560 0.000 0.925 0.000
v -0.32940 -0.12600 1.72080 0.000 0.925 0.000
v -0.26280 0.00000 1.76940 0.000 0.925 0.000
v -0.23940 -0.11340 1.73160 0.000 0.925 0.000
v -0.32940 0.12600 1.72080 0.000 0.925 0.000
v -0.28080 0.16560 1.71900 0.000 0.945 0.000
v -0.30240 0.20700 1.69560 0.000 0.925 0.000
v -0.23940 0.11340 1.73160 0.000 0.925 0.000
v -0.30312 0.00000 1.82160 0.000 0.839 0.000
v -0.29682 0.00000 1.78290 0.000 0.882 0.000
v -0.30384 -0.04032 1.76148 0.000 0.839 0.000
v -0.28854 -0.03222 1.80360 0.000 0.882 0.000
v -0.27774 -0.06462 1.83312 0.000 0.839 0.000
v -0.27522 -0.02052 1.84014 0.000 0.882 0.000
v -0.26118 0.00000 1.87866 0.000 0.839 0.000
v -0.30384 0.04032 1.76148 0.000 0.839 0.000
v -0.28854 0.03222 1.80360 0.000 0.882 0.000
v -0.27774 0.06462 1.83312 0.000 0.839 0.000
v -0.27522 0.02052 1.84014 0.000 0.882 0.000
v 0.38196 -0.43308 1.31112 0.000 0.678 0.000
v 0.40824 -0.48474 1.26576 0.000 0.678 0.000
v 0.44586 -0.44622 1.27098 0.000 0.678 0.000
v 0.37080 -0.45648 1.23912 0.000 0.678 0.000
v 0.00000 -0.69228 1.45728 0.000 0.573 0.000
v 0.00000 -0.76014 1.42902 0.000 0.686 0.000
v 0.04140 -0.73260 1.40706 0.000 0.686 0.000
v -0.04086 -0.73314 1.40706 0.000 0.686 0.000
v 0.40824 -0.41814 1.24416 0.000 0.678 0.000
v 0.38196 -0.43308 1.31112 0.000 0.678 0.000
v 0.44586 -0.44622 1.27098 0.000 0.678 0.000
v 0.37080 -0.45648 1.23912 0.000 0.678 0.000
v 0.00000 -0.70560 1.38510 0.000 0.686 0.000
v 0.00000 -0.69228 1.45728 0.000 0.573 0.000
v 0.04140 -0.73260 1.40706 0.000 0.686 0.000
v -0.04086 -0.73314 1.40706 0.000 0.686 0.000
v -0.50526 -0.28782 1.17954 0.000 0.686 0.000
v -0.46764 -0.32598 1.17180 0.000 0.686 0.000
v -0.44136 -0.27774 1.22058 0.000 0.573 0.000
v -0.43020 -0.29592 1.14696 0.000 0.686 0.000
v -0.50526 -0.28782 1.17954 0.000 0.686 0.000
v -0.44136 -0.27774 1.22058 0.000 0.573 0.000
v -0.46764 -0.25794 1.15488 0.000 0.686 0.000
v -0.43020 -0.29592 1.14696 0.000 0.686 0.000
v -0.27846 -0.40554 1.25100 0.000 0.000 0.839
v -0.18846 -0.34344 1.49400 0.000 0.000 0.839
v -0.30114 -0.38124 1.25100 0.000 0.000 0.839
v -0.37926 -0.47034 0.93798 0.000 0.000 0.839
v -0.40320 -0.44712 0.93762 0.000 0.000 0.839
v -0.56700 -0.44406 0.44460 0.000 0.000 0.839
v -0.56826 -0.46710 0.34902 0.000 0.000 0.839
v -0.50706 -0.15930 0.90162 0.000 0.000 0.839
v -0.51480 -0.18576 0.90198 0.000 0.000 0.839
v -0.41778 -0.03942 1.22400 0.000 0.000 0.839
v -0.42624 -0.06858 1.22400 0.000 0.000 0.839
v -0.38214 0.00000 1.33758 0.000 0.000 0.839
v -0.36900 0.00000 1.40562 0.000 0.000 0.839
v -0.21240 -0.32094 1.49400 0.000 0.000 0.839
v -0.12240 -0.16794 1.87920 0.000 0.000 0.839
v -0.11196 -0.19206 1.88820 0.000 0.000 0.839
v -0.42624 0.06858 1.22400 0.000 0.000 0.839
v -0.41778 0.03942 1.22400 0.000 0.000 0.839
v -0.51480 0.18576 0.90198 0.000 0.000 0.839
v -0.50706 0.15930 0.90162 0.000 0.000 0.839
v -0.56700 0.44406 0.44460 0.000 0.000 0.839
v -0.56826 0.46710 0.34902 0.000 0.000 0.839
v -0.37926 0.47034 0.93798 0.000 0.000 0.839
v -0.40320 0.44712 0.93762 0.000 0.000 0.839
v -0.30114 0.38124 1.25100 0.000 0.000 0.839
v -0.27846 0.40554 1.25100 0.000 0.000 0.839
v -0.18846 0.34344 1.49400 0.000 0.000 0.839
v -0.21240 0.32094 1.49400 0.000 0.000 0.839
v -0.12240 0.16794 1.87920 0.000 0.000 0.839
v -0.11196 0.19206 1.88820 0.000 0.000 0.839
v -0.52506 -0.38988 0.65988 0.000 0.000 0.839
v -0.54288 -0.40698 0.58860 0.000 0.000 0.839
v -0.47772 -0.40716 0.77886 0.000 0.000 0.839
v -0.48762 -0.38448 0.78822 0.000 0.000 0.839
v -0.51678 -0.31626 0.76518 0.000 0.000 0.839
v -0.50922 -0.33462 0.78066 0.000 0.000 0.839
v -0.46656 -0.41364 0.82026 0.000 0.000 0.839
v -0.44208 -0.45540 0.82602 0.000 0.000 0.839
v -0.45882 -0.38034 0.85734 0.000 0.000 0.839
v -0.47286 -0.37008 0.84186 0.000 0.000 0.839
v -0.46782 -0.33030 0.89046 0.000 0.000 0.839
v -0.45810 -0.31986 0.93636 0.000 0.000 0.839
v -0.49302 -0.30078 0.84528 0.000 0.000 0.839
v -0.49428 -0.32004 0.83430 0.000 0.000 0.839
v -0.51858 -0.29232 0.80190 0.000 0.000 0.839
v -0.53136 -0.24732 0.79452 0.000 0.000 0.839
v -0.16830 -0.42534 1.52406 0.000 0.000 0.839
v -0.16254 -0.33498 1.62486 0.000 0.000 0.839
v -0.17298 -0.36090 1.58256 0.000 0.000 0.839
v -0.18216 -0.41958 1.51452 0.000 0.000 0.839
v -0.21150 -0.37692 1.50642 0.000 0.000 0.839
v -0.20574 -0.39276 1.50462 0.000 0.000 0.839
v -0.16956 -0.44820 1.50570 0.000 0.000 0.839
v -0.14580 -0.47016 1.51182 0.000 0.000 0.839
v -0.18234 -0.45018 1.47438 0.000 0.000 0.839
v -0.18954 -0.43812 1.48140 0.000 0.000 0.839
v -0.20808 -0.44280 1.44342 0.000 0.000 0.839
v -0.21564 -0.45990 1.41696 0.000 0.000 0.839
v -0.22014 -0.40770 1.45890 0.000 0.000 0.839
v -0.21330 -0.41148 1.47168 0.000 0.000 0.839
v -0.22716 -0.38340 1.48212 0.000 0.000 0.839
v -0.24462 -0.35892 1.47132 0.000 0.000 0.839
v -0.27846 -0.40554 1.25100 0.000 0.906 0.000
v -0.50706 -0.15930 0.90162 0.000 0.918 0.000
v -0.41778 -0.03942 1.22400 0.000 0.906 0.000
v -0.37926 -0.47034 0.93798 0.000 0.918 0.000
v -0.56826 -0.46710 0.34902 0.000 0.906 0.000
v -0.18846 -0.34344 1.49400 0.000 0.906 0.000
v -0.38214 0.00000 1.33758 0.000 0.906 0.000
v -0.33948 0.00000 1.40760 0.000 0.910 0.000
v -0.15012 0.00000 1.88820 0.000 0.941 0.000
v -0.11196 -0.19206 1.88820 0.000 0.906 0.000
v -0.18846 0.34344 1.49400 0.000 0.906 0.000
v -0.11196 0.19206 1.88820 0.000 0.906 0.000
v -0.41778 0.03942 1.22400 0.000 0.906 0.000
v -0.27846 0.40554 1.25100 0.000 0.906 0.000
v -0.50706 0.15930 0.90162 0.000 0.918 0.000
v -0.37926 0.47034 0.93798 0.000 0.918 0.000
v -0.56826 0.46710 0.34902 0.000 0.906 0.000
v -0.42624 -0.06858 1.22400 0.863 0.000 0.000
v -0.51480 -0.18576 0.90198 0.824 0.000 0.000
v -0.30114 -0.38124 1.25100 0.863 0.000 0.000
v -0.40320 -0.44712 0.93762 0.867 0.000 0.000
v -0.56700 -0.44406 0.44460 0.867 0.000 0.000
v -0.21240 -0.32094 1.49400 0.906 0.000 0.000
v -0.36900 0.00000 1.40562 0.906 0.000 0.000
v -0.15192 0.00000 1.88820 0.941 0.000 0.000
v -0.12240 -0.16794 1.87920 0.906 0.000 0.000
v -0.21240 0.32094 1.49400 0.906 0.000 0.000
v -0.12240 0.16794 1.87920 0.906 0.000 0.000
v -0.42624 0.06858 1.22400 0.863 0.000 0.000
v -0.30114 0.38124 1.25100 0.863 0.000 0.000
v -0.51480 0.18576 0.90198 0.824 0.000 0.000
v -0.40320 0.44712 0.93762 0.867 0.000 0.000
v -0.56700 0.44406 0.44460 0.867 0.000 0.000
v 0.01494 -0.68526 1.46592 0.000 0.000 0.867
v 0.00000 -0.69984 1.44792 0.000 0.000 0.941
v 0.00000 -0.67572 1.45800 0.000 0.000 0.941
v -0.01440 -0.68544 1.46592 0.000 0.000 0.867
v -0.43704 -0.26316 1.22724 0.000 0.000 0.941
v -0.44640 -0.28026 1.20978 0.000 0.000 0.941
v -0.45036 -0.27378 1.23606 0.000 0.000 0.867
v -0.42354 -0.27666 1.22454 0.000 0.000 0.867
v 0.39096 -0.42822 1.32642 0.000 0.000 0.867
v 0.37764 -0.44190 1.32462 0.000 0.000 0.941
v 0.38700 -0.43650 1.30068 0.000 0.000 0.941
v 0.36414 -0.43182 1.31508 0.000 0.000 0.867
v 0.01494 -0.68526 1.46592 0.000 0.000 0.867
v 0.00000 -0.69516 1.47384 0.000 0.000 0.941
v 0.00000 -0.69984 1.44792 0.000 0.000 0.941
v -0.01440 -0.68544 1.46592 0.000 0.000 0.867
v 0.39096 -0.42822 1.32642 0.000 0.000 0.867
v 0.38700 -0.43650 1.30068 0.000 0.000 0.941
v 0.37764 -0.41814 1.31688 0.000 0.000 0.941
v 0.36414 -0.43182 1.31508 0.000 0.000 0.867
v -0.44640 -0.28026 1.20978 0.000 0.000 0.941
v -0.43704 -0.28728 1.23336 0.000 0.000 0.941
v -0.45036 -0.27378 1.23606 0.000 0.000 0.867
v -0.42354 -0.27666 1.22454 0.000 0.000 0.867
v 0.36828 -0.42354 1.34082 0.000 0.000 0.678
v 0.37764 -0.44190 1.32462 0.000 0.000 0.678
v 0.39096 -0.42822 1.32642 0.000 0.000 0.678
v 0.36414 -0.43182 1.31508 0.000 0.000 0.678
v 0.00000 -0.67086 1.48392 0.000 0.000 0.573
v 0.00000 -0.69516 1.47384 0.000 0.000 0.686
v 0.01494 -0.68526 1.46592 0.000 0.000 0.686
v -0.01440 -0.68544 1.46592 0.000 0.000 0.686
v 0.37764 -0.41814 1.31688 0.000 0.000 0.678
v 0.36828 -0.42354 1.34082 0.000 0.000 0.678
v 0.39096 -0.42822 1.32642 0.000 0.000 0.678
v 0.36414 -0.43182 1.31508 0.000 0.000 0.678
v 0.00000 -0.67572 1.45800 0.000 0.000 0.686
v 0.00000 -0.67086 1.48392 0.000 0.000 0.573
v 0.01494 -0.68526 1.46592 0.000 0.000 0.686
v -0.01440 -0.68544 1.46592 0.000 0.000 0.686
v -0.45036 -0.27378 1.23606 0.000 0.000 0.686
v -0.43704 -0.28728 1.23336 0.000 0.000 0.686
v -0.42768 -0.27018 1.25064 0.000 0.000 0.573
v -0.42354 -0.27666 1.22454 0.000 0.000 0.686
v -0.45036 -0.27378 1.23606 0.000 0.000 0.686
v -0.42768 -0.27018 1.25064 0.000 0.000 0.573
v -0.43704 -0.26316 1.22724 0.000 0.000 0.686
v -0.42354 -0.27666 1.22454 0.000 0.000 0.686
v -0.25884 -0.31842 1.47852 0.000 0.000 0.839
v -0.25074 -0.41922 1.40238 0.000 0.000 0.839
v -0.24750 -0.31788 1.49832 0.000 0.000 0.839
v -0.23508 -0.42624 1.41534 0.000 0.000 0.839
v -0.23508 -0.48978 1.36368 0.000 0.000 0.839
v -0.22716 -0.47700 1.38942 0.000 0.000 0.839
v -0.19062 -0.47880 1.43046 0.000 0.000 0.839
v -0.18414 -0.49806 1.42524 0.000 0.000 0.839
v -0.10512 -0.48690 1.53522 0.000 0.000 0.839
v -0.11016 -0.46890 1.54764 0.000 0.000 0.839
v -0.25380 0.00000 1.81260 0.000 0.886 0.000
v -0.32940 -0.12600 1.72080 0.000 0.882 0.000
v -0.28620 -0.16380 1.78740 0.000 0.882 0.000
v -0.26280 0.00000 1.76940 0.000 0.886 0.000
v -0.28260 -0.22320 1.72620 0.000 0.969 0.000
v -0.25740 -0.21060 1.77300 0.000 0.976 0.000
v -0.24660 -0.25920 1.84860 0.000 0.961 0.000
v -0.20160 -0.14400 1.78740 0.000 0.957 0.000
v -0.23940 -0.11340 1.73160 0.000 0.957 0.000
v -0.30240 -0.20700 1.69560 0.000 0.961 0.000
v -0.19260 -0.14040 1.89000 0.000 0.957 0.000
v -0.24660 -0.24840 1.91520 0.000 0.941 0.000
v -0.23040 0.00000 1.85400 0.000 0.886 0.000
v -0.29700 -0.14760 1.89900 0.000 0.882 0.000
v -0.28080 -0.13860 1.92420 0.000 0.882 0.000
v -0.25020 -0.23580 1.94040 0.000 0.976 0.000
v -0.22860 0.00000 1.86480 0.000 0.886 0.000
v -0.19260 -0.13680 1.90800 0.000 0.957 0.000
v -0.25380 -0.12240 1.71540 0.000 0.957 0.000
v -0.31500 -0.18540 1.67580 0.000 0.976 0.000
v -0.33300 -0.11160 1.70100 0.000 0.882 0.000
v -0.26280 0.00000 1.75860 0.000 0.886 0.000
v -0.29700 0.14760 1.89900 0.000 0.882 0.000
v -0.28620 0.16380 1.78740 0.000 0.882 0.000
v -0.24660 0.25920 1.84860 0.000 0.961 0.000
v -0.25740 0.21060 1.77300 0.000 0.976 0.000
v -0.28260 0.22320 1.72620 0.000 0.969 0.000
v -0.32940 0.12600 1.72080 0.000 0.882 0.000
v -0.20160 0.14400 1.78740 0.000 0.957 0.000
v -0.23940 0.11340 1.73160 0.000 0.957 0.000
v -0.30240 0.20700 1.69560 0.000 0.961 0.000
v -0.24660 0.24840 1.91520 0.000 0.941 0.000
v -0.19260 0.14040 1.89000 0.000 0.957 0.000
v -0.28080 0.13860 1.92420 0.000 0.882 0.000
v -0.25020 0.23580 1.94040 0.000 0.976 0.000
v -0.19260 0.13680 1.90800 0.000 0.957 0.000
v -0.33300 0.11160 1.70100 0.000 0.882 0.000
v -0.31500 0.18540 1.67580 0.000 0.976 0.000
v -0.25380 0.12240 1.71540 0.000 0.957 0.000
v -0.41580 -0.13500 1.57500 0.000 0.871 0.000
v -0.49320 -0.17820 1.49040 0.000 0.843 0.000
v -0.46980 -0.30960 1.46880 0.000 0.882 0.000
v -0.34740 -0.22680 1.61280 0.000 0.910 0.000
v -0.43200 -0.03240 1.51920 0.000 0.910 0.000
v -0.57060 -0.07740 1.36260 0.000 0.882 0.000
v -0.28620 -0.15840 1.69740 0.000 0.910 0.000
v -0.32040 -0.07560 1.67940 0.000 0.882 0.000
v -0.34020 -0.01440 1.65150 0.000 0.910 0.000
v -0.25740 0.00000 1.76940 0.000 0.937 0.000
v -0.28620 0.15840 1.69740 0.000 0.910 0.000
v -0.32040 0.07560 1.67940 0.000 0.882 0.000
v -0.41580 0.13500 1.57500 0.000 0.871 0.000
v -0.34740 0.22680 1.61280 0.000 0.910 0.000
v -0.46980 0.30960 1.46880 0.000 0.882 0.000
v -0.49320 0.17820 1.49040 0.000 0.843 0.000
v -0.43200 0.03240 1.51920 0.000 0.910 0.000
v -0.57060 0.07740 1.36260 0.000 0.882 0.000
v -0.34020 0.01440 1.65150 0.000 0.910 0.000
v 0.00000 0.70560 1.38510 0.000 0.941 0.000
v 0.00000 0.77346 1.35684 0.000 0.941 0.000
v 0.04140 0.73260 1.40706 0.000 0.867 0.000
v -0.04086 0.73314 1.40706 0.000 0.867 0.000
v -0.50526 0.28782 1.17954 0.000 0.867 0.000
v -0.49392 0.30618 1.10592 0.000 0.941 0.000
v -0.46764 0.25794 1.15488 0.000 0.941 0.000
v -0.43020 0.29592 1.14696 0.000 0.867 0.000
v 0.43452 0.46962 1.19898 0.000 0.941 0.000
v 0.40824 0.48474 1.26576 0.000 0.941 0.000
v 0.44586 0.44622 1.27098 0.000 0.867 0.000
v 0.37080 0.45648 1.23912 0.000 0.867 0.000
v 0.00000 0.77346 1.35684 0.000 0.941 0.000
v 0.00000 0.76014 1.42902 0.000 0.941 0.000
v 0.04140 0.73260 1.40706 0.000 0.867 0.000
v -0.04086 0.73314 1.40706 0.000 0.867 0.000
v 0.40824 0.41814 1.24416 0.000 0.941 0.000
v 0.43452 0.46962 1.19898 0.000 0.941 0.000
v 0.44586 0.44622 1.27098 0.000 0.867 0.000
v 0.37080 0.45648 1.23912 0.000 0.867 0.000
v -0.50526 0.28782 1.17954 0.000 0.867 0.000
v -0.46764 0.32598 1.17180 0.000 0.941 0.000
v -0.49392 0.30618 1.10592 0.000 0.941 0.000
v -0.43020 0.29592 1.14696 0.000 0.867 0.000
v 0.44586 0.44622 1.27098 0.000 0.678 0.000
v 0.40824 0.48474 1.26576 0.000 0.678 0.000
v 0.38196 0.43308 1.31112 0.000 0.678 0.000
v 0.37080 0.45648 1.23912 0.000 0.678 0.000
v 0.04140 0.73260 1.40706 0.000 0.686 0.000
v 0.00000 0.76014 1.42902 0.000 0.686 0.000
v 0.00000 0.69228 1.45728 0.000 0.573 0.000
v -0.04086 0.73314 1.40706 0.000 0.686 0.000
v 0.44586 0.44622 1.27098 0.000 0.678 0.000
v 0.38196 0.43308 1.31112 0.000 0.678 0.000
v 0.40824 0.41814 1.24416 0.000 0.678 0.000
v 0.37080 0.45648 1.23912 0.000 0.678 0.000
v 0.04140 0.73260 1.40706 0.000 0.686 0.000
v 0.00000 0.69228 1.45728 0.000 0.573 0.000
v 0.00000 0.70560 1.38510 0.000 0.686 0.000
v -0.04086 0.73314 1.40706 0.000 0.686 0.000
v -0.44136 0.27774 1.22058 0.000 0.573 0.000
v -0.46764 0.32598 1.17180 0.000 0.686 0.000
v -0.50526 0.28782 1.17954 0.000 0.686 0.000
v -0.43020 0.29592 1.14696 0.000 0.686 0.000
v -0.46764 0.25794 1.15488 0.000 0.686 0.000
v -0.44136 0.27774 1.22058 0.000 0.573 0.000
v -0.50526 0.28782 1.17954 0.000 0.686 0.000
v -0.43020 0.29592 1.14696 0.000 0.686 0.000
v -0.47772 0.40716 0.77886 0.000 0.000 0.839
v -0.54288 0.40698 0.58860 0.000 0.000 0.839
v -0.52506 0.38988 0.65988 0.000 0.000 0.839
v -0.48762 0.38448 0.78822 0.000 0.000 0.839
v -0.51678 0.31626 0.76518 0.000 0.000 0.839
v -0.50922 0.33462 0.78066 0.000 0.000 0.839
v -0.46656 0.41364 0.82026 0.000 0.000 0.839
v -0.44208 0.45540 0.82602 0.000 0.000 0.839
v -0.45882 0.38034 0.85734 0.000 0.000 0.839
v -0.47286 0.37008 0.84186 0.000 0.000 0.839
v -0.46782 0.33030 0.89046 0.000 0.000 0.839
v -0.45810 0.31986 0.93636 0.000 0.000 0.839
v -0.49302 0.30078 0.84528 0.000 0.000 0.839
v -0.49428 0.32004 0.83430 0.000 0.000 0.839
v -0.51858 0.29232 0.80190 0.000 0.000 0.839
v -0.53136 0.24732 0.79452 0.000 0.000 0.839
v -0.17298 0.36090 1.58256 0.000 0.000 0.839
v -0.16254 0.33498 1.62486 0.000 0.000 0.839
v -0.16830 0.42534 1.52406 0.000 0.000 0.839
v -0.18216 0.41958 1.51452 0.000 0.000 0.839
v -0.21150 0.37692 1.50642 0.000 0.000 0.839
v -0.20574 0.39276 1.50462 0.000 0.000 0.839
v -0.16956 0.44820 1.50570 0.000 0.000 0.839
v -0.14580 0.47016 1.51182 0.000 0.000 0.839
v -0.18234 0.45018 1.47438 0.000 0.000 0.839
v -0.18954 0.43812 1.48140 0.000 0.000 0.839
v -0.20808 0.44280 1.44342 0.000 0.000 0.839
v -0.21564 0.45990 1.41696 0.000 0.000 0.839
v -0.22014 0.40770 1.45890 0.000 0.000 0.839
v -0.21330 0.41148 1.47168 0.000 0.000 0.839
v -0.22716 0.38340 1.48212 0.000 0.000 0.839
v -0.24462 0.35892 1.47132 0.000 0.000 0.839
v 0.00000 0.67572 1.45800 0.000 0.000 0.941
v 0.00000 0.69984 1.44792 0.000 0.000 0.941
v 0.01494 0.68526 1.46592 0.000 0.000 0.867
v -0.01440 0.68544 1.46592 0.000 0.000 0.867
v -0.45036 0.27378 1.23606 0.000 0.000 0.867
v -0.44640 0.28026 1.20978 0.000 0.000 0.941
v -0.43704 0.26316 1.22724 0.000 0.000 0.941
v -0.42354 0.27666 1.22454 0.000 0.000 0.867
v 0.38700 0.43650 1.30068 0.000 0.000 0.941
v 0.37764 0.44190 1.32462 0.000 0.000 0.941
v 0.39096 0.42822 1.32642 0.000 0.000 0.867
v 0.36414 0.43182 1.31508 0.000 0.000 0.867
v 0.00000 0.69984 1.44792 0.000 0.000 0.941
v 0.00000 0.69516 1.47384 0.000 0.000 0.941
v 0.01494 0.68526 1.46592 0.000 0.000 0.867
v -0.01440 0.68544 1.46592 0.000 0.000 0.867
v 0.37764 0.41814 1.31688 0.000 0.000 0.941
v 0.38700 0.43650 1.30068 0.000 0.000 0.941
v 0.39096 0.42822 1.32642 0.000 0.000 0.867
v 0.36414 0.43182 1.31508 0.000 0.000 0.867
v -0.45036 0.27378 1.23606 0.000 0.000 0.867
v -0.43704 0.28728 1.23336 0.000 0.000 0.941
v -0.44640 0.28026 1.20978 0.000 0.000 0.941
v -0.42354 0.27666 1.22454 0.000 0.000 0.867
v 0.39096 0.42822 1.32642 0.000 0.000 0.678
v 0.37764 0.44190 1.32462 0.000 0.000 0.678
v 0.36828 0.42354 1.34082 0.000 0.000 0.678
v 0.36414 0.43182 1.31508 0.000 0.000 0.678
v 0.01494 0.68526 1.46592 0.000 0.000 0.686
v 0.00000 0.69516 1.47384 0.000 0.000 0.686
v 0.00000 0.67086 1.48392 0.000 0.000 0.573
v -0.01440 0.68544 1.46592 0.000 0.000 0.686
v 0.39096 0.42822 1.32642 0.000 0.000 0.678
v 0.36828 0.42354 1.34082 0.000 0.000 0.678
v 0.37764 0.41814 1.31688 0.000 0.000 0.678
v 0.36414 0.43182 1.31508 0.000 0.000 0.678
v 0.01494 0.68526 1.46592 0.000 0.000 0.686
v 0.00000 0.67086 1.48392 0.000 0.000 0.573
v 0.00000 0.67572 1.45800 0.000 0.000 0.686
v -0.01440 0.68544 1.46592 0.000 0.000 0.686
v -0.42768 0.27018 1.25064 0.000 0.000 0.573
v -0.43704 0.28728 1.23336 0.000 0.000 0.686
v -0.45036 0.27378 1.23606 0.000 0.000 0.686
v -0.42354 0.27666 1.22454 0.000 0.000 0.686
v -0.43704 0.26316 1.22724 0.000 0.000 0.686
v -0.42768 0.27018 1.25064 0.000 0.000 0.573
v -0.45036 0.27378 1.23606 0.000 0.000 0.686
v -0.42354 0.27666 1.22454 0.000 0.000 0.686
v -0.24750 0.31788 1.49832 0.000 0.000 0.839
v -0.25074 0.41922 1.40238 0.000 0.000 0.839
v -0.25884 0.31842 1.47852 0.000 0.000 0.839
v -0.23508 0.42624 1.41534 0.000 0.000 0.839
v -0.23508 0.48978 1.36368 0.000 0.000 0.839
v -0.22716 0.47700 1.38942 0.000 0.000 0.839
v -0.19062 0.47880 1.43046 0.000 0.000 0.839
v -0.18414 0.49806 1.42524 0.000 0.000 0.839
v -0.10512 0.48690 1.53522 0.000 0.000 0.839
v -0.11016 0.46890 1.54764 0.000 0.000 0.839
v 0.00000 -0.36324 1.80000 0.882 0.000 0.000
v 0.10350 -0.29844 1.80000 0.902 0.000 0.000
v 0.00000 -0.26820 1.89000 0.925 0.000 0.000
v -0.13086 -0.24048 1.80000 0.882 0.000 0.000
v -0.11646 -0.21510 1.89126 0.914 0.000 0.000
v -0.21978 0.00000 1.80000 0.886 0.000 0.000
v -0.28782 0.00000 1.68030 0.863 0.000 0.000
v 0.00000 -0.28062 1.98198 0.906 0.000 0.000
v 0.08460 -0.22050 1.89000 0.918 0.000 0.000
v 0.17442 -0.13338 1.89000 0.902 0.000 0.000
v 0.22662 -0.16650 1.80180 0.882 0.000 0.000
v 0.15930 -0.19584 1.97514 0.902 0.000 0.000
v -0.16488 -0.07056 1.89126 0.906 0.000 0.000
v -0.14958 -0.15480 1.99080 0.886 0.000 0.000
v -0.17640 0.00000 1.89000 0.906 0.000 0.000
v -0.17658 0.00000 1.98486 0.886 0.000 0.000
v 0.13842 -0.34722 1.72332 0.898 0.000 0.000
v 0.28422 -0.21816 1.66680 0.863 0.000 0.000
v 0.16650 -0.35928 1.68372 0.867 0.000 0.000
v -0.13896 -0.26838 1.74240 0.882 0.000 0.000
v -0.15696 -0.26298 1.71090 0.882 0.000 0.000
v -0.28980 -0.29466 1.47060 0.824 0.000 0.000
v -0.38178 -0.08856 1.48050 0.824 0.000 0.000
v -0.41904 -0.26154 1.28790 0.824 0.000 0.000
v -0.16236 -0.28926 1.67724 0.882 0.000 0.000
v -0.16488 0.07056 1.89126 0.906 0.000 0.000
v -0.13086 0.24048 1.80000 0.882 0.000 0.000
v -0.11646 0.21510 1.89126 0.914 0.000 0.000
v 0.00000 0.26820 1.89000 0.925 0.000 0.000
v 0.00000 0.36324 1.80000 0.882 0.000 0.000
v 0.10350 0.29844 1.80000 0.902 0.000 0.000
v 0.00000 0.28062 1.98198 0.906 0.000 0.000
v 0.08460 0.22050 1.89000 0.918 0.000 0.000
v 0.17442 0.13338 1.89000 0.902 0.000 0.000
v 0.22662 0.16650 1.80180 0.882 0.000 0.000
v 0.15930 0.19584 1.97514 0.902 0.000 0.000
v -0.14958 0.15480 1.99080 0.886 0.000 0.000
v 0.13842 0.34722 1.72332 0.898 0.000 0.000
v 0.13122 0.38430 1.69362 0.902 0.000 0.000
v 0.00000 0.46980 1.71180 0.882 0.000 0.000
v 0.14922 0.40806 1.65492 0.894 0.000 0.000
v 0.09846 0.52380 1.54728 0.863 0.000 0.000
v 0.00000 0.66294 1.51020 0.863 0.000 0.000
v -0.07848 0.51660 1.54188 0.863 0.000 0.000
v 0.28422 0.21816 1.66680 0.863 0.000 0.000
v 0.16650 0.35928 1.68372 0.867 0.000 0.000
v -0.14076 0.31140 1.68552 0.882 0.000 0.000
v -0.12600 0.29718 1.72368 0.882 0.000 0.000
v -0.13896 0.26838 1.74240 0.882 0.000 0.000
v -0.15696 0.26298 1.71090 0.882 0.000 0.000
v -0.28980 0.29466 1.47060 0.824 0.000 0.000
v -0.38178 0.08856 1.48050 0.824 0.000 0.000
v -0.41904 0.26154 1.28790 0.824 0.000 0.000
v -0.16236 0.28926 1.67724 0.882 0.000 0.000
v 0.16794 0.39258 1.65114 0.867 0.000 0.000
v 0.25488 0.42030 1.51272 0.867 0.000 0.000
v 0.34110 0.40950 1.40562 0.867 0.000 0.000
v 0.00000 -0.46980 1.71180 0.882 0.000 0.000
v 0.00000 -0.66294 1.51020 0.863 0.000 0.000
v 0.09846 -0.52380 1.54728 0.863 0.000 0.000
v -0.07848 -0.51660 1.54188 0.863 0.000 0.000
v 0.14922 -0.40806 1.65492 0.894 0.000 0.000
v 0.13122 -0.38430 1.69362 0.902 0.000 0.000
v -0.14076 -0.31140 1.68552 0.882 0.000 0.000
v -0.12600 -0.29718 1.72368 0.882 0.000 0.000
v 0.16938 -0.45990 1.53720 0.000 0.000 0.839
v 0.16686 -0.44802 1.55970 0.000 0.000 0.839
v 0.16038 -0.48906 1.50498 0.000 0.000 0.839
v 0.16812 -0.48762 1.50066 0.000 0.000 0.839
v 0.18828 -0.47034 1.49868 0.000 0.000 0.839
v 0.18342 -0.47718 1.49706 0.000 0.000 0.839
v 0.15858 -0.49968 1.49490 0.000 0.000 0.839
v 0.14400 -0.50760 1.49670 0.000 0.000 0.839
v 0.16542 -0.50130 1.47924 0.000 0.000 0.839
v 0.17028 -0.49662 1.48338 0.000 0.000 0.839
v 0.17982 -0.50004 1.46430 0.000 0.000 0.839
v 0.18216 -0.50850 1.45044 0.000 0.000 0.839
v 0.18972 -0.48492 1.47366 0.000 0.000 0.839
v 0.18558 -0.48618 1.47978 0.000 0.000 0.839
v 0.19566 -0.47466 1.48644 0.000 0.000 0.839
v 0.20772 -0.46458 1.48230 0.000 0.000 0.839
v 0.12042 -0.50328 1.52802 0.000 0.000 0.839
v 0.15624 -0.51426 1.46700 0.000 0.000 0.839
v 0.12636 -0.49212 1.53990 0.000 0.000 0.839
v 0.14814 -0.52398 1.46394 0.000 0.000 0.839
v 0.18882 -0.52110 1.42308 0.000 0.000 0.839
v 0.19260 -0.52938 1.40670 0.000 0.000 0.839
v 0.21510 -0.47448 1.45566 0.000 0.000 0.839
v 0.20358 -0.48006 1.46034 0.000 0.000 0.839
v 0.22248 -0.43380 1.50570 0.000 0.000 0.839
v 0.21258 -0.43092 1.52550 0.000 0.000 0.839
v 0.16038 0.48906 1.50498 0.000 0.000 0.839
v 0.16686 0.44802 1.55970 0.000 0.000 0.839
v 0.16938 0.45990 1.53720 0.000 0.000 0.839
v 0.16812 0.48762 1.50066 0.000 0.000 0.839
v 0.18828 0.47034 1.49868 0.000 0.000 0.839
v 0.18342 0.47718 1.49706 0.000 0.000 0.839
v 0.15858 0.49968 1.49490 0.000 0.000 0.839
v 0.14400 0.50760 1.49670 0.000 0.000 0.839
v 0.16542 0.50130 1.47924 0.000 0.000 0.839
v 0.17028 0.49662 1.48338 0.000 0.000 0.839
v 0.17982 0.50004 1.46430 0.000 0.000 0.839
v 0.18216 0.50850 1.45044 0.000 0.000 0.839
v 0.18972 0.48492 1.47366 0.000 0.000 0.839
v 0.18558 0.48618 1.47978 0.000 0.000 0.839
v 0.19566 0.47466 1.48644 0.000 0.000 0.839
v 0.20772 0.46458 1.48230 0.000 0.000 0.839
v 0.12636 0.49212 1.53990 0.000 0.000 0.839
v 0.15624 0.51426 1.46700 0.000 0.000 0.839
v 0.12042 0.50328 1.52802 0.000 0.000 0.839
v 0.14814 0.52398 1.46394 0.000 0.000 0.839
v 0.18882 0.52110 1.42308 0.000 0.000 0.839
v 0.19260 0.52938 1.40670 0.000 0.000 0.839
v 0.21510 0.47448 1.45566 0.000 0.000 0.839
v 0.20358 0.48006 1.46034 0.000 0.000 0.839
v 0.22248 0.43380 1.50570 0.000 0.000 0.839
v 0.21258 0.43092 1.52550 0.000 0.000 0.839
v 0.13842 -0.34722 1.72332 0.000 0.000 0.839
v 0.16794 -0.39258 1.65114 0.000 0.000 0.839
v 0.16650 -0.35928 1.68372 0.000 0.000 0.839
v 0.14922 -0.40806 1.65492 0.000 0.000 0.839
v 0.13122 -0.38430 1.69362 0.000 0.000 0.839
v 0.16650 0.35928 1.68372 0.000 0.000 0.839
v 0.16794 0.39258 1.65114 0.000 0.000 0.839
v 0.13842 0.34722 1.72332 0.000 0.000 0.839
v 0.14922 0.40806 1.65492 0.000 0.000 0.839
v 0.13122 0.38430 1.69362 0.000 0.000 0.839
v 0.08334 -0.22680 1.89360 0.000 0.000 0.839
v 0.10062 -0.24282 1.85778 0.000 0.000 0.839
v 0.10368 -0.21510 1.89396 0.000 0.000 0.839
v 0.07110 -0.24390 1.89558 0.000 0.000 0.839
v 0.07560 -0.22176 1.92150 0.000 0.000 0.839
v 0.10368 0.21510 1.89396 0.000 0.000 0.839
v 0.10062 0.24282 1.85778 0.000 0.000 0.839
v 0.08334 0.22680 1.89360 0.000 0.000 0.839
v 0.07110 0.24390 1.89558 0.000 0.000 0.839
v 0.07560 0.22176 1.92150 0.000 0.000 0.839
v 0.28422 -0.21816 1.66680 0.000 0.000 0.839
v 0.34110 -0.40950 1.40562 0.000 0.000 0.839
v 0.29160 -0.18720 1.66158 0.000 0.000 0.839
v 0.37152 -0.42714 1.33398 0.000 0.000 0.839
v 0.22662 -0.16650 1.80180 0.000 0.000 0.839
v 0.23436 -0.14130 1.80000 0.000 0.000 0.839
v 0.18720 -0.11322 1.89000 0.000 0.000 0.839
v 0.17442 -0.13338 1.89000 0.000 0.000 0.839
v 0.23148 -0.43668 1.48752 0.000 0.000 0.839
v 0.25488 -0.42030 1.51272 0.000 0.000 0.839
v 0.15930 -0.19584 1.97514 0.000 0.000 0.839
v 0.15912 -0.19422 2.01726 0.000 0.000 0.839
v 0.07560 -0.22176 1.92150 0.000 0.000 0.839
v 0.08460 -0.22050 1.89000 0.000 0.000 0.839
v 0.00000 -0.28062 1.98198 0.000 0.000 0.839
v 0.00000 -0.28386 2.01600 0.000 0.000 0.839
v -0.10854 -0.21114 1.91484 0.000 0.000 0.839
v -0.11646 -0.21510 1.89126 0.000 0.000 0.839
v -0.14958 -0.15480 1.99080 0.000 0.000 0.839
v -0.15012 -0.15624 2.01600 0.000 0.000 0.839
v -0.15156 -0.07200 1.91484 0.000 0.000 0.839
v -0.16488 -0.07056 1.89126 0.000 0.000 0.839
v -0.17658 0.00000 1.98486 0.000 0.000 0.839
v -0.17694 0.00000 2.00754 0.000 0.000 0.839
v 0.22248 -0.43380 1.50570 0.000 0.000 0.839
v 0.21258 -0.43092 1.52550 0.000 0.000 0.839
v 0.16290 -0.41400 1.62360 0.000 0.000 0.839
v 0.16794 -0.39258 1.65114 0.000 0.000 0.839
v -0.15156 0.07200 1.91484 0.000 0.000 0.839
v -0.16488 0.07056 1.89126 0.000 0.000 0.839
v -0.14958 0.15480 1.99080 0.000 0.000 0.839
v -0.15012 0.15624 2.01600 0.000 0.000 0.839
v -0.10854 0.21114 1.91484 0.000 0.000 0.839
v -0.11646 0.21510 1.89126 0.000 0.000 0.839
v 0.00000 0.28062 1.98198 0.000 0.000 0.839
v 0.00000 0.28386 2.01600 0.000 0.000 0.839
v 0.07560 0.22176 1.92150 0.000 0.000 0.839
v 0.08460 0.22050 1.89000 0.000 0.000 0.839
v 0.15930 0.19584 1.97514 0.000 0.000 0.839
v 0.15912 0.19422 2.01726 0.000 0.000 0.839
v 0.18720 0.11322 1.89000 0.000 0.000 0.839
v 0.17442 0.13338 1.89000 0.000 0.000 0.839
v 0.22662 0.16650 1.80180 0.000 0.000 0.839
v 0.23436 0.14130 1.80000 0.000 0.000 0.839
v 0.29160 0.18720 1.66158 0.000 0.000 0.839
v 0.28422 0.21816 1.66680 0.000 0.000 0.839
v 0.34110 0.40950 1.40562 0.000 0.000 0.839
v 0.37152 0.42714 1.33398 0.000 0.000 0.839
v 0.23148 0.43668 1.48752 0.000 0.000 0.839
v 0.25488 0.42030 1.51272 0.000 0.000 0.839
v 0.22248 0.43380 1.50570 0.000 0.000 0.839
v 0.21258 0.43092 1.52550 0.000 0.000 0.839
v 0.16290 0.41400 1.62360 0.000 0.000 0.839
v 0.16794 0.39258 1.65114 0.000 0.000 0.839
v 0.12636 0.49212 1.53990 0.000 0.000 0.839
v 0.09846 0.52380 1.54728 0.000 0.000 0.839
v 0.14922 0.40806 1.65492 0.000 0.000 0.839
v 0.12042 0.50328 1.52802 0.000 0.000 0.839
v 0.11502 0.51498 1.51542 0.000 0.000 0.839
v 0.00000 0.66294 1.51020 0.000 0.000 0.839
v 0.00000 0.67590 1.47978 0.000 0.000 0.839
v -0.09684 0.51138 1.51722 0.000 0.000 0.839
v -0.07848 0.51660 1.54188 0.000 0.000 0.839
v -0.10494 0.48780 1.53450 0.000 0.000 0.839
v -0.11016 0.46890 1.54764 0.000 0.000 0.839
v -0.15300 0.31104 1.65600 0.000 0.000 0.839
v -0.14076 0.31140 1.68552 0.000 0.000 0.839
v -0.28980 0.29466 1.47060 0.000 0.000 0.839
v -0.16236 0.28926 1.67724 0.000 0.000 0.839
v -0.24750 0.31788 1.49832 0.000 0.000 0.839
v -0.25884 0.31842 1.47852 0.000 0.000 0.839
v -0.27540 0.31914 1.45008 0.000 0.000 0.839
v -0.41904 0.26154 1.28790 0.000 0.000 0.839
v -0.43038 0.27270 1.24092 0.000 0.000 0.839
v -0.37764 0.06012 1.47960 0.000 0.000 0.839
v -0.38178 0.08856 1.48050 0.000 0.000 0.839
v -0.30222 0.00000 1.63170 0.000 0.000 0.839
v -0.28782 0.00000 1.68030 0.000 0.000 0.839
v -0.38178 -0.08856 1.48050 0.000 0.000 0.839
v -0.37764 -0.06012 1.47960 0.000 0.000 0.839
v -0.41904 -0.26154 1.28790 0.000 0.000 0.839
v -0.43038 -0.27270 1.24092 0.000 0.000 0.839
v -0.27540 -0.31914 1.45008 0.000 0.000 0.839
v -0.28980 -0.29466 1.47060 0.000 0.000 0.839
v -0.25884 -0.31842 1.47852 0.000 0.000 0.839
v -0.24750 -0.31788 1.49832 0.000 0.000 0.839
v -0.15300 -0.31104 1.65600 0.000 0.000 0.839
v -0.16236 -0.28926 1.67724 0.000 0.000 0.839
v -0.07848 -0.51660 1.54188 0.000 0.000 0.839
v -0.14076 -0.31140 1.68552 0.000 0.000 0.839
v -0.11016 -0.46890 1.54764 0.000 0.000 0.839
v -0.10494 -0.48780 1.53450 0.000 0.000 0.839
v -0.09684 -0.51138 1.51722 0.000 0.000 0.839
v 0.00000 -0.66294 1.51020 0.000 0.000 0.839
v 0.00000 -0.67590 1.47978 0.000 0.000 0.839
v 0.11502 -0.51498 1.51542 0.000 0.000 0.839
v 0.09846 -0.52380 1.54728 0.000 0.000 0.839
v 0.12042 -0.50328 1.52802 0.000 0.000 0.839
v 0.12636 -0.49212 1.53990 0.000 0.000 0.839
v 0.14922 -0.40806 1.65492 0.000 0.000 0.839
v -0.15696 0.26298 1.71090 0.000 0.000 0.839
v -0.13896 0.26838 1.74240 0.000 0.000 0.839
v -0.16236 0.28926 1.67724 0.000 0.000 0.839
v -0.14076 0.31140 1.68552 0.000 0.000 0.839
v -0.12600 0.29718 1.72368 0.000 0.000 0.839
v -0.16236 -0.28926 1.67724 0.000 0.000 0.839
v -0.13896 -0.26838 1.74240 0.000 0.000 0.839
v -0.15696 -0.26298 1.71090 0.000 0.000 0.839
v -0.14076 -0.31140 1.68552 0.000 0.000 0.839
v -0.12600 -0.29718 1.72368 0.000 0.000 0.839
v -0.15174 -0.30006 1.68138 0.000 0.000 0.839
v -0.15300 -0.31104 1.65600 0.000 0.000 0.839
v -0.14076 -0.31140 1.68552 0.000 0.000 0.839
v -0.16236 -0.28926 1.67724 0.000 0.000 0.839
v -0.15174 0.30006 1.68138 0.000 0.000 0.839
v -0.15300 0.31104 1.65600 0.000 0.000 0.839
v -0.16236 0.28926 1.67724 0.000 0.000 0.839
v -0.14076 0.31140 1.68552 0.000 0.000 0.839
v 0.15894 -0.39996 1.65294 0.000 0.000 0.839
v 0.16290 -0.41400 1.62360 0.000 0.000 0.839
v 0.16794 -0.39258 1.65114 0.000 0.000 0.839
v 0.14922 -0.40806 1.65492 0.000 0.000 0.839
v 0.15894 0.39996 1.65294 0.000 0.000 0.839
v 0.16290 0.41400 1.62360 0.000 0.000 0.839
v 0.14922 0.40806 1.65492 0.000 0.000 0.839
v 0.16794 0.39258 1.65114 0.000 0.000 0.839
v 0.18702 -0.17982 1.88910 0.000 0.000 0.612
v 0.18972 -0.18018 1.84608 0.000 0.000 0.839
v 0.18702 -0.16308 1.87020 0.000 0.000 0.839
v 0.19458 -0.13788 1.88298 0.000 0.000 0.839
v 0.17676 -0.15804 1.89594 0.000 0.000 0.839
v 0.16020 -0.16542 1.91952 0.000 0.000 0.839
v 0.18702 0.17982 1.88910 0.000 0.000 0.612
v 0.18972 0.18018 1.84608 0.000 0.000 0.839
v 0.17316 0.18756 1.86966 0.000 0.000 0.839
v 0.15498 0.20772 1.88172 0.000 0.000 0.839
v 0.16290 0.18234 1.89522 0.000 0.000 0.839
v 0.16020 0.16542 1.91952 0.000 0.000 0.839
v 0.16290 -0.18234 1.89522 0.000 0.000 0.937
v 0.18702 -0.17982 1.88910 0.000 0.000 0.839
v 0.16020 -0.16542 1.91952 0.000 0.000 0.839
v 0.15498 -0.20772 1.88172 0.000 0.000 0.839
v 0.17316 -0.18756 1.86966 0.000 0.000 0.937
v 0.18972 -0.18018 1.84608 0.000 0.000 0.839
v 0.19458 0.13788 1.88298 0.000 0.000 0.839
v 0.18702 0.17982 1.88910 0.000 0.000 0.839
v 0.17676 0.15804 1.89594 0.000 0.000 0.937
v 0.16020 0.16542 1.91952 0.000 0.000 0.839
v 0.18702 0.16308 1.87020 0.000 0.000 0.937
v 0.18972 0.18018 1.84608 0.000 0.000 0.839
v 0.16794 -0.39258 1.65114 0.867 0.000 0.000
v 0.25488 -0.42030 1.51272 0.867 0.000 0.000
v 0.34110 -0.40950 1.40562 0.867 0.000 0.000
v -0.26982 -0.39186 1.39500 0.000 0.902 0.000
v -0.24570 -0.50724 1.33020 0.000 0.902 0.000
v -0.16128 -0.52200 1.43442 0.000 0.902 0.000
v -0.09684 -0.51138 1.51722 0.000 0.922 0.000
v -0.27540 -0.31914 1.45008 0.000 0.910 0.000
v -0.15300 -0.31104 1.65600 0.000 0.914 0.000
v -0.00180 -0.44532 1.70802 0.000 0.925 0.000
v -0.15300 -0.31104 1.65600 0.000 0.914 0.000
v -0.00180 -0.34416 1.79190 0.000 0.925 0.000
v 0.16290 -0.41400 1.62360 0.000 0.902 0.000
v 0.09000 -0.26550 1.79190 0.000 0.902 0.000
v -0.00180 -0.25380 1.87740 0.000 0.925 0.000
v -0.12636 -0.22752 1.79190 0.000 0.906 0.000
v 0.11502 -0.51498 1.51542 0.000 0.894 0.000
v 0.00000 -0.67590 1.47978 0.000 0.925 0.000
v -0.10854 -0.21114 1.91484 0.000 0.914 0.000
v 0.00000 -0.28386 2.01600 0.000 0.906 0.000
v 0.07560 -0.22176 1.92150 0.000 0.918 0.000
v 0.07884 -0.19818 1.89000 0.000 0.914 0.000
v -0.15300 -0.31104 1.65600 0.000 0.914 0.000
v -0.30222 0.00000 1.63170 0.000 0.863 0.000
v -0.12636 -0.22752 1.79190 0.000 0.906 0.000
v -0.20970 0.00000 1.79190 0.000 0.886 0.000
v -0.10854 -0.21114 1.91484 0.000 0.914 0.000
v -0.15156 -0.07200 1.91484 0.000 0.906 0.000
v -0.15012 -0.15624 2.01600 0.000 0.886 0.000
v -0.15480 0.00000 1.89000 0.000 0.906 0.000
v -0.17694 0.00000 2.00754 0.000 0.886 0.000
v -0.12636 0.22752 1.79190 0.000 0.906 0.000
v -0.15300 0.31104 1.65600 0.000 0.914 0.000
v -0.27540 0.31914 1.45008 0.000 0.910 0.000
v -0.37764 0.06012 1.47960 0.000 0.882 0.000
v -0.43038 0.27270 1.24092 0.000 0.902 0.000
v -0.10854 0.21114 1.91484 0.000 0.914 0.000
v -0.15156 0.07200 1.91484 0.000 0.906 0.000
v -0.15012 0.15624 2.01600 0.000 0.886 0.000
v -0.37764 -0.06012 1.47960 0.000 0.882 0.000
v -0.43038 -0.27270 1.24092 0.000 0.902 0.000
v -0.09684 0.51138 1.51722 0.000 0.922 0.000
v -0.26982 0.39186 1.39500 0.000 0.902 0.000
v -0.16128 0.52200 1.43442 0.000 0.902 0.000
v -0.24570 0.50724 1.33020 0.000 0.902 0.000
v -0.15300 0.31104 1.65600 0.000 0.914 0.000
v -0.15300 0.31104 1.65600 0.000 0.914 0.000
v -0.00180 0.44532 1.70802 0.000 0.925 0.000
v -0.00180 0.34416 1.79190 0.000 0.925 0.000
v 0.16290 0.41400 1.62360 0.000 0.902 0.000
v 0.09000 0.26550 1.79190 0.000 0.902 0.000
v -0.00180 0.25380 1.87740 0.000 0.925 0.000
v -0.12636 0.22752 1.79190 0.000 0.906 0.000
v 0.11502 0.51498 1.51542 0.000 0.894 0.000
v 0.00000 0.67590 1.47978 0.000 0.925 0.000
v -0.10854 0.21114 1.91484 0.000 0.914 0.000
v 0.00000 0.28386 2.01600 0.000 0.906 0.000
v 0.07560 0.22176 1.92150 0.000 0.918 0.000
v 0.07884 0.19818 1.89000 0.000 0.914 0.000
v 0.13608 -0.53100 1.46682 0.000 0.898 0.000
v 0.19620 -0.53874 1.38600 0.000 0.902 0.000
v 0.22572 -0.47016 1.44900 0.000 0.878 0.000
v 0.23148 -0.43668 1.48752 0.000 0.863 0.000
v 0.11502 -0.51498 1.51542 0.000 0.894 0.000
v 0.16290 -0.41400 1.62360 0.000 0.902 0.000
v 0.23436 -0.14130 1.80000 0.000 0.882 0.000
v 0.09000 -0.26550 1.79190 0.000 0.902 0.000
v 0.18720 -0.11322 1.89000 0.000 0.902 0.000
v 0.07884 -0.19818 1.89000 0.000 0.914 0.000
v 0.15912 -0.19422 2.01726 0.000 0.902 0.000
v 0.07560 -0.22176 1.92150 0.000 0.918 0.000
v 0.18558 -0.34110 1.62450 0.000 0.878 0.000
v 0.29160 -0.18720 1.66158 0.000 0.863 0.000
v 0.23148 -0.43668 1.48752 0.000 0.863 0.000
v 0.37152 -0.42714 1.33398 0.000 0.902 0.000
v 0.16290 -0.41400 1.62360 0.000 0.902 0.000
v 0.22572 0.47016 1.44900 0.000 0.878 0.000
v 0.19620 0.53874 1.38600 0.000 0.902 0.000
v 0.13608 0.53100 1.46682 0.000 0.898 0.000
v 0.23148 0.43668 1.48752 0.000 0.863 0.000
v 0.11502 0.51498 1.51542 0.000 0.894 0.000
v 0.16290 0.41400 1.62360 0.000 0.902 0.000
v 0.18720 0.11322 1.89000 0.000 0.902 0.000
v 0.09000 0.26550 1.79190 0.000 0.902 0.000
v 0.23436 0.14130 1.80000 0.000 0.882 0.000
v 0.07884 0.19818 1.89000 0.000 0.914 0.000
v 0.15912 0.19422 2.01726 0.000 0.902 0.000
v 0.07560 0.22176 1.92150 0.000 0.918 0.000
v 0.18558 0.34110 1.62450 0.000 0.878 0.000
v 0.16290 0.41400 1.62360 0.000 0.902 0.000
v 0.23148 0.43668 1.48752 0.000 0.863 0.000
v 0.29160 0.18720 1.66158 0.000 0.863 0.000
v 0.37152 0.42714 1.33398 0.000 0.902 0.000
v -0.30312 0.00000 1.82160 0.000 0.000 0.839
v -0.30294 0.05652 1.73646 0.000 0.000 0.839
v -0.29286 0.00000 1.76454 0.000 0.000 0.882
v -0.30294 -0.05652 1.73646 0.000 0.000 0.686
v -0.26298 -0.02826 1.84626 0.000 0.000 0.882
v -0.26604 -0.09162 1.83762 0.000 0.000 0.839
v -0.24336 0.00000 1.90026 0.000 0.000 0.686
v -0.28134 -0.04572 1.79568 0.000 0.000 0.882
v -0.26604 -0.09162 1.83762 0.000 0.000 0.690
v -0.30294 -0.05652 1.73646 0.000 0.000 0.839
v -0.28134 0.04572 1.79568 0.000 0.000 0.882
v -0.30294 0.05652 1.73646 0.000 0.000 0.690
v -0.26604 0.09162 1.83762 0.000 0.000 0.839
v -0.24336 0.00000 1.90026 0.000 0.000 0.839
v -0.26298 0.02826 1.84626 0.000 0.000 0.882
v -0.26604 0.09162 1.83762 0.000 0.000 0.682
v 0.20502 -0.01530 1.87056 0.000 0.000 0.937
v 0.22194 -0.01584 1.85148 0.000 0.000 0.706
v 0.21420 0.00594 1.84698 0.000 0.000 0.937
v 0.22194 -0.01584 1.85148 0.000 0.000 0.839
v 0.21474 -0.01710 1.82610 0.000 0.000 0.937
v 0.21168 -0.04032 1.85004 0.000 0.000 0.937
v 0.22194 -0.01584 1.85148 0.000 0.000 0.765
v 0.20070 -0.04644 1.87434 0.000 0.000 0.937
v 0.21618 -0.05148 1.85796 0.000 0.000 0.706
v 0.21258 -0.03114 1.84788 0.000 0.000 0.937
v 0.21618 -0.05148 1.85796 0.000 0.000 0.839
v 0.21834 -0.05814 1.83600 0.000 0.000 0.937
v 0.20934 -0.07362 1.86102 0.000 0.000 0.937
v 0.21618 -0.05148 1.85796 0.000 0.000 0.765
v 0.19962 -0.08136 1.88442 0.000 0.000 0.937
v 0.21474 -0.08766 1.86840 0.000 0.000 0.706
v 0.20970 -0.06714 1.85868 0.000 0.000 0.937
v 0.21474 -0.08766 1.86840 0.000 0.000 0.839
v 0.21690 -0.09486 1.84662 0.000 0.000 0.937
v 0.20646 -0.10926 1.87038 0.000 0.000 0.937
v 0.21474 -0.08766 1.86840 0.000 0.000 0.765
v 0.19296 -0.11592 1.89396 0.000 0.000 0.937
v 0.20682 -0.12330 1.87992 0.000 0.000 0.706
v 0.20808 -0.10332 1.86822 0.000 0.000 0.937
v 0.20682 -0.12330 1.87992 0.000 0.000 0.839
v 0.20808 -0.13320 1.85904 0.000 0.000 0.937
v 0.19332 -0.14112 1.88442 0.000 0.000 0.937
v 0.20682 -0.12330 1.87992 0.000 0.000 0.765
v 0.20520 0.01908 1.87038 0.000 0.000 0.937
v 0.22194 0.01944 1.85148 0.000 0.000 0.706
v 0.21168 0.04374 1.85004 0.000 0.000 0.937
v 0.21420 -0.00414 1.84698 0.000 0.000 0.937
v 0.22194 0.01944 1.85148 0.000 0.000 0.839
v 0.21474 0.02070 1.82628 0.000 0.000 0.937
v 0.22194 0.01944 1.85148 0.000 0.000 0.765
v 0.20070 0.04644 1.87434 0.000 0.000 0.937
v 0.21618 0.05148 1.85796 0.000 0.000 0.706
v 0.20934 0.07362 1.86102 0.000 0.000 0.937
v 0.21258 0.03114 1.84788 0.000 0.000 0.937
v 0.21618 0.05148 1.85796 0.000 0.000 0.839
v 0.21834 0.05814 1.83600 0.000 0.000 0.937
v 0.21618 0.05148 1.85796 0.000 0.000 0.765
v 0.19962 0.08136 1.88442 0.000 0.000 0.937
v 0.21474 0.08766 1.86840 0.000 0.000 0.706
v 0.20646 0.10926 1.87038 0.000 0.000 0.937
v 0.20970 0.06714 1.85868 0.000 0.000 0.937
v 0.21474 0.08766 1.86840 0.000 0.000 0.839
v 0.21690 0.09486 1.84662 0.000 0.000 0.937
v 0.21474 0.08766 1.86840 0.000 0.000 0.765
v 0.19296 0.11592 1.89396 0.000 0.000 0.937
v 0.20682 0.12330 1.87992 0.000 0.000 0.706
v 0.19332 0.14112 1.88442 0.000 0.000 0.937
v 0.20808 0.10332 1.86822 0.000 0.000 0.937
v 0.20682 0.12330 1.87992 0.000 0.000 0.839
v 0.20808 0.13320 1.85904 0.000 0.000 0.937
v 0.20682 0.12330 1.87992 0.000 0.000 0.765
v -0.30312 0.00000 1.82160 0.000 0.000 0.000
v -0.29682 0.00000 1.78290 0.000 0.000 0.000
v -0.30384 -0.04032 1.76148 0.000 0.000 0.000
v -0.26118 0.00000 1.87866 0.000 0.000 0.000
v -0.27522 0.02052 1.84014 0.000 0.000 0.000
v -0.27774 0.06462 1.83312 0.000 0.000 0.000
v -0.28854 0.03222 1.80360 0.000 0.000 0.000
v -0.28854 -0.03222 1.80360 0.000 0.000 0.000
v -0.27774 -0.06462 1.83312 0.000 0.000 0.000
vt 0.84652 0.11866
vt 0.75735 0.11866
vt 0.75735 0.20794
vt 0.75735 0.11866
vt 0.84652 0.11866
vt 0.75735 0.11866
vt 0.84652 0.11866
vt 0.84652 0.11866
vt 0.75735 0.11866
vt 0.84652 0.11866
vt 0.75735 0.11866
vt 0.10645 0.59747
vt 0.00193 0.59747
vt 0.10645 0.70198
vt 0.10645 0.59747
vt 0.10645 0.70198
vt 0.00193 0.59747
vt 0.10645 0.59747
vt 0.10645 0.59747
vt 0.74236 0.13779
vt 0.63784 0.13779
vt 0.74236 0.03327
vt 0.74236 0.13779
vt 0.74236 0.13779
vt 0.63784 0.13779
vt 0.74236 0.03327
vt 0.74236 0.13779
vt 0.10645 0.59747
vt 0.00193 0.59747
vt 0.10645 0.70198
vt 0.10645 0.59747
vt 0.74236 0.03327
vt 0.63784 0.13779
vt 0.74236 0.13779
vt 0.74236 0.13779
vt 0.22457 0.88209
vt 0.11570 0.88209
vt 0.22457 0.88209
vt 0.22457 0.88209
vt 0.22457 0.88209
vt 0.11570 0.88209
vt 0.22457 0.88209
vt 0.22457 0.88209
vt 0.22457 0.88209
vt 0.11570 0.88209
vt 0.22457 0.88209
vt 0.22457 0.88209
vt 0.22457 0.88209
vt 0.22457 0.88209
vt 0.22457 0.88209
vt 0.11570 0.88209
vt 0.22457 0.88209
vt 0.22457 0.88209
vt 0.45355 0.24376
vt 0.45355 0.13256
vt 0.57788 0.06383
vt 0.55414 0.20940
vt 0.65472 0.31249
vt 0.51572 0.33373
vt 0.45355 0.46617
vt 0.32919 0.06383
vt 0.35294 0.20940
vt 0.25235 0.31249
vt 0.39136 0.33373
vt 0.74236 0.24230
vt 0.63784 0.14382
vt 0.74236 0.14382
vt 0.74236 0.14382
vt 0.74236 0.24230
vt 0.63784 0.14382
vt 0.74236 0.14382
vt 0.74236 0.14382
vt 0.11249 0.70198
vt 0.21097 0.59747
vt 0.11249 0.59747
vt 0.11249 0.59747
vt 0.11249 0.70198
vt 0.21097 0.59747
vt 0.11249 0.59747
vt 0.11249 0.59747
vt 0.74236 0.14382
vt 0.63784 0.14382
vt 0.74236 0.24230
vt 0.74236 0.14382
vt 0.11249 0.59747
vt 0.21097 0.59747
vt 0.11249 0.70198
vt 0.11249 0.59747
vt 0.04002 0.39720
vt 0.04002 0.58585
vt 0.00669 0.39745
vt 0.04002 0.26574
vt 0.00671 0.26575
vt 0.00669 0.00742
vt 0.04002 0.00742
vt 0.04002 0.28485
vt 0.00668 0.28482
vt 0.04002 0.38813
vt 0.00668 0.38762
vt 0.04002 0.48899
vt 0.00702 0.38813
vt 0.00668 0.58585
vt 0.00669 0.39745
vt 0.04002 0.39720
vt 0.00668 0.38762
vt 0.04002 0.38813
vt 0.00668 0.28482
vt 0.04002 0.28485
vt 0.00669 0.00742
vt 0.04002 0.00742
vt 0.04002 0.26574
vt 0.00671 0.26575
vt 0.00669 0.39745
vt 0.04002 0.39720
vt 0.04002 0.58585
vt 0.00668 0.58585
vt 0.00669 0.39745
vt 0.04002 0.39720
vt 0.04009 0.24037
vt 0.00723 0.24035
vt 0.00668 0.38762
vt 0.04008 0.38753
vt 0.00668 0.38762
vt 0.04008 0.38753
vt 0.04009 0.24037
vt 0.00723 0.24035
vt 0.00668 0.38762
vt 0.04008 0.38753
vt 0.04009 0.24037
vt 0.00723 0.24035
vt 0.00668 0.38762
vt 0.04008 0.38753
vt 0.04009 0.24037
vt 0.00723 0.24035
vt 0.04009 0.38762
vt 0.03954 0.24035
vt 0.00668 0.24037
vt 0.00669 0.38753
vt 0.04009 0.38762
vt 0.00669 0.38753
vt 0.00668 0.24037
vt 0.03954 0.24035
vt 0.04009 0.38762
vt 0.00669 0.38753
vt 0.00668 0.24037
vt 0.03954 0.24035
vt 0.04009 0.38762
vt 0.00669 0.38753
vt 0.00668 0.24037
vt 0.03954 0.24035
vt 0.06186 0.31555
vt 0.18403 0.21266
vt 0.20797 0.31555
vt 0.07440 0.21274
vt 0.14119 0.02541
vt 0.04968 0.39535
vt 0.22166 0.37052
vt 0.22166 0.38416
vt 0.22166 0.47779
vt 0.05220 0.47779
vt 0.04968 0.39535
vt 0.05220 0.47779
vt 0.20797 0.31555
vt 0.06186 0.31555
vt 0.18403 0.21266
vt 0.07440 0.21274
vt 0.14119 0.02541
vt 0.96226 0.73172
vt 0.92836 0.55038
vt 0.72962 0.73172
vt 0.73411 0.54981
vt 0.81371 0.23810
vt 0.73957 0.87111
vt 0.97309 0.82300
vt 0.93117 0.98766
vt 0.77697 0.98721
vt 0.73957 0.87111
vt 0.77697 0.98721
vt 0.96226 0.73172
vt 0.72962 0.73172
vt 0.92836 0.55038
vt 0.73411 0.54981
vt 0.81371 0.23810
vt 0.10645 0.59747
vt 0.00193 0.59747
vt 0.10645 0.70198
vt 0.10645 0.59747
vt 0.10645 0.70198
vt 0.00193 0.59747
vt 0.10645 0.59747
vt 0.10645 0.59747
vt 0.74236 0.13779
vt 0.63784 0.13779
vt 0.74236 0.03327
vt 0.74236 0.13779
vt 0.74236 0.13779
vt 0.63784 0.13779
vt 0.74236 0.03327
vt 0.74236 0.13779
vt 0.10645 0.59747
vt 0.00193 0.59747
vt 0.10645 0.70198
vt 0.10645 0.59747
vt 0.74236 0.03327
vt 0.63784 0.13779
vt 0.74236 0.13779
vt 0.74236 0.13779
vt 0.74236 0.24230
vt 0.63784 0.14382
vt 0.74236 0.14382
vt 0.74236 0.14382
vt 0.74236 0.24230
vt 0.63784 0.14382
vt 0.74236 0.14382
vt 0.74236 0.14382
vt 0.11249 0.70198
vt 0.21097 0.59747
vt 0.11249 0.59747
vt 0.11249 0.59747
vt 0.11249 0.70198
vt 0.21097 0.59747
vt 0.11249 0.59747
vt 0.11249 0.59747
vt 0.74236 0.14382
vt 0.63784 0.14382
vt 0.74236 0.24230
vt 0.74236 0.14382
vt 0.11249 0.59747
vt 0.21097 0.59747
vt 0.11249 0.70198
vt 0.11249 0.59747
vt 0.04008 0.39981
vt 0.04008 0.14151
vt 0.00705 0.39981
vt 0.00705 0.14151
vt 0.04008 0.00738
vt 0.00705 0.00738
vt 0.00705 0.14151
vt 0.04008 0.14151
vt 0.04008 0.39984
vt 0.00705 0.39984
vt 0.22267 0.78091
vt 0.06431 0.72152
vt 0.06431 0.78091
vt 0.22267 0.74132
vt 0.00493 0.75121
vt 0.00493 0.78091
vt 0.00493 0.82050
vt 0.06431 0.78091
vt 0.06431 0.72152
vt 0.00493 0.72152
vt 0.06431 0.85019
vt 0.00493 0.85019
vt 0.22267 0.83039
vt 0.06431 0.85019
vt 0.06431 0.86598
vt 0.00493 0.86598
vt 0.22267 0.86550
vt 0.06431 0.86598
vt 0.06785 0.70652
vt 0.00554 0.70652
vt 0.06785 0.70652
vt 0.22079 0.70652
vt 0.06431 0.85019
vt 0.06431 0.78091
vt 0.00493 0.82050
vt 0.00493 0.78091
vt 0.00493 0.75121
vt 0.06431 0.72152
vt 0.06431 0.78091
vt 0.06431 0.72152
vt 0.00493 0.72152
vt 0.00493 0.85019
vt 0.06431 0.85019
vt 0.06431 0.86598
vt 0.00493 0.86598
vt 0.06431 0.86598
vt 0.06785 0.70652
vt 0.00554 0.70652
vt 0.06785 0.70652
vt 0.10209 0.99253
vt 0.00834 0.99253
vt 0.00834 0.89878
vt 0.10209 0.89878
vt 0.10209 0.89878
vt 0.00834 0.89878
vt 0.21928 0.92222
vt 0.21928 0.99253
vt 0.21928 0.92222
vt 0.28959 0.99253
vt 0.21928 0.92222
vt 0.21928 0.99253
vt 0.10209 0.99253
vt 0.10209 0.89878
vt 0.00834 0.89878
vt 0.00834 0.99253
vt 0.10209 0.89878
vt 0.00834 0.89878
vt 0.21928 0.92222
vt 0.10645 0.70198
vt 0.00193 0.59747
vt 0.10645 0.59747
vt 0.10645 0.59747
vt 0.10645 0.59747
vt 0.00193 0.59747
vt 0.10645 0.70198
vt 0.10645 0.59747
vt 0.74236 0.03327
vt 0.63784 0.13779
vt 0.74236 0.13779
vt 0.74236 0.13779
vt 0.74236 0.03327
vt 0.63784 0.13779
vt 0.74236 0.13779
vt 0.74236 0.13779
vt 0.10645 0.70198
vt 0.00193 0.59747
vt 0.10645 0.59747
vt 0.10645 0.59747
vt 0.74236 0.13779
vt 0.63784 0.13779
vt 0.74236 0.03327
vt 0.74236 0.13779
vt 0.74236 0.14382
vt 0.63784 0.14382
vt 0.74236 0.24230
vt 0.74236 0.14382
vt 0.74236 0.14382
vt 0.63784 0.14382
vt 0.74236 0.24230
vt 0.74236 0.14382
vt 0.11249 0.59747
vt 0.21097 0.59747
vt 0.11249 0.70198
vt 0.11249 0.59747
vt 0.11249 0.59747
vt 0.21097 0.59747
vt 0.11249 0.70198
vt 0.11249 0.59747
vt 0.74236 0.24230
vt 0.63784 0.14382
vt 0.74236 0.14382
vt 0.74236 0.14382
vt 0.11249 0.70198
vt 0.21097 0.59747
vt 0.11249 0.59747
vt 0.11249 0.59747
vt 0.00668 0.38762
vt 0.00723 0.24035
vt 0.04009 0.24037
vt 0.04008 0.38753
vt 0.00668 0.38762
vt 0.04008 0.38753
vt 0.04009 0.24037
vt 0.00723 0.24035
vt 0.00668 0.38762
vt 0.04008 0.38753
vt 0.04009 0.24037
vt 0.00723 0.24035
vt 0.00668 0.38762
vt 0.04008 0.38753
vt 0.04009 0.24037
vt 0.00723 0.24035
vt 0.00668 0.24037
vt 0.03954 0.24035
vt 0.04009 0.38762
vt 0.00669 0.38753
vt 0.04009 0.38762
vt 0.00669 0.38753
vt 0.00668 0.24037
vt 0.03954 0.24035
vt 0.04009 0.38762
vt 0.00669 0.38753
vt 0.00668 0.24037
vt 0.03954 0.24035
vt 0.04009 0.38762
vt 0.00669 0.38753
vt 0.00668 0.24037
vt 0.03954 0.24035
vt 0.10645 0.70198
vt 0.00193 0.59747
vt 0.10645 0.59747
vt 0.10645 0.59747
vt 0.10645 0.59747
vt 0.00193 0.59747
vt 0.10645 0.70198
vt 0.10645 0.59747
vt 0.74236 0.03327
vt 0.63784 0.13779
vt 0.74236 0.13779
vt 0.74236 0.13779
vt 0.74236 0.03327
vt 0.63784 0.13779
vt 0.74236 0.13779
vt 0.74236 0.13779
vt 0.10645 0.70198
vt 0.00193 0.59747
vt 0.10645 0.59747
vt 0.10645 0.59747
vt 0.74236 0.13779
vt 0.63784 0.13779
vt 0.74236 0.03327
vt 0.74236 0.13779
vt 0.74236 0.14382
vt 0.63784 0.14382
vt 0.74236 0.24230
vt 0.74236 0.14382
vt 0.74236 0.14382
vt 0.63784 0.14382
vt 0.74236 0.24230
vt 0.74236 0.14382
vt 0.11249 0.59747
vt 0.21097 0.59747
vt 0.11249 0.70198
vt 0.11249 0.59747
vt 0.11249 0.59747
vt 0.21097 0.59747
vt 0.11249 0.70198
vt 0.11249 0.59747
vt 0.74236 0.24230
vt 0.63784 0.14382
vt 0.74236 0.14382
vt 0.74236 0.14382
vt 0.11249 0.70198
vt 0.21097 0.59747
vt 0.11249 0.59747
vt 0.11249 0.59747
vt 0.00705 0.39981
vt 0.04008 0.14151
vt 0.04008 0.39981
vt 0.00705 0.14151
vt 0.04008 0.00738
vt 0.00705 0.00738
vt 0.00705 0.14151
vt 0.04008 0.14151
vt 0.04008 0.39984
vt 0.00705 0.39984
vt 0.49210 0.79066
vt 0.37214 0.79066
vt 0.49210 0.88772
vt 0.65722 0.79066
vt 0.65722 0.88772
vt 0.99414 0.79066
vt 0.99414 0.66450
vt 0.49210 0.98477
vt 0.37214 0.88772
vt 0.24721 0.88772
vt 0.23574 0.79066
vt 0.30710 0.98477
vt 0.83804 0.88772
vt 0.73098 0.98865
vt 0.99414 0.88772
vt 0.99414 0.98865
vt 0.37214 0.72804
vt 0.23602 0.64315
vt 0.35572 0.67793
vt 0.65722 0.72807
vt 0.67750 0.70284
vt 0.75808 0.43545
vt 0.91278 0.44614
vt 0.82160 0.24135
vt 0.67259 0.65168
vt 0.83804 0.88772
vt 0.65722 0.79066
vt 0.65722 0.88772
vt 0.49210 0.88772
vt 0.49210 0.79066
vt 0.37214 0.79066
vt 0.49210 0.98477
vt 0.37214 0.88772
vt 0.24721 0.88772
vt 0.23574 0.79066
vt 0.30710 0.98477
vt 0.73098 0.98865
vt 0.37214 0.72804
vt 0.38478 0.68950
vt 0.49210 0.69555
vt 0.37818 0.64400
vt 0.42041 0.52009
vt 0.49210 0.48010
vt 0.57426 0.51232
vt 0.23602 0.64315
vt 0.35572 0.67793
vt 0.64100 0.66346
vt 0.63239 0.70284
vt 0.65722 0.72807
vt 0.67750 0.70284
vt 0.75808 0.43545
vt 0.91278 0.44614
vt 0.82160 0.24135
vt 0.67259 0.65168
vt 0.36237 0.63968
vt 0.33360 0.49539
vt 0.28781 0.36558
vt 0.49210 0.69555
vt 0.49210 0.48010
vt 0.42041 0.52009
vt 0.57426 0.51232
vt 0.37818 0.64400
vt 0.38478 0.68950
vt 0.64100 0.66346
vt 0.63239 0.70284
vt 0.00668 0.24037
vt 0.03954 0.24035
vt 0.04009 0.38762
vt 0.00669 0.38753
vt 0.04009 0.38762
vt 0.00669 0.38753
vt 0.00668 0.24037
vt 0.03954 0.24035
vt 0.04009 0.38762
vt 0.00669 0.38753
vt 0.00668 0.24037
vt 0.03954 0.24035
vt 0.04009 0.38762
vt 0.00669 0.38753
vt 0.00668 0.24037
vt 0.03954 0.24035
vt 0.04008 0.39981
vt 0.00705 0.14151
vt 0.00705 0.39981
vt 0.04008 0.14151
vt 0.00705 0.00738
vt 0.04008 0.00738
vt 0.04008 0.14151
vt 0.00705 0.14151
vt 0.04008 0.39984
vt 0.00705 0.39984
vt 0.04009 0.38762
vt 0.03954 0.24035
vt 0.00668 0.24037
vt 0.00669 0.38753
vt 0.04009 0.38762
vt 0.00669 0.38753
vt 0.00668 0.24037
vt 0.03954 0.24035
vt 0.04009 0.38762
vt 0.00669 0.38753
vt 0.00668 0.24037
vt 0.03954 0.24035
vt 0.04009 0.38762
vt 0.00669 0.38753
vt 0.00668 0.24037
vt 0.03954 0.24035
vt 0.00705 0.39981
vt 0.00705 0.14151
vt 0.04008 0.39981
vt 0.04008 0.14151
vt 0.00705 0.00738
vt 0.04008 0.00738
vt 0.04008 0.14151
vt 0.00705 0.14151
vt 0.04008 0.39984
vt 0.00705 0.39984
vt 0.28145 0.08329
vt 0.23980 0.03188
vt 0.24440 0.08329
vt 0.32270 0.03189
vt 0.31880 0.08329
vt 0.24440 0.08329
vt 0.23980 0.03188
vt 0.28145 0.08329
vt 0.32270 0.03189
vt 0.31880 0.08329
vt 0.28330 0.04541
vt 0.24225 0.01465
vt 0.25764 0.00469
vt 0.25764 0.00469
vt 0.32625 0.00139
vt 0.25764 0.00469
vt 0.24225 0.01465
vt 0.28330 0.04541
vt 0.25764 0.00469
vt 0.32625 0.00139
vt 0.00723 0.23535
vt 0.00719 0.00735
vt 0.04009 0.23537
vt 0.04002 0.00735
vt 0.00668 0.38262
vt 0.04008 0.38253
vt 0.04009 0.23537
vt 0.00723 0.23535
vt 0.04000 0.16395
vt 0.00714 0.16395
vt 0.00668 0.38262
vt 0.04008 0.38253
vt 0.04009 0.23537
vt 0.00723 0.23535
vt 0.00668 0.38262
vt 0.04008 0.38253
vt 0.04009 0.23537
vt 0.00723 0.23535
vt 0.00668 0.38262
vt 0.04008 0.38253
vt 0.04009 0.23537
vt 0.00723 0.23535
vt 0.00668 0.38262
vt 0.04008 0.38253
vt 0.03999 0.19402
vt 0.03999 0.22395
vt 0.04033 0.27979
vt 0.00710 0.26131
vt 0.04009 0.23537
vt 0.00723 0.23535
vt 0.00668 0.38262
vt 0.04008 0.38253
vt 0.04009 0.23537
vt 0.00723 0.23535
vt 0.00668 0.38262
vt 0.04008 0.38253
vt 0.04009 0.23537
vt 0.00723 0.23535
vt 0.00668 0.38262
vt 0.04008 0.38253
vt 0.04009 0.23537
vt 0.00723 0.23535
vt 0.00668 0.38262
vt 0.04008 0.38253
vt 0.04009 0.23537
vt 0.00723 0.23535
vt 0.00719 0.00735
vt 0.04002 0.00735
vt 0.04000 0.16395
vt 0.00714 0.16395
vt 0.03999 0.19402
vt 0.03999 0.22395
vt 0.04033 0.27979
vt 0.00710 0.26131
vt 0.04073 0.14335
vt 0.00658 0.11535
vt 0.00710 0.26131
vt 0.04074 0.13025
vt 0.04074 0.11535
vt 0.00666 0.00736
vt 0.04082 0.00736
vt 0.04080 0.11535
vt 0.00663 0.11535
vt 0.04079 0.13100
vt 0.04079 0.14335
vt 0.04033 0.27979
vt 0.00710 0.26131
vt 0.00714 0.16395
vt 0.00710 0.26131
vt 0.04000 0.19195
vt 0.04000 0.17878
vt 0.04000 0.16395
vt 0.00719 0.00735
vt 0.04002 0.00735
vt 0.04006 0.13690
vt 0.00721 0.11171
vt 0.04009 0.23537
vt 0.00723 0.23535
vt 0.00721 0.11171
vt 0.04006 0.13690
vt 0.00719 0.00735
vt 0.04002 0.00735
vt 0.04000 0.16395
vt 0.00714 0.16395
vt 0.04000 0.17878
vt 0.04000 0.19195
vt 0.04033 0.27979
vt 0.00710 0.26131
vt 0.00663 0.11535
vt 0.00710 0.26131
vt 0.04079 0.14335
vt 0.04079 0.13100
vt 0.04080 0.11535
vt 0.00666 0.00736
vt 0.04082 0.00736
vt 0.04074 0.11535
vt 0.00658 0.11535
vt 0.04074 0.13025
vt 0.04073 0.14335
vt 0.00710 0.26131
vt 0.31880 0.08329
vt 0.28145 0.08329
vt 0.32220 0.03180
vt 0.23910 0.03200
vt 0.24440 0.08329
vt 0.32220 0.03180
vt 0.28145 0.08329
vt 0.31880 0.08329
vt 0.23910 0.03200
vt 0.24440 0.08329
vt 0.24210 0.27330
vt 0.27533 0.27380
vt 0.24210 0.26291
vt 0.24210 0.26291
vt 0.24210 0.27330
vt 0.27533 0.27380
vt 0.24210 0.26291
vt 0.24210 0.26291
vt 0.24210 0.27330
vt 0.27542 0.27380
vt 0.24210 0.26291
vt 0.24210 0.26291
vt 0.24210 0.27330
vt 0.27542 0.27380
vt 0.24210 0.26291
vt 0.24210 0.26291
vt 0.99378 0.20300
vt 0.99378 0.03233
vt 0.93725 0.14648
vt 0.80923 0.20300
vt 0.93725 0.25952
vt 0.99378 0.37367
vt 0.98378 0.20300
vt 0.98378 0.03233
vt 0.92725 0.14648
vt 0.79922 0.20300
vt 0.92725 0.25952
vt 0.98378 0.37367
vt 0.92725 0.25952
vt 0.98378 0.20300
vt 0.98378 0.37367
vt 0.79922 0.20300
vt 0.92725 0.14648
vt 0.98378 0.03233
vt 0.80923 0.20300
vt 0.99378 0.20300
vt 0.93725 0.25952
vt 0.99378 0.37367
vt 0.93725 0.14648
vt 0.99378 0.03233
vt 0.36237 0.63968
vt 0.33360 0.49539
vt 0.28781 0.36558
vt 0.08152 0.04718
vt 0.14440 0.00141
vt 0.20701 0.06718
vt 0.22882 0.12156
vt 0.05106 0.09326
vt 0.16071 0.23679
vt 0.13133 0.23562
vt 0.22882 0.23562
vt 0.13133 0.35903
vt 0.05076 0.23562
vt 0.05076 0.35903
vt 0.13133 0.47811
vt 0.22882 0.35903
vt 0.05076 0.11156
vt 0.13133 0.01506
vt 0.22882 0.47811
vt 0.13133 0.38582
vt 0.05076 0.46411
vt 0.05076 0.47811
vt 0.05106 0.23526
vt 0.22503 0.23526
vt 0.05106 0.35886
vt 0.22503 0.35886
vt 0.05106 0.47816
vt 0.16138 0.47816
vt 0.07049 0.38579
vt 0.22503 0.47816
vt 0.22503 0.38579
vt 0.05106 0.35886
vt 0.05106 0.23526
vt 0.05106 0.09326
vt 0.22442 0.11926
vt 0.14062 0.00481
vt 0.05106 0.47816
vt 0.16138 0.47816
vt 0.07049 0.38579
vt 0.22442 0.11926
vt 0.14062 0.00481
vt 0.22882 0.12156
vt 0.08152 0.04718
vt 0.20701 0.06718
vt 0.14440 0.00141
vt 0.16071 0.23679
vt 0.22882 0.23562
vt 0.13133 0.23562
vt 0.13133 0.35903
vt 0.05076 0.23562
vt 0.05076 0.35903
vt 0.13133 0.47811
vt 0.22882 0.35903
vt 0.05076 0.11156
vt 0.13133 0.01506
vt 0.22882 0.47811
vt 0.13133 0.38582
vt 0.05076 0.46411
vt 0.05076 0.47811
vt 0.07114 0.04761
vt 0.13483 0.00191
vt 0.18238 0.07162
vt 0.19000 0.16000
vt 0.05076 0.11156
vt 0.13999 0.23528
vt 0.06556 0.35886
vt 0.20144 0.35886
vt 0.06556 0.47797
vt 0.20144 0.47797
vt 0.13129 0.38579
vt 0.22523 0.46997
vt 0.13976 0.23626
vt 0.06556 0.23626
vt 0.19079 0.15726
vt 0.14203 0.01367
vt 0.20144 0.23626
vt 0.18238 0.07162
vt 0.13483 0.00191
vt 0.07114 0.04761
vt 0.19000 0.16000
vt 0.05076 0.11156
vt 0.13999 0.23528
vt 0.06556 0.47797
vt 0.20144 0.35886
vt 0.06556 0.35886
vt 0.20144 0.47797
vt 0.13129 0.38579
vt 0.22523 0.46997
vt 0.13976 0.23626
vt 0.20144 0.23626
vt 0.19079 0.15726
vt 0.06556 0.23626
vt 0.14203 0.01367
vt 0.75600 0.01100
vt 0.91687 0.10021
vt 0.75600 0.10022
vt 0.91687 0.10021
vt 0.75600 0.10022
vt 0.91687 0.10021
vt 0.91687 0.10021
vt 0.75600 0.10022
vt 0.91687 0.10021
vt 0.91687 0.10021
vt 0.75600 0.10022
vt 0.91687 0.10021
vt 0.91687 0.10021
vt 0.91687 0.10021
vt 0.75600 0.10022
vt 0.91687 0.10021
vt 0.95008 0.08728
vt 0.95008 0.00292
vt 0.86572 0.00292
vt 0.95008 0.00292
vt 0.95008 0.08728
vt 0.86572 0.00292
vt 0.95008 0.00292
vt 0.95008 0.08728
vt 0.95008 0.00292
vt 0.86572 0.00292
vt 0.95008 0.00292
vt 0.95008 0.08728
vt 0.86572 0.00292
vt 0.95008 0.00292
vt 0.95008 0.08728
vt 0.95008 0.00292
vt 0.86572 0.00292
vt 0.95008 0.00292
vt 0.95008 0.08728
vt 0.86572 0.00292
vt 0.95008 0.00292
vt 0.95008 0.08728
vt 0.95008 0.00292
vt 0.86572 0.00292
vt 0.95008 0.00292
vt 0.95008 0.08728
vt 0.86572 0.00292
vt 0.95008 0.00292
vt 0.95008 0.08728
vt 0.95008 0.00292
vt 0.86572 0.00292
vt 0.86572 0.00292
vt 0.95008 0.00292
vt 0.95008 0.08728
vt 0.95008 0.00292
vt 0.95008 0.08728
vt 0.95008 0.00292
vt 0.86572 0.00292
vt 0.86572 0.00292
vt 0.95008 0.00292
vt 0.95008 0.08728
vt 0.95008 0.00292
vt 0.95008 0.08728
vt 0.95008 0.00292
vt 0.86572 0.00292
vt 0.86572 0.00292
vt 0.95008 0.00292
vt 0.95008 0.08728
vt 0.95008 0.00292
vt 0.95008 0.08728
vt 0.95008 0.00292
vt 0.86572 0.00292
vt 0.86572 0.00292
vt 0.95008 0.00292
vt 0.95008 0.08728
vt 0.95008 0.00292
vt 0.44352 0.02376
vt 0.33685 0.02311
vt 0.33685 0.02311
vt 0.33685 0.02311
vt 0.33685 0.02311
vt 0.33685 0.02311
vt 0.33685 0.02311
vt 0.33685 0.02311
vt 0.33685 0.02311
usemtl m0
f 1/1 2/2 3/3
f 3/3 4/4 1/1
f 3/3 5/5 4/4
f 3/3 6/6 5/5
f 3/3 7/7 6/6
f 3/3 2/2 8/8
f 8/8 9/9 3/3
f 9/9 10/10 3/3
f 10/10 11/11 3/3
f 11/11 7/7 3/3
f 12/12 13/13 14/14
f 15/15 14/14 13/13
f 16/16 17/17 18/18
f 17/17 16/16 19/19
f 20/20 21/21 22/22
f 23/23 22/22 21/21
f 24/24 25/25 26/26
f 27/27 26/26 25/25
f 28/28 29/29 30/30
f 31/31 30/30 29/29
f 32/32 33/33 34/34
f 33/33 32/32 35/35
f 36/36 37/37 38/38
f 38/38 37/37 39/39
f 40/40 37/37 36/36
f 39/39 37/37 40/40
f 38/38 41/41 42/42
f 43/43 41/41 38/38
f 42/42 41/41 44/44
f 44/44 41/41 43/43
f 45/45 46/46 47/47
f 45/45 47/47 48/48
f 49/49 46/46 45/45
f 48/48 49/49 45/45
f 48/48 50/50 51/51
f 50/50 52/52 51/51
f 51/51 52/52 53/53
f 51/51 53/53 48/48
f 54/54 55/55 56/56
f 54/54 56/56 57/57
f 54/54 57/57 58/58
f 54/54 58/58 59/59
f 54/54 59/59 60/60
f 61/61 55/55 54/54
f 62/62 61/61 54/54
f 63/63 62/62 54/54
f 64/64 63/63 54/54
f 60/60 64/64 54/54
f 65/65 66/66 67/67
f 66/66 65/65 68/68
f 69/69 70/70 71/71
f 70/70 69/69 72/72
f 73/73 74/74 75/75
f 74/74 73/73 76/76
f 77/77 78/78 79/79
f 78/78 77/77 80/80
f 81/81 82/82 83/83
f 84/84 83/83 82/82
f 85/85 86/86 87/87
f 88/88 87/87 86/86
f 89/89 90/90 91/91
f 91/91 92/92 89/89
f 91/91 93/93 92/92
f 92/92 93/93 94/94
f 94/94 95/95 92/92
f 94/94 96/96 95/95
f 97/97 96/96 94/94
f 98/98 96/96 97/97
f 98/98 97/97 99/99
f 99/99 100/100 98/98
f 101/101 100/100 99/99
f 102/102 91/91 90/90
f 90/90 103/103 102/102
f 103/103 90/90 104/104
f 105/105 100/100 101/101
f 106/106 100/100 105/105
f 105/105 107/107 106/106
f 107/107 108/108 106/106
f 109/109 108/108 107/107
f 110/110 108/108 109/109
f 111/111 110/110 109/109
f 109/109 112/112 111/111
f 111/111 112/112 113/113
f 114/114 111/111 113/113
f 113/113 115/115 114/114
f 115/115 113/113 116/116
f 116/116 117/117 115/115
f 118/118 115/115 117/117
f 119/119 120/120 121/121
f 122/122 119/119 121/121
f 123/123 120/120 119/119
f 123/123 119/119 124/124
f 121/121 125/125 122/122
f 121/121 126/126 125/125
f 125/125 126/126 127/127
f 128/128 125/125 127/127
f 127/127 129/129 128/128
f 127/127 130/130 129/129
f 129/129 130/130 131/131
f 132/132 129/129 131/131
f 124/124 133/133 123/123
f 131/131 133/133 132/132
f 133/133 134/134 123/123
f 131/131 134/134 133/133
f 135/135 136/136 137/137
f 135/135 137/137 138/138
f 137/137 136/136 139/139
f 140/140 137/137 139/139
f 138/138 141/141 135/135
f 141/141 142/142 135/135
f 143/143 142/142 141/141
f 143/143 141/141 144/144
f 144/144 145/145 143/143
f 145/145 146/146 143/143
f 147/147 146/146 145/145
f 147/147 145/145 148/148
f 139/139 149/149 140/140
f 148/148 149/149 147/147
f 139/139 150/150 149/149
f 149/149 150/150 147/147
f 151/151 152/152 153/153
f 151/151 154/154 152/152
f 152/152 154/154 155/155
f 156/156 151/151 153/153
f 156/156 153/153 157/157
f 156/156 157/157 158/158
f 156/156 158/158 159/159
f 160/160 156/156 159/159
f 159/159 158/158 161/161
f 158/158 157/157 161/161
f 159/159 161/161 162/162
f 157/157 163/163 161/161
f 163/163 164/164 161/161
f 163/163 165/165 164/164
f 165/165 166/166 164/164
f 167/167 166/166 165/165
f 168/168 169/169 170/170
f 169/169 171/171 170/170
f 172/172 171/171 169/169
f 168/168 170/170 173/173
f 174/174 168/168 173/173
f 175/175 174/174 173/173
f 175/175 173/173 176/176
f 177/177 174/174 175/175
f 178/178 177/177 175/175
f 177/177 179/179 174/174
f 177/177 180/180 179/179
f 180/180 181/181 179/179
f 180/180 182/182 181/181
f 181/181 182/182 183/183
f 184/184 185/185 186/186
f 187/187 186/186 185/185
f 188/188 189/189 190/190
f 189/189 188/188 191/191
f 192/192 193/193 194/194
f 195/195 194/194 193/193
f 196/196 197/197 198/198
f 199/199 198/198 197/197
f 200/200 201/201 202/202
f 203/203 202/202 201/201
f 204/204 205/205 206/206
f 205/205 204/204 207/207
f 208/208 209/209 210/210
f 209/209 208/208 211/211
f 212/212 213/213 214/214
f 213/213 212/212 215/215
f 216/216 217/217 218/218
f 217/217 216/216 219/219
f 220/220 221/221 222/222
f 221/221 220/220 223/223
f 224/224 225/225 226/226
f 227/227 226/226 225/225
f 228/228 229/229 230/230
f 231/231 230/230 229/229
f 232/232 233/233 234/234
f 234/234 233/233 235/235
f 233/233 236/236 235/235
f 235/235 236/236 237/237
f 237/237 236/236 238/238
f 238/238 236/236 239/239
f 240/240 238/238 239/239
f 241/241 238/238 240/240
f 242/242 243/243 244/244
f 245/245 243/243 242/242
f 243/243 246/246 244/244
f 244/244 246/246 247/247
f 244/244 247/247 248/248
f 247/247 246/246 249/249
f 248/248 247/247 249/249
f 249/249 245/245 242/242
f 249/249 250/250 245/245
f 249/249 246/246 250/250
f 243/243 251/251 246/246
f 246/246 251/251 250/250
f 248/248 249/249 252/252
f 253/253 248/248 252/252
f 252/252 249/249 254/254
f 254/254 249/249 242/242
f 242/242 244/244 254/254
f 254/254 244/244 255/255
f 255/255 248/248 253/253
f 255/255 244/244 248/248
f 255/255 253/253 256/256
f 256/256 253/253 257/257
f 256/256 258/258 255/255
f 258/258 254/254 255/255
f 252/252 254/254 258/258
f 259/259 253/253 252/252
f 257/257 253/253 259/259
f 252/252 258/258 259/259
f 250/250 251/251 260/260
f 251/251 261/261 260/260
f 262/262 261/261 251/251
f 262/262 251/251 243/243
f 263/263 262/262 243/243
f 250/250 260/260 263/263
f 263/263 243/243 245/245
f 245/245 250/250 263/263
f 264/264 254/254 258/258
f 264/264 265/265 254/254
f 266/266 265/265 264/264
f 266/266 267/267 265/265
f 267/267 268/268 265/265
f 265/265 268/268 269/269
f 245/245 269/269 263/263
f 265/265 269/269 242/242
f 242/242 269/269 245/245
f 270/270 268/268 267/267
f 270/270 267/267 266/266
f 242/242 245/245 270/270
f 245/245 271/271 270/270
f 271/271 268/268 270/270
f 263/263 271/271 245/245
f 268/268 272/272 269/269
f 271/271 272/272 268/268
f 273/273 266/266 264/264
f 274/274 266/266 273/273
f 274/274 270/270 266/266
f 254/254 270/270 274/274
f 242/242 270/270 254/254
f 254/254 265/265 242/242
f 275/275 273/273 264/264
f 276/276 273/273 275/275
f 264/264 258/258 275/275
f 258/258 254/254 274/274
f 274/274 273/273 277/277
f 277/277 273/273 276/276
f 277/277 258/258 274/274
f 269/269 272/272 278/278
f 272/272 279/279 278/278
f 269/269 278/278 263/263
f 280/280 272/272 271/271
f 280/280 279/279 272/272
f 263/263 280/280 271/271
f 281/281 282/282 283/283
f 281/281 283/283 284/284
f 285/285 282/282 281/281
f 285/285 286/286 282/282
f 287/287 281/281 284/284
f 288/288 281/281 287/287
f 289/289 285/285 281/281
f 289/289 281/281 288/288
f 290/290 288/288 287/287
f 290/290 289/289 288/288
f 291/291 292/292 290/290
f 291/291 293/293 292/292
f 294/294 293/293 291/291
f 294/294 295/295 293/293
f 295/295 296/296 293/293
f 293/293 296/296 297/297
f 296/296 298/298 297/297
f 293/293 297/297 299/299
f 292/292 293/293 299/299
f 292/292 299/299 290/290
f 300/300 301/301 302/302
f 301/301 300/300 303/303
f 304/304 305/305 306/306
f 307/307 306/306 305/305
f 308/308 309/309 310/310
f 309/309 308/308 311/311
f 312/312 313/313 314/314
f 313/313 312/312 315/315
f 316/316 317/317 318/318
f 317/317 316/316 319/319
f 320/320 321/321 322/322
f 323/323 322/322 321/321
f 324/324 325/325 326/326
f 327/327 326/326 325/325
f 328/328 329/329 330/330
f 331/331 330/330 329/329
f 332/332 333/333 334/334
f 335/335 334/334 333/333
f 336/336 337/337 338/338
f 339/339 338/338 337/337
f 340/340 341/341 342/342
f 341/341 340/340 343/343
f 344/344 345/345 346/346
f 345/345 344/344 347/347
f 348/348 349/349 350/350
f 348/348 350/350 351/351
f 350/350 349/349 352/352
f 353/353 350/350 352/352
f 351/351 354/354 348/348
f 354/354 355/355 348/348
f 356/356 355/355 354/354
f 356/356 354/354 357/357
f 357/357 358/358 356/356
f 358/358 359/359 356/356
f 360/360 359/359 358/358
f 360/360 358/358 361/361
f 352/352 362/362 353/353
f 361/361 362/362 360/360
f 352/352 363/363 362/362
f 362/362 363/363 360/360
f 364/364 365/365 366/366
f 367/367 364/364 366/366
f 368/368 365/365 364/364
f 368/368 364/364 369/369
f 366/366 370/370 367/367
f 366/366 371/371 370/370
f 370/370 371/371 372/372
f 373/373 370/370 372/372
f 372/372 374/374 373/373
f 372/372 375/375 374/374
f 374/374 375/375 376/376
f 377/377 374/374 376/376
f 369/369 378/378 368/368
f 376/376 378/378 377/377
f 378/378 379/379 368/368
f 376/376 379/379 378/378
f 380/380 381/381 382/382
f 381/381 380/380 383/383
f 384/384 385/385 386/386
f 387/387 386/386 385/385
f 388/388 389/389 390/390
f 389/389 388/388 391/391
f 392/392 393/393 394/394
f 393/393 392/392 395/395
f 396/396 397/397 398/398
f 397/397 396/396 399/399
f 400/400 401/401 402/402
f 403/403 402/402 401/401
f 404/404 405/405 406/406
f 407/407 406/406 405/405
f 408/408 409/409 410/410
f 411/411 410/410 409/409
f 412/412 413/413 414/414
f 415/415 414/414 413/413
f 416/416 417/417 418/418
f 419/419 418/418 417/417
f 420/420 421/421 422/422
f 421/421 420/420 423/423
f 424/424 425/425 426/426
f 425/425 424/424 427/427
f 428/428 429/429 430/430
f 431/431 429/429 428/428
f 431/431 432/432 429/429
f 433/433 432/432 431/431
f 434/434 432/432 433/433
f 435/435 432/432 434/434
f 435/435 434/434 436/436
f 436/436 434/434 437/437
f 438/438 439/439 440/440
f 441/441 438/438 440/440
f 442/442 441/441 440/440
f 443/443 441/441 442/442
f 443/443 444/444 441/441
f 442/442 440/440 445/445
f 440/440 439/439 446/446
f 440/440 446/446 445/445
f 446/446 439/439 447/447
f 439/439 448/448 447/447
f 446/446 447/447 449/449
f 450/450 443/443 442/442
f 450/450 442/442 451/451
f 452/452 443/443 450/450
f 452/452 450/450 453/453
f 438/438 454/454 439/439
f 454/454 448/448 439/439
f 454/454 455/455 448/448
f 456/456 455/455 454/454
f 441/441 444/444 457/457
f 457/457 444/444 458/458
f 444/444 459/459 458/458
f 460/460 459/459 444/444
f 460/460 461/461 459/459
f 458/458 459/459 462/462
f 453/453 463/463 452/452
f 463/463 443/443 452/452
f 464/464 444/444 443/443
f 465/465 464/464 443/443
f 465/465 443/443 463/463
f 466/466 464/464 465/465
f 466/466 467/467 464/464
f 466/466 468/468 467/467
f 469/469 466/466 465/465
f 470/470 468/468 466/466
f 469/469 470/470 466/466
f 471/471 468/468 470/470
f 471/471 472/472 468/468
f 473/473 471/471 470/470
f 474/474 465/465 463/463
f 468/468 475/475 467/467
f 468/468 472/472 475/475
f 475/475 476/476 467/467
f 467/467 476/476 477/477
f 476/476 478/478 477/477
f 478/478 479/479 477/477
f 479/479 480/480 477/477
f 477/477 480/480 481/481
f 472/472 482/482 475/475
f 475/475 482/482 483/483
f 477/477 481/481 484/484
f 477/477 484/484 467/467
f 467/467 484/484 485/485
f 486/486 467/467 485/485
f 464/464 467/467 486/486
f 486/486 444/444 464/464
f 487/487 444/444 486/486
f 487/487 488/488 444/444
f 444/444 488/488 489/489
f 488/488 490/490 489/489
f 491/491 488/488 487/487
f 482/482 492/492 483/483
f 482/482 493/493 492/492
f 482/482 494/494 493/493
f 495/495 496/496 497/497
f 498/498 496/496 495/495
f 495/495 497/497 499/499
f 495/495 499/499 500/500
f 495/495 500/500 438/438
f 438/438 500/500 454/454
f 501/501 498/498 495/495
f 438/438 501/501 495/495
f 502/502 501/501 438/438
f 502/502 438/438 457/457
f 457/457 438/438 441/441
f 503/503 504/504 505/505
f 506/506 503/503 505/505
f 507/507 504/504 503/503
f 507/507 503/503 508/508
f 505/505 509/509 506/506
f 505/505 510/510 509/509
f 509/509 510/510 511/511
f 512/512 509/509 511/511
f 511/511 513/513 512/512
f 511/511 514/514 513/513
f 513/513 514/514 515/515
f 516/516 513/513 515/515
f 508/508 517/517 507/507
f 515/515 517/517 516/516
f 517/517 518/518 507/507
f 515/515 518/518 517/517
f 519/519 520/520 521/521
f 522/522 520/520 519/519
f 522/522 523/523 520/520
f 522/522 524/524 523/523
f 524/524 525/525 523/523
f 526/526 523/523 525/525
f 526/526 525/525 527/527
f 528/528 526/526 527/527
f 529/529 530/530 531/531
f 529/529 531/531 532/532
f 531/531 530/530 533/533
f 534/534 531/531 533/533
f 532/532 535/535 529/529
f 535/535 536/536 529/529
f 537/537 536/536 535/535
f 537/537 535/535 538/538
f 538/538 539/539 537/537
f 539/539 540/540 537/537
f 541/541 540/540 539/539
f 541/541 539/539 542/542
f 533/533 543/543 534/534
f 542/542 543/543 541/541
f 533/533 544/544 543/543
f 543/543 544/544 541/541
f 545/545 546/546 547/547
f 547/547 546/546 548/548
f 546/546 549/549 548/548
f 549/549 550/550 548/548
f 549/549 551/551 550/550
f 551/551 549/549 552/552
f 553/553 551/551 552/552
f 553/553 552/552 554/554
f 555/555 556/556 557/557
f 558/558 556/556 555/555
f 559/559 558/558 555/555
f 560/560 561/561 562/562
f 562/562 561/561 563/563
f 562/562 563/563 564/564
f 565/565 566/566 567/567
f 568/568 566/566 565/565
f 565/565 567/567 569/569
f 569/569 568/568 565/565
f 570/570 571/571 572/572
f 572/572 571/571 573/573
f 574/574 570/570 572/572
f 572/572 573/573 574/574
f 575/575 576/576 577/577
f 576/576 578/578 577/577
f 575/575 577/577 579/579
f 579/579 577/577 580/580
f 579/579 580/580 581/581
f 582/582 579/579 581/581
f 583/583 578/578 576/576
f 583/583 576/576 584/584
f 585/585 582/582 581/581
f 585/585 581/581 586/586
f 586/586 587/587 585/585
f 587/587 588/588 585/585
f 589/589 588/588 587/587
f 589/589 587/587 590/590
f 590/590 591/591 589/589
f 591/591 592/592 589/589
f 593/593 592/592 591/591
f 593/593 591/591 594/594
f 594/594 595/595 593/593
f 595/595 596/596 593/593
f 597/597 596/596 595/595
f 597/597 595/595 598/598
f 599/599 583/583 584/584
f 599/599 584/584 600/600
f 600/600 584/584 601/601
f 601/601 584/584 602/602
f 598/598 603/603 597/597
f 603/603 604/604 597/597
f 605/605 604/604 603/603
f 605/605 603/603 606/606
f 606/606 607/607 605/605
f 607/607 608/608 605/605
f 609/609 608/608 607/607
f 609/609 607/607 610/610
f 610/610 611/611 609/609
f 611/611 612/612 609/609
f 613/613 612/612 611/611
f 613/613 611/611 614/614
f 614/614 615/615 613/613
f 615/615 616/616 613/613
f 615/615 617/617 616/616
f 615/615 618/618 617/617
f 618/618 619/619 617/617
f 617/617 619/619 620/620
f 619/619 621/621 620/620
f 619/619 622/622 621/621
f 621/621 622/622 623/623
f 624/624 621/621 623/623
f 624/624 623/623 625/625
f 626/626 624/624 625/625
f 627/627 624/624 626/626
f 628/628 624/624 627/627
f 627/627 629/629 630/630
f 627/627 630/630 631/631
f 629/629 632/632 630/630
f 632/632 633/633 630/630
f 633/633 634/634 630/630
f 633/633 635/635 634/634
f 634/634 635/635 636/636
f 637/637 634/634 636/636
f 637/637 636/636 638/638
f 637/637 638/638 639/639
f 640/640 637/637 639/639
f 641/641 637/637 640/640
f 640/640 642/642 643/643
f 644/644 642/642 640/640
f 645/645 642/642 644/644
f 645/645 646/646 642/642
f 646/646 647/647 642/642
f 646/646 648/648 647/647
f 647/647 648/648 649/649
f 650/650 647/647 649/649
f 650/650 649/649 651/651
f 652/652 650/650 651/651
f 651/651 653/653 652/652
f 651/651 654/654 653/653
f 654/654 655/655 653/653
f 654/654 656/656 655/655
f 655/655 656/656 657/657
f 658/658 655/655 657/657
f 658/658 657/657 659/659
f 660/660 658/658 659/659
f 661/661 658/658 660/660
f 662/662 658/658 661/661
f 661/661 663/663 664/664
f 665/665 663/663 661/661
f 665/665 666/666 663/663
f 666/666 667/667 663/663
f 667/667 668/668 663/663
f 667/667 669/669 668/668
f 668/668 669/669 670/670
f 671/671 668/668 670/670
f 671/671 670/670 672/672
f 671/671 672/672 673/673
f 671/671 673/673 601/601
f 674/674 671/671 601/601
f 675/675 676/676 677/677
f 677/677 676/676 678/678
f 679/679 676/676 678/678
f 680/680 681/681 682/682
f 683/683 681/681 680/680
f 683/683 681/681 684/684
f 685/685 686/686 687/687
f 688/688 686/686 685/685
f 689/689 690/690 691/691
f 692/692 690/690 689/689
f 693/693 694/694 695/695
f 696/696 694/694 693/693
f 697/697 698/698 699/699
f 700/700 698/698 697/697
f 701/701 702/702 703/703
f 701/701 703/703 704/704
f 705/705 701/701 704/704
f 706/706 701/701 705/705
f 707/707 708/708 709/709
f 707/707 709/709 710/710
f 711/711 707/707 710/710
f 712/712 707/707 711/711
f 713/713 714/714 715/715
f 716/716 714/714 713/713
f 716/716 717/717 714/714
f 717/717 718/718 714/714
f 719/719 720/720 721/721
f 721/721 720/720 722/722
f 719/719 723/723 720/720
f 723/723 724/724 720/720
f 456/456 725/725 455/455
f 725/725 726/726 455/455
f 726/726 727/727 455/455
f 728/728 729/729 730/730
f 731/731 728/728 730/730
f 732/732 728/728 731/731
f 733/733 732/732 731/731
f 734/734 731/731 735/735
f 734/734 735/735 736/736
f 736/736 737/737 734/734
f 738/738 737/737 736/736
f 739/739 738/738 736/736
f 739/739 736/736 740/740
f 736/736 735/735 740/740
f 737/737 741/741 734/734
f 741/741 742/742 734/734
f 734/734 742/742 731/731
f 739/739 740/740 743/743
f 744/744 739/739 743/743
f 745/745 739/739 744/744
f 746/746 738/738 739/739
f 746/746 739/739 745/745
f 747/747 732/732 748/748
f 747/747 748/748 749/749
f 749/749 748/748 750/750
f 751/751 749/749 750/750
f 751/751 750/750 752/752
f 753/753 751/751 752/752
f 752/752 750/750 754/754
f 752/752 754/754 755/755
f 750/750 748/748 756/756
f 756/756 748/748 757/757
f 748/748 758/758 757/757
f 759/759 758/758 748/748
f 759/759 760/760 758/758
f 750/750 756/756 761/761
f 762/762 750/750 761/761
f 754/754 750/750 762/762
f 755/755 754/754 762/762
f 762/762 761/761 763/763
f 748/748 732/732 764/764
f 732/732 765/765 764/764
f 766/766 767/767 758/758
f 768/768 767/767 766/766
f 768/768 769/769 767/767
f 766/766 758/758 770/770
f 771/771 766/766 772/772
f 773/773 771/771 772/772
f 772/772 774/774 773/773
f 773/773 774/774 775/775
f 773/773 775/775 776/776
f 777/777 773/773 776/776
f 777/777 771/771 773/773
f 772/772 778/778 774/774
f 772/772 779/779 778/778
f 766/766 779/779 772/772
f 780/780 777/777 776/776
f 780/780 776/776 781/781
f 781/781 776/776 782/782
f 776/776 775/775 783/783
f 782/782 776/776 783/783
f 784/784 785/785 786/786
f 784/784 786/786 787/787
f 788/788 784/784 787/787
f 788/788 787/787 789/789
f 790/790 791/791 792/792
f 792/792 791/791 793/793
f 792/792 793/793 794/794
f 794/794 793/793 795/795
f 790/790 796/796 791/791
f 797/797 796/796 790/790
f 797/797 798/798 796/796
f 797/797 799/799 798/798
f 796/796 798/798 800/800
f 796/796 800/800 791/791
f 801/801 802/802 803/803
f 804/804 801/801 803/803
f 804/804 803/803 805/805
f 806/806 804/804 805/805
f 807/807 808/808 809/809
f 810/810 808/808 807/807
f 811/811 810/810 807/807
f 812/812 810/810 811/811
f 808/808 813/813 809/809
f 808/808 814/814 813/813
f 814/814 815/815 813/813
f 813/813 815/815 816/816
f 809/809 813/813 816/816
f 815/815 817/817 816/816
f 818/818 819/819 820/820
f 820/820 821/821 818/818
f 822/822 818/818 823/823
f 818/818 822/822 824/824
f 818/818 825/825 826/826
f 818/818 827/827 825/825
f 828/828 829/829 818/818
f 830/830 828/828 818/818
f 831/831 832/832 818/818
f 833/833 818/818 832/832
f 834/834 835/835 836/836
f 836/836 837/837 838/838
f 839/839 837/837 834/834
f 838/838 840/840 839/839
f 841/841 842/842 843/843
f 843/843 844/844 845/845
f 846/846 844/844 841/841
f 845/845 847/847 846/846
f 848/848 849/849 850/850
f 850/850 851/851 852/852
f 853/853 851/851 848/848
f 852/852 854/854 853/853
f 855/855 856/856 857/857
f 857/857 858/858 859/859
f 860/860 858/858 855/855
f 859/859 861/861 860/860
f 862/862 863/863 864/864
f 865/865 866/866 862/862
f 864/864 866/866 867/867
f 867/867 868/868 865/865
f 869/869 870/870 871/871
f 872/872 873/873 869/869
f 871/871 873/873 874/874
f 874/874 875/875 872/872
f 876/876 877/877 878/878
f 879/879 880/880 876/876
f 878/878 880/880 881/881
f 881/881 882/882 879/879
f 883/883 884/884 885/885
f 886/886 887/887 883/883
f 885/885 887/887 888/888
f 888/888 889/889 886/886
usemtl m1
f 890/890 891/891 892/892
f 890/890 893/893 894/894
f 890/890 895/895 896/896
f 890/890 897/897 898/898
