mtllib options1126.mtl
o options1126
v -0.14198 -0.14227 2.76086 0.894 0.000 0.000
v -0.14198 -0.10060 2.86146 0.894 0.000 0.000
v -0.14198 0.00000 2.90313 0.894 0.000 0.000
v -0.14198 0.10060 2.86146 0.894 0.000 0.000
v -0.14198 0.14227 2.76086 0.894 0.000 0.000
v -0.14198 0.10060 2.66027 0.894 0.000 0.000
v -0.14198 0.00000 2.61860 0.894 0.000 0.000
v -0.14198 -0.10060 2.66027 0.894 0.000 0.000
v -0.05814 -0.36175 2.91071 0.847 0.000 0.000
v -0.05814 -0.27688 3.03773 0.847 0.000 0.000
v -0.05814 -0.14983 3.12260 0.847 0.000 0.000
v -0.05814 0.00000 3.15241 0.847 0.000 0.000
v -0.05814 0.14983 3.12260 0.847 0.000 0.000
v -0.05814 0.27688 3.03773 0.847 0.000 0.000
v -0.05814 0.36175 2.91071 0.847 0.000 0.000
v -0.05814 0.39155 2.76086 0.847 0.000 0.000
v -0.06640 0.36175 2.61103 0.847 0.000 0.000
v -0.08519 0.27688 2.48400 0.847 0.000 0.000
v -0.11509 0.14983 2.38898 0.847 0.000 0.000
v -0.12393 0.00000 2.35917 0.847 0.000 0.000
v -0.11509 -0.14983 2.38898 0.847 0.000 0.000
v -0.08519 -0.27688 2.48400 0.847 0.000 0.000
v -0.06640 -0.36175 2.61103 0.847 0.000 0.000
v -0.05814 -0.39155 2.76086 0.847 0.000 0.000
v 0.00000 -0.39613 2.92495 0.847 0.000 0.000
v 0.00000 -0.30317 3.06405 0.847 0.000 0.000
v 0.00000 -0.16407 3.15698 0.847 0.000 0.000
v 0.00000 0.00000 3.18962 0.847 0.000 0.000
v 0.00000 0.16407 3.15698 0.847 0.000 0.000
v 0.00000 0.30317 3.06405 0.847 0.000 0.000
v 0.00000 0.39613 2.92495 0.847 0.000 0.000
v 0.00000 0.42876 2.76086 0.847 0.000 0.000
v 0.00000 0.39613 2.59679 0.847 0.000 0.000
v 0.00000 0.30317 2.45768 0.847 0.000 0.000
v 0.00000 0.16407 2.35460 0.847 0.000 0.000
v 0.00000 0.00000 2.32196 0.847 0.000 0.000
v 0.00000 -0.16407 2.35460 0.847 0.000 0.000
v 0.00000 -0.30317 2.45768 0.847 0.000 0.000
v 0.00000 -0.39613 2.59679 0.847 0.000 0.000
v 0.00000 -0.42876 2.76086 0.847 0.000 0.000
v 0.05911 -0.36175 2.91071 0.847 0.000 0.000
v 0.05911 -0.27688 3.03773 0.847 0.000 0.000
v 0.05911 -0.14983 3.12260 0.847 0.000 0.000
v 0.05911 0.00000 3.15241 0.847 0.000 0.000
v 0.05911 0.14983 3.12260 0.847 0.000 0.000
v 0.05911 0.27688 3.03773 0.847 0.000 0.000
v 0.05911 0.36175 2.91071 0.847 0.000 0.000
v 0.05911 0.39155 2.76086 0.847 0.000 0.000
v 0.05911 0.36175 2.61103 0.847 0.000 0.000
v 0.05911 0.27688 2.48400 0.847 0.000 0.000
v 0.07376 0.14983 2.38898 0.847 0.000 0.000
v 0.08692 0.00000 2.35917 0.847 0.000 0.000
v 0.07376 -0.14983 2.38898 0.847 0.000 0.000
v 0.05911 -0.27688 2.48400 0.847 0.000 0.000
v 0.05911 -0.36175 2.61103 0.847 0.000 0.000
v 0.05911 -0.39155 2.76086 0.847 0.000 0.000
v 0.15712 -0.14227 2.76086 0.796 0.000 0.000
v 0.15712 -0.10060 2.86146 0.796 0.000 0.000
v 0.15712 0.00000 2.90313 0.796 0.000 0.000
v 0.15712 0.10060 2.86146 0.796 0.000 0.000
v 0.15712 0.14227 2.76088 0.796 0.000 0.000
v 0.15712 0.10060 2.66027 0.796 0.000 0.000
v 0.15712 0.00000 2.61860 0.796 0.000 0.000
v 0.15712 -0.10060 2.66027 0.796 0.000 0.000
v -0.15068 0.00000 2.76086 0.894 0.000 0.000
v 0.16682 0.00000 2.76086 0.796 0.000 0.000
v 0.12006 -0.26147 2.86916 0.792 0.000 0.000
v 0.12006 -0.28301 2.76086 0.792 0.000 0.000
v 0.12006 -0.26147 2.65257 0.792 0.000 0.000
v 0.12006 -0.20012 2.56075 0.792 0.000 0.000
v 0.12006 -0.10831 2.48926 0.792 0.000 0.000
v 0.12006 0.00000 2.46771 0.792 0.000 0.000
v 0.12006 0.10831 2.48926 0.792 0.000 0.000
v 0.12006 0.20012 2.56075 0.792 0.000 0.000
v 0.12006 0.26147 2.65257 0.792 0.000 0.000
v 0.12006 0.28301 2.76086 0.792 0.000 0.000
v 0.12006 0.26147 2.86916 0.792 0.000 0.000
v 0.12006 0.20012 2.96098 0.792 0.000 0.000
v 0.12006 0.10831 3.02234 0.792 0.000 0.000
v 0.12006 0.00000 3.04389 0.792 0.000 0.000
v 0.12006 -0.10831 3.02234 0.792 0.000 0.000
v 0.12006 -0.20012 2.96098 0.792 0.000 0.000
v -0.11279 -0.26147 2.86916 0.894 0.000 0.000
v -0.11279 -0.28301 2.76086 0.894 0.000 0.000
v -0.11279 -0.26147 2.65257 0.894 0.000 0.000
v -0.12092 -0.20012 2.56075 0.894 0.000 0.000
v -0.13190 -0.10831 2.48926 0.894 0.000 0.000
v -0.11279 0.00000 2.46771 0.894 0.000 0.000
v -0.13190 0.10831 2.48926 0.894 0.000 0.000
v -0.12092 0.20012 2.56075 0.894 0.000 0.000
v -0.11279 0.26147 2.65257 0.894 0.000 0.000
v -0.11279 0.28301 2.76086 0.894 0.000 0.000
v -0.11279 0.26147 2.86916 0.894 0.000 0.000
v -0.11279 0.20012 2.96098 0.894 0.000 0.000
v -0.11279 0.10831 3.02234 0.894 0.000 0.000
v -0.11279 0.00000 3.04389 0.894 0.000 0.000
v -0.11279 -0.10831 3.02234 0.894 0.000 0.000
v -0.11279 -0.20012 2.96098 0.894 0.000 0.000
v 0.07344 -0.34888 2.90700 0.000 0.000 0.847
v 0.07344 -0.26510 3.02693 0.000 0.000 0.847
v 0.07344 -0.14353 3.10635 0.000 0.000 0.847
v 0.07344 0.00000 3.13414 0.000 0.000 0.847
v 0.07344 0.14353 3.10635 0.000 0.000 0.847
v 0.07344 0.26510 3.02693 0.000 0.000 0.847
v 0.07344 0.34888 2.90700 0.000 0.000 0.847
v 0.07117 0.37836 2.76124 0.000 0.000 0.847
v 0.06844 0.34862 2.61466 0.000 0.000 0.847
v 0.06721 0.26728 2.49412 0.000 0.000 0.847
v 0.08971 0.13806 2.41709 0.000 0.000 0.847
v 0.09880 0.00000 2.38970 0.000 0.000 0.847
v 0.08971 -0.13806 2.41709 0.000 0.000 0.847
v 0.06721 -0.26728 2.49412 0.000 0.000 0.847
v 0.06844 -0.34862 2.61466 0.000 0.000 0.847
v 0.07117 -0.37836 2.76124 0.000 0.000 0.847
v 0.09612 -0.31532 2.89310 0.000 0.000 0.847
v 0.09427 -0.23942 3.00125 0.000 0.000 0.847
v 0.09261 -0.12964 3.07280 0.000 0.000 0.847
v 0.09095 0.00000 3.09782 0.000 0.000 0.847
v 0.09261 0.12964 3.07280 0.000 0.000 0.847
v 0.09427 0.23942 3.00125 0.000 0.000 0.847
v 0.09612 0.31532 2.89310 0.000 0.000 0.847
v 0.09772 0.34204 2.76124 0.000 0.000 0.847
v 0.09257 0.31507 2.62858 0.000 0.000 0.847
v 0.09412 0.24160 2.51980 0.000 0.000 0.847
v 0.10831 0.12416 2.45065 0.000 0.000 0.847
v 0.10897 0.00000 2.42602 0.000 0.000 0.847
v 0.10831 -0.12416 2.45065 0.000 0.000 0.847
v 0.09412 -0.24160 2.51980 0.000 0.000 0.847
v 0.09257 -0.31507 2.62858 0.000 0.000 0.847
v 0.09772 -0.34204 2.76124 0.000 0.000 0.847
v 0.16184 -0.08035 2.77943 0.000 0.000 0.847
v 0.16184 -0.07475 2.76874 0.000 0.000 0.847
v 0.15669 -0.14773 2.71067 0.000 0.000 0.847
v 0.15669 -0.15602 2.71075 0.000 0.000 0.847
v 0.15669 -0.16241 2.72093 0.000 0.000 0.847
v 0.15669 -0.15784 2.73172 0.000 0.000 0.847
v 0.16184 -0.11551 2.76734 0.000 0.000 0.847
v 0.15626 -0.16020 2.79108 0.000 0.000 0.847
v 0.15626 -0.16427 2.79664 0.000 0.000 0.847
v 0.15642 -0.15808 2.81007 0.000 0.000 0.847
v 0.15642 -0.14270 2.80870 0.000 0.000 0.847
v 0.15660 0.12028 2.68936 0.000 0.000 0.847
v 0.15856 0.10534 2.68668 0.000 0.000 0.847
v 0.15856 0.09961 2.67440 0.000 0.000 0.847
v 0.15856 0.10377 2.66339 0.000 0.000 0.847
v 0.15374 0.12044 2.65671 0.000 0.000 0.847
v 0.14792 0.10269 2.61477 0.000 0.000 0.847
v 0.14391 0.07018 2.57877 0.000 0.000 0.847
v 0.14326 0.04009 2.56207 0.000 0.000 0.847
v 0.14443 0.00000 2.55704 0.000 0.000 0.847
v 0.14368 -0.03510 2.56430 0.000 0.000 0.847
v 0.14528 -0.07411 2.59103 0.000 0.000 0.847
v 0.14900 -0.09304 2.61832 0.000 0.000 0.847
v 0.15545 -0.11198 2.65676 0.000 0.000 0.847
v 0.15856 -0.09526 2.66344 0.000 0.000 0.847
v 0.15856 -0.08914 2.67514 0.000 0.000 0.847
v 0.15856 -0.09581 2.68628 0.000 0.000 0.847
v 0.15856 -0.10919 2.69017 0.000 0.000 0.847
v 0.14299 -0.17269 2.67179 0.000 0.000 0.847
v 0.14148 -0.17831 2.65925 0.000 0.000 0.847
v 0.14092 -0.17381 2.64841 0.000 0.000 0.847
v 0.14179 -0.15764 2.64116 0.000 0.000 0.847
v 0.14764 -0.13927 2.64785 0.000 0.000 0.847
v 0.14445 -0.11990 2.60865 0.000 0.000 0.847
v 0.14013 -0.09380 2.57330 0.000 0.000 0.847
v 0.13606 -0.04831 2.53906 0.000 0.000 0.847
v 0.13590 0.00000 2.52590 0.000 0.000 0.847
v 0.13590 0.04660 2.53413 0.000 0.000 0.847
v 0.13783 0.08555 2.55701 0.000 0.000 0.847
v 0.14310 0.12532 2.60384 0.000 0.000 0.847
v 0.14477 0.14834 2.64562 0.000 0.000 0.847
v 0.14189 0.16441 2.64051 0.000 0.000 0.847
v 0.14009 0.18531 2.65079 0.000 0.000 0.847
v 0.14117 0.18304 2.66785 0.000 0.000 0.847
v 0.16142 0.09808 2.72770 0.000 0.000 0.847
v 0.16142 0.11673 2.72254 0.000 0.000 0.847
v 0.16142 0.13241 2.73152 0.000 0.000 0.847
v 0.16142 0.14339 2.74925 0.000 0.000 0.847
v 0.16142 0.14306 2.78575 0.000 0.000 0.847
v 0.16142 0.13414 2.80274 0.000 0.000 0.847
v 0.16142 0.12130 2.81054 0.000 0.000 0.847
v 0.16142 0.10408 2.80906 0.000 0.000 0.847
v 0.16142 0.09196 2.79817 0.000 0.000 0.847
v 0.16142 0.08698 2.78303 0.000 0.000 0.847
v 0.16142 0.08735 2.74313 0.000 0.000 0.847
v 0.06854 -0.25610 3.13911 0.000 0.847 0.000
v 0.06854 -0.35302 3.08747 0.000 0.847 0.000
v 0.06854 -0.38617 3.11969 0.000 0.847 0.000
v 0.06854 -0.27734 3.17839 0.000 0.847 0.000
v 0.06854 -0.17145 3.17990 0.000 0.847 0.000
v 0.06854 -0.18333 3.21928 0.000 0.847 0.000
v 0.06728 -0.21778 3.07624 0.847 0.000 0.000
v 0.06728 -0.30415 3.02411 0.847 0.000 0.000
v 0.06728 -0.35883 2.99468 0.847 0.000 0.000
v 0.06728 -0.40721 2.99563 0.847 0.000 0.000
v 0.06728 -0.42808 3.01907 0.847 0.000 0.000
v 0.06728 -0.41794 3.04650 0.847 0.000 0.000
v 0.06728 -0.37879 3.08655 0.847 0.000 0.000
v 0.06055 -0.51986 3.21100 0.847 0.000 0.000
v 0.05904 -0.53424 3.24988 0.847 0.000 0.000
v 0.05783 -0.52636 3.29056 0.847 0.000 0.000
v 0.05747 -0.49298 3.32640 0.847 0.000 0.000
v 0.05785 -0.25252 3.40717 0.847 0.000 0.000
v 0.05884 -0.21686 3.40328 0.847 0.000 0.000
v 0.06055 -0.19159 3.37712 0.847 0.000 0.000
v 0.06728 -0.15635 3.20396 0.847 0.000 0.000
v 0.06728 -0.08883 3.22405 0.847 0.000 0.000
v 0.06728 -0.06343 3.21658 0.847 0.000 0.000
v 0.06728 -0.05371 3.18818 0.847 0.000 0.000
v 0.06728 -0.06590 3.15337 0.847 0.000 0.000
v 0.06728 -0.13028 3.11839 0.847 0.000 0.000
v 0.06728 -0.26174 3.14617 0.847 0.000 0.000
v 0.05602 -0.37303 3.37034 0.847 0.000 0.000
v 0.02147 -0.51986 3.21100 0.871 0.000 0.000
v 0.01474 -0.26174 3.14617 0.890 0.000 0.000
v 0.01474 -0.37879 3.08655 0.890 0.000 0.000
v 0.02299 -0.53424 3.24988 0.871 0.000 0.000
v 0.02419 -0.52636 3.29056 0.871 0.000 0.000
v 0.02455 -0.49298 3.32640 0.871 0.000 0.000
v 0.02601 -0.37303 3.37034 0.871 0.000 0.000
v 0.01474 -0.21778 3.07624 0.890 0.000 0.000
v 0.01474 -0.30415 3.02411 0.890 0.000 0.000
v 0.01474 -0.35883 2.99468 0.890 0.000 0.000
v 0.01474 -0.41794 3.04650 0.890 0.000 0.000
v 0.01474 -0.40721 2.99563 0.890 0.000 0.000
v 0.01474 -0.42808 3.01907 0.890 0.000 0.000
v 0.02417 -0.25252 3.40717 0.871 0.000 0.000
v 0.02318 -0.21686 3.40328 0.871 0.000 0.000
v 0.02147 -0.19159 3.37712 0.871 0.000 0.000
v 0.01474 -0.15635 3.20396 0.890 0.000 0.000
v 0.01474 -0.13028 3.11839 0.890 0.000 0.000
v 0.01474 -0.06590 3.15337 0.890 0.000 0.000
v 0.01474 -0.08883 3.22405 0.890 0.000 0.000
v 0.01474 -0.05371 3.18818 0.890 0.000 0.000
v 0.01474 -0.06343 3.21658 0.890 0.000 0.000
v 0.06854 -0.22961 3.09807 0.000 0.000 0.000
v 0.06854 -0.30865 3.04767 0.000 0.000 0.000
v 0.06854 -0.35302 3.01505 0.000 0.000 0.000
v 0.06854 -0.37193 3.01439 0.000 0.000 0.000
v 0.06854 -0.39150 3.03527 0.000 0.000 0.000
v 0.06854 -0.38302 3.05485 0.000 0.000 0.000
v 0.06854 -0.48850 3.21793 0.000 0.000 0.000
v 0.06854 -0.49406 3.24077 0.000 0.000 0.000
v 0.06854 -0.49018 3.27697 0.000 0.000 0.000
v 0.06854 -0.45954 3.30482 0.000 0.000 0.000
v 0.06854 -0.25650 3.37376 0.000 0.000 0.000
v 0.06854 -0.23211 3.37189 0.000 0.000 0.000
v 0.06854 -0.21460 3.35000 0.000 0.000 0.000
v 0.06854 -0.11142 3.20429 0.000 0.000 0.000
v 0.06854 -0.09016 3.19802 0.000 0.000 0.000
v 0.06854 -0.08203 3.17426 0.000 0.000 0.000
v 0.06854 -0.09391 3.15612 0.000 0.000 0.000
v 0.06854 -0.15736 3.13177 0.000 0.000 0.000
v 0.06854 -0.35917 3.34157 0.000 0.000 0.000
v 0.07042 -0.28910 3.13412 0.000 0.000 0.000
v 0.07004 -0.28445 3.14377 0.000 0.000 0.000
v 0.07004 -0.28919 3.16066 0.000 0.000 0.000
v 0.07004 -0.26861 3.17781 0.000 0.000 0.000
v 0.07004 -0.27574 3.22688 0.000 0.000 0.000
v 0.07004 -0.28604 3.22319 0.000 0.000 0.000
v 0.07004 -0.32245 3.17306 0.000 0.000 0.000
v 0.07004 -0.31347 3.16435 0.000 0.000 0.000
v 0.07004 -0.32245 3.15011 0.000 0.000 0.000
v 0.07042 -0.31394 3.13151 0.000 0.000 0.000
v 0.07025 -0.30206 3.13796 0.000 0.000 0.000
v 0.07042 -0.31597 3.13315 0.000 0.000 0.000
v 0.07042 -0.30233 3.14055 0.000 0.000 0.000
v 0.07042 -0.28746 3.13614 0.000 0.000 0.000
v 0.07042 -0.28006 3.12251 0.000 0.000 0.000
v 0.07042 -0.28447 3.10765 0.000 0.000 0.000
v 0.07042 -0.29810 3.10025 0.000 0.000 0.000
v 0.07042 -0.31297 3.10464 0.000 0.000 0.000
v 0.07042 -0.32038 3.11828 0.000 0.000 0.000
v 0.07042 -0.30022 3.12039 0.000 0.000 0.000
v 0.06995 -0.32081 3.12136 0.000 0.000 0.000
v 0.07004 -0.31975 3.13103 0.000 0.000 0.000
v 0.07004 -0.33946 3.15005 0.000 0.000 0.000
v 0.07004 -0.34762 3.14478 0.000 0.000 0.000
v 0.07004 -0.35883 3.15362 0.000 0.000 0.000
v 0.07004 -0.36833 3.16958 0.000 0.000 0.000
v 0.07004 -0.39960 3.17605 0.000 0.000 0.000
v 0.07004 -0.40640 3.17043 0.000 0.000 0.000
v 0.07004 -0.38007 3.12559 0.000 0.000 0.000
v 0.07004 -0.35492 3.12779 0.000 0.000 0.000
v 0.07004 -0.35374 3.11776 0.000 0.000 0.000
v 0.07004 -0.34677 3.11351 0.000 0.000 0.000
v 0.06988 -0.33343 3.11648 0.000 0.000 0.000
v 0.07054 -0.31154 3.12957 0.000 0.847 0.000
v 0.07054 -0.30173 3.13488 0.000 0.847 0.000
v 0.07054 -0.29104 3.13171 0.000 0.847 0.000
v 0.07054 -0.28573 3.12192 0.000 0.847 0.000
v 0.07054 -0.28890 3.11123 0.000 0.847 0.000
v 0.07054 -0.29869 3.10592 0.000 0.847 0.000
v 0.07054 -0.30938 3.10909 0.000 0.847 0.000
v 0.07054 -0.31471 3.11888 0.000 0.847 0.000
v 0.07054 -0.30022 3.12039 0.000 0.847 0.000
v 0.07016 -0.33178 3.11476 0.000 0.847 0.000
v 0.07016 -0.32087 3.11897 0.000 0.847 0.000
v 0.07016 -0.31019 3.11423 0.000 0.847 0.000
v 0.07016 -0.30598 3.10333 0.000 0.847 0.000
v 0.07016 -0.31072 3.09263 0.000 0.847 0.000
v 0.07016 -0.32162 3.08842 0.000 0.847 0.000
v 0.07016 -0.33232 3.09316 0.000 0.847 0.000
v 0.07016 -0.33653 3.10406 0.000 0.847 0.000
v 0.07016 -0.32125 3.10370 0.000 0.847 0.000
v 0.07004 -0.33518 3.11832 0.000 0.000 0.000
v 0.07004 -0.32076 3.12388 0.000 0.000 0.000
v 0.07004 -0.30663 3.11762 0.000 0.000 0.000
v 0.07004 -0.30107 3.10320 0.000 0.000 0.000
v 0.07004 -0.30733 3.08909 0.000 0.000 0.000
v 0.07004 -0.32173 3.08351 0.000 0.000 0.000
v 0.07004 -0.33586 3.08977 0.000 0.000 0.000
v 0.07004 -0.34142 3.10419 0.000 0.000 0.000
v 0.07004 -0.32125 3.10370 0.000 0.000 0.000
v 0.06854 -0.25610 3.13911 0.000 0.000 0.000
v 0.06854 -0.35302 3.08747 0.000 0.000 0.000
v 0.06854 -0.38617 3.11969 0.000 0.000 0.000
v 0.06854 -0.27734 3.17839 0.000 0.000 0.000
v 0.06854 -0.18333 3.21928 0.000 0.000 0.000
v 0.06854 -0.17145 3.17990 0.000 0.000 0.000
v 0.06728 -0.37879 3.08655 0.894 0.000 0.000
v 0.06055 -0.51986 3.21100 0.894 0.000 0.000
v 0.01474 -0.37879 3.08655 0.894 0.000 0.000
v 0.02147 -0.51986 3.21100 0.894 0.000 0.000
v 0.05904 -0.53424 3.24988 0.894 0.000 0.000
v 0.02299 -0.53424 3.24988 0.894 0.000 0.000
v 0.05783 -0.52636 3.29056 0.894 0.000 0.000
v 0.02419 -0.52636 3.29056 0.894 0.000 0.000
v 0.05747 -0.49298 3.32640 0.894 0.000 0.000
v 0.02455 -0.49298 3.32640 0.894 0.000 0.000
v 0.05602 -0.37303 3.37034 0.894 0.000 0.000
v 0.02601 -0.37303 3.37034 0.894 0.000 0.000
v 0.06728 -0.21778 3.07624 0.894 0.000 0.000
v 0.06728 -0.30415 3.02411 0.894 0.000 0.000
v 0.01474 -0.21778 3.07624 0.894 0.000 0.000
v 0.01474 -0.30415 3.02411 0.894 0.000 0.000
v 0.06728 -0.35883 2.99468 0.894 0.000 0.000
v 0.01474 -0.35883 2.99468 0.894 0.000 0.000
v 0.06728 -0.41794 3.04650 0.894 0.000 0.000
v 0.01474 -0.41794 3.04650 0.894 0.000 0.000
v 0.06728 -0.40721 2.99563 0.894 0.000 0.000
v 0.01474 -0.40721 2.99563 0.894 0.000 0.000
v 0.06728 -0.42808 3.01907 0.894 0.000 0.000
v 0.01474 -0.42808 3.01907 0.894 0.000 0.000
v 0.05785 -0.25252 3.40717 0.894 0.000 0.000
v 0.02417 -0.25252 3.40717 0.894 0.000 0.000
v 0.05884 -0.21686 3.40328 0.894 0.000 0.000
v 0.02318 -0.21686 3.40328 0.894 0.000 0.000
v 0.06055 -0.19159 3.37712 0.894 0.000 0.000
v 0.02147 -0.19159 3.37712 0.894 0.000 0.000
v 0.06728 -0.15635 3.20396 0.894 0.000 0.000
v 0.01474 -0.15635 3.20396 0.894 0.000 0.000
v 0.06728 -0.13028 3.11839 0.894 0.000 0.000
v 0.01474 -0.13028 3.11839 0.894 0.000 0.000
v 0.06728 -0.06590 3.15337 0.894 0.000 0.000
v 0.01474 -0.06590 3.15337 0.894 0.000 0.000
v 0.06728 -0.08883 3.22405 0.894 0.000 0.000
v 0.01474 -0.08883 3.22405 0.894 0.000 0.000
v 0.06728 -0.05371 3.18818 0.894 0.000 0.000
v 0.01474 -0.05371 3.18818 0.894 0.000 0.000
v 0.06728 -0.06343 3.21658 0.894 0.000 0.000
v 0.01474 -0.06343 3.21658 0.894 0.000 0.000
vt 0.84084 0.47112
vt 0.88543 0.57751
vt 0.99308 0.62159
vt 0.88543 0.57751
vt 0.84084 0.47112
vt 0.88543 0.36473
vt 0.99308 0.32066
vt 0.88543 0.36473
vt 0.60597 0.62960
vt 0.69680 0.76394
vt 0.83273 0.85371
vt 0.99308 0.88523
vt 0.83273 0.85371
vt 0.69680 0.76394
vt 0.60597 0.62960
vt 0.57407 0.47112
vt 0.60597 0.31265
vt 0.69680 0.17831
vt 0.83273 0.07781
vt 0.99308 0.04628
vt 0.83273 0.07781
vt 0.69680 0.17831
vt 0.60597 0.31265
vt 0.57407 0.47112
vt 0.50609 0.67155
vt 0.61987 0.84078
vt 0.79110 0.95386
vt 0.99308 0.99356
vt 0.79110 0.95386
vt 0.61987 0.84078
vt 0.50609 0.67155
vt 0.48507 0.47193
vt 0.49905 0.27231
vt 0.61987 0.10308
vt 0.79110 0.00662
vt 0.99308 0.00662
vt 0.79110 0.00662
vt 0.61987 0.10308
vt 0.49905 0.27231
vt 0.48507 0.47193
vt 0.60597 0.62960
vt 0.69680 0.76394
vt 0.83273 0.85371
vt 0.99308 0.88523
vt 0.83273 0.85371
vt 0.69680 0.76394
vt 0.60597 0.62960
vt 0.57407 0.47112
vt 0.60597 0.31265
vt 0.69680 0.17831
vt 0.83273 0.07781
vt 0.99308 0.04628
vt 0.83273 0.07781
vt 0.69680 0.17831
vt 0.60597 0.31265
vt 0.57407 0.47112
vt 0.84084 0.47112
vt 0.88543 0.57751
vt 0.99308 0.62159
vt 0.88543 0.57751
vt 0.84084 0.47113
vt 0.88543 0.36474
vt 0.99308 0.32066
vt 0.88543 0.36474
vt 0.99308 0.47112
vt 0.99308 0.47112
vt 0.71327 0.58567
vt 0.69022 0.47112
vt 0.71327 0.35658
vt 0.77893 0.25947
vt 0.87718 0.18386
vt 0.99308 0.16107
vt 0.87718 0.18386
vt 0.77893 0.25947
vt 0.71327 0.35658
vt 0.69022 0.47112
vt 0.71327 0.58567
vt 0.77893 0.68277
vt 0.87718 0.74766
vt 0.99308 0.77044
vt 0.87718 0.74766
vt 0.77893 0.68277
vt 0.71327 0.58567
vt 0.69022 0.47112
vt 0.71327 0.35658
vt 0.77893 0.25947
vt 0.87718 0.18386
vt 0.99308 0.16107
vt 0.87718 0.18386
vt 0.77893 0.25947
vt 0.71327 0.35658
vt 0.69022 0.47112
vt 0.71327 0.58567
vt 0.77893 0.68277
vt 0.87718 0.74766
vt 0.99308 0.77044
vt 0.87718 0.74766
vt 0.77893 0.68277
vt 0.46468 0.94893
vt 0.55853 0.94893
vt 0.65169 0.94893
vt 0.74548 0.94893
vt 0.65169 0.94893
vt 0.55853 0.94893
vt 0.46468 0.94893
vt 0.60617 0.94893
vt 0.41869 0.94893
vt 0.29608 0.94893
vt 0.17266 0.94893
vt 0.00480 0.94893
vt 0.17266 0.94893
vt 0.29608 0.94893
vt 0.41869 0.94893
vt 0.60617 0.94893
vt 0.46468 0.99413
vt 0.55853 0.99413
vt 0.65169 0.99413
vt 0.74548 0.99413
vt 0.65169 0.99413
vt 0.55853 0.99413
vt 0.46468 0.99413
vt 0.60617 0.99413
vt 0.41869 0.99413
vt 0.29608 0.99413
vt 0.17266 0.99413
vt 0.00480 0.99413
vt 0.17266 0.99413
vt 0.29608 0.99413
vt 0.41869 0.99413
vt 0.60617 0.99413
vt 0.32669 0.00448
vt 0.35091 0.00448
vt 0.10852 0.00448
vt 0.08478 0.00448
vt 0.08478 0.07247
vt 0.10852 0.07247
vt 0.35091 0.07247
vt 0.10852 0.07247
vt 0.08478 0.07247
vt 0.08478 0.00448
vt 0.10852 0.00448
vt 0.00626 0.20569
vt 0.00626 0.24458
vt 0.07188 0.24458
vt 0.07188 0.20569
vt 0.07188 0.15398
vt 0.17199 0.15398
vt 0.28497 0.15398
vt 0.34171 0.15398
vt 0.41709 0.15398
vt 0.34171 0.15398
vt 0.25176 0.15398
vt 0.17199 0.15398
vt 0.07188 0.15398
vt 0.07188 0.20569
vt 0.07188 0.24458
vt 0.00626 0.24458
vt 0.00626 0.20569
vt 0.00626 0.02156
vt 0.00626 0.00616
vt 0.07188 0.00569
vt 0.07188 0.02156
vt 0.07188 0.08488
vt 0.17199 0.08488
vt 0.25176 0.08488
vt 0.34171 0.08488
vt 0.41709 0.08488
vt 0.34171 0.08488
vt 0.28497 0.08488
vt 0.17199 0.08488
vt 0.07188 0.08488
vt 0.07188 0.02156
vt 0.07188 0.00569
vt 0.00626 0.00616
vt 0.08789 0.16556
vt 0.08789 0.24458
vt 0.10501 0.24458
vt 0.13232 0.24458
vt 0.20090 0.24458
vt 0.23985 0.24458
vt 0.25715 0.24458
vt 0.25715 0.16556
vt 0.23985 0.16556
vt 0.20090 0.16556
vt 0.12452 0.16556
vt 0.32143 0.47265
vt 0.47465 0.47265
vt 0.47465 0.54379
vt 0.32143 0.54382
vt 0.47465 0.47265
vt 0.47465 0.54379
vt 0.30936 0.92797
vt 0.19356 0.92797
vt 0.08797 0.92797
vt 0.00783 0.92797
vt 0.00783 0.81543
vt 0.06372 0.81543
vt 0.14460 0.81543
vt 0.14460 0.64682
vt 0.14460 0.60331
vt 0.14460 0.55532
vt 0.20267 0.55532
vt 0.18189 0.55532
vt 0.14460 0.55532
vt 0.14460 0.61401
vt 0.14460 0.81543
vt 0.05332 0.81543
vt 0.00783 0.81543
vt 0.00783 0.92797
vt 0.05332 0.92797
vt 0.14460 0.92797
vt 0.30936 0.81543
vt 0.30936 0.55532
vt 0.14460 0.64682
vt 0.30936 0.81543
vt 0.14460 0.81543
vt 0.14460 0.60331
vt 0.14460 0.55532
vt 0.20267 0.55532
vt 0.30936 0.55532
vt 0.30936 0.92797
vt 0.19356 0.92797
vt 0.08797 0.92797
vt 0.06372 0.81543
vt 0.00783 0.92797
vt 0.00783 0.81543
vt 0.18189 0.55532
vt 0.14460 0.55532
vt 0.14460 0.61401
vt 0.14460 0.81543
vt 0.14460 0.92797
vt 0.05332 0.92797
vt 0.05332 0.81543
vt 0.00783 0.92797
vt 0.00783 0.81543
vt 0.32237 0.92797
vt 0.47120 0.92797
vt 0.56210 0.92797
vt 0.58333 0.92797
vt 0.58333 0.85123
vt 0.56210 0.85123
vt 0.47559 0.64033
vt 0.47559 0.61045
vt 0.47559 0.55532
vt 0.41912 0.55532
vt 0.44451 0.55532
vt 0.47559 0.55532
vt 0.47559 0.61464
vt 0.56210 0.85123
vt 0.58333 0.85123
vt 0.58333 0.92797
vt 0.56210 0.92797
vt 0.46230 0.92797
vt 0.32237 0.55532
vt 0.15006 0.25693
vt 0.15007 0.29043
vt 0.15007 0.33337
vt 0.07003 0.33337
vt 0.07003 0.46191
vt 0.10270 0.46191
vt 0.22644 0.46191
vt 0.22644 0.36806
vt 0.28829 0.36806
vt 0.28829 0.25693
vt 0.22644 0.25693
vt 0.39522 0.24404
vt 0.36496 0.24404
vt 0.34371 0.24404
vt 0.34371 0.16677
vt 0.36496 0.16677
vt 0.39522 0.16677
vt 0.41668 0.16677
vt 0.41668 0.24404
vt 0.38021 0.20575
vt 0.30580 0.25693
vt 0.30580 0.29829
vt 0.30580 0.36806
vt 0.36386 0.36806
vt 0.36386 0.40562
vt 0.36386 0.46456
vt 0.45016 0.46456
vt 0.47719 0.46456
vt 0.47719 0.32006
vt 0.40054 0.31970
vt 0.40054 0.28374
vt 0.40054 0.25693
vt 0.34788 0.25693
vt 0.32084 0.24409
vt 0.29271 0.24409
vt 0.27265 0.24409
vt 0.27265 0.16677
vt 0.29271 0.16677
vt 0.32084 0.16677
vt 0.34064 0.16677
vt 0.34064 0.24409
vt 0.30664 0.20568
vt 0.32084 0.24409
vt 0.29271 0.24409
vt 0.27265 0.24409
vt 0.27265 0.16677
vt 0.29271 0.16677
vt 0.32084 0.16677
vt 0.34064 0.16677
vt 0.34064 0.24409
vt 0.30664 0.20568
vt 0.39522 0.24404
vt 0.36496 0.24404
vt 0.34371 0.24404
vt 0.34371 0.16677
vt 0.36496 0.16677
vt 0.39522 0.16677
vt 0.41668 0.16677
vt 0.41668 0.24404
vt 0.38021 0.20575
vt 0.32237 0.85123
vt 0.47559 0.85123
vt 0.47559 0.78910
vt 0.32237 0.78895
vt 0.47559 0.78910
vt 0.47559 0.85123
vt 0.05503 0.49739
vt 0.05503 0.63563
vt 0.00626 0.49739
vt 0.00626 0.63563
vt 0.05503 0.66608
vt 0.00626 0.66608
vt 0.05503 0.69652
vt 0.00626 0.69652
vt 0.05503 0.72993
vt 0.00626 0.72993
vt 0.05503 0.80680
vt 0.00626 0.80680
vt 0.05503 0.25652
vt 0.05503 0.33060
vt 0.00626 0.25652
vt 0.00626 0.33060
vt 0.05503 0.37620
vt 0.00626 0.37620
vt 0.05503 0.45625
vt 0.00626 0.45625
vt 0.05503 0.41174
vt 0.00626 0.41174
vt 0.05503 0.43478
vt 0.00626 0.43478
vt 0.05503 0.68491
vt 0.00626 0.68491
vt 0.05503 0.65856
vt 0.00626 0.65856
vt 0.05503 0.63182
vt 0.00626 0.63182
vt 0.05503 0.50195
vt 0.00626 0.50195
vt 0.05503 0.32784
vt 0.00626 0.32784
vt 0.05503 0.38165
vt 0.00626 0.38165
vt 0.05503 0.45023
vt 0.00626 0.45023
vt 0.05503 0.40874
vt 0.00626 0.40874
vt 0.05503 0.43078
vt 0.00626 0.43078
usemtl m0
f 1/1 83/83 2/2
f 83/83 98/98 2/2
f 3/3 2/2 97/97
f 2/2 98/98 97/97
f 3/3 97/97 96/96
f 3/3 96/96 95/95
f 3/3 95/95 4/4
f 95/95 94/94 4/4
f 5/5 4/4 93/93
f 4/4 94/94 93/93
f 5/5 93/93 92/92
f 5/5 92/92 91/91
f 5/5 91/91 6/6
f 91/91 90/90 6/6
f 7/7 6/6 89/89
f 6/6 90/90 89/89
f 7/7 89/89 88/88
f 7/7 88/88 87/87
f 7/7 87/87 8/8
f 87/87 86/86 8/8
f 1/1 8/8 85/85
f 8/8 86/86 85/85
f 1/1 85/85 84/84
f 1/1 84/84 83/83
f 9/9 25/25 10/10
f 25/25 26/26 10/10
f 10/10 26/26 11/11
f 26/26 27/27 11/11
f 11/11 27/27 12/12
f 27/27 28/28 12/12
f 12/12 28/28 13/13
f 28/28 29/29 13/13
f 13/13 29/29 14/14
f 29/29 30/30 14/14
f 14/14 30/30 15/15
f 30/30 31/31 15/15
f 15/15 31/31 16/16
f 31/31 32/32 16/16
f 16/16 32/32 17/17
f 32/32 33/33 17/17
f 17/17 33/33 18/18
f 33/33 34/34 18/18
f 18/18 34/34 19/19
f 34/34 35/35 19/19
f 19/19 35/35 20/20
f 35/35 36/36 20/20
f 20/20 36/36 21/21
f 36/36 37/37 21/21
f 22/22 21/21 38/38
f 21/21 37/37 38/38
f 22/22 38/38 23/23
f 38/38 39/39 23/23
f 23/23 39/39 24/24
f 39/39 40/40 24/24
f 24/24 40/40 9/9
f 40/40 25/25 9/9
f 25/25 41/41 26/26
f 41/41 42/42 26/26
f 26/26 42/42 27/27
f 42/42 43/43 27/27
f 27/27 43/43 28/28
f 43/43 44/44 28/28
f 28/28 44/44 29/29
f 44/44 45/45 29/29
f 29/29 45/45 30/30
f 45/45 46/46 30/30
f 30/30 46/46 31/31
f 46/46 47/47 31/31
f 31/31 47/47 32/32
f 47/47 48/48 32/32
f 32/32 48/48 33/33
f 48/48 49/49 33/33
f 33/33 49/49 34/34
f 49/49 50/50 34/34
f 34/34 50/50 35/35
f 50/50 51/51 35/35
f 35/35 51/51 36/36
f 51/51 52/52 36/36
f 37/37 36/36 53/53
f 36/36 52/52 53/53
f 38/38 37/37 54/54
f 37/37 53/53 54/54
f 38/38 54/54 39/39
f 54/54 55/55 39/39
f 39/39 55/55 40/40
f 55/55 56/56 40/40
f 40/40 56/56 25/25
f 56/56 41/41 25/25
f 41/41 67/67 42/42
f 67/67 82/82 42/42
f 42/42 82/82 43/43
f 82/82 81/81 43/43
f 43/43 81/81 44/44
f 81/81 80/80 44/44
f 44/44 80/80 45/45
f 80/80 79/79 45/45
f 45/45 79/79 46/46
f 79/79 78/78 46/46
f 46/46 78/78 47/47
f 78/78 77/77 47/47
f 47/47 77/77 48/48
f 77/77 76/76 48/48
f 48/48 76/76 49/49
f 76/76 75/75 49/49
f 49/49 75/75 50/50
f 75/75 74/74 50/50
f 51/51 50/50 73/73
f 50/50 74/74 73/73
f 51/51 73/73 52/52
f 73/73 72/72 52/52
f 53/53 52/52 71/71
f 52/52 72/72 71/71
f 53/53 71/71 54/54
f 71/71 70/70 54/54
f 54/54 70/70 55/55
f 70/70 69/69 55/55
f 55/55 69/69 56/56
f 69/69 68/68 56/56
f 56/56 68/68 41/41
f 68/68 67/67 41/41
f 2/2 65/65 1/1
f 3/3 65/65 2/2
f 4/4 65/65 3/3
f 5/5 65/65 4/4
f 6/6 65/65 5/5
f 7/7 65/65 6/6
f 8/8 65/65 7/7
f 1/1 65/65 8/8
f 57/57 66/66 58/58
f 58/58 66/66 59/59
f 59/59 66/66 60/60
f 60/60 66/66 61/61
f 61/61 66/66 62/62
f 62/62 66/66 63/63
f 63/63 66/66 64/64
f 64/64 66/66 57/57
f 68/68 57/57 67/67
f 69/69 57/57 68/68
f 70/70 64/64 69/69
f 64/64 57/57 69/69
f 70/70 71/71 64/64
f 71/71 63/63 64/64
f 72/72 63/63 71/71
f 73/73 63/63 72/72
f 74/74 62/62 73/73
f 62/62 63/63 73/73
f 74/74 75/75 62/62
f 75/75 61/61 62/62
f 76/76 61/61 75/75
f 77/77 61/61 76/76
f 78/78 60/60 77/77
f 60/60 61/61 77/77
f 78/78 79/79 60/60
f 79/79 59/59 60/60
f 80/80 59/59 79/79
f 81/81 59/59 80/80
f 82/82 58/58 81/81
f 58/58 59/59 81/81
f 82/82 67/67 58/58
f 67/67 57/57 58/58
f 84/84 24/24 83/83
f 24/24 9/9 83/83
f 85/85 23/23 84/84
f 23/23 24/24 84/84
f 86/86 22/22 85/85
f 22/22 23/23 85/85
f 86/86 87/87 22/22
f 87/87 21/21 22/22
f 88/88 20/20 87/87
f 20/20 21/21 87/87
f 89/89 19/19 88/88
f 19/19 20/20 88/88
f 90/90 18/18 89/89
f 18/18 19/19 89/89
f 91/91 17/17 90/90
f 17/17 18/18 90/90
f 92/92 16/16 91/91
f 16/16 17/17 91/91
f 93/93 15/15 92/92
f 15/15 16/16 92/92
f 94/94 14/14 93/93
f 14/14 15/15 93/93
f 95/95 13/13 94/94
f 13/13 14/14 94/94
f 96/96 12/12 95/95
f 12/12 13/13 95/95
f 97/97 11/11 96/96
f 11/11 12/12 96/96
f 98/98 10/10 97/97
f 10/10 11/11 97/97
f 83/83 9/9 98/98
f 9/9 10/10 98/98
f 99/99 115/115 100/100
f 115/115 116/116 100/100
f 100/100 116/116 101/101
f 116/116 117/117 101/101
f 101/101 117/117 102/102
f 117/117 118/118 102/102
f 102/102 118/118 103/103
f 118/118 119/119 103/103
f 104/104 103/103 120/120
f 103/103 119/119 120/120
f 105/105 104/104 121/121
f 104/104 120/120 121/121
f 106/106 105/105 122/122
f 105/105 121/121 122/122
f 107/107 106/106 123/123
f 106/106 122/122 123/123
f 107/107 123/123 108/108
f 123/123 124/124 108/108
f 108/108 124/124 109/109
f 124/124 125/125 109/109
f 109/109 125/125 110/110
f 125/125 126/126 110/110
f 111/111 110/110 127/127
f 110/110 126/126 127/127
f 112/112 111/111 128/128
f 111/111 127/127 128/128
f 113/113 112/112 129/129
f 112/112 128/128 129/129
f 113/113 129/129 114/114
f 129/129 130/130 114/114
f 114/114 130/130 99/99
f 130/130 115/115 99/99
f 137/137 133/133 132/132
f 140/140 139/139 141/141
f 139/139 138/138 141/141
f 138/138 137/137 141/141
f 141/141 137/137 131/131
f 132/132 131/131 137/137
f 137/137 136/136 133/133
f 136/136 135/135 133/133
f 133/133 135/135 134/134
f 173/173 174/174 172/172
f 171/171 172/172 174/174
f 174/174 142/142 171/171
f 146/146 171/171 142/142
f 142/142 143/143 144/144
f 156/156 157/157 155/155
f 157/157 158/158 155/155
f 155/155 158/158 154/154
f 158/158 159/159 154/154
f 159/159 160/160 161/161
f 159/159 161/161 162/162
f 142/142 144/144 145/145
f 145/145 146/146 142/142
f 171/171 146/146 170/170
f 146/146 147/147 170/170
f 170/170 147/147 169/169
f 147/147 148/148 169/169
f 169/169 148/148 168/168
f 148/148 149/149 168/168
f 168/168 149/149 167/167
f 149/149 150/150 167/167
f 167/167 150/150 166/166
f 150/150 151/151 166/166
f 166/166 151/151 165/165
f 151/151 152/152 165/165
f 165/165 152/152 164/164
f 152/152 153/153 164/164
f 153/153 154/154 164/164
f 164/164 154/154 163/163
f 163/163 154/154 159/159
f 162/162 163/163 159/159
f 176/176 177/177 175/175
f 175/175 177/177 185/185
f 185/185 177/177 184/184
f 177/177 178/178 184/184
f 178/178 179/179 184/184
f 179/179 180/180 184/184
f 184/184 180/180 183/183
f 183/183 180/180 182/182
f 182/182 180/180 181/181
f 186/186 189/189 187/187
f 189/189 188/188 187/187
f 186/186 190/190 189/189
f 190/190 191/191 189/189
f 214/214 215/215 216/216
f 217/217 215/215 214/214
f 218/218 215/215 217/217
f 219/219 215/215 218/218
f 215/215 219/219 220/220
f 221/221 222/222 215/215
f 215/215 222/222 216/216
f 222/222 223/223 216/216
f 216/216 223/223 224/224
f 223/223 225/225 224/224
f 225/225 226/226 224/224
f 220/220 227/227 215/215
f 228/228 215/215 227/227
f 229/229 215/215 228/228
f 215/215 229/229 230/230
f 215/215 230/230 221/221
f 221/221 230/230 231/231
f 231/231 230/230 232/232
f 230/230 233/233 232/232
f 232/232 233/233 234/234
f 233/233 235/235 234/234
f 199/199 198/198 212/212
f 200/200 199/199 212/212
f 201/201 200/200 212/212
f 202/202 201/201 212/212
f 212/212 213/213 202/202
f 192/192 212/212 193/193
f 212/212 198/198 193/193
f 193/193 198/198 194/194
f 198/198 197/197 194/194
f 194/194 197/197 195/195
f 195/195 197/197 196/196
f 213/213 212/212 203/203
f 204/204 203/203 212/212
f 205/205 204/204 212/212
f 212/212 206/206 205/205
f 212/212 192/192 206/206
f 192/192 211/211 206/206
f 211/211 210/210 206/206
f 206/206 210/210 207/207
f 210/210 209/209 207/207
f 207/207 209/209 208/208
f 236/236 315/315 237/237
f 315/315 316/316 237/237
f 237/237 316/316 238/238
f 316/316 241/241 238/238
f 238/238 241/241 239/239
f 239/239 241/241 240/240
f 242/242 317/317 318/318
f 243/243 242/242 318/318
f 244/244 243/243 318/318
f 245/245 244/244 318/318
f 318/318 254/254 245/245
f 254/254 318/318 246/246
f 246/246 318/318 247/247
f 247/247 318/318 248/248
f 319/319 248/248 318/318
f 315/315 236/236 320/320
f 236/236 253/253 320/320
f 253/253 252/252 320/320
f 320/320 252/252 249/249
f 252/252 251/251 249/249
f 249/249 251/251 250/250
f 259/259 260/260 258/258
f 260/260 261/261 258/258
f 258/258 261/261 257/257
f 261/261 262/262 257/257
f 264/264 265/265 263/263
f 263/263 265/265 262/262
f 262/262 265/265 257/257
f 257/257 265/265 256/256
f 255/255 256/256 265/265
f 266/266 274/274 267/267
f 267/267 274/274 268/268
f 268/268 274/274 269/269
f 269/269 274/274 270/270
f 270/270 274/274 271/271
f 271/271 274/274 272/272
f 272/272 274/274 273/273
f 273/273 274/274 266/266
f 282/282 283/283 281/281
f 281/281 283/283 280/280
f 280/280 283/283 279/279
f 283/283 284/284 279/279
f 279/279 284/284 278/278
f 277/277 278/278 276/276
f 278/278 284/284 276/276
f 276/276 284/284 275/275
f 275/275 284/284 287/287
f 284/284 285/285 287/287
f 285/285 286/286 287/287
f 288/288 296/296 289/289
f 289/289 296/296 290/290
f 290/290 296/296 291/291
f 291/291 296/296 292/292
f 292/292 296/296 293/293
f 293/293 296/296 294/294
f 294/294 296/296 295/295
f 295/295 296/296 288/288
f 297/297 305/305 298/298
f 298/298 305/305 299/299
f 299/299 305/305 300/300
f 300/300 305/305 301/301
f 301/301 305/305 302/302
f 302/302 305/305 303/303
f 303/303 305/305 304/304
f 304/304 305/305 297/297
f 306/306 314/314 307/307
f 307/307 314/314 308/308
f 308/308 314/314 309/309
f 309/309 314/314 310/310
f 310/310 314/314 311/311
f 311/311 314/314 312/312
f 312/312 314/314 313/313
f 313/313 314/314 306/306
f 321/321 322/322 323/323
f 322/322 324/324 323/323
f 322/322 325/325 324/324
f 325/325 326/326 324/324
f 325/325 327/327 326/326
f 327/327 328/328 326/326
f 327/327 329/329 328/328
f 329/329 330/330 328/328
f 329/329 331/331 330/330
f 331/331 332/332 330/330
f 333/333 334/334 335/335
f 334/334 336/336 335/335
f 334/334 337/337 336/336
f 337/337 338/338 336/336
f 339/339 321/321 340/340
f 321/321 323/323 340/340
f 337/337 341/341 338/338
f 341/341 342/342 338/338
f 341/341 343/343 342/342
f 343/343 344/344 342/342
f 343/343 339/339 344/344
f 339/339 340/340 344/344
f 331/331 345/345 332/332
f 345/345 346/346 332/332
f 345/345 347/347 346/346
f 347/347 348/348 346/346
f 347/347 349/349 348/348
f 349/349 350/350 348/348
f 349/349 351/351 350/350
f 351/351 352/352 350/350
f 353/353 333/333 354/354
f 333/333 335/335 354/354
f 355/355 353/353 356/356
f 353/353 354/354 356/356
f 351/351 357/357 352/352
f 357/357 358/358 352/352
f 359/359 355/355 360/360
f 355/355 356/356 360/360
f 357/357 361/361 358/358
f 361/361 362/362 358/358
f 361/361 359/359 362/362
f 359/359 360/360 362/362
