mtllib options1285.mtl
o options1285
v 0.08119 -0.28287 2.76755 0.000 0.647 0.000
v 0.09238 -0.26953 2.74883 0.000 0.678 0.000
v 0.06090 -0.30704 2.78948 0.000 0.651 0.000
v 0.07101 -0.29500 2.75999 0.000 0.659 0.000
v 0.11587 -0.24154 2.74504 0.000 0.643 0.000
v 0.09475 -0.26671 2.76354 0.000 0.671 0.000
v 0.11760 -0.23947 2.75672 0.000 0.635 0.000
v 0.13408 -0.21985 2.73496 0.000 0.725 0.000
v 0.13649 -0.21695 2.74547 0.000 0.718 0.000
v 0.17177 -0.17492 2.69258 0.000 0.690 0.000
v 0.15436 -0.19566 2.69566 0.000 0.714 0.000
v 0.13422 -0.21967 2.64274 0.000 0.647 0.000
v 0.10450 -0.25510 2.60464 0.000 0.722 0.000
v 0.12043 -0.23611 2.63120 0.000 0.714 0.000
v 0.12589 -0.22961 2.61994 0.000 0.718 0.000
v 0.16009 -0.18884 2.66341 0.000 0.722 0.000
v 0.15144 -0.19915 2.67763 0.000 0.722 0.000
v 0.13957 -0.21330 2.63173 0.000 0.651 0.000
v 0.08407 -0.27943 2.73425 0.000 0.678 0.000
v 0.06331 -0.30418 2.75639 0.000 0.690 0.000
v 0.08881 -0.27378 2.70648 0.000 0.686 0.000
v 0.09896 -0.26168 2.71744 0.000 0.655 0.000
v 0.07018 -0.29599 2.73245 0.000 0.714 0.000
v 0.11111 -0.24721 2.64031 0.000 0.725 0.000
v 0.12464 -0.23108 2.65270 0.000 0.647 0.000
v 0.11591 -0.24149 2.66180 0.000 0.647 0.000
v 0.13130 -0.22315 2.66650 0.000 0.714 0.000
v 0.12404 -0.23180 2.67665 0.000 0.702 0.000
v 0.14027 -0.21245 2.68429 0.000 0.722 0.000
v 0.14943 -0.20155 2.71442 0.000 0.722 0.000
v 0.14746 -0.20389 2.66198 0.000 0.725 0.000
v 0.15934 -0.18974 2.71993 0.000 0.718 0.000
v 0.15272 -0.19762 2.64937 0.000 0.733 0.000
v 0.11107 -0.24727 2.69359 0.000 0.729 0.000
v 0.11914 -0.23764 2.70475 0.000 0.725 0.000
v 0.17907 -0.15721 2.67554 0.000 0.000 0.765
v 0.18544 -0.15419 2.67147 0.000 0.000 0.659
v 0.18100 -0.15624 2.66499 0.000 0.000 0.745
v 0.18729 -0.14773 2.66692 0.000 0.000 0.765
v 0.17790 -0.15923 2.67718 0.000 0.000 0.765
v 0.17848 -0.16625 2.68123 0.000 0.000 0.659
v 0.17367 -0.16893 2.67525 0.000 0.000 0.745
v 0.17381 -0.17109 2.68580 0.000 0.000 0.765
v 0.17804 -0.16137 2.68772 0.000 0.000 0.725
v 0.18536 -0.14870 2.67746 0.000 0.000 0.725
v 0.17885 -0.15829 2.68285 0.000 0.000 0.761
v 0.17595 -0.16668 2.68893 0.000 0.000 0.761
v 0.18763 -0.14645 2.67259 0.000 0.000 0.761
v 0.18182 -0.15314 2.67867 0.000 0.000 0.761
v 0.17576 -0.16364 2.67403 0.000 0.000 0.745
v 0.17287 -0.17203 2.68013 0.000 0.000 0.745
v 0.17873 -0.15849 2.66987 0.000 0.000 0.745
v 0.18455 -0.15179 2.66377 0.000 0.000 0.745
v 0.20074 -0.13097 2.69638 0.702 0.000 0.000
v 0.20300 -0.13144 2.71391 0.647 0.000 0.000
v 0.18685 -0.15502 2.71584 0.702 0.000 0.000
v 0.19686 -0.14207 2.72252 0.647 0.000 0.000
v 0.19725 -0.13954 2.71283 0.663 0.000 0.000
v 0.17933 -0.16805 2.71557 0.702 0.000 0.000
v 0.17300 -0.18338 2.72169 0.647 0.000 0.000
v 0.16578 -0.19150 2.69516 0.702 0.000 0.000
v 0.16701 -0.19377 2.71265 0.647 0.000 0.000
v 0.17118 -0.18470 2.71193 0.663 0.000 0.000
v 0.16359 -0.19532 2.68078 0.702 0.000 0.000
v 0.16004 -0.20585 2.66702 0.647 0.000 0.000
v 0.16911 -0.18576 2.64872 0.702 0.000 0.000
v 0.16248 -0.20162 2.65284 0.647 0.000 0.000
v 0.16356 -0.19789 2.66207 0.663 0.000 0.000
v 0.17527 -0.17509 2.64008 0.702 0.000 0.000
v 0.18202 -0.16776 2.62546 0.647 0.000 0.000
v 0.19222 -0.14571 2.64067 0.702 0.000 0.000
v 0.18952 -0.15478 2.62573 0.647 0.000 0.000
v 0.18491 -0.16090 2.63216 0.663 0.000 0.000
v 0.19823 -0.13531 2.64973 0.702 0.000 0.000
v 0.20858 -0.12177 2.65446 0.647 0.000 0.000
v 0.20319 -0.12672 2.68216 0.702 0.000 0.000
v 0.21077 -0.11797 2.66879 0.647 0.000 0.000
v 0.20573 -0.12485 2.66355 0.663 0.000 0.000
v 0.17762 -0.15759 2.67651 0.761 0.000 0.000
v 0.19473 -0.13705 2.68558 0.761 0.000 0.000
v 0.18132 -0.16029 2.70436 0.761 0.000 0.000
v 0.16824 -0.18293 2.68465 0.761 0.000 0.000
v 0.17357 -0.17370 2.65369 0.761 0.000 0.000
v 0.18994 -0.14535 2.65426 0.761 0.000 0.000
v 0.17163 -0.20039 2.69851 0.000 0.000 0.765
v 0.17158 -0.20851 2.69813 0.000 0.000 0.659
v 0.16911 -0.20714 2.69051 0.000 0.000 0.745
v 0.16619 -0.21460 2.69771 0.000 0.000 0.765
v 0.16871 -0.20785 2.70571 0.000 0.000 0.725
v 0.17070 -0.20272 2.70376 0.000 0.000 0.761
v 0.16685 -0.21276 2.70320 0.000 0.000 0.761
v 0.17098 -0.20223 2.69302 0.000 0.000 0.745
v 0.16713 -0.21227 2.69246 0.000 0.000 0.745
v 0.17306 -0.19793 2.69865 0.000 0.000 0.765
v 0.18006 -0.19382 2.69903 0.000 0.000 0.659
v 0.17804 -0.19168 2.69145 0.000 0.000 0.745
v 0.18263 -0.18612 2.69944 0.000 0.000 0.765
v 0.17764 -0.19237 2.70664 0.000 0.000 0.725
v 0.18109 -0.18810 2.70470 0.000 0.000 0.761
v 0.17432 -0.19645 2.70414 0.000 0.000 0.761
v 0.17460 -0.19595 2.69339 0.000 0.000 0.745
v 0.18137 -0.18761 2.69395 0.000 0.000 0.745
v 0.18475 -0.18896 2.73575 0.702 0.000 0.000
v 0.18154 -0.19892 2.75000 0.647 0.000 0.000
v 0.16781 -0.21830 2.73397 0.702 0.000 0.000
v 0.17405 -0.21188 2.74923 0.647 0.000 0.000
v 0.17716 -0.20464 2.74307 0.663 0.000 0.000
v 0.16197 -0.22842 2.72450 0.702 0.000 0.000
v 0.15551 -0.24401 2.71919 0.647 0.000 0.000
v 0.15758 -0.23602 2.69174 0.702 0.000 0.000
v 0.15357 -0.24736 2.70472 0.647 0.000 0.000
v 0.15690 -0.23972 2.71024 0.663 0.000 0.000
v 0.16028 -0.23135 2.67770 0.702 0.000 0.000
v 0.16212 -0.23256 2.66015 0.647 0.000 0.000
v 0.17450 -0.20671 2.65923 0.702 0.000 0.000
v 0.16840 -0.22165 2.65199 0.647 0.000 0.000
v 0.16625 -0.22354 2.66157 0.663 0.000 0.000
v 0.18201 -0.19372 2.66002 0.702 0.000 0.000
v 0.19223 -0.18038 2.65448 0.647 0.000 0.000
v 0.19519 -0.17089 2.68137 0.702 0.000 0.000
v 0.19806 -0.17030 2.66393 0.647 0.000 0.000
v 0.19228 -0.17845 2.66431 0.663 0.000 0.000
v 0.19713 -0.16751 2.69590 0.702 0.000 0.000
v 0.20424 -0.15959 2.71003 0.647 0.000 0.000
v 0.19106 -0.17804 2.72756 0.702 0.000 0.000
v 0.20155 -0.16425 2.72401 0.647 0.000 0.000
v 0.19903 -0.16677 2.71467 0.663 0.000 0.000
v 0.17142 -0.19865 2.69878 0.761 0.000 0.000
v 0.18295 -0.18778 2.72214 0.761 0.000 0.000
v 0.16660 -0.21609 2.72043 0.761 0.000 0.000
v 0.16236 -0.22343 2.68879 0.761 0.000 0.000
v 0.17609 -0.19966 2.67095 0.761 0.000 0.000
v 0.18882 -0.17761 2.69156 0.761 0.000 0.000
v 0.20227 -0.13997 2.72907 0.000 0.000 0.765
v 0.20192 -0.14809 2.72894 0.000 0.000 0.659
v 0.19937 -0.14686 2.72133 0.000 0.000 0.745
v 0.19632 -0.15397 2.72882 0.000 0.000 0.765
v 0.19923 -0.14710 2.73656 0.000 0.000 0.725
v 0.20135 -0.14211 2.73442 0.000 0.000 0.761
v 0.19715 -0.15201 2.73424 0.000 0.000 0.761
v 0.20145 -0.14195 2.72365 0.000 0.000 0.745
v 0.19725 -0.15185 2.72347 0.000 0.000 0.745
v 0.20378 -0.13756 2.72912 0.000 0.000 0.765
v 0.21093 -0.13369 2.72925 0.000 0.000 0.659
v 0.20884 -0.13169 2.72165 0.000 0.000 0.745
v 0.21377 -0.12607 2.72939 0.000 0.000 0.765
v 0.20870 -0.13192 2.73686 0.000 0.000 0.725
v 0.21225 -0.12784 2.73472 0.000 0.000 0.761
v 0.20519 -0.13595 2.73454 0.000 0.000 0.761
v 0.20529 -0.13579 2.72378 0.000 0.000 0.745
v 0.21235 -0.12767 2.72398 0.000 0.000 0.745
v 0.21646 -0.12791 2.76572 0.702 0.000 0.000
v 0.21317 -0.13730 2.78033 0.647 0.000 0.000
v 0.19849 -0.15667 2.76512 0.702 0.000 0.000
v 0.20522 -0.15003 2.78006 0.647 0.000 0.000
v 0.20847 -0.14308 2.77364 0.663 0.000 0.000
v 0.19212 -0.16686 2.75607 0.702 0.000 0.000
v 0.18503 -0.18234 2.75135 0.647 0.000 0.000
v 0.18687 -0.17527 2.72363 0.702 0.000 0.000
v 0.18270 -0.18607 2.73701 0.647 0.000 0.000
v 0.18640 -0.17840 2.74226 0.663 0.000 0.000
v 0.18946 -0.17111 2.70941 0.702 0.000 0.000
v 0.19094 -0.17289 2.69188 0.647 0.000 0.000
v 0.20419 -0.14755 2.68996 0.702 0.000 0.000
v 0.19745 -0.16247 2.68328 0.647 0.000 0.000
v 0.19540 -0.16400 2.69296 0.663 0.000 0.000
v 0.21216 -0.13480 2.69023 0.702 0.000 0.000
v 0.22273 -0.12200 2.68411 0.647 0.000 0.000
v 0.22651 -0.11183 2.71064 0.702 0.000 0.000
v 0.22908 -0.11185 2.69314 0.647 0.000 0.000
v 0.22303 -0.11979 2.69386 0.663 0.000 0.000
v 0.22884 -0.10809 2.72502 0.702 0.000 0.000
v 0.23647 -0.10003 2.73877 0.647 0.000 0.000
v 0.22299 -0.11747 2.75710 0.702 0.000 0.000
v 0.23389 -0.10417 2.75296 0.647 0.000 0.000
v 0.23111 -0.10687 2.74372 0.663 0.000 0.000
v 0.20212 -0.13820 2.72929 0.761 0.000 0.000
v 0.21445 -0.12706 2.75211 0.761 0.000 0.000
v 0.19710 -0.15484 2.75153 0.761 0.000 0.000
v 0.19202 -0.16295 2.72021 0.761 0.000 0.000
v 0.20624 -0.14020 2.70144 0.761 0.000 0.000
v 0.22010 -0.11803 2.72115 0.761 0.000 0.000
v 0.08119 0.28287 2.76755 0.000 0.647 0.000
v 0.09238 0.26953 2.74883 0.000 0.678 0.000
v 0.06090 0.30704 2.78948 0.000 0.651 0.000
v 0.07101 0.29500 2.75999 0.000 0.659 0.000
v 0.11587 0.24154 2.74504 0.000 0.643 0.000
v 0.09475 0.26671 2.76354 0.000 0.671 0.000
v 0.11760 0.23947 2.75672 0.000 0.635 0.000
v 0.13408 0.21985 2.73496 0.000 0.725 0.000
v 0.13649 0.21695 2.74547 0.000 0.718 0.000
v 0.17177 0.17492 2.69258 0.000 0.690 0.000
v 0.15436 0.19566 2.69566 0.000 0.714 0.000
v 0.13422 0.21967 2.64274 0.000 0.647 0.000
v 0.10450 0.25510 2.60464 0.000 0.722 0.000
v 0.12043 0.23611 2.63120 0.000 0.714 0.000
v 0.12589 0.22961 2.61994 0.000 0.718 0.000
v 0.16009 0.18884 2.66341 0.000 0.722 0.000
v 0.15144 0.19915 2.67763 0.000 0.722 0.000
v 0.13957 0.21330 2.63173 0.000 0.651 0.000
v 0.08407 0.27943 2.73425 0.000 0.678 0.000
v 0.06331 0.30418 2.75639 0.000 0.690 0.000
v 0.08881 0.27378 2.70648 0.000 0.686 0.000
v 0.09896 0.26168 2.71744 0.000 0.655 0.000
v 0.07018 0.29599 2.73245 0.000 0.714 0.000
v 0.11111 0.24721 2.64031 0.000 0.725 0.000
v 0.12464 0.23108 2.65270 0.000 0.647 0.000
v 0.11591 0.24149 2.66180 0.000 0.647 0.000
v 0.13130 0.22315 2.66650 0.000 0.714 0.000
v 0.12404 0.23180 2.67665 0.000 0.702 0.000
v 0.14027 0.21245 2.68429 0.000 0.722 0.000
v 0.14943 0.20155 2.71442 0.000 0.722 0.000
v 0.14746 0.20389 2.66198 0.000 0.725 0.000
v 0.15934 0.18974 2.71993 0.000 0.718 0.000
v 0.15272 0.19762 2.64937 0.000 0.733 0.000
v 0.11107 0.24727 2.69359 0.000 0.729 0.000
v 0.11914 0.23764 2.70475 0.000 0.725 0.000
v 0.17907 0.15721 2.67554 0.000 0.000 0.765
v 0.18544 0.15419 2.67147 0.000 0.000 0.659
v 0.18100 0.15624 2.66499 0.000 0.000 0.745
v 0.18729 0.14773 2.66692 0.000 0.000 0.765
v 0.17790 0.15923 2.67718 0.000 0.000 0.765
v 0.17848 0.16625 2.68123 0.000 0.000 0.659
v 0.17367 0.16893 2.67525 0.000 0.000 0.745
v 0.17381 0.17109 2.68580 0.000 0.000 0.765
v 0.17804 0.16137 2.68772 0.000 0.000 0.725
v 0.18536 0.14870 2.67746 0.000 0.000 0.725
v 0.17885 0.15829 2.68285 0.000 0.000 0.761
v 0.17595 0.16668 2.68893 0.000 0.000 0.761
v 0.18763 0.14645 2.67259 0.000 0.000 0.761
v 0.18182 0.15314 2.67867 0.000 0.000 0.761
v 0.17576 0.16364 2.67403 0.000 0.000 0.745
v 0.17287 0.17203 2.68013 0.000 0.000 0.745
v 0.17873 0.15849 2.66987 0.000 0.000 0.745
v 0.18455 0.15179 2.66377 0.000 0.000 0.745
v 0.20074 0.13097 2.69638 0.702 0.000 0.000
v 0.20300 0.13144 2.71391 0.647 0.000 0.000
v 0.18685 0.15502 2.71584 0.702 0.000 0.000
v 0.19686 0.14207 2.72252 0.647 0.000 0.000
v 0.19725 0.13954 2.71283 0.663 0.000 0.000
v 0.17933 0.16805 2.71557 0.702 0.000 0.000
v 0.17300 0.18338 2.72169 0.647 0.000 0.000
v 0.16578 0.19150 2.69516 0.702 0.000 0.000
v 0.16701 0.19377 2.71265 0.647 0.000 0.000
v 0.17118 0.18470 2.71193 0.663 0.000 0.000
v 0.16359 0.19532 2.68078 0.702 0.000 0.000
v 0.16004 0.20585 2.66702 0.647 0.000 0.000
v 0.16911 0.18576 2.64872 0.702 0.000 0.000
v 0.16248 0.20162 2.65284 0.647 0.000 0.000
v 0.16356 0.19789 2.66207 0.663 0.000 0.000
v 0.17527 0.17509 2.64008 0.702 0.000 0.000
v 0.18202 0.16776 2.62546 0.647 0.000 0.000
v 0.19222 0.14571 2.64067 0.702 0.000 0.000
v 0.18952 0.15478 2.62573 0.647 0.000 0.000
v 0.18491 0.16090 2.63216 0.663 0.000 0.000
v 0.19823 0.13531 2.64973 0.702 0.000 0.000
v 0.20858 0.12177 2.65446 0.647 0.000 0.000
v 0.20319 0.12672 2.68216 0.702 0.000 0.000
v 0.21077 0.11797 2.66879 0.647 0.000 0.000
v 0.20573 0.12485 2.66355 0.663 0.000 0.000
v 0.17762 0.15759 2.67651 0.761 0.000 0.000
v 0.19473 0.13705 2.68558 0.761 0.000 0.000
v 0.18132 0.16029 2.70436 0.761 0.000 0.000
v 0.16824 0.18293 2.68465 0.761 0.000 0.000
v 0.17357 0.17370 2.65369 0.761 0.000 0.000
v 0.18994 0.14535 2.65426 0.761 0.000 0.000
v 0.17163 0.20039 2.69851 0.000 0.000 0.765
v 0.17158 0.20851 2.69813 0.000 0.000 0.659
v 0.16911 0.20714 2.69051 0.000 0.000 0.745
v 0.16619 0.21460 2.69771 0.000 0.000 0.765
v 0.16871 0.20785 2.70571 0.000 0.000 0.725
v 0.17070 0.20272 2.70376 0.000 0.000 0.761
v 0.16685 0.21276 2.70320 0.000 0.000 0.761
v 0.17098 0.20223 2.69302 0.000 0.000 0.745
v 0.16713 0.21227 2.69246 0.000 0.000 0.745
v 0.17306 0.19793 2.69865 0.000 0.000 0.765
v 0.18006 0.19382 2.69903 0.000 0.000 0.659
v 0.17804 0.19168 2.69145 0.000 0.000 0.745
v 0.18263 0.18612 2.69944 0.000 0.000 0.765
v 0.17764 0.19237 2.70664 0.000 0.000 0.725
v 0.18109 0.18810 2.70470 0.000 0.000 0.761
v 0.17432 0.19645 2.70414 0.000 0.000 0.761
v 0.17460 0.19595 2.69339 0.000 0.000 0.745
v 0.18137 0.18761 2.69395 0.000 0.000 0.745
v 0.18475 0.18896 2.73575 0.702 0.000 0.000
v 0.18154 0.19892 2.75000 0.647 0.000 0.000
v 0.16781 0.21830 2.73397 0.702 0.000 0.000
v 0.17405 0.21188 2.74923 0.647 0.000 0.000
v 0.17716 0.20464 2.74307 0.663 0.000 0.000
v 0.16197 0.22842 2.72450 0.702 0.000 0.000
v 0.15551 0.24401 2.71919 0.647 0.000 0.000
v 0.15758 0.23602 2.69174 0.702 0.000 0.000
v 0.15357 0.24736 2.70472 0.647 0.000 0.000
v 0.15690 0.23972 2.71024 0.663 0.000 0.000
v 0.16028 0.23135 2.67770 0.702 0.000 0.000
v 0.16212 0.23256 2.66015 0.647 0.000 0.000
v 0.17450 0.20671 2.65923 0.702 0.000 0.000
v 0.16840 0.22165 2.65199 0.647 0.000 0.000
v 0.16625 0.22354 2.66157 0.663 0.000 0.000
v 0.18201 0.19372 2.66002 0.702 0.000 0.000
v 0.19223 0.18038 2.65448 0.647 0.000 0.000
v 0.19519 0.17089 2.68137 0.702 0.000 0.000
v 0.19806 0.17030 2.66393 0.647 0.000 0.000
v 0.19228 0.17845 2.66431 0.663 0.000 0.000
v 0.19713 0.16751 2.69590 0.702 0.000 0.000
v 0.20424 0.15959 2.71003 0.647 0.000 0.000
v 0.19106 0.17804 2.72756 0.702 0.000 0.000
v 0.20155 0.16425 2.72401 0.647 0.000 0.000
v 0.19903 0.16677 2.71467 0.663 0.000 0.000
v 0.17142 0.19865 2.69878 0.761 0.000 0.000
v 0.18295 0.18778 2.72214 0.761 0.000 0.000
v 0.16660 0.21609 2.72043 0.761 0.000 0.000
v 0.16236 0.22343 2.68879 0.761 0.000 0.000
v 0.17609 0.19966 2.67095 0.761 0.000 0.000
v 0.18882 0.17761 2.69156 0.761 0.000 0.000
v 0.20227 0.13997 2.72907 0.000 0.000 0.765
v 0.20192 0.14809 2.72894 0.000 0.000 0.659
v 0.19937 0.14686 2.72133 0.000 0.000 0.745
v 0.19632 0.15397 2.72882 0.000 0.000 0.765
v 0.19923 0.14710 2.73656 0.000 0.000 0.725
v 0.20135 0.14211 2.73442 0.000 0.000 0.761
v 0.19715 0.15201 2.73424 0.000 0.000 0.761
v 0.20145 0.14195 2.72365 0.000 0.000 0.745
v 0.19725 0.15185 2.72347 0.000 0.000 0.745
v 0.20378 0.13756 2.72912 0.000 0.000 0.765
v 0.21093 0.13369 2.72925 0.000 0.000 0.659
v 0.20884 0.13169 2.72165 0.000 0.000 0.745
v 0.21377 0.12607 2.72939 0.000 0.000 0.765
v 0.20870 0.13192 2.73686 0.000 0.000 0.725
v 0.21225 0.12784 2.73472 0.000 0.000 0.761
v 0.20519 0.13595 2.73454 0.000 0.000 0.761
v 0.20529 0.13579 2.72378 0.000 0.000 0.745
v 0.21235 0.12767 2.72398 0.000 0.000 0.745
v 0.21646 0.12791 2.76572 0.702 0.000 0.000
v 0.21317 0.13730 2.78033 0.647 0.000 0.000
v 0.19849 0.15667 2.76512 0.702 0.000 0.000
v 0.20522 0.15003 2.78006 0.647 0.000 0.000
v 0.20847 0.14308 2.77364 0.663 0.000 0.000
v 0.19212 0.16686 2.75607 0.702 0.000 0.000
v 0.18503 0.18234 2.75135 0.647 0.000 0.000
v 0.18687 0.17527 2.72363 0.702 0.000 0.000
v 0.18270 0.18607 2.73701 0.647 0.000 0.000
v 0.18640 0.17840 2.74226 0.663 0.000 0.000
v 0.18946 0.17111 2.70941 0.702 0.000 0.000
v 0.19094 0.17289 2.69188 0.647 0.000 0.000
v 0.20419 0.14755 2.68996 0.702 0.000 0.000
v 0.19745 0.16247 2.68328 0.647 0.000 0.000
v 0.19540 0.16400 2.69296 0.663 0.000 0.000
v 0.21216 0.13480 2.69023 0.702 0.000 0.000
v 0.22273 0.12200 2.68411 0.647 0.000 0.000
v 0.22651 0.11183 2.71064 0.702 0.000 0.000
v 0.22908 0.11185 2.69314 0.647 0.000 0.000
v 0.22303 0.11979 2.69386 0.663 0.000 0.000
v 0.22884 0.10809 2.72502 0.702 0.000 0.000
v 0.23647 0.10003 2.73877 0.647 0.000 0.000
v 0.22299 0.11747 2.75710 0.702 0.000 0.000
v 0.23389 0.10417 2.75296 0.647 0.000 0.000
v 0.23111 0.10687 2.74372 0.663 0.000 0.000
v 0.20212 0.13820 2.72929 0.761 0.000 0.000
v 0.21445 0.12706 2.75211 0.761 0.000 0.000
v 0.19710 0.15484 2.75153 0.761 0.000 0.000
v 0.19202 0.16295 2.72021 0.761 0.000 0.000
v 0.20624 0.14020 2.70144 0.761 0.000 0.000
v 0.22010 0.11803 2.72115 0.761 0.000 0.000
v 0.10503 -0.21960 2.80391 0.000 0.706 0.000
v 0.02975 -0.28276 2.77054 0.000 0.675 0.000
v 0.02751 -0.28465 2.80291 0.000 0.651 0.000
v 0.06067 -0.25682 2.77436 0.000 0.667 0.000
v 0.06082 -0.25670 2.78170 0.000 0.675 0.000
v 0.08018 -0.24046 2.78158 0.000 0.678 0.000
v 0.07492 -0.24487 2.78896 0.000 0.678 0.000
v 0.07104 -0.24813 2.78458 0.000 0.675 0.000
v 0.07602 -0.24395 2.77360 0.000 0.667 0.000
v 0.08484 -0.23656 2.75623 0.000 0.647 0.000
v 0.11225 -0.21355 2.71508 0.000 0.714 0.000
v 0.07893 -0.24151 2.75216 0.000 0.639 0.000
v 0.10642 -0.21843 2.70695 0.000 0.718 0.000
v 0.06783 -0.25081 2.76863 0.000 0.659 0.000
v 0.06928 -0.24961 2.77558 0.000 0.675 0.000
v 0.09561 -0.22752 2.66564 0.000 0.706 0.000
v 0.10374 -0.22068 2.68605 0.000 0.714 0.000
v 0.17618 -0.15989 2.67586 0.000 0.706 0.000
v 0.06761 -0.25101 2.69698 0.000 0.710 0.000
v 0.04140 -0.27299 2.69219 0.000 0.706 0.000
v 0.07525 -0.24460 2.52803 0.000 0.706 0.000
v 0.07907 -0.24138 2.54734 0.000 0.686 0.000
v 0.09854 -0.22505 2.54351 0.000 0.690 0.000
v 0.09256 -0.23008 2.52250 0.000 0.710 0.000
v 0.08674 -0.23495 2.56705 0.000 0.686 0.000
v 0.10178 -0.22234 2.56351 0.000 0.686 0.000
v 0.13528 -0.19422 2.57301 0.000 0.722 0.000
v 0.14887 -0.18283 2.58430 0.000 0.718 0.000
v 0.13530 -0.19420 2.60503 0.000 0.722 0.000
v 0.07684 -0.24325 2.61131 0.000 0.659 0.000
v 0.09356 -0.22923 2.64130 0.000 0.624 0.000
v 0.09862 -0.22498 2.61693 0.000 0.682 0.000
v 0.10033 -0.22354 2.60883 0.000 0.690 0.000
v 0.07938 -0.24113 2.59799 0.000 0.675 0.000
v 0.10740 -0.21762 2.63848 0.000 0.647 0.000
v 0.04748 -0.26789 2.78145 0.000 0.675 0.000
v -0.00599 -0.31277 2.86472 0.000 0.596 0.000
v 0.05267 -0.26354 2.79630 0.000 0.655 0.000
v 0.07539 -0.24448 2.82454 0.000 0.678 0.000
v 0.06440 -0.25369 2.80327 0.000 0.675 0.000
v 0.09028 -0.23198 2.79094 0.000 0.682 0.000
v 0.09832 -0.22523 2.78356 0.000 0.682 0.000
v 0.04862 -0.26694 2.77371 0.000 0.671 0.000
v 0.13859 -0.19145 2.69566 0.000 0.733 0.000
v 0.11284 -0.21305 2.69518 0.000 0.725 0.000
v 0.14782 -0.18369 2.70396 0.000 0.729 0.000
v 0.14417 -0.18677 2.65639 0.000 0.733 0.000
v 0.13185 -0.19710 2.65774 0.000 0.733 0.000
v 0.12211 -0.20527 2.65981 0.000 0.722 0.000
v 0.14889 -0.18281 2.65154 0.000 0.722 0.000
v 0.11418 -0.21193 2.67338 0.000 0.706 0.000
v 0.16269 -0.17122 2.64038 0.000 0.682 0.000
v 0.17510 -0.16081 2.69172 0.000 0.710 0.000
v 0.10966 -0.21571 2.60730 0.000 0.710 0.000
v 0.12012 -0.20695 2.60417 0.000 0.722 0.000
v 0.10832 -0.21685 2.58633 0.000 0.718 0.000
v 0.09765 -0.22579 2.59038 0.000 0.718 0.000
v 0.15963 -0.17379 2.67406 0.000 0.733 0.000
v 0.12346 -0.20414 2.57652 0.000 0.722 0.000
v 0.12852 -0.19989 2.59943 0.000 0.722 0.000
v 0.12624 -0.20180 2.70088 0.000 0.737 0.000
v 0.12657 -0.20153 2.69010 0.000 0.741 0.000
v 0.06354 -0.25441 2.67530 0.000 0.706 0.000
v 0.08319 -0.23792 2.68882 0.000 0.714 0.000
v 0.05150 -0.26453 2.72995 0.000 0.643 0.000
v 0.03392 -0.27927 2.72777 0.000 0.639 0.000
v 0.08225 -0.23872 2.51987 0.000 0.702 0.000
v 0.08810 -0.23380 2.59103 0.000 0.690 0.000
v 0.10503 0.21960 2.80391 0.000 0.706 0.000
v 0.02975 0.28276 2.77054 0.000 0.675 0.000
v 0.02751 0.28465 2.80291 0.000 0.651 0.000
v 0.06067 0.25682 2.77436 0.000 0.667 0.000
v 0.06082 0.25670 2.78170 0.000 0.675 0.000
v 0.08018 0.24046 2.78158 0.000 0.678 0.000
v 0.07492 0.24487 2.78896 0.000 0.678 0.000
v 0.07104 0.24813 2.78458 0.000 0.675 0.000
v 0.07602 0.24395 2.77360 0.000 0.667 0.000
v 0.08484 0.23656 2.75623 0.000 0.647 0.000
v 0.11225 0.21355 2.71508 0.000 0.714 0.000
v 0.07893 0.24151 2.75216 0.000 0.639 0.000
v 0.10642 0.21843 2.70695 0.000 0.718 0.000
v 0.06783 0.25081 2.76863 0.000 0.659 0.000
v 0.06928 0.24961 2.77558 0.000 0.675 0.000
v 0.09561 0.22752 2.66564 0.000 0.706 0.000
v 0.10374 0.22068 2.68605 0.000 0.714 0.000
v 0.17618 0.15989 2.67586 0.000 0.706 0.000
v 0.06761 0.25101 2.69698 0.000 0.710 0.000
v 0.04140 0.27299 2.69219 0.000 0.706 0.000
v 0.07525 0.24460 2.52803 0.000 0.706 0.000
v 0.07907 0.24138 2.54734 0.000 0.686 0.000
v 0.09854 0.22505 2.54351 0.000 0.690 0.000
v 0.09256 0.23008 2.52250 0.000 0.710 0.000
v 0.08674 0.23495 2.56705 0.000 0.686 0.000
v 0.10178 0.22234 2.56351 0.000 0.686 0.000
v 0.13528 0.19422 2.57301 0.000 0.722 0.000
v 0.14887 0.18283 2.58430 0.000 0.718 0.000
v 0.13530 0.19420 2.60503 0.000 0.722 0.000
v 0.07684 0.24325 2.61131 0.000 0.659 0.000
v 0.09356 0.22923 2.64130 0.000 0.624 0.000
v 0.09862 0.22498 2.61693 0.000 0.682 0.000
v 0.10033 0.22354 2.60883 0.000 0.690 0.000
v 0.07938 0.24113 2.59799 0.000 0.675 0.000
v 0.10740 0.21762 2.63848 0.000 0.647 0.000
v 0.04748 0.26789 2.78145 0.000 0.675 0.000
v -0.00599 0.31277 2.86472 0.000 0.596 0.000
v 0.05267 0.26354 2.79630 0.000 0.655 0.000
v 0.07539 0.24448 2.82454 0.000 0.678 0.000
v 0.06440 0.25369 2.80327 0.000 0.675 0.000
v 0.09028 0.23198 2.79094 0.000 0.682 0.000
v 0.09832 0.22523 2.78356 0.000 0.682 0.000
v 0.04862 0.26694 2.77371 0.000 0.671 0.000
v 0.13859 0.19145 2.69566 0.000 0.733 0.000
v 0.11284 0.21305 2.69518 0.000 0.725 0.000
v 0.14782 0.18369 2.70396 0.000 0.729 0.000
v 0.14417 0.18677 2.65639 0.000 0.733 0.000
v 0.13185 0.19710 2.65774 0.000 0.733 0.000
v 0.12211 0.20527 2.65981 0.000 0.722 0.000
v 0.14889 0.18281 2.65154 0.000 0.722 0.000
v 0.11418 0.21193 2.67338 0.000 0.706 0.000
v 0.16269 0.17122 2.64038 0.000 0.682 0.000
v 0.17510 0.16081 2.69172 0.000 0.710 0.000
v 0.10966 0.21571 2.60730 0.000 0.710 0.000
v 0.12012 0.20695 2.60417 0.000 0.722 0.000
v 0.10832 0.21685 2.58633 0.000 0.718 0.000
v 0.09765 0.22579 2.59038 0.000 0.718 0.000
v 0.15963 0.17379 2.67406 0.000 0.733 0.000
v 0.12346 0.20414 2.57652 0.000 0.722 0.000
v 0.12852 0.19989 2.59943 0.000 0.722 0.000
v 0.12624 0.20180 2.70088 0.000 0.737 0.000
v 0.12657 0.20153 2.69010 0.000 0.741 0.000
v 0.06354 0.25441 2.67530 0.000 0.706 0.000
v 0.08319 0.23792 2.68882 0.000 0.714 0.000
v 0.05150 0.26453 2.72995 0.000 0.643 0.000
v 0.03392 0.27927 2.72777 0.000 0.639 0.000
v 0.08225 0.23872 2.51987 0.000 0.702 0.000
v 0.08810 0.23380 2.59103 0.000 0.690 0.000
v 0.14931 -0.20840 2.65030 0.000 0.694 0.000
v 0.14931 -0.20840 2.66308 0.000 0.694 0.000
v 0.14654 -0.21321 2.65990 0.000 0.761 0.000
v 0.15208 -0.20362 2.65990 0.000 0.761 0.000
v 0.14970 -0.20774 2.64231 0.000 0.722 0.000
v 0.14970 -0.20774 2.64870 0.000 0.671 0.000
v 0.14810 -0.21051 2.64550 0.000 0.718 0.000
v 0.15130 -0.20497 2.64550 0.000 0.718 0.000
v 0.15208 -0.20362 2.65349 0.000 0.741 0.000
v 0.14654 -0.21321 2.65349 0.000 0.741 0.000
v 0.18724 -0.14270 2.64377 0.000 0.694 0.000
v 0.18724 -0.14270 2.65657 0.000 0.694 0.000
v 0.18447 -0.14751 2.65336 0.000 0.761 0.000
v 0.19001 -0.13792 2.65336 0.000 0.761 0.000
v 0.18628 -0.14438 2.63680 0.000 0.722 0.000
v 0.18628 -0.14438 2.64319 0.000 0.671 0.000
v 0.18468 -0.14715 2.64001 0.000 0.718 0.000
v 0.18788 -0.14161 2.64001 0.000 0.718 0.000
v 0.19001 -0.13792 2.64697 0.000 0.741 0.000
v 0.18447 -0.14751 2.64697 0.000 0.741 0.000
v 0.18065 -0.15412 2.60489 0.000 0.694 0.000
v 0.18065 -0.15412 2.61767 0.000 0.694 0.000
v 0.17788 -0.15892 2.61448 0.000 0.761 0.000
v 0.18342 -0.14933 2.61448 0.000 0.761 0.000
v 0.17720 -0.16011 2.59945 0.000 0.722 0.000
v 0.17720 -0.16011 2.60584 0.000 0.671 0.000
v 0.17560 -0.16286 2.60264 0.000 0.718 0.000
v 0.17880 -0.15734 2.60264 0.000 0.718 0.000
v 0.18342 -0.14933 2.60807 0.000 0.741 0.000
v 0.17788 -0.15892 2.60807 0.000 0.741 0.000
v 0.17170 -0.16963 2.59529 0.000 0.694 0.000
v 0.17170 -0.16963 2.60807 0.000 0.694 0.000
v 0.16893 -0.17442 2.60489 0.000 0.761 0.000
v 0.17447 -0.16483 2.60489 0.000 0.761 0.000
v 0.17447 -0.16483 2.59850 0.000 0.741 0.000
v 0.16893 -0.17442 2.59850 0.000 0.741 0.000
v 0.16147 -0.18736 2.59592 0.000 0.694 0.000
v 0.16147 -0.18736 2.60872 0.000 0.694 0.000
v 0.15870 -0.19215 2.60552 0.000 0.761 0.000
v 0.16424 -0.18256 2.60552 0.000 0.761 0.000
v 0.15673 -0.19555 2.60456 0.000 0.722 0.000
v 0.15673 -0.19555 2.61095 0.000 0.671 0.000
v 0.15513 -0.19832 2.60777 0.000 0.718 0.000
v 0.15833 -0.19278 2.60777 0.000 0.718 0.000
v 0.16424 -0.18256 2.59913 0.000 0.741 0.000
v 0.15870 -0.19215 2.59913 0.000 0.741 0.000
v 0.15443 -0.19955 2.61000 0.000 0.694 0.000
v 0.15443 -0.19955 2.62280 0.000 0.694 0.000
v 0.15166 -0.20434 2.61959 0.000 0.761 0.000
v 0.15720 -0.19474 2.61959 0.000 0.761 0.000
v 0.15720 -0.19474 2.61320 0.000 0.741 0.000
v 0.15166 -0.20434 2.61320 0.000 0.741 0.000
v 0.18564 -0.14548 2.62267 0.000 0.694 0.000
v 0.18564 -0.14548 2.63545 0.000 0.694 0.000
v 0.18287 -0.15028 2.63227 0.000 0.761 0.000
v 0.18841 -0.14069 2.63227 0.000 0.761 0.000
v 0.18436 -0.14769 2.61506 0.000 0.722 0.000
v 0.18436 -0.14769 2.62145 0.000 0.671 0.000
v 0.18276 -0.15046 2.61824 0.000 0.718 0.000
v 0.18596 -0.14492 2.61824 0.000 0.718 0.000
v 0.18841 -0.14069 2.62586 0.000 0.741 0.000
v 0.18287 -0.15028 2.62586 0.000 0.741 0.000
v 0.14963 -0.20785 2.62856 0.000 0.694 0.000
v 0.14963 -0.20785 2.64134 0.000 0.694 0.000
v 0.14686 -0.21265 2.63815 0.000 0.761 0.000
v 0.15240 -0.20306 2.63815 0.000 0.761 0.000
v 0.15162 -0.20441 2.62183 0.000 0.722 0.000
v 0.15162 -0.20441 2.62823 0.000 0.671 0.000
v 0.15002 -0.20718 2.62503 0.000 0.718 0.000
v 0.15322 -0.20165 2.62503 0.000 0.718 0.000
v 0.15240 -0.20306 2.63174 0.000 0.741 0.000
v 0.14686 -0.21265 2.63174 0.000 0.741 0.000
v 0.16560 -0.18000 2.57737 0.000 0.694 0.000
v 0.16560 -0.18000 2.59537 0.000 0.694 0.000
v 0.16170 -0.18675 2.59087 0.000 0.761 0.000
v 0.16950 -0.17325 2.59087 0.000 0.761 0.000
v 0.16560 -0.18000 2.49097 0.000 0.694 0.000
v 0.16560 -0.18000 2.50897 0.000 0.694 0.000
v 0.16170 -0.18675 2.50447 0.000 0.761 0.000
v 0.16950 -0.17325 2.50447 0.000 0.761 0.000
v 0.16560 -0.18000 2.51977 0.000 0.694 0.000
v 0.16560 -0.18000 2.53777 0.000 0.694 0.000
v 0.16170 -0.18675 2.53327 0.000 0.761 0.000
v 0.16950 -0.17325 2.53327 0.000 0.761 0.000
v 0.16560 -0.18000 2.54857 0.000 0.694 0.000
v 0.16560 -0.18000 2.56657 0.000 0.694 0.000
v 0.16170 -0.18675 2.56207 0.000 0.761 0.000
v 0.16950 -0.17325 2.56207 0.000 0.761 0.000
v 0.16560 -0.18000 2.50996 0.000 0.722 0.000
v 0.16560 -0.18000 2.51896 0.000 0.671 0.000
v 0.16335 -0.18391 2.51446 0.000 0.718 0.000
v 0.16785 -0.17609 2.51446 0.000 0.718 0.000
v 0.16645 -0.17872 2.59587 0.000 0.722 0.000
v 0.16645 -0.17872 2.60226 0.000 0.671 0.000
v 0.16486 -0.18148 2.59906 0.000 0.718 0.000
v 0.16805 -0.17595 2.59906 0.000 0.718 0.000
v 0.16560 -0.18000 2.53876 0.000 0.722 0.000
v 0.16560 -0.18000 2.54776 0.000 0.671 0.000
v 0.16335 -0.18391 2.54326 0.000 0.718 0.000
v 0.16785 -0.17609 2.54326 0.000 0.718 0.000
v 0.16560 -0.18000 2.56756 0.000 0.722 0.000
v 0.16560 -0.18000 2.57656 0.000 0.671 0.000
v 0.16335 -0.18391 2.57206 0.000 0.718 0.000
v 0.16785 -0.17609 2.57206 0.000 0.718 0.000
v 0.16950 -0.17325 2.58187 0.000 0.741 0.000
v 0.16170 -0.18675 2.58187 0.000 0.741 0.000
v 0.16170 -0.18675 2.55307 0.000 0.741 0.000
v 0.16950 -0.17325 2.55307 0.000 0.741 0.000
v 0.16950 -0.17325 2.52427 0.000 0.741 0.000
v 0.16170 -0.18675 2.52427 0.000 0.741 0.000
v 0.16950 -0.17325 2.49547 0.000 0.741 0.000
v 0.16170 -0.18675 2.49547 0.000 0.741 0.000
v 0.15287 -0.18000 2.48389 0.000 0.000 0.722
v 0.16560 -0.18000 2.48917 0.000 0.000 0.776
v 0.17833 -0.18000 2.48389 0.000 0.000 0.722
v 0.16560 -0.16727 2.48389 0.000 0.000 0.804
v 0.16560 -0.16200 2.47117 0.000 0.000 0.776
v 0.16560 -0.16727 2.45844 0.000 0.000 0.804
v 0.18360 -0.18000 2.47117 0.000 0.000 0.627
v 0.17833 -0.16727 2.47117 0.000 0.000 0.722
v 0.15287 -0.16727 2.47117 0.000 0.000 0.722
v 0.14760 -0.18000 2.47117 0.000 0.000 0.627
v 0.15287 -0.18000 2.45844 0.000 0.000 0.722
v 0.16560 -0.19273 2.48389 0.000 0.000 0.804
v 0.16560 -0.18000 2.45317 0.000 0.000 0.776
v 0.16560 -0.19800 2.47117 0.000 0.000 0.776
v 0.16560 -0.19273 2.45844 0.000 0.000 0.804
v 0.17833 -0.19273 2.47117 0.000 0.000 0.722
v 0.17833 -0.18000 2.45844 0.000 0.000 0.722
v 0.15287 -0.19273 2.47117 0.000 0.000 0.722
v 0.15264 -0.21033 2.65669 0.000 0.596 0.000
v 0.19057 -0.14463 2.65018 0.000 0.596 0.000
v 0.18398 -0.15604 2.61128 0.000 0.596 0.000
v 0.17502 -0.17156 2.60168 0.000 0.596 0.000
v 0.16479 -0.18927 2.60233 0.000 0.596 0.000
v 0.15775 -0.20146 2.61639 0.000 0.596 0.000
v 0.18897 -0.14740 2.62906 0.000 0.596 0.000
v 0.15296 -0.20977 2.63495 0.000 0.596 0.000
v 0.17028 -0.18270 2.58637 0.000 0.596 0.000
v 0.17028 -0.18270 2.49997 0.000 0.596 0.000
v 0.17028 -0.18270 2.52877 0.000 0.596 0.000
v 0.17028 -0.18270 2.55757 0.000 0.596 0.000
v 0.15191 -0.20902 2.64550 0.000 0.690 0.000
v 0.18850 -0.14566 2.64001 0.000 0.690 0.000
v 0.17942 -0.16139 2.60264 0.000 0.690 0.000
v 0.15895 -0.19683 2.60777 0.000 0.690 0.000
v 0.18658 -0.14897 2.61824 0.000 0.690 0.000
v 0.15383 -0.20570 2.62503 0.000 0.690 0.000
v 0.16872 -0.18180 2.51446 0.000 0.690 0.000
v 0.16867 -0.18000 2.59906 0.000 0.690 0.000
v 0.16872 -0.18180 2.54326 0.000 0.690 0.000
v 0.16872 -0.18180 2.57206 0.000 0.690 0.000
v 0.14931 0.20840 2.65030 0.000 0.694 0.000
v 0.14931 0.20840 2.66308 0.000 0.694 0.000
v 0.14654 0.21321 2.65990 0.000 0.761 0.000
v 0.15208 0.20362 2.65990 0.000 0.761 0.000
v 0.14970 0.20774 2.64231 0.000 0.722 0.000
v 0.14970 0.20774 2.64870 0.000 0.671 0.000
v 0.14810 0.21051 2.64550 0.000 0.718 0.000
v 0.15130 0.20497 2.64550 0.000 0.718 0.000
v 0.15208 0.20362 2.65349 0.000 0.741 0.000
v 0.14654 0.21321 2.65349 0.000 0.741 0.000
v 0.18724 0.14270 2.64377 0.000 0.694 0.000
v 0.18724 0.14270 2.65657 0.000 0.694 0.000
v 0.18447 0.14751 2.65336 0.000 0.761 0.000
v 0.19001 0.13792 2.65336 0.000 0.761 0.000
v 0.18628 0.14438 2.63680 0.000 0.722 0.000
v 0.18628 0.14438 2.64319 0.000 0.671 0.000
v 0.18468 0.14715 2.64001 0.000 0.718 0.000
v 0.18788 0.14161 2.64001 0.000 0.718 0.000
v 0.19001 0.13792 2.64697 0.000 0.741 0.000
v 0.18447 0.14751 2.64697 0.000 0.741 0.000
v 0.18065 0.15412 2.60489 0.000 0.694 0.000
v 0.18065 0.15412 2.61767 0.000 0.694 0.000
v 0.17788 0.15892 2.61448 0.000 0.761 0.000
v 0.18342 0.14933 2.61448 0.000 0.761 0.000
v 0.17720 0.16011 2.59945 0.000 0.722 0.000
v 0.17720 0.16011 2.60584 0.000 0.671 0.000
v 0.17560 0.16286 2.60264 0.000 0.718 0.000
v 0.17880 0.15734 2.60264 0.000 0.718 0.000
v 0.18342 0.14933 2.60807 0.000 0.741 0.000
v 0.17788 0.15892 2.60807 0.000 0.741 0.000
v 0.17170 0.16963 2.59529 0.000 0.694 0.000
v 0.17170 0.16963 2.60807 0.000 0.694 0.000
v 0.16893 0.17442 2.60489 0.000 0.761 0.000
v 0.17447 0.16483 2.60489 0.000 0.761 0.000
v 0.17447 0.16483 2.59850 0.000 0.741 0.000
v 0.16893 0.17442 2.59850 0.000 0.741 0.000
v 0.16147 0.18736 2.59592 0.000 0.694 0.000
v 0.16147 0.18736 2.60872 0.000 0.694 0.000
v 0.15870 0.19215 2.60552 0.000 0.761 0.000
v 0.16424 0.18256 2.60552 0.000 0.761 0.000
v 0.15673 0.19555 2.60456 0.000 0.722 0.000
v 0.15673 0.19555 2.61095 0.000 0.671 0.000
v 0.15513 0.19832 2.60777 0.000 0.718 0.000
v 0.15833 0.19278 2.60777 0.000 0.718 0.000
v 0.16424 0.18256 2.59913 0.000 0.741 0.000
v 0.15870 0.19215 2.59913 0.000 0.741 0.000
v 0.15443 0.19955 2.61000 0.000 0.694 0.000
v 0.15443 0.19955 2.62280 0.000 0.694 0.000
v 0.15166 0.20434 2.61959 0.000 0.761 0.000
v 0.15720 0.19474 2.61959 0.000 0.761 0.000
v 0.15720 0.19474 2.61320 0.000 0.741 0.000
v 0.15166 0.20434 2.61320 0.000 0.741 0.000
v 0.18564 0.14548 2.62267 0.000 0.694 0.000
v 0.18564 0.14548 2.63545 0.000 0.694 0.000
v 0.18287 0.15028 2.63227 0.000 0.761 0.000
v 0.18841 0.14069 2.63227 0.000 0.761 0.000
v 0.18436 0.14769 2.61506 0.000 0.722 0.000
v 0.18436 0.14769 2.62145 0.000 0.671 0.000
v 0.18276 0.15046 2.61824 0.000 0.718 0.000
v 0.18596 0.14492 2.61824 0.000 0.718 0.000
v 0.18841 0.14069 2.62586 0.000 0.741 0.000
v 0.18287 0.15028 2.62586 0.000 0.741 0.000
v 0.14963 0.20785 2.62856 0.000 0.694 0.000
v 0.14963 0.20785 2.64134 0.000 0.694 0.000
v 0.14686 0.21265 2.63815 0.000 0.761 0.000
v 0.15240 0.20306 2.63815 0.000 0.761 0.000
v 0.15162 0.20441 2.62183 0.000 0.722 0.000
v 0.15162 0.20441 2.62823 0.000 0.671 0.000
v 0.15002 0.20718 2.62503 0.000 0.718 0.000
v 0.15322 0.20165 2.62503 0.000 0.718 0.000
v 0.15240 0.20306 2.63174 0.000 0.741 0.000
v 0.14686 0.21265 2.63174 0.000 0.741 0.000
v 0.16560 0.18000 2.57737 0.000 0.694 0.000
v 0.16560 0.18000 2.59537 0.000 0.694 0.000
v 0.16170 0.18675 2.59087 0.000 0.761 0.000
v 0.16950 0.17325 2.59087 0.000 0.761 0.000
v 0.16560 0.18000 2.49097 0.000 0.694 0.000
v 0.16560 0.18000 2.50897 0.000 0.694 0.000
v 0.16170 0.18675 2.50447 0.000 0.761 0.000
v 0.16950 0.17325 2.50447 0.000 0.761 0.000
v 0.16560 0.18000 2.51977 0.000 0.694 0.000
v 0.16560 0.18000 2.53777 0.000 0.694 0.000
v 0.16170 0.18675 2.53327 0.000 0.761 0.000
v 0.16950 0.17325 2.53327 0.000 0.761 0.000
v 0.16560 0.18000 2.54857 0.000 0.694 0.000
v 0.16560 0.18000 2.56657 0.000 0.694 0.000
v 0.16170 0.18675 2.56207 0.000 0.761 0.000
v 0.16950 0.17325 2.56207 0.000 0.761 0.000
v 0.16560 0.18000 2.50996 0.000 0.722 0.000
v 0.16560 0.18000 2.51896 0.000 0.671 0.000
v 0.16335 0.18391 2.51446 0.000 0.718 0.000
v 0.16785 0.17609 2.51446 0.000 0.718 0.000
v 0.16645 0.17872 2.59587 0.000 0.722 0.000
v 0.16645 0.17872 2.60226 0.000 0.671 0.000
v 0.16486 0.18148 2.59906 0.000 0.718 0.000
v 0.16805 0.17595 2.59906 0.000 0.718 0.000
v 0.16560 0.18000 2.53876 0.000 0.722 0.000
v 0.16560 0.18000 2.54776 0.000 0.671 0.000
v 0.16335 0.18391 2.54326 0.000 0.718 0.000
v 0.16785 0.17609 2.54326 0.000 0.718 0.000
v 0.16560 0.18000 2.56756 0.000 0.722 0.000
v 0.16560 0.18000 2.57656 0.000 0.671 0.000
v 0.16335 0.18391 2.57206 0.000 0.718 0.000
v 0.16785 0.17609 2.57206 0.000 0.718 0.000
v 0.16950 0.17325 2.58187 0.000 0.741 0.000
v 0.16170 0.18675 2.58187 0.000 0.741 0.000
v 0.16170 0.18675 2.55307 0.000 0.741 0.000
v 0.16950 0.17325 2.55307 0.000 0.741 0.000
v 0.16950 0.17325 2.52427 0.000 0.741 0.000
v 0.16170 0.18675 2.52427 0.000 0.741 0.000
v 0.16950 0.17325 2.49547 0.000 0.741 0.000
v 0.16170 0.18675 2.49547 0.000 0.741 0.000
v 0.15287 0.18000 2.48389 0.000 0.000 0.722
v 0.16560 0.18000 2.48917 0.000 0.000 0.776
v 0.17833 0.18000 2.48389 0.000 0.000 0.722
v 0.16560 0.16727 2.48389 0.000 0.000 0.804
v 0.16560 0.16200 2.47117 0.000 0.000 0.776
v 0.16560 0.16727 2.45844 0.000 0.000 0.804
v 0.18360 0.18000 2.47117 0.000 0.000 0.627
v 0.17833 0.16727 2.47117 0.000 0.000 0.722
v 0.15287 0.16727 2.47117 0.000 0.000 0.722
v 0.14760 0.18000 2.47117 0.000 0.000 0.627
v 0.15287 0.18000 2.45844 0.000 0.000 0.722
v 0.16560 0.19273 2.48389 0.000 0.000 0.804
v 0.16560 0.18000 2.45317 0.000 0.000 0.776
v 0.16560 0.19800 2.47117 0.000 0.000 0.776
v 0.16560 0.19273 2.45844 0.000 0.000 0.804
v 0.17833 0.19273 2.47117 0.000 0.000 0.722
v 0.17833 0.18000 2.45844 0.000 0.000 0.722
v 0.15287 0.19273 2.47117 0.000 0.000 0.722
v 0.15264 0.21033 2.65669 0.000 0.596 0.000
v 0.19057 0.14463 2.65018 0.000 0.596 0.000
v 0.18398 0.15604 2.61128 0.000 0.596 0.000
v 0.17502 0.17156 2.60168 0.000 0.596 0.000
v 0.16479 0.18927 2.60233 0.000 0.596 0.000
v 0.15775 0.20146 2.61639 0.000 0.596 0.000
v 0.18897 0.14740 2.62906 0.000 0.596 0.000
v 0.15296 0.20977 2.63495 0.000 0.596 0.000
v 0.17028 0.18270 2.58637 0.000 0.596 0.000
v 0.17028 0.18270 2.49997 0.000 0.596 0.000
v 0.17028 0.18270 2.52877 0.000 0.596 0.000
v 0.17028 0.18270 2.55757 0.000 0.596 0.000
v 0.15191 0.20902 2.64550 0.000 0.690 0.000
v 0.18850 0.14566 2.64001 0.000 0.690 0.000
v 0.17942 0.16139 2.60264 0.000 0.690 0.000
v 0.15895 0.19683 2.60777 0.000 0.690 0.000
v 0.18658 0.14897 2.61824 0.000 0.690 0.000
v 0.15383 0.20570 2.62503 0.000 0.690 0.000
v 0.16872 0.18180 2.51446 0.000 0.690 0.000
v 0.16867 0.18000 2.59906 0.000 0.690 0.000
v 0.16872 0.18180 2.54326 0.000 0.690 0.000
v 0.16872 0.18180 2.57206 0.000 0.690 0.000
v 0.10450 -0.25510 2.60464 0.000 0.725 0.000
v 0.10450 0.25510 2.60464 0.000 0.725 0.000
v 0.10832 -0.21685 2.58633 0.000 0.714 0.000
v 0.09765 -0.22579 2.59038 0.000 0.706 0.000
v 0.10832 0.21685 2.58633 0.000 0.714 0.000
v 0.09765 0.22579 2.59038 0.000 0.706 0.000
vt 0.53906 0.99219
vt 0.47656 0.92969
vt 0.63281 0.99219
vt 0.53906 0.92969
vt 0.36719 0.92969
vt 0.47656 0.99219
vt 0.36719 0.99219
vt 0.28906 0.92969
vt 0.28906 0.99219
vt 0.00781 0.99219
vt 0.13281 0.92969
vt 0.08594 0.72656
vt 0.00781 0.60156
vt 0.08594 0.64844
vt 0.00781 0.64844
vt 0.00781 0.88281
vt 0.08594 0.86719
vt 0.00781 0.72656
vt 0.47656 0.92969
vt 0.63281 0.85156
vt 0.39844 0.85156
vt 0.38281 0.92969
vt 0.47656 0.85156
vt 0.16406 0.64844
vt 0.08594 0.72656
vt 0.16406 0.72656
vt 0.08594 0.77344
vt 0.16406 0.77344
vt 0.16406 0.85156
vt 0.19531 0.92969
vt 0.08594 0.80469
vt 0.19531 0.99219
vt 0.00781 0.80469
vt 0.28906 0.85156
vt 0.27344 0.92969
vt 0.82031 0.91406
vt 0.75781 0.97656
vt 0.74219 0.91406
vt 0.82031 0.91406
vt 0.82031 0.91406
vt 0.75781 0.97656
vt 0.74219 0.91406
vt 0.82031 0.91406
vt 0.82031 0.99219
vt 0.82031 0.99219
vt 0.82031 0.96094
vt 0.82031 0.96094
vt 0.82031 0.96094
vt 0.82031 0.96094
vt 0.78906 0.91406
vt 0.78906 0.91406
vt 0.78906 0.91406
vt 0.78906 0.91406
vt 0.99219 0.80469
vt 0.99219 0.99219
vt 0.99219 0.80469
vt 0.99219 0.99219
vt 0.89844 0.99219
vt 0.99219 0.80469
vt 0.99219 0.99219
vt 0.99219 0.80469
vt 0.99219 0.99219
vt 0.89844 0.99219
vt 0.99219 0.80469
vt 0.99219 0.99219
vt 0.99219 0.80469
vt 0.99219 0.99219
vt 0.89844 0.99219
vt 0.99219 0.80469
vt 0.99219 0.99219
vt 0.99219 0.80469
vt 0.99219 0.99219
vt 0.89844 0.99219
vt 0.99219 0.80469
vt 0.99219 0.99219
vt 0.99219 0.80469
vt 0.99219 0.99219
vt 0.89844 0.99219
vt 0.83594 0.71094
vt 0.99219 0.66406
vt 0.99219 0.66406
vt 0.99219 0.66406
vt 0.99219 0.66406
vt 0.99219 0.66406
vt 0.82031 0.91406
vt 0.75781 0.97656
vt 0.74219 0.91406
vt 0.82031 0.91406
vt 0.82031 0.99219
vt 0.82031 0.96094
vt 0.82031 0.96094
vt 0.78906 0.91406
vt 0.78906 0.91406
vt 0.82031 0.91406
vt 0.75781 0.97656
vt 0.74219 0.91406
vt 0.82031 0.91406
vt 0.82031 0.99219
vt 0.82031 0.96094
vt 0.82031 0.96094
vt 0.78906 0.91406
vt 0.78906 0.91406
vt 0.99219 0.80469
vt 0.99219 0.99219
vt 0.99219 0.80469
vt 0.99219 0.99219
vt 0.89844 0.99219
vt 0.99219 0.80469
vt 0.99219 0.99219
vt 0.99219 0.80469
vt 0.99219 0.99219
vt 0.89844 0.99219
vt 0.99219 0.80469
vt 0.99219 0.99219
vt 0.99219 0.80469
vt 0.99219 0.99219
vt 0.89844 0.99219
vt 0.99219 0.80469
vt 0.99219 0.99219
vt 0.99219 0.80469
vt 0.99219 0.99219
vt 0.89844 0.99219
vt 0.99219 0.80469
vt 0.99219 0.99219
vt 0.99219 0.80469
vt 0.99219 0.99219
vt 0.89844 0.99219
vt 0.83594 0.71094
vt 0.99219 0.66406
vt 0.99219 0.66406
vt 0.99219 0.66406
vt 0.99219 0.66406
vt 0.99219 0.66406
vt 0.82031 0.91406
vt 0.75781 0.97656
vt 0.74219 0.91406
vt 0.82031 0.91406
vt 0.82031 0.99219
vt 0.82031 0.96094
vt 0.82031 0.96094
vt 0.78906 0.91406
vt 0.78906 0.91406
vt 0.82031 0.91406
vt 0.75781 0.97656
vt 0.74219 0.91406
vt 0.82031 0.91406
vt 0.82031 0.99219
vt 0.82031 0.96094
vt 0.82031 0.96094
vt 0.78906 0.91406
vt 0.78906 0.91406
vt 0.99219 0.80469
vt 0.99219 0.99219
vt 0.99219 0.80469
vt 0.99219 0.99219
vt 0.89844 0.99219
vt 0.99219 0.80469
vt 0.99219 0.99219
vt 0.99219 0.80469
vt 0.99219 0.99219
vt 0.89844 0.99219
vt 0.99219 0.80469
vt 0.99219 0.99219
vt 0.99219 0.80469
vt 0.99219 0.99219
vt 0.89844 0.99219
vt 0.99219 0.80469
vt 0.99219 0.99219
vt 0.99219 0.80469
vt 0.99219 0.99219
vt 0.89844 0.99219
vt 0.99219 0.80469
vt 0.99219 0.99219
vt 0.99219 0.80469
vt 0.99219 0.99219
vt 0.89844 0.99219
vt 0.83594 0.71094
vt 0.99219 0.66406
vt 0.99219 0.66406
vt 0.99219 0.66406
vt 0.99219 0.66406
vt 0.99219 0.66406
vt 0.53906 0.99219
vt 0.47656 0.92969
vt 0.63281 0.99219
vt 0.53906 0.92969
vt 0.36719 0.92969
vt 0.47656 0.99219
vt 0.36719 0.99219
vt 0.28906 0.92969
vt 0.28906 0.99219
vt 0.00781 0.99219
vt 0.13281 0.92969
vt 0.08594 0.72656
vt 0.00781 0.60156
vt 0.08594 0.64844
vt 0.00781 0.64844
vt 0.00781 0.88281
vt 0.08594 0.86719
vt 0.00781 0.72656
vt 0.47656 0.92969
vt 0.63281 0.85156
vt 0.39844 0.85156
vt 0.38281 0.92969
vt 0.47656 0.85156
vt 0.16406 0.64844
vt 0.08594 0.72656
vt 0.16406 0.72656
vt 0.08594 0.77344
vt 0.16406 0.77344
vt 0.16406 0.85156
vt 0.19531 0.92969
vt 0.08594 0.80469
vt 0.19531 0.99219
vt 0.00781 0.80469
vt 0.28906 0.85156
vt 0.27344 0.92969
vt 0.82031 0.91406
vt 0.75781 0.97656
vt 0.74219 0.91406
vt 0.82031 0.91406
vt 0.82031 0.91406
vt 0.75781 0.97656
vt 0.74219 0.91406
vt 0.82031 0.91406
vt 0.82031 0.99219
vt 0.82031 0.99219
vt 0.82031 0.96094
vt 0.82031 0.96094
vt 0.82031 0.96094
vt 0.82031 0.96094
vt 0.78906 0.91406
vt 0.78906 0.91406
vt 0.78906 0.91406
vt 0.78906 0.91406
vt 0.99219 0.80469
vt 0.99219 0.99219
vt 0.99219 0.80469
vt 0.99219 0.99219
vt 0.89844 0.99219
vt 0.99219 0.80469
vt 0.99219 0.99219
vt 0.99219 0.80469
vt 0.99219 0.99219
vt 0.89844 0.99219
vt 0.99219 0.80469
vt 0.99219 0.99219
vt 0.99219 0.80469
vt 0.99219 0.99219
vt 0.89844 0.99219
vt 0.99219 0.80469
vt 0.99219 0.99219
vt 0.99219 0.80469
vt 0.99219 0.99219
vt 0.89844 0.99219
vt 0.99219 0.80469
vt 0.99219 0.99219
vt 0.99219 0.80469
vt 0.99219 0.99219
vt 0.89844 0.99219
vt 0.83594 0.71094
vt 0.99219 0.66406
vt 0.99219 0.66406
vt 0.99219 0.66406
vt 0.99219 0.66406
vt 0.99219 0.66406
vt 0.82031 0.91406
vt 0.75781 0.97656
vt 0.74219 0.91406
vt 0.82031 0.91406
vt 0.82031 0.99219
vt 0.82031 0.96094
vt 0.82031 0.96094
vt 0.78906 0.91406
vt 0.78906 0.91406
vt 0.82031 0.91406
vt 0.75781 0.97656
vt 0.74219 0.91406
vt 0.82031 0.91406
vt 0.82031 0.99219
vt 0.82031 0.96094
vt 0.82031 0.96094
vt 0.78906 0.91406
vt 0.78906 0.91406
vt 0.99219 0.80469
vt 0.99219 0.99219
vt 0.99219 0.80469
vt 0.99219 0.99219
vt 0.89844 0.99219
vt 0.99219 0.80469
vt 0.99219 0.99219
vt 0.99219 0.80469
vt 0.99219 0.99219
vt 0.89844 0.99219
vt 0.99219 0.80469
vt 0.99219 0.99219
vt 0.99219 0.80469
vt 0.99219 0.99219
vt 0.89844 0.99219
vt 0.99219 0.80469
vt 0.99219 0.99219
vt 0.99219 0.80469
vt 0.99219 0.99219
vt 0.89844 0.99219
vt 0.99219 0.80469
vt 0.99219 0.99219
vt 0.99219 0.80469
vt 0.99219 0.99219
vt 0.89844 0.99219
vt 0.83594 0.71094
vt 0.99219 0.66406
vt 0.99219 0.66406
vt 0.99219 0.66406
vt 0.99219 0.66406
vt 0.99219 0.66406
vt 0.82031 0.91406
vt 0.75781 0.97656
vt 0.74219 0.91406
vt 0.82031 0.91406
vt 0.82031 0.99219
vt 0.82031 0.96094
vt 0.82031 0.96094
vt 0.78906 0.91406
vt 0.78906 0.91406
vt 0.82031 0.91406
vt 0.75781 0.97656
vt 0.74219 0.91406
vt 0.82031 0.91406
vt 0.82031 0.99219
vt 0.82031 0.96094
vt 0.82031 0.96094
vt 0.78906 0.91406
vt 0.78906 0.91406
vt 0.99219 0.80469
vt 0.99219 0.99219
vt 0.99219 0.80469
vt 0.99219 0.99219
vt 0.89844 0.99219
vt 0.99219 0.80469
vt 0.99219 0.99219
vt 0.99219 0.80469
vt 0.99219 0.99219
vt 0.89844 0.99219
vt 0.99219 0.80469
vt 0.99219 0.99219
vt 0.99219 0.80469
vt 0.99219 0.99219
vt 0.89844 0.99219
vt 0.99219 0.80469
vt 0.99219 0.99219
vt 0.99219 0.80469
vt 0.99219 0.99219
vt 0.89844 0.99219
vt 0.99219 0.80469
vt 0.99219 0.99219
vt 0.99219 0.80469
vt 0.99219 0.99219
vt 0.89844 0.99219
vt 0.83594 0.71094
vt 0.99219 0.66406
vt 0.99219 0.66406
vt 0.99219 0.66406
vt 0.99219 0.66406
vt 0.99219 0.66406
vt 0.00821 0.00781
vt 0.25719 0.30469
vt 0.11719 0.30469
vt 0.25719 0.21094
vt 0.19531 0.19531
vt 0.25719 0.10156
vt 0.19531 0.11719
vt 0.19531 0.13281
vt 0.25719 0.13281
vt 0.30406 0.13281
vt 0.44531 0.13281
vt 0.30469 0.17969
vt 0.44531 0.17969
vt 0.25719 0.17969
vt 0.19531 0.16406
vt 0.52344 0.30469
vt 0.49219 0.22656
vt 0.61719 0.00781
vt 0.44531 0.22656
vt 0.44531 0.30469
vt 0.99219 0.39844
vt 0.91406 0.39844
vt 0.91406 0.32031
vt 0.99219 0.32031
vt 0.85156 0.39844
vt 0.85156 0.32031
vt 0.99219 0.00781
vt 0.91406 0.00781
vt 0.85156 0.08594
vt 0.91406 0.30469
vt 0.75781 0.30469
vt 0.83594 0.22656
vt 0.88281 0.22656
vt 0.99219 0.30469
vt 0.75781 0.22656
vt 0.19531 0.22656
vt 0.00781 0.30469
vt 0.13281 0.22656
vt 0.00781 0.07761
vt 0.13281 0.08594
vt 0.19531 0.08594
vt 0.25719 0.08594
vt 0.25719 0.22656
vt 0.52344 0.10156
vt 0.49219 0.17969
vt 0.52344 0.08594
vt 0.67969 0.13281
vt 0.67969 0.17969
vt 0.67969 0.22656
vt 0.67969 0.08594
vt 0.63281 0.30469
vt 0.71094 0.00781
vt 0.57031 0.00781
vt 0.88281 0.17969
vt 0.88281 0.13281
vt 0.75781 0.32031
vt 0.75781 0.39844
vt 0.61719 0.07031
vt 0.99219 0.05469
vt 0.88281 0.08594
vt 0.52344 0.13281
vt 0.55469 0.16406
vt 0.49219 0.30469
vt 0.47656 0.22656
vt 0.35156 0.22656
vt 0.35156 0.30469
vt 0.99219 0.35156
vt 0.99219 0.25781
vt 0.00821 0.00781
vt 0.25719 0.30469
vt 0.11719 0.30469
vt 0.25719 0.21094
vt 0.19531 0.19531
vt 0.25719 0.10156
vt 0.19531 0.11719
vt 0.19531 0.13281
vt 0.25719 0.13281
vt 0.30406 0.13281
vt 0.44531 0.13281
vt 0.30469 0.17969
vt 0.44531 0.17969
vt 0.25719 0.17969
vt 0.19531 0.16406
vt 0.52344 0.30469
vt 0.49219 0.22656
vt 0.61719 0.00781
vt 0.44531 0.22656
vt 0.44531 0.30469
vt 0.99219 0.39844
vt 0.91406 0.39844
vt 0.91406 0.32031
vt 0.99219 0.32031
vt 0.85156 0.39844
vt 0.85156 0.32031
vt 0.99219 0.00781
vt 0.91406 0.00781
vt 0.85156 0.08594
vt 0.91406 0.30469
vt 0.75781 0.30469
vt 0.83594 0.22656
vt 0.88281 0.22656
vt 0.99219 0.30469
vt 0.75781 0.22656
vt 0.19531 0.22656
vt 0.00781 0.30469
vt 0.13281 0.22656
vt 0.00781 0.07761
vt 0.13281 0.08594
vt 0.19531 0.08594
vt 0.25719 0.08594
vt 0.25719 0.22656
vt 0.52344 0.10156
vt 0.49219 0.17969
vt 0.52344 0.08594
vt 0.67969 0.13281
vt 0.67969 0.17969
vt 0.67969 0.22656
vt 0.67969 0.08594
vt 0.63281 0.30469
vt 0.71094 0.00781
vt 0.57031 0.00781
vt 0.88281 0.17969
vt 0.88281 0.13281
vt 0.75781 0.32031
vt 0.75781 0.39844
vt 0.61719 0.07031
vt 0.99219 0.05469
vt 0.88281 0.08594
vt 0.52344 0.13281
vt 0.55469 0.16406
vt 0.49219 0.30469
vt 0.47656 0.22656
vt 0.35156 0.22656
vt 0.35156 0.30469
vt 0.99219 0.35156
vt 0.99219 0.25781
vt 0.57031 0.83594
vt 0.69531 0.83594
vt 0.69531 0.77344
vt 0.69531 0.77344
vt 0.80469 0.89844
vt 0.72656 0.82031
vt 0.72656 0.89844
vt 0.72656 0.89844
vt 0.57031 0.77344
vt 0.57031 0.77344
vt 0.57031 0.83594
vt 0.69531 0.83594
vt 0.69531 0.77344
vt 0.69531 0.77344
vt 0.80469 0.89844
vt 0.72656 0.82031
vt 0.72656 0.89844
vt 0.72656 0.89844
vt 0.57031 0.77344
vt 0.57031 0.77344
vt 0.57031 0.83594
vt 0.69531 0.83594
vt 0.69531 0.77344
vt 0.69531 0.77344
vt 0.80469 0.89844
vt 0.72656 0.82031
vt 0.72656 0.89844
vt 0.72656 0.89844
vt 0.57031 0.77344
vt 0.57031 0.77344
vt 0.57031 0.83594
vt 0.69531 0.83594
vt 0.69531 0.77344
vt 0.69531 0.77344
vt 0.57031 0.77344
vt 0.57031 0.77344
vt 0.57031 0.83594
vt 0.69531 0.83594
vt 0.69531 0.77344
vt 0.69531 0.77344
vt 0.80469 0.89844
vt 0.72656 0.82031
vt 0.72656 0.89844
vt 0.72656 0.89844
vt 0.57031 0.77344
vt 0.57031 0.77344
vt 0.57031 0.83594
vt 0.69531 0.83594
vt 0.69531 0.77344
vt 0.69531 0.77344
vt 0.57031 0.77344
vt 0.57031 0.77344
vt 0.57031 0.83594
vt 0.69531 0.83594
vt 0.69531 0.77344
vt 0.69531 0.77344
vt 0.80469 0.89844
vt 0.72656 0.82031
vt 0.72656 0.89844
vt 0.72656 0.89844
vt 0.57031 0.77344
vt 0.57031 0.77344
vt 0.57031 0.83594
vt 0.69531 0.83594
vt 0.69531 0.77344
vt 0.69531 0.77344
vt 0.80469 0.89844
vt 0.72656 0.82031
vt 0.72656 0.89844
vt 0.72656 0.89844
vt 0.57031 0.77344
vt 0.57031 0.77344
vt 0.57031 0.83594
vt 0.69531 0.83594
vt 0.69531 0.77344
vt 0.69531 0.77344
vt 0.57031 0.83594
vt 0.69531 0.83594
vt 0.69531 0.77344
vt 0.69531 0.77344
vt 0.57031 0.83594
vt 0.69531 0.83594
vt 0.69531 0.77344
vt 0.69531 0.77344
vt 0.57031 0.83594
vt 0.69531 0.83594
vt 0.69531 0.77344
vt 0.69531 0.77344
vt 0.80469 0.89844
vt 0.72656 0.82031
vt 0.72656 0.89844
vt 0.72656 0.89844
vt 0.80469 0.89844
vt 0.72656 0.82031
vt 0.72656 0.89844
vt 0.72656 0.89844
vt 0.80469 0.89844
vt 0.72656 0.82031
vt 0.72656 0.89844
vt 0.72656 0.89844
vt 0.80469 0.89844
vt 0.72656 0.82031
vt 0.72656 0.89844
vt 0.72656 0.89844
vt 0.57031 0.77344
vt 0.57031 0.77344
vt 0.57031 0.77344
vt 0.57031 0.77344
vt 0.57031 0.77344
vt 0.57031 0.77344
vt 0.57031 0.77344
vt 0.57031 0.77344
vt 0.77344 0.66406
vt 0.82031 0.66406
vt 0.77344 0.66406
vt 0.78906 0.74219
vt 0.71094 0.77344
vt 0.78906 0.74219
vt 0.71094 0.66406
vt 0.71094 0.72656
vt 0.71094 0.72656
vt 0.71094 0.66406
vt 0.77344 0.66406
vt 0.78906 0.74219
vt 0.82031 0.66406
vt 0.71094 0.77344
vt 0.78906 0.74219
vt 0.71094 0.72656
vt 0.77344 0.66406
vt 0.71094 0.72656
vt 0.63281 0.83594
vt 0.63281 0.83594
vt 0.63281 0.83594
vt 0.63281 0.83594
vt 0.63281 0.83594
vt 0.63281 0.83594
vt 0.63281 0.83594
vt 0.63281 0.83594
vt 0.63281 0.83594
vt 0.63281 0.83594
vt 0.63281 0.83594
vt 0.63281 0.83594
vt 0.76562 0.85938
vt 0.76562 0.85938
vt 0.76562 0.85938
vt 0.76562 0.85938
vt 0.76562 0.85938
vt 0.76562 0.85938
vt 0.76562 0.85938
vt 0.76562 0.85938
vt 0.76562 0.85938
vt 0.76562 0.85938
vt 0.57031 0.83594
vt 0.69531 0.83594
vt 0.69531 0.77344
vt 0.69531 0.77344
vt 0.80469 0.89844
vt 0.72656 0.82031
vt 0.72656 0.89844
vt 0.72656 0.89844
vt 0.57031 0.77344
vt 0.57031 0.77344
vt 0.57031 0.83594
vt 0.69531 0.83594
vt 0.69531 0.77344
vt 0.69531 0.77344
vt 0.80469 0.89844
vt 0.72656 0.82031
vt 0.72656 0.89844
vt 0.72656 0.89844
vt 0.57031 0.77344
vt 0.57031 0.77344
vt 0.57031 0.83594
vt 0.69531 0.83594
vt 0.69531 0.77344
vt 0.69531 0.77344
vt 0.80469 0.89844
vt 0.72656 0.82031
vt 0.72656 0.89844
vt 0.72656 0.89844
vt 0.57031 0.77344
vt 0.57031 0.77344
vt 0.57031 0.83594
vt 0.69531 0.83594
vt 0.69531 0.77344
vt 0.69531 0.77344
vt 0.57031 0.77344
vt 0.57031 0.77344
vt 0.57031 0.83594
vt 0.69531 0.83594
vt 0.69531 0.77344
vt 0.69531 0.77344
vt 0.80469 0.89844
vt 0.72656 0.82031
vt 0.72656 0.89844
vt 0.72656 0.89844
vt 0.57031 0.77344
vt 0.57031 0.77344
vt 0.57031 0.83594
vt 0.69531 0.83594
vt 0.69531 0.77344
vt 0.69531 0.77344
vt 0.57031 0.77344
vt 0.57031 0.77344
vt 0.57031 0.83594
vt 0.69531 0.83594
vt 0.69531 0.77344
vt 0.69531 0.77344
vt 0.80469 0.89844
vt 0.72656 0.82031
vt 0.72656 0.89844
vt 0.72656 0.89844
vt 0.57031 0.77344
vt 0.57031 0.77344
vt 0.57031 0.83594
vt 0.69531 0.83594
vt 0.69531 0.77344
vt 0.69531 0.77344
vt 0.80469 0.89844
vt 0.72656 0.82031
vt 0.72656 0.89844
vt 0.72656 0.89844
vt 0.57031 0.77344
vt 0.57031 0.77344
vt 0.57031 0.83594
vt 0.69531 0.83594
vt 0.69531 0.77344
vt 0.69531 0.77344
vt 0.57031 0.83594
vt 0.69531 0.83594
vt 0.69531 0.77344
vt 0.69531 0.77344
vt 0.57031 0.83594
vt 0.69531 0.83594
vt 0.69531 0.77344
vt 0.69531 0.77344
vt 0.57031 0.83594
vt 0.69531 0.83594
vt 0.69531 0.77344
vt 0.69531 0.77344
vt 0.80469 0.89844
vt 0.72656 0.82031
vt 0.72656 0.89844
vt 0.72656 0.89844
vt 0.80469 0.89844
vt 0.72656 0.82031
vt 0.72656 0.89844
vt 0.72656 0.89844
vt 0.80469 0.89844
vt 0.72656 0.82031
vt 0.72656 0.89844
vt 0.72656 0.89844
vt 0.80469 0.89844
vt 0.72656 0.82031
vt 0.72656 0.89844
vt 0.72656 0.89844
vt 0.57031 0.77344
vt 0.57031 0.77344
vt 0.57031 0.77344
vt 0.57031 0.77344
vt 0.57031 0.77344
vt 0.57031 0.77344
vt 0.57031 0.77344
vt 0.57031 0.77344
vt 0.77344 0.66406
vt 0.82031 0.66406
vt 0.77344 0.66406
vt 0.78906 0.74219
vt 0.71094 0.77344
vt 0.78906 0.74219
vt 0.71094 0.66406
vt 0.71094 0.72656
vt 0.71094 0.72656
vt 0.71094 0.66406
vt 0.77344 0.66406
vt 0.78906 0.74219
vt 0.82031 0.66406
vt 0.71094 0.77344
vt 0.78906 0.74219
vt 0.71094 0.72656
vt 0.77344 0.66406
vt 0.71094 0.72656
vt 0.63281 0.83594
vt 0.63281 0.83594
vt 0.63281 0.83594
vt 0.63281 0.83594
vt 0.63281 0.83594
vt 0.63281 0.83594
vt 0.63281 0.83594
vt 0.63281 0.83594
vt 0.63281 0.83594
vt 0.63281 0.83594
vt 0.63281 0.83594
vt 0.63281 0.83594
vt 0.76562 0.85938
vt 0.76562 0.85938
vt 0.76562 0.85938
vt 0.76562 0.85938
vt 0.76562 0.85938
vt 0.76562 0.85938
vt 0.76562 0.85938
vt 0.76562 0.85938
vt 0.76562 0.85938
vt 0.76562 0.85938
vt 0.16406 0.60156
vt 0.16406 0.60156
vt 0.99219 0.11719
vt 0.99219 0.19531
vt 0.99219 0.11719
vt 0.99219 0.19531
usemtl m0
f 3/3 4/4 1/1
f 4/4 2/2 1/1
f 2/2 5/5 6/6
f 6/6 5/5 7/7
f 1/1 2/2 6/6
f 30/30 11/11 10/10
f 9/9 30/30 32/32
f 30/30 10/10 32/32
f 8/8 30/30 9/9
f 5/5 8/8 7/7
f 7/7 8/8 9/9
f 14/14 13/13 15/15
f 12/12 14/14 18/18
f 14/14 15/15 18/18
f 17/17 31/31 16/16
f 12/12 18/18 31/31
f 31/31 18/18 33/33
f 31/31 33/33 16/16
f 17/17 16/16 10/10
f 11/11 17/17 10/10
f 22/22 34/34 35/35
f 34/34 29/29 35/35
f 21/21 34/34 22/22
f 35/35 29/29 11/11
f 3/3 20/20 4/4
f 4/4 23/23 19/19
f 20/20 23/23 4/4
f 19/19 21/21 22/22
f 23/23 21/21 19/19
f 24/24 805/805 14/14
f 24/24 14/14 25/25
f 26/26 25/25 27/27
f 26/26 24/24 25/25
f 28/28 27/27 29/29
f 28/28 26/26 27/27
f 29/29 27/27 17/17
f 29/29 17/17 11/11
f 45/45 37/37 48/48
f 37/37 39/39 48/48
f 37/37 38/38 53/53
f 37/37 53/53 39/39
f 36/36 37/37 49/49
f 49/49 37/37 45/45
f 36/36 52/52 37/37
f 52/52 38/38 37/37
f 43/43 41/41 47/47
f 47/47 41/41 44/44
f 43/43 51/51 41/41
f 51/51 42/42 41/41
f 44/44 41/41 46/46
f 41/41 40/40 46/46
f 41/41 42/42 50/50
f 41/41 50/50 40/40
f 58/58 79/79 54/54
f 58/58 54/54 55/55
f 54/54 79/79 80/80
f 56/56 79/79 58/58
f 57/57 56/56 58/58
f 81/81 79/79 56/56
f 63/63 79/79 59/59
f 60/60 63/63 59/59
f 59/59 79/79 81/81
f 63/63 61/61 79/79
f 62/62 61/61 63/63
f 61/61 82/82 79/79
f 64/64 68/68 79/79
f 64/64 65/65 68/68
f 82/82 64/64 79/79
f 68/68 66/66 79/79
f 68/68 67/67 66/66
f 79/79 66/66 83/83
f 79/79 69/69 73/73
f 69/69 70/70 73/73
f 83/83 69/69 79/79
f 79/79 73/73 71/71
f 73/73 72/72 71/71
f 79/79 71/71 84/84
f 79/79 74/74 78/78
f 78/78 74/74 75/75
f 79/79 84/84 74/74
f 76/76 79/79 78/78
f 76/76 78/78 77/77
f 80/80 79/79 76/76
f 88/88 86/86 91/91
f 91/91 86/86 89/89
f 88/88 93/93 86/86
f 93/93 87/87 86/86
f 89/89 86/86 90/90
f 86/86 85/85 90/90
f 86/86 87/87 92/92
f 86/86 92/92 85/85
f 98/98 95/95 99/99
f 95/95 97/97 99/99
f 95/95 96/96 102/102
f 95/95 102/102 97/97
f 94/94 95/95 100/100
f 100/100 95/95 98/98
f 94/94 101/101 95/95
f 101/101 96/96 95/95
f 107/107 128/128 103/103
f 107/107 103/103 104/104
f 103/103 128/128 129/129
f 105/105 128/128 107/107
f 106/106 105/105 107/107
f 130/130 128/128 105/105
f 112/112 128/128 108/108
f 109/109 112/112 108/108
f 108/108 128/128 130/130
f 112/112 110/110 128/128
f 111/111 110/110 112/112
f 110/110 131/131 128/128
f 113/113 117/117 128/128
f 113/113 114/114 117/117
f 131/131 113/113 128/128
f 117/117 115/115 128/128
f 117/117 116/116 115/115
f 128/128 115/115 132/132
f 128/128 118/118 122/122
f 118/118 119/119 122/122
f 132/132 118/118 128/128
f 128/128 122/122 120/120
f 122/122 121/121 120/120
f 128/128 120/120 133/133
f 128/128 123/123 127/127
f 127/127 123/123 124/124
f 128/128 133/133 123/123
f 125/125 128/128 127/127
f 125/125 127/127 126/126
f 129/129 128/128 125/125
f 137/137 135/135 140/140
f 140/140 135/135 138/138
f 137/137 142/142 135/135
f 142/142 136/136 135/135
f 138/138 135/135 139/139
f 135/135 134/134 139/139
f 135/135 136/136 141/141
f 135/135 141/141 134/134
f 147/147 144/144 148/148
f 144/144 146/146 148/148
f 144/144 145/145 151/151
f 144/144 151/151 146/146
f 143/143 144/144 149/149
f 149/149 144/144 147/147
f 143/143 150/150 144/144
f 150/150 145/145 144/144
f 156/156 177/177 152/152
f 156/156 152/152 153/153
f 152/152 177/177 178/178
f 154/154 177/177 156/156
f 155/155 154/154 156/156
f 179/179 177/177 154/154
f 161/161 177/177 157/157
f 158/158 161/161 157/157
f 157/157 177/177 179/179
f 161/161 159/159 177/177
f 160/160 159/159 161/161
f 159/159 180/180 177/177
f 162/162 166/166 177/177
f 162/162 163/163 166/166
f 180/180 162/162 177/177
f 166/166 164/164 177/177
f 166/166 165/165 164/164
f 177/177 164/164 181/181
f 177/177 167/167 171/171
f 167/167 168/168 171/171
f 181/181 167/167 177/177
f 177/177 171/171 169/169
f 171/171 170/170 169/169
f 177/177 169/169 182/182
f 177/177 172/172 176/176
f 176/176 172/172 173/173
f 177/177 182/182 172/172
f 174/174 177/177 176/176
f 174/174 176/176 175/175
f 178/178 177/177 174/174
f 183/183 186/186 185/185
f 183/183 184/184 186/186
f 188/188 187/187 184/184
f 189/189 187/187 188/188
f 188/188 184/184 183/183
f 192/192 193/193 212/212
f 214/214 212/212 191/191
f 214/214 192/192 212/212
f 191/191 212/212 190/190
f 189/189 190/190 187/187
f 191/191 190/190 189/189
f 197/197 195/195 196/196
f 200/200 196/196 194/194
f 200/200 197/197 196/196
f 198/198 213/213 199/199
f 213/213 200/200 194/194
f 215/215 200/200 213/213
f 198/198 215/215 213/213
f 192/192 198/198 199/199
f 192/192 199/199 193/193
f 217/217 216/216 204/204
f 217/217 211/211 216/216
f 204/204 216/216 203/203
f 193/193 211/211 217/217
f 186/186 202/202 185/185
f 201/201 205/205 186/186
f 186/186 205/205 202/202
f 204/204 203/203 201/201
f 201/201 203/203 205/205
f 196/196 806/806 206/206
f 207/207 196/196 206/206
f 209/209 207/207 208/208
f 207/207 206/206 208/208
f 211/211 209/209 210/210
f 209/209 208/208 210/210
f 199/199 209/209 211/211
f 193/193 199/199 211/211
f 230/230 219/219 227/227
f 230/230 221/221 219/219
f 235/235 220/220 219/219
f 221/221 235/235 219/219
f 231/231 219/219 218/218
f 227/227 219/219 231/231
f 219/219 234/234 218/218
f 219/219 220/220 234/234
f 229/229 223/223 225/225
f 226/226 223/223 229/229
f 223/223 233/233 225/225
f 223/223 224/224 233/233
f 228/228 223/223 226/226
f 228/228 222/222 223/223
f 232/232 224/224 223/223
f 222/222 232/232 223/223
f 236/236 261/261 240/240
f 237/237 236/236 240/240
f 262/262 261/261 236/236
f 240/240 261/261 238/238
f 240/240 238/238 239/239
f 238/238 261/261 263/263
f 241/241 261/261 245/245
f 241/241 245/245 242/242
f 263/263 261/261 241/241
f 261/261 243/243 245/245
f 245/245 243/243 244/244
f 261/261 264/264 243/243
f 261/261 250/250 246/246
f 250/250 247/247 246/246
f 261/261 246/246 264/264
f 261/261 248/248 250/250
f 248/248 249/249 250/250
f 265/265 248/248 261/261
f 255/255 251/251 261/261
f 255/255 252/252 251/251
f 261/261 251/251 265/265
f 253/253 255/255 261/261
f 253/253 254/254 255/255
f 266/266 253/253 261/261
f 260/260 256/256 261/261
f 257/257 256/256 260/260
f 256/256 266/266 261/261
f 260/260 261/261 258/258
f 259/259 260/260 258/258
f 258/258 261/261 262/262
f 273/273 268/268 270/270
f 271/271 268/268 273/273
f 268/268 275/275 270/270
f 268/268 269/269 275/275
f 272/272 268/268 271/271
f 272/272 267/267 268/268
f 274/274 269/269 268/268
f 267/267 274/274 268/268
f 281/281 277/277 280/280
f 281/281 279/279 277/277
f 284/284 278/278 277/277
f 279/279 284/284 277/277
f 282/282 277/277 276/276
f 280/280 277/277 282/282
f 277/277 283/283 276/276
f 277/277 278/278 283/283
f 285/285 310/310 289/289
f 286/286 285/285 289/289
f 311/311 310/310 285/285
f 289/289 310/310 287/287
f 289/289 287/287 288/288
f 287/287 310/310 312/312
f 290/290 310/310 294/294
f 290/290 294/294 291/291
f 312/312 310/310 290/290
f 310/310 292/292 294/294
f 294/294 292/292 293/293
f 310/310 313/313 292/292
f 310/310 299/299 295/295
f 299/299 296/296 295/295
f 310/310 295/295 313/313
f 310/310 297/297 299/299
f 297/297 298/298 299/299
f 314/314 297/297 310/310
f 304/304 300/300 310/310
f 304/304 301/301 300/300
f 310/310 300/300 314/314
f 302/302 304/304 310/310
f 302/302 303/303 304/304
f 315/315 302/302 310/310
f 309/309 305/305 310/310
f 306/306 305/305 309/309
f 305/305 315/315 310/310
f 309/309 310/310 307/307
f 308/308 309/309 307/307
f 307/307 310/310 311/311
f 322/322 317/317 319/319
f 320/320 317/317 322/322
f 317/317 324/324 319/319
f 317/317 318/318 324/324
f 321/321 317/317 320/320
f 321/321 316/316 317/317
f 323/323 318/318 317/317
f 316/316 323/323 317/317
f 330/330 326/326 329/329
f 330/330 328/328 326/326
f 333/333 327/327 326/326
f 328/328 333/333 326/326
f 331/331 326/326 325/325
f 329/329 326/326 331/331
f 326/326 332/332 325/325
f 326/326 327/327 332/332
f 334/334 359/359 338/338
f 335/335 334/334 338/338
f 360/360 359/359 334/334
f 338/338 359/359 336/336
f 338/338 336/336 337/337
f 336/336 359/359 361/361
f 339/339 359/359 343/343
f 339/339 343/343 340/340
f 361/361 359/359 339/339
f 359/359 341/341 343/343
f 343/343 341/341 342/342
f 359/359 362/362 341/341
f 359/359 348/348 344/344
f 348/348 345/345 344/344
f 359/359 344/344 362/362
f 359/359 346/346 348/348
f 346/346 347/347 348/348
f 363/363 346/346 359/359
f 353/353 349/349 359/359
f 353/353 350/350 349/349
f 359/359 349/349 363/363
f 351/351 353/353 359/359
f 351/351 352/352 353/353
f 364/364 351/351 359/359
f 358/358 354/354 359/359
f 355/355 354/354 358/358
f 354/354 364/364 359/359
f 358/358 359/359 356/356
f 357/357 358/358 356/356
f 356/356 359/359 360/360
f 404/404 405/405 365/365
f 365/365 403/403 404/404
f 410/410 417/417 365/365
f 406/406 410/410 365/365
f 405/405 406/406 365/365
f 401/401 402/402 404/404
f 401/401 404/404 403/403
f 407/407 430/430 429/429
f 429/429 384/384 383/383
f 400/400 366/366 407/407
f 366/366 430/430 407/407
f 430/430 384/384 429/429
f 367/367 400/400 402/402
f 367/367 402/402 401/401
f 367/367 366/366 400/400
f 400/400 407/407 369/369
f 369/369 407/407 368/368
f 368/368 378/378 379/379
f 369/369 368/368 379/379
f 405/405 370/370 406/406
f 371/371 370/370 405/405
f 377/377 409/409 375/375
f 378/378 374/374 373/373
f 378/378 376/376 374/374
f 376/376 375/375 374/374
f 376/376 377/377 375/375
f 375/375 409/409 425/425
f 379/379 378/378 373/373
f 379/379 373/373 372/372
f 372/372 373/373 370/370
f 372/372 370/370 371/371
f 428/428 380/380 381/381
f 383/383 427/427 428/428
f 384/384 427/427 383/383
f 427/427 380/380 428/428
f 381/381 380/380 415/415
f 410/410 422/422 417/417
f 414/414 416/416 422/422
f 411/411 414/414 422/422
f 408/408 422/422 410/410
f 417/417 422/422 382/382
f 422/422 416/416 382/382
f 421/421 389/389 420/420
f 389/389 390/390 420/420
f 386/386 431/431 387/387
f 385/385 431/431 386/386
f 387/387 431/431 388/388
f 386/386 387/387 390/390
f 389/389 386/386 390/390
f 807/807 423/423 419/419
f 419/419 423/423 424/424
f 423/423 391/391 424/424
f 424/424 391/391 392/392
f 424/424 392/392 393/393
f 414/414 393/393 416/416
f 393/393 392/392 416/416
f 396/396 394/394 397/397
f 397/397 808/808 418/418
f 432/432 808/808 397/397
f 398/398 432/432 397/397
f 415/415 395/395 413/413
f 395/395 399/399 413/413
f 394/394 398/398 397/397
f 395/395 394/394 396/396
f 395/395 396/396 399/399
f 808/808 807/807 418/418
f 418/418 807/807 419/419
f 418/418 419/419 411/411
f 412/412 418/418 411/411
f 381/381 415/415 426/426
f 415/415 413/413 426/426
f 426/426 411/411 408/408
f 413/413 412/412 426/426
f 408/408 411/411 422/422
f 409/409 381/381 426/426
f 409/409 426/426 425/425
f 425/425 426/426 408/408
f 412/412 411/411 426/426
f 433/433 473/473 472/472
f 472/472 471/471 433/433
f 433/433 485/485 478/478
f 433/433 478/478 474/474
f 433/433 474/474 473/473
f 472/472 470/470 469/469
f 471/471 472/472 469/469
f 497/497 498/498 475/475
f 451/451 452/452 497/497
f 475/475 434/434 468/468
f 475/475 498/498 434/434
f 497/497 452/452 498/498
f 470/470 468/468 435/435
f 469/469 470/470 435/435
f 468/468 434/434 435/435
f 437/437 475/475 468/468
f 436/436 475/475 437/437
f 447/447 446/446 436/436
f 447/447 436/436 437/437
f 474/474 438/438 473/473
f 473/473 438/438 439/439
f 443/443 477/477 445/445
f 441/441 442/442 446/446
f 442/442 444/444 446/446
f 442/442 443/443 444/444
f 443/443 445/445 444/444
f 493/493 477/477 443/443
f 441/441 446/446 447/447
f 440/440 441/441 447/447
f 438/438 441/441 440/440
f 439/439 438/438 440/440
f 449/449 448/448 496/496
f 496/496 495/495 451/451
f 451/451 495/495 452/452
f 496/496 448/448 495/495
f 483/483 448/448 449/449
f 485/485 490/490 478/478
f 490/490 484/484 482/482
f 490/490 482/482 479/479
f 478/478 490/490 476/476
f 450/450 490/490 485/485
f 450/450 484/484 490/490
f 488/488 457/457 489/489
f 488/488 458/458 457/457
f 455/455 499/499 454/454
f 454/454 499/499 453/453
f 456/456 499/499 455/455
f 458/458 455/455 454/454
f 458/458 454/454 457/457
f 487/487 491/491 809/809
f 492/492 491/491 487/487
f 492/492 459/459 491/491
f 460/460 459/459 492/492
f 461/461 460/460 492/492
f 484/484 461/461 482/482
f 484/484 460/460 461/461
f 465/465 462/462 464/464
f 486/486 810/810 465/465
f 465/465 810/810 500/500
f 465/465 500/500 466/466
f 481/481 463/463 483/483
f 481/481 467/467 463/463
f 465/465 466/466 462/462
f 464/464 462/462 463/463
f 467/467 464/464 463/463
f 486/486 809/809 810/810
f 487/487 809/809 486/486
f 479/479 487/487 486/486
f 479/479 486/486 480/480
f 494/494 483/483 449/449
f 494/494 481/481 483/483
f 476/476 479/479 494/494
f 494/494 480/480 481/481
f 490/490 479/479 476/476
f 494/494 449/449 477/477
f 493/493 494/494 477/477
f 476/476 494/494 493/493
f 494/494 479/479 480/480
f 504/504 502/502 631/631
f 503/503 510/510 631/631
f 514/514 512/512 632/632
f 513/513 520/520 632/632
f 524/524 522/522 633/633
f 523/523 530/530 633/633
f 534/534 532/532 634/634
f 533/533 536/536 634/634
f 540/540 538/538 635/635
f 539/539 546/546 635/635
f 550/550 548/548 636/636
f 549/549 552/552 636/636
f 556/556 554/554 637/637
f 555/555 562/562 637/637
f 566/566 564/564 638/638
f 565/565 572/572 638/638
f 576/576 574/574 639/639
f 575/575 606/606 639/639
f 580/580 578/578 640/640
f 579/579 612/612 640/640
f 584/584 582/582 641/641
f 583/583 610/610 641/641
f 588/588 586/586 642/642
f 587/587 607/607 642/642
f 619/619 629/629 620/620
f 628/628 629/629 619/619
f 620/620 629/629 618/618
f 627/627 629/629 628/628
f 626/626 627/627 628/628
f 618/618 625/625 623/623
f 621/621 623/623 622/622
f 622/622 623/623 630/630
f 623/623 627/627 630/630
f 617/617 618/618 621/621
f 620/620 618/618 617/617
f 630/630 627/627 626/626
f 623/623 625/625 627/627
f 627/627 625/625 629/629
f 629/629 625/625 618/618
f 621/621 618/618 623/623
f 616/616 620/620 617/617
f 615/615 619/619 620/620
f 628/628 619/619 615/615
f 615/615 620/620 616/616
f 624/624 628/628 615/615
f 626/626 628/628 624/624
f 614/614 616/616 613/613
f 613/613 621/621 622/622
f 622/622 630/630 613/613
f 616/616 621/621 613/613
f 616/616 617/617 621/621
f 613/613 630/630 624/624
f 630/630 626/626 624/624
f 613/613 624/624 614/614
f 624/624 615/615 614/614
f 614/614 615/615 616/616
f 504/504 631/631 509/509
f 509/509 631/631 501/501
f 501/501 631/631 510/510
f 503/503 631/631 502/502
f 514/514 632/632 519/519
f 519/519 632/632 511/511
f 511/511 632/632 520/520
f 513/513 632/632 512/512
f 524/524 633/633 529/529
f 529/529 633/633 521/521
f 521/521 633/633 530/530
f 523/523 633/633 522/522
f 534/534 634/634 535/535
f 535/535 634/634 531/531
f 531/531 634/634 536/536
f 533/533 634/634 532/532
f 540/540 635/635 545/545
f 545/545 635/635 537/537
f 537/537 635/635 546/546
f 539/539 635/635 538/538
f 550/550 636/636 551/551
f 551/551 636/636 547/547
f 547/547 636/636 552/552
f 549/549 636/636 548/548
f 556/556 637/637 561/561
f 561/561 637/637 553/553
f 553/553 637/637 562/562
f 555/555 637/637 554/554
f 566/566 638/638 571/571
f 571/571 638/638 563/563
f 563/563 638/638 572/572
f 565/565 638/638 564/564
f 576/576 639/639 605/605
f 605/605 639/639 573/573
f 573/573 639/639 606/606
f 575/575 639/639 574/574
f 580/580 640/640 611/611
f 611/611 640/640 577/577
f 577/577 640/640 612/612
f 579/579 640/640 578/578
f 584/584 641/641 609/609
f 609/609 641/641 581/581
f 581/581 641/641 610/610
f 583/583 641/641 582/582
f 588/588 642/642 608/608
f 608/608 642/642 585/585
f 585/585 642/642 607/607
f 587/587 642/642 586/586
f 506/506 643/643 508/508
f 508/508 643/643 505/505
f 505/505 643/643 507/507
f 507/507 643/643 506/506
f 516/516 644/644 518/518
f 518/518 644/644 515/515
f 515/515 644/644 517/517
f 517/517 644/644 516/516
f 526/526 645/645 528/528
f 528/528 645/645 525/525
f 525/525 645/645 527/527
f 527/527 645/645 526/526
f 542/542 646/646 544/544
f 544/544 646/646 541/541
f 541/541 646/646 543/543
f 543/543 646/646 542/542
f 558/558 647/647 560/560
f 560/560 647/647 557/557
f 557/557 647/647 559/559
f 559/559 647/647 558/558
f 568/568 648/648 570/570
f 570/570 648/648 567/567
f 567/567 648/648 569/569
f 569/569 648/648 568/568
f 590/590 649/649 592/592
f 592/592 649/649 589/589
f 589/589 649/649 591/591
f 591/591 649/649 590/590
f 594/594 650/650 596/596
f 596/596 650/650 593/593
f 593/593 650/650 595/595
f 595/595 650/650 594/594
f 598/598 651/651 600/600
f 600/600 651/651 597/597
f 597/597 651/651 599/599
f 599/599 651/651 598/598
f 602/602 652/652 604/604
f 604/604 652/652 601/601
f 601/601 652/652 603/603
f 603/603 652/652 602/602
f 783/783 654/654 656/656
f 783/783 662/662 655/655
f 784/784 664/664 666/666
f 784/784 672/672 665/665
f 785/785 674/674 676/676
f 785/785 682/682 675/675
f 786/786 684/684 686/686
f 786/786 688/688 685/685
f 787/787 690/690 692/692
f 787/787 698/698 691/691
f 788/788 700/700 702/702
f 788/788 704/704 701/701
f 789/789 706/706 708/708
f 789/789 714/714 707/707
f 790/790 716/716 718/718
f 790/790 724/724 717/717
f 791/791 726/726 728/728
f 791/791 758/758 727/727
f 792/792 730/730 732/732
f 792/792 764/764 731/731
f 793/793 734/734 736/736
f 793/793 762/762 735/735
f 794/794 738/738 740/740
f 794/794 759/759 739/739
f 772/772 781/781 771/771
f 771/771 781/781 780/780
f 770/770 781/781 772/772
f 780/780 781/781 779/779
f 780/780 779/779 778/778
f 775/775 777/777 770/770
f 774/774 775/775 773/773
f 782/782 775/775 774/774
f 782/782 779/779 775/775
f 773/773 770/770 769/769
f 769/769 770/770 772/772
f 778/778 779/779 782/782
f 779/779 777/777 775/775
f 781/781 777/777 779/779
f 770/770 777/777 781/781
f 775/775 770/770 773/773
f 769/769 772/772 768/768
f 772/772 771/771 767/767
f 767/767 771/771 780/780
f 768/768 772/772 767/767
f 767/767 780/780 776/776
f 776/776 780/780 778/778
f 765/765 768/768 766/766
f 774/774 773/773 765/765
f 765/765 782/782 774/774
f 765/765 773/773 768/768
f 773/773 769/769 768/768
f 776/776 782/782 765/765
f 776/776 778/778 782/782
f 766/766 776/776 765/765
f 766/766 767/767 776/776
f 768/768 767/767 766/766
f 661/661 783/783 656/656
f 653/653 783/783 661/661
f 662/662 783/783 653/653
f 654/654 783/783 655/655
f 671/671 784/784 666/666
f 663/663 784/784 671/671
f 672/672 784/784 663/663
f 664/664 784/784 665/665
f 681/681 785/785 676/676
f 673/673 785/785 681/681
f 682/682 785/785 673/673
f 674/674 785/785 675/675
f 687/687 786/786 686/686
f 683/683 786/786 687/687
f 688/688 786/786 683/683
f 684/684 786/786 685/685
f 697/697 787/787 692/692
f 689/689 787/787 697/697
f 698/698 787/787 689/689
f 690/690 787/787 691/691
f 703/703 788/788 702/702
f 699/699 788/788 703/703
f 704/704 788/788 699/699
f 700/700 788/788 701/701
f 713/713 789/789 708/708
f 705/705 789/789 713/713
f 714/714 789/789 705/705
f 706/706 789/789 707/707
f 723/723 790/790 718/718
f 715/715 790/790 723/723
f 724/724 790/790 715/715
f 716/716 790/790 717/717
f 757/757 791/791 728/728
f 725/725 791/791 757/757
f 758/758 791/791 725/725
f 726/726 791/791 727/727
f 763/763 792/792 732/732
f 729/729 792/792 763/763
f 764/764 792/792 729/729
f 730/730 792/792 731/731
f 761/761 793/793 736/736
f 733/733 793/793 761/761
f 762/762 793/793 733/733
f 734/734 793/793 735/735
f 760/760 794/794 740/740
f 737/737 794/794 760/760
f 759/759 794/794 737/737
f 738/738 794/794 739/739
f 660/660 795/795 658/658
f 657/657 795/795 660/660
f 659/659 795/795 657/657
f 658/658 795/795 659/659
f 670/670 796/796 668/668
f 667/667 796/796 670/670
f 669/669 796/796 667/667
f 668/668 796/796 669/669
f 680/680 797/797 678/678
f 677/677 797/797 680/680
f 679/679 797/797 677/677
f 678/678 797/797 679/679
f 696/696 798/798 694/694
f 693/693 798/798 696/696
f 695/695 798/798 693/693
f 694/694 798/798 695/695
f 712/712 799/799 710/710
f 709/709 799/799 712/712
f 711/711 799/799 709/709
f 710/710 799/799 711/711
f 722/722 800/800 720/720
f 719/719 800/800 722/722
f 721/721 800/800 719/719
f 720/720 800/800 721/721
f 744/744 801/801 742/742
f 741/741 801/801 744/744
f 743/743 801/801 741/741
f 742/742 801/801 743/743
f 748/748 802/802 746/746
f 745/745 802/802 748/748
f 747/747 802/802 745/745
f 746/746 802/802 747/747
f 752/752 803/803 750/750
f 749/749 803/803 752/752
f 751/751 803/803 749/749
f 750/750 803/803 751/751
f 756/756 804/804 754/754
f 753/753 804/804 756/756
f 755/755 804/804 753/753
f 754/754 804/804 755/755
