mtllib options524.mtl
o options524
v -0.10764 -0.16740 2.43036 0.898 0.000 0.000
v -0.01800 -0.27000 2.39382 0.929 0.000 0.000
v -0.01800 -0.22068 2.50920 0.890 0.000 0.000
v -0.15984 -0.13212 2.48724 0.851 0.000 0.000
v -0.15624 -0.13374 2.44152 0.871 0.000 0.000
v -0.20394 0.00000 2.48634 0.804 0.000 0.000
v -0.19890 0.00000 2.44008 0.816 0.000 0.000
v -0.15516 -0.13158 2.53692 0.831 0.000 0.000
v -0.19512 0.00000 2.54394 0.796 0.000 0.000
v -0.01800 0.23292 2.47950 0.910 0.000 0.000
v -0.01800 0.23364 2.43900 0.929 0.000 0.000
v -0.15372 0.13734 2.42982 0.871 0.000 0.000
v -0.16794 0.14148 2.46924 0.851 0.000 0.000
v -0.01800 0.22608 2.52990 0.890 0.000 0.000
v -0.15264 0.13518 2.53404 0.831 0.000 0.000
v -0.20394 0.00000 2.48634 0.804 0.000 0.000
v -0.19512 0.00000 2.54394 0.796 0.000 0.000
v -0.19890 0.00000 2.44008 0.816 0.000 0.000
v -0.01800 -0.27504 2.45718 0.890 0.000 0.000
v -0.01800 0.00000 2.46240 0.890 0.000 0.000
v 0.13374 -0.24588 2.46996 0.871 0.000 0.000
v 0.23040 -0.14112 2.49516 0.816 0.000 0.000
v -0.07920 -0.18630 2.45214 0.843 0.000 0.000
v -0.01800 0.00000 2.46240 0.890 0.000 0.000
v 0.27018 0.00000 2.51928 0.796 0.000 0.000
v 0.22320 0.12384 2.53296 0.816 0.000 0.000
v -0.01800 -0.25884 2.48598 0.890 0.000 0.000
v -0.01800 0.00000 2.46240 0.929 0.000 0.000
v 0.12114 -0.23328 2.51676 0.871 0.000 0.000
v 0.21240 -0.13572 2.54196 0.816 0.000 0.000
v 0.25398 0.00000 2.55168 0.796 0.000 0.000
v 0.22320 0.12384 2.53296 0.816 0.000 0.000
v 0.09882 0.19836 2.52720 0.871 0.000 0.000
v -0.01800 0.22608 2.52990 0.890 0.000 0.000
v -0.07920 -0.18630 2.45214 0.843 0.000 0.000
v -0.15264 0.13518 2.53404 0.831 0.000 0.000
v -0.19512 0.00000 2.54394 0.796 0.000 0.000
v -0.15516 -0.13158 2.53692 0.831 0.000 0.000
v -0.01800 -0.22068 2.50920 0.890 0.000 0.000
v 0.11664 -0.21708 2.44890 0.941 0.000 0.000
v -0.01800 -0.27720 2.42334 0.890 0.000 0.000
v 0.12960 -0.23796 2.43432 0.890 0.000 0.000
v 0.12114 -0.23328 2.51676 0.871 0.000 0.000
v -0.01800 -0.25884 2.48598 0.890 0.000 0.000
v -0.01800 -0.27000 2.39382 0.890 0.000 0.000
v 0.11970 -0.22752 2.38680 0.910 0.000 0.000
v 0.22248 -0.13770 2.43792 0.843 0.000 0.000
v 0.21024 -0.14022 2.38014 0.871 0.000 0.000
v 0.21240 -0.13572 2.54196 0.816 0.000 0.000
v 0.27396 0.00000 2.46006 0.816 0.000 0.000
v 0.25812 0.00000 2.40534 0.831 0.000 0.000
v 0.25398 0.00000 2.55168 0.796 0.000 0.000
v -0.01800 -0.27504 2.45718 0.890 0.000 0.000
v 0.23040 -0.14112 2.49516 0.816 0.000 0.000
v 0.13374 -0.24588 2.46996 0.871 0.000 0.000
v 0.27018 0.00000 2.51928 0.796 0.000 0.000
v 0.25398 0.00000 2.55168 0.796 0.000 0.000
v 0.21888 0.12816 2.47104 0.843 0.000 0.000
v 0.22320 0.12384 2.53296 0.816 0.000 0.000
v 0.27396 0.00000 2.46006 0.816 0.000 0.000
v 0.21564 0.12744 2.43270 0.871 0.000 0.000
v 0.25812 0.00000 2.40534 0.831 0.000 0.000
v 0.09900 0.20520 2.47842 0.890 0.000 0.000
v 0.09882 0.19836 2.52720 0.871 0.000 0.000
v 0.09522 0.20898 2.44116 0.910 0.000 0.000
v -0.01800 0.23364 2.43900 0.929 0.000 0.000
v -0.01800 0.23292 2.47950 0.910 0.000 0.000
v -0.01800 0.22608 2.52990 0.890 0.000 0.000
v 0.27018 0.00000 2.51928 0.796 0.000 0.000
v 0.16056 -0.22140 2.08152 0.851 0.000 0.000
v 0.19836 -0.16830 2.07558 0.851 0.000 0.000
v 0.17802 -0.15804 2.19798 0.871 0.000 0.000
v 0.14724 -0.20574 2.20392 0.871 0.000 0.000
v 0.19548 -0.11016 2.19222 0.871 0.000 0.000
v 0.19008 -0.10818 2.06982 0.851 0.000 0.000
v 0.20322 -0.17658 1.99278 0.831 0.000 0.000
v 0.16956 -0.22968 1.99872 0.831 0.000 0.000
v 0.19368 -0.11286 1.98702 0.831 0.000 0.000
v 0.13464 -0.19278 2.36088 0.945 0.000 0.000
v 0.17694 -0.11412 2.33892 0.910 0.000 0.000
v 0.20736 -0.18018 1.92618 0.839 0.000 0.000
v 0.20844 -0.15786 1.90188 0.835 0.000 0.000
v 0.21078 -0.16632 1.88730 0.835 0.000 0.000
v 0.21402 -0.18090 1.87074 0.831 0.000 0.000
v 0.21420 -0.18936 1.86678 0.831 0.000 0.000
v 0.20934 -0.15588 1.88694 0.835 0.000 0.000
v 0.20880 -0.14148 1.87164 0.831 0.000 0.000
v 0.21060 -0.15480 1.85976 0.831 0.000 0.000
v 0.21060 -0.15228 1.84896 0.831 0.000 0.000
v 0.20484 -0.13410 1.88658 0.835 0.000 0.000
v 0.20358 -0.12528 1.86246 0.831 0.000 0.000
v 0.20916 -0.14022 1.86408 0.831 0.000 0.000
v 0.20142 -0.12600 1.89306 0.835 0.000 0.000
v 0.20520 -0.13986 1.89810 0.835 0.000 0.000
v 0.20268 -0.13050 1.91466 0.839 0.000 0.000
v 0.20124 -0.11826 1.85040 0.831 0.000 0.000
v 0.18414 -0.25866 1.84068 0.831 0.000 0.000
v 0.19368 -0.22986 1.86858 0.831 0.000 0.000
v 0.20862 -0.20772 1.85472 0.831 0.000 0.000
v 0.20574 -0.20466 1.88082 0.831 0.000 0.000
v 0.20916 -0.20142 1.86966 0.831 0.000 0.000
v -0.20142 -0.17208 2.25126 0.851 0.000 0.000
v -0.25308 -0.10152 1.98342 0.871 0.000 0.000
v -0.26334 -0.16848 1.98918 0.871 0.000 0.000
v -0.20628 -0.12222 2.26314 0.851 0.000 0.000
v -0.19476 -0.22554 2.23938 0.851 0.000 0.000
v -0.23436 -0.23544 1.99512 0.871 0.000 0.000
v -0.14040 -0.15300 2.42208 0.796 0.000 0.000
v -0.13392 -0.20376 2.39670 0.816 0.000 0.000
v -0.12312 -0.24480 2.36592 0.831 0.000 0.000
v -0.07956 -0.23022 2.41218 0.835 0.000 0.000
v -0.01800 -0.27000 2.39382 0.890 0.000 0.000
v -0.01800 -0.27720 2.42334 0.890 0.000 0.000
v -0.07920 -0.18630 2.45214 0.843 0.000 0.000
v -0.01800 -0.25884 2.48598 0.890 0.000 0.000
v -0.28188 -0.10188 1.84662 0.851 0.000 0.000
v -0.29340 -0.17964 1.85238 0.851 0.000 0.000
v -0.26316 -0.25758 1.86012 0.851 0.000 0.000
v -0.30636 -0.18594 1.79658 0.839 0.000 0.000
v -0.30960 -0.15732 1.77228 0.835 0.000 0.000
v -0.31302 -0.16830 1.75770 0.835 0.000 0.000
v -0.31932 -0.18684 1.74114 0.831 0.000 0.000
v -0.32130 -0.19782 1.73718 0.831 0.000 0.000
v -0.31302 -0.15480 1.75734 0.835 0.000 0.000
v -0.31230 -0.13626 1.74204 0.831 0.000 0.000
v -0.31680 -0.15336 1.73016 0.831 0.000 0.000
v -0.31770 -0.15012 1.71936 0.831 0.000 0.000
v -0.30798 -0.12780 1.75698 0.835 0.000 0.000
v -0.30816 -0.11538 1.73286 0.831 0.000 0.000
v -0.31266 -0.13482 1.73448 0.831 0.000 0.000
v -0.30312 -0.11628 1.76346 0.835 0.000 0.000
v -0.30690 -0.13518 1.76850 0.835 0.000 0.000
v -0.29988 -0.12222 1.78506 0.839 0.000 0.000
v -0.30474 -0.10656 1.72080 0.831 0.000 0.000
v -0.29898 -0.25002 1.73898 0.835 0.000 0.000
v -0.28764 -0.29304 1.71108 0.831 0.000 0.000
v -0.31302 -0.22140 1.72512 0.831 0.000 0.000
v -0.30834 -0.21744 1.75122 0.835 0.000 0.000
v -0.31266 -0.21348 1.74006 0.835 0.000 0.000
v 0.22014 -0.15894 2.22300 0.835 0.000 0.000
v 0.24192 -0.16830 2.15226 0.835 0.000 0.000
v 0.23472 0.00000 2.25918 0.835 0.000 0.000
v 0.25092 0.00360 2.18736 0.831 0.000 0.000
v 0.12978 -0.29718 2.23128 0.906 0.000 0.000
v 0.12438 -0.26478 2.28474 0.906 0.000 0.000
v -0.01800 -0.36054 2.37006 0.890 0.000 0.000
v 0.23472 0.00000 2.25918 0.835 0.000 0.000
v 0.25092 0.00360 2.18736 0.831 0.000 0.000
v 0.19440 0.14472 2.25018 0.863 0.000 0.000
v 0.19314 -0.11412 2.33892 0.929 0.000 0.000
v 0.21672 -0.12852 2.24550 0.871 0.000 0.000
v 0.22572 0.00000 2.35242 0.831 0.000 0.000
v 0.22932 0.00000 2.24532 0.831 0.000 0.000
v 0.12438 -0.26478 2.28474 0.906 0.000 0.000
v 0.12024 -0.22878 2.33784 0.906 0.000 0.000
v -0.01800 -0.36054 2.37006 0.890 0.000 0.000
v -0.01800 -0.28314 2.40768 0.890 0.000 0.000
v -0.18864 0.00000 2.38428 0.816 0.000 0.000
v -0.17262 -0.14778 2.31786 0.910 0.000 0.000
v -0.14742 -0.12618 2.40228 0.945 0.000 0.000
v -0.20898 0.00000 2.29644 0.816 0.000 0.000
v -0.11520 -0.18900 2.39796 0.918 0.000 0.000
v -0.11520 -0.23166 2.35494 0.918 0.000 0.000
v -0.01800 -0.28314 2.40768 0.929 0.000 0.000
v 0.19440 0.14472 2.25018 0.863 0.000 0.000
v 0.13608 0.22878 2.26764 0.906 0.000 0.000
v 0.19332 0.12672 2.32524 0.863 0.000 0.000
v 0.13464 0.21078 2.34036 0.906 0.000 0.000
v 0.23472 0.00000 2.35242 0.831 0.000 0.000
v 0.23472 0.00000 2.25918 0.831 0.000 0.000
v -0.01800 0.35280 2.37690 0.925 0.000 0.000
v -0.01800 0.25740 2.41758 0.878 0.000 0.000
v -0.17478 0.12618 2.37132 0.839 0.000 0.000
v -0.19602 0.12708 2.28276 0.839 0.000 0.000
v -0.18864 0.00000 2.38428 0.816 0.000 0.000
v -0.20898 0.00000 2.29644 0.816 0.000 0.000
v -0.12060 0.20988 2.38410 0.867 0.000 0.000
v -0.12420 0.29304 2.31282 0.867 0.000 0.000
v -0.01800 0.25740 2.41758 0.878 0.000 0.000
v -0.01800 0.35280 2.37690 0.925 0.000 0.000
v 0.20574 -0.11412 2.35278 0.929 0.000 0.000
v 0.21672 -0.12312 2.28438 0.871 0.000 0.000
v 0.23472 0.00000 2.35242 0.831 0.000 0.000
v 0.23472 0.00000 2.25918 0.831 0.000 0.000
v 0.12708 -0.24678 2.31876 0.906 0.000 0.000
v 0.11610 -0.22572 2.36070 0.941 0.000 0.000
v -0.01800 -0.28314 2.40768 0.929 0.000 0.000
v -0.01800 -0.27000 2.39382 0.890 0.000 0.000
v -0.15318 0.12618 2.37672 0.839 0.000 0.000
v -0.17442 0.12708 2.27070 0.839 0.000 0.000
v -0.18504 0.00000 2.35062 0.816 0.000 0.000
v -0.19818 0.00000 2.26314 0.816 0.000 0.000
v -0.12240 0.23238 2.31300 0.867 0.000 0.000
v -0.12240 0.17010 2.38626 0.867 0.000 0.000
v -0.01800 0.26100 2.40210 0.894 0.000 0.000
v -0.01800 0.31860 2.37780 0.929 0.000 0.000
v 0.18252 0.12672 2.33460 0.863 0.000 0.000
v 0.18360 0.12672 2.25450 0.871 0.000 0.000
v 0.12528 0.21798 2.26332 0.906 0.000 0.000
v 0.11124 0.19818 2.36196 0.906 0.000 0.000
v 0.22572 0.00000 2.35242 0.831 0.000 0.000
v 0.22932 0.00000 2.24532 0.831 0.000 0.000
v -0.01800 0.31860 2.37780 0.929 0.000 0.000
v -0.01800 0.26100 2.40210 0.894 0.000 0.000
v -0.18504 0.00000 2.35062 0.816 0.000 0.000
v -0.18342 -0.16758 2.25540 0.910 0.000 0.000
v -0.16722 -0.15138 2.32200 0.945 0.000 0.000
v -0.19818 0.00000 2.26314 0.816 0.000 0.000
v -0.11520 -0.24768 2.34792 0.831 0.000 0.000
v -0.11880 -0.32526 2.29032 0.831 0.000 0.000
v -0.01800 -0.28314 2.40768 0.890 0.000 0.000
v -0.01800 -0.36054 2.37006 0.890 0.000 0.000
v -0.01800 0.22320 2.45754 1.000 0.000 0.000
v -0.13302 0.13248 2.39454 0.910 0.000 0.000
v -0.13338 0.13158 2.46150 0.945 0.000 0.000
v -0.01800 0.23040 2.40930 0.922 0.000 0.000
v -0.19044 0.00000 2.46762 0.910 0.000 0.000
v -0.19098 0.00000 2.39994 0.871 0.000 0.000
v -0.14958 -0.12078 2.46402 0.945 0.000 0.000
v -0.15102 -0.12618 2.40228 0.910 0.000 0.000
v -0.19044 0.00000 2.46762 0.910 0.000 0.000
v -0.10764 -0.16740 2.43036 0.898 0.000 0.000
v -0.01800 -0.27000 2.39382 0.929 0.000 0.000
v -0.19098 0.00000 2.39994 0.871 0.000 0.000
v 0.21114 -0.12852 2.41920 0.929 0.000 0.000
v 0.20412 -0.13932 2.32956 0.871 0.000 0.000
v 0.25506 0.00000 2.41002 0.910 0.000 0.000
v 0.24732 0.00000 2.35098 0.831 0.000 0.000
v 0.11610 -0.22572 2.36070 0.910 0.000 0.000
v 0.11664 -0.21708 2.44890 0.941 0.000 0.000
v -0.01800 -0.27000 2.39382 0.929 0.000 0.000
v -0.01800 -0.22068 2.50920 0.890 0.000 0.000
v -0.01800 0.23040 2.40930 0.922 0.000 0.000
v -0.13302 0.13248 2.39454 0.910 0.000 0.000
v -0.01800 0.00000 2.40786 0.890 0.000 0.000
v -0.19098 0.00000 2.39994 0.871 0.000 0.000
v -0.15102 -0.12618 2.40228 0.910 0.000 0.000
v -0.01800 -0.27000 2.39382 0.929 0.000 0.000
v 0.11610 -0.22572 2.36070 0.910 0.000 0.000
v 0.20412 -0.13932 2.32956 0.871 0.000 0.000
v 0.24732 0.00000 2.35098 0.831 0.000 0.000
v 0.20880 0.12672 2.37654 0.871 0.000 0.000
v 0.09144 0.20178 2.39958 0.906 0.000 0.000
v 0.21564 0.12744 2.43270 0.945 0.000 0.000
v 0.20880 0.12672 2.37654 0.871 0.000 0.000
v 0.09144 0.20178 2.39958 0.906 0.000 0.000
v 0.09684 0.19998 2.45160 0.922 0.000 0.000
v 0.25506 0.00000 2.41002 0.910 0.000 0.000
v 0.24732 0.00000 2.35098 0.831 0.000 0.000
v -0.01800 0.23040 2.40930 0.922 0.000 0.000
v -0.01800 0.22320 2.45754 1.000 0.000 0.000
v -0.07920 -0.20610 2.44674 0.843 0.000 0.000
v -0.01800 -0.27504 2.45718 0.890 0.000 0.000
v -0.01800 0.22608 2.52990 0.000 1.000 0.000
v -0.16794 0.14148 2.46924 0.000 1.000 0.000
v -0.15264 0.13518 2.53404 0.000 1.000 0.000
v -0.20394 0.00000 2.48634 0.000 1.000 0.000
v -0.19512 0.00000 2.54394 0.000 1.000 0.000
v -0.15372 0.13734 2.42982 0.000 1.000 0.000
v -0.19890 0.00000 2.44008 0.000 1.000 0.000
v -0.18864 0.00000 2.38428 0.000 1.000 0.000
v -0.17262 -0.14778 2.31786 0.000 1.000 0.000
v -0.14742 -0.12618 2.40228 0.000 1.000 0.000
v -0.20898 0.00000 2.29644 0.000 1.000 0.000
v -0.11520 -0.18900 2.39796 0.000 1.000 0.000
v -0.11520 -0.23166 2.35494 0.000 1.000 0.000
v -0.01800 -0.27000 2.39382 0.000 1.000 0.000
v -0.01800 -0.28314 2.40768 0.000 1.000 0.000
v -0.15318 0.12618 2.37672 0.000 1.000 0.000
v -0.17442 0.12708 2.27070 0.000 1.000 0.000
v -0.18504 0.00000 2.35062 0.000 1.000 0.000
v -0.19818 0.00000 2.26314 0.000 1.000 0.000
v -0.12240 0.23238 2.31300 0.000 1.000 0.000
v -0.12240 0.17010 2.38626 0.000 1.000 0.000
v -0.01800 0.26100 2.40210 0.000 1.000 0.000
v -0.01800 0.31860 2.37780 0.000 1.000 0.000
v -0.01800 -0.27000 2.39382 0.000 1.000 0.000
v 0.11970 -0.22752 2.38680 0.000 1.000 0.000
v 0.12960 -0.23796 2.43432 0.000 1.000 0.000
v 0.22248 -0.13770 2.43792 0.000 1.000 0.000
v 0.21024 -0.14022 2.38014 0.000 1.000 0.000
v 0.27396 0.00000 2.46006 0.000 1.000 0.000
v 0.25398 0.00000 2.55168 0.000 1.000 0.000
v 0.21240 -0.13572 2.54196 0.000 1.000 0.000
v 0.27018 0.00000 2.51928 0.000 1.000 0.000
v 0.23040 -0.14112 2.49516 0.000 1.000 0.000
v 0.19836 -0.16830 2.07558 0.000 1.000 0.000
v 0.19008 -0.10818 2.06982 0.000 1.000 0.000
v 0.19548 -0.11016 2.19222 0.000 1.000 0.000
v 0.19368 -0.11286 1.98702 0.000 1.000 0.000
v 0.20322 -0.17658 1.99278 0.000 1.000 0.000
v 0.16056 -0.22140 2.08152 0.000 1.000 0.000
v 0.16956 -0.22968 1.99872 0.000 1.000 0.000
v 0.20736 -0.18018 1.92618 0.000 1.000 0.000
v 0.20844 -0.15786 1.90188 0.000 1.000 0.000
v 0.21078 -0.16632 1.88730 0.000 1.000 0.000
v 0.21402 -0.18090 1.87074 0.000 1.000 0.000
v 0.21420 -0.18936 1.86678 0.000 1.000 0.000
v 0.20934 -0.15588 1.88694 0.000 1.000 0.000
v 0.20880 -0.14148 1.87164 0.000 1.000 0.000
v 0.21060 -0.15480 1.85976 0.000 1.000 0.000
v 0.21060 -0.15228 1.84896 0.000 1.000 0.000
v 0.20484 -0.13410 1.88658 0.000 1.000 0.000
v 0.20358 -0.12528 1.86246 0.000 1.000 0.000
v 0.20916 -0.14022 1.86408 0.000 1.000 0.000
v 0.20142 -0.12600 1.89306 0.000 1.000 0.000
v 0.20520 -0.13986 1.89810 0.000 1.000 0.000
v 0.20268 -0.13050 1.91466 0.000 1.000 0.000
v 0.20124 -0.11826 1.85040 0.000 1.000 0.000
v 0.16056 -0.22140 2.08152 0.000 1.000 0.000
v 0.19836 -0.16830 2.07558 0.000 1.000 0.000
v 0.17802 -0.15804 2.19798 0.000 1.000 0.000
v 0.14724 -0.20574 2.20392 0.000 1.000 0.000
v 0.19548 -0.11016 2.19222 0.000 1.000 0.000
v 0.13464 -0.19278 2.36088 0.000 1.000 0.000
v 0.17694 -0.11412 2.33892 0.000 1.000 0.000
v 0.18414 -0.25866 1.84068 0.000 1.000 0.000
v 0.19368 -0.22986 1.86858 0.000 1.000 0.000
v 0.20862 -0.20772 1.85472 0.000 1.000 0.000
v 0.20574 -0.20466 1.88082 0.000 1.000 0.000
v 0.20916 -0.20142 1.86966 0.000 1.000 0.000
v -0.20628 -0.12222 2.26314 0.000 1.000 0.000
v -0.20142 -0.17208 2.25126 0.000 1.000 0.000
v -0.14040 -0.15300 2.42208 0.000 1.000 0.000
v -0.25308 -0.10152 1.98342 0.000 1.000 0.000
v -0.26334 -0.16848 1.98918 0.000 1.000 0.000
v -0.28188 -0.10188 1.84662 0.000 1.000 0.000
v -0.29340 -0.17964 1.85238 0.000 1.000 0.000
v -0.23436 -0.23544 1.99512 0.000 1.000 0.000
v -0.26316 -0.25758 1.86012 0.000 1.000 0.000
v -0.19476 -0.22554 2.23938 0.000 1.000 0.000
v 0.19314 -0.11412 2.33892 0.000 1.000 0.000
v 0.21672 -0.12852 2.24550 0.000 1.000 0.000
v 0.22572 0.00000 2.35242 0.000 1.000 0.000
v 0.22932 0.00000 2.24532 0.000 1.000 0.000
v 0.12438 -0.26478 2.28474 0.000 1.000 0.000
v 0.12024 -0.22878 2.33784 0.000 1.000 0.000
v 0.19440 0.14472 2.25018 0.000 1.000 0.000
v 0.13608 0.22878 2.26764 0.000 1.000 0.000
v 0.19332 0.12672 2.32524 0.000 1.000 0.000
v 0.13464 0.21078 2.34036 0.000 1.000 0.000
v 0.23472 0.00000 2.35242 0.000 1.000 0.000
v 0.23472 0.00000 2.25918 0.000 1.000 0.000
v -0.01800 0.35280 2.37690 0.000 1.000 0.000
v -0.19044 0.00000 2.46762 0.000 1.000 0.000
v -0.15102 -0.12618 2.40228 0.000 1.000 0.000
v -0.14958 -0.12078 2.46402 0.000 1.000 0.000
v -0.19098 0.00000 2.39994 0.000 1.000 0.000
v -0.10764 -0.16740 2.43036 0.000 1.000 0.000
v -0.01800 -0.27000 2.39382 0.000 1.000 0.000
v 0.21564 0.12744 2.43270 0.000 1.000 0.000
v 0.20880 0.12672 2.37654 0.000 1.000 0.000
v 0.09144 0.20178 2.39958 0.000 1.000 0.000
v 0.25506 0.00000 2.41002 0.000 1.000 0.000
v 0.24732 0.00000 2.35098 0.000 1.000 0.000
vt 0.65706 0.67887
vt 0.99452 0.67887
vt 0.99452 0.99258
vt 0.44759 0.80865
vt 0.45861 0.67887
vt 0.01057 0.80865
vt 0.01057 0.67887
vt 0.42978 0.99258
vt 0.01057 0.99258
vt 0.99493 0.51655
vt 0.99493 0.66434
vt 0.43744 0.66434
vt 0.44947 0.51655
vt 0.99493 0.35123
vt 0.46966 0.35123
vt 0.01016 0.51655
vt 0.01016 0.35123
vt 0.01016 0.66434
vt 0.01055 0.33640
vt 0.29075 0.33633
vt 0.01055 0.33640
vt 0.01055 0.33640
vt 0.01055 0.33640
vt 0.29075 0.33633
vt 0.01055 0.33640
vt 0.01055 0.33640
vt 0.01293 0.33384
vt 0.28516 0.33384
vt 0.01293 0.33384
vt 0.01293 0.33384
vt 0.01293 0.33384
vt 0.01293 0.33384
vt 0.01293 0.33384
vt 0.01293 0.33384
vt 0.01293 0.33384
vt 0.01293 0.33384
vt 0.02793 0.33384
vt 0.04493 0.33384
vt 0.05013 0.33384
vt 0.03783 0.33384
vt 0.99493 0.49863
vt 0.65925 0.49863
vt 0.63449 0.66234
vt 0.99493 0.66434
vt 0.99493 0.35123
vt 0.68563 0.35123
vt 0.36905 0.49863
vt 0.41783 0.35123
vt 0.34983 0.66234
vt 0.01016 0.49863
vt 0.01016 0.35123
vt 0.01016 0.66234
vt 0.99493 0.66434
vt 0.34983 0.66434
vt 0.63449 0.66434
vt 0.01016 0.66434
vt 0.01057 0.99258
vt 0.38507 0.80865
vt 0.35771 0.99258
vt 0.01057 0.80865
vt 0.41274 0.67887
vt 0.01057 0.67887
vt 0.72852 0.80865
vt 0.70705 0.99258
vt 0.74404 0.67887
vt 0.99452 0.67887
vt 0.99452 0.80865
vt 0.99452 0.99258
vt 0.01057 0.99258
vt 0.24097 0.66234
vt 0.24060 0.50829
vt 0.53559 0.50829
vt 0.53559 0.66434
vt 0.53559 0.35123
vt 0.24024 0.35123
vt 0.00973 0.50829
vt 0.00973 0.66234
vt 0.00973 0.35123
vt 0.79540 0.66434
vt 0.79460 0.35123
vt 0.08009 0.50829
vt 0.10701 0.45277
vt 0.12678 0.47309
vt 0.14836 0.50499
vt 0.15536 0.51494
vt 0.12631 0.44687
vt 0.14235 0.41035
vt 0.15336 0.44321
vt 0.15935 0.43085
vt 0.12324 0.39430
vt 0.14961 0.37274
vt 0.15135 0.40694
vt 0.11421 0.37547
vt 0.10916 0.40872
vt 0.09131 0.38455
vt 0.15991 0.35123
vt 0.15536 0.66134
vt 0.14286 0.61715
vt 0.15536 0.56376
vt 0.12945 0.56702
vt 0.13985 0.54924
vt 0.55584 0.50829
vt 0.19064 0.35123
vt 0.19070 0.50829
vt 0.55584 0.35123
vt 0.55584 0.66434
vt 0.19076 0.66434
vt 0.74614 0.35123
vt 0.74614 0.50829
vt 0.74614 0.66434
vt 0.86251 0.50829
vt 0.99450 0.66434
vt 0.99446 0.50829
vt 0.86803 0.35123
vt 0.99448 0.35123
vt 0.01103 0.35123
vt 0.01103 0.50829
vt 0.01103 0.66434
vt 0.08058 0.50829
vt 0.10746 0.45543
vt 0.12466 0.47043
vt 0.14403 0.49568
vt 0.15003 0.50829
vt 0.12399 0.44953
vt 0.13803 0.41700
vt 0.14603 0.44188
vt 0.15103 0.43617
vt 0.12032 0.40361
vt 0.14303 0.37407
vt 0.14603 0.41226
vt 0.10960 0.37813
vt 0.10969 0.41404
vt 0.08868 0.38987
vt 0.15003 0.35123
vt 0.13403 0.61449
vt 0.14603 0.66434
vt 0.14603 0.57041
vt 0.12037 0.56702
vt 0.13403 0.55722
vt 0.21947 0.99258
vt 0.23663 0.67887
vt 0.00722 0.99258
vt 0.00784 0.67887
vt 0.58136 0.67887
vt 0.82913 0.99258
vt 0.97378 0.67887
vt 0.00554 0.99258
vt 0.00499 0.67887
vt 0.34090 0.67887
vt 0.35168 0.35123
vt 0.32752 0.66434
vt 0.00444 0.35123
vt 0.00444 0.66434
vt 0.78773 0.66434
vt 0.77536 0.35123
vt 0.99417 0.66434
vt 0.99419 0.35123
vt 0.00826 0.66434
vt 0.45771 0.35123
vt 0.46042 0.66434
vt 0.00826 0.35123
vt 0.73058 0.66434
vt 0.75242 0.35123
vt 0.99397 0.35123
vt 0.36151 0.35123
vt 0.61852 0.35123
vt 0.36263 0.66434
vt 0.61816 0.66434
vt 0.00826 0.66434
vt 0.00826 0.35123
vt 0.99397 0.35123
vt 0.99398 0.66434
vt 0.48235 0.99258
vt 0.48241 0.67887
vt 0.00826 0.99258
vt 0.00826 0.67887
vt 0.75500 0.99258
vt 0.78210 0.67887
vt 0.99397 0.99258
vt 0.99397 0.67887
vt 0.37059 0.99258
vt 0.36985 0.67887
vt 0.00826 0.99258
vt 0.00826 0.67887
vt 0.73639 0.67887
vt 0.73587 0.99258
vt 0.99398 0.67887
vt 0.99398 0.99258
vt 0.45446 0.66434
vt 0.42015 0.35123
vt 0.00768 0.66434
vt 0.00764 0.35123
vt 0.71694 0.35123
vt 0.69838 0.66434
vt 0.99338 0.66434
vt 0.99352 0.35123
vt 0.42979 0.99258
vt 0.42796 0.67887
vt 0.67306 0.67887
vt 0.73846 0.99258
vt 0.00694 0.99258
vt 0.00694 0.67887
vt 0.99538 0.67887
vt 0.99545 0.99258
vt 0.00694 0.99258
vt 0.45127 0.67887
vt 0.44797 0.99258
vt 0.00694 0.67887
vt 0.74054 0.99258
vt 0.76364 0.67887
vt 0.99536 0.99258
vt 0.99536 0.67887
vt 0.99481 0.99258
vt 0.48383 0.67887
vt 0.48666 0.99258
vt 0.99556 0.67887
vt 0.00700 0.99258
vt 0.00700 0.67887
vt 0.46998 0.66434
vt 0.47265 0.35123
vt 0.00826 0.66434
vt 0.66191 0.57934
vt 0.99304 0.35123
vt 0.00768 0.35123
vt 0.33588 0.99258
vt 0.33177 0.67887
vt 0.00700 0.99258
vt 0.00700 0.67887
vt 0.66526 0.67887
vt 0.64654 0.99258
vt 0.99346 0.67887
vt 0.99346 0.99258
vt 0.01162 0.33724
vt 0.01162 0.33724
vt 0.29057 0.33702
vt 0.01162 0.33724
vt 0.01162 0.33724
vt 0.01162 0.33724
vt 0.01162 0.33724
vt 0.01162 0.33724
vt 0.01162 0.33724
vt 0.01162 0.33724
vt 0.01162 0.33724
vt 0.39533 0.66434
vt 0.40010 0.35123
vt 0.75974 0.35123
vt 0.73498 0.66434
vt 0.00700 0.66434
vt 0.00700 0.35123
vt 0.99378 0.35123
vt 0.99447 0.66434
vt 0.86854 0.34341
vt 0.99531 0.34341
vt 0.99493 0.00723
vt 0.44947 0.17255
vt 0.46966 0.00723
vt 0.01016 0.17255
vt 0.01016 0.00723
vt 0.43744 0.32034
vt 0.01016 0.32034
vt 0.00826 0.32034
vt 0.45771 0.00723
vt 0.46042 0.32034
vt 0.00826 0.00723
vt 0.73068 0.32034
vt 0.75383 0.00723
vt 0.99397 0.32034
vt 0.99397 0.00723
vt 0.45446 0.32034
vt 0.42015 0.00723
vt 0.00768 0.32034
vt 0.00764 0.00723
vt 0.71694 0.00723
vt 0.69838 0.32034
vt 0.99338 0.32034
vt 0.99352 0.00723
vt 0.99493 0.00723
vt 0.68563 0.00723
vt 0.65925 0.15463
vt 0.36905 0.15463
vt 0.41783 0.00723
vt 0.01016 0.15463
vt 0.01016 0.32034
vt 0.34983 0.32034
vt 0.01016 0.32034
vt 0.34983 0.32034
vt 0.24060 0.16429
vt 0.24024 0.00723
vt 0.53559 0.00723
vt 0.00973 0.00723
vt 0.00973 0.16429
vt 0.24097 0.32034
vt 0.00973 0.32034
vt 0.08009 0.16429
vt 0.10701 0.10877
vt 0.12678 0.12909
vt 0.14836 0.16099
vt 0.15536 0.17094
vt 0.12631 0.10287
vt 0.14235 0.06635
vt 0.15336 0.09921
vt 0.15935 0.08685
vt 0.12324 0.05030
vt 0.14961 0.02874
vt 0.15135 0.06294
vt 0.11421 0.03148
vt 0.10916 0.06472
vt 0.09131 0.04055
vt 0.15991 0.00723
vt 0.24097 0.32034
vt 0.24060 0.16429
vt 0.53559 0.16429
vt 0.53559 0.32034
vt 0.53559 0.00723
vt 0.79540 0.32034
vt 0.79460 0.00723
vt 0.15536 0.32034
vt 0.14286 0.27315
vt 0.15536 0.21976
vt 0.12945 0.22302
vt 0.13985 0.20524
vt 0.59084 0.00723
vt 0.59084 0.16429
vt 0.74614 0.00723
vt 0.19064 0.00723
vt 0.19070 0.16429
vt 0.01103 0.00723
vt 0.01103 0.16429
vt 0.19076 0.32034
vt 0.01103 0.32034
vt 0.59084 0.32034
vt 0.35168 0.00723
vt 0.32752 0.32034
vt 0.00444 0.00723
vt 0.00444 0.32034
vt 0.78773 0.32034
vt 0.77536 0.00723
vt 0.36151 0.00723
vt 0.61852 0.00723
vt 0.36263 0.32034
vt 0.61816 0.32034
vt 0.00826 0.32034
vt 0.00826 0.00723
vt 0.99397 0.00723
vt 0.00826 0.32034
vt 0.47265 0.00723
vt 0.46998 0.32034
vt 0.00768 0.00723
vt 0.66191 0.23534
vt 0.99304 0.00723
vt 0.39533 0.32034
vt 0.40010 0.00723
vt 0.75974 0.00723
vt 0.00700 0.32034
vt 0.00700 0.00723
usemtl m0
f 1/1 2/2 3/3
f 4/4 1/1 3/3
f 5/5 1/1 4/4
f 6/6 5/5 4/4
f 6/6 7/7 5/5
f 8/8 6/6 4/4
f 8/8 4/4 3/3
f 9/9 6/6 8/8
f 10/10 11/11 12/12
f 10/10 12/12 13/13
f 14/14 10/10 13/13
f 14/14 13/13 15/15
f 15/15 13/13 16/16
f 13/13 12/12 16/16
f 15/15 16/16 17/17
f 16/16 12/12 18/18
f 19/19 20/20 21/21
f 21/21 20/20 22/22
f 23/23 20/20 19/19
f 22/22 24/24 25/25
f 25/25 24/24 26/26
f 27/27 28/28 29/29
f 29/29 28/28 30/30
f 30/30 28/28 31/31
f 31/31 28/28 32/32
f 32/32 28/28 33/33
f 33/33 28/28 34/34
f 35/35 28/28 27/27
f 34/34 28/28 36/36
f 36/36 28/28 37/37
f 37/37 28/28 38/38
f 38/38 28/28 39/39
f 39/39 28/28 40/40
f 41/41 42/42 43/43
f 44/44 41/41 43/43
f 41/41 45/45 42/42
f 45/45 46/46 42/42
f 42/42 46/46 47/47
f 46/46 48/48 47/47
f 49/49 42/42 47/47
f 43/43 42/42 49/49
f 47/47 48/48 50/50
f 50/50 48/48 51/51
f 52/52 47/47 50/50
f 49/49 47/47 52/52
f 41/41 42/42 53/53
f 54/54 42/42 47/47
f 55/55 42/42 54/54
f 53/53 42/42 55/55
f 56/56 47/47 50/50
f 54/54 47/47 56/56
f 57/57 58/58 59/59
f 57/57 60/60 58/58
f 60/60 61/61 58/58
f 60/60 62/62 61/61
f 59/59 58/58 63/63
f 59/59 58/58 63/63
f 59/59 63/63 64/64
f 59/59 63/63 64/64
f 58/58 61/61 65/65
f 58/58 65/65 63/63
f 63/63 65/65 66/66
f 63/63 66/66 67/67
f 64/64 63/63 67/67
f 64/64 67/67 68/68
f 69/69 58/58 59/59
f 69/69 60/60 58/58
f 70/70 71/71 72/72
f 73/73 70/70 72/72
f 72/72 71/71 74/74
f 71/71 75/75 74/74
f 70/70 76/76 71/71
f 77/77 76/76 70/70
f 71/71 78/78 75/75
f 76/76 78/78 71/71
f 73/73 72/72 79/79
f 79/79 72/72 80/80
f 72/72 74/74 80/80
f 77/77 81/81 76/76
f 76/76 81/81 78/78
f 81/81 82/82 78/78
f 81/81 83/83 82/82
f 81/81 84/84 83/83
f 81/81 85/85 84/84
f 83/83 84/84 86/86
f 86/86 84/84 87/87
f 84/84 88/88 87/87
f 88/88 89/89 87/87
f 86/86 87/87 90/90
f 87/87 91/91 90/90
f 92/92 91/91 87/87
f 90/90 91/91 93/93
f 82/82 86/86 94/94
f 86/86 90/90 94/94
f 82/82 94/94 95/95
f 95/95 93/93 78/78
f 78/78 82/82 95/95
f 93/93 96/96 78/78
f 91/91 96/96 93/93
f 77/77 97/97 98/98
f 98/98 99/99 77/77
f 77/77 99/99 100/100
f 100/100 99/99 101/101
f 77/77 100/100 81/81
f 102/102 103/103 104/104
f 105/105 103/103 102/102
f 102/102 104/104 106/106
f 106/106 104/104 107/107
f 105/105 102/102 108/108
f 108/108 102/102 109/109
f 102/102 106/106 109/109
f 109/109 106/106 110/110
f 109/109 110/110 111/111
f 108/108 109/109 111/111
f 111/111 110/110 112/112
f 111/111 112/112 113/113
f 108/108 111/111 114/114
f 114/114 111/111 113/113
f 114/114 113/113 115/115
f 103/103 116/116 104/104
f 104/104 116/116 117/117
f 104/104 117/117 107/107
f 107/107 117/117 118/118
f 117/117 119/119 118/118
f 116/116 119/119 117/117
f 116/116 120/120 119/119
f 120/120 121/121 119/119
f 121/121 122/122 119/119
f 122/122 123/123 119/119
f 124/124 122/122 121/121
f 125/125 122/122 124/124
f 125/125 126/126 122/122
f 125/125 127/127 126/126
f 128/128 125/125 124/124
f 128/128 129/129 125/125
f 125/125 129/129 130/130
f 131/131 129/129 128/128
f 132/132 124/124 120/120
f 132/132 128/128 124/124
f 133/133 132/132 120/120
f 116/116 131/131 133/133
f 133/133 120/120 116/116
f 116/116 134/134 131/131
f 131/131 134/134 129/129
f 135/135 136/136 118/118
f 118/118 137/137 135/135
f 138/138 137/137 118/118
f 139/139 137/137 138/138
f 119/119 138/138 118/118
f 140/140 141/141 142/142
f 141/141 143/143 142/142
f 144/144 141/141 140/140
f 145/145 144/144 140/140
f 146/146 144/144 145/145
f 147/147 148/148 149/149
f 150/150 151/151 152/152
f 151/151 153/153 152/152
f 154/154 151/151 150/150
f 155/155 154/154 150/150
f 156/156 154/154 155/155
f 156/156 155/155 157/157
f 158/158 159/159 160/160
f 158/158 161/161 159/159
f 160/160 159/159 162/162
f 162/162 159/159 163/163
f 162/162 163/163 112/112
f 112/112 163/163 164/164
f 165/165 166/166 167/167
f 167/167 166/166 168/168
f 169/169 165/165 167/167
f 170/170 165/165 169/169
f 168/168 166/166 171/171
f 172/172 168/168 171/171
f 173/173 174/174 175/175
f 175/175 174/174 176/176
f 177/177 174/174 173/173
f 178/178 174/174 177/177
f 179/179 178/178 177/177
f 180/180 178/178 179/179
f 181/181 182/182 183/183
f 182/182 184/184 183/183
f 185/185 182/182 181/181
f 186/186 185/185 181/181
f 187/187 185/185 186/186
f 187/187 186/186 188/188
f 189/189 190/190 191/191
f 190/190 192/192 191/191
f 193/193 190/190 189/189
f 194/194 193/193 189/189
f 195/195 193/193 194/194
f 196/196 193/193 195/195
f 197/197 198/198 199/199
f 197/197 199/199 200/200
f 201/201 198/198 197/197
f 202/202 198/198 201/201
f 200/200 199/199 203/203
f 204/204 200/200 203/203
f 205/205 206/206 207/207
f 205/205 208/208 206/206
f 207/207 206/206 209/209
f 209/209 206/206 210/210
f 209/209 210/210 211/211
f 211/211 210/210 212/212
f 213/213 214/214 215/215
f 216/216 214/214 213/213
f 215/215 214/214 217/217
f 217/217 214/214 218/218
f 219/219 220/220 221/221
f 222/222 220/220 219/219
f 222/222 223/223 220/220
f 220/220 224/224 221/221
f 225/225 226/226 227/227
f 226/226 228/228 227/227
f 229/229 226/226 225/225
f 230/230 229/229 225/225
f 231/231 229/229 230/230
f 232/232 231/231 230/230
f 233/233 234/234 235/235
f 235/235 234/234 236/236
f 237/237 236/236 235/235
f 235/235 238/238 237/237
f 238/238 239/239 235/235
f 239/239 240/240 235/235
f 240/240 241/241 235/235
f 235/235 241/241 242/242
f 235/235 242/242 243/243
f 235/235 243/243 233/233
f 244/244 245/245 246/246
f 244/244 246/246 247/247
f 248/248 245/245 244/244
f 248/248 249/249 245/245
f 247/247 246/246 250/250
f 247/247 250/250 251/251
f 108/108 111/111 252/252
f 252/252 111/111 253/253
f 253/253 111/111 113/113
usemtl m1
f 254/254 255/255 256/256
f 256/256 255/255 257/257
f 256/256 257/257 258/258
f 255/255 259/259 257/257
f 257/257 259/259 260/260
f 261/261 262/262 263/263
f 261/261 264/264 262/262
f 263/263 262/262 265/265
f 265/265 262/262 266/266
f 265/265 266/266 267/267
f 267/267 266/266 268/268
f 269/269 270/270 271/271
f 270/270 272/272 271/271
f 273/273 270/270 269/269
f 274/274 273/273 269/269
f 275/275 273/273 274/274
f 276/276 273/273 275/275
f 277/277 278/278 279/279
f 279/279 278/278 280/280
f 278/278 281/281 280/280
f 280/280 281/281 282/282
f 283/283 280/280 282/282
f 284/284 280/280 283/283
f 285/285 280/280 282/282
f 286/286 280/280 285/285
f 287/287 288/288 289/289
f 287/287 290/290 288/288
f 291/291 290/290 287/287
f 292/292 291/291 287/287
f 293/293 291/291 292/292
f 293/293 294/294 291/291
f 291/291 294/294 290/290
f 294/294 295/295 290/290
f 294/294 296/296 295/295
f 294/294 297/297 296/296
f 294/294 298/298 297/297
f 296/296 297/297 299/299
f 299/299 297/297 300/300
f 297/297 301/301 300/300
f 301/301 302/302 300/300
f 299/299 300/300 303/303
f 300/300 304/304 303/303
f 305/305 304/304 300/300
f 303/303 304/304 306/306
f 295/295 299/299 307/307
f 299/299 303/303 307/307
f 295/295 307/307 308/308
f 308/308 306/306 290/290
f 290/290 295/295 308/308
f 306/306 309/309 290/290
f 304/304 309/309 306/306
f 310/310 311/311 312/312
f 313/313 310/310 312/312
f 312/312 311/311 314/314
f 313/313 312/312 315/315
f 315/315 312/312 316/316
f 312/312 314/314 316/316
f 293/293 317/317 318/318
f 318/318 319/319 293/293
f 293/293 319/319 320/320
f 320/320 319/319 321/321
f 293/293 320/320 294/294
f 322/322 323/323 324/324
f 322/322 325/325 323/323
f 323/323 325/325 326/326
f 325/325 327/327 326/326
f 326/326 327/327 328/328
f 326/326 328/328 329/329
f 329/329 328/328 330/330
f 331/331 326/326 329/329
f 323/323 326/326 331/331
f 332/332 333/333 334/334
f 333/333 335/335 334/334
f 336/336 333/333 332/332
f 337/337 336/336 332/332
f 338/338 339/339 340/340
f 340/340 339/339 341/341
f 342/342 338/338 340/340
f 343/343 338/338 342/342
f 341/341 339/339 344/344
f 345/345 346/346 347/347
f 345/345 348/348 346/346
f 347/347 346/346 349/349
f 346/346 350/350 349/349
f 351/351 352/352 353/353
f 354/354 352/352 351/351
f 354/354 355/355 352/352
