mtllib M_0002.mtl
g M_0002
v -0.0269999988 -0.0359999985 2.42999983
v -0.0539999977 0 2.42999983
v -0 0 2.6639998
v -0.0899999961 0 2.15999985
v -0.0359999985 -0.0629999936 2.15999985
v -0.13499999 0 1.79999995
v -0 -0.13499999 1.79999995
v -0.143999994 -0.162 1.60199988
v -0.179999992 0 1.61999989
v -0.395999968 -0.162 1.42199993
v -0.395999968 0 1.43999994
v -0.458999991 -0.152999997 1.38599992
v -0.593999982 0 1.31399989
v -0.611999989 -0.0899999961 1.28699994
v -0.719999969 0 1.25999999
v -0.0269999988 0.0359999985 2.42999983
v -0.0359999985 0.0629999936 2.15999985
v -0 0.13499999 1.79999995
v -0.143999994 0.162 1.60199988
v -0.395999968 0.162 1.42199993
v -0.458999991 0.152999997 1.38599992
v -0.611999989 0.0899999961 1.28699994
v -0.341999978 -0.224999994 1.42199993
v -0.251999974 -0.296999991 1.42199993
v -0 -0.224999994 1.58399987
v -0.324000001 -0.287999988 1.37699997
v -0.494999975 -0.179999992 1.34099996
v -0.629999995 -0.179999992 1.21499991
v -0.485999972 -0.233999997 1.30499995
v -0.341999978 0.224999994 1.42199993
v -0.251999974 0.296999991 1.42199993
v -0.324000001 0.287999988 1.37699997
v -0.494999975 0.179999992 1.34099996
v -0.629999995 0.179999992 1.21499991
v -0.485999972 0.233999997 1.30499995
v -0.431999981 -0.287999988 1.296
v -0.449999988 -0.314999998 1.21499991
v -0.368999988 -0.314999998 1.32299995
v -0.305999994 -0.395999968 1.22399998
v -0.188999996 -0.404999971 1.34099996
v -0 -0.359999985 1.43999994
v -0.431999981 0.287999988 1.296
v -0.449999988 0.314999998 1.21499991
v -0.368999988 0.314999998 1.32299995
v -0.305999994 0.395999968 1.22399998
v -0.188999996 0.404999971 1.34099996
v -0 0.359999985 1.43999994
v -0 0.224999994 1.58399987
v 0.179999992 -0.188999996 1.57499993
v 0.13499999 0 1.79999995
v 0.0179999992 0 2.15999985
v -0 0 2.42999983
v 0.269999981 0 1.57499993
v 0.179999992 0.188999996 1.57499993
v 0.449999988 -0.233999997 1.34099996
v 0.512999952 0 1.3499999
v 0.314999998 -0.404999971 1.30499995
v 0.0899999961 -0.494999975 1.25999999
v -0.0899999961 -0.494999975 1.25999999
v 0.449999988 0.233999997 1.34099996
v 0.314999998 0.404999971 1.30499995
v 0.0899999961 0.494999975 1.25999999
v -0.0899999961 0.494999975 1.25999999
v 0.584999979 -0.269999981 1.03499997
v 0.629999995 0 1.03499997
v 0.359999985 -0.494999975 1.03499997
v -0 -0.602999985 1.03499997
v -0.242999986 -0.548999965 0.998999953
v -0.404999971 -0.359999985 1.125
v -0.449999988 -0.404999971 0.944999933
v -0.584999979 -0.179999992 0.98999995
v -0.584999979 -0.179999992 0.854999959
v -0.719999969 0 0.899999976
v -0.629999995 0 0.809999943
v 0.359999985 0.494999975 1.03499997
v 0.584999979 0.269999981 1.03499997
v -0.584999979 0.179999992 0.854999959
v -0.584999979 0.179999992 0.98999995
v -0.449999988 0.404999971 0.944999933
v -0.404999971 0.359999985 1.125
v -0.242999986 0.548999965 0.998999953
v -0 0.602999985 1.03499997
v -0.584999979 -0.224999994 0.692999959
v -0.629999995 0 0.674999952
v 0.359999985 0.584999979 0.719999969
v 0.584999979 0.314999998 0.674999952
v 0.656999946 0 0.674999952
v 0.584999979 -0.314999998 0.674999952
v 0.359999985 -0.584999979 0.719999969
v -0 -0.629999995 0.719999969
v -0.269999981 -0.584999979 0.719999969
v -0.449999988 -0.449999988 0.710999966
v 0.539999962 -0.314999998 0.539999962
v 0.539999962 0 0.449999988
v 0.359999985 -0.539999962 0.539999962
v -0 -0.539999962 0.494999975
v -0.359999985 -0.539999962 0.539999962
v -0.494999975 -0.359999985 0.539999962
v -0.539999962 0 0.494999975
v -0.584999979 0.224999994 0.692999959
v -0.449999988 0.449999988 0.710999966
v -0.269999981 0.584999979 0.719999969
v -0 0.629999995 0.719999969
v 0.359999985 0.539999962 0.539999962
v 0.539999962 0.314999998 0.539999962
v -0 0.539999962 0.494999975
v -0.359999985 0.539999962 0.539999962
v -0.494999975 0.359999985 0.539999962
v 0.449999988 0.179999992 0.404999971
v 0.359999985 0 0.359999985
v 0.449999988 -0.179999992 0.404999971
v 0.224999994 -0.224999994 0.359999985
v -0 0 0.314999998
v -0 -0.359999985 0.359999985
v 0.224999994 -0.449999988 0.404999971
v -0.224999994 -0.449999988 0.404999971
v -0.224999994 -0.224999994 0.359999985
v -0.359999985 0 0.359999985
v -0.449999988 -0.224999994 0.404999971
v 0.224999994 0.224999994 0.359999985
v -0 0.359999985 0.359999985
v 0.224999994 0.449999988 0.404999971
v -0.224999994 0.449999988 0.404999971
v -0.224999994 0.224999994 0.359999985
v -0.449999988 0.224999994 0.404999971
v -0.404999971 -0.359999985 0.0449999981
v -0.359999985 -0.314999998 0.0449999981
v -0.314999998 -0.359999985 0.0449999981
v -0.359999985 -0.404999971 0.0449999981
v -0.314999998 0.359999985 0.0449999981
v -0.359999985 0.404999971 0.0449999981
v -0.359999985 0.314999998 0.0449999981
v -0.404999971 0.359999985 0.0449999981
v -0.359999985 -0.359999985 0
v -0.359999985 0.359999985 0
v -0.359999985 -0.179999992 1.30499995
v -0.485999972 -0.233999997 1.296
v -0.359999985 0.179999992 1.30499995
v -0.485999972 0.233999997 1.296
v 0.404999971 -0.359999985 0.0449999981
v 0.359999985 -0.314999998 0.0449999981
v 0.359999985 -0.404999971 0.0449999981
v 0.314999998 -0.359999985 0.0449999981
v 0.359999985 -0.359999985 0
v 0.404999971 0.359999985 0.0449999981
v 0.359999985 0.314999998 0.0449999981
v 0.359999985 0.404999971 0.0449999981
v 0.314999998 0.359999985 0.0449999981
v 0.359999985 0.359999985 0
v -0.179999992 0 0.899999976
v 0.179999992 0 1.125
v -0.0899999961 0 1.25999999
v -0.116999999 0 2.80799985
v -0.269999981 -0.13499999 2.727
v -0.341999978 0 2.8349998
v -0.854999959 0 2.38499999
v -0.269999981 0.13499999 2.727
v -0.206999987 0 2.6099999
v -0.206999987 0 2.6099999
v -0.854999959 0 2.38499999
v -0.269999981 -0.13499999 2.727
v -0.116999999 0 2.80799985
v -0.341999978 0 2.8349998
v -0.269999981 0.13499999 2.727
v 0.278999984 0.125999987 2.71799994
v 0.125999987 0.224999994 2.65499997
v 0.0810000002 0.098999992 2.8349998
v 0.602999985 0.701999962 2.52899981
v 0.107999995 0.314999998 2.81699991
v 0.260999978 0.224999994 2.88899994
v 0.260999978 0.224999994 2.88899994
v 0.602999985 0.701999962 2.52899981
v 0.278999984 0.125999987 2.71799994
v 0.0810000002 0.098999992 2.8349998
v 0.125999987 0.224999994 2.65499997
v 0.107999995 0.314999998 2.81699991
v 0.13499999 0 3.19499993
v -0 0 3.01499987
v -0 -0.13499999 3.19499993
v -0 0 3.86999989
v -0.13499999 0 3.19499993
v -0 0.13499999 3.19499993
v -0 -0.13499999 3.19499993
v -0.13499999 0 3.19499993
v -0 0 3.86999989
v -0 0 3.01499987
v -0 0.13499999 3.19499993
v 0.13499999 0 3.19499993
v 0.0810000002 -0.098999992 2.8349998
v 0.125999987 -0.224999994 2.65499997
v 0.278999984 -0.125999987 2.71799994
v 0.602999985 -0.701999962 2.52899981
v 0.260999978 -0.224999994 2.88899994
v 0.107999995 -0.314999998 2.81699991
v 0.0810000002 -0.098999992 2.8349998
v 0.278999984 -0.125999987 2.71799994
v 0.260999978 -0.224999994 2.88899994
v 0.602999985 -0.701999962 2.52899981
v 0.107999995 -0.314999998 2.81699991
v 0.125999987 -0.224999994 2.65499997
v -0.179999992 -0.0810000002 2.97899985
v -0.0539999977 -0.0629999936 2.90699983
v -0.0810000002 -0.143999994 3.02399993
v -0.395999968 -0.458999991 3.10499978
v -0.170999989 -0.143999994 2.87999988
v -0.0719999969 -0.206999987 2.92499995
v -0.395999968 -0.458999991 3.10499978
v -0.170999989 -0.143999994 2.87999988
v -0.179999992 -0.0810000002 2.97899985
v -0.0539999977 -0.0629999936 2.90699983
v -0.0810000002 -0.143999994 3.02399993
v -0.0719999969 -0.206999987 2.92499995
v 0.179999992 -0.0899999961 2.97899985
v 0.224999994 0 2.90699983
v 0.0719999969 0 2.92499995
v 0.557999969 0 3.20399976
v 0.13499999 0 3.05999994
v 0.179999992 0.0899999961 2.97899985
v 0.557999969 0 3.20399976
v 0.179999992 -0.0899999961 2.97899985
v 0.13499999 0 3.05999994
v 0.0719999969 0 2.92499995
v 0.179999992 0.0899999961 2.97899985
v 0.224999994 0 2.90699983
v -0.0810000002 0.143999994 3.02399993
v -0.0539999977 0.0629999936 2.90699983
v -0.179999992 0.0810000002 2.97899985
v -0.395999968 0.458999991 3.10499978
v -0.0719999969 0.206999987 2.92499995
v -0.170999989 0.143999994 2.87999988
v -0.179999992 0.0810000002 2.97899985
v -0.170999989 0.143999994 2.87999988
v -0.395999968 0.458999991 3.10499978
v -0.0539999977 0.0629999936 2.90699983
v -0.0719999969 0.206999987 2.92499995
v -0.0810000002 0.143999994 3.02399993
v 0.593999982 -0.719999969 1.70999992
v 0.557999969 -0.836999953 1.67399991
v 0.521999955 -0.719999969 1.87199998
v 0.557999969 -0.602999985 1.67399991
v 0.521999955 -0.719999969 1.54799998
v 0.476999968 -0.881999969 1.8269999
v 0.476999968 -0.557999969 1.8269999
v 0.476999968 -0.881999969 1.59299994
v 0.476999968 -0.557999969 1.59299994
v 0.395999968 -0.836999953 1.51199996
v 0.395999968 -0.602999985 1.51199996
v 0.359999985 -0.719999969 1.94399989
v 0.359999985 -0.953999937 1.70999992
v 0.359999985 -0.485999972 1.70999992
v 0.359999985 -0.719999969 1.47599995
v 0.324000001 -0.836999953 1.90799987
v 0.324000001 -0.602999985 1.90799987
v 0.242999986 -0.881999969 1.59299994
v 0.242999986 -0.557999969 1.59299994
v 0.242999986 -0.881999969 1.8269999
v 0.242999986 -0.557999969 1.8269999
v 0.197999984 -0.719999969 1.87199998
v 0.197999984 -0.719999969 1.54799998
v 0.162 -0.836999953 1.74599993
v 0.162 -0.602999985 1.74599993
v 0.125999987 -0.719999969 1.70999992
v 0.521999955 0.719999969 1.87199998
v 0.557999969 0.836999953 1.67399991
v 0.593999982 0.719999969 1.70999992
v 0.557999969 0.602999985 1.67399991
v 0.521999955 0.719999969 1.54799998
v 0.476999968 0.881999969 1.8269999
v 0.476999968 0.557999969 1.8269999
v 0.476999968 0.881999969 1.59299994
v 0.476999968 0.557999969 1.59299994
v 0.395999968 0.836999953 1.51199996
v 0.395999968 0.602999985 1.51199996
v 0.359999985 0.719999969 1.94399989
v 0.359999985 0.953999937 1.70999992
v 0.359999985 0.485999972 1.70999992
v 0.359999985 0.719999969 1.47599995
v 0.324000001 0.836999953 1.90799987
v 0.324000001 0.602999985 1.90799987
v 0.242999986 0.881999969 1.59299994
v 0.242999986 0.557999969 1.59299994
v 0.242999986 0.881999969 1.8269999
v 0.242999986 0.557999969 1.8269999
v 0.197999984 0.719999969 1.87199998
v 0.197999984 0.719999969 1.54799998
v 0.162 0.836999953 1.74599993
v 0.162 0.602999985 1.74599993
v 0.125999987 0.719999969 1.70999992
v -0.215999991 -0.539999962 2.06999993
v -0.260999978 -0.539999962 1.97099996
v -0.251999974 -0.629999995 2.03399992
v -0.251999974 -0.449999988 2.03399992
v -0.305999994 -0.665999949 2.12399983
v -0.305999994 -0.413999975 2.12399983
v -0.260999978 -0.539999962 2.16899991
v -0.324000001 -0.629999995 1.96199989
v -0.324000001 -0.449999988 1.96199989
v -0.359999985 -0.539999962 1.92599988
v -0.395999968 -0.629999995 2.17799997
v -0.395999968 -0.449999988 2.17799997
v -0.413999975 -0.665999949 2.01599979
v -0.413999975 -0.413999975 2.01599979
v -0.359999985 -0.539999962 2.21399999
v -0.467999995 -0.629999995 2.10599995
v -0.467999995 -0.449999988 2.10599995
v -0.458999991 -0.539999962 2.16899991
v -0.458999991 -0.539999962 1.97099996
v -0.503999949 -0.539999962 2.06999993
v -0.251999974 0.629999995 2.03399992
v -0.260999978 0.539999962 1.97099996
v -0.215999991 0.539999962 2.06999993
v -0.251999974 0.449999988 2.03399992
v -0.305999994 0.665999949 2.12399983
v -0.305999994 0.413999975 2.12399983
v -0.260999978 0.539999962 2.16899991
v -0.324000001 0.629999995 1.96199989
v -0.324000001 0.449999988 1.96199989
v -0.359999985 0.539999962 1.92599988
v -0.395999968 0.629999995 2.17799997
v -0.395999968 0.449999988 2.17799997
v -0.413999975 0.665999949 2.01599979
v -0.413999975 0.413999975 2.01599979
v -0.359999985 0.539999962 2.21399999
v -0.467999995 0.629999995 2.10599995
v -0.467999995 0.449999988 2.10599995
v -0.458999991 0.539999962 2.16899991
v -0.458999991 0.539999962 1.97099996
v -0.503999949 0.539999962 2.06999993
v 0.863999963 0 1.79999995
v 0.818999946 0 1.70099998
v 0.827999949 -0.0899999961 1.76399994
v 0.827999949 0.0899999961 1.76399994
v 0.773999989 -0.125999987 1.85399997
v 0.773999989 0.125999987 1.85399997
v 0.818999946 0 1.89899993
v 0.755999982 -0.0899999961 1.69199991
v 0.755999982 0.0899999961 1.69199991
v 0.719999969 0 1.6559999
v 0.683999956 -0.0899999961 1.90799987
v 0.683999956 0.0899999961 1.90799987
v 0.665999949 -0.125999987 1.74599993
v 0.665999949 0.125999987 1.74599993
v 0.719999969 0 1.94399989
v 0.611999989 -0.0899999961 1.83599997
v 0.611999989 0.0899999961 1.83599997
v 0.620999992 0 1.89899993
v 0.620999992 0 1.70099998
v 0.575999975 0 1.79999995
v -0 -1.25999999 -0.899999976
v -0 0 -0.899999976
v 0.485999972 -1.16099989 -0.899999976
v 0.890999973 -0.890999973 -0.899999976
v 1.16099989 -0.485999972 -0.899999976
v 1.25999999 0 -0.899999976
v 1.16099989 0.485999972 -0.899999976
v 0.890999973 0.890999973 -0.899999976
v 0.485999972 1.16099989 -0.899999976
v -0 1.25999999 -0.899999976
v -0.485999972 1.16099989 -0.899999976
v -0.890999973 0.890999973 -0.899999976
v -1.16099989 0.485999972 -0.899999976
v -1.25999999 0 -0.899999976
v -1.16099989 -0.485999972 -0.899999976
v -0.890999973 -0.890999973 -0.899999976
v -0.485999972 -1.16099989 -0.899999976
v -0.620999992 -0.0899999961 1.296
v -0.719999969 0 1.25999999
v -0.593999982 0 1.32299995
v -0.629999995 -0.179999992 1.21499991
v -0.458999991 -0.152999997 1.39499998
v -0.404999971 0 1.44899988
v -0.404999971 -0.162 1.43099999
v -0.494999975 -0.188999996 1.3499999
v -0.494999975 -0.242999986 1.31399989
v -0.431999981 -0.287999988 1.30499995
v -0.449999988 -0.314999998 1.21499991
v -0.368999988 -0.314999998 1.3319999
v -0.305999994 -0.395999968 1.22399998
v -0.188999996 -0.413999975 1.3499999
v -0.0899999961 -0.494999975 1.25999999
v -0.251999974 -0.305999994 1.43099999
v -0.332999974 -0.287999988 1.37699997
v -0.350999981 -0.233999997 1.42199993
v -0.152999997 -0.170999989 1.61099994
v -0.188999996 0 1.62899995
v -0.143999994 0 1.79999995
v -0 -0.143999994 1.79999995
v -0.0359999985 -0.0719999969 2.15999985
v -0.098999992 0 2.15999985
v -0.0269999988 -0.0449999981 2.42999983
v -0.0629999936 0 2.42999983
v -0 -0.233999997 1.59299994
v -0 -0.368999988 1.44899988
v 0.0899999961 -0.503999949 1.25999999
v -0 -0.611999989 1.03499997
v -0.242999986 -0.557999969 0.998999953
v -0.404999971 -0.359999985 1.13399994
v -0.458999991 -0.413999975 0.944999933
v -0.593999982 -0.179999992 0.98999995
v -0.593999982 -0.179999992 0.854999959
v -0.728999972 0 0.899999976
v -0.638999999 0 0.809999943
v -0.593999982 -0.224999994 0.692999959
v -0.638999999 0 0.674999952
v -0.548999965 0 0.485999972
v -0.458999991 -0.458999991 0.710999966
v -0.503999949 -0.359999985 0.539999962
v -0.458999991 -0.224999994 0.404999971
v -0.359999985 0 0.350999981
v -0.269999981 -0.593999982 0.719999969
v -0.359999985 -0.548999965 0.539999962
v -0.413999975 -0.359999985 0.0449999981
v -0.359999985 -0.305999994 0.0449999981
v -0.359999985 -0.413999975 0.0449999981
v -0.224999994 -0.224999994 0.350999981
v -0.305999994 -0.359999985 0.0449999981
v -0.224999994 -0.458999991 0.395999968
v -0 -0.638999999 0.719999969
v -0 -0.548999965 0.485999972
v -0 -0.359999985 0.350999981
v -0 0 0.305999994
v 0.359999985 -0.593999982 0.719999969
v 0.359999985 -0.503999949 1.03499997
v 0.314999998 -0.413999975 1.31399989
v 0.179999992 -0.197999984 1.58399987
v 0.143999994 0 1.79999995
v 0.0269999988 0 2.15999985
v 0.00899999961 0 2.42999983
v 0.224999994 -0.458999991 0.395999968
v 0.359999985 -0.548999965 0.539999962
v 0.359999985 -0.413999975 0.0449999981
v 0.305999994 -0.359999985 0.0449999981
v 0.224999994 -0.224999994 0.350999981
v 0.359999985 0 0.350999981
v 0.359999985 -0.305999994 0.0449999981
v 0.593999982 -0.314999998 0.674999952
v 0.593999982 -0.269999981 1.03499997
v 0.458999991 -0.233999997 1.3499999
v 0.278999984 0 1.58399987
v 0.449999988 -0.179999992 0.395999968
v 0.413999975 -0.359999985 0.0449999981
v 0.548999965 -0.314999998 0.539999962
v 0.521999955 0 1.3499999
v 0.638999999 0 1.03499997
v 0.665999949 0 0.674999952
v 0.548999965 0 0.440999985
v 0.179999992 0.197999984 1.58399987
v -0 0.143999994 1.79999995
v -0.0359999985 0.0719999969 2.15999985
v -0.0269999988 0.0449999981 2.42999983
v -0.152999997 0.170999989 1.61099994
v -0.404999971 0.162 1.43099999
v -0.350999981 0.233999997 1.42199993
v -0.251999974 0.305999994 1.43099999
v -0.332999974 0.287999988 1.37699997
v -0.368999988 0.314999998 1.3319999
v -0.188999996 0.413999975 1.3499999
v -0.305999994 0.395999968 1.22399998
v -0.0899999961 0.494999975 1.25999999
v -0.449999988 0.314999998 1.21499991
v -0.431999981 0.287999988 1.30499995
v -0.629999995 0.179999992 1.21499991
v -0.494999975 0.242999986 1.31399989
v -0.494999975 0.188999996 1.3499999
v -0.620999992 0.0899999961 1.296
v -0.458999991 0.152999997 1.39499998
v -0 0.368999988 1.44899988
v 0.0899999961 0.503999949 1.25999999
v -0 0.611999989 1.03499997
v -0.242999986 0.557999969 0.998999953
v -0.269999981 0.593999982 0.719999969
v -0.458999991 0.413999975 0.944999933
v -0.404999971 0.359999985 1.13399994
v -0.593999982 0.179999992 0.98999995
v -0.593999982 0.179999992 0.854999959
v -0.593999982 0.224999994 0.692999959
v -0.458999991 0.458999991 0.710999966
v -0.503999949 0.359999985 0.539999962
v -0.458999991 0.224999994 0.404999971
v -0.359999985 0.548999965 0.539999962
v -0.413999975 0.359999985 0.0449999981
v -0.359999985 0.305999994 0.0449999981
v -0.359999985 0.413999975 0.0449999981
v -0.224999994 0.224999994 0.350999981
v -0.305999994 0.359999985 0.0449999981
v -0.224999994 0.458999991 0.395999968
v -0 0.359999985 0.350999981
v -0 0.548999965 0.485999972
v -0 0.638999999 0.719999969
v 0.359999985 0.593999982 0.719999969
v 0.359999985 0.503999949 1.03499997
v 0.314999998 0.413999975 1.31399989
v -0 0.233999997 1.59299994
v 0.359999985 0.548999965 0.539999962
v 0.224999994 0.458999991 0.395999968
v 0.359999985 0.413999975 0.0449999981
v 0.305999994 0.359999985 0.0449999981
v 0.224999994 0.224999994 0.350999981
v 0.359999985 0.305999994 0.0449999981
v 0.449999988 0.179999992 0.395999968
v 0.413999975 0.359999985 0.0449999981
v 0.548999965 0.314999998 0.539999962
v 0.593999982 0.314999998 0.674999952
v 0.593999982 0.269999981 1.03499997
v 0.458999991 0.233999997 1.3499999
v 0.170999989 0 1.125
v -0.0899999961 0 1.25099993
v -0.179999992 0 0.908999979
v 0.620999992 -1.49399996 -0.890999973
v -0 0 -0.890999973
v 1.14300001 -1.14300001 -0.890999973
v -0 -1.61999989 -0.890999973
v -0.620999992 -1.49399996 -0.890999973
v 1.49399996 -0.620999992 -0.890999973
v 1.61999989 0 -0.890999973
v 1.49399996 0.620999992 -0.890999973
v 1.14300001 1.14300001 -0.890999973
v 0.620999992 1.49399996 -0.890999973
v -0 1.61999989 -0.890999973
v -0.620999992 1.49399996 -0.890999973
v -1.14300001 1.14300001 -0.890999973
v -1.49399996 0.620999992 -0.890999973
v -1.61999989 0 -0.890999973
v -1.49399996 -0.620999992 -0.890999973
v -1.14300001 -1.14300001 -0.890999973
v -0 -1.61999989 2.87999988
v -0 0 2.87999988
v 0.620999992 -1.49399996 2.87999988
v 1.14300001 -1.14300001 2.87999988
v 1.49399996 -0.620999992 2.87999988
v 1.61999989 0 2.87999988
v 1.49399996 0.620999992 2.87999988
v 1.14300001 1.14300001 2.87999988
v 0.620999992 1.49399996 2.87999988
v -0 1.61999989 2.87999988
v -0.620999992 1.49399996 2.87999988
v -1.14300001 1.14300001 2.87999988
v -1.49399996 0.620999992 2.87999988
v -1.61999989 0 2.87999988
v -1.49399996 -0.620999992 2.87999988
v -1.14300001 -1.14300001 2.87999988
v -0.620999992 -1.49399996 2.87999988
v 0.386999995 -1.43999994 2.89799976
v 0.332999974 -1.44899988 2.86199999
v 0.107999995 -0.422999978 2.87999988
v -0.152999997 -0.0359999985 2.7809999
v -0.512999952 -0.107999995 2.51099992
v -0.548999965 -0.116999999 2.57399988
v -0.143999994 -0.800999939 2.77199984
v -0.0899999961 -0.791999936 2.727
v -0.0359999985 -0.233999997 2.84399986
v -0.638999999 1.19699991 3.70799994
v -0.179999992 0.341999978 3.13199997
v -0.602999985 1.16999996 3.77099991
v 1.24199998 -0.251999974 3.50999975
v 0.368999988 -0.0629999936 3.05999994
v 1.26899993 -0.215999991 3.45599985
v 0.971999943 -0.0179999992 4.00499964
v 0.287999988 0 3.20399976
v 1.01699996 0.0179999992 3.96899986
v 0.557999969 -0.287999988 2.98799992
v 0.170999989 -0.0810000002 2.90699983
v 0.584999979 -0.242999986 2.94299984
v 0.710999966 -0.242999986 2.57399988
v 0.683999956 -0.251999974 2.51099992
v 0.206999987 -0.0719999969 2.7809999
v 1.0079999 0.890999973 2.03399992
v 1.01699996 0.827999949 1.98899996
v 0.296999991 0.251999974 2.62799978
v 1.1789999 0.737999976 3.13199997
v 0.350999981 0.206999987 2.94299984
v 1.21499991 0.683999956 3.09599996
v 0.107999995 0.422999978 2.87999988
v 0.386999995 1.43999994 2.86199999
v 0.332999974 1.44899988 2.89799976
v -0.152999997 0.107999995 3.49199986
v -0.0359999985 0.0269999988 3.05999994
v -0.107999995 0.0629999936 3.50999975
v -0.162 0.125999987 2.76299977
v -0.539999962 0.458999991 2.4749999
v -0.584999979 0.404999971 2.48399997
v -0.179999992 -0.341999978 2.62799978
v -0.602999985 -1.16999996 1.98899996
v -0.638999999 -1.19699991 2.05199981
v -1.22399998 -0.314999998 3.50999975
v -0.359999985 -0.098999992 3.05099988
v -1.25099993 -0.350999981 3.44699979
v -0.0899999961 0.251999974 2.53799987
v -0.287999988 0.854999959 1.70099998
v -0.332999974 0.890999973 1.73699987
v 0.584999979 0.242999986 2.81699991
v 0.557999969 0.287999988 2.77199984
v 0.170999989 0.0810000002 2.85299993
v 0.683999956 0.251999974 3.24899983
v 0.206999987 0.0719999969 2.97899985
v 0.710999966 0.242999986 3.18599987
v -0.638999999 -0.827999949 4.07699966
v -0.179999992 -0.251999974 3.22199988
v -0.602999985 -0.890999973 4.04999971
v 1.21499991 -0.683999956 2.6639998
v 1.1789999 -0.737999976 2.62799978
v 0.350999981 -0.206999987 2.81699991
v -0.107999995 0 2.81699991
v -0.206999987 0 2.60099983
v -0.269999981 -0.143999994 2.727
v -0.872999966 0 2.37599993
v -0.107999995 0 2.81699991
v -0.269999981 -0.143999994 2.727
v -0.341999978 0 2.84399986
v -0.872999966 0 2.37599993
v 0.0719999969 -0.0899999961 2.84399986
v 0.116999999 -0.224999994 2.64599991
v 0.278999984 -0.116999999 2.71799994
v 0.620999992 -0.719999969 2.51999998
v 0.0719999969 -0.0899999961 2.84399986
v 0.278999984 -0.116999999 2.71799994
v 0.260999978 -0.224999994 2.89799976
v 0.620999992 -0.719999969 2.51999998
v 0.260999978 -0.224999994 2.89799976
v 0.098999992 -0.324000001 2.82599998
v 0.0719999969 -0.0899999961 2.84399986
v 0.620999992 -0.719999969 2.51999998
v 0.098999992 -0.324000001 2.82599998
v 0.116999999 -0.224999994 2.64599991
v 0.0719999969 -0.0899999961 2.84399986
v 0.620999992 -0.719999969 2.51999998
v -0 -0.143999994 3.19499993
v -0 0 3.0059998
v -0.143999994 0 3.19499993
v -0 0 3.89699984
v -0 0.143999994 3.19499993
v 0.143999994 0 3.19499993
v 0.143999994 0 3.19499993
v -0 0 3.0059998
v -0 -0.143999994 3.19499993
v -0 0 3.89699984
v 0.179999992 -0.098999992 2.97899985
v 0.0539999977 0 2.91599989
v 0.13499999 0 3.06899977
v 0.575999975 0 3.21299982
v 0.179999992 -0.098999992 2.97899985
v 0.233999997 0 2.89799976
v 0.0539999977 0 2.91599989
v 0.575999975 0 3.21299982
v -0.188999996 -0.0719999969 2.98799992
v -0.170999989 -0.143999994 2.87099981
v -0.0449999981 -0.0539999977 2.89799976
v -0.413999975 -0.485999972 3.11399984
v -0.188999996 -0.0719999969 2.98799992
v -0.0449999981 -0.0539999977 2.89799976
v -0.0719999969 -0.143999994 3.03299975
v -0.413999975 -0.485999972 3.11399984
v -0.0719999969 -0.143999994 3.03299975
v -0.0449999981 -0.0539999977 2.89799976
v -0.0629999936 -0.215999991 2.92499995
v -0.413999975 -0.485999972 3.11399984
v -0.0449999981 -0.0539999977 2.89799976
v -0.170999989 -0.143999994 2.87099981
v -0.0629999936 -0.215999991 2.92499995
v -0.413999975 -0.485999972 3.11399984
v -0.269999981 0.143999994 2.727
v -0.206999987 0 2.60099983
v -0.107999995 0 2.81699991
v -0.872999966 0 2.37599993
v -0.341999978 0 2.84399986
v -0.269999981 0.143999994 2.727
v -0.107999995 0 2.81699991
v -0.872999966 0 2.37599993
v 0.278999984 0.116999999 2.71799994
v 0.116999999 0.224999994 2.64599991
v 0.0719999969 0.0899999961 2.84399986
v 0.620999992 0.719999969 2.51999998
v 0.260999978 0.224999994 2.89799976
v 0.278999984 0.116999999 2.71799994
v 0.0719999969 0.0899999961 2.84399986
v 0.620999992 0.719999969 2.51999998
v 0.0719999969 0.0899999961 2.84399986
v 0.098999992 0.324000001 2.82599998
v 0.260999978 0.224999994 2.89799976
v 0.620999992 0.719999969 2.51999998
v 0.0719999969 0.0899999961 2.84399986
v 0.116999999 0.224999994 2.64599991
v 0.098999992 0.324000001 2.82599998
v 0.620999992 0.719999969 2.51999998
v -0.143999994 0 3.19499993
v -0 0 3.0059998
v -0 0.143999994 3.19499993
v -0 0 3.89699984
v 0.13499999 0 3.06899977
v 0.0539999977 0 2.91599989
v 0.179999992 0.098999992 2.97899985
v 0.575999975 0 3.21299982
v 0.0539999977 0 2.91599989
v 0.233999997 0 2.89799976
v 0.179999992 0.098999992 2.97899985
v 0.575999975 0 3.21299982
v -0.0449999981 0.0539999977 2.89799976
v -0.170999989 0.143999994 2.87099981
v -0.188999996 0.0719999969 2.98799992
v -0.413999975 0.485999972 3.11399984
v -0.0719999969 0.143999994 3.03299975
v -0.0449999981 0.0539999977 2.89799976
v -0.188999996 0.0719999969 2.98799992
v -0.413999975 0.485999972 3.11399984
v -0.0629999936 0.215999991 2.92499995
v -0.0449999981 0.0539999977 2.89799976
v -0.0719999969 0.143999994 3.03299975
v -0.413999975 0.485999972 3.11399984
v -0.0629999936 0.215999991 2.92499995
v -0.170999989 0.143999994 2.87099981
v -0.0449999981 0.0539999977 2.89799976
v -0.413999975 0.485999972 3.11399984
v 0.458999991 0 2.87999988
v -0 0 2.87999988
v -0 0.458999991 2.87999988
v -0 -0.458999991 2.87999988
v -0.458999991 0 2.87999988
v -0 0 3.33899975
v -0 0 2.421
v -0 0 3.33899975
v -0 0 2.421
v 0.188999996 -0.719999969 1.88099992
v 0.224999994 -0.557999969 1.84499991
v 0.332999974 -0.719999969 1.95299995
v 0.224999994 -0.881999969 1.84499991
v 0.116999999 -0.719999969 1.73699987
v 0.638999999 -0.098999992 1.88099992
v 0.611999989 0 1.90799987
v 0.701999962 0 1.94399989
v 0.575999975 0 1.81799996
v 0.638999999 0.098999992 1.88099992
v -0.467999995 -0.539999962 2.17799997
v -0.440999985 -0.440999985 2.15100002
v -0.368999988 -0.539999962 2.22299981
v -0.440999985 -0.638999999 2.15100002
v -0.512999952 -0.539999962 2.079
v 0.332999974 0.719999969 1.95299995
v 0.224999994 0.557999969 1.84499991
v 0.188999996 0.719999969 1.88099992
v 0.224999994 0.881999969 1.84499991
v 0.116999999 0.719999969 1.73699987
v -0.368999988 0.539999962 2.22299981
v -0.440999985 0.440999985 2.15100002
v -0.467999995 0.539999962 2.17799997
v -0.440999985 0.638999999 2.15100002
v -0.512999952 0.539999962 2.079
vt 0.00390599994 0.0820309967
vt 0.00390599994 0.0820309967
vt 0.00390599994 0.0820309967
vt 0.00390599994 0.0820309967
vt 0.00390599994 0.0820309967
vt 0.00390599994 0.0820309967
vt 0.00390599994 0.0820309967
vt 0.00390599994 0.0820309967
vt 0.00390599994 0.0820309967
vt 0.00390599994 0.0820309967
vt 0.00390599994 0.0820309967
vt 0.00390599994 0.0820309967
vt 0.00390599994 0.0820309967
vt 0.00390599994 0.0820309967
vt 0.00390599994 0.0820309967
vt 0.00390599994 0.0820309967
vt 0.00390599994 0.0820309967
vt 0.00390599994 0.0820309967
vt 0.00390599994 0.0820309967
vt 0.00390599994 0.0820309967
vt 0.00390599994 0.0820309967
vt 0.00390599994 0.0820309967
vt 0.00390599994 0.0820309967
vt 0.00390599994 0.0820309967
vt 0.00390599994 0.0820309967
vt 0.00390599994 0.0820309967
vt 0.00390599994 0.0820309967
vt 0.00390599994 0.0820309967
vt 0.00390599994 0.0820309967
vt 0.00390599994 0.0820309967
vt 0.00390599994 0.0820309967
vt 0.00390599994 0.0820309967
vt 0.00390599994 0.0820309967
vt 0.00390599994 0.0820309967
vt 0.00390599994 0.0820309967
vt 0.00390599994 0.0820309967
vt 0.00390599994 0.0820309967
vt 0.00390599994 0.0820309967
vt 0.00390599994 0.0820309967
vt 0.00390599994 0.0820309967
vt 0.00390599994 0.0820309967
vt 0.00390599994 0.0820309967
vt 0.00390599994 0.0820309967
vt 0.00390599994 0.0820309967
vt 0.00390599994 0.0820309967
vt 0.00390599994 0.0820309967
vt 0.00390599994 0.0820309967
vt 0.00390599994 0.0820309967
vt 0.00390599994 0.0820309967
vt 0.00390599994 0.0820309967
vt 0.00390599994 0.0820309967
vt 0.00390599994 0.0820309967
vt 0.00390599994 0.0820309967
vt 0.00390599994 0.0820309967
vt 0.00390599994 0.0820309967
vt 0.00390599994 0.0820309967
vt 0.00390599994 0.0820309967
vt 0.00390599994 0.0820309967
vt 0.00390599994 0.0820309967
vt 0.00390599994 0.0820309967
vt 0.00390599994 0.0820309967
vt 0.00390599994 0.0820309967
vt 0.00390599994 0.0820309967
vt 0.00390599994 0.0820309967
vt 0.00390599994 0.0820309967
vt 0.00390599994 0.0820309967
vt 0.00390599994 0.0820309967
vt 0.00390599994 0.0820309967
vt 0.00390599994 0.0820309967
vt 0.00390599994 0.0820309967
vt 0.00390599994 0.0820309967
vt 0.00390599994 0.0820309967
vt 0.00390599994 0.0820309967
vt 0.00390599994 0.0820309967
vt 0.00390599994 0.0820309967
vt 0.00390599994 0.0820309967
vt 0.00390599994 0.0820309967
vt 0.00390599994 0.0820309967
vt 0.00390599994 0.0820309967
vt 0.00390599994 0.0820309967
vt 0.00390599994 0.0820309967
vt 0.00390599994 0.0820309967
vt 0.00390599994 0.0820309967
vt 0.00390599994 0.0820309967
vt 0.00390599994 0.0820309967
vt 0.00390599994 0.0820309967
vt 0.00390599994 0.0820309967
vt 0.00390599994 0.0820309967
vt 0.00390599994 0.0820309967
vt 0.00390599994 0.0820309967
vt 0.00390599994 0.0820309967
vt 0.00390599994 0.0820309967
vt 0.00390599994 0.0820309967
vt 0.00390599994 0.0820309967
vt 0.00390599994 0.0820309967
vt 0.00390599994 0.0820309967
vt 0.00390599994 0.0820309967
vt 0.00390599994 0.0820309967
vt 0.00390599994 0.0820309967
vt 0.00390599994 0.0820309967
vt 0.00390599994 0.0820309967
vt 0.00390599994 0.0820309967
vt 0.00390599994 0.0820309967
vt 0.00390599994 0.0820309967
vt 0.00390599994 0.0820309967
vt 0.00390599994 0.0820309967
vt 0.00390599994 0.0820309967
vt 0.00390599994 0.0820309967
vt 0.00390599994 0.0820309967
vt 0.00390599994 0.0820309967
vt 0.00390599994 0.0820309967
vt 0.00390599994 0.0820309967
vt 0.00390599994 0.0820309967
vt 0.00390599994 0.0820309967
vt 0.00390599994 0.0820309967
vt 0.00390599994 0.0820309967
vt 0.00390599994 0.0820309967
vt 0.00390599994 0.0820309967
vt 0.00390599994 0.0820309967
vt 0.00390599994 0.0820309967
vt 0.00390599994 0.0820309967
vt 0.00390599994 0.0820309967
vt 0.00390599994 0.0820309967
vt 0.00390599994 0.0820309967
vt 0.00390599994 0.0820309967
vt 0.00390599994 0.0820309967
vt 0.00390599994 0.0820309967
vt 0.00390599994 0.0820309967
vt 0.00390599994 0.0820309967
vt 0.00390599994 0.0820309967
vt 0.00390599994 0.0820309967
vt 0.00390599994 0.0820309967
vt 0.00390599994 0.0820309967
vt 0.00390599994 0.0820309967
vt 0.00390599994 0.0820309967
vt 0.00390599994 0.0820309967
vt 0.00390599994 0.0820309967
vt 0.00390599994 0.0820309967
vt 0.00390599994 0.0820309967
vt 0.00390599994 0.0820309967
vt 0.00390599994 0.0820309967
vt 0.00390599994 0.0820309967
vt 0.00390599994 0.0820309967
vt 0.00390599994 0.0820309967
vt 0.00390599994 0.0820309967
vt 0.00390599994 0.0820309967
vt 0.00390599994 0.0820309967
vt 0.00390599994 0.0820309967
vt 0.00390599994 0.0820309967
vt 0.00390599994 0.0820309967
vt 0.00390599994 0.0820309967
vt 0.00390599994 0.0820309967
vt 0.00390599994 0.991093993
vt 0.199219003 0.881718993
vt 0.0507810004 0.772343993
vt 0.496093988 0.319218993
vt 0.0507810004 0.772343993
vt 0.199219003 0.881718993
vt 0.308593988 0.436405987
vt 0.00390599994 0.991093993
vt 0.449218988 0.545781016
vt 0.496093988 0.319218993
vt 0.449218988 0.545781016
vt 0.308593988 0.436405987
vt 0.199219003 0.881718993
vt 0.0507810004 0.772343993
vt 0.00390599994 0.991093993
vt 0.496093988 0.319218993
vt 0.0507810004 0.772343993
vt 0.199219003 0.881718993
vt 0.308593988 0.436405987
vt 0.00390599994 0.991093993
vt 0.449218988 0.545781016
vt 0.496093988 0.319218993
vt 0.449218988 0.545781016
vt 0.308593988 0.436405987
vt 0.199219003 0.881718993
vt 0.00390599994 0.991093993
vt 0.0507810004 0.772343993
vt 0.496093988 0.319218993
vt 0.199219003 0.881718993
vt 0.0507810004 0.772343993
vt 0.449218988 0.545781016
vt 0.308593988 0.436405987
vt 0.00390599994 0.991093993
vt 0.496093988 0.319218993
vt 0.449218988 0.545781016
vt 0.308593988 0.436405987
vt 0.00390599994 0.991093993
vt 0.0507810004 0.772343993
vt 0.199219003 0.881718993
vt 0.496093988 0.319218993
vt 0.199219003 0.881718993
vt 0.0507810004 0.772343993
vt 0.496093988 0.319218993
vt 0.449218988 0.545781016
vt 0.308593988 0.436405987
vt 0.00390599994 0.991093993
vt 0.308593988 0.436405987
vt 0.449218988 0.545781016
vt 0.308593988 0.436405987
vt 0.496093988 0.319218993
vt 0.449218988 0.545781016
vt 0.00390599994 0.991093993
vt 0.449218988 0.545781016
vt 0.308593988 0.436405987
vt 0.496093988 0.319218993
vt 0.199219003 0.881718993
vt 0.0507810004 0.772343993
vt 0.00390599994 0.991093993
vt 0.199219003 0.881718993
vt 0.0507810004 0.772343993
vt 0.199219003 0.881718993
vt 0.0507810004 0.772343993
vt 0.00390599994 0.991093993
vt 0.496093988 0.319218993
vt 0.199219003 0.881718993
vt 0.0507810004 0.772343993
vt 0.00390599994 0.991093993
vt 0.449218988 0.545781016
vt 0.308593988 0.436405987
vt 0.496093988 0.319218993
vt 0.308593988 0.436405987
vt 0.449218988 0.545781016
vt 0.449218988 0.545781016
vt 0.496093988 0.319218993
vt 0.308593988 0.436405987
vt 0.00390599994 0.991093993
vt 0.308593988 0.436405987
vt 0.449218988 0.545781016
vt 0.0507810004 0.772343993
vt 0.199219003 0.881718993
vt 0.496093988 0.319218993
vt 0.00390599994 0.991093993
vt 0.0507810004 0.772343993
vt 0.199219003 0.881718993
vt 0.0820309967 0.394531012
vt 0.128905997 0.472656012
vt 0.246094003 0.324218988
vt 0.128905997 0.472656012
vt 0.00390599994 0.558593988
vt 0.253906012 0.449218988
vt 0.253906012 0.449218988
vt 0.136719003 0.558593988
vt 0.136719003 0.558593988
vt 0.128905997 0.644531012
vt 0.128905997 0.644531012
vt 0.410156012 0.386718988
vt 0.253906012 0.558593988
vt 0.253906012 0.558593988
vt 0.0898440033 0.730468988
vt 0.371093988 0.472656012
vt 0.371093988 0.472656012
vt 0.246094003 0.675781012
vt 0.246094003 0.675781012
vt 0.363281012 0.558593988
vt 0.363281012 0.558593988
vt 0.496093988 0.558593988
vt 0.253906012 0.792968988
vt 0.371093988 0.652343988
vt 0.371093988 0.652343988
vt 0.417968988 0.722656012
vt 0.246094003 0.324218988
vt 0.128905997 0.472656012
vt 0.0820309967 0.394531012
vt 0.128905997 0.472656012
vt 0.00390599994 0.558593988
vt 0.253906012 0.449218988
vt 0.253906012 0.449218988
vt 0.136719003 0.558593988
vt 0.136719003 0.558593988
vt 0.128905997 0.644531012
vt 0.128905997 0.644531012
vt 0.410156012 0.386718988
vt 0.253906012 0.558593988
vt 0.253906012 0.558593988
vt 0.0898440033 0.730468988
vt 0.371093988 0.472656012
vt 0.371093988 0.472656012
vt 0.246094003 0.675781012
vt 0.246094003 0.675781012
vt 0.363281012 0.558593988
vt 0.363281012 0.558593988
vt 0.496093988 0.558593988
vt 0.253906012 0.792968988
vt 0.371093988 0.652343988
vt 0.371093988 0.652343988
vt 0.417968988 0.722656012
vt 0.0898440033 0.566406012
vt 0.00390599994 0.738281012
vt 0.128905997 0.683593988
vt 0.128905997 0.683593988
vt 0.246094003 0.667968988
vt 0.246094003 0.667968988
vt 0.261718988 0.503906012
vt 0.128905997 0.800781012
vt 0.128905997 0.800781012
vt 0.0898440033 0.917968988
vt 0.371093988 0.683593988
vt 0.371093988 0.683593988
vt 0.246094003 0.816406012
vt 0.246094003 0.816406012
vt 0.410156012 0.574218988
vt 0.371093988 0.800781012
vt 0.371093988 0.800781012
vt 0.496093988 0.738281012
vt 0.261718988 0.972656012
vt 0.410156012 0.902343988
vt 0.128905997 0.683593988
vt 0.00390599994 0.738281012
vt 0.0898440033 0.566406012
vt 0.128905997 0.683593988
vt 0.246094003 0.667968988
vt 0.246094003 0.667968988
vt 0.261718988 0.503906012
vt 0.128905997 0.800781012
vt 0.128905997 0.800781012
vt 0.0898440033 0.917968988
vt 0.371093988 0.683593988
vt 0.371093988 0.683593988
vt 0.246094003 0.816406012
vt 0.246094003 0.816406012
vt 0.410156012 0.574218988
vt 0.371093988 0.800781012
vt 0.371093988 0.800781012
vt 0.496093988 0.738281012
vt 0.261718988 0.972656012
vt 0.410156012 0.902343988
vt 0.0898440033 0.488281012
vt 0.00390599994 0.660156012
vt 0.128905997 0.605468988
vt 0.128905997 0.605468988
vt 0.246094003 0.582031012
vt 0.246094003 0.582031012
vt 0.261718988 0.425781012
vt 0.128905997 0.714843988
vt 0.128905997 0.714843988
vt 0.0976559967 0.839843988
vt 0.371093988 0.597656012
vt 0.371093988 0.597656012
vt 0.246094003 0.738281012
vt 0.246094003 0.738281012
vt 0.410156012 0.496093988
vt 0.371093988 0.714843988
vt 0.371093988 0.714843988
vt 0.496093988 0.660156012
vt 0.261718988 0.894531012
vt 0.417968988 0.824218988
vt 0.949218988 0.167969003
vt 0.949218988 0.167969003
vt 0.949218988 0.167969003
vt 0.949218988 0.167969003
vt 0.949218988 0.167969003
vt 0.949218988 0.167969003
vt 0.949218988 0.167969003
vt 0.949218988 0.167969003
vt 0.949218988 0.167969003
vt 0.949218988 0.167969003
vt 0.949218988 0.167969003
vt 0.949218988 0.167969003
vt 0.949218988 0.167969003
vt 0.949218988 0.167969003
vt 0.949218988 0.167969003
vt 0.949218988 0.167969003
vt 0.949218988 0.167969003
vt 0.230469003 0.949218988
vt 0.253906012 0.972656012
vt 0.214844003 0.964843988
vt 0.246094003 0.925781012
vt 0.199219003 0.910156012
vt 0.167969003 0.925781012
vt 0.191405997 0.894531012
vt 0.214844003 0.910156012
vt 0.222655997 0.894531012
vt 0.230469003 0.878906012
vt 0.246094003 0.878906012
vt 0.222655997 0.863281012
vt 0.253906012 0.839843988
vt 0.222655997 0.808593988
vt 0.261718988 0.769531012
vt 0.191405997 0.847656012
vt 0.207030997 0.863281012
vt 0.199219003 0.871093988
vt 0.128905997 0.863281012
vt 0.121094003 0.902343988
vt 0.0820309967 0.902343988
vt 0.0664059967 0.855468988
vt 0.167969003 0.800781012
vt 0.175780997 0.824218988
vt 0.261718988 0.746093988
vt 0.269531012 0.761718988
vt 0.121094003 0.824218988
vt 0.167969003 0.792968988
vt 0.199219003 0.738281012
vt 0.238280997 0.691406012
vt 0.300781012 0.691406012
vt 0.363281012 0.714843988
vt 0.371093988 0.667968988
vt 0.433593988 0.683593988
vt 0.441406012 0.644531012
vt 0.488281012 0.660156012
vt 0.488281012 0.628906012
vt 0.441406012 0.605468988
vt 0.488281012 0.589843988
vt 0.480468988 0.511718988
vt 0.371093988 0.621093988
vt 0.402343988 0.582031012
vt 0.425781012 0.511718988
vt 0.417968988 0.441406012
vt 0.308593988 0.628906012
vt 0.332031012 0.589843988
vt 0.425781012 0.425781012
vt 0.425781012 0.402343988
vt 0.402343988 0.425781012
vt 0.339843988 0.457031012
vt 0.394531012 0.402343988
vt 0.300781012 0.535156012
vt 0.253906012 0.621093988
vt 0.261718988 0.558593988
vt 0.277343988 0.480468988
vt 0.300781012 0.386718988
vt 0.175780997 0.597656012
vt 0.152344003 0.660156012
vt 0.128905997 0.722656012
vt 0.0898440033 0.792968988
vt 0.0273439996 0.824218988
vt 0.160155997 0.785156012
vt 0.253906012 0.738281012
vt 0.230469003 0.519531012
vt 0.183594003 0.566406012
vt 0.0585939996 0.371093988
vt 0.0742190033 0.347656012
vt 0.230469003 0.433593988
vt 0.160155997 0.386718988
vt 0.0507810004 0.332031012
vt 0.0976559967 0.550781012
vt 0.0742190033 0.628906012
vt 0.0742190033 0.707031012
vt 0.0351560004 0.777343988
vt 0.128905997 0.441406012
vt 0.0273439996 0.355468988
vt 0.113280997 0.519531012
vt 0.0117189996 0.707031012
vt 0.0117189996 0.613281012
vt 0.0273439996 0.511718988
vt 0.0820309967 0.433593988
vt 0.0898440033 0.792968988
vt 0.0664059967 0.855468988
vt 0.167969003 0.800781012
vt 0.261718988 0.746093988
vt 0.128905997 0.863281012
vt 0.191405997 0.894531012
vt 0.199219003 0.871093988
vt 0.191405997 0.847656012
vt 0.207030997 0.863281012
vt 0.222655997 0.863281012
vt 0.222655997 0.808593988
vt 0.253906012 0.839843988
vt 0.261718988 0.769531012
vt 0.246094003 0.878906012
vt 0.230469003 0.878906012
vt 0.246094003 0.925781012
vt 0.222655997 0.894531012
vt 0.214844003 0.910156012
vt 0.230469003 0.949218988
vt 0.199219003 0.910156012
vt 0.167969003 0.792968988
vt 0.199219003 0.738281012
vt 0.238280997 0.691406012
vt 0.300781012 0.691406012
vt 0.308593988 0.628906012
vt 0.371093988 0.667968988
vt 0.363281012 0.714843988
vt 0.433593988 0.683593988
vt 0.441406012 0.644531012
vt 0.441406012 0.605468988
vt 0.371093988 0.621093988
vt 0.402343988 0.582031012
vt 0.425781012 0.511718988
vt 0.332031012 0.589843988
vt 0.425781012 0.425781012
vt 0.425781012 0.402343988
vt 0.402343988 0.425781012
vt 0.339843988 0.457031012
vt 0.394531012 0.402343988
vt 0.300781012 0.535156012
vt 0.277343988 0.480468988
vt 0.261718988 0.558593988
vt 0.253906012 0.621093988
vt 0.175780997 0.597656012
vt 0.152344003 0.660156012
vt 0.128905997 0.722656012
vt 0.121094003 0.824218988
vt 0.183594003 0.566406012
vt 0.230469003 0.519531012
vt 0.0585939996 0.371093988
vt 0.0742190033 0.347656012
vt 0.230469003 0.433593988
vt 0.0507810004 0.332031012
vt 0.128905997 0.441406012
vt 0.0273439996 0.355468988
vt 0.113280997 0.519531012
vt 0.0976559967 0.550781012
vt 0.0742190033 0.628906012
vt 0.0742190033 0.707031012
vt 0.402343988 0.855468988
vt 0.347656012 0.878906012
vt 0.441406012 0.785156012
vt 0.511718988 0.316406012
vt 0.277343988 0.0820309967
vt 0.0429689996 0.316406012
vt 0.0429689996 0.316406012
vt 0.511718988 0.316406012
vt 0.511718988 0.316406012
vt 0.0429689996 0.316406012
vt 0.511718988 0.316406012
vt 0.0429689996 0.316406012
vt 0.511718988 0.316406012
vt 0.0429689996 0.316406012
vt 0.511718988 0.316406012
vt 0.0429689996 0.316406012
vt 0.511718988 0.316406012
vt 0.0429689996 0.316406012
vt 0.511718988 0.316406012
vt 0.0429689996 0.316406012
vt 0.0429689996 0.316406012
vt 0.277343988 0.0820309967
vt 0.511718988 0.316406012
vt 0.0429689996 0.316406012
vt 0.511718988 0.316406012
vt 0.0429689996 0.316406012
vt 0.511718988 0.316406012
vt 0.0429689996 0.316406012
vt 0.511718988 0.316406012
vt 0.0429689996 0.316406012
vt 0.511718988 0.316406012
vt 0.0429689996 0.316406012
vt 0.511718988 0.316406012
vt 0.0429689996 0.316406012
vt 0.511718988 0.316406012
vt 0.0429689996 0.316406012
vt 0.511718988 0.316406012
vt 0.527343988 0.0742190033
vt 0.527343988 0.0429689996
vt 0.207030997 0.0585939996
vt 0.136719003 0.0585939996
vt 0.457031012 0.0742190033
vt 0.457031012 0.0429689996
vt 0.628906012 0.0742190033
vt 0.628906012 0.0429689996
vt 0.308593988 0.0585939996
vt 0.628906012 0.0429689996
vt 0.308593988 0.0585939996
vt 0.628906012 0.0742190033
vt 0.597656012 0.0429689996
vt 0.277343988 0.0585939996
vt 0.597656012 0.0742190033
vt 0.371093988 0.0429689996
vt 0.0507810004 0.0585939996
vt 0.371093988 0.0742190033
vt 0.332031012 0.0429689996
vt 0.0117189996 0.0585939996
vt 0.332031012 0.0742190033
vt 0.410156012 0.0742190033
vt 0.410156012 0.0429689996
vt 0.0898440033 0.0585939996
vt 0.566406012 0.0742190033
vt 0.566406012 0.0429689996
vt 0.246094003 0.0585939996
vt 0.394531012 0.0429689996
vt 0.0742190033 0.0585939996
vt 0.394531012 0.0742190033
vt 0.253906012 0.0585939996
vt 0.574218988 0.0742190033
vt 0.574218988 0.0429689996
vt 0.402343988 0.0429689996
vt 0.0820309967 0.0585939996
vt 0.402343988 0.0742190033
vt 0.113280997 0.0585939996
vt 0.433593988 0.0742190033
vt 0.433593988 0.0429689996
vt 0.277343988 0.0585939996
vt 0.597656012 0.0742190033
vt 0.597656012 0.0429689996
vt 0.621093988 0.0429689996
vt 0.300781012 0.0585939996
vt 0.621093988 0.0742190033
vt 0.113280997 0.0585939996
vt 0.433593988 0.0742190033
vt 0.433593988 0.0429689996
vt 0.652343988 0.0742190033
vt 0.652343988 0.0429689996
vt 0.332031012 0.0585939996
vt 0.433593988 0.0429689996
vt 0.113280997 0.0585939996
vt 0.433593988 0.0742190033
vt 0.519531012 0.0429689996
vt 0.199219003 0.0585939996
vt 0.519531012 0.0742190033
vt 0.480468988 0.0742190033
vt 0.480468988 0.0429689996
vt 0.160155997 0.0585939996
vt 0.527343988 0.0195310004
vt 0.464843988 0.00390599994
vt 0.464843988 0.0351560004
vt 0.253906012 0.0195310004
vt 0.511718988 0.0195310004
vt 0.449218988 0.00390599994
vt 0.449218988 0.0351560004
vt 0.238280997 0.0195310004
vt 0.316406012 0.0195310004
vt 0.253906012 0.0351560004
vt 0.253906012 0.00390599994
vt 0.0429689996 0.0195310004
vt 0.542968988 0.0195310004
vt 0.480468988 0.0351560004
vt 0.480468988 0.00390599994
vt 0.269531012 0.0195310004
vt 0.441406012 0.00390599994
vt 0.441406012 0.0351560004
vt 0.503906012 0.0195310004
vt 0.230469003 0.0195310004
vt 0.449218988 0.00390599994
vt 0.449218988 0.0351560004
vt 0.511718988 0.0195310004
vt 0.238280997 0.0195310004
vt 0.527343988 0.0351560004
vt 0.589843988 0.0195310004
vt 0.527343988 0.00390599994
vt 0.316406012 0.0195310004
vt 0.527343988 0.0351560004
vt 0.527343988 0.00390599994
vt 0.222655997 0.00390599994
vt 0.285156012 0.0195310004
vt 0.222655997 0.0351560004
vt 0.0117189996 0.0195310004
vt 0.496093988 0.0351560004
vt 0.558593988 0.0195310004
vt 0.496093988 0.00390599994
vt 0.285156012 0.0195310004
vt 0.488281012 0.00390599994
vt 0.488281012 0.0351560004
vt 0.550781012 0.0195310004
vt 0.277343988 0.0195310004
vt 0.519531012 0.0351560004
vt 0.519531012 0.00390599994
vt 0.582031012 0.0195310004
vt 0.308593988 0.0195310004
vt 0.582031012 0.00390599994
vt 0.644531012 0.0195310004
vt 0.582031012 0.0351560004
vt 0.371093988 0.0195310004
vt 0.542968988 0.00390599994
vt 0.605468988 0.0195310004
vt 0.542968988 0.0351560004
vt 0.332031012 0.0195310004
vt 0.410156012 0.0195310004
vt 0.347656012 0.0351560004
vt 0.347656012 0.00390599994
vt 0.136719003 0.0195310004
vt 0.574218988 0.0351560004
vt 0.574218988 0.00390599994
vt 0.636718988 0.0195310004
vt 0.363281012 0.0195310004
vt 0.308593988 0.0351560004
vt 0.308593988 0.00390599994
vt 0.371093988 0.0195310004
vt 0.0976559967 0.0195310004
vt 0.496093988 0.00390599994
vt 0.496093988 0.0351560004
vt 0.558593988 0.0195310004
vt 0.285156012 0.0195310004
vt 0.402343988 0.00390599994
vt 0.402343988 0.0351560004
vt 0.464843988 0.0195310004
vt 0.191405997 0.0195310004
vt 0.636718988 0.0195310004
vt 0.574218988 0.0351560004
vt 0.574218988 0.00390599994
vt 0.363281012 0.0195310004
vt 0.378906012 0.0195310004
vt 0.316406012 0.0351560004
vt 0.316406012 0.00390599994
vt 0.105469003 0.0195310004
vt 0.535156012 0.00390599994
vt 0.597656012 0.0195310004
vt 0.535156012 0.0351560004
vt 0.324218988 0.0195310004
vt 0.324218988 0.00390599994
vt 0.386718988 0.0195310004
vt 0.324218988 0.0351560004
vt 0.113280997 0.0195310004
vt 0.417968988 0.0195310004
vt 0.355468988 0.0351560004
vt 0.355468988 0.00390599994
vt 0.144530997 0.0195310004
vt 0.550781012 0.0195310004
vt 0.488281012 0.00390599994
vt 0.488281012 0.0351560004
vt 0.277343988 0.0195310004
vt 0.292968988 0.0351560004
vt 0.355468988 0.0195310004
vt 0.292968988 0.00390599994
vt 0.0820309967 0.0195310004
vt 0.542968988 0.0351560004
vt 0.605468988 0.0195310004
vt 0.542968988 0.00390599994
vt 0.332031012 0.0195310004
vt 0.535156012 0.00390599994
vt 0.535156012 0.0351560004
vt 0.597656012 0.0195310004
vt 0.324218988 0.0195310004
vt 0.253906012 0.0820309967
vt 0.00390599994 0.0820309967
vt 0.00390599994 0.332031012
vt 0.00390599994 0.332031012
vt 0.253906012 0.0820309967
vt 0.253906012 0.0820309967
vt 0.253906012 0.0820309967
vt 0.00390599994 0.332031012
vt 0.00390599994 0.332031012
vt 0.00390599994 0.0820309967
vt 0.0507810004 0.285156012
vt 0.207030997 0.128905997
vt 0.0507810004 0.285156012
vt 0.207030997 0.128905997
vt 0.207030997 0.128905997
vt 0.00390599994 0.0820309967
vt 0.0507810004 0.285156012
vt 0.0507810004 0.285156012
vt 0.207030997 0.128905997
vt 0.00390599994 0.0820309967
vt 0.0507810004 0.285156012
vt 0.207030997 0.128905997
vt 0.0507810004 0.285156012
vt 0.207030997 0.128905997
vt 0.207030997 0.128905997
vt 0.0507810004 0.285156012
vt 0.00390599994 0.0820309967
vt 0.0507810004 0.285156012
vt 0.207030997 0.128905997
vt 0.207030997 0.128905997
vt 0.0507810004 0.285156012
vt 0.00390599994 0.0820309967
vt 0.0507810004 0.285156012
vt 0.207030997 0.128905997
g M_0002_0
usemtl n_M_0002_03
f 3/3/3 2/2/2 1/1/1
f 2/2/2 4/4/4 1/1/1
f 1/1/1 4/4/4 5/5/5
f 4/4/4 6/6/6 5/5/5
f 5/5/5 6/6/6 7/7/7
f 6/6/6 8/8/8 7/7/7
f 9/9/9 8/8/8 6/6/6
f 9/9/9 10/10/10 8/8/8
f 11/11/11 10/10/10 9/9/9
f 11/11/11 12/12/12 10/10/10
f 11/11/11 13/13/13 12/12/12
f 13/13/13 14/14/14 12/12/12
f 13/13/13 15/15/15 14/14/14
f 16/16/16 2/2/2 3/3/3
f 16/16/16 4/4/4 2/2/2
f 17/17/17 4/4/4 16/16/16
f 17/17/17 6/6/6 4/4/4
f 18/18/18 6/6/6 17/17/17
f 18/18/18 19/19/19 6/6/6
f 6/6/6 19/19/19 9/9/9
f 19/19/19 20/20/20 9/9/9
f 9/9/9 20/20/20 11/11/11
f 20/20/20 21/21/21 11/11/11
f 21/21/21 13/13/13 11/11/11
f 21/21/21 22/22/22 13/13/13
f 22/22/22 15/15/15 13/13/13
f 8/8/8 10/10/10 23/23/23
f 8/8/8 23/23/23 24/24/24
f 8/8/8 24/24/24 25/25/25
f 23/23/23 26/26/26 24/24/24
f 12/12/12 14/14/14 27/27/27
f 14/14/14 28/28/28 27/27/27
f 27/27/27 28/28/28 29/29/29
f 15/15/15 28/28/28 14/14/14
f 30/30/30 20/20/20 19/19/19
f 31/31/31 30/30/30 19/19/19
f 31/31/31 32/32/32 30/30/30
f 33/33/33 22/22/22 21/21/21
f 33/33/33 34/34/34 22/22/22
f 35/35/35 34/34/34 33/33/33
f 22/22/22 34/34/34 15/15/15
f 8/8/8 25/25/25 7/7/7
f 29/29/29 28/28/28 36/36/36
f 36/36/36 28/28/28 37/37/37
f 36/36/36 37/37/37 38/38/38
f 38/38/38 37/37/37 39/39/39
f 38/38/38 39/39/39 40/40/40
f 24/24/24 38/38/38 40/40/40
f 24/24/24 40/40/40 41/41/41
f 25/25/25 24/24/24 41/41/41
f 26/26/26 38/38/38 24/24/24
f 42/42/42 34/34/34 35/35/35
f 43/43/43 34/34/34 42/42/42
f 44/44/44 43/43/43 42/42/42
f 45/45/45 43/43/43 44/44/44
f 46/46/46 45/45/45 44/44/44
f 46/46/46 44/44/44 31/31/31
f 47/47/47 46/46/46 31/31/31
f 47/47/47 31/31/31 48/48/48
f 48/48/48 31/31/31 19/19/19
f 18/18/18 48/48/48 19/19/19
f 31/31/31 44/44/44 32/32/32
f 25/25/25 41/41/41 49/49/49
f 25/25/25 49/49/49 7/7/7
f 7/7/7 49/49/49 50/50/50
f 5/5/5 7/7/7 50/50/50
f 5/5/5 50/50/50 51/51/51
f 1/1/1 5/5/5 51/51/51
f 1/1/1 51/51/51 52/52/52
f 3/3/3 1/1/1 52/52/52
f 50/50/50 49/49/49 53/53/53
f 52/52/52 16/16/16 3/3/3
f 52/52/52 51/51/51 16/16/16
f 51/51/51 17/17/17 16/16/16
f 51/51/51 50/50/50 17/17/17
f 50/50/50 18/18/18 17/17/17
f 53/53/53 54/54/54 50/50/50
f 50/50/50 54/54/54 18/18/18
f 18/18/18 54/54/54 48/48/48
f 54/54/54 47/47/47 48/48/48
f 49/49/49 55/55/55 53/53/53
f 53/53/53 55/55/55 56/56/56
f 49/49/49 57/57/57 55/55/55
f 41/41/41 57/57/57 49/49/49
f 41/41/41 58/58/58 57/57/57
f 41/41/41 59/59/59 58/58/58
f 40/40/40 59/59/59 41/41/41
f 40/40/40 39/39/39 59/59/59
f 56/56/56 60/60/60 53/53/53
f 53/53/53 60/60/60 54/54/54
f 60/60/60 61/61/61 54/54/54
f 54/54/54 61/61/61 47/47/47
f 61/61/61 62/62/62 47/47/47
f 62/62/62 63/63/63 47/47/47
f 47/47/47 63/63/63 46/46/46
f 63/63/63 45/45/45 46/46/46
f 55/55/55 64/64/64 56/56/56
f 57/57/57 64/64/64 55/55/55
f 56/56/56 64/64/64 65/65/65
f 57/57/57 66/66/66 64/64/64
f 58/58/58 66/66/66 57/57/57
f 58/58/58 67/67/67 66/66/66
f 59/59/59 67/67/67 58/58/58
f 59/59/59 68/68/68 67/67/67
f 69/69/69 68/68/68 59/59/59
f 69/69/69 70/70/70 68/68/68
f 71/71/71 70/70/70 69/69/69
f 71/71/71 72/72/72 70/70/70
f 73/73/73 72/72/72 71/71/71
f 73/73/73 74/74/74 72/72/72
f 61/61/61 75/75/75 62/62/62
f 76/76/76 75/75/75 61/61/61
f 65/65/65 76/76/76 56/56/56
f 56/56/56 76/76/76 60/60/60
f 60/60/60 76/76/76 61/61/61
f 77/77/77 74/74/74 73/73/73
f 78/78/78 77/77/77 73/73/73
f 79/79/79 77/77/77 78/78/78
f 80/80/80 79/79/79 78/78/78
f 81/81/81 79/79/79 80/80/80
f 63/63/63 81/81/81 80/80/80
f 82/82/82 81/81/81 63/63/63
f 75/75/75 82/82/82 62/62/62
f 62/62/62 82/82/82 63/63/63
f 74/74/74 83/83/83 72/72/72
f 74/74/74 84/84/84 83/83/83
f 76/76/76 85/85/85 75/75/75
f 75/75/75 85/85/85 82/82/82
f 76/76/76 86/86/86 85/85/85
f 87/87/87 86/86/86 76/76/76
f 65/65/65 87/87/87 76/76/76
f 64/64/64 87/87/87 65/65/65
f 64/64/64 88/88/88 87/87/87
f 89/89/89 88/88/88 64/64/64
f 66/66/66 89/89/89 64/64/64
f 67/67/67 89/89/89 66/66/66
f 67/67/67 90/90/90 89/89/89
f 67/67/67 91/91/91 90/90/90
f 68/68/68 91/91/91 67/67/67
f 70/70/70 91/91/91 68/68/68
f 70/70/70 92/92/92 91/91/91
f 70/70/70 83/83/83 92/92/92
f 72/72/72 83/83/83 70/70/70
f 88/88/88 93/93/93 87/87/87
f 93/93/93 94/94/94 87/87/87
f 88/88/88 95/95/95 93/93/93
f 89/89/89 95/95/95 88/88/88
f 90/90/90 95/95/95 89/89/89
f 90/90/90 96/96/96 95/95/95
f 97/97/97 96/96/96 90/90/90
f 91/91/91 97/97/97 90/90/90
f 92/92/92 97/97/97 91/91/91
f 92/92/92 98/98/98 97/97/97
f 83/83/83 98/98/98 92/92/92
f 83/83/83 99/99/99 98/98/98
f 84/84/84 99/99/99 83/83/83
f 100/100/100 99/99/99 84/84/84
f 100/100/100 84/84/84 74/74/74
f 77/77/77 100/100/100 74/74/74
f 79/79/79 100/100/100 77/77/77
f 101/101/101 100/100/100 79/79/79
f 102/102/102 101/101/101 79/79/79
f 81/81/81 102/102/102 79/79/79
f 82/82/82 102/102/102 81/81/81
f 103/103/103 102/102/102 82/82/82
f 85/85/85 103/103/103 82/82/82
f 85/85/85 104/104/104 103/103/103
f 86/86/86 104/104/104 85/85/85
f 105/105/105 104/104/104 86/86/86
f 87/87/87 105/105/105 86/86/86
f 87/87/87 94/94/94 105/105/105
f 104/104/104 106/106/106 103/103/103
f 103/103/103 106/106/106 107/107/107
f 103/103/103 107/107/107 102/102/102
f 102/102/102 107/107/107 101/101/101
f 107/107/107 108/108/108 101/101/101
f 101/101/101 108/108/108 100/100/100
f 108/108/108 99/99/99 100/100/100
f 94/94/94 109/109/109 105/105/105
f 94/94/94 110/110/110 109/109/109
f 111/111/111 110/110/110 94/94/94
f 93/93/93 111/111/111 94/94/94
f 111/111/111 112/112/112 110/110/110
f 112/112/112 113/113/113 110/110/110
f 114/114/114 113/113/113 112/112/112
f 115/115/115 114/114/114 112/112/112
f 96/96/96 114/114/114 115/115/115
f 96/96/96 115/115/115 95/95/95
f 116/116/116 114/114/114 96/96/96
f 117/117/117 113/113/113 114/114/114
f 116/116/116 117/117/117 114/114/114
f 97/97/97 116/116/116 96/96/96
f 118/118/118 113/113/113 117/117/117
f 119/119/119 118/118/118 117/117/117
f 99/99/99 118/118/118 119/119/119
f 99/99/99 119/119/119 98/98/98
f 110/110/110 113/113/113 120/120/120
f 110/110/110 120/120/120 109/109/109
f 120/120/120 113/113/113 121/121/121
f 120/120/120 121/121/121 122/122/122
f 122/122/122 121/121/121 106/106/106
f 104/104/104 122/122/122 106/106/106
f 106/106/106 121/121/121 123/123/123
f 121/121/121 124/124/124 123/123/123
f 121/121/121 113/113/113 124/124/124
f 124/124/124 113/113/113 118/118/118
f 106/106/106 123/123/123 107/107/107
f 124/124/124 118/118/118 125/125/125
f 125/125/125 118/118/118 99/99/99
f 108/108/108 125/125/125 99/99/99
f 119/119/119 126/126/126 98/98/98
f 127/127/127 126/126/126 119/119/119
f 117/117/117 127/127/127 119/119/119
f 128/128/128 127/127/127 117/117/117
f 116/116/116 128/128/128 117/117/117
f 116/116/116 129/129/129 128/128/128
f 97/97/97 129/129/129 116/116/116
f 97/97/97 126/126/126 129/129/129
f 98/98/98 126/126/126 97/97/97
f 124/124/124 130/130/130 123/123/123
f 130/130/130 131/131/131 123/123/123
f 124/124/124 132/132/132 130/130/130
f 125/125/125 132/132/132 124/124/124
f 123/123/123 131/131/131 107/107/107
f 125/125/125 133/133/133 132/132/132
f 131/131/131 133/133/133 107/107/107
f 107/107/107 133/133/133 108/108/108
f 108/108/108 133/133/133 125/125/125
f 129/129/129 134/134/134 128/128/128
f 128/128/128 134/134/134 127/127/127
f 126/126/126 134/134/134 129/129/129
f 127/127/127 134/134/134 126/126/126
f 130/130/130 135/135/135 131/131/131
f 132/132/132 135/135/135 130/130/130
f 131/131/131 135/135/135 133/133/133
f 133/133/133 135/135/135 132/132/132
f 10/10/10 136/136/136 23/23/23
f 12/12/12 136/136/136 10/10/10
f 23/23/23 136/136/136 26/26/26
f 27/27/27 136/136/136 12/12/12
f 26/26/26 136/136/136 38/38/38
f 27/27/27 137/137/137 136/136/136
f 136/136/136 36/36/36 38/38/38
f 136/136/136 137/137/137 36/36/36
f 30/30/30 138/138/138 20/20/20
f 20/20/20 138/138/138 21/21/21
f 32/32/32 138/138/138 30/30/30
f 21/21/21 138/138/138 33/33/33
f 44/44/44 138/138/138 32/32/32
f 138/138/138 139/139/139 33/33/33
f 44/44/44 42/42/42 138/138/138
f 42/42/42 139/139/139 138/138/138
f 93/93/93 140/140/140 111/111/111
f 95/95/95 140/140/140 93/93/93
f 140/140/140 141/141/141 111/111/111
f 95/95/95 142/142/142 140/140/140
f 111/111/111 141/141/141 112/112/112
f 115/115/115 142/142/142 95/95/95
f 115/115/115 143/143/143 142/142/142
f 141/141/141 143/143/143 112/112/112
f 112/112/112 143/143/143 115/115/115
f 142/142/142 144/144/144 140/140/140
f 140/140/140 144/144/144 141/141/141
f 143/143/143 144/144/144 142/142/142
f 141/141/141 144/144/144 143/143/143
f 109/109/109 145/145/145 105/105/105
f 105/105/105 145/145/145 104/104/104
f 109/109/109 146/146/146 145/145/145
f 145/145/145 147/147/147 104/104/104
f 120/120/120 146/146/146 109/109/109
f 104/104/104 147/147/147 122/122/122
f 147/147/147 148/148/148 122/122/122
f 120/120/120 148/148/148 146/146/146
f 122/122/122 148/148/148 120/120/120
f 145/145/145 149/149/149 147/147/147
f 146/146/146 149/149/149 145/145/145
f 147/147/147 149/149/149 148/148/148
f 148/148/148 149/149/149 146/146/146
f 59/59/59 150/150/150 69/69/69
f 151/151/151 150/150/150 59/59/59
f 69/69/69 150/150/150 71/71/71
f 150/150/150 73/73/73 71/71/71
f 63/63/63 150/150/150 151/151/151
f 80/80/80 150/150/150 63/63/63
f 78/78/78 150/150/150 80/80/80
f 78/78/78 73/73/73 150/150/150
f 152/152/152 151/151/151 59/59/59
f 63/63/63 151/151/151 152/152/152
f 59/59/59 39/39/39 152/152/152
f 39/39/39 37/37/37 152/152/152
f 37/37/37 28/28/28 152/152/152
f 152/152/152 28/28/28 15/15/15
f 15/15/15 34/34/34 152/152/152
f 152/152/152 34/34/34 43/43/43
f 152/152/152 43/43/43 45/45/45
f 152/152/152 45/45/45 63/63/63
f 155/155/155 154/154/154 153/153/153
f 155/155/155 156/156/156 154/154/154
f 153/153/153 158/158/158 157/157/157
f 158/158/158 156/156/156 157/157/157
f 161/161/161 160/160/160 159/159/159
f 161/161/161 159/159/159 162/162/162
f 164/164/164 160/160/160 163/163/163
f 162/162/162 164/164/164 163/163/163
f 167/167/167 166/166/166 165/165/165
f 166/166/166 168/168/168 165/165/165
f 170/170/170 169/169/169 167/167/167
f 170/170/170 168/168/168 169/169/169
f 173/173/173 172/172/172 171/171/171
f 174/174/174 173/173/173 171/171/171
f 176/176/176 172/172/172 175/175/175
f 176/176/176 175/175/175 174/174/174
f 179/179/179 178/178/178 177/177/177
f 180/180/180 179/179/179 177/177/177
f 182/182/182 178/178/178 181/181/181
f 182/182/182 181/181/181 180/180/180
f 185/185/185 184/184/184 183/183/183
f 184/184/184 186/186/186 183/183/183
f 188/188/188 187/187/187 185/185/185
f 188/188/188 186/186/186 187/187/187
f 191/191/191 190/190/190 189/189/189
f 191/191/191 192/192/192 190/190/190
f 189/189/189 194/194/194 193/193/193
f 194/194/194 192/192/192 193/193/193
f 197/197/197 196/196/196 195/195/195
f 197/197/197 198/198/198 196/196/196
f 195/195/195 200/200/200 199/199/199
f 200/200/200 198/198/198 199/199/199
f 203/203/203 202/202/202 201/201/201
f 203/203/203 201/201/201 204/204/204
f 206/206/206 205/205/205 202/202/202
f 204/204/204 205/205/205 206/206/206
f 209/209/209 208/208/208 207/207/207
f 210/210/210 208/208/208 209/209/209
f 207/207/207 212/212/212 211/211/211
f 212/212/212 210/210/210 211/211/211
f 215/215/215 214/214/214 213/213/213
f 213/213/213 214/214/214 216/216/216
f 218/218/218 215/215/215 217/217/217
f 216/216/216 218/218/218 217/217/217
f 221/221/221 220/220/220 219/219/219
f 221/221/221 222/222/222 220/220/220
f 219/219/219 224/224/224 223/223/223
f 223/223/223 224/224/224 222/222/222
f 227/227/227 226/226/226 225/225/225
f 228/228/228 227/227/227 225/225/225
f 226/226/226 230/230/230 229/229/229
f 229/229/229 230/230/230 228/228/228
f 233/233/233 232/232/232 231/231/231
f 231/231/231 232/232/232 234/234/234
f 236/236/236 235/235/235 233/233/233
f 236/236/236 234/234/234 235/235/235
f 239/239/239 238/238/238 237/237/237
f 237/237/237 240/240/240 239/239/239
f 238/238/238 241/241/241 237/237/237
f 237/237/237 241/241/241 240/240/240
f 242/242/242 238/238/238 239/239/239
f 239/239/239 240/240/240 243/243/243
f 244/244/244 241/241/241 238/238/238
f 242/242/242 244/244/244 238/238/238
f 240/240/240 241/241/241 245/245/245
f 240/240/240 245/245/245 243/243/243
f 244/244/244 246/246/246 241/241/241
f 241/241/241 247/247/247 245/245/245
f 248/248/248 242/242/242 239/239/239
f 239/239/239 243/243/243 248/248/248
f 249/249/249 244/244/244 242/242/242
f 249/249/249 246/246/246 244/244/244
f 243/243/243 245/245/245 250/250/250
f 245/245/245 247/247/247 250/250/250
f 246/246/246 251/251/251 241/241/241
f 241/241/241 251/251/251 247/247/247
f 252/252/252 242/242/242 248/248/248
f 252/252/252 249/249/249 242/242/242
f 248/248/248 243/243/243 253/253/253
f 243/243/243 250/250/250 253/253/253
f 254/254/254 246/246/246 249/249/249
f 254/254/254 251/251/251 246/246/246
f 250/250/250 247/247/247 255/255/255
f 247/247/247 251/251/251 255/255/255
f 256/256/256 249/249/249 252/252/252
f 256/256/256 254/254/254 249/249/249
f 253/253/253 250/250/250 257/257/257
f 250/250/250 255/255/255 257/257/257
f 248/248/248 258/258/258 252/252/252
f 253/253/253 258/258/258 248/248/248
f 258/258/258 256/256/256 252/252/252
f 253/253/253 257/257/257 258/258/258
f 259/259/259 251/251/251 254/254/254
f 255/255/255 251/251/251 259/259/259
f 260/260/260 254/254/254 256/256/256
f 258/258/258 260/260/260 256/256/256
f 260/260/260 259/259/259 254/254/254
f 257/257/257 255/255/255 261/261/261
f 257/257/257 261/261/261 258/258/258
f 255/255/255 259/259/259 261/261/261
f 258/258/258 262/262/262 260/260/260
f 261/261/261 262/262/262 258/258/258
f 262/262/262 259/259/259 260/260/260
f 261/261/261 259/259/259 262/262/262
f 265/265/265 264/264/264 263/263/263
f 263/263/263 266/266/266 265/265/265
f 265/265/265 267/267/267 264/264/264
f 266/266/266 267/267/267 265/265/265
f 263/263/263 264/264/264 268/268/268
f 269/269/269 266/266/266 263/263/263
f 264/264/264 267/267/267 270/270/270
f 264/264/264 270/270/270 268/268/268
f 271/271/271 267/267/267 266/266/266
f 269/269/269 271/271/271 266/266/266
f 267/267/267 272/272/272 270/270/270
f 271/271/271 273/273/273 267/267/267
f 263/263/263 268/268/268 274/274/274
f 274/274/274 269/269/269 263/263/263
f 268/268/268 270/270/270 275/275/275
f 270/270/270 272/272/272 275/275/275
f 276/276/276 271/271/271 269/269/269
f 276/276/276 273/273/273 271/271/271
f 267/267/267 277/277/277 272/272/272
f 273/273/273 277/277/277 267/267/267
f 274/274/274 268/268/268 278/278/278
f 268/268/268 275/275/275 278/278/278
f 279/279/279 269/269/269 274/274/274
f 279/279/279 276/276/276 269/269/269
f 275/275/275 272/272/272 280/280/280
f 272/272/272 277/277/277 280/280/280
f 281/281/281 273/273/273 276/276/276
f 281/281/281 277/277/277 273/273/273
f 278/278/278 275/275/275 282/282/282
f 275/275/275 280/280/280 282/282/282
f 283/283/283 276/276/276 279/279/279
f 283/283/283 281/281/281 276/276/276
f 278/278/278 284/284/284 274/274/274
f 274/274/274 284/284/284 279/279/279
f 278/278/278 282/282/282 284/284/284
f 284/284/284 283/283/283 279/279/279
f 280/280/280 277/277/277 285/285/285
f 285/285/285 277/277/277 281/281/281
f 282/282/282 280/280/280 286/286/286
f 282/282/282 286/286/286 284/284/284
f 280/280/280 285/285/285 286/286/286
f 287/287/287 281/281/281 283/283/283
f 284/284/284 287/287/287 283/283/283
f 287/287/287 285/285/285 281/281/281
f 286/286/286 288/288/288 284/284/284
f 284/284/284 288/288/288 287/287/287
f 286/286/286 285/285/285 288/288/288
f 288/288/288 285/285/285 287/287/287
f 291/291/291 290/290/290 289/289/289
f 289/289/289 290/290/290 292/292/292
f 293/293/293 291/291/291 289/289/289
f 289/289/289 292/292/292 294/294/294
f 293/293/293 289/289/289 295/295/295
f 295/295/295 289/289/289 294/294/294
f 291/291/291 296/296/296 290/290/290
f 290/290/290 297/297/297 292/292/292
f 296/296/296 298/298/298 290/290/290
f 290/290/290 298/298/298 297/297/297
f 299/299/299 293/293/293 295/295/295
f 295/295/295 294/294/294 300/300/300
f 293/293/293 301/301/301 291/291/291
f 301/301/301 296/296/296 291/291/291
f 301/301/301 298/298/298 296/296/296
f 292/292/292 302/302/302 294/294/294
f 292/292/292 297/297/297 302/302/302
f 297/297/297 298/298/298 302/302/302
f 299/299/299 295/295/295 303/303/303
f 303/303/303 295/295/295 300/300/300
f 299/299/299 304/304/304 293/293/293
f 304/304/304 301/301/301 293/293/293
f 294/294/294 305/305/305 300/300/300
f 294/294/294 302/302/302 305/305/305
f 303/303/303 306/306/306 299/299/299
f 300/300/300 306/306/306 303/303/303
f 306/306/306 304/304/304 299/299/299
f 300/300/300 305/305/305 306/306/306
f 307/307/307 298/298/298 301/301/301
f 302/302/302 298/298/298 307/307/307
f 304/304/304 307/307/307 301/301/301
f 302/302/302 307/307/307 305/305/305
f 306/306/306 308/308/308 304/304/304
f 305/305/305 308/308/308 306/306/306
f 308/308/308 307/307/307 304/304/304
f 305/305/305 307/307/307 308/308/308
f 311/311/311 310/310/310 309/309/309
f 312/312/312 310/310/310 311/311/311
f 311/311/311 309/309/309 313/313/313
f 314/314/314 312/312/312 311/311/311
f 315/315/315 311/311/311 313/313/313
f 314/314/314 311/311/311 315/315/315
f 310/310/310 316/316/316 309/309/309
f 312/312/312 317/317/317 310/310/310
f 310/310/310 318/318/318 316/316/316
f 317/317/317 318/318/318 310/310/310
f 315/315/315 313/313/313 319/319/319
f 320/320/320 314/314/314 315/315/315
f 309/309/309 321/321/321 313/313/313
f 309/309/309 316/316/316 321/321/321
f 316/316/316 318/318/318 321/321/321
f 314/314/314 322/322/322 312/312/312
f 322/322/322 317/317/317 312/312/312
f 322/322/322 318/318/318 317/317/317
f 323/323/323 315/315/315 319/319/319
f 320/320/320 315/315/315 323/323/323
f 313/313/313 324/324/324 319/319/319
f 313/313/313 321/321/321 324/324/324
f 320/320/320 325/325/325 314/314/314
f 325/325/325 322/322/322 314/314/314
f 319/319/319 326/326/326 323/323/323
f 323/323/323 326/326/326 320/320/320
f 319/319/319 324/324/324 326/326/326
f 326/326/326 325/325/325 320/320/320
f 321/321/321 318/318/318 327/327/327
f 327/327/327 318/318/318 322/322/322
f 321/321/321 327/327/327 324/324/324
f 325/325/325 327/327/327 322/322/322
f 324/324/324 328/328/328 326/326/326
f 326/326/326 328/328/328 325/325/325
f 324/324/324 327/327/327 328/328/328
f 328/328/328 327/327/327 325/325/325
f 331/331/331 330/330/330 329/329/329
f 329/329/329 330/330/330 332/332/332
f 333/333/333 331/331/331 329/329/329
f 329/329/329 332/332/332 334/334/334
f 333/333/333 329/329/329 335/335/335
f 335/335/335 329/329/329 334/334/334
f 331/331/331 336/336/336 330/330/330
f 330/330/330 337/337/337 332/332/332
f 336/336/336 338/338/338 330/330/330
f 330/330/330 338/338/338 337/337/337
f 339/339/339 333/333/333 335/335/335
f 335/335/335 334/334/334 340/340/340
f 333/333/333 341/341/341 331/331/331
f 341/341/341 336/336/336 331/331/331
f 341/341/341 338/338/338 336/336/336
f 332/332/332 342/342/342 334/334/334
f 332/332/332 337/337/337 342/342/342
f 337/337/337 338/338/338 342/342/342
f 339/339/339 335/335/335 343/343/343
f 343/343/343 335/335/335 340/340/340
f 339/339/339 344/344/344 333/333/333
f 344/344/344 341/341/341 333/333/333
f 334/334/334 345/345/345 340/340/340
f 334/334/334 342/342/342 345/345/345
f 343/343/343 346/346/346 339/339/339
f 340/340/340 346/346/346 343/343/343
f 346/346/346 344/344/344 339/339/339
f 340/340/340 345/345/345 346/346/346
f 347/347/347 338/338/338 341/341/341
f 342/342/342 338/338/338 347/347/347
f 344/344/344 347/347/347 341/341/341
f 342/342/342 347/347/347 345/345/345
f 346/346/346 348/348/348 344/344/344
f 345/345/345 348/348/348 346/346/346
f 348/348/348 347/347/347 344/344/344
f 345/345/345 347/347/347 348/348/348
f 351/351/351 350/350/350 349/349/349
f 352/352/352 350/350/350 351/351/351
f 353/353/353 350/350/350 352/352/352
f 354/354/354 350/350/350 353/353/353
f 355/355/355 350/350/350 354/354/354
f 356/356/356 350/350/350 355/355/355
f 357/357/357 350/350/350 356/356/356
f 358/358/358 350/350/350 357/357/357
f 358/358/358 359/359/359 350/350/350
f 359/359/359 360/360/360 350/350/350
f 360/360/360 361/361/361 350/350/350
f 361/361/361 362/362/362 350/350/350
f 350/350/350 362/362/362 363/363/363
f 350/350/350 363/363/363 364/364/364
f 350/350/350 364/364/364 365/365/365
f 350/350/350 365/365/365 349/349/349
g M_0002_1
usemtl a_M_0002_03
f 368/368/368 367/367/367 366/366/366
f 367/367/367 369/369/369 366/366/366
f 368/368/368 366/366/366 370/370/370
f 371/371/371 368/368/368 370/370/370
f 371/371/371 370/370/370 372/372/372
f 366/366/366 369/369/369 373/373/373
f 370/370/370 366/366/366 373/373/373
f 373/373/373 369/369/369 374/374/374
f 374/374/374 369/369/369 375/375/375
f 375/375/375 369/369/369 376/376/376
f 375/375/375 376/376/376 377/377/377
f 377/377/377 376/376/376 378/378/378
f 377/377/377 378/378/378 379/379/379
f 379/379/379 378/378/378 380/380/380
f 381/381/381 377/377/377 379/379/379
f 382/382/382 377/377/377 381/381/381
f 383/383/383 382/382/382 381/381/381
f 384/384/384 383/383/383 381/381/381
f 384/384/384 372/372/372 383/383/383
f 385/385/385 372/372/372 384/384/384
f 371/371/371 372/372/372 385/385/385
f 385/385/385 384/384/384 386/386/386
f 386/386/386 384/384/384 387/387/387
f 388/388/388 386/386/386 387/387/387
f 389/389/389 386/386/386 388/388/388
f 390/390/390 389/389/389 388/388/388
f 391/391/391 389/389/389 390/390/390
f 384/384/384 392/392/392 387/387/387
f 384/384/384 381/381/381 392/392/392
f 392/392/392 381/381/381 393/393/393
f 379/379/379 380/380/380 393/393/393
f 381/381/381 379/379/379 393/393/393
f 393/393/393 380/380/380 394/394/394
f 380/380/380 395/395/395 394/394/394
f 380/380/380 396/396/396 395/395/395
f 397/397/397 396/396/396 380/380/380
f 397/397/397 398/398/398 396/396/396
f 399/399/399 398/398/398 397/397/397
f 399/399/399 400/400/400 398/398/398
f 401/401/401 400/400/400 399/399/399
f 401/401/401 402/402/402 400/400/400
f 402/402/402 403/403/403 400/400/400
f 400/400/400 403/403/403 398/398/398
f 402/402/402 404/404/404 403/403/403
f 404/404/404 405/405/405 403/403/403
f 398/398/398 403/403/403 406/406/406
f 403/403/403 407/407/407 406/406/406
f 403/403/403 405/405/405 407/407/407
f 405/405/405 408/408/408 407/407/407
f 405/405/405 409/409/409 408/408/408
f 398/398/398 410/410/410 396/396/396
f 398/398/398 406/406/406 410/410/410
f 406/406/406 411/411/411 410/410/410
f 406/406/406 407/407/407 411/411/411
f 408/408/408 412/412/412 407/407/407
f 407/407/407 412/412/412 411/411/411
f 413/413/413 412/412/412 408/408/408
f 411/411/411 412/412/412 414/414/414
f 408/408/408 409/409/409 415/415/415
f 415/415/415 413/413/413 408/408/408
f 416/416/416 413/413/413 415/415/415
f 411/411/411 414/414/414 417/417/417
f 417/417/417 416/416/416 415/415/415
f 417/417/417 414/414/414 416/416/416
f 410/410/410 411/411/411 418/418/418
f 395/395/395 410/410/410 418/418/418
f 396/396/396 410/410/410 395/395/395
f 411/411/411 419/419/419 418/418/418
f 411/411/411 417/417/417 419/419/419
f 417/417/417 415/415/415 420/420/420
f 417/417/417 420/420/420 419/419/419
f 415/415/415 421/421/421 420/420/420
f 409/409/409 421/421/421 415/415/415
f 395/395/395 418/418/418 422/422/422
f 395/395/395 422/422/422 423/423/423
f 394/394/394 395/395/395 423/423/423
f 394/394/394 423/423/423 424/424/424
f 393/393/393 394/394/394 424/424/424
f 393/393/393 424/424/424 425/425/425
f 392/392/392 393/393/393 425/425/425
f 392/392/392 425/425/425 387/387/387
f 387/387/387 425/425/425 426/426/426
f 388/388/388 387/387/387 426/426/426
f 388/388/388 426/426/426 427/427/427
f 390/390/390 388/388/388 427/427/427
f 390/390/390 427/427/427 428/428/428
f 419/419/419 420/420/420 429/429/429
f 419/419/419 429/429/429 430/430/430
f 418/418/418 419/419/419 430/430/430
f 418/418/418 430/430/430 422/422/422
f 429/429/429 431/431/431 430/430/430
f 429/429/429 432/432/432 431/431/431
f 433/433/433 432/432/432 429/429/429
f 429/429/429 420/420/420 433/433/433
f 420/420/420 421/421/421 433/433/433
f 433/433/433 421/421/421 434/434/434
f 435/435/435 432/432/432 433/433/433
f 422/422/422 430/430/430 436/436/436
f 422/422/422 436/436/436 437/437/437
f 423/423/423 422/422/422 437/437/437
f 424/424/424 423/423/423 437/437/437
f 424/424/424 437/437/437 438/438/438
f 425/425/425 424/424/424 438/438/438
f 425/425/425 438/438/438 439/439/439
f 426/426/426 425/425/425 439/439/439
f 440/440/440 433/433/433 434/434/434
f 440/440/440 435/435/435 433/433/433
f 441/441/441 435/435/435 440/440/440
f 442/442/442 441/441/441 440/440/440
f 436/436/436 430/430/430 442/442/442
f 430/430/430 441/441/441 442/442/442
f 430/430/430 431/431/431 441/441/441
f 439/439/439 438/438/438 443/443/443
f 438/438/438 437/437/437 443/443/443
f 443/443/443 437/437/437 444/444/444
f 437/437/437 436/436/436 445/445/445
f 437/437/437 445/445/445 444/444/444
f 436/436/436 442/442/442 445/445/445
f 442/442/442 446/446/446 445/445/445
f 442/442/442 440/440/440 446/446/446
f 440/440/440 434/434/434 446/446/446
f 439/439/439 447/447/447 426/426/426
f 426/426/426 447/447/447 448/448/448
f 426/426/426 448/448/448 449/449/449
f 448/448/448 386/386/386 449/449/449
f 449/449/449 386/386/386 389/389/389
f 449/449/449 389/389/389 450/450/450
f 450/450/450 389/389/389 391/391/391
f 448/448/448 451/451/451 386/386/386
f 386/386/386 451/451/451 385/385/385
f 451/451/451 452/452/452 385/385/385
f 453/453/453 452/452/452 451/451/451
f 454/454/454 453/453/453 451/451/451
f 454/454/454 455/455/455 453/453/453
f 454/454/454 456/456/456 455/455/455
f 457/457/457 456/456/456 454/454/454
f 457/457/457 458/458/458 456/456/456
f 459/459/459 458/458/458 457/457/457
f 458/458/458 460/460/460 456/456/456
f 456/456/456 460/460/460 461/461/461
f 460/460/460 462/462/462 461/461/461
f 461/461/461 462/462/462 463/463/463
f 463/463/463 462/462/462 464/464/464
f 464/464/464 462/462/462 465/465/465
f 465/465/465 462/462/462 367/367/367
f 465/465/465 367/367/367 368/368/368
f 466/466/466 465/465/465 368/368/368
f 464/464/464 465/465/465 466/466/466
f 466/466/466 368/368/368 371/371/371
f 452/452/452 466/466/466 371/371/371
f 385/385/385 452/452/452 371/371/371
f 467/467/467 459/459/459 457/457/457
f 468/468/468 459/459/459 467/467/467
f 468/468/468 469/469/469 459/459/459
f 469/469/469 470/470/470 459/459/459
f 469/469/469 471/471/471 470/470/470
f 470/470/470 471/471/471 472/472/472
f 470/470/470 472/472/472 473/473/473
f 473/473/473 472/472/472 474/474/474
f 472/472/472 475/475/475 474/474/474
f 474/474/474 475/475/475 401/401/401
f 475/475/475 402/402/402 401/401/401
f 475/475/475 476/476/476 402/402/402
f 472/472/472 476/476/476 475/475/475
f 476/476/476 404/404/404 402/402/402
f 476/476/476 405/405/405 404/404/404
f 477/477/477 476/476/476 472/472/472
f 471/471/471 477/477/477 472/472/472
f 477/477/477 478/478/478 476/476/476
f 478/478/478 405/405/405 476/476/476
f 478/478/478 479/479/479 405/405/405
f 479/479/479 409/409/409 405/405/405
f 459/459/459 470/470/470 473/473/473
f 471/471/471 480/480/480 477/477/477
f 480/480/480 478/478/478 477/477/477
f 478/478/478 481/481/481 479/479/479
f 480/480/480 481/481/481 478/478/478
f 479/479/479 481/481/481 482/482/482
f 483/483/483 481/481/481 480/480/480
f 484/484/484 409/409/409 479/479/479
f 479/479/479 482/482/482 484/484/484
f 484/484/484 482/482/482 485/485/485
f 486/486/486 483/483/483 480/480/480
f 484/484/484 485/485/485 486/486/486
f 485/485/485 483/483/483 486/486/486
f 487/487/487 484/484/484 486/486/486
f 487/487/487 421/421/421 484/484/484
f 484/484/484 421/421/421 409/409/409
f 488/488/488 487/487/487 486/486/486
f 488/488/488 486/486/486 480/480/480
f 489/489/489 488/488/488 480/480/480
f 489/489/489 480/480/480 471/471/471
f 489/489/489 471/471/471 469/469/469
f 490/490/490 489/489/489 469/469/469
f 491/491/491 490/490/490 469/469/469
f 491/491/491 469/469/469 468/468/468
f 492/492/492 491/491/491 468/468/468
f 492/492/492 468/468/468 467/467/467
f 447/447/447 492/492/492 467/467/467
f 447/447/447 467/467/467 493/493/493
f 467/467/467 454/454/454 493/493/493
f 493/493/493 454/454/454 451/451/451
f 448/448/448 493/493/493 451/451/451
f 448/448/448 447/447/447 493/493/493
f 467/467/467 457/457/457 454/454/454
f 494/494/494 488/488/488 489/489/489
f 490/490/490 494/494/494 489/489/489
f 494/494/494 495/495/495 488/488/488
f 494/494/494 496/496/496 495/495/495
f 496/496/496 497/497/497 495/495/495
f 495/495/495 497/497/497 498/498/498
f 498/498/498 487/487/487 495/495/495
f 495/495/495 487/487/487 488/488/488
f 498/498/498 421/421/421 487/487/487
f 434/434/434 421/421/421 498/498/498
f 498/498/498 497/497/497 499/499/499
f 434/434/434 498/498/498 500/500/500
f 498/498/498 499/499/499 500/500/500
f 500/500/500 499/499/499 501/501/501
f 501/501/501 496/496/496 494/494/494
f 500/500/500 501/501/501 502/502/502
f 502/502/502 501/501/501 494/494/494
f 502/502/502 494/494/494 503/503/503
f 503/503/503 494/494/494 490/490/490
f 504/504/504 503/503/503 490/490/490
f 504/504/504 490/490/490 491/491/491
f 504/504/504 491/491/491 492/492/492
f 505/505/505 504/504/504 492/492/492
f 505/505/505 492/492/492 447/447/447
f 439/439/439 505/505/505 447/447/447
f 443/443/443 505/505/505 439/439/439
f 443/443/443 504/504/504 505/505/505
f 444/444/444 504/504/504 443/443/443
f 445/445/445 503/503/503 504/504/504
f 444/444/444 445/445/445 504/504/504
f 445/445/445 502/502/502 503/503/503
f 445/445/445 446/446/446 502/502/502
f 446/446/446 500/500/500 502/502/502
f 446/446/446 434/434/434 500/500/500
f 507/507/507 506/506/506 380/380/380
f 380/380/380 378/378/378 507/507/507
f 378/378/378 376/376/376 507/507/507
f 376/376/376 369/369/369 507/507/507
f 507/507/507 369/369/369 367/367/367
f 506/506/506 508/508/508 380/380/380
f 380/380/380 508/508/508 397/397/397
f 397/397/397 508/508/508 399/399/399
f 508/508/508 401/401/401 399/399/399
f 459/459/459 506/506/506 507/507/507
f 459/459/459 508/508/508 506/506/506
f 367/367/367 462/462/462 507/507/507
f 507/507/507 462/462/462 460/460/460
f 507/507/507 460/460/460 458/458/458
f 507/507/507 458/458/458 459/459/459
f 473/473/473 508/508/508 459/459/459
f 474/474/474 508/508/508 473/473/473
f 474/474/474 401/401/401 508/508/508
f 427/427/427 449/449/449 450/450/450
f 428/428/428 427/427/427 450/450/450
f 427/427/427 426/426/426 449/449/449
f 511/511/511 510/510/510 509/509/509
f 509/509/509 510/510/510 512/512/512
f 510/510/510 513/513/513 512/512/512
f 514/514/514 510/510/510 511/511/511
f 515/515/515 510/510/510 514/514/514
f 516/516/516 510/510/510 515/515/515
f 517/517/517 510/510/510 516/516/516
f 518/518/518 510/510/510 517/517/517
f 519/519/519 510/510/510 518/518/518
f 519/519/519 520/520/520 510/510/510
f 520/520/520 521/521/521 510/510/510
f 521/521/521 522/522/522 510/510/510
f 522/522/522 523/523/523 510/510/510
f 510/510/510 523/523/523 524/524/524
f 510/510/510 524/524/524 525/525/525
f 510/510/510 525/525/525 513/513/513
f 528/528/528 527/527/527 526/526/526
f 529/529/529 527/527/527 528/528/528
f 530/530/530 527/527/527 529/529/529
f 531/531/531 527/527/527 530/530/530
f 532/532/532 527/527/527 531/531/531
f 533/533/533 527/527/527 532/532/532
f 534/534/534 527/527/527 533/533/533
f 535/535/535 527/527/527 534/534/534
f 535/535/535 536/536/536 527/527/527
f 536/536/536 537/537/537 527/527/527
f 537/537/537 538/538/538 527/527/527
f 538/538/538 539/539/539 527/527/527
f 527/527/527 539/539/539 540/540/540
f 527/527/527 540/540/540 541/541/541
f 527/527/527 541/541/541 542/542/542
f 527/527/527 542/542/542 526/526/526
f 545/545/545 544/544/544 543/543/543
f 548/548/548 547/547/547 546/546/546
f 551/551/551 550/550/550 549/549/549
f 554/554/554 553/553/553 552/552/552
f 557/557/557 556/556/556 555/555/555
f 560/560/560 559/559/559 558/558/558
f 563/563/563 562/562/562 561/561/561
f 566/566/566 565/565/565 564/564/564
f 569/569/569 568/568/568 567/567/567
f 572/572/572 571/571/571 570/570/570
f 575/575/575 574/574/574 573/573/573
f 578/578/578 577/577/577 576/576/576
f 581/581/581 580/580/580 579/579/579
f 584/584/584 583/583/583 582/582/582
f 587/587/587 586/586/586 585/585/585
f 590/590/590 589/589/589 588/588/588
f 593/593/593 592/592/592 591/591/591
f 596/596/596 595/595/595 594/594/594
f 599/599/599 598/598/598 597/597/597
f 602/602/602 601/601/601 600/600/600
f 605/605/605 604/604/604 603/603/603
f 605/605/605 606/606/606 604/604/604
f 609/609/609 608/608/608 607/607/607
f 609/609/609 610/610/610 608/608/608
f 613/613/613 612/612/612 611/611/611
f 613/613/613 614/614/614 612/612/612
f 617/617/617 616/616/616 615/615/615
f 617/617/617 618/618/618 616/616/616
f 621/621/621 620/620/620 619/619/619
f 620/620/620 622/622/622 619/619/619
f 625/625/625 624/624/624 623/623/623
f 624/624/624 626/626/626 623/623/623
f 629/629/629 628/628/628 627/627/627
f 630/630/630 629/629/629 627/627/627
f 632/632/632 628/628/628 631/631/631
f 632/632/632 631/631/631 630/630/630
f 635/635/635 634/634/634 633/633/633
f 636/636/636 635/635/635 633/633/633
f 639/639/639 638/638/638 637/637/637
f 639/639/639 637/637/637 640/640/640
f 643/643/643 642/642/642 641/641/641
f 641/641/641 642/642/642 644/644/644
f 647/647/647 646/646/646 645/645/645
f 645/645/645 646/646/646 648/648/648
f 651/651/651 650/650/650 649/649/649
f 651/651/651 649/649/649 652/652/652
f 655/655/655 654/654/654 653/653/653
f 656/656/656 655/655/655 653/653/653
f 659/659/659 658/658/658 657/657/657
f 660/660/660 658/658/658 659/659/659
f 663/663/663 662/662/662 661/661/661
f 662/662/662 664/664/664 661/661/661
f 667/667/667 666/666/666 665/665/665
f 666/666/666 668/668/668 665/665/665
f 671/671/671 670/670/670 669/669/669
f 670/670/670 672/672/672 669/669/669
f 675/675/675 674/674/674 673/673/673
f 674/674/674 676/676/676 673/673/673
f 679/679/679 678/678/678 677/677/677
f 679/679/679 680/680/680 678/678/678
f 683/683/683 682/682/682 681/681/681
f 683/683/683 684/684/684 682/682/682
f 687/687/687 686/686/686 685/685/685
f 687/687/687 685/685/685 688/688/688
f 691/691/691 690/690/690 689/689/689
f 692/692/692 691/691/691 689/689/689
f 695/695/695 694/694/694 693/693/693
f 696/696/696 694/694/694 695/695/695
f 699/699/699 698/698/698 697/697/697
f 700/700/700 698/698/698 699/699/699
f 703/703/703 702/702/702 701/701/701
f 704/704/704 703/703/703 701/701/701
f 707/707/707 706/706/706 705/705/705
f 707/707/707 705/705/705 708/708/708
f 711/711/711 710/710/710 709/709/709
f 709/709/709 710/710/710 712/712/712
f 715/715/715 714/714/714 713/713/713
f 713/713/713 714/714/714 716/716/716
f 714/714/714 717/717/717 716/716/716
f 715/715/715 717/717/717 714/714/714
f 715/715/715 714/714/714 718/718/718
f 718/718/718 714/714/714 716/716/716
f 714/714/714 719/719/719 716/716/716
f 715/715/715 719/719/719 714/714/714
f 720/720/720 714/714/714 713/713/713
f 720/720/720 717/717/717 714/714/714
f 714/714/714 721/721/721 713/713/713
f 717/717/717 721/721/721 714/714/714
f 724/724/724 723/723/723 722/722/722
f 722/722/722 725/725/725 724/724/724
f 723/723/723 726/726/726 722/722/722
f 722/722/722 726/726/726 725/725/725
f 729/729/729 728/728/728 727/727/727
f 728/728/728 730/730/730 727/727/727
f 731/731/731 728/728/728 729/729/729
f 731/731/731 730/730/730 728/728/728
f 734/734/734 733/733/733 732/732/732
f 732/732/732 735/735/735 734/734/734
f 733/733/733 736/736/736 732/732/732
f 732/732/732 736/736/736 735/735/735
f 739/739/739 738/738/738 737/737/737
f 737/737/737 740/740/740 739/739/739
f 739/739/739 741/741/741 738/738/738
f 740/740/740 741/741/741 739/739/739
f 744/744/744 743/743/743 742/742/742
f 742/742/742 745/745/745 744/744/744
f 744/744/744 746/746/746 743/743/743
f 745/745/745 746/746/746 744/744/744
