mtllib M_0051.mtl
g M_0051
v -0 -0.0539999977 2.57399988
v -0.0719999969 0 2.57399988
v -0.0899999961 0 2.78999996
v -0 -0.0719999969 2.78999996
v 0.0899999961 0 2.78999996
v 0.0719999969 0 2.57399988
v -0 -0.0539999977 2.42999983
v 0.0539999977 0 2.42999983
v -0.0539999977 0 2.42999983
v -0.0359999985 -0.0359999985 2.06999993
v 0.0359999985 -0.0719999969 2.06999993
v -0 -0.0449999981 1.78199995
v 0.0179999992 -0.0719999969 1.78199995
v 0.0359999985 0 2.06999993
v 0.0179999992 -0.0269999988 1.78199995
v 0.0179999992 -0.0359999985 1.49399996
v -0 -0.0539999977 1.49399996
v 0.0179999992 -0.0719999969 1.47599995
v -0 0.0539999977 2.57399988
v -0 0.0719999969 2.78999996
v -0 0.0539999977 2.42999983
v 0.0359999985 0.0719999969 2.06999993
v 0.0179999992 0.0719999969 1.78199995
v -0 0.0449999981 1.78199995
v -0.0359999985 0.0359999985 2.06999993
v 0.0179999992 0.0269999988 1.78199995
v 0.0179999992 0.0359999985 1.49399996
v -0 0.0539999977 1.49399996
v 0.0179999992 0.0719999969 1.47599995
v -0.0359999985 -1.61999989 2.53799987
v -0.107999995 -1.74599993 2.48399997
v -0.0539999977 -1.76399994 2.51999998
v -0.162 -1.90799987 2.46599984
v -0.0719999969 -1.69199991 2.57399988
v -0.162 -1.72799993 2.51999998
v -0.107999995 -1.76399994 2.55599999
v -0.162 -1.90799987 2.46599984
v -0.107999995 -1.74599993 2.48399997
v -0.0179999992 -0.179999992 1.51199996
v 0.0179999992 -0.179999992 1.20599997
v 0.0179999992 -0.162 1.51199996
v -0 -0.197999984 1.20599997
v 0.0179999992 -0.179999992 0.881999969
v -0 -0.215999991 0.881999969
v 0.0179999992 -0.215999991 1.20599997
v 0.0179999992 -0.233999997 0.881999969
v -0 -0.215999991 1.51199996
v 0.0179999992 -0.125999987 1.78199995
v -0.0179999992 -0.143999994 1.78199995
v -0 -0.197999984 0.539999962
v 0.0539999977 -0.162 0.539999962
v 0.0179999992 -0.143999994 0.503999949
v 0.0179999992 -0.162 0.359999985
v 0.0539999977 -0.215999991 0.539999962
v 0.0539999977 -0.179999992 0.359999985
v 0.0179999992 -0.179999992 0.881999969
v 0.0179999992 -0.233999997 0.881999969
v 0.0539999977 -0.215999991 0.539999962
v 0.0539999977 -0.162 0.539999962
v 0.0539999977 -0.179999992 0.359999985
v 0.0179999992 -0.162 0.359999985
v 0.0359999985 -0.0719999969 2.06999993
v -0.0179999992 -0.0899999961 2.06999993
v -0 -0.0539999977 2.42999983
v -0 -0.125999987 2.06999993
v -0 -0.179999992 1.78199995
v -0.0719999969 -1.69199991 2.57399988
v -0.0539999977 -1.76399994 2.51999998
v -0.107999995 -1.76399994 2.55599999
v -0.162 -1.90799987 2.46599984
v -0.0359999985 -1.61999989 2.53799987
v -0 -0.215999991 1.51199996
v 0.0179999992 -0.162 1.51199996
v -0 -0.179999992 1.78199995
v 0.0179999992 -0.125999987 1.78199995
v 0.0359999985 -0.0719999969 2.06999993
v -0 -0.125999987 2.06999993
v -0 -0.0539999977 2.42999983
v -0.0539999977 0 2.42999983
v -0.0359999985 -0.0359999985 2.06999993
v 0.0359999985 0 2.06999993
v -0.0359999985 0.0359999985 2.06999993
v 0.0539999977 -1.76399994 2.51999998
v 0.107999995 -1.74599993 2.48399997
v 0.0359999985 -1.61999989 2.53799987
v 0.162 -1.90799987 2.46599984
v 0.107999995 -1.76399994 2.55599999
v 0.0539999977 -1.76399994 2.51999998
v 0.0719999969 -1.69199991 2.57399988
v 0.162 -1.90799987 2.46599984
v 0.0359999985 -1.61999989 2.53799987
v 0.107999995 -0.0899999961 2.89799976
v -0 -0.162 2.89799976
v -0 -0.107999995 3.0059998
v -0.107999995 -0.0899999961 2.89799976
v -0 -0.0719999969 2.78999996
v -0.0899999961 0 2.78999996
v -0.162 0 2.89799976
v 0.0899999961 0 2.78999996
v 0.162 0 2.89799976
v -0.107999995 0 3.0059998
v -0 0 3.05999994
v 0.107999995 0 3.0059998
v 0.107999995 0.0899999961 2.89799976
v -0.107999995 0.0899999961 2.89799976
v -0 0.0719999969 2.78999996
v -0 0.162 2.89799976
v -0 0.107999995 3.0059998
v -0 -1.47599995 2.6099999
v -0.0899999961 -1.47599995 2.55599999
v -0 -1.3499999 2.55599999
v -0 -1.47599995 2.50199986
v 0.0899999961 -1.47599995 2.55599999
v -0.0719999969 -1.56599998 2.55599999
v -0 -1.56599998 2.59200001
v -0 -1.56599998 2.51999998
v 0.0719999969 -1.56599998 2.55599999
v -0 -1.60199988 2.55599999
v -0.0539999977 1.76399994 2.51999998
v -0.107999995 1.74599993 2.48399997
v -0.0359999985 1.61999989 2.53799987
v -0.162 1.90799987 2.46599984
v -0.107999995 1.76399994 2.55599999
v -0.0719999969 1.69199991 2.57399988
v 0.0179999992 0.162 1.51199996
v 0.0179999992 0.179999992 1.20599997
v -0.0179999992 0.179999992 1.51199996
v -0 0.197999984 1.20599997
v 0.0179999992 0.179999992 0.881999969
v -0 0.215999991 0.881999969
v 0.0179999992 0.215999991 1.20599997
v 0.0179999992 0.233999997 0.881999969
v -0 0.215999991 1.51199996
v 0.0179999992 0.125999987 1.78199995
v -0.0179999992 0.143999994 1.78199995
v -0 0.197999984 0.539999962
v 0.0539999977 0.162 0.539999962
v 0.0179999992 0.143999994 0.503999949
v 0.0179999992 0.162 0.359999985
v 0.0539999977 0.215999991 0.539999962
v 0.0539999977 0.179999992 0.359999985
v 0.0179999992 0.179999992 0.881999969
v 0.0179999992 0.233999997 0.881999969
v 0.0539999977 0.215999991 0.539999962
v 0.0539999977 0.162 0.539999962
v 0.0539999977 0.179999992 0.359999985
v 0.0179999992 0.162 0.359999985
v 0.0359999985 0.0719999969 2.06999993
v -0.0179999992 0.0899999961 2.06999993
v -0 0.0539999977 2.42999983
v -0 0.125999987 2.06999993
v -0 0.179999992 1.78199995
v -0 0.215999991 1.51199996
v 0.0179999992 0.162 1.51199996
v -0 0.179999992 1.78199995
v 0.0179999992 0.125999987 1.78199995
v 0.0359999985 0.0719999969 2.06999993
v -0 0.125999987 2.06999993
v -0 0.0539999977 2.42999983
v 0.0359999985 1.61999989 2.53799987
v 0.107999995 1.74599993 2.48399997
v 0.0539999977 1.76399994 2.51999998
v 0.162 1.90799987 2.46599984
v 0.107999995 1.76399994 2.55599999
v 0.0719999969 1.69199991 2.57399988
v -0 1.3499999 2.55599999
v -0.0899999961 1.47599995 2.55599999
v -0 1.47599995 2.6099999
v -0 1.47599995 2.50199986
v 0.0899999961 1.47599995 2.55599999
v -0.0719999969 1.56599998 2.55599999
v -0 1.56599998 2.59200001
v -0 1.56599998 2.51999998
v 0.0719999969 1.56599998 2.55599999
v -0 1.60199988 2.55599999
v 0.098999992 -0.224999994 3.05099988
v 0.098999992 -0.287999988 2.97899985
v 0.0269999988 -0.215999991 2.98799992
v 0.170999989 -0.215999991 2.98799992
v 0.098999992 -0.206999987 2.91599989
v 0.098999992 -0.143999994 2.98799992
v 0.107999995 -1.74599993 2.48399997
v 0.162 -1.90799987 2.46599984
v 0.162 -1.72799993 2.51999998
v 0.107999995 -1.76399994 2.55599999
v 0.0719999969 -1.69199991 2.57399988
v 0.0359999985 -1.61999989 2.53799987
v -0.107999995 1.74599993 2.48399997
v -0.162 1.90799987 2.46599984
v -0.162 1.72799993 2.51999998
v -0.107999995 1.76399994 2.55599999
v -0.0719999969 1.69199991 2.57399988
v -0.0359999985 1.61999989 2.53799987
v 0.162 1.72799993 2.51999998
v 0.162 1.90799987 2.46599984
v 0.107999995 1.74599993 2.48399997
v 0.107999995 1.76399994 2.55599999
v 0.0719999969 1.69199991 2.57399988
v 0.0359999985 1.61999989 2.53799987
v -0 -0.269999981 3.18599987
v -0.269999981 0 3.18599987
v -0 0 3.22199988
v -0.324000001 -0.324000001 3.09599996
v -0 -0.449999988 3.09599996
v -0 -0.521999955 2.93399978
v -0.359999985 -0.359999985 2.93399978
v -0.521999955 0 2.93399978
v -0.449999988 0 3.09599996
v -0.269999981 0 3.18599987
v -0.305999994 -0.287999988 2.78999996
v -0.413999975 0 2.78999996
v -0 -0.413999975 2.78999996
v -0 0 2.84399986
v -0 0.269999981 3.18599987
v -0.324000001 0.324000001 3.09599996
v -0 0.449999988 3.09599996
v -0 0.521999955 2.93399978
v -0.359999985 0.359999985 2.93399978
v -0.305999994 0.287999988 2.78999996
v -0 0.413999975 2.78999996
v 0.324000001 0.324000001 3.09599996
v 0.269999981 0 3.18599987
v 0.359999985 0.359999985 2.93399978
v 0.521999955 0 2.93399978
v 0.449999988 0 3.09599996
v 0.269999981 0 3.18599987
v 0.305999994 0.287999988 2.78999996
v 0.413999975 0 2.78999996
v 0.324000001 -0.324000001 3.09599996
v 0.359999985 -0.359999985 2.93399978
v 0.305999994 -0.287999988 2.78999996
v -0.107999995 -0.125999987 2.84399986
v -0.143999994 0 2.71799994
v -0.233999997 0 2.84399986
v -0 -0.0899999961 2.71799994
v -0 -0.0899999961 2.62799978
v -0.0539999977 -0.0719999969 2.55599999
v -0.107999995 0 2.55599999
v -0.107999995 0 2.37599993
v -0 -0.107999995 2.48399997
v -0 -0.143999994 2.3039999
v -0.143999994 -0.0539999977 2.23199987
v 0.0719999969 -0.305999994 2.12399983
v -0.179999992 -0.251999974 2.08799982
v -0 -0.269999981 2.01599979
v 0.107999995 -0.467999995 2.03399992
v -0.107999995 0.125999987 2.84399986
v -0 0.0899999961 2.71799994
v 0.107999995 0.143999994 2.84399986
v -0.0539999977 0.0719999969 2.55599999
v -0 0.0899999961 2.62799978
v -0 0.107999995 2.48399997
v -0 0.143999994 2.3039999
v -0.143999994 0.0539999977 2.23199987
v 0.0719999969 0.305999994 2.12399983
v -0.179999992 0.251999974 2.08799982
v -0 0.269999981 2.01599979
v 0.107999995 0.467999995 2.03399992
v 0.143999994 0 2.71799994
v 0.233999997 0 2.84399986
v 0.0539999977 0.0719999969 2.55599999
v 0.107999995 0 2.57399988
v 0.125999987 0 2.44799995
v 0.179999992 0 2.25
v 0.143999994 0.179999992 2.03399992
v 0.233999997 0.107999995 2.05199981
v 0.305999994 0 1.9799999
v 0.324000001 0.341999978 1.85399997
v 0.557999969 0.215999991 1.94399989
v 0.629999995 0 1.78199995
v 0.107999995 -0.143999994 2.84399986
v 0.0539999977 -0.0719999969 2.55599999
v 0.233999997 -0.107999995 2.05199981
v 0.143999994 -0.179999992 2.03399992
v 0.324000001 -0.341999978 1.85399997
v 0.557999969 -0.215999991 1.94399989
v 0.143999994 -0.179999992 2.03399992
v -0 -0.233999997 1.83599997
v -0.143999994 -0.0539999977 2.23199987
v -0 -0.143999994 2.3039999
v 0.251999974 -0.251999974 1.74599993
v 0.215999991 -0.341999978 1.49399996
v 0.324000001 -0.359999985 1.47599995
v 0.0719999969 -0.413999975 1.54799998
v 0.575999975 -0.665999949 1.20599997
v 0.683999956 -0.611999989 1.16999996
v 0.0899999961 -0.737999976 1.278
v 0.341999978 -0.611999989 1.13399994
v 0.575999975 -0.665999949 1.20599997
v 0.575999975 -0.413999975 1.0079999
v 0.233999997 -0.107999995 2.05199981
v 0.341999978 -0.143999994 1.67399991
v 0.305999994 0 1.9799999
v 0.395999968 0 1.63799989
v 0.503999949 -0.215999991 1.43999994
v 0.557999969 -0.0719999969 1.42199993
v 1.0259999 -0.395999968 1.0079999
v 0.881999969 -0.449999988 1.07999992
v 0.575999975 -0.413999975 1.0079999
v 0.953999937 -0.0899999961 0.773999989
v 0.341999978 0.143999994 1.67399991
v 0.233999997 0.107999995 2.05199981
v 0.251999974 0.251999974 1.74599993
v 0.143999994 0.179999992 2.03399992
v -0 0.233999997 1.83599997
v -0.143999994 0.0539999977 2.23199987
v -0 0.143999994 2.3039999
v 0.215999991 0.341999978 1.49399996
v 0.324000001 0.359999985 1.47599995
v 0.0719999969 0.413999975 1.54799998
v 0.575999975 0.665999949 1.20599997
v 0.683999956 0.611999989 1.16999996
v 0.0899999961 0.737999976 1.278
v 0.341999978 0.611999989 1.13399994
v 0.575999975 0.665999949 1.20599997
v 0.575999975 0.413999975 1.0079999
v 0.503999949 0.215999991 1.43999994
v 0.557999969 0.0719999969 1.42199993
v 1.0259999 0.395999968 1.0079999
v 0.881999969 0.449999988 1.07999992
v 0.575999975 0.413999975 1.0079999
v 0.953999937 0.0899999961 0.773999989
v -0.0539999977 -0.341999978 2.55599999
v -0.0539999977 -0.0719999969 2.55599999
v -0 -0.0899999961 2.62799978
v -0 -0.341999978 2.57399988
v -0.0359999985 -0.575999975 2.55599999
v -0 -0.575999975 2.57399988
v -0.0719999969 -0.845999956 2.55599999
v -0 -0.845999956 2.6099999
v -0.125999987 -1.07999992 2.55599999
v -0 -1.07999992 2.62799978
v -0.143999994 -1.296 2.55599999
v -0 -1.296 2.6099999
v 0.0539999977 -0.341999978 2.55599999
v 0.0539999977 -0.0719999969 2.55599999
v 0.0359999985 -0.575999975 2.55599999
v 0.0719999969 -0.845999956 2.55599999
v 0.107999995 -1.07999992 2.55599999
v 0.143999994 -1.296 2.55599999
v -0 -0.107999995 2.48399997
v -0 -0.341999978 2.51999998
v -0 -0.575999975 2.53799987
v -0 -0.845999956 2.50199986
v -0 -1.07999992 2.48399997
v -0 -1.296 2.48399997
v -0 0.0899999961 2.62799978
v -0.0539999977 0.0719999969 2.55599999
v -0.0539999977 0.341999978 2.55599999
v -0 0.341999978 2.57399988
v -0.0359999985 0.575999975 2.55599999
v -0 0.575999975 2.57399988
v -0.0719999969 0.845999956 2.55599999
v -0 0.845999956 2.6099999
v -0.125999987 1.07999992 2.55599999
v -0 1.07999992 2.62799978
v -0.143999994 1.296 2.55599999
v -0 1.296 2.6099999
v 0.0539999977 0.341999978 2.55599999
v 0.0539999977 0.0719999969 2.55599999
v 0.0359999985 0.575999975 2.55599999
v 0.0719999969 0.845999956 2.55599999
v 0.107999995 1.07999992 2.55599999
v 0.143999994 1.296 2.55599999
v -0 0.107999995 2.48399997
v -0 0.341999978 2.51999998
v -0 0.575999975 2.53799987
v -0 0.845999956 2.50199986
v -0 1.07999992 2.48399997
v -0 1.296 2.48399997
v -0.107999995 -1.52999997 2.63699985
v -0.143999994 -1.296 2.55599999
v -0 -1.296 2.6099999
v -0.215999991 -1.52999997 2.55599999
v -0.143999994 -1.69199991 2.53799987
v -0 -1.69199991 2.6099999
v -0 -1.74599993 2.50199986
v 0.143999994 -1.69199991 2.53799987
v 0.107999995 -1.52999997 2.63699985
v -0.107999995 -1.52999997 2.63699985
v 0.143999994 -1.296 2.55599999
v 0.215999991 -1.52999997 2.55599999
v -0 -1.60199988 2.46599984
v 0.215999991 -1.52999997 2.55599999
v -0 -1.296 2.48399997
v -0.215999991 -1.52999997 2.55599999
v -0 1.296 2.6099999
v -0.143999994 1.296 2.55599999
v -0.107999995 1.52999997 2.63699985
v -0.215999991 1.52999997 2.55599999
v -0.143999994 1.69199991 2.53799987
v -0 1.69199991 2.6099999
v -0 1.74599993 2.50199986
v 0.143999994 1.69199991 2.53799987
v 0.107999995 1.52999997 2.63699985
v -0.107999995 1.52999997 2.63699985
v 0.143999994 1.296 2.55599999
v 0.215999991 1.52999997 2.55599999
v -0 1.60199988 2.46599984
v 0.215999991 1.52999997 2.55599999
v -0 1.296 2.48399997
v -0.215999991 1.52999997 2.55599999
v -0.0719999969 -0.341999978 2.55599999
v -0.0899999961 -0.143999994 2.55599999
v -0 -0.143999994 2.6639998
v -0 -0.341999978 2.6099999
v 0.0719999969 -0.341999978 2.55599999
v 0.0899999961 -0.143999994 2.55599999
v -0 -0.162 2.46599984
v -0 -0.341999978 2.50199986
v -0 -0.575999975 2.50199986
v -0.0539999977 -0.575999975 2.55599999
v -0.107999995 -0.845999956 2.55599999
v -0 -0.845999956 2.48399997
v -0.162 -1.07999992 2.55599999
v -0 -1.07999992 2.44799995
v -0.197999984 -1.296 2.55599999
v -0 -1.296 2.44799995
v -0 -1.58399987 2.40299988
v -0 -0.845999956 2.62799978
v -0 -0.575999975 2.6099999
v -0 -1.07999992 2.6639998
v -0 -1.296 2.6639998
v 0.107999995 -0.845999956 2.55599999
v 0.0539999977 -0.575999975 2.55599999
v 0.143999994 -1.07999992 2.55599999
v 0.197999984 -1.296 2.55599999
v -0.287999988 -1.52999997 2.55599999
v -0.215999991 -1.70999992 2.51999998
v -0 -1.79999995 2.49299979
v -0 -1.72799993 2.64599991
v 0.197999984 -1.70999992 2.51999998
v 0.287999988 -1.52999997 2.55599999
v 0.162 -1.52999997 2.63699985
v -0 -1.52999997 2.69099998
v -0.162 -1.52999997 2.63699985
v 0.233999997 0 2.25
v 0.350999981 0 2.00699997
v 0.251999974 -0.125999987 2.08799982
v 0.692999959 -0.260999978 1.93499994
v 0.737999976 0 1.75499988
v 0.395999968 -0.404999971 1.8269999
v 0.0899999961 -0.324000001 2.15999985
v 0.0179999992 -0.197999984 2.33099985
v 0.125999987 -0.566999972 2.079
v -0.0269999988 -0.305999994 1.9799999
v -0.162 -0.0719999969 2.25
v -0 -0.162 2.46599984
v -0.162 -0.0179999992 2.39399981
v -0.0899999961 -0.143999994 2.55599999
v -0.162 0 2.57399988
v -0.224999994 -0.287999988 2.06999993
v 0.251999974 0.125999987 2.08799982
v 0.0179999992 0.197999984 2.33099985
v 0.0899999961 0.324000001 2.15999985
v 0.395999968 0.404999971 1.8269999
v 0.692999959 0.260999978 1.93499994
v 0.125999987 0.566999972 2.079
v -0.0269999988 0.305999994 1.9799999
v -0.162 0.0719999969 2.25
v -0 0.162 2.46599984
v -0.162 0.0179999992 2.39399981
v -0.0899999961 0.143999994 2.55599999
v -0.224999994 0.287999988 2.06999993
v 0.0899999961 0.143999994 2.55599999
v 0.162 0 2.57399988
v 0.0899999961 -0.143999994 2.55599999
v -0 -0.143999994 2.6639998
v 0.269999981 0 2.82599998
v -0 -0.215999991 2.82599998
v -0.287999988 0 2.82599998
v -0 0.143999994 2.6639998
v -0 0.215999991 2.82599998
v 0.602999985 -0.737999976 1.16999996
v 0.359999985 -0.674999952 1.08899999
v 0.215999991 -0.377999991 1.49399996
v 0.368999988 -0.395999968 1.46699989
v 0.755999982 -0.656999946 1.13399994
v 0.665999949 -0.485999972 0.98999995
v 0.260999978 -0.305999994 1.72799993
v -0.0269999988 -0.269999981 1.83599997
v 0.162 -0.233999997 2.05199981
v -0.162 -0.107999995 2.23199987
v 0.521999955 -0.251999974 1.43099999
v 0.908999979 -0.530999959 1.05299997
v 1.125 -0.431999981 0.953999937
v 0.368999988 -0.179999992 1.64699996
v 0.458999991 0 1.61099994
v 0.341999978 0 1.9799999
v 0.602999985 -0.0539999977 1.40399992
v 0.251999974 -0.143999994 2.06999993
v 1.0079999 -0.0719999969 0.719999969
v 0.368999988 0.179999992 1.64699996
v 0.521999955 0.251999974 1.43099999
v 0.602999985 0.0539999977 1.40399992
v 0.368999988 0.395999968 1.46699989
v 0.665999949 0.485999972 0.98999995
v 0.755999982 0.656999946 1.13399994
v 0.602999985 0.737999976 1.16999996
v 0.215999991 0.377999991 1.49399996
v 0.359999985 0.674999952 1.08899999
v 0.260999978 0.305999994 1.72799993
v -0.0269999988 0.269999981 1.83599997
v 0.162 0.233999997 2.05199981
v -0.162 0.107999995 2.23199987
v 0.908999979 0.530999959 1.05299997
v 1.125 0.431999981 0.953999937
v 0.251999974 0.143999994 2.06999993
v 1.0079999 0.0719999969 0.719999969
v 0.0359999985 0.800999939 1.278
v 0.0359999985 0.449999988 1.54799998
v 0.233999997 0.269999981 1.49399996
v 0.0359999985 0.809999943 1.278
v 0.324000001 0.620999992 1.03499997
v 0.629999995 0.648000002 1.10699999
v -0.0269999988 0.215999991 1.83599997
v 0.215999991 0.233999997 1.70999992
v 0.143999994 0.179999992 2.03399992
v -0.143999994 0.0539999977 2.23199987
v 0.341999978 0.107999995 1.61999989
v 0.233999997 0.269999981 1.49399996
v 0.305999994 0 1.9799999
v 0.377999991 0 1.60199988
v 0.341999978 -0.107999995 1.61999989
v 0.449999988 -0.162 1.38599992
v 0.557999969 -0.0899999961 1.40399992
v 1.04399991 -0.413999975 0.93599999
v 0.953999937 -0.098999992 0.701999962
v 0.215999991 -0.233999997 1.70999992
v 0.233999997 -0.269999981 1.49399996
v 0.143999994 -0.179999992 2.03399992
v 0.530999959 -0.431999981 0.917999983
v 0.629999995 -0.648000002 1.10699999
v 1.04399991 -0.413999975 0.93599999
v 0.449999988 0.162 1.38599992
v 0.557999969 0.0899999961 1.40399992
v 1.04399991 0.413999975 0.93599999
v 0.953999937 0.098999992 0.701999962
v -0.0269999988 -0.215999991 1.83599997
v 0.233999997 -0.269999981 1.49399996
v 0.143999994 -0.179999992 2.03399992
v -0.143999994 -0.0539999977 2.23199987
v 0.0359999985 -0.449999988 1.54799998
v 0.0359999985 -0.809999943 1.278
v 0.324000001 -0.620999992 1.03499997
v 0.629999995 -0.648000002 1.10699999
v 0.0359999985 -0.800999939 1.278
v 1.04399991 0.413999975 0.93599999
v 0.530999959 0.431999981 0.917999983
v 0.629999995 0.648000002 1.10699999
v -0.449999988 -0.449999988 2.93399978
v -0.413999975 0 2.75399995
v -0.648000002 0 2.93399978
v -0.305999994 -0.305999994 2.75399995
v -0 -0.648000002 2.93399978
v -0 -0.413999975 2.75399995
v -0.431999981 -0.431999981 3.13199997
v -0.611999989 0 3.13199997
v -0 -0.611999989 3.13199997
v -0.305999994 -0.305999994 3.29399991
v -0.413999975 0 3.29399991
v -0 -0.413999975 3.29399991
v -0 0 3.36599994
v 0.305999994 -0.305999994 2.75399995
v 0.449999988 -0.449999988 2.93399978
v 0.413999975 0 2.75399995
v 0.648000002 0 2.93399978
v 0.431999981 -0.431999981 3.13199997
v 0.611999989 0 3.13199997
v 0.305999994 -0.305999994 3.29399991
v 0.413999975 0 3.29399991
v -0.305999994 0.305999994 3.29399991
v -0.431999981 0.431999981 3.13199997
v -0.449999988 0.449999988 2.93399978
v -0.305999994 0.305999994 2.75399995
v -0 0.648000002 2.93399978
v -0 0.413999975 2.75399995
v -0 0.611999989 3.13199997
v -0 0.413999975 3.29399991
v 0.305999994 0.305999994 2.75399995
v 0.449999988 0.449999988 2.93399978
v 0.431999981 0.431999981 3.13199997
v 0.305999994 0.305999994 3.29399991
v -0 0.143999994 2.6639998
v -0.0899999961 0.143999994 2.55599999
v -0.0719999969 0.341999978 2.55599999
v -0 0.341999978 2.6099999
v 0.0719999969 0.341999978 2.55599999
v 0.0899999961 0.143999994 2.55599999
v -0 0.162 2.46599984
v -0 0.341999978 2.50199986
v -0 0.575999975 2.50199986
v -0.0539999977 0.575999975 2.55599999
v -0.107999995 0.845999956 2.55599999
v -0 0.845999956 2.48399997
v -0.162 1.07999992 2.55599999
v -0 1.07999992 2.44799995
v -0.197999984 1.296 2.55599999
v -0 1.296 2.44799995
v -0 1.58399987 2.40299988
v -0 0.845999956 2.62799978
v -0 0.575999975 2.6099999
v -0 1.07999992 2.6639998
v -0 1.296 2.6639998
v 0.107999995 0.845999956 2.55599999
v 0.0539999977 0.575999975 2.55599999
v 0.143999994 1.07999992 2.55599999
v 0.197999984 1.296 2.55599999
v -0.287999988 1.52999997 2.55599999
v -0.215999991 1.70999992 2.51999998
v -0 1.79999995 2.49299979
v -0 1.72799993 2.64599991
v 0.197999984 1.70999992 2.51999998
v 0.287999988 1.52999997 2.55599999
v 0.162 1.52999997 2.63699985
v -0 1.52999997 2.69099998
v -0.162 1.52999997 2.63699985
v 0.143999994 0.179999992 2.03399992
v -0.881999969 -2.44799995 -4.5
v -1.07999992 -1.79999995 -4.5
v -0.881999969 -2.44799995 -3.5999999
v -0.341999978 -2.84399986 -3.5999999
v -0.341999978 -2.84399986 -4.5
v 0.341999978 -2.84399986 -4.5
v 0.341999978 -2.84399986 -3.5999999
v 0.881999969 -2.44799995 -4.5
v 0.881999969 -2.44799995 -3.5999999
v -1.07999992 -1.79999995 -3.5999999
v -0.881999969 2.44799995 -3.5999999
v -1.07999992 1.79999995 -4.5
v -0.881999969 2.44799995 -4.5
v -0.341999978 2.84399986 -3.5999999
v -0.341999978 2.84399986 -4.5
v 0.341999978 2.84399986 -4.5
v 0.341999978 2.84399986 -3.5999999
v 0.881999969 2.44799995 -4.5
v 0.881999969 2.44799995 -3.5999999
v -1.07999992 1.79999995 -3.5999999
v -4.31999969 -3.5999999 -1.0079999
v -4.5 -4.13999987 -1.25999999
v -4.5 -3.5999999 -1.0079999
v -4.31999969 -4.13999987 -1.25999999
v -4.5 -4.3739996 -1.79999995
v -4.31999969 -4.3739996 -1.79999995
v -4.5 -4.13999987 -2.33999991
v -4.31999969 -4.13999987 -2.33999991
v -4.5 -3.5999999 -2.57399988
v -4.31999969 -3.5999999 -2.57399988
v -4.31999969 -3.05999994 -2.33999991
v -4.5 -3.05999994 -2.33999991
v -4.31999969 -2.82599998 -1.79999995
v -4.5 -2.82599998 -1.79999995
v -4.31999969 -3.05999994 -1.25999999
v -4.5 -3.05999994 -1.25999999
v -4.5 3.5999999 -1.0079999
v -4.5 4.13999987 -1.25999999
v -4.31999969 3.5999999 -1.0079999
v -4.31999969 4.13999987 -1.25999999
v -4.5 4.3739996 -1.79999995
v -4.31999969 4.3739996 -1.79999995
v -4.5 4.13999987 -2.33999991
v -4.31999969 4.13999987 -2.33999991
v -4.5 3.5999999 -2.57399988
v -4.31999969 3.5999999 -2.57399988
v -4.31999969 3.05999994 -2.33999991
v -4.5 3.05999994 -2.33999991
v -4.31999969 2.82599998 -1.79999995
v -4.5 2.82599998 -1.79999995
v -4.31999969 3.05999994 -1.25999999
v -4.5 3.05999994 -1.25999999
v 5.39999962 -0.440999985 -1.47599995
v 5.39999962 -0.530999959 -1.79999995
v 4.13999987 -0.530999959 -1.79999995
v 4.13999987 -0.530999959 -1.73699987
v 5.39999962 -0.530999959 -1.73699987
v 5.39999962 -0.440999985 -2.12399983
v 4.13999987 0.530999959 -1.79999995
v 5.39999962 0.530999959 -1.79999995
v 5.39999962 0.440999985 -1.47599995
v 5.39999962 0.440999985 -2.12399983
v 5.39999962 0.530999959 -1.73699987
v 4.13999987 0.530999959 -1.73699987
v 5.39999962 -0.324000001 -2.24099994
v 5.39999962 0 -2.33099985
v 4.13999987 0 -2.33099985
v 5.39999962 0.324000001 -2.24099994
v 4.13999987 0 -1.26899993
v 5.39999962 0 -1.26899993
v 5.39999962 -0.324000001 -1.35899997
v 5.39999962 0.324000001 -1.35899997
v 5.39999962 -0.431999981 -1.86299992
v 5.39999962 -0.314999998 -2.11500001
v 4.13999987 -0.314999998 -2.11500001
v 5.39999962 -0.0629999936 -2.23199987
v 4.13999987 0.296999991 -1.5029999
v 5.39999962 0.296999991 -1.5029999
v 5.39999962 0.0629999936 -1.38599992
v 5.39999962 0.413999975 -1.73699987
v 5.39999962 0.0629999936 -2.23199987
v 5.39999962 0.296999991 -2.11500001
v 4.13999987 0.296999991 -2.11500001
v 5.39999962 0.413999975 -1.86299992
v 4.13999987 -0.314999998 -1.5029999
v 5.39999962 -0.314999998 -1.5029999
v 5.39999962 -0.431999981 -1.73699987
v 5.39999962 -0.0629999936 -1.38599992
v -3.5999999 0 -1.79099989
v -3.5999999 0.926999986 -2.727
v -3.5999999 0.926999986 -0.863999963
v -3.5999999 -0.926999986 -0.863999963
v -3.5999999 -0.926999986 -2.727
v -0 0 -2.69999981
v -1.79999995 1.79999995 -2.69999981
v 1.79999995 1.79999995 -2.69999981
v 1.79999995 -1.79999995 -2.69999981
v -1.79999995 -1.79999995 -2.69999981
v -1.64699996 -3.5999999 -1.79999995
v -1.64699996 -2.89799976 -2.50199986
v -1.64699996 -2.89799976 -1.09799993
v -1.64699996 -4.30200005 -1.09799993
v -1.64699996 -4.30200005 -2.50199986
v -1.06199992 -3.01499987 -1.21499991
v -1.06199992 -4.18499994 -1.79999995
v -1.06199992 -3.01499987 -1.79999995
v -1.06199992 -4.18499994 -1.21499991
v -1.06199992 -4.18499994 -2.38499999
v -1.06199992 -3.01499987 -2.38499999
v -1.06199992 -6.88499975 -1.79999995
v -1.06199992 -5.71499968 -1.79999995
v -1.06199992 -6.88499975 -1.21499991
v -1.06199992 -5.71499968 -1.21499991
v -1.06199992 -5.71499968 -2.38499999
v -1.06199992 -6.88499975 -2.38499999
v -1.64699996 2.89799976 -1.09799993
v -1.64699996 2.89799976 -2.50199986
v -1.64699996 3.5999999 -1.79999995
v -1.64699996 4.30200005 -1.09799993
v -1.64699996 4.30200005 -2.50199986
v -1.06199992 3.01499987 -1.79999995
v -1.06199992 4.18499994 -1.79999995
v -1.06199992 3.01499987 -1.21499991
v -1.06199992 4.18499994 -1.21499991
v -1.06199992 4.18499994 -2.38499999
v -1.06199992 3.01499987 -2.38499999
v -1.64699996 6.29999971 -1.79999995
v -1.64699996 7.00199986 -2.50199986
v -1.64699996 7.00199986 -1.09799993
v -1.64699996 5.59799957 -1.09799993
v -1.64699996 5.59799957 -2.50199986
v -1.06199992 6.88499975 -1.21499991
v -1.06199992 5.71499968 -1.79999995
v -1.06199992 6.88499975 -1.79999995
v -1.06199992 5.71499968 -1.21499991
v -1.06199992 5.71499968 -2.38499999
v -1.06199992 6.88499975 -2.38499999
v -0 0.269999981 3.19499993
v 0.324000001 0.324000001 3.13199997
v 0.269999981 0 3.19499993
v -0 0 3.22199988
v -0 -0.269999981 3.19499993
v 0.324000001 -0.324000001 3.13199997
v -0.269999981 0 3.19499993
v -0.324000001 0.324000001 3.13199997
v -0.324000001 -0.324000001 3.13199997
v 0.476999968 0 3.09599996
v 0.557999969 0 2.93399978
v 0.350999981 -0.350999981 3.09599996
v 0.350999981 0.350999981 3.09599996
v 0.557999969 0 2.93399978
v -0 0.539999962 2.93399978
v 0.377999991 0.377999991 2.93399978
v -0 -0.476999968 3.09599996
v -0 -0.539999962 2.93399978
v -0.350999981 -0.350999981 3.09599996
v 0.377999991 -0.377999991 2.93399978
v -0 -0.539999962 2.93399978
v 0.350999981 -0.350999981 3.09599996
v -0.377999991 -0.377999991 2.93399978
v -0.557999969 0 2.93399978
v -0.350999981 -0.350999981 3.09599996
v -0.350999981 0.350999981 3.09599996
v -0.377999991 0.377999991 2.93399978
v 0.341999978 -0.359999985 1.47599995
v 0.593999982 -0.422999978 1.0079999
v 0.701999962 -0.611999989 1.16999996
v 0.899999976 -0.467999995 1.07999992
v 0.521999955 -0.215999991 1.43999994
v 0.593999982 -0.0810000002 1.37699997
v 0.971999943 -0.0899999961 0.773999989
v 1.04399991 -0.395999968 1.0079999
v 0.233999997 -0.341999978 1.49399996
v 0.350999981 -0.620999992 1.13399994
v 0.116999999 -0.737999976 1.278
v 0.0899999961 -0.305999994 2.12399983
v 0.341999978 -0.341999978 1.85399997
v 0.125999987 -0.467999995 2.03399992
v 0.324000001 0 1.9799999
v 0.648000002 0 1.78199995
v 0.575999975 -0.215999991 1.94399989
v 0.341999978 -0.341999978 1.85399997
v 0.251999974 -0.107999995 2.05199981
v 0.575999975 0.215999991 1.94399989
v 0.648000002 0 1.78199995
v 0.0899999961 -0.305999994 2.12399983
v -0.162 -0.287999988 2.08799982
v -0.125999987 -0.0810000002 2.23199987
v -0.350999981 0.350999981 3.09599996
v -0 0.539999962 2.93399978
v -0 0.476999968 3.09599996
v 0.701999962 0.611999989 1.16999996
v 0.593999982 0.422999978 1.0079999
v 0.341999978 0.359999985 1.47599995
v 0.521999955 0.215999991 1.43999994
v 0.899999976 0.467999995 1.07999992
v 1.04399991 0.395999968 1.0079999
v 0.971999943 0.0899999961 0.773999989
v 0.593999982 0.0810000002 1.37699997
v 0.116999999 0.737999976 1.278
v 0.350999981 0.620999992 1.13399994
v 0.233999997 0.341999978 1.49399996
v 0.125999987 0.467999995 2.03399992
v 0.341999978 0.341999978 1.85399997
v 0.0899999961 0.305999994 2.12399983
v 0.251999974 0.107999995 2.05199981
v 0.341999978 0.341999978 1.85399997
v 0.575999975 0.215999991 1.94399989
v -0.125999987 0.0810000002 2.23199987
v -0.162 0.287999988 2.08799982
v 0.0899999961 0.305999994 2.12399983
v -0 -1.296 2.61899996
v 0.107999995 -1.52099991 2.63699985
v -0.107999995 -1.52099991 2.63699985
v 0.107999995 -1.52099991 2.63699985
v -0 -1.69199991 2.61899996
v -0.107999995 -1.52099991 2.63699985
v -0.107999995 1.52099991 2.63699985
v 0.107999995 1.52099991 2.63699985
v -0 1.296 2.61899996
v -0 1.69199991 2.61899996
v 0.557999969 -0.0719999969 1.42199993
v 0.917999983 -0.332999974 1.10699999
v 0.503999949 -0.215999991 1.43999994
v 0.503999949 0.215999991 1.43999994
v 0.917999983 0.332999974 1.10699999
v 0.557999969 0.0719999969 1.42199993
v 0.305999994 -0.359999985 1.47599995
v 0.557999969 -0.413999975 1.0079999
v 0.485999972 -0.215999991 1.43999994
v 0.485999972 0.215999991 1.43999994
v 0.557999969 0.413999975 1.0079999
v 0.305999994 0.359999985 1.47599995
v -1.64699996 -7.00199986 -1.09799993
v -1.64699996 -7.00199986 -2.50199986
v -1.64699996 -6.29999971 -1.79999995
v -1.64699996 -5.59799957 -1.09799993
v -1.64699996 -5.59799957 -2.50199986
vt 0.00390599994 0.535156012
vt 0.121094003 0.535156012
vt 0.121094003 0.613281012
vt 0.00390599994 0.613281012
vt 0.121094003 0.613281012
vt 0.121094003 0.535156012
vt 0.00390599994 0.472656012
vt 0.121094003 0.472656012
vt 0.121094003 0.472656012
vt 0.0664059967 0.285156012
vt 0.00390599994 0.285156012
vt 0.0664059967 0.136719003
vt 0.0273439996 0.136719003
vt 0.121094003 0.285156012
vt 0.0976559967 0.136719003
vt 0.121094003 0.355468988
vt 0.0585939996 0.355468988
vt 0.00390599994 0.355468988
vt 0.00390599994 0.535156012
vt 0.00390599994 0.613281012
vt 0.00390599994 0.472656012
vt 0.00390599994 0.285156012
vt 0.0273439996 0.136719003
vt 0.0664059967 0.136719003
vt 0.0664059967 0.285156012
vt 0.0976559967 0.136719003
vt 0.121094003 0.355468988
vt 0.0585939996 0.355468988
vt 0.00390599994 0.355468988
vt 0.121094003 0.878906012
vt 0.121094003 0.996093988
vt 0.00390599994 0.996093988
vt 0.121094003 0.816406012
vt 0.121094003 0.949218988
vt 0.0429689996 0.941406012
vt 0.121094003 0.996093988
vt 0.121094003 0.816406012
vt 0.121094003 0.996093988
vt 0.0664059967 0.0976559967
vt 0.121094003 0.00390599994
vt 0.121094003 0.0976559967
vt 0.0664059967 0.00390599994
vt 0.121094003 0.261718988
vt 0.0664059967 0.261718988
vt 0.00390599994 0.00390599994
vt 0.00390599994 0.261718988
vt 0.00390599994 0.0976559967
vt 0.121094003 0.191405997
vt 0.0664059967 0.191405997
vt 0.0742190033 0.535156012
vt 0.121094003 0.535156012
vt 0.121094003 0.613281012
vt 0.0820309967 0.613281012
vt 0.00390599994 0.535156012
vt 0.00390599994 0.613281012
vt 0.121094003 0.230469003
vt 0.00390599994 0.230469003
vt 0.00390599994 0.425781012
vt 0.121094003 0.511718988
vt 0.00390599994 0.582031012
vt 0.00390599994 0.613281012
vt 0.121094003 0.277343988
vt 0.0664059967 0.277343988
vt 0.0585939996 0.613281012
vt 0.00390599994 0.277343988
vt 0.00390599994 0.191405997
vt 0.00390599994 0.949218988
vt 0.121094003 0.996093988
vt 0.00390599994 0.996093988
vt 0.00390599994 0.816406012
vt 0.00390599994 0.878906012
vt 0.00390599994 0.128905997
vt 0.121094003 0.128905997
vt 0.00390599994 0.238280997
vt 0.121094003 0.238280997
vt 0.121094003 0.363281012
vt 0.00390599994 0.363281012
vt 0.0507810004 0.613281012
vt 0.121094003 0.496093988
vt 0.0664059967 0.300781012
vt 0.121094003 0.300781012
vt 0.0664059967 0.300781012
vt 0.00390599994 0.996093988
vt 0.121094003 0.996093988
vt 0.121094003 0.878906012
vt 0.121094003 0.816406012
vt 0.00390599994 0.996093988
vt 0.121094003 0.996093988
vt 0.00390599994 0.949218988
vt 0.00390599994 0.816406012
vt 0.00390599994 0.878906012
vt 0.0742190033 0.917968988
vt 0.00390599994 0.917968988
vt 0.00390599994 0.847656012
vt 0.0742190033 0.917968988
vt 0.00390599994 0.996093988
vt 0.0351560004 0.996093988
vt 0.121094003 0.917968988
vt 0.0351560004 0.996093988
vt 0.121094003 0.917968988
vt 0.0820309967 0.847656012
vt 0.00390599994 0.816406012
vt 0.0820309967 0.847656012
vt 0.0742190033 0.917968988
vt 0.0742190033 0.917968988
vt 0.00390599994 0.996093988
vt 0.00390599994 0.917968988
vt 0.00390599994 0.847656012
vt 0.121094003 0.855468988
vt 0.00390599994 0.855468988
vt 0.00390599994 0.753906012
vt 0.121094003 0.855468988
vt 0.00390599994 0.855468988
vt 0.00390599994 0.941406012
vt 0.0820309967 0.941406012
vt 0.0820309967 0.941406012
vt 0.00390599994 0.941406012
vt 0.00390599994 0.996093988
vt 0.121094003 0.996093988
vt 0.00390599994 0.996093988
vt 0.00390599994 0.878906012
vt 0.00390599994 0.816406012
vt 0.00390599994 0.996093988
vt 0.00390599994 0.949218988
vt 0.121094003 0.0976559967
vt 0.121094003 0.00390599994
vt 0.0664059967 0.0976559967
vt 0.0664059967 0.00390599994
vt 0.121094003 0.261718988
vt 0.0664059967 0.261718988
vt 0.00390599994 0.00390599994
vt 0.00390599994 0.261718988
vt 0.00390599994 0.0976559967
vt 0.121094003 0.191405997
vt 0.0664059967 0.191405997
vt 0.0742190033 0.535156012
vt 0.121094003 0.535156012
vt 0.121094003 0.613281012
vt 0.0820309967 0.613281012
vt 0.00390599994 0.535156012
vt 0.00390599994 0.613281012
vt 0.121094003 0.230469003
vt 0.00390599994 0.230469003
vt 0.00390599994 0.425781012
vt 0.121094003 0.511718988
vt 0.00390599994 0.582031012
vt 0.00390599994 0.613281012
vt 0.121094003 0.277343988
vt 0.0664059967 0.277343988
vt 0.0585939996 0.613281012
vt 0.00390599994 0.277343988
vt 0.00390599994 0.191405997
vt 0.00390599994 0.128905997
vt 0.121094003 0.128905997
vt 0.00390599994 0.238280997
vt 0.121094003 0.238280997
vt 0.121094003 0.363281012
vt 0.00390599994 0.363281012
vt 0.0507810004 0.613281012
vt 0.00390599994 0.878906012
vt 0.00390599994 0.996093988
vt 0.121094003 0.996093988
vt 0.00390599994 0.816406012
vt 0.00390599994 0.996093988
vt 0.00390599994 0.949218988
vt 0.00390599994 0.996093988
vt 0.00390599994 0.902343988
vt 0.121094003 0.902343988
vt 0.121094003 0.902343988
vt 0.00390599994 0.902343988
vt 0.00390599994 0.808593988
vt 0.0820309967 0.808593988
vt 0.0820309967 0.808593988
vt 0.00390599994 0.808593988
vt 0.00390599994 0.753906012
vt 0.00390599994 0.753906012
vt 0.00390599994 0.871093988
vt 0.121094003 0.871093988
vt 0.121094003 0.871093988
vt 0.00390599994 0.996093988
vt 0.00390599994 0.871093988
vt 0.121094003 0.996093988
vt 0.121094003 0.816406012
vt 0.0429689996 0.941406012
vt 0.121094003 0.996093988
vt 0.121094003 0.949218988
vt 0.121094003 0.878906012
vt 0.121094003 0.996093988
vt 0.121094003 0.816406012
vt 0.0429689996 0.941406012
vt 0.121094003 0.996093988
vt 0.121094003 0.949218988
vt 0.121094003 0.878906012
vt 0.0429689996 0.941406012
vt 0.121094003 0.816406012
vt 0.121094003 0.996093988
vt 0.121094003 0.996093988
vt 0.121094003 0.949218988
vt 0.121094003 0.878906012
vt 0.238280997 0.730468988
vt 0.0195310004 0.730468988
vt 0.128905997 0.808593988
vt 0.128905997 0.621093988
vt 0.300781012 0.621093988
vt 0.316406012 0.550781012
vt 0.128905997 0.550781012
vt 0.316406012 0.550781012
vt 0.300781012 0.621093988
vt 0.238280997 0.730468988
vt 0.128905997 0.488281012
vt 0.292968988 0.488281012
vt 0.292968988 0.488281012
vt 0.128905997 0.394531012
vt 0.238280997 0.730468988
vt 0.128905997 0.621093988
vt 0.300781012 0.621093988
vt 0.316406012 0.550781012
vt 0.128905997 0.550781012
vt 0.128905997 0.488281012
vt 0.292968988 0.488281012
vt 0.128905997 0.621093988
vt 0.0195310004 0.730468988
vt 0.128905997 0.550781012
vt 0.316406012 0.550781012
vt 0.300781012 0.621093988
vt 0.238280997 0.730468988
vt 0.128905997 0.488281012
vt 0.292968988 0.488281012
vt 0.128905997 0.621093988
vt 0.128905997 0.550781012
vt 0.128905997 0.488281012
vt 0.496093988 0.394531012
vt 0.589843988 0.441406012
vt 0.597656012 0.394531012
vt 0.449218988 0.441406012
vt 0.449218988 0.472656012
vt 0.488281012 0.488281012
vt 0.582031012 0.488281012
vt 0.574218988 0.519531012
vt 0.457031012 0.511718988
vt 0.449218988 0.558593988
vt 0.574218988 0.574218988
vt 0.480468988 0.652343988
vt 0.597656012 0.722656012
vt 0.527343988 0.722656012
vt 0.496093988 0.722656012
vt 0.496093988 0.394531012
vt 0.449218988 0.441406012
vt 0.394531012 0.394531012
vt 0.488281012 0.488281012
vt 0.449218988 0.472656012
vt 0.457031012 0.511718988
vt 0.449218988 0.558593988
vt 0.574218988 0.574218988
vt 0.480468988 0.652343988
vt 0.597656012 0.722656012
vt 0.527343988 0.722656012
vt 0.496093988 0.722656012
vt 0.332031012 0.441406012
vt 0.292968988 0.394531012
vt 0.425781012 0.496093988
vt 0.347656012 0.488281012
vt 0.347656012 0.527343988
vt 0.339843988 0.582031012
vt 0.425781012 0.660156012
vt 0.355468988 0.652343988
vt 0.300781012 0.660156012
vt 0.386718988 0.722656012
vt 0.339843988 0.722656012
vt 0.269531012 0.722656012
vt 0.394531012 0.394531012
vt 0.425781012 0.496093988
vt 0.355468988 0.652343988
vt 0.425781012 0.660156012
vt 0.386718988 0.722656012
vt 0.339843988 0.722656012
vt 0.511718988 0.457031012
vt 0.597656012 0.480468988
vt 0.597656012 0.410156012
vt 0.550781012 0.394531012
vt 0.496093988 0.511718988
vt 0.542968988 0.566406012
vt 0.472656012 0.605468988
vt 0.597656012 0.558593988
vt 0.511718988 0.722656012
vt 0.480468988 0.722656012
vt 0.597656012 0.722656012
vt 0.542968988 0.722656012
vt 0.472656012 0.722656012
vt 0.417968988 0.722656012
vt 0.433593988 0.457031012
vt 0.394531012 0.542968988
vt 0.347656012 0.464843988
vt 0.332031012 0.558593988
vt 0.394531012 0.613281012
vt 0.316406012 0.613281012
vt 0.386718988 0.722656012
vt 0.417968988 0.722656012
vt 0.464843988 0.722656012
vt 0.269531012 0.722656012
vt 0.394531012 0.542968988
vt 0.433593988 0.457031012
vt 0.496093988 0.511718988
vt 0.511718988 0.457031012
vt 0.597656012 0.480468988
vt 0.597656012 0.410156012
vt 0.550781012 0.394531012
vt 0.542968988 0.566406012
vt 0.472656012 0.605468988
vt 0.597656012 0.558593988
vt 0.511718988 0.722656012
vt 0.480468988 0.722656012
vt 0.597656012 0.722656012
vt 0.542968988 0.722656012
vt 0.472656012 0.722656012
vt 0.417968988 0.722656012
vt 0.394531012 0.613281012
vt 0.316406012 0.613281012
vt 0.386718988 0.722656012
vt 0.417968988 0.722656012
vt 0.464843988 0.722656012
vt 0.269531012 0.722656012
vt 0.269531012 0.996093988
vt 0.386718988 0.996093988
vt 0.386718988 0.910156012
vt 0.269531012 0.910156012
vt 0.128905997 0.996093988
vt 0.128905997 0.910156012
vt 0.269531012 0.996093988
vt 0.269531012 0.910156012
vt 0.128905997 0.996093988
vt 0.128905997 0.910156012
vt 0.269531012 0.996093988
vt 0.269531012 0.910156012
vt 0.269531012 0.996093988
vt 0.386718988 0.996093988
vt 0.128905997 0.996093988
vt 0.269531012 0.996093988
vt 0.128905997 0.996093988
vt 0.269531012 0.996093988
vt 0.386718988 0.910156012
vt 0.269531012 0.910156012
vt 0.128905997 0.910156012
vt 0.269531012 0.910156012
vt 0.128905997 0.910156012
vt 0.269531012 0.910156012
vt 0.386718988 0.910156012
vt 0.386718988 0.996093988
vt 0.269531012 0.996093988
vt 0.269531012 0.910156012
vt 0.128905997 0.996093988
vt 0.128905997 0.910156012
vt 0.269531012 0.996093988
vt 0.269531012 0.910156012
vt 0.128905997 0.996093988
vt 0.128905997 0.910156012
vt 0.269531012 0.996093988
vt 0.269531012 0.910156012
vt 0.269531012 0.996093988
vt 0.386718988 0.996093988
vt 0.128905997 0.996093988
vt 0.269531012 0.996093988
vt 0.128905997 0.996093988
vt 0.269531012 0.996093988
vt 0.386718988 0.910156012
vt 0.269531012 0.910156012
vt 0.128905997 0.910156012
vt 0.269531012 0.910156012
vt 0.128905997 0.910156012
vt 0.269531012 0.910156012
vt 0.277343988 0.824218988
vt 0.386718988 0.871093988
vt 0.386718988 0.785156012
vt 0.277343988 0.902343988
vt 0.199219003 0.863281012
vt 0.199219003 0.785156012
vt 0.167969003 0.824218988
vt 0.199219003 0.863281012
vt 0.277343988 0.824218988
vt 0.277343988 0.753906012
vt 0.386718988 0.871093988
vt 0.277343988 0.902343988
vt 0.238280997 0.777343988
vt 0.277343988 0.863281012
vt 0.386718988 0.785156012
vt 0.277343988 0.863281012
vt 0.386718988 0.785156012
vt 0.386718988 0.871093988
vt 0.277343988 0.824218988
vt 0.277343988 0.902343988
vt 0.199219003 0.863281012
vt 0.199219003 0.785156012
vt 0.167969003 0.824218988
vt 0.199219003 0.863281012
vt 0.277343988 0.824218988
vt 0.277343988 0.753906012
vt 0.386718988 0.871093988
vt 0.277343988 0.902343988
vt 0.238280997 0.777343988
vt 0.277343988 0.863281012
vt 0.386718988 0.785156012
vt 0.277343988 0.863281012
vt 0.503906012 0.253906012
vt 0.558593988 0.269531012
vt 0.550781012 0.199219003
vt 0.503906012 0.199219003
vt 0.503906012 0.136719003
vt 0.558593988 0.121094003
vt 0.550781012 0.199219003
vt 0.503906012 0.199219003
vt 0.441406012 0.199219003
vt 0.441406012 0.246094003
vt 0.371093988 0.277343988
vt 0.371093988 0.199219003
vt 0.308593988 0.332031012
vt 0.308593988 0.199219003
vt 0.253906012 0.371093988
vt 0.253906012 0.199219003
vt 0.199219003 0.199219003
vt 0.371093988 0.199219003
vt 0.441406012 0.199219003
vt 0.308593988 0.199219003
vt 0.253906012 0.199219003
vt 0.371093988 0.113280997
vt 0.441406012 0.152344003
vt 0.308593988 0.0585939996
vt 0.253906012 0.0195310004
vt 0.144530997 0.324218988
vt 0.136719003 0.261718988
vt 0.128905997 0.199219003
vt 0.199219003 0.199219003
vt 0.136719003 0.136719003
vt 0.144530997 0.0664059967
vt 0.199219003 0.136719003
vt 0.230469003 0.199219003
vt 0.199219003 0.261718988
vt 0.324218988 0.386718988
vt 0.230469003 0.386718988
vt 0.261718988 0.285156012
vt 0.128905997 0.285156012
vt 0.128905997 0.386718988
vt 0.128905997 0.207030997
vt 0.277343988 0.128905997
vt 0.339843988 0.191405997
vt 0.128905997 0.0898440033
vt 0.128905997 0.0429689996
vt 0.394531012 0.0351560004
vt 0.402343988 0.222655997
vt 0.433593988 0.0351560004
vt 0.449218988 0.214844003
vt 0.464843988 0.0351560004
vt 0.324218988 0.00390599994
vt 0.261718988 0.285156012
vt 0.339843988 0.191405997
vt 0.277343988 0.128905997
vt 0.128905997 0.207030997
vt 0.128905997 0.285156012
vt 0.128905997 0.0898440033
vt 0.128905997 0.0429689996
vt 0.394531012 0.0351560004
vt 0.402343988 0.222655997
vt 0.433593988 0.0351560004
vt 0.449218988 0.214844003
vt 0.324218988 0.00390599994
vt 0.449218988 0.238280997
vt 0.457031012 0.386718988
vt 0.449218988 0.238280997
vt 0.488281012 0.222655997
vt 0.566406012 0.386718988
vt 0.566406012 0.222655997
vt 0.566406012 0.0429689996
vt 0.488281012 0.222655997
vt 0.566406012 0.222655997
vt 0.128905997 0.0976559967
vt 0.128905997 0.0429689996
vt 0.355468988 0.121094003
vt 0.355468988 0.167969003
vt 0.128905997 0.121094003
vt 0.128905997 0.183594003
vt 0.449218988 0.167969003
vt 0.449218988 0.0273439996
vt 0.535156012 0.128905997
vt 0.535156012 0.00390599994
vt 0.355468988 0.292968988
vt 0.128905997 0.246094003
vt 0.128905997 0.292968988
vt 0.449218988 0.277343988
vt 0.449218988 0.363281012
vt 0.535156012 0.386718988
vt 0.355468988 0.371093988
vt 0.566406012 0.292968988
vt 0.128905997 0.386718988
vt 0.449218988 0.277343988
vt 0.355468988 0.292968988
vt 0.355468988 0.371093988
vt 0.355468988 0.167969003
vt 0.128905997 0.183594003
vt 0.128905997 0.121094003
vt 0.128905997 0.0976559967
vt 0.355468988 0.121094003
vt 0.128905997 0.0429689996
vt 0.449218988 0.167969003
vt 0.449218988 0.0273439996
vt 0.535156012 0.128905997
vt 0.535156012 0.00390599994
vt 0.128905997 0.246094003
vt 0.128905997 0.292968988
vt 0.566406012 0.292968988
vt 0.128905997 0.386718988
vt 0.128905997 0.00390599994
vt 0.355468988 0.0507810004
vt 0.355468988 0.121094003
vt 0.128905997 0.00390599994
vt 0.128905997 0.0429689996
vt 0.128905997 0.0976559967
vt 0.449218988 0.0273439996
vt 0.449218988 0.167969003
vt 0.535156012 0.128905997
vt 0.535156012 0.00390599994
vt 0.449218988 0.277343988
vt 0.355468988 0.167969003
vt 0.535156012 0.386718988
vt 0.449218988 0.363281012
vt 0.449218988 0.277343988
vt 0.355468988 0.292968988
vt 0.355468988 0.371093988
vt 0.128905997 0.292968988
vt 0.128905997 0.386718988
vt 0.449218988 0.167969003
vt 0.355468988 0.167969003
vt 0.566406012 0.292968988
vt 0.128905997 0.183594003
vt 0.128905997 0.121094003
vt 0.128905997 0.246094003
vt 0.355468988 0.292968988
vt 0.355468988 0.371093988
vt 0.128905997 0.292968988
vt 0.128905997 0.386718988
vt 0.449218988 0.0273439996
vt 0.355468988 0.121094003
vt 0.535156012 0.128905997
vt 0.535156012 0.00390599994
vt 0.355468988 0.0507810004
vt 0.128905997 0.00390599994
vt 0.128905997 0.0429689996
vt 0.128905997 0.0976559967
vt 0.128905997 0.00390599994
vt 0.128905997 0.246094003
vt 0.128905997 0.183594003
vt 0.128905997 0.121094003
vt 0.300781012 0.00390599994
vt 0.214844003 0.316406012
vt 0.300781012 0.386718988
vt 0.207030997 0.0742190033
vt 0.300781012 0.386718988
vt 0.214844003 0.316406012
vt 0.363281012 0.0273439996
vt 0.363281012 0.371093988
vt 0.363281012 0.371093988
vt 0.449218988 0.0742190033
vt 0.441406012 0.316406012
vt 0.441406012 0.316406012
vt 0.566406012 0.199219003
vt 0.207030997 0.0742190033
vt 0.300781012 0.00390599994
vt 0.214844003 0.316406012
vt 0.300781012 0.386718988
vt 0.363281012 0.0273439996
vt 0.363281012 0.371093988
vt 0.449218988 0.0742190033
vt 0.441406012 0.316406012
vt 0.449218988 0.0742190033
vt 0.363281012 0.0273439996
vt 0.300781012 0.00390599994
vt 0.207030997 0.0742190033
vt 0.300781012 0.386718988
vt 0.214844003 0.316406012
vt 0.363281012 0.371093988
vt 0.441406012 0.316406012
vt 0.207030997 0.0742190033
vt 0.300781012 0.00390599994
vt 0.363281012 0.0273439996
vt 0.449218988 0.0742190033
vt 0.550781012 0.199219003
vt 0.558593988 0.269531012
vt 0.503906012 0.253906012
vt 0.503906012 0.199219003
vt 0.503906012 0.136719003
vt 0.558593988 0.121094003
vt 0.550781012 0.199219003
vt 0.503906012 0.199219003
vt 0.441406012 0.199219003
vt 0.441406012 0.246094003
vt 0.371093988 0.277343988
vt 0.371093988 0.199219003
vt 0.308593988 0.332031012
vt 0.308593988 0.199219003
vt 0.253906012 0.371093988
vt 0.253906012 0.199219003
vt 0.199219003 0.199219003
vt 0.371093988 0.199219003
vt 0.441406012 0.199219003
vt 0.308593988 0.199219003
vt 0.253906012 0.199219003
vt 0.371093988 0.113280997
vt 0.441406012 0.152344003
vt 0.308593988 0.0585939996
vt 0.253906012 0.0195310004
vt 0.144530997 0.324218988
vt 0.136719003 0.261718988
vt 0.128905997 0.199219003
vt 0.199219003 0.199219003
vt 0.136719003 0.136719003
vt 0.144530997 0.0664059967
vt 0.199219003 0.136719003
vt 0.230469003 0.199219003
vt 0.199219003 0.261718988
vt 0.566406012 0.292968988
vt 0.519531012 0.996093988
vt 0.519531012 0.738281012
vt 0.394531012 0.996093988
vt 0.394531012 0.925781012
vt 0.519531012 0.925781012
vt 0.519531012 0.847656012
vt 0.394531012 0.847656012
vt 0.519531012 0.738281012
vt 0.394531012 0.738281012
vt 0.394531012 0.738281012
vt 0.394531012 0.996093988
vt 0.519531012 0.738281012
vt 0.519531012 0.996093988
vt 0.394531012 0.878906012
vt 0.519531012 0.878906012
vt 0.519531012 0.824218988
vt 0.394531012 0.824218988
vt 0.519531012 0.738281012
vt 0.394531012 0.738281012
vt 0.394531012 0.738281012
vt 0.917968988 0.402343988
vt 0.917968988 0.730468988
vt 0.917968988 0.730468988
vt 0.917968988 0.402343988
vt 0.917968988 0.730468988
vt 0.917968988 0.402343988
vt 0.917968988 0.730468988
vt 0.917968988 0.402343988
vt 0.917968988 0.730468988
vt 0.917968988 0.402343988
vt 0.917968988 0.402343988
vt 0.917968988 0.730468988
vt 0.917968988 0.402343988
vt 0.917968988 0.730468988
vt 0.917968988 0.402343988
vt 0.917968988 0.730468988
vt 0.917968988 0.730468988
vt 0.917968988 0.730468988
vt 0.917968988 0.402343988
vt 0.917968988 0.402343988
vt 0.917968988 0.730468988
vt 0.917968988 0.402343988
vt 0.917968988 0.730468988
vt 0.917968988 0.402343988
vt 0.917968988 0.730468988
vt 0.917968988 0.402343988
vt 0.917968988 0.402343988
vt 0.917968988 0.730468988
vt 0.917968988 0.402343988
vt 0.917968988 0.730468988
vt 0.917968988 0.402343988
vt 0.917968988 0.730468988
vt 0.839843988 0.394531012
vt 0.996093988 0.394531012
vt 0.917968988 0.730468988
vt 0.917968988 0.730468988
vt 0.996093988 0.394531012
vt 0.839843988 0.394531012
vt 0.917968988 0.730468988
vt 0.996093988 0.394531012
vt 0.839843988 0.394531012
vt 0.839843988 0.394531012
vt 0.996093988 0.394531012
vt 0.917968988 0.730468988
vt 0.839843988 0.394531012
vt 0.996093988 0.394531012
vt 0.917968988 0.730468988
vt 0.839843988 0.394531012
vt 0.917968988 0.730468988
vt 0.996093988 0.394531012
vt 0.839843988 0.394531012
vt 0.839843988 0.394531012
vt 0.839843988 0.394531012
vt 0.996093988 0.394531012
vt 0.917968988 0.730468988
vt 0.839843988 0.394531012
vt 0.917968988 0.730468988
vt 0.996093988 0.394531012
vt 0.839843988 0.394531012
vt 0.839843988 0.394531012
vt 0.839843988 0.394531012
vt 0.996093988 0.394531012
vt 0.917968988 0.730468988
vt 0.839843988 0.394531012
vt 0.917968988 0.730468988
vt 0.996093988 0.394531012
vt 0.839843988 0.394531012
vt 0.839843988 0.394531012
vt 0.605468988 0.394531012
vt 0.605468988 0.597656012
vt 0.808593988 0.394531012
vt 0.605468988 0.597656012
vt 0.808593988 0.394531012
vt 0.605468988 0.394531012
vt 0.605468988 0.597656012
vt 0.808593988 0.394531012
vt 0.605468988 0.597656012
vt 0.808593988 0.394531012
vt 0.605468988 0.394531012
vt 0.808593988 0.394531012
vt 0.605468988 0.597656012
vt 0.808593988 0.394531012
vt 0.605468988 0.597656012
vt 0.527343988 0.730468988
vt 0.644531012 0.996093988
vt 0.644531012 0.730468988
vt 0.527343988 0.996093988
vt 0.761718988 0.996093988
vt 0.761718988 0.730468988
vt 0.644531012 0.730468988
vt 0.644531012 0.996093988
vt 0.527343988 0.730468988
vt 0.527343988 0.996093988
vt 0.761718988 0.996093988
vt 0.761718988 0.730468988
vt 0.605468988 0.597656012
vt 0.808593988 0.394531012
vt 0.605468988 0.394531012
vt 0.808593988 0.394531012
vt 0.605468988 0.597656012
vt 0.644531012 0.730468988
vt 0.644531012 0.996093988
vt 0.527343988 0.730468988
vt 0.527343988 0.996093988
vt 0.761718988 0.996093988
vt 0.761718988 0.730468988
vt 0.605468988 0.394531012
vt 0.808593988 0.394531012
vt 0.605468988 0.597656012
vt 0.808593988 0.394531012
vt 0.605468988 0.597656012
vt 0.527343988 0.730468988
vt 0.644531012 0.996093988
vt 0.644531012 0.730468988
vt 0.527343988 0.996093988
vt 0.761718988 0.996093988
vt 0.761718988 0.730468988
vt 0.871093988 0.574218988
vt 0.777343988 0.433593988
vt 0.675781012 0.574218988
vt 0.777343988 0.683593988
vt 0.871093988 0.574218988
vt 0.777343988 0.433593988
vt 0.675781012 0.574218988
vt 0.777343988 0.433593988
vt 0.777343988 0.433593988
vt 0.917968988 0.722656012
vt 0.761718988 0.722656012
vt 0.863281012 0.582031012
vt 0.761718988 0.722656012
vt 0.863281012 0.582031012
vt 0.863281012 0.582031012
vt 0.917968988 0.722656012
vt 0.917968988 0.722656012
vt 0.761718988 0.722656012
vt 0.863281012 0.582031012
vt 0.917968988 0.722656012
vt 0.863281012 0.582031012
vt 0.761718988 0.722656012
vt 0.917968988 0.722656012
vt 0.863281012 0.582031012
vt 0.761718988 0.722656012
vt 0.761718988 0.722656012
vt 0.917968988 0.722656012
vt 0.863281012 0.582031012
vt 0.761718988 0.722656012
vt 0.917968988 0.722656012
vt 0.917968988 0.722656012
vt 0.863281012 0.582031012
vt 0.863281012 0.582031012
vt 0.761718988 0.722656012
vt 0.917968988 0.722656012
vt 0.863281012 0.582031012
vt 0.761718988 0.722656012
vt 0.917968988 0.722656012
vt 0.761718988 0.722656012
vt 0.863281012 0.582031012
vt 0.917968988 0.722656012
vt 0.863281012 0.582031012
vt 0.917968988 0.722656012
vt 0.761718988 0.722656012
vt 0.917968988 0.722656012
vt 0.863281012 0.582031012
vt 0.917968988 0.722656012
vt 0.761718988 0.722656012
vt 0.863281012 0.582031012
vt 0.761718988 0.722656012
vt 0.917968988 0.722656012
vt 0.863281012 0.582031012
vt 0.761718988 0.722656012
vt 0.917968988 0.722656012
vt 0.917968988 0.722656012
vt 0.761718988 0.722656012
vt 0.863281012 0.582031012
vt 0.863281012 0.582031012
vt 0.917968988 0.722656012
vt 0.917968988 0.722656012
vt 0.761718988 0.722656012
vt 0.863281012 0.582031012
vt 0.917968988 0.722656012
vt 0.761718988 0.722656012
vt 0.863281012 0.582031012
vt 0.917968988 0.722656012
vt 0.863281012 0.582031012
vt 0.761718988 0.722656012
vt 0.863281012 0.582031012
vt 0.917968988 0.722656012
vt 0.761718988 0.722656012
vt 0.917968988 0.722656012
vt 0.761718988 0.722656012
vt 0.863281012 0.582031012
vt 0.863281012 0.582031012
vt 0.917968988 0.722656012
vt 0.761718988 0.722656012
vt 0.761718988 0.722656012
vt 0.863281012 0.582031012
vt 0.917968988 0.722656012
vt 0.917968988 0.722656012
vt 0.761718988 0.722656012
vt 0.863281012 0.582031012
vt 0.863281012 0.582031012
vt 0.917968988 0.722656012
vt 0.863281012 0.582031012
vt 0.761718988 0.722656012
vt 0.761718988 0.722656012
vt 0.863281012 0.582031012
vt 0.917968988 0.722656012
vt 0.761718988 0.722656012
vt 0.863281012 0.582031012
vt 0.917968988 0.722656012
vt 0.917968988 0.722656012
vt 0.863281012 0.582031012
vt 0.761718988 0.722656012
vt 0.605468988 0.597656012
vt 0.808593988 0.394531012
vt 0.605468988 0.394531012
vt 0.808593988 0.394531012
vt 0.605468988 0.597656012
g M_0051_0
usemtl n_M_0051_01
f 3/3/3 2/2/2 1/1/1
f 3/3/3 1/1/1 4/4/4
f 4/4/4 1/1/1 5/5/5
f 5/5/5 1/1/1 6/6/6
f 2/2/2 7/7/7 1/1/1
f 1/1/1 7/7/7 6/6/6
f 6/6/6 7/7/7 8/8/8
f 2/2/2 9/9/9 7/7/7
f 9/9/9 10/10/10 7/7/7
f 7/7/7 10/10/10 11/11/11
f 7/7/7 11/11/11 8/8/8
f 10/10/10 12/12/12 11/11/11
f 11/11/11 12/12/12 13/13/13
f 14/14/14 12/12/12 10/10/10
f 11/11/11 13/13/13 14/14/14
f 11/11/11 14/14/14 8/8/8
f 15/15/15 12/12/12 14/14/14
f 13/13/13 15/15/15 14/14/14
f 15/15/15 16/16/16 12/12/12
f 13/13/13 16/16/16 15/15/15
f 16/16/16 17/17/17 12/12/12
f 16/16/16 18/18/18 17/17/17
f 12/12/12 18/18/18 13/13/13
f 17/17/17 18/18/18 12/12/12
f 13/13/13 18/18/18 16/16/16
f 6/6/6 19/19/19 5/5/5
f 5/5/5 19/19/19 20/20/20
f 20/20/20 19/19/19 3/3/3
f 19/19/19 2/2/2 3/3/3
f 19/19/19 21/21/21 2/2/2
f 21/21/21 9/9/9 2/2/2
f 6/6/6 21/21/21 19/19/19
f 8/8/8 21/21/21 6/6/6
f 8/8/8 14/14/14 22/22/22
f 8/8/8 22/22/22 21/21/21
f 14/14/14 23/23/23 22/22/22
f 23/23/23 24/24/24 22/22/22
f 22/22/22 24/24/24 25/25/25
f 25/25/25 24/24/24 14/14/14
f 22/22/22 25/25/25 21/21/21
f 14/14/14 24/24/24 26/26/26
f 14/14/14 26/26/26 23/23/23
f 24/24/24 27/27/27 26/26/26
f 26/26/26 27/27/27 23/23/23
f 24/24/24 28/28/28 27/27/27
f 28/28/28 29/29/29 27/27/27
f 23/23/23 29/29/29 24/24/24
f 24/24/24 29/29/29 28/28/28
f 27/27/27 29/29/29 23/23/23
f 21/21/21 25/25/25 9/9/9
f 32/32/32 31/31/31 30/30/30
f 32/32/32 33/33/33 31/31/31
f 30/30/30 35/35/35 34/34/34
f 34/34/34 35/35/35 36/36/36
f 35/35/35 37/37/37 36/36/36
f 38/38/38 37/37/37 35/35/35
f 30/30/30 38/38/38 35/35/35
f 41/41/41 40/40/40 39/39/39
f 40/40/40 42/42/42 39/39/39
f 40/40/40 43/43/43 42/42/42
f 43/43/43 44/44/44 42/42/42
f 42/42/42 44/44/44 45/45/45
f 39/39/39 42/42/42 45/45/45
f 45/45/45 44/44/44 46/46/46
f 39/39/39 45/45/45 47/47/47
f 41/41/41 39/39/39 48/48/48
f 48/48/48 39/39/39 49/49/49
f 43/43/43 50/50/50 44/44/44
f 44/44/44 50/50/50 46/46/46
f 51/51/51 50/50/50 43/43/43
f 51/51/51 52/52/52 50/50/50
f 52/52/52 53/53/53 50/50/50
f 46/46/46 50/50/50 54/54/54
f 50/50/50 55/55/55 54/54/54
f 50/50/50 53/53/53 55/55/55
f 45/45/45 56/56/56 40/40/40
f 57/57/57 56/56/56 45/45/45
f 57/57/57 58/58/58 56/56/56
f 58/58/58 59/59/59 56/56/56
f 59/59/59 60/60/60 52/52/52
f 58/58/58 60/60/60 59/59/59
f 60/60/60 61/61/61 52/52/52
f 48/48/48 49/49/49 62/62/62
f 62/62/62 49/49/49 63/63/63
f 62/62/62 63/63/63 64/64/64
f 64/64/64 63/63/63 65/65/65
f 63/63/63 49/49/49 65/65/65
f 65/65/65 49/49/49 66/66/66
f 49/49/49 39/39/39 66/66/66
f 66/66/66 39/39/39 47/47/47
f 69/69/69 68/68/68 67/67/67
f 69/69/69 70/70/70 68/68/68
f 67/67/67 68/68/68 71/71/71
f 45/45/45 40/40/40 72/72/72
f 72/72/72 40/40/40 73/73/73
f 74/74/74 72/72/72 73/73/73
f 74/74/74 73/73/73 75/75/75
f 76/76/76 74/74/74 75/75/75
f 77/77/77 74/74/74 76/76/76
f 78/78/78 77/77/77 76/76/76
f 81/81/81 80/80/80 79/79/79
f 79/79/79 82/82/82 81/81/81
f 85/85/85 84/84/84 83/83/83
f 84/84/84 86/86/86 83/83/83
f 89/89/89 88/88/88 87/87/87
f 88/88/88 90/90/90 87/87/87
f 91/91/91 88/88/88 89/89/89
f 94/94/94 93/93/93 92/92/92
f 94/94/94 95/95/95 93/93/93
f 95/95/95 96/96/96 93/93/93
f 93/93/93 96/96/96 92/92/92
f 95/95/95 97/97/97 96/96/96
f 98/98/98 97/97/97 95/95/95
f 92/92/92 96/96/96 99/99/99
f 92/92/92 99/99/99 100/100/100
f 101/101/101 95/95/95 94/94/94
f 101/101/101 98/98/98 95/95/95
f 102/102/102 101/101/101 94/94/94
f 94/94/94 92/92/92 103/103/103
f 102/102/102 94/94/94 103/103/103
f 103/103/103 92/92/92 100/100/100
f 100/100/100 99/99/99 104/104/104
f 100/100/100 104/104/104 103/103/103
f 105/105/105 97/97/97 98/98/98
f 105/105/105 98/98/98 101/101/101
f 106/106/106 97/97/97 105/105/105
f 99/99/99 106/106/106 104/104/104
f 107/107/107 106/106/106 105/105/105
f 104/104/104 106/106/106 107/107/107
f 104/104/104 107/107/107 108/108/108
f 107/107/107 105/105/105 108/108/108
f 108/108/108 105/105/105 101/101/101
f 108/108/108 101/101/101 102/102/102
f 103/103/103 104/104/104 108/108/108
f 103/103/103 108/108/108 102/102/102
f 111/111/111 110/110/110 109/109/109
f 111/111/111 112/112/112 110/110/110
f 113/113/113 112/112/112 111/111/111
f 113/113/113 111/111/111 109/109/109
f 109/109/109 110/110/110 114/114/114
f 110/110/110 112/112/112 114/114/114
f 109/109/109 114/114/114 115/115/115
f 114/114/114 112/112/112 116/116/116
f 116/116/116 112/112/112 117/117/117
f 117/117/117 112/112/112 113/113/113
f 115/115/115 117/117/117 109/109/109
f 109/109/109 117/117/117 113/113/113
f 115/115/115 114/114/114 118/118/118
f 114/114/114 116/116/116 118/118/118
f 118/118/118 116/116/116 117/117/117
f 115/115/115 118/118/118 117/117/117
f 121/121/121 120/120/120 119/119/119
f 120/120/120 122/122/122 119/119/119
f 119/119/119 122/122/122 123/123/123
f 124/124/124 119/119/119 123/123/123
f 121/121/121 119/119/119 124/124/124
f 127/127/127 126/126/126 125/125/125
f 127/127/127 128/128/128 126/126/126
f 128/128/128 129/129/129 126/126/126
f 128/128/128 130/130/130 129/129/129
f 131/131/131 130/130/130 128/128/128
f 131/131/131 128/128/128 127/127/127
f 132/132/132 130/130/130 131/131/131
f 133/133/133 131/131/131 127/127/127
f 134/134/134 127/127/127 125/125/125
f 135/135/135 127/127/127 134/134/134
f 130/130/130 136/136/136 129/129/129
f 132/132/132 136/136/136 130/130/130
f 129/129/129 136/136/136 137/137/137
f 136/136/136 138/138/138 137/137/137
f 136/136/136 139/139/139 138/138/138
f 140/140/140 136/136/136 132/132/132
f 140/140/140 141/141/141 136/136/136
f 141/141/141 139/139/139 136/136/136
f 126/126/126 142/142/142 131/131/131
f 131/131/131 142/142/142 143/143/143
f 142/142/142 144/144/144 143/143/143
f 142/142/142 145/145/145 144/144/144
f 138/138/138 146/146/146 145/145/145
f 145/145/145 146/146/146 144/144/144
f 138/138/138 147/147/147 146/146/146
f 148/148/148 135/135/135 134/134/134
f 149/149/149 135/135/135 148/148/148
f 150/150/150 149/149/149 148/148/148
f 151/151/151 149/149/149 150/150/150
f 151/151/151 135/135/135 149/149/149
f 152/152/152 135/135/135 151/151/151
f 152/152/152 127/127/127 135/135/135
f 133/133/133 127/127/127 152/152/152
f 153/153/153 126/126/126 131/131/131
f 154/154/154 126/126/126 153/153/153
f 154/154/154 153/153/153 155/155/155
f 156/156/156 154/154/154 155/155/155
f 156/156/156 155/155/155 157/157/157
f 157/157/157 155/155/155 158/158/158
f 157/157/157 158/158/158 159/159/159
f 162/162/162 161/161/161 160/160/160
f 162/162/162 163/163/163 161/161/161
f 164/164/164 163/163/163 162/162/162
f 164/164/164 162/162/162 165/165/165
f 165/165/165 162/162/162 160/160/160
f 168/168/168 167/167/167 166/166/166
f 167/167/167 169/169/169 166/166/166
f 166/166/166 169/169/169 170/170/170
f 168/168/168 166/166/166 170/170/170
f 171/171/171 167/167/167 168/168/168
f 171/171/171 169/169/169 167/167/167
f 172/172/172 171/171/171 168/168/168
f 173/173/173 169/169/169 171/171/171
f 174/174/174 169/169/169 173/173/173
f 170/170/170 169/169/169 174/174/174
f 168/168/168 174/174/174 172/172/172
f 170/170/170 174/174/174 168/168/168
f 175/175/175 171/171/171 172/172/172
f 175/175/175 173/173/173 171/171/171
f 174/174/174 173/173/173 175/175/175
f 174/174/174 175/175/175 172/172/172
f 178/178/178 177/177/177 176/176/176
f 176/176/176 177/177/177 179/179/179
f 179/179/179 177/177/177 180/180/180
f 180/180/180 177/177/177 178/178/178
f 181/181/181 178/178/178 176/176/176
f 176/176/176 179/179/179 181/181/181
f 179/179/179 180/180/180 181/181/181
f 181/181/181 180/180/180 178/178/178
f 184/184/184 183/183/183 182/182/182
f 185/185/185 183/183/183 184/184/184
f 185/185/185 184/184/184 186/186/186
f 186/186/186 184/184/184 187/187/187
f 184/184/184 182/182/182 187/187/187
f 190/190/190 189/189/189 188/188/188
f 191/191/191 189/189/189 190/190/190
f 191/191/191 190/190/190 192/192/192
f 192/192/192 190/190/190 193/193/193
f 190/190/190 188/188/188 193/193/193
f 196/196/196 195/195/195 194/194/194
f 194/194/194 195/195/195 197/197/197
f 198/198/198 194/194/194 197/197/197
f 199/199/199 194/194/194 198/198/198
f 199/199/199 196/196/196 194/194/194
f 202/202/202 201/201/201 200/200/200
f 201/201/201 203/203/203 200/200/200
f 200/200/200 203/203/203 204/204/204
f 203/203/203 205/205/205 204/204/204
f 203/203/203 206/206/206 205/205/205
f 203/203/203 207/207/207 206/206/206
f 208/208/208 207/207/207 203/203/203
f 209/209/209 208/208/208 203/203/203
f 207/207/207 210/210/210 206/206/206
f 206/206/206 210/210/210 205/205/205
f 207/207/207 211/211/211 210/210/210
f 205/205/205 210/210/210 212/212/212
f 212/212/212 210/210/210 213/213/213
f 210/210/210 211/211/211 213/213/213
f 214/214/214 201/201/201 202/202/202
f 215/215/215 208/208/208 209/209/209
f 214/214/214 215/215/215 201/201/201
f 215/215/215 207/207/207 208/208/208
f 216/216/216 215/215/215 214/214/214
f 216/216/216 217/217/217 215/215/215
f 217/217/217 218/218/218 215/215/215
f 218/218/218 207/207/207 215/215/215
f 217/217/217 219/219/219 218/218/218
f 218/218/218 219/219/219 207/207/207
f 219/219/219 211/211/211 207/207/207
f 213/213/213 211/211/211 219/219/219
f 220/220/220 219/219/219 217/217/217
f 213/213/213 219/219/219 220/220/220
f 221/221/221 216/216/216 214/214/214
f 221/221/221 217/217/217 216/216/216
f 222/222/222 221/221/221 214/214/214
f 222/222/222 214/214/214 202/202/202
f 223/223/223 217/217/217 221/221/221
f 224/224/224 223/223/223 221/221/221
f 225/225/225 224/224/224 221/221/221
f 225/225/225 221/221/221 226/226/226
f 223/223/223 227/227/227 217/217/217
f 227/227/227 220/220/220 217/217/217
f 224/224/224 227/227/227 223/223/223
f 213/213/213 220/220/220 227/227/227
f 228/228/228 227/227/227 224/224/224
f 213/213/213 227/227/227 228/228/228
f 202/202/202 200/200/200 222/222/222
f 226/226/226 229/229/229 225/225/225
f 200/200/200 229/229/229 222/222/222
f 229/229/229 224/224/224 225/225/225
f 200/200/200 204/204/204 229/229/229
f 229/229/229 230/230/230 224/224/224
f 229/229/229 205/205/205 230/230/230
f 204/204/204 205/205/205 229/229/229
f 230/230/230 231/231/231 224/224/224
f 224/224/224 231/231/231 228/228/228
f 205/205/205 231/231/231 230/230/230
f 228/228/228 231/231/231 213/213/213
f 205/205/205 212/212/212 231/231/231
f 231/231/231 212/212/212 213/213/213
f 234/234/234 233/233/233 232/232/232
f 232/232/232 233/233/233 235/235/235
f 233/233/233 236/236/236 235/235/235
f 233/233/233 237/237/237 236/236/236
f 233/233/233 238/238/238 237/237/237
f 238/238/238 239/239/239 237/237/237
f 237/237/237 239/239/239 240/240/240
f 239/239/239 241/241/241 240/240/240
f 239/239/239 242/242/242 241/241/241
f 242/242/242 243/243/243 241/241/241
f 242/242/242 244/244/244 243/243/243
f 244/244/244 245/245/245 243/243/243
f 243/243/243 245/245/245 246/246/246
f 247/247/247 233/233/233 234/234/234
f 248/248/248 233/233/233 247/247/247
f 249/249/249 248/248/248 247/247/247
f 250/250/250 239/239/239 238/238/238
f 250/250/250 238/238/238 233/233/233
f 248/248/248 251/251/251 233/233/233
f 251/251/251 250/250/250 233/233/233
f 252/252/252 239/239/239 250/250/250
f 252/252/252 253/253/253 239/239/239
f 253/253/253 254/254/254 239/239/239
f 253/253/253 255/255/255 254/254/254
f 255/255/255 256/256/256 254/254/254
f 255/255/255 257/257/257 256/256/256
f 258/258/258 257/257/257 255/255/255
f 259/259/259 248/248/248 249/249/249
f 259/259/259 251/251/251 248/248/248
f 260/260/260 259/259/259 249/249/249
f 259/259/259 261/261/261 251/251/251
f 262/262/262 261/261/261 259/259/259
f 261/261/261 263/263/263 252/252/252
f 262/262/262 263/263/263 261/261/261
f 263/263/263 253/253/253 252/252/252
f 263/263/263 264/264/264 253/253/253
f 253/253/253 265/265/265 255/255/255
f 266/266/266 265/265/265 253/253/253
f 264/264/264 266/266/266 253/253/253
f 264/264/264 267/267/267 266/266/266
f 255/255/255 268/268/268 258/258/258
f 265/265/265 268/268/268 255/255/255
f 266/266/266 268/268/268 265/265/265
f 269/269/269 268/268/268 266/266/266
f 267/267/267 269/269/269 266/266/266
f 267/267/267 270/270/270 269/269/269
f 271/271/271 259/259/259 260/260/260
f 271/271/271 235/235/235 259/259/259
f 232/232/232 235/235/235 271/271/271
f 259/259/259 272/272/272 262/262/262
f 272/272/272 263/263/263 262/262/262
f 236/236/236 272/272/272 259/259/259
f 235/235/235 236/236/236 259/259/259
f 240/240/240 263/263/263 272/272/272
f 240/240/240 241/241/241 263/263/263
f 241/241/241 264/264/264 263/263/263
f 273/273/273 267/267/267 264/264/264
f 241/241/241 273/273/273 264/264/264
f 241/241/241 274/274/274 273/273/273
f 243/243/243 274/274/274 241/241/241
f 243/243/243 275/275/275 274/274/274
f 274/274/274 275/275/275 273/273/273
f 246/246/246 275/275/275 243/243/243
f 273/273/273 275/275/275 276/276/276
f 276/276/276 270/270/270 267/267/267
f 273/273/273 276/276/276 267/267/267
f 279/279/279 278/278/278 277/277/277
f 279/279/279 277/277/277 280/280/280
f 278/278/278 281/281/281 277/277/277
f 278/278/278 282/282/282 281/281/281
f 282/282/282 283/283/283 281/281/281
f 284/284/284 282/282/282 278/278/278
f 282/282/282 285/285/285 283/283/283
f 285/285/285 286/286/286 283/283/283
f 284/284/284 287/287/287 282/282/282
f 287/287/287 288/288/288 282/282/282
f 282/282/282 288/288/288 289/289/289
f 286/286/286 290/290/290 283/283/283
f 277/277/277 281/281/281 291/291/291
f 281/281/281 292/292/292 291/291/291
f 281/281/281 283/283/283 292/292/292
f 291/291/291 292/292/292 293/293/293
f 292/292/292 294/294/294 293/293/293
f 292/292/292 295/295/295 294/294/294
f 283/283/283 295/295/295 292/292/292
f 295/295/295 296/296/296 294/294/294
f 295/295/295 297/297/297 296/296/296
f 298/298/298 297/297/297 295/295/295
f 283/283/283 299/299/299 295/295/295
f 295/295/295 299/299/299 298/298/298
f 297/297/297 300/300/300 296/296/296
f 293/293/293 294/294/294 301/301/301
f 293/293/293 301/301/301 302/302/302
f 302/302/302 301/301/301 303/303/303
f 302/302/302 303/303/303 304/304/304
f 304/304/304 303/303/303 305/305/305
f 304/304/304 305/305/305 306/306/306
f 307/307/307 304/304/304 306/306/306
f 303/303/303 308/308/308 305/305/305
f 303/303/303 309/309/309 308/308/308
f 301/301/301 309/309/309 303/303/303
f 305/305/305 308/308/308 310/310/310
f 309/309/309 311/311/311 308/308/308
f 309/309/309 312/312/312 311/311/311
f 308/308/308 313/313/313 310/310/310
f 308/308/308 314/314/314 313/313/313
f 315/315/315 314/314/314 308/308/308
f 309/309/309 316/316/316 312/312/312
f 301/301/301 317/317/317 309/309/309
f 294/294/294 317/317/317 301/301/301
f 294/294/294 318/318/318 317/317/317
f 318/318/318 319/319/319 317/317/317
f 317/317/317 319/319/319 320/320/320
f 317/317/317 321/321/321 309/309/309
f 320/320/320 321/321/321 317/317/317
f 318/318/318 322/322/322 319/319/319
f 325/325/325 324/324/324 323/323/323
f 325/325/325 323/323/323 326/326/326
f 326/326/326 323/323/323 327/327/327
f 326/326/326 327/327/327 328/328/328
f 327/327/327 329/329/329 328/328/328
f 328/328/328 329/329/329 330/330/330
f 329/329/329 331/331/331 330/330/330
f 330/330/330 331/331/331 332/332/332
f 331/331/331 333/333/333 332/332/332
f 332/332/332 333/333/333 334/334/334
f 326/326/326 335/335/335 325/325/325
f 335/335/335 336/336/336 325/325/325
f 326/326/326 337/337/337 335/335/335
f 328/328/328 337/337/337 326/326/326
f 338/338/338 337/337/337 328/328/328
f 330/330/330 338/338/338 328/328/328
f 332/332/332 339/339/339 330/330/330
f 339/339/339 338/338/338 330/330/330
f 340/340/340 339/339/339 332/332/332
f 334/334/334 340/340/340 332/332/332
f 335/335/335 341/341/341 336/336/336
f 342/342/342 341/341/341 335/335/335
f 337/337/337 342/342/342 335/335/335
f 343/343/343 342/342/342 337/337/337
f 338/338/338 343/343/343 337/337/337
f 338/338/338 344/344/344 343/343/343
f 339/339/339 344/344/344 338/338/338
f 343/343/343 344/344/344 329/329/329
f 329/329/329 344/344/344 331/331/331
f 339/339/339 345/345/345 344/344/344
f 340/340/340 345/345/345 339/339/339
f 344/344/344 345/345/345 331/331/331
f 331/331/331 345/345/345 333/333/333
f 346/346/346 345/345/345 340/340/340
f 333/333/333 345/345/345 346/346/346
f 323/323/323 341/341/341 342/342/342
f 324/324/324 341/341/341 323/323/323
f 323/323/323 342/342/342 327/327/327
f 327/327/327 342/342/342 343/343/343
f 327/327/327 343/343/343 329/329/329
f 349/349/349 348/348/348 347/347/347
f 350/350/350 349/349/349 347/347/347
f 351/351/351 349/349/349 350/350/350
f 352/352/352 351/351/351 350/350/350
f 352/352/352 353/353/353 351/351/351
f 354/354/354 353/353/353 352/352/352
f 354/354/354 355/355/355 353/353/353
f 356/356/356 355/355/355 354/354/354
f 356/356/356 357/357/357 355/355/355
f 358/358/358 357/357/357 356/356/356
f 347/347/347 359/359/359 350/350/350
f 347/347/347 360/360/360 359/359/359
f 359/359/359 361/361/361 350/350/350
f 350/350/350 361/361/361 352/352/352
f 352/352/352 361/361/361 362/362/362
f 352/352/352 362/362/362 354/354/354
f 354/354/354 363/363/363 356/356/356
f 354/354/354 362/362/362 363/363/363
f 356/356/356 363/363/363 364/364/364
f 356/356/356 364/364/364 358/358/358
f 360/360/360 365/365/365 359/359/359
f 359/359/359 365/365/365 366/366/366
f 359/359/359 366/366/366 361/361/361
f 361/361/361 366/366/366 367/367/367
f 361/361/361 367/367/367 362/362/362
f 367/367/367 368/368/368 362/362/362
f 362/362/362 368/368/368 363/363/363
f 353/353/353 368/368/368 367/367/367
f 355/355/355 368/368/368 353/353/353
f 368/368/368 369/369/369 363/363/363
f 363/363/363 369/369/369 364/364/364
f 355/355/355 369/369/369 368/368/368
f 357/357/357 369/369/369 355/355/355
f 364/364/364 369/369/369 370/370/370
f 370/370/370 369/369/369 357/357/357
f 366/366/366 365/365/365 349/349/349
f 349/349/349 365/365/365 348/348/348
f 351/351/351 366/366/366 349/349/349
f 367/367/367 366/366/366 351/351/351
f 353/353/353 367/367/367 351/351/351
f 373/373/373 372/372/372 371/371/371
f 372/372/372 374/374/374 371/371/371
f 374/374/374 375/375/375 371/371/371
f 371/371/371 375/375/375 376/376/376
f 375/375/375 377/377/377 376/376/376
f 376/376/376 377/377/377 378/378/378
f 376/376/376 378/378/378 379/379/379
f 379/379/379 373/373/373 380/380/380
f 380/380/380 376/376/376 379/379/379
f 379/379/379 381/381/381 373/373/373
f 382/382/382 381/381/381 379/379/379
f 379/379/379 378/378/378 382/382/382
f 377/377/377 383/383/383 378/378/378
f 375/375/375 383/383/383 377/377/377
f 378/378/378 383/383/383 384/384/384
f 384/384/384 383/383/383 385/385/385
f 384/384/384 385/385/385 381/381/381
f 385/385/385 383/383/383 386/386/386
f 372/372/372 385/385/385 386/386/386
f 386/386/386 383/383/383 375/375/375
f 389/389/389 388/388/388 387/387/387
f 389/389/389 390/390/390 388/388/388
f 389/389/389 391/391/391 390/390/390
f 392/392/392 391/391/391 389/389/389
f 392/392/392 393/393/393 391/391/391
f 394/394/394 393/393/393 392/392/392
f 395/395/395 394/394/394 392/392/392
f 396/396/396 387/387/387 395/395/395
f 395/395/395 392/392/392 396/396/396
f 387/387/387 397/397/397 395/395/395
f 395/395/395 397/397/397 398/398/398
f 398/398/398 394/394/394 395/395/395
f 394/394/394 399/399/399 393/393/393
f 393/393/393 399/399/399 391/391/391
f 400/400/400 399/399/399 394/394/394
f 401/401/401 399/399/399 400/400/400
f 397/397/397 401/401/401 400/400/400
f 402/402/402 399/399/399 401/401/401
f 402/402/402 401/401/401 388/388/388
f 391/391/391 399/399/399 402/402/402
g M_0051_1
usemtl a_M_0051_01
f 405/405/405 404/404/404 403/403/403
f 405/405/405 403/403/403 406/406/406
f 406/406/406 407/407/407 405/405/405
f 405/405/405 407/407/407 408/408/408
f 404/404/404 409/409/409 403/403/403
f 407/407/407 409/409/409 408/408/408
f 403/403/403 409/409/409 410/410/410
f 410/410/410 409/409/409 407/407/407
f 403/403/403 410/410/410 411/411/411
f 411/411/411 410/410/410 407/407/407
f 403/403/403 411/411/411 412/412/412
f 412/412/412 411/411/411 413/413/413
f 411/411/411 414/414/414 413/413/413
f 413/413/413 414/414/414 415/415/415
f 414/414/414 416/416/416 415/415/415
f 415/415/415 416/416/416 417/417/417
f 417/417/417 416/416/416 418/418/418
f 418/418/418 419/419/419 417/417/417
f 413/413/413 415/415/415 420/420/420
f 421/421/421 413/413/413 420/420/420
f 421/421/421 407/407/407 406/406/406
f 412/412/412 413/413/413 421/421/421
f 415/415/415 417/417/417 422/422/422
f 420/420/420 415/415/415 422/422/422
f 422/422/422 417/417/417 423/423/423
f 421/421/421 403/403/403 412/412/412
f 406/406/406 403/403/403 421/421/421
f 424/424/424 414/414/414 411/411/411
f 420/420/420 424/424/424 421/421/421
f 424/424/424 411/411/411 425/425/425
f 424/424/424 425/425/425 421/421/421
f 426/426/426 414/414/414 424/424/424
f 426/426/426 416/416/416 414/414/414
f 426/426/426 424/424/424 420/420/420
f 422/422/422 426/426/426 420/420/420
f 427/427/427 416/416/416 426/426/426
f 418/418/418 416/416/416 427/427/427
f 427/427/427 419/419/419 418/418/418
f 427/427/427 426/426/426 422/422/422
f 423/423/423 427/427/427 422/422/422
f 425/425/425 411/411/411 407/407/407
f 421/421/421 425/425/425 407/407/407
f 417/417/417 419/419/419 428/428/428
f 428/428/428 419/419/419 429/429/429
f 429/429/429 419/419/419 430/430/430
f 429/429/429 430/430/430 431/431/431
f 431/431/431 430/430/430 432/432/432
f 430/430/430 419/419/419 432/432/432
f 433/433/433 419/419/419 427/427/427
f 432/432/432 419/419/419 433/433/433
f 433/433/433 427/427/427 434/434/434
f 431/431/431 432/432/432 434/434/434
f 434/434/434 432/432/432 433/433/433
f 434/434/434 427/427/427 423/423/423
f 431/431/431 434/434/434 435/435/435
f 435/435/435 434/434/434 423/423/423
f 428/428/428 429/429/429 436/436/436
f 436/436/436 429/429/429 431/431/431
f 423/423/423 436/436/436 435/435/435
f 435/435/435 436/436/436 431/431/431
f 423/423/423 417/417/417 436/436/436
f 417/417/417 428/428/428 436/436/436
f 439/439/439 438/438/438 437/437/437
f 439/439/439 440/440/440 438/438/438
f 440/440/440 441/441/441 438/438/438
f 439/439/439 442/442/442 440/440/440
f 443/443/443 442/442/442 439/439/439
f 443/443/443 439/439/439 444/444/444
f 444/444/444 439/439/439 437/437/437
f 445/445/445 442/442/442 443/443/443
f 443/443/443 446/446/446 445/445/445
f 447/447/447 443/443/443 444/444/444
f 448/448/448 447/447/447 444/444/444
f 449/449/449 447/447/447 448/448/448
f 450/450/450 449/449/449 448/448/448
f 451/451/451 449/449/449 450/450/450
f 452/452/452 446/446/446 443/443/443
f 447/447/447 452/452/452 443/443/443
f 437/437/437 438/438/438 453/453/453
f 437/437/437 453/453/453 454/454/454
f 454/454/454 453/453/453 455/455/455
f 453/453/453 456/456/456 455/455/455
f 457/457/457 456/456/456 453/453/453
f 438/438/438 457/457/457 453/453/453
f 438/438/438 441/441/441 457/457/457
f 455/455/455 456/456/456 458/458/458
f 458/458/458 459/459/459 455/455/455
f 454/454/454 455/455/455 460/460/460
f 454/454/454 460/460/460 461/461/461
f 461/461/461 460/460/460 462/462/462
f 461/461/461 462/462/462 463/463/463
f 463/463/463 462/462/462 451/451/451
f 455/455/455 459/459/459 464/464/464
f 455/455/455 464/464/464 460/460/460
f 465/465/465 437/437/437 454/454/454
f 461/461/461 465/465/465 454/454/454
f 466/466/466 437/437/437 465/465/465
f 467/467/467 437/437/437 466/466/466
f 468/468/468 467/467/467 466/466/466
f 468/468/468 466/466/466 469/469/469
f 470/470/470 468/468/468 469/469/469
f 471/471/471 468/468/468 470/470/470
f 471/471/471 451/451/451 468/468/468
f 472/472/472 451/451/451 471/471/471
f 472/472/472 463/463/463 451/451/451
f 469/469/469 466/466/466 472/472/472
f 466/466/466 465/465/465 472/472/472
f 473/473/473 472/472/472 471/471/471
f 469/469/469 472/472/472 473/473/473
f 451/451/451 450/450/450 468/468/468
f 444/444/444 437/437/437 467/467/467
f 448/448/448 444/444/444 467/467/467
f 476/476/476 475/475/475 474/474/474
f 476/476/476 474/474/474 477/477/477
f 474/474/474 478/478/478 477/477/477
f 478/478/478 479/479/479 477/477/477
f 476/476/476 477/477/477 480/480/480
f 481/481/481 476/476/476 480/480/480
f 481/481/481 480/480/480 482/482/482
f 483/483/483 481/481/481 482/482/482
f 477/477/477 479/479/479 484/484/484
f 484/484/484 479/479/479 485/485/485
f 485/485/485 486/486/486 484/484/484
f 477/477/477 484/484/484 487/487/487
f 480/480/480 477/477/477 487/487/487
f 487/487/487 484/484/484 488/488/488
f 487/487/487 488/488/488 489/489/489
f 488/488/488 484/484/484 490/490/490
f 484/484/484 486/486/486 490/490/490
f 491/491/491 487/487/487 489/489/489
f 480/480/480 487/487/487 491/491/491
f 482/482/482 480/480/480 491/491/491
f 486/486/486 492/492/492 490/490/490
f 489/489/489 488/488/488 493/493/493
f 488/488/488 494/494/494 493/493/493
f 495/495/495 494/494/494 488/488/488
f 493/493/493 494/494/494 496/496/496
f 494/494/494 497/497/497 496/496/496
f 496/496/496 497/497/497 498/498/498
f 496/496/496 498/498/498 499/499/499
f 496/496/496 499/499/499 500/500/500
f 499/499/499 501/501/501 500/500/500
f 502/502/502 496/496/496 500/500/500
f 493/493/493 496/496/496 502/502/502
f 502/502/502 500/500/500 503/503/503
f 504/504/504 502/502/502 503/503/503
f 504/504/504 503/503/503 505/505/505
f 506/506/506 497/497/497 494/494/494
f 494/494/494 507/507/507 506/506/506
f 495/495/495 507/507/507 494/494/494
f 508/508/508 493/493/493 502/502/502
f 508/508/508 502/502/502 504/504/504
f 489/489/489 493/493/493 508/508/508
f 495/495/495 509/509/509 507/507/507
f 500/500/500 501/501/501 510/510/510
f 500/500/500 510/510/510 511/511/511
f 503/503/503 500/500/500 511/511/511
f 511/511/511 513/513/513 512/512/512
f 513/513/513 514/514/514 512/512/512
f 512/512/512 514/514/514 515/515/515
f 511/511/511 512/512/512 516/516/516
f 516/516/516 512/512/512 517/517/517
f 516/516/516 517/517/517 518/518/518
f 519/519/519 516/516/516 518/518/518
f 517/517/517 521/521/521 520/520/520
f 517/517/517 520/520/520 522/522/522
f 520/520/520 523/523/523 522/522/522
f 522/522/522 523/523/523 524/524/524
f 523/523/523 525/525/525 524/524/524
f 526/526/526 525/525/525 523/523/523
f 526/526/526 527/527/527 525/525/525
f 526/526/526 528/528/528 527/527/527
f 522/522/522 524/524/524 529/529/529
f 524/524/524 530/530/530 529/529/529
f 524/524/524 525/525/525 530/530/530
f 522/522/522 529/529/529 531/531/531
f 525/525/525 532/532/532 530/530/530
f 530/530/530 532/532/532 533/533/533
f 534/534/534 532/532/532 525/525/525
f 520/520/520 535/535/535 523/523/523
f 521/521/521 535/535/535 520/520/520
f 523/523/523 535/535/535 536/536/536
f 535/535/535 537/537/537 536/536/536
f 537/537/537 538/538/538 536/536/536
f 529/529/529 540/540/540 539/539/539
f 541/541/541 529/529/529 539/539/539
f 541/541/541 539/539/539 542/542/542
f 539/539/539 540/540/540 543/543/543
f 540/540/540 544/544/544 543/543/543
f 540/540/540 545/545/545 544/544/544
f 546/546/546 545/545/545 540/540/540
f 543/543/543 547/547/547 476/476/476
f 547/547/547 475/475/475 476/476/476
f 543/543/543 476/476/476 481/481/481
f 535/535/535 549/549/549 548/548/548
f 521/521/521 549/549/549 535/535/535
f 550/550/550 549/549/549 521/521/521
f 553/553/553 552/552/552 551/551/551
f 551/551/551 552/552/552 554/554/554
f 551/551/551 554/554/554 555/555/555
f 555/555/555 554/554/554 556/556/556
f 557/557/557 553/553/553 551/551/551
f 558/558/558 553/553/553 557/557/557
f 557/557/557 551/551/551 559/559/559
f 559/559/559 551/551/551 555/555/555
f 560/560/560 558/558/558 557/557/557
f 561/561/561 558/558/558 560/560/560
f 560/560/560 557/557/557 562/562/562
f 562/562/562 557/557/557 559/559/559
f 563/563/563 561/561/561 560/560/560
f 563/563/563 560/560/560 562/562/562
f 555/555/555 556/556/556 564/564/564
f 555/555/555 564/564/564 565/565/565
f 559/559/559 555/555/555 565/565/565
f 565/565/565 564/564/564 566/566/566
f 565/565/565 566/566/566 567/567/567
f 568/568/568 565/565/565 567/567/567
f 559/559/559 565/565/565 568/568/568
f 562/562/562 559/559/559 568/568/568
f 568/568/568 567/567/567 569/569/569
f 570/570/570 568/568/568 569/569/569
f 562/562/562 568/568/568 570/570/570
f 563/563/563 562/562/562 570/570/570
f 570/570/570 569/569/569 571/571/571
f 563/563/563 570/570/570 571/571/571
f 572/572/572 558/558/558 561/561/561
f 572/572/572 561/561/561 563/563/563
f 573/573/573 558/558/558 572/572/572
f 573/573/573 553/553/553 558/558/558
f 574/574/574 553/553/553 573/573/573
f 574/574/574 552/552/552 553/553/553
f 575/575/575 552/552/552 574/574/574
f 576/576/576 575/575/575 574/574/574
f 577/577/577 575/575/575 576/576/576
f 578/578/578 574/574/574 573/573/573
f 576/576/576 574/574/574 578/578/578
f 579/579/579 573/573/573 572/572/572
f 578/578/578 573/573/573 579/579/579
f 579/579/579 572/572/572 563/563/563
f 580/580/580 577/577/577 576/576/576
f 581/581/581 580/580/580 576/576/576
f 581/581/581 576/576/576 578/578/578
f 566/566/566 580/580/580 581/581/581
f 567/567/567 566/566/566 581/581/581
f 567/567/567 581/581/581 582/582/582
f 582/582/582 581/581/581 578/578/578
f 582/582/582 578/578/578 579/579/579
f 569/569/569 567/567/567 582/582/582
f 569/569/569 582/582/582 583/583/583
f 583/583/583 582/582/582 579/579/579
f 583/583/583 579/579/579 563/563/563
f 571/571/571 569/569/569 583/583/583
f 571/571/571 583/583/583 563/563/563
f 586/586/586 585/585/585 584/584/584
f 587/587/587 586/586/586 584/584/584
f 584/584/584 588/588/588 587/587/587
f 589/589/589 588/588/588 584/584/584
f 586/586/586 590/590/590 585/585/585
f 589/589/589 590/590/590 588/588/588
f 591/591/591 590/590/590 586/586/586
f 588/588/588 590/590/590 591/591/591
f 592/592/592 591/591/591 586/586/586
f 588/588/588 591/591/591 592/592/592
f 593/593/593 592/592/592 586/586/586
f 594/594/594 592/592/592 593/593/593
f 594/594/594 595/595/595 592/592/592
f 596/596/596 595/595/595 594/594/594
f 596/596/596 597/597/597 595/595/595
f 598/598/598 597/597/597 596/596/596
f 599/599/599 597/597/597 598/598/598
f 598/598/598 600/600/600 599/599/599
f 601/601/601 596/596/596 594/594/594
f 601/601/601 594/594/594 602/602/602
f 587/587/587 588/588/588 602/602/602
f 602/602/602 594/594/594 593/593/593
f 603/603/603 598/598/598 596/596/596
f 603/603/603 596/596/596 601/601/601
f 604/604/604 598/598/598 603/603/603
f 593/593/593 586/586/586 602/602/602
f 602/602/602 586/586/586 587/587/587
f 592/592/592 595/595/595 605/605/605
f 602/602/602 605/605/605 601/601/601
f 606/606/606 592/592/592 605/605/605
f 602/602/602 606/606/606 605/605/605
f 605/605/605 595/595/595 607/607/607
f 595/595/595 597/597/597 607/607/607
f 601/601/601 605/605/605 607/607/607
f 601/601/601 607/607/607 603/603/603
f 607/607/607 597/597/597 608/608/608
f 608/608/608 597/597/597 599/599/599
f 599/599/599 600/600/600 608/608/608
f 603/603/603 607/607/607 608/608/608
f 603/603/603 608/608/608 604/604/604
f 588/588/588 606/606/606 602/602/602
f 588/588/588 592/592/592 606/606/606
f 609/609/609 600/600/600 598/598/598
f 610/610/610 600/600/600 609/609/609
f 611/611/611 600/600/600 610/610/610
f 612/612/612 611/611/611 610/610/610
f 613/613/613 611/611/611 612/612/612
f 613/613/613 600/600/600 611/611/611
f 608/608/608 600/600/600 614/614/614
f 614/614/614 600/600/600 613/613/613
f 604/604/604 608/608/608 615/615/615
f 615/615/615 608/608/608 614/614/614
f 614/614/614 613/613/613 615/615/615
f 615/615/615 613/613/613 612/612/612
f 616/616/616 615/615/615 612/612/612
f 604/604/604 615/615/615 616/616/616
f 616/616/616 617/617/617 604/604/604
f 612/612/612 617/617/617 616/616/616
f 612/612/612 610/610/610 617/617/617
f 617/617/617 610/610/610 609/609/609
f 617/617/617 609/609/609 598/598/598
f 617/617/617 598/598/598 604/604/604
f 618/618/618 517/517/517 522/522/522
f 621/621/621 620/620/620 619/619/619
f 621/621/621 619/619/619 622/622/622
f 622/622/622 619/619/619 623/623/623
f 622/622/622 623/623/623 624/624/624
f 622/622/622 624/624/624 625/625/625
f 625/625/625 624/624/624 626/626/626
f 625/625/625 626/626/626 627/627/627
f 628/628/628 620/620/620 621/621/621
f 631/631/631 630/630/630 629/629/629
f 632/632/632 631/631/631 629/629/629
f 633/633/633 631/631/631 632/632/632
f 634/634/634 633/633/633 632/632/632
f 635/635/635 634/634/634 632/632/632
f 636/636/636 634/634/634 635/635/635
f 637/637/637 636/636/636 635/635/635
f 629/629/629 630/630/630 638/638/638
f 641/641/641 640/640/640 639/639/639
f 639/639/639 640/640/640 642/642/642
f 640/640/640 643/643/643 642/642/642
f 642/642/642 643/643/643 644/644/644
f 643/643/643 645/645/645 644/644/644
f 644/644/644 645/645/645 646/646/646
f 645/645/645 647/647/647 646/646/646
f 646/646/646 647/647/647 648/648/648
f 648/648/648 647/647/647 649/649/649
f 649/649/649 647/647/647 650/650/650
f 649/649/649 650/650/650 651/651/651
f 651/651/651 650/650/650 652/652/652
f 651/651/651 652/652/652 653/653/653
f 653/653/653 652/652/652 654/654/654
f 653/653/653 654/654/654 639/639/639
f 639/639/639 654/654/654 641/641/641
f 657/657/657 656/656/656 655/655/655
f 658/658/658 656/656/656 657/657/657
f 658/658/658 659/659/659 656/656/656
f 660/660/660 659/659/659 658/658/658
f 660/660/660 661/661/661 659/659/659
f 662/662/662 661/661/661 660/660/660
f 662/662/662 663/663/663 661/661/661
f 664/664/664 663/663/663 662/662/662
f 665/665/665 663/663/663 664/664/664
f 666/666/666 663/663/663 665/665/665
f 667/667/667 666/666/666 665/665/665
f 668/668/668 666/666/666 667/667/667
f 669/669/669 668/668/668 667/667/667
f 670/670/670 668/668/668 669/669/669
f 657/657/657 670/670/670 669/669/669
f 655/655/655 670/670/670 657/657/657
f 673/673/673 672/672/672 671/671/671
f 676/676/676 675/675/675 674/674/674
f 679/679/679 678/678/678 677/677/677
f 682/682/682 681/681/681 680/680/680
f 685/685/685 684/684/684 683/683/683
f 686/686/686 684/684/684 685/685/685
f 689/689/689 688/688/688 687/687/687
f 687/687/687 688/688/688 690/690/690
f 693/693/693 692/692/692 691/691/691
f 694/694/694 692/692/692 693/693/693
f 697/697/697 696/696/696 695/695/695
f 695/695/695 696/696/696 698/698/698
f 701/701/701 700/700/700 699/699/699
f 702/702/702 700/700/700 701/701/701
f 705/705/705 704/704/704 703/703/703
f 703/703/703 704/704/704 706/706/706
f 709/709/709 708/708/708 707/707/707
f 709/709/709 707/707/707 710/710/710
f 707/707/707 711/711/711 710/710/710
f 708/708/708 711/711/711 707/707/707
f 714/714/714 713/713/713 712/712/712
f 714/714/714 712/712/712 715/715/715
f 712/712/712 716/716/716 715/715/715
f 713/713/713 716/716/716 712/712/712
f 719/719/719 718/718/718 717/717/717
f 719/719/719 717/717/717 720/720/720
f 717/717/717 721/721/721 720/720/720
f 718/718/718 721/721/721 717/717/717
f 724/724/724 723/723/723 722/722/722
f 722/722/722 723/723/723 725/725/725
f 724/724/724 726/726/726 723/723/723
f 727/727/727 726/726/726 724/724/724
f 730/730/730 729/729/729 728/728/728
f 731/731/731 729/729/729 730/730/730
f 729/729/729 732/732/732 728/728/728
f 728/728/728 732/732/732 733/733/733
f 736/736/736 735/735/735 734/734/734
f 737/737/737 736/736/736 734/734/734
f 737/737/737 738/738/738 736/736/736
f 736/736/736 738/738/738 735/735/735
f 741/741/741 740/740/740 739/739/739
f 742/742/742 740/740/740 741/741/741
f 740/740/740 743/743/743 739/739/739
f 739/739/739 743/743/743 744/744/744
f 747/747/747 746/746/746 745/745/745
f 747/747/747 745/745/745 748/748/748
f 745/745/745 749/749/749 748/748/748
f 746/746/746 749/749/749 745/745/745
f 752/752/752 751/751/751 750/750/750
f 750/750/750 751/751/751 753/753/753
f 752/752/752 754/754/754 751/751/751
f 755/755/755 754/754/754 752/752/752
f 758/758/758 757/757/757 756/756/756
f 758/758/758 756/756/756 759/759/759
f 759/759/759 760/760/760 758/758/758
f 760/760/760 761/761/761 758/758/758
f 756/756/756 762/762/762 759/759/759
f 759/759/759 762/762/762 760/760/760
f 756/756/756 763/763/763 762/762/762
f 762/762/762 764/764/764 760/760/760
f 767/767/767 766/766/766 765/765/765
f 765/765/765 769/769/769 768/768/768
f 771/771/771 770/770/770 768/768/768
f 774/774/774 773/773/773 772/772/772
f 777/777/777 776/776/776 775/775/775
f 780/780/780 779/779/779 778/778/778
f 782/782/782 779/779/779 781/781/781
f 785/785/785 784/784/784 783/783/783
f 787/787/787 784/784/784 786/786/786
f 790/790/790 789/789/789 788/788/788
f 793/793/793 792/792/792 791/791/791
f 796/796/796 795/795/795 794/794/794
f 799/799/799 798/798/798 797/797/797
f 801/801/801 800/800/800 799/799/799
f 797/797/797 803/803/803 802/802/802
f 806/806/806 805/805/805 804/804/804
f 809/809/809 808/808/808 807/807/807
f 812/812/812 811/811/811 810/810/810
f 814/814/814 811/811/811 813/813/813
f 817/817/817 816/816/816 815/815/815
f 820/820/820 819/819/819 818/818/818
f 823/823/823 822/822/822 821/821/821
f 826/826/826 825/825/825 824/824/824
f 829/829/829 828/828/828 827/827/827
f 832/832/832 831/831/831 830/830/830
f 835/835/835 834/834/834 833/833/833
f 838/838/838 837/837/837 836/836/836
f 837/837/837 839/839/839 836/836/836
f 842/842/842 841/841/841 840/840/840
f 845/845/845 844/844/844 843/843/843
f 848/848/848 847/847/847 846/846/846
f 851/851/851 850/850/850 849/849/849
f 854/854/854 853/853/853 852/852/852
f 855/855/855 854/854/854 852/852/852
f 855/855/855 856/856/856 854/854/854
f 854/854/854 856/856/856 853/853/853
