mtllib B_0011_2a.mtl
g B_0011_2a
v -1.3499999 -0.224999994 5.21999979
v -1.125 0 4.76999998
v -1.43999994 0 5.21999979
v -1.3499999 0.224999994 5.21999979
v -1.03499997 0.224999994 4.76999998
v -1.03499997 -0.224999994 4.76999998
v -1.07999992 -0.314999998 5.48999977
v -1.43999994 0 5.21999979
v -1.07999992 0 5.57999992
v -1.3499999 -0.224999994 5.21999979
v -1.07999992 0.314999998 5.48999977
v -1.3499999 0.224999994 5.21999979
v -0.809999943 0.449999988 5.6699996
v -0.404999971 0.404999971 6.20999956
v -0.404999971 0.224999994 5.98499966
v -0.584999979 0.224999994 6.20999956
v -0.485999972 0.368999988 6.11999989
v -0.611999989 0.269999981 6.03899956
v -0.539999962 0.359999985 2.69999981
v -0.719999969 0.449999988 2.69999981
v -0.719999969 0.449999988 3.68999982
v -0.584999979 0.404999971 3.68999982
v -0.584999979 0.404999971 3.68999982
v -0.719999969 0.449999988 3.68999982
v -0.494999975 0.719999969 3.68999982
v -0.404999971 0.629999995 3.68999982
v -0.224999994 0.98999995 3.41999984
v -0.13499999 0.854999959 3.41999984
v -0.899999976 0.674999952 5.48999977
v -1.3499999 0.224999994 5.21999979
v -0.98999995 0.809999943 5.21999979
v -0.539999962 0.944999933 5.53499985
v -0.449999988 0.629999995 5.80499983
v -0.809999943 0.449999988 5.6699996
v -1.07999992 0.314999998 5.48999977
v -1.3499999 0.224999994 5.21999979
v -1.03499997 0.224999994 4.76999998
v -0.899999976 0.674999952 4.85999966
v -0.98999995 0.809999943 5.21999979
v -0.899999976 -0.674999952 4.85999966
v -1.03499997 -0.224999994 4.76999998
v -1.3499999 -0.224999994 5.21999979
v -0.494999975 0.719999969 3.68999982
v -0.539999962 0.809999943 3.19499993
v -0.224999994 0.98999995 3.41999984
v -0.719999969 0.449999988 3.68999982
v -0.719999969 0.449999988 2.69999981
v -0.13499999 0.854999959 3.41999984
v -0.359999985 0.629999995 2.87999988
v -0.404999971 0.629999995 3.68999982
v -0.584999979 0.404999971 3.68999982
v -0.539999962 0.359999985 2.69999981
v 0.449999988 0.944999933 4.81499958
v 0.674999952 0.539999962 4.63499975
v 0.809999943 0.584999979 4.81499958
v 0.404999971 0.809999943 4.63499975
v -0 0.944999933 4.67999983
v 0.0449999981 1.03499997 4.90499973
v -0.404999971 0.899999976 4.76999998
v -0.449999988 0.98999995 5.03999996
v -0.809999943 0.629999995 4.94999981
v -0.899999976 0.674999952 5.21999979
v 0.296999991 1.05299997 7.10999966
v 0.215999991 0.854999959 6.65999985
v 0.296999991 1.05299997 6.65999985
v 0.215999991 0.854999959 7.10999966
v 0.773999989 0.854999959 6.65999985
v 0.692999959 0.656999946 6.65999985
v 0.692999959 0.656999946 7.10999966
v 0.773999989 0.854999959 7.10999966
v 0.296999991 0.656999946 6.65999985
v 0.215999991 0.854999959 6.65999985
v 0.215999991 0.854999959 7.10999966
v 0.296999991 0.656999946 7.10999966
v 0.494999975 0.575999975 6.65999985
v 0.296999991 0.656999946 6.65999985
v 0.296999991 0.656999946 7.10999966
v 0.494999975 0.575999975 7.10999966
v 0.692999959 0.656999946 6.65999985
v 0.494999975 0.575999975 6.65999985
v 0.494999975 0.575999975 7.10999966
v 0.692999959 0.656999946 7.10999966
v 0.494999975 1.13399994 7.10999966
v 0.296999991 1.05299997 6.65999985
v 0.494999975 1.13399994 6.65999985
v 0.296999991 1.05299997 7.10999966
v 0.692999959 1.05299997 7.10999966
v 0.494999975 1.13399994 6.65999985
v 0.692999959 1.05299997 6.65999985
v 0.494999975 1.13399994 7.10999966
v 0.773999989 0.854999959 7.10999966
v 0.692999959 1.05299997 6.65999985
v 0.773999989 0.854999959 6.65999985
v 0.692999959 1.05299997 7.10999966
v -0.584999979 0.755999982 3.40199995
v -0.620999992 0.674999952 3.3119998
v -0.566999972 0.782999992 3.3119998
v -0.584999979 0.755999982 3.22199988
v -0.620999992 0.674999952 3.18599987
v -0.620999992 0.674999952 3.43799996
v -0.656999946 0.593999982 3.22199988
v -0.674999952 0.566999972 3.3119998
v -0.656999946 0.593999982 3.40199995
v -0.548999965 0.782999992 3.01499987
v -0.593999982 0.701999962 2.93399978
v -0.521999955 0.800999939 2.93399978
v -0.530999959 0.764999986 2.84399986
v -0.575999975 0.692999959 2.80799985
v -0.602999985 0.710999966 3.05099988
v -0.629999995 0.620999992 2.84399986
v -0.656999946 0.593999982 2.93399978
v -0.648000002 0.629999995 3.01499987
v 1.125 0.539999962 5.71499968
v 1.07999992 0.539999962 5.48999977
v 1.125 0.359999985 5.48999977
v 1.16999996 0.359999985 5.71499968
v 1.07999992 0.359999985 6.07499981
v 1.03499997 0.539999962 6.02999973
v 0.764999986 0.539999962 6.29999971
v 0.764999986 0.359999985 6.34499979
v 0.359999985 0.539999962 6.38999987
v 0.764999986 0.539999962 6.29999971
v 0.764999986 0.359999985 6.34499979
v 0.359999985 0.359999985 6.43499994
v -0 0.314999998 6.34499979
v 0.0449999981 0.494999975 6.29999971
v -0.179999992 0.449999988 6.07499981
v -0.224999994 0.269999981 6.11999989
v 0.773999989 0.854999959 5.89499998
v 0.692999959 0.656999946 5.89499998
v 0.773999989 0.854999959 6.25499964
v 0.692999959 0.656999946 6.25499964
v 0.773999989 0.854999959 6.25499964
v 0.692999959 1.05299997 5.89499998
v 0.773999989 0.854999959 5.89499998
v 0.692999959 1.05299997 6.25499964
v 0.215999991 0.854999959 6.25499964
v 0.215999991 0.854999959 5.89499998
v 0.296999991 1.05299997 5.89499998
v 0.296999991 1.05299997 6.25499964
v 0.296999991 0.656999946 5.89499998
v 0.215999991 0.854999959 5.89499998
v 0.215999991 0.854999959 6.25499964
v 0.296999991 0.656999946 6.25499964
v 0.296999991 1.05299997 6.25499964
v 0.296999991 1.05299997 5.89499998
v 0.494999975 1.13399994 5.89499998
v 0.494999975 1.13399994 6.25499964
v 0.494999975 0.575999975 5.89499998
v 0.296999991 0.656999946 5.89499998
v 0.296999991 0.656999946 6.25499964
v 0.494999975 0.575999975 6.25499964
v 0.692999959 1.05299997 6.25499964
v 0.494999975 1.13399994 5.89499998
v 0.692999959 1.05299997 5.89499998
v 0.494999975 1.13399994 6.25499964
v 0.692999959 0.656999946 5.89499998
v 0.494999975 0.575999975 5.89499998
v 0.692999959 0.656999946 6.25499964
v 0.494999975 0.575999975 6.25499964
v 0.692999959 0.656999946 6.60599995
v 0.494999975 0.575999975 6.25499964
v 0.494999975 0.575999975 6.60599995
v 0.692999959 0.656999946 6.25499964
v 0.296999991 1.05299997 6.60599995
v 0.494999975 1.13399994 6.25499964
v 0.494999975 1.13399994 6.60599995
v 0.296999991 1.05299997 6.25499964
v 0.296999991 1.05299997 6.60599995
v 0.215999991 0.854999959 6.25499964
v 0.296999991 1.05299997 6.25499964
v 0.215999991 0.854999959 6.60599995
v 0.692999959 1.05299997 6.60599995
v 0.692999959 1.05299997 6.25499964
v 0.773999989 0.854999959 6.25499964
v 0.773999989 0.854999959 6.60599995
v 0.773999989 0.854999959 6.25499964
v 0.692999959 0.656999946 6.25499964
v 0.692999959 0.656999946 6.60599995
v 0.773999989 0.854999959 6.60599995
v 0.296999991 0.656999946 6.25499964
v 0.215999991 0.854999959 6.25499964
v 0.215999991 0.854999959 6.60599995
v 0.296999991 0.656999946 6.60599995
v 0.494999975 0.575999975 6.25499964
v 0.296999991 0.656999946 6.25499964
v 0.296999991 0.656999946 6.60599995
v 0.494999975 0.575999975 6.60599995
v 0.494999975 1.13399994 6.60599995
v 0.494999975 1.13399994 6.25499964
v 0.692999959 1.05299997 6.25499964
v 0.692999959 1.05299997 6.60599995
v 0.305999994 0.251999974 5.81399965
v 0.0629999936 0.251999974 5.21999979
v 0.899999976 0.251999974 5.21999979
v 0.305999994 0.251999974 4.62599993
v 0.899999976 0.251999974 4.3829999
v 1.49399996 0.251999974 4.62599993
v 1.73699987 0.251999974 5.21999979
v 1.49399996 0.251999974 5.81399965
v 0.899999976 0.251999974 6.05699968
v 0.944999933 0.404999971 6.65999985
v 0.494999975 0.224999994 6.65999985
v 0.494999975 0.854999959 6.65999985
v 0.0449999981 0.404999971 6.65999985
v -0.13499999 0.854999959 6.65999985
v 0.0449999981 1.30499995 6.65999985
v 0.494999975 1.4849999 6.65999985
v 0.944999933 1.30499995 6.65999985
v 1.125 0.854999959 6.65999985
v -0.404999971 0.899999976 4.44599962
v -0 0.944999933 4.34699965
v -0.332999974 0.881999969 4.78799963
v 0.0810000002 0.926999986 4.68899965
v -0.719999969 0.638999999 4.93199968
v -0.809999943 0.629999995 4.6079998
v 0.0810000002 0.926999986 4.68899965
v -0 0.944999933 4.34699965
v 0.449999988 0.818999946 4.62599993
v 0.413999975 0.818999946 4.30200005
v 0.755999982 0.593999982 4.57200003
v 0.683999956 0.548999965 4.30200005
vt 0.0253909994 0.0292969998
vt 0.0800779983 0.00195299997
vt 0.0136719998 0.00195299997
vt 0.0253909994 0.0292969998
vt 0.0917970017 0.0292969998
vt 0.0917970017 0.0292969998
vt 0.0449220017 0.787109017
vt 0.00195299997 0.748046994
vt 0.00195299997 0.806640983
vt 0.0292969998 0.748046994
vt 0.0449220017 0.787109017
vt 0.0292969998 0.748046994
vt 0.0683590025 0.814453006
vt 0.271483988 0.919921994
vt 0.232421994 0.955078006
vt 0.224609002 0.919921994
vt 0.255858988 0.904296994
vt 0.228515998 0.892578006
vt 0.619140983 0.861328006
vt 0.619140983 0.876953006
vt 0.537109017 0.876953006
vt 0.537109017 0.861328006
vt 0.998046994 0.697265983
vt 0.978515983 0.697265983
vt 0.978515983 0.669921994
vt 0.998046994 0.669921994
vt 0.978515983 0.630859017
vt 0.998046994 0.630859017
vt 0.0917970017 0.779296994
vt 0.0292969998 0.748046994
vt 0.0996090025 0.748046994
vt 0.138671994 0.783203006
vt 0.119140998 0.833984017
vt 0.0683590025 0.814453006
vt 0.0449220017 0.787109017
vt 0.0253909994 0.0292969998
vt 0.0917970017 0.0292969998
vt 0.107422002 0.0878909975
vt 0.0722659975 0.107422002
vt 0.107422002 0.0878909975
vt 0.0917970017 0.0292969998
vt 0.0253909994 0.0292969998
vt 0.0449220017 0.302733988
vt 0.0488279983 0.244140998
vt 0.0917970017 0.271483988
vt 0.00195299997 0.302733988
vt 0.00195299997 0.181640998
vt 0.166015998 0.294921994
vt 0.111327998 0.330078006
vt 0.197265998 0.333983988
vt 0.197265998 0.369141012
vt 0.0917970017 0.369141012
vt 0.474608988 0.337891012
vt 0.525390983 0.314453006
vt 0.525390983 0.337891012
vt 0.478516012 0.314453006
vt 0.435546994 0.314453006
vt 0.435546994 0.337891012
vt 0.388671994 0.314453006
vt 0.376953006 0.337891012
vt 0.326171994 0.314453006
vt 0.326171994 0.337891012
vt 0.0645470023 0.744140983
vt 0.00195299997 0.654296994
vt 0.0645470023 0.654296994
vt 0.00195299997 0.744140983
vt 0.00195299997 0.654296994
vt 0.0645470023 0.654296994
vt 0.0645470023 0.744140983
vt 0.00195299997 0.744140983
vt 0.00195299997 0.654296994
vt 0.0645470023 0.654296994
vt 0.0645470023 0.744140983
vt 0.00195299997 0.744140983
vt 0.00195299997 0.654296994
vt 0.0645470023 0.654296994
vt 0.0645470023 0.744140983
vt 0.00195299997 0.744140983
vt 0.00195299997 0.654296994
vt 0.0645470023 0.654296994
vt 0.0645470023 0.744140983
vt 0.00195299997 0.744140983
vt 0.0645470023 0.744140983
vt 0.00195299997 0.654296994
vt 0.0645470023 0.654296994
vt 0.00195299997 0.744140983
vt 0.0645470023 0.744140983
vt 0.00195299997 0.654296994
vt 0.0645470023 0.654296994
vt 0.00195299997 0.744140983
vt 0.0645470023 0.744140983
vt 0.00195299997 0.654296994
vt 0.0645470023 0.654296994
vt 0.00195299997 0.744140983
vt 0.412108988 0.0996090025
vt 0.498046994 0.0136719998
vt 0.498046994 0.134765998
vt 0.412108988 0.0996090025
vt 0.498046994 0.134765998
vt 0.498046994 0.134765998
vt 0.412108988 0.0996090025
vt 0.498046994 0.134765998
vt 0.412108988 0.0996090025
vt 0.412108988 0.0996090025
vt 0.498046994 0.0136719998
vt 0.498046994 0.134765998
vt 0.412108988 0.0996090025
vt 0.498046994 0.134765998
vt 0.498046994 0.134765998
vt 0.412108988 0.0996090025
vt 0.498046994 0.134765998
vt 0.412108988 0.0996090025
vt 0.697265983 0.0332029983
vt 0.751953006 0.0332029983
vt 0.751953006 0.0917970017
vt 0.697265983 0.0917970017
vt 0.607421994 0.0917970017
vt 0.611328006 0.0332029983
vt 0.509765983 0.0332029983
vt 0.509765983 0.0917970017
vt 0.658203006 0.0332029983
vt 0.751953006 0.0332029983
vt 0.751953006 0.0917970017
vt 0.658203006 0.0917970017
vt 0.572265983 0.0917970017
vt 0.580078006 0.0332029983
vt 0.509765983 0.0332029983
vt 0.509765983 0.0917970017
vt 0.130859002 0.744140983
vt 0.130859002 0.654296994
vt 0.310546994 0.744140983
vt 0.310546994 0.654296994
vt 0.310546994 0.654296994
vt 0.130859002 0.744140983
vt 0.130859002 0.654296994
vt 0.310546994 0.744140983
vt 0.310546994 0.744140983
vt 0.130859002 0.744140983
vt 0.130859002 0.654296994
vt 0.310546994 0.654296994
vt 0.130859002 0.744140983
vt 0.130859002 0.654296994
vt 0.310546994 0.654296994
vt 0.310546994 0.744140983
vt 0.310546994 0.744140983
vt 0.130859002 0.744140983
vt 0.130859002 0.654296994
vt 0.310546994 0.654296994
vt 0.130859002 0.744140983
vt 0.130859002 0.654296994
vt 0.310546994 0.654296994
vt 0.310546994 0.744140983
vt 0.310546994 0.654296994
vt 0.130859002 0.744140983
vt 0.130859002 0.654296994
vt 0.310546994 0.744140983
vt 0.130859002 0.744140983
vt 0.130859002 0.654296994
vt 0.310546994 0.744140983
vt 0.310546994 0.654296994
vt 0.310546994 0.744140983
vt 0.130859002 0.654296994
vt 0.310546994 0.654296994
vt 0.130859002 0.744140983
vt 0.310546994 0.744140983
vt 0.130859002 0.654296994
vt 0.310546994 0.654296994
vt 0.130859002 0.744140983
vt 0.310546994 0.654296994
vt 0.130859002 0.744140983
vt 0.130859002 0.654296994
vt 0.310546994 0.744140983
vt 0.310546994 0.744140983
vt 0.130859002 0.744140983
vt 0.130859002 0.654296994
vt 0.310546994 0.654296994
vt 0.130859002 0.744140983
vt 0.130859002 0.654296994
vt 0.310546994 0.654296994
vt 0.310546994 0.744140983
vt 0.130859002 0.744140983
vt 0.130859002 0.654296994
vt 0.310546994 0.654296994
vt 0.310546994 0.744140983
vt 0.130859002 0.744140983
vt 0.130859002 0.654296994
vt 0.310546994 0.654296994
vt 0.310546994 0.744140983
vt 0.310546994 0.744140983
vt 0.130859002 0.744140983
vt 0.130859002 0.654296994
vt 0.310546994 0.654296994
vt 0.783203006 0.142578006
vt 0.873046994 0.181640998
vt 0.783203006 0.271483988
vt 0.783203006 0.142578006
vt 0.873046994 0.181640998
vt 0.783203006 0.142578006
vt 0.873046994 0.181640998
vt 0.783203006 0.142578006
vt 0.873046994 0.181640998
vt 0.783203006 0.142578006
vt 0.873046994 0.181640998
vt 0.783203006 0.271483988
vt 0.783203006 0.142578006
vt 0.873046994 0.181640998
vt 0.783203006 0.142578006
vt 0.873046994 0.181640998
vt 0.783203006 0.142578006
vt 0.873046994 0.181640998
vt 0.228515998 0.658203006
vt 0.314453006 0.658203006
vt 0.224609002 0.744140983
vt 0.314453006 0.744140983
vt 0.130859002 0.744140983
vt 0.130859002 0.658203006
vt 0.216796994 0.744140983
vt 0.216796994 0.658203006
vt 0.310546994 0.744140983
vt 0.318358988 0.658203006
vt 0.400391012 0.744140983
vt 0.400391012 0.658203006
g B_0011_2a_0
usemtl n_B_0011_01
f 3/3/3 2/2/2 1/1/1
f 4/4/4 2/2/2 3/3/3
f 5/5/5 2/2/2 4/4/4
f 1/1/1 2/2/2 6/6/6
f 9/9/9 8/8/8 7/7/7
f 7/7/7 8/8/8 10/10/10
f 11/11/11 8/8/8 9/9/9
f 12/12/12 8/8/8 11/11/11
f 13/13/13 11/11/11 9/9/9
f 16/16/16 15/15/15 14/14/14
f 14/14/14 17/17/17 16/16/16
f 17/17/17 18/18/18 16/16/16
f 21/21/21 20/20/20 19/19/19
f 21/21/21 19/19/19 22/22/22
f 25/25/25 24/24/24 23/23/23
f 25/25/25 23/23/23 26/26/26
f 26/26/26 27/27/27 25/25/25
f 28/28/28 27/27/27 26/26/26
f 31/31/31 30/30/30 29/29/29
f 32/32/32 31/31/31 29/29/29
f 32/32/32 29/29/29 33/33/33
f 33/33/33 29/29/29 34/34/34
f 29/29/29 35/35/35 34/34/34
f 29/29/29 30/30/30 35/35/35
f 38/38/38 37/37/37 36/36/36
f 39/39/39 38/38/38 36/36/36
f 42/42/42 41/41/41 40/40/40
f 45/45/45 44/44/44 43/43/43
f 43/43/43 44/44/44 46/46/46
f 44/44/44 47/47/47 46/46/46
f 50/50/50 49/49/49 48/48/48
f 51/51/51 49/49/49 50/50/50
f 51/51/51 52/52/52 49/49/49
f 55/55/55 54/54/54 53/53/53
f 54/54/54 56/56/56 53/53/53
f 53/53/53 56/56/56 57/57/57
f 53/53/53 57/57/57 58/58/58
f 58/58/58 57/57/57 59/59/59
f 58/58/58 59/59/59 60/60/60
f 60/60/60 59/59/59 61/61/61
f 60/60/60 61/61/61 62/62/62
f 65/65/65 64/64/64 63/63/63
f 63/63/63 64/64/64 66/66/66
f 69/69/69 68/68/68 67/67/67
f 69/69/69 67/67/67 70/70/70
f 73/73/73 72/72/72 71/71/71
f 73/73/73 71/71/71 74/74/74
f 77/77/77 76/76/76 75/75/75
f 77/77/77 75/75/75 78/78/78
f 81/81/81 80/80/80 79/79/79
f 81/81/81 79/79/79 82/82/82
f 85/85/85 84/84/84 83/83/83
f 83/83/83 84/84/84 86/86/86
f 89/89/89 88/88/88 87/87/87
f 87/87/87 88/88/88 90/90/90
f 93/93/93 92/92/92 91/91/91
f 91/91/91 92/92/92 94/94/94
g B_0011_2a_1
usemtl a_B_0011_01
f 97/97/97 96/96/96 95/95/95
f 97/97/97 98/98/98 96/96/96
f 98/98/98 99/99/99 96/96/96
f 95/95/95 96/96/96 100/100/100
f 96/96/96 99/99/99 101/101/101
f 96/96/96 101/101/101 102/102/102
f 103/103/103 96/96/96 102/102/102
f 100/100/100 96/96/96 103/103/103
f 106/106/106 105/105/105 104/104/104
f 106/106/106 107/107/107 105/105/105
f 107/107/107 108/108/108 105/105/105
f 104/104/104 105/105/105 109/109/109
f 105/105/105 108/108/108 110/110/110
f 105/105/105 110/110/110 111/111/111
f 112/112/112 105/105/105 111/111/111
f 109/109/109 105/105/105 112/112/112
f 115/115/115 114/114/114 113/113/113
f 116/116/116 115/115/115 113/113/113
f 116/116/116 113/113/113 117/117/117
f 117/117/117 113/113/113 118/118/118
f 117/117/117 118/118/118 119/119/119
f 120/120/120 117/117/117 119/119/119
f 123/123/123 122/122/122 121/121/121
f 124/124/124 123/123/123 121/121/121
f 121/121/121 125/125/125 124/124/124
f 121/121/121 126/126/126 125/125/125
f 126/126/126 127/127/127 125/125/125
f 125/125/125 127/127/127 128/128/128
f 131/131/131 130/130/130 129/129/129
f 132/132/132 130/130/130 131/131/131
f 135/135/135 134/134/134 133/133/133
f 133/133/133 134/134/134 136/136/136
f 139/139/139 138/138/138 137/137/137
f 140/140/140 139/139/139 137/137/137
f 143/143/143 142/142/142 141/141/141
f 143/143/143 141/141/141 144/144/144
f 147/147/147 146/146/146 145/145/145
f 148/148/148 147/147/147 145/145/145
f 151/151/151 150/150/150 149/149/149
f 151/151/151 149/149/149 152/152/152
f 155/155/155 154/154/154 153/153/153
f 153/153/153 154/154/154 156/156/156
f 159/159/159 158/158/158 157/157/157
f 160/160/160 158/158/158 159/159/159
f 163/163/163 162/162/162 161/161/161
f 161/161/161 162/162/162 164/164/164
f 167/167/167 166/166/166 165/165/165
f 166/166/166 168/168/168 165/165/165
f 171/171/171 170/170/170 169/169/169
f 169/169/169 170/170/170 172/172/172
f 175/175/175 174/174/174 173/173/173
f 176/176/176 175/175/175 173/173/173
f 179/179/179 178/178/178 177/177/177
f 179/179/179 177/177/177 180/180/180
f 183/183/183 182/182/182 181/181/181
f 183/183/183 181/181/181 184/184/184
f 187/187/187 186/186/186 185/185/185
f 187/187/187 185/185/185 188/188/188
f 191/191/191 190/190/190 189/189/189
f 192/192/192 191/191/191 189/189/189
f 195/195/195 194/194/194 193/193/193
f 195/195/195 196/196/196 194/194/194
f 195/195/195 197/197/197 196/196/196
f 198/198/198 197/197/197 195/195/195
f 199/199/199 198/198/198 195/195/195
f 199/199/199 195/195/195 200/200/200
f 201/201/201 195/195/195 193/193/193
f 200/200/200 195/195/195 201/201/201
f 204/204/204 203/203/203 202/202/202
f 204/204/204 205/205/205 203/203/203
f 204/204/204 206/206/206 205/205/205
f 207/207/207 206/206/206 204/204/204
f 208/208/208 207/207/207 204/204/204
f 208/208/208 204/204/204 209/209/209
f 210/210/210 204/204/204 202/202/202
f 209/209/209 204/204/204 210/210/210
f 213/213/213 212/212/212 211/211/211
f 214/214/214 212/212/212 213/213/213
f 213/213/213 211/211/211 215/215/215
f 215/215/215 211/211/211 216/216/216
f 219/219/219 218/218/218 217/217/217
f 219/219/219 220/220/220 218/218/218
f 221/221/221 220/220/220 219/219/219
f 222/222/222 220/220/220 221/221/221
